<?xml version="1.0"?>
<!-- Generated by SVGo and Plotinum VG -->
<svg width="1080pt" height="1080pt" viewBox="0 0 1080 1080"
	xmlns="http://www.w3.org/2000/svg"
	xmlns:xlink="http://www.w3.org/1999/xlink">
<g transform="scale(1, -1) translate(0, -1080)">
<path d="M0,0L1080,0L1080,1080L0,1080Z" style="fill:#-8000000000000000-8000000000000000-8000000000000000;fill-opacity:0" />
<text x="205.11" y="-1039.5" transform="scale(1, -1)"
	style="font-family:Helvetica;font-weight:normal;font-style:normal;font-size:50px">1 cm pak1chip3-20um4 CABS</text>
<text x="475.05" y="-11.039" transform="scale(1, -1)"
	style="font-family:Helvetica;font-weight:normal;font-style:normal;font-size:36px">Frequency (GHz)</text>
<text x="167.82" y="-71.258" transform="scale(1, -1)"
	style="font-family:Helvetica;font-weight:normal;font-style:normal;font-size:36px">10.65</text>
<text x="301.23" y="-71.258" transform="scale(1, -1)"
	style="font-family:Helvetica;font-weight:normal;font-style:normal;font-size:36px">10.75</text>
<text x="434.63" y="-71.258" transform="scale(1, -1)"
	style="font-family:Helvetica;font-weight:normal;font-style:normal;font-size:36px">10.85</text>
<text x="568.04" y="-71.258" transform="scale(1, -1)"
	style="font-family:Helvetica;font-weight:normal;font-style:normal;font-size:36px">10.95</text>
<text x="702.78" y="-71.258" transform="scale(1, -1)"
	style="font-family:Helvetica;font-weight:normal;font-style:normal;font-size:36px">11.05</text>
<text x="836.18" y="-71.258" transform="scale(1, -1)"
	style="font-family:Helvetica;font-weight:normal;font-style:normal;font-size:36px">11.15</text>
<text x="969.59" y="-71.258" transform="scale(1, -1)"
	style="font-family:Helvetica;font-weight:normal;font-style:normal;font-size:36px">11.25</text>
<path d="M146.16,112.44L146.16,108.44" style="fill:none;stroke:#000000;stroke-width:1.5" />
<path d="M212.87,116.44L212.87,108.44" style="fill:none;stroke:#000000;stroke-width:1.5" />
<path d="M279.57,112.44L279.57,108.44" style="fill:none;stroke:#000000;stroke-width:1.5" />
<path d="M346.27,116.44L346.27,108.44" style="fill:none;stroke:#000000;stroke-width:1.5" />
<path d="M412.97,112.44L412.97,108.44" style="fill:none;stroke:#000000;stroke-width:1.5" />
<path d="M479.68,116.44L479.68,108.44" style="fill:none;stroke:#000000;stroke-width:1.5" />
<path d="M546.38,112.44L546.38,108.44" style="fill:none;stroke:#000000;stroke-width:1.5" />
<path d="M613.08,116.44L613.08,108.44" style="fill:none;stroke:#000000;stroke-width:1.5" />
<path d="M679.78,112.44L679.78,108.44" style="fill:none;stroke:#000000;stroke-width:1.5" />
<path d="M746.49,116.44L746.49,108.44" style="fill:none;stroke:#000000;stroke-width:1.5" />
<path d="M813.19,112.44L813.19,108.44" style="fill:none;stroke:#000000;stroke-width:1.5" />
<path d="M879.89,116.44L879.89,108.44" style="fill:none;stroke:#000000;stroke-width:1.5" />
<path d="M946.59,112.44L946.59,108.44" style="fill:none;stroke:#000000;stroke-width:1.5" />
<path d="M1013.3,116.44L1013.3,108.44" style="fill:none;stroke:#000000;stroke-width:1.5" />
<path d="M146.16,108.44L1080,108.44" style="fill:none;stroke:#000000;stroke-width:1.5" />
<g transform="rotate(90)">
<text x="370.81" y="29.18" transform="scale(1, -1)"
	style="font-family:Helvetica;font-weight:normal;font-style:normal;font-size:36px">Spectral Density (μV)</text>
</g>
<text x="107.89" y="-99.746" transform="scale(1, -1)"
	style="font-family:Helvetica;font-weight:normal;font-style:normal;font-size:36px">0</text>
<text x="67.848" y="-234.81" transform="scale(1, -1)"
	style="font-family:Helvetica;font-weight:normal;font-style:normal;font-size:36px">100</text>
<text x="67.848" y="-369.88" transform="scale(1, -1)"
	style="font-family:Helvetica;font-weight:normal;font-style:normal;font-size:36px">200</text>
<path d="M153.91,108.82L145.91,108.82" style="fill:none;stroke:#000000;stroke-width:1.5" />
<path d="M149.91,176.35L145.91,176.35" style="fill:none;stroke:#000000;stroke-width:1.5" />
<path d="M153.91,243.88L145.91,243.88" style="fill:none;stroke:#000000;stroke-width:1.5" />
<path d="M149.91,311.42L145.91,311.42" style="fill:none;stroke:#000000;stroke-width:1.5" />
<path d="M153.91,378.95L145.91,378.95" style="fill:none;stroke:#000000;stroke-width:1.5" />
<path d="M149.91,446.48L145.91,446.48" style="fill:none;stroke:#000000;stroke-width:1.5" />
<path d="M149.91,514.01L145.91,514.01" style="fill:none;stroke:#000000;stroke-width:1.5" />
<path d="M145.91,108.82L145.91,973.64" style="fill:none;stroke:#000000;stroke-width:1.5" />
<path d="M152.84,238.11L152.84,289.92" style="fill:none;stroke:#1FD3AC" />
<path d="M150.34,238.11L155.34,238.11" style="fill:none;stroke:#1FD3AC" />
<path d="M150.34,289.92L155.34,289.92" style="fill:none;stroke:#1FD3AC" />
<path d="M159.52,216.59L159.52,271.15" style="fill:none;stroke:#1FD3AC" />
<path d="M157.02,216.59L162.02,216.59" style="fill:none;stroke:#1FD3AC" />
<path d="M157.02,271.15L162.02,271.15" style="fill:none;stroke:#1FD3AC" />
<path d="M166.19,209.91L166.19,264.82" style="fill:none;stroke:#1FD3AC" />
<path d="M163.69,209.91L168.69,209.91" style="fill:none;stroke:#1FD3AC" />
<path d="M163.69,264.82L168.69,264.82" style="fill:none;stroke:#1FD3AC" />
<path d="M172.87,224.55L172.87,287.27" style="fill:none;stroke:#1FD3AC" />
<path d="M170.37,224.55L175.37,224.55" style="fill:none;stroke:#1FD3AC" />
<path d="M170.37,287.27L175.37,287.27" style="fill:none;stroke:#1FD3AC" />
<path d="M179.55,185.48L179.55,237.13" style="fill:none;stroke:#1FD3AC" />
<path d="M177.05,185.48L182.05,185.48" style="fill:none;stroke:#1FD3AC" />
<path d="M177.05,237.13L182.05,237.13" style="fill:none;stroke:#1FD3AC" />
<path d="M186.22,251.92L186.22,283.41" style="fill:none;stroke:#1FD3AC" />
<path d="M183.72,251.92L188.72,251.92" style="fill:none;stroke:#1FD3AC" />
<path d="M183.72,283.41L188.72,283.41" style="fill:none;stroke:#1FD3AC" />
<path d="M192.9,203.64L192.9,262" style="fill:none;stroke:#1FD3AC" />
<path d="M190.4,203.64L195.4,203.64" style="fill:none;stroke:#1FD3AC" />
<path d="M190.4,262L195.4,262" style="fill:none;stroke:#1FD3AC" />
<path d="M199.57,186.49L199.57,240.56" style="fill:none;stroke:#1FD3AC" />
<path d="M197.07,186.49L202.07,186.49" style="fill:none;stroke:#1FD3AC" />
<path d="M197.07,240.56L202.07,240.56" style="fill:none;stroke:#1FD3AC" />
<path d="M206.25,171.1L206.25,224.65" style="fill:none;stroke:#1FD3AC" />
<path d="M203.75,171.1L208.75,171.1" style="fill:none;stroke:#1FD3AC" />
<path d="M203.75,224.65L208.75,224.65" style="fill:none;stroke:#1FD3AC" />
<path d="M212.93,176.36L212.93,208.59" style="fill:none;stroke:#1FD3AC" />
<path d="M210.43,176.36L215.43,176.36" style="fill:none;stroke:#1FD3AC" />
<path d="M210.43,208.59L215.43,208.59" style="fill:none;stroke:#1FD3AC" />
<path d="M219.6,227.28L219.6,261.35" style="fill:none;stroke:#1FD3AC" />
<path d="M217.1,227.28L222.1,227.28" style="fill:none;stroke:#1FD3AC" />
<path d="M217.1,261.35L222.1,261.35" style="fill:none;stroke:#1FD3AC" />
<path d="M226.28,229.57L226.28,282.65" style="fill:none;stroke:#1FD3AC" />
<path d="M223.78,229.57L228.78,229.57" style="fill:none;stroke:#1FD3AC" />
<path d="M223.78,282.65L228.78,282.65" style="fill:none;stroke:#1FD3AC" />
<path d="M232.96,225.05L232.96,270.59" style="fill:none;stroke:#1FD3AC" />
<path d="M230.46,225.05L235.46,225.05" style="fill:none;stroke:#1FD3AC" />
<path d="M230.46,270.59L235.46,270.59" style="fill:none;stroke:#1FD3AC" />
<path d="M239.63,231.7L239.63,286.42" style="fill:none;stroke:#1FD3AC" />
<path d="M237.13,231.7L242.13,231.7" style="fill:none;stroke:#1FD3AC" />
<path d="M237.13,286.42L242.13,286.42" style="fill:none;stroke:#1FD3AC" />
<path d="M246.31,237.03L246.31,291.48" style="fill:none;stroke:#1FD3AC" />
<path d="M243.81,237.03L248.81,237.03" style="fill:none;stroke:#1FD3AC" />
<path d="M243.81,291.48L248.81,291.48" style="fill:none;stroke:#1FD3AC" />
<path d="M252.99,214.73L252.99,267.41" style="fill:none;stroke:#1FD3AC" />
<path d="M250.49,214.73L255.49,214.73" style="fill:none;stroke:#1FD3AC" />
<path d="M250.49,267.41L255.49,267.41" style="fill:none;stroke:#1FD3AC" />
<path d="M259.66,256.5L259.66,291.39" style="fill:none;stroke:#1FD3AC" />
<path d="M257.16,256.5L262.16,256.5" style="fill:none;stroke:#1FD3AC" />
<path d="M257.16,291.39L262.16,291.39" style="fill:none;stroke:#1FD3AC" />
<path d="M266.34,199.14L266.34,261.95" style="fill:none;stroke:#1FD3AC" />
<path d="M263.84,199.14L268.84,199.14" style="fill:none;stroke:#1FD3AC" />
<path d="M263.84,261.95L268.84,261.95" style="fill:none;stroke:#1FD3AC" />
<path d="M273.01,277.64L273.01,312.08" style="fill:none;stroke:#1FD3AC" />
<path d="M270.51,277.64L275.51,277.64" style="fill:none;stroke:#1FD3AC" />
<path d="M270.51,312.08L275.51,312.08" style="fill:none;stroke:#1FD3AC" />
<path d="M279.69,243.04L279.69,301.01" style="fill:none;stroke:#1FD3AC" />
<path d="M277.19,243.04L282.19,243.04" style="fill:none;stroke:#1FD3AC" />
<path d="M277.19,301.01L282.19,301.01" style="fill:none;stroke:#1FD3AC" />
<path d="M286.37,237.16L286.37,282.7" style="fill:none;stroke:#1FD3AC" />
<path d="M283.87,237.16L288.87,237.16" style="fill:none;stroke:#1FD3AC" />
<path d="M283.87,282.7L288.87,282.7" style="fill:none;stroke:#1FD3AC" />
<path d="M293.04,206.25L293.04,263.28" style="fill:none;stroke:#1FD3AC" />
<path d="M290.54,206.25L295.54,206.25" style="fill:none;stroke:#1FD3AC" />
<path d="M290.54,263.28L295.54,263.28" style="fill:none;stroke:#1FD3AC" />
<path d="M299.72,263.16L299.72,289.29" style="fill:none;stroke:#1FD3AC" />
<path d="M297.22,263.16L302.22,263.16" style="fill:none;stroke:#1FD3AC" />
<path d="M297.22,289.29L302.22,289.29" style="fill:none;stroke:#1FD3AC" />
<path d="M306.4,280.12L306.4,324.09" style="fill:none;stroke:#1FD3AC" />
<path d="M303.9,280.12L308.9,280.12" style="fill:none;stroke:#1FD3AC" />
<path d="M303.9,324.09L308.9,324.09" style="fill:none;stroke:#1FD3AC" />
<path d="M313.07,213.12L313.07,274.84" style="fill:none;stroke:#1FD3AC" />
<path d="M310.57,213.12L315.57,213.12" style="fill:none;stroke:#1FD3AC" />
<path d="M310.57,274.84L315.57,274.84" style="fill:none;stroke:#1FD3AC" />
<path d="M319.75,282.96L319.75,323.78" style="fill:none;stroke:#1FD3AC" />
<path d="M317.25,282.96L322.25,282.96" style="fill:none;stroke:#1FD3AC" />
<path d="M317.25,323.78L322.25,323.78" style="fill:none;stroke:#1FD3AC" />
<path d="M326.43,245.02L326.43,301.48" style="fill:none;stroke:#1FD3AC" />
<path d="M323.93,245.02L328.93,245.02" style="fill:none;stroke:#1FD3AC" />
<path d="M323.93,301.48L328.93,301.48" style="fill:none;stroke:#1FD3AC" />
<path d="M333.1,288.63L333.1,335.55" style="fill:none;stroke:#1FD3AC" />
<path d="M330.6,288.63L335.6,288.63" style="fill:none;stroke:#1FD3AC" />
<path d="M330.6,335.55L335.6,335.55" style="fill:none;stroke:#1FD3AC" />
<path d="M339.78,288.25L339.78,348.07" style="fill:none;stroke:#1FD3AC" />
<path d="M337.28,288.25L342.28,288.25" style="fill:none;stroke:#1FD3AC" />
<path d="M337.28,348.07L342.28,348.07" style="fill:none;stroke:#1FD3AC" />
<path d="M346.45,304.14L346.45,350.98" style="fill:none;stroke:#1FD3AC" />
<path d="M343.95,304.14L348.95,304.14" style="fill:none;stroke:#1FD3AC" />
<path d="M343.95,350.98L348.95,350.98" style="fill:none;stroke:#1FD3AC" />
<path d="M353.13,296.64L353.13,352.96" style="fill:none;stroke:#1FD3AC" />
<path d="M350.63,296.64L355.63,296.64" style="fill:none;stroke:#1FD3AC" />
<path d="M350.63,352.96L355.63,352.96" style="fill:none;stroke:#1FD3AC" />
<path d="M359.81,307.49L359.81,361.1" style="fill:none;stroke:#1FD3AC" />
<path d="M357.31,307.49L362.31,307.49" style="fill:none;stroke:#1FD3AC" />
<path d="M357.31,361.1L362.31,361.1" style="fill:none;stroke:#1FD3AC" />
<path d="M366.48,377.16L366.48,414.81" style="fill:none;stroke:#1FD3AC" />
<path d="M363.98,377.16L368.98,377.16" style="fill:none;stroke:#1FD3AC" />
<path d="M363.98,414.81L368.98,414.81" style="fill:none;stroke:#1FD3AC" />
<path d="M373.16,402.35L373.16,457.37" style="fill:none;stroke:#1FD3AC" />
<path d="M370.66,402.35L375.66,402.35" style="fill:none;stroke:#1FD3AC" />
<path d="M370.66,457.37L375.66,457.37" style="fill:none;stroke:#1FD3AC" />
<path d="M379.84,477L379.84,525.22" style="fill:none;stroke:#1FD3AC" />
<path d="M377.34,477L382.34,477" style="fill:none;stroke:#1FD3AC" />
<path d="M377.34,525.22L382.34,525.22" style="fill:none;stroke:#1FD3AC" />
<path d="M386.51,514.8L386.51,573.8" style="fill:none;stroke:#1FD3AC" />
<path d="M384.01,514.8L389.01,514.8" style="fill:none;stroke:#1FD3AC" />
<path d="M384.01,573.8L389.01,573.8" style="fill:none;stroke:#1FD3AC" />
<path d="M393.19,559L393.19,607" style="fill:none;stroke:#1FD3AC" />
<path d="M390.69,559L395.69,559" style="fill:none;stroke:#1FD3AC" />
<path d="M390.69,607L395.69,607" style="fill:none;stroke:#1FD3AC" />
<path d="M399.87,563.21L399.87,620.61" style="fill:none;stroke:#1FD3AC" />
<path d="M397.37,563.21L402.37,563.21" style="fill:none;stroke:#1FD3AC" />
<path d="M397.37,620.61L402.37,620.61" style="fill:none;stroke:#1FD3AC" />
<path d="M406.54,533.34L406.54,592.3" style="fill:none;stroke:#1FD3AC" />
<path d="M404.04,533.34L409.04,533.34" style="fill:none;stroke:#1FD3AC" />
<path d="M404.04,592.3L409.04,592.3" style="fill:none;stroke:#1FD3AC" />
<path d="M413.22,541.84L413.22,609.88" style="fill:none;stroke:#1FD3AC" />
<path d="M410.72,541.84L415.72,541.84" style="fill:none;stroke:#1FD3AC" />
<path d="M410.72,609.88L415.72,609.88" style="fill:none;stroke:#1FD3AC" />
<path d="M419.89,556.43L419.89,625.16" style="fill:none;stroke:#1FD3AC" />
<path d="M417.39,556.43L422.39,556.43" style="fill:none;stroke:#1FD3AC" />
<path d="M417.39,625.16L422.39,625.16" style="fill:none;stroke:#1FD3AC" />
<path d="M426.57,637.63L426.57,686.39" style="fill:none;stroke:#1FD3AC" />
<path d="M424.07,637.63L429.07,637.63" style="fill:none;stroke:#1FD3AC" />
<path d="M424.07,686.39L429.07,686.39" style="fill:none;stroke:#1FD3AC" />
<path d="M433.25,619.47L433.25,673.15" style="fill:none;stroke:#1FD3AC" />
<path d="M430.75,619.47L435.75,619.47" style="fill:none;stroke:#1FD3AC" />
<path d="M430.75,673.15L435.75,673.15" style="fill:none;stroke:#1FD3AC" />
<path d="M439.92,673.56L439.92,740.03" style="fill:none;stroke:#1FD3AC" />
<path d="M437.42,673.56L442.42,673.56" style="fill:none;stroke:#1FD3AC" />
<path d="M437.42,740.03L442.42,740.03" style="fill:none;stroke:#1FD3AC" />
<path d="M446.6,717.35L446.6,775.13" style="fill:none;stroke:#1FD3AC" />
<path d="M444.1,717.35L449.1,717.35" style="fill:none;stroke:#1FD3AC" />
<path d="M444.1,775.13L449.1,775.13" style="fill:none;stroke:#1FD3AC" />
<path d="M453.28,890.35L453.28,973.64" style="fill:none;stroke:#1FD3AC" />
<path d="M450.78,890.35L455.78,890.35" style="fill:none;stroke:#1FD3AC" />
<path d="M450.78,973.64L455.78,973.64" style="fill:none;stroke:#1FD3AC" />
<path d="M459.95,807.37L459.95,879.28" style="fill:none;stroke:#1FD3AC" />
<path d="M457.45,807.37L462.45,807.37" style="fill:none;stroke:#1FD3AC" />
<path d="M457.45,879.28L462.45,879.28" style="fill:none;stroke:#1FD3AC" />
<path d="M466.63,679.79L466.63,790.13" style="fill:none;stroke:#1FD3AC" />
<path d="M464.13,679.79L469.13,679.79" style="fill:none;stroke:#1FD3AC" />
<path d="M464.13,790.13L469.13,790.13" style="fill:none;stroke:#1FD3AC" />
<path d="M473.31,718.08L473.31,806.34" style="fill:none;stroke:#1FD3AC" />
<path d="M470.81,718.08L475.81,718.08" style="fill:none;stroke:#1FD3AC" />
<path d="M470.81,806.34L475.81,806.34" style="fill:none;stroke:#1FD3AC" />
<path d="M479.98,852.31L479.98,944.1" style="fill:none;stroke:#1FD3AC" />
<path d="M477.48,852.31L482.48,852.31" style="fill:none;stroke:#1FD3AC" />
<path d="M477.48,944.1L482.48,944.1" style="fill:none;stroke:#1FD3AC" />
<path d="M486.66,875.4L486.66,965.89" style="fill:none;stroke:#1FD3AC" />
<path d="M484.16,875.4L489.16,875.4" style="fill:none;stroke:#1FD3AC" />
<path d="M484.16,965.89L489.16,965.89" style="fill:none;stroke:#1FD3AC" />
<path d="M493.33,831.75L493.33,890.88" style="fill:none;stroke:#1FD3AC" />
<path d="M490.83,831.75L495.83,831.75" style="fill:none;stroke:#1FD3AC" />
<path d="M490.83,890.88L495.83,890.88" style="fill:none;stroke:#1FD3AC" />
<path d="M500.01,715.84L500.01,774.32" style="fill:none;stroke:#1FD3AC" />
<path d="M497.51,715.84L502.51,715.84" style="fill:none;stroke:#1FD3AC" />
<path d="M497.51,774.32L502.51,774.32" style="fill:none;stroke:#1FD3AC" />
<path d="M506.69,574.16L506.69,634.11" style="fill:none;stroke:#1FD3AC" />
<path d="M504.19,574.16L509.19,574.16" style="fill:none;stroke:#1FD3AC" />
<path d="M504.19,634.11L509.19,634.11" style="fill:none;stroke:#1FD3AC" />
<path d="M513.36,483.79L513.36,523.9" style="fill:none;stroke:#1FD3AC" />
<path d="M510.86,483.79L515.86,483.79" style="fill:none;stroke:#1FD3AC" />
<path d="M510.86,523.9L515.86,523.9" style="fill:none;stroke:#1FD3AC" />
<path d="M520.04,425.29L520.04,459.06" style="fill:none;stroke:#1FD3AC" />
<path d="M517.54,425.29L522.54,425.29" style="fill:none;stroke:#1FD3AC" />
<path d="M517.54,459.06L522.54,459.06" style="fill:none;stroke:#1FD3AC" />
<path d="M526.72,335.83L526.72,384.28" style="fill:none;stroke:#1FD3AC" />
<path d="M524.22,335.83L529.22,335.83" style="fill:none;stroke:#1FD3AC" />
<path d="M524.22,384.28L529.22,384.28" style="fill:none;stroke:#1FD3AC" />
<path d="M533.39,323.41L533.39,352.99" style="fill:none;stroke:#1FD3AC" />
<path d="M530.89,323.41L535.89,323.41" style="fill:none;stroke:#1FD3AC" />
<path d="M530.89,352.99L535.89,352.99" style="fill:none;stroke:#1FD3AC" />
<path d="M540.07,265.35L540.07,315.46" style="fill:none;stroke:#1FD3AC" />
<path d="M537.57,265.35L542.57,265.35" style="fill:none;stroke:#1FD3AC" />
<path d="M537.57,315.46L542.57,315.46" style="fill:none;stroke:#1FD3AC" />
<path d="M546.75,270.18L546.75,306.67" style="fill:none;stroke:#1FD3AC" />
<path d="M544.25,270.18L549.25,270.18" style="fill:none;stroke:#1FD3AC" />
<path d="M544.25,306.67L549.25,306.67" style="fill:none;stroke:#1FD3AC" />
<path d="M553.42,220.96L553.42,269.44" style="fill:none;stroke:#1FD3AC" />
<path d="M550.92,220.96L555.92,220.96" style="fill:none;stroke:#1FD3AC" />
<path d="M550.92,269.44L555.92,269.44" style="fill:none;stroke:#1FD3AC" />
<path d="M560.1,235.58L560.1,265.05" style="fill:none;stroke:#1FD3AC" />
<path d="M557.6,235.58L562.6,235.58" style="fill:none;stroke:#1FD3AC" />
<path d="M557.6,265.05L562.6,265.05" style="fill:none;stroke:#1FD3AC" />
<path d="M566.77,265.65L566.77,303" style="fill:none;stroke:#1FD3AC" />
<path d="M564.27,265.65L569.27,265.65" style="fill:none;stroke:#1FD3AC" />
<path d="M564.27,303L569.27,303" style="fill:none;stroke:#1FD3AC" />
<path d="M573.45,249.18L573.45,300.63" style="fill:none;stroke:#1FD3AC" />
<path d="M570.95,249.18L575.95,249.18" style="fill:none;stroke:#1FD3AC" />
<path d="M570.95,300.63L575.95,300.63" style="fill:none;stroke:#1FD3AC" />
<path d="M580.13,257.96L580.13,298.55" style="fill:none;stroke:#1FD3AC" />
<path d="M577.63,257.96L582.63,257.96" style="fill:none;stroke:#1FD3AC" />
<path d="M577.63,298.55L582.63,298.55" style="fill:none;stroke:#1FD3AC" />
<path d="M586.8,275.16L586.8,322.87" style="fill:none;stroke:#1FD3AC" />
<path d="M584.3,275.16L589.3,275.16" style="fill:none;stroke:#1FD3AC" />
<path d="M584.3,322.87L589.3,322.87" style="fill:none;stroke:#1FD3AC" />
<path d="M593.48,218.01L593.48,266.84" style="fill:none;stroke:#1FD3AC" />
<path d="M590.98,218.01L595.98,218.01" style="fill:none;stroke:#1FD3AC" />
<path d="M590.98,266.84L595.98,266.84" style="fill:none;stroke:#1FD3AC" />
<path d="M600.16,229.95L600.16,271.93" style="fill:none;stroke:#1FD3AC" />
<path d="M597.66,229.95L602.66,229.95" style="fill:none;stroke:#1FD3AC" />
<path d="M597.66,271.93L602.66,271.93" style="fill:none;stroke:#1FD3AC" />
<path d="M606.83,206.06L606.83,255.36" style="fill:none;stroke:#1FD3AC" />
<path d="M604.33,206.06L609.33,206.06" style="fill:none;stroke:#1FD3AC" />
<path d="M604.33,255.36L609.33,255.36" style="fill:none;stroke:#1FD3AC" />
<path d="M613.51,190.38L613.51,229.68" style="fill:none;stroke:#1FD3AC" />
<path d="M611.01,190.38L616.01,190.38" style="fill:none;stroke:#1FD3AC" />
<path d="M611.01,229.68L616.01,229.68" style="fill:none;stroke:#1FD3AC" />
<path d="M620.18,224.54L620.18,262.27" style="fill:none;stroke:#1FD3AC" />
<path d="M617.68,224.54L622.68,224.54" style="fill:none;stroke:#1FD3AC" />
<path d="M617.68,262.27L622.68,262.27" style="fill:none;stroke:#1FD3AC" />
<path d="M626.86,216.74L626.86,260.21" style="fill:none;stroke:#1FD3AC" />
<path d="M624.36,216.74L629.36,216.74" style="fill:none;stroke:#1FD3AC" />
<path d="M624.36,260.21L629.36,260.21" style="fill:none;stroke:#1FD3AC" />
<path d="M633.54,215.12L633.54,262.74" style="fill:none;stroke:#1FD3AC" />
<path d="M631.04,215.12L636.04,215.12" style="fill:none;stroke:#1FD3AC" />
<path d="M631.04,262.74L636.04,262.74" style="fill:none;stroke:#1FD3AC" />
<path d="M640.21,159.99L640.21,202.08" style="fill:none;stroke:#1FD3AC" />
<path d="M637.71,159.99L642.71,159.99" style="fill:none;stroke:#1FD3AC" />
<path d="M637.71,202.08L642.71,202.08" style="fill:none;stroke:#1FD3AC" />
<path d="M646.89,184.28L646.89,210.92" style="fill:none;stroke:#1FD3AC" />
<path d="M644.39,184.28L649.39,184.28" style="fill:none;stroke:#1FD3AC" />
<path d="M644.39,210.92L649.39,210.92" style="fill:none;stroke:#1FD3AC" />
<path d="M653.57,178.36L653.57,215.63" style="fill:none;stroke:#1FD3AC" />
<path d="M651.07,178.36L656.07,178.36" style="fill:none;stroke:#1FD3AC" />
<path d="M651.07,215.63L656.07,215.63" style="fill:none;stroke:#1FD3AC" />
<path d="M660.24,178.38L660.24,215.41" style="fill:none;stroke:#1FD3AC" />
<path d="M657.74,178.38L662.74,178.38" style="fill:none;stroke:#1FD3AC" />
<path d="M657.74,215.41L662.74,215.41" style="fill:none;stroke:#1FD3AC" />
<path d="M666.92,192.83L666.92,230.03" style="fill:none;stroke:#1FD3AC" />
<path d="M664.42,192.83L669.42,192.83" style="fill:none;stroke:#1FD3AC" />
<path d="M664.42,230.03L669.42,230.03" style="fill:none;stroke:#1FD3AC" />
<path d="M157.84,264.02A5,5 0 1 1 147.84,264.02A5,5 0 1 1 157.84,264.02Z" style="fill:#1FD3AC" />
<path d="M164.52,243.87A5,5 0 1 1 154.52,243.87A5,5 0 1 1 164.52,243.87Z" style="fill:#1FD3AC" />
<path d="M171.19,237.36A5,5 0 1 1 161.19,237.36A5,5 0 1 1 171.19,237.36Z" style="fill:#1FD3AC" />
<path d="M177.87,255.91A5,5 0 1 1 167.87,255.91A5,5 0 1 1 177.87,255.91Z" style="fill:#1FD3AC" />
<path d="M184.55,211.3A5,5 0 1 1 174.55,211.3A5,5 0 1 1 184.55,211.3Z" style="fill:#1FD3AC" />
<path d="M191.22,267.67A5,5 0 1 1 181.22,267.67A5,5 0 1 1 191.22,267.67Z" style="fill:#1FD3AC" />
<path d="M197.9,232.82A5,5 0 1 1 187.9,232.82A5,5 0 1 1 197.9,232.82Z" style="fill:#1FD3AC" />
<path d="M204.57,213.53A5,5 0 1 1 194.57,213.53A5,5 0 1 1 204.57,213.53Z" style="fill:#1FD3AC" />
<path d="M211.25,197.87A5,5 0 1 1 201.25,197.87A5,5 0 1 1 211.25,197.87Z" style="fill:#1FD3AC" />
<path d="M217.93,192.48A5,5 0 1 1 207.93,192.48A5,5 0 1 1 217.93,192.48Z" style="fill:#1FD3AC" />
<path d="M224.6,244.31A5,5 0 1 1 214.6,244.31A5,5 0 1 1 224.6,244.31Z" style="fill:#1FD3AC" />
<path d="M231.28,256.11A5,5 0 1 1 221.28,256.11A5,5 0 1 1 231.28,256.11Z" style="fill:#1FD3AC" />
<path d="M237.96,247.82A5,5 0 1 1 227.96,247.82A5,5 0 1 1 237.96,247.82Z" style="fill:#1FD3AC" />
<path d="M244.63,259.06A5,5 0 1 1 234.63,259.06A5,5 0 1 1 244.63,259.06Z" style="fill:#1FD3AC" />
<path d="M251.31,264.26A5,5 0 1 1 241.31,264.26A5,5 0 1 1 251.31,264.26Z" style="fill:#1FD3AC" />
<path d="M257.99,241.07A5,5 0 1 1 247.99,241.07A5,5 0 1 1 257.99,241.07Z" style="fill:#1FD3AC" />
<path d="M264.66,273.94A5,5 0 1 1 254.66,273.94A5,5 0 1 1 264.66,273.94Z" style="fill:#1FD3AC" />
<path d="M271.34,230.55A5,5 0 1 1 261.34,230.55A5,5 0 1 1 271.34,230.55Z" style="fill:#1FD3AC" />
<path d="M278.01,294.86A5,5 0 1 1 268.01,294.86A5,5 0 1 1 278.01,294.86Z" style="fill:#1FD3AC" />
<path d="M284.69,272.03A5,5 0 1 1 274.69,272.03A5,5 0 1 1 284.69,272.03Z" style="fill:#1FD3AC" />
<path d="M291.37,259.93A5,5 0 1 1 281.37,259.93A5,5 0 1 1 291.37,259.93Z" style="fill:#1FD3AC" />
<path d="M298.04,234.76A5,5 0 1 1 288.04,234.76A5,5 0 1 1 298.04,234.76Z" style="fill:#1FD3AC" />
<path d="M304.72,276.22A5,5 0 1 1 294.72,276.22A5,5 0 1 1 304.72,276.22Z" style="fill:#1FD3AC" />
<path d="M311.4,302.11A5,5 0 1 1 301.4,302.11A5,5 0 1 1 311.4,302.11Z" style="fill:#1FD3AC" />
<path d="M318.07,243.98A5,5 0 1 1 308.07,243.98A5,5 0 1 1 318.07,243.98Z" style="fill:#1FD3AC" />
<path d="M324.75,303.37A5,5 0 1 1 314.75,303.37A5,5 0 1 1 324.75,303.37Z" style="fill:#1FD3AC" />
<path d="M331.43,273.25A5,5 0 1 1 321.43,273.25A5,5 0 1 1 331.43,273.25Z" style="fill:#1FD3AC" />
<path d="M338.1,312.09A5,5 0 1 1 328.1,312.09A5,5 0 1 1 338.1,312.09Z" style="fill:#1FD3AC" />
<path d="M344.78,318.16A5,5 0 1 1 334.78,318.16A5,5 0 1 1 344.78,318.16Z" style="fill:#1FD3AC" />
<path d="M351.45,327.56A5,5 0 1 1 341.45,327.56A5,5 0 1 1 351.45,327.56Z" style="fill:#1FD3AC" />
<path d="M358.13,324.8A5,5 0 1 1 348.13,324.8A5,5 0 1 1 358.13,324.8Z" style="fill:#1FD3AC" />
<path d="M364.81,334.29A5,5 0 1 1 354.81,334.29A5,5 0 1 1 364.81,334.29Z" style="fill:#1FD3AC" />
<path d="M371.48,395.98A5,5 0 1 1 361.48,395.98A5,5 0 1 1 371.48,395.98Z" style="fill:#1FD3AC" />
<path d="M378.16,429.86A5,5 0 1 1 368.16,429.86A5,5 0 1 1 378.16,429.86Z" style="fill:#1FD3AC" />
<path d="M384.84,501.11A5,5 0 1 1 374.84,501.11A5,5 0 1 1 384.84,501.11Z" style="fill:#1FD3AC" />
<path d="M391.51,544.3A5,5 0 1 1 381.51,544.3A5,5 0 1 1 391.51,544.3Z" style="fill:#1FD3AC" />
<path d="M398.19,583A5,5 0 1 1 388.19,583A5,5 0 1 1 398.19,583Z" style="fill:#1FD3AC" />
<path d="M404.87,591.91A5,5 0 1 1 394.87,591.91A5,5 0 1 1 404.87,591.91Z" style="fill:#1FD3AC" />
<path d="M411.54,562.82A5,5 0 1 1 401.54,562.82A5,5 0 1 1 411.54,562.82Z" style="fill:#1FD3AC" />
<path d="M418.22,575.86A5,5 0 1 1 408.22,575.86A5,5 0 1 1 418.22,575.86Z" style="fill:#1FD3AC" />
<path d="M424.89,590.8A5,5 0 1 1 414.89,590.8A5,5 0 1 1 424.89,590.8Z" style="fill:#1FD3AC" />
<path d="M431.57,662.01A5,5 0 1 1 421.57,662.01A5,5 0 1 1 431.57,662.01Z" style="fill:#1FD3AC" />
<path d="M438.25,646.31A5,5 0 1 1 428.25,646.31A5,5 0 1 1 438.25,646.31Z" style="fill:#1FD3AC" />
<path d="M444.92,706.8A5,5 0 1 1 434.92,706.8A5,5 0 1 1 444.92,706.8Z" style="fill:#1FD3AC" />
<path d="M451.6,746.24A5,5 0 1 1 441.6,746.24A5,5 0 1 1 451.6,746.24Z" style="fill:#1FD3AC" />
<path d="M458.28,932A5,5 0 1 1 448.28,932A5,5 0 1 1 458.28,932Z" style="fill:#1FD3AC" />
<path d="M464.95,843.33A5,5 0 1 1 454.95,843.33A5,5 0 1 1 464.95,843.33Z" style="fill:#1FD3AC" />
<path d="M471.63,734.96A5,5 0 1 1 461.63,734.96A5,5 0 1 1 471.63,734.96Z" style="fill:#1FD3AC" />
<path d="M478.31,762.21A5,5 0 1 1 468.31,762.21A5,5 0 1 1 478.31,762.21Z" style="fill:#1FD3AC" />
<path d="M484.98,898.2A5,5 0 1 1 474.98,898.2A5,5 0 1 1 484.98,898.2Z" style="fill:#1FD3AC" />
<path d="M491.66,920.64A5,5 0 1 1 481.66,920.64A5,5 0 1 1 491.66,920.64Z" style="fill:#1FD3AC" />
<path d="M498.33,861.32A5,5 0 1 1 488.33,861.32A5,5 0 1 1 498.33,861.32Z" style="fill:#1FD3AC" />
<path d="M505.01,745.08A5,5 0 1 1 495.01,745.08A5,5 0 1 1 505.01,745.08Z" style="fill:#1FD3AC" />
<path d="M511.69,604.14A5,5 0 1 1 501.69,604.14A5,5 0 1 1 511.69,604.14Z" style="fill:#1FD3AC" />
<path d="M518.36,503.84A5,5 0 1 1 508.36,503.84A5,5 0 1 1 518.36,503.84Z" style="fill:#1FD3AC" />
<path d="M525.04,442.18A5,5 0 1 1 515.04,442.18A5,5 0 1 1 525.04,442.18Z" style="fill:#1FD3AC" />
<path d="M531.72,360.06A5,5 0 1 1 521.72,360.06A5,5 0 1 1 531.72,360.06Z" style="fill:#1FD3AC" />
<path d="M538.39,338.2A5,5 0 1 1 528.39,338.2A5,5 0 1 1 538.39,338.2Z" style="fill:#1FD3AC" />
<path d="M545.07,290.41A5,5 0 1 1 535.07,290.41A5,5 0 1 1 545.07,290.41Z" style="fill:#1FD3AC" />
<path d="M551.75,288.42A5,5 0 1 1 541.75,288.42A5,5 0 1 1 551.75,288.42Z" style="fill:#1FD3AC" />
<path d="M558.42,245.2A5,5 0 1 1 548.42,245.2A5,5 0 1 1 558.42,245.2Z" style="fill:#1FD3AC" />
<path d="M565.1,250.32A5,5 0 1 1 555.1,250.32A5,5 0 1 1 565.1,250.32Z" style="fill:#1FD3AC" />
<path d="M571.77,284.32A5,5 0 1 1 561.77,284.32A5,5 0 1 1 571.77,284.32Z" style="fill:#1FD3AC" />
<path d="M578.45,274.91A5,5 0 1 1 568.45,274.91A5,5 0 1 1 578.45,274.91Z" style="fill:#1FD3AC" />
<path d="M585.13,278.26A5,5 0 1 1 575.13,278.26A5,5 0 1 1 585.13,278.26Z" style="fill:#1FD3AC" />
<path d="M591.8,299.01A5,5 0 1 1 581.8,299.01A5,5 0 1 1 591.8,299.01Z" style="fill:#1FD3AC" />
<path d="M598.48,242.43A5,5 0 1 1 588.48,242.43A5,5 0 1 1 598.48,242.43Z" style="fill:#1FD3AC" />
<path d="M605.16,250.94A5,5 0 1 1 595.16,250.94A5,5 0 1 1 605.16,250.94Z" style="fill:#1FD3AC" />
<path d="M611.83,230.71A5,5 0 1 1 601.83,230.71A5,5 0 1 1 611.83,230.71Z" style="fill:#1FD3AC" />
<path d="M618.51,210.03A5,5 0 1 1 608.51,210.03A5,5 0 1 1 618.51,210.03Z" style="fill:#1FD3AC" />
<path d="M625.18,243.4A5,5 0 1 1 615.18,243.4A5,5 0 1 1 625.18,243.4Z" style="fill:#1FD3AC" />
<path d="M631.86,238.47A5,5 0 1 1 621.86,238.47A5,5 0 1 1 631.86,238.47Z" style="fill:#1FD3AC" />
<path d="M638.54,238.93A5,5 0 1 1 628.54,238.93A5,5 0 1 1 638.54,238.93Z" style="fill:#1FD3AC" />
<path d="M645.21,181.04A5,5 0 1 1 635.21,181.04A5,5 0 1 1 645.21,181.04Z" style="fill:#1FD3AC" />
<path d="M651.89,197.6A5,5 0 1 1 641.89,197.6A5,5 0 1 1 651.89,197.6Z" style="fill:#1FD3AC" />
<path d="M658.57,196.99A5,5 0 1 1 648.57,196.99A5,5 0 1 1 658.57,196.99Z" style="fill:#1FD3AC" />
<path d="M665.24,196.89A5,5 0 1 1 655.24,196.89A5,5 0 1 1 665.24,196.89Z" style="fill:#1FD3AC" />
<path d="M671.92,211.43A5,5 0 1 1 661.92,211.43A5,5 0 1 1 671.92,211.43Z" style="fill:#1FD3AC" />
<path d="M146.16,514.01L1080,514.01" style="fill:none;stroke:#000000" />
<path d="M1080,108.82L1080,514.01" style="fill:none;stroke:#000000" />
<path d="M152.84,236.11L159.52,237.35L166.19,238.67L172.87,240.05L179.55,241.51L186.22,243.05L192.9,244.68L199.57,246.41L206.25,248.24L212.93,250.19L219.6,252.26L226.28,254.47L232.96,256.82L239.63,259.34L246.31,262.04L252.99,264.94L259.66,268.06L266.34,271.42L273.01,275.04L279.69,278.97L286.37,283.24L293.04,287.87L299.72,292.94L306.4,298.48L313.07,304.56L319.75,311.25L326.43,318.64L333.1,326.84L339.78,335.95L346.45,346.13L353.13,357.53L359.81,370.37L366.48,384.86L373.16,401.3L379.84,420.01L386.51,441.37L393.19,465.82L399.87,493.85L406.54,525.98L413.22,562.69L419.89,604.34L426.57,650.95L433.25,701.92L439.92,755.53L446.6,808.45L453.28,855.35L459.95,889.17L466.63,902.59L473.31,890.63L479.98,853.11L486.66,795.18L493.33,725.26L500.01,651.92L506.69,581.68L513.36,518.32L520.04,463.35L526.72,416.81L533.39,377.96L540.07,345.77L546.75,319.19L553.42,297.23L560.1,279.05L566.77,263.96L573.45,251.39L580.13,240.86L586.8,232.01L593.48,224.55L600.16,218.22L606.83,212.84L613.51,208.24L620.18,204.3L626.86,200.91L633.54,197.98L640.21,195.46L646.89,193.26L653.57,191.36L660.24,189.7L666.92,188.26" style="fill:none;stroke:#1FD3AC;stroke-width:2" />
<path d="M1013,927.49A8,8 0 1 1 997,927.49A8,8 0 1 1 1013,927.49Z" style="fill:#1FD3AC" />
<text x="436.76" y="-920.9" transform="scale(1, -1)"
	style="font-family:Helvetica;font-weight:normal;font-style:normal;font-size:28px">pak1chip3-20um4 (reseated and realigned)</text>
</g>
</svg>
