<?xml version="1.0"?>
<!-- Generated by SVGo and Plotinum VG -->
<svg width="1296pt" height="1080pt" viewBox="0 0 1296 1080"
	xmlns="http://www.w3.org/2000/svg"
	xmlns:xlink="http://www.w3.org/1999/xlink">
<g transform="scale(1, -1) translate(0, -1080)">
<path d="M0,0L1296,0L1296,1080L0,1080Z" style="fill-opacity:0" />
<text x="358.95" y="-1047.6" transform="scale(1, -1)"
	style="font-family:Liberation Sans;font-variant:normal;font-weight:normal;font-style:normal;font-size:40px">CoBS Measurement: 1 μm TeO2</text>
<text x="509.63" y="-10.732" transform="scale(1, -1)"
	style="font-family:Liberation Sans;font-variant:normal;font-weight:normal;font-style:normal;font-size:35px">Frequency (Ω/2π) (GHz)</text>
<text x="306.41" y="-63.857" transform="scale(1, -1)"
	style="font-family:Liberation Serif;font-variant:normal;font-weight:normal;font-style:normal;font-size:30px">12.00</text>
<text x="546.37" y="-63.857" transform="scale(1, -1)"
	style="font-family:Liberation Serif;font-variant:normal;font-weight:normal;font-style:normal;font-size:30px">12.10</text>
<text x="786.33" y="-63.857" transform="scale(1, -1)"
	style="font-family:Liberation Serif;font-variant:normal;font-weight:normal;font-style:normal;font-size:30px">12.20</text>
<text x="1026.3" y="-63.857" transform="scale(1, -1)"
	style="font-family:Liberation Serif;font-variant:normal;font-weight:normal;font-style:normal;font-size:30px">12.30</text>
<path d="M112.2,87.324L1288,87.324" style="fill:none;stroke:#000000;stroke-width:2.5" />
<g transform="rotate(90)">
<text x="353.47" y="28.369" transform="scale(1, -1)"
	style="font-family:Liberation Sans;font-variant:normal;font-weight:normal;font-style:normal;font-size:35px">Spectral Density (relative)</text>
</g>
<text x="61.519" y="-189.85" transform="scale(1, -1)"
	style="font-family:Liberation Sans;font-variant:normal;font-weight:normal;font-style:normal;font-size:30px">0.0</text>
<text x="61.519" y="-335.96" transform="scale(1, -1)"
	style="font-family:Liberation Sans;font-variant:normal;font-weight:normal;font-style:normal;font-size:30px">0.2</text>
<text x="61.519" y="-482.07" transform="scale(1, -1)"
	style="font-family:Liberation Sans;font-variant:normal;font-weight:normal;font-style:normal;font-size:30px">0.4</text>
<text x="61.519" y="-628.19" transform="scale(1, -1)"
	style="font-family:Liberation Sans;font-variant:normal;font-weight:normal;font-style:normal;font-size:30px">0.6</text>
<text x="61.519" y="-774.3" transform="scale(1, -1)"
	style="font-family:Liberation Sans;font-variant:normal;font-weight:normal;font-style:normal;font-size:30px">0.8</text>
<text x="61.519" y="-920.41" transform="scale(1, -1)"
	style="font-family:Liberation Sans;font-variant:normal;font-weight:normal;font-style:normal;font-size:30px">1.0</text>
<path d="M111.56,87.824L111.56,1019.8" style="fill:none;stroke:#000000;stroke-width:2.5" />
<path d="M148.19,87.824L148.19,92.824" style="fill:none;stroke:#000000;stroke-width:2.5" />
<path d="M196.18,87.824L196.18,92.824" style="fill:none;stroke:#000000;stroke-width:2.5" />
<path d="M244.17,87.824L244.17,92.824" style="fill:none;stroke:#000000;stroke-width:2.5" />
<path d="M292.17,87.824L292.17,92.824" style="fill:none;stroke:#000000;stroke-width:2.5" />
<path d="M340.16,87.824L340.16,97.824" style="fill:none;stroke:#000000;stroke-width:2.5" />
<text x="318.95" y="-53.424" transform="scale(1, -1)"
	style="font-family:Liberation Sans;font-variant:normal;font-weight:normal;font-style:normal;font-size:30px">12.00</text>
<path d="M388.15,87.824L388.15,92.824" style="fill:none;stroke:#000000;stroke-width:2.5" />
<path d="M436.14,87.824L436.14,92.824" style="fill:none;stroke:#000000;stroke-width:2.5" />
<path d="M484.13,87.824L484.13,92.824" style="fill:none;stroke:#000000;stroke-width:2.5" />
<path d="M532.13,87.824L532.13,92.824" style="fill:none;stroke:#000000;stroke-width:2.5" />
<path d="M580.12,87.824L580.12,97.824" style="fill:none;stroke:#000000;stroke-width:2.5" />
<text x="558.91" y="-53.424" transform="scale(1, -1)"
	style="font-family:Liberation Sans;font-variant:normal;font-weight:normal;font-style:normal;font-size:30px">12.10</text>
<path d="M628.11,87.824L628.11,92.824" style="fill:none;stroke:#000000;stroke-width:2.5" />
<path d="M676.1,87.824L676.1,92.824" style="fill:none;stroke:#000000;stroke-width:2.5" />
<path d="M724.09,87.824L724.09,92.824" style="fill:none;stroke:#000000;stroke-width:2.5" />
<path d="M772.09,87.824L772.09,92.824" style="fill:none;stroke:#000000;stroke-width:2.5" />
<path d="M820.08,87.824L820.08,97.824" style="fill:none;stroke:#000000;stroke-width:2.5" />
<text x="798.86" y="-53.424" transform="scale(1, -1)"
	style="font-family:Liberation Sans;font-variant:normal;font-weight:normal;font-style:normal;font-size:30px">12.20</text>
<path d="M868.07,87.824L868.07,92.824" style="fill:none;stroke:#000000;stroke-width:2.5" />
<path d="M916.06,87.824L916.06,92.824" style="fill:none;stroke:#000000;stroke-width:2.5" />
<path d="M964.05,87.824L964.05,92.824" style="fill:none;stroke:#000000;stroke-width:2.5" />
<path d="M1012,87.824L1012,92.824" style="fill:none;stroke:#000000;stroke-width:2.5" />
<path d="M1060,87.824L1060,97.824" style="fill:none;stroke:#000000;stroke-width:2.5" />
<text x="1038.8" y="-53.424" transform="scale(1, -1)"
	style="font-family:Liberation Sans;font-variant:normal;font-weight:normal;font-style:normal;font-size:30px">12.30</text>
<path d="M1108,87.824L1108,92.824" style="fill:none;stroke:#000000;stroke-width:2.5" />
<path d="M1156,87.824L1156,92.824" style="fill:none;stroke:#000000;stroke-width:2.5" />
<path d="M1204,87.824L1204,92.824" style="fill:none;stroke:#000000;stroke-width:2.5" />
<path d="M1252,87.824L1252,92.824" style="fill:none;stroke:#000000;stroke-width:2.5" />
<path d="M112.2,197.41L122.2,197.41" style="fill:none;stroke:#000000;stroke-width:2.5" />
<text x="52.049" y="-189.01" transform="scale(1, -1)"
	style="font-family:Liberation Sans;font-variant:normal;font-weight:normal;font-style:normal;font-size:30px">0.0</text>
<path d="M112.2,221.76L117.2,221.76" style="fill:none;stroke:#000000;stroke-width:2.5" />
<path d="M112.2,246.11L117.2,246.11" style="fill:none;stroke:#000000;stroke-width:2.5" />
<path d="M112.2,270.46L117.2,270.46" style="fill:none;stroke:#000000;stroke-width:2.5" />
<path d="M112.2,294.82L117.2,294.82" style="fill:none;stroke:#000000;stroke-width:2.5" />
<path d="M112.2,319.17L117.2,319.17" style="fill:none;stroke:#000000;stroke-width:2.5" />
<path d="M112.2,343.52L122.2,343.52" style="fill:none;stroke:#000000;stroke-width:2.5" />
<text x="52.049" y="-335.12" transform="scale(1, -1)"
	style="font-family:Liberation Sans;font-variant:normal;font-weight:normal;font-style:normal;font-size:30px">0.2</text>
<path d="M112.2,367.87L117.2,367.87" style="fill:none;stroke:#000000;stroke-width:2.5" />
<path d="M112.2,392.22L117.2,392.22" style="fill:none;stroke:#000000;stroke-width:2.5" />
<path d="M112.2,416.58L117.2,416.58" style="fill:none;stroke:#000000;stroke-width:2.5" />
<path d="M112.2,440.93L117.2,440.93" style="fill:none;stroke:#000000;stroke-width:2.5" />
<path d="M112.2,465.28L117.2,465.28" style="fill:none;stroke:#000000;stroke-width:2.5" />
<path d="M112.2,489.63L122.2,489.63" style="fill:none;stroke:#000000;stroke-width:2.5" />
<text x="52.049" y="-481.23" transform="scale(1, -1)"
	style="font-family:Liberation Sans;font-variant:normal;font-weight:normal;font-style:normal;font-size:30px">0.4</text>
<path d="M112.2,513.98L117.2,513.98" style="fill:none;stroke:#000000;stroke-width:2.5" />
<path d="M112.2,538.34L117.2,538.34" style="fill:none;stroke:#000000;stroke-width:2.5" />
<path d="M112.2,562.69L117.2,562.69" style="fill:none;stroke:#000000;stroke-width:2.5" />
<path d="M112.2,587.04L117.2,587.04" style="fill:none;stroke:#000000;stroke-width:2.5" />
<path d="M112.2,611.39L117.2,611.39" style="fill:none;stroke:#000000;stroke-width:2.5" />
<path d="M112.2,635.75L122.2,635.75" style="fill:none;stroke:#000000;stroke-width:2.5" />
<text x="52.049" y="-627.34" transform="scale(1, -1)"
	style="font-family:Liberation Sans;font-variant:normal;font-weight:normal;font-style:normal;font-size:30px">0.6</text>
<path d="M112.2,660.1L117.2,660.1" style="fill:none;stroke:#000000;stroke-width:2.5" />
<path d="M112.2,684.45L117.2,684.45" style="fill:none;stroke:#000000;stroke-width:2.5" />
<path d="M112.2,708.8L117.2,708.8" style="fill:none;stroke:#000000;stroke-width:2.5" />
<path d="M112.2,733.15L117.2,733.15" style="fill:none;stroke:#000000;stroke-width:2.5" />
<path d="M112.2,757.51L117.2,757.51" style="fill:none;stroke:#000000;stroke-width:2.5" />
<path d="M112.2,781.86L122.2,781.86" style="fill:none;stroke:#000000;stroke-width:2.5" />
<text x="52.049" y="-773.46" transform="scale(1, -1)"
	style="font-family:Liberation Sans;font-variant:normal;font-weight:normal;font-style:normal;font-size:30px">0.8</text>
<path d="M112.2,806.21L117.2,806.21" style="fill:none;stroke:#000000;stroke-width:2.5" />
<path d="M112.2,830.56L117.2,830.56" style="fill:none;stroke:#000000;stroke-width:2.5" />
<path d="M112.2,854.91L117.2,854.91" style="fill:none;stroke:#000000;stroke-width:2.5" />
<path d="M112.2,879.27L117.2,879.27" style="fill:none;stroke:#000000;stroke-width:2.5" />
<path d="M112.2,903.62L117.2,903.62" style="fill:none;stroke:#000000;stroke-width:2.5" />
<path d="M112.2,927.97L122.2,927.97" style="fill:none;stroke:#000000;stroke-width:2.5" />
<text x="52.049" y="-919.57" transform="scale(1, -1)"
	style="font-family:Liberation Sans;font-variant:normal;font-weight:normal;font-style:normal;font-size:30px">1.0</text>
<path d="M112.2,357.23L112.2,435.46" style="fill:none;stroke:#7A9CFF" />
<path d="M109.7,357.23L114.7,357.23" style="fill:none;stroke:#7A9CFF" />
<path d="M109.7,435.46L114.7,435.46" style="fill:none;stroke:#7A9CFF" />
<path d="M136.19,409.91L136.19,436.29" style="fill:none;stroke:#7A9CFF" />
<path d="M133.69,409.91L138.69,409.91" style="fill:none;stroke:#7A9CFF" />
<path d="M133.69,436.29L138.69,436.29" style="fill:none;stroke:#7A9CFF" />
<path d="M160.19,344.58L160.19,467.12" style="fill:none;stroke:#7A9CFF" />
<path d="M157.69,344.58L162.69,344.58" style="fill:none;stroke:#7A9CFF" />
<path d="M157.69,467.12L162.69,467.12" style="fill:none;stroke:#7A9CFF" />
<path d="M184.18,332.45L184.18,391.78" style="fill:none;stroke:#7A9CFF" />
<path d="M181.68,332.45L186.68,332.45" style="fill:none;stroke:#7A9CFF" />
<path d="M181.68,391.78L186.68,391.78" style="fill:none;stroke:#7A9CFF" />
<path d="M208.18,417.93L208.18,477.07" style="fill:none;stroke:#7A9CFF" />
<path d="M205.68,417.93L210.68,417.93" style="fill:none;stroke:#7A9CFF" />
<path d="M205.68,477.07L210.68,477.07" style="fill:none;stroke:#7A9CFF" />
<path d="M232.18,514.2L232.18,531.89" style="fill:none;stroke:#7A9CFF" />
<path d="M229.68,514.2L234.68,514.2" style="fill:none;stroke:#7A9CFF" />
<path d="M229.68,531.89L234.68,531.89" style="fill:none;stroke:#7A9CFF" />
<path d="M256.17,503.34L256.17,538.21" style="fill:none;stroke:#7A9CFF" />
<path d="M253.67,503.34L258.67,503.34" style="fill:none;stroke:#7A9CFF" />
<path d="M253.67,538.21L258.67,538.21" style="fill:none;stroke:#7A9CFF" />
<path d="M280.17,360.96L280.17,452.06" style="fill:none;stroke:#7A9CFF" />
<path d="M277.67,360.96L282.67,360.96" style="fill:none;stroke:#7A9CFF" />
<path d="M277.67,452.06L282.67,452.06" style="fill:none;stroke:#7A9CFF" />
<path d="M304.16,377.39L304.16,451.47" style="fill:none;stroke:#7A9CFF" />
<path d="M301.66,377.39L306.66,377.39" style="fill:none;stroke:#7A9CFF" />
<path d="M301.66,451.47L306.66,451.47" style="fill:none;stroke:#7A9CFF" />
<path d="M328.16,423.06L328.16,481.15" style="fill:none;stroke:#7A9CFF" />
<path d="M325.66,423.06L330.66,423.06" style="fill:none;stroke:#7A9CFF" />
<path d="M325.66,481.15L330.66,481.15" style="fill:none;stroke:#7A9CFF" />
<path d="M352.16,416.06L352.16,468.43" style="fill:none;stroke:#7A9CFF" />
<path d="M349.66,416.06L354.66,416.06" style="fill:none;stroke:#7A9CFF" />
<path d="M349.66,468.43L354.66,468.43" style="fill:none;stroke:#7A9CFF" />
<path d="M376.15,481.03L376.15,536.77" style="fill:none;stroke:#7A9CFF" />
<path d="M373.65,481.03L378.65,481.03" style="fill:none;stroke:#7A9CFF" />
<path d="M373.65,536.77L378.65,536.77" style="fill:none;stroke:#7A9CFF" />
<path d="M400.15,462.09L400.15,510.09" style="fill:none;stroke:#7A9CFF" />
<path d="M397.65,462.09L402.65,462.09" style="fill:none;stroke:#7A9CFF" />
<path d="M397.65,510.09L402.65,510.09" style="fill:none;stroke:#7A9CFF" />
<path d="M424.14,501.23L424.14,593.27" style="fill:none;stroke:#7A9CFF" />
<path d="M421.64,501.23L426.64,501.23" style="fill:none;stroke:#7A9CFF" />
<path d="M421.64,593.27L426.64,593.27" style="fill:none;stroke:#7A9CFF" />
<path d="M448.14,444.67L448.14,538.65" style="fill:none;stroke:#7A9CFF" />
<path d="M445.64,444.67L450.64,444.67" style="fill:none;stroke:#7A9CFF" />
<path d="M445.64,538.65L450.64,538.65" style="fill:none;stroke:#7A9CFF" />
<path d="M472.14,483.58L472.14,546.84" style="fill:none;stroke:#7A9CFF" />
<path d="M469.64,483.58L474.64,483.58" style="fill:none;stroke:#7A9CFF" />
<path d="M469.64,546.84L474.64,546.84" style="fill:none;stroke:#7A9CFF" />
<path d="M496.13,480.4L496.13,531.97" style="fill:none;stroke:#7A9CFF" />
<path d="M493.63,480.4L498.63,480.4" style="fill:none;stroke:#7A9CFF" />
<path d="M493.63,531.97L498.63,531.97" style="fill:none;stroke:#7A9CFF" />
<path d="M520.13,458.03L520.13,490.89" style="fill:none;stroke:#7A9CFF" />
<path d="M517.63,458.03L522.63,458.03" style="fill:none;stroke:#7A9CFF" />
<path d="M517.63,490.89L522.63,490.89" style="fill:none;stroke:#7A9CFF" />
<path d="M544.12,483.06L544.12,567.36" style="fill:none;stroke:#7A9CFF" />
<path d="M541.62,483.06L546.62,483.06" style="fill:none;stroke:#7A9CFF" />
<path d="M541.62,567.36L546.62,567.36" style="fill:none;stroke:#7A9CFF" />
<path d="M568.12,476.54L568.12,553.1" style="fill:none;stroke:#7A9CFF" />
<path d="M565.62,476.54L570.62,476.54" style="fill:none;stroke:#7A9CFF" />
<path d="M565.62,553.1L570.62,553.1" style="fill:none;stroke:#7A9CFF" />
<path d="M592.12,416.1L592.12,478.05" style="fill:none;stroke:#7A9CFF" />
<path d="M589.62,416.1L594.62,416.1" style="fill:none;stroke:#7A9CFF" />
<path d="M589.62,478.05L594.62,478.05" style="fill:none;stroke:#7A9CFF" />
<path d="M616.11,442.57L616.11,573.22" style="fill:none;stroke:#7A9CFF" />
<path d="M613.61,442.57L618.61,442.57" style="fill:none;stroke:#7A9CFF" />
<path d="M613.61,573.22L618.61,573.22" style="fill:none;stroke:#7A9CFF" />
<path d="M640.11,489.84L640.11,572.47" style="fill:none;stroke:#7A9CFF" />
<path d="M637.61,489.84L642.61,489.84" style="fill:none;stroke:#7A9CFF" />
<path d="M637.61,572.47L642.61,572.47" style="fill:none;stroke:#7A9CFF" />
<path d="M664.1,686.44L664.1,752.97" style="fill:none;stroke:#7A9CFF" />
<path d="M661.6,686.44L666.6,686.44" style="fill:none;stroke:#7A9CFF" />
<path d="M661.6,752.97L666.6,752.97" style="fill:none;stroke:#7A9CFF" />
<path d="M688.1,696.64L688.1,979.92" style="fill:none;stroke:#7A9CFF" />
<path d="M685.6,696.64L690.6,696.64" style="fill:none;stroke:#7A9CFF" />
<path d="M685.6,979.92L690.6,979.92" style="fill:none;stroke:#7A9CFF" />
<path d="M712.1,750.7L712.1,961.7" style="fill:none;stroke:#7A9CFF" />
<path d="M709.6,750.7L714.6,750.7" style="fill:none;stroke:#7A9CFF" />
<path d="M709.6,961.7L714.6,961.7" style="fill:none;stroke:#7A9CFF" />
<path d="M736.09,552.33L736.09,894.44" style="fill:none;stroke:#7A9CFF" />
<path d="M733.59,552.33L738.59,552.33" style="fill:none;stroke:#7A9CFF" />
<path d="M733.59,894.44L738.59,894.44" style="fill:none;stroke:#7A9CFF" />
<path d="M760.09,836.13L760.09,1019.8" style="fill:none;stroke:#7A9CFF" />
<path d="M757.59,836.13L762.59,836.13" style="fill:none;stroke:#7A9CFF" />
<path d="M757.59,1019.8L762.59,1019.8" style="fill:none;stroke:#7A9CFF" />
<path d="M784.08,539.97L784.08,703.03" style="fill:none;stroke:#7A9CFF" />
<path d="M781.58,539.97L786.58,539.97" style="fill:none;stroke:#7A9CFF" />
<path d="M781.58,703.03L786.58,703.03" style="fill:none;stroke:#7A9CFF" />
<path d="M808.08,635.23L808.08,741.11" style="fill:none;stroke:#7A9CFF" />
<path d="M805.58,635.23L810.58,635.23" style="fill:none;stroke:#7A9CFF" />
<path d="M805.58,741.11L810.58,741.11" style="fill:none;stroke:#7A9CFF" />
<path d="M832.08,461.97L832.08,529.52" style="fill:none;stroke:#7A9CFF" />
<path d="M829.58,461.97L834.58,461.97" style="fill:none;stroke:#7A9CFF" />
<path d="M829.58,529.52L834.58,529.52" style="fill:none;stroke:#7A9CFF" />
<path d="M856.07,391.66L856.07,457.66" style="fill:none;stroke:#7A9CFF" />
<path d="M853.57,391.66L858.57,391.66" style="fill:none;stroke:#7A9CFF" />
<path d="M853.57,457.66L858.57,457.66" style="fill:none;stroke:#7A9CFF" />
<path d="M880.07,297.43L880.07,371.15" style="fill:none;stroke:#7A9CFF" />
<path d="M877.57,297.43L882.57,297.43" style="fill:none;stroke:#7A9CFF" />
<path d="M877.57,371.15L882.57,371.15" style="fill:none;stroke:#7A9CFF" />
<path d="M904.06,243.92L904.06,280.63" style="fill:none;stroke:#7A9CFF" />
<path d="M901.56,243.92L906.56,243.92" style="fill:none;stroke:#7A9CFF" />
<path d="M901.56,280.63L906.56,280.63" style="fill:none;stroke:#7A9CFF" />
<path d="M928.06,271.1L928.06,291.38" style="fill:none;stroke:#7A9CFF" />
<path d="M925.56,271.1L930.56,271.1" style="fill:none;stroke:#7A9CFF" />
<path d="M925.56,291.38L930.56,291.38" style="fill:none;stroke:#7A9CFF" />
<path d="M952.06,181.34L952.06,258.45" style="fill:none;stroke:#7A9CFF" />
<path d="M949.56,181.34L954.56,181.34" style="fill:none;stroke:#7A9CFF" />
<path d="M949.56,258.45L954.56,258.45" style="fill:none;stroke:#7A9CFF" />
<path d="M976.05,229.08L976.05,314.18" style="fill:none;stroke:#7A9CFF" />
<path d="M973.55,229.08L978.55,229.08" style="fill:none;stroke:#7A9CFF" />
<path d="M973.55,314.18L978.55,314.18" style="fill:none;stroke:#7A9CFF" />
<path d="M1000,187.34L1000,261.33" style="fill:none;stroke:#7A9CFF" />
<path d="M997.55,187.34L1002.5,187.34" style="fill:none;stroke:#7A9CFF" />
<path d="M997.55,261.33L1002.5,261.33" style="fill:none;stroke:#7A9CFF" />
<path d="M1024,183.2L1024,232.63" style="fill:none;stroke:#7A9CFF" />
<path d="M1021.5,183.2L1026.5,183.2" style="fill:none;stroke:#7A9CFF" />
<path d="M1021.5,232.63L1026.5,232.63" style="fill:none;stroke:#7A9CFF" />
<path d="M1048,230.24L1048,267.36" style="fill:none;stroke:#7A9CFF" />
<path d="M1045.5,230.24L1050.5,230.24" style="fill:none;stroke:#7A9CFF" />
<path d="M1045.5,267.36L1050.5,267.36" style="fill:none;stroke:#7A9CFF" />
<path d="M1072,219.19L1072,258.2" style="fill:none;stroke:#7A9CFF" />
<path d="M1069.5,219.19L1074.5,219.19" style="fill:none;stroke:#7A9CFF" />
<path d="M1069.5,258.2L1074.5,258.2" style="fill:none;stroke:#7A9CFF" />
<path d="M1096,197.82L1096,229.01" style="fill:none;stroke:#7A9CFF" />
<path d="M1093.5,197.82L1098.5,197.82" style="fill:none;stroke:#7A9CFF" />
<path d="M1093.5,229.01L1098.5,229.01" style="fill:none;stroke:#7A9CFF" />
<path d="M1120,200.6L1120,261.58" style="fill:none;stroke:#7A9CFF" />
<path d="M1117.5,200.6L1122.5,200.6" style="fill:none;stroke:#7A9CFF" />
<path d="M1117.5,261.58L1122.5,261.58" style="fill:none;stroke:#7A9CFF" />
<path d="M1144,191.56L1144,227.54" style="fill:none;stroke:#7A9CFF" />
<path d="M1141.5,191.56L1146.5,191.56" style="fill:none;stroke:#7A9CFF" />
<path d="M1141.5,227.54L1146.5,227.54" style="fill:none;stroke:#7A9CFF" />
<path d="M1168,193.34L1168,219.17" style="fill:none;stroke:#7A9CFF" />
<path d="M1165.5,193.34L1170.5,193.34" style="fill:none;stroke:#7A9CFF" />
<path d="M1165.5,219.17L1170.5,219.17" style="fill:none;stroke:#7A9CFF" />
<path d="M1192,215.78L1192,249.62" style="fill:none;stroke:#7A9CFF" />
<path d="M1189.5,215.78L1194.5,215.78" style="fill:none;stroke:#7A9CFF" />
<path d="M1189.5,249.62L1194.5,249.62" style="fill:none;stroke:#7A9CFF" />
<path d="M1216,230.63L1216,254.08" style="fill:none;stroke:#7A9CFF" />
<path d="M1213.5,230.63L1218.5,230.63" style="fill:none;stroke:#7A9CFF" />
<path d="M1213.5,254.08L1218.5,254.08" style="fill:none;stroke:#7A9CFF" />
<path d="M1240,230.98L1240,270.75" style="fill:none;stroke:#7A9CFF" />
<path d="M1237.5,230.98L1242.5,230.98" style="fill:none;stroke:#7A9CFF" />
<path d="M1237.5,270.75L1242.5,270.75" style="fill:none;stroke:#7A9CFF" />
<path d="M1264,184.07L1264,239.11" style="fill:none;stroke:#7A9CFF" />
<path d="M1261.5,184.07L1266.5,184.07" style="fill:none;stroke:#7A9CFF" />
<path d="M1261.5,239.11L1266.5,239.11" style="fill:none;stroke:#7A9CFF" />
<path d="M1288,235.32L1288,284.94" style="fill:none;stroke:#7A9CFF" />
<path d="M1285.5,235.32L1290.5,235.32" style="fill:none;stroke:#7A9CFF" />
<path d="M1285.5,284.94L1290.5,284.94" style="fill:none;stroke:#7A9CFF" />
<path d="M120.2,396.35A8,8 0 1 1 104.2,396.35A8,8 0 1 1 120.2,396.35Z" style="fill:#7A9CFF" />
<path d="M144.19,423.1A8,8 0 1 1 128.19,423.1A8,8 0 1 1 144.19,423.1Z" style="fill:#7A9CFF" />
<path d="M168.19,405.85A8,8 0 1 1 152.19,405.85A8,8 0 1 1 168.19,405.85Z" style="fill:#7A9CFF" />
<path d="M192.18,362.12A8,8 0 1 1 176.18,362.12A8,8 0 1 1 192.18,362.12Z" style="fill:#7A9CFF" />
<path d="M216.18,447.5A8,8 0 1 1 200.18,447.5A8,8 0 1 1 216.18,447.5Z" style="fill:#7A9CFF" />
<path d="M240.18,523.05A8,8 0 1 1 224.18,523.05A8,8 0 1 1 240.18,523.05Z" style="fill:#7A9CFF" />
<path d="M264.17,520.78A8,8 0 1 1 248.17,520.78A8,8 0 1 1 264.17,520.78Z" style="fill:#7A9CFF" />
<path d="M288.17,406.51A8,8 0 1 1 272.17,406.51A8,8 0 1 1 288.17,406.51Z" style="fill:#7A9CFF" />
<path d="M312.16,414.43A8,8 0 1 1 296.16,414.43A8,8 0 1 1 312.16,414.43Z" style="fill:#7A9CFF" />
<path d="M336.16,452.1A8,8 0 1 1 320.16,452.1A8,8 0 1 1 336.16,452.1Z" style="fill:#7A9CFF" />
<path d="M360.16,442.25A8,8 0 1 1 344.16,442.25A8,8 0 1 1 360.16,442.25Z" style="fill:#7A9CFF" />
<path d="M384.15,508.9A8,8 0 1 1 368.15,508.9A8,8 0 1 1 384.15,508.9Z" style="fill:#7A9CFF" />
<path d="M408.15,486.09A8,8 0 1 1 392.15,486.09A8,8 0 1 1 408.15,486.09Z" style="fill:#7A9CFF" />
<path d="M432.14,547.25A8,8 0 1 1 416.14,547.25A8,8 0 1 1 432.14,547.25Z" style="fill:#7A9CFF" />
<path d="M456.14,491.66A8,8 0 1 1 440.14,491.66A8,8 0 1 1 456.14,491.66Z" style="fill:#7A9CFF" />
<path d="M480.14,515.21A8,8 0 1 1 464.14,515.21A8,8 0 1 1 480.14,515.21Z" style="fill:#7A9CFF" />
<path d="M504.13,506.18A8,8 0 1 1 488.13,506.18A8,8 0 1 1 504.13,506.18Z" style="fill:#7A9CFF" />
<path d="M528.13,474.46A8,8 0 1 1 512.13,474.46A8,8 0 1 1 528.13,474.46Z" style="fill:#7A9CFF" />
<path d="M552.12,525.21A8,8 0 1 1 536.12,525.21A8,8 0 1 1 552.12,525.21Z" style="fill:#7A9CFF" />
<path d="M576.12,514.82A8,8 0 1 1 560.12,514.82A8,8 0 1 1 576.12,514.82Z" style="fill:#7A9CFF" />
<path d="M600.12,447.08A8,8 0 1 1 584.12,447.08A8,8 0 1 1 600.12,447.08Z" style="fill:#7A9CFF" />
<path d="M624.11,507.89A8,8 0 1 1 608.11,507.89A8,8 0 1 1 624.11,507.89Z" style="fill:#7A9CFF" />
<path d="M648.11,531.15A8,8 0 1 1 632.11,531.15A8,8 0 1 1 648.11,531.15Z" style="fill:#7A9CFF" />
<path d="M672.1,719.7A8,8 0 1 1 656.1,719.7A8,8 0 1 1 672.1,719.7Z" style="fill:#7A9CFF" />
<path d="M696.1,838.28A8,8 0 1 1 680.1,838.28A8,8 0 1 1 696.1,838.28Z" style="fill:#7A9CFF" />
<path d="M720.1,856.2A8,8 0 1 1 704.1,856.2A8,8 0 1 1 720.1,856.2Z" style="fill:#7A9CFF" />
<path d="M744.09,723.39A8,8 0 1 1 728.09,723.39A8,8 0 1 1 744.09,723.39Z" style="fill:#7A9CFF" />
<path d="M768.09,927.97A8,8 0 1 1 752.09,927.97A8,8 0 1 1 768.09,927.97Z" style="fill:#7A9CFF" />
<path d="M792.08,621.5A8,8 0 1 1 776.08,621.5A8,8 0 1 1 792.08,621.5Z" style="fill:#7A9CFF" />
<path d="M816.08,688.17A8,8 0 1 1 800.08,688.17A8,8 0 1 1 816.08,688.17Z" style="fill:#7A9CFF" />
<path d="M840.08,495.74A8,8 0 1 1 824.08,495.74A8,8 0 1 1 840.08,495.74Z" style="fill:#7A9CFF" />
<path d="M864.07,424.66A8,8 0 1 1 848.07,424.66A8,8 0 1 1 864.07,424.66Z" style="fill:#7A9CFF" />
<path d="M888.07,334.29A8,8 0 1 1 872.07,334.29A8,8 0 1 1 888.07,334.29Z" style="fill:#7A9CFF" />
<path d="M912.06,262.28A8,8 0 1 1 896.06,262.28A8,8 0 1 1 912.06,262.28Z" style="fill:#7A9CFF" />
<path d="M936.06,281.24A8,8 0 1 1 920.06,281.24A8,8 0 1 1 936.06,281.24Z" style="fill:#7A9CFF" />
<path d="M960.06,219.9A8,8 0 1 1 944.06,219.9A8,8 0 1 1 960.06,219.9Z" style="fill:#7A9CFF" />
<path d="M984.05,271.63A8,8 0 1 1 968.05,271.63A8,8 0 1 1 984.05,271.63Z" style="fill:#7A9CFF" />
<path d="M1008,224.34A8,8 0 1 1 992.05,224.34A8,8 0 1 1 1008,224.34Z" style="fill:#7A9CFF" />
<path d="M1032,207.91A8,8 0 1 1 1016,207.91A8,8 0 1 1 1032,207.91Z" style="fill:#7A9CFF" />
<path d="M1056,248.8A8,8 0 1 1 1040,248.8A8,8 0 1 1 1056,248.8Z" style="fill:#7A9CFF" />
<path d="M1080,238.69A8,8 0 1 1 1064,238.69A8,8 0 1 1 1080,238.69Z" style="fill:#7A9CFF" />
<path d="M1104,213.42A8,8 0 1 1 1088,213.42A8,8 0 1 1 1104,213.42Z" style="fill:#7A9CFF" />
<path d="M1128,231.09A8,8 0 1 1 1112,231.09A8,8 0 1 1 1128,231.09Z" style="fill:#7A9CFF" />
<path d="M1152,209.55A8,8 0 1 1 1136,209.55A8,8 0 1 1 1152,209.55Z" style="fill:#7A9CFF" />
<path d="M1176,206.26A8,8 0 1 1 1160,206.26A8,8 0 1 1 1176,206.26Z" style="fill:#7A9CFF" />
<path d="M1200,232.7A8,8 0 1 1 1184,232.7A8,8 0 1 1 1200,232.7Z" style="fill:#7A9CFF" />
<path d="M1224,242.36A8,8 0 1 1 1208,242.36A8,8 0 1 1 1224,242.36Z" style="fill:#7A9CFF" />
<path d="M1248,250.87A8,8 0 1 1 1232,250.87A8,8 0 1 1 1248,250.87Z" style="fill:#7A9CFF" />
<path d="M1272,211.59A8,8 0 1 1 1256,211.59A8,8 0 1 1 1272,211.59Z" style="fill:#7A9CFF" />
<path d="M1296,260.13A8,8 0 1 1 1280,260.13A8,8 0 1 1 1296,260.13Z" style="fill:#7A9CFF" />
<path d="M112.2,1001L1288,1001" style="fill:none;stroke:#000000;stroke-width:2.5" />
<path d="M1288,87.824L1288,1001" style="fill:none;stroke:#000000;stroke-width:2.5" />
<path d="M112.2,300.82L112.2,380.25" style="fill:none;stroke:#013854" />
<path d="M109.7,300.82L114.7,300.82" style="fill:none;stroke:#013854" />
<path d="M109.7,380.25L114.7,380.25" style="fill:none;stroke:#013854" />
<path d="M136.19,347.38L136.19,382.99" style="fill:none;stroke:#013854" />
<path d="M133.69,347.38L138.69,347.38" style="fill:none;stroke:#013854" />
<path d="M133.69,382.99L138.69,382.99" style="fill:none;stroke:#013854" />
<path d="M160.19,390.3L160.19,411.58" style="fill:none;stroke:#013854" />
<path d="M157.69,390.3L162.69,390.3" style="fill:none;stroke:#013854" />
<path d="M157.69,411.58L162.69,411.58" style="fill:none;stroke:#013854" />
<path d="M184.18,368.7L184.18,415.99" style="fill:none;stroke:#013854" />
<path d="M181.68,368.7L186.68,368.7" style="fill:none;stroke:#013854" />
<path d="M181.68,415.99L186.68,415.99" style="fill:none;stroke:#013854" />
<path d="M208.18,406.95L208.18,493.81" style="fill:none;stroke:#013854" />
<path d="M205.68,406.95L210.68,406.95" style="fill:none;stroke:#013854" />
<path d="M205.68,493.81L210.68,493.81" style="fill:none;stroke:#013854" />
<path d="M232.18,343.7L232.18,406.4" style="fill:none;stroke:#013854" />
<path d="M229.68,343.7L234.68,343.7" style="fill:none;stroke:#013854" />
<path d="M229.68,406.4L234.68,406.4" style="fill:none;stroke:#013854" />
<path d="M256.17,397.85L256.17,428.89" style="fill:none;stroke:#013854" />
<path d="M253.67,397.85L258.67,397.85" style="fill:none;stroke:#013854" />
<path d="M253.67,428.89L258.67,428.89" style="fill:none;stroke:#013854" />
<path d="M280.17,360.93L280.17,408.02" style="fill:none;stroke:#013854" />
<path d="M277.67,360.93L282.67,360.93" style="fill:none;stroke:#013854" />
<path d="M277.67,408.02L282.67,408.02" style="fill:none;stroke:#013854" />
<path d="M304.16,333.53L304.16,390.5" style="fill:none;stroke:#013854" />
<path d="M301.66,333.53L306.66,333.53" style="fill:none;stroke:#013854" />
<path d="M301.66,390.5L306.66,390.5" style="fill:none;stroke:#013854" />
<path d="M328.16,362.23L328.16,399.63" style="fill:none;stroke:#013854" />
<path d="M325.66,362.23L330.66,362.23" style="fill:none;stroke:#013854" />
<path d="M325.66,399.63L330.66,399.63" style="fill:none;stroke:#013854" />
<path d="M352.16,344.5L352.16,374.06" style="fill:none;stroke:#013854" />
<path d="M349.66,344.5L354.66,344.5" style="fill:none;stroke:#013854" />
<path d="M349.66,374.06L354.66,374.06" style="fill:none;stroke:#013854" />
<path d="M376.15,344L376.15,422.9" style="fill:none;stroke:#013854" />
<path d="M373.65,344L378.65,344" style="fill:none;stroke:#013854" />
<path d="M373.65,422.9L378.65,422.9" style="fill:none;stroke:#013854" />
<path d="M400.15,366.06L400.15,456.29" style="fill:none;stroke:#013854" />
<path d="M397.65,366.06L402.65,366.06" style="fill:none;stroke:#013854" />
<path d="M397.65,456.29L402.65,456.29" style="fill:none;stroke:#013854" />
<path d="M424.14,327.61L424.14,393.78" style="fill:none;stroke:#013854" />
<path d="M421.64,327.61L426.64,327.61" style="fill:none;stroke:#013854" />
<path d="M421.64,393.78L426.64,393.78" style="fill:none;stroke:#013854" />
<path d="M448.14,364.89L448.14,432.12" style="fill:none;stroke:#013854" />
<path d="M445.64,364.89L450.64,364.89" style="fill:none;stroke:#013854" />
<path d="M445.64,432.12L450.64,432.12" style="fill:none;stroke:#013854" />
<path d="M472.14,365.29L472.14,427.4" style="fill:none;stroke:#013854" />
<path d="M469.64,365.29L474.64,365.29" style="fill:none;stroke:#013854" />
<path d="M469.64,427.4L474.64,427.4" style="fill:none;stroke:#013854" />
<path d="M496.13,438.39L496.13,491.47" style="fill:none;stroke:#013854" />
<path d="M493.63,438.39L498.63,438.39" style="fill:none;stroke:#013854" />
<path d="M493.63,491.47L498.63,491.47" style="fill:none;stroke:#013854" />
<path d="M520.13,372.01L520.13,446.39" style="fill:none;stroke:#013854" />
<path d="M517.63,372.01L522.63,372.01" style="fill:none;stroke:#013854" />
<path d="M517.63,446.39L522.63,446.39" style="fill:none;stroke:#013854" />
<path d="M544.12,355.14L544.12,414.03" style="fill:none;stroke:#013854" />
<path d="M541.62,355.14L546.62,355.14" style="fill:none;stroke:#013854" />
<path d="M541.62,414.03L546.62,414.03" style="fill:none;stroke:#013854" />
<path d="M568.12,292.37L568.12,312.3" style="fill:none;stroke:#013854" />
<path d="M565.62,292.37L570.62,292.37" style="fill:none;stroke:#013854" />
<path d="M565.62,312.3L570.62,312.3" style="fill:none;stroke:#013854" />
<path d="M592.12,303.06L592.12,357.71" style="fill:none;stroke:#013854" />
<path d="M589.62,303.06L594.62,303.06" style="fill:none;stroke:#013854" />
<path d="M589.62,357.71L594.62,357.71" style="fill:none;stroke:#013854" />
<path d="M616.11,253.66L616.11,327.27" style="fill:none;stroke:#013854" />
<path d="M613.61,253.66L618.61,253.66" style="fill:none;stroke:#013854" />
<path d="M613.61,327.27L618.61,327.27" style="fill:none;stroke:#013854" />
<path d="M640.11,372.17L640.11,428.02" style="fill:none;stroke:#013854" />
<path d="M637.61,372.17L642.61,372.17" style="fill:none;stroke:#013854" />
<path d="M637.61,428.02L642.61,428.02" style="fill:none;stroke:#013854" />
<path d="M664.1,433.84L664.1,497.78" style="fill:none;stroke:#013854" />
<path d="M661.6,433.84L666.6,433.84" style="fill:none;stroke:#013854" />
<path d="M661.6,497.78L666.6,497.78" style="fill:none;stroke:#013854" />
<path d="M688.1,497.69L688.1,605.86" style="fill:none;stroke:#013854" />
<path d="M685.6,497.69L690.6,497.69" style="fill:none;stroke:#013854" />
<path d="M685.6,605.86L690.6,605.86" style="fill:none;stroke:#013854" />
<path d="M712.1,438.51L712.1,521.61" style="fill:none;stroke:#013854" />
<path d="M709.6,438.51L714.6,438.51" style="fill:none;stroke:#013854" />
<path d="M709.6,521.61L714.6,521.61" style="fill:none;stroke:#013854" />
<path d="M736.09,511.95L736.09,614.18" style="fill:none;stroke:#013854" />
<path d="M733.59,511.95L738.59,511.95" style="fill:none;stroke:#013854" />
<path d="M733.59,614.18L738.59,614.18" style="fill:none;stroke:#013854" />
<path d="M760.09,448.2L760.09,570.84" style="fill:none;stroke:#013854" />
<path d="M757.59,448.2L762.59,448.2" style="fill:none;stroke:#013854" />
<path d="M757.59,570.84L762.59,570.84" style="fill:none;stroke:#013854" />
<path d="M784.08,473.56L784.08,525.03" style="fill:none;stroke:#013854" />
<path d="M781.58,473.56L786.58,473.56" style="fill:none;stroke:#013854" />
<path d="M781.58,525.03L786.58,525.03" style="fill:none;stroke:#013854" />
<path d="M808.08,327.18L808.08,404.04" style="fill:none;stroke:#013854" />
<path d="M805.58,327.18L810.58,327.18" style="fill:none;stroke:#013854" />
<path d="M805.58,404.04L810.58,404.04" style="fill:none;stroke:#013854" />
<path d="M832.08,309.15L832.08,403.41" style="fill:none;stroke:#013854" />
<path d="M829.58,309.15L834.58,309.15" style="fill:none;stroke:#013854" />
<path d="M829.58,403.41L834.58,403.41" style="fill:none;stroke:#013854" />
<path d="M856.07,346.43L856.07,383.31" style="fill:none;stroke:#013854" />
<path d="M853.57,346.43L858.57,346.43" style="fill:none;stroke:#013854" />
<path d="M853.57,383.31L858.57,383.31" style="fill:none;stroke:#013854" />
<path d="M880.07,268.5L880.07,319.14" style="fill:none;stroke:#013854" />
<path d="M877.57,268.5L882.57,268.5" style="fill:none;stroke:#013854" />
<path d="M877.57,319.14L882.57,319.14" style="fill:none;stroke:#013854" />
<path d="M904.06,187.67L904.06,252.89" style="fill:none;stroke:#013854" />
<path d="M901.56,187.67L906.56,187.67" style="fill:none;stroke:#013854" />
<path d="M901.56,252.89L906.56,252.89" style="fill:none;stroke:#013854" />
<path d="M928.06,214.08L928.06,239.8" style="fill:none;stroke:#013854" />
<path d="M925.56,214.08L930.56,214.08" style="fill:none;stroke:#013854" />
<path d="M925.56,239.8L930.56,239.8" style="fill:none;stroke:#013854" />
<path d="M952.06,223.39L952.06,258.2" style="fill:none;stroke:#013854" />
<path d="M949.56,223.39L954.56,223.39" style="fill:none;stroke:#013854" />
<path d="M949.56,258.2L954.56,258.2" style="fill:none;stroke:#013854" />
<path d="M976.05,172.35L976.05,237.63" style="fill:none;stroke:#013854" />
<path d="M973.55,172.35L978.55,172.35" style="fill:none;stroke:#013854" />
<path d="M973.55,237.63L978.55,237.63" style="fill:none;stroke:#013854" />
<path d="M1000,147.97L1000,200.87" style="fill:none;stroke:#013854" />
<path d="M997.55,147.97L1002.5,147.97" style="fill:none;stroke:#013854" />
<path d="M997.55,200.87L1002.5,200.87" style="fill:none;stroke:#013854" />
<path d="M1024,178.7L1024,224.28" style="fill:none;stroke:#013854" />
<path d="M1021.5,178.7L1026.5,178.7" style="fill:none;stroke:#013854" />
<path d="M1021.5,224.28L1026.5,224.28" style="fill:none;stroke:#013854" />
<path d="M1048,189.48L1048,232.43" style="fill:none;stroke:#013854" />
<path d="M1045.5,189.48L1050.5,189.48" style="fill:none;stroke:#013854" />
<path d="M1045.5,232.43L1050.5,232.43" style="fill:none;stroke:#013854" />
<path d="M1072,195.32L1072,230" style="fill:none;stroke:#013854" />
<path d="M1069.5,195.32L1074.5,195.32" style="fill:none;stroke:#013854" />
<path d="M1069.5,230L1074.5,230" style="fill:none;stroke:#013854" />
<path d="M1096,191.92L1096,251.66" style="fill:none;stroke:#013854" />
<path d="M1093.5,191.92L1098.5,191.92" style="fill:none;stroke:#013854" />
<path d="M1093.5,251.66L1098.5,251.66" style="fill:none;stroke:#013854" />
<path d="M1120,214.96L1120,230.15" style="fill:none;stroke:#013854" />
<path d="M1117.5,214.96L1122.5,214.96" style="fill:none;stroke:#013854" />
<path d="M1117.5,230.15L1122.5,230.15" style="fill:none;stroke:#013854" />
<path d="M1144,164.49L1144,205.56" style="fill:none;stroke:#013854" />
<path d="M1141.5,164.49L1146.5,164.49" style="fill:none;stroke:#013854" />
<path d="M1141.5,205.56L1146.5,205.56" style="fill:none;stroke:#013854" />
<path d="M1168,201.49L1168,254.73" style="fill:none;stroke:#013854" />
<path d="M1165.5,201.49L1170.5,201.49" style="fill:none;stroke:#013854" />
<path d="M1165.5,254.73L1170.5,254.73" style="fill:none;stroke:#013854" />
<path d="M1192,185.93L1192,212.89" style="fill:none;stroke:#013854" />
<path d="M1189.5,185.93L1194.5,185.93" style="fill:none;stroke:#013854" />
<path d="M1189.5,212.89L1194.5,212.89" style="fill:none;stroke:#013854" />
<path d="M1216,196.37L1216,247.86" style="fill:none;stroke:#013854" />
<path d="M1213.5,196.37L1218.5,196.37" style="fill:none;stroke:#013854" />
<path d="M1213.5,247.86L1218.5,247.86" style="fill:none;stroke:#013854" />
<path d="M1240,176.7L1240,189.52" style="fill:none;stroke:#013854" />
<path d="M1237.5,176.7L1242.5,176.7" style="fill:none;stroke:#013854" />
<path d="M1237.5,189.52L1242.5,189.52" style="fill:none;stroke:#013854" />
<path d="M1264,188.47L1264,202.67" style="fill:none;stroke:#013854" />
<path d="M1261.5,188.47L1266.5,188.47" style="fill:none;stroke:#013854" />
<path d="M1261.5,202.67L1266.5,202.67" style="fill:none;stroke:#013854" />
<path d="M1288,204.76L1288,241.58" style="fill:none;stroke:#013854" />
<path d="M1285.5,204.76L1290.5,204.76" style="fill:none;stroke:#013854" />
<path d="M1285.5,241.58L1290.5,241.58" style="fill:none;stroke:#013854" />
<path d="M120.2,340.54A8,8 0 1 1 104.2,340.54A8,8 0 1 1 120.2,340.54Z" style="fill:#013854" />
<path d="M144.19,365.19A8,8 0 1 1 128.19,365.19A8,8 0 1 1 144.19,365.19Z" style="fill:#013854" />
<path d="M168.19,400.94A8,8 0 1 1 152.19,400.94A8,8 0 1 1 168.19,400.94Z" style="fill:#013854" />
<path d="M192.18,392.34A8,8 0 1 1 176.18,392.34A8,8 0 1 1 192.18,392.34Z" style="fill:#013854" />
<path d="M216.18,450.38A8,8 0 1 1 200.18,450.38A8,8 0 1 1 216.18,450.38Z" style="fill:#013854" />
<path d="M240.18,375.05A8,8 0 1 1 224.18,375.05A8,8 0 1 1 240.18,375.05Z" style="fill:#013854" />
<path d="M264.17,413.37A8,8 0 1 1 248.17,413.37A8,8 0 1 1 264.17,413.37Z" style="fill:#013854" />
<path d="M288.17,384.47A8,8 0 1 1 272.17,384.47A8,8 0 1 1 288.17,384.47Z" style="fill:#013854" />
<path d="M312.16,362.01A8,8 0 1 1 296.16,362.01A8,8 0 1 1 312.16,362.01Z" style="fill:#013854" />
<path d="M336.16,380.93A8,8 0 1 1 320.16,380.93A8,8 0 1 1 336.16,380.93Z" style="fill:#013854" />
<path d="M360.16,359.28A8,8 0 1 1 344.16,359.28A8,8 0 1 1 360.16,359.28Z" style="fill:#013854" />
<path d="M384.15,383.45A8,8 0 1 1 368.15,383.45A8,8 0 1 1 384.15,383.45Z" style="fill:#013854" />
<path d="M408.15,411.18A8,8 0 1 1 392.15,411.18A8,8 0 1 1 408.15,411.18Z" style="fill:#013854" />
<path d="M432.14,360.69A8,8 0 1 1 416.14,360.69A8,8 0 1 1 432.14,360.69Z" style="fill:#013854" />
<path d="M456.14,398.5A8,8 0 1 1 440.14,398.5A8,8 0 1 1 456.14,398.5Z" style="fill:#013854" />
<path d="M480.14,396.34A8,8 0 1 1 464.14,396.34A8,8 0 1 1 480.14,396.34Z" style="fill:#013854" />
<path d="M504.13,464.93A8,8 0 1 1 488.13,464.93A8,8 0 1 1 504.13,464.93Z" style="fill:#013854" />
<path d="M528.13,409.2A8,8 0 1 1 512.13,409.2A8,8 0 1 1 528.13,409.2Z" style="fill:#013854" />
<path d="M552.12,384.58A8,8 0 1 1 536.12,384.58A8,8 0 1 1 552.12,384.58Z" style="fill:#013854" />
<path d="M576.12,302.33A8,8 0 1 1 560.12,302.33A8,8 0 1 1 576.12,302.33Z" style="fill:#013854" />
<path d="M600.12,330.38A8,8 0 1 1 584.12,330.38A8,8 0 1 1 600.12,330.38Z" style="fill:#013854" />
<path d="M624.11,290.46A8,8 0 1 1 608.11,290.46A8,8 0 1 1 624.11,290.46Z" style="fill:#013854" />
<path d="M648.11,400.1A8,8 0 1 1 632.11,400.1A8,8 0 1 1 648.11,400.1Z" style="fill:#013854" />
<path d="M672.1,465.81A8,8 0 1 1 656.1,465.81A8,8 0 1 1 672.1,465.81Z" style="fill:#013854" />
<path d="M696.1,551.78A8,8 0 1 1 680.1,551.78A8,8 0 1 1 696.1,551.78Z" style="fill:#013854" />
<path d="M720.1,480.06A8,8 0 1 1 704.1,480.06A8,8 0 1 1 720.1,480.06Z" style="fill:#013854" />
<path d="M744.09,563.06A8,8 0 1 1 728.09,563.06A8,8 0 1 1 744.09,563.06Z" style="fill:#013854" />
<path d="M768.09,509.52A8,8 0 1 1 752.09,509.52A8,8 0 1 1 768.09,509.52Z" style="fill:#013854" />
<path d="M792.08,499.29A8,8 0 1 1 776.08,499.29A8,8 0 1 1 792.08,499.29Z" style="fill:#013854" />
<path d="M816.08,365.61A8,8 0 1 1 800.08,365.61A8,8 0 1 1 816.08,365.61Z" style="fill:#013854" />
<path d="M840.08,356.28A8,8 0 1 1 824.08,356.28A8,8 0 1 1 840.08,356.28Z" style="fill:#013854" />
<path d="M864.07,364.87A8,8 0 1 1 848.07,364.87A8,8 0 1 1 864.07,364.87Z" style="fill:#013854" />
<path d="M888.07,293.82A8,8 0 1 1 872.07,293.82A8,8 0 1 1 888.07,293.82Z" style="fill:#013854" />
<path d="M912.06,220.28A8,8 0 1 1 896.06,220.28A8,8 0 1 1 912.06,220.28Z" style="fill:#013854" />
<path d="M936.06,226.94A8,8 0 1 1 920.06,226.94A8,8 0 1 1 936.06,226.94Z" style="fill:#013854" />
<path d="M960.06,240.8A8,8 0 1 1 944.06,240.8A8,8 0 1 1 960.06,240.8Z" style="fill:#013854" />
<path d="M984.05,204.99A8,8 0 1 1 968.05,204.99A8,8 0 1 1 984.05,204.99Z" style="fill:#013854" />
<path d="M1008,174.42A8,8 0 1 1 992.05,174.42A8,8 0 1 1 1008,174.42Z" style="fill:#013854" />
<path d="M1032,201.49A8,8 0 1 1 1016,201.49A8,8 0 1 1 1032,201.49Z" style="fill:#013854" />
<path d="M1056,210.96A8,8 0 1 1 1040,210.96A8,8 0 1 1 1056,210.96Z" style="fill:#013854" />
<path d="M1080,212.66A8,8 0 1 1 1064,212.66A8,8 0 1 1 1080,212.66Z" style="fill:#013854" />
<path d="M1104,221.79A8,8 0 1 1 1088,221.79A8,8 0 1 1 1104,221.79Z" style="fill:#013854" />
<path d="M1128,222.55A8,8 0 1 1 1112,222.55A8,8 0 1 1 1128,222.55Z" style="fill:#013854" />
<path d="M1152,185.03A8,8 0 1 1 1136,185.03A8,8 0 1 1 1152,185.03Z" style="fill:#013854" />
<path d="M1176,228.11A8,8 0 1 1 1160,228.11A8,8 0 1 1 1176,228.11Z" style="fill:#013854" />
<path d="M1200,199.41A8,8 0 1 1 1184,199.41A8,8 0 1 1 1200,199.41Z" style="fill:#013854" />
<path d="M1224,222.12A8,8 0 1 1 1208,222.12A8,8 0 1 1 1224,222.12Z" style="fill:#013854" />
<path d="M1248,183.11A8,8 0 1 1 1232,183.11A8,8 0 1 1 1248,183.11Z" style="fill:#013854" />
<path d="M1272,195.57A8,8 0 1 1 1256,195.57A8,8 0 1 1 1272,195.57Z" style="fill:#013854" />
<path d="M1296,223.17A8,8 0 1 1 1280,223.17A8,8 0 1 1 1296,223.17Z" style="fill:#013854" />
<path d="M112.2,1001L1288,1001" style="fill:none;stroke:#000000;stroke-width:2.5" />
<path d="M1288,87.824L1288,1001" style="fill:none;stroke:#000000;stroke-width:2.5" />
<path d="M1229,964.69A8,8 0 1 1 1213,964.69A8,8 0 1 1 1229,964.69Z" style="fill:#7A9CFF" />
<text x="1040.9" y="-957.62" transform="scale(1, -1)"
	style="font-family:Liberation Sans;font-variant:normal;font-weight:normal;font-style:normal;font-size:30px">1 μm TeO2</text>
<path d="M1229,928.51A8,8 0 1 1 1213,928.51A8,8 0 1 1 1229,928.51Z" style="fill:#013854" />
<text x="1044.3" y="-921.45" transform="scale(1, -1)"
	style="font-family:Liberation Sans;font-variant:normal;font-weight:normal;font-style:normal;font-size:30px">No sample</text>
</g>
</svg>
