<?xml version="1.0"?>
<!-- Generated by SVGo and Plotinum VG -->
<svg width="1296pt" height="1080pt" viewBox="0 0 1296 1080"
	xmlns="http://www.w3.org/2000/svg"
	xmlns:xlink="http://www.w3.org/1999/xlink">
<g transform="scale(1, -1) translate(0, -1080)">
<path d="M0,0L1296,0L1296,1080L0,1080Z" style="fill-opacity:0" />
<text x="333.46" y="-1047.6" transform="scale(1, -1)"
	style="font-family:Liberation Sans;font-variant:normal;font-weight:normal;font-style:normal;font-size:40px">CoBS Measurement: 1 mm UHNA3</text>
<text x="509.63" y="-10.732" transform="scale(1, -1)"
	style="font-family:Liberation Sans;font-variant:normal;font-weight:normal;font-style:normal;font-size:35px">Frequency (Ω/2π) (GHz)</text>
<text x="85.947" y="-63.857" transform="scale(1, -1)"
	style="font-family:Liberation Serif;font-variant:normal;font-weight:normal;font-style:normal;font-size:30px">9.00</text>
<text x="249.71" y="-63.857" transform="scale(1, -1)"
	style="font-family:Liberation Serif;font-variant:normal;font-weight:normal;font-style:normal;font-size:30px">9.05</text>
<text x="413.47" y="-63.857" transform="scale(1, -1)"
	style="font-family:Liberation Serif;font-variant:normal;font-weight:normal;font-style:normal;font-size:30px">9.10</text>
<text x="577.23" y="-63.857" transform="scale(1, -1)"
	style="font-family:Liberation Serif;font-variant:normal;font-weight:normal;font-style:normal;font-size:30px">9.15</text>
<text x="740.99" y="-63.857" transform="scale(1, -1)"
	style="font-family:Liberation Serif;font-variant:normal;font-weight:normal;font-style:normal;font-size:30px">9.20</text>
<text x="904.75" y="-63.857" transform="scale(1, -1)"
	style="font-family:Liberation Serif;font-variant:normal;font-weight:normal;font-style:normal;font-size:30px">9.25</text>
<text x="1068.5" y="-63.857" transform="scale(1, -1)"
	style="font-family:Liberation Serif;font-variant:normal;font-weight:normal;font-style:normal;font-size:30px">9.30</text>
<text x="1232.3" y="-63.857" transform="scale(1, -1)"
	style="font-family:Liberation Serif;font-variant:normal;font-weight:normal;font-style:normal;font-size:30px">9.35</text>
<path d="M112.2,87.324L1288,87.324" style="fill:none;stroke:#000000;stroke-width:2.5" />
<g transform="rotate(90)">
<text x="442.59" y="28.369" transform="scale(1, -1)"
	style="font-family:Liberation Sans;font-variant:normal;font-weight:normal;font-style:normal;font-size:35px">Arbitrary Units</text>
</g>
<text x="61.519" y="-80.266" transform="scale(1, -1)"
	style="font-family:Liberation Sans;font-variant:normal;font-weight:normal;font-style:normal;font-size:30px">0.0</text>
<text x="61.519" y="-249.58" transform="scale(1, -1)"
	style="font-family:Liberation Sans;font-variant:normal;font-weight:normal;font-style:normal;font-size:30px">0.2</text>
<text x="61.519" y="-418.9" transform="scale(1, -1)"
	style="font-family:Liberation Sans;font-variant:normal;font-weight:normal;font-style:normal;font-size:30px">0.4</text>
<text x="61.519" y="-588.21" transform="scale(1, -1)"
	style="font-family:Liberation Sans;font-variant:normal;font-weight:normal;font-style:normal;font-size:30px">0.6</text>
<text x="61.519" y="-757.53" transform="scale(1, -1)"
	style="font-family:Liberation Sans;font-variant:normal;font-weight:normal;font-style:normal;font-size:30px">0.8</text>
<text x="61.519" y="-926.85" transform="scale(1, -1)"
	style="font-family:Liberation Sans;font-variant:normal;font-weight:normal;font-style:normal;font-size:30px">1.0</text>
<path d="M111.56,87.824L111.56,1019.1" style="fill:none;stroke:#000000;stroke-width:2.5" />
<path d="M112.2,87.824L112.2,97.824" style="fill:none;stroke:#000000;stroke-width:2.5" />
<text x="82.641" y="-53.424" transform="scale(1, -1)"
	style="font-family:Liberation Sans;font-variant:normal;font-weight:normal;font-style:normal;font-size:30px">9.00</text>
<path d="M144.95,87.824L144.95,92.824" style="fill:none;stroke:#000000;stroke-width:2.5" />
<path d="M177.7,87.824L177.7,92.824" style="fill:none;stroke:#000000;stroke-width:2.5" />
<path d="M210.45,87.824L210.45,92.824" style="fill:none;stroke:#000000;stroke-width:2.5" />
<path d="M243.21,87.824L243.21,92.824" style="fill:none;stroke:#000000;stroke-width:2.5" />
<path d="M275.96,87.824L275.96,97.824" style="fill:none;stroke:#000000;stroke-width:2.5" />
<text x="246.4" y="-53.424" transform="scale(1, -1)"
	style="font-family:Liberation Sans;font-variant:normal;font-weight:normal;font-style:normal;font-size:30px">9.05</text>
<path d="M308.71,87.824L308.71,92.824" style="fill:none;stroke:#000000;stroke-width:2.5" />
<path d="M341.46,87.824L341.46,92.824" style="fill:none;stroke:#000000;stroke-width:2.5" />
<path d="M374.21,87.824L374.21,92.824" style="fill:none;stroke:#000000;stroke-width:2.5" />
<path d="M406.97,87.824L406.97,92.824" style="fill:none;stroke:#000000;stroke-width:2.5" />
<path d="M439.72,87.824L439.72,97.824" style="fill:none;stroke:#000000;stroke-width:2.5" />
<text x="410.16" y="-53.424" transform="scale(1, -1)"
	style="font-family:Liberation Sans;font-variant:normal;font-weight:normal;font-style:normal;font-size:30px">9.10</text>
<path d="M472.47,87.824L472.47,92.824" style="fill:none;stroke:#000000;stroke-width:2.5" />
<path d="M505.22,87.824L505.22,92.824" style="fill:none;stroke:#000000;stroke-width:2.5" />
<path d="M537.98,87.824L537.98,92.824" style="fill:none;stroke:#000000;stroke-width:2.5" />
<path d="M570.73,87.824L570.73,92.824" style="fill:none;stroke:#000000;stroke-width:2.5" />
<path d="M603.48,87.824L603.48,97.824" style="fill:none;stroke:#000000;stroke-width:2.5" />
<text x="573.92" y="-53.424" transform="scale(1, -1)"
	style="font-family:Liberation Sans;font-variant:normal;font-weight:normal;font-style:normal;font-size:30px">9.15</text>
<path d="M636.23,87.824L636.23,92.824" style="fill:none;stroke:#000000;stroke-width:2.5" />
<path d="M668.98,87.824L668.98,92.824" style="fill:none;stroke:#000000;stroke-width:2.5" />
<path d="M701.74,87.824L701.74,92.824" style="fill:none;stroke:#000000;stroke-width:2.5" />
<path d="M734.49,87.824L734.49,92.824" style="fill:none;stroke:#000000;stroke-width:2.5" />
<path d="M767.24,87.824L767.24,97.824" style="fill:none;stroke:#000000;stroke-width:2.5" />
<text x="737.68" y="-53.424" transform="scale(1, -1)"
	style="font-family:Liberation Sans;font-variant:normal;font-weight:normal;font-style:normal;font-size:30px">9.20</text>
<path d="M799.99,87.824L799.99,92.824" style="fill:none;stroke:#000000;stroke-width:2.5" />
<path d="M832.74,87.824L832.74,92.824" style="fill:none;stroke:#000000;stroke-width:2.5" />
<path d="M865.5,87.824L865.5,92.824" style="fill:none;stroke:#000000;stroke-width:2.5" />
<path d="M898.25,87.824L898.25,92.824" style="fill:none;stroke:#000000;stroke-width:2.5" />
<path d="M931,87.824L931,97.824" style="fill:none;stroke:#000000;stroke-width:2.5" />
<text x="901.45" y="-53.424" transform="scale(1, -1)"
	style="font-family:Liberation Sans;font-variant:normal;font-weight:normal;font-style:normal;font-size:30px">9.25</text>
<path d="M963.75,87.824L963.75,92.824" style="fill:none;stroke:#000000;stroke-width:2.5" />
<path d="M996.51,87.824L996.51,92.824" style="fill:none;stroke:#000000;stroke-width:2.5" />
<path d="M1029.3,87.824L1029.3,92.824" style="fill:none;stroke:#000000;stroke-width:2.5" />
<path d="M1062,87.824L1062,92.824" style="fill:none;stroke:#000000;stroke-width:2.5" />
<path d="M1094.8,87.824L1094.8,97.824" style="fill:none;stroke:#000000;stroke-width:2.5" />
<text x="1065.2" y="-53.424" transform="scale(1, -1)"
	style="font-family:Liberation Sans;font-variant:normal;font-weight:normal;font-style:normal;font-size:30px">9.30</text>
<path d="M1127.5,87.824L1127.5,92.824" style="fill:none;stroke:#000000;stroke-width:2.5" />
<path d="M1160.3,87.824L1160.3,92.824" style="fill:none;stroke:#000000;stroke-width:2.5" />
<path d="M1193,87.824L1193,92.824" style="fill:none;stroke:#000000;stroke-width:2.5" />
<path d="M1225.8,87.824L1225.8,92.824" style="fill:none;stroke:#000000;stroke-width:2.5" />
<path d="M1258.5,87.824L1258.5,97.824" style="fill:none;stroke:#000000;stroke-width:2.5" />
<text x="1229" y="-53.424" transform="scale(1, -1)"
	style="font-family:Liberation Sans;font-variant:normal;font-weight:normal;font-style:normal;font-size:30px">9.35</text>
<path d="M112.2,87.824L122.2,87.824" style="fill:none;stroke:#000000;stroke-width:2.5" />
<text x="52.049" y="-79.424" transform="scale(1, -1)"
	style="font-family:Liberation Sans;font-variant:normal;font-weight:normal;font-style:normal;font-size:30px">0.0</text>
<path d="M112.2,116.04L117.2,116.04" style="fill:none;stroke:#000000;stroke-width:2.5" />
<path d="M112.2,144.26L117.2,144.26" style="fill:none;stroke:#000000;stroke-width:2.5" />
<path d="M112.2,172.48L117.2,172.48" style="fill:none;stroke:#000000;stroke-width:2.5" />
<path d="M112.2,200.7L117.2,200.7" style="fill:none;stroke:#000000;stroke-width:2.5" />
<path d="M112.2,228.92L117.2,228.92" style="fill:none;stroke:#000000;stroke-width:2.5" />
<path d="M112.2,257.14L122.2,257.14" style="fill:none;stroke:#000000;stroke-width:2.5" />
<text x="52.049" y="-248.74" transform="scale(1, -1)"
	style="font-family:Liberation Sans;font-variant:normal;font-weight:normal;font-style:normal;font-size:30px">0.2</text>
<path d="M112.2,285.36L117.2,285.36" style="fill:none;stroke:#000000;stroke-width:2.5" />
<path d="M112.2,313.58L117.2,313.58" style="fill:none;stroke:#000000;stroke-width:2.5" />
<path d="M112.2,341.8L117.2,341.8" style="fill:none;stroke:#000000;stroke-width:2.5" />
<path d="M112.2,370.02L117.2,370.02" style="fill:none;stroke:#000000;stroke-width:2.5" />
<path d="M112.2,398.24L117.2,398.24" style="fill:none;stroke:#000000;stroke-width:2.5" />
<path d="M112.2,426.46L122.2,426.46" style="fill:none;stroke:#000000;stroke-width:2.5" />
<text x="52.049" y="-418.06" transform="scale(1, -1)"
	style="font-family:Liberation Sans;font-variant:normal;font-weight:normal;font-style:normal;font-size:30px">0.4</text>
<path d="M112.2,454.68L117.2,454.68" style="fill:none;stroke:#000000;stroke-width:2.5" />
<path d="M112.2,482.9L117.2,482.9" style="fill:none;stroke:#000000;stroke-width:2.5" />
<path d="M112.2,511.11L117.2,511.11" style="fill:none;stroke:#000000;stroke-width:2.5" />
<path d="M112.2,539.33L117.2,539.33" style="fill:none;stroke:#000000;stroke-width:2.5" />
<path d="M112.2,567.55L117.2,567.55" style="fill:none;stroke:#000000;stroke-width:2.5" />
<path d="M112.2,595.77L122.2,595.77" style="fill:none;stroke:#000000;stroke-width:2.5" />
<text x="52.049" y="-587.37" transform="scale(1, -1)"
	style="font-family:Liberation Sans;font-variant:normal;font-weight:normal;font-style:normal;font-size:30px">0.6</text>
<path d="M112.2,623.99L117.2,623.99" style="fill:none;stroke:#000000;stroke-width:2.5" />
<path d="M112.2,652.21L117.2,652.21" style="fill:none;stroke:#000000;stroke-width:2.5" />
<path d="M112.2,680.43L117.2,680.43" style="fill:none;stroke:#000000;stroke-width:2.5" />
<path d="M112.2,708.65L117.2,708.65" style="fill:none;stroke:#000000;stroke-width:2.5" />
<path d="M112.2,736.87L117.2,736.87" style="fill:none;stroke:#000000;stroke-width:2.5" />
<path d="M112.2,765.09L122.2,765.09" style="fill:none;stroke:#000000;stroke-width:2.5" />
<text x="52.049" y="-756.69" transform="scale(1, -1)"
	style="font-family:Liberation Sans;font-variant:normal;font-weight:normal;font-style:normal;font-size:30px">0.8</text>
<path d="M112.2,793.31L117.2,793.31" style="fill:none;stroke:#000000;stroke-width:2.5" />
<path d="M112.2,821.53L117.2,821.53" style="fill:none;stroke:#000000;stroke-width:2.5" />
<path d="M112.2,849.75L117.2,849.75" style="fill:none;stroke:#000000;stroke-width:2.5" />
<path d="M112.2,877.97L117.2,877.97" style="fill:none;stroke:#000000;stroke-width:2.5" />
<path d="M112.2,906.19L117.2,906.19" style="fill:none;stroke:#000000;stroke-width:2.5" />
<path d="M112.2,934.4L122.2,934.4" style="fill:none;stroke:#000000;stroke-width:2.5" />
<text x="52.049" y="-926" transform="scale(1, -1)"
	style="font-family:Liberation Sans;font-variant:normal;font-weight:normal;font-style:normal;font-size:30px">1.0</text>
<path d="M120.2,116.49A8,8 0 1 1 104.2,116.49A8,8 0 1 1 120.2,116.49Z" style="fill:#FF7AB4" />
<path d="M123.47,116.18A8,8 0 1 1 107.47,116.18A8,8 0 1 1 123.47,116.18Z" style="fill:#FF7AB4" />
<path d="M126.75,116.2A8,8 0 1 1 110.75,116.2A8,8 0 1 1 126.75,116.2Z" style="fill:#FF7AB4" />
<path d="M130.02,118.61A8,8 0 1 1 114.02,118.61A8,8 0 1 1 130.02,118.61Z" style="fill:#FF7AB4" />
<path d="M133.3,117.53A8,8 0 1 1 117.3,117.53A8,8 0 1 1 133.3,117.53Z" style="fill:#FF7AB4" />
<path d="M136.57,119.13A8,8 0 1 1 120.57,119.13A8,8 0 1 1 136.57,119.13Z" style="fill:#FF7AB4" />
<path d="M139.85,119.88A8,8 0 1 1 123.85,119.88A8,8 0 1 1 139.85,119.88Z" style="fill:#FF7AB4" />
<path d="M143.12,120.07A8,8 0 1 1 127.12,120.07A8,8 0 1 1 143.12,120.07Z" style="fill:#FF7AB4" />
<path d="M146.4,121.33A8,8 0 1 1 130.4,121.33A8,8 0 1 1 146.4,121.33Z" style="fill:#FF7AB4" />
<path d="M149.67,121.52A8,8 0 1 1 133.67,121.52A8,8 0 1 1 149.67,121.52Z" style="fill:#FF7AB4" />
<path d="M152.95,121.3A8,8 0 1 1 136.95,121.3A8,8 0 1 1 152.95,121.3Z" style="fill:#FF7AB4" />
<path d="M156.22,121.24A8,8 0 1 1 140.22,121.24A8,8 0 1 1 156.22,121.24Z" style="fill:#FF7AB4" />
<path d="M159.5,121.08A8,8 0 1 1 143.5,121.08A8,8 0 1 1 159.5,121.08Z" style="fill:#FF7AB4" />
<path d="M162.77,123.25A8,8 0 1 1 146.77,123.25A8,8 0 1 1 162.77,123.25Z" style="fill:#FF7AB4" />
<path d="M166.05,123.96A8,8 0 1 1 150.05,123.96A8,8 0 1 1 166.05,123.96Z" style="fill:#FF7AB4" />
<path d="M169.33,124.55A8,8 0 1 1 153.33,124.55A8,8 0 1 1 169.33,124.55Z" style="fill:#FF7AB4" />
<path d="M172.6,124.44A8,8 0 1 1 156.6,124.44A8,8 0 1 1 172.6,124.44Z" style="fill:#FF7AB4" />
<path d="M175.88,124.61A8,8 0 1 1 159.88,124.61A8,8 0 1 1 175.88,124.61Z" style="fill:#FF7AB4" />
<path d="M179.15,125.3A8,8 0 1 1 163.15,125.3A8,8 0 1 1 179.15,125.3Z" style="fill:#FF7AB4" />
<path d="M182.43,127.63A8,8 0 1 1 166.43,127.63A8,8 0 1 1 182.43,127.63Z" style="fill:#FF7AB4" />
<path d="M185.7,127.33A8,8 0 1 1 169.7,127.33A8,8 0 1 1 185.7,127.33Z" style="fill:#FF7AB4" />
<path d="M188.98,127.56A8,8 0 1 1 172.98,127.56A8,8 0 1 1 188.98,127.56Z" style="fill:#FF7AB4" />
<path d="M192.25,127.07A8,8 0 1 1 176.25,127.07A8,8 0 1 1 192.25,127.07Z" style="fill:#FF7AB4" />
<path d="M195.53,129.02A8,8 0 1 1 179.53,129.02A8,8 0 1 1 195.53,129.02Z" style="fill:#FF7AB4" />
<path d="M198.8,128.53A8,8 0 1 1 182.8,128.53A8,8 0 1 1 198.8,128.53Z" style="fill:#FF7AB4" />
<path d="M202.08,128.26A8,8 0 1 1 186.08,128.26A8,8 0 1 1 202.08,128.26Z" style="fill:#FF7AB4" />
<path d="M205.35,132.34A8,8 0 1 1 189.35,132.34A8,8 0 1 1 205.35,132.34Z" style="fill:#FF7AB4" />
<path d="M208.63,131.39A8,8 0 1 1 192.63,131.39A8,8 0 1 1 208.63,131.39Z" style="fill:#FF7AB4" />
<path d="M211.9,134.63A8,8 0 1 1 195.9,134.63A8,8 0 1 1 211.9,134.63Z" style="fill:#FF7AB4" />
<path d="M215.18,133.12A8,8 0 1 1 199.18,133.12A8,8 0 1 1 215.18,133.12Z" style="fill:#FF7AB4" />
<path d="M218.45,133.96A8,8 0 1 1 202.45,133.96A8,8 0 1 1 218.45,133.96Z" style="fill:#FF7AB4" />
<path d="M221.73,135.34A8,8 0 1 1 205.73,135.34A8,8 0 1 1 221.73,135.34Z" style="fill:#FF7AB4" />
<path d="M225,136.69A8,8 0 1 1 209,136.69A8,8 0 1 1 225,136.69Z" style="fill:#FF7AB4" />
<path d="M228.28,134.99A8,8 0 1 1 212.28,134.99A8,8 0 1 1 228.28,134.99Z" style="fill:#FF7AB4" />
<path d="M231.55,135.94A8,8 0 1 1 215.55,135.94A8,8 0 1 1 231.55,135.94Z" style="fill:#FF7AB4" />
<path d="M234.83,138.02A8,8 0 1 1 218.83,138.02A8,8 0 1 1 234.83,138.02Z" style="fill:#FF7AB4" />
<path d="M238.1,137.04A8,8 0 1 1 222.1,137.04A8,8 0 1 1 238.1,137.04Z" style="fill:#FF7AB4" />
<path d="M241.38,139.67A8,8 0 1 1 225.38,139.67A8,8 0 1 1 241.38,139.67Z" style="fill:#FF7AB4" />
<path d="M244.66,139.6A8,8 0 1 1 228.66,139.6A8,8 0 1 1 244.66,139.6Z" style="fill:#FF7AB4" />
<path d="M247.93,140.96A8,8 0 1 1 231.93,140.96A8,8 0 1 1 247.93,140.96Z" style="fill:#FF7AB4" />
<path d="M251.21,141.56A8,8 0 1 1 235.21,141.56A8,8 0 1 1 251.21,141.56Z" style="fill:#FF7AB4" />
<path d="M254.48,143.84A8,8 0 1 1 238.48,143.84A8,8 0 1 1 254.48,143.84Z" style="fill:#FF7AB4" />
<path d="M257.76,143.53A8,8 0 1 1 241.76,143.53A8,8 0 1 1 257.76,143.53Z" style="fill:#FF7AB4" />
<path d="M261.03,143.77A8,8 0 1 1 245.03,143.77A8,8 0 1 1 261.03,143.77Z" style="fill:#FF7AB4" />
<path d="M264.31,145.53A8,8 0 1 1 248.31,145.53A8,8 0 1 1 264.31,145.53Z" style="fill:#FF7AB4" />
<path d="M267.58,142.61A8,8 0 1 1 251.58,142.61A8,8 0 1 1 267.58,142.61Z" style="fill:#FF7AB4" />
<path d="M270.86,147.99A8,8 0 1 1 254.86,147.99A8,8 0 1 1 270.86,147.99Z" style="fill:#FF7AB4" />
<path d="M274.13,146.92A8,8 0 1 1 258.13,146.92A8,8 0 1 1 274.13,146.92Z" style="fill:#FF7AB4" />
<path d="M277.41,148.65A8,8 0 1 1 261.41,148.65A8,8 0 1 1 277.41,148.65Z" style="fill:#FF7AB4" />
<path d="M280.68,150.58A8,8 0 1 1 264.68,150.58A8,8 0 1 1 280.68,150.58Z" style="fill:#FF7AB4" />
<path d="M283.96,150.08A8,8 0 1 1 267.96,150.08A8,8 0 1 1 283.96,150.08Z" style="fill:#FF7AB4" />
<path d="M287.23,154.09A8,8 0 1 1 271.23,154.09A8,8 0 1 1 287.23,154.09Z" style="fill:#FF7AB4" />
<path d="M290.51,152.32A8,8 0 1 1 274.51,152.32A8,8 0 1 1 290.51,152.32Z" style="fill:#FF7AB4" />
<path d="M293.78,155.27A8,8 0 1 1 277.78,155.27A8,8 0 1 1 293.78,155.27Z" style="fill:#FF7AB4" />
<path d="M297.06,153.85A8,8 0 1 1 281.06,153.85A8,8 0 1 1 297.06,153.85Z" style="fill:#FF7AB4" />
<path d="M300.33,156.89A8,8 0 1 1 284.33,156.89A8,8 0 1 1 300.33,156.89Z" style="fill:#FF7AB4" />
<path d="M303.61,158.4A8,8 0 1 1 287.61,158.4A8,8 0 1 1 303.61,158.4Z" style="fill:#FF7AB4" />
<path d="M306.88,161.25A8,8 0 1 1 290.88,161.25A8,8 0 1 1 306.88,161.25Z" style="fill:#FF7AB4" />
<path d="M310.16,159.96A8,8 0 1 1 294.16,159.96A8,8 0 1 1 310.16,159.96Z" style="fill:#FF7AB4" />
<path d="M313.43,160.69A8,8 0 1 1 297.43,160.69A8,8 0 1 1 313.43,160.69Z" style="fill:#FF7AB4" />
<path d="M316.71,161.72A8,8 0 1 1 300.71,161.72A8,8 0 1 1 316.71,161.72Z" style="fill:#FF7AB4" />
<path d="M319.99,163.23A8,8 0 1 1 303.99,163.23A8,8 0 1 1 319.99,163.23Z" style="fill:#FF7AB4" />
<path d="M323.26,167.05A8,8 0 1 1 307.26,167.05A8,8 0 1 1 323.26,167.05Z" style="fill:#FF7AB4" />
<path d="M326.54,167.82A8,8 0 1 1 310.54,167.82A8,8 0 1 1 326.54,167.82Z" style="fill:#FF7AB4" />
<path d="M329.81,167.55A8,8 0 1 1 313.81,167.55A8,8 0 1 1 329.81,167.55Z" style="fill:#FF7AB4" />
<path d="M333.09,167.9A8,8 0 1 1 317.09,167.9A8,8 0 1 1 333.09,167.9Z" style="fill:#FF7AB4" />
<path d="M336.36,170.19A8,8 0 1 1 320.36,170.19A8,8 0 1 1 336.36,170.19Z" style="fill:#FF7AB4" />
<path d="M339.64,172.15A8,8 0 1 1 323.64,172.15A8,8 0 1 1 339.64,172.15Z" style="fill:#FF7AB4" />
<path d="M342.91,174.04A8,8 0 1 1 326.91,174.04A8,8 0 1 1 342.91,174.04Z" style="fill:#FF7AB4" />
<path d="M346.19,176.32A8,8 0 1 1 330.19,176.32A8,8 0 1 1 346.19,176.32Z" style="fill:#FF7AB4" />
<path d="M349.46,178.67A8,8 0 1 1 333.46,178.67A8,8 0 1 1 349.46,178.67Z" style="fill:#FF7AB4" />
<path d="M352.74,180.13A8,8 0 1 1 336.74,180.13A8,8 0 1 1 352.74,180.13Z" style="fill:#FF7AB4" />
<path d="M356.01,182.47A8,8 0 1 1 340.01,182.47A8,8 0 1 1 356.01,182.47Z" style="fill:#FF7AB4" />
<path d="M359.29,180.4A8,8 0 1 1 343.29,180.4A8,8 0 1 1 359.29,180.4Z" style="fill:#FF7AB4" />
<path d="M362.56,184.15A8,8 0 1 1 346.56,184.15A8,8 0 1 1 362.56,184.15Z" style="fill:#FF7AB4" />
<path d="M365.84,183.64A8,8 0 1 1 349.84,183.64A8,8 0 1 1 365.84,183.64Z" style="fill:#FF7AB4" />
<path d="M369.11,185.88A8,8 0 1 1 353.11,185.88A8,8 0 1 1 369.11,185.88Z" style="fill:#FF7AB4" />
<path d="M372.39,187.85A8,8 0 1 1 356.39,187.85A8,8 0 1 1 372.39,187.85Z" style="fill:#FF7AB4" />
<path d="M375.66,190.33A8,8 0 1 1 359.66,190.33A8,8 0 1 1 375.66,190.33Z" style="fill:#FF7AB4" />
<path d="M378.94,192.9A8,8 0 1 1 362.94,192.9A8,8 0 1 1 378.94,192.9Z" style="fill:#FF7AB4" />
<path d="M382.21,194.6A8,8 0 1 1 366.21,194.6A8,8 0 1 1 382.21,194.6Z" style="fill:#FF7AB4" />
<path d="M385.49,196.58A8,8 0 1 1 369.49,196.58A8,8 0 1 1 385.49,196.58Z" style="fill:#FF7AB4" />
<path d="M388.76,199.57A8,8 0 1 1 372.76,199.57A8,8 0 1 1 388.76,199.57Z" style="fill:#FF7AB4" />
<path d="M392.04,199.09A8,8 0 1 1 376.04,199.09A8,8 0 1 1 392.04,199.09Z" style="fill:#FF7AB4" />
<path d="M395.32,203.92A8,8 0 1 1 379.32,203.92A8,8 0 1 1 395.32,203.92Z" style="fill:#FF7AB4" />
<path d="M398.59,203.71A8,8 0 1 1 382.59,203.71A8,8 0 1 1 398.59,203.71Z" style="fill:#FF7AB4" />
<path d="M401.87,206.42A8,8 0 1 1 385.87,206.42A8,8 0 1 1 401.87,206.42Z" style="fill:#FF7AB4" />
<path d="M405.14,209.91A8,8 0 1 1 389.14,209.91A8,8 0 1 1 405.14,209.91Z" style="fill:#FF7AB4" />
<path d="M408.42,211.18A8,8 0 1 1 392.42,211.18A8,8 0 1 1 408.42,211.18Z" style="fill:#FF7AB4" />
<path d="M411.69,212.4A8,8 0 1 1 395.69,212.4A8,8 0 1 1 411.69,212.4Z" style="fill:#FF7AB4" />
<path d="M414.97,216.19A8,8 0 1 1 398.97,216.19A8,8 0 1 1 414.97,216.19Z" style="fill:#FF7AB4" />
<path d="M418.24,215.88A8,8 0 1 1 402.24,215.88A8,8 0 1 1 418.24,215.88Z" style="fill:#FF7AB4" />
<path d="M421.52,225.02A8,8 0 1 1 405.52,225.02A8,8 0 1 1 421.52,225.02Z" style="fill:#FF7AB4" />
<path d="M424.79,224.47A8,8 0 1 1 408.79,224.47A8,8 0 1 1 424.79,224.47Z" style="fill:#FF7AB4" />
<path d="M428.07,227.57A8,8 0 1 1 412.07,227.57A8,8 0 1 1 428.07,227.57Z" style="fill:#FF7AB4" />
<path d="M431.34,230.57A8,8 0 1 1 415.34,230.57A8,8 0 1 1 431.34,230.57Z" style="fill:#FF7AB4" />
<path d="M434.62,232.92A8,8 0 1 1 418.62,232.92A8,8 0 1 1 434.62,232.92Z" style="fill:#FF7AB4" />
<path d="M437.89,233.63A8,8 0 1 1 421.89,233.63A8,8 0 1 1 437.89,233.63Z" style="fill:#FF7AB4" />
<path d="M441.17,238.21A8,8 0 1 1 425.17,238.21A8,8 0 1 1 441.17,238.21Z" style="fill:#FF7AB4" />
<path d="M444.44,241.27A8,8 0 1 1 428.44,241.27A8,8 0 1 1 444.44,241.27Z" style="fill:#FF7AB4" />
<path d="M447.72,242.66A8,8 0 1 1 431.72,242.66A8,8 0 1 1 447.72,242.66Z" style="fill:#FF7AB4" />
<path d="M450.99,247.56A8,8 0 1 1 434.99,247.56A8,8 0 1 1 450.99,247.56Z" style="fill:#FF7AB4" />
<path d="M454.27,246.77A8,8 0 1 1 438.27,246.77A8,8 0 1 1 454.27,246.77Z" style="fill:#FF7AB4" />
<path d="M457.54,251.61A8,8 0 1 1 441.54,251.61A8,8 0 1 1 457.54,251.61Z" style="fill:#FF7AB4" />
<path d="M460.82,253.34A8,8 0 1 1 444.82,253.34A8,8 0 1 1 460.82,253.34Z" style="fill:#FF7AB4" />
<path d="M464.09,255.87A8,8 0 1 1 448.09,255.87A8,8 0 1 1 464.09,255.87Z" style="fill:#FF7AB4" />
<path d="M467.37,259.34A8,8 0 1 1 451.37,259.34A8,8 0 1 1 467.37,259.34Z" style="fill:#FF7AB4" />
<path d="M470.65,264.46A8,8 0 1 1 454.65,264.46A8,8 0 1 1 470.65,264.46Z" style="fill:#FF7AB4" />
<path d="M473.92,269.75A8,8 0 1 1 457.92,269.75A8,8 0 1 1 473.92,269.75Z" style="fill:#FF7AB4" />
<path d="M477.2,272.15A8,8 0 1 1 461.2,272.15A8,8 0 1 1 477.2,272.15Z" style="fill:#FF7AB4" />
<path d="M480.47,276.34A8,8 0 1 1 464.47,276.34A8,8 0 1 1 480.47,276.34Z" style="fill:#FF7AB4" />
<path d="M483.75,277.22A8,8 0 1 1 467.75,277.22A8,8 0 1 1 483.75,277.22Z" style="fill:#FF7AB4" />
<path d="M487.02,288.1A8,8 0 1 1 471.02,288.1A8,8 0 1 1 487.02,288.1Z" style="fill:#FF7AB4" />
<path d="M490.3,284.7A8,8 0 1 1 474.3,284.7A8,8 0 1 1 490.3,284.7Z" style="fill:#FF7AB4" />
<path d="M493.57,290.43A8,8 0 1 1 477.57,290.43A8,8 0 1 1 493.57,290.43Z" style="fill:#FF7AB4" />
<path d="M496.85,291.09A8,8 0 1 1 480.85,291.09A8,8 0 1 1 496.85,291.09Z" style="fill:#FF7AB4" />
<path d="M500.12,296.78A8,8 0 1 1 484.12,296.78A8,8 0 1 1 500.12,296.78Z" style="fill:#FF7AB4" />
<path d="M503.4,296.29A8,8 0 1 1 487.4,296.29A8,8 0 1 1 503.4,296.29Z" style="fill:#FF7AB4" />
<path d="M506.67,302.76A8,8 0 1 1 490.67,302.76A8,8 0 1 1 506.67,302.76Z" style="fill:#FF7AB4" />
<path d="M509.95,305.43A8,8 0 1 1 493.95,305.43A8,8 0 1 1 509.95,305.43Z" style="fill:#FF7AB4" />
<path d="M513.22,307.45A8,8 0 1 1 497.22,307.45A8,8 0 1 1 513.22,307.45Z" style="fill:#FF7AB4" />
<path d="M516.5,316.16A8,8 0 1 1 500.5,316.16A8,8 0 1 1 516.5,316.16Z" style="fill:#FF7AB4" />
<path d="M519.77,320.72A8,8 0 1 1 503.77,320.72A8,8 0 1 1 519.77,320.72Z" style="fill:#FF7AB4" />
<path d="M523.05,327.18A8,8 0 1 1 507.05,327.18A8,8 0 1 1 523.05,327.18Z" style="fill:#FF7AB4" />
<path d="M526.32,330.77A8,8 0 1 1 510.32,330.77A8,8 0 1 1 526.32,330.77Z" style="fill:#FF7AB4" />
<path d="M529.6,335.73A8,8 0 1 1 513.6,335.73A8,8 0 1 1 529.6,335.73Z" style="fill:#FF7AB4" />
<path d="M532.87,341.07A8,8 0 1 1 516.87,341.07A8,8 0 1 1 532.87,341.07Z" style="fill:#FF7AB4" />
<path d="M536.15,344.94A8,8 0 1 1 520.15,344.94A8,8 0 1 1 536.15,344.94Z" style="fill:#FF7AB4" />
<path d="M539.42,351.95A8,8 0 1 1 523.42,351.95A8,8 0 1 1 539.42,351.95Z" style="fill:#FF7AB4" />
<path d="M542.7,356.03A8,8 0 1 1 526.7,356.03A8,8 0 1 1 542.7,356.03Z" style="fill:#FF7AB4" />
<path d="M545.98,358.57A8,8 0 1 1 529.98,358.57A8,8 0 1 1 545.98,358.57Z" style="fill:#FF7AB4" />
<path d="M549.25,362.88A8,8 0 1 1 533.25,362.88A8,8 0 1 1 549.25,362.88Z" style="fill:#FF7AB4" />
<path d="M552.53,368.58A8,8 0 1 1 536.53,368.58A8,8 0 1 1 552.53,368.58Z" style="fill:#FF7AB4" />
<path d="M555.8,371.48A8,8 0 1 1 539.8,371.48A8,8 0 1 1 555.8,371.48Z" style="fill:#FF7AB4" />
<path d="M559.08,378.6A8,8 0 1 1 543.08,378.6A8,8 0 1 1 559.08,378.6Z" style="fill:#FF7AB4" />
<path d="M562.35,384.76A8,8 0 1 1 546.35,384.76A8,8 0 1 1 562.35,384.76Z" style="fill:#FF7AB4" />
<path d="M565.63,391.03A8,8 0 1 1 549.63,391.03A8,8 0 1 1 565.63,391.03Z" style="fill:#FF7AB4" />
<path d="M568.9,398.39A8,8 0 1 1 552.9,398.39A8,8 0 1 1 568.9,398.39Z" style="fill:#FF7AB4" />
<path d="M572.18,403.51A8,8 0 1 1 556.18,403.51A8,8 0 1 1 572.18,403.51Z" style="fill:#FF7AB4" />
<path d="M575.45,408.46A8,8 0 1 1 559.45,408.46A8,8 0 1 1 575.45,408.46Z" style="fill:#FF7AB4" />
<path d="M578.73,417.46A8,8 0 1 1 562.73,417.46A8,8 0 1 1 578.73,417.46Z" style="fill:#FF7AB4" />
<path d="M582,420.22A8,8 0 1 1 566,420.22A8,8 0 1 1 582,420.22Z" style="fill:#FF7AB4" />
<path d="M585.28,427.18A8,8 0 1 1 569.28,427.18A8,8 0 1 1 585.28,427.18Z" style="fill:#FF7AB4" />
<path d="M588.55,435.41A8,8 0 1 1 572.55,435.41A8,8 0 1 1 588.55,435.41Z" style="fill:#FF7AB4" />
<path d="M591.83,443.33A8,8 0 1 1 575.83,443.33A8,8 0 1 1 591.83,443.33Z" style="fill:#FF7AB4" />
<path d="M595.1,449.84A8,8 0 1 1 579.1,449.84A8,8 0 1 1 595.1,449.84Z" style="fill:#FF7AB4" />
<path d="M598.38,457.18A8,8 0 1 1 582.38,457.18A8,8 0 1 1 598.38,457.18Z" style="fill:#FF7AB4" />
<path d="M601.65,466.83A8,8 0 1 1 585.65,466.83A8,8 0 1 1 601.65,466.83Z" style="fill:#FF7AB4" />
<path d="M604.93,470.03A8,8 0 1 1 588.93,470.03A8,8 0 1 1 604.93,470.03Z" style="fill:#FF7AB4" />
<path d="M608.2,477.12A8,8 0 1 1 592.2,477.12A8,8 0 1 1 608.2,477.12Z" style="fill:#FF7AB4" />
<path d="M611.48,488.41A8,8 0 1 1 595.48,488.41A8,8 0 1 1 611.48,488.41Z" style="fill:#FF7AB4" />
<path d="M614.75,489.64A8,8 0 1 1 598.75,489.64A8,8 0 1 1 614.75,489.64Z" style="fill:#FF7AB4" />
<path d="M618.03,499.62A8,8 0 1 1 602.03,499.62A8,8 0 1 1 618.03,499.62Z" style="fill:#FF7AB4" />
<path d="M621.31,513.41A8,8 0 1 1 605.31,513.41A8,8 0 1 1 621.31,513.41Z" style="fill:#FF7AB4" />
<path d="M624.58,517.74A8,8 0 1 1 608.58,517.74A8,8 0 1 1 624.58,517.74Z" style="fill:#FF7AB4" />
<path d="M627.86,524.21A8,8 0 1 1 611.86,524.21A8,8 0 1 1 627.86,524.21Z" style="fill:#FF7AB4" />
<path d="M631.13,533.08A8,8 0 1 1 615.13,533.08A8,8 0 1 1 631.13,533.08Z" style="fill:#FF7AB4" />
<path d="M634.41,540.61A8,8 0 1 1 618.41,540.61A8,8 0 1 1 634.41,540.61Z" style="fill:#FF7AB4" />
<path d="M637.68,552.37A8,8 0 1 1 621.68,552.37A8,8 0 1 1 637.68,552.37Z" style="fill:#FF7AB4" />
<path d="M640.96,559.66A8,8 0 1 1 624.96,559.66A8,8 0 1 1 640.96,559.66Z" style="fill:#FF7AB4" />
<path d="M644.23,568.32A8,8 0 1 1 628.23,568.32A8,8 0 1 1 644.23,568.32Z" style="fill:#FF7AB4" />
<path d="M647.51,576.46A8,8 0 1 1 631.51,576.46A8,8 0 1 1 647.51,576.46Z" style="fill:#FF7AB4" />
<path d="M650.78,584.6A8,8 0 1 1 634.78,584.6A8,8 0 1 1 650.78,584.6Z" style="fill:#FF7AB4" />
<path d="M654.06,598.78A8,8 0 1 1 638.06,598.78A8,8 0 1 1 654.06,598.78Z" style="fill:#FF7AB4" />
<path d="M657.33,607.71A8,8 0 1 1 641.33,607.71A8,8 0 1 1 657.33,607.71Z" style="fill:#FF7AB4" />
<path d="M660.61,628.86A8,8 0 1 1 644.61,628.86A8,8 0 1 1 660.61,628.86Z" style="fill:#FF7AB4" />
<path d="M663.88,626.3A8,8 0 1 1 647.88,626.3A8,8 0 1 1 663.88,626.3Z" style="fill:#FF7AB4" />
<path d="M667.16,642.63A8,8 0 1 1 651.16,642.63A8,8 0 1 1 667.16,642.63Z" style="fill:#FF7AB4" />
<path d="M670.43,650.65A8,8 0 1 1 654.43,650.65A8,8 0 1 1 670.43,650.65Z" style="fill:#FF7AB4" />
<path d="M673.71,665.86A8,8 0 1 1 657.71,665.86A8,8 0 1 1 673.71,665.86Z" style="fill:#FF7AB4" />
<path d="M676.98,674.66A8,8 0 1 1 660.98,674.66A8,8 0 1 1 676.98,674.66Z" style="fill:#FF7AB4" />
<path d="M680.26,690.42A8,8 0 1 1 664.26,690.42A8,8 0 1 1 680.26,690.42Z" style="fill:#FF7AB4" />
<path d="M683.53,699.58A8,8 0 1 1 667.53,699.58A8,8 0 1 1 683.53,699.58Z" style="fill:#FF7AB4" />
<path d="M686.81,713.84A8,8 0 1 1 670.81,713.84A8,8 0 1 1 686.81,713.84Z" style="fill:#FF7AB4" />
<path d="M690.08,726.27A8,8 0 1 1 674.08,726.27A8,8 0 1 1 690.08,726.27Z" style="fill:#FF7AB4" />
<path d="M693.36,740.69A8,8 0 1 1 677.36,740.69A8,8 0 1 1 693.36,740.69Z" style="fill:#FF7AB4" />
<path d="M696.64,748.32A8,8 0 1 1 680.64,748.32A8,8 0 1 1 696.64,748.32Z" style="fill:#FF7AB4" />
<path d="M699.91,759.9A8,8 0 1 1 683.91,759.9A8,8 0 1 1 699.91,759.9Z" style="fill:#FF7AB4" />
<path d="M703.19,778.58A8,8 0 1 1 687.19,778.58A8,8 0 1 1 703.19,778.58Z" style="fill:#FF7AB4" />
<path d="M706.46,785.76A8,8 0 1 1 690.46,785.76A8,8 0 1 1 706.46,785.76Z" style="fill:#FF7AB4" />
<path d="M709.74,800.22A8,8 0 1 1 693.74,800.22A8,8 0 1 1 709.74,800.22Z" style="fill:#FF7AB4" />
<path d="M713.01,814.26A8,8 0 1 1 697.01,814.26A8,8 0 1 1 713.01,814.26Z" style="fill:#FF7AB4" />
<path d="M716.29,829.43A8,8 0 1 1 700.29,829.43A8,8 0 1 1 716.29,829.43Z" style="fill:#FF7AB4" />
<path d="M719.56,840.6A8,8 0 1 1 703.56,840.6A8,8 0 1 1 719.56,840.6Z" style="fill:#FF7AB4" />
<path d="M722.84,853.44A8,8 0 1 1 706.84,853.44A8,8 0 1 1 722.84,853.44Z" style="fill:#FF7AB4" />
<path d="M726.11,864.75A8,8 0 1 1 710.11,864.75A8,8 0 1 1 726.11,864.75Z" style="fill:#FF7AB4" />
<path d="M729.39,874.86A8,8 0 1 1 713.39,874.86A8,8 0 1 1 729.39,874.86Z" style="fill:#FF7AB4" />
<path d="M732.66,881.75A8,8 0 1 1 716.66,881.75A8,8 0 1 1 732.66,881.75Z" style="fill:#FF7AB4" />
<path d="M735.94,894.04A8,8 0 1 1 719.94,894.04A8,8 0 1 1 735.94,894.04Z" style="fill:#FF7AB4" />
<path d="M739.21,897.92A8,8 0 1 1 723.21,897.92A8,8 0 1 1 739.21,897.92Z" style="fill:#FF7AB4" />
<path d="M742.49,904.97A8,8 0 1 1 726.49,904.97A8,8 0 1 1 742.49,904.97Z" style="fill:#FF7AB4" />
<path d="M745.76,918.21A8,8 0 1 1 729.76,918.21A8,8 0 1 1 745.76,918.21Z" style="fill:#FF7AB4" />
<path d="M749.04,917.48A8,8 0 1 1 733.04,917.48A8,8 0 1 1 749.04,917.48Z" style="fill:#FF7AB4" />
<path d="M752.31,919.17A8,8 0 1 1 736.31,919.17A8,8 0 1 1 752.31,919.17Z" style="fill:#FF7AB4" />
<path d="M755.59,925.25A8,8 0 1 1 739.59,925.25A8,8 0 1 1 755.59,925.25Z" style="fill:#FF7AB4" />
<path d="M758.86,932.38A8,8 0 1 1 742.86,932.38A8,8 0 1 1 758.86,932.38Z" style="fill:#FF7AB4" />
<path d="M762.14,934.4A8,8 0 1 1 746.14,934.4A8,8 0 1 1 762.14,934.4Z" style="fill:#FF7AB4" />
<path d="M765.41,924.81A8,8 0 1 1 749.41,924.81A8,8 0 1 1 765.41,924.81Z" style="fill:#FF7AB4" />
<path d="M768.69,924.44A8,8 0 1 1 752.69,924.44A8,8 0 1 1 768.69,924.44Z" style="fill:#FF7AB4" />
<path d="M771.97,928.81A8,8 0 1 1 755.97,928.81A8,8 0 1 1 771.97,928.81Z" style="fill:#FF7AB4" />
<path d="M775.24,916.94A8,8 0 1 1 759.24,916.94A8,8 0 1 1 775.24,916.94Z" style="fill:#FF7AB4" />
<path d="M778.52,910.33A8,8 0 1 1 762.52,910.33A8,8 0 1 1 778.52,910.33Z" style="fill:#FF7AB4" />
<path d="M781.79,899.15A8,8 0 1 1 765.79,899.15A8,8 0 1 1 781.79,899.15Z" style="fill:#FF7AB4" />
<path d="M785.07,898.43A8,8 0 1 1 769.07,898.43A8,8 0 1 1 785.07,898.43Z" style="fill:#FF7AB4" />
<path d="M788.34,876.29A8,8 0 1 1 772.34,876.29A8,8 0 1 1 788.34,876.29Z" style="fill:#FF7AB4" />
<path d="M791.62,874.56A8,8 0 1 1 775.62,874.56A8,8 0 1 1 791.62,874.56Z" style="fill:#FF7AB4" />
<path d="M794.89,858.76A8,8 0 1 1 778.89,858.76A8,8 0 1 1 794.89,858.76Z" style="fill:#FF7AB4" />
<path d="M798.17,849.16A8,8 0 1 1 782.17,849.16A8,8 0 1 1 798.17,849.16Z" style="fill:#FF7AB4" />
<path d="M801.44,827.03A8,8 0 1 1 785.44,827.03A8,8 0 1 1 801.44,827.03Z" style="fill:#FF7AB4" />
<path d="M804.72,818.83A8,8 0 1 1 788.72,818.83A8,8 0 1 1 804.72,818.83Z" style="fill:#FF7AB4" />
<path d="M807.99,805.54A8,8 0 1 1 791.99,805.54A8,8 0 1 1 807.99,805.54Z" style="fill:#FF7AB4" />
<path d="M811.27,791.86A8,8 0 1 1 795.27,791.86A8,8 0 1 1 811.27,791.86Z" style="fill:#FF7AB4" />
<path d="M814.54,765.61A8,8 0 1 1 798.54,765.61A8,8 0 1 1 814.54,765.61Z" style="fill:#FF7AB4" />
<path d="M817.82,747.37A8,8 0 1 1 801.82,747.37A8,8 0 1 1 817.82,747.37Z" style="fill:#FF7AB4" />
<path d="M821.09,738.81A8,8 0 1 1 805.09,738.81A8,8 0 1 1 821.09,738.81Z" style="fill:#FF7AB4" />
<path d="M824.37,716.91A8,8 0 1 1 808.37,716.91A8,8 0 1 1 824.37,716.91Z" style="fill:#FF7AB4" />
<path d="M827.64,703.03A8,8 0 1 1 811.64,703.03A8,8 0 1 1 827.64,703.03Z" style="fill:#FF7AB4" />
<path d="M830.92,685.63A8,8 0 1 1 814.92,685.63A8,8 0 1 1 830.92,685.63Z" style="fill:#FF7AB4" />
<path d="M834.19,666.4A8,8 0 1 1 818.19,666.4A8,8 0 1 1 834.19,666.4Z" style="fill:#FF7AB4" />
<path d="M837.47,646.74A8,8 0 1 1 821.47,646.74A8,8 0 1 1 837.47,646.74Z" style="fill:#FF7AB4" />
<path d="M840.74,633.07A8,8 0 1 1 824.74,633.07A8,8 0 1 1 840.74,633.07Z" style="fill:#FF7AB4" />
<path d="M844.02,615.95A8,8 0 1 1 828.02,615.95A8,8 0 1 1 844.02,615.95Z" style="fill:#FF7AB4" />
<path d="M847.3,601.6A8,8 0 1 1 831.3,601.6A8,8 0 1 1 847.3,601.6Z" style="fill:#FF7AB4" />
<path d="M850.57,579.84A8,8 0 1 1 834.57,579.84A8,8 0 1 1 850.57,579.84Z" style="fill:#FF7AB4" />
<path d="M853.85,566.3A8,8 0 1 1 837.85,566.3A8,8 0 1 1 853.85,566.3Z" style="fill:#FF7AB4" />
<path d="M857.12,550.75A8,8 0 1 1 841.12,550.75A8,8 0 1 1 857.12,550.75Z" style="fill:#FF7AB4" />
<path d="M860.4,533.79A8,8 0 1 1 844.4,533.79A8,8 0 1 1 860.4,533.79Z" style="fill:#FF7AB4" />
<path d="M863.67,521.85A8,8 0 1 1 847.67,521.85A8,8 0 1 1 863.67,521.85Z" style="fill:#FF7AB4" />
<path d="M866.95,508.57A8,8 0 1 1 850.95,508.57A8,8 0 1 1 866.95,508.57Z" style="fill:#FF7AB4" />
<path d="M870.22,494.83A8,8 0 1 1 854.22,494.83A8,8 0 1 1 870.22,494.83Z" style="fill:#FF7AB4" />
<path d="M873.5,483.56A8,8 0 1 1 857.5,483.56A8,8 0 1 1 873.5,483.56Z" style="fill:#FF7AB4" />
<path d="M876.77,470.88A8,8 0 1 1 860.77,470.88A8,8 0 1 1 876.77,470.88Z" style="fill:#FF7AB4" />
<path d="M880.05,457.53A8,8 0 1 1 864.05,457.53A8,8 0 1 1 880.05,457.53Z" style="fill:#FF7AB4" />
<path d="M883.32,443.31A8,8 0 1 1 867.32,443.31A8,8 0 1 1 883.32,443.31Z" style="fill:#FF7AB4" />
<path d="M886.6,429.12A8,8 0 1 1 870.6,429.12A8,8 0 1 1 886.6,429.12Z" style="fill:#FF7AB4" />
<path d="M889.87,412.22A8,8 0 1 1 873.87,412.22A8,8 0 1 1 889.87,412.22Z" style="fill:#FF7AB4" />
<path d="M893.15,409.51A8,8 0 1 1 877.15,409.51A8,8 0 1 1 893.15,409.51Z" style="fill:#FF7AB4" />
<path d="M896.42,400.11A8,8 0 1 1 880.42,400.11A8,8 0 1 1 896.42,400.11Z" style="fill:#FF7AB4" />
<path d="M899.7,386.16A8,8 0 1 1 883.7,386.16A8,8 0 1 1 899.7,386.16Z" style="fill:#FF7AB4" />
<path d="M902.97,377.58A8,8 0 1 1 886.97,377.58A8,8 0 1 1 902.97,377.58Z" style="fill:#FF7AB4" />
<path d="M906.25,372.72A8,8 0 1 1 890.25,372.72A8,8 0 1 1 906.25,372.72Z" style="fill:#FF7AB4" />
<path d="M909.52,364.41A8,8 0 1 1 893.52,364.41A8,8 0 1 1 909.52,364.41Z" style="fill:#FF7AB4" />
<path d="M912.8,350.93A8,8 0 1 1 896.8,350.93A8,8 0 1 1 912.8,350.93Z" style="fill:#FF7AB4" />
<path d="M916.07,340.9A8,8 0 1 1 900.07,340.9A8,8 0 1 1 916.07,340.9Z" style="fill:#FF7AB4" />
<path d="M919.35,329.81A8,8 0 1 1 903.35,329.81A8,8 0 1 1 919.35,329.81Z" style="fill:#FF7AB4" />
<path d="M922.63,318.79A8,8 0 1 1 906.63,318.79A8,8 0 1 1 922.63,318.79Z" style="fill:#FF7AB4" />
<path d="M925.9,317.5A8,8 0 1 1 909.9,317.5A8,8 0 1 1 925.9,317.5Z" style="fill:#FF7AB4" />
<path d="M929.18,307.86A8,8 0 1 1 913.18,307.86A8,8 0 1 1 929.18,307.86Z" style="fill:#FF7AB4" />
<path d="M932.45,302.41A8,8 0 1 1 916.45,302.41A8,8 0 1 1 932.45,302.41Z" style="fill:#FF7AB4" />
<path d="M935.73,293.08A8,8 0 1 1 919.73,293.08A8,8 0 1 1 935.73,293.08Z" style="fill:#FF7AB4" />
<path d="M939,289.44A8,8 0 1 1 923,289.44A8,8 0 1 1 939,289.44Z" style="fill:#FF7AB4" />
<path d="M942.28,281.2A8,8 0 1 1 926.28,281.2A8,8 0 1 1 942.28,281.2Z" style="fill:#FF7AB4" />
<path d="M945.55,274.48A8,8 0 1 1 929.55,274.48A8,8 0 1 1 945.55,274.48Z" style="fill:#FF7AB4" />
<path d="M948.83,268.36A8,8 0 1 1 932.83,268.36A8,8 0 1 1 948.83,268.36Z" style="fill:#FF7AB4" />
<path d="M952.1,264.03A8,8 0 1 1 936.1,264.03A8,8 0 1 1 952.1,264.03Z" style="fill:#FF7AB4" />
<path d="M955.38,254.57A8,8 0 1 1 939.38,254.57A8,8 0 1 1 955.38,254.57Z" style="fill:#FF7AB4" />
<path d="M958.65,255.32A8,8 0 1 1 942.65,255.32A8,8 0 1 1 958.65,255.32Z" style="fill:#FF7AB4" />
<path d="M961.93,242.59A8,8 0 1 1 945.93,242.59A8,8 0 1 1 961.93,242.59Z" style="fill:#FF7AB4" />
<path d="M965.2,241.39A8,8 0 1 1 949.2,241.39A8,8 0 1 1 965.2,241.39Z" style="fill:#FF7AB4" />
<path d="M968.48,236.4A8,8 0 1 1 952.48,236.4A8,8 0 1 1 968.48,236.4Z" style="fill:#FF7AB4" />
<path d="M971.75,233.7A8,8 0 1 1 955.75,233.7A8,8 0 1 1 971.75,233.7Z" style="fill:#FF7AB4" />
<path d="M975.03,228.63A8,8 0 1 1 959.03,228.63A8,8 0 1 1 975.03,228.63Z" style="fill:#FF7AB4" />
<path d="M978.3,223.21A8,8 0 1 1 962.3,223.21A8,8 0 1 1 978.3,223.21Z" style="fill:#FF7AB4" />
<path d="M981.58,220.08A8,8 0 1 1 965.58,220.08A8,8 0 1 1 981.58,220.08Z" style="fill:#FF7AB4" />
<path d="M984.85,218.33A8,8 0 1 1 968.85,218.33A8,8 0 1 1 984.85,218.33Z" style="fill:#FF7AB4" />
<path d="M988.13,213.62A8,8 0 1 1 972.13,213.62A8,8 0 1 1 988.13,213.62Z" style="fill:#FF7AB4" />
<path d="M991.4,207.29A8,8 0 1 1 975.4,207.29A8,8 0 1 1 991.4,207.29Z" style="fill:#FF7AB4" />
<path d="M994.68,207.04A8,8 0 1 1 978.68,207.04A8,8 0 1 1 994.68,207.04Z" style="fill:#FF7AB4" />
<path d="M997.96,203A8,8 0 1 1 981.96,203A8,8 0 1 1 997.96,203Z" style="fill:#FF7AB4" />
<path d="M1001.2,201.59A8,8 0 1 1 985.23,201.59A8,8 0 1 1 1001.2,201.59Z" style="fill:#FF7AB4" />
<path d="M1004.5,197.41A8,8 0 1 1 988.51,197.41A8,8 0 1 1 1004.5,197.41Z" style="fill:#FF7AB4" />
<path d="M1007.8,194.48A8,8 0 1 1 991.78,194.48A8,8 0 1 1 1007.8,194.48Z" style="fill:#FF7AB4" />
<path d="M1011.1,192.23A8,8 0 1 1 995.06,192.23A8,8 0 1 1 1011.1,192.23Z" style="fill:#FF7AB4" />
<path d="M1014.3,189.91A8,8 0 1 1 998.33,189.91A8,8 0 1 1 1014.3,189.91Z" style="fill:#FF7AB4" />
<path d="M1017.6,184.65A8,8 0 1 1 1001.6,184.65A8,8 0 1 1 1017.6,184.65Z" style="fill:#FF7AB4" />
<path d="M1020.9,184.61A8,8 0 1 1 1004.9,184.61A8,8 0 1 1 1020.9,184.61Z" style="fill:#FF7AB4" />
<path d="M1024.2,180.48A8,8 0 1 1 1008.2,180.48A8,8 0 1 1 1024.2,180.48Z" style="fill:#FF7AB4" />
<path d="M1027.4,178.8A8,8 0 1 1 1011.4,178.8A8,8 0 1 1 1027.4,178.8Z" style="fill:#FF7AB4" />
<path d="M1030.7,177.81A8,8 0 1 1 1014.7,177.81A8,8 0 1 1 1030.7,177.81Z" style="fill:#FF7AB4" />
<path d="M1034,174.24A8,8 0 1 1 1018,174.24A8,8 0 1 1 1034,174.24Z" style="fill:#FF7AB4" />
<path d="M1037.3,172.14A8,8 0 1 1 1021.3,172.14A8,8 0 1 1 1037.3,172.14Z" style="fill:#FF7AB4" />
<path d="M1040.5,168.83A8,8 0 1 1 1024.5,168.83A8,8 0 1 1 1040.5,168.83Z" style="fill:#FF7AB4" />
<path d="M1043.8,169.68A8,8 0 1 1 1027.8,169.68A8,8 0 1 1 1043.8,169.68Z" style="fill:#FF7AB4" />
<path d="M1047.1,164.61A8,8 0 1 1 1031.1,164.61A8,8 0 1 1 1047.1,164.61Z" style="fill:#FF7AB4" />
<path d="M1050.4,166.17A8,8 0 1 1 1034.4,166.17A8,8 0 1 1 1050.4,166.17Z" style="fill:#FF7AB4" />
<path d="M1053.6,161.25A8,8 0 1 1 1037.6,161.25A8,8 0 1 1 1053.6,161.25Z" style="fill:#FF7AB4" />
<path d="M1056.9,160.25A8,8 0 1 1 1040.9,160.25A8,8 0 1 1 1056.9,160.25Z" style="fill:#FF7AB4" />
<path d="M1060.2,160.37A8,8 0 1 1 1044.2,160.37A8,8 0 1 1 1060.2,160.37Z" style="fill:#FF7AB4" />
<path d="M1063.5,160.14A8,8 0 1 1 1047.5,160.14A8,8 0 1 1 1063.5,160.14Z" style="fill:#FF7AB4" />
<path d="M1066.7,158.25A8,8 0 1 1 1050.7,158.25A8,8 0 1 1 1066.7,158.25Z" style="fill:#FF7AB4" />
<path d="M1070,156.84A8,8 0 1 1 1054,156.84A8,8 0 1 1 1070,156.84Z" style="fill:#FF7AB4" />
<path d="M1073.3,155.78A8,8 0 1 1 1057.3,155.78A8,8 0 1 1 1073.3,155.78Z" style="fill:#FF7AB4" />
<path d="M1076.6,150.31A8,8 0 1 1 1060.6,150.31A8,8 0 1 1 1076.6,150.31Z" style="fill:#FF7AB4" />
<path d="M1079.8,149.72A8,8 0 1 1 1063.8,149.72A8,8 0 1 1 1079.8,149.72Z" style="fill:#FF7AB4" />
<path d="M1083.1,149.91A8,8 0 1 1 1067.1,149.91A8,8 0 1 1 1083.1,149.91Z" style="fill:#FF7AB4" />
<path d="M1086.4,148.05A8,8 0 1 1 1070.4,148.05A8,8 0 1 1 1086.4,148.05Z" style="fill:#FF7AB4" />
<path d="M1089.7,148.11A8,8 0 1 1 1073.7,148.11A8,8 0 1 1 1089.7,148.11Z" style="fill:#FF7AB4" />
<path d="M1092.9,146.14A8,8 0 1 1 1076.9,146.14A8,8 0 1 1 1092.9,146.14Z" style="fill:#FF7AB4" />
<path d="M1096.2,146.15A8,8 0 1 1 1080.2,146.15A8,8 0 1 1 1096.2,146.15Z" style="fill:#FF7AB4" />
<path d="M1099.5,142.92A8,8 0 1 1 1083.5,142.92A8,8 0 1 1 1099.5,142.92Z" style="fill:#FF7AB4" />
<path d="M1102.8,142.37A8,8 0 1 1 1086.8,142.37A8,8 0 1 1 1102.8,142.37Z" style="fill:#FF7AB4" />
<path d="M1106,141.82A8,8 0 1 1 1090,141.82A8,8 0 1 1 1106,141.82Z" style="fill:#FF7AB4" />
<path d="M1109.3,140.51A8,8 0 1 1 1093.3,140.51A8,8 0 1 1 1109.3,140.51Z" style="fill:#FF7AB4" />
<path d="M1112.6,139.91A8,8 0 1 1 1096.6,139.91A8,8 0 1 1 1112.6,139.91Z" style="fill:#FF7AB4" />
<path d="M1115.9,139.18A8,8 0 1 1 1099.9,139.18A8,8 0 1 1 1115.9,139.18Z" style="fill:#FF7AB4" />
<path d="M1119.1,138.75A8,8 0 1 1 1103.1,138.75A8,8 0 1 1 1119.1,138.75Z" style="fill:#FF7AB4" />
<path d="M1122.4,137.81A8,8 0 1 1 1106.4,137.81A8,8 0 1 1 1122.4,137.81Z" style="fill:#FF7AB4" />
<path d="M1125.7,136.39A8,8 0 1 1 1109.7,136.39A8,8 0 1 1 1125.7,136.39Z" style="fill:#FF7AB4" />
<path d="M1129,136.4A8,8 0 1 1 1113,136.4A8,8 0 1 1 1129,136.4Z" style="fill:#FF7AB4" />
<path d="M1132.2,134.2A8,8 0 1 1 1116.2,134.2A8,8 0 1 1 1132.2,134.2Z" style="fill:#FF7AB4" />
<path d="M1135.5,133.43A8,8 0 1 1 1119.5,133.43A8,8 0 1 1 1135.5,133.43Z" style="fill:#FF7AB4" />
<path d="M1138.8,133.13A8,8 0 1 1 1122.8,133.13A8,8 0 1 1 1138.8,133.13Z" style="fill:#FF7AB4" />
<path d="M1142.1,132.79A8,8 0 1 1 1126.1,132.79A8,8 0 1 1 1142.1,132.79Z" style="fill:#FF7AB4" />
<path d="M1145.3,130.87A8,8 0 1 1 1129.3,130.87A8,8 0 1 1 1145.3,130.87Z" style="fill:#FF7AB4" />
<path d="M1148.6,132.37A8,8 0 1 1 1132.6,132.37A8,8 0 1 1 1148.6,132.37Z" style="fill:#FF7AB4" />
<path d="M1151.9,132.15A8,8 0 1 1 1135.9,132.15A8,8 0 1 1 1151.9,132.15Z" style="fill:#FF7AB4" />
<path d="M1155.2,131A8,8 0 1 1 1139.2,131A8,8 0 1 1 1155.2,131Z" style="fill:#FF7AB4" />
<path d="M1158.4,130.66A8,8 0 1 1 1142.4,130.66A8,8 0 1 1 1158.4,130.66Z" style="fill:#FF7AB4" />
<path d="M1161.7,131.46A8,8 0 1 1 1145.7,131.46A8,8 0 1 1 1161.7,131.46Z" style="fill:#FF7AB4" />
<path d="M1165,128.86A8,8 0 1 1 1149,128.86A8,8 0 1 1 1165,128.86Z" style="fill:#FF7AB4" />
<path d="M1168.3,126.9A8,8 0 1 1 1152.3,126.9A8,8 0 1 1 1168.3,126.9Z" style="fill:#FF7AB4" />
<path d="M1171.5,128.25A8,8 0 1 1 1155.5,128.25A8,8 0 1 1 1171.5,128.25Z" style="fill:#FF7AB4" />
<path d="M1174.8,127.03A8,8 0 1 1 1158.8,127.03A8,8 0 1 1 1174.8,127.03Z" style="fill:#FF7AB4" />
<path d="M1178.1,127.12A8,8 0 1 1 1162.1,127.12A8,8 0 1 1 1178.1,127.12Z" style="fill:#FF7AB4" />
<path d="M1181.4,127.01A8,8 0 1 1 1165.4,127.01A8,8 0 1 1 1181.4,127.01Z" style="fill:#FF7AB4" />
<path d="M1184.6,123.68A8,8 0 1 1 1168.6,123.68A8,8 0 1 1 1184.6,123.68Z" style="fill:#FF7AB4" />
<path d="M1187.9,124.98A8,8 0 1 1 1171.9,124.98A8,8 0 1 1 1187.9,124.98Z" style="fill:#FF7AB4" />
<path d="M1191.2,124.32A8,8 0 1 1 1175.2,124.32A8,8 0 1 1 1191.2,124.32Z" style="fill:#FF7AB4" />
<path d="M1194.5,124.99A8,8 0 1 1 1178.5,124.99A8,8 0 1 1 1194.5,124.99Z" style="fill:#FF7AB4" />
<path d="M1197.7,122.48A8,8 0 1 1 1181.7,122.48A8,8 0 1 1 1197.7,122.48Z" style="fill:#FF7AB4" />
<path d="M1201,121.91A8,8 0 1 1 1185,121.91A8,8 0 1 1 1201,121.91Z" style="fill:#FF7AB4" />
<path d="M1204.3,122.89A8,8 0 1 1 1188.3,122.89A8,8 0 1 1 1204.3,122.89Z" style="fill:#FF7AB4" />
<path d="M1207.6,122.51A8,8 0 1 1 1191.6,122.51A8,8 0 1 1 1207.6,122.51Z" style="fill:#FF7AB4" />
<path d="M1210.8,121.1A8,8 0 1 1 1194.8,121.1A8,8 0 1 1 1210.8,121.1Z" style="fill:#FF7AB4" />
<path d="M1214.1,121.82A8,8 0 1 1 1198.1,121.82A8,8 0 1 1 1214.1,121.82Z" style="fill:#FF7AB4" />
<path d="M1217.4,121.68A8,8 0 1 1 1201.4,121.68A8,8 0 1 1 1217.4,121.68Z" style="fill:#FF7AB4" />
<path d="M1220.7,121.5A8,8 0 1 1 1204.7,121.5A8,8 0 1 1 1220.7,121.5Z" style="fill:#FF7AB4" />
<path d="M1223.9,119.53A8,8 0 1 1 1207.9,119.53A8,8 0 1 1 1223.9,119.53Z" style="fill:#FF7AB4" />
<path d="M1227.2,119.3A8,8 0 1 1 1211.2,119.3A8,8 0 1 1 1227.2,119.3Z" style="fill:#FF7AB4" />
<path d="M1230.5,117.7A8,8 0 1 1 1214.5,117.7A8,8 0 1 1 1230.5,117.7Z" style="fill:#FF7AB4" />
<path d="M1233.8,118.83A8,8 0 1 1 1217.8,118.83A8,8 0 1 1 1233.8,118.83Z" style="fill:#FF7AB4" />
<path d="M1237,118.29A8,8 0 1 1 1221,118.29A8,8 0 1 1 1237,118.29Z" style="fill:#FF7AB4" />
<path d="M1240.3,117.84A8,8 0 1 1 1224.3,117.84A8,8 0 1 1 1240.3,117.84Z" style="fill:#FF7AB4" />
<path d="M1243.6,117.79A8,8 0 1 1 1227.6,117.79A8,8 0 1 1 1243.6,117.79Z" style="fill:#FF7AB4" />
<path d="M1246.9,119.11A8,8 0 1 1 1230.9,119.11A8,8 0 1 1 1246.9,119.11Z" style="fill:#FF7AB4" />
<path d="M1250.1,118.79A8,8 0 1 1 1234.1,118.79A8,8 0 1 1 1250.1,118.79Z" style="fill:#FF7AB4" />
<path d="M1253.4,117.21A8,8 0 1 1 1237.4,117.21A8,8 0 1 1 1253.4,117.21Z" style="fill:#FF7AB4" />
<path d="M1256.7,116.53A8,8 0 1 1 1240.7,116.53A8,8 0 1 1 1256.7,116.53Z" style="fill:#FF7AB4" />
<path d="M1260,118.22A8,8 0 1 1 1244,118.22A8,8 0 1 1 1260,118.22Z" style="fill:#FF7AB4" />
<path d="M1263.2,116.02A8,8 0 1 1 1247.2,116.02A8,8 0 1 1 1263.2,116.02Z" style="fill:#FF7AB4" />
<path d="M1266.5,115.09A8,8 0 1 1 1250.5,115.09A8,8 0 1 1 1266.5,115.09Z" style="fill:#FF7AB4" />
<path d="M1269.8,114.7A8,8 0 1 1 1253.8,114.7A8,8 0 1 1 1269.8,114.7Z" style="fill:#FF7AB4" />
<path d="M1273.1,115.99A8,8 0 1 1 1257.1,115.99A8,8 0 1 1 1273.1,115.99Z" style="fill:#FF7AB4" />
<path d="M1276.3,114.79A8,8 0 1 1 1260.3,114.79A8,8 0 1 1 1276.3,114.79Z" style="fill:#FF7AB4" />
<path d="M1279.6,114.66A8,8 0 1 1 1263.6,114.66A8,8 0 1 1 1279.6,114.66Z" style="fill:#FF7AB4" />
<path d="M1282.9,114.03A8,8 0 1 1 1266.9,114.03A8,8 0 1 1 1282.9,114.03Z" style="fill:#FF7AB4" />
<path d="M1286.2,115.87A8,8 0 1 1 1270.2,115.87A8,8 0 1 1 1286.2,115.87Z" style="fill:#FF7AB4" />
<path d="M1289.4,114A8,8 0 1 1 1273.4,114A8,8 0 1 1 1289.4,114Z" style="fill:#FF7AB4" />
<path d="M1292.7,113.03A8,8 0 1 1 1276.7,113.03A8,8 0 1 1 1292.7,113.03Z" style="fill:#FF7AB4" />
<path d="M1296,113.69A8,8 0 1 1 1280,113.69A8,8 0 1 1 1296,113.69Z" style="fill:#FF7AB4" />
<path d="M112.2,1019.1L1288,1019.1" style="fill:none;stroke:#000000;stroke-width:2.5" />
<path d="M1288,87.824L1288,1019.1" style="fill:none;stroke:#000000;stroke-width:2.5" />
<path d="M1229,964.69A8,8 0 1 1 1213,964.69A8,8 0 1 1 1229,964.69Z" style="fill:#FF7AB4" />
<text x="1002.6" y="-957.62" transform="scale(1, -1)"
	style="font-family:Liberation Sans;font-variant:normal;font-weight:normal;font-style:normal;font-size:30px">1 mm UHNA3</text>
</g>
</svg>
