<?xml version="1.0"?>
<!-- Generated by SVGo and Plotinum VG -->
<svg width="1080pt" height="1080pt" viewBox="0 0 1080 1080"
	xmlns="http://www.w3.org/2000/svg"
	xmlns:xlink="http://www.w3.org/1999/xlink">
<g transform="scale(1, -1) translate(0, -1080)">
<path d="M0,0L1080,0L1080,1080L0,1080Z" style="fill:#-8000000000000000-8000000000000000-8000000000000000;fill-opacity:0" />
<text x="533.05" y="-1039.5" transform="scale(1, -1)"
	style="font-family:Helvetica;font-weight:normal;font-style:normal;font-size:50px"> </text>
<text x="442.52" y="-11.039" transform="scale(1, -1)"
	style="font-family:Helvetica;font-weight:normal;font-style:normal;font-size:36px">Frequency (GHz)</text>
<text x="96.11" y="-71.258" transform="scale(1, -1)"
	style="font-family:Helvetica;font-weight:normal;font-style:normal;font-size:36px">2</text>
<text x="270.87" y="-71.258" transform="scale(1, -1)"
	style="font-family:Helvetica;font-weight:normal;font-style:normal;font-size:36px">2.1</text>
<text x="460.64" y="-71.258" transform="scale(1, -1)"
	style="font-family:Helvetica;font-weight:normal;font-style:normal;font-size:36px">2.2</text>
<text x="650.41" y="-71.258" transform="scale(1, -1)"
	style="font-family:Helvetica;font-weight:normal;font-style:normal;font-size:36px">2.3</text>
<text x="840.18" y="-71.258" transform="scale(1, -1)"
	style="font-family:Helvetica;font-weight:normal;font-style:normal;font-size:36px">2.4</text>
<text x="1030" y="-71.258" transform="scale(1, -1)"
	style="font-family:Helvetica;font-weight:normal;font-style:normal;font-size:36px">2.5</text>
<path d="M106.12,116.44L106.12,108.44" style="fill:none;stroke:#000000;stroke-width:1.5" />
<path d="M201.01,112.44L201.01,108.44" style="fill:none;stroke:#000000;stroke-width:1.5" />
<path d="M295.89,116.44L295.89,108.44" style="fill:none;stroke:#000000;stroke-width:1.5" />
<path d="M390.78,112.44L390.78,108.44" style="fill:none;stroke:#000000;stroke-width:1.5" />
<path d="M485.66,116.44L485.66,108.44" style="fill:none;stroke:#000000;stroke-width:1.5" />
<path d="M580.55,112.44L580.55,108.44" style="fill:none;stroke:#000000;stroke-width:1.5" />
<path d="M675.43,116.44L675.43,108.44" style="fill:none;stroke:#000000;stroke-width:1.5" />
<path d="M770.32,112.44L770.32,108.44" style="fill:none;stroke:#000000;stroke-width:1.5" />
<path d="M865.21,116.44L865.21,108.44" style="fill:none;stroke:#000000;stroke-width:1.5" />
<path d="M960.09,112.44L960.09,108.44" style="fill:none;stroke:#000000;stroke-width:1.5" />
<path d="M1055,116.44L1055,108.44" style="fill:none;stroke:#000000;stroke-width:1.5" />
<path d="M106.12,108.44L1055,108.44" style="fill:none;stroke:#000000;stroke-width:1.5" />
<g transform="rotate(90)">
<text x="363.52" y="29.18" transform="scale(1, -1)"
	style="font-family:Helvetica;font-weight:normal;font-style:normal;font-size:36px">Spectral Density (uV)</text>
</g>
<text x="67.848" y="-122.94" transform="scale(1, -1)"
	style="font-family:Helvetica;font-weight:normal;font-style:normal;font-size:36px">0</text>
<text x="67.848" y="-399.88" transform="scale(1, -1)"
	style="font-family:Helvetica;font-weight:normal;font-style:normal;font-size:36px">1</text>
<text x="67.848" y="-676.83" transform="scale(1, -1)"
	style="font-family:Helvetica;font-weight:normal;font-style:normal;font-size:36px">2</text>
<text x="67.848" y="-953.77" transform="scale(1, -1)"
	style="font-family:Helvetica;font-weight:normal;font-style:normal;font-size:36px">3</text>
<path d="M113.87,132.01L105.87,132.01" style="fill:none;stroke:#000000;stroke-width:1.5" />
<path d="M109.87,270.48L105.87,270.48" style="fill:none;stroke:#000000;stroke-width:1.5" />
<path d="M113.87,408.95L105.87,408.95" style="fill:none;stroke:#000000;stroke-width:1.5" />
<path d="M109.87,547.42L105.87,547.42" style="fill:none;stroke:#000000;stroke-width:1.5" />
<path d="M113.87,685.9L105.87,685.9" style="fill:none;stroke:#000000;stroke-width:1.5" />
<path d="M109.87,824.37L105.87,824.37" style="fill:none;stroke:#000000;stroke-width:1.5" />
<path d="M113.87,962.84L105.87,962.84" style="fill:none;stroke:#000000;stroke-width:1.5" />
<path d="M105.87,104.32L105.87,962.84" style="fill:none;stroke:#000000;stroke-width:1.5" />
<path d="M113.87,127.44A3,3 0 1 1 107.87,127.44A3,3 0 1 1 113.87,127.44Z" style="fill:#1FD3AC" />
<path d="M123.35,130.32A3,3 0 1 1 117.35,130.32A3,3 0 1 1 123.35,130.32Z" style="fill:#1FD3AC" />
<path d="M132.84,127.03A3,3 0 1 1 126.84,127.03A3,3 0 1 1 132.84,127.03Z" style="fill:#1FD3AC" />
<path d="M142.33,128.81A3,3 0 1 1 136.33,128.81A3,3 0 1 1 142.33,128.81Z" style="fill:#1FD3AC" />
<path d="M151.82,125.58A3,3 0 1 1 145.82,125.58A3,3 0 1 1 151.82,125.58Z" style="fill:#1FD3AC" />
<path d="M161.31,124.36A3,3 0 1 1 155.31,124.36A3,3 0 1 1 161.31,124.36Z" style="fill:#1FD3AC" />
<path d="M170.8,129.79A3,3 0 1 1 164.8,129.79A3,3 0 1 1 170.8,129.79Z" style="fill:#1FD3AC" />
<path d="M180.29,128.31A3,3 0 1 1 174.29,128.31A3,3 0 1 1 180.29,128.31Z" style="fill:#1FD3AC" />
<path d="M189.77,133.16A3,3 0 1 1 183.77,133.16A3,3 0 1 1 189.77,133.16Z" style="fill:#1FD3AC" />
<path d="M199.26,132.26A3,3 0 1 1 193.26,132.26A3,3 0 1 1 199.26,132.26Z" style="fill:#1FD3AC" />
<path d="M208.75,133.26A3,3 0 1 1 202.75,133.26A3,3 0 1 1 208.75,133.26Z" style="fill:#1FD3AC" />
<path d="M218.24,131.97A3,3 0 1 1 212.24,131.97A3,3 0 1 1 218.24,131.97Z" style="fill:#1FD3AC" />
<path d="M227.73,137.01A3,3 0 1 1 221.73,137.01A3,3 0 1 1 227.73,137.01Z" style="fill:#1FD3AC" />
<path d="M237.22,140.37A3,3 0 1 1 231.22,140.37A3,3 0 1 1 237.22,140.37Z" style="fill:#1FD3AC" />
<path d="M246.71,136.11A3,3 0 1 1 240.71,136.11A3,3 0 1 1 246.71,136.11Z" style="fill:#1FD3AC" />
<path d="M256.19,142.19A3,3 0 1 1 250.19,142.19A3,3 0 1 1 256.19,142.19Z" style="fill:#1FD3AC" />
<path d="M265.68,147.46A3,3 0 1 1 259.68,147.46A3,3 0 1 1 265.68,147.46Z" style="fill:#1FD3AC" />
<path d="M275.17,150.16A3,3 0 1 1 269.17,150.16A3,3 0 1 1 275.17,150.16Z" style="fill:#1FD3AC" />
<path d="M284.66,154.44A3,3 0 1 1 278.66,154.44A3,3 0 1 1 284.66,154.44Z" style="fill:#1FD3AC" />
<path d="M294.15,155.33A3,3 0 1 1 288.15,155.33A3,3 0 1 1 294.15,155.33Z" style="fill:#1FD3AC" />
<path d="M303.64,155.89A3,3 0 1 1 297.64,155.89A3,3 0 1 1 303.64,155.89Z" style="fill:#1FD3AC" />
<path d="M313.13,162.41A3,3 0 1 1 307.13,162.41A3,3 0 1 1 313.13,162.41Z" style="fill:#1FD3AC" />
<path d="M322.61,166.6A3,3 0 1 1 316.61,166.6A3,3 0 1 1 322.61,166.6Z" style="fill:#1FD3AC" />
<path d="M332.1,173.63A3,3 0 1 1 326.1,173.63A3,3 0 1 1 332.1,173.63Z" style="fill:#1FD3AC" />
<path d="M341.59,178.44A3,3 0 1 1 335.59,178.44A3,3 0 1 1 341.59,178.44Z" style="fill:#1FD3AC" />
<path d="M351.08,184.59A3,3 0 1 1 345.08,184.59A3,3 0 1 1 351.08,184.59Z" style="fill:#1FD3AC" />
<path d="M360.57,183.35A3,3 0 1 1 354.57,183.35A3,3 0 1 1 360.57,183.35Z" style="fill:#1FD3AC" />
<path d="M370.06,191.68A3,3 0 1 1 364.06,191.68A3,3 0 1 1 370.06,191.68Z" style="fill:#1FD3AC" />
<path d="M379.55,200.98A3,3 0 1 1 373.55,200.98A3,3 0 1 1 379.55,200.98Z" style="fill:#1FD3AC" />
<path d="M389.03,208.13A3,3 0 1 1 383.03,208.13A3,3 0 1 1 389.03,208.13Z" style="fill:#1FD3AC" />
<path d="M398.52,205.58A3,3 0 1 1 392.52,205.58A3,3 0 1 1 398.52,205.58Z" style="fill:#1FD3AC" />
<path d="M408.01,229.14A3,3 0 1 1 402.01,229.14A3,3 0 1 1 408.01,229.14Z" style="fill:#1FD3AC" />
<path d="M417.5,228.65A3,3 0 1 1 411.5,228.65A3,3 0 1 1 417.5,228.65Z" style="fill:#1FD3AC" />
<path d="M426.99,245.13A3,3 0 1 1 420.99,245.13A3,3 0 1 1 426.99,245.13Z" style="fill:#1FD3AC" />
<path d="M436.48,246.02A3,3 0 1 1 430.48,246.02A3,3 0 1 1 436.48,246.02Z" style="fill:#1FD3AC" />
<path d="M445.97,262.08A3,3 0 1 1 439.97,262.08A3,3 0 1 1 445.97,262.08Z" style="fill:#1FD3AC" />
<path d="M455.45,275.85A3,3 0 1 1 449.45,275.85A3,3 0 1 1 455.45,275.85Z" style="fill:#1FD3AC" />
<path d="M464.94,290.5A3,3 0 1 1 458.94,290.5A3,3 0 1 1 464.94,290.5Z" style="fill:#1FD3AC" />
<path d="M474.43,303.19A3,3 0 1 1 468.43,303.19A3,3 0 1 1 474.43,303.19Z" style="fill:#1FD3AC" />
<path d="M483.92,323.32A3,3 0 1 1 477.92,323.32A3,3 0 1 1 483.92,323.32Z" style="fill:#1FD3AC" />
<path d="M493.41,349.46A3,3 0 1 1 487.41,349.46A3,3 0 1 1 493.41,349.46Z" style="fill:#1FD3AC" />
<path d="M502.9,374.74A3,3 0 1 1 496.9,374.74A3,3 0 1 1 502.9,374.74Z" style="fill:#1FD3AC" />
<path d="M512.39,403.08A3,3 0 1 1 506.39,403.08A3,3 0 1 1 512.39,403.08Z" style="fill:#1FD3AC" />
<path d="M521.87,433.43A3,3 0 1 1 515.87,433.43A3,3 0 1 1 521.87,433.43Z" style="fill:#1FD3AC" />
<path d="M531.36,473.36A3,3 0 1 1 525.36,473.36A3,3 0 1 1 531.36,473.36Z" style="fill:#1FD3AC" />
<path d="M540.85,508.26A3,3 0 1 1 534.85,508.26A3,3 0 1 1 540.85,508.26Z" style="fill:#1FD3AC" />
<path d="M550.34,562.1A3,3 0 1 1 544.34,562.1A3,3 0 1 1 550.34,562.1Z" style="fill:#1FD3AC" />
<path d="M559.83,600.37A3,3 0 1 1 553.83,600.37A3,3 0 1 1 559.83,600.37Z" style="fill:#1FD3AC" />
<path d="M569.32,654.28A3,3 0 1 1 563.32,654.28A3,3 0 1 1 569.32,654.28Z" style="fill:#1FD3AC" />
<path d="M578.81,706.06A3,3 0 1 1 572.81,706.06A3,3 0 1 1 578.81,706.06Z" style="fill:#1FD3AC" />
<path d="M588.29,747.4A3,3 0 1 1 582.29,747.4A3,3 0 1 1 588.29,747.4Z" style="fill:#1FD3AC" />
<path d="M597.78,790.24A3,3 0 1 1 591.78,790.24A3,3 0 1 1 597.78,790.24Z" style="fill:#1FD3AC" />
<path d="M607.27,810.52A3,3 0 1 1 601.27,810.52A3,3 0 1 1 607.27,810.52Z" style="fill:#1FD3AC" />
<path d="M616.76,808.51A3,3 0 1 1 610.76,808.51A3,3 0 1 1 616.76,808.51Z" style="fill:#1FD3AC" />
<path d="M626.25,813.28A3,3 0 1 1 620.25,813.28A3,3 0 1 1 626.25,813.28Z" style="fill:#1FD3AC" />
<path d="M635.74,794.07A3,3 0 1 1 629.74,794.07A3,3 0 1 1 635.74,794.07Z" style="fill:#1FD3AC" />
<path d="M645.22,754.64A3,3 0 1 1 639.22,754.64A3,3 0 1 1 645.22,754.64Z" style="fill:#1FD3AC" />
<path d="M654.71,726.15A3,3 0 1 1 648.71,726.15A3,3 0 1 1 654.71,726.15Z" style="fill:#1FD3AC" />
<path d="M664.2,681.23A3,3 0 1 1 658.2,681.23A3,3 0 1 1 664.2,681.23Z" style="fill:#1FD3AC" />
<path d="M673.69,632.37A3,3 0 1 1 667.69,632.37A3,3 0 1 1 673.69,632.37Z" style="fill:#1FD3AC" />
<path d="M683.18,585.05A3,3 0 1 1 677.18,585.05A3,3 0 1 1 683.18,585.05Z" style="fill:#1FD3AC" />
<path d="M692.67,535.39A3,3 0 1 1 686.67,535.39A3,3 0 1 1 692.67,535.39Z" style="fill:#1FD3AC" />
<path d="M702.16,503.61A3,3 0 1 1 696.16,503.61A3,3 0 1 1 702.16,503.61Z" style="fill:#1FD3AC" />
<path d="M711.64,453.68A3,3 0 1 1 705.64,453.68A3,3 0 1 1 711.64,453.68Z" style="fill:#1FD3AC" />
<path d="M721.13,417.16A3,3 0 1 1 715.13,417.16A3,3 0 1 1 721.13,417.16Z" style="fill:#1FD3AC" />
<path d="M730.62,387.58A3,3 0 1 1 724.62,387.58A3,3 0 1 1 730.62,387.58Z" style="fill:#1FD3AC" />
<path d="M740.11,352.66A3,3 0 1 1 734.11,352.66A3,3 0 1 1 740.11,352.66Z" style="fill:#1FD3AC" />
<path d="M749.6,335.65A3,3 0 1 1 743.6,335.65A3,3 0 1 1 749.6,335.65Z" style="fill:#1FD3AC" />
<path d="M759.09,306.44A3,3 0 1 1 753.09,306.44A3,3 0 1 1 759.09,306.44Z" style="fill:#1FD3AC" />
<path d="M768.58,298.65A3,3 0 1 1 762.58,298.65A3,3 0 1 1 768.58,298.65Z" style="fill:#1FD3AC" />
<path d="M778.06,270.3A3,3 0 1 1 772.06,270.3A3,3 0 1 1 778.06,270.3Z" style="fill:#1FD3AC" />
<path d="M787.55,258.64A3,3 0 1 1 781.55,258.64A3,3 0 1 1 787.55,258.64Z" style="fill:#1FD3AC" />
<path d="M797.04,251.77A3,3 0 1 1 791.04,251.77A3,3 0 1 1 797.04,251.77Z" style="fill:#1FD3AC" />
<path d="M806.53,233A3,3 0 1 1 800.53,233A3,3 0 1 1 806.53,233Z" style="fill:#1FD3AC" />
<path d="M816.02,222.14A3,3 0 1 1 810.02,222.14A3,3 0 1 1 816.02,222.14Z" style="fill:#1FD3AC" />
<path d="M825.51,212.97A3,3 0 1 1 819.51,212.97A3,3 0 1 1 825.51,212.97Z" style="fill:#1FD3AC" />
<path d="M835,203.23A3,3 0 1 1 829,203.23A3,3 0 1 1 835,203.23Z" style="fill:#1FD3AC" />
<path d="M844.48,202.05A3,3 0 1 1 838.48,202.05A3,3 0 1 1 844.48,202.05Z" style="fill:#1FD3AC" />
<path d="M853.97,187.67A3,3 0 1 1 847.97,187.67A3,3 0 1 1 853.97,187.67Z" style="fill:#1FD3AC" />
<path d="M863.46,181.89A3,3 0 1 1 857.46,181.89A3,3 0 1 1 863.46,181.89Z" style="fill:#1FD3AC" />
<path d="M872.95,179.05A3,3 0 1 1 866.95,179.05A3,3 0 1 1 872.95,179.05Z" style="fill:#1FD3AC" />
<path d="M882.44,172.07A3,3 0 1 1 876.44,172.07A3,3 0 1 1 882.44,172.07Z" style="fill:#1FD3AC" />
<path d="M891.93,168.67A3,3 0 1 1 885.93,168.67A3,3 0 1 1 891.93,168.67Z" style="fill:#1FD3AC" />
<path d="M901.42,163.41A3,3 0 1 1 895.42,163.41A3,3 0 1 1 901.42,163.41Z" style="fill:#1FD3AC" />
<path d="M910.9,161.32A3,3 0 1 1 904.9,161.32A3,3 0 1 1 910.9,161.32Z" style="fill:#1FD3AC" />
<path d="M920.39,160.12A3,3 0 1 1 914.39,160.12A3,3 0 1 1 920.39,160.12Z" style="fill:#1FD3AC" />
<path d="M929.88,149.16A3,3 0 1 1 923.88,149.16A3,3 0 1 1 929.88,149.16Z" style="fill:#1FD3AC" />
<path d="M939.37,147.48A3,3 0 1 1 933.37,147.48A3,3 0 1 1 939.37,147.48Z" style="fill:#1FD3AC" />
<path d="M948.86,149.12A3,3 0 1 1 942.86,149.12A3,3 0 1 1 948.86,149.12Z" style="fill:#1FD3AC" />
<path d="M958.35,136.34A3,3 0 1 1 952.35,136.34A3,3 0 1 1 958.35,136.34Z" style="fill:#1FD3AC" />
<path d="M967.84,146.93A3,3 0 1 1 961.84,146.93A3,3 0 1 1 967.84,146.93Z" style="fill:#1FD3AC" />
<path d="M977.32,139.77A3,3 0 1 1 971.32,139.77A3,3 0 1 1 977.32,139.77Z" style="fill:#1FD3AC" />
<path d="M986.81,143.57A3,3 0 1 1 980.81,143.57A3,3 0 1 1 986.81,143.57Z" style="fill:#1FD3AC" />
<path d="M996.3,133.06A3,3 0 1 1 990.3,133.06A3,3 0 1 1 996.3,133.06Z" style="fill:#1FD3AC" />
<path d="M1005.8,133.5A3,3 0 1 1 999.79,133.5A3,3 0 1 1 1005.8,133.5Z" style="fill:#1FD3AC" />
<path d="M1015.3,124.43A3,3 0 1 1 1009.3,124.43A3,3 0 1 1 1015.3,124.43Z" style="fill:#1FD3AC" />
<path d="M1024.8,131.93A3,3 0 1 1 1018.8,131.93A3,3 0 1 1 1024.8,131.93Z" style="fill:#1FD3AC" />
<path d="M1034.3,125.21A3,3 0 1 1 1028.3,125.21A3,3 0 1 1 1034.3,125.21Z" style="fill:#1FD3AC" />
<path d="M1043.7,129.85A3,3 0 1 1 1037.7,129.85A3,3 0 1 1 1043.7,129.85Z" style="fill:#1FD3AC" />
<path d="M1053.2,126.94A3,3 0 1 1 1047.2,126.94A3,3 0 1 1 1053.2,126.94Z" style="fill:#1FD3AC" />
<path d="M106.12,962.84L1055,962.84" style="fill:none;stroke:#000000" />
<path d="M1055,104.32L1055,962.84" style="fill:none;stroke:#000000" />
<path d="M110.87,149.76L112.76,149.89L114.66,150.02L116.56,150.15L118.46,150.29L120.35,150.42L122.25,150.56L124.15,150.7L126.05,150.84L127.94,150.99L129.84,151.13L131.74,151.28L133.64,151.42L135.54,151.57L137.43,151.72L139.33,151.88L141.23,152.03L143.13,152.19L145.02,152.35L146.92,152.51L148.82,152.67L150.72,152.83L152.62,153L154.51,153.17L156.41,153.34L158.31,153.51L160.21,153.68L162.1,153.86L164,154.04L165.9,154.22L167.8,154.4L169.69,154.58L171.59,154.77L173.49,154.96L175.39,155.15L177.29,155.35L179.18,155.54L181.08,155.74L182.98,155.94L184.88,156.15L186.77,156.35L188.67,156.56L190.57,156.77L192.47,156.99L194.36,157.21L196.26,157.43L198.16,157.65L200.06,157.88L201.96,158.1L203.85,158.34L205.75,158.57L207.65,158.81L209.55,159.05L211.44,159.3L213.34,159.54L215.24,159.79L217.14,160.05L219.04,160.31L220.93,160.57L222.83,160.83L224.73,161.1L226.63,161.37L228.52,161.65L230.42,161.93L232.32,162.22L234.22,162.5L236.11,162.8L238.01,163.09L239.91,163.39L241.81,163.7L243.71,164.01L245.6,164.32L247.5,164.64L249.4,164.96L251.3,165.29L253.19,165.62L255.09,165.96L256.99,166.3L258.89,166.65L260.78,167L262.68,167.36L264.58,167.72L266.48,168.09L268.38,168.47L270.27,168.85L272.17,169.23L274.07,169.63L275.97,170.03L277.86,170.43L279.76,170.84L281.66,171.26L283.56,171.68L285.45,172.11L287.35,172.55L289.25,173L291.15,173.45L293.05,173.91L294.94,174.38L296.84,174.85L298.74,175.33L300.64,175.82L302.53,176.32L304.43,176.83L306.33,177.35L308.23,177.87L310.13,178.4L312.02,178.95L313.92,179.5L315.82,180.06L317.72,180.63L319.61,181.21L321.51,181.8L323.41,182.41L325.31,183.02L327.2,183.64L329.1,184.28L331,184.92L332.9,185.58L334.8,186.25L336.69,186.93L338.59,187.63L340.49,188.34L342.39,189.06L344.28,189.79L346.18,190.54L348.08,191.3L349.98,192.08L351.87,192.87L353.77,193.68L355.67,194.5L357.57,195.34L359.47,196.19L361.36,197.07L363.26,197.96L365.16,198.86L367.06,199.79L368.95,200.73L370.85,201.69L372.75,202.68L374.65,203.68L376.55,204.7L378.44,205.75L380.34,206.81L382.24,207.9L384.14,209.01L386.03,210.15L387.93,211.31L389.83,212.49L391.73,213.7L393.62,214.94L395.52,216.2L397.42,217.49L399.32,218.81L401.22,220.16L403.11,221.54L405.01,222.95L406.91,224.39L408.81,225.86L410.7,227.37L412.6,228.92L414.5,230.49L416.4,232.11L418.29,233.76L420.19,235.45L422.09,237.19L423.99,238.96L425.89,240.77L427.78,242.63L429.68,244.54L431.58,246.49L433.48,248.49L435.37,250.53L437.27,252.63L439.17,254.78L441.07,256.99L442.97,259.25L444.86,261.57L446.76,263.94L448.66,266.38L450.56,268.88L452.45,271.44L454.35,274.07L456.25,276.77L458.15,279.54L460.04,282.38L461.94,285.3L463.84,288.3L465.74,291.37L467.64,294.53L469.53,297.78L471.43,301.11L473.33,304.53L475.23,308.04L477.12,311.65L479.02,315.36L480.92,319.18L482.82,323.09L484.71,327.12L486.61,331.26L488.51,335.51L490.41,339.88L492.31,344.37L494.2,348.99L496.1,353.74L498,358.62L499.9,363.63L501.79,368.79L503.69,374.09L505.59,379.54L507.49,385.14L509.39,390.89L511.28,396.8L513.18,402.88L515.08,409.12L516.98,415.53L518.87,422.11L520.77,428.87L522.67,435.81L524.57,442.94L526.46,450.24L528.36,457.73L530.26,465.42L532.16,473.29L534.06,481.35L535.95,489.61L537.85,498.06L539.75,506.69L541.65,515.52L543.54,524.53L545.44,533.73L547.34,543.11L549.24,552.66L551.13,562.37L553.03,572.25L554.93,582.27L556.83,592.43L558.73,602.72L560.62,613.12L562.52,623.61L564.42,634.18L566.32,644.8L568.21,655.46L570.11,666.12L572.01,676.77L573.91,687.38L575.81,697.91L577.7,708.33L579.6,718.6L581.5,728.7L583.4,738.58L585.29,748.2L587.19,757.52L589.09,766.5L590.99,775.11L592.88,783.29L594.78,791.01L596.68,798.22L598.58,804.89L600.48,810.98L602.37,816.45L604.27,821.27L606.17,825.42L608.07,828.86L609.96,831.57L611.86,833.54L613.76,834.76L615.66,835.21L617.55,834.9L619.45,833.82L621.35,831.98L623.25,829.39L625.15,826.08L627.04,822.06L628.94,817.36L630.84,812L632.74,806.01L634.63,799.44L636.53,792.33L638.43,784.69L640.33,776.59L642.22,768.06L644.12,759.14L646.02,749.87L647.92,740.3L649.82,730.47L651.71,720.41L653.61,710.16L655.51,699.77L657.41,689.26L659.3,678.66L661.2,668.02L663.1,657.35L665,646.69L666.9,636.06L668.79,625.48L670.69,614.97L672.59,604.56L674.49,594.25L676.38,584.07L678.28,574.02L680.18,564.12L682.08,554.37L683.97,544.79L685.87,535.38L687.77,526.15L689.67,517.11L691.57,508.25L693.46,499.58L695.36,491.1L697.26,482.81L699.16,474.71L701.05,466.8L702.95,459.09L704.85,451.56L706.75,444.22L708.64,437.07L710.54,430.09L712.44,423.3L714.34,416.69L716.24,410.24L718.13,403.97L720.03,397.87L721.93,391.93L723.83,386.15L725.72,380.52L727.62,375.05L729.52,369.72L731.42,364.54L733.32,359.5L735.21,354.59L737.11,349.82L739.01,345.18L740.91,340.67L742.8,336.28L744.7,332L746.6,327.85L748.5,323.8L750.39,319.86L752.29,316.03L754.19,312.31L756.09,308.68L757.99,305.15L759.88,301.71L761.78,298.36L763.68,295.1L765.58,291.93L767.47,288.84L769.37,285.83L771.27,282.9L773.17,280.04L775.06,277.26L776.96,274.55L778.86,271.9L780.76,269.33L782.66,266.82L784.55,264.37L786.45,261.98L788.35,259.66L790.25,257.39L792.14,255.17L794.04,253.01L795.94,250.9L797.84,248.85L799.74,246.84L801.63,244.88L803.53,242.97L805.43,241.1L807.33,239.28L809.22,237.5L811.12,235.76L813.02,234.06L814.92,232.4L816.81,230.78L818.71,229.19L820.61,227.64L822.51,226.13L824.41,224.65L826.3,223.2L828.2,221.79L830.1,220.4L832,219.05L833.89,217.72L835.79,216.43L837.69,215.16L839.59,213.92L841.48,212.71L843.38,211.52L845.28,210.35L847.18,209.21L849.08,208.1L850.97,207.01L852.87,205.94L854.77,204.89L856.67,203.86L858.56,202.85L860.46,201.87L862.36,200.9L864.26,199.95L866.16,199.03L868.05,198.12L869.95,197.22L871.85,196.35L873.75,195.49L875.64,194.65L877.54,193.82L879.44,193.01L881.34,192.22L883.23,191.44L885.13,190.67L887.03,189.92L888.93,189.19L890.83,188.46L892.72,187.75L894.62,187.06L896.52,186.37L898.42,185.7L900.31,185.04L902.21,184.39L904.11,183.75L906.01,183.13L907.9,182.51L909.8,181.91L911.7,181.32L913.6,180.73L915.5,180.16L917.39,179.6L919.29,179.04L921.19,178.5L923.09,177.96L924.98,177.44L926.88,176.92L928.78,176.41L930.68,175.91L932.58,175.42L934.47,174.94L936.37,174.46L938.27,173.99L940.17,173.53L942.06,173.08L943.96,172.63L945.86,172.19L947.76,171.76L949.65,171.33L951.55,170.92L953.45,170.5L955.35,170.1L957.25,169.7L959.14,169.3L961.04,168.92L962.94,168.54L964.84,168.16L966.73,167.79L968.63,167.42L970.53,167.07L972.43,166.71L974.32,166.36L976.22,166.02L978.12,165.68L980.02,165.35L981.92,165.02L983.81,164.7L985.71,164.38L987.61,164.06L989.51,163.75L991.4,163.45L993.3,163.15L995.2,162.85L997.1,162.56L999,162.27L1000.9,161.98L1002.8,161.7L1004.7,161.42L1006.6,161.15L1008.5,160.88L1010.4,160.62L1012.3,160.35L1014.2,160.09L1016.1,159.84L1018,159.59L1019.9,159.34L1021.8,159.09L1023.7,158.85L1025.6,158.61L1027.5,158.38L1029.4,158.15L1031.3,157.92L1033.2,157.69L1035.1,157.47L1036.9,157.25L1038.8,157.03L1040.7,156.81L1042.6,156.6L1044.5,156.39L1046.4,156.18L1048.3,155.98" style="fill:none;stroke:#1BAA8B;stroke-width:3" />
<path d="M534.58,483.61L697.07,483.61" style="fill:none;stroke:#1BAA8B;stroke-width:4;stroke-dasharray:15,5" />
<path d="M113.87,124.9A3,3 0 1 1 107.87,124.9A3,3 0 1 1 113.87,124.9Z" style="fill:#FF7AB4" />
<path d="M123.35,126.58A3,3 0 1 1 117.35,126.58A3,3 0 1 1 123.35,126.58Z" style="fill:#FF7AB4" />
<path d="M132.84,125.15A3,3 0 1 1 126.84,125.15A3,3 0 1 1 132.84,125.15Z" style="fill:#FF7AB4" />
<path d="M142.33,127.99A3,3 0 1 1 136.33,127.99A3,3 0 1 1 142.33,127.99Z" style="fill:#FF7AB4" />
<path d="M151.82,129.21A3,3 0 1 1 145.82,129.21A3,3 0 1 1 151.82,129.21Z" style="fill:#FF7AB4" />
<path d="M161.31,127.9A3,3 0 1 1 155.31,127.9A3,3 0 1 1 161.31,127.9Z" style="fill:#FF7AB4" />
<path d="M170.8,123.64A3,3 0 1 1 164.8,123.64A3,3 0 1 1 170.8,123.64Z" style="fill:#FF7AB4" />
<path d="M180.29,125.36A3,3 0 1 1 174.29,125.36A3,3 0 1 1 180.29,125.36Z" style="fill:#FF7AB4" />
<path d="M189.77,130.7A3,3 0 1 1 183.77,130.7A3,3 0 1 1 189.77,130.7Z" style="fill:#FF7AB4" />
<path d="M199.26,131.7A3,3 0 1 1 193.26,131.7A3,3 0 1 1 199.26,131.7Z" style="fill:#FF7AB4" />
<path d="M208.75,136.12A3,3 0 1 1 202.75,136.12A3,3 0 1 1 208.75,136.12Z" style="fill:#FF7AB4" />
<path d="M218.24,134.21A3,3 0 1 1 212.24,134.21A3,3 0 1 1 218.24,134.21Z" style="fill:#FF7AB4" />
<path d="M227.73,143.15A3,3 0 1 1 221.73,143.15A3,3 0 1 1 227.73,143.15Z" style="fill:#FF7AB4" />
<path d="M237.22,136.93A3,3 0 1 1 231.22,136.93A3,3 0 1 1 237.22,136.93Z" style="fill:#FF7AB4" />
<path d="M246.71,141.4A3,3 0 1 1 240.71,141.4A3,3 0 1 1 246.71,141.4Z" style="fill:#FF7AB4" />
<path d="M256.19,142.39A3,3 0 1 1 250.19,142.39A3,3 0 1 1 256.19,142.39Z" style="fill:#FF7AB4" />
<path d="M265.68,150.68A3,3 0 1 1 259.68,150.68A3,3 0 1 1 265.68,150.68Z" style="fill:#FF7AB4" />
<path d="M275.17,152.32A3,3 0 1 1 269.17,152.32A3,3 0 1 1 275.17,152.32Z" style="fill:#FF7AB4" />
<path d="M284.66,150.5A3,3 0 1 1 278.66,150.5A3,3 0 1 1 284.66,150.5Z" style="fill:#FF7AB4" />
<path d="M294.15,149.98A3,3 0 1 1 288.15,149.98A3,3 0 1 1 294.15,149.98Z" style="fill:#FF7AB4" />
<path d="M303.64,160.19A3,3 0 1 1 297.64,160.19A3,3 0 1 1 303.64,160.19Z" style="fill:#FF7AB4" />
<path d="M313.13,162.6A3,3 0 1 1 307.13,162.6A3,3 0 1 1 313.13,162.6Z" style="fill:#FF7AB4" />
<path d="M322.61,161.91A3,3 0 1 1 316.61,161.91A3,3 0 1 1 322.61,161.91Z" style="fill:#FF7AB4" />
<path d="M332.1,170.19A3,3 0 1 1 326.1,170.19A3,3 0 1 1 332.1,170.19Z" style="fill:#FF7AB4" />
<path d="M341.59,178.19A3,3 0 1 1 335.59,178.19A3,3 0 1 1 341.59,178.19Z" style="fill:#FF7AB4" />
<path d="M351.08,184.4A3,3 0 1 1 345.08,184.4A3,3 0 1 1 351.08,184.4Z" style="fill:#FF7AB4" />
<path d="M360.57,188.19A3,3 0 1 1 354.57,188.19A3,3 0 1 1 360.57,188.19Z" style="fill:#FF7AB4" />
<path d="M370.06,195.85A3,3 0 1 1 364.06,195.85A3,3 0 1 1 370.06,195.85Z" style="fill:#FF7AB4" />
<path d="M379.55,201.46A3,3 0 1 1 373.55,201.46A3,3 0 1 1 379.55,201.46Z" style="fill:#FF7AB4" />
<path d="M389.03,209.5A3,3 0 1 1 383.03,209.5A3,3 0 1 1 389.03,209.5Z" style="fill:#FF7AB4" />
<path d="M398.52,213.31A3,3 0 1 1 392.52,213.31A3,3 0 1 1 398.52,213.31Z" style="fill:#FF7AB4" />
<path d="M408.01,224.84A3,3 0 1 1 402.01,224.84A3,3 0 1 1 408.01,224.84Z" style="fill:#FF7AB4" />
<path d="M417.5,234.74A3,3 0 1 1 411.5,234.74A3,3 0 1 1 417.5,234.74Z" style="fill:#FF7AB4" />
<path d="M426.99,239.23A3,3 0 1 1 420.99,239.23A3,3 0 1 1 426.99,239.23Z" style="fill:#FF7AB4" />
<path d="M436.48,254.66A3,3 0 1 1 430.48,254.66A3,3 0 1 1 436.48,254.66Z" style="fill:#FF7AB4" />
<path d="M445.97,269.32A3,3 0 1 1 439.97,269.32A3,3 0 1 1 445.97,269.32Z" style="fill:#FF7AB4" />
<path d="M455.45,278.46A3,3 0 1 1 449.45,278.46A3,3 0 1 1 455.45,278.46Z" style="fill:#FF7AB4" />
<path d="M464.94,285.59A3,3 0 1 1 458.94,285.59A3,3 0 1 1 464.94,285.59Z" style="fill:#FF7AB4" />
<path d="M474.43,310.12A3,3 0 1 1 468.43,310.12A3,3 0 1 1 474.43,310.12Z" style="fill:#FF7AB4" />
<path d="M483.92,327.36A3,3 0 1 1 477.92,327.36A3,3 0 1 1 483.92,327.36Z" style="fill:#FF7AB4" />
<path d="M493.41,351.2A3,3 0 1 1 487.41,351.2A3,3 0 1 1 493.41,351.2Z" style="fill:#FF7AB4" />
<path d="M502.9,381.62A3,3 0 1 1 496.9,381.62A3,3 0 1 1 502.9,381.62Z" style="fill:#FF7AB4" />
<path d="M512.39,415.58A3,3 0 1 1 506.39,415.58A3,3 0 1 1 512.39,415.58Z" style="fill:#FF7AB4" />
<path d="M521.87,444.44A3,3 0 1 1 515.87,444.44A3,3 0 1 1 521.87,444.44Z" style="fill:#FF7AB4" />
<path d="M531.36,479.35A3,3 0 1 1 525.36,479.35A3,3 0 1 1 531.36,479.35Z" style="fill:#FF7AB4" />
<path d="M540.85,526.6A3,3 0 1 1 534.85,526.6A3,3 0 1 1 540.85,526.6Z" style="fill:#FF7AB4" />
<path d="M550.34,568.75A3,3 0 1 1 544.34,568.75A3,3 0 1 1 550.34,568.75Z" style="fill:#FF7AB4" />
<path d="M559.83,618.21A3,3 0 1 1 553.83,618.21A3,3 0 1 1 559.83,618.21Z" style="fill:#FF7AB4" />
<path d="M569.32,670A3,3 0 1 1 563.32,670A3,3 0 1 1 569.32,670Z" style="fill:#FF7AB4" />
<path d="M578.81,715.51A3,3 0 1 1 572.81,715.51A3,3 0 1 1 578.81,715.51Z" style="fill:#FF7AB4" />
<path d="M588.29,766.59A3,3 0 1 1 582.29,766.59A3,3 0 1 1 588.29,766.59Z" style="fill:#FF7AB4" />
<path d="M597.78,799.5A3,3 0 1 1 591.78,799.5A3,3 0 1 1 597.78,799.5Z" style="fill:#FF7AB4" />
<path d="M607.27,813.1A3,3 0 1 1 601.27,813.1A3,3 0 1 1 607.27,813.1Z" style="fill:#FF7AB4" />
<path d="M616.76,833.91A3,3 0 1 1 610.76,833.91A3,3 0 1 1 616.76,833.91Z" style="fill:#FF7AB4" />
<path d="M626.25,815A3,3 0 1 1 620.25,815A3,3 0 1 1 626.25,815Z" style="fill:#FF7AB4" />
<path d="M635.74,802.47A3,3 0 1 1 629.74,802.47A3,3 0 1 1 635.74,802.47Z" style="fill:#FF7AB4" />
<path d="M645.22,775A3,3 0 1 1 639.22,775A3,3 0 1 1 645.22,775Z" style="fill:#FF7AB4" />
<path d="M654.71,737.85A3,3 0 1 1 648.71,737.85A3,3 0 1 1 654.71,737.85Z" style="fill:#FF7AB4" />
<path d="M664.2,684.58A3,3 0 1 1 658.2,684.58A3,3 0 1 1 664.2,684.58Z" style="fill:#FF7AB4" />
<path d="M673.69,637.84A3,3 0 1 1 667.69,637.84A3,3 0 1 1 673.69,637.84Z" style="fill:#FF7AB4" />
<path d="M683.18,590.86A3,3 0 1 1 677.18,590.86A3,3 0 1 1 683.18,590.86Z" style="fill:#FF7AB4" />
<path d="M692.67,539.59A3,3 0 1 1 686.67,539.59A3,3 0 1 1 692.67,539.59Z" style="fill:#FF7AB4" />
<path d="M702.16,498.04A3,3 0 1 1 696.16,498.04A3,3 0 1 1 702.16,498.04Z" style="fill:#FF7AB4" />
<path d="M711.64,463.45A3,3 0 1 1 705.64,463.45A3,3 0 1 1 711.64,463.45Z" style="fill:#FF7AB4" />
<path d="M721.13,419.29A3,3 0 1 1 715.13,419.29A3,3 0 1 1 721.13,419.29Z" style="fill:#FF7AB4" />
<path d="M730.62,395.43A3,3 0 1 1 724.62,395.43A3,3 0 1 1 730.62,395.43Z" style="fill:#FF7AB4" />
<path d="M740.11,365.44A3,3 0 1 1 734.11,365.44A3,3 0 1 1 740.11,365.44Z" style="fill:#FF7AB4" />
<path d="M749.6,335.57A3,3 0 1 1 743.6,335.57A3,3 0 1 1 749.6,335.57Z" style="fill:#FF7AB4" />
<path d="M759.09,323.26A3,3 0 1 1 753.09,323.26A3,3 0 1 1 759.09,323.26Z" style="fill:#FF7AB4" />
<path d="M768.58,305.84A3,3 0 1 1 762.58,305.84A3,3 0 1 1 768.58,305.84Z" style="fill:#FF7AB4" />
<path d="M778.06,289.18A3,3 0 1 1 772.06,289.18A3,3 0 1 1 778.06,289.18Z" style="fill:#FF7AB4" />
<path d="M787.55,277.77A3,3 0 1 1 781.55,277.77A3,3 0 1 1 787.55,277.77Z" style="fill:#FF7AB4" />
<path d="M797.04,257.96A3,3 0 1 1 791.04,257.96A3,3 0 1 1 797.04,257.96Z" style="fill:#FF7AB4" />
<path d="M806.53,240.64A3,3 0 1 1 800.53,240.64A3,3 0 1 1 806.53,240.64Z" style="fill:#FF7AB4" />
<path d="M816.02,231.18A3,3 0 1 1 810.02,231.18A3,3 0 1 1 816.02,231.18Z" style="fill:#FF7AB4" />
<path d="M825.51,222.42A3,3 0 1 1 819.51,222.42A3,3 0 1 1 825.51,222.42Z" style="fill:#FF7AB4" />
<path d="M835,215.14A3,3 0 1 1 829,215.14A3,3 0 1 1 835,215.14Z" style="fill:#FF7AB4" />
<path d="M844.48,208.83A3,3 0 1 1 838.48,208.83A3,3 0 1 1 844.48,208.83Z" style="fill:#FF7AB4" />
<path d="M853.97,202.96A3,3 0 1 1 847.97,202.96A3,3 0 1 1 853.97,202.96Z" style="fill:#FF7AB4" />
<path d="M863.46,190.88A3,3 0 1 1 857.46,190.88A3,3 0 1 1 863.46,190.88Z" style="fill:#FF7AB4" />
<path d="M872.95,194.55A3,3 0 1 1 866.95,194.55A3,3 0 1 1 872.95,194.55Z" style="fill:#FF7AB4" />
<path d="M882.44,181.4A3,3 0 1 1 876.44,181.4A3,3 0 1 1 882.44,181.4Z" style="fill:#FF7AB4" />
<path d="M891.93,179.38A3,3 0 1 1 885.93,179.38A3,3 0 1 1 891.93,179.38Z" style="fill:#FF7AB4" />
<path d="M901.42,173.49A3,3 0 1 1 895.42,173.49A3,3 0 1 1 901.42,173.49Z" style="fill:#FF7AB4" />
<path d="M910.9,167.12A3,3 0 1 1 904.9,167.12A3,3 0 1 1 910.9,167.12Z" style="fill:#FF7AB4" />
<path d="M920.39,165.15A3,3 0 1 1 914.39,165.15A3,3 0 1 1 920.39,165.15Z" style="fill:#FF7AB4" />
<path d="M929.88,164.37A3,3 0 1 1 923.88,164.37A3,3 0 1 1 929.88,164.37Z" style="fill:#FF7AB4" />
<path d="M939.37,161.8A3,3 0 1 1 933.37,161.8A3,3 0 1 1 939.37,161.8Z" style="fill:#FF7AB4" />
<path d="M948.86,157.58A3,3 0 1 1 942.86,157.58A3,3 0 1 1 948.86,157.58Z" style="fill:#FF7AB4" />
<path d="M958.35,157.6A3,3 0 1 1 952.35,157.6A3,3 0 1 1 958.35,157.6Z" style="fill:#FF7AB4" />
<path d="M967.84,153.01A3,3 0 1 1 961.84,153.01A3,3 0 1 1 967.84,153.01Z" style="fill:#FF7AB4" />
<path d="M977.32,149.3A3,3 0 1 1 971.32,149.3A3,3 0 1 1 977.32,149.3Z" style="fill:#FF7AB4" />
<path d="M986.81,147.38A3,3 0 1 1 980.81,147.38A3,3 0 1 1 986.81,147.38Z" style="fill:#FF7AB4" />
<path d="M996.3,143.27A3,3 0 1 1 990.3,143.27A3,3 0 1 1 996.3,143.27Z" style="fill:#FF7AB4" />
<path d="M1005.8,152.09A3,3 0 1 1 999.79,152.09A3,3 0 1 1 1005.8,152.09Z" style="fill:#FF7AB4" />
<path d="M1015.3,141.53A3,3 0 1 1 1009.3,141.53A3,3 0 1 1 1015.3,141.53Z" style="fill:#FF7AB4" />
<path d="M1024.8,139.94A3,3 0 1 1 1018.8,139.94A3,3 0 1 1 1024.8,139.94Z" style="fill:#FF7AB4" />
<path d="M1034.3,140.29A3,3 0 1 1 1028.3,140.29A3,3 0 1 1 1034.3,140.29Z" style="fill:#FF7AB4" />
<path d="M1043.7,138.77A3,3 0 1 1 1037.7,138.77A3,3 0 1 1 1043.7,138.77Z" style="fill:#FF7AB4" />
<path d="M1053.2,140.75A3,3 0 1 1 1047.2,140.75A3,3 0 1 1 1053.2,140.75Z" style="fill:#FF7AB4" />
<path d="M106.12,962.84L1055,962.84" style="fill:none;stroke:#000000" />
<path d="M1055,104.32L1055,962.84" style="fill:none;stroke:#000000" />
<path d="M110.87,150.65L112.76,150.79L114.66,150.93L116.56,151.07L118.46,151.21L120.35,151.35L122.25,151.5L124.15,151.64L126.05,151.79L127.94,151.94L129.84,152.09L131.74,152.25L133.64,152.4L135.54,152.56L137.43,152.72L139.33,152.88L141.23,153.04L143.13,153.2L145.02,153.37L146.92,153.54L148.82,153.71L150.72,153.88L152.62,154.05L154.51,154.23L156.41,154.41L158.31,154.59L160.21,154.77L162.1,154.96L164,155.14L165.9,155.33L167.8,155.52L169.69,155.72L171.59,155.91L173.49,156.11L175.39,156.31L177.29,156.52L179.18,156.72L181.08,156.93L182.98,157.14L184.88,157.36L186.77,157.57L188.67,157.79L190.57,158.02L192.47,158.24L194.36,158.47L196.26,158.7L198.16,158.93L200.06,159.17L201.96,159.41L203.85,159.65L205.75,159.9L207.65,160.15L209.55,160.4L211.44,160.66L213.34,160.92L215.24,161.18L217.14,161.45L219.04,161.72L220.93,162L222.83,162.27L224.73,162.56L226.63,162.84L228.52,163.13L230.42,163.43L232.32,163.72L234.22,164.03L236.11,164.33L238.01,164.64L239.91,164.96L241.81,165.28L243.71,165.6L245.6,165.93L247.5,166.26L249.4,166.6L251.3,166.95L253.19,167.3L255.09,167.65L256.99,168.01L258.89,168.37L260.78,168.74L262.68,169.12L264.58,169.5L266.48,169.89L268.38,170.28L270.27,170.68L272.17,171.08L274.07,171.49L275.97,171.91L277.86,172.34L279.76,172.77L281.66,173.2L283.56,173.65L285.45,174.1L287.35,174.56L289.25,175.03L291.15,175.5L293.05,175.98L294.94,176.47L296.84,176.97L298.74,177.47L300.64,177.99L302.53,178.51L304.43,179.04L306.33,179.58L308.23,180.13L310.13,180.69L312.02,181.26L313.92,181.84L315.82,182.42L317.72,183.02L319.61,183.63L321.51,184.25L323.41,184.88L325.31,185.52L327.2,186.17L329.1,186.84L331,187.52L332.9,188.2L334.8,188.91L336.69,189.62L338.59,190.35L340.49,191.09L342.39,191.84L344.28,192.61L346.18,193.39L348.08,194.19L349.98,195L351.87,195.83L353.77,196.68L355.67,197.54L357.57,198.41L359.47,199.31L361.36,200.22L363.26,201.15L365.16,202.1L367.06,203.06L368.95,204.05L370.85,205.06L372.75,206.08L374.65,207.13L376.55,208.2L378.44,209.29L380.34,210.41L382.24,211.54L384.14,212.71L386.03,213.89L387.93,215.1L389.83,216.34L391.73,217.6L393.62,218.89L395.52,220.21L397.42,221.56L399.32,222.93L401.22,224.34L403.11,225.78L405.01,227.25L406.91,228.75L408.81,230.29L410.7,231.86L412.6,233.47L414.5,235.12L416.4,236.8L418.29,238.52L420.19,240.29L422.09,242.09L423.99,243.94L425.89,245.83L427.78,247.77L429.68,249.75L431.58,251.78L433.48,253.86L435.37,255.99L437.27,258.17L439.17,260.41L441.07,262.7L442.97,265.05L444.86,267.46L446.76,269.93L448.66,272.46L450.56,275.06L452.45,277.72L454.35,280.45L456.25,283.25L458.15,286.12L460.04,289.07L461.94,292.1L463.84,295.21L465.74,298.39L467.64,301.67L469.53,305.02L471.43,308.47L473.33,312.02L475.23,315.65L477.12,319.39L479.02,323.22L480.92,327.16L482.82,331.21L484.71,335.37L486.61,339.64L488.51,344.03L490.41,348.53L492.31,353.17L494.2,357.92L496.1,362.81L498,367.84L499.9,373L501.79,378.3L503.69,383.75L505.59,389.34L507.49,395.09L509.39,401L511.28,407.06L513.18,413.29L515.08,419.68L516.98,426.24L518.87,432.97L520.77,439.88L522.67,446.97L524.57,454.24L526.46,461.69L528.36,469.32L530.26,477.14L532.16,485.15L534.06,493.35L535.95,501.73L537.85,510.3L539.75,519.05L541.65,527.99L543.54,537.11L545.44,546.4L547.34,555.87L549.24,565.5L551.13,575.29L553.03,585.22L554.93,595.3L556.83,605.5L558.73,615.81L560.62,626.22L562.52,636.72L564.42,647.27L566.32,657.87L568.21,668.49L570.11,679.11L572.01,689.69L573.91,700.21L575.81,710.64L577.7,720.95L579.6,731.11L581.5,741.07L583.4,750.8L585.29,760.27L587.19,769.42L589.09,778.24L590.99,786.66L592.88,794.66L594.78,802.19L596.68,809.22L598.58,815.7L600.48,821.61L602.37,826.91L604.27,831.56L606.17,835.55L608.07,838.84L609.96,841.42L611.86,843.27L613.76,844.38L615.66,844.74L617.55,844.35L619.45,843.21L621.35,841.34L623.25,838.73L625.15,835.42L627.04,831.41L628.94,826.73L630.84,821.41L632.74,815.48L634.63,808.98L636.53,801.93L638.43,794.38L640.33,786.37L642.22,777.93L644.12,769.11L646.02,759.94L647.92,750.46L649.82,740.72L651.71,730.75L653.61,720.59L655.51,710.28L657.41,699.84L659.3,689.32L661.2,678.73L663.1,668.12L665,657.5L666.9,646.9L668.79,636.35L670.69,625.86L672.59,615.45L674.49,605.14L676.38,594.94L678.28,584.87L680.18,574.94L682.08,565.16L683.97,555.53L685.87,546.07L687.77,536.79L689.67,527.68L691.57,518.74L693.46,509.99L695.36,501.43L697.26,493.06L699.16,484.87L701.05,476.86L702.95,469.05L704.85,461.42L706.75,453.98L708.64,446.72L710.54,439.64L712.44,432.73L714.34,426L716.24,419.45L718.13,413.06L720.03,406.84L721.93,400.79L723.83,394.89L725.72,389.14L727.62,383.55L729.52,378.11L731.42,372.81L733.32,367.66L735.21,362.64L737.11,357.76L739.01,353L740.91,348.37L742.8,343.87L744.7,339.49L746.6,335.22L748.5,331.07L750.39,327.02L752.29,323.09L754.19,319.25L756.09,315.52L757.99,311.89L759.88,308.35L761.78,304.91L763.68,301.55L765.58,298.28L767.47,295.09L769.37,291.99L771.27,288.97L773.17,286.02L775.06,283.15L776.96,280.35L778.86,277.62L780.76,274.96L782.66,272.37L784.55,269.84L786.45,267.37L788.35,264.97L790.25,262.62L792.14,260.33L794.04,258.09L795.94,255.91L797.84,253.78L799.74,251.71L801.63,249.68L803.53,247.7L805.43,245.76L807.33,243.87L809.22,242.03L811.12,240.22L813.02,238.46L814.92,236.74L816.81,235.06L818.71,233.42L820.61,231.81L822.51,230.24L824.41,228.7L826.3,227.2L828.2,225.73L830.1,224.29L832,222.89L833.89,221.51L835.79,220.16L837.69,218.85L839.59,217.56L841.48,216.29L843.38,215.06L845.28,213.85L847.18,212.66L849.08,211.5L850.97,210.37L852.87,209.25L854.77,208.16L856.67,207.1L858.56,206.05L860.46,205.02L862.36,204.02L864.26,203.03L866.16,202.06L868.05,201.12L869.95,200.19L871.85,199.28L873.75,198.38L875.64,197.51L877.54,196.65L879.44,195.8L881.34,194.97L883.23,194.16L885.13,193.37L887.03,192.58L888.93,191.81L890.83,191.06L892.72,190.32L894.62,189.59L896.52,188.88L898.42,188.18L900.31,187.49L902.21,186.82L904.11,186.15L906.01,185.5L907.9,184.86L909.8,184.23L911.7,183.61L913.6,183L915.5,182.4L917.39,181.82L919.29,181.24L921.19,180.67L923.09,180.11L924.98,179.56L926.88,179.02L928.78,178.49L930.68,177.97L932.58,177.46L934.47,176.95L936.37,176.45L938.27,175.96L940.17,175.48L942.06,175.01L943.96,174.54L945.86,174.08L947.76,173.63L949.65,173.19L951.55,172.75L953.45,172.32L955.35,171.9L957.25,171.48L959.14,171.07L961.04,170.66L962.94,170.26L964.84,169.87L966.73,169.49L968.63,169.1L970.53,168.73L972.43,168.36L974.32,168L976.22,167.64L978.12,167.28L980.02,166.93L981.92,166.59L983.81,166.25L985.71,165.92L987.61,165.59L989.51,165.27L991.4,164.95L993.3,164.63L995.2,164.32L997.1,164.01L999,163.71L1000.9,163.41L1002.8,163.12L1004.7,162.83L1006.6,162.55L1008.5,162.26L1010.4,161.99L1012.3,161.71L1014.2,161.44L1016.1,161.17L1018,160.91L1019.9,160.65L1021.8,160.39L1023.7,160.14L1025.6,159.89L1027.5,159.65L1029.4,159.4L1031.3,159.16L1033.2,158.93L1035.1,158.69L1036.9,158.46L1038.8,158.23L1040.7,158.01L1042.6,157.79L1044.5,157.57L1046.4,157.35L1048.3,157.14" style="fill:none;stroke:#C96892;stroke-width:3" />
<path d="M532.91,488.37L698.34,488.37" style="fill:none;stroke:#C96892;stroke-width:4;stroke-dasharray:15,5" />
<path d="M113.87,121.64A3,3 0 1 1 107.87,121.64A3,3 0 1 1 113.87,121.64Z" style="fill:#7A9CFF" />
<path d="M123.35,122.19A3,3 0 1 1 117.35,122.19A3,3 0 1 1 123.35,122.19Z" style="fill:#7A9CFF" />
<path d="M132.84,127.39A3,3 0 1 1 126.84,127.39A3,3 0 1 1 132.84,127.39Z" style="fill:#7A9CFF" />
<path d="M142.33,129.01A3,3 0 1 1 136.33,129.01A3,3 0 1 1 142.33,129.01Z" style="fill:#7A9CFF" />
<path d="M151.82,128.06A3,3 0 1 1 145.82,128.06A3,3 0 1 1 151.82,128.06Z" style="fill:#7A9CFF" />
<path d="M161.31,130.54A3,3 0 1 1 155.31,130.54A3,3 0 1 1 161.31,130.54Z" style="fill:#7A9CFF" />
<path d="M170.8,127.36A3,3 0 1 1 164.8,127.36A3,3 0 1 1 170.8,127.36Z" style="fill:#7A9CFF" />
<path d="M180.29,129.83A3,3 0 1 1 174.29,129.83A3,3 0 1 1 180.29,129.83Z" style="fill:#7A9CFF" />
<path d="M189.77,128.81A3,3 0 1 1 183.77,128.81A3,3 0 1 1 189.77,128.81Z" style="fill:#7A9CFF" />
<path d="M199.26,134.24A3,3 0 1 1 193.26,134.24A3,3 0 1 1 199.26,134.24Z" style="fill:#7A9CFF" />
<path d="M208.75,131.95A3,3 0 1 1 202.75,131.95A3,3 0 1 1 208.75,131.95Z" style="fill:#7A9CFF" />
<path d="M218.24,135.42A3,3 0 1 1 212.24,135.42A3,3 0 1 1 218.24,135.42Z" style="fill:#7A9CFF" />
<path d="M227.73,137.83A3,3 0 1 1 221.73,137.83A3,3 0 1 1 227.73,137.83Z" style="fill:#7A9CFF" />
<path d="M237.22,137.5A3,3 0 1 1 231.22,137.5A3,3 0 1 1 237.22,137.5Z" style="fill:#7A9CFF" />
<path d="M246.71,141.32A3,3 0 1 1 240.71,141.32A3,3 0 1 1 246.71,141.32Z" style="fill:#7A9CFF" />
<path d="M256.19,145.9A3,3 0 1 1 250.19,145.9A3,3 0 1 1 256.19,145.9Z" style="fill:#7A9CFF" />
<path d="M265.68,146.95A3,3 0 1 1 259.68,146.95A3,3 0 1 1 265.68,146.95Z" style="fill:#7A9CFF" />
<path d="M275.17,156.32A3,3 0 1 1 269.17,156.32A3,3 0 1 1 275.17,156.32Z" style="fill:#7A9CFF" />
<path d="M284.66,153.79A3,3 0 1 1 278.66,153.79A3,3 0 1 1 284.66,153.79Z" style="fill:#7A9CFF" />
<path d="M294.15,155.26A3,3 0 1 1 288.15,155.26A3,3 0 1 1 294.15,155.26Z" style="fill:#7A9CFF" />
<path d="M303.64,159.68A3,3 0 1 1 297.64,159.68A3,3 0 1 1 303.64,159.68Z" style="fill:#7A9CFF" />
<path d="M313.13,167.18A3,3 0 1 1 307.13,167.18A3,3 0 1 1 313.13,167.18Z" style="fill:#7A9CFF" />
<path d="M322.61,167.06A3,3 0 1 1 316.61,167.06A3,3 0 1 1 322.61,167.06Z" style="fill:#7A9CFF" />
<path d="M332.1,175.65A3,3 0 1 1 326.1,175.65A3,3 0 1 1 332.1,175.65Z" style="fill:#7A9CFF" />
<path d="M341.59,180.98A3,3 0 1 1 335.59,180.98A3,3 0 1 1 341.59,180.98Z" style="fill:#7A9CFF" />
<path d="M351.08,184.27A3,3 0 1 1 345.08,184.27A3,3 0 1 1 351.08,184.27Z" style="fill:#7A9CFF" />
<path d="M360.57,189.4A3,3 0 1 1 354.57,189.4A3,3 0 1 1 360.57,189.4Z" style="fill:#7A9CFF" />
<path d="M370.06,193.12A3,3 0 1 1 364.06,193.12A3,3 0 1 1 370.06,193.12Z" style="fill:#7A9CFF" />
<path d="M379.55,203.15A3,3 0 1 1 373.55,203.15A3,3 0 1 1 379.55,203.15Z" style="fill:#7A9CFF" />
<path d="M389.03,204.11A3,3 0 1 1 383.03,204.11A3,3 0 1 1 389.03,204.11Z" style="fill:#7A9CFF" />
<path d="M398.52,219.44A3,3 0 1 1 392.52,219.44A3,3 0 1 1 398.52,219.44Z" style="fill:#7A9CFF" />
<path d="M408.01,220.23A3,3 0 1 1 402.01,220.23A3,3 0 1 1 408.01,220.23Z" style="fill:#7A9CFF" />
<path d="M417.5,235.87A3,3 0 1 1 411.5,235.87A3,3 0 1 1 417.5,235.87Z" style="fill:#7A9CFF" />
<path d="M426.99,241.53A3,3 0 1 1 420.99,241.53A3,3 0 1 1 426.99,241.53Z" style="fill:#7A9CFF" />
<path d="M436.48,255.86A3,3 0 1 1 430.48,255.86A3,3 0 1 1 436.48,255.86Z" style="fill:#7A9CFF" />
<path d="M445.97,265.07A3,3 0 1 1 439.97,265.07A3,3 0 1 1 445.97,265.07Z" style="fill:#7A9CFF" />
<path d="M455.45,278.81A3,3 0 1 1 449.45,278.81A3,3 0 1 1 455.45,278.81Z" style="fill:#7A9CFF" />
<path d="M464.94,291.8A3,3 0 1 1 458.94,291.8A3,3 0 1 1 464.94,291.8Z" style="fill:#7A9CFF" />
<path d="M474.43,307.5A3,3 0 1 1 468.43,307.5A3,3 0 1 1 474.43,307.5Z" style="fill:#7A9CFF" />
<path d="M483.92,327.53A3,3 0 1 1 477.92,327.53A3,3 0 1 1 483.92,327.53Z" style="fill:#7A9CFF" />
<path d="M493.41,349.27A3,3 0 1 1 487.41,349.27A3,3 0 1 1 493.41,349.27Z" style="fill:#7A9CFF" />
<path d="M502.9,385.93A3,3 0 1 1 496.9,385.93A3,3 0 1 1 502.9,385.93Z" style="fill:#7A9CFF" />
<path d="M512.39,411.67A3,3 0 1 1 506.39,411.67A3,3 0 1 1 512.39,411.67Z" style="fill:#7A9CFF" />
<path d="M521.87,440.68A3,3 0 1 1 515.87,440.68A3,3 0 1 1 521.87,440.68Z" style="fill:#7A9CFF" />
<path d="M531.36,473.26A3,3 0 1 1 525.36,473.26A3,3 0 1 1 531.36,473.26Z" style="fill:#7A9CFF" />
<path d="M540.85,525.32A3,3 0 1 1 534.85,525.32A3,3 0 1 1 540.85,525.32Z" style="fill:#7A9CFF" />
<path d="M550.34,562.02A3,3 0 1 1 544.34,562.02A3,3 0 1 1 550.34,562.02Z" style="fill:#7A9CFF" />
<path d="M559.83,615.86A3,3 0 1 1 553.83,615.86A3,3 0 1 1 559.83,615.86Z" style="fill:#7A9CFF" />
<path d="M569.32,666.81A3,3 0 1 1 563.32,666.81A3,3 0 1 1 569.32,666.81Z" style="fill:#7A9CFF" />
<path d="M578.81,716.63A3,3 0 1 1 572.81,716.63A3,3 0 1 1 578.81,716.63Z" style="fill:#7A9CFF" />
<path d="M588.29,763.75A3,3 0 1 1 582.29,763.75A3,3 0 1 1 588.29,763.75Z" style="fill:#7A9CFF" />
<path d="M597.78,796.09A3,3 0 1 1 591.78,796.09A3,3 0 1 1 597.78,796.09Z" style="fill:#7A9CFF" />
<path d="M607.27,827.72A3,3 0 1 1 601.27,827.72A3,3 0 1 1 607.27,827.72Z" style="fill:#7A9CFF" />
<path d="M616.76,819.41A3,3 0 1 1 610.76,819.41A3,3 0 1 1 616.76,819.41Z" style="fill:#7A9CFF" />
<path d="M626.25,818.14A3,3 0 1 1 620.25,818.14A3,3 0 1 1 626.25,818.14Z" style="fill:#7A9CFF" />
<path d="M635.74,801.61A3,3 0 1 1 629.74,801.61A3,3 0 1 1 635.74,801.61Z" style="fill:#7A9CFF" />
<path d="M645.22,765.28A3,3 0 1 1 639.22,765.28A3,3 0 1 1 645.22,765.28Z" style="fill:#7A9CFF" />
<path d="M654.71,734.8A3,3 0 1 1 648.71,734.8A3,3 0 1 1 654.71,734.8Z" style="fill:#7A9CFF" />
<path d="M664.2,676.57A3,3 0 1 1 658.2,676.57A3,3 0 1 1 664.2,676.57Z" style="fill:#7A9CFF" />
<path d="M673.69,635.71A3,3 0 1 1 667.69,635.71A3,3 0 1 1 673.69,635.71Z" style="fill:#7A9CFF" />
<path d="M683.18,582.45A3,3 0 1 1 677.18,582.45A3,3 0 1 1 683.18,582.45Z" style="fill:#7A9CFF" />
<path d="M692.67,538.6A3,3 0 1 1 686.67,538.6A3,3 0 1 1 692.67,538.6Z" style="fill:#7A9CFF" />
<path d="M702.16,494.32A3,3 0 1 1 696.16,494.32A3,3 0 1 1 702.16,494.32Z" style="fill:#7A9CFF" />
<path d="M711.64,451.99A3,3 0 1 1 705.64,451.99A3,3 0 1 1 711.64,451.99Z" style="fill:#7A9CFF" />
<path d="M721.13,416.93A3,3 0 1 1 715.13,416.93A3,3 0 1 1 721.13,416.93Z" style="fill:#7A9CFF" />
<path d="M730.62,387.61A3,3 0 1 1 724.62,387.61A3,3 0 1 1 730.62,387.61Z" style="fill:#7A9CFF" />
<path d="M740.11,362.93A3,3 0 1 1 734.11,362.93A3,3 0 1 1 740.11,362.93Z" style="fill:#7A9CFF" />
<path d="M749.6,339.84A3,3 0 1 1 743.6,339.84A3,3 0 1 1 749.6,339.84Z" style="fill:#7A9CFF" />
<path d="M759.09,323.05A3,3 0 1 1 753.09,323.05A3,3 0 1 1 759.09,323.05Z" style="fill:#7A9CFF" />
<path d="M768.58,298.01A3,3 0 1 1 762.58,298.01A3,3 0 1 1 768.58,298.01Z" style="fill:#7A9CFF" />
<path d="M778.06,281.34A3,3 0 1 1 772.06,281.34A3,3 0 1 1 778.06,281.34Z" style="fill:#7A9CFF" />
<path d="M787.55,260.82A3,3 0 1 1 781.55,260.82A3,3 0 1 1 787.55,260.82Z" style="fill:#7A9CFF" />
<path d="M797.04,251.58A3,3 0 1 1 791.04,251.58A3,3 0 1 1 797.04,251.58Z" style="fill:#7A9CFF" />
<path d="M806.53,240.69A3,3 0 1 1 800.53,240.69A3,3 0 1 1 806.53,240.69Z" style="fill:#7A9CFF" />
<path d="M816.02,232.94A3,3 0 1 1 810.02,232.94A3,3 0 1 1 816.02,232.94Z" style="fill:#7A9CFF" />
<path d="M825.51,220.73A3,3 0 1 1 819.51,220.73A3,3 0 1 1 825.51,220.73Z" style="fill:#7A9CFF" />
<path d="M835,210.27A3,3 0 1 1 829,210.27A3,3 0 1 1 835,210.27Z" style="fill:#7A9CFF" />
<path d="M844.48,201.31A3,3 0 1 1 838.48,201.31A3,3 0 1 1 844.48,201.31Z" style="fill:#7A9CFF" />
<path d="M853.97,202.42A3,3 0 1 1 847.97,202.42A3,3 0 1 1 853.97,202.42Z" style="fill:#7A9CFF" />
<path d="M863.46,188.55A3,3 0 1 1 857.46,188.55A3,3 0 1 1 863.46,188.55Z" style="fill:#7A9CFF" />
<path d="M872.95,186.88A3,3 0 1 1 866.95,186.88A3,3 0 1 1 872.95,186.88Z" style="fill:#7A9CFF" />
<path d="M882.44,178.85A3,3 0 1 1 876.44,178.85A3,3 0 1 1 882.44,178.85Z" style="fill:#7A9CFF" />
<path d="M891.93,180.82A3,3 0 1 1 885.93,180.82A3,3 0 1 1 891.93,180.82Z" style="fill:#7A9CFF" />
<path d="M901.42,170.01A3,3 0 1 1 895.42,170.01A3,3 0 1 1 901.42,170.01Z" style="fill:#7A9CFF" />
<path d="M910.9,168.06A3,3 0 1 1 904.9,168.06A3,3 0 1 1 910.9,168.06Z" style="fill:#7A9CFF" />
<path d="M920.39,158.74A3,3 0 1 1 914.39,158.74A3,3 0 1 1 920.39,158.74Z" style="fill:#7A9CFF" />
<path d="M929.88,164.27A3,3 0 1 1 923.88,164.27A3,3 0 1 1 929.88,164.27Z" style="fill:#7A9CFF" />
<path d="M939.37,156.6A3,3 0 1 1 933.37,156.6A3,3 0 1 1 939.37,156.6Z" style="fill:#7A9CFF" />
<path d="M948.86,154.76A3,3 0 1 1 942.86,154.76A3,3 0 1 1 948.86,154.76Z" style="fill:#7A9CFF" />
<path d="M958.35,148.97A3,3 0 1 1 952.35,148.97A3,3 0 1 1 958.35,148.97Z" style="fill:#7A9CFF" />
<path d="M967.84,148.63A3,3 0 1 1 961.84,148.63A3,3 0 1 1 967.84,148.63Z" style="fill:#7A9CFF" />
<path d="M977.32,151.46A3,3 0 1 1 971.32,151.46A3,3 0 1 1 977.32,151.46Z" style="fill:#7A9CFF" />
<path d="M986.81,147.82A3,3 0 1 1 980.81,147.82A3,3 0 1 1 986.81,147.82Z" style="fill:#7A9CFF" />
<path d="M996.3,145.18A3,3 0 1 1 990.3,145.18A3,3 0 1 1 996.3,145.18Z" style="fill:#7A9CFF" />
<path d="M1005.8,151.46A3,3 0 1 1 999.79,151.46A3,3 0 1 1 1005.8,151.46Z" style="fill:#7A9CFF" />
<path d="M1015.3,138.81A3,3 0 1 1 1009.3,138.81A3,3 0 1 1 1015.3,138.81Z" style="fill:#7A9CFF" />
<path d="M1024.8,137.27A3,3 0 1 1 1018.8,137.27A3,3 0 1 1 1024.8,137.27Z" style="fill:#7A9CFF" />
<path d="M1034.3,138.52A3,3 0 1 1 1028.3,138.52A3,3 0 1 1 1034.3,138.52Z" style="fill:#7A9CFF" />
<path d="M1043.7,141.65A3,3 0 1 1 1037.7,141.65A3,3 0 1 1 1043.7,141.65Z" style="fill:#7A9CFF" />
<path d="M1053.2,132.41A3,3 0 1 1 1047.2,132.41A3,3 0 1 1 1053.2,132.41Z" style="fill:#7A9CFF" />
<path d="M106.12,962.84L1055,962.84" style="fill:none;stroke:#000000" />
<path d="M1055,104.32L1055,962.84" style="fill:none;stroke:#000000" />
<path d="M110.87,150.35L112.76,150.48L114.66,150.62L116.56,150.76L118.46,150.9L120.35,151.04L122.25,151.18L124.15,151.32L126.05,151.47L127.94,151.62L129.84,151.77L131.74,151.92L133.64,152.07L135.54,152.23L137.43,152.38L139.33,152.54L141.23,152.7L143.13,152.86L145.02,153.03L146.92,153.19L148.82,153.36L150.72,153.53L152.62,153.7L154.51,153.87L156.41,154.05L158.31,154.23L160.21,154.41L162.1,154.59L164,154.77L165.9,154.96L167.8,155.15L169.69,155.34L171.59,155.53L173.49,155.73L175.39,155.93L177.29,156.13L179.18,156.33L181.08,156.54L182.98,156.74L184.88,156.96L186.77,157.17L188.67,157.39L190.57,157.61L192.47,157.83L194.36,158.05L196.26,158.28L198.16,158.51L200.06,158.74L201.96,158.98L203.85,159.22L205.75,159.46L207.65,159.71L209.55,159.96L211.44,160.21L213.34,160.47L215.24,160.73L217.14,160.99L219.04,161.26L220.93,161.53L222.83,161.8L224.73,162.08L226.63,162.36L228.52,162.65L230.42,162.94L232.32,163.23L234.22,163.53L236.11,163.83L238.01,164.14L239.91,164.45L241.81,164.77L243.71,165.09L245.6,165.41L247.5,165.74L249.4,166.07L251.3,166.41L253.19,166.76L255.09,167.11L256.99,167.46L258.89,167.82L260.78,168.19L262.68,168.56L264.58,168.93L266.48,169.31L268.38,169.7L270.27,170.1L272.17,170.5L274.07,170.9L275.97,171.31L277.86,171.73L279.76,172.16L281.66,172.59L283.56,173.03L285.45,173.47L287.35,173.93L289.25,174.39L291.15,174.86L293.05,175.33L294.94,175.81L296.84,176.31L298.74,176.81L300.64,177.31L302.53,177.83L304.43,178.35L306.33,178.89L308.23,179.43L310.13,179.98L312.02,180.54L313.92,181.11L315.82,181.7L317.72,182.29L319.61,182.89L321.51,183.5L323.41,184.12L325.31,184.76L327.2,185.4L329.1,186.06L331,186.73L332.9,187.41L334.8,188.1L336.69,188.81L338.59,189.53L340.49,190.26L342.39,191L344.28,191.76L346.18,192.54L348.08,193.33L349.98,194.13L351.87,194.95L353.77,195.78L355.67,196.64L357.57,197.5L359.47,198.39L361.36,199.29L363.26,200.21L365.16,201.15L367.06,202.11L368.95,203.08L370.85,204.08L372.75,205.09L374.65,206.13L376.55,207.19L378.44,208.27L380.34,209.37L382.24,210.5L384.14,211.65L386.03,212.82L387.93,214.02L389.83,215.25L391.73,216.5L393.62,217.78L395.52,219.08L397.42,220.42L399.32,221.78L401.22,223.18L403.11,224.6L405.01,226.06L406.91,227.55L408.81,229.08L410.7,230.64L412.6,232.23L414.5,233.86L416.4,235.53L418.29,237.24L420.19,238.99L422.09,240.78L423.99,242.61L425.89,244.49L427.78,246.41L429.68,248.38L431.58,250.4L433.48,252.46L435.37,254.58L437.27,256.74L439.17,258.97L441.07,261.24L442.97,263.58L444.86,265.97L446.76,268.42L448.66,270.94L450.56,273.52L452.45,276.17L454.35,278.89L456.25,281.67L458.15,284.53L460.04,287.46L461.94,290.48L463.84,293.57L465.74,296.74L467.64,300L469.53,303.34L471.43,306.78L473.33,310.31L475.23,313.93L477.12,317.65L479.02,321.48L480.92,325.4L482.82,329.44L484.71,333.59L486.61,337.85L488.51,342.22L490.41,346.72L492.31,351.35L494.2,356.1L496.1,360.98L498,366L499.9,371.15L501.79,376.45L503.69,381.9L505.59,387.49L507.49,393.24L509.39,399.14L511.28,405.21L513.18,411.44L515.08,417.84L516.98,424.41L518.87,431.15L520.77,438.07L522.67,445.18L524.57,452.46L526.46,459.93L528.36,467.58L530.26,475.43L532.16,483.46L534.06,491.69L535.95,500.1L537.85,508.71L539.75,517.5L541.65,526.48L543.54,535.64L545.44,544.98L547.34,554.49L549.24,564.17L551.13,574.01L553.03,584L554.93,594.13L556.83,604.39L558.73,614.77L560.62,625.24L562.52,635.8L564.42,646.42L566.32,657.08L568.21,667.77L570.11,678.44L572.01,689.09L573.91,699.67L575.81,710.15L577.7,720.51L579.6,730.71L581.5,740.71L583.4,750.47L585.29,759.96L587.19,769.13L589.09,777.94L590.99,786.36L592.88,794.34L594.78,801.84L596.68,808.82L598.58,815.24L600.48,821.08L602.37,826.28L604.27,830.83L606.17,834.7L608.07,837.86L609.96,840.29L611.86,841.98L613.76,842.92L615.66,843.1L617.55,842.51L619.45,841.17L621.35,839.08L623.25,836.26L625.15,832.72L627.04,828.48L628.94,823.58L630.84,818.03L632.74,811.88L634.63,805.15L636.53,797.89L638.43,790.13L640.33,781.91L642.22,773.28L644.12,764.27L646.02,754.92L647.92,745.28L649.82,735.39L651.71,725.28L653.61,714.99L655.51,704.56L657.41,694.02L659.3,683.4L661.2,672.74L663.1,662.05L665,651.38L666.9,640.73L668.79,630.15L670.69,619.63L672.59,609.21L674.49,598.89L676.38,588.7L678.28,578.64L680.18,568.73L682.08,558.97L683.97,549.38L685.87,539.96L687.77,530.71L689.67,521.65L691.57,512.77L693.46,504.08L695.36,495.58L697.26,487.27L699.16,479.14L701.05,471.21L702.95,463.47L704.85,455.91L706.75,448.54L708.64,441.35L710.54,434.35L712.44,427.52L714.34,420.87L716.24,414.4L718.13,408.09L720.03,401.95L721.93,395.97L723.83,390.15L725.72,384.48L727.62,378.97L729.52,373.6L731.42,368.38L733.32,363.3L735.21,358.35L737.11,353.54L739.01,348.86L740.91,344.3L742.8,339.87L744.7,335.55L746.6,331.35L748.5,327.27L750.39,323.29L752.29,319.42L754.19,315.65L756.09,311.98L757.99,308.41L759.88,304.93L761.78,301.54L763.68,298.25L765.58,295.03L767.47,291.9L769.37,288.86L771.27,285.89L773.17,282.99L775.06,280.17L776.96,277.42L778.86,274.75L780.76,272.13L782.66,269.59L784.55,267.1L786.45,264.68L788.35,262.32L790.25,260.02L792.14,257.77L794.04,255.58L795.94,253.44L797.84,251.35L799.74,249.31L801.63,247.32L803.53,245.38L805.43,243.48L807.33,241.63L809.22,239.82L811.12,238.05L813.02,236.32L814.92,234.63L816.81,232.99L818.71,231.37L820.61,229.8L822.51,228.26L824.41,226.75L826.3,225.28L828.2,223.84L830.1,222.43L832,221.05L833.89,219.7L835.79,218.38L837.69,217.09L839.59,215.83L841.48,214.59L843.38,213.38L845.28,212.19L847.18,211.03L849.08,209.89L850.97,208.78L852.87,207.69L854.77,206.62L856.67,205.57L858.56,204.55L860.46,203.54L862.36,202.56L864.26,201.59L866.16,200.64L868.05,199.72L869.95,198.81L871.85,197.91L873.75,197.04L875.64,196.18L877.54,195.34L879.44,194.51L881.34,193.7L883.23,192.9L885.13,192.12L887.03,191.36L888.93,190.6L890.83,189.86L892.72,189.14L894.62,188.43L896.52,187.73L898.42,187.04L900.31,186.37L902.21,185.71L904.11,185.06L906.01,184.42L907.9,183.79L909.8,183.17L911.7,182.57L913.6,181.97L915.5,181.38L917.39,180.81L919.29,180.24L921.19,179.69L923.09,179.14L924.98,178.6L926.88,178.07L928.78,177.55L930.68,177.04L932.58,176.54L934.47,176.04L936.37,175.56L938.27,175.08L940.17,174.6L942.06,174.14L943.96,173.68L945.86,173.24L947.76,172.79L949.65,172.36L951.55,171.93L953.45,171.51L955.35,171.09L957.25,170.68L959.14,170.28L961.04,169.88L962.94,169.49L964.84,169.11L966.73,168.73L968.63,168.36L970.53,167.99L972.43,167.63L974.32,167.27L976.22,166.92L978.12,166.57L980.02,166.23L981.92,165.9L983.81,165.56L985.71,165.24L987.61,164.91L989.51,164.6L991.4,164.28L993.3,163.98L995.2,163.67L997.1,163.37L999,163.08L1000.9,162.78L1002.8,162.5L1004.7,162.21L1006.6,161.93L1008.5,161.66L1010.4,161.38L1012.3,161.12L1014.2,160.85L1016.1,160.59L1018,160.33L1019.9,160.08L1021.8,159.83L1023.7,159.58L1025.6,159.33L1027.5,159.09L1029.4,158.85L1031.3,158.62L1033.2,158.39L1035.1,158.16L1036.9,157.93L1038.8,157.71L1040.7,157.49L1042.6,157.27L1044.5,157.05L1046.4,156.84L1048.3,156.63" style="fill:none;stroke:#637CC6;stroke-width:3" />
<path d="M533.11,487.57L697.19,487.57" style="fill:none;stroke:#637CC6;stroke-width:4;stroke-dasharray:15,5" />
<path d="M113.87,122.35A3,3 0 1 1 107.87,122.35A3,3 0 1 1 113.87,122.35Z" style="fill:#FFB66E" />
<path d="M123.35,124.1A3,3 0 1 1 117.35,124.1A3,3 0 1 1 123.35,124.1Z" style="fill:#FFB66E" />
<path d="M132.84,125.44A3,3 0 1 1 126.84,125.44A3,3 0 1 1 132.84,125.44Z" style="fill:#FFB66E" />
<path d="M142.33,126.3A3,3 0 1 1 136.33,126.3A3,3 0 1 1 142.33,126.3Z" style="fill:#FFB66E" />
<path d="M151.82,128.02A3,3 0 1 1 145.82,128.02A3,3 0 1 1 151.82,128.02Z" style="fill:#FFB66E" />
<path d="M161.31,132.4A3,3 0 1 1 155.31,132.4A3,3 0 1 1 161.31,132.4Z" style="fill:#FFB66E" />
<path d="M170.8,125.8A3,3 0 1 1 164.8,125.8A3,3 0 1 1 170.8,125.8Z" style="fill:#FFB66E" />
<path d="M180.29,126.08A3,3 0 1 1 174.29,126.08A3,3 0 1 1 180.29,126.08Z" style="fill:#FFB66E" />
<path d="M189.77,129.54A3,3 0 1 1 183.77,129.54A3,3 0 1 1 189.77,129.54Z" style="fill:#FFB66E" />
<path d="M199.26,132.47A3,3 0 1 1 193.26,132.47A3,3 0 1 1 199.26,132.47Z" style="fill:#FFB66E" />
<path d="M208.75,140.03A3,3 0 1 1 202.75,140.03A3,3 0 1 1 208.75,140.03Z" style="fill:#FFB66E" />
<path d="M218.24,135.12A3,3 0 1 1 212.24,135.12A3,3 0 1 1 218.24,135.12Z" style="fill:#FFB66E" />
<path d="M227.73,138.67A3,3 0 1 1 221.73,138.67A3,3 0 1 1 227.73,138.67Z" style="fill:#FFB66E" />
<path d="M237.22,139.38A3,3 0 1 1 231.22,139.38A3,3 0 1 1 237.22,139.38Z" style="fill:#FFB66E" />
<path d="M246.71,141.64A3,3 0 1 1 240.71,141.64A3,3 0 1 1 246.71,141.64Z" style="fill:#FFB66E" />
<path d="M256.19,141.91A3,3 0 1 1 250.19,141.91A3,3 0 1 1 256.19,141.91Z" style="fill:#FFB66E" />
<path d="M265.68,142.94A3,3 0 1 1 259.68,142.94A3,3 0 1 1 265.68,142.94Z" style="fill:#FFB66E" />
<path d="M275.17,146.88A3,3 0 1 1 269.17,146.88A3,3 0 1 1 275.17,146.88Z" style="fill:#FFB66E" />
<path d="M284.66,156.01A3,3 0 1 1 278.66,156.01A3,3 0 1 1 284.66,156.01Z" style="fill:#FFB66E" />
<path d="M294.15,155.82A3,3 0 1 1 288.15,155.82A3,3 0 1 1 294.15,155.82Z" style="fill:#FFB66E" />
<path d="M303.64,164.08A3,3 0 1 1 297.64,164.08A3,3 0 1 1 303.64,164.08Z" style="fill:#FFB66E" />
<path d="M313.13,161.18A3,3 0 1 1 307.13,161.18A3,3 0 1 1 313.13,161.18Z" style="fill:#FFB66E" />
<path d="M322.61,164.51A3,3 0 1 1 316.61,164.51A3,3 0 1 1 322.61,164.51Z" style="fill:#FFB66E" />
<path d="M332.1,173.31A3,3 0 1 1 326.1,173.31A3,3 0 1 1 332.1,173.31Z" style="fill:#FFB66E" />
<path d="M341.59,180.06A3,3 0 1 1 335.59,180.06A3,3 0 1 1 341.59,180.06Z" style="fill:#FFB66E" />
<path d="M351.08,186.36A3,3 0 1 1 345.08,186.36A3,3 0 1 1 351.08,186.36Z" style="fill:#FFB66E" />
<path d="M360.57,184.13A3,3 0 1 1 354.57,184.13A3,3 0 1 1 360.57,184.13Z" style="fill:#FFB66E" />
<path d="M370.06,197.35A3,3 0 1 1 364.06,197.35A3,3 0 1 1 370.06,197.35Z" style="fill:#FFB66E" />
<path d="M379.55,198.74A3,3 0 1 1 373.55,198.74A3,3 0 1 1 379.55,198.74Z" style="fill:#FFB66E" />
<path d="M389.03,205.3A3,3 0 1 1 383.03,205.3A3,3 0 1 1 389.03,205.3Z" style="fill:#FFB66E" />
<path d="M398.52,213.59A3,3 0 1 1 392.52,213.59A3,3 0 1 1 398.52,213.59Z" style="fill:#FFB66E" />
<path d="M408.01,225.93A3,3 0 1 1 402.01,225.93A3,3 0 1 1 408.01,225.93Z" style="fill:#FFB66E" />
<path d="M417.5,233.36A3,3 0 1 1 411.5,233.36A3,3 0 1 1 417.5,233.36Z" style="fill:#FFB66E" />
<path d="M426.99,242.05A3,3 0 1 1 420.99,242.05A3,3 0 1 1 426.99,242.05Z" style="fill:#FFB66E" />
<path d="M436.48,254.4A3,3 0 1 1 430.48,254.4A3,3 0 1 1 436.48,254.4Z" style="fill:#FFB66E" />
<path d="M445.97,258.08A3,3 0 1 1 439.97,258.08A3,3 0 1 1 445.97,258.08Z" style="fill:#FFB66E" />
<path d="M455.45,272.16A3,3 0 1 1 449.45,272.16A3,3 0 1 1 455.45,272.16Z" style="fill:#FFB66E" />
<path d="M464.94,287.44A3,3 0 1 1 458.94,287.44A3,3 0 1 1 464.94,287.44Z" style="fill:#FFB66E" />
<path d="M474.43,316.41A3,3 0 1 1 468.43,316.41A3,3 0 1 1 474.43,316.41Z" style="fill:#FFB66E" />
<path d="M483.92,327.08A3,3 0 1 1 477.92,327.08A3,3 0 1 1 483.92,327.08Z" style="fill:#FFB66E" />
<path d="M493.41,346.28A3,3 0 1 1 487.41,346.28A3,3 0 1 1 493.41,346.28Z" style="fill:#FFB66E" />
<path d="M502.9,377.27A3,3 0 1 1 496.9,377.27A3,3 0 1 1 502.9,377.27Z" style="fill:#FFB66E" />
<path d="M512.39,413.03A3,3 0 1 1 506.39,413.03A3,3 0 1 1 512.39,413.03Z" style="fill:#FFB66E" />
<path d="M521.87,442.03A3,3 0 1 1 515.87,442.03A3,3 0 1 1 521.87,442.03Z" style="fill:#FFB66E" />
<path d="M531.36,481.68A3,3 0 1 1 525.36,481.68A3,3 0 1 1 531.36,481.68Z" style="fill:#FFB66E" />
<path d="M540.85,517.21A3,3 0 1 1 534.85,517.21A3,3 0 1 1 540.85,517.21Z" style="fill:#FFB66E" />
<path d="M550.34,568.3A3,3 0 1 1 544.34,568.3A3,3 0 1 1 550.34,568.3Z" style="fill:#FFB66E" />
<path d="M559.83,617.45A3,3 0 1 1 553.83,617.45A3,3 0 1 1 559.83,617.45Z" style="fill:#FFB66E" />
<path d="M569.32,663.55A3,3 0 1 1 563.32,663.55A3,3 0 1 1 569.32,663.55Z" style="fill:#FFB66E" />
<path d="M578.81,714.18A3,3 0 1 1 572.81,714.18A3,3 0 1 1 578.81,714.18Z" style="fill:#FFB66E" />
<path d="M588.29,758.39A3,3 0 1 1 582.29,758.39A3,3 0 1 1 588.29,758.39Z" style="fill:#FFB66E" />
<path d="M597.78,785.17A3,3 0 1 1 591.78,785.17A3,3 0 1 1 597.78,785.17Z" style="fill:#FFB66E" />
<path d="M607.27,813.16A3,3 0 1 1 601.27,813.16A3,3 0 1 1 607.27,813.16Z" style="fill:#FFB66E" />
<path d="M616.76,828.1A3,3 0 1 1 610.76,828.1A3,3 0 1 1 616.76,828.1Z" style="fill:#FFB66E" />
<path d="M626.25,815.74A3,3 0 1 1 620.25,815.74A3,3 0 1 1 626.25,815.74Z" style="fill:#FFB66E" />
<path d="M635.74,785.34A3,3 0 1 1 629.74,785.34A3,3 0 1 1 635.74,785.34Z" style="fill:#FFB66E" />
<path d="M645.22,764.12A3,3 0 1 1 639.22,764.12A3,3 0 1 1 645.22,764.12Z" style="fill:#FFB66E" />
<path d="M654.71,715.37A3,3 0 1 1 648.71,715.37A3,3 0 1 1 654.71,715.37Z" style="fill:#FFB66E" />
<path d="M664.2,674.95A3,3 0 1 1 658.2,674.95A3,3 0 1 1 664.2,674.95Z" style="fill:#FFB66E" />
<path d="M673.69,630.54A3,3 0 1 1 667.69,630.54A3,3 0 1 1 673.69,630.54Z" style="fill:#FFB66E" />
<path d="M683.18,571.02A3,3 0 1 1 677.18,571.02A3,3 0 1 1 683.18,571.02Z" style="fill:#FFB66E" />
<path d="M692.67,529.81A3,3 0 1 1 686.67,529.81A3,3 0 1 1 692.67,529.81Z" style="fill:#FFB66E" />
<path d="M702.16,496.48A3,3 0 1 1 696.16,496.48A3,3 0 1 1 702.16,496.48Z" style="fill:#FFB66E" />
<path d="M711.64,451A3,3 0 1 1 705.64,451A3,3 0 1 1 711.64,451Z" style="fill:#FFB66E" />
<path d="M721.13,423.47A3,3 0 1 1 715.13,423.47A3,3 0 1 1 721.13,423.47Z" style="fill:#FFB66E" />
<path d="M730.62,391.4A3,3 0 1 1 724.62,391.4A3,3 0 1 1 730.62,391.4Z" style="fill:#FFB66E" />
<path d="M740.11,356.28A3,3 0 1 1 734.11,356.28A3,3 0 1 1 740.11,356.28Z" style="fill:#FFB66E" />
<path d="M749.6,335.6A3,3 0 1 1 743.6,335.6A3,3 0 1 1 749.6,335.6Z" style="fill:#FFB66E" />
<path d="M759.09,321.35A3,3 0 1 1 753.09,321.35A3,3 0 1 1 759.09,321.35Z" style="fill:#FFB66E" />
<path d="M768.58,297.81A3,3 0 1 1 762.58,297.81A3,3 0 1 1 768.58,297.81Z" style="fill:#FFB66E" />
<path d="M778.06,279.2A3,3 0 1 1 772.06,279.2A3,3 0 1 1 778.06,279.2Z" style="fill:#FFB66E" />
<path d="M787.55,264.38A3,3 0 1 1 781.55,264.38A3,3 0 1 1 787.55,264.38Z" style="fill:#FFB66E" />
<path d="M797.04,249.35A3,3 0 1 1 791.04,249.35A3,3 0 1 1 797.04,249.35Z" style="fill:#FFB66E" />
<path d="M806.53,237.99A3,3 0 1 1 800.53,237.99A3,3 0 1 1 806.53,237.99Z" style="fill:#FFB66E" />
<path d="M816.02,223.7A3,3 0 1 1 810.02,223.7A3,3 0 1 1 816.02,223.7Z" style="fill:#FFB66E" />
<path d="M825.51,214.94A3,3 0 1 1 819.51,214.94A3,3 0 1 1 825.51,214.94Z" style="fill:#FFB66E" />
<path d="M835,212.53A3,3 0 1 1 829,212.53A3,3 0 1 1 835,212.53Z" style="fill:#FFB66E" />
<path d="M844.48,203.93A3,3 0 1 1 838.48,203.93A3,3 0 1 1 844.48,203.93Z" style="fill:#FFB66E" />
<path d="M853.97,197.31A3,3 0 1 1 847.97,197.31A3,3 0 1 1 853.97,197.31Z" style="fill:#FFB66E" />
<path d="M863.46,197.64A3,3 0 1 1 857.46,197.64A3,3 0 1 1 863.46,197.64Z" style="fill:#FFB66E" />
<path d="M872.95,184.3A3,3 0 1 1 866.95,184.3A3,3 0 1 1 872.95,184.3Z" style="fill:#FFB66E" />
<path d="M882.44,186.74A3,3 0 1 1 876.44,186.74A3,3 0 1 1 882.44,186.74Z" style="fill:#FFB66E" />
<path d="M891.93,177.28A3,3 0 1 1 885.93,177.28A3,3 0 1 1 891.93,177.28Z" style="fill:#FFB66E" />
<path d="M901.42,172.86A3,3 0 1 1 895.42,172.86A3,3 0 1 1 901.42,172.86Z" style="fill:#FFB66E" />
<path d="M910.9,165.15A3,3 0 1 1 904.9,165.15A3,3 0 1 1 910.9,165.15Z" style="fill:#FFB66E" />
<path d="M920.39,169.68A3,3 0 1 1 914.39,169.68A3,3 0 1 1 920.39,169.68Z" style="fill:#FFB66E" />
<path d="M929.88,164.87A3,3 0 1 1 923.88,164.87A3,3 0 1 1 929.88,164.87Z" style="fill:#FFB66E" />
<path d="M939.37,153.58A3,3 0 1 1 933.37,153.58A3,3 0 1 1 939.37,153.58Z" style="fill:#FFB66E" />
<path d="M948.86,156.53A3,3 0 1 1 942.86,156.53A3,3 0 1 1 948.86,156.53Z" style="fill:#FFB66E" />
<path d="M958.35,161.03A3,3 0 1 1 952.35,161.03A3,3 0 1 1 958.35,161.03Z" style="fill:#FFB66E" />
<path d="M967.84,154.42A3,3 0 1 1 961.84,154.42A3,3 0 1 1 967.84,154.42Z" style="fill:#FFB66E" />
<path d="M977.32,145.62A3,3 0 1 1 971.32,145.62A3,3 0 1 1 977.32,145.62Z" style="fill:#FFB66E" />
<path d="M986.81,142.24A3,3 0 1 1 980.81,142.24A3,3 0 1 1 986.81,142.24Z" style="fill:#FFB66E" />
<path d="M996.3,142.23A3,3 0 1 1 990.3,142.23A3,3 0 1 1 996.3,142.23Z" style="fill:#FFB66E" />
<path d="M1005.8,145.99A3,3 0 1 1 999.79,145.99A3,3 0 1 1 1005.8,145.99Z" style="fill:#FFB66E" />
<path d="M1015.3,140.61A3,3 0 1 1 1009.3,140.61A3,3 0 1 1 1015.3,140.61Z" style="fill:#FFB66E" />
<path d="M1024.8,143.34A3,3 0 1 1 1018.8,143.34A3,3 0 1 1 1024.8,143.34Z" style="fill:#FFB66E" />
<path d="M1034.3,130.31A3,3 0 1 1 1028.3,130.31A3,3 0 1 1 1034.3,130.31Z" style="fill:#FFB66E" />
<path d="M1043.7,134.46A3,3 0 1 1 1037.7,134.46A3,3 0 1 1 1043.7,134.46Z" style="fill:#FFB66E" />
<path d="M1053.2,137.5A3,3 0 1 1 1047.2,137.5A3,3 0 1 1 1053.2,137.5Z" style="fill:#FFB66E" />
<path d="M106.12,962.84L1055,962.84" style="fill:none;stroke:#000000" />
<path d="M1055,104.32L1055,962.84" style="fill:none;stroke:#000000" />
<path d="M110.87,150.3L112.76,150.43L114.66,150.57L116.56,150.71L118.46,150.85L120.35,150.99L122.25,151.13L124.15,151.28L126.05,151.42L127.94,151.57L129.84,151.72L131.74,151.87L133.64,152.02L135.54,152.18L137.43,152.33L139.33,152.49L141.23,152.65L143.13,152.81L145.02,152.97L146.92,153.14L148.82,153.31L150.72,153.48L152.62,153.65L154.51,153.82L156.41,154L158.31,154.17L160.21,154.35L162.1,154.53L164,154.72L165.9,154.9L167.8,155.09L169.69,155.28L171.59,155.48L173.49,155.67L175.39,155.87L177.29,156.07L179.18,156.27L181.08,156.48L182.98,156.69L184.88,156.9L186.77,157.11L188.67,157.33L190.57,157.54L192.47,157.77L194.36,157.99L196.26,158.22L198.16,158.45L200.06,158.68L201.96,158.92L203.85,159.16L205.75,159.4L207.65,159.65L209.55,159.9L211.44,160.15L213.34,160.4L215.24,160.66L217.14,160.93L219.04,161.19L220.93,161.46L222.83,161.74L224.73,162.01L226.63,162.3L228.52,162.58L230.42,162.87L232.32,163.16L234.22,163.46L236.11,163.76L238.01,164.07L239.91,164.38L241.81,164.69L243.71,165.01L245.6,165.34L247.5,165.67L249.4,166L251.3,166.34L253.19,166.68L255.09,167.03L256.99,167.38L258.89,167.74L260.78,168.11L262.68,168.48L264.58,168.85L266.48,169.23L268.38,169.62L270.27,170.01L272.17,170.41L274.07,170.82L275.97,171.23L277.86,171.65L279.76,172.07L281.66,172.51L283.56,172.94L285.45,173.39L287.35,173.84L289.25,174.3L291.15,174.77L293.05,175.24L294.94,175.73L296.84,176.22L298.74,176.71L300.64,177.22L302.53,177.74L304.43,178.26L306.33,178.79L308.23,179.34L310.13,179.89L312.02,180.45L313.92,181.02L315.82,181.6L317.72,182.19L319.61,182.79L321.51,183.4L323.41,184.02L325.31,184.66L327.2,185.3L329.1,185.96L331,186.62L332.9,187.3L334.8,188L336.69,188.7L338.59,189.42L340.49,190.15L342.39,190.89L344.28,191.65L346.18,192.43L348.08,193.21L349.98,194.02L351.87,194.84L353.77,195.67L355.67,196.52L357.57,197.39L359.47,198.27L361.36,199.17L363.26,200.09L365.16,201.03L367.06,201.98L368.95,202.96L370.85,203.95L372.75,204.97L374.65,206L376.55,207.06L378.44,208.14L380.34,209.24L382.24,210.37L384.14,211.52L386.03,212.69L387.93,213.89L389.83,215.11L391.73,216.36L393.62,217.64L395.52,218.94L397.42,220.28L399.32,221.64L401.22,223.03L403.11,224.46L405.01,225.91L406.91,227.4L408.81,228.92L410.7,230.48L412.6,232.07L414.5,233.7L416.4,235.37L418.29,237.08L420.19,238.83L422.09,240.61L423.99,242.44L425.89,244.32L427.78,246.24L429.68,248.2L431.58,250.22L433.48,252.28L435.37,254.39L437.27,256.56L439.17,258.78L441.07,261.05L442.97,263.38L444.86,265.77L446.76,268.23L448.66,270.74L450.56,273.32L452.45,275.96L454.35,278.67L456.25,281.45L458.15,284.31L460.04,287.24L461.94,290.25L463.84,293.33L465.74,296.5L467.64,299.75L469.53,303.09L471.43,306.52L473.33,310.05L475.23,313.66L477.12,317.38L479.02,321.19L480.92,325.12L482.82,329.14L484.71,333.28L486.61,337.53L488.51,341.9L490.41,346.39L492.31,351L494.2,355.74L496.1,360.61L498,365.62L499.9,370.76L501.79,376.05L503.69,381.48L505.59,387.06L507.49,392.79L509.39,398.67L511.28,404.72L513.18,410.93L515.08,417.31L516.98,423.85L518.87,430.57L520.77,437.46L522.67,444.54L524.57,451.79L526.46,459.23L528.36,466.85L530.26,474.65L532.16,482.65L534.06,490.83L535.95,499.19L537.85,507.75L539.75,516.49L541.65,525.41L543.54,534.51L545.44,543.78L547.34,553.22L549.24,562.83L551.13,572.59L553.03,582.5L554.93,592.54L556.83,602.7L558.73,612.98L560.62,623.35L562.52,633.79L564.42,644.29L566.32,654.83L568.21,665.38L570.11,675.91L572.01,686.41L573.91,696.84L575.81,707.17L577.7,717.36L579.6,727.38L581.5,737.21L583.4,746.78L585.29,756.08L587.19,765.06L589.09,773.68L590.99,781.89L592.88,789.67L594.78,796.97L596.68,803.74L598.58,809.96L600.48,815.6L602.37,820.6L604.27,824.96L606.17,828.64L608.07,831.62L609.96,833.87L611.86,835.4L613.76,836.18L615.66,836.21L617.55,835.5L619.45,834.04L621.35,831.84L623.25,828.93L625.15,825.31L627.04,821.01L628.94,816.06L630.84,810.48L632.74,804.31L634.63,797.58L636.53,790.33L638.43,782.6L640.33,774.42L642.22,765.83L644.12,756.88L646.02,747.61L647.92,738.06L649.82,728.26L651.71,718.25L653.61,708.07L655.51,697.75L657.41,687.33L659.3,676.84L661.2,666.3L663.1,655.76L665,645.22L666.9,634.71L668.79,624.26L670.69,613.89L672.59,603.6L674.49,593.43L676.38,583.37L678.28,573.45L680.18,563.68L682.08,554.06L683.97,544.6L685.87,535.31L687.77,526.2L689.67,517.26L691.57,508.51L693.46,499.94L695.36,491.55L697.26,483.36L699.16,475.35L701.05,467.52L702.95,459.89L704.85,452.44L706.75,445.17L708.64,438.08L710.54,431.17L712.44,424.43L714.34,417.87L716.24,411.48L718.13,405.26L720.03,399.2L721.93,393.3L723.83,387.55L725.72,381.96L727.62,376.52L729.52,371.22L731.42,366.07L733.32,361.05L735.21,356.17L737.11,351.41L739.01,346.79L740.91,342.29L742.8,337.91L744.7,333.65L746.6,329.5L748.5,325.46L750.39,321.53L752.29,317.71L754.19,313.99L756.09,310.36L757.99,306.83L759.88,303.39L761.78,300.04L763.68,296.78L765.58,293.61L767.47,290.51L769.37,287.5L771.27,284.56L773.17,281.7L775.06,278.91L776.96,276.2L778.86,273.55L780.76,270.96L782.66,268.44L784.55,265.99L786.45,263.59L788.35,261.26L790.25,258.98L792.14,256.75L794.04,254.58L795.94,252.46L797.84,250.4L799.74,248.38L801.63,246.41L803.53,244.49L805.43,242.61L807.33,240.77L809.22,238.98L811.12,237.23L813.02,235.52L814.92,233.85L816.81,232.22L818.71,230.62L820.61,229.06L822.51,227.53L824.41,226.04L826.3,224.58L828.2,223.16L830.1,221.76L832,220.39L833.89,219.06L835.79,217.75L837.69,216.47L839.59,215.22L841.48,213.99L843.38,212.79L845.28,211.62L847.18,210.47L849.08,209.34L850.97,208.24L852.87,207.16L854.77,206.1L856.67,205.06L858.56,204.04L860.46,203.05L862.36,202.07L864.26,201.11L866.16,200.17L868.05,199.25L869.95,198.35L871.85,197.46L873.75,196.6L875.64,195.74L877.54,194.91L879.44,194.09L881.34,193.28L883.23,192.5L885.13,191.72L887.03,190.96L888.93,190.21L890.83,189.48L892.72,188.76L894.62,188.06L896.52,187.36L898.42,186.68L900.31,186.01L902.21,185.36L904.11,184.71L906.01,184.08L907.9,183.45L909.8,182.84L911.7,182.24L913.6,181.65L915.5,181.07L917.39,180.5L919.29,179.94L921.19,179.38L923.09,178.84L924.98,178.31L926.88,177.78L928.78,177.27L930.68,176.76L932.58,176.26L934.47,175.77L936.37,175.29L938.27,174.81L940.17,174.34L942.06,173.88L943.96,173.43L945.86,172.98L947.76,172.54L949.65,172.11L951.55,171.69L953.45,171.27L955.35,170.86L957.25,170.45L959.14,170.05L961.04,169.66L962.94,169.27L964.84,168.89L966.73,168.51L968.63,168.14L970.53,167.78L972.43,167.42L974.32,167.06L976.22,166.71L978.12,166.37L980.02,166.03L981.92,165.7L983.81,165.37L985.71,165.04L987.61,164.72L989.51,164.41L991.4,164.1L993.3,163.79L995.2,163.49L997.1,163.19L999,162.9L1000.9,162.61L1002.8,162.32L1004.7,162.04L1006.6,161.76L1008.5,161.49L1010.4,161.22L1012.3,160.95L1014.2,160.69L1016.1,160.43L1018,160.17L1019.9,159.92L1021.8,159.67L1023.7,159.42L1025.6,159.18L1027.5,158.94L1029.4,158.7L1031.3,158.47L1033.2,158.24L1035.1,158.01L1036.9,157.79L1038.8,157.56L1040.7,157.35L1042.6,157.13L1044.5,156.92L1046.4,156.7L1048.3,156.5" style="fill:none;stroke:#C28C56;stroke-width:3" />
<path d="M532.51,484.15L697.07,484.15" style="fill:none;stroke:#C28C56;stroke-width:4;stroke-dasharray:15,5" />
<text x="191.12" y="-899.95" transform="scale(1, -1)"
	style="font-family:Helvetica;font-weight:normal;font-style:normal;font-size:36px">Pump</text>
<path d="M162.12,867.02A6,6 0 1 1 150.12,867.02A6,6 0 1 1 162.12,867.02Z" style="fill:#1BAA8B" />
<text x="191.12" y="-858.54" transform="scale(1, -1)"
	style="font-family:Helvetica;font-weight:normal;font-style:normal;font-size:36px">0 mW</text>
<path d="M162.12,825.61A6,6 0 1 1 150.12,825.61A6,6 0 1 1 162.12,825.61Z" style="fill:#C96892" />
<text x="191.12" y="-817.13" transform="scale(1, -1)"
	style="font-family:Helvetica;font-weight:normal;font-style:normal;font-size:36px">55 mW</text>
<path d="M162.12,784.2A6,6 0 1 1 150.12,784.2A6,6 0 1 1 162.12,784.2Z" style="fill:#637CC6" />
<text x="191.12" y="-775.72" transform="scale(1, -1)"
	style="font-family:Helvetica;font-weight:normal;font-style:normal;font-size:36px">110 mW</text>
<path d="M162.12,742.79A6,6 0 1 1 150.12,742.79A6,6 0 1 1 162.12,742.79Z" style="fill:#C28C56" />
<text x="191.12" y="-734.3" transform="scale(1, -1)"
	style="font-family:Helvetica;font-weight:normal;font-style:normal;font-size:36px">139 mW</text>
</g>
</svg>
