<?xml version="1.0"?>
<!-- Generated by SVGo and Plotinum VG -->
<svg width="1080pt" height="1080pt" viewBox="0 0 1080 1080"
	xmlns="http://www.w3.org/2000/svg"
	xmlns:xlink="http://www.w3.org/1999/xlink">
<g transform="scale(1, -1) translate(0, -1080)">
<path d="M0,0L1080,0L1080,1080L0,1080Z" style="fill:#-8000000000000000-8000000000000000-8000000000000000;fill-opacity:0" />
<text x="471.92" y="-1039.5" transform="scale(1, -1)"
	style="font-family:Helvetica;font-weight:normal;font-style:normal;font-size:50px">CABS</text>
<text x="472.92" y="-11.039" transform="scale(1, -1)"
	style="font-family:Helvetica;font-weight:normal;font-style:normal;font-size:36px">Frequency (GHz)</text>
<path d="M142.31,108.44L1079.6,108.44" style="fill:none;stroke:#000000;stroke-width:1.5" />
<g transform="rotate(90)">
<text x="369.17" y="29.18" transform="scale(1, -1)"
	style="font-family:Helvetica;font-weight:normal;font-style:normal;font-size:36px">Spectral Density (uV)</text>
</g>
<text x="107.89" y="-95.246" transform="scale(1, -1)"
	style="font-family:Helvetica;font-weight:normal;font-style:normal;font-size:36px">0</text>
<text x="87.869" y="-343.77" transform="scale(1, -1)"
	style="font-family:Helvetica;font-weight:normal;font-style:normal;font-size:36px">50</text>
<text x="67.848" y="-592.29" transform="scale(1, -1)"
	style="font-family:Helvetica;font-weight:normal;font-style:normal;font-size:36px">100</text>
<text x="67.848" y="-840.81" transform="scale(1, -1)"
	style="font-family:Helvetica;font-weight:normal;font-style:normal;font-size:36px">150</text>
<path d="M153.91,104.32L145.91,104.32" style="fill:none;stroke:#000000;stroke-width:1.5" />
<path d="M149.91,228.58L145.91,228.58" style="fill:none;stroke:#000000;stroke-width:1.5" />
<path d="M153.91,352.84L145.91,352.84" style="fill:none;stroke:#000000;stroke-width:1.5" />
<path d="M149.91,477.1L145.91,477.1" style="fill:none;stroke:#000000;stroke-width:1.5" />
<path d="M153.91,601.36L145.91,601.36" style="fill:none;stroke:#000000;stroke-width:1.5" />
<path d="M149.91,725.62L145.91,725.62" style="fill:none;stroke:#000000;stroke-width:1.5" />
<path d="M153.91,849.88L145.91,849.88" style="fill:none;stroke:#000000;stroke-width:1.5" />
<path d="M149.91,974.14L145.91,974.14" style="fill:none;stroke:#000000;stroke-width:1.5" />
<path d="M145.91,104.32L145.91,974.14" style="fill:none;stroke:#000000;stroke-width:1.5" />
<path d="M147.91,130.19A3,3 0 1 1 141.91,130.19A3,3 0 1 1 147.91,130.19Z" style="fill:#BC75FF" />
<path d="M150.52,130.2A3,3 0 1 1 144.52,130.2A3,3 0 1 1 150.52,130.2Z" style="fill:#BC75FF" />
<path d="M153.12,132.4A3,3 0 1 1 147.12,132.4A3,3 0 1 1 153.12,132.4Z" style="fill:#BC75FF" />
<path d="M155.72,131.41A3,3 0 1 1 149.72,131.41A3,3 0 1 1 155.72,131.41Z" style="fill:#BC75FF" />
<path d="M158.33,132.87A3,3 0 1 1 152.33,132.87A3,3 0 1 1 158.33,132.87Z" style="fill:#BC75FF" />
<path d="M160.93,133.56A3,3 0 1 1 154.93,133.56A3,3 0 1 1 160.93,133.56Z" style="fill:#BC75FF" />
<path d="M163.54,133.73A3,3 0 1 1 157.54,133.73A3,3 0 1 1 163.54,133.73Z" style="fill:#BC75FF" />
<path d="M166.14,134.88A3,3 0 1 1 160.14,134.88A3,3 0 1 1 166.14,134.88Z" style="fill:#BC75FF" />
<path d="M168.74,135.06A3,3 0 1 1 162.74,135.06A3,3 0 1 1 168.74,135.06Z" style="fill:#BC75FF" />
<path d="M171.35,134.85A3,3 0 1 1 165.35,134.85A3,3 0 1 1 171.35,134.85Z" style="fill:#BC75FF" />
<path d="M173.95,134.8A3,3 0 1 1 167.95,134.8A3,3 0 1 1 173.95,134.8Z" style="fill:#BC75FF" />
<path d="M176.55,134.65A3,3 0 1 1 170.55,134.65A3,3 0 1 1 176.55,134.65Z" style="fill:#BC75FF" />
<path d="M179.16,136.63A3,3 0 1 1 173.16,136.63A3,3 0 1 1 179.16,136.63Z" style="fill:#BC75FF" />
<path d="M181.76,137.28A3,3 0 1 1 175.76,137.28A3,3 0 1 1 181.76,137.28Z" style="fill:#BC75FF" />
<path d="M184.36,137.82A3,3 0 1 1 178.36,137.82A3,3 0 1 1 184.36,137.82Z" style="fill:#BC75FF" />
<path d="M186.97,137.72A3,3 0 1 1 180.97,137.72A3,3 0 1 1 186.97,137.72Z" style="fill:#BC75FF" />
<path d="M189.57,137.87A3,3 0 1 1 183.57,137.87A3,3 0 1 1 189.57,137.87Z" style="fill:#BC75FF" />
<path d="M192.18,138.5A3,3 0 1 1 186.18,138.5A3,3 0 1 1 192.18,138.5Z" style="fill:#BC75FF" />
<path d="M194.78,140.63A3,3 0 1 1 188.78,140.63A3,3 0 1 1 194.78,140.63Z" style="fill:#BC75FF" />
<path d="M197.38,140.35A3,3 0 1 1 191.38,140.35A3,3 0 1 1 197.38,140.35Z" style="fill:#BC75FF" />
<path d="M199.99,140.56A3,3 0 1 1 193.99,140.56A3,3 0 1 1 199.99,140.56Z" style="fill:#BC75FF" />
<path d="M202.59,140.12A3,3 0 1 1 196.59,140.12A3,3 0 1 1 202.59,140.12Z" style="fill:#BC75FF" />
<path d="M205.19,141.9A3,3 0 1 1 199.19,141.9A3,3 0 1 1 205.19,141.9Z" style="fill:#BC75FF" />
<path d="M207.8,141.45A3,3 0 1 1 201.8,141.45A3,3 0 1 1 207.8,141.45Z" style="fill:#BC75FF" />
<path d="M210.4,141.21A3,3 0 1 1 204.4,141.21A3,3 0 1 1 210.4,141.21Z" style="fill:#BC75FF" />
<path d="M213,144.93A3,3 0 1 1 207,144.93A3,3 0 1 1 213,144.93Z" style="fill:#BC75FF" />
<path d="M215.61,144.06A3,3 0 1 1 209.61,144.06A3,3 0 1 1 215.61,144.06Z" style="fill:#BC75FF" />
<path d="M218.21,147.01A3,3 0 1 1 212.21,147.01A3,3 0 1 1 218.21,147.01Z" style="fill:#BC75FF" />
<path d="M220.81,145.63A3,3 0 1 1 214.81,145.63A3,3 0 1 1 220.81,145.63Z" style="fill:#BC75FF" />
<path d="M223.42,146.4A3,3 0 1 1 217.42,146.4A3,3 0 1 1 223.42,146.4Z" style="fill:#BC75FF" />
<path d="M226.02,147.66A3,3 0 1 1 220.02,147.66A3,3 0 1 1 226.02,147.66Z" style="fill:#BC75FF" />
<path d="M228.63,148.9A3,3 0 1 1 222.63,148.9A3,3 0 1 1 228.63,148.9Z" style="fill:#BC75FF" />
<path d="M231.23,147.35A3,3 0 1 1 225.23,147.35A3,3 0 1 1 231.23,147.35Z" style="fill:#BC75FF" />
<path d="M233.83,148.21A3,3 0 1 1 227.83,148.21A3,3 0 1 1 233.83,148.21Z" style="fill:#BC75FF" />
<path d="M236.44,150.11A3,3 0 1 1 230.44,150.11A3,3 0 1 1 236.44,150.11Z" style="fill:#BC75FF" />
<path d="M239.04,149.21A3,3 0 1 1 233.04,149.21A3,3 0 1 1 239.04,149.21Z" style="fill:#BC75FF" />
<path d="M241.64,151.61A3,3 0 1 1 235.64,151.61A3,3 0 1 1 241.64,151.61Z" style="fill:#BC75FF" />
<path d="M244.25,151.55A3,3 0 1 1 238.25,151.55A3,3 0 1 1 244.25,151.55Z" style="fill:#BC75FF" />
<path d="M246.85,152.78A3,3 0 1 1 240.85,152.78A3,3 0 1 1 246.85,152.78Z" style="fill:#BC75FF" />
<path d="M249.45,153.33A3,3 0 1 1 243.45,153.33A3,3 0 1 1 249.45,153.33Z" style="fill:#BC75FF" />
<path d="M252.06,155.41A3,3 0 1 1 246.06,155.41A3,3 0 1 1 252.06,155.41Z" style="fill:#BC75FF" />
<path d="M254.66,155.14A3,3 0 1 1 248.66,155.14A3,3 0 1 1 254.66,155.14Z" style="fill:#BC75FF" />
<path d="M257.26,155.36A3,3 0 1 1 251.26,155.36A3,3 0 1 1 257.26,155.36Z" style="fill:#BC75FF" />
<path d="M259.87,156.95A3,3 0 1 1 253.87,156.95A3,3 0 1 1 259.87,156.95Z" style="fill:#BC75FF" />
<path d="M262.47,154.29A3,3 0 1 1 256.47,154.29A3,3 0 1 1 262.47,154.29Z" style="fill:#BC75FF" />
<path d="M265.08,159.2A3,3 0 1 1 259.08,159.2A3,3 0 1 1 265.08,159.2Z" style="fill:#BC75FF" />
<path d="M267.68,158.22A3,3 0 1 1 261.68,158.22A3,3 0 1 1 267.68,158.22Z" style="fill:#BC75FF" />
<path d="M270.28,159.8A3,3 0 1 1 264.28,159.8A3,3 0 1 1 270.28,159.8Z" style="fill:#BC75FF" />
<path d="M272.89,161.57A3,3 0 1 1 266.89,161.57A3,3 0 1 1 272.89,161.57Z" style="fill:#BC75FF" />
<path d="M275.49,161.11A3,3 0 1 1 269.49,161.11A3,3 0 1 1 275.49,161.11Z" style="fill:#BC75FF" />
<path d="M278.09,164.76A3,3 0 1 1 272.09,164.76A3,3 0 1 1 278.09,164.76Z" style="fill:#BC75FF" />
<path d="M280.7,163.15A3,3 0 1 1 274.7,163.15A3,3 0 1 1 280.7,163.15Z" style="fill:#BC75FF" />
<path d="M283.3,165.85A3,3 0 1 1 277.3,165.85A3,3 0 1 1 283.3,165.85Z" style="fill:#BC75FF" />
<path d="M285.9,164.54A3,3 0 1 1 279.9,164.54A3,3 0 1 1 285.9,164.54Z" style="fill:#BC75FF" />
<path d="M288.51,167.32A3,3 0 1 1 282.51,167.32A3,3 0 1 1 288.51,167.32Z" style="fill:#BC75FF" />
<path d="M291.11,168.7A3,3 0 1 1 285.11,168.7A3,3 0 1 1 291.11,168.7Z" style="fill:#BC75FF" />
<path d="M293.72,171.3A3,3 0 1 1 287.72,171.3A3,3 0 1 1 293.72,171.3Z" style="fill:#BC75FF" />
<path d="M296.32,170.13A3,3 0 1 1 290.32,170.13A3,3 0 1 1 296.32,170.13Z" style="fill:#BC75FF" />
<path d="M298.92,170.79A3,3 0 1 1 292.92,170.79A3,3 0 1 1 298.92,170.79Z" style="fill:#BC75FF" />
<path d="M301.53,171.72A3,3 0 1 1 295.53,171.72A3,3 0 1 1 301.53,171.72Z" style="fill:#BC75FF" />
<path d="M304.13,173.1A3,3 0 1 1 298.13,173.1A3,3 0 1 1 304.13,173.1Z" style="fill:#BC75FF" />
<path d="M306.73,176.59A3,3 0 1 1 300.73,176.59A3,3 0 1 1 306.73,176.59Z" style="fill:#BC75FF" />
<path d="M309.34,177.29A3,3 0 1 1 303.34,177.29A3,3 0 1 1 309.34,177.29Z" style="fill:#BC75FF" />
<path d="M311.94,177.05A3,3 0 1 1 305.94,177.05A3,3 0 1 1 311.94,177.05Z" style="fill:#BC75FF" />
<path d="M314.54,177.36A3,3 0 1 1 308.54,177.36A3,3 0 1 1 314.54,177.36Z" style="fill:#BC75FF" />
<path d="M317.15,179.45A3,3 0 1 1 311.15,179.45A3,3 0 1 1 317.15,179.45Z" style="fill:#BC75FF" />
<path d="M319.75,181.24A3,3 0 1 1 313.75,181.24A3,3 0 1 1 319.75,181.24Z" style="fill:#BC75FF" />
<path d="M322.35,182.96A3,3 0 1 1 316.35,182.96A3,3 0 1 1 322.35,182.96Z" style="fill:#BC75FF" />
<path d="M324.96,185.04A3,3 0 1 1 318.96,185.04A3,3 0 1 1 324.96,185.04Z" style="fill:#BC75FF" />
<path d="M327.56,187.19A3,3 0 1 1 321.56,187.19A3,3 0 1 1 327.56,187.19Z" style="fill:#BC75FF" />
<path d="M330.17,188.52A3,3 0 1 1 324.17,188.52A3,3 0 1 1 330.17,188.52Z" style="fill:#BC75FF" />
<path d="M332.77,190.66A3,3 0 1 1 326.77,190.66A3,3 0 1 1 332.77,190.66Z" style="fill:#BC75FF" />
<path d="M335.37,188.77A3,3 0 1 1 329.37,188.77A3,3 0 1 1 335.37,188.77Z" style="fill:#BC75FF" />
<path d="M337.98,192.19A3,3 0 1 1 331.98,192.19A3,3 0 1 1 337.98,192.19Z" style="fill:#BC75FF" />
<path d="M340.58,191.72A3,3 0 1 1 334.58,191.72A3,3 0 1 1 340.58,191.72Z" style="fill:#BC75FF" />
<path d="M343.18,193.76A3,3 0 1 1 337.18,193.76A3,3 0 1 1 343.18,193.76Z" style="fill:#BC75FF" />
<path d="M345.79,195.57A3,3 0 1 1 339.79,195.57A3,3 0 1 1 345.79,195.57Z" style="fill:#BC75FF" />
<path d="M348.39,197.82A3,3 0 1 1 342.39,197.82A3,3 0 1 1 348.39,197.82Z" style="fill:#BC75FF" />
<path d="M350.99,200.17A3,3 0 1 1 344.99,200.17A3,3 0 1 1 350.99,200.17Z" style="fill:#BC75FF" />
<path d="M353.6,201.72A3,3 0 1 1 347.6,201.72A3,3 0 1 1 353.6,201.72Z" style="fill:#BC75FF" />
<path d="M356.2,203.53A3,3 0 1 1 350.2,203.53A3,3 0 1 1 356.2,203.53Z" style="fill:#BC75FF" />
<path d="M358.81,206.26A3,3 0 1 1 352.81,206.26A3,3 0 1 1 358.81,206.26Z" style="fill:#BC75FF" />
<path d="M361.41,205.82A3,3 0 1 1 355.41,205.82A3,3 0 1 1 361.41,205.82Z" style="fill:#BC75FF" />
<path d="M364.01,210.22A3,3 0 1 1 358.01,210.22A3,3 0 1 1 364.01,210.22Z" style="fill:#BC75FF" />
<path d="M366.62,210.03A3,3 0 1 1 360.62,210.03A3,3 0 1 1 366.62,210.03Z" style="fill:#BC75FF" />
<path d="M369.22,212.5A3,3 0 1 1 363.22,212.5A3,3 0 1 1 369.22,212.5Z" style="fill:#BC75FF" />
<path d="M371.82,215.69A3,3 0 1 1 365.82,215.69A3,3 0 1 1 371.82,215.69Z" style="fill:#BC75FF" />
<path d="M374.43,216.85A3,3 0 1 1 368.43,216.85A3,3 0 1 1 374.43,216.85Z" style="fill:#BC75FF" />
<path d="M377.03,217.96A3,3 0 1 1 371.03,217.96A3,3 0 1 1 377.03,217.96Z" style="fill:#BC75FF" />
<path d="M379.63,221.42A3,3 0 1 1 373.63,221.42A3,3 0 1 1 379.63,221.42Z" style="fill:#BC75FF" />
<path d="M382.24,221.13A3,3 0 1 1 376.24,221.13A3,3 0 1 1 382.24,221.13Z" style="fill:#BC75FF" />
<path d="M384.84,229.48A3,3 0 1 1 378.84,229.48A3,3 0 1 1 384.84,229.48Z" style="fill:#BC75FF" />
<path d="M387.44,228.97A3,3 0 1 1 381.44,228.97A3,3 0 1 1 387.44,228.97Z" style="fill:#BC75FF" />
<path d="M390.05,231.8A3,3 0 1 1 384.05,231.8A3,3 0 1 1 390.05,231.8Z" style="fill:#BC75FF" />
<path d="M392.65,234.54A3,3 0 1 1 386.65,234.54A3,3 0 1 1 392.65,234.54Z" style="fill:#BC75FF" />
<path d="M395.26,236.68A3,3 0 1 1 389.26,236.68A3,3 0 1 1 395.26,236.68Z" style="fill:#BC75FF" />
<path d="M397.86,237.32A3,3 0 1 1 391.86,237.32A3,3 0 1 1 397.86,237.32Z" style="fill:#BC75FF" />
<path d="M400.46,241.5A3,3 0 1 1 394.46,241.5A3,3 0 1 1 400.46,241.5Z" style="fill:#BC75FF" />
<path d="M403.07,244.3A3,3 0 1 1 397.07,244.3A3,3 0 1 1 403.07,244.3Z" style="fill:#BC75FF" />
<path d="M405.67,245.56A3,3 0 1 1 399.67,245.56A3,3 0 1 1 405.67,245.56Z" style="fill:#BC75FF" />
<path d="M408.27,250.04A3,3 0 1 1 402.27,250.04A3,3 0 1 1 408.27,250.04Z" style="fill:#BC75FF" />
<path d="M410.88,249.31A3,3 0 1 1 404.88,249.31A3,3 0 1 1 410.88,249.31Z" style="fill:#BC75FF" />
<path d="M413.48,253.73A3,3 0 1 1 407.48,253.73A3,3 0 1 1 413.48,253.73Z" style="fill:#BC75FF" />
<path d="M416.08,255.31A3,3 0 1 1 410.08,255.31A3,3 0 1 1 416.08,255.31Z" style="fill:#BC75FF" />
<path d="M418.69,257.61A3,3 0 1 1 412.69,257.61A3,3 0 1 1 418.69,257.61Z" style="fill:#BC75FF" />
<path d="M421.29,260.78A3,3 0 1 1 415.29,260.78A3,3 0 1 1 421.29,260.78Z" style="fill:#BC75FF" />
<path d="M423.89,265.45A3,3 0 1 1 417.89,265.45A3,3 0 1 1 423.89,265.45Z" style="fill:#BC75FF" />
<path d="M426.5,270.28A3,3 0 1 1 420.5,270.28A3,3 0 1 1 426.5,270.28Z" style="fill:#BC75FF" />
<path d="M429.1,272.46A3,3 0 1 1 423.1,272.46A3,3 0 1 1 429.1,272.46Z" style="fill:#BC75FF" />
<path d="M431.71,276.29A3,3 0 1 1 425.71,276.29A3,3 0 1 1 431.71,276.29Z" style="fill:#BC75FF" />
<path d="M434.31,277.09A3,3 0 1 1 428.31,277.09A3,3 0 1 1 434.31,277.09Z" style="fill:#BC75FF" />
<path d="M436.91,287.02A3,3 0 1 1 430.91,287.02A3,3 0 1 1 436.91,287.02Z" style="fill:#BC75FF" />
<path d="M439.52,283.92A3,3 0 1 1 433.52,283.92A3,3 0 1 1 439.52,283.92Z" style="fill:#BC75FF" />
<path d="M442.12,289.14A3,3 0 1 1 436.12,289.14A3,3 0 1 1 442.12,289.14Z" style="fill:#BC75FF" />
<path d="M444.72,289.74A3,3 0 1 1 438.72,289.74A3,3 0 1 1 444.72,289.74Z" style="fill:#BC75FF" />
<path d="M447.33,294.93A3,3 0 1 1 441.33,294.93A3,3 0 1 1 447.33,294.93Z" style="fill:#BC75FF" />
<path d="M449.93,294.48A3,3 0 1 1 443.93,294.48A3,3 0 1 1 449.93,294.48Z" style="fill:#BC75FF" />
<path d="M452.53,300.39A3,3 0 1 1 446.53,300.39A3,3 0 1 1 452.53,300.39Z" style="fill:#BC75FF" />
<path d="M455.14,302.82A3,3 0 1 1 449.14,302.82A3,3 0 1 1 455.14,302.82Z" style="fill:#BC75FF" />
<path d="M457.74,304.67A3,3 0 1 1 451.74,304.67A3,3 0 1 1 457.74,304.67Z" style="fill:#BC75FF" />
<path d="M460.35,312.61A3,3 0 1 1 454.35,312.61A3,3 0 1 1 460.35,312.61Z" style="fill:#BC75FF" />
<path d="M462.95,316.77A3,3 0 1 1 456.95,316.77A3,3 0 1 1 462.95,316.77Z" style="fill:#BC75FF" />
<path d="M465.55,322.67A3,3 0 1 1 459.55,322.67A3,3 0 1 1 465.55,322.67Z" style="fill:#BC75FF" />
<path d="M468.16,325.95A3,3 0 1 1 462.16,325.95A3,3 0 1 1 468.16,325.95Z" style="fill:#BC75FF" />
<path d="M470.76,330.47A3,3 0 1 1 464.76,330.47A3,3 0 1 1 470.76,330.47Z" style="fill:#BC75FF" />
<path d="M473.36,335.33A3,3 0 1 1 467.36,335.33A3,3 0 1 1 473.36,335.33Z" style="fill:#BC75FF" />
<path d="M475.97,338.87A3,3 0 1 1 469.97,338.87A3,3 0 1 1 475.97,338.87Z" style="fill:#BC75FF" />
<path d="M478.57,345.27A3,3 0 1 1 472.57,345.27A3,3 0 1 1 478.57,345.27Z" style="fill:#BC75FF" />
<path d="M481.17,348.99A3,3 0 1 1 475.17,348.99A3,3 0 1 1 481.17,348.99Z" style="fill:#BC75FF" />
<path d="M483.78,351.3A3,3 0 1 1 477.78,351.3A3,3 0 1 1 483.78,351.3Z" style="fill:#BC75FF" />
<path d="M486.38,355.24A3,3 0 1 1 480.38,355.24A3,3 0 1 1 486.38,355.24Z" style="fill:#BC75FF" />
<path d="M488.98,360.43A3,3 0 1 1 482.98,360.43A3,3 0 1 1 488.98,360.43Z" style="fill:#BC75FF" />
<path d="M491.59,363.08A3,3 0 1 1 485.59,363.08A3,3 0 1 1 491.59,363.08Z" style="fill:#BC75FF" />
<path d="M494.19,369.57A3,3 0 1 1 488.19,369.57A3,3 0 1 1 494.19,369.57Z" style="fill:#BC75FF" />
<path d="M496.8,375.19A3,3 0 1 1 490.8,375.19A3,3 0 1 1 496.8,375.19Z" style="fill:#BC75FF" />
<path d="M499.4,380.91A3,3 0 1 1 493.4,380.91A3,3 0 1 1 499.4,380.91Z" style="fill:#BC75FF" />
<path d="M502,387.63A3,3 0 1 1 496,387.63A3,3 0 1 1 502,387.63Z" style="fill:#BC75FF" />
<path d="M504.61,392.3A3,3 0 1 1 498.61,392.3A3,3 0 1 1 504.61,392.3Z" style="fill:#BC75FF" />
<path d="M507.21,396.81A3,3 0 1 1 501.21,396.81A3,3 0 1 1 507.21,396.81Z" style="fill:#BC75FF" />
<path d="M509.81,405.02A3,3 0 1 1 503.81,405.02A3,3 0 1 1 509.81,405.02Z" style="fill:#BC75FF" />
<path d="M512.42,407.54A3,3 0 1 1 506.42,407.54A3,3 0 1 1 512.42,407.54Z" style="fill:#BC75FF" />
<path d="M515.02,413.89A3,3 0 1 1 509.02,413.89A3,3 0 1 1 515.02,413.89Z" style="fill:#BC75FF" />
<path d="M517.62,421.4A3,3 0 1 1 511.62,421.4A3,3 0 1 1 517.62,421.4Z" style="fill:#BC75FF" />
<path d="M520.23,428.63A3,3 0 1 1 514.23,428.63A3,3 0 1 1 520.23,428.63Z" style="fill:#BC75FF" />
<path d="M522.83,434.56A3,3 0 1 1 516.83,434.56A3,3 0 1 1 522.83,434.56Z" style="fill:#BC75FF" />
<path d="M525.43,441.26A3,3 0 1 1 519.43,441.26A3,3 0 1 1 525.43,441.26Z" style="fill:#BC75FF" />
<path d="M528.04,450.06A3,3 0 1 1 522.04,450.06A3,3 0 1 1 528.04,450.06Z" style="fill:#BC75FF" />
<path d="M530.64,452.98A3,3 0 1 1 524.64,452.98A3,3 0 1 1 530.64,452.98Z" style="fill:#BC75FF" />
<path d="M533.25,459.45A3,3 0 1 1 527.25,459.45A3,3 0 1 1 533.25,459.45Z" style="fill:#BC75FF" />
<path d="M535.85,469.75A3,3 0 1 1 529.85,469.75A3,3 0 1 1 535.85,469.75Z" style="fill:#BC75FF" />
<path d="M538.45,470.87A3,3 0 1 1 532.45,470.87A3,3 0 1 1 538.45,470.87Z" style="fill:#BC75FF" />
<path d="M541.06,479.97A3,3 0 1 1 535.06,479.97A3,3 0 1 1 541.06,479.97Z" style="fill:#BC75FF" />
<path d="M543.66,492.56A3,3 0 1 1 537.66,492.56A3,3 0 1 1 543.66,492.56Z" style="fill:#BC75FF" />
<path d="M546.26,496.5A3,3 0 1 1 540.26,496.5A3,3 0 1 1 546.26,496.5Z" style="fill:#BC75FF" />
<path d="M548.87,502.41A3,3 0 1 1 542.87,502.41A3,3 0 1 1 548.87,502.41Z" style="fill:#BC75FF" />
<path d="M551.47,510.5A3,3 0 1 1 545.47,510.5A3,3 0 1 1 551.47,510.5Z" style="fill:#BC75FF" />
<path d="M554.07,517.37A3,3 0 1 1 548.07,517.37A3,3 0 1 1 554.07,517.37Z" style="fill:#BC75FF" />
<path d="M556.68,528.09A3,3 0 1 1 550.68,528.09A3,3 0 1 1 556.68,528.09Z" style="fill:#BC75FF" />
<path d="M559.28,534.75A3,3 0 1 1 553.28,534.75A3,3 0 1 1 559.28,534.75Z" style="fill:#BC75FF" />
<path d="M561.89,542.64A3,3 0 1 1 555.89,542.64A3,3 0 1 1 561.89,542.64Z" style="fill:#BC75FF" />
<path d="M564.49,550.07A3,3 0 1 1 558.49,550.07A3,3 0 1 1 564.49,550.07Z" style="fill:#BC75FF" />
<path d="M567.09,557.5A3,3 0 1 1 561.09,557.5A3,3 0 1 1 567.09,557.5Z" style="fill:#BC75FF" />
<path d="M569.7,570.43A3,3 0 1 1 563.7,570.43A3,3 0 1 1 569.7,570.43Z" style="fill:#BC75FF" />
<path d="M572.3,578.58A3,3 0 1 1 566.3,578.58A3,3 0 1 1 572.3,578.58Z" style="fill:#BC75FF" />
<path d="M574.9,597.87A3,3 0 1 1 568.9,597.87A3,3 0 1 1 574.9,597.87Z" style="fill:#BC75FF" />
<path d="M577.51,595.54A3,3 0 1 1 571.51,595.54A3,3 0 1 1 577.51,595.54Z" style="fill:#BC75FF" />
<path d="M580.11,610.44A3,3 0 1 1 574.11,610.44A3,3 0 1 1 580.11,610.44Z" style="fill:#BC75FF" />
<path d="M582.71,617.75A3,3 0 1 1 576.71,617.75A3,3 0 1 1 582.71,617.75Z" style="fill:#BC75FF" />
<path d="M585.32,631.62A3,3 0 1 1 579.32,631.62A3,3 0 1 1 585.32,631.62Z" style="fill:#BC75FF" />
<path d="M587.92,639.66A3,3 0 1 1 581.92,639.66A3,3 0 1 1 587.92,639.66Z" style="fill:#BC75FF" />
<path d="M590.52,654.03A3,3 0 1 1 584.52,654.03A3,3 0 1 1 590.52,654.03Z" style="fill:#BC75FF" />
<path d="M593.13,662.39A3,3 0 1 1 587.13,662.39A3,3 0 1 1 593.13,662.39Z" style="fill:#BC75FF" />
<path d="M595.73,675.39A3,3 0 1 1 589.73,675.39A3,3 0 1 1 595.73,675.39Z" style="fill:#BC75FF" />
<path d="M598.34,686.73A3,3 0 1 1 592.34,686.73A3,3 0 1 1 598.34,686.73Z" style="fill:#BC75FF" />
<path d="M600.94,699.88A3,3 0 1 1 594.94,699.88A3,3 0 1 1 600.94,699.88Z" style="fill:#BC75FF" />
<path d="M603.54,706.85A3,3 0 1 1 597.54,706.85A3,3 0 1 1 603.54,706.85Z" style="fill:#BC75FF" />
<path d="M606.15,717.41A3,3 0 1 1 600.15,717.41A3,3 0 1 1 606.15,717.41Z" style="fill:#BC75FF" />
<path d="M608.75,734.45A3,3 0 1 1 602.75,734.45A3,3 0 1 1 608.75,734.45Z" style="fill:#BC75FF" />
<path d="M611.35,741A3,3 0 1 1 605.35,741A3,3 0 1 1 611.35,741Z" style="fill:#BC75FF" />
<path d="M613.96,754.19A3,3 0 1 1 607.96,754.19A3,3 0 1 1 613.96,754.19Z" style="fill:#BC75FF" />
<path d="M616.56,767A3,3 0 1 1 610.56,767A3,3 0 1 1 616.56,767Z" style="fill:#BC75FF" />
<path d="M619.16,780.84A3,3 0 1 1 613.16,780.84A3,3 0 1 1 619.16,780.84Z" style="fill:#BC75FF" />
<path d="M621.77,791.03A3,3 0 1 1 615.77,791.03A3,3 0 1 1 621.77,791.03Z" style="fill:#BC75FF" />
<path d="M624.37,802.74A3,3 0 1 1 618.37,802.74A3,3 0 1 1 624.37,802.74Z" style="fill:#BC75FF" />
<path d="M626.97,813.06A3,3 0 1 1 620.97,813.06A3,3 0 1 1 626.97,813.06Z" style="fill:#BC75FF" />
<path d="M629.58,822.28A3,3 0 1 1 623.58,822.28A3,3 0 1 1 629.58,822.28Z" style="fill:#BC75FF" />
<path d="M632.18,828.57A3,3 0 1 1 626.18,828.57A3,3 0 1 1 632.18,828.57Z" style="fill:#BC75FF" />
<path d="M634.79,839.78A3,3 0 1 1 628.79,839.78A3,3 0 1 1 634.79,839.78Z" style="fill:#BC75FF" />
<path d="M637.39,843.32A3,3 0 1 1 631.39,843.32A3,3 0 1 1 637.39,843.32Z" style="fill:#BC75FF" />
<path d="M639.99,849.75A3,3 0 1 1 633.99,849.75A3,3 0 1 1 639.99,849.75Z" style="fill:#BC75FF" />
<path d="M642.6,861.83A3,3 0 1 1 636.6,861.83A3,3 0 1 1 642.6,861.83Z" style="fill:#BC75FF" />
<path d="M645.2,861.17A3,3 0 1 1 639.2,861.17A3,3 0 1 1 645.2,861.17Z" style="fill:#BC75FF" />
<path d="M647.8,862.7A3,3 0 1 1 641.8,862.7A3,3 0 1 1 647.8,862.7Z" style="fill:#BC75FF" />
<path d="M650.41,868.25A3,3 0 1 1 644.41,868.25A3,3 0 1 1 650.41,868.25Z" style="fill:#BC75FF" />
<path d="M653.01,874.75A3,3 0 1 1 647.01,874.75A3,3 0 1 1 653.01,874.75Z" style="fill:#BC75FF" />
<path d="M655.61,876.6A3,3 0 1 1 649.61,876.6A3,3 0 1 1 655.61,876.6Z" style="fill:#BC75FF" />
<path d="M658.22,867.85A3,3 0 1 1 652.22,867.85A3,3 0 1 1 658.22,867.85Z" style="fill:#BC75FF" />
<path d="M660.82,867.51A3,3 0 1 1 654.82,867.51A3,3 0 1 1 660.82,867.51Z" style="fill:#BC75FF" />
<path d="M663.43,871.5A3,3 0 1 1 657.43,871.5A3,3 0 1 1 663.43,871.5Z" style="fill:#BC75FF" />
<path d="M666.03,860.67A3,3 0 1 1 660.03,860.67A3,3 0 1 1 666.03,860.67Z" style="fill:#BC75FF" />
<path d="M668.63,854.64A3,3 0 1 1 662.63,854.64A3,3 0 1 1 668.63,854.64Z" style="fill:#BC75FF" />
<path d="M671.24,844.44A3,3 0 1 1 665.24,844.44A3,3 0 1 1 671.24,844.44Z" style="fill:#BC75FF" />
<path d="M673.84,843.78A3,3 0 1 1 667.84,843.78A3,3 0 1 1 673.84,843.78Z" style="fill:#BC75FF" />
<path d="M676.44,823.59A3,3 0 1 1 670.44,823.59A3,3 0 1 1 676.44,823.59Z" style="fill:#BC75FF" />
<path d="M679.05,822.01A3,3 0 1 1 673.05,822.01A3,3 0 1 1 679.05,822.01Z" style="fill:#BC75FF" />
<path d="M681.65,807.6A3,3 0 1 1 675.65,807.6A3,3 0 1 1 681.65,807.6Z" style="fill:#BC75FF" />
<path d="M684.25,798.84A3,3 0 1 1 678.25,798.84A3,3 0 1 1 684.25,798.84Z" style="fill:#BC75FF" />
<path d="M686.86,778.65A3,3 0 1 1 680.86,778.65A3,3 0 1 1 686.86,778.65Z" style="fill:#BC75FF" />
<path d="M689.46,771.17A3,3 0 1 1 683.46,771.17A3,3 0 1 1 689.46,771.17Z" style="fill:#BC75FF" />
<path d="M692.06,759.04A3,3 0 1 1 686.06,759.04A3,3 0 1 1 692.06,759.04Z" style="fill:#BC75FF" />
<path d="M694.67,746.57A3,3 0 1 1 688.67,746.57A3,3 0 1 1 694.67,746.57Z" style="fill:#BC75FF" />
<path d="M697.27,722.62A3,3 0 1 1 691.27,722.62A3,3 0 1 1 697.27,722.62Z" style="fill:#BC75FF" />
<path d="M699.88,705.98A3,3 0 1 1 693.88,705.98A3,3 0 1 1 699.88,705.98Z" style="fill:#BC75FF" />
<path d="M702.48,698.17A3,3 0 1 1 696.48,698.17A3,3 0 1 1 702.48,698.17Z" style="fill:#BC75FF" />
<path d="M705.08,678.19A3,3 0 1 1 699.08,678.19A3,3 0 1 1 705.08,678.19Z" style="fill:#BC75FF" />
<path d="M707.69,665.53A3,3 0 1 1 701.69,665.53A3,3 0 1 1 707.69,665.53Z" style="fill:#BC75FF" />
<path d="M710.29,649.66A3,3 0 1 1 704.29,649.66A3,3 0 1 1 710.29,649.66Z" style="fill:#BC75FF" />
<path d="M712.89,632.12A3,3 0 1 1 706.89,632.12A3,3 0 1 1 712.89,632.12Z" style="fill:#BC75FF" />
<path d="M715.5,614.18A3,3 0 1 1 709.5,614.18A3,3 0 1 1 715.5,614.18Z" style="fill:#BC75FF" />
<path d="M718.1,601.72A3,3 0 1 1 712.1,601.72A3,3 0 1 1 718.1,601.72Z" style="fill:#BC75FF" />
<path d="M720.7,586.09A3,3 0 1 1 714.7,586.09A3,3 0 1 1 720.7,586.09Z" style="fill:#BC75FF" />
<path d="M723.31,573A3,3 0 1 1 717.31,573A3,3 0 1 1 723.31,573Z" style="fill:#BC75FF" />
<path d="M725.91,553.15A3,3 0 1 1 719.91,553.15A3,3 0 1 1 725.91,553.15Z" style="fill:#BC75FF" />
<path d="M728.52,540.8A3,3 0 1 1 722.52,540.8A3,3 0 1 1 728.52,540.8Z" style="fill:#BC75FF" />
<path d="M731.12,526.62A3,3 0 1 1 725.12,526.62A3,3 0 1 1 731.12,526.62Z" style="fill:#BC75FF" />
<path d="M733.72,511.14A3,3 0 1 1 727.72,511.14A3,3 0 1 1 733.72,511.14Z" style="fill:#BC75FF" />
<path d="M736.33,500.25A3,3 0 1 1 730.33,500.25A3,3 0 1 1 736.33,500.25Z" style="fill:#BC75FF" />
<path d="M738.93,488.13A3,3 0 1 1 732.93,488.13A3,3 0 1 1 738.93,488.13Z" style="fill:#BC75FF" />
<path d="M741.53,475.6A3,3 0 1 1 735.53,475.6A3,3 0 1 1 741.53,475.6Z" style="fill:#BC75FF" />
<path d="M744.14,465.33A3,3 0 1 1 738.14,465.33A3,3 0 1 1 744.14,465.33Z" style="fill:#BC75FF" />
<path d="M746.74,453.76A3,3 0 1 1 740.74,453.76A3,3 0 1 1 746.74,453.76Z" style="fill:#BC75FF" />
<path d="M749.34,441.57A3,3 0 1 1 743.34,441.57A3,3 0 1 1 749.34,441.57Z" style="fill:#BC75FF" />
<path d="M751.95,428.61A3,3 0 1 1 745.95,428.61A3,3 0 1 1 751.95,428.61Z" style="fill:#BC75FF" />
<path d="M754.55,415.66A3,3 0 1 1 748.55,415.66A3,3 0 1 1 754.55,415.66Z" style="fill:#BC75FF" />
<path d="M757.15,400.25A3,3 0 1 1 751.15,400.25A3,3 0 1 1 757.15,400.25Z" style="fill:#BC75FF" />
<path d="M759.76,397.77A3,3 0 1 1 753.76,397.77A3,3 0 1 1 759.76,397.77Z" style="fill:#BC75FF" />
<path d="M762.36,389.2A3,3 0 1 1 756.36,389.2A3,3 0 1 1 762.36,389.2Z" style="fill:#BC75FF" />
<path d="M764.97,376.47A3,3 0 1 1 758.97,376.47A3,3 0 1 1 764.97,376.47Z" style="fill:#BC75FF" />
<path d="M767.57,368.64A3,3 0 1 1 761.57,368.64A3,3 0 1 1 767.57,368.64Z" style="fill:#BC75FF" />
<path d="M770.17,364.21A3,3 0 1 1 764.17,364.21A3,3 0 1 1 770.17,364.21Z" style="fill:#BC75FF" />
<path d="M772.78,356.63A3,3 0 1 1 766.78,356.63A3,3 0 1 1 772.78,356.63Z" style="fill:#BC75FF" />
<path d="M775.38,344.33A3,3 0 1 1 769.38,344.33A3,3 0 1 1 775.38,344.33Z" style="fill:#BC75FF" />
<path d="M777.98,335.18A3,3 0 1 1 771.98,335.18A3,3 0 1 1 777.98,335.18Z" style="fill:#BC75FF" />
<path d="M780.59,325.07A3,3 0 1 1 774.59,325.07A3,3 0 1 1 780.59,325.07Z" style="fill:#BC75FF" />
<path d="M783.19,315.02A3,3 0 1 1 777.19,315.02A3,3 0 1 1 783.19,315.02Z" style="fill:#BC75FF" />
<path d="M785.79,313.84A3,3 0 1 1 779.79,313.84A3,3 0 1 1 785.79,313.84Z" style="fill:#BC75FF" />
<path d="M788.4,305.05A3,3 0 1 1 782.4,305.05A3,3 0 1 1 788.4,305.05Z" style="fill:#BC75FF" />
<path d="M791,300.07A3,3 0 1 1 785,300.07A3,3 0 1 1 791,300.07Z" style="fill:#BC75FF" />
<path d="M793.6,291.56A3,3 0 1 1 787.6,291.56A3,3 0 1 1 793.6,291.56Z" style="fill:#BC75FF" />
<path d="M796.21,288.23A3,3 0 1 1 790.21,288.23A3,3 0 1 1 796.21,288.23Z" style="fill:#BC75FF" />
<path d="M798.81,280.72A3,3 0 1 1 792.81,280.72A3,3 0 1 1 798.81,280.72Z" style="fill:#BC75FF" />
<path d="M801.42,274.59A3,3 0 1 1 795.42,274.59A3,3 0 1 1 801.42,274.59Z" style="fill:#BC75FF" />
<path d="M804.02,269.01A3,3 0 1 1 798.02,269.01A3,3 0 1 1 804.02,269.01Z" style="fill:#BC75FF" />
<path d="M806.62,265.06A3,3 0 1 1 800.62,265.06A3,3 0 1 1 806.62,265.06Z" style="fill:#BC75FF" />
<path d="M809.23,256.43A3,3 0 1 1 803.23,256.43A3,3 0 1 1 809.23,256.43Z" style="fill:#BC75FF" />
<path d="M811.83,257.11A3,3 0 1 1 805.83,257.11A3,3 0 1 1 811.83,257.11Z" style="fill:#BC75FF" />
<path d="M814.43,245.5A3,3 0 1 1 808.43,245.5A3,3 0 1 1 814.43,245.5Z" style="fill:#BC75FF" />
<path d="M817.04,244.4A3,3 0 1 1 811.04,244.4A3,3 0 1 1 817.04,244.4Z" style="fill:#BC75FF" />
<path d="M819.64,239.85A3,3 0 1 1 813.64,239.85A3,3 0 1 1 819.64,239.85Z" style="fill:#BC75FF" />
<path d="M822.24,237.39A3,3 0 1 1 816.24,237.39A3,3 0 1 1 822.24,237.39Z" style="fill:#BC75FF" />
<path d="M824.85,232.77A3,3 0 1 1 818.85,232.77A3,3 0 1 1 824.85,232.77Z" style="fill:#BC75FF" />
<path d="M827.45,227.82A3,3 0 1 1 821.45,227.82A3,3 0 1 1 827.45,227.82Z" style="fill:#BC75FF" />
<path d="M830.06,224.96A3,3 0 1 1 824.06,224.96A3,3 0 1 1 830.06,224.96Z" style="fill:#BC75FF" />
<path d="M832.66,223.37A3,3 0 1 1 826.66,223.37A3,3 0 1 1 832.66,223.37Z" style="fill:#BC75FF" />
<path d="M835.26,219.08A3,3 0 1 1 829.26,219.08A3,3 0 1 1 835.26,219.08Z" style="fill:#BC75FF" />
<path d="M837.87,213.29A3,3 0 1 1 831.87,213.29A3,3 0 1 1 837.87,213.29Z" style="fill:#BC75FF" />
<path d="M840.47,213.07A3,3 0 1 1 834.47,213.07A3,3 0 1 1 840.47,213.07Z" style="fill:#BC75FF" />
<path d="M843.07,209.38A3,3 0 1 1 837.07,209.38A3,3 0 1 1 843.07,209.38Z" style="fill:#BC75FF" />
<path d="M845.68,208.1A3,3 0 1 1 839.68,208.1A3,3 0 1 1 845.68,208.1Z" style="fill:#BC75FF" />
<path d="M848.28,204.28A3,3 0 1 1 842.28,204.28A3,3 0 1 1 848.28,204.28Z" style="fill:#BC75FF" />
<path d="M850.88,201.61A3,3 0 1 1 844.88,201.61A3,3 0 1 1 850.88,201.61Z" style="fill:#BC75FF" />
<path d="M853.49,199.56A3,3 0 1 1 847.49,199.56A3,3 0 1 1 853.49,199.56Z" style="fill:#BC75FF" />
<path d="M856.09,197.45A3,3 0 1 1 850.09,197.45A3,3 0 1 1 856.09,197.45Z" style="fill:#BC75FF" />
<path d="M858.69,192.65A3,3 0 1 1 852.69,192.65A3,3 0 1 1 858.69,192.65Z" style="fill:#BC75FF" />
<path d="M861.3,192.61A3,3 0 1 1 855.3,192.61A3,3 0 1 1 861.3,192.61Z" style="fill:#BC75FF" />
<path d="M863.9,188.84A3,3 0 1 1 857.9,188.84A3,3 0 1 1 863.9,188.84Z" style="fill:#BC75FF" />
<path d="M866.51,187.3A3,3 0 1 1 860.51,187.3A3,3 0 1 1 866.51,187.3Z" style="fill:#BC75FF" />
<path d="M869.11,186.4A3,3 0 1 1 863.11,186.4A3,3 0 1 1 869.11,186.4Z" style="fill:#BC75FF" />
<path d="M871.71,183.15A3,3 0 1 1 865.71,183.15A3,3 0 1 1 871.71,183.15Z" style="fill:#BC75FF" />
<path d="M874.32,181.24A3,3 0 1 1 868.32,181.24A3,3 0 1 1 874.32,181.24Z" style="fill:#BC75FF" />
<path d="M876.92,178.21A3,3 0 1 1 870.92,178.21A3,3 0 1 1 876.92,178.21Z" style="fill:#BC75FF" />
<path d="M879.52,178.99A3,3 0 1 1 873.52,178.99A3,3 0 1 1 879.52,178.99Z" style="fill:#BC75FF" />
<path d="M882.13,174.37A3,3 0 1 1 876.13,174.37A3,3 0 1 1 882.13,174.37Z" style="fill:#BC75FF" />
<path d="M884.73,175.79A3,3 0 1 1 878.73,175.79A3,3 0 1 1 884.73,175.79Z" style="fill:#BC75FF" />
<path d="M887.33,171.3A3,3 0 1 1 881.33,171.3A3,3 0 1 1 887.33,171.3Z" style="fill:#BC75FF" />
<path d="M889.94,170.39A3,3 0 1 1 883.94,170.39A3,3 0 1 1 889.94,170.39Z" style="fill:#BC75FF" />
<path d="M892.54,170.49A3,3 0 1 1 886.54,170.49A3,3 0 1 1 892.54,170.49Z" style="fill:#BC75FF" />
<path d="M895.14,170.28A3,3 0 1 1 889.14,170.28A3,3 0 1 1 895.14,170.28Z" style="fill:#BC75FF" />
<path d="M897.75,168.56A3,3 0 1 1 891.75,168.56A3,3 0 1 1 897.75,168.56Z" style="fill:#BC75FF" />
<path d="M900.35,167.28A3,3 0 1 1 894.35,167.28A3,3 0 1 1 900.35,167.28Z" style="fill:#BC75FF" />
<path d="M902.96,166.31A3,3 0 1 1 896.96,166.31A3,3 0 1 1 902.96,166.31Z" style="fill:#BC75FF" />
<path d="M905.56,161.32A3,3 0 1 1 899.56,161.32A3,3 0 1 1 905.56,161.32Z" style="fill:#BC75FF" />
<path d="M908.16,160.78A3,3 0 1 1 902.16,160.78A3,3 0 1 1 908.16,160.78Z" style="fill:#BC75FF" />
<path d="M910.77,160.96A3,3 0 1 1 904.77,160.96A3,3 0 1 1 910.77,160.96Z" style="fill:#BC75FF" />
<path d="M913.37,159.25A3,3 0 1 1 907.37,159.25A3,3 0 1 1 913.37,159.25Z" style="fill:#BC75FF" />
<path d="M915.97,159.31A3,3 0 1 1 909.97,159.31A3,3 0 1 1 915.97,159.31Z" style="fill:#BC75FF" />
<path d="M918.58,157.51A3,3 0 1 1 912.58,157.51A3,3 0 1 1 918.58,157.51Z" style="fill:#BC75FF" />
<path d="M921.18,157.53A3,3 0 1 1 915.18,157.53A3,3 0 1 1 921.18,157.53Z" style="fill:#BC75FF" />
<path d="M923.78,154.58A3,3 0 1 1 917.78,154.58A3,3 0 1 1 923.78,154.58Z" style="fill:#BC75FF" />
<path d="M926.39,154.07A3,3 0 1 1 920.39,154.07A3,3 0 1 1 926.39,154.07Z" style="fill:#BC75FF" />
<path d="M928.99,153.58A3,3 0 1 1 922.99,153.58A3,3 0 1 1 928.99,153.58Z" style="fill:#BC75FF" />
<path d="M931.6,152.38A3,3 0 1 1 925.6,152.38A3,3 0 1 1 931.6,152.38Z" style="fill:#BC75FF" />
<path d="M934.2,151.83A3,3 0 1 1 928.2,151.83A3,3 0 1 1 934.2,151.83Z" style="fill:#BC75FF" />
<path d="M936.8,151.17A3,3 0 1 1 930.8,151.17A3,3 0 1 1 936.8,151.17Z" style="fill:#BC75FF" />
<path d="M939.41,150.78A3,3 0 1 1 933.41,150.78A3,3 0 1 1 939.41,150.78Z" style="fill:#BC75FF" />
<path d="M942.01,149.91A3,3 0 1 1 936.01,149.91A3,3 0 1 1 942.01,149.91Z" style="fill:#BC75FF" />
<path d="M944.61,148.62A3,3 0 1 1 938.61,148.62A3,3 0 1 1 944.61,148.62Z" style="fill:#BC75FF" />
<path d="M947.22,148.63A3,3 0 1 1 941.22,148.63A3,3 0 1 1 947.22,148.63Z" style="fill:#BC75FF" />
<path d="M949.82,146.62A3,3 0 1 1 943.82,146.62A3,3 0 1 1 949.82,146.62Z" style="fill:#BC75FF" />
<path d="M952.42,145.92A3,3 0 1 1 946.42,145.92A3,3 0 1 1 952.42,145.92Z" style="fill:#BC75FF" />
<path d="M955.03,145.64A3,3 0 1 1 949.03,145.64A3,3 0 1 1 955.03,145.64Z" style="fill:#BC75FF" />
<path d="M957.63,145.34A3,3 0 1 1 951.63,145.34A3,3 0 1 1 957.63,145.34Z" style="fill:#BC75FF" />
<path d="M960.23,143.59A3,3 0 1 1 954.23,143.59A3,3 0 1 1 960.23,143.59Z" style="fill:#BC75FF" />
<path d="M962.84,144.95A3,3 0 1 1 956.84,144.95A3,3 0 1 1 962.84,144.95Z" style="fill:#BC75FF" />
<path d="M965.44,144.75A3,3 0 1 1 959.44,144.75A3,3 0 1 1 965.44,144.75Z" style="fill:#BC75FF" />
<path d="M968.05,143.71A3,3 0 1 1 962.05,143.71A3,3 0 1 1 968.05,143.71Z" style="fill:#BC75FF" />
<path d="M970.65,143.39A3,3 0 1 1 964.65,143.39A3,3 0 1 1 970.65,143.39Z" style="fill:#BC75FF" />
<path d="M973.25,144.13A3,3 0 1 1 967.25,144.13A3,3 0 1 1 973.25,144.13Z" style="fill:#BC75FF" />
<path d="M975.86,141.75A3,3 0 1 1 969.86,141.75A3,3 0 1 1 975.86,141.75Z" style="fill:#BC75FF" />
<path d="M978.46,139.97A3,3 0 1 1 972.46,139.97A3,3 0 1 1 978.46,139.97Z" style="fill:#BC75FF" />
<path d="M981.06,141.2A3,3 0 1 1 975.06,141.2A3,3 0 1 1 981.06,141.2Z" style="fill:#BC75FF" />
<path d="M983.67,140.08A3,3 0 1 1 977.67,140.08A3,3 0 1 1 983.67,140.08Z" style="fill:#BC75FF" />
<path d="M986.27,140.16A3,3 0 1 1 980.27,140.16A3,3 0 1 1 986.27,140.16Z" style="fill:#BC75FF" />
<path d="M988.87,140.06A3,3 0 1 1 982.87,140.06A3,3 0 1 1 988.87,140.06Z" style="fill:#BC75FF" />
<path d="M991.48,137.03A3,3 0 1 1 985.48,137.03A3,3 0 1 1 991.48,137.03Z" style="fill:#BC75FF" />
<path d="M994.08,138.21A3,3 0 1 1 988.08,138.21A3,3 0 1 1 994.08,138.21Z" style="fill:#BC75FF" />
<path d="M996.69,137.61A3,3 0 1 1 990.69,137.61A3,3 0 1 1 996.69,137.61Z" style="fill:#BC75FF" />
<path d="M999.29,138.22A3,3 0 1 1 993.29,138.22A3,3 0 1 1 999.29,138.22Z" style="fill:#BC75FF" />
<path d="M1001.9,135.93A3,3 0 1 1 995.89,135.93A3,3 0 1 1 1001.9,135.93Z" style="fill:#BC75FF" />
<path d="M1004.5,135.41A3,3 0 1 1 998.5,135.41A3,3 0 1 1 1004.5,135.41Z" style="fill:#BC75FF" />
<path d="M1007.1,136.3A3,3 0 1 1 1001.1,136.3A3,3 0 1 1 1007.1,136.3Z" style="fill:#BC75FF" />
<path d="M1009.7,135.96A3,3 0 1 1 1003.7,135.96A3,3 0 1 1 1009.7,135.96Z" style="fill:#BC75FF" />
<path d="M1012.3,134.67A3,3 0 1 1 1006.3,134.67A3,3 0 1 1 1012.3,134.67Z" style="fill:#BC75FF" />
<path d="M1014.9,135.33A3,3 0 1 1 1008.9,135.33A3,3 0 1 1 1014.9,135.33Z" style="fill:#BC75FF" />
<path d="M1017.5,135.2A3,3 0 1 1 1011.5,135.2A3,3 0 1 1 1017.5,135.2Z" style="fill:#BC75FF" />
<path d="M1020.1,135.04A3,3 0 1 1 1014.1,135.04A3,3 0 1 1 1020.1,135.04Z" style="fill:#BC75FF" />
<path d="M1022.7,133.24A3,3 0 1 1 1016.7,133.24A3,3 0 1 1 1022.7,133.24Z" style="fill:#BC75FF" />
<path d="M1025.3,133.03A3,3 0 1 1 1019.3,133.03A3,3 0 1 1 1025.3,133.03Z" style="fill:#BC75FF" />
<path d="M1027.9,131.57A3,3 0 1 1 1021.9,131.57A3,3 0 1 1 1027.9,131.57Z" style="fill:#BC75FF" />
<path d="M1030.5,132.6A3,3 0 1 1 1024.5,132.6A3,3 0 1 1 1030.5,132.6Z" style="fill:#BC75FF" />
<path d="M1033.1,132.11A3,3 0 1 1 1027.1,132.11A3,3 0 1 1 1033.1,132.11Z" style="fill:#BC75FF" />
<path d="M1035.7,131.7A3,3 0 1 1 1029.7,131.7A3,3 0 1 1 1035.7,131.7Z" style="fill:#BC75FF" />
<path d="M1038.3,131.65A3,3 0 1 1 1032.3,131.65A3,3 0 1 1 1038.3,131.65Z" style="fill:#BC75FF" />
<path d="M1040.9,132.86A3,3 0 1 1 1034.9,132.86A3,3 0 1 1 1040.9,132.86Z" style="fill:#BC75FF" />
<path d="M1043.5,132.56A3,3 0 1 1 1037.5,132.56A3,3 0 1 1 1043.5,132.56Z" style="fill:#BC75FF" />
<path d="M1046.2,131.12A3,3 0 1 1 1040.2,131.12A3,3 0 1 1 1046.2,131.12Z" style="fill:#BC75FF" />
<path d="M1048.8,130.5A3,3 0 1 1 1042.8,130.5A3,3 0 1 1 1048.8,130.5Z" style="fill:#BC75FF" />
<path d="M1051.4,132.04A3,3 0 1 1 1045.4,132.04A3,3 0 1 1 1051.4,132.04Z" style="fill:#BC75FF" />
<path d="M1054,130.04A3,3 0 1 1 1048,130.04A3,3 0 1 1 1054,130.04Z" style="fill:#BC75FF" />
<path d="M1056.6,129.19A3,3 0 1 1 1050.6,129.19A3,3 0 1 1 1056.6,129.19Z" style="fill:#BC75FF" />
<path d="M1059.2,128.83A3,3 0 1 1 1053.2,128.83A3,3 0 1 1 1059.2,128.83Z" style="fill:#BC75FF" />
<path d="M1061.8,130.01A3,3 0 1 1 1055.8,130.01A3,3 0 1 1 1061.8,130.01Z" style="fill:#BC75FF" />
<path d="M1064.4,128.91A3,3 0 1 1 1058.4,128.91A3,3 0 1 1 1064.4,128.91Z" style="fill:#BC75FF" />
<path d="M1067,128.8A3,3 0 1 1 1061,128.8A3,3 0 1 1 1067,128.8Z" style="fill:#BC75FF" />
<path d="M1069.6,128.22A3,3 0 1 1 1063.6,128.22A3,3 0 1 1 1069.6,128.22Z" style="fill:#BC75FF" />
<path d="M1072.2,129.9A3,3 0 1 1 1066.2,129.9A3,3 0 1 1 1072.2,129.9Z" style="fill:#BC75FF" />
<path d="M1074.8,128.19A3,3 0 1 1 1068.8,128.19A3,3 0 1 1 1074.8,128.19Z" style="fill:#BC75FF" />
<path d="M1077.4,127.31A3,3 0 1 1 1071.4,127.31A3,3 0 1 1 1077.4,127.31Z" style="fill:#BC75FF" />
<path d="M1080,127.91A3,3 0 1 1 1074,127.91A3,3 0 1 1 1080,127.91Z" style="fill:#BC75FF" />
<path d="M1011,867.02A6,6 0 1 1 999,867.02A6,6 0 1 1 1011,867.02Z" style="fill:#BC75FF" />
</g>
</svg>
