<?xml version="1.0"?>
<!-- Generated by SVGo and Plotinum VG -->
<svg width="1080pt" height="1080pt" viewBox="0 0 1080 1080"
	xmlns="http://www.w3.org/2000/svg"
	xmlns:xlink="http://www.w3.org/1999/xlink">
<g transform="scale(1, -1) translate(0, -1080)">
<path d="M0,0L1080,0L1080,1080L0,1080Z" style="fill:#-8000000000000000-8000000000000000-8000000000000000;fill-opacity:0" />
<text x="280.17" y="-1039.5" transform="scale(1, -1)"
	style="font-family:Helvetica;font-weight:normal;font-style:normal;font-size:50px">Height Ratios vs Power</text>
<text x="423.9" y="-11.039" transform="scale(1, -1)"
	style="font-family:Helvetica;font-weight:normal;font-style:normal;font-size:36px">Pump Power (mW)</text>
<text x="318.87" y="-71.258" transform="scale(1, -1)"
	style="font-family:Helvetica;font-weight:normal;font-style:normal;font-size:36px">50</text>
<text x="545.89" y="-71.258" transform="scale(1, -1)"
	style="font-family:Helvetica;font-weight:normal;font-style:normal;font-size:36px">100</text>
<text x="782.91" y="-71.258" transform="scale(1, -1)"
	style="font-family:Helvetica;font-weight:normal;font-style:normal;font-size:36px">150</text>
<text x="1019.9" y="-71.258" transform="scale(1, -1)"
	style="font-family:Helvetica;font-weight:normal;font-style:normal;font-size:36px">200</text>
<path d="M101.87,112.44L101.87,108.44" style="fill:none;stroke:#000000;stroke-width:1.5" />
<path d="M220.38,112.44L220.38,108.44" style="fill:none;stroke:#000000;stroke-width:1.5" />
<path d="M338.9,116.44L338.9,108.44" style="fill:none;stroke:#000000;stroke-width:1.5" />
<path d="M457.41,112.44L457.41,108.44" style="fill:none;stroke:#000000;stroke-width:1.5" />
<path d="M575.92,116.44L575.92,108.44" style="fill:none;stroke:#000000;stroke-width:1.5" />
<path d="M694.43,112.44L694.43,108.44" style="fill:none;stroke:#000000;stroke-width:1.5" />
<path d="M812.94,116.44L812.94,108.44" style="fill:none;stroke:#000000;stroke-width:1.5" />
<path d="M931.46,112.44L931.46,108.44" style="fill:none;stroke:#000000;stroke-width:1.5" />
<path d="M1050,116.44L1050,108.44" style="fill:none;stroke:#000000;stroke-width:1.5" />
<path d="M101.87,108.44L1050,108.44" style="fill:none;stroke:#000000;stroke-width:1.5" />
<g transform="rotate(90)">
<text x="321.13" y="29.18" transform="scale(1, -1)"
	style="font-family:Helvetica;font-weight:normal;font-style:normal;font-size:36px">Stokes/Anti-Stokes Heights</text>
</g>
<text x="67.848" y="-95.246" transform="scale(1, -1)"
	style="font-family:Helvetica;font-weight:normal;font-style:normal;font-size:36px">1</text>
<text x="67.848" y="-443.18" transform="scale(1, -1)"
	style="font-family:Helvetica;font-weight:normal;font-style:normal;font-size:36px">2</text>
<text x="67.848" y="-791.11" transform="scale(1, -1)"
	style="font-family:Helvetica;font-weight:normal;font-style:normal;font-size:36px">3</text>
<path d="M113.87,104.32L105.87,104.32" style="fill:none;stroke:#000000;stroke-width:1.5" />
<path d="M109.87,278.28L105.87,278.28" style="fill:none;stroke:#000000;stroke-width:1.5" />
<path d="M113.87,452.25L105.87,452.25" style="fill:none;stroke:#000000;stroke-width:1.5" />
<path d="M109.87,626.21L105.87,626.21" style="fill:none;stroke:#000000;stroke-width:1.5" />
<path d="M113.87,800.18L105.87,800.18" style="fill:none;stroke:#000000;stroke-width:1.5" />
<path d="M109.87,974.14L105.87,974.14" style="fill:none;stroke:#000000;stroke-width:1.5" />
<path d="M105.87,104.32L105.87,974.14" style="fill:none;stroke:#000000;stroke-width:1.5" />
<path d="M997.82,865.27L945.68,822.84L888.79,776.55L831.91,730.26L779.76,687.83L737.1,653.11L684.95,610.68L604.36,545.11L547.48,498.82L500.07,460.24L447.93,417.81L391.04,371.52L305.71,302.09L253.57,259.66L215.64,228.8L168.24,190.22" style="fill:none;stroke:#7F7F7F;stroke-width:3" />
<path d="M1003.8,946.6A6,6 0 1 1 991.82,946.6A6,6 0 1 1 1003.8,946.6Z" style="fill:#1BAA8B" />
<path d="M951.68,837.87A6,6 0 1 1 939.68,837.87A6,6 0 1 1 951.68,837.87Z" style="fill:#1BAA8B" />
<path d="M894.79,706.12A6,6 0 1 1 882.79,706.12A6,6 0 1 1 894.79,706.12Z" style="fill:#1BAA8B" />
<path d="M837.91,705.77A6,6 0 1 1 825.91,705.77A6,6 0 1 1 837.91,705.77Z" style="fill:#1BAA8B" />
<path d="M785.76,695.54A6,6 0 1 1 773.76,695.54A6,6 0 1 1 785.76,695.54Z" style="fill:#1BAA8B" />
<path d="M743.1,649.41A6,6 0 1 1 731.1,649.41A6,6 0 1 1 743.1,649.41Z" style="fill:#1BAA8B" />
<path d="M690.95,595.3A6,6 0 1 1 678.95,595.3A6,6 0 1 1 690.95,595.3Z" style="fill:#1BAA8B" />
<path d="M610.36,527.46A6,6 0 1 1 598.36,527.46A6,6 0 1 1 610.36,527.46Z" style="fill:#1BAA8B" />
<path d="M553.48,477.45A6,6 0 1 1 541.48,477.45A6,6 0 1 1 553.48,477.45Z" style="fill:#1BAA8B" />
<path d="M506.07,442.69A6,6 0 1 1 494.07,442.69A6,6 0 1 1 506.07,442.69Z" style="fill:#1BAA8B" />
<path d="M453.93,436.42A6,6 0 1 1 441.93,436.42A6,6 0 1 1 453.93,436.42Z" style="fill:#1BAA8B" />
<path d="M397.04,385.76A6,6 0 1 1 385.04,385.76A6,6 0 1 1 397.04,385.76Z" style="fill:#1BAA8B" />
<path d="M311.71,343.49A6,6 0 1 1 299.71,343.49A6,6 0 1 1 311.71,343.49Z" style="fill:#1BAA8B" />
<path d="M259.57,267.76A6,6 0 1 1 247.57,267.76A6,6 0 1 1 259.57,267.76Z" style="fill:#1BAA8B" />
<path d="M221.64,230.05A6,6 0 1 1 209.64,230.05A6,6 0 1 1 221.64,230.05Z" style="fill:#1BAA8B" />
<path d="M174.24,173.12A6,6 0 1 1 162.24,173.12A6,6 0 1 1 174.24,173.12Z" style="fill:#1BAA8B" />
</g>
</svg>
