<?xml version="1.0"?>
<!-- Generated by SVGo and Plotinum VG -->
<svg width="1080pt" height="1080pt" viewBox="0 0 1080 1080"
	xmlns="http://www.w3.org/2000/svg"
	xmlns:xlink="http://www.w3.org/1999/xlink">
<g transform="scale(1, -1) translate(0, -1080)">
<path d="M0,0L1080,0L1080,1080L0,1080Z" style="fill:#-8000000000000000-8000000000000000-8000000000000000;fill-opacity:0" />
<text x="319.11" y="-1039.5" transform="scale(1, -1)"
	style="font-family:Helvetica;font-weight:normal;font-style:normal;font-size:50px">1 cm UHNA3 CABS</text>
<text x="500.07" y="-11.039" transform="scale(1, -1)"
	style="font-family:Helvetica;font-weight:normal;font-style:normal;font-size:36px">Frequency (GHz)</text>
<text x="239.34" y="-71.258" transform="scale(1, -1)"
	style="font-family:Helvetica;font-weight:normal;font-style:normal;font-size:36px">9.03</text>
<text x="398.43" y="-71.258" transform="scale(1, -1)"
	style="font-family:Helvetica;font-weight:normal;font-style:normal;font-size:36px">9.07</text>
<text x="557.52" y="-71.258" transform="scale(1, -1)"
	style="font-family:Helvetica;font-weight:normal;font-style:normal;font-size:36px">9.12</text>
<text x="716.61" y="-71.258" transform="scale(1, -1)"
	style="font-family:Helvetica;font-weight:normal;font-style:normal;font-size:36px">9.18</text>
<text x="875.69" y="-71.258" transform="scale(1, -1)"
	style="font-family:Helvetica;font-weight:normal;font-style:normal;font-size:36px">9.22</text>
<path d="M274.38,116.44L274.38,108.44" style="fill:none;stroke:#000000;stroke-width:1.5" />
<path d="M353.92,112.44L353.92,108.44" style="fill:none;stroke:#000000;stroke-width:1.5" />
<path d="M433.46,116.44L433.46,108.44" style="fill:none;stroke:#000000;stroke-width:1.5" />
<path d="M513.01,112.44L513.01,108.44" style="fill:none;stroke:#000000;stroke-width:1.5" />
<path d="M592.55,116.44L592.55,108.44" style="fill:none;stroke:#000000;stroke-width:1.5" />
<path d="M672.1,112.44L672.1,108.44" style="fill:none;stroke:#000000;stroke-width:1.5" />
<path d="M751.64,116.44L751.64,108.44" style="fill:none;stroke:#000000;stroke-width:1.5" />
<path d="M831.18,112.44L831.18,108.44" style="fill:none;stroke:#000000;stroke-width:1.5" />
<path d="M910.73,116.44L910.73,108.44" style="fill:none;stroke:#000000;stroke-width:1.5" />
<path d="M990.27,112.44L990.27,108.44" style="fill:none;stroke:#000000;stroke-width:1.5" />
<path d="M201.21,108.44L1075,108.44" style="fill:none;stroke:#000000;stroke-width:1.5" />
<g transform="rotate(90)">
<text x="371.06" y="29.18" transform="scale(1, -1)"
	style="font-family:Helvetica;font-weight:normal;font-style:normal;font-size:36px">Spectral Density (μV)</text>
</g>
<text x="87.869" y="-207.91" transform="scale(1, -1)"
	style="font-family:Helvetica;font-weight:normal;font-style:normal;font-size:36px">32.70</text>
<text x="87.869" y="-424.24" transform="scale(1, -1)"
	style="font-family:Helvetica;font-weight:normal;font-style:normal;font-size:36px">85.54</text>
<text x="67.848" y="-640.57" transform="scale(1, -1)"
	style="font-family:Helvetica;font-weight:normal;font-style:normal;font-size:36px">138.37</text>
<text x="67.848" y="-856.9" transform="scale(1, -1)"
	style="font-family:Helvetica;font-weight:normal;font-style:normal;font-size:36px">191.21</text>
<path d="M199.96,108.82L195.96,108.82" style="fill:none;stroke:#000000;stroke-width:1.5" />
<path d="M203.96,216.98L195.96,216.98" style="fill:none;stroke:#000000;stroke-width:1.5" />
<path d="M199.96,325.15L195.96,325.15" style="fill:none;stroke:#000000;stroke-width:1.5" />
<path d="M203.96,433.31L195.96,433.31" style="fill:none;stroke:#000000;stroke-width:1.5" />
<path d="M199.96,541.48L195.96,541.48" style="fill:none;stroke:#000000;stroke-width:1.5" />
<path d="M203.96,649.64L195.96,649.64" style="fill:none;stroke:#000000;stroke-width:1.5" />
<path d="M199.96,757.81L195.96,757.81" style="fill:none;stroke:#000000;stroke-width:1.5" />
<path d="M203.96,865.98L195.96,865.98" style="fill:none;stroke:#000000;stroke-width:1.5" />
<path d="M199.96,974.14L195.96,974.14" style="fill:none;stroke:#000000;stroke-width:1.5" />
<path d="M199.96,974.14L195.96,974.14" style="fill:none;stroke:#000000;stroke-width:1.5" />
<path d="M195.96,108.82L195.96,974.14" style="fill:none;stroke:#000000;stroke-width:1.5" />
<path d="M201.21,161.9L201.21,163" style="fill:none;stroke:#7A9CFF" />
<path d="M198.71,161.9L203.71,161.9" style="fill:none;stroke:#7A9CFF" />
<path d="M198.71,163L203.71,163" style="fill:none;stroke:#7A9CFF" />
<path d="M207.59,162.58L207.59,164.95" style="fill:none;stroke:#7A9CFF" />
<path d="M205.09,162.58L210.09,162.58" style="fill:none;stroke:#7A9CFF" />
<path d="M205.09,164.95L210.09,164.95" style="fill:none;stroke:#7A9CFF" />
<path d="M213.97,165.43L213.97,167.7" style="fill:none;stroke:#7A9CFF" />
<path d="M211.47,165.43L216.47,165.43" style="fill:none;stroke:#7A9CFF" />
<path d="M211.47,167.7L216.47,167.7" style="fill:none;stroke:#7A9CFF" />
<path d="M220.34,169.55L220.34,171.87" style="fill:none;stroke:#7A9CFF" />
<path d="M217.84,169.55L222.84,169.55" style="fill:none;stroke:#7A9CFF" />
<path d="M217.84,171.87L222.84,171.87" style="fill:none;stroke:#7A9CFF" />
<path d="M226.72,173.37L226.72,174.72" style="fill:none;stroke:#7A9CFF" />
<path d="M224.22,173.37L229.22,173.37" style="fill:none;stroke:#7A9CFF" />
<path d="M224.22,174.72L229.22,174.72" style="fill:none;stroke:#7A9CFF" />
<path d="M233.1,175.35L233.1,177.53" style="fill:none;stroke:#7A9CFF" />
<path d="M230.6,175.35L235.6,175.35" style="fill:none;stroke:#7A9CFF" />
<path d="M230.6,177.53L235.6,177.53" style="fill:none;stroke:#7A9CFF" />
<path d="M239.48,178.21L239.48,180.31" style="fill:none;stroke:#7A9CFF" />
<path d="M236.98,178.21L241.98,178.21" style="fill:none;stroke:#7A9CFF" />
<path d="M236.98,180.31L241.98,180.31" style="fill:none;stroke:#7A9CFF" />
<path d="M245.86,180.09L245.86,181.51" style="fill:none;stroke:#7A9CFF" />
<path d="M243.36,180.09L248.36,180.09" style="fill:none;stroke:#7A9CFF" />
<path d="M243.36,181.51L248.36,181.51" style="fill:none;stroke:#7A9CFF" />
<path d="M252.23,181.65L252.23,184.1" style="fill:none;stroke:#7A9CFF" />
<path d="M249.73,181.65L254.73,181.65" style="fill:none;stroke:#7A9CFF" />
<path d="M249.73,184.1L254.73,184.1" style="fill:none;stroke:#7A9CFF" />
<path d="M258.61,184.81L258.61,187.37" style="fill:none;stroke:#7A9CFF" />
<path d="M256.11,184.81L261.11,184.81" style="fill:none;stroke:#7A9CFF" />
<path d="M256.11,187.37L261.11,187.37" style="fill:none;stroke:#7A9CFF" />
<path d="M264.99,187.52L264.99,190.87" style="fill:none;stroke:#7A9CFF" />
<path d="M262.49,187.52L267.49,187.52" style="fill:none;stroke:#7A9CFF" />
<path d="M262.49,190.87L267.49,190.87" style="fill:none;stroke:#7A9CFF" />
<path d="M271.37,190.89L271.37,195.33" style="fill:none;stroke:#7A9CFF" />
<path d="M268.87,190.89L273.87,190.89" style="fill:none;stroke:#7A9CFF" />
<path d="M268.87,195.33L273.87,195.33" style="fill:none;stroke:#7A9CFF" />
<path d="M277.75,193.24L277.75,195.57" style="fill:none;stroke:#7A9CFF" />
<path d="M275.25,193.24L280.25,193.24" style="fill:none;stroke:#7A9CFF" />
<path d="M275.25,195.57L280.25,195.57" style="fill:none;stroke:#7A9CFF" />
<path d="M284.12,196.24L284.12,201.46" style="fill:none;stroke:#7A9CFF" />
<path d="M281.62,196.24L286.62,196.24" style="fill:none;stroke:#7A9CFF" />
<path d="M281.62,201.46L286.62,201.46" style="fill:none;stroke:#7A9CFF" />
<path d="M290.5,198.81L290.5,202.98" style="fill:none;stroke:#7A9CFF" />
<path d="M288,198.81L293,198.81" style="fill:none;stroke:#7A9CFF" />
<path d="M288,202.98L293,202.98" style="fill:none;stroke:#7A9CFF" />
<path d="M296.88,203.72L296.88,207.49" style="fill:none;stroke:#7A9CFF" />
<path d="M294.38,203.72L299.38,203.72" style="fill:none;stroke:#7A9CFF" />
<path d="M294.38,207.49L299.38,207.49" style="fill:none;stroke:#7A9CFF" />
<path d="M303.26,208.97L303.26,212.63" style="fill:none;stroke:#7A9CFF" />
<path d="M300.76,208.97L305.76,208.97" style="fill:none;stroke:#7A9CFF" />
<path d="M300.76,212.63L305.76,212.63" style="fill:none;stroke:#7A9CFF" />
<path d="M309.64,214.38L309.64,216.6" style="fill:none;stroke:#7A9CFF" />
<path d="M307.14,214.38L312.14,214.38" style="fill:none;stroke:#7A9CFF" />
<path d="M307.14,216.6L312.14,216.6" style="fill:none;stroke:#7A9CFF" />
<path d="M316.01,217.26L316.01,218.78" style="fill:none;stroke:#7A9CFF" />
<path d="M313.51,217.26L318.51,217.26" style="fill:none;stroke:#7A9CFF" />
<path d="M313.51,218.78L318.51,218.78" style="fill:none;stroke:#7A9CFF" />
<path d="M322.39,221.76L322.39,223.75" style="fill:none;stroke:#7A9CFF" />
<path d="M319.89,221.76L324.89,221.76" style="fill:none;stroke:#7A9CFF" />
<path d="M319.89,223.75L324.89,223.75" style="fill:none;stroke:#7A9CFF" />
<path d="M328.77,227.64L328.77,229.98" style="fill:none;stroke:#7A9CFF" />
<path d="M326.27,227.64L331.27,227.64" style="fill:none;stroke:#7A9CFF" />
<path d="M326.27,229.98L331.27,229.98" style="fill:none;stroke:#7A9CFF" />
<path d="M335.15,232.94L335.15,233.57" style="fill:none;stroke:#7A9CFF" />
<path d="M332.65,232.94L337.65,232.94" style="fill:none;stroke:#7A9CFF" />
<path d="M332.65,233.57L337.65,233.57" style="fill:none;stroke:#7A9CFF" />
<path d="M341.53,236.83L341.53,238.39" style="fill:none;stroke:#7A9CFF" />
<path d="M339.03,236.83L344.03,236.83" style="fill:none;stroke:#7A9CFF" />
<path d="M339.03,238.39L344.03,238.39" style="fill:none;stroke:#7A9CFF" />
<path d="M347.9,241.09L347.9,243.64" style="fill:none;stroke:#7A9CFF" />
<path d="M345.4,241.09L350.4,241.09" style="fill:none;stroke:#7A9CFF" />
<path d="M345.4,243.64L350.4,243.64" style="fill:none;stroke:#7A9CFF" />
<path d="M354.28,247.11L354.28,248.98" style="fill:none;stroke:#7A9CFF" />
<path d="M351.78,247.11L356.78,247.11" style="fill:none;stroke:#7A9CFF" />
<path d="M351.78,248.98L356.78,248.98" style="fill:none;stroke:#7A9CFF" />
<path d="M360.66,252.34L360.66,254.67" style="fill:none;stroke:#7A9CFF" />
<path d="M358.16,252.34L363.16,252.34" style="fill:none;stroke:#7A9CFF" />
<path d="M358.16,254.67L363.16,254.67" style="fill:none;stroke:#7A9CFF" />
<path d="M367.04,258.48L367.04,259.73" style="fill:none;stroke:#7A9CFF" />
<path d="M364.54,258.48L369.54,258.48" style="fill:none;stroke:#7A9CFF" />
<path d="M364.54,259.73L369.54,259.73" style="fill:none;stroke:#7A9CFF" />
<path d="M373.42,261.34L373.42,263.54" style="fill:none;stroke:#7A9CFF" />
<path d="M370.92,261.34L375.92,261.34" style="fill:none;stroke:#7A9CFF" />
<path d="M370.92,263.54L375.92,263.54" style="fill:none;stroke:#7A9CFF" />
<path d="M379.79,265.21L379.79,268.08" style="fill:none;stroke:#7A9CFF" />
<path d="M377.29,265.21L382.29,265.21" style="fill:none;stroke:#7A9CFF" />
<path d="M377.29,268.08L382.29,268.08" style="fill:none;stroke:#7A9CFF" />
<path d="M386.17,272.54L386.17,274.11" style="fill:none;stroke:#7A9CFF" />
<path d="M383.67,272.54L388.67,272.54" style="fill:none;stroke:#7A9CFF" />
<path d="M383.67,274.11L388.67,274.11" style="fill:none;stroke:#7A9CFF" />
<path d="M392.55,278.95L392.55,282.04" style="fill:none;stroke:#7A9CFF" />
<path d="M390.05,278.95L395.05,278.95" style="fill:none;stroke:#7A9CFF" />
<path d="M390.05,282.04L395.05,282.04" style="fill:none;stroke:#7A9CFF" />
<path d="M398.93,285.56L398.93,288.6" style="fill:none;stroke:#7A9CFF" />
<path d="M396.43,285.56L401.43,285.56" style="fill:none;stroke:#7A9CFF" />
<path d="M396.43,288.6L401.43,288.6" style="fill:none;stroke:#7A9CFF" />
<path d="M405.31,292.32L405.31,296.47" style="fill:none;stroke:#7A9CFF" />
<path d="M402.81,292.32L407.81,292.32" style="fill:none;stroke:#7A9CFF" />
<path d="M402.81,296.47L407.81,296.47" style="fill:none;stroke:#7A9CFF" />
<path d="M411.68,299.67L411.68,302.42" style="fill:none;stroke:#7A9CFF" />
<path d="M409.18,299.67L414.18,299.67" style="fill:none;stroke:#7A9CFF" />
<path d="M409.18,302.42L414.18,302.42" style="fill:none;stroke:#7A9CFF" />
<path d="M418.06,306.75L418.06,308.81" style="fill:none;stroke:#7A9CFF" />
<path d="M415.56,306.75L420.56,306.75" style="fill:none;stroke:#7A9CFF" />
<path d="M415.56,308.81L420.56,308.81" style="fill:none;stroke:#7A9CFF" />
<path d="M424.44,315.23L424.44,318.02" style="fill:none;stroke:#7A9CFF" />
<path d="M421.94,315.23L426.94,315.23" style="fill:none;stroke:#7A9CFF" />
<path d="M421.94,318.02L426.94,318.02" style="fill:none;stroke:#7A9CFF" />
<path d="M430.82,324.99L430.82,330.07" style="fill:none;stroke:#7A9CFF" />
<path d="M428.32,324.99L433.32,324.99" style="fill:none;stroke:#7A9CFF" />
<path d="M428.32,330.07L433.32,330.07" style="fill:none;stroke:#7A9CFF" />
<path d="M437.2,334.89L437.2,338.74" style="fill:none;stroke:#7A9CFF" />
<path d="M434.7,334.89L439.7,334.89" style="fill:none;stroke:#7A9CFF" />
<path d="M434.7,338.74L439.7,338.74" style="fill:none;stroke:#7A9CFF" />
<path d="M443.57,342L443.57,345.7" style="fill:none;stroke:#7A9CFF" />
<path d="M441.07,342L446.07,342" style="fill:none;stroke:#7A9CFF" />
<path d="M441.07,345.7L446.07,345.7" style="fill:none;stroke:#7A9CFF" />
<path d="M449.95,350.28L449.95,354.65" style="fill:none;stroke:#7A9CFF" />
<path d="M447.45,350.28L452.45,350.28" style="fill:none;stroke:#7A9CFF" />
<path d="M447.45,354.65L452.45,354.65" style="fill:none;stroke:#7A9CFF" />
<path d="M456.33,358.01L456.33,362.26" style="fill:none;stroke:#7A9CFF" />
<path d="M453.83,358.01L458.83,358.01" style="fill:none;stroke:#7A9CFF" />
<path d="M453.83,362.26L458.83,362.26" style="fill:none;stroke:#7A9CFF" />
<path d="M462.71,368.99L462.71,372.02" style="fill:none;stroke:#7A9CFF" />
<path d="M460.21,368.99L465.21,368.99" style="fill:none;stroke:#7A9CFF" />
<path d="M460.21,372.02L465.21,372.02" style="fill:none;stroke:#7A9CFF" />
<path d="M469.09,378.62L469.09,384.04" style="fill:none;stroke:#7A9CFF" />
<path d="M466.59,378.62L471.59,378.62" style="fill:none;stroke:#7A9CFF" />
<path d="M466.59,384.04L471.59,384.04" style="fill:none;stroke:#7A9CFF" />
<path d="M475.46,390.04L475.46,395.66" style="fill:none;stroke:#7A9CFF" />
<path d="M472.96,390.04L477.96,390.04" style="fill:none;stroke:#7A9CFF" />
<path d="M472.96,395.66L477.96,395.66" style="fill:none;stroke:#7A9CFF" />
<path d="M481.84,401.24L481.84,406.07" style="fill:none;stroke:#7A9CFF" />
<path d="M479.34,401.24L484.34,401.24" style="fill:none;stroke:#7A9CFF" />
<path d="M479.34,406.07L484.34,406.07" style="fill:none;stroke:#7A9CFF" />
<path d="M488.22,412.88L488.22,418.19" style="fill:none;stroke:#7A9CFF" />
<path d="M485.72,412.88L490.72,412.88" style="fill:none;stroke:#7A9CFF" />
<path d="M485.72,418.19L490.72,418.19" style="fill:none;stroke:#7A9CFF" />
<path d="M494.6,424.13L494.6,434.18" style="fill:none;stroke:#7A9CFF" />
<path d="M492.1,424.13L497.1,424.13" style="fill:none;stroke:#7A9CFF" />
<path d="M492.1,434.18L497.1,434.18" style="fill:none;stroke:#7A9CFF" />
<path d="M500.98,436.99L500.98,442.21" style="fill:none;stroke:#7A9CFF" />
<path d="M498.48,436.99L503.48,436.99" style="fill:none;stroke:#7A9CFF" />
<path d="M498.48,442.21L503.48,442.21" style="fill:none;stroke:#7A9CFF" />
<path d="M507.35,446.93L507.35,452.11" style="fill:none;stroke:#7A9CFF" />
<path d="M504.85,446.93L509.85,446.93" style="fill:none;stroke:#7A9CFF" />
<path d="M504.85,452.11L509.85,452.11" style="fill:none;stroke:#7A9CFF" />
<path d="M513.73,464.26L513.73,471.62" style="fill:none;stroke:#7A9CFF" />
<path d="M511.23,464.26L516.23,464.26" style="fill:none;stroke:#7A9CFF" />
<path d="M511.23,471.62L516.23,471.62" style="fill:none;stroke:#7A9CFF" />
<path d="M520.11,479.84L520.11,482.95" style="fill:none;stroke:#7A9CFF" />
<path d="M517.61,479.84L522.61,479.84" style="fill:none;stroke:#7A9CFF" />
<path d="M517.61,482.95L522.61,482.95" style="fill:none;stroke:#7A9CFF" />
<path d="M526.49,494.43L526.49,503.86" style="fill:none;stroke:#7A9CFF" />
<path d="M523.99,494.43L528.99,494.43" style="fill:none;stroke:#7A9CFF" />
<path d="M523.99,503.86L528.99,503.86" style="fill:none;stroke:#7A9CFF" />
<path d="M532.87,511.31L532.87,516.58" style="fill:none;stroke:#7A9CFF" />
<path d="M530.37,511.31L535.37,511.31" style="fill:none;stroke:#7A9CFF" />
<path d="M530.37,516.58L535.37,516.58" style="fill:none;stroke:#7A9CFF" />
<path d="M539.24,525.52L539.24,530.99" style="fill:none;stroke:#7A9CFF" />
<path d="M536.74,525.52L541.74,525.52" style="fill:none;stroke:#7A9CFF" />
<path d="M536.74,530.99L541.74,530.99" style="fill:none;stroke:#7A9CFF" />
<path d="M545.62,539.83L545.62,547.55" style="fill:none;stroke:#7A9CFF" />
<path d="M543.12,539.83L548.12,539.83" style="fill:none;stroke:#7A9CFF" />
<path d="M543.12,547.55L548.12,547.55" style="fill:none;stroke:#7A9CFF" />
<path d="M552,560.03L552,564.33" style="fill:none;stroke:#7A9CFF" />
<path d="M549.5,560.03L554.5,560.03" style="fill:none;stroke:#7A9CFF" />
<path d="M549.5,564.33L554.5,564.33" style="fill:none;stroke:#7A9CFF" />
<path d="M558.38,573.17L558.38,580.03" style="fill:none;stroke:#7A9CFF" />
<path d="M555.88,573.17L560.88,573.17" style="fill:none;stroke:#7A9CFF" />
<path d="M555.88,580.03L560.88,580.03" style="fill:none;stroke:#7A9CFF" />
<path d="M564.76,593.09L564.76,600.86" style="fill:none;stroke:#7A9CFF" />
<path d="M562.26,593.09L567.26,593.09" style="fill:none;stroke:#7A9CFF" />
<path d="M562.26,600.86L567.26,600.86" style="fill:none;stroke:#7A9CFF" />
<path d="M571.14,613.05L571.14,618.53" style="fill:none;stroke:#7A9CFF" />
<path d="M568.64,613.05L573.64,613.05" style="fill:none;stroke:#7A9CFF" />
<path d="M568.64,618.53L573.64,618.53" style="fill:none;stroke:#7A9CFF" />
<path d="M577.51,627.8L577.51,635.5" style="fill:none;stroke:#7A9CFF" />
<path d="M575.01,627.8L580.01,627.8" style="fill:none;stroke:#7A9CFF" />
<path d="M575.01,635.5L580.01,635.5" style="fill:none;stroke:#7A9CFF" />
<path d="M583.89,648.8L583.89,655.03" style="fill:none;stroke:#7A9CFF" />
<path d="M581.39,648.8L586.39,648.8" style="fill:none;stroke:#7A9CFF" />
<path d="M581.39,655.03L586.39,655.03" style="fill:none;stroke:#7A9CFF" />
<path d="M590.27,666.65L590.27,672.87" style="fill:none;stroke:#7A9CFF" />
<path d="M587.77,666.65L592.77,666.65" style="fill:none;stroke:#7A9CFF" />
<path d="M587.77,672.87L592.77,672.87" style="fill:none;stroke:#7A9CFF" />
<path d="M596.65,683.81L596.65,687.76" style="fill:none;stroke:#7A9CFF" />
<path d="M594.15,683.81L599.15,683.81" style="fill:none;stroke:#7A9CFF" />
<path d="M594.15,687.76L599.15,687.76" style="fill:none;stroke:#7A9CFF" />
<path d="M603.03,695.36L603.03,698.84" style="fill:none;stroke:#7A9CFF" />
<path d="M600.53,695.36L605.53,695.36" style="fill:none;stroke:#7A9CFF" />
<path d="M600.53,698.84L605.53,698.84" style="fill:none;stroke:#7A9CFF" />
<path d="M609.4,709.9L609.4,715.7" style="fill:none;stroke:#7A9CFF" />
<path d="M606.9,709.9L611.9,709.9" style="fill:none;stroke:#7A9CFF" />
<path d="M606.9,715.7L611.9,715.7" style="fill:none;stroke:#7A9CFF" />
<path d="M615.78,718.28L615.78,722.74" style="fill:none;stroke:#7A9CFF" />
<path d="M613.28,718.28L618.28,718.28" style="fill:none;stroke:#7A9CFF" />
<path d="M613.28,722.74L618.28,722.74" style="fill:none;stroke:#7A9CFF" />
<path d="M622.16,739.43L622.16,744.16" style="fill:none;stroke:#7A9CFF" />
<path d="M619.66,739.43L624.66,739.43" style="fill:none;stroke:#7A9CFF" />
<path d="M619.66,744.16L624.66,744.16" style="fill:none;stroke:#7A9CFF" />
<path d="M628.54,744.28L628.54,748.81" style="fill:none;stroke:#7A9CFF" />
<path d="M626.04,744.28L631.04,744.28" style="fill:none;stroke:#7A9CFF" />
<path d="M626.04,748.81L631.04,748.81" style="fill:none;stroke:#7A9CFF" />
<path d="M634.92,757.38L634.92,763.94" style="fill:none;stroke:#7A9CFF" />
<path d="M632.42,757.38L637.42,757.38" style="fill:none;stroke:#7A9CFF" />
<path d="M632.42,763.94L637.42,763.94" style="fill:none;stroke:#7A9CFF" />
<path d="M641.29,767.66L641.29,776.89" style="fill:none;stroke:#7A9CFF" />
<path d="M638.79,767.66L643.79,767.66" style="fill:none;stroke:#7A9CFF" />
<path d="M638.79,776.89L643.79,776.89" style="fill:none;stroke:#7A9CFF" />
<path d="M647.67,769.02L647.67,776.14" style="fill:none;stroke:#7A9CFF" />
<path d="M645.17,769.02L650.17,769.02" style="fill:none;stroke:#7A9CFF" />
<path d="M645.17,776.14L650.17,776.14" style="fill:none;stroke:#7A9CFF" />
<path d="M654.05,775.39L654.05,784.32" style="fill:none;stroke:#7A9CFF" />
<path d="M651.55,775.39L656.55,775.39" style="fill:none;stroke:#7A9CFF" />
<path d="M651.55,784.32L656.55,784.32" style="fill:none;stroke:#7A9CFF" />
<path d="M660.43,789.05L660.43,793.59" style="fill:none;stroke:#7A9CFF" />
<path d="M657.93,789.05L662.93,789.05" style="fill:none;stroke:#7A9CFF" />
<path d="M657.93,793.59L662.93,793.59" style="fill:none;stroke:#7A9CFF" />
<path d="M666.81,790.74L666.81,800.56" style="fill:none;stroke:#7A9CFF" />
<path d="M664.31,790.74L669.31,790.74" style="fill:none;stroke:#7A9CFF" />
<path d="M664.31,800.56L669.31,800.56" style="fill:none;stroke:#7A9CFF" />
<path d="M673.18,794.93L673.18,806.97" style="fill:none;stroke:#7A9CFF" />
<path d="M670.68,794.93L675.68,794.93" style="fill:none;stroke:#7A9CFF" />
<path d="M670.68,806.97L675.68,806.97" style="fill:none;stroke:#7A9CFF" />
<path d="M679.56,800.7L679.56,807.48" style="fill:none;stroke:#7A9CFF" />
<path d="M677.06,800.7L682.06,800.7" style="fill:none;stroke:#7A9CFF" />
<path d="M677.06,807.48L682.06,807.48" style="fill:none;stroke:#7A9CFF" />
<path d="M685.94,799.38L685.94,806.78" style="fill:none;stroke:#7A9CFF" />
<path d="M683.44,799.38L688.44,799.38" style="fill:none;stroke:#7A9CFF" />
<path d="M683.44,806.78L688.44,806.78" style="fill:none;stroke:#7A9CFF" />
<path d="M692.32,793.31L692.32,800.66" style="fill:none;stroke:#7A9CFF" />
<path d="M689.82,793.31L694.82,793.31" style="fill:none;stroke:#7A9CFF" />
<path d="M689.82,800.66L694.82,800.66" style="fill:none;stroke:#7A9CFF" />
<path d="M698.7,785.74L698.7,792" style="fill:none;stroke:#7A9CFF" />
<path d="M696.2,785.74L701.2,785.74" style="fill:none;stroke:#7A9CFF" />
<path d="M696.2,792L701.2,792" style="fill:none;stroke:#7A9CFF" />
<path d="M705.07,780.13L705.07,785.93" style="fill:none;stroke:#7A9CFF" />
<path d="M702.57,780.13L707.57,780.13" style="fill:none;stroke:#7A9CFF" />
<path d="M702.57,785.93L707.57,785.93" style="fill:none;stroke:#7A9CFF" />
<path d="M711.45,766.41L711.45,773.24" style="fill:none;stroke:#7A9CFF" />
<path d="M708.95,766.41L713.95,766.41" style="fill:none;stroke:#7A9CFF" />
<path d="M708.95,773.24L713.95,773.24" style="fill:none;stroke:#7A9CFF" />
<path d="M717.83,736.53L717.83,748.27" style="fill:none;stroke:#7A9CFF" />
<path d="M715.33,736.53L720.33,736.53" style="fill:none;stroke:#7A9CFF" />
<path d="M715.33,748.27L720.33,748.27" style="fill:none;stroke:#7A9CFF" />
<path d="M724.21,716.87L724.21,730.14" style="fill:none;stroke:#7A9CFF" />
<path d="M721.71,716.87L726.71,716.87" style="fill:none;stroke:#7A9CFF" />
<path d="M721.71,730.14L726.71,730.14" style="fill:none;stroke:#7A9CFF" />
<path d="M730.59,688.9L730.59,697.89" style="fill:none;stroke:#7A9CFF" />
<path d="M728.09,688.9L733.09,688.9" style="fill:none;stroke:#7A9CFF" />
<path d="M728.09,697.89L733.09,697.89" style="fill:none;stroke:#7A9CFF" />
<path d="M736.96,661.32L736.96,671.61" style="fill:none;stroke:#7A9CFF" />
<path d="M734.46,661.32L739.46,661.32" style="fill:none;stroke:#7A9CFF" />
<path d="M734.46,671.61L739.46,671.61" style="fill:none;stroke:#7A9CFF" />
<path d="M743.34,626.4L743.34,636.46" style="fill:none;stroke:#7A9CFF" />
<path d="M740.84,626.4L745.84,626.4" style="fill:none;stroke:#7A9CFF" />
<path d="M740.84,636.46L745.84,636.46" style="fill:none;stroke:#7A9CFF" />
<path d="M749.72,597.77L749.72,601.14" style="fill:none;stroke:#7A9CFF" />
<path d="M747.22,597.77L752.22,597.77" style="fill:none;stroke:#7A9CFF" />
<path d="M747.22,601.14L752.22,601.14" style="fill:none;stroke:#7A9CFF" />
<path d="M756.1,563.85L756.1,574.24" style="fill:none;stroke:#7A9CFF" />
<path d="M753.6,563.85L758.6,563.85" style="fill:none;stroke:#7A9CFF" />
<path d="M753.6,574.24L758.6,574.24" style="fill:none;stroke:#7A9CFF" />
<path d="M762.48,529.61L762.48,544.55" style="fill:none;stroke:#7A9CFF" />
<path d="M759.98,529.61L764.98,529.61" style="fill:none;stroke:#7A9CFF" />
<path d="M759.98,544.55L764.98,544.55" style="fill:none;stroke:#7A9CFF" />
<path d="M768.85,503.37L768.85,514.81" style="fill:none;stroke:#7A9CFF" />
<path d="M766.35,503.37L771.35,503.37" style="fill:none;stroke:#7A9CFF" />
<path d="M766.35,514.81L771.35,514.81" style="fill:none;stroke:#7A9CFF" />
<path d="M775.23,479.24L775.23,486.83" style="fill:none;stroke:#7A9CFF" />
<path d="M772.73,479.24L777.73,479.24" style="fill:none;stroke:#7A9CFF" />
<path d="M772.73,486.83L777.73,486.83" style="fill:none;stroke:#7A9CFF" />
<path d="M781.61,448.08L781.61,454.54" style="fill:none;stroke:#7A9CFF" />
<path d="M779.11,448.08L784.11,448.08" style="fill:none;stroke:#7A9CFF" />
<path d="M779.11,454.54L784.11,454.54" style="fill:none;stroke:#7A9CFF" />
<path d="M787.99,426.89L787.99,436.45" style="fill:none;stroke:#7A9CFF" />
<path d="M785.49,426.89L790.49,426.89" style="fill:none;stroke:#7A9CFF" />
<path d="M785.49,436.45L790.49,436.45" style="fill:none;stroke:#7A9CFF" />
<path d="M794.37,401.43L794.37,407.94" style="fill:none;stroke:#7A9CFF" />
<path d="M791.87,401.43L796.87,401.43" style="fill:none;stroke:#7A9CFF" />
<path d="M791.87,407.94L796.87,407.94" style="fill:none;stroke:#7A9CFF" />
<path d="M800.74,382.68L800.74,389.51" style="fill:none;stroke:#7A9CFF" />
<path d="M798.24,382.68L803.24,382.68" style="fill:none;stroke:#7A9CFF" />
<path d="M798.24,389.51L803.24,389.51" style="fill:none;stroke:#7A9CFF" />
<path d="M807.12,363.41L807.12,369.29" style="fill:none;stroke:#7A9CFF" />
<path d="M804.62,363.41L809.62,363.41" style="fill:none;stroke:#7A9CFF" />
<path d="M804.62,369.29L809.62,369.29" style="fill:none;stroke:#7A9CFF" />
<path d="M813.5,349.1L813.5,355.13" style="fill:none;stroke:#7A9CFF" />
<path d="M811,349.1L816,349.1" style="fill:none;stroke:#7A9CFF" />
<path d="M811,355.13L816,355.13" style="fill:none;stroke:#7A9CFF" />
<path d="M819.88,330.64L819.88,337.52" style="fill:none;stroke:#7A9CFF" />
<path d="M817.38,330.64L822.38,330.64" style="fill:none;stroke:#7A9CFF" />
<path d="M817.38,337.52L822.38,337.52" style="fill:none;stroke:#7A9CFF" />
<path d="M826.26,316.71L826.26,320.92" style="fill:none;stroke:#7A9CFF" />
<path d="M823.76,316.71L828.76,316.71" style="fill:none;stroke:#7A9CFF" />
<path d="M823.76,320.92L828.76,320.92" style="fill:none;stroke:#7A9CFF" />
<path d="M832.63,301.41L832.63,310.33" style="fill:none;stroke:#7A9CFF" />
<path d="M830.13,301.41L835.13,301.41" style="fill:none;stroke:#7A9CFF" />
<path d="M830.13,310.33L835.13,310.33" style="fill:none;stroke:#7A9CFF" />
<path d="M839.01,292.72L839.01,296.68" style="fill:none;stroke:#7A9CFF" />
<path d="M836.51,292.72L841.51,292.72" style="fill:none;stroke:#7A9CFF" />
<path d="M836.51,296.68L841.51,296.68" style="fill:none;stroke:#7A9CFF" />
<path d="M845.39,279.4L845.39,284.79" style="fill:none;stroke:#7A9CFF" />
<path d="M842.89,279.4L847.89,279.4" style="fill:none;stroke:#7A9CFF" />
<path d="M842.89,284.79L847.89,284.79" style="fill:none;stroke:#7A9CFF" />
<path d="M851.77,271.25L851.77,275.83" style="fill:none;stroke:#7A9CFF" />
<path d="M849.27,271.25L854.27,271.25" style="fill:none;stroke:#7A9CFF" />
<path d="M849.27,275.83L854.27,275.83" style="fill:none;stroke:#7A9CFF" />
<path d="M858.15,262.4L858.15,265.68" style="fill:none;stroke:#7A9CFF" />
<path d="M855.65,262.4L860.65,262.4" style="fill:none;stroke:#7A9CFF" />
<path d="M855.65,265.68L860.65,265.68" style="fill:none;stroke:#7A9CFF" />
<path d="M864.52,250.97L864.52,254.82" style="fill:none;stroke:#7A9CFF" />
<path d="M862.02,250.97L867.02,250.97" style="fill:none;stroke:#7A9CFF" />
<path d="M862.02,254.82L867.02,254.82" style="fill:none;stroke:#7A9CFF" />
<path d="M870.9,246.88L870.9,249.26" style="fill:none;stroke:#7A9CFF" />
<path d="M868.4,246.88L873.4,246.88" style="fill:none;stroke:#7A9CFF" />
<path d="M868.4,249.26L873.4,249.26" style="fill:none;stroke:#7A9CFF" />
<path d="M877.28,237.58L877.28,239" style="fill:none;stroke:#7A9CFF" />
<path d="M874.78,237.58L879.78,237.58" style="fill:none;stroke:#7A9CFF" />
<path d="M874.78,239L879.78,239" style="fill:none;stroke:#7A9CFF" />
<path d="M883.66,232.39L883.66,233.73" style="fill:none;stroke:#7A9CFF" />
<path d="M881.16,232.39L886.16,232.39" style="fill:none;stroke:#7A9CFF" />
<path d="M881.16,233.73L886.16,233.73" style="fill:none;stroke:#7A9CFF" />
<path d="M890.04,226L890.04,228.12" style="fill:none;stroke:#7A9CFF" />
<path d="M887.54,226L892.54,226" style="fill:none;stroke:#7A9CFF" />
<path d="M887.54,228.12L892.54,228.12" style="fill:none;stroke:#7A9CFF" />
<path d="M896.41,219.65L896.41,221.43" style="fill:none;stroke:#7A9CFF" />
<path d="M893.91,219.65L898.91,219.65" style="fill:none;stroke:#7A9CFF" />
<path d="M893.91,221.43L898.91,221.43" style="fill:none;stroke:#7A9CFF" />
<path d="M902.79,213.05L902.79,215.53" style="fill:none;stroke:#7A9CFF" />
<path d="M900.29,213.05L905.29,213.05" style="fill:none;stroke:#7A9CFF" />
<path d="M900.29,215.53L905.29,215.53" style="fill:none;stroke:#7A9CFF" />
<path d="M909.17,207.96L909.17,211.96" style="fill:none;stroke:#7A9CFF" />
<path d="M906.67,207.96L911.67,207.96" style="fill:none;stroke:#7A9CFF" />
<path d="M906.67,211.96L911.67,211.96" style="fill:none;stroke:#7A9CFF" />
<path d="M915.55,203.99L915.55,205.84" style="fill:none;stroke:#7A9CFF" />
<path d="M913.05,203.99L918.05,203.99" style="fill:none;stroke:#7A9CFF" />
<path d="M913.05,205.84L918.05,205.84" style="fill:none;stroke:#7A9CFF" />
<path d="M921.93,198.53L921.93,200.38" style="fill:none;stroke:#7A9CFF" />
<path d="M919.43,198.53L924.43,198.53" style="fill:none;stroke:#7A9CFF" />
<path d="M919.43,200.38L924.43,200.38" style="fill:none;stroke:#7A9CFF" />
<path d="M928.31,195.22L928.31,196.54" style="fill:none;stroke:#7A9CFF" />
<path d="M925.81,195.22L930.81,195.22" style="fill:none;stroke:#7A9CFF" />
<path d="M925.81,196.54L930.81,196.54" style="fill:none;stroke:#7A9CFF" />
<path d="M934.68,189.89L934.68,191.12" style="fill:none;stroke:#7A9CFF" />
<path d="M932.18,189.89L937.18,189.89" style="fill:none;stroke:#7A9CFF" />
<path d="M932.18,191.12L937.18,191.12" style="fill:none;stroke:#7A9CFF" />
<path d="M941.06,185.79L941.06,188.32" style="fill:none;stroke:#7A9CFF" />
<path d="M938.56,185.79L943.56,185.79" style="fill:none;stroke:#7A9CFF" />
<path d="M938.56,188.32L943.56,188.32" style="fill:none;stroke:#7A9CFF" />
<path d="M947.44,181.85L947.44,182.97" style="fill:none;stroke:#7A9CFF" />
<path d="M944.94,181.85L949.94,181.85" style="fill:none;stroke:#7A9CFF" />
<path d="M944.94,182.97L949.94,182.97" style="fill:none;stroke:#7A9CFF" />
<path d="M953.82,179.01L953.82,179.68" style="fill:none;stroke:#7A9CFF" />
<path d="M951.32,179.01L956.32,179.01" style="fill:none;stroke:#7A9CFF" />
<path d="M951.32,179.68L956.32,179.68" style="fill:none;stroke:#7A9CFF" />
<path d="M960.2,174.66L960.2,176.09" style="fill:none;stroke:#7A9CFF" />
<path d="M957.7,174.66L962.7,174.66" style="fill:none;stroke:#7A9CFF" />
<path d="M957.7,176.09L962.7,176.09" style="fill:none;stroke:#7A9CFF" />
<path d="M966.57,170.94L966.57,171.88" style="fill:none;stroke:#7A9CFF" />
<path d="M964.07,170.94L969.07,170.94" style="fill:none;stroke:#7A9CFF" />
<path d="M964.07,171.88L969.07,171.88" style="fill:none;stroke:#7A9CFF" />
<path d="M972.95,168.36L972.95,169.2" style="fill:none;stroke:#7A9CFF" />
<path d="M970.45,168.36L975.45,168.36" style="fill:none;stroke:#7A9CFF" />
<path d="M970.45,169.2L975.45,169.2" style="fill:none;stroke:#7A9CFF" />
<path d="M979.33,164.41L979.33,165.5" style="fill:none;stroke:#7A9CFF" />
<path d="M976.83,164.41L981.83,164.41" style="fill:none;stroke:#7A9CFF" />
<path d="M976.83,165.5L981.83,165.5" style="fill:none;stroke:#7A9CFF" />
<path d="M985.71,161.48L985.71,162.43" style="fill:none;stroke:#7A9CFF" />
<path d="M983.21,161.48L988.21,161.48" style="fill:none;stroke:#7A9CFF" />
<path d="M983.21,162.43L988.21,162.43" style="fill:none;stroke:#7A9CFF" />
<path d="M992.09,159.07L992.09,160.83" style="fill:none;stroke:#7A9CFF" />
<path d="M989.59,159.07L994.59,159.07" style="fill:none;stroke:#7A9CFF" />
<path d="M989.59,160.83L994.59,160.83" style="fill:none;stroke:#7A9CFF" />
<path d="M998.46,157.71L998.46,158.86" style="fill:none;stroke:#7A9CFF" />
<path d="M995.96,157.71L1001,157.71" style="fill:none;stroke:#7A9CFF" />
<path d="M995.96,158.86L1001,158.86" style="fill:none;stroke:#7A9CFF" />
<path d="M1004.8,154.1L1004.8,155.08" style="fill:none;stroke:#7A9CFF" />
<path d="M1002.3,154.1L1007.3,154.1" style="fill:none;stroke:#7A9CFF" />
<path d="M1002.3,155.08L1007.3,155.08" style="fill:none;stroke:#7A9CFF" />
<path d="M1011.2,150.21L1011.2,151.81" style="fill:none;stroke:#7A9CFF" />
<path d="M1008.7,150.21L1013.7,150.21" style="fill:none;stroke:#7A9CFF" />
<path d="M1008.7,151.81L1013.7,151.81" style="fill:none;stroke:#7A9CFF" />
<path d="M1017.6,148.02L1017.6,150.14" style="fill:none;stroke:#7A9CFF" />
<path d="M1015.1,148.02L1020.1,148.02" style="fill:none;stroke:#7A9CFF" />
<path d="M1015.1,150.14L1020.1,150.14" style="fill:none;stroke:#7A9CFF" />
<path d="M1024,146.29L1024,147.3" style="fill:none;stroke:#7A9CFF" />
<path d="M1021.5,146.29L1026.5,146.29" style="fill:none;stroke:#7A9CFF" />
<path d="M1021.5,147.3L1026.5,147.3" style="fill:none;stroke:#7A9CFF" />
<path d="M1030.4,144.62L1030.4,145.84" style="fill:none;stroke:#7A9CFF" />
<path d="M1027.9,144.62L1032.9,144.62" style="fill:none;stroke:#7A9CFF" />
<path d="M1027.9,145.84L1032.9,145.84" style="fill:none;stroke:#7A9CFF" />
<path d="M1036.7,143.08L1036.7,144.57" style="fill:none;stroke:#7A9CFF" />
<path d="M1034.2,143.08L1039.2,143.08" style="fill:none;stroke:#7A9CFF" />
<path d="M1034.2,144.57L1039.2,144.57" style="fill:none;stroke:#7A9CFF" />
<path d="M1043.1,140.46L1043.1,142.49" style="fill:none;stroke:#7A9CFF" />
<path d="M1040.6,140.46L1045.6,140.46" style="fill:none;stroke:#7A9CFF" />
<path d="M1040.6,142.49L1045.6,142.49" style="fill:none;stroke:#7A9CFF" />
<path d="M1049.5,139.79L1049.5,140.85" style="fill:none;stroke:#7A9CFF" />
<path d="M1047,139.79L1052,139.79" style="fill:none;stroke:#7A9CFF" />
<path d="M1047,140.85L1052,140.85" style="fill:none;stroke:#7A9CFF" />
<path d="M1055.9,137.36L1055.9,138.76" style="fill:none;stroke:#7A9CFF" />
<path d="M1053.4,137.36L1058.4,137.36" style="fill:none;stroke:#7A9CFF" />
<path d="M1053.4,138.76L1058.4,138.76" style="fill:none;stroke:#7A9CFF" />
<path d="M1062.2,137.06L1062.2,138.59" style="fill:none;stroke:#7A9CFF" />
<path d="M1059.7,137.06L1064.7,137.06" style="fill:none;stroke:#7A9CFF" />
<path d="M1059.7,138.59L1064.7,138.59" style="fill:none;stroke:#7A9CFF" />
<path d="M1068.6,136.18L1068.6,137.46" style="fill:none;stroke:#7A9CFF" />
<path d="M1066.1,136.18L1071.1,136.18" style="fill:none;stroke:#7A9CFF" />
<path d="M1066.1,137.46L1071.1,137.46" style="fill:none;stroke:#7A9CFF" />
<path d="M1075,134.65L1075,136.2" style="fill:none;stroke:#7A9CFF" />
<path d="M1072.5,134.65L1077.5,134.65" style="fill:none;stroke:#7A9CFF" />
<path d="M1072.5,136.2L1077.5,136.2" style="fill:none;stroke:#7A9CFF" />
<path d="M206.21,162.45A5,5 0 1 1 196.21,162.45A5,5 0 1 1 206.21,162.45Z" style="fill:#7A9CFF" />
<path d="M212.59,163.77A5,5 0 1 1 202.59,163.77A5,5 0 1 1 212.59,163.77Z" style="fill:#7A9CFF" />
<path d="M218.97,166.57A5,5 0 1 1 208.97,166.57A5,5 0 1 1 218.97,166.57Z" style="fill:#7A9CFF" />
<path d="M225.34,170.71A5,5 0 1 1 215.34,170.71A5,5 0 1 1 225.34,170.71Z" style="fill:#7A9CFF" />
<path d="M231.72,174.04A5,5 0 1 1 221.72,174.04A5,5 0 1 1 231.72,174.04Z" style="fill:#7A9CFF" />
<path d="M238.1,176.44A5,5 0 1 1 228.1,176.44A5,5 0 1 1 238.1,176.44Z" style="fill:#7A9CFF" />
<path d="M244.48,179.26A5,5 0 1 1 234.48,179.26A5,5 0 1 1 244.48,179.26Z" style="fill:#7A9CFF" />
<path d="M250.86,180.8A5,5 0 1 1 240.86,180.8A5,5 0 1 1 250.86,180.8Z" style="fill:#7A9CFF" />
<path d="M257.23,182.87A5,5 0 1 1 247.23,182.87A5,5 0 1 1 257.23,182.87Z" style="fill:#7A9CFF" />
<path d="M263.61,186.09A5,5 0 1 1 253.61,186.09A5,5 0 1 1 263.61,186.09Z" style="fill:#7A9CFF" />
<path d="M269.99,189.19A5,5 0 1 1 259.99,189.19A5,5 0 1 1 269.99,189.19Z" style="fill:#7A9CFF" />
<path d="M276.37,193.11A5,5 0 1 1 266.37,193.11A5,5 0 1 1 276.37,193.11Z" style="fill:#7A9CFF" />
<path d="M282.75,194.4A5,5 0 1 1 272.75,194.4A5,5 0 1 1 282.75,194.4Z" style="fill:#7A9CFF" />
<path d="M289.12,198.85A5,5 0 1 1 279.12,198.85A5,5 0 1 1 289.12,198.85Z" style="fill:#7A9CFF" />
<path d="M295.5,200.89A5,5 0 1 1 285.5,200.89A5,5 0 1 1 295.5,200.89Z" style="fill:#7A9CFF" />
<path d="M301.88,205.6A5,5 0 1 1 291.88,205.6A5,5 0 1 1 301.88,205.6Z" style="fill:#7A9CFF" />
<path d="M308.26,210.8A5,5 0 1 1 298.26,210.8A5,5 0 1 1 308.26,210.8Z" style="fill:#7A9CFF" />
<path d="M314.64,215.49A5,5 0 1 1 304.64,215.49A5,5 0 1 1 314.64,215.49Z" style="fill:#7A9CFF" />
<path d="M321.01,218.02A5,5 0 1 1 311.01,218.02A5,5 0 1 1 321.01,218.02Z" style="fill:#7A9CFF" />
<path d="M327.39,222.75A5,5 0 1 1 317.39,222.75A5,5 0 1 1 327.39,222.75Z" style="fill:#7A9CFF" />
<path d="M333.77,228.81A5,5 0 1 1 323.77,228.81A5,5 0 1 1 333.77,228.81Z" style="fill:#7A9CFF" />
<path d="M340.15,233.25A5,5 0 1 1 330.15,233.25A5,5 0 1 1 340.15,233.25Z" style="fill:#7A9CFF" />
<path d="M346.53,237.61A5,5 0 1 1 336.53,237.61A5,5 0 1 1 346.53,237.61Z" style="fill:#7A9CFF" />
<path d="M352.9,242.36A5,5 0 1 1 342.9,242.36A5,5 0 1 1 352.9,242.36Z" style="fill:#7A9CFF" />
<path d="M359.28,248.04A5,5 0 1 1 349.28,248.04A5,5 0 1 1 359.28,248.04Z" style="fill:#7A9CFF" />
<path d="M365.66,253.51A5,5 0 1 1 355.66,253.51A5,5 0 1 1 365.66,253.51Z" style="fill:#7A9CFF" />
<path d="M372.04,259.1A5,5 0 1 1 362.04,259.1A5,5 0 1 1 372.04,259.1Z" style="fill:#7A9CFF" />
<path d="M378.42,262.44A5,5 0 1 1 368.42,262.44A5,5 0 1 1 378.42,262.44Z" style="fill:#7A9CFF" />
<path d="M384.79,266.64A5,5 0 1 1 374.79,266.64A5,5 0 1 1 384.79,266.64Z" style="fill:#7A9CFF" />
<path d="M391.17,273.33A5,5 0 1 1 381.17,273.33A5,5 0 1 1 391.17,273.33Z" style="fill:#7A9CFF" />
<path d="M397.55,280.5A5,5 0 1 1 387.55,280.5A5,5 0 1 1 397.55,280.5Z" style="fill:#7A9CFF" />
<path d="M403.93,287.08A5,5 0 1 1 393.93,287.08A5,5 0 1 1 403.93,287.08Z" style="fill:#7A9CFF" />
<path d="M410.31,294.4A5,5 0 1 1 400.31,294.4A5,5 0 1 1 410.31,294.4Z" style="fill:#7A9CFF" />
<path d="M416.68,301.04A5,5 0 1 1 406.68,301.04A5,5 0 1 1 416.68,301.04Z" style="fill:#7A9CFF" />
<path d="M423.06,307.78A5,5 0 1 1 413.06,307.78A5,5 0 1 1 423.06,307.78Z" style="fill:#7A9CFF" />
<path d="M429.44,316.63A5,5 0 1 1 419.44,316.63A5,5 0 1 1 429.44,316.63Z" style="fill:#7A9CFF" />
<path d="M435.82,327.53A5,5 0 1 1 425.82,327.53A5,5 0 1 1 435.82,327.53Z" style="fill:#7A9CFF" />
<path d="M442.2,336.81A5,5 0 1 1 432.2,336.81A5,5 0 1 1 442.2,336.81Z" style="fill:#7A9CFF" />
<path d="M448.57,343.85A5,5 0 1 1 438.57,343.85A5,5 0 1 1 448.57,343.85Z" style="fill:#7A9CFF" />
<path d="M454.95,352.47A5,5 0 1 1 444.95,352.47A5,5 0 1 1 454.95,352.47Z" style="fill:#7A9CFF" />
<path d="M461.33,360.14A5,5 0 1 1 451.33,360.14A5,5 0 1 1 461.33,360.14Z" style="fill:#7A9CFF" />
<path d="M467.71,370.5A5,5 0 1 1 457.71,370.5A5,5 0 1 1 467.71,370.5Z" style="fill:#7A9CFF" />
<path d="M474.09,381.33A5,5 0 1 1 464.09,381.33A5,5 0 1 1 474.09,381.33Z" style="fill:#7A9CFF" />
<path d="M480.46,392.85A5,5 0 1 1 470.46,392.85A5,5 0 1 1 480.46,392.85Z" style="fill:#7A9CFF" />
<path d="M486.84,403.66A5,5 0 1 1 476.84,403.66A5,5 0 1 1 486.84,403.66Z" style="fill:#7A9CFF" />
<path d="M493.22,415.54A5,5 0 1 1 483.22,415.54A5,5 0 1 1 493.22,415.54Z" style="fill:#7A9CFF" />
<path d="M499.6,429.15A5,5 0 1 1 489.6,429.15A5,5 0 1 1 499.6,429.15Z" style="fill:#7A9CFF" />
<path d="M505.98,439.6A5,5 0 1 1 495.98,439.6A5,5 0 1 1 505.98,439.6Z" style="fill:#7A9CFF" />
<path d="M512.35,449.52A5,5 0 1 1 502.35,449.52A5,5 0 1 1 512.35,449.52Z" style="fill:#7A9CFF" />
<path d="M518.73,467.94A5,5 0 1 1 508.73,467.94A5,5 0 1 1 518.73,467.94Z" style="fill:#7A9CFF" />
<path d="M525.11,481.4A5,5 0 1 1 515.11,481.4A5,5 0 1 1 525.11,481.4Z" style="fill:#7A9CFF" />
<path d="M531.49,499.15A5,5 0 1 1 521.49,499.15A5,5 0 1 1 531.49,499.15Z" style="fill:#7A9CFF" />
<path d="M537.87,513.94A5,5 0 1 1 527.87,513.94A5,5 0 1 1 537.87,513.94Z" style="fill:#7A9CFF" />
<path d="M544.24,528.25A5,5 0 1 1 534.24,528.25A5,5 0 1 1 544.24,528.25Z" style="fill:#7A9CFF" />
<path d="M550.62,543.69A5,5 0 1 1 540.62,543.69A5,5 0 1 1 550.62,543.69Z" style="fill:#7A9CFF" />
<path d="M557,562.18A5,5 0 1 1 547,562.18A5,5 0 1 1 557,562.18Z" style="fill:#7A9CFF" />
<path d="M563.38,576.6A5,5 0 1 1 553.38,576.6A5,5 0 1 1 563.38,576.6Z" style="fill:#7A9CFF" />
<path d="M569.76,596.97A5,5 0 1 1 559.76,596.97A5,5 0 1 1 569.76,596.97Z" style="fill:#7A9CFF" />
<path d="M576.14,615.79A5,5 0 1 1 566.14,615.79A5,5 0 1 1 576.14,615.79Z" style="fill:#7A9CFF" />
<path d="M582.51,631.65A5,5 0 1 1 572.51,631.65A5,5 0 1 1 582.51,631.65Z" style="fill:#7A9CFF" />
<path d="M588.89,651.92A5,5 0 1 1 578.89,651.92A5,5 0 1 1 588.89,651.92Z" style="fill:#7A9CFF" />
<path d="M595.27,669.76A5,5 0 1 1 585.27,669.76A5,5 0 1 1 595.27,669.76Z" style="fill:#7A9CFF" />
<path d="M601.65,685.78A5,5 0 1 1 591.65,685.78A5,5 0 1 1 601.65,685.78Z" style="fill:#7A9CFF" />
<path d="M608.03,697.1A5,5 0 1 1 598.03,697.1A5,5 0 1 1 608.03,697.1Z" style="fill:#7A9CFF" />
<path d="M614.4,712.8A5,5 0 1 1 604.4,712.8A5,5 0 1 1 614.4,712.8Z" style="fill:#7A9CFF" />
<path d="M620.78,720.51A5,5 0 1 1 610.78,720.51A5,5 0 1 1 620.78,720.51Z" style="fill:#7A9CFF" />
<path d="M627.16,741.8A5,5 0 1 1 617.16,741.8A5,5 0 1 1 627.16,741.8Z" style="fill:#7A9CFF" />
<path d="M633.54,746.55A5,5 0 1 1 623.54,746.55A5,5 0 1 1 633.54,746.55Z" style="fill:#7A9CFF" />
<path d="M639.92,760.66A5,5 0 1 1 629.92,760.66A5,5 0 1 1 639.92,760.66Z" style="fill:#7A9CFF" />
<path d="M646.29,772.27A5,5 0 1 1 636.29,772.27A5,5 0 1 1 646.29,772.27Z" style="fill:#7A9CFF" />
<path d="M652.67,772.58A5,5 0 1 1 642.67,772.58A5,5 0 1 1 652.67,772.58Z" style="fill:#7A9CFF" />
<path d="M659.05,779.86A5,5 0 1 1 649.05,779.86A5,5 0 1 1 659.05,779.86Z" style="fill:#7A9CFF" />
<path d="M665.43,791.32A5,5 0 1 1 655.43,791.32A5,5 0 1 1 665.43,791.32Z" style="fill:#7A9CFF" />
<path d="M671.81,795.65A5,5 0 1 1 661.81,795.65A5,5 0 1 1 671.81,795.65Z" style="fill:#7A9CFF" />
<path d="M678.18,800.95A5,5 0 1 1 668.18,800.95A5,5 0 1 1 678.18,800.95Z" style="fill:#7A9CFF" />
<path d="M684.56,804.09A5,5 0 1 1 674.56,804.09A5,5 0 1 1 684.56,804.09Z" style="fill:#7A9CFF" />
<path d="M690.94,803.08A5,5 0 1 1 680.94,803.08A5,5 0 1 1 690.94,803.08Z" style="fill:#7A9CFF" />
<path d="M697.32,796.99A5,5 0 1 1 687.32,796.99A5,5 0 1 1 697.32,796.99Z" style="fill:#7A9CFF" />
<path d="M703.7,788.87A5,5 0 1 1 693.7,788.87A5,5 0 1 1 703.7,788.87Z" style="fill:#7A9CFF" />
<path d="M710.07,783.03A5,5 0 1 1 700.07,783.03A5,5 0 1 1 710.07,783.03Z" style="fill:#7A9CFF" />
<path d="M716.45,769.83A5,5 0 1 1 706.45,769.83A5,5 0 1 1 716.45,769.83Z" style="fill:#7A9CFF" />
<path d="M722.83,742.4A5,5 0 1 1 712.83,742.4A5,5 0 1 1 722.83,742.4Z" style="fill:#7A9CFF" />
<path d="M729.21,723.51A5,5 0 1 1 719.21,723.51A5,5 0 1 1 729.21,723.51Z" style="fill:#7A9CFF" />
<path d="M735.59,693.4A5,5 0 1 1 725.59,693.4A5,5 0 1 1 735.59,693.4Z" style="fill:#7A9CFF" />
<path d="M741.96,666.46A5,5 0 1 1 731.96,666.46A5,5 0 1 1 741.96,666.46Z" style="fill:#7A9CFF" />
<path d="M748.34,631.43A5,5 0 1 1 738.34,631.43A5,5 0 1 1 748.34,631.43Z" style="fill:#7A9CFF" />
<path d="M754.72,599.45A5,5 0 1 1 744.72,599.45A5,5 0 1 1 754.72,599.45Z" style="fill:#7A9CFF" />
<path d="M761.1,569.04A5,5 0 1 1 751.1,569.04A5,5 0 1 1 761.1,569.04Z" style="fill:#7A9CFF" />
<path d="M767.48,537.08A5,5 0 1 1 757.48,537.08A5,5 0 1 1 767.48,537.08Z" style="fill:#7A9CFF" />
<path d="M773.85,509.09A5,5 0 1 1 763.85,509.09A5,5 0 1 1 773.85,509.09Z" style="fill:#7A9CFF" />
<path d="M780.23,483.03A5,5 0 1 1 770.23,483.03A5,5 0 1 1 780.23,483.03Z" style="fill:#7A9CFF" />
<path d="M786.61,451.31A5,5 0 1 1 776.61,451.31A5,5 0 1 1 786.61,451.31Z" style="fill:#7A9CFF" />
<path d="M792.99,431.67A5,5 0 1 1 782.99,431.67A5,5 0 1 1 792.99,431.67Z" style="fill:#7A9CFF" />
<path d="M799.37,404.69A5,5 0 1 1 789.37,404.69A5,5 0 1 1 799.37,404.69Z" style="fill:#7A9CFF" />
<path d="M805.74,386.1A5,5 0 1 1 795.74,386.1A5,5 0 1 1 805.74,386.1Z" style="fill:#7A9CFF" />
<path d="M812.12,366.35A5,5 0 1 1 802.12,366.35A5,5 0 1 1 812.12,366.35Z" style="fill:#7A9CFF" />
<path d="M818.5,352.12A5,5 0 1 1 808.5,352.12A5,5 0 1 1 818.5,352.12Z" style="fill:#7A9CFF" />
<path d="M824.88,334.08A5,5 0 1 1 814.88,334.08A5,5 0 1 1 824.88,334.08Z" style="fill:#7A9CFF" />
<path d="M831.26,318.81A5,5 0 1 1 821.26,318.81A5,5 0 1 1 831.26,318.81Z" style="fill:#7A9CFF" />
<path d="M837.63,305.87A5,5 0 1 1 827.63,305.87A5,5 0 1 1 837.63,305.87Z" style="fill:#7A9CFF" />
<path d="M844.01,294.7A5,5 0 1 1 834.01,294.7A5,5 0 1 1 844.01,294.7Z" style="fill:#7A9CFF" />
<path d="M850.39,282.09A5,5 0 1 1 840.39,282.09A5,5 0 1 1 850.39,282.09Z" style="fill:#7A9CFF" />
<path d="M856.77,273.54A5,5 0 1 1 846.77,273.54A5,5 0 1 1 856.77,273.54Z" style="fill:#7A9CFF" />
<path d="M863.15,264.04A5,5 0 1 1 853.15,264.04A5,5 0 1 1 863.15,264.04Z" style="fill:#7A9CFF" />
<path d="M869.52,252.89A5,5 0 1 1 859.52,252.89A5,5 0 1 1 869.52,252.89Z" style="fill:#7A9CFF" />
<path d="M875.9,248.07A5,5 0 1 1 865.9,248.07A5,5 0 1 1 875.9,248.07Z" style="fill:#7A9CFF" />
<path d="M882.28,238.29A5,5 0 1 1 872.28,238.29A5,5 0 1 1 882.28,238.29Z" style="fill:#7A9CFF" />
<path d="M888.66,233.06A5,5 0 1 1 878.66,233.06A5,5 0 1 1 888.66,233.06Z" style="fill:#7A9CFF" />
<path d="M895.04,227.06A5,5 0 1 1 885.04,227.06A5,5 0 1 1 895.04,227.06Z" style="fill:#7A9CFF" />
<path d="M901.41,220.54A5,5 0 1 1 891.41,220.54A5,5 0 1 1 901.41,220.54Z" style="fill:#7A9CFF" />
<path d="M907.79,214.29A5,5 0 1 1 897.79,214.29A5,5 0 1 1 907.79,214.29Z" style="fill:#7A9CFF" />
<path d="M914.17,209.96A5,5 0 1 1 904.17,209.96A5,5 0 1 1 914.17,209.96Z" style="fill:#7A9CFF" />
<path d="M920.55,204.91A5,5 0 1 1 910.55,204.91A5,5 0 1 1 920.55,204.91Z" style="fill:#7A9CFF" />
<path d="M926.93,199.45A5,5 0 1 1 916.93,199.45A5,5 0 1 1 926.93,199.45Z" style="fill:#7A9CFF" />
<path d="M933.31,195.88A5,5 0 1 1 923.31,195.88A5,5 0 1 1 933.31,195.88Z" style="fill:#7A9CFF" />
<path d="M939.68,190.5A5,5 0 1 1 929.68,190.5A5,5 0 1 1 939.68,190.5Z" style="fill:#7A9CFF" />
<path d="M946.06,187.06A5,5 0 1 1 936.06,187.06A5,5 0 1 1 946.06,187.06Z" style="fill:#7A9CFF" />
<path d="M952.44,182.41A5,5 0 1 1 942.44,182.41A5,5 0 1 1 952.44,182.41Z" style="fill:#7A9CFF" />
<path d="M958.82,179.34A5,5 0 1 1 948.82,179.34A5,5 0 1 1 958.82,179.34Z" style="fill:#7A9CFF" />
<path d="M965.2,175.38A5,5 0 1 1 955.2,175.38A5,5 0 1 1 965.2,175.38Z" style="fill:#7A9CFF" />
<path d="M971.57,171.41A5,5 0 1 1 961.57,171.41A5,5 0 1 1 971.57,171.41Z" style="fill:#7A9CFF" />
<path d="M977.95,168.78A5,5 0 1 1 967.95,168.78A5,5 0 1 1 977.95,168.78Z" style="fill:#7A9CFF" />
<path d="M984.33,164.96A5,5 0 1 1 974.33,164.96A5,5 0 1 1 984.33,164.96Z" style="fill:#7A9CFF" />
<path d="M990.71,161.96A5,5 0 1 1 980.71,161.96A5,5 0 1 1 990.71,161.96Z" style="fill:#7A9CFF" />
<path d="M997.09,159.95A5,5 0 1 1 987.09,159.95A5,5 0 1 1 997.09,159.95Z" style="fill:#7A9CFF" />
<path d="M1003.5,158.29A5,5 0 1 1 993.46,158.29A5,5 0 1 1 1003.5,158.29Z" style="fill:#7A9CFF" />
<path d="M1009.8,154.59A5,5 0 1 1 999.84,154.59A5,5 0 1 1 1009.8,154.59Z" style="fill:#7A9CFF" />
<path d="M1016.2,151.01A5,5 0 1 1 1006.2,151.01A5,5 0 1 1 1016.2,151.01Z" style="fill:#7A9CFF" />
<path d="M1022.6,149.08A5,5 0 1 1 1012.6,149.08A5,5 0 1 1 1022.6,149.08Z" style="fill:#7A9CFF" />
<path d="M1029,146.8A5,5 0 1 1 1019,146.8A5,5 0 1 1 1029,146.8Z" style="fill:#7A9CFF" />
<path d="M1035.4,145.23A5,5 0 1 1 1025.4,145.23A5,5 0 1 1 1035.4,145.23Z" style="fill:#7A9CFF" />
<path d="M1041.7,143.82A5,5 0 1 1 1031.7,143.82A5,5 0 1 1 1041.7,143.82Z" style="fill:#7A9CFF" />
<path d="M1048.1,141.47A5,5 0 1 1 1038.1,141.47A5,5 0 1 1 1048.1,141.47Z" style="fill:#7A9CFF" />
<path d="M1054.5,140.32A5,5 0 1 1 1044.5,140.32A5,5 0 1 1 1054.5,140.32Z" style="fill:#7A9CFF" />
<path d="M1060.9,138.06A5,5 0 1 1 1050.9,138.06A5,5 0 1 1 1060.9,138.06Z" style="fill:#7A9CFF" />
<path d="M1067.2,137.82A5,5 0 1 1 1057.2,137.82A5,5 0 1 1 1067.2,137.82Z" style="fill:#7A9CFF" />
<path d="M1073.6,136.82A5,5 0 1 1 1063.6,136.82A5,5 0 1 1 1073.6,136.82Z" style="fill:#7A9CFF" />
<path d="M1080,135.43A5,5 0 1 1 1070,135.43A5,5 0 1 1 1080,135.43Z" style="fill:#7A9CFF" />
<path d="M201.21,974.14L1075,974.14" style="fill:none;stroke:#000000" />
<path d="M1075,108.82L1075,974.14" style="fill:none;stroke:#000000" />
<path d="M201.21,175.62L207.59,177.4L213.97,179.24L220.34,181.15L226.72,183.12L233.1,185.16L239.48,187.27L245.86,189.47L252.23,191.74L258.61,194.1L264.99,196.55L271.37,199.09L277.75,201.73L284.12,204.47L290.5,207.33L296.88,210.3L303.26,213.39L309.64,216.61L316.01,219.96L322.39,223.45L328.77,227.09L335.15,230.9L341.53,234.86L347.9,239.01L354.28,243.34L360.66,247.86L367.04,252.59L373.42,257.55L379.79,262.73L386.17,268.16L392.55,273.86L398.93,279.82L405.31,286.08L411.68,292.65L418.06,299.54L424.44,306.79L430.82,314.39L437.2,322.39L443.57,330.79L449.95,339.62L456.33,348.92L462.71,358.69L469.09,368.96L475.46,379.77L481.84,391.13L488.22,403.07L494.6,415.61L500.98,428.78L507.35,442.59L513.73,457.07L520.11,472.21L526.49,488.03L532.87,504.52L539.24,521.67L545.62,539.45L552,557.82L558.38,576.73L564.76,596.09L571.14,615.8L577.51,635.73L583.89,655.73L590.27,675.59L596.65,695.1L603.03,714L609.4,732.01L615.78,748.83L622.16,764.13L628.54,777.59L634.92,788.88L641.29,797.7L647.67,803.8L654.05,806.96L660.43,807.04L666.81,803.96L673.18,797.75L679.56,788.5L685.94,776.38L692.32,761.62L698.7,744.54L705.07,725.45L711.45,704.72L717.83,682.71L724.21,659.76L730.59,636.22L736.96,612.4L743.34,588.55L749.72,564.92L756.1,541.69L762.48,519.03L768.85,497.06L775.23,475.88L781.61,455.54L787.99,436.09L794.37,417.55L800.74,399.93L807.12,383.23L813.5,367.41L819.88,352.47L826.26,338.36L832.63,325.07L839.01,312.54L845.39,300.74L851.77,289.64L858.15,279.19L864.52,269.36L870.9,260.12L877.28,251.42L883.66,243.23L890.04,235.52L896.41,228.26L902.79,221.43L909.17,214.99L915.55,208.92L921.93,203.19L928.31,197.79L934.68,192.69L941.06,187.87L947.44,183.32L953.82,179.02L960.2,174.95L966.57,171.09L972.95,167.44L979.33,163.99L985.71,160.71L992.09,157.6L998.46,154.65L1004.8,151.85L1011.2,149.18L1017.6,146.65L1024,144.25L1030.4,141.96L1036.7,139.77L1043.1,137.7L1049.5,135.72L1055.9,133.83L1062.2,132.03L1068.6,130.31L1075,128.67" style="fill:none;stroke:#7A9CFF;stroke-width:2" />
<path d="M1013,927.49A8,8 0 1 1 997,927.49A8,8 0 1 1 1013,927.49Z" style="fill:#7A9CFF" />
<text x="877.3" y="-920.9" transform="scale(1, -1)"
	style="font-family:Helvetica;font-weight:normal;font-style:normal;font-size:28px">40 GHz</text>
</g>
</svg>
