<?xml version="1.0"?>
<!-- Generated by SVGo and Plotinum VG -->
<svg width="1080pt" height="1080pt" viewBox="0 0 1080 1080"
	xmlns="http://www.w3.org/2000/svg"
	xmlns:xlink="http://www.w3.org/1999/xlink">
<g transform="scale(1, -1) translate(0, -1080)">
<path d="M0,0L1080,0L1080,1080L0,1080Z" style="fill:#-8000000000000000-8000000000000000-8000000000000000;fill-opacity:0" />
<text x="244.36" y="-1015.2" transform="scale(1, -1)"
	style="font-family:Helvetica;font-weight:normal;font-style:normal;font-size:80px">1 cm CS2 CABS</text>
<text x="406.08" y="-17.172" transform="scale(1, -1)"
	style="font-family:Helvetica;font-weight:normal;font-style:normal;font-size:56px">Frequency (GHz)</text>
<text x="161.6" y="-119.73" transform="scale(1, -1)"
	style="font-family:Helvetica;font-weight:normal;font-style:normal;font-size:56px">2.3</text>
<text x="329.71" y="-119.73" transform="scale(1, -1)"
	style="font-family:Helvetica;font-weight:normal;font-style:normal;font-size:56px">2.4</text>
<text x="497.82" y="-119.73" transform="scale(1, -1)"
	style="font-family:Helvetica;font-weight:normal;font-style:normal;font-size:56px">2.5</text>
<text x="665.93" y="-119.73" transform="scale(1, -1)"
	style="font-family:Helvetica;font-weight:normal;font-style:normal;font-size:56px">2.6</text>
<text x="834.04" y="-119.73" transform="scale(1, -1)"
	style="font-family:Helvetica;font-weight:normal;font-style:normal;font-size:56px">2.7</text>
<text x="1002.2" y="-119.73" transform="scale(1, -1)"
	style="font-family:Helvetica;font-weight:normal;font-style:normal;font-size:56px">2.8</text>
<path d="M200.53,181.12L200.53,173.12" style="fill:none;stroke:#000000;stroke-width:1.5" />
<path d="M284.58,177.12L284.58,173.12" style="fill:none;stroke:#000000;stroke-width:1.5" />
<path d="M368.64,181.12L368.64,173.12" style="fill:none;stroke:#000000;stroke-width:1.5" />
<path d="M452.69,177.12L452.69,173.12" style="fill:none;stroke:#000000;stroke-width:1.5" />
<path d="M536.75,181.12L536.75,173.12" style="fill:none;stroke:#000000;stroke-width:1.5" />
<path d="M620.8,177.12L620.8,173.12" style="fill:none;stroke:#000000;stroke-width:1.5" />
<path d="M704.86,181.12L704.86,173.12" style="fill:none;stroke:#000000;stroke-width:1.5" />
<path d="M788.91,177.12L788.91,173.12" style="fill:none;stroke:#000000;stroke-width:1.5" />
<path d="M872.97,181.12L872.97,173.12" style="fill:none;stroke:#000000;stroke-width:1.5" />
<path d="M957.02,177.12L957.02,173.12" style="fill:none;stroke:#000000;stroke-width:1.5" />
<path d="M1041.1,181.12L1041.1,173.12" style="fill:none;stroke:#000000;stroke-width:1.5" />
<path d="M200.53,173.12L1041.1,173.12" style="fill:none;stroke:#000000;stroke-width:1.5" />
<g transform="rotate(90)">
<text x="270.29" y="45.391" transform="scale(1, -1)"
	style="font-family:Helvetica;font-weight:normal;font-style:normal;font-size:56px">Spectral Density (μV)</text>
</g>
<text x="145.57" y="-163.63" transform="scale(1, -1)"
	style="font-family:Helvetica;font-weight:normal;font-style:normal;font-size:56px">0</text>
<text x="114.43" y="-402.07" transform="scale(1, -1)"
	style="font-family:Helvetica;font-weight:normal;font-style:normal;font-size:56px">20</text>
<text x="114.43" y="-640.5" transform="scale(1, -1)"
	style="font-family:Helvetica;font-weight:normal;font-style:normal;font-size:56px">40</text>
<text x="114.43" y="-878.93" transform="scale(1, -1)"
	style="font-family:Helvetica;font-weight:normal;font-style:normal;font-size:56px">60</text>
<path d="M208.28,177.74L200.28,177.74" style="fill:none;stroke:#000000;stroke-width:1.5" />
<path d="M204.28,296.96L200.28,296.96" style="fill:none;stroke:#000000;stroke-width:1.5" />
<path d="M208.28,416.18L200.28,416.18" style="fill:none;stroke:#000000;stroke-width:1.5" />
<path d="M204.28,535.39L200.28,535.39" style="fill:none;stroke:#000000;stroke-width:1.5" />
<path d="M208.28,654.61L200.28,654.61" style="fill:none;stroke:#000000;stroke-width:1.5" />
<path d="M204.28,773.83L200.28,773.83" style="fill:none;stroke:#000000;stroke-width:1.5" />
<path d="M208.28,893.04L200.28,893.04" style="fill:none;stroke:#000000;stroke-width:1.5" />
<path d="M200.28,177.74L200.28,893.04" style="fill:none;stroke:#000000;stroke-width:1.5" />
<path d="M214.01,256.83A5,5 0 1 1 204.01,256.83A5,5 0 1 1 214.01,256.83Z" style="fill:#1FD3AC" />
<path d="M222.49,258.38A5,5 0 1 1 212.49,258.38A5,5 0 1 1 222.49,258.38Z" style="fill:#1FD3AC" />
<path d="M230.97,267.03A5,5 0 1 1 220.97,267.03A5,5 0 1 1 230.97,267.03Z" style="fill:#1FD3AC" />
<path d="M239.46,264.08A5,5 0 1 1 229.46,264.08A5,5 0 1 1 239.46,264.08Z" style="fill:#1FD3AC" />
<path d="M247.94,259.52A5,5 0 1 1 237.94,259.52A5,5 0 1 1 247.94,259.52Z" style="fill:#1FD3AC" />
<path d="M256.42,261.29A5,5 0 1 1 246.42,261.29A5,5 0 1 1 256.42,261.29Z" style="fill:#1FD3AC" />
<path d="M264.9,265.09A5,5 0 1 1 254.9,265.09A5,5 0 1 1 264.9,265.09Z" style="fill:#1FD3AC" />
<path d="M273.38,262.45A5,5 0 1 1 263.38,262.45A5,5 0 1 1 273.38,262.45Z" style="fill:#1FD3AC" />
<path d="M281.87,266.9A5,5 0 1 1 271.87,266.9A5,5 0 1 1 281.87,266.9Z" style="fill:#1FD3AC" />
<path d="M290.35,276.13A5,5 0 1 1 280.35,276.13A5,5 0 1 1 290.35,276.13Z" style="fill:#1FD3AC" />
<path d="M298.83,281.36A5,5 0 1 1 288.83,281.36A5,5 0 1 1 298.83,281.36Z" style="fill:#1FD3AC" />
<path d="M307.31,276.78A5,5 0 1 1 297.31,276.78A5,5 0 1 1 307.31,276.78Z" style="fill:#1FD3AC" />
<path d="M315.8,276.58A5,5 0 1 1 305.8,276.58A5,5 0 1 1 315.8,276.58Z" style="fill:#1FD3AC" />
<path d="M324.28,280.46A5,5 0 1 1 314.28,280.46A5,5 0 1 1 324.28,280.46Z" style="fill:#1FD3AC" />
<path d="M332.76,287.2A5,5 0 1 1 322.76,287.2A5,5 0 1 1 332.76,287.2Z" style="fill:#1FD3AC" />
<path d="M341.24,284.03A5,5 0 1 1 331.24,284.03A5,5 0 1 1 341.24,284.03Z" style="fill:#1FD3AC" />
<path d="M349.72,285.37A5,5 0 1 1 339.72,285.37A5,5 0 1 1 349.72,285.37Z" style="fill:#1FD3AC" />
<path d="M358.21,287.41A5,5 0 1 1 348.21,287.41A5,5 0 1 1 358.21,287.41Z" style="fill:#1FD3AC" />
<path d="M366.69,292.84A5,5 0 1 1 356.69,292.84A5,5 0 1 1 366.69,292.84Z" style="fill:#1FD3AC" />
<path d="M375.17,291.96A5,5 0 1 1 365.17,291.96A5,5 0 1 1 375.17,291.96Z" style="fill:#1FD3AC" />
<path d="M383.65,306.04A5,5 0 1 1 373.65,306.04A5,5 0 1 1 383.65,306.04Z" style="fill:#1FD3AC" />
<path d="M392.13,306.7A5,5 0 1 1 382.13,306.7A5,5 0 1 1 392.13,306.7Z" style="fill:#1FD3AC" />
<path d="M400.62,313.54A5,5 0 1 1 390.62,313.54A5,5 0 1 1 400.62,313.54Z" style="fill:#1FD3AC" />
<path d="M409.1,318.86A5,5 0 1 1 399.1,318.86A5,5 0 1 1 409.1,318.86Z" style="fill:#1FD3AC" />
<path d="M417.58,319.45A5,5 0 1 1 407.58,319.45A5,5 0 1 1 417.58,319.45Z" style="fill:#1FD3AC" />
<path d="M426.06,322.52A5,5 0 1 1 416.06,322.52A5,5 0 1 1 426.06,322.52Z" style="fill:#1FD3AC" />
<path d="M434.55,329.71A5,5 0 1 1 424.55,329.71A5,5 0 1 1 434.55,329.71Z" style="fill:#1FD3AC" />
<path d="M443.03,338.1A5,5 0 1 1 433.03,338.1A5,5 0 1 1 443.03,338.1Z" style="fill:#1FD3AC" />
<path d="M451.51,343.39A5,5 0 1 1 441.51,343.39A5,5 0 1 1 451.51,343.39Z" style="fill:#1FD3AC" />
<path d="M459.99,341.32A5,5 0 1 1 449.99,341.32A5,5 0 1 1 459.99,341.32Z" style="fill:#1FD3AC" />
<path d="M468.47,354.97A5,5 0 1 1 458.47,354.97A5,5 0 1 1 468.47,354.97Z" style="fill:#1FD3AC" />
<path d="M476.96,363.94A5,5 0 1 1 466.96,363.94A5,5 0 1 1 476.96,363.94Z" style="fill:#1FD3AC" />
<path d="M485.44,379.49A5,5 0 1 1 475.44,379.49A5,5 0 1 1 485.44,379.49Z" style="fill:#1FD3AC" />
<path d="M493.92,388.48A5,5 0 1 1 483.92,388.48A5,5 0 1 1 493.92,388.48Z" style="fill:#1FD3AC" />
<path d="M502.4,395.31A5,5 0 1 1 492.4,395.31A5,5 0 1 1 502.4,395.31Z" style="fill:#1FD3AC" />
<path d="M510.88,391.89A5,5 0 1 1 500.88,391.89A5,5 0 1 1 510.88,391.89Z" style="fill:#1FD3AC" />
<path d="M519.37,402.35A5,5 0 1 1 509.37,402.35A5,5 0 1 1 519.37,402.35Z" style="fill:#1FD3AC" />
<path d="M527.85,420.1A5,5 0 1 1 517.85,420.1A5,5 0 1 1 527.85,420.1Z" style="fill:#1FD3AC" />
<path d="M536.33,436.65A5,5 0 1 1 526.33,436.65A5,5 0 1 1 536.33,436.65Z" style="fill:#1FD3AC" />
<path d="M544.81,453.33A5,5 0 1 1 534.81,453.33A5,5 0 1 1 544.81,453.33Z" style="fill:#1FD3AC" />
<path d="M553.3,481.65A5,5 0 1 1 543.3,481.65A5,5 0 1 1 553.3,481.65Z" style="fill:#1FD3AC" />
<path d="M561.78,516.77A5,5 0 1 1 551.78,516.77A5,5 0 1 1 561.78,516.77Z" style="fill:#1FD3AC" />
<path d="M570.26,548.9A5,5 0 1 1 560.26,548.9A5,5 0 1 1 570.26,548.9Z" style="fill:#1FD3AC" />
<path d="M578.74,600.44A5,5 0 1 1 568.74,600.44A5,5 0 1 1 578.74,600.44Z" style="fill:#1FD3AC" />
<path d="M587.22,657.51A5,5 0 1 1 577.22,657.51A5,5 0 1 1 587.22,657.51Z" style="fill:#1FD3AC" />
<path d="M595.71,730.44A5,5 0 1 1 585.71,730.44A5,5 0 1 1 595.71,730.44Z" style="fill:#1FD3AC" />
<path d="M604.19,753.89A5,5 0 1 1 594.19,753.89A5,5 0 1 1 604.19,753.89Z" style="fill:#1FD3AC" />
<path d="M612.67,714.47A5,5 0 1 1 602.67,714.47A5,5 0 1 1 612.67,714.47Z" style="fill:#1FD3AC" />
<path d="M621.15,617.07A5,5 0 1 1 611.15,617.07A5,5 0 1 1 621.15,617.07Z" style="fill:#1FD3AC" />
<path d="M629.63,511.75A5,5 0 1 1 619.63,511.75A5,5 0 1 1 629.63,511.75Z" style="fill:#1FD3AC" />
<path d="M638.12,415.01A5,5 0 1 1 628.12,415.01A5,5 0 1 1 638.12,415.01Z" style="fill:#1FD3AC" />
<path d="M646.6,353.1A5,5 0 1 1 636.6,353.1A5,5 0 1 1 646.6,353.1Z" style="fill:#1FD3AC" />
<path d="M655.08,306.05A5,5 0 1 1 645.08,306.05A5,5 0 1 1 655.08,306.05Z" style="fill:#1FD3AC" />
<path d="M663.56,276.66A5,5 0 1 1 653.56,276.66A5,5 0 1 1 663.56,276.66Z" style="fill:#1FD3AC" />
<path d="M672.05,262.26A5,5 0 1 1 662.05,262.26A5,5 0 1 1 672.05,262.26Z" style="fill:#1FD3AC" />
<path d="M680.53,252.09A5,5 0 1 1 670.53,252.09A5,5 0 1 1 680.53,252.09Z" style="fill:#1FD3AC" />
<path d="M689.01,243.92A5,5 0 1 1 679.01,243.92A5,5 0 1 1 689.01,243.92Z" style="fill:#1FD3AC" />
<path d="M697.49,237.27A5,5 0 1 1 687.49,237.27A5,5 0 1 1 697.49,237.27Z" style="fill:#1FD3AC" />
<path d="M705.97,220.27A5,5 0 1 1 695.97,220.27A5,5 0 1 1 705.97,220.27Z" style="fill:#1FD3AC" />
<path d="M714.46,214A5,5 0 1 1 704.46,214A5,5 0 1 1 714.46,214Z" style="fill:#1FD3AC" />
<path d="M722.94,220.36A5,5 0 1 1 712.94,220.36A5,5 0 1 1 722.94,220.36Z" style="fill:#1FD3AC" />
<path d="M731.42,221.09A5,5 0 1 1 721.42,221.09A5,5 0 1 1 731.42,221.09Z" style="fill:#1FD3AC" />
<path d="M739.9,218.5A5,5 0 1 1 729.9,218.5A5,5 0 1 1 739.9,218.5Z" style="fill:#1FD3AC" />
<path d="M748.38,217.81A5,5 0 1 1 738.38,217.81A5,5 0 1 1 748.38,217.81Z" style="fill:#1FD3AC" />
<path d="M756.87,220.12A5,5 0 1 1 746.87,220.12A5,5 0 1 1 756.87,220.12Z" style="fill:#1FD3AC" />
<path d="M765.35,214.35A5,5 0 1 1 755.35,214.35A5,5 0 1 1 765.35,214.35Z" style="fill:#1FD3AC" />
<path d="M773.83,214.8A5,5 0 1 1 763.83,214.8A5,5 0 1 1 773.83,214.8Z" style="fill:#1FD3AC" />
<path d="M782.31,213.83A5,5 0 1 1 772.31,213.83A5,5 0 1 1 782.31,213.83Z" style="fill:#1FD3AC" />
<path d="M790.8,214.76A5,5 0 1 1 780.8,214.76A5,5 0 1 1 790.8,214.76Z" style="fill:#1FD3AC" />
<path d="M799.28,222.76A5,5 0 1 1 789.28,222.76A5,5 0 1 1 799.28,222.76Z" style="fill:#1FD3AC" />
<path d="M807.76,217.7A5,5 0 1 1 797.76,217.7A5,5 0 1 1 807.76,217.7Z" style="fill:#1FD3AC" />
<path d="M816.24,219.24A5,5 0 1 1 806.24,219.24A5,5 0 1 1 816.24,219.24Z" style="fill:#1FD3AC" />
<path d="M824.72,217.74A5,5 0 1 1 814.72,217.74A5,5 0 1 1 824.72,217.74Z" style="fill:#1FD3AC" />
<path d="M833.21,218.74A5,5 0 1 1 823.21,218.74A5,5 0 1 1 833.21,218.74Z" style="fill:#1FD3AC" />
<path d="M841.69,220.21A5,5 0 1 1 831.69,220.21A5,5 0 1 1 841.69,220.21Z" style="fill:#1FD3AC" />
<path d="M850.17,221.34A5,5 0 1 1 840.17,221.34A5,5 0 1 1 850.17,221.34Z" style="fill:#1FD3AC" />
<path d="M858.65,223.77A5,5 0 1 1 848.65,223.77A5,5 0 1 1 858.65,223.77Z" style="fill:#1FD3AC" />
<path d="M867.13,221.27A5,5 0 1 1 857.13,221.27A5,5 0 1 1 867.13,221.27Z" style="fill:#1FD3AC" />
<path d="M875.62,218.75A5,5 0 1 1 865.62,218.75A5,5 0 1 1 875.62,218.75Z" style="fill:#1FD3AC" />
<path d="M884.1,222.85A5,5 0 1 1 874.1,222.85A5,5 0 1 1 884.1,222.85Z" style="fill:#1FD3AC" />
<path d="M892.58,221.3A5,5 0 1 1 882.58,221.3A5,5 0 1 1 892.58,221.3Z" style="fill:#1FD3AC" />
<path d="M901.06,220.66A5,5 0 1 1 891.06,220.66A5,5 0 1 1 901.06,220.66Z" style="fill:#1FD3AC" />
<path d="M909.55,219.15A5,5 0 1 1 899.55,219.15A5,5 0 1 1 909.55,219.15Z" style="fill:#1FD3AC" />
<path d="M918.03,216.94A5,5 0 1 1 908.03,216.94A5,5 0 1 1 918.03,216.94Z" style="fill:#1FD3AC" />
<path d="M926.51,218.74A5,5 0 1 1 916.51,218.74A5,5 0 1 1 926.51,218.74Z" style="fill:#1FD3AC" />
<path d="M934.99,222.62A5,5 0 1 1 924.99,222.62A5,5 0 1 1 934.99,222.62Z" style="fill:#1FD3AC" />
<path d="M943.47,222.19A5,5 0 1 1 933.47,222.19A5,5 0 1 1 943.47,222.19Z" style="fill:#1FD3AC" />
<path d="M951.96,224.57A5,5 0 1 1 941.96,224.57A5,5 0 1 1 951.96,224.57Z" style="fill:#1FD3AC" />
<path d="M960.44,228.59A5,5 0 1 1 950.44,228.59A5,5 0 1 1 960.44,228.59Z" style="fill:#1FD3AC" />
<path d="M968.92,232.52A5,5 0 1 1 958.92,232.52A5,5 0 1 1 968.92,232.52Z" style="fill:#1FD3AC" />
<path d="M977.4,228.49A5,5 0 1 1 967.4,228.49A5,5 0 1 1 977.4,228.49Z" style="fill:#1FD3AC" />
<path d="M985.88,224.87A5,5 0 1 1 975.88,224.87A5,5 0 1 1 985.88,224.87Z" style="fill:#1FD3AC" />
<path d="M994.37,226.67A5,5 0 1 1 984.37,226.67A5,5 0 1 1 994.37,226.67Z" style="fill:#1FD3AC" />
<path d="M1002.8,231.22A5,5 0 1 1 992.85,231.22A5,5 0 1 1 1002.8,231.22Z" style="fill:#1FD3AC" />
<path d="M1011.3,229.45A5,5 0 1 1 1001.3,229.45A5,5 0 1 1 1011.3,229.45Z" style="fill:#1FD3AC" />
<path d="M1019.8,229.05A5,5 0 1 1 1009.8,229.05A5,5 0 1 1 1019.8,229.05Z" style="fill:#1FD3AC" />
<path d="M1028.3,235.05A5,5 0 1 1 1018.3,235.05A5,5 0 1 1 1028.3,235.05Z" style="fill:#1FD3AC" />
<path d="M1036.8,236.54A5,5 0 1 1 1026.8,236.54A5,5 0 1 1 1036.8,236.54Z" style="fill:#1FD3AC" />
<path d="M200.53,893.04L1041.1,893.04" style="fill:none;stroke:#000000" />
<path d="M1041.1,177.74L1041.1,893.04" style="fill:none;stroke:#000000" />
<path d="M1013,827.33A8,8 0 1 1 997,827.33A8,8 0 1 1 1013,827.33Z" style="fill:#1FD3AC" />
<text x="647.04" y="-814.14" transform="scale(1, -1)"
	style="font-family:Helvetica;font-weight:normal;font-style:normal;font-size:56px">12 GHz P-Pr</text>
</g>
</svg>
