<?xml version="1.0"?>
<!-- Generated by SVGo and Plotinum VG -->
<svg width="1080pt" height="1080pt" viewBox="0 0 1080 1080"
	xmlns="http://www.w3.org/2000/svg"
	xmlns:xlink="http://www.w3.org/1999/xlink">
<g transform="scale(1, -1) translate(0, -1080)">
<path d="M0,0L1080,0L1080,1080L0,1080Z" style="fill:#-8000000000000000-8000000000000000-8000000000000000;fill-opacity:0" />
<text x="412.17" y="-1039.5" transform="scale(1, -1)"
	style="font-family:Helvetica;font-weight:normal;font-style:normal;font-size:50px">Anti-Stokes</text>
<text x="442.52" y="-11.039" transform="scale(1, -1)"
	style="font-family:Helvetica;font-weight:normal;font-style:normal;font-size:36px">Frequency (GHz)</text>
<text x="96.11" y="-71.258" transform="scale(1, -1)"
	style="font-family:Helvetica;font-weight:normal;font-style:normal;font-size:36px">2</text>
<text x="270.87" y="-71.258" transform="scale(1, -1)"
	style="font-family:Helvetica;font-weight:normal;font-style:normal;font-size:36px">2.1</text>
<text x="460.64" y="-71.258" transform="scale(1, -1)"
	style="font-family:Helvetica;font-weight:normal;font-style:normal;font-size:36px">2.2</text>
<text x="650.41" y="-71.258" transform="scale(1, -1)"
	style="font-family:Helvetica;font-weight:normal;font-style:normal;font-size:36px">2.3</text>
<text x="840.18" y="-71.258" transform="scale(1, -1)"
	style="font-family:Helvetica;font-weight:normal;font-style:normal;font-size:36px">2.4</text>
<text x="1030" y="-71.258" transform="scale(1, -1)"
	style="font-family:Helvetica;font-weight:normal;font-style:normal;font-size:36px">2.5</text>
<path d="M106.12,116.44L106.12,108.44" style="fill:none;stroke:#000000;stroke-width:1.5" />
<path d="M201.01,112.44L201.01,108.44" style="fill:none;stroke:#000000;stroke-width:1.5" />
<path d="M295.89,116.44L295.89,108.44" style="fill:none;stroke:#000000;stroke-width:1.5" />
<path d="M390.78,112.44L390.78,108.44" style="fill:none;stroke:#000000;stroke-width:1.5" />
<path d="M485.66,116.44L485.66,108.44" style="fill:none;stroke:#000000;stroke-width:1.5" />
<path d="M580.55,112.44L580.55,108.44" style="fill:none;stroke:#000000;stroke-width:1.5" />
<path d="M675.43,116.44L675.43,108.44" style="fill:none;stroke:#000000;stroke-width:1.5" />
<path d="M770.32,112.44L770.32,108.44" style="fill:none;stroke:#000000;stroke-width:1.5" />
<path d="M865.21,116.44L865.21,108.44" style="fill:none;stroke:#000000;stroke-width:1.5" />
<path d="M960.09,112.44L960.09,108.44" style="fill:none;stroke:#000000;stroke-width:1.5" />
<path d="M1055,116.44L1055,108.44" style="fill:none;stroke:#000000;stroke-width:1.5" />
<path d="M106.12,108.44L1055,108.44" style="fill:none;stroke:#000000;stroke-width:1.5" />
<g transform="rotate(90)">
<text x="363.52" y="29.18" transform="scale(1, -1)"
	style="font-family:Helvetica;font-weight:normal;font-style:normal;font-size:36px">Spectral Density (uV)</text>
</g>
<text x="67.848" y="-109.32" transform="scale(1, -1)"
	style="font-family:Helvetica;font-weight:normal;font-style:normal;font-size:36px">0</text>
<text x="67.848" y="-390.8" transform="scale(1, -1)"
	style="font-family:Helvetica;font-weight:normal;font-style:normal;font-size:36px">1</text>
<text x="67.848" y="-672.29" transform="scale(1, -1)"
	style="font-family:Helvetica;font-weight:normal;font-style:normal;font-size:36px">2</text>
<text x="67.848" y="-953.77" transform="scale(1, -1)"
	style="font-family:Helvetica;font-weight:normal;font-style:normal;font-size:36px">3</text>
<path d="M113.87,118.39L105.87,118.39" style="fill:none;stroke:#000000;stroke-width:1.5" />
<path d="M109.87,259.13L105.87,259.13" style="fill:none;stroke:#000000;stroke-width:1.5" />
<path d="M113.87,399.87L105.87,399.87" style="fill:none;stroke:#000000;stroke-width:1.5" />
<path d="M109.87,540.61L105.87,540.61" style="fill:none;stroke:#000000;stroke-width:1.5" />
<path d="M113.87,681.36L105.87,681.36" style="fill:none;stroke:#000000;stroke-width:1.5" />
<path d="M109.87,822.1L105.87,822.1" style="fill:none;stroke:#000000;stroke-width:1.5" />
<path d="M113.87,962.84L105.87,962.84" style="fill:none;stroke:#000000;stroke-width:1.5" />
<path d="M105.87,104.32L105.87,962.84" style="fill:none;stroke:#000000;stroke-width:1.5" />
<path d="M113.87,113.99A3,3 0 1 1 107.87,113.99A3,3 0 1 1 113.87,113.99Z" style="fill:#1FD3AC" />
<path d="M123.35,114.73A3,3 0 1 1 117.35,114.73A3,3 0 1 1 123.35,114.73Z" style="fill:#1FD3AC" />
<path d="M132.84,110.99A3,3 0 1 1 126.84,110.99A3,3 0 1 1 132.84,110.99Z" style="fill:#1FD3AC" />
<path d="M142.33,113.76A3,3 0 1 1 136.33,113.76A3,3 0 1 1 142.33,113.76Z" style="fill:#1FD3AC" />
<path d="M151.82,114.78A3,3 0 1 1 145.82,114.78A3,3 0 1 1 151.82,114.78Z" style="fill:#1FD3AC" />
<path d="M161.31,112.96A3,3 0 1 1 155.31,112.96A3,3 0 1 1 161.31,112.96Z" style="fill:#1FD3AC" />
<path d="M170.8,115.08A3,3 0 1 1 164.8,115.08A3,3 0 1 1 170.8,115.08Z" style="fill:#1FD3AC" />
<path d="M180.29,118.16A3,3 0 1 1 174.29,118.16A3,3 0 1 1 180.29,118.16Z" style="fill:#1FD3AC" />
<path d="M189.77,117.46A3,3 0 1 1 183.77,117.46A3,3 0 1 1 189.77,117.46Z" style="fill:#1FD3AC" />
<path d="M199.26,119.73A3,3 0 1 1 193.26,119.73A3,3 0 1 1 199.26,119.73Z" style="fill:#1FD3AC" />
<path d="M208.75,119.19A3,3 0 1 1 202.75,119.19A3,3 0 1 1 208.75,119.19Z" style="fill:#1FD3AC" />
<path d="M218.24,121.39A3,3 0 1 1 212.24,121.39A3,3 0 1 1 218.24,121.39Z" style="fill:#1FD3AC" />
<path d="M227.73,122.45A3,3 0 1 1 221.73,122.45A3,3 0 1 1 227.73,122.45Z" style="fill:#1FD3AC" />
<path d="M237.22,123.54A3,3 0 1 1 231.22,123.54A3,3 0 1 1 237.22,123.54Z" style="fill:#1FD3AC" />
<path d="M246.71,125.75A3,3 0 1 1 240.71,125.75A3,3 0 1 1 246.71,125.75Z" style="fill:#1FD3AC" />
<path d="M256.19,126.37A3,3 0 1 1 250.19,126.37A3,3 0 1 1 256.19,126.37Z" style="fill:#1FD3AC" />
<path d="M265.68,129.98A3,3 0 1 1 259.68,129.98A3,3 0 1 1 265.68,129.98Z" style="fill:#1FD3AC" />
<path d="M275.17,134.31A3,3 0 1 1 269.17,134.31A3,3 0 1 1 275.17,134.31Z" style="fill:#1FD3AC" />
<path d="M284.66,133.74A3,3 0 1 1 278.66,133.74A3,3 0 1 1 284.66,133.74Z" style="fill:#1FD3AC" />
<path d="M294.15,134.46A3,3 0 1 1 288.15,134.46A3,3 0 1 1 294.15,134.46Z" style="fill:#1FD3AC" />
<path d="M303.64,141.49A3,3 0 1 1 297.64,141.49A3,3 0 1 1 303.64,141.49Z" style="fill:#1FD3AC" />
<path d="M313.13,143A3,3 0 1 1 307.13,143A3,3 0 1 1 313.13,143Z" style="fill:#1FD3AC" />
<path d="M322.61,143.8A3,3 0 1 1 316.61,143.8A3,3 0 1 1 322.61,143.8Z" style="fill:#1FD3AC" />
<path d="M332.1,149.77A3,3 0 1 1 326.1,149.77A3,3 0 1 1 332.1,149.77Z" style="fill:#1FD3AC" />
<path d="M341.59,150.2A3,3 0 1 1 335.59,150.2A3,3 0 1 1 341.59,150.2Z" style="fill:#1FD3AC" />
<path d="M351.08,155.96A3,3 0 1 1 345.08,155.96A3,3 0 1 1 351.08,155.96Z" style="fill:#1FD3AC" />
<path d="M360.57,158.84A3,3 0 1 1 354.57,158.84A3,3 0 1 1 360.57,158.84Z" style="fill:#1FD3AC" />
<path d="M370.06,163.19A3,3 0 1 1 364.06,163.19A3,3 0 1 1 370.06,163.19Z" style="fill:#1FD3AC" />
<path d="M379.55,168.89A3,3 0 1 1 373.55,168.89A3,3 0 1 1 379.55,168.89Z" style="fill:#1FD3AC" />
<path d="M389.03,171.45A3,3 0 1 1 383.03,171.45A3,3 0 1 1 389.03,171.45Z" style="fill:#1FD3AC" />
<path d="M398.52,175.05A3,3 0 1 1 392.52,175.05A3,3 0 1 1 398.52,175.05Z" style="fill:#1FD3AC" />
<path d="M408.01,183.52A3,3 0 1 1 402.01,183.52A3,3 0 1 1 408.01,183.52Z" style="fill:#1FD3AC" />
<path d="M417.5,189.97A3,3 0 1 1 411.5,189.97A3,3 0 1 1 417.5,189.97Z" style="fill:#1FD3AC" />
<path d="M426.99,195.18A3,3 0 1 1 420.99,195.18A3,3 0 1 1 426.99,195.18Z" style="fill:#1FD3AC" />
<path d="M436.48,201.2A3,3 0 1 1 430.48,201.2A3,3 0 1 1 436.48,201.2Z" style="fill:#1FD3AC" />
<path d="M445.97,211.32A3,3 0 1 1 439.97,211.32A3,3 0 1 1 445.97,211.32Z" style="fill:#1FD3AC" />
<path d="M455.45,221.51A3,3 0 1 1 449.45,221.51A3,3 0 1 1 455.45,221.51Z" style="fill:#1FD3AC" />
<path d="M464.94,228.84A3,3 0 1 1 458.94,228.84A3,3 0 1 1 464.94,228.84Z" style="fill:#1FD3AC" />
<path d="M474.43,243.35A3,3 0 1 1 468.43,243.35A3,3 0 1 1 474.43,243.35Z" style="fill:#1FD3AC" />
<path d="M483.92,256.73A3,3 0 1 1 477.92,256.73A3,3 0 1 1 483.92,256.73Z" style="fill:#1FD3AC" />
<path d="M493.41,274.09A3,3 0 1 1 487.41,274.09A3,3 0 1 1 493.41,274.09Z" style="fill:#1FD3AC" />
<path d="M502.9,294.02A3,3 0 1 1 496.9,294.02A3,3 0 1 1 502.9,294.02Z" style="fill:#1FD3AC" />
<path d="M512.39,313.27A3,3 0 1 1 506.39,313.27A3,3 0 1 1 512.39,313.27Z" style="fill:#1FD3AC" />
<path d="M521.87,335.83A3,3 0 1 1 515.87,335.83A3,3 0 1 1 521.87,335.83Z" style="fill:#1FD3AC" />
<path d="M531.36,361.46A3,3 0 1 1 525.36,361.46A3,3 0 1 1 531.36,361.46Z" style="fill:#1FD3AC" />
<path d="M540.85,392.62A3,3 0 1 1 534.85,392.62A3,3 0 1 1 540.85,392.62Z" style="fill:#1FD3AC" />
<path d="M550.34,426.81A3,3 0 1 1 544.34,426.81A3,3 0 1 1 550.34,426.81Z" style="fill:#1FD3AC" />
<path d="M559.83,458A3,3 0 1 1 553.83,458A3,3 0 1 1 559.83,458Z" style="fill:#1FD3AC" />
<path d="M569.32,496.26A3,3 0 1 1 563.32,496.26A3,3 0 1 1 569.32,496.26Z" style="fill:#1FD3AC" />
<path d="M578.81,530.25A3,3 0 1 1 572.81,530.25A3,3 0 1 1 578.81,530.25Z" style="fill:#1FD3AC" />
<path d="M588.29,565.87A3,3 0 1 1 582.29,565.87A3,3 0 1 1 588.29,565.87Z" style="fill:#1FD3AC" />
<path d="M597.78,592.42A3,3 0 1 1 591.78,592.42A3,3 0 1 1 597.78,592.42Z" style="fill:#1FD3AC" />
<path d="M607.27,611.31A3,3 0 1 1 601.27,611.31A3,3 0 1 1 607.27,611.31Z" style="fill:#1FD3AC" />
<path d="M616.76,618.78A3,3 0 1 1 610.76,618.78A3,3 0 1 1 616.76,618.78Z" style="fill:#1FD3AC" />
<path d="M626.25,622.21A3,3 0 1 1 620.25,622.21A3,3 0 1 1 626.25,622.21Z" style="fill:#1FD3AC" />
<path d="M635.74,601.06A3,3 0 1 1 629.74,601.06A3,3 0 1 1 635.74,601.06Z" style="fill:#1FD3AC" />
<path d="M645.22,583.63A3,3 0 1 1 639.22,583.63A3,3 0 1 1 645.22,583.63Z" style="fill:#1FD3AC" />
<path d="M654.71,556.76A3,3 0 1 1 648.71,556.76A3,3 0 1 1 654.71,556.76Z" style="fill:#1FD3AC" />
<path d="M664.2,523.08A3,3 0 1 1 658.2,523.08A3,3 0 1 1 664.2,523.08Z" style="fill:#1FD3AC" />
<path d="M673.69,491.11A3,3 0 1 1 667.69,491.11A3,3 0 1 1 673.69,491.11Z" style="fill:#1FD3AC" />
<path d="M683.18,454.89A3,3 0 1 1 677.18,454.89A3,3 0 1 1 683.18,454.89Z" style="fill:#1FD3AC" />
<path d="M692.67,422.73A3,3 0 1 1 686.67,422.73A3,3 0 1 1 692.67,422.73Z" style="fill:#1FD3AC" />
<path d="M702.16,393.52A3,3 0 1 1 696.16,393.52A3,3 0 1 1 702.16,393.52Z" style="fill:#1FD3AC" />
<path d="M711.64,364.16A3,3 0 1 1 705.64,364.16A3,3 0 1 1 711.64,364.16Z" style="fill:#1FD3AC" />
<path d="M721.13,336.53A3,3 0 1 1 715.13,336.53A3,3 0 1 1 721.13,336.53Z" style="fill:#1FD3AC" />
<path d="M730.62,314.4A3,3 0 1 1 724.62,314.4A3,3 0 1 1 730.62,314.4Z" style="fill:#1FD3AC" />
<path d="M740.11,293.25A3,3 0 1 1 734.11,293.25A3,3 0 1 1 740.11,293.25Z" style="fill:#1FD3AC" />
<path d="M749.6,275.35A3,3 0 1 1 743.6,275.35A3,3 0 1 1 749.6,275.35Z" style="fill:#1FD3AC" />
<path d="M759.09,260.72A3,3 0 1 1 753.09,260.72A3,3 0 1 1 759.09,260.72Z" style="fill:#1FD3AC" />
<path d="M768.58,246.72A3,3 0 1 1 762.58,246.72A3,3 0 1 1 768.58,246.72Z" style="fill:#1FD3AC" />
<path d="M778.06,232.92A3,3 0 1 1 772.06,232.92A3,3 0 1 1 778.06,232.92Z" style="fill:#1FD3AC" />
<path d="M787.55,220.54A3,3 0 1 1 781.55,220.54A3,3 0 1 1 787.55,220.54Z" style="fill:#1FD3AC" />
<path d="M797.04,212.54A3,3 0 1 1 791.04,212.54A3,3 0 1 1 797.04,212.54Z" style="fill:#1FD3AC" />
<path d="M806.53,205.03A3,3 0 1 1 800.53,205.03A3,3 0 1 1 806.53,205.03Z" style="fill:#1FD3AC" />
<path d="M816.02,197.86A3,3 0 1 1 810.02,197.86A3,3 0 1 1 816.02,197.86Z" style="fill:#1FD3AC" />
<path d="M825.51,188.85A3,3 0 1 1 819.51,188.85A3,3 0 1 1 825.51,188.85Z" style="fill:#1FD3AC" />
<path d="M835,180.82A3,3 0 1 1 829,180.82A3,3 0 1 1 835,180.82Z" style="fill:#1FD3AC" />
<path d="M844.48,176.86A3,3 0 1 1 838.48,176.86A3,3 0 1 1 844.48,176.86Z" style="fill:#1FD3AC" />
<path d="M853.97,174.58A3,3 0 1 1 847.97,174.58A3,3 0 1 1 853.97,174.58Z" style="fill:#1FD3AC" />
<path d="M863.46,169.33A3,3 0 1 1 857.46,169.33A3,3 0 1 1 863.46,169.33Z" style="fill:#1FD3AC" />
<path d="M872.95,166.66A3,3 0 1 1 866.95,166.66A3,3 0 1 1 872.95,166.66Z" style="fill:#1FD3AC" />
<path d="M882.44,162.85A3,3 0 1 1 876.44,162.85A3,3 0 1 1 882.44,162.85Z" style="fill:#1FD3AC" />
<path d="M891.93,158.46A3,3 0 1 1 885.93,158.46A3,3 0 1 1 891.93,158.46Z" style="fill:#1FD3AC" />
<path d="M901.42,154.65A3,3 0 1 1 895.42,154.65A3,3 0 1 1 901.42,154.65Z" style="fill:#1FD3AC" />
<path d="M910.9,150.63A3,3 0 1 1 904.9,150.63A3,3 0 1 1 910.9,150.63Z" style="fill:#1FD3AC" />
<path d="M920.39,147.16A3,3 0 1 1 914.39,147.16A3,3 0 1 1 920.39,147.16Z" style="fill:#1FD3AC" />
<path d="M929.88,147.37A3,3 0 1 1 923.88,147.37A3,3 0 1 1 929.88,147.37Z" style="fill:#1FD3AC" />
<path d="M939.37,142.71A3,3 0 1 1 933.37,142.71A3,3 0 1 1 939.37,142.71Z" style="fill:#1FD3AC" />
<path d="M948.86,141.51A3,3 0 1 1 942.86,141.51A3,3 0 1 1 948.86,141.51Z" style="fill:#1FD3AC" />
<path d="M958.35,139.65A3,3 0 1 1 952.35,139.65A3,3 0 1 1 958.35,139.65Z" style="fill:#1FD3AC" />
<path d="M967.84,138.47A3,3 0 1 1 961.84,138.47A3,3 0 1 1 967.84,138.47Z" style="fill:#1FD3AC" />
<path d="M977.32,134.44A3,3 0 1 1 971.32,134.44A3,3 0 1 1 977.32,134.44Z" style="fill:#1FD3AC" />
<path d="M986.81,132.5A3,3 0 1 1 980.81,132.5A3,3 0 1 1 986.81,132.5Z" style="fill:#1FD3AC" />
<path d="M996.3,132.59A3,3 0 1 1 990.3,132.59A3,3 0 1 1 996.3,132.59Z" style="fill:#1FD3AC" />
<path d="M1005.8,131.71A3,3 0 1 1 999.79,131.71A3,3 0 1 1 1005.8,131.71Z" style="fill:#1FD3AC" />
<path d="M1015.3,133.79A3,3 0 1 1 1009.3,133.79A3,3 0 1 1 1015.3,133.79Z" style="fill:#1FD3AC" />
<path d="M1024.8,128.49A3,3 0 1 1 1018.8,128.49A3,3 0 1 1 1024.8,128.49Z" style="fill:#1FD3AC" />
<path d="M1034.3,127.33A3,3 0 1 1 1028.3,127.33A3,3 0 1 1 1034.3,127.33Z" style="fill:#1FD3AC" />
<path d="M1043.7,126.79A3,3 0 1 1 1037.7,126.79A3,3 0 1 1 1043.7,126.79Z" style="fill:#1FD3AC" />
<path d="M1053.2,129.66A3,3 0 1 1 1047.2,129.66A3,3 0 1 1 1053.2,129.66Z" style="fill:#1FD3AC" />
<path d="M106.12,962.84L1055,962.84" style="fill:none;stroke:#000000" />
<path d="M1055,104.32L1055,962.84" style="fill:none;stroke:#000000" />
<path d="M113.87,111.63A3,3 0 1 1 107.87,111.63A3,3 0 1 1 113.87,111.63Z" style="fill:#FF7AB4" />
<path d="M123.35,113.87A3,3 0 1 1 117.35,113.87A3,3 0 1 1 123.35,113.87Z" style="fill:#FF7AB4" />
<path d="M132.84,114.76A3,3 0 1 1 126.84,114.76A3,3 0 1 1 132.84,114.76Z" style="fill:#FF7AB4" />
<path d="M142.33,112.04A3,3 0 1 1 136.33,112.04A3,3 0 1 1 142.33,112.04Z" style="fill:#FF7AB4" />
<path d="M151.82,114.66A3,3 0 1 1 145.82,114.66A3,3 0 1 1 151.82,114.66Z" style="fill:#FF7AB4" />
<path d="M161.31,116.83A3,3 0 1 1 155.31,116.83A3,3 0 1 1 161.31,116.83Z" style="fill:#FF7AB4" />
<path d="M170.8,114.61A3,3 0 1 1 164.8,114.61A3,3 0 1 1 170.8,114.61Z" style="fill:#FF7AB4" />
<path d="M180.29,116.28A3,3 0 1 1 174.29,116.28A3,3 0 1 1 180.29,116.28Z" style="fill:#FF7AB4" />
<path d="M189.77,119.2A3,3 0 1 1 183.77,119.2A3,3 0 1 1 189.77,119.2Z" style="fill:#FF7AB4" />
<path d="M199.26,120.24A3,3 0 1 1 193.26,120.24A3,3 0 1 1 199.26,120.24Z" style="fill:#FF7AB4" />
<path d="M208.75,119.81A3,3 0 1 1 202.75,119.81A3,3 0 1 1 208.75,119.81Z" style="fill:#FF7AB4" />
<path d="M218.24,122.73A3,3 0 1 1 212.24,122.73A3,3 0 1 1 218.24,122.73Z" style="fill:#FF7AB4" />
<path d="M227.73,120.15A3,3 0 1 1 221.73,120.15A3,3 0 1 1 227.73,120.15Z" style="fill:#FF7AB4" />
<path d="M237.22,122.54A3,3 0 1 1 231.22,122.54A3,3 0 1 1 237.22,122.54Z" style="fill:#FF7AB4" />
<path d="M246.71,124.85A3,3 0 1 1 240.71,124.85A3,3 0 1 1 246.71,124.85Z" style="fill:#FF7AB4" />
<path d="M256.19,126.1A3,3 0 1 1 250.19,126.1A3,3 0 1 1 256.19,126.1Z" style="fill:#FF7AB4" />
<path d="M265.68,128.2A3,3 0 1 1 259.68,128.2A3,3 0 1 1 265.68,128.2Z" style="fill:#FF7AB4" />
<path d="M275.17,132.7A3,3 0 1 1 269.17,132.7A3,3 0 1 1 275.17,132.7Z" style="fill:#FF7AB4" />
<path d="M284.66,129.87A3,3 0 1 1 278.66,129.87A3,3 0 1 1 284.66,129.87Z" style="fill:#FF7AB4" />
<path d="M294.15,135.4A3,3 0 1 1 288.15,135.4A3,3 0 1 1 294.15,135.4Z" style="fill:#FF7AB4" />
<path d="M303.64,137.29A3,3 0 1 1 297.64,137.29A3,3 0 1 1 303.64,137.29Z" style="fill:#FF7AB4" />
<path d="M313.13,136.96A3,3 0 1 1 307.13,136.96A3,3 0 1 1 313.13,136.96Z" style="fill:#FF7AB4" />
<path d="M322.61,142.64A3,3 0 1 1 316.61,142.64A3,3 0 1 1 322.61,142.64Z" style="fill:#FF7AB4" />
<path d="M332.1,147.07A3,3 0 1 1 326.1,147.07A3,3 0 1 1 332.1,147.07Z" style="fill:#FF7AB4" />
<path d="M341.59,149.04A3,3 0 1 1 335.59,149.04A3,3 0 1 1 341.59,149.04Z" style="fill:#FF7AB4" />
<path d="M351.08,152.81A3,3 0 1 1 345.08,152.81A3,3 0 1 1 351.08,152.81Z" style="fill:#FF7AB4" />
<path d="M360.57,157.08A3,3 0 1 1 354.57,157.08A3,3 0 1 1 360.57,157.08Z" style="fill:#FF7AB4" />
<path d="M370.06,160.14A3,3 0 1 1 364.06,160.14A3,3 0 1 1 370.06,160.14Z" style="fill:#FF7AB4" />
<path d="M379.55,163.67A3,3 0 1 1 373.55,163.67A3,3 0 1 1 379.55,163.67Z" style="fill:#FF7AB4" />
<path d="M389.03,169.98A3,3 0 1 1 383.03,169.98A3,3 0 1 1 389.03,169.98Z" style="fill:#FF7AB4" />
<path d="M398.52,174.72A3,3 0 1 1 392.52,174.72A3,3 0 1 1 398.52,174.72Z" style="fill:#FF7AB4" />
<path d="M408.01,178.15A3,3 0 1 1 402.01,178.15A3,3 0 1 1 408.01,178.15Z" style="fill:#FF7AB4" />
<path d="M417.5,185.95A3,3 0 1 1 411.5,185.95A3,3 0 1 1 417.5,185.95Z" style="fill:#FF7AB4" />
<path d="M426.99,193.44A3,3 0 1 1 420.99,193.44A3,3 0 1 1 426.99,193.44Z" style="fill:#FF7AB4" />
<path d="M436.48,198.9A3,3 0 1 1 430.48,198.9A3,3 0 1 1 436.48,198.9Z" style="fill:#FF7AB4" />
<path d="M445.97,204.85A3,3 0 1 1 439.97,204.85A3,3 0 1 1 445.97,204.85Z" style="fill:#FF7AB4" />
<path d="M455.45,214.75A3,3 0 1 1 449.45,214.75A3,3 0 1 1 455.45,214.75Z" style="fill:#FF7AB4" />
<path d="M464.94,225.86A3,3 0 1 1 458.94,225.86A3,3 0 1 1 464.94,225.86Z" style="fill:#FF7AB4" />
<path d="M474.43,233.97A3,3 0 1 1 468.43,233.97A3,3 0 1 1 474.43,233.97Z" style="fill:#FF7AB4" />
<path d="M483.92,248.92A3,3 0 1 1 477.92,248.92A3,3 0 1 1 483.92,248.92Z" style="fill:#FF7AB4" />
<path d="M493.41,265.79A3,3 0 1 1 487.41,265.79A3,3 0 1 1 493.41,265.79Z" style="fill:#FF7AB4" />
<path d="M502.9,279.76A3,3 0 1 1 496.9,279.76A3,3 0 1 1 502.9,279.76Z" style="fill:#FF7AB4" />
<path d="M512.39,298.08A3,3 0 1 1 506.39,298.08A3,3 0 1 1 512.39,298.08Z" style="fill:#FF7AB4" />
<path d="M521.87,324.26A3,3 0 1 1 515.87,324.26A3,3 0 1 1 521.87,324.26Z" style="fill:#FF7AB4" />
<path d="M531.36,343.28A3,3 0 1 1 525.36,343.28A3,3 0 1 1 531.36,343.28Z" style="fill:#FF7AB4" />
<path d="M540.85,373.21A3,3 0 1 1 534.85,373.21A3,3 0 1 1 540.85,373.21Z" style="fill:#FF7AB4" />
<path d="M550.34,398.98A3,3 0 1 1 544.34,398.98A3,3 0 1 1 550.34,398.98Z" style="fill:#FF7AB4" />
<path d="M559.83,425.86A3,3 0 1 1 553.83,425.86A3,3 0 1 1 559.83,425.86Z" style="fill:#FF7AB4" />
<path d="M569.32,463.78A3,3 0 1 1 563.32,463.78A3,3 0 1 1 569.32,463.78Z" style="fill:#FF7AB4" />
<path d="M578.81,492.37A3,3 0 1 1 572.81,492.37A3,3 0 1 1 578.81,492.37Z" style="fill:#FF7AB4" />
<path d="M588.29,520.56A3,3 0 1 1 582.29,520.56A3,3 0 1 1 588.29,520.56Z" style="fill:#FF7AB4" />
<path d="M597.78,544.66A3,3 0 1 1 591.78,544.66A3,3 0 1 1 597.78,544.66Z" style="fill:#FF7AB4" />
<path d="M607.27,555.11A3,3 0 1 1 601.27,555.11A3,3 0 1 1 607.27,555.11Z" style="fill:#FF7AB4" />
<path d="M616.76,562.11A3,3 0 1 1 610.76,562.11A3,3 0 1 1 616.76,562.11Z" style="fill:#FF7AB4" />
<path d="M626.25,561.22A3,3 0 1 1 620.25,561.22A3,3 0 1 1 626.25,561.22Z" style="fill:#FF7AB4" />
<path d="M635.74,548.04A3,3 0 1 1 629.74,548.04A3,3 0 1 1 635.74,548.04Z" style="fill:#FF7AB4" />
<path d="M645.22,529.15A3,3 0 1 1 639.22,529.15A3,3 0 1 1 645.22,529.15Z" style="fill:#FF7AB4" />
<path d="M654.71,512.86A3,3 0 1 1 648.71,512.86A3,3 0 1 1 654.71,512.86Z" style="fill:#FF7AB4" />
<path d="M664.2,480.78A3,3 0 1 1 658.2,480.78A3,3 0 1 1 664.2,480.78Z" style="fill:#FF7AB4" />
<path d="M673.69,451.61A3,3 0 1 1 667.69,451.61A3,3 0 1 1 673.69,451.61Z" style="fill:#FF7AB4" />
<path d="M683.18,428.06A3,3 0 1 1 677.18,428.06A3,3 0 1 1 683.18,428.06Z" style="fill:#FF7AB4" />
<path d="M692.67,395.11A3,3 0 1 1 686.67,395.11A3,3 0 1 1 692.67,395.11Z" style="fill:#FF7AB4" />
<path d="M702.16,373.73A3,3 0 1 1 696.16,373.73A3,3 0 1 1 702.16,373.73Z" style="fill:#FF7AB4" />
<path d="M711.64,346.56A3,3 0 1 1 705.64,346.56A3,3 0 1 1 711.64,346.56Z" style="fill:#FF7AB4" />
<path d="M721.13,324.65A3,3 0 1 1 715.13,324.65A3,3 0 1 1 721.13,324.65Z" style="fill:#FF7AB4" />
<path d="M730.62,303.53A3,3 0 1 1 724.62,303.53A3,3 0 1 1 730.62,303.53Z" style="fill:#FF7AB4" />
<path d="M740.11,286.56A3,3 0 1 1 734.11,286.56A3,3 0 1 1 740.11,286.56Z" style="fill:#FF7AB4" />
<path d="M749.6,269.08A3,3 0 1 1 743.6,269.08A3,3 0 1 1 749.6,269.08Z" style="fill:#FF7AB4" />
<path d="M759.09,253.99A3,3 0 1 1 753.09,253.99A3,3 0 1 1 759.09,253.99Z" style="fill:#FF7AB4" />
<path d="M768.58,241.83A3,3 0 1 1 762.58,241.83A3,3 0 1 1 768.58,241.83Z" style="fill:#FF7AB4" />
<path d="M778.06,227.71A3,3 0 1 1 772.06,227.71A3,3 0 1 1 778.06,227.71Z" style="fill:#FF7AB4" />
<path d="M787.55,214.63A3,3 0 1 1 781.55,214.63A3,3 0 1 1 787.55,214.63Z" style="fill:#FF7AB4" />
<path d="M797.04,204.4A3,3 0 1 1 791.04,204.4A3,3 0 1 1 797.04,204.4Z" style="fill:#FF7AB4" />
<path d="M806.53,200.23A3,3 0 1 1 800.53,200.23A3,3 0 1 1 806.53,200.23Z" style="fill:#FF7AB4" />
<path d="M816.02,193.98A3,3 0 1 1 810.02,193.98A3,3 0 1 1 816.02,193.98Z" style="fill:#FF7AB4" />
<path d="M825.51,183.13A3,3 0 1 1 819.51,183.13A3,3 0 1 1 825.51,183.13Z" style="fill:#FF7AB4" />
<path d="M835,178.92A3,3 0 1 1 829,178.92A3,3 0 1 1 835,178.92Z" style="fill:#FF7AB4" />
<path d="M844.48,173.39A3,3 0 1 1 838.48,173.39A3,3 0 1 1 844.48,173.39Z" style="fill:#FF7AB4" />
<path d="M853.97,169.57A3,3 0 1 1 847.97,169.57A3,3 0 1 1 853.97,169.57Z" style="fill:#FF7AB4" />
<path d="M863.46,167.96A3,3 0 1 1 857.46,167.96A3,3 0 1 1 863.46,167.96Z" style="fill:#FF7AB4" />
<path d="M872.95,159.22A3,3 0 1 1 866.95,159.22A3,3 0 1 1 872.95,159.22Z" style="fill:#FF7AB4" />
<path d="M882.44,157.16A3,3 0 1 1 876.44,157.16A3,3 0 1 1 882.44,157.16Z" style="fill:#FF7AB4" />
<path d="M891.93,146.44A3,3 0 1 1 885.93,146.44A3,3 0 1 1 891.93,146.44Z" style="fill:#FF7AB4" />
<path d="M901.42,146.43A3,3 0 1 1 895.42,146.43A3,3 0 1 1 901.42,146.43Z" style="fill:#FF7AB4" />
<path d="M910.9,151.53A3,3 0 1 1 904.9,151.53A3,3 0 1 1 910.9,151.53Z" style="fill:#FF7AB4" />
<path d="M920.39,148.63A3,3 0 1 1 914.39,148.63A3,3 0 1 1 920.39,148.63Z" style="fill:#FF7AB4" />
<path d="M929.88,141.38A3,3 0 1 1 923.88,141.38A3,3 0 1 1 929.88,141.38Z" style="fill:#FF7AB4" />
<path d="M939.37,142A3,3 0 1 1 933.37,142A3,3 0 1 1 939.37,142Z" style="fill:#FF7AB4" />
<path d="M948.86,138.62A3,3 0 1 1 942.86,138.62A3,3 0 1 1 948.86,138.62Z" style="fill:#FF7AB4" />
<path d="M958.35,139.48A3,3 0 1 1 952.35,139.48A3,3 0 1 1 958.35,139.48Z" style="fill:#FF7AB4" />
<path d="M967.84,133.85A3,3 0 1 1 961.84,133.85A3,3 0 1 1 967.84,133.85Z" style="fill:#FF7AB4" />
<path d="M977.32,134.16A3,3 0 1 1 971.32,134.16A3,3 0 1 1 977.32,134.16Z" style="fill:#FF7AB4" />
<path d="M986.81,132.87A3,3 0 1 1 980.81,132.87A3,3 0 1 1 986.81,132.87Z" style="fill:#FF7AB4" />
<path d="M996.3,133.17A3,3 0 1 1 990.3,133.17A3,3 0 1 1 996.3,133.17Z" style="fill:#FF7AB4" />
<path d="M1005.8,125.97A3,3 0 1 1 999.79,125.97A3,3 0 1 1 1005.8,125.97Z" style="fill:#FF7AB4" />
<path d="M1015.3,128.34A3,3 0 1 1 1009.3,128.34A3,3 0 1 1 1015.3,128.34Z" style="fill:#FF7AB4" />
<path d="M1024.8,125.1A3,3 0 1 1 1018.8,125.1A3,3 0 1 1 1024.8,125.1Z" style="fill:#FF7AB4" />
<path d="M1034.3,124.8A3,3 0 1 1 1028.3,124.8A3,3 0 1 1 1034.3,124.8Z" style="fill:#FF7AB4" />
<path d="M1043.7,123.95A3,3 0 1 1 1037.7,123.95A3,3 0 1 1 1043.7,123.95Z" style="fill:#FF7AB4" />
<path d="M1053.2,122.59A3,3 0 1 1 1047.2,122.59A3,3 0 1 1 1053.2,122.59Z" style="fill:#FF7AB4" />
<path d="M106.12,962.84L1055,962.84" style="fill:none;stroke:#000000" />
<path d="M1055,104.32L1055,962.84" style="fill:none;stroke:#000000" />
<path d="M113.87,112.44A3,3 0 1 1 107.87,112.44A3,3 0 1 1 113.87,112.44Z" style="fill:#7A9CFF" />
<path d="M123.35,111.57A3,3 0 1 1 117.35,111.57A3,3 0 1 1 123.35,111.57Z" style="fill:#7A9CFF" />
<path d="M132.84,113.87A3,3 0 1 1 126.84,113.87A3,3 0 1 1 132.84,113.87Z" style="fill:#7A9CFF" />
<path d="M142.33,115.27A3,3 0 1 1 136.33,115.27A3,3 0 1 1 142.33,115.27Z" style="fill:#7A9CFF" />
<path d="M151.82,113.58A3,3 0 1 1 145.82,113.58A3,3 0 1 1 151.82,113.58Z" style="fill:#7A9CFF" />
<path d="M161.31,113.53A3,3 0 1 1 155.31,113.53A3,3 0 1 1 161.31,113.53Z" style="fill:#7A9CFF" />
<path d="M170.8,116.65A3,3 0 1 1 164.8,116.65A3,3 0 1 1 170.8,116.65Z" style="fill:#7A9CFF" />
<path d="M180.29,117.03A3,3 0 1 1 174.29,117.03A3,3 0 1 1 180.29,117.03Z" style="fill:#7A9CFF" />
<path d="M189.77,117.41A3,3 0 1 1 183.77,117.41A3,3 0 1 1 189.77,117.41Z" style="fill:#7A9CFF" />
<path d="M199.26,117.8A3,3 0 1 1 193.26,117.8A3,3 0 1 1 199.26,117.8Z" style="fill:#7A9CFF" />
<path d="M208.75,119.7A3,3 0 1 1 202.75,119.7A3,3 0 1 1 208.75,119.7Z" style="fill:#7A9CFF" />
<path d="M218.24,120.73A3,3 0 1 1 212.24,120.73A3,3 0 1 1 218.24,120.73Z" style="fill:#7A9CFF" />
<path d="M227.73,122.55A3,3 0 1 1 221.73,122.55A3,3 0 1 1 227.73,122.55Z" style="fill:#7A9CFF" />
<path d="M237.22,125.56A3,3 0 1 1 231.22,125.56A3,3 0 1 1 237.22,125.56Z" style="fill:#7A9CFF" />
<path d="M246.71,127.46A3,3 0 1 1 240.71,127.46A3,3 0 1 1 246.71,127.46Z" style="fill:#7A9CFF" />
<path d="M256.19,125.97A3,3 0 1 1 250.19,125.97A3,3 0 1 1 256.19,125.97Z" style="fill:#7A9CFF" />
<path d="M265.68,127.08A3,3 0 1 1 259.68,127.08A3,3 0 1 1 265.68,127.08Z" style="fill:#7A9CFF" />
<path d="M275.17,130.18A3,3 0 1 1 269.17,130.18A3,3 0 1 1 275.17,130.18Z" style="fill:#7A9CFF" />
<path d="M284.66,135.42A3,3 0 1 1 278.66,135.42A3,3 0 1 1 284.66,135.42Z" style="fill:#7A9CFF" />
<path d="M294.15,133.13A3,3 0 1 1 288.15,133.13A3,3 0 1 1 294.15,133.13Z" style="fill:#7A9CFF" />
<path d="M303.64,137.2A3,3 0 1 1 297.64,137.2A3,3 0 1 1 303.64,137.2Z" style="fill:#7A9CFF" />
<path d="M313.13,139.78A3,3 0 1 1 307.13,139.78A3,3 0 1 1 313.13,139.78Z" style="fill:#7A9CFF" />
<path d="M322.61,141.06A3,3 0 1 1 316.61,141.06A3,3 0 1 1 322.61,141.06Z" style="fill:#7A9CFF" />
<path d="M332.1,144.71A3,3 0 1 1 326.1,144.71A3,3 0 1 1 332.1,144.71Z" style="fill:#7A9CFF" />
<path d="M341.59,149.05A3,3 0 1 1 335.59,149.05A3,3 0 1 1 341.59,149.05Z" style="fill:#7A9CFF" />
<path d="M351.08,153.49A3,3 0 1 1 345.08,153.49A3,3 0 1 1 351.08,153.49Z" style="fill:#7A9CFF" />
<path d="M360.57,157.22A3,3 0 1 1 354.57,157.22A3,3 0 1 1 360.57,157.22Z" style="fill:#7A9CFF" />
<path d="M370.06,165.25A3,3 0 1 1 364.06,165.25A3,3 0 1 1 370.06,165.25Z" style="fill:#7A9CFF" />
<path d="M379.55,166.08A3,3 0 1 1 373.55,166.08A3,3 0 1 1 379.55,166.08Z" style="fill:#7A9CFF" />
<path d="M389.03,170.37A3,3 0 1 1 383.03,170.37A3,3 0 1 1 389.03,170.37Z" style="fill:#7A9CFF" />
<path d="M398.52,172.81A3,3 0 1 1 392.52,172.81A3,3 0 1 1 398.52,172.81Z" style="fill:#7A9CFF" />
<path d="M408.01,178.13A3,3 0 1 1 402.01,178.13A3,3 0 1 1 408.01,178.13Z" style="fill:#7A9CFF" />
<path d="M417.5,182.7A3,3 0 1 1 411.5,182.7A3,3 0 1 1 417.5,182.7Z" style="fill:#7A9CFF" />
<path d="M426.99,190.94A3,3 0 1 1 420.99,190.94A3,3 0 1 1 426.99,190.94Z" style="fill:#7A9CFF" />
<path d="M436.48,199.8A3,3 0 1 1 430.48,199.8A3,3 0 1 1 436.48,199.8Z" style="fill:#7A9CFF" />
<path d="M445.97,206.4A3,3 0 1 1 439.97,206.4A3,3 0 1 1 445.97,206.4Z" style="fill:#7A9CFF" />
<path d="M455.45,209.51A3,3 0 1 1 449.45,209.51A3,3 0 1 1 455.45,209.51Z" style="fill:#7A9CFF" />
<path d="M464.94,222.97A3,3 0 1 1 458.94,222.97A3,3 0 1 1 464.94,222.97Z" style="fill:#7A9CFF" />
<path d="M474.43,231.59A3,3 0 1 1 468.43,231.59A3,3 0 1 1 474.43,231.59Z" style="fill:#7A9CFF" />
<path d="M483.92,246.7A3,3 0 1 1 477.92,246.7A3,3 0 1 1 483.92,246.7Z" style="fill:#7A9CFF" />
<path d="M493.41,251.35A3,3 0 1 1 487.41,251.35A3,3 0 1 1 493.41,251.35Z" style="fill:#7A9CFF" />
<path d="M502.9,268.4A3,3 0 1 1 496.9,268.4A3,3 0 1 1 502.9,268.4Z" style="fill:#7A9CFF" />
<path d="M512.39,298.34A3,3 0 1 1 506.39,298.34A3,3 0 1 1 512.39,298.34Z" style="fill:#7A9CFF" />
<path d="M521.87,308.43A3,3 0 1 1 515.87,308.43A3,3 0 1 1 521.87,308.43Z" style="fill:#7A9CFF" />
<path d="M531.36,335.92A3,3 0 1 1 525.36,335.92A3,3 0 1 1 531.36,335.92Z" style="fill:#7A9CFF" />
<path d="M540.85,353.04A3,3 0 1 1 534.85,353.04A3,3 0 1 1 540.85,353.04Z" style="fill:#7A9CFF" />
<path d="M550.34,385.12A3,3 0 1 1 544.34,385.12A3,3 0 1 1 550.34,385.12Z" style="fill:#7A9CFF" />
<path d="M559.83,412.27A3,3 0 1 1 553.83,412.27A3,3 0 1 1 559.83,412.27Z" style="fill:#7A9CFF" />
<path d="M569.32,444.71A3,3 0 1 1 563.32,444.71A3,3 0 1 1 569.32,444.71Z" style="fill:#7A9CFF" />
<path d="M578.81,463.08A3,3 0 1 1 572.81,463.08A3,3 0 1 1 578.81,463.08Z" style="fill:#7A9CFF" />
<path d="M588.29,493.3A3,3 0 1 1 582.29,493.3A3,3 0 1 1 588.29,493.3Z" style="fill:#7A9CFF" />
<path d="M597.78,512.59A3,3 0 1 1 591.78,512.59A3,3 0 1 1 597.78,512.59Z" style="fill:#7A9CFF" />
<path d="M607.27,532.76A3,3 0 1 1 601.27,532.76A3,3 0 1 1 607.27,532.76Z" style="fill:#7A9CFF" />
<path d="M616.76,543.69A3,3 0 1 1 610.76,543.69A3,3 0 1 1 616.76,543.69Z" style="fill:#7A9CFF" />
<path d="M626.25,530.06A3,3 0 1 1 620.25,530.06A3,3 0 1 1 626.25,530.06Z" style="fill:#7A9CFF" />
<path d="M635.74,524.63A3,3 0 1 1 629.74,524.63A3,3 0 1 1 635.74,524.63Z" style="fill:#7A9CFF" />
<path d="M645.22,507.15A3,3 0 1 1 639.22,507.15A3,3 0 1 1 645.22,507.15Z" style="fill:#7A9CFF" />
<path d="M654.71,486.09A3,3 0 1 1 648.71,486.09A3,3 0 1 1 654.71,486.09Z" style="fill:#7A9CFF" />
<path d="M664.2,461.37A3,3 0 1 1 658.2,461.37A3,3 0 1 1 664.2,461.37Z" style="fill:#7A9CFF" />
<path d="M673.69,432.07A3,3 0 1 1 667.69,432.07A3,3 0 1 1 673.69,432.07Z" style="fill:#7A9CFF" />
<path d="M683.18,392.47A3,3 0 1 1 677.18,392.47A3,3 0 1 1 683.18,392.47Z" style="fill:#7A9CFF" />
<path d="M692.67,374.59A3,3 0 1 1 686.67,374.59A3,3 0 1 1 692.67,374.59Z" style="fill:#7A9CFF" />
<path d="M702.16,356.73A3,3 0 1 1 696.16,356.73A3,3 0 1 1 702.16,356.73Z" style="fill:#7A9CFF" />
<path d="M711.64,333.16A3,3 0 1 1 705.64,333.16A3,3 0 1 1 711.64,333.16Z" style="fill:#7A9CFF" />
<path d="M721.13,307.39A3,3 0 1 1 715.13,307.39A3,3 0 1 1 721.13,307.39Z" style="fill:#7A9CFF" />
<path d="M730.62,296.51A3,3 0 1 1 724.62,296.51A3,3 0 1 1 730.62,296.51Z" style="fill:#7A9CFF" />
<path d="M740.11,272.81A3,3 0 1 1 734.11,272.81A3,3 0 1 1 740.11,272.81Z" style="fill:#7A9CFF" />
<path d="M749.6,259.15A3,3 0 1 1 743.6,259.15A3,3 0 1 1 749.6,259.15Z" style="fill:#7A9CFF" />
<path d="M759.09,246.86A3,3 0 1 1 753.09,246.86A3,3 0 1 1 759.09,246.86Z" style="fill:#7A9CFF" />
<path d="M768.58,230.51A3,3 0 1 1 762.58,230.51A3,3 0 1 1 768.58,230.51Z" style="fill:#7A9CFF" />
<path d="M778.06,219.49A3,3 0 1 1 772.06,219.49A3,3 0 1 1 778.06,219.49Z" style="fill:#7A9CFF" />
<path d="M787.55,212.85A3,3 0 1 1 781.55,212.85A3,3 0 1 1 787.55,212.85Z" style="fill:#7A9CFF" />
<path d="M797.04,205.41A3,3 0 1 1 791.04,205.41A3,3 0 1 1 797.04,205.41Z" style="fill:#7A9CFF" />
<path d="M806.53,192.17A3,3 0 1 1 800.53,192.17A3,3 0 1 1 806.53,192.17Z" style="fill:#7A9CFF" />
<path d="M816.02,189.29A3,3 0 1 1 810.02,189.29A3,3 0 1 1 816.02,189.29Z" style="fill:#7A9CFF" />
<path d="M825.51,183.83A3,3 0 1 1 819.51,183.83A3,3 0 1 1 825.51,183.83Z" style="fill:#7A9CFF" />
<path d="M835,178.46A3,3 0 1 1 829,178.46A3,3 0 1 1 835,178.46Z" style="fill:#7A9CFF" />
<path d="M844.48,173.36A3,3 0 1 1 838.48,173.36A3,3 0 1 1 844.48,173.36Z" style="fill:#7A9CFF" />
<path d="M853.97,168.73A3,3 0 1 1 847.97,168.73A3,3 0 1 1 853.97,168.73Z" style="fill:#7A9CFF" />
<path d="M863.46,164.13A3,3 0 1 1 857.46,164.13A3,3 0 1 1 863.46,164.13Z" style="fill:#7A9CFF" />
<path d="M872.95,158.02A3,3 0 1 1 866.95,158.02A3,3 0 1 1 872.95,158.02Z" style="fill:#7A9CFF" />
<path d="M882.44,153.3A3,3 0 1 1 876.44,153.3A3,3 0 1 1 882.44,153.3Z" style="fill:#7A9CFF" />
<path d="M891.93,149.72A3,3 0 1 1 885.93,149.72A3,3 0 1 1 891.93,149.72Z" style="fill:#7A9CFF" />
<path d="M901.42,152.22A3,3 0 1 1 895.42,152.22A3,3 0 1 1 901.42,152.22Z" style="fill:#7A9CFF" />
<path d="M910.9,148.46A3,3 0 1 1 904.9,148.46A3,3 0 1 1 910.9,148.46Z" style="fill:#7A9CFF" />
<path d="M920.39,145.86A3,3 0 1 1 914.39,145.86A3,3 0 1 1 920.39,145.86Z" style="fill:#7A9CFF" />
<path d="M929.88,146.4A3,3 0 1 1 923.88,146.4A3,3 0 1 1 929.88,146.4Z" style="fill:#7A9CFF" />
<path d="M939.37,143.99A3,3 0 1 1 933.37,143.99A3,3 0 1 1 939.37,143.99Z" style="fill:#7A9CFF" />
<path d="M948.86,140.36A3,3 0 1 1 942.86,140.36A3,3 0 1 1 948.86,140.36Z" style="fill:#7A9CFF" />
<path d="M958.35,137.76A3,3 0 1 1 952.35,137.76A3,3 0 1 1 958.35,137.76Z" style="fill:#7A9CFF" />
<path d="M967.84,138.09A3,3 0 1 1 961.84,138.09A3,3 0 1 1 967.84,138.09Z" style="fill:#7A9CFF" />
<path d="M977.32,132.51A3,3 0 1 1 971.32,132.51A3,3 0 1 1 977.32,132.51Z" style="fill:#7A9CFF" />
<path d="M986.81,132.91A3,3 0 1 1 980.81,132.91A3,3 0 1 1 986.81,132.91Z" style="fill:#7A9CFF" />
<path d="M996.3,129.88A3,3 0 1 1 990.3,129.88A3,3 0 1 1 996.3,129.88Z" style="fill:#7A9CFF" />
<path d="M1005.8,132.97A3,3 0 1 1 999.79,132.97A3,3 0 1 1 1005.8,132.97Z" style="fill:#7A9CFF" />
<path d="M1015.3,130.13A3,3 0 1 1 1009.3,130.13A3,3 0 1 1 1015.3,130.13Z" style="fill:#7A9CFF" />
<path d="M1024.8,128.95A3,3 0 1 1 1018.8,128.95A3,3 0 1 1 1024.8,128.95Z" style="fill:#7A9CFF" />
<path d="M1034.3,127.34A3,3 0 1 1 1028.3,127.34A3,3 0 1 1 1034.3,127.34Z" style="fill:#7A9CFF" />
<path d="M1043.7,126.39A3,3 0 1 1 1037.7,126.39A3,3 0 1 1 1043.7,126.39Z" style="fill:#7A9CFF" />
<path d="M1053.2,126.01A3,3 0 1 1 1047.2,126.01A3,3 0 1 1 1053.2,126.01Z" style="fill:#7A9CFF" />
<path d="M106.12,962.84L1055,962.84" style="fill:none;stroke:#000000" />
<path d="M1055,104.32L1055,962.84" style="fill:none;stroke:#000000" />
<path d="M113.87,113.63A3,3 0 1 1 107.87,113.63A3,3 0 1 1 113.87,113.63Z" style="fill:#FFB66E" />
<path d="M123.35,115.49A3,3 0 1 1 117.35,115.49A3,3 0 1 1 123.35,115.49Z" style="fill:#FFB66E" />
<path d="M132.84,113.05A3,3 0 1 1 126.84,113.05A3,3 0 1 1 132.84,113.05Z" style="fill:#FFB66E" />
<path d="M142.33,114.73A3,3 0 1 1 136.33,114.73A3,3 0 1 1 142.33,114.73Z" style="fill:#FFB66E" />
<path d="M151.82,112.28A3,3 0 1 1 145.82,112.28A3,3 0 1 1 151.82,112.28Z" style="fill:#FFB66E" />
<path d="M161.31,113.35A3,3 0 1 1 155.31,113.35A3,3 0 1 1 161.31,113.35Z" style="fill:#FFB66E" />
<path d="M170.8,116.6A3,3 0 1 1 164.8,116.6A3,3 0 1 1 170.8,116.6Z" style="fill:#FFB66E" />
<path d="M180.29,116.03A3,3 0 1 1 174.29,116.03A3,3 0 1 1 180.29,116.03Z" style="fill:#FFB66E" />
<path d="M189.77,116.74A3,3 0 1 1 183.77,116.74A3,3 0 1 1 189.77,116.74Z" style="fill:#FFB66E" />
<path d="M199.26,121.34A3,3 0 1 1 193.26,121.34A3,3 0 1 1 199.26,121.34Z" style="fill:#FFB66E" />
<path d="M208.75,118.37A3,3 0 1 1 202.75,118.37A3,3 0 1 1 208.75,118.37Z" style="fill:#FFB66E" />
<path d="M218.24,122.35A3,3 0 1 1 212.24,122.35A3,3 0 1 1 218.24,122.35Z" style="fill:#FFB66E" />
<path d="M227.73,121.77A3,3 0 1 1 221.73,121.77A3,3 0 1 1 227.73,121.77Z" style="fill:#FFB66E" />
<path d="M237.22,123.83A3,3 0 1 1 231.22,123.83A3,3 0 1 1 237.22,123.83Z" style="fill:#FFB66E" />
<path d="M246.71,125.12A3,3 0 1 1 240.71,125.12A3,3 0 1 1 246.71,125.12Z" style="fill:#FFB66E" />
<path d="M256.19,127.24A3,3 0 1 1 250.19,127.24A3,3 0 1 1 256.19,127.24Z" style="fill:#FFB66E" />
<path d="M265.68,126.15A3,3 0 1 1 259.68,126.15A3,3 0 1 1 265.68,126.15Z" style="fill:#FFB66E" />
<path d="M275.17,131.85A3,3 0 1 1 269.17,131.85A3,3 0 1 1 275.17,131.85Z" style="fill:#FFB66E" />
<path d="M284.66,137.3A3,3 0 1 1 278.66,137.3A3,3 0 1 1 284.66,137.3Z" style="fill:#FFB66E" />
<path d="M294.15,134.15A3,3 0 1 1 288.15,134.15A3,3 0 1 1 294.15,134.15Z" style="fill:#FFB66E" />
<path d="M303.64,136.9A3,3 0 1 1 297.64,136.9A3,3 0 1 1 303.64,136.9Z" style="fill:#FFB66E" />
<path d="M313.13,140.9A3,3 0 1 1 307.13,140.9A3,3 0 1 1 313.13,140.9Z" style="fill:#FFB66E" />
<path d="M322.61,143.19A3,3 0 1 1 316.61,143.19A3,3 0 1 1 322.61,143.19Z" style="fill:#FFB66E" />
<path d="M332.1,149.01A3,3 0 1 1 326.1,149.01A3,3 0 1 1 332.1,149.01Z" style="fill:#FFB66E" />
<path d="M341.59,149.76A3,3 0 1 1 335.59,149.76A3,3 0 1 1 341.59,149.76Z" style="fill:#FFB66E" />
<path d="M351.08,150.75A3,3 0 1 1 345.08,150.75A3,3 0 1 1 351.08,150.75Z" style="fill:#FFB66E" />
<path d="M360.57,155.74A3,3 0 1 1 354.57,155.74A3,3 0 1 1 360.57,155.74Z" style="fill:#FFB66E" />
<path d="M370.06,163.36A3,3 0 1 1 364.06,163.36A3,3 0 1 1 370.06,163.36Z" style="fill:#FFB66E" />
<path d="M379.55,165.75A3,3 0 1 1 373.55,165.75A3,3 0 1 1 379.55,165.75Z" style="fill:#FFB66E" />
<path d="M389.03,169.18A3,3 0 1 1 383.03,169.18A3,3 0 1 1 389.03,169.18Z" style="fill:#FFB66E" />
<path d="M398.52,172.62A3,3 0 1 1 392.52,172.62A3,3 0 1 1 398.52,172.62Z" style="fill:#FFB66E" />
<path d="M408.01,176.01A3,3 0 1 1 402.01,176.01A3,3 0 1 1 408.01,176.01Z" style="fill:#FFB66E" />
<path d="M417.5,185.25A3,3 0 1 1 411.5,185.25A3,3 0 1 1 417.5,185.25Z" style="fill:#FFB66E" />
<path d="M426.99,184.47A3,3 0 1 1 420.99,184.47A3,3 0 1 1 426.99,184.47Z" style="fill:#FFB66E" />
<path d="M436.48,190.59A3,3 0 1 1 430.48,190.59A3,3 0 1 1 436.48,190.59Z" style="fill:#FFB66E" />
<path d="M445.97,204.71A3,3 0 1 1 439.97,204.71A3,3 0 1 1 445.97,204.71Z" style="fill:#FFB66E" />
<path d="M455.45,212.11A3,3 0 1 1 449.45,212.11A3,3 0 1 1 455.45,212.11Z" style="fill:#FFB66E" />
<path d="M464.94,224.98A3,3 0 1 1 458.94,224.98A3,3 0 1 1 464.94,224.98Z" style="fill:#FFB66E" />
<path d="M474.43,236.47A3,3 0 1 1 468.43,236.47A3,3 0 1 1 474.43,236.47Z" style="fill:#FFB66E" />
<path d="M483.92,243.58A3,3 0 1 1 477.92,243.58A3,3 0 1 1 483.92,243.58Z" style="fill:#FFB66E" />
<path d="M493.41,256.91A3,3 0 1 1 487.41,256.91A3,3 0 1 1 493.41,256.91Z" style="fill:#FFB66E" />
<path d="M502.9,272A3,3 0 1 1 496.9,272A3,3 0 1 1 502.9,272Z" style="fill:#FFB66E" />
<path d="M512.39,281.62A3,3 0 1 1 506.39,281.62A3,3 0 1 1 512.39,281.62Z" style="fill:#FFB66E" />
<path d="M521.87,303.22A3,3 0 1 1 515.87,303.22A3,3 0 1 1 521.87,303.22Z" style="fill:#FFB66E" />
<path d="M531.36,324.14A3,3 0 1 1 525.36,324.14A3,3 0 1 1 531.36,324.14Z" style="fill:#FFB66E" />
<path d="M540.85,353.32A3,3 0 1 1 534.85,353.32A3,3 0 1 1 540.85,353.32Z" style="fill:#FFB66E" />
<path d="M550.34,371.11A3,3 0 1 1 544.34,371.11A3,3 0 1 1 550.34,371.11Z" style="fill:#FFB66E" />
<path d="M559.83,400.24A3,3 0 1 1 553.83,400.24A3,3 0 1 1 559.83,400.24Z" style="fill:#FFB66E" />
<path d="M569.32,441.32A3,3 0 1 1 563.32,441.32A3,3 0 1 1 569.32,441.32Z" style="fill:#FFB66E" />
<path d="M578.81,445.48A3,3 0 1 1 572.81,445.48A3,3 0 1 1 578.81,445.48Z" style="fill:#FFB66E" />
<path d="M588.29,467.9A3,3 0 1 1 582.29,467.9A3,3 0 1 1 588.29,467.9Z" style="fill:#FFB66E" />
<path d="M597.78,496.7A3,3 0 1 1 591.78,496.7A3,3 0 1 1 597.78,496.7Z" style="fill:#FFB66E" />
<path d="M607.27,501.12A3,3 0 1 1 601.27,501.12A3,3 0 1 1 607.27,501.12Z" style="fill:#FFB66E" />
<path d="M616.76,521.15A3,3 0 1 1 610.76,521.15A3,3 0 1 1 616.76,521.15Z" style="fill:#FFB66E" />
<path d="M626.25,516.36A3,3 0 1 1 620.25,516.36A3,3 0 1 1 626.25,516.36Z" style="fill:#FFB66E" />
<path d="M635.74,506.03A3,3 0 1 1 629.74,506.03A3,3 0 1 1 635.74,506.03Z" style="fill:#FFB66E" />
<path d="M645.22,481.81A3,3 0 1 1 639.22,481.81A3,3 0 1 1 645.22,481.81Z" style="fill:#FFB66E" />
<path d="M654.71,473.01A3,3 0 1 1 648.71,473.01A3,3 0 1 1 654.71,473.01Z" style="fill:#FFB66E" />
<path d="M664.2,453.21A3,3 0 1 1 658.2,453.21A3,3 0 1 1 664.2,453.21Z" style="fill:#FFB66E" />
<path d="M673.69,410.91A3,3 0 1 1 667.69,410.91A3,3 0 1 1 673.69,410.91Z" style="fill:#FFB66E" />
<path d="M683.18,395.28A3,3 0 1 1 677.18,395.28A3,3 0 1 1 683.18,395.28Z" style="fill:#FFB66E" />
<path d="M692.67,355.11A3,3 0 1 1 686.67,355.11A3,3 0 1 1 692.67,355.11Z" style="fill:#FFB66E" />
<path d="M702.16,342.86A3,3 0 1 1 696.16,342.86A3,3 0 1 1 702.16,342.86Z" style="fill:#FFB66E" />
<path d="M711.64,324.08A3,3 0 1 1 705.64,324.08A3,3 0 1 1 711.64,324.08Z" style="fill:#FFB66E" />
<path d="M721.13,303.92A3,3 0 1 1 715.13,303.92A3,3 0 1 1 721.13,303.92Z" style="fill:#FFB66E" />
<path d="M730.62,289.58A3,3 0 1 1 724.62,289.58A3,3 0 1 1 730.62,289.58Z" style="fill:#FFB66E" />
<path d="M740.11,276.85A3,3 0 1 1 734.11,276.85A3,3 0 1 1 740.11,276.85Z" style="fill:#FFB66E" />
<path d="M749.6,258.68A3,3 0 1 1 743.6,258.68A3,3 0 1 1 749.6,258.68Z" style="fill:#FFB66E" />
<path d="M759.09,242.05A3,3 0 1 1 753.09,242.05A3,3 0 1 1 759.09,242.05Z" style="fill:#FFB66E" />
<path d="M768.58,231.1A3,3 0 1 1 762.58,231.1A3,3 0 1 1 768.58,231.1Z" style="fill:#FFB66E" />
<path d="M778.06,211.79A3,3 0 1 1 772.06,211.79A3,3 0 1 1 778.06,211.79Z" style="fill:#FFB66E" />
<path d="M787.55,207.86A3,3 0 1 1 781.55,207.86A3,3 0 1 1 787.55,207.86Z" style="fill:#FFB66E" />
<path d="M797.04,202.09A3,3 0 1 1 791.04,202.09A3,3 0 1 1 797.04,202.09Z" style="fill:#FFB66E" />
<path d="M806.53,194.58A3,3 0 1 1 800.53,194.58A3,3 0 1 1 806.53,194.58Z" style="fill:#FFB66E" />
<path d="M816.02,182.74A3,3 0 1 1 810.02,182.74A3,3 0 1 1 816.02,182.74Z" style="fill:#FFB66E" />
<path d="M825.51,181.26A3,3 0 1 1 819.51,181.26A3,3 0 1 1 825.51,181.26Z" style="fill:#FFB66E" />
<path d="M835,173.56A3,3 0 1 1 829,173.56A3,3 0 1 1 835,173.56Z" style="fill:#FFB66E" />
<path d="M844.48,165.9A3,3 0 1 1 838.48,165.9A3,3 0 1 1 844.48,165.9Z" style="fill:#FFB66E" />
<path d="M853.97,162.34A3,3 0 1 1 847.97,162.34A3,3 0 1 1 853.97,162.34Z" style="fill:#FFB66E" />
<path d="M863.46,159.81A3,3 0 1 1 857.46,159.81A3,3 0 1 1 863.46,159.81Z" style="fill:#FFB66E" />
<path d="M872.95,157.37A3,3 0 1 1 866.95,157.37A3,3 0 1 1 872.95,157.37Z" style="fill:#FFB66E" />
<path d="M882.44,154.25A3,3 0 1 1 876.44,154.25A3,3 0 1 1 882.44,154.25Z" style="fill:#FFB66E" />
<path d="M891.93,148.94A3,3 0 1 1 885.93,148.94A3,3 0 1 1 891.93,148.94Z" style="fill:#FFB66E" />
<path d="M901.42,145.9A3,3 0 1 1 895.42,145.9A3,3 0 1 1 901.42,145.9Z" style="fill:#FFB66E" />
<path d="M910.9,153.97A3,3 0 1 1 904.9,153.97A3,3 0 1 1 910.9,153.97Z" style="fill:#FFB66E" />
<path d="M920.39,141.44A3,3 0 1 1 914.39,141.44A3,3 0 1 1 920.39,141.44Z" style="fill:#FFB66E" />
<path d="M929.88,143.7A3,3 0 1 1 923.88,143.7A3,3 0 1 1 929.88,143.7Z" style="fill:#FFB66E" />
<path d="M939.37,139.6A3,3 0 1 1 933.37,139.6A3,3 0 1 1 939.37,139.6Z" style="fill:#FFB66E" />
<path d="M948.86,137.21A3,3 0 1 1 942.86,137.21A3,3 0 1 1 948.86,137.21Z" style="fill:#FFB66E" />
<path d="M958.35,139.03A3,3 0 1 1 952.35,139.03A3,3 0 1 1 958.35,139.03Z" style="fill:#FFB66E" />
<path d="M967.84,134.89A3,3 0 1 1 961.84,134.89A3,3 0 1 1 967.84,134.89Z" style="fill:#FFB66E" />
<path d="M977.32,137.92A3,3 0 1 1 971.32,137.92A3,3 0 1 1 977.32,137.92Z" style="fill:#FFB66E" />
<path d="M986.81,133.2A3,3 0 1 1 980.81,133.2A3,3 0 1 1 986.81,133.2Z" style="fill:#FFB66E" />
<path d="M996.3,129.31A3,3 0 1 1 990.3,129.31A3,3 0 1 1 996.3,129.31Z" style="fill:#FFB66E" />
<path d="M1005.8,130.97A3,3 0 1 1 999.79,130.97A3,3 0 1 1 1005.8,130.97Z" style="fill:#FFB66E" />
<path d="M1015.3,128.86A3,3 0 1 1 1009.3,128.86A3,3 0 1 1 1015.3,128.86Z" style="fill:#FFB66E" />
<path d="M1024.8,125.68A3,3 0 1 1 1018.8,125.68A3,3 0 1 1 1024.8,125.68Z" style="fill:#FFB66E" />
<path d="M1034.3,127.53A3,3 0 1 1 1028.3,127.53A3,3 0 1 1 1034.3,127.53Z" style="fill:#FFB66E" />
<path d="M1043.7,121.51A3,3 0 1 1 1037.7,121.51A3,3 0 1 1 1043.7,121.51Z" style="fill:#FFB66E" />
<path d="M1053.2,123.71A3,3 0 1 1 1047.2,123.71A3,3 0 1 1 1053.2,123.71Z" style="fill:#FFB66E" />
<path d="M106.12,962.84L1055,962.84" style="fill:none;stroke:#000000" />
<path d="M1055,104.32L1055,962.84" style="fill:none;stroke:#000000" />
<text x="191.12" y="-899.95" transform="scale(1, -1)"
	style="font-family:Helvetica;font-weight:normal;font-style:normal;font-size:36px">Pump</text>
<path d="M162.12,867.02A6,6 0 1 1 150.12,867.02A6,6 0 1 1 162.12,867.02Z" style="fill:#1FD3AC" />
<text x="191.12" y="-858.54" transform="scale(1, -1)"
	style="font-family:Helvetica;font-weight:normal;font-style:normal;font-size:36px">0 mW</text>
<path d="M162.12,825.61A6,6 0 1 1 150.12,825.61A6,6 0 1 1 162.12,825.61Z" style="fill:#FF7AB4" />
<text x="191.12" y="-817.13" transform="scale(1, -1)"
	style="font-family:Helvetica;font-weight:normal;font-style:normal;font-size:36px">55 mW</text>
<path d="M162.12,784.2A6,6 0 1 1 150.12,784.2A6,6 0 1 1 162.12,784.2Z" style="fill:#7A9CFF" />
<text x="191.12" y="-775.72" transform="scale(1, -1)"
	style="font-family:Helvetica;font-weight:normal;font-style:normal;font-size:36px">110 mW</text>
<path d="M162.12,742.79A6,6 0 1 1 150.12,742.79A6,6 0 1 1 162.12,742.79Z" style="fill:#FFB66E" />
<text x="191.12" y="-734.3" transform="scale(1, -1)"
	style="font-family:Helvetica;font-weight:normal;font-style:normal;font-size:36px">165 mW</text>
</g>
</svg>
