<?xml version="1.0"?>
<!-- Generated by SVGo and Plotinum VG -->
<svg width="1080pt" height="1080pt" viewBox="0 0 1080 1080"
	xmlns="http://www.w3.org/2000/svg"
	xmlns:xlink="http://www.w3.org/1999/xlink">
<g transform="scale(1, -1) translate(0, -1080)">
<path d="M0,0L1080,0L1080,1080L0,1080Z" style="fill:#-8000000000000000-8000000000000000-8000000000000000;fill-opacity:0" />
<text x="205.11" y="-1039.5" transform="scale(1, -1)"
	style="font-family:Helvetica;font-weight:normal;font-style:normal;font-size:50px">1 cm pak1chip3-20um4 CABS</text>
<text x="475.68" y="-11.039" transform="scale(1, -1)"
	style="font-family:Helvetica;font-weight:normal;font-style:normal;font-size:36px">Frequency (GHz)</text>
<text x="195.64" y="-71.258" transform="scale(1, -1)"
	style="font-family:Helvetica;font-weight:normal;font-style:normal;font-size:36px">10.65</text>
<text x="382.15" y="-71.258" transform="scale(1, -1)"
	style="font-family:Helvetica;font-weight:normal;font-style:normal;font-size:36px">10.75</text>
<text x="568.67" y="-71.258" transform="scale(1, -1)"
	style="font-family:Helvetica;font-weight:normal;font-style:normal;font-size:36px">10.85</text>
<text x="755.18" y="-71.258" transform="scale(1, -1)"
	style="font-family:Helvetica;font-weight:normal;font-style:normal;font-size:36px">10.95</text>
<path d="M147.43,112.44L147.43,108.44" style="fill:none;stroke:#000000;stroke-width:1.5" />
<path d="M240.68,116.44L240.68,108.44" style="fill:none;stroke:#000000;stroke-width:1.5" />
<path d="M333.94,112.44L333.94,108.44" style="fill:none;stroke:#000000;stroke-width:1.5" />
<path d="M427.2,116.44L427.2,108.44" style="fill:none;stroke:#000000;stroke-width:1.5" />
<path d="M520.46,112.44L520.46,108.44" style="fill:none;stroke:#000000;stroke-width:1.5" />
<path d="M613.71,116.44L613.71,108.44" style="fill:none;stroke:#000000;stroke-width:1.5" />
<path d="M706.97,112.44L706.97,108.44" style="fill:none;stroke:#000000;stroke-width:1.5" />
<path d="M800.23,116.44L800.23,108.44" style="fill:none;stroke:#000000;stroke-width:1.5" />
<path d="M893.49,112.44L893.49,108.44" style="fill:none;stroke:#000000;stroke-width:1.5" />
<path d="M147.43,108.44L1080,108.44" style="fill:none;stroke:#000000;stroke-width:1.5" />
<g transform="rotate(90)">
<text x="371.74" y="29.18" transform="scale(1, -1)"
	style="font-family:Helvetica;font-weight:normal;font-style:normal;font-size:36px">Spectral Density (μV)</text>
</g>
<text x="107.89" y="-101.12" transform="scale(1, -1)"
	style="font-family:Helvetica;font-weight:normal;font-style:normal;font-size:36px">0</text>
<text x="67.848" y="-317.1" transform="scale(1, -1)"
	style="font-family:Helvetica;font-weight:normal;font-style:normal;font-size:36px">250</text>
<text x="67.848" y="-533.09" transform="scale(1, -1)"
	style="font-family:Helvetica;font-weight:normal;font-style:normal;font-size:36px">500</text>
<text x="67.848" y="-749.08" transform="scale(1, -1)"
	style="font-family:Helvetica;font-weight:normal;font-style:normal;font-size:36px">750</text>
<path d="M153.91,110.19L145.91,110.19" style="fill:none;stroke:#000000;stroke-width:1.5" />
<path d="M149.91,218.18L145.91,218.18" style="fill:none;stroke:#000000;stroke-width:1.5" />
<path d="M153.91,326.17L145.91,326.17" style="fill:none;stroke:#000000;stroke-width:1.5" />
<path d="M149.91,434.17L145.91,434.17" style="fill:none;stroke:#000000;stroke-width:1.5" />
<path d="M153.91,542.16L145.91,542.16" style="fill:none;stroke:#000000;stroke-width:1.5" />
<path d="M149.91,650.16L145.91,650.16" style="fill:none;stroke:#000000;stroke-width:1.5" />
<path d="M153.91,758.15L145.91,758.15" style="fill:none;stroke:#000000;stroke-width:1.5" />
<path d="M149.91,866.15L145.91,866.15" style="fill:none;stroke:#000000;stroke-width:1.5" />
<path d="M145.91,110.19L145.91,974.14" style="fill:none;stroke:#000000;stroke-width:1.5" />
<path d="M151.16,121.04L151.16,122.83" style="fill:none;stroke:#7A2968" />
<path d="M148.66,121.04L153.66,121.04" style="fill:none;stroke:#7A2968" />
<path d="M148.66,122.83L153.66,122.83" style="fill:none;stroke:#7A2968" />
<path d="M154.9,120.08L154.9,121.49" style="fill:none;stroke:#7A2968" />
<path d="M152.4,120.08L157.4,120.08" style="fill:none;stroke:#7A2968" />
<path d="M152.4,121.49L157.4,121.49" style="fill:none;stroke:#7A2968" />
<path d="M158.64,120.37L158.64,122.74" style="fill:none;stroke:#7A2968" />
<path d="M156.14,120.37L161.14,120.37" style="fill:none;stroke:#7A2968" />
<path d="M156.14,122.74L161.14,122.74" style="fill:none;stroke:#7A2968" />
<path d="M162.38,121.08L162.38,123.26" style="fill:none;stroke:#7A2968" />
<path d="M159.88,121.08L164.88,121.08" style="fill:none;stroke:#7A2968" />
<path d="M159.88,123.26L164.88,123.26" style="fill:none;stroke:#7A2968" />
<path d="M166.12,120.62L166.12,123.31" style="fill:none;stroke:#7A2968" />
<path d="M163.62,120.62L168.62,120.62" style="fill:none;stroke:#7A2968" />
<path d="M163.62,123.31L168.62,123.31" style="fill:none;stroke:#7A2968" />
<path d="M169.86,120.99L169.86,123.71" style="fill:none;stroke:#7A2968" />
<path d="M167.36,120.99L172.36,120.99" style="fill:none;stroke:#7A2968" />
<path d="M167.36,123.71L172.36,123.71" style="fill:none;stroke:#7A2968" />
<path d="M173.6,120.67L173.6,123.36" style="fill:none;stroke:#7A2968" />
<path d="M171.1,120.67L176.1,120.67" style="fill:none;stroke:#7A2968" />
<path d="M171.1,123.36L176.1,123.36" style="fill:none;stroke:#7A2968" />
<path d="M177.34,122.5L177.34,124.73" style="fill:none;stroke:#7A2968" />
<path d="M174.84,122.5L179.84,122.5" style="fill:none;stroke:#7A2968" />
<path d="M174.84,124.73L179.84,124.73" style="fill:none;stroke:#7A2968" />
<path d="M181.07,122.04L181.07,125.86" style="fill:none;stroke:#7A2968" />
<path d="M178.57,122.04L183.57,122.04" style="fill:none;stroke:#7A2968" />
<path d="M178.57,125.86L183.57,125.86" style="fill:none;stroke:#7A2968" />
<path d="M184.81,122.14L184.81,126.29" style="fill:none;stroke:#7A2968" />
<path d="M182.31,122.14L187.31,122.14" style="fill:none;stroke:#7A2968" />
<path d="M182.31,126.29L187.31,126.29" style="fill:none;stroke:#7A2968" />
<path d="M188.55,121.89L188.55,125.56" style="fill:none;stroke:#7A2968" />
<path d="M186.05,121.89L191.05,121.89" style="fill:none;stroke:#7A2968" />
<path d="M186.05,125.56L191.05,125.56" style="fill:none;stroke:#7A2968" />
<path d="M192.29,121.89L192.29,125.53" style="fill:none;stroke:#7A2968" />
<path d="M189.79,121.89L194.79,121.89" style="fill:none;stroke:#7A2968" />
<path d="M189.79,125.53L194.79,125.53" style="fill:none;stroke:#7A2968" />
<path d="M196.03,122.46L196.03,126.46" style="fill:none;stroke:#7A2968" />
<path d="M193.53,122.46L198.53,122.46" style="fill:none;stroke:#7A2968" />
<path d="M193.53,126.46L198.53,126.46" style="fill:none;stroke:#7A2968" />
<path d="M199.77,125.33L199.77,128.07" style="fill:none;stroke:#7A2968" />
<path d="M197.27,125.33L202.27,125.33" style="fill:none;stroke:#7A2968" />
<path d="M197.27,128.07L202.27,128.07" style="fill:none;stroke:#7A2968" />
<path d="M203.51,125.39L203.51,126.46" style="fill:none;stroke:#7A2968" />
<path d="M201.01,125.39L206.01,125.39" style="fill:none;stroke:#7A2968" />
<path d="M201.01,126.46L206.01,126.46" style="fill:none;stroke:#7A2968" />
<path d="M207.25,123.71L207.25,128.18" style="fill:none;stroke:#7A2968" />
<path d="M204.75,123.71L209.75,123.71" style="fill:none;stroke:#7A2968" />
<path d="M204.75,128.18L209.75,128.18" style="fill:none;stroke:#7A2968" />
<path d="M210.99,122.4L210.99,126.61" style="fill:none;stroke:#7A2968" />
<path d="M208.49,122.4L213.49,122.4" style="fill:none;stroke:#7A2968" />
<path d="M208.49,126.61L213.49,126.61" style="fill:none;stroke:#7A2968" />
<path d="M214.72,120.93L214.72,125.28" style="fill:none;stroke:#7A2968" />
<path d="M212.22,120.93L217.22,120.93" style="fill:none;stroke:#7A2968" />
<path d="M212.22,125.28L217.22,125.28" style="fill:none;stroke:#7A2968" />
<path d="M218.46,121.26L218.46,127.63" style="fill:none;stroke:#7A2968" />
<path d="M215.96,121.26L220.96,121.26" style="fill:none;stroke:#7A2968" />
<path d="M215.96,127.63L220.96,127.63" style="fill:none;stroke:#7A2968" />
<path d="M222.2,121.11L222.2,128.18" style="fill:none;stroke:#7A2968" />
<path d="M219.7,121.11L224.7,121.11" style="fill:none;stroke:#7A2968" />
<path d="M219.7,128.18L224.7,128.18" style="fill:none;stroke:#7A2968" />
<path d="M225.94,121.51L225.94,125.82" style="fill:none;stroke:#7A2968" />
<path d="M223.44,121.51L228.44,121.51" style="fill:none;stroke:#7A2968" />
<path d="M223.44,125.82L228.44,125.82" style="fill:none;stroke:#7A2968" />
<path d="M229.68,122.21L229.68,128.42" style="fill:none;stroke:#7A2968" />
<path d="M227.18,122.21L232.18,122.21" style="fill:none;stroke:#7A2968" />
<path d="M227.18,128.42L232.18,128.42" style="fill:none;stroke:#7A2968" />
<path d="M233.42,123.18L233.42,129.9" style="fill:none;stroke:#7A2968" />
<path d="M230.92,123.18L235.92,123.18" style="fill:none;stroke:#7A2968" />
<path d="M230.92,129.9L235.92,129.9" style="fill:none;stroke:#7A2968" />
<path d="M237.16,123.86L237.16,130.58" style="fill:none;stroke:#7A2968" />
<path d="M234.66,123.86L239.66,123.86" style="fill:none;stroke:#7A2968" />
<path d="M234.66,130.58L239.66,130.58" style="fill:none;stroke:#7A2968" />
<path d="M240.9,125.43L240.9,131.5" style="fill:none;stroke:#7A2968" />
<path d="M238.4,125.43L243.4,125.43" style="fill:none;stroke:#7A2968" />
<path d="M238.4,131.5L243.4,131.5" style="fill:none;stroke:#7A2968" />
<path d="M244.63,125L244.63,131.5" style="fill:none;stroke:#7A2968" />
<path d="M242.13,125L247.13,125" style="fill:none;stroke:#7A2968" />
<path d="M242.13,131.5L247.13,131.5" style="fill:none;stroke:#7A2968" />
<path d="M248.37,126.09L248.37,132.61" style="fill:none;stroke:#7A2968" />
<path d="M245.87,126.09L250.87,126.09" style="fill:none;stroke:#7A2968" />
<path d="M245.87,132.61L250.87,132.61" style="fill:none;stroke:#7A2968" />
<path d="M252.11,125.84L252.11,133.78" style="fill:none;stroke:#7A2968" />
<path d="M249.61,125.84L254.61,125.84" style="fill:none;stroke:#7A2968" />
<path d="M249.61,133.78L254.61,133.78" style="fill:none;stroke:#7A2968" />
<path d="M255.85,127.03L255.85,135.49" style="fill:none;stroke:#7A2968" />
<path d="M253.35,127.03L258.35,127.03" style="fill:none;stroke:#7A2968" />
<path d="M253.35,135.49L258.35,135.49" style="fill:none;stroke:#7A2968" />
<path d="M259.59,128.56L259.59,138.37" style="fill:none;stroke:#7A2968" />
<path d="M257.09,128.56L262.09,128.56" style="fill:none;stroke:#7A2968" />
<path d="M257.09,138.37L262.09,138.37" style="fill:none;stroke:#7A2968" />
<path d="M263.33,129.27L263.33,137.64" style="fill:none;stroke:#7A2968" />
<path d="M260.83,129.27L265.83,129.27" style="fill:none;stroke:#7A2968" />
<path d="M260.83,137.64L265.83,137.64" style="fill:none;stroke:#7A2968" />
<path d="M267.07,129.91L267.07,135.07" style="fill:none;stroke:#7A2968" />
<path d="M264.57,129.91L269.57,129.91" style="fill:none;stroke:#7A2968" />
<path d="M264.57,135.07L269.57,135.07" style="fill:none;stroke:#7A2968" />
<path d="M270.81,130.16L270.81,134.24" style="fill:none;stroke:#7A2968" />
<path d="M268.31,130.16L273.31,130.16" style="fill:none;stroke:#7A2968" />
<path d="M268.31,134.24L273.31,134.24" style="fill:none;stroke:#7A2968" />
<path d="M274.55,130.73L274.55,135.42" style="fill:none;stroke:#7A2968" />
<path d="M272.05,130.73L277.05,130.73" style="fill:none;stroke:#7A2968" />
<path d="M272.05,135.42L277.05,135.42" style="fill:none;stroke:#7A2968" />
<path d="M278.28,130.65L278.28,134.37" style="fill:none;stroke:#7A2968" />
<path d="M275.78,130.65L280.78,130.65" style="fill:none;stroke:#7A2968" />
<path d="M275.78,134.37L280.78,134.37" style="fill:none;stroke:#7A2968" />
<path d="M282.02,129.1L282.02,133.66" style="fill:none;stroke:#7A2968" />
<path d="M279.52,129.1L284.52,129.1" style="fill:none;stroke:#7A2968" />
<path d="M279.52,133.66L284.52,133.66" style="fill:none;stroke:#7A2968" />
<path d="M285.76,128.92L285.76,134.59" style="fill:none;stroke:#7A2968" />
<path d="M283.26,128.92L288.26,128.92" style="fill:none;stroke:#7A2968" />
<path d="M283.26,134.59L288.26,134.59" style="fill:none;stroke:#7A2968" />
<path d="M289.5,131.07L289.5,135.9" style="fill:none;stroke:#7A2968" />
<path d="M287,131.07L292,131.07" style="fill:none;stroke:#7A2968" />
<path d="M287,135.9L292,135.9" style="fill:none;stroke:#7A2968" />
<path d="M293.24,135.52L293.24,137.1" style="fill:none;stroke:#7A2968" />
<path d="M290.74,135.52L295.74,135.52" style="fill:none;stroke:#7A2968" />
<path d="M290.74,137.1L295.74,137.1" style="fill:none;stroke:#7A2968" />
<path d="M296.98,135.94L296.98,136.76" style="fill:none;stroke:#7A2968" />
<path d="M294.48,135.94L299.48,135.94" style="fill:none;stroke:#7A2968" />
<path d="M294.48,136.76L299.48,136.76" style="fill:none;stroke:#7A2968" />
<path d="M300.72,134.19L300.72,136.95" style="fill:none;stroke:#7A2968" />
<path d="M298.22,134.19L303.22,134.19" style="fill:none;stroke:#7A2968" />
<path d="M298.22,136.95L303.22,136.95" style="fill:none;stroke:#7A2968" />
<path d="M304.46,133.2L304.46,136.82" style="fill:none;stroke:#7A2968" />
<path d="M301.96,133.2L306.96,133.2" style="fill:none;stroke:#7A2968" />
<path d="M301.96,136.82L306.96,136.82" style="fill:none;stroke:#7A2968" />
<path d="M308.19,133.67L308.19,135.84" style="fill:none;stroke:#7A2968" />
<path d="M305.69,133.67L310.69,133.67" style="fill:none;stroke:#7A2968" />
<path d="M305.69,135.84L310.69,135.84" style="fill:none;stroke:#7A2968" />
<path d="M311.93,132.23L311.93,136.46" style="fill:none;stroke:#7A2968" />
<path d="M309.43,132.23L314.43,132.23" style="fill:none;stroke:#7A2968" />
<path d="M309.43,136.46L314.43,136.46" style="fill:none;stroke:#7A2968" />
<path d="M315.67,132.79L315.67,135.07" style="fill:none;stroke:#7A2968" />
<path d="M313.17,132.79L318.17,132.79" style="fill:none;stroke:#7A2968" />
<path d="M313.17,135.07L318.17,135.07" style="fill:none;stroke:#7A2968" />
<path d="M319.41,133.38L319.41,133.6" style="fill:none;stroke:#7A2968" />
<path d="M316.91,133.38L321.91,133.38" style="fill:none;stroke:#7A2968" />
<path d="M316.91,133.6L321.91,133.6" style="fill:none;stroke:#7A2968" />
<path d="M323.15,135.01L323.15,135.73" style="fill:none;stroke:#7A2968" />
<path d="M320.65,135.01L325.65,135.01" style="fill:none;stroke:#7A2968" />
<path d="M320.65,135.73L325.65,135.73" style="fill:none;stroke:#7A2968" />
<path d="M326.89,134.82L326.89,138.99" style="fill:none;stroke:#7A2968" />
<path d="M324.39,134.82L329.39,134.82" style="fill:none;stroke:#7A2968" />
<path d="M324.39,138.99L329.39,138.99" style="fill:none;stroke:#7A2968" />
<path d="M330.63,134.77L330.63,140.12" style="fill:none;stroke:#7A2968" />
<path d="M328.13,134.77L333.13,134.77" style="fill:none;stroke:#7A2968" />
<path d="M328.13,140.12L333.13,140.12" style="fill:none;stroke:#7A2968" />
<path d="M334.37,134.96L334.37,139.67" style="fill:none;stroke:#7A2968" />
<path d="M331.87,134.96L336.87,134.96" style="fill:none;stroke:#7A2968" />
<path d="M331.87,139.67L336.87,139.67" style="fill:none;stroke:#7A2968" />
<path d="M338.1,136.46L338.1,142.17" style="fill:none;stroke:#7A2968" />
<path d="M335.6,136.46L340.6,136.46" style="fill:none;stroke:#7A2968" />
<path d="M335.6,142.17L340.6,142.17" style="fill:none;stroke:#7A2968" />
<path d="M341.84,139.07L341.84,145.56" style="fill:none;stroke:#7A2968" />
<path d="M339.34,139.07L344.34,139.07" style="fill:none;stroke:#7A2968" />
<path d="M339.34,145.56L344.34,145.56" style="fill:none;stroke:#7A2968" />
<path d="M345.58,138.4L345.58,144.26" style="fill:none;stroke:#7A2968" />
<path d="M343.08,138.4L348.08,138.4" style="fill:none;stroke:#7A2968" />
<path d="M343.08,144.26L348.08,144.26" style="fill:none;stroke:#7A2968" />
<path d="M349.32,140.23L349.32,145.12" style="fill:none;stroke:#7A2968" />
<path d="M346.82,140.23L351.82,140.23" style="fill:none;stroke:#7A2968" />
<path d="M346.82,145.12L351.82,145.12" style="fill:none;stroke:#7A2968" />
<path d="M353.06,143.71L353.06,149.37" style="fill:none;stroke:#7A2968" />
<path d="M350.56,143.71L355.56,143.71" style="fill:none;stroke:#7A2968" />
<path d="M350.56,149.37L355.56,149.37" style="fill:none;stroke:#7A2968" />
<path d="M356.8,146.57L356.8,153.65" style="fill:none;stroke:#7A2968" />
<path d="M354.3,146.57L359.3,146.57" style="fill:none;stroke:#7A2968" />
<path d="M354.3,153.65L359.3,153.65" style="fill:none;stroke:#7A2968" />
<path d="M360.54,149.23L360.54,156.35" style="fill:none;stroke:#7A2968" />
<path d="M358.04,149.23L363.04,149.23" style="fill:none;stroke:#7A2968" />
<path d="M358.04,156.35L363.04,156.35" style="fill:none;stroke:#7A2968" />
<path d="M364.28,149.39L364.28,158.76" style="fill:none;stroke:#7A2968" />
<path d="M361.78,149.39L366.78,149.39" style="fill:none;stroke:#7A2968" />
<path d="M361.78,158.76L366.78,158.76" style="fill:none;stroke:#7A2968" />
<path d="M368.02,152.18L368.02,160.68" style="fill:none;stroke:#7A2968" />
<path d="M365.52,152.18L370.52,152.18" style="fill:none;stroke:#7A2968" />
<path d="M365.52,160.68L370.52,160.68" style="fill:none;stroke:#7A2968" />
<path d="M371.75,154.41L371.75,160.3" style="fill:none;stroke:#7A2968" />
<path d="M369.25,154.41L374.25,154.41" style="fill:none;stroke:#7A2968" />
<path d="M369.25,160.3L374.25,160.3" style="fill:none;stroke:#7A2968" />
<path d="M375.49,153.06L375.49,160.85" style="fill:none;stroke:#7A2968" />
<path d="M372.99,153.06L377.99,153.06" style="fill:none;stroke:#7A2968" />
<path d="M372.99,160.85L377.99,160.85" style="fill:none;stroke:#7A2968" />
<path d="M379.23,151.18L379.23,160.41" style="fill:none;stroke:#7A2968" />
<path d="M376.73,151.18L381.73,151.18" style="fill:none;stroke:#7A2968" />
<path d="M376.73,160.41L381.73,160.41" style="fill:none;stroke:#7A2968" />
<path d="M382.97,153.65L382.97,162.99" style="fill:none;stroke:#7A2968" />
<path d="M380.47,153.65L385.47,153.65" style="fill:none;stroke:#7A2968" />
<path d="M380.47,162.99L385.47,162.99" style="fill:none;stroke:#7A2968" />
<path d="M386.71,157.28L386.71,166.21" style="fill:none;stroke:#7A2968" />
<path d="M384.21,157.28L389.21,157.28" style="fill:none;stroke:#7A2968" />
<path d="M384.21,166.21L389.21,166.21" style="fill:none;stroke:#7A2968" />
<path d="M390.45,156.65L390.45,170.09" style="fill:none;stroke:#7A2968" />
<path d="M387.95,156.65L392.95,156.65" style="fill:none;stroke:#7A2968" />
<path d="M387.95,170.09L392.95,170.09" style="fill:none;stroke:#7A2968" />
<path d="M394.19,156.83L394.19,170.06" style="fill:none;stroke:#7A2968" />
<path d="M391.69,156.83L396.69,156.83" style="fill:none;stroke:#7A2968" />
<path d="M391.69,170.06L396.69,170.06" style="fill:none;stroke:#7A2968" />
<path d="M397.93,160.74L397.93,173.34" style="fill:none;stroke:#7A2968" />
<path d="M395.43,160.74L400.43,160.74" style="fill:none;stroke:#7A2968" />
<path d="M395.43,173.34L400.43,173.34" style="fill:none;stroke:#7A2968" />
<path d="M401.66,163.92L401.66,178.74" style="fill:none;stroke:#7A2968" />
<path d="M399.16,163.92L404.16,163.92" style="fill:none;stroke:#7A2968" />
<path d="M399.16,178.74L404.16,178.74" style="fill:none;stroke:#7A2968" />
<path d="M405.4,170.48L405.4,180.88" style="fill:none;stroke:#7A2968" />
<path d="M402.9,170.48L407.9,170.48" style="fill:none;stroke:#7A2968" />
<path d="M402.9,180.88L407.9,180.88" style="fill:none;stroke:#7A2968" />
<path d="M409.14,172.82L409.14,183.99" style="fill:none;stroke:#7A2968" />
<path d="M406.64,172.82L411.64,172.82" style="fill:none;stroke:#7A2968" />
<path d="M406.64,183.99L411.64,183.99" style="fill:none;stroke:#7A2968" />
<path d="M412.88,175.88L412.88,190.64" style="fill:none;stroke:#7A2968" />
<path d="M410.38,175.88L415.38,175.88" style="fill:none;stroke:#7A2968" />
<path d="M410.38,190.64L415.38,190.64" style="fill:none;stroke:#7A2968" />
<path d="M416.62,177.79L416.62,193.26" style="fill:none;stroke:#7A2968" />
<path d="M414.12,177.79L419.12,177.79" style="fill:none;stroke:#7A2968" />
<path d="M414.12,193.26L419.12,193.26" style="fill:none;stroke:#7A2968" />
<path d="M420.36,182.11L420.36,195.47" style="fill:none;stroke:#7A2968" />
<path d="M417.86,182.11L422.86,182.11" style="fill:none;stroke:#7A2968" />
<path d="M417.86,195.47L422.86,195.47" style="fill:none;stroke:#7A2968" />
<path d="M424.1,186.15L424.1,199.64" style="fill:none;stroke:#7A2968" />
<path d="M421.6,186.15L426.6,186.15" style="fill:none;stroke:#7A2968" />
<path d="M421.6,199.64L426.6,199.64" style="fill:none;stroke:#7A2968" />
<path d="M427.84,189.29L427.84,205.25" style="fill:none;stroke:#7A2968" />
<path d="M425.34,189.29L430.34,189.29" style="fill:none;stroke:#7A2968" />
<path d="M425.34,205.25L430.34,205.25" style="fill:none;stroke:#7A2968" />
<path d="M431.58,190.38L431.58,207.03" style="fill:none;stroke:#7A2968" />
<path d="M429.08,190.38L434.08,190.38" style="fill:none;stroke:#7A2968" />
<path d="M429.08,207.03L434.08,207.03" style="fill:none;stroke:#7A2968" />
<path d="M435.31,196.24L435.31,213.37" style="fill:none;stroke:#7A2968" />
<path d="M432.81,196.24L437.81,196.24" style="fill:none;stroke:#7A2968" />
<path d="M432.81,213.37L437.81,213.37" style="fill:none;stroke:#7A2968" />
<path d="M439.05,204.63L439.05,221.58" style="fill:none;stroke:#7A2968" />
<path d="M436.55,204.63L441.55,204.63" style="fill:none;stroke:#7A2968" />
<path d="M436.55,221.58L441.55,221.58" style="fill:none;stroke:#7A2968" />
<path d="M442.79,205.58L442.79,229.16" style="fill:none;stroke:#7A2968" />
<path d="M440.29,205.58L445.29,205.58" style="fill:none;stroke:#7A2968" />
<path d="M440.29,229.16L445.29,229.16" style="fill:none;stroke:#7A2968" />
<path d="M446.53,212.69L446.53,232" style="fill:none;stroke:#7A2968" />
<path d="M444.03,212.69L449.03,212.69" style="fill:none;stroke:#7A2968" />
<path d="M444.03,232L449.03,232" style="fill:none;stroke:#7A2968" />
<path d="M450.27,221.2L450.27,249.37" style="fill:none;stroke:#7A2968" />
<path d="M447.77,221.2L452.77,221.2" style="fill:none;stroke:#7A2968" />
<path d="M447.77,249.37L452.77,249.37" style="fill:none;stroke:#7A2968" />
<path d="M454.01,226.46L454.01,253.91" style="fill:none;stroke:#7A2968" />
<path d="M451.51,226.46L456.51,226.46" style="fill:none;stroke:#7A2968" />
<path d="M451.51,253.91L456.51,253.91" style="fill:none;stroke:#7A2968" />
<path d="M457.75,251.51L457.75,280.32" style="fill:none;stroke:#7A2968" />
<path d="M455.25,251.51L460.25,251.51" style="fill:none;stroke:#7A2968" />
<path d="M455.25,280.32L460.25,280.32" style="fill:none;stroke:#7A2968" />
<path d="M461.49,259.01L461.49,288.93" style="fill:none;stroke:#7A2968" />
<path d="M458.99,259.01L463.99,259.01" style="fill:none;stroke:#7A2968" />
<path d="M458.99,288.93L463.99,288.93" style="fill:none;stroke:#7A2968" />
<path d="M465.22,266.18L465.22,296.37" style="fill:none;stroke:#7A2968" />
<path d="M462.72,266.18L467.72,266.18" style="fill:none;stroke:#7A2968" />
<path d="M462.72,296.37L467.72,296.37" style="fill:none;stroke:#7A2968" />
<path d="M468.96,300.77L468.96,326.92" style="fill:none;stroke:#7A2968" />
<path d="M466.46,300.77L471.46,300.77" style="fill:none;stroke:#7A2968" />
<path d="M466.46,326.92L471.46,326.92" style="fill:none;stroke:#7A2968" />
<path d="M472.7,310.75L472.7,337.03" style="fill:none;stroke:#7A2968" />
<path d="M470.2,310.75L475.2,310.75" style="fill:none;stroke:#7A2968" />
<path d="M470.2,337.03L475.2,337.03" style="fill:none;stroke:#7A2968" />
<path d="M476.44,326.93L476.44,354.22" style="fill:none;stroke:#7A2968" />
<path d="M473.94,326.93L478.94,326.93" style="fill:none;stroke:#7A2968" />
<path d="M473.94,354.22L478.94,354.22" style="fill:none;stroke:#7A2968" />
<path d="M480.18,344.87L480.18,369.66" style="fill:none;stroke:#7A2968" />
<path d="M477.68,344.87L482.68,344.87" style="fill:none;stroke:#7A2968" />
<path d="M477.68,369.66L482.68,369.66" style="fill:none;stroke:#7A2968" />
<path d="M483.92,359.1L483.92,361.51" style="fill:none;stroke:#7A2968" />
<path d="M481.42,359.1L486.42,359.1" style="fill:none;stroke:#7A2968" />
<path d="M481.42,361.51L486.42,361.51" style="fill:none;stroke:#7A2968" />
<path d="M487.66,372.46L487.66,384.49" style="fill:none;stroke:#7A2968" />
<path d="M485.16,372.46L490.16,372.46" style="fill:none;stroke:#7A2968" />
<path d="M485.16,384.49L490.16,384.49" style="fill:none;stroke:#7A2968" />
<path d="M491.4,379.63L491.4,400.7" style="fill:none;stroke:#7A2968" />
<path d="M488.9,379.63L493.9,379.63" style="fill:none;stroke:#7A2968" />
<path d="M488.9,400.7L493.9,400.7" style="fill:none;stroke:#7A2968" />
<path d="M495.14,384.18L495.14,425.24" style="fill:none;stroke:#7A2968" />
<path d="M492.64,384.18L497.64,384.18" style="fill:none;stroke:#7A2968" />
<path d="M492.64,425.24L497.64,425.24" style="fill:none;stroke:#7A2968" />
<path d="M498.87,402.15L498.87,446.84" style="fill:none;stroke:#7A2968" />
<path d="M496.37,402.15L501.37,402.15" style="fill:none;stroke:#7A2968" />
<path d="M496.37,446.84L501.37,446.84" style="fill:none;stroke:#7A2968" />
<path d="M502.61,418.97L502.61,459.46" style="fill:none;stroke:#7A2968" />
<path d="M500.11,418.97L505.11,418.97" style="fill:none;stroke:#7A2968" />
<path d="M500.11,459.46L505.11,459.46" style="fill:none;stroke:#7A2968" />
<path d="M506.35,426.18L506.35,476.19" style="fill:none;stroke:#7A2968" />
<path d="M503.85,426.18L508.85,426.18" style="fill:none;stroke:#7A2968" />
<path d="M503.85,476.19L508.85,476.19" style="fill:none;stroke:#7A2968" />
<path d="M510.09,446.71L510.09,490.68" style="fill:none;stroke:#7A2968" />
<path d="M507.59,446.71L512.59,446.71" style="fill:none;stroke:#7A2968" />
<path d="M507.59,490.68L512.59,490.68" style="fill:none;stroke:#7A2968" />
<path d="M513.83,445.6L513.83,488.83" style="fill:none;stroke:#7A2968" />
<path d="M511.33,445.6L516.33,445.6" style="fill:none;stroke:#7A2968" />
<path d="M511.33,488.83L516.33,488.83" style="fill:none;stroke:#7A2968" />
<path d="M517.57,443.05L517.57,517.11" style="fill:none;stroke:#7A2968" />
<path d="M515.07,443.05L520.07,443.05" style="fill:none;stroke:#7A2968" />
<path d="M515.07,517.11L520.07,517.11" style="fill:none;stroke:#7A2968" />
<path d="M521.31,422.41L521.31,508.5" style="fill:none;stroke:#7A2968" />
<path d="M518.81,422.41L523.81,422.41" style="fill:none;stroke:#7A2968" />
<path d="M518.81,508.5L523.81,508.5" style="fill:none;stroke:#7A2968" />
<path d="M525.05,415.27L525.05,517.03" style="fill:none;stroke:#7A2968" />
<path d="M522.55,415.27L527.55,415.27" style="fill:none;stroke:#7A2968" />
<path d="M522.55,517.03L527.55,517.03" style="fill:none;stroke:#7A2968" />
<path d="M528.78,424.99L528.78,534.78" style="fill:none;stroke:#7A2968" />
<path d="M526.28,424.99L531.28,424.99" style="fill:none;stroke:#7A2968" />
<path d="M526.28,534.78L531.28,534.78" style="fill:none;stroke:#7A2968" />
<path d="M532.52,429.83L532.52,524.54" style="fill:none;stroke:#7A2968" />
<path d="M530.02,429.83L535.02,429.83" style="fill:none;stroke:#7A2968" />
<path d="M530.02,524.54L535.02,524.54" style="fill:none;stroke:#7A2968" />
<path d="M536.26,443.53L536.26,528.99" style="fill:none;stroke:#7A2968" />
<path d="M533.76,443.53L538.76,443.53" style="fill:none;stroke:#7A2968" />
<path d="M533.76,528.99L538.76,528.99" style="fill:none;stroke:#7A2968" />
<path d="M540,422.02L540,500.76" style="fill:none;stroke:#7A2968" />
<path d="M537.5,422.02L542.5,422.02" style="fill:none;stroke:#7A2968" />
<path d="M537.5,500.76L542.5,500.76" style="fill:none;stroke:#7A2968" />
<path d="M543.74,370.01L543.74,478.14" style="fill:none;stroke:#7A2968" />
<path d="M541.24,370.01L546.24,370.01" style="fill:none;stroke:#7A2968" />
<path d="M541.24,478.14L546.24,478.14" style="fill:none;stroke:#7A2968" />
<path d="M547.48,386.27L547.48,519.08" style="fill:none;stroke:#7A2968" />
<path d="M544.98,386.27L549.98,386.27" style="fill:none;stroke:#7A2968" />
<path d="M544.98,519.08L549.98,519.08" style="fill:none;stroke:#7A2968" />
<path d="M551.22,382.38L551.22,470.74" style="fill:none;stroke:#7A2968" />
<path d="M548.72,382.38L553.72,382.38" style="fill:none;stroke:#7A2968" />
<path d="M548.72,470.74L553.72,470.74" style="fill:none;stroke:#7A2968" />
<path d="M554.96,381.23L554.96,469.28" style="fill:none;stroke:#7A2968" />
<path d="M552.46,381.23L557.46,381.23" style="fill:none;stroke:#7A2968" />
<path d="M552.46,469.28L557.46,469.28" style="fill:none;stroke:#7A2968" />
<path d="M558.7,375.43L558.7,428.37" style="fill:none;stroke:#7A2968" />
<path d="M556.2,375.43L561.2,375.43" style="fill:none;stroke:#7A2968" />
<path d="M556.2,428.37L561.2,428.37" style="fill:none;stroke:#7A2968" />
<path d="M562.43,322.08L562.43,394.87" style="fill:none;stroke:#7A2968" />
<path d="M559.93,322.08L564.93,322.08" style="fill:none;stroke:#7A2968" />
<path d="M559.93,394.87L564.93,394.87" style="fill:none;stroke:#7A2968" />
<path d="M566.17,274.08L566.17,351.59" style="fill:none;stroke:#7A2968" />
<path d="M563.67,274.08L568.67,274.08" style="fill:none;stroke:#7A2968" />
<path d="M563.67,351.59L568.67,351.59" style="fill:none;stroke:#7A2968" />
<path d="M569.91,239.49L569.91,311.59" style="fill:none;stroke:#7A2968" />
<path d="M567.41,239.49L572.41,239.49" style="fill:none;stroke:#7A2968" />
<path d="M567.41,311.59L572.41,311.59" style="fill:none;stroke:#7A2968" />
<path d="M573.65,219.99L573.65,312.05" style="fill:none;stroke:#7A2968" />
<path d="M571.15,219.99L576.15,219.99" style="fill:none;stroke:#7A2968" />
<path d="M571.15,312.05L576.15,312.05" style="fill:none;stroke:#7A2968" />
<path d="M577.39,214.01L577.39,271.65" style="fill:none;stroke:#7A2968" />
<path d="M574.89,214.01L579.89,214.01" style="fill:none;stroke:#7A2968" />
<path d="M574.89,271.65L579.89,271.65" style="fill:none;stroke:#7A2968" />
<path d="M581.13,231.72L581.13,307.87" style="fill:none;stroke:#7A2968" />
<path d="M578.63,231.72L583.63,231.72" style="fill:none;stroke:#7A2968" />
<path d="M578.63,307.87L583.63,307.87" style="fill:none;stroke:#7A2968" />
<path d="M584.87,283.92L584.87,332.21" style="fill:none;stroke:#7A2968" />
<path d="M582.37,283.92L587.37,283.92" style="fill:none;stroke:#7A2968" />
<path d="M582.37,332.21L587.37,332.21" style="fill:none;stroke:#7A2968" />
<path d="M588.61,277.48L588.61,343.37" style="fill:none;stroke:#7A2968" />
<path d="M586.11,277.48L591.11,277.48" style="fill:none;stroke:#7A2968" />
<path d="M586.11,343.37L591.11,343.37" style="fill:none;stroke:#7A2968" />
<path d="M592.34,305.46L592.34,347.62" style="fill:none;stroke:#7A2968" />
<path d="M589.84,305.46L594.84,305.46" style="fill:none;stroke:#7A2968" />
<path d="M589.84,347.62L594.84,347.62" style="fill:none;stroke:#7A2968" />
<path d="M596.08,306.56L596.08,351.88" style="fill:none;stroke:#7A2968" />
<path d="M593.58,306.56L598.58,306.56" style="fill:none;stroke:#7A2968" />
<path d="M593.58,351.88L598.58,351.88" style="fill:none;stroke:#7A2968" />
<path d="M599.82,305.58L599.82,357.97" style="fill:none;stroke:#7A2968" />
<path d="M597.32,305.58L602.32,305.58" style="fill:none;stroke:#7A2968" />
<path d="M597.32,357.97L602.32,357.97" style="fill:none;stroke:#7A2968" />
<path d="M603.56,337.77L603.56,368.52" style="fill:none;stroke:#7A2968" />
<path d="M601.06,337.77L606.06,337.77" style="fill:none;stroke:#7A2968" />
<path d="M601.06,368.52L606.06,368.52" style="fill:none;stroke:#7A2968" />
<path d="M607.3,348.33L607.3,374.1" style="fill:none;stroke:#7A2968" />
<path d="M604.8,348.33L609.8,348.33" style="fill:none;stroke:#7A2968" />
<path d="M604.8,374.1L609.8,374.1" style="fill:none;stroke:#7A2968" />
<path d="M611.04,335.2L611.04,364.68" style="fill:none;stroke:#7A2968" />
<path d="M608.54,335.2L613.54,335.2" style="fill:none;stroke:#7A2968" />
<path d="M608.54,364.68L613.54,364.68" style="fill:none;stroke:#7A2968" />
<path d="M614.78,337.07L614.78,360.27" style="fill:none;stroke:#7A2968" />
<path d="M612.28,337.07L617.28,337.07" style="fill:none;stroke:#7A2968" />
<path d="M612.28,360.27L617.28,360.27" style="fill:none;stroke:#7A2968" />
<path d="M618.52,323.77L618.52,339.88" style="fill:none;stroke:#7A2968" />
<path d="M616.02,323.77L621.02,323.77" style="fill:none;stroke:#7A2968" />
<path d="M616.02,339.88L621.02,339.88" style="fill:none;stroke:#7A2968" />
<path d="M622.26,313.7L622.26,334.6" style="fill:none;stroke:#7A2968" />
<path d="M619.76,313.7L624.76,313.7" style="fill:none;stroke:#7A2968" />
<path d="M619.76,334.6L624.76,334.6" style="fill:none;stroke:#7A2968" />
<path d="M625.99,324.16L625.99,354.6" style="fill:none;stroke:#7A2968" />
<path d="M623.49,324.16L628.49,324.16" style="fill:none;stroke:#7A2968" />
<path d="M623.49,354.6L628.49,354.6" style="fill:none;stroke:#7A2968" />
<path d="M629.73,343.12L629.73,367.64" style="fill:none;stroke:#7A2968" />
<path d="M627.23,343.12L632.23,343.12" style="fill:none;stroke:#7A2968" />
<path d="M627.23,367.64L632.23,367.64" style="fill:none;stroke:#7A2968" />
<path d="M633.47,378.03L633.47,404.32" style="fill:none;stroke:#7A2968" />
<path d="M630.97,378.03L635.97,378.03" style="fill:none;stroke:#7A2968" />
<path d="M630.97,404.32L635.97,404.32" style="fill:none;stroke:#7A2968" />
<path d="M637.21,378.83L637.21,400.71" style="fill:none;stroke:#7A2968" />
<path d="M634.71,378.83L639.71,378.83" style="fill:none;stroke:#7A2968" />
<path d="M634.71,400.71L639.71,400.71" style="fill:none;stroke:#7A2968" />
<path d="M640.95,365.05L640.95,400.64" style="fill:none;stroke:#7A2968" />
<path d="M638.45,365.05L643.45,365.05" style="fill:none;stroke:#7A2968" />
<path d="M638.45,400.64L643.45,400.64" style="fill:none;stroke:#7A2968" />
<path d="M644.69,353.53L644.69,385" style="fill:none;stroke:#7A2968" />
<path d="M642.19,353.53L647.19,353.53" style="fill:none;stroke:#7A2968" />
<path d="M642.19,385L647.19,385" style="fill:none;stroke:#7A2968" />
<path d="M648.43,339.81L648.43,350.37" style="fill:none;stroke:#7A2968" />
<path d="M645.93,339.81L650.93,339.81" style="fill:none;stroke:#7A2968" />
<path d="M645.93,350.37L650.93,350.37" style="fill:none;stroke:#7A2968" />
<path d="M652.17,305.52L652.17,321.32" style="fill:none;stroke:#7A2968" />
<path d="M649.67,305.52L654.67,305.52" style="fill:none;stroke:#7A2968" />
<path d="M649.67,321.32L654.67,321.32" style="fill:none;stroke:#7A2968" />
<path d="M655.9,276.4L655.9,313.54" style="fill:none;stroke:#7A2968" />
<path d="M653.4,276.4L658.4,276.4" style="fill:none;stroke:#7A2968" />
<path d="M653.4,313.54L658.4,313.54" style="fill:none;stroke:#7A2968" />
<path d="M659.64,266.83L659.64,308.06" style="fill:none;stroke:#7A2968" />
<path d="M657.14,266.83L662.14,266.83" style="fill:none;stroke:#7A2968" />
<path d="M657.14,308.06L662.14,308.06" style="fill:none;stroke:#7A2968" />
<path d="M663.38,261.41L663.38,276.34" style="fill:none;stroke:#7A2968" />
<path d="M660.88,261.41L665.88,261.41" style="fill:none;stroke:#7A2968" />
<path d="M660.88,276.34L665.88,276.34" style="fill:none;stroke:#7A2968" />
<path d="M667.12,247.29L667.12,260.11" style="fill:none;stroke:#7A2968" />
<path d="M664.62,247.29L669.62,247.29" style="fill:none;stroke:#7A2968" />
<path d="M664.62,260.11L669.62,260.11" style="fill:none;stroke:#7A2968" />
<path d="M670.86,230.29L670.86,235.24" style="fill:none;stroke:#7A2968" />
<path d="M668.36,230.29L673.36,230.29" style="fill:none;stroke:#7A2968" />
<path d="M668.36,235.24L673.36,235.24" style="fill:none;stroke:#7A2968" />
<path d="M674.6,214.98L674.6,225.83" style="fill:none;stroke:#7A2968" />
<path d="M672.1,214.98L677.1,214.98" style="fill:none;stroke:#7A2968" />
<path d="M672.1,225.83L677.1,225.83" style="fill:none;stroke:#7A2968" />
<path d="M678.34,205.07L678.34,207.13" style="fill:none;stroke:#7A2968" />
<path d="M675.84,205.07L680.84,205.07" style="fill:none;stroke:#7A2968" />
<path d="M675.84,207.13L680.84,207.13" style="fill:none;stroke:#7A2968" />
<path d="M682.08,196.18L682.08,198.81" style="fill:none;stroke:#7A2968" />
<path d="M679.58,196.18L684.58,196.18" style="fill:none;stroke:#7A2968" />
<path d="M679.58,198.81L684.58,198.81" style="fill:none;stroke:#7A2968" />
<path d="M685.81,186.16L685.81,189.01" style="fill:none;stroke:#7A2968" />
<path d="M683.31,186.16L688.31,186.16" style="fill:none;stroke:#7A2968" />
<path d="M683.31,189.01L688.31,189.01" style="fill:none;stroke:#7A2968" />
<path d="M689.55,182.18L689.55,188.06" style="fill:none;stroke:#7A2968" />
<path d="M687.05,182.18L692.05,182.18" style="fill:none;stroke:#7A2968" />
<path d="M687.05,188.06L692.05,188.06" style="fill:none;stroke:#7A2968" />
<path d="M693.29,174.56L693.29,181.17" style="fill:none;stroke:#7A2968" />
<path d="M690.79,174.56L695.79,174.56" style="fill:none;stroke:#7A2968" />
<path d="M690.79,181.17L695.79,181.17" style="fill:none;stroke:#7A2968" />
<path d="M697.03,174.81L697.03,178.5" style="fill:none;stroke:#7A2968" />
<path d="M694.53,174.81L699.53,174.81" style="fill:none;stroke:#7A2968" />
<path d="M694.53,178.5L699.53,178.5" style="fill:none;stroke:#7A2968" />
<path d="M700.77,167.77L700.77,170.51" style="fill:none;stroke:#7A2968" />
<path d="M698.27,167.77L703.27,167.77" style="fill:none;stroke:#7A2968" />
<path d="M698.27,170.51L703.27,170.51" style="fill:none;stroke:#7A2968" />
<path d="M704.51,164.48L704.51,168.83" style="fill:none;stroke:#7A2968" />
<path d="M702.01,164.48L707.01,164.48" style="fill:none;stroke:#7A2968" />
<path d="M702.01,168.83L707.01,168.83" style="fill:none;stroke:#7A2968" />
<path d="M708.25,158.92L708.25,161.19" style="fill:none;stroke:#7A2968" />
<path d="M705.75,158.92L710.75,158.92" style="fill:none;stroke:#7A2968" />
<path d="M705.75,161.19L710.75,161.19" style="fill:none;stroke:#7A2968" />
<path d="M711.99,159.01L711.99,160.7" style="fill:none;stroke:#7A2968" />
<path d="M709.49,159.01L714.49,159.01" style="fill:none;stroke:#7A2968" />
<path d="M709.49,160.7L714.49,160.7" style="fill:none;stroke:#7A2968" />
<path d="M715.73,148.96L715.73,154.43" style="fill:none;stroke:#7A2968" />
<path d="M713.23,148.96L718.23,148.96" style="fill:none;stroke:#7A2968" />
<path d="M713.23,154.43L718.23,154.43" style="fill:none;stroke:#7A2968" />
<path d="M719.46,144.8L719.46,149.5" style="fill:none;stroke:#7A2968" />
<path d="M716.96,144.8L721.96,144.8" style="fill:none;stroke:#7A2968" />
<path d="M716.96,149.5L721.96,149.5" style="fill:none;stroke:#7A2968" />
<path d="M723.2,144.87L723.2,149.04" style="fill:none;stroke:#7A2968" />
<path d="M720.7,144.87L725.7,144.87" style="fill:none;stroke:#7A2968" />
<path d="M720.7,149.04L725.7,149.04" style="fill:none;stroke:#7A2968" />
<path d="M726.94,141.11L726.94,143.12" style="fill:none;stroke:#7A2968" />
<path d="M724.44,141.11L729.44,141.11" style="fill:none;stroke:#7A2968" />
<path d="M724.44,143.12L729.44,143.12" style="fill:none;stroke:#7A2968" />
<path d="M730.68,140.65L730.68,142.09" style="fill:none;stroke:#7A2968" />
<path d="M728.18,140.65L733.18,140.65" style="fill:none;stroke:#7A2968" />
<path d="M728.18,142.09L733.18,142.09" style="fill:none;stroke:#7A2968" />
<path d="M734.42,136.87L734.42,140.41" style="fill:none;stroke:#7A2968" />
<path d="M731.92,136.87L736.92,136.87" style="fill:none;stroke:#7A2968" />
<path d="M731.92,140.41L736.92,140.41" style="fill:none;stroke:#7A2968" />
<path d="M738.16,134.03L738.16,138.13" style="fill:none;stroke:#7A2968" />
<path d="M735.66,134.03L740.66,134.03" style="fill:none;stroke:#7A2968" />
<path d="M735.66,138.13L740.66,138.13" style="fill:none;stroke:#7A2968" />
<path d="M741.9,130.85L741.9,133.5" style="fill:none;stroke:#7A2968" />
<path d="M739.4,130.85L744.4,130.85" style="fill:none;stroke:#7A2968" />
<path d="M739.4,133.5L744.4,133.5" style="fill:none;stroke:#7A2968" />
<path d="M745.64,131.16L745.64,133.07" style="fill:none;stroke:#7A2968" />
<path d="M743.14,131.16L748.14,131.16" style="fill:none;stroke:#7A2968" />
<path d="M743.14,133.07L748.14,133.07" style="fill:none;stroke:#7A2968" />
<path d="M749.37,130.15L749.37,131.33" style="fill:none;stroke:#7A2968" />
<path d="M746.87,130.15L751.87,130.15" style="fill:none;stroke:#7A2968" />
<path d="M746.87,131.33L751.87,131.33" style="fill:none;stroke:#7A2968" />
<path d="M753.11,125.75L753.11,129.85" style="fill:none;stroke:#7A2968" />
<path d="M750.61,125.75L755.61,125.75" style="fill:none;stroke:#7A2968" />
<path d="M750.61,129.85L755.61,129.85" style="fill:none;stroke:#7A2968" />
<path d="M756.85,124.55L756.85,126.18" style="fill:none;stroke:#7A2968" />
<path d="M754.35,124.55L759.35,124.55" style="fill:none;stroke:#7A2968" />
<path d="M754.35,126.18L759.35,126.18" style="fill:none;stroke:#7A2968" />
<path d="M760.59,123.15L760.59,127.33" style="fill:none;stroke:#7A2968" />
<path d="M758.09,123.15L763.09,123.15" style="fill:none;stroke:#7A2968" />
<path d="M758.09,127.33L763.09,127.33" style="fill:none;stroke:#7A2968" />
<path d="M764.33,122.39L764.33,124.4" style="fill:none;stroke:#7A2968" />
<path d="M761.83,122.39L766.83,122.39" style="fill:none;stroke:#7A2968" />
<path d="M761.83,124.4L766.83,124.4" style="fill:none;stroke:#7A2968" />
<path d="M768.07,120.01L768.07,122.12" style="fill:none;stroke:#7A2968" />
<path d="M765.57,120.01L770.57,120.01" style="fill:none;stroke:#7A2968" />
<path d="M765.57,122.12L770.57,122.12" style="fill:none;stroke:#7A2968" />
<path d="M771.81,118.38L771.81,120.55" style="fill:none;stroke:#7A2968" />
<path d="M769.31,118.38L774.31,118.38" style="fill:none;stroke:#7A2968" />
<path d="M769.31,120.55L774.31,120.55" style="fill:none;stroke:#7A2968" />
<path d="M775.55,117.82L775.55,120.34" style="fill:none;stroke:#7A2968" />
<path d="M773.05,117.82L778.05,117.82" style="fill:none;stroke:#7A2968" />
<path d="M773.05,120.34L778.05,120.34" style="fill:none;stroke:#7A2968" />
<path d="M779.29,120.71L779.29,122.76" style="fill:none;stroke:#7A2968" />
<path d="M776.79,120.71L781.79,120.71" style="fill:none;stroke:#7A2968" />
<path d="M776.79,122.76L781.79,122.76" style="fill:none;stroke:#7A2968" />
<path d="M783.02,118.14L783.02,120.7" style="fill:none;stroke:#7A2968" />
<path d="M780.52,118.14L785.52,118.14" style="fill:none;stroke:#7A2968" />
<path d="M780.52,120.7L785.52,120.7" style="fill:none;stroke:#7A2968" />
<path d="M786.76,117.74L786.76,121.2" style="fill:none;stroke:#7A2968" />
<path d="M784.26,117.74L789.26,117.74" style="fill:none;stroke:#7A2968" />
<path d="M784.26,121.2L789.26,121.2" style="fill:none;stroke:#7A2968" />
<path d="M790.5,114.95L790.5,120.26" style="fill:none;stroke:#7A2968" />
<path d="M788,114.95L793,114.95" style="fill:none;stroke:#7A2968" />
<path d="M788,120.26L793,120.26" style="fill:none;stroke:#7A2968" />
<path d="M794.24,116.88L794.24,121.29" style="fill:none;stroke:#7A2968" />
<path d="M791.74,116.88L796.74,116.88" style="fill:none;stroke:#7A2968" />
<path d="M791.74,121.29L796.74,121.29" style="fill:none;stroke:#7A2968" />
<path d="M797.98,119.73L797.98,125.99" style="fill:none;stroke:#7A2968" />
<path d="M795.48,119.73L800.48,119.73" style="fill:none;stroke:#7A2968" />
<path d="M795.48,125.99L800.48,125.99" style="fill:none;stroke:#7A2968" />
<path d="M801.72,121.97L801.72,127.39" style="fill:none;stroke:#7A2968" />
<path d="M799.22,121.97L804.22,121.97" style="fill:none;stroke:#7A2968" />
<path d="M799.22,127.39L804.22,127.39" style="fill:none;stroke:#7A2968" />
<path d="M805.46,118.78L805.46,122.27" style="fill:none;stroke:#7A2968" />
<path d="M802.96,118.78L807.96,118.78" style="fill:none;stroke:#7A2968" />
<path d="M802.96,122.27L807.96,122.27" style="fill:none;stroke:#7A2968" />
<path d="M809.2,115.17L809.2,122.27" style="fill:none;stroke:#7A2968" />
<path d="M806.7,115.17L811.7,115.17" style="fill:none;stroke:#7A2968" />
<path d="M806.7,122.27L811.7,122.27" style="fill:none;stroke:#7A2968" />
<path d="M812.93,112.73L812.93,118.63" style="fill:none;stroke:#7A2968" />
<path d="M810.43,112.73L815.43,112.73" style="fill:none;stroke:#7A2968" />
<path d="M810.43,118.63L815.43,118.63" style="fill:none;stroke:#7A2968" />
<path d="M816.67,112.29L816.67,116.03" style="fill:none;stroke:#7A2968" />
<path d="M814.17,112.29L819.17,112.29" style="fill:none;stroke:#7A2968" />
<path d="M814.17,116.03L819.17,116.03" style="fill:none;stroke:#7A2968" />
<path d="M820.41,114.17L820.41,114.84" style="fill:none;stroke:#7A2968" />
<path d="M817.91,114.17L822.91,114.17" style="fill:none;stroke:#7A2968" />
<path d="M817.91,114.84L822.91,114.84" style="fill:none;stroke:#7A2968" />
<path d="M824.15,115.3L824.15,117.4" style="fill:none;stroke:#7A2968" />
<path d="M821.65,115.3L826.65,115.3" style="fill:none;stroke:#7A2968" />
<path d="M821.65,117.4L826.65,117.4" style="fill:none;stroke:#7A2968" />
<path d="M827.89,115.66L827.89,120.97" style="fill:none;stroke:#7A2968" />
<path d="M825.39,115.66L830.39,115.66" style="fill:none;stroke:#7A2968" />
<path d="M825.39,120.97L830.39,120.97" style="fill:none;stroke:#7A2968" />
<path d="M831.63,116.06L831.63,122.39" style="fill:none;stroke:#7A2968" />
<path d="M829.13,116.06L834.13,116.06" style="fill:none;stroke:#7A2968" />
<path d="M829.13,122.39L834.13,122.39" style="fill:none;stroke:#7A2968" />
<path d="M835.37,116.2L835.37,124.98" style="fill:none;stroke:#7A2968" />
<path d="M832.87,116.2L837.87,116.2" style="fill:none;stroke:#7A2968" />
<path d="M832.87,124.98L837.87,124.98" style="fill:none;stroke:#7A2968" />
<path d="M839.11,119.12L839.11,127.67" style="fill:none;stroke:#7A2968" />
<path d="M836.61,119.12L841.61,119.12" style="fill:none;stroke:#7A2968" />
<path d="M836.61,127.67L841.61,127.67" style="fill:none;stroke:#7A2968" />
<path d="M842.85,118.82L842.85,128.72" style="fill:none;stroke:#7A2968" />
<path d="M840.35,118.82L845.35,118.82" style="fill:none;stroke:#7A2968" />
<path d="M840.35,128.72L845.35,128.72" style="fill:none;stroke:#7A2968" />
<path d="M846.58,119.99L846.58,129.97" style="fill:none;stroke:#7A2968" />
<path d="M844.08,119.99L849.08,119.99" style="fill:none;stroke:#7A2968" />
<path d="M844.08,129.97L849.08,129.97" style="fill:none;stroke:#7A2968" />
<path d="M850.32,120.27L850.32,132.32" style="fill:none;stroke:#7A2968" />
<path d="M847.82,120.27L852.82,120.27" style="fill:none;stroke:#7A2968" />
<path d="M847.82,132.32L852.82,132.32" style="fill:none;stroke:#7A2968" />
<path d="M854.06,121.95L854.06,130.66" style="fill:none;stroke:#7A2968" />
<path d="M851.56,121.95L856.56,121.95" style="fill:none;stroke:#7A2968" />
<path d="M851.56,130.66L856.56,130.66" style="fill:none;stroke:#7A2968" />
<path d="M857.8,120.52L857.8,129.25" style="fill:none;stroke:#7A2968" />
<path d="M855.3,120.52L860.3,120.52" style="fill:none;stroke:#7A2968" />
<path d="M855.3,129.25L860.3,129.25" style="fill:none;stroke:#7A2968" />
<path d="M861.54,119.76L861.54,126.4" style="fill:none;stroke:#7A2968" />
<path d="M859.04,119.76L864.04,119.76" style="fill:none;stroke:#7A2968" />
<path d="M859.04,126.4L864.04,126.4" style="fill:none;stroke:#7A2968" />
<path d="M865.28,119.7L865.28,122.53" style="fill:none;stroke:#7A2968" />
<path d="M862.78,119.7L867.78,119.7" style="fill:none;stroke:#7A2968" />
<path d="M862.78,122.53L867.78,122.53" style="fill:none;stroke:#7A2968" />
<path d="M869.02,117.23L869.02,123.67" style="fill:none;stroke:#7A2968" />
<path d="M866.52,117.23L871.52,117.23" style="fill:none;stroke:#7A2968" />
<path d="M866.52,123.67L871.52,123.67" style="fill:none;stroke:#7A2968" />
<path d="M872.76,115.79L872.76,122.13" style="fill:none;stroke:#7A2968" />
<path d="M870.26,115.79L875.26,115.79" style="fill:none;stroke:#7A2968" />
<path d="M870.26,122.13L875.26,122.13" style="fill:none;stroke:#7A2968" />
<path d="M876.49,117.01L876.49,120.12" style="fill:none;stroke:#7A2968" />
<path d="M873.99,117.01L878.99,117.01" style="fill:none;stroke:#7A2968" />
<path d="M873.99,120.12L878.99,120.12" style="fill:none;stroke:#7A2968" />
<path d="M880.23,116.29L880.23,119.15" style="fill:none;stroke:#7A2968" />
<path d="M877.73,116.29L882.73,116.29" style="fill:none;stroke:#7A2968" />
<path d="M877.73,119.15L882.73,119.15" style="fill:none;stroke:#7A2968" />
<path d="M883.97,117.39L883.97,120.18" style="fill:none;stroke:#7A2968" />
<path d="M881.47,117.39L886.47,117.39" style="fill:none;stroke:#7A2968" />
<path d="M881.47,120.18L886.47,120.18" style="fill:none;stroke:#7A2968" />
<path d="M887.71,115.3L887.71,120.31" style="fill:none;stroke:#7A2968" />
<path d="M885.21,115.3L890.21,115.3" style="fill:none;stroke:#7A2968" />
<path d="M885.21,120.31L890.21,120.31" style="fill:none;stroke:#7A2968" />
<path d="M891.45,116.18L891.45,120.21" style="fill:none;stroke:#7A2968" />
<path d="M888.95,116.18L893.95,116.18" style="fill:none;stroke:#7A2968" />
<path d="M888.95,120.21L893.95,120.21" style="fill:none;stroke:#7A2968" />
<path d="M895.19,115.59L895.19,118.46" style="fill:none;stroke:#7A2968" />
<path d="M892.69,115.59L897.69,115.59" style="fill:none;stroke:#7A2968" />
<path d="M892.69,118.46L897.69,118.46" style="fill:none;stroke:#7A2968" />
<path d="M898.93,114.94L898.93,117.95" style="fill:none;stroke:#7A2968" />
<path d="M896.43,114.94L901.43,114.94" style="fill:none;stroke:#7A2968" />
<path d="M896.43,117.95L901.43,117.95" style="fill:none;stroke:#7A2968" />
<path d="M902.67,115.27L902.67,118.03" style="fill:none;stroke:#7A2968" />
<path d="M900.17,115.27L905.17,115.27" style="fill:none;stroke:#7A2968" />
<path d="M900.17,118.03L905.17,118.03" style="fill:none;stroke:#7A2968" />
<path d="M906.41,116.2L906.41,119.36" style="fill:none;stroke:#7A2968" />
<path d="M903.91,116.2L908.91,116.2" style="fill:none;stroke:#7A2968" />
<path d="M903.91,119.36L908.91,119.36" style="fill:none;stroke:#7A2968" />
<path d="M910.14,115.75L910.14,120.16" style="fill:none;stroke:#7A2968" />
<path d="M907.64,115.75L912.64,115.75" style="fill:none;stroke:#7A2968" />
<path d="M907.64,120.16L912.64,120.16" style="fill:none;stroke:#7A2968" />
<path d="M913.88,115.9L913.88,120.62" style="fill:none;stroke:#7A2968" />
<path d="M911.38,115.9L916.38,115.9" style="fill:none;stroke:#7A2968" />
<path d="M911.38,120.62L916.38,120.62" style="fill:none;stroke:#7A2968" />
<path d="M917.62,114.51L917.62,118.97" style="fill:none;stroke:#7A2968" />
<path d="M915.12,114.51L920.12,114.51" style="fill:none;stroke:#7A2968" />
<path d="M915.12,118.97L920.12,118.97" style="fill:none;stroke:#7A2968" />
<path d="M921.36,115.15L921.36,117.9" style="fill:none;stroke:#7A2968" />
<path d="M918.86,115.15L923.86,115.15" style="fill:none;stroke:#7A2968" />
<path d="M918.86,117.9L923.86,117.9" style="fill:none;stroke:#7A2968" />
<path d="M925.1,113.86L925.1,117.36" style="fill:none;stroke:#7A2968" />
<path d="M922.6,113.86L927.6,113.86" style="fill:none;stroke:#7A2968" />
<path d="M922.6,117.36L927.6,117.36" style="fill:none;stroke:#7A2968" />
<path d="M928.84,113.27L928.84,116.76" style="fill:none;stroke:#7A2968" />
<path d="M926.34,113.27L931.34,113.27" style="fill:none;stroke:#7A2968" />
<path d="M926.34,116.76L931.34,116.76" style="fill:none;stroke:#7A2968" />
<path d="M932.58,113.79L932.58,116.33" style="fill:none;stroke:#7A2968" />
<path d="M930.08,113.79L935.08,113.79" style="fill:none;stroke:#7A2968" />
<path d="M930.08,116.33L935.08,116.33" style="fill:none;stroke:#7A2968" />
<path d="M936.32,113.84L936.32,116.07" style="fill:none;stroke:#7A2968" />
<path d="M933.82,113.84L938.82,113.84" style="fill:none;stroke:#7A2968" />
<path d="M933.82,116.07L938.82,116.07" style="fill:none;stroke:#7A2968" />
<path d="M940.05,115.03L940.05,117.13" style="fill:none;stroke:#7A2968" />
<path d="M937.55,115.03L942.55,115.03" style="fill:none;stroke:#7A2968" />
<path d="M937.55,117.13L942.55,117.13" style="fill:none;stroke:#7A2968" />
<path d="M943.79,115.04L943.79,117.44" style="fill:none;stroke:#7A2968" />
<path d="M941.29,115.04L946.29,115.04" style="fill:none;stroke:#7A2968" />
<path d="M941.29,117.44L946.29,117.44" style="fill:none;stroke:#7A2968" />
<path d="M947.53,114.87L947.53,119.75" style="fill:none;stroke:#7A2968" />
<path d="M945.03,114.87L950.03,114.87" style="fill:none;stroke:#7A2968" />
<path d="M945.03,119.75L950.03,119.75" style="fill:none;stroke:#7A2968" />
<path d="M951.27,116.72L951.27,121.02" style="fill:none;stroke:#7A2968" />
<path d="M948.77,116.72L953.77,116.72" style="fill:none;stroke:#7A2968" />
<path d="M948.77,121.02L953.77,121.02" style="fill:none;stroke:#7A2968" />
<path d="M955.01,118.58L955.01,119.47" style="fill:none;stroke:#7A2968" />
<path d="M952.51,118.58L957.51,118.58" style="fill:none;stroke:#7A2968" />
<path d="M952.51,119.47L957.51,119.47" style="fill:none;stroke:#7A2968" />
<path d="M958.75,120.72L958.75,121.92" style="fill:none;stroke:#7A2968" />
<path d="M956.25,120.72L961.25,120.72" style="fill:none;stroke:#7A2968" />
<path d="M956.25,121.92L961.25,121.92" style="fill:none;stroke:#7A2968" />
<path d="M962.49,119.57L962.49,121.5" style="fill:none;stroke:#7A2968" />
<path d="M959.99,119.57L964.99,119.57" style="fill:none;stroke:#7A2968" />
<path d="M959.99,121.5L964.99,121.5" style="fill:none;stroke:#7A2968" />
<path d="M966.23,120.08L966.23,121.9" style="fill:none;stroke:#7A2968" />
<path d="M963.73,120.08L968.73,120.08" style="fill:none;stroke:#7A2968" />
<path d="M963.73,121.9L968.73,121.9" style="fill:none;stroke:#7A2968" />
<path d="M969.97,119.37L969.97,121.14" style="fill:none;stroke:#7A2968" />
<path d="M967.47,119.37L972.47,119.37" style="fill:none;stroke:#7A2968" />
<path d="M967.47,121.14L972.47,121.14" style="fill:none;stroke:#7A2968" />
<path d="M973.7,117.21L973.7,119.05" style="fill:none;stroke:#7A2968" />
<path d="M971.2,117.21L976.2,117.21" style="fill:none;stroke:#7A2968" />
<path d="M971.2,119.05L976.2,119.05" style="fill:none;stroke:#7A2968" />
<path d="M977.44,117.19L977.44,117.51" style="fill:none;stroke:#7A2968" />
<path d="M974.94,117.19L979.94,117.19" style="fill:none;stroke:#7A2968" />
<path d="M974.94,117.51L979.94,117.51" style="fill:none;stroke:#7A2968" />
<path d="M981.18,117.78L981.18,118.99" style="fill:none;stroke:#7A2968" />
<path d="M978.68,117.78L983.68,117.78" style="fill:none;stroke:#7A2968" />
<path d="M978.68,118.99L983.68,118.99" style="fill:none;stroke:#7A2968" />
<path d="M984.92,116.78L984.92,118.29" style="fill:none;stroke:#7A2968" />
<path d="M982.42,116.78L987.42,116.78" style="fill:none;stroke:#7A2968" />
<path d="M982.42,118.29L987.42,118.29" style="fill:none;stroke:#7A2968" />
<path d="M988.66,116.63L988.66,117.6" style="fill:none;stroke:#7A2968" />
<path d="M986.16,116.63L991.16,116.63" style="fill:none;stroke:#7A2968" />
<path d="M986.16,117.6L991.16,117.6" style="fill:none;stroke:#7A2968" />
<path d="M992.4,113.78L992.4,116.78" style="fill:none;stroke:#7A2968" />
<path d="M989.9,113.78L994.9,113.78" style="fill:none;stroke:#7A2968" />
<path d="M989.9,116.78L994.9,116.78" style="fill:none;stroke:#7A2968" />
<path d="M996.14,112.82L996.14,116.71" style="fill:none;stroke:#7A2968" />
<path d="M993.64,112.82L998.64,112.82" style="fill:none;stroke:#7A2968" />
<path d="M993.64,116.71L998.64,116.71" style="fill:none;stroke:#7A2968" />
<path d="M999.88,112.51L999.88,115.12" style="fill:none;stroke:#7A2968" />
<path d="M997.38,112.51L1002.4,112.51" style="fill:none;stroke:#7A2968" />
<path d="M997.38,115.12L1002.4,115.12" style="fill:none;stroke:#7A2968" />
<path d="M1003.6,113.38L1003.6,114.62" style="fill:none;stroke:#7A2968" />
<path d="M1001.1,113.38L1006.1,113.38" style="fill:none;stroke:#7A2968" />
<path d="M1001.1,114.62L1006.1,114.62" style="fill:none;stroke:#7A2968" />
<path d="M1007.4,113.58L1007.4,117.05" style="fill:none;stroke:#7A2968" />
<path d="M1004.9,113.58L1009.9,113.58" style="fill:none;stroke:#7A2968" />
<path d="M1004.9,117.05L1009.9,117.05" style="fill:none;stroke:#7A2968" />
<path d="M1011.1,114.24L1011.1,118.06" style="fill:none;stroke:#7A2968" />
<path d="M1008.6,114.24L1013.6,114.24" style="fill:none;stroke:#7A2968" />
<path d="M1008.6,118.06L1013.6,118.06" style="fill:none;stroke:#7A2968" />
<path d="M1014.8,116.39L1014.8,118.08" style="fill:none;stroke:#7A2968" />
<path d="M1012.3,116.39L1017.3,116.39" style="fill:none;stroke:#7A2968" />
<path d="M1012.3,118.08L1017.3,118.08" style="fill:none;stroke:#7A2968" />
<path d="M1018.6,117.18L1018.6,118.03" style="fill:none;stroke:#7A2968" />
<path d="M1016.1,117.18L1021.1,117.18" style="fill:none;stroke:#7A2968" />
<path d="M1016.1,118.03L1021.1,118.03" style="fill:none;stroke:#7A2968" />
<path d="M1022.3,116.34L1022.3,118.24" style="fill:none;stroke:#7A2968" />
<path d="M1019.8,116.34L1024.8,116.34" style="fill:none;stroke:#7A2968" />
<path d="M1019.8,118.24L1024.8,118.24" style="fill:none;stroke:#7A2968" />
<path d="M1026,116.48L1026,117.82" style="fill:none;stroke:#7A2968" />
<path d="M1023.5,116.48L1028.5,116.48" style="fill:none;stroke:#7A2968" />
<path d="M1023.5,117.82L1028.5,117.82" style="fill:none;stroke:#7A2968" />
<path d="M1029.8,115.88L1029.8,118.25" style="fill:none;stroke:#7A2968" />
<path d="M1027.3,115.88L1032.3,115.88" style="fill:none;stroke:#7A2968" />
<path d="M1027.3,118.25L1032.3,118.25" style="fill:none;stroke:#7A2968" />
<path d="M1033.5,116.72L1033.5,118.76" style="fill:none;stroke:#7A2968" />
<path d="M1031,116.72L1036,116.72" style="fill:none;stroke:#7A2968" />
<path d="M1031,118.76L1036,118.76" style="fill:none;stroke:#7A2968" />
<path d="M1037.3,116.14L1037.3,118.15" style="fill:none;stroke:#7A2968" />
<path d="M1034.8,116.14L1039.8,116.14" style="fill:none;stroke:#7A2968" />
<path d="M1034.8,118.15L1039.8,118.15" style="fill:none;stroke:#7A2968" />
<path d="M1041,116.66L1041,118.03" style="fill:none;stroke:#7A2968" />
<path d="M1038.5,116.66L1043.5,116.66" style="fill:none;stroke:#7A2968" />
<path d="M1038.5,118.03L1043.5,118.03" style="fill:none;stroke:#7A2968" />
<path d="M1044.7,116.25L1044.7,119.48" style="fill:none;stroke:#7A2968" />
<path d="M1042.2,116.25L1047.2,116.25" style="fill:none;stroke:#7A2968" />
<path d="M1042.2,119.48L1047.2,119.48" style="fill:none;stroke:#7A2968" />
<path d="M1048.5,116.69L1048.5,120.04" style="fill:none;stroke:#7A2968" />
<path d="M1046,116.69L1051,116.69" style="fill:none;stroke:#7A2968" />
<path d="M1046,120.04L1051,120.04" style="fill:none;stroke:#7A2968" />
<path d="M1052.2,115.65L1052.2,120.13" style="fill:none;stroke:#7A2968" />
<path d="M1049.7,115.65L1054.7,115.65" style="fill:none;stroke:#7A2968" />
<path d="M1049.7,120.13L1054.7,120.13" style="fill:none;stroke:#7A2968" />
<path d="M1056,116.24L1056,119.93" style="fill:none;stroke:#7A2968" />
<path d="M1053.5,116.24L1058.5,116.24" style="fill:none;stroke:#7A2968" />
<path d="M1053.5,119.93L1058.5,119.93" style="fill:none;stroke:#7A2968" />
<path d="M1059.7,116.4L1059.7,119.83" style="fill:none;stroke:#7A2968" />
<path d="M1057.2,116.4L1062.2,116.4" style="fill:none;stroke:#7A2968" />
<path d="M1057.2,119.83L1062.2,119.83" style="fill:none;stroke:#7A2968" />
<path d="M1063.4,116.21L1063.4,117.42" style="fill:none;stroke:#7A2968" />
<path d="M1060.9,116.21L1065.9,116.21" style="fill:none;stroke:#7A2968" />
<path d="M1060.9,117.42L1065.9,117.42" style="fill:none;stroke:#7A2968" />
<path d="M1067.2,116.99L1067.2,119.59" style="fill:none;stroke:#7A2968" />
<path d="M1064.7,116.99L1069.7,116.99" style="fill:none;stroke:#7A2968" />
<path d="M1064.7,119.59L1069.7,119.59" style="fill:none;stroke:#7A2968" />
<path d="M1070.9,118.65L1070.9,120.04" style="fill:none;stroke:#7A2968" />
<path d="M1068.4,118.65L1073.4,118.65" style="fill:none;stroke:#7A2968" />
<path d="M1068.4,120.04L1073.4,120.04" style="fill:none;stroke:#7A2968" />
<path d="M1074.7,118.33L1074.7,119.77" style="fill:none;stroke:#7A2968" />
<path d="M1072.2,118.33L1077.2,118.33" style="fill:none;stroke:#7A2968" />
<path d="M1072.2,119.77L1077.2,119.77" style="fill:none;stroke:#7A2968" />
<path d="M156.16,121.93A5,5 0 1 1 146.16,121.93A5,5 0 1 1 156.16,121.93Z" style="fill:#7A2968" />
<path d="M159.9,120.79A5,5 0 1 1 149.9,120.79A5,5 0 1 1 159.9,120.79Z" style="fill:#7A2968" />
<path d="M163.64,121.56A5,5 0 1 1 153.64,121.56A5,5 0 1 1 163.64,121.56Z" style="fill:#7A2968" />
<path d="M167.38,122.17A5,5 0 1 1 157.38,122.17A5,5 0 1 1 167.38,122.17Z" style="fill:#7A2968" />
<path d="M171.12,121.97A5,5 0 1 1 161.12,121.97A5,5 0 1 1 171.12,121.97Z" style="fill:#7A2968" />
<path d="M174.86,122.35A5,5 0 1 1 164.86,122.35A5,5 0 1 1 174.86,122.35Z" style="fill:#7A2968" />
<path d="M178.6,122.01A5,5 0 1 1 168.6,122.01A5,5 0 1 1 178.6,122.01Z" style="fill:#7A2968" />
<path d="M182.34,123.61A5,5 0 1 1 172.34,123.61A5,5 0 1 1 182.34,123.61Z" style="fill:#7A2968" />
<path d="M186.07,123.95A5,5 0 1 1 176.07,123.95A5,5 0 1 1 186.07,123.95Z" style="fill:#7A2968" />
<path d="M189.81,124.21A5,5 0 1 1 179.81,124.21A5,5 0 1 1 189.81,124.21Z" style="fill:#7A2968" />
<path d="M193.55,123.72A5,5 0 1 1 183.55,123.72A5,5 0 1 1 193.55,123.72Z" style="fill:#7A2968" />
<path d="M197.29,123.71A5,5 0 1 1 187.29,123.71A5,5 0 1 1 197.29,123.71Z" style="fill:#7A2968" />
<path d="M201.03,124.46A5,5 0 1 1 191.03,124.46A5,5 0 1 1 201.03,124.46Z" style="fill:#7A2968" />
<path d="M204.77,126.7A5,5 0 1 1 194.77,126.7A5,5 0 1 1 204.77,126.7Z" style="fill:#7A2968" />
<path d="M208.51,125.93A5,5 0 1 1 198.51,125.93A5,5 0 1 1 208.51,125.93Z" style="fill:#7A2968" />
<path d="M212.25,125.95A5,5 0 1 1 202.25,125.95A5,5 0 1 1 212.25,125.95Z" style="fill:#7A2968" />
<path d="M215.99,124.5A5,5 0 1 1 205.99,124.5A5,5 0 1 1 215.99,124.5Z" style="fill:#7A2968" />
<path d="M219.72,123.11A5,5 0 1 1 209.72,123.11A5,5 0 1 1 219.72,123.11Z" style="fill:#7A2968" />
<path d="M223.46,124.45A5,5 0 1 1 213.46,124.45A5,5 0 1 1 223.46,124.45Z" style="fill:#7A2968" />
<path d="M227.2,124.64A5,5 0 1 1 217.2,124.64A5,5 0 1 1 227.2,124.64Z" style="fill:#7A2968" />
<path d="M230.94,123.67A5,5 0 1 1 220.94,123.67A5,5 0 1 1 230.94,123.67Z" style="fill:#7A2968" />
<path d="M234.68,125.32A5,5 0 1 1 224.68,125.32A5,5 0 1 1 234.68,125.32Z" style="fill:#7A2968" />
<path d="M238.42,126.54A5,5 0 1 1 228.42,126.54A5,5 0 1 1 238.42,126.54Z" style="fill:#7A2968" />
<path d="M242.16,127.22A5,5 0 1 1 232.16,127.22A5,5 0 1 1 242.16,127.22Z" style="fill:#7A2968" />
<path d="M245.9,128.46A5,5 0 1 1 235.9,128.46A5,5 0 1 1 245.9,128.46Z" style="fill:#7A2968" />
<path d="M249.63,128.25A5,5 0 1 1 239.63,128.25A5,5 0 1 1 249.63,128.25Z" style="fill:#7A2968" />
<path d="M253.37,129.35A5,5 0 1 1 243.37,129.35A5,5 0 1 1 253.37,129.35Z" style="fill:#7A2968" />
<path d="M257.11,129.81A5,5 0 1 1 247.11,129.81A5,5 0 1 1 257.11,129.81Z" style="fill:#7A2968" />
<path d="M260.85,131.26A5,5 0 1 1 250.85,131.26A5,5 0 1 1 260.85,131.26Z" style="fill:#7A2968" />
<path d="M264.59,133.47A5,5 0 1 1 254.59,133.47A5,5 0 1 1 264.59,133.47Z" style="fill:#7A2968" />
<path d="M268.33,133.45A5,5 0 1 1 258.33,133.45A5,5 0 1 1 268.33,133.45Z" style="fill:#7A2968" />
<path d="M272.07,132.49A5,5 0 1 1 262.07,132.49A5,5 0 1 1 272.07,132.49Z" style="fill:#7A2968" />
<path d="M275.81,132.2A5,5 0 1 1 265.81,132.2A5,5 0 1 1 275.81,132.2Z" style="fill:#7A2968" />
<path d="M279.55,133.08A5,5 0 1 1 269.55,133.08A5,5 0 1 1 279.55,133.08Z" style="fill:#7A2968" />
<path d="M283.28,132.51A5,5 0 1 1 273.28,132.51A5,5 0 1 1 283.28,132.51Z" style="fill:#7A2968" />
<path d="M287.02,131.38A5,5 0 1 1 277.02,131.38A5,5 0 1 1 287.02,131.38Z" style="fill:#7A2968" />
<path d="M290.76,131.76A5,5 0 1 1 280.76,131.76A5,5 0 1 1 290.76,131.76Z" style="fill:#7A2968" />
<path d="M294.5,133.49A5,5 0 1 1 284.5,133.49A5,5 0 1 1 294.5,133.49Z" style="fill:#7A2968" />
<path d="M298.24,136.31A5,5 0 1 1 288.24,136.31A5,5 0 1 1 298.24,136.31Z" style="fill:#7A2968" />
<path d="M301.98,136.35A5,5 0 1 1 291.98,136.35A5,5 0 1 1 301.98,136.35Z" style="fill:#7A2968" />
<path d="M305.72,135.57A5,5 0 1 1 295.72,135.57A5,5 0 1 1 305.72,135.57Z" style="fill:#7A2968" />
<path d="M309.46,135.01A5,5 0 1 1 299.46,135.01A5,5 0 1 1 309.46,135.01Z" style="fill:#7A2968" />
<path d="M313.19,134.76A5,5 0 1 1 303.19,134.76A5,5 0 1 1 313.19,134.76Z" style="fill:#7A2968" />
<path d="M316.93,134.34A5,5 0 1 1 306.93,134.34A5,5 0 1 1 316.93,134.34Z" style="fill:#7A2968" />
<path d="M320.67,133.93A5,5 0 1 1 310.67,133.93A5,5 0 1 1 320.67,133.93Z" style="fill:#7A2968" />
<path d="M324.41,133.49A5,5 0 1 1 314.41,133.49A5,5 0 1 1 324.41,133.49Z" style="fill:#7A2968" />
<path d="M328.15,135.37A5,5 0 1 1 318.15,135.37A5,5 0 1 1 328.15,135.37Z" style="fill:#7A2968" />
<path d="M331.89,136.91A5,5 0 1 1 321.89,136.91A5,5 0 1 1 331.89,136.91Z" style="fill:#7A2968" />
<path d="M335.63,137.45A5,5 0 1 1 325.63,137.45A5,5 0 1 1 335.63,137.45Z" style="fill:#7A2968" />
<path d="M339.37,137.32A5,5 0 1 1 329.37,137.32A5,5 0 1 1 339.37,137.32Z" style="fill:#7A2968" />
<path d="M343.1,139.32A5,5 0 1 1 333.1,139.32A5,5 0 1 1 343.1,139.32Z" style="fill:#7A2968" />
<path d="M346.84,142.32A5,5 0 1 1 336.84,142.32A5,5 0 1 1 346.84,142.32Z" style="fill:#7A2968" />
<path d="M350.58,141.33A5,5 0 1 1 340.58,141.33A5,5 0 1 1 350.58,141.33Z" style="fill:#7A2968" />
<path d="M354.32,142.68A5,5 0 1 1 344.32,142.68A5,5 0 1 1 354.32,142.68Z" style="fill:#7A2968" />
<path d="M358.06,146.54A5,5 0 1 1 348.06,146.54A5,5 0 1 1 358.06,146.54Z" style="fill:#7A2968" />
<path d="M361.8,150.11A5,5 0 1 1 351.8,150.11A5,5 0 1 1 361.8,150.11Z" style="fill:#7A2968" />
<path d="M365.54,152.79A5,5 0 1 1 355.54,152.79A5,5 0 1 1 365.54,152.79Z" style="fill:#7A2968" />
<path d="M369.28,154.08A5,5 0 1 1 359.28,154.08A5,5 0 1 1 369.28,154.08Z" style="fill:#7A2968" />
<path d="M373.02,156.43A5,5 0 1 1 363.02,156.43A5,5 0 1 1 373.02,156.43Z" style="fill:#7A2968" />
<path d="M376.75,157.36A5,5 0 1 1 366.75,157.36A5,5 0 1 1 376.75,157.36Z" style="fill:#7A2968" />
<path d="M380.49,156.95A5,5 0 1 1 370.49,156.95A5,5 0 1 1 380.49,156.95Z" style="fill:#7A2968" />
<path d="M384.23,155.79A5,5 0 1 1 374.23,155.79A5,5 0 1 1 384.23,155.79Z" style="fill:#7A2968" />
<path d="M387.97,158.32A5,5 0 1 1 377.97,158.32A5,5 0 1 1 387.97,158.32Z" style="fill:#7A2968" />
<path d="M391.71,161.74A5,5 0 1 1 381.71,161.74A5,5 0 1 1 391.71,161.74Z" style="fill:#7A2968" />
<path d="M395.45,163.37A5,5 0 1 1 385.45,163.37A5,5 0 1 1 395.45,163.37Z" style="fill:#7A2968" />
<path d="M399.19,163.45A5,5 0 1 1 389.19,163.45A5,5 0 1 1 399.19,163.45Z" style="fill:#7A2968" />
<path d="M402.93,167.04A5,5 0 1 1 392.93,167.04A5,5 0 1 1 402.93,167.04Z" style="fill:#7A2968" />
<path d="M406.66,171.33A5,5 0 1 1 396.66,171.33A5,5 0 1 1 406.66,171.33Z" style="fill:#7A2968" />
<path d="M410.4,175.68A5,5 0 1 1 400.4,175.68A5,5 0 1 1 410.4,175.68Z" style="fill:#7A2968" />
<path d="M414.14,178.4A5,5 0 1 1 404.14,178.4A5,5 0 1 1 414.14,178.4Z" style="fill:#7A2968" />
<path d="M417.88,183.26A5,5 0 1 1 407.88,183.26A5,5 0 1 1 417.88,183.26Z" style="fill:#7A2968" />
<path d="M421.62,185.53A5,5 0 1 1 411.62,185.53A5,5 0 1 1 421.62,185.53Z" style="fill:#7A2968" />
<path d="M425.36,188.79A5,5 0 1 1 415.36,188.79A5,5 0 1 1 425.36,188.79Z" style="fill:#7A2968" />
<path d="M429.1,192.9A5,5 0 1 1 419.1,192.9A5,5 0 1 1 429.1,192.9Z" style="fill:#7A2968" />
<path d="M432.84,197.27A5,5 0 1 1 422.84,197.27A5,5 0 1 1 432.84,197.27Z" style="fill:#7A2968" />
<path d="M436.58,198.7A5,5 0 1 1 426.58,198.7A5,5 0 1 1 436.58,198.7Z" style="fill:#7A2968" />
<path d="M440.31,204.81A5,5 0 1 1 430.31,204.81A5,5 0 1 1 440.31,204.81Z" style="fill:#7A2968" />
<path d="M444.05,213.11A5,5 0 1 1 434.05,213.11A5,5 0 1 1 444.05,213.11Z" style="fill:#7A2968" />
<path d="M447.79,217.37A5,5 0 1 1 437.79,217.37A5,5 0 1 1 447.79,217.37Z" style="fill:#7A2968" />
<path d="M451.53,222.34A5,5 0 1 1 441.53,222.34A5,5 0 1 1 451.53,222.34Z" style="fill:#7A2968" />
<path d="M455.27,235.28A5,5 0 1 1 445.27,235.28A5,5 0 1 1 455.27,235.28Z" style="fill:#7A2968" />
<path d="M459.01,240.18A5,5 0 1 1 449.01,240.18A5,5 0 1 1 459.01,240.18Z" style="fill:#7A2968" />
<path d="M462.75,265.91A5,5 0 1 1 452.75,265.91A5,5 0 1 1 462.75,265.91Z" style="fill:#7A2968" />
<path d="M466.49,273.97A5,5 0 1 1 456.49,273.97A5,5 0 1 1 466.49,273.97Z" style="fill:#7A2968" />
<path d="M470.22,281.27A5,5 0 1 1 460.22,281.27A5,5 0 1 1 470.22,281.27Z" style="fill:#7A2968" />
<path d="M473.96,313.84A5,5 0 1 1 463.96,313.84A5,5 0 1 1 473.96,313.84Z" style="fill:#7A2968" />
<path d="M477.7,323.89A5,5 0 1 1 467.7,323.89A5,5 0 1 1 477.7,323.89Z" style="fill:#7A2968" />
<path d="M481.44,340.57A5,5 0 1 1 471.44,340.57A5,5 0 1 1 481.44,340.57Z" style="fill:#7A2968" />
<path d="M485.18,357.26A5,5 0 1 1 475.18,357.26A5,5 0 1 1 485.18,357.26Z" style="fill:#7A2968" />
<path d="M488.92,360.3A5,5 0 1 1 478.92,360.3A5,5 0 1 1 488.92,360.3Z" style="fill:#7A2968" />
<path d="M492.66,378.47A5,5 0 1 1 482.66,378.47A5,5 0 1 1 492.66,378.47Z" style="fill:#7A2968" />
<path d="M496.4,390.17A5,5 0 1 1 486.4,390.17A5,5 0 1 1 496.4,390.17Z" style="fill:#7A2968" />
<path d="M500.14,404.71A5,5 0 1 1 490.14,404.71A5,5 0 1 1 500.14,404.71Z" style="fill:#7A2968" />
<path d="M503.87,424.5A5,5 0 1 1 493.87,424.5A5,5 0 1 1 503.87,424.5Z" style="fill:#7A2968" />
<path d="M507.61,439.22A5,5 0 1 1 497.61,439.22A5,5 0 1 1 507.61,439.22Z" style="fill:#7A2968" />
<path d="M511.35,451.18A5,5 0 1 1 501.35,451.18A5,5 0 1 1 511.35,451.18Z" style="fill:#7A2968" />
<path d="M515.09,468.69A5,5 0 1 1 505.09,468.69A5,5 0 1 1 515.09,468.69Z" style="fill:#7A2968" />
<path d="M518.83,467.21A5,5 0 1 1 508.83,467.21A5,5 0 1 1 518.83,467.21Z" style="fill:#7A2968" />
<path d="M522.57,480.08A5,5 0 1 1 512.57,480.08A5,5 0 1 1 522.57,480.08Z" style="fill:#7A2968" />
<path d="M526.31,465.46A5,5 0 1 1 516.31,465.46A5,5 0 1 1 526.31,465.46Z" style="fill:#7A2968" />
<path d="M530.05,466.15A5,5 0 1 1 520.05,466.15A5,5 0 1 1 530.05,466.15Z" style="fill:#7A2968" />
<path d="M533.78,479.89A5,5 0 1 1 523.78,479.89A5,5 0 1 1 533.78,479.89Z" style="fill:#7A2968" />
<path d="M537.52,477.18A5,5 0 1 1 527.52,477.18A5,5 0 1 1 537.52,477.18Z" style="fill:#7A2968" />
<path d="M541.26,486.26A5,5 0 1 1 531.26,486.26A5,5 0 1 1 541.26,486.26Z" style="fill:#7A2968" />
<path d="M545,461.39A5,5 0 1 1 535,461.39A5,5 0 1 1 545,461.39Z" style="fill:#7A2968" />
<path d="M548.74,424.08A5,5 0 1 1 538.74,424.08A5,5 0 1 1 548.74,424.08Z" style="fill:#7A2968" />
<path d="M552.48,452.67A5,5 0 1 1 542.48,452.67A5,5 0 1 1 552.48,452.67Z" style="fill:#7A2968" />
<path d="M556.22,426.56A5,5 0 1 1 546.22,426.56A5,5 0 1 1 556.22,426.56Z" style="fill:#7A2968" />
<path d="M559.96,425.26A5,5 0 1 1 549.96,425.26A5,5 0 1 1 559.96,425.26Z" style="fill:#7A2968" />
<path d="M563.7,401.9A5,5 0 1 1 553.7,401.9A5,5 0 1 1 563.7,401.9Z" style="fill:#7A2968" />
<path d="M567.43,358.47A5,5 0 1 1 557.43,358.47A5,5 0 1 1 567.43,358.47Z" style="fill:#7A2968" />
<path d="M571.17,312.84A5,5 0 1 1 561.17,312.84A5,5 0 1 1 571.17,312.84Z" style="fill:#7A2968" />
<path d="M574.91,275.54A5,5 0 1 1 564.91,275.54A5,5 0 1 1 574.91,275.54Z" style="fill:#7A2968" />
<path d="M578.65,266.02A5,5 0 1 1 568.65,266.02A5,5 0 1 1 578.65,266.02Z" style="fill:#7A2968" />
<path d="M582.39,242.83A5,5 0 1 1 572.39,242.83A5,5 0 1 1 582.39,242.83Z" style="fill:#7A2968" />
<path d="M586.13,269.79A5,5 0 1 1 576.13,269.79A5,5 0 1 1 586.13,269.79Z" style="fill:#7A2968" />
<path d="M589.87,308.06A5,5 0 1 1 579.87,308.06A5,5 0 1 1 589.87,308.06Z" style="fill:#7A2968" />
<path d="M593.61,310.42A5,5 0 1 1 583.61,310.42A5,5 0 1 1 593.61,310.42Z" style="fill:#7A2968" />
<path d="M597.34,326.54A5,5 0 1 1 587.34,326.54A5,5 0 1 1 597.34,326.54Z" style="fill:#7A2968" />
<path d="M601.08,329.22A5,5 0 1 1 591.08,329.22A5,5 0 1 1 601.08,329.22Z" style="fill:#7A2968" />
<path d="M604.82,331.78A5,5 0 1 1 594.82,331.78A5,5 0 1 1 604.82,331.78Z" style="fill:#7A2968" />
<path d="M608.56,353.15A5,5 0 1 1 598.56,353.15A5,5 0 1 1 608.56,353.15Z" style="fill:#7A2968" />
<path d="M612.3,361.21A5,5 0 1 1 602.3,361.21A5,5 0 1 1 612.3,361.21Z" style="fill:#7A2968" />
<path d="M616.04,349.94A5,5 0 1 1 606.04,349.94A5,5 0 1 1 616.04,349.94Z" style="fill:#7A2968" />
<path d="M619.78,348.67A5,5 0 1 1 609.78,348.67A5,5 0 1 1 619.78,348.67Z" style="fill:#7A2968" />
<path d="M623.52,331.83A5,5 0 1 1 613.52,331.83A5,5 0 1 1 623.52,331.83Z" style="fill:#7A2968" />
<path d="M627.26,324.15A5,5 0 1 1 617.26,324.15A5,5 0 1 1 627.26,324.15Z" style="fill:#7A2968" />
<path d="M630.99,339.38A5,5 0 1 1 620.99,339.38A5,5 0 1 1 630.99,339.38Z" style="fill:#7A2968" />
<path d="M634.73,355.38A5,5 0 1 1 624.73,355.38A5,5 0 1 1 634.73,355.38Z" style="fill:#7A2968" />
<path d="M638.47,391.18A5,5 0 1 1 628.47,391.18A5,5 0 1 1 638.47,391.18Z" style="fill:#7A2968" />
<path d="M642.21,389.77A5,5 0 1 1 632.21,389.77A5,5 0 1 1 642.21,389.77Z" style="fill:#7A2968" />
<path d="M645.95,382.85A5,5 0 1 1 635.95,382.85A5,5 0 1 1 645.95,382.85Z" style="fill:#7A2968" />
<path d="M649.69,369.26A5,5 0 1 1 639.69,369.26A5,5 0 1 1 649.69,369.26Z" style="fill:#7A2968" />
<path d="M653.43,345.09A5,5 0 1 1 643.43,345.09A5,5 0 1 1 653.43,345.09Z" style="fill:#7A2968" />
<path d="M657.17,313.42A5,5 0 1 1 647.17,313.42A5,5 0 1 1 657.17,313.42Z" style="fill:#7A2968" />
<path d="M660.9,294.97A5,5 0 1 1 650.9,294.97A5,5 0 1 1 660.9,294.97Z" style="fill:#7A2968" />
<path d="M664.64,287.44A5,5 0 1 1 654.64,287.44A5,5 0 1 1 664.64,287.44Z" style="fill:#7A2968" />
<path d="M668.38,268.88A5,5 0 1 1 658.38,268.88A5,5 0 1 1 668.38,268.88Z" style="fill:#7A2968" />
<path d="M672.12,253.7A5,5 0 1 1 662.12,253.7A5,5 0 1 1 672.12,253.7Z" style="fill:#7A2968" />
<path d="M675.86,232.77A5,5 0 1 1 665.86,232.77A5,5 0 1 1 675.86,232.77Z" style="fill:#7A2968" />
<path d="M679.6,220.41A5,5 0 1 1 669.6,220.41A5,5 0 1 1 679.6,220.41Z" style="fill:#7A2968" />
<path d="M683.34,206.1A5,5 0 1 1 673.34,206.1A5,5 0 1 1 683.34,206.1Z" style="fill:#7A2968" />
<path d="M687.08,197.49A5,5 0 1 1 677.08,197.49A5,5 0 1 1 687.08,197.49Z" style="fill:#7A2968" />
<path d="M690.81,187.58A5,5 0 1 1 680.81,187.58A5,5 0 1 1 690.81,187.58Z" style="fill:#7A2968" />
<path d="M694.55,185.12A5,5 0 1 1 684.55,185.12A5,5 0 1 1 694.55,185.12Z" style="fill:#7A2968" />
<path d="M698.29,177.87A5,5 0 1 1 688.29,177.87A5,5 0 1 1 698.29,177.87Z" style="fill:#7A2968" />
<path d="M702.03,176.65A5,5 0 1 1 692.03,176.65A5,5 0 1 1 702.03,176.65Z" style="fill:#7A2968" />
<path d="M705.77,169.14A5,5 0 1 1 695.77,169.14A5,5 0 1 1 705.77,169.14Z" style="fill:#7A2968" />
<path d="M709.51,166.66A5,5 0 1 1 699.51,166.66A5,5 0 1 1 709.51,166.66Z" style="fill:#7A2968" />
<path d="M713.25,160.05A5,5 0 1 1 703.25,160.05A5,5 0 1 1 713.25,160.05Z" style="fill:#7A2968" />
<path d="M716.99,159.86A5,5 0 1 1 706.99,159.86A5,5 0 1 1 716.99,159.86Z" style="fill:#7A2968" />
<path d="M720.73,151.7A5,5 0 1 1 710.73,151.7A5,5 0 1 1 720.73,151.7Z" style="fill:#7A2968" />
<path d="M724.46,147.15A5,5 0 1 1 714.46,147.15A5,5 0 1 1 724.46,147.15Z" style="fill:#7A2968" />
<path d="M728.2,146.95A5,5 0 1 1 718.2,146.95A5,5 0 1 1 728.2,146.95Z" style="fill:#7A2968" />
<path d="M731.94,142.12A5,5 0 1 1 721.94,142.12A5,5 0 1 1 731.94,142.12Z" style="fill:#7A2968" />
<path d="M735.68,141.37A5,5 0 1 1 725.68,141.37A5,5 0 1 1 735.68,141.37Z" style="fill:#7A2968" />
<path d="M739.42,138.64A5,5 0 1 1 729.42,138.64A5,5 0 1 1 739.42,138.64Z" style="fill:#7A2968" />
<path d="M743.16,136.08A5,5 0 1 1 733.16,136.08A5,5 0 1 1 743.16,136.08Z" style="fill:#7A2968" />
<path d="M746.9,132.18A5,5 0 1 1 736.9,132.18A5,5 0 1 1 746.9,132.18Z" style="fill:#7A2968" />
<path d="M750.64,132.11A5,5 0 1 1 740.64,132.11A5,5 0 1 1 750.64,132.11Z" style="fill:#7A2968" />
<path d="M754.37,130.74A5,5 0 1 1 744.37,130.74A5,5 0 1 1 754.37,130.74Z" style="fill:#7A2968" />
<path d="M758.11,127.8A5,5 0 1 1 748.11,127.8A5,5 0 1 1 758.11,127.8Z" style="fill:#7A2968" />
<path d="M761.85,125.36A5,5 0 1 1 751.85,125.36A5,5 0 1 1 761.85,125.36Z" style="fill:#7A2968" />
<path d="M765.59,125.24A5,5 0 1 1 755.59,125.24A5,5 0 1 1 765.59,125.24Z" style="fill:#7A2968" />
<path d="M769.33,123.39A5,5 0 1 1 759.33,123.39A5,5 0 1 1 769.33,123.39Z" style="fill:#7A2968" />
<path d="M773.07,121.06A5,5 0 1 1 763.07,121.06A5,5 0 1 1 773.07,121.06Z" style="fill:#7A2968" />
<path d="M776.81,119.47A5,5 0 1 1 766.81,119.47A5,5 0 1 1 776.81,119.47Z" style="fill:#7A2968" />
<path d="M780.55,119.08A5,5 0 1 1 770.55,119.08A5,5 0 1 1 780.55,119.08Z" style="fill:#7A2968" />
<path d="M784.29,121.74A5,5 0 1 1 774.29,121.74A5,5 0 1 1 784.29,121.74Z" style="fill:#7A2968" />
<path d="M788.02,119.42A5,5 0 1 1 778.02,119.42A5,5 0 1 1 788.02,119.42Z" style="fill:#7A2968" />
<path d="M791.76,119.47A5,5 0 1 1 781.76,119.47A5,5 0 1 1 791.76,119.47Z" style="fill:#7A2968" />
<path d="M795.5,117.61A5,5 0 1 1 785.5,117.61A5,5 0 1 1 795.5,117.61Z" style="fill:#7A2968" />
<path d="M799.24,119.09A5,5 0 1 1 789.24,119.09A5,5 0 1 1 799.24,119.09Z" style="fill:#7A2968" />
<path d="M802.98,122.86A5,5 0 1 1 792.98,122.86A5,5 0 1 1 802.98,122.86Z" style="fill:#7A2968" />
<path d="M806.72,124.68A5,5 0 1 1 796.72,124.68A5,5 0 1 1 806.72,124.68Z" style="fill:#7A2968" />
<path d="M810.46,120.52A5,5 0 1 1 800.46,120.52A5,5 0 1 1 810.46,120.52Z" style="fill:#7A2968" />
<path d="M814.2,118.72A5,5 0 1 1 804.2,118.72A5,5 0 1 1 814.2,118.72Z" style="fill:#7A2968" />
<path d="M817.93,115.68A5,5 0 1 1 807.93,115.68A5,5 0 1 1 817.93,115.68Z" style="fill:#7A2968" />
<path d="M821.67,114.16A5,5 0 1 1 811.67,114.16A5,5 0 1 1 821.67,114.16Z" style="fill:#7A2968" />
<path d="M825.41,114.5A5,5 0 1 1 815.41,114.5A5,5 0 1 1 825.41,114.5Z" style="fill:#7A2968" />
<path d="M829.15,116.35A5,5 0 1 1 819.15,116.35A5,5 0 1 1 829.15,116.35Z" style="fill:#7A2968" />
<path d="M832.89,118.32A5,5 0 1 1 822.89,118.32A5,5 0 1 1 832.89,118.32Z" style="fill:#7A2968" />
<path d="M836.63,119.22A5,5 0 1 1 826.63,119.22A5,5 0 1 1 836.63,119.22Z" style="fill:#7A2968" />
<path d="M840.37,120.59A5,5 0 1 1 830.37,120.59A5,5 0 1 1 840.37,120.59Z" style="fill:#7A2968" />
<path d="M844.11,123.39A5,5 0 1 1 834.11,123.39A5,5 0 1 1 844.11,123.39Z" style="fill:#7A2968" />
<path d="M847.85,123.77A5,5 0 1 1 837.85,123.77A5,5 0 1 1 847.85,123.77Z" style="fill:#7A2968" />
<path d="M851.58,124.98A5,5 0 1 1 841.58,124.98A5,5 0 1 1 851.58,124.98Z" style="fill:#7A2968" />
<path d="M855.32,126.29A5,5 0 1 1 845.32,126.29A5,5 0 1 1 855.32,126.29Z" style="fill:#7A2968" />
<path d="M859.06,126.3A5,5 0 1 1 849.06,126.3A5,5 0 1 1 859.06,126.3Z" style="fill:#7A2968" />
<path d="M862.8,124.89A5,5 0 1 1 852.8,124.89A5,5 0 1 1 862.8,124.89Z" style="fill:#7A2968" />
<path d="M866.54,123.08A5,5 0 1 1 856.54,123.08A5,5 0 1 1 866.54,123.08Z" style="fill:#7A2968" />
<path d="M870.28,121.12A5,5 0 1 1 860.28,121.12A5,5 0 1 1 870.28,121.12Z" style="fill:#7A2968" />
<path d="M874.02,120.45A5,5 0 1 1 864.02,120.45A5,5 0 1 1 874.02,120.45Z" style="fill:#7A2968" />
<path d="M877.76,118.96A5,5 0 1 1 867.76,118.96A5,5 0 1 1 877.76,118.96Z" style="fill:#7A2968" />
<path d="M881.49,118.57A5,5 0 1 1 871.49,118.57A5,5 0 1 1 881.49,118.57Z" style="fill:#7A2968" />
<path d="M885.23,117.72A5,5 0 1 1 875.23,117.72A5,5 0 1 1 885.23,117.72Z" style="fill:#7A2968" />
<path d="M888.97,118.78A5,5 0 1 1 878.97,118.78A5,5 0 1 1 888.97,118.78Z" style="fill:#7A2968" />
<path d="M892.71,117.8A5,5 0 1 1 882.71,117.8A5,5 0 1 1 892.71,117.8Z" style="fill:#7A2968" />
<path d="M896.45,118.19A5,5 0 1 1 886.45,118.19A5,5 0 1 1 896.45,118.19Z" style="fill:#7A2968" />
<path d="M900.19,117.03A5,5 0 1 1 890.19,117.03A5,5 0 1 1 900.19,117.03Z" style="fill:#7A2968" />
<path d="M903.93,116.44A5,5 0 1 1 893.93,116.44A5,5 0 1 1 903.93,116.44Z" style="fill:#7A2968" />
<path d="M907.67,116.65A5,5 0 1 1 897.67,116.65A5,5 0 1 1 907.67,116.65Z" style="fill:#7A2968" />
<path d="M911.41,117.78A5,5 0 1 1 901.41,117.78A5,5 0 1 1 911.41,117.78Z" style="fill:#7A2968" />
<path d="M915.14,117.96A5,5 0 1 1 905.14,117.96A5,5 0 1 1 915.14,117.96Z" style="fill:#7A2968" />
<path d="M918.88,118.26A5,5 0 1 1 908.88,118.26A5,5 0 1 1 918.88,118.26Z" style="fill:#7A2968" />
<path d="M922.62,116.74A5,5 0 1 1 912.62,116.74A5,5 0 1 1 922.62,116.74Z" style="fill:#7A2968" />
<path d="M926.36,116.53A5,5 0 1 1 916.36,116.53A5,5 0 1 1 926.36,116.53Z" style="fill:#7A2968" />
<path d="M930.1,115.61A5,5 0 1 1 920.1,115.61A5,5 0 1 1 930.1,115.61Z" style="fill:#7A2968" />
<path d="M933.84,115.01A5,5 0 1 1 923.84,115.01A5,5 0 1 1 933.84,115.01Z" style="fill:#7A2968" />
<path d="M937.58,115.06A5,5 0 1 1 927.58,115.06A5,5 0 1 1 937.58,115.06Z" style="fill:#7A2968" />
<path d="M941.32,114.95A5,5 0 1 1 931.32,114.95A5,5 0 1 1 941.32,114.95Z" style="fill:#7A2968" />
<path d="M945.05,116.08A5,5 0 1 1 935.05,116.08A5,5 0 1 1 945.05,116.08Z" style="fill:#7A2968" />
<path d="M948.79,116.24A5,5 0 1 1 938.79,116.24A5,5 0 1 1 948.79,116.24Z" style="fill:#7A2968" />
<path d="M952.53,117.31A5,5 0 1 1 942.53,117.31A5,5 0 1 1 952.53,117.31Z" style="fill:#7A2968" />
<path d="M956.27,118.87A5,5 0 1 1 946.27,118.87A5,5 0 1 1 956.27,118.87Z" style="fill:#7A2968" />
<path d="M960.01,119.03A5,5 0 1 1 950.01,119.03A5,5 0 1 1 960.01,119.03Z" style="fill:#7A2968" />
<path d="M963.75,121.32A5,5 0 1 1 953.75,121.32A5,5 0 1 1 963.75,121.32Z" style="fill:#7A2968" />
<path d="M967.49,120.53A5,5 0 1 1 957.49,120.53A5,5 0 1 1 967.49,120.53Z" style="fill:#7A2968" />
<path d="M971.23,120.99A5,5 0 1 1 961.23,120.99A5,5 0 1 1 971.23,120.99Z" style="fill:#7A2968" />
<path d="M974.97,120.26A5,5 0 1 1 964.97,120.26A5,5 0 1 1 974.97,120.26Z" style="fill:#7A2968" />
<path d="M978.7,118.13A5,5 0 1 1 968.7,118.13A5,5 0 1 1 978.7,118.13Z" style="fill:#7A2968" />
<path d="M982.44,117.35A5,5 0 1 1 972.44,117.35A5,5 0 1 1 982.44,117.35Z" style="fill:#7A2968" />
<path d="M986.18,118.39A5,5 0 1 1 976.18,118.39A5,5 0 1 1 986.18,118.39Z" style="fill:#7A2968" />
<path d="M989.92,117.53A5,5 0 1 1 979.92,117.53A5,5 0 1 1 989.92,117.53Z" style="fill:#7A2968" />
<path d="M993.66,117.11A5,5 0 1 1 983.66,117.11A5,5 0 1 1 993.66,117.11Z" style="fill:#7A2968" />
<path d="M997.4,115.28A5,5 0 1 1 987.4,115.28A5,5 0 1 1 997.4,115.28Z" style="fill:#7A2968" />
<path d="M1001.1,114.76A5,5 0 1 1 991.14,114.76A5,5 0 1 1 1001.1,114.76Z" style="fill:#7A2968" />
<path d="M1004.9,113.82A5,5 0 1 1 994.88,113.82A5,5 0 1 1 1004.9,113.82Z" style="fill:#7A2968" />
<path d="M1008.6,114A5,5 0 1 1 998.61,114A5,5 0 1 1 1008.6,114Z" style="fill:#7A2968" />
<path d="M1012.4,115.32A5,5 0 1 1 1002.4,115.32A5,5 0 1 1 1012.4,115.32Z" style="fill:#7A2968" />
<path d="M1016.1,116.15A5,5 0 1 1 1006.1,116.15A5,5 0 1 1 1016.1,116.15Z" style="fill:#7A2968" />
<path d="M1019.8,117.23A5,5 0 1 1 1009.8,117.23A5,5 0 1 1 1019.8,117.23Z" style="fill:#7A2968" />
<path d="M1023.6,117.61A5,5 0 1 1 1013.6,117.61A5,5 0 1 1 1023.6,117.61Z" style="fill:#7A2968" />
<path d="M1027.3,117.29A5,5 0 1 1 1017.3,117.29A5,5 0 1 1 1027.3,117.29Z" style="fill:#7A2968" />
<path d="M1031,117.15A5,5 0 1 1 1021,117.15A5,5 0 1 1 1031,117.15Z" style="fill:#7A2968" />
<path d="M1034.8,117.06A5,5 0 1 1 1024.8,117.06A5,5 0 1 1 1034.8,117.06Z" style="fill:#7A2968" />
<path d="M1038.5,117.74A5,5 0 1 1 1028.5,117.74A5,5 0 1 1 1038.5,117.74Z" style="fill:#7A2968" />
<path d="M1042.3,117.14A5,5 0 1 1 1032.3,117.14A5,5 0 1 1 1042.3,117.14Z" style="fill:#7A2968" />
<path d="M1046,117.35A5,5 0 1 1 1036,117.35A5,5 0 1 1 1046,117.35Z" style="fill:#7A2968" />
<path d="M1049.7,117.87A5,5 0 1 1 1039.7,117.87A5,5 0 1 1 1049.7,117.87Z" style="fill:#7A2968" />
<path d="M1053.5,118.37A5,5 0 1 1 1043.5,118.37A5,5 0 1 1 1053.5,118.37Z" style="fill:#7A2968" />
<path d="M1057.2,117.89A5,5 0 1 1 1047.2,117.89A5,5 0 1 1 1057.2,117.89Z" style="fill:#7A2968" />
<path d="M1061,118.08A5,5 0 1 1 1051,118.08A5,5 0 1 1 1061,118.08Z" style="fill:#7A2968" />
<path d="M1064.7,118.11A5,5 0 1 1 1054.7,118.11A5,5 0 1 1 1064.7,118.11Z" style="fill:#7A2968" />
<path d="M1068.4,116.82A5,5 0 1 1 1058.4,116.82A5,5 0 1 1 1068.4,116.82Z" style="fill:#7A2968" />
<path d="M1072.2,118.29A5,5 0 1 1 1062.2,118.29A5,5 0 1 1 1072.2,118.29Z" style="fill:#7A2968" />
<path d="M1075.9,119.34A5,5 0 1 1 1065.9,119.34A5,5 0 1 1 1075.9,119.34Z" style="fill:#7A2968" />
<path d="M1079.7,119.05A5,5 0 1 1 1069.7,119.05A5,5 0 1 1 1079.7,119.05Z" style="fill:#7A2968" />
<path d="M147.43,974.14L1080,974.14" style="fill:none;stroke:#000000" />
<path d="M1080,110.19L1080,974.14" style="fill:none;stroke:#000000" />
<path d="M1013,927.49A8,8 0 1 1 997,927.49A8,8 0 1 1 1013,927.49Z" style="fill:#7A2968" />
<text x="869.52" y="-920.9" transform="scale(1, -1)"
	style="font-family:Helvetica;font-weight:normal;font-style:normal;font-size:28px">7.5 GHz</text>
</g>
</svg>
