<?xml version="1.0"?>
<!-- Generated by SVGo and Plotinum VG -->
<svg width="1080pt" height="1080pt" viewBox="0 0 1080 1080"
	xmlns="http://www.w3.org/2000/svg"
	xmlns:xlink="http://www.w3.org/1999/xlink">
<g transform="scale(1, -1) translate(0, -1080)">
<path d="M0,0L1080,0L1080,1080L0,1080Z" style="fill:#-8000000000000000-8000000000000000-8000000000000000;fill-opacity:0" />
<text x="205.11" y="-1039.5" transform="scale(1, -1)"
	style="font-family:Helvetica;font-weight:normal;font-style:normal;font-size:50px">1 cm pak1chip3-20um4 CABS</text>
<text x="510.08" y="-11.039" transform="scale(1, -1)"
	style="font-family:Helvetica;font-weight:normal;font-style:normal;font-size:36px">Frequency (GHz)</text>
<text x="258.95" y="-71.258" transform="scale(1, -1)"
	style="font-family:Helvetica;font-weight:normal;font-style:normal;font-size:36px">10.65</text>
<text x="431.38" y="-71.258" transform="scale(1, -1)"
	style="font-family:Helvetica;font-weight:normal;font-style:normal;font-size:36px">10.75</text>
<text x="603.82" y="-71.258" transform="scale(1, -1)"
	style="font-family:Helvetica;font-weight:normal;font-style:normal;font-size:36px">10.85</text>
<text x="776.25" y="-71.258" transform="scale(1, -1)"
	style="font-family:Helvetica;font-weight:normal;font-style:normal;font-size:36px">10.95</text>
<text x="950.02" y="-71.258" transform="scale(1, -1)"
	style="font-family:Helvetica;font-weight:normal;font-style:normal;font-size:36px">11.05</text>
<path d="M303.99,116.44L303.99,108.44" style="fill:none;stroke:#000000;stroke-width:1.5" />
<path d="M390.21,112.44L390.21,108.44" style="fill:none;stroke:#000000;stroke-width:1.5" />
<path d="M476.43,116.44L476.43,108.44" style="fill:none;stroke:#000000;stroke-width:1.5" />
<path d="M562.64,112.44L562.64,108.44" style="fill:none;stroke:#000000;stroke-width:1.5" />
<path d="M648.86,116.44L648.86,108.44" style="fill:none;stroke:#000000;stroke-width:1.5" />
<path d="M735.08,112.44L735.08,108.44" style="fill:none;stroke:#000000;stroke-width:1.5" />
<path d="M821.29,116.44L821.29,108.44" style="fill:none;stroke:#000000;stroke-width:1.5" />
<path d="M907.51,112.44L907.51,108.44" style="fill:none;stroke:#000000;stroke-width:1.5" />
<path d="M993.73,116.44L993.73,108.44" style="fill:none;stroke:#000000;stroke-width:1.5" />
<path d="M221.23,108.44L1075,108.44" style="fill:none;stroke:#000000;stroke-width:1.5" />
<g transform="rotate(90)">
<text x="371.06" y="29.18" transform="scale(1, -1)"
	style="font-family:Helvetica;font-weight:normal;font-style:normal;font-size:36px">Spectral Density (μV)</text>
</g>
<text x="107.89" y="-207.91" transform="scale(1, -1)"
	style="font-family:Helvetica;font-weight:normal;font-style:normal;font-size:36px">99.89</text>
<text x="87.869" y="-424.24" transform="scale(1, -1)"
	style="font-family:Helvetica;font-weight:normal;font-style:normal;font-size:36px">346.78</text>
<text x="87.869" y="-640.57" transform="scale(1, -1)"
	style="font-family:Helvetica;font-weight:normal;font-style:normal;font-size:36px">593.66</text>
<text x="87.869" y="-856.9" transform="scale(1, -1)"
	style="font-family:Helvetica;font-weight:normal;font-style:normal;font-size:36px">840.54</text>
<path d="M219.98,108.82L215.98,108.82" style="fill:none;stroke:#000000;stroke-width:1.5" />
<path d="M223.98,216.98L215.98,216.98" style="fill:none;stroke:#000000;stroke-width:1.5" />
<path d="M219.98,325.15L215.98,325.15" style="fill:none;stroke:#000000;stroke-width:1.5" />
<path d="M223.98,433.31L215.98,433.31" style="fill:none;stroke:#000000;stroke-width:1.5" />
<path d="M219.98,541.48L215.98,541.48" style="fill:none;stroke:#000000;stroke-width:1.5" />
<path d="M223.98,649.64L215.98,649.64" style="fill:none;stroke:#000000;stroke-width:1.5" />
<path d="M219.98,757.81L215.98,757.81" style="fill:none;stroke:#000000;stroke-width:1.5" />
<path d="M223.98,865.98L215.98,865.98" style="fill:none;stroke:#000000;stroke-width:1.5" />
<path d="M219.98,974.14L215.98,974.14" style="fill:none;stroke:#000000;stroke-width:1.5" />
<path d="M219.98,974.14L215.98,974.14" style="fill:none;stroke:#000000;stroke-width:1.5" />
<path d="M215.98,108.82L215.98,974.14" style="fill:none;stroke:#000000;stroke-width:1.5" />
<path d="M221.23,176.88L221.23,182.82" style="fill:none;stroke:#FF7AB4" />
<path d="M218.73,176.88L223.73,176.88" style="fill:none;stroke:#FF7AB4" />
<path d="M218.73,182.82L223.73,182.82" style="fill:none;stroke:#FF7AB4" />
<path d="M224.69,176.12L224.69,177.8" style="fill:none;stroke:#FF7AB4" />
<path d="M222.19,176.12L227.19,176.12" style="fill:none;stroke:#FF7AB4" />
<path d="M222.19,177.8L227.19,177.8" style="fill:none;stroke:#FF7AB4" />
<path d="M228.14,176.25L228.14,178.11" style="fill:none;stroke:#FF7AB4" />
<path d="M225.64,176.25L230.64,176.25" style="fill:none;stroke:#FF7AB4" />
<path d="M225.64,178.11L230.64,178.11" style="fill:none;stroke:#FF7AB4" />
<path d="M231.6,173.61L231.6,176.18" style="fill:none;stroke:#FF7AB4" />
<path d="M229.1,173.61L234.1,173.61" style="fill:none;stroke:#FF7AB4" />
<path d="M229.1,176.18L234.1,176.18" style="fill:none;stroke:#FF7AB4" />
<path d="M235.06,176.68L235.06,180.4" style="fill:none;stroke:#FF7AB4" />
<path d="M232.56,176.68L237.56,176.68" style="fill:none;stroke:#FF7AB4" />
<path d="M232.56,180.4L237.56,180.4" style="fill:none;stroke:#FF7AB4" />
<path d="M238.51,176.14L238.51,185.74" style="fill:none;stroke:#FF7AB4" />
<path d="M236.01,176.14L241.01,176.14" style="fill:none;stroke:#FF7AB4" />
<path d="M236.01,185.74L241.01,185.74" style="fill:none;stroke:#FF7AB4" />
<path d="M241.97,174.1L241.97,181.11" style="fill:none;stroke:#FF7AB4" />
<path d="M239.47,174.1L244.47,174.1" style="fill:none;stroke:#FF7AB4" />
<path d="M239.47,181.11L244.47,181.11" style="fill:none;stroke:#FF7AB4" />
<path d="M245.43,175.33L245.43,179.67" style="fill:none;stroke:#FF7AB4" />
<path d="M242.93,175.33L247.93,175.33" style="fill:none;stroke:#FF7AB4" />
<path d="M242.93,179.67L247.93,179.67" style="fill:none;stroke:#FF7AB4" />
<path d="M248.88,173.11L248.88,180.91" style="fill:none;stroke:#FF7AB4" />
<path d="M246.38,173.11L251.38,173.11" style="fill:none;stroke:#FF7AB4" />
<path d="M246.38,180.91L251.38,180.91" style="fill:none;stroke:#FF7AB4" />
<path d="M252.34,178.12L252.34,180.11" style="fill:none;stroke:#FF7AB4" />
<path d="M249.84,178.12L254.84,178.12" style="fill:none;stroke:#FF7AB4" />
<path d="M249.84,180.11L254.84,180.11" style="fill:none;stroke:#FF7AB4" />
<path d="M255.8,180.3L255.8,181.91" style="fill:none;stroke:#FF7AB4" />
<path d="M253.3,180.3L258.3,180.3" style="fill:none;stroke:#FF7AB4" />
<path d="M253.3,181.91L258.3,181.91" style="fill:none;stroke:#FF7AB4" />
<path d="M259.25,179.56L259.25,191.23" style="fill:none;stroke:#FF7AB4" />
<path d="M256.75,179.56L261.75,179.56" style="fill:none;stroke:#FF7AB4" />
<path d="M256.75,191.23L261.75,191.23" style="fill:none;stroke:#FF7AB4" />
<path d="M262.71,177.78L262.71,183.59" style="fill:none;stroke:#FF7AB4" />
<path d="M260.21,177.78L265.21,177.78" style="fill:none;stroke:#FF7AB4" />
<path d="M260.21,183.59L265.21,183.59" style="fill:none;stroke:#FF7AB4" />
<path d="M266.17,184.62L266.17,190.17" style="fill:none;stroke:#FF7AB4" />
<path d="M263.67,184.62L268.67,184.62" style="fill:none;stroke:#FF7AB4" />
<path d="M263.67,190.17L268.67,190.17" style="fill:none;stroke:#FF7AB4" />
<path d="M269.62,180.56L269.62,183.72" style="fill:none;stroke:#FF7AB4" />
<path d="M267.12,180.56L272.12,180.56" style="fill:none;stroke:#FF7AB4" />
<path d="M267.12,183.72L272.12,183.72" style="fill:none;stroke:#FF7AB4" />
<path d="M273.08,179.1L273.08,184.66" style="fill:none;stroke:#FF7AB4" />
<path d="M270.58,179.1L275.58,179.1" style="fill:none;stroke:#FF7AB4" />
<path d="M270.58,184.66L275.58,184.66" style="fill:none;stroke:#FF7AB4" />
<path d="M276.54,177.31L276.54,182.11" style="fill:none;stroke:#FF7AB4" />
<path d="M274.04,177.31L279.04,177.31" style="fill:none;stroke:#FF7AB4" />
<path d="M274.04,182.11L279.04,182.11" style="fill:none;stroke:#FF7AB4" />
<path d="M279.99,179.24L279.99,186.13" style="fill:none;stroke:#FF7AB4" />
<path d="M277.49,179.24L282.49,179.24" style="fill:none;stroke:#FF7AB4" />
<path d="M277.49,186.13L282.49,186.13" style="fill:none;stroke:#FF7AB4" />
<path d="M283.45,185.21L283.45,190.72" style="fill:none;stroke:#FF7AB4" />
<path d="M280.95,185.21L285.95,185.21" style="fill:none;stroke:#FF7AB4" />
<path d="M280.95,190.72L285.95,190.72" style="fill:none;stroke:#FF7AB4" />
<path d="M286.91,186.1L286.91,189.52" style="fill:none;stroke:#FF7AB4" />
<path d="M284.41,186.1L289.41,186.1" style="fill:none;stroke:#FF7AB4" />
<path d="M284.41,189.52L289.41,189.52" style="fill:none;stroke:#FF7AB4" />
<path d="M290.36,184.7L290.36,190.54" style="fill:none;stroke:#FF7AB4" />
<path d="M287.86,184.7L292.86,184.7" style="fill:none;stroke:#FF7AB4" />
<path d="M287.86,190.54L292.86,190.54" style="fill:none;stroke:#FF7AB4" />
<path d="M293.82,185.06L293.82,192.03" style="fill:none;stroke:#FF7AB4" />
<path d="M291.32,185.06L296.32,185.06" style="fill:none;stroke:#FF7AB4" />
<path d="M291.32,192.03L296.32,192.03" style="fill:none;stroke:#FF7AB4" />
<path d="M297.27,181.24L297.27,187.57" style="fill:none;stroke:#FF7AB4" />
<path d="M294.77,181.24L299.77,181.24" style="fill:none;stroke:#FF7AB4" />
<path d="M294.77,187.57L299.77,187.57" style="fill:none;stroke:#FF7AB4" />
<path d="M300.73,184.36L300.73,189.53" style="fill:none;stroke:#FF7AB4" />
<path d="M298.23,184.36L303.23,184.36" style="fill:none;stroke:#FF7AB4" />
<path d="M298.23,189.53L303.23,189.53" style="fill:none;stroke:#FF7AB4" />
<path d="M304.19,183.59L304.19,190.24" style="fill:none;stroke:#FF7AB4" />
<path d="M301.69,183.59L306.69,183.59" style="fill:none;stroke:#FF7AB4" />
<path d="M301.69,190.24L306.69,190.24" style="fill:none;stroke:#FF7AB4" />
<path d="M307.64,185.45L307.64,191.47" style="fill:none;stroke:#FF7AB4" />
<path d="M305.14,185.45L310.14,185.45" style="fill:none;stroke:#FF7AB4" />
<path d="M305.14,191.47L310.14,191.47" style="fill:none;stroke:#FF7AB4" />
<path d="M311.1,190.1L311.1,190.83" style="fill:none;stroke:#FF7AB4" />
<path d="M308.6,190.1L313.6,190.1" style="fill:none;stroke:#FF7AB4" />
<path d="M308.6,190.83L313.6,190.83" style="fill:none;stroke:#FF7AB4" />
<path d="M314.56,189.02L314.56,193.39" style="fill:none;stroke:#FF7AB4" />
<path d="M312.06,189.02L317.06,189.02" style="fill:none;stroke:#FF7AB4" />
<path d="M312.06,193.39L317.06,193.39" style="fill:none;stroke:#FF7AB4" />
<path d="M318.01,183.07L318.01,187.95" style="fill:none;stroke:#FF7AB4" />
<path d="M315.51,183.07L320.51,183.07" style="fill:none;stroke:#FF7AB4" />
<path d="M315.51,187.95L320.51,187.95" style="fill:none;stroke:#FF7AB4" />
<path d="M321.47,179.86L321.47,193.56" style="fill:none;stroke:#FF7AB4" />
<path d="M318.97,179.86L323.97,179.86" style="fill:none;stroke:#FF7AB4" />
<path d="M318.97,193.56L323.97,193.56" style="fill:none;stroke:#FF7AB4" />
<path d="M324.93,179.07L324.93,193.93" style="fill:none;stroke:#FF7AB4" />
<path d="M322.43,179.07L327.43,179.07" style="fill:none;stroke:#FF7AB4" />
<path d="M322.43,193.93L327.43,193.93" style="fill:none;stroke:#FF7AB4" />
<path d="M328.38,181.2L328.38,193.75" style="fill:none;stroke:#FF7AB4" />
<path d="M325.88,181.2L330.88,181.2" style="fill:none;stroke:#FF7AB4" />
<path d="M325.88,193.75L330.88,193.75" style="fill:none;stroke:#FF7AB4" />
<path d="M331.84,185.34L331.84,195.67" style="fill:none;stroke:#FF7AB4" />
<path d="M329.34,185.34L334.34,185.34" style="fill:none;stroke:#FF7AB4" />
<path d="M329.34,195.67L334.34,195.67" style="fill:none;stroke:#FF7AB4" />
<path d="M335.3,198.64L335.3,201.1" style="fill:none;stroke:#FF7AB4" />
<path d="M332.8,198.64L337.8,198.64" style="fill:none;stroke:#FF7AB4" />
<path d="M332.8,201.1L337.8,201.1" style="fill:none;stroke:#FF7AB4" />
<path d="M338.75,200.17L338.75,201.2" style="fill:none;stroke:#FF7AB4" />
<path d="M336.25,200.17L341.25,200.17" style="fill:none;stroke:#FF7AB4" />
<path d="M336.25,201.2L341.25,201.2" style="fill:none;stroke:#FF7AB4" />
<path d="M342.21,191.29L342.21,196.68" style="fill:none;stroke:#FF7AB4" />
<path d="M339.71,191.29L344.71,191.29" style="fill:none;stroke:#FF7AB4" />
<path d="M339.71,196.68L344.71,196.68" style="fill:none;stroke:#FF7AB4" />
<path d="M345.67,192.51L345.67,201.33" style="fill:none;stroke:#FF7AB4" />
<path d="M343.17,192.51L348.17,192.51" style="fill:none;stroke:#FF7AB4" />
<path d="M343.17,201.33L348.17,201.33" style="fill:none;stroke:#FF7AB4" />
<path d="M349.12,189.09L349.12,202.71" style="fill:none;stroke:#FF7AB4" />
<path d="M346.62,189.09L351.62,189.09" style="fill:none;stroke:#FF7AB4" />
<path d="M346.62,202.71L351.62,202.71" style="fill:none;stroke:#FF7AB4" />
<path d="M352.58,193.7L352.58,204.91" style="fill:none;stroke:#FF7AB4" />
<path d="M350.08,193.7L355.08,193.7" style="fill:none;stroke:#FF7AB4" />
<path d="M350.08,204.91L355.08,204.91" style="fill:none;stroke:#FF7AB4" />
<path d="M356.04,196.95L356.04,204.95" style="fill:none;stroke:#FF7AB4" />
<path d="M353.54,196.95L358.54,196.95" style="fill:none;stroke:#FF7AB4" />
<path d="M353.54,204.95L358.54,204.95" style="fill:none;stroke:#FF7AB4" />
<path d="M359.49,204.98L359.49,207.14" style="fill:none;stroke:#FF7AB4" />
<path d="M356.99,204.98L361.99,204.98" style="fill:none;stroke:#FF7AB4" />
<path d="M356.99,207.14L361.99,207.14" style="fill:none;stroke:#FF7AB4" />
<path d="M362.95,199.05L362.95,205" style="fill:none;stroke:#FF7AB4" />
<path d="M360.45,199.05L365.45,199.05" style="fill:none;stroke:#FF7AB4" />
<path d="M360.45,205L365.45,205" style="fill:none;stroke:#FF7AB4" />
<path d="M366.41,200.63L366.41,208.8" style="fill:none;stroke:#FF7AB4" />
<path d="M363.91,200.63L368.91,200.63" style="fill:none;stroke:#FF7AB4" />
<path d="M363.91,208.8L368.91,208.8" style="fill:none;stroke:#FF7AB4" />
<path d="M369.86,201.97L369.86,208.22" style="fill:none;stroke:#FF7AB4" />
<path d="M367.36,201.97L372.36,201.97" style="fill:none;stroke:#FF7AB4" />
<path d="M367.36,208.22L372.36,208.22" style="fill:none;stroke:#FF7AB4" />
<path d="M373.32,207.72L373.32,208.88" style="fill:none;stroke:#FF7AB4" />
<path d="M370.82,207.72L375.82,207.72" style="fill:none;stroke:#FF7AB4" />
<path d="M370.82,208.88L375.82,208.88" style="fill:none;stroke:#FF7AB4" />
<path d="M376.78,210.63L376.78,215.62" style="fill:none;stroke:#FF7AB4" />
<path d="M374.28,210.63L379.28,210.63" style="fill:none;stroke:#FF7AB4" />
<path d="M374.28,215.62L379.28,215.62" style="fill:none;stroke:#FF7AB4" />
<path d="M380.23,208.41L380.23,212.31" style="fill:none;stroke:#FF7AB4" />
<path d="M377.73,208.41L382.73,208.41" style="fill:none;stroke:#FF7AB4" />
<path d="M377.73,212.31L382.73,212.31" style="fill:none;stroke:#FF7AB4" />
<path d="M383.69,209.48L383.69,219.96" style="fill:none;stroke:#FF7AB4" />
<path d="M381.19,209.48L386.19,209.48" style="fill:none;stroke:#FF7AB4" />
<path d="M381.19,219.96L386.19,219.96" style="fill:none;stroke:#FF7AB4" />
<path d="M387.15,216.87L387.15,218.58" style="fill:none;stroke:#FF7AB4" />
<path d="M384.65,216.87L389.65,216.87" style="fill:none;stroke:#FF7AB4" />
<path d="M384.65,218.58L389.65,218.58" style="fill:none;stroke:#FF7AB4" />
<path d="M390.6,217.02L390.6,222.51" style="fill:none;stroke:#FF7AB4" />
<path d="M388.1,217.02L393.1,217.02" style="fill:none;stroke:#FF7AB4" />
<path d="M388.1,222.51L393.1,222.51" style="fill:none;stroke:#FF7AB4" />
<path d="M394.06,217.14L394.06,220.87" style="fill:none;stroke:#FF7AB4" />
<path d="M391.56,217.14L396.56,217.14" style="fill:none;stroke:#FF7AB4" />
<path d="M391.56,220.87L396.56,220.87" style="fill:none;stroke:#FF7AB4" />
<path d="M397.51,218.99L397.51,230.35" style="fill:none;stroke:#FF7AB4" />
<path d="M395.01,218.99L400.01,218.99" style="fill:none;stroke:#FF7AB4" />
<path d="M395.01,230.35L400.01,230.35" style="fill:none;stroke:#FF7AB4" />
<path d="M400.97,225.6L400.97,230.39" style="fill:none;stroke:#FF7AB4" />
<path d="M398.47,225.6L403.47,225.6" style="fill:none;stroke:#FF7AB4" />
<path d="M398.47,230.39L403.47,230.39" style="fill:none;stroke:#FF7AB4" />
<path d="M404.43,225.53L404.43,230.9" style="fill:none;stroke:#FF7AB4" />
<path d="M401.93,225.53L406.93,225.53" style="fill:none;stroke:#FF7AB4" />
<path d="M401.93,230.9L406.93,230.9" style="fill:none;stroke:#FF7AB4" />
<path d="M407.88,228.89L407.88,234.32" style="fill:none;stroke:#FF7AB4" />
<path d="M405.38,228.89L410.38,228.89" style="fill:none;stroke:#FF7AB4" />
<path d="M405.38,234.32L410.38,234.32" style="fill:none;stroke:#FF7AB4" />
<path d="M411.34,227.21L411.34,233.57" style="fill:none;stroke:#FF7AB4" />
<path d="M408.84,227.21L413.84,227.21" style="fill:none;stroke:#FF7AB4" />
<path d="M408.84,233.57L413.84,233.57" style="fill:none;stroke:#FF7AB4" />
<path d="M414.8,231.51L414.8,240.17" style="fill:none;stroke:#FF7AB4" />
<path d="M412.3,231.51L417.3,231.51" style="fill:none;stroke:#FF7AB4" />
<path d="M412.3,240.17L417.3,240.17" style="fill:none;stroke:#FF7AB4" />
<path d="M418.25,234.53L418.25,241.01" style="fill:none;stroke:#FF7AB4" />
<path d="M415.75,234.53L420.75,234.53" style="fill:none;stroke:#FF7AB4" />
<path d="M415.75,241.01L420.75,241.01" style="fill:none;stroke:#FF7AB4" />
<path d="M421.71,235.57L421.71,238.44" style="fill:none;stroke:#FF7AB4" />
<path d="M419.21,235.57L424.21,235.57" style="fill:none;stroke:#FF7AB4" />
<path d="M419.21,238.44L424.21,238.44" style="fill:none;stroke:#FF7AB4" />
<path d="M425.17,235.48L425.17,242.92" style="fill:none;stroke:#FF7AB4" />
<path d="M422.67,235.48L427.67,235.48" style="fill:none;stroke:#FF7AB4" />
<path d="M422.67,242.92L427.67,242.92" style="fill:none;stroke:#FF7AB4" />
<path d="M428.62,248.35L428.62,252.39" style="fill:none;stroke:#FF7AB4" />
<path d="M426.12,248.35L431.12,248.35" style="fill:none;stroke:#FF7AB4" />
<path d="M426.12,252.39L431.12,252.39" style="fill:none;stroke:#FF7AB4" />
<path d="M432.08,254.86L432.08,260.13" style="fill:none;stroke:#FF7AB4" />
<path d="M429.58,254.86L434.58,254.86" style="fill:none;stroke:#FF7AB4" />
<path d="M429.58,260.13L434.58,260.13" style="fill:none;stroke:#FF7AB4" />
<path d="M435.54,261.61L435.54,263.37" style="fill:none;stroke:#FF7AB4" />
<path d="M433.04,261.61L438.04,261.61" style="fill:none;stroke:#FF7AB4" />
<path d="M433.04,263.37L438.04,263.37" style="fill:none;stroke:#FF7AB4" />
<path d="M438.99,259.89L438.99,262.26" style="fill:none;stroke:#FF7AB4" />
<path d="M436.49,259.89L441.49,259.89" style="fill:none;stroke:#FF7AB4" />
<path d="M436.49,262.26L441.49,262.26" style="fill:none;stroke:#FF7AB4" />
<path d="M442.45,263.63L442.45,270.68" style="fill:none;stroke:#FF7AB4" />
<path d="M439.95,263.63L444.95,263.63" style="fill:none;stroke:#FF7AB4" />
<path d="M439.95,270.68L444.95,270.68" style="fill:none;stroke:#FF7AB4" />
<path d="M445.91,274.05L445.91,276.45" style="fill:none;stroke:#FF7AB4" />
<path d="M443.41,274.05L448.41,274.05" style="fill:none;stroke:#FF7AB4" />
<path d="M443.41,276.45L448.41,276.45" style="fill:none;stroke:#FF7AB4" />
<path d="M449.36,274.37L449.36,278.55" style="fill:none;stroke:#FF7AB4" />
<path d="M446.86,274.37L451.86,274.37" style="fill:none;stroke:#FF7AB4" />
<path d="M446.86,278.55L451.86,278.55" style="fill:none;stroke:#FF7AB4" />
<path d="M452.82,284.37L452.82,285.4" style="fill:none;stroke:#FF7AB4" />
<path d="M450.32,284.37L455.32,284.37" style="fill:none;stroke:#FF7AB4" />
<path d="M450.32,285.4L455.32,285.4" style="fill:none;stroke:#FF7AB4" />
<path d="M456.28,290.77L456.28,292.71" style="fill:none;stroke:#FF7AB4" />
<path d="M453.78,290.77L458.78,290.77" style="fill:none;stroke:#FF7AB4" />
<path d="M453.78,292.71L458.78,292.71" style="fill:none;stroke:#FF7AB4" />
<path d="M459.73,290.29L459.73,297" style="fill:none;stroke:#FF7AB4" />
<path d="M457.23,290.29L462.23,290.29" style="fill:none;stroke:#FF7AB4" />
<path d="M457.23,297L462.23,297" style="fill:none;stroke:#FF7AB4" />
<path d="M463.19,303.68L463.19,305.53" style="fill:none;stroke:#FF7AB4" />
<path d="M460.69,303.68L465.69,303.68" style="fill:none;stroke:#FF7AB4" />
<path d="M460.69,305.53L465.69,305.53" style="fill:none;stroke:#FF7AB4" />
<path d="M466.65,308.44L466.65,310.81" style="fill:none;stroke:#FF7AB4" />
<path d="M464.15,308.44L469.15,308.44" style="fill:none;stroke:#FF7AB4" />
<path d="M464.15,310.81L469.15,310.81" style="fill:none;stroke:#FF7AB4" />
<path d="M470.1,312.32L470.1,322.79" style="fill:none;stroke:#FF7AB4" />
<path d="M467.6,312.32L472.6,312.32" style="fill:none;stroke:#FF7AB4" />
<path d="M467.6,322.79L472.6,322.79" style="fill:none;stroke:#FF7AB4" />
<path d="M473.56,314.44L473.56,320.58" style="fill:none;stroke:#FF7AB4" />
<path d="M471.06,314.44L476.06,314.44" style="fill:none;stroke:#FF7AB4" />
<path d="M471.06,320.58L476.06,320.58" style="fill:none;stroke:#FF7AB4" />
<path d="M477.02,326.99L477.02,349.58" style="fill:none;stroke:#FF7AB4" />
<path d="M474.52,326.99L479.52,326.99" style="fill:none;stroke:#FF7AB4" />
<path d="M474.52,349.58L479.52,349.58" style="fill:none;stroke:#FF7AB4" />
<path d="M480.47,355.2L480.47,357.04" style="fill:none;stroke:#FF7AB4" />
<path d="M477.97,355.2L482.97,355.2" style="fill:none;stroke:#FF7AB4" />
<path d="M477.97,357.04L482.97,357.04" style="fill:none;stroke:#FF7AB4" />
<path d="M483.93,359.32L483.93,365.61" style="fill:none;stroke:#FF7AB4" />
<path d="M481.43,359.32L486.43,359.32" style="fill:none;stroke:#FF7AB4" />
<path d="M481.43,365.61L486.43,365.61" style="fill:none;stroke:#FF7AB4" />
<path d="M487.39,371.17L487.39,380.52" style="fill:none;stroke:#FF7AB4" />
<path d="M484.89,371.17L489.89,371.17" style="fill:none;stroke:#FF7AB4" />
<path d="M484.89,380.52L489.89,380.52" style="fill:none;stroke:#FF7AB4" />
<path d="M490.84,388.74L490.84,402.89" style="fill:none;stroke:#FF7AB4" />
<path d="M488.34,388.74L493.34,388.74" style="fill:none;stroke:#FF7AB4" />
<path d="M488.34,402.89L493.34,402.89" style="fill:none;stroke:#FF7AB4" />
<path d="M494.3,402.94L494.3,409.96" style="fill:none;stroke:#FF7AB4" />
<path d="M491.8,402.94L496.8,402.94" style="fill:none;stroke:#FF7AB4" />
<path d="M491.8,409.96L496.8,409.96" style="fill:none;stroke:#FF7AB4" />
<path d="M497.76,416.42L497.76,418.66" style="fill:none;stroke:#FF7AB4" />
<path d="M495.26,416.42L500.26,416.42" style="fill:none;stroke:#FF7AB4" />
<path d="M495.26,418.66L500.26,418.66" style="fill:none;stroke:#FF7AB4" />
<path d="M501.21,443.58L501.21,449.89" style="fill:none;stroke:#FF7AB4" />
<path d="M498.71,443.58L503.71,443.58" style="fill:none;stroke:#FF7AB4" />
<path d="M498.71,449.89L503.71,449.89" style="fill:none;stroke:#FF7AB4" />
<path d="M504.67,460.83L504.67,478.12" style="fill:none;stroke:#FF7AB4" />
<path d="M502.17,460.83L507.17,460.83" style="fill:none;stroke:#FF7AB4" />
<path d="M502.17,478.12L507.17,478.12" style="fill:none;stroke:#FF7AB4" />
<path d="M508.12,481.41L508.12,510.81" style="fill:none;stroke:#FF7AB4" />
<path d="M505.62,481.41L510.62,481.41" style="fill:none;stroke:#FF7AB4" />
<path d="M505.62,510.81L510.62,510.81" style="fill:none;stroke:#FF7AB4" />
<path d="M511.58,521.79L511.58,534.3" style="fill:none;stroke:#FF7AB4" />
<path d="M509.08,521.79L514.08,521.79" style="fill:none;stroke:#FF7AB4" />
<path d="M509.08,534.3L514.08,534.3" style="fill:none;stroke:#FF7AB4" />
<path d="M515.04,562.18L515.04,583.76" style="fill:none;stroke:#FF7AB4" />
<path d="M512.54,562.18L517.54,562.18" style="fill:none;stroke:#FF7AB4" />
<path d="M512.54,583.76L517.54,583.76" style="fill:none;stroke:#FF7AB4" />
<path d="M518.49,594.76L518.49,605.72" style="fill:none;stroke:#FF7AB4" />
<path d="M515.99,594.76L520.99,594.76" style="fill:none;stroke:#FF7AB4" />
<path d="M515.99,605.72L520.99,605.72" style="fill:none;stroke:#FF7AB4" />
<path d="M521.95,641.88L521.95,651.9" style="fill:none;stroke:#FF7AB4" />
<path d="M519.45,641.88L524.45,641.88" style="fill:none;stroke:#FF7AB4" />
<path d="M519.45,651.9L524.45,651.9" style="fill:none;stroke:#FF7AB4" />
<path d="M525.41,672.59L525.41,686.36" style="fill:none;stroke:#FF7AB4" />
<path d="M522.91,672.59L527.91,672.59" style="fill:none;stroke:#FF7AB4" />
<path d="M522.91,686.36L527.91,686.36" style="fill:none;stroke:#FF7AB4" />
<path d="M528.86,702.59L528.86,709.7" style="fill:none;stroke:#FF7AB4" />
<path d="M526.36,702.59L531.36,702.59" style="fill:none;stroke:#FF7AB4" />
<path d="M526.36,709.7L531.36,709.7" style="fill:none;stroke:#FF7AB4" />
<path d="M532.32,742.12L532.32,751.19" style="fill:none;stroke:#FF7AB4" />
<path d="M529.82,742.12L534.82,742.12" style="fill:none;stroke:#FF7AB4" />
<path d="M529.82,751.19L534.82,751.19" style="fill:none;stroke:#FF7AB4" />
<path d="M535.78,753.09L535.78,774.19" style="fill:none;stroke:#FF7AB4" />
<path d="M533.28,753.09L538.28,753.09" style="fill:none;stroke:#FF7AB4" />
<path d="M533.28,774.19L538.28,774.19" style="fill:none;stroke:#FF7AB4" />
<path d="M539.23,771.18L539.23,780.12" style="fill:none;stroke:#FF7AB4" />
<path d="M536.73,771.18L541.73,771.18" style="fill:none;stroke:#FF7AB4" />
<path d="M536.73,780.12L541.73,780.12" style="fill:none;stroke:#FF7AB4" />
<path d="M542.69,798.54L542.69,801.45" style="fill:none;stroke:#FF7AB4" />
<path d="M540.19,798.54L545.19,798.54" style="fill:none;stroke:#FF7AB4" />
<path d="M540.19,801.45L545.19,801.45" style="fill:none;stroke:#FF7AB4" />
<path d="M546.15,788.72L546.15,804.55" style="fill:none;stroke:#FF7AB4" />
<path d="M543.65,788.72L548.65,788.72" style="fill:none;stroke:#FF7AB4" />
<path d="M543.65,804.55L548.65,804.55" style="fill:none;stroke:#FF7AB4" />
<path d="M549.6,797.21L549.6,807.58" style="fill:none;stroke:#FF7AB4" />
<path d="M547.1,797.21L552.1,797.21" style="fill:none;stroke:#FF7AB4" />
<path d="M547.1,807.58L552.1,807.58" style="fill:none;stroke:#FF7AB4" />
<path d="M553.06,800.43L553.06,807.57" style="fill:none;stroke:#FF7AB4" />
<path d="M550.56,800.43L555.56,800.43" style="fill:none;stroke:#FF7AB4" />
<path d="M550.56,807.57L555.56,807.57" style="fill:none;stroke:#FF7AB4" />
<path d="M556.52,786.68L556.52,811.43" style="fill:none;stroke:#FF7AB4" />
<path d="M554.02,786.68L559.02,786.68" style="fill:none;stroke:#FF7AB4" />
<path d="M554.02,811.43L559.02,811.43" style="fill:none;stroke:#FF7AB4" />
<path d="M559.97,773.49L559.97,814.53" style="fill:none;stroke:#FF7AB4" />
<path d="M557.47,773.49L562.47,773.49" style="fill:none;stroke:#FF7AB4" />
<path d="M557.47,814.53L562.47,814.53" style="fill:none;stroke:#FF7AB4" />
<path d="M563.43,751.09L563.43,802.64" style="fill:none;stroke:#FF7AB4" />
<path d="M560.93,751.09L565.93,751.09" style="fill:none;stroke:#FF7AB4" />
<path d="M560.93,802.64L565.93,802.64" style="fill:none;stroke:#FF7AB4" />
<path d="M566.89,703.4L566.89,782.78" style="fill:none;stroke:#FF7AB4" />
<path d="M564.39,703.4L569.39,703.4" style="fill:none;stroke:#FF7AB4" />
<path d="M564.39,782.78L569.39,782.78" style="fill:none;stroke:#FF7AB4" />
<path d="M570.34,701.66L570.34,795.5" style="fill:none;stroke:#FF7AB4" />
<path d="M567.84,701.66L572.84,701.66" style="fill:none;stroke:#FF7AB4" />
<path d="M567.84,795.5L572.84,795.5" style="fill:none;stroke:#FF7AB4" />
<path d="M573.8,651.43L573.8,744.21" style="fill:none;stroke:#FF7AB4" />
<path d="M571.3,651.43L576.3,651.43" style="fill:none;stroke:#FF7AB4" />
<path d="M571.3,744.21L576.3,744.21" style="fill:none;stroke:#FF7AB4" />
<path d="M577.26,574.05L577.26,724.41" style="fill:none;stroke:#FF7AB4" />
<path d="M574.76,574.05L579.76,574.05" style="fill:none;stroke:#FF7AB4" />
<path d="M574.76,724.41L579.76,724.41" style="fill:none;stroke:#FF7AB4" />
<path d="M580.71,561.03L580.71,715.73" style="fill:none;stroke:#FF7AB4" />
<path d="M578.21,561.03L583.21,561.03" style="fill:none;stroke:#FF7AB4" />
<path d="M578.21,715.73L583.21,715.73" style="fill:none;stroke:#FF7AB4" />
<path d="M584.17,558.63L584.17,686.8" style="fill:none;stroke:#FF7AB4" />
<path d="M581.67,558.63L586.67,558.63" style="fill:none;stroke:#FF7AB4" />
<path d="M581.67,686.8L586.67,686.8" style="fill:none;stroke:#FF7AB4" />
<path d="M587.63,545.57L587.63,705.62" style="fill:none;stroke:#FF7AB4" />
<path d="M585.13,545.57L590.13,545.57" style="fill:none;stroke:#FF7AB4" />
<path d="M585.13,705.62L590.13,705.62" style="fill:none;stroke:#FF7AB4" />
<path d="M591.08,447.7L591.08,666.54" style="fill:none;stroke:#FF7AB4" />
<path d="M588.58,447.7L593.58,447.7" style="fill:none;stroke:#FF7AB4" />
<path d="M588.58,666.54L593.58,666.54" style="fill:none;stroke:#FF7AB4" />
<path d="M594.54,431.53L594.54,645.97" style="fill:none;stroke:#FF7AB4" />
<path d="M592.04,431.53L597.04,431.53" style="fill:none;stroke:#FF7AB4" />
<path d="M592.04,645.97L597.04,645.97" style="fill:none;stroke:#FF7AB4" />
<path d="M598,406.92L598,580.04" style="fill:none;stroke:#FF7AB4" />
<path d="M595.5,406.92L600.5,406.92" style="fill:none;stroke:#FF7AB4" />
<path d="M595.5,580.04L600.5,580.04" style="fill:none;stroke:#FF7AB4" />
<path d="M601.45,398.3L601.45,590.23" style="fill:none;stroke:#FF7AB4" />
<path d="M598.95,398.3L603.95,398.3" style="fill:none;stroke:#FF7AB4" />
<path d="M598.95,590.23L603.95,590.23" style="fill:none;stroke:#FF7AB4" />
<path d="M604.91,440.77L604.91,581.91" style="fill:none;stroke:#FF7AB4" />
<path d="M602.41,440.77L607.41,440.77" style="fill:none;stroke:#FF7AB4" />
<path d="M602.41,581.91L607.41,581.91" style="fill:none;stroke:#FF7AB4" />
<path d="M608.36,508.85L608.36,671.54" style="fill:none;stroke:#FF7AB4" />
<path d="M605.86,508.85L610.86,508.85" style="fill:none;stroke:#FF7AB4" />
<path d="M605.86,671.54L610.86,671.54" style="fill:none;stroke:#FF7AB4" />
<path d="M611.82,513.97L611.82,596.09" style="fill:none;stroke:#FF7AB4" />
<path d="M609.32,513.97L614.32,513.97" style="fill:none;stroke:#FF7AB4" />
<path d="M609.32,596.09L614.32,596.09" style="fill:none;stroke:#FF7AB4" />
<path d="M615.28,484.48L615.28,605.82" style="fill:none;stroke:#FF7AB4" />
<path d="M612.78,484.48L617.78,484.48" style="fill:none;stroke:#FF7AB4" />
<path d="M612.78,605.82L617.78,605.82" style="fill:none;stroke:#FF7AB4" />
<path d="M618.73,552.35L618.73,762.24" style="fill:none;stroke:#FF7AB4" />
<path d="M616.23,552.35L621.23,552.35" style="fill:none;stroke:#FF7AB4" />
<path d="M616.23,762.24L621.23,762.24" style="fill:none;stroke:#FF7AB4" />
<path d="M622.19,580.32L622.19,695.98" style="fill:none;stroke:#FF7AB4" />
<path d="M619.69,580.32L624.69,580.32" style="fill:none;stroke:#FF7AB4" />
<path d="M619.69,695.98L624.69,695.98" style="fill:none;stroke:#FF7AB4" />
<path d="M625.65,562.64L625.65,693.93" style="fill:none;stroke:#FF7AB4" />
<path d="M623.15,562.64L628.15,562.64" style="fill:none;stroke:#FF7AB4" />
<path d="M623.15,693.93L628.15,693.93" style="fill:none;stroke:#FF7AB4" />
<path d="M629.1,620.89L629.1,678.7" style="fill:none;stroke:#FF7AB4" />
<path d="M626.6,620.89L631.6,620.89" style="fill:none;stroke:#FF7AB4" />
<path d="M626.6,678.7L631.6,678.7" style="fill:none;stroke:#FF7AB4" />
<path d="M632.56,642.06L632.56,676.43" style="fill:none;stroke:#FF7AB4" />
<path d="M630.06,642.06L635.06,642.06" style="fill:none;stroke:#FF7AB4" />
<path d="M630.06,676.43L635.06,676.43" style="fill:none;stroke:#FF7AB4" />
<path d="M636.02,633.96L636.02,656.92" style="fill:none;stroke:#FF7AB4" />
<path d="M633.52,633.96L638.52,633.96" style="fill:none;stroke:#FF7AB4" />
<path d="M633.52,656.92L638.52,656.92" style="fill:none;stroke:#FF7AB4" />
<path d="M639.47,638.01L639.47,648.92" style="fill:none;stroke:#FF7AB4" />
<path d="M636.97,638.01L641.97,638.01" style="fill:none;stroke:#FF7AB4" />
<path d="M636.97,648.92L641.97,648.92" style="fill:none;stroke:#FF7AB4" />
<path d="M642.93,666.35L642.93,669.73" style="fill:none;stroke:#FF7AB4" />
<path d="M640.43,666.35L645.43,666.35" style="fill:none;stroke:#FF7AB4" />
<path d="M640.43,669.73L645.43,669.73" style="fill:none;stroke:#FF7AB4" />
<path d="M646.39,635.11L646.39,668.59" style="fill:none;stroke:#FF7AB4" />
<path d="M643.89,635.11L648.89,635.11" style="fill:none;stroke:#FF7AB4" />
<path d="M643.89,668.59L648.89,668.59" style="fill:none;stroke:#FF7AB4" />
<path d="M649.84,632.94L649.84,695.34" style="fill:none;stroke:#FF7AB4" />
<path d="M647.34,632.94L652.34,632.94" style="fill:none;stroke:#FF7AB4" />
<path d="M647.34,695.34L652.34,695.34" style="fill:none;stroke:#FF7AB4" />
<path d="M653.3,615.86L653.3,658.45" style="fill:none;stroke:#FF7AB4" />
<path d="M650.8,615.86L655.8,615.86" style="fill:none;stroke:#FF7AB4" />
<path d="M650.8,658.45L655.8,658.45" style="fill:none;stroke:#FF7AB4" />
<path d="M656.76,688L656.76,696.23" style="fill:none;stroke:#FF7AB4" />
<path d="M654.26,688L659.26,688" style="fill:none;stroke:#FF7AB4" />
<path d="M654.26,696.23L659.26,696.23" style="fill:none;stroke:#FF7AB4" />
<path d="M660.21,677.83L660.21,720.26" style="fill:none;stroke:#FF7AB4" />
<path d="M657.71,677.83L662.71,677.83" style="fill:none;stroke:#FF7AB4" />
<path d="M657.71,720.26L662.71,720.26" style="fill:none;stroke:#FF7AB4" />
<path d="M663.67,671.59L663.67,699.41" style="fill:none;stroke:#FF7AB4" />
<path d="M661.17,671.59L666.17,671.59" style="fill:none;stroke:#FF7AB4" />
<path d="M661.17,699.41L666.17,699.41" style="fill:none;stroke:#FF7AB4" />
<path d="M667.13,596.37L667.13,623.76" style="fill:none;stroke:#FF7AB4" />
<path d="M664.63,596.37L669.63,596.37" style="fill:none;stroke:#FF7AB4" />
<path d="M664.63,623.76L669.63,623.76" style="fill:none;stroke:#FF7AB4" />
<path d="M670.58,596.17L670.58,612.06" style="fill:none;stroke:#FF7AB4" />
<path d="M668.08,596.17L673.08,596.17" style="fill:none;stroke:#FF7AB4" />
<path d="M668.08,612.06L673.08,612.06" style="fill:none;stroke:#FF7AB4" />
<path d="M674.04,508.03L674.04,559.81" style="fill:none;stroke:#FF7AB4" />
<path d="M671.54,508.03L676.54,508.03" style="fill:none;stroke:#FF7AB4" />
<path d="M671.54,559.81L676.54,559.81" style="fill:none;stroke:#FF7AB4" />
<path d="M677.5,457.3L677.5,532.49" style="fill:none;stroke:#FF7AB4" />
<path d="M675,457.3L680,457.3" style="fill:none;stroke:#FF7AB4" />
<path d="M675,532.49L680,532.49" style="fill:none;stroke:#FF7AB4" />
<path d="M680.95,420.81L680.95,449.9" style="fill:none;stroke:#FF7AB4" />
<path d="M678.45,420.81L683.45,420.81" style="fill:none;stroke:#FF7AB4" />
<path d="M678.45,449.9L683.45,449.9" style="fill:none;stroke:#FF7AB4" />
<path d="M684.41,377.54L684.41,433.24" style="fill:none;stroke:#FF7AB4" />
<path d="M681.91,377.54L686.91,377.54" style="fill:none;stroke:#FF7AB4" />
<path d="M681.91,433.24L686.91,433.24" style="fill:none;stroke:#FF7AB4" />
<path d="M687.87,305.23L687.87,423.63" style="fill:none;stroke:#FF7AB4" />
<path d="M685.37,305.23L690.37,305.23" style="fill:none;stroke:#FF7AB4" />
<path d="M685.37,423.63L690.37,423.63" style="fill:none;stroke:#FF7AB4" />
<path d="M691.32,287.37L691.32,430.51" style="fill:none;stroke:#FF7AB4" />
<path d="M688.82,287.37L693.82,287.37" style="fill:none;stroke:#FF7AB4" />
<path d="M688.82,430.51L693.82,430.51" style="fill:none;stroke:#FF7AB4" />
<path d="M694.78,308.47L694.78,395.3" style="fill:none;stroke:#FF7AB4" />
<path d="M692.28,308.47L697.28,308.47" style="fill:none;stroke:#FF7AB4" />
<path d="M692.28,395.3L697.28,395.3" style="fill:none;stroke:#FF7AB4" />
<path d="M698.24,357.41L698.24,405.51" style="fill:none;stroke:#FF7AB4" />
<path d="M695.74,357.41L700.74,357.41" style="fill:none;stroke:#FF7AB4" />
<path d="M695.74,405.51L700.74,405.51" style="fill:none;stroke:#FF7AB4" />
<path d="M701.69,362.97L701.69,399.9" style="fill:none;stroke:#FF7AB4" />
<path d="M699.19,362.97L704.19,362.97" style="fill:none;stroke:#FF7AB4" />
<path d="M699.19,399.9L704.19,399.9" style="fill:none;stroke:#FF7AB4" />
<path d="M705.15,343.03L705.15,363.95" style="fill:none;stroke:#FF7AB4" />
<path d="M702.65,343.03L707.65,343.03" style="fill:none;stroke:#FF7AB4" />
<path d="M702.65,363.95L707.65,363.95" style="fill:none;stroke:#FF7AB4" />
<path d="M708.6,324.8L708.6,342.03" style="fill:none;stroke:#FF7AB4" />
<path d="M706.1,324.8L711.1,324.8" style="fill:none;stroke:#FF7AB4" />
<path d="M706.1,342.03L711.1,342.03" style="fill:none;stroke:#FF7AB4" />
<path d="M712.06,306.56L712.06,325.16" style="fill:none;stroke:#FF7AB4" />
<path d="M709.56,306.56L714.56,306.56" style="fill:none;stroke:#FF7AB4" />
<path d="M709.56,325.16L714.56,325.16" style="fill:none;stroke:#FF7AB4" />
<path d="M715.52,290.52L715.52,296.99" style="fill:none;stroke:#FF7AB4" />
<path d="M713.02,290.52L718.02,290.52" style="fill:none;stroke:#FF7AB4" />
<path d="M713.02,296.99L718.02,296.99" style="fill:none;stroke:#FF7AB4" />
<path d="M718.97,278.89L718.97,285.35" style="fill:none;stroke:#FF7AB4" />
<path d="M716.47,278.89L721.47,278.89" style="fill:none;stroke:#FF7AB4" />
<path d="M716.47,285.35L721.47,285.35" style="fill:none;stroke:#FF7AB4" />
<path d="M722.43,267.95L722.43,271.6" style="fill:none;stroke:#FF7AB4" />
<path d="M719.93,267.95L724.93,267.95" style="fill:none;stroke:#FF7AB4" />
<path d="M719.93,271.6L724.93,271.6" style="fill:none;stroke:#FF7AB4" />
<path d="M725.89,261.14L725.89,263.01" style="fill:none;stroke:#FF7AB4" />
<path d="M723.39,261.14L728.39,261.14" style="fill:none;stroke:#FF7AB4" />
<path d="M723.39,263.01L728.39,263.01" style="fill:none;stroke:#FF7AB4" />
<path d="M729.34,241.14L729.34,252.33" style="fill:none;stroke:#FF7AB4" />
<path d="M726.84,241.14L731.84,241.14" style="fill:none;stroke:#FF7AB4" />
<path d="M726.84,252.33L731.84,252.33" style="fill:none;stroke:#FF7AB4" />
<path d="M732.8,235.46L732.8,245.14" style="fill:none;stroke:#FF7AB4" />
<path d="M730.3,235.46L735.3,235.46" style="fill:none;stroke:#FF7AB4" />
<path d="M730.3,245.14L735.3,245.14" style="fill:none;stroke:#FF7AB4" />
<path d="M736.26,218.8L736.26,228.32" style="fill:none;stroke:#FF7AB4" />
<path d="M733.76,218.8L738.76,218.8" style="fill:none;stroke:#FF7AB4" />
<path d="M733.76,228.32L738.76,228.32" style="fill:none;stroke:#FF7AB4" />
<path d="M739.71,210.77L739.71,237.82" style="fill:none;stroke:#FF7AB4" />
<path d="M737.21,210.77L742.21,210.77" style="fill:none;stroke:#FF7AB4" />
<path d="M737.21,237.82L742.21,237.82" style="fill:none;stroke:#FF7AB4" />
<path d="M743.17,213.84L743.17,228.51" style="fill:none;stroke:#FF7AB4" />
<path d="M740.67,213.84L745.67,213.84" style="fill:none;stroke:#FF7AB4" />
<path d="M740.67,228.51L745.67,228.51" style="fill:none;stroke:#FF7AB4" />
<path d="M746.63,201.04L746.63,219.47" style="fill:none;stroke:#FF7AB4" />
<path d="M744.13,201.04L749.13,201.04" style="fill:none;stroke:#FF7AB4" />
<path d="M744.13,219.47L749.13,219.47" style="fill:none;stroke:#FF7AB4" />
<path d="M750.08,195.95L750.08,223.85" style="fill:none;stroke:#FF7AB4" />
<path d="M747.58,195.95L752.58,195.95" style="fill:none;stroke:#FF7AB4" />
<path d="M747.58,223.85L752.58,223.85" style="fill:none;stroke:#FF7AB4" />
<path d="M753.54,194.88L753.54,213.13" style="fill:none;stroke:#FF7AB4" />
<path d="M751.04,194.88L756.04,194.88" style="fill:none;stroke:#FF7AB4" />
<path d="M751.04,213.13L756.04,213.13" style="fill:none;stroke:#FF7AB4" />
<path d="M757,189.52L757,205.36" style="fill:none;stroke:#FF7AB4" />
<path d="M754.5,189.52L759.5,189.52" style="fill:none;stroke:#FF7AB4" />
<path d="M754.5,205.36L759.5,205.36" style="fill:none;stroke:#FF7AB4" />
<path d="M760.45,188.11L760.45,202.8" style="fill:none;stroke:#FF7AB4" />
<path d="M757.95,188.11L762.95,188.11" style="fill:none;stroke:#FF7AB4" />
<path d="M757.95,202.8L762.95,202.8" style="fill:none;stroke:#FF7AB4" />
<path d="M763.91,176.69L763.91,196.23" style="fill:none;stroke:#FF7AB4" />
<path d="M761.41,176.69L766.41,176.69" style="fill:none;stroke:#FF7AB4" />
<path d="M761.41,196.23L766.41,196.23" style="fill:none;stroke:#FF7AB4" />
<path d="M767.37,167.45L767.37,191.97" style="fill:none;stroke:#FF7AB4" />
<path d="M764.87,167.45L769.87,167.45" style="fill:none;stroke:#FF7AB4" />
<path d="M764.87,191.97L769.87,191.97" style="fill:none;stroke:#FF7AB4" />
<path d="M770.82,172.95L770.82,198.58" style="fill:none;stroke:#FF7AB4" />
<path d="M768.32,172.95L773.32,172.95" style="fill:none;stroke:#FF7AB4" />
<path d="M768.32,198.58L773.32,198.58" style="fill:none;stroke:#FF7AB4" />
<path d="M774.28,182.36L774.28,201.42" style="fill:none;stroke:#FF7AB4" />
<path d="M771.78,182.36L776.78,182.36" style="fill:none;stroke:#FF7AB4" />
<path d="M771.78,201.42L776.78,201.42" style="fill:none;stroke:#FF7AB4" />
<path d="M777.74,186.02L777.74,194.68" style="fill:none;stroke:#FF7AB4" />
<path d="M775.24,186.02L780.24,186.02" style="fill:none;stroke:#FF7AB4" />
<path d="M775.24,194.68L780.24,194.68" style="fill:none;stroke:#FF7AB4" />
<path d="M781.19,187.74L781.19,198.1" style="fill:none;stroke:#FF7AB4" />
<path d="M778.69,187.74L783.69,187.74" style="fill:none;stroke:#FF7AB4" />
<path d="M778.69,198.1L783.69,198.1" style="fill:none;stroke:#FF7AB4" />
<path d="M784.65,194.92L784.65,198.44" style="fill:none;stroke:#FF7AB4" />
<path d="M782.15,194.92L787.15,194.92" style="fill:none;stroke:#FF7AB4" />
<path d="M782.15,198.44L787.15,198.44" style="fill:none;stroke:#FF7AB4" />
<path d="M788.11,190.1L788.11,195.44" style="fill:none;stroke:#FF7AB4" />
<path d="M785.61,190.1L790.61,190.1" style="fill:none;stroke:#FF7AB4" />
<path d="M785.61,195.44L790.61,195.44" style="fill:none;stroke:#FF7AB4" />
<path d="M791.56,186.33L791.56,191.68" style="fill:none;stroke:#FF7AB4" />
<path d="M789.06,186.33L794.06,186.33" style="fill:none;stroke:#FF7AB4" />
<path d="M789.06,191.68L794.06,191.68" style="fill:none;stroke:#FF7AB4" />
<path d="M795.02,190.61L795.02,195.45" style="fill:none;stroke:#FF7AB4" />
<path d="M792.52,190.61L797.52,190.61" style="fill:none;stroke:#FF7AB4" />
<path d="M792.52,195.45L797.52,195.45" style="fill:none;stroke:#FF7AB4" />
<path d="M798.48,189.3L798.48,192.73" style="fill:none;stroke:#FF7AB4" />
<path d="M795.98,189.3L800.98,189.3" style="fill:none;stroke:#FF7AB4" />
<path d="M795.98,192.73L800.98,192.73" style="fill:none;stroke:#FF7AB4" />
<path d="M801.93,189.02L801.93,190.41" style="fill:none;stroke:#FF7AB4" />
<path d="M799.43,189.02L804.43,189.02" style="fill:none;stroke:#FF7AB4" />
<path d="M799.43,190.41L804.43,190.41" style="fill:none;stroke:#FF7AB4" />
<path d="M805.39,179.2L805.39,188.47" style="fill:none;stroke:#FF7AB4" />
<path d="M802.89,179.2L807.89,179.2" style="fill:none;stroke:#FF7AB4" />
<path d="M802.89,188.47L807.89,188.47" style="fill:none;stroke:#FF7AB4" />
<path d="M808.85,175.27L808.85,191.73" style="fill:none;stroke:#FF7AB4" />
<path d="M806.35,175.27L811.35,175.27" style="fill:none;stroke:#FF7AB4" />
<path d="M806.35,191.73L811.35,191.73" style="fill:none;stroke:#FF7AB4" />
<path d="M812.3,176.07L812.3,194.88" style="fill:none;stroke:#FF7AB4" />
<path d="M809.8,176.07L814.8,176.07" style="fill:none;stroke:#FF7AB4" />
<path d="M809.8,194.88L814.8,194.88" style="fill:none;stroke:#FF7AB4" />
<path d="M815.76,188.43L815.76,198.49" style="fill:none;stroke:#FF7AB4" />
<path d="M813.26,188.43L818.26,188.43" style="fill:none;stroke:#FF7AB4" />
<path d="M813.26,198.49L818.26,198.49" style="fill:none;stroke:#FF7AB4" />
<path d="M819.21,190L819.21,193.58" style="fill:none;stroke:#FF7AB4" />
<path d="M816.71,190L821.71,190" style="fill:none;stroke:#FF7AB4" />
<path d="M816.71,193.58L821.71,193.58" style="fill:none;stroke:#FF7AB4" />
<path d="M822.67,189.63L822.67,190.8" style="fill:none;stroke:#FF7AB4" />
<path d="M820.17,189.63L825.17,189.63" style="fill:none;stroke:#FF7AB4" />
<path d="M820.17,190.8L825.17,190.8" style="fill:none;stroke:#FF7AB4" />
<path d="M826.13,183.79L826.13,191.76" style="fill:none;stroke:#FF7AB4" />
<path d="M823.63,183.79L828.63,183.79" style="fill:none;stroke:#FF7AB4" />
<path d="M823.63,191.76L828.63,191.76" style="fill:none;stroke:#FF7AB4" />
<path d="M829.58,185.37L829.58,190.36" style="fill:none;stroke:#FF7AB4" />
<path d="M827.08,185.37L832.08,185.37" style="fill:none;stroke:#FF7AB4" />
<path d="M827.08,190.36L832.08,190.36" style="fill:none;stroke:#FF7AB4" />
<path d="M833.04,176.49L833.04,180.47" style="fill:none;stroke:#FF7AB4" />
<path d="M830.54,176.49L835.54,176.49" style="fill:none;stroke:#FF7AB4" />
<path d="M830.54,180.47L835.54,180.47" style="fill:none;stroke:#FF7AB4" />
<path d="M836.5,175.03L836.5,189.89" style="fill:none;stroke:#FF7AB4" />
<path d="M834,175.03L839,175.03" style="fill:none;stroke:#FF7AB4" />
<path d="M834,189.89L839,189.89" style="fill:none;stroke:#FF7AB4" />
<path d="M839.95,176.77L839.95,187.23" style="fill:none;stroke:#FF7AB4" />
<path d="M837.45,176.77L842.45,176.77" style="fill:none;stroke:#FF7AB4" />
<path d="M837.45,187.23L842.45,187.23" style="fill:none;stroke:#FF7AB4" />
<path d="M843.41,174.74L843.41,183.45" style="fill:none;stroke:#FF7AB4" />
<path d="M840.91,174.74L845.91,174.74" style="fill:none;stroke:#FF7AB4" />
<path d="M840.91,183.45L845.91,183.45" style="fill:none;stroke:#FF7AB4" />
<path d="M846.87,177.58L846.87,187.05" style="fill:none;stroke:#FF7AB4" />
<path d="M844.37,177.58L849.37,177.58" style="fill:none;stroke:#FF7AB4" />
<path d="M844.37,187.05L849.37,187.05" style="fill:none;stroke:#FF7AB4" />
<path d="M850.32,178.52L850.32,181.76" style="fill:none;stroke:#FF7AB4" />
<path d="M847.82,178.52L852.82,178.52" style="fill:none;stroke:#FF7AB4" />
<path d="M847.82,181.76L852.82,181.76" style="fill:none;stroke:#FF7AB4" />
<path d="M853.78,175.51L853.78,179.84" style="fill:none;stroke:#FF7AB4" />
<path d="M851.28,175.51L856.28,175.51" style="fill:none;stroke:#FF7AB4" />
<path d="M851.28,179.84L856.28,179.84" style="fill:none;stroke:#FF7AB4" />
<path d="M857.24,172.25L857.24,185.75" style="fill:none;stroke:#FF7AB4" />
<path d="M854.74,172.25L859.74,172.25" style="fill:none;stroke:#FF7AB4" />
<path d="M854.74,185.75L859.74,185.75" style="fill:none;stroke:#FF7AB4" />
<path d="M860.69,170.24L860.69,176.67" style="fill:none;stroke:#FF7AB4" />
<path d="M858.19,170.24L863.19,170.24" style="fill:none;stroke:#FF7AB4" />
<path d="M858.19,176.67L863.19,176.67" style="fill:none;stroke:#FF7AB4" />
<path d="M864.15,164.11L864.15,173.04" style="fill:none;stroke:#FF7AB4" />
<path d="M861.65,164.11L866.65,164.11" style="fill:none;stroke:#FF7AB4" />
<path d="M861.65,173.04L866.65,173.04" style="fill:none;stroke:#FF7AB4" />
<path d="M867.61,160.57L867.61,168.78" style="fill:none;stroke:#FF7AB4" />
<path d="M865.11,160.57L870.11,160.57" style="fill:none;stroke:#FF7AB4" />
<path d="M865.11,168.78L870.11,168.78" style="fill:none;stroke:#FF7AB4" />
<path d="M871.06,154.08L871.06,168.31" style="fill:none;stroke:#FF7AB4" />
<path d="M868.56,154.08L873.56,154.08" style="fill:none;stroke:#FF7AB4" />
<path d="M868.56,168.31L873.56,168.31" style="fill:none;stroke:#FF7AB4" />
<path d="M874.52,153.94L874.52,168.96" style="fill:none;stroke:#FF7AB4" />
<path d="M872.02,153.94L877.02,153.94" style="fill:none;stroke:#FF7AB4" />
<path d="M872.02,168.96L877.02,168.96" style="fill:none;stroke:#FF7AB4" />
<path d="M877.98,150.56L877.98,166.56" style="fill:none;stroke:#FF7AB4" />
<path d="M875.48,150.56L880.48,150.56" style="fill:none;stroke:#FF7AB4" />
<path d="M875.48,166.56L880.48,166.56" style="fill:none;stroke:#FF7AB4" />
<path d="M881.43,155.21L881.43,167.48" style="fill:none;stroke:#FF7AB4" />
<path d="M878.93,155.21L883.93,155.21" style="fill:none;stroke:#FF7AB4" />
<path d="M878.93,167.48L883.93,167.48" style="fill:none;stroke:#FF7AB4" />
<path d="M884.89,158.9L884.89,171.76" style="fill:none;stroke:#FF7AB4" />
<path d="M882.39,158.9L887.39,158.9" style="fill:none;stroke:#FF7AB4" />
<path d="M882.39,171.76L887.39,171.76" style="fill:none;stroke:#FF7AB4" />
<path d="M888.35,153.22L888.35,167.31" style="fill:none;stroke:#FF7AB4" />
<path d="M885.85,153.22L890.85,153.22" style="fill:none;stroke:#FF7AB4" />
<path d="M885.85,167.31L890.85,167.31" style="fill:none;stroke:#FF7AB4" />
<path d="M891.8,152.57L891.8,166.75" style="fill:none;stroke:#FF7AB4" />
<path d="M889.3,152.57L894.3,152.57" style="fill:none;stroke:#FF7AB4" />
<path d="M889.3,166.75L894.3,166.75" style="fill:none;stroke:#FF7AB4" />
<path d="M895.26,147.05L895.26,161.01" style="fill:none;stroke:#FF7AB4" />
<path d="M892.76,147.05L897.76,147.05" style="fill:none;stroke:#FF7AB4" />
<path d="M892.76,161.01L897.76,161.01" style="fill:none;stroke:#FF7AB4" />
<path d="M898.72,141.11L898.72,157.67" style="fill:none;stroke:#FF7AB4" />
<path d="M896.22,141.11L901.22,141.11" style="fill:none;stroke:#FF7AB4" />
<path d="M896.22,157.67L901.22,157.67" style="fill:none;stroke:#FF7AB4" />
<path d="M902.17,144.76L902.17,155.65" style="fill:none;stroke:#FF7AB4" />
<path d="M899.67,144.76L904.67,144.76" style="fill:none;stroke:#FF7AB4" />
<path d="M899.67,155.65L904.67,155.65" style="fill:none;stroke:#FF7AB4" />
<path d="M905.63,142.74L905.63,156.07" style="fill:none;stroke:#FF7AB4" />
<path d="M903.13,142.74L908.13,142.74" style="fill:none;stroke:#FF7AB4" />
<path d="M903.13,156.07L908.13,156.07" style="fill:none;stroke:#FF7AB4" />
<path d="M909.09,139.07L909.09,155.97" style="fill:none;stroke:#FF7AB4" />
<path d="M906.59,139.07L911.59,139.07" style="fill:none;stroke:#FF7AB4" />
<path d="M906.59,155.97L911.59,155.97" style="fill:none;stroke:#FF7AB4" />
<path d="M912.54,136.18L912.54,149.9" style="fill:none;stroke:#FF7AB4" />
<path d="M910.04,136.18L915.04,136.18" style="fill:none;stroke:#FF7AB4" />
<path d="M910.04,149.9L915.04,149.9" style="fill:none;stroke:#FF7AB4" />
<path d="M916,137.98L916,149" style="fill:none;stroke:#FF7AB4" />
<path d="M913.5,137.98L918.5,137.98" style="fill:none;stroke:#FF7AB4" />
<path d="M913.5,149L918.5,149" style="fill:none;stroke:#FF7AB4" />
<path d="M919.45,134.3L919.45,146.78" style="fill:none;stroke:#FF7AB4" />
<path d="M916.95,134.3L921.95,134.3" style="fill:none;stroke:#FF7AB4" />
<path d="M916.95,146.78L921.95,146.78" style="fill:none;stroke:#FF7AB4" />
<path d="M922.91,138.31L922.91,143.85" style="fill:none;stroke:#FF7AB4" />
<path d="M920.41,138.31L925.41,138.31" style="fill:none;stroke:#FF7AB4" />
<path d="M920.41,143.85L925.41,143.85" style="fill:none;stroke:#FF7AB4" />
<path d="M926.37,137.62L926.37,139.78" style="fill:none;stroke:#FF7AB4" />
<path d="M923.87,137.62L928.87,137.62" style="fill:none;stroke:#FF7AB4" />
<path d="M923.87,139.78L928.87,139.78" style="fill:none;stroke:#FF7AB4" />
<path d="M929.82,135.32L929.82,139.29" style="fill:none;stroke:#FF7AB4" />
<path d="M927.32,135.32L932.32,135.32" style="fill:none;stroke:#FF7AB4" />
<path d="M927.32,139.29L932.32,139.29" style="fill:none;stroke:#FF7AB4" />
<path d="M933.28,136.88L933.28,138.74" style="fill:none;stroke:#FF7AB4" />
<path d="M930.78,136.88L935.78,136.88" style="fill:none;stroke:#FF7AB4" />
<path d="M930.78,138.74L935.78,138.74" style="fill:none;stroke:#FF7AB4" />
<path d="M936.74,139.08L936.74,142.1" style="fill:none;stroke:#FF7AB4" />
<path d="M934.24,139.08L939.24,139.08" style="fill:none;stroke:#FF7AB4" />
<path d="M934.24,142.1L939.24,142.1" style="fill:none;stroke:#FF7AB4" />
<path d="M940.19,144.22L940.19,148.67" style="fill:none;stroke:#FF7AB4" />
<path d="M937.69,144.22L942.69,144.22" style="fill:none;stroke:#FF7AB4" />
<path d="M937.69,148.67L942.69,148.67" style="fill:none;stroke:#FF7AB4" />
<path d="M943.65,144.29L943.65,147.45" style="fill:none;stroke:#FF7AB4" />
<path d="M941.15,144.29L946.15,144.29" style="fill:none;stroke:#FF7AB4" />
<path d="M941.15,147.45L946.15,147.45" style="fill:none;stroke:#FF7AB4" />
<path d="M947.11,146.11L947.11,148.76" style="fill:none;stroke:#FF7AB4" />
<path d="M944.61,146.11L949.61,146.11" style="fill:none;stroke:#FF7AB4" />
<path d="M944.61,148.76L949.61,148.76" style="fill:none;stroke:#FF7AB4" />
<path d="M950.56,148.47L950.56,153.01" style="fill:none;stroke:#FF7AB4" />
<path d="M948.06,148.47L953.06,148.47" style="fill:none;stroke:#FF7AB4" />
<path d="M948.06,153.01L953.06,153.01" style="fill:none;stroke:#FF7AB4" />
<path d="M954.02,150.03L954.02,155.39" style="fill:none;stroke:#FF7AB4" />
<path d="M951.52,150.03L956.52,150.03" style="fill:none;stroke:#FF7AB4" />
<path d="M951.52,155.39L956.52,155.39" style="fill:none;stroke:#FF7AB4" />
<path d="M957.48,149.02L957.48,154.13" style="fill:none;stroke:#FF7AB4" />
<path d="M954.98,149.02L959.98,149.02" style="fill:none;stroke:#FF7AB4" />
<path d="M954.98,154.13L959.98,154.13" style="fill:none;stroke:#FF7AB4" />
<path d="M960.93,150.79L960.93,154.7" style="fill:none;stroke:#FF7AB4" />
<path d="M958.43,150.79L963.43,150.79" style="fill:none;stroke:#FF7AB4" />
<path d="M958.43,154.7L963.43,154.7" style="fill:none;stroke:#FF7AB4" />
<path d="M964.39,152.76L964.39,154.47" style="fill:none;stroke:#FF7AB4" />
<path d="M961.89,152.76L966.89,152.76" style="fill:none;stroke:#FF7AB4" />
<path d="M961.89,154.47L966.89,154.47" style="fill:none;stroke:#FF7AB4" />
<path d="M967.85,150.04L967.85,151.14" style="fill:none;stroke:#FF7AB4" />
<path d="M965.35,150.04L970.35,150.04" style="fill:none;stroke:#FF7AB4" />
<path d="M965.35,151.14L970.35,151.14" style="fill:none;stroke:#FF7AB4" />
<path d="M971.3,148.06L971.3,149.72" style="fill:none;stroke:#FF7AB4" />
<path d="M968.8,148.06L973.8,148.06" style="fill:none;stroke:#FF7AB4" />
<path d="M968.8,149.72L973.8,149.72" style="fill:none;stroke:#FF7AB4" />
<path d="M974.76,145.14L974.76,147.32" style="fill:none;stroke:#FF7AB4" />
<path d="M972.26,145.14L977.26,145.14" style="fill:none;stroke:#FF7AB4" />
<path d="M972.26,147.32L977.26,147.32" style="fill:none;stroke:#FF7AB4" />
<path d="M978.22,141.62L978.22,146.11" style="fill:none;stroke:#FF7AB4" />
<path d="M975.72,141.62L980.72,141.62" style="fill:none;stroke:#FF7AB4" />
<path d="M975.72,146.11L980.72,146.11" style="fill:none;stroke:#FF7AB4" />
<path d="M981.67,140.43L981.67,143.43" style="fill:none;stroke:#FF7AB4" />
<path d="M979.17,140.43L984.17,140.43" style="fill:none;stroke:#FF7AB4" />
<path d="M979.17,143.43L984.17,143.43" style="fill:none;stroke:#FF7AB4" />
<path d="M985.13,138.53L985.13,142.39" style="fill:none;stroke:#FF7AB4" />
<path d="M982.63,138.53L987.63,138.53" style="fill:none;stroke:#FF7AB4" />
<path d="M982.63,142.39L987.63,142.39" style="fill:none;stroke:#FF7AB4" />
<path d="M988.59,136.23L988.59,140.94" style="fill:none;stroke:#FF7AB4" />
<path d="M986.09,136.23L991.09,136.23" style="fill:none;stroke:#FF7AB4" />
<path d="M986.09,140.94L991.09,140.94" style="fill:none;stroke:#FF7AB4" />
<path d="M992.04,136.2L992.04,140.61" style="fill:none;stroke:#FF7AB4" />
<path d="M989.54,136.2L994.54,136.2" style="fill:none;stroke:#FF7AB4" />
<path d="M989.54,140.61L994.54,140.61" style="fill:none;stroke:#FF7AB4" />
<path d="M995.5,137.22L995.5,141.59" style="fill:none;stroke:#FF7AB4" />
<path d="M993,137.22L998,137.22" style="fill:none;stroke:#FF7AB4" />
<path d="M993,141.59L998,141.59" style="fill:none;stroke:#FF7AB4" />
<path d="M998.96,138.82L998.96,142.57" style="fill:none;stroke:#FF7AB4" />
<path d="M996.46,138.82L1001.5,138.82" style="fill:none;stroke:#FF7AB4" />
<path d="M996.46,142.57L1001.5,142.57" style="fill:none;stroke:#FF7AB4" />
<path d="M1002.4,136.67L1002.4,140.89" style="fill:none;stroke:#FF7AB4" />
<path d="M999.91,136.67L1004.9,136.67" style="fill:none;stroke:#FF7AB4" />
<path d="M999.91,140.89L1004.9,140.89" style="fill:none;stroke:#FF7AB4" />
<path d="M1005.9,136.06L1005.9,140.92" style="fill:none;stroke:#FF7AB4" />
<path d="M1003.4,136.06L1008.4,136.06" style="fill:none;stroke:#FF7AB4" />
<path d="M1003.4,140.92L1008.4,140.92" style="fill:none;stroke:#FF7AB4" />
<path d="M1009.3,137.75L1009.3,144.87" style="fill:none;stroke:#FF7AB4" />
<path d="M1006.8,137.75L1011.8,137.75" style="fill:none;stroke:#FF7AB4" />
<path d="M1006.8,144.87L1011.8,144.87" style="fill:none;stroke:#FF7AB4" />
<path d="M1012.8,138.29L1012.8,144.52" style="fill:none;stroke:#FF7AB4" />
<path d="M1010.3,138.29L1015.3,138.29" style="fill:none;stroke:#FF7AB4" />
<path d="M1010.3,144.52L1015.3,144.52" style="fill:none;stroke:#FF7AB4" />
<path d="M1016.2,137.75L1016.2,144.65" style="fill:none;stroke:#FF7AB4" />
<path d="M1013.7,137.75L1018.7,137.75" style="fill:none;stroke:#FF7AB4" />
<path d="M1013.7,144.65L1018.7,144.65" style="fill:none;stroke:#FF7AB4" />
<path d="M1019.7,135.26L1019.7,145.29" style="fill:none;stroke:#FF7AB4" />
<path d="M1017.2,135.26L1022.2,135.26" style="fill:none;stroke:#FF7AB4" />
<path d="M1017.2,145.29L1022.2,145.29" style="fill:none;stroke:#FF7AB4" />
<path d="M1023.2,139.01L1023.2,146.28" style="fill:none;stroke:#FF7AB4" />
<path d="M1020.7,139.01L1025.7,139.01" style="fill:none;stroke:#FF7AB4" />
<path d="M1020.7,146.28L1025.7,146.28" style="fill:none;stroke:#FF7AB4" />
<path d="M1026.6,138.55L1026.6,145.18" style="fill:none;stroke:#FF7AB4" />
<path d="M1024.1,138.55L1029.1,138.55" style="fill:none;stroke:#FF7AB4" />
<path d="M1024.1,145.18L1029.1,145.18" style="fill:none;stroke:#FF7AB4" />
<path d="M1030.1,138.08L1030.1,142.11" style="fill:none;stroke:#FF7AB4" />
<path d="M1027.6,138.08L1032.6,138.08" style="fill:none;stroke:#FF7AB4" />
<path d="M1027.6,142.11L1032.6,142.11" style="fill:none;stroke:#FF7AB4" />
<path d="M1033.5,139.67L1033.5,143.61" style="fill:none;stroke:#FF7AB4" />
<path d="M1031,139.67L1036,139.67" style="fill:none;stroke:#FF7AB4" />
<path d="M1031,143.61L1036,143.61" style="fill:none;stroke:#FF7AB4" />
<path d="M1037,140.79L1037,143.64" style="fill:none;stroke:#FF7AB4" />
<path d="M1034.5,140.79L1039.5,140.79" style="fill:none;stroke:#FF7AB4" />
<path d="M1034.5,143.64L1039.5,143.64" style="fill:none;stroke:#FF7AB4" />
<path d="M1040.4,138.2L1040.4,144.96" style="fill:none;stroke:#FF7AB4" />
<path d="M1037.9,138.2L1042.9,138.2" style="fill:none;stroke:#FF7AB4" />
<path d="M1037.9,144.96L1042.9,144.96" style="fill:none;stroke:#FF7AB4" />
<path d="M1043.9,136.14L1043.9,145.28" style="fill:none;stroke:#FF7AB4" />
<path d="M1041.4,136.14L1046.4,136.14" style="fill:none;stroke:#FF7AB4" />
<path d="M1041.4,145.28L1046.4,145.28" style="fill:none;stroke:#FF7AB4" />
<path d="M1047.3,134.81L1047.3,145.41" style="fill:none;stroke:#FF7AB4" />
<path d="M1044.8,134.81L1049.8,134.81" style="fill:none;stroke:#FF7AB4" />
<path d="M1044.8,145.41L1049.8,145.41" style="fill:none;stroke:#FF7AB4" />
<path d="M1050.8,132.43L1050.8,142.86" style="fill:none;stroke:#FF7AB4" />
<path d="M1048.3,132.43L1053.3,132.43" style="fill:none;stroke:#FF7AB4" />
<path d="M1048.3,142.86L1053.3,142.86" style="fill:none;stroke:#FF7AB4" />
<path d="M1054.3,134.92L1054.3,146.72" style="fill:none;stroke:#FF7AB4" />
<path d="M1051.8,134.92L1056.8,134.92" style="fill:none;stroke:#FF7AB4" />
<path d="M1051.8,146.72L1056.8,146.72" style="fill:none;stroke:#FF7AB4" />
<path d="M1057.7,136.42L1057.7,145.74" style="fill:none;stroke:#FF7AB4" />
<path d="M1055.2,136.42L1060.2,136.42" style="fill:none;stroke:#FF7AB4" />
<path d="M1055.2,145.74L1060.2,145.74" style="fill:none;stroke:#FF7AB4" />
<path d="M1061.2,136.4L1061.2,137.15" style="fill:none;stroke:#FF7AB4" />
<path d="M1058.7,136.4L1063.7,136.4" style="fill:none;stroke:#FF7AB4" />
<path d="M1058.7,137.15L1063.7,137.15" style="fill:none;stroke:#FF7AB4" />
<path d="M1064.6,137.81L1064.6,144.46" style="fill:none;stroke:#FF7AB4" />
<path d="M1062.1,137.81L1067.1,137.81" style="fill:none;stroke:#FF7AB4" />
<path d="M1062.1,144.46L1067.1,144.46" style="fill:none;stroke:#FF7AB4" />
<path d="M1068.1,135.55L1068.1,145.16" style="fill:none;stroke:#FF7AB4" />
<path d="M1065.6,135.55L1070.6,135.55" style="fill:none;stroke:#FF7AB4" />
<path d="M1065.6,145.16L1070.6,145.16" style="fill:none;stroke:#FF7AB4" />
<path d="M1071.5,137.77L1071.5,144.42" style="fill:none;stroke:#FF7AB4" />
<path d="M1069,137.77L1074,137.77" style="fill:none;stroke:#FF7AB4" />
<path d="M1069,144.42L1074,144.42" style="fill:none;stroke:#FF7AB4" />
<path d="M1075,141.79L1075,150.2" style="fill:none;stroke:#FF7AB4" />
<path d="M1072.5,141.79L1077.5,141.79" style="fill:none;stroke:#FF7AB4" />
<path d="M1072.5,150.2L1077.5,150.2" style="fill:none;stroke:#FF7AB4" />
<path d="M226.23,179.85A5,5 0 1 1 216.23,179.85A5,5 0 1 1 226.23,179.85Z" style="fill:#FF7AB4" />
<path d="M229.69,176.96A5,5 0 1 1 219.69,176.96A5,5 0 1 1 229.69,176.96Z" style="fill:#FF7AB4" />
<path d="M233.14,177.18A5,5 0 1 1 223.14,177.18A5,5 0 1 1 233.14,177.18Z" style="fill:#FF7AB4" />
<path d="M236.6,174.89A5,5 0 1 1 226.6,174.89A5,5 0 1 1 236.6,174.89Z" style="fill:#FF7AB4" />
<path d="M240.06,178.54A5,5 0 1 1 230.06,178.54A5,5 0 1 1 240.06,178.54Z" style="fill:#FF7AB4" />
<path d="M243.51,180.94A5,5 0 1 1 233.51,180.94A5,5 0 1 1 243.51,180.94Z" style="fill:#FF7AB4" />
<path d="M246.97,177.61A5,5 0 1 1 236.97,177.61A5,5 0 1 1 246.97,177.61Z" style="fill:#FF7AB4" />
<path d="M250.43,177.5A5,5 0 1 1 240.43,177.5A5,5 0 1 1 250.43,177.5Z" style="fill:#FF7AB4" />
<path d="M253.88,177.01A5,5 0 1 1 243.88,177.01A5,5 0 1 1 253.88,177.01Z" style="fill:#FF7AB4" />
<path d="M257.34,179.11A5,5 0 1 1 247.34,179.11A5,5 0 1 1 257.34,179.11Z" style="fill:#FF7AB4" />
<path d="M260.8,181.11A5,5 0 1 1 250.8,181.11A5,5 0 1 1 260.8,181.11Z" style="fill:#FF7AB4" />
<path d="M264.25,185.39A5,5 0 1 1 254.25,185.39A5,5 0 1 1 264.25,185.39Z" style="fill:#FF7AB4" />
<path d="M267.71,180.68A5,5 0 1 1 257.71,180.68A5,5 0 1 1 267.71,180.68Z" style="fill:#FF7AB4" />
<path d="M271.17,187.4A5,5 0 1 1 261.17,187.4A5,5 0 1 1 271.17,187.4Z" style="fill:#FF7AB4" />
<path d="M274.62,182.14A5,5 0 1 1 264.62,182.14A5,5 0 1 1 274.62,182.14Z" style="fill:#FF7AB4" />
<path d="M278.08,181.88A5,5 0 1 1 268.08,181.88A5,5 0 1 1 278.08,181.88Z" style="fill:#FF7AB4" />
<path d="M281.54,179.71A5,5 0 1 1 271.54,179.71A5,5 0 1 1 281.54,179.71Z" style="fill:#FF7AB4" />
<path d="M284.99,182.69A5,5 0 1 1 274.99,182.69A5,5 0 1 1 284.99,182.69Z" style="fill:#FF7AB4" />
<path d="M288.45,187.97A5,5 0 1 1 278.45,187.97A5,5 0 1 1 288.45,187.97Z" style="fill:#FF7AB4" />
<path d="M291.91,187.81A5,5 0 1 1 281.91,187.81A5,5 0 1 1 291.91,187.81Z" style="fill:#FF7AB4" />
<path d="M295.36,187.62A5,5 0 1 1 285.36,187.62A5,5 0 1 1 295.36,187.62Z" style="fill:#FF7AB4" />
<path d="M298.82,188.55A5,5 0 1 1 288.82,188.55A5,5 0 1 1 298.82,188.55Z" style="fill:#FF7AB4" />
<path d="M302.27,184.41A5,5 0 1 1 292.27,184.41A5,5 0 1 1 302.27,184.41Z" style="fill:#FF7AB4" />
<path d="M305.73,186.95A5,5 0 1 1 295.73,186.95A5,5 0 1 1 305.73,186.95Z" style="fill:#FF7AB4" />
<path d="M309.19,186.91A5,5 0 1 1 299.19,186.91A5,5 0 1 1 309.19,186.91Z" style="fill:#FF7AB4" />
<path d="M312.64,188.46A5,5 0 1 1 302.64,188.46A5,5 0 1 1 312.64,188.46Z" style="fill:#FF7AB4" />
<path d="M316.1,190.46A5,5 0 1 1 306.1,190.46A5,5 0 1 1 316.1,190.46Z" style="fill:#FF7AB4" />
<path d="M319.56,191.2A5,5 0 1 1 309.56,191.2A5,5 0 1 1 319.56,191.2Z" style="fill:#FF7AB4" />
<path d="M323.01,185.51A5,5 0 1 1 313.01,185.51A5,5 0 1 1 323.01,185.51Z" style="fill:#FF7AB4" />
<path d="M326.47,186.71A5,5 0 1 1 316.47,186.71A5,5 0 1 1 326.47,186.71Z" style="fill:#FF7AB4" />
<path d="M329.93,186.5A5,5 0 1 1 319.93,186.5A5,5 0 1 1 329.93,186.5Z" style="fill:#FF7AB4" />
<path d="M333.38,187.48A5,5 0 1 1 323.38,187.48A5,5 0 1 1 333.38,187.48Z" style="fill:#FF7AB4" />
<path d="M336.84,190.5A5,5 0 1 1 326.84,190.5A5,5 0 1 1 336.84,190.5Z" style="fill:#FF7AB4" />
<path d="M340.3,199.87A5,5 0 1 1 330.3,199.87A5,5 0 1 1 340.3,199.87Z" style="fill:#FF7AB4" />
<path d="M343.75,200.69A5,5 0 1 1 333.75,200.69A5,5 0 1 1 343.75,200.69Z" style="fill:#FF7AB4" />
<path d="M347.21,193.98A5,5 0 1 1 337.21,193.98A5,5 0 1 1 347.21,193.98Z" style="fill:#FF7AB4" />
<path d="M350.67,196.92A5,5 0 1 1 340.67,196.92A5,5 0 1 1 350.67,196.92Z" style="fill:#FF7AB4" />
<path d="M354.12,195.9A5,5 0 1 1 344.12,195.9A5,5 0 1 1 354.12,195.9Z" style="fill:#FF7AB4" />
<path d="M357.58,199.31A5,5 0 1 1 347.58,199.31A5,5 0 1 1 357.58,199.31Z" style="fill:#FF7AB4" />
<path d="M361.04,200.95A5,5 0 1 1 351.04,200.95A5,5 0 1 1 361.04,200.95Z" style="fill:#FF7AB4" />
<path d="M364.49,206.06A5,5 0 1 1 354.49,206.06A5,5 0 1 1 364.49,206.06Z" style="fill:#FF7AB4" />
<path d="M367.95,202.02A5,5 0 1 1 357.95,202.02A5,5 0 1 1 367.95,202.02Z" style="fill:#FF7AB4" />
<path d="M371.41,204.71A5,5 0 1 1 361.41,204.71A5,5 0 1 1 371.41,204.71Z" style="fill:#FF7AB4" />
<path d="M374.86,205.1A5,5 0 1 1 364.86,205.1A5,5 0 1 1 374.86,205.1Z" style="fill:#FF7AB4" />
<path d="M378.32,208.3A5,5 0 1 1 368.32,208.3A5,5 0 1 1 378.32,208.3Z" style="fill:#FF7AB4" />
<path d="M381.78,213.13A5,5 0 1 1 371.78,213.13A5,5 0 1 1 381.78,213.13Z" style="fill:#FF7AB4" />
<path d="M385.23,210.36A5,5 0 1 1 375.23,210.36A5,5 0 1 1 385.23,210.36Z" style="fill:#FF7AB4" />
<path d="M388.69,214.72A5,5 0 1 1 378.69,214.72A5,5 0 1 1 388.69,214.72Z" style="fill:#FF7AB4" />
<path d="M392.15,217.72A5,5 0 1 1 382.15,217.72A5,5 0 1 1 392.15,217.72Z" style="fill:#FF7AB4" />
<path d="M395.6,219.76A5,5 0 1 1 385.6,219.76A5,5 0 1 1 395.6,219.76Z" style="fill:#FF7AB4" />
<path d="M399.06,219.01A5,5 0 1 1 389.06,219.01A5,5 0 1 1 399.06,219.01Z" style="fill:#FF7AB4" />
<path d="M402.51,224.67A5,5 0 1 1 392.51,224.67A5,5 0 1 1 402.51,224.67Z" style="fill:#FF7AB4" />
<path d="M405.97,228A5,5 0 1 1 395.97,228A5,5 0 1 1 405.97,228Z" style="fill:#FF7AB4" />
<path d="M409.43,228.21A5,5 0 1 1 399.43,228.21A5,5 0 1 1 409.43,228.21Z" style="fill:#FF7AB4" />
<path d="M412.88,231.6A5,5 0 1 1 402.88,231.6A5,5 0 1 1 412.88,231.6Z" style="fill:#FF7AB4" />
<path d="M416.34,230.39A5,5 0 1 1 406.34,230.39A5,5 0 1 1 416.34,230.39Z" style="fill:#FF7AB4" />
<path d="M419.8,235.84A5,5 0 1 1 409.8,235.84A5,5 0 1 1 419.8,235.84Z" style="fill:#FF7AB4" />
<path d="M423.25,237.77A5,5 0 1 1 413.25,237.77A5,5 0 1 1 423.25,237.77Z" style="fill:#FF7AB4" />
<path d="M426.71,237A5,5 0 1 1 416.71,237A5,5 0 1 1 426.71,237Z" style="fill:#FF7AB4" />
<path d="M430.17,239.2A5,5 0 1 1 420.17,239.2A5,5 0 1 1 430.17,239.2Z" style="fill:#FF7AB4" />
<path d="M433.62,250.37A5,5 0 1 1 423.62,250.37A5,5 0 1 1 433.62,250.37Z" style="fill:#FF7AB4" />
<path d="M437.08,257.49A5,5 0 1 1 427.08,257.49A5,5 0 1 1 437.08,257.49Z" style="fill:#FF7AB4" />
<path d="M440.54,262.49A5,5 0 1 1 430.54,262.49A5,5 0 1 1 440.54,262.49Z" style="fill:#FF7AB4" />
<path d="M443.99,261.07A5,5 0 1 1 433.99,261.07A5,5 0 1 1 443.99,261.07Z" style="fill:#FF7AB4" />
<path d="M447.45,267.15A5,5 0 1 1 437.45,267.15A5,5 0 1 1 447.45,267.15Z" style="fill:#FF7AB4" />
<path d="M450.91,275.25A5,5 0 1 1 440.91,275.25A5,5 0 1 1 450.91,275.25Z" style="fill:#FF7AB4" />
<path d="M454.36,276.46A5,5 0 1 1 444.36,276.46A5,5 0 1 1 454.36,276.46Z" style="fill:#FF7AB4" />
<path d="M457.82,284.89A5,5 0 1 1 447.82,284.89A5,5 0 1 1 457.82,284.89Z" style="fill:#FF7AB4" />
<path d="M461.28,291.74A5,5 0 1 1 451.28,291.74A5,5 0 1 1 461.28,291.74Z" style="fill:#FF7AB4" />
<path d="M464.73,293.65A5,5 0 1 1 454.73,293.65A5,5 0 1 1 464.73,293.65Z" style="fill:#FF7AB4" />
<path d="M468.19,304.6A5,5 0 1 1 458.19,304.6A5,5 0 1 1 468.19,304.6Z" style="fill:#FF7AB4" />
<path d="M471.65,309.62A5,5 0 1 1 461.65,309.62A5,5 0 1 1 471.65,309.62Z" style="fill:#FF7AB4" />
<path d="M475.1,317.56A5,5 0 1 1 465.1,317.56A5,5 0 1 1 475.1,317.56Z" style="fill:#FF7AB4" />
<path d="M478.56,317.51A5,5 0 1 1 468.56,317.51A5,5 0 1 1 478.56,317.51Z" style="fill:#FF7AB4" />
<path d="M482.02,338.29A5,5 0 1 1 472.02,338.29A5,5 0 1 1 482.02,338.29Z" style="fill:#FF7AB4" />
<path d="M485.47,356.12A5,5 0 1 1 475.47,356.12A5,5 0 1 1 485.47,356.12Z" style="fill:#FF7AB4" />
<path d="M488.93,362.46A5,5 0 1 1 478.93,362.46A5,5 0 1 1 488.93,362.46Z" style="fill:#FF7AB4" />
<path d="M492.39,375.85A5,5 0 1 1 482.39,375.85A5,5 0 1 1 492.39,375.85Z" style="fill:#FF7AB4" />
<path d="M495.84,395.81A5,5 0 1 1 485.84,395.81A5,5 0 1 1 495.84,395.81Z" style="fill:#FF7AB4" />
<path d="M499.3,406.45A5,5 0 1 1 489.3,406.45A5,5 0 1 1 499.3,406.45Z" style="fill:#FF7AB4" />
<path d="M502.76,417.54A5,5 0 1 1 492.76,417.54A5,5 0 1 1 502.76,417.54Z" style="fill:#FF7AB4" />
<path d="M506.21,446.74A5,5 0 1 1 496.21,446.74A5,5 0 1 1 506.21,446.74Z" style="fill:#FF7AB4" />
<path d="M509.67,469.47A5,5 0 1 1 499.67,469.47A5,5 0 1 1 509.67,469.47Z" style="fill:#FF7AB4" />
<path d="M513.12,496.11A5,5 0 1 1 503.12,496.11A5,5 0 1 1 513.12,496.11Z" style="fill:#FF7AB4" />
<path d="M516.58,528.05A5,5 0 1 1 506.58,528.05A5,5 0 1 1 516.58,528.05Z" style="fill:#FF7AB4" />
<path d="M520.04,572.97A5,5 0 1 1 510.04,572.97A5,5 0 1 1 520.04,572.97Z" style="fill:#FF7AB4" />
<path d="M523.49,600.24A5,5 0 1 1 513.49,600.24A5,5 0 1 1 523.49,600.24Z" style="fill:#FF7AB4" />
<path d="M526.95,646.89A5,5 0 1 1 516.95,646.89A5,5 0 1 1 526.95,646.89Z" style="fill:#FF7AB4" />
<path d="M530.41,679.47A5,5 0 1 1 520.41,679.47A5,5 0 1 1 530.41,679.47Z" style="fill:#FF7AB4" />
<path d="M533.86,706.15A5,5 0 1 1 523.86,706.15A5,5 0 1 1 533.86,706.15Z" style="fill:#FF7AB4" />
<path d="M537.32,746.66A5,5 0 1 1 527.32,746.66A5,5 0 1 1 537.32,746.66Z" style="fill:#FF7AB4" />
<path d="M540.78,763.64A5,5 0 1 1 530.78,763.64A5,5 0 1 1 540.78,763.64Z" style="fill:#FF7AB4" />
<path d="M544.23,775.65A5,5 0 1 1 534.23,775.65A5,5 0 1 1 544.23,775.65Z" style="fill:#FF7AB4" />
<path d="M547.69,800A5,5 0 1 1 537.69,800A5,5 0 1 1 547.69,800Z" style="fill:#FF7AB4" />
<path d="M551.15,796.63A5,5 0 1 1 541.15,796.63A5,5 0 1 1 551.15,796.63Z" style="fill:#FF7AB4" />
<path d="M554.6,802.39A5,5 0 1 1 544.6,802.39A5,5 0 1 1 554.6,802.39Z" style="fill:#FF7AB4" />
<path d="M558.06,804A5,5 0 1 1 548.06,804A5,5 0 1 1 558.06,804Z" style="fill:#FF7AB4" />
<path d="M561.52,799.06A5,5 0 1 1 551.52,799.06A5,5 0 1 1 561.52,799.06Z" style="fill:#FF7AB4" />
<path d="M564.97,794.01A5,5 0 1 1 554.97,794.01A5,5 0 1 1 564.97,794.01Z" style="fill:#FF7AB4" />
<path d="M568.43,776.86A5,5 0 1 1 558.43,776.86A5,5 0 1 1 568.43,776.86Z" style="fill:#FF7AB4" />
<path d="M571.89,743.09A5,5 0 1 1 561.89,743.09A5,5 0 1 1 571.89,743.09Z" style="fill:#FF7AB4" />
<path d="M575.34,748.58A5,5 0 1 1 565.34,748.58A5,5 0 1 1 575.34,748.58Z" style="fill:#FF7AB4" />
<path d="M578.8,697.82A5,5 0 1 1 568.8,697.82A5,5 0 1 1 578.8,697.82Z" style="fill:#FF7AB4" />
<path d="M582.26,649.23A5,5 0 1 1 572.26,649.23A5,5 0 1 1 582.26,649.23Z" style="fill:#FF7AB4" />
<path d="M585.71,638.38A5,5 0 1 1 575.71,638.38A5,5 0 1 1 585.71,638.38Z" style="fill:#FF7AB4" />
<path d="M589.17,622.71A5,5 0 1 1 579.17,622.71A5,5 0 1 1 589.17,622.71Z" style="fill:#FF7AB4" />
<path d="M592.63,625.59A5,5 0 1 1 582.63,625.59A5,5 0 1 1 592.63,625.59Z" style="fill:#FF7AB4" />
<path d="M596.08,557.12A5,5 0 1 1 586.08,557.12A5,5 0 1 1 596.08,557.12Z" style="fill:#FF7AB4" />
<path d="M599.54,538.75A5,5 0 1 1 589.54,538.75A5,5 0 1 1 599.54,538.75Z" style="fill:#FF7AB4" />
<path d="M603,493.48A5,5 0 1 1 593,493.48A5,5 0 1 1 603,493.48Z" style="fill:#FF7AB4" />
<path d="M606.45,494.26A5,5 0 1 1 596.45,494.26A5,5 0 1 1 606.45,494.26Z" style="fill:#FF7AB4" />
<path d="M609.91,511.34A5,5 0 1 1 599.91,511.34A5,5 0 1 1 609.91,511.34Z" style="fill:#FF7AB4" />
<path d="M613.36,590.2A5,5 0 1 1 603.36,590.2A5,5 0 1 1 613.36,590.2Z" style="fill:#FF7AB4" />
<path d="M616.82,555.03A5,5 0 1 1 606.82,555.03A5,5 0 1 1 616.82,555.03Z" style="fill:#FF7AB4" />
<path d="M620.28,545.15A5,5 0 1 1 610.28,545.15A5,5 0 1 1 620.28,545.15Z" style="fill:#FF7AB4" />
<path d="M623.73,657.29A5,5 0 1 1 613.73,657.29A5,5 0 1 1 623.73,657.29Z" style="fill:#FF7AB4" />
<path d="M627.19,638.15A5,5 0 1 1 617.19,638.15A5,5 0 1 1 627.19,638.15Z" style="fill:#FF7AB4" />
<path d="M630.65,628.29A5,5 0 1 1 620.65,628.29A5,5 0 1 1 630.65,628.29Z" style="fill:#FF7AB4" />
<path d="M634.1,649.8A5,5 0 1 1 624.1,649.8A5,5 0 1 1 634.1,649.8Z" style="fill:#FF7AB4" />
<path d="M637.56,659.24A5,5 0 1 1 627.56,659.24A5,5 0 1 1 637.56,659.24Z" style="fill:#FF7AB4" />
<path d="M641.02,645.44A5,5 0 1 1 631.02,645.44A5,5 0 1 1 641.02,645.44Z" style="fill:#FF7AB4" />
<path d="M644.47,643.47A5,5 0 1 1 634.47,643.47A5,5 0 1 1 644.47,643.47Z" style="fill:#FF7AB4" />
<path d="M647.93,668.04A5,5 0 1 1 637.93,668.04A5,5 0 1 1 647.93,668.04Z" style="fill:#FF7AB4" />
<path d="M651.39,651.85A5,5 0 1 1 641.39,651.85A5,5 0 1 1 651.39,651.85Z" style="fill:#FF7AB4" />
<path d="M654.84,664.14A5,5 0 1 1 644.84,664.14A5,5 0 1 1 654.84,664.14Z" style="fill:#FF7AB4" />
<path d="M658.3,637.16A5,5 0 1 1 648.3,637.16A5,5 0 1 1 658.3,637.16Z" style="fill:#FF7AB4" />
<path d="M661.76,692.12A5,5 0 1 1 651.76,692.12A5,5 0 1 1 661.76,692.12Z" style="fill:#FF7AB4" />
<path d="M665.21,699.04A5,5 0 1 1 655.21,699.04A5,5 0 1 1 665.21,699.04Z" style="fill:#FF7AB4" />
<path d="M668.67,685.5A5,5 0 1 1 658.67,685.5A5,5 0 1 1 668.67,685.5Z" style="fill:#FF7AB4" />
<path d="M672.13,610.06A5,5 0 1 1 662.13,610.06A5,5 0 1 1 672.13,610.06Z" style="fill:#FF7AB4" />
<path d="M675.58,604.11A5,5 0 1 1 665.58,604.11A5,5 0 1 1 675.58,604.11Z" style="fill:#FF7AB4" />
<path d="M679.04,533.92A5,5 0 1 1 669.04,533.92A5,5 0 1 1 679.04,533.92Z" style="fill:#FF7AB4" />
<path d="M682.5,494.9A5,5 0 1 1 672.5,494.9A5,5 0 1 1 682.5,494.9Z" style="fill:#FF7AB4" />
<path d="M685.95,435.35A5,5 0 1 1 675.95,435.35A5,5 0 1 1 685.95,435.35Z" style="fill:#FF7AB4" />
<path d="M689.41,405.39A5,5 0 1 1 679.41,405.39A5,5 0 1 1 689.41,405.39Z" style="fill:#FF7AB4" />
<path d="M692.87,364.43A5,5 0 1 1 682.87,364.43A5,5 0 1 1 692.87,364.43Z" style="fill:#FF7AB4" />
<path d="M696.32,358.94A5,5 0 1 1 686.32,358.94A5,5 0 1 1 696.32,358.94Z" style="fill:#FF7AB4" />
<path d="M699.78,351.89A5,5 0 1 1 689.78,351.89A5,5 0 1 1 699.78,351.89Z" style="fill:#FF7AB4" />
<path d="M703.24,381.46A5,5 0 1 1 693.24,381.46A5,5 0 1 1 703.24,381.46Z" style="fill:#FF7AB4" />
<path d="M706.69,381.44A5,5 0 1 1 696.69,381.44A5,5 0 1 1 706.69,381.44Z" style="fill:#FF7AB4" />
<path d="M710.15,353.49A5,5 0 1 1 700.15,353.49A5,5 0 1 1 710.15,353.49Z" style="fill:#FF7AB4" />
<path d="M713.6,333.41A5,5 0 1 1 703.6,333.41A5,5 0 1 1 713.6,333.41Z" style="fill:#FF7AB4" />
<path d="M717.06,315.86A5,5 0 1 1 707.06,315.86A5,5 0 1 1 717.06,315.86Z" style="fill:#FF7AB4" />
<path d="M720.52,293.75A5,5 0 1 1 710.52,293.75A5,5 0 1 1 720.52,293.75Z" style="fill:#FF7AB4" />
<path d="M723.97,282.12A5,5 0 1 1 713.97,282.12A5,5 0 1 1 723.97,282.12Z" style="fill:#FF7AB4" />
<path d="M727.43,269.78A5,5 0 1 1 717.43,269.78A5,5 0 1 1 727.43,269.78Z" style="fill:#FF7AB4" />
<path d="M730.89,262.08A5,5 0 1 1 720.89,262.08A5,5 0 1 1 730.89,262.08Z" style="fill:#FF7AB4" />
<path d="M734.34,246.73A5,5 0 1 1 724.34,246.73A5,5 0 1 1 734.34,246.73Z" style="fill:#FF7AB4" />
<path d="M737.8,240.3A5,5 0 1 1 727.8,240.3A5,5 0 1 1 737.8,240.3Z" style="fill:#FF7AB4" />
<path d="M741.26,223.56A5,5 0 1 1 731.26,223.56A5,5 0 1 1 741.26,223.56Z" style="fill:#FF7AB4" />
<path d="M744.71,224.29A5,5 0 1 1 734.71,224.29A5,5 0 1 1 744.71,224.29Z" style="fill:#FF7AB4" />
<path d="M748.17,221.18A5,5 0 1 1 738.17,221.18A5,5 0 1 1 748.17,221.18Z" style="fill:#FF7AB4" />
<path d="M751.63,210.26A5,5 0 1 1 741.63,210.26A5,5 0 1 1 751.63,210.26Z" style="fill:#FF7AB4" />
<path d="M755.08,209.9A5,5 0 1 1 745.08,209.9A5,5 0 1 1 755.08,209.9Z" style="fill:#FF7AB4" />
<path d="M758.54,204.01A5,5 0 1 1 748.54,204.01A5,5 0 1 1 758.54,204.01Z" style="fill:#FF7AB4" />
<path d="M762,197.44A5,5 0 1 1 752,197.44A5,5 0 1 1 762,197.44Z" style="fill:#FF7AB4" />
<path d="M765.45,195.46A5,5 0 1 1 755.45,195.46A5,5 0 1 1 765.45,195.46Z" style="fill:#FF7AB4" />
<path d="M768.91,186.46A5,5 0 1 1 758.91,186.46A5,5 0 1 1 768.91,186.46Z" style="fill:#FF7AB4" />
<path d="M772.37,179.71A5,5 0 1 1 762.37,179.71A5,5 0 1 1 772.37,179.71Z" style="fill:#FF7AB4" />
<path d="M775.82,185.76A5,5 0 1 1 765.82,185.76A5,5 0 1 1 775.82,185.76Z" style="fill:#FF7AB4" />
<path d="M779.28,191.89A5,5 0 1 1 769.28,191.89A5,5 0 1 1 779.28,191.89Z" style="fill:#FF7AB4" />
<path d="M782.74,190.35A5,5 0 1 1 772.74,190.35A5,5 0 1 1 782.74,190.35Z" style="fill:#FF7AB4" />
<path d="M786.19,192.92A5,5 0 1 1 776.19,192.92A5,5 0 1 1 786.19,192.92Z" style="fill:#FF7AB4" />
<path d="M789.65,196.68A5,5 0 1 1 779.65,196.68A5,5 0 1 1 789.65,196.68Z" style="fill:#FF7AB4" />
<path d="M793.11,192.77A5,5 0 1 1 783.11,192.77A5,5 0 1 1 793.11,192.77Z" style="fill:#FF7AB4" />
<path d="M796.56,189.01A5,5 0 1 1 786.56,189.01A5,5 0 1 1 796.56,189.01Z" style="fill:#FF7AB4" />
<path d="M800.02,193.03A5,5 0 1 1 790.02,193.03A5,5 0 1 1 800.02,193.03Z" style="fill:#FF7AB4" />
<path d="M803.48,191.01A5,5 0 1 1 793.48,191.01A5,5 0 1 1 803.48,191.01Z" style="fill:#FF7AB4" />
<path d="M806.93,189.72A5,5 0 1 1 796.93,189.72A5,5 0 1 1 806.93,189.72Z" style="fill:#FF7AB4" />
<path d="M810.39,183.84A5,5 0 1 1 800.39,183.84A5,5 0 1 1 810.39,183.84Z" style="fill:#FF7AB4" />
<path d="M813.85,183.5A5,5 0 1 1 803.85,183.5A5,5 0 1 1 813.85,183.5Z" style="fill:#FF7AB4" />
<path d="M817.3,185.48A5,5 0 1 1 807.3,185.48A5,5 0 1 1 817.3,185.48Z" style="fill:#FF7AB4" />
<path d="M820.76,193.46A5,5 0 1 1 810.76,193.46A5,5 0 1 1 820.76,193.46Z" style="fill:#FF7AB4" />
<path d="M824.21,191.79A5,5 0 1 1 814.21,191.79A5,5 0 1 1 824.21,191.79Z" style="fill:#FF7AB4" />
<path d="M827.67,190.22A5,5 0 1 1 817.67,190.22A5,5 0 1 1 827.67,190.22Z" style="fill:#FF7AB4" />
<path d="M831.13,187.78A5,5 0 1 1 821.13,187.78A5,5 0 1 1 831.13,187.78Z" style="fill:#FF7AB4" />
<path d="M834.58,187.86A5,5 0 1 1 824.58,187.86A5,5 0 1 1 834.58,187.86Z" style="fill:#FF7AB4" />
<path d="M838.04,178.48A5,5 0 1 1 828.04,178.48A5,5 0 1 1 838.04,178.48Z" style="fill:#FF7AB4" />
<path d="M841.5,182.46A5,5 0 1 1 831.5,182.46A5,5 0 1 1 841.5,182.46Z" style="fill:#FF7AB4" />
<path d="M844.95,182A5,5 0 1 1 834.95,182A5,5 0 1 1 844.95,182Z" style="fill:#FF7AB4" />
<path d="M848.41,179.1A5,5 0 1 1 838.41,179.1A5,5 0 1 1 848.41,179.1Z" style="fill:#FF7AB4" />
<path d="M851.87,182.31A5,5 0 1 1 841.87,182.31A5,5 0 1 1 851.87,182.31Z" style="fill:#FF7AB4" />
<path d="M855.32,180.14A5,5 0 1 1 845.32,180.14A5,5 0 1 1 855.32,180.14Z" style="fill:#FF7AB4" />
<path d="M858.78,177.68A5,5 0 1 1 848.78,177.68A5,5 0 1 1 858.78,177.68Z" style="fill:#FF7AB4" />
<path d="M862.24,179A5,5 0 1 1 852.24,179A5,5 0 1 1 862.24,179Z" style="fill:#FF7AB4" />
<path d="M865.69,173.45A5,5 0 1 1 855.69,173.45A5,5 0 1 1 865.69,173.45Z" style="fill:#FF7AB4" />
<path d="M869.15,168.58A5,5 0 1 1 859.15,168.58A5,5 0 1 1 869.15,168.58Z" style="fill:#FF7AB4" />
<path d="M872.61,164.67A5,5 0 1 1 862.61,164.67A5,5 0 1 1 872.61,164.67Z" style="fill:#FF7AB4" />
<path d="M876.06,161.19A5,5 0 1 1 866.06,161.19A5,5 0 1 1 876.06,161.19Z" style="fill:#FF7AB4" />
<path d="M879.52,161.45A5,5 0 1 1 869.52,161.45A5,5 0 1 1 879.52,161.45Z" style="fill:#FF7AB4" />
<path d="M882.98,158.56A5,5 0 1 1 872.98,158.56A5,5 0 1 1 882.98,158.56Z" style="fill:#FF7AB4" />
<path d="M886.43,161.34A5,5 0 1 1 876.43,161.34A5,5 0 1 1 886.43,161.34Z" style="fill:#FF7AB4" />
<path d="M889.89,165.33A5,5 0 1 1 879.89,165.33A5,5 0 1 1 889.89,165.33Z" style="fill:#FF7AB4" />
<path d="M893.35,160.27A5,5 0 1 1 883.35,160.27A5,5 0 1 1 893.35,160.27Z" style="fill:#FF7AB4" />
<path d="M896.8,159.66A5,5 0 1 1 886.8,159.66A5,5 0 1 1 896.8,159.66Z" style="fill:#FF7AB4" />
<path d="M900.26,154.03A5,5 0 1 1 890.26,154.03A5,5 0 1 1 900.26,154.03Z" style="fill:#FF7AB4" />
<path d="M903.72,149.39A5,5 0 1 1 893.72,149.39A5,5 0 1 1 903.72,149.39Z" style="fill:#FF7AB4" />
<path d="M907.17,150.2A5,5 0 1 1 897.17,150.2A5,5 0 1 1 907.17,150.2Z" style="fill:#FF7AB4" />
<path d="M910.63,149.4A5,5 0 1 1 900.63,149.4A5,5 0 1 1 910.63,149.4Z" style="fill:#FF7AB4" />
<path d="M914.09,147.52A5,5 0 1 1 904.09,147.52A5,5 0 1 1 914.09,147.52Z" style="fill:#FF7AB4" />
<path d="M917.54,143.04A5,5 0 1 1 907.54,143.04A5,5 0 1 1 917.54,143.04Z" style="fill:#FF7AB4" />
<path d="M921,143.49A5,5 0 1 1 911,143.49A5,5 0 1 1 921,143.49Z" style="fill:#FF7AB4" />
<path d="M924.45,140.54A5,5 0 1 1 914.45,140.54A5,5 0 1 1 924.45,140.54Z" style="fill:#FF7AB4" />
<path d="M927.91,141.08A5,5 0 1 1 917.91,141.08A5,5 0 1 1 927.91,141.08Z" style="fill:#FF7AB4" />
<path d="M931.37,138.7A5,5 0 1 1 921.37,138.7A5,5 0 1 1 931.37,138.7Z" style="fill:#FF7AB4" />
<path d="M934.82,137.3A5,5 0 1 1 924.82,137.3A5,5 0 1 1 934.82,137.3Z" style="fill:#FF7AB4" />
<path d="M938.28,137.81A5,5 0 1 1 928.28,137.81A5,5 0 1 1 938.28,137.81Z" style="fill:#FF7AB4" />
<path d="M941.74,140.59A5,5 0 1 1 931.74,140.59A5,5 0 1 1 941.74,140.59Z" style="fill:#FF7AB4" />
<path d="M945.19,146.44A5,5 0 1 1 935.19,146.44A5,5 0 1 1 945.19,146.44Z" style="fill:#FF7AB4" />
<path d="M948.65,145.87A5,5 0 1 1 938.65,145.87A5,5 0 1 1 948.65,145.87Z" style="fill:#FF7AB4" />
<path d="M952.11,147.43A5,5 0 1 1 942.11,147.43A5,5 0 1 1 952.11,147.43Z" style="fill:#FF7AB4" />
<path d="M955.56,150.74A5,5 0 1 1 945.56,150.74A5,5 0 1 1 955.56,150.74Z" style="fill:#FF7AB4" />
<path d="M959.02,152.71A5,5 0 1 1 949.02,152.71A5,5 0 1 1 959.02,152.71Z" style="fill:#FF7AB4" />
<path d="M962.48,151.57A5,5 0 1 1 952.48,151.57A5,5 0 1 1 962.48,151.57Z" style="fill:#FF7AB4" />
<path d="M965.93,152.74A5,5 0 1 1 955.93,152.74A5,5 0 1 1 965.93,152.74Z" style="fill:#FF7AB4" />
<path d="M969.39,153.62A5,5 0 1 1 959.39,153.62A5,5 0 1 1 969.39,153.62Z" style="fill:#FF7AB4" />
<path d="M972.85,150.59A5,5 0 1 1 962.85,150.59A5,5 0 1 1 972.85,150.59Z" style="fill:#FF7AB4" />
<path d="M976.3,148.89A5,5 0 1 1 966.3,148.89A5,5 0 1 1 976.3,148.89Z" style="fill:#FF7AB4" />
<path d="M979.76,146.23A5,5 0 1 1 969.76,146.23A5,5 0 1 1 979.76,146.23Z" style="fill:#FF7AB4" />
<path d="M983.22,143.86A5,5 0 1 1 973.22,143.86A5,5 0 1 1 983.22,143.86Z" style="fill:#FF7AB4" />
<path d="M986.67,141.93A5,5 0 1 1 976.67,141.93A5,5 0 1 1 986.67,141.93Z" style="fill:#FF7AB4" />
<path d="M990.13,140.46A5,5 0 1 1 980.13,140.46A5,5 0 1 1 990.13,140.46Z" style="fill:#FF7AB4" />
<path d="M993.59,138.58A5,5 0 1 1 983.59,138.58A5,5 0 1 1 993.59,138.58Z" style="fill:#FF7AB4" />
<path d="M997.04,138.4A5,5 0 1 1 987.04,138.4A5,5 0 1 1 997.04,138.4Z" style="fill:#FF7AB4" />
<path d="M1000.5,139.4A5,5 0 1 1 990.5,139.4A5,5 0 1 1 1000.5,139.4Z" style="fill:#FF7AB4" />
<path d="M1004,140.69A5,5 0 1 1 993.96,140.69A5,5 0 1 1 1004,140.69Z" style="fill:#FF7AB4" />
<path d="M1007.4,138.78A5,5 0 1 1 997.41,138.78A5,5 0 1 1 1007.4,138.78Z" style="fill:#FF7AB4" />
<path d="M1010.9,138.49A5,5 0 1 1 1000.9,138.49A5,5 0 1 1 1010.9,138.49Z" style="fill:#FF7AB4" />
<path d="M1014.3,141.31A5,5 0 1 1 1004.3,141.31A5,5 0 1 1 1014.3,141.31Z" style="fill:#FF7AB4" />
<path d="M1017.8,141.41A5,5 0 1 1 1007.8,141.41A5,5 0 1 1 1017.8,141.41Z" style="fill:#FF7AB4" />
<path d="M1021.2,141.2A5,5 0 1 1 1011.2,141.2A5,5 0 1 1 1021.2,141.2Z" style="fill:#FF7AB4" />
<path d="M1024.7,140.27A5,5 0 1 1 1014.7,140.27A5,5 0 1 1 1024.7,140.27Z" style="fill:#FF7AB4" />
<path d="M1028.2,142.64A5,5 0 1 1 1018.2,142.64A5,5 0 1 1 1028.2,142.64Z" style="fill:#FF7AB4" />
<path d="M1031.6,141.87A5,5 0 1 1 1021.6,141.87A5,5 0 1 1 1031.6,141.87Z" style="fill:#FF7AB4" />
<path d="M1035.1,140.1A5,5 0 1 1 1025.1,140.1A5,5 0 1 1 1035.1,140.1Z" style="fill:#FF7AB4" />
<path d="M1038.5,141.64A5,5 0 1 1 1028.5,141.64A5,5 0 1 1 1038.5,141.64Z" style="fill:#FF7AB4" />
<path d="M1042,142.22A5,5 0 1 1 1032,142.22A5,5 0 1 1 1042,142.22Z" style="fill:#FF7AB4" />
<path d="M1045.4,141.58A5,5 0 1 1 1035.4,141.58A5,5 0 1 1 1045.4,141.58Z" style="fill:#FF7AB4" />
<path d="M1048.9,140.71A5,5 0 1 1 1038.9,140.71A5,5 0 1 1 1048.9,140.71Z" style="fill:#FF7AB4" />
<path d="M1052.3,140.11A5,5 0 1 1 1042.3,140.11A5,5 0 1 1 1052.3,140.11Z" style="fill:#FF7AB4" />
<path d="M1055.8,137.64A5,5 0 1 1 1045.8,137.64A5,5 0 1 1 1055.8,137.64Z" style="fill:#FF7AB4" />
<path d="M1059.3,140.82A5,5 0 1 1 1049.3,140.82A5,5 0 1 1 1059.3,140.82Z" style="fill:#FF7AB4" />
<path d="M1062.7,141.08A5,5 0 1 1 1052.7,141.08A5,5 0 1 1 1062.7,141.08Z" style="fill:#FF7AB4" />
<path d="M1066.2,136.78A5,5 0 1 1 1056.2,136.78A5,5 0 1 1 1066.2,136.78Z" style="fill:#FF7AB4" />
<path d="M1069.6,141.13A5,5 0 1 1 1059.6,141.13A5,5 0 1 1 1069.6,141.13Z" style="fill:#FF7AB4" />
<path d="M1073.1,140.35A5,5 0 1 1 1063.1,140.35A5,5 0 1 1 1073.1,140.35Z" style="fill:#FF7AB4" />
<path d="M1076.5,141.1A5,5 0 1 1 1066.5,141.1A5,5 0 1 1 1076.5,141.1Z" style="fill:#FF7AB4" />
<path d="M1080,145.99A5,5 0 1 1 1070,145.99A5,5 0 1 1 1080,145.99Z" style="fill:#FF7AB4" />
<path d="M221.23,974.14L1075,974.14" style="fill:none;stroke:#000000" />
<path d="M1075,108.82L1075,974.14" style="fill:none;stroke:#000000" />
<path d="M1013,927.49A8,8 0 1 1 997,927.49A8,8 0 1 1 1013,927.49Z" style="fill:#FF7AB4" />
<text x="869.52" y="-920.9" transform="scale(1, -1)"
	style="font-family:Helvetica;font-weight:normal;font-style:normal;font-size:28px">5.5 GHz</text>
</g>
</svg>
