<?xml version="1.0"?>
<!-- Generated by SVGo and Plotinum VG -->
<svg width="1080pt" height="1080pt" viewBox="0 0 1080 1080"
	xmlns="http://www.w3.org/2000/svg"
	xmlns:xlink="http://www.w3.org/1999/xlink">
<g transform="scale(1, -1) translate(0, -1080)">
<path d="M0,0L1080,0L1080,1080L0,1080Z" style="fill:#-8000000000000000-8000000000000000-8000000000000000;fill-opacity:0" />
<text x="82.847" y="-1039.5" transform="scale(1, -1)"
	style="font-family:Helvetica;font-weight:normal;font-style:normal;font-size:50px">1 cm UHNA3 Phase-Matching Bandwidth</text>
<text x="366.73" y="-11.039" transform="scale(1, -1)"
	style="font-family:Helvetica;font-weight:normal;font-style:normal;font-size:36px">Pump-Probe Separation (GHz)</text>
<text x="227" y="-71.258" transform="scale(1, -1)"
	style="font-family:Helvetica;font-weight:normal;font-style:normal;font-size:36px">5.00</text>
<text x="439.72" y="-71.258" transform="scale(1, -1)"
	style="font-family:Helvetica;font-weight:normal;font-style:normal;font-size:36px">15.00</text>
<text x="662.45" y="-71.258" transform="scale(1, -1)"
	style="font-family:Helvetica;font-weight:normal;font-style:normal;font-size:36px">25.00</text>
<text x="885.18" y="-71.258" transform="scale(1, -1)"
	style="font-family:Helvetica;font-weight:normal;font-style:normal;font-size:36px">35.00</text>
<path d="M150.67,112.44L150.67,108.44" style="fill:none;stroke:#000000;stroke-width:1.5" />
<path d="M262.03,116.44L262.03,108.44" style="fill:none;stroke:#000000;stroke-width:1.5" />
<path d="M373.4,112.44L373.4,108.44" style="fill:none;stroke:#000000;stroke-width:1.5" />
<path d="M484.76,116.44L484.76,108.44" style="fill:none;stroke:#000000;stroke-width:1.5" />
<path d="M596.13,112.44L596.13,108.44" style="fill:none;stroke:#000000;stroke-width:1.5" />
<path d="M707.49,116.44L707.49,108.44" style="fill:none;stroke:#000000;stroke-width:1.5" />
<path d="M818.86,112.44L818.86,108.44" style="fill:none;stroke:#000000;stroke-width:1.5" />
<path d="M930.22,116.44L930.22,108.44" style="fill:none;stroke:#000000;stroke-width:1.5" />
<path d="M150.67,108.44L1075,108.44" style="fill:none;stroke:#000000;stroke-width:1.5" />
<g transform="rotate(90)">
<text x="366.9" y="29.18" transform="scale(1, -1)"
	style="font-family:Helvetica;font-weight:normal;font-style:normal;font-size:36px">Peak Spectral Density</text>
</g>
<text x="67.848" y="-104.75" transform="scale(1, -1)"
	style="font-family:Helvetica;font-weight:normal;font-style:normal;font-size:36px">0.34</text>
<text x="67.848" y="-104.75" transform="scale(1, -1)"
	style="font-family:Helvetica;font-weight:normal;font-style:normal;font-size:36px">1.03</text>
<text x="67.848" y="-104.75" transform="scale(1, -1)"
	style="font-family:Helvetica;font-weight:normal;font-style:normal;font-size:36px">1.71</text>
<text x="67.848" y="-104.75" transform="scale(1, -1)"
	style="font-family:Helvetica;font-weight:normal;font-style:normal;font-size:36px">2.40</text>
<text x="67.848" y="-104.75" transform="scale(1, -1)"
	style="font-family:Helvetica;font-weight:normal;font-style:normal;font-size:36px">3.08</text>
<path d="M159.92,113.82L155.92,113.82" style="fill:none;stroke:#000000;stroke-width:1.5" />
<path d="M163.92,113.82L155.92,113.82" style="fill:none;stroke:#000000;stroke-width:1.5" />
<path d="M159.92,113.82L155.92,113.82" style="fill:none;stroke:#000000;stroke-width:1.5" />
<path d="M163.92,113.82L155.92,113.82" style="fill:none;stroke:#000000;stroke-width:1.5" />
<path d="M159.92,113.82L155.92,113.82" style="fill:none;stroke:#000000;stroke-width:1.5" />
<path d="M163.92,113.82L155.92,113.82" style="fill:none;stroke:#000000;stroke-width:1.5" />
<path d="M159.92,113.82L155.92,113.82" style="fill:none;stroke:#000000;stroke-width:1.5" />
<path d="M163.92,113.82L155.92,113.82" style="fill:none;stroke:#000000;stroke-width:1.5" />
<path d="M159.92,113.82L155.92,113.82" style="fill:none;stroke:#000000;stroke-width:1.5" />
<path d="M163.92,113.82L155.92,113.82" style="fill:none;stroke:#000000;stroke-width:1.5" />
<path d="M159.92,113.82L155.92,113.82" style="fill:none;stroke:#000000;stroke-width:1.5" />
<path d="M159.92,113.82L155.92,113.82" style="fill:none;stroke:#000000;stroke-width:1.5" />
<path d="M155.92,113.82L155.92,974.14" style="fill:none;stroke:#000000;stroke-width:1.5" />
<path d="M267.03,113.82A5,5 0 1 1 257.03,113.82A5,5 0 1 1 267.03,113.82Z" style="fill:#1FD3AC" />
<path d="M278.17,113.82A5,5 0 1 1 268.17,113.82A5,5 0 1 1 278.17,113.82Z" style="fill:#1FD3AC" />
<path d="M289.3,113.82A5,5 0 1 1 279.3,113.82A5,5 0 1 1 289.3,113.82Z" style="fill:#1FD3AC" />
<path d="M300.44,113.82A5,5 0 1 1 290.44,113.82A5,5 0 1 1 300.44,113.82Z" style="fill:#1FD3AC" />
<path d="M311.58,113.82A5,5 0 1 1 301.58,113.82A5,5 0 1 1 311.58,113.82Z" style="fill:#1FD3AC" />
<path d="M322.71,113.82A5,5 0 1 1 312.71,113.82A5,5 0 1 1 322.71,113.82Z" style="fill:#1FD3AC" />
<path d="M333.85,113.82A5,5 0 1 1 323.85,113.82A5,5 0 1 1 333.85,113.82Z" style="fill:#1FD3AC" />
<path d="M344.99,113.82A5,5 0 1 1 334.99,113.82A5,5 0 1 1 344.99,113.82Z" style="fill:#1FD3AC" />
<path d="M356.12,113.82A5,5 0 1 1 346.12,113.82A5,5 0 1 1 356.12,113.82Z" style="fill:#1FD3AC" />
<path d="M367.26,113.82A5,5 0 1 1 357.26,113.82A5,5 0 1 1 367.26,113.82Z" style="fill:#1FD3AC" />
<path d="M378.4,113.82A5,5 0 1 1 368.4,113.82A5,5 0 1 1 378.4,113.82Z" style="fill:#1FD3AC" />
<path d="M389.53,113.82A5,5 0 1 1 379.53,113.82A5,5 0 1 1 389.53,113.82Z" style="fill:#1FD3AC" />
<path d="M400.67,113.82A5,5 0 1 1 390.67,113.82A5,5 0 1 1 400.67,113.82Z" style="fill:#1FD3AC" />
<path d="M411.81,113.82A5,5 0 1 1 401.81,113.82A5,5 0 1 1 411.81,113.82Z" style="fill:#1FD3AC" />
<path d="M422.94,113.82A5,5 0 1 1 412.94,113.82A5,5 0 1 1 422.94,113.82Z" style="fill:#1FD3AC" />
<path d="M434.08,113.82A5,5 0 1 1 424.08,113.82A5,5 0 1 1 434.08,113.82Z" style="fill:#1FD3AC" />
<path d="M445.22,113.82A5,5 0 1 1 435.22,113.82A5,5 0 1 1 445.22,113.82Z" style="fill:#1FD3AC" />
<path d="M456.35,113.82A5,5 0 1 1 446.35,113.82A5,5 0 1 1 456.35,113.82Z" style="fill:#1FD3AC" />
<path d="M467.49,113.82A5,5 0 1 1 457.49,113.82A5,5 0 1 1 467.49,113.82Z" style="fill:#1FD3AC" />
<path d="M478.63,113.82A5,5 0 1 1 468.63,113.82A5,5 0 1 1 478.63,113.82Z" style="fill:#1FD3AC" />
<path d="M489.76,113.82A5,5 0 1 1 479.76,113.82A5,5 0 1 1 489.76,113.82Z" style="fill:#1FD3AC" />
<path d="M500.9,113.82A5,5 0 1 1 490.9,113.82A5,5 0 1 1 500.9,113.82Z" style="fill:#1FD3AC" />
<path d="M512.04,113.82A5,5 0 1 1 502.04,113.82A5,5 0 1 1 512.04,113.82Z" style="fill:#1FD3AC" />
<path d="M523.17,113.82A5,5 0 1 1 513.17,113.82A5,5 0 1 1 523.17,113.82Z" style="fill:#1FD3AC" />
<path d="M534.31,113.82A5,5 0 1 1 524.31,113.82A5,5 0 1 1 534.31,113.82Z" style="fill:#1FD3AC" />
<path d="M545.45,113.82A5,5 0 1 1 535.45,113.82A5,5 0 1 1 545.45,113.82Z" style="fill:#1FD3AC" />
<path d="M556.58,113.82A5,5 0 1 1 546.58,113.82A5,5 0 1 1 556.58,113.82Z" style="fill:#1FD3AC" />
<path d="M567.72,113.82A5,5 0 1 1 557.72,113.82A5,5 0 1 1 567.72,113.82Z" style="fill:#1FD3AC" />
<path d="M578.86,113.82A5,5 0 1 1 568.86,113.82A5,5 0 1 1 578.86,113.82Z" style="fill:#1FD3AC" />
<path d="M589.99,113.82A5,5 0 1 1 579.99,113.82A5,5 0 1 1 589.99,113.82Z" style="fill:#1FD3AC" />
<path d="M601.13,113.82A5,5 0 1 1 591.13,113.82A5,5 0 1 1 601.13,113.82Z" style="fill:#1FD3AC" />
<path d="M612.26,113.82A5,5 0 1 1 602.26,113.82A5,5 0 1 1 612.26,113.82Z" style="fill:#1FD3AC" />
<path d="M623.4,113.82A5,5 0 1 1 613.4,113.82A5,5 0 1 1 623.4,113.82Z" style="fill:#1FD3AC" />
<path d="M634.54,113.82A5,5 0 1 1 624.54,113.82A5,5 0 1 1 634.54,113.82Z" style="fill:#1FD3AC" />
<path d="M645.67,113.82A5,5 0 1 1 635.67,113.82A5,5 0 1 1 645.67,113.82Z" style="fill:#1FD3AC" />
<path d="M656.81,113.82A5,5 0 1 1 646.81,113.82A5,5 0 1 1 656.81,113.82Z" style="fill:#1FD3AC" />
<path d="M667.95,113.82A5,5 0 1 1 657.95,113.82A5,5 0 1 1 667.95,113.82Z" style="fill:#1FD3AC" />
<path d="M679.08,113.82A5,5 0 1 1 669.08,113.82A5,5 0 1 1 679.08,113.82Z" style="fill:#1FD3AC" />
<path d="M690.22,113.82A5,5 0 1 1 680.22,113.82A5,5 0 1 1 690.22,113.82Z" style="fill:#1FD3AC" />
<path d="M701.36,113.82A5,5 0 1 1 691.36,113.82A5,5 0 1 1 701.36,113.82Z" style="fill:#1FD3AC" />
<path d="M712.49,113.82A5,5 0 1 1 702.49,113.82A5,5 0 1 1 712.49,113.82Z" style="fill:#1FD3AC" />
<path d="M723.63,113.82A5,5 0 1 1 713.63,113.82A5,5 0 1 1 723.63,113.82Z" style="fill:#1FD3AC" />
<path d="M734.77,113.82A5,5 0 1 1 724.77,113.82A5,5 0 1 1 734.77,113.82Z" style="fill:#1FD3AC" />
<path d="M745.9,113.82A5,5 0 1 1 735.9,113.82A5,5 0 1 1 745.9,113.82Z" style="fill:#1FD3AC" />
<path d="M757.04,113.82A5,5 0 1 1 747.04,113.82A5,5 0 1 1 757.04,113.82Z" style="fill:#1FD3AC" />
<path d="M768.18,113.82A5,5 0 1 1 758.18,113.82A5,5 0 1 1 768.18,113.82Z" style="fill:#1FD3AC" />
<path d="M779.31,113.82A5,5 0 1 1 769.31,113.82A5,5 0 1 1 779.31,113.82Z" style="fill:#1FD3AC" />
<path d="M790.45,113.82A5,5 0 1 1 780.45,113.82A5,5 0 1 1 790.45,113.82Z" style="fill:#1FD3AC" />
<path d="M801.59,113.82A5,5 0 1 1 791.59,113.82A5,5 0 1 1 801.59,113.82Z" style="fill:#1FD3AC" />
<path d="M812.72,113.82A5,5 0 1 1 802.72,113.82A5,5 0 1 1 812.72,113.82Z" style="fill:#1FD3AC" />
<path d="M823.86,113.82A5,5 0 1 1 813.86,113.82A5,5 0 1 1 823.86,113.82Z" style="fill:#1FD3AC" />
<path d="M835,113.82A5,5 0 1 1 825,113.82A5,5 0 1 1 835,113.82Z" style="fill:#1FD3AC" />
<path d="M846.13,113.82A5,5 0 1 1 836.13,113.82A5,5 0 1 1 846.13,113.82Z" style="fill:#1FD3AC" />
<path d="M857.27,113.82A5,5 0 1 1 847.27,113.82A5,5 0 1 1 857.27,113.82Z" style="fill:#1FD3AC" />
<path d="M868.41,113.82A5,5 0 1 1 858.41,113.82A5,5 0 1 1 868.41,113.82Z" style="fill:#1FD3AC" />
<path d="M879.54,113.82A5,5 0 1 1 869.54,113.82A5,5 0 1 1 879.54,113.82Z" style="fill:#1FD3AC" />
<path d="M890.68,113.82A5,5 0 1 1 880.68,113.82A5,5 0 1 1 890.68,113.82Z" style="fill:#1FD3AC" />
<path d="M901.82,113.82A5,5 0 1 1 891.82,113.82A5,5 0 1 1 901.82,113.82Z" style="fill:#1FD3AC" />
<path d="M912.95,113.82A5,5 0 1 1 902.95,113.82A5,5 0 1 1 912.95,113.82Z" style="fill:#1FD3AC" />
<path d="M924.09,113.82A5,5 0 1 1 914.09,113.82A5,5 0 1 1 924.09,113.82Z" style="fill:#1FD3AC" />
<path d="M935.22,113.82A5,5 0 1 1 925.22,113.82A5,5 0 1 1 935.22,113.82Z" style="fill:#1FD3AC" />
<path d="M946.36,113.82A5,5 0 1 1 936.36,113.82A5,5 0 1 1 946.36,113.82Z" style="fill:#1FD3AC" />
<path d="M957.5,113.82A5,5 0 1 1 947.5,113.82A5,5 0 1 1 957.5,113.82Z" style="fill:#1FD3AC" />
<path d="M968.63,113.82A5,5 0 1 1 958.63,113.82A5,5 0 1 1 968.63,113.82Z" style="fill:#1FD3AC" />
<path d="M979.77,113.82A5,5 0 1 1 969.77,113.82A5,5 0 1 1 979.77,113.82Z" style="fill:#1FD3AC" />
<path d="M990.91,113.82A5,5 0 1 1 980.91,113.82A5,5 0 1 1 990.91,113.82Z" style="fill:#1FD3AC" />
<path d="M1002,113.82A5,5 0 1 1 992.04,113.82A5,5 0 1 1 1002,113.82Z" style="fill:#1FD3AC" />
<path d="M1013.2,113.82A5,5 0 1 1 1003.2,113.82A5,5 0 1 1 1013.2,113.82Z" style="fill:#1FD3AC" />
<path d="M1024.3,113.82A5,5 0 1 1 1014.3,113.82A5,5 0 1 1 1024.3,113.82Z" style="fill:#1FD3AC" />
<path d="M1035.5,113.82A5,5 0 1 1 1025.5,113.82A5,5 0 1 1 1035.5,113.82Z" style="fill:#1FD3AC" />
<path d="M1046.6,113.82A5,5 0 1 1 1036.6,113.82A5,5 0 1 1 1046.6,113.82Z" style="fill:#1FD3AC" />
<path d="M1057.7,113.82A5,5 0 1 1 1047.7,113.82A5,5 0 1 1 1057.7,113.82Z" style="fill:#1FD3AC" />
<path d="M1068.9,113.82A5,5 0 1 1 1058.9,113.82A5,5 0 1 1 1068.9,113.82Z" style="fill:#1FD3AC" />
<path d="M1080,113.82A5,5 0 1 1 1070,113.82A5,5 0 1 1 1080,113.82Z" style="fill:#1FD3AC" />
<path d="M150.67,113.82L1075,113.82" style="fill:none;stroke:#000000" />
<path d="M1075,113.82L1075,113.82" style="fill:none;stroke:#000000" />
<path d="M262.03,974.14L273.17,957.43L284.3,939.42L295.44,920.2L306.58,899.83L317.71,878.42L328.85,856.04L339.99,832.8L351.12,808.77L362.26,784.07L373.4,758.79L384.53,733.02L395.67,706.88L406.81,680.45L417.94,653.84L429.08,627.14L440.22,600.46L451.35,573.89L462.49,547.51L473.63,521.42L484.76,495.7L495.9,470.44L507.04,445.71L518.17,421.58L529.31,398.13L540.45,375.41L551.58,353.49L562.72,332.41L573.86,312.21L584.99,292.95L596.13,274.65L607.26,257.35L618.4,241.06L629.54,225.8L640.67,211.58L651.81,198.4L662.95,186.27L674.08,175.18L685.22,165.11L696.36,156.05L707.49,147.97L718.63,140.85L729.77,134.67L740.9,129.37L752.04,124.94L763.18,121.31L774.31,118.46L785.45,116.34L796.59,114.89L807.72,114.07L818.86,113.82L830,114.09L841.13,114.84L852.27,116L863.41,117.52L874.54,119.36L885.68,121.46L896.82,123.77L907.95,126.25L919.09,128.84L930.22,131.51L941.36,134.2L952.5,136.89L963.63,139.53L974.77,142.09L985.91,144.53L997.04,146.84L1008.2,148.99L1019.3,150.94L1030.5,152.7L1041.6,154.23L1052.7,155.53L1063.9,156.59L1075,157.4" style="fill:none;stroke:#FF0000" />
<path d="M150.67,113.82L1075,113.82" style="fill:none;stroke:#000000" />
<path d="M1075,113.82L1075,113.82" style="fill:none;stroke:#000000" />
</g>
</svg>
