<?xml version="1.0"?>
<!-- Generated by SVGo and Plotinum VG -->
<svg width="1080pt" height="1080pt" viewBox="0 0 1080 1080"
	xmlns="http://www.w3.org/2000/svg"
	xmlns:xlink="http://www.w3.org/1999/xlink">
<g transform="scale(1, -1) translate(0, -1080)">
<path d="M0,0L1080,0L1080,1080L0,1080Z" style="fill:#-8000000000000000-8000000000000000-8000000000000000;fill-opacity:0" />
<text x="-126.88" y="-1015.2" transform="scale(1, -1)"
	style="font-family:Helvetica;font-weight:normal;font-style:normal;font-size:80px">Stokes Pump Power vs Widths of Fits</text>
<text x="419.37" y="-17.172" transform="scale(1, -1)"
	style="font-family:Helvetica;font-weight:normal;font-style:normal;font-size:56px">Pump Power (mW)</text>
<text x="310.36" y="-119.73" transform="scale(1, -1)"
	style="font-family:Helvetica;font-weight:normal;font-style:normal;font-size:56px">0</text>
<text x="483.3" y="-119.73" transform="scale(1, -1)"
	style="font-family:Helvetica;font-weight:normal;font-style:normal;font-size:56px">50</text>
<text x="656.25" y="-119.73" transform="scale(1, -1)"
	style="font-family:Helvetica;font-weight:normal;font-style:normal;font-size:56px">100</text>
<text x="844.77" y="-119.73" transform="scale(1, -1)"
	style="font-family:Helvetica;font-weight:normal;font-style:normal;font-size:56px">150</text>
<path d="M325.93,181.12L325.93,173.12" style="fill:none;stroke:#000000;stroke-width:1.5" />
<path d="M420.19,177.12L420.19,173.12" style="fill:none;stroke:#000000;stroke-width:1.5" />
<path d="M514.45,181.12L514.45,173.12" style="fill:none;stroke:#000000;stroke-width:1.5" />
<path d="M608.71,177.12L608.71,173.12" style="fill:none;stroke:#000000;stroke-width:1.5" />
<path d="M702.97,181.12L702.97,173.12" style="fill:none;stroke:#000000;stroke-width:1.5" />
<path d="M797.22,177.12L797.22,173.12" style="fill:none;stroke:#000000;stroke-width:1.5" />
<path d="M891.48,181.12L891.48,173.12" style="fill:none;stroke:#000000;stroke-width:1.5" />
<path d="M985.74,177.12L985.74,173.12" style="fill:none;stroke:#000000;stroke-width:1.5" />
<path d="M231.67,173.12L1080,173.12" style="fill:none;stroke:#000000;stroke-width:1.5" />
<g transform="rotate(90)">
<text x="217.24" y="45.391" transform="scale(1, -1)"
	style="font-family:Helvetica;font-weight:normal;font-style:normal;font-size:56px">Full Width Half Max (MHz)</text>
</g>
<text x="114.43" y="-779.17" transform="scale(1, -1)"
	style="font-family:Helvetica;font-weight:normal;font-style:normal;font-size:56px">100</text>
<text x="118.59" y="-837.85" transform="scale(1, -1)"
	style="font-family:Helvetica;font-weight:normal;font-style:normal;font-size:56px">110</text>
<path d="M235.42,763.95L231.42,763.95" style="fill:none;stroke:#000000;stroke-width:1.5" />
<path d="M239.42,793.28L231.42,793.28" style="fill:none;stroke:#000000;stroke-width:1.5" />
<path d="M235.42,822.62L231.42,822.62" style="fill:none;stroke:#000000;stroke-width:1.5" />
<path d="M239.42,851.95L231.42,851.95" style="fill:none;stroke:#000000;stroke-width:1.5" />
<path d="M235.42,881.29L231.42,881.29" style="fill:none;stroke:#000000;stroke-width:1.5" />
<path d="M231.42,177.24L231.42,910.62" style="fill:none;stroke:#000000;stroke-width:1.5" />
<path d="M331.93,732.72A6,6 0 1 1 319.93,732.72A6,6 0 1 1 331.93,732.72Z" style="fill:#1BAA8B" />
<path d="M325.93,177.24L325.93,732.72" style="fill:none;stroke:#1BAA8B;stroke-width:4;stroke-dasharray:15,5" />
<path d="M269.38,732.72L325.93,732.72" style="fill:none;stroke:#7F7F7F;stroke-dasharray:5,5" />
<path d="M633.56,770.15A6,6 0 1 1 621.56,770.15A6,6 0 1 1 633.56,770.15Z" style="fill:#C96892" />
<path d="M627.56,177.24L627.56,770.15" style="fill:none;stroke:#C96892;stroke-width:4;stroke-dasharray:15,5" />
<path d="M269.38,770.15L627.56,770.15" style="fill:none;stroke:#7F7F7F;stroke-dasharray:5,5" />
<path d="M972.89,763.08A6,6 0 1 1 960.89,763.08A6,6 0 1 1 972.89,763.08Z" style="fill:#637CC6" />
<path d="M966.89,177.24L966.89,763.08" style="fill:none;stroke:#637CC6;stroke-width:4;stroke-dasharray:15,5" />
<path d="M269.38,763.08L966.89,763.08" style="fill:none;stroke:#7F7F7F;stroke-dasharray:5,5" />
<text x="843.23" y="-789.14" transform="scale(1, -1)"
	style="font-family:Helvetica;font-weight:normal;font-style:normal;font-size:56px">0 mW</text>
<text x="812.09" y="-730.27" transform="scale(1, -1)"
	style="font-family:Helvetica;font-weight:normal;font-style:normal;font-size:56px">80 mW</text>
<text x="780.95" y="-671.41" transform="scale(1, -1)"
	style="font-family:Helvetica;font-weight:normal;font-style:normal;font-size:56px">170 mW</text>
</g>
</svg>
