<?xml version="1.0"?>
<!-- Generated by SVGo and Plotinum VG -->
<svg width="1080pt" height="1080pt" viewBox="0 0 1080 1080"
	xmlns="http://www.w3.org/2000/svg"
	xmlns:xlink="http://www.w3.org/1999/xlink">
<g transform="scale(1, -1) translate(0, -1080)">
<path d="M0,0L1080,0L1080,1080L0,1080Z" style="fill:#-8000000000000000-8000000000000000-8000000000000000;fill-opacity:0" />
<text x="533.05" y="-1039.5" transform="scale(1, -1)"
	style="font-family:Helvetica;font-weight:normal;font-style:normal;font-size:50px"> </text>
<text x="501.07" y="-11.039" transform="scale(1, -1)"
	style="font-family:Helvetica;font-weight:normal;font-style:normal;font-size:36px">Power (mW)</text>
<text x="142.15" y="-71.258" transform="scale(1, -1)"
	style="font-family:Helvetica;font-weight:normal;font-style:normal;font-size:36px">0</text>
<text x="356.59" y="-71.258" transform="scale(1, -1)"
	style="font-family:Helvetica;font-weight:normal;font-style:normal;font-size:36px">50</text>
<text x="571.03" y="-71.258" transform="scale(1, -1)"
	style="font-family:Helvetica;font-weight:normal;font-style:normal;font-size:36px">100</text>
<text x="795.48" y="-71.258" transform="scale(1, -1)"
	style="font-family:Helvetica;font-weight:normal;font-style:normal;font-size:36px">150</text>
<text x="1019.9" y="-71.258" transform="scale(1, -1)"
	style="font-family:Helvetica;font-weight:normal;font-style:normal;font-size:36px">200</text>
<path d="M152.16,116.44L152.16,108.44" style="fill:none;stroke:#000000;stroke-width:1.5" />
<path d="M264.39,112.44L264.39,108.44" style="fill:none;stroke:#000000;stroke-width:1.5" />
<path d="M376.61,116.44L376.61,108.44" style="fill:none;stroke:#000000;stroke-width:1.5" />
<path d="M488.84,112.44L488.84,108.44" style="fill:none;stroke:#000000;stroke-width:1.5" />
<path d="M601.07,116.44L601.07,108.44" style="fill:none;stroke:#000000;stroke-width:1.5" />
<path d="M713.29,112.44L713.29,108.44" style="fill:none;stroke:#000000;stroke-width:1.5" />
<path d="M825.52,116.44L825.52,108.44" style="fill:none;stroke:#000000;stroke-width:1.5" />
<path d="M937.74,112.44L937.74,108.44" style="fill:none;stroke:#000000;stroke-width:1.5" />
<path d="M1050,116.44L1050,108.44" style="fill:none;stroke:#000000;stroke-width:1.5" />
<path d="M152.16,108.44L1050,108.44" style="fill:none;stroke:#000000;stroke-width:1.5" />
<g transform="rotate(90)">
<text x="348.53" y="29.18" transform="scale(1, -1)"
	style="font-family:Helvetica;font-weight:normal;font-style:normal;font-size:36px">Dissipation Rate (MHz)</text>
</g>
<text x="87.869" y="-95.246" transform="scale(1, -1)"
	style="font-family:Helvetica;font-weight:normal;font-style:normal;font-size:36px">60</text>
<text x="87.869" y="-381.42" transform="scale(1, -1)"
	style="font-family:Helvetica;font-weight:normal;font-style:normal;font-size:36px">80</text>
<text x="67.848" y="-667.59" transform="scale(1, -1)"
	style="font-family:Helvetica;font-weight:normal;font-style:normal;font-size:36px">100</text>
<text x="70.52" y="-953.77" transform="scale(1, -1)"
	style="font-family:Helvetica;font-weight:normal;font-style:normal;font-size:36px">110</text>
<path d="M153.91,104.32L145.91,104.32" style="fill:none;stroke:#000000;stroke-width:1.5" />
<path d="M149.91,247.4L145.91,247.4" style="fill:none;stroke:#000000;stroke-width:1.5" />
<path d="M153.91,390.49L145.91,390.49" style="fill:none;stroke:#000000;stroke-width:1.5" />
<path d="M149.91,533.58L145.91,533.58" style="fill:none;stroke:#000000;stroke-width:1.5" />
<path d="M153.91,676.66L145.91,676.66" style="fill:none;stroke:#000000;stroke-width:1.5" />
<path d="M149.91,819.75L145.91,819.75" style="fill:none;stroke:#000000;stroke-width:1.5" />
<path d="M153.91,962.84L145.91,962.84" style="fill:none;stroke:#000000;stroke-width:1.5" />
<path d="M145.91,104.32L145.91,962.84" style="fill:none;stroke:#000000;stroke-width:1.5" />
<path d="M152.16,557.95L511.29,592.78L897.34,630.23" style="fill:none;stroke:#637CC6;stroke-width:3" />
<path d="M152.16,962.84L1050,962.84" style="fill:none;stroke:#000000" />
<path d="M1050,104.32L1050,962.84" style="fill:none;stroke:#000000" />
<path d="M152.16,526.93L511.29,483.79L897.34,437.42" style="fill:none;stroke:#C96892;stroke-width:3" />
<path d="M152.16,526.42L152.16,526.42" style="fill:none;stroke:#627BC5;stroke-opacity:0.4902;stroke-width:3;stroke-dasharray:15,5" />
<path d="M152.16,526.42L152.16,526.42" style="fill:none;stroke:#C86791;stroke-opacity:0.4902;stroke-width:3;stroke-dasharray:15,5" />
<path d="M158.16,537.99A6,6 0 1 1 146.16,537.99A6,6 0 1 1 158.16,537.99Z" style="fill:#637CC6" />
<path d="M517.29,631.31A6,6 0 1 1 505.29,631.31A6,6 0 1 1 517.29,631.31Z" style="fill:#637CC6" />
<path d="M903.34,611.67A6,6 0 1 1 891.34,611.67A6,6 0 1 1 903.34,611.67Z" style="fill:#637CC6" />
<path d="M158.16,543.49A6,6 0 1 1 146.16,543.49A6,6 0 1 1 158.16,543.49Z" style="fill:#C96892" />
<path d="M517.29,451.83A6,6 0 1 1 505.29,451.83A6,6 0 1 1 517.29,451.83Z" style="fill:#C96892" />
<path d="M903.34,452.82A6,6 0 1 1 891.34,452.82A6,6 0 1 1 903.34,452.82Z" style="fill:#C96892" />
<path d="M183.66,929.52L233.66,929.52" style="fill:none;stroke:#637CC6;stroke-width:3" />
<text x="243.67" y="-921.04" transform="scale(1, -1)"
	style="font-family:Helvetica;font-weight:normal;font-style:normal;font-size:36px">Anti-Stokes</text>
<path d="M183.66,888.11L233.66,888.11" style="fill:none;stroke:#627BC5;stroke-opacity:0.4902;stroke-width:3;stroke-dasharray:15,5" />
<text x="243.67" y="-879.63" transform="scale(1, -1)"
	style="font-family:Helvetica;font-weight:normal;font-style:normal;font-size:36px">Γ as,eff</text>
<path d="M183.66,846.7L233.66,846.7" style="fill:none;stroke:#C96892;stroke-width:3" />
<text x="243.67" y="-838.22" transform="scale(1, -1)"
	style="font-family:Helvetica;font-weight:normal;font-style:normal;font-size:36px">Stokes</text>
<path d="M183.66,805.29L233.66,805.29" style="fill:none;stroke:#C86791;stroke-opacity:0.4902;stroke-width:3;stroke-dasharray:15,5" />
<text x="243.67" y="-796.8" transform="scale(1, -1)"
	style="font-family:Helvetica;font-weight:normal;font-style:normal;font-size:36px">Γ s,eff</text>
</g>
</svg>
