<?xml version="1.0"?>
<!-- Generated by SVGo and Plotinum VG -->
<svg width="1296pt" height="1080pt" viewBox="0 0 1296 1080"
	xmlns="http://www.w3.org/2000/svg"
	xmlns:xlink="http://www.w3.org/1999/xlink">
<g transform="scale(1, -1) translate(0, -1080)">
<path d="M0,0L1296,0L1296,1080L0,1080Z" style="fill-opacity:0" />
<text x="282.28" y="-1047.6" transform="scale(1, -1)"
	style="font-family:Liberation Sans;font-variant:normal;font-weight:normal;font-style:normal;font-size:40px">1 cm UHNA3 Phase-Matching Bandwidth</text>
<text x="457.46" y="-10.732" transform="scale(1, -1)"
	style="font-family:Liberation Sans;font-variant:normal;font-weight:normal;font-style:normal;font-size:35px">Pump-Probe Separation (GHz)</text>
<text x="219.98" y="-63.857" transform="scale(1, -1)"
	style="font-family:Liberation Serif;font-variant:normal;font-weight:normal;font-style:normal;font-size:30px">5.00</text>
<text x="494.04" y="-63.857" transform="scale(1, -1)"
	style="font-family:Liberation Serif;font-variant:normal;font-weight:normal;font-style:normal;font-size:30px">15.00</text>
<text x="775.6" y="-63.857" transform="scale(1, -1)"
	style="font-family:Liberation Serif;font-variant:normal;font-weight:normal;font-style:normal;font-size:30px">25.00</text>
<text x="1057.2" y="-63.857" transform="scale(1, -1)"
	style="font-family:Liberation Serif;font-variant:normal;font-weight:normal;font-style:normal;font-size:30px">35.00</text>
<path d="M105.45,87.324L1288,87.324" style="fill:none;stroke:#000000;stroke-width:2.5" />
<g transform="rotate(90)">
<text x="335.14" y="28.369" transform="scale(1, -1)"
	style="font-family:Liberation Sans;font-variant:normal;font-weight:normal;font-style:normal;font-size:35px">Peak Spectral Density (mV)</text>
</g>
<text x="61.519" y="-80.266" transform="scale(1, -1)"
	style="font-family:Liberation Sans;font-variant:normal;font-weight:normal;font-style:normal;font-size:30px">0.0</text>
<text x="61.519" y="-274" transform="scale(1, -1)"
	style="font-family:Liberation Sans;font-variant:normal;font-weight:normal;font-style:normal;font-size:30px">0.2</text>
<text x="61.519" y="-467.73" transform="scale(1, -1)"
	style="font-family:Liberation Sans;font-variant:normal;font-weight:normal;font-style:normal;font-size:30px">0.4</text>
<text x="61.519" y="-661.46" transform="scale(1, -1)"
	style="font-family:Liberation Sans;font-variant:normal;font-weight:normal;font-style:normal;font-size:30px">0.6</text>
<text x="61.519" y="-855.2" transform="scale(1, -1)"
	style="font-family:Liberation Sans;font-variant:normal;font-weight:normal;font-style:normal;font-size:30px">0.8</text>
<path d="M111.56,87.824L111.56,1012.3" style="fill:none;stroke:#000000;stroke-width:2.5" />
<path d="M105.45,87.824L105.45,92.824" style="fill:none;stroke:#000000;stroke-width:2.5" />
<path d="M246.23,87.824L246.23,97.824" style="fill:none;stroke:#000000;stroke-width:2.5" />
<text x="216.67" y="-53.424" transform="scale(1, -1)"
	style="font-family:Liberation Sans;font-variant:normal;font-weight:normal;font-style:normal;font-size:30px">5.00</text>
<path d="M387.01,87.824L387.01,92.824" style="fill:none;stroke:#000000;stroke-width:2.5" />
<path d="M527.79,87.824L527.79,97.824" style="fill:none;stroke:#000000;stroke-width:2.5" />
<text x="506.57" y="-53.424" transform="scale(1, -1)"
	style="font-family:Liberation Sans;font-variant:normal;font-weight:normal;font-style:normal;font-size:30px">15.00</text>
<path d="M668.57,87.824L668.57,92.824" style="fill:none;stroke:#000000;stroke-width:2.5" />
<path d="M809.35,87.824L809.35,97.824" style="fill:none;stroke:#000000;stroke-width:2.5" />
<text x="788.13" y="-53.424" transform="scale(1, -1)"
	style="font-family:Liberation Sans;font-variant:normal;font-weight:normal;font-style:normal;font-size:30px">25.00</text>
<path d="M950.13,87.824L950.13,92.824" style="fill:none;stroke:#000000;stroke-width:2.5" />
<path d="M1090.9,87.824L1090.9,97.824" style="fill:none;stroke:#000000;stroke-width:2.5" />
<text x="1069.7" y="-53.424" transform="scale(1, -1)"
	style="font-family:Liberation Sans;font-variant:normal;font-weight:normal;font-style:normal;font-size:30px">35.00</text>
<path d="M105.45,87.824L115.45,87.824" style="fill:none;stroke:#000000;stroke-width:2.5" />
<text x="45.299" y="-79.424" transform="scale(1, -1)"
	style="font-family:Liberation Sans;font-variant:normal;font-weight:normal;font-style:normal;font-size:30px">0.0</text>
<path d="M105.45,120.11L110.45,120.11" style="fill:none;stroke:#000000;stroke-width:2.5" />
<path d="M105.45,152.4L110.45,152.4" style="fill:none;stroke:#000000;stroke-width:2.5" />
<path d="M105.45,184.69L110.45,184.69" style="fill:none;stroke:#000000;stroke-width:2.5" />
<path d="M105.45,216.98L110.45,216.98" style="fill:none;stroke:#000000;stroke-width:2.5" />
<path d="M105.45,249.27L110.45,249.27" style="fill:none;stroke:#000000;stroke-width:2.5" />
<path d="M105.45,281.56L115.45,281.56" style="fill:none;stroke:#000000;stroke-width:2.5" />
<text x="45.299" y="-273.16" transform="scale(1, -1)"
	style="font-family:Liberation Sans;font-variant:normal;font-weight:normal;font-style:normal;font-size:30px">0.2</text>
<path d="M105.45,313.85L110.45,313.85" style="fill:none;stroke:#000000;stroke-width:2.5" />
<path d="M105.45,346.13L110.45,346.13" style="fill:none;stroke:#000000;stroke-width:2.5" />
<path d="M105.45,378.42L110.45,378.42" style="fill:none;stroke:#000000;stroke-width:2.5" />
<path d="M105.45,410.71L110.45,410.71" style="fill:none;stroke:#000000;stroke-width:2.5" />
<path d="M105.45,443L110.45,443" style="fill:none;stroke:#000000;stroke-width:2.5" />
<path d="M105.45,475.29L115.45,475.29" style="fill:none;stroke:#000000;stroke-width:2.5" />
<text x="45.299" y="-466.89" transform="scale(1, -1)"
	style="font-family:Liberation Sans;font-variant:normal;font-weight:normal;font-style:normal;font-size:30px">0.4</text>
<path d="M105.45,507.58L110.45,507.58" style="fill:none;stroke:#000000;stroke-width:2.5" />
<path d="M105.45,539.87L110.45,539.87" style="fill:none;stroke:#000000;stroke-width:2.5" />
<path d="M105.45,572.16L110.45,572.16" style="fill:none;stroke:#000000;stroke-width:2.5" />
<path d="M105.45,604.45L110.45,604.45" style="fill:none;stroke:#000000;stroke-width:2.5" />
<path d="M105.45,636.73L110.45,636.73" style="fill:none;stroke:#000000;stroke-width:2.5" />
<path d="M105.45,669.02L115.45,669.02" style="fill:none;stroke:#000000;stroke-width:2.5" />
<text x="45.299" y="-660.62" transform="scale(1, -1)"
	style="font-family:Liberation Sans;font-variant:normal;font-weight:normal;font-style:normal;font-size:30px">0.6</text>
<path d="M105.45,701.31L110.45,701.31" style="fill:none;stroke:#000000;stroke-width:2.5" />
<path d="M105.45,733.6L110.45,733.6" style="fill:none;stroke:#000000;stroke-width:2.5" />
<path d="M105.45,765.89L110.45,765.89" style="fill:none;stroke:#000000;stroke-width:2.5" />
<path d="M105.45,798.18L110.45,798.18" style="fill:none;stroke:#000000;stroke-width:2.5" />
<path d="M105.45,830.47L110.45,830.47" style="fill:none;stroke:#000000;stroke-width:2.5" />
<path d="M105.45,862.76L115.45,862.76" style="fill:none;stroke:#000000;stroke-width:2.5" />
<text x="45.299" y="-854.36" transform="scale(1, -1)"
	style="font-family:Liberation Sans;font-variant:normal;font-weight:normal;font-style:normal;font-size:30px">0.8</text>
<path d="M105.45,895.04L110.45,895.04" style="fill:none;stroke:#000000;stroke-width:2.5" />
<path d="M105.45,927.33L110.45,927.33" style="fill:none;stroke:#000000;stroke-width:2.5" />
<path d="M105.45,959.62L110.45,959.62" style="fill:none;stroke:#000000;stroke-width:2.5" />
<path d="M105.45,991.91L110.45,991.91" style="fill:none;stroke:#000000;stroke-width:2.5" />
<path d="M254.23,1012.3A8,8 0 1 1 238.23,1012.3A8,8 0 1 1 254.23,1012.3Z" style="fill:#1FD3AC" />
<path d="M268.3,847.03A8,8 0 1 1 252.3,847.03A8,8 0 1 1 268.3,847.03Z" style="fill:#1FD3AC" />
<path d="M282.38,767.31A8,8 0 1 1 266.38,767.31A8,8 0 1 1 282.38,767.31Z" style="fill:#1FD3AC" />
<path d="M296.46,724.71A8,8 0 1 1 280.46,724.71A8,8 0 1 1 296.46,724.71Z" style="fill:#1FD3AC" />
<path d="M310.54,628.24A8,8 0 1 1 294.54,628.24A8,8 0 1 1 310.54,628.24Z" style="fill:#1FD3AC" />
<path d="M324.62,540.39A8,8 0 1 1 308.62,540.39A8,8 0 1 1 324.62,540.39Z" style="fill:#1FD3AC" />
<path d="M338.7,486.46A8,8 0 1 1 322.7,486.46A8,8 0 1 1 338.7,486.46Z" style="fill:#1FD3AC" />
<path d="M352.77,422.66A8,8 0 1 1 336.77,422.66A8,8 0 1 1 352.77,422.66Z" style="fill:#1FD3AC" />
<path d="M366.85,366.73A8,8 0 1 1 350.85,366.73A8,8 0 1 1 366.85,366.73Z" style="fill:#1FD3AC" />
<path d="M380.93,285.53A8,8 0 1 1 364.93,285.53A8,8 0 1 1 380.93,285.53Z" style="fill:#1FD3AC" />
<path d="M395.01,221.88A8,8 0 1 1 379.01,221.88A8,8 0 1 1 395.01,221.88Z" style="fill:#1FD3AC" />
<path d="M409.09,194.62A8,8 0 1 1 393.09,194.62A8,8 0 1 1 409.09,194.62Z" style="fill:#1FD3AC" />
<path d="M423.16,164.38A8,8 0 1 1 407.16,164.38A8,8 0 1 1 423.16,164.38Z" style="fill:#1FD3AC" />
<path d="M437.24,160.23A8,8 0 1 1 421.24,160.23A8,8 0 1 1 437.24,160.23Z" style="fill:#1FD3AC" />
<path d="M451.32,209.44A8,8 0 1 1 435.32,209.44A8,8 0 1 1 451.32,209.44Z" style="fill:#1FD3AC" />
<path d="M465.4,235.25A8,8 0 1 1 449.4,235.25A8,8 0 1 1 465.4,235.25Z" style="fill:#1FD3AC" />
<path d="M479.48,256.28A8,8 0 1 1 463.48,256.28A8,8 0 1 1 479.48,256.28Z" style="fill:#1FD3AC" />
<path d="M493.55,286.25A8,8 0 1 1 477.55,286.25A8,8 0 1 1 493.55,286.25Z" style="fill:#1FD3AC" />
<path d="M507.63,302A8,8 0 1 1 491.63,302A8,8 0 1 1 507.63,302Z" style="fill:#1FD3AC" />
<path d="M521.71,310.9A8,8 0 1 1 505.71,310.9A8,8 0 1 1 521.71,310.9Z" style="fill:#1FD3AC" />
<path d="M535.79,304.34A8,8 0 1 1 519.79,304.34A8,8 0 1 1 535.79,304.34Z" style="fill:#1FD3AC" />
<path d="M549.87,303.75A8,8 0 1 1 533.87,303.75A8,8 0 1 1 549.87,303.75Z" style="fill:#1FD3AC" />
<path d="M563.94,309.94A8,8 0 1 1 547.94,309.94A8,8 0 1 1 563.94,309.94Z" style="fill:#1FD3AC" />
<path d="M578.02,300.54A8,8 0 1 1 562.02,300.54A8,8 0 1 1 578.02,300.54Z" style="fill:#1FD3AC" />
<path d="M592.1,292.06A8,8 0 1 1 576.1,292.06A8,8 0 1 1 592.1,292.06Z" style="fill:#1FD3AC" />
<path d="M606.18,275.72A8,8 0 1 1 590.18,275.72A8,8 0 1 1 606.18,275.72Z" style="fill:#1FD3AC" />
<path d="M620.26,258.57A8,8 0 1 1 604.26,258.57A8,8 0 1 1 620.26,258.57Z" style="fill:#1FD3AC" />
<path d="M634.33,239.9A8,8 0 1 1 618.33,239.9A8,8 0 1 1 634.33,239.9Z" style="fill:#1FD3AC" />
<path d="M648.41,221.47A8,8 0 1 1 632.41,221.47A8,8 0 1 1 648.41,221.47Z" style="fill:#1FD3AC" />
<path d="M662.49,202.98A8,8 0 1 1 646.49,202.98A8,8 0 1 1 662.49,202.98Z" style="fill:#1FD3AC" />
<path d="M676.57,174.75A8,8 0 1 1 660.57,174.75A8,8 0 1 1 676.57,174.75Z" style="fill:#1FD3AC" />
<path d="M690.65,155.41A8,8 0 1 1 674.65,155.41A8,8 0 1 1 690.65,155.41Z" style="fill:#1FD3AC" />
<path d="M704.72,139.19A8,8 0 1 1 688.72,139.19A8,8 0 1 1 704.72,139.19Z" style="fill:#1FD3AC" />
<path d="M718.8,126.09A8,8 0 1 1 702.8,126.09A8,8 0 1 1 718.8,126.09Z" style="fill:#1FD3AC" />
<path d="M732.88,130.34A8,8 0 1 1 716.88,130.34A8,8 0 1 1 732.88,130.34Z" style="fill:#1FD3AC" />
<path d="M746.96,137.82A8,8 0 1 1 730.96,137.82A8,8 0 1 1 746.96,137.82Z" style="fill:#1FD3AC" />
<path d="M761.04,140.52A8,8 0 1 1 745.04,140.52A8,8 0 1 1 761.04,140.52Z" style="fill:#1FD3AC" />
<path d="M775.11,151.92A8,8 0 1 1 759.11,151.92A8,8 0 1 1 775.11,151.92Z" style="fill:#1FD3AC" />
<path d="M789.19,168.53A8,8 0 1 1 773.19,168.53A8,8 0 1 1 789.19,168.53Z" style="fill:#1FD3AC" />
<path d="M803.27,174.31A8,8 0 1 1 787.27,174.31A8,8 0 1 1 803.27,174.31Z" style="fill:#1FD3AC" />
<path d="M817.35,185.85A8,8 0 1 1 801.35,185.85A8,8 0 1 1 817.35,185.85Z" style="fill:#1FD3AC" />
<path d="M831.43,190.42A8,8 0 1 1 815.43,190.42A8,8 0 1 1 831.43,190.42Z" style="fill:#1FD3AC" />
<path d="M845.5,197.32A8,8 0 1 1 829.5,197.32A8,8 0 1 1 845.5,197.32Z" style="fill:#1FD3AC" />
<path d="M859.58,197.63A8,8 0 1 1 843.58,197.63A8,8 0 1 1 859.58,197.63Z" style="fill:#1FD3AC" />
<path d="M873.66,195.67A8,8 0 1 1 857.66,195.67A8,8 0 1 1 873.66,195.67Z" style="fill:#1FD3AC" />
<path d="M887.74,193.66A8,8 0 1 1 871.74,193.66A8,8 0 1 1 887.74,193.66Z" style="fill:#1FD3AC" />
<path d="M901.82,188.67A8,8 0 1 1 885.82,188.67A8,8 0 1 1 901.82,188.67Z" style="fill:#1FD3AC" />
<path d="M915.89,182A8,8 0 1 1 899.89,182A8,8 0 1 1 915.89,182Z" style="fill:#1FD3AC" />
<path d="M929.97,181.26A8,8 0 1 1 913.97,181.26A8,8 0 1 1 929.97,181.26Z" style="fill:#1FD3AC" />
<path d="M944.05,171.72A8,8 0 1 1 928.05,171.72A8,8 0 1 1 944.05,171.72Z" style="fill:#1FD3AC" />
<path d="M958.13,162.26A8,8 0 1 1 942.13,162.26A8,8 0 1 1 958.13,162.26Z" style="fill:#1FD3AC" />
<path d="M972.21,152.06A8,8 0 1 1 956.21,152.06A8,8 0 1 1 972.21,152.06Z" style="fill:#1FD3AC" />
<path d="M986.28,141.19A8,8 0 1 1 970.28,141.19A8,8 0 1 1 986.28,141.19Z" style="fill:#1FD3AC" />
<path d="M1000.4,129.04A8,8 0 1 1 984.36,129.04A8,8 0 1 1 1000.4,129.04Z" style="fill:#1FD3AC" />
<path d="M1014.4,118.9A8,8 0 1 1 998.44,118.9A8,8 0 1 1 1014.4,118.9Z" style="fill:#1FD3AC" />
<path d="M1028.5,114.18A8,8 0 1 1 1012.5,114.18A8,8 0 1 1 1028.5,114.18Z" style="fill:#1FD3AC" />
<path d="M1042.6,115.71A8,8 0 1 1 1026.6,115.71A8,8 0 1 1 1042.6,115.71Z" style="fill:#1FD3AC" />
<path d="M1056.7,120.27A8,8 0 1 1 1040.7,120.27A8,8 0 1 1 1056.7,120.27Z" style="fill:#1FD3AC" />
<path d="M1070.8,129.81A8,8 0 1 1 1054.8,129.81A8,8 0 1 1 1070.8,129.81Z" style="fill:#1FD3AC" />
<path d="M1084.8,137.78A8,8 0 1 1 1068.8,137.78A8,8 0 1 1 1084.8,137.78Z" style="fill:#1FD3AC" />
<path d="M1098.9,141.62A8,8 0 1 1 1082.9,141.62A8,8 0 1 1 1098.9,141.62Z" style="fill:#1FD3AC" />
<path d="M1113,147.02A8,8 0 1 1 1097,147.02A8,8 0 1 1 1113,147.02Z" style="fill:#1FD3AC" />
<path d="M1127.1,154.06A8,8 0 1 1 1111.1,154.06A8,8 0 1 1 1127.1,154.06Z" style="fill:#1FD3AC" />
<path d="M1141.1,159.21A8,8 0 1 1 1125.1,159.21A8,8 0 1 1 1141.1,159.21Z" style="fill:#1FD3AC" />
<path d="M1155.2,159.66A8,8 0 1 1 1139.2,159.66A8,8 0 1 1 1155.2,159.66Z" style="fill:#1FD3AC" />
<path d="M1169.3,158.68A8,8 0 1 1 1153.3,158.68A8,8 0 1 1 1169.3,158.68Z" style="fill:#1FD3AC" />
<path d="M1183.4,161.41A8,8 0 1 1 1167.4,161.41A8,8 0 1 1 1183.4,161.41Z" style="fill:#1FD3AC" />
<path d="M1197.5,158.98A8,8 0 1 1 1181.5,158.98A8,8 0 1 1 1197.5,158.98Z" style="fill:#1FD3AC" />
<path d="M1211.5,155.68A8,8 0 1 1 1195.5,155.68A8,8 0 1 1 1211.5,155.68Z" style="fill:#1FD3AC" />
<path d="M1225.6,150.99A8,8 0 1 1 1209.6,150.99A8,8 0 1 1 1225.6,150.99Z" style="fill:#1FD3AC" />
<path d="M1239.7,146.56A8,8 0 1 1 1223.7,146.56A8,8 0 1 1 1239.7,146.56Z" style="fill:#1FD3AC" />
<path d="M1253.8,140.32A8,8 0 1 1 1237.8,140.32A8,8 0 1 1 1253.8,140.32Z" style="fill:#1FD3AC" />
<path d="M1267.8,135.79A8,8 0 1 1 1251.8,135.79A8,8 0 1 1 1267.8,135.79Z" style="fill:#1FD3AC" />
<path d="M1281.9,128.72A8,8 0 1 1 1265.9,128.72A8,8 0 1 1 1281.9,128.72Z" style="fill:#1FD3AC" />
<path d="M1296,118.85A8,8 0 1 1 1280,118.85A8,8 0 1 1 1296,118.85Z" style="fill:#1FD3AC" />
<path d="M105.45,1012.3L1288,1012.3" style="fill:none;stroke:#000000;stroke-width:2.5" />
<path d="M1288,87.824L1288,1012.3" style="fill:none;stroke:#000000;stroke-width:2.5" />
</g>
</svg>
