<?xml version="1.0"?>
<!-- Generated by SVGo and Plotinum VG -->
<svg width="1080pt" height="1080pt" viewBox="0 0 1080 1080"
	xmlns="http://www.w3.org/2000/svg"
	xmlns:xlink="http://www.w3.org/1999/xlink">
<g transform="scale(1, -1) translate(0, -1080)">
<path d="M0,0L1080,0L1080,1080L0,1080Z" style="fill:#-8000000000000000-8000000000000000-8000000000000000;fill-opacity:0" />
<text x="319.11" y="-1039.5" transform="scale(1, -1)"
	style="font-family:Helvetica;font-weight:normal;font-style:normal;font-size:50px">1 cm UHNA3 CABS</text>
<text x="497.32" y="-11.039" transform="scale(1, -1)"
	style="font-family:Helvetica;font-weight:normal;font-style:normal;font-size:36px">Frequency (GHz)</text>
<text x="226.96" y="-71.258" transform="scale(1, -1)"
	style="font-family:Helvetica;font-weight:normal;font-style:normal;font-size:36px">9.03</text>
<text x="392.71" y="-71.258" transform="scale(1, -1)"
	style="font-family:Helvetica;font-weight:normal;font-style:normal;font-size:36px">9.07</text>
<text x="558.47" y="-71.258" transform="scale(1, -1)"
	style="font-family:Helvetica;font-weight:normal;font-style:normal;font-size:36px">9.12</text>
<text x="724.22" y="-71.258" transform="scale(1, -1)"
	style="font-family:Helvetica;font-weight:normal;font-style:normal;font-size:36px">9.18</text>
<text x="889.97" y="-71.258" transform="scale(1, -1)"
	style="font-family:Helvetica;font-weight:normal;font-style:normal;font-size:36px">9.22</text>
<path d="M261.99,116.44L261.99,108.44" style="fill:none;stroke:#000000;stroke-width:1.5" />
<path d="M344.87,112.44L344.87,108.44" style="fill:none;stroke:#000000;stroke-width:1.5" />
<path d="M427.75,116.44L427.75,108.44" style="fill:none;stroke:#000000;stroke-width:1.5" />
<path d="M510.62,112.44L510.62,108.44" style="fill:none;stroke:#000000;stroke-width:1.5" />
<path d="M593.5,116.44L593.5,108.44" style="fill:none;stroke:#000000;stroke-width:1.5" />
<path d="M676.38,112.44L676.38,108.44" style="fill:none;stroke:#000000;stroke-width:1.5" />
<path d="M759.25,116.44L759.25,108.44" style="fill:none;stroke:#000000;stroke-width:1.5" />
<path d="M842.13,112.44L842.13,108.44" style="fill:none;stroke:#000000;stroke-width:1.5" />
<path d="M925.01,116.44L925.01,108.44" style="fill:none;stroke:#000000;stroke-width:1.5" />
<path d="M1007.9,112.44L1007.9,108.44" style="fill:none;stroke:#000000;stroke-width:1.5" />
<path d="M195.71,108.44L1075,108.44" style="fill:none;stroke:#000000;stroke-width:1.5" />
<g transform="rotate(90)">
<text x="371.42" y="29.18" transform="scale(1, -1)"
	style="font-family:Helvetica;font-weight:normal;font-style:normal;font-size:36px">Spectral Density (uV)</text>
</g>
<text x="87.869" y="-207.91" transform="scale(1, -1)"
	style="font-family:Helvetica;font-weight:normal;font-style:normal;font-size:36px">74.64</text>
<text x="67.848" y="-424.24" transform="scale(1, -1)"
	style="font-family:Helvetica;font-weight:normal;font-style:normal;font-size:36px">158.77</text>
<text x="67.848" y="-640.57" transform="scale(1, -1)"
	style="font-family:Helvetica;font-weight:normal;font-style:normal;font-size:36px">242.91</text>
<text x="67.848" y="-856.9" transform="scale(1, -1)"
	style="font-family:Helvetica;font-weight:normal;font-style:normal;font-size:36px">327.05</text>
<path d="M199.96,108.82L195.96,108.82" style="fill:none;stroke:#000000;stroke-width:1.5" />
<path d="M203.96,216.98L195.96,216.98" style="fill:none;stroke:#000000;stroke-width:1.5" />
<path d="M199.96,325.15L195.96,325.15" style="fill:none;stroke:#000000;stroke-width:1.5" />
<path d="M203.96,433.31L195.96,433.31" style="fill:none;stroke:#000000;stroke-width:1.5" />
<path d="M199.96,541.48L195.96,541.48" style="fill:none;stroke:#000000;stroke-width:1.5" />
<path d="M203.96,649.64L195.96,649.64" style="fill:none;stroke:#000000;stroke-width:1.5" />
<path d="M199.96,757.81L195.96,757.81" style="fill:none;stroke:#000000;stroke-width:1.5" />
<path d="M203.96,865.98L195.96,865.98" style="fill:none;stroke:#000000;stroke-width:1.5" />
<path d="M199.96,974.14L195.96,974.14" style="fill:none;stroke:#000000;stroke-width:1.5" />
<path d="M199.96,974.14L195.96,974.14" style="fill:none;stroke:#000000;stroke-width:1.5" />
<path d="M195.96,108.82L195.96,974.14" style="fill:none;stroke:#000000;stroke-width:1.5" />
<path d="M195.71,163.85L195.71,170.45" style="fill:none;stroke:#BC75FF" />
<path d="M193.21,163.85L198.21,163.85" style="fill:none;stroke:#BC75FF" />
<path d="M193.21,170.45L198.21,170.45" style="fill:none;stroke:#BC75FF" />
<path d="M212.3,170.63L212.3,177.26" style="fill:none;stroke:#BC75FF" />
<path d="M209.8,170.63L214.8,170.63" style="fill:none;stroke:#BC75FF" />
<path d="M209.8,177.26L214.8,177.26" style="fill:none;stroke:#BC75FF" />
<path d="M228.89,183.15L228.89,189.87" style="fill:none;stroke:#BC75FF" />
<path d="M226.39,183.15L231.39,183.15" style="fill:none;stroke:#BC75FF" />
<path d="M226.39,189.87L231.39,189.87" style="fill:none;stroke:#BC75FF" />
<path d="M245.48,193.96L245.48,200.27" style="fill:none;stroke:#BC75FF" />
<path d="M242.98,193.96L247.98,193.96" style="fill:none;stroke:#BC75FF" />
<path d="M242.98,200.27L247.98,200.27" style="fill:none;stroke:#BC75FF" />
<path d="M262.07,203.43L262.07,210.32" style="fill:none;stroke:#BC75FF" />
<path d="M259.57,203.43L264.57,203.43" style="fill:none;stroke:#BC75FF" />
<path d="M259.57,210.32L264.57,210.32" style="fill:none;stroke:#BC75FF" />
<path d="M278.66,214.74L278.66,221.17" style="fill:none;stroke:#BC75FF" />
<path d="M276.16,214.74L281.16,214.74" style="fill:none;stroke:#BC75FF" />
<path d="M276.16,221.17L281.16,221.17" style="fill:none;stroke:#BC75FF" />
<path d="M295.25,227.96L295.25,234.94" style="fill:none;stroke:#BC75FF" />
<path d="M292.75,227.96L297.75,227.96" style="fill:none;stroke:#BC75FF" />
<path d="M292.75,234.94L297.75,234.94" style="fill:none;stroke:#BC75FF" />
<path d="M311.84,244.96L311.84,251.11" style="fill:none;stroke:#BC75FF" />
<path d="M309.34,244.96L314.34,244.96" style="fill:none;stroke:#BC75FF" />
<path d="M309.34,251.11L314.34,251.11" style="fill:none;stroke:#BC75FF" />
<path d="M328.43,258.52L328.43,266.58" style="fill:none;stroke:#BC75FF" />
<path d="M325.93,258.52L330.93,258.52" style="fill:none;stroke:#BC75FF" />
<path d="M325.93,266.58L330.93,266.58" style="fill:none;stroke:#BC75FF" />
<path d="M345.02,278.24L345.02,283.96" style="fill:none;stroke:#BC75FF" />
<path d="M342.52,278.24L347.52,278.24" style="fill:none;stroke:#BC75FF" />
<path d="M342.52,283.96L347.52,283.96" style="fill:none;stroke:#BC75FF" />
<path d="M361.61,295.52L361.61,302.44" style="fill:none;stroke:#BC75FF" />
<path d="M359.11,295.52L364.11,295.52" style="fill:none;stroke:#BC75FF" />
<path d="M359.11,302.44L364.11,302.44" style="fill:none;stroke:#BC75FF" />
<path d="M378.2,321.23L378.2,325.69" style="fill:none;stroke:#BC75FF" />
<path d="M375.7,321.23L380.7,321.23" style="fill:none;stroke:#BC75FF" />
<path d="M375.7,325.69L380.7,325.69" style="fill:none;stroke:#BC75FF" />
<path d="M394.79,337.71L394.79,346.89" style="fill:none;stroke:#BC75FF" />
<path d="M392.29,337.71L397.29,337.71" style="fill:none;stroke:#BC75FF" />
<path d="M392.29,346.89L397.29,346.89" style="fill:none;stroke:#BC75FF" />
<path d="M411.38,363.65L411.38,369.31" style="fill:none;stroke:#BC75FF" />
<path d="M408.88,363.65L413.88,363.65" style="fill:none;stroke:#BC75FF" />
<path d="M408.88,369.31L413.88,369.31" style="fill:none;stroke:#BC75FF" />
<path d="M427.97,392.55L427.97,400.73" style="fill:none;stroke:#BC75FF" />
<path d="M425.47,392.55L430.47,392.55" style="fill:none;stroke:#BC75FF" />
<path d="M425.47,400.73L430.47,400.73" style="fill:none;stroke:#BC75FF" />
<path d="M444.56,421.21L444.56,429.08" style="fill:none;stroke:#BC75FF" />
<path d="M442.06,421.21L447.06,421.21" style="fill:none;stroke:#BC75FF" />
<path d="M442.06,429.08L447.06,429.08" style="fill:none;stroke:#BC75FF" />
<path d="M461.16,454.75L461.16,458.47" style="fill:none;stroke:#BC75FF" />
<path d="M458.66,454.75L463.66,454.75" style="fill:none;stroke:#BC75FF" />
<path d="M458.66,458.47L463.66,458.47" style="fill:none;stroke:#BC75FF" />
<path d="M477.75,485.77L477.75,490.73" style="fill:none;stroke:#BC75FF" />
<path d="M475.25,485.77L480.25,485.77" style="fill:none;stroke:#BC75FF" />
<path d="M475.25,490.73L480.25,490.73" style="fill:none;stroke:#BC75FF" />
<path d="M494.34,526.76L494.34,536.94" style="fill:none;stroke:#BC75FF" />
<path d="M491.84,526.76L496.84,526.76" style="fill:none;stroke:#BC75FF" />
<path d="M491.84,536.94L496.84,536.94" style="fill:none;stroke:#BC75FF" />
<path d="M510.93,566.02L510.93,572.09" style="fill:none;stroke:#BC75FF" />
<path d="M508.43,566.02L513.43,566.02" style="fill:none;stroke:#BC75FF" />
<path d="M508.43,572.09L513.43,572.09" style="fill:none;stroke:#BC75FF" />
<path d="M527.52,616.68L527.52,621.54" style="fill:none;stroke:#BC75FF" />
<path d="M525.02,616.68L530.02,616.68" style="fill:none;stroke:#BC75FF" />
<path d="M525.02,621.54L530.02,621.54" style="fill:none;stroke:#BC75FF" />
<path d="M544.11,657.73L544.11,662.24" style="fill:none;stroke:#BC75FF" />
<path d="M541.61,657.73L546.61,657.73" style="fill:none;stroke:#BC75FF" />
<path d="M541.61,662.24L546.61,662.24" style="fill:none;stroke:#BC75FF" />
<path d="M560.7,702.68L560.7,711.13" style="fill:none;stroke:#BC75FF" />
<path d="M558.2,702.68L563.2,702.68" style="fill:none;stroke:#BC75FF" />
<path d="M558.2,711.13L563.2,711.13" style="fill:none;stroke:#BC75FF" />
<path d="M577.29,744.91L577.29,751.08" style="fill:none;stroke:#BC75FF" />
<path d="M574.79,744.91L579.79,744.91" style="fill:none;stroke:#BC75FF" />
<path d="M574.79,751.08L579.79,751.08" style="fill:none;stroke:#BC75FF" />
<path d="M593.88,769.5L593.88,773.42" style="fill:none;stroke:#BC75FF" />
<path d="M591.38,769.5L596.38,769.5" style="fill:none;stroke:#BC75FF" />
<path d="M591.38,773.42L596.38,773.42" style="fill:none;stroke:#BC75FF" />
<path d="M610.47,770.35L610.47,775.69" style="fill:none;stroke:#BC75FF" />
<path d="M607.97,770.35L612.97,770.35" style="fill:none;stroke:#BC75FF" />
<path d="M607.97,775.69L612.97,775.69" style="fill:none;stroke:#BC75FF" />
<path d="M627.06,755.62L627.06,766.25" style="fill:none;stroke:#BC75FF" />
<path d="M624.56,755.62L629.56,755.62" style="fill:none;stroke:#BC75FF" />
<path d="M624.56,766.25L629.56,766.25" style="fill:none;stroke:#BC75FF" />
<path d="M643.65,723.94L643.65,737.36" style="fill:none;stroke:#BC75FF" />
<path d="M641.15,723.94L646.15,723.94" style="fill:none;stroke:#BC75FF" />
<path d="M641.15,737.36L646.15,737.36" style="fill:none;stroke:#BC75FF" />
<path d="M660.24,682.4L660.24,696.27" style="fill:none;stroke:#BC75FF" />
<path d="M657.74,682.4L662.74,682.4" style="fill:none;stroke:#BC75FF" />
<path d="M657.74,696.27L662.74,696.27" style="fill:none;stroke:#BC75FF" />
<path d="M676.83,659.79L676.83,680.84" style="fill:none;stroke:#BC75FF" />
<path d="M674.33,659.79L679.33,659.79" style="fill:none;stroke:#BC75FF" />
<path d="M674.33,680.84L679.33,680.84" style="fill:none;stroke:#BC75FF" />
<path d="M693.42,666.17L693.42,690.55" style="fill:none;stroke:#BC75FF" />
<path d="M690.92,666.17L695.92,666.17" style="fill:none;stroke:#BC75FF" />
<path d="M690.92,690.55L695.92,690.55" style="fill:none;stroke:#BC75FF" />
<path d="M710.01,681.4L710.01,709.03" style="fill:none;stroke:#BC75FF" />
<path d="M707.51,681.4L712.51,681.4" style="fill:none;stroke:#BC75FF" />
<path d="M707.51,709.03L712.51,709.03" style="fill:none;stroke:#BC75FF" />
<path d="M726.6,690.58L726.6,725.01" style="fill:none;stroke:#BC75FF" />
<path d="M724.1,690.58L729.1,690.58" style="fill:none;stroke:#BC75FF" />
<path d="M724.1,725.01L729.1,725.01" style="fill:none;stroke:#BC75FF" />
<path d="M743.19,684.51L743.19,713.25" style="fill:none;stroke:#BC75FF" />
<path d="M740.69,684.51L745.69,684.51" style="fill:none;stroke:#BC75FF" />
<path d="M740.69,713.25L745.69,713.25" style="fill:none;stroke:#BC75FF" />
<path d="M759.78,663.87L759.78,681.07" style="fill:none;stroke:#BC75FF" />
<path d="M757.28,663.87L762.28,663.87" style="fill:none;stroke:#BC75FF" />
<path d="M757.28,681.07L762.28,681.07" style="fill:none;stroke:#BC75FF" />
<path d="M776.37,621.37L776.37,640.17" style="fill:none;stroke:#BC75FF" />
<path d="M773.87,621.37L778.87,621.37" style="fill:none;stroke:#BC75FF" />
<path d="M773.87,640.17L778.87,640.17" style="fill:none;stroke:#BC75FF" />
<path d="M792.96,571.47L792.96,586.23" style="fill:none;stroke:#BC75FF" />
<path d="M790.46,571.47L795.46,571.47" style="fill:none;stroke:#BC75FF" />
<path d="M790.46,586.23L795.46,586.23" style="fill:none;stroke:#BC75FF" />
<path d="M809.55,531.9L809.55,544.14" style="fill:none;stroke:#BC75FF" />
<path d="M807.05,531.9L812.05,531.9" style="fill:none;stroke:#BC75FF" />
<path d="M807.05,544.14L812.05,544.14" style="fill:none;stroke:#BC75FF" />
<path d="M826.14,490.89L826.14,499.35" style="fill:none;stroke:#BC75FF" />
<path d="M823.64,490.89L828.64,490.89" style="fill:none;stroke:#BC75FF" />
<path d="M823.64,499.35L828.64,499.35" style="fill:none;stroke:#BC75FF" />
<path d="M842.73,442.77L842.73,448.63" style="fill:none;stroke:#BC75FF" />
<path d="M840.23,442.77L845.23,442.77" style="fill:none;stroke:#BC75FF" />
<path d="M840.23,448.63L845.23,448.63" style="fill:none;stroke:#BC75FF" />
<path d="M859.32,398.74L859.32,402.69" style="fill:none;stroke:#BC75FF" />
<path d="M856.82,398.74L861.82,398.74" style="fill:none;stroke:#BC75FF" />
<path d="M856.82,402.69L861.82,402.69" style="fill:none;stroke:#BC75FF" />
<path d="M875.92,361.56L875.92,368.87" style="fill:none;stroke:#BC75FF" />
<path d="M873.42,361.56L878.42,361.56" style="fill:none;stroke:#BC75FF" />
<path d="M873.42,368.87L878.42,368.87" style="fill:none;stroke:#BC75FF" />
<path d="M892.51,327.57L892.51,335.97" style="fill:none;stroke:#BC75FF" />
<path d="M890.01,327.57L895.01,327.57" style="fill:none;stroke:#BC75FF" />
<path d="M890.01,335.97L895.01,335.97" style="fill:none;stroke:#BC75FF" />
<path d="M909.1,296.9L909.1,300.92" style="fill:none;stroke:#BC75FF" />
<path d="M906.6,296.9L911.6,296.9" style="fill:none;stroke:#BC75FF" />
<path d="M906.6,300.92L911.6,300.92" style="fill:none;stroke:#BC75FF" />
<path d="M925.69,268.66L925.69,272.57" style="fill:none;stroke:#BC75FF" />
<path d="M923.19,268.66L928.19,268.66" style="fill:none;stroke:#BC75FF" />
<path d="M923.19,272.57L928.19,272.57" style="fill:none;stroke:#BC75FF" />
<path d="M942.28,246.75L942.28,249.2" style="fill:none;stroke:#BC75FF" />
<path d="M939.78,246.75L944.78,246.75" style="fill:none;stroke:#BC75FF" />
<path d="M939.78,249.2L944.78,249.2" style="fill:none;stroke:#BC75FF" />
<path d="M958.87,227.62L958.87,229.18" style="fill:none;stroke:#BC75FF" />
<path d="M956.37,227.62L961.37,227.62" style="fill:none;stroke:#BC75FF" />
<path d="M956.37,229.18L961.37,229.18" style="fill:none;stroke:#BC75FF" />
<path d="M975.46,206.61L975.46,209.25" style="fill:none;stroke:#BC75FF" />
<path d="M972.96,206.61L977.96,206.61" style="fill:none;stroke:#BC75FF" />
<path d="M972.96,209.25L977.96,209.25" style="fill:none;stroke:#BC75FF" />
<path d="M992.05,192.03L992.05,194.52" style="fill:none;stroke:#BC75FF" />
<path d="M989.55,192.03L994.55,192.03" style="fill:none;stroke:#BC75FF" />
<path d="M989.55,194.52L994.55,194.52" style="fill:none;stroke:#BC75FF" />
<path d="M1008.6,176.84L1008.6,179.61" style="fill:none;stroke:#BC75FF" />
<path d="M1006.1,176.84L1011.1,176.84" style="fill:none;stroke:#BC75FF" />
<path d="M1006.1,179.61L1011.1,179.61" style="fill:none;stroke:#BC75FF" />
<path d="M1025.2,166L1025.2,167.88" style="fill:none;stroke:#BC75FF" />
<path d="M1022.7,166L1027.7,166" style="fill:none;stroke:#BC75FF" />
<path d="M1022.7,167.88L1027.7,167.88" style="fill:none;stroke:#BC75FF" />
<path d="M1041.8,152.73L1041.8,155.05" style="fill:none;stroke:#BC75FF" />
<path d="M1039.3,152.73L1044.3,152.73" style="fill:none;stroke:#BC75FF" />
<path d="M1039.3,155.05L1044.3,155.05" style="fill:none;stroke:#BC75FF" />
<path d="M1058.4,143.46L1058.4,144.55" style="fill:none;stroke:#BC75FF" />
<path d="M1055.9,143.46L1060.9,143.46" style="fill:none;stroke:#BC75FF" />
<path d="M1055.9,144.55L1060.9,144.55" style="fill:none;stroke:#BC75FF" />
<path d="M1075,134.48L1075,136.71" style="fill:none;stroke:#BC75FF" />
<path d="M1072.5,134.48L1077.5,134.48" style="fill:none;stroke:#BC75FF" />
<path d="M1072.5,136.71L1077.5,136.71" style="fill:none;stroke:#BC75FF" />
<path d="M200.71,167.15A5,5 0 1 1 190.71,167.15A5,5 0 1 1 200.71,167.15Z" style="fill:#BC75FF" />
<path d="M217.3,173.94A5,5 0 1 1 207.3,173.94A5,5 0 1 1 217.3,173.94Z" style="fill:#BC75FF" />
<path d="M233.89,186.51A5,5 0 1 1 223.89,186.51A5,5 0 1 1 233.89,186.51Z" style="fill:#BC75FF" />
<path d="M250.48,197.11A5,5 0 1 1 240.48,197.11A5,5 0 1 1 250.48,197.11Z" style="fill:#BC75FF" />
<path d="M267.07,206.88A5,5 0 1 1 257.07,206.88A5,5 0 1 1 267.07,206.88Z" style="fill:#BC75FF" />
<path d="M283.66,217.95A5,5 0 1 1 273.66,217.95A5,5 0 1 1 283.66,217.95Z" style="fill:#BC75FF" />
<path d="M300.25,231.45A5,5 0 1 1 290.25,231.45A5,5 0 1 1 300.25,231.45Z" style="fill:#BC75FF" />
<path d="M316.84,248.03A5,5 0 1 1 306.84,248.03A5,5 0 1 1 316.84,248.03Z" style="fill:#BC75FF" />
<path d="M333.43,262.55A5,5 0 1 1 323.43,262.55A5,5 0 1 1 333.43,262.55Z" style="fill:#BC75FF" />
<path d="M350.02,281.1A5,5 0 1 1 340.02,281.1A5,5 0 1 1 350.02,281.1Z" style="fill:#BC75FF" />
<path d="M366.61,298.98A5,5 0 1 1 356.61,298.98A5,5 0 1 1 366.61,298.98Z" style="fill:#BC75FF" />
<path d="M383.2,323.46A5,5 0 1 1 373.2,323.46A5,5 0 1 1 383.2,323.46Z" style="fill:#BC75FF" />
<path d="M399.79,342.3A5,5 0 1 1 389.79,342.3A5,5 0 1 1 399.79,342.3Z" style="fill:#BC75FF" />
<path d="M416.38,366.48A5,5 0 1 1 406.38,366.48A5,5 0 1 1 416.38,366.48Z" style="fill:#BC75FF" />
<path d="M432.97,396.64A5,5 0 1 1 422.97,396.64A5,5 0 1 1 432.97,396.64Z" style="fill:#BC75FF" />
<path d="M449.56,425.15A5,5 0 1 1 439.56,425.15A5,5 0 1 1 449.56,425.15Z" style="fill:#BC75FF" />
<path d="M466.16,456.61A5,5 0 1 1 456.16,456.61A5,5 0 1 1 466.16,456.61Z" style="fill:#BC75FF" />
<path d="M482.75,488.25A5,5 0 1 1 472.75,488.25A5,5 0 1 1 482.75,488.25Z" style="fill:#BC75FF" />
<path d="M499.34,531.85A5,5 0 1 1 489.34,531.85A5,5 0 1 1 499.34,531.85Z" style="fill:#BC75FF" />
<path d="M515.93,569.05A5,5 0 1 1 505.93,569.05A5,5 0 1 1 515.93,569.05Z" style="fill:#BC75FF" />
<path d="M532.52,619.11A5,5 0 1 1 522.52,619.11A5,5 0 1 1 532.52,619.11Z" style="fill:#BC75FF" />
<path d="M549.11,659.98A5,5 0 1 1 539.11,659.98A5,5 0 1 1 549.11,659.98Z" style="fill:#BC75FF" />
<path d="M565.7,706.91A5,5 0 1 1 555.7,706.91A5,5 0 1 1 565.7,706.91Z" style="fill:#BC75FF" />
<path d="M582.29,748A5,5 0 1 1 572.29,748A5,5 0 1 1 582.29,748Z" style="fill:#BC75FF" />
<path d="M598.88,771.46A5,5 0 1 1 588.88,771.46A5,5 0 1 1 598.88,771.46Z" style="fill:#BC75FF" />
<path d="M615.47,773.02A5,5 0 1 1 605.47,773.02A5,5 0 1 1 615.47,773.02Z" style="fill:#BC75FF" />
<path d="M632.06,760.93A5,5 0 1 1 622.06,760.93A5,5 0 1 1 632.06,760.93Z" style="fill:#BC75FF" />
<path d="M648.65,730.65A5,5 0 1 1 638.65,730.65A5,5 0 1 1 648.65,730.65Z" style="fill:#BC75FF" />
<path d="M665.24,689.33A5,5 0 1 1 655.24,689.33A5,5 0 1 1 665.24,689.33Z" style="fill:#BC75FF" />
<path d="M681.83,670.31A5,5 0 1 1 671.83,670.31A5,5 0 1 1 681.83,670.31Z" style="fill:#BC75FF" />
<path d="M698.42,678.36A5,5 0 1 1 688.42,678.36A5,5 0 1 1 698.42,678.36Z" style="fill:#BC75FF" />
<path d="M715.01,695.21A5,5 0 1 1 705.01,695.21A5,5 0 1 1 715.01,695.21Z" style="fill:#BC75FF" />
<path d="M731.6,707.8A5,5 0 1 1 721.6,707.8A5,5 0 1 1 731.6,707.8Z" style="fill:#BC75FF" />
<path d="M748.19,698.88A5,5 0 1 1 738.19,698.88A5,5 0 1 1 748.19,698.88Z" style="fill:#BC75FF" />
<path d="M764.78,672.47A5,5 0 1 1 754.78,672.47A5,5 0 1 1 764.78,672.47Z" style="fill:#BC75FF" />
<path d="M781.37,630.77A5,5 0 1 1 771.37,630.77A5,5 0 1 1 781.37,630.77Z" style="fill:#BC75FF" />
<path d="M797.96,578.85A5,5 0 1 1 787.96,578.85A5,5 0 1 1 797.96,578.85Z" style="fill:#BC75FF" />
<path d="M814.55,538.02A5,5 0 1 1 804.55,538.02A5,5 0 1 1 814.55,538.02Z" style="fill:#BC75FF" />
<path d="M831.14,495.12A5,5 0 1 1 821.14,495.12A5,5 0 1 1 831.14,495.12Z" style="fill:#BC75FF" />
<path d="M847.73,445.7A5,5 0 1 1 837.73,445.7A5,5 0 1 1 847.73,445.7Z" style="fill:#BC75FF" />
<path d="M864.32,400.71A5,5 0 1 1 854.32,400.71A5,5 0 1 1 864.32,400.71Z" style="fill:#BC75FF" />
<path d="M880.92,365.21A5,5 0 1 1 870.92,365.21A5,5 0 1 1 880.92,365.21Z" style="fill:#BC75FF" />
<path d="M897.51,331.77A5,5 0 1 1 887.51,331.77A5,5 0 1 1 897.51,331.77Z" style="fill:#BC75FF" />
<path d="M914.1,298.91A5,5 0 1 1 904.1,298.91A5,5 0 1 1 914.1,298.91Z" style="fill:#BC75FF" />
<path d="M930.69,270.62A5,5 0 1 1 920.69,270.62A5,5 0 1 1 930.69,270.62Z" style="fill:#BC75FF" />
<path d="M947.28,247.98A5,5 0 1 1 937.28,247.98A5,5 0 1 1 947.28,247.98Z" style="fill:#BC75FF" />
<path d="M963.87,228.4A5,5 0 1 1 953.87,228.4A5,5 0 1 1 963.87,228.4Z" style="fill:#BC75FF" />
<path d="M980.46,207.93A5,5 0 1 1 970.46,207.93A5,5 0 1 1 980.46,207.93Z" style="fill:#BC75FF" />
<path d="M997.05,193.27A5,5 0 1 1 987.05,193.27A5,5 0 1 1 997.05,193.27Z" style="fill:#BC75FF" />
<path d="M1013.6,178.23A5,5 0 1 1 1003.6,178.23A5,5 0 1 1 1013.6,178.23Z" style="fill:#BC75FF" />
<path d="M1030.2,166.94A5,5 0 1 1 1020.2,166.94A5,5 0 1 1 1030.2,166.94Z" style="fill:#BC75FF" />
<path d="M1046.8,153.89A5,5 0 1 1 1036.8,153.89A5,5 0 1 1 1046.8,153.89Z" style="fill:#BC75FF" />
<path d="M1063.4,144.01A5,5 0 1 1 1053.4,144.01A5,5 0 1 1 1063.4,144.01Z" style="fill:#BC75FF" />
<path d="M1080,135.6A5,5 0 1 1 1070,135.6A5,5 0 1 1 1080,135.6Z" style="fill:#BC75FF" />
<path d="M195.71,974.14L1075,974.14" style="fill:none;stroke:#000000" />
<path d="M1075,108.82L1075,974.14" style="fill:none;stroke:#000000" />
<path d="M1038,942.02A8,8 0 1 1 1022,942.02A8,8 0 1 1 1038,942.02Z" style="fill:#BC75FF" />
<text x="872.95" y="-933.54" transform="scale(1, -1)"
	style="font-family:Helvetica;font-weight:normal;font-style:normal;font-size:36px">12 GHz</text>
</g>
</svg>
