<?xml version="1.0"?>
<!-- Generated by SVGo and Plotinum VG -->
<svg width="1080pt" height="1080pt" viewBox="0 0 1080 1080"
	xmlns="http://www.w3.org/2000/svg"
	xmlns:xlink="http://www.w3.org/1999/xlink">
<g transform="scale(1, -1) translate(0, -1080)">
<path d="M0,0L1080,0L1080,1080L0,1080Z" style="fill:#-8000000000000000-8000000000000000-8000000000000000;fill-opacity:0" />
<text x="533.05" y="-1039.5" transform="scale(1, -1)"
	style="font-family:Helvetica;font-weight:normal;font-style:normal;font-size:50px"> </text>
<text x="498.07" y="-11.039" transform="scale(1, -1)"
	style="font-family:Helvetica;font-weight:normal;font-style:normal;font-size:36px">Power (mW)</text>
<text x="136.15" y="-71.258" transform="scale(1, -1)"
	style="font-family:Helvetica;font-weight:normal;font-style:normal;font-size:36px">0</text>
<text x="276.78" y="-71.258" transform="scale(1, -1)"
	style="font-family:Helvetica;font-weight:normal;font-style:normal;font-size:36px">50</text>
<text x="417.4" y="-71.258" transform="scale(1, -1)"
	style="font-family:Helvetica;font-weight:normal;font-style:normal;font-size:36px">100</text>
<text x="568.03" y="-71.258" transform="scale(1, -1)"
	style="font-family:Helvetica;font-weight:normal;font-style:normal;font-size:36px">150</text>
<text x="718.67" y="-71.258" transform="scale(1, -1)"
	style="font-family:Helvetica;font-weight:normal;font-style:normal;font-size:36px">200</text>
<text x="869.3" y="-71.258" transform="scale(1, -1)"
	style="font-family:Helvetica;font-weight:normal;font-style:normal;font-size:36px">250</text>
<text x="1019.9" y="-71.258" transform="scale(1, -1)"
	style="font-family:Helvetica;font-weight:normal;font-style:normal;font-size:36px">300</text>
<path d="M146.16,116.44L146.16,108.44" style="fill:none;stroke:#000000;stroke-width:1.5" />
<path d="M221.48,112.44L221.48,108.44" style="fill:none;stroke:#000000;stroke-width:1.5" />
<path d="M296.8,116.44L296.8,108.44" style="fill:none;stroke:#000000;stroke-width:1.5" />
<path d="M372.11,112.44L372.11,108.44" style="fill:none;stroke:#000000;stroke-width:1.5" />
<path d="M447.43,116.44L447.43,108.44" style="fill:none;stroke:#000000;stroke-width:1.5" />
<path d="M522.75,112.44L522.75,108.44" style="fill:none;stroke:#000000;stroke-width:1.5" />
<path d="M598.07,116.44L598.07,108.44" style="fill:none;stroke:#000000;stroke-width:1.5" />
<path d="M673.38,112.44L673.38,108.44" style="fill:none;stroke:#000000;stroke-width:1.5" />
<path d="M748.7,116.44L748.7,108.44" style="fill:none;stroke:#000000;stroke-width:1.5" />
<path d="M824.02,112.44L824.02,108.44" style="fill:none;stroke:#000000;stroke-width:1.5" />
<path d="M899.33,116.44L899.33,108.44" style="fill:none;stroke:#000000;stroke-width:1.5" />
<path d="M974.65,112.44L974.65,108.44" style="fill:none;stroke:#000000;stroke-width:1.5" />
<path d="M1050,116.44L1050,108.44" style="fill:none;stroke:#000000;stroke-width:1.5" />
<path d="M146.16,108.44L1050,108.44" style="fill:none;stroke:#000000;stroke-width:1.5" />
<g transform="rotate(90)">
<text x="351.18" y="29.18" transform="scale(1, -1)"
	style="font-family:Helvetica;font-weight:normal;font-style:normal;font-size:36px">Dissipation Rate (MHz)</text>
</g>
<text x="87.869" y="-234.75" transform="scale(1, -1)"
	style="font-family:Helvetica;font-weight:normal;font-style:normal;font-size:36px">80</text>
<text x="87.869" y="-513.77" transform="scale(1, -1)"
	style="font-family:Helvetica;font-weight:normal;font-style:normal;font-size:36px">90</text>
<text x="67.848" y="-792.79" transform="scale(1, -1)"
	style="font-family:Helvetica;font-weight:normal;font-style:normal;font-size:36px">100</text>
<path d="M149.91,104.32L145.91,104.32" style="fill:none;stroke:#000000;stroke-width:1.5" />
<path d="M153.91,243.83L145.91,243.83" style="fill:none;stroke:#000000;stroke-width:1.5" />
<path d="M149.91,383.33L145.91,383.33" style="fill:none;stroke:#000000;stroke-width:1.5" />
<path d="M153.91,522.84L145.91,522.84" style="fill:none;stroke:#000000;stroke-width:1.5" />
<path d="M149.91,662.35L145.91,662.35" style="fill:none;stroke:#000000;stroke-width:1.5" />
<path d="M153.91,801.86L145.91,801.86" style="fill:none;stroke:#000000;stroke-width:1.5" />
<path d="M145.91,104.32L145.91,968.14" style="fill:none;stroke:#000000;stroke-width:1.5" />
<path d="M296.8,802.3L357.05,815.7L417.31,829.09L477.56,842.48L537.81,855.87L598.07,869.27L658.32,882.66L718.57,896.05L778.83,909.44L839.08,922.84L899.33,936.23L959.59,949.62L1019.8,963.01" style="fill:none;stroke:#637CC6;stroke-width:3" />
<path d="M146.16,801.86L1050,801.86" style="fill:none;stroke:#000000" />
<path d="M1050,104.32L1050,801.86" style="fill:none;stroke:#000000" />
<path d="M296.8,740.77L357.05,727.83L417.31,714.89L477.56,701.95L537.81,689.01L598.07,676.08L658.32,663.14L718.57,650.2L778.83,637.26L839.08,624.32L899.33,611.38L959.59,598.45L1019.8,585.51" style="fill:none;stroke:#C96892;stroke-width:3" />
<path d="M146.16,529.82L1019.8,689.63" style="fill:none;stroke:#627BC5;stroke-opacity:0.4902;stroke-width:3;stroke-dasharray:15,5" />
<path d="M146.16,529.82L1019.8,370.01" style="fill:none;stroke:#C86791;stroke-opacity:0.4902;stroke-width:3;stroke-dasharray:15,5" />
<path d="M302.8,813.95A6,6 0 1 1 290.8,813.95A6,6 0 1 1 302.8,813.95Z" style="fill:#637CC6" />
<path d="M363.05,826.63A6,6 0 1 1 351.05,826.63A6,6 0 1 1 363.05,826.63Z" style="fill:#637CC6" />
<path d="M423.31,820.07A6,6 0 1 1 411.31,820.07A6,6 0 1 1 423.31,820.07Z" style="fill:#637CC6" />
<path d="M483.56,838.48A6,6 0 1 1 471.56,838.48A6,6 0 1 1 483.56,838.48Z" style="fill:#637CC6" />
<path d="M543.81,846.4A6,6 0 1 1 531.81,846.4A6,6 0 1 1 543.81,846.4Z" style="fill:#637CC6" />
<path d="M604.07,866.67A6,6 0 1 1 592.07,866.67A6,6 0 1 1 604.07,866.67Z" style="fill:#637CC6" />
<path d="M664.32,876.74A6,6 0 1 1 652.32,876.74A6,6 0 1 1 664.32,876.74Z" style="fill:#637CC6" />
<path d="M724.57,892.04A6,6 0 1 1 712.57,892.04A6,6 0 1 1 724.57,892.04Z" style="fill:#637CC6" />
<path d="M784.83,909.66A6,6 0 1 1 772.83,909.66A6,6 0 1 1 784.83,909.66Z" style="fill:#637CC6" />
<path d="M845.08,925.11A6,6 0 1 1 833.08,925.11A6,6 0 1 1 845.08,925.11Z" style="fill:#637CC6" />
<path d="M905.33,939.39A6,6 0 1 1 893.33,939.39A6,6 0 1 1 905.33,939.39Z" style="fill:#637CC6" />
<path d="M965.59,951.28A6,6 0 1 1 953.59,951.28A6,6 0 1 1 965.59,951.28Z" style="fill:#637CC6" />
<path d="M1025.8,968.14A6,6 0 1 1 1013.8,968.14A6,6 0 1 1 1025.8,968.14Z" style="fill:#637CC6" />
<path d="M302.8,740.31A6,6 0 1 1 290.8,740.31A6,6 0 1 1 302.8,740.31Z" style="fill:#C96892" />
<path d="M363.05,747.68A6,6 0 1 1 351.05,747.68A6,6 0 1 1 363.05,747.68Z" style="fill:#C96892" />
<path d="M423.31,713.71A6,6 0 1 1 411.31,713.71A6,6 0 1 1 423.31,713.71Z" style="fill:#C96892" />
<path d="M483.56,692.91A6,6 0 1 1 471.56,692.91A6,6 0 1 1 483.56,692.91Z" style="fill:#C96892" />
<path d="M543.81,676.43A6,6 0 1 1 531.81,676.43A6,6 0 1 1 543.81,676.43Z" style="fill:#C96892" />
<path d="M604.07,665.87A6,6 0 1 1 592.07,665.87A6,6 0 1 1 604.07,665.87Z" style="fill:#C96892" />
<path d="M664.32,678.3A6,6 0 1 1 652.32,678.3A6,6 0 1 1 664.32,678.3Z" style="fill:#C96892" />
<path d="M724.57,644.28A6,6 0 1 1 712.57,644.28A6,6 0 1 1 724.57,644.28Z" style="fill:#C96892" />
<path d="M784.83,634.46A6,6 0 1 1 772.83,634.46A6,6 0 1 1 784.83,634.46Z" style="fill:#C96892" />
<path d="M845.08,625.47A6,6 0 1 1 833.08,625.47A6,6 0 1 1 845.08,625.47Z" style="fill:#C96892" />
<path d="M905.33,607.52A6,6 0 1 1 893.33,607.52A6,6 0 1 1 905.33,607.52Z" style="fill:#C96892" />
<path d="M965.59,605A6,6 0 1 1 953.59,605A6,6 0 1 1 965.59,605Z" style="fill:#C96892" />
<path d="M1025.8,588.84A6,6 0 1 1 1013.8,588.84A6,6 0 1 1 1025.8,588.84Z" style="fill:#C96892" />
<path d="M183.66,929.52L233.66,929.52" style="fill:none;stroke:#637CC6;stroke-width:3" />
<text x="243.67" y="-921.04" transform="scale(1, -1)"
	style="font-family:Helvetica;font-weight:normal;font-style:normal;font-size:36px">Anti-Stokes Fit</text>
<path d="M183.66,888.11L233.66,888.11" style="fill:none;stroke:#627BC5;stroke-opacity:0.4902;stroke-width:3;stroke-dasharray:15,5" />
<text x="243.67" y="-879.63" transform="scale(1, -1)"
	style="font-family:Helvetica;font-weight:normal;font-style:normal;font-size:36px">Γ as,eff</text>
<path d="M183.66,846.7L233.66,846.7" style="fill:none;stroke:#C96892;stroke-width:3" />
<text x="243.67" y="-838.22" transform="scale(1, -1)"
	style="font-family:Helvetica;font-weight:normal;font-style:normal;font-size:36px">Stokes Fit</text>
<path d="M183.66,805.29L233.66,805.29" style="fill:none;stroke:#C86791;stroke-opacity:0.4902;stroke-width:3;stroke-dasharray:15,5" />
<text x="243.67" y="-796.8" transform="scale(1, -1)"
	style="font-family:Helvetica;font-weight:normal;font-style:normal;font-size:36px">Γ s,eff</text>
</g>
</svg>
