<?xml version="1.0"?>
<!-- Generated by SVGo and Plotinum VG -->
<svg width="1080pt" height="1080pt" viewBox="0 0 1080 1080"
	xmlns="http://www.w3.org/2000/svg"
	xmlns:xlink="http://www.w3.org/1999/xlink">
<g transform="scale(1, -1) translate(0, -1080)">
<path d="M0,0L1080,0L1080,1080L0,1080Z" style="fill:#-8000000000000000-8000000000000000-8000000000000000;fill-opacity:0" />
<text x="346.9" y="-1039.5" transform="scale(1, -1)"
	style="font-family:Helvetica;font-weight:normal;font-style:normal;font-size:50px">1 mm CS2 CABS</text>
<text x="497.32" y="-11.039" transform="scale(1, -1)"
	style="font-family:Helvetica;font-weight:normal;font-style:normal;font-size:36px">Frequency (GHz)</text>
<text x="232.35" y="-71.258" transform="scale(1, -1)"
	style="font-family:Helvetica;font-weight:normal;font-style:normal;font-size:36px">2.35</text>
<text x="414.02" y="-71.258" transform="scale(1, -1)"
	style="font-family:Helvetica;font-weight:normal;font-style:normal;font-size:36px">2.45</text>
<text x="595.7" y="-71.258" transform="scale(1, -1)"
	style="font-family:Helvetica;font-weight:normal;font-style:normal;font-size:36px">2.55</text>
<text x="777.37" y="-71.258" transform="scale(1, -1)"
	style="font-family:Helvetica;font-weight:normal;font-style:normal;font-size:36px">2.65</text>
<text x="959.04" y="-71.258" transform="scale(1, -1)"
	style="font-family:Helvetica;font-weight:normal;font-style:normal;font-size:36px">2.75</text>
<path d="M267.39,116.44L267.39,108.44" style="fill:none;stroke:#000000;stroke-width:1.5" />
<path d="M358.22,112.44L358.22,108.44" style="fill:none;stroke:#000000;stroke-width:1.5" />
<path d="M449.06,116.44L449.06,108.44" style="fill:none;stroke:#000000;stroke-width:1.5" />
<path d="M539.89,112.44L539.89,108.44" style="fill:none;stroke:#000000;stroke-width:1.5" />
<path d="M630.73,116.44L630.73,108.44" style="fill:none;stroke:#000000;stroke-width:1.5" />
<path d="M721.57,112.44L721.57,108.44" style="fill:none;stroke:#000000;stroke-width:1.5" />
<path d="M812.4,116.44L812.4,108.44" style="fill:none;stroke:#000000;stroke-width:1.5" />
<path d="M903.24,112.44L903.24,108.44" style="fill:none;stroke:#000000;stroke-width:1.5" />
<path d="M994.07,116.44L994.07,108.44" style="fill:none;stroke:#000000;stroke-width:1.5" />
<path d="M195.71,108.44L1075,108.44" style="fill:none;stroke:#000000;stroke-width:1.5" />
<g transform="rotate(90)">
<text x="371.42" y="29.18" transform="scale(1, -1)"
	style="font-family:Helvetica;font-weight:normal;font-style:normal;font-size:36px">Spectral Density (uV)</text>
</g>
<text x="87.869" y="-207.91" transform="scale(1, -1)"
	style="font-family:Helvetica;font-weight:normal;font-style:normal;font-size:36px">37.96</text>
<text x="67.848" y="-424.24" transform="scale(1, -1)"
	style="font-family:Helvetica;font-weight:normal;font-style:normal;font-size:36px">101.12</text>
<text x="67.848" y="-640.57" transform="scale(1, -1)"
	style="font-family:Helvetica;font-weight:normal;font-style:normal;font-size:36px">164.29</text>
<text x="67.848" y="-856.9" transform="scale(1, -1)"
	style="font-family:Helvetica;font-weight:normal;font-style:normal;font-size:36px">227.45</text>
<path d="M199.96,108.82L195.96,108.82" style="fill:none;stroke:#000000;stroke-width:1.5" />
<path d="M203.96,216.98L195.96,216.98" style="fill:none;stroke:#000000;stroke-width:1.5" />
<path d="M199.96,325.15L195.96,325.15" style="fill:none;stroke:#000000;stroke-width:1.5" />
<path d="M203.96,433.31L195.96,433.31" style="fill:none;stroke:#000000;stroke-width:1.5" />
<path d="M199.96,541.48L195.96,541.48" style="fill:none;stroke:#000000;stroke-width:1.5" />
<path d="M203.96,649.64L195.96,649.64" style="fill:none;stroke:#000000;stroke-width:1.5" />
<path d="M199.96,757.81L195.96,757.81" style="fill:none;stroke:#000000;stroke-width:1.5" />
<path d="M203.96,865.98L195.96,865.98" style="fill:none;stroke:#000000;stroke-width:1.5" />
<path d="M199.96,974.14L195.96,974.14" style="fill:none;stroke:#000000;stroke-width:1.5" />
<path d="M199.96,974.14L195.96,974.14" style="fill:none;stroke:#000000;stroke-width:1.5" />
<path d="M195.96,108.82L195.96,974.14" style="fill:none;stroke:#000000;stroke-width:1.5" />
<path d="M195.71,127.88L195.71,156.5" style="fill:none;stroke:#1FD3AC" />
<path d="M193.21,127.88L198.21,127.88" style="fill:none;stroke:#1FD3AC" />
<path d="M193.21,156.5L198.21,156.5" style="fill:none;stroke:#1FD3AC" />
<path d="M215.69,147.03L215.69,156.04" style="fill:none;stroke:#1FD3AC" />
<path d="M213.19,147.03L218.19,147.03" style="fill:none;stroke:#1FD3AC" />
<path d="M213.19,156.04L218.19,156.04" style="fill:none;stroke:#1FD3AC" />
<path d="M235.68,154.25L235.68,158.96" style="fill:none;stroke:#1FD3AC" />
<path d="M233.18,154.25L238.18,154.25" style="fill:none;stroke:#1FD3AC" />
<path d="M233.18,158.96L238.18,158.96" style="fill:none;stroke:#1FD3AC" />
<path d="M255.66,155.47L255.66,181.13" style="fill:none;stroke:#1FD3AC" />
<path d="M253.16,155.47L258.16,155.47" style="fill:none;stroke:#1FD3AC" />
<path d="M253.16,181.13L258.16,181.13" style="fill:none;stroke:#1FD3AC" />
<path d="M275.64,160.25L275.64,175.22" style="fill:none;stroke:#1FD3AC" />
<path d="M273.14,160.25L278.14,160.25" style="fill:none;stroke:#1FD3AC" />
<path d="M273.14,175.22L278.14,175.22" style="fill:none;stroke:#1FD3AC" />
<path d="M295.63,166.55L295.63,175.71" style="fill:none;stroke:#1FD3AC" />
<path d="M293.13,166.55L298.13,166.55" style="fill:none;stroke:#1FD3AC" />
<path d="M293.13,175.71L298.13,175.71" style="fill:none;stroke:#1FD3AC" />
<path d="M315.61,160.27L315.61,172.83" style="fill:none;stroke:#1FD3AC" />
<path d="M313.11,160.27L318.11,160.27" style="fill:none;stroke:#1FD3AC" />
<path d="M313.11,172.83L318.11,172.83" style="fill:none;stroke:#1FD3AC" />
<path d="M335.6,192.77L335.6,211.04" style="fill:none;stroke:#1FD3AC" />
<path d="M333.1,192.77L338.1,192.77" style="fill:none;stroke:#1FD3AC" />
<path d="M333.1,211.04L338.1,211.04" style="fill:none;stroke:#1FD3AC" />
<path d="M355.58,175.51L355.58,183.66" style="fill:none;stroke:#1FD3AC" />
<path d="M353.08,175.51L358.08,175.51" style="fill:none;stroke:#1FD3AC" />
<path d="M353.08,183.66L358.08,183.66" style="fill:none;stroke:#1FD3AC" />
<path d="M375.56,173.18L375.56,191.49" style="fill:none;stroke:#1FD3AC" />
<path d="M373.06,173.18L378.06,173.18" style="fill:none;stroke:#1FD3AC" />
<path d="M373.06,191.49L378.06,191.49" style="fill:none;stroke:#1FD3AC" />
<path d="M395.55,174.01L395.55,212.65" style="fill:none;stroke:#1FD3AC" />
<path d="M393.05,174.01L398.05,174.01" style="fill:none;stroke:#1FD3AC" />
<path d="M393.05,212.65L398.05,212.65" style="fill:none;stroke:#1FD3AC" />
<path d="M415.53,220.81L415.53,234.69" style="fill:none;stroke:#1FD3AC" />
<path d="M413.03,220.81L418.03,220.81" style="fill:none;stroke:#1FD3AC" />
<path d="M413.03,234.69L418.03,234.69" style="fill:none;stroke:#1FD3AC" />
<path d="M435.52,237.91L435.52,241.93" style="fill:none;stroke:#1FD3AC" />
<path d="M433.02,237.91L438.02,237.91" style="fill:none;stroke:#1FD3AC" />
<path d="M433.02,241.93L438.02,241.93" style="fill:none;stroke:#1FD3AC" />
<path d="M455.5,227.76L455.5,232.51" style="fill:none;stroke:#1FD3AC" />
<path d="M453,227.76L458,227.76" style="fill:none;stroke:#1FD3AC" />
<path d="M453,232.51L458,232.51" style="fill:none;stroke:#1FD3AC" />
<path d="M475.48,248.76L475.48,267.09" style="fill:none;stroke:#1FD3AC" />
<path d="M472.98,248.76L477.98,248.76" style="fill:none;stroke:#1FD3AC" />
<path d="M472.98,267.09L477.98,267.09" style="fill:none;stroke:#1FD3AC" />
<path d="M495.47,275.81L495.47,278.69" style="fill:none;stroke:#1FD3AC" />
<path d="M492.97,275.81L497.97,275.81" style="fill:none;stroke:#1FD3AC" />
<path d="M492.97,278.69L497.97,278.69" style="fill:none;stroke:#1FD3AC" />
<path d="M515.45,282.93L515.45,309.17" style="fill:none;stroke:#1FD3AC" />
<path d="M512.95,282.93L517.95,282.93" style="fill:none;stroke:#1FD3AC" />
<path d="M512.95,309.17L517.95,309.17" style="fill:none;stroke:#1FD3AC" />
<path d="M535.44,321.28L535.44,347.99" style="fill:none;stroke:#1FD3AC" />
<path d="M532.94,321.28L537.94,321.28" style="fill:none;stroke:#1FD3AC" />
<path d="M532.94,347.99L537.94,347.99" style="fill:none;stroke:#1FD3AC" />
<path d="M555.42,374.95L555.42,387.18" style="fill:none;stroke:#1FD3AC" />
<path d="M552.92,374.95L557.92,374.95" style="fill:none;stroke:#1FD3AC" />
<path d="M552.92,387.18L557.92,387.18" style="fill:none;stroke:#1FD3AC" />
<path d="M575.4,429.99L575.4,458.74" style="fill:none;stroke:#1FD3AC" />
<path d="M572.9,429.99L577.9,429.99" style="fill:none;stroke:#1FD3AC" />
<path d="M572.9,458.74L577.9,458.74" style="fill:none;stroke:#1FD3AC" />
<path d="M595.39,501.15L595.39,529.57" style="fill:none;stroke:#1FD3AC" />
<path d="M592.89,501.15L597.89,501.15" style="fill:none;stroke:#1FD3AC" />
<path d="M592.89,529.57L597.89,529.57" style="fill:none;stroke:#1FD3AC" />
<path d="M615.37,622.26L615.37,708.13" style="fill:none;stroke:#1FD3AC" />
<path d="M612.87,622.26L617.87,622.26" style="fill:none;stroke:#1FD3AC" />
<path d="M612.87,708.13L617.87,708.13" style="fill:none;stroke:#1FD3AC" />
<path d="M635.35,744.51L635.35,784.3" style="fill:none;stroke:#1FD3AC" />
<path d="M632.85,744.51L637.85,744.51" style="fill:none;stroke:#1FD3AC" />
<path d="M632.85,784.3L637.85,784.3" style="fill:none;stroke:#1FD3AC" />
<path d="M655.34,595.45L655.34,651.53" style="fill:none;stroke:#1FD3AC" />
<path d="M652.84,595.45L657.84,595.45" style="fill:none;stroke:#1FD3AC" />
<path d="M652.84,651.53L657.84,651.53" style="fill:none;stroke:#1FD3AC" />
<path d="M675.32,423.6L675.32,517.47" style="fill:none;stroke:#1FD3AC" />
<path d="M672.82,423.6L677.82,423.6" style="fill:none;stroke:#1FD3AC" />
<path d="M672.82,517.47L677.82,517.47" style="fill:none;stroke:#1FD3AC" />
<path d="M695.31,342.62L695.31,396.3" style="fill:none;stroke:#1FD3AC" />
<path d="M692.81,342.62L697.81,342.62" style="fill:none;stroke:#1FD3AC" />
<path d="M692.81,396.3L697.81,396.3" style="fill:none;stroke:#1FD3AC" />
<path d="M715.29,292.61L715.29,328.87" style="fill:none;stroke:#1FD3AC" />
<path d="M712.79,292.61L717.79,292.61" style="fill:none;stroke:#1FD3AC" />
<path d="M712.79,328.87L717.79,328.87" style="fill:none;stroke:#1FD3AC" />
<path d="M735.27,249.91L735.27,274.87" style="fill:none;stroke:#1FD3AC" />
<path d="M732.77,249.91L737.77,249.91" style="fill:none;stroke:#1FD3AC" />
<path d="M732.77,274.87L737.77,274.87" style="fill:none;stroke:#1FD3AC" />
<path d="M755.26,213.26L755.26,224.18" style="fill:none;stroke:#1FD3AC" />
<path d="M752.76,213.26L757.76,213.26" style="fill:none;stroke:#1FD3AC" />
<path d="M752.76,224.18L757.76,224.18" style="fill:none;stroke:#1FD3AC" />
<path d="M775.24,193.79L775.24,208.1" style="fill:none;stroke:#1FD3AC" />
<path d="M772.74,193.79L777.74,193.79" style="fill:none;stroke:#1FD3AC" />
<path d="M772.74,208.1L777.74,208.1" style="fill:none;stroke:#1FD3AC" />
<path d="M795.23,187.48L795.23,189.84" style="fill:none;stroke:#1FD3AC" />
<path d="M792.73,187.48L797.73,187.48" style="fill:none;stroke:#1FD3AC" />
<path d="M792.73,189.84L797.73,189.84" style="fill:none;stroke:#1FD3AC" />
<path d="M815.21,181.4L815.21,184.84" style="fill:none;stroke:#1FD3AC" />
<path d="M812.71,181.4L817.71,181.4" style="fill:none;stroke:#1FD3AC" />
<path d="M812.71,184.84L817.71,184.84" style="fill:none;stroke:#1FD3AC" />
<path d="M835.19,186.41L835.19,187.35" style="fill:none;stroke:#1FD3AC" />
<path d="M832.69,186.41L837.69,186.41" style="fill:none;stroke:#1FD3AC" />
<path d="M832.69,187.35L837.69,187.35" style="fill:none;stroke:#1FD3AC" />
<path d="M855.18,180.85L855.18,188.17" style="fill:none;stroke:#1FD3AC" />
<path d="M852.68,180.85L857.68,180.85" style="fill:none;stroke:#1FD3AC" />
<path d="M852.68,188.17L857.68,188.17" style="fill:none;stroke:#1FD3AC" />
<path d="M875.16,168.03L875.16,176.62" style="fill:none;stroke:#1FD3AC" />
<path d="M872.66,168.03L877.66,168.03" style="fill:none;stroke:#1FD3AC" />
<path d="M872.66,176.62L877.66,176.62" style="fill:none;stroke:#1FD3AC" />
<path d="M895.15,159.08L895.15,166.15" style="fill:none;stroke:#1FD3AC" />
<path d="M892.65,159.08L897.65,159.08" style="fill:none;stroke:#1FD3AC" />
<path d="M892.65,166.15L897.65,166.15" style="fill:none;stroke:#1FD3AC" />
<path d="M915.13,165.73L915.13,174.35" style="fill:none;stroke:#1FD3AC" />
<path d="M912.63,165.73L917.63,165.73" style="fill:none;stroke:#1FD3AC" />
<path d="M912.63,174.35L917.63,174.35" style="fill:none;stroke:#1FD3AC" />
<path d="M935.11,158.44L935.11,166.77" style="fill:none;stroke:#1FD3AC" />
<path d="M932.61,158.44L937.61,158.44" style="fill:none;stroke:#1FD3AC" />
<path d="M932.61,166.77L937.61,166.77" style="fill:none;stroke:#1FD3AC" />
<path d="M955.1,161.34L955.1,167.28" style="fill:none;stroke:#1FD3AC" />
<path d="M952.6,161.34L957.6,161.34" style="fill:none;stroke:#1FD3AC" />
<path d="M952.6,167.28L957.6,167.28" style="fill:none;stroke:#1FD3AC" />
<path d="M975.08,159.26L975.08,173.56" style="fill:none;stroke:#1FD3AC" />
<path d="M972.58,159.26L977.58,159.26" style="fill:none;stroke:#1FD3AC" />
<path d="M972.58,173.56L977.58,173.56" style="fill:none;stroke:#1FD3AC" />
<path d="M995.06,159.59L995.06,170.26" style="fill:none;stroke:#1FD3AC" />
<path d="M992.56,159.59L997.56,159.59" style="fill:none;stroke:#1FD3AC" />
<path d="M992.56,170.26L997.56,170.26" style="fill:none;stroke:#1FD3AC" />
<path d="M1015,155.99L1015,163.08" style="fill:none;stroke:#1FD3AC" />
<path d="M1012.5,155.99L1017.5,155.99" style="fill:none;stroke:#1FD3AC" />
<path d="M1012.5,163.08L1017.5,163.08" style="fill:none;stroke:#1FD3AC" />
<path d="M1035,147.92L1035,153.91" style="fill:none;stroke:#1FD3AC" />
<path d="M1032.5,147.92L1037.5,147.92" style="fill:none;stroke:#1FD3AC" />
<path d="M1032.5,153.91L1037.5,153.91" style="fill:none;stroke:#1FD3AC" />
<path d="M1055,147.2L1055,163.07" style="fill:none;stroke:#1FD3AC" />
<path d="M1052.5,147.2L1057.5,147.2" style="fill:none;stroke:#1FD3AC" />
<path d="M1052.5,163.07L1057.5,163.07" style="fill:none;stroke:#1FD3AC" />
<path d="M1075,175.77L1075,176.69" style="fill:none;stroke:#1FD3AC" />
<path d="M1072.5,175.77L1077.5,175.77" style="fill:none;stroke:#1FD3AC" />
<path d="M1072.5,176.69L1077.5,176.69" style="fill:none;stroke:#1FD3AC" />
<path d="M200.71,142.19A5,5 0 1 1 190.71,142.19A5,5 0 1 1 200.71,142.19Z" style="fill:#1FD3AC" />
<path d="M220.69,151.53A5,5 0 1 1 210.69,151.53A5,5 0 1 1 220.69,151.53Z" style="fill:#1FD3AC" />
<path d="M240.68,156.61A5,5 0 1 1 230.68,156.61A5,5 0 1 1 240.68,156.61Z" style="fill:#1FD3AC" />
<path d="M260.66,168.3A5,5 0 1 1 250.66,168.3A5,5 0 1 1 260.66,168.3Z" style="fill:#1FD3AC" />
<path d="M280.64,167.73A5,5 0 1 1 270.64,167.73A5,5 0 1 1 280.64,167.73Z" style="fill:#1FD3AC" />
<path d="M300.63,171.13A5,5 0 1 1 290.63,171.13A5,5 0 1 1 300.63,171.13Z" style="fill:#1FD3AC" />
<path d="M320.61,166.55A5,5 0 1 1 310.61,166.55A5,5 0 1 1 320.61,166.55Z" style="fill:#1FD3AC" />
<path d="M340.6,201.91A5,5 0 1 1 330.6,201.91A5,5 0 1 1 340.6,201.91Z" style="fill:#1FD3AC" />
<path d="M360.58,179.58A5,5 0 1 1 350.58,179.58A5,5 0 1 1 360.58,179.58Z" style="fill:#1FD3AC" />
<path d="M380.56,182.34A5,5 0 1 1 370.56,182.34A5,5 0 1 1 380.56,182.34Z" style="fill:#1FD3AC" />
<path d="M400.55,193.33A5,5 0 1 1 390.55,193.33A5,5 0 1 1 400.55,193.33Z" style="fill:#1FD3AC" />
<path d="M420.53,227.75A5,5 0 1 1 410.53,227.75A5,5 0 1 1 420.53,227.75Z" style="fill:#1FD3AC" />
<path d="M440.52,239.92A5,5 0 1 1 430.52,239.92A5,5 0 1 1 440.52,239.92Z" style="fill:#1FD3AC" />
<path d="M460.5,230.14A5,5 0 1 1 450.5,230.14A5,5 0 1 1 460.5,230.14Z" style="fill:#1FD3AC" />
<path d="M480.48,257.92A5,5 0 1 1 470.48,257.92A5,5 0 1 1 480.48,257.92Z" style="fill:#1FD3AC" />
<path d="M500.47,277.25A5,5 0 1 1 490.47,277.25A5,5 0 1 1 500.47,277.25Z" style="fill:#1FD3AC" />
<path d="M520.45,296.05A5,5 0 1 1 510.45,296.05A5,5 0 1 1 520.45,296.05Z" style="fill:#1FD3AC" />
<path d="M540.44,334.64A5,5 0 1 1 530.44,334.64A5,5 0 1 1 540.44,334.64Z" style="fill:#1FD3AC" />
<path d="M560.42,381.06A5,5 0 1 1 550.42,381.06A5,5 0 1 1 560.42,381.06Z" style="fill:#1FD3AC" />
<path d="M580.4,444.37A5,5 0 1 1 570.4,444.37A5,5 0 1 1 580.4,444.37Z" style="fill:#1FD3AC" />
<path d="M600.39,515.36A5,5 0 1 1 590.39,515.36A5,5 0 1 1 600.39,515.36Z" style="fill:#1FD3AC" />
<path d="M620.37,665.19A5,5 0 1 1 610.37,665.19A5,5 0 1 1 620.37,665.19Z" style="fill:#1FD3AC" />
<path d="M640.35,764.41A5,5 0 1 1 630.35,764.41A5,5 0 1 1 640.35,764.41Z" style="fill:#1FD3AC" />
<path d="M660.34,623.49A5,5 0 1 1 650.34,623.49A5,5 0 1 1 660.34,623.49Z" style="fill:#1FD3AC" />
<path d="M680.32,470.53A5,5 0 1 1 670.32,470.53A5,5 0 1 1 680.32,470.53Z" style="fill:#1FD3AC" />
<path d="M700.31,369.46A5,5 0 1 1 690.31,369.46A5,5 0 1 1 700.31,369.46Z" style="fill:#1FD3AC" />
<path d="M720.29,310.74A5,5 0 1 1 710.29,310.74A5,5 0 1 1 720.29,310.74Z" style="fill:#1FD3AC" />
<path d="M740.27,262.39A5,5 0 1 1 730.27,262.39A5,5 0 1 1 740.27,262.39Z" style="fill:#1FD3AC" />
<path d="M760.26,218.72A5,5 0 1 1 750.26,218.72A5,5 0 1 1 760.26,218.72Z" style="fill:#1FD3AC" />
<path d="M780.24,200.94A5,5 0 1 1 770.24,200.94A5,5 0 1 1 780.24,200.94Z" style="fill:#1FD3AC" />
<path d="M800.23,188.66A5,5 0 1 1 790.23,188.66A5,5 0 1 1 800.23,188.66Z" style="fill:#1FD3AC" />
<path d="M820.21,183.12A5,5 0 1 1 810.21,183.12A5,5 0 1 1 820.21,183.12Z" style="fill:#1FD3AC" />
<path d="M840.19,186.88A5,5 0 1 1 830.19,186.88A5,5 0 1 1 840.19,186.88Z" style="fill:#1FD3AC" />
<path d="M860.18,184.51A5,5 0 1 1 850.18,184.51A5,5 0 1 1 860.18,184.51Z" style="fill:#1FD3AC" />
<path d="M880.16,172.33A5,5 0 1 1 870.16,172.33A5,5 0 1 1 880.16,172.33Z" style="fill:#1FD3AC" />
<path d="M900.15,162.62A5,5 0 1 1 890.15,162.62A5,5 0 1 1 900.15,162.62Z" style="fill:#1FD3AC" />
<path d="M920.13,170.04A5,5 0 1 1 910.13,170.04A5,5 0 1 1 920.13,170.04Z" style="fill:#1FD3AC" />
<path d="M940.11,162.61A5,5 0 1 1 930.11,162.61A5,5 0 1 1 940.11,162.61Z" style="fill:#1FD3AC" />
<path d="M960.1,164.31A5,5 0 1 1 950.1,164.31A5,5 0 1 1 960.1,164.31Z" style="fill:#1FD3AC" />
<path d="M980.08,166.41A5,5 0 1 1 970.08,166.41A5,5 0 1 1 980.08,166.41Z" style="fill:#1FD3AC" />
<path d="M1000.1,164.92A5,5 0 1 1 990.06,164.92A5,5 0 1 1 1000.1,164.92Z" style="fill:#1FD3AC" />
<path d="M1020,159.53A5,5 0 1 1 1010,159.53A5,5 0 1 1 1020,159.53Z" style="fill:#1FD3AC" />
<path d="M1040,150.92A5,5 0 1 1 1030,150.92A5,5 0 1 1 1040,150.92Z" style="fill:#1FD3AC" />
<path d="M1060,155.14A5,5 0 1 1 1050,155.14A5,5 0 1 1 1060,155.14Z" style="fill:#1FD3AC" />
<path d="M1080,176.23A5,5 0 1 1 1070,176.23A5,5 0 1 1 1080,176.23Z" style="fill:#1FD3AC" />
<path d="M195.71,974.14L1075,974.14" style="fill:none;stroke:#000000" />
<path d="M1075,108.82L1075,974.14" style="fill:none;stroke:#000000" />
<path d="M1038,942.02A8,8 0 1 1 1022,942.02A8,8 0 1 1 1038,942.02Z" style="fill:#1FD3AC" />
<text x="816.97" y="-933.54" transform="scale(1, -1)"
	style="font-family:Helvetica;font-weight:normal;font-style:normal;font-size:36px">20Hz RBW</text>
</g>
</svg>
