<?xml version="1.0"?>
<!-- Generated by SVGo and Plotinum VG -->
<svg width="1080pt" height="1080pt" viewBox="0 0 1080 1080"
	xmlns="http://www.w3.org/2000/svg"
	xmlns:xlink="http://www.w3.org/1999/xlink">
<g transform="scale(1, -1) translate(0, -1080)">
<path d="M0,0L1080,0L1080,1080L0,1080Z" style="fill:#-8000000000000000-8000000000000000-8000000000000000;fill-opacity:0" />
<text x="463.57" y="-1039.5" transform="scale(1, -1)"
	style="font-family:Helvetica;font-weight:normal;font-style:normal;font-size:50px">Stokes</text>
<text x="450.4" y="-11.039" transform="scale(1, -1)"
	style="font-family:Helvetica;font-weight:normal;font-style:normal;font-size:36px">Frequency (GHz)</text>
<text x="111.88" y="-71.258" transform="scale(1, -1)"
	style="font-family:Helvetica;font-weight:normal;font-style:normal;font-size:36px">2</text>
<text x="283.49" y="-71.258" transform="scale(1, -1)"
	style="font-family:Helvetica;font-weight:normal;font-style:normal;font-size:36px">2.1</text>
<text x="470.1" y="-71.258" transform="scale(1, -1)"
	style="font-family:Helvetica;font-weight:normal;font-style:normal;font-size:36px">2.2</text>
<text x="656.72" y="-71.258" transform="scale(1, -1)"
	style="font-family:Helvetica;font-weight:normal;font-style:normal;font-size:36px">2.3</text>
<text x="843.34" y="-71.258" transform="scale(1, -1)"
	style="font-family:Helvetica;font-weight:normal;font-style:normal;font-size:36px">2.4</text>
<text x="1030" y="-71.258" transform="scale(1, -1)"
	style="font-family:Helvetica;font-weight:normal;font-style:normal;font-size:36px">2.5</text>
<path d="M121.89,116.44L121.89,108.44" style="fill:none;stroke:#000000;stroke-width:1.5" />
<path d="M215.2,112.44L215.2,108.44" style="fill:none;stroke:#000000;stroke-width:1.5" />
<path d="M308.51,116.44L308.51,108.44" style="fill:none;stroke:#000000;stroke-width:1.5" />
<path d="M401.82,112.44L401.82,108.44" style="fill:none;stroke:#000000;stroke-width:1.5" />
<path d="M495.13,116.44L495.13,108.44" style="fill:none;stroke:#000000;stroke-width:1.5" />
<path d="M588.44,112.44L588.44,108.44" style="fill:none;stroke:#000000;stroke-width:1.5" />
<path d="M681.74,116.44L681.74,108.44" style="fill:none;stroke:#000000;stroke-width:1.5" />
<path d="M775.05,112.44L775.05,108.44" style="fill:none;stroke:#000000;stroke-width:1.5" />
<path d="M868.36,116.44L868.36,108.44" style="fill:none;stroke:#000000;stroke-width:1.5" />
<path d="M961.67,112.44L961.67,108.44" style="fill:none;stroke:#000000;stroke-width:1.5" />
<path d="M1055,116.44L1055,108.44" style="fill:none;stroke:#000000;stroke-width:1.5" />
<path d="M121.89,108.44L1055,108.44" style="fill:none;stroke:#000000;stroke-width:1.5" />
<g transform="rotate(90)">
<text x="370.67" y="29.18" transform="scale(1, -1)"
	style="font-family:Helvetica;font-weight:normal;font-style:normal;font-size:36px">Spectral Density (nV)</text>
</g>
<text x="87.869" y="-99.12" transform="scale(1, -1)"
	style="font-family:Helvetica;font-weight:normal;font-style:normal;font-size:36px">0</text>
<text x="87.869" y="-346.53" transform="scale(1, -1)"
	style="font-family:Helvetica;font-weight:normal;font-style:normal;font-size:36px">5</text>
<text x="67.848" y="-593.95" transform="scale(1, -1)"
	style="font-family:Helvetica;font-weight:normal;font-style:normal;font-size:36px">10</text>
<text x="67.848" y="-841.36" transform="scale(1, -1)"
	style="font-family:Helvetica;font-weight:normal;font-style:normal;font-size:36px">15</text>
<path d="M133.89,108.19L125.89,108.19" style="fill:none;stroke:#000000;stroke-width:1.5" />
<path d="M129.89,231.9L125.89,231.9" style="fill:none;stroke:#000000;stroke-width:1.5" />
<path d="M133.89,355.6L125.89,355.6" style="fill:none;stroke:#000000;stroke-width:1.5" />
<path d="M129.89,479.31L125.89,479.31" style="fill:none;stroke:#000000;stroke-width:1.5" />
<path d="M133.89,603.02L125.89,603.02" style="fill:none;stroke:#000000;stroke-width:1.5" />
<path d="M129.89,726.73L125.89,726.73" style="fill:none;stroke:#000000;stroke-width:1.5" />
<path d="M133.89,850.43L125.89,850.43" style="fill:none;stroke:#000000;stroke-width:1.5" />
<path d="M129.89,974.14L125.89,974.14" style="fill:none;stroke:#000000;stroke-width:1.5" />
<path d="M125.89,107.32L125.89,974.14" style="fill:none;stroke:#000000;stroke-width:1.5" />
<path d="M134.22,110.27A3,3 0 1 1 128.22,110.27A3,3 0 1 1 134.22,110.27Z" style="fill:#1FD3AC" />
<path d="M152.89,107.32A3,3 0 1 1 146.89,107.32A3,3 0 1 1 152.89,107.32Z" style="fill:#1FD3AC" />
<path d="M171.55,114.16A3,3 0 1 1 165.55,114.16A3,3 0 1 1 171.55,114.16Z" style="fill:#1FD3AC" />
<path d="M190.21,114.44A3,3 0 1 1 184.21,114.44A3,3 0 1 1 190.21,114.44Z" style="fill:#1FD3AC" />
<path d="M208.87,116.05A3,3 0 1 1 202.87,116.05A3,3 0 1 1 208.87,116.05Z" style="fill:#1FD3AC" />
<path d="M227.53,111.72A3,3 0 1 1 221.53,111.72A3,3 0 1 1 227.53,111.72Z" style="fill:#1FD3AC" />
<path d="M246.19,122A3,3 0 1 1 240.19,122A3,3 0 1 1 246.19,122Z" style="fill:#1FD3AC" />
<path d="M264.86,120.24A3,3 0 1 1 258.86,120.24A3,3 0 1 1 264.86,120.24Z" style="fill:#1FD3AC" />
<path d="M283.52,119.25A3,3 0 1 1 277.52,119.25A3,3 0 1 1 283.52,119.25Z" style="fill:#1FD3AC" />
<path d="M302.18,118.47A3,3 0 1 1 296.18,118.47A3,3 0 1 1 302.18,118.47Z" style="fill:#1FD3AC" />
<path d="M320.84,123.48A3,3 0 1 1 314.84,123.48A3,3 0 1 1 320.84,123.48Z" style="fill:#1FD3AC" />
<path d="M339.5,116.59A3,3 0 1 1 333.5,116.59A3,3 0 1 1 339.5,116.59Z" style="fill:#1FD3AC" />
<path d="M358.16,122.81A3,3 0 1 1 352.16,122.81A3,3 0 1 1 358.16,122.81Z" style="fill:#1FD3AC" />
<path d="M376.83,127.71A3,3 0 1 1 370.83,127.71A3,3 0 1 1 376.83,127.71Z" style="fill:#1FD3AC" />
<path d="M395.49,132.05A3,3 0 1 1 389.49,132.05A3,3 0 1 1 395.49,132.05Z" style="fill:#1FD3AC" />
<path d="M414.15,130.53A3,3 0 1 1 408.15,130.53A3,3 0 1 1 414.15,130.53Z" style="fill:#1FD3AC" />
<path d="M432.81,135.71A3,3 0 1 1 426.81,135.71A3,3 0 1 1 432.81,135.71Z" style="fill:#1FD3AC" />
<path d="M451.47,136.23A3,3 0 1 1 445.47,136.23A3,3 0 1 1 451.47,136.23Z" style="fill:#1FD3AC" />
<path d="M470.13,149.02A3,3 0 1 1 464.13,149.02A3,3 0 1 1 470.13,149.02Z" style="fill:#1FD3AC" />
<path d="M488.8,150.41A3,3 0 1 1 482.8,150.41A3,3 0 1 1 488.8,150.41Z" style="fill:#1FD3AC" />
<path d="M507.46,164.33A3,3 0 1 1 501.46,164.33A3,3 0 1 1 507.46,164.33Z" style="fill:#1FD3AC" />
<path d="M526.12,179.83A3,3 0 1 1 520.12,179.83A3,3 0 1 1 526.12,179.83Z" style="fill:#1FD3AC" />
<path d="M544.78,204.11A3,3 0 1 1 538.78,204.11A3,3 0 1 1 544.78,204.11Z" style="fill:#1FD3AC" />
<path d="M563.44,229.35A3,3 0 1 1 557.44,229.35A3,3 0 1 1 563.44,229.35Z" style="fill:#1FD3AC" />
<path d="M582.1,259.67A3,3 0 1 1 576.1,259.67A3,3 0 1 1 582.1,259.67Z" style="fill:#1FD3AC" />
<path d="M600.77,312.23A3,3 0 1 1 594.77,312.23A3,3 0 1 1 600.77,312.23Z" style="fill:#1FD3AC" />
<path d="M619.43,391A3,3 0 1 1 613.43,391A3,3 0 1 1 619.43,391Z" style="fill:#1FD3AC" />
<path d="M638.09,491.86A3,3 0 1 1 632.09,491.86A3,3 0 1 1 638.09,491.86Z" style="fill:#1FD3AC" />
<path d="M656.75,621.79A3,3 0 1 1 650.75,621.79A3,3 0 1 1 656.75,621.79Z" style="fill:#1FD3AC" />
<path d="M675.41,746.42A3,3 0 1 1 669.41,746.42A3,3 0 1 1 675.41,746.42Z" style="fill:#1FD3AC" />
<path d="M694.07,821.42A3,3 0 1 1 688.07,821.42A3,3 0 1 1 694.07,821.42Z" style="fill:#1FD3AC" />
<path d="M712.74,792.75A3,3 0 1 1 706.74,792.75A3,3 0 1 1 712.74,792.75Z" style="fill:#1FD3AC" />
<path d="M731.4,698.07A3,3 0 1 1 725.4,698.07A3,3 0 1 1 731.4,698.07Z" style="fill:#1FD3AC" />
<path d="M750.06,564.07A3,3 0 1 1 744.06,564.07A3,3 0 1 1 750.06,564.07Z" style="fill:#1FD3AC" />
<path d="M768.72,468.71A3,3 0 1 1 762.72,468.71A3,3 0 1 1 768.72,468.71Z" style="fill:#1FD3AC" />
<path d="M787.38,374.22A3,3 0 1 1 781.38,374.22A3,3 0 1 1 787.38,374.22Z" style="fill:#1FD3AC" />
<path d="M806.04,321.13A3,3 0 1 1 800.04,321.13A3,3 0 1 1 806.04,321.13Z" style="fill:#1FD3AC" />
<path d="M824.71,276.46A3,3 0 1 1 818.71,276.46A3,3 0 1 1 824.71,276.46Z" style="fill:#1FD3AC" />
<path d="M843.37,236.06A3,3 0 1 1 837.37,236.06A3,3 0 1 1 843.37,236.06Z" style="fill:#1FD3AC" />
<path d="M862.03,213.45A3,3 0 1 1 856.03,213.45A3,3 0 1 1 862.03,213.45Z" style="fill:#1FD3AC" />
<path d="M880.69,199.32A3,3 0 1 1 874.69,199.32A3,3 0 1 1 880.69,199.32Z" style="fill:#1FD3AC" />
<path d="M899.35,171.79A3,3 0 1 1 893.35,171.79A3,3 0 1 1 899.35,171.79Z" style="fill:#1FD3AC" />
<path d="M918.01,170.03A3,3 0 1 1 912.01,170.03A3,3 0 1 1 918.01,170.03Z" style="fill:#1FD3AC" />
<path d="M936.68,156.62A3,3 0 1 1 930.68,156.62A3,3 0 1 1 936.68,156.62Z" style="fill:#1FD3AC" />
<path d="M955.34,152.08A3,3 0 1 1 949.34,152.08A3,3 0 1 1 955.34,152.08Z" style="fill:#1FD3AC" />
<path d="M974,140.13A3,3 0 1 1 968,140.13A3,3 0 1 1 974,140.13Z" style="fill:#1FD3AC" />
<path d="M992.66,141.33A3,3 0 1 1 986.66,141.33A3,3 0 1 1 992.66,141.33Z" style="fill:#1FD3AC" />
<path d="M1011.3,134.22A3,3 0 1 1 1005.3,134.22A3,3 0 1 1 1011.3,134.22Z" style="fill:#1FD3AC" />
<path d="M1030,121.38A3,3 0 1 1 1024,121.38A3,3 0 1 1 1030,121.38Z" style="fill:#1FD3AC" />
<path d="M1048.6,124.21A3,3 0 1 1 1042.6,124.21A3,3 0 1 1 1048.6,124.21Z" style="fill:#1FD3AC" />
<path d="M131.22,117.5L133.09,117.56L134.96,117.63L136.82,117.69L138.69,117.75L140.55,117.81L142.42,117.88L144.29,117.94L146.15,118.01L148.02,118.07L149.89,118.14L151.75,118.21L153.62,118.27L155.48,118.34L157.35,118.41L159.22,118.48L161.08,118.55L162.95,118.62L164.81,118.7L166.68,118.77L168.55,118.84L170.41,118.92L172.28,118.99L174.15,119.07L176.01,119.14L177.88,119.22L179.74,119.3L181.61,119.38L183.48,119.46L185.34,119.54L187.21,119.62L189.07,119.71L190.94,119.79L192.81,119.87L194.67,119.96L196.54,120.05L198.41,120.13L200.27,120.22L202.14,120.31L204,120.4L205.87,120.49L207.74,120.58L209.6,120.68L211.47,120.77L213.33,120.87L215.2,120.96L217.07,121.06L218.93,121.16L220.8,121.26L222.67,121.36L224.53,121.46L226.4,121.57L228.26,121.67L230.13,121.78L232,121.88L233.86,121.99L235.73,122.1L237.6,122.21L239.46,122.33L241.33,122.44L243.19,122.55L245.06,122.67L246.93,122.79L248.79,122.91L250.66,123.03L252.52,123.15L254.39,123.27L256.26,123.4L258.12,123.52L259.99,123.65L261.86,123.78L263.72,123.91L265.59,124.05L267.45,124.18L269.32,124.32L271.19,124.46L273.05,124.6L274.92,124.74L276.78,124.88L278.65,125.03L280.52,125.18L282.38,125.32L284.25,125.48L286.12,125.63L287.98,125.78L289.85,125.94L291.71,126.1L293.58,126.26L295.45,126.43L297.31,126.59L299.18,126.76L301.04,126.93L302.91,127.11L304.78,127.28L306.64,127.46L308.51,127.64L310.38,127.82L312.24,128.01L314.11,128.19L315.97,128.39L317.84,128.58L319.71,128.77L321.57,128.97L323.44,129.18L325.31,129.38L327.17,129.59L329.04,129.8L330.9,130.01L332.77,130.23L334.64,130.45L336.5,130.67L338.37,130.9L340.23,131.13L342.1,131.36L343.97,131.6L345.83,131.84L347.7,132.09L349.57,132.33L351.43,132.59L353.3,132.84L355.16,133.1L357.03,133.37L358.9,133.63L360.76,133.91L362.63,134.18L364.49,134.47L366.36,134.75L368.23,135.04L370.09,135.34L371.96,135.64L373.83,135.94L375.69,136.25L377.56,136.57L379.42,136.89L381.29,137.21L383.16,137.55L385.02,137.88L386.89,138.23L388.75,138.57L390.62,138.93L392.49,139.29L394.35,139.66L396.22,140.03L398.09,140.41L399.95,140.8L401.82,141.19L403.68,141.59L405.55,142L407.42,142.42L409.28,142.84L411.15,143.27L413.02,143.71L414.88,144.16L416.75,144.61L418.61,145.07L420.48,145.55L422.35,146.03L424.21,146.52L426.08,147.02L427.94,147.53L429.81,148.05L431.68,148.58L433.54,149.12L435.41,149.67L437.28,150.23L439.14,150.8L441.01,151.39L442.87,151.99L444.74,152.59L446.61,153.22L448.47,153.85L450.34,154.5L452.2,155.16L454.07,155.83L455.94,156.52L457.8,157.23L459.67,157.94L461.54,158.68L463.4,159.43L465.27,160.2L467.13,160.98L469,161.78L470.87,162.6L472.73,163.44L474.6,164.29L476.46,165.17L478.33,166.06L480.2,166.98L482.06,167.92L483.93,168.88L485.8,169.86L487.66,170.87L489.53,171.9L491.39,172.95L493.26,174.03L495.13,175.14L496.99,176.27L498.86,177.43L500.73,178.62L502.59,179.84L504.46,181.09L506.32,182.37L508.19,183.69L510.06,185.04L511.92,186.42L513.79,187.84L515.65,189.3L517.52,190.79L519.39,192.33L521.25,193.91L523.12,195.53L524.99,197.19L526.85,198.9L528.72,200.66L530.58,202.47L532.45,204.32L534.32,206.23L536.18,208.2L538.05,210.22L539.91,212.3L541.78,214.44L543.65,216.64L545.51,218.91L547.38,221.24L549.25,223.64L551.11,226.12L552.98,228.67L554.84,231.3L556.71,234.01L558.58,236.81L560.44,239.69L562.31,242.66L564.17,245.73L566.04,248.9L567.91,252.16L569.77,255.53L571.64,259.01L573.51,262.61L575.37,266.32L577.24,270.15L579.1,274.11L580.97,278.2L582.84,282.43L584.7,286.81L586.57,291.33L588.44,296L590.3,300.84L592.17,305.83L594.03,311L595.9,316.35L597.77,321.89L599.63,327.61L601.5,333.53L603.36,339.66L605.23,346L607.1,352.56L608.96,359.35L610.83,366.37L612.7,373.64L614.56,381.15L616.43,388.92L618.29,396.95L620.16,405.25L622.03,413.83L623.89,422.69L625.76,431.84L627.62,441.28L629.49,451.02L631.36,461.06L633.22,471.4L635.09,482.04L636.96,492.98L638.82,504.23L640.69,515.76L642.55,527.59L644.42,539.69L646.29,552.06L648.15,564.67L650.02,577.52L651.88,590.58L653.75,603.82L655.62,617.21L657.48,630.71L659.35,644.28L661.22,657.89L663.08,671.47L664.95,684.98L666.81,698.34L668.68,711.5L670.55,724.39L672.41,736.92L674.28,749.04L676.15,760.64L678.01,771.66L679.88,782.02L681.74,791.62L683.61,800.4L685.48,808.28L687.34,815.19L689.21,821.06L691.07,825.85L692.94,829.5L694.81,831.98L696.67,833.27L698.54,833.35L700.41,832.22L702.27,829.89L704.14,826.39L706,821.75L707.87,816.02L709.74,809.25L711.6,801.49L713.47,792.83L715.33,783.32L717.2,773.07L719.07,762.13L720.93,750.59L722.8,738.54L724.67,726.06L726.53,713.21L728.4,700.08L730.26,686.74L732.13,673.25L734,659.68L735.86,646.07L737.73,632.49L739.59,618.97L741.46,605.57L743.33,592.31L745.19,579.23L747.06,566.35L748.93,553.7L750.79,541.3L752.66,529.16L754.52,517.3L756.39,505.73L758.26,494.45L760.12,483.46L761.99,472.78L763.86,462.4L765.72,452.32L767.59,442.54L769.45,433.06L771.32,423.88L773.19,414.98L775.05,406.36L776.92,398.03L778.78,389.96L780.65,382.16L782.52,374.61L784.38,367.31L786.25,360.26L788.12,353.44L789.98,346.85L791.85,340.48L793.71,334.33L795.58,328.38L797.45,322.63L799.31,317.07L801.18,311.7L803.04,306.5L804.91,301.48L806.78,296.63L808.64,291.93L810.51,287.39L812.38,283L814.24,278.75L816.11,274.64L817.97,270.66L819.84,266.81L821.71,263.09L823.57,259.48L825.44,255.98L827.3,252.6L829.17,249.32L831.04,246.14L832.9,243.06L834.77,240.08L836.64,237.18L838.5,234.38L840.37,231.66L842.23,229.01L844.1,226.45L845.97,223.97L847.83,221.55L849.7,219.21L851.57,216.93L853.43,214.72L855.3,212.58L857.16,210.49L859.03,208.46L860.9,206.49L862.76,204.57L864.63,202.71L866.49,200.9L868.36,199.13L870.23,197.42L872.09,195.74L873.96,194.12L875.83,192.54L877.69,190.99L879.56,189.49L881.42,188.03L883.29,186.61L885.16,185.22L887.02,183.86L888.89,182.54L890.75,181.26L892.62,180L894.49,178.78L896.35,177.58L898.22,176.42L900.09,175.28L901.95,174.17L903.82,173.09L905.68,172.03L907.55,171L909.42,169.99L911.28,169.01L913.15,168.04L915.01,167.1L916.88,166.18L918.75,165.29L920.61,164.41L922.48,163.55L924.35,162.71L926.21,161.89L928.08,161.08L929.94,160.3L931.81,159.53L933.68,158.78L935.54,158.04L937.41,157.32L939.28,156.61L941.14,155.92L943.01,155.25L944.87,154.58L946.74,153.93L948.61,153.3L950.47,152.68L952.34,152.07L954.2,151.47L956.07,150.88L957.94,150.31L959.8,149.74L961.67,149.19L963.54,148.65L965.4,148.12L967.27,147.6L969.13,147.09L971,146.58L972.87,146.09L974.73,145.61L976.6,145.14L978.46,144.67L980.33,144.21L982.2,143.77L984.06,143.33L985.93,142.89L987.8,142.47L989.66,142.05L991.53,141.65L993.39,141.24L995.26,140.85L997.13,140.46L998.99,140.08L1000.9,139.71L1002.7,139.34L1004.6,138.98L1006.5,138.62L1008.3,138.27L1010.2,137.93L1012.1,137.59L1013.9,137.26L1015.8,136.93L1017.7,136.61L1019.5,136.29L1021.4,135.98L1023.3,135.68L1025.1,135.38L1027,135.08L1028.9,134.79L1030.7,134.5L1032.6,134.22L1034.4,133.94L1036.3,133.67L1038.2,133.4L1040,133.14L1041.9,132.88L1043.8,132.62" style="fill:none;stroke:#1BAA8B;stroke-width:3" />
<path d="M633.12,470.83L762.34,470.83" style="fill:none;stroke:#1BAA8B;stroke-width:4;stroke-dasharray:15,5" />
<text x="867.96" y="-899.95" transform="scale(1, -1)"
	style="font-family:Helvetica;font-weight:normal;font-style:normal;font-size:36px">Power</text>
<path d="M1011,867.02A6,6 0 1 1 999,867.02A6,6 0 1 1 1011,867.02Z" style="fill:#1BAA8B" />
<text x="835.96" y="-858.54" transform="scale(1, -1)"
	style="font-family:Helvetica;font-weight:normal;font-style:normal;font-size:36px">189 mW</text>
</g>
</svg>
