<?xml version="1.0"?>
<!-- Generated by SVGo and Plotinum VG -->
<svg width="1080pt" height="1080pt" viewBox="0 0 1080 1080"
	xmlns="http://www.w3.org/2000/svg"
	xmlns:xlink="http://www.w3.org/1999/xlink">
<g transform="scale(1, -1) translate(0, -1080)">
<path d="M0,0L1080,0L1080,1080L0,1080Z" style="fill:#-8000000000000000-8000000000000000-8000000000000000;fill-opacity:0" />
<text x="248.73" y="-1015.2" transform="scale(1, -1)"
	style="font-family:Helvetica;font-weight:normal;font-style:normal;font-size:80px"> Sapphire CABS</text>
<text x="392.05" y="-17.172" transform="scale(1, -1)"
	style="font-family:Helvetica;font-weight:normal;font-style:normal;font-size:56px">Frequency (GHz)</text>
<text x="133.54" y="-119.73" transform="scale(1, -1)"
	style="font-family:Helvetica;font-weight:normal;font-style:normal;font-size:56px">.100</text>
<text x="552.27" y="-119.73" transform="scale(1, -1)"
	style="font-family:Helvetica;font-weight:normal;font-style:normal;font-size:56px">.120</text>
<text x="971.01" y="-119.73" transform="scale(1, -1)"
	style="font-family:Helvetica;font-weight:normal;font-style:normal;font-size:56px">.140</text>
<path d="M188.03,181.12L188.03,173.12" style="fill:none;stroke:#000000;stroke-width:1.5" />
<path d="M397.4,177.12L397.4,173.12" style="fill:none;stroke:#000000;stroke-width:1.5" />
<path d="M606.77,181.12L606.77,173.12" style="fill:none;stroke:#000000;stroke-width:1.5" />
<path d="M816.14,177.12L816.14,173.12" style="fill:none;stroke:#000000;stroke-width:1.5" />
<path d="M1025.5,181.12L1025.5,173.12" style="fill:none;stroke:#000000;stroke-width:1.5" />
<path d="M188.03,173.12L1025.5,173.12" style="fill:none;stroke:#000000;stroke-width:1.5" />
<g transform="rotate(90)">
<text x="277.4" y="45.391" transform="scale(1, -1)"
	style="font-family:Helvetica;font-weight:normal;font-style:normal;font-size:56px">Spectral Density (pV)</text>
</g>
<text x="114.43" y="-329.3" transform="scale(1, -1)"
	style="font-family:Helvetica;font-weight:normal;font-style:normal;font-size:56px">-4</text>
<text x="133.08" y="-556.19" transform="scale(1, -1)"
	style="font-family:Helvetica;font-weight:normal;font-style:normal;font-size:56px">0</text>
<text x="133.08" y="-783.07" transform="scale(1, -1)"
	style="font-family:Helvetica;font-weight:normal;font-style:normal;font-size:56px">4</text>
<path d="M191.78,229.96L187.78,229.96" style="fill:none;stroke:#000000;stroke-width:1.5" />
<path d="M195.78,343.41L187.78,343.41" style="fill:none;stroke:#000000;stroke-width:1.5" />
<path d="M191.78,456.85L187.78,456.85" style="fill:none;stroke:#000000;stroke-width:1.5" />
<path d="M195.78,570.29L187.78,570.29" style="fill:none;stroke:#000000;stroke-width:1.5" />
<path d="M191.78,683.74L187.78,683.74" style="fill:none;stroke:#000000;stroke-width:1.5" />
<path d="M195.78,797.18L187.78,797.18" style="fill:none;stroke:#000000;stroke-width:1.5" />
<path d="M191.78,910.62L187.78,910.62" style="fill:none;stroke:#000000;stroke-width:1.5" />
<path d="M187.78,173.24L187.78,910.62" style="fill:none;stroke:#000000;stroke-width:1.5" />
<path d="M203.93,419.41A5,5 0 1 1 193.93,419.41A5,5 0 1 1 203.93,419.41Z" style="fill:#FF7AB4" />
<path d="M224.86,348.43A5,5 0 1 1 214.86,348.43A5,5 0 1 1 224.86,348.43Z" style="fill:#FF7AB4" />
<path d="M245.8,233.56A5,5 0 1 1 235.8,233.56A5,5 0 1 1 245.8,233.56Z" style="fill:#FF7AB4" />
<path d="M266.74,295.64A5,5 0 1 1 256.74,295.64A5,5 0 1 1 266.74,295.64Z" style="fill:#FF7AB4" />
<path d="M287.68,188.31A5,5 0 1 1 277.68,188.31A5,5 0 1 1 287.68,188.31Z" style="fill:#FF7AB4" />
<path d="M308.61,204.58A5,5 0 1 1 298.61,204.58A5,5 0 1 1 308.61,204.58Z" style="fill:#FF7AB4" />
<path d="M329.55,294.81A5,5 0 1 1 319.55,294.81A5,5 0 1 1 329.55,294.81Z" style="fill:#FF7AB4" />
<path d="M350.49,343.46A5,5 0 1 1 340.49,343.46A5,5 0 1 1 350.49,343.46Z" style="fill:#FF7AB4" />
<path d="M371.42,384.05A5,5 0 1 1 361.42,384.05A5,5 0 1 1 371.42,384.05Z" style="fill:#FF7AB4" />
<path d="M392.36,429.66A5,5 0 1 1 382.36,429.66A5,5 0 1 1 392.36,429.66Z" style="fill:#FF7AB4" />
<path d="M413.3,299.03A5,5 0 1 1 403.3,299.03A5,5 0 1 1 413.3,299.03Z" style="fill:#FF7AB4" />
<path d="M434.23,378.9A5,5 0 1 1 424.23,378.9A5,5 0 1 1 434.23,378.9Z" style="fill:#FF7AB4" />
<path d="M455.17,252.98A5,5 0 1 1 445.17,252.98A5,5 0 1 1 455.17,252.98Z" style="fill:#FF7AB4" />
<path d="M476.11,283.8A5,5 0 1 1 466.11,283.8A5,5 0 1 1 476.11,283.8Z" style="fill:#FF7AB4" />
<path d="M497.04,283.05A5,5 0 1 1 487.04,283.05A5,5 0 1 1 497.04,283.05Z" style="fill:#FF7AB4" />
<path d="M517.98,332.2A5,5 0 1 1 507.98,332.2A5,5 0 1 1 517.98,332.2Z" style="fill:#FF7AB4" />
<path d="M538.92,261.32A5,5 0 1 1 528.92,261.32A5,5 0 1 1 538.92,261.32Z" style="fill:#FF7AB4" />
<path d="M559.85,267.06A5,5 0 1 1 549.85,267.06A5,5 0 1 1 559.85,267.06Z" style="fill:#FF7AB4" />
<path d="M580.79,277.69A5,5 0 1 1 570.79,277.69A5,5 0 1 1 580.79,277.69Z" style="fill:#FF7AB4" />
<path d="M601.73,197.78A5,5 0 1 1 591.73,197.78A5,5 0 1 1 601.73,197.78Z" style="fill:#FF7AB4" />
<path d="M622.66,485.51A5,5 0 1 1 612.66,485.51A5,5 0 1 1 622.66,485.51Z" style="fill:#FF7AB4" />
<path d="M643.6,622.69A5,5 0 1 1 633.6,622.69A5,5 0 1 1 643.6,622.69Z" style="fill:#FF7AB4" />
<path d="M664.54,634.88A5,5 0 1 1 654.54,634.88A5,5 0 1 1 664.54,634.88Z" style="fill:#FF7AB4" />
<path d="M685.47,729.79A5,5 0 1 1 675.47,729.79A5,5 0 1 1 685.47,729.79Z" style="fill:#FF7AB4" />
<path d="M706.41,778.97A5,5 0 1 1 696.41,778.97A5,5 0 1 1 706.41,778.97Z" style="fill:#FF7AB4" />
<path d="M727.35,482.09A5,5 0 1 1 717.35,482.09A5,5 0 1 1 727.35,482.09Z" style="fill:#FF7AB4" />
<path d="M748.29,372.45A5,5 0 1 1 738.29,372.45A5,5 0 1 1 748.29,372.45Z" style="fill:#FF7AB4" />
<path d="M769.22,313.8A5,5 0 1 1 759.22,313.8A5,5 0 1 1 769.22,313.8Z" style="fill:#FF7AB4" />
<path d="M790.16,366.98A5,5 0 1 1 780.16,366.98A5,5 0 1 1 790.16,366.98Z" style="fill:#FF7AB4" />
<path d="M811.1,406.75A5,5 0 1 1 801.1,406.75A5,5 0 1 1 811.1,406.75Z" style="fill:#FF7AB4" />
<path d="M832.03,385.58A5,5 0 1 1 822.03,385.58A5,5 0 1 1 832.03,385.58Z" style="fill:#FF7AB4" />
<path d="M852.97,314.05A5,5 0 1 1 842.97,314.05A5,5 0 1 1 852.97,314.05Z" style="fill:#FF7AB4" />
<path d="M873.91,401.4A5,5 0 1 1 863.91,401.4A5,5 0 1 1 873.91,401.4Z" style="fill:#FF7AB4" />
<path d="M894.84,429.86A5,5 0 1 1 884.84,429.86A5,5 0 1 1 894.84,429.86Z" style="fill:#FF7AB4" />
<path d="M915.78,424.6A5,5 0 1 1 905.78,424.6A5,5 0 1 1 915.78,424.6Z" style="fill:#FF7AB4" />
<path d="M936.72,375.7A5,5 0 1 1 926.72,375.7A5,5 0 1 1 936.72,375.7Z" style="fill:#FF7AB4" />
<path d="M957.65,480.84A5,5 0 1 1 947.65,480.84A5,5 0 1 1 957.65,480.84Z" style="fill:#FF7AB4" />
<path d="M978.59,326.07A5,5 0 1 1 968.59,326.07A5,5 0 1 1 978.59,326.07Z" style="fill:#FF7AB4" />
<path d="M999.53,601.75A5,5 0 1 1 989.53,601.75A5,5 0 1 1 999.53,601.75Z" style="fill:#FF7AB4" />
<path d="M1020.5,514.44A5,5 0 1 1 1010.5,514.44A5,5 0 1 1 1020.5,514.44Z" style="fill:#FF7AB4" />
<path d="M188.03,910.62L1025.5,910.62" style="fill:none;stroke:#000000" />
<path d="M1025.5,173.24L1025.5,910.62" style="fill:none;stroke:#000000" />
<path d="M988,852.33A8,8 0 1 1 972,852.33A8,8 0 1 1 988,852.33Z" style="fill:#FF7AB4" />
<text x="494.34" y="-839.14" transform="scale(1, -1)"
	style="font-family:Helvetica;font-weight:normal;font-style:normal;font-size:56px">Forward Sapphire</text>
</g>
</svg>
