<?xml version="1.0"?>
<!-- Generated by SVGo and Plotinum VG -->
<svg width="1080pt" height="1080pt" viewBox="0 0 1080 1080"
	xmlns="http://www.w3.org/2000/svg"
	xmlns:xlink="http://www.w3.org/1999/xlink">
<g transform="scale(1, -1) translate(0, -1080)">
<path d="M0,0L1080,0L1080,1080L0,1080Z" style="fill:#-8000000000000000-8000000000000000-8000000000000000;fill-opacity:0" />
<text x="528.89" y="-1015.2" transform="scale(1, -1)"
	style="font-family:Helvetica;font-weight:normal;font-style:normal;font-size:80px"> </text>
<text x="396.01" y="-17.172" transform="scale(1, -1)"
	style="font-family:Helvetica;font-weight:normal;font-style:normal;font-size:56px">Pump Power (mW)</text>
<text x="305.17" y="-119.73" transform="scale(1, -1)"
	style="font-family:Helvetica;font-weight:normal;font-style:normal;font-size:56px">0</text>
<text x="467.73" y="-119.73" transform="scale(1, -1)"
	style="font-family:Helvetica;font-weight:normal;font-style:normal;font-size:56px">50</text>
<text x="630.29" y="-119.73" transform="scale(1, -1)"
	style="font-family:Helvetica;font-weight:normal;font-style:normal;font-size:56px">100</text>
<text x="808.43" y="-119.73" transform="scale(1, -1)"
	style="font-family:Helvetica;font-weight:normal;font-style:normal;font-size:56px">150</text>
<text x="986.57" y="-119.73" transform="scale(1, -1)"
	style="font-family:Helvetica;font-weight:normal;font-style:normal;font-size:56px">200</text>
<path d="M320.74,181.12L320.74,173.12" style="fill:none;stroke:#000000;stroke-width:1.5" />
<path d="M409.81,177.12L409.81,173.12" style="fill:none;stroke:#000000;stroke-width:1.5" />
<path d="M498.88,181.12L498.88,173.12" style="fill:none;stroke:#000000;stroke-width:1.5" />
<path d="M587.94,177.12L587.94,173.12" style="fill:none;stroke:#000000;stroke-width:1.5" />
<path d="M677.01,181.12L677.01,173.12" style="fill:none;stroke:#000000;stroke-width:1.5" />
<path d="M766.08,177.12L766.08,173.12" style="fill:none;stroke:#000000;stroke-width:1.5" />
<path d="M855.15,181.12L855.15,173.12" style="fill:none;stroke:#000000;stroke-width:1.5" />
<path d="M944.22,177.12L944.22,173.12" style="fill:none;stroke:#000000;stroke-width:1.5" />
<path d="M1033.3,181.12L1033.3,173.12" style="fill:none;stroke:#000000;stroke-width:1.5" />
<path d="M231.67,173.12L1033.3,173.12" style="fill:none;stroke:#000000;stroke-width:1.5" />
<g transform="rotate(90)">
<text x="375.13" y="45.391" transform="scale(1, -1)"
	style="font-family:Helvetica;font-weight:normal;font-style:normal;font-size:56px">FWHM (MHz)</text>
</g>
<text x="114.43" y="-358.77" transform="scale(1, -1)"
	style="font-family:Helvetica;font-weight:normal;font-style:normal;font-size:56px">100</text>
<text x="118.59" y="-573.87" transform="scale(1, -1)"
	style="font-family:Helvetica;font-weight:normal;font-style:normal;font-size:56px">110</text>
<text x="114.43" y="-788.97" transform="scale(1, -1)"
	style="font-family:Helvetica;font-weight:normal;font-style:normal;font-size:56px">120</text>
<path d="M239.42,372.88L231.42,372.88" style="fill:none;stroke:#000000;stroke-width:1.5" />
<path d="M235.42,480.43L231.42,480.43" style="fill:none;stroke:#000000;stroke-width:1.5" />
<path d="M239.42,587.98L231.42,587.98" style="fill:none;stroke:#000000;stroke-width:1.5" />
<path d="M235.42,695.53L231.42,695.53" style="fill:none;stroke:#000000;stroke-width:1.5" />
<path d="M239.42,803.08L231.42,803.08" style="fill:none;stroke:#000000;stroke-width:1.5" />
<path d="M231.42,181.74L231.42,910.62" style="fill:none;stroke:#000000;stroke-width:1.5" />
<path d="M1000.1,446.84A6,6 0 1 1 988.09,446.84A6,6 0 1 1 1000.1,446.84Z" style="fill:#1BAA8B" />
<path d="M231.67,910.62L1033.3,910.62" style="fill:none;stroke:#000000" />
<path d="M1033.3,265.33L1033.3,910.62" style="fill:none;stroke:#000000" />
<path d="M994.09,265.33L994.09,446.84" style="fill:none;stroke:#1BAA8B;stroke-width:4;stroke-dasharray:15,5" />
<path d="M231.67,446.84L994.09,446.84" style="fill:none;stroke:#7F7F7F;stroke-dasharray:5,5" />
<path d="M960.9,372.17A6,6 0 1 1 948.9,372.17A6,6 0 1 1 960.9,372.17Z" style="fill:#BC75FF" />
<path d="M231.67,910.62L1033.3,910.62" style="fill:none;stroke:#000000" />
<path d="M1033.3,265.33L1033.3,910.62" style="fill:none;stroke:#000000" />
<path d="M954.9,265.33L954.9,372.17" style="fill:none;stroke:#BC75FF;stroke-width:4;stroke-dasharray:15,5" />
<path d="M231.67,372.17L954.9,372.17" style="fill:none;stroke:#7F7F7F;stroke-dasharray:5,5" />
<path d="M918.15,407.24A6,6 0 1 1 906.15,407.24A6,6 0 1 1 918.15,407.24Z" style="fill:#8C2E31" />
<path d="M231.67,910.62L1033.3,910.62" style="fill:none;stroke:#000000" />
<path d="M1033.3,265.33L1033.3,910.62" style="fill:none;stroke:#000000" />
<path d="M912.15,265.33L912.15,407.24" style="fill:none;stroke:#8C2E31;stroke-width:4;stroke-dasharray:15,5" />
<path d="M231.67,407.24L912.15,407.24" style="fill:none;stroke:#7F7F7F;stroke-dasharray:5,5" />
<path d="M875.4,339.32A6,6 0 1 1 863.4,339.32A6,6 0 1 1 875.4,339.32Z" style="fill:#5B1616" />
<path d="M231.67,910.62L1033.3,910.62" style="fill:none;stroke:#000000" />
<path d="M1033.3,265.33L1033.3,910.62" style="fill:none;stroke:#000000" />
<path d="M869.4,265.33L869.4,339.32" style="fill:none;stroke:#5B1616;stroke-width:4;stroke-dasharray:15,5" />
<path d="M231.67,339.32L869.4,339.32" style="fill:none;stroke:#7F7F7F;stroke-dasharray:5,5" />
<path d="M836.21,326.71A6,6 0 1 1 824.21,326.71A6,6 0 1 1 836.21,326.71Z" style="fill:#C96892" />
<path d="M231.67,910.62L1033.3,910.62" style="fill:none;stroke:#000000" />
<path d="M1033.3,265.33L1033.3,910.62" style="fill:none;stroke:#000000" />
<path d="M830.21,265.33L830.21,326.71" style="fill:none;stroke:#C96892;stroke-width:4;stroke-dasharray:15,5" />
<path d="M231.67,326.71L830.21,326.71" style="fill:none;stroke:#7F7F7F;stroke-dasharray:5,5" />
<path d="M804.14,394.6A6,6 0 1 1 792.14,394.6A6,6 0 1 1 804.14,394.6Z" style="fill:#EA9CAC" />
<path d="M231.67,910.62L1033.3,910.62" style="fill:none;stroke:#000000" />
<path d="M1033.3,265.33L1033.3,910.62" style="fill:none;stroke:#000000" />
<path d="M798.14,265.33L798.14,394.6" style="fill:none;stroke:#EA9CAC;stroke-width:4;stroke-dasharray:15,5" />
<path d="M231.67,394.6L798.14,394.6" style="fill:none;stroke:#7F7F7F;stroke-dasharray:5,5" />
<path d="M764.95,282.23A6,6 0 1 1 752.95,282.23A6,6 0 1 1 764.95,282.23Z" style="fill:#013854" />
<path d="M231.67,910.62L1033.3,910.62" style="fill:none;stroke:#000000" />
<path d="M1033.3,265.33L1033.3,910.62" style="fill:none;stroke:#000000" />
<path d="M758.95,265.33L758.95,282.23" style="fill:none;stroke:#013854;stroke-width:4;stroke-dasharray:15,5" />
<path d="M231.67,282.23L758.95,282.23" style="fill:none;stroke:#7F7F7F;stroke-dasharray:5,5" />
<path d="M704.39,308.16A6,6 0 1 1 692.39,308.16A6,6 0 1 1 704.39,308.16Z" style="fill:#2E8C3C" />
<path d="M231.67,910.62L1033.3,910.62" style="fill:none;stroke:#000000" />
<path d="M1033.3,265.33L1033.3,910.62" style="fill:none;stroke:#000000" />
<path d="M698.39,265.33L698.39,308.16" style="fill:none;stroke:#2E8C3C;stroke-width:4;stroke-dasharray:15,5" />
<path d="M231.67,308.16L698.39,308.16" style="fill:none;stroke:#7F7F7F;stroke-dasharray:5,5" />
<path d="M661.64,281.57A6,6 0 1 1 649.64,281.57A6,6 0 1 1 661.64,281.57Z" style="fill:#637CC6" />
<path d="M231.67,910.62L1033.3,910.62" style="fill:none;stroke:#000000" />
<path d="M1033.3,265.33L1033.3,910.62" style="fill:none;stroke:#000000" />
<path d="M655.64,265.33L655.64,281.57" style="fill:none;stroke:#637CC6;stroke-width:4;stroke-dasharray:15,5" />
<path d="M231.67,281.57L655.64,281.57" style="fill:none;stroke:#7F7F7F;stroke-dasharray:5,5" />
<path d="M626.01,256.57A6,6 0 1 1 614.01,256.57A6,6 0 1 1 626.01,256.57Z" style="fill:#7A2968" />
<path d="M231.67,910.62L1033.3,910.62" style="fill:none;stroke:#000000" />
<path d="M1033.3,265.33L1033.3,910.62" style="fill:none;stroke:#000000" />
<path d="M620.01,265.33L620.01,256.57" style="fill:none;stroke:#7A2968;stroke-width:4;stroke-dasharray:15,5" />
<path d="M231.67,256.57L620.01,256.57" style="fill:none;stroke:#7F7F7F;stroke-dasharray:5,5" />
<path d="M586.82,255.59A6,6 0 1 1 574.82,255.59A6,6 0 1 1 586.82,255.59Z" style="fill:#297A64" />
<path d="M231.67,910.62L1033.3,910.62" style="fill:none;stroke:#000000" />
<path d="M1033.3,265.33L1033.3,910.62" style="fill:none;stroke:#000000" />
<path d="M580.82,265.33L580.82,255.59" style="fill:none;stroke:#297A64;stroke-width:4;stroke-dasharray:15,5" />
<path d="M231.67,255.59L580.82,255.59" style="fill:none;stroke:#7F7F7F;stroke-dasharray:5,5" />
<path d="M544.07,259.98A6,6 0 1 1 532.07,259.98A6,6 0 1 1 544.07,259.98Z" style="fill:#7A5A29" />
<path d="M231.67,910.62L1033.3,910.62" style="fill:none;stroke:#000000" />
<path d="M1033.3,265.33L1033.3,910.62" style="fill:none;stroke:#000000" />
<path d="M538.07,265.33L538.07,259.98" style="fill:none;stroke:#7A5A29;stroke-width:4;stroke-dasharray:15,5" />
<path d="M231.67,259.98L538.07,259.98" style="fill:none;stroke:#7F7F7F;stroke-dasharray:5,5" />
<path d="M479.94,275.89A6,6 0 1 1 467.94,275.89A6,6 0 1 1 479.94,275.89Z" style="fill:#B78B59" />
<path d="M231.67,910.62L1033.3,910.62" style="fill:none;stroke:#000000" />
<path d="M1033.3,265.33L1033.3,910.62" style="fill:none;stroke:#000000" />
<path d="M473.94,265.33L473.94,275.89" style="fill:none;stroke:#B78B59;stroke-width:4;stroke-dasharray:15,5" />
<path d="M231.67,275.89L473.94,275.89" style="fill:none;stroke:#7F7F7F;stroke-dasharray:5,5" />
<path d="M440.75,212.35A6,6 0 1 1 428.75,212.35A6,6 0 1 1 440.75,212.35Z" style="fill:#162C5B" />
<path d="M231.67,910.62L1033.3,910.62" style="fill:none;stroke:#000000" />
<path d="M1033.3,265.33L1033.3,910.62" style="fill:none;stroke:#000000" />
<path d="M434.75,265.33L434.75,212.35" style="fill:none;stroke:#162C5B;stroke-width:4;stroke-dasharray:15,5" />
<path d="M231.67,212.35L434.75,212.35" style="fill:none;stroke:#7F7F7F;stroke-dasharray:5,5" />
<path d="M412.25,239.75A6,6 0 1 1 400.25,239.75A6,6 0 1 1 412.25,239.75Z" style="fill:#3B1142" />
<path d="M231.67,910.62L1033.3,910.62" style="fill:none;stroke:#000000" />
<path d="M1033.3,265.33L1033.3,910.62" style="fill:none;stroke:#000000" />
<path d="M406.25,265.33L406.25,239.75" style="fill:none;stroke:#3B1142;stroke-width:4;stroke-dasharray:15,5" />
<path d="M231.67,239.75L406.25,239.75" style="fill:none;stroke:#7F7F7F;stroke-dasharray:5,5" />
<path d="M376.62,181.74A6,6 0 1 1 364.62,181.74A6,6 0 1 1 376.62,181.74Z" style="fill:#126663" />
<path d="M231.67,910.62L1033.3,910.62" style="fill:none;stroke:#000000" />
<path d="M1033.3,265.33L1033.3,910.62" style="fill:none;stroke:#000000" />
<path d="M370.62,265.33L370.62,181.74" style="fill:none;stroke:#126663;stroke-width:4;stroke-dasharray:15,5" />
<path d="M231.67,181.74L370.62,181.74" style="fill:none;stroke:#7F7F7F;stroke-dasharray:5,5" />
</g>
</svg>
