<?xml version="1.0"?>
<!-- Generated by SVGo and Plotinum VG -->
<svg width="1080pt" height="1080pt" viewBox="0 0 1080 1080"
	xmlns="http://www.w3.org/2000/svg"
	xmlns:xlink="http://www.w3.org/1999/xlink">
<g transform="scale(1, -1) translate(0, -1080)">
<path d="M0,0L1080,0L1080,1080L0,1080Z" style="fill:#-8000000000000000-8000000000000000-8000000000000000;fill-opacity:0" />
<text x="-126.88" y="-1015.2" transform="scale(1, -1)"
	style="font-family:Helvetica;font-weight:normal;font-style:normal;font-size:80px">Stokes Pump Power vs Widths of Fits</text>
<text x="396.01" y="-17.172" transform="scale(1, -1)"
	style="font-family:Helvetica;font-weight:normal;font-style:normal;font-size:56px">Pump Power (mW)</text>
<text x="305.17" y="-119.73" transform="scale(1, -1)"
	style="font-family:Helvetica;font-weight:normal;font-style:normal;font-size:56px">0</text>
<text x="467.73" y="-119.73" transform="scale(1, -1)"
	style="font-family:Helvetica;font-weight:normal;font-style:normal;font-size:56px">50</text>
<text x="630.29" y="-119.73" transform="scale(1, -1)"
	style="font-family:Helvetica;font-weight:normal;font-style:normal;font-size:56px">100</text>
<text x="808.43" y="-119.73" transform="scale(1, -1)"
	style="font-family:Helvetica;font-weight:normal;font-style:normal;font-size:56px">150</text>
<text x="986.57" y="-119.73" transform="scale(1, -1)"
	style="font-family:Helvetica;font-weight:normal;font-style:normal;font-size:56px">200</text>
<path d="M320.74,181.12L320.74,173.12" style="fill:none;stroke:#000000;stroke-width:1.5" />
<path d="M409.81,177.12L409.81,173.12" style="fill:none;stroke:#000000;stroke-width:1.5" />
<path d="M498.88,181.12L498.88,173.12" style="fill:none;stroke:#000000;stroke-width:1.5" />
<path d="M587.94,177.12L587.94,173.12" style="fill:none;stroke:#000000;stroke-width:1.5" />
<path d="M677.01,181.12L677.01,173.12" style="fill:none;stroke:#000000;stroke-width:1.5" />
<path d="M766.08,177.12L766.08,173.12" style="fill:none;stroke:#000000;stroke-width:1.5" />
<path d="M855.15,181.12L855.15,173.12" style="fill:none;stroke:#000000;stroke-width:1.5" />
<path d="M944.22,177.12L944.22,173.12" style="fill:none;stroke:#000000;stroke-width:1.5" />
<path d="M1033.3,181.12L1033.3,173.12" style="fill:none;stroke:#000000;stroke-width:1.5" />
<path d="M231.67,173.12L1033.3,173.12" style="fill:none;stroke:#000000;stroke-width:1.5" />
<g transform="rotate(90)">
<text x="216.49" y="45.391" transform="scale(1, -1)"
	style="font-family:Helvetica;font-weight:normal;font-style:normal;font-size:56px">Full Width Half Max (MHz)</text>
</g>
<text x="114.43" y="-749.54" transform="scale(1, -1)"
	style="font-family:Helvetica;font-weight:normal;font-style:normal;font-size:56px">100</text>
<text x="118.59" y="-808.33" transform="scale(1, -1)"
	style="font-family:Helvetica;font-weight:normal;font-style:normal;font-size:56px">110</text>
<text x="114.43" y="-867.12" transform="scale(1, -1)"
	style="font-family:Helvetica;font-weight:normal;font-style:normal;font-size:56px">120</text>
<path d="M239.42,763.65L231.42,763.65" style="fill:none;stroke:#000000;stroke-width:1.5" />
<path d="M235.42,793.04L231.42,793.04" style="fill:none;stroke:#000000;stroke-width:1.5" />
<path d="M239.42,822.44L231.42,822.44" style="fill:none;stroke:#000000;stroke-width:1.5" />
<path d="M235.42,851.83L231.42,851.83" style="fill:none;stroke:#000000;stroke-width:1.5" />
<path d="M239.42,881.23L231.42,881.23" style="fill:none;stroke:#000000;stroke-width:1.5" />
<path d="M231.42,175.74L231.42,910.62" style="fill:none;stroke:#000000;stroke-width:1.5" />
<path d="M1000.1,572.6A6,6 0 1 1 988.09,572.6A6,6 0 1 1 1000.1,572.6Z" style="fill:#1BAA8B" />
<path d="M231.67,910.62L1033.3,910.62" style="fill:none;stroke:#000000" />
<path d="M1033.3,734.25L1033.3,910.62" style="fill:none;stroke:#000000" />
<path d="M994.09,175.74L994.09,572.6" style="fill:none;stroke:#1BAA8B;stroke-width:4;stroke-dasharray:15,5" />
<path d="M267.3,572.6L994.09,572.6" style="fill:none;stroke:#7F7F7F;stroke-dasharray:5,5" />
<path d="M960.9,587.08A6,6 0 1 1 948.9,587.08A6,6 0 1 1 960.9,587.08Z" style="fill:#BC75FF" />
<path d="M231.67,910.62L1033.3,910.62" style="fill:none;stroke:#000000" />
<path d="M1033.3,734.25L1033.3,910.62" style="fill:none;stroke:#000000" />
<path d="M954.9,175.74L954.9,587.08" style="fill:none;stroke:#BC75FF;stroke-width:4;stroke-dasharray:15,5" />
<path d="M267.3,587.08L954.9,587.08" style="fill:none;stroke:#7F7F7F;stroke-dasharray:5,5" />
<path d="M918.15,583.94A6,6 0 1 1 906.15,583.94A6,6 0 1 1 918.15,583.94Z" style="fill:#8C2E31" />
<path d="M231.67,910.62L1033.3,910.62" style="fill:none;stroke:#000000" />
<path d="M1033.3,734.25L1033.3,910.62" style="fill:none;stroke:#000000" />
<path d="M912.15,175.74L912.15,583.94" style="fill:none;stroke:#8C2E31;stroke-width:4;stroke-dasharray:15,5" />
<path d="M267.3,583.94L912.15,583.94" style="fill:none;stroke:#7F7F7F;stroke-dasharray:5,5" />
<path d="M875.4,600.5A6,6 0 1 1 863.4,600.5A6,6 0 1 1 875.4,600.5Z" style="fill:#5B1616" />
<path d="M231.67,910.62L1033.3,910.62" style="fill:none;stroke:#000000" />
<path d="M1033.3,734.25L1033.3,910.62" style="fill:none;stroke:#000000" />
<path d="M869.4,175.74L869.4,600.5" style="fill:none;stroke:#5B1616;stroke-width:4;stroke-dasharray:15,5" />
<path d="M267.3,600.5L869.4,600.5" style="fill:none;stroke:#7F7F7F;stroke-dasharray:5,5" />
<path d="M836.21,601.44A6,6 0 1 1 824.21,601.44A6,6 0 1 1 836.21,601.44Z" style="fill:#C96892" />
<path d="M231.67,910.62L1033.3,910.62" style="fill:none;stroke:#000000" />
<path d="M1033.3,734.25L1033.3,910.62" style="fill:none;stroke:#000000" />
<path d="M830.21,175.74L830.21,601.44" style="fill:none;stroke:#C96892;stroke-width:4;stroke-dasharray:15,5" />
<path d="M267.3,601.44L830.21,601.44" style="fill:none;stroke:#7F7F7F;stroke-dasharray:5,5" />
<path d="M804.14,605.95A6,6 0 1 1 792.14,605.95A6,6 0 1 1 804.14,605.95Z" style="fill:#EA9CAC" />
<path d="M231.67,910.62L1033.3,910.62" style="fill:none;stroke:#000000" />
<path d="M1033.3,734.25L1033.3,910.62" style="fill:none;stroke:#000000" />
<path d="M798.14,175.74L798.14,605.95" style="fill:none;stroke:#EA9CAC;stroke-width:4;stroke-dasharray:15,5" />
<path d="M267.3,605.95L798.14,605.95" style="fill:none;stroke:#7F7F7F;stroke-dasharray:5,5" />
<path d="M764.95,603.99A6,6 0 1 1 752.95,603.99A6,6 0 1 1 764.95,603.99Z" style="fill:#013854" />
<path d="M231.67,910.62L1033.3,910.62" style="fill:none;stroke:#000000" />
<path d="M1033.3,734.25L1033.3,910.62" style="fill:none;stroke:#000000" />
<path d="M758.95,175.74L758.95,603.99" style="fill:none;stroke:#013854;stroke-width:4;stroke-dasharray:15,5" />
<path d="M267.3,603.99L758.95,603.99" style="fill:none;stroke:#7F7F7F;stroke-dasharray:5,5" />
<path d="M704.39,617.21A6,6 0 1 1 692.39,617.21A6,6 0 1 1 704.39,617.21Z" style="fill:#2E8C3C" />
<path d="M231.67,910.62L1033.3,910.62" style="fill:none;stroke:#000000" />
<path d="M1033.3,734.25L1033.3,910.62" style="fill:none;stroke:#000000" />
<path d="M698.39,175.74L698.39,617.21" style="fill:none;stroke:#2E8C3C;stroke-width:4;stroke-dasharray:15,5" />
<path d="M267.3,617.21L698.39,617.21" style="fill:none;stroke:#7F7F7F;stroke-dasharray:5,5" />
<path d="M661.64,631.35A6,6 0 1 1 649.64,631.35A6,6 0 1 1 661.64,631.35Z" style="fill:#637CC6" />
<path d="M231.67,910.62L1033.3,910.62" style="fill:none;stroke:#000000" />
<path d="M1033.3,734.25L1033.3,910.62" style="fill:none;stroke:#000000" />
<path d="M655.64,175.74L655.64,631.35" style="fill:none;stroke:#637CC6;stroke-width:4;stroke-dasharray:15,5" />
<path d="M267.3,631.35L655.64,631.35" style="fill:none;stroke:#7F7F7F;stroke-dasharray:5,5" />
<path d="M626.01,637.34A6,6 0 1 1 614.01,637.34A6,6 0 1 1 626.01,637.34Z" style="fill:#7A2968" />
<path d="M231.67,910.62L1033.3,910.62" style="fill:none;stroke:#000000" />
<path d="M1033.3,734.25L1033.3,910.62" style="fill:none;stroke:#000000" />
<path d="M620.01,175.74L620.01,637.34" style="fill:none;stroke:#7A2968;stroke-width:4;stroke-dasharray:15,5" />
<path d="M267.3,637.34L620.01,637.34" style="fill:none;stroke:#7F7F7F;stroke-dasharray:5,5" />
<path d="M586.82,631.02A6,6 0 1 1 574.82,631.02A6,6 0 1 1 586.82,631.02Z" style="fill:#297A64" />
<path d="M231.67,910.62L1033.3,910.62" style="fill:none;stroke:#000000" />
<path d="M1033.3,734.25L1033.3,910.62" style="fill:none;stroke:#000000" />
<path d="M580.82,175.74L580.82,631.02" style="fill:none;stroke:#297A64;stroke-width:4;stroke-dasharray:15,5" />
<path d="M267.3,631.02L580.82,631.02" style="fill:none;stroke:#7F7F7F;stroke-dasharray:5,5" />
<path d="M544.07,653.76A6,6 0 1 1 532.07,653.76A6,6 0 1 1 544.07,653.76Z" style="fill:#7A5A29" />
<path d="M231.67,910.62L1033.3,910.62" style="fill:none;stroke:#000000" />
<path d="M1033.3,734.25L1033.3,910.62" style="fill:none;stroke:#000000" />
<path d="M538.07,175.74L538.07,653.76" style="fill:none;stroke:#7A5A29;stroke-width:4;stroke-dasharray:15,5" />
<path d="M267.3,653.76L538.07,653.76" style="fill:none;stroke:#7F7F7F;stroke-dasharray:5,5" />
<path d="M479.94,663.65A6,6 0 1 1 467.94,663.65A6,6 0 1 1 479.94,663.65Z" style="fill:#B78B59" />
<path d="M231.67,910.62L1033.3,910.62" style="fill:none;stroke:#000000" />
<path d="M1033.3,734.25L1033.3,910.62" style="fill:none;stroke:#000000" />
<path d="M473.94,175.74L473.94,663.65" style="fill:none;stroke:#B78B59;stroke-width:4;stroke-dasharray:15,5" />
<path d="M267.3,663.65L473.94,663.65" style="fill:none;stroke:#7F7F7F;stroke-dasharray:5,5" />
<path d="M440.75,690.25A6,6 0 1 1 428.75,690.25A6,6 0 1 1 440.75,690.25Z" style="fill:#162C5B" />
<path d="M231.67,910.62L1033.3,910.62" style="fill:none;stroke:#000000" />
<path d="M1033.3,734.25L1033.3,910.62" style="fill:none;stroke:#000000" />
<path d="M434.75,175.74L434.75,690.25" style="fill:none;stroke:#162C5B;stroke-width:4;stroke-dasharray:15,5" />
<path d="M267.3,690.25L434.75,690.25" style="fill:none;stroke:#7F7F7F;stroke-dasharray:5,5" />
<path d="M412.25,681.7A6,6 0 1 1 400.25,681.7A6,6 0 1 1 412.25,681.7Z" style="fill:#3B1142" />
<path d="M231.67,910.62L1033.3,910.62" style="fill:none;stroke:#000000" />
<path d="M1033.3,734.25L1033.3,910.62" style="fill:none;stroke:#000000" />
<path d="M406.25,175.74L406.25,681.7" style="fill:none;stroke:#3B1142;stroke-width:4;stroke-dasharray:15,5" />
<path d="M267.3,681.7L406.25,681.7" style="fill:none;stroke:#7F7F7F;stroke-dasharray:5,5" />
<path d="M376.62,692.28A6,6 0 1 1 364.62,692.28A6,6 0 1 1 376.62,692.28Z" style="fill:#126663" />
<path d="M231.67,910.62L1033.3,910.62" style="fill:none;stroke:#000000" />
<path d="M1033.3,734.25L1033.3,910.62" style="fill:none;stroke:#000000" />
<path d="M370.62,175.74L370.62,692.28" style="fill:none;stroke:#126663;stroke-width:4;stroke-dasharray:15,5" />
<path d="M267.3,692.28L370.62,692.28" style="fill:none;stroke:#7F7F7F;stroke-dasharray:5,5" />
<text x="780.95" y="-789.14" transform="scale(1, -1)"
	style="font-family:Helvetica;font-weight:normal;font-style:normal;font-size:56px">189 mW</text>
<text x="780.95" y="-730.27" transform="scale(1, -1)"
	style="font-family:Helvetica;font-weight:normal;font-style:normal;font-size:56px">178 mW</text>
<text x="780.95" y="-671.41" transform="scale(1, -1)"
	style="font-family:Helvetica;font-weight:normal;font-style:normal;font-size:56px">166 mW</text>
<text x="780.95" y="-612.55" transform="scale(1, -1)"
	style="font-family:Helvetica;font-weight:normal;font-style:normal;font-size:56px">154 mW</text>
<text x="780.95" y="-553.68" transform="scale(1, -1)"
	style="font-family:Helvetica;font-weight:normal;font-style:normal;font-size:56px">143 mW</text>
<text x="780.95" y="-494.82" transform="scale(1, -1)"
	style="font-family:Helvetica;font-weight:normal;font-style:normal;font-size:56px">134 mW</text>
<text x="780.95" y="-435.96" transform="scale(1, -1)"
	style="font-family:Helvetica;font-weight:normal;font-style:normal;font-size:56px">123 mW</text>
<text x="780.95" y="-377.09" transform="scale(1, -1)"
	style="font-family:Helvetica;font-weight:normal;font-style:normal;font-size:56px">106 mW</text>
<text x="812.09" y="-318.23" transform="scale(1, -1)"
	style="font-family:Helvetica;font-weight:normal;font-style:normal;font-size:56px">94 mW</text>
<text x="812.09" y="-259.37" transform="scale(1, -1)"
	style="font-family:Helvetica;font-weight:normal;font-style:normal;font-size:56px">84 mW</text>
<text x="812.09" y="-200.5" transform="scale(1, -1)"
	style="font-family:Helvetica;font-weight:normal;font-style:normal;font-size:56px">73 mW</text>
<text x="812.09" y="-141.64" transform="scale(1, -1)"
	style="font-family:Helvetica;font-weight:normal;font-style:normal;font-size:56px">61 mW</text>
<text x="812.09" y="-82.777" transform="scale(1, -1)"
	style="font-family:Helvetica;font-weight:normal;font-style:normal;font-size:56px">43 mW</text>
<text x="812.09" y="-23.914" transform="scale(1, -1)"
	style="font-family:Helvetica;font-weight:normal;font-style:normal;font-size:56px">32 mW</text>
<text x="812.09" y="34.949" transform="scale(1, -1)"
	style="font-family:Helvetica;font-weight:normal;font-style:normal;font-size:56px">24 mW</text>
<text x="812.09" y="93.812" transform="scale(1, -1)"
	style="font-family:Helvetica;font-weight:normal;font-style:normal;font-size:56px">14 mW</text>
</g>
</svg>
