<?xml version="1.0"?>
<!-- Generated by SVGo and Plotinum VG -->
<svg width="1080pt" height="1080pt" viewBox="0 0 1080 1080"
	xmlns="http://www.w3.org/2000/svg"
	xmlns:xlink="http://www.w3.org/1999/xlink">
<g transform="scale(1, -1) translate(0, -1080)">
<path d="M0,0L1080,0L1080,1080L0,1080Z" style="fill:#-8000000000000000-8000000000000000-8000000000000000;fill-opacity:0" />
<text x="307.93" y="-1039.5" transform="scale(1, -1)"
	style="font-family:Helvetica;font-weight:normal;font-style:normal;font-size:50px">0.0 no sample CABS</text>
<text x="465.06" y="-11.039" transform="scale(1, -1)"
	style="font-family:Helvetica;font-weight:normal;font-style:normal;font-size:36px">Frequency (GHz)</text>
<text x="118.96" y="-71.258" transform="scale(1, -1)"
	style="font-family:Helvetica;font-weight:normal;font-style:normal;font-size:36px">1</text>
<text x="549.98" y="-71.258" transform="scale(1, -1)"
	style="font-family:Helvetica;font-weight:normal;font-style:normal;font-size:36px">2</text>
<text x="981.01" y="-71.258" transform="scale(1, -1)"
	style="font-family:Helvetica;font-weight:normal;font-style:normal;font-size:36px">3</text>
<path d="M128.97,116.44L128.97,108.44" style="fill:none;stroke:#000000;stroke-width:1.5" />
<path d="M344.48,112.44L344.48,108.44" style="fill:none;stroke:#000000;stroke-width:1.5" />
<path d="M559.99,116.44L559.99,108.44" style="fill:none;stroke:#000000;stroke-width:1.5" />
<path d="M667.75,112.44L667.75,108.44" style="fill:none;stroke:#000000;stroke-width:1.5" />
<path d="M991.02,116.44L991.02,108.44" style="fill:none;stroke:#000000;stroke-width:1.5" />
<path d="M128.97,108.44L1077.2,108.44" style="fill:none;stroke:#000000;stroke-width:1.5" />
<g transform="rotate(90)">
<text x="369.17" y="29.18" transform="scale(1, -1)"
	style="font-family:Helvetica;font-weight:normal;font-style:normal;font-size:36px">Spectral Density (pV)</text>
</g>
<text x="87.869" y="-658.43" transform="scale(1, -1)"
	style="font-family:Helvetica;font-weight:normal;font-style:normal;font-size:36px">2</text>
<text x="87.869" y="-701.53" transform="scale(1, -1)"
	style="font-family:Helvetica;font-weight:normal;font-style:normal;font-size:36px">6</text>
<text x="67.848" y="-744.62" transform="scale(1, -1)"
	style="font-family:Helvetica;font-weight:normal;font-style:normal;font-size:36px">10</text>
<text x="67.848" y="-787.72" transform="scale(1, -1)"
	style="font-family:Helvetica;font-weight:normal;font-style:normal;font-size:36px">14</text>
<text x="67.848" y="-830.82" transform="scale(1, -1)"
	style="font-family:Helvetica;font-weight:normal;font-style:normal;font-size:36px">18</text>
<text x="67.848" y="-873.92" transform="scale(1, -1)"
	style="font-family:Helvetica;font-weight:normal;font-style:normal;font-size:36px">22</text>
<path d="M129.89,645.95L125.89,645.95" style="fill:none;stroke:#000000;stroke-width:1.5" />
<path d="M133.89,667.5L125.89,667.5" style="fill:none;stroke:#000000;stroke-width:1.5" />
<path d="M129.89,689.05L125.89,689.05" style="fill:none;stroke:#000000;stroke-width:1.5" />
<path d="M133.89,710.6L125.89,710.6" style="fill:none;stroke:#000000;stroke-width:1.5" />
<path d="M129.89,732.15L125.89,732.15" style="fill:none;stroke:#000000;stroke-width:1.5" />
<path d="M133.89,753.69L125.89,753.69" style="fill:none;stroke:#000000;stroke-width:1.5" />
<path d="M129.89,775.24L125.89,775.24" style="fill:none;stroke:#000000;stroke-width:1.5" />
<path d="M133.89,796.79L125.89,796.79" style="fill:none;stroke:#000000;stroke-width:1.5" />
<path d="M129.89,818.34L125.89,818.34" style="fill:none;stroke:#000000;stroke-width:1.5" />
<path d="M133.89,839.89L125.89,839.89" style="fill:none;stroke:#000000;stroke-width:1.5" />
<path d="M129.89,861.44L125.89,861.44" style="fill:none;stroke:#000000;stroke-width:1.5" />
<path d="M133.89,882.99L125.89,882.99" style="fill:none;stroke:#000000;stroke-width:1.5" />
<path d="M129.89,904.54L125.89,904.54" style="fill:none;stroke:#000000;stroke-width:1.5" />
<path d="M125.89,109.32L125.89,969.14" style="fill:none;stroke:#000000;stroke-width:1.5" />
<path d="M136.14,666.55A5,5 0 1 1 126.14,666.55A5,5 0 1 1 136.14,666.55Z" style="fill:#1FD3AC" />
<path d="M138.32,676.75A5,5 0 1 1 128.32,676.75A5,5 0 1 1 138.32,676.75Z" style="fill:#1FD3AC" />
<path d="M140.49,672.11A5,5 0 1 1 130.49,672.11A5,5 0 1 1 140.49,672.11Z" style="fill:#1FD3AC" />
<path d="M142.67,661.69A5,5 0 1 1 132.67,661.69A5,5 0 1 1 142.67,661.69Z" style="fill:#1FD3AC" />
<path d="M144.84,670.59A5,5 0 1 1 134.84,670.59A5,5 0 1 1 144.84,670.59Z" style="fill:#1FD3AC" />
<path d="M147.02,673.13A5,5 0 1 1 137.02,673.13A5,5 0 1 1 147.02,673.13Z" style="fill:#1FD3AC" />
<path d="M149.19,658.55A5,5 0 1 1 139.19,658.55A5,5 0 1 1 149.19,658.55Z" style="fill:#1FD3AC" />
<path d="M151.37,669.22A5,5 0 1 1 141.37,669.22A5,5 0 1 1 151.37,669.22Z" style="fill:#1FD3AC" />
<path d="M153.54,695.02A5,5 0 1 1 143.54,695.02A5,5 0 1 1 153.54,695.02Z" style="fill:#1FD3AC" />
<path d="M155.72,682.48A5,5 0 1 1 145.72,682.48A5,5 0 1 1 155.72,682.48Z" style="fill:#1FD3AC" />
<path d="M157.89,701.59A5,5 0 1 1 147.89,701.59A5,5 0 1 1 157.89,701.59Z" style="fill:#1FD3AC" />
<path d="M160.07,691.8A5,5 0 1 1 150.07,691.8A5,5 0 1 1 160.07,691.8Z" style="fill:#1FD3AC" />
<path d="M162.24,707.43A5,5 0 1 1 152.24,707.43A5,5 0 1 1 162.24,707.43Z" style="fill:#1FD3AC" />
<path d="M164.41,684.15A5,5 0 1 1 154.41,684.15A5,5 0 1 1 164.41,684.15Z" style="fill:#1FD3AC" />
<path d="M166.59,683.31A5,5 0 1 1 156.59,683.31A5,5 0 1 1 166.59,683.31Z" style="fill:#1FD3AC" />
<path d="M168.76,708.93A5,5 0 1 1 158.76,708.93A5,5 0 1 1 168.76,708.93Z" style="fill:#1FD3AC" />
<path d="M170.94,744.63A5,5 0 1 1 160.94,744.63A5,5 0 1 1 170.94,744.63Z" style="fill:#1FD3AC" />
<path d="M173.11,730.52A5,5 0 1 1 163.11,730.52A5,5 0 1 1 173.11,730.52Z" style="fill:#1FD3AC" />
<path d="M175.29,691.19A5,5 0 1 1 165.29,691.19A5,5 0 1 1 175.29,691.19Z" style="fill:#1FD3AC" />
<path d="M177.46,683.82A5,5 0 1 1 167.46,683.82A5,5 0 1 1 177.46,683.82Z" style="fill:#1FD3AC" />
<path d="M179.64,695.45A5,5 0 1 1 169.64,695.45A5,5 0 1 1 179.64,695.45Z" style="fill:#1FD3AC" />
<path d="M181.81,715.24A5,5 0 1 1 171.81,715.24A5,5 0 1 1 181.81,715.24Z" style="fill:#1FD3AC" />
<path d="M183.99,709.37A5,5 0 1 1 173.99,709.37A5,5 0 1 1 183.99,709.37Z" style="fill:#1FD3AC" />
<path d="M186.16,726.68A5,5 0 1 1 176.16,726.68A5,5 0 1 1 186.16,726.68Z" style="fill:#1FD3AC" />
<path d="M188.34,695.92A5,5 0 1 1 178.34,695.92A5,5 0 1 1 188.34,695.92Z" style="fill:#1FD3AC" />
<path d="M190.51,700.49A5,5 0 1 1 180.51,700.49A5,5 0 1 1 190.51,700.49Z" style="fill:#1FD3AC" />
<path d="M192.69,706.94A5,5 0 1 1 182.69,706.94A5,5 0 1 1 192.69,706.94Z" style="fill:#1FD3AC" />
<path d="M194.86,716.49A5,5 0 1 1 184.86,716.49A5,5 0 1 1 194.86,716.49Z" style="fill:#1FD3AC" />
<path d="M197.04,692.55A5,5 0 1 1 187.04,692.55A5,5 0 1 1 197.04,692.55Z" style="fill:#1FD3AC" />
<path d="M199.21,731.1A5,5 0 1 1 189.21,731.1A5,5 0 1 1 199.21,731.1Z" style="fill:#1FD3AC" />
<path d="M201.39,739.69A5,5 0 1 1 191.39,739.69A5,5 0 1 1 201.39,739.69Z" style="fill:#1FD3AC" />
<path d="M203.56,729.78A5,5 0 1 1 193.56,729.78A5,5 0 1 1 203.56,729.78Z" style="fill:#1FD3AC" />
<path d="M205.74,695.35A5,5 0 1 1 195.74,695.35A5,5 0 1 1 205.74,695.35Z" style="fill:#1FD3AC" />
<path d="M207.91,717.3A5,5 0 1 1 197.91,717.3A5,5 0 1 1 207.91,717.3Z" style="fill:#1FD3AC" />
<path d="M210.09,673.81A5,5 0 1 1 200.09,673.81A5,5 0 1 1 210.09,673.81Z" style="fill:#1FD3AC" />
<path d="M212.26,680.95A5,5 0 1 1 202.26,680.95A5,5 0 1 1 212.26,680.95Z" style="fill:#1FD3AC" />
<path d="M214.43,671.77A5,5 0 1 1 204.43,671.77A5,5 0 1 1 214.43,671.77Z" style="fill:#1FD3AC" />
<path d="M216.61,690.76A5,5 0 1 1 206.61,690.76A5,5 0 1 1 216.61,690.76Z" style="fill:#1FD3AC" />
<path d="M218.78,705.81A5,5 0 1 1 208.78,705.81A5,5 0 1 1 218.78,705.81Z" style="fill:#1FD3AC" />
<path d="M220.96,698.13A5,5 0 1 1 210.96,698.13A5,5 0 1 1 220.96,698.13Z" style="fill:#1FD3AC" />
<path d="M223.13,663.07A5,5 0 1 1 213.13,663.07A5,5 0 1 1 223.13,663.07Z" style="fill:#1FD3AC" />
<path d="M225.31,675.15A5,5 0 1 1 215.31,675.15A5,5 0 1 1 225.31,675.15Z" style="fill:#1FD3AC" />
<path d="M227.48,667.71A5,5 0 1 1 217.48,667.71A5,5 0 1 1 227.48,667.71Z" style="fill:#1FD3AC" />
<path d="M229.66,674.95A5,5 0 1 1 219.66,674.95A5,5 0 1 1 229.66,674.95Z" style="fill:#1FD3AC" />
<path d="M231.83,667.25A5,5 0 1 1 221.83,667.25A5,5 0 1 1 231.83,667.25Z" style="fill:#1FD3AC" />
<path d="M234.01,667.36A5,5 0 1 1 224.01,667.36A5,5 0 1 1 234.01,667.36Z" style="fill:#1FD3AC" />
<path d="M236.18,651.14A5,5 0 1 1 226.18,651.14A5,5 0 1 1 236.18,651.14Z" style="fill:#1FD3AC" />
<path d="M238.36,664.75A5,5 0 1 1 228.36,664.75A5,5 0 1 1 238.36,664.75Z" style="fill:#1FD3AC" />
<path d="M240.53,662.97A5,5 0 1 1 230.53,662.97A5,5 0 1 1 240.53,662.97Z" style="fill:#1FD3AC" />
<path d="M242.71,688.12A5,5 0 1 1 232.71,688.12A5,5 0 1 1 242.71,688.12Z" style="fill:#1FD3AC" />
<path d="M244.88,673.32A5,5 0 1 1 234.88,673.32A5,5 0 1 1 244.88,673.32Z" style="fill:#1FD3AC" />
<path d="M247.06,669.81A5,5 0 1 1 237.06,669.81A5,5 0 1 1 247.06,669.81Z" style="fill:#1FD3AC" />
<path d="M249.23,660.82A5,5 0 1 1 239.23,660.82A5,5 0 1 1 249.23,660.82Z" style="fill:#1FD3AC" />
<path d="M251.41,647.88A5,5 0 1 1 241.41,647.88A5,5 0 1 1 251.41,647.88Z" style="fill:#1FD3AC" />
<path d="M253.58,666.03A5,5 0 1 1 243.58,666.03A5,5 0 1 1 253.58,666.03Z" style="fill:#1FD3AC" />
<path d="M255.76,672.17A5,5 0 1 1 245.76,672.17A5,5 0 1 1 255.76,672.17Z" style="fill:#1FD3AC" />
<path d="M257.93,672.67A5,5 0 1 1 247.93,672.67A5,5 0 1 1 257.93,672.67Z" style="fill:#1FD3AC" />
<path d="M260.11,679.88A5,5 0 1 1 250.11,679.88A5,5 0 1 1 260.11,679.88Z" style="fill:#1FD3AC" />
<path d="M262.28,669.17A5,5 0 1 1 252.28,669.17A5,5 0 1 1 262.28,669.17Z" style="fill:#1FD3AC" />
<path d="M264.45,668.81A5,5 0 1 1 254.45,668.81A5,5 0 1 1 264.45,668.81Z" style="fill:#1FD3AC" />
<path d="M266.63,677.75A5,5 0 1 1 256.63,677.75A5,5 0 1 1 266.63,677.75Z" style="fill:#1FD3AC" />
<path d="M268.8,687.79A5,5 0 1 1 258.8,687.79A5,5 0 1 1 268.8,687.79Z" style="fill:#1FD3AC" />
<path d="M270.98,681.37A5,5 0 1 1 260.98,681.37A5,5 0 1 1 270.98,681.37Z" style="fill:#1FD3AC" />
<path d="M273.15,681.48A5,5 0 1 1 263.15,681.48A5,5 0 1 1 273.15,681.48Z" style="fill:#1FD3AC" />
<path d="M275.33,673.86A5,5 0 1 1 265.33,673.86A5,5 0 1 1 275.33,673.86Z" style="fill:#1FD3AC" />
<path d="M277.5,655.37A5,5 0 1 1 267.5,655.37A5,5 0 1 1 277.5,655.37Z" style="fill:#1FD3AC" />
<path d="M279.68,676.28A5,5 0 1 1 269.68,676.28A5,5 0 1 1 279.68,676.28Z" style="fill:#1FD3AC" />
<path d="M281.85,679.65A5,5 0 1 1 271.85,679.65A5,5 0 1 1 281.85,679.65Z" style="fill:#1FD3AC" />
<path d="M284.03,685.91A5,5 0 1 1 274.03,685.91A5,5 0 1 1 284.03,685.91Z" style="fill:#1FD3AC" />
<path d="M286.2,696.46A5,5 0 1 1 276.2,696.46A5,5 0 1 1 286.2,696.46Z" style="fill:#1FD3AC" />
<path d="M288.38,683.29A5,5 0 1 1 278.38,683.29A5,5 0 1 1 288.38,683.29Z" style="fill:#1FD3AC" />
<path d="M290.55,685.58A5,5 0 1 1 280.55,685.58A5,5 0 1 1 290.55,685.58Z" style="fill:#1FD3AC" />
<path d="M292.73,670.74A5,5 0 1 1 282.73,670.74A5,5 0 1 1 292.73,670.74Z" style="fill:#1FD3AC" />
<path d="M294.9,676.03A5,5 0 1 1 284.9,676.03A5,5 0 1 1 294.9,676.03Z" style="fill:#1FD3AC" />
<path d="M297.08,675.75A5,5 0 1 1 287.08,675.75A5,5 0 1 1 297.08,675.75Z" style="fill:#1FD3AC" />
<path d="M299.25,685.74A5,5 0 1 1 289.25,685.74A5,5 0 1 1 299.25,685.74Z" style="fill:#1FD3AC" />
<path d="M301.43,683.08A5,5 0 1 1 291.43,683.08A5,5 0 1 1 301.43,683.08Z" style="fill:#1FD3AC" />
<path d="M303.6,705.97A5,5 0 1 1 293.6,705.97A5,5 0 1 1 303.6,705.97Z" style="fill:#1FD3AC" />
<path d="M305.78,699.47A5,5 0 1 1 295.78,699.47A5,5 0 1 1 305.78,699.47Z" style="fill:#1FD3AC" />
<path d="M307.95,678.67A5,5 0 1 1 297.95,678.67A5,5 0 1 1 307.95,678.67Z" style="fill:#1FD3AC" />
<path d="M310.13,686.04A5,5 0 1 1 300.13,686.04A5,5 0 1 1 310.13,686.04Z" style="fill:#1FD3AC" />
<path d="M312.3,702.21A5,5 0 1 1 302.3,702.21A5,5 0 1 1 312.3,702.21Z" style="fill:#1FD3AC" />
<path d="M314.48,703.91A5,5 0 1 1 304.48,703.91A5,5 0 1 1 314.48,703.91Z" style="fill:#1FD3AC" />
<path d="M316.65,712.65A5,5 0 1 1 306.65,712.65A5,5 0 1 1 316.65,712.65Z" style="fill:#1FD3AC" />
<path d="M318.82,708.35A5,5 0 1 1 308.82,708.35A5,5 0 1 1 318.82,708.35Z" style="fill:#1FD3AC" />
<path d="M321,703.32A5,5 0 1 1 311,703.32A5,5 0 1 1 321,703.32Z" style="fill:#1FD3AC" />
<path d="M323.17,723.4A5,5 0 1 1 313.17,723.4A5,5 0 1 1 323.17,723.4Z" style="fill:#1FD3AC" />
<path d="M325.35,717.74A5,5 0 1 1 315.35,717.74A5,5 0 1 1 325.35,717.74Z" style="fill:#1FD3AC" />
<path d="M327.52,711.38A5,5 0 1 1 317.52,711.38A5,5 0 1 1 327.52,711.38Z" style="fill:#1FD3AC" />
<path d="M329.7,717.86A5,5 0 1 1 319.7,717.86A5,5 0 1 1 329.7,717.86Z" style="fill:#1FD3AC" />
<path d="M331.87,727.4A5,5 0 1 1 321.87,727.4A5,5 0 1 1 331.87,727.4Z" style="fill:#1FD3AC" />
<path d="M334.05,698.08A5,5 0 1 1 324.05,698.08A5,5 0 1 1 334.05,698.08Z" style="fill:#1FD3AC" />
<path d="M336.22,708.2A5,5 0 1 1 326.22,708.2A5,5 0 1 1 336.22,708.2Z" style="fill:#1FD3AC" />
<path d="M338.4,721.58A5,5 0 1 1 328.4,721.58A5,5 0 1 1 338.4,721.58Z" style="fill:#1FD3AC" />
<path d="M340.57,714.63A5,5 0 1 1 330.57,714.63A5,5 0 1 1 340.57,714.63Z" style="fill:#1FD3AC" />
<path d="M342.75,712.83A5,5 0 1 1 332.75,712.83A5,5 0 1 1 342.75,712.83Z" style="fill:#1FD3AC" />
<path d="M344.92,719.77A5,5 0 1 1 334.92,719.77A5,5 0 1 1 344.92,719.77Z" style="fill:#1FD3AC" />
<path d="M347.1,734.9A5,5 0 1 1 337.1,734.9A5,5 0 1 1 347.1,734.9Z" style="fill:#1FD3AC" />
<path d="M349.27,714.14A5,5 0 1 1 339.27,714.14A5,5 0 1 1 349.27,714.14Z" style="fill:#1FD3AC" />
<path d="M351.45,743.18A5,5 0 1 1 341.45,743.18A5,5 0 1 1 351.45,743.18Z" style="fill:#1FD3AC" />
<path d="M353.62,715.05A5,5 0 1 1 343.62,715.05A5,5 0 1 1 353.62,715.05Z" style="fill:#1FD3AC" />
<path d="M355.8,695.47A5,5 0 1 1 345.8,695.47A5,5 0 1 1 355.8,695.47Z" style="fill:#1FD3AC" />
<path d="M357.97,718.63A5,5 0 1 1 347.97,718.63A5,5 0 1 1 357.97,718.63Z" style="fill:#1FD3AC" />
<path d="M360.15,716.77A5,5 0 1 1 350.15,716.77A5,5 0 1 1 360.15,716.77Z" style="fill:#1FD3AC" />
<path d="M362.32,717.51A5,5 0 1 1 352.32,717.51A5,5 0 1 1 362.32,717.51Z" style="fill:#1FD3AC" />
<path d="M364.5,747.46A5,5 0 1 1 354.5,747.46A5,5 0 1 1 364.5,747.46Z" style="fill:#1FD3AC" />
<path d="M366.67,735.08A5,5 0 1 1 356.67,735.08A5,5 0 1 1 366.67,735.08Z" style="fill:#1FD3AC" />
<path d="M368.84,731.54A5,5 0 1 1 358.84,731.54A5,5 0 1 1 368.84,731.54Z" style="fill:#1FD3AC" />
<path d="M371.02,752.83A5,5 0 1 1 361.02,752.83A5,5 0 1 1 371.02,752.83Z" style="fill:#1FD3AC" />
<path d="M373.19,728.59A5,5 0 1 1 363.19,728.59A5,5 0 1 1 373.19,728.59Z" style="fill:#1FD3AC" />
<path d="M375.37,705.13A5,5 0 1 1 365.37,705.13A5,5 0 1 1 375.37,705.13Z" style="fill:#1FD3AC" />
<path d="M377.54,715.68A5,5 0 1 1 367.54,715.68A5,5 0 1 1 377.54,715.68Z" style="fill:#1FD3AC" />
<path d="M379.72,712.06A5,5 0 1 1 369.72,712.06A5,5 0 1 1 379.72,712.06Z" style="fill:#1FD3AC" />
<path d="M381.89,728.69A5,5 0 1 1 371.89,728.69A5,5 0 1 1 381.89,728.69Z" style="fill:#1FD3AC" />
<path d="M384.07,735.32A5,5 0 1 1 374.07,735.32A5,5 0 1 1 384.07,735.32Z" style="fill:#1FD3AC" />
<path d="M386.24,737.84A5,5 0 1 1 376.24,737.84A5,5 0 1 1 386.24,737.84Z" style="fill:#1FD3AC" />
<path d="M388.42,721.71A5,5 0 1 1 378.42,721.71A5,5 0 1 1 388.42,721.71Z" style="fill:#1FD3AC" />
<path d="M390.59,730.2A5,5 0 1 1 380.59,730.2A5,5 0 1 1 390.59,730.2Z" style="fill:#1FD3AC" />
<path d="M392.77,715.21A5,5 0 1 1 382.77,715.21A5,5 0 1 1 392.77,715.21Z" style="fill:#1FD3AC" />
<path d="M394.94,720.32A5,5 0 1 1 384.94,720.32A5,5 0 1 1 394.94,720.32Z" style="fill:#1FD3AC" />
<path d="M397.12,720.09A5,5 0 1 1 387.12,720.09A5,5 0 1 1 397.12,720.09Z" style="fill:#1FD3AC" />
<path d="M399.29,686.39A5,5 0 1 1 389.29,686.39A5,5 0 1 1 399.29,686.39Z" style="fill:#1FD3AC" />
<path d="M401.47,685.65A5,5 0 1 1 391.47,685.65A5,5 0 1 1 401.47,685.65Z" style="fill:#1FD3AC" />
<path d="M403.64,677.04A5,5 0 1 1 393.64,677.04A5,5 0 1 1 403.64,677.04Z" style="fill:#1FD3AC" />
<path d="M405.82,690.16A5,5 0 1 1 395.82,690.16A5,5 0 1 1 405.82,690.16Z" style="fill:#1FD3AC" />
<path d="M407.99,680.4A5,5 0 1 1 397.99,680.4A5,5 0 1 1 407.99,680.4Z" style="fill:#1FD3AC" />
<path d="M410.17,662.92A5,5 0 1 1 400.17,662.92A5,5 0 1 1 410.17,662.92Z" style="fill:#1FD3AC" />
<path d="M412.34,654.85A5,5 0 1 1 402.34,654.85A5,5 0 1 1 412.34,654.85Z" style="fill:#1FD3AC" />
<path d="M414.52,651.85A5,5 0 1 1 404.52,651.85A5,5 0 1 1 414.52,651.85Z" style="fill:#1FD3AC" />
<path d="M416.69,653.17A5,5 0 1 1 406.69,653.17A5,5 0 1 1 416.69,653.17Z" style="fill:#1FD3AC" />
<path d="M418.86,645.9A5,5 0 1 1 408.86,645.9A5,5 0 1 1 418.86,645.9Z" style="fill:#1FD3AC" />
<path d="M421.04,663.61A5,5 0 1 1 411.04,663.61A5,5 0 1 1 421.04,663.61Z" style="fill:#1FD3AC" />
<path d="M423.21,650.81A5,5 0 1 1 413.21,650.81A5,5 0 1 1 423.21,650.81Z" style="fill:#1FD3AC" />
<path d="M425.39,644.36A5,5 0 1 1 415.39,644.36A5,5 0 1 1 425.39,644.36Z" style="fill:#1FD3AC" />
<path d="M427.56,761.53A5,5 0 1 1 417.56,761.53A5,5 0 1 1 427.56,761.53Z" style="fill:#1FD3AC" />
<path d="M429.74,673.72A5,5 0 1 1 419.74,673.72A5,5 0 1 1 429.74,673.72Z" style="fill:#1FD3AC" />
<path d="M431.91,659.83A5,5 0 1 1 421.91,659.83A5,5 0 1 1 431.91,659.83Z" style="fill:#1FD3AC" />
<path d="M434.09,602.28A5,5 0 1 1 424.09,602.28A5,5 0 1 1 434.09,602.28Z" style="fill:#1FD3AC" />
<path d="M436.26,698.89A5,5 0 1 1 426.26,698.89A5,5 0 1 1 436.26,698.89Z" style="fill:#1FD3AC" />
<path d="M438.44,674.79A5,5 0 1 1 428.44,674.79A5,5 0 1 1 438.44,674.79Z" style="fill:#1FD3AC" />
<path d="M440.61,682.61A5,5 0 1 1 430.61,682.61A5,5 0 1 1 440.61,682.61Z" style="fill:#1FD3AC" />
<path d="M442.79,669.49A5,5 0 1 1 432.79,669.49A5,5 0 1 1 442.79,669.49Z" style="fill:#1FD3AC" />
<path d="M444.96,648.24A5,5 0 1 1 434.96,648.24A5,5 0 1 1 444.96,648.24Z" style="fill:#1FD3AC" />
<path d="M447.14,660.2A5,5 0 1 1 437.14,660.2A5,5 0 1 1 447.14,660.2Z" style="fill:#1FD3AC" />
<path d="M449.31,656.47A5,5 0 1 1 439.31,656.47A5,5 0 1 1 449.31,656.47Z" style="fill:#1FD3AC" />
<path d="M451.49,660.41A5,5 0 1 1 441.49,660.41A5,5 0 1 1 451.49,660.41Z" style="fill:#1FD3AC" />
<path d="M453.66,665.42A5,5 0 1 1 443.66,665.42A5,5 0 1 1 453.66,665.42Z" style="fill:#1FD3AC" />
<path d="M455.84,663.35A5,5 0 1 1 445.84,663.35A5,5 0 1 1 455.84,663.35Z" style="fill:#1FD3AC" />
<path d="M458.01,665.18A5,5 0 1 1 448.01,665.18A5,5 0 1 1 458.01,665.18Z" style="fill:#1FD3AC" />
<path d="M460.19,644.74A5,5 0 1 1 450.19,644.74A5,5 0 1 1 460.19,644.74Z" style="fill:#1FD3AC" />
<path d="M462.36,659.53A5,5 0 1 1 452.36,659.53A5,5 0 1 1 462.36,659.53Z" style="fill:#1FD3AC" />
<path d="M464.54,664.86A5,5 0 1 1 454.54,664.86A5,5 0 1 1 464.54,664.86Z" style="fill:#1FD3AC" />
<path d="M466.71,669.47A5,5 0 1 1 456.71,669.47A5,5 0 1 1 466.71,669.47Z" style="fill:#1FD3AC" />
<path d="M468.88,677.44A5,5 0 1 1 458.88,677.44A5,5 0 1 1 468.88,677.44Z" style="fill:#1FD3AC" />
<path d="M471.06,662.13A5,5 0 1 1 461.06,662.13A5,5 0 1 1 471.06,662.13Z" style="fill:#1FD3AC" />
<path d="M473.23,661.95A5,5 0 1 1 463.23,661.95A5,5 0 1 1 473.23,661.95Z" style="fill:#1FD3AC" />
<path d="M475.41,660.89A5,5 0 1 1 465.41,660.89A5,5 0 1 1 475.41,660.89Z" style="fill:#1FD3AC" />
<path d="M477.58,660.67A5,5 0 1 1 467.58,660.67A5,5 0 1 1 477.58,660.67Z" style="fill:#1FD3AC" />
<path d="M479.76,661.47A5,5 0 1 1 469.76,661.47A5,5 0 1 1 479.76,661.47Z" style="fill:#1FD3AC" />
<path d="M481.93,666.02A5,5 0 1 1 471.93,666.02A5,5 0 1 1 481.93,666.02Z" style="fill:#1FD3AC" />
<path d="M484.11,692.61A5,5 0 1 1 474.11,692.61A5,5 0 1 1 484.11,692.61Z" style="fill:#1FD3AC" />
<path d="M486.28,697.28A5,5 0 1 1 476.28,697.28A5,5 0 1 1 486.28,697.28Z" style="fill:#1FD3AC" />
<path d="M488.46,694.78A5,5 0 1 1 478.46,694.78A5,5 0 1 1 488.46,694.78Z" style="fill:#1FD3AC" />
<path d="M490.63,692.72A5,5 0 1 1 480.63,692.72A5,5 0 1 1 490.63,692.72Z" style="fill:#1FD3AC" />
<path d="M492.81,682.66A5,5 0 1 1 482.81,682.66A5,5 0 1 1 492.81,682.66Z" style="fill:#1FD3AC" />
<path d="M494.98,682.04A5,5 0 1 1 484.98,682.04A5,5 0 1 1 494.98,682.04Z" style="fill:#1FD3AC" />
<path d="M497.16,681.13A5,5 0 1 1 487.16,681.13A5,5 0 1 1 497.16,681.13Z" style="fill:#1FD3AC" />
<path d="M499.33,688.42A5,5 0 1 1 489.33,688.42A5,5 0 1 1 499.33,688.42Z" style="fill:#1FD3AC" />
<path d="M501.51,704.09A5,5 0 1 1 491.51,704.09A5,5 0 1 1 501.51,704.09Z" style="fill:#1FD3AC" />
<path d="M503.68,701.6A5,5 0 1 1 493.68,701.6A5,5 0 1 1 503.68,701.6Z" style="fill:#1FD3AC" />
<path d="M505.86,703.21A5,5 0 1 1 495.86,703.21A5,5 0 1 1 505.86,703.21Z" style="fill:#1FD3AC" />
<path d="M508.03,698.87A5,5 0 1 1 498.03,698.87A5,5 0 1 1 508.03,698.87Z" style="fill:#1FD3AC" />
<path d="M510.21,682.8A5,5 0 1 1 500.21,682.8A5,5 0 1 1 510.21,682.8Z" style="fill:#1FD3AC" />
<path d="M512.38,685.88A5,5 0 1 1 502.38,685.88A5,5 0 1 1 512.38,685.88Z" style="fill:#1FD3AC" />
<path d="M514.56,694.71A5,5 0 1 1 504.56,694.71A5,5 0 1 1 514.56,694.71Z" style="fill:#1FD3AC" />
<path d="M516.73,690.12A5,5 0 1 1 506.73,690.12A5,5 0 1 1 516.73,690.12Z" style="fill:#1FD3AC" />
<path d="M518.91,687.38A5,5 0 1 1 508.91,687.38A5,5 0 1 1 518.91,687.38Z" style="fill:#1FD3AC" />
<path d="M521.08,701.8A5,5 0 1 1 511.08,701.8A5,5 0 1 1 521.08,701.8Z" style="fill:#1FD3AC" />
<path d="M523.25,688.19A5,5 0 1 1 513.25,688.19A5,5 0 1 1 523.25,688.19Z" style="fill:#1FD3AC" />
<path d="M525.43,708.27A5,5 0 1 1 515.43,708.27A5,5 0 1 1 525.43,708.27Z" style="fill:#1FD3AC" />
<path d="M527.6,712.79A5,5 0 1 1 517.6,712.79A5,5 0 1 1 527.6,712.79Z" style="fill:#1FD3AC" />
<path d="M529.78,721.93A5,5 0 1 1 519.78,721.93A5,5 0 1 1 529.78,721.93Z" style="fill:#1FD3AC" />
<path d="M531.95,711.64A5,5 0 1 1 521.95,711.64A5,5 0 1 1 531.95,711.64Z" style="fill:#1FD3AC" />
<path d="M534.13,706.83A5,5 0 1 1 524.13,706.83A5,5 0 1 1 534.13,706.83Z" style="fill:#1FD3AC" />
<path d="M536.3,716.54A5,5 0 1 1 526.3,716.54A5,5 0 1 1 536.3,716.54Z" style="fill:#1FD3AC" />
<path d="M538.48,712.9A5,5 0 1 1 528.48,712.9A5,5 0 1 1 538.48,712.9Z" style="fill:#1FD3AC" />
<path d="M540.65,690.57A5,5 0 1 1 530.65,690.57A5,5 0 1 1 540.65,690.57Z" style="fill:#1FD3AC" />
<path d="M542.83,692.19A5,5 0 1 1 532.83,692.19A5,5 0 1 1 542.83,692.19Z" style="fill:#1FD3AC" />
<path d="M545,693.14A5,5 0 1 1 535,693.14A5,5 0 1 1 545,693.14Z" style="fill:#1FD3AC" />
<path d="M547.18,696.99A5,5 0 1 1 537.18,696.99A5,5 0 1 1 547.18,696.99Z" style="fill:#1FD3AC" />
<path d="M549.35,677.01A5,5 0 1 1 539.35,677.01A5,5 0 1 1 549.35,677.01Z" style="fill:#1FD3AC" />
<path d="M551.53,690.26A5,5 0 1 1 541.53,690.26A5,5 0 1 1 551.53,690.26Z" style="fill:#1FD3AC" />
<path d="M553.7,696.65A5,5 0 1 1 543.7,696.65A5,5 0 1 1 553.7,696.65Z" style="fill:#1FD3AC" />
<path d="M555.88,686.29A5,5 0 1 1 545.88,686.29A5,5 0 1 1 555.88,686.29Z" style="fill:#1FD3AC" />
<path d="M558.05,717.88A5,5 0 1 1 548.05,717.88A5,5 0 1 1 558.05,717.88Z" style="fill:#1FD3AC" />
<path d="M560.23,702.93A5,5 0 1 1 550.23,702.93A5,5 0 1 1 560.23,702.93Z" style="fill:#1FD3AC" />
<path d="M562.4,725.83A5,5 0 1 1 552.4,725.83A5,5 0 1 1 562.4,725.83Z" style="fill:#1FD3AC" />
<path d="M564.58,718.64A5,5 0 1 1 554.58,718.64A5,5 0 1 1 564.58,718.64Z" style="fill:#1FD3AC" />
<path d="M566.75,706.11A5,5 0 1 1 556.75,706.11A5,5 0 1 1 566.75,706.11Z" style="fill:#1FD3AC" />
<path d="M568.93,711.46A5,5 0 1 1 558.93,711.46A5,5 0 1 1 568.93,711.46Z" style="fill:#1FD3AC" />
<path d="M571.1,969.14A5,5 0 1 1 561.1,969.14A5,5 0 1 1 571.1,969.14Z" style="fill:#1FD3AC" />
<path d="M573.27,827.58A5,5 0 1 1 563.27,827.58A5,5 0 1 1 573.27,827.58Z" style="fill:#1FD3AC" />
<path d="M575.45,750.89A5,5 0 1 1 565.45,750.89A5,5 0 1 1 575.45,750.89Z" style="fill:#1FD3AC" />
<path d="M577.62,702.38A5,5 0 1 1 567.62,702.38A5,5 0 1 1 577.62,702.38Z" style="fill:#1FD3AC" />
<path d="M579.8,109.32A5,5 0 1 1 569.8,109.32A5,5 0 1 1 579.8,109.32Z" style="fill:#1FD3AC" />
<path d="M581.97,742.35A5,5 0 1 1 571.97,742.35A5,5 0 1 1 581.97,742.35Z" style="fill:#1FD3AC" />
<path d="M584.15,724.27A5,5 0 1 1 574.15,724.27A5,5 0 1 1 584.15,724.27Z" style="fill:#1FD3AC" />
<path d="M586.32,703.28A5,5 0 1 1 576.32,703.28A5,5 0 1 1 586.32,703.28Z" style="fill:#1FD3AC" />
<path d="M588.5,711.33A5,5 0 1 1 578.5,711.33A5,5 0 1 1 588.5,711.33Z" style="fill:#1FD3AC" />
<path d="M590.67,720.94A5,5 0 1 1 580.67,720.94A5,5 0 1 1 590.67,720.94Z" style="fill:#1FD3AC" />
<path d="M592.85,749.16A5,5 0 1 1 582.85,749.16A5,5 0 1 1 592.85,749.16Z" style="fill:#1FD3AC" />
<path d="M595.02,704.37A5,5 0 1 1 585.02,704.37A5,5 0 1 1 595.02,704.37Z" style="fill:#1FD3AC" />
<path d="M597.2,747.2A5,5 0 1 1 587.2,747.2A5,5 0 1 1 597.2,747.2Z" style="fill:#1FD3AC" />
<path d="M599.37,760.12A5,5 0 1 1 589.37,760.12A5,5 0 1 1 599.37,760.12Z" style="fill:#1FD3AC" />
<path d="M601.55,811.01A5,5 0 1 1 591.55,811.01A5,5 0 1 1 601.55,811.01Z" style="fill:#1FD3AC" />
<path d="M603.72,760.58A5,5 0 1 1 593.72,760.58A5,5 0 1 1 603.72,760.58Z" style="fill:#1FD3AC" />
<path d="M605.9,722.77A5,5 0 1 1 595.9,722.77A5,5 0 1 1 605.9,722.77Z" style="fill:#1FD3AC" />
<path d="M608.07,767.24A5,5 0 1 1 598.07,767.24A5,5 0 1 1 608.07,767.24Z" style="fill:#1FD3AC" />
<path d="M610.25,809.39A5,5 0 1 1 600.25,809.39A5,5 0 1 1 610.25,809.39Z" style="fill:#1FD3AC" />
<path d="M612.42,767.3A5,5 0 1 1 602.42,767.3A5,5 0 1 1 612.42,767.3Z" style="fill:#1FD3AC" />
<path d="M614.6,733.42A5,5 0 1 1 604.6,733.42A5,5 0 1 1 614.6,733.42Z" style="fill:#1FD3AC" />
<path d="M616.77,722.67A5,5 0 1 1 606.77,722.67A5,5 0 1 1 616.77,722.67Z" style="fill:#1FD3AC" />
<path d="M618.95,736.36A5,5 0 1 1 608.95,736.36A5,5 0 1 1 618.95,736.36Z" style="fill:#1FD3AC" />
<path d="M621.12,727.63A5,5 0 1 1 611.12,727.63A5,5 0 1 1 621.12,727.63Z" style="fill:#1FD3AC" />
<path d="M623.29,737.78A5,5 0 1 1 613.29,737.78A5,5 0 1 1 623.29,737.78Z" style="fill:#1FD3AC" />
<path d="M625.47,703.33A5,5 0 1 1 615.47,703.33A5,5 0 1 1 625.47,703.33Z" style="fill:#1FD3AC" />
<path d="M627.64,706.29A5,5 0 1 1 617.64,706.29A5,5 0 1 1 627.64,706.29Z" style="fill:#1FD3AC" />
<path d="M629.82,669.31A5,5 0 1 1 619.82,669.31A5,5 0 1 1 629.82,669.31Z" style="fill:#1FD3AC" />
<path d="M631.99,712.69A5,5 0 1 1 621.99,712.69A5,5 0 1 1 631.99,712.69Z" style="fill:#1FD3AC" />
<path d="M634.17,704.11A5,5 0 1 1 624.17,704.11A5,5 0 1 1 634.17,704.11Z" style="fill:#1FD3AC" />
<path d="M636.34,705.72A5,5 0 1 1 626.34,705.72A5,5 0 1 1 636.34,705.72Z" style="fill:#1FD3AC" />
<path d="M638.52,700.2A5,5 0 1 1 628.52,700.2A5,5 0 1 1 638.52,700.2Z" style="fill:#1FD3AC" />
<path d="M640.69,689.91A5,5 0 1 1 630.69,689.91A5,5 0 1 1 640.69,689.91Z" style="fill:#1FD3AC" />
<path d="M642.87,689.74A5,5 0 1 1 632.87,689.74A5,5 0 1 1 642.87,689.74Z" style="fill:#1FD3AC" />
<path d="M645.04,665.27A5,5 0 1 1 635.04,665.27A5,5 0 1 1 645.04,665.27Z" style="fill:#1FD3AC" />
<path d="M647.22,671.78A5,5 0 1 1 637.22,671.78A5,5 0 1 1 647.22,671.78Z" style="fill:#1FD3AC" />
<path d="M649.39,668.96A5,5 0 1 1 639.39,668.96A5,5 0 1 1 649.39,668.96Z" style="fill:#1FD3AC" />
<path d="M651.57,673.82A5,5 0 1 1 641.57,673.82A5,5 0 1 1 651.57,673.82Z" style="fill:#1FD3AC" />
<path d="M653.74,688.77A5,5 0 1 1 643.74,688.77A5,5 0 1 1 653.74,688.77Z" style="fill:#1FD3AC" />
<path d="M655.92,674.08A5,5 0 1 1 645.92,674.08A5,5 0 1 1 655.92,674.08Z" style="fill:#1FD3AC" />
<path d="M658.09,667.57A5,5 0 1 1 648.09,667.57A5,5 0 1 1 658.09,667.57Z" style="fill:#1FD3AC" />
<path d="M660.27,668.5A5,5 0 1 1 650.27,668.5A5,5 0 1 1 660.27,668.5Z" style="fill:#1FD3AC" />
<path d="M662.44,676.85A5,5 0 1 1 652.44,676.85A5,5 0 1 1 662.44,676.85Z" style="fill:#1FD3AC" />
<path d="M664.62,676.85A5,5 0 1 1 654.62,676.85A5,5 0 1 1 664.62,676.85Z" style="fill:#1FD3AC" />
<path d="M666.79,672.32A5,5 0 1 1 656.79,672.32A5,5 0 1 1 666.79,672.32Z" style="fill:#1FD3AC" />
<path d="M668.97,704.67A5,5 0 1 1 658.97,704.67A5,5 0 1 1 668.97,704.67Z" style="fill:#1FD3AC" />
<path d="M671.14,690.53A5,5 0 1 1 661.14,690.53A5,5 0 1 1 671.14,690.53Z" style="fill:#1FD3AC" />
<path d="M673.31,700.81A5,5 0 1 1 663.31,700.81A5,5 0 1 1 673.31,700.81Z" style="fill:#1FD3AC" />
<path d="M675.49,688.4A5,5 0 1 1 665.49,688.4A5,5 0 1 1 675.49,688.4Z" style="fill:#1FD3AC" />
<path d="M677.66,679.16A5,5 0 1 1 667.66,679.16A5,5 0 1 1 677.66,679.16Z" style="fill:#1FD3AC" />
<path d="M679.84,668.36A5,5 0 1 1 669.84,668.36A5,5 0 1 1 679.84,668.36Z" style="fill:#1FD3AC" />
<path d="M682.01,680.26A5,5 0 1 1 672.01,680.26A5,5 0 1 1 682.01,680.26Z" style="fill:#1FD3AC" />
<path d="M684.19,659.77A5,5 0 1 1 674.19,659.77A5,5 0 1 1 684.19,659.77Z" style="fill:#1FD3AC" />
<path d="M686.36,670.67A5,5 0 1 1 676.36,670.67A5,5 0 1 1 686.36,670.67Z" style="fill:#1FD3AC" />
<path d="M688.54,674.72A5,5 0 1 1 678.54,674.72A5,5 0 1 1 688.54,674.72Z" style="fill:#1FD3AC" />
<path d="M690.71,665.16A5,5 0 1 1 680.71,665.16A5,5 0 1 1 690.71,665.16Z" style="fill:#1FD3AC" />
<path d="M692.89,686.54A5,5 0 1 1 682.89,686.54A5,5 0 1 1 692.89,686.54Z" style="fill:#1FD3AC" />
<path d="M695.06,685.09A5,5 0 1 1 685.06,685.09A5,5 0 1 1 695.06,685.09Z" style="fill:#1FD3AC" />
<path d="M697.24,675.22A5,5 0 1 1 687.24,675.22A5,5 0 1 1 697.24,675.22Z" style="fill:#1FD3AC" />
<path d="M699.41,711.99A5,5 0 1 1 689.41,711.99A5,5 0 1 1 699.41,711.99Z" style="fill:#1FD3AC" />
<path d="M701.59,711.54A5,5 0 1 1 691.59,711.54A5,5 0 1 1 701.59,711.54Z" style="fill:#1FD3AC" />
<path d="M703.76,717.12A5,5 0 1 1 693.76,717.12A5,5 0 1 1 703.76,717.12Z" style="fill:#1FD3AC" />
<path d="M705.94,726.68A5,5 0 1 1 695.94,726.68A5,5 0 1 1 705.94,726.68Z" style="fill:#1FD3AC" />
<path d="M708.11,697.38A5,5 0 1 1 698.11,697.38A5,5 0 1 1 708.11,697.38Z" style="fill:#1FD3AC" />
<path d="M710.29,738.14A5,5 0 1 1 700.29,738.14A5,5 0 1 1 710.29,738.14Z" style="fill:#1FD3AC" />
<path d="M712.46,676.87A5,5 0 1 1 702.46,676.87A5,5 0 1 1 712.46,676.87Z" style="fill:#1FD3AC" />
<path d="M714.64,701.7A5,5 0 1 1 704.64,701.7A5,5 0 1 1 714.64,701.7Z" style="fill:#1FD3AC" />
<path d="M716.81,706.52A5,5 0 1 1 706.81,706.52A5,5 0 1 1 716.81,706.52Z" style="fill:#1FD3AC" />
<path d="M718.99,704.94A5,5 0 1 1 708.99,704.94A5,5 0 1 1 718.99,704.94Z" style="fill:#1FD3AC" />
<path d="M721.16,708.69A5,5 0 1 1 711.16,708.69A5,5 0 1 1 721.16,708.69Z" style="fill:#1FD3AC" />
<path d="M723.33,721.17A5,5 0 1 1 713.33,721.17A5,5 0 1 1 723.33,721.17Z" style="fill:#1FD3AC" />
<path d="M725.51,692.72A5,5 0 1 1 715.51,692.72A5,5 0 1 1 725.51,692.72Z" style="fill:#1FD3AC" />
<path d="M727.68,717.8A5,5 0 1 1 717.68,717.8A5,5 0 1 1 727.68,717.8Z" style="fill:#1FD3AC" />
<path d="M729.86,690.38A5,5 0 1 1 719.86,690.38A5,5 0 1 1 729.86,690.38Z" style="fill:#1FD3AC" />
<path d="M732.03,710.5A5,5 0 1 1 722.03,710.5A5,5 0 1 1 732.03,710.5Z" style="fill:#1FD3AC" />
<path d="M734.21,701.54A5,5 0 1 1 724.21,701.54A5,5 0 1 1 734.21,701.54Z" style="fill:#1FD3AC" />
<path d="M736.38,715.43A5,5 0 1 1 726.38,715.43A5,5 0 1 1 736.38,715.43Z" style="fill:#1FD3AC" />
<path d="M738.56,720.12A5,5 0 1 1 728.56,720.12A5,5 0 1 1 738.56,720.12Z" style="fill:#1FD3AC" />
<path d="M740.73,689.57A5,5 0 1 1 730.73,689.57A5,5 0 1 1 740.73,689.57Z" style="fill:#1FD3AC" />
<path d="M742.91,710.9A5,5 0 1 1 732.91,710.9A5,5 0 1 1 742.91,710.9Z" style="fill:#1FD3AC" />
<path d="M745.08,715.31A5,5 0 1 1 735.08,715.31A5,5 0 1 1 745.08,715.31Z" style="fill:#1FD3AC" />
<path d="M747.26,693.23A5,5 0 1 1 737.26,693.23A5,5 0 1 1 747.26,693.23Z" style="fill:#1FD3AC" />
<path d="M749.43,684.54A5,5 0 1 1 739.43,684.54A5,5 0 1 1 749.43,684.54Z" style="fill:#1FD3AC" />
<path d="M751.61,686.79A5,5 0 1 1 741.61,686.79A5,5 0 1 1 751.61,686.79Z" style="fill:#1FD3AC" />
<path d="M753.78,693.32A5,5 0 1 1 743.78,693.32A5,5 0 1 1 753.78,693.32Z" style="fill:#1FD3AC" />
<path d="M755.96,684.07A5,5 0 1 1 745.96,684.07A5,5 0 1 1 755.96,684.07Z" style="fill:#1FD3AC" />
<path d="M758.13,696.32A5,5 0 1 1 748.13,696.32A5,5 0 1 1 758.13,696.32Z" style="fill:#1FD3AC" />
<path d="M760.31,701.69A5,5 0 1 1 750.31,701.69A5,5 0 1 1 760.31,701.69Z" style="fill:#1FD3AC" />
<path d="M762.48,698.57A5,5 0 1 1 752.48,698.57A5,5 0 1 1 762.48,698.57Z" style="fill:#1FD3AC" />
<path d="M764.66,715.23A5,5 0 1 1 754.66,715.23A5,5 0 1 1 764.66,715.23Z" style="fill:#1FD3AC" />
<path d="M766.83,719.06A5,5 0 1 1 756.83,719.06A5,5 0 1 1 766.83,719.06Z" style="fill:#1FD3AC" />
<path d="M769.01,708.38A5,5 0 1 1 759.01,708.38A5,5 0 1 1 769.01,708.38Z" style="fill:#1FD3AC" />
<path d="M771.18,683.04A5,5 0 1 1 761.18,683.04A5,5 0 1 1 771.18,683.04Z" style="fill:#1FD3AC" />
<path d="M773.36,696.67A5,5 0 1 1 763.36,696.67A5,5 0 1 1 773.36,696.67Z" style="fill:#1FD3AC" />
<path d="M775.53,693.98A5,5 0 1 1 765.53,693.98A5,5 0 1 1 775.53,693.98Z" style="fill:#1FD3AC" />
<path d="M777.7,715.31A5,5 0 1 1 767.7,715.31A5,5 0 1 1 777.7,715.31Z" style="fill:#1FD3AC" />
<path d="M779.88,711.81A5,5 0 1 1 769.88,711.81A5,5 0 1 1 779.88,711.81Z" style="fill:#1FD3AC" />
<path d="M782.05,704.44A5,5 0 1 1 772.05,704.44A5,5 0 1 1 782.05,704.44Z" style="fill:#1FD3AC" />
<path d="M784.23,708.73A5,5 0 1 1 774.23,708.73A5,5 0 1 1 784.23,708.73Z" style="fill:#1FD3AC" />
<path d="M786.4,702.22A5,5 0 1 1 776.4,702.22A5,5 0 1 1 786.4,702.22Z" style="fill:#1FD3AC" />
<path d="M788.58,705.8A5,5 0 1 1 778.58,705.8A5,5 0 1 1 788.58,705.8Z" style="fill:#1FD3AC" />
<path d="M790.75,673.15A5,5 0 1 1 780.75,673.15A5,5 0 1 1 790.75,673.15Z" style="fill:#1FD3AC" />
<path d="M792.93,701.91A5,5 0 1 1 782.93,701.91A5,5 0 1 1 792.93,701.91Z" style="fill:#1FD3AC" />
<path d="M795.1,695.78A5,5 0 1 1 785.1,695.78A5,5 0 1 1 795.1,695.78Z" style="fill:#1FD3AC" />
<path d="M797.28,681.72A5,5 0 1 1 787.28,681.72A5,5 0 1 1 797.28,681.72Z" style="fill:#1FD3AC" />
<path d="M799.45,639.6A5,5 0 1 1 789.45,639.6A5,5 0 1 1 799.45,639.6Z" style="fill:#1FD3AC" />
<path d="M801.63,724.2A5,5 0 1 1 791.63,724.2A5,5 0 1 1 801.63,724.2Z" style="fill:#1FD3AC" />
<path d="M803.8,726.84A5,5 0 1 1 793.8,726.84A5,5 0 1 1 803.8,726.84Z" style="fill:#1FD3AC" />
<path d="M805.98,747.71A5,5 0 1 1 795.98,747.71A5,5 0 1 1 805.98,747.71Z" style="fill:#1FD3AC" />
<path d="M808.15,736.05A5,5 0 1 1 798.15,736.05A5,5 0 1 1 808.15,736.05Z" style="fill:#1FD3AC" />
<path d="M810.33,706.82A5,5 0 1 1 800.33,706.82A5,5 0 1 1 810.33,706.82Z" style="fill:#1FD3AC" />
<path d="M812.5,733.88A5,5 0 1 1 802.5,733.88A5,5 0 1 1 812.5,733.88Z" style="fill:#1FD3AC" />
<path d="M814.68,757.69A5,5 0 1 1 804.68,757.69A5,5 0 1 1 814.68,757.69Z" style="fill:#1FD3AC" />
<path d="M816.85,731.32A5,5 0 1 1 806.85,731.32A5,5 0 1 1 816.85,731.32Z" style="fill:#1FD3AC" />
<path d="M819.03,729.61A5,5 0 1 1 809.03,729.61A5,5 0 1 1 819.03,729.61Z" style="fill:#1FD3AC" />
<path d="M821.2,741.8A5,5 0 1 1 811.2,741.8A5,5 0 1 1 821.2,741.8Z" style="fill:#1FD3AC" />
<path d="M823.38,708.36A5,5 0 1 1 813.38,708.36A5,5 0 1 1 823.38,708.36Z" style="fill:#1FD3AC" />
<path d="M825.55,714.14A5,5 0 1 1 815.55,714.14A5,5 0 1 1 825.55,714.14Z" style="fill:#1FD3AC" />
<path d="M827.72,692.02A5,5 0 1 1 817.72,692.02A5,5 0 1 1 827.72,692.02Z" style="fill:#1FD3AC" />
<path d="M829.9,694.9A5,5 0 1 1 819.9,694.9A5,5 0 1 1 829.9,694.9Z" style="fill:#1FD3AC" />
<path d="M832.07,658.11A5,5 0 1 1 822.07,658.11A5,5 0 1 1 832.07,658.11Z" style="fill:#1FD3AC" />
<path d="M834.25,668.65A5,5 0 1 1 824.25,668.65A5,5 0 1 1 834.25,668.65Z" style="fill:#1FD3AC" />
<path d="M836.42,679.51A5,5 0 1 1 826.42,679.51A5,5 0 1 1 836.42,679.51Z" style="fill:#1FD3AC" />
<path d="M838.6,676.6A5,5 0 1 1 828.6,676.6A5,5 0 1 1 838.6,676.6Z" style="fill:#1FD3AC" />
<path d="M840.77,706.28A5,5 0 1 1 830.77,706.28A5,5 0 1 1 840.77,706.28Z" style="fill:#1FD3AC" />
<path d="M842.95,675.47A5,5 0 1 1 832.95,675.47A5,5 0 1 1 842.95,675.47Z" style="fill:#1FD3AC" />
<path d="M845.12,712.51A5,5 0 1 1 835.12,712.51A5,5 0 1 1 845.12,712.51Z" style="fill:#1FD3AC" />
<path d="M847.3,698.79A5,5 0 1 1 837.3,698.79A5,5 0 1 1 847.3,698.79Z" style="fill:#1FD3AC" />
<path d="M849.47,687.38A5,5 0 1 1 839.47,687.38A5,5 0 1 1 849.47,687.38Z" style="fill:#1FD3AC" />
<path d="M851.65,686.58A5,5 0 1 1 841.65,686.58A5,5 0 1 1 851.65,686.58Z" style="fill:#1FD3AC" />
<path d="M853.82,677.41A5,5 0 1 1 843.82,677.41A5,5 0 1 1 853.82,677.41Z" style="fill:#1FD3AC" />
<path d="M856,698.97A5,5 0 1 1 846,698.97A5,5 0 1 1 856,698.97Z" style="fill:#1FD3AC" />
<path d="M858.17,687.67A5,5 0 1 1 848.17,687.67A5,5 0 1 1 858.17,687.67Z" style="fill:#1FD3AC" />
<path d="M860.35,720.37A5,5 0 1 1 850.35,720.37A5,5 0 1 1 860.35,720.37Z" style="fill:#1FD3AC" />
<path d="M862.52,718.4A5,5 0 1 1 852.52,718.4A5,5 0 1 1 862.52,718.4Z" style="fill:#1FD3AC" />
<path d="M864.7,725.26A5,5 0 1 1 854.7,725.26A5,5 0 1 1 864.7,725.26Z" style="fill:#1FD3AC" />
<path d="M866.87,698.6A5,5 0 1 1 856.87,698.6A5,5 0 1 1 866.87,698.6Z" style="fill:#1FD3AC" />
<path d="M869.05,686.01A5,5 0 1 1 859.05,686.01A5,5 0 1 1 869.05,686.01Z" style="fill:#1FD3AC" />
<path d="M871.22,692.63A5,5 0 1 1 861.22,692.63A5,5 0 1 1 871.22,692.63Z" style="fill:#1FD3AC" />
<path d="M873.4,692.77A5,5 0 1 1 863.4,692.77A5,5 0 1 1 873.4,692.77Z" style="fill:#1FD3AC" />
<path d="M875.57,692.72A5,5 0 1 1 865.57,692.72A5,5 0 1 1 875.57,692.72Z" style="fill:#1FD3AC" />
<path d="M877.74,677.72A5,5 0 1 1 867.74,677.72A5,5 0 1 1 877.74,677.72Z" style="fill:#1FD3AC" />
<path d="M879.92,685.12A5,5 0 1 1 869.92,685.12A5,5 0 1 1 879.92,685.12Z" style="fill:#1FD3AC" />
<path d="M882.09,702.41A5,5 0 1 1 872.09,702.41A5,5 0 1 1 882.09,702.41Z" style="fill:#1FD3AC" />
<path d="M884.27,692.17A5,5 0 1 1 874.27,692.17A5,5 0 1 1 884.27,692.17Z" style="fill:#1FD3AC" />
<path d="M886.44,703.43A5,5 0 1 1 876.44,703.43A5,5 0 1 1 886.44,703.43Z" style="fill:#1FD3AC" />
<path d="M888.62,703.7A5,5 0 1 1 878.62,703.7A5,5 0 1 1 888.62,703.7Z" style="fill:#1FD3AC" />
<path d="M890.79,682.22A5,5 0 1 1 880.79,682.22A5,5 0 1 1 890.79,682.22Z" style="fill:#1FD3AC" />
<path d="M892.97,684.39A5,5 0 1 1 882.97,684.39A5,5 0 1 1 892.97,684.39Z" style="fill:#1FD3AC" />
<path d="M895.14,692.82A5,5 0 1 1 885.14,692.82A5,5 0 1 1 895.14,692.82Z" style="fill:#1FD3AC" />
<path d="M897.32,681.4A5,5 0 1 1 887.32,681.4A5,5 0 1 1 897.32,681.4Z" style="fill:#1FD3AC" />
<path d="M899.49,672.39A5,5 0 1 1 889.49,672.39A5,5 0 1 1 899.49,672.39Z" style="fill:#1FD3AC" />
<path d="M901.67,698.07A5,5 0 1 1 891.67,698.07A5,5 0 1 1 901.67,698.07Z" style="fill:#1FD3AC" />
<path d="M903.84,709.89A5,5 0 1 1 893.84,709.89A5,5 0 1 1 903.84,709.89Z" style="fill:#1FD3AC" />
<path d="M906.02,702.45A5,5 0 1 1 896.02,702.45A5,5 0 1 1 906.02,702.45Z" style="fill:#1FD3AC" />
<path d="M908.19,685.8A5,5 0 1 1 898.19,685.8A5,5 0 1 1 908.19,685.8Z" style="fill:#1FD3AC" />
<path d="M910.37,687.99A5,5 0 1 1 900.37,687.99A5,5 0 1 1 910.37,687.99Z" style="fill:#1FD3AC" />
<path d="M912.54,698.7A5,5 0 1 1 902.54,698.7A5,5 0 1 1 912.54,698.7Z" style="fill:#1FD3AC" />
<path d="M914.72,704.88A5,5 0 1 1 904.72,704.88A5,5 0 1 1 914.72,704.88Z" style="fill:#1FD3AC" />
<path d="M916.89,727.27A5,5 0 1 1 906.89,727.27A5,5 0 1 1 916.89,727.27Z" style="fill:#1FD3AC" />
<path d="M919.07,718.41A5,5 0 1 1 909.07,718.41A5,5 0 1 1 919.07,718.41Z" style="fill:#1FD3AC" />
<path d="M921.24,727.07A5,5 0 1 1 911.24,727.07A5,5 0 1 1 921.24,727.07Z" style="fill:#1FD3AC" />
<path d="M923.42,711.96A5,5 0 1 1 913.42,711.96A5,5 0 1 1 923.42,711.96Z" style="fill:#1FD3AC" />
<path d="M925.59,715.54A5,5 0 1 1 915.59,715.54A5,5 0 1 1 925.59,715.54Z" style="fill:#1FD3AC" />
<path d="M927.76,722.39A5,5 0 1 1 917.76,722.39A5,5 0 1 1 927.76,722.39Z" style="fill:#1FD3AC" />
<path d="M929.94,724.97A5,5 0 1 1 919.94,724.97A5,5 0 1 1 929.94,724.97Z" style="fill:#1FD3AC" />
<path d="M932.11,728.9A5,5 0 1 1 922.11,728.9A5,5 0 1 1 932.11,728.9Z" style="fill:#1FD3AC" />
<path d="M934.29,717.98A5,5 0 1 1 924.29,717.98A5,5 0 1 1 934.29,717.98Z" style="fill:#1FD3AC" />
<path d="M936.46,747.22A5,5 0 1 1 926.46,747.22A5,5 0 1 1 936.46,747.22Z" style="fill:#1FD3AC" />
<path d="M938.64,741.88A5,5 0 1 1 928.64,741.88A5,5 0 1 1 938.64,741.88Z" style="fill:#1FD3AC" />
<path d="M940.81,729.15A5,5 0 1 1 930.81,729.15A5,5 0 1 1 940.81,729.15Z" style="fill:#1FD3AC" />
<path d="M942.99,730.11A5,5 0 1 1 932.99,730.11A5,5 0 1 1 942.99,730.11Z" style="fill:#1FD3AC" />
<path d="M945.16,710.34A5,5 0 1 1 935.16,710.34A5,5 0 1 1 945.16,710.34Z" style="fill:#1FD3AC" />
<path d="M947.34,699.17A5,5 0 1 1 937.34,699.17A5,5 0 1 1 947.34,699.17Z" style="fill:#1FD3AC" />
<path d="M949.51,703A5,5 0 1 1 939.51,703A5,5 0 1 1 949.51,703Z" style="fill:#1FD3AC" />
<path d="M951.69,738.77A5,5 0 1 1 941.69,738.77A5,5 0 1 1 951.69,738.77Z" style="fill:#1FD3AC" />
<path d="M953.86,698.16A5,5 0 1 1 943.86,698.16A5,5 0 1 1 953.86,698.16Z" style="fill:#1FD3AC" />
<path d="M956.04,734.75A5,5 0 1 1 946.04,734.75A5,5 0 1 1 956.04,734.75Z" style="fill:#1FD3AC" />
<path d="M958.21,765.57A5,5 0 1 1 948.21,765.57A5,5 0 1 1 958.21,765.57Z" style="fill:#1FD3AC" />
<path d="M960.39,763.38A5,5 0 1 1 950.39,763.38A5,5 0 1 1 960.39,763.38Z" style="fill:#1FD3AC" />
<path d="M962.56,732.04A5,5 0 1 1 952.56,732.04A5,5 0 1 1 962.56,732.04Z" style="fill:#1FD3AC" />
<path d="M964.74,731.36A5,5 0 1 1 954.74,731.36A5,5 0 1 1 964.74,731.36Z" style="fill:#1FD3AC" />
<path d="M966.91,715.48A5,5 0 1 1 956.91,715.48A5,5 0 1 1 966.91,715.48Z" style="fill:#1FD3AC" />
<path d="M969.09,711.43A5,5 0 1 1 959.09,711.43A5,5 0 1 1 969.09,711.43Z" style="fill:#1FD3AC" />
<path d="M971.26,713.14A5,5 0 1 1 961.26,713.14A5,5 0 1 1 971.26,713.14Z" style="fill:#1FD3AC" />
<path d="M973.44,743.5A5,5 0 1 1 963.44,743.5A5,5 0 1 1 973.44,743.5Z" style="fill:#1FD3AC" />
<path d="M975.61,748.13A5,5 0 1 1 965.61,748.13A5,5 0 1 1 975.61,748.13Z" style="fill:#1FD3AC" />
<path d="M977.79,747.15A5,5 0 1 1 967.79,747.15A5,5 0 1 1 977.79,747.15Z" style="fill:#1FD3AC" />
<path d="M979.96,713.83A5,5 0 1 1 969.96,713.83A5,5 0 1 1 979.96,713.83Z" style="fill:#1FD3AC" />
<path d="M982.13,724.17A5,5 0 1 1 972.13,724.17A5,5 0 1 1 982.13,724.17Z" style="fill:#1FD3AC" />
<path d="M984.31,724.84A5,5 0 1 1 974.31,724.84A5,5 0 1 1 984.31,724.84Z" style="fill:#1FD3AC" />
<path d="M986.48,741.23A5,5 0 1 1 976.48,741.23A5,5 0 1 1 986.48,741.23Z" style="fill:#1FD3AC" />
<path d="M988.66,732.38A5,5 0 1 1 978.66,732.38A5,5 0 1 1 988.66,732.38Z" style="fill:#1FD3AC" />
<path d="M990.83,736.48A5,5 0 1 1 980.83,736.48A5,5 0 1 1 990.83,736.48Z" style="fill:#1FD3AC" />
<path d="M993.01,725.09A5,5 0 1 1 983.01,725.09A5,5 0 1 1 993.01,725.09Z" style="fill:#1FD3AC" />
<path d="M995.18,722.12A5,5 0 1 1 985.18,722.12A5,5 0 1 1 995.18,722.12Z" style="fill:#1FD3AC" />
<path d="M997.36,728.36A5,5 0 1 1 987.36,728.36A5,5 0 1 1 997.36,728.36Z" style="fill:#1FD3AC" />
<path d="M999.53,749.1A5,5 0 1 1 989.53,749.1A5,5 0 1 1 999.53,749.1Z" style="fill:#1FD3AC" />
<path d="M1001.7,742.79A5,5 0 1 1 991.71,742.79A5,5 0 1 1 1001.7,742.79Z" style="fill:#1FD3AC" />
<path d="M1003.9,722.84A5,5 0 1 1 993.88,722.84A5,5 0 1 1 1003.9,722.84Z" style="fill:#1FD3AC" />
<path d="M1006.1,771.45A5,5 0 1 1 996.06,771.45A5,5 0 1 1 1006.1,771.45Z" style="fill:#1FD3AC" />
<path d="M1008.2,710.42A5,5 0 1 1 998.23,710.42A5,5 0 1 1 1008.2,710.42Z" style="fill:#1FD3AC" />
<path d="M1010.4,721.63A5,5 0 1 1 1000.4,721.63A5,5 0 1 1 1010.4,721.63Z" style="fill:#1FD3AC" />
<path d="M1012.6,706.09A5,5 0 1 1 1002.6,706.09A5,5 0 1 1 1012.6,706.09Z" style="fill:#1FD3AC" />
<path d="M1014.8,710.93A5,5 0 1 1 1004.8,710.93A5,5 0 1 1 1014.8,710.93Z" style="fill:#1FD3AC" />
<path d="M1016.9,715.43A5,5 0 1 1 1006.9,715.43A5,5 0 1 1 1016.9,715.43Z" style="fill:#1FD3AC" />
<path d="M1019.1,685.89A5,5 0 1 1 1009.1,685.89A5,5 0 1 1 1019.1,685.89Z" style="fill:#1FD3AC" />
<path d="M1021.3,694.92A5,5 0 1 1 1011.3,694.92A5,5 0 1 1 1021.3,694.92Z" style="fill:#1FD3AC" />
<path d="M1023.5,723.98A5,5 0 1 1 1013.5,723.98A5,5 0 1 1 1023.5,723.98Z" style="fill:#1FD3AC" />
<path d="M1025.6,726.16A5,5 0 1 1 1015.6,726.16A5,5 0 1 1 1025.6,726.16Z" style="fill:#1FD3AC" />
<path d="M1027.8,765.79A5,5 0 1 1 1017.8,765.79A5,5 0 1 1 1027.8,765.79Z" style="fill:#1FD3AC" />
<path d="M1030,771.42A5,5 0 1 1 1020,771.42A5,5 0 1 1 1030,771.42Z" style="fill:#1FD3AC" />
<path d="M1032.2,767.29A5,5 0 1 1 1022.2,767.29A5,5 0 1 1 1032.2,767.29Z" style="fill:#1FD3AC" />
<path d="M1034.3,719.09A5,5 0 1 1 1024.3,719.09A5,5 0 1 1 1034.3,719.09Z" style="fill:#1FD3AC" />
<path d="M1036.5,698.96A5,5 0 1 1 1026.5,698.96A5,5 0 1 1 1036.5,698.96Z" style="fill:#1FD3AC" />
<path d="M1038.7,728.77A5,5 0 1 1 1028.7,728.77A5,5 0 1 1 1038.7,728.77Z" style="fill:#1FD3AC" />
<path d="M1040.9,726.31A5,5 0 1 1 1030.9,726.31A5,5 0 1 1 1040.9,726.31Z" style="fill:#1FD3AC" />
<path d="M1043,722.68A5,5 0 1 1 1033,722.68A5,5 0 1 1 1043,722.68Z" style="fill:#1FD3AC" />
<path d="M1045.2,706.76A5,5 0 1 1 1035.2,706.76A5,5 0 1 1 1045.2,706.76Z" style="fill:#1FD3AC" />
<path d="M1047.4,711.51A5,5 0 1 1 1037.4,711.51A5,5 0 1 1 1047.4,711.51Z" style="fill:#1FD3AC" />
<path d="M1049.6,691.34A5,5 0 1 1 1039.6,691.34A5,5 0 1 1 1049.6,691.34Z" style="fill:#1FD3AC" />
<path d="M1051.7,710.01A5,5 0 1 1 1041.7,710.01A5,5 0 1 1 1051.7,710.01Z" style="fill:#1FD3AC" />
<path d="M1053.9,716.56A5,5 0 1 1 1043.9,716.56A5,5 0 1 1 1053.9,716.56Z" style="fill:#1FD3AC" />
<path d="M1056.1,684.02A5,5 0 1 1 1046.1,684.02A5,5 0 1 1 1056.1,684.02Z" style="fill:#1FD3AC" />
<path d="M1058.3,678.52A5,5 0 1 1 1048.3,678.52A5,5 0 1 1 1058.3,678.52Z" style="fill:#1FD3AC" />
<path d="M1060.4,675.62A5,5 0 1 1 1050.4,675.62A5,5 0 1 1 1060.4,675.62Z" style="fill:#1FD3AC" />
<path d="M1062.6,709.91A5,5 0 1 1 1052.6,709.91A5,5 0 1 1 1062.6,709.91Z" style="fill:#1FD3AC" />
<path d="M1064.8,710.59A5,5 0 1 1 1054.8,710.59A5,5 0 1 1 1064.8,710.59Z" style="fill:#1FD3AC" />
<path d="M1067,691.19A5,5 0 1 1 1057,691.19A5,5 0 1 1 1067,691.19Z" style="fill:#1FD3AC" />
<path d="M1069.1,704.08A5,5 0 1 1 1059.1,704.08A5,5 0 1 1 1069.1,704.08Z" style="fill:#1FD3AC" />
<path d="M1071.3,718.32A5,5 0 1 1 1061.3,718.32A5,5 0 1 1 1071.3,718.32Z" style="fill:#1FD3AC" />
<path d="M1073.5,707.25A5,5 0 1 1 1063.5,707.25A5,5 0 1 1 1073.5,707.25Z" style="fill:#1FD3AC" />
<path d="M1075.7,723A5,5 0 1 1 1065.7,723A5,5 0 1 1 1075.7,723Z" style="fill:#1FD3AC" />
<path d="M1077.8,705.51A5,5 0 1 1 1067.8,705.51A5,5 0 1 1 1077.8,705.51Z" style="fill:#1FD3AC" />
<path d="M1080,725.2A5,5 0 1 1 1070,725.2A5,5 0 1 1 1080,725.2Z" style="fill:#1FD3AC" />
<path d="M128.97,904.54L1077.2,904.54" style="fill:none;stroke:#000000" />
<path d="M1077.2,645.95L1077.2,904.54" style="fill:none;stroke:#000000" />
</g>
</svg>
