<?xml version="1.0"?>
<!-- Generated by SVGo and Plotinum VG -->
<svg width="1080pt" height="1080pt" viewBox="0 0 1080 1080"
	xmlns="http://www.w3.org/2000/svg"
	xmlns:xlink="http://www.w3.org/1999/xlink">
<g transform="scale(1, -1) translate(0, -1080)">
<path d="M0,0L1080,0L1080,1080L0,1080Z" style="fill:#-8000000000000000-8000000000000000-8000000000000000;fill-opacity:0" />
<text x="346.9" y="-1039.5" transform="scale(1, -1)"
	style="font-family:Helvetica;font-weight:normal;font-style:normal;font-size:50px">1 mm CS2 CABS</text>
<text x="507.33" y="-11.039" transform="scale(1, -1)"
	style="font-family:Helvetica;font-weight:normal;font-style:normal;font-size:36px">Frequency (GHz)</text>
<text x="260.34" y="-71.258" transform="scale(1, -1)"
	style="font-family:Helvetica;font-weight:normal;font-style:normal;font-size:36px">2.35</text>
<text x="437.35" y="-71.258" transform="scale(1, -1)"
	style="font-family:Helvetica;font-weight:normal;font-style:normal;font-size:36px">2.45</text>
<text x="614.36" y="-71.258" transform="scale(1, -1)"
	style="font-family:Helvetica;font-weight:normal;font-style:normal;font-size:36px">2.55</text>
<text x="791.37" y="-71.258" transform="scale(1, -1)"
	style="font-family:Helvetica;font-weight:normal;font-style:normal;font-size:36px">2.65</text>
<text x="968.37" y="-71.258" transform="scale(1, -1)"
	style="font-family:Helvetica;font-weight:normal;font-style:normal;font-size:36px">2.75</text>
<path d="M295.38,116.44L295.38,108.44" style="fill:none;stroke:#000000;stroke-width:1.5" />
<path d="M383.88,112.44L383.88,108.44" style="fill:none;stroke:#000000;stroke-width:1.5" />
<path d="M472.38,116.44L472.38,108.44" style="fill:none;stroke:#000000;stroke-width:1.5" />
<path d="M560.89,112.44L560.89,108.44" style="fill:none;stroke:#000000;stroke-width:1.5" />
<path d="M649.39,116.44L649.39,108.44" style="fill:none;stroke:#000000;stroke-width:1.5" />
<path d="M737.89,112.44L737.89,108.44" style="fill:none;stroke:#000000;stroke-width:1.5" />
<path d="M826.4,116.44L826.4,108.44" style="fill:none;stroke:#000000;stroke-width:1.5" />
<path d="M914.9,112.44L914.9,108.44" style="fill:none;stroke:#000000;stroke-width:1.5" />
<path d="M1003.4,116.44L1003.4,108.44" style="fill:none;stroke:#000000;stroke-width:1.5" />
<path d="M215.73,108.44L1075,108.44" style="fill:none;stroke:#000000;stroke-width:1.5" />
<g transform="rotate(90)">
<text x="371.67" y="29.18" transform="scale(1, -1)"
	style="font-family:Helvetica;font-weight:normal;font-style:normal;font-size:36px">Spectral Density (nV)</text>
</g>
<text x="75.881" y="-232.34" transform="scale(1, -1)"
	style="font-family:Helvetica;font-weight:normal;font-style:normal;font-size:36px">-223.31</text>
<text x="87.869" y="-441.69" transform="scale(1, -1)"
	style="font-family:Helvetica;font-weight:normal;font-style:normal;font-size:36px">152.24</text>
<text x="87.869" y="-651.04" transform="scale(1, -1)"
	style="font-family:Helvetica;font-weight:normal;font-style:normal;font-size:36px">527.79</text>
<text x="87.869" y="-860.39" transform="scale(1, -1)"
	style="font-family:Helvetica;font-weight:normal;font-style:normal;font-size:36px">903.34</text>
<path d="M219.98,136.74L215.98,136.74" style="fill:none;stroke:#000000;stroke-width:1.5" />
<path d="M223.98,241.41L215.98,241.41" style="fill:none;stroke:#000000;stroke-width:1.5" />
<path d="M219.98,346.09L215.98,346.09" style="fill:none;stroke:#000000;stroke-width:1.5" />
<path d="M223.98,450.76L215.98,450.76" style="fill:none;stroke:#000000;stroke-width:1.5" />
<path d="M219.98,555.44L215.98,555.44" style="fill:none;stroke:#000000;stroke-width:1.5" />
<path d="M223.98,660.11L215.98,660.11" style="fill:none;stroke:#000000;stroke-width:1.5" />
<path d="M219.98,764.79L215.98,764.79" style="fill:none;stroke:#000000;stroke-width:1.5" />
<path d="M223.98,869.47L215.98,869.47" style="fill:none;stroke:#000000;stroke-width:1.5" />
<path d="M219.98,974.14L215.98,974.14" style="fill:none;stroke:#000000;stroke-width:1.5" />
<path d="M219.98,974.14L215.98,974.14" style="fill:none;stroke:#000000;stroke-width:1.5" />
<path d="M215.98,109.32L215.98,974.14" style="fill:none;stroke:#000000;stroke-width:1.5" />
<path d="M215.73,311.57L215.73,378.47" style="fill:none;stroke:#FF7AB4" />
<path d="M213.23,311.57L218.23,311.57" style="fill:none;stroke:#FF7AB4" />
<path d="M213.23,378.47L218.23,378.47" style="fill:none;stroke:#FF7AB4" />
<path d="M224.59,388.13L224.59,404.89" style="fill:none;stroke:#FF7AB4" />
<path d="M222.09,388.13L227.09,388.13" style="fill:none;stroke:#FF7AB4" />
<path d="M222.09,404.89L227.09,404.89" style="fill:none;stroke:#FF7AB4" />
<path d="M233.45,365.83L233.45,419.97" style="fill:none;stroke:#FF7AB4" />
<path d="M230.95,365.83L235.95,365.83" style="fill:none;stroke:#FF7AB4" />
<path d="M230.95,419.97L235.95,419.97" style="fill:none;stroke:#FF7AB4" />
<path d="M242.31,355.33L242.31,380.6" style="fill:none;stroke:#FF7AB4" />
<path d="M239.81,355.33L244.81,355.33" style="fill:none;stroke:#FF7AB4" />
<path d="M239.81,380.6L244.81,380.6" style="fill:none;stroke:#FF7AB4" />
<path d="M251.16,329.77L251.16,382.17" style="fill:none;stroke:#FF7AB4" />
<path d="M248.66,329.77L253.66,329.77" style="fill:none;stroke:#FF7AB4" />
<path d="M248.66,382.17L253.66,382.17" style="fill:none;stroke:#FF7AB4" />
<path d="M260.02,357.83L260.02,394.46" style="fill:none;stroke:#FF7AB4" />
<path d="M257.52,357.83L262.52,357.83" style="fill:none;stroke:#FF7AB4" />
<path d="M257.52,394.46L262.52,394.46" style="fill:none;stroke:#FF7AB4" />
<path d="M268.88,338.15L268.88,379.69" style="fill:none;stroke:#FF7AB4" />
<path d="M266.38,338.15L271.38,338.15" style="fill:none;stroke:#FF7AB4" />
<path d="M266.38,379.69L271.38,379.69" style="fill:none;stroke:#FF7AB4" />
<path d="M277.74,353.35L277.74,411.31" style="fill:none;stroke:#FF7AB4" />
<path d="M275.24,353.35L280.24,353.35" style="fill:none;stroke:#FF7AB4" />
<path d="M275.24,411.31L280.24,411.31" style="fill:none;stroke:#FF7AB4" />
<path d="M286.6,422.9L286.6,447.03" style="fill:none;stroke:#FF7AB4" />
<path d="M284.1,422.9L289.1,422.9" style="fill:none;stroke:#FF7AB4" />
<path d="M284.1,447.03L289.1,447.03" style="fill:none;stroke:#FF7AB4" />
<path d="M295.46,376.98L295.46,428.51" style="fill:none;stroke:#FF7AB4" />
<path d="M292.96,376.98L297.96,376.98" style="fill:none;stroke:#FF7AB4" />
<path d="M292.96,428.51L297.96,428.51" style="fill:none;stroke:#FF7AB4" />
<path d="M304.31,353.87L304.31,397.93" style="fill:none;stroke:#FF7AB4" />
<path d="M301.81,353.87L306.81,353.87" style="fill:none;stroke:#FF7AB4" />
<path d="M301.81,397.93L306.81,397.93" style="fill:none;stroke:#FF7AB4" />
<path d="M313.17,328L313.17,384.45" style="fill:none;stroke:#FF7AB4" />
<path d="M310.67,328L315.67,328" style="fill:none;stroke:#FF7AB4" />
<path d="M310.67,384.45L315.67,384.45" style="fill:none;stroke:#FF7AB4" />
<path d="M322.03,392.43L322.03,490.15" style="fill:none;stroke:#FF7AB4" />
<path d="M319.53,392.43L324.53,392.43" style="fill:none;stroke:#FF7AB4" />
<path d="M319.53,490.15L324.53,490.15" style="fill:none;stroke:#FF7AB4" />
<path d="M330.89,372.73L330.89,426.47" style="fill:none;stroke:#FF7AB4" />
<path d="M328.39,372.73L333.39,372.73" style="fill:none;stroke:#FF7AB4" />
<path d="M328.39,426.47L333.39,426.47" style="fill:none;stroke:#FF7AB4" />
<path d="M339.75,305.68L339.75,342.89" style="fill:none;stroke:#FF7AB4" />
<path d="M337.25,305.68L342.25,305.68" style="fill:none;stroke:#FF7AB4" />
<path d="M337.25,342.89L342.25,342.89" style="fill:none;stroke:#FF7AB4" />
<path d="M348.61,371.33L348.61,430.34" style="fill:none;stroke:#FF7AB4" />
<path d="M346.11,371.33L351.11,371.33" style="fill:none;stroke:#FF7AB4" />
<path d="M346.11,430.34L351.11,430.34" style="fill:none;stroke:#FF7AB4" />
<path d="M357.47,324.46L357.47,370.07" style="fill:none;stroke:#FF7AB4" />
<path d="M354.97,324.46L359.97,324.46" style="fill:none;stroke:#FF7AB4" />
<path d="M354.97,370.07L359.97,370.07" style="fill:none;stroke:#FF7AB4" />
<path d="M366.32,342.89L366.32,408.02" style="fill:none;stroke:#FF7AB4" />
<path d="M363.82,342.89L368.82,342.89" style="fill:none;stroke:#FF7AB4" />
<path d="M363.82,408.02L368.82,408.02" style="fill:none;stroke:#FF7AB4" />
<path d="M375.18,395.67L375.18,457.41" style="fill:none;stroke:#FF7AB4" />
<path d="M372.68,395.67L377.68,395.67" style="fill:none;stroke:#FF7AB4" />
<path d="M372.68,457.41L377.68,457.41" style="fill:none;stroke:#FF7AB4" />
<path d="M384.04,376.62L384.04,396.2" style="fill:none;stroke:#FF7AB4" />
<path d="M381.54,376.62L386.54,376.62" style="fill:none;stroke:#FF7AB4" />
<path d="M381.54,396.2L386.54,396.2" style="fill:none;stroke:#FF7AB4" />
<path d="M392.9,394.62L392.9,424" style="fill:none;stroke:#FF7AB4" />
<path d="M390.4,394.62L395.4,394.62" style="fill:none;stroke:#FF7AB4" />
<path d="M390.4,424L395.4,424" style="fill:none;stroke:#FF7AB4" />
<path d="M401.76,369.36L401.76,416.35" style="fill:none;stroke:#FF7AB4" />
<path d="M399.26,369.36L404.26,369.36" style="fill:none;stroke:#FF7AB4" />
<path d="M399.26,416.35L404.26,416.35" style="fill:none;stroke:#FF7AB4" />
<path d="M410.62,346.74L410.62,405.12" style="fill:none;stroke:#FF7AB4" />
<path d="M408.12,346.74L413.12,346.74" style="fill:none;stroke:#FF7AB4" />
<path d="M408.12,405.12L413.12,405.12" style="fill:none;stroke:#FF7AB4" />
<path d="M419.47,317.58L419.47,360.04" style="fill:none;stroke:#FF7AB4" />
<path d="M416.97,317.58L421.97,317.58" style="fill:none;stroke:#FF7AB4" />
<path d="M416.97,360.04L421.97,360.04" style="fill:none;stroke:#FF7AB4" />
<path d="M428.33,332.87L428.33,404" style="fill:none;stroke:#FF7AB4" />
<path d="M425.83,332.87L430.83,332.87" style="fill:none;stroke:#FF7AB4" />
<path d="M425.83,404L430.83,404" style="fill:none;stroke:#FF7AB4" />
<path d="M437.19,287.04L437.19,360.35" style="fill:none;stroke:#FF7AB4" />
<path d="M434.69,287.04L439.69,287.04" style="fill:none;stroke:#FF7AB4" />
<path d="M434.69,360.35L439.69,360.35" style="fill:none;stroke:#FF7AB4" />
<path d="M446.05,374.04L446.05,446.51" style="fill:none;stroke:#FF7AB4" />
<path d="M443.55,374.04L448.55,374.04" style="fill:none;stroke:#FF7AB4" />
<path d="M443.55,446.51L448.55,446.51" style="fill:none;stroke:#FF7AB4" />
<path d="M454.91,359.4L454.91,448.42" style="fill:none;stroke:#FF7AB4" />
<path d="M452.41,359.4L457.41,359.4" style="fill:none;stroke:#FF7AB4" />
<path d="M452.41,448.42L457.41,448.42" style="fill:none;stroke:#FF7AB4" />
<path d="M463.77,386.86L463.77,426" style="fill:none;stroke:#FF7AB4" />
<path d="M461.27,386.86L466.27,386.86" style="fill:none;stroke:#FF7AB4" />
<path d="M461.27,426L466.27,426" style="fill:none;stroke:#FF7AB4" />
<path d="M472.63,342.43L472.63,392.72" style="fill:none;stroke:#FF7AB4" />
<path d="M470.13,342.43L475.13,342.43" style="fill:none;stroke:#FF7AB4" />
<path d="M470.13,392.72L475.13,392.72" style="fill:none;stroke:#FF7AB4" />
<path d="M481.48,343.65L481.48,389.76" style="fill:none;stroke:#FF7AB4" />
<path d="M478.98,343.65L483.98,343.65" style="fill:none;stroke:#FF7AB4" />
<path d="M478.98,389.76L483.98,389.76" style="fill:none;stroke:#FF7AB4" />
<path d="M490.34,405.58L490.34,473.95" style="fill:none;stroke:#FF7AB4" />
<path d="M487.84,405.58L492.84,405.58" style="fill:none;stroke:#FF7AB4" />
<path d="M487.84,473.95L492.84,473.95" style="fill:none;stroke:#FF7AB4" />
<path d="M499.2,354.22L499.2,389.41" style="fill:none;stroke:#FF7AB4" />
<path d="M496.7,354.22L501.7,354.22" style="fill:none;stroke:#FF7AB4" />
<path d="M496.7,389.41L501.7,389.41" style="fill:none;stroke:#FF7AB4" />
<path d="M508.06,370.46L508.06,440.32" style="fill:none;stroke:#FF7AB4" />
<path d="M505.56,370.46L510.56,370.46" style="fill:none;stroke:#FF7AB4" />
<path d="M505.56,440.32L510.56,440.32" style="fill:none;stroke:#FF7AB4" />
<path d="M516.92,328.78L516.92,407.4" style="fill:none;stroke:#FF7AB4" />
<path d="M514.42,328.78L519.42,328.78" style="fill:none;stroke:#FF7AB4" />
<path d="M514.42,407.4L519.42,407.4" style="fill:none;stroke:#FF7AB4" />
<path d="M525.78,357.79L525.78,418.84" style="fill:none;stroke:#FF7AB4" />
<path d="M523.28,357.79L528.28,357.79" style="fill:none;stroke:#FF7AB4" />
<path d="M523.28,418.84L528.28,418.84" style="fill:none;stroke:#FF7AB4" />
<path d="M534.63,348.39L534.63,452.82" style="fill:none;stroke:#FF7AB4" />
<path d="M532.13,348.39L537.13,348.39" style="fill:none;stroke:#FF7AB4" />
<path d="M532.13,452.82L537.13,452.82" style="fill:none;stroke:#FF7AB4" />
<path d="M543.49,299.67L543.49,366.75" style="fill:none;stroke:#FF7AB4" />
<path d="M540.99,299.67L545.99,299.67" style="fill:none;stroke:#FF7AB4" />
<path d="M540.99,366.75L545.99,366.75" style="fill:none;stroke:#FF7AB4" />
<path d="M552.35,352.5L552.35,405.1" style="fill:none;stroke:#FF7AB4" />
<path d="M549.85,352.5L554.85,352.5" style="fill:none;stroke:#FF7AB4" />
<path d="M549.85,405.1L554.85,405.1" style="fill:none;stroke:#FF7AB4" />
<path d="M561.21,328L561.21,433.59" style="fill:none;stroke:#FF7AB4" />
<path d="M558.71,328L563.71,328" style="fill:none;stroke:#FF7AB4" />
<path d="M558.71,433.59L563.71,433.59" style="fill:none;stroke:#FF7AB4" />
<path d="M570.07,451.04L570.07,506.03" style="fill:none;stroke:#FF7AB4" />
<path d="M567.57,451.04L572.57,451.04" style="fill:none;stroke:#FF7AB4" />
<path d="M567.57,506.03L572.57,506.03" style="fill:none;stroke:#FF7AB4" />
<path d="M578.93,393.41L578.93,450.83" style="fill:none;stroke:#FF7AB4" />
<path d="M576.43,393.41L581.43,393.41" style="fill:none;stroke:#FF7AB4" />
<path d="M576.43,450.83L581.43,450.83" style="fill:none;stroke:#FF7AB4" />
<path d="M587.79,411.98L587.79,484.93" style="fill:none;stroke:#FF7AB4" />
<path d="M585.29,411.98L590.29,411.98" style="fill:none;stroke:#FF7AB4" />
<path d="M585.29,484.93L590.29,484.93" style="fill:none;stroke:#FF7AB4" />
<path d="M596.64,437.04L596.64,512.51" style="fill:none;stroke:#FF7AB4" />
<path d="M594.14,437.04L599.14,437.04" style="fill:none;stroke:#FF7AB4" />
<path d="M594.14,512.51L599.14,512.51" style="fill:none;stroke:#FF7AB4" />
<path d="M605.5,462.82L605.5,489.78" style="fill:none;stroke:#FF7AB4" />
<path d="M603,462.82L608,462.82" style="fill:none;stroke:#FF7AB4" />
<path d="M603,489.78L608,489.78" style="fill:none;stroke:#FF7AB4" />
<path d="M614.36,476.7L614.36,506.98" style="fill:none;stroke:#FF7AB4" />
<path d="M611.86,476.7L616.86,476.7" style="fill:none;stroke:#FF7AB4" />
<path d="M611.86,506.98L616.86,506.98" style="fill:none;stroke:#FF7AB4" />
<path d="M623.22,479.46L623.22,526.7" style="fill:none;stroke:#FF7AB4" />
<path d="M620.72,479.46L625.72,479.46" style="fill:none;stroke:#FF7AB4" />
<path d="M620.72,526.7L625.72,526.7" style="fill:none;stroke:#FF7AB4" />
<path d="M632.08,528.5L632.08,575.77" style="fill:none;stroke:#FF7AB4" />
<path d="M629.58,528.5L634.58,528.5" style="fill:none;stroke:#FF7AB4" />
<path d="M629.58,575.77L634.58,575.77" style="fill:none;stroke:#FF7AB4" />
<path d="M640.94,568.35L640.94,621.06" style="fill:none;stroke:#FF7AB4" />
<path d="M638.44,568.35L643.44,568.35" style="fill:none;stroke:#FF7AB4" />
<path d="M638.44,621.06L643.44,621.06" style="fill:none;stroke:#FF7AB4" />
<path d="M649.79,557.41L649.79,637.58" style="fill:none;stroke:#FF7AB4" />
<path d="M647.29,557.41L652.29,557.41" style="fill:none;stroke:#FF7AB4" />
<path d="M647.29,637.58L652.29,637.58" style="fill:none;stroke:#FF7AB4" />
<path d="M658.65,578.49L658.65,628.96" style="fill:none;stroke:#FF7AB4" />
<path d="M656.15,578.49L661.15,578.49" style="fill:none;stroke:#FF7AB4" />
<path d="M656.15,628.96L661.15,628.96" style="fill:none;stroke:#FF7AB4" />
<path d="M667.51,574.29L667.51,659.46" style="fill:none;stroke:#FF7AB4" />
<path d="M665.01,574.29L670.01,574.29" style="fill:none;stroke:#FF7AB4" />
<path d="M665.01,659.46L670.01,659.46" style="fill:none;stroke:#FF7AB4" />
<path d="M676.37,530.94L676.37,586.13" style="fill:none;stroke:#FF7AB4" />
<path d="M673.87,530.94L678.87,530.94" style="fill:none;stroke:#FF7AB4" />
<path d="M673.87,586.13L678.87,586.13" style="fill:none;stroke:#FF7AB4" />
<path d="M685.23,523.91L685.23,571.69" style="fill:none;stroke:#FF7AB4" />
<path d="M682.73,523.91L687.73,523.91" style="fill:none;stroke:#FF7AB4" />
<path d="M682.73,571.69L687.73,571.69" style="fill:none;stroke:#FF7AB4" />
<path d="M694.09,516.21L694.09,577.17" style="fill:none;stroke:#FF7AB4" />
<path d="M691.59,516.21L696.59,516.21" style="fill:none;stroke:#FF7AB4" />
<path d="M691.59,577.17L696.59,577.17" style="fill:none;stroke:#FF7AB4" />
<path d="M702.95,453.65L702.95,494.29" style="fill:none;stroke:#FF7AB4" />
<path d="M700.45,453.65L705.45,453.65" style="fill:none;stroke:#FF7AB4" />
<path d="M700.45,494.29L705.45,494.29" style="fill:none;stroke:#FF7AB4" />
<path d="M711.8,435.97L711.8,496.22" style="fill:none;stroke:#FF7AB4" />
<path d="M709.3,435.97L714.3,435.97" style="fill:none;stroke:#FF7AB4" />
<path d="M709.3,496.22L714.3,496.22" style="fill:none;stroke:#FF7AB4" />
<path d="M720.66,392.81L720.66,479.04" style="fill:none;stroke:#FF7AB4" />
<path d="M718.16,392.81L723.16,392.81" style="fill:none;stroke:#FF7AB4" />
<path d="M718.16,479.04L723.16,479.04" style="fill:none;stroke:#FF7AB4" />
<path d="M729.52,444.91L729.52,487.16" style="fill:none;stroke:#FF7AB4" />
<path d="M727.02,444.91L732.02,444.91" style="fill:none;stroke:#FF7AB4" />
<path d="M727.02,487.16L732.02,487.16" style="fill:none;stroke:#FF7AB4" />
<path d="M738.38,412.86L738.38,462.54" style="fill:none;stroke:#FF7AB4" />
<path d="M735.88,412.86L740.88,412.86" style="fill:none;stroke:#FF7AB4" />
<path d="M735.88,462.54L740.88,462.54" style="fill:none;stroke:#FF7AB4" />
<path d="M747.24,425.15L747.24,469.37" style="fill:none;stroke:#FF7AB4" />
<path d="M744.74,425.15L749.74,425.15" style="fill:none;stroke:#FF7AB4" />
<path d="M744.74,469.37L749.74,469.37" style="fill:none;stroke:#FF7AB4" />
<path d="M756.1,374.67L756.1,415.5" style="fill:none;stroke:#FF7AB4" />
<path d="M753.6,374.67L758.6,374.67" style="fill:none;stroke:#FF7AB4" />
<path d="M753.6,415.5L758.6,415.5" style="fill:none;stroke:#FF7AB4" />
<path d="M764.95,369.04L764.95,415.18" style="fill:none;stroke:#FF7AB4" />
<path d="M762.45,369.04L767.45,369.04" style="fill:none;stroke:#FF7AB4" />
<path d="M762.45,415.18L767.45,415.18" style="fill:none;stroke:#FF7AB4" />
<path d="M773.81,363.52L773.81,436.15" style="fill:none;stroke:#FF7AB4" />
<path d="M771.31,363.52L776.31,363.52" style="fill:none;stroke:#FF7AB4" />
<path d="M771.31,436.15L776.31,436.15" style="fill:none;stroke:#FF7AB4" />
<path d="M782.67,411.8L782.67,441.52" style="fill:none;stroke:#FF7AB4" />
<path d="M780.17,411.8L785.17,411.8" style="fill:none;stroke:#FF7AB4" />
<path d="M780.17,441.52L785.17,441.52" style="fill:none;stroke:#FF7AB4" />
<path d="M791.53,363.7L791.53,414.35" style="fill:none;stroke:#FF7AB4" />
<path d="M789.03,363.7L794.03,363.7" style="fill:none;stroke:#FF7AB4" />
<path d="M789.03,414.35L794.03,414.35" style="fill:none;stroke:#FF7AB4" />
<path d="M800.39,407.59L800.39,452.41" style="fill:none;stroke:#FF7AB4" />
<path d="M797.89,407.59L802.89,407.59" style="fill:none;stroke:#FF7AB4" />
<path d="M797.89,452.41L802.89,452.41" style="fill:none;stroke:#FF7AB4" />
<path d="M809.25,364.3L809.25,413.25" style="fill:none;stroke:#FF7AB4" />
<path d="M806.75,364.3L811.75,364.3" style="fill:none;stroke:#FF7AB4" />
<path d="M806.75,413.25L811.75,413.25" style="fill:none;stroke:#FF7AB4" />
<path d="M818.1,399.12L818.1,462.97" style="fill:none;stroke:#FF7AB4" />
<path d="M815.6,399.12L820.6,399.12" style="fill:none;stroke:#FF7AB4" />
<path d="M815.6,462.97L820.6,462.97" style="fill:none;stroke:#FF7AB4" />
<path d="M826.96,327.48L826.96,366.17" style="fill:none;stroke:#FF7AB4" />
<path d="M824.46,327.48L829.46,327.48" style="fill:none;stroke:#FF7AB4" />
<path d="M824.46,366.17L829.46,366.17" style="fill:none;stroke:#FF7AB4" />
<path d="M835.82,370.33L835.82,417.37" style="fill:none;stroke:#FF7AB4" />
<path d="M833.32,370.33L838.32,370.33" style="fill:none;stroke:#FF7AB4" />
<path d="M833.32,417.37L838.32,417.37" style="fill:none;stroke:#FF7AB4" />
<path d="M844.68,378.16L844.68,419.62" style="fill:none;stroke:#FF7AB4" />
<path d="M842.18,378.16L847.18,378.16" style="fill:none;stroke:#FF7AB4" />
<path d="M842.18,419.62L847.18,419.62" style="fill:none;stroke:#FF7AB4" />
<path d="M853.54,345.66L853.54,425.81" style="fill:none;stroke:#FF7AB4" />
<path d="M851.04,345.66L856.04,345.66" style="fill:none;stroke:#FF7AB4" />
<path d="M851.04,425.81L856.04,425.81" style="fill:none;stroke:#FF7AB4" />
<path d="M862.4,365.45L862.4,389.77" style="fill:none;stroke:#FF7AB4" />
<path d="M859.9,365.45L864.9,365.45" style="fill:none;stroke:#FF7AB4" />
<path d="M859.9,389.77L864.9,389.77" style="fill:none;stroke:#FF7AB4" />
<path d="M871.26,368.88L871.26,422.26" style="fill:none;stroke:#FF7AB4" />
<path d="M868.76,368.88L873.76,368.88" style="fill:none;stroke:#FF7AB4" />
<path d="M868.76,422.26L873.76,422.26" style="fill:none;stroke:#FF7AB4" />
<path d="M880.11,366.76L880.11,403.6" style="fill:none;stroke:#FF7AB4" />
<path d="M877.61,366.76L882.61,366.76" style="fill:none;stroke:#FF7AB4" />
<path d="M877.61,403.6L882.61,403.6" style="fill:none;stroke:#FF7AB4" />
<path d="M888.97,348.55L888.97,389.1" style="fill:none;stroke:#FF7AB4" />
<path d="M886.47,348.55L891.47,348.55" style="fill:none;stroke:#FF7AB4" />
<path d="M886.47,389.1L891.47,389.1" style="fill:none;stroke:#FF7AB4" />
<path d="M897.83,371.11L897.83,413.05" style="fill:none;stroke:#FF7AB4" />
<path d="M895.33,371.11L900.33,371.11" style="fill:none;stroke:#FF7AB4" />
<path d="M895.33,413.05L900.33,413.05" style="fill:none;stroke:#FF7AB4" />
<path d="M906.69,360.94L906.69,404.21" style="fill:none;stroke:#FF7AB4" />
<path d="M904.19,360.94L909.19,360.94" style="fill:none;stroke:#FF7AB4" />
<path d="M904.19,404.21L909.19,404.21" style="fill:none;stroke:#FF7AB4" />
<path d="M915.55,372.09L915.55,421.56" style="fill:none;stroke:#FF7AB4" />
<path d="M913.05,372.09L918.05,372.09" style="fill:none;stroke:#FF7AB4" />
<path d="M913.05,421.56L918.05,421.56" style="fill:none;stroke:#FF7AB4" />
<path d="M924.41,339.45L924.41,370" style="fill:none;stroke:#FF7AB4" />
<path d="M921.91,339.45L926.91,339.45" style="fill:none;stroke:#FF7AB4" />
<path d="M921.91,370L926.91,370" style="fill:none;stroke:#FF7AB4" />
<path d="M933.26,363.49L933.26,409.98" style="fill:none;stroke:#FF7AB4" />
<path d="M930.76,363.49L935.76,363.49" style="fill:none;stroke:#FF7AB4" />
<path d="M930.76,409.98L935.76,409.98" style="fill:none;stroke:#FF7AB4" />
<path d="M942.12,342.97L942.12,408.22" style="fill:none;stroke:#FF7AB4" />
<path d="M939.62,342.97L944.62,342.97" style="fill:none;stroke:#FF7AB4" />
<path d="M939.62,408.22L944.62,408.22" style="fill:none;stroke:#FF7AB4" />
<path d="M950.98,352.95L950.98,392.04" style="fill:none;stroke:#FF7AB4" />
<path d="M948.48,352.95L953.48,352.95" style="fill:none;stroke:#FF7AB4" />
<path d="M948.48,392.04L953.48,392.04" style="fill:none;stroke:#FF7AB4" />
<path d="M959.84,355.07L959.84,393.87" style="fill:none;stroke:#FF7AB4" />
<path d="M957.34,355.07L962.34,355.07" style="fill:none;stroke:#FF7AB4" />
<path d="M957.34,393.87L962.34,393.87" style="fill:none;stroke:#FF7AB4" />
<path d="M968.7,404.66L968.7,455.51" style="fill:none;stroke:#FF7AB4" />
<path d="M966.2,404.66L971.2,404.66" style="fill:none;stroke:#FF7AB4" />
<path d="M966.2,455.51L971.2,455.51" style="fill:none;stroke:#FF7AB4" />
<path d="M977.56,392.01L977.56,439.59" style="fill:none;stroke:#FF7AB4" />
<path d="M975.06,392.01L980.06,392.01" style="fill:none;stroke:#FF7AB4" />
<path d="M975.06,439.59L980.06,439.59" style="fill:none;stroke:#FF7AB4" />
<path d="M986.42,332.64L986.42,368.07" style="fill:none;stroke:#FF7AB4" />
<path d="M983.92,332.64L988.92,332.64" style="fill:none;stroke:#FF7AB4" />
<path d="M983.92,368.07L988.92,368.07" style="fill:none;stroke:#FF7AB4" />
<path d="M995.27,420.76L995.27,481.79" style="fill:none;stroke:#FF7AB4" />
<path d="M992.77,420.76L997.77,420.76" style="fill:none;stroke:#FF7AB4" />
<path d="M992.77,481.79L997.77,481.79" style="fill:none;stroke:#FF7AB4" />
<path d="M1004.1,393.54L1004.1,423.89" style="fill:none;stroke:#FF7AB4" />
<path d="M1001.6,393.54L1006.6,393.54" style="fill:none;stroke:#FF7AB4" />
<path d="M1001.6,423.89L1006.6,423.89" style="fill:none;stroke:#FF7AB4" />
<path d="M1013,383.92L1013,402.48" style="fill:none;stroke:#FF7AB4" />
<path d="M1010.5,383.92L1015.5,383.92" style="fill:none;stroke:#FF7AB4" />
<path d="M1010.5,402.48L1015.5,402.48" style="fill:none;stroke:#FF7AB4" />
<path d="M1021.8,361.4L1021.8,404.88" style="fill:none;stroke:#FF7AB4" />
<path d="M1019.3,361.4L1024.3,361.4" style="fill:none;stroke:#FF7AB4" />
<path d="M1019.3,404.88L1024.3,404.88" style="fill:none;stroke:#FF7AB4" />
<path d="M1030.7,330.13L1030.7,392.77" style="fill:none;stroke:#FF7AB4" />
<path d="M1028.2,330.13L1033.2,330.13" style="fill:none;stroke:#FF7AB4" />
<path d="M1028.2,392.77L1033.2,392.77" style="fill:none;stroke:#FF7AB4" />
<path d="M1039.6,407.6L1039.6,458.61" style="fill:none;stroke:#FF7AB4" />
<path d="M1037.1,407.6L1042.1,407.6" style="fill:none;stroke:#FF7AB4" />
<path d="M1037.1,458.61L1042.1,458.61" style="fill:none;stroke:#FF7AB4" />
<path d="M1048.4,391.9L1048.4,436.05" style="fill:none;stroke:#FF7AB4" />
<path d="M1045.9,391.9L1050.9,391.9" style="fill:none;stroke:#FF7AB4" />
<path d="M1045.9,436.05L1050.9,436.05" style="fill:none;stroke:#FF7AB4" />
<path d="M1057.3,366.24L1057.3,422.34" style="fill:none;stroke:#FF7AB4" />
<path d="M1054.8,366.24L1059.8,366.24" style="fill:none;stroke:#FF7AB4" />
<path d="M1054.8,422.34L1059.8,422.34" style="fill:none;stroke:#FF7AB4" />
<path d="M1066.1,358.36L1066.1,387.01" style="fill:none;stroke:#FF7AB4" />
<path d="M1063.6,358.36L1068.6,358.36" style="fill:none;stroke:#FF7AB4" />
<path d="M1063.6,387.01L1068.6,387.01" style="fill:none;stroke:#FF7AB4" />
<path d="M1075,374.81L1075,385.83" style="fill:none;stroke:#FF7AB4" />
<path d="M1072.5,374.81L1077.5,374.81" style="fill:none;stroke:#FF7AB4" />
<path d="M1072.5,385.83L1077.5,385.83" style="fill:none;stroke:#FF7AB4" />
<path d="M220.73,345.02A5,5 0 1 1 210.73,345.02A5,5 0 1 1 220.73,345.02Z" style="fill:#FF7AB4" />
<path d="M229.59,396.51A5,5 0 1 1 219.59,396.51A5,5 0 1 1 229.59,396.51Z" style="fill:#FF7AB4" />
<path d="M238.45,392.9A5,5 0 1 1 228.45,392.9A5,5 0 1 1 238.45,392.9Z" style="fill:#FF7AB4" />
<path d="M247.31,367.96A5,5 0 1 1 237.31,367.96A5,5 0 1 1 247.31,367.96Z" style="fill:#FF7AB4" />
<path d="M256.16,355.97A5,5 0 1 1 246.16,355.97A5,5 0 1 1 256.16,355.97Z" style="fill:#FF7AB4" />
<path d="M265.02,376.14A5,5 0 1 1 255.02,376.14A5,5 0 1 1 265.02,376.14Z" style="fill:#FF7AB4" />
<path d="M273.88,358.92A5,5 0 1 1 263.88,358.92A5,5 0 1 1 273.88,358.92Z" style="fill:#FF7AB4" />
<path d="M282.74,382.33A5,5 0 1 1 272.74,382.33A5,5 0 1 1 282.74,382.33Z" style="fill:#FF7AB4" />
<path d="M291.6,434.96A5,5 0 1 1 281.6,434.96A5,5 0 1 1 291.6,434.96Z" style="fill:#FF7AB4" />
<path d="M300.46,402.75A5,5 0 1 1 290.46,402.75A5,5 0 1 1 300.46,402.75Z" style="fill:#FF7AB4" />
<path d="M309.31,375.9A5,5 0 1 1 299.31,375.9A5,5 0 1 1 309.31,375.9Z" style="fill:#FF7AB4" />
<path d="M318.17,356.22A5,5 0 1 1 308.17,356.22A5,5 0 1 1 318.17,356.22Z" style="fill:#FF7AB4" />
<path d="M327.03,441.29A5,5 0 1 1 317.03,441.29A5,5 0 1 1 327.03,441.29Z" style="fill:#FF7AB4" />
<path d="M335.89,399.6A5,5 0 1 1 325.89,399.6A5,5 0 1 1 335.89,399.6Z" style="fill:#FF7AB4" />
<path d="M344.75,324.28A5,5 0 1 1 334.75,324.28A5,5 0 1 1 344.75,324.28Z" style="fill:#FF7AB4" />
<path d="M353.61,400.83A5,5 0 1 1 343.61,400.83A5,5 0 1 1 353.61,400.83Z" style="fill:#FF7AB4" />
<path d="M362.47,347.26A5,5 0 1 1 352.47,347.26A5,5 0 1 1 362.47,347.26Z" style="fill:#FF7AB4" />
<path d="M371.32,375.45A5,5 0 1 1 361.32,375.45A5,5 0 1 1 371.32,375.45Z" style="fill:#FF7AB4" />
<path d="M380.18,426.54A5,5 0 1 1 370.18,426.54A5,5 0 1 1 380.18,426.54Z" style="fill:#FF7AB4" />
<path d="M389.04,386.41A5,5 0 1 1 379.04,386.41A5,5 0 1 1 389.04,386.41Z" style="fill:#FF7AB4" />
<path d="M397.9,409.31A5,5 0 1 1 387.9,409.31A5,5 0 1 1 397.9,409.31Z" style="fill:#FF7AB4" />
<path d="M406.76,392.85A5,5 0 1 1 396.76,392.85A5,5 0 1 1 406.76,392.85Z" style="fill:#FF7AB4" />
<path d="M415.62,375.93A5,5 0 1 1 405.62,375.93A5,5 0 1 1 415.62,375.93Z" style="fill:#FF7AB4" />
<path d="M424.47,338.81A5,5 0 1 1 414.47,338.81A5,5 0 1 1 424.47,338.81Z" style="fill:#FF7AB4" />
<path d="M433.33,368.44A5,5 0 1 1 423.33,368.44A5,5 0 1 1 433.33,368.44Z" style="fill:#FF7AB4" />
<path d="M442.19,323.7A5,5 0 1 1 432.19,323.7A5,5 0 1 1 442.19,323.7Z" style="fill:#FF7AB4" />
<path d="M451.05,410.27A5,5 0 1 1 441.05,410.27A5,5 0 1 1 451.05,410.27Z" style="fill:#FF7AB4" />
<path d="M459.91,403.91A5,5 0 1 1 449.91,403.91A5,5 0 1 1 459.91,403.91Z" style="fill:#FF7AB4" />
<path d="M468.77,406.43A5,5 0 1 1 458.77,406.43A5,5 0 1 1 468.77,406.43Z" style="fill:#FF7AB4" />
<path d="M477.63,367.57A5,5 0 1 1 467.63,367.57A5,5 0 1 1 477.63,367.57Z" style="fill:#FF7AB4" />
<path d="M486.48,366.7A5,5 0 1 1 476.48,366.7A5,5 0 1 1 486.48,366.7Z" style="fill:#FF7AB4" />
<path d="M495.34,439.77A5,5 0 1 1 485.34,439.77A5,5 0 1 1 495.34,439.77Z" style="fill:#FF7AB4" />
<path d="M504.2,371.82A5,5 0 1 1 494.2,371.82A5,5 0 1 1 504.2,371.82Z" style="fill:#FF7AB4" />
<path d="M513.06,405.39A5,5 0 1 1 503.06,405.39A5,5 0 1 1 513.06,405.39Z" style="fill:#FF7AB4" />
<path d="M521.92,368.09A5,5 0 1 1 511.92,368.09A5,5 0 1 1 521.92,368.09Z" style="fill:#FF7AB4" />
<path d="M530.78,388.31A5,5 0 1 1 520.78,388.31A5,5 0 1 1 530.78,388.31Z" style="fill:#FF7AB4" />
<path d="M539.63,400.6A5,5 0 1 1 529.63,400.6A5,5 0 1 1 539.63,400.6Z" style="fill:#FF7AB4" />
<path d="M548.49,333.21A5,5 0 1 1 538.49,333.21A5,5 0 1 1 548.49,333.21Z" style="fill:#FF7AB4" />
<path d="M557.35,378.8A5,5 0 1 1 547.35,378.8A5,5 0 1 1 557.35,378.8Z" style="fill:#FF7AB4" />
<path d="M566.21,380.8A5,5 0 1 1 556.21,380.8A5,5 0 1 1 566.21,380.8Z" style="fill:#FF7AB4" />
<path d="M575.07,478.53A5,5 0 1 1 565.07,478.53A5,5 0 1 1 575.07,478.53Z" style="fill:#FF7AB4" />
<path d="M583.93,422.12A5,5 0 1 1 573.93,422.12A5,5 0 1 1 583.93,422.12Z" style="fill:#FF7AB4" />
<path d="M592.79,448.46A5,5 0 1 1 582.79,448.46A5,5 0 1 1 592.79,448.46Z" style="fill:#FF7AB4" />
<path d="M601.64,474.77A5,5 0 1 1 591.64,474.77A5,5 0 1 1 601.64,474.77Z" style="fill:#FF7AB4" />
<path d="M610.5,476.3A5,5 0 1 1 600.5,476.3A5,5 0 1 1 610.5,476.3Z" style="fill:#FF7AB4" />
<path d="M619.36,491.84A5,5 0 1 1 609.36,491.84A5,5 0 1 1 619.36,491.84Z" style="fill:#FF7AB4" />
<path d="M628.22,503.08A5,5 0 1 1 618.22,503.08A5,5 0 1 1 628.22,503.08Z" style="fill:#FF7AB4" />
<path d="M637.08,552.14A5,5 0 1 1 627.08,552.14A5,5 0 1 1 637.08,552.14Z" style="fill:#FF7AB4" />
<path d="M645.94,594.7A5,5 0 1 1 635.94,594.7A5,5 0 1 1 645.94,594.7Z" style="fill:#FF7AB4" />
<path d="M654.79,597.49A5,5 0 1 1 644.79,597.49A5,5 0 1 1 654.79,597.49Z" style="fill:#FF7AB4" />
<path d="M663.65,603.72A5,5 0 1 1 653.65,603.72A5,5 0 1 1 663.65,603.72Z" style="fill:#FF7AB4" />
<path d="M672.51,616.88A5,5 0 1 1 662.51,616.88A5,5 0 1 1 672.51,616.88Z" style="fill:#FF7AB4" />
<path d="M681.37,558.53A5,5 0 1 1 671.37,558.53A5,5 0 1 1 681.37,558.53Z" style="fill:#FF7AB4" />
<path d="M690.23,547.8A5,5 0 1 1 680.23,547.8A5,5 0 1 1 690.23,547.8Z" style="fill:#FF7AB4" />
<path d="M699.09,546.69A5,5 0 1 1 689.09,546.69A5,5 0 1 1 699.09,546.69Z" style="fill:#FF7AB4" />
<path d="M707.95,473.97A5,5 0 1 1 697.95,473.97A5,5 0 1 1 707.95,473.97Z" style="fill:#FF7AB4" />
<path d="M716.8,466.1A5,5 0 1 1 706.8,466.1A5,5 0 1 1 716.8,466.1Z" style="fill:#FF7AB4" />
<path d="M725.66,435.92A5,5 0 1 1 715.66,435.92A5,5 0 1 1 725.66,435.92Z" style="fill:#FF7AB4" />
<path d="M734.52,466.03A5,5 0 1 1 724.52,466.03A5,5 0 1 1 734.52,466.03Z" style="fill:#FF7AB4" />
<path d="M743.38,437.7A5,5 0 1 1 733.38,437.7A5,5 0 1 1 743.38,437.7Z" style="fill:#FF7AB4" />
<path d="M752.24,447.26A5,5 0 1 1 742.24,447.26A5,5 0 1 1 752.24,447.26Z" style="fill:#FF7AB4" />
<path d="M761.1,395.09A5,5 0 1 1 751.1,395.09A5,5 0 1 1 761.1,395.09Z" style="fill:#FF7AB4" />
<path d="M769.95,392.11A5,5 0 1 1 759.95,392.11A5,5 0 1 1 769.95,392.11Z" style="fill:#FF7AB4" />
<path d="M778.81,399.83A5,5 0 1 1 768.81,399.83A5,5 0 1 1 778.81,399.83Z" style="fill:#FF7AB4" />
<path d="M787.67,426.66A5,5 0 1 1 777.67,426.66A5,5 0 1 1 787.67,426.66Z" style="fill:#FF7AB4" />
<path d="M796.53,389.02A5,5 0 1 1 786.53,389.02A5,5 0 1 1 796.53,389.02Z" style="fill:#FF7AB4" />
<path d="M805.39,430A5,5 0 1 1 795.39,430A5,5 0 1 1 805.39,430Z" style="fill:#FF7AB4" />
<path d="M814.25,388.78A5,5 0 1 1 804.25,388.78A5,5 0 1 1 814.25,388.78Z" style="fill:#FF7AB4" />
<path d="M823.1,431.05A5,5 0 1 1 813.1,431.05A5,5 0 1 1 823.1,431.05Z" style="fill:#FF7AB4" />
<path d="M831.96,346.83A5,5 0 1 1 821.96,346.83A5,5 0 1 1 831.96,346.83Z" style="fill:#FF7AB4" />
<path d="M840.82,393.85A5,5 0 1 1 830.82,393.85A5,5 0 1 1 840.82,393.85Z" style="fill:#FF7AB4" />
<path d="M849.68,398.89A5,5 0 1 1 839.68,398.89A5,5 0 1 1 849.68,398.89Z" style="fill:#FF7AB4" />
<path d="M858.54,385.73A5,5 0 1 1 848.54,385.73A5,5 0 1 1 858.54,385.73Z" style="fill:#FF7AB4" />
<path d="M867.4,377.61A5,5 0 1 1 857.4,377.61A5,5 0 1 1 867.4,377.61Z" style="fill:#FF7AB4" />
<path d="M876.26,395.57A5,5 0 1 1 866.26,395.57A5,5 0 1 1 876.26,395.57Z" style="fill:#FF7AB4" />
<path d="M885.11,385.18A5,5 0 1 1 875.11,385.18A5,5 0 1 1 885.11,385.18Z" style="fill:#FF7AB4" />
<path d="M893.97,368.83A5,5 0 1 1 883.97,368.83A5,5 0 1 1 893.97,368.83Z" style="fill:#FF7AB4" />
<path d="M902.83,392.08A5,5 0 1 1 892.83,392.08A5,5 0 1 1 902.83,392.08Z" style="fill:#FF7AB4" />
<path d="M911.69,382.57A5,5 0 1 1 901.69,382.57A5,5 0 1 1 911.69,382.57Z" style="fill:#FF7AB4" />
<path d="M920.55,396.82A5,5 0 1 1 910.55,396.82A5,5 0 1 1 920.55,396.82Z" style="fill:#FF7AB4" />
<path d="M929.41,354.73A5,5 0 1 1 919.41,354.73A5,5 0 1 1 929.41,354.73Z" style="fill:#FF7AB4" />
<path d="M938.26,386.73A5,5 0 1 1 928.26,386.73A5,5 0 1 1 938.26,386.73Z" style="fill:#FF7AB4" />
<path d="M947.12,375.59A5,5 0 1 1 937.12,375.59A5,5 0 1 1 947.12,375.59Z" style="fill:#FF7AB4" />
<path d="M955.98,372.49A5,5 0 1 1 945.98,372.49A5,5 0 1 1 955.98,372.49Z" style="fill:#FF7AB4" />
<path d="M964.84,374.47A5,5 0 1 1 954.84,374.47A5,5 0 1 1 964.84,374.47Z" style="fill:#FF7AB4" />
<path d="M973.7,430.08A5,5 0 1 1 963.7,430.08A5,5 0 1 1 973.7,430.08Z" style="fill:#FF7AB4" />
<path d="M982.56,415.8A5,5 0 1 1 972.56,415.8A5,5 0 1 1 982.56,415.8Z" style="fill:#FF7AB4" />
<path d="M991.42,350.35A5,5 0 1 1 981.42,350.35A5,5 0 1 1 991.42,350.35Z" style="fill:#FF7AB4" />
<path d="M1000.3,451.28A5,5 0 1 1 990.27,451.28A5,5 0 1 1 1000.3,451.28Z" style="fill:#FF7AB4" />
<path d="M1009.1,408.72A5,5 0 1 1 999.13,408.72A5,5 0 1 1 1009.1,408.72Z" style="fill:#FF7AB4" />
<path d="M1018,393.2A5,5 0 1 1 1008,393.2A5,5 0 1 1 1018,393.2Z" style="fill:#FF7AB4" />
<path d="M1026.8,383.14A5,5 0 1 1 1016.8,383.14A5,5 0 1 1 1026.8,383.14Z" style="fill:#FF7AB4" />
<path d="M1035.7,361.45A5,5 0 1 1 1025.7,361.45A5,5 0 1 1 1035.7,361.45Z" style="fill:#FF7AB4" />
<path d="M1044.6,433.11A5,5 0 1 1 1034.6,433.11A5,5 0 1 1 1044.6,433.11Z" style="fill:#FF7AB4" />
<path d="M1053.4,413.98A5,5 0 1 1 1043.4,413.98A5,5 0 1 1 1053.4,413.98Z" style="fill:#FF7AB4" />
<path d="M1062.3,394.29A5,5 0 1 1 1052.3,394.29A5,5 0 1 1 1062.3,394.29Z" style="fill:#FF7AB4" />
<path d="M1071.1,372.69A5,5 0 1 1 1061.1,372.69A5,5 0 1 1 1071.1,372.69Z" style="fill:#FF7AB4" />
<path d="M1080,380.32A5,5 0 1 1 1070,380.32A5,5 0 1 1 1080,380.32Z" style="fill:#FF7AB4" />
<path d="M215.73,974.14L1075,974.14" style="fill:none;stroke:#000000" />
<path d="M1075,136.74L1075,974.14" style="fill:none;stroke:#000000" />
<path d="M215.73,388.59L215.73,447.15" style="fill:none;stroke:#7A9CFF" />
<path d="M213.23,388.59L218.23,388.59" style="fill:none;stroke:#7A9CFF" />
<path d="M213.23,447.15L218.23,447.15" style="fill:none;stroke:#7A9CFF" />
<path d="M224.59,322.69L224.59,400.21" style="fill:none;stroke:#7A9CFF" />
<path d="M222.09,322.69L227.09,322.69" style="fill:none;stroke:#7A9CFF" />
<path d="M222.09,400.21L227.09,400.21" style="fill:none;stroke:#7A9CFF" />
<path d="M233.45,339.01L233.45,377.46" style="fill:none;stroke:#7A9CFF" />
<path d="M230.95,339.01L235.95,339.01" style="fill:none;stroke:#7A9CFF" />
<path d="M230.95,377.46L235.95,377.46" style="fill:none;stroke:#7A9CFF" />
<path d="M242.31,341.49L242.31,425.25" style="fill:none;stroke:#7A9CFF" />
<path d="M239.81,341.49L244.81,341.49" style="fill:none;stroke:#7A9CFF" />
<path d="M239.81,425.25L244.81,425.25" style="fill:none;stroke:#7A9CFF" />
<path d="M251.16,410.32L251.16,453.76" style="fill:none;stroke:#7A9CFF" />
<path d="M248.66,410.32L253.66,410.32" style="fill:none;stroke:#7A9CFF" />
<path d="M248.66,453.76L253.66,453.76" style="fill:none;stroke:#7A9CFF" />
<path d="M260.02,298.31L260.02,400.55" style="fill:none;stroke:#7A9CFF" />
<path d="M257.52,298.31L262.52,298.31" style="fill:none;stroke:#7A9CFF" />
<path d="M257.52,400.55L262.52,400.55" style="fill:none;stroke:#7A9CFF" />
<path d="M268.88,338.35L268.88,388.35" style="fill:none;stroke:#7A9CFF" />
<path d="M266.38,338.35L271.38,338.35" style="fill:none;stroke:#7A9CFF" />
<path d="M266.38,388.35L271.38,388.35" style="fill:none;stroke:#7A9CFF" />
<path d="M277.74,318.47L277.74,389.9" style="fill:none;stroke:#7A9CFF" />
<path d="M275.24,318.47L280.24,318.47" style="fill:none;stroke:#7A9CFF" />
<path d="M275.24,389.9L280.24,389.9" style="fill:none;stroke:#7A9CFF" />
<path d="M286.6,303.62L286.6,409.11" style="fill:none;stroke:#7A9CFF" />
<path d="M284.1,303.62L289.1,303.62" style="fill:none;stroke:#7A9CFF" />
<path d="M284.1,409.11L289.1,409.11" style="fill:none;stroke:#7A9CFF" />
<path d="M295.46,378.52L295.46,446.9" style="fill:none;stroke:#7A9CFF" />
<path d="M292.96,378.52L297.96,378.52" style="fill:none;stroke:#7A9CFF" />
<path d="M292.96,446.9L297.96,446.9" style="fill:none;stroke:#7A9CFF" />
<path d="M304.31,272.24L304.31,363.29" style="fill:none;stroke:#7A9CFF" />
<path d="M301.81,272.24L306.81,272.24" style="fill:none;stroke:#7A9CFF" />
<path d="M301.81,363.29L306.81,363.29" style="fill:none;stroke:#7A9CFF" />
<path d="M313.17,317.36L313.17,386.17" style="fill:none;stroke:#7A9CFF" />
<path d="M310.67,317.36L315.67,317.36" style="fill:none;stroke:#7A9CFF" />
<path d="M310.67,386.17L315.67,386.17" style="fill:none;stroke:#7A9CFF" />
<path d="M322.03,343.22L322.03,442.28" style="fill:none;stroke:#7A9CFF" />
<path d="M319.53,343.22L324.53,343.22" style="fill:none;stroke:#7A9CFF" />
<path d="M319.53,442.28L324.53,442.28" style="fill:none;stroke:#7A9CFF" />
<path d="M330.89,300.77L330.89,420.03" style="fill:none;stroke:#7A9CFF" />
<path d="M328.39,300.77L333.39,300.77" style="fill:none;stroke:#7A9CFF" />
<path d="M328.39,420.03L333.39,420.03" style="fill:none;stroke:#7A9CFF" />
<path d="M339.75,324.15L339.75,416.04" style="fill:none;stroke:#7A9CFF" />
<path d="M337.25,324.15L342.25,324.15" style="fill:none;stroke:#7A9CFF" />
<path d="M337.25,416.04L342.25,416.04" style="fill:none;stroke:#7A9CFF" />
<path d="M348.61,378.94L348.61,488.02" style="fill:none;stroke:#7A9CFF" />
<path d="M346.11,378.94L351.11,378.94" style="fill:none;stroke:#7A9CFF" />
<path d="M346.11,488.02L351.11,488.02" style="fill:none;stroke:#7A9CFF" />
<path d="M357.47,365.59L357.47,399.32" style="fill:none;stroke:#7A9CFF" />
<path d="M354.97,365.59L359.97,365.59" style="fill:none;stroke:#7A9CFF" />
<path d="M354.97,399.32L359.97,399.32" style="fill:none;stroke:#7A9CFF" />
<path d="M366.32,336.84L366.32,440.06" style="fill:none;stroke:#7A9CFF" />
<path d="M363.82,336.84L368.82,336.84" style="fill:none;stroke:#7A9CFF" />
<path d="M363.82,440.06L368.82,440.06" style="fill:none;stroke:#7A9CFF" />
<path d="M375.18,325.47L375.18,427.37" style="fill:none;stroke:#7A9CFF" />
<path d="M372.68,325.47L377.68,325.47" style="fill:none;stroke:#7A9CFF" />
<path d="M372.68,427.37L377.68,427.37" style="fill:none;stroke:#7A9CFF" />
<path d="M384.04,276.13L384.04,361.64" style="fill:none;stroke:#7A9CFF" />
<path d="M381.54,276.13L386.54,276.13" style="fill:none;stroke:#7A9CFF" />
<path d="M381.54,361.64L386.54,361.64" style="fill:none;stroke:#7A9CFF" />
<path d="M392.9,331.58L392.9,413.81" style="fill:none;stroke:#7A9CFF" />
<path d="M390.4,331.58L395.4,331.58" style="fill:none;stroke:#7A9CFF" />
<path d="M390.4,413.81L395.4,413.81" style="fill:none;stroke:#7A9CFF" />
<path d="M401.76,297.38L401.76,424.05" style="fill:none;stroke:#7A9CFF" />
<path d="M399.26,297.38L404.26,297.38" style="fill:none;stroke:#7A9CFF" />
<path d="M399.26,424.05L404.26,424.05" style="fill:none;stroke:#7A9CFF" />
<path d="M410.62,320.6L410.62,416.28" style="fill:none;stroke:#7A9CFF" />
<path d="M408.12,320.6L413.12,320.6" style="fill:none;stroke:#7A9CFF" />
<path d="M408.12,416.28L413.12,416.28" style="fill:none;stroke:#7A9CFF" />
<path d="M419.47,298.01L419.47,371.07" style="fill:none;stroke:#7A9CFF" />
<path d="M416.97,298.01L421.97,298.01" style="fill:none;stroke:#7A9CFF" />
<path d="M416.97,371.07L421.97,371.07" style="fill:none;stroke:#7A9CFF" />
<path d="M428.33,452.25L428.33,496.74" style="fill:none;stroke:#7A9CFF" />
<path d="M425.83,452.25L430.83,452.25" style="fill:none;stroke:#7A9CFF" />
<path d="M425.83,496.74L430.83,496.74" style="fill:none;stroke:#7A9CFF" />
<path d="M437.19,374.52L437.19,466.28" style="fill:none;stroke:#7A9CFF" />
<path d="M434.69,374.52L439.69,374.52" style="fill:none;stroke:#7A9CFF" />
<path d="M434.69,466.28L439.69,466.28" style="fill:none;stroke:#7A9CFF" />
<path d="M446.05,274.47L446.05,392.54" style="fill:none;stroke:#7A9CFF" />
<path d="M443.55,274.47L448.55,274.47" style="fill:none;stroke:#7A9CFF" />
<path d="M443.55,392.54L448.55,392.54" style="fill:none;stroke:#7A9CFF" />
<path d="M454.91,266.32L454.91,334.93" style="fill:none;stroke:#7A9CFF" />
<path d="M452.41,266.32L457.41,266.32" style="fill:none;stroke:#7A9CFF" />
<path d="M452.41,334.93L457.41,334.93" style="fill:none;stroke:#7A9CFF" />
<path d="M463.77,389.63L463.77,413.88" style="fill:none;stroke:#7A9CFF" />
<path d="M461.27,389.63L466.27,389.63" style="fill:none;stroke:#7A9CFF" />
<path d="M461.27,413.88L466.27,413.88" style="fill:none;stroke:#7A9CFF" />
<path d="M472.63,373.68L472.63,438" style="fill:none;stroke:#7A9CFF" />
<path d="M470.13,373.68L475.13,373.68" style="fill:none;stroke:#7A9CFF" />
<path d="M470.13,438L475.13,438" style="fill:none;stroke:#7A9CFF" />
<path d="M481.48,397.85L481.48,485.39" style="fill:none;stroke:#7A9CFF" />
<path d="M478.98,397.85L483.98,397.85" style="fill:none;stroke:#7A9CFF" />
<path d="M478.98,485.39L483.98,485.39" style="fill:none;stroke:#7A9CFF" />
<path d="M490.34,341.53L490.34,389.94" style="fill:none;stroke:#7A9CFF" />
<path d="M487.84,341.53L492.84,341.53" style="fill:none;stroke:#7A9CFF" />
<path d="M487.84,389.94L492.84,389.94" style="fill:none;stroke:#7A9CFF" />
<path d="M499.2,272.08L499.2,395.96" style="fill:none;stroke:#7A9CFF" />
<path d="M496.7,272.08L501.7,272.08" style="fill:none;stroke:#7A9CFF" />
<path d="M496.7,395.96L501.7,395.96" style="fill:none;stroke:#7A9CFF" />
<path d="M508.06,293.83L508.06,410.81" style="fill:none;stroke:#7A9CFF" />
<path d="M505.56,293.83L510.56,293.83" style="fill:none;stroke:#7A9CFF" />
<path d="M505.56,410.81L510.56,410.81" style="fill:none;stroke:#7A9CFF" />
<path d="M516.92,353.52L516.92,464.17" style="fill:none;stroke:#7A9CFF" />
<path d="M514.42,353.52L519.42,353.52" style="fill:none;stroke:#7A9CFF" />
<path d="M514.42,464.17L519.42,464.17" style="fill:none;stroke:#7A9CFF" />
<path d="M525.78,349.49L525.78,439.1" style="fill:none;stroke:#7A9CFF" />
<path d="M523.28,349.49L528.28,349.49" style="fill:none;stroke:#7A9CFF" />
<path d="M523.28,439.1L528.28,439.1" style="fill:none;stroke:#7A9CFF" />
<path d="M534.63,366.1L534.63,460.6" style="fill:none;stroke:#7A9CFF" />
<path d="M532.13,366.1L537.13,366.1" style="fill:none;stroke:#7A9CFF" />
<path d="M532.13,460.6L537.13,460.6" style="fill:none;stroke:#7A9CFF" />
<path d="M543.49,337.44L543.49,365.19" style="fill:none;stroke:#7A9CFF" />
<path d="M540.99,337.44L545.99,337.44" style="fill:none;stroke:#7A9CFF" />
<path d="M540.99,365.19L545.99,365.19" style="fill:none;stroke:#7A9CFF" />
<path d="M552.35,335.42L552.35,426.69" style="fill:none;stroke:#7A9CFF" />
<path d="M549.85,335.42L554.85,335.42" style="fill:none;stroke:#7A9CFF" />
<path d="M549.85,426.69L554.85,426.69" style="fill:none;stroke:#7A9CFF" />
<path d="M561.21,299.55L561.21,349.54" style="fill:none;stroke:#7A9CFF" />
<path d="M558.71,299.55L563.71,299.55" style="fill:none;stroke:#7A9CFF" />
<path d="M558.71,349.54L563.71,349.54" style="fill:none;stroke:#7A9CFF" />
<path d="M570.07,347.97L570.07,404.7" style="fill:none;stroke:#7A9CFF" />
<path d="M567.57,347.97L572.57,347.97" style="fill:none;stroke:#7A9CFF" />
<path d="M567.57,404.7L572.57,404.7" style="fill:none;stroke:#7A9CFF" />
<path d="M578.93,416L578.93,484.69" style="fill:none;stroke:#7A9CFF" />
<path d="M576.43,416L581.43,416" style="fill:none;stroke:#7A9CFF" />
<path d="M576.43,484.69L581.43,484.69" style="fill:none;stroke:#7A9CFF" />
<path d="M587.79,382.34L587.79,475" style="fill:none;stroke:#7A9CFF" />
<path d="M585.29,382.34L590.29,382.34" style="fill:none;stroke:#7A9CFF" />
<path d="M585.29,475L590.29,475" style="fill:none;stroke:#7A9CFF" />
<path d="M596.64,410.19L596.64,498.06" style="fill:none;stroke:#7A9CFF" />
<path d="M594.14,410.19L599.14,410.19" style="fill:none;stroke:#7A9CFF" />
<path d="M594.14,498.06L599.14,498.06" style="fill:none;stroke:#7A9CFF" />
<path d="M605.5,365.46L605.5,429.57" style="fill:none;stroke:#7A9CFF" />
<path d="M603,365.46L608,365.46" style="fill:none;stroke:#7A9CFF" />
<path d="M603,429.57L608,429.57" style="fill:none;stroke:#7A9CFF" />
<path d="M614.36,420.63L614.36,533.84" style="fill:none;stroke:#7A9CFF" />
<path d="M611.86,420.63L616.86,420.63" style="fill:none;stroke:#7A9CFF" />
<path d="M611.86,533.84L616.86,533.84" style="fill:none;stroke:#7A9CFF" />
<path d="M623.22,479.97L623.22,523.67" style="fill:none;stroke:#7A9CFF" />
<path d="M620.72,479.97L625.72,479.97" style="fill:none;stroke:#7A9CFF" />
<path d="M620.72,523.67L625.72,523.67" style="fill:none;stroke:#7A9CFF" />
<path d="M632.08,558.88L632.08,606.51" style="fill:none;stroke:#7A9CFF" />
<path d="M629.58,558.88L634.58,558.88" style="fill:none;stroke:#7A9CFF" />
<path d="M629.58,606.51L634.58,606.51" style="fill:none;stroke:#7A9CFF" />
<path d="M640.94,587.56L640.94,618.69" style="fill:none;stroke:#7A9CFF" />
<path d="M638.44,587.56L643.44,587.56" style="fill:none;stroke:#7A9CFF" />
<path d="M638.44,618.69L643.44,618.69" style="fill:none;stroke:#7A9CFF" />
<path d="M649.79,486.25L649.79,603.79" style="fill:none;stroke:#7A9CFF" />
<path d="M647.29,486.25L652.29,486.25" style="fill:none;stroke:#7A9CFF" />
<path d="M647.29,603.79L652.29,603.79" style="fill:none;stroke:#7A9CFF" />
<path d="M658.65,650.98L658.65,752.34" style="fill:none;stroke:#7A9CFF" />
<path d="M656.15,650.98L661.15,650.98" style="fill:none;stroke:#7A9CFF" />
<path d="M656.15,752.34L661.15,752.34" style="fill:none;stroke:#7A9CFF" />
<path d="M667.51,612.93L667.51,690.33" style="fill:none;stroke:#7A9CFF" />
<path d="M665.01,612.93L670.01,612.93" style="fill:none;stroke:#7A9CFF" />
<path d="M665.01,690.33L670.01,690.33" style="fill:none;stroke:#7A9CFF" />
<path d="M676.37,491.1L676.37,588.17" style="fill:none;stroke:#7A9CFF" />
<path d="M673.87,491.1L678.87,491.1" style="fill:none;stroke:#7A9CFF" />
<path d="M673.87,588.17L678.87,588.17" style="fill:none;stroke:#7A9CFF" />
<path d="M685.23,467.48L685.23,552.63" style="fill:none;stroke:#7A9CFF" />
<path d="M682.73,467.48L687.73,467.48" style="fill:none;stroke:#7A9CFF" />
<path d="M682.73,552.63L687.73,552.63" style="fill:none;stroke:#7A9CFF" />
<path d="M694.09,483.07L694.09,500.43" style="fill:none;stroke:#7A9CFF" />
<path d="M691.59,483.07L696.59,483.07" style="fill:none;stroke:#7A9CFF" />
<path d="M691.59,500.43L696.59,500.43" style="fill:none;stroke:#7A9CFF" />
<path d="M702.95,371.01L702.95,431.33" style="fill:none;stroke:#7A9CFF" />
<path d="M700.45,371.01L705.45,371.01" style="fill:none;stroke:#7A9CFF" />
<path d="M700.45,431.33L705.45,431.33" style="fill:none;stroke:#7A9CFF" />
<path d="M711.8,391.2L711.8,438.59" style="fill:none;stroke:#7A9CFF" />
<path d="M709.3,391.2L714.3,391.2" style="fill:none;stroke:#7A9CFF" />
<path d="M709.3,438.59L714.3,438.59" style="fill:none;stroke:#7A9CFF" />
<path d="M720.66,395.05L720.66,503.3" style="fill:none;stroke:#7A9CFF" />
<path d="M718.16,395.05L723.16,395.05" style="fill:none;stroke:#7A9CFF" />
<path d="M718.16,503.3L723.16,503.3" style="fill:none;stroke:#7A9CFF" />
<path d="M729.52,424.53L729.52,491.99" style="fill:none;stroke:#7A9CFF" />
<path d="M727.02,424.53L732.02,424.53" style="fill:none;stroke:#7A9CFF" />
<path d="M727.02,491.99L732.02,491.99" style="fill:none;stroke:#7A9CFF" />
<path d="M738.38,372.28L738.38,464.21" style="fill:none;stroke:#7A9CFF" />
<path d="M735.88,372.28L740.88,372.28" style="fill:none;stroke:#7A9CFF" />
<path d="M735.88,464.21L740.88,464.21" style="fill:none;stroke:#7A9CFF" />
<path d="M747.24,307.73L747.24,356.82" style="fill:none;stroke:#7A9CFF" />
<path d="M744.74,307.73L749.74,307.73" style="fill:none;stroke:#7A9CFF" />
<path d="M744.74,356.82L749.74,356.82" style="fill:none;stroke:#7A9CFF" />
<path d="M756.1,353.41L756.1,392.49" style="fill:none;stroke:#7A9CFF" />
<path d="M753.6,353.41L758.6,353.41" style="fill:none;stroke:#7A9CFF" />
<path d="M753.6,392.49L758.6,392.49" style="fill:none;stroke:#7A9CFF" />
<path d="M764.95,460.82L764.95,493.46" style="fill:none;stroke:#7A9CFF" />
<path d="M762.45,460.82L767.45,460.82" style="fill:none;stroke:#7A9CFF" />
<path d="M762.45,493.46L767.45,493.46" style="fill:none;stroke:#7A9CFF" />
<path d="M773.81,448.9L773.81,473.49" style="fill:none;stroke:#7A9CFF" />
<path d="M771.31,448.9L776.31,448.9" style="fill:none;stroke:#7A9CFF" />
<path d="M771.31,473.49L776.31,473.49" style="fill:none;stroke:#7A9CFF" />
<path d="M782.67,338.67L782.67,410.59" style="fill:none;stroke:#7A9CFF" />
<path d="M780.17,338.67L785.17,338.67" style="fill:none;stroke:#7A9CFF" />
<path d="M780.17,410.59L785.17,410.59" style="fill:none;stroke:#7A9CFF" />
<path d="M791.53,393.54L791.53,457.27" style="fill:none;stroke:#7A9CFF" />
<path d="M789.03,393.54L794.03,393.54" style="fill:none;stroke:#7A9CFF" />
<path d="M789.03,457.27L794.03,457.27" style="fill:none;stroke:#7A9CFF" />
<path d="M800.39,429.28L800.39,502.42" style="fill:none;stroke:#7A9CFF" />
<path d="M797.89,429.28L802.89,429.28" style="fill:none;stroke:#7A9CFF" />
<path d="M797.89,502.42L802.89,502.42" style="fill:none;stroke:#7A9CFF" />
<path d="M809.25,397.93L809.25,427.81" style="fill:none;stroke:#7A9CFF" />
<path d="M806.75,397.93L811.75,397.93" style="fill:none;stroke:#7A9CFF" />
<path d="M806.75,427.81L811.75,427.81" style="fill:none;stroke:#7A9CFF" />
<path d="M818.1,379.46L818.1,414.38" style="fill:none;stroke:#7A9CFF" />
<path d="M815.6,379.46L820.6,379.46" style="fill:none;stroke:#7A9CFF" />
<path d="M815.6,414.38L820.6,414.38" style="fill:none;stroke:#7A9CFF" />
<path d="M826.96,368.65L826.96,447.01" style="fill:none;stroke:#7A9CFF" />
<path d="M824.46,368.65L829.46,368.65" style="fill:none;stroke:#7A9CFF" />
<path d="M824.46,447.01L829.46,447.01" style="fill:none;stroke:#7A9CFF" />
<path d="M835.82,366.91L835.82,413" style="fill:none;stroke:#7A9CFF" />
<path d="M833.32,366.91L838.32,366.91" style="fill:none;stroke:#7A9CFF" />
<path d="M833.32,413L838.32,413" style="fill:none;stroke:#7A9CFF" />
<path d="M844.68,363.12L844.68,443.96" style="fill:none;stroke:#7A9CFF" />
<path d="M842.18,363.12L847.18,363.12" style="fill:none;stroke:#7A9CFF" />
<path d="M842.18,443.96L847.18,443.96" style="fill:none;stroke:#7A9CFF" />
<path d="M853.54,354.9L853.54,453.21" style="fill:none;stroke:#7A9CFF" />
<path d="M851.04,354.9L856.04,354.9" style="fill:none;stroke:#7A9CFF" />
<path d="M851.04,453.21L856.04,453.21" style="fill:none;stroke:#7A9CFF" />
<path d="M862.4,344.04L862.4,467.63" style="fill:none;stroke:#7A9CFF" />
<path d="M859.9,344.04L864.9,344.04" style="fill:none;stroke:#7A9CFF" />
<path d="M859.9,467.63L864.9,467.63" style="fill:none;stroke:#7A9CFF" />
<path d="M871.26,381.25L871.26,428.48" style="fill:none;stroke:#7A9CFF" />
<path d="M868.76,381.25L873.76,381.25" style="fill:none;stroke:#7A9CFF" />
<path d="M868.76,428.48L873.76,428.48" style="fill:none;stroke:#7A9CFF" />
<path d="M880.11,358.58L880.11,424.4" style="fill:none;stroke:#7A9CFF" />
<path d="M877.61,358.58L882.61,358.58" style="fill:none;stroke:#7A9CFF" />
<path d="M877.61,424.4L882.61,424.4" style="fill:none;stroke:#7A9CFF" />
<path d="M888.97,338.15L888.97,366.25" style="fill:none;stroke:#7A9CFF" />
<path d="M886.47,338.15L891.47,338.15" style="fill:none;stroke:#7A9CFF" />
<path d="M886.47,366.25L891.47,366.25" style="fill:none;stroke:#7A9CFF" />
<path d="M897.83,415.53L897.83,440.54" style="fill:none;stroke:#7A9CFF" />
<path d="M895.33,415.53L900.33,415.53" style="fill:none;stroke:#7A9CFF" />
<path d="M895.33,440.54L900.33,440.54" style="fill:none;stroke:#7A9CFF" />
<path d="M906.69,411.84L906.69,473.14" style="fill:none;stroke:#7A9CFF" />
<path d="M904.19,411.84L909.19,411.84" style="fill:none;stroke:#7A9CFF" />
<path d="M904.19,473.14L909.19,473.14" style="fill:none;stroke:#7A9CFF" />
<path d="M915.55,307.2L915.55,405.01" style="fill:none;stroke:#7A9CFF" />
<path d="M913.05,307.2L918.05,307.2" style="fill:none;stroke:#7A9CFF" />
<path d="M913.05,405.01L918.05,405.01" style="fill:none;stroke:#7A9CFF" />
<path d="M924.41,293.99L924.41,362.39" style="fill:none;stroke:#7A9CFF" />
<path d="M921.91,293.99L926.91,293.99" style="fill:none;stroke:#7A9CFF" />
<path d="M921.91,362.39L926.91,362.39" style="fill:none;stroke:#7A9CFF" />
<path d="M933.26,356.02L933.26,412.32" style="fill:none;stroke:#7A9CFF" />
<path d="M930.76,356.02L935.76,356.02" style="fill:none;stroke:#7A9CFF" />
<path d="M930.76,412.32L935.76,412.32" style="fill:none;stroke:#7A9CFF" />
<path d="M942.12,345.21L942.12,401.64" style="fill:none;stroke:#7A9CFF" />
<path d="M939.62,345.21L944.62,345.21" style="fill:none;stroke:#7A9CFF" />
<path d="M939.62,401.64L944.62,401.64" style="fill:none;stroke:#7A9CFF" />
<path d="M950.98,287.63L950.98,354.5" style="fill:none;stroke:#7A9CFF" />
<path d="M948.48,287.63L953.48,287.63" style="fill:none;stroke:#7A9CFF" />
<path d="M948.48,354.5L953.48,354.5" style="fill:none;stroke:#7A9CFF" />
<path d="M959.84,327.61L959.84,446.11" style="fill:none;stroke:#7A9CFF" />
<path d="M957.34,327.61L962.34,327.61" style="fill:none;stroke:#7A9CFF" />
<path d="M957.34,446.11L962.34,446.11" style="fill:none;stroke:#7A9CFF" />
<path d="M968.7,352.66L968.7,418.45" style="fill:none;stroke:#7A9CFF" />
<path d="M966.2,352.66L971.2,352.66" style="fill:none;stroke:#7A9CFF" />
<path d="M966.2,418.45L971.2,418.45" style="fill:none;stroke:#7A9CFF" />
<path d="M977.56,333.55L977.56,391.69" style="fill:none;stroke:#7A9CFF" />
<path d="M975.06,333.55L980.06,333.55" style="fill:none;stroke:#7A9CFF" />
<path d="M975.06,391.69L980.06,391.69" style="fill:none;stroke:#7A9CFF" />
<path d="M986.42,350.24L986.42,380.04" style="fill:none;stroke:#7A9CFF" />
<path d="M983.92,350.24L988.92,350.24" style="fill:none;stroke:#7A9CFF" />
<path d="M983.92,380.04L988.92,380.04" style="fill:none;stroke:#7A9CFF" />
<path d="M995.27,322.29L995.27,412.53" style="fill:none;stroke:#7A9CFF" />
<path d="M992.77,322.29L997.77,322.29" style="fill:none;stroke:#7A9CFF" />
<path d="M992.77,412.53L997.77,412.53" style="fill:none;stroke:#7A9CFF" />
<path d="M1004.1,400.17L1004.1,435.19" style="fill:none;stroke:#7A9CFF" />
<path d="M1001.6,400.17L1006.6,400.17" style="fill:none;stroke:#7A9CFF" />
<path d="M1001.6,435.19L1006.6,435.19" style="fill:none;stroke:#7A9CFF" />
<path d="M1013,402.88L1013,459.31" style="fill:none;stroke:#7A9CFF" />
<path d="M1010.5,402.88L1015.5,402.88" style="fill:none;stroke:#7A9CFF" />
<path d="M1010.5,459.31L1015.5,459.31" style="fill:none;stroke:#7A9CFF" />
<path d="M1021.8,352.79L1021.8,417.06" style="fill:none;stroke:#7A9CFF" />
<path d="M1019.3,352.79L1024.3,352.79" style="fill:none;stroke:#7A9CFF" />
<path d="M1019.3,417.06L1024.3,417.06" style="fill:none;stroke:#7A9CFF" />
<path d="M1030.7,307.55L1030.7,398.16" style="fill:none;stroke:#7A9CFF" />
<path d="M1028.2,307.55L1033.2,307.55" style="fill:none;stroke:#7A9CFF" />
<path d="M1028.2,398.16L1033.2,398.16" style="fill:none;stroke:#7A9CFF" />
<path d="M1039.6,331.39L1039.6,408.1" style="fill:none;stroke:#7A9CFF" />
<path d="M1037.1,331.39L1042.1,331.39" style="fill:none;stroke:#7A9CFF" />
<path d="M1037.1,408.1L1042.1,408.1" style="fill:none;stroke:#7A9CFF" />
<path d="M1048.4,337.4L1048.4,384.48" style="fill:none;stroke:#7A9CFF" />
<path d="M1045.9,337.4L1050.9,337.4" style="fill:none;stroke:#7A9CFF" />
<path d="M1045.9,384.48L1050.9,384.48" style="fill:none;stroke:#7A9CFF" />
<path d="M1057.3,359.11L1057.3,444.02" style="fill:none;stroke:#7A9CFF" />
<path d="M1054.8,359.11L1059.8,359.11" style="fill:none;stroke:#7A9CFF" />
<path d="M1054.8,444.02L1059.8,444.02" style="fill:none;stroke:#7A9CFF" />
<path d="M1066.1,509.95L1066.1,576.52" style="fill:none;stroke:#7A9CFF" />
<path d="M1063.6,509.95L1068.6,509.95" style="fill:none;stroke:#7A9CFF" />
<path d="M1063.6,576.52L1068.6,576.52" style="fill:none;stroke:#7A9CFF" />
<path d="M1075,326.86L1075,382.25" style="fill:none;stroke:#7A9CFF" />
<path d="M1072.5,326.86L1077.5,326.86" style="fill:none;stroke:#7A9CFF" />
<path d="M1072.5,382.25L1077.5,382.25" style="fill:none;stroke:#7A9CFF" />
<path d="M220.73,417.87A5,5 0 1 1 210.73,417.87A5,5 0 1 1 220.73,417.87Z" style="fill:#7A9CFF" />
<path d="M229.59,361.45A5,5 0 1 1 219.59,361.45A5,5 0 1 1 229.59,361.45Z" style="fill:#7A9CFF" />
<path d="M238.45,358.24A5,5 0 1 1 228.45,358.24A5,5 0 1 1 238.45,358.24Z" style="fill:#7A9CFF" />
<path d="M247.31,383.37A5,5 0 1 1 237.31,383.37A5,5 0 1 1 247.31,383.37Z" style="fill:#7A9CFF" />
<path d="M256.16,432.04A5,5 0 1 1 246.16,432.04A5,5 0 1 1 256.16,432.04Z" style="fill:#7A9CFF" />
<path d="M265.02,349.43A5,5 0 1 1 255.02,349.43A5,5 0 1 1 265.02,349.43Z" style="fill:#7A9CFF" />
<path d="M273.88,363.35A5,5 0 1 1 263.88,363.35A5,5 0 1 1 273.88,363.35Z" style="fill:#7A9CFF" />
<path d="M282.74,354.19A5,5 0 1 1 272.74,354.19A5,5 0 1 1 282.74,354.19Z" style="fill:#7A9CFF" />
<path d="M291.6,356.36A5,5 0 1 1 281.6,356.36A5,5 0 1 1 291.6,356.36Z" style="fill:#7A9CFF" />
<path d="M300.46,412.71A5,5 0 1 1 290.46,412.71A5,5 0 1 1 300.46,412.71Z" style="fill:#7A9CFF" />
<path d="M309.31,317.76A5,5 0 1 1 299.31,317.76A5,5 0 1 1 309.31,317.76Z" style="fill:#7A9CFF" />
<path d="M318.17,351.76A5,5 0 1 1 308.17,351.76A5,5 0 1 1 318.17,351.76Z" style="fill:#7A9CFF" />
<path d="M327.03,392.75A5,5 0 1 1 317.03,392.75A5,5 0 1 1 327.03,392.75Z" style="fill:#7A9CFF" />
<path d="M335.89,360.4A5,5 0 1 1 325.89,360.4A5,5 0 1 1 335.89,360.4Z" style="fill:#7A9CFF" />
<path d="M344.75,370.1A5,5 0 1 1 334.75,370.1A5,5 0 1 1 344.75,370.1Z" style="fill:#7A9CFF" />
<path d="M353.61,433.48A5,5 0 1 1 343.61,433.48A5,5 0 1 1 353.61,433.48Z" style="fill:#7A9CFF" />
<path d="M362.47,382.46A5,5 0 1 1 352.47,382.46A5,5 0 1 1 362.47,382.46Z" style="fill:#7A9CFF" />
<path d="M371.32,388.45A5,5 0 1 1 361.32,388.45A5,5 0 1 1 371.32,388.45Z" style="fill:#7A9CFF" />
<path d="M380.18,376.42A5,5 0 1 1 370.18,376.42A5,5 0 1 1 380.18,376.42Z" style="fill:#7A9CFF" />
<path d="M389.04,318.88A5,5 0 1 1 379.04,318.88A5,5 0 1 1 389.04,318.88Z" style="fill:#7A9CFF" />
<path d="M397.9,372.69A5,5 0 1 1 387.9,372.69A5,5 0 1 1 397.9,372.69Z" style="fill:#7A9CFF" />
<path d="M406.76,360.72A5,5 0 1 1 396.76,360.72A5,5 0 1 1 406.76,360.72Z" style="fill:#7A9CFF" />
<path d="M415.62,368.44A5,5 0 1 1 405.62,368.44A5,5 0 1 1 415.62,368.44Z" style="fill:#7A9CFF" />
<path d="M424.47,334.54A5,5 0 1 1 414.47,334.54A5,5 0 1 1 424.47,334.54Z" style="fill:#7A9CFF" />
<path d="M433.33,474.49A5,5 0 1 1 423.33,474.49A5,5 0 1 1 433.33,474.49Z" style="fill:#7A9CFF" />
<path d="M442.19,420.4A5,5 0 1 1 432.19,420.4A5,5 0 1 1 442.19,420.4Z" style="fill:#7A9CFF" />
<path d="M451.05,333.5A5,5 0 1 1 441.05,333.5A5,5 0 1 1 451.05,333.5Z" style="fill:#7A9CFF" />
<path d="M459.91,300.63A5,5 0 1 1 449.91,300.63A5,5 0 1 1 459.91,300.63Z" style="fill:#7A9CFF" />
<path d="M468.77,401.75A5,5 0 1 1 458.77,401.75A5,5 0 1 1 468.77,401.75Z" style="fill:#7A9CFF" />
<path d="M477.63,405.84A5,5 0 1 1 467.63,405.84A5,5 0 1 1 477.63,405.84Z" style="fill:#7A9CFF" />
<path d="M486.48,441.62A5,5 0 1 1 476.48,441.62A5,5 0 1 1 486.48,441.62Z" style="fill:#7A9CFF" />
<path d="M495.34,365.74A5,5 0 1 1 485.34,365.74A5,5 0 1 1 495.34,365.74Z" style="fill:#7A9CFF" />
<path d="M504.2,334.02A5,5 0 1 1 494.2,334.02A5,5 0 1 1 504.2,334.02Z" style="fill:#7A9CFF" />
<path d="M513.06,352.32A5,5 0 1 1 503.06,352.32A5,5 0 1 1 513.06,352.32Z" style="fill:#7A9CFF" />
<path d="M521.92,408.84A5,5 0 1 1 511.92,408.84A5,5 0 1 1 521.92,408.84Z" style="fill:#7A9CFF" />
<path d="M530.78,394.29A5,5 0 1 1 520.78,394.29A5,5 0 1 1 530.78,394.29Z" style="fill:#7A9CFF" />
<path d="M539.63,413.35A5,5 0 1 1 529.63,413.35A5,5 0 1 1 539.63,413.35Z" style="fill:#7A9CFF" />
<path d="M548.49,351.32A5,5 0 1 1 538.49,351.32A5,5 0 1 1 548.49,351.32Z" style="fill:#7A9CFF" />
<path d="M557.35,381.06A5,5 0 1 1 547.35,381.06A5,5 0 1 1 557.35,381.06Z" style="fill:#7A9CFF" />
<path d="M566.21,324.55A5,5 0 1 1 556.21,324.55A5,5 0 1 1 566.21,324.55Z" style="fill:#7A9CFF" />
<path d="M575.07,376.34A5,5 0 1 1 565.07,376.34A5,5 0 1 1 575.07,376.34Z" style="fill:#7A9CFF" />
<path d="M583.93,450.34A5,5 0 1 1 573.93,450.34A5,5 0 1 1 583.93,450.34Z" style="fill:#7A9CFF" />
<path d="M592.79,428.67A5,5 0 1 1 582.79,428.67A5,5 0 1 1 592.79,428.67Z" style="fill:#7A9CFF" />
<path d="M601.64,454.12A5,5 0 1 1 591.64,454.12A5,5 0 1 1 601.64,454.12Z" style="fill:#7A9CFF" />
<path d="M610.5,397.51A5,5 0 1 1 600.5,397.51A5,5 0 1 1 610.5,397.51Z" style="fill:#7A9CFF" />
<path d="M619.36,477.23A5,5 0 1 1 609.36,477.23A5,5 0 1 1 619.36,477.23Z" style="fill:#7A9CFF" />
<path d="M628.22,501.82A5,5 0 1 1 618.22,501.82A5,5 0 1 1 628.22,501.82Z" style="fill:#7A9CFF" />
<path d="M637.08,582.69A5,5 0 1 1 627.08,582.69A5,5 0 1 1 637.08,582.69Z" style="fill:#7A9CFF" />
<path d="M645.94,603.12A5,5 0 1 1 635.94,603.12A5,5 0 1 1 645.94,603.12Z" style="fill:#7A9CFF" />
<path d="M654.79,545.02A5,5 0 1 1 644.79,545.02A5,5 0 1 1 654.79,545.02Z" style="fill:#7A9CFF" />
<path d="M663.65,701.66A5,5 0 1 1 653.65,701.66A5,5 0 1 1 663.65,701.66Z" style="fill:#7A9CFF" />
<path d="M672.51,651.63A5,5 0 1 1 662.51,651.63A5,5 0 1 1 672.51,651.63Z" style="fill:#7A9CFF" />
<path d="M681.37,539.64A5,5 0 1 1 671.37,539.64A5,5 0 1 1 681.37,539.64Z" style="fill:#7A9CFF" />
<path d="M690.23,510.06A5,5 0 1 1 680.23,510.06A5,5 0 1 1 690.23,510.06Z" style="fill:#7A9CFF" />
<path d="M699.09,491.75A5,5 0 1 1 689.09,491.75A5,5 0 1 1 699.09,491.75Z" style="fill:#7A9CFF" />
<path d="M707.95,401.17A5,5 0 1 1 697.95,401.17A5,5 0 1 1 707.95,401.17Z" style="fill:#7A9CFF" />
<path d="M716.8,414.89A5,5 0 1 1 706.8,414.89A5,5 0 1 1 716.8,414.89Z" style="fill:#7A9CFF" />
<path d="M725.66,449.18A5,5 0 1 1 715.66,449.18A5,5 0 1 1 725.66,449.18Z" style="fill:#7A9CFF" />
<path d="M734.52,458.26A5,5 0 1 1 724.52,458.26A5,5 0 1 1 734.52,458.26Z" style="fill:#7A9CFF" />
<path d="M743.38,418.24A5,5 0 1 1 733.38,418.24A5,5 0 1 1 743.38,418.24Z" style="fill:#7A9CFF" />
<path d="M752.24,332.28A5,5 0 1 1 742.24,332.28A5,5 0 1 1 752.24,332.28Z" style="fill:#7A9CFF" />
<path d="M761.1,372.95A5,5 0 1 1 751.1,372.95A5,5 0 1 1 761.1,372.95Z" style="fill:#7A9CFF" />
<path d="M769.95,477.14A5,5 0 1 1 759.95,477.14A5,5 0 1 1 769.95,477.14Z" style="fill:#7A9CFF" />
<path d="M778.81,461.19A5,5 0 1 1 768.81,461.19A5,5 0 1 1 778.81,461.19Z" style="fill:#7A9CFF" />
<path d="M787.67,374.63A5,5 0 1 1 777.67,374.63A5,5 0 1 1 787.67,374.63Z" style="fill:#7A9CFF" />
<path d="M796.53,425.41A5,5 0 1 1 786.53,425.41A5,5 0 1 1 796.53,425.41Z" style="fill:#7A9CFF" />
<path d="M805.39,465.85A5,5 0 1 1 795.39,465.85A5,5 0 1 1 805.39,465.85Z" style="fill:#7A9CFF" />
<path d="M814.25,412.87A5,5 0 1 1 804.25,412.87A5,5 0 1 1 814.25,412.87Z" style="fill:#7A9CFF" />
<path d="M823.1,396.92A5,5 0 1 1 813.1,396.92A5,5 0 1 1 823.1,396.92Z" style="fill:#7A9CFF" />
<path d="M831.96,407.83A5,5 0 1 1 821.96,407.83A5,5 0 1 1 831.96,407.83Z" style="fill:#7A9CFF" />
<path d="M840.82,389.95A5,5 0 1 1 830.82,389.95A5,5 0 1 1 840.82,389.95Z" style="fill:#7A9CFF" />
<path d="M849.68,403.54A5,5 0 1 1 839.68,403.54A5,5 0 1 1 849.68,403.54Z" style="fill:#7A9CFF" />
<path d="M858.54,404.06A5,5 0 1 1 848.54,404.06A5,5 0 1 1 858.54,404.06Z" style="fill:#7A9CFF" />
<path d="M867.4,405.83A5,5 0 1 1 857.4,405.83A5,5 0 1 1 867.4,405.83Z" style="fill:#7A9CFF" />
<path d="M876.26,404.87A5,5 0 1 1 866.26,404.87A5,5 0 1 1 876.26,404.87Z" style="fill:#7A9CFF" />
<path d="M885.11,391.49A5,5 0 1 1 875.11,391.49A5,5 0 1 1 885.11,391.49Z" style="fill:#7A9CFF" />
<path d="M893.97,352.2A5,5 0 1 1 883.97,352.2A5,5 0 1 1 893.97,352.2Z" style="fill:#7A9CFF" />
<path d="M902.83,428.03A5,5 0 1 1 892.83,428.03A5,5 0 1 1 902.83,428.03Z" style="fill:#7A9CFF" />
<path d="M911.69,442.49A5,5 0 1 1 901.69,442.49A5,5 0 1 1 911.69,442.49Z" style="fill:#7A9CFF" />
<path d="M920.55,356.11A5,5 0 1 1 910.55,356.11A5,5 0 1 1 920.55,356.11Z" style="fill:#7A9CFF" />
<path d="M929.41,328.19A5,5 0 1 1 919.41,328.19A5,5 0 1 1 929.41,328.19Z" style="fill:#7A9CFF" />
<path d="M938.26,384.17A5,5 0 1 1 928.26,384.17A5,5 0 1 1 938.26,384.17Z" style="fill:#7A9CFF" />
<path d="M947.12,373.42A5,5 0 1 1 937.12,373.42A5,5 0 1 1 947.12,373.42Z" style="fill:#7A9CFF" />
<path d="M955.98,321.06A5,5 0 1 1 945.98,321.06A5,5 0 1 1 955.98,321.06Z" style="fill:#7A9CFF" />
<path d="M964.84,386.86A5,5 0 1 1 954.84,386.86A5,5 0 1 1 964.84,386.86Z" style="fill:#7A9CFF" />
<path d="M973.7,385.55A5,5 0 1 1 963.7,385.55A5,5 0 1 1 973.7,385.55Z" style="fill:#7A9CFF" />
<path d="M982.56,362.62A5,5 0 1 1 972.56,362.62A5,5 0 1 1 982.56,362.62Z" style="fill:#7A9CFF" />
<path d="M991.42,365.14A5,5 0 1 1 981.42,365.14A5,5 0 1 1 991.42,365.14Z" style="fill:#7A9CFF" />
<path d="M1000.3,367.41A5,5 0 1 1 990.27,367.41A5,5 0 1 1 1000.3,367.41Z" style="fill:#7A9CFF" />
<path d="M1009.1,417.68A5,5 0 1 1 999.13,417.68A5,5 0 1 1 1009.1,417.68Z" style="fill:#7A9CFF" />
<path d="M1018,431.1A5,5 0 1 1 1008,431.1A5,5 0 1 1 1018,431.1Z" style="fill:#7A9CFF" />
<path d="M1026.8,384.92A5,5 0 1 1 1016.8,384.92A5,5 0 1 1 1026.8,384.92Z" style="fill:#7A9CFF" />
<path d="M1035.7,352.85A5,5 0 1 1 1025.7,352.85A5,5 0 1 1 1035.7,352.85Z" style="fill:#7A9CFF" />
<path d="M1044.6,369.74A5,5 0 1 1 1034.6,369.74A5,5 0 1 1 1044.6,369.74Z" style="fill:#7A9CFF" />
<path d="M1053.4,360.94A5,5 0 1 1 1043.4,360.94A5,5 0 1 1 1053.4,360.94Z" style="fill:#7A9CFF" />
<path d="M1062.3,401.56A5,5 0 1 1 1052.3,401.56A5,5 0 1 1 1062.3,401.56Z" style="fill:#7A9CFF" />
<path d="M1071.1,543.24A5,5 0 1 1 1061.1,543.24A5,5 0 1 1 1071.1,543.24Z" style="fill:#7A9CFF" />
<path d="M1080,354.56A5,5 0 1 1 1070,354.56A5,5 0 1 1 1080,354.56Z" style="fill:#7A9CFF" />
<path d="M215.73,974.14L1075,974.14" style="fill:none;stroke:#000000" />
<path d="M1075,136.74L1075,974.14" style="fill:none;stroke:#000000" />
<path d="M215.73,153.49L215.73,351.76" style="fill:none;stroke:#5B1616" />
<path d="M213.23,153.49L218.23,153.49" style="fill:none;stroke:#5B1616" />
<path d="M213.23,351.76L218.23,351.76" style="fill:none;stroke:#5B1616" />
<path d="M224.59,380.41L224.59,550.97" style="fill:none;stroke:#5B1616" />
<path d="M222.09,380.41L227.09,380.41" style="fill:none;stroke:#5B1616" />
<path d="M222.09,550.97L227.09,550.97" style="fill:none;stroke:#5B1616" />
<path d="M233.45,441.73L233.45,525.87" style="fill:none;stroke:#5B1616" />
<path d="M230.95,441.73L235.95,441.73" style="fill:none;stroke:#5B1616" />
<path d="M230.95,525.87L235.95,525.87" style="fill:none;stroke:#5B1616" />
<path d="M242.31,251.06L242.31,458.41" style="fill:none;stroke:#5B1616" />
<path d="M239.81,251.06L244.81,251.06" style="fill:none;stroke:#5B1616" />
<path d="M239.81,458.41L244.81,458.41" style="fill:none;stroke:#5B1616" />
<path d="M251.16,302.8L251.16,455.86" style="fill:none;stroke:#5B1616" />
<path d="M248.66,302.8L253.66,302.8" style="fill:none;stroke:#5B1616" />
<path d="M248.66,455.86L253.66,455.86" style="fill:none;stroke:#5B1616" />
<path d="M260.02,305.83L260.02,453.65" style="fill:none;stroke:#5B1616" />
<path d="M257.52,305.83L262.52,305.83" style="fill:none;stroke:#5B1616" />
<path d="M257.52,453.65L262.52,453.65" style="fill:none;stroke:#5B1616" />
<path d="M268.88,191.78L268.88,402.3" style="fill:none;stroke:#5B1616" />
<path d="M266.38,191.78L271.38,191.78" style="fill:none;stroke:#5B1616" />
<path d="M266.38,402.3L271.38,402.3" style="fill:none;stroke:#5B1616" />
<path d="M277.74,353.56L277.74,514.59" style="fill:none;stroke:#5B1616" />
<path d="M275.24,353.56L280.24,353.56" style="fill:none;stroke:#5B1616" />
<path d="M275.24,514.59L280.24,514.59" style="fill:none;stroke:#5B1616" />
<path d="M286.6,323.27L286.6,421.52" style="fill:none;stroke:#5B1616" />
<path d="M284.1,323.27L289.1,323.27" style="fill:none;stroke:#5B1616" />
<path d="M284.1,421.52L289.1,421.52" style="fill:none;stroke:#5B1616" />
<path d="M295.46,432.43L295.46,514.96" style="fill:none;stroke:#5B1616" />
<path d="M292.96,432.43L297.96,432.43" style="fill:none;stroke:#5B1616" />
<path d="M292.96,514.96L297.96,514.96" style="fill:none;stroke:#5B1616" />
<path d="M304.31,396.41L304.31,552.37" style="fill:none;stroke:#5B1616" />
<path d="M301.81,396.41L306.81,396.41" style="fill:none;stroke:#5B1616" />
<path d="M301.81,552.37L306.81,552.37" style="fill:none;stroke:#5B1616" />
<path d="M313.17,289.62L313.17,380.46" style="fill:none;stroke:#5B1616" />
<path d="M310.67,289.62L315.67,289.62" style="fill:none;stroke:#5B1616" />
<path d="M310.67,380.46L315.67,380.46" style="fill:none;stroke:#5B1616" />
<path d="M322.03,182.23L322.03,378.09" style="fill:none;stroke:#5B1616" />
<path d="M319.53,182.23L324.53,182.23" style="fill:none;stroke:#5B1616" />
<path d="M319.53,378.09L324.53,378.09" style="fill:none;stroke:#5B1616" />
<path d="M330.89,382.88L330.89,465.23" style="fill:none;stroke:#5B1616" />
<path d="M328.39,382.88L333.39,382.88" style="fill:none;stroke:#5B1616" />
<path d="M328.39,465.23L333.39,465.23" style="fill:none;stroke:#5B1616" />
<path d="M339.75,261.45L339.75,443.66" style="fill:none;stroke:#5B1616" />
<path d="M337.25,261.45L342.25,261.45" style="fill:none;stroke:#5B1616" />
<path d="M337.25,443.66L342.25,443.66" style="fill:none;stroke:#5B1616" />
<path d="M348.61,206.07L348.61,315.49" style="fill:none;stroke:#5B1616" />
<path d="M346.11,206.07L351.11,206.07" style="fill:none;stroke:#5B1616" />
<path d="M346.11,315.49L351.11,315.49" style="fill:none;stroke:#5B1616" />
<path d="M357.47,316.17L357.47,422.97" style="fill:none;stroke:#5B1616" />
<path d="M354.97,316.17L359.97,316.17" style="fill:none;stroke:#5B1616" />
<path d="M354.97,422.97L359.97,422.97" style="fill:none;stroke:#5B1616" />
<path d="M366.32,195.82L366.32,448.05" style="fill:none;stroke:#5B1616" />
<path d="M363.82,195.82L368.82,195.82" style="fill:none;stroke:#5B1616" />
<path d="M363.82,448.05L368.82,448.05" style="fill:none;stroke:#5B1616" />
<path d="M375.18,317.79L375.18,462.05" style="fill:none;stroke:#5B1616" />
<path d="M372.68,317.79L377.68,317.79" style="fill:none;stroke:#5B1616" />
<path d="M372.68,462.05L377.68,462.05" style="fill:none;stroke:#5B1616" />
<path d="M384.04,358.13L384.04,569.57" style="fill:none;stroke:#5B1616" />
<path d="M381.54,358.13L386.54,358.13" style="fill:none;stroke:#5B1616" />
<path d="M381.54,569.57L386.54,569.57" style="fill:none;stroke:#5B1616" />
<path d="M392.9,301.5L392.9,411.34" style="fill:none;stroke:#5B1616" />
<path d="M390.4,301.5L395.4,301.5" style="fill:none;stroke:#5B1616" />
<path d="M390.4,411.34L395.4,411.34" style="fill:none;stroke:#5B1616" />
<path d="M401.76,117.23L401.76,378.18" style="fill:none;stroke:#5B1616" />
<path d="M399.26,117.23L404.26,117.23" style="fill:none;stroke:#5B1616" />
<path d="M399.26,378.18L404.26,378.18" style="fill:none;stroke:#5B1616" />
<path d="M410.62,332.62L410.62,473.57" style="fill:none;stroke:#5B1616" />
<path d="M408.12,332.62L413.12,332.62" style="fill:none;stroke:#5B1616" />
<path d="M408.12,473.57L413.12,473.57" style="fill:none;stroke:#5B1616" />
<path d="M419.47,209.52L419.47,391.56" style="fill:none;stroke:#5B1616" />
<path d="M416.97,209.52L421.97,209.52" style="fill:none;stroke:#5B1616" />
<path d="M416.97,391.56L421.97,391.56" style="fill:none;stroke:#5B1616" />
<path d="M428.33,317.35L428.33,511.86" style="fill:none;stroke:#5B1616" />
<path d="M425.83,317.35L430.83,317.35" style="fill:none;stroke:#5B1616" />
<path d="M425.83,511.86L430.83,511.86" style="fill:none;stroke:#5B1616" />
<path d="M437.19,347.77L437.19,525.99" style="fill:none;stroke:#5B1616" />
<path d="M434.69,347.77L439.69,347.77" style="fill:none;stroke:#5B1616" />
<path d="M434.69,525.99L439.69,525.99" style="fill:none;stroke:#5B1616" />
<path d="M446.05,221.08L446.05,444.1" style="fill:none;stroke:#5B1616" />
<path d="M443.55,221.08L448.55,221.08" style="fill:none;stroke:#5B1616" />
<path d="M443.55,444.1L448.55,444.1" style="fill:none;stroke:#5B1616" />
<path d="M454.91,109.32L454.91,320.51" style="fill:none;stroke:#5B1616" />
<path d="M452.41,109.32L457.41,109.32" style="fill:none;stroke:#5B1616" />
<path d="M452.41,320.51L457.41,320.51" style="fill:none;stroke:#5B1616" />
<path d="M463.77,294.41L463.77,428.05" style="fill:none;stroke:#5B1616" />
<path d="M461.27,294.41L466.27,294.41" style="fill:none;stroke:#5B1616" />
<path d="M461.27,428.05L466.27,428.05" style="fill:none;stroke:#5B1616" />
<path d="M472.63,350.89L472.63,501.91" style="fill:none;stroke:#5B1616" />
<path d="M470.13,350.89L475.13,350.89" style="fill:none;stroke:#5B1616" />
<path d="M470.13,501.91L475.13,501.91" style="fill:none;stroke:#5B1616" />
<path d="M481.48,396.92L481.48,589.35" style="fill:none;stroke:#5B1616" />
<path d="M478.98,396.92L483.98,396.92" style="fill:none;stroke:#5B1616" />
<path d="M478.98,589.35L483.98,589.35" style="fill:none;stroke:#5B1616" />
<path d="M490.34,469.07L490.34,587.5" style="fill:none;stroke:#5B1616" />
<path d="M487.84,469.07L492.84,469.07" style="fill:none;stroke:#5B1616" />
<path d="M487.84,587.5L492.84,587.5" style="fill:none;stroke:#5B1616" />
<path d="M499.2,369.88L499.2,518.08" style="fill:none;stroke:#5B1616" />
<path d="M496.7,369.88L501.7,369.88" style="fill:none;stroke:#5B1616" />
<path d="M496.7,518.08L501.7,518.08" style="fill:none;stroke:#5B1616" />
<path d="M508.06,429.96L508.06,571.29" style="fill:none;stroke:#5B1616" />
<path d="M505.56,429.96L510.56,429.96" style="fill:none;stroke:#5B1616" />
<path d="M505.56,571.29L510.56,571.29" style="fill:none;stroke:#5B1616" />
<path d="M516.92,169.46L516.92,246.38" style="fill:none;stroke:#5B1616" />
<path d="M514.42,169.46L519.42,169.46" style="fill:none;stroke:#5B1616" />
<path d="M514.42,246.38L519.42,246.38" style="fill:none;stroke:#5B1616" />
<path d="M525.78,402.15L525.78,579.02" style="fill:none;stroke:#5B1616" />
<path d="M523.28,402.15L528.28,402.15" style="fill:none;stroke:#5B1616" />
<path d="M523.28,579.02L528.28,579.02" style="fill:none;stroke:#5B1616" />
<path d="M534.63,354.23L534.63,480.42" style="fill:none;stroke:#5B1616" />
<path d="M532.13,354.23L537.13,354.23" style="fill:none;stroke:#5B1616" />
<path d="M532.13,480.42L537.13,480.42" style="fill:none;stroke:#5B1616" />
<path d="M543.49,465.99L543.49,556.43" style="fill:none;stroke:#5B1616" />
<path d="M540.99,465.99L545.99,465.99" style="fill:none;stroke:#5B1616" />
<path d="M540.99,556.43L545.99,556.43" style="fill:none;stroke:#5B1616" />
<path d="M552.35,329.85L552.35,460.2" style="fill:none;stroke:#5B1616" />
<path d="M549.85,329.85L554.85,329.85" style="fill:none;stroke:#5B1616" />
<path d="M549.85,460.2L554.85,460.2" style="fill:none;stroke:#5B1616" />
<path d="M561.21,455.26L561.21,568.95" style="fill:none;stroke:#5B1616" />
<path d="M558.71,455.26L563.71,455.26" style="fill:none;stroke:#5B1616" />
<path d="M558.71,568.95L563.71,568.95" style="fill:none;stroke:#5B1616" />
<path d="M570.07,352.44L570.07,464.54" style="fill:none;stroke:#5B1616" />
<path d="M567.57,352.44L572.57,352.44" style="fill:none;stroke:#5B1616" />
<path d="M567.57,464.54L572.57,464.54" style="fill:none;stroke:#5B1616" />
<path d="M578.93,406.35L578.93,602.31" style="fill:none;stroke:#5B1616" />
<path d="M576.43,406.35L581.43,406.35" style="fill:none;stroke:#5B1616" />
<path d="M576.43,602.31L581.43,602.31" style="fill:none;stroke:#5B1616" />
<path d="M587.79,388.05L587.79,468.23" style="fill:none;stroke:#5B1616" />
<path d="M585.29,388.05L590.29,388.05" style="fill:none;stroke:#5B1616" />
<path d="M585.29,468.23L590.29,468.23" style="fill:none;stroke:#5B1616" />
<path d="M596.64,404.62L596.64,539.75" style="fill:none;stroke:#5B1616" />
<path d="M594.14,404.62L599.14,404.62" style="fill:none;stroke:#5B1616" />
<path d="M594.14,539.75L599.14,539.75" style="fill:none;stroke:#5B1616" />
<path d="M605.5,368.73L605.5,455.54" style="fill:none;stroke:#5B1616" />
<path d="M603,368.73L608,368.73" style="fill:none;stroke:#5B1616" />
<path d="M603,455.54L608,455.54" style="fill:none;stroke:#5B1616" />
<path d="M614.36,422.37L614.36,604.64" style="fill:none;stroke:#5B1616" />
<path d="M611.86,422.37L616.86,422.37" style="fill:none;stroke:#5B1616" />
<path d="M611.86,604.64L616.86,604.64" style="fill:none;stroke:#5B1616" />
<path d="M623.22,484.47L623.22,632.35" style="fill:none;stroke:#5B1616" />
<path d="M620.72,484.47L625.72,484.47" style="fill:none;stroke:#5B1616" />
<path d="M620.72,632.35L625.72,632.35" style="fill:none;stroke:#5B1616" />
<path d="M632.08,490.31L632.08,620.43" style="fill:none;stroke:#5B1616" />
<path d="M629.58,490.31L634.58,490.31" style="fill:none;stroke:#5B1616" />
<path d="M629.58,620.43L634.58,620.43" style="fill:none;stroke:#5B1616" />
<path d="M640.94,548.8L640.94,693.36" style="fill:none;stroke:#5B1616" />
<path d="M638.44,548.8L643.44,548.8" style="fill:none;stroke:#5B1616" />
<path d="M638.44,693.36L643.44,693.36" style="fill:none;stroke:#5B1616" />
<path d="M649.79,430.1L649.79,665.22" style="fill:none;stroke:#5B1616" />
<path d="M647.29,430.1L652.29,430.1" style="fill:none;stroke:#5B1616" />
<path d="M647.29,665.22L652.29,665.22" style="fill:none;stroke:#5B1616" />
<path d="M658.65,584.47L658.65,764.14" style="fill:none;stroke:#5B1616" />
<path d="M656.15,584.47L661.15,584.47" style="fill:none;stroke:#5B1616" />
<path d="M656.15,764.14L661.15,764.14" style="fill:none;stroke:#5B1616" />
<path d="M667.51,443.23L667.51,640.61" style="fill:none;stroke:#5B1616" />
<path d="M665.01,443.23L670.01,443.23" style="fill:none;stroke:#5B1616" />
<path d="M665.01,640.61L670.01,640.61" style="fill:none;stroke:#5B1616" />
<path d="M676.37,442.37L676.37,602.96" style="fill:none;stroke:#5B1616" />
<path d="M673.87,442.37L678.87,442.37" style="fill:none;stroke:#5B1616" />
<path d="M673.87,602.96L678.87,602.96" style="fill:none;stroke:#5B1616" />
<path d="M685.23,420.21L685.23,616.42" style="fill:none;stroke:#5B1616" />
<path d="M682.73,420.21L687.73,420.21" style="fill:none;stroke:#5B1616" />
<path d="M682.73,616.42L687.73,616.42" style="fill:none;stroke:#5B1616" />
<path d="M694.09,434.42L694.09,570.71" style="fill:none;stroke:#5B1616" />
<path d="M691.59,434.42L696.59,434.42" style="fill:none;stroke:#5B1616" />
<path d="M691.59,570.71L696.59,570.71" style="fill:none;stroke:#5B1616" />
<path d="M702.95,541.16L702.95,621.73" style="fill:none;stroke:#5B1616" />
<path d="M700.45,541.16L705.45,541.16" style="fill:none;stroke:#5B1616" />
<path d="M700.45,621.73L705.45,621.73" style="fill:none;stroke:#5B1616" />
<path d="M711.8,407.65L711.8,603.79" style="fill:none;stroke:#5B1616" />
<path d="M709.3,407.65L714.3,407.65" style="fill:none;stroke:#5B1616" />
<path d="M709.3,603.79L714.3,603.79" style="fill:none;stroke:#5B1616" />
<path d="M720.66,317.82L720.66,529.74" style="fill:none;stroke:#5B1616" />
<path d="M718.16,317.82L723.16,317.82" style="fill:none;stroke:#5B1616" />
<path d="M718.16,529.74L723.16,529.74" style="fill:none;stroke:#5B1616" />
<path d="M729.52,235.11L729.52,325.59" style="fill:none;stroke:#5B1616" />
<path d="M727.02,235.11L732.02,235.11" style="fill:none;stroke:#5B1616" />
<path d="M727.02,325.59L732.02,325.59" style="fill:none;stroke:#5B1616" />
<path d="M738.38,345.44L738.38,408.85" style="fill:none;stroke:#5B1616" />
<path d="M735.88,345.44L740.88,345.44" style="fill:none;stroke:#5B1616" />
<path d="M735.88,408.85L740.88,408.85" style="fill:none;stroke:#5B1616" />
<path d="M747.24,353.24L747.24,506.02" style="fill:none;stroke:#5B1616" />
<path d="M744.74,353.24L749.74,353.24" style="fill:none;stroke:#5B1616" />
<path d="M744.74,506.02L749.74,506.02" style="fill:none;stroke:#5B1616" />
<path d="M756.1,331L756.1,432.1" style="fill:none;stroke:#5B1616" />
<path d="M753.6,331L758.6,331" style="fill:none;stroke:#5B1616" />
<path d="M753.6,432.1L758.6,432.1" style="fill:none;stroke:#5B1616" />
<path d="M764.95,291.25L764.95,444.09" style="fill:none;stroke:#5B1616" />
<path d="M762.45,291.25L767.45,291.25" style="fill:none;stroke:#5B1616" />
<path d="M762.45,444.09L767.45,444.09" style="fill:none;stroke:#5B1616" />
<path d="M773.81,298.95L773.81,498.69" style="fill:none;stroke:#5B1616" />
<path d="M771.31,298.95L776.31,298.95" style="fill:none;stroke:#5B1616" />
<path d="M771.31,498.69L776.31,498.69" style="fill:none;stroke:#5B1616" />
<path d="M782.67,416.94L782.67,579.96" style="fill:none;stroke:#5B1616" />
<path d="M780.17,416.94L785.17,416.94" style="fill:none;stroke:#5B1616" />
<path d="M780.17,579.96L785.17,579.96" style="fill:none;stroke:#5B1616" />
<path d="M791.53,321.77L791.53,401.43" style="fill:none;stroke:#5B1616" />
<path d="M789.03,321.77L794.03,321.77" style="fill:none;stroke:#5B1616" />
<path d="M789.03,401.43L794.03,401.43" style="fill:none;stroke:#5B1616" />
<path d="M800.39,421.34L800.39,531.58" style="fill:none;stroke:#5B1616" />
<path d="M797.89,421.34L802.89,421.34" style="fill:none;stroke:#5B1616" />
<path d="M797.89,531.58L802.89,531.58" style="fill:none;stroke:#5B1616" />
<path d="M809.25,317.79L809.25,424.83" style="fill:none;stroke:#5B1616" />
<path d="M806.75,317.79L811.75,317.79" style="fill:none;stroke:#5B1616" />
<path d="M806.75,424.83L811.75,424.83" style="fill:none;stroke:#5B1616" />
<path d="M818.1,348.39L818.1,441.43" style="fill:none;stroke:#5B1616" />
<path d="M815.6,348.39L820.6,348.39" style="fill:none;stroke:#5B1616" />
<path d="M815.6,441.43L820.6,441.43" style="fill:none;stroke:#5B1616" />
<path d="M826.96,406.3L826.96,494.19" style="fill:none;stroke:#5B1616" />
<path d="M824.46,406.3L829.46,406.3" style="fill:none;stroke:#5B1616" />
<path d="M824.46,494.19L829.46,494.19" style="fill:none;stroke:#5B1616" />
<path d="M835.82,339.72L835.82,406.45" style="fill:none;stroke:#5B1616" />
<path d="M833.32,339.72L838.32,339.72" style="fill:none;stroke:#5B1616" />
<path d="M833.32,406.45L838.32,406.45" style="fill:none;stroke:#5B1616" />
<path d="M844.68,242.29L844.68,409.13" style="fill:none;stroke:#5B1616" />
<path d="M842.18,242.29L847.18,242.29" style="fill:none;stroke:#5B1616" />
<path d="M842.18,409.13L847.18,409.13" style="fill:none;stroke:#5B1616" />
<path d="M853.54,331.41L853.54,452.91" style="fill:none;stroke:#5B1616" />
<path d="M851.04,331.41L856.04,331.41" style="fill:none;stroke:#5B1616" />
<path d="M851.04,452.91L856.04,452.91" style="fill:none;stroke:#5B1616" />
<path d="M862.4,289.44L862.4,462.76" style="fill:none;stroke:#5B1616" />
<path d="M859.9,289.44L864.9,289.44" style="fill:none;stroke:#5B1616" />
<path d="M859.9,462.76L864.9,462.76" style="fill:none;stroke:#5B1616" />
<path d="M871.26,348.56L871.26,497.47" style="fill:none;stroke:#5B1616" />
<path d="M868.76,348.56L873.76,348.56" style="fill:none;stroke:#5B1616" />
<path d="M868.76,497.47L873.76,497.47" style="fill:none;stroke:#5B1616" />
<path d="M880.11,412.85L880.11,519.54" style="fill:none;stroke:#5B1616" />
<path d="M877.61,412.85L882.61,412.85" style="fill:none;stroke:#5B1616" />
<path d="M877.61,519.54L882.61,519.54" style="fill:none;stroke:#5B1616" />
<path d="M888.97,440.35L888.97,547.47" style="fill:none;stroke:#5B1616" />
<path d="M886.47,440.35L891.47,440.35" style="fill:none;stroke:#5B1616" />
<path d="M886.47,547.47L891.47,547.47" style="fill:none;stroke:#5B1616" />
<path d="M897.83,379.65L897.83,436.81" style="fill:none;stroke:#5B1616" />
<path d="M895.33,379.65L900.33,379.65" style="fill:none;stroke:#5B1616" />
<path d="M895.33,436.81L900.33,436.81" style="fill:none;stroke:#5B1616" />
<path d="M906.69,198.71L906.69,372.37" style="fill:none;stroke:#5B1616" />
<path d="M904.19,198.71L909.19,198.71" style="fill:none;stroke:#5B1616" />
<path d="M904.19,372.37L909.19,372.37" style="fill:none;stroke:#5B1616" />
<path d="M915.55,326.62L915.55,457.35" style="fill:none;stroke:#5B1616" />
<path d="M913.05,326.62L918.05,326.62" style="fill:none;stroke:#5B1616" />
<path d="M913.05,457.35L918.05,457.35" style="fill:none;stroke:#5B1616" />
<path d="M924.41,273.21L924.41,439.29" style="fill:none;stroke:#5B1616" />
<path d="M921.91,273.21L926.91,273.21" style="fill:none;stroke:#5B1616" />
<path d="M921.91,439.29L926.91,439.29" style="fill:none;stroke:#5B1616" />
<path d="M933.26,448.45L933.26,559.48" style="fill:none;stroke:#5B1616" />
<path d="M930.76,448.45L935.76,448.45" style="fill:none;stroke:#5B1616" />
<path d="M930.76,559.48L935.76,559.48" style="fill:none;stroke:#5B1616" />
<path d="M942.12,413.06L942.12,532.03" style="fill:none;stroke:#5B1616" />
<path d="M939.62,413.06L944.62,413.06" style="fill:none;stroke:#5B1616" />
<path d="M939.62,532.03L944.62,532.03" style="fill:none;stroke:#5B1616" />
<path d="M950.98,304.93L950.98,375.34" style="fill:none;stroke:#5B1616" />
<path d="M948.48,304.93L953.48,304.93" style="fill:none;stroke:#5B1616" />
<path d="M948.48,375.34L953.48,375.34" style="fill:none;stroke:#5B1616" />
<path d="M959.84,379.47L959.84,519.41" style="fill:none;stroke:#5B1616" />
<path d="M957.34,379.47L962.34,379.47" style="fill:none;stroke:#5B1616" />
<path d="M957.34,519.41L962.34,519.41" style="fill:none;stroke:#5B1616" />
<path d="M968.7,199.3L968.7,268.8" style="fill:none;stroke:#5B1616" />
<path d="M966.2,199.3L971.2,199.3" style="fill:none;stroke:#5B1616" />
<path d="M966.2,268.8L971.2,268.8" style="fill:none;stroke:#5B1616" />
<path d="M977.56,294.62L977.56,447.76" style="fill:none;stroke:#5B1616" />
<path d="M975.06,294.62L980.06,294.62" style="fill:none;stroke:#5B1616" />
<path d="M975.06,447.76L980.06,447.76" style="fill:none;stroke:#5B1616" />
<path d="M986.42,340.53L986.42,399.98" style="fill:none;stroke:#5B1616" />
<path d="M983.92,340.53L988.92,340.53" style="fill:none;stroke:#5B1616" />
<path d="M983.92,399.98L988.92,399.98" style="fill:none;stroke:#5B1616" />
<path d="M995.27,228.04L995.27,351.9" style="fill:none;stroke:#5B1616" />
<path d="M992.77,228.04L997.77,228.04" style="fill:none;stroke:#5B1616" />
<path d="M992.77,351.9L997.77,351.9" style="fill:none;stroke:#5B1616" />
<path d="M1004.1,303.64L1004.1,349.35" style="fill:none;stroke:#5B1616" />
<path d="M1001.6,303.64L1006.6,303.64" style="fill:none;stroke:#5B1616" />
<path d="M1001.6,349.35L1006.6,349.35" style="fill:none;stroke:#5B1616" />
<path d="M1013,364.71L1013,487.48" style="fill:none;stroke:#5B1616" />
<path d="M1010.5,364.71L1015.5,364.71" style="fill:none;stroke:#5B1616" />
<path d="M1010.5,487.48L1015.5,487.48" style="fill:none;stroke:#5B1616" />
<path d="M1021.8,265.35L1021.8,549.16" style="fill:none;stroke:#5B1616" />
<path d="M1019.3,265.35L1024.3,265.35" style="fill:none;stroke:#5B1616" />
<path d="M1019.3,549.16L1024.3,549.16" style="fill:none;stroke:#5B1616" />
<path d="M1030.7,296.7L1030.7,395.09" style="fill:none;stroke:#5B1616" />
<path d="M1028.2,296.7L1033.2,296.7" style="fill:none;stroke:#5B1616" />
<path d="M1028.2,395.09L1033.2,395.09" style="fill:none;stroke:#5B1616" />
<path d="M1039.6,349.94L1039.6,498.43" style="fill:none;stroke:#5B1616" />
<path d="M1037.1,349.94L1042.1,349.94" style="fill:none;stroke:#5B1616" />
<path d="M1037.1,498.43L1042.1,498.43" style="fill:none;stroke:#5B1616" />
<path d="M1048.4,484.29L1048.4,606.41" style="fill:none;stroke:#5B1616" />
<path d="M1045.9,484.29L1050.9,484.29" style="fill:none;stroke:#5B1616" />
<path d="M1045.9,606.41L1050.9,606.41" style="fill:none;stroke:#5B1616" />
<path d="M1057.3,266.8L1057.3,468.72" style="fill:none;stroke:#5B1616" />
<path d="M1054.8,266.8L1059.8,266.8" style="fill:none;stroke:#5B1616" />
<path d="M1054.8,468.72L1059.8,468.72" style="fill:none;stroke:#5B1616" />
<path d="M1066.1,371.38L1066.1,505.28" style="fill:none;stroke:#5B1616" />
<path d="M1063.6,371.38L1068.6,371.38" style="fill:none;stroke:#5B1616" />
<path d="M1063.6,505.28L1068.6,505.28" style="fill:none;stroke:#5B1616" />
<path d="M1075,378.09L1075,480.36" style="fill:none;stroke:#5B1616" />
<path d="M1072.5,378.09L1077.5,378.09" style="fill:none;stroke:#5B1616" />
<path d="M1072.5,480.36L1077.5,480.36" style="fill:none;stroke:#5B1616" />
<path d="M220.73,252.63A5,5 0 1 1 210.73,252.63A5,5 0 1 1 220.73,252.63Z" style="fill:#5B1616" />
<path d="M229.59,465.69A5,5 0 1 1 219.59,465.69A5,5 0 1 1 229.59,465.69Z" style="fill:#5B1616" />
<path d="M238.45,483.8A5,5 0 1 1 228.45,483.8A5,5 0 1 1 238.45,483.8Z" style="fill:#5B1616" />
<path d="M247.31,354.74A5,5 0 1 1 237.31,354.74A5,5 0 1 1 247.31,354.74Z" style="fill:#5B1616" />
<path d="M256.16,379.33A5,5 0 1 1 246.16,379.33A5,5 0 1 1 256.16,379.33Z" style="fill:#5B1616" />
<path d="M265.02,379.74A5,5 0 1 1 255.02,379.74A5,5 0 1 1 265.02,379.74Z" style="fill:#5B1616" />
<path d="M273.88,297.04A5,5 0 1 1 263.88,297.04A5,5 0 1 1 273.88,297.04Z" style="fill:#5B1616" />
<path d="M282.74,434.07A5,5 0 1 1 272.74,434.07A5,5 0 1 1 282.74,434.07Z" style="fill:#5B1616" />
<path d="M291.6,372.4A5,5 0 1 1 281.6,372.4A5,5 0 1 1 291.6,372.4Z" style="fill:#5B1616" />
<path d="M300.46,473.7A5,5 0 1 1 290.46,473.7A5,5 0 1 1 300.46,473.7Z" style="fill:#5B1616" />
<path d="M309.31,474.39A5,5 0 1 1 299.31,474.39A5,5 0 1 1 309.31,474.39Z" style="fill:#5B1616" />
<path d="M318.17,335.04A5,5 0 1 1 308.17,335.04A5,5 0 1 1 318.17,335.04Z" style="fill:#5B1616" />
<path d="M327.03,280.16A5,5 0 1 1 317.03,280.16A5,5 0 1 1 327.03,280.16Z" style="fill:#5B1616" />
<path d="M335.89,424.06A5,5 0 1 1 325.89,424.06A5,5 0 1 1 335.89,424.06Z" style="fill:#5B1616" />
<path d="M344.75,352.56A5,5 0 1 1 334.75,352.56A5,5 0 1 1 344.75,352.56Z" style="fill:#5B1616" />
<path d="M353.61,260.78A5,5 0 1 1 343.61,260.78A5,5 0 1 1 353.61,260.78Z" style="fill:#5B1616" />
<path d="M362.47,369.57A5,5 0 1 1 352.47,369.57A5,5 0 1 1 362.47,369.57Z" style="fill:#5B1616" />
<path d="M371.32,321.93A5,5 0 1 1 361.32,321.93A5,5 0 1 1 371.32,321.93Z" style="fill:#5B1616" />
<path d="M380.18,389.92A5,5 0 1 1 370.18,389.92A5,5 0 1 1 380.18,389.92Z" style="fill:#5B1616" />
<path d="M389.04,463.85A5,5 0 1 1 379.04,463.85A5,5 0 1 1 389.04,463.85Z" style="fill:#5B1616" />
<path d="M397.9,356.42A5,5 0 1 1 387.9,356.42A5,5 0 1 1 397.9,356.42Z" style="fill:#5B1616" />
<path d="M406.76,247.71A5,5 0 1 1 396.76,247.71A5,5 0 1 1 406.76,247.71Z" style="fill:#5B1616" />
<path d="M415.62,403.09A5,5 0 1 1 405.62,403.09A5,5 0 1 1 415.62,403.09Z" style="fill:#5B1616" />
<path d="M424.47,300.54A5,5 0 1 1 414.47,300.54A5,5 0 1 1 424.47,300.54Z" style="fill:#5B1616" />
<path d="M433.33,414.61A5,5 0 1 1 423.33,414.61A5,5 0 1 1 433.33,414.61Z" style="fill:#5B1616" />
<path d="M442.19,436.88A5,5 0 1 1 432.19,436.88A5,5 0 1 1 442.19,436.88Z" style="fill:#5B1616" />
<path d="M451.05,332.59A5,5 0 1 1 441.05,332.59A5,5 0 1 1 451.05,332.59Z" style="fill:#5B1616" />
<path d="M459.91,214.91A5,5 0 1 1 449.91,214.91A5,5 0 1 1 459.91,214.91Z" style="fill:#5B1616" />
<path d="M468.77,361.23A5,5 0 1 1 458.77,361.23A5,5 0 1 1 468.77,361.23Z" style="fill:#5B1616" />
<path d="M477.63,426.4A5,5 0 1 1 467.63,426.4A5,5 0 1 1 477.63,426.4Z" style="fill:#5B1616" />
<path d="M486.48,493.13A5,5 0 1 1 476.48,493.13A5,5 0 1 1 486.48,493.13Z" style="fill:#5B1616" />
<path d="M495.34,528.29A5,5 0 1 1 485.34,528.29A5,5 0 1 1 495.34,528.29Z" style="fill:#5B1616" />
<path d="M504.2,443.98A5,5 0 1 1 494.2,443.98A5,5 0 1 1 504.2,443.98Z" style="fill:#5B1616" />
<path d="M513.06,500.63A5,5 0 1 1 503.06,500.63A5,5 0 1 1 513.06,500.63Z" style="fill:#5B1616" />
<path d="M521.92,207.92A5,5 0 1 1 511.92,207.92A5,5 0 1 1 521.92,207.92Z" style="fill:#5B1616" />
<path d="M530.78,490.58A5,5 0 1 1 520.78,490.58A5,5 0 1 1 530.78,490.58Z" style="fill:#5B1616" />
<path d="M539.63,417.33A5,5 0 1 1 529.63,417.33A5,5 0 1 1 539.63,417.33Z" style="fill:#5B1616" />
<path d="M548.49,511.21A5,5 0 1 1 538.49,511.21A5,5 0 1 1 548.49,511.21Z" style="fill:#5B1616" />
<path d="M557.35,395.03A5,5 0 1 1 547.35,395.03A5,5 0 1 1 557.35,395.03Z" style="fill:#5B1616" />
<path d="M566.21,512.1A5,5 0 1 1 556.21,512.1A5,5 0 1 1 566.21,512.1Z" style="fill:#5B1616" />
<path d="M575.07,408.49A5,5 0 1 1 565.07,408.49A5,5 0 1 1 575.07,408.49Z" style="fill:#5B1616" />
<path d="M583.93,504.33A5,5 0 1 1 573.93,504.33A5,5 0 1 1 583.93,504.33Z" style="fill:#5B1616" />
<path d="M592.79,428.14A5,5 0 1 1 582.79,428.14A5,5 0 1 1 592.79,428.14Z" style="fill:#5B1616" />
<path d="M601.64,472.18A5,5 0 1 1 591.64,472.18A5,5 0 1 1 601.64,472.18Z" style="fill:#5B1616" />
<path d="M610.5,412.13A5,5 0 1 1 600.5,412.13A5,5 0 1 1 610.5,412.13Z" style="fill:#5B1616" />
<path d="M619.36,513.5A5,5 0 1 1 609.36,513.5A5,5 0 1 1 619.36,513.5Z" style="fill:#5B1616" />
<path d="M628.22,558.41A5,5 0 1 1 618.22,558.41A5,5 0 1 1 628.22,558.41Z" style="fill:#5B1616" />
<path d="M637.08,555.37A5,5 0 1 1 627.08,555.37A5,5 0 1 1 637.08,555.37Z" style="fill:#5B1616" />
<path d="M645.94,621.08A5,5 0 1 1 635.94,621.08A5,5 0 1 1 645.94,621.08Z" style="fill:#5B1616" />
<path d="M654.79,547.66A5,5 0 1 1 644.79,547.66A5,5 0 1 1 654.79,547.66Z" style="fill:#5B1616" />
<path d="M663.65,674.31A5,5 0 1 1 653.65,674.31A5,5 0 1 1 663.65,674.31Z" style="fill:#5B1616" />
<path d="M672.51,541.92A5,5 0 1 1 662.51,541.92A5,5 0 1 1 672.51,541.92Z" style="fill:#5B1616" />
<path d="M681.37,522.67A5,5 0 1 1 671.37,522.67A5,5 0 1 1 681.37,522.67Z" style="fill:#5B1616" />
<path d="M690.23,518.32A5,5 0 1 1 680.23,518.32A5,5 0 1 1 690.23,518.32Z" style="fill:#5B1616" />
<path d="M699.09,502.57A5,5 0 1 1 689.09,502.57A5,5 0 1 1 699.09,502.57Z" style="fill:#5B1616" />
<path d="M707.95,581.44A5,5 0 1 1 697.95,581.44A5,5 0 1 1 707.95,581.44Z" style="fill:#5B1616" />
<path d="M716.8,505.72A5,5 0 1 1 706.8,505.72A5,5 0 1 1 716.8,505.72Z" style="fill:#5B1616" />
<path d="M725.66,423.78A5,5 0 1 1 715.66,423.78A5,5 0 1 1 725.66,423.78Z" style="fill:#5B1616" />
<path d="M734.52,280.35A5,5 0 1 1 724.52,280.35A5,5 0 1 1 734.52,280.35Z" style="fill:#5B1616" />
<path d="M743.38,377.15A5,5 0 1 1 733.38,377.15A5,5 0 1 1 743.38,377.15Z" style="fill:#5B1616" />
<path d="M752.24,429.63A5,5 0 1 1 742.24,429.63A5,5 0 1 1 752.24,429.63Z" style="fill:#5B1616" />
<path d="M761.1,381.55A5,5 0 1 1 751.1,381.55A5,5 0 1 1 761.1,381.55Z" style="fill:#5B1616" />
<path d="M769.95,367.67A5,5 0 1 1 759.95,367.67A5,5 0 1 1 769.95,367.67Z" style="fill:#5B1616" />
<path d="M778.81,398.82A5,5 0 1 1 768.81,398.82A5,5 0 1 1 778.81,398.82Z" style="fill:#5B1616" />
<path d="M787.67,498.45A5,5 0 1 1 777.67,498.45A5,5 0 1 1 787.67,498.45Z" style="fill:#5B1616" />
<path d="M796.53,361.6A5,5 0 1 1 786.53,361.6A5,5 0 1 1 796.53,361.6Z" style="fill:#5B1616" />
<path d="M805.39,476.46A5,5 0 1 1 795.39,476.46A5,5 0 1 1 805.39,476.46Z" style="fill:#5B1616" />
<path d="M814.25,371.31A5,5 0 1 1 804.25,371.31A5,5 0 1 1 814.25,371.31Z" style="fill:#5B1616" />
<path d="M823.1,394.91A5,5 0 1 1 813.1,394.91A5,5 0 1 1 823.1,394.91Z" style="fill:#5B1616" />
<path d="M831.96,450.24A5,5 0 1 1 821.96,450.24A5,5 0 1 1 831.96,450.24Z" style="fill:#5B1616" />
<path d="M840.82,373.08A5,5 0 1 1 830.82,373.08A5,5 0 1 1 840.82,373.08Z" style="fill:#5B1616" />
<path d="M849.68,325.71A5,5 0 1 1 839.68,325.71A5,5 0 1 1 849.68,325.71Z" style="fill:#5B1616" />
<path d="M858.54,392.16A5,5 0 1 1 848.54,392.16A5,5 0 1 1 858.54,392.16Z" style="fill:#5B1616" />
<path d="M867.4,376.1A5,5 0 1 1 857.4,376.1A5,5 0 1 1 867.4,376.1Z" style="fill:#5B1616" />
<path d="M876.26,423.02A5,5 0 1 1 866.26,423.02A5,5 0 1 1 876.26,423.02Z" style="fill:#5B1616" />
<path d="M885.11,466.2A5,5 0 1 1 875.11,466.2A5,5 0 1 1 885.11,466.2Z" style="fill:#5B1616" />
<path d="M893.97,493.91A5,5 0 1 1 883.97,493.91A5,5 0 1 1 893.97,493.91Z" style="fill:#5B1616" />
<path d="M902.83,408.23A5,5 0 1 1 892.83,408.23A5,5 0 1 1 902.83,408.23Z" style="fill:#5B1616" />
<path d="M911.69,285.54A5,5 0 1 1 901.69,285.54A5,5 0 1 1 911.69,285.54Z" style="fill:#5B1616" />
<path d="M920.55,391.98A5,5 0 1 1 910.55,391.98A5,5 0 1 1 920.55,391.98Z" style="fill:#5B1616" />
<path d="M929.41,356.25A5,5 0 1 1 919.41,356.25A5,5 0 1 1 929.41,356.25Z" style="fill:#5B1616" />
<path d="M938.26,503.96A5,5 0 1 1 928.26,503.96A5,5 0 1 1 938.26,503.96Z" style="fill:#5B1616" />
<path d="M947.12,472.55A5,5 0 1 1 937.12,472.55A5,5 0 1 1 947.12,472.55Z" style="fill:#5B1616" />
<path d="M955.98,340.14A5,5 0 1 1 945.98,340.14A5,5 0 1 1 955.98,340.14Z" style="fill:#5B1616" />
<path d="M964.84,449.44A5,5 0 1 1 954.84,449.44A5,5 0 1 1 964.84,449.44Z" style="fill:#5B1616" />
<path d="M973.7,234.05A5,5 0 1 1 963.7,234.05A5,5 0 1 1 973.7,234.05Z" style="fill:#5B1616" />
<path d="M982.56,371.19A5,5 0 1 1 972.56,371.19A5,5 0 1 1 982.56,371.19Z" style="fill:#5B1616" />
<path d="M991.42,370.25A5,5 0 1 1 981.42,370.25A5,5 0 1 1 991.42,370.25Z" style="fill:#5B1616" />
<path d="M1000.3,289.97A5,5 0 1 1 990.27,289.97A5,5 0 1 1 1000.3,289.97Z" style="fill:#5B1616" />
<path d="M1009.1,326.5A5,5 0 1 1 999.13,326.5A5,5 0 1 1 1009.1,326.5Z" style="fill:#5B1616" />
<path d="M1018,426.1A5,5 0 1 1 1008,426.1A5,5 0 1 1 1018,426.1Z" style="fill:#5B1616" />
<path d="M1026.8,407.25A5,5 0 1 1 1016.8,407.25A5,5 0 1 1 1026.8,407.25Z" style="fill:#5B1616" />
<path d="M1035.7,345.9A5,5 0 1 1 1025.7,345.9A5,5 0 1 1 1035.7,345.9Z" style="fill:#5B1616" />
<path d="M1044.6,424.19A5,5 0 1 1 1034.6,424.19A5,5 0 1 1 1044.6,424.19Z" style="fill:#5B1616" />
<path d="M1053.4,545.35A5,5 0 1 1 1043.4,545.35A5,5 0 1 1 1053.4,545.35Z" style="fill:#5B1616" />
<path d="M1062.3,367.76A5,5 0 1 1 1052.3,367.76A5,5 0 1 1 1062.3,367.76Z" style="fill:#5B1616" />
<path d="M1071.1,438.33A5,5 0 1 1 1061.1,438.33A5,5 0 1 1 1071.1,438.33Z" style="fill:#5B1616" />
<path d="M1080,429.23A5,5 0 1 1 1070,429.23A5,5 0 1 1 1080,429.23Z" style="fill:#5B1616" />
<path d="M215.73,974.14L1075,974.14" style="fill:none;stroke:#000000" />
<path d="M1075,136.74L1075,974.14" style="fill:none;stroke:#000000" />
<path d="M1038,942.02A8,8 0 1 1 1022,942.02A8,8 0 1 1 1038,942.02Z" style="fill:#FF7AB4" />
<text x="680.82" y="-933.54" transform="scale(1, -1)"
	style="font-family:Helvetica;font-weight:normal;font-style:normal;font-size:36px">10k 1s dwell 5 avgs</text>
<path d="M1038,900.61A8,8 0 1 1 1022,900.61A8,8 0 1 1 1038,900.61Z" style="fill:#7A9CFF" />
<text x="670.82" y="-892.13" transform="scale(1, -1)"
	style="font-family:Helvetica;font-weight:normal;font-style:normal;font-size:36px">10k .5s dwell 5 avgs</text>
<path d="M1038,859.2A8,8 0 1 1 1022,859.2A8,8 0 1 1 1038,859.2Z" style="fill:#5B1616" />
<text x="670.82" y="-850.72" transform="scale(1, -1)"
	style="font-family:Helvetica;font-weight:normal;font-style:normal;font-size:36px">10k .1s dwell 5 avgs</text>
</g>
</svg>
