<?xml version="1.0"?>
<!-- Generated by SVGo and Plotinum VG -->
<svg width="1080pt" height="1080pt" viewBox="0 0 1080 1080"
	xmlns="http://www.w3.org/2000/svg"
	xmlns:xlink="http://www.w3.org/1999/xlink">
<g transform="scale(1, -1) translate(0, -1080)">
<path d="M0,0L1080,0L1080,1080L0,1080Z" style="fill:#-8000000000000000-8000000000000000-8000000000000000;fill-opacity:0" />
<text x="315.34" y="-1039.5" transform="scale(1, -1)"
	style="font-family:Helvetica;font-weight:normal;font-style:normal;font-size:50px">500 nm TeO2 CABS</text>
<text x="480.05" y="-11.039" transform="scale(1, -1)"
	style="font-family:Helvetica;font-weight:normal;font-style:normal;font-size:36px">Frequency (GHz)</text>
<text x="231.69" y="-71.258" transform="scale(1, -1)"
	style="font-family:Helvetica;font-weight:normal;font-style:normal;font-size:36px">11.63</text>
<text x="460.15" y="-71.258" transform="scale(1, -1)"
	style="font-family:Helvetica;font-weight:normal;font-style:normal;font-size:36px">11.88</text>
<text x="687.27" y="-71.258" transform="scale(1, -1)"
	style="font-family:Helvetica;font-weight:normal;font-style:normal;font-size:36px">12.12</text>
<text x="915.73" y="-71.258" transform="scale(1, -1)"
	style="font-family:Helvetica;font-weight:normal;font-style:normal;font-size:36px">12.37</text>
<path d="M161.17,112.44L161.17,108.44" style="fill:none;stroke:#000000;stroke-width:1.5" />
<path d="M275.4,116.44L275.4,108.44" style="fill:none;stroke:#000000;stroke-width:1.5" />
<path d="M389.62,112.44L389.62,108.44" style="fill:none;stroke:#000000;stroke-width:1.5" />
<path d="M503.85,116.44L503.85,108.44" style="fill:none;stroke:#000000;stroke-width:1.5" />
<path d="M618.08,112.44L618.08,108.44" style="fill:none;stroke:#000000;stroke-width:1.5" />
<path d="M732.31,116.44L732.31,108.44" style="fill:none;stroke:#000000;stroke-width:1.5" />
<path d="M846.54,112.44L846.54,108.44" style="fill:none;stroke:#000000;stroke-width:1.5" />
<path d="M960.77,116.44L960.77,108.44" style="fill:none;stroke:#000000;stroke-width:1.5" />
<path d="M1075,112.44L1075,108.44" style="fill:none;stroke:#000000;stroke-width:1.5" />
<path d="M161.17,108.44L1075,108.44" style="fill:none;stroke:#000000;stroke-width:1.5" />
<g transform="rotate(90)">
<text x="370.11" y="29.18" transform="scale(1, -1)"
	style="font-family:Helvetica;font-weight:normal;font-style:normal;font-size:36px">Spectral Density (uV)</text>
</g>
<text x="67.848" y="-208.35" transform="scale(1, -1)"
	style="font-family:Helvetica;font-weight:normal;font-style:normal;font-size:36px">0.28</text>
<text x="67.848" y="-424.56" transform="scale(1, -1)"
	style="font-family:Helvetica;font-weight:normal;font-style:normal;font-size:36px">0.84</text>
<text x="67.848" y="-640.76" transform="scale(1, -1)"
	style="font-family:Helvetica;font-weight:normal;font-style:normal;font-size:36px">1.40</text>
<text x="67.848" y="-856.97" transform="scale(1, -1)"
	style="font-family:Helvetica;font-weight:normal;font-style:normal;font-size:36px">1.96</text>
<path d="M159.92,109.32L155.92,109.32" style="fill:none;stroke:#000000;stroke-width:1.5" />
<path d="M163.92,217.42L155.92,217.42" style="fill:none;stroke:#000000;stroke-width:1.5" />
<path d="M159.92,325.52L155.92,325.52" style="fill:none;stroke:#000000;stroke-width:1.5" />
<path d="M163.92,433.63L155.92,433.63" style="fill:none;stroke:#000000;stroke-width:1.5" />
<path d="M159.92,541.73L155.92,541.73" style="fill:none;stroke:#000000;stroke-width:1.5" />
<path d="M163.92,649.83L155.92,649.83" style="fill:none;stroke:#000000;stroke-width:1.5" />
<path d="M159.92,757.93L155.92,757.93" style="fill:none;stroke:#000000;stroke-width:1.5" />
<path d="M163.92,866.04L155.92,866.04" style="fill:none;stroke:#000000;stroke-width:1.5" />
<path d="M159.92,974.14L155.92,974.14" style="fill:none;stroke:#000000;stroke-width:1.5" />
<path d="M159.92,974.14L155.92,974.14" style="fill:none;stroke:#000000;stroke-width:1.5" />
<path d="M155.92,106.19L155.92,974.14" style="fill:none;stroke:#000000;stroke-width:1.5" />
<path d="M531.85,384.69L531.85,392.34" style="fill:none;stroke:#1FD3AC" />
<path d="M529.35,384.69L534.35,384.69" style="fill:none;stroke:#1FD3AC" />
<path d="M529.35,392.34L534.35,392.34" style="fill:none;stroke:#1FD3AC" />
<path d="M545.91,383.75L545.91,393.15" style="fill:none;stroke:#1FD3AC" />
<path d="M543.41,383.75L548.41,383.75" style="fill:none;stroke:#1FD3AC" />
<path d="M543.41,393.15L548.41,393.15" style="fill:none;stroke:#1FD3AC" />
<path d="M559.97,391.67L559.97,401.95" style="fill:none;stroke:#1FD3AC" />
<path d="M557.47,391.67L562.47,391.67" style="fill:none;stroke:#1FD3AC" />
<path d="M557.47,401.95L562.47,401.95" style="fill:none;stroke:#1FD3AC" />
<path d="M574.03,410.12L574.03,419.99" style="fill:none;stroke:#1FD3AC" />
<path d="M571.53,410.12L576.53,410.12" style="fill:none;stroke:#1FD3AC" />
<path d="M571.53,419.99L576.53,419.99" style="fill:none;stroke:#1FD3AC" />
<path d="M588.09,422.66L588.09,434.8" style="fill:none;stroke:#1FD3AC" />
<path d="M585.59,422.66L590.59,422.66" style="fill:none;stroke:#1FD3AC" />
<path d="M585.59,434.8L590.59,434.8" style="fill:none;stroke:#1FD3AC" />
<path d="M602.15,439.2L602.15,452.18" style="fill:none;stroke:#1FD3AC" />
<path d="M599.65,439.2L604.65,439.2" style="fill:none;stroke:#1FD3AC" />
<path d="M599.65,452.18L604.65,452.18" style="fill:none;stroke:#1FD3AC" />
<path d="M616.2,434.56L616.2,448.78" style="fill:none;stroke:#1FD3AC" />
<path d="M613.7,434.56L618.7,434.56" style="fill:none;stroke:#1FD3AC" />
<path d="M613.7,448.78L618.7,448.78" style="fill:none;stroke:#1FD3AC" />
<path d="M630.26,489.57L630.26,505.03" style="fill:none;stroke:#1FD3AC" />
<path d="M627.76,489.57L632.76,489.57" style="fill:none;stroke:#1FD3AC" />
<path d="M627.76,505.03L632.76,505.03" style="fill:none;stroke:#1FD3AC" />
<path d="M644.32,509.08L644.32,527.4" style="fill:none;stroke:#1FD3AC" />
<path d="M641.82,509.08L646.82,509.08" style="fill:none;stroke:#1FD3AC" />
<path d="M641.82,527.4L646.82,527.4" style="fill:none;stroke:#1FD3AC" />
<path d="M658.38,527.24L658.38,552.75" style="fill:none;stroke:#1FD3AC" />
<path d="M655.88,527.24L660.88,527.24" style="fill:none;stroke:#1FD3AC" />
<path d="M655.88,552.75L660.88,552.75" style="fill:none;stroke:#1FD3AC" />
<path d="M672.44,592.71L672.44,618.49" style="fill:none;stroke:#1FD3AC" />
<path d="M669.94,592.71L674.94,592.71" style="fill:none;stroke:#1FD3AC" />
<path d="M669.94,618.49L674.94,618.49" style="fill:none;stroke:#1FD3AC" />
<path d="M686.5,668.04L686.5,694.03" style="fill:none;stroke:#1FD3AC" />
<path d="M684,668.04L689,668.04" style="fill:none;stroke:#1FD3AC" />
<path d="M684,694.03L689,694.03" style="fill:none;stroke:#1FD3AC" />
<path d="M700.56,669.74L700.56,701.99" style="fill:none;stroke:#1FD3AC" />
<path d="M698.06,669.74L703.06,669.74" style="fill:none;stroke:#1FD3AC" />
<path d="M698.06,701.99L703.06,701.99" style="fill:none;stroke:#1FD3AC" />
<path d="M714.62,631.11L714.62,664.19" style="fill:none;stroke:#1FD3AC" />
<path d="M712.12,631.11L717.12,631.11" style="fill:none;stroke:#1FD3AC" />
<path d="M712.12,664.19L717.12,664.19" style="fill:none;stroke:#1FD3AC" />
<path d="M728.68,628.05L728.68,654.25" style="fill:none;stroke:#1FD3AC" />
<path d="M726.18,628.05L731.18,628.05" style="fill:none;stroke:#1FD3AC" />
<path d="M726.18,654.25L731.18,654.25" style="fill:none;stroke:#1FD3AC" />
<path d="M742.74,565.53L742.74,589.32" style="fill:none;stroke:#1FD3AC" />
<path d="M740.24,565.53L745.24,565.53" style="fill:none;stroke:#1FD3AC" />
<path d="M740.24,589.32L745.24,589.32" style="fill:none;stroke:#1FD3AC" />
<path d="M756.79,569.23L756.79,605.16" style="fill:none;stroke:#1FD3AC" />
<path d="M754.29,569.23L759.29,569.23" style="fill:none;stroke:#1FD3AC" />
<path d="M754.29,605.16L759.29,605.16" style="fill:none;stroke:#1FD3AC" />
<path d="M770.85,502.39L770.85,527.03" style="fill:none;stroke:#1FD3AC" />
<path d="M768.35,502.39L773.35,502.39" style="fill:none;stroke:#1FD3AC" />
<path d="M768.35,527.03L773.35,527.03" style="fill:none;stroke:#1FD3AC" />
<path d="M784.91,416.67L784.91,436.31" style="fill:none;stroke:#1FD3AC" />
<path d="M782.41,416.67L787.41,416.67" style="fill:none;stroke:#1FD3AC" />
<path d="M782.41,436.31L787.41,436.31" style="fill:none;stroke:#1FD3AC" />
<path d="M798.97,398.52L798.97,416.59" style="fill:none;stroke:#1FD3AC" />
<path d="M796.47,398.52L801.47,398.52" style="fill:none;stroke:#1FD3AC" />
<path d="M796.47,416.59L801.47,416.59" style="fill:none;stroke:#1FD3AC" />
<path d="M813.03,359.03L813.03,376.96" style="fill:none;stroke:#1FD3AC" />
<path d="M810.53,359.03L815.53,359.03" style="fill:none;stroke:#1FD3AC" />
<path d="M810.53,376.96L815.53,376.96" style="fill:none;stroke:#1FD3AC" />
<path d="M827.09,359.2L827.09,375.04" style="fill:none;stroke:#1FD3AC" />
<path d="M824.59,359.2L829.59,359.2" style="fill:none;stroke:#1FD3AC" />
<path d="M824.59,375.04L829.59,375.04" style="fill:none;stroke:#1FD3AC" />
<path d="M841.15,334.51L841.15,348.94" style="fill:none;stroke:#1FD3AC" />
<path d="M838.65,334.51L843.65,334.51" style="fill:none;stroke:#1FD3AC" />
<path d="M838.65,348.94L843.65,348.94" style="fill:none;stroke:#1FD3AC" />
<path d="M855.21,278.27L855.21,289.09" style="fill:none;stroke:#1FD3AC" />
<path d="M852.71,278.27L857.71,278.27" style="fill:none;stroke:#1FD3AC" />
<path d="M852.71,289.09L857.71,289.09" style="fill:none;stroke:#1FD3AC" />
<path d="M869.27,253.08L869.27,265.85" style="fill:none;stroke:#1FD3AC" />
<path d="M866.77,253.08L871.77,253.08" style="fill:none;stroke:#1FD3AC" />
<path d="M866.77,265.85L871.77,265.85" style="fill:none;stroke:#1FD3AC" />
<path d="M883.33,253.63L883.33,262.89" style="fill:none;stroke:#1FD3AC" />
<path d="M880.83,253.63L885.83,253.63" style="fill:none;stroke:#1FD3AC" />
<path d="M880.83,262.89L885.83,262.89" style="fill:none;stroke:#1FD3AC" />
<path d="M897.38,248.48L897.38,255.94" style="fill:none;stroke:#1FD3AC" />
<path d="M894.88,248.48L899.88,248.48" style="fill:none;stroke:#1FD3AC" />
<path d="M894.88,255.94L899.88,255.94" style="fill:none;stroke:#1FD3AC" />
<path d="M911.44,262.72L911.44,273.59" style="fill:none;stroke:#1FD3AC" />
<path d="M908.94,262.72L913.94,262.72" style="fill:none;stroke:#1FD3AC" />
<path d="M908.94,273.59L913.94,273.59" style="fill:none;stroke:#1FD3AC" />
<path d="M925.5,266.93L925.5,276.7" style="fill:none;stroke:#1FD3AC" />
<path d="M923,266.93L928,266.93" style="fill:none;stroke:#1FD3AC" />
<path d="M923,276.7L928,276.7" style="fill:none;stroke:#1FD3AC" />
<path d="M939.56,274.65L939.56,286.28" style="fill:none;stroke:#1FD3AC" />
<path d="M937.06,274.65L942.06,274.65" style="fill:none;stroke:#1FD3AC" />
<path d="M937.06,286.28L942.06,286.28" style="fill:none;stroke:#1FD3AC" />
<path d="M953.62,277.3L953.62,289.83" style="fill:none;stroke:#1FD3AC" />
<path d="M951.12,277.3L956.12,277.3" style="fill:none;stroke:#1FD3AC" />
<path d="M951.12,289.83L956.12,289.83" style="fill:none;stroke:#1FD3AC" />
<path d="M967.68,279.46L967.68,289.3" style="fill:none;stroke:#1FD3AC" />
<path d="M965.18,279.46L970.18,279.46" style="fill:none;stroke:#1FD3AC" />
<path d="M965.18,289.3L970.18,289.3" style="fill:none;stroke:#1FD3AC" />
<path d="M981.74,286.78L981.74,297.65" style="fill:none;stroke:#1FD3AC" />
<path d="M979.24,286.78L984.24,286.78" style="fill:none;stroke:#1FD3AC" />
<path d="M979.24,297.65L984.24,297.65" style="fill:none;stroke:#1FD3AC" />
<path d="M995.8,273.72L995.8,298.23" style="fill:none;stroke:#1FD3AC" />
<path d="M993.3,273.72L998.3,273.72" style="fill:none;stroke:#1FD3AC" />
<path d="M993.3,298.23L998.3,298.23" style="fill:none;stroke:#1FD3AC" />
<path d="M536.85,388.52A5,5 0 1 1 526.85,388.52A5,5 0 1 1 536.85,388.52Z" style="fill:#1FD3AC" />
<path d="M550.91,388.45A5,5 0 1 1 540.91,388.45A5,5 0 1 1 550.91,388.45Z" style="fill:#1FD3AC" />
<path d="M564.97,396.81A5,5 0 1 1 554.97,396.81A5,5 0 1 1 564.97,396.81Z" style="fill:#1FD3AC" />
<path d="M579.03,415.05A5,5 0 1 1 569.03,415.05A5,5 0 1 1 579.03,415.05Z" style="fill:#1FD3AC" />
<path d="M593.09,428.73A5,5 0 1 1 583.09,428.73A5,5 0 1 1 593.09,428.73Z" style="fill:#1FD3AC" />
<path d="M607.15,445.69A5,5 0 1 1 597.15,445.69A5,5 0 1 1 607.15,445.69Z" style="fill:#1FD3AC" />
<path d="M621.2,441.67A5,5 0 1 1 611.2,441.67A5,5 0 1 1 621.2,441.67Z" style="fill:#1FD3AC" />
<path d="M635.26,497.3A5,5 0 1 1 625.26,497.3A5,5 0 1 1 635.26,497.3Z" style="fill:#1FD3AC" />
<path d="M649.32,518.24A5,5 0 1 1 639.32,518.24A5,5 0 1 1 649.32,518.24Z" style="fill:#1FD3AC" />
<path d="M663.38,539.99A5,5 0 1 1 653.38,539.99A5,5 0 1 1 663.38,539.99Z" style="fill:#1FD3AC" />
<path d="M677.44,605.6A5,5 0 1 1 667.44,605.6A5,5 0 1 1 677.44,605.6Z" style="fill:#1FD3AC" />
<path d="M691.5,681.04A5,5 0 1 1 681.5,681.04A5,5 0 1 1 691.5,681.04Z" style="fill:#1FD3AC" />
<path d="M705.56,685.87A5,5 0 1 1 695.56,685.87A5,5 0 1 1 705.56,685.87Z" style="fill:#1FD3AC" />
<path d="M719.62,647.65A5,5 0 1 1 709.62,647.65A5,5 0 1 1 719.62,647.65Z" style="fill:#1FD3AC" />
<path d="M733.68,641.15A5,5 0 1 1 723.68,641.15A5,5 0 1 1 733.68,641.15Z" style="fill:#1FD3AC" />
<path d="M747.74,577.42A5,5 0 1 1 737.74,577.42A5,5 0 1 1 747.74,577.42Z" style="fill:#1FD3AC" />
<path d="M761.79,587.19A5,5 0 1 1 751.79,587.19A5,5 0 1 1 761.79,587.19Z" style="fill:#1FD3AC" />
<path d="M775.85,514.71A5,5 0 1 1 765.85,514.71A5,5 0 1 1 775.85,514.71Z" style="fill:#1FD3AC" />
<path d="M789.91,426.49A5,5 0 1 1 779.91,426.49A5,5 0 1 1 789.91,426.49Z" style="fill:#1FD3AC" />
<path d="M803.97,407.56A5,5 0 1 1 793.97,407.56A5,5 0 1 1 803.97,407.56Z" style="fill:#1FD3AC" />
<path d="M818.03,368A5,5 0 1 1 808.03,368A5,5 0 1 1 818.03,368Z" style="fill:#1FD3AC" />
<path d="M832.09,367.12A5,5 0 1 1 822.09,367.12A5,5 0 1 1 832.09,367.12Z" style="fill:#1FD3AC" />
<path d="M846.15,341.72A5,5 0 1 1 836.15,341.72A5,5 0 1 1 846.15,341.72Z" style="fill:#1FD3AC" />
<path d="M860.21,283.68A5,5 0 1 1 850.21,283.68A5,5 0 1 1 860.21,283.68Z" style="fill:#1FD3AC" />
<path d="M874.27,259.47A5,5 0 1 1 864.27,259.47A5,5 0 1 1 874.27,259.47Z" style="fill:#1FD3AC" />
<path d="M888.33,258.26A5,5 0 1 1 878.33,258.26A5,5 0 1 1 888.33,258.26Z" style="fill:#1FD3AC" />
<path d="M902.38,252.21A5,5 0 1 1 892.38,252.21A5,5 0 1 1 902.38,252.21Z" style="fill:#1FD3AC" />
<path d="M916.44,268.15A5,5 0 1 1 906.44,268.15A5,5 0 1 1 916.44,268.15Z" style="fill:#1FD3AC" />
<path d="M930.5,271.82A5,5 0 1 1 920.5,271.82A5,5 0 1 1 930.5,271.82Z" style="fill:#1FD3AC" />
<path d="M944.56,280.46A5,5 0 1 1 934.56,280.46A5,5 0 1 1 944.56,280.46Z" style="fill:#1FD3AC" />
<path d="M958.62,283.56A5,5 0 1 1 948.62,283.56A5,5 0 1 1 958.62,283.56Z" style="fill:#1FD3AC" />
<path d="M972.68,284.38A5,5 0 1 1 962.68,284.38A5,5 0 1 1 972.68,284.38Z" style="fill:#1FD3AC" />
<path d="M986.74,292.22A5,5 0 1 1 976.74,292.22A5,5 0 1 1 986.74,292.22Z" style="fill:#1FD3AC" />
<path d="M1000.8,285.98A5,5 0 1 1 990.8,285.98A5,5 0 1 1 1000.8,285.98Z" style="fill:#1FD3AC" />
<path d="M161.17,974.14L1075,974.14" style="fill:none;stroke:#000000" />
<path d="M1075,109.32L1075,974.14" style="fill:none;stroke:#000000" />
<path d="M161.17,202.92L161.17,210" style="fill:none;stroke:#FF7AB4" />
<path d="M158.67,202.92L163.67,202.92" style="fill:none;stroke:#FF7AB4" />
<path d="M158.67,210L163.67,210" style="fill:none;stroke:#FF7AB4" />
<path d="M175.22,186.12L175.22,223.96" style="fill:none;stroke:#FF7AB4" />
<path d="M172.72,186.12L177.72,186.12" style="fill:none;stroke:#FF7AB4" />
<path d="M172.72,223.96L177.72,223.96" style="fill:none;stroke:#FF7AB4" />
<path d="M189.28,171.95L189.28,179.44" style="fill:none;stroke:#FF7AB4" />
<path d="M186.78,171.95L191.78,171.95" style="fill:none;stroke:#FF7AB4" />
<path d="M186.78,179.44L191.78,179.44" style="fill:none;stroke:#FF7AB4" />
<path d="M203.34,141.54L203.34,162.91" style="fill:none;stroke:#FF7AB4" />
<path d="M200.84,141.54L205.84,141.54" style="fill:none;stroke:#FF7AB4" />
<path d="M200.84,162.91L205.84,162.91" style="fill:none;stroke:#FF7AB4" />
<path d="M217.4,142.03L217.4,164.42" style="fill:none;stroke:#FF7AB4" />
<path d="M214.9,142.03L219.9,142.03" style="fill:none;stroke:#FF7AB4" />
<path d="M214.9,164.42L219.9,164.42" style="fill:none;stroke:#FF7AB4" />
<path d="M231.46,161.33L231.46,169.24" style="fill:none;stroke:#FF7AB4" />
<path d="M228.96,161.33L233.96,161.33" style="fill:none;stroke:#FF7AB4" />
<path d="M228.96,169.24L233.96,169.24" style="fill:none;stroke:#FF7AB4" />
<path d="M245.52,229.5L245.52,240.03" style="fill:none;stroke:#FF7AB4" />
<path d="M243.02,229.5L248.02,229.5" style="fill:none;stroke:#FF7AB4" />
<path d="M243.02,240.03L248.02,240.03" style="fill:none;stroke:#FF7AB4" />
<path d="M259.58,195.57L259.58,237.43" style="fill:none;stroke:#FF7AB4" />
<path d="M257.08,195.57L262.08,195.57" style="fill:none;stroke:#FF7AB4" />
<path d="M257.08,237.43L262.08,237.43" style="fill:none;stroke:#FF7AB4" />
<path d="M273.64,211.36L273.64,226.79" style="fill:none;stroke:#FF7AB4" />
<path d="M271.14,211.36L276.14,211.36" style="fill:none;stroke:#FF7AB4" />
<path d="M271.14,226.79L276.14,226.79" style="fill:none;stroke:#FF7AB4" />
<path d="M287.7,168.42L287.7,208.38" style="fill:none;stroke:#FF7AB4" />
<path d="M285.2,168.42L290.2,168.42" style="fill:none;stroke:#FF7AB4" />
<path d="M285.2,208.38L290.2,208.38" style="fill:none;stroke:#FF7AB4" />
<path d="M301.76,174.11L301.76,223.93" style="fill:none;stroke:#FF7AB4" />
<path d="M299.26,174.11L304.26,174.11" style="fill:none;stroke:#FF7AB4" />
<path d="M299.26,223.93L304.26,223.93" style="fill:none;stroke:#FF7AB4" />
<path d="M315.81,235.12L315.81,290.04" style="fill:none;stroke:#FF7AB4" />
<path d="M313.31,235.12L318.31,235.12" style="fill:none;stroke:#FF7AB4" />
<path d="M313.31,290.04L318.31,290.04" style="fill:none;stroke:#FF7AB4" />
<path d="M329.87,254.68L329.87,272.76" style="fill:none;stroke:#FF7AB4" />
<path d="M327.37,254.68L332.37,254.68" style="fill:none;stroke:#FF7AB4" />
<path d="M327.37,272.76L332.37,272.76" style="fill:none;stroke:#FF7AB4" />
<path d="M343.93,262.92L343.93,289.27" style="fill:none;stroke:#FF7AB4" />
<path d="M341.43,262.92L346.43,262.92" style="fill:none;stroke:#FF7AB4" />
<path d="M341.43,289.27L346.43,289.27" style="fill:none;stroke:#FF7AB4" />
<path d="M357.99,206.23L357.99,226.48" style="fill:none;stroke:#FF7AB4" />
<path d="M355.49,206.23L360.49,206.23" style="fill:none;stroke:#FF7AB4" />
<path d="M355.49,226.48L360.49,226.48" style="fill:none;stroke:#FF7AB4" />
<path d="M372.05,214.18L372.05,243.84" style="fill:none;stroke:#FF7AB4" />
<path d="M369.55,214.18L374.55,214.18" style="fill:none;stroke:#FF7AB4" />
<path d="M369.55,243.84L374.55,243.84" style="fill:none;stroke:#FF7AB4" />
<path d="M386.11,159.85L386.11,195.15" style="fill:none;stroke:#FF7AB4" />
<path d="M383.61,159.85L388.61,159.85" style="fill:none;stroke:#FF7AB4" />
<path d="M383.61,195.15L388.61,195.15" style="fill:none;stroke:#FF7AB4" />
<path d="M400.17,190.81L400.17,238.8" style="fill:none;stroke:#FF7AB4" />
<path d="M397.67,190.81L402.67,190.81" style="fill:none;stroke:#FF7AB4" />
<path d="M397.67,238.8L402.67,238.8" style="fill:none;stroke:#FF7AB4" />
<path d="M414.23,136.11L414.23,156.06" style="fill:none;stroke:#FF7AB4" />
<path d="M411.73,136.11L416.73,136.11" style="fill:none;stroke:#FF7AB4" />
<path d="M411.73,156.06L416.73,156.06" style="fill:none;stroke:#FF7AB4" />
<path d="M428.29,138.51L428.29,152.68" style="fill:none;stroke:#FF7AB4" />
<path d="M425.79,138.51L430.79,138.51" style="fill:none;stroke:#FF7AB4" />
<path d="M425.79,152.68L430.79,152.68" style="fill:none;stroke:#FF7AB4" />
<path d="M442.35,148.91L442.35,173.18" style="fill:none;stroke:#FF7AB4" />
<path d="M439.85,148.91L444.85,148.91" style="fill:none;stroke:#FF7AB4" />
<path d="M439.85,173.18L444.85,173.18" style="fill:none;stroke:#FF7AB4" />
<path d="M456.4,178.68L456.4,199.03" style="fill:none;stroke:#FF7AB4" />
<path d="M453.9,178.68L458.9,178.68" style="fill:none;stroke:#FF7AB4" />
<path d="M453.9,199.03L458.9,199.03" style="fill:none;stroke:#FF7AB4" />
<path d="M470.46,160.18L470.46,170.74" style="fill:none;stroke:#FF7AB4" />
<path d="M467.96,160.18L472.96,160.18" style="fill:none;stroke:#FF7AB4" />
<path d="M467.96,170.74L472.96,170.74" style="fill:none;stroke:#FF7AB4" />
<path d="M484.52,136.22L484.52,159.28" style="fill:none;stroke:#FF7AB4" />
<path d="M482.02,136.22L487.02,136.22" style="fill:none;stroke:#FF7AB4" />
<path d="M482.02,159.28L487.02,159.28" style="fill:none;stroke:#FF7AB4" />
<path d="M498.58,149.43L498.58,159.69" style="fill:none;stroke:#FF7AB4" />
<path d="M496.08,149.43L501.08,149.43" style="fill:none;stroke:#FF7AB4" />
<path d="M496.08,159.69L501.08,159.69" style="fill:none;stroke:#FF7AB4" />
<path d="M512.64,165.99L512.64,184.04" style="fill:none;stroke:#FF7AB4" />
<path d="M510.14,165.99L515.14,165.99" style="fill:none;stroke:#FF7AB4" />
<path d="M510.14,184.04L515.14,184.04" style="fill:none;stroke:#FF7AB4" />
<path d="M526.7,131.15L526.7,136.63" style="fill:none;stroke:#FF7AB4" />
<path d="M524.2,131.15L529.2,131.15" style="fill:none;stroke:#FF7AB4" />
<path d="M524.2,136.63L529.2,136.63" style="fill:none;stroke:#FF7AB4" />
<path d="M540.76,141.32L540.76,146.13" style="fill:none;stroke:#FF7AB4" />
<path d="M538.26,141.32L543.26,141.32" style="fill:none;stroke:#FF7AB4" />
<path d="M538.26,146.13L543.26,146.13" style="fill:none;stroke:#FF7AB4" />
<path d="M554.82,143.32L554.82,161.8" style="fill:none;stroke:#FF7AB4" />
<path d="M552.32,143.32L557.32,143.32" style="fill:none;stroke:#FF7AB4" />
<path d="M552.32,161.8L557.32,161.8" style="fill:none;stroke:#FF7AB4" />
<path d="M568.88,138.53L568.88,168.31" style="fill:none;stroke:#FF7AB4" />
<path d="M566.38,138.53L571.38,138.53" style="fill:none;stroke:#FF7AB4" />
<path d="M566.38,168.31L571.38,168.31" style="fill:none;stroke:#FF7AB4" />
<path d="M582.94,164.58L582.94,174.39" style="fill:none;stroke:#FF7AB4" />
<path d="M580.44,164.58L585.44,164.58" style="fill:none;stroke:#FF7AB4" />
<path d="M580.44,174.39L585.44,174.39" style="fill:none;stroke:#FF7AB4" />
<path d="M596.99,148.34L596.99,176.94" style="fill:none;stroke:#FF7AB4" />
<path d="M594.49,148.34L599.49,148.34" style="fill:none;stroke:#FF7AB4" />
<path d="M594.49,176.94L599.49,176.94" style="fill:none;stroke:#FF7AB4" />
<path d="M611.05,140.39L611.05,168.11" style="fill:none;stroke:#FF7AB4" />
<path d="M608.55,140.39L613.55,140.39" style="fill:none;stroke:#FF7AB4" />
<path d="M608.55,168.11L613.55,168.11" style="fill:none;stroke:#FF7AB4" />
<path d="M625.11,141.33L625.11,155.84" style="fill:none;stroke:#FF7AB4" />
<path d="M622.61,141.33L627.61,141.33" style="fill:none;stroke:#FF7AB4" />
<path d="M622.61,155.84L627.61,155.84" style="fill:none;stroke:#FF7AB4" />
<path d="M639.17,144.04L639.17,167.98" style="fill:none;stroke:#FF7AB4" />
<path d="M636.67,144.04L641.67,144.04" style="fill:none;stroke:#FF7AB4" />
<path d="M636.67,167.98L641.67,167.98" style="fill:none;stroke:#FF7AB4" />
<path d="M653.23,151.66L653.23,159.7" style="fill:none;stroke:#FF7AB4" />
<path d="M650.73,151.66L655.73,151.66" style="fill:none;stroke:#FF7AB4" />
<path d="M650.73,159.7L655.73,159.7" style="fill:none;stroke:#FF7AB4" />
<path d="M667.29,139.28L667.29,154.97" style="fill:none;stroke:#FF7AB4" />
<path d="M664.79,139.28L669.79,139.28" style="fill:none;stroke:#FF7AB4" />
<path d="M664.79,154.97L669.79,154.97" style="fill:none;stroke:#FF7AB4" />
<path d="M681.35,146.34L681.35,154.62" style="fill:none;stroke:#FF7AB4" />
<path d="M678.85,146.34L683.85,146.34" style="fill:none;stroke:#FF7AB4" />
<path d="M678.85,154.62L683.85,154.62" style="fill:none;stroke:#FF7AB4" />
<path d="M695.41,140.24L695.41,152.4" style="fill:none;stroke:#FF7AB4" />
<path d="M692.91,140.24L697.91,140.24" style="fill:none;stroke:#FF7AB4" />
<path d="M692.91,152.4L697.91,152.4" style="fill:none;stroke:#FF7AB4" />
<path d="M709.47,127.16L709.47,163.09" style="fill:none;stroke:#FF7AB4" />
<path d="M706.97,127.16L711.97,127.16" style="fill:none;stroke:#FF7AB4" />
<path d="M706.97,163.09L711.97,163.09" style="fill:none;stroke:#FF7AB4" />
<path d="M723.53,137.74L723.53,166.28" style="fill:none;stroke:#FF7AB4" />
<path d="M721.03,137.74L726.03,137.74" style="fill:none;stroke:#FF7AB4" />
<path d="M721.03,166.28L726.03,166.28" style="fill:none;stroke:#FF7AB4" />
<path d="M737.58,138.33L737.58,161.96" style="fill:none;stroke:#FF7AB4" />
<path d="M735.08,138.33L740.08,138.33" style="fill:none;stroke:#FF7AB4" />
<path d="M735.08,161.96L740.08,161.96" style="fill:none;stroke:#FF7AB4" />
<path d="M751.64,129.91L751.64,141.44" style="fill:none;stroke:#FF7AB4" />
<path d="M749.14,129.91L754.14,129.91" style="fill:none;stroke:#FF7AB4" />
<path d="M749.14,141.44L754.14,141.44" style="fill:none;stroke:#FF7AB4" />
<path d="M765.7,127.33L765.7,136.99" style="fill:none;stroke:#FF7AB4" />
<path d="M763.2,127.33L768.2,127.33" style="fill:none;stroke:#FF7AB4" />
<path d="M763.2,136.99L768.2,136.99" style="fill:none;stroke:#FF7AB4" />
<path d="M779.76,127.2L779.76,151.48" style="fill:none;stroke:#FF7AB4" />
<path d="M777.26,127.2L782.26,127.2" style="fill:none;stroke:#FF7AB4" />
<path d="M777.26,151.48L782.26,151.48" style="fill:none;stroke:#FF7AB4" />
<path d="M793.82,142.41L793.82,147.49" style="fill:none;stroke:#FF7AB4" />
<path d="M791.32,142.41L796.32,142.41" style="fill:none;stroke:#FF7AB4" />
<path d="M791.32,147.49L796.32,147.49" style="fill:none;stroke:#FF7AB4" />
<path d="M807.88,133.97L807.88,135.85" style="fill:none;stroke:#FF7AB4" />
<path d="M805.38,133.97L810.38,133.97" style="fill:none;stroke:#FF7AB4" />
<path d="M805.38,135.85L810.38,135.85" style="fill:none;stroke:#FF7AB4" />
<path d="M821.94,127.74L821.94,137.87" style="fill:none;stroke:#FF7AB4" />
<path d="M819.44,127.74L824.44,127.74" style="fill:none;stroke:#FF7AB4" />
<path d="M819.44,137.87L824.44,137.87" style="fill:none;stroke:#FF7AB4" />
<path d="M836,113.84L836,127.03" style="fill:none;stroke:#FF7AB4" />
<path d="M833.5,113.84L838.5,113.84" style="fill:none;stroke:#FF7AB4" />
<path d="M833.5,127.03L838.5,127.03" style="fill:none;stroke:#FF7AB4" />
<path d="M850.06,106.19L850.06,113.79" style="fill:none;stroke:#FF7AB4" />
<path d="M847.56,106.19L852.56,106.19" style="fill:none;stroke:#FF7AB4" />
<path d="M847.56,113.79L852.56,113.79" style="fill:none;stroke:#FF7AB4" />
<path d="M864.12,110.88L864.12,118.18" style="fill:none;stroke:#FF7AB4" />
<path d="M861.62,110.88L866.62,110.88" style="fill:none;stroke:#FF7AB4" />
<path d="M861.62,118.18L866.62,118.18" style="fill:none;stroke:#FF7AB4" />
<path d="M878.17,108.47L878.17,110.16" style="fill:none;stroke:#FF7AB4" />
<path d="M875.67,108.47L880.67,108.47" style="fill:none;stroke:#FF7AB4" />
<path d="M875.67,110.16L880.67,110.16" style="fill:none;stroke:#FF7AB4" />
<path d="M892.23,107.01L892.23,119.97" style="fill:none;stroke:#FF7AB4" />
<path d="M889.73,107.01L894.73,107.01" style="fill:none;stroke:#FF7AB4" />
<path d="M889.73,119.97L894.73,119.97" style="fill:none;stroke:#FF7AB4" />
<path d="M906.29,107.42L906.29,121.35" style="fill:none;stroke:#FF7AB4" />
<path d="M903.79,107.42L908.79,107.42" style="fill:none;stroke:#FF7AB4" />
<path d="M903.79,121.35L908.79,121.35" style="fill:none;stroke:#FF7AB4" />
<path d="M920.35,118.99L920.35,123.35" style="fill:none;stroke:#FF7AB4" />
<path d="M917.85,118.99L922.85,118.99" style="fill:none;stroke:#FF7AB4" />
<path d="M917.85,123.35L922.85,123.35" style="fill:none;stroke:#FF7AB4" />
<path d="M934.41,111.96L934.41,118.19" style="fill:none;stroke:#FF7AB4" />
<path d="M931.91,111.96L936.91,111.96" style="fill:none;stroke:#FF7AB4" />
<path d="M931.91,118.19L936.91,118.19" style="fill:none;stroke:#FF7AB4" />
<path d="M948.47,118.78L948.47,125.58" style="fill:none;stroke:#FF7AB4" />
<path d="M945.97,118.78L950.97,118.78" style="fill:none;stroke:#FF7AB4" />
<path d="M945.97,125.58L950.97,125.58" style="fill:none;stroke:#FF7AB4" />
<path d="M962.53,121.81L962.53,124.56" style="fill:none;stroke:#FF7AB4" />
<path d="M960.03,121.81L965.03,121.81" style="fill:none;stroke:#FF7AB4" />
<path d="M960.03,124.56L965.03,124.56" style="fill:none;stroke:#FF7AB4" />
<path d="M976.59,107.57L976.59,121.57" style="fill:none;stroke:#FF7AB4" />
<path d="M974.09,107.57L979.09,107.57" style="fill:none;stroke:#FF7AB4" />
<path d="M974.09,121.57L979.09,121.57" style="fill:none;stroke:#FF7AB4" />
<path d="M990.65,120.24L990.65,126.02" style="fill:none;stroke:#FF7AB4" />
<path d="M988.15,120.24L993.15,120.24" style="fill:none;stroke:#FF7AB4" />
<path d="M988.15,126.02L993.15,126.02" style="fill:none;stroke:#FF7AB4" />
<path d="M1004.7,110.57L1004.7,117.45" style="fill:none;stroke:#FF7AB4" />
<path d="M1002.2,110.57L1007.2,110.57" style="fill:none;stroke:#FF7AB4" />
<path d="M1002.2,117.45L1007.2,117.45" style="fill:none;stroke:#FF7AB4" />
<path d="M1018.8,112.13L1018.8,120.42" style="fill:none;stroke:#FF7AB4" />
<path d="M1016.3,112.13L1021.3,112.13" style="fill:none;stroke:#FF7AB4" />
<path d="M1016.3,120.42L1021.3,120.42" style="fill:none;stroke:#FF7AB4" />
<path d="M1032.8,109.84L1032.8,118.94" style="fill:none;stroke:#FF7AB4" />
<path d="M1030.3,109.84L1035.3,109.84" style="fill:none;stroke:#FF7AB4" />
<path d="M1030.3,118.94L1035.3,118.94" style="fill:none;stroke:#FF7AB4" />
<path d="M1046.9,113.77L1046.9,129.21" style="fill:none;stroke:#FF7AB4" />
<path d="M1044.4,113.77L1049.4,113.77" style="fill:none;stroke:#FF7AB4" />
<path d="M1044.4,129.21L1049.4,129.21" style="fill:none;stroke:#FF7AB4" />
<path d="M1060.9,114.28L1060.9,118.71" style="fill:none;stroke:#FF7AB4" />
<path d="M1058.4,114.28L1063.4,114.28" style="fill:none;stroke:#FF7AB4" />
<path d="M1058.4,118.71L1063.4,118.71" style="fill:none;stroke:#FF7AB4" />
<path d="M1075,113.25L1075,120.76" style="fill:none;stroke:#FF7AB4" />
<path d="M1072.5,113.25L1077.5,113.25" style="fill:none;stroke:#FF7AB4" />
<path d="M1072.5,120.76L1077.5,120.76" style="fill:none;stroke:#FF7AB4" />
<path d="M166.17,206.46A5,5 0 1 1 156.17,206.46A5,5 0 1 1 166.17,206.46Z" style="fill:#FF7AB4" />
<path d="M180.22,205.04A5,5 0 1 1 170.22,205.04A5,5 0 1 1 180.22,205.04Z" style="fill:#FF7AB4" />
<path d="M194.28,175.69A5,5 0 1 1 184.28,175.69A5,5 0 1 1 194.28,175.69Z" style="fill:#FF7AB4" />
<path d="M208.34,152.23A5,5 0 1 1 198.34,152.23A5,5 0 1 1 208.34,152.23Z" style="fill:#FF7AB4" />
<path d="M222.4,153.23A5,5 0 1 1 212.4,153.23A5,5 0 1 1 222.4,153.23Z" style="fill:#FF7AB4" />
<path d="M236.46,165.28A5,5 0 1 1 226.46,165.28A5,5 0 1 1 236.46,165.28Z" style="fill:#FF7AB4" />
<path d="M250.52,234.77A5,5 0 1 1 240.52,234.77A5,5 0 1 1 250.52,234.77Z" style="fill:#FF7AB4" />
<path d="M264.58,216.5A5,5 0 1 1 254.58,216.5A5,5 0 1 1 264.58,216.5Z" style="fill:#FF7AB4" />
<path d="M278.64,219.08A5,5 0 1 1 268.64,219.08A5,5 0 1 1 278.64,219.08Z" style="fill:#FF7AB4" />
<path d="M292.7,188.4A5,5 0 1 1 282.7,188.4A5,5 0 1 1 292.7,188.4Z" style="fill:#FF7AB4" />
<path d="M306.76,199.02A5,5 0 1 1 296.76,199.02A5,5 0 1 1 306.76,199.02Z" style="fill:#FF7AB4" />
<path d="M320.81,262.58A5,5 0 1 1 310.81,262.58A5,5 0 1 1 320.81,262.58Z" style="fill:#FF7AB4" />
<path d="M334.87,263.72A5,5 0 1 1 324.87,263.72A5,5 0 1 1 334.87,263.72Z" style="fill:#FF7AB4" />
<path d="M348.93,276.09A5,5 0 1 1 338.93,276.09A5,5 0 1 1 348.93,276.09Z" style="fill:#FF7AB4" />
<path d="M362.99,216.35A5,5 0 1 1 352.99,216.35A5,5 0 1 1 362.99,216.35Z" style="fill:#FF7AB4" />
<path d="M377.05,229.01A5,5 0 1 1 367.05,229.01A5,5 0 1 1 377.05,229.01Z" style="fill:#FF7AB4" />
<path d="M391.11,177.5A5,5 0 1 1 381.11,177.5A5,5 0 1 1 391.11,177.5Z" style="fill:#FF7AB4" />
<path d="M405.17,214.8A5,5 0 1 1 395.17,214.8A5,5 0 1 1 405.17,214.8Z" style="fill:#FF7AB4" />
<path d="M419.23,146.09A5,5 0 1 1 409.23,146.09A5,5 0 1 1 419.23,146.09Z" style="fill:#FF7AB4" />
<path d="M433.29,145.59A5,5 0 1 1 423.29,145.59A5,5 0 1 1 433.29,145.59Z" style="fill:#FF7AB4" />
<path d="M447.35,161.05A5,5 0 1 1 437.35,161.05A5,5 0 1 1 447.35,161.05Z" style="fill:#FF7AB4" />
<path d="M461.4,188.85A5,5 0 1 1 451.4,188.85A5,5 0 1 1 461.4,188.85Z" style="fill:#FF7AB4" />
<path d="M475.46,165.46A5,5 0 1 1 465.46,165.46A5,5 0 1 1 475.46,165.46Z" style="fill:#FF7AB4" />
<path d="M489.52,147.75A5,5 0 1 1 479.52,147.75A5,5 0 1 1 489.52,147.75Z" style="fill:#FF7AB4" />
<path d="M503.58,154.56A5,5 0 1 1 493.58,154.56A5,5 0 1 1 503.58,154.56Z" style="fill:#FF7AB4" />
<path d="M517.64,175.02A5,5 0 1 1 507.64,175.02A5,5 0 1 1 517.64,175.02Z" style="fill:#FF7AB4" />
<path d="M531.7,133.89A5,5 0 1 1 521.7,133.89A5,5 0 1 1 531.7,133.89Z" style="fill:#FF7AB4" />
<path d="M545.76,143.72A5,5 0 1 1 535.76,143.72A5,5 0 1 1 545.76,143.72Z" style="fill:#FF7AB4" />
<path d="M559.82,152.56A5,5 0 1 1 549.82,152.56A5,5 0 1 1 559.82,152.56Z" style="fill:#FF7AB4" />
<path d="M573.88,153.42A5,5 0 1 1 563.88,153.42A5,5 0 1 1 573.88,153.42Z" style="fill:#FF7AB4" />
<path d="M587.94,169.48A5,5 0 1 1 577.94,169.48A5,5 0 1 1 587.94,169.48Z" style="fill:#FF7AB4" />
<path d="M601.99,162.64A5,5 0 1 1 591.99,162.64A5,5 0 1 1 601.99,162.64Z" style="fill:#FF7AB4" />
<path d="M616.05,154.25A5,5 0 1 1 606.05,154.25A5,5 0 1 1 616.05,154.25Z" style="fill:#FF7AB4" />
<path d="M630.11,148.58A5,5 0 1 1 620.11,148.58A5,5 0 1 1 630.11,148.58Z" style="fill:#FF7AB4" />
<path d="M644.17,156.01A5,5 0 1 1 634.17,156.01A5,5 0 1 1 644.17,156.01Z" style="fill:#FF7AB4" />
<path d="M658.23,155.68A5,5 0 1 1 648.23,155.68A5,5 0 1 1 658.23,155.68Z" style="fill:#FF7AB4" />
<path d="M672.29,147.12A5,5 0 1 1 662.29,147.12A5,5 0 1 1 672.29,147.12Z" style="fill:#FF7AB4" />
<path d="M686.35,150.48A5,5 0 1 1 676.35,150.48A5,5 0 1 1 686.35,150.48Z" style="fill:#FF7AB4" />
<path d="M700.41,146.32A5,5 0 1 1 690.41,146.32A5,5 0 1 1 700.41,146.32Z" style="fill:#FF7AB4" />
<path d="M714.47,145.12A5,5 0 1 1 704.47,145.12A5,5 0 1 1 714.47,145.12Z" style="fill:#FF7AB4" />
<path d="M728.53,152.01A5,5 0 1 1 718.53,152.01A5,5 0 1 1 728.53,152.01Z" style="fill:#FF7AB4" />
<path d="M742.58,150.14A5,5 0 1 1 732.58,150.14A5,5 0 1 1 742.58,150.14Z" style="fill:#FF7AB4" />
<path d="M756.64,135.67A5,5 0 1 1 746.64,135.67A5,5 0 1 1 756.64,135.67Z" style="fill:#FF7AB4" />
<path d="M770.7,132.16A5,5 0 1 1 760.7,132.16A5,5 0 1 1 770.7,132.16Z" style="fill:#FF7AB4" />
<path d="M784.76,139.34A5,5 0 1 1 774.76,139.34A5,5 0 1 1 784.76,139.34Z" style="fill:#FF7AB4" />
<path d="M798.82,144.95A5,5 0 1 1 788.82,144.95A5,5 0 1 1 798.82,144.95Z" style="fill:#FF7AB4" />
<path d="M812.88,134.91A5,5 0 1 1 802.88,134.91A5,5 0 1 1 812.88,134.91Z" style="fill:#FF7AB4" />
<path d="M826.94,132.8A5,5 0 1 1 816.94,132.8A5,5 0 1 1 826.94,132.8Z" style="fill:#FF7AB4" />
<path d="M841,120.43A5,5 0 1 1 831,120.43A5,5 0 1 1 841,120.43Z" style="fill:#FF7AB4" />
<path d="M855.06,109.99A5,5 0 1 1 845.06,109.99A5,5 0 1 1 855.06,109.99Z" style="fill:#FF7AB4" />
<path d="M869.12,114.53A5,5 0 1 1 859.12,114.53A5,5 0 1 1 869.12,114.53Z" style="fill:#FF7AB4" />
<path d="M883.17,109.32A5,5 0 1 1 873.17,109.32A5,5 0 1 1 883.17,109.32Z" style="fill:#FF7AB4" />
<path d="M897.23,113.49A5,5 0 1 1 887.23,113.49A5,5 0 1 1 897.23,113.49Z" style="fill:#FF7AB4" />
<path d="M911.29,114.38A5,5 0 1 1 901.29,114.38A5,5 0 1 1 911.29,114.38Z" style="fill:#FF7AB4" />
<path d="M925.35,121.17A5,5 0 1 1 915.35,121.17A5,5 0 1 1 925.35,121.17Z" style="fill:#FF7AB4" />
<path d="M939.41,115.08A5,5 0 1 1 929.41,115.08A5,5 0 1 1 939.41,115.08Z" style="fill:#FF7AB4" />
<path d="M953.47,122.18A5,5 0 1 1 943.47,122.18A5,5 0 1 1 953.47,122.18Z" style="fill:#FF7AB4" />
<path d="M967.53,123.19A5,5 0 1 1 957.53,123.19A5,5 0 1 1 967.53,123.19Z" style="fill:#FF7AB4" />
<path d="M981.59,114.57A5,5 0 1 1 971.59,114.57A5,5 0 1 1 981.59,114.57Z" style="fill:#FF7AB4" />
<path d="M995.65,123.13A5,5 0 1 1 985.65,123.13A5,5 0 1 1 995.65,123.13Z" style="fill:#FF7AB4" />
<path d="M1009.7,114.01A5,5 0 1 1 999.71,114.01A5,5 0 1 1 1009.7,114.01Z" style="fill:#FF7AB4" />
<path d="M1023.8,116.28A5,5 0 1 1 1013.8,116.28A5,5 0 1 1 1023.8,116.28Z" style="fill:#FF7AB4" />
<path d="M1037.8,114.39A5,5 0 1 1 1027.8,114.39A5,5 0 1 1 1037.8,114.39Z" style="fill:#FF7AB4" />
<path d="M1051.9,121.49A5,5 0 1 1 1041.9,121.49A5,5 0 1 1 1051.9,121.49Z" style="fill:#FF7AB4" />
<path d="M1065.9,116.5A5,5 0 1 1 1055.9,116.5A5,5 0 1 1 1065.9,116.5Z" style="fill:#FF7AB4" />
<path d="M1080,117.01A5,5 0 1 1 1070,117.01A5,5 0 1 1 1080,117.01Z" style="fill:#FF7AB4" />
<path d="M161.17,974.14L1075,974.14" style="fill:none;stroke:#000000" />
<path d="M1075,109.32L1075,974.14" style="fill:none;stroke:#000000" />
<path d="M438.6,151.12L438.6,158.01" style="fill:none;stroke:#7A9CFF" />
<path d="M436.1,151.12L441.1,151.12" style="fill:none;stroke:#7A9CFF" />
<path d="M436.1,158.01L441.1,158.01" style="fill:none;stroke:#7A9CFF" />
<path d="M452.66,154.43L452.66,166.77" style="fill:none;stroke:#7A9CFF" />
<path d="M450.16,154.43L455.16,154.43" style="fill:none;stroke:#7A9CFF" />
<path d="M450.16,166.77L455.16,166.77" style="fill:none;stroke:#7A9CFF" />
<path d="M466.71,154.47L466.71,162.61" style="fill:none;stroke:#7A9CFF" />
<path d="M464.21,154.47L469.21,154.47" style="fill:none;stroke:#7A9CFF" />
<path d="M464.21,162.61L469.21,162.61" style="fill:none;stroke:#7A9CFF" />
<path d="M480.77,151.87L480.77,163.3" style="fill:none;stroke:#7A9CFF" />
<path d="M478.27,151.87L483.27,151.87" style="fill:none;stroke:#7A9CFF" />
<path d="M478.27,163.3L483.27,163.3" style="fill:none;stroke:#7A9CFF" />
<path d="M494.83,150.21L494.83,164.13" style="fill:none;stroke:#7A9CFF" />
<path d="M492.33,150.21L497.33,150.21" style="fill:none;stroke:#7A9CFF" />
<path d="M492.33,164.13L497.33,164.13" style="fill:none;stroke:#7A9CFF" />
<path d="M508.89,148.99L508.89,157.48" style="fill:none;stroke:#7A9CFF" />
<path d="M506.39,148.99L511.39,148.99" style="fill:none;stroke:#7A9CFF" />
<path d="M506.39,157.48L511.39,157.48" style="fill:none;stroke:#7A9CFF" />
<path d="M522.95,153.68L522.95,162.4" style="fill:none;stroke:#7A9CFF" />
<path d="M520.45,153.68L525.45,153.68" style="fill:none;stroke:#7A9CFF" />
<path d="M520.45,162.4L525.45,162.4" style="fill:none;stroke:#7A9CFF" />
<path d="M537.01,156.23L537.01,165.92" style="fill:none;stroke:#7A9CFF" />
<path d="M534.51,156.23L539.51,156.23" style="fill:none;stroke:#7A9CFF" />
<path d="M534.51,165.92L539.51,165.92" style="fill:none;stroke:#7A9CFF" />
<path d="M551.07,165.32L551.07,177.78" style="fill:none;stroke:#7A9CFF" />
<path d="M548.57,165.32L553.57,165.32" style="fill:none;stroke:#7A9CFF" />
<path d="M548.57,177.78L553.57,177.78" style="fill:none;stroke:#7A9CFF" />
<path d="M565.13,162.27L565.13,173.29" style="fill:none;stroke:#7A9CFF" />
<path d="M562.63,162.27L567.63,162.27" style="fill:none;stroke:#7A9CFF" />
<path d="M562.63,173.29L567.63,173.29" style="fill:none;stroke:#7A9CFF" />
<path d="M579.19,151.27L579.19,167.59" style="fill:none;stroke:#7A9CFF" />
<path d="M576.69,151.27L581.69,151.27" style="fill:none;stroke:#7A9CFF" />
<path d="M576.69,167.59L581.69,167.59" style="fill:none;stroke:#7A9CFF" />
<path d="M593.25,151.1L593.25,160.7" style="fill:none;stroke:#7A9CFF" />
<path d="M590.75,151.1L595.75,151.1" style="fill:none;stroke:#7A9CFF" />
<path d="M590.75,160.7L595.75,160.7" style="fill:none;stroke:#7A9CFF" />
<path d="M607.3,157.04L607.3,165.32" style="fill:none;stroke:#7A9CFF" />
<path d="M604.8,157.04L609.8,157.04" style="fill:none;stroke:#7A9CFF" />
<path d="M604.8,165.32L609.8,165.32" style="fill:none;stroke:#7A9CFF" />
<path d="M621.36,156.75L621.36,167.67" style="fill:none;stroke:#7A9CFF" />
<path d="M618.86,156.75L623.86,156.75" style="fill:none;stroke:#7A9CFF" />
<path d="M618.86,167.67L623.86,167.67" style="fill:none;stroke:#7A9CFF" />
<path d="M635.42,155.85L635.42,164.88" style="fill:none;stroke:#7A9CFF" />
<path d="M632.92,155.85L637.92,155.85" style="fill:none;stroke:#7A9CFF" />
<path d="M632.92,164.88L637.92,164.88" style="fill:none;stroke:#7A9CFF" />
<path d="M649.48,157.28L649.48,166.63" style="fill:none;stroke:#7A9CFF" />
<path d="M646.98,157.28L651.98,157.28" style="fill:none;stroke:#7A9CFF" />
<path d="M646.98,166.63L651.98,166.63" style="fill:none;stroke:#7A9CFF" />
<path d="M663.54,157.88L663.54,165.86" style="fill:none;stroke:#7A9CFF" />
<path d="M661.04,157.88L666.04,157.88" style="fill:none;stroke:#7A9CFF" />
<path d="M661.04,165.86L666.04,165.86" style="fill:none;stroke:#7A9CFF" />
<path d="M677.6,158.83L677.6,172.92" style="fill:none;stroke:#7A9CFF" />
<path d="M675.1,158.83L680.1,158.83" style="fill:none;stroke:#7A9CFF" />
<path d="M675.1,172.92L680.1,172.92" style="fill:none;stroke:#7A9CFF" />
<path d="M691.66,177.28L691.66,188.13" style="fill:none;stroke:#7A9CFF" />
<path d="M689.16,177.28L694.16,177.28" style="fill:none;stroke:#7A9CFF" />
<path d="M689.16,188.13L694.16,188.13" style="fill:none;stroke:#7A9CFF" />
<path d="M705.72,146.86L705.72,154.38" style="fill:none;stroke:#7A9CFF" />
<path d="M703.22,146.86L708.22,146.86" style="fill:none;stroke:#7A9CFF" />
<path d="M703.22,154.38L708.22,154.38" style="fill:none;stroke:#7A9CFF" />
<path d="M719.78,153.85L719.78,162.55" style="fill:none;stroke:#7A9CFF" />
<path d="M717.28,153.85L722.28,153.85" style="fill:none;stroke:#7A9CFF" />
<path d="M717.28,162.55L722.28,162.55" style="fill:none;stroke:#7A9CFF" />
<path d="M733.84,148.04L733.84,155.5" style="fill:none;stroke:#7A9CFF" />
<path d="M731.34,148.04L736.34,148.04" style="fill:none;stroke:#7A9CFF" />
<path d="M731.34,155.5L736.34,155.5" style="fill:none;stroke:#7A9CFF" />
<path d="M747.89,151.5L747.89,162.98" style="fill:none;stroke:#7A9CFF" />
<path d="M745.39,151.5L750.39,151.5" style="fill:none;stroke:#7A9CFF" />
<path d="M745.39,162.98L750.39,162.98" style="fill:none;stroke:#7A9CFF" />
<path d="M761.95,149.98L761.95,160.14" style="fill:none;stroke:#7A9CFF" />
<path d="M759.45,149.98L764.45,149.98" style="fill:none;stroke:#7A9CFF" />
<path d="M759.45,160.14L764.45,160.14" style="fill:none;stroke:#7A9CFF" />
<path d="M776.01,141.5L776.01,147.85" style="fill:none;stroke:#7A9CFF" />
<path d="M773.51,141.5L778.51,141.5" style="fill:none;stroke:#7A9CFF" />
<path d="M773.51,147.85L778.51,147.85" style="fill:none;stroke:#7A9CFF" />
<path d="M790.07,133.34L790.07,140.26" style="fill:none;stroke:#7A9CFF" />
<path d="M787.57,133.34L792.57,133.34" style="fill:none;stroke:#7A9CFF" />
<path d="M787.57,140.26L792.57,140.26" style="fill:none;stroke:#7A9CFF" />
<path d="M804.13,130.4L804.13,135.23" style="fill:none;stroke:#7A9CFF" />
<path d="M801.63,130.4L806.63,130.4" style="fill:none;stroke:#7A9CFF" />
<path d="M801.63,135.23L806.63,135.23" style="fill:none;stroke:#7A9CFF" />
<path d="M818.19,127.17L818.19,132.81" style="fill:none;stroke:#7A9CFF" />
<path d="M815.69,127.17L820.69,127.17" style="fill:none;stroke:#7A9CFF" />
<path d="M815.69,132.81L820.69,132.81" style="fill:none;stroke:#7A9CFF" />
<path d="M832.25,126.25L832.25,132.8" style="fill:none;stroke:#7A9CFF" />
<path d="M829.75,126.25L834.75,126.25" style="fill:none;stroke:#7A9CFF" />
<path d="M829.75,132.8L834.75,132.8" style="fill:none;stroke:#7A9CFF" />
<path d="M846.31,123.67L846.31,131.1" style="fill:none;stroke:#7A9CFF" />
<path d="M843.81,123.67L848.81,123.67" style="fill:none;stroke:#7A9CFF" />
<path d="M843.81,131.1L848.81,131.1" style="fill:none;stroke:#7A9CFF" />
<path d="M860.37,115.48L860.37,121.73" style="fill:none;stroke:#7A9CFF" />
<path d="M857.87,115.48L862.87,115.48" style="fill:none;stroke:#7A9CFF" />
<path d="M857.87,121.73L862.87,121.73" style="fill:none;stroke:#7A9CFF" />
<path d="M874.43,114.31L874.43,119.42" style="fill:none;stroke:#7A9CFF" />
<path d="M871.93,114.31L876.93,114.31" style="fill:none;stroke:#7A9CFF" />
<path d="M871.93,119.42L876.93,119.42" style="fill:none;stroke:#7A9CFF" />
<path d="M888.48,112.62L888.48,117.51" style="fill:none;stroke:#7A9CFF" />
<path d="M885.98,112.62L890.98,112.62" style="fill:none;stroke:#7A9CFF" />
<path d="M885.98,117.51L890.98,117.51" style="fill:none;stroke:#7A9CFF" />
<path d="M902.54,113.36L902.54,118.02" style="fill:none;stroke:#7A9CFF" />
<path d="M900.04,113.36L905.04,113.36" style="fill:none;stroke:#7A9CFF" />
<path d="M900.04,118.02L905.04,118.02" style="fill:none;stroke:#7A9CFF" />
<path d="M916.6,113.33L916.6,117.12" style="fill:none;stroke:#7A9CFF" />
<path d="M914.1,113.33L919.1,113.33" style="fill:none;stroke:#7A9CFF" />
<path d="M914.1,117.12L919.1,117.12" style="fill:none;stroke:#7A9CFF" />
<path d="M930.66,115.44L930.66,120.38" style="fill:none;stroke:#7A9CFF" />
<path d="M928.16,115.44L933.16,115.44" style="fill:none;stroke:#7A9CFF" />
<path d="M928.16,120.38L933.16,120.38" style="fill:none;stroke:#7A9CFF" />
<path d="M944.72,115.21L944.72,120.94" style="fill:none;stroke:#7A9CFF" />
<path d="M942.22,115.21L947.22,115.21" style="fill:none;stroke:#7A9CFF" />
<path d="M942.22,120.94L947.22,120.94" style="fill:none;stroke:#7A9CFF" />
<path d="M958.78,112.37L958.78,116.48" style="fill:none;stroke:#7A9CFF" />
<path d="M956.28,112.37L961.28,112.37" style="fill:none;stroke:#7A9CFF" />
<path d="M956.28,116.48L961.28,116.48" style="fill:none;stroke:#7A9CFF" />
<path d="M972.84,114.77L972.84,118.16" style="fill:none;stroke:#7A9CFF" />
<path d="M970.34,114.77L975.34,114.77" style="fill:none;stroke:#7A9CFF" />
<path d="M970.34,118.16L975.34,118.16" style="fill:none;stroke:#7A9CFF" />
<path d="M986.9,118.48L986.9,122.65" style="fill:none;stroke:#7A9CFF" />
<path d="M984.4,118.48L989.4,118.48" style="fill:none;stroke:#7A9CFF" />
<path d="M984.4,122.65L989.4,122.65" style="fill:none;stroke:#7A9CFF" />
<path d="M443.6,154.57A5,5 0 1 1 433.6,154.57A5,5 0 1 1 443.6,154.57Z" style="fill:#7A9CFF" />
<path d="M457.66,160.6A5,5 0 1 1 447.66,160.6A5,5 0 1 1 457.66,160.6Z" style="fill:#7A9CFF" />
<path d="M471.71,158.54A5,5 0 1 1 461.71,158.54A5,5 0 1 1 471.71,158.54Z" style="fill:#7A9CFF" />
<path d="M485.77,157.59A5,5 0 1 1 475.77,157.59A5,5 0 1 1 485.77,157.59Z" style="fill:#7A9CFF" />
<path d="M499.83,157.17A5,5 0 1 1 489.83,157.17A5,5 0 1 1 499.83,157.17Z" style="fill:#7A9CFF" />
<path d="M513.89,153.23A5,5 0 1 1 503.89,153.23A5,5 0 1 1 513.89,153.23Z" style="fill:#7A9CFF" />
<path d="M527.95,158.04A5,5 0 1 1 517.95,158.04A5,5 0 1 1 527.95,158.04Z" style="fill:#7A9CFF" />
<path d="M542.01,161.08A5,5 0 1 1 532.01,161.08A5,5 0 1 1 542.01,161.08Z" style="fill:#7A9CFF" />
<path d="M556.07,171.55A5,5 0 1 1 546.07,171.55A5,5 0 1 1 556.07,171.55Z" style="fill:#7A9CFF" />
<path d="M570.13,167.78A5,5 0 1 1 560.13,167.78A5,5 0 1 1 570.13,167.78Z" style="fill:#7A9CFF" />
<path d="M584.19,159.43A5,5 0 1 1 574.19,159.43A5,5 0 1 1 584.19,159.43Z" style="fill:#7A9CFF" />
<path d="M598.25,155.9A5,5 0 1 1 588.25,155.9A5,5 0 1 1 598.25,155.9Z" style="fill:#7A9CFF" />
<path d="M612.3,161.18A5,5 0 1 1 602.3,161.18A5,5 0 1 1 612.3,161.18Z" style="fill:#7A9CFF" />
<path d="M626.36,162.21A5,5 0 1 1 616.36,162.21A5,5 0 1 1 626.36,162.21Z" style="fill:#7A9CFF" />
<path d="M640.42,160.36A5,5 0 1 1 630.42,160.36A5,5 0 1 1 640.42,160.36Z" style="fill:#7A9CFF" />
<path d="M654.48,161.95A5,5 0 1 1 644.48,161.95A5,5 0 1 1 654.48,161.95Z" style="fill:#7A9CFF" />
<path d="M668.54,161.87A5,5 0 1 1 658.54,161.87A5,5 0 1 1 668.54,161.87Z" style="fill:#7A9CFF" />
<path d="M682.6,165.88A5,5 0 1 1 672.6,165.88A5,5 0 1 1 682.6,165.88Z" style="fill:#7A9CFF" />
<path d="M696.66,182.71A5,5 0 1 1 686.66,182.71A5,5 0 1 1 696.66,182.71Z" style="fill:#7A9CFF" />
<path d="M710.72,150.62A5,5 0 1 1 700.72,150.62A5,5 0 1 1 710.72,150.62Z" style="fill:#7A9CFF" />
<path d="M724.78,158.2A5,5 0 1 1 714.78,158.2A5,5 0 1 1 724.78,158.2Z" style="fill:#7A9CFF" />
<path d="M738.84,151.77A5,5 0 1 1 728.84,151.77A5,5 0 1 1 738.84,151.77Z" style="fill:#7A9CFF" />
<path d="M752.89,157.24A5,5 0 1 1 742.89,157.24A5,5 0 1 1 752.89,157.24Z" style="fill:#7A9CFF" />
<path d="M766.95,155.06A5,5 0 1 1 756.95,155.06A5,5 0 1 1 766.95,155.06Z" style="fill:#7A9CFF" />
<path d="M781.01,144.68A5,5 0 1 1 771.01,144.68A5,5 0 1 1 781.01,144.68Z" style="fill:#7A9CFF" />
<path d="M795.07,136.8A5,5 0 1 1 785.07,136.8A5,5 0 1 1 795.07,136.8Z" style="fill:#7A9CFF" />
<path d="M809.13,132.82A5,5 0 1 1 799.13,132.82A5,5 0 1 1 809.13,132.82Z" style="fill:#7A9CFF" />
<path d="M823.19,129.99A5,5 0 1 1 813.19,129.99A5,5 0 1 1 823.19,129.99Z" style="fill:#7A9CFF" />
<path d="M837.25,129.53A5,5 0 1 1 827.25,129.53A5,5 0 1 1 837.25,129.53Z" style="fill:#7A9CFF" />
<path d="M851.31,127.39A5,5 0 1 1 841.31,127.39A5,5 0 1 1 851.31,127.39Z" style="fill:#7A9CFF" />
<path d="M865.37,118.6A5,5 0 1 1 855.37,118.6A5,5 0 1 1 865.37,118.6Z" style="fill:#7A9CFF" />
<path d="M879.43,116.87A5,5 0 1 1 869.43,116.87A5,5 0 1 1 879.43,116.87Z" style="fill:#7A9CFF" />
<path d="M893.48,115.07A5,5 0 1 1 883.48,115.07A5,5 0 1 1 893.48,115.07Z" style="fill:#7A9CFF" />
<path d="M907.54,115.69A5,5 0 1 1 897.54,115.69A5,5 0 1 1 907.54,115.69Z" style="fill:#7A9CFF" />
<path d="M921.6,115.23A5,5 0 1 1 911.6,115.23A5,5 0 1 1 921.6,115.23Z" style="fill:#7A9CFF" />
<path d="M935.66,117.91A5,5 0 1 1 925.66,117.91A5,5 0 1 1 935.66,117.91Z" style="fill:#7A9CFF" />
<path d="M949.72,118.07A5,5 0 1 1 939.72,118.07A5,5 0 1 1 949.72,118.07Z" style="fill:#7A9CFF" />
<path d="M963.78,114.42A5,5 0 1 1 953.78,114.42A5,5 0 1 1 963.78,114.42Z" style="fill:#7A9CFF" />
<path d="M977.84,116.46A5,5 0 1 1 967.84,116.46A5,5 0 1 1 977.84,116.46Z" style="fill:#7A9CFF" />
<path d="M991.9,120.57A5,5 0 1 1 981.9,120.57A5,5 0 1 1 991.9,120.57Z" style="fill:#7A9CFF" />
<path d="M161.17,974.14L1075,974.14" style="fill:none;stroke:#000000" />
<path d="M1075,109.32L1075,974.14" style="fill:none;stroke:#000000" />
<path d="M532.75,329.92L532.75,345.5" style="fill:none;stroke:#5B1616" />
<path d="M530.25,329.92L535.25,329.92" style="fill:none;stroke:#5B1616" />
<path d="M530.25,345.5L535.25,345.5" style="fill:none;stroke:#5B1616" />
<path d="M546.81,323.27L546.81,340.02" style="fill:none;stroke:#5B1616" />
<path d="M544.31,323.27L549.31,323.27" style="fill:none;stroke:#5B1616" />
<path d="M544.31,340.02L549.31,340.02" style="fill:none;stroke:#5B1616" />
<path d="M560.87,334.57L560.87,354.09" style="fill:none;stroke:#5B1616" />
<path d="M558.37,334.57L563.37,334.57" style="fill:none;stroke:#5B1616" />
<path d="M558.37,354.09L563.37,354.09" style="fill:none;stroke:#5B1616" />
<path d="M574.93,347.72L574.93,370.78" style="fill:none;stroke:#5B1616" />
<path d="M572.43,347.72L577.43,347.72" style="fill:none;stroke:#5B1616" />
<path d="M572.43,370.78L577.43,370.78" style="fill:none;stroke:#5B1616" />
<path d="M588.99,371.74L588.99,391.23" style="fill:none;stroke:#5B1616" />
<path d="M586.49,371.74L591.49,371.74" style="fill:none;stroke:#5B1616" />
<path d="M586.49,391.23L591.49,391.23" style="fill:none;stroke:#5B1616" />
<path d="M603.05,393.87L603.05,415.35" style="fill:none;stroke:#5B1616" />
<path d="M600.55,393.87L605.55,393.87" style="fill:none;stroke:#5B1616" />
<path d="M600.55,415.35L605.55,415.35" style="fill:none;stroke:#5B1616" />
<path d="M617.1,380.05L617.1,403.77" style="fill:none;stroke:#5B1616" />
<path d="M614.6,380.05L619.6,380.05" style="fill:none;stroke:#5B1616" />
<path d="M614.6,403.77L619.6,403.77" style="fill:none;stroke:#5B1616" />
<path d="M631.16,439.97L631.16,458.64" style="fill:none;stroke:#5B1616" />
<path d="M628.66,439.97L633.66,439.97" style="fill:none;stroke:#5B1616" />
<path d="M628.66,458.64L633.66,458.64" style="fill:none;stroke:#5B1616" />
<path d="M645.22,444.07L645.22,470.08" style="fill:none;stroke:#5B1616" />
<path d="M642.72,444.07L647.72,444.07" style="fill:none;stroke:#5B1616" />
<path d="M642.72,470.08L647.72,470.08" style="fill:none;stroke:#5B1616" />
<path d="M659.28,493.59L659.28,532.94" style="fill:none;stroke:#5B1616" />
<path d="M656.78,493.59L661.78,493.59" style="fill:none;stroke:#5B1616" />
<path d="M656.78,532.94L661.78,532.94" style="fill:none;stroke:#5B1616" />
<path d="M673.34,542.15L673.34,584.64" style="fill:none;stroke:#5B1616" />
<path d="M670.84,542.15L675.84,542.15" style="fill:none;stroke:#5B1616" />
<path d="M670.84,584.64L675.84,584.64" style="fill:none;stroke:#5B1616" />
<path d="M687.4,601.87L687.4,638.64" style="fill:none;stroke:#5B1616" />
<path d="M684.9,601.87L689.9,601.87" style="fill:none;stroke:#5B1616" />
<path d="M684.9,638.64L689.9,638.64" style="fill:none;stroke:#5B1616" />
<path d="M701.46,604.02L701.46,646.1" style="fill:none;stroke:#5B1616" />
<path d="M698.96,604.02L703.96,604.02" style="fill:none;stroke:#5B1616" />
<path d="M698.96,646.1L703.96,646.1" style="fill:none;stroke:#5B1616" />
<path d="M715.52,566.69L715.52,614.19" style="fill:none;stroke:#5B1616" />
<path d="M713.02,566.69L718.02,566.69" style="fill:none;stroke:#5B1616" />
<path d="M713.02,614.19L718.02,614.19" style="fill:none;stroke:#5B1616" />
<path d="M729.58,564.74L729.58,590.49" style="fill:none;stroke:#5B1616" />
<path d="M727.08,564.74L732.08,564.74" style="fill:none;stroke:#5B1616" />
<path d="M727.08,590.49L732.08,590.49" style="fill:none;stroke:#5B1616" />
<path d="M743.64,510.16L743.64,540.61" style="fill:none;stroke:#5B1616" />
<path d="M741.14,510.16L746.14,510.16" style="fill:none;stroke:#5B1616" />
<path d="M741.14,540.61L746.14,540.61" style="fill:none;stroke:#5B1616" />
<path d="M757.69,484.07L757.69,536.37" style="fill:none;stroke:#5B1616" />
<path d="M755.19,484.07L760.19,484.07" style="fill:none;stroke:#5B1616" />
<path d="M755.19,536.37L760.19,536.37" style="fill:none;stroke:#5B1616" />
<path d="M771.75,451.58L771.75,490.62" style="fill:none;stroke:#5B1616" />
<path d="M769.25,451.58L774.25,451.58" style="fill:none;stroke:#5B1616" />
<path d="M769.25,490.62L774.25,490.62" style="fill:none;stroke:#5B1616" />
<path d="M785.81,381.21L785.81,412.46" style="fill:none;stroke:#5B1616" />
<path d="M783.31,381.21L788.31,381.21" style="fill:none;stroke:#5B1616" />
<path d="M783.31,412.46L788.31,412.46" style="fill:none;stroke:#5B1616" />
<path d="M799.87,367.27L799.87,397.49" style="fill:none;stroke:#5B1616" />
<path d="M797.37,367.27L802.37,367.27" style="fill:none;stroke:#5B1616" />
<path d="M797.37,397.49L802.37,397.49" style="fill:none;stroke:#5B1616" />
<path d="M813.93,346.34L813.93,373.15" style="fill:none;stroke:#5B1616" />
<path d="M811.43,346.34L816.43,346.34" style="fill:none;stroke:#5B1616" />
<path d="M811.43,373.15L816.43,373.15" style="fill:none;stroke:#5B1616" />
<path d="M827.99,331.26L827.99,355.05" style="fill:none;stroke:#5B1616" />
<path d="M825.49,331.26L830.49,331.26" style="fill:none;stroke:#5B1616" />
<path d="M825.49,355.05L830.49,355.05" style="fill:none;stroke:#5B1616" />
<path d="M842.05,314.56L842.05,333.52" style="fill:none;stroke:#5B1616" />
<path d="M839.55,314.56L844.55,314.56" style="fill:none;stroke:#5B1616" />
<path d="M839.55,333.52L844.55,333.52" style="fill:none;stroke:#5B1616" />
<path d="M856.11,266.85L856.11,281.49" style="fill:none;stroke:#5B1616" />
<path d="M853.61,266.85L858.61,266.85" style="fill:none;stroke:#5B1616" />
<path d="M853.61,281.49L858.61,281.49" style="fill:none;stroke:#5B1616" />
<path d="M870.17,231.35L870.17,252.57" style="fill:none;stroke:#5B1616" />
<path d="M867.67,231.35L872.67,231.35" style="fill:none;stroke:#5B1616" />
<path d="M867.67,252.57L872.67,252.57" style="fill:none;stroke:#5B1616" />
<path d="M884.23,241.11L884.23,255" style="fill:none;stroke:#5B1616" />
<path d="M881.73,241.11L886.73,241.11" style="fill:none;stroke:#5B1616" />
<path d="M881.73,255L886.73,255" style="fill:none;stroke:#5B1616" />
<path d="M898.28,236.3L898.28,249.74" style="fill:none;stroke:#5B1616" />
<path d="M895.78,236.3L900.78,236.3" style="fill:none;stroke:#5B1616" />
<path d="M895.78,249.74L900.78,249.74" style="fill:none;stroke:#5B1616" />
<path d="M912.34,248.76L912.34,265.39" style="fill:none;stroke:#5B1616" />
<path d="M909.84,248.76L914.84,248.76" style="fill:none;stroke:#5B1616" />
<path d="M909.84,265.39L914.84,265.39" style="fill:none;stroke:#5B1616" />
<path d="M926.4,258.55L926.4,271.19" style="fill:none;stroke:#5B1616" />
<path d="M923.9,258.55L928.9,258.55" style="fill:none;stroke:#5B1616" />
<path d="M923.9,271.19L928.9,271.19" style="fill:none;stroke:#5B1616" />
<path d="M940.46,267.08L940.46,284.59" style="fill:none;stroke:#5B1616" />
<path d="M937.96,267.08L942.96,267.08" style="fill:none;stroke:#5B1616" />
<path d="M937.96,284.59L942.96,284.59" style="fill:none;stroke:#5B1616" />
<path d="M954.52,274.44L954.52,290.31" style="fill:none;stroke:#5B1616" />
<path d="M952.02,274.44L957.02,274.44" style="fill:none;stroke:#5B1616" />
<path d="M952.02,290.31L957.02,290.31" style="fill:none;stroke:#5B1616" />
<path d="M968.58,274.41L968.58,289.53" style="fill:none;stroke:#5B1616" />
<path d="M966.08,274.41L971.08,274.41" style="fill:none;stroke:#5B1616" />
<path d="M966.08,289.53L971.08,289.53" style="fill:none;stroke:#5B1616" />
<path d="M982.64,276.3L982.64,294.35" style="fill:none;stroke:#5B1616" />
<path d="M980.14,276.3L985.14,276.3" style="fill:none;stroke:#5B1616" />
<path d="M980.14,294.35L985.14,294.35" style="fill:none;stroke:#5B1616" />
<path d="M996.7,245.77L996.7,274.38" style="fill:none;stroke:#5B1616" />
<path d="M994.2,245.77L999.2,245.77" style="fill:none;stroke:#5B1616" />
<path d="M994.2,274.38L999.2,274.38" style="fill:none;stroke:#5B1616" />
<path d="M537.75,337.71A5,5 0 1 1 527.75,337.71A5,5 0 1 1 537.75,337.71Z" style="fill:#5B1616" />
<path d="M551.81,331.64A5,5 0 1 1 541.81,331.64A5,5 0 1 1 551.81,331.64Z" style="fill:#5B1616" />
<path d="M565.87,344.33A5,5 0 1 1 555.87,344.33A5,5 0 1 1 565.87,344.33Z" style="fill:#5B1616" />
<path d="M579.93,359.25A5,5 0 1 1 569.93,359.25A5,5 0 1 1 579.93,359.25Z" style="fill:#5B1616" />
<path d="M593.99,381.49A5,5 0 1 1 583.99,381.49A5,5 0 1 1 593.99,381.49Z" style="fill:#5B1616" />
<path d="M608.05,404.61A5,5 0 1 1 598.05,404.61A5,5 0 1 1 608.05,404.61Z" style="fill:#5B1616" />
<path d="M622.1,391.91A5,5 0 1 1 612.1,391.91A5,5 0 1 1 622.1,391.91Z" style="fill:#5B1616" />
<path d="M636.16,449.31A5,5 0 1 1 626.16,449.31A5,5 0 1 1 636.16,449.31Z" style="fill:#5B1616" />
<path d="M650.22,457.07A5,5 0 1 1 640.22,457.07A5,5 0 1 1 650.22,457.07Z" style="fill:#5B1616" />
<path d="M664.28,513.27A5,5 0 1 1 654.28,513.27A5,5 0 1 1 664.28,513.27Z" style="fill:#5B1616" />
<path d="M678.34,563.4A5,5 0 1 1 668.34,563.4A5,5 0 1 1 678.34,563.4Z" style="fill:#5B1616" />
<path d="M692.4,620.26A5,5 0 1 1 682.4,620.26A5,5 0 1 1 692.4,620.26Z" style="fill:#5B1616" />
<path d="M706.46,625.06A5,5 0 1 1 696.46,625.06A5,5 0 1 1 706.46,625.06Z" style="fill:#5B1616" />
<path d="M720.52,590.44A5,5 0 1 1 710.52,590.44A5,5 0 1 1 720.52,590.44Z" style="fill:#5B1616" />
<path d="M734.58,577.62A5,5 0 1 1 724.58,577.62A5,5 0 1 1 734.58,577.62Z" style="fill:#5B1616" />
<path d="M748.64,525.39A5,5 0 1 1 738.64,525.39A5,5 0 1 1 748.64,525.39Z" style="fill:#5B1616" />
<path d="M762.69,510.22A5,5 0 1 1 752.69,510.22A5,5 0 1 1 762.69,510.22Z" style="fill:#5B1616" />
<path d="M776.75,471.1A5,5 0 1 1 766.75,471.1A5,5 0 1 1 776.75,471.1Z" style="fill:#5B1616" />
<path d="M790.81,396.83A5,5 0 1 1 780.81,396.83A5,5 0 1 1 790.81,396.83Z" style="fill:#5B1616" />
<path d="M804.87,382.38A5,5 0 1 1 794.87,382.38A5,5 0 1 1 804.87,382.38Z" style="fill:#5B1616" />
<path d="M818.93,359.74A5,5 0 1 1 808.93,359.74A5,5 0 1 1 818.93,359.74Z" style="fill:#5B1616" />
<path d="M832.99,343.15A5,5 0 1 1 822.99,343.15A5,5 0 1 1 832.99,343.15Z" style="fill:#5B1616" />
<path d="M847.05,324.04A5,5 0 1 1 837.05,324.04A5,5 0 1 1 847.05,324.04Z" style="fill:#5B1616" />
<path d="M861.11,274.17A5,5 0 1 1 851.11,274.17A5,5 0 1 1 861.11,274.17Z" style="fill:#5B1616" />
<path d="M875.17,241.96A5,5 0 1 1 865.17,241.96A5,5 0 1 1 875.17,241.96Z" style="fill:#5B1616" />
<path d="M889.23,248.05A5,5 0 1 1 879.23,248.05A5,5 0 1 1 889.23,248.05Z" style="fill:#5B1616" />
<path d="M903.28,243.02A5,5 0 1 1 893.28,243.02A5,5 0 1 1 903.28,243.02Z" style="fill:#5B1616" />
<path d="M917.34,257.08A5,5 0 1 1 907.34,257.08A5,5 0 1 1 917.34,257.08Z" style="fill:#5B1616" />
<path d="M931.4,264.87A5,5 0 1 1 921.4,264.87A5,5 0 1 1 931.4,264.87Z" style="fill:#5B1616" />
<path d="M945.46,275.83A5,5 0 1 1 935.46,275.83A5,5 0 1 1 945.46,275.83Z" style="fill:#5B1616" />
<path d="M959.52,282.38A5,5 0 1 1 949.52,282.38A5,5 0 1 1 959.52,282.38Z" style="fill:#5B1616" />
<path d="M973.58,281.97A5,5 0 1 1 963.58,281.97A5,5 0 1 1 973.58,281.97Z" style="fill:#5B1616" />
<path d="M987.64,285.33A5,5 0 1 1 977.64,285.33A5,5 0 1 1 987.64,285.33Z" style="fill:#5B1616" />
<path d="M1001.7,260.07A5,5 0 1 1 991.7,260.07A5,5 0 1 1 1001.7,260.07Z" style="fill:#5B1616" />
<path d="M161.17,974.14L1075,974.14" style="fill:none;stroke:#000000" />
<path d="M1075,109.32L1075,974.14" style="fill:none;stroke:#000000" />
<path d="M1038,942.02A8,8 0 1 1 1022,942.02A8,8 0 1 1 1038,942.02Z" style="fill:#1FD3AC" />
<text x="908.95" y="-933.54" transform="scale(1, -1)"
	style="font-family:Helvetica;font-weight:normal;font-style:normal;font-size:36px">TeO2</text>
<path d="M1038,900.61A8,8 0 1 1 1022,900.61A8,8 0 1 1 1038,900.61Z" style="fill:#FF7AB4" />
<text x="826.92" y="-892.13" transform="scale(1, -1)"
	style="font-family:Helvetica;font-weight:normal;font-style:normal;font-size:36px">no-sample</text>
<path d="M1038,859.2A8,8 0 1 1 1022,859.2A8,8 0 1 1 1038,859.2Z" style="fill:#7A9CFF" />
<text x="826.92" y="-850.72" transform="scale(1, -1)"
	style="font-family:Helvetica;font-weight:normal;font-style:normal;font-size:36px">no-sample</text>
<path d="M1038,817.79A8,8 0 1 1 1022,817.79A8,8 0 1 1 1038,817.79Z" style="fill:#5B1616" />
<text x="708.88" y="-809.3" transform="scale(1, -1)"
	style="font-family:Helvetica;font-weight:normal;font-style:normal;font-size:36px">TeO2 - no-sample</text>
</g>
</svg>
