<?xml version="1.0"?>
<!-- Generated by SVGo and Plotinum VG -->
<svg width="1080pt" height="1080pt" viewBox="0 0 1080 1080"
	xmlns="http://www.w3.org/2000/svg"
	xmlns:xlink="http://www.w3.org/1999/xlink">
<g transform="scale(1, -1) translate(0, -1080)">
<path d="M0,0L1080,0L1080,1080L0,1080Z" style="fill:#-8000000000000000-8000000000000000-8000000000000000;fill-opacity:0" />
<text x="205.11" y="-1039.5" transform="scale(1, -1)"
	style="font-family:Helvetica;font-weight:normal;font-style:normal;font-size:50px">1 cm pak1chip3-20um4 CABS</text>
<text x="490.06" y="-11.039" transform="scale(1, -1)"
	style="font-family:Helvetica;font-weight:normal;font-style:normal;font-size:36px">Frequency (GHz)</text>
<text x="222.79" y="-71.258" transform="scale(1, -1)"
	style="font-family:Helvetica;font-weight:normal;font-style:normal;font-size:36px">10.65</text>
<text x="403.31" y="-71.258" transform="scale(1, -1)"
	style="font-family:Helvetica;font-weight:normal;font-style:normal;font-size:36px">10.75</text>
<text x="583.83" y="-71.258" transform="scale(1, -1)"
	style="font-family:Helvetica;font-weight:normal;font-style:normal;font-size:36px">10.85</text>
<text x="764.35" y="-71.258" transform="scale(1, -1)"
	style="font-family:Helvetica;font-weight:normal;font-style:normal;font-size:36px">10.95</text>
<text x="946.21" y="-71.258" transform="scale(1, -1)"
	style="font-family:Helvetica;font-weight:normal;font-style:normal;font-size:36px">11.05</text>
<path d="M267.83,116.44L267.83,108.44" style="fill:none;stroke:#000000;stroke-width:1.5" />
<path d="M358.09,112.44L358.09,108.44" style="fill:none;stroke:#000000;stroke-width:1.5" />
<path d="M448.35,116.44L448.35,108.44" style="fill:none;stroke:#000000;stroke-width:1.5" />
<path d="M538.61,112.44L538.61,108.44" style="fill:none;stroke:#000000;stroke-width:1.5" />
<path d="M628.87,116.44L628.87,108.44" style="fill:none;stroke:#000000;stroke-width:1.5" />
<path d="M719.13,112.44L719.13,108.44" style="fill:none;stroke:#000000;stroke-width:1.5" />
<path d="M809.39,116.44L809.39,108.44" style="fill:none;stroke:#000000;stroke-width:1.5" />
<path d="M899.65,112.44L899.65,108.44" style="fill:none;stroke:#000000;stroke-width:1.5" />
<path d="M989.92,116.44L989.92,108.44" style="fill:none;stroke:#000000;stroke-width:1.5" />
<path d="M181.19,108.44L1075,108.44" style="fill:none;stroke:#000000;stroke-width:1.5" />
<g transform="rotate(90)">
<text x="371.06" y="29.18" transform="scale(1, -1)"
	style="font-family:Helvetica;font-weight:normal;font-style:normal;font-size:36px">Spectral Density (μV)</text>
</g>
<text x="87.869" y="-207.91" transform="scale(1, -1)"
	style="font-family:Helvetica;font-weight:normal;font-style:normal;font-size:36px">7.19</text>
<text x="67.848" y="-424.24" transform="scale(1, -1)"
	style="font-family:Helvetica;font-weight:normal;font-style:normal;font-size:36px">28.68</text>
<text x="67.848" y="-640.57" transform="scale(1, -1)"
	style="font-family:Helvetica;font-weight:normal;font-style:normal;font-size:36px">50.18</text>
<text x="67.848" y="-856.9" transform="scale(1, -1)"
	style="font-family:Helvetica;font-weight:normal;font-style:normal;font-size:36px">71.67</text>
<path d="M179.94,108.82L175.94,108.82" style="fill:none;stroke:#000000;stroke-width:1.5" />
<path d="M183.94,216.98L175.94,216.98" style="fill:none;stroke:#000000;stroke-width:1.5" />
<path d="M179.94,325.15L175.94,325.15" style="fill:none;stroke:#000000;stroke-width:1.5" />
<path d="M183.94,433.31L175.94,433.31" style="fill:none;stroke:#000000;stroke-width:1.5" />
<path d="M179.94,541.48L175.94,541.48" style="fill:none;stroke:#000000;stroke-width:1.5" />
<path d="M183.94,649.64L175.94,649.64" style="fill:none;stroke:#000000;stroke-width:1.5" />
<path d="M179.94,757.81L175.94,757.81" style="fill:none;stroke:#000000;stroke-width:1.5" />
<path d="M183.94,865.98L175.94,865.98" style="fill:none;stroke:#000000;stroke-width:1.5" />
<path d="M179.94,974.14L175.94,974.14" style="fill:none;stroke:#000000;stroke-width:1.5" />
<path d="M179.94,974.14L175.94,974.14" style="fill:none;stroke:#000000;stroke-width:1.5" />
<path d="M175.94,108.82L175.94,974.14" style="fill:none;stroke:#000000;stroke-width:1.5" />
<path d="M181.19,141.23L181.19,155.78" style="fill:none;stroke:#1FD3AC" />
<path d="M178.69,141.23L183.69,141.23" style="fill:none;stroke:#1FD3AC" />
<path d="M178.69,155.78L183.69,155.78" style="fill:none;stroke:#1FD3AC" />
<path d="M184.81,140.47L184.81,154.86" style="fill:none;stroke:#1FD3AC" />
<path d="M182.31,140.47L187.31,140.47" style="fill:none;stroke:#1FD3AC" />
<path d="M182.31,154.86L187.31,154.86" style="fill:none;stroke:#1FD3AC" />
<path d="M188.42,140.42L188.42,155.36" style="fill:none;stroke:#1FD3AC" />
<path d="M185.92,140.42L190.92,140.42" style="fill:none;stroke:#1FD3AC" />
<path d="M185.92,155.36L190.92,155.36" style="fill:none;stroke:#1FD3AC" />
<path d="M192.04,141.24L192.04,157.56" style="fill:none;stroke:#1FD3AC" />
<path d="M189.54,141.24L194.54,141.24" style="fill:none;stroke:#1FD3AC" />
<path d="M189.54,157.56L194.54,157.56" style="fill:none;stroke:#1FD3AC" />
<path d="M195.66,141.8L195.66,158.17" style="fill:none;stroke:#1FD3AC" />
<path d="M193.16,141.8L198.16,141.8" style="fill:none;stroke:#1FD3AC" />
<path d="M193.16,158.17L198.16,158.17" style="fill:none;stroke:#1FD3AC" />
<path d="M199.28,143.16L199.28,158.81" style="fill:none;stroke:#1FD3AC" />
<path d="M196.78,143.16L201.78,143.16" style="fill:none;stroke:#1FD3AC" />
<path d="M196.78,158.81L201.78,158.81" style="fill:none;stroke:#1FD3AC" />
<path d="M202.9,140.88L202.9,157.38" style="fill:none;stroke:#1FD3AC" />
<path d="M200.4,140.88L205.4,140.88" style="fill:none;stroke:#1FD3AC" />
<path d="M200.4,157.38L205.4,157.38" style="fill:none;stroke:#1FD3AC" />
<path d="M206.52,142.43L206.52,157.32" style="fill:none;stroke:#1FD3AC" />
<path d="M204.02,142.43L209.02,142.43" style="fill:none;stroke:#1FD3AC" />
<path d="M204.02,157.32L209.02,157.32" style="fill:none;stroke:#1FD3AC" />
<path d="M210.14,142.82L210.14,158.78" style="fill:none;stroke:#1FD3AC" />
<path d="M207.64,142.82L212.64,142.82" style="fill:none;stroke:#1FD3AC" />
<path d="M207.64,158.78L212.64,158.78" style="fill:none;stroke:#1FD3AC" />
<path d="M213.76,141.56L213.76,158.08" style="fill:none;stroke:#1FD3AC" />
<path d="M211.26,141.56L216.26,141.56" style="fill:none;stroke:#1FD3AC" />
<path d="M211.26,158.08L216.26,158.08" style="fill:none;stroke:#1FD3AC" />
<path d="M217.37,142.64L217.37,158.98" style="fill:none;stroke:#1FD3AC" />
<path d="M214.87,142.64L219.87,142.64" style="fill:none;stroke:#1FD3AC" />
<path d="M214.87,158.98L219.87,158.98" style="fill:none;stroke:#1FD3AC" />
<path d="M220.99,140.53L220.99,156.36" style="fill:none;stroke:#1FD3AC" />
<path d="M218.49,140.53L223.49,140.53" style="fill:none;stroke:#1FD3AC" />
<path d="M218.49,156.36L223.49,156.36" style="fill:none;stroke:#1FD3AC" />
<path d="M224.61,142.34L224.61,157.8" style="fill:none;stroke:#1FD3AC" />
<path d="M222.11,142.34L227.11,142.34" style="fill:none;stroke:#1FD3AC" />
<path d="M222.11,157.8L227.11,157.8" style="fill:none;stroke:#1FD3AC" />
<path d="M228.23,142.75L228.23,158.18" style="fill:none;stroke:#1FD3AC" />
<path d="M225.73,142.75L230.73,142.75" style="fill:none;stroke:#1FD3AC" />
<path d="M225.73,158.18L230.73,158.18" style="fill:none;stroke:#1FD3AC" />
<path d="M231.85,140.91L231.85,156.52" style="fill:none;stroke:#1FD3AC" />
<path d="M229.35,140.91L234.35,140.91" style="fill:none;stroke:#1FD3AC" />
<path d="M229.35,156.52L234.35,156.52" style="fill:none;stroke:#1FD3AC" />
<path d="M235.47,141.02L235.47,156.63" style="fill:none;stroke:#1FD3AC" />
<path d="M232.97,141.02L237.97,141.02" style="fill:none;stroke:#1FD3AC" />
<path d="M232.97,156.63L237.97,156.63" style="fill:none;stroke:#1FD3AC" />
<path d="M239.09,142.48L239.09,157.5" style="fill:none;stroke:#1FD3AC" />
<path d="M236.59,142.48L241.59,142.48" style="fill:none;stroke:#1FD3AC" />
<path d="M236.59,157.5L241.59,157.5" style="fill:none;stroke:#1FD3AC" />
<path d="M242.7,140.02L242.7,153.49" style="fill:none;stroke:#1FD3AC" />
<path d="M240.2,140.02L245.2,140.02" style="fill:none;stroke:#1FD3AC" />
<path d="M240.2,153.49L245.2,153.49" style="fill:none;stroke:#1FD3AC" />
<path d="M246.32,137.88L246.32,151.43" style="fill:none;stroke:#1FD3AC" />
<path d="M243.82,137.88L248.82,137.88" style="fill:none;stroke:#1FD3AC" />
<path d="M243.82,151.43L248.82,151.43" style="fill:none;stroke:#1FD3AC" />
<path d="M249.94,138.17L249.94,152.71" style="fill:none;stroke:#1FD3AC" />
<path d="M247.44,138.17L252.44,138.17" style="fill:none;stroke:#1FD3AC" />
<path d="M247.44,152.71L252.44,152.71" style="fill:none;stroke:#1FD3AC" />
<path d="M253.56,137.89L253.56,151.94" style="fill:none;stroke:#1FD3AC" />
<path d="M251.06,137.89L256.06,137.89" style="fill:none;stroke:#1FD3AC" />
<path d="M251.06,151.94L256.06,151.94" style="fill:none;stroke:#1FD3AC" />
<path d="M257.18,137.19L257.18,150.67" style="fill:none;stroke:#1FD3AC" />
<path d="M254.68,137.19L259.68,137.19" style="fill:none;stroke:#1FD3AC" />
<path d="M254.68,150.67L259.68,150.67" style="fill:none;stroke:#1FD3AC" />
<path d="M260.8,137.37L260.8,151.18" style="fill:none;stroke:#1FD3AC" />
<path d="M258.3,137.37L263.3,137.37" style="fill:none;stroke:#1FD3AC" />
<path d="M258.3,151.18L263.3,151.18" style="fill:none;stroke:#1FD3AC" />
<path d="M264.42,140.05L264.42,153.38" style="fill:none;stroke:#1FD3AC" />
<path d="M261.92,140.05L266.92,140.05" style="fill:none;stroke:#1FD3AC" />
<path d="M261.92,153.38L266.92,153.38" style="fill:none;stroke:#1FD3AC" />
<path d="M268.04,139.63L268.04,152.69" style="fill:none;stroke:#1FD3AC" />
<path d="M265.54,139.63L270.54,139.63" style="fill:none;stroke:#1FD3AC" />
<path d="M265.54,152.69L270.54,152.69" style="fill:none;stroke:#1FD3AC" />
<path d="M271.65,141.04L271.65,154.34" style="fill:none;stroke:#1FD3AC" />
<path d="M269.15,141.04L274.15,141.04" style="fill:none;stroke:#1FD3AC" />
<path d="M269.15,154.34L274.15,154.34" style="fill:none;stroke:#1FD3AC" />
<path d="M275.27,140.38L275.27,153.64" style="fill:none;stroke:#1FD3AC" />
<path d="M272.77,140.38L277.77,140.38" style="fill:none;stroke:#1FD3AC" />
<path d="M272.77,153.64L277.77,153.64" style="fill:none;stroke:#1FD3AC" />
<path d="M278.89,137.96L278.89,151.59" style="fill:none;stroke:#1FD3AC" />
<path d="M276.39,137.96L281.39,137.96" style="fill:none;stroke:#1FD3AC" />
<path d="M276.39,151.59L281.39,151.59" style="fill:none;stroke:#1FD3AC" />
<path d="M282.51,137.68L282.51,151.73" style="fill:none;stroke:#1FD3AC" />
<path d="M280.01,137.68L285.01,137.68" style="fill:none;stroke:#1FD3AC" />
<path d="M280.01,151.73L285.01,151.73" style="fill:none;stroke:#1FD3AC" />
<path d="M286.13,140.5L286.13,154.32" style="fill:none;stroke:#1FD3AC" />
<path d="M283.63,140.5L288.63,140.5" style="fill:none;stroke:#1FD3AC" />
<path d="M283.63,154.32L288.63,154.32" style="fill:none;stroke:#1FD3AC" />
<path d="M289.75,142.68L289.75,156.29" style="fill:none;stroke:#1FD3AC" />
<path d="M287.25,142.68L292.25,142.68" style="fill:none;stroke:#1FD3AC" />
<path d="M287.25,156.29L292.25,156.29" style="fill:none;stroke:#1FD3AC" />
<path d="M293.37,140.66L293.37,154.18" style="fill:none;stroke:#1FD3AC" />
<path d="M290.87,140.66L295.87,140.66" style="fill:none;stroke:#1FD3AC" />
<path d="M290.87,154.18L295.87,154.18" style="fill:none;stroke:#1FD3AC" />
<path d="M296.99,139.25L296.99,152.41" style="fill:none;stroke:#1FD3AC" />
<path d="M294.49,139.25L299.49,139.25" style="fill:none;stroke:#1FD3AC" />
<path d="M294.49,152.41L299.49,152.41" style="fill:none;stroke:#1FD3AC" />
<path d="M300.6,140L300.6,153.62" style="fill:none;stroke:#1FD3AC" />
<path d="M298.1,140L303.1,140" style="fill:none;stroke:#1FD3AC" />
<path d="M298.1,153.62L303.1,153.62" style="fill:none;stroke:#1FD3AC" />
<path d="M304.22,140.2L304.22,153.03" style="fill:none;stroke:#1FD3AC" />
<path d="M301.72,140.2L306.72,140.2" style="fill:none;stroke:#1FD3AC" />
<path d="M301.72,153.03L306.72,153.03" style="fill:none;stroke:#1FD3AC" />
<path d="M307.84,141.66L307.84,154.9" style="fill:none;stroke:#1FD3AC" />
<path d="M305.34,141.66L310.34,141.66" style="fill:none;stroke:#1FD3AC" />
<path d="M305.34,154.9L310.34,154.9" style="fill:none;stroke:#1FD3AC" />
<path d="M311.46,142.09L311.46,155.19" style="fill:none;stroke:#1FD3AC" />
<path d="M308.96,142.09L313.96,142.09" style="fill:none;stroke:#1FD3AC" />
<path d="M308.96,155.19L313.96,155.19" style="fill:none;stroke:#1FD3AC" />
<path d="M315.08,141.45L315.08,154.76" style="fill:none;stroke:#1FD3AC" />
<path d="M312.58,141.45L317.58,141.45" style="fill:none;stroke:#1FD3AC" />
<path d="M312.58,154.76L317.58,154.76" style="fill:none;stroke:#1FD3AC" />
<path d="M318.7,140.42L318.7,154.41" style="fill:none;stroke:#1FD3AC" />
<path d="M316.2,140.42L321.2,140.42" style="fill:none;stroke:#1FD3AC" />
<path d="M316.2,154.41L321.2,154.41" style="fill:none;stroke:#1FD3AC" />
<path d="M322.32,140.69L322.32,154.13" style="fill:none;stroke:#1FD3AC" />
<path d="M319.82,140.69L324.82,140.69" style="fill:none;stroke:#1FD3AC" />
<path d="M319.82,154.13L324.82,154.13" style="fill:none;stroke:#1FD3AC" />
<path d="M325.93,140.94L325.93,154.47" style="fill:none;stroke:#1FD3AC" />
<path d="M323.43,140.94L328.43,140.94" style="fill:none;stroke:#1FD3AC" />
<path d="M323.43,154.47L328.43,154.47" style="fill:none;stroke:#1FD3AC" />
<path d="M329.55,142.66L329.55,156.71" style="fill:none;stroke:#1FD3AC" />
<path d="M327.05,142.66L332.05,142.66" style="fill:none;stroke:#1FD3AC" />
<path d="M327.05,156.71L332.05,156.71" style="fill:none;stroke:#1FD3AC" />
<path d="M333.17,142.41L333.17,156.05" style="fill:none;stroke:#1FD3AC" />
<path d="M330.67,142.41L335.67,142.41" style="fill:none;stroke:#1FD3AC" />
<path d="M330.67,156.05L335.67,156.05" style="fill:none;stroke:#1FD3AC" />
<path d="M336.79,139.66L336.79,152.83" style="fill:none;stroke:#1FD3AC" />
<path d="M334.29,139.66L339.29,139.66" style="fill:none;stroke:#1FD3AC" />
<path d="M334.29,152.83L339.29,152.83" style="fill:none;stroke:#1FD3AC" />
<path d="M340.41,141.31L340.41,154.76" style="fill:none;stroke:#1FD3AC" />
<path d="M337.91,141.31L342.91,141.31" style="fill:none;stroke:#1FD3AC" />
<path d="M337.91,154.76L342.91,154.76" style="fill:none;stroke:#1FD3AC" />
<path d="M344.03,142.07L344.03,156.28" style="fill:none;stroke:#1FD3AC" />
<path d="M341.53,142.07L346.53,142.07" style="fill:none;stroke:#1FD3AC" />
<path d="M341.53,156.28L346.53,156.28" style="fill:none;stroke:#1FD3AC" />
<path d="M347.65,143.47L347.65,156.75" style="fill:none;stroke:#1FD3AC" />
<path d="M345.15,143.47L350.15,143.47" style="fill:none;stroke:#1FD3AC" />
<path d="M345.15,156.75L350.15,156.75" style="fill:none;stroke:#1FD3AC" />
<path d="M351.27,144.24L351.27,157.29" style="fill:none;stroke:#1FD3AC" />
<path d="M348.77,144.24L353.77,144.24" style="fill:none;stroke:#1FD3AC" />
<path d="M348.77,157.29L353.77,157.29" style="fill:none;stroke:#1FD3AC" />
<path d="M354.88,144.01L354.88,157.98" style="fill:none;stroke:#1FD3AC" />
<path d="M352.38,144.01L357.38,144.01" style="fill:none;stroke:#1FD3AC" />
<path d="M352.38,157.98L357.38,157.98" style="fill:none;stroke:#1FD3AC" />
<path d="M358.5,143.57L358.5,158" style="fill:none;stroke:#1FD3AC" />
<path d="M356,143.57L361,143.57" style="fill:none;stroke:#1FD3AC" />
<path d="M356,158L361,158" style="fill:none;stroke:#1FD3AC" />
<path d="M362.12,143.14L362.12,158.53" style="fill:none;stroke:#1FD3AC" />
<path d="M359.62,143.14L364.62,143.14" style="fill:none;stroke:#1FD3AC" />
<path d="M359.62,158.53L364.62,158.53" style="fill:none;stroke:#1FD3AC" />
<path d="M365.74,144.37L365.74,158.77" style="fill:none;stroke:#1FD3AC" />
<path d="M363.24,144.37L368.24,144.37" style="fill:none;stroke:#1FD3AC" />
<path d="M363.24,158.77L368.24,158.77" style="fill:none;stroke:#1FD3AC" />
<path d="M369.36,145.84L369.36,160.88" style="fill:none;stroke:#1FD3AC" />
<path d="M366.86,145.84L371.86,145.84" style="fill:none;stroke:#1FD3AC" />
<path d="M366.86,160.88L371.86,160.88" style="fill:none;stroke:#1FD3AC" />
<path d="M372.98,145.31L372.98,159.86" style="fill:none;stroke:#1FD3AC" />
<path d="M370.48,145.31L375.48,145.31" style="fill:none;stroke:#1FD3AC" />
<path d="M370.48,159.86L375.48,159.86" style="fill:none;stroke:#1FD3AC" />
<path d="M376.6,144.11L376.6,159.14" style="fill:none;stroke:#1FD3AC" />
<path d="M374.1,144.11L379.1,144.11" style="fill:none;stroke:#1FD3AC" />
<path d="M374.1,159.14L379.1,159.14" style="fill:none;stroke:#1FD3AC" />
<path d="M380.21,145.78L380.21,160.28" style="fill:none;stroke:#1FD3AC" />
<path d="M377.71,145.78L382.71,145.78" style="fill:none;stroke:#1FD3AC" />
<path d="M377.71,160.28L382.71,160.28" style="fill:none;stroke:#1FD3AC" />
<path d="M383.83,149.38L383.83,163.15" style="fill:none;stroke:#1FD3AC" />
<path d="M381.33,149.38L386.33,149.38" style="fill:none;stroke:#1FD3AC" />
<path d="M381.33,163.15L386.33,163.15" style="fill:none;stroke:#1FD3AC" />
<path d="M387.45,152.41L387.45,166.07" style="fill:none;stroke:#1FD3AC" />
<path d="M384.95,152.41L389.95,152.41" style="fill:none;stroke:#1FD3AC" />
<path d="M384.95,166.07L389.95,166.07" style="fill:none;stroke:#1FD3AC" />
<path d="M391.07,148.46L391.07,161.56" style="fill:none;stroke:#1FD3AC" />
<path d="M388.57,148.46L393.57,148.46" style="fill:none;stroke:#1FD3AC" />
<path d="M388.57,161.56L393.57,161.56" style="fill:none;stroke:#1FD3AC" />
<path d="M394.69,150.07L394.69,164.07" style="fill:none;stroke:#1FD3AC" />
<path d="M392.19,150.07L397.19,150.07" style="fill:none;stroke:#1FD3AC" />
<path d="M392.19,164.07L397.19,164.07" style="fill:none;stroke:#1FD3AC" />
<path d="M398.31,151.28L398.31,166.69" style="fill:none;stroke:#1FD3AC" />
<path d="M395.81,151.28L400.81,151.28" style="fill:none;stroke:#1FD3AC" />
<path d="M395.81,166.69L400.81,166.69" style="fill:none;stroke:#1FD3AC" />
<path d="M401.93,150.78L401.93,166.3" style="fill:none;stroke:#1FD3AC" />
<path d="M399.43,150.78L404.43,150.78" style="fill:none;stroke:#1FD3AC" />
<path d="M399.43,166.3L404.43,166.3" style="fill:none;stroke:#1FD3AC" />
<path d="M405.55,150L405.55,163.24" style="fill:none;stroke:#1FD3AC" />
<path d="M403.05,150L408.05,150" style="fill:none;stroke:#1FD3AC" />
<path d="M403.05,163.24L408.05,163.24" style="fill:none;stroke:#1FD3AC" />
<path d="M409.16,153.32L409.16,166.54" style="fill:none;stroke:#1FD3AC" />
<path d="M406.66,153.32L411.66,153.32" style="fill:none;stroke:#1FD3AC" />
<path d="M406.66,166.54L411.66,166.54" style="fill:none;stroke:#1FD3AC" />
<path d="M412.78,156.43L412.78,168.27" style="fill:none;stroke:#1FD3AC" />
<path d="M410.28,156.43L415.28,156.43" style="fill:none;stroke:#1FD3AC" />
<path d="M410.28,168.27L415.28,168.27" style="fill:none;stroke:#1FD3AC" />
<path d="M416.4,158.52L416.4,171.13" style="fill:none;stroke:#1FD3AC" />
<path d="M413.9,158.52L418.9,158.52" style="fill:none;stroke:#1FD3AC" />
<path d="M413.9,171.13L418.9,171.13" style="fill:none;stroke:#1FD3AC" />
<path d="M420.02,156.68L420.02,172.5" style="fill:none;stroke:#1FD3AC" />
<path d="M417.52,156.68L422.52,156.68" style="fill:none;stroke:#1FD3AC" />
<path d="M417.52,172.5L422.52,172.5" style="fill:none;stroke:#1FD3AC" />
<path d="M423.64,159.92L423.64,176.3" style="fill:none;stroke:#1FD3AC" />
<path d="M421.14,159.92L426.14,159.92" style="fill:none;stroke:#1FD3AC" />
<path d="M421.14,176.3L426.14,176.3" style="fill:none;stroke:#1FD3AC" />
<path d="M427.26,165.76L427.26,181.64" style="fill:none;stroke:#1FD3AC" />
<path d="M424.76,165.76L429.76,165.76" style="fill:none;stroke:#1FD3AC" />
<path d="M424.76,181.64L429.76,181.64" style="fill:none;stroke:#1FD3AC" />
<path d="M430.88,164.63L430.88,181.7" style="fill:none;stroke:#1FD3AC" />
<path d="M428.38,164.63L433.38,164.63" style="fill:none;stroke:#1FD3AC" />
<path d="M428.38,181.7L433.38,181.7" style="fill:none;stroke:#1FD3AC" />
<path d="M434.49,159.52L434.49,176.09" style="fill:none;stroke:#1FD3AC" />
<path d="M431.99,159.52L436.99,159.52" style="fill:none;stroke:#1FD3AC" />
<path d="M431.99,176.09L436.99,176.09" style="fill:none;stroke:#1FD3AC" />
<path d="M438.11,158.63L438.11,173.91" style="fill:none;stroke:#1FD3AC" />
<path d="M435.61,158.63L440.61,158.63" style="fill:none;stroke:#1FD3AC" />
<path d="M435.61,173.91L440.61,173.91" style="fill:none;stroke:#1FD3AC" />
<path d="M441.73,163.72L441.73,177.16" style="fill:none;stroke:#1FD3AC" />
<path d="M439.23,163.72L444.23,163.72" style="fill:none;stroke:#1FD3AC" />
<path d="M439.23,177.16L444.23,177.16" style="fill:none;stroke:#1FD3AC" />
<path d="M445.35,168.79L445.35,181.67" style="fill:none;stroke:#1FD3AC" />
<path d="M442.85,168.79L447.85,168.79" style="fill:none;stroke:#1FD3AC" />
<path d="M442.85,181.67L447.85,181.67" style="fill:none;stroke:#1FD3AC" />
<path d="M448.97,171L448.97,188.52" style="fill:none;stroke:#1FD3AC" />
<path d="M446.47,171L451.47,171" style="fill:none;stroke:#1FD3AC" />
<path d="M446.47,188.52L451.47,188.52" style="fill:none;stroke:#1FD3AC" />
<path d="M452.59,177.42L452.59,194.28" style="fill:none;stroke:#1FD3AC" />
<path d="M450.09,177.42L455.09,177.42" style="fill:none;stroke:#1FD3AC" />
<path d="M450.09,194.28L455.09,194.28" style="fill:none;stroke:#1FD3AC" />
<path d="M456.21,181.64L456.21,200.27" style="fill:none;stroke:#1FD3AC" />
<path d="M453.71,181.64L458.71,181.64" style="fill:none;stroke:#1FD3AC" />
<path d="M453.71,200.27L458.71,200.27" style="fill:none;stroke:#1FD3AC" />
<path d="M459.83,185.85L459.83,205.4" style="fill:none;stroke:#1FD3AC" />
<path d="M457.33,185.85L462.33,185.85" style="fill:none;stroke:#1FD3AC" />
<path d="M457.33,205.4L462.33,205.4" style="fill:none;stroke:#1FD3AC" />
<path d="M463.44,194.51L463.44,212.81" style="fill:none;stroke:#1FD3AC" />
<path d="M460.94,194.51L465.94,194.51" style="fill:none;stroke:#1FD3AC" />
<path d="M460.94,212.81L465.94,212.81" style="fill:none;stroke:#1FD3AC" />
<path d="M467.06,198.18L467.06,214.11" style="fill:none;stroke:#1FD3AC" />
<path d="M464.56,198.18L469.56,198.18" style="fill:none;stroke:#1FD3AC" />
<path d="M464.56,214.11L469.56,214.11" style="fill:none;stroke:#1FD3AC" />
<path d="M470.68,204.34L470.68,219.66" style="fill:none;stroke:#1FD3AC" />
<path d="M468.18,204.34L473.18,204.34" style="fill:none;stroke:#1FD3AC" />
<path d="M468.18,219.66L473.18,219.66" style="fill:none;stroke:#1FD3AC" />
<path d="M474.3,215.98L474.3,232.23" style="fill:none;stroke:#1FD3AC" />
<path d="M471.8,215.98L476.8,215.98" style="fill:none;stroke:#1FD3AC" />
<path d="M471.8,232.23L476.8,232.23" style="fill:none;stroke:#1FD3AC" />
<path d="M477.92,218.84L477.92,237.42" style="fill:none;stroke:#1FD3AC" />
<path d="M475.42,218.84L480.42,218.84" style="fill:none;stroke:#1FD3AC" />
<path d="M475.42,237.42L480.42,237.42" style="fill:none;stroke:#1FD3AC" />
<path d="M481.54,222L481.54,242.55" style="fill:none;stroke:#1FD3AC" />
<path d="M479.04,222L484.04,222" style="fill:none;stroke:#1FD3AC" />
<path d="M479.04,242.55L484.04,242.55" style="fill:none;stroke:#1FD3AC" />
<path d="M485.16,222.16L485.16,243.67" style="fill:none;stroke:#1FD3AC" />
<path d="M482.66,222.16L487.66,222.16" style="fill:none;stroke:#1FD3AC" />
<path d="M482.66,243.67L487.66,243.67" style="fill:none;stroke:#1FD3AC" />
<path d="M488.77,238.97L488.77,261.65" style="fill:none;stroke:#1FD3AC" />
<path d="M486.27,238.97L491.27,238.97" style="fill:none;stroke:#1FD3AC" />
<path d="M486.27,261.65L491.27,261.65" style="fill:none;stroke:#1FD3AC" />
<path d="M492.39,262.99L492.39,288.08" style="fill:none;stroke:#1FD3AC" />
<path d="M489.89,262.99L494.89,262.99" style="fill:none;stroke:#1FD3AC" />
<path d="M489.89,288.08L494.89,288.08" style="fill:none;stroke:#1FD3AC" />
<path d="M496.01,302.81L496.01,324.35" style="fill:none;stroke:#1FD3AC" />
<path d="M493.51,302.81L498.51,302.81" style="fill:none;stroke:#1FD3AC" />
<path d="M493.51,324.35L498.51,324.35" style="fill:none;stroke:#1FD3AC" />
<path d="M499.63,314.69L499.63,334.79" style="fill:none;stroke:#1FD3AC" />
<path d="M497.13,314.69L502.13,314.69" style="fill:none;stroke:#1FD3AC" />
<path d="M497.13,334.79L502.13,334.79" style="fill:none;stroke:#1FD3AC" />
<path d="M503.25,328.7L503.25,352.61" style="fill:none;stroke:#1FD3AC" />
<path d="M500.75,328.7L505.75,328.7" style="fill:none;stroke:#1FD3AC" />
<path d="M500.75,352.61L505.75,352.61" style="fill:none;stroke:#1FD3AC" />
<path d="M506.87,347.46L506.87,373.04" style="fill:none;stroke:#1FD3AC" />
<path d="M504.37,347.46L509.37,347.46" style="fill:none;stroke:#1FD3AC" />
<path d="M504.37,373.04L509.37,373.04" style="fill:none;stroke:#1FD3AC" />
<path d="M510.49,355.31L510.49,384.32" style="fill:none;stroke:#1FD3AC" />
<path d="M507.99,355.31L512.99,355.31" style="fill:none;stroke:#1FD3AC" />
<path d="M507.99,384.32L512.99,384.32" style="fill:none;stroke:#1FD3AC" />
<path d="M514.11,364.38L514.11,391.84" style="fill:none;stroke:#1FD3AC" />
<path d="M511.61,364.38L516.61,364.38" style="fill:none;stroke:#1FD3AC" />
<path d="M511.61,391.84L516.61,391.84" style="fill:none;stroke:#1FD3AC" />
<path d="M517.72,370.96L517.72,396.33" style="fill:none;stroke:#1FD3AC" />
<path d="M515.22,370.96L520.22,370.96" style="fill:none;stroke:#1FD3AC" />
<path d="M515.22,396.33L520.22,396.33" style="fill:none;stroke:#1FD3AC" />
<path d="M521.34,388.62L521.34,415.49" style="fill:none;stroke:#1FD3AC" />
<path d="M518.84,388.62L523.84,388.62" style="fill:none;stroke:#1FD3AC" />
<path d="M518.84,415.49L523.84,415.49" style="fill:none;stroke:#1FD3AC" />
<path d="M524.96,373.6L524.96,402.07" style="fill:none;stroke:#1FD3AC" />
<path d="M522.46,373.6L527.46,373.6" style="fill:none;stroke:#1FD3AC" />
<path d="M522.46,402.07L527.46,402.07" style="fill:none;stroke:#1FD3AC" />
<path d="M528.58,352.39L528.58,392.1" style="fill:none;stroke:#1FD3AC" />
<path d="M526.08,352.39L531.08,352.39" style="fill:none;stroke:#1FD3AC" />
<path d="M526.08,392.1L531.08,392.1" style="fill:none;stroke:#1FD3AC" />
<path d="M532.2,327.89L532.2,368.86" style="fill:none;stroke:#1FD3AC" />
<path d="M529.7,327.89L534.7,327.89" style="fill:none;stroke:#1FD3AC" />
<path d="M529.7,368.86L534.7,368.86" style="fill:none;stroke:#1FD3AC" />
<path d="M535.82,304.35L535.82,345.1" style="fill:none;stroke:#1FD3AC" />
<path d="M533.32,304.35L538.32,304.35" style="fill:none;stroke:#1FD3AC" />
<path d="M533.32,345.1L538.32,345.1" style="fill:none;stroke:#1FD3AC" />
<path d="M539.44,295.02L539.44,347.9" style="fill:none;stroke:#1FD3AC" />
<path d="M536.94,295.02L541.94,295.02" style="fill:none;stroke:#1FD3AC" />
<path d="M536.94,347.9L541.94,347.9" style="fill:none;stroke:#1FD3AC" />
<path d="M543.05,259.44L543.05,311.13" style="fill:none;stroke:#1FD3AC" />
<path d="M540.55,259.44L545.55,259.44" style="fill:none;stroke:#1FD3AC" />
<path d="M540.55,311.13L545.55,311.13" style="fill:none;stroke:#1FD3AC" />
<path d="M546.67,240.59L546.67,287.95" style="fill:none;stroke:#1FD3AC" />
<path d="M544.17,240.59L549.17,240.59" style="fill:none;stroke:#1FD3AC" />
<path d="M544.17,287.95L549.17,287.95" style="fill:none;stroke:#1FD3AC" />
<path d="M550.29,261.59L550.29,299.41" style="fill:none;stroke:#1FD3AC" />
<path d="M547.79,261.59L552.79,261.59" style="fill:none;stroke:#1FD3AC" />
<path d="M547.79,299.41L552.79,299.41" style="fill:none;stroke:#1FD3AC" />
<path d="M553.91,289.97L553.91,328.03" style="fill:none;stroke:#1FD3AC" />
<path d="M551.41,289.97L556.41,289.97" style="fill:none;stroke:#1FD3AC" />
<path d="M551.41,328.03L556.41,328.03" style="fill:none;stroke:#1FD3AC" />
<path d="M557.53,286.02L557.53,332.79" style="fill:none;stroke:#1FD3AC" />
<path d="M555.03,286.02L560.03,286.02" style="fill:none;stroke:#1FD3AC" />
<path d="M555.03,332.79L560.03,332.79" style="fill:none;stroke:#1FD3AC" />
<path d="M561.15,304.97L561.15,340.52" style="fill:none;stroke:#1FD3AC" />
<path d="M558.65,304.97L563.65,304.97" style="fill:none;stroke:#1FD3AC" />
<path d="M558.65,340.52L563.65,340.52" style="fill:none;stroke:#1FD3AC" />
<path d="M564.77,352.44L564.77,370.88" style="fill:none;stroke:#1FD3AC" />
<path d="M562.27,352.44L567.27,352.44" style="fill:none;stroke:#1FD3AC" />
<path d="M562.27,370.88L567.27,370.88" style="fill:none;stroke:#1FD3AC" />
<path d="M568.39,384.83L568.39,409.5" style="fill:none;stroke:#1FD3AC" />
<path d="M565.89,384.83L570.89,384.83" style="fill:none;stroke:#1FD3AC" />
<path d="M565.89,409.5L570.89,409.5" style="fill:none;stroke:#1FD3AC" />
<path d="M572,434.51L572,459.53" style="fill:none;stroke:#1FD3AC" />
<path d="M569.5,434.51L574.5,434.51" style="fill:none;stroke:#1FD3AC" />
<path d="M569.5,459.53L574.5,459.53" style="fill:none;stroke:#1FD3AC" />
<path d="M575.62,487.99L575.62,518.59" style="fill:none;stroke:#1FD3AC" />
<path d="M573.12,487.99L578.12,487.99" style="fill:none;stroke:#1FD3AC" />
<path d="M573.12,518.59L578.12,518.59" style="fill:none;stroke:#1FD3AC" />
<path d="M579.24,551.63L579.24,594.56" style="fill:none;stroke:#1FD3AC" />
<path d="M576.74,551.63L581.74,551.63" style="fill:none;stroke:#1FD3AC" />
<path d="M576.74,594.56L581.74,594.56" style="fill:none;stroke:#1FD3AC" />
<path d="M582.86,615.39L582.86,666.08" style="fill:none;stroke:#1FD3AC" />
<path d="M580.36,615.39L585.36,615.39" style="fill:none;stroke:#1FD3AC" />
<path d="M580.36,666.08L585.36,666.08" style="fill:none;stroke:#1FD3AC" />
<path d="M586.48,695.97L586.48,753.25" style="fill:none;stroke:#1FD3AC" />
<path d="M583.98,695.97L588.98,695.97" style="fill:none;stroke:#1FD3AC" />
<path d="M583.98,753.25L588.98,753.25" style="fill:none;stroke:#1FD3AC" />
<path d="M590.1,749.44L590.1,815.38" style="fill:none;stroke:#1FD3AC" />
<path d="M587.6,749.44L592.6,749.44" style="fill:none;stroke:#1FD3AC" />
<path d="M587.6,815.38L592.6,815.38" style="fill:none;stroke:#1FD3AC" />
<path d="M593.72,755.68L593.72,822.48" style="fill:none;stroke:#1FD3AC" />
<path d="M591.22,755.68L596.22,755.68" style="fill:none;stroke:#1FD3AC" />
<path d="M591.22,822.48L596.22,822.48" style="fill:none;stroke:#1FD3AC" />
<path d="M597.34,747.57L597.34,813.38" style="fill:none;stroke:#1FD3AC" />
<path d="M594.84,747.57L599.84,747.57" style="fill:none;stroke:#1FD3AC" />
<path d="M594.84,813.38L599.84,813.38" style="fill:none;stroke:#1FD3AC" />
<path d="M600.95,721.81L600.95,792.43" style="fill:none;stroke:#1FD3AC" />
<path d="M598.45,721.81L603.45,721.81" style="fill:none;stroke:#1FD3AC" />
<path d="M598.45,792.43L603.45,792.43" style="fill:none;stroke:#1FD3AC" />
<path d="M604.57,671.16L604.57,764.29" style="fill:none;stroke:#1FD3AC" />
<path d="M602.07,671.16L607.07,671.16" style="fill:none;stroke:#1FD3AC" />
<path d="M602.07,764.29L607.07,764.29" style="fill:none;stroke:#1FD3AC" />
<path d="M608.19,702.96L608.19,816.37" style="fill:none;stroke:#1FD3AC" />
<path d="M605.69,702.96L610.69,702.96" style="fill:none;stroke:#1FD3AC" />
<path d="M605.69,816.37L610.69,816.37" style="fill:none;stroke:#1FD3AC" />
<path d="M611.81,677.73L611.81,768.22" style="fill:none;stroke:#1FD3AC" />
<path d="M609.31,677.73L614.31,677.73" style="fill:none;stroke:#1FD3AC" />
<path d="M609.31,768.22L614.31,768.22" style="fill:none;stroke:#1FD3AC" />
<path d="M615.43,583.44L615.43,669.51" style="fill:none;stroke:#1FD3AC" />
<path d="M612.93,583.44L617.93,583.44" style="fill:none;stroke:#1FD3AC" />
<path d="M612.93,669.51L617.93,669.51" style="fill:none;stroke:#1FD3AC" />
<path d="M619.05,484.25L619.05,551.23" style="fill:none;stroke:#1FD3AC" />
<path d="M616.55,484.25L621.55,484.25" style="fill:none;stroke:#1FD3AC" />
<path d="M616.55,551.23L621.55,551.23" style="fill:none;stroke:#1FD3AC" />
<path d="M622.67,374.48L622.67,439.35" style="fill:none;stroke:#1FD3AC" />
<path d="M620.17,374.48L625.17,374.48" style="fill:none;stroke:#1FD3AC" />
<path d="M620.17,439.35L625.17,439.35" style="fill:none;stroke:#1FD3AC" />
<path d="M626.28,279.96L626.28,345.78" style="fill:none;stroke:#1FD3AC" />
<path d="M623.78,279.96L628.78,279.96" style="fill:none;stroke:#1FD3AC" />
<path d="M623.78,345.78L628.78,345.78" style="fill:none;stroke:#1FD3AC" />
<path d="M629.9,281.72L629.9,338.66" style="fill:none;stroke:#1FD3AC" />
<path d="M627.4,281.72L632.4,281.72" style="fill:none;stroke:#1FD3AC" />
<path d="M627.4,338.66L632.4,338.66" style="fill:none;stroke:#1FD3AC" />
<path d="M633.52,365.55L633.52,418.08" style="fill:none;stroke:#1FD3AC" />
<path d="M631.02,365.55L636.02,365.55" style="fill:none;stroke:#1FD3AC" />
<path d="M631.02,418.08L636.02,418.08" style="fill:none;stroke:#1FD3AC" />
<path d="M637.14,422.88L637.14,480.01" style="fill:none;stroke:#1FD3AC" />
<path d="M634.64,422.88L639.64,422.88" style="fill:none;stroke:#1FD3AC" />
<path d="M634.64,480.01L639.64,480.01" style="fill:none;stroke:#1FD3AC" />
<path d="M640.76,483.51L640.76,529.85" style="fill:none;stroke:#1FD3AC" />
<path d="M638.26,483.51L643.26,483.51" style="fill:none;stroke:#1FD3AC" />
<path d="M638.26,529.85L643.26,529.85" style="fill:none;stroke:#1FD3AC" />
<path d="M644.38,510.65L644.38,551.51" style="fill:none;stroke:#1FD3AC" />
<path d="M641.88,510.65L646.88,510.65" style="fill:none;stroke:#1FD3AC" />
<path d="M641.88,551.51L646.88,551.51" style="fill:none;stroke:#1FD3AC" />
<path d="M648,533.57L648,573.2" style="fill:none;stroke:#1FD3AC" />
<path d="M645.5,533.57L650.5,533.57" style="fill:none;stroke:#1FD3AC" />
<path d="M645.5,573.2L650.5,573.2" style="fill:none;stroke:#1FD3AC" />
<path d="M651.62,529.12L651.62,569.02" style="fill:none;stroke:#1FD3AC" />
<path d="M649.12,529.12L654.12,529.12" style="fill:none;stroke:#1FD3AC" />
<path d="M649.12,569.02L654.12,569.02" style="fill:none;stroke:#1FD3AC" />
<path d="M655.23,536.89L655.23,577.83" style="fill:none;stroke:#1FD3AC" />
<path d="M652.73,536.89L657.73,536.89" style="fill:none;stroke:#1FD3AC" />
<path d="M652.73,577.83L657.73,577.83" style="fill:none;stroke:#1FD3AC" />
<path d="M658.85,530.11L658.85,570.75" style="fill:none;stroke:#1FD3AC" />
<path d="M656.35,530.11L661.35,530.11" style="fill:none;stroke:#1FD3AC" />
<path d="M656.35,570.75L661.35,570.75" style="fill:none;stroke:#1FD3AC" />
<path d="M662.47,510.3L662.47,550.82" style="fill:none;stroke:#1FD3AC" />
<path d="M659.97,510.3L664.97,510.3" style="fill:none;stroke:#1FD3AC" />
<path d="M659.97,550.82L664.97,550.82" style="fill:none;stroke:#1FD3AC" />
<path d="M666.09,491.74L666.09,526.77" style="fill:none;stroke:#1FD3AC" />
<path d="M663.59,491.74L668.59,491.74" style="fill:none;stroke:#1FD3AC" />
<path d="M663.59,526.77L668.59,526.77" style="fill:none;stroke:#1FD3AC" />
<path d="M669.71,441.26L669.71,468.45" style="fill:none;stroke:#1FD3AC" />
<path d="M667.21,441.26L672.21,441.26" style="fill:none;stroke:#1FD3AC" />
<path d="M667.21,468.45L672.21,468.45" style="fill:none;stroke:#1FD3AC" />
<path d="M673.33,407.17L673.33,431.69" style="fill:none;stroke:#1FD3AC" />
<path d="M670.83,407.17L675.83,407.17" style="fill:none;stroke:#1FD3AC" />
<path d="M670.83,431.69L675.83,431.69" style="fill:none;stroke:#1FD3AC" />
<path d="M676.95,380.21L676.95,402.56" style="fill:none;stroke:#1FD3AC" />
<path d="M674.45,380.21L679.45,380.21" style="fill:none;stroke:#1FD3AC" />
<path d="M674.45,402.56L679.45,402.56" style="fill:none;stroke:#1FD3AC" />
<path d="M680.56,352.81L680.56,375.48" style="fill:none;stroke:#1FD3AC" />
<path d="M678.06,352.81L683.06,352.81" style="fill:none;stroke:#1FD3AC" />
<path d="M678.06,375.48L683.06,375.48" style="fill:none;stroke:#1FD3AC" />
<path d="M684.18,326.86L684.18,343.78" style="fill:none;stroke:#1FD3AC" />
<path d="M681.68,326.86L686.68,326.86" style="fill:none;stroke:#1FD3AC" />
<path d="M681.68,343.78L686.68,343.78" style="fill:none;stroke:#1FD3AC" />
<path d="M687.8,313.89L687.8,333.08" style="fill:none;stroke:#1FD3AC" />
<path d="M685.3,313.89L690.3,313.89" style="fill:none;stroke:#1FD3AC" />
<path d="M685.3,333.08L690.3,333.08" style="fill:none;stroke:#1FD3AC" />
<path d="M691.42,297.91L691.42,317.49" style="fill:none;stroke:#1FD3AC" />
<path d="M688.92,297.91L693.92,297.91" style="fill:none;stroke:#1FD3AC" />
<path d="M688.92,317.49L693.92,317.49" style="fill:none;stroke:#1FD3AC" />
<path d="M695.04,290.75L695.04,310.59" style="fill:none;stroke:#1FD3AC" />
<path d="M692.54,290.75L697.54,290.75" style="fill:none;stroke:#1FD3AC" />
<path d="M692.54,310.59L697.54,310.59" style="fill:none;stroke:#1FD3AC" />
<path d="M698.66,281.8L698.66,302.72" style="fill:none;stroke:#1FD3AC" />
<path d="M696.16,281.8L701.16,281.8" style="fill:none;stroke:#1FD3AC" />
<path d="M696.16,302.72L701.16,302.72" style="fill:none;stroke:#1FD3AC" />
<path d="M702.28,266.52L702.28,285.93" style="fill:none;stroke:#1FD3AC" />
<path d="M699.78,266.52L704.78,266.52" style="fill:none;stroke:#1FD3AC" />
<path d="M699.78,285.93L704.78,285.93" style="fill:none;stroke:#1FD3AC" />
<path d="M705.9,264.89L705.9,281.07" style="fill:none;stroke:#1FD3AC" />
<path d="M703.4,264.89L708.4,264.89" style="fill:none;stroke:#1FD3AC" />
<path d="M703.4,281.07L708.4,281.07" style="fill:none;stroke:#1FD3AC" />
<path d="M709.51,250.69L709.51,267.26" style="fill:none;stroke:#1FD3AC" />
<path d="M707.01,250.69L712.01,250.69" style="fill:none;stroke:#1FD3AC" />
<path d="M707.01,267.26L712.01,267.26" style="fill:none;stroke:#1FD3AC" />
<path d="M713.13,239.19L713.13,259.76" style="fill:none;stroke:#1FD3AC" />
<path d="M710.63,239.19L715.63,239.19" style="fill:none;stroke:#1FD3AC" />
<path d="M710.63,259.76L715.63,259.76" style="fill:none;stroke:#1FD3AC" />
<path d="M716.75,239.64L716.75,260.64" style="fill:none;stroke:#1FD3AC" />
<path d="M714.25,239.64L719.25,239.64" style="fill:none;stroke:#1FD3AC" />
<path d="M714.25,260.64L719.25,260.64" style="fill:none;stroke:#1FD3AC" />
<path d="M720.37,228.93L720.37,246.42" style="fill:none;stroke:#1FD3AC" />
<path d="M717.87,228.93L722.87,228.93" style="fill:none;stroke:#1FD3AC" />
<path d="M717.87,246.42L722.87,246.42" style="fill:none;stroke:#1FD3AC" />
<path d="M723.99,215.77L723.99,230.91" style="fill:none;stroke:#1FD3AC" />
<path d="M721.49,215.77L726.49,215.77" style="fill:none;stroke:#1FD3AC" />
<path d="M721.49,230.91L726.49,230.91" style="fill:none;stroke:#1FD3AC" />
<path d="M727.61,203.63L727.61,220.94" style="fill:none;stroke:#1FD3AC" />
<path d="M725.11,203.63L730.11,203.63" style="fill:none;stroke:#1FD3AC" />
<path d="M725.11,220.94L730.11,220.94" style="fill:none;stroke:#1FD3AC" />
<path d="M731.23,198.8L731.23,214.15" style="fill:none;stroke:#1FD3AC" />
<path d="M728.73,198.8L733.73,198.8" style="fill:none;stroke:#1FD3AC" />
<path d="M728.73,214.15L733.73,214.15" style="fill:none;stroke:#1FD3AC" />
<path d="M734.84,193.33L734.84,208.49" style="fill:none;stroke:#1FD3AC" />
<path d="M732.34,193.33L737.34,193.33" style="fill:none;stroke:#1FD3AC" />
<path d="M732.34,208.49L737.34,208.49" style="fill:none;stroke:#1FD3AC" />
<path d="M738.46,189.41L738.46,204.18" style="fill:none;stroke:#1FD3AC" />
<path d="M735.96,189.41L740.96,189.41" style="fill:none;stroke:#1FD3AC" />
<path d="M735.96,204.18L740.96,204.18" style="fill:none;stroke:#1FD3AC" />
<path d="M742.08,186.98L742.08,201.65" style="fill:none;stroke:#1FD3AC" />
<path d="M739.58,186.98L744.58,186.98" style="fill:none;stroke:#1FD3AC" />
<path d="M739.58,201.65L744.58,201.65" style="fill:none;stroke:#1FD3AC" />
<path d="M745.7,185.08L745.7,197.65" style="fill:none;stroke:#1FD3AC" />
<path d="M743.2,185.08L748.2,185.08" style="fill:none;stroke:#1FD3AC" />
<path d="M743.2,197.65L748.2,197.65" style="fill:none;stroke:#1FD3AC" />
<path d="M749.32,184L749.32,197.5" style="fill:none;stroke:#1FD3AC" />
<path d="M746.82,184L751.82,184" style="fill:none;stroke:#1FD3AC" />
<path d="M746.82,197.5L751.82,197.5" style="fill:none;stroke:#1FD3AC" />
<path d="M752.94,177.45L752.94,191.34" style="fill:none;stroke:#1FD3AC" />
<path d="M750.44,177.45L755.44,177.45" style="fill:none;stroke:#1FD3AC" />
<path d="M750.44,191.34L755.44,191.34" style="fill:none;stroke:#1FD3AC" />
<path d="M756.56,172.11L756.56,186.52" style="fill:none;stroke:#1FD3AC" />
<path d="M754.06,172.11L759.06,172.11" style="fill:none;stroke:#1FD3AC" />
<path d="M754.06,186.52L759.06,186.52" style="fill:none;stroke:#1FD3AC" />
<path d="M760.18,170.02L760.18,184.04" style="fill:none;stroke:#1FD3AC" />
<path d="M757.68,170.02L762.68,170.02" style="fill:none;stroke:#1FD3AC" />
<path d="M757.68,184.04L762.68,184.04" style="fill:none;stroke:#1FD3AC" />
<path d="M763.79,165.91L763.79,179.99" style="fill:none;stroke:#1FD3AC" />
<path d="M761.29,165.91L766.29,165.91" style="fill:none;stroke:#1FD3AC" />
<path d="M761.29,179.99L766.29,179.99" style="fill:none;stroke:#1FD3AC" />
<path d="M767.41,162.75L767.41,177.36" style="fill:none;stroke:#1FD3AC" />
<path d="M764.91,162.75L769.91,162.75" style="fill:none;stroke:#1FD3AC" />
<path d="M764.91,177.36L769.91,177.36" style="fill:none;stroke:#1FD3AC" />
<path d="M771.03,161.11L771.03,176.3" style="fill:none;stroke:#1FD3AC" />
<path d="M768.53,161.11L773.53,161.11" style="fill:none;stroke:#1FD3AC" />
<path d="M768.53,176.3L773.53,176.3" style="fill:none;stroke:#1FD3AC" />
<path d="M774.65,157.82L774.65,172.5" style="fill:none;stroke:#1FD3AC" />
<path d="M772.15,157.82L777.15,157.82" style="fill:none;stroke:#1FD3AC" />
<path d="M772.15,172.5L777.15,172.5" style="fill:none;stroke:#1FD3AC" />
<path d="M778.27,158.24L778.27,171.71" style="fill:none;stroke:#1FD3AC" />
<path d="M775.77,158.24L780.77,158.24" style="fill:none;stroke:#1FD3AC" />
<path d="M775.77,171.71L780.77,171.71" style="fill:none;stroke:#1FD3AC" />
<path d="M781.89,154.08L781.89,167.71" style="fill:none;stroke:#1FD3AC" />
<path d="M779.39,154.08L784.39,154.08" style="fill:none;stroke:#1FD3AC" />
<path d="M779.39,167.71L784.39,167.71" style="fill:none;stroke:#1FD3AC" />
<path d="M785.51,152.07L785.51,165.8" style="fill:none;stroke:#1FD3AC" />
<path d="M783.01,152.07L788.01,152.07" style="fill:none;stroke:#1FD3AC" />
<path d="M783.01,165.8L788.01,165.8" style="fill:none;stroke:#1FD3AC" />
<path d="M789.12,150.44L789.12,163.85" style="fill:none;stroke:#1FD3AC" />
<path d="M786.62,150.44L791.62,150.44" style="fill:none;stroke:#1FD3AC" />
<path d="M786.62,163.85L791.62,163.85" style="fill:none;stroke:#1FD3AC" />
<path d="M792.74,152.19L792.74,165.24" style="fill:none;stroke:#1FD3AC" />
<path d="M790.24,152.19L795.24,152.19" style="fill:none;stroke:#1FD3AC" />
<path d="M790.24,165.24L795.24,165.24" style="fill:none;stroke:#1FD3AC" />
<path d="M796.36,148.98L796.36,162.16" style="fill:none;stroke:#1FD3AC" />
<path d="M793.86,148.98L798.86,148.98" style="fill:none;stroke:#1FD3AC" />
<path d="M793.86,162.16L798.86,162.16" style="fill:none;stroke:#1FD3AC" />
<path d="M799.98,148.96L799.98,163.5" style="fill:none;stroke:#1FD3AC" />
<path d="M797.48,148.96L802.48,148.96" style="fill:none;stroke:#1FD3AC" />
<path d="M797.48,163.5L802.48,163.5" style="fill:none;stroke:#1FD3AC" />
<path d="M803.6,145.62L803.6,159.6" style="fill:none;stroke:#1FD3AC" />
<path d="M801.1,145.62L806.1,145.62" style="fill:none;stroke:#1FD3AC" />
<path d="M801.1,159.6L806.1,159.6" style="fill:none;stroke:#1FD3AC" />
<path d="M807.22,144.07L807.22,157.93" style="fill:none;stroke:#1FD3AC" />
<path d="M804.72,144.07L809.72,144.07" style="fill:none;stroke:#1FD3AC" />
<path d="M804.72,157.93L809.72,157.93" style="fill:none;stroke:#1FD3AC" />
<path d="M810.84,144.03L810.84,158.2" style="fill:none;stroke:#1FD3AC" />
<path d="M808.34,144.03L813.34,144.03" style="fill:none;stroke:#1FD3AC" />
<path d="M808.34,158.2L813.34,158.2" style="fill:none;stroke:#1FD3AC" />
<path d="M814.46,143.06L814.46,157.22" style="fill:none;stroke:#1FD3AC" />
<path d="M811.96,143.06L816.96,143.06" style="fill:none;stroke:#1FD3AC" />
<path d="M811.96,157.22L816.96,157.22" style="fill:none;stroke:#1FD3AC" />
<path d="M818.07,143.62L818.07,158.1" style="fill:none;stroke:#1FD3AC" />
<path d="M815.57,143.62L820.57,143.62" style="fill:none;stroke:#1FD3AC" />
<path d="M815.57,158.1L820.57,158.1" style="fill:none;stroke:#1FD3AC" />
<path d="M821.69,144.18L821.69,157.55" style="fill:none;stroke:#1FD3AC" />
<path d="M819.19,144.18L824.19,144.18" style="fill:none;stroke:#1FD3AC" />
<path d="M819.19,157.55L824.19,157.55" style="fill:none;stroke:#1FD3AC" />
<path d="M825.31,143.82L825.31,157.74" style="fill:none;stroke:#1FD3AC" />
<path d="M822.81,143.82L827.81,143.82" style="fill:none;stroke:#1FD3AC" />
<path d="M822.81,157.74L827.81,157.74" style="fill:none;stroke:#1FD3AC" />
<path d="M828.93,144.06L828.93,157.85" style="fill:none;stroke:#1FD3AC" />
<path d="M826.43,144.06L831.43,144.06" style="fill:none;stroke:#1FD3AC" />
<path d="M826.43,157.85L831.43,157.85" style="fill:none;stroke:#1FD3AC" />
<path d="M832.55,144.53L832.55,158.15" style="fill:none;stroke:#1FD3AC" />
<path d="M830.05,144.53L835.05,144.53" style="fill:none;stroke:#1FD3AC" />
<path d="M830.05,158.15L835.05,158.15" style="fill:none;stroke:#1FD3AC" />
<path d="M836.17,145.87L836.17,159.49" style="fill:none;stroke:#1FD3AC" />
<path d="M833.67,145.87L838.67,145.87" style="fill:none;stroke:#1FD3AC" />
<path d="M833.67,159.49L838.67,159.49" style="fill:none;stroke:#1FD3AC" />
<path d="M839.79,145.54L839.79,159.72" style="fill:none;stroke:#1FD3AC" />
<path d="M837.29,145.54L842.29,145.54" style="fill:none;stroke:#1FD3AC" />
<path d="M837.29,159.72L842.29,159.72" style="fill:none;stroke:#1FD3AC" />
<path d="M843.4,146.82L843.4,160.29" style="fill:none;stroke:#1FD3AC" />
<path d="M840.9,146.82L845.9,146.82" style="fill:none;stroke:#1FD3AC" />
<path d="M840.9,160.29L845.9,160.29" style="fill:none;stroke:#1FD3AC" />
<path d="M847.02,146.28L847.02,159.72" style="fill:none;stroke:#1FD3AC" />
<path d="M844.52,146.28L849.52,146.28" style="fill:none;stroke:#1FD3AC" />
<path d="M844.52,159.72L849.52,159.72" style="fill:none;stroke:#1FD3AC" />
<path d="M850.64,144.41L850.64,158.5" style="fill:none;stroke:#1FD3AC" />
<path d="M848.14,144.41L853.14,144.41" style="fill:none;stroke:#1FD3AC" />
<path d="M848.14,158.5L853.14,158.5" style="fill:none;stroke:#1FD3AC" />
<path d="M854.26,145.85L854.26,159.86" style="fill:none;stroke:#1FD3AC" />
<path d="M851.76,145.85L856.76,145.85" style="fill:none;stroke:#1FD3AC" />
<path d="M851.76,159.86L856.76,159.86" style="fill:none;stroke:#1FD3AC" />
<path d="M857.88,143.83L857.88,157.83" style="fill:none;stroke:#1FD3AC" />
<path d="M855.38,143.83L860.38,143.83" style="fill:none;stroke:#1FD3AC" />
<path d="M855.38,157.83L860.38,157.83" style="fill:none;stroke:#1FD3AC" />
<path d="M861.5,145.7L861.5,159.84" style="fill:none;stroke:#1FD3AC" />
<path d="M859,145.7L864,145.7" style="fill:none;stroke:#1FD3AC" />
<path d="M859,159.84L864,159.84" style="fill:none;stroke:#1FD3AC" />
<path d="M865.12,144.33L865.12,157.8" style="fill:none;stroke:#1FD3AC" />
<path d="M862.62,144.33L867.62,144.33" style="fill:none;stroke:#1FD3AC" />
<path d="M862.62,157.8L867.62,157.8" style="fill:none;stroke:#1FD3AC" />
<path d="M868.74,144.56L868.74,158.15" style="fill:none;stroke:#1FD3AC" />
<path d="M866.24,144.56L871.24,144.56" style="fill:none;stroke:#1FD3AC" />
<path d="M866.24,158.15L871.24,158.15" style="fill:none;stroke:#1FD3AC" />
<path d="M872.35,144.67L872.35,158.47" style="fill:none;stroke:#1FD3AC" />
<path d="M869.85,144.67L874.85,144.67" style="fill:none;stroke:#1FD3AC" />
<path d="M869.85,158.47L874.85,158.47" style="fill:none;stroke:#1FD3AC" />
<path d="M875.97,143.88L875.97,157.73" style="fill:none;stroke:#1FD3AC" />
<path d="M873.47,143.88L878.47,143.88" style="fill:none;stroke:#1FD3AC" />
<path d="M873.47,157.73L878.47,157.73" style="fill:none;stroke:#1FD3AC" />
<path d="M879.59,141.75L879.59,156.37" style="fill:none;stroke:#1FD3AC" />
<path d="M877.09,141.75L882.09,141.75" style="fill:none;stroke:#1FD3AC" />
<path d="M877.09,156.37L882.09,156.37" style="fill:none;stroke:#1FD3AC" />
<path d="M883.21,140.34L883.21,154.41" style="fill:none;stroke:#1FD3AC" />
<path d="M880.71,140.34L885.71,140.34" style="fill:none;stroke:#1FD3AC" />
<path d="M880.71,154.41L885.71,154.41" style="fill:none;stroke:#1FD3AC" />
<path d="M886.83,140.81L886.83,154.76" style="fill:none;stroke:#1FD3AC" />
<path d="M884.33,140.81L889.33,140.81" style="fill:none;stroke:#1FD3AC" />
<path d="M884.33,154.76L889.33,154.76" style="fill:none;stroke:#1FD3AC" />
<path d="M890.45,141.07L890.45,155.07" style="fill:none;stroke:#1FD3AC" />
<path d="M887.95,141.07L892.95,141.07" style="fill:none;stroke:#1FD3AC" />
<path d="M887.95,155.07L892.95,155.07" style="fill:none;stroke:#1FD3AC" />
<path d="M894.07,142.56L894.07,156.46" style="fill:none;stroke:#1FD3AC" />
<path d="M891.57,142.56L896.57,142.56" style="fill:none;stroke:#1FD3AC" />
<path d="M891.57,156.46L896.57,156.46" style="fill:none;stroke:#1FD3AC" />
<path d="M897.68,141.31L897.68,154.92" style="fill:none;stroke:#1FD3AC" />
<path d="M895.18,141.31L900.18,141.31" style="fill:none;stroke:#1FD3AC" />
<path d="M895.18,154.92L900.18,154.92" style="fill:none;stroke:#1FD3AC" />
<path d="M901.3,139.93L901.3,153.69" style="fill:none;stroke:#1FD3AC" />
<path d="M898.8,139.93L903.8,139.93" style="fill:none;stroke:#1FD3AC" />
<path d="M898.8,153.69L903.8,153.69" style="fill:none;stroke:#1FD3AC" />
<path d="M904.92,141.92L904.92,155.57" style="fill:none;stroke:#1FD3AC" />
<path d="M902.42,141.92L907.42,141.92" style="fill:none;stroke:#1FD3AC" />
<path d="M902.42,155.57L907.42,155.57" style="fill:none;stroke:#1FD3AC" />
<path d="M908.54,140.64L908.54,154.07" style="fill:none;stroke:#1FD3AC" />
<path d="M906.04,140.64L911.04,140.64" style="fill:none;stroke:#1FD3AC" />
<path d="M906.04,154.07L911.04,154.07" style="fill:none;stroke:#1FD3AC" />
<path d="M912.16,140.75L912.16,154.56" style="fill:none;stroke:#1FD3AC" />
<path d="M909.66,140.75L914.66,140.75" style="fill:none;stroke:#1FD3AC" />
<path d="M909.66,154.56L914.66,154.56" style="fill:none;stroke:#1FD3AC" />
<path d="M915.78,138.82L915.78,152.52" style="fill:none;stroke:#1FD3AC" />
<path d="M913.28,138.82L918.28,138.82" style="fill:none;stroke:#1FD3AC" />
<path d="M913.28,152.52L918.28,152.52" style="fill:none;stroke:#1FD3AC" />
<path d="M919.4,140.53L919.4,154.18" style="fill:none;stroke:#1FD3AC" />
<path d="M916.9,140.53L921.9,140.53" style="fill:none;stroke:#1FD3AC" />
<path d="M916.9,154.18L921.9,154.18" style="fill:none;stroke:#1FD3AC" />
<path d="M923.02,139.35L923.02,152.89" style="fill:none;stroke:#1FD3AC" />
<path d="M920.52,139.35L925.52,139.35" style="fill:none;stroke:#1FD3AC" />
<path d="M920.52,152.89L925.52,152.89" style="fill:none;stroke:#1FD3AC" />
<path d="M926.63,137.72L926.63,151.52" style="fill:none;stroke:#1FD3AC" />
<path d="M924.13,137.72L929.13,137.72" style="fill:none;stroke:#1FD3AC" />
<path d="M924.13,151.52L929.13,151.52" style="fill:none;stroke:#1FD3AC" />
<path d="M930.25,138.25L930.25,151.63" style="fill:none;stroke:#1FD3AC" />
<path d="M927.75,138.25L932.75,138.25" style="fill:none;stroke:#1FD3AC" />
<path d="M927.75,151.63L932.75,151.63" style="fill:none;stroke:#1FD3AC" />
<path d="M933.87,138.26L933.87,151.76" style="fill:none;stroke:#1FD3AC" />
<path d="M931.37,138.26L936.37,138.26" style="fill:none;stroke:#1FD3AC" />
<path d="M931.37,151.76L936.37,151.76" style="fill:none;stroke:#1FD3AC" />
<path d="M937.49,138.37L937.49,152.11" style="fill:none;stroke:#1FD3AC" />
<path d="M934.99,138.37L939.99,138.37" style="fill:none;stroke:#1FD3AC" />
<path d="M934.99,152.11L939.99,152.11" style="fill:none;stroke:#1FD3AC" />
<path d="M941.11,137.9L941.11,151.58" style="fill:none;stroke:#1FD3AC" />
<path d="M938.61,137.9L943.61,137.9" style="fill:none;stroke:#1FD3AC" />
<path d="M938.61,151.58L943.61,151.58" style="fill:none;stroke:#1FD3AC" />
<path d="M944.73,138.44L944.73,151.93" style="fill:none;stroke:#1FD3AC" />
<path d="M942.23,138.44L947.23,138.44" style="fill:none;stroke:#1FD3AC" />
<path d="M942.23,151.93L947.23,151.93" style="fill:none;stroke:#1FD3AC" />
<path d="M948.35,138.24L948.35,151.6" style="fill:none;stroke:#1FD3AC" />
<path d="M945.85,138.24L950.85,138.24" style="fill:none;stroke:#1FD3AC" />
<path d="M945.85,151.6L950.85,151.6" style="fill:none;stroke:#1FD3AC" />
<path d="M951.97,137.64L951.97,150.84" style="fill:none;stroke:#1FD3AC" />
<path d="M949.47,137.64L954.47,137.64" style="fill:none;stroke:#1FD3AC" />
<path d="M949.47,150.84L954.47,150.84" style="fill:none;stroke:#1FD3AC" />
<path d="M955.58,137.16L955.58,151.17" style="fill:none;stroke:#1FD3AC" />
<path d="M953.08,137.16L958.08,137.16" style="fill:none;stroke:#1FD3AC" />
<path d="M953.08,151.17L958.08,151.17" style="fill:none;stroke:#1FD3AC" />
<path d="M959.2,136.26L959.2,149.75" style="fill:none;stroke:#1FD3AC" />
<path d="M956.7,136.26L961.7,136.26" style="fill:none;stroke:#1FD3AC" />
<path d="M956.7,149.75L961.7,149.75" style="fill:none;stroke:#1FD3AC" />
<path d="M962.82,135.68L962.82,149.05" style="fill:none;stroke:#1FD3AC" />
<path d="M960.32,135.68L965.32,135.68" style="fill:none;stroke:#1FD3AC" />
<path d="M960.32,149.05L965.32,149.05" style="fill:none;stroke:#1FD3AC" />
<path d="M966.44,136.31L966.44,149.97" style="fill:none;stroke:#1FD3AC" />
<path d="M963.94,136.31L968.94,136.31" style="fill:none;stroke:#1FD3AC" />
<path d="M963.94,149.97L968.94,149.97" style="fill:none;stroke:#1FD3AC" />
<path d="M970.06,136.71L970.06,150.46" style="fill:none;stroke:#1FD3AC" />
<path d="M967.56,136.71L972.56,136.71" style="fill:none;stroke:#1FD3AC" />
<path d="M967.56,150.46L972.56,150.46" style="fill:none;stroke:#1FD3AC" />
<path d="M973.68,134.44L973.68,148.2" style="fill:none;stroke:#1FD3AC" />
<path d="M971.18,134.44L976.18,134.44" style="fill:none;stroke:#1FD3AC" />
<path d="M971.18,148.2L976.18,148.2" style="fill:none;stroke:#1FD3AC" />
<path d="M977.3,134.39L977.3,147.91" style="fill:none;stroke:#1FD3AC" />
<path d="M974.8,134.39L979.8,134.39" style="fill:none;stroke:#1FD3AC" />
<path d="M974.8,147.91L979.8,147.91" style="fill:none;stroke:#1FD3AC" />
<path d="M980.91,134.65L980.91,148.29" style="fill:none;stroke:#1FD3AC" />
<path d="M978.41,134.65L983.41,134.65" style="fill:none;stroke:#1FD3AC" />
<path d="M978.41,148.29L983.41,148.29" style="fill:none;stroke:#1FD3AC" />
<path d="M984.53,133.2L984.53,146.85" style="fill:none;stroke:#1FD3AC" />
<path d="M982.03,133.2L987.03,133.2" style="fill:none;stroke:#1FD3AC" />
<path d="M982.03,146.85L987.03,146.85" style="fill:none;stroke:#1FD3AC" />
<path d="M988.15,133.23L988.15,146.89" style="fill:none;stroke:#1FD3AC" />
<path d="M985.65,133.23L990.65,133.23" style="fill:none;stroke:#1FD3AC" />
<path d="M985.65,146.89L990.65,146.89" style="fill:none;stroke:#1FD3AC" />
<path d="M991.77,131.69L991.77,145.09" style="fill:none;stroke:#1FD3AC" />
<path d="M989.27,131.69L994.27,131.69" style="fill:none;stroke:#1FD3AC" />
<path d="M989.27,145.09L994.27,145.09" style="fill:none;stroke:#1FD3AC" />
<path d="M995.39,133.58L995.39,147.58" style="fill:none;stroke:#1FD3AC" />
<path d="M992.89,133.58L997.89,133.58" style="fill:none;stroke:#1FD3AC" />
<path d="M992.89,147.58L997.89,147.58" style="fill:none;stroke:#1FD3AC" />
<path d="M999.01,132.32L999.01,145.62" style="fill:none;stroke:#1FD3AC" />
<path d="M996.51,132.32L1001.5,132.32" style="fill:none;stroke:#1FD3AC" />
<path d="M996.51,145.62L1001.5,145.62" style="fill:none;stroke:#1FD3AC" />
<path d="M1002.6,132.58L1002.6,146.19" style="fill:none;stroke:#1FD3AC" />
<path d="M1000.1,132.58L1005.1,132.58" style="fill:none;stroke:#1FD3AC" />
<path d="M1000.1,146.19L1005.1,146.19" style="fill:none;stroke:#1FD3AC" />
<path d="M1006.2,132.37L1006.2,145.64" style="fill:none;stroke:#1FD3AC" />
<path d="M1003.7,132.37L1008.7,132.37" style="fill:none;stroke:#1FD3AC" />
<path d="M1003.7,145.64L1008.7,145.64" style="fill:none;stroke:#1FD3AC" />
<path d="M1009.9,132.49L1009.9,146.02" style="fill:none;stroke:#1FD3AC" />
<path d="M1007.4,132.49L1012.4,132.49" style="fill:none;stroke:#1FD3AC" />
<path d="M1007.4,146.02L1012.4,146.02" style="fill:none;stroke:#1FD3AC" />
<path d="M1013.5,133.5L1013.5,147.22" style="fill:none;stroke:#1FD3AC" />
<path d="M1011,133.5L1016,133.5" style="fill:none;stroke:#1FD3AC" />
<path d="M1011,147.22L1016,147.22" style="fill:none;stroke:#1FD3AC" />
<path d="M1017.1,132.73L1017.1,146.76" style="fill:none;stroke:#1FD3AC" />
<path d="M1014.6,132.73L1019.6,132.73" style="fill:none;stroke:#1FD3AC" />
<path d="M1014.6,146.76L1019.6,146.76" style="fill:none;stroke:#1FD3AC" />
<path d="M1020.7,132.05L1020.7,145.75" style="fill:none;stroke:#1FD3AC" />
<path d="M1018.2,132.05L1023.2,132.05" style="fill:none;stroke:#1FD3AC" />
<path d="M1018.2,145.75L1023.2,145.75" style="fill:none;stroke:#1FD3AC" />
<path d="M1024.3,133.38L1024.3,147.24" style="fill:none;stroke:#1FD3AC" />
<path d="M1021.8,133.38L1026.8,133.38" style="fill:none;stroke:#1FD3AC" />
<path d="M1021.8,147.24L1026.8,147.24" style="fill:none;stroke:#1FD3AC" />
<path d="M1028,132.87L1028,146.79" style="fill:none;stroke:#1FD3AC" />
<path d="M1025.5,132.87L1030.5,132.87" style="fill:none;stroke:#1FD3AC" />
<path d="M1025.5,146.79L1030.5,146.79" style="fill:none;stroke:#1FD3AC" />
<path d="M1031.6,133.58L1031.6,147.29" style="fill:none;stroke:#1FD3AC" />
<path d="M1029.1,133.58L1034.1,133.58" style="fill:none;stroke:#1FD3AC" />
<path d="M1029.1,147.29L1034.1,147.29" style="fill:none;stroke:#1FD3AC" />
<path d="M1035.2,133.1L1035.2,146.62" style="fill:none;stroke:#1FD3AC" />
<path d="M1032.7,133.1L1037.7,133.1" style="fill:none;stroke:#1FD3AC" />
<path d="M1032.7,146.62L1037.7,146.62" style="fill:none;stroke:#1FD3AC" />
<path d="M1038.8,133.56L1038.8,147.04" style="fill:none;stroke:#1FD3AC" />
<path d="M1036.3,133.56L1041.3,133.56" style="fill:none;stroke:#1FD3AC" />
<path d="M1036.3,147.04L1041.3,147.04" style="fill:none;stroke:#1FD3AC" />
<path d="M1042.4,133.41L1042.4,147.06" style="fill:none;stroke:#1FD3AC" />
<path d="M1039.9,133.41L1044.9,133.41" style="fill:none;stroke:#1FD3AC" />
<path d="M1039.9,147.06L1044.9,147.06" style="fill:none;stroke:#1FD3AC" />
<path d="M1046.1,133.57L1046.1,147.6" style="fill:none;stroke:#1FD3AC" />
<path d="M1043.6,133.57L1048.6,133.57" style="fill:none;stroke:#1FD3AC" />
<path d="M1043.6,147.6L1048.6,147.6" style="fill:none;stroke:#1FD3AC" />
<path d="M1049.7,134.06L1049.7,147.98" style="fill:none;stroke:#1FD3AC" />
<path d="M1047.2,134.06L1052.2,134.06" style="fill:none;stroke:#1FD3AC" />
<path d="M1047.2,147.98L1052.2,147.98" style="fill:none;stroke:#1FD3AC" />
<path d="M1053.3,134.15L1053.3,148.09" style="fill:none;stroke:#1FD3AC" />
<path d="M1050.8,134.15L1055.8,134.15" style="fill:none;stroke:#1FD3AC" />
<path d="M1050.8,148.09L1055.8,148.09" style="fill:none;stroke:#1FD3AC" />
<path d="M1056.9,133.7L1056.9,147.61" style="fill:none;stroke:#1FD3AC" />
<path d="M1054.4,133.7L1059.4,133.7" style="fill:none;stroke:#1FD3AC" />
<path d="M1054.4,147.61L1059.4,147.61" style="fill:none;stroke:#1FD3AC" />
<path d="M1060.5,133.23L1060.5,146.66" style="fill:none;stroke:#1FD3AC" />
<path d="M1058,133.23L1063,133.23" style="fill:none;stroke:#1FD3AC" />
<path d="M1058,146.66L1063,146.66" style="fill:none;stroke:#1FD3AC" />
<path d="M1064.1,134.83L1064.1,148.88" style="fill:none;stroke:#1FD3AC" />
<path d="M1061.6,134.83L1066.6,134.83" style="fill:none;stroke:#1FD3AC" />
<path d="M1061.6,148.88L1066.6,148.88" style="fill:none;stroke:#1FD3AC" />
<path d="M1067.8,134.34L1067.8,147.94" style="fill:none;stroke:#1FD3AC" />
<path d="M1065.3,134.34L1070.3,134.34" style="fill:none;stroke:#1FD3AC" />
<path d="M1065.3,147.94L1070.3,147.94" style="fill:none;stroke:#1FD3AC" />
<path d="M1071.4,133.87L1071.4,147.34" style="fill:none;stroke:#1FD3AC" />
<path d="M1068.9,133.87L1073.9,133.87" style="fill:none;stroke:#1FD3AC" />
<path d="M1068.9,147.34L1073.9,147.34" style="fill:none;stroke:#1FD3AC" />
<path d="M1075,133.74L1075,147.41" style="fill:none;stroke:#1FD3AC" />
<path d="M1072.5,133.74L1077.5,133.74" style="fill:none;stroke:#1FD3AC" />
<path d="M1072.5,147.41L1077.5,147.41" style="fill:none;stroke:#1FD3AC" />
<path d="M186.19,148.5A5,5 0 1 1 176.19,148.5A5,5 0 1 1 186.19,148.5Z" style="fill:#1FD3AC" />
<path d="M189.81,147.67A5,5 0 1 1 179.81,147.67A5,5 0 1 1 189.81,147.67Z" style="fill:#1FD3AC" />
<path d="M193.42,147.89A5,5 0 1 1 183.42,147.89A5,5 0 1 1 193.42,147.89Z" style="fill:#1FD3AC" />
<path d="M197.04,149.4A5,5 0 1 1 187.04,149.4A5,5 0 1 1 197.04,149.4Z" style="fill:#1FD3AC" />
<path d="M200.66,149.98A5,5 0 1 1 190.66,149.98A5,5 0 1 1 200.66,149.98Z" style="fill:#1FD3AC" />
<path d="M204.28,150.98A5,5 0 1 1 194.28,150.98A5,5 0 1 1 204.28,150.98Z" style="fill:#1FD3AC" />
<path d="M207.9,149.13A5,5 0 1 1 197.9,149.13A5,5 0 1 1 207.9,149.13Z" style="fill:#1FD3AC" />
<path d="M211.52,149.87A5,5 0 1 1 201.52,149.87A5,5 0 1 1 211.52,149.87Z" style="fill:#1FD3AC" />
<path d="M215.14,150.8A5,5 0 1 1 205.14,150.8A5,5 0 1 1 215.14,150.8Z" style="fill:#1FD3AC" />
<path d="M218.76,149.82A5,5 0 1 1 208.76,149.82A5,5 0 1 1 218.76,149.82Z" style="fill:#1FD3AC" />
<path d="M222.37,150.81A5,5 0 1 1 212.37,150.81A5,5 0 1 1 222.37,150.81Z" style="fill:#1FD3AC" />
<path d="M225.99,148.44A5,5 0 1 1 215.99,148.44A5,5 0 1 1 225.99,148.44Z" style="fill:#1FD3AC" />
<path d="M229.61,150.07A5,5 0 1 1 219.61,150.07A5,5 0 1 1 229.61,150.07Z" style="fill:#1FD3AC" />
<path d="M233.23,150.46A5,5 0 1 1 223.23,150.46A5,5 0 1 1 233.23,150.46Z" style="fill:#1FD3AC" />
<path d="M236.85,148.72A5,5 0 1 1 226.85,148.72A5,5 0 1 1 236.85,148.72Z" style="fill:#1FD3AC" />
<path d="M240.47,148.82A5,5 0 1 1 230.47,148.82A5,5 0 1 1 240.47,148.82Z" style="fill:#1FD3AC" />
<path d="M244.09,149.99A5,5 0 1 1 234.09,149.99A5,5 0 1 1 244.09,149.99Z" style="fill:#1FD3AC" />
<path d="M247.7,146.75A5,5 0 1 1 237.7,146.75A5,5 0 1 1 247.7,146.75Z" style="fill:#1FD3AC" />
<path d="M251.32,144.65A5,5 0 1 1 241.32,144.65A5,5 0 1 1 251.32,144.65Z" style="fill:#1FD3AC" />
<path d="M254.94,145.44A5,5 0 1 1 244.94,145.44A5,5 0 1 1 254.94,145.44Z" style="fill:#1FD3AC" />
<path d="M258.56,144.91A5,5 0 1 1 248.56,144.91A5,5 0 1 1 258.56,144.91Z" style="fill:#1FD3AC" />
<path d="M262.18,143.93A5,5 0 1 1 252.18,143.93A5,5 0 1 1 262.18,143.93Z" style="fill:#1FD3AC" />
<path d="M265.8,144.27A5,5 0 1 1 255.8,144.27A5,5 0 1 1 265.8,144.27Z" style="fill:#1FD3AC" />
<path d="M269.42,146.72A5,5 0 1 1 259.42,146.72A5,5 0 1 1 269.42,146.72Z" style="fill:#1FD3AC" />
<path d="M273.04,146.16A5,5 0 1 1 263.04,146.16A5,5 0 1 1 273.04,146.16Z" style="fill:#1FD3AC" />
<path d="M276.65,147.69A5,5 0 1 1 266.65,147.69A5,5 0 1 1 276.65,147.69Z" style="fill:#1FD3AC" />
<path d="M280.27,147.01A5,5 0 1 1 270.27,147.01A5,5 0 1 1 280.27,147.01Z" style="fill:#1FD3AC" />
<path d="M283.89,144.77A5,5 0 1 1 273.89,144.77A5,5 0 1 1 283.89,144.77Z" style="fill:#1FD3AC" />
<path d="M287.51,144.7A5,5 0 1 1 277.51,144.7A5,5 0 1 1 287.51,144.7Z" style="fill:#1FD3AC" />
<path d="M291.13,147.41A5,5 0 1 1 281.13,147.41A5,5 0 1 1 291.13,147.41Z" style="fill:#1FD3AC" />
<path d="M294.75,149.48A5,5 0 1 1 284.75,149.48A5,5 0 1 1 294.75,149.48Z" style="fill:#1FD3AC" />
<path d="M298.37,147.42A5,5 0 1 1 288.37,147.42A5,5 0 1 1 298.37,147.42Z" style="fill:#1FD3AC" />
<path d="M301.99,145.83A5,5 0 1 1 291.99,145.83A5,5 0 1 1 301.99,145.83Z" style="fill:#1FD3AC" />
<path d="M305.6,146.81A5,5 0 1 1 295.6,146.81A5,5 0 1 1 305.6,146.81Z" style="fill:#1FD3AC" />
<path d="M309.22,146.62A5,5 0 1 1 299.22,146.62A5,5 0 1 1 309.22,146.62Z" style="fill:#1FD3AC" />
<path d="M312.84,148.28A5,5 0 1 1 302.84,148.28A5,5 0 1 1 312.84,148.28Z" style="fill:#1FD3AC" />
<path d="M316.46,148.64A5,5 0 1 1 306.46,148.64A5,5 0 1 1 316.46,148.64Z" style="fill:#1FD3AC" />
<path d="M320.08,148.1A5,5 0 1 1 310.08,148.1A5,5 0 1 1 320.08,148.1Z" style="fill:#1FD3AC" />
<path d="M323.7,147.42A5,5 0 1 1 313.7,147.42A5,5 0 1 1 323.7,147.42Z" style="fill:#1FD3AC" />
<path d="M327.32,147.41A5,5 0 1 1 317.32,147.41A5,5 0 1 1 327.32,147.41Z" style="fill:#1FD3AC" />
<path d="M330.93,147.7A5,5 0 1 1 320.93,147.7A5,5 0 1 1 330.93,147.7Z" style="fill:#1FD3AC" />
<path d="M334.55,149.69A5,5 0 1 1 324.55,149.69A5,5 0 1 1 334.55,149.69Z" style="fill:#1FD3AC" />
<path d="M338.17,149.23A5,5 0 1 1 328.17,149.23A5,5 0 1 1 338.17,149.23Z" style="fill:#1FD3AC" />
<path d="M341.79,146.24A5,5 0 1 1 331.79,146.24A5,5 0 1 1 341.79,146.24Z" style="fill:#1FD3AC" />
<path d="M345.41,148.04A5,5 0 1 1 335.41,148.04A5,5 0 1 1 345.41,148.04Z" style="fill:#1FD3AC" />
<path d="M349.03,149.18A5,5 0 1 1 339.03,149.18A5,5 0 1 1 349.03,149.18Z" style="fill:#1FD3AC" />
<path d="M352.65,150.11A5,5 0 1 1 342.65,150.11A5,5 0 1 1 352.65,150.11Z" style="fill:#1FD3AC" />
<path d="M356.27,150.76A5,5 0 1 1 346.27,150.76A5,5 0 1 1 356.27,150.76Z" style="fill:#1FD3AC" />
<path d="M359.88,150.99A5,5 0 1 1 349.88,150.99A5,5 0 1 1 359.88,150.99Z" style="fill:#1FD3AC" />
<path d="M363.5,150.78A5,5 0 1 1 353.5,150.78A5,5 0 1 1 363.5,150.78Z" style="fill:#1FD3AC" />
<path d="M367.12,150.84A5,5 0 1 1 357.12,150.84A5,5 0 1 1 367.12,150.84Z" style="fill:#1FD3AC" />
<path d="M370.74,151.57A5,5 0 1 1 360.74,151.57A5,5 0 1 1 370.74,151.57Z" style="fill:#1FD3AC" />
<path d="M374.36,153.36A5,5 0 1 1 364.36,153.36A5,5 0 1 1 374.36,153.36Z" style="fill:#1FD3AC" />
<path d="M377.98,152.59A5,5 0 1 1 367.98,152.59A5,5 0 1 1 377.98,152.59Z" style="fill:#1FD3AC" />
<path d="M381.6,151.63A5,5 0 1 1 371.6,151.63A5,5 0 1 1 381.6,151.63Z" style="fill:#1FD3AC" />
<path d="M385.21,153.03A5,5 0 1 1 375.21,153.03A5,5 0 1 1 385.21,153.03Z" style="fill:#1FD3AC" />
<path d="M388.83,156.26A5,5 0 1 1 378.83,156.26A5,5 0 1 1 388.83,156.26Z" style="fill:#1FD3AC" />
<path d="M392.45,159.24A5,5 0 1 1 382.45,159.24A5,5 0 1 1 392.45,159.24Z" style="fill:#1FD3AC" />
<path d="M396.07,155.01A5,5 0 1 1 386.07,155.01A5,5 0 1 1 396.07,155.01Z" style="fill:#1FD3AC" />
<path d="M399.69,157.07A5,5 0 1 1 389.69,157.07A5,5 0 1 1 399.69,157.07Z" style="fill:#1FD3AC" />
<path d="M403.31,158.99A5,5 0 1 1 393.31,158.99A5,5 0 1 1 403.31,158.99Z" style="fill:#1FD3AC" />
<path d="M406.93,158.54A5,5 0 1 1 396.93,158.54A5,5 0 1 1 406.93,158.54Z" style="fill:#1FD3AC" />
<path d="M410.55,156.62A5,5 0 1 1 400.55,156.62A5,5 0 1 1 410.55,156.62Z" style="fill:#1FD3AC" />
<path d="M414.16,159.93A5,5 0 1 1 404.16,159.93A5,5 0 1 1 414.16,159.93Z" style="fill:#1FD3AC" />
<path d="M417.78,162.35A5,5 0 1 1 407.78,162.35A5,5 0 1 1 417.78,162.35Z" style="fill:#1FD3AC" />
<path d="M421.4,164.82A5,5 0 1 1 411.4,164.82A5,5 0 1 1 421.4,164.82Z" style="fill:#1FD3AC" />
<path d="M425.02,164.59A5,5 0 1 1 415.02,164.59A5,5 0 1 1 425.02,164.59Z" style="fill:#1FD3AC" />
<path d="M428.64,168.11A5,5 0 1 1 418.64,168.11A5,5 0 1 1 428.64,168.11Z" style="fill:#1FD3AC" />
<path d="M432.26,173.7A5,5 0 1 1 422.26,173.7A5,5 0 1 1 432.26,173.7Z" style="fill:#1FD3AC" />
<path d="M435.88,173.16A5,5 0 1 1 425.88,173.16A5,5 0 1 1 435.88,173.16Z" style="fill:#1FD3AC" />
<path d="M439.49,167.8A5,5 0 1 1 429.49,167.8A5,5 0 1 1 439.49,167.8Z" style="fill:#1FD3AC" />
<path d="M443.11,166.27A5,5 0 1 1 433.11,166.27A5,5 0 1 1 443.11,166.27Z" style="fill:#1FD3AC" />
<path d="M446.73,170.44A5,5 0 1 1 436.73,170.44A5,5 0 1 1 446.73,170.44Z" style="fill:#1FD3AC" />
<path d="M450.35,175.23A5,5 0 1 1 440.35,175.23A5,5 0 1 1 450.35,175.23Z" style="fill:#1FD3AC" />
<path d="M453.97,179.76A5,5 0 1 1 443.97,179.76A5,5 0 1 1 453.97,179.76Z" style="fill:#1FD3AC" />
<path d="M457.59,185.85A5,5 0 1 1 447.59,185.85A5,5 0 1 1 457.59,185.85Z" style="fill:#1FD3AC" />
<path d="M461.21,190.95A5,5 0 1 1 451.21,190.95A5,5 0 1 1 461.21,190.95Z" style="fill:#1FD3AC" />
<path d="M464.83,195.62A5,5 0 1 1 454.83,195.62A5,5 0 1 1 464.83,195.62Z" style="fill:#1FD3AC" />
<path d="M468.44,203.66A5,5 0 1 1 458.44,203.66A5,5 0 1 1 468.44,203.66Z" style="fill:#1FD3AC" />
<path d="M472.06,206.14A5,5 0 1 1 462.06,206.14A5,5 0 1 1 472.06,206.14Z" style="fill:#1FD3AC" />
<path d="M475.68,212A5,5 0 1 1 465.68,212A5,5 0 1 1 475.68,212Z" style="fill:#1FD3AC" />
<path d="M479.3,224.1A5,5 0 1 1 469.3,224.1A5,5 0 1 1 479.3,224.1Z" style="fill:#1FD3AC" />
<path d="M482.92,228.13A5,5 0 1 1 472.92,228.13A5,5 0 1 1 482.92,228.13Z" style="fill:#1FD3AC" />
<path d="M486.54,232.27A5,5 0 1 1 476.54,232.27A5,5 0 1 1 486.54,232.27Z" style="fill:#1FD3AC" />
<path d="M490.16,232.92A5,5 0 1 1 480.16,232.92A5,5 0 1 1 490.16,232.92Z" style="fill:#1FD3AC" />
<path d="M493.77,250.31A5,5 0 1 1 483.77,250.31A5,5 0 1 1 493.77,250.31Z" style="fill:#1FD3AC" />
<path d="M497.39,275.54A5,5 0 1 1 487.39,275.54A5,5 0 1 1 497.39,275.54Z" style="fill:#1FD3AC" />
<path d="M501.01,313.58A5,5 0 1 1 491.01,313.58A5,5 0 1 1 501.01,313.58Z" style="fill:#1FD3AC" />
<path d="M504.63,324.74A5,5 0 1 1 494.63,324.74A5,5 0 1 1 504.63,324.74Z" style="fill:#1FD3AC" />
<path d="M508.25,340.66A5,5 0 1 1 498.25,340.66A5,5 0 1 1 508.25,340.66Z" style="fill:#1FD3AC" />
<path d="M511.87,360.25A5,5 0 1 1 501.87,360.25A5,5 0 1 1 511.87,360.25Z" style="fill:#1FD3AC" />
<path d="M515.49,369.82A5,5 0 1 1 505.49,369.82A5,5 0 1 1 515.49,369.82Z" style="fill:#1FD3AC" />
<path d="M519.11,378.11A5,5 0 1 1 509.11,378.11A5,5 0 1 1 519.11,378.11Z" style="fill:#1FD3AC" />
<path d="M522.72,383.65A5,5 0 1 1 512.72,383.65A5,5 0 1 1 522.72,383.65Z" style="fill:#1FD3AC" />
<path d="M526.34,402.06A5,5 0 1 1 516.34,402.06A5,5 0 1 1 526.34,402.06Z" style="fill:#1FD3AC" />
<path d="M529.96,387.83A5,5 0 1 1 519.96,387.83A5,5 0 1 1 529.96,387.83Z" style="fill:#1FD3AC" />
<path d="M533.58,372.24A5,5 0 1 1 523.58,372.24A5,5 0 1 1 533.58,372.24Z" style="fill:#1FD3AC" />
<path d="M537.2,348.38A5,5 0 1 1 527.2,348.38A5,5 0 1 1 537.2,348.38Z" style="fill:#1FD3AC" />
<path d="M540.82,324.72A5,5 0 1 1 530.82,324.72A5,5 0 1 1 540.82,324.72Z" style="fill:#1FD3AC" />
<path d="M544.44,321.46A5,5 0 1 1 534.44,321.46A5,5 0 1 1 544.44,321.46Z" style="fill:#1FD3AC" />
<path d="M548.05,285.29A5,5 0 1 1 538.05,285.29A5,5 0 1 1 548.05,285.29Z" style="fill:#1FD3AC" />
<path d="M551.67,264.27A5,5 0 1 1 541.67,264.27A5,5 0 1 1 551.67,264.27Z" style="fill:#1FD3AC" />
<path d="M555.29,280.5A5,5 0 1 1 545.29,280.5A5,5 0 1 1 555.29,280.5Z" style="fill:#1FD3AC" />
<path d="M558.91,309A5,5 0 1 1 548.91,309A5,5 0 1 1 558.91,309Z" style="fill:#1FD3AC" />
<path d="M562.53,309.41A5,5 0 1 1 552.53,309.41A5,5 0 1 1 562.53,309.41Z" style="fill:#1FD3AC" />
<path d="M566.15,322.74A5,5 0 1 1 556.15,322.74A5,5 0 1 1 566.15,322.74Z" style="fill:#1FD3AC" />
<path d="M569.77,361.66A5,5 0 1 1 559.77,361.66A5,5 0 1 1 569.77,361.66Z" style="fill:#1FD3AC" />
<path d="M573.39,397.17A5,5 0 1 1 563.39,397.17A5,5 0 1 1 573.39,397.17Z" style="fill:#1FD3AC" />
<path d="M577,447.02A5,5 0 1 1 567,447.02A5,5 0 1 1 577,447.02Z" style="fill:#1FD3AC" />
<path d="M580.62,503.29A5,5 0 1 1 570.62,503.29A5,5 0 1 1 580.62,503.29Z" style="fill:#1FD3AC" />
<path d="M584.24,573.1A5,5 0 1 1 574.24,573.1A5,5 0 1 1 584.24,573.1Z" style="fill:#1FD3AC" />
<path d="M587.86,640.74A5,5 0 1 1 577.86,640.74A5,5 0 1 1 587.86,640.74Z" style="fill:#1FD3AC" />
<path d="M591.48,724.61A5,5 0 1 1 581.48,724.61A5,5 0 1 1 591.48,724.61Z" style="fill:#1FD3AC" />
<path d="M595.1,782.41A5,5 0 1 1 585.1,782.41A5,5 0 1 1 595.1,782.41Z" style="fill:#1FD3AC" />
<path d="M598.72,789.08A5,5 0 1 1 588.72,789.08A5,5 0 1 1 598.72,789.08Z" style="fill:#1FD3AC" />
<path d="M602.34,780.48A5,5 0 1 1 592.34,780.48A5,5 0 1 1 602.34,780.48Z" style="fill:#1FD3AC" />
<path d="M605.95,757.12A5,5 0 1 1 595.95,757.12A5,5 0 1 1 605.95,757.12Z" style="fill:#1FD3AC" />
<path d="M609.57,717.72A5,5 0 1 1 599.57,717.72A5,5 0 1 1 609.57,717.72Z" style="fill:#1FD3AC" />
<path d="M613.19,759.67A5,5 0 1 1 603.19,759.67A5,5 0 1 1 613.19,759.67Z" style="fill:#1FD3AC" />
<path d="M616.81,722.97A5,5 0 1 1 606.81,722.97A5,5 0 1 1 616.81,722.97Z" style="fill:#1FD3AC" />
<path d="M620.43,626.48A5,5 0 1 1 610.43,626.48A5,5 0 1 1 620.43,626.48Z" style="fill:#1FD3AC" />
<path d="M624.05,517.74A5,5 0 1 1 614.05,517.74A5,5 0 1 1 624.05,517.74Z" style="fill:#1FD3AC" />
<path d="M627.67,406.91A5,5 0 1 1 617.67,406.91A5,5 0 1 1 627.67,406.91Z" style="fill:#1FD3AC" />
<path d="M631.28,312.87A5,5 0 1 1 621.28,312.87A5,5 0 1 1 631.28,312.87Z" style="fill:#1FD3AC" />
<path d="M634.9,310.19A5,5 0 1 1 624.9,310.19A5,5 0 1 1 634.9,310.19Z" style="fill:#1FD3AC" />
<path d="M638.52,391.82A5,5 0 1 1 628.52,391.82A5,5 0 1 1 638.52,391.82Z" style="fill:#1FD3AC" />
<path d="M642.14,451.45A5,5 0 1 1 632.14,451.45A5,5 0 1 1 642.14,451.45Z" style="fill:#1FD3AC" />
<path d="M645.76,506.68A5,5 0 1 1 635.76,506.68A5,5 0 1 1 645.76,506.68Z" style="fill:#1FD3AC" />
<path d="M649.38,531.08A5,5 0 1 1 639.38,531.08A5,5 0 1 1 649.38,531.08Z" style="fill:#1FD3AC" />
<path d="M653,553.38A5,5 0 1 1 643,553.38A5,5 0 1 1 653,553.38Z" style="fill:#1FD3AC" />
<path d="M656.62,549.07A5,5 0 1 1 646.62,549.07A5,5 0 1 1 656.62,549.07Z" style="fill:#1FD3AC" />
<path d="M660.23,557.36A5,5 0 1 1 650.23,557.36A5,5 0 1 1 660.23,557.36Z" style="fill:#1FD3AC" />
<path d="M663.85,550.43A5,5 0 1 1 653.85,550.43A5,5 0 1 1 663.85,550.43Z" style="fill:#1FD3AC" />
<path d="M667.47,530.56A5,5 0 1 1 657.47,530.56A5,5 0 1 1 667.47,530.56Z" style="fill:#1FD3AC" />
<path d="M671.09,509.26A5,5 0 1 1 661.09,509.26A5,5 0 1 1 671.09,509.26Z" style="fill:#1FD3AC" />
<path d="M674.71,454.86A5,5 0 1 1 664.71,454.86A5,5 0 1 1 674.71,454.86Z" style="fill:#1FD3AC" />
<path d="M678.33,419.43A5,5 0 1 1 668.33,419.43A5,5 0 1 1 678.33,419.43Z" style="fill:#1FD3AC" />
<path d="M681.95,391.39A5,5 0 1 1 671.95,391.39A5,5 0 1 1 681.95,391.39Z" style="fill:#1FD3AC" />
<path d="M685.56,364.15A5,5 0 1 1 675.56,364.15A5,5 0 1 1 685.56,364.15Z" style="fill:#1FD3AC" />
<path d="M689.18,335.32A5,5 0 1 1 679.18,335.32A5,5 0 1 1 689.18,335.32Z" style="fill:#1FD3AC" />
<path d="M692.8,323.49A5,5 0 1 1 682.8,323.49A5,5 0 1 1 692.8,323.49Z" style="fill:#1FD3AC" />
<path d="M696.42,307.7A5,5 0 1 1 686.42,307.7A5,5 0 1 1 696.42,307.7Z" style="fill:#1FD3AC" />
<path d="M700.04,300.67A5,5 0 1 1 690.04,300.67A5,5 0 1 1 700.04,300.67Z" style="fill:#1FD3AC" />
<path d="M703.66,292.26A5,5 0 1 1 693.66,292.26A5,5 0 1 1 703.66,292.26Z" style="fill:#1FD3AC" />
<path d="M707.28,276.23A5,5 0 1 1 697.28,276.23A5,5 0 1 1 707.28,276.23Z" style="fill:#1FD3AC" />
<path d="M710.9,272.98A5,5 0 1 1 700.9,272.98A5,5 0 1 1 710.9,272.98Z" style="fill:#1FD3AC" />
<path d="M714.51,258.97A5,5 0 1 1 704.51,258.97A5,5 0 1 1 714.51,258.97Z" style="fill:#1FD3AC" />
<path d="M718.13,249.47A5,5 0 1 1 708.13,249.47A5,5 0 1 1 718.13,249.47Z" style="fill:#1FD3AC" />
<path d="M721.75,250.14A5,5 0 1 1 711.75,250.14A5,5 0 1 1 721.75,250.14Z" style="fill:#1FD3AC" />
<path d="M725.37,237.68A5,5 0 1 1 715.37,237.68A5,5 0 1 1 725.37,237.68Z" style="fill:#1FD3AC" />
<path d="M728.99,223.34A5,5 0 1 1 718.99,223.34A5,5 0 1 1 728.99,223.34Z" style="fill:#1FD3AC" />
<path d="M732.61,212.29A5,5 0 1 1 722.61,212.29A5,5 0 1 1 732.61,212.29Z" style="fill:#1FD3AC" />
<path d="M736.23,206.48A5,5 0 1 1 726.23,206.48A5,5 0 1 1 736.23,206.48Z" style="fill:#1FD3AC" />
<path d="M739.84,200.91A5,5 0 1 1 729.84,200.91A5,5 0 1 1 739.84,200.91Z" style="fill:#1FD3AC" />
<path d="M743.46,196.79A5,5 0 1 1 733.46,196.79A5,5 0 1 1 743.46,196.79Z" style="fill:#1FD3AC" />
<path d="M747.08,194.31A5,5 0 1 1 737.08,194.31A5,5 0 1 1 747.08,194.31Z" style="fill:#1FD3AC" />
<path d="M750.7,191.36A5,5 0 1 1 740.7,191.36A5,5 0 1 1 750.7,191.36Z" style="fill:#1FD3AC" />
<path d="M754.32,190.75A5,5 0 1 1 744.32,190.75A5,5 0 1 1 754.32,190.75Z" style="fill:#1FD3AC" />
<path d="M757.94,184.4A5,5 0 1 1 747.94,184.4A5,5 0 1 1 757.94,184.4Z" style="fill:#1FD3AC" />
<path d="M761.56,179.32A5,5 0 1 1 751.56,179.32A5,5 0 1 1 761.56,179.32Z" style="fill:#1FD3AC" />
<path d="M765.18,177.03A5,5 0 1 1 755.18,177.03A5,5 0 1 1 765.18,177.03Z" style="fill:#1FD3AC" />
<path d="M768.79,172.95A5,5 0 1 1 758.79,172.95A5,5 0 1 1 768.79,172.95Z" style="fill:#1FD3AC" />
<path d="M772.41,170.05A5,5 0 1 1 762.41,170.05A5,5 0 1 1 772.41,170.05Z" style="fill:#1FD3AC" />
<path d="M776.03,168.7A5,5 0 1 1 766.03,168.7A5,5 0 1 1 776.03,168.7Z" style="fill:#1FD3AC" />
<path d="M779.65,165.16A5,5 0 1 1 769.65,165.16A5,5 0 1 1 779.65,165.16Z" style="fill:#1FD3AC" />
<path d="M783.27,164.98A5,5 0 1 1 773.27,164.98A5,5 0 1 1 783.27,164.98Z" style="fill:#1FD3AC" />
<path d="M786.89,160.89A5,5 0 1 1 776.89,160.89A5,5 0 1 1 786.89,160.89Z" style="fill:#1FD3AC" />
<path d="M790.51,158.93A5,5 0 1 1 780.51,158.93A5,5 0 1 1 790.51,158.93Z" style="fill:#1FD3AC" />
<path d="M794.12,157.15A5,5 0 1 1 784.12,157.15A5,5 0 1 1 794.12,157.15Z" style="fill:#1FD3AC" />
<path d="M797.74,158.72A5,5 0 1 1 787.74,158.72A5,5 0 1 1 797.74,158.72Z" style="fill:#1FD3AC" />
<path d="M801.36,155.57A5,5 0 1 1 791.36,155.57A5,5 0 1 1 801.36,155.57Z" style="fill:#1FD3AC" />
<path d="M804.98,156.23A5,5 0 1 1 794.98,156.23A5,5 0 1 1 804.98,156.23Z" style="fill:#1FD3AC" />
<path d="M808.6,152.61A5,5 0 1 1 798.6,152.61A5,5 0 1 1 808.6,152.61Z" style="fill:#1FD3AC" />
<path d="M812.22,151A5,5 0 1 1 802.22,151A5,5 0 1 1 812.22,151Z" style="fill:#1FD3AC" />
<path d="M815.84,151.12A5,5 0 1 1 805.84,151.12A5,5 0 1 1 815.84,151.12Z" style="fill:#1FD3AC" />
<path d="M819.46,150.14A5,5 0 1 1 809.46,150.14A5,5 0 1 1 819.46,150.14Z" style="fill:#1FD3AC" />
<path d="M823.07,150.86A5,5 0 1 1 813.07,150.86A5,5 0 1 1 823.07,150.86Z" style="fill:#1FD3AC" />
<path d="M826.69,150.87A5,5 0 1 1 816.69,150.87A5,5 0 1 1 826.69,150.87Z" style="fill:#1FD3AC" />
<path d="M830.31,150.78A5,5 0 1 1 820.31,150.78A5,5 0 1 1 830.31,150.78Z" style="fill:#1FD3AC" />
<path d="M833.93,150.95A5,5 0 1 1 823.93,150.95A5,5 0 1 1 833.93,150.95Z" style="fill:#1FD3AC" />
<path d="M837.55,151.34A5,5 0 1 1 827.55,151.34A5,5 0 1 1 837.55,151.34Z" style="fill:#1FD3AC" />
<path d="M841.17,152.68A5,5 0 1 1 831.17,152.68A5,5 0 1 1 841.17,152.68Z" style="fill:#1FD3AC" />
<path d="M844.79,152.63A5,5 0 1 1 834.79,152.63A5,5 0 1 1 844.79,152.63Z" style="fill:#1FD3AC" />
<path d="M848.4,153.56A5,5 0 1 1 838.4,153.56A5,5 0 1 1 848.4,153.56Z" style="fill:#1FD3AC" />
<path d="M852.02,153A5,5 0 1 1 842.02,153A5,5 0 1 1 852.02,153Z" style="fill:#1FD3AC" />
<path d="M855.64,151.46A5,5 0 1 1 845.64,151.46A5,5 0 1 1 855.64,151.46Z" style="fill:#1FD3AC" />
<path d="M859.26,152.85A5,5 0 1 1 849.26,152.85A5,5 0 1 1 859.26,152.85Z" style="fill:#1FD3AC" />
<path d="M862.88,150.83A5,5 0 1 1 852.88,150.83A5,5 0 1 1 862.88,150.83Z" style="fill:#1FD3AC" />
<path d="M866.5,152.77A5,5 0 1 1 856.5,152.77A5,5 0 1 1 866.5,152.77Z" style="fill:#1FD3AC" />
<path d="M870.12,151.06A5,5 0 1 1 860.12,151.06A5,5 0 1 1 870.12,151.06Z" style="fill:#1FD3AC" />
<path d="M873.74,151.35A5,5 0 1 1 863.74,151.35A5,5 0 1 1 873.74,151.35Z" style="fill:#1FD3AC" />
<path d="M877.35,151.57A5,5 0 1 1 867.35,151.57A5,5 0 1 1 877.35,151.57Z" style="fill:#1FD3AC" />
<path d="M880.97,150.8A5,5 0 1 1 870.97,150.8A5,5 0 1 1 880.97,150.8Z" style="fill:#1FD3AC" />
<path d="M884.59,149.06A5,5 0 1 1 874.59,149.06A5,5 0 1 1 884.59,149.06Z" style="fill:#1FD3AC" />
<path d="M888.21,147.37A5,5 0 1 1 878.21,147.37A5,5 0 1 1 888.21,147.37Z" style="fill:#1FD3AC" />
<path d="M891.83,147.78A5,5 0 1 1 881.83,147.78A5,5 0 1 1 891.83,147.78Z" style="fill:#1FD3AC" />
<path d="M895.45,148.07A5,5 0 1 1 885.45,148.07A5,5 0 1 1 895.45,148.07Z" style="fill:#1FD3AC" />
<path d="M899.07,149.51A5,5 0 1 1 889.07,149.51A5,5 0 1 1 899.07,149.51Z" style="fill:#1FD3AC" />
<path d="M902.68,148.11A5,5 0 1 1 892.68,148.11A5,5 0 1 1 902.68,148.11Z" style="fill:#1FD3AC" />
<path d="M906.3,146.81A5,5 0 1 1 896.3,146.81A5,5 0 1 1 906.3,146.81Z" style="fill:#1FD3AC" />
<path d="M909.92,148.75A5,5 0 1 1 899.92,148.75A5,5 0 1 1 909.92,148.75Z" style="fill:#1FD3AC" />
<path d="M913.54,147.35A5,5 0 1 1 903.54,147.35A5,5 0 1 1 913.54,147.35Z" style="fill:#1FD3AC" />
<path d="M917.16,147.65A5,5 0 1 1 907.16,147.65A5,5 0 1 1 917.16,147.65Z" style="fill:#1FD3AC" />
<path d="M920.78,145.67A5,5 0 1 1 910.78,145.67A5,5 0 1 1 920.78,145.67Z" style="fill:#1FD3AC" />
<path d="M924.4,147.36A5,5 0 1 1 914.4,147.36A5,5 0 1 1 924.4,147.36Z" style="fill:#1FD3AC" />
<path d="M928.02,146.12A5,5 0 1 1 918.02,146.12A5,5 0 1 1 928.02,146.12Z" style="fill:#1FD3AC" />
<path d="M931.63,144.62A5,5 0 1 1 921.63,144.62A5,5 0 1 1 931.63,144.62Z" style="fill:#1FD3AC" />
<path d="M935.25,144.94A5,5 0 1 1 925.25,144.94A5,5 0 1 1 935.25,144.94Z" style="fill:#1FD3AC" />
<path d="M938.87,145.01A5,5 0 1 1 928.87,145.01A5,5 0 1 1 938.87,145.01Z" style="fill:#1FD3AC" />
<path d="M942.49,145.24A5,5 0 1 1 932.49,145.24A5,5 0 1 1 942.49,145.24Z" style="fill:#1FD3AC" />
<path d="M946.11,144.74A5,5 0 1 1 936.11,144.74A5,5 0 1 1 946.11,144.74Z" style="fill:#1FD3AC" />
<path d="M949.73,145.18A5,5 0 1 1 939.73,145.18A5,5 0 1 1 949.73,145.18Z" style="fill:#1FD3AC" />
<path d="M953.35,144.92A5,5 0 1 1 943.35,144.92A5,5 0 1 1 953.35,144.92Z" style="fill:#1FD3AC" />
<path d="M956.97,144.24A5,5 0 1 1 946.97,144.24A5,5 0 1 1 956.97,144.24Z" style="fill:#1FD3AC" />
<path d="M960.58,144.17A5,5 0 1 1 950.58,144.17A5,5 0 1 1 960.58,144.17Z" style="fill:#1FD3AC" />
<path d="M964.2,143.01A5,5 0 1 1 954.2,143.01A5,5 0 1 1 964.2,143.01Z" style="fill:#1FD3AC" />
<path d="M967.82,142.36A5,5 0 1 1 957.82,142.36A5,5 0 1 1 967.82,142.36Z" style="fill:#1FD3AC" />
<path d="M971.44,143.14A5,5 0 1 1 961.44,143.14A5,5 0 1 1 971.44,143.14Z" style="fill:#1FD3AC" />
<path d="M975.06,143.59A5,5 0 1 1 965.06,143.59A5,5 0 1 1 975.06,143.59Z" style="fill:#1FD3AC" />
<path d="M978.68,141.32A5,5 0 1 1 968.68,141.32A5,5 0 1 1 978.68,141.32Z" style="fill:#1FD3AC" />
<path d="M982.3,141.15A5,5 0 1 1 972.3,141.15A5,5 0 1 1 982.3,141.15Z" style="fill:#1FD3AC" />
<path d="M985.91,141.47A5,5 0 1 1 975.91,141.47A5,5 0 1 1 985.91,141.47Z" style="fill:#1FD3AC" />
<path d="M989.53,140.02A5,5 0 1 1 979.53,140.02A5,5 0 1 1 989.53,140.02Z" style="fill:#1FD3AC" />
<path d="M993.15,140.06A5,5 0 1 1 983.15,140.06A5,5 0 1 1 993.15,140.06Z" style="fill:#1FD3AC" />
<path d="M996.77,138.39A5,5 0 1 1 986.77,138.39A5,5 0 1 1 996.77,138.39Z" style="fill:#1FD3AC" />
<path d="M1000.4,140.58A5,5 0 1 1 990.39,140.58A5,5 0 1 1 1000.4,140.58Z" style="fill:#1FD3AC" />
<path d="M1004,138.97A5,5 0 1 1 994.01,138.97A5,5 0 1 1 1004,138.97Z" style="fill:#1FD3AC" />
<path d="M1007.6,139.39A5,5 0 1 1 997.63,139.39A5,5 0 1 1 1007.6,139.39Z" style="fill:#1FD3AC" />
<path d="M1011.2,139.01A5,5 0 1 1 1001.2,139.01A5,5 0 1 1 1011.2,139.01Z" style="fill:#1FD3AC" />
<path d="M1014.9,139.26A5,5 0 1 1 1004.9,139.26A5,5 0 1 1 1014.9,139.26Z" style="fill:#1FD3AC" />
<path d="M1018.5,140.36A5,5 0 1 1 1008.5,140.36A5,5 0 1 1 1018.5,140.36Z" style="fill:#1FD3AC" />
<path d="M1022.1,139.74A5,5 0 1 1 1012.1,139.74A5,5 0 1 1 1022.1,139.74Z" style="fill:#1FD3AC" />
<path d="M1025.7,138.9A5,5 0 1 1 1015.7,138.9A5,5 0 1 1 1025.7,138.9Z" style="fill:#1FD3AC" />
<path d="M1029.3,140.31A5,5 0 1 1 1019.3,140.31A5,5 0 1 1 1029.3,140.31Z" style="fill:#1FD3AC" />
<path d="M1033,139.83A5,5 0 1 1 1023,139.83A5,5 0 1 1 1033,139.83Z" style="fill:#1FD3AC" />
<path d="M1036.6,140.43A5,5 0 1 1 1026.6,140.43A5,5 0 1 1 1036.6,140.43Z" style="fill:#1FD3AC" />
<path d="M1040.2,139.86A5,5 0 1 1 1030.2,139.86A5,5 0 1 1 1040.2,139.86Z" style="fill:#1FD3AC" />
<path d="M1043.8,140.3A5,5 0 1 1 1033.8,140.3A5,5 0 1 1 1043.8,140.3Z" style="fill:#1FD3AC" />
<path d="M1047.4,140.23A5,5 0 1 1 1037.4,140.23A5,5 0 1 1 1047.4,140.23Z" style="fill:#1FD3AC" />
<path d="M1051.1,140.59A5,5 0 1 1 1041.1,140.59A5,5 0 1 1 1051.1,140.59Z" style="fill:#1FD3AC" />
<path d="M1054.7,141.02A5,5 0 1 1 1044.7,141.02A5,5 0 1 1 1054.7,141.02Z" style="fill:#1FD3AC" />
<path d="M1058.3,141.12A5,5 0 1 1 1048.3,141.12A5,5 0 1 1 1058.3,141.12Z" style="fill:#1FD3AC" />
<path d="M1061.9,140.65A5,5 0 1 1 1051.9,140.65A5,5 0 1 1 1061.9,140.65Z" style="fill:#1FD3AC" />
<path d="M1065.5,139.94A5,5 0 1 1 1055.5,139.94A5,5 0 1 1 1065.5,139.94Z" style="fill:#1FD3AC" />
<path d="M1069.1,141.85A5,5 0 1 1 1059.1,141.85A5,5 0 1 1 1069.1,141.85Z" style="fill:#1FD3AC" />
<path d="M1072.8,141.14A5,5 0 1 1 1062.8,141.14A5,5 0 1 1 1072.8,141.14Z" style="fill:#1FD3AC" />
<path d="M1076.4,140.61A5,5 0 1 1 1066.4,140.61A5,5 0 1 1 1076.4,140.61Z" style="fill:#1FD3AC" />
<path d="M1080,140.58A5,5 0 1 1 1070,140.58A5,5 0 1 1 1080,140.58Z" style="fill:#1FD3AC" />
<path d="M181.19,974.14L1075,974.14" style="fill:none;stroke:#000000" />
<path d="M1075,108.82L1075,974.14" style="fill:none;stroke:#000000" />
<path d="M1013,927.49A8,8 0 1 1 997,927.49A8,8 0 1 1 1013,927.49Z" style="fill:#1FD3AC" />
<text x="598.72" y="-920.9" transform="scale(1, -1)"
	style="font-family:Helvetica;font-weight:normal;font-style:normal;font-size:28px">pak1chip3-20um4 5 GHz P-Pr</text>
</g>
</svg>
