<?xml version="1.0"?>
<!-- Generated by SVGo and Plotinum VG -->
<svg width="1080pt" height="1080pt" viewBox="0 0 1080 1080"
	xmlns="http://www.w3.org/2000/svg"
	xmlns:xlink="http://www.w3.org/1999/xlink">
<g transform="scale(1, -1) translate(0, -1080)">
<path d="M0,0L1080,0L1080,1080L0,1080Z" style="fill:#-8000000000000000-8000000000000000-8000000000000000;fill-opacity:0" />
<text x="-1.9434" y="-1039.5" transform="scale(1, -1)"
	style="font-family:Helvetica;font-weight:normal;font-style:normal;font-size:50px">Peak Scattered Power vs. Pump-Probe Detuning</text>
<text x="342.96" y="-11.039" transform="scale(1, -1)"
	style="font-family:Helvetica;font-weight:normal;font-style:normal;font-size:36px">Pump-Probe Detuning (GHz)</text>
<path d="M71.098,60.969L1077,60.969" style="fill:none;stroke:#000000;stroke-width:1.5" />
<g transform="rotate(90)">
<text x="341.81" y="29.18" transform="scale(1, -1)"
	style="font-family:Helvetica;font-weight:normal;font-style:normal;font-size:36px">Scattered Power (pW)</text>
</g>
<path d="M67.848,63.595L67.848,974.14" style="fill:none;stroke:#000000;stroke-width:1.5" />
<path d="M74.098,822.38A3,3 0 1 1 68.098,822.38A3,3 0 1 1 74.098,822.38Z" style="fill:#FF0000" />
<path d="M88.676,534.28A3,3 0 1 1 82.676,534.28A3,3 0 1 1 88.676,534.28Z" style="fill:#FF0000" />
<path d="M103.25,327.53A3,3 0 1 1 97.254,327.53A3,3 0 1 1 103.25,327.53Z" style="fill:#FF0000" />
<path d="M117.83,180.53A3,3 0 1 1 111.83,180.53A3,3 0 1 1 117.83,180.53Z" style="fill:#FF0000" />
<path d="M132.41,97.283A3,3 0 1 1 126.41,97.283A3,3 0 1 1 132.41,97.283Z" style="fill:#FF0000" />
<path d="M146.99,64.913A3,3 0 1 1 140.99,64.913A3,3 0 1 1 146.99,64.913Z" style="fill:#FF0000" />
<path d="M161.57,73.059A3,3 0 1 1 155.57,73.059A3,3 0 1 1 161.57,73.059Z" style="fill:#FF0000" />
<path d="M176.15,110.26A3,3 0 1 1 170.15,110.26A3,3 0 1 1 176.15,110.26Z" style="fill:#FF0000" />
<path d="M190.72,165.35A3,3 0 1 1 184.72,165.35A3,3 0 1 1 190.72,165.35Z" style="fill:#FF0000" />
<path d="M205.3,231.64A3,3 0 1 1 199.3,231.64A3,3 0 1 1 205.3,231.64Z" style="fill:#FF0000" />
<path d="M219.88,291.61A3,3 0 1 1 213.88,291.61A3,3 0 1 1 219.88,291.61Z" style="fill:#FF0000" />
<path d="M234.46,346.46A3,3 0 1 1 228.46,346.46A3,3 0 1 1 234.46,346.46Z" style="fill:#FF0000" />
<path d="M249.04,390.54A3,3 0 1 1 243.04,390.54A3,3 0 1 1 249.04,390.54Z" style="fill:#FF0000" />
<path d="M263.62,411.4A3,3 0 1 1 257.62,411.4A3,3 0 1 1 263.62,411.4Z" style="fill:#FF0000" />
<path d="M278.19,421.87A3,3 0 1 1 272.19,421.87A3,3 0 1 1 278.19,421.87Z" style="fill:#FF0000" />
<path d="M292.77,410.71A3,3 0 1 1 286.77,410.71A3,3 0 1 1 292.77,410.71Z" style="fill:#FF0000" />
<path d="M307.35,385.81A3,3 0 1 1 301.35,385.81A3,3 0 1 1 307.35,385.81Z" style="fill:#FF0000" />
<path d="M321.93,357.32A3,3 0 1 1 315.93,357.32A3,3 0 1 1 321.93,357.32Z" style="fill:#FF0000" />
<path d="M336.51,312.04A3,3 0 1 1 330.51,312.04A3,3 0 1 1 336.51,312.04Z" style="fill:#FF0000" />
<path d="M351.09,267.31A3,3 0 1 1 345.09,267.31A3,3 0 1 1 351.09,267.31Z" style="fill:#FF0000" />
<path d="M365.66,211.55A3,3 0 1 1 359.66,211.55A3,3 0 1 1 365.66,211.55Z" style="fill:#FF0000" />
<path d="M380.24,166.1A3,3 0 1 1 374.24,166.1A3,3 0 1 1 380.24,166.1Z" style="fill:#FF0000" />
<path d="M394.82,125.62A3,3 0 1 1 388.82,125.62A3,3 0 1 1 394.82,125.62Z" style="fill:#FF0000" />
<path d="M409.4,95.596A3,3 0 1 1 403.4,95.596A3,3 0 1 1 409.4,95.596Z" style="fill:#FF0000" />
<path d="M423.98,75A3,3 0 1 1 417.98,75A3,3 0 1 1 423.98,75Z" style="fill:#FF0000" />
<path d="M438.56,64.867A3,3 0 1 1 432.56,64.867A3,3 0 1 1 438.56,64.867Z" style="fill:#FF0000" />
<path d="M453.13,64.628A3,3 0 1 1 447.13,64.628A3,3 0 1 1 453.13,64.628Z" style="fill:#FF0000" />
<path d="M467.71,72.666A3,3 0 1 1 461.71,72.666A3,3 0 1 1 467.71,72.666Z" style="fill:#FF0000" />
<path d="M482.29,87.34A3,3 0 1 1 476.29,87.34A3,3 0 1 1 482.29,87.34Z" style="fill:#FF0000" />
<path d="M496.87,105.69A3,3 0 1 1 490.87,105.69A3,3 0 1 1 496.87,105.69Z" style="fill:#FF0000" />
<path d="M511.45,127.16A3,3 0 1 1 505.45,127.16A3,3 0 1 1 511.45,127.16Z" style="fill:#FF0000" />
<path d="M526.02,145.92A3,3 0 1 1 520.02,145.92A3,3 0 1 1 526.02,145.92Z" style="fill:#FF0000" />
<path d="M540.6,163.3A3,3 0 1 1 534.6,163.3A3,3 0 1 1 540.6,163.3Z" style="fill:#FF0000" />
<path d="M555.18,177.47A3,3 0 1 1 549.18,177.47A3,3 0 1 1 555.18,177.47Z" style="fill:#FF0000" />
<path d="M569.76,183.61A3,3 0 1 1 563.76,183.61A3,3 0 1 1 569.76,183.61Z" style="fill:#FF0000" />
<path d="M584.34,187.72A3,3 0 1 1 578.34,187.72A3,3 0 1 1 584.34,187.72Z" style="fill:#FF0000" />
<path d="M598.92,181.4A3,3 0 1 1 592.92,181.4A3,3 0 1 1 598.92,181.4Z" style="fill:#FF0000" />
<path d="M613.49,173.79A3,3 0 1 1 607.49,173.79A3,3 0 1 1 613.49,173.79Z" style="fill:#FF0000" />
<path d="M628.07,158.77A3,3 0 1 1 622.07,158.77A3,3 0 1 1 628.07,158.77Z" style="fill:#FF0000" />
<path d="M642.65,143.48A3,3 0 1 1 636.65,143.48A3,3 0 1 1 642.65,143.48Z" style="fill:#FF0000" />
<path d="M657.23,125.42A3,3 0 1 1 651.23,125.42A3,3 0 1 1 657.23,125.42Z" style="fill:#FF0000" />
<path d="M671.81,108.33A3,3 0 1 1 665.81,108.33A3,3 0 1 1 671.81,108.33Z" style="fill:#FF0000" />
<path d="M686.39,92.587A3,3 0 1 1 680.39,92.587A3,3 0 1 1 686.39,92.587Z" style="fill:#FF0000" />
<path d="M700.96,79.589A3,3 0 1 1 694.96,79.589A3,3 0 1 1 700.96,79.589Z" style="fill:#FF0000" />
<path d="M715.54,70.13A3,3 0 1 1 709.54,70.13A3,3 0 1 1 715.54,70.13Z" style="fill:#FF0000" />
<path d="M730.12,64.854A3,3 0 1 1 724.12,64.854A3,3 0 1 1 730.12,64.854Z" style="fill:#FF0000" />
<path d="M744.7,63.683A3,3 0 1 1 738.7,63.683A3,3 0 1 1 744.7,63.683Z" style="fill:#FF0000" />
<path d="M759.28,66.371A3,3 0 1 1 753.28,66.371A3,3 0 1 1 759.28,66.371Z" style="fill:#FF0000" />
<path d="M773.86,72.293A3,3 0 1 1 767.86,72.293A3,3 0 1 1 773.86,72.293Z" style="fill:#FF0000" />
<path d="M788.43,80.488A3,3 0 1 1 782.43,80.488A3,3 0 1 1 788.43,80.488Z" style="fill:#FF0000" />
<path d="M803.01,90.707A3,3 0 1 1 797.01,90.707A3,3 0 1 1 803.01,90.707Z" style="fill:#FF0000" />
<path d="M817.59,100.31A3,3 0 1 1 811.59,100.31A3,3 0 1 1 817.59,100.31Z" style="fill:#FF0000" />
<path d="M832.17,110.8A3,3 0 1 1 826.17,110.8A3,3 0 1 1 832.17,110.8Z" style="fill:#FF0000" />
<path d="M846.75,117.77A3,3 0 1 1 840.75,117.77A3,3 0 1 1 846.75,117.77Z" style="fill:#FF0000" />
<path d="M861.33,123.38A3,3 0 1 1 855.33,123.38A3,3 0 1 1 861.33,123.38Z" style="fill:#FF0000" />
<path d="M875.9,125.66A3,3 0 1 1 869.9,125.66A3,3 0 1 1 875.9,125.66Z" style="fill:#FF0000" />
<path d="M890.48,123.72A3,3 0 1 1 884.48,123.72A3,3 0 1 1 890.48,123.72Z" style="fill:#FF0000" />
<path d="M905.06,120.95A3,3 0 1 1 899.06,120.95A3,3 0 1 1 905.06,120.95Z" style="fill:#FF0000" />
<path d="M919.64,114.75A3,3 0 1 1 913.64,114.75A3,3 0 1 1 919.64,114.75Z" style="fill:#FF0000" />
<path d="M934.22,108.32A3,3 0 1 1 928.22,108.32A3,3 0 1 1 934.22,108.32Z" style="fill:#FF0000" />
<path d="M948.8,99.775A3,3 0 1 1 942.8,99.775A3,3 0 1 1 948.8,99.775Z" style="fill:#FF0000" />
<path d="M963.37,90.09A3,3 0 1 1 957.37,90.09A3,3 0 1 1 963.37,90.09Z" style="fill:#FF0000" />
<path d="M977.95,81.565A3,3 0 1 1 971.95,81.565A3,3 0 1 1 977.95,81.565Z" style="fill:#FF0000" />
<path d="M992.53,74.151A3,3 0 1 1 986.53,74.151A3,3 0 1 1 992.53,74.151Z" style="fill:#FF0000" />
<path d="M1007.1,68.309A3,3 0 1 1 1001.1,68.309A3,3 0 1 1 1007.1,68.309Z" style="fill:#FF0000" />
<path d="M1021.7,64.892A3,3 0 1 1 1015.7,64.892A3,3 0 1 1 1021.7,64.892Z" style="fill:#FF0000" />
<path d="M1036.3,63.598A3,3 0 1 1 1030.3,63.598A3,3 0 1 1 1036.3,63.598Z" style="fill:#FF0000" />
<path d="M1050.8,64.59A3,3 0 1 1 1044.8,64.59A3,3 0 1 1 1050.8,64.59Z" style="fill:#FF0000" />
<path d="M1065.4,67.574A3,3 0 1 1 1059.4,67.574A3,3 0 1 1 1065.4,67.574Z" style="fill:#FF0000" />
<path d="M1080,72.285A3,3 0 1 1 1074,72.285A3,3 0 1 1 1080,72.285Z" style="fill:#FF0000" />
<path d="M71.098,974.14L1077,974.14" style="fill:none;stroke:#000000" />
<path d="M1077,63.595L1077,974.14" style="fill:none;stroke:#000000" />
</g>
</svg>
