<?xml version="1.0"?>
<!-- Generated by SVGo and Plotinum VG -->
<svg width="1080pt" height="1080pt" viewBox="0 0 1080 1080"
	xmlns="http://www.w3.org/2000/svg"
	xmlns:xlink="http://www.w3.org/1999/xlink">
<g transform="scale(1, -1) translate(0, -1080)">
<path d="M0,0L1080,0L1080,1080L0,1080Z" style="fill-opacity:0" />
<text x="321.88" y="-1039.5" transform="scale(1, -1)"
	style="font-family:Helvetica;font-weight:normal;font-style:normal;font-size:50px">1 cm UHNA3 CoBS</text>
<text x="470.42" y="-11.039" transform="scale(1, -1)"
	style="font-family:Helvetica;font-weight:normal;font-style:normal;font-size:36px">Frequency (GHz)</text>
<text x="106.86" y="-71.258" transform="scale(1, -1)"
	style="font-family:Helvetica;font-weight:normal;font-style:normal;font-size:36px">8.75</text>
<text x="384.32" y="-71.258" transform="scale(1, -1)"
	style="font-family:Helvetica;font-weight:normal;font-style:normal;font-size:36px">9.00</text>
<text x="661.77" y="-71.258" transform="scale(1, -1)"
	style="font-family:Helvetica;font-weight:normal;font-style:normal;font-size:36px">9.25</text>
<text x="939.23" y="-71.258" transform="scale(1, -1)"
	style="font-family:Helvetica;font-weight:normal;font-style:normal;font-size:36px">9.50</text>
<path d="M141.89,116.44L141.89,108.44" style="fill:none;stroke:#000000;stroke-width:1.5" />
<path d="M197.39,112.44L197.39,108.44" style="fill:none;stroke:#000000;stroke-width:1.5" />
<path d="M252.88,112.44L252.88,108.44" style="fill:none;stroke:#000000;stroke-width:1.5" />
<path d="M308.37,112.44L308.37,108.44" style="fill:none;stroke:#000000;stroke-width:1.5" />
<path d="M363.86,112.44L363.86,108.44" style="fill:none;stroke:#000000;stroke-width:1.5" />
<path d="M419.35,116.44L419.35,108.44" style="fill:none;stroke:#000000;stroke-width:1.5" />
<path d="M474.84,112.44L474.84,108.44" style="fill:none;stroke:#000000;stroke-width:1.5" />
<path d="M530.33,112.44L530.33,108.44" style="fill:none;stroke:#000000;stroke-width:1.5" />
<path d="M585.82,112.44L585.82,108.44" style="fill:none;stroke:#000000;stroke-width:1.5" />
<path d="M641.32,112.44L641.32,108.44" style="fill:none;stroke:#000000;stroke-width:1.5" />
<path d="M696.81,116.44L696.81,108.44" style="fill:none;stroke:#000000;stroke-width:1.5" />
<path d="M752.3,112.44L752.3,108.44" style="fill:none;stroke:#000000;stroke-width:1.5" />
<path d="M807.79,112.44L807.79,108.44" style="fill:none;stroke:#000000;stroke-width:1.5" />
<path d="M863.28,112.44L863.28,108.44" style="fill:none;stroke:#000000;stroke-width:1.5" />
<path d="M918.77,112.44L918.77,108.44" style="fill:none;stroke:#000000;stroke-width:1.5" />
<path d="M974.26,116.44L974.26,108.44" style="fill:none;stroke:#000000;stroke-width:1.5" />
<path d="M1029.8,112.44L1029.8,108.44" style="fill:none;stroke:#000000;stroke-width:1.5" />
<path d="M141.89,108.44L1075,108.44" style="fill:none;stroke:#000000;stroke-width:2" />
<g transform="rotate(90)">
<text x="431.58" y="29.18" transform="scale(1, -1)"
	style="font-family:Helvetica;font-weight:normal;font-style:normal;font-size:36px">Arbitrary Units</text>
</g>
<text x="67.848" y="-108" transform="scale(1, -1)"
	style="font-family:Helvetica;font-weight:normal;font-style:normal;font-size:36px">0.0</text>
<text x="67.848" y="-263.83" transform="scale(1, -1)"
	style="font-family:Helvetica;font-weight:normal;font-style:normal;font-size:36px">0.2</text>
<text x="67.848" y="-419.66" transform="scale(1, -1)"
	style="font-family:Helvetica;font-weight:normal;font-style:normal;font-size:36px">0.4</text>
<text x="67.848" y="-575.49" transform="scale(1, -1)"
	style="font-family:Helvetica;font-weight:normal;font-style:normal;font-size:36px">0.6</text>
<text x="67.848" y="-731.32" transform="scale(1, -1)"
	style="font-family:Helvetica;font-weight:normal;font-style:normal;font-size:36px">0.8</text>
<text x="67.848" y="-887.15" transform="scale(1, -1)"
	style="font-family:Helvetica;font-weight:normal;font-style:normal;font-size:36px">1.0</text>
<path d="M143.89,117.07L135.89,117.07" style="fill:none;stroke:#000000;stroke-width:1.5" />
<path d="M139.89,143.04L135.89,143.04" style="fill:none;stroke:#000000;stroke-width:1.5" />
<path d="M139.89,169.01L135.89,169.01" style="fill:none;stroke:#000000;stroke-width:1.5" />
<path d="M139.89,194.98L135.89,194.98" style="fill:none;stroke:#000000;stroke-width:1.5" />
<path d="M139.89,220.95L135.89,220.95" style="fill:none;stroke:#000000;stroke-width:1.5" />
<path d="M139.89,246.93L135.89,246.93" style="fill:none;stroke:#000000;stroke-width:1.5" />
<path d="M143.89,272.9L135.89,272.9" style="fill:none;stroke:#000000;stroke-width:1.5" />
<path d="M139.89,298.87L135.89,298.87" style="fill:none;stroke:#000000;stroke-width:1.5" />
<path d="M139.89,324.84L135.89,324.84" style="fill:none;stroke:#000000;stroke-width:1.5" />
<path d="M139.89,350.81L135.89,350.81" style="fill:none;stroke:#000000;stroke-width:1.5" />
<path d="M139.89,376.79L135.89,376.79" style="fill:none;stroke:#000000;stroke-width:1.5" />
<path d="M139.89,402.76L135.89,402.76" style="fill:none;stroke:#000000;stroke-width:1.5" />
<path d="M143.89,428.73L135.89,428.73" style="fill:none;stroke:#000000;stroke-width:1.5" />
<path d="M139.89,454.7L135.89,454.7" style="fill:none;stroke:#000000;stroke-width:1.5" />
<path d="M139.89,480.67L135.89,480.67" style="fill:none;stroke:#000000;stroke-width:1.5" />
<path d="M139.89,506.65L135.89,506.65" style="fill:none;stroke:#000000;stroke-width:1.5" />
<path d="M139.89,532.62L135.89,532.62" style="fill:none;stroke:#000000;stroke-width:1.5" />
<path d="M139.89,558.59L135.89,558.59" style="fill:none;stroke:#000000;stroke-width:1.5" />
<path d="M143.89,584.56L135.89,584.56" style="fill:none;stroke:#000000;stroke-width:1.5" />
<path d="M139.89,610.53L135.89,610.53" style="fill:none;stroke:#000000;stroke-width:1.5" />
<path d="M139.89,636.51L135.89,636.51" style="fill:none;stroke:#000000;stroke-width:1.5" />
<path d="M139.89,662.48L135.89,662.48" style="fill:none;stroke:#000000;stroke-width:1.5" />
<path d="M139.89,688.45L135.89,688.45" style="fill:none;stroke:#000000;stroke-width:1.5" />
<path d="M139.89,714.42L135.89,714.42" style="fill:none;stroke:#000000;stroke-width:1.5" />
<path d="M143.89,740.39L135.89,740.39" style="fill:none;stroke:#000000;stroke-width:1.5" />
<path d="M139.89,766.37L135.89,766.37" style="fill:none;stroke:#000000;stroke-width:1.5" />
<path d="M139.89,792.34L135.89,792.34" style="fill:none;stroke:#000000;stroke-width:1.5" />
<path d="M139.89,818.31L135.89,818.31" style="fill:none;stroke:#000000;stroke-width:1.5" />
<path d="M139.89,844.28L135.89,844.28" style="fill:none;stroke:#000000;stroke-width:1.5" />
<path d="M139.89,870.25L135.89,870.25" style="fill:none;stroke:#000000;stroke-width:1.5" />
<path d="M143.89,896.22L135.89,896.22" style="fill:none;stroke:#000000;stroke-width:1.5" />
<path d="M135.89,117.07L135.89,974.14" style="fill:none;stroke:#000000;stroke-width:2" />
<path d="M141.89,153.43L141.89,153.98" style="fill:none;stroke:#1FD3AC" />
<path d="M139.39,153.43L144.39,153.43" style="fill:none;stroke:#1FD3AC" />
<path d="M139.39,153.98L144.39,153.98" style="fill:none;stroke:#1FD3AC" />
<path d="M147.45,153.16L147.45,153.65" style="fill:none;stroke:#1FD3AC" />
<path d="M144.95,153.16L149.95,153.16" style="fill:none;stroke:#1FD3AC" />
<path d="M144.95,153.65L149.95,153.65" style="fill:none;stroke:#1FD3AC" />
<path d="M153,152.54L153,153.26" style="fill:none;stroke:#1FD3AC" />
<path d="M150.5,152.54L155.5,152.54" style="fill:none;stroke:#1FD3AC" />
<path d="M150.5,153.26L155.5,153.26" style="fill:none;stroke:#1FD3AC" />
<path d="M158.56,151.55L158.56,152.46" style="fill:none;stroke:#1FD3AC" />
<path d="M156.06,151.55L161.06,151.55" style="fill:none;stroke:#1FD3AC" />
<path d="M156.06,152.46L161.06,152.46" style="fill:none;stroke:#1FD3AC" />
<path d="M164.11,151.26L164.11,151.85" style="fill:none;stroke:#1FD3AC" />
<path d="M161.61,151.26L166.61,151.26" style="fill:none;stroke:#1FD3AC" />
<path d="M161.61,151.85L166.61,151.85" style="fill:none;stroke:#1FD3AC" />
<path d="M169.67,151.16L169.67,151.98" style="fill:none;stroke:#1FD3AC" />
<path d="M167.17,151.16L172.17,151.16" style="fill:none;stroke:#1FD3AC" />
<path d="M167.17,151.98L172.17,151.98" style="fill:none;stroke:#1FD3AC" />
<path d="M175.22,150.84L175.22,151.39" style="fill:none;stroke:#1FD3AC" />
<path d="M172.72,150.84L177.72,150.84" style="fill:none;stroke:#1FD3AC" />
<path d="M172.72,151.39L177.72,151.39" style="fill:none;stroke:#1FD3AC" />
<path d="M180.77,150.44L180.77,151.03" style="fill:none;stroke:#1FD3AC" />
<path d="M178.27,150.44L183.27,150.44" style="fill:none;stroke:#1FD3AC" />
<path d="M178.27,151.03L183.27,151.03" style="fill:none;stroke:#1FD3AC" />
<path d="M186.33,150.28L186.33,151.36" style="fill:none;stroke:#1FD3AC" />
<path d="M183.83,150.28L188.83,150.28" style="fill:none;stroke:#1FD3AC" />
<path d="M183.83,151.36L188.83,151.36" style="fill:none;stroke:#1FD3AC" />
<path d="M191.88,149.82L191.88,150.94" style="fill:none;stroke:#1FD3AC" />
<path d="M189.38,149.82L194.38,149.82" style="fill:none;stroke:#1FD3AC" />
<path d="M189.38,150.94L194.38,150.94" style="fill:none;stroke:#1FD3AC" />
<path d="M197.44,149.75L197.44,150.61" style="fill:none;stroke:#1FD3AC" />
<path d="M194.94,149.75L199.94,149.75" style="fill:none;stroke:#1FD3AC" />
<path d="M194.94,150.61L199.94,150.61" style="fill:none;stroke:#1FD3AC" />
<path d="M202.99,149.42L202.99,150.04" style="fill:none;stroke:#1FD3AC" />
<path d="M200.49,149.42L205.49,149.42" style="fill:none;stroke:#1FD3AC" />
<path d="M200.49,150.04L205.49,150.04" style="fill:none;stroke:#1FD3AC" />
<path d="M208.54,149.08L208.54,149.52" style="fill:none;stroke:#1FD3AC" />
<path d="M206.04,149.08L211.04,149.08" style="fill:none;stroke:#1FD3AC" />
<path d="M206.04,149.52L211.04,149.52" style="fill:none;stroke:#1FD3AC" />
<path d="M214.1,148.97L214.1,149.58" style="fill:none;stroke:#1FD3AC" />
<path d="M211.6,148.97L216.6,148.97" style="fill:none;stroke:#1FD3AC" />
<path d="M211.6,149.58L216.6,149.58" style="fill:none;stroke:#1FD3AC" />
<path d="M219.65,148.94L219.65,149.56" style="fill:none;stroke:#1FD3AC" />
<path d="M217.15,148.94L222.15,148.94" style="fill:none;stroke:#1FD3AC" />
<path d="M217.15,149.56L222.15,149.56" style="fill:none;stroke:#1FD3AC" />
<path d="M225.21,148.85L225.21,149.44" style="fill:none;stroke:#1FD3AC" />
<path d="M222.71,148.85L227.71,148.85" style="fill:none;stroke:#1FD3AC" />
<path d="M222.71,149.44L227.71,149.44" style="fill:none;stroke:#1FD3AC" />
<path d="M230.76,148.68L230.76,149.48" style="fill:none;stroke:#1FD3AC" />
<path d="M228.26,148.68L233.26,148.68" style="fill:none;stroke:#1FD3AC" />
<path d="M228.26,149.48L233.26,149.48" style="fill:none;stroke:#1FD3AC" />
<path d="M236.32,148.77L236.32,149.55" style="fill:none;stroke:#1FD3AC" />
<path d="M233.82,148.77L238.82,148.77" style="fill:none;stroke:#1FD3AC" />
<path d="M233.82,149.55L238.82,149.55" style="fill:none;stroke:#1FD3AC" />
<path d="M241.87,148.98L241.87,149.48" style="fill:none;stroke:#1FD3AC" />
<path d="M239.37,148.98L244.37,148.98" style="fill:none;stroke:#1FD3AC" />
<path d="M239.37,149.48L244.37,149.48" style="fill:none;stroke:#1FD3AC" />
<path d="M247.42,148.9L247.42,149.34" style="fill:none;stroke:#1FD3AC" />
<path d="M244.92,148.9L249.92,148.9" style="fill:none;stroke:#1FD3AC" />
<path d="M244.92,149.34L249.92,149.34" style="fill:none;stroke:#1FD3AC" />
<path d="M252.98,149.26L252.98,149.97" style="fill:none;stroke:#1FD3AC" />
<path d="M250.48,149.26L255.48,149.26" style="fill:none;stroke:#1FD3AC" />
<path d="M250.48,149.97L255.48,149.97" style="fill:none;stroke:#1FD3AC" />
<path d="M258.53,149.2L258.53,149.85" style="fill:none;stroke:#1FD3AC" />
<path d="M256.03,149.2L261.03,149.2" style="fill:none;stroke:#1FD3AC" />
<path d="M256.03,149.85L261.03,149.85" style="fill:none;stroke:#1FD3AC" />
<path d="M264.09,149.57L264.09,150.53" style="fill:none;stroke:#1FD3AC" />
<path d="M261.59,149.57L266.59,149.57" style="fill:none;stroke:#1FD3AC" />
<path d="M261.59,150.53L266.59,150.53" style="fill:none;stroke:#1FD3AC" />
<path d="M269.64,149.94L269.64,150.58" style="fill:none;stroke:#1FD3AC" />
<path d="M267.14,149.94L272.14,149.94" style="fill:none;stroke:#1FD3AC" />
<path d="M267.14,150.58L272.14,150.58" style="fill:none;stroke:#1FD3AC" />
<path d="M275.2,150.01L275.2,150.42" style="fill:none;stroke:#1FD3AC" />
<path d="M272.7,150.01L277.7,150.01" style="fill:none;stroke:#1FD3AC" />
<path d="M272.7,150.42L277.7,150.42" style="fill:none;stroke:#1FD3AC" />
<path d="M280.75,150.31L280.75,150.62" style="fill:none;stroke:#1FD3AC" />
<path d="M278.25,150.31L283.25,150.31" style="fill:none;stroke:#1FD3AC" />
<path d="M278.25,150.62L283.25,150.62" style="fill:none;stroke:#1FD3AC" />
<path d="M286.3,150.89L286.3,151.32" style="fill:none;stroke:#1FD3AC" />
<path d="M283.8,150.89L288.8,150.89" style="fill:none;stroke:#1FD3AC" />
<path d="M283.8,151.32L288.8,151.32" style="fill:none;stroke:#1FD3AC" />
<path d="M291.86,151.49L291.86,152.62" style="fill:none;stroke:#1FD3AC" />
<path d="M289.36,151.49L294.36,151.49" style="fill:none;stroke:#1FD3AC" />
<path d="M289.36,152.62L294.36,152.62" style="fill:none;stroke:#1FD3AC" />
<path d="M297.41,152.1L297.41,153.16" style="fill:none;stroke:#1FD3AC" />
<path d="M294.91,152.1L299.91,152.1" style="fill:none;stroke:#1FD3AC" />
<path d="M294.91,153.16L299.91,153.16" style="fill:none;stroke:#1FD3AC" />
<path d="M302.97,152.7L302.97,153.64" style="fill:none;stroke:#1FD3AC" />
<path d="M300.47,152.7L305.47,152.7" style="fill:none;stroke:#1FD3AC" />
<path d="M300.47,153.64L305.47,153.64" style="fill:none;stroke:#1FD3AC" />
<path d="M308.52,153.44L308.52,154.22" style="fill:none;stroke:#1FD3AC" />
<path d="M306.02,153.44L311.02,153.44" style="fill:none;stroke:#1FD3AC" />
<path d="M306.02,154.22L311.02,154.22" style="fill:none;stroke:#1FD3AC" />
<path d="M314.07,154.45L314.07,155.52" style="fill:none;stroke:#1FD3AC" />
<path d="M311.57,154.45L316.57,154.45" style="fill:none;stroke:#1FD3AC" />
<path d="M311.57,155.52L316.57,155.52" style="fill:none;stroke:#1FD3AC" />
<path d="M319.63,155.3L319.63,156.12" style="fill:none;stroke:#1FD3AC" />
<path d="M317.13,155.3L322.13,155.3" style="fill:none;stroke:#1FD3AC" />
<path d="M317.13,156.12L322.13,156.12" style="fill:none;stroke:#1FD3AC" />
<path d="M325.18,156.56L325.18,157.09" style="fill:none;stroke:#1FD3AC" />
<path d="M322.68,156.56L327.68,156.56" style="fill:none;stroke:#1FD3AC" />
<path d="M322.68,157.09L327.68,157.09" style="fill:none;stroke:#1FD3AC" />
<path d="M330.74,157.51L330.74,158.14" style="fill:none;stroke:#1FD3AC" />
<path d="M328.24,157.51L333.24,157.51" style="fill:none;stroke:#1FD3AC" />
<path d="M328.24,158.14L333.24,158.14" style="fill:none;stroke:#1FD3AC" />
<path d="M336.29,158.79L336.29,159.59" style="fill:none;stroke:#1FD3AC" />
<path d="M333.79,158.79L338.79,158.79" style="fill:none;stroke:#1FD3AC" />
<path d="M333.79,159.59L338.79,159.59" style="fill:none;stroke:#1FD3AC" />
<path d="M341.85,160.23L341.85,160.9" style="fill:none;stroke:#1FD3AC" />
<path d="M339.35,160.23L344.35,160.23" style="fill:none;stroke:#1FD3AC" />
<path d="M339.35,160.9L344.35,160.9" style="fill:none;stroke:#1FD3AC" />
<path d="M347.4,161.85L347.4,162.26" style="fill:none;stroke:#1FD3AC" />
<path d="M344.9,161.85L349.9,161.85" style="fill:none;stroke:#1FD3AC" />
<path d="M344.9,162.26L349.9,162.26" style="fill:none;stroke:#1FD3AC" />
<path d="M352.95,163.23L352.95,163.73" style="fill:none;stroke:#1FD3AC" />
<path d="M350.45,163.23L355.45,163.23" style="fill:none;stroke:#1FD3AC" />
<path d="M350.45,163.73L355.45,163.73" style="fill:none;stroke:#1FD3AC" />
<path d="M358.51,164.48L358.51,165.12" style="fill:none;stroke:#1FD3AC" />
<path d="M356.01,164.48L361.01,164.48" style="fill:none;stroke:#1FD3AC" />
<path d="M356.01,165.12L361.01,165.12" style="fill:none;stroke:#1FD3AC" />
<path d="M364.06,166.12L364.06,166.89" style="fill:none;stroke:#1FD3AC" />
<path d="M361.56,166.12L366.56,166.12" style="fill:none;stroke:#1FD3AC" />
<path d="M361.56,166.89L366.56,166.89" style="fill:none;stroke:#1FD3AC" />
<path d="M369.62,168.04L369.62,169.03" style="fill:none;stroke:#1FD3AC" />
<path d="M367.12,168.04L372.12,168.04" style="fill:none;stroke:#1FD3AC" />
<path d="M367.12,169.03L372.12,169.03" style="fill:none;stroke:#1FD3AC" />
<path d="M375.17,170.35L375.17,170.99" style="fill:none;stroke:#1FD3AC" />
<path d="M372.67,170.35L377.67,170.35" style="fill:none;stroke:#1FD3AC" />
<path d="M372.67,170.99L377.67,170.99" style="fill:none;stroke:#1FD3AC" />
<path d="M380.73,172.48L380.73,173.04" style="fill:none;stroke:#1FD3AC" />
<path d="M378.23,172.48L383.23,172.48" style="fill:none;stroke:#1FD3AC" />
<path d="M378.23,173.04L383.23,173.04" style="fill:none;stroke:#1FD3AC" />
<path d="M386.28,174.87L386.28,175.62" style="fill:none;stroke:#1FD3AC" />
<path d="M383.78,174.87L388.78,174.87" style="fill:none;stroke:#1FD3AC" />
<path d="M383.78,175.62L388.78,175.62" style="fill:none;stroke:#1FD3AC" />
<path d="M391.83,177.44L391.83,178.42" style="fill:none;stroke:#1FD3AC" />
<path d="M389.33,177.44L394.33,177.44" style="fill:none;stroke:#1FD3AC" />
<path d="M389.33,178.42L394.33,178.42" style="fill:none;stroke:#1FD3AC" />
<path d="M397.39,180.31L397.39,181.31" style="fill:none;stroke:#1FD3AC" />
<path d="M394.89,180.31L399.89,180.31" style="fill:none;stroke:#1FD3AC" />
<path d="M394.89,181.31L399.89,181.31" style="fill:none;stroke:#1FD3AC" />
<path d="M402.94,183.07L402.94,184.07" style="fill:none;stroke:#1FD3AC" />
<path d="M400.44,183.07L405.44,183.07" style="fill:none;stroke:#1FD3AC" />
<path d="M400.44,184.07L405.44,184.07" style="fill:none;stroke:#1FD3AC" />
<path d="M408.5,185.89L408.5,187.09" style="fill:none;stroke:#1FD3AC" />
<path d="M406,185.89L411,185.89" style="fill:none;stroke:#1FD3AC" />
<path d="M406,187.09L411,187.09" style="fill:none;stroke:#1FD3AC" />
<path d="M414.05,189.62L414.05,191.06" style="fill:none;stroke:#1FD3AC" />
<path d="M411.55,189.62L416.55,189.62" style="fill:none;stroke:#1FD3AC" />
<path d="M411.55,191.06L416.55,191.06" style="fill:none;stroke:#1FD3AC" />
<path d="M419.6,193.56L419.6,195.37" style="fill:none;stroke:#1FD3AC" />
<path d="M417.1,193.56L422.1,193.56" style="fill:none;stroke:#1FD3AC" />
<path d="M417.1,195.37L422.1,195.37" style="fill:none;stroke:#1FD3AC" />
<path d="M425.16,197.96L425.16,199.78" style="fill:none;stroke:#1FD3AC" />
<path d="M422.66,197.96L427.66,197.96" style="fill:none;stroke:#1FD3AC" />
<path d="M422.66,199.78L427.66,199.78" style="fill:none;stroke:#1FD3AC" />
<path d="M430.71,202.91L430.71,205.11" style="fill:none;stroke:#1FD3AC" />
<path d="M428.21,202.91L433.21,202.91" style="fill:none;stroke:#1FD3AC" />
<path d="M428.21,205.11L433.21,205.11" style="fill:none;stroke:#1FD3AC" />
<path d="M436.27,208.1L436.27,210.1" style="fill:none;stroke:#1FD3AC" />
<path d="M433.77,208.1L438.77,208.1" style="fill:none;stroke:#1FD3AC" />
<path d="M433.77,210.1L438.77,210.1" style="fill:none;stroke:#1FD3AC" />
<path d="M441.82,213.69L441.82,215.27" style="fill:none;stroke:#1FD3AC" />
<path d="M439.32,213.69L444.32,213.69" style="fill:none;stroke:#1FD3AC" />
<path d="M439.32,215.27L444.32,215.27" style="fill:none;stroke:#1FD3AC" />
<path d="M447.38,220.06L447.38,221.3" style="fill:none;stroke:#1FD3AC" />
<path d="M444.88,220.06L449.88,220.06" style="fill:none;stroke:#1FD3AC" />
<path d="M444.88,221.3L449.88,221.3" style="fill:none;stroke:#1FD3AC" />
<path d="M452.93,226.46L452.93,227.79" style="fill:none;stroke:#1FD3AC" />
<path d="M450.43,226.46L455.43,226.46" style="fill:none;stroke:#1FD3AC" />
<path d="M450.43,227.79L455.43,227.79" style="fill:none;stroke:#1FD3AC" />
<path d="M458.48,234.49L458.48,236.25" style="fill:none;stroke:#1FD3AC" />
<path d="M455.98,234.49L460.98,234.49" style="fill:none;stroke:#1FD3AC" />
<path d="M455.98,236.25L460.98,236.25" style="fill:none;stroke:#1FD3AC" />
<path d="M464.04,242.49L464.04,244.61" style="fill:none;stroke:#1FD3AC" />
<path d="M461.54,242.49L466.54,242.49" style="fill:none;stroke:#1FD3AC" />
<path d="M461.54,244.61L466.54,244.61" style="fill:none;stroke:#1FD3AC" />
<path d="M469.59,251.19L469.59,253.63" style="fill:none;stroke:#1FD3AC" />
<path d="M467.09,251.19L472.09,251.19" style="fill:none;stroke:#1FD3AC" />
<path d="M467.09,253.63L472.09,253.63" style="fill:none;stroke:#1FD3AC" />
<path d="M475.15,260.74L475.15,263.07" style="fill:none;stroke:#1FD3AC" />
<path d="M472.65,260.74L477.65,260.74" style="fill:none;stroke:#1FD3AC" />
<path d="M472.65,263.07L477.65,263.07" style="fill:none;stroke:#1FD3AC" />
<path d="M480.7,271.75L480.7,274.23" style="fill:none;stroke:#1FD3AC" />
<path d="M478.2,271.75L483.2,271.75" style="fill:none;stroke:#1FD3AC" />
<path d="M478.2,274.23L483.2,274.23" style="fill:none;stroke:#1FD3AC" />
<path d="M486.25,282.93L486.25,285.52" style="fill:none;stroke:#1FD3AC" />
<path d="M483.75,282.93L488.75,282.93" style="fill:none;stroke:#1FD3AC" />
<path d="M483.75,285.52L488.75,285.52" style="fill:none;stroke:#1FD3AC" />
<path d="M491.81,295.66L491.81,298.61" style="fill:none;stroke:#1FD3AC" />
<path d="M489.31,295.66L494.31,295.66" style="fill:none;stroke:#1FD3AC" />
<path d="M489.31,298.61L494.31,298.61" style="fill:none;stroke:#1FD3AC" />
<path d="M497.36,310.34L497.36,312.73" style="fill:none;stroke:#1FD3AC" />
<path d="M494.86,310.34L499.86,310.34" style="fill:none;stroke:#1FD3AC" />
<path d="M494.86,312.73L499.86,312.73" style="fill:none;stroke:#1FD3AC" />
<path d="M502.92,325.17L502.92,328.04" style="fill:none;stroke:#1FD3AC" />
<path d="M500.42,325.17L505.42,325.17" style="fill:none;stroke:#1FD3AC" />
<path d="M500.42,328.04L505.42,328.04" style="fill:none;stroke:#1FD3AC" />
<path d="M508.47,342.23L508.47,345.37" style="fill:none;stroke:#1FD3AC" />
<path d="M505.97,342.23L510.97,342.23" style="fill:none;stroke:#1FD3AC" />
<path d="M505.97,345.37L510.97,345.37" style="fill:none;stroke:#1FD3AC" />
<path d="M514.03,360.91L514.03,364.2" style="fill:none;stroke:#1FD3AC" />
<path d="M511.53,360.91L516.53,360.91" style="fill:none;stroke:#1FD3AC" />
<path d="M511.53,364.2L516.53,364.2" style="fill:none;stroke:#1FD3AC" />
<path d="M519.58,380.89L519.58,385.07" style="fill:none;stroke:#1FD3AC" />
<path d="M517.08,380.89L522.08,380.89" style="fill:none;stroke:#1FD3AC" />
<path d="M517.08,385.07L522.08,385.07" style="fill:none;stroke:#1FD3AC" />
<path d="M525.13,403.11L525.13,407.26" style="fill:none;stroke:#1FD3AC" />
<path d="M522.63,403.11L527.63,403.11" style="fill:none;stroke:#1FD3AC" />
<path d="M522.63,407.26L527.63,407.26" style="fill:none;stroke:#1FD3AC" />
<path d="M530.69,426.95L530.69,431.64" style="fill:none;stroke:#1FD3AC" />
<path d="M528.19,426.95L533.19,426.95" style="fill:none;stroke:#1FD3AC" />
<path d="M528.19,431.64L533.19,431.64" style="fill:none;stroke:#1FD3AC" />
<path d="M536.24,453.02L536.24,457.83" style="fill:none;stroke:#1FD3AC" />
<path d="M533.74,453.02L538.74,453.02" style="fill:none;stroke:#1FD3AC" />
<path d="M533.74,457.83L538.74,457.83" style="fill:none;stroke:#1FD3AC" />
<path d="M541.8,482.14L541.8,487.1" style="fill:none;stroke:#1FD3AC" />
<path d="M539.3,482.14L544.3,482.14" style="fill:none;stroke:#1FD3AC" />
<path d="M539.3,487.1L544.3,487.1" style="fill:none;stroke:#1FD3AC" />
<path d="M547.35,515.37L547.35,521.33" style="fill:none;stroke:#1FD3AC" />
<path d="M544.85,515.37L549.85,515.37" style="fill:none;stroke:#1FD3AC" />
<path d="M544.85,521.33L549.85,521.33" style="fill:none;stroke:#1FD3AC" />
<path d="M552.91,554.31L552.91,559.88" style="fill:none;stroke:#1FD3AC" />
<path d="M550.41,554.31L555.41,554.31" style="fill:none;stroke:#1FD3AC" />
<path d="M550.41,559.88L555.41,559.88" style="fill:none;stroke:#1FD3AC" />
<path d="M558.46,594.24L558.46,601" style="fill:none;stroke:#1FD3AC" />
<path d="M555.96,594.24L560.96,594.24" style="fill:none;stroke:#1FD3AC" />
<path d="M555.96,601L560.96,601" style="fill:none;stroke:#1FD3AC" />
<path d="M564.01,639.59L564.01,647.03" style="fill:none;stroke:#1FD3AC" />
<path d="M561.51,639.59L566.51,639.59" style="fill:none;stroke:#1FD3AC" />
<path d="M561.51,647.03L566.51,647.03" style="fill:none;stroke:#1FD3AC" />
<path d="M569.57,689.09L569.57,695.95" style="fill:none;stroke:#1FD3AC" />
<path d="M567.07,689.09L572.07,689.09" style="fill:none;stroke:#1FD3AC" />
<path d="M567.07,695.95L572.07,695.95" style="fill:none;stroke:#1FD3AC" />
<path d="M575.12,741.19L575.12,749.16" style="fill:none;stroke:#1FD3AC" />
<path d="M572.62,741.19L577.62,741.19" style="fill:none;stroke:#1FD3AC" />
<path d="M572.62,749.16L577.62,749.16" style="fill:none;stroke:#1FD3AC" />
<path d="M580.68,791.97L580.68,802.21" style="fill:none;stroke:#1FD3AC" />
<path d="M578.18,791.97L583.18,791.97" style="fill:none;stroke:#1FD3AC" />
<path d="M578.18,802.21L583.18,802.21" style="fill:none;stroke:#1FD3AC" />
<path d="M586.23,841.72L586.23,850.19" style="fill:none;stroke:#1FD3AC" />
<path d="M583.73,841.72L588.73,841.72" style="fill:none;stroke:#1FD3AC" />
<path d="M583.73,850.19L588.73,850.19" style="fill:none;stroke:#1FD3AC" />
<path d="M591.78,879.04L591.78,887.25" style="fill:none;stroke:#1FD3AC" />
<path d="M589.28,879.04L594.28,879.04" style="fill:none;stroke:#1FD3AC" />
<path d="M589.28,887.25L594.28,887.25" style="fill:none;stroke:#1FD3AC" />
<path d="M597.34,891.45L597.34,901" style="fill:none;stroke:#1FD3AC" />
<path d="M594.84,891.45L599.84,891.45" style="fill:none;stroke:#1FD3AC" />
<path d="M594.84,901L599.84,901" style="fill:none;stroke:#1FD3AC" />
<path d="M602.89,876.4L602.89,885.07" style="fill:none;stroke:#1FD3AC" />
<path d="M600.39,876.4L605.39,876.4" style="fill:none;stroke:#1FD3AC" />
<path d="M600.39,885.07L605.39,885.07" style="fill:none;stroke:#1FD3AC" />
<path d="M608.45,831.84L608.45,840.33" style="fill:none;stroke:#1FD3AC" />
<path d="M605.95,831.84L610.95,831.84" style="fill:none;stroke:#1FD3AC" />
<path d="M605.95,840.33L610.95,840.33" style="fill:none;stroke:#1FD3AC" />
<path d="M614,770.69L614,778.71" style="fill:none;stroke:#1FD3AC" />
<path d="M611.5,770.69L616.5,770.69" style="fill:none;stroke:#1FD3AC" />
<path d="M611.5,778.71L616.5,778.71" style="fill:none;stroke:#1FD3AC" />
<path d="M619.56,702.26L619.56,709.36" style="fill:none;stroke:#1FD3AC" />
<path d="M617.06,702.26L622.06,702.26" style="fill:none;stroke:#1FD3AC" />
<path d="M617.06,709.36L622.06,709.36" style="fill:none;stroke:#1FD3AC" />
<path d="M625.11,635.06L625.11,640.87" style="fill:none;stroke:#1FD3AC" />
<path d="M622.61,635.06L627.61,635.06" style="fill:none;stroke:#1FD3AC" />
<path d="M622.61,640.87L627.61,640.87" style="fill:none;stroke:#1FD3AC" />
<path d="M630.66,574.63L630.66,579.85" style="fill:none;stroke:#1FD3AC" />
<path d="M628.16,574.63L633.16,574.63" style="fill:none;stroke:#1FD3AC" />
<path d="M628.16,579.85L633.16,579.85" style="fill:none;stroke:#1FD3AC" />
<path d="M636.22,519.88L636.22,523.23" style="fill:none;stroke:#1FD3AC" />
<path d="M633.72,519.88L638.72,519.88" style="fill:none;stroke:#1FD3AC" />
<path d="M633.72,523.23L638.72,523.23" style="fill:none;stroke:#1FD3AC" />
<path d="M641.77,472L641.77,473.72" style="fill:none;stroke:#1FD3AC" />
<path d="M639.27,472L644.27,472" style="fill:none;stroke:#1FD3AC" />
<path d="M639.27,473.72L644.27,473.72" style="fill:none;stroke:#1FD3AC" />
<path d="M647.33,430.21L647.33,432.04" style="fill:none;stroke:#1FD3AC" />
<path d="M644.83,430.21L649.83,430.21" style="fill:none;stroke:#1FD3AC" />
<path d="M644.83,432.04L649.83,432.04" style="fill:none;stroke:#1FD3AC" />
<path d="M652.88,393.08L652.88,396.55" style="fill:none;stroke:#1FD3AC" />
<path d="M650.38,393.08L655.38,393.08" style="fill:none;stroke:#1FD3AC" />
<path d="M650.38,396.55L655.38,396.55" style="fill:none;stroke:#1FD3AC" />
<path d="M658.44,361.04L658.44,364.33" style="fill:none;stroke:#1FD3AC" />
<path d="M655.94,361.04L660.94,361.04" style="fill:none;stroke:#1FD3AC" />
<path d="M655.94,364.33L660.94,364.33" style="fill:none;stroke:#1FD3AC" />
<path d="M663.99,334.07L663.99,336.94" style="fill:none;stroke:#1FD3AC" />
<path d="M661.49,334.07L666.49,334.07" style="fill:none;stroke:#1FD3AC" />
<path d="M661.49,336.94L666.49,336.94" style="fill:none;stroke:#1FD3AC" />
<path d="M669.54,311.35L669.54,313.97" style="fill:none;stroke:#1FD3AC" />
<path d="M667.04,311.35L672.04,311.35" style="fill:none;stroke:#1FD3AC" />
<path d="M667.04,313.97L672.04,313.97" style="fill:none;stroke:#1FD3AC" />
<path d="M675.1,291.73L675.1,294.37" style="fill:none;stroke:#1FD3AC" />
<path d="M672.6,291.73L677.6,291.73" style="fill:none;stroke:#1FD3AC" />
<path d="M672.6,294.37L677.6,294.37" style="fill:none;stroke:#1FD3AC" />
<path d="M680.65,274.9L680.65,277.16" style="fill:none;stroke:#1FD3AC" />
<path d="M678.15,274.9L683.15,274.9" style="fill:none;stroke:#1FD3AC" />
<path d="M678.15,277.16L683.15,277.16" style="fill:none;stroke:#1FD3AC" />
<path d="M686.21,259.16L686.21,261.65" style="fill:none;stroke:#1FD3AC" />
<path d="M683.71,259.16L688.71,259.16" style="fill:none;stroke:#1FD3AC" />
<path d="M683.71,261.65L688.71,261.65" style="fill:none;stroke:#1FD3AC" />
<path d="M691.76,246.06L691.76,248.17" style="fill:none;stroke:#1FD3AC" />
<path d="M689.26,246.06L694.26,246.06" style="fill:none;stroke:#1FD3AC" />
<path d="M689.26,248.17L694.26,248.17" style="fill:none;stroke:#1FD3AC" />
<path d="M697.31,234.6L697.31,236.7" style="fill:none;stroke:#1FD3AC" />
<path d="M694.81,234.6L699.81,234.6" style="fill:none;stroke:#1FD3AC" />
<path d="M694.81,236.7L699.81,236.7" style="fill:none;stroke:#1FD3AC" />
<path d="M702.87,225.12L702.87,226.8" style="fill:none;stroke:#1FD3AC" />
<path d="M700.37,225.12L705.37,225.12" style="fill:none;stroke:#1FD3AC" />
<path d="M700.37,226.8L705.37,226.8" style="fill:none;stroke:#1FD3AC" />
<path d="M708.42,216.96L708.42,218.17" style="fill:none;stroke:#1FD3AC" />
<path d="M705.92,216.96L710.92,216.96" style="fill:none;stroke:#1FD3AC" />
<path d="M705.92,218.17L710.92,218.17" style="fill:none;stroke:#1FD3AC" />
<path d="M713.98,209.33L713.98,210.2" style="fill:none;stroke:#1FD3AC" />
<path d="M711.48,209.33L716.48,209.33" style="fill:none;stroke:#1FD3AC" />
<path d="M711.48,210.2L716.48,210.2" style="fill:none;stroke:#1FD3AC" />
<path d="M719.53,201.77L719.53,202.69" style="fill:none;stroke:#1FD3AC" />
<path d="M717.03,201.77L722.03,201.77" style="fill:none;stroke:#1FD3AC" />
<path d="M717.03,202.69L722.03,202.69" style="fill:none;stroke:#1FD3AC" />
<path d="M725.09,196.15L725.09,196.7" style="fill:none;stroke:#1FD3AC" />
<path d="M722.59,196.15L727.59,196.15" style="fill:none;stroke:#1FD3AC" />
<path d="M722.59,196.7L727.59,196.7" style="fill:none;stroke:#1FD3AC" />
<path d="M730.64,191.24L730.64,192" style="fill:none;stroke:#1FD3AC" />
<path d="M728.14,191.24L733.14,191.24" style="fill:none;stroke:#1FD3AC" />
<path d="M728.14,192L733.14,192" style="fill:none;stroke:#1FD3AC" />
<path d="M736.19,186.48L736.19,187.22" style="fill:none;stroke:#1FD3AC" />
<path d="M733.69,186.48L738.69,186.48" style="fill:none;stroke:#1FD3AC" />
<path d="M733.69,187.22L738.69,187.22" style="fill:none;stroke:#1FD3AC" />
<path d="M741.75,182.31L741.75,183.18" style="fill:none;stroke:#1FD3AC" />
<path d="M739.25,182.31L744.25,182.31" style="fill:none;stroke:#1FD3AC" />
<path d="M739.25,183.18L744.25,183.18" style="fill:none;stroke:#1FD3AC" />
<path d="M747.3,178.36L747.3,179.29" style="fill:none;stroke:#1FD3AC" />
<path d="M744.8,178.36L749.8,178.36" style="fill:none;stroke:#1FD3AC" />
<path d="M744.8,179.29L749.8,179.29" style="fill:none;stroke:#1FD3AC" />
<path d="M752.86,174.51L752.86,175.55" style="fill:none;stroke:#1FD3AC" />
<path d="M750.36,174.51L755.36,174.51" style="fill:none;stroke:#1FD3AC" />
<path d="M750.36,175.55L755.36,175.55" style="fill:none;stroke:#1FD3AC" />
<path d="M758.41,171.27L758.41,172.35" style="fill:none;stroke:#1FD3AC" />
<path d="M755.91,171.27L760.91,171.27" style="fill:none;stroke:#1FD3AC" />
<path d="M755.91,172.35L760.91,172.35" style="fill:none;stroke:#1FD3AC" />
<path d="M763.96,168.74L763.96,169.85" style="fill:none;stroke:#1FD3AC" />
<path d="M761.46,168.74L766.46,168.74" style="fill:none;stroke:#1FD3AC" />
<path d="M761.46,169.85L766.46,169.85" style="fill:none;stroke:#1FD3AC" />
<path d="M769.52,166.34L769.52,167.28" style="fill:none;stroke:#1FD3AC" />
<path d="M767.02,166.34L772.02,166.34" style="fill:none;stroke:#1FD3AC" />
<path d="M767.02,167.28L772.02,167.28" style="fill:none;stroke:#1FD3AC" />
<path d="M775.07,164.01L775.07,164.74" style="fill:none;stroke:#1FD3AC" />
<path d="M772.57,164.01L777.57,164.01" style="fill:none;stroke:#1FD3AC" />
<path d="M772.57,164.74L777.57,164.74" style="fill:none;stroke:#1FD3AC" />
<path d="M780.63,161.67L780.63,162.21" style="fill:none;stroke:#1FD3AC" />
<path d="M778.13,161.67L783.13,161.67" style="fill:none;stroke:#1FD3AC" />
<path d="M778.13,162.21L783.13,162.21" style="fill:none;stroke:#1FD3AC" />
<path d="M786.18,159.89L786.18,160.33" style="fill:none;stroke:#1FD3AC" />
<path d="M783.68,159.89L788.68,159.89" style="fill:none;stroke:#1FD3AC" />
<path d="M783.68,160.33L788.68,160.33" style="fill:none;stroke:#1FD3AC" />
<path d="M791.74,158.24L791.74,158.73" style="fill:none;stroke:#1FD3AC" />
<path d="M789.24,158.24L794.24,158.24" style="fill:none;stroke:#1FD3AC" />
<path d="M789.24,158.73L794.24,158.73" style="fill:none;stroke:#1FD3AC" />
<path d="M797.29,156.56L797.29,157.26" style="fill:none;stroke:#1FD3AC" />
<path d="M794.79,156.56L799.79,156.56" style="fill:none;stroke:#1FD3AC" />
<path d="M794.79,157.26L799.79,157.26" style="fill:none;stroke:#1FD3AC" />
<path d="M802.84,154.63L802.84,155.74" style="fill:none;stroke:#1FD3AC" />
<path d="M800.34,154.63L805.34,154.63" style="fill:none;stroke:#1FD3AC" />
<path d="M800.34,155.74L805.34,155.74" style="fill:none;stroke:#1FD3AC" />
<path d="M808.4,153.51L808.4,154.23" style="fill:none;stroke:#1FD3AC" />
<path d="M805.9,153.51L810.9,153.51" style="fill:none;stroke:#1FD3AC" />
<path d="M805.9,154.23L810.9,154.23" style="fill:none;stroke:#1FD3AC" />
<path d="M813.95,151.97L813.95,152.77" style="fill:none;stroke:#1FD3AC" />
<path d="M811.45,151.97L816.45,151.97" style="fill:none;stroke:#1FD3AC" />
<path d="M811.45,152.77L816.45,152.77" style="fill:none;stroke:#1FD3AC" />
<path d="M819.51,150.64L819.51,151.39" style="fill:none;stroke:#1FD3AC" />
<path d="M817.01,150.64L822.01,150.64" style="fill:none;stroke:#1FD3AC" />
<path d="M817.01,151.39L822.01,151.39" style="fill:none;stroke:#1FD3AC" />
<path d="M825.06,148.93L825.06,149.95" style="fill:none;stroke:#1FD3AC" />
<path d="M822.56,148.93L827.56,148.93" style="fill:none;stroke:#1FD3AC" />
<path d="M822.56,149.95L827.56,149.95" style="fill:none;stroke:#1FD3AC" />
<path d="M830.62,148.28L830.62,149.43" style="fill:none;stroke:#1FD3AC" />
<path d="M828.12,148.28L833.12,148.28" style="fill:none;stroke:#1FD3AC" />
<path d="M828.12,149.43L833.12,149.43" style="fill:none;stroke:#1FD3AC" />
<path d="M836.17,147.69L836.17,148.4" style="fill:none;stroke:#1FD3AC" />
<path d="M833.67,147.69L838.67,147.69" style="fill:none;stroke:#1FD3AC" />
<path d="M833.67,148.4L838.67,148.4" style="fill:none;stroke:#1FD3AC" />
<path d="M841.72,147.44L841.72,147.54" style="fill:none;stroke:#1FD3AC" />
<path d="M839.22,147.44L844.22,147.44" style="fill:none;stroke:#1FD3AC" />
<path d="M839.22,147.54L844.22,147.54" style="fill:none;stroke:#1FD3AC" />
<path d="M847.28,146.64L847.28,146.94" style="fill:none;stroke:#1FD3AC" />
<path d="M844.78,146.64L849.78,146.64" style="fill:none;stroke:#1FD3AC" />
<path d="M844.78,146.94L849.78,146.94" style="fill:none;stroke:#1FD3AC" />
<path d="M852.83,145.91L852.83,146.33" style="fill:none;stroke:#1FD3AC" />
<path d="M850.33,145.91L855.33,145.91" style="fill:none;stroke:#1FD3AC" />
<path d="M850.33,146.33L855.33,146.33" style="fill:none;stroke:#1FD3AC" />
<path d="M858.39,144.6L858.39,145.31" style="fill:none;stroke:#1FD3AC" />
<path d="M855.89,144.6L860.89,144.6" style="fill:none;stroke:#1FD3AC" />
<path d="M855.89,145.31L860.89,145.31" style="fill:none;stroke:#1FD3AC" />
<path d="M863.94,143.06L863.94,144.22" style="fill:none;stroke:#1FD3AC" />
<path d="M861.44,143.06L866.44,143.06" style="fill:none;stroke:#1FD3AC" />
<path d="M861.44,144.22L866.44,144.22" style="fill:none;stroke:#1FD3AC" />
<path d="M869.49,142.08L869.49,143.59" style="fill:none;stroke:#1FD3AC" />
<path d="M866.99,142.08L871.99,142.08" style="fill:none;stroke:#1FD3AC" />
<path d="M866.99,143.59L871.99,143.59" style="fill:none;stroke:#1FD3AC" />
<path d="M875.05,141.84L875.05,143.19" style="fill:none;stroke:#1FD3AC" />
<path d="M872.55,141.84L877.55,141.84" style="fill:none;stroke:#1FD3AC" />
<path d="M872.55,143.19L877.55,143.19" style="fill:none;stroke:#1FD3AC" />
<path d="M880.6,142.11L880.6,142.98" style="fill:none;stroke:#1FD3AC" />
<path d="M878.1,142.11L883.1,142.11" style="fill:none;stroke:#1FD3AC" />
<path d="M878.1,142.98L883.1,142.98" style="fill:none;stroke:#1FD3AC" />
<path d="M886.16,142.17L886.16,142.41" style="fill:none;stroke:#1FD3AC" />
<path d="M883.66,142.17L888.66,142.17" style="fill:none;stroke:#1FD3AC" />
<path d="M883.66,142.41L888.66,142.41" style="fill:none;stroke:#1FD3AC" />
<path d="M891.71,141.43L891.71,141.88" style="fill:none;stroke:#1FD3AC" />
<path d="M889.21,141.43L894.21,141.43" style="fill:none;stroke:#1FD3AC" />
<path d="M889.21,141.88L894.21,141.88" style="fill:none;stroke:#1FD3AC" />
<path d="M897.27,140.54L897.27,141.3" style="fill:none;stroke:#1FD3AC" />
<path d="M894.77,140.54L899.77,140.54" style="fill:none;stroke:#1FD3AC" />
<path d="M894.77,141.3L899.77,141.3" style="fill:none;stroke:#1FD3AC" />
<path d="M902.82,140.09L902.82,140.78" style="fill:none;stroke:#1FD3AC" />
<path d="M900.32,140.09L905.32,140.09" style="fill:none;stroke:#1FD3AC" />
<path d="M900.32,140.78L905.32,140.78" style="fill:none;stroke:#1FD3AC" />
<path d="M908.37,139.94L908.37,140.53" style="fill:none;stroke:#1FD3AC" />
<path d="M905.87,139.94L910.87,139.94" style="fill:none;stroke:#1FD3AC" />
<path d="M905.87,140.53L910.87,140.53" style="fill:none;stroke:#1FD3AC" />
<path d="M913.93,139.73L913.93,140.44" style="fill:none;stroke:#1FD3AC" />
<path d="M911.43,139.73L916.43,139.73" style="fill:none;stroke:#1FD3AC" />
<path d="M911.43,140.44L916.43,140.44" style="fill:none;stroke:#1FD3AC" />
<path d="M919.48,139.49L919.48,140.03" style="fill:none;stroke:#1FD3AC" />
<path d="M916.98,139.49L921.98,139.49" style="fill:none;stroke:#1FD3AC" />
<path d="M916.98,140.03L921.98,140.03" style="fill:none;stroke:#1FD3AC" />
<path d="M925.04,139.36L925.04,140.28" style="fill:none;stroke:#1FD3AC" />
<path d="M922.54,139.36L927.54,139.36" style="fill:none;stroke:#1FD3AC" />
<path d="M922.54,140.28L927.54,140.28" style="fill:none;stroke:#1FD3AC" />
<path d="M930.59,138.53L930.59,139.7" style="fill:none;stroke:#1FD3AC" />
<path d="M928.09,138.53L933.09,138.53" style="fill:none;stroke:#1FD3AC" />
<path d="M928.09,139.7L933.09,139.7" style="fill:none;stroke:#1FD3AC" />
<path d="M936.15,138.8L936.15,139.93" style="fill:none;stroke:#1FD3AC" />
<path d="M933.65,138.8L938.65,138.8" style="fill:none;stroke:#1FD3AC" />
<path d="M933.65,139.93L938.65,139.93" style="fill:none;stroke:#1FD3AC" />
<path d="M941.7,138.97L941.7,139.83" style="fill:none;stroke:#1FD3AC" />
<path d="M939.2,138.97L944.2,138.97" style="fill:none;stroke:#1FD3AC" />
<path d="M939.2,139.83L944.2,139.83" style="fill:none;stroke:#1FD3AC" />
<path d="M947.25,139.68L947.25,139.96" style="fill:none;stroke:#1FD3AC" />
<path d="M944.75,139.68L949.75,139.68" style="fill:none;stroke:#1FD3AC" />
<path d="M944.75,139.96L949.75,139.96" style="fill:none;stroke:#1FD3AC" />
<path d="M952.81,139.82L952.81,140.24" style="fill:none;stroke:#1FD3AC" />
<path d="M950.31,139.82L955.31,139.82" style="fill:none;stroke:#1FD3AC" />
<path d="M950.31,140.24L955.31,140.24" style="fill:none;stroke:#1FD3AC" />
<path d="M958.36,139.53L958.36,140.31" style="fill:none;stroke:#1FD3AC" />
<path d="M955.86,139.53L960.86,139.53" style="fill:none;stroke:#1FD3AC" />
<path d="M955.86,140.31L960.86,140.31" style="fill:none;stroke:#1FD3AC" />
<path d="M963.92,139.12L963.92,140.28" style="fill:none;stroke:#1FD3AC" />
<path d="M961.42,139.12L966.42,139.12" style="fill:none;stroke:#1FD3AC" />
<path d="M961.42,140.28L966.42,140.28" style="fill:none;stroke:#1FD3AC" />
<path d="M969.47,139.11L969.47,140.38" style="fill:none;stroke:#1FD3AC" />
<path d="M966.97,139.11L971.97,139.11" style="fill:none;stroke:#1FD3AC" />
<path d="M966.97,140.38L971.97,140.38" style="fill:none;stroke:#1FD3AC" />
<path d="M975.02,138.99L975.02,140.2" style="fill:none;stroke:#1FD3AC" />
<path d="M972.52,138.99L977.52,138.99" style="fill:none;stroke:#1FD3AC" />
<path d="M972.52,140.2L977.52,140.2" style="fill:none;stroke:#1FD3AC" />
<path d="M980.58,138.45L980.58,139.8" style="fill:none;stroke:#1FD3AC" />
<path d="M978.08,138.45L983.08,138.45" style="fill:none;stroke:#1FD3AC" />
<path d="M978.08,139.8L983.08,139.8" style="fill:none;stroke:#1FD3AC" />
<path d="M986.13,138.98L986.13,140.05" style="fill:none;stroke:#1FD3AC" />
<path d="M983.63,138.98L988.63,138.98" style="fill:none;stroke:#1FD3AC" />
<path d="M983.63,140.05L988.63,140.05" style="fill:none;stroke:#1FD3AC" />
<path d="M991.69,139.25L991.69,139.94" style="fill:none;stroke:#1FD3AC" />
<path d="M989.19,139.25L994.19,139.25" style="fill:none;stroke:#1FD3AC" />
<path d="M989.19,139.94L994.19,139.94" style="fill:none;stroke:#1FD3AC" />
<path d="M997.24,139.21L997.24,140.49" style="fill:none;stroke:#1FD3AC" />
<path d="M994.74,139.21L999.74,139.21" style="fill:none;stroke:#1FD3AC" />
<path d="M994.74,140.49L999.74,140.49" style="fill:none;stroke:#1FD3AC" />
<path d="M1002.8,139.23L1002.8,140.27" style="fill:none;stroke:#1FD3AC" />
<path d="M1000.3,139.23L1005.3,139.23" style="fill:none;stroke:#1FD3AC" />
<path d="M1000.3,140.27L1005.3,140.27" style="fill:none;stroke:#1FD3AC" />
<path d="M1008.3,138.59L1008.3,139.91" style="fill:none;stroke:#1FD3AC" />
<path d="M1005.8,138.59L1010.8,138.59" style="fill:none;stroke:#1FD3AC" />
<path d="M1005.8,139.91L1010.8,139.91" style="fill:none;stroke:#1FD3AC" />
<path d="M1013.9,137.62L1013.9,139.3" style="fill:none;stroke:#1FD3AC" />
<path d="M1011.4,137.62L1016.4,137.62" style="fill:none;stroke:#1FD3AC" />
<path d="M1011.4,139.3L1016.4,139.3" style="fill:none;stroke:#1FD3AC" />
<path d="M1019.5,137.12L1019.5,138.99" style="fill:none;stroke:#1FD3AC" />
<path d="M1017,137.12L1022,137.12" style="fill:none;stroke:#1FD3AC" />
<path d="M1017,138.99L1022,138.99" style="fill:none;stroke:#1FD3AC" />
<path d="M1025,137.4L1025,138.9" style="fill:none;stroke:#1FD3AC" />
<path d="M1022.5,137.4L1027.5,137.4" style="fill:none;stroke:#1FD3AC" />
<path d="M1022.5,138.9L1027.5,138.9" style="fill:none;stroke:#1FD3AC" />
<path d="M1030.6,137.75L1030.6,138.58" style="fill:none;stroke:#1FD3AC" />
<path d="M1028.1,137.75L1033.1,137.75" style="fill:none;stroke:#1FD3AC" />
<path d="M1028.1,138.58L1033.1,138.58" style="fill:none;stroke:#1FD3AC" />
<path d="M1036.1,138.14L1036.1,138.43" style="fill:none;stroke:#1FD3AC" />
<path d="M1033.6,138.14L1038.6,138.14" style="fill:none;stroke:#1FD3AC" />
<path d="M1033.6,138.43L1038.6,138.43" style="fill:none;stroke:#1FD3AC" />
<path d="M1041.7,137.17L1041.7,137.85" style="fill:none;stroke:#1FD3AC" />
<path d="M1039.2,137.17L1044.2,137.17" style="fill:none;stroke:#1FD3AC" />
<path d="M1039.2,137.85L1044.2,137.85" style="fill:none;stroke:#1FD3AC" />
<path d="M1047.2,134.89L1047.2,136.61" style="fill:none;stroke:#1FD3AC" />
<path d="M1044.7,134.89L1049.7,134.89" style="fill:none;stroke:#1FD3AC" />
<path d="M1044.7,136.61L1049.7,136.61" style="fill:none;stroke:#1FD3AC" />
<path d="M1052.8,134.84L1052.8,136.35" style="fill:none;stroke:#1FD3AC" />
<path d="M1050.3,134.84L1055.3,134.84" style="fill:none;stroke:#1FD3AC" />
<path d="M1050.3,136.35L1055.3,136.35" style="fill:none;stroke:#1FD3AC" />
<path d="M1058.3,134.48L1058.3,135.81" style="fill:none;stroke:#1FD3AC" />
<path d="M1055.8,134.48L1060.8,134.48" style="fill:none;stroke:#1FD3AC" />
<path d="M1055.8,135.81L1060.8,135.81" style="fill:none;stroke:#1FD3AC" />
<path d="M1063.9,134.07L1063.9,135.16" style="fill:none;stroke:#1FD3AC" />
<path d="M1061.4,134.07L1066.4,134.07" style="fill:none;stroke:#1FD3AC" />
<path d="M1061.4,135.16L1066.4,135.16" style="fill:none;stroke:#1FD3AC" />
<path d="M1069.4,134.12L1069.4,135.01" style="fill:none;stroke:#1FD3AC" />
<path d="M1066.9,134.12L1071.9,134.12" style="fill:none;stroke:#1FD3AC" />
<path d="M1066.9,135.01L1071.9,135.01" style="fill:none;stroke:#1FD3AC" />
<path d="M1075,133.32L1075,133.91" style="fill:none;stroke:#1FD3AC" />
<path d="M1072.5,133.32L1077.5,133.32" style="fill:none;stroke:#1FD3AC" />
<path d="M1072.5,133.91L1077.5,133.91" style="fill:none;stroke:#1FD3AC" />
<path d="M146.89,153.71A5,5 0 1 1 136.89,153.71A5,5 0 1 1 146.89,153.71Z" style="fill:#1FD3AC" />
<path d="M152.45,153.41A5,5 0 1 1 142.45,153.41A5,5 0 1 1 152.45,153.41Z" style="fill:#1FD3AC" />
<path d="M158,152.9A5,5 0 1 1 148,152.9A5,5 0 1 1 158,152.9Z" style="fill:#1FD3AC" />
<path d="M163.56,152A5,5 0 1 1 153.56,152A5,5 0 1 1 163.56,152Z" style="fill:#1FD3AC" />
<path d="M169.11,151.56A5,5 0 1 1 159.11,151.56A5,5 0 1 1 169.11,151.56Z" style="fill:#1FD3AC" />
<path d="M174.67,151.57A5,5 0 1 1 164.67,151.57A5,5 0 1 1 174.67,151.57Z" style="fill:#1FD3AC" />
<path d="M180.22,151.11A5,5 0 1 1 170.22,151.11A5,5 0 1 1 180.22,151.11Z" style="fill:#1FD3AC" />
<path d="M185.77,150.73A5,5 0 1 1 175.77,150.73A5,5 0 1 1 185.77,150.73Z" style="fill:#1FD3AC" />
<path d="M191.33,150.82A5,5 0 1 1 181.33,150.82A5,5 0 1 1 191.33,150.82Z" style="fill:#1FD3AC" />
<path d="M196.88,150.38A5,5 0 1 1 186.88,150.38A5,5 0 1 1 196.88,150.38Z" style="fill:#1FD3AC" />
<path d="M202.44,150.18A5,5 0 1 1 192.44,150.18A5,5 0 1 1 202.44,150.18Z" style="fill:#1FD3AC" />
<path d="M207.99,149.73A5,5 0 1 1 197.99,149.73A5,5 0 1 1 207.99,149.73Z" style="fill:#1FD3AC" />
<path d="M213.54,149.3A5,5 0 1 1 203.54,149.3A5,5 0 1 1 213.54,149.3Z" style="fill:#1FD3AC" />
<path d="M219.1,149.27A5,5 0 1 1 209.1,149.27A5,5 0 1 1 219.1,149.27Z" style="fill:#1FD3AC" />
<path d="M224.65,149.25A5,5 0 1 1 214.65,149.25A5,5 0 1 1 224.65,149.25Z" style="fill:#1FD3AC" />
<path d="M230.21,149.15A5,5 0 1 1 220.21,149.15A5,5 0 1 1 230.21,149.15Z" style="fill:#1FD3AC" />
<path d="M235.76,149.08A5,5 0 1 1 225.76,149.08A5,5 0 1 1 235.76,149.08Z" style="fill:#1FD3AC" />
<path d="M241.32,149.16A5,5 0 1 1 231.32,149.16A5,5 0 1 1 241.32,149.16Z" style="fill:#1FD3AC" />
<path d="M246.87,149.23A5,5 0 1 1 236.87,149.23A5,5 0 1 1 246.87,149.23Z" style="fill:#1FD3AC" />
<path d="M252.42,149.12A5,5 0 1 1 242.42,149.12A5,5 0 1 1 252.42,149.12Z" style="fill:#1FD3AC" />
<path d="M257.98,149.61A5,5 0 1 1 247.98,149.61A5,5 0 1 1 257.98,149.61Z" style="fill:#1FD3AC" />
<path d="M263.53,149.52A5,5 0 1 1 253.53,149.52A5,5 0 1 1 263.53,149.52Z" style="fill:#1FD3AC" />
<path d="M269.09,150.05A5,5 0 1 1 259.09,150.05A5,5 0 1 1 269.09,150.05Z" style="fill:#1FD3AC" />
<path d="M274.64,150.26A5,5 0 1 1 264.64,150.26A5,5 0 1 1 274.64,150.26Z" style="fill:#1FD3AC" />
<path d="M280.2,150.22A5,5 0 1 1 270.2,150.22A5,5 0 1 1 280.2,150.22Z" style="fill:#1FD3AC" />
<path d="M285.75,150.47A5,5 0 1 1 275.75,150.47A5,5 0 1 1 285.75,150.47Z" style="fill:#1FD3AC" />
<path d="M291.3,151.1A5,5 0 1 1 281.3,151.1A5,5 0 1 1 291.3,151.1Z" style="fill:#1FD3AC" />
<path d="M296.86,152.06A5,5 0 1 1 286.86,152.06A5,5 0 1 1 296.86,152.06Z" style="fill:#1FD3AC" />
<path d="M302.41,152.63A5,5 0 1 1 292.41,152.63A5,5 0 1 1 302.41,152.63Z" style="fill:#1FD3AC" />
<path d="M307.97,153.17A5,5 0 1 1 297.97,153.17A5,5 0 1 1 307.97,153.17Z" style="fill:#1FD3AC" />
<path d="M313.52,153.83A5,5 0 1 1 303.52,153.83A5,5 0 1 1 313.52,153.83Z" style="fill:#1FD3AC" />
<path d="M319.07,154.98A5,5 0 1 1 309.07,154.98A5,5 0 1 1 319.07,154.98Z" style="fill:#1FD3AC" />
<path d="M324.63,155.71A5,5 0 1 1 314.63,155.71A5,5 0 1 1 324.63,155.71Z" style="fill:#1FD3AC" />
<path d="M330.18,156.83A5,5 0 1 1 320.18,156.83A5,5 0 1 1 330.18,156.83Z" style="fill:#1FD3AC" />
<path d="M335.74,157.83A5,5 0 1 1 325.74,157.83A5,5 0 1 1 335.74,157.83Z" style="fill:#1FD3AC" />
<path d="M341.29,159.19A5,5 0 1 1 331.29,159.19A5,5 0 1 1 341.29,159.19Z" style="fill:#1FD3AC" />
<path d="M346.85,160.56A5,5 0 1 1 336.85,160.56A5,5 0 1 1 346.85,160.56Z" style="fill:#1FD3AC" />
<path d="M352.4,162.05A5,5 0 1 1 342.4,162.05A5,5 0 1 1 352.4,162.05Z" style="fill:#1FD3AC" />
<path d="M357.95,163.48A5,5 0 1 1 347.95,163.48A5,5 0 1 1 357.95,163.48Z" style="fill:#1FD3AC" />
<path d="M363.51,164.8A5,5 0 1 1 353.51,164.8A5,5 0 1 1 363.51,164.8Z" style="fill:#1FD3AC" />
<path d="M369.06,166.5A5,5 0 1 1 359.06,166.5A5,5 0 1 1 369.06,166.5Z" style="fill:#1FD3AC" />
<path d="M374.62,168.53A5,5 0 1 1 364.62,168.53A5,5 0 1 1 374.62,168.53Z" style="fill:#1FD3AC" />
<path d="M380.17,170.67A5,5 0 1 1 370.17,170.67A5,5 0 1 1 380.17,170.67Z" style="fill:#1FD3AC" />
<path d="M385.73,172.76A5,5 0 1 1 375.73,172.76A5,5 0 1 1 385.73,172.76Z" style="fill:#1FD3AC" />
<path d="M391.28,175.25A5,5 0 1 1 381.28,175.25A5,5 0 1 1 391.28,175.25Z" style="fill:#1FD3AC" />
<path d="M396.83,177.93A5,5 0 1 1 386.83,177.93A5,5 0 1 1 396.83,177.93Z" style="fill:#1FD3AC" />
<path d="M402.39,180.81A5,5 0 1 1 392.39,180.81A5,5 0 1 1 402.39,180.81Z" style="fill:#1FD3AC" />
<path d="M407.94,183.57A5,5 0 1 1 397.94,183.57A5,5 0 1 1 407.94,183.57Z" style="fill:#1FD3AC" />
<path d="M413.5,186.49A5,5 0 1 1 403.5,186.49A5,5 0 1 1 413.5,186.49Z" style="fill:#1FD3AC" />
<path d="M419.05,190.34A5,5 0 1 1 409.05,190.34A5,5 0 1 1 419.05,190.34Z" style="fill:#1FD3AC" />
<path d="M424.6,194.46A5,5 0 1 1 414.6,194.46A5,5 0 1 1 424.6,194.46Z" style="fill:#1FD3AC" />
<path d="M430.16,198.87A5,5 0 1 1 420.16,198.87A5,5 0 1 1 430.16,198.87Z" style="fill:#1FD3AC" />
<path d="M435.71,204.01A5,5 0 1 1 425.71,204.01A5,5 0 1 1 435.71,204.01Z" style="fill:#1FD3AC" />
<path d="M441.27,209.1A5,5 0 1 1 431.27,209.1A5,5 0 1 1 441.27,209.1Z" style="fill:#1FD3AC" />
<path d="M446.82,214.48A5,5 0 1 1 436.82,214.48A5,5 0 1 1 446.82,214.48Z" style="fill:#1FD3AC" />
<path d="M452.38,220.68A5,5 0 1 1 442.38,220.68A5,5 0 1 1 452.38,220.68Z" style="fill:#1FD3AC" />
<path d="M457.93,227.13A5,5 0 1 1 447.93,227.13A5,5 0 1 1 457.93,227.13Z" style="fill:#1FD3AC" />
<path d="M463.48,235.37A5,5 0 1 1 453.48,235.37A5,5 0 1 1 463.48,235.37Z" style="fill:#1FD3AC" />
<path d="M469.04,243.55A5,5 0 1 1 459.04,243.55A5,5 0 1 1 469.04,243.55Z" style="fill:#1FD3AC" />
<path d="M474.59,252.41A5,5 0 1 1 464.59,252.41A5,5 0 1 1 474.59,252.41Z" style="fill:#1FD3AC" />
<path d="M480.15,261.91A5,5 0 1 1 470.15,261.91A5,5 0 1 1 480.15,261.91Z" style="fill:#1FD3AC" />
<path d="M485.7,272.99A5,5 0 1 1 475.7,272.99A5,5 0 1 1 485.7,272.99Z" style="fill:#1FD3AC" />
<path d="M491.25,284.22A5,5 0 1 1 481.25,284.22A5,5 0 1 1 491.25,284.22Z" style="fill:#1FD3AC" />
<path d="M496.81,297.14A5,5 0 1 1 486.81,297.14A5,5 0 1 1 496.81,297.14Z" style="fill:#1FD3AC" />
<path d="M502.36,311.54A5,5 0 1 1 492.36,311.54A5,5 0 1 1 502.36,311.54Z" style="fill:#1FD3AC" />
<path d="M507.92,326.6A5,5 0 1 1 497.92,326.6A5,5 0 1 1 507.92,326.6Z" style="fill:#1FD3AC" />
<path d="M513.47,343.8A5,5 0 1 1 503.47,343.8A5,5 0 1 1 513.47,343.8Z" style="fill:#1FD3AC" />
<path d="M519.03,362.55A5,5 0 1 1 509.03,362.55A5,5 0 1 1 519.03,362.55Z" style="fill:#1FD3AC" />
<path d="M524.58,382.98A5,5 0 1 1 514.58,382.98A5,5 0 1 1 524.58,382.98Z" style="fill:#1FD3AC" />
<path d="M530.13,405.19A5,5 0 1 1 520.13,405.19A5,5 0 1 1 530.13,405.19Z" style="fill:#1FD3AC" />
<path d="M535.69,429.29A5,5 0 1 1 525.69,429.29A5,5 0 1 1 535.69,429.29Z" style="fill:#1FD3AC" />
<path d="M541.24,455.43A5,5 0 1 1 531.24,455.43A5,5 0 1 1 541.24,455.43Z" style="fill:#1FD3AC" />
<path d="M546.8,484.62A5,5 0 1 1 536.8,484.62A5,5 0 1 1 546.8,484.62Z" style="fill:#1FD3AC" />
<path d="M552.35,518.35A5,5 0 1 1 542.35,518.35A5,5 0 1 1 552.35,518.35Z" style="fill:#1FD3AC" />
<path d="M557.91,557.1A5,5 0 1 1 547.91,557.1A5,5 0 1 1 557.91,557.1Z" style="fill:#1FD3AC" />
<path d="M563.46,597.62A5,5 0 1 1 553.46,597.62A5,5 0 1 1 563.46,597.62Z" style="fill:#1FD3AC" />
<path d="M569.01,643.31A5,5 0 1 1 559.01,643.31A5,5 0 1 1 569.01,643.31Z" style="fill:#1FD3AC" />
<path d="M574.57,692.52A5,5 0 1 1 564.57,692.52A5,5 0 1 1 574.57,692.52Z" style="fill:#1FD3AC" />
<path d="M580.12,745.18A5,5 0 1 1 570.12,745.18A5,5 0 1 1 580.12,745.18Z" style="fill:#1FD3AC" />
<path d="M585.68,797.09A5,5 0 1 1 575.68,797.09A5,5 0 1 1 585.68,797.09Z" style="fill:#1FD3AC" />
<path d="M591.23,845.95A5,5 0 1 1 581.23,845.95A5,5 0 1 1 591.23,845.95Z" style="fill:#1FD3AC" />
<path d="M596.78,883.14A5,5 0 1 1 586.78,883.14A5,5 0 1 1 596.78,883.14Z" style="fill:#1FD3AC" />
<path d="M602.34,896.22A5,5 0 1 1 592.34,896.22A5,5 0 1 1 602.34,896.22Z" style="fill:#1FD3AC" />
<path d="M607.89,880.74A5,5 0 1 1 597.89,880.74A5,5 0 1 1 607.89,880.74Z" style="fill:#1FD3AC" />
<path d="M613.45,836.09A5,5 0 1 1 603.45,836.09A5,5 0 1 1 613.45,836.09Z" style="fill:#1FD3AC" />
<path d="M619,774.7A5,5 0 1 1 609,774.7A5,5 0 1 1 619,774.7Z" style="fill:#1FD3AC" />
<path d="M624.56,705.81A5,5 0 1 1 614.56,705.81A5,5 0 1 1 624.56,705.81Z" style="fill:#1FD3AC" />
<path d="M630.11,637.96A5,5 0 1 1 620.11,637.96A5,5 0 1 1 630.11,637.96Z" style="fill:#1FD3AC" />
<path d="M635.66,577.24A5,5 0 1 1 625.66,577.24A5,5 0 1 1 635.66,577.24Z" style="fill:#1FD3AC" />
<path d="M641.22,521.55A5,5 0 1 1 631.22,521.55A5,5 0 1 1 641.22,521.55Z" style="fill:#1FD3AC" />
<path d="M646.77,472.86A5,5 0 1 1 636.77,472.86A5,5 0 1 1 646.77,472.86Z" style="fill:#1FD3AC" />
<path d="M652.33,431.13A5,5 0 1 1 642.33,431.13A5,5 0 1 1 652.33,431.13Z" style="fill:#1FD3AC" />
<path d="M657.88,394.82A5,5 0 1 1 647.88,394.82A5,5 0 1 1 657.88,394.82Z" style="fill:#1FD3AC" />
<path d="M663.44,362.68A5,5 0 1 1 653.44,362.68A5,5 0 1 1 663.44,362.68Z" style="fill:#1FD3AC" />
<path d="M668.99,335.51A5,5 0 1 1 658.99,335.51A5,5 0 1 1 668.99,335.51Z" style="fill:#1FD3AC" />
<path d="M674.54,312.66A5,5 0 1 1 664.54,312.66A5,5 0 1 1 674.54,312.66Z" style="fill:#1FD3AC" />
<path d="M680.1,293.05A5,5 0 1 1 670.1,293.05A5,5 0 1 1 680.1,293.05Z" style="fill:#1FD3AC" />
<path d="M685.65,276.03A5,5 0 1 1 675.65,276.03A5,5 0 1 1 685.65,276.03Z" style="fill:#1FD3AC" />
<path d="M691.21,260.41A5,5 0 1 1 681.21,260.41A5,5 0 1 1 691.21,260.41Z" style="fill:#1FD3AC" />
<path d="M696.76,247.12A5,5 0 1 1 686.76,247.12A5,5 0 1 1 696.76,247.12Z" style="fill:#1FD3AC" />
<path d="M702.31,235.65A5,5 0 1 1 692.31,235.65A5,5 0 1 1 702.31,235.65Z" style="fill:#1FD3AC" />
<path d="M707.87,225.96A5,5 0 1 1 697.87,225.96A5,5 0 1 1 707.87,225.96Z" style="fill:#1FD3AC" />
<path d="M713.42,217.56A5,5 0 1 1 703.42,217.56A5,5 0 1 1 713.42,217.56Z" style="fill:#1FD3AC" />
<path d="M718.98,209.76A5,5 0 1 1 708.98,209.76A5,5 0 1 1 718.98,209.76Z" style="fill:#1FD3AC" />
<path d="M724.53,202.23A5,5 0 1 1 714.53,202.23A5,5 0 1 1 724.53,202.23Z" style="fill:#1FD3AC" />
<path d="M730.09,196.42A5,5 0 1 1 720.09,196.42A5,5 0 1 1 730.09,196.42Z" style="fill:#1FD3AC" />
<path d="M735.64,191.62A5,5 0 1 1 725.64,191.62A5,5 0 1 1 735.64,191.62Z" style="fill:#1FD3AC" />
<path d="M741.19,186.85A5,5 0 1 1 731.19,186.85A5,5 0 1 1 741.19,186.85Z" style="fill:#1FD3AC" />
<path d="M746.75,182.74A5,5 0 1 1 736.75,182.74A5,5 0 1 1 746.75,182.74Z" style="fill:#1FD3AC" />
<path d="M752.3,178.82A5,5 0 1 1 742.3,178.82A5,5 0 1 1 752.3,178.82Z" style="fill:#1FD3AC" />
<path d="M757.86,175.03A5,5 0 1 1 747.86,175.03A5,5 0 1 1 757.86,175.03Z" style="fill:#1FD3AC" />
<path d="M763.41,171.81A5,5 0 1 1 753.41,171.81A5,5 0 1 1 763.41,171.81Z" style="fill:#1FD3AC" />
<path d="M768.96,169.29A5,5 0 1 1 758.96,169.29A5,5 0 1 1 768.96,169.29Z" style="fill:#1FD3AC" />
<path d="M774.52,166.81A5,5 0 1 1 764.52,166.81A5,5 0 1 1 774.52,166.81Z" style="fill:#1FD3AC" />
<path d="M780.07,164.37A5,5 0 1 1 770.07,164.37A5,5 0 1 1 780.07,164.37Z" style="fill:#1FD3AC" />
<path d="M785.63,161.94A5,5 0 1 1 775.63,161.94A5,5 0 1 1 785.63,161.94Z" style="fill:#1FD3AC" />
<path d="M791.18,160.11A5,5 0 1 1 781.18,160.11A5,5 0 1 1 791.18,160.11Z" style="fill:#1FD3AC" />
<path d="M796.74,158.48A5,5 0 1 1 786.74,158.48A5,5 0 1 1 796.74,158.48Z" style="fill:#1FD3AC" />
<path d="M802.29,156.91A5,5 0 1 1 792.29,156.91A5,5 0 1 1 802.29,156.91Z" style="fill:#1FD3AC" />
<path d="M807.84,155.18A5,5 0 1 1 797.84,155.18A5,5 0 1 1 807.84,155.18Z" style="fill:#1FD3AC" />
<path d="M813.4,153.87A5,5 0 1 1 803.4,153.87A5,5 0 1 1 813.4,153.87Z" style="fill:#1FD3AC" />
<path d="M818.95,152.37A5,5 0 1 1 808.95,152.37A5,5 0 1 1 818.95,152.37Z" style="fill:#1FD3AC" />
<path d="M824.51,151.02A5,5 0 1 1 814.51,151.02A5,5 0 1 1 824.51,151.02Z" style="fill:#1FD3AC" />
<path d="M830.06,149.44A5,5 0 1 1 820.06,149.44A5,5 0 1 1 830.06,149.44Z" style="fill:#1FD3AC" />
<path d="M835.62,148.85A5,5 0 1 1 825.62,148.85A5,5 0 1 1 835.62,148.85Z" style="fill:#1FD3AC" />
<path d="M841.17,148.05A5,5 0 1 1 831.17,148.05A5,5 0 1 1 841.17,148.05Z" style="fill:#1FD3AC" />
<path d="M846.72,147.49A5,5 0 1 1 836.72,147.49A5,5 0 1 1 846.72,147.49Z" style="fill:#1FD3AC" />
<path d="M852.28,146.79A5,5 0 1 1 842.28,146.79A5,5 0 1 1 852.28,146.79Z" style="fill:#1FD3AC" />
<path d="M857.83,146.12A5,5 0 1 1 847.83,146.12A5,5 0 1 1 857.83,146.12Z" style="fill:#1FD3AC" />
<path d="M863.39,144.95A5,5 0 1 1 853.39,144.95A5,5 0 1 1 863.39,144.95Z" style="fill:#1FD3AC" />
<path d="M868.94,143.64A5,5 0 1 1 858.94,143.64A5,5 0 1 1 868.94,143.64Z" style="fill:#1FD3AC" />
<path d="M874.49,142.83A5,5 0 1 1 864.49,142.83A5,5 0 1 1 874.49,142.83Z" style="fill:#1FD3AC" />
<path d="M880.05,142.51A5,5 0 1 1 870.05,142.51A5,5 0 1 1 880.05,142.51Z" style="fill:#1FD3AC" />
<path d="M885.6,142.55A5,5 0 1 1 875.6,142.55A5,5 0 1 1 885.6,142.55Z" style="fill:#1FD3AC" />
<path d="M891.16,142.29A5,5 0 1 1 881.16,142.29A5,5 0 1 1 891.16,142.29Z" style="fill:#1FD3AC" />
<path d="M896.71,141.65A5,5 0 1 1 886.71,141.65A5,5 0 1 1 896.71,141.65Z" style="fill:#1FD3AC" />
<path d="M902.27,140.92A5,5 0 1 1 892.27,140.92A5,5 0 1 1 902.27,140.92Z" style="fill:#1FD3AC" />
<path d="M907.82,140.43A5,5 0 1 1 897.82,140.43A5,5 0 1 1 907.82,140.43Z" style="fill:#1FD3AC" />
<path d="M913.37,140.23A5,5 0 1 1 903.37,140.23A5,5 0 1 1 913.37,140.23Z" style="fill:#1FD3AC" />
<path d="M918.93,140.09A5,5 0 1 1 908.93,140.09A5,5 0 1 1 918.93,140.09Z" style="fill:#1FD3AC" />
<path d="M924.48,139.76A5,5 0 1 1 914.48,139.76A5,5 0 1 1 924.48,139.76Z" style="fill:#1FD3AC" />
<path d="M930.04,139.82A5,5 0 1 1 920.04,139.82A5,5 0 1 1 930.04,139.82Z" style="fill:#1FD3AC" />
<path d="M935.59,139.12A5,5 0 1 1 925.59,139.12A5,5 0 1 1 935.59,139.12Z" style="fill:#1FD3AC" />
<path d="M941.15,139.37A5,5 0 1 1 931.15,139.37A5,5 0 1 1 941.15,139.37Z" style="fill:#1FD3AC" />
<path d="M946.7,139.4A5,5 0 1 1 936.7,139.4A5,5 0 1 1 946.7,139.4Z" style="fill:#1FD3AC" />
<path d="M952.25,139.82A5,5 0 1 1 942.25,139.82A5,5 0 1 1 952.25,139.82Z" style="fill:#1FD3AC" />
<path d="M957.81,140.03A5,5 0 1 1 947.81,140.03A5,5 0 1 1 957.81,140.03Z" style="fill:#1FD3AC" />
<path d="M963.36,139.92A5,5 0 1 1 953.36,139.92A5,5 0 1 1 963.36,139.92Z" style="fill:#1FD3AC" />
<path d="M968.92,139.7A5,5 0 1 1 958.92,139.7A5,5 0 1 1 968.92,139.7Z" style="fill:#1FD3AC" />
<path d="M974.47,139.75A5,5 0 1 1 964.47,139.75A5,5 0 1 1 974.47,139.75Z" style="fill:#1FD3AC" />
<path d="M980.02,139.6A5,5 0 1 1 970.02,139.6A5,5 0 1 1 980.02,139.6Z" style="fill:#1FD3AC" />
<path d="M985.58,139.13A5,5 0 1 1 975.58,139.13A5,5 0 1 1 985.58,139.13Z" style="fill:#1FD3AC" />
<path d="M991.13,139.52A5,5 0 1 1 981.13,139.52A5,5 0 1 1 991.13,139.52Z" style="fill:#1FD3AC" />
<path d="M996.69,139.6A5,5 0 1 1 986.69,139.6A5,5 0 1 1 996.69,139.6Z" style="fill:#1FD3AC" />
<path d="M1002.2,139.85A5,5 0 1 1 992.24,139.85A5,5 0 1 1 1002.2,139.85Z" style="fill:#1FD3AC" />
<path d="M1007.8,139.75A5,5 0 1 1 997.8,139.75A5,5 0 1 1 1007.8,139.75Z" style="fill:#1FD3AC" />
<path d="M1013.3,139.25A5,5 0 1 1 1003.3,139.25A5,5 0 1 1 1013.3,139.25Z" style="fill:#1FD3AC" />
<path d="M1018.9,138.46A5,5 0 1 1 1008.9,138.46A5,5 0 1 1 1018.9,138.46Z" style="fill:#1FD3AC" />
<path d="M1024.5,138.06A5,5 0 1 1 1014.5,138.06A5,5 0 1 1 1024.5,138.06Z" style="fill:#1FD3AC" />
<path d="M1030,138.15A5,5 0 1 1 1020,138.15A5,5 0 1 1 1030,138.15Z" style="fill:#1FD3AC" />
<path d="M1035.6,138.17A5,5 0 1 1 1025.6,138.17A5,5 0 1 1 1035.6,138.17Z" style="fill:#1FD3AC" />
<path d="M1041.1,138.28A5,5 0 1 1 1031.1,138.28A5,5 0 1 1 1041.1,138.28Z" style="fill:#1FD3AC" />
<path d="M1046.7,137.51A5,5 0 1 1 1036.7,137.51A5,5 0 1 1 1046.7,137.51Z" style="fill:#1FD3AC" />
<path d="M1052.2,135.75A5,5 0 1 1 1042.2,135.75A5,5 0 1 1 1052.2,135.75Z" style="fill:#1FD3AC" />
<path d="M1057.8,135.6A5,5 0 1 1 1047.8,135.6A5,5 0 1 1 1057.8,135.6Z" style="fill:#1FD3AC" />
<path d="M1063.3,135.14A5,5 0 1 1 1053.3,135.14A5,5 0 1 1 1063.3,135.14Z" style="fill:#1FD3AC" />
<path d="M1068.9,134.61A5,5 0 1 1 1058.9,134.61A5,5 0 1 1 1068.9,134.61Z" style="fill:#1FD3AC" />
<path d="M1074.4,134.57A5,5 0 1 1 1064.4,134.57A5,5 0 1 1 1074.4,134.57Z" style="fill:#1FD3AC" />
<path d="M1080,133.61A5,5 0 1 1 1070,133.61A5,5 0 1 1 1080,133.61Z" style="fill:#1FD3AC" />
<path d="M141.89,974.14L1075,974.14" style="fill:none;stroke:#000000;stroke-width:2" />
<path d="M1075,117.07L1075,974.14" style="fill:none;stroke:#000000;stroke-width:2" />
<path d="M1013,927.49A8,8 0 1 1 997,927.49A8,8 0 1 1 1013,927.49Z" style="fill:#1FD3AC" />
<text x="816.63" y="-920.9" transform="scale(1, -1)"
	style="font-family:Helvetica;font-weight:normal;font-style:normal;font-size:28px">1cm UHNA3</text>
</g>
</svg>
