<?xml version="1.0"?>
<!-- Generated by SVGo and Plotinum VG -->
<svg width="1080pt" height="1080pt" viewBox="0 0 1080 1080"
	xmlns="http://www.w3.org/2000/svg"
	xmlns:xlink="http://www.w3.org/1999/xlink">
<g transform="scale(1, -1) translate(0, -1080)">
<path d="M0,0L1080,0L1080,1080L0,1080Z" style="fill:#-8000000000000000-8000000000000000-8000000000000000;fill-opacity:0" />
<text x="180.55" y="-1015.2" transform="scale(1, -1)"
	style="font-family:Helvetica;font-weight:normal;font-style:normal;font-size:80px">500 nm TeO2 CABS</text>
<text x="448.07" y="-17.172" transform="scale(1, -1)"
	style="font-family:Helvetica;font-weight:normal;font-style:normal;font-size:56px">Frequency (GHz)</text>
<text x="197.33" y="-119.73" transform="scale(1, -1)"
	style="font-family:Helvetica;font-weight:normal;font-style:normal;font-size:56px">11.9</text>
<text x="525.68" y="-119.73" transform="scale(1, -1)"
	style="font-family:Helvetica;font-weight:normal;font-style:normal;font-size:56px">12.1</text>
<text x="856.11" y="-119.73" transform="scale(1, -1)"
	style="font-family:Helvetica;font-weight:normal;font-style:normal;font-size:56px">12.3</text>
<path d="M249.75,181.12L249.75,173.12" style="fill:none;stroke:#000000;stroke-width:1.5" />
<path d="M414.97,177.12L414.97,173.12" style="fill:none;stroke:#000000;stroke-width:1.5" />
<path d="M580.18,181.12L580.18,173.12" style="fill:none;stroke:#000000;stroke-width:1.5" />
<path d="M745.4,177.12L745.4,173.12" style="fill:none;stroke:#000000;stroke-width:1.5" />
<path d="M910.61,181.12L910.61,173.12" style="fill:none;stroke:#000000;stroke-width:1.5" />
<path d="M1075.8,177.12L1075.8,173.12" style="fill:none;stroke:#000000;stroke-width:1.5" />
<path d="M249.75,173.12L1075.8,173.12" style="fill:none;stroke:#000000;stroke-width:1.5" />
<g transform="rotate(90)">
<text x="277.4" y="45.391" transform="scale(1, -1)"
	style="font-family:Helvetica;font-weight:normal;font-style:normal;font-size:56px">Spectral Density (uV)</text>
</g>
<text x="114.43" y="-232.87" transform="scale(1, -1)"
	style="font-family:Helvetica;font-weight:normal;font-style:normal;font-size:56px">0.25</text>
<text x="114.43" y="-380.35" transform="scale(1, -1)"
	style="font-family:Helvetica;font-weight:normal;font-style:normal;font-size:56px">0.75</text>
<text x="114.43" y="-527.82" transform="scale(1, -1)"
	style="font-family:Helvetica;font-weight:normal;font-style:normal;font-size:56px">1.25</text>
<text x="114.43" y="-675.3" transform="scale(1, -1)"
	style="font-family:Helvetica;font-weight:normal;font-style:normal;font-size:56px">1.75</text>
<text x="114.43" y="-822.78" transform="scale(1, -1)"
	style="font-family:Helvetica;font-weight:normal;font-style:normal;font-size:56px">2.25</text>
<path d="M250.98,173.24L246.98,173.24" style="fill:none;stroke:#000000;stroke-width:1.5" />
<path d="M254.98,246.98L246.98,246.98" style="fill:none;stroke:#000000;stroke-width:1.5" />
<path d="M250.98,320.72L246.98,320.72" style="fill:none;stroke:#000000;stroke-width:1.5" />
<path d="M254.98,394.46L246.98,394.46" style="fill:none;stroke:#000000;stroke-width:1.5" />
<path d="M250.98,468.2L246.98,468.2" style="fill:none;stroke:#000000;stroke-width:1.5" />
<path d="M254.98,541.93L246.98,541.93" style="fill:none;stroke:#000000;stroke-width:1.5" />
<path d="M250.98,615.67L246.98,615.67" style="fill:none;stroke:#000000;stroke-width:1.5" />
<path d="M254.98,689.41L246.98,689.41" style="fill:none;stroke:#000000;stroke-width:1.5" />
<path d="M250.98,763.15L246.98,763.15" style="fill:none;stroke:#000000;stroke-width:1.5" />
<path d="M254.98,836.89L246.98,836.89" style="fill:none;stroke:#000000;stroke-width:1.5" />
<path d="M250.98,910.62L246.98,910.62" style="fill:none;stroke:#000000;stroke-width:1.5" />
<path d="M246.98,173.24L246.98,910.62" style="fill:none;stroke:#000000;stroke-width:1.5" />
<path d="M257.23,386.72A5,5 0 1 1 247.23,386.72A5,5 0 1 1 257.23,386.72Z" style="fill:#1FD3AC" />
<path d="M260.53,393.12A5,5 0 1 1 250.53,393.12A5,5 0 1 1 260.53,393.12Z" style="fill:#1FD3AC" />
<path d="M263.84,398.85A5,5 0 1 1 253.84,398.85A5,5 0 1 1 263.84,398.85Z" style="fill:#1FD3AC" />
<path d="M267.14,387.67A5,5 0 1 1 257.14,387.67A5,5 0 1 1 267.14,387.67Z" style="fill:#1FD3AC" />
<path d="M270.45,389.53A5,5 0 1 1 260.45,389.53A5,5 0 1 1 270.45,389.53Z" style="fill:#1FD3AC" />
<path d="M273.75,373.39A5,5 0 1 1 263.75,373.39A5,5 0 1 1 273.75,373.39Z" style="fill:#1FD3AC" />
<path d="M277.06,376.91A5,5 0 1 1 267.06,376.91A5,5 0 1 1 277.06,376.91Z" style="fill:#1FD3AC" />
<path d="M280.36,386.35A5,5 0 1 1 270.36,386.35A5,5 0 1 1 280.36,386.35Z" style="fill:#1FD3AC" />
<path d="M283.66,411.07A5,5 0 1 1 273.66,411.07A5,5 0 1 1 283.66,411.07Z" style="fill:#1FD3AC" />
<path d="M286.97,378.76A5,5 0 1 1 276.97,378.76A5,5 0 1 1 286.97,378.76Z" style="fill:#1FD3AC" />
<path d="M290.27,363.91A5,5 0 1 1 280.27,363.91A5,5 0 1 1 290.27,363.91Z" style="fill:#1FD3AC" />
<path d="M293.58,388.24A5,5 0 1 1 283.58,388.24A5,5 0 1 1 293.58,388.24Z" style="fill:#1FD3AC" />
<path d="M296.88,394.32A5,5 0 1 1 286.88,394.32A5,5 0 1 1 296.88,394.32Z" style="fill:#1FD3AC" />
<path d="M300.19,388.73A5,5 0 1 1 290.19,388.73A5,5 0 1 1 300.19,388.73Z" style="fill:#1FD3AC" />
<path d="M303.49,385.27A5,5 0 1 1 293.49,385.27A5,5 0 1 1 303.49,385.27Z" style="fill:#1FD3AC" />
<path d="M306.79,384.82A5,5 0 1 1 296.79,384.82A5,5 0 1 1 306.79,384.82Z" style="fill:#1FD3AC" />
<path d="M310.1,372.31A5,5 0 1 1 300.1,372.31A5,5 0 1 1 310.1,372.31Z" style="fill:#1FD3AC" />
<path d="M313.4,384.45A5,5 0 1 1 303.4,384.45A5,5 0 1 1 313.4,384.45Z" style="fill:#1FD3AC" />
<path d="M316.71,380.8A5,5 0 1 1 306.71,380.8A5,5 0 1 1 316.71,380.8Z" style="fill:#1FD3AC" />
<path d="M320.01,399.16A5,5 0 1 1 310.01,399.16A5,5 0 1 1 320.01,399.16Z" style="fill:#1FD3AC" />
<path d="M323.32,406.15A5,5 0 1 1 313.32,406.15A5,5 0 1 1 323.32,406.15Z" style="fill:#1FD3AC" />
<path d="M326.62,417A5,5 0 1 1 316.62,417A5,5 0 1 1 326.62,417Z" style="fill:#1FD3AC" />
<path d="M329.92,405.93A5,5 0 1 1 319.92,405.93A5,5 0 1 1 329.92,405.93Z" style="fill:#1FD3AC" />
<path d="M333.23,407.13A5,5 0 1 1 323.23,407.13A5,5 0 1 1 333.23,407.13Z" style="fill:#1FD3AC" />
<path d="M336.53,401.69A5,5 0 1 1 326.53,401.69A5,5 0 1 1 336.53,401.69Z" style="fill:#1FD3AC" />
<path d="M339.84,378.72A5,5 0 1 1 329.84,378.72A5,5 0 1 1 339.84,378.72Z" style="fill:#1FD3AC" />
<path d="M343.14,426.32A5,5 0 1 1 333.14,426.32A5,5 0 1 1 343.14,426.32Z" style="fill:#1FD3AC" />
<path d="M346.45,395.61A5,5 0 1 1 336.45,395.61A5,5 0 1 1 346.45,395.61Z" style="fill:#1FD3AC" />
<path d="M349.75,420.16A5,5 0 1 1 339.75,420.16A5,5 0 1 1 349.75,420.16Z" style="fill:#1FD3AC" />
<path d="M353.06,422.02A5,5 0 1 1 343.06,422.02A5,5 0 1 1 353.06,422.02Z" style="fill:#1FD3AC" />
<path d="M356.36,436.59A5,5 0 1 1 346.36,436.59A5,5 0 1 1 356.36,436.59Z" style="fill:#1FD3AC" />
<path d="M359.66,408.23A5,5 0 1 1 349.66,408.23A5,5 0 1 1 359.66,408.23Z" style="fill:#1FD3AC" />
<path d="M362.97,395.73A5,5 0 1 1 352.97,395.73A5,5 0 1 1 362.97,395.73Z" style="fill:#1FD3AC" />
<path d="M366.27,428.19A5,5 0 1 1 356.27,428.19A5,5 0 1 1 366.27,428.19Z" style="fill:#1FD3AC" />
<path d="M369.58,419.98A5,5 0 1 1 359.58,419.98A5,5 0 1 1 369.58,419.98Z" style="fill:#1FD3AC" />
<path d="M372.88,435A5,5 0 1 1 362.88,435A5,5 0 1 1 372.88,435Z" style="fill:#1FD3AC" />
<path d="M376.19,414.65A5,5 0 1 1 366.19,414.65A5,5 0 1 1 376.19,414.65Z" style="fill:#1FD3AC" />
<path d="M379.49,404.24A5,5 0 1 1 369.49,404.24A5,5 0 1 1 379.49,404.24Z" style="fill:#1FD3AC" />
<path d="M382.79,420.49A5,5 0 1 1 372.79,420.49A5,5 0 1 1 382.79,420.49Z" style="fill:#1FD3AC" />
<path d="M386.1,449.29A5,5 0 1 1 376.1,449.29A5,5 0 1 1 386.1,449.29Z" style="fill:#1FD3AC" />
<path d="M389.4,414.14A5,5 0 1 1 379.4,414.14A5,5 0 1 1 389.4,414.14Z" style="fill:#1FD3AC" />
<path d="M392.71,428.25A5,5 0 1 1 382.71,428.25A5,5 0 1 1 392.71,428.25Z" style="fill:#1FD3AC" />
<path d="M396.01,410.17A5,5 0 1 1 386.01,410.17A5,5 0 1 1 396.01,410.17Z" style="fill:#1FD3AC" />
<path d="M399.32,435.86A5,5 0 1 1 389.32,435.86A5,5 0 1 1 399.32,435.86Z" style="fill:#1FD3AC" />
<path d="M402.62,458.83A5,5 0 1 1 392.62,458.83A5,5 0 1 1 402.62,458.83Z" style="fill:#1FD3AC" />
<path d="M405.92,426.67A5,5 0 1 1 395.92,426.67A5,5 0 1 1 405.92,426.67Z" style="fill:#1FD3AC" />
<path d="M409.23,422.65A5,5 0 1 1 399.23,422.65A5,5 0 1 1 409.23,422.65Z" style="fill:#1FD3AC" />
<path d="M412.53,431.23A5,5 0 1 1 402.53,431.23A5,5 0 1 1 412.53,431.23Z" style="fill:#1FD3AC" />
<path d="M415.84,443.8A5,5 0 1 1 405.84,443.8A5,5 0 1 1 415.84,443.8Z" style="fill:#1FD3AC" />
<path d="M419.14,417A5,5 0 1 1 409.14,417A5,5 0 1 1 419.14,417Z" style="fill:#1FD3AC" />
<path d="M422.45,427.69A5,5 0 1 1 412.45,427.69A5,5 0 1 1 422.45,427.69Z" style="fill:#1FD3AC" />
<path d="M425.75,410.49A5,5 0 1 1 415.75,410.49A5,5 0 1 1 425.75,410.49Z" style="fill:#1FD3AC" />
<path d="M429.05,452.6A5,5 0 1 1 419.05,452.6A5,5 0 1 1 429.05,452.6Z" style="fill:#1FD3AC" />
<path d="M432.36,475.54A5,5 0 1 1 422.36,475.54A5,5 0 1 1 432.36,475.54Z" style="fill:#1FD3AC" />
<path d="M435.66,455.31A5,5 0 1 1 425.66,455.31A5,5 0 1 1 435.66,455.31Z" style="fill:#1FD3AC" />
<path d="M438.97,449.34A5,5 0 1 1 428.97,449.34A5,5 0 1 1 438.97,449.34Z" style="fill:#1FD3AC" />
<path d="M442.27,465.09A5,5 0 1 1 432.27,465.09A5,5 0 1 1 442.27,465.09Z" style="fill:#1FD3AC" />
<path d="M445.58,481.03A5,5 0 1 1 435.58,481.03A5,5 0 1 1 445.58,481.03Z" style="fill:#1FD3AC" />
<path d="M448.88,466.04A5,5 0 1 1 438.88,466.04A5,5 0 1 1 448.88,466.04Z" style="fill:#1FD3AC" />
<path d="M452.18,503.98A5,5 0 1 1 442.18,503.98A5,5 0 1 1 452.18,503.98Z" style="fill:#1FD3AC" />
<path d="M455.49,468.23A5,5 0 1 1 445.49,468.23A5,5 0 1 1 455.49,468.23Z" style="fill:#1FD3AC" />
<path d="M458.79,485.39A5,5 0 1 1 448.79,485.39A5,5 0 1 1 458.79,485.39Z" style="fill:#1FD3AC" />
<path d="M462.1,472.79A5,5 0 1 1 452.1,472.79A5,5 0 1 1 462.1,472.79Z" style="fill:#1FD3AC" />
<path d="M465.4,531.46A5,5 0 1 1 455.4,531.46A5,5 0 1 1 465.4,531.46Z" style="fill:#1FD3AC" />
<path d="M468.71,468.02A5,5 0 1 1 458.71,468.02A5,5 0 1 1 468.71,468.02Z" style="fill:#1FD3AC" />
<path d="M472.01,496.15A5,5 0 1 1 462.01,496.15A5,5 0 1 1 472.01,496.15Z" style="fill:#1FD3AC" />
<path d="M475.31,472.82A5,5 0 1 1 465.31,472.82A5,5 0 1 1 475.31,472.82Z" style="fill:#1FD3AC" />
<path d="M478.62,476.25A5,5 0 1 1 468.62,476.25A5,5 0 1 1 478.62,476.25Z" style="fill:#1FD3AC" />
<path d="M481.92,493.08A5,5 0 1 1 471.92,493.08A5,5 0 1 1 481.92,493.08Z" style="fill:#1FD3AC" />
<path d="M485.23,476.58A5,5 0 1 1 475.23,476.58A5,5 0 1 1 485.23,476.58Z" style="fill:#1FD3AC" />
<path d="M488.53,512.29A5,5 0 1 1 478.53,512.29A5,5 0 1 1 488.53,512.29Z" style="fill:#1FD3AC" />
<path d="M491.84,510.22A5,5 0 1 1 481.84,510.22A5,5 0 1 1 491.84,510.22Z" style="fill:#1FD3AC" />
<path d="M495.14,480.34A5,5 0 1 1 485.14,480.34A5,5 0 1 1 495.14,480.34Z" style="fill:#1FD3AC" />
<path d="M498.44,536.18A5,5 0 1 1 488.44,536.18A5,5 0 1 1 498.44,536.18Z" style="fill:#1FD3AC" />
<path d="M501.75,529.99A5,5 0 1 1 491.75,529.99A5,5 0 1 1 501.75,529.99Z" style="fill:#1FD3AC" />
<path d="M505.05,508.06A5,5 0 1 1 495.05,508.06A5,5 0 1 1 505.05,508.06Z" style="fill:#1FD3AC" />
<path d="M508.36,544.42A5,5 0 1 1 498.36,544.42A5,5 0 1 1 508.36,544.42Z" style="fill:#1FD3AC" />
<path d="M511.66,542.08A5,5 0 1 1 501.66,542.08A5,5 0 1 1 511.66,542.08Z" style="fill:#1FD3AC" />
<path d="M514.97,532.62A5,5 0 1 1 504.97,532.62A5,5 0 1 1 514.97,532.62Z" style="fill:#1FD3AC" />
<path d="M518.27,603.76A5,5 0 1 1 508.27,603.76A5,5 0 1 1 518.27,603.76Z" style="fill:#1FD3AC" />
<path d="M521.57,520.51A5,5 0 1 1 511.57,520.51A5,5 0 1 1 521.57,520.51Z" style="fill:#1FD3AC" />
<path d="M524.88,598.2A5,5 0 1 1 514.88,598.2A5,5 0 1 1 524.88,598.2Z" style="fill:#1FD3AC" />
<path d="M528.18,583.23A5,5 0 1 1 518.18,583.23A5,5 0 1 1 528.18,583.23Z" style="fill:#1FD3AC" />
<path d="M531.49,545.02A5,5 0 1 1 521.49,545.02A5,5 0 1 1 531.49,545.02Z" style="fill:#1FD3AC" />
<path d="M534.79,640.33A5,5 0 1 1 524.79,640.33A5,5 0 1 1 534.79,640.33Z" style="fill:#1FD3AC" />
<path d="M538.1,598.3A5,5 0 1 1 528.1,598.3A5,5 0 1 1 538.1,598.3Z" style="fill:#1FD3AC" />
<path d="M541.4,641.89A5,5 0 1 1 531.4,641.89A5,5 0 1 1 541.4,641.89Z" style="fill:#1FD3AC" />
<path d="M544.7,622.93A5,5 0 1 1 534.7,622.93A5,5 0 1 1 544.7,622.93Z" style="fill:#1FD3AC" />
<path d="M548.01,627.15A5,5 0 1 1 538.01,627.15A5,5 0 1 1 548.01,627.15Z" style="fill:#1FD3AC" />
<path d="M551.31,606.19A5,5 0 1 1 541.31,606.19A5,5 0 1 1 551.31,606.19Z" style="fill:#1FD3AC" />
<path d="M554.62,611.35A5,5 0 1 1 544.62,611.35A5,5 0 1 1 554.62,611.35Z" style="fill:#1FD3AC" />
<path d="M557.92,644.53A5,5 0 1 1 547.92,644.53A5,5 0 1 1 557.92,644.53Z" style="fill:#1FD3AC" />
<path d="M561.23,618.8A5,5 0 1 1 551.23,618.8A5,5 0 1 1 561.23,618.8Z" style="fill:#1FD3AC" />
<path d="M564.53,630.53A5,5 0 1 1 554.53,630.53A5,5 0 1 1 564.53,630.53Z" style="fill:#1FD3AC" />
<path d="M567.83,593.18A5,5 0 1 1 557.83,593.18A5,5 0 1 1 567.83,593.18Z" style="fill:#1FD3AC" />
<path d="M571.14,597.14A5,5 0 1 1 561.14,597.14A5,5 0 1 1 571.14,597.14Z" style="fill:#1FD3AC" />
<path d="M574.44,616.52A5,5 0 1 1 564.44,616.52A5,5 0 1 1 574.44,616.52Z" style="fill:#1FD3AC" />
<path d="M577.75,535.24A5,5 0 1 1 567.75,535.24A5,5 0 1 1 577.75,535.24Z" style="fill:#1FD3AC" />
<path d="M581.05,541.29A5,5 0 1 1 571.05,541.29A5,5 0 1 1 581.05,541.29Z" style="fill:#1FD3AC" />
<path d="M584.36,655.88A5,5 0 1 1 574.36,655.88A5,5 0 1 1 584.36,655.88Z" style="fill:#1FD3AC" />
<path d="M587.66,649.76A5,5 0 1 1 577.66,649.76A5,5 0 1 1 587.66,649.76Z" style="fill:#1FD3AC" />
<path d="M590.96,622.04A5,5 0 1 1 580.96,622.04A5,5 0 1 1 590.96,622.04Z" style="fill:#1FD3AC" />
<path d="M594.27,554.75A5,5 0 1 1 584.27,554.75A5,5 0 1 1 594.27,554.75Z" style="fill:#1FD3AC" />
<path d="M597.57,593.59A5,5 0 1 1 587.57,593.59A5,5 0 1 1 597.57,593.59Z" style="fill:#1FD3AC" />
<path d="M600.88,517.95A5,5 0 1 1 590.88,517.95A5,5 0 1 1 600.88,517.95Z" style="fill:#1FD3AC" />
<path d="M604.18,583.35A5,5 0 1 1 594.18,583.35A5,5 0 1 1 604.18,583.35Z" style="fill:#1FD3AC" />
<path d="M607.49,598.77A5,5 0 1 1 597.49,598.77A5,5 0 1 1 607.49,598.77Z" style="fill:#1FD3AC" />
<path d="M610.79,611.72A5,5 0 1 1 600.79,611.72A5,5 0 1 1 610.79,611.72Z" style="fill:#1FD3AC" />
<path d="M614.09,525.84A5,5 0 1 1 604.09,525.84A5,5 0 1 1 614.09,525.84Z" style="fill:#1FD3AC" />
<path d="M617.4,582.97A5,5 0 1 1 607.4,582.97A5,5 0 1 1 617.4,582.97Z" style="fill:#1FD3AC" />
<path d="M620.7,583.79A5,5 0 1 1 610.7,583.79A5,5 0 1 1 620.7,583.79Z" style="fill:#1FD3AC" />
<path d="M624.01,599.13A5,5 0 1 1 614.01,599.13A5,5 0 1 1 624.01,599.13Z" style="fill:#1FD3AC" />
<path d="M627.31,555.79A5,5 0 1 1 617.31,555.79A5,5 0 1 1 627.31,555.79Z" style="fill:#1FD3AC" />
<path d="M630.62,549.16A5,5 0 1 1 620.62,549.16A5,5 0 1 1 630.62,549.16Z" style="fill:#1FD3AC" />
<path d="M633.92,571.67A5,5 0 1 1 623.92,571.67A5,5 0 1 1 633.92,571.67Z" style="fill:#1FD3AC" />
<path d="M637.22,538.57A5,5 0 1 1 627.22,538.57A5,5 0 1 1 637.22,538.57Z" style="fill:#1FD3AC" />
<path d="M640.53,489.75A5,5 0 1 1 630.53,489.75A5,5 0 1 1 640.53,489.75Z" style="fill:#1FD3AC" />
<path d="M643.83,498.49A5,5 0 1 1 633.83,498.49A5,5 0 1 1 643.83,498.49Z" style="fill:#1FD3AC" />
<path d="M647.14,528.49A5,5 0 1 1 637.14,528.49A5,5 0 1 1 647.14,528.49Z" style="fill:#1FD3AC" />
<path d="M650.44,508.39A5,5 0 1 1 640.44,508.39A5,5 0 1 1 650.44,508.39Z" style="fill:#1FD3AC" />
<path d="M653.75,493.59A5,5 0 1 1 643.75,493.59A5,5 0 1 1 653.75,493.59Z" style="fill:#1FD3AC" />
<path d="M657.05,511.91A5,5 0 1 1 647.05,511.91A5,5 0 1 1 657.05,511.91Z" style="fill:#1FD3AC" />
<path d="M660.35,637.14A5,5 0 1 1 650.35,637.14A5,5 0 1 1 660.35,637.14Z" style="fill:#1FD3AC" />
<path d="M663.66,586.05A5,5 0 1 1 653.66,586.05A5,5 0 1 1 663.66,586.05Z" style="fill:#1FD3AC" />
<path d="M666.96,523.11A5,5 0 1 1 656.96,523.11A5,5 0 1 1 666.96,523.11Z" style="fill:#1FD3AC" />
<path d="M670.27,513.48A5,5 0 1 1 660.27,513.48A5,5 0 1 1 670.27,513.48Z" style="fill:#1FD3AC" />
<path d="M673.57,504.84A5,5 0 1 1 663.57,504.84A5,5 0 1 1 673.57,504.84Z" style="fill:#1FD3AC" />
<path d="M676.88,523.13A5,5 0 1 1 666.88,523.13A5,5 0 1 1 676.88,523.13Z" style="fill:#1FD3AC" />
<path d="M680.18,484.44A5,5 0 1 1 670.18,484.44A5,5 0 1 1 680.18,484.44Z" style="fill:#1FD3AC" />
<path d="M683.48,484.46A5,5 0 1 1 673.48,484.46A5,5 0 1 1 683.48,484.46Z" style="fill:#1FD3AC" />
<path d="M686.79,518.83A5,5 0 1 1 676.79,518.83A5,5 0 1 1 686.79,518.83Z" style="fill:#1FD3AC" />
<path d="M690.09,522.47A5,5 0 1 1 680.09,522.47A5,5 0 1 1 690.09,522.47Z" style="fill:#1FD3AC" />
<path d="M693.4,438.51A5,5 0 1 1 683.4,438.51A5,5 0 1 1 693.4,438.51Z" style="fill:#1FD3AC" />
<path d="M696.7,434.49A5,5 0 1 1 686.7,434.49A5,5 0 1 1 696.7,434.49Z" style="fill:#1FD3AC" />
<path d="M700.01,482.85A5,5 0 1 1 690.01,482.85A5,5 0 1 1 700.01,482.85Z" style="fill:#1FD3AC" />
<path d="M703.31,443.44A5,5 0 1 1 693.31,443.44A5,5 0 1 1 703.31,443.44Z" style="fill:#1FD3AC" />
<path d="M706.61,404.26A5,5 0 1 1 696.61,404.26A5,5 0 1 1 706.61,404.26Z" style="fill:#1FD3AC" />
<path d="M709.92,379.93A5,5 0 1 1 699.92,379.93A5,5 0 1 1 709.92,379.93Z" style="fill:#1FD3AC" />
<path d="M713.22,441.35A5,5 0 1 1 703.22,441.35A5,5 0 1 1 713.22,441.35Z" style="fill:#1FD3AC" />
<path d="M716.53,416.22A5,5 0 1 1 706.53,416.22A5,5 0 1 1 716.53,416.22Z" style="fill:#1FD3AC" />
<path d="M719.83,428.13A5,5 0 1 1 709.83,428.13A5,5 0 1 1 719.83,428.13Z" style="fill:#1FD3AC" />
<path d="M723.14,403.57A5,5 0 1 1 713.14,403.57A5,5 0 1 1 723.14,403.57Z" style="fill:#1FD3AC" />
<path d="M726.44,399.66A5,5 0 1 1 716.44,399.66A5,5 0 1 1 726.44,399.66Z" style="fill:#1FD3AC" />
<path d="M729.74,425.62A5,5 0 1 1 719.74,425.62A5,5 0 1 1 729.74,425.62Z" style="fill:#1FD3AC" />
<path d="M733.05,423.77A5,5 0 1 1 723.05,423.77A5,5 0 1 1 733.05,423.77Z" style="fill:#1FD3AC" />
<path d="M736.35,387.06A5,5 0 1 1 726.35,387.06A5,5 0 1 1 736.35,387.06Z" style="fill:#1FD3AC" />
<path d="M739.66,417.96A5,5 0 1 1 729.66,417.96A5,5 0 1 1 739.66,417.96Z" style="fill:#1FD3AC" />
<path d="M742.96,357.9A5,5 0 1 1 732.96,357.9A5,5 0 1 1 742.96,357.9Z" style="fill:#1FD3AC" />
<path d="M746.27,411.74A5,5 0 1 1 736.27,411.74A5,5 0 1 1 746.27,411.74Z" style="fill:#1FD3AC" />
<path d="M749.57,388.42A5,5 0 1 1 739.57,388.42A5,5 0 1 1 749.57,388.42Z" style="fill:#1FD3AC" />
<path d="M752.87,375.97A5,5 0 1 1 742.87,375.97A5,5 0 1 1 752.87,375.97Z" style="fill:#1FD3AC" />
<path d="M756.18,378.84A5,5 0 1 1 746.18,378.84A5,5 0 1 1 756.18,378.84Z" style="fill:#1FD3AC" />
<path d="M759.48,356.19A5,5 0 1 1 749.48,356.19A5,5 0 1 1 759.48,356.19Z" style="fill:#1FD3AC" />
<path d="M762.79,394.46A5,5 0 1 1 752.79,394.46A5,5 0 1 1 762.79,394.46Z" style="fill:#1FD3AC" />
<path d="M766.09,374.66A5,5 0 1 1 756.09,374.66A5,5 0 1 1 766.09,374.66Z" style="fill:#1FD3AC" />
<path d="M769.4,380.74A5,5 0 1 1 759.4,380.74A5,5 0 1 1 769.4,380.74Z" style="fill:#1FD3AC" />
<path d="M772.7,346.12A5,5 0 1 1 762.7,346.12A5,5 0 1 1 772.7,346.12Z" style="fill:#1FD3AC" />
<path d="M776,380.36A5,5 0 1 1 766,380.36A5,5 0 1 1 776,380.36Z" style="fill:#1FD3AC" />
<path d="M779.31,384.95A5,5 0 1 1 769.31,384.95A5,5 0 1 1 779.31,384.95Z" style="fill:#1FD3AC" />
<path d="M782.61,395.49A5,5 0 1 1 772.61,395.49A5,5 0 1 1 782.61,395.49Z" style="fill:#1FD3AC" />
<path d="M785.92,373.36A5,5 0 1 1 775.92,373.36A5,5 0 1 1 785.92,373.36Z" style="fill:#1FD3AC" />
<path d="M789.22,335.38A5,5 0 1 1 779.22,335.38A5,5 0 1 1 789.22,335.38Z" style="fill:#1FD3AC" />
<path d="M792.53,373.41A5,5 0 1 1 782.53,373.41A5,5 0 1 1 792.53,373.41Z" style="fill:#1FD3AC" />
<path d="M795.83,369.73A5,5 0 1 1 785.83,369.73A5,5 0 1 1 795.83,369.73Z" style="fill:#1FD3AC" />
<path d="M799.13,344.15A5,5 0 1 1 789.13,344.15A5,5 0 1 1 799.13,344.15Z" style="fill:#1FD3AC" />
<path d="M802.44,370.16A5,5 0 1 1 792.44,370.16A5,5 0 1 1 802.44,370.16Z" style="fill:#1FD3AC" />
<path d="M805.74,357.14A5,5 0 1 1 795.74,357.14A5,5 0 1 1 805.74,357.14Z" style="fill:#1FD3AC" />
<path d="M809.05,371.7A5,5 0 1 1 799.05,371.7A5,5 0 1 1 809.05,371.7Z" style="fill:#1FD3AC" />
<path d="M812.35,358.7A5,5 0 1 1 802.35,358.7A5,5 0 1 1 812.35,358.7Z" style="fill:#1FD3AC" />
<path d="M815.66,324.2A5,5 0 1 1 805.66,324.2A5,5 0 1 1 815.66,324.2Z" style="fill:#1FD3AC" />
<path d="M818.96,360.75A5,5 0 1 1 808.96,360.75A5,5 0 1 1 818.96,360.75Z" style="fill:#1FD3AC" />
<path d="M822.26,340.26A5,5 0 1 1 812.26,340.26A5,5 0 1 1 822.26,340.26Z" style="fill:#1FD3AC" />
<path d="M825.57,295.31A5,5 0 1 1 815.57,295.31A5,5 0 1 1 825.57,295.31Z" style="fill:#1FD3AC" />
<path d="M828.87,327.34A5,5 0 1 1 818.87,327.34A5,5 0 1 1 828.87,327.34Z" style="fill:#1FD3AC" />
<path d="M832.18,315.37A5,5 0 1 1 822.18,315.37A5,5 0 1 1 832.18,315.37Z" style="fill:#1FD3AC" />
<path d="M835.48,291.51A5,5 0 1 1 825.48,291.51A5,5 0 1 1 835.48,291.51Z" style="fill:#1FD3AC" />
<path d="M838.79,296.77A5,5 0 1 1 828.79,296.77A5,5 0 1 1 838.79,296.77Z" style="fill:#1FD3AC" />
<path d="M842.09,312.01A5,5 0 1 1 832.09,312.01A5,5 0 1 1 842.09,312.01Z" style="fill:#1FD3AC" />
<path d="M845.4,313.52A5,5 0 1 1 835.4,313.52A5,5 0 1 1 845.4,313.52Z" style="fill:#1FD3AC" />
<path d="M848.7,302.31A5,5 0 1 1 838.7,302.31A5,5 0 1 1 848.7,302.31Z" style="fill:#1FD3AC" />
<path d="M852,315.5A5,5 0 1 1 842,315.5A5,5 0 1 1 852,315.5Z" style="fill:#1FD3AC" />
<path d="M855.31,304.97A5,5 0 1 1 845.31,304.97A5,5 0 1 1 855.31,304.97Z" style="fill:#1FD3AC" />
<path d="M858.61,292.48A5,5 0 1 1 848.61,292.48A5,5 0 1 1 858.61,292.48Z" style="fill:#1FD3AC" />
<path d="M861.92,278.43A5,5 0 1 1 851.92,278.43A5,5 0 1 1 861.92,278.43Z" style="fill:#1FD3AC" />
<path d="M865.22,273.47A5,5 0 1 1 855.22,273.47A5,5 0 1 1 865.22,273.47Z" style="fill:#1FD3AC" />
<path d="M868.53,284.14A5,5 0 1 1 858.53,284.14A5,5 0 1 1 868.53,284.14Z" style="fill:#1FD3AC" />
<path d="M871.83,273.67A5,5 0 1 1 861.83,273.67A5,5 0 1 1 871.83,273.67Z" style="fill:#1FD3AC" />
<path d="M875.13,287.77A5,5 0 1 1 865.13,287.77A5,5 0 1 1 875.13,287.77Z" style="fill:#1FD3AC" />
<path d="M878.44,292.68A5,5 0 1 1 868.44,292.68A5,5 0 1 1 878.44,292.68Z" style="fill:#1FD3AC" />
<path d="M881.74,276.1A5,5 0 1 1 871.74,276.1A5,5 0 1 1 881.74,276.1Z" style="fill:#1FD3AC" />
<path d="M885.05,300.27A5,5 0 1 1 875.05,300.27A5,5 0 1 1 885.05,300.27Z" style="fill:#1FD3AC" />
<path d="M888.35,284.84A5,5 0 1 1 878.35,284.84A5,5 0 1 1 888.35,284.84Z" style="fill:#1FD3AC" />
<path d="M891.66,285.92A5,5 0 1 1 881.66,285.92A5,5 0 1 1 891.66,285.92Z" style="fill:#1FD3AC" />
<path d="M894.96,283.06A5,5 0 1 1 884.96,283.06A5,5 0 1 1 894.96,283.06Z" style="fill:#1FD3AC" />
<path d="M898.26,288.54A5,5 0 1 1 888.26,288.54A5,5 0 1 1 898.26,288.54Z" style="fill:#1FD3AC" />
<path d="M901.57,276.71A5,5 0 1 1 891.57,276.71A5,5 0 1 1 901.57,276.71Z" style="fill:#1FD3AC" />
<path d="M904.87,293.08A5,5 0 1 1 894.87,293.08A5,5 0 1 1 904.87,293.08Z" style="fill:#1FD3AC" />
<path d="M908.18,288.86A5,5 0 1 1 898.18,288.86A5,5 0 1 1 908.18,288.86Z" style="fill:#1FD3AC" />
<path d="M911.48,285.64A5,5 0 1 1 901.48,285.64A5,5 0 1 1 911.48,285.64Z" style="fill:#1FD3AC" />
<path d="M914.79,290.41A5,5 0 1 1 904.79,290.41A5,5 0 1 1 914.79,290.41Z" style="fill:#1FD3AC" />
<path d="M918.09,275.74A5,5 0 1 1 908.09,275.74A5,5 0 1 1 918.09,275.74Z" style="fill:#1FD3AC" />
<path d="M921.39,272.74A5,5 0 1 1 911.39,272.74A5,5 0 1 1 921.39,272.74Z" style="fill:#1FD3AC" />
<path d="M924.7,274.94A5,5 0 1 1 914.7,274.94A5,5 0 1 1 924.7,274.94Z" style="fill:#1FD3AC" />
<path d="M928,300.43A5,5 0 1 1 918,300.43A5,5 0 1 1 928,300.43Z" style="fill:#1FD3AC" />
<path d="M931.31,300.81A5,5 0 1 1 921.31,300.81A5,5 0 1 1 931.31,300.81Z" style="fill:#1FD3AC" />
<path d="M934.61,301.62A5,5 0 1 1 924.61,301.62A5,5 0 1 1 934.61,301.62Z" style="fill:#1FD3AC" />
<path d="M937.92,278.55A5,5 0 1 1 927.92,278.55A5,5 0 1 1 937.92,278.55Z" style="fill:#1FD3AC" />
<path d="M941.22,293.75A5,5 0 1 1 931.22,293.75A5,5 0 1 1 941.22,293.75Z" style="fill:#1FD3AC" />
<path d="M944.52,300.96A5,5 0 1 1 934.52,300.96A5,5 0 1 1 944.52,300.96Z" style="fill:#1FD3AC" />
<path d="M947.83,302.61A5,5 0 1 1 937.83,302.61A5,5 0 1 1 947.83,302.61Z" style="fill:#1FD3AC" />
<path d="M951.13,306.99A5,5 0 1 1 941.13,306.99A5,5 0 1 1 951.13,306.99Z" style="fill:#1FD3AC" />
<path d="M954.44,277.18A5,5 0 1 1 944.44,277.18A5,5 0 1 1 954.44,277.18Z" style="fill:#1FD3AC" />
<path d="M957.74,300.37A5,5 0 1 1 947.74,300.37A5,5 0 1 1 957.74,300.37Z" style="fill:#1FD3AC" />
<path d="M961.05,293.74A5,5 0 1 1 951.05,293.74A5,5 0 1 1 961.05,293.74Z" style="fill:#1FD3AC" />
<path d="M964.35,290.23A5,5 0 1 1 954.35,290.23A5,5 0 1 1 964.35,290.23Z" style="fill:#1FD3AC" />
<path d="M967.65,325.96A5,5 0 1 1 957.65,325.96A5,5 0 1 1 967.65,325.96Z" style="fill:#1FD3AC" />
<path d="M970.96,286.6A5,5 0 1 1 960.96,286.6A5,5 0 1 1 970.96,286.6Z" style="fill:#1FD3AC" />
<path d="M974.26,296.73A5,5 0 1 1 964.26,296.73A5,5 0 1 1 974.26,296.73Z" style="fill:#1FD3AC" />
<path d="M977.57,318.36A5,5 0 1 1 967.57,318.36A5,5 0 1 1 977.57,318.36Z" style="fill:#1FD3AC" />
<path d="M980.87,305.42A5,5 0 1 1 970.87,305.42A5,5 0 1 1 980.87,305.42Z" style="fill:#1FD3AC" />
<path d="M984.18,291.17A5,5 0 1 1 974.18,291.17A5,5 0 1 1 984.18,291.17Z" style="fill:#1FD3AC" />
<path d="M987.48,300.88A5,5 0 1 1 977.48,300.88A5,5 0 1 1 987.48,300.88Z" style="fill:#1FD3AC" />
<path d="M990.78,301.64A5,5 0 1 1 980.78,301.64A5,5 0 1 1 990.78,301.64Z" style="fill:#1FD3AC" />
<path d="M994.09,309.37A5,5 0 1 1 984.09,309.37A5,5 0 1 1 994.09,309.37Z" style="fill:#1FD3AC" />
<path d="M997.39,314.61A5,5 0 1 1 987.39,314.61A5,5 0 1 1 997.39,314.61Z" style="fill:#1FD3AC" />
<path d="M1000.7,312.09A5,5 0 1 1 990.7,312.09A5,5 0 1 1 1000.7,312.09Z" style="fill:#1FD3AC" />
<path d="M1004,323.33A5,5 0 1 1 994,323.33A5,5 0 1 1 1004,323.33Z" style="fill:#1FD3AC" />
<path d="M1007.3,322.58A5,5 0 1 1 997.31,322.58A5,5 0 1 1 1007.3,322.58Z" style="fill:#1FD3AC" />
<path d="M1010.6,300.03A5,5 0 1 1 1000.6,300.03A5,5 0 1 1 1010.6,300.03Z" style="fill:#1FD3AC" />
<path d="M1013.9,288.89A5,5 0 1 1 1003.9,288.89A5,5 0 1 1 1013.9,288.89Z" style="fill:#1FD3AC" />
<path d="M1017.2,313.98A5,5 0 1 1 1007.2,313.98A5,5 0 1 1 1017.2,313.98Z" style="fill:#1FD3AC" />
<path d="M1020.5,287.73A5,5 0 1 1 1010.5,287.73A5,5 0 1 1 1020.5,287.73Z" style="fill:#1FD3AC" />
<path d="M1023.8,309.82A5,5 0 1 1 1013.8,309.82A5,5 0 1 1 1023.8,309.82Z" style="fill:#1FD3AC" />
<path d="M1027.1,302.68A5,5 0 1 1 1017.1,302.68A5,5 0 1 1 1027.1,302.68Z" style="fill:#1FD3AC" />
<path d="M1030.4,303.46A5,5 0 1 1 1020.4,303.46A5,5 0 1 1 1030.4,303.46Z" style="fill:#1FD3AC" />
<path d="M1033.7,294.62A5,5 0 1 1 1023.7,294.62A5,5 0 1 1 1033.7,294.62Z" style="fill:#1FD3AC" />
<path d="M1037,314.53A5,5 0 1 1 1027,314.53A5,5 0 1 1 1037,314.53Z" style="fill:#1FD3AC" />
<path d="M1040.3,311.4A5,5 0 1 1 1030.3,311.4A5,5 0 1 1 1040.3,311.4Z" style="fill:#1FD3AC" />
<path d="M1043.7,308.67A5,5 0 1 1 1033.7,308.67A5,5 0 1 1 1043.7,308.67Z" style="fill:#1FD3AC" />
<path d="M1047,314.94A5,5 0 1 1 1037,314.94A5,5 0 1 1 1047,314.94Z" style="fill:#1FD3AC" />
<path d="M1050.3,310.85A5,5 0 1 1 1040.3,310.85A5,5 0 1 1 1050.3,310.85Z" style="fill:#1FD3AC" />
<path d="M1053.6,303.6A5,5 0 1 1 1043.6,303.6A5,5 0 1 1 1053.6,303.6Z" style="fill:#1FD3AC" />
<path d="M1056.9,329.86A5,5 0 1 1 1046.9,329.86A5,5 0 1 1 1056.9,329.86Z" style="fill:#1FD3AC" />
<path d="M1060.2,327.62A5,5 0 1 1 1050.2,327.62A5,5 0 1 1 1060.2,327.62Z" style="fill:#1FD3AC" />
<path d="M1063.5,321.48A5,5 0 1 1 1053.5,321.48A5,5 0 1 1 1063.5,321.48Z" style="fill:#1FD3AC" />
<path d="M1066.8,309.91A5,5 0 1 1 1056.8,309.91A5,5 0 1 1 1066.8,309.91Z" style="fill:#1FD3AC" />
<path d="M1070.1,290.59A5,5 0 1 1 1060.1,290.59A5,5 0 1 1 1070.1,290.59Z" style="fill:#1FD3AC" />
<path d="M1073.4,308.58A5,5 0 1 1 1063.4,308.58A5,5 0 1 1 1073.4,308.58Z" style="fill:#1FD3AC" />
<path d="M1076.7,302.03A5,5 0 1 1 1066.7,302.03A5,5 0 1 1 1076.7,302.03Z" style="fill:#1FD3AC" />
<path d="M1080,329.02A5,5 0 1 1 1070,329.02A5,5 0 1 1 1080,329.02Z" style="fill:#1FD3AC" />
<path d="M249.75,910.62L1075.8,910.62" style="fill:none;stroke:#000000" />
<path d="M1075.8,173.24L1075.8,910.62" style="fill:none;stroke:#000000" />
<path d="M1038,852.33A8,8 0 1 1 1022,852.33A8,8 0 1 1 1038,852.33Z" style="fill:#1FD3AC" />
<text x="429.06" y="-839.14" transform="scale(1, -1)"
	style="font-family:Helvetica;font-weight:normal;font-style:normal;font-size:56px">500 KHz 12.16 feature</text>
</g>
</svg>
