<?xml version="1.0"?>
<!-- Generated by SVGo and Plotinum VG -->
<svg width="1080pt" height="1080pt" viewBox="0 0 1080 1080"
	xmlns="http://www.w3.org/2000/svg"
	xmlns:xlink="http://www.w3.org/1999/xlink">
<g transform="scale(1, -1) translate(0, -1080)">
<path d="M0,0L1080,0L1080,1080L0,1080Z" style="fill:#-8000000000000000-8000000000000000-8000000000000000;fill-opacity:0" />
<text x="313.96" y="-1015.2" transform="scale(1, -1)"
	style="font-family:Helvetica;font-weight:normal;font-style:normal;font-size:80px"> TeO2 CABS</text>
<text x="415.56" y="-17.172" transform="scale(1, -1)"
	style="font-family:Helvetica;font-weight:normal;font-style:normal;font-size:56px">Frequency (GHz)</text>
<text x="182.64" y="-119.73" transform="scale(1, -1)"
	style="font-family:Helvetica;font-weight:normal;font-style:normal;font-size:56px">11.5</text>
<text x="340.73" y="-119.73" transform="scale(1, -1)"
	style="font-family:Helvetica;font-weight:normal;font-style:normal;font-size:56px">11.7</text>
<text x="498.82" y="-119.73" transform="scale(1, -1)"
	style="font-family:Helvetica;font-weight:normal;font-style:normal;font-size:56px">11.9</text>
<text x="654.83" y="-119.73" transform="scale(1, -1)"
	style="font-family:Helvetica;font-weight:normal;font-style:normal;font-size:56px">12.1</text>
<text x="812.92" y="-119.73" transform="scale(1, -1)"
	style="font-family:Helvetica;font-weight:normal;font-style:normal;font-size:56px">12.3</text>
<text x="971.01" y="-119.73" transform="scale(1, -1)"
	style="font-family:Helvetica;font-weight:normal;font-style:normal;font-size:56px">12.5</text>
<path d="M235.05,181.12L235.05,173.12" style="fill:none;stroke:#000000;stroke-width:1.5" />
<path d="M314.1,177.12L314.1,173.12" style="fill:none;stroke:#000000;stroke-width:1.5" />
<path d="M393.14,181.12L393.14,173.12" style="fill:none;stroke:#000000;stroke-width:1.5" />
<path d="M472.19,177.12L472.19,173.12" style="fill:none;stroke:#000000;stroke-width:1.5" />
<path d="M551.23,181.12L551.23,173.12" style="fill:none;stroke:#000000;stroke-width:1.5" />
<path d="M630.28,177.12L630.28,173.12" style="fill:none;stroke:#000000;stroke-width:1.5" />
<path d="M709.32,181.12L709.32,173.12" style="fill:none;stroke:#000000;stroke-width:1.5" />
<path d="M788.37,177.12L788.37,173.12" style="fill:none;stroke:#000000;stroke-width:1.5" />
<path d="M867.41,181.12L867.41,173.12" style="fill:none;stroke:#000000;stroke-width:1.5" />
<path d="M946.46,177.12L946.46,173.12" style="fill:none;stroke:#000000;stroke-width:1.5" />
<path d="M1025.5,181.12L1025.5,173.12" style="fill:none;stroke:#000000;stroke-width:1.5" />
<path d="M235.05,173.12L1025.5,173.12" style="fill:none;stroke:#000000;stroke-width:1.5" />
<g transform="rotate(90)">
<text x="268.61" y="45.391" transform="scale(1, -1)"
	style="font-family:Helvetica;font-weight:normal;font-style:normal;font-size:56px">Spectral Density (pV)</text>
</g>
<text x="114.43" y="-261.96" transform="scale(1, -1)"
	style="font-family:Helvetica;font-weight:normal;font-style:normal;font-size:56px">100</text>
<text x="114.43" y="-467.62" transform="scale(1, -1)"
	style="font-family:Helvetica;font-weight:normal;font-style:normal;font-size:56px">300</text>
<text x="114.43" y="-673.28" transform="scale(1, -1)"
	style="font-family:Helvetica;font-weight:normal;font-style:normal;font-size:56px">500</text>
<text x="114.43" y="-878.93" transform="scale(1, -1)"
	style="font-family:Helvetica;font-weight:normal;font-style:normal;font-size:56px">700</text>
<path d="M235.42,173.24L231.42,173.24" style="fill:none;stroke:#000000;stroke-width:1.5" />
<path d="M239.42,276.07L231.42,276.07" style="fill:none;stroke:#000000;stroke-width:1.5" />
<path d="M235.42,378.9L231.42,378.9" style="fill:none;stroke:#000000;stroke-width:1.5" />
<path d="M239.42,481.73L231.42,481.73" style="fill:none;stroke:#000000;stroke-width:1.5" />
<path d="M235.42,584.56L231.42,584.56" style="fill:none;stroke:#000000;stroke-width:1.5" />
<path d="M239.42,687.39L231.42,687.39" style="fill:none;stroke:#000000;stroke-width:1.5" />
<path d="M235.42,790.21L231.42,790.21" style="fill:none;stroke:#000000;stroke-width:1.5" />
<path d="M239.42,893.04L231.42,893.04" style="fill:none;stroke:#000000;stroke-width:1.5" />
<path d="M231.42,173.24L231.42,893.04" style="fill:none;stroke:#000000;stroke-width:1.5" />
<path d="M241.67,255.56A5,5 0 1 1 231.67,255.56A5,5 0 1 1 241.67,255.56Z" style="fill:#1FD3AC" />
<path d="M243.25,276.07A5,5 0 1 1 233.25,276.07A5,5 0 1 1 243.25,276.07Z" style="fill:#1FD3AC" />
<path d="M244.83,272.36A5,5 0 1 1 234.83,272.36A5,5 0 1 1 244.83,272.36Z" style="fill:#1FD3AC" />
<path d="M246.41,275.81A5,5 0 1 1 236.41,275.81A5,5 0 1 1 246.41,275.81Z" style="fill:#1FD3AC" />
<path d="M248,276.92A5,5 0 1 1 238,276.92A5,5 0 1 1 248,276.92Z" style="fill:#1FD3AC" />
<path d="M249.58,273.48A5,5 0 1 1 239.58,273.48A5,5 0 1 1 249.58,273.48Z" style="fill:#1FD3AC" />
<path d="M251.16,282.45A5,5 0 1 1 241.16,282.45A5,5 0 1 1 251.16,282.45Z" style="fill:#1FD3AC" />
<path d="M252.74,308.95A5,5 0 1 1 242.74,308.95A5,5 0 1 1 252.74,308.95Z" style="fill:#1FD3AC" />
<path d="M254.32,277.78A5,5 0 1 1 244.32,277.78A5,5 0 1 1 254.32,277.78Z" style="fill:#1FD3AC" />
<path d="M255.9,308.43A5,5 0 1 1 245.9,308.43A5,5 0 1 1 255.9,308.43Z" style="fill:#1FD3AC" />
<path d="M257.48,276.3A5,5 0 1 1 247.48,276.3A5,5 0 1 1 257.48,276.3Z" style="fill:#1FD3AC" />
<path d="M259.06,271.68A5,5 0 1 1 249.06,271.68A5,5 0 1 1 259.06,271.68Z" style="fill:#1FD3AC" />
<path d="M260.64,287.26A5,5 0 1 1 250.64,287.26A5,5 0 1 1 260.64,287.26Z" style="fill:#1FD3AC" />
<path d="M262.22,255.78A5,5 0 1 1 252.22,255.78A5,5 0 1 1 262.22,255.78Z" style="fill:#1FD3AC" />
<path d="M263.8,274.85A5,5 0 1 1 253.8,274.85A5,5 0 1 1 263.8,274.85Z" style="fill:#1FD3AC" />
<path d="M265.39,292.68A5,5 0 1 1 255.39,292.68A5,5 0 1 1 265.39,292.68Z" style="fill:#1FD3AC" />
<path d="M266.97,300.43A5,5 0 1 1 256.97,300.43A5,5 0 1 1 266.97,300.43Z" style="fill:#1FD3AC" />
<path d="M268.55,284.26A5,5 0 1 1 258.55,284.26A5,5 0 1 1 268.55,284.26Z" style="fill:#1FD3AC" />
<path d="M270.13,281.05A5,5 0 1 1 260.13,281.05A5,5 0 1 1 270.13,281.05Z" style="fill:#1FD3AC" />
<path d="M271.71,303.68A5,5 0 1 1 261.71,303.68A5,5 0 1 1 271.71,303.68Z" style="fill:#1FD3AC" />
<path d="M273.29,276.85A5,5 0 1 1 263.29,276.85A5,5 0 1 1 273.29,276.85Z" style="fill:#1FD3AC" />
<path d="M274.87,268.05A5,5 0 1 1 264.87,268.05A5,5 0 1 1 274.87,268.05Z" style="fill:#1FD3AC" />
<path d="M276.45,253.74A5,5 0 1 1 266.45,253.74A5,5 0 1 1 276.45,253.74Z" style="fill:#1FD3AC" />
<path d="M278.03,291.03A5,5 0 1 1 268.03,291.03A5,5 0 1 1 278.03,291.03Z" style="fill:#1FD3AC" />
<path d="M279.61,280.25A5,5 0 1 1 269.61,280.25A5,5 0 1 1 279.61,280.25Z" style="fill:#1FD3AC" />
<path d="M281.19,307.44A5,5 0 1 1 271.19,307.44A5,5 0 1 1 281.19,307.44Z" style="fill:#1FD3AC" />
<path d="M282.78,293.38A5,5 0 1 1 272.78,293.38A5,5 0 1 1 282.78,293.38Z" style="fill:#1FD3AC" />
<path d="M284.36,269.71A5,5 0 1 1 274.36,269.71A5,5 0 1 1 284.36,269.71Z" style="fill:#1FD3AC" />
<path d="M285.94,308A5,5 0 1 1 275.94,308A5,5 0 1 1 285.94,308Z" style="fill:#1FD3AC" />
<path d="M287.52,321.47A5,5 0 1 1 277.52,321.47A5,5 0 1 1 287.52,321.47Z" style="fill:#1FD3AC" />
<path d="M289.1,301.86A5,5 0 1 1 279.1,301.86A5,5 0 1 1 289.1,301.86Z" style="fill:#1FD3AC" />
<path d="M290.68,307.8A5,5 0 1 1 280.68,307.8A5,5 0 1 1 290.68,307.8Z" style="fill:#1FD3AC" />
<path d="M292.26,324.02A5,5 0 1 1 282.26,324.02A5,5 0 1 1 292.26,324.02Z" style="fill:#1FD3AC" />
<path d="M293.84,334.88A5,5 0 1 1 283.84,334.88A5,5 0 1 1 293.84,334.88Z" style="fill:#1FD3AC" />
<path d="M295.42,337.43A5,5 0 1 1 285.42,337.43A5,5 0 1 1 295.42,337.43Z" style="fill:#1FD3AC" />
<path d="M297,327.31A5,5 0 1 1 287,327.31A5,5 0 1 1 297,327.31Z" style="fill:#1FD3AC" />
<path d="M298.58,322.44A5,5 0 1 1 288.58,322.44A5,5 0 1 1 298.58,322.44Z" style="fill:#1FD3AC" />
<path d="M300.17,305.72A5,5 0 1 1 290.17,305.72A5,5 0 1 1 300.17,305.72Z" style="fill:#1FD3AC" />
<path d="M301.75,312.17A5,5 0 1 1 291.75,312.17A5,5 0 1 1 301.75,312.17Z" style="fill:#1FD3AC" />
<path d="M303.33,288.6A5,5 0 1 1 293.33,288.6A5,5 0 1 1 303.33,288.6Z" style="fill:#1FD3AC" />
<path d="M304.91,336.37A5,5 0 1 1 294.91,336.37A5,5 0 1 1 304.91,336.37Z" style="fill:#1FD3AC" />
<path d="M306.49,333.5A5,5 0 1 1 296.49,333.5A5,5 0 1 1 306.49,333.5Z" style="fill:#1FD3AC" />
<path d="M308.07,407.83A5,5 0 1 1 298.07,407.83A5,5 0 1 1 308.07,407.83Z" style="fill:#1FD3AC" />
<path d="M309.65,393.81A5,5 0 1 1 299.65,393.81A5,5 0 1 1 309.65,393.81Z" style="fill:#1FD3AC" />
<path d="M311.23,308.36A5,5 0 1 1 301.23,308.36A5,5 0 1 1 311.23,308.36Z" style="fill:#1FD3AC" />
<path d="M312.81,395.04A5,5 0 1 1 302.81,395.04A5,5 0 1 1 312.81,395.04Z" style="fill:#1FD3AC" />
<path d="M314.39,337.31A5,5 0 1 1 304.39,337.31A5,5 0 1 1 314.39,337.31Z" style="fill:#1FD3AC" />
<path d="M315.97,306.78A5,5 0 1 1 305.97,306.78A5,5 0 1 1 315.97,306.78Z" style="fill:#1FD3AC" />
<path d="M317.55,343.34A5,5 0 1 1 307.55,343.34A5,5 0 1 1 317.55,343.34Z" style="fill:#1FD3AC" />
<path d="M319.14,362.69A5,5 0 1 1 309.14,362.69A5,5 0 1 1 319.14,362.69Z" style="fill:#1FD3AC" />
<path d="M320.72,378.49A5,5 0 1 1 310.72,378.49A5,5 0 1 1 320.72,378.49Z" style="fill:#1FD3AC" />
<path d="M322.3,348.18A5,5 0 1 1 312.3,348.18A5,5 0 1 1 322.3,348.18Z" style="fill:#1FD3AC" />
<path d="M323.88,328.08A5,5 0 1 1 313.88,328.08A5,5 0 1 1 323.88,328.08Z" style="fill:#1FD3AC" />
<path d="M325.46,370.44A5,5 0 1 1 315.46,370.44A5,5 0 1 1 325.46,370.44Z" style="fill:#1FD3AC" />
<path d="M327.04,343.65A5,5 0 1 1 317.04,343.65A5,5 0 1 1 327.04,343.65Z" style="fill:#1FD3AC" />
<path d="M328.62,354.39A5,5 0 1 1 318.62,354.39A5,5 0 1 1 328.62,354.39Z" style="fill:#1FD3AC" />
<path d="M330.2,350.4A5,5 0 1 1 320.2,350.4A5,5 0 1 1 330.2,350.4Z" style="fill:#1FD3AC" />
<path d="M331.78,300.83A5,5 0 1 1 321.78,300.83A5,5 0 1 1 331.78,300.83Z" style="fill:#1FD3AC" />
<path d="M333.36,429.16A5,5 0 1 1 323.36,429.16A5,5 0 1 1 333.36,429.16Z" style="fill:#1FD3AC" />
<path d="M334.94,482.24A5,5 0 1 1 324.94,482.24A5,5 0 1 1 334.94,482.24Z" style="fill:#1FD3AC" />
<path d="M336.53,417.88A5,5 0 1 1 326.53,417.88A5,5 0 1 1 336.53,417.88Z" style="fill:#1FD3AC" />
<path d="M338.11,402.78A5,5 0 1 1 328.11,402.78A5,5 0 1 1 338.11,402.78Z" style="fill:#1FD3AC" />
<path d="M339.69,406.6A5,5 0 1 1 329.69,406.6A5,5 0 1 1 339.69,406.6Z" style="fill:#1FD3AC" />
<path d="M341.27,438.03A5,5 0 1 1 331.27,438.03A5,5 0 1 1 341.27,438.03Z" style="fill:#1FD3AC" />
<path d="M342.85,354.46A5,5 0 1 1 332.85,354.46A5,5 0 1 1 342.85,354.46Z" style="fill:#1FD3AC" />
<path d="M344.43,433.74A5,5 0 1 1 334.43,433.74A5,5 0 1 1 344.43,433.74Z" style="fill:#1FD3AC" />
<path d="M346.01,493.26A5,5 0 1 1 336.01,493.26A5,5 0 1 1 346.01,493.26Z" style="fill:#1FD3AC" />
<path d="M347.59,482.15A5,5 0 1 1 337.59,482.15A5,5 0 1 1 347.59,482.15Z" style="fill:#1FD3AC" />
<path d="M349.17,332.47A5,5 0 1 1 339.17,332.47A5,5 0 1 1 349.17,332.47Z" style="fill:#1FD3AC" />
<path d="M350.75,508.23A5,5 0 1 1 340.75,508.23A5,5 0 1 1 350.75,508.23Z" style="fill:#1FD3AC" />
<path d="M352.33,523.37A5,5 0 1 1 342.33,523.37A5,5 0 1 1 352.33,523.37Z" style="fill:#1FD3AC" />
<path d="M353.92,510.68A5,5 0 1 1 343.92,510.68A5,5 0 1 1 353.92,510.68Z" style="fill:#1FD3AC" />
<path d="M355.5,531.23A5,5 0 1 1 345.5,531.23A5,5 0 1 1 355.5,531.23Z" style="fill:#1FD3AC" />
<path d="M357.08,582.84A5,5 0 1 1 347.08,582.84A5,5 0 1 1 357.08,582.84Z" style="fill:#1FD3AC" />
<path d="M358.66,610.45A5,5 0 1 1 348.66,610.45A5,5 0 1 1 358.66,610.45Z" style="fill:#1FD3AC" />
<path d="M360.24,472.88A5,5 0 1 1 350.24,472.88A5,5 0 1 1 360.24,472.88Z" style="fill:#1FD3AC" />
<path d="M361.82,407.94A5,5 0 1 1 351.82,407.94A5,5 0 1 1 361.82,407.94Z" style="fill:#1FD3AC" />
<path d="M363.4,549.7A5,5 0 1 1 353.4,549.7A5,5 0 1 1 363.4,549.7Z" style="fill:#1FD3AC" />
<path d="M364.98,471.7A5,5 0 1 1 354.98,471.7A5,5 0 1 1 364.98,471.7Z" style="fill:#1FD3AC" />
<path d="M366.56,510.92A5,5 0 1 1 356.56,510.92A5,5 0 1 1 366.56,510.92Z" style="fill:#1FD3AC" />
<path d="M368.14,538.48A5,5 0 1 1 358.14,538.48A5,5 0 1 1 368.14,538.48Z" style="fill:#1FD3AC" />
<path d="M369.72,482.64A5,5 0 1 1 359.72,482.64A5,5 0 1 1 369.72,482.64Z" style="fill:#1FD3AC" />
<path d="M371.31,561.53A5,5 0 1 1 361.31,561.53A5,5 0 1 1 371.31,561.53Z" style="fill:#1FD3AC" />
<path d="M372.89,486.1A5,5 0 1 1 362.89,486.1A5,5 0 1 1 372.89,486.1Z" style="fill:#1FD3AC" />
<path d="M374.47,460.29A5,5 0 1 1 364.47,460.29A5,5 0 1 1 374.47,460.29Z" style="fill:#1FD3AC" />
<path d="M376.05,441.95A5,5 0 1 1 366.05,441.95A5,5 0 1 1 376.05,441.95Z" style="fill:#1FD3AC" />
<path d="M377.63,448.94A5,5 0 1 1 367.63,448.94A5,5 0 1 1 377.63,448.94Z" style="fill:#1FD3AC" />
<path d="M379.21,458.18A5,5 0 1 1 369.21,458.18A5,5 0 1 1 379.21,458.18Z" style="fill:#1FD3AC" />
<path d="M380.79,483.74A5,5 0 1 1 370.79,483.74A5,5 0 1 1 380.79,483.74Z" style="fill:#1FD3AC" />
<path d="M382.37,512.08A5,5 0 1 1 372.37,512.08A5,5 0 1 1 382.37,512.08Z" style="fill:#1FD3AC" />
<path d="M383.95,458.41A5,5 0 1 1 373.95,458.41A5,5 0 1 1 383.95,458.41Z" style="fill:#1FD3AC" />
<path d="M385.53,354.4A5,5 0 1 1 375.53,354.4A5,5 0 1 1 385.53,354.4Z" style="fill:#1FD3AC" />
<path d="M387.11,457.14A5,5 0 1 1 377.11,457.14A5,5 0 1 1 387.11,457.14Z" style="fill:#1FD3AC" />
<path d="M388.7,406.16A5,5 0 1 1 378.7,406.16A5,5 0 1 1 388.7,406.16Z" style="fill:#1FD3AC" />
<path d="M390.28,375.18A5,5 0 1 1 380.28,375.18A5,5 0 1 1 390.28,375.18Z" style="fill:#1FD3AC" />
<path d="M391.86,374.89A5,5 0 1 1 381.86,374.89A5,5 0 1 1 391.86,374.89Z" style="fill:#1FD3AC" />
<path d="M393.44,359.06A5,5 0 1 1 383.44,359.06A5,5 0 1 1 393.44,359.06Z" style="fill:#1FD3AC" />
<path d="M395.02,356.66A5,5 0 1 1 385.02,356.66A5,5 0 1 1 395.02,356.66Z" style="fill:#1FD3AC" />
<path d="M396.6,379.68A5,5 0 1 1 386.6,379.68A5,5 0 1 1 396.6,379.68Z" style="fill:#1FD3AC" />
<path d="M398.18,378.68A5,5 0 1 1 388.18,378.68A5,5 0 1 1 398.18,378.68Z" style="fill:#1FD3AC" />
<path d="M399.76,372.32A5,5 0 1 1 389.76,372.32A5,5 0 1 1 399.76,372.32Z" style="fill:#1FD3AC" />
<path d="M401.34,396.84A5,5 0 1 1 391.34,396.84A5,5 0 1 1 401.34,396.84Z" style="fill:#1FD3AC" />
<path d="M402.92,450.49A5,5 0 1 1 392.92,450.49A5,5 0 1 1 402.92,450.49Z" style="fill:#1FD3AC" />
<path d="M404.5,406.07A5,5 0 1 1 394.5,406.07A5,5 0 1 1 404.5,406.07Z" style="fill:#1FD3AC" />
<path d="M406.09,384.66A5,5 0 1 1 396.09,384.66A5,5 0 1 1 406.09,384.66Z" style="fill:#1FD3AC" />
<path d="M407.67,382.35A5,5 0 1 1 397.67,382.35A5,5 0 1 1 407.67,382.35Z" style="fill:#1FD3AC" />
<path d="M409.25,361.74A5,5 0 1 1 399.25,361.74A5,5 0 1 1 409.25,361.74Z" style="fill:#1FD3AC" />
<path d="M410.83,432.2A5,5 0 1 1 400.83,432.2A5,5 0 1 1 410.83,432.2Z" style="fill:#1FD3AC" />
<path d="M412.41,490.76A5,5 0 1 1 402.41,490.76A5,5 0 1 1 412.41,490.76Z" style="fill:#1FD3AC" />
<path d="M413.99,502.45A5,5 0 1 1 403.99,502.45A5,5 0 1 1 413.99,502.45Z" style="fill:#1FD3AC" />
<path d="M415.57,471.41A5,5 0 1 1 405.57,471.41A5,5 0 1 1 415.57,471.41Z" style="fill:#1FD3AC" />
<path d="M417.15,485.91A5,5 0 1 1 407.15,485.91A5,5 0 1 1 417.15,485.91Z" style="fill:#1FD3AC" />
<path d="M418.73,420.27A5,5 0 1 1 408.73,420.27A5,5 0 1 1 418.73,420.27Z" style="fill:#1FD3AC" />
<path d="M420.31,480.05A5,5 0 1 1 410.31,480.05A5,5 0 1 1 420.31,480.05Z" style="fill:#1FD3AC" />
<path d="M421.89,589.89A5,5 0 1 1 411.89,589.89A5,5 0 1 1 421.89,589.89Z" style="fill:#1FD3AC" />
<path d="M423.48,579.95A5,5 0 1 1 413.48,579.95A5,5 0 1 1 423.48,579.95Z" style="fill:#1FD3AC" />
<path d="M425.06,569.15A5,5 0 1 1 415.06,569.15A5,5 0 1 1 425.06,569.15Z" style="fill:#1FD3AC" />
<path d="M426.64,485.45A5,5 0 1 1 416.64,485.45A5,5 0 1 1 426.64,485.45Z" style="fill:#1FD3AC" />
<path d="M428.22,575.03A5,5 0 1 1 418.22,575.03A5,5 0 1 1 428.22,575.03Z" style="fill:#1FD3AC" />
<path d="M429.8,558.83A5,5 0 1 1 419.8,558.83A5,5 0 1 1 429.8,558.83Z" style="fill:#1FD3AC" />
<path d="M431.38,594.92A5,5 0 1 1 421.38,594.92A5,5 0 1 1 431.38,594.92Z" style="fill:#1FD3AC" />
<path d="M432.96,565.84A5,5 0 1 1 422.96,565.84A5,5 0 1 1 432.96,565.84Z" style="fill:#1FD3AC" />
<path d="M434.54,564.9A5,5 0 1 1 424.54,564.9A5,5 0 1 1 434.54,564.9Z" style="fill:#1FD3AC" />
<path d="M436.12,439.67A5,5 0 1 1 426.12,439.67A5,5 0 1 1 436.12,439.67Z" style="fill:#1FD3AC" />
<path d="M437.7,466.91A5,5 0 1 1 427.7,466.91A5,5 0 1 1 437.7,466.91Z" style="fill:#1FD3AC" />
<path d="M439.28,429.29A5,5 0 1 1 429.28,429.29A5,5 0 1 1 439.28,429.29Z" style="fill:#1FD3AC" />
<path d="M440.87,553.02A5,5 0 1 1 430.87,553.02A5,5 0 1 1 440.87,553.02Z" style="fill:#1FD3AC" />
<path d="M442.45,602.68A5,5 0 1 1 432.45,602.68A5,5 0 1 1 442.45,602.68Z" style="fill:#1FD3AC" />
<path d="M444.03,443.85A5,5 0 1 1 434.03,443.85A5,5 0 1 1 444.03,443.85Z" style="fill:#1FD3AC" />
<path d="M445.61,510.47A5,5 0 1 1 435.61,510.47A5,5 0 1 1 445.61,510.47Z" style="fill:#1FD3AC" />
<path d="M447.19,446.2A5,5 0 1 1 437.19,446.2A5,5 0 1 1 447.19,446.2Z" style="fill:#1FD3AC" />
<path d="M448.77,402.3A5,5 0 1 1 438.77,402.3A5,5 0 1 1 448.77,402.3Z" style="fill:#1FD3AC" />
<path d="M450.35,361.66A5,5 0 1 1 440.35,361.66A5,5 0 1 1 450.35,361.66Z" style="fill:#1FD3AC" />
<path d="M451.93,358.97A5,5 0 1 1 441.93,358.97A5,5 0 1 1 451.93,358.97Z" style="fill:#1FD3AC" />
<path d="M453.51,393.09A5,5 0 1 1 443.51,393.09A5,5 0 1 1 453.51,393.09Z" style="fill:#1FD3AC" />
<path d="M455.09,314.85A5,5 0 1 1 445.09,314.85A5,5 0 1 1 455.09,314.85Z" style="fill:#1FD3AC" />
<path d="M456.67,398.83A5,5 0 1 1 446.67,398.83A5,5 0 1 1 456.67,398.83Z" style="fill:#1FD3AC" />
<path d="M458.25,315.12A5,5 0 1 1 448.25,315.12A5,5 0 1 1 458.25,315.12Z" style="fill:#1FD3AC" />
<path d="M459.84,332.44A5,5 0 1 1 449.84,332.44A5,5 0 1 1 459.84,332.44Z" style="fill:#1FD3AC" />
<path d="M461.42,312.54A5,5 0 1 1 451.42,312.54A5,5 0 1 1 461.42,312.54Z" style="fill:#1FD3AC" />
<path d="M463,298.8A5,5 0 1 1 453,298.8A5,5 0 1 1 463,298.8Z" style="fill:#1FD3AC" />
<path d="M464.58,282.9A5,5 0 1 1 454.58,282.9A5,5 0 1 1 464.58,282.9Z" style="fill:#1FD3AC" />
<path d="M466.16,261.2A5,5 0 1 1 456.16,261.2A5,5 0 1 1 466.16,261.2Z" style="fill:#1FD3AC" />
<path d="M467.74,273.97A5,5 0 1 1 457.74,273.97A5,5 0 1 1 467.74,273.97Z" style="fill:#1FD3AC" />
<path d="M469.32,283.4A5,5 0 1 1 459.32,283.4A5,5 0 1 1 469.32,283.4Z" style="fill:#1FD3AC" />
<path d="M470.9,259.59A5,5 0 1 1 460.9,259.59A5,5 0 1 1 470.9,259.59Z" style="fill:#1FD3AC" />
<path d="M472.48,288.42A5,5 0 1 1 462.48,288.42A5,5 0 1 1 472.48,288.42Z" style="fill:#1FD3AC" />
<path d="M474.06,280.51A5,5 0 1 1 464.06,280.51A5,5 0 1 1 474.06,280.51Z" style="fill:#1FD3AC" />
<path d="M475.64,265.99A5,5 0 1 1 465.64,265.99A5,5 0 1 1 475.64,265.99Z" style="fill:#1FD3AC" />
<path d="M477.23,285.88A5,5 0 1 1 467.23,285.88A5,5 0 1 1 477.23,285.88Z" style="fill:#1FD3AC" />
<path d="M478.81,262.1A5,5 0 1 1 468.81,262.1A5,5 0 1 1 478.81,262.1Z" style="fill:#1FD3AC" />
<path d="M480.39,313.62A5,5 0 1 1 470.39,313.62A5,5 0 1 1 480.39,313.62Z" style="fill:#1FD3AC" />
<path d="M481.97,300.78A5,5 0 1 1 471.97,300.78A5,5 0 1 1 481.97,300.78Z" style="fill:#1FD3AC" />
<path d="M483.55,279.56A5,5 0 1 1 473.55,279.56A5,5 0 1 1 483.55,279.56Z" style="fill:#1FD3AC" />
<path d="M485.13,297.3A5,5 0 1 1 475.13,297.3A5,5 0 1 1 485.13,297.3Z" style="fill:#1FD3AC" />
<path d="M486.71,289.99A5,5 0 1 1 476.71,289.99A5,5 0 1 1 486.71,289.99Z" style="fill:#1FD3AC" />
<path d="M488.29,307.36A5,5 0 1 1 478.29,307.36A5,5 0 1 1 488.29,307.36Z" style="fill:#1FD3AC" />
<path d="M489.87,312.4A5,5 0 1 1 479.87,312.4A5,5 0 1 1 489.87,312.4Z" style="fill:#1FD3AC" />
<path d="M491.45,305.85A5,5 0 1 1 481.45,305.85A5,5 0 1 1 491.45,305.85Z" style="fill:#1FD3AC" />
<path d="M493.03,287.41A5,5 0 1 1 483.03,287.41A5,5 0 1 1 493.03,287.41Z" style="fill:#1FD3AC" />
<path d="M494.62,278.72A5,5 0 1 1 484.62,278.72A5,5 0 1 1 494.62,278.72Z" style="fill:#1FD3AC" />
<path d="M496.2,306.84A5,5 0 1 1 486.2,306.84A5,5 0 1 1 496.2,306.84Z" style="fill:#1FD3AC" />
<path d="M497.78,304.7A5,5 0 1 1 487.78,304.7A5,5 0 1 1 497.78,304.7Z" style="fill:#1FD3AC" />
<path d="M499.36,318.04A5,5 0 1 1 489.36,318.04A5,5 0 1 1 499.36,318.04Z" style="fill:#1FD3AC" />
<path d="M500.94,293.32A5,5 0 1 1 490.94,293.32A5,5 0 1 1 500.94,293.32Z" style="fill:#1FD3AC" />
<path d="M502.52,314.16A5,5 0 1 1 492.52,314.16A5,5 0 1 1 502.52,314.16Z" style="fill:#1FD3AC" />
<path d="M504.1,318.42A5,5 0 1 1 494.1,318.42A5,5 0 1 1 504.1,318.42Z" style="fill:#1FD3AC" />
<path d="M505.68,293.62A5,5 0 1 1 495.68,293.62A5,5 0 1 1 505.68,293.62Z" style="fill:#1FD3AC" />
<path d="M507.26,296.05A5,5 0 1 1 497.26,296.05A5,5 0 1 1 507.26,296.05Z" style="fill:#1FD3AC" />
<path d="M508.84,274.16A5,5 0 1 1 498.84,274.16A5,5 0 1 1 508.84,274.16Z" style="fill:#1FD3AC" />
<path d="M510.42,268.72A5,5 0 1 1 500.42,268.72A5,5 0 1 1 510.42,268.72Z" style="fill:#1FD3AC" />
<path d="M512.01,289.76A5,5 0 1 1 502.01,289.76A5,5 0 1 1 512.01,289.76Z" style="fill:#1FD3AC" />
<path d="M513.59,268.84A5,5 0 1 1 503.59,268.84A5,5 0 1 1 513.59,268.84Z" style="fill:#1FD3AC" />
<path d="M515.17,251.39A5,5 0 1 1 505.17,251.39A5,5 0 1 1 515.17,251.39Z" style="fill:#1FD3AC" />
<path d="M516.75,279.49A5,5 0 1 1 506.75,279.49A5,5 0 1 1 516.75,279.49Z" style="fill:#1FD3AC" />
<path d="M518.33,273.42A5,5 0 1 1 508.33,273.42A5,5 0 1 1 518.33,273.42Z" style="fill:#1FD3AC" />
<path d="M519.91,271.1A5,5 0 1 1 509.91,271.1A5,5 0 1 1 519.91,271.1Z" style="fill:#1FD3AC" />
<path d="M521.49,265.31A5,5 0 1 1 511.49,265.31A5,5 0 1 1 521.49,265.31Z" style="fill:#1FD3AC" />
<path d="M523.07,260.44A5,5 0 1 1 513.07,260.44A5,5 0 1 1 523.07,260.44Z" style="fill:#1FD3AC" />
<path d="M524.65,280.37A5,5 0 1 1 514.65,280.37A5,5 0 1 1 524.65,280.37Z" style="fill:#1FD3AC" />
<path d="M526.23,278.62A5,5 0 1 1 516.23,278.62A5,5 0 1 1 526.23,278.62Z" style="fill:#1FD3AC" />
<path d="M527.81,249.62A5,5 0 1 1 517.81,249.62A5,5 0 1 1 527.81,249.62Z" style="fill:#1FD3AC" />
<path d="M529.4,263.57A5,5 0 1 1 519.4,263.57A5,5 0 1 1 529.4,263.57Z" style="fill:#1FD3AC" />
<path d="M530.98,271.64A5,5 0 1 1 520.98,271.64A5,5 0 1 1 530.98,271.64Z" style="fill:#1FD3AC" />
<path d="M532.56,274.88A5,5 0 1 1 522.56,274.88A5,5 0 1 1 532.56,274.88Z" style="fill:#1FD3AC" />
<path d="M534.14,272.57A5,5 0 1 1 524.14,272.57A5,5 0 1 1 534.14,272.57Z" style="fill:#1FD3AC" />
<path d="M535.72,276.23A5,5 0 1 1 525.72,276.23A5,5 0 1 1 535.72,276.23Z" style="fill:#1FD3AC" />
<path d="M537.3,266.17A5,5 0 1 1 527.3,266.17A5,5 0 1 1 537.3,266.17Z" style="fill:#1FD3AC" />
<path d="M538.88,282.25A5,5 0 1 1 528.88,282.25A5,5 0 1 1 538.88,282.25Z" style="fill:#1FD3AC" />
<path d="M540.46,268.41A5,5 0 1 1 530.46,268.41A5,5 0 1 1 540.46,268.41Z" style="fill:#1FD3AC" />
<path d="M542.04,288.22A5,5 0 1 1 532.04,288.22A5,5 0 1 1 542.04,288.22Z" style="fill:#1FD3AC" />
<path d="M543.62,272.9A5,5 0 1 1 533.62,272.9A5,5 0 1 1 543.62,272.9Z" style="fill:#1FD3AC" />
<path d="M545.2,278.43A5,5 0 1 1 535.2,278.43A5,5 0 1 1 545.2,278.43Z" style="fill:#1FD3AC" />
<path d="M546.79,263.51A5,5 0 1 1 536.79,263.51A5,5 0 1 1 546.79,263.51Z" style="fill:#1FD3AC" />
<path d="M548.37,258.2A5,5 0 1 1 538.37,258.2A5,5 0 1 1 548.37,258.2Z" style="fill:#1FD3AC" />
<path d="M549.95,252.92A5,5 0 1 1 539.95,252.92A5,5 0 1 1 549.95,252.92Z" style="fill:#1FD3AC" />
<path d="M551.53,277.64A5,5 0 1 1 541.53,277.64A5,5 0 1 1 551.53,277.64Z" style="fill:#1FD3AC" />
<path d="M553.11,276.91A5,5 0 1 1 543.11,276.91A5,5 0 1 1 553.11,276.91Z" style="fill:#1FD3AC" />
<path d="M554.69,255.98A5,5 0 1 1 544.69,255.98A5,5 0 1 1 554.69,255.98Z" style="fill:#1FD3AC" />
<path d="M556.27,295.27A5,5 0 1 1 546.27,295.27A5,5 0 1 1 556.27,295.27Z" style="fill:#1FD3AC" />
<path d="M557.85,247.63A5,5 0 1 1 547.85,247.63A5,5 0 1 1 557.85,247.63Z" style="fill:#1FD3AC" />
<path d="M559.43,275.35A5,5 0 1 1 549.43,275.35A5,5 0 1 1 559.43,275.35Z" style="fill:#1FD3AC" />
<path d="M561.01,278.7A5,5 0 1 1 551.01,278.7A5,5 0 1 1 561.01,278.7Z" style="fill:#1FD3AC" />
<path d="M562.59,272.43A5,5 0 1 1 552.59,272.43A5,5 0 1 1 562.59,272.43Z" style="fill:#1FD3AC" />
<path d="M564.18,276.12A5,5 0 1 1 554.18,276.12A5,5 0 1 1 564.18,276.12Z" style="fill:#1FD3AC" />
<path d="M565.76,271.99A5,5 0 1 1 555.76,271.99A5,5 0 1 1 565.76,271.99Z" style="fill:#1FD3AC" />
<path d="M567.34,280.97A5,5 0 1 1 557.34,280.97A5,5 0 1 1 567.34,280.97Z" style="fill:#1FD3AC" />
<path d="M568.92,285.04A5,5 0 1 1 558.92,285.04A5,5 0 1 1 568.92,285.04Z" style="fill:#1FD3AC" />
<path d="M570.5,284.47A5,5 0 1 1 560.5,284.47A5,5 0 1 1 570.5,284.47Z" style="fill:#1FD3AC" />
<path d="M572.08,262.3A5,5 0 1 1 562.08,262.3A5,5 0 1 1 572.08,262.3Z" style="fill:#1FD3AC" />
<path d="M573.66,289.59A5,5 0 1 1 563.66,289.59A5,5 0 1 1 573.66,289.59Z" style="fill:#1FD3AC" />
<path d="M575.24,279.26A5,5 0 1 1 565.24,279.26A5,5 0 1 1 575.24,279.26Z" style="fill:#1FD3AC" />
<path d="M576.82,268.68A5,5 0 1 1 566.82,268.68A5,5 0 1 1 576.82,268.68Z" style="fill:#1FD3AC" />
<path d="M578.4,241.07A5,5 0 1 1 568.4,241.07A5,5 0 1 1 578.4,241.07Z" style="fill:#1FD3AC" />
<path d="M579.98,318A5,5 0 1 1 569.98,318A5,5 0 1 1 579.98,318Z" style="fill:#1FD3AC" />
<path d="M581.56,253.05A5,5 0 1 1 571.56,253.05A5,5 0 1 1 581.56,253.05Z" style="fill:#1FD3AC" />
<path d="M583.15,316.86A5,5 0 1 1 573.15,316.86A5,5 0 1 1 583.15,316.86Z" style="fill:#1FD3AC" />
<path d="M584.73,276.85A5,5 0 1 1 574.73,276.85A5,5 0 1 1 584.73,276.85Z" style="fill:#1FD3AC" />
<path d="M586.31,339.67A5,5 0 1 1 576.31,339.67A5,5 0 1 1 586.31,339.67Z" style="fill:#1FD3AC" />
<path d="M587.89,295.14A5,5 0 1 1 577.89,295.14A5,5 0 1 1 587.89,295.14Z" style="fill:#1FD3AC" />
<path d="M589.47,280.64A5,5 0 1 1 579.47,280.64A5,5 0 1 1 589.47,280.64Z" style="fill:#1FD3AC" />
<path d="M591.05,287.22A5,5 0 1 1 581.05,287.22A5,5 0 1 1 591.05,287.22Z" style="fill:#1FD3AC" />
<path d="M592.63,267.65A5,5 0 1 1 582.63,267.65A5,5 0 1 1 592.63,267.65Z" style="fill:#1FD3AC" />
<path d="M594.21,314.78A5,5 0 1 1 584.21,314.78A5,5 0 1 1 594.21,314.78Z" style="fill:#1FD3AC" />
<path d="M595.79,345.75A5,5 0 1 1 585.79,345.75A5,5 0 1 1 595.79,345.75Z" style="fill:#1FD3AC" />
<path d="M597.37,310.2A5,5 0 1 1 587.37,310.2A5,5 0 1 1 597.37,310.2Z" style="fill:#1FD3AC" />
<path d="M598.95,327.24A5,5 0 1 1 588.95,327.24A5,5 0 1 1 598.95,327.24Z" style="fill:#1FD3AC" />
<path d="M600.54,363.59A5,5 0 1 1 590.54,363.59A5,5 0 1 1 600.54,363.59Z" style="fill:#1FD3AC" />
<path d="M602.12,309.87A5,5 0 1 1 592.12,309.87A5,5 0 1 1 602.12,309.87Z" style="fill:#1FD3AC" />
<path d="M603.7,329.44A5,5 0 1 1 593.7,329.44A5,5 0 1 1 603.7,329.44Z" style="fill:#1FD3AC" />
<path d="M605.28,289.75A5,5 0 1 1 595.28,289.75A5,5 0 1 1 605.28,289.75Z" style="fill:#1FD3AC" />
<path d="M606.86,303.96A5,5 0 1 1 596.86,303.96A5,5 0 1 1 606.86,303.96Z" style="fill:#1FD3AC" />
<path d="M608.44,301.75A5,5 0 1 1 598.44,301.75A5,5 0 1 1 608.44,301.75Z" style="fill:#1FD3AC" />
<path d="M610.02,337.25A5,5 0 1 1 600.02,337.25A5,5 0 1 1 610.02,337.25Z" style="fill:#1FD3AC" />
<path d="M611.6,322.43A5,5 0 1 1 601.6,322.43A5,5 0 1 1 611.6,322.43Z" style="fill:#1FD3AC" />
<path d="M613.18,313.08A5,5 0 1 1 603.18,313.08A5,5 0 1 1 613.18,313.08Z" style="fill:#1FD3AC" />
<path d="M614.76,309.34A5,5 0 1 1 604.76,309.34A5,5 0 1 1 614.76,309.34Z" style="fill:#1FD3AC" />
<path d="M616.34,346.74A5,5 0 1 1 606.34,346.74A5,5 0 1 1 616.34,346.74Z" style="fill:#1FD3AC" />
<path d="M617.93,356.1A5,5 0 1 1 607.93,356.1A5,5 0 1 1 617.93,356.1Z" style="fill:#1FD3AC" />
<path d="M619.51,324.13A5,5 0 1 1 609.51,324.13A5,5 0 1 1 619.51,324.13Z" style="fill:#1FD3AC" />
<path d="M621.09,366.89A5,5 0 1 1 611.09,366.89A5,5 0 1 1 621.09,366.89Z" style="fill:#1FD3AC" />
<path d="M622.67,348.15A5,5 0 1 1 612.67,348.15A5,5 0 1 1 622.67,348.15Z" style="fill:#1FD3AC" />
<path d="M624.25,334.63A5,5 0 1 1 614.25,334.63A5,5 0 1 1 624.25,334.63Z" style="fill:#1FD3AC" />
<path d="M625.83,376.75A5,5 0 1 1 615.83,376.75A5,5 0 1 1 625.83,376.75Z" style="fill:#1FD3AC" />
<path d="M627.41,284.32A5,5 0 1 1 617.41,284.32A5,5 0 1 1 627.41,284.32Z" style="fill:#1FD3AC" />
<path d="M628.99,349.05A5,5 0 1 1 618.99,349.05A5,5 0 1 1 628.99,349.05Z" style="fill:#1FD3AC" />
<path d="M630.57,287.45A5,5 0 1 1 620.57,287.45A5,5 0 1 1 630.57,287.45Z" style="fill:#1FD3AC" />
<path d="M632.15,337.62A5,5 0 1 1 622.15,337.62A5,5 0 1 1 632.15,337.62Z" style="fill:#1FD3AC" />
<path d="M633.73,357.69A5,5 0 1 1 623.73,357.69A5,5 0 1 1 633.73,357.69Z" style="fill:#1FD3AC" />
<path d="M635.32,399.48A5,5 0 1 1 625.32,399.48A5,5 0 1 1 635.32,399.48Z" style="fill:#1FD3AC" />
<path d="M636.9,337.96A5,5 0 1 1 626.9,337.96A5,5 0 1 1 636.9,337.96Z" style="fill:#1FD3AC" />
<path d="M638.48,324.86A5,5 0 1 1 628.48,324.86A5,5 0 1 1 638.48,324.86Z" style="fill:#1FD3AC" />
<path d="M640.06,362.69A5,5 0 1 1 630.06,362.69A5,5 0 1 1 640.06,362.69Z" style="fill:#1FD3AC" />
<path d="M641.64,326.19A5,5 0 1 1 631.64,326.19A5,5 0 1 1 641.64,326.19Z" style="fill:#1FD3AC" />
<path d="M643.22,321.45A5,5 0 1 1 633.22,321.45A5,5 0 1 1 643.22,321.45Z" style="fill:#1FD3AC" />
<path d="M644.8,282.72A5,5 0 1 1 634.8,282.72A5,5 0 1 1 644.8,282.72Z" style="fill:#1FD3AC" />
<path d="M646.38,324.02A5,5 0 1 1 636.38,324.02A5,5 0 1 1 646.38,324.02Z" style="fill:#1FD3AC" />
<path d="M647.96,346.84A5,5 0 1 1 637.96,346.84A5,5 0 1 1 647.96,346.84Z" style="fill:#1FD3AC" />
<path d="M649.54,324.55A5,5 0 1 1 639.54,324.55A5,5 0 1 1 649.54,324.55Z" style="fill:#1FD3AC" />
<path d="M651.12,315.24A5,5 0 1 1 641.12,315.24A5,5 0 1 1 651.12,315.24Z" style="fill:#1FD3AC" />
<path d="M652.71,367.28A5,5 0 1 1 642.71,367.28A5,5 0 1 1 652.71,367.28Z" style="fill:#1FD3AC" />
<path d="M654.29,279.21A5,5 0 1 1 644.29,279.21A5,5 0 1 1 654.29,279.21Z" style="fill:#1FD3AC" />
<path d="M655.87,331.9A5,5 0 1 1 645.87,331.9A5,5 0 1 1 655.87,331.9Z" style="fill:#1FD3AC" />
<path d="M657.45,322.01A5,5 0 1 1 647.45,322.01A5,5 0 1 1 657.45,322.01Z" style="fill:#1FD3AC" />
<path d="M659.03,341.91A5,5 0 1 1 649.03,341.91A5,5 0 1 1 659.03,341.91Z" style="fill:#1FD3AC" />
<path d="M660.61,279.93A5,5 0 1 1 650.61,279.93A5,5 0 1 1 660.61,279.93Z" style="fill:#1FD3AC" />
<path d="M662.19,303.67A5,5 0 1 1 652.19,303.67A5,5 0 1 1 662.19,303.67Z" style="fill:#1FD3AC" />
<path d="M663.77,330.43A5,5 0 1 1 653.77,330.43A5,5 0 1 1 663.77,330.43Z" style="fill:#1FD3AC" />
<path d="M665.35,301.23A5,5 0 1 1 655.35,301.23A5,5 0 1 1 665.35,301.23Z" style="fill:#1FD3AC" />
<path d="M666.93,341.05A5,5 0 1 1 656.93,341.05A5,5 0 1 1 666.93,341.05Z" style="fill:#1FD3AC" />
<path d="M668.51,349.47A5,5 0 1 1 658.51,349.47A5,5 0 1 1 668.51,349.47Z" style="fill:#1FD3AC" />
<path d="M670.1,297.36A5,5 0 1 1 660.1,297.36A5,5 0 1 1 670.1,297.36Z" style="fill:#1FD3AC" />
<path d="M671.68,324.24A5,5 0 1 1 661.68,324.24A5,5 0 1 1 671.68,324.24Z" style="fill:#1FD3AC" />
<path d="M673.26,310.52A5,5 0 1 1 663.26,310.52A5,5 0 1 1 673.26,310.52Z" style="fill:#1FD3AC" />
<path d="M674.84,354.81A5,5 0 1 1 664.84,354.81A5,5 0 1 1 674.84,354.81Z" style="fill:#1FD3AC" />
<path d="M676.42,369.2A5,5 0 1 1 666.42,369.2A5,5 0 1 1 676.42,369.2Z" style="fill:#1FD3AC" />
<path d="M678,424.81A5,5 0 1 1 668,424.81A5,5 0 1 1 678,424.81Z" style="fill:#1FD3AC" />
<path d="M679.58,435.2A5,5 0 1 1 669.58,435.2A5,5 0 1 1 679.58,435.2Z" style="fill:#1FD3AC" />
<path d="M681.16,321.7A5,5 0 1 1 671.16,321.7A5,5 0 1 1 681.16,321.7Z" style="fill:#1FD3AC" />
<path d="M682.74,360.33A5,5 0 1 1 672.74,360.33A5,5 0 1 1 682.74,360.33Z" style="fill:#1FD3AC" />
<path d="M684.32,371.95A5,5 0 1 1 674.32,371.95A5,5 0 1 1 684.32,371.95Z" style="fill:#1FD3AC" />
<path d="M685.9,357.41A5,5 0 1 1 675.9,357.41A5,5 0 1 1 685.9,357.41Z" style="fill:#1FD3AC" />
<path d="M687.49,377.26A5,5 0 1 1 677.49,377.26A5,5 0 1 1 687.49,377.26Z" style="fill:#1FD3AC" />
<path d="M689.07,400.84A5,5 0 1 1 679.07,400.84A5,5 0 1 1 689.07,400.84Z" style="fill:#1FD3AC" />
<path d="M690.65,340.12A5,5 0 1 1 680.65,340.12A5,5 0 1 1 690.65,340.12Z" style="fill:#1FD3AC" />
<path d="M692.23,343.6A5,5 0 1 1 682.23,343.6A5,5 0 1 1 692.23,343.6Z" style="fill:#1FD3AC" />
<path d="M693.81,294.28A5,5 0 1 1 683.81,294.28A5,5 0 1 1 693.81,294.28Z" style="fill:#1FD3AC" />
<path d="M695.39,325.41A5,5 0 1 1 685.39,325.41A5,5 0 1 1 695.39,325.41Z" style="fill:#1FD3AC" />
<path d="M696.97,348.1A5,5 0 1 1 686.97,348.1A5,5 0 1 1 696.97,348.1Z" style="fill:#1FD3AC" />
<path d="M698.55,348.79A5,5 0 1 1 688.55,348.79A5,5 0 1 1 698.55,348.79Z" style="fill:#1FD3AC" />
<path d="M700.13,318.21A5,5 0 1 1 690.13,318.21A5,5 0 1 1 700.13,318.21Z" style="fill:#1FD3AC" />
<path d="M701.71,309.22A5,5 0 1 1 691.71,309.22A5,5 0 1 1 701.71,309.22Z" style="fill:#1FD3AC" />
<path d="M703.29,366.21A5,5 0 1 1 693.29,366.21A5,5 0 1 1 703.29,366.21Z" style="fill:#1FD3AC" />
<path d="M704.87,381.36A5,5 0 1 1 694.87,381.36A5,5 0 1 1 704.87,381.36Z" style="fill:#1FD3AC" />
<path d="M706.46,365.77A5,5 0 1 1 696.46,365.77A5,5 0 1 1 706.46,365.77Z" style="fill:#1FD3AC" />
<path d="M708.04,348.55A5,5 0 1 1 698.04,348.55A5,5 0 1 1 708.04,348.55Z" style="fill:#1FD3AC" />
<path d="M709.62,315.69A5,5 0 1 1 699.62,315.69A5,5 0 1 1 709.62,315.69Z" style="fill:#1FD3AC" />
<path d="M711.2,292.51A5,5 0 1 1 701.2,292.51A5,5 0 1 1 711.2,292.51Z" style="fill:#1FD3AC" />
<path d="M712.78,327.42A5,5 0 1 1 702.78,327.42A5,5 0 1 1 712.78,327.42Z" style="fill:#1FD3AC" />
<path d="M714.36,290.95A5,5 0 1 1 704.36,290.95A5,5 0 1 1 714.36,290.95Z" style="fill:#1FD3AC" />
<path d="M715.94,338.27A5,5 0 1 1 705.94,338.27A5,5 0 1 1 715.94,338.27Z" style="fill:#1FD3AC" />
<path d="M717.52,304.03A5,5 0 1 1 707.52,304.03A5,5 0 1 1 717.52,304.03Z" style="fill:#1FD3AC" />
<path d="M719.1,309.91A5,5 0 1 1 709.1,309.91A5,5 0 1 1 719.1,309.91Z" style="fill:#1FD3AC" />
<path d="M720.68,312.49A5,5 0 1 1 710.68,312.49A5,5 0 1 1 720.68,312.49Z" style="fill:#1FD3AC" />
<path d="M722.26,312.39A5,5 0 1 1 712.26,312.39A5,5 0 1 1 722.26,312.39Z" style="fill:#1FD3AC" />
<path d="M723.85,343.59A5,5 0 1 1 713.85,343.59A5,5 0 1 1 723.85,343.59Z" style="fill:#1FD3AC" />
<path d="M725.43,313.7A5,5 0 1 1 715.43,313.7A5,5 0 1 1 725.43,313.7Z" style="fill:#1FD3AC" />
<path d="M727.01,314.95A5,5 0 1 1 717.01,314.95A5,5 0 1 1 727.01,314.95Z" style="fill:#1FD3AC" />
<path d="M728.59,327.75A5,5 0 1 1 718.59,327.75A5,5 0 1 1 728.59,327.75Z" style="fill:#1FD3AC" />
<path d="M730.17,337.71A5,5 0 1 1 720.17,337.71A5,5 0 1 1 730.17,337.71Z" style="fill:#1FD3AC" />
<path d="M731.75,318.63A5,5 0 1 1 721.75,318.63A5,5 0 1 1 731.75,318.63Z" style="fill:#1FD3AC" />
<path d="M733.33,368.55A5,5 0 1 1 723.33,368.55A5,5 0 1 1 733.33,368.55Z" style="fill:#1FD3AC" />
<path d="M734.91,386.1A5,5 0 1 1 724.91,386.1A5,5 0 1 1 734.91,386.1Z" style="fill:#1FD3AC" />
<path d="M736.49,379.32A5,5 0 1 1 726.49,379.32A5,5 0 1 1 736.49,379.32Z" style="fill:#1FD3AC" />
<path d="M738.07,408.99A5,5 0 1 1 728.07,408.99A5,5 0 1 1 738.07,408.99Z" style="fill:#1FD3AC" />
<path d="M739.65,425.08A5,5 0 1 1 729.65,425.08A5,5 0 1 1 739.65,425.08Z" style="fill:#1FD3AC" />
<path d="M741.24,372.64A5,5 0 1 1 731.24,372.64A5,5 0 1 1 741.24,372.64Z" style="fill:#1FD3AC" />
<path d="M742.82,386.06A5,5 0 1 1 732.82,386.06A5,5 0 1 1 742.82,386.06Z" style="fill:#1FD3AC" />
<path d="M744.4,389.6A5,5 0 1 1 734.4,389.6A5,5 0 1 1 744.4,389.6Z" style="fill:#1FD3AC" />
<path d="M745.98,402A5,5 0 1 1 735.98,402A5,5 0 1 1 745.98,402Z" style="fill:#1FD3AC" />
<path d="M747.56,420.04A5,5 0 1 1 737.56,420.04A5,5 0 1 1 747.56,420.04Z" style="fill:#1FD3AC" />
<path d="M749.14,326.21A5,5 0 1 1 739.14,326.21A5,5 0 1 1 749.14,326.21Z" style="fill:#1FD3AC" />
<path d="M750.72,492.13A5,5 0 1 1 740.72,492.13A5,5 0 1 1 750.72,492.13Z" style="fill:#1FD3AC" />
<path d="M752.3,376.88A5,5 0 1 1 742.3,376.88A5,5 0 1 1 752.3,376.88Z" style="fill:#1FD3AC" />
<path d="M753.88,483.39A5,5 0 1 1 743.88,483.39A5,5 0 1 1 753.88,483.39Z" style="fill:#1FD3AC" />
<path d="M755.46,487.47A5,5 0 1 1 745.46,487.47A5,5 0 1 1 755.46,487.47Z" style="fill:#1FD3AC" />
<path d="M757.04,600.34A5,5 0 1 1 747.04,600.34A5,5 0 1 1 757.04,600.34Z" style="fill:#1FD3AC" />
<path d="M758.63,645.16A5,5 0 1 1 748.63,645.16A5,5 0 1 1 758.63,645.16Z" style="fill:#1FD3AC" />
<path d="M760.21,724.22A5,5 0 1 1 750.21,724.22A5,5 0 1 1 760.21,724.22Z" style="fill:#1FD3AC" />
<path d="M761.79,647.98A5,5 0 1 1 751.79,647.98A5,5 0 1 1 761.79,647.98Z" style="fill:#1FD3AC" />
<path d="M763.37,572.39A5,5 0 1 1 753.37,572.39A5,5 0 1 1 763.37,572.39Z" style="fill:#1FD3AC" />
<path d="M764.95,513.24A5,5 0 1 1 754.95,513.24A5,5 0 1 1 764.95,513.24Z" style="fill:#1FD3AC" />
<path d="M766.53,580.62A5,5 0 1 1 756.53,580.62A5,5 0 1 1 766.53,580.62Z" style="fill:#1FD3AC" />
<path d="M768.11,634.59A5,5 0 1 1 758.11,634.59A5,5 0 1 1 768.11,634.59Z" style="fill:#1FD3AC" />
<path d="M769.69,504.63A5,5 0 1 1 759.69,504.63A5,5 0 1 1 769.69,504.63Z" style="fill:#1FD3AC" />
<path d="M771.27,560.11A5,5 0 1 1 761.27,560.11A5,5 0 1 1 771.27,560.11Z" style="fill:#1FD3AC" />
<path d="M772.85,464.26A5,5 0 1 1 762.85,464.26A5,5 0 1 1 772.85,464.26Z" style="fill:#1FD3AC" />
<path d="M774.43,532.31A5,5 0 1 1 764.43,532.31A5,5 0 1 1 774.43,532.31Z" style="fill:#1FD3AC" />
<path d="M776.02,418.59A5,5 0 1 1 766.02,418.59A5,5 0 1 1 776.02,418.59Z" style="fill:#1FD3AC" />
<path d="M777.6,397.9A5,5 0 1 1 767.6,397.9A5,5 0 1 1 777.6,397.9Z" style="fill:#1FD3AC" />
<path d="M779.18,356.77A5,5 0 1 1 769.18,356.77A5,5 0 1 1 779.18,356.77Z" style="fill:#1FD3AC" />
<path d="M780.76,379.53A5,5 0 1 1 770.76,379.53A5,5 0 1 1 780.76,379.53Z" style="fill:#1FD3AC" />
<path d="M782.34,408.46A5,5 0 1 1 772.34,408.46A5,5 0 1 1 782.34,408.46Z" style="fill:#1FD3AC" />
<path d="M783.92,391.56A5,5 0 1 1 773.92,391.56A5,5 0 1 1 783.92,391.56Z" style="fill:#1FD3AC" />
<path d="M785.5,394.44A5,5 0 1 1 775.5,394.44A5,5 0 1 1 785.5,394.44Z" style="fill:#1FD3AC" />
<path d="M787.08,415.95A5,5 0 1 1 777.08,415.95A5,5 0 1 1 787.08,415.95Z" style="fill:#1FD3AC" />
<path d="M788.66,444.06A5,5 0 1 1 778.66,444.06A5,5 0 1 1 788.66,444.06Z" style="fill:#1FD3AC" />
<path d="M790.24,419.05A5,5 0 1 1 780.24,419.05A5,5 0 1 1 790.24,419.05Z" style="fill:#1FD3AC" />
<path d="M791.82,497.3A5,5 0 1 1 781.82,497.3A5,5 0 1 1 791.82,497.3Z" style="fill:#1FD3AC" />
<path d="M793.41,277.66A5,5 0 1 1 783.41,277.66A5,5 0 1 1 793.41,277.66Z" style="fill:#1FD3AC" />
<path d="M794.99,377.62A5,5 0 1 1 784.99,377.62A5,5 0 1 1 794.99,377.62Z" style="fill:#1FD3AC" />
<path d="M796.57,420A5,5 0 1 1 786.57,420A5,5 0 1 1 796.57,420Z" style="fill:#1FD3AC" />
<path d="M798.15,343.7A5,5 0 1 1 788.15,343.7A5,5 0 1 1 798.15,343.7Z" style="fill:#1FD3AC" />
<path d="M799.73,308.04A5,5 0 1 1 789.73,308.04A5,5 0 1 1 799.73,308.04Z" style="fill:#1FD3AC" />
<path d="M801.31,250.6A5,5 0 1 1 791.31,250.6A5,5 0 1 1 801.31,250.6Z" style="fill:#1FD3AC" />
<path d="M802.89,363.52A5,5 0 1 1 792.89,363.52A5,5 0 1 1 802.89,363.52Z" style="fill:#1FD3AC" />
<path d="M804.47,317.27A5,5 0 1 1 794.47,317.27A5,5 0 1 1 804.47,317.27Z" style="fill:#1FD3AC" />
<path d="M806.05,318.76A5,5 0 1 1 796.05,318.76A5,5 0 1 1 806.05,318.76Z" style="fill:#1FD3AC" />
<path d="M807.63,314.33A5,5 0 1 1 797.63,314.33A5,5 0 1 1 807.63,314.33Z" style="fill:#1FD3AC" />
<path d="M809.21,331.31A5,5 0 1 1 799.21,331.31A5,5 0 1 1 809.21,331.31Z" style="fill:#1FD3AC" />
<path d="M810.8,259.09A5,5 0 1 1 800.8,259.09A5,5 0 1 1 810.8,259.09Z" style="fill:#1FD3AC" />
<path d="M812.38,260.82A5,5 0 1 1 802.38,260.82A5,5 0 1 1 812.38,260.82Z" style="fill:#1FD3AC" />
<path d="M813.96,237.83A5,5 0 1 1 803.96,237.83A5,5 0 1 1 813.96,237.83Z" style="fill:#1FD3AC" />
<path d="M815.54,249.13A5,5 0 1 1 805.54,249.13A5,5 0 1 1 815.54,249.13Z" style="fill:#1FD3AC" />
<path d="M817.12,244.81A5,5 0 1 1 807.12,244.81A5,5 0 1 1 817.12,244.81Z" style="fill:#1FD3AC" />
<path d="M818.7,247.67A5,5 0 1 1 808.7,247.67A5,5 0 1 1 818.7,247.67Z" style="fill:#1FD3AC" />
<path d="M820.28,226.39A5,5 0 1 1 810.28,226.39A5,5 0 1 1 820.28,226.39Z" style="fill:#1FD3AC" />
<path d="M821.86,253.16A5,5 0 1 1 811.86,253.16A5,5 0 1 1 821.86,253.16Z" style="fill:#1FD3AC" />
<path d="M823.44,245.17A5,5 0 1 1 813.44,245.17A5,5 0 1 1 823.44,245.17Z" style="fill:#1FD3AC" />
<path d="M825.02,213.59A5,5 0 1 1 815.02,213.59A5,5 0 1 1 825.02,213.59Z" style="fill:#1FD3AC" />
<path d="M826.6,237.3A5,5 0 1 1 816.6,237.3A5,5 0 1 1 826.6,237.3Z" style="fill:#1FD3AC" />
<path d="M828.19,227.67A5,5 0 1 1 818.19,227.67A5,5 0 1 1 828.19,227.67Z" style="fill:#1FD3AC" />
<path d="M829.77,239.17A5,5 0 1 1 819.77,239.17A5,5 0 1 1 829.77,239.17Z" style="fill:#1FD3AC" />
<path d="M831.35,205.18A5,5 0 1 1 821.35,205.18A5,5 0 1 1 831.35,205.18Z" style="fill:#1FD3AC" />
<path d="M832.93,219.96A5,5 0 1 1 822.93,219.96A5,5 0 1 1 832.93,219.96Z" style="fill:#1FD3AC" />
<path d="M834.51,201.12A5,5 0 1 1 824.51,201.12A5,5 0 1 1 834.51,201.12Z" style="fill:#1FD3AC" />
<path d="M836.09,227.67A5,5 0 1 1 826.09,227.67A5,5 0 1 1 836.09,227.67Z" style="fill:#1FD3AC" />
<path d="M837.67,227.58A5,5 0 1 1 827.67,227.58A5,5 0 1 1 837.67,227.58Z" style="fill:#1FD3AC" />
<path d="M839.25,257.08A5,5 0 1 1 829.25,257.08A5,5 0 1 1 839.25,257.08Z" style="fill:#1FD3AC" />
<path d="M840.83,227.85A5,5 0 1 1 830.83,227.85A5,5 0 1 1 840.83,227.85Z" style="fill:#1FD3AC" />
<path d="M842.41,216.37A5,5 0 1 1 832.41,216.37A5,5 0 1 1 842.41,216.37Z" style="fill:#1FD3AC" />
<path d="M843.99,234.73A5,5 0 1 1 833.99,234.73A5,5 0 1 1 843.99,234.73Z" style="fill:#1FD3AC" />
<path d="M845.57,218.11A5,5 0 1 1 835.57,218.11A5,5 0 1 1 845.57,218.11Z" style="fill:#1FD3AC" />
<path d="M847.16,219.17A5,5 0 1 1 837.16,219.17A5,5 0 1 1 847.16,219.17Z" style="fill:#1FD3AC" />
<path d="M848.74,205.06A5,5 0 1 1 838.74,205.06A5,5 0 1 1 848.74,205.06Z" style="fill:#1FD3AC" />
<path d="M850.32,201.43A5,5 0 1 1 840.32,201.43A5,5 0 1 1 850.32,201.43Z" style="fill:#1FD3AC" />
<path d="M851.9,240.15A5,5 0 1 1 841.9,240.15A5,5 0 1 1 851.9,240.15Z" style="fill:#1FD3AC" />
<path d="M853.48,212.9A5,5 0 1 1 843.48,212.9A5,5 0 1 1 853.48,212.9Z" style="fill:#1FD3AC" />
<path d="M855.06,207.18A5,5 0 1 1 845.06,207.18A5,5 0 1 1 855.06,207.18Z" style="fill:#1FD3AC" />
<path d="M856.64,203.96A5,5 0 1 1 846.64,203.96A5,5 0 1 1 856.64,203.96Z" style="fill:#1FD3AC" />
<path d="M858.22,195.08A5,5 0 1 1 848.22,195.08A5,5 0 1 1 858.22,195.08Z" style="fill:#1FD3AC" />
<path d="M859.8,214.99A5,5 0 1 1 849.8,214.99A5,5 0 1 1 859.8,214.99Z" style="fill:#1FD3AC" />
<path d="M861.38,210.94A5,5 0 1 1 851.38,210.94A5,5 0 1 1 861.38,210.94Z" style="fill:#1FD3AC" />
<path d="M862.96,225.2A5,5 0 1 1 852.96,225.2A5,5 0 1 1 862.96,225.2Z" style="fill:#1FD3AC" />
<path d="M864.55,226.84A5,5 0 1 1 854.55,226.84A5,5 0 1 1 864.55,226.84Z" style="fill:#1FD3AC" />
<path d="M866.13,190.42A5,5 0 1 1 856.13,190.42A5,5 0 1 1 866.13,190.42Z" style="fill:#1FD3AC" />
<path d="M867.71,212.2A5,5 0 1 1 857.71,212.2A5,5 0 1 1 867.71,212.2Z" style="fill:#1FD3AC" />
<path d="M869.29,203.74A5,5 0 1 1 859.29,203.74A5,5 0 1 1 869.29,203.74Z" style="fill:#1FD3AC" />
<path d="M870.87,180.54A5,5 0 1 1 860.87,180.54A5,5 0 1 1 870.87,180.54Z" style="fill:#1FD3AC" />
<path d="M872.45,209.47A5,5 0 1 1 862.45,209.47A5,5 0 1 1 872.45,209.47Z" style="fill:#1FD3AC" />
<path d="M874.03,202.18A5,5 0 1 1 864.03,202.18A5,5 0 1 1 874.03,202.18Z" style="fill:#1FD3AC" />
<path d="M875.61,189.39A5,5 0 1 1 865.61,189.39A5,5 0 1 1 875.61,189.39Z" style="fill:#1FD3AC" />
<path d="M877.19,204.1A5,5 0 1 1 867.19,204.1A5,5 0 1 1 877.19,204.1Z" style="fill:#1FD3AC" />
<path d="M878.77,197.63A5,5 0 1 1 868.77,197.63A5,5 0 1 1 878.77,197.63Z" style="fill:#1FD3AC" />
<path d="M880.35,214.01A5,5 0 1 1 870.35,214.01A5,5 0 1 1 880.35,214.01Z" style="fill:#1FD3AC" />
<path d="M881.94,188.83A5,5 0 1 1 871.94,188.83A5,5 0 1 1 881.94,188.83Z" style="fill:#1FD3AC" />
<path d="M883.52,195.14A5,5 0 1 1 873.52,195.14A5,5 0 1 1 883.52,195.14Z" style="fill:#1FD3AC" />
<path d="M885.1,195.18A5,5 0 1 1 875.1,195.18A5,5 0 1 1 885.1,195.18Z" style="fill:#1FD3AC" />
<path d="M886.68,218.6A5,5 0 1 1 876.68,218.6A5,5 0 1 1 886.68,218.6Z" style="fill:#1FD3AC" />
<path d="M888.26,186.13A5,5 0 1 1 878.26,186.13A5,5 0 1 1 888.26,186.13Z" style="fill:#1FD3AC" />
<path d="M889.84,211.8A5,5 0 1 1 879.84,211.8A5,5 0 1 1 889.84,211.8Z" style="fill:#1FD3AC" />
<path d="M891.42,228.65A5,5 0 1 1 881.42,228.65A5,5 0 1 1 891.42,228.65Z" style="fill:#1FD3AC" />
<path d="M893,209.73A5,5 0 1 1 883,209.73A5,5 0 1 1 893,209.73Z" style="fill:#1FD3AC" />
<path d="M894.58,194.49A5,5 0 1 1 884.58,194.49A5,5 0 1 1 894.58,194.49Z" style="fill:#1FD3AC" />
<path d="M896.16,201.72A5,5 0 1 1 886.16,201.72A5,5 0 1 1 896.16,201.72Z" style="fill:#1FD3AC" />
<path d="M897.74,193.83A5,5 0 1 1 887.74,193.83A5,5 0 1 1 897.74,193.83Z" style="fill:#1FD3AC" />
<path d="M899.33,197.87A5,5 0 1 1 889.33,197.87A5,5 0 1 1 899.33,197.87Z" style="fill:#1FD3AC" />
<path d="M900.91,222.04A5,5 0 1 1 890.91,222.04A5,5 0 1 1 900.91,222.04Z" style="fill:#1FD3AC" />
<path d="M902.49,195.66A5,5 0 1 1 892.49,195.66A5,5 0 1 1 902.49,195.66Z" style="fill:#1FD3AC" />
<path d="M904.07,215.51A5,5 0 1 1 894.07,215.51A5,5 0 1 1 904.07,215.51Z" style="fill:#1FD3AC" />
<path d="M905.65,218.15A5,5 0 1 1 895.65,218.15A5,5 0 1 1 905.65,218.15Z" style="fill:#1FD3AC" />
<path d="M907.23,212.01A5,5 0 1 1 897.23,212.01A5,5 0 1 1 907.23,212.01Z" style="fill:#1FD3AC" />
<path d="M908.81,227.4A5,5 0 1 1 898.81,227.4A5,5 0 1 1 908.81,227.4Z" style="fill:#1FD3AC" />
<path d="M910.39,229.5A5,5 0 1 1 900.39,229.5A5,5 0 1 1 910.39,229.5Z" style="fill:#1FD3AC" />
<path d="M911.97,239.64A5,5 0 1 1 901.97,239.64A5,5 0 1 1 911.97,239.64Z" style="fill:#1FD3AC" />
<path d="M913.55,213.35A5,5 0 1 1 903.55,213.35A5,5 0 1 1 913.55,213.35Z" style="fill:#1FD3AC" />
<path d="M915.13,220.39A5,5 0 1 1 905.13,220.39A5,5 0 1 1 915.13,220.39Z" style="fill:#1FD3AC" />
<path d="M916.72,206.35A5,5 0 1 1 906.72,206.35A5,5 0 1 1 916.72,206.35Z" style="fill:#1FD3AC" />
<path d="M918.3,188.91A5,5 0 1 1 908.3,188.91A5,5 0 1 1 918.3,188.91Z" style="fill:#1FD3AC" />
<path d="M919.88,200.13A5,5 0 1 1 909.88,200.13A5,5 0 1 1 919.88,200.13Z" style="fill:#1FD3AC" />
<path d="M921.46,204.82A5,5 0 1 1 911.46,204.82A5,5 0 1 1 921.46,204.82Z" style="fill:#1FD3AC" />
<path d="M923.04,191.82A5,5 0 1 1 913.04,191.82A5,5 0 1 1 923.04,191.82Z" style="fill:#1FD3AC" />
<path d="M924.62,212.53A5,5 0 1 1 914.62,212.53A5,5 0 1 1 924.62,212.53Z" style="fill:#1FD3AC" />
<path d="M926.2,205.83A5,5 0 1 1 916.2,205.83A5,5 0 1 1 926.2,205.83Z" style="fill:#1FD3AC" />
<path d="M927.78,213.38A5,5 0 1 1 917.78,213.38A5,5 0 1 1 927.78,213.38Z" style="fill:#1FD3AC" />
<path d="M929.36,202.11A5,5 0 1 1 919.36,202.11A5,5 0 1 1 929.36,202.11Z" style="fill:#1FD3AC" />
<path d="M930.94,198.8A5,5 0 1 1 920.94,198.8A5,5 0 1 1 930.94,198.8Z" style="fill:#1FD3AC" />
<path d="M932.52,198.32A5,5 0 1 1 922.52,198.32A5,5 0 1 1 932.52,198.32Z" style="fill:#1FD3AC" />
<path d="M934.11,208.09A5,5 0 1 1 924.11,208.09A5,5 0 1 1 934.11,208.09Z" style="fill:#1FD3AC" />
<path d="M935.69,205.47A5,5 0 1 1 925.69,205.47A5,5 0 1 1 935.69,205.47Z" style="fill:#1FD3AC" />
<path d="M937.27,201.43A5,5 0 1 1 927.27,201.43A5,5 0 1 1 937.27,201.43Z" style="fill:#1FD3AC" />
<path d="M938.85,210.2A5,5 0 1 1 928.85,210.2A5,5 0 1 1 938.85,210.2Z" style="fill:#1FD3AC" />
<path d="M940.43,201.39A5,5 0 1 1 930.43,201.39A5,5 0 1 1 940.43,201.39Z" style="fill:#1FD3AC" />
<path d="M942.01,206.43A5,5 0 1 1 932.01,206.43A5,5 0 1 1 942.01,206.43Z" style="fill:#1FD3AC" />
<path d="M943.59,195.04A5,5 0 1 1 933.59,195.04A5,5 0 1 1 943.59,195.04Z" style="fill:#1FD3AC" />
<path d="M945.17,196.68A5,5 0 1 1 935.17,196.68A5,5 0 1 1 945.17,196.68Z" style="fill:#1FD3AC" />
<path d="M946.75,234.58A5,5 0 1 1 936.75,234.58A5,5 0 1 1 946.75,234.58Z" style="fill:#1FD3AC" />
<path d="M948.33,222.23A5,5 0 1 1 938.33,222.23A5,5 0 1 1 948.33,222.23Z" style="fill:#1FD3AC" />
<path d="M949.91,187.87A5,5 0 1 1 939.91,187.87A5,5 0 1 1 949.91,187.87Z" style="fill:#1FD3AC" />
<path d="M951.5,211.43A5,5 0 1 1 941.5,211.43A5,5 0 1 1 951.5,211.43Z" style="fill:#1FD3AC" />
<path d="M953.08,218.74A5,5 0 1 1 943.08,218.74A5,5 0 1 1 953.08,218.74Z" style="fill:#1FD3AC" />
<path d="M954.66,218.09A5,5 0 1 1 944.66,218.09A5,5 0 1 1 954.66,218.09Z" style="fill:#1FD3AC" />
<path d="M956.24,220.45A5,5 0 1 1 946.24,220.45A5,5 0 1 1 956.24,220.45Z" style="fill:#1FD3AC" />
<path d="M957.82,221.42A5,5 0 1 1 947.82,221.42A5,5 0 1 1 957.82,221.42Z" style="fill:#1FD3AC" />
<path d="M959.4,203.84A5,5 0 1 1 949.4,203.84A5,5 0 1 1 959.4,203.84Z" style="fill:#1FD3AC" />
<path d="M960.98,210.35A5,5 0 1 1 950.98,210.35A5,5 0 1 1 960.98,210.35Z" style="fill:#1FD3AC" />
<path d="M962.56,210.33A5,5 0 1 1 952.56,210.33A5,5 0 1 1 962.56,210.33Z" style="fill:#1FD3AC" />
<path d="M964.14,249.05A5,5 0 1 1 954.14,249.05A5,5 0 1 1 964.14,249.05Z" style="fill:#1FD3AC" />
<path d="M965.72,225.41A5,5 0 1 1 955.72,225.41A5,5 0 1 1 965.72,225.41Z" style="fill:#1FD3AC" />
<path d="M967.3,227.77A5,5 0 1 1 957.3,227.77A5,5 0 1 1 967.3,227.77Z" style="fill:#1FD3AC" />
<path d="M968.88,218.29A5,5 0 1 1 958.88,218.29A5,5 0 1 1 968.88,218.29Z" style="fill:#1FD3AC" />
<path d="M970.47,242.93A5,5 0 1 1 960.47,242.93A5,5 0 1 1 970.47,242.93Z" style="fill:#1FD3AC" />
<path d="M972.05,208.34A5,5 0 1 1 962.05,208.34A5,5 0 1 1 972.05,208.34Z" style="fill:#1FD3AC" />
<path d="M973.63,226.04A5,5 0 1 1 963.63,226.04A5,5 0 1 1 973.63,226.04Z" style="fill:#1FD3AC" />
<path d="M975.21,244.14A5,5 0 1 1 965.21,244.14A5,5 0 1 1 975.21,244.14Z" style="fill:#1FD3AC" />
<path d="M976.79,233.51A5,5 0 1 1 966.79,233.51A5,5 0 1 1 976.79,233.51Z" style="fill:#1FD3AC" />
<path d="M978.37,235.39A5,5 0 1 1 968.37,235.39A5,5 0 1 1 978.37,235.39Z" style="fill:#1FD3AC" />
<path d="M979.95,242.28A5,5 0 1 1 969.95,242.28A5,5 0 1 1 979.95,242.28Z" style="fill:#1FD3AC" />
<path d="M981.53,208.26A5,5 0 1 1 971.53,208.26A5,5 0 1 1 981.53,208.26Z" style="fill:#1FD3AC" />
<path d="M983.11,239.19A5,5 0 1 1 973.11,239.19A5,5 0 1 1 983.11,239.19Z" style="fill:#1FD3AC" />
<path d="M984.69,266.42A5,5 0 1 1 974.69,266.42A5,5 0 1 1 984.69,266.42Z" style="fill:#1FD3AC" />
<path d="M986.27,227.79A5,5 0 1 1 976.27,227.79A5,5 0 1 1 986.27,227.79Z" style="fill:#1FD3AC" />
<path d="M987.86,224.46A5,5 0 1 1 977.86,224.46A5,5 0 1 1 987.86,224.46Z" style="fill:#1FD3AC" />
<path d="M989.44,244.86A5,5 0 1 1 979.44,244.86A5,5 0 1 1 989.44,244.86Z" style="fill:#1FD3AC" />
<path d="M991.02,235.7A5,5 0 1 1 981.02,235.7A5,5 0 1 1 991.02,235.7Z" style="fill:#1FD3AC" />
<path d="M992.6,231.14A5,5 0 1 1 982.6,231.14A5,5 0 1 1 992.6,231.14Z" style="fill:#1FD3AC" />
<path d="M994.18,224.84A5,5 0 1 1 984.18,224.84A5,5 0 1 1 994.18,224.84Z" style="fill:#1FD3AC" />
<path d="M995.76,209.83A5,5 0 1 1 985.76,209.83A5,5 0 1 1 995.76,209.83Z" style="fill:#1FD3AC" />
<path d="M997.34,225.54A5,5 0 1 1 987.34,225.54A5,5 0 1 1 997.34,225.54Z" style="fill:#1FD3AC" />
<path d="M998.92,219.69A5,5 0 1 1 988.92,219.69A5,5 0 1 1 998.92,219.69Z" style="fill:#1FD3AC" />
<path d="M1000.5,237.66A5,5 0 1 1 990.5,237.66A5,5 0 1 1 1000.5,237.66Z" style="fill:#1FD3AC" />
<path d="M1002.1,218.77A5,5 0 1 1 992.08,218.77A5,5 0 1 1 1002.1,218.77Z" style="fill:#1FD3AC" />
<path d="M1003.7,232.27A5,5 0 1 1 993.66,232.27A5,5 0 1 1 1003.7,232.27Z" style="fill:#1FD3AC" />
<path d="M1005.2,240.93A5,5 0 1 1 995.25,240.93A5,5 0 1 1 1005.2,240.93Z" style="fill:#1FD3AC" />
<path d="M1006.8,228.98A5,5 0 1 1 996.83,228.98A5,5 0 1 1 1006.8,228.98Z" style="fill:#1FD3AC" />
<path d="M1008.4,216.57A5,5 0 1 1 998.41,216.57A5,5 0 1 1 1008.4,216.57Z" style="fill:#1FD3AC" />
<path d="M1010,232.71A5,5 0 1 1 999.99,232.71A5,5 0 1 1 1010,232.71Z" style="fill:#1FD3AC" />
<path d="M1011.6,201.97A5,5 0 1 1 1001.6,201.97A5,5 0 1 1 1011.6,201.97Z" style="fill:#1FD3AC" />
<path d="M1013.2,220.48A5,5 0 1 1 1003.2,220.48A5,5 0 1 1 1013.2,220.48Z" style="fill:#1FD3AC" />
<path d="M1014.7,230.8A5,5 0 1 1 1004.7,230.8A5,5 0 1 1 1014.7,230.8Z" style="fill:#1FD3AC" />
<path d="M1016.3,209.7A5,5 0 1 1 1006.3,209.7A5,5 0 1 1 1016.3,209.7Z" style="fill:#1FD3AC" />
<path d="M1017.9,203.96A5,5 0 1 1 1007.9,203.96A5,5 0 1 1 1017.9,203.96Z" style="fill:#1FD3AC" />
<path d="M1019.5,240.64A5,5 0 1 1 1009.5,240.64A5,5 0 1 1 1019.5,240.64Z" style="fill:#1FD3AC" />
<path d="M1021.1,198.52A5,5 0 1 1 1011.1,198.52A5,5 0 1 1 1021.1,198.52Z" style="fill:#1FD3AC" />
<path d="M1022.6,194.79A5,5 0 1 1 1012.6,194.79A5,5 0 1 1 1022.6,194.79Z" style="fill:#1FD3AC" />
<path d="M1024.2,203.73A5,5 0 1 1 1014.2,203.73A5,5 0 1 1 1024.2,203.73Z" style="fill:#1FD3AC" />
<path d="M1025.8,206.93A5,5 0 1 1 1015.8,206.93A5,5 0 1 1 1025.8,206.93Z" style="fill:#1FD3AC" />
<path d="M1027.4,198.79A5,5 0 1 1 1017.4,198.79A5,5 0 1 1 1027.4,198.79Z" style="fill:#1FD3AC" />
<path d="M1029,200.08A5,5 0 1 1 1019,200.08A5,5 0 1 1 1029,200.08Z" style="fill:#1FD3AC" />
<path d="M235.05,893.04L1025.5,893.04" style="fill:none;stroke:#000000" />
<path d="M1025.5,173.24L1025.5,893.04" style="fill:none;stroke:#000000" />
<path d="M988,852.33A8,8 0 1 1 972,852.33A8,8 0 1 1 988,852.33Z" style="fill:#1FD3AC" />
<text x="604.26" y="-839.14" transform="scale(1, -1)"
	style="font-family:Helvetica;font-weight:normal;font-style:normal;font-size:56px">500 nm TeO2</text>
</g>
</svg>
