<?xml version="1.0"?>
<!-- Generated by SVGo and Plotinum VG -->
<svg width="1080pt" height="1080pt" viewBox="0 0 1080 1080"
	xmlns="http://www.w3.org/2000/svg"
	xmlns:xlink="http://www.w3.org/1999/xlink">
<g transform="scale(1, -1) translate(0, -1080)">
<path d="M0,0L1080,0L1080,1080L0,1080Z" style="fill:#-8000000000000000-8000000000000000-8000000000000000;fill-opacity:0" />
<text x="398.73" y="-1039.5" transform="scale(1, -1)"
	style="font-family:Helvetica;font-weight:normal;font-style:normal;font-size:50px"> TeO2 CABS</text>
<text x="497.32" y="-11.039" transform="scale(1, -1)"
	style="font-family:Helvetica;font-weight:normal;font-style:normal;font-size:36px">Frequency (GHz)</text>
<text x="261.91" y="-71.258" transform="scale(1, -1)"
	style="font-family:Helvetica;font-weight:normal;font-style:normal;font-size:36px">11.97</text>
<text x="480.4" y="-71.258" transform="scale(1, -1)"
	style="font-family:Helvetica;font-weight:normal;font-style:normal;font-size:36px">12.09</text>
<text x="700.22" y="-71.258" transform="scale(1, -1)"
	style="font-family:Helvetica;font-weight:normal;font-style:normal;font-size:36px">12.21</text>
<text x="920.04" y="-71.258" transform="scale(1, -1)"
	style="font-family:Helvetica;font-weight:normal;font-style:normal;font-size:36px">12.33</text>
<path d="M195.71,112.44L195.71,108.44" style="fill:none;stroke:#000000;stroke-width:1.5" />
<path d="M305.62,116.44L305.62,108.44" style="fill:none;stroke:#000000;stroke-width:1.5" />
<path d="M415.53,112.44L415.53,108.44" style="fill:none;stroke:#000000;stroke-width:1.5" />
<path d="M525.44,116.44L525.44,108.44" style="fill:none;stroke:#000000;stroke-width:1.5" />
<path d="M635.35,112.44L635.35,108.44" style="fill:none;stroke:#000000;stroke-width:1.5" />
<path d="M745.27,116.44L745.27,108.44" style="fill:none;stroke:#000000;stroke-width:1.5" />
<path d="M855.18,112.44L855.18,108.44" style="fill:none;stroke:#000000;stroke-width:1.5" />
<path d="M965.09,116.44L965.09,108.44" style="fill:none;stroke:#000000;stroke-width:1.5" />
<path d="M1075,112.44L1075,108.44" style="fill:none;stroke:#000000;stroke-width:1.5" />
<path d="M195.71,108.44L1075,108.44" style="fill:none;stroke:#000000;stroke-width:1.5" />
<g transform="rotate(90)">
<text x="371.42" y="29.18" transform="scale(1, -1)"
	style="font-family:Helvetica;font-weight:normal;font-style:normal;font-size:36px">Spectral Density (nV)</text>
</g>
<text x="87.869" y="-207.91" transform="scale(1, -1)"
	style="font-family:Helvetica;font-weight:normal;font-style:normal;font-size:36px">34.50</text>
<text x="67.848" y="-424.24" transform="scale(1, -1)"
	style="font-family:Helvetica;font-weight:normal;font-style:normal;font-size:36px">129.77</text>
<text x="67.848" y="-640.57" transform="scale(1, -1)"
	style="font-family:Helvetica;font-weight:normal;font-style:normal;font-size:36px">225.04</text>
<text x="67.848" y="-856.9" transform="scale(1, -1)"
	style="font-family:Helvetica;font-weight:normal;font-style:normal;font-size:36px">320.31</text>
<path d="M199.96,108.82L195.96,108.82" style="fill:none;stroke:#000000;stroke-width:1.5" />
<path d="M203.96,216.98L195.96,216.98" style="fill:none;stroke:#000000;stroke-width:1.5" />
<path d="M199.96,325.15L195.96,325.15" style="fill:none;stroke:#000000;stroke-width:1.5" />
<path d="M203.96,433.31L195.96,433.31" style="fill:none;stroke:#000000;stroke-width:1.5" />
<path d="M199.96,541.48L195.96,541.48" style="fill:none;stroke:#000000;stroke-width:1.5" />
<path d="M203.96,649.64L195.96,649.64" style="fill:none;stroke:#000000;stroke-width:1.5" />
<path d="M199.96,757.81L195.96,757.81" style="fill:none;stroke:#000000;stroke-width:1.5" />
<path d="M203.96,865.98L195.96,865.98" style="fill:none;stroke:#000000;stroke-width:1.5" />
<path d="M199.96,974.14L195.96,974.14" style="fill:none;stroke:#000000;stroke-width:1.5" />
<path d="M199.96,974.14L195.96,974.14" style="fill:none;stroke:#000000;stroke-width:1.5" />
<path d="M195.96,108.82L195.96,974.14" style="fill:none;stroke:#000000;stroke-width:1.5" />
<path d="M195.71,318.57L195.71,364.9" style="fill:none;stroke:#1FD3AC" />
<path d="M193.21,318.57L198.21,318.57" style="fill:none;stroke:#1FD3AC" />
<path d="M193.21,364.9L198.21,364.9" style="fill:none;stroke:#1FD3AC" />
<path d="M241.99,306.55L241.99,349.67" style="fill:none;stroke:#1FD3AC" />
<path d="M239.49,306.55L244.49,306.55" style="fill:none;stroke:#1FD3AC" />
<path d="M239.49,349.67L244.49,349.67" style="fill:none;stroke:#1FD3AC" />
<path d="M288.27,388.1L288.27,431.66" style="fill:none;stroke:#1FD3AC" />
<path d="M285.77,388.1L290.77,388.1" style="fill:none;stroke:#1FD3AC" />
<path d="M285.77,431.66L290.77,431.66" style="fill:none;stroke:#1FD3AC" />
<path d="M334.54,334.37L334.54,365.84" style="fill:none;stroke:#1FD3AC" />
<path d="M332.04,334.37L337.04,334.37" style="fill:none;stroke:#1FD3AC" />
<path d="M332.04,365.84L337.04,365.84" style="fill:none;stroke:#1FD3AC" />
<path d="M380.82,377.38L380.82,409.41" style="fill:none;stroke:#1FD3AC" />
<path d="M378.32,377.38L383.32,377.38" style="fill:none;stroke:#1FD3AC" />
<path d="M378.32,409.41L383.32,409.41" style="fill:none;stroke:#1FD3AC" />
<path d="M427.1,404.94L427.1,454.01" style="fill:none;stroke:#1FD3AC" />
<path d="M424.6,404.94L429.6,404.94" style="fill:none;stroke:#1FD3AC" />
<path d="M424.6,454.01L429.6,454.01" style="fill:none;stroke:#1FD3AC" />
<path d="M473.38,398.49L473.38,429.98" style="fill:none;stroke:#1FD3AC" />
<path d="M470.88,398.49L475.88,398.49" style="fill:none;stroke:#1FD3AC" />
<path d="M470.88,429.98L475.88,429.98" style="fill:none;stroke:#1FD3AC" />
<path d="M519.66,402.23L519.66,445.89" style="fill:none;stroke:#1FD3AC" />
<path d="M517.16,402.23L522.16,402.23" style="fill:none;stroke:#1FD3AC" />
<path d="M517.16,445.89L522.16,445.89" style="fill:none;stroke:#1FD3AC" />
<path d="M565.94,378.28L565.94,431.04" style="fill:none;stroke:#1FD3AC" />
<path d="M563.44,378.28L568.44,378.28" style="fill:none;stroke:#1FD3AC" />
<path d="M563.44,431.04L568.44,431.04" style="fill:none;stroke:#1FD3AC" />
<path d="M612.22,595.1L612.22,708.33" style="fill:none;stroke:#1FD3AC" />
<path d="M609.72,595.1L614.72,595.1" style="fill:none;stroke:#1FD3AC" />
<path d="M609.72,708.33L614.72,708.33" style="fill:none;stroke:#1FD3AC" />
<path d="M658.49,638.6L658.49,780.86" style="fill:none;stroke:#1FD3AC" />
<path d="M655.99,638.6L660.99,638.6" style="fill:none;stroke:#1FD3AC" />
<path d="M655.99,780.86L660.99,780.86" style="fill:none;stroke:#1FD3AC" />
<path d="M704.77,515.85L704.77,606.41" style="fill:none;stroke:#1FD3AC" />
<path d="M702.27,515.85L707.27,515.85" style="fill:none;stroke:#1FD3AC" />
<path d="M702.27,606.41L707.27,606.41" style="fill:none;stroke:#1FD3AC" />
<path d="M751.05,322L751.05,375.91" style="fill:none;stroke:#1FD3AC" />
<path d="M748.55,322L753.55,322" style="fill:none;stroke:#1FD3AC" />
<path d="M748.55,375.91L753.55,375.91" style="fill:none;stroke:#1FD3AC" />
<path d="M797.33,205.63L797.33,228.74" style="fill:none;stroke:#1FD3AC" />
<path d="M794.83,205.63L799.83,205.63" style="fill:none;stroke:#1FD3AC" />
<path d="M794.83,228.74L799.83,228.74" style="fill:none;stroke:#1FD3AC" />
<path d="M843.61,146.87L843.61,192.6" style="fill:none;stroke:#1FD3AC" />
<path d="M841.11,146.87L846.11,146.87" style="fill:none;stroke:#1FD3AC" />
<path d="M841.11,192.6L846.11,192.6" style="fill:none;stroke:#1FD3AC" />
<path d="M889.89,161.94L889.89,188.76" style="fill:none;stroke:#1FD3AC" />
<path d="M887.39,161.94L892.39,161.94" style="fill:none;stroke:#1FD3AC" />
<path d="M887.39,188.76L892.39,188.76" style="fill:none;stroke:#1FD3AC" />
<path d="M936.16,161.68L936.16,183.49" style="fill:none;stroke:#1FD3AC" />
<path d="M933.66,161.68L938.66,161.68" style="fill:none;stroke:#1FD3AC" />
<path d="M933.66,183.49L938.66,183.49" style="fill:none;stroke:#1FD3AC" />
<path d="M982.44,133.85L982.44,153.58" style="fill:none;stroke:#1FD3AC" />
<path d="M979.94,133.85L984.94,133.85" style="fill:none;stroke:#1FD3AC" />
<path d="M979.94,153.58L984.94,153.58" style="fill:none;stroke:#1FD3AC" />
<path d="M1028.7,170.15L1028.7,189.23" style="fill:none;stroke:#1FD3AC" />
<path d="M1026.2,170.15L1031.2,170.15" style="fill:none;stroke:#1FD3AC" />
<path d="M1026.2,189.23L1031.2,189.23" style="fill:none;stroke:#1FD3AC" />
<path d="M1075,155.4L1075,187.37" style="fill:none;stroke:#1FD3AC" />
<path d="M1072.5,155.4L1077.5,155.4" style="fill:none;stroke:#1FD3AC" />
<path d="M1072.5,187.37L1077.5,187.37" style="fill:none;stroke:#1FD3AC" />
<path d="M200.71,341.73A5,5 0 1 1 190.71,341.73A5,5 0 1 1 200.71,341.73Z" style="fill:#1FD3AC" />
<path d="M246.99,328.11A5,5 0 1 1 236.99,328.11A5,5 0 1 1 246.99,328.11Z" style="fill:#1FD3AC" />
<path d="M293.27,409.88A5,5 0 1 1 283.27,409.88A5,5 0 1 1 293.27,409.88Z" style="fill:#1FD3AC" />
<path d="M339.54,350.11A5,5 0 1 1 329.54,350.11A5,5 0 1 1 339.54,350.11Z" style="fill:#1FD3AC" />
<path d="M385.82,393.39A5,5 0 1 1 375.82,393.39A5,5 0 1 1 385.82,393.39Z" style="fill:#1FD3AC" />
<path d="M432.1,429.48A5,5 0 1 1 422.1,429.48A5,5 0 1 1 432.1,429.48Z" style="fill:#1FD3AC" />
<path d="M478.38,414.23A5,5 0 1 1 468.38,414.23A5,5 0 1 1 478.38,414.23Z" style="fill:#1FD3AC" />
<path d="M524.66,424.06A5,5 0 1 1 514.66,424.06A5,5 0 1 1 524.66,424.06Z" style="fill:#1FD3AC" />
<path d="M570.94,404.66A5,5 0 1 1 560.94,404.66A5,5 0 1 1 570.94,404.66Z" style="fill:#1FD3AC" />
<path d="M617.22,651.71A5,5 0 1 1 607.22,651.71A5,5 0 1 1 617.22,651.71Z" style="fill:#1FD3AC" />
<path d="M663.49,709.73A5,5 0 1 1 653.49,709.73A5,5 0 1 1 663.49,709.73Z" style="fill:#1FD3AC" />
<path d="M709.77,561.13A5,5 0 1 1 699.77,561.13A5,5 0 1 1 709.77,561.13Z" style="fill:#1FD3AC" />
<path d="M756.05,348.95A5,5 0 1 1 746.05,348.95A5,5 0 1 1 756.05,348.95Z" style="fill:#1FD3AC" />
<path d="M802.33,217.18A5,5 0 1 1 792.33,217.18A5,5 0 1 1 802.33,217.18Z" style="fill:#1FD3AC" />
<path d="M848.61,169.73A5,5 0 1 1 838.61,169.73A5,5 0 1 1 848.61,169.73Z" style="fill:#1FD3AC" />
<path d="M894.89,175.35A5,5 0 1 1 884.89,175.35A5,5 0 1 1 894.89,175.35Z" style="fill:#1FD3AC" />
<path d="M941.16,172.58A5,5 0 1 1 931.16,172.58A5,5 0 1 1 941.16,172.58Z" style="fill:#1FD3AC" />
<path d="M987.44,143.72A5,5 0 1 1 977.44,143.72A5,5 0 1 1 987.44,143.72Z" style="fill:#1FD3AC" />
<path d="M1033.7,179.69A5,5 0 1 1 1023.7,179.69A5,5 0 1 1 1033.7,179.69Z" style="fill:#1FD3AC" />
<path d="M1080,171.39A5,5 0 1 1 1070,171.39A5,5 0 1 1 1080,171.39Z" style="fill:#1FD3AC" />
<path d="M195.71,974.14L1075,974.14" style="fill:none;stroke:#000000" />
<path d="M1075,108.82L1075,974.14" style="fill:none;stroke:#000000" />
<path d="M195.71,294.59L195.71,317.22" style="fill:none;stroke:#FF7AB4" />
<path d="M193.21,294.59L198.21,294.59" style="fill:none;stroke:#FF7AB4" />
<path d="M193.21,317.22L198.21,317.22" style="fill:none;stroke:#FF7AB4" />
<path d="M241.99,322.82L241.99,362.99" style="fill:none;stroke:#FF7AB4" />
<path d="M239.49,322.82L244.49,322.82" style="fill:none;stroke:#FF7AB4" />
<path d="M239.49,362.99L244.49,362.99" style="fill:none;stroke:#FF7AB4" />
<path d="M288.27,298.99L288.27,325.49" style="fill:none;stroke:#FF7AB4" />
<path d="M285.77,298.99L290.77,298.99" style="fill:none;stroke:#FF7AB4" />
<path d="M285.77,325.49L290.77,325.49" style="fill:none;stroke:#FF7AB4" />
<path d="M334.54,281.04L334.54,303.86" style="fill:none;stroke:#FF7AB4" />
<path d="M332.04,281.04L337.04,281.04" style="fill:none;stroke:#FF7AB4" />
<path d="M332.04,303.86L337.04,303.86" style="fill:none;stroke:#FF7AB4" />
<path d="M380.82,286.28L380.82,323.12" style="fill:none;stroke:#FF7AB4" />
<path d="M378.32,286.28L383.32,286.28" style="fill:none;stroke:#FF7AB4" />
<path d="M378.32,323.12L383.32,323.12" style="fill:none;stroke:#FF7AB4" />
<path d="M427.1,295.96L427.1,335.69" style="fill:none;stroke:#FF7AB4" />
<path d="M424.6,295.96L429.6,295.96" style="fill:none;stroke:#FF7AB4" />
<path d="M424.6,335.69L429.6,335.69" style="fill:none;stroke:#FF7AB4" />
<path d="M473.38,327.85L473.38,367.41" style="fill:none;stroke:#FF7AB4" />
<path d="M470.88,327.85L475.88,327.85" style="fill:none;stroke:#FF7AB4" />
<path d="M470.88,367.41L475.88,367.41" style="fill:none;stroke:#FF7AB4" />
<path d="M519.66,257.65L519.66,290.35" style="fill:none;stroke:#FF7AB4" />
<path d="M517.16,257.65L522.16,257.65" style="fill:none;stroke:#FF7AB4" />
<path d="M517.16,290.35L522.16,290.35" style="fill:none;stroke:#FF7AB4" />
<path d="M565.94,239.72L565.94,278.55" style="fill:none;stroke:#FF7AB4" />
<path d="M563.44,239.72L568.44,239.72" style="fill:none;stroke:#FF7AB4" />
<path d="M563.44,278.55L568.44,278.55" style="fill:none;stroke:#FF7AB4" />
<path d="M612.22,374.52L612.22,427.77" style="fill:none;stroke:#FF7AB4" />
<path d="M609.72,374.52L614.72,374.52" style="fill:none;stroke:#FF7AB4" />
<path d="M609.72,427.77L614.72,427.77" style="fill:none;stroke:#FF7AB4" />
<path d="M658.49,396.55L658.49,447.86" style="fill:none;stroke:#FF7AB4" />
<path d="M655.99,396.55L660.99,396.55" style="fill:none;stroke:#FF7AB4" />
<path d="M655.99,447.86L660.99,447.86" style="fill:none;stroke:#FF7AB4" />
<path d="M704.77,337.83L704.77,400.87" style="fill:none;stroke:#FF7AB4" />
<path d="M702.27,337.83L707.27,337.83" style="fill:none;stroke:#FF7AB4" />
<path d="M702.27,400.87L707.27,400.87" style="fill:none;stroke:#FF7AB4" />
<path d="M751.05,257.7L751.05,295.94" style="fill:none;stroke:#FF7AB4" />
<path d="M748.55,257.7L753.55,257.7" style="fill:none;stroke:#FF7AB4" />
<path d="M748.55,295.94L753.55,295.94" style="fill:none;stroke:#FF7AB4" />
<path d="M797.33,157.09L797.33,181.8" style="fill:none;stroke:#FF7AB4" />
<path d="M794.83,157.09L799.83,157.09" style="fill:none;stroke:#FF7AB4" />
<path d="M794.83,181.8L799.83,181.8" style="fill:none;stroke:#FF7AB4" />
<path d="M843.61,126.92L843.61,159.4" style="fill:none;stroke:#FF7AB4" />
<path d="M841.11,126.92L846.11,126.92" style="fill:none;stroke:#FF7AB4" />
<path d="M841.11,159.4L846.11,159.4" style="fill:none;stroke:#FF7AB4" />
<path d="M889.89,133.3L889.89,157.2" style="fill:none;stroke:#FF7AB4" />
<path d="M887.39,133.3L892.39,133.3" style="fill:none;stroke:#FF7AB4" />
<path d="M887.39,157.2L892.39,157.2" style="fill:none;stroke:#FF7AB4" />
<path d="M936.16,146.03L936.16,170.95" style="fill:none;stroke:#FF7AB4" />
<path d="M933.66,146.03L938.66,146.03" style="fill:none;stroke:#FF7AB4" />
<path d="M933.66,170.95L938.66,170.95" style="fill:none;stroke:#FF7AB4" />
<path d="M982.44,135.94L982.44,159.34" style="fill:none;stroke:#FF7AB4" />
<path d="M979.94,135.94L984.94,135.94" style="fill:none;stroke:#FF7AB4" />
<path d="M979.94,159.34L984.94,159.34" style="fill:none;stroke:#FF7AB4" />
<path d="M1028.7,130.65L1028.7,151.56" style="fill:none;stroke:#FF7AB4" />
<path d="M1026.2,130.65L1031.2,130.65" style="fill:none;stroke:#FF7AB4" />
<path d="M1026.2,151.56L1031.2,151.56" style="fill:none;stroke:#FF7AB4" />
<path d="M1075,138.63L1075,154.68" style="fill:none;stroke:#FF7AB4" />
<path d="M1072.5,138.63L1077.5,138.63" style="fill:none;stroke:#FF7AB4" />
<path d="M1072.5,154.68L1077.5,154.68" style="fill:none;stroke:#FF7AB4" />
<path d="M200.71,305.91A5,5 0 1 1 190.71,305.91A5,5 0 1 1 200.71,305.91Z" style="fill:#FF7AB4" />
<path d="M246.99,342.9A5,5 0 1 1 236.99,342.9A5,5 0 1 1 246.99,342.9Z" style="fill:#FF7AB4" />
<path d="M293.27,312.24A5,5 0 1 1 283.27,312.24A5,5 0 1 1 293.27,312.24Z" style="fill:#FF7AB4" />
<path d="M339.54,292.45A5,5 0 1 1 329.54,292.45A5,5 0 1 1 339.54,292.45Z" style="fill:#FF7AB4" />
<path d="M385.82,304.7A5,5 0 1 1 375.82,304.7A5,5 0 1 1 385.82,304.7Z" style="fill:#FF7AB4" />
<path d="M432.1,315.82A5,5 0 1 1 422.1,315.82A5,5 0 1 1 432.1,315.82Z" style="fill:#FF7AB4" />
<path d="M478.38,347.63A5,5 0 1 1 468.38,347.63A5,5 0 1 1 478.38,347.63Z" style="fill:#FF7AB4" />
<path d="M524.66,274A5,5 0 1 1 514.66,274A5,5 0 1 1 524.66,274Z" style="fill:#FF7AB4" />
<path d="M570.94,259.14A5,5 0 1 1 560.94,259.14A5,5 0 1 1 570.94,259.14Z" style="fill:#FF7AB4" />
<path d="M617.22,401.15A5,5 0 1 1 607.22,401.15A5,5 0 1 1 617.22,401.15Z" style="fill:#FF7AB4" />
<path d="M663.49,422.2A5,5 0 1 1 653.49,422.2A5,5 0 1 1 663.49,422.2Z" style="fill:#FF7AB4" />
<path d="M709.77,369.35A5,5 0 1 1 699.77,369.35A5,5 0 1 1 709.77,369.35Z" style="fill:#FF7AB4" />
<path d="M756.05,276.82A5,5 0 1 1 746.05,276.82A5,5 0 1 1 756.05,276.82Z" style="fill:#FF7AB4" />
<path d="M802.33,169.44A5,5 0 1 1 792.33,169.44A5,5 0 1 1 802.33,169.44Z" style="fill:#FF7AB4" />
<path d="M848.61,143.16A5,5 0 1 1 838.61,143.16A5,5 0 1 1 848.61,143.16Z" style="fill:#FF7AB4" />
<path d="M894.89,145.25A5,5 0 1 1 884.89,145.25A5,5 0 1 1 894.89,145.25Z" style="fill:#FF7AB4" />
<path d="M941.16,158.49A5,5 0 1 1 931.16,158.49A5,5 0 1 1 941.16,158.49Z" style="fill:#FF7AB4" />
<path d="M987.44,147.64A5,5 0 1 1 977.44,147.64A5,5 0 1 1 987.44,147.64Z" style="fill:#FF7AB4" />
<path d="M1033.7,141.1A5,5 0 1 1 1023.7,141.1A5,5 0 1 1 1033.7,141.1Z" style="fill:#FF7AB4" />
<path d="M1080,146.66A5,5 0 1 1 1070,146.66A5,5 0 1 1 1080,146.66Z" style="fill:#FF7AB4" />
<path d="M195.71,974.14L1075,974.14" style="fill:none;stroke:#000000" />
<path d="M1075,108.82L1075,974.14" style="fill:none;stroke:#000000" />
<path d="M1038,942.02A8,8 0 1 1 1022,942.02A8,8 0 1 1 1038,942.02Z" style="fill:#1FD3AC" />
<text x="829.57" y="-933.54" transform="scale(1, -1)"
	style="font-family:Helvetica;font-weight:normal;font-style:normal;font-size:36px">1um TeO2</text>
<path d="M1038,900.61A8,8 0 1 1 1022,900.61A8,8 0 1 1 1038,900.61Z" style="fill:#FF7AB4" />
<text x="828.9" y="-892.13" transform="scale(1, -1)"
	style="font-family:Helvetica;font-weight:normal;font-style:normal;font-size:36px">no sample</text>
</g>
</svg>
