<?xml version="1.0"?>
<!-- Generated by SVGo and Plotinum VG -->
<svg width="1080pt" height="1080pt" viewBox="0 0 1080 1080"
	xmlns="http://www.w3.org/2000/svg"
	xmlns:xlink="http://www.w3.org/1999/xlink">
<g transform="scale(1, -1) translate(0, -1080)">
<path d="M0,0L1080,0L1080,1080L0,1080Z" style="fill:#-8000000000000000-8000000000000000-8000000000000000;fill-opacity:0" />
<text x="312.12" y="-1039.5" transform="scale(1, -1)"
	style="font-family:Helvetica;font-weight:normal;font-style:normal;font-size:50px">Linewidths vs Power</text>
<text x="495.95" y="-11.039" transform="scale(1, -1)"
	style="font-family:Helvetica;font-weight:normal;font-style:normal;font-size:36px">Power (mW)</text>
<text x="348.91" y="-71.258" transform="scale(1, -1)"
	style="font-family:Helvetica;font-weight:normal;font-style:normal;font-size:36px">50</text>
<text x="565.91" y="-71.258" transform="scale(1, -1)"
	style="font-family:Helvetica;font-weight:normal;font-style:normal;font-size:36px">100</text>
<text x="792.92" y="-71.258" transform="scale(1, -1)"
	style="font-family:Helvetica;font-weight:normal;font-style:normal;font-size:36px">150</text>
<text x="1019.9" y="-71.258" transform="scale(1, -1)"
	style="font-family:Helvetica;font-weight:normal;font-style:normal;font-size:36px">200</text>
<path d="M141.91,112.44L141.91,108.44" style="fill:none;stroke:#000000;stroke-width:1.5" />
<path d="M255.42,112.44L255.42,108.44" style="fill:none;stroke:#000000;stroke-width:1.5" />
<path d="M368.93,116.44L368.93,108.44" style="fill:none;stroke:#000000;stroke-width:1.5" />
<path d="M482.43,112.44L482.43,108.44" style="fill:none;stroke:#000000;stroke-width:1.5" />
<path d="M595.94,116.44L595.94,108.44" style="fill:none;stroke:#000000;stroke-width:1.5" />
<path d="M709.45,112.44L709.45,108.44" style="fill:none;stroke:#000000;stroke-width:1.5" />
<path d="M822.95,116.44L822.95,108.44" style="fill:none;stroke:#000000;stroke-width:1.5" />
<path d="M936.46,112.44L936.46,108.44" style="fill:none;stroke:#000000;stroke-width:1.5" />
<path d="M1050,116.44L1050,108.44" style="fill:none;stroke:#000000;stroke-width:1.5" />
<path d="M141.91,108.44L1050,108.44" style="fill:none;stroke:#000000;stroke-width:1.5" />
<g transform="rotate(90)">
<text x="348.53" y="29.18" transform="scale(1, -1)"
	style="font-family:Helvetica;font-weight:normal;font-style:normal;font-size:36px">Dissipation Rate (MHz)</text>
</g>
<text x="87.869" y="-381.42" transform="scale(1, -1)"
	style="font-family:Helvetica;font-weight:normal;font-style:normal;font-size:36px">80</text>
<text x="67.848" y="-667.59" transform="scale(1, -1)"
	style="font-family:Helvetica;font-weight:normal;font-style:normal;font-size:36px">100</text>
<text x="70.52" y="-953.77" transform="scale(1, -1)"
	style="font-family:Helvetica;font-weight:normal;font-style:normal;font-size:36px">110</text>
<path d="M149.91,104.32L145.91,104.32" style="fill:none;stroke:#000000;stroke-width:1.5" />
<path d="M149.91,247.4L145.91,247.4" style="fill:none;stroke:#000000;stroke-width:1.5" />
<path d="M153.91,390.49L145.91,390.49" style="fill:none;stroke:#000000;stroke-width:1.5" />
<path d="M149.91,533.58L145.91,533.58" style="fill:none;stroke:#000000;stroke-width:1.5" />
<path d="M153.91,676.66L145.91,676.66" style="fill:none;stroke:#000000;stroke-width:1.5" />
<path d="M149.91,819.75L145.91,819.75" style="fill:none;stroke:#000000;stroke-width:1.5" />
<path d="M153.91,962.84L145.91,962.84" style="fill:none;stroke:#000000;stroke-width:1.5" />
<path d="M145.91,104.32L145.91,962.84" style="fill:none;stroke:#000000;stroke-width:1.5" />
<path d="M1000,477.4L950.08,466.97L895.6,455.6L841.12,444.23L791.17,433.8L750.31,425.27L700.37,414.85L623.18,398.73L568.7,387.36L523.3,377.88L473.35,367.46L418.87,356.08L337.15,339.02L287.2,328.6L250.88,321.02L205.48,311.54" style="fill:none;stroke:#637CC6;stroke-width:3" />
<path d="M1000,179.48L950.08,196.82L895.6,215.73L841.12,234.64L791.17,251.98L750.31,266.17L700.37,283.51L623.18,310.3L568.7,329.21L523.3,344.98L473.35,362.31L418.87,381.23L337.15,409.6L287.2,426.94L250.88,439.55L205.48,455.31" style="fill:none;stroke:#C96892;stroke-width:3" />
<path d="M1006,472.3A6,6 0 1 1 994.02,472.3A6,6 0 1 1 1006,472.3Z" style="fill:#637CC6" />
<path d="M956.08,430.36A6,6 0 1 1 944.08,430.36A6,6 0 1 1 956.08,430.36Z" style="fill:#637CC6" />
<path d="M901.6,467.46A6,6 0 1 1 889.6,467.46A6,6 0 1 1 901.6,467.46Z" style="fill:#637CC6" />
<path d="M847.12,426.07A6,6 0 1 1 835.12,426.07A6,6 0 1 1 847.12,426.07Z" style="fill:#637CC6" />
<path d="M797.17,426.2A6,6 0 1 1 785.17,426.2A6,6 0 1 1 797.17,426.2Z" style="fill:#637CC6" />
<path d="M756.31,452.71A6,6 0 1 1 744.31,452.71A6,6 0 1 1 756.31,452.71Z" style="fill:#637CC6" />
<path d="M706.37,408.94A6,6 0 1 1 694.37,408.94A6,6 0 1 1 706.37,408.94Z" style="fill:#637CC6" />
<path d="M629.18,416.48A6,6 0 1 1 617.18,416.48A6,6 0 1 1 629.18,416.48Z" style="fill:#637CC6" />
<path d="M574.7,399.63A6,6 0 1 1 562.7,399.63A6,6 0 1 1 574.7,399.63Z" style="fill:#637CC6" />
<path d="M529.3,372.68A6,6 0 1 1 517.3,372.68A6,6 0 1 1 529.3,372.68Z" style="fill:#637CC6" />
<path d="M479.35,393.39A6,6 0 1 1 467.35,393.39A6,6 0 1 1 479.35,393.39Z" style="fill:#637CC6" />
<path d="M424.87,381.18A6,6 0 1 1 412.87,381.18A6,6 0 1 1 424.87,381.18Z" style="fill:#637CC6" />
<path d="M343.15,388.69A6,6 0 1 1 331.15,388.69A6,6 0 1 1 343.15,388.69Z" style="fill:#637CC6" />
<path d="M293.2,303.08A6,6 0 1 1 281.2,303.08A6,6 0 1 1 293.2,303.08Z" style="fill:#637CC6" />
<path d="M256.88,323.88A6,6 0 1 1 244.88,323.88A6,6 0 1 1 256.88,323.88Z" style="fill:#637CC6" />
<path d="M211.48,242.78A6,6 0 1 1 199.48,242.78A6,6 0 1 1 211.48,242.78Z" style="fill:#637CC6" />
<path d="M1006,186.74A6,6 0 1 1 994.02,186.74A6,6 0 1 1 1006,186.74Z" style="fill:#C96892" />
<path d="M956.08,216.91A6,6 0 1 1 944.08,216.91A6,6 0 1 1 956.08,216.91Z" style="fill:#C96892" />
<path d="M901.6,208.27A6,6 0 1 1 889.6,208.27A6,6 0 1 1 901.6,208.27Z" style="fill:#C96892" />
<path d="M847.12,257.21A6,6 0 1 1 835.12,257.21A6,6 0 1 1 847.12,257.21Z" style="fill:#C96892" />
<path d="M797.17,249.2A6,6 0 1 1 785.17,249.2A6,6 0 1 1 797.17,249.2Z" style="fill:#C96892" />
<path d="M756.31,263.27A6,6 0 1 1 744.31,263.27A6,6 0 1 1 756.31,263.27Z" style="fill:#C96892" />
<path d="M706.37,273.88A6,6 0 1 1 694.37,273.88A6,6 0 1 1 706.37,273.88Z" style="fill:#C96892" />
<path d="M629.18,302.33A6,6 0 1 1 617.18,302.33A6,6 0 1 1 629.18,302.33Z" style="fill:#C96892" />
<path d="M574.7,329.45A6,6 0 1 1 562.7,329.45A6,6 0 1 1 574.7,329.45Z" style="fill:#C96892" />
<path d="M529.3,333.77A6,6 0 1 1 517.3,333.77A6,6 0 1 1 529.3,333.77Z" style="fill:#C96892" />
<path d="M479.35,328.19A6,6 0 1 1 467.35,328.19A6,6 0 1 1 479.35,328.19Z" style="fill:#C96892" />
<path d="M424.87,369.24A6,6 0 1 1 412.87,369.24A6,6 0 1 1 424.87,369.24Z" style="fill:#C96892" />
<path d="M343.15,410.12A6,6 0 1 1 331.15,410.12A6,6 0 1 1 343.15,410.12Z" style="fill:#C96892" />
<path d="M293.2,412.98A6,6 0 1 1 281.2,412.98A6,6 0 1 1 293.2,412.98Z" style="fill:#C96892" />
<path d="M256.88,387A6,6 0 1 1 244.88,387A6,6 0 1 1 256.88,387Z" style="fill:#C96892" />
<path d="M211.48,559.17A6,6 0 1 1 199.48,559.17A6,6 0 1 1 211.48,559.17Z" style="fill:#C96892" />
<path d="M980,867.02L1030,867.02" style="fill:none;stroke:#637CC6;stroke-width:3" />
<text x="785.92" y="-858.54" transform="scale(1, -1)"
	style="font-family:Helvetica;font-weight:normal;font-style:normal;font-size:36px">Anti-Stokes</text>
<path d="M980,825.61L1030,825.61" style="fill:none;stroke:#C96892;stroke-width:3" />
<text x="859.94" y="-817.13" transform="scale(1, -1)"
	style="font-family:Helvetica;font-weight:normal;font-style:normal;font-size:36px">Stokes</text>
</g>
</svg>
