<?xml version="1.0"?>
<!-- Generated by SVGo and Plotinum VG -->
<svg width="1080pt" height="1080pt" viewBox="0 0 1080 1080"
	xmlns="http://www.w3.org/2000/svg"
	xmlns:xlink="http://www.w3.org/1999/xlink">
<g transform="scale(1, -1) translate(0, -1080)">
<path d="M0,0L1080,0L1080,1080L0,1080Z" style="fill:#-8000000000000000-8000000000000000-8000000000000000;fill-opacity:0" />
<text x="180.55" y="-1015.2" transform="scale(1, -1)"
	style="font-family:Helvetica;font-weight:normal;font-style:normal;font-size:80px">500 nm TeO2 CABS</text>
<text x="448.9" y="-17.172" transform="scale(1, -1)"
	style="font-family:Helvetica;font-weight:normal;font-style:normal;font-size:56px">Frequency (GHz)</text>
<text x="287.09" y="-119.73" transform="scale(1, -1)"
	style="font-family:Helvetica;font-weight:normal;font-style:normal;font-size:56px">11.63</text>
<text x="492.78" y="-119.73" transform="scale(1, -1)"
	style="font-family:Helvetica;font-weight:normal;font-style:normal;font-size:56px">11.87</text>
<text x="696.39" y="-119.73" transform="scale(1, -1)"
	style="font-family:Helvetica;font-weight:normal;font-style:normal;font-size:56px">12.12</text>
<text x="902.09" y="-119.73" transform="scale(1, -1)"
	style="font-family:Helvetica;font-weight:normal;font-style:normal;font-size:56px">12.37</text>
<path d="M252.23,177.12L252.23,173.12" style="fill:none;stroke:#000000;stroke-width:1.5" />
<path d="M355.08,181.12L355.08,173.12" style="fill:none;stroke:#000000;stroke-width:1.5" />
<path d="M457.92,177.12L457.92,173.12" style="fill:none;stroke:#000000;stroke-width:1.5" />
<path d="M560.77,181.12L560.77,173.12" style="fill:none;stroke:#000000;stroke-width:1.5" />
<path d="M663.62,177.12L663.62,173.12" style="fill:none;stroke:#000000;stroke-width:1.5" />
<path d="M766.46,181.12L766.46,173.12" style="fill:none;stroke:#000000;stroke-width:1.5" />
<path d="M869.31,177.12L869.31,173.12" style="fill:none;stroke:#000000;stroke-width:1.5" />
<path d="M972.15,181.12L972.15,173.12" style="fill:none;stroke:#000000;stroke-width:1.5" />
<path d="M1075,177.12L1075,173.12" style="fill:none;stroke:#000000;stroke-width:1.5" />
<path d="M252.23,173.12L1075,173.12" style="fill:none;stroke:#000000;stroke-width:1.5" />
<g transform="rotate(90)">
<text x="279.9" y="45.391" transform="scale(1, -1)"
	style="font-family:Helvetica;font-weight:normal;font-style:normal;font-size:56px">Spectral Density (uV)</text>
</g>
<text x="114.43" y="-237.37" transform="scale(1, -1)"
	style="font-family:Helvetica;font-weight:normal;font-style:normal;font-size:56px">0.05</text>
<text x="114.43" y="-383.85" transform="scale(1, -1)"
	style="font-family:Helvetica;font-weight:normal;font-style:normal;font-size:56px">0.19</text>
<text x="114.43" y="-530.32" transform="scale(1, -1)"
	style="font-family:Helvetica;font-weight:normal;font-style:normal;font-size:56px">0.33</text>
<text x="114.43" y="-676.8" transform="scale(1, -1)"
	style="font-family:Helvetica;font-weight:normal;font-style:normal;font-size:56px">0.47</text>
<text x="114.43" y="-823.28" transform="scale(1, -1)"
	style="font-family:Helvetica;font-weight:normal;font-style:normal;font-size:56px">0.61</text>
<path d="M250.98,178.24L246.98,178.24" style="fill:none;stroke:#000000;stroke-width:1.5" />
<path d="M254.98,251.48L246.98,251.48" style="fill:none;stroke:#000000;stroke-width:1.5" />
<path d="M250.98,324.72L246.98,324.72" style="fill:none;stroke:#000000;stroke-width:1.5" />
<path d="M254.98,397.96L246.98,397.96" style="fill:none;stroke:#000000;stroke-width:1.5" />
<path d="M250.98,471.2L246.98,471.2" style="fill:none;stroke:#000000;stroke-width:1.5" />
<path d="M254.98,544.43L246.98,544.43" style="fill:none;stroke:#000000;stroke-width:1.5" />
<path d="M250.98,617.67L246.98,617.67" style="fill:none;stroke:#000000;stroke-width:1.5" />
<path d="M254.98,690.91L246.98,690.91" style="fill:none;stroke:#000000;stroke-width:1.5" />
<path d="M250.98,764.15L246.98,764.15" style="fill:none;stroke:#000000;stroke-width:1.5" />
<path d="M254.98,837.39L246.98,837.39" style="fill:none;stroke:#000000;stroke-width:1.5" />
<path d="M250.98,910.62L246.98,910.62" style="fill:none;stroke:#000000;stroke-width:1.5" />
<path d="M250.98,764.15L246.98,764.15" style="fill:none;stroke:#000000;stroke-width:1.5" />
<path d="M246.98,178.24L246.98,910.62" style="fill:none;stroke:#000000;stroke-width:1.5" />
<path d="M257.23,309.81A5,5 0 1 1 247.23,309.81A5,5 0 1 1 257.23,309.81Z" style="fill:#FF7AB4" />
<path d="M261.41,474.66A5,5 0 1 1 251.41,474.66A5,5 0 1 1 261.41,474.66Z" style="fill:#FF7AB4" />
<path d="M265.58,455.5A5,5 0 1 1 255.58,455.5A5,5 0 1 1 265.58,455.5Z" style="fill:#FF7AB4" />
<path d="M269.76,519.14A5,5 0 1 1 259.76,519.14A5,5 0 1 1 269.76,519.14Z" style="fill:#FF7AB4" />
<path d="M273.94,505.48A5,5 0 1 1 263.94,505.48A5,5 0 1 1 273.94,505.48Z" style="fill:#FF7AB4" />
<path d="M278.11,359.12A5,5 0 1 1 268.11,359.12A5,5 0 1 1 278.11,359.12Z" style="fill:#FF7AB4" />
<path d="M282.29,384.91A5,5 0 1 1 272.29,384.91A5,5 0 1 1 282.29,384.91Z" style="fill:#FF7AB4" />
<path d="M286.47,397.63A5,5 0 1 1 276.47,397.63A5,5 0 1 1 286.47,397.63Z" style="fill:#FF7AB4" />
<path d="M290.64,362.91A5,5 0 1 1 280.64,362.91A5,5 0 1 1 290.64,362.91Z" style="fill:#FF7AB4" />
<path d="M294.82,279.97A5,5 0 1 1 284.82,279.97A5,5 0 1 1 294.82,279.97Z" style="fill:#FF7AB4" />
<path d="M299,374.95A5,5 0 1 1 289,374.95A5,5 0 1 1 299,374.95Z" style="fill:#FF7AB4" />
<path d="M303.17,299.96A5,5 0 1 1 293.17,299.96A5,5 0 1 1 303.17,299.96Z" style="fill:#FF7AB4" />
<path d="M307.35,325.86A5,5 0 1 1 297.35,325.86A5,5 0 1 1 307.35,325.86Z" style="fill:#FF7AB4" />
<path d="M311.52,266.28A5,5 0 1 1 301.52,266.28A5,5 0 1 1 311.52,266.28Z" style="fill:#FF7AB4" />
<path d="M315.7,370.89A5,5 0 1 1 305.7,370.89A5,5 0 1 1 315.7,370.89Z" style="fill:#FF7AB4" />
<path d="M319.88,332.76A5,5 0 1 1 309.88,332.76A5,5 0 1 1 319.88,332.76Z" style="fill:#FF7AB4" />
<path d="M324.05,368.18A5,5 0 1 1 314.05,368.18A5,5 0 1 1 324.05,368.18Z" style="fill:#FF7AB4" />
<path d="M328.23,359.97A5,5 0 1 1 318.23,359.97A5,5 0 1 1 328.23,359.97Z" style="fill:#FF7AB4" />
<path d="M332.41,525.67A5,5 0 1 1 322.41,525.67A5,5 0 1 1 332.41,525.67Z" style="fill:#FF7AB4" />
<path d="M336.58,570.11A5,5 0 1 1 326.58,570.11A5,5 0 1 1 336.58,570.11Z" style="fill:#FF7AB4" />
<path d="M340.76,529.32A5,5 0 1 1 330.76,529.32A5,5 0 1 1 340.76,529.32Z" style="fill:#FF7AB4" />
<path d="M344.94,394.83A5,5 0 1 1 334.94,394.83A5,5 0 1 1 344.94,394.83Z" style="fill:#FF7AB4" />
<path d="M349.11,591.06A5,5 0 1 1 339.11,591.06A5,5 0 1 1 349.11,591.06Z" style="fill:#FF7AB4" />
<path d="M353.29,490.88A5,5 0 1 1 343.29,490.88A5,5 0 1 1 353.29,490.88Z" style="fill:#FF7AB4" />
<path d="M357.47,476.58A5,5 0 1 1 347.47,476.58A5,5 0 1 1 357.47,476.58Z" style="fill:#FF7AB4" />
<path d="M361.64,480.19A5,5 0 1 1 351.64,480.19A5,5 0 1 1 361.64,480.19Z" style="fill:#FF7AB4" />
<path d="M365.82,540.94A5,5 0 1 1 355.82,540.94A5,5 0 1 1 365.82,540.94Z" style="fill:#FF7AB4" />
<path d="M370,520.11A5,5 0 1 1 360,520.11A5,5 0 1 1 370,520.11Z" style="fill:#FF7AB4" />
<path d="M374.17,390.32A5,5 0 1 1 364.17,390.32A5,5 0 1 1 374.17,390.32Z" style="fill:#FF7AB4" />
<path d="M378.35,338.19A5,5 0 1 1 368.35,338.19A5,5 0 1 1 378.35,338.19Z" style="fill:#FF7AB4" />
<path d="M382.53,355.48A5,5 0 1 1 372.53,355.48A5,5 0 1 1 382.53,355.48Z" style="fill:#FF7AB4" />
<path d="M386.7,402.34A5,5 0 1 1 376.7,402.34A5,5 0 1 1 386.7,402.34Z" style="fill:#FF7AB4" />
<path d="M390.88,577.03A5,5 0 1 1 380.88,577.03A5,5 0 1 1 390.88,577.03Z" style="fill:#FF7AB4" />
<path d="M395.05,561.37A5,5 0 1 1 385.05,561.37A5,5 0 1 1 395.05,561.37Z" style="fill:#FF7AB4" />
<path d="M399.23,525.38A5,5 0 1 1 389.23,525.38A5,5 0 1 1 399.23,525.38Z" style="fill:#FF7AB4" />
<path d="M403.41,764.15A5,5 0 1 1 393.41,764.15A5,5 0 1 1 403.41,764.15Z" style="fill:#FF7AB4" />
<path d="M407.58,572A5,5 0 1 1 397.58,572A5,5 0 1 1 407.58,572Z" style="fill:#FF7AB4" />
<path d="M411.76,652.15A5,5 0 1 1 401.76,652.15A5,5 0 1 1 411.76,652.15Z" style="fill:#FF7AB4" />
<path d="M415.94,636.03A5,5 0 1 1 405.94,636.03A5,5 0 1 1 415.94,636.03Z" style="fill:#FF7AB4" />
<path d="M420.11,588.13A5,5 0 1 1 410.11,588.13A5,5 0 1 1 420.11,588.13Z" style="fill:#FF7AB4" />
<path d="M424.29,661.64A5,5 0 1 1 414.29,661.64A5,5 0 1 1 424.29,661.64Z" style="fill:#FF7AB4" />
<path d="M428.47,710.88A5,5 0 1 1 418.47,710.88A5,5 0 1 1 428.47,710.88Z" style="fill:#FF7AB4" />
<path d="M432.64,538.5A5,5 0 1 1 422.64,538.5A5,5 0 1 1 432.64,538.5Z" style="fill:#FF7AB4" />
<path d="M436.82,443.61A5,5 0 1 1 426.82,443.61A5,5 0 1 1 436.82,443.61Z" style="fill:#FF7AB4" />
<path d="M441,493.48A5,5 0 1 1 431,493.48A5,5 0 1 1 441,493.48Z" style="fill:#FF7AB4" />
<path d="M445.17,540.12A5,5 0 1 1 435.17,540.12A5,5 0 1 1 445.17,540.12Z" style="fill:#FF7AB4" />
<path d="M449.35,587.56A5,5 0 1 1 439.35,587.56A5,5 0 1 1 449.35,587.56Z" style="fill:#FF7AB4" />
<path d="M453.53,450.65A5,5 0 1 1 443.53,450.65A5,5 0 1 1 453.53,450.65Z" style="fill:#FF7AB4" />
<path d="M457.7,453.26A5,5 0 1 1 447.7,453.26A5,5 0 1 1 457.7,453.26Z" style="fill:#FF7AB4" />
<path d="M461.88,412.77A5,5 0 1 1 451.88,412.77A5,5 0 1 1 461.88,412.77Z" style="fill:#FF7AB4" />
<path d="M466.06,294.08A5,5 0 1 1 456.06,294.08A5,5 0 1 1 466.06,294.08Z" style="fill:#FF7AB4" />
<path d="M470.23,560.84A5,5 0 1 1 460.23,560.84A5,5 0 1 1 470.23,560.84Z" style="fill:#FF7AB4" />
<path d="M474.41,544.01A5,5 0 1 1 464.41,544.01A5,5 0 1 1 474.41,544.01Z" style="fill:#FF7AB4" />
<path d="M478.58,358.15A5,5 0 1 1 468.58,358.15A5,5 0 1 1 478.58,358.15Z" style="fill:#FF7AB4" />
<path d="M482.76,257.08A5,5 0 1 1 472.76,257.08A5,5 0 1 1 482.76,257.08Z" style="fill:#FF7AB4" />
<path d="M486.94,297.64A5,5 0 1 1 476.94,297.64A5,5 0 1 1 486.94,297.64Z" style="fill:#FF7AB4" />
<path d="M491.11,350.33A5,5 0 1 1 481.11,350.33A5,5 0 1 1 491.11,350.33Z" style="fill:#FF7AB4" />
<path d="M495.29,321.3A5,5 0 1 1 485.29,321.3A5,5 0 1 1 495.29,321.3Z" style="fill:#FF7AB4" />
<path d="M499.47,262.05A5,5 0 1 1 489.47,262.05A5,5 0 1 1 499.47,262.05Z" style="fill:#FF7AB4" />
<path d="M503.64,317.68A5,5 0 1 1 493.64,317.68A5,5 0 1 1 503.64,317.68Z" style="fill:#FF7AB4" />
<path d="M507.82,282.37A5,5 0 1 1 497.82,282.37A5,5 0 1 1 507.82,282.37Z" style="fill:#FF7AB4" />
<path d="M512,348.54A5,5 0 1 1 502,348.54A5,5 0 1 1 512,348.54Z" style="fill:#FF7AB4" />
<path d="M516.17,395.59A5,5 0 1 1 506.17,395.59A5,5 0 1 1 516.17,395.59Z" style="fill:#FF7AB4" />
<path d="M520.35,434.18A5,5 0 1 1 510.35,434.18A5,5 0 1 1 520.35,434.18Z" style="fill:#FF7AB4" />
<path d="M524.53,454.52A5,5 0 1 1 514.53,454.52A5,5 0 1 1 524.53,454.52Z" style="fill:#FF7AB4" />
<path d="M528.7,363.61A5,5 0 1 1 518.7,363.61A5,5 0 1 1 528.7,363.61Z" style="fill:#FF7AB4" />
<path d="M532.88,333.72A5,5 0 1 1 522.88,333.72A5,5 0 1 1 532.88,333.72Z" style="fill:#FF7AB4" />
<path d="M537.06,347A5,5 0 1 1 527.06,347A5,5 0 1 1 537.06,347Z" style="fill:#FF7AB4" />
<path d="M541.23,381.63A5,5 0 1 1 531.23,381.63A5,5 0 1 1 541.23,381.63Z" style="fill:#FF7AB4" />
<path d="M545.41,360.29A5,5 0 1 1 535.41,360.29A5,5 0 1 1 545.41,360.29Z" style="fill:#FF7AB4" />
<path d="M549.59,306.1A5,5 0 1 1 539.59,306.1A5,5 0 1 1 549.59,306.1Z" style="fill:#FF7AB4" />
<path d="M553.76,252.17A5,5 0 1 1 543.76,252.17A5,5 0 1 1 553.76,252.17Z" style="fill:#FF7AB4" />
<path d="M557.94,297.7A5,5 0 1 1 547.94,297.7A5,5 0 1 1 557.94,297.7Z" style="fill:#FF7AB4" />
<path d="M562.11,343.97A5,5 0 1 1 552.11,343.97A5,5 0 1 1 562.11,343.97Z" style="fill:#FF7AB4" />
<path d="M566.29,332.2A5,5 0 1 1 556.29,332.2A5,5 0 1 1 566.29,332.2Z" style="fill:#FF7AB4" />
<path d="M570.47,368.62A5,5 0 1 1 560.47,368.62A5,5 0 1 1 570.47,368.62Z" style="fill:#FF7AB4" />
<path d="M574.64,344.5A5,5 0 1 1 564.64,344.5A5,5 0 1 1 574.64,344.5Z" style="fill:#FF7AB4" />
<path d="M578.82,426.82A5,5 0 1 1 568.82,426.82A5,5 0 1 1 578.82,426.82Z" style="fill:#FF7AB4" />
<path d="M583,259.19A5,5 0 1 1 573,259.19A5,5 0 1 1 583,259.19Z" style="fill:#FF7AB4" />
<path d="M587.17,263.55A5,5 0 1 1 577.17,263.55A5,5 0 1 1 587.17,263.55Z" style="fill:#FF7AB4" />
<path d="M591.35,283.3A5,5 0 1 1 581.35,283.3A5,5 0 1 1 591.35,283.3Z" style="fill:#FF7AB4" />
<path d="M595.53,301.5A5,5 0 1 1 585.53,301.5A5,5 0 1 1 595.53,301.5Z" style="fill:#FF7AB4" />
<path d="M599.7,302.07A5,5 0 1 1 589.7,302.07A5,5 0 1 1 599.7,302.07Z" style="fill:#FF7AB4" />
<path d="M603.88,282.26A5,5 0 1 1 593.88,282.26A5,5 0 1 1 603.88,282.26Z" style="fill:#FF7AB4" />
<path d="M608.06,326.56A5,5 0 1 1 598.06,326.56A5,5 0 1 1 608.06,326.56Z" style="fill:#FF7AB4" />
<path d="M612.23,358.34A5,5 0 1 1 602.23,358.34A5,5 0 1 1 612.23,358.34Z" style="fill:#FF7AB4" />
<path d="M616.41,272.7A5,5 0 1 1 606.41,272.7A5,5 0 1 1 616.41,272.7Z" style="fill:#FF7AB4" />
<path d="M620.59,244.22A5,5 0 1 1 610.59,244.22A5,5 0 1 1 620.59,244.22Z" style="fill:#FF7AB4" />
<path d="M624.76,379.96A5,5 0 1 1 614.76,379.96A5,5 0 1 1 624.76,379.96Z" style="fill:#FF7AB4" />
<path d="M628.94,340.41A5,5 0 1 1 618.94,340.41A5,5 0 1 1 628.94,340.41Z" style="fill:#FF7AB4" />
<path d="M633.12,376.3A5,5 0 1 1 623.12,376.3A5,5 0 1 1 633.12,376.3Z" style="fill:#FF7AB4" />
<path d="M637.29,380.18A5,5 0 1 1 627.29,380.18A5,5 0 1 1 637.29,380.18Z" style="fill:#FF7AB4" />
<path d="M641.47,338.53A5,5 0 1 1 631.47,338.53A5,5 0 1 1 641.47,338.53Z" style="fill:#FF7AB4" />
<path d="M645.64,408.6A5,5 0 1 1 635.64,408.6A5,5 0 1 1 645.64,408.6Z" style="fill:#FF7AB4" />
<path d="M649.82,355.4A5,5 0 1 1 639.82,355.4A5,5 0 1 1 649.82,355.4Z" style="fill:#FF7AB4" />
<path d="M654,275.45A5,5 0 1 1 644,275.45A5,5 0 1 1 654,275.45Z" style="fill:#FF7AB4" />
<path d="M658.17,253.68A5,5 0 1 1 648.17,253.68A5,5 0 1 1 658.17,253.68Z" style="fill:#FF7AB4" />
<path d="M662.35,335.67A5,5 0 1 1 652.35,335.67A5,5 0 1 1 662.35,335.67Z" style="fill:#FF7AB4" />
<path d="M666.53,381.97A5,5 0 1 1 656.53,381.97A5,5 0 1 1 666.53,381.97Z" style="fill:#FF7AB4" />
<path d="M670.7,320.19A5,5 0 1 1 660.7,320.19A5,5 0 1 1 670.7,320.19Z" style="fill:#FF7AB4" />
<path d="M674.88,335A5,5 0 1 1 664.88,335A5,5 0 1 1 674.88,335Z" style="fill:#FF7AB4" />
<path d="M679.06,270.12A5,5 0 1 1 669.06,270.12A5,5 0 1 1 679.06,270.12Z" style="fill:#FF7AB4" />
<path d="M683.23,310.08A5,5 0 1 1 673.23,310.08A5,5 0 1 1 683.23,310.08Z" style="fill:#FF7AB4" />
<path d="M687.41,283.99A5,5 0 1 1 677.41,283.99A5,5 0 1 1 687.41,283.99Z" style="fill:#FF7AB4" />
<path d="M691.59,391.54A5,5 0 1 1 681.59,391.54A5,5 0 1 1 691.59,391.54Z" style="fill:#FF7AB4" />
<path d="M695.76,312.07A5,5 0 1 1 685.76,312.07A5,5 0 1 1 695.76,312.07Z" style="fill:#FF7AB4" />
<path d="M699.94,348.59A5,5 0 1 1 689.94,348.59A5,5 0 1 1 699.94,348.59Z" style="fill:#FF7AB4" />
<path d="M704.12,322.27A5,5 0 1 1 694.12,322.27A5,5 0 1 1 704.12,322.27Z" style="fill:#FF7AB4" />
<path d="M708.29,262.47A5,5 0 1 1 698.29,262.47A5,5 0 1 1 708.29,262.47Z" style="fill:#FF7AB4" />
<path d="M712.47,320.13A5,5 0 1 1 702.47,320.13A5,5 0 1 1 712.47,320.13Z" style="fill:#FF7AB4" />
<path d="M716.64,330.87A5,5 0 1 1 706.64,330.87A5,5 0 1 1 716.64,330.87Z" style="fill:#FF7AB4" />
<path d="M720.82,324.36A5,5 0 1 1 710.82,324.36A5,5 0 1 1 720.82,324.36Z" style="fill:#FF7AB4" />
<path d="M725,325.22A5,5 0 1 1 715,325.22A5,5 0 1 1 725,325.22Z" style="fill:#FF7AB4" />
<path d="M729.17,291.16A5,5 0 1 1 719.17,291.16A5,5 0 1 1 729.17,291.16Z" style="fill:#FF7AB4" />
<path d="M733.35,327.04A5,5 0 1 1 723.35,327.04A5,5 0 1 1 733.35,327.04Z" style="fill:#FF7AB4" />
<path d="M737.53,271.14A5,5 0 1 1 727.53,271.14A5,5 0 1 1 737.53,271.14Z" style="fill:#FF7AB4" />
<path d="M741.7,308.77A5,5 0 1 1 731.7,308.77A5,5 0 1 1 741.7,308.77Z" style="fill:#FF7AB4" />
<path d="M745.88,378.81A5,5 0 1 1 735.88,378.81A5,5 0 1 1 745.88,378.81Z" style="fill:#FF7AB4" />
<path d="M750.06,307.42A5,5 0 1 1 740.06,307.42A5,5 0 1 1 750.06,307.42Z" style="fill:#FF7AB4" />
<path d="M754.23,211A5,5 0 1 1 744.23,211A5,5 0 1 1 754.23,211Z" style="fill:#FF7AB4" />
<path d="M758.41,250.69A5,5 0 1 1 748.41,250.69A5,5 0 1 1 758.41,250.69Z" style="fill:#FF7AB4" />
<path d="M762.59,317.93A5,5 0 1 1 752.59,317.93A5,5 0 1 1 762.59,317.93Z" style="fill:#FF7AB4" />
<path d="M766.76,384.52A5,5 0 1 1 756.76,384.52A5,5 0 1 1 766.76,384.52Z" style="fill:#FF7AB4" />
<path d="M770.94,262.34A5,5 0 1 1 760.94,262.34A5,5 0 1 1 770.94,262.34Z" style="fill:#FF7AB4" />
<path d="M775.12,303.67A5,5 0 1 1 765.12,303.67A5,5 0 1 1 775.12,303.67Z" style="fill:#FF7AB4" />
<path d="M779.29,371.98A5,5 0 1 1 769.29,371.98A5,5 0 1 1 779.29,371.98Z" style="fill:#FF7AB4" />
<path d="M783.47,301.67A5,5 0 1 1 773.47,301.67A5,5 0 1 1 783.47,301.67Z" style="fill:#FF7AB4" />
<path d="M787.65,271.03A5,5 0 1 1 777.65,271.03A5,5 0 1 1 787.65,271.03Z" style="fill:#FF7AB4" />
<path d="M791.82,247.78A5,5 0 1 1 781.82,247.78A5,5 0 1 1 791.82,247.78Z" style="fill:#FF7AB4" />
<path d="M796,285A5,5 0 1 1 786,285A5,5 0 1 1 796,285Z" style="fill:#FF7AB4" />
<path d="M800.17,240.03A5,5 0 1 1 790.17,240.03A5,5 0 1 1 800.17,240.03Z" style="fill:#FF7AB4" />
<path d="M804.35,266.93A5,5 0 1 1 794.35,266.93A5,5 0 1 1 804.35,266.93Z" style="fill:#FF7AB4" />
<path d="M808.53,346.03A5,5 0 1 1 798.53,346.03A5,5 0 1 1 808.53,346.03Z" style="fill:#FF7AB4" />
<path d="M812.7,269.38A5,5 0 1 1 802.7,269.38A5,5 0 1 1 812.7,269.38Z" style="fill:#FF7AB4" />
<path d="M816.88,234.85A5,5 0 1 1 806.88,234.85A5,5 0 1 1 816.88,234.85Z" style="fill:#FF7AB4" />
<path d="M821.06,308.34A5,5 0 1 1 811.06,308.34A5,5 0 1 1 821.06,308.34Z" style="fill:#FF7AB4" />
<path d="M825.23,285.33A5,5 0 1 1 815.23,285.33A5,5 0 1 1 825.23,285.33Z" style="fill:#FF7AB4" />
<path d="M829.41,302.17A5,5 0 1 1 819.41,302.17A5,5 0 1 1 829.41,302.17Z" style="fill:#FF7AB4" />
<path d="M833.59,273.88A5,5 0 1 1 823.59,273.88A5,5 0 1 1 833.59,273.88Z" style="fill:#FF7AB4" />
<path d="M837.76,274.08A5,5 0 1 1 827.76,274.08A5,5 0 1 1 837.76,274.08Z" style="fill:#FF7AB4" />
<path d="M841.94,266.36A5,5 0 1 1 831.94,266.36A5,5 0 1 1 841.94,266.36Z" style="fill:#FF7AB4" />
<path d="M846.12,283.91A5,5 0 1 1 836.12,283.91A5,5 0 1 1 846.12,283.91Z" style="fill:#FF7AB4" />
<path d="M850.29,274.41A5,5 0 1 1 840.29,274.41A5,5 0 1 1 850.29,274.41Z" style="fill:#FF7AB4" />
<path d="M854.47,238.87A5,5 0 1 1 844.47,238.87A5,5 0 1 1 854.47,238.87Z" style="fill:#FF7AB4" />
<path d="M858.65,213.09A5,5 0 1 1 848.65,213.09A5,5 0 1 1 858.65,213.09Z" style="fill:#FF7AB4" />
<path d="M862.82,267.92A5,5 0 1 1 852.82,267.92A5,5 0 1 1 862.82,267.92Z" style="fill:#FF7AB4" />
<path d="M867,215.73A5,5 0 1 1 857,215.73A5,5 0 1 1 867,215.73Z" style="fill:#FF7AB4" />
<path d="M871.18,197.56A5,5 0 1 1 861.18,197.56A5,5 0 1 1 871.18,197.56Z" style="fill:#FF7AB4" />
<path d="M875.35,224.11A5,5 0 1 1 865.35,224.11A5,5 0 1 1 875.35,224.11Z" style="fill:#FF7AB4" />
<path d="M879.53,190.29A5,5 0 1 1 869.53,190.29A5,5 0 1 1 879.53,190.29Z" style="fill:#FF7AB4" />
<path d="M883.7,220.39A5,5 0 1 1 873.7,220.39A5,5 0 1 1 883.7,220.39Z" style="fill:#FF7AB4" />
<path d="M887.88,197.46A5,5 0 1 1 877.88,197.46A5,5 0 1 1 887.88,197.46Z" style="fill:#FF7AB4" />
<path d="M892.06,230.94A5,5 0 1 1 882.06,230.94A5,5 0 1 1 892.06,230.94Z" style="fill:#FF7AB4" />
<path d="M896.23,205.9A5,5 0 1 1 886.23,205.9A5,5 0 1 1 896.23,205.9Z" style="fill:#FF7AB4" />
<path d="M900.41,202.59A5,5 0 1 1 890.41,202.59A5,5 0 1 1 900.41,202.59Z" style="fill:#FF7AB4" />
<path d="M904.59,197.99A5,5 0 1 1 894.59,197.99A5,5 0 1 1 904.59,197.99Z" style="fill:#FF7AB4" />
<path d="M908.76,246.79A5,5 0 1 1 898.76,246.79A5,5 0 1 1 908.76,246.79Z" style="fill:#FF7AB4" />
<path d="M912.94,206.3A5,5 0 1 1 902.94,206.3A5,5 0 1 1 912.94,206.3Z" style="fill:#FF7AB4" />
<path d="M917.12,187.32A5,5 0 1 1 907.12,187.32A5,5 0 1 1 917.12,187.32Z" style="fill:#FF7AB4" />
<path d="M921.29,178.24A5,5 0 1 1 911.29,178.24A5,5 0 1 1 921.29,178.24Z" style="fill:#FF7AB4" />
<path d="M925.47,232.83A5,5 0 1 1 915.47,232.83A5,5 0 1 1 925.47,232.83Z" style="fill:#FF7AB4" />
<path d="M929.65,236.54A5,5 0 1 1 919.65,236.54A5,5 0 1 1 929.65,236.54Z" style="fill:#FF7AB4" />
<path d="M933.82,229.14A5,5 0 1 1 923.82,229.14A5,5 0 1 1 933.82,229.14Z" style="fill:#FF7AB4" />
<path d="M938,227.56A5,5 0 1 1 928,227.56A5,5 0 1 1 938,227.56Z" style="fill:#FF7AB4" />
<path d="M942.18,246.01A5,5 0 1 1 932.18,246.01A5,5 0 1 1 942.18,246.01Z" style="fill:#FF7AB4" />
<path d="M946.35,232.2A5,5 0 1 1 936.35,232.2A5,5 0 1 1 946.35,232.2Z" style="fill:#FF7AB4" />
<path d="M950.53,203.03A5,5 0 1 1 940.53,203.03A5,5 0 1 1 950.53,203.03Z" style="fill:#FF7AB4" />
<path d="M954.71,218.01A5,5 0 1 1 944.71,218.01A5,5 0 1 1 954.71,218.01Z" style="fill:#FF7AB4" />
<path d="M958.88,235.69A5,5 0 1 1 948.88,235.69A5,5 0 1 1 958.88,235.69Z" style="fill:#FF7AB4" />
<path d="M963.06,221.74A5,5 0 1 1 953.06,221.74A5,5 0 1 1 963.06,221.74Z" style="fill:#FF7AB4" />
<path d="M967.23,253.5A5,5 0 1 1 957.23,253.5A5,5 0 1 1 967.23,253.5Z" style="fill:#FF7AB4" />
<path d="M971.41,242.51A5,5 0 1 1 961.41,242.51A5,5 0 1 1 971.41,242.51Z" style="fill:#FF7AB4" />
<path d="M975.59,244.25A5,5 0 1 1 965.59,244.25A5,5 0 1 1 975.59,244.25Z" style="fill:#FF7AB4" />
<path d="M979.76,232.33A5,5 0 1 1 969.76,232.33A5,5 0 1 1 979.76,232.33Z" style="fill:#FF7AB4" />
<path d="M983.94,178.78A5,5 0 1 1 973.94,178.78A5,5 0 1 1 983.94,178.78Z" style="fill:#FF7AB4" />
<path d="M988.12,239.36A5,5 0 1 1 978.12,239.36A5,5 0 1 1 988.12,239.36Z" style="fill:#FF7AB4" />
<path d="M992.29,230.97A5,5 0 1 1 982.29,230.97A5,5 0 1 1 992.29,230.97Z" style="fill:#FF7AB4" />
<path d="M996.47,225.11A5,5 0 1 1 986.47,225.11A5,5 0 1 1 996.47,225.11Z" style="fill:#FF7AB4" />
<path d="M1000.6,241.57A5,5 0 1 1 990.65,241.57A5,5 0 1 1 1000.6,241.57Z" style="fill:#FF7AB4" />
<path d="M1004.8,251.99A5,5 0 1 1 994.82,251.99A5,5 0 1 1 1004.8,251.99Z" style="fill:#FF7AB4" />
<path d="M1009,230.13A5,5 0 1 1 999,230.13A5,5 0 1 1 1009,230.13Z" style="fill:#FF7AB4" />
<path d="M1013.2,216.48A5,5 0 1 1 1003.2,216.48A5,5 0 1 1 1013.2,216.48Z" style="fill:#FF7AB4" />
<path d="M1017.4,197.97A5,5 0 1 1 1007.4,197.97A5,5 0 1 1 1017.4,197.97Z" style="fill:#FF7AB4" />
<path d="M1021.5,237.77A5,5 0 1 1 1011.5,237.77A5,5 0 1 1 1021.5,237.77Z" style="fill:#FF7AB4" />
<path d="M1025.7,225.51A5,5 0 1 1 1015.7,225.51A5,5 0 1 1 1025.7,225.51Z" style="fill:#FF7AB4" />
<path d="M1029.9,199.71A5,5 0 1 1 1019.9,199.71A5,5 0 1 1 1029.9,199.71Z" style="fill:#FF7AB4" />
<path d="M1034.1,215.39A5,5 0 1 1 1024.1,215.39A5,5 0 1 1 1034.1,215.39Z" style="fill:#FF7AB4" />
<path d="M1038.2,237.48A5,5 0 1 1 1028.2,237.48A5,5 0 1 1 1038.2,237.48Z" style="fill:#FF7AB4" />
<path d="M1042.4,194.82A5,5 0 1 1 1032.4,194.82A5,5 0 1 1 1042.4,194.82Z" style="fill:#FF7AB4" />
<path d="M1046.6,218.41A5,5 0 1 1 1036.6,218.41A5,5 0 1 1 1046.6,218.41Z" style="fill:#FF7AB4" />
<path d="M1050.8,210.27A5,5 0 1 1 1040.8,210.27A5,5 0 1 1 1050.8,210.27Z" style="fill:#FF7AB4" />
<path d="M1054.9,276.62A5,5 0 1 1 1044.9,276.62A5,5 0 1 1 1054.9,276.62Z" style="fill:#FF7AB4" />
<path d="M1059.1,232.81A5,5 0 1 1 1049.1,232.81A5,5 0 1 1 1059.1,232.81Z" style="fill:#FF7AB4" />
<path d="M1063.3,219.67A5,5 0 1 1 1053.3,219.67A5,5 0 1 1 1063.3,219.67Z" style="fill:#FF7AB4" />
<path d="M1067.5,212.3A5,5 0 1 1 1057.5,212.3A5,5 0 1 1 1067.5,212.3Z" style="fill:#FF7AB4" />
<path d="M1071.6,243.22A5,5 0 1 1 1061.6,243.22A5,5 0 1 1 1071.6,243.22Z" style="fill:#FF7AB4" />
<path d="M1075.8,211.27A5,5 0 1 1 1065.8,211.27A5,5 0 1 1 1075.8,211.27Z" style="fill:#FF7AB4" />
<path d="M1080,214.45A5,5 0 1 1 1070,214.45A5,5 0 1 1 1080,214.45Z" style="fill:#FF7AB4" />
<path d="M252.23,910.62L1075,910.62" style="fill:none;stroke:#000000" />
<path d="M1075,178.24L1075,910.62" style="fill:none;stroke:#000000" />
<path d="M1038,852.33A8,8 0 1 1 1022,852.33A8,8 0 1 1 1038,852.33Z" style="fill:#FF7AB4" />
<text x="544.34" y="-839.14" transform="scale(1, -1)"
	style="font-family:Helvetica;font-weight:normal;font-style:normal;font-size:56px">Sample Removed</text>
</g>
</svg>
