<?xml version="1.0"?>
<!-- Generated by SVGo and Plotinum VG -->
<svg width="1080pt" height="1080pt" viewBox="0 0 1080 1080"
	xmlns="http://www.w3.org/2000/svg"
	xmlns:xlink="http://www.w3.org/1999/xlink">
<g transform="scale(1, -1) translate(0, -1080)">
<path d="M0,0L1080,0L1080,1080L0,1080Z" style="fill:#-8000000000000000-8000000000000000-8000000000000000;fill-opacity:0" />
<text x="82.847" y="-1039.5" transform="scale(1, -1)"
	style="font-family:Helvetica;font-weight:normal;font-style:normal;font-size:50px">1 cm UHNA3 Phase-Matching Bandwidth</text>
<text x="366.73" y="-11.039" transform="scale(1, -1)"
	style="font-family:Helvetica;font-weight:normal;font-style:normal;font-size:36px">Pump-Probe Separation (GHz)</text>
<text x="227" y="-71.258" transform="scale(1, -1)"
	style="font-family:Helvetica;font-weight:normal;font-style:normal;font-size:36px">5.00</text>
<text x="439.72" y="-71.258" transform="scale(1, -1)"
	style="font-family:Helvetica;font-weight:normal;font-style:normal;font-size:36px">15.00</text>
<text x="662.45" y="-71.258" transform="scale(1, -1)"
	style="font-family:Helvetica;font-weight:normal;font-style:normal;font-size:36px">25.00</text>
<text x="885.18" y="-71.258" transform="scale(1, -1)"
	style="font-family:Helvetica;font-weight:normal;font-style:normal;font-size:36px">35.00</text>
<path d="M150.67,112.44L150.67,108.44" style="fill:none;stroke:#000000;stroke-width:1.5" />
<path d="M262.03,116.44L262.03,108.44" style="fill:none;stroke:#000000;stroke-width:1.5" />
<path d="M373.4,112.44L373.4,108.44" style="fill:none;stroke:#000000;stroke-width:1.5" />
<path d="M484.76,116.44L484.76,108.44" style="fill:none;stroke:#000000;stroke-width:1.5" />
<path d="M596.13,112.44L596.13,108.44" style="fill:none;stroke:#000000;stroke-width:1.5" />
<path d="M707.49,116.44L707.49,108.44" style="fill:none;stroke:#000000;stroke-width:1.5" />
<path d="M818.86,112.44L818.86,108.44" style="fill:none;stroke:#000000;stroke-width:1.5" />
<path d="M930.22,116.44L930.22,108.44" style="fill:none;stroke:#000000;stroke-width:1.5" />
<path d="M150.67,108.44L1075,108.44" style="fill:none;stroke:#000000;stroke-width:1.5" />
<g transform="rotate(90)">
<text x="364.4" y="29.18" transform="scale(1, -1)"
	style="font-family:Helvetica;font-weight:normal;font-style:normal;font-size:36px">Peak Spectral Density</text>
</g>
<text x="67.848" y="-136.52" transform="scale(1, -1)"
	style="font-family:Helvetica;font-weight:normal;font-style:normal;font-size:36px">0.34</text>
<text x="67.848" y="-210.08" transform="scale(1, -1)"
	style="font-family:Helvetica;font-weight:normal;font-style:normal;font-size:36px">1.03</text>
<text x="67.848" y="-283.63" transform="scale(1, -1)"
	style="font-family:Helvetica;font-weight:normal;font-style:normal;font-size:36px">1.71</text>
<text x="67.848" y="-357.19" transform="scale(1, -1)"
	style="font-family:Helvetica;font-weight:normal;font-style:normal;font-size:36px">2.40</text>
<text x="67.848" y="-430.74" transform="scale(1, -1)"
	style="font-family:Helvetica;font-weight:normal;font-style:normal;font-size:36px">3.08</text>
<path d="M159.92,108.82L155.92,108.82" style="fill:none;stroke:#000000;stroke-width:1.5" />
<path d="M163.92,145.59L155.92,145.59" style="fill:none;stroke:#000000;stroke-width:1.5" />
<path d="M159.92,182.37L155.92,182.37" style="fill:none;stroke:#000000;stroke-width:1.5" />
<path d="M163.92,219.15L155.92,219.15" style="fill:none;stroke:#000000;stroke-width:1.5" />
<path d="M159.92,255.93L155.92,255.93" style="fill:none;stroke:#000000;stroke-width:1.5" />
<path d="M163.92,292.7L155.92,292.7" style="fill:none;stroke:#000000;stroke-width:1.5" />
<path d="M159.92,329.48L155.92,329.48" style="fill:none;stroke:#000000;stroke-width:1.5" />
<path d="M163.92,366.26L155.92,366.26" style="fill:none;stroke:#000000;stroke-width:1.5" />
<path d="M159.92,403.04L155.92,403.04" style="fill:none;stroke:#000000;stroke-width:1.5" />
<path d="M163.92,439.81L155.92,439.81" style="fill:none;stroke:#000000;stroke-width:1.5" />
<path d="M159.92,476.59L155.92,476.59" style="fill:none;stroke:#000000;stroke-width:1.5" />
<path d="M159.92,403.04L155.92,403.04" style="fill:none;stroke:#000000;stroke-width:1.5" />
<path d="M155.92,108.82L155.92,974.14" style="fill:none;stroke:#000000;stroke-width:1.5" />
<path d="M267.03,403.04A5,5 0 1 1 257.03,403.04A5,5 0 1 1 267.03,403.04Z" style="fill:#1FD3AC" />
<path d="M278.17,349.79A5,5 0 1 1 268.17,349.79A5,5 0 1 1 278.17,349.79Z" style="fill:#1FD3AC" />
<path d="M289.3,327.31A5,5 0 1 1 279.3,327.31A5,5 0 1 1 289.3,327.31Z" style="fill:#1FD3AC" />
<path d="M300.44,317.08A5,5 0 1 1 290.44,317.08A5,5 0 1 1 300.44,317.08Z" style="fill:#1FD3AC" />
<path d="M311.58,281.13A5,5 0 1 1 301.58,281.13A5,5 0 1 1 311.58,281.13Z" style="fill:#1FD3AC" />
<path d="M322.71,245.9A5,5 0 1 1 312.71,245.9A5,5 0 1 1 322.71,245.9Z" style="fill:#1FD3AC" />
<path d="M333.85,240.35A5,5 0 1 1 323.85,240.35A5,5 0 1 1 333.85,240.35Z" style="fill:#1FD3AC" />
<path d="M344.99,213.88A5,5 0 1 1 334.99,213.88A5,5 0 1 1 344.99,213.88Z" style="fill:#1FD3AC" />
<path d="M356.12,198.37A5,5 0 1 1 346.12,198.37A5,5 0 1 1 356.12,198.37Z" style="fill:#1FD3AC" />
<path d="M367.26,168.3A5,5 0 1 1 357.26,168.3A5,5 0 1 1 367.26,168.3Z" style="fill:#1FD3AC" />
<path d="M378.4,150.2A5,5 0 1 1 368.4,150.2A5,5 0 1 1 378.4,150.2Z" style="fill:#1FD3AC" />
<path d="M389.53,140.49A5,5 0 1 1 379.53,140.49A5,5 0 1 1 389.53,140.49Z" style="fill:#1FD3AC" />
<path d="M400.67,133.34A5,5 0 1 1 390.67,133.34A5,5 0 1 1 400.67,133.34Z" style="fill:#1FD3AC" />
<path d="M411.81,133.82A5,5 0 1 1 401.81,133.82A5,5 0 1 1 411.81,133.82Z" style="fill:#1FD3AC" />
<path d="M422.94,147.05A5,5 0 1 1 412.94,147.05A5,5 0 1 1 422.94,147.05Z" style="fill:#1FD3AC" />
<path d="M434.08,154.59A5,5 0 1 1 424.08,154.59A5,5 0 1 1 434.08,154.59Z" style="fill:#1FD3AC" />
<path d="M445.22,161.2A5,5 0 1 1 435.22,161.2A5,5 0 1 1 445.22,161.2Z" style="fill:#1FD3AC" />
<path d="M456.35,172.75A5,5 0 1 1 446.35,172.75A5,5 0 1 1 456.35,172.75Z" style="fill:#1FD3AC" />
<path d="M467.49,177.73A5,5 0 1 1 457.49,177.73A5,5 0 1 1 467.49,177.73Z" style="fill:#1FD3AC" />
<path d="M478.63,179.6A5,5 0 1 1 468.63,179.6A5,5 0 1 1 478.63,179.6Z" style="fill:#1FD3AC" />
<path d="M489.76,178.32A5,5 0 1 1 479.76,178.32A5,5 0 1 1 489.76,178.32Z" style="fill:#1FD3AC" />
<path d="M500.9,177.65A5,5 0 1 1 490.9,177.65A5,5 0 1 1 500.9,177.65Z" style="fill:#1FD3AC" />
<path d="M512.04,181.12A5,5 0 1 1 502.04,181.12A5,5 0 1 1 512.04,181.12Z" style="fill:#1FD3AC" />
<path d="M523.17,174.99A5,5 0 1 1 513.17,174.99A5,5 0 1 1 523.17,174.99Z" style="fill:#1FD3AC" />
<path d="M534.31,174.39A5,5 0 1 1 524.31,174.39A5,5 0 1 1 534.31,174.39Z" style="fill:#1FD3AC" />
<path d="M545.45,167.73A5,5 0 1 1 535.45,167.73A5,5 0 1 1 545.45,167.73Z" style="fill:#1FD3AC" />
<path d="M556.58,160.42A5,5 0 1 1 546.58,160.42A5,5 0 1 1 556.58,160.42Z" style="fill:#1FD3AC" />
<path d="M567.72,154.87A5,5 0 1 1 557.72,154.87A5,5 0 1 1 567.72,154.87Z" style="fill:#1FD3AC" />
<path d="M578.86,151.09A5,5 0 1 1 568.86,151.09A5,5 0 1 1 578.86,151.09Z" style="fill:#1FD3AC" />
<path d="M589.99,140.25A5,5 0 1 1 579.99,140.25A5,5 0 1 1 589.99,140.25Z" style="fill:#1FD3AC" />
<path d="M601.13,127.87A5,5 0 1 1 591.13,127.87A5,5 0 1 1 601.13,127.87Z" style="fill:#1FD3AC" />
<path d="M612.26,126.44A5,5 0 1 1 602.26,126.44A5,5 0 1 1 612.26,126.44Z" style="fill:#1FD3AC" />
<path d="M623.4,123.32A5,5 0 1 1 613.4,123.32A5,5 0 1 1 623.4,123.32Z" style="fill:#1FD3AC" />
<path d="M634.54,121.17A5,5 0 1 1 624.54,121.17A5,5 0 1 1 634.54,121.17Z" style="fill:#1FD3AC" />
<path d="M645.67,122.8A5,5 0 1 1 635.67,122.8A5,5 0 1 1 645.67,122.8Z" style="fill:#1FD3AC" />
<path d="M656.81,124.22A5,5 0 1 1 646.81,124.22A5,5 0 1 1 656.81,124.22Z" style="fill:#1FD3AC" />
<path d="M667.95,125.6A5,5 0 1 1 657.95,125.6A5,5 0 1 1 667.95,125.6Z" style="fill:#1FD3AC" />
<path d="M679.08,130.29A5,5 0 1 1 669.08,130.29A5,5 0 1 1 679.08,130.29Z" style="fill:#1FD3AC" />
<path d="M690.22,134.06A5,5 0 1 1 680.22,134.06A5,5 0 1 1 690.22,134.06Z" style="fill:#1FD3AC" />
<path d="M701.36,136.62A5,5 0 1 1 691.36,136.62A5,5 0 1 1 701.36,136.62Z" style="fill:#1FD3AC" />
<path d="M712.49,140.14A5,5 0 1 1 702.49,140.14A5,5 0 1 1 712.49,140.14Z" style="fill:#1FD3AC" />
<path d="M723.63,141.33A5,5 0 1 1 713.63,141.33A5,5 0 1 1 723.63,141.33Z" style="fill:#1FD3AC" />
<path d="M734.77,143.43A5,5 0 1 1 724.77,143.43A5,5 0 1 1 734.77,143.43Z" style="fill:#1FD3AC" />
<path d="M745.9,143.71A5,5 0 1 1 735.9,143.71A5,5 0 1 1 745.9,143.71Z" style="fill:#1FD3AC" />
<path d="M757.04,142.14A5,5 0 1 1 747.04,142.14A5,5 0 1 1 757.04,142.14Z" style="fill:#1FD3AC" />
<path d="M768.18,142.79A5,5 0 1 1 758.18,142.79A5,5 0 1 1 768.18,142.79Z" style="fill:#1FD3AC" />
<path d="M779.31,141.21A5,5 0 1 1 769.31,141.21A5,5 0 1 1 779.31,141.21Z" style="fill:#1FD3AC" />
<path d="M790.45,137.88A5,5 0 1 1 780.45,137.88A5,5 0 1 1 790.45,137.88Z" style="fill:#1FD3AC" />
<path d="M801.59,137.47A5,5 0 1 1 791.59,137.47A5,5 0 1 1 801.59,137.47Z" style="fill:#1FD3AC" />
<path d="M812.72,134.3A5,5 0 1 1 802.72,134.3A5,5 0 1 1 812.72,134.3Z" style="fill:#1FD3AC" />
<path d="M823.86,130.62A5,5 0 1 1 813.86,130.62A5,5 0 1 1 823.86,130.62Z" style="fill:#1FD3AC" />
<path d="M835,128.71A5,5 0 1 1 825,128.71A5,5 0 1 1 835,128.71Z" style="fill:#1FD3AC" />
<path d="M846.13,122.81A5,5 0 1 1 836.13,122.81A5,5 0 1 1 846.13,122.81Z" style="fill:#1FD3AC" />
<path d="M857.27,120.71A5,5 0 1 1 847.27,120.71A5,5 0 1 1 857.27,120.71Z" style="fill:#1FD3AC" />
<path d="M868.41,118.61A5,5 0 1 1 858.41,118.61A5,5 0 1 1 868.41,118.61Z" style="fill:#1FD3AC" />
<path d="M879.54,118.44A5,5 0 1 1 869.54,118.44A5,5 0 1 1 879.54,118.44Z" style="fill:#1FD3AC" />
<path d="M890.68,118.06A5,5 0 1 1 880.68,118.06A5,5 0 1 1 890.68,118.06Z" style="fill:#1FD3AC" />
<path d="M901.82,121.67A5,5 0 1 1 891.82,121.67A5,5 0 1 1 901.82,121.67Z" style="fill:#1FD3AC" />
<path d="M912.95,121.41A5,5 0 1 1 902.95,121.41A5,5 0 1 1 912.95,121.41Z" style="fill:#1FD3AC" />
<path d="M924.09,123.13A5,5 0 1 1 914.09,123.13A5,5 0 1 1 924.09,123.13Z" style="fill:#1FD3AC" />
<path d="M935.22,124.9A5,5 0 1 1 925.22,124.9A5,5 0 1 1 935.22,124.9Z" style="fill:#1FD3AC" />
<path d="M946.36,126.68A5,5 0 1 1 936.36,126.68A5,5 0 1 1 946.36,126.68Z" style="fill:#1FD3AC" />
<path d="M957.5,129.02A5,5 0 1 1 947.5,129.02A5,5 0 1 1 957.5,129.02Z" style="fill:#1FD3AC" />
<path d="M968.63,130.24A5,5 0 1 1 958.63,130.24A5,5 0 1 1 968.63,130.24Z" style="fill:#1FD3AC" />
<path d="M979.77,132.5A5,5 0 1 1 969.77,132.5A5,5 0 1 1 979.77,132.5Z" style="fill:#1FD3AC" />
<path d="M990.91,130.74A5,5 0 1 1 980.91,130.74A5,5 0 1 1 990.91,130.74Z" style="fill:#1FD3AC" />
<path d="M1002,131.55A5,5 0 1 1 992.04,131.55A5,5 0 1 1 1002,131.55Z" style="fill:#1FD3AC" />
<path d="M1013.2,131.1A5,5 0 1 1 1003.2,131.1A5,5 0 1 1 1013.2,131.1Z" style="fill:#1FD3AC" />
<path d="M1024.3,129.99A5,5 0 1 1 1014.3,129.99A5,5 0 1 1 1024.3,129.99Z" style="fill:#1FD3AC" />
<path d="M1035.5,127.98A5,5 0 1 1 1025.5,127.98A5,5 0 1 1 1035.5,127.98Z" style="fill:#1FD3AC" />
<path d="M1046.6,127.04A5,5 0 1 1 1036.6,127.04A5,5 0 1 1 1046.6,127.04Z" style="fill:#1FD3AC" />
<path d="M1057.7,125.61A5,5 0 1 1 1047.7,125.61A5,5 0 1 1 1057.7,125.61Z" style="fill:#1FD3AC" />
<path d="M1068.9,123.78A5,5 0 1 1 1058.9,123.78A5,5 0 1 1 1068.9,123.78Z" style="fill:#1FD3AC" />
<path d="M1080,119.02A5,5 0 1 1 1070,119.02A5,5 0 1 1 1080,119.02Z" style="fill:#1FD3AC" />
<path d="M150.67,403.04L1075,403.04" style="fill:none;stroke:#000000" />
<path d="M1075,108.82L1075,403.04" style="fill:none;stroke:#000000" />
<path d="M262.03,974.14L273.17,972.62L284.3,970.95L295.44,969.15L306.58,967.2L317.71,965.12L328.85,962.89L339.99,960.52L351.12,958.02L362.26,955.38L373.4,952.61L384.53,949.7L395.67,946.65L406.81,943.48L417.94,940.17L429.08,936.74L440.22,933.18L451.35,929.49L462.49,925.67L473.63,921.73L484.76,917.67L495.9,913.49L507.04,909.19L518.17,904.77L529.31,900.24L540.45,895.59L551.58,890.83L562.72,885.96L573.86,880.98L584.99,875.9L596.13,870.71L607.26,865.42L618.4,860.03L629.54,854.54L640.67,848.96L651.81,843.28L662.95,837.51L674.08,831.65L685.22,825.7L696.36,819.67L707.49,813.55L718.63,807.36L729.77,801.09L740.9,794.74L752.04,788.31L763.18,781.82L774.31,775.26L785.45,768.63L796.59,761.94L807.72,755.18L818.86,748.37L830,741.5L841.13,734.58L852.27,727.61L863.41,720.59L874.54,713.52L885.68,706.41L896.82,699.25L907.95,692.06L919.09,684.84L930.22,677.57L941.36,670.28L952.5,662.96L963.63,655.62L974.77,648.25L985.91,640.86L997.04,633.45L1008.2,626.03L1019.3,618.59L1030.5,611.15L1041.6,603.69L1052.7,596.23L1063.9,588.77L1075,581.31" style="fill:none;stroke:#FF0000" />
<path d="M150.67,403.04L1075,403.04" style="fill:none;stroke:#000000" />
<path d="M1075,108.82L1075,403.04" style="fill:none;stroke:#000000" />
</g>
</svg>
