<?xml version="1.0"?>
<!-- Generated by SVGo and Plotinum VG -->
<svg width="1080pt" height="1080pt" viewBox="0 0 1080 1080"
	xmlns="http://www.w3.org/2000/svg"
	xmlns:xlink="http://www.w3.org/1999/xlink">
<g transform="scale(1, -1) translate(0, -1080)">
<path d="M0,0L1080,0L1080,1080L0,1080Z" style="fill-opacity:0" />
<text x="365.51" y="-1047.6" transform="scale(1, -1)"
	style="font-family:Liberation Sans;font-variant:normal;font-weight:normal;font-style:normal;font-size:40px">1 cm UHNA3 CoBS</text>
<text x="422.32" y="-9.1992" transform="scale(1, -1)"
	style="font-family:Liberation Sans;font-variant:normal;font-weight:normal;font-style:normal;font-size:30px">Frequency (Ω/2π) (GHz)</text>
<text x="66.968" y="-47.715" transform="scale(1, -1)"
	style="font-family:Liberation Sans;font-variant:normal;font-weight:normal;font-style:normal;font-size:30px">9.00</text>
<text x="203.3" y="-47.715" transform="scale(1, -1)"
	style="font-family:Liberation Sans;font-variant:normal;font-weight:normal;font-style:normal;font-size:30px">9.05</text>
<text x="339.62" y="-47.715" transform="scale(1, -1)"
	style="font-family:Liberation Sans;font-variant:normal;font-weight:normal;font-style:normal;font-size:30px">9.10</text>
<text x="475.95" y="-47.715" transform="scale(1, -1)"
	style="font-family:Liberation Sans;font-variant:normal;font-weight:normal;font-style:normal;font-size:30px">9.15</text>
<text x="612.28" y="-47.715" transform="scale(1, -1)"
	style="font-family:Liberation Sans;font-variant:normal;font-weight:normal;font-style:normal;font-size:30px">9.20</text>
<text x="748.61" y="-47.715" transform="scale(1, -1)"
	style="font-family:Liberation Sans;font-variant:normal;font-weight:normal;font-style:normal;font-size:30px">9.25</text>
<text x="884.94" y="-47.715" transform="scale(1, -1)"
	style="font-family:Liberation Sans;font-variant:normal;font-weight:normal;font-style:normal;font-size:30px">9.30</text>
<text x="1021.3" y="-47.715" transform="scale(1, -1)"
	style="font-family:Liberation Sans;font-variant:normal;font-weight:normal;font-style:normal;font-size:30px">9.35</text>
<path d="M96.162,72.031L96.162,80.031" style="fill:none;stroke:#000000;stroke-width:2.5" />
<path d="M123.43,76.031L123.43,80.031" style="fill:none;stroke:#000000;stroke-width:2.5" />
<path d="M150.69,76.031L150.69,80.031" style="fill:none;stroke:#000000;stroke-width:2.5" />
<path d="M177.96,76.031L177.96,80.031" style="fill:none;stroke:#000000;stroke-width:2.5" />
<path d="M205.22,76.031L205.22,80.031" style="fill:none;stroke:#000000;stroke-width:2.5" />
<path d="M232.49,72.031L232.49,80.031" style="fill:none;stroke:#000000;stroke-width:2.5" />
<path d="M259.76,76.031L259.76,80.031" style="fill:none;stroke:#000000;stroke-width:2.5" />
<path d="M287.02,76.031L287.02,80.031" style="fill:none;stroke:#000000;stroke-width:2.5" />
<path d="M314.29,76.031L314.29,80.031" style="fill:none;stroke:#000000;stroke-width:2.5" />
<path d="M341.55,76.031L341.55,80.031" style="fill:none;stroke:#000000;stroke-width:2.5" />
<path d="M368.82,72.031L368.82,80.031" style="fill:none;stroke:#000000;stroke-width:2.5" />
<path d="M396.08,76.031L396.08,80.031" style="fill:none;stroke:#000000;stroke-width:2.5" />
<path d="M423.35,76.031L423.35,80.031" style="fill:none;stroke:#000000;stroke-width:2.5" />
<path d="M450.62,76.031L450.62,80.031" style="fill:none;stroke:#000000;stroke-width:2.5" />
<path d="M477.88,76.031L477.88,80.031" style="fill:none;stroke:#000000;stroke-width:2.5" />
<path d="M505.15,72.031L505.15,80.031" style="fill:none;stroke:#000000;stroke-width:2.5" />
<path d="M532.41,76.031L532.41,80.031" style="fill:none;stroke:#000000;stroke-width:2.5" />
<path d="M559.68,76.031L559.68,80.031" style="fill:none;stroke:#000000;stroke-width:2.5" />
<path d="M586.94,76.031L586.94,80.031" style="fill:none;stroke:#000000;stroke-width:2.5" />
<path d="M614.21,76.031L614.21,80.031" style="fill:none;stroke:#000000;stroke-width:2.5" />
<path d="M641.48,72.031L641.48,80.031" style="fill:none;stroke:#000000;stroke-width:2.5" />
<path d="M668.74,76.031L668.74,80.031" style="fill:none;stroke:#000000;stroke-width:2.5" />
<path d="M696.01,76.031L696.01,80.031" style="fill:none;stroke:#000000;stroke-width:2.5" />
<path d="M723.27,76.031L723.27,80.031" style="fill:none;stroke:#000000;stroke-width:2.5" />
<path d="M750.54,76.031L750.54,80.031" style="fill:none;stroke:#000000;stroke-width:2.5" />
<path d="M777.8,72.031L777.8,80.031" style="fill:none;stroke:#000000;stroke-width:2.5" />
<path d="M805.07,76.031L805.07,80.031" style="fill:none;stroke:#000000;stroke-width:2.5" />
<path d="M832.34,76.031L832.34,80.031" style="fill:none;stroke:#000000;stroke-width:2.5" />
<path d="M859.6,76.031L859.6,80.031" style="fill:none;stroke:#000000;stroke-width:2.5" />
<path d="M886.87,76.031L886.87,80.031" style="fill:none;stroke:#000000;stroke-width:2.5" />
<path d="M914.13,72.031L914.13,80.031" style="fill:none;stroke:#000000;stroke-width:2.5" />
<path d="M941.4,76.031L941.4,80.031" style="fill:none;stroke:#000000;stroke-width:2.5" />
<path d="M968.66,76.031L968.66,80.031" style="fill:none;stroke:#000000;stroke-width:2.5" />
<path d="M995.93,76.031L995.93,80.031" style="fill:none;stroke:#000000;stroke-width:2.5" />
<path d="M1023.2,76.031L1023.2,80.031" style="fill:none;stroke:#000000;stroke-width:2.5" />
<path d="M1050.5,72.031L1050.5,80.031" style="fill:none;stroke:#000000;stroke-width:2.5" />
<path d="M96.162,80.031L1075,80.031" style="fill:none;stroke:#000000;stroke-width:2.5" />
<g transform="rotate(90)">
<text x="458.28" y="24.316" transform="scale(1, -1)"
	style="font-family:Liberation Sans;font-variant:normal;font-weight:normal;font-style:normal;font-size:30px">Arbitrary Units</text>
</g>
<text x="44.873" y="-69.973" transform="scale(1, -1)"
	style="font-family:Liberation Sans;font-variant:normal;font-weight:normal;font-style:normal;font-size:30px">0.0</text>
<text x="44.873" y="-242.98" transform="scale(1, -1)"
	style="font-family:Liberation Sans;font-variant:normal;font-weight:normal;font-style:normal;font-size:30px">0.2</text>
<text x="44.873" y="-415.98" transform="scale(1, -1)"
	style="font-family:Liberation Sans;font-variant:normal;font-weight:normal;font-style:normal;font-size:30px">0.4</text>
<text x="44.873" y="-588.99" transform="scale(1, -1)"
	style="font-family:Liberation Sans;font-variant:normal;font-weight:normal;font-style:normal;font-size:30px">0.6</text>
<text x="44.873" y="-762" transform="scale(1, -1)"
	style="font-family:Liberation Sans;font-variant:normal;font-weight:normal;font-style:normal;font-size:30px">0.8</text>
<text x="44.873" y="-935" transform="scale(1, -1)"
	style="font-family:Liberation Sans;font-variant:normal;font-weight:normal;font-style:normal;font-size:30px">1.0</text>
<path d="M94.912,77.531L94.912,1029.1" style="fill:none;stroke:#000000;stroke-width:2.5" />
<path d="M101.16,106.82A5,5 0 1 1 91.162,106.82A5,5 0 1 1 101.16,106.82Z" style="fill:#FF7AB4" />
<path d="M103.89,106.51A5,5 0 1 1 93.889,106.51A5,5 0 1 1 103.89,106.51Z" style="fill:#FF7AB4" />
<path d="M106.62,106.52A5,5 0 1 1 96.615,106.52A5,5 0 1 1 106.62,106.52Z" style="fill:#FF7AB4" />
<path d="M109.34,108.99A5,5 0 1 1 99.342,108.99A5,5 0 1 1 109.34,108.99Z" style="fill:#FF7AB4" />
<path d="M112.07,107.88A5,5 0 1 1 102.07,107.88A5,5 0 1 1 112.07,107.88Z" style="fill:#FF7AB4" />
<path d="M114.79,109.52A5,5 0 1 1 104.79,109.52A5,5 0 1 1 114.79,109.52Z" style="fill:#FF7AB4" />
<path d="M117.52,110.29A5,5 0 1 1 107.52,110.29A5,5 0 1 1 117.52,110.29Z" style="fill:#FF7AB4" />
<path d="M120.25,110.48A5,5 0 1 1 110.25,110.48A5,5 0 1 1 120.25,110.48Z" style="fill:#FF7AB4" />
<path d="M122.97,111.76A5,5 0 1 1 112.97,111.76A5,5 0 1 1 122.97,111.76Z" style="fill:#FF7AB4" />
<path d="M125.7,111.96A5,5 0 1 1 115.7,111.96A5,5 0 1 1 125.7,111.96Z" style="fill:#FF7AB4" />
<path d="M128.43,111.74A5,5 0 1 1 118.43,111.74A5,5 0 1 1 128.43,111.74Z" style="fill:#FF7AB4" />
<path d="M131.15,111.67A5,5 0 1 1 121.15,111.67A5,5 0 1 1 131.15,111.67Z" style="fill:#FF7AB4" />
<path d="M133.88,111.51A5,5 0 1 1 123.88,111.51A5,5 0 1 1 133.88,111.51Z" style="fill:#FF7AB4" />
<path d="M136.61,113.72A5,5 0 1 1 126.61,113.72A5,5 0 1 1 136.61,113.72Z" style="fill:#FF7AB4" />
<path d="M139.33,114.45A5,5 0 1 1 129.33,114.45A5,5 0 1 1 139.33,114.45Z" style="fill:#FF7AB4" />
<path d="M142.06,115.06A5,5 0 1 1 132.06,115.06A5,5 0 1 1 142.06,115.06Z" style="fill:#FF7AB4" />
<path d="M144.79,114.94A5,5 0 1 1 134.79,114.94A5,5 0 1 1 144.79,114.94Z" style="fill:#FF7AB4" />
<path d="M147.51,115.12A5,5 0 1 1 137.51,115.12A5,5 0 1 1 147.51,115.12Z" style="fill:#FF7AB4" />
<path d="M150.24,115.82A5,5 0 1 1 140.24,115.82A5,5 0 1 1 150.24,115.82Z" style="fill:#FF7AB4" />
<path d="M152.97,118.2A5,5 0 1 1 142.97,118.2A5,5 0 1 1 152.97,118.2Z" style="fill:#FF7AB4" />
<path d="M155.69,117.89A5,5 0 1 1 145.69,117.89A5,5 0 1 1 155.69,117.89Z" style="fill:#FF7AB4" />
<path d="M158.42,118.13A5,5 0 1 1 148.42,118.13A5,5 0 1 1 158.42,118.13Z" style="fill:#FF7AB4" />
<path d="M161.15,117.63A5,5 0 1 1 151.15,117.63A5,5 0 1 1 161.15,117.63Z" style="fill:#FF7AB4" />
<path d="M163.87,119.63A5,5 0 1 1 153.87,119.63A5,5 0 1 1 163.87,119.63Z" style="fill:#FF7AB4" />
<path d="M166.6,119.13A5,5 0 1 1 156.6,119.13A5,5 0 1 1 166.6,119.13Z" style="fill:#FF7AB4" />
<path d="M169.33,118.85A5,5 0 1 1 159.33,118.85A5,5 0 1 1 169.33,118.85Z" style="fill:#FF7AB4" />
<path d="M172.05,123.02A5,5 0 1 1 162.05,123.02A5,5 0 1 1 172.05,123.02Z" style="fill:#FF7AB4" />
<path d="M174.78,122.05A5,5 0 1 1 164.78,122.05A5,5 0 1 1 174.78,122.05Z" style="fill:#FF7AB4" />
<path d="M177.51,125.35A5,5 0 1 1 167.51,125.35A5,5 0 1 1 177.51,125.35Z" style="fill:#FF7AB4" />
<path d="M180.23,123.81A5,5 0 1 1 170.23,123.81A5,5 0 1 1 180.23,123.81Z" style="fill:#FF7AB4" />
<path d="M182.96,124.67A5,5 0 1 1 172.96,124.67A5,5 0 1 1 182.96,124.67Z" style="fill:#FF7AB4" />
<path d="M185.69,126.08A5,5 0 1 1 175.69,126.08A5,5 0 1 1 185.69,126.08Z" style="fill:#FF7AB4" />
<path d="M188.41,127.47A5,5 0 1 1 178.41,127.47A5,5 0 1 1 188.41,127.47Z" style="fill:#FF7AB4" />
<path d="M191.14,125.73A5,5 0 1 1 181.14,125.73A5,5 0 1 1 191.14,125.73Z" style="fill:#FF7AB4" />
<path d="M193.87,126.7A5,5 0 1 1 183.87,126.7A5,5 0 1 1 193.87,126.7Z" style="fill:#FF7AB4" />
<path d="M196.59,128.82A5,5 0 1 1 186.59,128.82A5,5 0 1 1 196.59,128.82Z" style="fill:#FF7AB4" />
<path d="M199.32,127.82A5,5 0 1 1 189.32,127.82A5,5 0 1 1 199.32,127.82Z" style="fill:#FF7AB4" />
<path d="M202.05,130.51A5,5 0 1 1 192.05,130.51A5,5 0 1 1 202.05,130.51Z" style="fill:#FF7AB4" />
<path d="M204.77,130.43A5,5 0 1 1 194.77,130.43A5,5 0 1 1 204.77,130.43Z" style="fill:#FF7AB4" />
<path d="M207.5,131.82A5,5 0 1 1 197.5,131.82A5,5 0 1 1 207.5,131.82Z" style="fill:#FF7AB4" />
<path d="M210.22,132.44A5,5 0 1 1 200.22,132.44A5,5 0 1 1 210.22,132.44Z" style="fill:#FF7AB4" />
<path d="M212.95,134.77A5,5 0 1 1 202.95,134.77A5,5 0 1 1 212.95,134.77Z" style="fill:#FF7AB4" />
<path d="M215.68,134.45A5,5 0 1 1 205.68,134.45A5,5 0 1 1 215.68,134.45Z" style="fill:#FF7AB4" />
<path d="M218.4,134.7A5,5 0 1 1 208.4,134.7A5,5 0 1 1 218.4,134.7Z" style="fill:#FF7AB4" />
<path d="M221.13,136.49A5,5 0 1 1 211.13,136.49A5,5 0 1 1 221.13,136.49Z" style="fill:#FF7AB4" />
<path d="M223.86,133.51A5,5 0 1 1 213.86,133.51A5,5 0 1 1 223.86,133.51Z" style="fill:#FF7AB4" />
<path d="M226.58,139A5,5 0 1 1 216.58,139A5,5 0 1 1 226.58,139Z" style="fill:#FF7AB4" />
<path d="M229.31,137.91A5,5 0 1 1 219.31,137.91A5,5 0 1 1 229.31,137.91Z" style="fill:#FF7AB4" />
<path d="M232.04,139.68A5,5 0 1 1 222.04,139.68A5,5 0 1 1 232.04,139.68Z" style="fill:#FF7AB4" />
<path d="M234.76,141.66A5,5 0 1 1 224.76,141.66A5,5 0 1 1 234.76,141.66Z" style="fill:#FF7AB4" />
<path d="M237.49,141.14A5,5 0 1 1 227.49,141.14A5,5 0 1 1 237.49,141.14Z" style="fill:#FF7AB4" />
<path d="M240.22,145.24A5,5 0 1 1 230.22,145.24A5,5 0 1 1 240.22,145.24Z" style="fill:#FF7AB4" />
<path d="M242.94,143.43A5,5 0 1 1 232.94,143.43A5,5 0 1 1 242.94,143.43Z" style="fill:#FF7AB4" />
<path d="M245.67,146.45A5,5 0 1 1 235.67,146.45A5,5 0 1 1 245.67,146.45Z" style="fill:#FF7AB4" />
<path d="M248.4,144.99A5,5 0 1 1 238.4,144.99A5,5 0 1 1 248.4,144.99Z" style="fill:#FF7AB4" />
<path d="M251.12,148.11A5,5 0 1 1 241.12,148.11A5,5 0 1 1 251.12,148.11Z" style="fill:#FF7AB4" />
<path d="M253.85,149.65A5,5 0 1 1 243.85,149.65A5,5 0 1 1 253.85,149.65Z" style="fill:#FF7AB4" />
<path d="M256.58,152.56A5,5 0 1 1 246.58,152.56A5,5 0 1 1 256.58,152.56Z" style="fill:#FF7AB4" />
<path d="M259.3,151.24A5,5 0 1 1 249.3,151.24A5,5 0 1 1 259.3,151.24Z" style="fill:#FF7AB4" />
<path d="M262.03,151.99A5,5 0 1 1 252.03,151.99A5,5 0 1 1 262.03,151.99Z" style="fill:#FF7AB4" />
<path d="M264.76,153.03A5,5 0 1 1 254.76,153.03A5,5 0 1 1 264.76,153.03Z" style="fill:#FF7AB4" />
<path d="M267.48,154.58A5,5 0 1 1 257.48,154.58A5,5 0 1 1 267.48,154.58Z" style="fill:#FF7AB4" />
<path d="M270.21,158.48A5,5 0 1 1 260.21,158.48A5,5 0 1 1 270.21,158.48Z" style="fill:#FF7AB4" />
<path d="M272.94,159.27A5,5 0 1 1 262.94,159.27A5,5 0 1 1 272.94,159.27Z" style="fill:#FF7AB4" />
<path d="M275.66,159A5,5 0 1 1 265.66,159A5,5 0 1 1 275.66,159Z" style="fill:#FF7AB4" />
<path d="M278.39,159.35A5,5 0 1 1 268.39,159.35A5,5 0 1 1 278.39,159.35Z" style="fill:#FF7AB4" />
<path d="M281.12,161.69A5,5 0 1 1 271.12,161.69A5,5 0 1 1 281.12,161.69Z" style="fill:#FF7AB4" />
<path d="M283.84,163.7A5,5 0 1 1 273.84,163.7A5,5 0 1 1 283.84,163.7Z" style="fill:#FF7AB4" />
<path d="M286.57,165.62A5,5 0 1 1 276.57,165.62A5,5 0 1 1 286.57,165.62Z" style="fill:#FF7AB4" />
<path d="M289.3,167.95A5,5 0 1 1 279.3,167.95A5,5 0 1 1 289.3,167.95Z" style="fill:#FF7AB4" />
<path d="M292.02,170.36A5,5 0 1 1 282.02,170.36A5,5 0 1 1 292.02,170.36Z" style="fill:#FF7AB4" />
<path d="M294.75,171.85A5,5 0 1 1 284.75,171.85A5,5 0 1 1 294.75,171.85Z" style="fill:#FF7AB4" />
<path d="M297.48,174.24A5,5 0 1 1 287.48,174.24A5,5 0 1 1 297.48,174.24Z" style="fill:#FF7AB4" />
<path d="M300.2,172.12A5,5 0 1 1 290.2,172.12A5,5 0 1 1 300.2,172.12Z" style="fill:#FF7AB4" />
<path d="M302.93,175.96A5,5 0 1 1 292.93,175.96A5,5 0 1 1 302.93,175.96Z" style="fill:#FF7AB4" />
<path d="M305.65,175.43A5,5 0 1 1 295.65,175.43A5,5 0 1 1 305.65,175.43Z" style="fill:#FF7AB4" />
<path d="M308.38,177.72A5,5 0 1 1 298.38,177.72A5,5 0 1 1 308.38,177.72Z" style="fill:#FF7AB4" />
<path d="M311.11,179.74A5,5 0 1 1 301.11,179.74A5,5 0 1 1 311.11,179.74Z" style="fill:#FF7AB4" />
<path d="M313.83,182.27A5,5 0 1 1 303.83,182.27A5,5 0 1 1 313.83,182.27Z" style="fill:#FF7AB4" />
<path d="M316.56,184.89A5,5 0 1 1 306.56,184.89A5,5 0 1 1 316.56,184.89Z" style="fill:#FF7AB4" />
<path d="M319.29,186.63A5,5 0 1 1 309.29,186.63A5,5 0 1 1 319.29,186.63Z" style="fill:#FF7AB4" />
<path d="M322.01,188.66A5,5 0 1 1 312.01,188.66A5,5 0 1 1 322.01,188.66Z" style="fill:#FF7AB4" />
<path d="M324.74,191.72A5,5 0 1 1 314.74,191.72A5,5 0 1 1 324.74,191.72Z" style="fill:#FF7AB4" />
<path d="M327.47,191.22A5,5 0 1 1 317.47,191.22A5,5 0 1 1 327.47,191.22Z" style="fill:#FF7AB4" />
<path d="M330.19,196.16A5,5 0 1 1 320.19,196.16A5,5 0 1 1 330.19,196.16Z" style="fill:#FF7AB4" />
<path d="M332.92,195.94A5,5 0 1 1 322.92,195.94A5,5 0 1 1 332.92,195.94Z" style="fill:#FF7AB4" />
<path d="M335.65,198.71A5,5 0 1 1 325.65,198.71A5,5 0 1 1 335.65,198.71Z" style="fill:#FF7AB4" />
<path d="M338.37,202.28A5,5 0 1 1 328.37,202.28A5,5 0 1 1 338.37,202.28Z" style="fill:#FF7AB4" />
<path d="M341.1,203.58A5,5 0 1 1 331.1,203.58A5,5 0 1 1 341.1,203.58Z" style="fill:#FF7AB4" />
<path d="M343.83,204.82A5,5 0 1 1 333.83,204.82A5,5 0 1 1 343.83,204.82Z" style="fill:#FF7AB4" />
<path d="M346.55,208.7A5,5 0 1 1 336.55,208.7A5,5 0 1 1 346.55,208.7Z" style="fill:#FF7AB4" />
<path d="M349.28,208.37A5,5 0 1 1 339.28,208.37A5,5 0 1 1 349.28,208.37Z" style="fill:#FF7AB4" />
<path d="M352.01,217.72A5,5 0 1 1 342.01,217.72A5,5 0 1 1 352.01,217.72Z" style="fill:#FF7AB4" />
<path d="M354.73,217.16A5,5 0 1 1 344.73,217.16A5,5 0 1 1 354.73,217.16Z" style="fill:#FF7AB4" />
<path d="M357.46,220.33A5,5 0 1 1 347.46,220.33A5,5 0 1 1 357.46,220.33Z" style="fill:#FF7AB4" />
<path d="M360.19,223.39A5,5 0 1 1 350.19,223.39A5,5 0 1 1 360.19,223.39Z" style="fill:#FF7AB4" />
<path d="M362.91,225.79A5,5 0 1 1 352.91,225.79A5,5 0 1 1 362.91,225.79Z" style="fill:#FF7AB4" />
<path d="M365.64,226.51A5,5 0 1 1 355.64,226.51A5,5 0 1 1 365.64,226.51Z" style="fill:#FF7AB4" />
<path d="M368.37,231.19A5,5 0 1 1 358.37,231.19A5,5 0 1 1 368.37,231.19Z" style="fill:#FF7AB4" />
<path d="M371.09,234.32A5,5 0 1 1 361.09,234.32A5,5 0 1 1 371.09,234.32Z" style="fill:#FF7AB4" />
<path d="M373.82,235.74A5,5 0 1 1 363.82,235.74A5,5 0 1 1 373.82,235.74Z" style="fill:#FF7AB4" />
<path d="M376.55,240.75A5,5 0 1 1 366.55,240.75A5,5 0 1 1 376.55,240.75Z" style="fill:#FF7AB4" />
<path d="M379.27,239.94A5,5 0 1 1 369.27,239.94A5,5 0 1 1 379.27,239.94Z" style="fill:#FF7AB4" />
<path d="M382,244.88A5,5 0 1 1 372,244.88A5,5 0 1 1 382,244.88Z" style="fill:#FF7AB4" />
<path d="M384.73,246.66A5,5 0 1 1 374.73,246.66A5,5 0 1 1 384.73,246.66Z" style="fill:#FF7AB4" />
<path d="M387.45,249.23A5,5 0 1 1 377.45,249.23A5,5 0 1 1 387.45,249.23Z" style="fill:#FF7AB4" />
<path d="M390.18,252.79A5,5 0 1 1 380.18,252.79A5,5 0 1 1 390.18,252.79Z" style="fill:#FF7AB4" />
<path d="M392.9,258.01A5,5 0 1 1 382.9,258.01A5,5 0 1 1 392.9,258.01Z" style="fill:#FF7AB4" />
<path d="M395.63,263.42A5,5 0 1 1 385.63,263.42A5,5 0 1 1 395.63,263.42Z" style="fill:#FF7AB4" />
<path d="M398.36,265.87A5,5 0 1 1 388.36,265.87A5,5 0 1 1 398.36,265.87Z" style="fill:#FF7AB4" />
<path d="M401.08,270.15A5,5 0 1 1 391.08,270.15A5,5 0 1 1 401.08,270.15Z" style="fill:#FF7AB4" />
<path d="M403.81,271.05A5,5 0 1 1 393.81,271.05A5,5 0 1 1 403.81,271.05Z" style="fill:#FF7AB4" />
<path d="M406.54,282.17A5,5 0 1 1 396.54,282.17A5,5 0 1 1 406.54,282.17Z" style="fill:#FF7AB4" />
<path d="M409.26,278.7A5,5 0 1 1 399.26,278.7A5,5 0 1 1 409.26,278.7Z" style="fill:#FF7AB4" />
<path d="M411.99,284.55A5,5 0 1 1 401.99,284.55A5,5 0 1 1 411.99,284.55Z" style="fill:#FF7AB4" />
<path d="M414.72,285.22A5,5 0 1 1 404.72,285.22A5,5 0 1 1 414.72,285.22Z" style="fill:#FF7AB4" />
<path d="M417.44,291.04A5,5 0 1 1 407.44,291.04A5,5 0 1 1 417.44,291.04Z" style="fill:#FF7AB4" />
<path d="M420.17,290.54A5,5 0 1 1 410.17,290.54A5,5 0 1 1 420.17,290.54Z" style="fill:#FF7AB4" />
<path d="M422.9,297.15A5,5 0 1 1 412.9,297.15A5,5 0 1 1 422.9,297.15Z" style="fill:#FF7AB4" />
<path d="M425.62,299.87A5,5 0 1 1 415.62,299.87A5,5 0 1 1 425.62,299.87Z" style="fill:#FF7AB4" />
<path d="M428.35,301.95A5,5 0 1 1 418.35,301.95A5,5 0 1 1 428.35,301.95Z" style="fill:#FF7AB4" />
<path d="M431.08,310.84A5,5 0 1 1 421.08,310.84A5,5 0 1 1 431.08,310.84Z" style="fill:#FF7AB4" />
<path d="M433.8,315.5A5,5 0 1 1 423.8,315.5A5,5 0 1 1 433.8,315.5Z" style="fill:#FF7AB4" />
<path d="M436.53,322.1A5,5 0 1 1 426.53,322.1A5,5 0 1 1 436.53,322.1Z" style="fill:#FF7AB4" />
<path d="M439.26,325.78A5,5 0 1 1 429.26,325.78A5,5 0 1 1 439.26,325.78Z" style="fill:#FF7AB4" />
<path d="M441.98,330.84A5,5 0 1 1 431.98,330.84A5,5 0 1 1 441.98,330.84Z" style="fill:#FF7AB4" />
<path d="M444.71,336.29A5,5 0 1 1 434.71,336.29A5,5 0 1 1 444.71,336.29Z" style="fill:#FF7AB4" />
<path d="M447.44,340.25A5,5 0 1 1 437.44,340.25A5,5 0 1 1 447.44,340.25Z" style="fill:#FF7AB4" />
<path d="M450.16,347.42A5,5 0 1 1 440.16,347.42A5,5 0 1 1 450.16,347.42Z" style="fill:#FF7AB4" />
<path d="M452.89,351.59A5,5 0 1 1 442.89,351.59A5,5 0 1 1 452.89,351.59Z" style="fill:#FF7AB4" />
<path d="M455.62,354.18A5,5 0 1 1 445.62,354.18A5,5 0 1 1 455.62,354.18Z" style="fill:#FF7AB4" />
<path d="M458.34,358.58A5,5 0 1 1 448.34,358.58A5,5 0 1 1 458.34,358.58Z" style="fill:#FF7AB4" />
<path d="M461.07,364.41A5,5 0 1 1 451.07,364.41A5,5 0 1 1 461.07,364.41Z" style="fill:#FF7AB4" />
<path d="M463.8,367.36A5,5 0 1 1 453.8,367.36A5,5 0 1 1 463.8,367.36Z" style="fill:#FF7AB4" />
<path d="M466.52,374.64A5,5 0 1 1 456.52,374.64A5,5 0 1 1 466.52,374.64Z" style="fill:#FF7AB4" />
<path d="M469.25,380.94A5,5 0 1 1 459.25,380.94A5,5 0 1 1 469.25,380.94Z" style="fill:#FF7AB4" />
<path d="M471.98,387.34A5,5 0 1 1 461.98,387.34A5,5 0 1 1 471.98,387.34Z" style="fill:#FF7AB4" />
<path d="M474.7,394.87A5,5 0 1 1 464.7,394.87A5,5 0 1 1 474.7,394.87Z" style="fill:#FF7AB4" />
<path d="M477.43,400.09A5,5 0 1 1 467.43,400.09A5,5 0 1 1 477.43,400.09Z" style="fill:#FF7AB4" />
<path d="M480.16,405.15A5,5 0 1 1 470.16,405.15A5,5 0 1 1 480.16,405.15Z" style="fill:#FF7AB4" />
<path d="M482.88,414.35A5,5 0 1 1 472.88,414.35A5,5 0 1 1 482.88,414.35Z" style="fill:#FF7AB4" />
<path d="M485.61,417.17A5,5 0 1 1 475.61,417.17A5,5 0 1 1 485.61,417.17Z" style="fill:#FF7AB4" />
<path d="M488.33,424.28A5,5 0 1 1 478.33,424.28A5,5 0 1 1 488.33,424.28Z" style="fill:#FF7AB4" />
<path d="M491.06,432.7A5,5 0 1 1 481.06,432.7A5,5 0 1 1 491.06,432.7Z" style="fill:#FF7AB4" />
<path d="M493.79,440.79A5,5 0 1 1 483.79,440.79A5,5 0 1 1 493.79,440.79Z" style="fill:#FF7AB4" />
<path d="M496.51,447.43A5,5 0 1 1 486.51,447.43A5,5 0 1 1 496.51,447.43Z" style="fill:#FF7AB4" />
<path d="M499.24,454.94A5,5 0 1 1 489.24,454.94A5,5 0 1 1 499.24,454.94Z" style="fill:#FF7AB4" />
<path d="M501.97,464.79A5,5 0 1 1 491.97,464.79A5,5 0 1 1 501.97,464.79Z" style="fill:#FF7AB4" />
<path d="M504.69,468.07A5,5 0 1 1 494.69,468.07A5,5 0 1 1 504.69,468.07Z" style="fill:#FF7AB4" />
<path d="M507.42,475.31A5,5 0 1 1 497.42,475.31A5,5 0 1 1 507.42,475.31Z" style="fill:#FF7AB4" />
<path d="M510.15,486.85A5,5 0 1 1 500.15,486.85A5,5 0 1 1 510.15,486.85Z" style="fill:#FF7AB4" />
<path d="M512.87,488.1A5,5 0 1 1 502.87,488.1A5,5 0 1 1 512.87,488.1Z" style="fill:#FF7AB4" />
<path d="M515.6,498.3A5,5 0 1 1 505.6,498.3A5,5 0 1 1 515.6,498.3Z" style="fill:#FF7AB4" />
<path d="M518.33,512.39A5,5 0 1 1 508.33,512.39A5,5 0 1 1 518.33,512.39Z" style="fill:#FF7AB4" />
<path d="M521.05,516.81A5,5 0 1 1 511.05,516.81A5,5 0 1 1 521.05,516.81Z" style="fill:#FF7AB4" />
<path d="M523.78,523.43A5,5 0 1 1 513.78,523.43A5,5 0 1 1 523.78,523.43Z" style="fill:#FF7AB4" />
<path d="M526.51,532.49A5,5 0 1 1 516.51,532.49A5,5 0 1 1 526.51,532.49Z" style="fill:#FF7AB4" />
<path d="M529.23,540.18A5,5 0 1 1 519.23,540.18A5,5 0 1 1 529.23,540.18Z" style="fill:#FF7AB4" />
<path d="M531.96,552.2A5,5 0 1 1 521.96,552.2A5,5 0 1 1 531.96,552.2Z" style="fill:#FF7AB4" />
<path d="M534.69,559.65A5,5 0 1 1 524.69,559.65A5,5 0 1 1 534.69,559.65Z" style="fill:#FF7AB4" />
<path d="M537.41,568.5A5,5 0 1 1 527.41,568.5A5,5 0 1 1 537.41,568.5Z" style="fill:#FF7AB4" />
<path d="M540.14,576.82A5,5 0 1 1 530.14,576.82A5,5 0 1 1 540.14,576.82Z" style="fill:#FF7AB4" />
<path d="M542.87,585.13A5,5 0 1 1 532.87,585.13A5,5 0 1 1 542.87,585.13Z" style="fill:#FF7AB4" />
<path d="M545.59,599.62A5,5 0 1 1 535.59,599.62A5,5 0 1 1 545.59,599.62Z" style="fill:#FF7AB4" />
<path d="M548.32,608.75A5,5 0 1 1 538.32,608.75A5,5 0 1 1 548.32,608.75Z" style="fill:#FF7AB4" />
<path d="M551.05,630.36A5,5 0 1 1 541.05,630.36A5,5 0 1 1 551.05,630.36Z" style="fill:#FF7AB4" />
<path d="M553.77,627.74A5,5 0 1 1 543.77,627.74A5,5 0 1 1 553.77,627.74Z" style="fill:#FF7AB4" />
<path d="M556.5,644.43A5,5 0 1 1 546.5,644.43A5,5 0 1 1 556.5,644.43Z" style="fill:#FF7AB4" />
<path d="M559.23,652.62A5,5 0 1 1 549.23,652.62A5,5 0 1 1 559.23,652.62Z" style="fill:#FF7AB4" />
<path d="M561.95,668.16A5,5 0 1 1 551.95,668.16A5,5 0 1 1 561.95,668.16Z" style="fill:#FF7AB4" />
<path d="M564.68,677.16A5,5 0 1 1 554.68,677.16A5,5 0 1 1 564.68,677.16Z" style="fill:#FF7AB4" />
<path d="M567.41,693.26A5,5 0 1 1 557.41,693.26A5,5 0 1 1 567.41,693.26Z" style="fill:#FF7AB4" />
<path d="M570.13,702.62A5,5 0 1 1 560.13,702.62A5,5 0 1 1 570.13,702.62Z" style="fill:#FF7AB4" />
<path d="M572.86,717.19A5,5 0 1 1 562.86,717.19A5,5 0 1 1 572.86,717.19Z" style="fill:#FF7AB4" />
<path d="M575.58,729.89A5,5 0 1 1 565.58,729.89A5,5 0 1 1 575.58,729.89Z" style="fill:#FF7AB4" />
<path d="M578.31,744.62A5,5 0 1 1 568.31,744.62A5,5 0 1 1 578.31,744.62Z" style="fill:#FF7AB4" />
<path d="M581.04,752.42A5,5 0 1 1 571.04,752.42A5,5 0 1 1 581.04,752.42Z" style="fill:#FF7AB4" />
<path d="M583.76,764.25A5,5 0 1 1 573.76,764.25A5,5 0 1 1 583.76,764.25Z" style="fill:#FF7AB4" />
<path d="M586.49,783.34A5,5 0 1 1 576.49,783.34A5,5 0 1 1 586.49,783.34Z" style="fill:#FF7AB4" />
<path d="M589.22,790.68A5,5 0 1 1 579.22,790.68A5,5 0 1 1 589.22,790.68Z" style="fill:#FF7AB4" />
<path d="M591.94,805.45A5,5 0 1 1 581.94,805.45A5,5 0 1 1 591.94,805.45Z" style="fill:#FF7AB4" />
<path d="M594.67,819.79A5,5 0 1 1 584.67,819.79A5,5 0 1 1 594.67,819.79Z" style="fill:#FF7AB4" />
<path d="M597.4,835.3A5,5 0 1 1 587.4,835.3A5,5 0 1 1 597.4,835.3Z" style="fill:#FF7AB4" />
<path d="M600.12,846.72A5,5 0 1 1 590.12,846.72A5,5 0 1 1 600.12,846.72Z" style="fill:#FF7AB4" />
<path d="M602.85,859.83A5,5 0 1 1 592.85,859.83A5,5 0 1 1 602.85,859.83Z" style="fill:#FF7AB4" />
<path d="M605.58,871.39A5,5 0 1 1 595.58,871.39A5,5 0 1 1 605.58,871.39Z" style="fill:#FF7AB4" />
<path d="M608.3,881.71A5,5 0 1 1 598.3,881.71A5,5 0 1 1 608.3,881.71Z" style="fill:#FF7AB4" />
<path d="M611.03,888.76A5,5 0 1 1 601.03,888.76A5,5 0 1 1 611.03,888.76Z" style="fill:#FF7AB4" />
<path d="M613.76,901.31A5,5 0 1 1 603.76,901.31A5,5 0 1 1 613.76,901.31Z" style="fill:#FF7AB4" />
<path d="M616.48,905.28A5,5 0 1 1 606.48,905.28A5,5 0 1 1 616.48,905.28Z" style="fill:#FF7AB4" />
<path d="M619.21,912.49A5,5 0 1 1 609.21,912.49A5,5 0 1 1 619.21,912.49Z" style="fill:#FF7AB4" />
<path d="M621.94,926.01A5,5 0 1 1 611.94,926.01A5,5 0 1 1 621.94,926.01Z" style="fill:#FF7AB4" />
<path d="M624.66,925.27A5,5 0 1 1 614.66,925.27A5,5 0 1 1 624.66,925.27Z" style="fill:#FF7AB4" />
<path d="M627.39,926.99A5,5 0 1 1 617.39,926.99A5,5 0 1 1 627.39,926.99Z" style="fill:#FF7AB4" />
<path d="M630.12,933.21A5,5 0 1 1 620.12,933.21A5,5 0 1 1 630.12,933.21Z" style="fill:#FF7AB4" />
<path d="M632.84,940.49A5,5 0 1 1 622.84,940.49A5,5 0 1 1 632.84,940.49Z" style="fill:#FF7AB4" />
<path d="M635.57,942.56A5,5 0 1 1 625.57,942.56A5,5 0 1 1 635.57,942.56Z" style="fill:#FF7AB4" />
<path d="M638.3,932.76A5,5 0 1 1 628.3,932.76A5,5 0 1 1 638.3,932.76Z" style="fill:#FF7AB4" />
<path d="M641.02,932.38A5,5 0 1 1 631.02,932.38A5,5 0 1 1 641.02,932.38Z" style="fill:#FF7AB4" />
<path d="M643.75,936.84A5,5 0 1 1 633.75,936.84A5,5 0 1 1 643.75,936.84Z" style="fill:#FF7AB4" />
<path d="M646.48,924.71A5,5 0 1 1 636.48,924.71A5,5 0 1 1 646.48,924.71Z" style="fill:#FF7AB4" />
<path d="M649.2,917.96A5,5 0 1 1 639.2,917.96A5,5 0 1 1 649.2,917.96Z" style="fill:#FF7AB4" />
<path d="M651.93,906.54A5,5 0 1 1 641.93,906.54A5,5 0 1 1 651.93,906.54Z" style="fill:#FF7AB4" />
<path d="M654.66,905.8A5,5 0 1 1 644.66,905.8A5,5 0 1 1 654.66,905.8Z" style="fill:#FF7AB4" />
<path d="M657.38,883.18A5,5 0 1 1 647.38,883.18A5,5 0 1 1 657.38,883.18Z" style="fill:#FF7AB4" />
<path d="M660.11,881.41A5,5 0 1 1 650.11,881.41A5,5 0 1 1 660.11,881.41Z" style="fill:#FF7AB4" />
<path d="M662.84,865.27A5,5 0 1 1 652.84,865.27A5,5 0 1 1 662.84,865.27Z" style="fill:#FF7AB4" />
<path d="M665.56,855.46A5,5 0 1 1 655.56,855.46A5,5 0 1 1 665.56,855.46Z" style="fill:#FF7AB4" />
<path d="M668.29,832.85A5,5 0 1 1 658.29,832.85A5,5 0 1 1 668.29,832.85Z" style="fill:#FF7AB4" />
<path d="M671.01,824.47A5,5 0 1 1 661.01,824.47A5,5 0 1 1 671.01,824.47Z" style="fill:#FF7AB4" />
<path d="M673.74,810.88A5,5 0 1 1 663.74,810.88A5,5 0 1 1 673.74,810.88Z" style="fill:#FF7AB4" />
<path d="M676.47,796.91A5,5 0 1 1 666.47,796.91A5,5 0 1 1 676.47,796.91Z" style="fill:#FF7AB4" />
<path d="M679.19,770.08A5,5 0 1 1 669.19,770.08A5,5 0 1 1 679.19,770.08Z" style="fill:#FF7AB4" />
<path d="M681.92,751.44A5,5 0 1 1 671.92,751.44A5,5 0 1 1 681.92,751.44Z" style="fill:#FF7AB4" />
<path d="M684.65,742.7A5,5 0 1 1 674.65,742.7A5,5 0 1 1 684.65,742.7Z" style="fill:#FF7AB4" />
<path d="M687.37,720.32A5,5 0 1 1 677.37,720.32A5,5 0 1 1 687.37,720.32Z" style="fill:#FF7AB4" />
<path d="M690.1,706.14A5,5 0 1 1 680.1,706.14A5,5 0 1 1 690.1,706.14Z" style="fill:#FF7AB4" />
<path d="M692.83,688.36A5,5 0 1 1 682.83,688.36A5,5 0 1 1 692.83,688.36Z" style="fill:#FF7AB4" />
<path d="M695.55,668.71A5,5 0 1 1 685.55,668.71A5,5 0 1 1 695.55,668.71Z" style="fill:#FF7AB4" />
<path d="M698.28,648.63A5,5 0 1 1 688.28,648.63A5,5 0 1 1 698.28,648.63Z" style="fill:#FF7AB4" />
<path d="M701.01,634.66A5,5 0 1 1 691.01,634.66A5,5 0 1 1 701.01,634.66Z" style="fill:#FF7AB4" />
<path d="M703.73,617.16A5,5 0 1 1 693.73,617.16A5,5 0 1 1 703.73,617.16Z" style="fill:#FF7AB4" />
<path d="M706.46,602.5A5,5 0 1 1 696.46,602.5A5,5 0 1 1 706.46,602.5Z" style="fill:#FF7AB4" />
<path d="M709.19,580.27A5,5 0 1 1 699.19,580.27A5,5 0 1 1 709.19,580.27Z" style="fill:#FF7AB4" />
<path d="M711.91,566.43A5,5 0 1 1 701.91,566.43A5,5 0 1 1 711.91,566.43Z" style="fill:#FF7AB4" />
<path d="M714.64,550.55A5,5 0 1 1 704.64,550.55A5,5 0 1 1 714.64,550.55Z" style="fill:#FF7AB4" />
<path d="M717.37,533.21A5,5 0 1 1 707.37,533.21A5,5 0 1 1 717.37,533.21Z" style="fill:#FF7AB4" />
<path d="M720.09,521.01A5,5 0 1 1 710.09,521.01A5,5 0 1 1 720.09,521.01Z" style="fill:#FF7AB4" />
<path d="M722.82,507.44A5,5 0 1 1 712.82,507.44A5,5 0 1 1 722.82,507.44Z" style="fill:#FF7AB4" />
<path d="M725.55,493.41A5,5 0 1 1 715.55,493.41A5,5 0 1 1 725.55,493.41Z" style="fill:#FF7AB4" />
<path d="M728.27,481.89A5,5 0 1 1 718.27,481.89A5,5 0 1 1 728.27,481.89Z" style="fill:#FF7AB4" />
<path d="M731,468.94A5,5 0 1 1 721,468.94A5,5 0 1 1 731,468.94Z" style="fill:#FF7AB4" />
<path d="M733.73,455.29A5,5 0 1 1 723.73,455.29A5,5 0 1 1 733.73,455.29Z" style="fill:#FF7AB4" />
<path d="M736.45,440.77A5,5 0 1 1 726.45,440.77A5,5 0 1 1 736.45,440.77Z" style="fill:#FF7AB4" />
<path d="M739.18,426.26A5,5 0 1 1 729.18,426.26A5,5 0 1 1 739.18,426.26Z" style="fill:#FF7AB4" />
<path d="M741.91,409A5,5 0 1 1 731.91,409A5,5 0 1 1 741.91,409Z" style="fill:#FF7AB4" />
<path d="M744.63,406.23A5,5 0 1 1 734.63,406.23A5,5 0 1 1 744.63,406.23Z" style="fill:#FF7AB4" />
<path d="M747.36,396.63A5,5 0 1 1 737.36,396.63A5,5 0 1 1 747.36,396.63Z" style="fill:#FF7AB4" />
<path d="M750.09,382.37A5,5 0 1 1 740.09,382.37A5,5 0 1 1 750.09,382.37Z" style="fill:#FF7AB4" />
<path d="M752.81,373.6A5,5 0 1 1 742.81,373.6A5,5 0 1 1 752.81,373.6Z" style="fill:#FF7AB4" />
<path d="M755.54,368.63A5,5 0 1 1 745.54,368.63A5,5 0 1 1 755.54,368.63Z" style="fill:#FF7AB4" />
<path d="M758.26,360.14A5,5 0 1 1 748.26,360.14A5,5 0 1 1 758.26,360.14Z" style="fill:#FF7AB4" />
<path d="M760.99,346.37A5,5 0 1 1 750.99,346.37A5,5 0 1 1 760.99,346.37Z" style="fill:#FF7AB4" />
<path d="M763.72,336.12A5,5 0 1 1 753.72,336.12A5,5 0 1 1 763.72,336.12Z" style="fill:#FF7AB4" />
<path d="M766.44,324.79A5,5 0 1 1 756.44,324.79A5,5 0 1 1 766.44,324.79Z" style="fill:#FF7AB4" />
<path d="M769.17,313.53A5,5 0 1 1 759.17,313.53A5,5 0 1 1 769.17,313.53Z" style="fill:#FF7AB4" />
<path d="M771.9,312.21A5,5 0 1 1 761.9,312.21A5,5 0 1 1 771.9,312.21Z" style="fill:#FF7AB4" />
<path d="M774.62,302.37A5,5 0 1 1 764.62,302.37A5,5 0 1 1 774.62,302.37Z" style="fill:#FF7AB4" />
<path d="M777.35,296.79A5,5 0 1 1 767.35,296.79A5,5 0 1 1 777.35,296.79Z" style="fill:#FF7AB4" />
<path d="M780.08,287.26A5,5 0 1 1 770.08,287.26A5,5 0 1 1 780.08,287.26Z" style="fill:#FF7AB4" />
<path d="M782.8,283.54A5,5 0 1 1 772.8,283.54A5,5 0 1 1 782.8,283.54Z" style="fill:#FF7AB4" />
<path d="M785.53,275.12A5,5 0 1 1 775.53,275.12A5,5 0 1 1 785.53,275.12Z" style="fill:#FF7AB4" />
<path d="M788.26,268.26A5,5 0 1 1 778.26,268.26A5,5 0 1 1 788.26,268.26Z" style="fill:#FF7AB4" />
<path d="M790.98,262A5,5 0 1 1 780.98,262A5,5 0 1 1 790.98,262Z" style="fill:#FF7AB4" />
<path d="M793.71,257.58A5,5 0 1 1 783.71,257.58A5,5 0 1 1 793.71,257.58Z" style="fill:#FF7AB4" />
<path d="M796.44,247.91A5,5 0 1 1 786.44,247.91A5,5 0 1 1 796.44,247.91Z" style="fill:#FF7AB4" />
<path d="M799.16,248.67A5,5 0 1 1 789.16,248.67A5,5 0 1 1 799.16,248.67Z" style="fill:#FF7AB4" />
<path d="M801.89,235.66A5,5 0 1 1 791.89,235.66A5,5 0 1 1 801.89,235.66Z" style="fill:#FF7AB4" />
<path d="M804.62,234.44A5,5 0 1 1 794.62,234.44A5,5 0 1 1 804.62,234.44Z" style="fill:#FF7AB4" />
<path d="M807.34,229.35A5,5 0 1 1 797.34,229.35A5,5 0 1 1 807.34,229.35Z" style="fill:#FF7AB4" />
<path d="M810.07,226.58A5,5 0 1 1 800.07,226.58A5,5 0 1 1 810.07,226.58Z" style="fill:#FF7AB4" />
<path d="M812.8,221.41A5,5 0 1 1 802.8,221.41A5,5 0 1 1 812.8,221.41Z" style="fill:#FF7AB4" />
<path d="M815.52,215.87A5,5 0 1 1 805.52,215.87A5,5 0 1 1 815.52,215.87Z" style="fill:#FF7AB4" />
<path d="M818.25,212.67A5,5 0 1 1 808.25,212.67A5,5 0 1 1 818.25,212.67Z" style="fill:#FF7AB4" />
<path d="M820.98,210.89A5,5 0 1 1 810.98,210.89A5,5 0 1 1 820.98,210.89Z" style="fill:#FF7AB4" />
<path d="M823.7,206.07A5,5 0 1 1 813.7,206.07A5,5 0 1 1 823.7,206.07Z" style="fill:#FF7AB4" />
<path d="M826.43,199.6A5,5 0 1 1 816.43,199.6A5,5 0 1 1 826.43,199.6Z" style="fill:#FF7AB4" />
<path d="M829.16,199.34A5,5 0 1 1 819.16,199.34A5,5 0 1 1 829.16,199.34Z" style="fill:#FF7AB4" />
<path d="M831.88,195.21A5,5 0 1 1 821.88,195.21A5,5 0 1 1 831.88,195.21Z" style="fill:#FF7AB4" />
<path d="M834.61,193.77A5,5 0 1 1 824.61,193.77A5,5 0 1 1 834.61,193.77Z" style="fill:#FF7AB4" />
<path d="M837.34,189.5A5,5 0 1 1 827.34,189.5A5,5 0 1 1 837.34,189.5Z" style="fill:#FF7AB4" />
<path d="M840.06,186.51A5,5 0 1 1 830.06,186.51A5,5 0 1 1 840.06,186.51Z" style="fill:#FF7AB4" />
<path d="M842.79,184.22A5,5 0 1 1 832.79,184.22A5,5 0 1 1 842.79,184.22Z" style="fill:#FF7AB4" />
<path d="M845.52,181.85A5,5 0 1 1 835.52,181.85A5,5 0 1 1 845.52,181.85Z" style="fill:#FF7AB4" />
<path d="M848.24,176.47A5,5 0 1 1 838.24,176.47A5,5 0 1 1 848.24,176.47Z" style="fill:#FF7AB4" />
<path d="M850.97,176.42A5,5 0 1 1 840.97,176.42A5,5 0 1 1 850.97,176.42Z" style="fill:#FF7AB4" />
<path d="M853.69,172.21A5,5 0 1 1 843.69,172.21A5,5 0 1 1 853.69,172.21Z" style="fill:#FF7AB4" />
<path d="M856.42,170.48A5,5 0 1 1 846.42,170.48A5,5 0 1 1 856.42,170.48Z" style="fill:#FF7AB4" />
<path d="M859.15,169.48A5,5 0 1 1 849.15,169.48A5,5 0 1 1 859.15,169.48Z" style="fill:#FF7AB4" />
<path d="M861.87,165.83A5,5 0 1 1 851.87,165.83A5,5 0 1 1 861.87,165.83Z" style="fill:#FF7AB4" />
<path d="M864.6,163.69A5,5 0 1 1 854.6,163.69A5,5 0 1 1 864.6,163.69Z" style="fill:#FF7AB4" />
<path d="M867.33,160.3A5,5 0 1 1 857.33,160.3A5,5 0 1 1 867.33,160.3Z" style="fill:#FF7AB4" />
<path d="M870.05,161.17A5,5 0 1 1 860.05,161.17A5,5 0 1 1 870.05,161.17Z" style="fill:#FF7AB4" />
<path d="M872.78,155.99A5,5 0 1 1 862.78,155.99A5,5 0 1 1 872.78,155.99Z" style="fill:#FF7AB4" />
<path d="M875.51,157.59A5,5 0 1 1 865.51,157.59A5,5 0 1 1 875.51,157.59Z" style="fill:#FF7AB4" />
<path d="M878.23,152.56A5,5 0 1 1 868.23,152.56A5,5 0 1 1 878.23,152.56Z" style="fill:#FF7AB4" />
<path d="M880.96,151.54A5,5 0 1 1 870.96,151.54A5,5 0 1 1 880.96,151.54Z" style="fill:#FF7AB4" />
<path d="M883.69,151.65A5,5 0 1 1 873.69,151.65A5,5 0 1 1 883.69,151.65Z" style="fill:#FF7AB4" />
<path d="M886.41,151.42A5,5 0 1 1 876.41,151.42A5,5 0 1 1 886.41,151.42Z" style="fill:#FF7AB4" />
<path d="M889.14,149.49A5,5 0 1 1 879.14,149.49A5,5 0 1 1 889.14,149.49Z" style="fill:#FF7AB4" />
<path d="M891.87,148.05A5,5 0 1 1 881.87,148.05A5,5 0 1 1 891.87,148.05Z" style="fill:#FF7AB4" />
<path d="M894.59,146.97A5,5 0 1 1 884.59,146.97A5,5 0 1 1 894.59,146.97Z" style="fill:#FF7AB4" />
<path d="M897.32,141.38A5,5 0 1 1 887.32,141.38A5,5 0 1 1 897.32,141.38Z" style="fill:#FF7AB4" />
<path d="M900.05,140.77A5,5 0 1 1 890.05,140.77A5,5 0 1 1 900.05,140.77Z" style="fill:#FF7AB4" />
<path d="M902.77,140.97A5,5 0 1 1 892.77,140.97A5,5 0 1 1 902.77,140.97Z" style="fill:#FF7AB4" />
<path d="M905.5,139.07A5,5 0 1 1 895.5,139.07A5,5 0 1 1 905.5,139.07Z" style="fill:#FF7AB4" />
<path d="M908.23,139.13A5,5 0 1 1 898.23,139.13A5,5 0 1 1 908.23,139.13Z" style="fill:#FF7AB4" />
<path d="M910.95,137.12A5,5 0 1 1 900.95,137.12A5,5 0 1 1 910.95,137.12Z" style="fill:#FF7AB4" />
<path d="M913.68,137.13A5,5 0 1 1 903.68,137.13A5,5 0 1 1 913.68,137.13Z" style="fill:#FF7AB4" />
<path d="M916.41,133.83A5,5 0 1 1 906.41,133.83A5,5 0 1 1 916.41,133.83Z" style="fill:#FF7AB4" />
<path d="M919.13,133.26A5,5 0 1 1 909.13,133.26A5,5 0 1 1 919.13,133.26Z" style="fill:#FF7AB4" />
<path d="M921.86,132.71A5,5 0 1 1 911.86,132.71A5,5 0 1 1 921.86,132.71Z" style="fill:#FF7AB4" />
<path d="M924.59,131.37A5,5 0 1 1 914.59,131.37A5,5 0 1 1 924.59,131.37Z" style="fill:#FF7AB4" />
<path d="M927.31,130.75A5,5 0 1 1 917.31,130.75A5,5 0 1 1 927.31,130.75Z" style="fill:#FF7AB4" />
<path d="M930.04,130.01A5,5 0 1 1 920.04,130.01A5,5 0 1 1 930.04,130.01Z" style="fill:#FF7AB4" />
<path d="M932.77,129.57A5,5 0 1 1 922.77,129.57A5,5 0 1 1 932.77,129.57Z" style="fill:#FF7AB4" />
<path d="M935.49,128.6A5,5 0 1 1 925.49,128.6A5,5 0 1 1 935.49,128.6Z" style="fill:#FF7AB4" />
<path d="M938.22,127.15A5,5 0 1 1 928.22,127.15A5,5 0 1 1 938.22,127.15Z" style="fill:#FF7AB4" />
<path d="M940.95,127.17A5,5 0 1 1 930.95,127.17A5,5 0 1 1 940.95,127.17Z" style="fill:#FF7AB4" />
<path d="M943.67,124.91A5,5 0 1 1 933.67,124.91A5,5 0 1 1 943.67,124.91Z" style="fill:#FF7AB4" />
<path d="M946.4,124.13A5,5 0 1 1 936.4,124.13A5,5 0 1 1 946.4,124.13Z" style="fill:#FF7AB4" />
<path d="M949.12,123.82A5,5 0 1 1 939.12,123.82A5,5 0 1 1 949.12,123.82Z" style="fill:#FF7AB4" />
<path d="M951.85,123.48A5,5 0 1 1 941.85,123.48A5,5 0 1 1 951.85,123.48Z" style="fill:#FF7AB4" />
<path d="M954.58,121.52A5,5 0 1 1 944.58,121.52A5,5 0 1 1 954.58,121.52Z" style="fill:#FF7AB4" />
<path d="M957.3,123.04A5,5 0 1 1 947.3,123.04A5,5 0 1 1 957.3,123.04Z" style="fill:#FF7AB4" />
<path d="M960.03,122.82A5,5 0 1 1 950.03,122.82A5,5 0 1 1 960.03,122.82Z" style="fill:#FF7AB4" />
<path d="M962.76,121.65A5,5 0 1 1 952.76,121.65A5,5 0 1 1 962.76,121.65Z" style="fill:#FF7AB4" />
<path d="M965.48,121.3A5,5 0 1 1 955.48,121.3A5,5 0 1 1 965.48,121.3Z" style="fill:#FF7AB4" />
<path d="M968.21,122.12A5,5 0 1 1 958.21,122.12A5,5 0 1 1 968.21,122.12Z" style="fill:#FF7AB4" />
<path d="M970.94,119.47A5,5 0 1 1 960.94,119.47A5,5 0 1 1 970.94,119.47Z" style="fill:#FF7AB4" />
<path d="M973.66,117.46A5,5 0 1 1 963.66,117.46A5,5 0 1 1 973.66,117.46Z" style="fill:#FF7AB4" />
<path d="M976.39,118.84A5,5 0 1 1 966.39,118.84A5,5 0 1 1 976.39,118.84Z" style="fill:#FF7AB4" />
<path d="M979.12,117.59A5,5 0 1 1 969.12,117.59A5,5 0 1 1 979.12,117.59Z" style="fill:#FF7AB4" />
<path d="M981.84,117.68A5,5 0 1 1 971.84,117.68A5,5 0 1 1 981.84,117.68Z" style="fill:#FF7AB4" />
<path d="M984.57,117.57A5,5 0 1 1 974.57,117.57A5,5 0 1 1 984.57,117.57Z" style="fill:#FF7AB4" />
<path d="M987.3,114.17A5,5 0 1 1 977.3,114.17A5,5 0 1 1 987.3,114.17Z" style="fill:#FF7AB4" />
<path d="M990.02,115.5A5,5 0 1 1 980.02,115.5A5,5 0 1 1 990.02,115.5Z" style="fill:#FF7AB4" />
<path d="M992.75,114.82A5,5 0 1 1 982.75,114.82A5,5 0 1 1 992.75,114.82Z" style="fill:#FF7AB4" />
<path d="M995.48,115.51A5,5 0 1 1 985.48,115.51A5,5 0 1 1 995.48,115.51Z" style="fill:#FF7AB4" />
<path d="M998.2,112.94A5,5 0 1 1 988.2,112.94A5,5 0 1 1 998.2,112.94Z" style="fill:#FF7AB4" />
<path d="M1000.9,112.36A5,5 0 1 1 990.93,112.36A5,5 0 1 1 1000.9,112.36Z" style="fill:#FF7AB4" />
<path d="M1003.7,113.36A5,5 0 1 1 993.66,113.36A5,5 0 1 1 1003.7,113.36Z" style="fill:#FF7AB4" />
<path d="M1006.4,112.97A5,5 0 1 1 996.38,112.97A5,5 0 1 1 1006.4,112.97Z" style="fill:#FF7AB4" />
<path d="M1009.1,111.53A5,5 0 1 1 999.11,111.53A5,5 0 1 1 1009.1,111.53Z" style="fill:#FF7AB4" />
<path d="M1011.8,112.27A5,5 0 1 1 1001.8,112.27A5,5 0 1 1 1011.8,112.27Z" style="fill:#FF7AB4" />
<path d="M1014.6,112.12A5,5 0 1 1 1004.6,112.12A5,5 0 1 1 1014.6,112.12Z" style="fill:#FF7AB4" />
<path d="M1017.3,111.94A5,5 0 1 1 1007.3,111.94A5,5 0 1 1 1017.3,111.94Z" style="fill:#FF7AB4" />
<path d="M1020,109.92A5,5 0 1 1 1010,109.92A5,5 0 1 1 1020,109.92Z" style="fill:#FF7AB4" />
<path d="M1022.7,109.69A5,5 0 1 1 1012.7,109.69A5,5 0 1 1 1022.7,109.69Z" style="fill:#FF7AB4" />
<path d="M1025.5,108.05A5,5 0 1 1 1015.5,108.05A5,5 0 1 1 1025.5,108.05Z" style="fill:#FF7AB4" />
<path d="M1028.2,109.21A5,5 0 1 1 1018.2,109.21A5,5 0 1 1 1028.2,109.21Z" style="fill:#FF7AB4" />
<path d="M1030.9,108.66A5,5 0 1 1 1020.9,108.66A5,5 0 1 1 1030.9,108.66Z" style="fill:#FF7AB4" />
<path d="M1033.6,108.2A5,5 0 1 1 1023.6,108.2A5,5 0 1 1 1033.6,108.2Z" style="fill:#FF7AB4" />
<path d="M1036.4,108.15A5,5 0 1 1 1026.4,108.15A5,5 0 1 1 1036.4,108.15Z" style="fill:#FF7AB4" />
<path d="M1039.1,109.5A5,5 0 1 1 1029.1,109.5A5,5 0 1 1 1039.1,109.5Z" style="fill:#FF7AB4" />
<path d="M1041.8,109.17A5,5 0 1 1 1031.8,109.17A5,5 0 1 1 1041.8,109.17Z" style="fill:#FF7AB4" />
<path d="M1044.6,107.55A5,5 0 1 1 1034.6,107.55A5,5 0 1 1 1044.6,107.55Z" style="fill:#FF7AB4" />
<path d="M1047.3,106.86A5,5 0 1 1 1037.3,106.86A5,5 0 1 1 1047.3,106.86Z" style="fill:#FF7AB4" />
<path d="M1050,108.59A5,5 0 1 1 1040,108.59A5,5 0 1 1 1050,108.59Z" style="fill:#FF7AB4" />
<path d="M1052.7,106.34A5,5 0 1 1 1042.7,106.34A5,5 0 1 1 1052.7,106.34Z" style="fill:#FF7AB4" />
<path d="M1055.5,105.39A5,5 0 1 1 1045.5,105.39A5,5 0 1 1 1055.5,105.39Z" style="fill:#FF7AB4" />
<path d="M1058.2,104.99A5,5 0 1 1 1048.2,104.99A5,5 0 1 1 1058.2,104.99Z" style="fill:#FF7AB4" />
<path d="M1060.9,106.31A5,5 0 1 1 1050.9,106.31A5,5 0 1 1 1060.9,106.31Z" style="fill:#FF7AB4" />
<path d="M1063.6,105.08A5,5 0 1 1 1053.6,105.08A5,5 0 1 1 1063.6,105.08Z" style="fill:#FF7AB4" />
<path d="M1066.4,104.96A5,5 0 1 1 1056.4,104.96A5,5 0 1 1 1066.4,104.96Z" style="fill:#FF7AB4" />
<path d="M1069.1,104.3A5,5 0 1 1 1059.1,104.3A5,5 0 1 1 1069.1,104.3Z" style="fill:#FF7AB4" />
<path d="M1071.8,106.19A5,5 0 1 1 1061.8,106.19A5,5 0 1 1 1071.8,106.19Z" style="fill:#FF7AB4" />
<path d="M1074.5,104.28A5,5 0 1 1 1064.5,104.28A5,5 0 1 1 1074.5,104.28Z" style="fill:#FF7AB4" />
<path d="M1077.3,103.28A5,5 0 1 1 1067.3,103.28A5,5 0 1 1 1077.3,103.28Z" style="fill:#FF7AB4" />
<path d="M1080,103.96A5,5 0 1 1 1070,103.96A5,5 0 1 1 1080,103.96Z" style="fill:#FF7AB4" />
<path d="M96.162,1029.1L1075,1029.1" style="fill:none;stroke:#000000;stroke-width:2.5" />
<path d="M1075,77.531L1075,1029.1" style="fill:none;stroke:#000000;stroke-width:2.5" />
<path d="M1012,974.69A7,7 0 1 1 998,974.69A7,7 0 1 1 1012,974.69Z" style="fill:#FF7AB4" />
<text x="786.64" y="-967.62" transform="scale(1, -1)"
	style="font-family:Liberation Sans;font-variant:normal;font-weight:normal;font-style:normal;font-size:30px">1 mm UHNA3</text>
</g>
</svg>
