<?xml version="1.0"?>
<!-- Generated by SVGo and Plotinum VG -->
<svg width="1080pt" height="1080pt" viewBox="0 0 1080 1080"
	xmlns="http://www.w3.org/2000/svg"
	xmlns:xlink="http://www.w3.org/1999/xlink">
<g transform="scale(1, -1) translate(0, -1080)">
<path d="M0,0L1080,0L1080,1080L0,1080Z" style="fill:#-8000000000000000-8000000000000000-8000000000000000;fill-opacity:0" />
<text x="244.36" y="-1015.2" transform="scale(1, -1)"
	style="font-family:Helvetica;font-weight:normal;font-style:normal;font-size:80px">1 cm CS2 CABS</text>
<text x="425.55" y="-17.172" transform="scale(1, -1)"
	style="font-family:Helvetica;font-weight:normal;font-style:normal;font-size:56px">Frequency (GHz)</text>
<text x="381.47" y="-119.73" transform="scale(1, -1)"
	style="font-family:Helvetica;font-weight:normal;font-style:normal;font-size:56px">2.5</text>
<text x="821.21" y="-119.73" transform="scale(1, -1)"
	style="font-family:Helvetica;font-weight:normal;font-style:normal;font-size:56px">2.6</text>
<path d="M200.53,177.12L200.53,173.12" style="fill:none;stroke:#000000;stroke-width:1.5" />
<path d="M420.4,181.12L420.4,173.12" style="fill:none;stroke:#000000;stroke-width:1.5" />
<path d="M640.26,177.12L640.26,173.12" style="fill:none;stroke:#000000;stroke-width:1.5" />
<path d="M860.13,181.12L860.13,173.12" style="fill:none;stroke:#000000;stroke-width:1.5" />
<path d="M1080,177.12L1080,173.12" style="fill:none;stroke:#000000;stroke-width:1.5" />
<path d="M200.53,173.12L1080,173.12" style="fill:none;stroke:#000000;stroke-width:1.5" />
<g transform="rotate(90)">
<text x="270.29" y="45.391" transform="scale(1, -1)"
	style="font-family:Helvetica;font-weight:normal;font-style:normal;font-size:56px">Spectral Density (μV)</text>
</g>
<text x="145.57" y="-163.63" transform="scale(1, -1)"
	style="font-family:Helvetica;font-weight:normal;font-style:normal;font-size:56px">0</text>
<text x="114.43" y="-402.07" transform="scale(1, -1)"
	style="font-family:Helvetica;font-weight:normal;font-style:normal;font-size:56px">20</text>
<text x="114.43" y="-640.5" transform="scale(1, -1)"
	style="font-family:Helvetica;font-weight:normal;font-style:normal;font-size:56px">40</text>
<text x="114.43" y="-878.93" transform="scale(1, -1)"
	style="font-family:Helvetica;font-weight:normal;font-style:normal;font-size:56px">60</text>
<path d="M208.28,177.74L200.28,177.74" style="fill:none;stroke:#000000;stroke-width:1.5" />
<path d="M204.28,296.96L200.28,296.96" style="fill:none;stroke:#000000;stroke-width:1.5" />
<path d="M208.28,416.18L200.28,416.18" style="fill:none;stroke:#000000;stroke-width:1.5" />
<path d="M204.28,535.39L200.28,535.39" style="fill:none;stroke:#000000;stroke-width:1.5" />
<path d="M208.28,654.61L200.28,654.61" style="fill:none;stroke:#000000;stroke-width:1.5" />
<path d="M204.28,773.83L200.28,773.83" style="fill:none;stroke:#000000;stroke-width:1.5" />
<path d="M208.28,893.04L200.28,893.04" style="fill:none;stroke:#000000;stroke-width:1.5" />
<path d="M200.28,177.74L200.28,893.04" style="fill:none;stroke:#000000;stroke-width:1.5" />
<path d="M227.86,295.12A5,5 0 1 1 217.86,295.12A5,5 0 1 1 227.86,295.12Z" style="fill:#1FD3AC" />
<path d="M250.19,316.03A5,5 0 1 1 240.19,316.03A5,5 0 1 1 250.19,316.03Z" style="fill:#1FD3AC" />
<path d="M272.53,329.39A5,5 0 1 1 262.53,329.39A5,5 0 1 1 272.53,329.39Z" style="fill:#1FD3AC" />
<path d="M294.86,341.24A5,5 0 1 1 284.86,341.24A5,5 0 1 1 294.86,341.24Z" style="fill:#1FD3AC" />
<path d="M317.2,344.14A5,5 0 1 1 307.2,344.14A5,5 0 1 1 317.2,344.14Z" style="fill:#1FD3AC" />
<path d="M339.53,347.32A5,5 0 1 1 329.53,347.32A5,5 0 1 1 339.53,347.32Z" style="fill:#1FD3AC" />
<path d="M361.86,353.68A5,5 0 1 1 351.86,353.68A5,5 0 1 1 361.86,353.68Z" style="fill:#1FD3AC" />
<path d="M384.2,365.52A5,5 0 1 1 374.2,365.52A5,5 0 1 1 384.2,365.52Z" style="fill:#1FD3AC" />
<path d="M406.53,381.32A5,5 0 1 1 396.53,381.32A5,5 0 1 1 406.53,381.32Z" style="fill:#1FD3AC" />
<path d="M428.87,409.68A5,5 0 1 1 418.87,409.68A5,5 0 1 1 428.87,409.68Z" style="fill:#1FD3AC" />
<path d="M451.2,446.33A5,5 0 1 1 441.2,446.33A5,5 0 1 1 451.2,446.33Z" style="fill:#1FD3AC" />
<path d="M473.53,506.35A5,5 0 1 1 463.53,506.35A5,5 0 1 1 473.53,506.35Z" style="fill:#1FD3AC" />
<path d="M495.87,577.54A5,5 0 1 1 485.87,577.54A5,5 0 1 1 495.87,577.54Z" style="fill:#1FD3AC" />
<path d="M518.2,650.33A5,5 0 1 1 508.2,650.33A5,5 0 1 1 518.2,650.33Z" style="fill:#1FD3AC" />
<path d="M540.53,721.62A5,5 0 1 1 530.53,721.62A5,5 0 1 1 540.53,721.62Z" style="fill:#1FD3AC" />
<path d="M562.87,753.57A5,5 0 1 1 552.87,753.57A5,5 0 1 1 562.87,753.57Z" style="fill:#1FD3AC" />
<path d="M585.2,726.41A5,5 0 1 1 575.2,726.41A5,5 0 1 1 585.2,726.41Z" style="fill:#1FD3AC" />
<path d="M607.54,656.01A5,5 0 1 1 597.54,656.01A5,5 0 1 1 607.54,656.01Z" style="fill:#1FD3AC" />
<path d="M629.87,583.28A5,5 0 1 1 619.87,583.28A5,5 0 1 1 629.87,583.28Z" style="fill:#1FD3AC" />
<path d="M652.2,527.04A5,5 0 1 1 642.2,527.04A5,5 0 1 1 652.2,527.04Z" style="fill:#1FD3AC" />
<path d="M674.54,499.53A5,5 0 1 1 664.54,499.53A5,5 0 1 1 674.54,499.53Z" style="fill:#1FD3AC" />
<path d="M696.87,481.94A5,5 0 1 1 686.87,481.94A5,5 0 1 1 696.87,481.94Z" style="fill:#1FD3AC" />
<path d="M719.2,463.43A5,5 0 1 1 709.2,463.43A5,5 0 1 1 719.2,463.43Z" style="fill:#1FD3AC" />
<path d="M741.54,455.61A5,5 0 1 1 731.54,455.61A5,5 0 1 1 741.54,455.61Z" style="fill:#1FD3AC" />
<path d="M763.87,430.31A5,5 0 1 1 753.87,430.31A5,5 0 1 1 763.87,430.31Z" style="fill:#1FD3AC" />
<path d="M786.21,402.36A5,5 0 1 1 776.21,402.36A5,5 0 1 1 786.21,402.36Z" style="fill:#1FD3AC" />
<path d="M808.54,378.81A5,5 0 1 1 798.54,378.81A5,5 0 1 1 808.54,378.81Z" style="fill:#1FD3AC" />
<path d="M830.87,354.16A5,5 0 1 1 820.87,354.16A5,5 0 1 1 830.87,354.16Z" style="fill:#1FD3AC" />
<path d="M853.21,325.1A5,5 0 1 1 843.21,325.1A5,5 0 1 1 853.21,325.1Z" style="fill:#1FD3AC" />
<path d="M875.54,302.94A5,5 0 1 1 865.54,302.94A5,5 0 1 1 875.54,302.94Z" style="fill:#1FD3AC" />
<path d="M897.87,288.63A5,5 0 1 1 887.87,288.63A5,5 0 1 1 897.87,288.63Z" style="fill:#1FD3AC" />
<path d="M920.21,267.93A5,5 0 1 1 910.21,267.93A5,5 0 1 1 920.21,267.93Z" style="fill:#1FD3AC" />
<path d="M942.54,247.26A5,5 0 1 1 932.54,247.26A5,5 0 1 1 942.54,247.26Z" style="fill:#1FD3AC" />
<path d="M964.88,238.21A5,5 0 1 1 954.88,238.21A5,5 0 1 1 964.88,238.21Z" style="fill:#1FD3AC" />
<path d="M987.21,234.06A5,5 0 1 1 977.21,234.06A5,5 0 1 1 987.21,234.06Z" style="fill:#1FD3AC" />
<path d="M1009.5,229.23A5,5 0 1 1 999.54,229.23A5,5 0 1 1 1009.5,229.23Z" style="fill:#1FD3AC" />
<path d="M1031.9,225.17A5,5 0 1 1 1021.9,225.17A5,5 0 1 1 1031.9,225.17Z" style="fill:#1FD3AC" />
<path d="M1054.2,220.92A5,5 0 1 1 1044.2,220.92A5,5 0 1 1 1054.2,220.92Z" style="fill:#1FD3AC" />
<path d="M200.53,893.04L1080,893.04" style="fill:none;stroke:#000000" />
<path d="M1080,177.74L1080,893.04" style="fill:none;stroke:#000000" />
<path d="M1013,827.33A8,8 0 1 1 997,827.33A8,8 0 1 1 1013,827.33Z" style="fill:#1FD3AC" />
<text x="734.15" y="-814.14" transform="scale(1, -1)"
	style="font-family:Helvetica;font-weight:normal;font-style:normal;font-size:56px">1cm CS2</text>
</g>
</svg>
