<?xml version="1.0"?>
<!-- Generated by SVGo and Plotinum VG -->
<svg width="1080pt" height="1080pt" viewBox="0 0 1080 1080"
	xmlns="http://www.w3.org/2000/svg"
	xmlns:xlink="http://www.w3.org/1999/xlink">
<g transform="scale(1, -1) translate(0, -1080)">
<path d="M0,0L1080,0L1080,1080L0,1080Z" style="fill-opacity:0" />
<text x="358.85" y="-1047.6" transform="scale(1, -1)"
	style="font-family:Liberation Sans;font-variant:normal;font-weight:normal;font-style:normal;font-size:40px">1 mm UHNA3 CoBS</text>
<text x="424.82" y="-9.1992" transform="scale(1, -1)"
	style="font-family:Liberation Sans;font-variant:normal;font-weight:normal;font-style:normal;font-size:30px">Frequency (Ω/2π) (GHz)</text>
<text x="71.968" y="-47.715" transform="scale(1, -1)"
	style="font-family:Liberation Sans;font-variant:normal;font-weight:normal;font-style:normal;font-size:30px">9.00</text>
<text x="139.78" y="-47.715" transform="scale(1, -1)"
	style="font-family:Liberation Sans;font-variant:normal;font-weight:normal;font-style:normal;font-size:30px">9.03</text>
<text x="207.6" y="-47.715" transform="scale(1, -1)"
	style="font-family:Liberation Sans;font-variant:normal;font-weight:normal;font-style:normal;font-size:30px">9.05</text>
<text x="275.42" y="-47.715" transform="scale(1, -1)"
	style="font-family:Liberation Sans;font-variant:normal;font-weight:normal;font-style:normal;font-size:30px">9.08</text>
<text x="343.23" y="-47.715" transform="scale(1, -1)"
	style="font-family:Liberation Sans;font-variant:normal;font-weight:normal;font-style:normal;font-size:30px">9.10</text>
<text x="411.05" y="-47.715" transform="scale(1, -1)"
	style="font-family:Liberation Sans;font-variant:normal;font-weight:normal;font-style:normal;font-size:30px">9.13</text>
<text x="478.86" y="-47.715" transform="scale(1, -1)"
	style="font-family:Liberation Sans;font-variant:normal;font-weight:normal;font-style:normal;font-size:30px">9.15</text>
<text x="546.68" y="-47.715" transform="scale(1, -1)"
	style="font-family:Liberation Sans;font-variant:normal;font-weight:normal;font-style:normal;font-size:30px">9.18</text>
<text x="614.5" y="-47.715" transform="scale(1, -1)"
	style="font-family:Liberation Sans;font-variant:normal;font-weight:normal;font-style:normal;font-size:30px">9.20</text>
<text x="682.31" y="-47.715" transform="scale(1, -1)"
	style="font-family:Liberation Sans;font-variant:normal;font-weight:normal;font-style:normal;font-size:30px">9.23</text>
<text x="750.13" y="-47.715" transform="scale(1, -1)"
	style="font-family:Liberation Sans;font-variant:normal;font-weight:normal;font-style:normal;font-size:30px">9.25</text>
<text x="817.94" y="-47.715" transform="scale(1, -1)"
	style="font-family:Liberation Sans;font-variant:normal;font-weight:normal;font-style:normal;font-size:30px">9.28</text>
<text x="885.76" y="-47.715" transform="scale(1, -1)"
	style="font-family:Liberation Sans;font-variant:normal;font-weight:normal;font-style:normal;font-size:30px">9.30</text>
<text x="953.58" y="-47.715" transform="scale(1, -1)"
	style="font-family:Liberation Sans;font-variant:normal;font-weight:normal;font-style:normal;font-size:30px">9.33</text>
<text x="1021.4" y="-47.715" transform="scale(1, -1)"
	style="font-family:Liberation Sans;font-variant:normal;font-weight:normal;font-style:normal;font-size:30px">9.35</text>
<path d="M101.16,72.031L101.16,80.031" style="fill:none;stroke:#000000;stroke-width:2.5" />
<path d="M114.73,76.031L114.73,80.031" style="fill:none;stroke:#000000;stroke-width:2.5" />
<path d="M128.29,76.031L128.29,80.031" style="fill:none;stroke:#000000;stroke-width:2.5" />
<path d="M141.85,76.031L141.85,80.031" style="fill:none;stroke:#000000;stroke-width:2.5" />
<path d="M155.41,76.031L155.41,80.031" style="fill:none;stroke:#000000;stroke-width:2.5" />
<path d="M168.98,72.031L168.98,80.031" style="fill:none;stroke:#000000;stroke-width:2.5" />
<path d="M182.54,76.031L182.54,80.031" style="fill:none;stroke:#000000;stroke-width:2.5" />
<path d="M196.1,76.031L196.1,80.031" style="fill:none;stroke:#000000;stroke-width:2.5" />
<path d="M209.67,76.031L209.67,80.031" style="fill:none;stroke:#000000;stroke-width:2.5" />
<path d="M223.23,76.031L223.23,80.031" style="fill:none;stroke:#000000;stroke-width:2.5" />
<path d="M236.79,72.031L236.79,80.031" style="fill:none;stroke:#000000;stroke-width:2.5" />
<path d="M250.36,76.031L250.36,80.031" style="fill:none;stroke:#000000;stroke-width:2.5" />
<path d="M263.92,76.031L263.92,80.031" style="fill:none;stroke:#000000;stroke-width:2.5" />
<path d="M277.48,76.031L277.48,80.031" style="fill:none;stroke:#000000;stroke-width:2.5" />
<path d="M291.05,76.031L291.05,80.031" style="fill:none;stroke:#000000;stroke-width:2.5" />
<path d="M304.61,72.031L304.61,80.031" style="fill:none;stroke:#000000;stroke-width:2.5" />
<path d="M318.17,76.031L318.17,80.031" style="fill:none;stroke:#000000;stroke-width:2.5" />
<path d="M331.74,76.031L331.74,80.031" style="fill:none;stroke:#000000;stroke-width:2.5" />
<path d="M345.3,76.031L345.3,80.031" style="fill:none;stroke:#000000;stroke-width:2.5" />
<path d="M358.86,76.031L358.86,80.031" style="fill:none;stroke:#000000;stroke-width:2.5" />
<path d="M372.43,72.031L372.43,80.031" style="fill:none;stroke:#000000;stroke-width:2.5" />
<path d="M385.99,76.031L385.99,80.031" style="fill:none;stroke:#000000;stroke-width:2.5" />
<path d="M399.55,76.031L399.55,80.031" style="fill:none;stroke:#000000;stroke-width:2.5" />
<path d="M413.12,76.031L413.12,80.031" style="fill:none;stroke:#000000;stroke-width:2.5" />
<path d="M426.68,76.031L426.68,80.031" style="fill:none;stroke:#000000;stroke-width:2.5" />
<path d="M440.24,72.031L440.24,80.031" style="fill:none;stroke:#000000;stroke-width:2.5" />
<path d="M453.81,76.031L453.81,80.031" style="fill:none;stroke:#000000;stroke-width:2.5" />
<path d="M467.37,76.031L467.37,80.031" style="fill:none;stroke:#000000;stroke-width:2.5" />
<path d="M480.93,76.031L480.93,80.031" style="fill:none;stroke:#000000;stroke-width:2.5" />
<path d="M494.49,76.031L494.49,80.031" style="fill:none;stroke:#000000;stroke-width:2.5" />
<path d="M508.06,72.031L508.06,80.031" style="fill:none;stroke:#000000;stroke-width:2.5" />
<path d="M521.62,76.031L521.62,80.031" style="fill:none;stroke:#000000;stroke-width:2.5" />
<path d="M535.18,76.031L535.18,80.031" style="fill:none;stroke:#000000;stroke-width:2.5" />
<path d="M548.75,76.031L548.75,80.031" style="fill:none;stroke:#000000;stroke-width:2.5" />
<path d="M562.31,76.031L562.31,80.031" style="fill:none;stroke:#000000;stroke-width:2.5" />
<path d="M575.87,72.031L575.87,80.031" style="fill:none;stroke:#000000;stroke-width:2.5" />
<path d="M589.44,76.031L589.44,80.031" style="fill:none;stroke:#000000;stroke-width:2.5" />
<path d="M603,76.031L603,80.031" style="fill:none;stroke:#000000;stroke-width:2.5" />
<path d="M616.56,76.031L616.56,80.031" style="fill:none;stroke:#000000;stroke-width:2.5" />
<path d="M630.13,76.031L630.13,80.031" style="fill:none;stroke:#000000;stroke-width:2.5" />
<path d="M643.69,72.031L643.69,80.031" style="fill:none;stroke:#000000;stroke-width:2.5" />
<path d="M657.25,76.031L657.25,80.031" style="fill:none;stroke:#000000;stroke-width:2.5" />
<path d="M670.82,76.031L670.82,80.031" style="fill:none;stroke:#000000;stroke-width:2.5" />
<path d="M684.38,76.031L684.38,80.031" style="fill:none;stroke:#000000;stroke-width:2.5" />
<path d="M697.94,76.031L697.94,80.031" style="fill:none;stroke:#000000;stroke-width:2.5" />
<path d="M711.51,72.031L711.51,80.031" style="fill:none;stroke:#000000;stroke-width:2.5" />
<path d="M725.07,76.031L725.07,80.031" style="fill:none;stroke:#000000;stroke-width:2.5" />
<path d="M738.63,76.031L738.63,80.031" style="fill:none;stroke:#000000;stroke-width:2.5" />
<path d="M752.2,76.031L752.2,80.031" style="fill:none;stroke:#000000;stroke-width:2.5" />
<path d="M765.76,76.031L765.76,80.031" style="fill:none;stroke:#000000;stroke-width:2.5" />
<path d="M779.32,72.031L779.32,80.031" style="fill:none;stroke:#000000;stroke-width:2.5" />
<path d="M792.89,76.031L792.89,80.031" style="fill:none;stroke:#000000;stroke-width:2.5" />
<path d="M806.45,76.031L806.45,80.031" style="fill:none;stroke:#000000;stroke-width:2.5" />
<path d="M820.01,76.031L820.01,80.031" style="fill:none;stroke:#000000;stroke-width:2.5" />
<path d="M833.58,76.031L833.58,80.031" style="fill:none;stroke:#000000;stroke-width:2.5" />
<path d="M847.14,72.031L847.14,80.031" style="fill:none;stroke:#000000;stroke-width:2.5" />
<path d="M860.7,76.031L860.7,80.031" style="fill:none;stroke:#000000;stroke-width:2.5" />
<path d="M874.26,76.031L874.26,80.031" style="fill:none;stroke:#000000;stroke-width:2.5" />
<path d="M887.83,76.031L887.83,80.031" style="fill:none;stroke:#000000;stroke-width:2.5" />
<path d="M901.39,76.031L901.39,80.031" style="fill:none;stroke:#000000;stroke-width:2.5" />
<path d="M914.95,72.031L914.95,80.031" style="fill:none;stroke:#000000;stroke-width:2.5" />
<path d="M928.52,76.031L928.52,80.031" style="fill:none;stroke:#000000;stroke-width:2.5" />
<path d="M942.08,76.031L942.08,80.031" style="fill:none;stroke:#000000;stroke-width:2.5" />
<path d="M955.64,76.031L955.64,80.031" style="fill:none;stroke:#000000;stroke-width:2.5" />
<path d="M969.21,76.031L969.21,80.031" style="fill:none;stroke:#000000;stroke-width:2.5" />
<path d="M982.77,72.031L982.77,80.031" style="fill:none;stroke:#000000;stroke-width:2.5" />
<path d="M996.33,76.031L996.33,80.031" style="fill:none;stroke:#000000;stroke-width:2.5" />
<path d="M1009.9,76.031L1009.9,80.031" style="fill:none;stroke:#000000;stroke-width:2.5" />
<path d="M1023.5,76.031L1023.5,80.031" style="fill:none;stroke:#000000;stroke-width:2.5" />
<path d="M1037,76.031L1037,80.031" style="fill:none;stroke:#000000;stroke-width:2.5" />
<path d="M1050.6,72.031L1050.6,80.031" style="fill:none;stroke:#000000;stroke-width:2.5" />
<path d="M1064.1,76.031L1064.1,80.031" style="fill:none;stroke:#000000;stroke-width:2.5" />
<path d="M101.16,80.031L1075,80.031" style="fill:none;stroke:#000000;stroke-width:2.5" />
<g transform="rotate(90)">
<text x="380.57" y="24.316" transform="scale(1, -1)"
	style="font-family:Liberation Sans;font-variant:normal;font-weight:normal;font-style:normal;font-size:30px">Spectral Density (relative)</text>
</g>
<text x="44.873" y="-67.973" transform="scale(1, -1)"
	style="font-family:Liberation Sans;font-variant:normal;font-weight:normal;font-style:normal;font-size:30px">0.0</text>
<text x="44.873" y="-241.34" transform="scale(1, -1)"
	style="font-family:Liberation Sans;font-variant:normal;font-weight:normal;font-style:normal;font-size:30px">0.2</text>
<text x="44.873" y="-414.71" transform="scale(1, -1)"
	style="font-family:Liberation Sans;font-variant:normal;font-weight:normal;font-style:normal;font-size:30px">0.4</text>
<text x="44.873" y="-588.08" transform="scale(1, -1)"
	style="font-family:Liberation Sans;font-variant:normal;font-weight:normal;font-style:normal;font-size:30px">0.6</text>
<text x="44.873" y="-761.45" transform="scale(1, -1)"
	style="font-family:Liberation Sans;font-variant:normal;font-weight:normal;font-style:normal;font-size:30px">0.8</text>
<text x="44.873" y="-934.82" transform="scale(1, -1)"
	style="font-family:Liberation Sans;font-variant:normal;font-weight:normal;font-style:normal;font-size:30px">1.0</text>
<path d="M94.912,75.531L102.91,75.531" style="fill:none;stroke:#000000;stroke-width:2.5" />
<path d="M98.912,104.43L102.91,104.43" style="fill:none;stroke:#000000;stroke-width:2.5" />
<path d="M98.912,133.32L102.91,133.32" style="fill:none;stroke:#000000;stroke-width:2.5" />
<path d="M98.912,162.22L102.91,162.22" style="fill:none;stroke:#000000;stroke-width:2.5" />
<path d="M98.912,191.11L102.91,191.11" style="fill:none;stroke:#000000;stroke-width:2.5" />
<path d="M98.912,220.01L102.91,220.01" style="fill:none;stroke:#000000;stroke-width:2.5" />
<path d="M94.912,248.9L102.91,248.9" style="fill:none;stroke:#000000;stroke-width:2.5" />
<path d="M98.912,277.8L102.91,277.8" style="fill:none;stroke:#000000;stroke-width:2.5" />
<path d="M98.912,306.69L102.91,306.69" style="fill:none;stroke:#000000;stroke-width:2.5" />
<path d="M98.912,335.59L102.91,335.59" style="fill:none;stroke:#000000;stroke-width:2.5" />
<path d="M98.912,364.48L102.91,364.48" style="fill:none;stroke:#000000;stroke-width:2.5" />
<path d="M98.912,393.38L102.91,393.38" style="fill:none;stroke:#000000;stroke-width:2.5" />
<path d="M94.912,422.27L102.91,422.27" style="fill:none;stroke:#000000;stroke-width:2.5" />
<path d="M98.912,451.16L102.91,451.16" style="fill:none;stroke:#000000;stroke-width:2.5" />
<path d="M98.912,480.06L102.91,480.06" style="fill:none;stroke:#000000;stroke-width:2.5" />
<path d="M98.912,508.95L102.91,508.95" style="fill:none;stroke:#000000;stroke-width:2.5" />
<path d="M98.912,537.85L102.91,537.85" style="fill:none;stroke:#000000;stroke-width:2.5" />
<path d="M98.912,566.74L102.91,566.74" style="fill:none;stroke:#000000;stroke-width:2.5" />
<path d="M94.912,595.64L102.91,595.64" style="fill:none;stroke:#000000;stroke-width:2.5" />
<path d="M98.912,624.53L102.91,624.53" style="fill:none;stroke:#000000;stroke-width:2.5" />
<path d="M98.912,653.43L102.91,653.43" style="fill:none;stroke:#000000;stroke-width:2.5" />
<path d="M98.912,682.32L102.91,682.32" style="fill:none;stroke:#000000;stroke-width:2.5" />
<path d="M98.912,711.22L102.91,711.22" style="fill:none;stroke:#000000;stroke-width:2.5" />
<path d="M98.912,740.11L102.91,740.11" style="fill:none;stroke:#000000;stroke-width:2.5" />
<path d="M94.912,769.01L102.91,769.01" style="fill:none;stroke:#000000;stroke-width:2.5" />
<path d="M98.912,797.9L102.91,797.9" style="fill:none;stroke:#000000;stroke-width:2.5" />
<path d="M98.912,826.8L102.91,826.8" style="fill:none;stroke:#000000;stroke-width:2.5" />
<path d="M98.912,855.69L102.91,855.69" style="fill:none;stroke:#000000;stroke-width:2.5" />
<path d="M98.912,884.59L102.91,884.59" style="fill:none;stroke:#000000;stroke-width:2.5" />
<path d="M98.912,913.48L102.91,913.48" style="fill:none;stroke:#000000;stroke-width:2.5" />
<path d="M94.912,942.38L102.91,942.38" style="fill:none;stroke:#000000;stroke-width:2.5" />
<path d="M102.91,75.531L102.91,1029.1" style="fill:none;stroke:#000000;stroke-width:2.5" />
<path d="M106.16,103.63A5,5 0 1 1 96.162,103.63A5,5 0 1 1 106.16,103.63Z" style="fill:#1FD3AC" />
<path d="M114.57,105.03A5,5 0 1 1 104.57,105.03A5,5 0 1 1 114.57,105.03Z" style="fill:#1FD3AC" />
<path d="M122.98,107.74A5,5 0 1 1 112.98,107.74A5,5 0 1 1 122.98,107.74Z" style="fill:#1FD3AC" />
<path d="M131.39,108.44A5,5 0 1 1 121.39,108.44A5,5 0 1 1 131.39,108.44Z" style="fill:#1FD3AC" />
<path d="M139.8,110.69A5,5 0 1 1 129.8,110.69A5,5 0 1 1 139.8,110.69Z" style="fill:#1FD3AC" />
<path d="M148.21,110.48A5,5 0 1 1 138.21,110.48A5,5 0 1 1 148.21,110.48Z" style="fill:#1FD3AC" />
<path d="M156.62,112.4A5,5 0 1 1 146.62,112.4A5,5 0 1 1 156.62,112.4Z" style="fill:#1FD3AC" />
<path d="M165.03,114.38A5,5 0 1 1 155.03,114.38A5,5 0 1 1 165.03,114.38Z" style="fill:#1FD3AC" />
<path d="M173.44,115.51A5,5 0 1 1 163.44,115.51A5,5 0 1 1 173.44,115.51Z" style="fill:#1FD3AC" />
<path d="M181.84,117.94A5,5 0 1 1 171.84,117.94A5,5 0 1 1 181.84,117.94Z" style="fill:#1FD3AC" />
<path d="M190.25,119.12A5,5 0 1 1 180.25,119.12A5,5 0 1 1 190.25,119.12Z" style="fill:#1FD3AC" />
<path d="M198.66,122.07A5,5 0 1 1 188.66,122.07A5,5 0 1 1 198.66,122.07Z" style="fill:#1FD3AC" />
<path d="M207.07,123.97A5,5 0 1 1 197.07,123.97A5,5 0 1 1 207.07,123.97Z" style="fill:#1FD3AC" />
<path d="M215.48,126.51A5,5 0 1 1 205.48,126.51A5,5 0 1 1 215.48,126.51Z" style="fill:#1FD3AC" />
<path d="M223.89,128.07A5,5 0 1 1 213.89,128.07A5,5 0 1 1 223.89,128.07Z" style="fill:#1FD3AC" />
<path d="M232.3,130.6A5,5 0 1 1 222.3,130.6A5,5 0 1 1 232.3,130.6Z" style="fill:#1FD3AC" />
<path d="M240.71,132.86A5,5 0 1 1 230.71,132.86A5,5 0 1 1 240.71,132.86Z" style="fill:#1FD3AC" />
<path d="M249.12,137.61A5,5 0 1 1 239.12,137.61A5,5 0 1 1 249.12,137.61Z" style="fill:#1FD3AC" />
<path d="M257.53,140.85A5,5 0 1 1 247.53,140.85A5,5 0 1 1 257.53,140.85Z" style="fill:#1FD3AC" />
<path d="M265.94,145.24A5,5 0 1 1 255.94,145.24A5,5 0 1 1 265.94,145.24Z" style="fill:#1FD3AC" />
<path d="M274.35,147.6A5,5 0 1 1 264.35,147.6A5,5 0 1 1 274.35,147.6Z" style="fill:#1FD3AC" />
<path d="M282.75,150.53A5,5 0 1 1 272.75,150.53A5,5 0 1 1 282.75,150.53Z" style="fill:#1FD3AC" />
<path d="M291.16,155.34A5,5 0 1 1 281.16,155.34A5,5 0 1 1 291.16,155.34Z" style="fill:#1FD3AC" />
<path d="M299.57,159.13A5,5 0 1 1 289.57,159.13A5,5 0 1 1 299.57,159.13Z" style="fill:#1FD3AC" />
<path d="M307.98,163.58A5,5 0 1 1 297.98,163.58A5,5 0 1 1 307.98,163.58Z" style="fill:#1FD3AC" />
<path d="M316.39,168.59A5,5 0 1 1 306.39,168.59A5,5 0 1 1 316.39,168.59Z" style="fill:#1FD3AC" />
<path d="M324.8,173.78A5,5 0 1 1 314.8,173.78A5,5 0 1 1 324.8,173.78Z" style="fill:#1FD3AC" />
<path d="M333.21,178.5A5,5 0 1 1 323.21,178.5A5,5 0 1 1 333.21,178.5Z" style="fill:#1FD3AC" />
<path d="M341.62,184.15A5,5 0 1 1 331.62,184.15A5,5 0 1 1 341.62,184.15Z" style="fill:#1FD3AC" />
<path d="M350.03,190.31A5,5 0 1 1 340.03,190.31A5,5 0 1 1 350.03,190.31Z" style="fill:#1FD3AC" />
<path d="M358.44,196.88A5,5 0 1 1 348.44,196.88A5,5 0 1 1 358.44,196.88Z" style="fill:#1FD3AC" />
<path d="M366.85,204.58A5,5 0 1 1 356.85,204.58A5,5 0 1 1 366.85,204.58Z" style="fill:#1FD3AC" />
<path d="M375.26,211.53A5,5 0 1 1 365.26,211.53A5,5 0 1 1 375.26,211.53Z" style="fill:#1FD3AC" />
<path d="M383.67,220.51A5,5 0 1 1 373.67,220.51A5,5 0 1 1 383.67,220.51Z" style="fill:#1FD3AC" />
<path d="M392.07,227.13A5,5 0 1 1 382.07,227.13A5,5 0 1 1 392.07,227.13Z" style="fill:#1FD3AC" />
<path d="M400.48,237.25A5,5 0 1 1 390.48,237.25A5,5 0 1 1 400.48,237.25Z" style="fill:#1FD3AC" />
<path d="M408.89,243.87A5,5 0 1 1 398.89,243.87A5,5 0 1 1 408.89,243.87Z" style="fill:#1FD3AC" />
<path d="M417.3,253.49A5,5 0 1 1 407.3,253.49A5,5 0 1 1 417.3,253.49Z" style="fill:#1FD3AC" />
<path d="M425.71,265.34A5,5 0 1 1 415.71,265.34A5,5 0 1 1 425.71,265.34Z" style="fill:#1FD3AC" />
<path d="M434.12,275.82A5,5 0 1 1 424.12,275.82A5,5 0 1 1 434.12,275.82Z" style="fill:#1FD3AC" />
<path d="M442.53,283.03A5,5 0 1 1 432.53,283.03A5,5 0 1 1 442.53,283.03Z" style="fill:#1FD3AC" />
<path d="M450.94,291.05A5,5 0 1 1 440.94,291.05A5,5 0 1 1 450.94,291.05Z" style="fill:#1FD3AC" />
<path d="M459.35,308.97A5,5 0 1 1 449.35,308.97A5,5 0 1 1 459.35,308.97Z" style="fill:#1FD3AC" />
<path d="M467.76,322.04A5,5 0 1 1 457.76,322.04A5,5 0 1 1 467.76,322.04Z" style="fill:#1FD3AC" />
<path d="M476.17,335.73A5,5 0 1 1 466.17,335.73A5,5 0 1 1 476.17,335.73Z" style="fill:#1FD3AC" />
<path d="M484.58,349.39A5,5 0 1 1 474.58,349.39A5,5 0 1 1 484.58,349.39Z" style="fill:#1FD3AC" />
<path d="M492.98,366.49A5,5 0 1 1 482.98,366.49A5,5 0 1 1 492.98,366.49Z" style="fill:#1FD3AC" />
<path d="M501.39,382.54A5,5 0 1 1 491.39,382.54A5,5 0 1 1 501.39,382.54Z" style="fill:#1FD3AC" />
<path d="M509.8,398.64A5,5 0 1 1 499.8,398.64A5,5 0 1 1 509.8,398.64Z" style="fill:#1FD3AC" />
<path d="M518.21,417.59A5,5 0 1 1 508.21,417.59A5,5 0 1 1 518.21,417.59Z" style="fill:#1FD3AC" />
<path d="M526.62,441.2A5,5 0 1 1 516.62,441.2A5,5 0 1 1 526.62,441.2Z" style="fill:#1FD3AC" />
<path d="M535.03,461.76A5,5 0 1 1 525.03,461.76A5,5 0 1 1 535.03,461.76Z" style="fill:#1FD3AC" />
<path d="M543.44,485.15A5,5 0 1 1 533.44,485.15A5,5 0 1 1 543.44,485.15Z" style="fill:#1FD3AC" />
<path d="M551.85,503.97A5,5 0 1 1 541.85,503.97A5,5 0 1 1 551.85,503.97Z" style="fill:#1FD3AC" />
<path d="M560.26,530.11A5,5 0 1 1 550.26,530.11A5,5 0 1 1 560.26,530.11Z" style="fill:#1FD3AC" />
<path d="M568.67,560.46A5,5 0 1 1 558.67,560.46A5,5 0 1 1 568.67,560.46Z" style="fill:#1FD3AC" />
<path d="M577.08,590.66A5,5 0 1 1 567.08,590.66A5,5 0 1 1 577.08,590.66Z" style="fill:#1FD3AC" />
<path d="M585.49,620.23A5,5 0 1 1 575.49,620.23A5,5 0 1 1 585.49,620.23Z" style="fill:#1FD3AC" />
<path d="M593.89,650.78A5,5 0 1 1 583.89,650.78A5,5 0 1 1 593.89,650.78Z" style="fill:#1FD3AC" />
<path d="M602.3,679.45A5,5 0 1 1 592.3,679.45A5,5 0 1 1 602.3,679.45Z" style="fill:#1FD3AC" />
<path d="M610.71,704.25A5,5 0 1 1 600.71,704.25A5,5 0 1 1 610.71,704.25Z" style="fill:#1FD3AC" />
<path d="M619.12,716.76A5,5 0 1 1 609.12,716.76A5,5 0 1 1 619.12,716.76Z" style="fill:#1FD3AC" />
<path d="M627.53,742.21A5,5 0 1 1 617.53,742.21A5,5 0 1 1 627.53,742.21Z" style="fill:#1FD3AC" />
<path d="M635.94,741.84A5,5 0 1 1 625.94,741.84A5,5 0 1 1 635.94,741.84Z" style="fill:#1FD3AC" />
<path d="M644.35,727.61A5,5 0 1 1 634.35,727.61A5,5 0 1 1 644.35,727.61Z" style="fill:#1FD3AC" />
<path d="M652.76,723.06A5,5 0 1 1 642.76,723.06A5,5 0 1 1 652.76,723.06Z" style="fill:#1FD3AC" />
<path d="M661.17,703.11A5,5 0 1 1 651.17,703.11A5,5 0 1 1 661.17,703.11Z" style="fill:#1FD3AC" />
<path d="M669.58,666.58A5,5 0 1 1 659.58,666.58A5,5 0 1 1 669.58,666.58Z" style="fill:#1FD3AC" />
<path d="M677.99,631.1A5,5 0 1 1 667.99,631.1A5,5 0 1 1 677.99,631.1Z" style="fill:#1FD3AC" />
<path d="M686.4,585.29A5,5 0 1 1 676.4,585.29A5,5 0 1 1 686.4,585.29Z" style="fill:#1FD3AC" />
<path d="M694.81,538.44A5,5 0 1 1 684.81,538.44A5,5 0 1 1 694.81,538.44Z" style="fill:#1FD3AC" />
<path d="M703.21,500.29A5,5 0 1 1 693.21,500.29A5,5 0 1 1 703.21,500.29Z" style="fill:#1FD3AC" />
<path d="M711.62,460.4A5,5 0 1 1 701.62,460.4A5,5 0 1 1 711.62,460.4Z" style="fill:#1FD3AC" />
<path d="M720.03,425.08A5,5 0 1 1 710.03,425.08A5,5 0 1 1 720.03,425.08Z" style="fill:#1FD3AC" />
<path d="M728.44,385.57A5,5 0 1 1 718.44,385.57A5,5 0 1 1 728.44,385.57Z" style="fill:#1FD3AC" />
<path d="M736.85,352.88A5,5 0 1 1 726.85,352.88A5,5 0 1 1 736.85,352.88Z" style="fill:#1FD3AC" />
<path d="M745.26,329.03A5,5 0 1 1 735.26,329.03A5,5 0 1 1 745.26,329.03Z" style="fill:#1FD3AC" />
<path d="M753.67,299.73A5,5 0 1 1 743.67,299.73A5,5 0 1 1 753.67,299.73Z" style="fill:#1FD3AC" />
<path d="M762.08,279.29A5,5 0 1 1 752.08,279.29A5,5 0 1 1 762.08,279.29Z" style="fill:#1FD3AC" />
<path d="M770.49,260.33A5,5 0 1 1 760.49,260.33A5,5 0 1 1 770.49,260.33Z" style="fill:#1FD3AC" />
<path d="M778.9,244.39A5,5 0 1 1 768.9,244.39A5,5 0 1 1 778.9,244.39Z" style="fill:#1FD3AC" />
<path d="M787.31,222.98A5,5 0 1 1 777.31,222.98A5,5 0 1 1 787.31,222.98Z" style="fill:#1FD3AC" />
<path d="M795.72,208.96A5,5 0 1 1 785.72,208.96A5,5 0 1 1 795.72,208.96Z" style="fill:#1FD3AC" />
<path d="M804.12,200.53A5,5 0 1 1 794.12,200.53A5,5 0 1 1 804.12,200.53Z" style="fill:#1FD3AC" />
<path d="M812.53,186.04A5,5 0 1 1 802.53,186.04A5,5 0 1 1 812.53,186.04Z" style="fill:#1FD3AC" />
<path d="M820.94,173.9A5,5 0 1 1 810.94,173.9A5,5 0 1 1 820.94,173.9Z" style="fill:#1FD3AC" />
<path d="M829.35,167.33A5,5 0 1 1 819.35,167.33A5,5 0 1 1 829.35,167.33Z" style="fill:#1FD3AC" />
<path d="M837.76,159.46A5,5 0 1 1 827.76,159.46A5,5 0 1 1 837.76,159.46Z" style="fill:#1FD3AC" />
<path d="M846.17,151.27A5,5 0 1 1 836.17,151.27A5,5 0 1 1 846.17,151.27Z" style="fill:#1FD3AC" />
<path d="M854.58,145.27A5,5 0 1 1 844.58,145.27A5,5 0 1 1 854.58,145.27Z" style="fill:#1FD3AC" />
<path d="M862.99,138.25A5,5 0 1 1 852.99,138.25A5,5 0 1 1 862.99,138.25Z" style="fill:#1FD3AC" />
<path d="M871.4,135.37A5,5 0 1 1 861.4,135.37A5,5 0 1 1 871.4,135.37Z" style="fill:#1FD3AC" />
<path d="M879.81,132.27A5,5 0 1 1 869.81,132.27A5,5 0 1 1 879.81,132.27Z" style="fill:#1FD3AC" />
<path d="M888.22,128.17A5,5 0 1 1 878.22,128.17A5,5 0 1 1 888.22,128.17Z" style="fill:#1FD3AC" />
<path d="M896.63,124.53A5,5 0 1 1 886.63,124.53A5,5 0 1 1 896.63,124.53Z" style="fill:#1FD3AC" />
<path d="M905.03,119.95A5,5 0 1 1 895.03,119.95A5,5 0 1 1 905.03,119.95Z" style="fill:#1FD3AC" />
<path d="M101.16,1029.1L1075,1029.1" style="fill:none;stroke:#000000;stroke-width:2.5" />
<path d="M1075,75.531L1075,1029.1" style="fill:none;stroke:#000000;stroke-width:2.5" />
<path d="M106.16,96.235A5,5 0 1 1 96.162,96.235A5,5 0 1 1 106.16,96.235Z" style="fill:#FF7AB4" />
<path d="M108.87,96.013A5,5 0 1 1 98.875,96.013A5,5 0 1 1 108.87,96.013Z" style="fill:#FF7AB4" />
<path d="M111.59,96.022A5,5 0 1 1 101.59,96.022A5,5 0 1 1 111.59,96.022Z" style="fill:#FF7AB4" />
<path d="M114.3,97.764A5,5 0 1 1 104.3,97.764A5,5 0 1 1 114.3,97.764Z" style="fill:#FF7AB4" />
<path d="M117.01,96.982A5,5 0 1 1 107.01,96.982A5,5 0 1 1 117.01,96.982Z" style="fill:#FF7AB4" />
<path d="M119.73,98.139A5,5 0 1 1 109.73,98.139A5,5 0 1 1 119.73,98.139Z" style="fill:#FF7AB4" />
<path d="M122.44,98.682A5,5 0 1 1 112.44,98.682A5,5 0 1 1 122.44,98.682Z" style="fill:#FF7AB4" />
<path d="M125.15,98.818A5,5 0 1 1 115.15,98.818A5,5 0 1 1 125.15,98.818Z" style="fill:#FF7AB4" />
<path d="M127.86,99.727A5,5 0 1 1 117.86,99.727A5,5 0 1 1 127.86,99.727Z" style="fill:#FF7AB4" />
<path d="M130.58,99.869A5,5 0 1 1 120.58,99.869A5,5 0 1 1 130.58,99.869Z" style="fill:#FF7AB4" />
<path d="M133.29,99.707A5,5 0 1 1 123.29,99.707A5,5 0 1 1 133.29,99.707Z" style="fill:#FF7AB4" />
<path d="M136,99.663A5,5 0 1 1 126,99.663A5,5 0 1 1 136,99.663Z" style="fill:#FF7AB4" />
<path d="M138.71,99.547A5,5 0 1 1 128.71,99.547A5,5 0 1 1 138.71,99.547Z" style="fill:#FF7AB4" />
<path d="M141.43,101.11A5,5 0 1 1 131.43,101.11A5,5 0 1 1 141.43,101.11Z" style="fill:#FF7AB4" />
<path d="M144.14,101.63A5,5 0 1 1 134.14,101.63A5,5 0 1 1 144.14,101.63Z" style="fill:#FF7AB4" />
<path d="M146.85,102.05A5,5 0 1 1 136.85,102.05A5,5 0 1 1 146.85,102.05Z" style="fill:#FF7AB4" />
<path d="M149.56,101.97A5,5 0 1 1 139.56,101.97A5,5 0 1 1 149.56,101.97Z" style="fill:#FF7AB4" />
<path d="M152.28,102.1A5,5 0 1 1 142.28,102.1A5,5 0 1 1 152.28,102.1Z" style="fill:#FF7AB4" />
<path d="M154.99,102.59A5,5 0 1 1 144.99,102.59A5,5 0 1 1 154.99,102.59Z" style="fill:#FF7AB4" />
<path d="M157.7,104.28A5,5 0 1 1 147.7,104.28A5,5 0 1 1 157.7,104.28Z" style="fill:#FF7AB4" />
<path d="M160.41,104.06A5,5 0 1 1 150.41,104.06A5,5 0 1 1 160.41,104.06Z" style="fill:#FF7AB4" />
<path d="M163.13,104.23A5,5 0 1 1 153.13,104.23A5,5 0 1 1 163.13,104.23Z" style="fill:#FF7AB4" />
<path d="M165.84,103.87A5,5 0 1 1 155.84,103.87A5,5 0 1 1 165.84,103.87Z" style="fill:#FF7AB4" />
<path d="M168.55,105.29A5,5 0 1 1 158.55,105.29A5,5 0 1 1 168.55,105.29Z" style="fill:#FF7AB4" />
<path d="M171.27,104.93A5,5 0 1 1 161.27,104.93A5,5 0 1 1 171.27,104.93Z" style="fill:#FF7AB4" />
<path d="M173.98,104.74A5,5 0 1 1 163.98,104.74A5,5 0 1 1 173.98,104.74Z" style="fill:#FF7AB4" />
<path d="M176.69,107.68A5,5 0 1 1 166.69,107.68A5,5 0 1 1 176.69,107.68Z" style="fill:#FF7AB4" />
<path d="M179.4,107A5,5 0 1 1 169.4,107A5,5 0 1 1 179.4,107Z" style="fill:#FF7AB4" />
<path d="M182.12,109.33A5,5 0 1 1 172.12,109.33A5,5 0 1 1 182.12,109.33Z" style="fill:#FF7AB4" />
<path d="M184.83,108.24A5,5 0 1 1 174.83,108.24A5,5 0 1 1 184.83,108.24Z" style="fill:#FF7AB4" />
<path d="M187.54,108.85A5,5 0 1 1 177.54,108.85A5,5 0 1 1 187.54,108.85Z" style="fill:#FF7AB4" />
<path d="M190.25,109.84A5,5 0 1 1 180.25,109.84A5,5 0 1 1 190.25,109.84Z" style="fill:#FF7AB4" />
<path d="M192.97,110.83A5,5 0 1 1 182.97,110.83A5,5 0 1 1 192.97,110.83Z" style="fill:#FF7AB4" />
<path d="M195.68,109.6A5,5 0 1 1 185.68,109.6A5,5 0 1 1 195.68,109.6Z" style="fill:#FF7AB4" />
<path d="M198.39,110.28A5,5 0 1 1 188.39,110.28A5,5 0 1 1 198.39,110.28Z" style="fill:#FF7AB4" />
<path d="M201.1,111.78A5,5 0 1 1 191.1,111.78A5,5 0 1 1 201.1,111.78Z" style="fill:#FF7AB4" />
<path d="M203.82,111.08A5,5 0 1 1 193.82,111.08A5,5 0 1 1 203.82,111.08Z" style="fill:#FF7AB4" />
<path d="M206.53,112.97A5,5 0 1 1 196.53,112.97A5,5 0 1 1 206.53,112.97Z" style="fill:#FF7AB4" />
<path d="M209.24,112.92A5,5 0 1 1 199.24,112.92A5,5 0 1 1 209.24,112.92Z" style="fill:#FF7AB4" />
<path d="M211.96,113.9A5,5 0 1 1 201.96,113.9A5,5 0 1 1 211.96,113.9Z" style="fill:#FF7AB4" />
<path d="M214.67,114.34A5,5 0 1 1 204.67,114.34A5,5 0 1 1 214.67,114.34Z" style="fill:#FF7AB4" />
<path d="M217.38,115.98A5,5 0 1 1 207.38,115.98A5,5 0 1 1 217.38,115.98Z" style="fill:#FF7AB4" />
<path d="M220.09,115.76A5,5 0 1 1 210.09,115.76A5,5 0 1 1 220.09,115.76Z" style="fill:#FF7AB4" />
<path d="M222.81,115.94A5,5 0 1 1 212.81,115.94A5,5 0 1 1 222.81,115.94Z" style="fill:#FF7AB4" />
<path d="M225.52,117.2A5,5 0 1 1 215.52,117.2A5,5 0 1 1 225.52,117.2Z" style="fill:#FF7AB4" />
<path d="M228.23,115.1A5,5 0 1 1 218.23,115.1A5,5 0 1 1 228.23,115.1Z" style="fill:#FF7AB4" />
<path d="M230.94,118.98A5,5 0 1 1 220.94,118.98A5,5 0 1 1 230.94,118.98Z" style="fill:#FF7AB4" />
<path d="M233.66,118.21A5,5 0 1 1 223.66,118.21A5,5 0 1 1 233.66,118.21Z" style="fill:#FF7AB4" />
<path d="M236.37,119.46A5,5 0 1 1 226.37,119.46A5,5 0 1 1 236.37,119.46Z" style="fill:#FF7AB4" />
<path d="M239.08,120.86A5,5 0 1 1 229.08,120.86A5,5 0 1 1 239.08,120.86Z" style="fill:#FF7AB4" />
<path d="M241.79,120.49A5,5 0 1 1 231.79,120.49A5,5 0 1 1 241.79,120.49Z" style="fill:#FF7AB4" />
<path d="M244.51,123.38A5,5 0 1 1 234.51,123.38A5,5 0 1 1 244.51,123.38Z" style="fill:#FF7AB4" />
<path d="M247.22,122.11A5,5 0 1 1 237.22,122.11A5,5 0 1 1 247.22,122.11Z" style="fill:#FF7AB4" />
<path d="M249.93,124.24A5,5 0 1 1 239.93,124.24A5,5 0 1 1 249.93,124.24Z" style="fill:#FF7AB4" />
<path d="M252.64,123.21A5,5 0 1 1 242.64,123.21A5,5 0 1 1 252.64,123.21Z" style="fill:#FF7AB4" />
<path d="M255.36,125.41A5,5 0 1 1 245.36,125.41A5,5 0 1 1 255.36,125.41Z" style="fill:#FF7AB4" />
<path d="M258.07,126.5A5,5 0 1 1 248.07,126.5A5,5 0 1 1 258.07,126.5Z" style="fill:#FF7AB4" />
<path d="M260.78,128.56A5,5 0 1 1 250.78,128.56A5,5 0 1 1 260.78,128.56Z" style="fill:#FF7AB4" />
<path d="M263.5,127.63A5,5 0 1 1 253.5,127.63A5,5 0 1 1 263.5,127.63Z" style="fill:#FF7AB4" />
<path d="M266.21,128.16A5,5 0 1 1 256.21,128.16A5,5 0 1 1 266.21,128.16Z" style="fill:#FF7AB4" />
<path d="M268.92,128.9A5,5 0 1 1 258.92,128.9A5,5 0 1 1 268.92,128.9Z" style="fill:#FF7AB4" />
<path d="M271.63,129.99A5,5 0 1 1 261.63,129.99A5,5 0 1 1 271.63,129.99Z" style="fill:#FF7AB4" />
<path d="M274.35,132.75A5,5 0 1 1 264.35,132.75A5,5 0 1 1 274.35,132.75Z" style="fill:#FF7AB4" />
<path d="M277.06,133.3A5,5 0 1 1 267.06,133.3A5,5 0 1 1 277.06,133.3Z" style="fill:#FF7AB4" />
<path d="M279.77,133.11A5,5 0 1 1 269.77,133.11A5,5 0 1 1 279.77,133.11Z" style="fill:#FF7AB4" />
<path d="M282.48,133.36A5,5 0 1 1 272.48,133.36A5,5 0 1 1 282.48,133.36Z" style="fill:#FF7AB4" />
<path d="M285.2,135.01A5,5 0 1 1 275.2,135.01A5,5 0 1 1 285.2,135.01Z" style="fill:#FF7AB4" />
<path d="M287.91,136.43A5,5 0 1 1 277.91,136.43A5,5 0 1 1 287.91,136.43Z" style="fill:#FF7AB4" />
<path d="M290.62,137.8A5,5 0 1 1 280.62,137.8A5,5 0 1 1 290.62,137.8Z" style="fill:#FF7AB4" />
<path d="M293.33,139.44A5,5 0 1 1 283.33,139.44A5,5 0 1 1 293.33,139.44Z" style="fill:#FF7AB4" />
<path d="M296.05,141.14A5,5 0 1 1 286.05,141.14A5,5 0 1 1 296.05,141.14Z" style="fill:#FF7AB4" />
<path d="M298.76,142.2A5,5 0 1 1 288.76,142.2A5,5 0 1 1 298.76,142.2Z" style="fill:#FF7AB4" />
<path d="M301.47,143.88A5,5 0 1 1 291.47,143.88A5,5 0 1 1 301.47,143.88Z" style="fill:#FF7AB4" />
<path d="M304.18,142.39A5,5 0 1 1 294.18,142.39A5,5 0 1 1 304.18,142.39Z" style="fill:#FF7AB4" />
<path d="M306.9,145.1A5,5 0 1 1 296.9,145.1A5,5 0 1 1 306.9,145.1Z" style="fill:#FF7AB4" />
<path d="M309.61,144.73A5,5 0 1 1 299.61,144.73A5,5 0 1 1 309.61,144.73Z" style="fill:#FF7AB4" />
<path d="M312.32,146.35A5,5 0 1 1 302.32,146.35A5,5 0 1 1 312.32,146.35Z" style="fill:#FF7AB4" />
<path d="M315.04,147.77A5,5 0 1 1 305.04,147.77A5,5 0 1 1 315.04,147.77Z" style="fill:#FF7AB4" />
<path d="M317.75,149.56A5,5 0 1 1 307.75,149.56A5,5 0 1 1 317.75,149.56Z" style="fill:#FF7AB4" />
<path d="M320.46,151.42A5,5 0 1 1 310.46,151.42A5,5 0 1 1 320.46,151.42Z" style="fill:#FF7AB4" />
<path d="M323.17,152.64A5,5 0 1 1 313.17,152.64A5,5 0 1 1 323.17,152.64Z" style="fill:#FF7AB4" />
<path d="M325.89,154.07A5,5 0 1 1 315.89,154.07A5,5 0 1 1 325.89,154.07Z" style="fill:#FF7AB4" />
<path d="M328.6,156.24A5,5 0 1 1 318.6,156.24A5,5 0 1 1 328.6,156.24Z" style="fill:#FF7AB4" />
<path d="M331.31,155.89A5,5 0 1 1 321.31,155.89A5,5 0 1 1 331.31,155.89Z" style="fill:#FF7AB4" />
<path d="M334.02,159.38A5,5 0 1 1 324.02,159.38A5,5 0 1 1 334.02,159.38Z" style="fill:#FF7AB4" />
<path d="M336.74,159.22A5,5 0 1 1 326.74,159.22A5,5 0 1 1 336.74,159.22Z" style="fill:#FF7AB4" />
<path d="M339.45,161.18A5,5 0 1 1 329.45,161.18A5,5 0 1 1 339.45,161.18Z" style="fill:#FF7AB4" />
<path d="M342.16,163.7A5,5 0 1 1 332.16,163.7A5,5 0 1 1 342.16,163.7Z" style="fill:#FF7AB4" />
<path d="M344.87,164.62A5,5 0 1 1 334.87,164.62A5,5 0 1 1 344.87,164.62Z" style="fill:#FF7AB4" />
<path d="M347.59,165.5A5,5 0 1 1 337.59,165.5A5,5 0 1 1 347.59,165.5Z" style="fill:#FF7AB4" />
<path d="M350.3,168.24A5,5 0 1 1 340.3,168.24A5,5 0 1 1 350.3,168.24Z" style="fill:#FF7AB4" />
<path d="M353.01,168.01A5,5 0 1 1 343.01,168.01A5,5 0 1 1 353.01,168.01Z" style="fill:#FF7AB4" />
<path d="M355.73,174.62A5,5 0 1 1 345.73,174.62A5,5 0 1 1 355.73,174.62Z" style="fill:#FF7AB4" />
<path d="M358.44,174.22A5,5 0 1 1 348.44,174.22A5,5 0 1 1 358.44,174.22Z" style="fill:#FF7AB4" />
<path d="M361.15,176.46A5,5 0 1 1 351.15,176.46A5,5 0 1 1 361.15,176.46Z" style="fill:#FF7AB4" />
<path d="M363.86,178.62A5,5 0 1 1 353.86,178.62A5,5 0 1 1 363.86,178.62Z" style="fill:#FF7AB4" />
<path d="M366.58,180.32A5,5 0 1 1 356.58,180.32A5,5 0 1 1 366.58,180.32Z" style="fill:#FF7AB4" />
<path d="M369.29,180.83A5,5 0 1 1 359.29,180.83A5,5 0 1 1 369.29,180.83Z" style="fill:#FF7AB4" />
<path d="M372,184.14A5,5 0 1 1 362,184.14A5,5 0 1 1 372,184.14Z" style="fill:#FF7AB4" />
<path d="M374.71,186.35A5,5 0 1 1 364.71,186.35A5,5 0 1 1 374.71,186.35Z" style="fill:#FF7AB4" />
<path d="M377.43,187.35A5,5 0 1 1 367.43,187.35A5,5 0 1 1 377.43,187.35Z" style="fill:#FF7AB4" />
<path d="M380.14,190.89A5,5 0 1 1 370.14,190.89A5,5 0 1 1 380.14,190.89Z" style="fill:#FF7AB4" />
<path d="M382.85,190.32A5,5 0 1 1 372.85,190.32A5,5 0 1 1 382.85,190.32Z" style="fill:#FF7AB4" />
<path d="M385.56,193.82A5,5 0 1 1 375.56,193.82A5,5 0 1 1 385.56,193.82Z" style="fill:#FF7AB4" />
<path d="M388.28,195.07A5,5 0 1 1 378.28,195.07A5,5 0 1 1 388.28,195.07Z" style="fill:#FF7AB4" />
<path d="M390.99,196.89A5,5 0 1 1 380.99,196.89A5,5 0 1 1 390.99,196.89Z" style="fill:#FF7AB4" />
<path d="M393.7,199.4A5,5 0 1 1 383.7,199.4A5,5 0 1 1 393.7,199.4Z" style="fill:#FF7AB4" />
<path d="M396.41,203.1A5,5 0 1 1 386.41,203.1A5,5 0 1 1 396.41,203.1Z" style="fill:#FF7AB4" />
<path d="M399.13,206.92A5,5 0 1 1 389.13,206.92A5,5 0 1 1 399.13,206.92Z" style="fill:#FF7AB4" />
<path d="M401.84,208.65A5,5 0 1 1 391.84,208.65A5,5 0 1 1 401.84,208.65Z" style="fill:#FF7AB4" />
<path d="M404.55,211.68A5,5 0 1 1 394.55,211.68A5,5 0 1 1 404.55,211.68Z" style="fill:#FF7AB4" />
<path d="M407.27,212.31A5,5 0 1 1 397.27,212.31A5,5 0 1 1 407.27,212.31Z" style="fill:#FF7AB4" />
<path d="M409.98,220.17A5,5 0 1 1 399.98,220.17A5,5 0 1 1 409.98,220.17Z" style="fill:#FF7AB4" />
<path d="M412.69,217.72A5,5 0 1 1 402.69,217.72A5,5 0 1 1 412.69,217.72Z" style="fill:#FF7AB4" />
<path d="M415.4,221.85A5,5 0 1 1 405.4,221.85A5,5 0 1 1 415.4,221.85Z" style="fill:#FF7AB4" />
<path d="M418.12,222.33A5,5 0 1 1 408.12,222.33A5,5 0 1 1 418.12,222.33Z" style="fill:#FF7AB4" />
<path d="M420.83,226.44A5,5 0 1 1 410.83,226.44A5,5 0 1 1 420.83,226.44Z" style="fill:#FF7AB4" />
<path d="M423.54,226.08A5,5 0 1 1 413.54,226.08A5,5 0 1 1 423.54,226.08Z" style="fill:#FF7AB4" />
<path d="M426.25,230.76A5,5 0 1 1 416.25,230.76A5,5 0 1 1 426.25,230.76Z" style="fill:#FF7AB4" />
<path d="M428.97,232.68A5,5 0 1 1 418.97,232.68A5,5 0 1 1 428.97,232.68Z" style="fill:#FF7AB4" />
<path d="M431.68,234.15A5,5 0 1 1 421.68,234.15A5,5 0 1 1 431.68,234.15Z" style="fill:#FF7AB4" />
<path d="M434.39,240.43A5,5 0 1 1 424.39,240.43A5,5 0 1 1 434.39,240.43Z" style="fill:#FF7AB4" />
<path d="M437.1,243.73A5,5 0 1 1 427.1,243.73A5,5 0 1 1 437.1,243.73Z" style="fill:#FF7AB4" />
<path d="M439.82,248.39A5,5 0 1 1 429.82,248.39A5,5 0 1 1 439.82,248.39Z" style="fill:#FF7AB4" />
<path d="M442.53,250.99A5,5 0 1 1 432.53,250.99A5,5 0 1 1 442.53,250.99Z" style="fill:#FF7AB4" />
<path d="M445.24,254.57A5,5 0 1 1 435.24,254.57A5,5 0 1 1 445.24,254.57Z" style="fill:#FF7AB4" />
<path d="M447.95,258.42A5,5 0 1 1 437.95,258.42A5,5 0 1 1 447.95,258.42Z" style="fill:#FF7AB4" />
<path d="M450.67,261.22A5,5 0 1 1 440.67,261.22A5,5 0 1 1 450.67,261.22Z" style="fill:#FF7AB4" />
<path d="M453.38,266.29A5,5 0 1 1 443.38,266.29A5,5 0 1 1 453.38,266.29Z" style="fill:#FF7AB4" />
<path d="M456.09,269.23A5,5 0 1 1 446.09,269.23A5,5 0 1 1 456.09,269.23Z" style="fill:#FF7AB4" />
<path d="M458.81,271.06A5,5 0 1 1 448.81,271.06A5,5 0 1 1 458.81,271.06Z" style="fill:#FF7AB4" />
<path d="M461.52,274.18A5,5 0 1 1 451.52,274.18A5,5 0 1 1 461.52,274.18Z" style="fill:#FF7AB4" />
<path d="M464.23,278.29A5,5 0 1 1 454.23,278.29A5,5 0 1 1 464.23,278.29Z" style="fill:#FF7AB4" />
<path d="M466.94,280.38A5,5 0 1 1 456.94,280.38A5,5 0 1 1 466.94,280.38Z" style="fill:#FF7AB4" />
<path d="M469.66,285.53A5,5 0 1 1 459.66,285.53A5,5 0 1 1 469.66,285.53Z" style="fill:#FF7AB4" />
<path d="M472.37,289.98A5,5 0 1 1 462.37,289.98A5,5 0 1 1 472.37,289.98Z" style="fill:#FF7AB4" />
<path d="M475.08,294.5A5,5 0 1 1 465.08,294.5A5,5 0 1 1 475.08,294.5Z" style="fill:#FF7AB4" />
<path d="M477.79,299.82A5,5 0 1 1 467.79,299.82A5,5 0 1 1 477.79,299.82Z" style="fill:#FF7AB4" />
<path d="M480.51,303.52A5,5 0 1 1 470.51,303.52A5,5 0 1 1 480.51,303.52Z" style="fill:#FF7AB4" />
<path d="M483.22,307.09A5,5 0 1 1 473.22,307.09A5,5 0 1 1 483.22,307.09Z" style="fill:#FF7AB4" />
<path d="M485.93,313.59A5,5 0 1 1 475.93,313.59A5,5 0 1 1 485.93,313.59Z" style="fill:#FF7AB4" />
<path d="M488.64,315.59A5,5 0 1 1 478.64,315.59A5,5 0 1 1 488.64,315.59Z" style="fill:#FF7AB4" />
<path d="M491.36,320.61A5,5 0 1 1 481.36,320.61A5,5 0 1 1 491.36,320.61Z" style="fill:#FF7AB4" />
<path d="M494.07,326.56A5,5 0 1 1 484.07,326.56A5,5 0 1 1 494.07,326.56Z" style="fill:#FF7AB4" />
<path d="M496.78,332.28A5,5 0 1 1 486.78,332.28A5,5 0 1 1 496.78,332.28Z" style="fill:#FF7AB4" />
<path d="M499.49,336.98A5,5 0 1 1 489.49,336.98A5,5 0 1 1 499.49,336.98Z" style="fill:#FF7AB4" />
<path d="M502.21,342.28A5,5 0 1 1 492.21,342.28A5,5 0 1 1 502.21,342.28Z" style="fill:#FF7AB4" />
<path d="M504.92,349.25A5,5 0 1 1 494.92,349.25A5,5 0 1 1 504.92,349.25Z" style="fill:#FF7AB4" />
<path d="M507.63,351.56A5,5 0 1 1 497.63,351.56A5,5 0 1 1 507.63,351.56Z" style="fill:#FF7AB4" />
<path d="M510.35,356.68A5,5 0 1 1 500.35,356.68A5,5 0 1 1 510.35,356.68Z" style="fill:#FF7AB4" />
<path d="M513.06,364.84A5,5 0 1 1 503.06,364.84A5,5 0 1 1 513.06,364.84Z" style="fill:#FF7AB4" />
<path d="M515.77,365.72A5,5 0 1 1 505.77,365.72A5,5 0 1 1 515.77,365.72Z" style="fill:#FF7AB4" />
<path d="M518.48,372.93A5,5 0 1 1 508.48,372.93A5,5 0 1 1 518.48,372.93Z" style="fill:#FF7AB4" />
<path d="M521.2,382.89A5,5 0 1 1 511.2,382.89A5,5 0 1 1 521.2,382.89Z" style="fill:#FF7AB4" />
<path d="M523.91,386.01A5,5 0 1 1 513.91,386.01A5,5 0 1 1 523.91,386.01Z" style="fill:#FF7AB4" />
<path d="M526.62,390.69A5,5 0 1 1 516.62,390.69A5,5 0 1 1 526.62,390.69Z" style="fill:#FF7AB4" />
<path d="M529.33,397.1A5,5 0 1 1 519.33,397.1A5,5 0 1 1 529.33,397.1Z" style="fill:#FF7AB4" />
<path d="M532.05,402.53A5,5 0 1 1 522.05,402.53A5,5 0 1 1 532.05,402.53Z" style="fill:#FF7AB4" />
<path d="M534.76,411.02A5,5 0 1 1 524.76,411.02A5,5 0 1 1 534.76,411.02Z" style="fill:#FF7AB4" />
<path d="M537.47,416.29A5,5 0 1 1 527.47,416.29A5,5 0 1 1 537.47,416.29Z" style="fill:#FF7AB4" />
<path d="M540.18,422.54A5,5 0 1 1 530.18,422.54A5,5 0 1 1 540.18,422.54Z" style="fill:#FF7AB4" />
<path d="M542.9,428.43A5,5 0 1 1 532.9,428.43A5,5 0 1 1 542.9,428.43Z" style="fill:#FF7AB4" />
<path d="M545.61,434.3A5,5 0 1 1 535.61,434.3A5,5 0 1 1 545.61,434.3Z" style="fill:#FF7AB4" />
<path d="M548.32,444.54A5,5 0 1 1 538.32,444.54A5,5 0 1 1 548.32,444.54Z" style="fill:#FF7AB4" />
<path d="M551.04,450.99A5,5 0 1 1 541.04,450.99A5,5 0 1 1 551.04,450.99Z" style="fill:#FF7AB4" />
<path d="M553.75,466.27A5,5 0 1 1 543.75,466.27A5,5 0 1 1 553.75,466.27Z" style="fill:#FF7AB4" />
<path d="M556.46,464.42A5,5 0 1 1 546.46,464.42A5,5 0 1 1 556.46,464.42Z" style="fill:#FF7AB4" />
<path d="M559.17,476.21A5,5 0 1 1 549.17,476.21A5,5 0 1 1 559.17,476.21Z" style="fill:#FF7AB4" />
<path d="M561.89,482.01A5,5 0 1 1 551.89,482.01A5,5 0 1 1 561.89,482.01Z" style="fill:#FF7AB4" />
<path d="M564.6,492.99A5,5 0 1 1 554.6,492.99A5,5 0 1 1 564.6,492.99Z" style="fill:#FF7AB4" />
<path d="M567.31,499.35A5,5 0 1 1 557.31,499.35A5,5 0 1 1 567.31,499.35Z" style="fill:#FF7AB4" />
<path d="M570.02,510.73A5,5 0 1 1 560.02,510.73A5,5 0 1 1 570.02,510.73Z" style="fill:#FF7AB4" />
<path d="M572.74,517.34A5,5 0 1 1 562.74,517.34A5,5 0 1 1 572.74,517.34Z" style="fill:#FF7AB4" />
<path d="M575.45,527.64A5,5 0 1 1 565.45,527.64A5,5 0 1 1 575.45,527.64Z" style="fill:#FF7AB4" />
<path d="M578.16,536.62A5,5 0 1 1 568.16,536.62A5,5 0 1 1 578.16,536.62Z" style="fill:#FF7AB4" />
<path d="M580.87,547.03A5,5 0 1 1 570.87,547.03A5,5 0 1 1 580.87,547.03Z" style="fill:#FF7AB4" />
<path d="M583.59,552.54A5,5 0 1 1 573.59,552.54A5,5 0 1 1 583.59,552.54Z" style="fill:#FF7AB4" />
<path d="M586.3,560.9A5,5 0 1 1 576.3,560.9A5,5 0 1 1 586.3,560.9Z" style="fill:#FF7AB4" />
<path d="M589.01,574.39A5,5 0 1 1 579.01,574.39A5,5 0 1 1 589.01,574.39Z" style="fill:#FF7AB4" />
<path d="M591.72,579.58A5,5 0 1 1 581.72,579.58A5,5 0 1 1 591.72,579.58Z" style="fill:#FF7AB4" />
<path d="M594.44,590.02A5,5 0 1 1 584.44,590.02A5,5 0 1 1 594.44,590.02Z" style="fill:#FF7AB4" />
<path d="M597.15,600.16A5,5 0 1 1 587.15,600.16A5,5 0 1 1 597.15,600.16Z" style="fill:#FF7AB4" />
<path d="M599.86,611.12A5,5 0 1 1 589.86,611.12A5,5 0 1 1 599.86,611.12Z" style="fill:#FF7AB4" />
<path d="M602.58,619.19A5,5 0 1 1 592.58,619.19A5,5 0 1 1 602.58,619.19Z" style="fill:#FF7AB4" />
<path d="M605.29,628.46A5,5 0 1 1 595.29,628.46A5,5 0 1 1 605.29,628.46Z" style="fill:#FF7AB4" />
<path d="M608,636.63A5,5 0 1 1 598,636.63A5,5 0 1 1 608,636.63Z" style="fill:#FF7AB4" />
<path d="M610.71,643.92A5,5 0 1 1 600.71,643.92A5,5 0 1 1 610.71,643.92Z" style="fill:#FF7AB4" />
<path d="M613.43,648.9A5,5 0 1 1 603.43,648.9A5,5 0 1 1 613.43,648.9Z" style="fill:#FF7AB4" />
<path d="M616.14,657.78A5,5 0 1 1 606.14,657.78A5,5 0 1 1 616.14,657.78Z" style="fill:#FF7AB4" />
<path d="M618.85,660.58A5,5 0 1 1 608.85,660.58A5,5 0 1 1 618.85,660.58Z" style="fill:#FF7AB4" />
<path d="M621.56,665.68A5,5 0 1 1 611.56,665.68A5,5 0 1 1 621.56,665.68Z" style="fill:#FF7AB4" />
<path d="M624.28,675.23A5,5 0 1 1 614.28,675.23A5,5 0 1 1 624.28,675.23Z" style="fill:#FF7AB4" />
<path d="M626.99,674.71A5,5 0 1 1 616.99,674.71A5,5 0 1 1 626.99,674.71Z" style="fill:#FF7AB4" />
<path d="M629.7,675.93A5,5 0 1 1 619.7,675.93A5,5 0 1 1 629.7,675.93Z" style="fill:#FF7AB4" />
<path d="M632.41,680.32A5,5 0 1 1 622.41,680.32A5,5 0 1 1 632.41,680.32Z" style="fill:#FF7AB4" />
<path d="M635.13,685.47A5,5 0 1 1 625.13,685.47A5,5 0 1 1 635.13,685.47Z" style="fill:#FF7AB4" />
<path d="M637.84,686.93A5,5 0 1 1 627.84,686.93A5,5 0 1 1 637.84,686.93Z" style="fill:#FF7AB4" />
<path d="M640.55,680A5,5 0 1 1 630.55,680A5,5 0 1 1 640.55,680Z" style="fill:#FF7AB4" />
<path d="M643.26,679.74A5,5 0 1 1 633.26,679.74A5,5 0 1 1 643.26,679.74Z" style="fill:#FF7AB4" />
<path d="M645.98,682.89A5,5 0 1 1 635.98,682.89A5,5 0 1 1 645.98,682.89Z" style="fill:#FF7AB4" />
<path d="M648.69,674.31A5,5 0 1 1 638.69,674.31A5,5 0 1 1 648.69,674.31Z" style="fill:#FF7AB4" />
<path d="M651.4,669.54A5,5 0 1 1 641.4,669.54A5,5 0 1 1 651.4,669.54Z" style="fill:#FF7AB4" />
<path d="M654.12,661.47A5,5 0 1 1 644.12,661.47A5,5 0 1 1 654.12,661.47Z" style="fill:#FF7AB4" />
<path d="M656.83,660.95A5,5 0 1 1 646.83,660.95A5,5 0 1 1 656.83,660.95Z" style="fill:#FF7AB4" />
<path d="M659.54,644.96A5,5 0 1 1 649.54,644.96A5,5 0 1 1 659.54,644.96Z" style="fill:#FF7AB4" />
<path d="M662.25,643.71A5,5 0 1 1 652.25,643.71A5,5 0 1 1 662.25,643.71Z" style="fill:#FF7AB4" />
<path d="M664.97,632.3A5,5 0 1 1 654.97,632.3A5,5 0 1 1 664.97,632.3Z" style="fill:#FF7AB4" />
<path d="M667.68,625.37A5,5 0 1 1 657.68,625.37A5,5 0 1 1 667.68,625.37Z" style="fill:#FF7AB4" />
<path d="M670.39,609.39A5,5 0 1 1 660.39,609.39A5,5 0 1 1 670.39,609.39Z" style="fill:#FF7AB4" />
<path d="M673.1,603.46A5,5 0 1 1 663.1,603.46A5,5 0 1 1 673.1,603.46Z" style="fill:#FF7AB4" />
<path d="M675.82,593.86A5,5 0 1 1 665.82,593.86A5,5 0 1 1 675.82,593.86Z" style="fill:#FF7AB4" />
<path d="M678.53,583.99A5,5 0 1 1 668.53,583.99A5,5 0 1 1 678.53,583.99Z" style="fill:#FF7AB4" />
<path d="M681.24,565.03A5,5 0 1 1 671.24,565.03A5,5 0 1 1 681.24,565.03Z" style="fill:#FF7AB4" />
<path d="M683.95,551.85A5,5 0 1 1 673.95,551.85A5,5 0 1 1 683.95,551.85Z" style="fill:#FF7AB4" />
<path d="M686.67,545.67A5,5 0 1 1 676.67,545.67A5,5 0 1 1 686.67,545.67Z" style="fill:#FF7AB4" />
<path d="M689.38,529.85A5,5 0 1 1 679.38,529.85A5,5 0 1 1 689.38,529.85Z" style="fill:#FF7AB4" />
<path d="M692.09,519.83A5,5 0 1 1 682.09,519.83A5,5 0 1 1 692.09,519.83Z" style="fill:#FF7AB4" />
<path d="M694.81,507.26A5,5 0 1 1 684.81,507.26A5,5 0 1 1 694.81,507.26Z" style="fill:#FF7AB4" />
<path d="M697.52,493.38A5,5 0 1 1 687.52,493.38A5,5 0 1 1 697.52,493.38Z" style="fill:#FF7AB4" />
<path d="M700.23,479.18A5,5 0 1 1 690.23,479.18A5,5 0 1 1 700.23,479.18Z" style="fill:#FF7AB4" />
<path d="M702.94,469.31A5,5 0 1 1 692.94,469.31A5,5 0 1 1 702.94,469.31Z" style="fill:#FF7AB4" />
<path d="M705.66,456.94A5,5 0 1 1 695.66,456.94A5,5 0 1 1 705.66,456.94Z" style="fill:#FF7AB4" />
<path d="M708.37,446.58A5,5 0 1 1 698.37,446.58A5,5 0 1 1 708.37,446.58Z" style="fill:#FF7AB4" />
<path d="M711.08,430.87A5,5 0 1 1 701.08,430.87A5,5 0 1 1 711.08,430.87Z" style="fill:#FF7AB4" />
<path d="M713.79,421.08A5,5 0 1 1 703.79,421.08A5,5 0 1 1 713.79,421.08Z" style="fill:#FF7AB4" />
<path d="M716.51,409.86A5,5 0 1 1 706.51,409.86A5,5 0 1 1 716.51,409.86Z" style="fill:#FF7AB4" />
<path d="M719.22,397.61A5,5 0 1 1 709.22,397.61A5,5 0 1 1 719.22,397.61Z" style="fill:#FF7AB4" />
<path d="M721.93,388.98A5,5 0 1 1 711.93,388.98A5,5 0 1 1 721.93,388.98Z" style="fill:#FF7AB4" />
<path d="M724.64,379.39A5,5 0 1 1 714.64,379.39A5,5 0 1 1 724.64,379.39Z" style="fill:#FF7AB4" />
<path d="M727.36,369.47A5,5 0 1 1 717.36,369.47A5,5 0 1 1 727.36,369.47Z" style="fill:#FF7AB4" />
<path d="M730.07,361.33A5,5 0 1 1 720.07,361.33A5,5 0 1 1 730.07,361.33Z" style="fill:#FF7AB4" />
<path d="M732.78,352.18A5,5 0 1 1 722.78,352.18A5,5 0 1 1 732.78,352.18Z" style="fill:#FF7AB4" />
<path d="M735.49,342.53A5,5 0 1 1 725.49,342.53A5,5 0 1 1 735.49,342.53Z" style="fill:#FF7AB4" />
<path d="M738.21,332.26A5,5 0 1 1 728.21,332.26A5,5 0 1 1 738.21,332.26Z" style="fill:#FF7AB4" />
<path d="M740.92,322.01A5,5 0 1 1 730.92,322.01A5,5 0 1 1 740.92,322.01Z" style="fill:#FF7AB4" />
<path d="M743.63,309.81A5,5 0 1 1 733.63,309.81A5,5 0 1 1 743.63,309.81Z" style="fill:#FF7AB4" />
<path d="M746.35,307.85A5,5 0 1 1 736.35,307.85A5,5 0 1 1 746.35,307.85Z" style="fill:#FF7AB4" />
<path d="M749.06,301.07A5,5 0 1 1 739.06,301.07A5,5 0 1 1 749.06,301.07Z" style="fill:#FF7AB4" />
<path d="M751.77,290.99A5,5 0 1 1 741.77,290.99A5,5 0 1 1 751.77,290.99Z" style="fill:#FF7AB4" />
<path d="M754.48,284.79A5,5 0 1 1 744.48,284.79A5,5 0 1 1 754.48,284.79Z" style="fill:#FF7AB4" />
<path d="M757.2,281.28A5,5 0 1 1 747.2,281.28A5,5 0 1 1 757.2,281.28Z" style="fill:#FF7AB4" />
<path d="M759.91,275.28A5,5 0 1 1 749.91,275.28A5,5 0 1 1 759.91,275.28Z" style="fill:#FF7AB4" />
<path d="M762.62,265.54A5,5 0 1 1 752.62,265.54A5,5 0 1 1 762.62,265.54Z" style="fill:#FF7AB4" />
<path d="M765.33,258.3A5,5 0 1 1 755.33,258.3A5,5 0 1 1 765.33,258.3Z" style="fill:#FF7AB4" />
<path d="M768.05,250.3A5,5 0 1 1 758.05,250.3A5,5 0 1 1 768.05,250.3Z" style="fill:#FF7AB4" />
<path d="M770.76,242.34A5,5 0 1 1 760.76,242.34A5,5 0 1 1 770.76,242.34Z" style="fill:#FF7AB4" />
<path d="M773.47,241.4A5,5 0 1 1 763.47,241.4A5,5 0 1 1 773.47,241.4Z" style="fill:#FF7AB4" />
<path d="M776.18,234.44A5,5 0 1 1 766.18,234.44A5,5 0 1 1 776.18,234.44Z" style="fill:#FF7AB4" />
<path d="M778.9,230.5A5,5 0 1 1 768.9,230.5A5,5 0 1 1 778.9,230.5Z" style="fill:#FF7AB4" />
<path d="M781.61,223.76A5,5 0 1 1 771.61,223.76A5,5 0 1 1 781.61,223.76Z" style="fill:#FF7AB4" />
<path d="M784.32,221.13A5,5 0 1 1 774.32,221.13A5,5 0 1 1 784.32,221.13Z" style="fill:#FF7AB4" />
<path d="M787.03,215.19A5,5 0 1 1 777.03,215.19A5,5 0 1 1 787.03,215.19Z" style="fill:#FF7AB4" />
<path d="M789.75,210.34A5,5 0 1 1 779.75,210.34A5,5 0 1 1 789.75,210.34Z" style="fill:#FF7AB4" />
<path d="M792.46,205.92A5,5 0 1 1 782.46,205.92A5,5 0 1 1 792.46,205.92Z" style="fill:#FF7AB4" />
<path d="M795.17,202.79A5,5 0 1 1 785.17,202.79A5,5 0 1 1 795.17,202.79Z" style="fill:#FF7AB4" />
<path d="M797.89,195.95A5,5 0 1 1 787.89,195.95A5,5 0 1 1 797.89,195.95Z" style="fill:#FF7AB4" />
<path d="M800.6,196.5A5,5 0 1 1 790.6,196.5A5,5 0 1 1 800.6,196.5Z" style="fill:#FF7AB4" />
<path d="M803.31,187.3A5,5 0 1 1 793.31,187.3A5,5 0 1 1 803.31,187.3Z" style="fill:#FF7AB4" />
<path d="M806.02,186.43A5,5 0 1 1 796.02,186.43A5,5 0 1 1 806.02,186.43Z" style="fill:#FF7AB4" />
<path d="M808.74,182.83A5,5 0 1 1 798.74,182.83A5,5 0 1 1 808.74,182.83Z" style="fill:#FF7AB4" />
<path d="M811.45,180.88A5,5 0 1 1 801.45,180.88A5,5 0 1 1 811.45,180.88Z" style="fill:#FF7AB4" />
<path d="M814.16,177.22A5,5 0 1 1 804.16,177.22A5,5 0 1 1 814.16,177.22Z" style="fill:#FF7AB4" />
<path d="M816.87,173.31A5,5 0 1 1 806.87,173.31A5,5 0 1 1 816.87,173.31Z" style="fill:#FF7AB4" />
<path d="M819.59,171.05A5,5 0 1 1 809.59,171.05A5,5 0 1 1 819.59,171.05Z" style="fill:#FF7AB4" />
<path d="M822.3,169.79A5,5 0 1 1 812.3,169.79A5,5 0 1 1 822.3,169.79Z" style="fill:#FF7AB4" />
<path d="M825.01,166.38A5,5 0 1 1 815.01,166.38A5,5 0 1 1 825.01,166.38Z" style="fill:#FF7AB4" />
<path d="M827.72,161.81A5,5 0 1 1 817.72,161.81A5,5 0 1 1 827.72,161.81Z" style="fill:#FF7AB4" />
<path d="M830.44,161.63A5,5 0 1 1 820.44,161.63A5,5 0 1 1 830.44,161.63Z" style="fill:#FF7AB4" />
<path d="M833.15,158.71A5,5 0 1 1 823.15,158.71A5,5 0 1 1 833.15,158.71Z" style="fill:#FF7AB4" />
<path d="M835.86,157.69A5,5 0 1 1 825.86,157.69A5,5 0 1 1 835.86,157.69Z" style="fill:#FF7AB4" />
<path d="M838.58,154.67A5,5 0 1 1 828.58,154.67A5,5 0 1 1 838.58,154.67Z" style="fill:#FF7AB4" />
<path d="M841.29,152.56A5,5 0 1 1 831.29,152.56A5,5 0 1 1 841.29,152.56Z" style="fill:#FF7AB4" />
<path d="M844,150.94A5,5 0 1 1 834,150.94A5,5 0 1 1 844,150.94Z" style="fill:#FF7AB4" />
<path d="M846.71,149.26A5,5 0 1 1 836.71,149.26A5,5 0 1 1 846.71,149.26Z" style="fill:#FF7AB4" />
<path d="M849.43,145.46A5,5 0 1 1 839.43,145.46A5,5 0 1 1 849.43,145.46Z" style="fill:#FF7AB4" />
<path d="M852.14,145.43A5,5 0 1 1 842.14,145.43A5,5 0 1 1 852.14,145.43Z" style="fill:#FF7AB4" />
<path d="M854.85,142.45A5,5 0 1 1 844.85,142.45A5,5 0 1 1 854.85,142.45Z" style="fill:#FF7AB4" />
<path d="M857.56,141.23A5,5 0 1 1 847.56,141.23A5,5 0 1 1 857.56,141.23Z" style="fill:#FF7AB4" />
<path d="M860.28,140.52A5,5 0 1 1 850.28,140.52A5,5 0 1 1 860.28,140.52Z" style="fill:#FF7AB4" />
<path d="M862.99,137.94A5,5 0 1 1 852.99,137.94A5,5 0 1 1 862.99,137.94Z" style="fill:#FF7AB4" />
<path d="M865.7,136.43A5,5 0 1 1 855.7,136.43A5,5 0 1 1 865.7,136.43Z" style="fill:#FF7AB4" />
<path d="M868.41,134.03A5,5 0 1 1 858.41,134.03A5,5 0 1 1 868.41,134.03Z" style="fill:#FF7AB4" />
<path d="M871.13,134.65A5,5 0 1 1 861.13,134.65A5,5 0 1 1 871.13,134.65Z" style="fill:#FF7AB4" />
<path d="M873.84,130.99A5,5 0 1 1 863.84,130.99A5,5 0 1 1 873.84,130.99Z" style="fill:#FF7AB4" />
<path d="M876.55,132.12A5,5 0 1 1 866.55,132.12A5,5 0 1 1 876.55,132.12Z" style="fill:#FF7AB4" />
<path d="M879.26,128.56A5,5 0 1 1 869.26,128.56A5,5 0 1 1 879.26,128.56Z" style="fill:#FF7AB4" />
<path d="M881.98,127.84A5,5 0 1 1 871.98,127.84A5,5 0 1 1 881.98,127.84Z" style="fill:#FF7AB4" />
<path d="M884.69,127.92A5,5 0 1 1 874.69,127.92A5,5 0 1 1 884.69,127.92Z" style="fill:#FF7AB4" />
<path d="M887.4,127.75A5,5 0 1 1 877.4,127.75A5,5 0 1 1 887.4,127.75Z" style="fill:#FF7AB4" />
<path d="M890.12,126.39A5,5 0 1 1 880.12,126.39A5,5 0 1 1 890.12,126.39Z" style="fill:#FF7AB4" />
<path d="M892.83,125.37A5,5 0 1 1 882.83,125.37A5,5 0 1 1 892.83,125.37Z" style="fill:#FF7AB4" />
<path d="M895.54,124.61A5,5 0 1 1 885.54,124.61A5,5 0 1 1 895.54,124.61Z" style="fill:#FF7AB4" />
<path d="M898.25,120.66A5,5 0 1 1 888.25,120.66A5,5 0 1 1 898.25,120.66Z" style="fill:#FF7AB4" />
<path d="M900.97,120.23A5,5 0 1 1 890.97,120.23A5,5 0 1 1 900.97,120.23Z" style="fill:#FF7AB4" />
<path d="M903.68,120.37A5,5 0 1 1 893.68,120.37A5,5 0 1 1 903.68,120.37Z" style="fill:#FF7AB4" />
<path d="M906.39,119.02A5,5 0 1 1 896.39,119.02A5,5 0 1 1 906.39,119.02Z" style="fill:#FF7AB4" />
<path d="M909.1,119.07A5,5 0 1 1 899.1,119.07A5,5 0 1 1 909.1,119.07Z" style="fill:#FF7AB4" />
<path d="M911.82,117.64A5,5 0 1 1 901.82,117.64A5,5 0 1 1 911.82,117.64Z" style="fill:#FF7AB4" />
<path d="M914.53,117.66A5,5 0 1 1 904.53,117.66A5,5 0 1 1 914.53,117.66Z" style="fill:#FF7AB4" />
<path d="M917.24,115.32A5,5 0 1 1 907.24,115.32A5,5 0 1 1 917.24,115.32Z" style="fill:#FF7AB4" />
<path d="M919.95,114.92A5,5 0 1 1 909.95,114.92A5,5 0 1 1 919.95,114.92Z" style="fill:#FF7AB4" />
<path d="M922.67,114.53A5,5 0 1 1 912.67,114.53A5,5 0 1 1 922.67,114.53Z" style="fill:#FF7AB4" />
<path d="M925.38,113.58A5,5 0 1 1 915.38,113.58A5,5 0 1 1 925.38,113.58Z" style="fill:#FF7AB4" />
<path d="M928.09,113.15A5,5 0 1 1 918.09,113.15A5,5 0 1 1 928.09,113.15Z" style="fill:#FF7AB4" />
<path d="M930.8,112.62A5,5 0 1 1 920.8,112.62A5,5 0 1 1 930.8,112.62Z" style="fill:#FF7AB4" />
<path d="M933.52,112.31A5,5 0 1 1 923.52,112.31A5,5 0 1 1 933.52,112.31Z" style="fill:#FF7AB4" />
<path d="M936.23,111.63A5,5 0 1 1 926.23,111.63A5,5 0 1 1 936.23,111.63Z" style="fill:#FF7AB4" />
<path d="M938.94,110.6A5,5 0 1 1 928.94,110.6A5,5 0 1 1 938.94,110.6Z" style="fill:#FF7AB4" />
<path d="M941.66,110.61A5,5 0 1 1 931.66,110.61A5,5 0 1 1 941.66,110.61Z" style="fill:#FF7AB4" />
<path d="M944.37,109.02A5,5 0 1 1 934.37,109.02A5,5 0 1 1 944.37,109.02Z" style="fill:#FF7AB4" />
<path d="M947.08,108.47A5,5 0 1 1 937.08,108.47A5,5 0 1 1 947.08,108.47Z" style="fill:#FF7AB4" />
<path d="M949.79,108.25A5,5 0 1 1 939.79,108.25A5,5 0 1 1 949.79,108.25Z" style="fill:#FF7AB4" />
<path d="M952.51,108.01A5,5 0 1 1 942.51,108.01A5,5 0 1 1 952.51,108.01Z" style="fill:#FF7AB4" />
<path d="M955.22,106.62A5,5 0 1 1 945.22,106.62A5,5 0 1 1 955.22,106.62Z" style="fill:#FF7AB4" />
<path d="M957.93,107.7A5,5 0 1 1 947.93,107.7A5,5 0 1 1 957.93,107.7Z" style="fill:#FF7AB4" />
<path d="M960.64,107.54A5,5 0 1 1 950.64,107.54A5,5 0 1 1 960.64,107.54Z" style="fill:#FF7AB4" />
<path d="M963.36,106.71A5,5 0 1 1 953.36,106.71A5,5 0 1 1 963.36,106.71Z" style="fill:#FF7AB4" />
<path d="M966.07,106.47A5,5 0 1 1 956.07,106.47A5,5 0 1 1 966.07,106.47Z" style="fill:#FF7AB4" />
<path d="M968.78,107.05A5,5 0 1 1 958.78,107.05A5,5 0 1 1 968.78,107.05Z" style="fill:#FF7AB4" />
<path d="M971.49,105.17A5,5 0 1 1 961.49,105.17A5,5 0 1 1 971.49,105.17Z" style="fill:#FF7AB4" />
<path d="M974.21,103.76A5,5 0 1 1 964.21,103.76A5,5 0 1 1 974.21,103.76Z" style="fill:#FF7AB4" />
<path d="M976.92,104.73A5,5 0 1 1 966.92,104.73A5,5 0 1 1 976.92,104.73Z" style="fill:#FF7AB4" />
<path d="M979.63,103.85A5,5 0 1 1 969.63,103.85A5,5 0 1 1 979.63,103.85Z" style="fill:#FF7AB4" />
<path d="M982.34,103.91A5,5 0 1 1 972.34,103.91A5,5 0 1 1 982.34,103.91Z" style="fill:#FF7AB4" />
<path d="M985.06,103.83A5,5 0 1 1 975.06,103.83A5,5 0 1 1 985.06,103.83Z" style="fill:#FF7AB4" />
<path d="M987.77,101.43A5,5 0 1 1 977.77,101.43A5,5 0 1 1 987.77,101.43Z" style="fill:#FF7AB4" />
<path d="M990.48,102.37A5,5 0 1 1 980.48,102.37A5,5 0 1 1 990.48,102.37Z" style="fill:#FF7AB4" />
<path d="M993.2,101.89A5,5 0 1 1 983.2,101.89A5,5 0 1 1 993.2,101.89Z" style="fill:#FF7AB4" />
<path d="M995.91,102.37A5,5 0 1 1 985.91,102.37A5,5 0 1 1 995.91,102.37Z" style="fill:#FF7AB4" />
<path d="M998.62,100.56A5,5 0 1 1 988.62,100.56A5,5 0 1 1 998.62,100.56Z" style="fill:#FF7AB4" />
<path d="M1001.3,100.15A5,5 0 1 1 991.33,100.15A5,5 0 1 1 1001.3,100.15Z" style="fill:#FF7AB4" />
<path d="M1004,100.86A5,5 0 1 1 994.05,100.86A5,5 0 1 1 1004,100.86Z" style="fill:#FF7AB4" />
<path d="M1006.8,100.58A5,5 0 1 1 996.76,100.58A5,5 0 1 1 1006.8,100.58Z" style="fill:#FF7AB4" />
<path d="M1009.5,99.561A5,5 0 1 1 999.47,99.561A5,5 0 1 1 1009.5,99.561Z" style="fill:#FF7AB4" />
<path d="M1012.2,100.08A5,5 0 1 1 1002.2,100.08A5,5 0 1 1 1012.2,100.08Z" style="fill:#FF7AB4" />
<path d="M1014.9,99.98A5,5 0 1 1 1004.9,99.98A5,5 0 1 1 1014.9,99.98Z" style="fill:#FF7AB4" />
<path d="M1017.6,99.852A5,5 0 1 1 1007.6,99.852A5,5 0 1 1 1017.6,99.852Z" style="fill:#FF7AB4" />
<path d="M1020.3,98.426A5,5 0 1 1 1010.3,98.426A5,5 0 1 1 1020.3,98.426Z" style="fill:#FF7AB4" />
<path d="M1023,98.26A5,5 0 1 1 1013,98.26A5,5 0 1 1 1023,98.26Z" style="fill:#FF7AB4" />
<path d="M1025.7,97.104A5,5 0 1 1 1015.7,97.104A5,5 0 1 1 1025.7,97.104Z" style="fill:#FF7AB4" />
<path d="M1028.5,97.921A5,5 0 1 1 1018.5,97.921A5,5 0 1 1 1028.5,97.921Z" style="fill:#FF7AB4" />
<path d="M1031.2,97.533A5,5 0 1 1 1021.2,97.533A5,5 0 1 1 1031.2,97.533Z" style="fill:#FF7AB4" />
<path d="M1033.9,97.21A5,5 0 1 1 1023.9,97.21A5,5 0 1 1 1033.9,97.21Z" style="fill:#FF7AB4" />
<path d="M1036.6,97.169A5,5 0 1 1 1026.6,97.169A5,5 0 1 1 1036.6,97.169Z" style="fill:#FF7AB4" />
<path d="M1039.3,98.127A5,5 0 1 1 1029.3,98.127A5,5 0 1 1 1039.3,98.127Z" style="fill:#FF7AB4" />
<path d="M1042,97.895A5,5 0 1 1 1032,97.895A5,5 0 1 1 1042,97.895Z" style="fill:#FF7AB4" />
<path d="M1044.7,96.752A5,5 0 1 1 1034.7,96.752A5,5 0 1 1 1044.7,96.752Z" style="fill:#FF7AB4" />
<path d="M1047.4,96.264A5,5 0 1 1 1037.4,96.264A5,5 0 1 1 1047.4,96.264Z" style="fill:#FF7AB4" />
<path d="M1050.2,97.483A5,5 0 1 1 1040.2,97.483A5,5 0 1 1 1050.2,97.483Z" style="fill:#FF7AB4" />
<path d="M1052.9,95.895A5,5 0 1 1 1042.9,95.895A5,5 0 1 1 1052.9,95.895Z" style="fill:#FF7AB4" />
<path d="M1055.6,95.222A5,5 0 1 1 1045.6,95.222A5,5 0 1 1 1055.6,95.222Z" style="fill:#FF7AB4" />
<path d="M1058.3,94.937A5,5 0 1 1 1048.3,94.937A5,5 0 1 1 1058.3,94.937Z" style="fill:#FF7AB4" />
<path d="M1061,95.87A5,5 0 1 1 1051,95.87A5,5 0 1 1 1061,95.87Z" style="fill:#FF7AB4" />
<path d="M1063.7,95.005A5,5 0 1 1 1053.7,95.005A5,5 0 1 1 1063.7,95.005Z" style="fill:#FF7AB4" />
<path d="M1066.4,94.914A5,5 0 1 1 1056.4,94.914A5,5 0 1 1 1066.4,94.914Z" style="fill:#FF7AB4" />
<path d="M1069.1,94.455A5,5 0 1 1 1059.1,94.455A5,5 0 1 1 1069.1,94.455Z" style="fill:#FF7AB4" />
<path d="M1071.9,95.786A5,5 0 1 1 1061.9,95.786A5,5 0 1 1 1071.9,95.786Z" style="fill:#FF7AB4" />
<path d="M1074.6,94.435A5,5 0 1 1 1064.6,94.435A5,5 0 1 1 1074.6,94.435Z" style="fill:#FF7AB4" />
<path d="M1077.3,93.733A5,5 0 1 1 1067.3,93.733A5,5 0 1 1 1077.3,93.733Z" style="fill:#FF7AB4" />
<path d="M1080,94.21A5,5 0 1 1 1070,94.21A5,5 0 1 1 1080,94.21Z" style="fill:#FF7AB4" />
<path d="M101.16,1029.1L1075,1029.1" style="fill:none;stroke:#000000;stroke-width:2.5" />
<path d="M1075,75.531L1075,1029.1" style="fill:none;stroke:#000000;stroke-width:2.5" />
<path d="M106.16,122.53A5,5 0 1 1 96.162,122.53A5,5 0 1 1 106.16,122.53Z" style="fill:#7A9CFF" />
<path d="M108.87,123.76A5,5 0 1 1 98.875,123.76A5,5 0 1 1 108.87,123.76Z" style="fill:#7A9CFF" />
<path d="M111.59,124.69A5,5 0 1 1 101.59,124.69A5,5 0 1 1 111.59,124.69Z" style="fill:#7A9CFF" />
<path d="M114.3,125.57A5,5 0 1 1 104.3,125.57A5,5 0 1 1 114.3,125.57Z" style="fill:#7A9CFF" />
<path d="M117.01,125.08A5,5 0 1 1 107.01,125.08A5,5 0 1 1 117.01,125.08Z" style="fill:#7A9CFF" />
<path d="M119.73,125.99A5,5 0 1 1 109.73,125.99A5,5 0 1 1 119.73,125.99Z" style="fill:#7A9CFF" />
<path d="M122.44,126.74A5,5 0 1 1 112.44,126.74A5,5 0 1 1 122.44,126.74Z" style="fill:#7A9CFF" />
<path d="M125.15,127.46A5,5 0 1 1 115.15,127.46A5,5 0 1 1 125.15,127.46Z" style="fill:#7A9CFF" />
<path d="M127.86,127.56A5,5 0 1 1 117.86,127.56A5,5 0 1 1 127.86,127.56Z" style="fill:#7A9CFF" />
<path d="M130.58,127.85A5,5 0 1 1 120.58,127.85A5,5 0 1 1 130.58,127.85Z" style="fill:#7A9CFF" />
<path d="M133.29,128.35A5,5 0 1 1 123.29,128.35A5,5 0 1 1 133.29,128.35Z" style="fill:#7A9CFF" />
<path d="M136,129.56A5,5 0 1 1 126,129.56A5,5 0 1 1 136,129.56Z" style="fill:#7A9CFF" />
<path d="M138.71,130.43A5,5 0 1 1 128.71,130.43A5,5 0 1 1 138.71,130.43Z" style="fill:#7A9CFF" />
<path d="M141.43,131.09A5,5 0 1 1 131.43,131.09A5,5 0 1 1 141.43,131.09Z" style="fill:#7A9CFF" />
<path d="M144.14,131.54A5,5 0 1 1 134.14,131.54A5,5 0 1 1 144.14,131.54Z" style="fill:#7A9CFF" />
<path d="M146.85,132.62A5,5 0 1 1 136.85,132.62A5,5 0 1 1 146.85,132.62Z" style="fill:#7A9CFF" />
<path d="M149.56,133.42A5,5 0 1 1 139.56,133.42A5,5 0 1 1 149.56,133.42Z" style="fill:#7A9CFF" />
<path d="M152.28,134.02A5,5 0 1 1 142.28,134.02A5,5 0 1 1 152.28,134.02Z" style="fill:#7A9CFF" />
<path d="M154.99,134.69A5,5 0 1 1 144.99,134.69A5,5 0 1 1 154.99,134.69Z" style="fill:#7A9CFF" />
<path d="M157.7,135.18A5,5 0 1 1 147.7,135.18A5,5 0 1 1 157.7,135.18Z" style="fill:#7A9CFF" />
<path d="M160.41,135.77A5,5 0 1 1 150.41,135.77A5,5 0 1 1 160.41,135.77Z" style="fill:#7A9CFF" />
<path d="M163.13,136.43A5,5 0 1 1 153.13,136.43A5,5 0 1 1 163.13,136.43Z" style="fill:#7A9CFF" />
<path d="M165.84,137.89A5,5 0 1 1 155.84,137.89A5,5 0 1 1 165.84,137.89Z" style="fill:#7A9CFF" />
<path d="M168.55,138.67A5,5 0 1 1 158.55,138.67A5,5 0 1 1 168.55,138.67Z" style="fill:#7A9CFF" />
<path d="M171.27,138.86A5,5 0 1 1 161.27,138.86A5,5 0 1 1 171.27,138.86Z" style="fill:#7A9CFF" />
<path d="M173.98,140.33A5,5 0 1 1 163.98,140.33A5,5 0 1 1 173.98,140.33Z" style="fill:#7A9CFF" />
<path d="M176.69,140.59A5,5 0 1 1 166.69,140.59A5,5 0 1 1 176.69,140.59Z" style="fill:#7A9CFF" />
<path d="M179.4,141.29A5,5 0 1 1 169.4,141.29A5,5 0 1 1 179.4,141.29Z" style="fill:#7A9CFF" />
<path d="M182.12,141.9A5,5 0 1 1 172.12,141.9A5,5 0 1 1 182.12,141.9Z" style="fill:#7A9CFF" />
<path d="M184.83,144.21A5,5 0 1 1 174.83,144.21A5,5 0 1 1 184.83,144.21Z" style="fill:#7A9CFF" />
<path d="M187.54,144.95A5,5 0 1 1 177.54,144.95A5,5 0 1 1 187.54,144.95Z" style="fill:#7A9CFF" />
<path d="M190.25,145.61A5,5 0 1 1 180.25,145.61A5,5 0 1 1 190.25,145.61Z" style="fill:#7A9CFF" />
<path d="M192.97,146.9A5,5 0 1 1 182.97,146.9A5,5 0 1 1 192.97,146.9Z" style="fill:#7A9CFF" />
<path d="M195.68,147.59A5,5 0 1 1 185.68,147.59A5,5 0 1 1 195.68,147.59Z" style="fill:#7A9CFF" />
<path d="M198.39,147.71A5,5 0 1 1 188.39,147.71A5,5 0 1 1 198.39,147.71Z" style="fill:#7A9CFF" />
<path d="M201.1,149.45A5,5 0 1 1 191.1,149.45A5,5 0 1 1 201.1,149.45Z" style="fill:#7A9CFF" />
<path d="M203.82,151.09A5,5 0 1 1 193.82,151.09A5,5 0 1 1 203.82,151.09Z" style="fill:#7A9CFF" />
<path d="M206.53,150.17A5,5 0 1 1 196.53,150.17A5,5 0 1 1 206.53,150.17Z" style="fill:#7A9CFF" />
<path d="M209.24,152.02A5,5 0 1 1 199.24,152.02A5,5 0 1 1 209.24,152.02Z" style="fill:#7A9CFF" />
<path d="M211.96,152.74A5,5 0 1 1 201.96,152.74A5,5 0 1 1 211.96,152.74Z" style="fill:#7A9CFF" />
<path d="M214.67,154.76A5,5 0 1 1 204.67,154.76A5,5 0 1 1 214.67,154.76Z" style="fill:#7A9CFF" />
<path d="M217.38,155.33A5,5 0 1 1 207.38,155.33A5,5 0 1 1 217.38,155.33Z" style="fill:#7A9CFF" />
<path d="M220.09,156.66A5,5 0 1 1 210.09,156.66A5,5 0 1 1 220.09,156.66Z" style="fill:#7A9CFF" />
<path d="M222.81,158.04A5,5 0 1 1 212.81,158.04A5,5 0 1 1 222.81,158.04Z" style="fill:#7A9CFF" />
<path d="M225.52,159.49A5,5 0 1 1 215.52,159.49A5,5 0 1 1 225.52,159.49Z" style="fill:#7A9CFF" />
<path d="M228.23,150.54A5,5 0 1 1 218.23,150.54A5,5 0 1 1 228.23,150.54Z" style="fill:#7A9CFF" />
<path d="M230.94,161.15A5,5 0 1 1 220.94,161.15A5,5 0 1 1 230.94,161.15Z" style="fill:#7A9CFF" />
<path d="M233.66,161.9A5,5 0 1 1 223.66,161.9A5,5 0 1 1 233.66,161.9Z" style="fill:#7A9CFF" />
<path d="M236.37,163.39A5,5 0 1 1 226.37,163.39A5,5 0 1 1 236.37,163.39Z" style="fill:#7A9CFF" />
<path d="M239.08,164.69A5,5 0 1 1 229.08,164.69A5,5 0 1 1 239.08,164.69Z" style="fill:#7A9CFF" />
<path d="M241.79,165.48A5,5 0 1 1 231.79,165.48A5,5 0 1 1 241.79,165.48Z" style="fill:#7A9CFF" />
<path d="M244.51,166.45A5,5 0 1 1 234.51,166.45A5,5 0 1 1 244.51,166.45Z" style="fill:#7A9CFF" />
<path d="M247.22,168.39A5,5 0 1 1 237.22,168.39A5,5 0 1 1 247.22,168.39Z" style="fill:#7A9CFF" />
<path d="M249.93,169.81A5,5 0 1 1 239.93,169.81A5,5 0 1 1 249.93,169.81Z" style="fill:#7A9CFF" />
<path d="M252.64,172A5,5 0 1 1 242.64,172A5,5 0 1 1 252.64,172Z" style="fill:#7A9CFF" />
<path d="M255.36,172.7A5,5 0 1 1 245.36,172.7A5,5 0 1 1 255.36,172.7Z" style="fill:#7A9CFF" />
<path d="M258.07,173.94A5,5 0 1 1 248.07,173.94A5,5 0 1 1 258.07,173.94Z" style="fill:#7A9CFF" />
<path d="M260.78,175.76A5,5 0 1 1 250.78,175.76A5,5 0 1 1 260.78,175.76Z" style="fill:#7A9CFF" />
<path d="M263.5,176.42A5,5 0 1 1 253.5,176.42A5,5 0 1 1 263.5,176.42Z" style="fill:#7A9CFF" />
<path d="M266.21,178.36A5,5 0 1 1 256.21,178.36A5,5 0 1 1 266.21,178.36Z" style="fill:#7A9CFF" />
<path d="M268.92,180.33A5,5 0 1 1 258.92,180.33A5,5 0 1 1 268.92,180.33Z" style="fill:#7A9CFF" />
<path d="M271.63,181.86A5,5 0 1 1 261.63,181.86A5,5 0 1 1 271.63,181.86Z" style="fill:#7A9CFF" />
<path d="M274.35,182.57A5,5 0 1 1 264.35,182.57A5,5 0 1 1 274.35,182.57Z" style="fill:#7A9CFF" />
<path d="M277.06,184.05A5,5 0 1 1 267.06,184.05A5,5 0 1 1 277.06,184.05Z" style="fill:#7A9CFF" />
<path d="M279.77,185.97A5,5 0 1 1 269.77,185.97A5,5 0 1 1 279.77,185.97Z" style="fill:#7A9CFF" />
<path d="M282.48,187.25A5,5 0 1 1 272.48,187.25A5,5 0 1 1 282.48,187.25Z" style="fill:#7A9CFF" />
<path d="M285.2,189.67A5,5 0 1 1 275.2,189.67A5,5 0 1 1 285.2,189.67Z" style="fill:#7A9CFF" />
<path d="M287.91,192.09A5,5 0 1 1 277.91,192.09A5,5 0 1 1 287.91,192.09Z" style="fill:#7A9CFF" />
<path d="M290.62,193.44A5,5 0 1 1 280.62,193.44A5,5 0 1 1 290.62,193.44Z" style="fill:#7A9CFF" />
<path d="M293.33,195.55A5,5 0 1 1 283.33,195.55A5,5 0 1 1 293.33,195.55Z" style="fill:#7A9CFF" />
<path d="M296.05,196.21A5,5 0 1 1 286.05,196.21A5,5 0 1 1 296.05,196.21Z" style="fill:#7A9CFF" />
<path d="M298.76,198.04A5,5 0 1 1 288.76,198.04A5,5 0 1 1 298.76,198.04Z" style="fill:#7A9CFF" />
<path d="M301.47,200.4A5,5 0 1 1 291.47,200.4A5,5 0 1 1 301.47,200.4Z" style="fill:#7A9CFF" />
<path d="M304.18,202.24A5,5 0 1 1 294.18,202.24A5,5 0 1 1 304.18,202.24Z" style="fill:#7A9CFF" />
<path d="M306.9,204.38A5,5 0 1 1 296.9,204.38A5,5 0 1 1 306.9,204.38Z" style="fill:#7A9CFF" />
<path d="M309.61,206.36A5,5 0 1 1 299.61,206.36A5,5 0 1 1 309.61,206.36Z" style="fill:#7A9CFF" />
<path d="M312.32,208.66A5,5 0 1 1 302.32,208.66A5,5 0 1 1 312.32,208.66Z" style="fill:#7A9CFF" />
<path d="M315.04,210.26A5,5 0 1 1 305.04,210.26A5,5 0 1 1 315.04,210.26Z" style="fill:#7A9CFF" />
<path d="M317.75,212.25A5,5 0 1 1 307.75,212.25A5,5 0 1 1 317.75,212.25Z" style="fill:#7A9CFF" />
<path d="M320.46,214.88A5,5 0 1 1 310.46,214.88A5,5 0 1 1 320.46,214.88Z" style="fill:#7A9CFF" />
<path d="M323.17,216.71A5,5 0 1 1 313.17,216.71A5,5 0 1 1 323.17,216.71Z" style="fill:#7A9CFF" />
<path d="M325.89,220.17A5,5 0 1 1 315.89,220.17A5,5 0 1 1 325.89,220.17Z" style="fill:#7A9CFF" />
<path d="M328.6,222.07A5,5 0 1 1 318.6,222.07A5,5 0 1 1 328.6,222.07Z" style="fill:#7A9CFF" />
<path d="M331.31,223.94A5,5 0 1 1 321.31,223.94A5,5 0 1 1 331.31,223.94Z" style="fill:#7A9CFF" />
<path d="M334.02,226.12A5,5 0 1 1 324.02,226.12A5,5 0 1 1 334.02,226.12Z" style="fill:#7A9CFF" />
<path d="M336.74,227.84A5,5 0 1 1 326.74,227.84A5,5 0 1 1 336.74,227.84Z" style="fill:#7A9CFF" />
<path d="M339.45,230.44A5,5 0 1 1 329.45,230.44A5,5 0 1 1 339.45,230.44Z" style="fill:#7A9CFF" />
<path d="M342.16,232.17A5,5 0 1 1 332.16,232.17A5,5 0 1 1 342.16,232.17Z" style="fill:#7A9CFF" />
<path d="M344.87,234.91A5,5 0 1 1 334.87,234.91A5,5 0 1 1 344.87,234.91Z" style="fill:#7A9CFF" />
<path d="M347.59,237.29A5,5 0 1 1 337.59,237.29A5,5 0 1 1 347.59,237.29Z" style="fill:#7A9CFF" />
<path d="M350.3,241.03A5,5 0 1 1 340.3,241.03A5,5 0 1 1 350.3,241.03Z" style="fill:#7A9CFF" />
<path d="M353.01,243.94A5,5 0 1 1 343.01,243.94A5,5 0 1 1 353.01,243.94Z" style="fill:#7A9CFF" />
<path d="M355.73,246.27A5,5 0 1 1 345.73,246.27A5,5 0 1 1 355.73,246.27Z" style="fill:#7A9CFF" />
<path d="M358.44,250.19A5,5 0 1 1 348.44,250.19A5,5 0 1 1 358.44,250.19Z" style="fill:#7A9CFF" />
<path d="M361.15,252.87A5,5 0 1 1 351.15,252.87A5,5 0 1 1 361.15,252.87Z" style="fill:#7A9CFF" />
<path d="M363.86,256.28A5,5 0 1 1 353.86,256.28A5,5 0 1 1 363.86,256.28Z" style="fill:#7A9CFF" />
<path d="M366.58,257.51A5,5 0 1 1 356.58,257.51A5,5 0 1 1 366.58,257.51Z" style="fill:#7A9CFF" />
<path d="M369.29,260.93A5,5 0 1 1 359.29,260.93A5,5 0 1 1 369.29,260.93Z" style="fill:#7A9CFF" />
<path d="M372,263.14A5,5 0 1 1 362,263.14A5,5 0 1 1 372,263.14Z" style="fill:#7A9CFF" />
<path d="M374.71,265.72A5,5 0 1 1 364.71,265.72A5,5 0 1 1 374.71,265.72Z" style="fill:#7A9CFF" />
<path d="M377.43,270.51A5,5 0 1 1 367.43,270.51A5,5 0 1 1 377.43,270.51Z" style="fill:#7A9CFF" />
<path d="M380.14,273.44A5,5 0 1 1 370.14,273.44A5,5 0 1 1 380.14,273.44Z" style="fill:#7A9CFF" />
<path d="M382.85,275.41A5,5 0 1 1 372.85,275.41A5,5 0 1 1 382.85,275.41Z" style="fill:#7A9CFF" />
<path d="M385.56,278.59A5,5 0 1 1 375.56,278.59A5,5 0 1 1 385.56,278.59Z" style="fill:#7A9CFF" />
<path d="M388.28,282.41A5,5 0 1 1 378.28,282.41A5,5 0 1 1 388.28,282.41Z" style="fill:#7A9CFF" />
<path d="M390.99,287.07A5,5 0 1 1 380.99,287.07A5,5 0 1 1 390.99,287.07Z" style="fill:#7A9CFF" />
<path d="M393.7,289.84A5,5 0 1 1 383.7,289.84A5,5 0 1 1 393.7,289.84Z" style="fill:#7A9CFF" />
<path d="M396.41,293.79A5,5 0 1 1 386.41,293.79A5,5 0 1 1 396.41,293.79Z" style="fill:#7A9CFF" />
<path d="M399.13,298.18A5,5 0 1 1 389.13,298.18A5,5 0 1 1 399.13,298.18Z" style="fill:#7A9CFF" />
<path d="M401.84,301.42A5,5 0 1 1 391.84,301.42A5,5 0 1 1 401.84,301.42Z" style="fill:#7A9CFF" />
<path d="M404.55,304.51A5,5 0 1 1 394.55,304.51A5,5 0 1 1 404.55,304.51Z" style="fill:#7A9CFF" />
<path d="M407.27,309.26A5,5 0 1 1 397.27,309.26A5,5 0 1 1 407.27,309.26Z" style="fill:#7A9CFF" />
<path d="M409.98,312.4A5,5 0 1 1 399.98,312.4A5,5 0 1 1 409.98,312.4Z" style="fill:#7A9CFF" />
<path d="M412.69,315.45A5,5 0 1 1 402.69,315.45A5,5 0 1 1 412.69,315.45Z" style="fill:#7A9CFF" />
<path d="M415.4,320.88A5,5 0 1 1 405.4,320.88A5,5 0 1 1 415.4,320.88Z" style="fill:#7A9CFF" />
<path d="M418.12,322.83A5,5 0 1 1 408.12,322.83A5,5 0 1 1 418.12,322.83Z" style="fill:#7A9CFF" />
<path d="M420.83,327.34A5,5 0 1 1 410.83,327.34A5,5 0 1 1 420.83,327.34Z" style="fill:#7A9CFF" />
<path d="M423.54,332.75A5,5 0 1 1 413.54,332.75A5,5 0 1 1 423.54,332.75Z" style="fill:#7A9CFF" />
<path d="M426.25,337.01A5,5 0 1 1 416.25,337.01A5,5 0 1 1 426.25,337.01Z" style="fill:#7A9CFF" />
<path d="M428.97,342.25A5,5 0 1 1 418.97,342.25A5,5 0 1 1 428.97,342.25Z" style="fill:#7A9CFF" />
<path d="M431.68,345.53A5,5 0 1 1 421.68,345.53A5,5 0 1 1 431.68,345.53Z" style="fill:#7A9CFF" />
<path d="M434.39,348.91A5,5 0 1 1 424.39,348.91A5,5 0 1 1 434.39,348.91Z" style="fill:#7A9CFF" />
<path d="M437.1,354.54A5,5 0 1 1 427.1,354.54A5,5 0 1 1 437.1,354.54Z" style="fill:#7A9CFF" />
<path d="M439.82,357.8A5,5 0 1 1 429.82,357.8A5,5 0 1 1 439.82,357.8Z" style="fill:#7A9CFF" />
<path d="M442.53,365.19A5,5 0 1 1 432.53,365.19A5,5 0 1 1 442.53,365.19Z" style="fill:#7A9CFF" />
<path d="M445.24,369.44A5,5 0 1 1 435.24,369.44A5,5 0 1 1 445.24,369.44Z" style="fill:#7A9CFF" />
<path d="M447.95,372.73A5,5 0 1 1 437.95,372.73A5,5 0 1 1 447.95,372.73Z" style="fill:#7A9CFF" />
<path d="M450.67,378.27A5,5 0 1 1 440.67,378.27A5,5 0 1 1 450.67,378.27Z" style="fill:#7A9CFF" />
<path d="M453.38,384.51A5,5 0 1 1 443.38,384.51A5,5 0 1 1 453.38,384.51Z" style="fill:#7A9CFF" />
<path d="M456.09,390.36A5,5 0 1 1 446.09,390.36A5,5 0 1 1 456.09,390.36Z" style="fill:#7A9CFF" />
<path d="M458.81,394.45A5,5 0 1 1 448.81,394.45A5,5 0 1 1 458.81,394.45Z" style="fill:#7A9CFF" />
<path d="M461.52,398.39A5,5 0 1 1 451.52,398.39A5,5 0 1 1 461.52,398.39Z" style="fill:#7A9CFF" />
<path d="M464.23,404.31A5,5 0 1 1 454.23,404.31A5,5 0 1 1 464.23,404.31Z" style="fill:#7A9CFF" />
<path d="M466.94,410.13A5,5 0 1 1 456.94,410.13A5,5 0 1 1 466.94,410.13Z" style="fill:#7A9CFF" />
<path d="M469.66,416.27A5,5 0 1 1 459.66,416.27A5,5 0 1 1 469.66,416.27Z" style="fill:#7A9CFF" />
<path d="M472.37,421.26A5,5 0 1 1 462.37,421.26A5,5 0 1 1 472.37,421.26Z" style="fill:#7A9CFF" />
<path d="M475.08,428.21A5,5 0 1 1 465.08,428.21A5,5 0 1 1 475.08,428.21Z" style="fill:#7A9CFF" />
<path d="M477.79,433.31A5,5 0 1 1 467.79,433.31A5,5 0 1 1 477.79,433.31Z" style="fill:#7A9CFF" />
<path d="M480.51,439.23A5,5 0 1 1 470.51,439.23A5,5 0 1 1 480.51,439.23Z" style="fill:#7A9CFF" />
<path d="M483.22,447.33A5,5 0 1 1 473.22,447.33A5,5 0 1 1 483.22,447.33Z" style="fill:#7A9CFF" />
<path d="M485.93,450.33A5,5 0 1 1 475.93,450.33A5,5 0 1 1 485.93,450.33Z" style="fill:#7A9CFF" />
<path d="M488.64,459.29A5,5 0 1 1 478.64,459.29A5,5 0 1 1 488.64,459.29Z" style="fill:#7A9CFF" />
<path d="M491.36,465.28A5,5 0 1 1 481.36,465.28A5,5 0 1 1 491.36,465.28Z" style="fill:#7A9CFF" />
<path d="M494.07,471.59A5,5 0 1 1 484.07,471.59A5,5 0 1 1 494.07,471.59Z" style="fill:#7A9CFF" />
<path d="M496.78,479.99A5,5 0 1 1 486.78,479.99A5,5 0 1 1 496.78,479.99Z" style="fill:#7A9CFF" />
<path d="M499.49,485.41A5,5 0 1 1 489.49,485.41A5,5 0 1 1 499.49,485.41Z" style="fill:#7A9CFF" />
<path d="M502.21,492.21A5,5 0 1 1 492.21,492.21A5,5 0 1 1 502.21,492.21Z" style="fill:#7A9CFF" />
<path d="M504.92,499.24A5,5 0 1 1 494.92,499.24A5,5 0 1 1 504.92,499.24Z" style="fill:#7A9CFF" />
<path d="M507.63,505.68A5,5 0 1 1 497.63,505.68A5,5 0 1 1 507.63,505.68Z" style="fill:#7A9CFF" />
<path d="M510.35,515.42A5,5 0 1 1 500.35,515.42A5,5 0 1 1 510.35,515.42Z" style="fill:#7A9CFF" />
<path d="M513.06,522.55A5,5 0 1 1 503.06,522.55A5,5 0 1 1 513.06,522.55Z" style="fill:#7A9CFF" />
<path d="M515.77,529.56A5,5 0 1 1 505.77,529.56A5,5 0 1 1 515.77,529.56Z" style="fill:#7A9CFF" />
<path d="M518.48,537.34A5,5 0 1 1 508.48,537.34A5,5 0 1 1 518.48,537.34Z" style="fill:#7A9CFF" />
<path d="M521.2,547.48A5,5 0 1 1 511.2,547.48A5,5 0 1 1 521.2,547.48Z" style="fill:#7A9CFF" />
<path d="M523.91,554.61A5,5 0 1 1 513.91,554.61A5,5 0 1 1 523.91,554.61Z" style="fill:#7A9CFF" />
<path d="M526.62,562.71A5,5 0 1 1 516.62,562.71A5,5 0 1 1 526.62,562.71Z" style="fill:#7A9CFF" />
<path d="M529.33,572A5,5 0 1 1 519.33,572A5,5 0 1 1 529.33,572Z" style="fill:#7A9CFF" />
<path d="M532.05,581.06A5,5 0 1 1 522.05,581.06A5,5 0 1 1 532.05,581.06Z" style="fill:#7A9CFF" />
<path d="M534.76,590.52A5,5 0 1 1 524.76,590.52A5,5 0 1 1 534.76,590.52Z" style="fill:#7A9CFF" />
<path d="M537.47,600.33A5,5 0 1 1 527.47,600.33A5,5 0 1 1 537.47,600.33Z" style="fill:#7A9CFF" />
<path d="M540.18,608.65A5,5 0 1 1 530.18,608.65A5,5 0 1 1 540.18,608.65Z" style="fill:#7A9CFF" />
<path d="M542.9,617.51A5,5 0 1 1 532.9,617.51A5,5 0 1 1 542.9,617.51Z" style="fill:#7A9CFF" />
<path d="M545.61,626.87A5,5 0 1 1 535.61,626.87A5,5 0 1 1 545.61,626.87Z" style="fill:#7A9CFF" />
<path d="M548.32,639.35A5,5 0 1 1 538.32,639.35A5,5 0 1 1 548.32,639.35Z" style="fill:#7A9CFF" />
<path d="M551.04,648.46A5,5 0 1 1 541.04,648.46A5,5 0 1 1 551.04,648.46Z" style="fill:#7A9CFF" />
<path d="M553.75,659.02A5,5 0 1 1 543.75,659.02A5,5 0 1 1 553.75,659.02Z" style="fill:#7A9CFF" />
<path d="M556.46,670.63A5,5 0 1 1 546.46,670.63A5,5 0 1 1 556.46,670.63Z" style="fill:#7A9CFF" />
<path d="M559.17,679.87A5,5 0 1 1 549.17,679.87A5,5 0 1 1 559.17,679.87Z" style="fill:#7A9CFF" />
<path d="M561.89,692.49A5,5 0 1 1 551.89,692.49A5,5 0 1 1 561.89,692.49Z" style="fill:#7A9CFF" />
<path d="M564.6,703.1A5,5 0 1 1 554.6,703.1A5,5 0 1 1 564.6,703.1Z" style="fill:#7A9CFF" />
<path d="M567.31,711.56A5,5 0 1 1 557.31,711.56A5,5 0 1 1 567.31,711.56Z" style="fill:#7A9CFF" />
<path d="M570.02,728.51A5,5 0 1 1 560.02,728.51A5,5 0 1 1 570.02,728.51Z" style="fill:#7A9CFF" />
<path d="M572.74,735.01A5,5 0 1 1 562.74,735.01A5,5 0 1 1 572.74,735.01Z" style="fill:#7A9CFF" />
<path d="M575.45,747.94A5,5 0 1 1 565.45,747.94A5,5 0 1 1 575.45,747.94Z" style="fill:#7A9CFF" />
<path d="M578.16,758.54A5,5 0 1 1 568.16,758.54A5,5 0 1 1 578.16,758.54Z" style="fill:#7A9CFF" />
<path d="M580.87,771.74A5,5 0 1 1 570.87,771.74A5,5 0 1 1 580.87,771.74Z" style="fill:#7A9CFF" />
<path d="M583.59,782.72A5,5 0 1 1 573.59,782.72A5,5 0 1 1 583.59,782.72Z" style="fill:#7A9CFF" />
<path d="M586.3,794.69A5,5 0 1 1 576.3,794.69A5,5 0 1 1 586.3,794.69Z" style="fill:#7A9CFF" />
<path d="M589.01,807.61A5,5 0 1 1 579.01,807.61A5,5 0 1 1 589.01,807.61Z" style="fill:#7A9CFF" />
<path d="M591.72,817.67A5,5 0 1 1 581.72,817.67A5,5 0 1 1 591.72,817.67Z" style="fill:#7A9CFF" />
<path d="M594.44,834.91A5,5 0 1 1 584.44,834.91A5,5 0 1 1 594.44,834.91Z" style="fill:#7A9CFF" />
<path d="M597.15,839.59A5,5 0 1 1 587.15,839.59A5,5 0 1 1 597.15,839.59Z" style="fill:#7A9CFF" />
<path d="M599.86,852.45A5,5 0 1 1 589.86,852.45A5,5 0 1 1 599.86,852.45Z" style="fill:#7A9CFF" />
<path d="M602.58,864.44A5,5 0 1 1 592.58,864.44A5,5 0 1 1 602.58,864.44Z" style="fill:#7A9CFF" />
<path d="M605.29,875.78A5,5 0 1 1 595.29,875.78A5,5 0 1 1 605.29,875.78Z" style="fill:#7A9CFF" />
<path d="M608,885.4A5,5 0 1 1 598,885.4A5,5 0 1 1 608,885.4Z" style="fill:#7A9CFF" />
<path d="M610.71,891.89A5,5 0 1 1 600.71,891.89A5,5 0 1 1 610.71,891.89Z" style="fill:#7A9CFF" />
<path d="M613.43,903.96A5,5 0 1 1 603.43,903.96A5,5 0 1 1 613.43,903.96Z" style="fill:#7A9CFF" />
<path d="M616.14,910.87A5,5 0 1 1 606.14,910.87A5,5 0 1 1 616.14,910.87Z" style="fill:#7A9CFF" />
<path d="M618.85,918.51A5,5 0 1 1 608.85,918.51A5,5 0 1 1 618.85,918.51Z" style="fill:#7A9CFF" />
<path d="M621.56,922.71A5,5 0 1 1 611.56,922.71A5,5 0 1 1 621.56,922.71Z" style="fill:#7A9CFF" />
<path d="M624.28,930.1A5,5 0 1 1 614.28,930.1A5,5 0 1 1 624.28,930.1Z" style="fill:#7A9CFF" />
<path d="M626.99,933.46A5,5 0 1 1 616.99,933.46A5,5 0 1 1 626.99,933.46Z" style="fill:#7A9CFF" />
<path d="M629.7,937.91A5,5 0 1 1 619.7,937.91A5,5 0 1 1 629.7,937.91Z" style="fill:#7A9CFF" />
<path d="M632.41,938.67A5,5 0 1 1 622.41,938.67A5,5 0 1 1 632.41,938.67Z" style="fill:#7A9CFF" />
<path d="M635.13,940.19A5,5 0 1 1 625.13,940.19A5,5 0 1 1 635.13,940.19Z" style="fill:#7A9CFF" />
<path d="M637.84,942.38A5,5 0 1 1 627.84,942.38A5,5 0 1 1 637.84,942.38Z" style="fill:#7A9CFF" />
<path d="M640.55,935.31A5,5 0 1 1 630.55,935.31A5,5 0 1 1 640.55,935.31Z" style="fill:#7A9CFF" />
<path d="M643.26,933.13A5,5 0 1 1 633.26,933.13A5,5 0 1 1 643.26,933.13Z" style="fill:#7A9CFF" />
<path d="M645.98,926A5,5 0 1 1 635.98,926A5,5 0 1 1 645.98,926Z" style="fill:#7A9CFF" />
<path d="M648.69,920.3A5,5 0 1 1 638.69,920.3A5,5 0 1 1 648.69,920.3Z" style="fill:#7A9CFF" />
<path d="M651.4,912.64A5,5 0 1 1 641.4,912.64A5,5 0 1 1 651.4,912.64Z" style="fill:#7A9CFF" />
<path d="M654.12,904.23A5,5 0 1 1 644.12,904.23A5,5 0 1 1 654.12,904.23Z" style="fill:#7A9CFF" />
<path d="M656.83,893.49A5,5 0 1 1 646.83,893.49A5,5 0 1 1 656.83,893.49Z" style="fill:#7A9CFF" />
<path d="M659.54,883.2A5,5 0 1 1 649.54,883.2A5,5 0 1 1 659.54,883.2Z" style="fill:#7A9CFF" />
<path d="M662.25,871.13A5,5 0 1 1 652.25,871.13A5,5 0 1 1 662.25,871.13Z" style="fill:#7A9CFF" />
<path d="M664.97,855.11A5,5 0 1 1 654.97,855.11A5,5 0 1 1 664.97,855.11Z" style="fill:#7A9CFF" />
<path d="M667.68,842.87A5,5 0 1 1 657.68,842.87A5,5 0 1 1 667.68,842.87Z" style="fill:#7A9CFF" />
<path d="M670.39,826.5A5,5 0 1 1 660.39,826.5A5,5 0 1 1 670.39,826.5Z" style="fill:#7A9CFF" />
<path d="M673.1,811.68A5,5 0 1 1 663.1,811.68A5,5 0 1 1 673.1,811.68Z" style="fill:#7A9CFF" />
<path d="M675.82,796.58A5,5 0 1 1 665.82,796.58A5,5 0 1 1 675.82,796.58Z" style="fill:#7A9CFF" />
<path d="M678.53,778.03A5,5 0 1 1 668.53,778.03A5,5 0 1 1 678.53,778.03Z" style="fill:#7A9CFF" />
<path d="M681.24,760.99A5,5 0 1 1 671.24,760.99A5,5 0 1 1 681.24,760.99Z" style="fill:#7A9CFF" />
<path d="M683.95,743.07A5,5 0 1 1 673.95,743.07A5,5 0 1 1 683.95,743.07Z" style="fill:#7A9CFF" />
<path d="M686.67,725.8A5,5 0 1 1 676.67,725.8A5,5 0 1 1 686.67,725.8Z" style="fill:#7A9CFF" />
<path d="M689.38,708.43A5,5 0 1 1 679.38,708.43A5,5 0 1 1 689.38,708.43Z" style="fill:#7A9CFF" />
<path d="M692.09,692.24A5,5 0 1 1 682.09,692.24A5,5 0 1 1 692.09,692.24Z" style="fill:#7A9CFF" />
<path d="M694.81,675.5A5,5 0 1 1 684.81,675.5A5,5 0 1 1 694.81,675.5Z" style="fill:#7A9CFF" />
<path d="M697.52,656.66A5,5 0 1 1 687.52,656.66A5,5 0 1 1 697.52,656.66Z" style="fill:#7A9CFF" />
<path d="M700.23,639.02A5,5 0 1 1 690.23,639.02A5,5 0 1 1 700.23,639.02Z" style="fill:#7A9CFF" />
<path d="M702.94,621.6A5,5 0 1 1 692.94,621.6A5,5 0 1 1 702.94,621.6Z" style="fill:#7A9CFF" />
<path d="M705.66,606.77A5,5 0 1 1 695.66,606.77A5,5 0 1 1 705.66,606.77Z" style="fill:#7A9CFF" />
<path d="M708.37,590.01A5,5 0 1 1 698.37,590.01A5,5 0 1 1 708.37,590.01Z" style="fill:#7A9CFF" />
<path d="M711.08,572.91A5,5 0 1 1 701.08,572.91A5,5 0 1 1 711.08,572.91Z" style="fill:#7A9CFF" />
<path d="M713.79,557.9A5,5 0 1 1 703.79,557.9A5,5 0 1 1 713.79,557.9Z" style="fill:#7A9CFF" />
<path d="M716.51,541.58A5,5 0 1 1 706.51,541.58A5,5 0 1 1 716.51,541.58Z" style="fill:#7A9CFF" />
<path d="M719.22,527.42A5,5 0 1 1 709.22,527.42A5,5 0 1 1 719.22,527.42Z" style="fill:#7A9CFF" />
<path d="M721.93,511.51A5,5 0 1 1 711.93,511.51A5,5 0 1 1 721.93,511.51Z" style="fill:#7A9CFF" />
<path d="M724.64,498.9A5,5 0 1 1 714.64,498.9A5,5 0 1 1 724.64,498.9Z" style="fill:#7A9CFF" />
<path d="M727.36,483.64A5,5 0 1 1 717.36,483.64A5,5 0 1 1 727.36,483.64Z" style="fill:#7A9CFF" />
<path d="M730.07,469.74A5,5 0 1 1 720.07,469.74A5,5 0 1 1 730.07,469.74Z" style="fill:#7A9CFF" />
<path d="M732.78,458.01A5,5 0 1 1 722.78,458.01A5,5 0 1 1 732.78,458.01Z" style="fill:#7A9CFF" />
<path d="M735.49,445.07A5,5 0 1 1 725.49,445.07A5,5 0 1 1 735.49,445.07Z" style="fill:#7A9CFF" />
<path d="M738.21,431.85A5,5 0 1 1 728.21,431.85A5,5 0 1 1 738.21,431.85Z" style="fill:#7A9CFF" />
<path d="M740.92,422.01A5,5 0 1 1 730.92,422.01A5,5 0 1 1 740.92,422.01Z" style="fill:#7A9CFF" />
<path d="M743.63,409.11A5,5 0 1 1 733.63,409.11A5,5 0 1 1 743.63,409.11Z" style="fill:#7A9CFF" />
<path d="M746.35,398.21A5,5 0 1 1 736.35,398.21A5,5 0 1 1 746.35,398.21Z" style="fill:#7A9CFF" />
<path d="M749.06,386.93A5,5 0 1 1 739.06,386.93A5,5 0 1 1 749.06,386.93Z" style="fill:#7A9CFF" />
<path d="M751.77,377.44A5,5 0 1 1 741.77,377.44A5,5 0 1 1 751.77,377.44Z" style="fill:#7A9CFF" />
<path d="M754.48,365.69A5,5 0 1 1 744.48,365.69A5,5 0 1 1 754.48,365.69Z" style="fill:#7A9CFF" />
<path d="M757.2,356.47A5,5 0 1 1 747.2,356.47A5,5 0 1 1 757.2,356.47Z" style="fill:#7A9CFF" />
<path d="M759.91,346.71A5,5 0 1 1 749.91,346.71A5,5 0 1 1 759.91,346.71Z" style="fill:#7A9CFF" />
<path d="M762.62,339.3A5,5 0 1 1 752.62,339.3A5,5 0 1 1 762.62,339.3Z" style="fill:#7A9CFF" />
<path d="M765.33,329.83A5,5 0 1 1 755.33,329.83A5,5 0 1 1 765.33,329.83Z" style="fill:#7A9CFF" />
<path d="M768.05,321.18A5,5 0 1 1 758.05,321.18A5,5 0 1 1 768.05,321.18Z" style="fill:#7A9CFF" />
<path d="M770.76,313.06A5,5 0 1 1 760.76,313.06A5,5 0 1 1 770.76,313.06Z" style="fill:#7A9CFF" />
<path d="M773.47,304.75A5,5 0 1 1 763.47,304.75A5,5 0 1 1 773.47,304.75Z" style="fill:#7A9CFF" />
<path d="M776.18,296.57A5,5 0 1 1 766.18,296.57A5,5 0 1 1 776.18,296.57Z" style="fill:#7A9CFF" />
<path d="M778.9,290.25A5,5 0 1 1 768.9,290.25A5,5 0 1 1 778.9,290.25Z" style="fill:#7A9CFF" />
<path d="M781.61,282.74A5,5 0 1 1 771.61,282.74A5,5 0 1 1 781.61,282.74Z" style="fill:#7A9CFF" />
<path d="M784.32,275.65A5,5 0 1 1 774.32,275.65A5,5 0 1 1 784.32,275.65Z" style="fill:#7A9CFF" />
<path d="M787.03,271.08A5,5 0 1 1 777.03,271.08A5,5 0 1 1 787.03,271.08Z" style="fill:#7A9CFF" />
<path d="M789.75,263.94A5,5 0 1 1 779.75,263.94A5,5 0 1 1 789.75,263.94Z" style="fill:#7A9CFF" />
<path d="M792.46,257.9A5,5 0 1 1 782.46,257.9A5,5 0 1 1 792.46,257.9Z" style="fill:#7A9CFF" />
<path d="M795.17,251.68A5,5 0 1 1 785.17,251.68A5,5 0 1 1 795.17,251.68Z" style="fill:#7A9CFF" />
<path d="M797.89,245.77A5,5 0 1 1 787.89,245.77A5,5 0 1 1 797.89,245.77Z" style="fill:#7A9CFF" />
<path d="M800.6,240.46A5,5 0 1 1 790.6,240.46A5,5 0 1 1 800.6,240.46Z" style="fill:#7A9CFF" />
<path d="M803.31,235.45A5,5 0 1 1 793.31,235.45A5,5 0 1 1 803.31,235.45Z" style="fill:#7A9CFF" />
<path d="M806.02,230.21A5,5 0 1 1 796.02,230.21A5,5 0 1 1 806.02,230.21Z" style="fill:#7A9CFF" />
<path d="M808.74,226.06A5,5 0 1 1 798.74,226.06A5,5 0 1 1 808.74,226.06Z" style="fill:#7A9CFF" />
<path d="M811.45,221.9A5,5 0 1 1 801.45,221.9A5,5 0 1 1 811.45,221.9Z" style="fill:#7A9CFF" />
<path d="M814.16,216.69A5,5 0 1 1 804.16,216.69A5,5 0 1 1 814.16,216.69Z" style="fill:#7A9CFF" />
<path d="M816.87,211.64A5,5 0 1 1 806.87,211.64A5,5 0 1 1 816.87,211.64Z" style="fill:#7A9CFF" />
<path d="M819.59,208.6A5,5 0 1 1 809.59,208.6A5,5 0 1 1 819.59,208.6Z" style="fill:#7A9CFF" />
<path d="M822.3,204.37A5,5 0 1 1 812.3,204.37A5,5 0 1 1 822.3,204.37Z" style="fill:#7A9CFF" />
<path d="M825.01,200.61A5,5 0 1 1 815.01,200.61A5,5 0 1 1 825.01,200.61Z" style="fill:#7A9CFF" />
<path d="M827.72,197.17A5,5 0 1 1 817.72,197.17A5,5 0 1 1 827.72,197.17Z" style="fill:#7A9CFF" />
<path d="M830.44,193.8A5,5 0 1 1 820.44,193.8A5,5 0 1 1 830.44,193.8Z" style="fill:#7A9CFF" />
<path d="M833.15,189.35A5,5 0 1 1 823.15,189.35A5,5 0 1 1 833.15,189.35Z" style="fill:#7A9CFF" />
<path d="M835.86,187.19A5,5 0 1 1 825.86,187.19A5,5 0 1 1 835.86,187.19Z" style="fill:#7A9CFF" />
<path d="M838.58,183.12A5,5 0 1 1 828.58,183.12A5,5 0 1 1 838.58,183.12Z" style="fill:#7A9CFF" />
<path d="M841.29,181.11A5,5 0 1 1 831.29,181.11A5,5 0 1 1 841.29,181.11Z" style="fill:#7A9CFF" />
<path d="M844,178.28A5,5 0 1 1 834,178.28A5,5 0 1 1 844,178.28Z" style="fill:#7A9CFF" />
<path d="M846.71,175.3A5,5 0 1 1 836.71,175.3A5,5 0 1 1 846.71,175.3Z" style="fill:#7A9CFF" />
<path d="M849.43,172.19A5,5 0 1 1 839.43,172.19A5,5 0 1 1 849.43,172.19Z" style="fill:#7A9CFF" />
<path d="M852.14,169.15A5,5 0 1 1 842.14,169.15A5,5 0 1 1 852.14,169.15Z" style="fill:#7A9CFF" />
<path d="M854.85,167.1A5,5 0 1 1 844.85,167.1A5,5 0 1 1 854.85,167.1Z" style="fill:#7A9CFF" />
<path d="M857.56,165.12A5,5 0 1 1 847.56,165.12A5,5 0 1 1 857.56,165.12Z" style="fill:#7A9CFF" />
<path d="M860.28,162.29A5,5 0 1 1 850.28,162.29A5,5 0 1 1 860.28,162.29Z" style="fill:#7A9CFF" />
<path d="M862.99,160.64A5,5 0 1 1 852.99,160.64A5,5 0 1 1 862.99,160.64Z" style="fill:#7A9CFF" />
<path d="M865.7,158.51A5,5 0 1 1 855.7,158.51A5,5 0 1 1 865.7,158.51Z" style="fill:#7A9CFF" />
<path d="M868.41,156.66A5,5 0 1 1 858.41,156.66A5,5 0 1 1 868.41,156.66Z" style="fill:#7A9CFF" />
<path d="M871.13,154.8A5,5 0 1 1 861.13,154.8A5,5 0 1 1 871.13,154.8Z" style="fill:#7A9CFF" />
<path d="M873.84,153.32A5,5 0 1 1 863.84,153.32A5,5 0 1 1 873.84,153.32Z" style="fill:#7A9CFF" />
<path d="M876.55,151.79A5,5 0 1 1 866.55,151.79A5,5 0 1 1 876.55,151.79Z" style="fill:#7A9CFF" />
<path d="M879.26,148.85A5,5 0 1 1 869.26,148.85A5,5 0 1 1 879.26,148.85Z" style="fill:#7A9CFF" />
<path d="M881.98,148.4A5,5 0 1 1 871.98,148.4A5,5 0 1 1 881.98,148.4Z" style="fill:#7A9CFF" />
<path d="M884.69,146.08A5,5 0 1 1 874.69,146.08A5,5 0 1 1 884.69,146.08Z" style="fill:#7A9CFF" />
<path d="M887.4,144.07A5,5 0 1 1 877.4,144.07A5,5 0 1 1 887.4,144.07Z" style="fill:#7A9CFF" />
<path d="M890.12,142.68A5,5 0 1 1 880.12,142.68A5,5 0 1 1 890.12,142.68Z" style="fill:#7A9CFF" />
<path d="M892.83,141.49A5,5 0 1 1 882.83,141.49A5,5 0 1 1 892.83,141.49Z" style="fill:#7A9CFF" />
<path d="M895.54,139.95A5,5 0 1 1 885.54,139.95A5,5 0 1 1 895.54,139.95Z" style="fill:#7A9CFF" />
<path d="M898.25,138.4A5,5 0 1 1 888.25,138.4A5,5 0 1 1 898.25,138.4Z" style="fill:#7A9CFF" />
<path d="M900.97,137.44A5,5 0 1 1 890.97,137.44A5,5 0 1 1 900.97,137.44Z" style="fill:#7A9CFF" />
<path d="M903.68,135.88A5,5 0 1 1 893.68,135.88A5,5 0 1 1 903.68,135.88Z" style="fill:#7A9CFF" />
<path d="M906.39,134.79A5,5 0 1 1 896.39,134.79A5,5 0 1 1 906.39,134.79Z" style="fill:#7A9CFF" />
<path d="M909.1,133.24A5,5 0 1 1 899.1,133.24A5,5 0 1 1 909.1,133.24Z" style="fill:#7A9CFF" />
<path d="M911.82,132.42A5,5 0 1 1 901.82,132.42A5,5 0 1 1 911.82,132.42Z" style="fill:#7A9CFF" />
<path d="M914.53,131.44A5,5 0 1 1 904.53,131.44A5,5 0 1 1 914.53,131.44Z" style="fill:#7A9CFF" />
<path d="M917.24,130.64A5,5 0 1 1 907.24,130.64A5,5 0 1 1 917.24,130.64Z" style="fill:#7A9CFF" />
<path d="M919.95,129.14A5,5 0 1 1 909.95,129.14A5,5 0 1 1 919.95,129.14Z" style="fill:#7A9CFF" />
<path d="M922.67,128.07A5,5 0 1 1 912.67,128.07A5,5 0 1 1 922.67,128.07Z" style="fill:#7A9CFF" />
<path d="M925.38,126.93A5,5 0 1 1 915.38,126.93A5,5 0 1 1 925.38,126.93Z" style="fill:#7A9CFF" />
<path d="M928.09,125.87A5,5 0 1 1 918.09,125.87A5,5 0 1 1 928.09,125.87Z" style="fill:#7A9CFF" />
<path d="M930.8,125.05A5,5 0 1 1 920.8,125.05A5,5 0 1 1 930.8,125.05Z" style="fill:#7A9CFF" />
<path d="M933.52,123.78A5,5 0 1 1 923.52,123.78A5,5 0 1 1 933.52,123.78Z" style="fill:#7A9CFF" />
<path d="M936.23,124.14A5,5 0 1 1 926.23,124.14A5,5 0 1 1 936.23,124.14Z" style="fill:#7A9CFF" />
<path d="M938.94,122.49A5,5 0 1 1 928.94,122.49A5,5 0 1 1 938.94,122.49Z" style="fill:#7A9CFF" />
<path d="M941.66,121.38A5,5 0 1 1 931.66,121.38A5,5 0 1 1 941.66,121.38Z" style="fill:#7A9CFF" />
<path d="M944.37,120.6A5,5 0 1 1 934.37,120.6A5,5 0 1 1 944.37,120.6Z" style="fill:#7A9CFF" />
<path d="M947.08,119.86A5,5 0 1 1 937.08,119.86A5,5 0 1 1 947.08,119.86Z" style="fill:#7A9CFF" />
<path d="M949.79,119.16A5,5 0 1 1 939.79,119.16A5,5 0 1 1 949.79,119.16Z" style="fill:#7A9CFF" />
<path d="M952.51,118.75A5,5 0 1 1 942.51,118.75A5,5 0 1 1 952.51,118.75Z" style="fill:#7A9CFF" />
<path d="M955.22,118.25A5,5 0 1 1 945.22,118.25A5,5 0 1 1 955.22,118.25Z" style="fill:#7A9CFF" />
<path d="M957.93,116.86A5,5 0 1 1 947.93,116.86A5,5 0 1 1 957.93,116.86Z" style="fill:#7A9CFF" />
<path d="M960.64,116.15A5,5 0 1 1 950.64,116.15A5,5 0 1 1 960.64,116.15Z" style="fill:#7A9CFF" />
<path d="M963.36,116.21A5,5 0 1 1 953.36,116.21A5,5 0 1 1 963.36,116.21Z" style="fill:#7A9CFF" />
<path d="M966.07,115.48A5,5 0 1 1 956.07,115.48A5,5 0 1 1 966.07,115.48Z" style="fill:#7A9CFF" />
<path d="M968.78,115.06A5,5 0 1 1 958.78,115.06A5,5 0 1 1 968.78,115.06Z" style="fill:#7A9CFF" />
<path d="M971.49,114.3A5,5 0 1 1 961.49,114.3A5,5 0 1 1 971.49,114.3Z" style="fill:#7A9CFF" />
<path d="M974.21,113.38A5,5 0 1 1 964.21,113.38A5,5 0 1 1 974.21,113.38Z" style="fill:#7A9CFF" />
<path d="M976.92,112.86A5,5 0 1 1 966.92,112.86A5,5 0 1 1 976.92,112.86Z" style="fill:#7A9CFF" />
<path d="M979.63,112.2A5,5 0 1 1 969.63,112.2A5,5 0 1 1 979.63,112.2Z" style="fill:#7A9CFF" />
<path d="M982.34,112.51A5,5 0 1 1 972.34,112.51A5,5 0 1 1 982.34,112.51Z" style="fill:#7A9CFF" />
<path d="M985.06,110.83A5,5 0 1 1 975.06,110.83A5,5 0 1 1 985.06,110.83Z" style="fill:#7A9CFF" />
<path d="M987.77,111.18A5,5 0 1 1 977.77,111.18A5,5 0 1 1 987.77,111.18Z" style="fill:#7A9CFF" />
<path d="M990.48,110.61A5,5 0 1 1 980.48,110.61A5,5 0 1 1 990.48,110.61Z" style="fill:#7A9CFF" />
<path d="M993.2,109.82A5,5 0 1 1 983.2,109.82A5,5 0 1 1 993.2,109.82Z" style="fill:#7A9CFF" />
<path d="M995.91,109.35A5,5 0 1 1 985.91,109.35A5,5 0 1 1 995.91,109.35Z" style="fill:#7A9CFF" />
<path d="M998.62,109.31A5,5 0 1 1 988.62,109.31A5,5 0 1 1 998.62,109.31Z" style="fill:#7A9CFF" />
<path d="M1001.3,108.27A5,5 0 1 1 991.33,108.27A5,5 0 1 1 1001.3,108.27Z" style="fill:#7A9CFF" />
<path d="M1004,108.02A5,5 0 1 1 994.05,108.02A5,5 0 1 1 1004,108.02Z" style="fill:#7A9CFF" />
<path d="M1006.8,107.83A5,5 0 1 1 996.76,107.83A5,5 0 1 1 1006.8,107.83Z" style="fill:#7A9CFF" />
<path d="M1009.5,107.08A5,5 0 1 1 999.47,107.08A5,5 0 1 1 1009.5,107.08Z" style="fill:#7A9CFF" />
<path d="M1012.2,106.72A5,5 0 1 1 1002.2,106.72A5,5 0 1 1 1012.2,106.72Z" style="fill:#7A9CFF" />
<path d="M1014.9,106.49A5,5 0 1 1 1004.9,106.49A5,5 0 1 1 1014.9,106.49Z" style="fill:#7A9CFF" />
<path d="M1017.6,106.38A5,5 0 1 1 1007.6,106.38A5,5 0 1 1 1017.6,106.38Z" style="fill:#7A9CFF" />
<path d="M1020.3,105.71A5,5 0 1 1 1010.3,105.71A5,5 0 1 1 1020.3,105.71Z" style="fill:#7A9CFF" />
<path d="M1023,105.37A5,5 0 1 1 1013,105.37A5,5 0 1 1 1023,105.37Z" style="fill:#7A9CFF" />
<path d="M1025.7,104.65A5,5 0 1 1 1015.7,104.65A5,5 0 1 1 1025.7,104.65Z" style="fill:#7A9CFF" />
<path d="M1028.5,104.45A5,5 0 1 1 1018.5,104.45A5,5 0 1 1 1028.5,104.45Z" style="fill:#7A9CFF" />
<path d="M1031.2,104.53A5,5 0 1 1 1021.2,104.53A5,5 0 1 1 1031.2,104.53Z" style="fill:#7A9CFF" />
<path d="M1033.9,103.82A5,5 0 1 1 1023.9,103.82A5,5 0 1 1 1033.9,103.82Z" style="fill:#7A9CFF" />
<path d="M1036.6,103.53A5,5 0 1 1 1026.6,103.53A5,5 0 1 1 1036.6,103.53Z" style="fill:#7A9CFF" />
<path d="M1039.3,103.36A5,5 0 1 1 1029.3,103.36A5,5 0 1 1 1039.3,103.36Z" style="fill:#7A9CFF" />
<path d="M1042,103.29A5,5 0 1 1 1032,103.29A5,5 0 1 1 1042,103.29Z" style="fill:#7A9CFF" />
<path d="M1044.7,102.37A5,5 0 1 1 1034.7,102.37A5,5 0 1 1 1044.7,102.37Z" style="fill:#7A9CFF" />
<path d="M1047.4,102.55A5,5 0 1 1 1037.4,102.55A5,5 0 1 1 1047.4,102.55Z" style="fill:#7A9CFF" />
<path d="M1050.2,101.91A5,5 0 1 1 1040.2,101.91A5,5 0 1 1 1050.2,101.91Z" style="fill:#7A9CFF" />
<path d="M1052.9,101.92A5,5 0 1 1 1042.9,101.92A5,5 0 1 1 1052.9,101.92Z" style="fill:#7A9CFF" />
<path d="M1055.6,101.65A5,5 0 1 1 1045.6,101.65A5,5 0 1 1 1055.6,101.65Z" style="fill:#7A9CFF" />
<path d="M1058.3,100.83A5,5 0 1 1 1048.3,100.83A5,5 0 1 1 1058.3,100.83Z" style="fill:#7A9CFF" />
<path d="M1061,100.7A5,5 0 1 1 1051,100.7A5,5 0 1 1 1061,100.7Z" style="fill:#7A9CFF" />
<path d="M1063.7,100.59A5,5 0 1 1 1053.7,100.59A5,5 0 1 1 1063.7,100.59Z" style="fill:#7A9CFF" />
<path d="M1066.4,100.49A5,5 0 1 1 1056.4,100.49A5,5 0 1 1 1066.4,100.49Z" style="fill:#7A9CFF" />
<path d="M1069.1,100.53A5,5 0 1 1 1059.1,100.53A5,5 0 1 1 1069.1,100.53Z" style="fill:#7A9CFF" />
<path d="M1071.9,99.853A5,5 0 1 1 1061.9,99.853A5,5 0 1 1 1071.9,99.853Z" style="fill:#7A9CFF" />
<path d="M1074.6,99.438A5,5 0 1 1 1064.6,99.438A5,5 0 1 1 1074.6,99.438Z" style="fill:#7A9CFF" />
<path d="M1077.3,99.296A5,5 0 1 1 1067.3,99.296A5,5 0 1 1 1077.3,99.296Z" style="fill:#7A9CFF" />
<path d="M1080,99.152A5,5 0 1 1 1070,99.152A5,5 0 1 1 1080,99.152Z" style="fill:#7A9CFF" />
<path d="M101.16,1029.1L1075,1029.1" style="fill:none;stroke:#000000;stroke-width:2.5" />
<path d="M1075,75.531L1075,1029.1" style="fill:none;stroke:#000000;stroke-width:2.5" />
<path d="M1012,974.69A7,7 0 1 1 998,974.69A7,7 0 1 1 1012,974.69Z" style="fill:#1FD3AC" />
<text x="799.96" y="-967.62" transform="scale(1, -1)"
	style="font-family:Liberation Sans;font-variant:normal;font-weight:normal;font-style:normal;font-size:30px">5GHz lowres</text>
<path d="M1012,938.51A7,7 0 1 1 998,938.51A7,7 0 1 1 1012,938.51Z" style="fill:#FF7AB4" />
<text x="786.64" y="-931.45" transform="scale(1, -1)"
	style="font-family:Liberation Sans;font-variant:normal;font-weight:normal;font-style:normal;font-size:30px">1 mm UHNA3</text>
<path d="M1012,902.34A7,7 0 1 1 998,902.34A7,7 0 1 1 1012,902.34Z" style="fill:#7A9CFF" />
<text x="878.3" y="-895.27" transform="scale(1, -1)"
	style="font-family:Liberation Sans;font-variant:normal;font-weight:normal;font-style:normal;font-size:30px">25GHz</text>
</g>
</svg>
