<?xml version="1.0"?>
<!-- Generated by SVGo and Plotinum VG -->
<svg width="1080pt" height="1080pt" viewBox="0 0 1080 1080"
	xmlns="http://www.w3.org/2000/svg"
	xmlns:xlink="http://www.w3.org/1999/xlink">
<g transform="scale(1, -1) translate(0, -1080)">
<path d="M0,0L1080,0L1080,1080L0,1080Z" style="fill:#-8000000000000000-8000000000000000-8000000000000000;fill-opacity:0" />
<text x="346.9" y="-1039.5" transform="scale(1, -1)"
	style="font-family:Helvetica;font-weight:normal;font-style:normal;font-size:50px">1 mm CS2 CABS</text>
<text x="497.32" y="-11.039" transform="scale(1, -1)"
	style="font-family:Helvetica;font-weight:normal;font-style:normal;font-size:36px">Frequency (GHz)</text>
<text x="242.18" y="-71.258" transform="scale(1, -1)"
	style="font-family:Helvetica;font-weight:normal;font-style:normal;font-size:36px">2.35</text>
<text x="423.31" y="-71.258" transform="scale(1, -1)"
	style="font-family:Helvetica;font-weight:normal;font-style:normal;font-size:36px">2.45</text>
<text x="604.44" y="-71.258" transform="scale(1, -1)"
	style="font-family:Helvetica;font-weight:normal;font-style:normal;font-size:36px">2.55</text>
<text x="785.57" y="-71.258" transform="scale(1, -1)"
	style="font-family:Helvetica;font-weight:normal;font-style:normal;font-size:36px">2.65</text>
<text x="966.7" y="-71.258" transform="scale(1, -1)"
	style="font-family:Helvetica;font-weight:normal;font-style:normal;font-size:36px">2.75</text>
<path d="M277.21,116.44L277.21,108.44" style="fill:none;stroke:#000000;stroke-width:1.5" />
<path d="M367.78,112.44L367.78,108.44" style="fill:none;stroke:#000000;stroke-width:1.5" />
<path d="M458.34,116.44L458.34,108.44" style="fill:none;stroke:#000000;stroke-width:1.5" />
<path d="M548.91,112.44L548.91,108.44" style="fill:none;stroke:#000000;stroke-width:1.5" />
<path d="M639.47,116.44L639.47,108.44" style="fill:none;stroke:#000000;stroke-width:1.5" />
<path d="M730.04,112.44L730.04,108.44" style="fill:none;stroke:#000000;stroke-width:1.5" />
<path d="M820.61,116.44L820.61,108.44" style="fill:none;stroke:#000000;stroke-width:1.5" />
<path d="M911.17,112.44L911.17,108.44" style="fill:none;stroke:#000000;stroke-width:1.5" />
<path d="M1001.7,116.44L1001.7,108.44" style="fill:none;stroke:#000000;stroke-width:1.5" />
<path d="M195.71,108.44L1075,108.44" style="fill:none;stroke:#000000;stroke-width:1.5" />
<g transform="rotate(90)">
<text x="371.42" y="29.18" transform="scale(1, -1)"
	style="font-family:Helvetica;font-weight:normal;font-style:normal;font-size:36px">Spectral Density (uV)</text>
</g>
<text x="87.869" y="-207.91" transform="scale(1, -1)"
	style="font-family:Helvetica;font-weight:normal;font-style:normal;font-size:36px">44.10</text>
<text x="87.869" y="-424.24" transform="scale(1, -1)"
	style="font-family:Helvetica;font-weight:normal;font-style:normal;font-size:36px">92.75</text>
<text x="67.848" y="-640.57" transform="scale(1, -1)"
	style="font-family:Helvetica;font-weight:normal;font-style:normal;font-size:36px">141.41</text>
<text x="67.848" y="-856.9" transform="scale(1, -1)"
	style="font-family:Helvetica;font-weight:normal;font-style:normal;font-size:36px">190.06</text>
<path d="M199.96,108.82L195.96,108.82" style="fill:none;stroke:#000000;stroke-width:1.5" />
<path d="M203.96,216.98L195.96,216.98" style="fill:none;stroke:#000000;stroke-width:1.5" />
<path d="M199.96,325.15L195.96,325.15" style="fill:none;stroke:#000000;stroke-width:1.5" />
<path d="M203.96,433.31L195.96,433.31" style="fill:none;stroke:#000000;stroke-width:1.5" />
<path d="M199.96,541.48L195.96,541.48" style="fill:none;stroke:#000000;stroke-width:1.5" />
<path d="M203.96,649.64L195.96,649.64" style="fill:none;stroke:#000000;stroke-width:1.5" />
<path d="M199.96,757.81L195.96,757.81" style="fill:none;stroke:#000000;stroke-width:1.5" />
<path d="M203.96,865.98L195.96,865.98" style="fill:none;stroke:#000000;stroke-width:1.5" />
<path d="M199.96,974.14L195.96,974.14" style="fill:none;stroke:#000000;stroke-width:1.5" />
<path d="M199.96,974.14L195.96,974.14" style="fill:none;stroke:#000000;stroke-width:1.5" />
<path d="M195.96,108.82L195.96,974.14" style="fill:none;stroke:#000000;stroke-width:1.5" />
<path d="M195.71,131L195.71,147.16" style="fill:none;stroke:#5B1616" />
<path d="M193.21,131L198.21,131" style="fill:none;stroke:#5B1616" />
<path d="M193.21,147.16L198.21,147.16" style="fill:none;stroke:#5B1616" />
<path d="M204.77,141.59L204.77,155.52" style="fill:none;stroke:#5B1616" />
<path d="M202.27,141.59L207.27,141.59" style="fill:none;stroke:#5B1616" />
<path d="M202.27,155.52L207.27,155.52" style="fill:none;stroke:#5B1616" />
<path d="M213.84,152.93L213.84,162.11" style="fill:none;stroke:#5B1616" />
<path d="M211.34,152.93L216.34,152.93" style="fill:none;stroke:#5B1616" />
<path d="M211.34,162.11L216.34,162.11" style="fill:none;stroke:#5B1616" />
<path d="M222.9,141.93L222.9,165.01" style="fill:none;stroke:#5B1616" />
<path d="M220.4,141.93L225.4,141.93" style="fill:none;stroke:#5B1616" />
<path d="M220.4,165.01L225.4,165.01" style="fill:none;stroke:#5B1616" />
<path d="M231.97,164.15L231.97,185.31" style="fill:none;stroke:#5B1616" />
<path d="M229.47,164.15L234.47,164.15" style="fill:none;stroke:#5B1616" />
<path d="M229.47,185.31L234.47,185.31" style="fill:none;stroke:#5B1616" />
<path d="M241.03,147.91L241.03,169.41" style="fill:none;stroke:#5B1616" />
<path d="M238.53,147.91L243.53,147.91" style="fill:none;stroke:#5B1616" />
<path d="M238.53,169.41L243.53,169.41" style="fill:none;stroke:#5B1616" />
<path d="M250.1,151.56L250.1,167.8" style="fill:none;stroke:#5B1616" />
<path d="M247.6,151.56L252.6,151.56" style="fill:none;stroke:#5B1616" />
<path d="M247.6,167.8L252.6,167.8" style="fill:none;stroke:#5B1616" />
<path d="M259.16,164.39L259.16,170.49" style="fill:none;stroke:#5B1616" />
<path d="M256.66,164.39L261.66,164.39" style="fill:none;stroke:#5B1616" />
<path d="M256.66,170.49L261.66,170.49" style="fill:none;stroke:#5B1616" />
<path d="M268.23,151.66L268.23,164.6" style="fill:none;stroke:#5B1616" />
<path d="M265.73,151.66L270.73,151.66" style="fill:none;stroke:#5B1616" />
<path d="M265.73,164.6L270.73,164.6" style="fill:none;stroke:#5B1616" />
<path d="M277.29,134.14L277.29,154.96" style="fill:none;stroke:#5B1616" />
<path d="M274.79,134.14L279.79,134.14" style="fill:none;stroke:#5B1616" />
<path d="M274.79,154.96L279.79,154.96" style="fill:none;stroke:#5B1616" />
<path d="M286.36,162.22L286.36,174.18" style="fill:none;stroke:#5B1616" />
<path d="M283.86,162.22L288.86,162.22" style="fill:none;stroke:#5B1616" />
<path d="M283.86,174.18L288.86,174.18" style="fill:none;stroke:#5B1616" />
<path d="M295.42,164.29L295.42,173.07" style="fill:none;stroke:#5B1616" />
<path d="M292.92,164.29L297.92,164.29" style="fill:none;stroke:#5B1616" />
<path d="M292.92,173.07L297.92,173.07" style="fill:none;stroke:#5B1616" />
<path d="M304.49,160.04L304.49,162.59" style="fill:none;stroke:#5B1616" />
<path d="M301.99,160.04L306.99,160.04" style="fill:none;stroke:#5B1616" />
<path d="M301.99,162.59L306.99,162.59" style="fill:none;stroke:#5B1616" />
<path d="M313.55,177.93L313.55,186.4" style="fill:none;stroke:#5B1616" />
<path d="M311.05,177.93L316.05,177.93" style="fill:none;stroke:#5B1616" />
<path d="M311.05,186.4L316.05,186.4" style="fill:none;stroke:#5B1616" />
<path d="M322.62,171.07L322.62,192.4" style="fill:none;stroke:#5B1616" />
<path d="M320.12,171.07L325.12,171.07" style="fill:none;stroke:#5B1616" />
<path d="M320.12,192.4L325.12,192.4" style="fill:none;stroke:#5B1616" />
<path d="M331.68,173.19L331.68,179.76" style="fill:none;stroke:#5B1616" />
<path d="M329.18,173.19L334.18,173.19" style="fill:none;stroke:#5B1616" />
<path d="M329.18,179.76L334.18,179.76" style="fill:none;stroke:#5B1616" />
<path d="M340.75,170.87L340.75,184.61" style="fill:none;stroke:#5B1616" />
<path d="M338.25,170.87L343.25,170.87" style="fill:none;stroke:#5B1616" />
<path d="M338.25,184.61L343.25,184.61" style="fill:none;stroke:#5B1616" />
<path d="M349.81,169.41L349.81,173.91" style="fill:none;stroke:#5B1616" />
<path d="M347.31,169.41L352.31,169.41" style="fill:none;stroke:#5B1616" />
<path d="M347.31,173.91L352.31,173.91" style="fill:none;stroke:#5B1616" />
<path d="M358.88,161.2L358.88,180.24" style="fill:none;stroke:#5B1616" />
<path d="M356.38,161.2L361.38,161.2" style="fill:none;stroke:#5B1616" />
<path d="M356.38,180.24L361.38,180.24" style="fill:none;stroke:#5B1616" />
<path d="M367.94,159.86L367.94,179.34" style="fill:none;stroke:#5B1616" />
<path d="M365.44,159.86L370.44,159.86" style="fill:none;stroke:#5B1616" />
<path d="M365.44,179.34L370.44,179.34" style="fill:none;stroke:#5B1616" />
<path d="M377.01,157.32L377.01,172.47" style="fill:none;stroke:#5B1616" />
<path d="M374.51,157.32L379.51,157.32" style="fill:none;stroke:#5B1616" />
<path d="M374.51,172.47L379.51,172.47" style="fill:none;stroke:#5B1616" />
<path d="M386.07,185.83L386.07,196.23" style="fill:none;stroke:#5B1616" />
<path d="M383.57,185.83L388.57,185.83" style="fill:none;stroke:#5B1616" />
<path d="M383.57,196.23L388.57,196.23" style="fill:none;stroke:#5B1616" />
<path d="M395.14,176.37L395.14,199.33" style="fill:none;stroke:#5B1616" />
<path d="M392.64,176.37L397.64,176.37" style="fill:none;stroke:#5B1616" />
<path d="M392.64,199.33L397.64,199.33" style="fill:none;stroke:#5B1616" />
<path d="M404.2,168.77L404.2,189.11" style="fill:none;stroke:#5B1616" />
<path d="M401.7,168.77L406.7,168.77" style="fill:none;stroke:#5B1616" />
<path d="M401.7,189.11L406.7,189.11" style="fill:none;stroke:#5B1616" />
<path d="M413.27,183.09L413.27,192.77" style="fill:none;stroke:#5B1616" />
<path d="M410.77,183.09L415.77,183.09" style="fill:none;stroke:#5B1616" />
<path d="M410.77,192.77L415.77,192.77" style="fill:none;stroke:#5B1616" />
<path d="M422.33,179.82L422.33,212.38" style="fill:none;stroke:#5B1616" />
<path d="M419.83,179.82L424.83,179.82" style="fill:none;stroke:#5B1616" />
<path d="M419.83,212.38L424.83,212.38" style="fill:none;stroke:#5B1616" />
<path d="M431.4,184.55L431.4,202.79" style="fill:none;stroke:#5B1616" />
<path d="M428.9,184.55L433.9,184.55" style="fill:none;stroke:#5B1616" />
<path d="M428.9,202.79L433.9,202.79" style="fill:none;stroke:#5B1616" />
<path d="M440.46,202.67L440.46,214.22" style="fill:none;stroke:#5B1616" />
<path d="M437.96,202.67L442.96,202.67" style="fill:none;stroke:#5B1616" />
<path d="M437.96,214.22L442.96,214.22" style="fill:none;stroke:#5B1616" />
<path d="M449.52,204.72L449.52,217.87" style="fill:none;stroke:#5B1616" />
<path d="M447.02,204.72L452.02,204.72" style="fill:none;stroke:#5B1616" />
<path d="M447.02,217.87L452.02,217.87" style="fill:none;stroke:#5B1616" />
<path d="M458.59,187.3L458.59,214.47" style="fill:none;stroke:#5B1616" />
<path d="M456.09,187.3L461.09,187.3" style="fill:none;stroke:#5B1616" />
<path d="M456.09,214.47L461.09,214.47" style="fill:none;stroke:#5B1616" />
<path d="M467.65,194.64L467.65,211.8" style="fill:none;stroke:#5B1616" />
<path d="M465.15,194.64L470.15,194.64" style="fill:none;stroke:#5B1616" />
<path d="M465.15,211.8L470.15,211.8" style="fill:none;stroke:#5B1616" />
<path d="M476.72,195.14L476.72,208.87" style="fill:none;stroke:#5B1616" />
<path d="M474.22,195.14L479.22,195.14" style="fill:none;stroke:#5B1616" />
<path d="M474.22,208.87L479.22,208.87" style="fill:none;stroke:#5B1616" />
<path d="M485.78,200.57L485.78,221.89" style="fill:none;stroke:#5B1616" />
<path d="M483.28,200.57L488.28,200.57" style="fill:none;stroke:#5B1616" />
<path d="M483.28,221.89L488.28,221.89" style="fill:none;stroke:#5B1616" />
<path d="M494.85,217.15L494.85,244.02" style="fill:none;stroke:#5B1616" />
<path d="M492.35,217.15L497.35,217.15" style="fill:none;stroke:#5B1616" />
<path d="M492.35,244.02L497.35,244.02" style="fill:none;stroke:#5B1616" />
<path d="M503.91,246.29L503.91,261.74" style="fill:none;stroke:#5B1616" />
<path d="M501.41,246.29L506.41,246.29" style="fill:none;stroke:#5B1616" />
<path d="M501.41,261.74L506.41,261.74" style="fill:none;stroke:#5B1616" />
<path d="M512.98,257.52L512.98,273.43" style="fill:none;stroke:#5B1616" />
<path d="M510.48,257.52L515.48,257.52" style="fill:none;stroke:#5B1616" />
<path d="M510.48,273.43L515.48,273.43" style="fill:none;stroke:#5B1616" />
<path d="M522.04,265.82L522.04,290.92" style="fill:none;stroke:#5B1616" />
<path d="M519.54,265.82L524.54,265.82" style="fill:none;stroke:#5B1616" />
<path d="M519.54,290.92L524.54,290.92" style="fill:none;stroke:#5B1616" />
<path d="M531.11,288.22L531.11,305.21" style="fill:none;stroke:#5B1616" />
<path d="M528.61,288.22L533.61,288.22" style="fill:none;stroke:#5B1616" />
<path d="M528.61,305.21L533.61,305.21" style="fill:none;stroke:#5B1616" />
<path d="M540.17,315.5L540.17,330.54" style="fill:none;stroke:#5B1616" />
<path d="M537.67,315.5L542.67,315.5" style="fill:none;stroke:#5B1616" />
<path d="M537.67,330.54L542.67,330.54" style="fill:none;stroke:#5B1616" />
<path d="M549.24,325.3L549.24,350.87" style="fill:none;stroke:#5B1616" />
<path d="M546.74,325.3L551.74,325.3" style="fill:none;stroke:#5B1616" />
<path d="M546.74,350.87L551.74,350.87" style="fill:none;stroke:#5B1616" />
<path d="M558.3,350.93L558.3,371.69" style="fill:none;stroke:#5B1616" />
<path d="M555.8,350.93L560.8,350.93" style="fill:none;stroke:#5B1616" />
<path d="M555.8,371.69L560.8,371.69" style="fill:none;stroke:#5B1616" />
<path d="M567.37,383.49L567.37,395.24" style="fill:none;stroke:#5B1616" />
<path d="M564.87,383.49L569.87,383.49" style="fill:none;stroke:#5B1616" />
<path d="M564.87,395.24L569.87,395.24" style="fill:none;stroke:#5B1616" />
<path d="M576.43,426.65L576.43,440.04" style="fill:none;stroke:#5B1616" />
<path d="M573.93,426.65L578.93,426.65" style="fill:none;stroke:#5B1616" />
<path d="M573.93,440.04L578.93,440.04" style="fill:none;stroke:#5B1616" />
<path d="M585.5,429.71L585.5,431.83" style="fill:none;stroke:#5B1616" />
<path d="M583,429.71L588,429.71" style="fill:none;stroke:#5B1616" />
<path d="M583,431.83L588,431.83" style="fill:none;stroke:#5B1616" />
<path d="M594.56,491.82L594.56,520.39" style="fill:none;stroke:#5B1616" />
<path d="M592.06,491.82L597.06,491.82" style="fill:none;stroke:#5B1616" />
<path d="M592.06,520.39L597.06,520.39" style="fill:none;stroke:#5B1616" />
<path d="M603.63,550.74L603.63,567.27" style="fill:none;stroke:#5B1616" />
<path d="M601.13,550.74L606.13,550.74" style="fill:none;stroke:#5B1616" />
<path d="M601.13,567.27L606.13,567.27" style="fill:none;stroke:#5B1616" />
<path d="M612.69,611.76L612.69,621.63" style="fill:none;stroke:#5B1616" />
<path d="M610.19,611.76L615.19,611.76" style="fill:none;stroke:#5B1616" />
<path d="M610.19,621.63L615.19,621.63" style="fill:none;stroke:#5B1616" />
<path d="M621.76,667.46L621.76,693.52" style="fill:none;stroke:#5B1616" />
<path d="M619.26,667.46L624.26,667.46" style="fill:none;stroke:#5B1616" />
<path d="M619.26,693.52L624.26,693.52" style="fill:none;stroke:#5B1616" />
<path d="M630.82,688.74L630.82,708.28" style="fill:none;stroke:#5B1616" />
<path d="M628.32,688.74L633.32,688.74" style="fill:none;stroke:#5B1616" />
<path d="M628.32,708.28L633.32,708.28" style="fill:none;stroke:#5B1616" />
<path d="M639.89,765.76L639.89,777.22" style="fill:none;stroke:#5B1616" />
<path d="M637.39,765.76L642.39,765.76" style="fill:none;stroke:#5B1616" />
<path d="M637.39,777.22L642.39,777.22" style="fill:none;stroke:#5B1616" />
<path d="M648.95,749.53L648.95,763.84" style="fill:none;stroke:#5B1616" />
<path d="M646.45,749.53L651.45,749.53" style="fill:none;stroke:#5B1616" />
<path d="M646.45,763.84L651.45,763.84" style="fill:none;stroke:#5B1616" />
<path d="M658.02,678.82L658.02,712.11" style="fill:none;stroke:#5B1616" />
<path d="M655.52,678.82L660.52,678.82" style="fill:none;stroke:#5B1616" />
<path d="M655.52,712.11L660.52,712.11" style="fill:none;stroke:#5B1616" />
<path d="M667.08,643.87L667.08,677.85" style="fill:none;stroke:#5B1616" />
<path d="M664.58,643.87L669.58,643.87" style="fill:none;stroke:#5B1616" />
<path d="M664.58,677.85L669.58,677.85" style="fill:none;stroke:#5B1616" />
<path d="M676.15,594.18L676.15,612.82" style="fill:none;stroke:#5B1616" />
<path d="M673.65,594.18L678.65,594.18" style="fill:none;stroke:#5B1616" />
<path d="M673.65,612.82L678.65,612.82" style="fill:none;stroke:#5B1616" />
<path d="M685.21,517.03L685.21,543.06" style="fill:none;stroke:#5B1616" />
<path d="M682.71,517.03L687.71,517.03" style="fill:none;stroke:#5B1616" />
<path d="M682.71,543.06L687.71,543.06" style="fill:none;stroke:#5B1616" />
<path d="M694.28,493.23L694.28,503.78" style="fill:none;stroke:#5B1616" />
<path d="M691.78,493.23L696.78,493.23" style="fill:none;stroke:#5B1616" />
<path d="M691.78,503.78L696.78,503.78" style="fill:none;stroke:#5B1616" />
<path d="M703.34,435.11L703.34,446.65" style="fill:none;stroke:#5B1616" />
<path d="M700.84,435.11L705.84,435.11" style="fill:none;stroke:#5B1616" />
<path d="M700.84,446.65L705.84,446.65" style="fill:none;stroke:#5B1616" />
<path d="M712.41,405.17L712.41,419.77" style="fill:none;stroke:#5B1616" />
<path d="M709.91,405.17L714.91,405.17" style="fill:none;stroke:#5B1616" />
<path d="M709.91,419.77L714.91,419.77" style="fill:none;stroke:#5B1616" />
<path d="M721.47,381.13L721.47,391.78" style="fill:none;stroke:#5B1616" />
<path d="M718.97,381.13L723.97,381.13" style="fill:none;stroke:#5B1616" />
<path d="M718.97,391.78L723.97,391.78" style="fill:none;stroke:#5B1616" />
<path d="M730.54,352.31L730.54,362.31" style="fill:none;stroke:#5B1616" />
<path d="M728.04,352.31L733.04,352.31" style="fill:none;stroke:#5B1616" />
<path d="M728.04,362.31L733.04,362.31" style="fill:none;stroke:#5B1616" />
<path d="M739.6,327.15L739.6,343.42" style="fill:none;stroke:#5B1616" />
<path d="M737.1,327.15L742.1,327.15" style="fill:none;stroke:#5B1616" />
<path d="M737.1,343.42L742.1,343.42" style="fill:none;stroke:#5B1616" />
<path d="M748.67,299.92L748.67,307.65" style="fill:none;stroke:#5B1616" />
<path d="M746.17,299.92L751.17,299.92" style="fill:none;stroke:#5B1616" />
<path d="M746.17,307.65L751.17,307.65" style="fill:none;stroke:#5B1616" />
<path d="M757.73,281.41L757.73,293.34" style="fill:none;stroke:#5B1616" />
<path d="M755.23,281.41L760.23,281.41" style="fill:none;stroke:#5B1616" />
<path d="M755.23,293.34L760.23,293.34" style="fill:none;stroke:#5B1616" />
<path d="M766.79,272.51L766.79,284.66" style="fill:none;stroke:#5B1616" />
<path d="M764.29,272.51L769.29,272.51" style="fill:none;stroke:#5B1616" />
<path d="M764.29,284.66L769.29,284.66" style="fill:none;stroke:#5B1616" />
<path d="M775.86,260.56L775.86,271.99" style="fill:none;stroke:#5B1616" />
<path d="M773.36,260.56L778.36,260.56" style="fill:none;stroke:#5B1616" />
<path d="M773.36,271.99L778.36,271.99" style="fill:none;stroke:#5B1616" />
<path d="M784.92,249.27L784.92,272.16" style="fill:none;stroke:#5B1616" />
<path d="M782.42,249.27L787.42,249.27" style="fill:none;stroke:#5B1616" />
<path d="M782.42,272.16L787.42,272.16" style="fill:none;stroke:#5B1616" />
<path d="M793.99,249.76L793.99,262.25" style="fill:none;stroke:#5B1616" />
<path d="M791.49,249.76L796.49,249.76" style="fill:none;stroke:#5B1616" />
<path d="M791.49,262.25L796.49,262.25" style="fill:none;stroke:#5B1616" />
<path d="M803.05,234.49L803.05,259.46" style="fill:none;stroke:#5B1616" />
<path d="M800.55,234.49L805.55,234.49" style="fill:none;stroke:#5B1616" />
<path d="M800.55,259.46L805.55,259.46" style="fill:none;stroke:#5B1616" />
<path d="M812.12,233.05L812.12,254.77" style="fill:none;stroke:#5B1616" />
<path d="M809.62,233.05L814.62,233.05" style="fill:none;stroke:#5B1616" />
<path d="M809.62,254.77L814.62,254.77" style="fill:none;stroke:#5B1616" />
<path d="M821.18,237.17L821.18,249.63" style="fill:none;stroke:#5B1616" />
<path d="M818.68,237.17L823.68,237.17" style="fill:none;stroke:#5B1616" />
<path d="M818.68,249.63L823.68,249.63" style="fill:none;stroke:#5B1616" />
<path d="M830.25,238.9L830.25,246.21" style="fill:none;stroke:#5B1616" />
<path d="M827.75,238.9L832.75,238.9" style="fill:none;stroke:#5B1616" />
<path d="M827.75,246.21L832.75,246.21" style="fill:none;stroke:#5B1616" />
<path d="M839.31,231.4L839.31,249.09" style="fill:none;stroke:#5B1616" />
<path d="M836.81,231.4L841.81,231.4" style="fill:none;stroke:#5B1616" />
<path d="M836.81,249.09L841.81,249.09" style="fill:none;stroke:#5B1616" />
<path d="M848.38,234.78L848.38,236.99" style="fill:none;stroke:#5B1616" />
<path d="M845.88,234.78L850.88,234.78" style="fill:none;stroke:#5B1616" />
<path d="M845.88,236.99L850.88,236.99" style="fill:none;stroke:#5B1616" />
<path d="M857.44,235.79L857.44,246.1" style="fill:none;stroke:#5B1616" />
<path d="M854.94,235.79L859.94,235.79" style="fill:none;stroke:#5B1616" />
<path d="M854.94,246.1L859.94,246.1" style="fill:none;stroke:#5B1616" />
<path d="M866.51,230.24L866.51,246.82" style="fill:none;stroke:#5B1616" />
<path d="M864.01,230.24L869.01,230.24" style="fill:none;stroke:#5B1616" />
<path d="M864.01,246.82L869.01,246.82" style="fill:none;stroke:#5B1616" />
<path d="M875.57,217.26L875.57,235.11" style="fill:none;stroke:#5B1616" />
<path d="M873.07,217.26L878.07,217.26" style="fill:none;stroke:#5B1616" />
<path d="M873.07,235.11L878.07,235.11" style="fill:none;stroke:#5B1616" />
<path d="M884.64,229.87L884.64,238.49" style="fill:none;stroke:#5B1616" />
<path d="M882.14,229.87L887.14,229.87" style="fill:none;stroke:#5B1616" />
<path d="M882.14,238.49L887.14,238.49" style="fill:none;stroke:#5B1616" />
<path d="M893.7,223.79L893.7,233.62" style="fill:none;stroke:#5B1616" />
<path d="M891.2,223.79L896.2,223.79" style="fill:none;stroke:#5B1616" />
<path d="M891.2,233.62L896.2,233.62" style="fill:none;stroke:#5B1616" />
<path d="M902.77,216.14L902.77,225.23" style="fill:none;stroke:#5B1616" />
<path d="M900.27,216.14L905.27,216.14" style="fill:none;stroke:#5B1616" />
<path d="M900.27,225.23L905.27,225.23" style="fill:none;stroke:#5B1616" />
<path d="M911.83,229.83L911.83,235.39" style="fill:none;stroke:#5B1616" />
<path d="M909.33,229.83L914.33,229.83" style="fill:none;stroke:#5B1616" />
<path d="M909.33,235.39L914.33,235.39" style="fill:none;stroke:#5B1616" />
<path d="M920.9,222.04L920.9,233.67" style="fill:none;stroke:#5B1616" />
<path d="M918.4,222.04L923.4,222.04" style="fill:none;stroke:#5B1616" />
<path d="M918.4,233.67L923.4,233.67" style="fill:none;stroke:#5B1616" />
<path d="M929.96,225.01L929.96,237.89" style="fill:none;stroke:#5B1616" />
<path d="M927.46,225.01L932.46,225.01" style="fill:none;stroke:#5B1616" />
<path d="M927.46,237.89L932.46,237.89" style="fill:none;stroke:#5B1616" />
<path d="M939.03,214.93L939.03,233.69" style="fill:none;stroke:#5B1616" />
<path d="M936.53,214.93L941.53,214.93" style="fill:none;stroke:#5B1616" />
<path d="M936.53,233.69L941.53,233.69" style="fill:none;stroke:#5B1616" />
<path d="M948.09,218.03L948.09,240.57" style="fill:none;stroke:#5B1616" />
<path d="M945.59,218.03L950.59,218.03" style="fill:none;stroke:#5B1616" />
<path d="M945.59,240.57L950.59,240.57" style="fill:none;stroke:#5B1616" />
<path d="M957.16,206.1L957.16,230.48" style="fill:none;stroke:#5B1616" />
<path d="M954.66,206.1L959.66,206.1" style="fill:none;stroke:#5B1616" />
<path d="M954.66,230.48L959.66,230.48" style="fill:none;stroke:#5B1616" />
<path d="M966.22,221.67L966.22,235.26" style="fill:none;stroke:#5B1616" />
<path d="M963.72,221.67L968.72,221.67" style="fill:none;stroke:#5B1616" />
<path d="M963.72,235.26L968.72,235.26" style="fill:none;stroke:#5B1616" />
<path d="M975.29,224.52L975.29,242.62" style="fill:none;stroke:#5B1616" />
<path d="M972.79,224.52L977.79,224.52" style="fill:none;stroke:#5B1616" />
<path d="M972.79,242.62L977.79,242.62" style="fill:none;stroke:#5B1616" />
<path d="M984.35,233.97L984.35,241.82" style="fill:none;stroke:#5B1616" />
<path d="M981.85,233.97L986.85,233.97" style="fill:none;stroke:#5B1616" />
<path d="M981.85,241.82L986.85,241.82" style="fill:none;stroke:#5B1616" />
<path d="M993.42,238.45L993.42,247.39" style="fill:none;stroke:#5B1616" />
<path d="M990.92,238.45L995.92,238.45" style="fill:none;stroke:#5B1616" />
<path d="M990.92,247.39L995.92,247.39" style="fill:none;stroke:#5B1616" />
<path d="M1002.5,227.58L1002.5,242.33" style="fill:none;stroke:#5B1616" />
<path d="M999.98,227.58L1005,227.58" style="fill:none;stroke:#5B1616" />
<path d="M999.98,242.33L1005,242.33" style="fill:none;stroke:#5B1616" />
<path d="M1011.5,241.18L1011.5,249.44" style="fill:none;stroke:#5B1616" />
<path d="M1009,241.18L1014,241.18" style="fill:none;stroke:#5B1616" />
<path d="M1009,249.44L1014,249.44" style="fill:none;stroke:#5B1616" />
<path d="M1020.6,243.39L1020.6,258.61" style="fill:none;stroke:#5B1616" />
<path d="M1018.1,243.39L1023.1,243.39" style="fill:none;stroke:#5B1616" />
<path d="M1018.1,258.61L1023.1,258.61" style="fill:none;stroke:#5B1616" />
<path d="M1029.7,225.74L1029.7,236.66" style="fill:none;stroke:#5B1616" />
<path d="M1027.2,225.74L1032.2,225.74" style="fill:none;stroke:#5B1616" />
<path d="M1027.2,236.66L1032.2,236.66" style="fill:none;stroke:#5B1616" />
<path d="M1038.7,239.87L1038.7,265.5" style="fill:none;stroke:#5B1616" />
<path d="M1036.2,239.87L1041.2,239.87" style="fill:none;stroke:#5B1616" />
<path d="M1036.2,265.5L1041.2,265.5" style="fill:none;stroke:#5B1616" />
<path d="M1047.8,249.59L1047.8,268.78" style="fill:none;stroke:#5B1616" />
<path d="M1045.3,249.59L1050.3,249.59" style="fill:none;stroke:#5B1616" />
<path d="M1045.3,268.78L1050.3,268.78" style="fill:none;stroke:#5B1616" />
<path d="M1056.9,245.51L1056.9,267.08" style="fill:none;stroke:#5B1616" />
<path d="M1054.4,245.51L1059.4,245.51" style="fill:none;stroke:#5B1616" />
<path d="M1054.4,267.08L1059.4,267.08" style="fill:none;stroke:#5B1616" />
<path d="M1065.9,242.42L1065.9,264.19" style="fill:none;stroke:#5B1616" />
<path d="M1063.4,242.42L1068.4,242.42" style="fill:none;stroke:#5B1616" />
<path d="M1063.4,264.19L1068.4,264.19" style="fill:none;stroke:#5B1616" />
<path d="M1075,246.99L1075,271.08" style="fill:none;stroke:#5B1616" />
<path d="M1072.5,246.99L1077.5,246.99" style="fill:none;stroke:#5B1616" />
<path d="M1072.5,271.08L1077.5,271.08" style="fill:none;stroke:#5B1616" />
<path d="M200.71,139.08A5,5 0 1 1 190.71,139.08A5,5 0 1 1 200.71,139.08Z" style="fill:#5B1616" />
<path d="M209.77,148.56A5,5 0 1 1 199.77,148.56A5,5 0 1 1 209.77,148.56Z" style="fill:#5B1616" />
<path d="M218.84,157.52A5,5 0 1 1 208.84,157.52A5,5 0 1 1 218.84,157.52Z" style="fill:#5B1616" />
<path d="M227.9,153.47A5,5 0 1 1 217.9,153.47A5,5 0 1 1 227.9,153.47Z" style="fill:#5B1616" />
<path d="M236.97,174.73A5,5 0 1 1 226.97,174.73A5,5 0 1 1 236.97,174.73Z" style="fill:#5B1616" />
<path d="M246.03,158.66A5,5 0 1 1 236.03,158.66A5,5 0 1 1 246.03,158.66Z" style="fill:#5B1616" />
<path d="M255.1,159.68A5,5 0 1 1 245.1,159.68A5,5 0 1 1 255.1,159.68Z" style="fill:#5B1616" />
<path d="M264.16,167.44A5,5 0 1 1 254.16,167.44A5,5 0 1 1 264.16,167.44Z" style="fill:#5B1616" />
<path d="M273.23,158.13A5,5 0 1 1 263.23,158.13A5,5 0 1 1 273.23,158.13Z" style="fill:#5B1616" />
<path d="M282.29,144.55A5,5 0 1 1 272.29,144.55A5,5 0 1 1 282.29,144.55Z" style="fill:#5B1616" />
<path d="M291.36,168.2A5,5 0 1 1 281.36,168.2A5,5 0 1 1 291.36,168.2Z" style="fill:#5B1616" />
<path d="M300.42,168.68A5,5 0 1 1 290.42,168.68A5,5 0 1 1 300.42,168.68Z" style="fill:#5B1616" />
<path d="M309.49,161.31A5,5 0 1 1 299.49,161.31A5,5 0 1 1 309.49,161.31Z" style="fill:#5B1616" />
<path d="M318.55,182.17A5,5 0 1 1 308.55,182.17A5,5 0 1 1 318.55,182.17Z" style="fill:#5B1616" />
<path d="M327.62,181.73A5,5 0 1 1 317.62,181.73A5,5 0 1 1 327.62,181.73Z" style="fill:#5B1616" />
<path d="M336.68,176.48A5,5 0 1 1 326.68,176.48A5,5 0 1 1 336.68,176.48Z" style="fill:#5B1616" />
<path d="M345.75,177.74A5,5 0 1 1 335.75,177.74A5,5 0 1 1 345.75,177.74Z" style="fill:#5B1616" />
<path d="M354.81,171.66A5,5 0 1 1 344.81,171.66A5,5 0 1 1 354.81,171.66Z" style="fill:#5B1616" />
<path d="M363.88,170.72A5,5 0 1 1 353.88,170.72A5,5 0 1 1 363.88,170.72Z" style="fill:#5B1616" />
<path d="M372.94,169.6A5,5 0 1 1 362.94,169.6A5,5 0 1 1 372.94,169.6Z" style="fill:#5B1616" />
<path d="M382.01,164.89A5,5 0 1 1 372.01,164.89A5,5 0 1 1 382.01,164.89Z" style="fill:#5B1616" />
<path d="M391.07,191.03A5,5 0 1 1 381.07,191.03A5,5 0 1 1 391.07,191.03Z" style="fill:#5B1616" />
<path d="M400.14,187.85A5,5 0 1 1 390.14,187.85A5,5 0 1 1 400.14,187.85Z" style="fill:#5B1616" />
<path d="M409.2,178.94A5,5 0 1 1 399.2,178.94A5,5 0 1 1 409.2,178.94Z" style="fill:#5B1616" />
<path d="M418.27,187.93A5,5 0 1 1 408.27,187.93A5,5 0 1 1 418.27,187.93Z" style="fill:#5B1616" />
<path d="M427.33,196.1A5,5 0 1 1 417.33,196.1A5,5 0 1 1 427.33,196.1Z" style="fill:#5B1616" />
<path d="M436.4,193.67A5,5 0 1 1 426.4,193.67A5,5 0 1 1 436.4,193.67Z" style="fill:#5B1616" />
<path d="M445.46,208.44A5,5 0 1 1 435.46,208.44A5,5 0 1 1 445.46,208.44Z" style="fill:#5B1616" />
<path d="M454.52,211.3A5,5 0 1 1 444.52,211.3A5,5 0 1 1 454.52,211.3Z" style="fill:#5B1616" />
<path d="M463.59,200.89A5,5 0 1 1 453.59,200.89A5,5 0 1 1 463.59,200.89Z" style="fill:#5B1616" />
<path d="M472.65,203.22A5,5 0 1 1 462.65,203.22A5,5 0 1 1 472.65,203.22Z" style="fill:#5B1616" />
<path d="M481.72,202A5,5 0 1 1 471.72,202A5,5 0 1 1 481.72,202Z" style="fill:#5B1616" />
<path d="M490.78,211.23A5,5 0 1 1 480.78,211.23A5,5 0 1 1 490.78,211.23Z" style="fill:#5B1616" />
<path d="M499.85,230.59A5,5 0 1 1 489.85,230.59A5,5 0 1 1 499.85,230.59Z" style="fill:#5B1616" />
<path d="M508.91,254.01A5,5 0 1 1 498.91,254.01A5,5 0 1 1 508.91,254.01Z" style="fill:#5B1616" />
<path d="M517.98,265.47A5,5 0 1 1 507.98,265.47A5,5 0 1 1 517.98,265.47Z" style="fill:#5B1616" />
<path d="M527.04,278.37A5,5 0 1 1 517.04,278.37A5,5 0 1 1 527.04,278.37Z" style="fill:#5B1616" />
<path d="M536.11,296.71A5,5 0 1 1 526.11,296.71A5,5 0 1 1 536.11,296.71Z" style="fill:#5B1616" />
<path d="M545.17,323.02A5,5 0 1 1 535.17,323.02A5,5 0 1 1 545.17,323.02Z" style="fill:#5B1616" />
<path d="M554.24,338.08A5,5 0 1 1 544.24,338.08A5,5 0 1 1 554.24,338.08Z" style="fill:#5B1616" />
<path d="M563.3,361.31A5,5 0 1 1 553.3,361.31A5,5 0 1 1 563.3,361.31Z" style="fill:#5B1616" />
<path d="M572.37,389.37A5,5 0 1 1 562.37,389.37A5,5 0 1 1 572.37,389.37Z" style="fill:#5B1616" />
<path d="M581.43,433.35A5,5 0 1 1 571.43,433.35A5,5 0 1 1 581.43,433.35Z" style="fill:#5B1616" />
<path d="M590.5,430.77A5,5 0 1 1 580.5,430.77A5,5 0 1 1 590.5,430.77Z" style="fill:#5B1616" />
<path d="M599.56,506.1A5,5 0 1 1 589.56,506.1A5,5 0 1 1 599.56,506.1Z" style="fill:#5B1616" />
<path d="M608.63,559A5,5 0 1 1 598.63,559A5,5 0 1 1 608.63,559Z" style="fill:#5B1616" />
<path d="M617.69,616.7A5,5 0 1 1 607.69,616.7A5,5 0 1 1 617.69,616.7Z" style="fill:#5B1616" />
<path d="M626.76,680.49A5,5 0 1 1 616.76,680.49A5,5 0 1 1 626.76,680.49Z" style="fill:#5B1616" />
<path d="M635.82,698.51A5,5 0 1 1 625.82,698.51A5,5 0 1 1 635.82,698.51Z" style="fill:#5B1616" />
<path d="M644.89,771.49A5,5 0 1 1 634.89,771.49A5,5 0 1 1 644.89,771.49Z" style="fill:#5B1616" />
<path d="M653.95,756.69A5,5 0 1 1 643.95,756.69A5,5 0 1 1 653.95,756.69Z" style="fill:#5B1616" />
<path d="M663.02,695.46A5,5 0 1 1 653.02,695.46A5,5 0 1 1 663.02,695.46Z" style="fill:#5B1616" />
<path d="M672.08,660.86A5,5 0 1 1 662.08,660.86A5,5 0 1 1 672.08,660.86Z" style="fill:#5B1616" />
<path d="M681.15,603.5A5,5 0 1 1 671.15,603.5A5,5 0 1 1 681.15,603.5Z" style="fill:#5B1616" />
<path d="M690.21,530.04A5,5 0 1 1 680.21,530.04A5,5 0 1 1 690.21,530.04Z" style="fill:#5B1616" />
<path d="M699.28,498.5A5,5 0 1 1 689.28,498.5A5,5 0 1 1 699.28,498.5Z" style="fill:#5B1616" />
<path d="M708.34,440.88A5,5 0 1 1 698.34,440.88A5,5 0 1 1 708.34,440.88Z" style="fill:#5B1616" />
<path d="M717.41,412.47A5,5 0 1 1 707.41,412.47A5,5 0 1 1 717.41,412.47Z" style="fill:#5B1616" />
<path d="M726.47,386.46A5,5 0 1 1 716.47,386.46A5,5 0 1 1 726.47,386.46Z" style="fill:#5B1616" />
<path d="M735.54,357.31A5,5 0 1 1 725.54,357.31A5,5 0 1 1 735.54,357.31Z" style="fill:#5B1616" />
<path d="M744.6,335.29A5,5 0 1 1 734.6,335.29A5,5 0 1 1 744.6,335.29Z" style="fill:#5B1616" />
<path d="M753.67,303.78A5,5 0 1 1 743.67,303.78A5,5 0 1 1 753.67,303.78Z" style="fill:#5B1616" />
<path d="M762.73,287.38A5,5 0 1 1 752.73,287.38A5,5 0 1 1 762.73,287.38Z" style="fill:#5B1616" />
<path d="M771.79,278.59A5,5 0 1 1 761.79,278.59A5,5 0 1 1 771.79,278.59Z" style="fill:#5B1616" />
<path d="M780.86,266.28A5,5 0 1 1 770.86,266.28A5,5 0 1 1 780.86,266.28Z" style="fill:#5B1616" />
<path d="M789.92,260.72A5,5 0 1 1 779.92,260.72A5,5 0 1 1 789.92,260.72Z" style="fill:#5B1616" />
<path d="M798.99,256A5,5 0 1 1 788.99,256A5,5 0 1 1 798.99,256Z" style="fill:#5B1616" />
<path d="M808.05,246.97A5,5 0 1 1 798.05,246.97A5,5 0 1 1 808.05,246.97Z" style="fill:#5B1616" />
<path d="M817.12,243.91A5,5 0 1 1 807.12,243.91A5,5 0 1 1 817.12,243.91Z" style="fill:#5B1616" />
<path d="M826.18,243.4A5,5 0 1 1 816.18,243.4A5,5 0 1 1 826.18,243.4Z" style="fill:#5B1616" />
<path d="M835.25,242.55A5,5 0 1 1 825.25,242.55A5,5 0 1 1 835.25,242.55Z" style="fill:#5B1616" />
<path d="M844.31,240.24A5,5 0 1 1 834.31,240.24A5,5 0 1 1 844.31,240.24Z" style="fill:#5B1616" />
<path d="M853.38,235.88A5,5 0 1 1 843.38,235.88A5,5 0 1 1 853.38,235.88Z" style="fill:#5B1616" />
<path d="M862.44,240.94A5,5 0 1 1 852.44,240.94A5,5 0 1 1 862.44,240.94Z" style="fill:#5B1616" />
<path d="M871.51,238.53A5,5 0 1 1 861.51,238.53A5,5 0 1 1 871.51,238.53Z" style="fill:#5B1616" />
<path d="M880.57,226.18A5,5 0 1 1 870.57,226.18A5,5 0 1 1 880.57,226.18Z" style="fill:#5B1616" />
<path d="M889.64,234.18A5,5 0 1 1 879.64,234.18A5,5 0 1 1 889.64,234.18Z" style="fill:#5B1616" />
<path d="M898.7,228.7A5,5 0 1 1 888.7,228.7A5,5 0 1 1 898.7,228.7Z" style="fill:#5B1616" />
<path d="M907.77,220.69A5,5 0 1 1 897.77,220.69A5,5 0 1 1 907.77,220.69Z" style="fill:#5B1616" />
<path d="M916.83,232.61A5,5 0 1 1 906.83,232.61A5,5 0 1 1 916.83,232.61Z" style="fill:#5B1616" />
<path d="M925.9,227.85A5,5 0 1 1 915.9,227.85A5,5 0 1 1 925.9,227.85Z" style="fill:#5B1616" />
<path d="M934.96,231.45A5,5 0 1 1 924.96,231.45A5,5 0 1 1 934.96,231.45Z" style="fill:#5B1616" />
<path d="M944.03,224.31A5,5 0 1 1 934.03,224.31A5,5 0 1 1 944.03,224.31Z" style="fill:#5B1616" />
<path d="M953.09,229.3A5,5 0 1 1 943.09,229.3A5,5 0 1 1 953.09,229.3Z" style="fill:#5B1616" />
<path d="M962.16,218.29A5,5 0 1 1 952.16,218.29A5,5 0 1 1 962.16,218.29Z" style="fill:#5B1616" />
<path d="M971.22,228.47A5,5 0 1 1 961.22,228.47A5,5 0 1 1 971.22,228.47Z" style="fill:#5B1616" />
<path d="M980.29,233.57A5,5 0 1 1 970.29,233.57A5,5 0 1 1 980.29,233.57Z" style="fill:#5B1616" />
<path d="M989.35,237.9A5,5 0 1 1 979.35,237.9A5,5 0 1 1 989.35,237.9Z" style="fill:#5B1616" />
<path d="M998.42,242.92A5,5 0 1 1 988.42,242.92A5,5 0 1 1 998.42,242.92Z" style="fill:#5B1616" />
<path d="M1007.5,234.95A5,5 0 1 1 997.48,234.95A5,5 0 1 1 1007.5,234.95Z" style="fill:#5B1616" />
<path d="M1016.5,245.31A5,5 0 1 1 1006.5,245.31A5,5 0 1 1 1016.5,245.31Z" style="fill:#5B1616" />
<path d="M1025.6,251A5,5 0 1 1 1015.6,251A5,5 0 1 1 1025.6,251Z" style="fill:#5B1616" />
<path d="M1034.7,231.2A5,5 0 1 1 1024.7,231.2A5,5 0 1 1 1034.7,231.2Z" style="fill:#5B1616" />
<path d="M1043.7,252.69A5,5 0 1 1 1033.7,252.69A5,5 0 1 1 1043.7,252.69Z" style="fill:#5B1616" />
<path d="M1052.8,259.19A5,5 0 1 1 1042.8,259.19A5,5 0 1 1 1052.8,259.19Z" style="fill:#5B1616" />
<path d="M1061.9,256.29A5,5 0 1 1 1051.9,256.29A5,5 0 1 1 1061.9,256.29Z" style="fill:#5B1616" />
<path d="M1070.9,253.31A5,5 0 1 1 1060.9,253.31A5,5 0 1 1 1070.9,253.31Z" style="fill:#5B1616" />
<path d="M1080,259.03A5,5 0 1 1 1070,259.03A5,5 0 1 1 1080,259.03Z" style="fill:#5B1616" />
<path d="M195.71,974.14L1075,974.14" style="fill:none;stroke:#000000" />
<path d="M1075,108.82L1075,974.14" style="fill:none;stroke:#000000" />
<path d="M1038,942.02A8,8 0 1 1 1022,942.02A8,8 0 1 1 1038,942.02Z" style="fill:#5B1616" />
<text x="718.88" y="-933.54" transform="scale(1, -1)"
	style="font-family:Helvetica;font-weight:normal;font-style:normal;font-size:36px">1ms dwell 5 avgs</text>
</g>
</svg>
