<?xml version="1.0"?>
<!-- Generated by SVGo and Plotinum VG -->
<svg width="1080pt" height="1080pt" viewBox="0 0 1080 1080"
	xmlns="http://www.w3.org/2000/svg"
	xmlns:xlink="http://www.w3.org/1999/xlink">
<g transform="scale(1, -1) translate(0, -1080)">
<path d="M0,0L1080,0L1080,1080L0,1080Z" style="fill:#-8000000000000000-8000000000000000-8000000000000000;fill-opacity:0" />
<text x="533.05" y="-1039.5" transform="scale(1, -1)"
	style="font-family:Helvetica;font-weight:normal;font-style:normal;font-size:50px"> </text>
<text x="446.05" y="-11.039" transform="scale(1, -1)"
	style="font-family:Helvetica;font-weight:normal;font-style:normal;font-size:36px">Pump Power (mW)</text>
<text x="136.15" y="-71.258" transform="scale(1, -1)"
	style="font-family:Helvetica;font-weight:normal;font-style:normal;font-size:36px">0</text>
<text x="276.78" y="-71.258" transform="scale(1, -1)"
	style="font-family:Helvetica;font-weight:normal;font-style:normal;font-size:36px">50</text>
<text x="417.4" y="-71.258" transform="scale(1, -1)"
	style="font-family:Helvetica;font-weight:normal;font-style:normal;font-size:36px">100</text>
<text x="568.03" y="-71.258" transform="scale(1, -1)"
	style="font-family:Helvetica;font-weight:normal;font-style:normal;font-size:36px">150</text>
<text x="718.67" y="-71.258" transform="scale(1, -1)"
	style="font-family:Helvetica;font-weight:normal;font-style:normal;font-size:36px">200</text>
<text x="869.3" y="-71.258" transform="scale(1, -1)"
	style="font-family:Helvetica;font-weight:normal;font-style:normal;font-size:36px">250</text>
<text x="1019.9" y="-71.258" transform="scale(1, -1)"
	style="font-family:Helvetica;font-weight:normal;font-style:normal;font-size:36px">300</text>
<path d="M146.16,116.44L146.16,108.44" style="fill:none;stroke:#000000;stroke-width:1.5" />
<path d="M221.48,112.44L221.48,108.44" style="fill:none;stroke:#000000;stroke-width:1.5" />
<path d="M296.8,116.44L296.8,108.44" style="fill:none;stroke:#000000;stroke-width:1.5" />
<path d="M372.11,112.44L372.11,108.44" style="fill:none;stroke:#000000;stroke-width:1.5" />
<path d="M447.43,116.44L447.43,108.44" style="fill:none;stroke:#000000;stroke-width:1.5" />
<path d="M522.75,112.44L522.75,108.44" style="fill:none;stroke:#000000;stroke-width:1.5" />
<path d="M598.07,116.44L598.07,108.44" style="fill:none;stroke:#000000;stroke-width:1.5" />
<path d="M673.38,112.44L673.38,108.44" style="fill:none;stroke:#000000;stroke-width:1.5" />
<path d="M748.7,116.44L748.7,108.44" style="fill:none;stroke:#000000;stroke-width:1.5" />
<path d="M824.02,112.44L824.02,108.44" style="fill:none;stroke:#000000;stroke-width:1.5" />
<path d="M899.33,116.44L899.33,108.44" style="fill:none;stroke:#000000;stroke-width:1.5" />
<path d="M974.65,112.44L974.65,108.44" style="fill:none;stroke:#000000;stroke-width:1.5" />
<path d="M1050,116.44L1050,108.44" style="fill:none;stroke:#000000;stroke-width:1.5" />
<path d="M146.16,108.44L1050,108.44" style="fill:none;stroke:#000000;stroke-width:1.5" />
<g transform="rotate(90)">
<text x="423.62" y="29.18" transform="scale(1, -1)"
	style="font-family:Helvetica;font-weight:normal;font-style:normal;font-size:36px">FWHM (MHz)</text>
</g>
<text x="87.869" y="-266.95" transform="scale(1, -1)"
	style="font-family:Helvetica;font-weight:normal;font-style:normal;font-size:36px">80</text>
<text x="87.869" y="-610.36" transform="scale(1, -1)"
	style="font-family:Helvetica;font-weight:normal;font-style:normal;font-size:36px">90</text>
<text x="67.848" y="-953.77" transform="scale(1, -1)"
	style="font-family:Helvetica;font-weight:normal;font-style:normal;font-size:36px">100</text>
<path d="M149.91,104.32L145.91,104.32" style="fill:none;stroke:#000000;stroke-width:1.5" />
<path d="M153.91,276.02L145.91,276.02" style="fill:none;stroke:#000000;stroke-width:1.5" />
<path d="M149.91,447.73L145.91,447.73" style="fill:none;stroke:#000000;stroke-width:1.5" />
<path d="M153.91,619.43L145.91,619.43" style="fill:none;stroke:#000000;stroke-width:1.5" />
<path d="M149.91,791.13L145.91,791.13" style="fill:none;stroke:#000000;stroke-width:1.5" />
<path d="M153.91,962.84L145.91,962.84" style="fill:none;stroke:#000000;stroke-width:1.5" />
<path d="M145.91,104.32L145.91,962.84" style="fill:none;stroke:#000000;stroke-width:1.5" />
<path d="M182.29,539.88A6,6 0 1 1 170.29,539.88A6,6 0 1 1 182.29,539.88Z" style="fill:#1BAA8B" />
<path d="M146.16,962.84L1050,962.84" style="fill:none;stroke:#000000" />
<path d="M1050,104.32L1050,962.84" style="fill:none;stroke:#000000" />
<path d="M176.29,104.32L176.29,539.88" style="fill:none;stroke:#1BAA8B;stroke-width:4;stroke-dasharray:15,5" />
<path d="M146.16,539.88L176.29,539.88" style="fill:none;stroke:#7F7F7F;stroke-dasharray:5,5" />
<path d="M242.54,595.49A6,6 0 1 1 230.54,595.49A6,6 0 1 1 242.54,595.49Z" style="fill:#BC75FF" />
<path d="M146.16,962.84L1050,962.84" style="fill:none;stroke:#000000" />
<path d="M1050,104.32L1050,962.84" style="fill:none;stroke:#000000" />
<path d="M236.54,104.32L236.54,595.49" style="fill:none;stroke:#BC75FF;stroke-width:4;stroke-dasharray:15,5" />
<path d="M146.16,595.49L236.54,595.49" style="fill:none;stroke:#7F7F7F;stroke-dasharray:5,5" />
<path d="M302.8,654.46A6,6 0 1 1 290.8,654.46A6,6 0 1 1 302.8,654.46Z" style="fill:#8C2E31" />
<path d="M146.16,962.84L1050,962.84" style="fill:none;stroke:#000000" />
<path d="M1050,104.32L1050,962.84" style="fill:none;stroke:#000000" />
<path d="M296.8,104.32L296.8,654.46" style="fill:none;stroke:#8C2E31;stroke-width:4;stroke-dasharray:15,5" />
<path d="M146.16,654.46L296.8,654.46" style="fill:none;stroke:#7F7F7F;stroke-dasharray:5,5" />
<path d="M363.05,656.81A6,6 0 1 1 351.05,656.81A6,6 0 1 1 363.05,656.81Z" style="fill:#5B1616" />
<path d="M146.16,962.84L1050,962.84" style="fill:none;stroke:#000000" />
<path d="M1050,104.32L1050,962.84" style="fill:none;stroke:#000000" />
<path d="M357.05,104.32L357.05,656.81" style="fill:none;stroke:#5B1616;stroke-width:4;stroke-dasharray:15,5" />
<path d="M146.16,656.81L357.05,656.81" style="fill:none;stroke:#7F7F7F;stroke-dasharray:5,5" />
</g>
</svg>
