<?xml version="1.0"?>
<!-- Generated by SVGo and Plotinum VG -->
<svg width="1080pt" height="1080pt" viewBox="0 0 1080 1080"
	xmlns="http://www.w3.org/2000/svg"
	xmlns:xlink="http://www.w3.org/1999/xlink">
<g transform="scale(1, -1) translate(0, -1080)">
<path d="M0,0L1080,0L1080,1080L0,1080Z" style="fill:#-8000000000000000-8000000000000000-8000000000000000;fill-opacity:0" />
<text x="71.799" y="-1039.5" transform="scale(1, -1)"
	style="font-family:Helvetica;font-weight:normal;font-style:normal;font-size:50px">Anti-Stokes Pump Power vs Widths of Fits</text>
<text x="443.93" y="-11.039" transform="scale(1, -1)"
	style="font-family:Helvetica;font-weight:normal;font-style:normal;font-size:36px">Pump Power (mW)</text>
<text x="195.26" y="-71.258" transform="scale(1, -1)"
	style="font-family:Helvetica;font-weight:normal;font-style:normal;font-size:36px">0</text>
<text x="396.42" y="-71.258" transform="scale(1, -1)"
	style="font-family:Helvetica;font-weight:normal;font-style:normal;font-size:36px">50</text>
<text x="597.58" y="-71.258" transform="scale(1, -1)"
	style="font-family:Helvetica;font-weight:normal;font-style:normal;font-size:36px">100</text>
<text x="808.76" y="-71.258" transform="scale(1, -1)"
	style="font-family:Helvetica;font-weight:normal;font-style:normal;font-size:36px">150</text>
<text x="1019.9" y="-71.258" transform="scale(1, -1)"
	style="font-family:Helvetica;font-weight:normal;font-style:normal;font-size:36px">200</text>
<path d="M205.27,116.44L205.27,108.44" style="fill:none;stroke:#000000;stroke-width:1.5" />
<path d="M310.85,112.44L310.85,108.44" style="fill:none;stroke:#000000;stroke-width:1.5" />
<path d="M416.44,116.44L416.44,108.44" style="fill:none;stroke:#000000;stroke-width:1.5" />
<path d="M522.03,112.44L522.03,108.44" style="fill:none;stroke:#000000;stroke-width:1.5" />
<path d="M627.62,116.44L627.62,108.44" style="fill:none;stroke:#000000;stroke-width:1.5" />
<path d="M733.2,112.44L733.2,108.44" style="fill:none;stroke:#000000;stroke-width:1.5" />
<path d="M838.79,116.44L838.79,108.44" style="fill:none;stroke:#000000;stroke-width:1.5" />
<path d="M944.38,112.44L944.38,108.44" style="fill:none;stroke:#000000;stroke-width:1.5" />
<path d="M1050,116.44L1050,108.44" style="fill:none;stroke:#000000;stroke-width:1.5" />
<path d="M141.91,108.44L1050,108.44" style="fill:none;stroke:#000000;stroke-width:1.5" />
<g transform="rotate(90)">
<text x="326.21" y="29.18" transform="scale(1, -1)"
	style="font-family:Helvetica;font-weight:normal;font-style:normal;font-size:36px">Full Width Half Max (MHz)</text>
</g>
<text x="87.869" y="-95.246" transform="scale(1, -1)"
	style="font-family:Helvetica;font-weight:normal;font-style:normal;font-size:36px">90</text>
<text x="67.848" y="-290.82" transform="scale(1, -1)"
	style="font-family:Helvetica;font-weight:normal;font-style:normal;font-size:36px">100</text>
<text x="70.52" y="-486.4" transform="scale(1, -1)"
	style="font-family:Helvetica;font-weight:normal;font-style:normal;font-size:36px">110</text>
<text x="67.848" y="-681.98" transform="scale(1, -1)"
	style="font-family:Helvetica;font-weight:normal;font-style:normal;font-size:36px">120</text>
<text x="67.848" y="-877.56" transform="scale(1, -1)"
	style="font-family:Helvetica;font-weight:normal;font-style:normal;font-size:36px">130</text>
<path d="M153.91,104.32L145.91,104.32" style="fill:none;stroke:#000000;stroke-width:1.5" />
<path d="M149.91,202.11L145.91,202.11" style="fill:none;stroke:#000000;stroke-width:1.5" />
<path d="M153.91,299.89L145.91,299.89" style="fill:none;stroke:#000000;stroke-width:1.5" />
<path d="M149.91,397.68L145.91,397.68" style="fill:none;stroke:#000000;stroke-width:1.5" />
<path d="M153.91,495.47L145.91,495.47" style="fill:none;stroke:#000000;stroke-width:1.5" />
<path d="M149.91,593.26L145.91,593.26" style="fill:none;stroke:#000000;stroke-width:1.5" />
<path d="M153.91,691.05L145.91,691.05" style="fill:none;stroke:#000000;stroke-width:1.5" />
<path d="M149.91,788.84L145.91,788.84" style="fill:none;stroke:#000000;stroke-width:1.5" />
<path d="M153.91,886.63L145.91,886.63" style="fill:none;stroke:#000000;stroke-width:1.5" />
<path d="M145.91,104.32L145.91,968.14" style="fill:none;stroke:#000000;stroke-width:1.5" />
<path d="M912.37,937.69A6,6 0 1 1 900.37,937.69A6,6 0 1 1 912.37,937.69Z" style="fill:#8C2E31" />
<path d="M906.37,104.32L906.37,937.69" style="fill:none;stroke:#8C2E31;stroke-width:4;stroke-dasharray:15,5" />
<path d="M141.91,937.69L906.37,937.69" style="fill:none;stroke:#7F7F7F;stroke-dasharray:5,5" />
<path d="M861.69,918.24A6,6 0 1 1 849.69,918.24A6,6 0 1 1 861.69,918.24Z" style="fill:#5B1616" />
<path d="M855.69,104.32L855.69,918.24" style="fill:none;stroke:#5B1616;stroke-width:4;stroke-dasharray:15,5" />
<path d="M141.91,918.24L855.69,918.24" style="fill:none;stroke:#7F7F7F;stroke-dasharray:5,5" />
<path d="M815.23,902.49A6,6 0 1 1 803.23,902.49A6,6 0 1 1 815.23,902.49Z" style="fill:#C96892" />
<path d="M809.23,104.32L809.23,902.49" style="fill:none;stroke:#C96892;stroke-width:4;stroke-dasharray:15,5" />
<path d="M141.91,902.49L809.23,902.49" style="fill:none;stroke:#7F7F7F;stroke-dasharray:5,5" />
<path d="M777.22,968.14A6,6 0 1 1 765.22,968.14A6,6 0 1 1 777.22,968.14Z" style="fill:#EA9CAC" />
<path d="M771.22,104.32L771.22,968.14" style="fill:none;stroke:#EA9CAC;stroke-width:4;stroke-dasharray:15,5" />
<path d="M141.91,968.14L771.22,968.14" style="fill:none;stroke:#7F7F7F;stroke-dasharray:5,5" />
<path d="M730.76,911.06A6,6 0 1 1 718.76,911.06A6,6 0 1 1 730.76,911.06Z" style="fill:#013854" />
<path d="M724.76,104.32L724.76,911.06" style="fill:none;stroke:#013854;stroke-width:4;stroke-dasharray:15,5" />
<path d="M141.91,911.06L724.76,911.06" style="fill:none;stroke:#7F7F7F;stroke-dasharray:5,5" />
<path d="M658.96,823.98A6,6 0 1 1 646.96,823.98A6,6 0 1 1 658.96,823.98Z" style="fill:#2E8C3C" />
<path d="M652.96,104.32L652.96,823.98" style="fill:none;stroke:#2E8C3C;stroke-width:4;stroke-dasharray:15,5" />
<path d="M141.91,823.98L652.96,823.98" style="fill:none;stroke:#7F7F7F;stroke-dasharray:5,5" />
<path d="M608.28,841.75A6,6 0 1 1 596.28,841.75A6,6 0 1 1 608.28,841.75Z" style="fill:#637CC6" />
<path d="M602.28,104.32L602.28,841.75" style="fill:none;stroke:#637CC6;stroke-width:4;stroke-dasharray:15,5" />
<path d="M141.91,841.75L602.28,841.75" style="fill:none;stroke:#7F7F7F;stroke-dasharray:5,5" />
<path d="M566.04,802.15A6,6 0 1 1 554.04,802.15A6,6 0 1 1 566.04,802.15Z" style="fill:#7A2968" />
<path d="M560.04,104.32L560.04,802.15" style="fill:none;stroke:#7A2968;stroke-width:4;stroke-dasharray:15,5" />
<path d="M141.91,802.15L560.04,802.15" style="fill:none;stroke:#7F7F7F;stroke-dasharray:5,5" />
<path d="M1011,867.02A6,6 0 1 1 999,867.02A6,6 0 1 1 1011,867.02Z" style="fill:#8C2E31" />
<text x="835.96" y="-858.54" transform="scale(1, -1)"
	style="font-family:Helvetica;font-weight:normal;font-style:normal;font-size:36px">166 mW</text>
<path d="M1011,825.61A6,6 0 1 1 999,825.61A6,6 0 1 1 1011,825.61Z" style="fill:#5B1616" />
<text x="835.96" y="-817.13" transform="scale(1, -1)"
	style="font-family:Helvetica;font-weight:normal;font-style:normal;font-size:36px">154 mW</text>
<path d="M1011,784.2A6,6 0 1 1 999,784.2A6,6 0 1 1 1011,784.2Z" style="fill:#C96892" />
<text x="835.96" y="-775.72" transform="scale(1, -1)"
	style="font-family:Helvetica;font-weight:normal;font-style:normal;font-size:36px">143 mW</text>
<path d="M1011,742.79A6,6 0 1 1 999,742.79A6,6 0 1 1 1011,742.79Z" style="fill:#EA9CAC" />
<text x="835.96" y="-734.3" transform="scale(1, -1)"
	style="font-family:Helvetica;font-weight:normal;font-style:normal;font-size:36px">134 mW</text>
<path d="M1011,701.37A6,6 0 1 1 999,701.37A6,6 0 1 1 1011,701.37Z" style="fill:#013854" />
<text x="835.96" y="-692.89" transform="scale(1, -1)"
	style="font-family:Helvetica;font-weight:normal;font-style:normal;font-size:36px">123 mW</text>
<path d="M1011,659.96A6,6 0 1 1 999,659.96A6,6 0 1 1 1011,659.96Z" style="fill:#2E8C3C" />
<text x="835.96" y="-651.48" transform="scale(1, -1)"
	style="font-family:Helvetica;font-weight:normal;font-style:normal;font-size:36px">106 mW</text>
<path d="M1011,618.55A6,6 0 1 1 999,618.55A6,6 0 1 1 1011,618.55Z" style="fill:#637CC6" />
<text x="855.99" y="-610.07" transform="scale(1, -1)"
	style="font-family:Helvetica;font-weight:normal;font-style:normal;font-size:36px">94 mW</text>
<path d="M1011,577.14A6,6 0 1 1 999,577.14A6,6 0 1 1 1011,577.14Z" style="fill:#7A2968" />
<text x="855.99" y="-568.66" transform="scale(1, -1)"
	style="font-family:Helvetica;font-weight:normal;font-style:normal;font-size:36px">84 mW</text>
</g>
</svg>
