<?xml version="1.0"?>
<!-- Generated by SVGo and Plotinum VG -->
<svg width="1080pt" height="1080pt" viewBox="0 0 1080 1080"
	xmlns="http://www.w3.org/2000/svg"
	xmlns:xlink="http://www.w3.org/1999/xlink">
<g transform="scale(1, -1) translate(0, -1080)">
<path d="M0,0L1080,0L1080,1080L0,1080Z" style="fill:#-8000000000000000-8000000000000000-8000000000000000;fill-opacity:0" />
<text x="193.12" y="-1015.2" transform="scale(1, -1)"
	style="font-family:Helvetica;font-weight:normal;font-style:normal;font-size:80px">0.0 Sapphire CABS</text>
<text x="443.62" y="-17.172" transform="scale(1, -1)"
	style="font-family:Helvetica;font-weight:normal;font-style:normal;font-size:56px">Frequency (GHz)</text>
<text x="751.99" y="-119.73" transform="scale(1, -1)"
	style="font-family:Helvetica;font-weight:normal;font-style:normal;font-size:56px">100</text>
<text x="864.5" y="-119.73" transform="scale(1, -1)"
	style="font-family:Helvetica;font-weight:normal;font-style:normal;font-size:56px">120</text>
<text x="977.02" y="-119.73" transform="scale(1, -1)"
	style="font-family:Helvetica;font-weight:normal;font-style:normal;font-size:56px">140</text>
<path d="M798.7,181.12L798.7,173.12" style="fill:none;stroke:#000000;stroke-width:1.5" />
<path d="M854.96,177.12L854.96,173.12" style="fill:none;stroke:#000000;stroke-width:1.5" />
<path d="M911.22,181.12L911.22,173.12" style="fill:none;stroke:#000000;stroke-width:1.5" />
<path d="M967.48,177.12L967.48,173.12" style="fill:none;stroke:#000000;stroke-width:1.5" />
<path d="M1023.7,181.12L1023.7,173.12" style="fill:none;stroke:#000000;stroke-width:1.5" />
<path d="M1080,177.12L1080,173.12" style="fill:none;stroke:#000000;stroke-width:1.5" />
<path d="M236.67,173.12L1080,173.12" style="fill:none;stroke:#000000;stroke-width:1.5" />
<g transform="rotate(90)">
<text x="279.9" y="45.391" transform="scale(1, -1)"
	style="font-family:Helvetica;font-weight:normal;font-style:normal;font-size:56px">Spectral Density (uV)</text>
</g>
<text x="145.57" y="-297.91" transform="scale(1, -1)"
	style="font-family:Helvetica;font-weight:normal;font-style:normal;font-size:56px">20</text>
<text x="145.57" y="-468.94" transform="scale(1, -1)"
	style="font-family:Helvetica;font-weight:normal;font-style:normal;font-size:56px">60</text>
<text x="114.43" y="-639.97" transform="scale(1, -1)"
	style="font-family:Helvetica;font-weight:normal;font-style:normal;font-size:56px">100</text>
<text x="114.43" y="-811" transform="scale(1, -1)"
	style="font-family:Helvetica;font-weight:normal;font-style:normal;font-size:56px">140</text>
<path d="M235.42,226.5L231.42,226.5" style="fill:none;stroke:#000000;stroke-width:1.5" />
<path d="M239.42,312.02L231.42,312.02" style="fill:none;stroke:#000000;stroke-width:1.5" />
<path d="M235.42,397.53L231.42,397.53" style="fill:none;stroke:#000000;stroke-width:1.5" />
<path d="M239.42,483.05L231.42,483.05" style="fill:none;stroke:#000000;stroke-width:1.5" />
<path d="M235.42,568.56L231.42,568.56" style="fill:none;stroke:#000000;stroke-width:1.5" />
<path d="M239.42,654.08L231.42,654.08" style="fill:none;stroke:#000000;stroke-width:1.5" />
<path d="M235.42,739.59L231.42,739.59" style="fill:none;stroke:#000000;stroke-width:1.5" />
<path d="M239.42,825.11L231.42,825.11" style="fill:none;stroke:#000000;stroke-width:1.5" />
<path d="M235.42,910.62L231.42,910.62" style="fill:none;stroke:#000000;stroke-width:1.5" />
<path d="M231.42,178.24L231.42,910.62" style="fill:none;stroke:#000000;stroke-width:1.5" />
<path d="M241.67,604.83A5,5 0 1 1 231.67,604.83A5,5 0 1 1 241.67,604.83Z" style="fill:#7A9CFF" />
<path d="M241.67,435.86A5,5 0 1 1 231.67,435.86A5,5 0 1 1 241.67,435.86Z" style="fill:#7A9CFF" />
<path d="M241.67,736.18A5,5 0 1 1 231.67,736.18A5,5 0 1 1 241.67,736.18Z" style="fill:#7A9CFF" />
<path d="M241.67,516.82A5,5 0 1 1 231.67,516.82A5,5 0 1 1 241.67,516.82Z" style="fill:#7A9CFF" />
<path d="M241.67,309.47A5,5 0 1 1 231.67,309.47A5,5 0 1 1 241.67,309.47Z" style="fill:#7A9CFF" />
<path d="M241.67,389.29A5,5 0 1 1 231.67,389.29A5,5 0 1 1 241.67,389.29Z" style="fill:#7A9CFF" />
<path d="M241.68,281.46A5,5 0 1 1 231.68,281.46A5,5 0 1 1 241.68,281.46Z" style="fill:#7A9CFF" />
<path d="M241.68,332.42A5,5 0 1 1 231.68,332.42A5,5 0 1 1 241.68,332.42Z" style="fill:#7A9CFF" />
<path d="M241.68,233.17A5,5 0 1 1 231.68,233.17A5,5 0 1 1 241.68,233.17Z" style="fill:#7A9CFF" />
<path d="M241.68,475.62A5,5 0 1 1 231.68,475.62A5,5 0 1 1 241.68,475.62Z" style="fill:#7A9CFF" />
<path d="M241.68,480.96A5,5 0 1 1 231.68,480.96A5,5 0 1 1 241.68,480.96Z" style="fill:#7A9CFF" />
<path d="M241.68,611.11A5,5 0 1 1 231.68,611.11A5,5 0 1 1 241.68,611.11Z" style="fill:#7A9CFF" />
<path d="M241.68,380.71A5,5 0 1 1 231.68,380.71A5,5 0 1 1 241.68,380.71Z" style="fill:#7A9CFF" />
<path d="M241.68,426.49A5,5 0 1 1 231.68,426.49A5,5 0 1 1 241.68,426.49Z" style="fill:#7A9CFF" />
<path d="M241.68,355.17A5,5 0 1 1 231.68,355.17A5,5 0 1 1 241.68,355.17Z" style="fill:#7A9CFF" />
<path d="M241.68,757.17A5,5 0 1 1 231.68,757.17A5,5 0 1 1 241.68,757.17Z" style="fill:#7A9CFF" />
<path d="M241.68,425A5,5 0 1 1 231.68,425A5,5 0 1 1 241.68,425Z" style="fill:#7A9CFF" />
<path d="M241.68,567.86A5,5 0 1 1 231.68,567.86A5,5 0 1 1 241.68,567.86Z" style="fill:#7A9CFF" />
<path d="M241.68,794.17A5,5 0 1 1 231.68,794.17A5,5 0 1 1 241.68,794.17Z" style="fill:#7A9CFF" />
<path d="M241.68,523.63A5,5 0 1 1 231.68,523.63A5,5 0 1 1 241.68,523.63Z" style="fill:#7A9CFF" />
<path d="M241.68,422.64A5,5 0 1 1 231.68,422.64A5,5 0 1 1 241.68,422.64Z" style="fill:#7A9CFF" />
<path d="M241.68,384.18A5,5 0 1 1 231.68,384.18A5,5 0 1 1 241.68,384.18Z" style="fill:#7A9CFF" />
<path d="M241.68,384.84A5,5 0 1 1 231.68,384.84A5,5 0 1 1 241.68,384.84Z" style="fill:#7A9CFF" />
<path d="M241.69,456.65A5,5 0 1 1 231.69,456.65A5,5 0 1 1 241.69,456.65Z" style="fill:#7A9CFF" />
<path d="M241.69,349.02A5,5 0 1 1 231.69,349.02A5,5 0 1 1 241.69,349.02Z" style="fill:#7A9CFF" />
<path d="M241.69,565.56A5,5 0 1 1 231.69,565.56A5,5 0 1 1 241.69,565.56Z" style="fill:#7A9CFF" />
<path d="M241.69,271.66A5,5 0 1 1 231.69,271.66A5,5 0 1 1 241.69,271.66Z" style="fill:#7A9CFF" />
<path d="M241.69,379.39A5,5 0 1 1 231.69,379.39A5,5 0 1 1 241.69,379.39Z" style="fill:#7A9CFF" />
<path d="M241.69,544.62A5,5 0 1 1 231.69,544.62A5,5 0 1 1 241.69,544.62Z" style="fill:#7A9CFF" />
<path d="M241.69,426.57A5,5 0 1 1 231.69,426.57A5,5 0 1 1 241.69,426.57Z" style="fill:#7A9CFF" />
<path d="M241.69,338.71A5,5 0 1 1 231.69,338.71A5,5 0 1 1 241.69,338.71Z" style="fill:#7A9CFF" />
<path d="M241.69,478.44A5,5 0 1 1 231.69,478.44A5,5 0 1 1 241.69,478.44Z" style="fill:#7A9CFF" />
<path d="M241.69,289.04A5,5 0 1 1 231.69,289.04A5,5 0 1 1 241.69,289.04Z" style="fill:#7A9CFF" />
<path d="M241.69,348.38A5,5 0 1 1 231.69,348.38A5,5 0 1 1 241.69,348.38Z" style="fill:#7A9CFF" />
<path d="M241.69,485.49A5,5 0 1 1 231.69,485.49A5,5 0 1 1 241.69,485.49Z" style="fill:#7A9CFF" />
<path d="M241.69,427.09A5,5 0 1 1 231.69,427.09A5,5 0 1 1 241.69,427.09Z" style="fill:#7A9CFF" />
<path d="M241.69,335.34A5,5 0 1 1 231.69,335.34A5,5 0 1 1 241.69,335.34Z" style="fill:#7A9CFF" />
<path d="M241.69,451.35A5,5 0 1 1 231.69,451.35A5,5 0 1 1 241.69,451.35Z" style="fill:#7A9CFF" />
<path d="M241.69,489.54A5,5 0 1 1 231.69,489.54A5,5 0 1 1 241.69,489.54Z" style="fill:#7A9CFF" />
<path d="M241.69,346.71A5,5 0 1 1 231.69,346.71A5,5 0 1 1 241.69,346.71Z" style="fill:#7A9CFF" />
<path d="M241.7,452.03A5,5 0 1 1 231.7,452.03A5,5 0 1 1 241.7,452.03Z" style="fill:#7A9CFF" />
<path d="M241.7,392.32A5,5 0 1 1 231.7,392.32A5,5 0 1 1 241.7,392.32Z" style="fill:#7A9CFF" />
<path d="M241.7,339.69A5,5 0 1 1 231.7,339.69A5,5 0 1 1 241.7,339.69Z" style="fill:#7A9CFF" />
<path d="M241.7,483.36A5,5 0 1 1 231.7,483.36A5,5 0 1 1 241.7,483.36Z" style="fill:#7A9CFF" />
<path d="M241.7,440.75A5,5 0 1 1 231.7,440.75A5,5 0 1 1 241.7,440.75Z" style="fill:#7A9CFF" />
<path d="M241.7,243.57A5,5 0 1 1 231.7,243.57A5,5 0 1 1 241.7,243.57Z" style="fill:#7A9CFF" />
<path d="M241.7,345.3A5,5 0 1 1 231.7,345.3A5,5 0 1 1 241.7,345.3Z" style="fill:#7A9CFF" />
<path d="M241.7,356.06A5,5 0 1 1 231.7,356.06A5,5 0 1 1 241.7,356.06Z" style="fill:#7A9CFF" />
<path d="M241.7,654.33A5,5 0 1 1 231.7,654.33A5,5 0 1 1 241.7,654.33Z" style="fill:#7A9CFF" />
<path d="M241.7,753.34A5,5 0 1 1 231.7,753.34A5,5 0 1 1 241.7,753.34Z" style="fill:#7A9CFF" />
<path d="M241.7,618.56A5,5 0 1 1 231.7,618.56A5,5 0 1 1 241.7,618.56Z" style="fill:#7A9CFF" />
<path d="M241.7,485.96A5,5 0 1 1 231.7,485.96A5,5 0 1 1 241.7,485.96Z" style="fill:#7A9CFF" />
<path d="M241.7,536.89A5,5 0 1 1 231.7,536.89A5,5 0 1 1 241.7,536.89Z" style="fill:#7A9CFF" />
<path d="M241.7,698.38A5,5 0 1 1 231.7,698.38A5,5 0 1 1 241.7,698.38Z" style="fill:#7A9CFF" />
<path d="M241.7,334.94A5,5 0 1 1 231.7,334.94A5,5 0 1 1 241.7,334.94Z" style="fill:#7A9CFF" />
<path d="M241.7,522.4A5,5 0 1 1 231.7,522.4A5,5 0 1 1 241.7,522.4Z" style="fill:#7A9CFF" />
<path d="M241.7,395.67A5,5 0 1 1 231.7,395.67A5,5 0 1 1 241.7,395.67Z" style="fill:#7A9CFF" />
<path d="M241.71,465.97A5,5 0 1 1 231.71,465.97A5,5 0 1 1 241.71,465.97Z" style="fill:#7A9CFF" />
<path d="M241.71,404.86A5,5 0 1 1 231.71,404.86A5,5 0 1 1 241.71,404.86Z" style="fill:#7A9CFF" />
<path d="M241.71,369.47A5,5 0 1 1 231.71,369.47A5,5 0 1 1 241.71,369.47Z" style="fill:#7A9CFF" />
<path d="M241.71,309.82A5,5 0 1 1 231.71,309.82A5,5 0 1 1 241.71,309.82Z" style="fill:#7A9CFF" />
<path d="M241.71,427.01A5,5 0 1 1 231.71,427.01A5,5 0 1 1 241.71,427.01Z" style="fill:#7A9CFF" />
<path d="M241.71,448A5,5 0 1 1 231.71,448A5,5 0 1 1 241.71,448Z" style="fill:#7A9CFF" />
<path d="M241.71,480.46A5,5 0 1 1 231.71,480.46A5,5 0 1 1 241.71,480.46Z" style="fill:#7A9CFF" />
<path d="M241.71,529.75A5,5 0 1 1 231.71,529.75A5,5 0 1 1 241.71,529.75Z" style="fill:#7A9CFF" />
<path d="M241.71,597.41A5,5 0 1 1 231.71,597.41A5,5 0 1 1 241.71,597.41Z" style="fill:#7A9CFF" />
<path d="M241.71,514.87A5,5 0 1 1 231.71,514.87A5,5 0 1 1 241.71,514.87Z" style="fill:#7A9CFF" />
<path d="M241.71,426.69A5,5 0 1 1 231.71,426.69A5,5 0 1 1 241.71,426.69Z" style="fill:#7A9CFF" />
<path d="M241.71,444.16A5,5 0 1 1 231.71,444.16A5,5 0 1 1 241.71,444.16Z" style="fill:#7A9CFF" />
<path d="M241.71,339.12A5,5 0 1 1 231.71,339.12A5,5 0 1 1 241.71,339.12Z" style="fill:#7A9CFF" />
<path d="M241.71,390.04A5,5 0 1 1 231.71,390.04A5,5 0 1 1 241.71,390.04Z" style="fill:#7A9CFF" />
<path d="M241.71,370.72A5,5 0 1 1 231.71,370.72A5,5 0 1 1 241.71,370.72Z" style="fill:#7A9CFF" />
<path d="M241.71,438.43A5,5 0 1 1 231.71,438.43A5,5 0 1 1 241.71,438.43Z" style="fill:#7A9CFF" />
<path d="M241.71,500.39A5,5 0 1 1 231.71,500.39A5,5 0 1 1 241.71,500.39Z" style="fill:#7A9CFF" />
<path d="M241.72,277.25A5,5 0 1 1 231.72,277.25A5,5 0 1 1 241.72,277.25Z" style="fill:#7A9CFF" />
<path d="M241.72,401.42A5,5 0 1 1 231.72,401.42A5,5 0 1 1 241.72,401.42Z" style="fill:#7A9CFF" />
<path d="M241.72,465.79A5,5 0 1 1 231.72,465.79A5,5 0 1 1 241.72,465.79Z" style="fill:#7A9CFF" />
<path d="M241.72,444.25A5,5 0 1 1 231.72,444.25A5,5 0 1 1 241.72,444.25Z" style="fill:#7A9CFF" />
<path d="M241.72,343.06A5,5 0 1 1 231.72,343.06A5,5 0 1 1 241.72,343.06Z" style="fill:#7A9CFF" />
<path d="M241.72,426.46A5,5 0 1 1 231.72,426.46A5,5 0 1 1 241.72,426.46Z" style="fill:#7A9CFF" />
<path d="M241.72,306.24A5,5 0 1 1 231.72,306.24A5,5 0 1 1 241.72,306.24Z" style="fill:#7A9CFF" />
<path d="M241.72,441.73A5,5 0 1 1 231.72,441.73A5,5 0 1 1 241.72,441.73Z" style="fill:#7A9CFF" />
<path d="M241.72,289.86A5,5 0 1 1 231.72,289.86A5,5 0 1 1 241.72,289.86Z" style="fill:#7A9CFF" />
<path d="M241.72,430.34A5,5 0 1 1 231.72,430.34A5,5 0 1 1 241.72,430.34Z" style="fill:#7A9CFF" />
<path d="M241.72,335.6A5,5 0 1 1 231.72,335.6A5,5 0 1 1 241.72,335.6Z" style="fill:#7A9CFF" />
<path d="M241.72,320.78A5,5 0 1 1 231.72,320.78A5,5 0 1 1 241.72,320.78Z" style="fill:#7A9CFF" />
<path d="M241.72,283.61A5,5 0 1 1 231.72,283.61A5,5 0 1 1 241.72,283.61Z" style="fill:#7A9CFF" />
<path d="M241.72,349A5,5 0 1 1 231.72,349A5,5 0 1 1 241.72,349Z" style="fill:#7A9CFF" />
<path d="M241.72,322.72A5,5 0 1 1 231.72,322.72A5,5 0 1 1 241.72,322.72Z" style="fill:#7A9CFF" />
<path d="M241.72,269.18A5,5 0 1 1 231.72,269.18A5,5 0 1 1 241.72,269.18Z" style="fill:#7A9CFF" />
<path d="M241.72,389.4A5,5 0 1 1 231.72,389.4A5,5 0 1 1 241.72,389.4Z" style="fill:#7A9CFF" />
<path d="M241.73,558.69A5,5 0 1 1 231.73,558.69A5,5 0 1 1 241.73,558.69Z" style="fill:#7A9CFF" />
<path d="M241.73,544.95A5,5 0 1 1 231.73,544.95A5,5 0 1 1 241.73,544.95Z" style="fill:#7A9CFF" />
<path d="M241.73,435.54A5,5 0 1 1 231.73,435.54A5,5 0 1 1 241.73,435.54Z" style="fill:#7A9CFF" />
<path d="M241.73,276.02A5,5 0 1 1 231.73,276.02A5,5 0 1 1 241.73,276.02Z" style="fill:#7A9CFF" />
<path d="M241.73,255.72A5,5 0 1 1 231.73,255.72A5,5 0 1 1 241.73,255.72Z" style="fill:#7A9CFF" />
<path d="M241.73,364.36A5,5 0 1 1 231.73,364.36A5,5 0 1 1 241.73,364.36Z" style="fill:#7A9CFF" />
<path d="M241.73,369A5,5 0 1 1 231.73,369A5,5 0 1 1 241.73,369Z" style="fill:#7A9CFF" />
<path d="M241.73,453.27A5,5 0 1 1 231.73,453.27A5,5 0 1 1 241.73,453.27Z" style="fill:#7A9CFF" />
<path d="M241.73,296.99A5,5 0 1 1 231.73,296.99A5,5 0 1 1 241.73,296.99Z" style="fill:#7A9CFF" />
<path d="M241.73,231.66A5,5 0 1 1 231.73,231.66A5,5 0 1 1 241.73,231.66Z" style="fill:#7A9CFF" />
<path d="M241.73,496.7A5,5 0 1 1 231.73,496.7A5,5 0 1 1 241.73,496.7Z" style="fill:#7A9CFF" />
<path d="M241.73,379.91A5,5 0 1 1 231.73,379.91A5,5 0 1 1 241.73,379.91Z" style="fill:#7A9CFF" />
<path d="M241.73,557.5A5,5 0 1 1 231.73,557.5A5,5 0 1 1 241.73,557.5Z" style="fill:#7A9CFF" />
<path d="M241.73,346.56A5,5 0 1 1 231.73,346.56A5,5 0 1 1 241.73,346.56Z" style="fill:#7A9CFF" />
<path d="M241.73,336.59A5,5 0 1 1 231.73,336.59A5,5 0 1 1 241.73,336.59Z" style="fill:#7A9CFF" />
<path d="M241.73,295.12A5,5 0 1 1 231.73,295.12A5,5 0 1 1 241.73,295.12Z" style="fill:#7A9CFF" />
<path d="M241.73,492.72A5,5 0 1 1 231.73,492.72A5,5 0 1 1 241.73,492.72Z" style="fill:#7A9CFF" />
<path d="M241.74,461.7A5,5 0 1 1 231.74,461.7A5,5 0 1 1 241.74,461.7Z" style="fill:#7A9CFF" />
<path d="M241.74,325.22A5,5 0 1 1 231.74,325.22A5,5 0 1 1 241.74,325.22Z" style="fill:#7A9CFF" />
<path d="M241.74,299.44A5,5 0 1 1 231.74,299.44A5,5 0 1 1 241.74,299.44Z" style="fill:#7A9CFF" />
<path d="M241.74,287.58A5,5 0 1 1 231.74,287.58A5,5 0 1 1 241.74,287.58Z" style="fill:#7A9CFF" />
<path d="M241.74,332.11A5,5 0 1 1 231.74,332.11A5,5 0 1 1 241.74,332.11Z" style="fill:#7A9CFF" />
<path d="M241.74,360.14A5,5 0 1 1 231.74,360.14A5,5 0 1 1 241.74,360.14Z" style="fill:#7A9CFF" />
<path d="M241.74,421.36A5,5 0 1 1 231.74,421.36A5,5 0 1 1 241.74,421.36Z" style="fill:#7A9CFF" />
<path d="M241.74,273.14A5,5 0 1 1 231.74,273.14A5,5 0 1 1 241.74,273.14Z" style="fill:#7A9CFF" />
<path d="M241.74,378.17A5,5 0 1 1 231.74,378.17A5,5 0 1 1 241.74,378.17Z" style="fill:#7A9CFF" />
<path d="M241.74,290.25A5,5 0 1 1 231.74,290.25A5,5 0 1 1 241.74,290.25Z" style="fill:#7A9CFF" />
<path d="M241.74,465.25A5,5 0 1 1 231.74,465.25A5,5 0 1 1 241.74,465.25Z" style="fill:#7A9CFF" />
<path d="M241.74,417.12A5,5 0 1 1 231.74,417.12A5,5 0 1 1 241.74,417.12Z" style="fill:#7A9CFF" />
<path d="M241.74,234.72A5,5 0 1 1 231.74,234.72A5,5 0 1 1 241.74,234.72Z" style="fill:#7A9CFF" />
<path d="M241.74,332.21A5,5 0 1 1 231.74,332.21A5,5 0 1 1 241.74,332.21Z" style="fill:#7A9CFF" />
<path d="M241.74,289.45A5,5 0 1 1 231.74,289.45A5,5 0 1 1 241.74,289.45Z" style="fill:#7A9CFF" />
<path d="M241.74,435.14A5,5 0 1 1 231.74,435.14A5,5 0 1 1 241.74,435.14Z" style="fill:#7A9CFF" />
<path d="M241.74,316.03A5,5 0 1 1 231.74,316.03A5,5 0 1 1 241.74,316.03Z" style="fill:#7A9CFF" />
<path d="M241.75,320.2A5,5 0 1 1 231.75,320.2A5,5 0 1 1 241.75,320.2Z" style="fill:#7A9CFF" />
<path d="M241.75,304.75A5,5 0 1 1 231.75,304.75A5,5 0 1 1 241.75,304.75Z" style="fill:#7A9CFF" />
<path d="M241.75,385.87A5,5 0 1 1 231.75,385.87A5,5 0 1 1 241.75,385.87Z" style="fill:#7A9CFF" />
<path d="M241.75,263.6A5,5 0 1 1 231.75,263.6A5,5 0 1 1 241.75,263.6Z" style="fill:#7A9CFF" />
<path d="M241.75,485.86A5,5 0 1 1 231.75,485.86A5,5 0 1 1 241.75,485.86Z" style="fill:#7A9CFF" />
<path d="M241.75,301.89A5,5 0 1 1 231.75,301.89A5,5 0 1 1 241.75,301.89Z" style="fill:#7A9CFF" />
<path d="M241.75,321.32A5,5 0 1 1 231.75,321.32A5,5 0 1 1 241.75,321.32Z" style="fill:#7A9CFF" />
<path d="M241.75,433.24A5,5 0 1 1 231.75,433.24A5,5 0 1 1 241.75,433.24Z" style="fill:#7A9CFF" />
<path d="M241.75,393.15A5,5 0 1 1 231.75,393.15A5,5 0 1 1 241.75,393.15Z" style="fill:#7A9CFF" />
<path d="M241.75,430.74A5,5 0 1 1 231.75,430.74A5,5 0 1 1 241.75,430.74Z" style="fill:#7A9CFF" />
<path d="M241.75,384.22A5,5 0 1 1 231.75,384.22A5,5 0 1 1 241.75,384.22Z" style="fill:#7A9CFF" />
<path d="M241.75,376.87A5,5 0 1 1 231.75,376.87A5,5 0 1 1 241.75,376.87Z" style="fill:#7A9CFF" />
<path d="M241.75,434.23A5,5 0 1 1 231.75,434.23A5,5 0 1 1 241.75,434.23Z" style="fill:#7A9CFF" />
<path d="M241.75,298.16A5,5 0 1 1 231.75,298.16A5,5 0 1 1 241.75,298.16Z" style="fill:#7A9CFF" />
<path d="M241.75,453A5,5 0 1 1 231.75,453A5,5 0 1 1 241.75,453Z" style="fill:#7A9CFF" />
<path d="M241.75,347.02A5,5 0 1 1 231.75,347.02A5,5 0 1 1 241.75,347.02Z" style="fill:#7A9CFF" />
<path d="M241.75,334.26A5,5 0 1 1 231.75,334.26A5,5 0 1 1 241.75,334.26Z" style="fill:#7A9CFF" />
<path d="M241.76,264.83A5,5 0 1 1 231.76,264.83A5,5 0 1 1 241.76,264.83Z" style="fill:#7A9CFF" />
<path d="M241.76,319.84A5,5 0 1 1 231.76,319.84A5,5 0 1 1 241.76,319.84Z" style="fill:#7A9CFF" />
<path d="M241.76,254.84A5,5 0 1 1 231.76,254.84A5,5 0 1 1 241.76,254.84Z" style="fill:#7A9CFF" />
<path d="M241.76,221.52A5,5 0 1 1 231.76,221.52A5,5 0 1 1 241.76,221.52Z" style="fill:#7A9CFF" />
<path d="M241.76,274.78A5,5 0 1 1 231.76,274.78A5,5 0 1 1 241.76,274.78Z" style="fill:#7A9CFF" />
<path d="M241.76,366.03A5,5 0 1 1 231.76,366.03A5,5 0 1 1 241.76,366.03Z" style="fill:#7A9CFF" />
<path d="M241.76,300.22A5,5 0 1 1 231.76,300.22A5,5 0 1 1 241.76,300.22Z" style="fill:#7A9CFF" />
<path d="M241.76,258.18A5,5 0 1 1 231.76,258.18A5,5 0 1 1 241.76,258.18Z" style="fill:#7A9CFF" />
<path d="M241.76,243.56A5,5 0 1 1 231.76,243.56A5,5 0 1 1 241.76,243.56Z" style="fill:#7A9CFF" />
<path d="M241.76,285.93A5,5 0 1 1 231.76,285.93A5,5 0 1 1 241.76,285.93Z" style="fill:#7A9CFF" />
<path d="M241.76,316.65A5,5 0 1 1 231.76,316.65A5,5 0 1 1 241.76,316.65Z" style="fill:#7A9CFF" />
<path d="M241.76,429.63A5,5 0 1 1 231.76,429.63A5,5 0 1 1 241.76,429.63Z" style="fill:#7A9CFF" />
<path d="M241.76,235.45A5,5 0 1 1 231.76,235.45A5,5 0 1 1 241.76,235.45Z" style="fill:#7A9CFF" />
<path d="M241.76,272.59A5,5 0 1 1 231.76,272.59A5,5 0 1 1 241.76,272.59Z" style="fill:#7A9CFF" />
<path d="M241.76,427.88A5,5 0 1 1 231.76,427.88A5,5 0 1 1 241.76,427.88Z" style="fill:#7A9CFF" />
<path d="M241.76,541.85A5,5 0 1 1 231.76,541.85A5,5 0 1 1 241.76,541.85Z" style="fill:#7A9CFF" />
<path d="M241.76,301.56A5,5 0 1 1 231.76,301.56A5,5 0 1 1 241.76,301.56Z" style="fill:#7A9CFF" />
<path d="M241.77,375.12A5,5 0 1 1 231.77,375.12A5,5 0 1 1 241.77,375.12Z" style="fill:#7A9CFF" />
<path d="M241.77,291.17A5,5 0 1 1 231.77,291.17A5,5 0 1 1 241.77,291.17Z" style="fill:#7A9CFF" />
<path d="M241.77,240.33A5,5 0 1 1 231.77,240.33A5,5 0 1 1 241.77,240.33Z" style="fill:#7A9CFF" />
<path d="M241.77,423.23A5,5 0 1 1 231.77,423.23A5,5 0 1 1 241.77,423.23Z" style="fill:#7A9CFF" />
<path d="M241.77,272.83A5,5 0 1 1 231.77,272.83A5,5 0 1 1 241.77,272.83Z" style="fill:#7A9CFF" />
<path d="M241.77,276.46A5,5 0 1 1 231.77,276.46A5,5 0 1 1 241.77,276.46Z" style="fill:#7A9CFF" />
<path d="M241.77,450.15A5,5 0 1 1 231.77,450.15A5,5 0 1 1 241.77,450.15Z" style="fill:#7A9CFF" />
<path d="M241.77,230.22A5,5 0 1 1 231.77,230.22A5,5 0 1 1 241.77,230.22Z" style="fill:#7A9CFF" />
<path d="M241.77,332.44A5,5 0 1 1 231.77,332.44A5,5 0 1 1 241.77,332.44Z" style="fill:#7A9CFF" />
<path d="M241.77,277.34A5,5 0 1 1 231.77,277.34A5,5 0 1 1 241.77,277.34Z" style="fill:#7A9CFF" />
<path d="M241.77,199.86A5,5 0 1 1 231.77,199.86A5,5 0 1 1 241.77,199.86Z" style="fill:#7A9CFF" />
<path d="M241.77,325.76A5,5 0 1 1 231.77,325.76A5,5 0 1 1 241.77,325.76Z" style="fill:#7A9CFF" />
<path d="M241.77,299.14A5,5 0 1 1 231.77,299.14A5,5 0 1 1 241.77,299.14Z" style="fill:#7A9CFF" />
<path d="M241.77,383.35A5,5 0 1 1 231.77,383.35A5,5 0 1 1 241.77,383.35Z" style="fill:#7A9CFF" />
<path d="M241.77,320.81A5,5 0 1 1 231.77,320.81A5,5 0 1 1 241.77,320.81Z" style="fill:#7A9CFF" />
<path d="M241.77,366.63A5,5 0 1 1 231.77,366.63A5,5 0 1 1 241.77,366.63Z" style="fill:#7A9CFF" />
<path d="M241.77,403.27A5,5 0 1 1 231.77,403.27A5,5 0 1 1 241.77,403.27Z" style="fill:#7A9CFF" />
<path d="M241.78,433.05A5,5 0 1 1 231.78,433.05A5,5 0 1 1 241.78,433.05Z" style="fill:#7A9CFF" />
<path d="M241.78,283.67A5,5 0 1 1 231.78,283.67A5,5 0 1 1 241.78,283.67Z" style="fill:#7A9CFF" />
<path d="M241.78,298.91A5,5 0 1 1 231.78,298.91A5,5 0 1 1 241.78,298.91Z" style="fill:#7A9CFF" />
<path d="M241.78,341.32A5,5 0 1 1 231.78,341.32A5,5 0 1 1 241.78,341.32Z" style="fill:#7A9CFF" />
<path d="M241.78,291.97A5,5 0 1 1 231.78,291.97A5,5 0 1 1 241.78,291.97Z" style="fill:#7A9CFF" />
<path d="M241.78,240.72A5,5 0 1 1 231.78,240.72A5,5 0 1 1 241.78,240.72Z" style="fill:#7A9CFF" />
<path d="M241.78,252.81A5,5 0 1 1 231.78,252.81A5,5 0 1 1 241.78,252.81Z" style="fill:#7A9CFF" />
<path d="M241.78,228.18A5,5 0 1 1 231.78,228.18A5,5 0 1 1 241.78,228.18Z" style="fill:#7A9CFF" />
<path d="M241.78,238.12A5,5 0 1 1 231.78,238.12A5,5 0 1 1 241.78,238.12Z" style="fill:#7A9CFF" />
<path d="M241.78,278.97A5,5 0 1 1 231.78,278.97A5,5 0 1 1 241.78,278.97Z" style="fill:#7A9CFF" />
<path d="M241.78,306.95A5,5 0 1 1 231.78,306.95A5,5 0 1 1 241.78,306.95Z" style="fill:#7A9CFF" />
<path d="M241.78,242.76A5,5 0 1 1 231.78,242.76A5,5 0 1 1 241.78,242.76Z" style="fill:#7A9CFF" />
<path d="M241.78,220.3A5,5 0 1 1 231.78,220.3A5,5 0 1 1 241.78,220.3Z" style="fill:#7A9CFF" />
<path d="M241.78,478.83A5,5 0 1 1 231.78,478.83A5,5 0 1 1 241.78,478.83Z" style="fill:#7A9CFF" />
<path d="M241.78,244.85A5,5 0 1 1 231.78,244.85A5,5 0 1 1 241.78,244.85Z" style="fill:#7A9CFF" />
<path d="M241.78,335.63A5,5 0 1 1 231.78,335.63A5,5 0 1 1 241.78,335.63Z" style="fill:#7A9CFF" />
<path d="M241.78,320.84A5,5 0 1 1 231.78,320.84A5,5 0 1 1 241.78,320.84Z" style="fill:#7A9CFF" />
<path d="M241.79,198.53A5,5 0 1 1 231.79,198.53A5,5 0 1 1 241.79,198.53Z" style="fill:#7A9CFF" />
<path d="M241.79,178.24A5,5 0 1 1 231.79,178.24A5,5 0 1 1 241.79,178.24Z" style="fill:#7A9CFF" />
<path d="M241.79,324.21A5,5 0 1 1 231.79,324.21A5,5 0 1 1 241.79,324.21Z" style="fill:#7A9CFF" />
<path d="M241.79,282.88A5,5 0 1 1 231.79,282.88A5,5 0 1 1 241.79,282.88Z" style="fill:#7A9CFF" />
<path d="M241.79,344.02A5,5 0 1 1 231.79,344.02A5,5 0 1 1 241.79,344.02Z" style="fill:#7A9CFF" />
<path d="M241.79,228.22A5,5 0 1 1 231.79,228.22A5,5 0 1 1 241.79,228.22Z" style="fill:#7A9CFF" />
<path d="M241.79,295.52A5,5 0 1 1 231.79,295.52A5,5 0 1 1 241.79,295.52Z" style="fill:#7A9CFF" />
<path d="M241.79,224.98A5,5 0 1 1 231.79,224.98A5,5 0 1 1 241.79,224.98Z" style="fill:#7A9CFF" />
<path d="M241.79,276.85A5,5 0 1 1 231.79,276.85A5,5 0 1 1 241.79,276.85Z" style="fill:#7A9CFF" />
<path d="M241.79,238.87A5,5 0 1 1 231.79,238.87A5,5 0 1 1 241.79,238.87Z" style="fill:#7A9CFF" />
<path d="M241.79,248.24A5,5 0 1 1 231.79,248.24A5,5 0 1 1 241.79,248.24Z" style="fill:#7A9CFF" />
<path d="M241.79,186.38A5,5 0 1 1 231.79,186.38A5,5 0 1 1 241.79,186.38Z" style="fill:#7A9CFF" />
<path d="M241.79,257.43A5,5 0 1 1 231.79,257.43A5,5 0 1 1 241.79,257.43Z" style="fill:#7A9CFF" />
<path d="M241.79,384.96A5,5 0 1 1 231.79,384.96A5,5 0 1 1 241.79,384.96Z" style="fill:#7A9CFF" />
<path d="M241.79,365.31A5,5 0 1 1 231.79,365.31A5,5 0 1 1 241.79,365.31Z" style="fill:#7A9CFF" />
<path d="M241.79,386.59A5,5 0 1 1 231.79,386.59A5,5 0 1 1 241.79,386.59Z" style="fill:#7A9CFF" />
<path d="M241.79,318.2A5,5 0 1 1 231.79,318.2A5,5 0 1 1 241.79,318.2Z" style="fill:#7A9CFF" />
<path d="M241.8,212.16A5,5 0 1 1 231.8,212.16A5,5 0 1 1 241.8,212.16Z" style="fill:#7A9CFF" />
<path d="M241.8,285.67A5,5 0 1 1 231.8,285.67A5,5 0 1 1 241.8,285.67Z" style="fill:#7A9CFF" />
<path d="M241.8,238.96A5,5 0 1 1 231.8,238.96A5,5 0 1 1 241.8,238.96Z" style="fill:#7A9CFF" />
<path d="M241.8,309.65A5,5 0 1 1 231.8,309.65A5,5 0 1 1 241.8,309.65Z" style="fill:#7A9CFF" />
<path d="M241.8,247.64A5,5 0 1 1 231.8,247.64A5,5 0 1 1 241.8,247.64Z" style="fill:#7A9CFF" />
<path d="M241.8,210.75A5,5 0 1 1 231.8,210.75A5,5 0 1 1 241.8,210.75Z" style="fill:#7A9CFF" />
<path d="M241.8,299.55A5,5 0 1 1 231.8,299.55A5,5 0 1 1 241.8,299.55Z" style="fill:#7A9CFF" />
<path d="M241.8,220.88A5,5 0 1 1 231.8,220.88A5,5 0 1 1 241.8,220.88Z" style="fill:#7A9CFF" />
<path d="M241.8,220.17A5,5 0 1 1 231.8,220.17A5,5 0 1 1 241.8,220.17Z" style="fill:#7A9CFF" />
<path d="M241.8,269.38A5,5 0 1 1 231.8,269.38A5,5 0 1 1 241.8,269.38Z" style="fill:#7A9CFF" />
<path d="M241.8,220.56A5,5 0 1 1 231.8,220.56A5,5 0 1 1 241.8,220.56Z" style="fill:#7A9CFF" />
<path d="M241.8,421.08A5,5 0 1 1 231.8,421.08A5,5 0 1 1 241.8,421.08Z" style="fill:#7A9CFF" />
<path d="M241.8,225.86A5,5 0 1 1 231.8,225.86A5,5 0 1 1 241.8,225.86Z" style="fill:#7A9CFF" />
<path d="M241.8,236.72A5,5 0 1 1 231.8,236.72A5,5 0 1 1 241.8,236.72Z" style="fill:#7A9CFF" />
<path d="M241.8,248.28A5,5 0 1 1 231.8,248.28A5,5 0 1 1 241.8,248.28Z" style="fill:#7A9CFF" />
<path d="M241.8,312.16A5,5 0 1 1 231.8,312.16A5,5 0 1 1 241.8,312.16Z" style="fill:#7A9CFF" />
<path d="M241.8,252.92A5,5 0 1 1 231.8,252.92A5,5 0 1 1 241.8,252.92Z" style="fill:#7A9CFF" />
<path d="M241.81,206.09A5,5 0 1 1 231.81,206.09A5,5 0 1 1 241.81,206.09Z" style="fill:#7A9CFF" />
<path d="M241.81,211.64A5,5 0 1 1 231.81,211.64A5,5 0 1 1 241.81,211.64Z" style="fill:#7A9CFF" />
<path d="M241.81,246.21A5,5 0 1 1 231.81,246.21A5,5 0 1 1 241.81,246.21Z" style="fill:#7A9CFF" />
<path d="M241.81,223.77A5,5 0 1 1 231.81,223.77A5,5 0 1 1 241.81,223.77Z" style="fill:#7A9CFF" />
<path d="M241.81,214.05A5,5 0 1 1 231.81,214.05A5,5 0 1 1 241.81,214.05Z" style="fill:#7A9CFF" />
<path d="M241.81,232.48A5,5 0 1 1 231.81,232.48A5,5 0 1 1 241.81,232.48Z" style="fill:#7A9CFF" />
<path d="M241.81,241.99A5,5 0 1 1 231.81,241.99A5,5 0 1 1 241.81,241.99Z" style="fill:#7A9CFF" />
<path d="M241.81,262A5,5 0 1 1 231.81,262A5,5 0 1 1 241.81,262Z" style="fill:#7A9CFF" />
<path d="M241.81,274.23A5,5 0 1 1 231.81,274.23A5,5 0 1 1 241.81,274.23Z" style="fill:#7A9CFF" />
<path d="M241.81,322.35A5,5 0 1 1 231.81,322.35A5,5 0 1 1 241.81,322.35Z" style="fill:#7A9CFF" />
<path d="M241.81,312.01A5,5 0 1 1 231.81,312.01A5,5 0 1 1 241.81,312.01Z" style="fill:#7A9CFF" />
<path d="M241.81,214.89A5,5 0 1 1 231.81,214.89A5,5 0 1 1 241.81,214.89Z" style="fill:#7A9CFF" />
<path d="M241.81,224.64A5,5 0 1 1 231.81,224.64A5,5 0 1 1 241.81,224.64Z" style="fill:#7A9CFF" />
<path d="M241.81,224.88A5,5 0 1 1 231.81,224.88A5,5 0 1 1 241.81,224.88Z" style="fill:#7A9CFF" />
<path d="M241.81,242.33A5,5 0 1 1 231.81,242.33A5,5 0 1 1 241.81,242.33Z" style="fill:#7A9CFF" />
<path d="M241.81,240.78A5,5 0 1 1 231.81,240.78A5,5 0 1 1 241.81,240.78Z" style="fill:#7A9CFF" />
<path d="M241.81,222.89A5,5 0 1 1 231.81,222.89A5,5 0 1 1 241.81,222.89Z" style="fill:#7A9CFF" />
<path d="M241.82,301.2A5,5 0 1 1 231.82,301.2A5,5 0 1 1 241.82,301.2Z" style="fill:#7A9CFF" />
<path d="M241.82,225.62A5,5 0 1 1 231.82,225.62A5,5 0 1 1 241.82,225.62Z" style="fill:#7A9CFF" />
<path d="M241.82,309.55A5,5 0 1 1 231.82,309.55A5,5 0 1 1 241.82,309.55Z" style="fill:#7A9CFF" />
<path d="M241.82,336.03A5,5 0 1 1 231.82,336.03A5,5 0 1 1 241.82,336.03Z" style="fill:#7A9CFF" />
<path d="M241.82,216.29A5,5 0 1 1 231.82,216.29A5,5 0 1 1 241.82,216.29Z" style="fill:#7A9CFF" />
<path d="M241.82,219.79A5,5 0 1 1 231.82,219.79A5,5 0 1 1 241.82,219.79Z" style="fill:#7A9CFF" />
<path d="M241.82,264.43A5,5 0 1 1 231.82,264.43A5,5 0 1 1 241.82,264.43Z" style="fill:#7A9CFF" />
<path d="M241.82,257.96A5,5 0 1 1 231.82,257.96A5,5 0 1 1 241.82,257.96Z" style="fill:#7A9CFF" />
<path d="M241.82,258.01A5,5 0 1 1 231.82,258.01A5,5 0 1 1 241.82,258.01Z" style="fill:#7A9CFF" />
<path d="M241.82,243.72A5,5 0 1 1 231.82,243.72A5,5 0 1 1 241.82,243.72Z" style="fill:#7A9CFF" />
<path d="M241.82,340.2A5,5 0 1 1 231.82,340.2A5,5 0 1 1 241.82,340.2Z" style="fill:#7A9CFF" />
<path d="M241.82,255.03A5,5 0 1 1 231.82,255.03A5,5 0 1 1 241.82,255.03Z" style="fill:#7A9CFF" />
<path d="M241.82,328.97A5,5 0 1 1 231.82,328.97A5,5 0 1 1 241.82,328.97Z" style="fill:#7A9CFF" />
<path d="M241.82,385.94A5,5 0 1 1 231.82,385.94A5,5 0 1 1 241.82,385.94Z" style="fill:#7A9CFF" />
<path d="M241.82,312.29A5,5 0 1 1 231.82,312.29A5,5 0 1 1 241.82,312.29Z" style="fill:#7A9CFF" />
<path d="M241.82,237.46A5,5 0 1 1 231.82,237.46A5,5 0 1 1 241.82,237.46Z" style="fill:#7A9CFF" />
<path d="M241.82,237.49A5,5 0 1 1 231.82,237.49A5,5 0 1 1 241.82,237.49Z" style="fill:#7A9CFF" />
<path d="M241.83,211.13A5,5 0 1 1 231.83,211.13A5,5 0 1 1 241.83,211.13Z" style="fill:#7A9CFF" />
<path d="M241.83,214.98A5,5 0 1 1 231.83,214.98A5,5 0 1 1 241.83,214.98Z" style="fill:#7A9CFF" />
<path d="M241.83,281.79A5,5 0 1 1 231.83,281.79A5,5 0 1 1 241.83,281.79Z" style="fill:#7A9CFF" />
<path d="M241.83,184.38A5,5 0 1 1 231.83,184.38A5,5 0 1 1 241.83,184.38Z" style="fill:#7A9CFF" />
<path d="M241.83,224.26A5,5 0 1 1 231.83,224.26A5,5 0 1 1 241.83,224.26Z" style="fill:#7A9CFF" />
<path d="M241.83,244.06A5,5 0 1 1 231.83,244.06A5,5 0 1 1 241.83,244.06Z" style="fill:#7A9CFF" />
<path d="M241.83,232.66A5,5 0 1 1 231.83,232.66A5,5 0 1 1 241.83,232.66Z" style="fill:#7A9CFF" />
<path d="M241.83,286.81A5,5 0 1 1 231.83,286.81A5,5 0 1 1 241.83,286.81Z" style="fill:#7A9CFF" />
<path d="M241.83,305.89A5,5 0 1 1 231.83,305.89A5,5 0 1 1 241.83,305.89Z" style="fill:#7A9CFF" />
<path d="M241.83,328.73A5,5 0 1 1 231.83,328.73A5,5 0 1 1 241.83,328.73Z" style="fill:#7A9CFF" />
<path d="M241.83,262.35A5,5 0 1 1 231.83,262.35A5,5 0 1 1 241.83,262.35Z" style="fill:#7A9CFF" />
<path d="M241.83,219.49A5,5 0 1 1 231.83,219.49A5,5 0 1 1 241.83,219.49Z" style="fill:#7A9CFF" />
<path d="M241.83,214.58A5,5 0 1 1 231.83,214.58A5,5 0 1 1 241.83,214.58Z" style="fill:#7A9CFF" />
<path d="M241.83,241.85A5,5 0 1 1 231.83,241.85A5,5 0 1 1 241.83,241.85Z" style="fill:#7A9CFF" />
<path d="M241.83,263.19A5,5 0 1 1 231.83,263.19A5,5 0 1 1 241.83,263.19Z" style="fill:#7A9CFF" />
<path d="M241.83,254.99A5,5 0 1 1 231.83,254.99A5,5 0 1 1 241.83,254.99Z" style="fill:#7A9CFF" />
<path d="M241.83,218.52A5,5 0 1 1 231.83,218.52A5,5 0 1 1 241.83,218.52Z" style="fill:#7A9CFF" />
<path d="M241.84,283.7A5,5 0 1 1 231.84,283.7A5,5 0 1 1 241.84,283.7Z" style="fill:#7A9CFF" />
<path d="M241.84,245.33A5,5 0 1 1 231.84,245.33A5,5 0 1 1 241.84,245.33Z" style="fill:#7A9CFF" />
<path d="M241.84,259.06A5,5 0 1 1 231.84,259.06A5,5 0 1 1 241.84,259.06Z" style="fill:#7A9CFF" />
<path d="M241.84,235.95A5,5 0 1 1 231.84,235.95A5,5 0 1 1 241.84,235.95Z" style="fill:#7A9CFF" />
<path d="M241.84,334.29A5,5 0 1 1 231.84,334.29A5,5 0 1 1 241.84,334.29Z" style="fill:#7A9CFF" />
<path d="M241.84,280.51A5,5 0 1 1 231.84,280.51A5,5 0 1 1 241.84,280.51Z" style="fill:#7A9CFF" />
<path d="M241.84,222.16A5,5 0 1 1 231.84,222.16A5,5 0 1 1 241.84,222.16Z" style="fill:#7A9CFF" />
<path d="M241.84,246.14A5,5 0 1 1 231.84,246.14A5,5 0 1 1 241.84,246.14Z" style="fill:#7A9CFF" />
<path d="M241.84,191.52A5,5 0 1 1 231.84,191.52A5,5 0 1 1 241.84,191.52Z" style="fill:#7A9CFF" />
<path d="M241.84,231.62A5,5 0 1 1 231.84,231.62A5,5 0 1 1 241.84,231.62Z" style="fill:#7A9CFF" />
<path d="M241.84,224.25A5,5 0 1 1 231.84,224.25A5,5 0 1 1 241.84,224.25Z" style="fill:#7A9CFF" />
<path d="M241.84,226.86A5,5 0 1 1 231.84,226.86A5,5 0 1 1 241.84,226.86Z" style="fill:#7A9CFF" />
<path d="M241.84,218.37A5,5 0 1 1 231.84,218.37A5,5 0 1 1 241.84,218.37Z" style="fill:#7A9CFF" />
<path d="M241.84,233.82A5,5 0 1 1 231.84,233.82A5,5 0 1 1 241.84,233.82Z" style="fill:#7A9CFF" />
<path d="M241.84,250.41A5,5 0 1 1 231.84,250.41A5,5 0 1 1 241.84,250.41Z" style="fill:#7A9CFF" />
<path d="M241.84,227.15A5,5 0 1 1 231.84,227.15A5,5 0 1 1 241.84,227.15Z" style="fill:#7A9CFF" />
<path d="M241.84,229.9A5,5 0 1 1 231.84,229.9A5,5 0 1 1 241.84,229.9Z" style="fill:#7A9CFF" />
<path d="M241.85,227.89A5,5 0 1 1 231.85,227.89A5,5 0 1 1 241.85,227.89Z" style="fill:#7A9CFF" />
<path d="M241.85,227.54A5,5 0 1 1 231.85,227.54A5,5 0 1 1 241.85,227.54Z" style="fill:#7A9CFF" />
<path d="M241.85,227.3A5,5 0 1 1 231.85,227.3A5,5 0 1 1 241.85,227.3Z" style="fill:#7A9CFF" />
<path d="M241.85,223.37A5,5 0 1 1 231.85,223.37A5,5 0 1 1 241.85,223.37Z" style="fill:#7A9CFF" />
<path d="M241.85,286.5A5,5 0 1 1 231.85,286.5A5,5 0 1 1 241.85,286.5Z" style="fill:#7A9CFF" />
<path d="M241.85,226.71A5,5 0 1 1 231.85,226.71A5,5 0 1 1 241.85,226.71Z" style="fill:#7A9CFF" />
<path d="M241.85,245.24A5,5 0 1 1 231.85,245.24A5,5 0 1 1 241.85,245.24Z" style="fill:#7A9CFF" />
<path d="M241.85,257.49A5,5 0 1 1 231.85,257.49A5,5 0 1 1 241.85,257.49Z" style="fill:#7A9CFF" />
<path d="M241.85,227.29A5,5 0 1 1 231.85,227.29A5,5 0 1 1 241.85,227.29Z" style="fill:#7A9CFF" />
<path d="M241.85,227.88A5,5 0 1 1 231.85,227.88A5,5 0 1 1 241.85,227.88Z" style="fill:#7A9CFF" />
<path d="M241.85,227.8A5,5 0 1 1 231.85,227.8A5,5 0 1 1 241.85,227.8Z" style="fill:#7A9CFF" />
<path d="M241.85,228.21A5,5 0 1 1 231.85,228.21A5,5 0 1 1 241.85,228.21Z" style="fill:#7A9CFF" />
<path d="M241.85,228.1A5,5 0 1 1 231.85,228.1A5,5 0 1 1 241.85,228.1Z" style="fill:#7A9CFF" />
<path d="M241.85,249.19A5,5 0 1 1 231.85,249.19A5,5 0 1 1 241.85,249.19Z" style="fill:#7A9CFF" />
<path d="M241.85,227.09A5,5 0 1 1 231.85,227.09A5,5 0 1 1 241.85,227.09Z" style="fill:#7A9CFF" />
<path d="M241.85,216.11A5,5 0 1 1 231.85,216.11A5,5 0 1 1 241.85,216.11Z" style="fill:#7A9CFF" />
<path d="M241.85,231.18A5,5 0 1 1 231.85,231.18A5,5 0 1 1 241.85,231.18Z" style="fill:#7A9CFF" />
<path d="M241.86,227.53A5,5 0 1 1 231.86,227.53A5,5 0 1 1 241.86,227.53Z" style="fill:#7A9CFF" />
<path d="M241.86,227.98A5,5 0 1 1 231.86,227.98A5,5 0 1 1 241.86,227.98Z" style="fill:#7A9CFF" />
<path d="M241.86,227.03A5,5 0 1 1 231.86,227.03A5,5 0 1 1 241.86,227.03Z" style="fill:#7A9CFF" />
<path d="M241.86,227.47A5,5 0 1 1 231.86,227.47A5,5 0 1 1 241.86,227.47Z" style="fill:#7A9CFF" />
<path d="M241.86,216.3A5,5 0 1 1 231.86,216.3A5,5 0 1 1 241.86,216.3Z" style="fill:#7A9CFF" />
<path d="M241.86,221.11A5,5 0 1 1 231.86,221.11A5,5 0 1 1 241.86,221.11Z" style="fill:#7A9CFF" />
<path d="M241.86,206.43A5,5 0 1 1 231.86,206.43A5,5 0 1 1 241.86,206.43Z" style="fill:#7A9CFF" />
<path d="M241.86,217.38A5,5 0 1 1 231.86,217.38A5,5 0 1 1 241.86,217.38Z" style="fill:#7A9CFF" />
<path d="M241.86,178.24A5,5 0 1 1 231.86,178.24A5,5 0 1 1 241.86,178.24Z" style="fill:#7A9CFF" />
<path d="M241.86,217.35A5,5 0 1 1 231.86,217.35A5,5 0 1 1 241.86,217.35Z" style="fill:#7A9CFF" />
<path d="M241.86,227.13A5,5 0 1 1 231.86,227.13A5,5 0 1 1 241.86,227.13Z" style="fill:#7A9CFF" />
<path d="M241.86,220.72A5,5 0 1 1 231.86,220.72A5,5 0 1 1 241.86,220.72Z" style="fill:#7A9CFF" />
<path d="M241.86,226.94A5,5 0 1 1 231.86,226.94A5,5 0 1 1 241.86,226.94Z" style="fill:#7A9CFF" />
<path d="M241.86,257.89A5,5 0 1 1 231.86,257.89A5,5 0 1 1 241.86,257.89Z" style="fill:#7A9CFF" />
<path d="M241.86,231.38A5,5 0 1 1 231.86,231.38A5,5 0 1 1 241.86,231.38Z" style="fill:#7A9CFF" />
<path d="M241.86,257.05A5,5 0 1 1 231.86,257.05A5,5 0 1 1 241.86,257.05Z" style="fill:#7A9CFF" />
<path d="M241.86,216.01A5,5 0 1 1 231.86,216.01A5,5 0 1 1 241.86,216.01Z" style="fill:#7A9CFF" />
<path d="M241.87,224.15A5,5 0 1 1 231.87,224.15A5,5 0 1 1 241.87,224.15Z" style="fill:#7A9CFF" />
<path d="M241.87,226.82A5,5 0 1 1 231.87,226.82A5,5 0 1 1 241.87,226.82Z" style="fill:#7A9CFF" />
<path d="M241.87,224.65A5,5 0 1 1 231.87,224.65A5,5 0 1 1 241.87,224.65Z" style="fill:#7A9CFF" />
<path d="M241.87,226.94A5,5 0 1 1 231.87,226.94A5,5 0 1 1 241.87,226.94Z" style="fill:#7A9CFF" />
<path d="M241.87,233.93A5,5 0 1 1 231.87,233.93A5,5 0 1 1 241.87,233.93Z" style="fill:#7A9CFF" />
<path d="M241.87,387.47A5,5 0 1 1 231.87,387.47A5,5 0 1 1 241.87,387.47Z" style="fill:#7A9CFF" />
<path d="M241.87,227.29A5,5 0 1 1 231.87,227.29A5,5 0 1 1 241.87,227.29Z" style="fill:#7A9CFF" />
<path d="M241.87,224.08A5,5 0 1 1 231.87,224.08A5,5 0 1 1 241.87,224.08Z" style="fill:#7A9CFF" />
<path d="M241.87,241.78A5,5 0 1 1 231.87,241.78A5,5 0 1 1 241.87,241.78Z" style="fill:#7A9CFF" />
<path d="M241.87,251.63A5,5 0 1 1 231.87,251.63A5,5 0 1 1 241.87,251.63Z" style="fill:#7A9CFF" />
<path d="M241.87,225.7A5,5 0 1 1 231.87,225.7A5,5 0 1 1 241.87,225.7Z" style="fill:#7A9CFF" />
<path d="M241.87,219.08A5,5 0 1 1 231.87,219.08A5,5 0 1 1 241.87,219.08Z" style="fill:#7A9CFF" />
<path d="M241.87,228.67A5,5 0 1 1 231.87,228.67A5,5 0 1 1 241.87,228.67Z" style="fill:#7A9CFF" />
<path d="M241.87,225.59A5,5 0 1 1 231.87,225.59A5,5 0 1 1 241.87,225.59Z" style="fill:#7A9CFF" />
<path d="M241.87,213.94A5,5 0 1 1 231.87,213.94A5,5 0 1 1 241.87,213.94Z" style="fill:#7A9CFF" />
<path d="M241.87,227.39A5,5 0 1 1 231.87,227.39A5,5 0 1 1 241.87,227.39Z" style="fill:#7A9CFF" />
<path d="M241.87,226.74A5,5 0 1 1 231.87,226.74A5,5 0 1 1 241.87,226.74Z" style="fill:#7A9CFF" />
<path d="M241.88,255.57A5,5 0 1 1 231.88,255.57A5,5 0 1 1 241.88,255.57Z" style="fill:#7A9CFF" />
<path d="M241.88,225.25A5,5 0 1 1 231.88,225.25A5,5 0 1 1 241.88,225.25Z" style="fill:#7A9CFF" />
<path d="M241.88,223.37A5,5 0 1 1 231.88,223.37A5,5 0 1 1 241.88,223.37Z" style="fill:#7A9CFF" />
<path d="M241.88,222.44A5,5 0 1 1 231.88,222.44A5,5 0 1 1 241.88,222.44Z" style="fill:#7A9CFF" />
<path d="M241.88,225.82A5,5 0 1 1 231.88,225.82A5,5 0 1 1 241.88,225.82Z" style="fill:#7A9CFF" />
<path d="M241.88,227.03A5,5 0 1 1 231.88,227.03A5,5 0 1 1 241.88,227.03Z" style="fill:#7A9CFF" />
<path d="M241.88,226.53A5,5 0 1 1 231.88,226.53A5,5 0 1 1 241.88,226.53Z" style="fill:#7A9CFF" />
<path d="M241.88,223.9A5,5 0 1 1 231.88,223.9A5,5 0 1 1 241.88,223.9Z" style="fill:#7A9CFF" />
<path d="M241.88,227.15A5,5 0 1 1 231.88,227.15A5,5 0 1 1 241.88,227.15Z" style="fill:#7A9CFF" />
<path d="M241.88,226.84A5,5 0 1 1 231.88,226.84A5,5 0 1 1 241.88,226.84Z" style="fill:#7A9CFF" />
<path d="M241.88,227.19A5,5 0 1 1 231.88,227.19A5,5 0 1 1 241.88,227.19Z" style="fill:#7A9CFF" />
<path d="M241.88,207.46A5,5 0 1 1 231.88,207.46A5,5 0 1 1 241.88,207.46Z" style="fill:#7A9CFF" />
<path d="M241.88,229.93A5,5 0 1 1 231.88,229.93A5,5 0 1 1 241.88,229.93Z" style="fill:#7A9CFF" />
<path d="M241.88,228.77A5,5 0 1 1 231.88,228.77A5,5 0 1 1 241.88,228.77Z" style="fill:#7A9CFF" />
<path d="M241.88,228.56A5,5 0 1 1 231.88,228.56A5,5 0 1 1 241.88,228.56Z" style="fill:#7A9CFF" />
<path d="M241.88,227.09A5,5 0 1 1 231.88,227.09A5,5 0 1 1 241.88,227.09Z" style="fill:#7A9CFF" />
<path d="M241.88,337.55A5,5 0 1 1 231.88,337.55A5,5 0 1 1 241.88,337.55Z" style="fill:#7A9CFF" />
<path d="M241.89,229.95A5,5 0 1 1 231.89,229.95A5,5 0 1 1 241.89,229.95Z" style="fill:#7A9CFF" />
<path d="M241.89,226.75A5,5 0 1 1 231.89,226.75A5,5 0 1 1 241.89,226.75Z" style="fill:#7A9CFF" />
<path d="M241.89,226.92A5,5 0 1 1 231.89,226.92A5,5 0 1 1 241.89,226.92Z" style="fill:#7A9CFF" />
<path d="M241.89,256.18A5,5 0 1 1 231.89,256.18A5,5 0 1 1 241.89,256.18Z" style="fill:#7A9CFF" />
<path d="M241.89,256.62A5,5 0 1 1 231.89,256.62A5,5 0 1 1 241.89,256.62Z" style="fill:#7A9CFF" />
<path d="M241.89,252.63A5,5 0 1 1 231.89,252.63A5,5 0 1 1 241.89,252.63Z" style="fill:#7A9CFF" />
<path d="M241.89,244.73A5,5 0 1 1 231.89,244.73A5,5 0 1 1 241.89,244.73Z" style="fill:#7A9CFF" />
<path d="M241.89,230.4A5,5 0 1 1 231.89,230.4A5,5 0 1 1 241.89,230.4Z" style="fill:#7A9CFF" />
<path d="M241.89,227.15A5,5 0 1 1 231.89,227.15A5,5 0 1 1 241.89,227.15Z" style="fill:#7A9CFF" />
<path d="M241.89,229.32A5,5 0 1 1 231.89,229.32A5,5 0 1 1 241.89,229.32Z" style="fill:#7A9CFF" />
<path d="M241.89,227.13A5,5 0 1 1 231.89,227.13A5,5 0 1 1 241.89,227.13Z" style="fill:#7A9CFF" />
<path d="M241.89,226.82A5,5 0 1 1 231.89,226.82A5,5 0 1 1 241.89,226.82Z" style="fill:#7A9CFF" />
<path d="M241.89,222.17A5,5 0 1 1 231.89,222.17A5,5 0 1 1 241.89,222.17Z" style="fill:#7A9CFF" />
<path d="M241.89,227.02A5,5 0 1 1 231.89,227.02A5,5 0 1 1 241.89,227.02Z" style="fill:#7A9CFF" />
<path d="M241.89,226.87A5,5 0 1 1 231.89,226.87A5,5 0 1 1 241.89,226.87Z" style="fill:#7A9CFF" />
<path d="M241.89,226.93A5,5 0 1 1 231.89,226.93A5,5 0 1 1 241.89,226.93Z" style="fill:#7A9CFF" />
<path d="M241.89,226.91A5,5 0 1 1 231.89,226.91A5,5 0 1 1 241.89,226.91Z" style="fill:#7A9CFF" />
<path d="M241.9,226.54A5,5 0 1 1 231.9,226.54A5,5 0 1 1 241.9,226.54Z" style="fill:#7A9CFF" />
<path d="M241.9,221.52A5,5 0 1 1 231.9,221.52A5,5 0 1 1 241.9,221.52Z" style="fill:#7A9CFF" />
<path d="M241.9,226.64A5,5 0 1 1 231.9,226.64A5,5 0 1 1 241.9,226.64Z" style="fill:#7A9CFF" />
<path d="M241.9,233.07A5,5 0 1 1 231.9,233.07A5,5 0 1 1 241.9,233.07Z" style="fill:#7A9CFF" />
<path d="M241.9,226.32A5,5 0 1 1 231.9,226.32A5,5 0 1 1 241.9,226.32Z" style="fill:#7A9CFF" />
<path d="M241.9,223.71A5,5 0 1 1 231.9,223.71A5,5 0 1 1 241.9,223.71Z" style="fill:#7A9CFF" />
<path d="M241.9,227.38A5,5 0 1 1 231.9,227.38A5,5 0 1 1 241.9,227.38Z" style="fill:#7A9CFF" />
<path d="M241.9,226.96A5,5 0 1 1 231.9,226.96A5,5 0 1 1 241.9,226.96Z" style="fill:#7A9CFF" />
<path d="M241.9,242.16A5,5 0 1 1 231.9,242.16A5,5 0 1 1 241.9,242.16Z" style="fill:#7A9CFF" />
<path d="M241.9,226.89A5,5 0 1 1 231.9,226.89A5,5 0 1 1 241.9,226.89Z" style="fill:#7A9CFF" />
<path d="M241.9,227.34A5,5 0 1 1 231.9,227.34A5,5 0 1 1 241.9,227.34Z" style="fill:#7A9CFF" />
<path d="M241.9,227.08A5,5 0 1 1 231.9,227.08A5,5 0 1 1 241.9,227.08Z" style="fill:#7A9CFF" />
<path d="M241.9,226.68A5,5 0 1 1 231.9,226.68A5,5 0 1 1 241.9,226.68Z" style="fill:#7A9CFF" />
<path d="M241.9,226.59A5,5 0 1 1 231.9,226.59A5,5 0 1 1 241.9,226.59Z" style="fill:#7A9CFF" />
<path d="M241.9,213.86A5,5 0 1 1 231.9,213.86A5,5 0 1 1 241.9,213.86Z" style="fill:#7A9CFF" />
<path d="M241.9,220.1A5,5 0 1 1 231.9,220.1A5,5 0 1 1 241.9,220.1Z" style="fill:#7A9CFF" />
<path d="M241.9,205.4A5,5 0 1 1 231.9,205.4A5,5 0 1 1 241.9,205.4Z" style="fill:#7A9CFF" />
<path d="M241.91,226.37A5,5 0 1 1 231.91,226.37A5,5 0 1 1 241.91,226.37Z" style="fill:#7A9CFF" />
<path d="M241.91,226.42A5,5 0 1 1 231.91,226.42A5,5 0 1 1 241.91,226.42Z" style="fill:#7A9CFF" />
<path d="M241.91,226.99A5,5 0 1 1 231.91,226.99A5,5 0 1 1 241.91,226.99Z" style="fill:#7A9CFF" />
<path d="M241.91,227.49A5,5 0 1 1 231.91,227.49A5,5 0 1 1 241.91,227.49Z" style="fill:#7A9CFF" />
<path d="M241.91,226.63A5,5 0 1 1 231.91,226.63A5,5 0 1 1 241.91,226.63Z" style="fill:#7A9CFF" />
<path d="M241.91,227A5,5 0 1 1 231.91,227A5,5 0 1 1 241.91,227Z" style="fill:#7A9CFF" />
<path d="M241.91,226.87A5,5 0 1 1 231.91,226.87A5,5 0 1 1 241.91,226.87Z" style="fill:#7A9CFF" />
<path d="M241.91,226.77A5,5 0 1 1 231.91,226.77A5,5 0 1 1 241.91,226.77Z" style="fill:#7A9CFF" />
<path d="M241.91,226.37A5,5 0 1 1 231.91,226.37A5,5 0 1 1 241.91,226.37Z" style="fill:#7A9CFF" />
<path d="M241.91,226.53A5,5 0 1 1 231.91,226.53A5,5 0 1 1 241.91,226.53Z" style="fill:#7A9CFF" />
<path d="M241.91,236.75A5,5 0 1 1 231.91,236.75A5,5 0 1 1 241.91,236.75Z" style="fill:#7A9CFF" />
<path d="M241.91,278.91A5,5 0 1 1 231.91,278.91A5,5 0 1 1 241.91,278.91Z" style="fill:#7A9CFF" />
<path d="M241.91,228.8A5,5 0 1 1 231.91,228.8A5,5 0 1 1 241.91,228.8Z" style="fill:#7A9CFF" />
<path d="M241.91,226.69A5,5 0 1 1 231.91,226.69A5,5 0 1 1 241.91,226.69Z" style="fill:#7A9CFF" />
<path d="M241.91,226.71A5,5 0 1 1 231.91,226.71A5,5 0 1 1 241.91,226.71Z" style="fill:#7A9CFF" />
<path d="M241.91,226.89A5,5 0 1 1 231.91,226.89A5,5 0 1 1 241.91,226.89Z" style="fill:#7A9CFF" />
<path d="M241.91,235.55A5,5 0 1 1 231.91,235.55A5,5 0 1 1 241.91,235.55Z" style="fill:#7A9CFF" />
<path d="M241.92,226.45A5,5 0 1 1 231.92,226.45A5,5 0 1 1 241.92,226.45Z" style="fill:#7A9CFF" />
<path d="M241.92,226.62A5,5 0 1 1 231.92,226.62A5,5 0 1 1 241.92,226.62Z" style="fill:#7A9CFF" />
<path d="M241.92,227.02A5,5 0 1 1 231.92,227.02A5,5 0 1 1 241.92,227.02Z" style="fill:#7A9CFF" />
<path d="M241.92,226.87A5,5 0 1 1 231.92,226.87A5,5 0 1 1 241.92,226.87Z" style="fill:#7A9CFF" />
<path d="M241.92,227A5,5 0 1 1 231.92,227A5,5 0 1 1 241.92,227Z" style="fill:#7A9CFF" />
<path d="M241.92,226.6A5,5 0 1 1 231.92,226.6A5,5 0 1 1 241.92,226.6Z" style="fill:#7A9CFF" />
<path d="M241.92,226.88A5,5 0 1 1 231.92,226.88A5,5 0 1 1 241.92,226.88Z" style="fill:#7A9CFF" />
<path d="M241.92,234.32A5,5 0 1 1 231.92,234.32A5,5 0 1 1 241.92,234.32Z" style="fill:#7A9CFF" />
<path d="M241.92,229.47A5,5 0 1 1 231.92,229.47A5,5 0 1 1 241.92,229.47Z" style="fill:#7A9CFF" />
<path d="M241.92,223.21A5,5 0 1 1 231.92,223.21A5,5 0 1 1 241.92,223.21Z" style="fill:#7A9CFF" />
<path d="M241.92,226.8A5,5 0 1 1 231.92,226.8A5,5 0 1 1 241.92,226.8Z" style="fill:#7A9CFF" />
<path d="M241.92,226.62A5,5 0 1 1 231.92,226.62A5,5 0 1 1 241.92,226.62Z" style="fill:#7A9CFF" />
<path d="M241.92,226.77A5,5 0 1 1 231.92,226.77A5,5 0 1 1 241.92,226.77Z" style="fill:#7A9CFF" />
<path d="M241.92,226.92A5,5 0 1 1 231.92,226.92A5,5 0 1 1 241.92,226.92Z" style="fill:#7A9CFF" />
<path d="M241.92,283.22A5,5 0 1 1 231.92,283.22A5,5 0 1 1 241.92,283.22Z" style="fill:#7A9CFF" />
<path d="M241.92,226.78A5,5 0 1 1 231.92,226.78A5,5 0 1 1 241.92,226.78Z" style="fill:#7A9CFF" />
<path d="M241.92,226.66A5,5 0 1 1 231.92,226.66A5,5 0 1 1 241.92,226.66Z" style="fill:#7A9CFF" />
<path d="M241.93,226.85A5,5 0 1 1 231.93,226.85A5,5 0 1 1 241.93,226.85Z" style="fill:#7A9CFF" />
<path d="M241.93,226.9A5,5 0 1 1 231.93,226.9A5,5 0 1 1 241.93,226.9Z" style="fill:#7A9CFF" />
<path d="M241.93,226.91A5,5 0 1 1 231.93,226.91A5,5 0 1 1 241.93,226.91Z" style="fill:#7A9CFF" />
<path d="M241.93,226.98A5,5 0 1 1 231.93,226.98A5,5 0 1 1 241.93,226.98Z" style="fill:#7A9CFF" />
<path d="M241.93,226.49A5,5 0 1 1 231.93,226.49A5,5 0 1 1 241.93,226.49Z" style="fill:#7A9CFF" />
<path d="M241.93,226.91A5,5 0 1 1 231.93,226.91A5,5 0 1 1 241.93,226.91Z" style="fill:#7A9CFF" />
<path d="M241.93,226.03A5,5 0 1 1 231.93,226.03A5,5 0 1 1 241.93,226.03Z" style="fill:#7A9CFF" />
<path d="M241.93,226.67A5,5 0 1 1 231.93,226.67A5,5 0 1 1 241.93,226.67Z" style="fill:#7A9CFF" />
<path d="M241.93,226.7A5,5 0 1 1 231.93,226.7A5,5 0 1 1 241.93,226.7Z" style="fill:#7A9CFF" />
<path d="M241.93,226.81A5,5 0 1 1 231.93,226.81A5,5 0 1 1 241.93,226.81Z" style="fill:#7A9CFF" />
<path d="M241.93,226.92A5,5 0 1 1 231.93,226.92A5,5 0 1 1 241.93,226.92Z" style="fill:#7A9CFF" />
<path d="M241.93,214.38A5,5 0 1 1 231.93,214.38A5,5 0 1 1 241.93,214.38Z" style="fill:#7A9CFF" />
<path d="M241.93,226.42A5,5 0 1 1 231.93,226.42A5,5 0 1 1 241.93,226.42Z" style="fill:#7A9CFF" />
<path d="M241.93,227.14A5,5 0 1 1 231.93,227.14A5,5 0 1 1 241.93,227.14Z" style="fill:#7A9CFF" />
<path d="M241.93,226.79A5,5 0 1 1 231.93,226.79A5,5 0 1 1 241.93,226.79Z" style="fill:#7A9CFF" />
<path d="M241.93,226.72A5,5 0 1 1 231.93,226.72A5,5 0 1 1 241.93,226.72Z" style="fill:#7A9CFF" />
<path d="M241.93,226.94A5,5 0 1 1 231.93,226.94A5,5 0 1 1 241.93,226.94Z" style="fill:#7A9CFF" />
<path d="M241.94,227.03A5,5 0 1 1 231.94,227.03A5,5 0 1 1 241.94,227.03Z" style="fill:#7A9CFF" />
<path d="M241.94,226.7A5,5 0 1 1 231.94,226.7A5,5 0 1 1 241.94,226.7Z" style="fill:#7A9CFF" />
<path d="M241.94,226.5A5,5 0 1 1 231.94,226.5A5,5 0 1 1 241.94,226.5Z" style="fill:#7A9CFF" />
<path d="M241.94,226.92A5,5 0 1 1 231.94,226.92A5,5 0 1 1 241.94,226.92Z" style="fill:#7A9CFF" />
<path d="M241.94,226.7A5,5 0 1 1 231.94,226.7A5,5 0 1 1 241.94,226.7Z" style="fill:#7A9CFF" />
<path d="M241.94,226.47A5,5 0 1 1 231.94,226.47A5,5 0 1 1 241.94,226.47Z" style="fill:#7A9CFF" />
<path d="M241.94,226.4A5,5 0 1 1 231.94,226.4A5,5 0 1 1 241.94,226.4Z" style="fill:#7A9CFF" />
<path d="M241.94,226.81A5,5 0 1 1 231.94,226.81A5,5 0 1 1 241.94,226.81Z" style="fill:#7A9CFF" />
<path d="M241.94,226.43A5,5 0 1 1 231.94,226.43A5,5 0 1 1 241.94,226.43Z" style="fill:#7A9CFF" />
<path d="M241.94,226.7A5,5 0 1 1 231.94,226.7A5,5 0 1 1 241.94,226.7Z" style="fill:#7A9CFF" />
<path d="M241.94,226.28A5,5 0 1 1 231.94,226.28A5,5 0 1 1 241.94,226.28Z" style="fill:#7A9CFF" />
<path d="M241.94,226.89A5,5 0 1 1 231.94,226.89A5,5 0 1 1 241.94,226.89Z" style="fill:#7A9CFF" />
<path d="M241.94,226.87A5,5 0 1 1 231.94,226.87A5,5 0 1 1 241.94,226.87Z" style="fill:#7A9CFF" />
<path d="M241.94,226.73A5,5 0 1 1 231.94,226.73A5,5 0 1 1 241.94,226.73Z" style="fill:#7A9CFF" />
<path d="M241.94,226.67A5,5 0 1 1 231.94,226.67A5,5 0 1 1 241.94,226.67Z" style="fill:#7A9CFF" />
<path d="M241.94,226.63A5,5 0 1 1 231.94,226.63A5,5 0 1 1 241.94,226.63Z" style="fill:#7A9CFF" />
<path d="M241.94,227.06A5,5 0 1 1 231.94,227.06A5,5 0 1 1 241.94,227.06Z" style="fill:#7A9CFF" />
<path d="M241.95,226.64A5,5 0 1 1 231.95,226.64A5,5 0 1 1 241.95,226.64Z" style="fill:#7A9CFF" />
<path d="M241.95,226.68A5,5 0 1 1 231.95,226.68A5,5 0 1 1 241.95,226.68Z" style="fill:#7A9CFF" />
<path d="M241.95,226.69A5,5 0 1 1 231.95,226.69A5,5 0 1 1 241.95,226.69Z" style="fill:#7A9CFF" />
<path d="M241.95,226.6A5,5 0 1 1 231.95,226.6A5,5 0 1 1 241.95,226.6Z" style="fill:#7A9CFF" />
<path d="M241.95,226.81A5,5 0 1 1 231.95,226.81A5,5 0 1 1 241.95,226.81Z" style="fill:#7A9CFF" />
<path d="M241.95,227.42A5,5 0 1 1 231.95,227.42A5,5 0 1 1 241.95,227.42Z" style="fill:#7A9CFF" />
<path d="M241.95,226.62A5,5 0 1 1 231.95,226.62A5,5 0 1 1 241.95,226.62Z" style="fill:#7A9CFF" />
<path d="M241.95,226.57A5,5 0 1 1 231.95,226.57A5,5 0 1 1 241.95,226.57Z" style="fill:#7A9CFF" />
<path d="M241.95,226.55A5,5 0 1 1 231.95,226.55A5,5 0 1 1 241.95,226.55Z" style="fill:#7A9CFF" />
<path d="M241.95,226.45A5,5 0 1 1 231.95,226.45A5,5 0 1 1 241.95,226.45Z" style="fill:#7A9CFF" />
<path d="M241.95,226.87A5,5 0 1 1 231.95,226.87A5,5 0 1 1 241.95,226.87Z" style="fill:#7A9CFF" />
<path d="M241.95,226.71A5,5 0 1 1 231.95,226.71A5,5 0 1 1 241.95,226.71Z" style="fill:#7A9CFF" />
<path d="M798.7,910.62L1080,910.62" style="fill:none;stroke:#000000" />
<path d="M1080,226.5L1080,910.62" style="fill:none;stroke:#000000" />
<path d="M1038,802.33A8,8 0 1 1 1022,802.33A8,8 0 1 1 1038,802.33Z" style="fill:#7A9CFF" />
<text x="544.34" y="-789.14" transform="scale(1, -1)"
	style="font-family:Helvetica;font-weight:normal;font-style:normal;font-size:56px">Forward Sapphire</text>
</g>
</svg>
