<?xml version="1.0"?>
<!-- Generated by SVGo and Plotinum VG -->
<svg width="1080pt" height="1080pt" viewBox="0 0 1080 1080"
	xmlns="http://www.w3.org/2000/svg"
	xmlns:xlink="http://www.w3.org/1999/xlink">
<g transform="scale(1, -1) translate(0, -1080)">
<path d="M0,0L1080,0L1080,1080L0,1080Z" style="fill:#-8000000000000000-8000000000000000-8000000000000000;fill-opacity:0" />
<text x="533.05" y="-1039.5" transform="scale(1, -1)"
	style="font-family:Helvetica;font-weight:normal;font-style:normal;font-size:50px"> </text>
<text x="498.07" y="-11.039" transform="scale(1, -1)"
	style="font-family:Helvetica;font-weight:normal;font-style:normal;font-size:36px">Power (mW)</text>
<text x="179.19" y="-71.258" transform="scale(1, -1)"
	style="font-family:Helvetica;font-weight:normal;font-style:normal;font-size:36px">0</text>
<text x="384.37" y="-71.258" transform="scale(1, -1)"
	style="font-family:Helvetica;font-weight:normal;font-style:normal;font-size:36px">50</text>
<text x="589.55" y="-71.258" transform="scale(1, -1)"
	style="font-family:Helvetica;font-weight:normal;font-style:normal;font-size:36px">100</text>
<text x="804.74" y="-71.258" transform="scale(1, -1)"
	style="font-family:Helvetica;font-weight:normal;font-style:normal;font-size:36px">150</text>
<text x="1019.9" y="-71.258" transform="scale(1, -1)"
	style="font-family:Helvetica;font-weight:normal;font-style:normal;font-size:36px">200</text>
<path d="M189.2,116.44L189.2,108.44" style="fill:none;stroke:#000000;stroke-width:1.5" />
<path d="M296.8,112.44L296.8,108.44" style="fill:none;stroke:#000000;stroke-width:1.5" />
<path d="M404.39,116.44L404.39,108.44" style="fill:none;stroke:#000000;stroke-width:1.5" />
<path d="M511.99,112.44L511.99,108.44" style="fill:none;stroke:#000000;stroke-width:1.5" />
<path d="M619.59,116.44L619.59,108.44" style="fill:none;stroke:#000000;stroke-width:1.5" />
<path d="M727.18,112.44L727.18,108.44" style="fill:none;stroke:#000000;stroke-width:1.5" />
<path d="M834.78,116.44L834.78,108.44" style="fill:none;stroke:#000000;stroke-width:1.5" />
<path d="M942.37,112.44L942.37,108.44" style="fill:none;stroke:#000000;stroke-width:1.5" />
<path d="M1050,116.44L1050,108.44" style="fill:none;stroke:#000000;stroke-width:1.5" />
<path d="M146.16,108.44L1050,108.44" style="fill:none;stroke:#000000;stroke-width:1.5" />
<g transform="rotate(90)">
<text x="354.18" y="29.18" transform="scale(1, -1)"
	style="font-family:Helvetica;font-weight:normal;font-style:normal;font-size:36px">Dissipation Rate (MHz)</text>
</g>
<text x="87.869" y="-312.7" transform="scale(1, -1)"
	style="font-family:Helvetica;font-weight:normal;font-style:normal;font-size:36px">95</text>
<text x="67.848" y="-747.61" transform="scale(1, -1)"
	style="font-family:Helvetica;font-weight:normal;font-style:normal;font-size:36px">100</text>
<path d="M149.91,104.32L145.91,104.32" style="fill:none;stroke:#000000;stroke-width:1.5" />
<path d="M153.91,321.77L145.91,321.77" style="fill:none;stroke:#000000;stroke-width:1.5" />
<path d="M149.91,539.23L145.91,539.23" style="fill:none;stroke:#000000;stroke-width:1.5" />
<path d="M153.91,756.68L145.91,756.68" style="fill:none;stroke:#000000;stroke-width:1.5" />
<path d="M149.91,974.14L145.91,974.14" style="fill:none;stroke:#000000;stroke-width:1.5" />
<path d="M145.91,104.32L145.91,974.14" style="fill:none;stroke:#000000;stroke-width:1.5" />
<path d="M189.2,568.4L425.91,737.94L662.62,907.48" style="fill:none;stroke:#637CC6;stroke-width:3" />
<path d="M189.2,974.14L1050,974.14" style="fill:none;stroke:#000000" />
<path d="M1050,104.32L1050,974.14" style="fill:none;stroke:#000000" />
<path d="M189.2,601.76L425.91,522.8L662.62,443.84" style="fill:none;stroke:#C96892;stroke-width:3" />
<path d="M146.16,495.74L899.33,651.21" style="fill:none;stroke:#627BC5;stroke-opacity:0.4902;stroke-width:3;stroke-dasharray:15,5" />
<path d="M146.16,495.74L899.33,340.27" style="fill:none;stroke:#C86791;stroke-opacity:0.4902;stroke-width:3;stroke-dasharray:15,5" />
<path d="M195.2,540.43A6,6 0 1 1 183.2,540.43A6,6 0 1 1 195.2,540.43Z" style="fill:#637CC6" />
<path d="M431.91,793.88A6,6 0 1 1 419.91,793.88A6,6 0 1 1 431.91,793.88Z" style="fill:#637CC6" />
<path d="M668.62,879.51A6,6 0 1 1 656.62,879.51A6,6 0 1 1 668.62,879.51Z" style="fill:#637CC6" />
<path d="M195.2,611.17A6,6 0 1 1 183.2,611.17A6,6 0 1 1 195.2,611.17Z" style="fill:#C96892" />
<path d="M431.91,503.96A6,6 0 1 1 419.91,503.96A6,6 0 1 1 431.91,503.96Z" style="fill:#C96892" />
<path d="M668.62,453.26A6,6 0 1 1 656.62,453.26A6,6 0 1 1 668.62,453.26Z" style="fill:#C96892" />
<path d="M183.66,929.52L233.66,929.52" style="fill:none;stroke:#637CC6;stroke-width:3" />
<text x="243.67" y="-921.04" transform="scale(1, -1)"
	style="font-family:Helvetica;font-weight:normal;font-style:normal;font-size:36px">Anti-Stokes Fit</text>
<path d="M183.66,888.11L233.66,888.11" style="fill:none;stroke:#627BC5;stroke-opacity:0.4902;stroke-width:3;stroke-dasharray:15,5" />
<text x="243.67" y="-879.63" transform="scale(1, -1)"
	style="font-family:Helvetica;font-weight:normal;font-style:normal;font-size:36px">Γ as,eff</text>
<path d="M183.66,846.7L233.66,846.7" style="fill:none;stroke:#C96892;stroke-width:3" />
<text x="243.67" y="-838.22" transform="scale(1, -1)"
	style="font-family:Helvetica;font-weight:normal;font-style:normal;font-size:36px">Stokes Fit</text>
<path d="M183.66,805.29L233.66,805.29" style="fill:none;stroke:#C86791;stroke-opacity:0.4902;stroke-width:3;stroke-dasharray:15,5" />
<text x="243.67" y="-796.8" transform="scale(1, -1)"
	style="font-family:Helvetica;font-weight:normal;font-style:normal;font-size:36px">Γ s,eff</text>
</g>
</svg>
