<?xml version="1.0"?>
<!-- Generated by SVGo and Plotinum VG -->
<svg width="1080pt" height="1080pt" viewBox="0 0 1080 1080"
	xmlns="http://www.w3.org/2000/svg"
	xmlns:xlink="http://www.w3.org/1999/xlink">
<g transform="scale(1, -1) translate(0, -1080)">
<path d="M0,0L1080,0L1080,1080L0,1080Z" style="fill:#-8000000000000000-8000000000000000-8000000000000000;fill-opacity:0" />
<text x="186.58" y="-1015.2" transform="scale(1, -1)"
	style="font-family:Helvetica;font-weight:normal;font-style:normal;font-size:80px">1 cm UHNA3 CABS</text>
<text x="423.74" y="-17.172" transform="scale(1, -1)"
	style="font-family:Helvetica;font-weight:normal;font-style:normal;font-size:56px">Frequency (GHz)</text>
<text x="220.27" y="-119.73" transform="scale(1, -1)"
	style="font-family:Helvetica;font-weight:normal;font-style:normal;font-size:56px">9</text>
<text x="465.33" y="-119.73" transform="scale(1, -1)"
	style="font-family:Helvetica;font-weight:normal;font-style:normal;font-size:56px">9.1</text>
<text x="733.74" y="-119.73" transform="scale(1, -1)"
	style="font-family:Helvetica;font-weight:normal;font-style:normal;font-size:56px">9.2</text>
<text x="1002.2" y="-119.73" transform="scale(1, -1)"
	style="font-family:Helvetica;font-weight:normal;font-style:normal;font-size:56px">9.3</text>
<path d="M235.84,181.12L235.84,173.12" style="fill:none;stroke:#000000;stroke-width:1.5" />
<path d="M370.05,177.12L370.05,173.12" style="fill:none;stroke:#000000;stroke-width:1.5" />
<path d="M504.25,181.12L504.25,173.12" style="fill:none;stroke:#000000;stroke-width:1.5" />
<path d="M638.46,177.12L638.46,173.12" style="fill:none;stroke:#000000;stroke-width:1.5" />
<path d="M772.66,181.12L772.66,173.12" style="fill:none;stroke:#000000;stroke-width:1.5" />
<path d="M906.87,177.12L906.87,173.12" style="fill:none;stroke:#000000;stroke-width:1.5" />
<path d="M1041.1,181.12L1041.1,173.12" style="fill:none;stroke:#000000;stroke-width:1.5" />
<path d="M235.84,173.12L1041.1,173.12" style="fill:none;stroke:#000000;stroke-width:1.5" />
<g transform="rotate(90)">
<text x="279.4" y="45.391" transform="scale(1, -1)"
	style="font-family:Helvetica;font-weight:normal;font-style:normal;font-size:56px">Spectral Density (pV)</text>
</g>
<text x="176.72" y="-428.74" transform="scale(1, -1)"
	style="font-family:Helvetica;font-weight:normal;font-style:normal;font-size:56px">0</text>
<text x="114.43" y="-581.85" transform="scale(1, -1)"
	style="font-family:Helvetica;font-weight:normal;font-style:normal;font-size:56px">100</text>
<text x="114.43" y="-734.97" transform="scale(1, -1)"
	style="font-family:Helvetica;font-weight:normal;font-style:normal;font-size:56px">200</text>
<path d="M239.42,442.85L231.42,442.85" style="fill:none;stroke:#000000;stroke-width:1.5" />
<path d="M235.42,519.41L231.42,519.41" style="fill:none;stroke:#000000;stroke-width:1.5" />
<path d="M239.42,595.96L231.42,595.96" style="fill:none;stroke:#000000;stroke-width:1.5" />
<path d="M235.42,672.52L231.42,672.52" style="fill:none;stroke:#000000;stroke-width:1.5" />
<path d="M239.42,749.08L231.42,749.08" style="fill:none;stroke:#000000;stroke-width:1.5" />
<path d="M231.42,182.24L231.42,905.62" style="fill:none;stroke:#000000;stroke-width:1.5" />
<path d="M241.67,399.66A5,5 0 1 1 231.67,399.66A5,5 0 1 1 241.67,399.66Z" style="fill:#1FD3AC" />
<path d="M242.5,410.69A5,5 0 1 1 232.5,410.69A5,5 0 1 1 242.5,410.69Z" style="fill:#1FD3AC" />
<path d="M243.34,417.67A5,5 0 1 1 233.34,417.67A5,5 0 1 1 243.34,417.67Z" style="fill:#1FD3AC" />
<path d="M244.17,456.88A5,5 0 1 1 234.17,456.88A5,5 0 1 1 244.17,456.88Z" style="fill:#1FD3AC" />
<path d="M245,491.86A5,5 0 1 1 235,491.86A5,5 0 1 1 245,491.86Z" style="fill:#1FD3AC" />
<path d="M245.83,338.22A5,5 0 1 1 235.83,338.22A5,5 0 1 1 245.83,338.22Z" style="fill:#1FD3AC" />
<path d="M246.66,491.98A5,5 0 1 1 236.66,491.98A5,5 0 1 1 246.66,491.98Z" style="fill:#1FD3AC" />
<path d="M247.5,273.62A5,5 0 1 1 237.5,273.62A5,5 0 1 1 247.5,273.62Z" style="fill:#1FD3AC" />
<path d="M248.33,443.12A5,5 0 1 1 238.33,443.12A5,5 0 1 1 248.33,443.12Z" style="fill:#1FD3AC" />
<path d="M249.16,397.52A5,5 0 1 1 239.16,397.52A5,5 0 1 1 249.16,397.52Z" style="fill:#1FD3AC" />
<path d="M249.99,481.04A5,5 0 1 1 239.99,481.04A5,5 0 1 1 249.99,481.04Z" style="fill:#1FD3AC" />
<path d="M250.82,442.17A5,5 0 1 1 240.82,442.17A5,5 0 1 1 250.82,442.17Z" style="fill:#1FD3AC" />
<path d="M251.66,446.27A5,5 0 1 1 241.66,446.27A5,5 0 1 1 251.66,446.27Z" style="fill:#1FD3AC" />
<path d="M252.49,438.1A5,5 0 1 1 242.49,438.1A5,5 0 1 1 252.49,438.1Z" style="fill:#1FD3AC" />
<path d="M253.32,500.57A5,5 0 1 1 243.32,500.57A5,5 0 1 1 253.32,500.57Z" style="fill:#1FD3AC" />
<path d="M254.15,342.54A5,5 0 1 1 244.15,342.54A5,5 0 1 1 254.15,342.54Z" style="fill:#1FD3AC" />
<path d="M254.99,427.96A5,5 0 1 1 244.99,427.96A5,5 0 1 1 254.99,427.96Z" style="fill:#1FD3AC" />
<path d="M255.82,460.76A5,5 0 1 1 245.82,460.76A5,5 0 1 1 255.82,460.76Z" style="fill:#1FD3AC" />
<path d="M256.65,559.2A5,5 0 1 1 246.65,559.2A5,5 0 1 1 256.65,559.2Z" style="fill:#1FD3AC" />
<path d="M257.48,456.15A5,5 0 1 1 247.48,456.15A5,5 0 1 1 257.48,456.15Z" style="fill:#1FD3AC" />
<path d="M258.31,591.58A5,5 0 1 1 248.31,591.58A5,5 0 1 1 258.31,591.58Z" style="fill:#1FD3AC" />
<path d="M259.15,352.25A5,5 0 1 1 249.15,352.25A5,5 0 1 1 259.15,352.25Z" style="fill:#1FD3AC" />
<path d="M259.98,433.82A5,5 0 1 1 249.98,433.82A5,5 0 1 1 259.98,433.82Z" style="fill:#1FD3AC" />
<path d="M260.81,426.48A5,5 0 1 1 250.81,426.48A5,5 0 1 1 260.81,426.48Z" style="fill:#1FD3AC" />
<path d="M261.64,581.25A5,5 0 1 1 251.64,581.25A5,5 0 1 1 261.64,581.25Z" style="fill:#1FD3AC" />
<path d="M262.47,384.38A5,5 0 1 1 252.47,384.38A5,5 0 1 1 262.47,384.38Z" style="fill:#1FD3AC" />
<path d="M263.31,515.28A5,5 0 1 1 253.31,515.28A5,5 0 1 1 263.31,515.28Z" style="fill:#1FD3AC" />
<path d="M264.14,465.65A5,5 0 1 1 254.14,465.65A5,5 0 1 1 264.14,465.65Z" style="fill:#1FD3AC" />
<path d="M264.97,288.3A5,5 0 1 1 254.97,288.3A5,5 0 1 1 264.97,288.3Z" style="fill:#1FD3AC" />
<path d="M265.8,479.13A5,5 0 1 1 255.8,479.13A5,5 0 1 1 265.8,479.13Z" style="fill:#1FD3AC" />
<path d="M266.63,413.4A5,5 0 1 1 256.63,413.4A5,5 0 1 1 266.63,413.4Z" style="fill:#1FD3AC" />
<path d="M267.47,359.66A5,5 0 1 1 257.47,359.66A5,5 0 1 1 267.47,359.66Z" style="fill:#1FD3AC" />
<path d="M268.3,397A5,5 0 1 1 258.3,397A5,5 0 1 1 268.3,397Z" style="fill:#1FD3AC" />
<path d="M269.13,383.02A5,5 0 1 1 259.13,383.02A5,5 0 1 1 269.13,383.02Z" style="fill:#1FD3AC" />
<path d="M269.96,493.13A5,5 0 1 1 259.96,493.13A5,5 0 1 1 269.96,493.13Z" style="fill:#1FD3AC" />
<path d="M270.79,350.44A5,5 0 1 1 260.79,350.44A5,5 0 1 1 270.79,350.44Z" style="fill:#1FD3AC" />
<path d="M271.63,513.31A5,5 0 1 1 261.63,513.31A5,5 0 1 1 271.63,513.31Z" style="fill:#1FD3AC" />
<path d="M272.46,482.3A5,5 0 1 1 262.46,482.3A5,5 0 1 1 272.46,482.3Z" style="fill:#1FD3AC" />
<path d="M273.29,368.98A5,5 0 1 1 263.29,368.98A5,5 0 1 1 273.29,368.98Z" style="fill:#1FD3AC" />
<path d="M274.12,456.94A5,5 0 1 1 264.12,456.94A5,5 0 1 1 274.12,456.94Z" style="fill:#1FD3AC" />
<path d="M274.95,477.08A5,5 0 1 1 264.95,477.08A5,5 0 1 1 274.95,477.08Z" style="fill:#1FD3AC" />
<path d="M275.79,405.31A5,5 0 1 1 265.79,405.31A5,5 0 1 1 275.79,405.31Z" style="fill:#1FD3AC" />
<path d="M276.62,428.41A5,5 0 1 1 266.62,428.41A5,5 0 1 1 276.62,428.41Z" style="fill:#1FD3AC" />
<path d="M277.45,455.53A5,5 0 1 1 267.45,455.53A5,5 0 1 1 277.45,455.53Z" style="fill:#1FD3AC" />
<path d="M278.28,469.54A5,5 0 1 1 268.28,469.54A5,5 0 1 1 278.28,469.54Z" style="fill:#1FD3AC" />
<path d="M279.12,569.3A5,5 0 1 1 269.12,569.3A5,5 0 1 1 279.12,569.3Z" style="fill:#1FD3AC" />
<path d="M279.95,349.47A5,5 0 1 1 269.95,349.47A5,5 0 1 1 279.95,349.47Z" style="fill:#1FD3AC" />
<path d="M280.78,358.09A5,5 0 1 1 270.78,358.09A5,5 0 1 1 280.78,358.09Z" style="fill:#1FD3AC" />
<path d="M281.61,515.3A5,5 0 1 1 271.61,515.3A5,5 0 1 1 281.61,515.3Z" style="fill:#1FD3AC" />
<path d="M282.44,475.93A5,5 0 1 1 272.44,475.93A5,5 0 1 1 282.44,475.93Z" style="fill:#1FD3AC" />
<path d="M283.28,440.51A5,5 0 1 1 273.28,440.51A5,5 0 1 1 283.28,440.51Z" style="fill:#1FD3AC" />
<path d="M284.11,381.35A5,5 0 1 1 274.11,381.35A5,5 0 1 1 284.11,381.35Z" style="fill:#1FD3AC" />
<path d="M284.94,495.68A5,5 0 1 1 274.94,495.68A5,5 0 1 1 284.94,495.68Z" style="fill:#1FD3AC" />
<path d="M285.77,483.15A5,5 0 1 1 275.77,483.15A5,5 0 1 1 285.77,483.15Z" style="fill:#1FD3AC" />
<path d="M286.6,217.75A5,5 0 1 1 276.6,217.75A5,5 0 1 1 286.6,217.75Z" style="fill:#1FD3AC" />
<path d="M287.44,384.75A5,5 0 1 1 277.44,384.75A5,5 0 1 1 287.44,384.75Z" style="fill:#1FD3AC" />
<path d="M288.27,264.12A5,5 0 1 1 278.27,264.12A5,5 0 1 1 288.27,264.12Z" style="fill:#1FD3AC" />
<path d="M289.1,543.46A5,5 0 1 1 279.1,543.46A5,5 0 1 1 289.1,543.46Z" style="fill:#1FD3AC" />
<path d="M289.93,455.56A5,5 0 1 1 279.93,455.56A5,5 0 1 1 289.93,455.56Z" style="fill:#1FD3AC" />
<path d="M290.76,485.03A5,5 0 1 1 280.76,485.03A5,5 0 1 1 290.76,485.03Z" style="fill:#1FD3AC" />
<path d="M291.6,367.99A5,5 0 1 1 281.6,367.99A5,5 0 1 1 291.6,367.99Z" style="fill:#1FD3AC" />
<path d="M292.43,405.97A5,5 0 1 1 282.43,405.97A5,5 0 1 1 292.43,405.97Z" style="fill:#1FD3AC" />
<path d="M293.26,355.83A5,5 0 1 1 283.26,355.83A5,5 0 1 1 293.26,355.83Z" style="fill:#1FD3AC" />
<path d="M294.09,291.67A5,5 0 1 1 284.09,291.67A5,5 0 1 1 294.09,291.67Z" style="fill:#1FD3AC" />
<path d="M294.92,546.73A5,5 0 1 1 284.92,546.73A5,5 0 1 1 294.92,546.73Z" style="fill:#1FD3AC" />
<path d="M295.76,318.22A5,5 0 1 1 285.76,318.22A5,5 0 1 1 295.76,318.22Z" style="fill:#1FD3AC" />
<path d="M296.59,414.41A5,5 0 1 1 286.59,414.41A5,5 0 1 1 296.59,414.41Z" style="fill:#1FD3AC" />
<path d="M297.42,457.69A5,5 0 1 1 287.42,457.69A5,5 0 1 1 297.42,457.69Z" style="fill:#1FD3AC" />
<path d="M298.25,573.45A5,5 0 1 1 288.25,573.45A5,5 0 1 1 298.25,573.45Z" style="fill:#1FD3AC" />
<path d="M299.09,516.24A5,5 0 1 1 289.09,516.24A5,5 0 1 1 299.09,516.24Z" style="fill:#1FD3AC" />
<path d="M299.92,480.83A5,5 0 1 1 289.92,480.83A5,5 0 1 1 299.92,480.83Z" style="fill:#1FD3AC" />
<path d="M300.75,441.24A5,5 0 1 1 290.75,441.24A5,5 0 1 1 300.75,441.24Z" style="fill:#1FD3AC" />
<path d="M301.58,450.59A5,5 0 1 1 291.58,450.59A5,5 0 1 1 301.58,450.59Z" style="fill:#1FD3AC" />
<path d="M302.41,371.2A5,5 0 1 1 292.41,371.2A5,5 0 1 1 302.41,371.2Z" style="fill:#1FD3AC" />
<path d="M303.25,389.19A5,5 0 1 1 293.25,389.19A5,5 0 1 1 303.25,389.19Z" style="fill:#1FD3AC" />
<path d="M304.08,456.02A5,5 0 1 1 294.08,456.02A5,5 0 1 1 304.08,456.02Z" style="fill:#1FD3AC" />
<path d="M304.91,310.4A5,5 0 1 1 294.91,310.4A5,5 0 1 1 304.91,310.4Z" style="fill:#1FD3AC" />
<path d="M305.74,413.9A5,5 0 1 1 295.74,413.9A5,5 0 1 1 305.74,413.9Z" style="fill:#1FD3AC" />
<path d="M306.57,587.6A5,5 0 1 1 296.57,587.6A5,5 0 1 1 306.57,587.6Z" style="fill:#1FD3AC" />
<path d="M307.41,396.57A5,5 0 1 1 297.41,396.57A5,5 0 1 1 307.41,396.57Z" style="fill:#1FD3AC" />
<path d="M308.24,535.28A5,5 0 1 1 298.24,535.28A5,5 0 1 1 308.24,535.28Z" style="fill:#1FD3AC" />
<path d="M309.07,441.32A5,5 0 1 1 299.07,441.32A5,5 0 1 1 309.07,441.32Z" style="fill:#1FD3AC" />
<path d="M309.9,553.87A5,5 0 1 1 299.9,553.87A5,5 0 1 1 309.9,553.87Z" style="fill:#1FD3AC" />
<path d="M310.73,583.74A5,5 0 1 1 300.73,583.74A5,5 0 1 1 310.73,583.74Z" style="fill:#1FD3AC" />
<path d="M311.57,519.97A5,5 0 1 1 301.57,519.97A5,5 0 1 1 311.57,519.97Z" style="fill:#1FD3AC" />
<path d="M312.4,434.7A5,5 0 1 1 302.4,434.7A5,5 0 1 1 312.4,434.7Z" style="fill:#1FD3AC" />
<path d="M313.23,398.08A5,5 0 1 1 303.23,398.08A5,5 0 1 1 313.23,398.08Z" style="fill:#1FD3AC" />
<path d="M314.06,390.12A5,5 0 1 1 304.06,390.12A5,5 0 1 1 314.06,390.12Z" style="fill:#1FD3AC" />
<path d="M314.89,410.55A5,5 0 1 1 304.89,410.55A5,5 0 1 1 314.89,410.55Z" style="fill:#1FD3AC" />
<path d="M315.73,424.29A5,5 0 1 1 305.73,424.29A5,5 0 1 1 315.73,424.29Z" style="fill:#1FD3AC" />
<path d="M316.56,311.14A5,5 0 1 1 306.56,311.14A5,5 0 1 1 316.56,311.14Z" style="fill:#1FD3AC" />
<path d="M317.39,480.13A5,5 0 1 1 307.39,480.13A5,5 0 1 1 317.39,480.13Z" style="fill:#1FD3AC" />
<path d="M318.22,499.79A5,5 0 1 1 308.22,499.79A5,5 0 1 1 318.22,499.79Z" style="fill:#1FD3AC" />
<path d="M319.06,521.49A5,5 0 1 1 309.06,521.49A5,5 0 1 1 319.06,521.49Z" style="fill:#1FD3AC" />
<path d="M319.89,522.53A5,5 0 1 1 309.89,522.53A5,5 0 1 1 319.89,522.53Z" style="fill:#1FD3AC" />
<path d="M320.72,466.83A5,5 0 1 1 310.72,466.83A5,5 0 1 1 320.72,466.83Z" style="fill:#1FD3AC" />
<path d="M321.55,465.35A5,5 0 1 1 311.55,465.35A5,5 0 1 1 321.55,465.35Z" style="fill:#1FD3AC" />
<path d="M322.38,458.71A5,5 0 1 1 312.38,458.71A5,5 0 1 1 322.38,458.71Z" style="fill:#1FD3AC" />
<path d="M323.22,390.89A5,5 0 1 1 313.22,390.89A5,5 0 1 1 323.22,390.89Z" style="fill:#1FD3AC" />
<path d="M324.05,382.19A5,5 0 1 1 314.05,382.19A5,5 0 1 1 324.05,382.19Z" style="fill:#1FD3AC" />
<path d="M324.88,468.77A5,5 0 1 1 314.88,468.77A5,5 0 1 1 324.88,468.77Z" style="fill:#1FD3AC" />
<path d="M325.71,384.33A5,5 0 1 1 315.71,384.33A5,5 0 1 1 325.71,384.33Z" style="fill:#1FD3AC" />
<path d="M326.54,317.43A5,5 0 1 1 316.54,317.43A5,5 0 1 1 326.54,317.43Z" style="fill:#1FD3AC" />
<path d="M327.38,524A5,5 0 1 1 317.38,524A5,5 0 1 1 327.38,524Z" style="fill:#1FD3AC" />
<path d="M328.21,461.94A5,5 0 1 1 318.21,461.94A5,5 0 1 1 328.21,461.94Z" style="fill:#1FD3AC" />
<path d="M329.04,463.57A5,5 0 1 1 319.04,463.57A5,5 0 1 1 329.04,463.57Z" style="fill:#1FD3AC" />
<path d="M329.87,365.68A5,5 0 1 1 319.87,365.68A5,5 0 1 1 329.87,365.68Z" style="fill:#1FD3AC" />
<path d="M330.7,424.61A5,5 0 1 1 320.7,424.61A5,5 0 1 1 330.7,424.61Z" style="fill:#1FD3AC" />
<path d="M331.54,411.42A5,5 0 1 1 321.54,411.42A5,5 0 1 1 331.54,411.42Z" style="fill:#1FD3AC" />
<path d="M332.37,494.04A5,5 0 1 1 322.37,494.04A5,5 0 1 1 332.37,494.04Z" style="fill:#1FD3AC" />
<path d="M333.2,517.71A5,5 0 1 1 323.2,517.71A5,5 0 1 1 333.2,517.71Z" style="fill:#1FD3AC" />
<path d="M334.03,411.07A5,5 0 1 1 324.03,411.07A5,5 0 1 1 334.03,411.07Z" style="fill:#1FD3AC" />
<path d="M334.86,520.69A5,5 0 1 1 324.86,520.69A5,5 0 1 1 334.86,520.69Z" style="fill:#1FD3AC" />
<path d="M335.7,593.08A5,5 0 1 1 325.7,593.08A5,5 0 1 1 335.7,593.08Z" style="fill:#1FD3AC" />
<path d="M336.53,440.28A5,5 0 1 1 326.53,440.28A5,5 0 1 1 336.53,440.28Z" style="fill:#1FD3AC" />
<path d="M337.36,453.98A5,5 0 1 1 327.36,453.98A5,5 0 1 1 337.36,453.98Z" style="fill:#1FD3AC" />
<path d="M338.19,501.41A5,5 0 1 1 328.19,501.41A5,5 0 1 1 338.19,501.41Z" style="fill:#1FD3AC" />
<path d="M339.02,444.5A5,5 0 1 1 329.02,444.5A5,5 0 1 1 339.02,444.5Z" style="fill:#1FD3AC" />
<path d="M339.86,378.86A5,5 0 1 1 329.86,378.86A5,5 0 1 1 339.86,378.86Z" style="fill:#1FD3AC" />
<path d="M340.69,541.62A5,5 0 1 1 330.69,541.62A5,5 0 1 1 340.69,541.62Z" style="fill:#1FD3AC" />
<path d="M341.52,506.29A5,5 0 1 1 331.52,506.29A5,5 0 1 1 341.52,506.29Z" style="fill:#1FD3AC" />
<path d="M342.35,429.94A5,5 0 1 1 332.35,429.94A5,5 0 1 1 342.35,429.94Z" style="fill:#1FD3AC" />
<path d="M343.19,442.03A5,5 0 1 1 333.19,442.03A5,5 0 1 1 343.19,442.03Z" style="fill:#1FD3AC" />
<path d="M344.02,459.27A5,5 0 1 1 334.02,459.27A5,5 0 1 1 344.02,459.27Z" style="fill:#1FD3AC" />
<path d="M344.85,415.81A5,5 0 1 1 334.85,415.81A5,5 0 1 1 344.85,415.81Z" style="fill:#1FD3AC" />
<path d="M345.68,399.21A5,5 0 1 1 335.68,399.21A5,5 0 1 1 345.68,399.21Z" style="fill:#1FD3AC" />
<path d="M346.51,418.52A5,5 0 1 1 336.51,418.52A5,5 0 1 1 346.51,418.52Z" style="fill:#1FD3AC" />
<path d="M347.35,590.5A5,5 0 1 1 337.35,590.5A5,5 0 1 1 347.35,590.5Z" style="fill:#1FD3AC" />
<path d="M348.18,579.6A5,5 0 1 1 338.18,579.6A5,5 0 1 1 348.18,579.6Z" style="fill:#1FD3AC" />
<path d="M349.01,417.98A5,5 0 1 1 339.01,417.98A5,5 0 1 1 349.01,417.98Z" style="fill:#1FD3AC" />
<path d="M349.84,425.55A5,5 0 1 1 339.84,425.55A5,5 0 1 1 349.84,425.55Z" style="fill:#1FD3AC" />
<path d="M350.67,530.62A5,5 0 1 1 340.67,530.62A5,5 0 1 1 350.67,530.62Z" style="fill:#1FD3AC" />
<path d="M351.51,548.35A5,5 0 1 1 341.51,548.35A5,5 0 1 1 351.51,548.35Z" style="fill:#1FD3AC" />
<path d="M352.34,501.87A5,5 0 1 1 342.34,501.87A5,5 0 1 1 352.34,501.87Z" style="fill:#1FD3AC" />
<path d="M353.17,429.97A5,5 0 1 1 343.17,429.97A5,5 0 1 1 353.17,429.97Z" style="fill:#1FD3AC" />
<path d="M354,342.39A5,5 0 1 1 344,342.39A5,5 0 1 1 354,342.39Z" style="fill:#1FD3AC" />
<path d="M354.83,369.38A5,5 0 1 1 344.83,369.38A5,5 0 1 1 354.83,369.38Z" style="fill:#1FD3AC" />
<path d="M355.67,533.47A5,5 0 1 1 345.67,533.47A5,5 0 1 1 355.67,533.47Z" style="fill:#1FD3AC" />
<path d="M356.5,666.34A5,5 0 1 1 346.5,666.34A5,5 0 1 1 356.5,666.34Z" style="fill:#1FD3AC" />
<path d="M357.33,522.99A5,5 0 1 1 347.33,522.99A5,5 0 1 1 357.33,522.99Z" style="fill:#1FD3AC" />
<path d="M358.16,446.25A5,5 0 1 1 348.16,446.25A5,5 0 1 1 358.16,446.25Z" style="fill:#1FD3AC" />
<path d="M358.99,467.72A5,5 0 1 1 348.99,467.72A5,5 0 1 1 358.99,467.72Z" style="fill:#1FD3AC" />
<path d="M359.83,421.33A5,5 0 1 1 349.83,421.33A5,5 0 1 1 359.83,421.33Z" style="fill:#1FD3AC" />
<path d="M360.66,446.79A5,5 0 1 1 350.66,446.79A5,5 0 1 1 360.66,446.79Z" style="fill:#1FD3AC" />
<path d="M361.49,358.81A5,5 0 1 1 351.49,358.81A5,5 0 1 1 361.49,358.81Z" style="fill:#1FD3AC" />
<path d="M362.32,315.52A5,5 0 1 1 352.32,315.52A5,5 0 1 1 362.32,315.52Z" style="fill:#1FD3AC" />
<path d="M363.16,274.82A5,5 0 1 1 353.16,274.82A5,5 0 1 1 363.16,274.82Z" style="fill:#1FD3AC" />
<path d="M363.99,412.41A5,5 0 1 1 353.99,412.41A5,5 0 1 1 363.99,412.41Z" style="fill:#1FD3AC" />
<path d="M364.82,513.08A5,5 0 1 1 354.82,513.08A5,5 0 1 1 364.82,513.08Z" style="fill:#1FD3AC" />
<path d="M365.65,360.21A5,5 0 1 1 355.65,360.21A5,5 0 1 1 365.65,360.21Z" style="fill:#1FD3AC" />
<path d="M366.48,429.58A5,5 0 1 1 356.48,429.58A5,5 0 1 1 366.48,429.58Z" style="fill:#1FD3AC" />
<path d="M367.32,308.77A5,5 0 1 1 357.32,308.77A5,5 0 1 1 367.32,308.77Z" style="fill:#1FD3AC" />
<path d="M368.15,533.12A5,5 0 1 1 358.15,533.12A5,5 0 1 1 368.15,533.12Z" style="fill:#1FD3AC" />
<path d="M368.98,451.21A5,5 0 1 1 358.98,451.21A5,5 0 1 1 368.98,451.21Z" style="fill:#1FD3AC" />
<path d="M369.81,479.88A5,5 0 1 1 359.81,479.88A5,5 0 1 1 369.81,479.88Z" style="fill:#1FD3AC" />
<path d="M370.64,462.43A5,5 0 1 1 360.64,462.43A5,5 0 1 1 370.64,462.43Z" style="fill:#1FD3AC" />
<path d="M371.48,321.61A5,5 0 1 1 361.48,321.61A5,5 0 1 1 371.48,321.61Z" style="fill:#1FD3AC" />
<path d="M372.31,340.17A5,5 0 1 1 362.31,340.17A5,5 0 1 1 372.31,340.17Z" style="fill:#1FD3AC" />
<path d="M373.14,437.29A5,5 0 1 1 363.14,437.29A5,5 0 1 1 373.14,437.29Z" style="fill:#1FD3AC" />
<path d="M373.97,561.05A5,5 0 1 1 363.97,561.05A5,5 0 1 1 373.97,561.05Z" style="fill:#1FD3AC" />
<path d="M374.8,484.6A5,5 0 1 1 364.8,484.6A5,5 0 1 1 374.8,484.6Z" style="fill:#1FD3AC" />
<path d="M375.64,383.21A5,5 0 1 1 365.64,383.21A5,5 0 1 1 375.64,383.21Z" style="fill:#1FD3AC" />
<path d="M376.47,641.32A5,5 0 1 1 366.47,641.32A5,5 0 1 1 376.47,641.32Z" style="fill:#1FD3AC" />
<path d="M377.3,526.63A5,5 0 1 1 367.3,526.63A5,5 0 1 1 377.3,526.63Z" style="fill:#1FD3AC" />
<path d="M378.13,451.49A5,5 0 1 1 368.13,451.49A5,5 0 1 1 378.13,451.49Z" style="fill:#1FD3AC" />
<path d="M378.96,429.31A5,5 0 1 1 368.96,429.31A5,5 0 1 1 378.96,429.31Z" style="fill:#1FD3AC" />
<path d="M379.8,454.68A5,5 0 1 1 369.8,454.68A5,5 0 1 1 379.8,454.68Z" style="fill:#1FD3AC" />
<path d="M380.63,445.09A5,5 0 1 1 370.63,445.09A5,5 0 1 1 380.63,445.09Z" style="fill:#1FD3AC" />
<path d="M381.46,485.89A5,5 0 1 1 371.46,485.89A5,5 0 1 1 381.46,485.89Z" style="fill:#1FD3AC" />
<path d="M382.29,213.04A5,5 0 1 1 372.29,213.04A5,5 0 1 1 382.29,213.04Z" style="fill:#1FD3AC" />
<path d="M383.13,429.84A5,5 0 1 1 373.13,429.84A5,5 0 1 1 383.13,429.84Z" style="fill:#1FD3AC" />
<path d="M383.96,317.54A5,5 0 1 1 373.96,317.54A5,5 0 1 1 383.96,317.54Z" style="fill:#1FD3AC" />
<path d="M384.79,575.77A5,5 0 1 1 374.79,575.77A5,5 0 1 1 384.79,575.77Z" style="fill:#1FD3AC" />
<path d="M385.62,352.31A5,5 0 1 1 375.62,352.31A5,5 0 1 1 385.62,352.31Z" style="fill:#1FD3AC" />
<path d="M386.45,543.7A5,5 0 1 1 376.45,543.7A5,5 0 1 1 386.45,543.7Z" style="fill:#1FD3AC" />
<path d="M387.29,466.12A5,5 0 1 1 377.29,466.12A5,5 0 1 1 387.29,466.12Z" style="fill:#1FD3AC" />
<path d="M388.12,399.57A5,5 0 1 1 378.12,399.57A5,5 0 1 1 388.12,399.57Z" style="fill:#1FD3AC" />
<path d="M388.95,361.31A5,5 0 1 1 378.95,361.31A5,5 0 1 1 388.95,361.31Z" style="fill:#1FD3AC" />
<path d="M389.78,316.75A5,5 0 1 1 379.78,316.75A5,5 0 1 1 389.78,316.75Z" style="fill:#1FD3AC" />
<path d="M390.61,518.01A5,5 0 1 1 380.61,518.01A5,5 0 1 1 390.61,518.01Z" style="fill:#1FD3AC" />
<path d="M391.45,406.15A5,5 0 1 1 381.45,406.15A5,5 0 1 1 391.45,406.15Z" style="fill:#1FD3AC" />
<path d="M392.28,399.38A5,5 0 1 1 382.28,399.38A5,5 0 1 1 392.28,399.38Z" style="fill:#1FD3AC" />
<path d="M393.11,406.11A5,5 0 1 1 383.11,406.11A5,5 0 1 1 393.11,406.11Z" style="fill:#1FD3AC" />
<path d="M393.94,555.17A5,5 0 1 1 383.94,555.17A5,5 0 1 1 393.94,555.17Z" style="fill:#1FD3AC" />
<path d="M394.77,498.35A5,5 0 1 1 384.77,498.35A5,5 0 1 1 394.77,498.35Z" style="fill:#1FD3AC" />
<path d="M395.61,426.01A5,5 0 1 1 385.61,426.01A5,5 0 1 1 395.61,426.01Z" style="fill:#1FD3AC" />
<path d="M396.44,390.66A5,5 0 1 1 386.44,390.66A5,5 0 1 1 396.44,390.66Z" style="fill:#1FD3AC" />
<path d="M397.27,501.25A5,5 0 1 1 387.27,501.25A5,5 0 1 1 397.27,501.25Z" style="fill:#1FD3AC" />
<path d="M398.1,407.87A5,5 0 1 1 388.1,407.87A5,5 0 1 1 398.1,407.87Z" style="fill:#1FD3AC" />
<path d="M398.93,260.25A5,5 0 1 1 388.93,260.25A5,5 0 1 1 398.93,260.25Z" style="fill:#1FD3AC" />
<path d="M399.77,423.34A5,5 0 1 1 389.77,423.34A5,5 0 1 1 399.77,423.34Z" style="fill:#1FD3AC" />
<path d="M400.6,443.81A5,5 0 1 1 390.6,443.81A5,5 0 1 1 400.6,443.81Z" style="fill:#1FD3AC" />
<path d="M401.43,556.18A5,5 0 1 1 391.43,556.18A5,5 0 1 1 401.43,556.18Z" style="fill:#1FD3AC" />
<path d="M402.26,351.95A5,5 0 1 1 392.26,351.95A5,5 0 1 1 402.26,351.95Z" style="fill:#1FD3AC" />
<path d="M403.09,385.25A5,5 0 1 1 393.09,385.25A5,5 0 1 1 403.09,385.25Z" style="fill:#1FD3AC" />
<path d="M403.93,491.88A5,5 0 1 1 393.93,491.88A5,5 0 1 1 403.93,491.88Z" style="fill:#1FD3AC" />
<path d="M404.76,482.3A5,5 0 1 1 394.76,482.3A5,5 0 1 1 404.76,482.3Z" style="fill:#1FD3AC" />
<path d="M405.59,651.3A5,5 0 1 1 395.59,651.3A5,5 0 1 1 405.59,651.3Z" style="fill:#1FD3AC" />
<path d="M406.42,583.07A5,5 0 1 1 396.42,583.07A5,5 0 1 1 406.42,583.07Z" style="fill:#1FD3AC" />
<path d="M407.26,379.06A5,5 0 1 1 397.26,379.06A5,5 0 1 1 407.26,379.06Z" style="fill:#1FD3AC" />
<path d="M408.09,419.7A5,5 0 1 1 398.09,419.7A5,5 0 1 1 408.09,419.7Z" style="fill:#1FD3AC" />
<path d="M408.92,467.11A5,5 0 1 1 398.92,467.11A5,5 0 1 1 408.92,467.11Z" style="fill:#1FD3AC" />
<path d="M409.75,499.34A5,5 0 1 1 399.75,499.34A5,5 0 1 1 409.75,499.34Z" style="fill:#1FD3AC" />
<path d="M410.58,457.08A5,5 0 1 1 400.58,457.08A5,5 0 1 1 410.58,457.08Z" style="fill:#1FD3AC" />
<path d="M411.42,590.21A5,5 0 1 1 401.42,590.21A5,5 0 1 1 411.42,590.21Z" style="fill:#1FD3AC" />
<path d="M412.25,473.97A5,5 0 1 1 402.25,473.97A5,5 0 1 1 412.25,473.97Z" style="fill:#1FD3AC" />
<path d="M413.08,553.53A5,5 0 1 1 403.08,553.53A5,5 0 1 1 413.08,553.53Z" style="fill:#1FD3AC" />
<path d="M413.91,480.93A5,5 0 1 1 403.91,480.93A5,5 0 1 1 413.91,480.93Z" style="fill:#1FD3AC" />
<path d="M414.74,553.27A5,5 0 1 1 404.74,553.27A5,5 0 1 1 414.74,553.27Z" style="fill:#1FD3AC" />
<path d="M415.58,385.86A5,5 0 1 1 405.58,385.86A5,5 0 1 1 415.58,385.86Z" style="fill:#1FD3AC" />
<path d="M416.41,410.19A5,5 0 1 1 406.41,410.19A5,5 0 1 1 416.41,410.19Z" style="fill:#1FD3AC" />
<path d="M417.24,454.45A5,5 0 1 1 407.24,454.45A5,5 0 1 1 417.24,454.45Z" style="fill:#1FD3AC" />
<path d="M418.07,499.46A5,5 0 1 1 408.07,499.46A5,5 0 1 1 418.07,499.46Z" style="fill:#1FD3AC" />
<path d="M418.9,573.25A5,5 0 1 1 408.9,573.25A5,5 0 1 1 418.9,573.25Z" style="fill:#1FD3AC" />
<path d="M419.74,387.62A5,5 0 1 1 409.74,387.62A5,5 0 1 1 419.74,387.62Z" style="fill:#1FD3AC" />
<path d="M420.57,646.76A5,5 0 1 1 410.57,646.76A5,5 0 1 1 420.57,646.76Z" style="fill:#1FD3AC" />
<path d="M421.4,283.53A5,5 0 1 1 411.4,283.53A5,5 0 1 1 421.4,283.53Z" style="fill:#1FD3AC" />
<path d="M422.23,390.74A5,5 0 1 1 412.23,390.74A5,5 0 1 1 422.23,390.74Z" style="fill:#1FD3AC" />
<path d="M423.06,545.9A5,5 0 1 1 413.06,545.9A5,5 0 1 1 423.06,545.9Z" style="fill:#1FD3AC" />
<path d="M423.9,403.15A5,5 0 1 1 413.9,403.15A5,5 0 1 1 423.9,403.15Z" style="fill:#1FD3AC" />
<path d="M424.73,590.74A5,5 0 1 1 414.73,590.74A5,5 0 1 1 424.73,590.74Z" style="fill:#1FD3AC" />
<path d="M425.56,588.94A5,5 0 1 1 415.56,588.94A5,5 0 1 1 425.56,588.94Z" style="fill:#1FD3AC" />
<path d="M426.39,423.78A5,5 0 1 1 416.39,423.78A5,5 0 1 1 426.39,423.78Z" style="fill:#1FD3AC" />
<path d="M427.23,299.98A5,5 0 1 1 417.23,299.98A5,5 0 1 1 427.23,299.98Z" style="fill:#1FD3AC" />
<path d="M428.06,505.57A5,5 0 1 1 418.06,505.57A5,5 0 1 1 428.06,505.57Z" style="fill:#1FD3AC" />
<path d="M428.89,517.14A5,5 0 1 1 418.89,517.14A5,5 0 1 1 428.89,517.14Z" style="fill:#1FD3AC" />
<path d="M429.72,442.62A5,5 0 1 1 419.72,442.62A5,5 0 1 1 429.72,442.62Z" style="fill:#1FD3AC" />
<path d="M430.55,244.58A5,5 0 1 1 420.55,244.58A5,5 0 1 1 430.55,244.58Z" style="fill:#1FD3AC" />
<path d="M431.39,497.34A5,5 0 1 1 421.39,497.34A5,5 0 1 1 431.39,497.34Z" style="fill:#1FD3AC" />
<path d="M432.22,624.31A5,5 0 1 1 422.22,624.31A5,5 0 1 1 432.22,624.31Z" style="fill:#1FD3AC" />
<path d="M433.05,571.4A5,5 0 1 1 423.05,571.4A5,5 0 1 1 433.05,571.4Z" style="fill:#1FD3AC" />
<path d="M433.88,442.82A5,5 0 1 1 423.88,442.82A5,5 0 1 1 433.88,442.82Z" style="fill:#1FD3AC" />
<path d="M434.71,349.41A5,5 0 1 1 424.71,349.41A5,5 0 1 1 434.71,349.41Z" style="fill:#1FD3AC" />
<path d="M435.55,583.34A5,5 0 1 1 425.55,583.34A5,5 0 1 1 435.55,583.34Z" style="fill:#1FD3AC" />
<path d="M436.38,378.35A5,5 0 1 1 426.38,378.35A5,5 0 1 1 436.38,378.35Z" style="fill:#1FD3AC" />
<path d="M437.21,417.55A5,5 0 1 1 427.21,417.55A5,5 0 1 1 437.21,417.55Z" style="fill:#1FD3AC" />
<path d="M438.04,431.65A5,5 0 1 1 428.04,431.65A5,5 0 1 1 438.04,431.65Z" style="fill:#1FD3AC" />
<path d="M438.87,468.67A5,5 0 1 1 428.87,468.67A5,5 0 1 1 438.87,468.67Z" style="fill:#1FD3AC" />
<path d="M439.71,468.81A5,5 0 1 1 429.71,468.81A5,5 0 1 1 439.71,468.81Z" style="fill:#1FD3AC" />
<path d="M440.54,277.2A5,5 0 1 1 430.54,277.2A5,5 0 1 1 440.54,277.2Z" style="fill:#1FD3AC" />
<path d="M441.37,441.63A5,5 0 1 1 431.37,441.63A5,5 0 1 1 441.37,441.63Z" style="fill:#1FD3AC" />
<path d="M442.2,527.31A5,5 0 1 1 432.2,527.31A5,5 0 1 1 442.2,527.31Z" style="fill:#1FD3AC" />
<path d="M443.03,361.3A5,5 0 1 1 433.03,361.3A5,5 0 1 1 443.03,361.3Z" style="fill:#1FD3AC" />
<path d="M443.87,471.63A5,5 0 1 1 433.87,471.63A5,5 0 1 1 443.87,471.63Z" style="fill:#1FD3AC" />
<path d="M444.7,418.12A5,5 0 1 1 434.7,418.12A5,5 0 1 1 444.7,418.12Z" style="fill:#1FD3AC" />
<path d="M445.53,286.64A5,5 0 1 1 435.53,286.64A5,5 0 1 1 445.53,286.64Z" style="fill:#1FD3AC" />
<path d="M446.36,479.12A5,5 0 1 1 436.36,479.12A5,5 0 1 1 446.36,479.12Z" style="fill:#1FD3AC" />
<path d="M447.2,547.15A5,5 0 1 1 437.2,547.15A5,5 0 1 1 447.2,547.15Z" style="fill:#1FD3AC" />
<path d="M448.03,535.46A5,5 0 1 1 438.03,535.46A5,5 0 1 1 448.03,535.46Z" style="fill:#1FD3AC" />
<path d="M448.86,425.49A5,5 0 1 1 438.86,425.49A5,5 0 1 1 448.86,425.49Z" style="fill:#1FD3AC" />
<path d="M449.69,422.34A5,5 0 1 1 439.69,422.34A5,5 0 1 1 449.69,422.34Z" style="fill:#1FD3AC" />
<path d="M450.52,374.82A5,5 0 1 1 440.52,374.82A5,5 0 1 1 450.52,374.82Z" style="fill:#1FD3AC" />
<path d="M451.36,349.01A5,5 0 1 1 441.36,349.01A5,5 0 1 1 451.36,349.01Z" style="fill:#1FD3AC" />
<path d="M452.19,578.6A5,5 0 1 1 442.19,578.6A5,5 0 1 1 452.19,578.6Z" style="fill:#1FD3AC" />
<path d="M453.02,500.01A5,5 0 1 1 443.02,500.01A5,5 0 1 1 453.02,500.01Z" style="fill:#1FD3AC" />
<path d="M453.85,224.56A5,5 0 1 1 443.85,224.56A5,5 0 1 1 453.85,224.56Z" style="fill:#1FD3AC" />
<path d="M454.68,480.13A5,5 0 1 1 444.68,480.13A5,5 0 1 1 454.68,480.13Z" style="fill:#1FD3AC" />
<path d="M455.52,367.43A5,5 0 1 1 445.52,367.43A5,5 0 1 1 455.52,367.43Z" style="fill:#1FD3AC" />
<path d="M456.35,446.9A5,5 0 1 1 446.35,446.9A5,5 0 1 1 456.35,446.9Z" style="fill:#1FD3AC" />
<path d="M457.18,498.63A5,5 0 1 1 447.18,498.63A5,5 0 1 1 457.18,498.63Z" style="fill:#1FD3AC" />
<path d="M458.01,496.76A5,5 0 1 1 448.01,496.76A5,5 0 1 1 458.01,496.76Z" style="fill:#1FD3AC" />
<path d="M458.84,306.01A5,5 0 1 1 448.84,306.01A5,5 0 1 1 458.84,306.01Z" style="fill:#1FD3AC" />
<path d="M459.68,449.26A5,5 0 1 1 449.68,449.26A5,5 0 1 1 459.68,449.26Z" style="fill:#1FD3AC" />
<path d="M460.51,442.81A5,5 0 1 1 450.51,442.81A5,5 0 1 1 460.51,442.81Z" style="fill:#1FD3AC" />
<path d="M461.34,469.42A5,5 0 1 1 451.34,469.42A5,5 0 1 1 461.34,469.42Z" style="fill:#1FD3AC" />
<path d="M462.17,417.18A5,5 0 1 1 452.17,417.18A5,5 0 1 1 462.17,417.18Z" style="fill:#1FD3AC" />
<path d="M463,429.46A5,5 0 1 1 453,429.46A5,5 0 1 1 463,429.46Z" style="fill:#1FD3AC" />
<path d="M463.84,442.06A5,5 0 1 1 453.84,442.06A5,5 0 1 1 463.84,442.06Z" style="fill:#1FD3AC" />
<path d="M464.67,260.17A5,5 0 1 1 454.67,260.17A5,5 0 1 1 464.67,260.17Z" style="fill:#1FD3AC" />
<path d="M465.5,469.45A5,5 0 1 1 455.5,469.45A5,5 0 1 1 465.5,469.45Z" style="fill:#1FD3AC" />
<path d="M466.33,407.22A5,5 0 1 1 456.33,407.22A5,5 0 1 1 466.33,407.22Z" style="fill:#1FD3AC" />
<path d="M467.16,624.94A5,5 0 1 1 457.16,624.94A5,5 0 1 1 467.16,624.94Z" style="fill:#1FD3AC" />
<path d="M468,589.81A5,5 0 1 1 458,589.81A5,5 0 1 1 468,589.81Z" style="fill:#1FD3AC" />
<path d="M468.83,468.21A5,5 0 1 1 458.83,468.21A5,5 0 1 1 468.83,468.21Z" style="fill:#1FD3AC" />
<path d="M469.66,450.32A5,5 0 1 1 459.66,450.32A5,5 0 1 1 469.66,450.32Z" style="fill:#1FD3AC" />
<path d="M470.49,359.49A5,5 0 1 1 460.49,359.49A5,5 0 1 1 470.49,359.49Z" style="fill:#1FD3AC" />
<path d="M471.33,606.31A5,5 0 1 1 461.33,606.31A5,5 0 1 1 471.33,606.31Z" style="fill:#1FD3AC" />
<path d="M472.16,411.89A5,5 0 1 1 462.16,411.89A5,5 0 1 1 472.16,411.89Z" style="fill:#1FD3AC" />
<path d="M472.99,260.14A5,5 0 1 1 462.99,260.14A5,5 0 1 1 472.99,260.14Z" style="fill:#1FD3AC" />
<path d="M473.82,490.88A5,5 0 1 1 463.82,490.88A5,5 0 1 1 473.82,490.88Z" style="fill:#1FD3AC" />
<path d="M474.65,486.72A5,5 0 1 1 464.65,486.72A5,5 0 1 1 474.65,486.72Z" style="fill:#1FD3AC" />
<path d="M475.49,324.81A5,5 0 1 1 465.49,324.81A5,5 0 1 1 475.49,324.81Z" style="fill:#1FD3AC" />
<path d="M476.32,433.92A5,5 0 1 1 466.32,433.92A5,5 0 1 1 476.32,433.92Z" style="fill:#1FD3AC" />
<path d="M477.15,638.23A5,5 0 1 1 467.15,638.23A5,5 0 1 1 477.15,638.23Z" style="fill:#1FD3AC" />
<path d="M477.98,590.58A5,5 0 1 1 467.98,590.58A5,5 0 1 1 477.98,590.58Z" style="fill:#1FD3AC" />
<path d="M478.81,421.63A5,5 0 1 1 468.81,421.63A5,5 0 1 1 478.81,421.63Z" style="fill:#1FD3AC" />
<path d="M479.65,452.64A5,5 0 1 1 469.65,452.64A5,5 0 1 1 479.65,452.64Z" style="fill:#1FD3AC" />
<path d="M480.48,447.02A5,5 0 1 1 470.48,447.02A5,5 0 1 1 480.48,447.02Z" style="fill:#1FD3AC" />
<path d="M481.31,434.86A5,5 0 1 1 471.31,434.86A5,5 0 1 1 481.31,434.86Z" style="fill:#1FD3AC" />
<path d="M482.14,444.7A5,5 0 1 1 472.14,444.7A5,5 0 1 1 482.14,444.7Z" style="fill:#1FD3AC" />
<path d="M482.97,373.88A5,5 0 1 1 472.97,373.88A5,5 0 1 1 482.97,373.88Z" style="fill:#1FD3AC" />
<path d="M483.81,305.92A5,5 0 1 1 473.81,305.92A5,5 0 1 1 483.81,305.92Z" style="fill:#1FD3AC" />
<path d="M484.64,371.42A5,5 0 1 1 474.64,371.42A5,5 0 1 1 484.64,371.42Z" style="fill:#1FD3AC" />
<path d="M485.47,338.5A5,5 0 1 1 475.47,338.5A5,5 0 1 1 485.47,338.5Z" style="fill:#1FD3AC" />
<path d="M486.3,516.46A5,5 0 1 1 476.3,516.46A5,5 0 1 1 486.3,516.46Z" style="fill:#1FD3AC" />
<path d="M487.13,371.69A5,5 0 1 1 477.13,371.69A5,5 0 1 1 487.13,371.69Z" style="fill:#1FD3AC" />
<path d="M487.97,468.55A5,5 0 1 1 477.97,468.55A5,5 0 1 1 487.97,468.55Z" style="fill:#1FD3AC" />
<path d="M488.8,510.39A5,5 0 1 1 478.8,510.39A5,5 0 1 1 488.8,510.39Z" style="fill:#1FD3AC" />
<path d="M489.63,466.97A5,5 0 1 1 479.63,466.97A5,5 0 1 1 489.63,466.97Z" style="fill:#1FD3AC" />
<path d="M490.46,341.16A5,5 0 1 1 480.46,341.16A5,5 0 1 1 490.46,341.16Z" style="fill:#1FD3AC" />
<path d="M491.3,377.55A5,5 0 1 1 481.3,377.55A5,5 0 1 1 491.3,377.55Z" style="fill:#1FD3AC" />
<path d="M492.13,355.86A5,5 0 1 1 482.13,355.86A5,5 0 1 1 492.13,355.86Z" style="fill:#1FD3AC" />
<path d="M492.96,340.28A5,5 0 1 1 482.96,340.28A5,5 0 1 1 492.96,340.28Z" style="fill:#1FD3AC" />
<path d="M493.79,488.96A5,5 0 1 1 483.79,488.96A5,5 0 1 1 493.79,488.96Z" style="fill:#1FD3AC" />
<path d="M494.62,359.09A5,5 0 1 1 484.62,359.09A5,5 0 1 1 494.62,359.09Z" style="fill:#1FD3AC" />
<path d="M495.46,520.62A5,5 0 1 1 485.46,520.62A5,5 0 1 1 495.46,520.62Z" style="fill:#1FD3AC" />
<path d="M496.29,365.06A5,5 0 1 1 486.29,365.06A5,5 0 1 1 496.29,365.06Z" style="fill:#1FD3AC" />
<path d="M497.12,523.79A5,5 0 1 1 487.12,523.79A5,5 0 1 1 497.12,523.79Z" style="fill:#1FD3AC" />
<path d="M497.95,451.94A5,5 0 1 1 487.95,451.94A5,5 0 1 1 497.95,451.94Z" style="fill:#1FD3AC" />
<path d="M498.78,318.82A5,5 0 1 1 488.78,318.82A5,5 0 1 1 498.78,318.82Z" style="fill:#1FD3AC" />
<path d="M499.62,310.42A5,5 0 1 1 489.62,310.42A5,5 0 1 1 499.62,310.42Z" style="fill:#1FD3AC" />
<path d="M500.45,441.85A5,5 0 1 1 490.45,441.85A5,5 0 1 1 500.45,441.85Z" style="fill:#1FD3AC" />
<path d="M501.28,535.08A5,5 0 1 1 491.28,535.08A5,5 0 1 1 501.28,535.08Z" style="fill:#1FD3AC" />
<path d="M502.11,567.94A5,5 0 1 1 492.11,567.94A5,5 0 1 1 502.11,567.94Z" style="fill:#1FD3AC" />
<path d="M502.94,320.6A5,5 0 1 1 492.94,320.6A5,5 0 1 1 502.94,320.6Z" style="fill:#1FD3AC" />
<path d="M503.78,466.56A5,5 0 1 1 493.78,466.56A5,5 0 1 1 503.78,466.56Z" style="fill:#1FD3AC" />
<path d="M504.61,351.79A5,5 0 1 1 494.61,351.79A5,5 0 1 1 504.61,351.79Z" style="fill:#1FD3AC" />
<path d="M505.44,498.14A5,5 0 1 1 495.44,498.14A5,5 0 1 1 505.44,498.14Z" style="fill:#1FD3AC" />
<path d="M506.27,380.46A5,5 0 1 1 496.27,380.46A5,5 0 1 1 506.27,380.46Z" style="fill:#1FD3AC" />
<path d="M507.1,418.36A5,5 0 1 1 497.1,418.36A5,5 0 1 1 507.1,418.36Z" style="fill:#1FD3AC" />
<path d="M507.94,499.94A5,5 0 1 1 497.94,499.94A5,5 0 1 1 507.94,499.94Z" style="fill:#1FD3AC" />
<path d="M508.77,656.85A5,5 0 1 1 498.77,656.85A5,5 0 1 1 508.77,656.85Z" style="fill:#1FD3AC" />
<path d="M509.6,685.29A5,5 0 1 1 499.6,685.29A5,5 0 1 1 509.6,685.29Z" style="fill:#1FD3AC" />
<path d="M510.43,375.5A5,5 0 1 1 500.43,375.5A5,5 0 1 1 510.43,375.5Z" style="fill:#1FD3AC" />
<path d="M511.27,275.7A5,5 0 1 1 501.27,275.7A5,5 0 1 1 511.27,275.7Z" style="fill:#1FD3AC" />
<path d="M512.1,466.87A5,5 0 1 1 502.1,466.87A5,5 0 1 1 512.1,466.87Z" style="fill:#1FD3AC" />
<path d="M512.93,560.96A5,5 0 1 1 502.93,560.96A5,5 0 1 1 512.93,560.96Z" style="fill:#1FD3AC" />
<path d="M513.76,544.35A5,5 0 1 1 503.76,544.35A5,5 0 1 1 513.76,544.35Z" style="fill:#1FD3AC" />
<path d="M514.59,453.03A5,5 0 1 1 504.59,453.03A5,5 0 1 1 514.59,453.03Z" style="fill:#1FD3AC" />
<path d="M515.43,538.58A5,5 0 1 1 505.43,538.58A5,5 0 1 1 515.43,538.58Z" style="fill:#1FD3AC" />
<path d="M516.26,442.13A5,5 0 1 1 506.26,442.13A5,5 0 1 1 516.26,442.13Z" style="fill:#1FD3AC" />
<path d="M517.09,399.82A5,5 0 1 1 507.09,399.82A5,5 0 1 1 517.09,399.82Z" style="fill:#1FD3AC" />
<path d="M517.92,428.39A5,5 0 1 1 507.92,428.39A5,5 0 1 1 517.92,428.39Z" style="fill:#1FD3AC" />
<path d="M518.75,380.08A5,5 0 1 1 508.75,380.08A5,5 0 1 1 518.75,380.08Z" style="fill:#1FD3AC" />
<path d="M519.59,416A5,5 0 1 1 509.59,416A5,5 0 1 1 519.59,416Z" style="fill:#1FD3AC" />
<path d="M520.42,355.41A5,5 0 1 1 510.42,355.41A5,5 0 1 1 520.42,355.41Z" style="fill:#1FD3AC" />
<path d="M521.25,400.58A5,5 0 1 1 511.25,400.58A5,5 0 1 1 521.25,400.58Z" style="fill:#1FD3AC" />
<path d="M522.08,502.4A5,5 0 1 1 512.08,502.4A5,5 0 1 1 522.08,502.4Z" style="fill:#1FD3AC" />
<path d="M522.91,514.74A5,5 0 1 1 512.91,514.74A5,5 0 1 1 522.91,514.74Z" style="fill:#1FD3AC" />
<path d="M523.75,531.34A5,5 0 1 1 513.75,531.34A5,5 0 1 1 523.75,531.34Z" style="fill:#1FD3AC" />
<path d="M524.58,464.68A5,5 0 1 1 514.58,464.68A5,5 0 1 1 524.58,464.68Z" style="fill:#1FD3AC" />
<path d="M525.41,436.46A5,5 0 1 1 515.41,436.46A5,5 0 1 1 525.41,436.46Z" style="fill:#1FD3AC" />
<path d="M526.24,408.37A5,5 0 1 1 516.24,408.37A5,5 0 1 1 526.24,408.37Z" style="fill:#1FD3AC" />
<path d="M527.07,590.47A5,5 0 1 1 517.07,590.47A5,5 0 1 1 527.07,590.47Z" style="fill:#1FD3AC" />
<path d="M527.91,471.44A5,5 0 1 1 517.91,471.44A5,5 0 1 1 527.91,471.44Z" style="fill:#1FD3AC" />
<path d="M528.74,489.74A5,5 0 1 1 518.74,489.74A5,5 0 1 1 528.74,489.74Z" style="fill:#1FD3AC" />
<path d="M529.57,488.53A5,5 0 1 1 519.57,488.53A5,5 0 1 1 529.57,488.53Z" style="fill:#1FD3AC" />
<path d="M530.4,418A5,5 0 1 1 520.4,418A5,5 0 1 1 530.4,418Z" style="fill:#1FD3AC" />
<path d="M531.23,578.33A5,5 0 1 1 521.23,578.33A5,5 0 1 1 531.23,578.33Z" style="fill:#1FD3AC" />
<path d="M532.07,414.97A5,5 0 1 1 522.07,414.97A5,5 0 1 1 532.07,414.97Z" style="fill:#1FD3AC" />
<path d="M532.9,463.4A5,5 0 1 1 522.9,463.4A5,5 0 1 1 532.9,463.4Z" style="fill:#1FD3AC" />
<path d="M533.73,446.71A5,5 0 1 1 523.73,446.71A5,5 0 1 1 533.73,446.71Z" style="fill:#1FD3AC" />
<path d="M534.56,380.14A5,5 0 1 1 524.56,380.14A5,5 0 1 1 534.56,380.14Z" style="fill:#1FD3AC" />
<path d="M535.4,483.84A5,5 0 1 1 525.4,483.84A5,5 0 1 1 535.4,483.84Z" style="fill:#1FD3AC" />
<path d="M536.23,271.51A5,5 0 1 1 526.23,271.51A5,5 0 1 1 536.23,271.51Z" style="fill:#1FD3AC" />
<path d="M537.06,444.24A5,5 0 1 1 527.06,444.24A5,5 0 1 1 537.06,444.24Z" style="fill:#1FD3AC" />
<path d="M537.89,491.87A5,5 0 1 1 527.89,491.87A5,5 0 1 1 537.89,491.87Z" style="fill:#1FD3AC" />
<path d="M538.72,373.63A5,5 0 1 1 528.72,373.63A5,5 0 1 1 538.72,373.63Z" style="fill:#1FD3AC" />
<path d="M539.56,586.57A5,5 0 1 1 529.56,586.57A5,5 0 1 1 539.56,586.57Z" style="fill:#1FD3AC" />
<path d="M540.39,539.22A5,5 0 1 1 530.39,539.22A5,5 0 1 1 540.39,539.22Z" style="fill:#1FD3AC" />
<path d="M541.22,669.41A5,5 0 1 1 531.22,669.41A5,5 0 1 1 541.22,669.41Z" style="fill:#1FD3AC" />
<path d="M542.05,426.76A5,5 0 1 1 532.05,426.76A5,5 0 1 1 542.05,426.76Z" style="fill:#1FD3AC" />
<path d="M542.88,371.69A5,5 0 1 1 532.88,371.69A5,5 0 1 1 542.88,371.69Z" style="fill:#1FD3AC" />
<path d="M543.72,490.59A5,5 0 1 1 533.72,490.59A5,5 0 1 1 543.72,490.59Z" style="fill:#1FD3AC" />
<path d="M544.55,554.39A5,5 0 1 1 534.55,554.39A5,5 0 1 1 544.55,554.39Z" style="fill:#1FD3AC" />
<path d="M545.38,364.13A5,5 0 1 1 535.38,364.13A5,5 0 1 1 545.38,364.13Z" style="fill:#1FD3AC" />
<path d="M546.21,605.76A5,5 0 1 1 536.21,605.76A5,5 0 1 1 546.21,605.76Z" style="fill:#1FD3AC" />
<path d="M547.04,488.13A5,5 0 1 1 537.04,488.13A5,5 0 1 1 547.04,488.13Z" style="fill:#1FD3AC" />
<path d="M547.88,576.28A5,5 0 1 1 537.88,576.28A5,5 0 1 1 547.88,576.28Z" style="fill:#1FD3AC" />
<path d="M548.71,268.45A5,5 0 1 1 538.71,268.45A5,5 0 1 1 548.71,268.45Z" style="fill:#1FD3AC" />
<path d="M549.54,387.37A5,5 0 1 1 539.54,387.37A5,5 0 1 1 549.54,387.37Z" style="fill:#1FD3AC" />
<path d="M550.37,489.22A5,5 0 1 1 540.37,489.22A5,5 0 1 1 550.37,489.22Z" style="fill:#1FD3AC" />
<path d="M551.2,401.36A5,5 0 1 1 541.2,401.36A5,5 0 1 1 551.2,401.36Z" style="fill:#1FD3AC" />
<path d="M552.04,367.48A5,5 0 1 1 542.04,367.48A5,5 0 1 1 552.04,367.48Z" style="fill:#1FD3AC" />
<path d="M552.87,521.3A5,5 0 1 1 542.87,521.3A5,5 0 1 1 552.87,521.3Z" style="fill:#1FD3AC" />
<path d="M553.7,512.23A5,5 0 1 1 543.7,512.23A5,5 0 1 1 553.7,512.23Z" style="fill:#1FD3AC" />
<path d="M554.53,646.77A5,5 0 1 1 544.53,646.77A5,5 0 1 1 554.53,646.77Z" style="fill:#1FD3AC" />
<path d="M555.37,367.21A5,5 0 1 1 545.37,367.21A5,5 0 1 1 555.37,367.21Z" style="fill:#1FD3AC" />
<path d="M556.2,686.78A5,5 0 1 1 546.2,686.78A5,5 0 1 1 556.2,686.78Z" style="fill:#1FD3AC" />
<path d="M557.03,433.33A5,5 0 1 1 547.03,433.33A5,5 0 1 1 557.03,433.33Z" style="fill:#1FD3AC" />
<path d="M557.86,614.77A5,5 0 1 1 547.86,614.77A5,5 0 1 1 557.86,614.77Z" style="fill:#1FD3AC" />
<path d="M558.69,538.82A5,5 0 1 1 548.69,538.82A5,5 0 1 1 558.69,538.82Z" style="fill:#1FD3AC" />
<path d="M559.53,613.73A5,5 0 1 1 549.53,613.73A5,5 0 1 1 559.53,613.73Z" style="fill:#1FD3AC" />
<path d="M560.36,536.76A5,5 0 1 1 550.36,536.76A5,5 0 1 1 560.36,536.76Z" style="fill:#1FD3AC" />
<path d="M561.19,308.02A5,5 0 1 1 551.19,308.02A5,5 0 1 1 561.19,308.02Z" style="fill:#1FD3AC" />
<path d="M562.02,433.86A5,5 0 1 1 552.02,433.86A5,5 0 1 1 562.02,433.86Z" style="fill:#1FD3AC" />
<path d="M562.85,532.8A5,5 0 1 1 552.85,532.8A5,5 0 1 1 562.85,532.8Z" style="fill:#1FD3AC" />
<path d="M563.69,425.05A5,5 0 1 1 553.69,425.05A5,5 0 1 1 563.69,425.05Z" style="fill:#1FD3AC" />
<path d="M564.52,570.71A5,5 0 1 1 554.52,570.71A5,5 0 1 1 564.52,570.71Z" style="fill:#1FD3AC" />
<path d="M565.35,362.09A5,5 0 1 1 555.35,362.09A5,5 0 1 1 565.35,362.09Z" style="fill:#1FD3AC" />
<path d="M566.18,467.45A5,5 0 1 1 556.18,467.45A5,5 0 1 1 566.18,467.45Z" style="fill:#1FD3AC" />
<path d="M567.01,396.21A5,5 0 1 1 557.01,396.21A5,5 0 1 1 567.01,396.21Z" style="fill:#1FD3AC" />
<path d="M567.85,623.84A5,5 0 1 1 557.85,623.84A5,5 0 1 1 567.85,623.84Z" style="fill:#1FD3AC" />
<path d="M568.68,305.67A5,5 0 1 1 558.68,305.67A5,5 0 1 1 568.68,305.67Z" style="fill:#1FD3AC" />
<path d="M569.51,360.17A5,5 0 1 1 559.51,360.17A5,5 0 1 1 569.51,360.17Z" style="fill:#1FD3AC" />
<path d="M570.34,343.7A5,5 0 1 1 560.34,343.7A5,5 0 1 1 570.34,343.7Z" style="fill:#1FD3AC" />
<path d="M571.17,392.72A5,5 0 1 1 561.17,392.72A5,5 0 1 1 571.17,392.72Z" style="fill:#1FD3AC" />
<path d="M572.01,353.44A5,5 0 1 1 562.01,353.44A5,5 0 1 1 572.01,353.44Z" style="fill:#1FD3AC" />
<path d="M572.84,417.63A5,5 0 1 1 562.84,417.63A5,5 0 1 1 572.84,417.63Z" style="fill:#1FD3AC" />
<path d="M573.67,406.71A5,5 0 1 1 563.67,406.71A5,5 0 1 1 573.67,406.71Z" style="fill:#1FD3AC" />
<path d="M574.5,510.92A5,5 0 1 1 564.5,510.92A5,5 0 1 1 574.5,510.92Z" style="fill:#1FD3AC" />
<path d="M575.33,528.69A5,5 0 1 1 565.33,528.69A5,5 0 1 1 575.33,528.69Z" style="fill:#1FD3AC" />
<path d="M576.17,485.44A5,5 0 1 1 566.17,485.44A5,5 0 1 1 576.17,485.44Z" style="fill:#1FD3AC" />
<path d="M577,671.08A5,5 0 1 1 567,671.08A5,5 0 1 1 577,671.08Z" style="fill:#1FD3AC" />
<path d="M577.83,368.27A5,5 0 1 1 567.83,368.27A5,5 0 1 1 577.83,368.27Z" style="fill:#1FD3AC" />
<path d="M578.66,645.3A5,5 0 1 1 568.66,645.3A5,5 0 1 1 578.66,645.3Z" style="fill:#1FD3AC" />
<path d="M579.5,449.18A5,5 0 1 1 569.5,449.18A5,5 0 1 1 579.5,449.18Z" style="fill:#1FD3AC" />
<path d="M580.33,492.89A5,5 0 1 1 570.33,492.89A5,5 0 1 1 580.33,492.89Z" style="fill:#1FD3AC" />
<path d="M581.16,437.84A5,5 0 1 1 571.16,437.84A5,5 0 1 1 581.16,437.84Z" style="fill:#1FD3AC" />
<path d="M581.99,382.12A5,5 0 1 1 571.99,382.12A5,5 0 1 1 581.99,382.12Z" style="fill:#1FD3AC" />
<path d="M582.82,363.73A5,5 0 1 1 572.82,363.73A5,5 0 1 1 582.82,363.73Z" style="fill:#1FD3AC" />
<path d="M583.66,449.08A5,5 0 1 1 573.66,449.08A5,5 0 1 1 583.66,449.08Z" style="fill:#1FD3AC" />
<path d="M584.49,589.56A5,5 0 1 1 574.49,589.56A5,5 0 1 1 584.49,589.56Z" style="fill:#1FD3AC" />
<path d="M585.32,650.48A5,5 0 1 1 575.32,650.48A5,5 0 1 1 585.32,650.48Z" style="fill:#1FD3AC" />
<path d="M586.15,658.97A5,5 0 1 1 576.15,658.97A5,5 0 1 1 586.15,658.97Z" style="fill:#1FD3AC" />
<path d="M586.98,645.08A5,5 0 1 1 576.98,645.08A5,5 0 1 1 586.98,645.08Z" style="fill:#1FD3AC" />
<path d="M587.82,519.66A5,5 0 1 1 577.82,519.66A5,5 0 1 1 587.82,519.66Z" style="fill:#1FD3AC" />
<path d="M588.65,579.77A5,5 0 1 1 578.65,579.77A5,5 0 1 1 588.65,579.77Z" style="fill:#1FD3AC" />
<path d="M589.48,426.98A5,5 0 1 1 579.48,426.98A5,5 0 1 1 589.48,426.98Z" style="fill:#1FD3AC" />
<path d="M590.31,489.79A5,5 0 1 1 580.31,489.79A5,5 0 1 1 590.31,489.79Z" style="fill:#1FD3AC" />
<path d="M591.14,651.62A5,5 0 1 1 581.14,651.62A5,5 0 1 1 591.14,651.62Z" style="fill:#1FD3AC" />
<path d="M591.98,484.43A5,5 0 1 1 581.98,484.43A5,5 0 1 1 591.98,484.43Z" style="fill:#1FD3AC" />
<path d="M592.81,491.65A5,5 0 1 1 582.81,491.65A5,5 0 1 1 592.81,491.65Z" style="fill:#1FD3AC" />
<path d="M593.64,517.23A5,5 0 1 1 583.64,517.23A5,5 0 1 1 593.64,517.23Z" style="fill:#1FD3AC" />
<path d="M594.47,436.96A5,5 0 1 1 584.47,436.96A5,5 0 1 1 594.47,436.96Z" style="fill:#1FD3AC" />
<path d="M595.3,554.39A5,5 0 1 1 585.3,554.39A5,5 0 1 1 595.3,554.39Z" style="fill:#1FD3AC" />
<path d="M596.14,471.92A5,5 0 1 1 586.14,471.92A5,5 0 1 1 596.14,471.92Z" style="fill:#1FD3AC" />
<path d="M596.97,435.4A5,5 0 1 1 586.97,435.4A5,5 0 1 1 596.97,435.4Z" style="fill:#1FD3AC" />
<path d="M597.8,318.68A5,5 0 1 1 587.8,318.68A5,5 0 1 1 597.8,318.68Z" style="fill:#1FD3AC" />
<path d="M598.63,500.41A5,5 0 1 1 588.63,500.41A5,5 0 1 1 598.63,500.41Z" style="fill:#1FD3AC" />
<path d="M599.47,395.28A5,5 0 1 1 589.47,395.28A5,5 0 1 1 599.47,395.28Z" style="fill:#1FD3AC" />
<path d="M600.3,474.76A5,5 0 1 1 590.3,474.76A5,5 0 1 1 600.3,474.76Z" style="fill:#1FD3AC" />
<path d="M601.13,363.53A5,5 0 1 1 591.13,363.53A5,5 0 1 1 601.13,363.53Z" style="fill:#1FD3AC" />
<path d="M601.96,393.46A5,5 0 1 1 591.96,393.46A5,5 0 1 1 601.96,393.46Z" style="fill:#1FD3AC" />
<path d="M602.79,434.88A5,5 0 1 1 592.79,434.88A5,5 0 1 1 602.79,434.88Z" style="fill:#1FD3AC" />
<path d="M603.63,439.05A5,5 0 1 1 593.63,439.05A5,5 0 1 1 603.63,439.05Z" style="fill:#1FD3AC" />
<path d="M604.46,319.41A5,5 0 1 1 594.46,319.41A5,5 0 1 1 604.46,319.41Z" style="fill:#1FD3AC" />
<path d="M605.29,435.57A5,5 0 1 1 595.29,435.57A5,5 0 1 1 605.29,435.57Z" style="fill:#1FD3AC" />
<path d="M606.12,407.17A5,5 0 1 1 596.12,407.17A5,5 0 1 1 606.12,407.17Z" style="fill:#1FD3AC" />
<path d="M606.95,360.2A5,5 0 1 1 596.95,360.2A5,5 0 1 1 606.95,360.2Z" style="fill:#1FD3AC" />
<path d="M607.79,486.05A5,5 0 1 1 597.79,486.05A5,5 0 1 1 607.79,486.05Z" style="fill:#1FD3AC" />
<path d="M608.62,548.36A5,5 0 1 1 598.62,548.36A5,5 0 1 1 608.62,548.36Z" style="fill:#1FD3AC" />
<path d="M609.45,357.86A5,5 0 1 1 599.45,357.86A5,5 0 1 1 609.45,357.86Z" style="fill:#1FD3AC" />
<path d="M610.28,298.7A5,5 0 1 1 600.28,298.7A5,5 0 1 1 610.28,298.7Z" style="fill:#1FD3AC" />
<path d="M611.11,602.87A5,5 0 1 1 601.11,602.87A5,5 0 1 1 611.11,602.87Z" style="fill:#1FD3AC" />
<path d="M611.95,684.66A5,5 0 1 1 601.95,684.66A5,5 0 1 1 611.95,684.66Z" style="fill:#1FD3AC" />
<path d="M612.78,566.29A5,5 0 1 1 602.78,566.29A5,5 0 1 1 612.78,566.29Z" style="fill:#1FD3AC" />
<path d="M613.61,394.88A5,5 0 1 1 603.61,394.88A5,5 0 1 1 613.61,394.88Z" style="fill:#1FD3AC" />
<path d="M614.44,523.35A5,5 0 1 1 604.44,523.35A5,5 0 1 1 614.44,523.35Z" style="fill:#1FD3AC" />
<path d="M615.27,309.9A5,5 0 1 1 605.27,309.9A5,5 0 1 1 615.27,309.9Z" style="fill:#1FD3AC" />
<path d="M616.11,492.9A5,5 0 1 1 606.11,492.9A5,5 0 1 1 616.11,492.9Z" style="fill:#1FD3AC" />
<path d="M616.94,731.55A5,5 0 1 1 606.94,731.55A5,5 0 1 1 616.94,731.55Z" style="fill:#1FD3AC" />
<path d="M617.77,597.16A5,5 0 1 1 607.77,597.16A5,5 0 1 1 617.77,597.16Z" style="fill:#1FD3AC" />
<path d="M618.6,395.57A5,5 0 1 1 608.6,395.57A5,5 0 1 1 618.6,395.57Z" style="fill:#1FD3AC" />
<path d="M619.44,489.67A5,5 0 1 1 609.44,489.67A5,5 0 1 1 619.44,489.67Z" style="fill:#1FD3AC" />
<path d="M620.27,449.83A5,5 0 1 1 610.27,449.83A5,5 0 1 1 620.27,449.83Z" style="fill:#1FD3AC" />
<path d="M621.1,514.59A5,5 0 1 1 611.1,514.59A5,5 0 1 1 621.1,514.59Z" style="fill:#1FD3AC" />
<path d="M621.93,564.01A5,5 0 1 1 611.93,564.01A5,5 0 1 1 621.93,564.01Z" style="fill:#1FD3AC" />
<path d="M622.76,431.93A5,5 0 1 1 612.76,431.93A5,5 0 1 1 622.76,431.93Z" style="fill:#1FD3AC" />
<path d="M623.6,741.34A5,5 0 1 1 613.6,741.34A5,5 0 1 1 623.6,741.34Z" style="fill:#1FD3AC" />
<path d="M624.43,391.83A5,5 0 1 1 614.43,391.83A5,5 0 1 1 624.43,391.83Z" style="fill:#1FD3AC" />
<path d="M625.26,523A5,5 0 1 1 615.26,523A5,5 0 1 1 625.26,523Z" style="fill:#1FD3AC" />
<path d="M626.09,613.89A5,5 0 1 1 616.09,613.89A5,5 0 1 1 626.09,613.89Z" style="fill:#1FD3AC" />
<path d="M626.92,528.52A5,5 0 1 1 616.92,528.52A5,5 0 1 1 626.92,528.52Z" style="fill:#1FD3AC" />
<path d="M627.76,477.76A5,5 0 1 1 617.76,477.76A5,5 0 1 1 627.76,477.76Z" style="fill:#1FD3AC" />
<path d="M628.59,687.94A5,5 0 1 1 618.59,687.94A5,5 0 1 1 628.59,687.94Z" style="fill:#1FD3AC" />
<path d="M629.42,583.9A5,5 0 1 1 619.42,583.9A5,5 0 1 1 629.42,583.9Z" style="fill:#1FD3AC" />
<path d="M630.25,547.42A5,5 0 1 1 620.25,547.42A5,5 0 1 1 630.25,547.42Z" style="fill:#1FD3AC" />
<path d="M631.08,554.27A5,5 0 1 1 621.08,554.27A5,5 0 1 1 631.08,554.27Z" style="fill:#1FD3AC" />
<path d="M631.92,606.61A5,5 0 1 1 621.92,606.61A5,5 0 1 1 631.92,606.61Z" style="fill:#1FD3AC" />
<path d="M632.75,621.45A5,5 0 1 1 622.75,621.45A5,5 0 1 1 632.75,621.45Z" style="fill:#1FD3AC" />
<path d="M633.58,327.36A5,5 0 1 1 623.58,327.36A5,5 0 1 1 633.58,327.36Z" style="fill:#1FD3AC" />
<path d="M634.41,678.88A5,5 0 1 1 624.41,678.88A5,5 0 1 1 634.41,678.88Z" style="fill:#1FD3AC" />
<path d="M635.24,252.97A5,5 0 1 1 625.24,252.97A5,5 0 1 1 635.24,252.97Z" style="fill:#1FD3AC" />
<path d="M636.08,470.77A5,5 0 1 1 626.08,470.77A5,5 0 1 1 636.08,470.77Z" style="fill:#1FD3AC" />
<path d="M636.91,526.88A5,5 0 1 1 626.91,526.88A5,5 0 1 1 636.91,526.88Z" style="fill:#1FD3AC" />
<path d="M637.74,452.64A5,5 0 1 1 627.74,452.64A5,5 0 1 1 637.74,452.64Z" style="fill:#1FD3AC" />
<path d="M638.57,398.4A5,5 0 1 1 628.57,398.4A5,5 0 1 1 638.57,398.4Z" style="fill:#1FD3AC" />
<path d="M639.4,586.13A5,5 0 1 1 629.4,586.13A5,5 0 1 1 639.4,586.13Z" style="fill:#1FD3AC" />
<path d="M640.24,599.44A5,5 0 1 1 630.24,599.44A5,5 0 1 1 640.24,599.44Z" style="fill:#1FD3AC" />
<path d="M641.07,453.77A5,5 0 1 1 631.07,453.77A5,5 0 1 1 641.07,453.77Z" style="fill:#1FD3AC" />
<path d="M641.9,501.6A5,5 0 1 1 631.9,501.6A5,5 0 1 1 641.9,501.6Z" style="fill:#1FD3AC" />
<path d="M642.73,604.43A5,5 0 1 1 632.73,604.43A5,5 0 1 1 642.73,604.43Z" style="fill:#1FD3AC" />
<path d="M643.57,506.74A5,5 0 1 1 633.57,506.74A5,5 0 1 1 643.57,506.74Z" style="fill:#1FD3AC" />
<path d="M644.4,524.96A5,5 0 1 1 634.4,524.96A5,5 0 1 1 644.4,524.96Z" style="fill:#1FD3AC" />
<path d="M645.23,442.6A5,5 0 1 1 635.23,442.6A5,5 0 1 1 645.23,442.6Z" style="fill:#1FD3AC" />
<path d="M646.06,685.27A5,5 0 1 1 636.06,685.27A5,5 0 1 1 646.06,685.27Z" style="fill:#1FD3AC" />
<path d="M646.89,496.08A5,5 0 1 1 636.89,496.08A5,5 0 1 1 646.89,496.08Z" style="fill:#1FD3AC" />
<path d="M647.73,471.31A5,5 0 1 1 637.73,471.31A5,5 0 1 1 647.73,471.31Z" style="fill:#1FD3AC" />
<path d="M648.56,488.16A5,5 0 1 1 638.56,488.16A5,5 0 1 1 648.56,488.16Z" style="fill:#1FD3AC" />
<path d="M649.39,493.54A5,5 0 1 1 639.39,493.54A5,5 0 1 1 649.39,493.54Z" style="fill:#1FD3AC" />
<path d="M650.22,734.1A5,5 0 1 1 640.22,734.1A5,5 0 1 1 650.22,734.1Z" style="fill:#1FD3AC" />
<path d="M651.05,714.18A5,5 0 1 1 641.05,714.18A5,5 0 1 1 651.05,714.18Z" style="fill:#1FD3AC" />
<path d="M651.89,850.31A5,5 0 1 1 641.89,850.31A5,5 0 1 1 651.89,850.31Z" style="fill:#1FD3AC" />
<path d="M652.72,503.28A5,5 0 1 1 642.72,503.28A5,5 0 1 1 652.72,503.28Z" style="fill:#1FD3AC" />
<path d="M653.55,476.29A5,5 0 1 1 643.55,476.29A5,5 0 1 1 653.55,476.29Z" style="fill:#1FD3AC" />
<path d="M654.38,563.13A5,5 0 1 1 644.38,563.13A5,5 0 1 1 654.38,563.13Z" style="fill:#1FD3AC" />
<path d="M655.21,480.27A5,5 0 1 1 645.21,480.27A5,5 0 1 1 655.21,480.27Z" style="fill:#1FD3AC" />
<path d="M656.05,534.11A5,5 0 1 1 646.05,534.11A5,5 0 1 1 656.05,534.11Z" style="fill:#1FD3AC" />
<path d="M656.88,700.32A5,5 0 1 1 646.88,700.32A5,5 0 1 1 656.88,700.32Z" style="fill:#1FD3AC" />
<path d="M657.71,609.3A5,5 0 1 1 647.71,609.3A5,5 0 1 1 657.71,609.3Z" style="fill:#1FD3AC" />
<path d="M658.54,467.63A5,5 0 1 1 648.54,467.63A5,5 0 1 1 658.54,467.63Z" style="fill:#1FD3AC" />
<path d="M659.37,487.6A5,5 0 1 1 649.37,487.6A5,5 0 1 1 659.37,487.6Z" style="fill:#1FD3AC" />
<path d="M660.21,429.38A5,5 0 1 1 650.21,429.38A5,5 0 1 1 660.21,429.38Z" style="fill:#1FD3AC" />
<path d="M661.04,541.38A5,5 0 1 1 651.04,541.38A5,5 0 1 1 661.04,541.38Z" style="fill:#1FD3AC" />
<path d="M661.87,676.2A5,5 0 1 1 651.87,676.2A5,5 0 1 1 661.87,676.2Z" style="fill:#1FD3AC" />
<path d="M662.7,690.28A5,5 0 1 1 652.7,690.28A5,5 0 1 1 662.7,690.28Z" style="fill:#1FD3AC" />
<path d="M663.54,415.28A5,5 0 1 1 653.54,415.28A5,5 0 1 1 663.54,415.28Z" style="fill:#1FD3AC" />
<path d="M664.37,562.47A5,5 0 1 1 654.37,562.47A5,5 0 1 1 664.37,562.47Z" style="fill:#1FD3AC" />
<path d="M665.2,620.72A5,5 0 1 1 655.2,620.72A5,5 0 1 1 665.2,620.72Z" style="fill:#1FD3AC" />
<path d="M666.03,700.53A5,5 0 1 1 656.03,700.53A5,5 0 1 1 666.03,700.53Z" style="fill:#1FD3AC" />
<path d="M666.86,524.65A5,5 0 1 1 656.86,524.65A5,5 0 1 1 666.86,524.65Z" style="fill:#1FD3AC" />
<path d="M667.7,553.63A5,5 0 1 1 657.7,553.63A5,5 0 1 1 667.7,553.63Z" style="fill:#1FD3AC" />
<path d="M668.53,756.58A5,5 0 1 1 658.53,756.58A5,5 0 1 1 668.53,756.58Z" style="fill:#1FD3AC" />
<path d="M669.36,646.24A5,5 0 1 1 659.36,646.24A5,5 0 1 1 669.36,646.24Z" style="fill:#1FD3AC" />
<path d="M670.19,495.9A5,5 0 1 1 660.19,495.9A5,5 0 1 1 670.19,495.9Z" style="fill:#1FD3AC" />
<path d="M671.02,730.72A5,5 0 1 1 661.02,730.72A5,5 0 1 1 671.02,730.72Z" style="fill:#1FD3AC" />
<path d="M671.86,640.96A5,5 0 1 1 661.86,640.96A5,5 0 1 1 671.86,640.96Z" style="fill:#1FD3AC" />
<path d="M672.69,497.31A5,5 0 1 1 662.69,497.31A5,5 0 1 1 672.69,497.31Z" style="fill:#1FD3AC" />
<path d="M673.52,650.41A5,5 0 1 1 663.52,650.41A5,5 0 1 1 673.52,650.41Z" style="fill:#1FD3AC" />
<path d="M674.35,555.45A5,5 0 1 1 664.35,555.45A5,5 0 1 1 674.35,555.45Z" style="fill:#1FD3AC" />
<path d="M675.18,616.37A5,5 0 1 1 665.18,616.37A5,5 0 1 1 675.18,616.37Z" style="fill:#1FD3AC" />
<path d="M676.02,500.08A5,5 0 1 1 666.02,500.08A5,5 0 1 1 676.02,500.08Z" style="fill:#1FD3AC" />
<path d="M676.85,481.91A5,5 0 1 1 666.85,481.91A5,5 0 1 1 676.85,481.91Z" style="fill:#1FD3AC" />
<path d="M677.68,580.88A5,5 0 1 1 667.68,580.88A5,5 0 1 1 677.68,580.88Z" style="fill:#1FD3AC" />
<path d="M678.51,605.64A5,5 0 1 1 668.51,605.64A5,5 0 1 1 678.51,605.64Z" style="fill:#1FD3AC" />
<path d="M679.34,277.72A5,5 0 1 1 669.34,277.72A5,5 0 1 1 679.34,277.72Z" style="fill:#1FD3AC" />
<path d="M680.18,629.21A5,5 0 1 1 670.18,629.21A5,5 0 1 1 680.18,629.21Z" style="fill:#1FD3AC" />
<path d="M681.01,654.12A5,5 0 1 1 671.01,654.12A5,5 0 1 1 681.01,654.12Z" style="fill:#1FD3AC" />
<path d="M681.84,586.9A5,5 0 1 1 671.84,586.9A5,5 0 1 1 681.84,586.9Z" style="fill:#1FD3AC" />
<path d="M682.67,603.88A5,5 0 1 1 672.67,603.88A5,5 0 1 1 682.67,603.88Z" style="fill:#1FD3AC" />
<path d="M683.51,653.14A5,5 0 1 1 673.51,653.14A5,5 0 1 1 683.51,653.14Z" style="fill:#1FD3AC" />
<path d="M684.34,439.22A5,5 0 1 1 674.34,439.22A5,5 0 1 1 684.34,439.22Z" style="fill:#1FD3AC" />
<path d="M685.17,567.04A5,5 0 1 1 675.17,567.04A5,5 0 1 1 685.17,567.04Z" style="fill:#1FD3AC" />
<path d="M686,465.4A5,5 0 1 1 676,465.4A5,5 0 1 1 686,465.4Z" style="fill:#1FD3AC" />
<path d="M686.83,618.56A5,5 0 1 1 676.83,618.56A5,5 0 1 1 686.83,618.56Z" style="fill:#1FD3AC" />
<path d="M687.67,602A5,5 0 1 1 677.67,602A5,5 0 1 1 687.67,602Z" style="fill:#1FD3AC" />
<path d="M688.5,657.48A5,5 0 1 1 678.5,657.48A5,5 0 1 1 688.5,657.48Z" style="fill:#1FD3AC" />
<path d="M689.33,629.46A5,5 0 1 1 679.33,629.46A5,5 0 1 1 689.33,629.46Z" style="fill:#1FD3AC" />
<path d="M690.16,524.55A5,5 0 1 1 680.16,524.55A5,5 0 1 1 690.16,524.55Z" style="fill:#1FD3AC" />
<path d="M690.99,737.32A5,5 0 1 1 680.99,737.32A5,5 0 1 1 690.99,737.32Z" style="fill:#1FD3AC" />
<path d="M691.83,675.39A5,5 0 1 1 681.83,675.39A5,5 0 1 1 691.83,675.39Z" style="fill:#1FD3AC" />
<path d="M692.66,601.86A5,5 0 1 1 682.66,601.86A5,5 0 1 1 692.66,601.86Z" style="fill:#1FD3AC" />
<path d="M693.49,578.37A5,5 0 1 1 683.49,578.37A5,5 0 1 1 693.49,578.37Z" style="fill:#1FD3AC" />
<path d="M694.32,581.3A5,5 0 1 1 684.32,581.3A5,5 0 1 1 694.32,581.3Z" style="fill:#1FD3AC" />
<path d="M695.15,539.47A5,5 0 1 1 685.15,539.47A5,5 0 1 1 695.15,539.47Z" style="fill:#1FD3AC" />
<path d="M695.99,550.31A5,5 0 1 1 685.99,550.31A5,5 0 1 1 695.99,550.31Z" style="fill:#1FD3AC" />
<path d="M696.82,556.65A5,5 0 1 1 686.82,556.65A5,5 0 1 1 696.82,556.65Z" style="fill:#1FD3AC" />
<path d="M697.65,620.5A5,5 0 1 1 687.65,620.5A5,5 0 1 1 697.65,620.5Z" style="fill:#1FD3AC" />
<path d="M698.48,790.65A5,5 0 1 1 688.48,790.65A5,5 0 1 1 698.48,790.65Z" style="fill:#1FD3AC" />
<path d="M699.31,461.88A5,5 0 1 1 689.31,461.88A5,5 0 1 1 699.31,461.88Z" style="fill:#1FD3AC" />
<path d="M700.15,599.78A5,5 0 1 1 690.15,599.78A5,5 0 1 1 700.15,599.78Z" style="fill:#1FD3AC" />
<path d="M700.98,558.82A5,5 0 1 1 690.98,558.82A5,5 0 1 1 700.98,558.82Z" style="fill:#1FD3AC" />
<path d="M701.81,597.89A5,5 0 1 1 691.81,597.89A5,5 0 1 1 701.81,597.89Z" style="fill:#1FD3AC" />
<path d="M702.64,579.58A5,5 0 1 1 692.64,579.58A5,5 0 1 1 702.64,579.58Z" style="fill:#1FD3AC" />
<path d="M703.47,481.37A5,5 0 1 1 693.47,481.37A5,5 0 1 1 703.47,481.37Z" style="fill:#1FD3AC" />
<path d="M704.31,483.11A5,5 0 1 1 694.31,483.11A5,5 0 1 1 704.31,483.11Z" style="fill:#1FD3AC" />
<path d="M705.14,905.62A5,5 0 1 1 695.14,905.62A5,5 0 1 1 705.14,905.62Z" style="fill:#1FD3AC" />
<path d="M705.97,804.02A5,5 0 1 1 695.97,804.02A5,5 0 1 1 705.97,804.02Z" style="fill:#1FD3AC" />
<path d="M706.8,556.49A5,5 0 1 1 696.8,556.49A5,5 0 1 1 706.8,556.49Z" style="fill:#1FD3AC" />
<path d="M707.64,431.09A5,5 0 1 1 697.64,431.09A5,5 0 1 1 707.64,431.09Z" style="fill:#1FD3AC" />
<path d="M708.47,808.6A5,5 0 1 1 698.47,808.6A5,5 0 1 1 708.47,808.6Z" style="fill:#1FD3AC" />
<path d="M709.3,551.4A5,5 0 1 1 699.3,551.4A5,5 0 1 1 709.3,551.4Z" style="fill:#1FD3AC" />
<path d="M710.13,486.23A5,5 0 1 1 700.13,486.23A5,5 0 1 1 710.13,486.23Z" style="fill:#1FD3AC" />
<path d="M710.96,730.03A5,5 0 1 1 700.96,730.03A5,5 0 1 1 710.96,730.03Z" style="fill:#1FD3AC" />
<path d="M711.8,652.12A5,5 0 1 1 701.8,652.12A5,5 0 1 1 711.8,652.12Z" style="fill:#1FD3AC" />
<path d="M712.63,542.85A5,5 0 1 1 702.63,542.85A5,5 0 1 1 712.63,542.85Z" style="fill:#1FD3AC" />
<path d="M713.46,655.16A5,5 0 1 1 703.46,655.16A5,5 0 1 1 713.46,655.16Z" style="fill:#1FD3AC" />
<path d="M714.29,696.58A5,5 0 1 1 704.29,696.58A5,5 0 1 1 714.29,696.58Z" style="fill:#1FD3AC" />
<path d="M715.12,622.09A5,5 0 1 1 705.12,622.09A5,5 0 1 1 715.12,622.09Z" style="fill:#1FD3AC" />
<path d="M715.96,539.21A5,5 0 1 1 705.96,539.21A5,5 0 1 1 715.96,539.21Z" style="fill:#1FD3AC" />
<path d="M716.79,635.76A5,5 0 1 1 706.79,635.76A5,5 0 1 1 716.79,635.76Z" style="fill:#1FD3AC" />
<path d="M717.62,554.18A5,5 0 1 1 707.62,554.18A5,5 0 1 1 717.62,554.18Z" style="fill:#1FD3AC" />
<path d="M718.45,882.77A5,5 0 1 1 708.45,882.77A5,5 0 1 1 718.45,882.77Z" style="fill:#1FD3AC" />
<path d="M719.28,537.36A5,5 0 1 1 709.28,537.36A5,5 0 1 1 719.28,537.36Z" style="fill:#1FD3AC" />
<path d="M720.12,698.28A5,5 0 1 1 710.12,698.28A5,5 0 1 1 720.12,698.28Z" style="fill:#1FD3AC" />
<path d="M720.95,498.51A5,5 0 1 1 710.95,498.51A5,5 0 1 1 720.95,498.51Z" style="fill:#1FD3AC" />
<path d="M721.78,694.52A5,5 0 1 1 711.78,694.52A5,5 0 1 1 721.78,694.52Z" style="fill:#1FD3AC" />
<path d="M722.61,632.19A5,5 0 1 1 712.61,632.19A5,5 0 1 1 722.61,632.19Z" style="fill:#1FD3AC" />
<path d="M723.44,675.73A5,5 0 1 1 713.44,675.73A5,5 0 1 1 723.44,675.73Z" style="fill:#1FD3AC" />
<path d="M724.28,419.63A5,5 0 1 1 714.28,419.63A5,5 0 1 1 724.28,419.63Z" style="fill:#1FD3AC" />
<path d="M725.11,623.74A5,5 0 1 1 715.11,623.74A5,5 0 1 1 725.11,623.74Z" style="fill:#1FD3AC" />
<path d="M725.94,610.67A5,5 0 1 1 715.94,610.67A5,5 0 1 1 725.94,610.67Z" style="fill:#1FD3AC" />
<path d="M726.77,608.57A5,5 0 1 1 716.77,608.57A5,5 0 1 1 726.77,608.57Z" style="fill:#1FD3AC" />
<path d="M727.61,543.35A5,5 0 1 1 717.61,543.35A5,5 0 1 1 727.61,543.35Z" style="fill:#1FD3AC" />
<path d="M728.44,577.82A5,5 0 1 1 718.44,577.82A5,5 0 1 1 728.44,577.82Z" style="fill:#1FD3AC" />
<path d="M729.27,701.31A5,5 0 1 1 719.27,701.31A5,5 0 1 1 729.27,701.31Z" style="fill:#1FD3AC" />
<path d="M730.1,633.17A5,5 0 1 1 720.1,633.17A5,5 0 1 1 730.1,633.17Z" style="fill:#1FD3AC" />
<path d="M730.93,552.39A5,5 0 1 1 720.93,552.39A5,5 0 1 1 730.93,552.39Z" style="fill:#1FD3AC" />
<path d="M731.77,470.98A5,5 0 1 1 721.77,470.98A5,5 0 1 1 731.77,470.98Z" style="fill:#1FD3AC" />
<path d="M732.6,732.02A5,5 0 1 1 722.6,732.02A5,5 0 1 1 732.6,732.02Z" style="fill:#1FD3AC" />
<path d="M733.43,198.83A5,5 0 1 1 723.43,198.83A5,5 0 1 1 733.43,198.83Z" style="fill:#1FD3AC" />
<path d="M734.26,664.36A5,5 0 1 1 724.26,664.36A5,5 0 1 1 734.26,664.36Z" style="fill:#1FD3AC" />
<path d="M735.09,689.18A5,5 0 1 1 725.09,689.18A5,5 0 1 1 735.09,689.18Z" style="fill:#1FD3AC" />
<path d="M735.93,576.87A5,5 0 1 1 725.93,576.87A5,5 0 1 1 735.93,576.87Z" style="fill:#1FD3AC" />
<path d="M736.76,306.08A5,5 0 1 1 726.76,306.08A5,5 0 1 1 736.76,306.08Z" style="fill:#1FD3AC" />
<path d="M737.59,585.68A5,5 0 1 1 727.59,585.68A5,5 0 1 1 737.59,585.68Z" style="fill:#1FD3AC" />
<path d="M738.42,392.58A5,5 0 1 1 728.42,392.58A5,5 0 1 1 738.42,392.58Z" style="fill:#1FD3AC" />
<path d="M739.25,715.89A5,5 0 1 1 729.25,715.89A5,5 0 1 1 739.25,715.89Z" style="fill:#1FD3AC" />
<path d="M740.09,383.06A5,5 0 1 1 730.09,383.06A5,5 0 1 1 740.09,383.06Z" style="fill:#1FD3AC" />
<path d="M740.92,705.27A5,5 0 1 1 730.92,705.27A5,5 0 1 1 740.92,705.27Z" style="fill:#1FD3AC" />
<path d="M741.75,595.75A5,5 0 1 1 731.75,595.75A5,5 0 1 1 741.75,595.75Z" style="fill:#1FD3AC" />
<path d="M742.58,767.35A5,5 0 1 1 732.58,767.35A5,5 0 1 1 742.58,767.35Z" style="fill:#1FD3AC" />
<path d="M743.41,536.36A5,5 0 1 1 733.41,536.36A5,5 0 1 1 743.41,536.36Z" style="fill:#1FD3AC" />
<path d="M744.25,740.53A5,5 0 1 1 734.25,740.53A5,5 0 1 1 744.25,740.53Z" style="fill:#1FD3AC" />
<path d="M745.08,571.22A5,5 0 1 1 735.08,571.22A5,5 0 1 1 745.08,571.22Z" style="fill:#1FD3AC" />
<path d="M745.91,777.75A5,5 0 1 1 735.91,777.75A5,5 0 1 1 745.91,777.75Z" style="fill:#1FD3AC" />
<path d="M746.74,495.46A5,5 0 1 1 736.74,495.46A5,5 0 1 1 746.74,495.46Z" style="fill:#1FD3AC" />
<path d="M747.58,365.4A5,5 0 1 1 737.58,365.4A5,5 0 1 1 747.58,365.4Z" style="fill:#1FD3AC" />
<path d="M748.41,366.69A5,5 0 1 1 738.41,366.69A5,5 0 1 1 748.41,366.69Z" style="fill:#1FD3AC" />
<path d="M749.24,599.49A5,5 0 1 1 739.24,599.49A5,5 0 1 1 749.24,599.49Z" style="fill:#1FD3AC" />
<path d="M750.07,476.3A5,5 0 1 1 740.07,476.3A5,5 0 1 1 750.07,476.3Z" style="fill:#1FD3AC" />
<path d="M750.9,732.68A5,5 0 1 1 740.9,732.68A5,5 0 1 1 750.9,732.68Z" style="fill:#1FD3AC" />
<path d="M751.74,531.63A5,5 0 1 1 741.74,531.63A5,5 0 1 1 751.74,531.63Z" style="fill:#1FD3AC" />
<path d="M752.57,535.79A5,5 0 1 1 742.57,535.79A5,5 0 1 1 752.57,535.79Z" style="fill:#1FD3AC" />
<path d="M753.4,601.49A5,5 0 1 1 743.4,601.49A5,5 0 1 1 753.4,601.49Z" style="fill:#1FD3AC" />
<path d="M754.23,667.48A5,5 0 1 1 744.23,667.48A5,5 0 1 1 754.23,667.48Z" style="fill:#1FD3AC" />
<path d="M755.06,678.87A5,5 0 1 1 745.06,678.87A5,5 0 1 1 755.06,678.87Z" style="fill:#1FD3AC" />
<path d="M755.9,343.78A5,5 0 1 1 745.9,343.78A5,5 0 1 1 755.9,343.78Z" style="fill:#1FD3AC" />
<path d="M756.73,551.65A5,5 0 1 1 746.73,551.65A5,5 0 1 1 756.73,551.65Z" style="fill:#1FD3AC" />
<path d="M757.56,699.08A5,5 0 1 1 747.56,699.08A5,5 0 1 1 757.56,699.08Z" style="fill:#1FD3AC" />
<path d="M758.39,389.63A5,5 0 1 1 748.39,389.63A5,5 0 1 1 758.39,389.63Z" style="fill:#1FD3AC" />
<path d="M759.22,573.13A5,5 0 1 1 749.22,573.13A5,5 0 1 1 759.22,573.13Z" style="fill:#1FD3AC" />
<path d="M760.06,348.34A5,5 0 1 1 750.06,348.34A5,5 0 1 1 760.06,348.34Z" style="fill:#1FD3AC" />
<path d="M760.89,832.89A5,5 0 1 1 750.89,832.89A5,5 0 1 1 760.89,832.89Z" style="fill:#1FD3AC" />
<path d="M761.72,354.04A5,5 0 1 1 751.72,354.04A5,5 0 1 1 761.72,354.04Z" style="fill:#1FD3AC" />
<path d="M762.55,487.12A5,5 0 1 1 752.55,487.12A5,5 0 1 1 762.55,487.12Z" style="fill:#1FD3AC" />
<path d="M763.38,519.94A5,5 0 1 1 753.38,519.94A5,5 0 1 1 763.38,519.94Z" style="fill:#1FD3AC" />
<path d="M764.22,594.92A5,5 0 1 1 754.22,594.92A5,5 0 1 1 764.22,594.92Z" style="fill:#1FD3AC" />
<path d="M765.05,458.7A5,5 0 1 1 755.05,458.7A5,5 0 1 1 765.05,458.7Z" style="fill:#1FD3AC" />
<path d="M765.88,563.22A5,5 0 1 1 755.88,563.22A5,5 0 1 1 765.88,563.22Z" style="fill:#1FD3AC" />
<path d="M766.71,459.3A5,5 0 1 1 756.71,459.3A5,5 0 1 1 766.71,459.3Z" style="fill:#1FD3AC" />
<path d="M767.54,465.23A5,5 0 1 1 757.54,465.23A5,5 0 1 1 767.54,465.23Z" style="fill:#1FD3AC" />
<path d="M768.38,182.24A5,5 0 1 1 758.38,182.24A5,5 0 1 1 768.38,182.24Z" style="fill:#1FD3AC" />
<path d="M769.21,597.33A5,5 0 1 1 759.21,597.33A5,5 0 1 1 769.21,597.33Z" style="fill:#1FD3AC" />
<path d="M770.04,360.94A5,5 0 1 1 760.04,360.94A5,5 0 1 1 770.04,360.94Z" style="fill:#1FD3AC" />
<path d="M770.87,382.77A5,5 0 1 1 760.87,382.77A5,5 0 1 1 770.87,382.77Z" style="fill:#1FD3AC" />
<path d="M771.71,668.8A5,5 0 1 1 761.71,668.8A5,5 0 1 1 771.71,668.8Z" style="fill:#1FD3AC" />
<path d="M772.54,524.11A5,5 0 1 1 762.54,524.11A5,5 0 1 1 772.54,524.11Z" style="fill:#1FD3AC" />
<path d="M773.37,666.87A5,5 0 1 1 763.37,666.87A5,5 0 1 1 773.37,666.87Z" style="fill:#1FD3AC" />
<path d="M774.2,373.07A5,5 0 1 1 764.2,373.07A5,5 0 1 1 774.2,373.07Z" style="fill:#1FD3AC" />
<path d="M775.03,513.85A5,5 0 1 1 765.03,513.85A5,5 0 1 1 775.03,513.85Z" style="fill:#1FD3AC" />
<path d="M775.87,528.75A5,5 0 1 1 765.87,528.75A5,5 0 1 1 775.87,528.75Z" style="fill:#1FD3AC" />
<path d="M776.7,520.11A5,5 0 1 1 766.7,520.11A5,5 0 1 1 776.7,520.11Z" style="fill:#1FD3AC" />
<path d="M777.53,656.57A5,5 0 1 1 767.53,656.57A5,5 0 1 1 777.53,656.57Z" style="fill:#1FD3AC" />
<path d="M778.36,380.61A5,5 0 1 1 768.36,380.61A5,5 0 1 1 778.36,380.61Z" style="fill:#1FD3AC" />
<path d="M779.19,598.99A5,5 0 1 1 769.19,598.99A5,5 0 1 1 779.19,598.99Z" style="fill:#1FD3AC" />
<path d="M780.03,693.73A5,5 0 1 1 770.03,693.73A5,5 0 1 1 780.03,693.73Z" style="fill:#1FD3AC" />
<path d="M780.86,521.62A5,5 0 1 1 770.86,521.62A5,5 0 1 1 780.86,521.62Z" style="fill:#1FD3AC" />
<path d="M781.69,491.5A5,5 0 1 1 771.69,491.5A5,5 0 1 1 781.69,491.5Z" style="fill:#1FD3AC" />
<path d="M782.52,420.23A5,5 0 1 1 772.52,420.23A5,5 0 1 1 782.52,420.23Z" style="fill:#1FD3AC" />
<path d="M783.35,237.99A5,5 0 1 1 773.35,237.99A5,5 0 1 1 783.35,237.99Z" style="fill:#1FD3AC" />
<path d="M784.19,274.25A5,5 0 1 1 774.19,274.25A5,5 0 1 1 784.19,274.25Z" style="fill:#1FD3AC" />
<path d="M785.02,591.29A5,5 0 1 1 775.02,591.29A5,5 0 1 1 785.02,591.29Z" style="fill:#1FD3AC" />
<path d="M785.85,549.81A5,5 0 1 1 775.85,549.81A5,5 0 1 1 785.85,549.81Z" style="fill:#1FD3AC" />
<path d="M786.68,436.26A5,5 0 1 1 776.68,436.26A5,5 0 1 1 786.68,436.26Z" style="fill:#1FD3AC" />
<path d="M787.51,539.48A5,5 0 1 1 777.51,539.48A5,5 0 1 1 787.51,539.48Z" style="fill:#1FD3AC" />
<path d="M788.35,506.98A5,5 0 1 1 778.35,506.98A5,5 0 1 1 788.35,506.98Z" style="fill:#1FD3AC" />
<path d="M789.18,248.13A5,5 0 1 1 779.18,248.13A5,5 0 1 1 789.18,248.13Z" style="fill:#1FD3AC" />
<path d="M790.01,292.07A5,5 0 1 1 780.01,292.07A5,5 0 1 1 790.01,292.07Z" style="fill:#1FD3AC" />
<path d="M790.84,570.96A5,5 0 1 1 780.84,570.96A5,5 0 1 1 790.84,570.96Z" style="fill:#1FD3AC" />
<path d="M791.68,382.8A5,5 0 1 1 781.68,382.8A5,5 0 1 1 791.68,382.8Z" style="fill:#1FD3AC" />
<path d="M792.51,414.53A5,5 0 1 1 782.51,414.53A5,5 0 1 1 792.51,414.53Z" style="fill:#1FD3AC" />
<path d="M793.34,528.63A5,5 0 1 1 783.34,528.63A5,5 0 1 1 793.34,528.63Z" style="fill:#1FD3AC" />
<path d="M794.17,318.75A5,5 0 1 1 784.17,318.75A5,5 0 1 1 794.17,318.75Z" style="fill:#1FD3AC" />
<path d="M795,511.16A5,5 0 1 1 785,511.16A5,5 0 1 1 795,511.16Z" style="fill:#1FD3AC" />
<path d="M795.84,516.15A5,5 0 1 1 785.84,516.15A5,5 0 1 1 795.84,516.15Z" style="fill:#1FD3AC" />
<path d="M796.67,514.46A5,5 0 1 1 786.67,514.46A5,5 0 1 1 796.67,514.46Z" style="fill:#1FD3AC" />
<path d="M797.5,607.56A5,5 0 1 1 787.5,607.56A5,5 0 1 1 797.5,607.56Z" style="fill:#1FD3AC" />
<path d="M798.33,617.77A5,5 0 1 1 788.33,617.77A5,5 0 1 1 798.33,617.77Z" style="fill:#1FD3AC" />
<path d="M799.16,531.28A5,5 0 1 1 789.16,531.28A5,5 0 1 1 799.16,531.28Z" style="fill:#1FD3AC" />
<path d="M800,580.51A5,5 0 1 1 790,580.51A5,5 0 1 1 800,580.51Z" style="fill:#1FD3AC" />
<path d="M800.83,779.06A5,5 0 1 1 790.83,779.06A5,5 0 1 1 800.83,779.06Z" style="fill:#1FD3AC" />
<path d="M801.66,505.39A5,5 0 1 1 791.66,505.39A5,5 0 1 1 801.66,505.39Z" style="fill:#1FD3AC" />
<path d="M802.49,357.01A5,5 0 1 1 792.49,357.01A5,5 0 1 1 802.49,357.01Z" style="fill:#1FD3AC" />
<path d="M803.32,578.17A5,5 0 1 1 793.32,578.17A5,5 0 1 1 803.32,578.17Z" style="fill:#1FD3AC" />
<path d="M804.16,426.42A5,5 0 1 1 794.16,426.42A5,5 0 1 1 804.16,426.42Z" style="fill:#1FD3AC" />
<path d="M804.99,485.49A5,5 0 1 1 794.99,485.49A5,5 0 1 1 804.99,485.49Z" style="fill:#1FD3AC" />
<path d="M805.82,391.47A5,5 0 1 1 795.82,391.47A5,5 0 1 1 805.82,391.47Z" style="fill:#1FD3AC" />
<path d="M806.65,374.27A5,5 0 1 1 796.65,374.27A5,5 0 1 1 806.65,374.27Z" style="fill:#1FD3AC" />
<path d="M807.48,437.97A5,5 0 1 1 797.48,437.97A5,5 0 1 1 807.48,437.97Z" style="fill:#1FD3AC" />
<path d="M808.32,793.34A5,5 0 1 1 798.32,793.34A5,5 0 1 1 808.32,793.34Z" style="fill:#1FD3AC" />
<path d="M809.15,614.79A5,5 0 1 1 799.15,614.79A5,5 0 1 1 809.15,614.79Z" style="fill:#1FD3AC" />
<path d="M809.98,376.64A5,5 0 1 1 799.98,376.64A5,5 0 1 1 809.98,376.64Z" style="fill:#1FD3AC" />
<path d="M810.81,324A5,5 0 1 1 800.81,324A5,5 0 1 1 810.81,324Z" style="fill:#1FD3AC" />
<path d="M811.65,344.97A5,5 0 1 1 801.65,344.97A5,5 0 1 1 811.65,344.97Z" style="fill:#1FD3AC" />
<path d="M812.48,390.66A5,5 0 1 1 802.48,390.66A5,5 0 1 1 812.48,390.66Z" style="fill:#1FD3AC" />
<path d="M813.31,728.38A5,5 0 1 1 803.31,728.38A5,5 0 1 1 813.31,728.38Z" style="fill:#1FD3AC" />
<path d="M814.14,373.28A5,5 0 1 1 804.14,373.28A5,5 0 1 1 814.14,373.28Z" style="fill:#1FD3AC" />
<path d="M814.97,384.28A5,5 0 1 1 804.97,384.28A5,5 0 1 1 814.97,384.28Z" style="fill:#1FD3AC" />
<path d="M815.81,401.04A5,5 0 1 1 805.81,401.04A5,5 0 1 1 815.81,401.04Z" style="fill:#1FD3AC" />
<path d="M816.64,547.16A5,5 0 1 1 806.64,547.16A5,5 0 1 1 816.64,547.16Z" style="fill:#1FD3AC" />
<path d="M817.47,432.21A5,5 0 1 1 807.47,432.21A5,5 0 1 1 817.47,432.21Z" style="fill:#1FD3AC" />
<path d="M818.3,544.37A5,5 0 1 1 808.3,544.37A5,5 0 1 1 818.3,544.37Z" style="fill:#1FD3AC" />
<path d="M819.13,222.4A5,5 0 1 1 809.13,222.4A5,5 0 1 1 819.13,222.4Z" style="fill:#1FD3AC" />
<path d="M819.97,583.88A5,5 0 1 1 809.97,583.88A5,5 0 1 1 819.97,583.88Z" style="fill:#1FD3AC" />
<path d="M820.8,650.33A5,5 0 1 1 810.8,650.33A5,5 0 1 1 820.8,650.33Z" style="fill:#1FD3AC" />
<path d="M821.63,498.26A5,5 0 1 1 811.63,498.26A5,5 0 1 1 821.63,498.26Z" style="fill:#1FD3AC" />
<path d="M822.46,744.66A5,5 0 1 1 812.46,744.66A5,5 0 1 1 822.46,744.66Z" style="fill:#1FD3AC" />
<path d="M823.29,363.04A5,5 0 1 1 813.29,363.04A5,5 0 1 1 823.29,363.04Z" style="fill:#1FD3AC" />
<path d="M824.13,513.91A5,5 0 1 1 814.13,513.91A5,5 0 1 1 824.13,513.91Z" style="fill:#1FD3AC" />
<path d="M824.96,454.21A5,5 0 1 1 814.96,454.21A5,5 0 1 1 824.96,454.21Z" style="fill:#1FD3AC" />
<path d="M825.79,493.83A5,5 0 1 1 815.79,493.83A5,5 0 1 1 825.79,493.83Z" style="fill:#1FD3AC" />
<path d="M826.62,597.76A5,5 0 1 1 816.62,597.76A5,5 0 1 1 826.62,597.76Z" style="fill:#1FD3AC" />
<path d="M827.45,463.61A5,5 0 1 1 817.45,463.61A5,5 0 1 1 827.45,463.61Z" style="fill:#1FD3AC" />
<path d="M828.29,558.99A5,5 0 1 1 818.29,558.99A5,5 0 1 1 828.29,558.99Z" style="fill:#1FD3AC" />
<path d="M829.12,478.01A5,5 0 1 1 819.12,478.01A5,5 0 1 1 829.12,478.01Z" style="fill:#1FD3AC" />
<path d="M829.95,376.64A5,5 0 1 1 819.95,376.64A5,5 0 1 1 829.95,376.64Z" style="fill:#1FD3AC" />
<path d="M830.78,449.35A5,5 0 1 1 820.78,449.35A5,5 0 1 1 830.78,449.35Z" style="fill:#1FD3AC" />
<path d="M831.61,545.25A5,5 0 1 1 821.61,545.25A5,5 0 1 1 831.61,545.25Z" style="fill:#1FD3AC" />
<path d="M832.45,470.48A5,5 0 1 1 822.45,470.48A5,5 0 1 1 832.45,470.48Z" style="fill:#1FD3AC" />
<path d="M833.28,466.04A5,5 0 1 1 823.28,466.04A5,5 0 1 1 833.28,466.04Z" style="fill:#1FD3AC" />
<path d="M834.11,657.03A5,5 0 1 1 824.11,657.03A5,5 0 1 1 834.11,657.03Z" style="fill:#1FD3AC" />
<path d="M834.94,583.66A5,5 0 1 1 824.94,583.66A5,5 0 1 1 834.94,583.66Z" style="fill:#1FD3AC" />
<path d="M835.78,637.09A5,5 0 1 1 825.78,637.09A5,5 0 1 1 835.78,637.09Z" style="fill:#1FD3AC" />
<path d="M836.61,681.35A5,5 0 1 1 826.61,681.35A5,5 0 1 1 836.61,681.35Z" style="fill:#1FD3AC" />
<path d="M837.44,484.07A5,5 0 1 1 827.44,484.07A5,5 0 1 1 837.44,484.07Z" style="fill:#1FD3AC" />
<path d="M838.27,346.54A5,5 0 1 1 828.27,346.54A5,5 0 1 1 838.27,346.54Z" style="fill:#1FD3AC" />
<path d="M839.1,642.45A5,5 0 1 1 829.1,642.45A5,5 0 1 1 839.1,642.45Z" style="fill:#1FD3AC" />
<path d="M839.94,434.29A5,5 0 1 1 829.94,434.29A5,5 0 1 1 839.94,434.29Z" style="fill:#1FD3AC" />
<path d="M840.77,503.36A5,5 0 1 1 830.77,503.36A5,5 0 1 1 840.77,503.36Z" style="fill:#1FD3AC" />
<path d="M841.6,676.58A5,5 0 1 1 831.6,676.58A5,5 0 1 1 841.6,676.58Z" style="fill:#1FD3AC" />
<path d="M842.43,516.72A5,5 0 1 1 832.43,516.72A5,5 0 1 1 842.43,516.72Z" style="fill:#1FD3AC" />
<path d="M843.26,327.77A5,5 0 1 1 833.26,327.77A5,5 0 1 1 843.26,327.77Z" style="fill:#1FD3AC" />
<path d="M844.1,553.83A5,5 0 1 1 834.1,553.83A5,5 0 1 1 844.1,553.83Z" style="fill:#1FD3AC" />
<path d="M844.93,542.83A5,5 0 1 1 834.93,542.83A5,5 0 1 1 844.93,542.83Z" style="fill:#1FD3AC" />
<path d="M845.76,448.71A5,5 0 1 1 835.76,448.71A5,5 0 1 1 845.76,448.71Z" style="fill:#1FD3AC" />
<path d="M846.59,653.06A5,5 0 1 1 836.59,653.06A5,5 0 1 1 846.59,653.06Z" style="fill:#1FD3AC" />
<path d="M847.42,351.92A5,5 0 1 1 837.42,351.92A5,5 0 1 1 847.42,351.92Z" style="fill:#1FD3AC" />
<path d="M848.26,518.69A5,5 0 1 1 838.26,518.69A5,5 0 1 1 848.26,518.69Z" style="fill:#1FD3AC" />
<path d="M849.09,466.65A5,5 0 1 1 839.09,466.65A5,5 0 1 1 849.09,466.65Z" style="fill:#1FD3AC" />
<path d="M849.92,543.96A5,5 0 1 1 839.92,543.96A5,5 0 1 1 849.92,543.96Z" style="fill:#1FD3AC" />
<path d="M850.75,341.47A5,5 0 1 1 840.75,341.47A5,5 0 1 1 850.75,341.47Z" style="fill:#1FD3AC" />
<path d="M851.58,422.67A5,5 0 1 1 841.58,422.67A5,5 0 1 1 851.58,422.67Z" style="fill:#1FD3AC" />
<path d="M852.42,529.56A5,5 0 1 1 842.42,529.56A5,5 0 1 1 852.42,529.56Z" style="fill:#1FD3AC" />
<path d="M853.25,506.18A5,5 0 1 1 843.25,506.18A5,5 0 1 1 853.25,506.18Z" style="fill:#1FD3AC" />
<path d="M854.08,430.57A5,5 0 1 1 844.08,430.57A5,5 0 1 1 854.08,430.57Z" style="fill:#1FD3AC" />
<path d="M854.91,576.87A5,5 0 1 1 844.91,576.87A5,5 0 1 1 854.91,576.87Z" style="fill:#1FD3AC" />
<path d="M855.75,607.73A5,5 0 1 1 845.75,607.73A5,5 0 1 1 855.75,607.73Z" style="fill:#1FD3AC" />
<path d="M856.58,437.93A5,5 0 1 1 846.58,437.93A5,5 0 1 1 856.58,437.93Z" style="fill:#1FD3AC" />
<path d="M857.41,574.94A5,5 0 1 1 847.41,574.94A5,5 0 1 1 857.41,574.94Z" style="fill:#1FD3AC" />
<path d="M858.24,634.15A5,5 0 1 1 848.24,634.15A5,5 0 1 1 858.24,634.15Z" style="fill:#1FD3AC" />
<path d="M859.07,501.16A5,5 0 1 1 849.07,501.16A5,5 0 1 1 859.07,501.16Z" style="fill:#1FD3AC" />
<path d="M859.91,575.54A5,5 0 1 1 849.91,575.54A5,5 0 1 1 859.91,575.54Z" style="fill:#1FD3AC" />
<path d="M860.74,458.56A5,5 0 1 1 850.74,458.56A5,5 0 1 1 860.74,458.56Z" style="fill:#1FD3AC" />
<path d="M861.57,480.36A5,5 0 1 1 851.57,480.36A5,5 0 1 1 861.57,480.36Z" style="fill:#1FD3AC" />
<path d="M862.4,545.41A5,5 0 1 1 852.4,545.41A5,5 0 1 1 862.4,545.41Z" style="fill:#1FD3AC" />
<path d="M863.23,235.8A5,5 0 1 1 853.23,235.8A5,5 0 1 1 863.23,235.8Z" style="fill:#1FD3AC" />
<path d="M864.07,386.96A5,5 0 1 1 854.07,386.96A5,5 0 1 1 864.07,386.96Z" style="fill:#1FD3AC" />
<path d="M864.9,406.01A5,5 0 1 1 854.9,406.01A5,5 0 1 1 864.9,406.01Z" style="fill:#1FD3AC" />
<path d="M865.73,376.47A5,5 0 1 1 855.73,376.47A5,5 0 1 1 865.73,376.47Z" style="fill:#1FD3AC" />
<path d="M866.56,303.36A5,5 0 1 1 856.56,303.36A5,5 0 1 1 866.56,303.36Z" style="fill:#1FD3AC" />
<path d="M867.39,565.74A5,5 0 1 1 857.39,565.74A5,5 0 1 1 867.39,565.74Z" style="fill:#1FD3AC" />
<path d="M868.23,560.76A5,5 0 1 1 858.23,560.76A5,5 0 1 1 868.23,560.76Z" style="fill:#1FD3AC" />
<path d="M869.06,694.83A5,5 0 1 1 859.06,694.83A5,5 0 1 1 869.06,694.83Z" style="fill:#1FD3AC" />
<path d="M869.89,352.25A5,5 0 1 1 859.89,352.25A5,5 0 1 1 869.89,352.25Z" style="fill:#1FD3AC" />
<path d="M870.72,435.25A5,5 0 1 1 860.72,435.25A5,5 0 1 1 870.72,435.25Z" style="fill:#1FD3AC" />
<path d="M871.55,440.59A5,5 0 1 1 861.55,440.59A5,5 0 1 1 871.55,440.59Z" style="fill:#1FD3AC" />
<path d="M872.39,492.37A5,5 0 1 1 862.39,492.37A5,5 0 1 1 872.39,492.37Z" style="fill:#1FD3AC" />
<path d="M873.22,418.4A5,5 0 1 1 863.22,418.4A5,5 0 1 1 873.22,418.4Z" style="fill:#1FD3AC" />
<path d="M874.05,631.97A5,5 0 1 1 864.05,631.97A5,5 0 1 1 874.05,631.97Z" style="fill:#1FD3AC" />
<path d="M874.88,286.62A5,5 0 1 1 864.88,286.62A5,5 0 1 1 874.88,286.62Z" style="fill:#1FD3AC" />
<path d="M875.71,397.74A5,5 0 1 1 865.71,397.74A5,5 0 1 1 875.71,397.74Z" style="fill:#1FD3AC" />
<path d="M876.55,440.66A5,5 0 1 1 866.55,440.66A5,5 0 1 1 876.55,440.66Z" style="fill:#1FD3AC" />
<path d="M877.38,599.73A5,5 0 1 1 867.38,599.73A5,5 0 1 1 877.38,599.73Z" style="fill:#1FD3AC" />
<path d="M878.21,539.11A5,5 0 1 1 868.21,539.11A5,5 0 1 1 878.21,539.11Z" style="fill:#1FD3AC" />
<path d="M879.04,423.79A5,5 0 1 1 869.04,423.79A5,5 0 1 1 879.04,423.79Z" style="fill:#1FD3AC" />
<path d="M879.88,539.83A5,5 0 1 1 869.88,539.83A5,5 0 1 1 879.88,539.83Z" style="fill:#1FD3AC" />
<path d="M880.71,415.94A5,5 0 1 1 870.71,415.94A5,5 0 1 1 880.71,415.94Z" style="fill:#1FD3AC" />
<path d="M881.54,331.01A5,5 0 1 1 871.54,331.01A5,5 0 1 1 881.54,331.01Z" style="fill:#1FD3AC" />
<path d="M882.37,668.42A5,5 0 1 1 872.37,668.42A5,5 0 1 1 882.37,668.42Z" style="fill:#1FD3AC" />
<path d="M883.2,530.25A5,5 0 1 1 873.2,530.25A5,5 0 1 1 883.2,530.25Z" style="fill:#1FD3AC" />
<path d="M884.04,616.09A5,5 0 1 1 874.04,616.09A5,5 0 1 1 884.04,616.09Z" style="fill:#1FD3AC" />
<path d="M884.87,694.16A5,5 0 1 1 874.87,694.16A5,5 0 1 1 884.87,694.16Z" style="fill:#1FD3AC" />
<path d="M885.7,550.6A5,5 0 1 1 875.7,550.6A5,5 0 1 1 885.7,550.6Z" style="fill:#1FD3AC" />
<path d="M886.53,541.97A5,5 0 1 1 876.53,541.97A5,5 0 1 1 886.53,541.97Z" style="fill:#1FD3AC" />
<path d="M887.36,569.15A5,5 0 1 1 877.36,569.15A5,5 0 1 1 887.36,569.15Z" style="fill:#1FD3AC" />
<path d="M888.2,574.12A5,5 0 1 1 878.2,574.12A5,5 0 1 1 888.2,574.12Z" style="fill:#1FD3AC" />
<path d="M889.03,687.78A5,5 0 1 1 879.03,687.78A5,5 0 1 1 889.03,687.78Z" style="fill:#1FD3AC" />
<path d="M889.86,339.16A5,5 0 1 1 879.86,339.16A5,5 0 1 1 889.86,339.16Z" style="fill:#1FD3AC" />
<path d="M890.69,450.21A5,5 0 1 1 880.69,450.21A5,5 0 1 1 890.69,450.21Z" style="fill:#1FD3AC" />
<path d="M891.52,392.03A5,5 0 1 1 881.52,392.03A5,5 0 1 1 891.52,392.03Z" style="fill:#1FD3AC" />
<path d="M892.36,568.59A5,5 0 1 1 882.36,568.59A5,5 0 1 1 892.36,568.59Z" style="fill:#1FD3AC" />
<path d="M893.19,639.99A5,5 0 1 1 883.19,639.99A5,5 0 1 1 893.19,639.99Z" style="fill:#1FD3AC" />
<path d="M894.02,417.44A5,5 0 1 1 884.02,417.44A5,5 0 1 1 894.02,417.44Z" style="fill:#1FD3AC" />
<path d="M894.85,630.43A5,5 0 1 1 884.85,630.43A5,5 0 1 1 894.85,630.43Z" style="fill:#1FD3AC" />
<path d="M895.68,421.97A5,5 0 1 1 885.68,421.97A5,5 0 1 1 895.68,421.97Z" style="fill:#1FD3AC" />
<path d="M896.52,400.3A5,5 0 1 1 886.52,400.3A5,5 0 1 1 896.52,400.3Z" style="fill:#1FD3AC" />
<path d="M897.35,383.57A5,5 0 1 1 887.35,383.57A5,5 0 1 1 897.35,383.57Z" style="fill:#1FD3AC" />
<path d="M898.18,541.2A5,5 0 1 1 888.18,541.2A5,5 0 1 1 898.18,541.2Z" style="fill:#1FD3AC" />
<path d="M899.01,563.94A5,5 0 1 1 889.01,563.94A5,5 0 1 1 899.01,563.94Z" style="fill:#1FD3AC" />
<path d="M899.85,536.76A5,5 0 1 1 889.85,536.76A5,5 0 1 1 899.85,536.76Z" style="fill:#1FD3AC" />
<path d="M900.68,520.94A5,5 0 1 1 890.68,520.94A5,5 0 1 1 900.68,520.94Z" style="fill:#1FD3AC" />
<path d="M901.51,477.61A5,5 0 1 1 891.51,477.61A5,5 0 1 1 901.51,477.61Z" style="fill:#1FD3AC" />
<path d="M902.34,467.45A5,5 0 1 1 892.34,467.45A5,5 0 1 1 902.34,467.45Z" style="fill:#1FD3AC" />
<path d="M903.17,514.55A5,5 0 1 1 893.17,514.55A5,5 0 1 1 903.17,514.55Z" style="fill:#1FD3AC" />
<path d="M904.01,402.42A5,5 0 1 1 894.01,402.42A5,5 0 1 1 904.01,402.42Z" style="fill:#1FD3AC" />
<path d="M904.84,419.02A5,5 0 1 1 894.84,419.02A5,5 0 1 1 904.84,419.02Z" style="fill:#1FD3AC" />
<path d="M905.67,475.69A5,5 0 1 1 895.67,475.69A5,5 0 1 1 905.67,475.69Z" style="fill:#1FD3AC" />
<path d="M906.5,459.36A5,5 0 1 1 896.5,459.36A5,5 0 1 1 906.5,459.36Z" style="fill:#1FD3AC" />
<path d="M907.33,364.37A5,5 0 1 1 897.33,364.37A5,5 0 1 1 907.33,364.37Z" style="fill:#1FD3AC" />
<path d="M908.17,510.07A5,5 0 1 1 898.17,510.07A5,5 0 1 1 908.17,510.07Z" style="fill:#1FD3AC" />
<path d="M909,663.05A5,5 0 1 1 899,663.05A5,5 0 1 1 909,663.05Z" style="fill:#1FD3AC" />
<path d="M909.83,480.1A5,5 0 1 1 899.83,480.1A5,5 0 1 1 909.83,480.1Z" style="fill:#1FD3AC" />
<path d="M910.66,585.6A5,5 0 1 1 900.66,585.6A5,5 0 1 1 910.66,585.6Z" style="fill:#1FD3AC" />
<path d="M911.49,374A5,5 0 1 1 901.49,374A5,5 0 1 1 911.49,374Z" style="fill:#1FD3AC" />
<path d="M912.33,594.77A5,5 0 1 1 902.33,594.77A5,5 0 1 1 912.33,594.77Z" style="fill:#1FD3AC" />
<path d="M913.16,629.82A5,5 0 1 1 903.16,629.82A5,5 0 1 1 913.16,629.82Z" style="fill:#1FD3AC" />
<path d="M913.99,357.54A5,5 0 1 1 903.99,357.54A5,5 0 1 1 913.99,357.54Z" style="fill:#1FD3AC" />
<path d="M914.82,583.07A5,5 0 1 1 904.82,583.07A5,5 0 1 1 914.82,583.07Z" style="fill:#1FD3AC" />
<path d="M915.65,497.52A5,5 0 1 1 905.65,497.52A5,5 0 1 1 915.65,497.52Z" style="fill:#1FD3AC" />
<path d="M916.49,645.15A5,5 0 1 1 906.49,645.15A5,5 0 1 1 916.49,645.15Z" style="fill:#1FD3AC" />
<path d="M917.32,383.45A5,5 0 1 1 907.32,383.45A5,5 0 1 1 917.32,383.45Z" style="fill:#1FD3AC" />
<path d="M918.15,423.43A5,5 0 1 1 908.15,423.43A5,5 0 1 1 918.15,423.43Z" style="fill:#1FD3AC" />
<path d="M918.98,558.22A5,5 0 1 1 908.98,558.22A5,5 0 1 1 918.98,558.22Z" style="fill:#1FD3AC" />
<path d="M919.82,477.43A5,5 0 1 1 909.82,477.43A5,5 0 1 1 919.82,477.43Z" style="fill:#1FD3AC" />
<path d="M920.65,508.95A5,5 0 1 1 910.65,508.95A5,5 0 1 1 920.65,508.95Z" style="fill:#1FD3AC" />
<path d="M921.48,518.86A5,5 0 1 1 911.48,518.86A5,5 0 1 1 921.48,518.86Z" style="fill:#1FD3AC" />
<path d="M922.31,421.24A5,5 0 1 1 912.31,421.24A5,5 0 1 1 922.31,421.24Z" style="fill:#1FD3AC" />
<path d="M923.14,463.75A5,5 0 1 1 913.14,463.75A5,5 0 1 1 923.14,463.75Z" style="fill:#1FD3AC" />
<path d="M923.98,623.19A5,5 0 1 1 913.98,623.19A5,5 0 1 1 923.98,623.19Z" style="fill:#1FD3AC" />
<path d="M924.81,485.4A5,5 0 1 1 914.81,485.4A5,5 0 1 1 924.81,485.4Z" style="fill:#1FD3AC" />
<path d="M925.64,523.61A5,5 0 1 1 915.64,523.61A5,5 0 1 1 925.64,523.61Z" style="fill:#1FD3AC" />
<path d="M926.47,576.72A5,5 0 1 1 916.47,576.72A5,5 0 1 1 926.47,576.72Z" style="fill:#1FD3AC" />
<path d="M927.3,634.94A5,5 0 1 1 917.3,634.94A5,5 0 1 1 927.3,634.94Z" style="fill:#1FD3AC" />
<path d="M928.14,663.19A5,5 0 1 1 918.14,663.19A5,5 0 1 1 928.14,663.19Z" style="fill:#1FD3AC" />
<path d="M928.97,552.37A5,5 0 1 1 918.97,552.37A5,5 0 1 1 928.97,552.37Z" style="fill:#1FD3AC" />
<path d="M929.8,486.82A5,5 0 1 1 919.8,486.82A5,5 0 1 1 929.8,486.82Z" style="fill:#1FD3AC" />
<path d="M930.63,550.8A5,5 0 1 1 920.63,550.8A5,5 0 1 1 930.63,550.8Z" style="fill:#1FD3AC" />
<path d="M931.46,555.08A5,5 0 1 1 921.46,555.08A5,5 0 1 1 931.46,555.08Z" style="fill:#1FD3AC" />
<path d="M932.3,432.39A5,5 0 1 1 922.3,432.39A5,5 0 1 1 932.3,432.39Z" style="fill:#1FD3AC" />
<path d="M933.13,461.75A5,5 0 1 1 923.13,461.75A5,5 0 1 1 933.13,461.75Z" style="fill:#1FD3AC" />
<path d="M933.96,587.74A5,5 0 1 1 923.96,587.74A5,5 0 1 1 933.96,587.74Z" style="fill:#1FD3AC" />
<path d="M934.79,627.8A5,5 0 1 1 924.79,627.8A5,5 0 1 1 934.79,627.8Z" style="fill:#1FD3AC" />
<path d="M935.62,406.01A5,5 0 1 1 925.62,406.01A5,5 0 1 1 935.62,406.01Z" style="fill:#1FD3AC" />
<path d="M936.46,419.78A5,5 0 1 1 926.46,419.78A5,5 0 1 1 936.46,419.78Z" style="fill:#1FD3AC" />
<path d="M937.29,594.51A5,5 0 1 1 927.29,594.51A5,5 0 1 1 937.29,594.51Z" style="fill:#1FD3AC" />
<path d="M938.12,572.2A5,5 0 1 1 928.12,572.2A5,5 0 1 1 938.12,572.2Z" style="fill:#1FD3AC" />
<path d="M938.95,663.76A5,5 0 1 1 928.95,663.76A5,5 0 1 1 938.95,663.76Z" style="fill:#1FD3AC" />
<path d="M939.78,422.37A5,5 0 1 1 929.78,422.37A5,5 0 1 1 939.78,422.37Z" style="fill:#1FD3AC" />
<path d="M940.62,447.32A5,5 0 1 1 930.62,447.32A5,5 0 1 1 940.62,447.32Z" style="fill:#1FD3AC" />
<path d="M941.45,391.75A5,5 0 1 1 931.45,391.75A5,5 0 1 1 941.45,391.75Z" style="fill:#1FD3AC" />
<path d="M942.28,520.64A5,5 0 1 1 932.28,520.64A5,5 0 1 1 942.28,520.64Z" style="fill:#1FD3AC" />
<path d="M943.11,446.71A5,5 0 1 1 933.11,446.71A5,5 0 1 1 943.11,446.71Z" style="fill:#1FD3AC" />
<path d="M943.95,486.84A5,5 0 1 1 933.95,486.84A5,5 0 1 1 943.95,486.84Z" style="fill:#1FD3AC" />
<path d="M944.78,524.32A5,5 0 1 1 934.78,524.32A5,5 0 1 1 944.78,524.32Z" style="fill:#1FD3AC" />
<path d="M945.61,559.27A5,5 0 1 1 935.61,559.27A5,5 0 1 1 945.61,559.27Z" style="fill:#1FD3AC" />
<path d="M946.44,338.05A5,5 0 1 1 936.44,338.05A5,5 0 1 1 946.44,338.05Z" style="fill:#1FD3AC" />
<path d="M947.27,494.44A5,5 0 1 1 937.27,494.44A5,5 0 1 1 947.27,494.44Z" style="fill:#1FD3AC" />
<path d="M948.11,550.13A5,5 0 1 1 938.11,550.13A5,5 0 1 1 948.11,550.13Z" style="fill:#1FD3AC" />
<path d="M948.94,576.52A5,5 0 1 1 938.94,576.52A5,5 0 1 1 948.94,576.52Z" style="fill:#1FD3AC" />
<path d="M949.77,326.34A5,5 0 1 1 939.77,326.34A5,5 0 1 1 949.77,326.34Z" style="fill:#1FD3AC" />
<path d="M950.6,424.24A5,5 0 1 1 940.6,424.24A5,5 0 1 1 950.6,424.24Z" style="fill:#1FD3AC" />
<path d="M951.43,441.7A5,5 0 1 1 941.43,441.7A5,5 0 1 1 951.43,441.7Z" style="fill:#1FD3AC" />
<path d="M952.27,540.83A5,5 0 1 1 942.27,540.83A5,5 0 1 1 952.27,540.83Z" style="fill:#1FD3AC" />
<path d="M953.1,393.5A5,5 0 1 1 943.1,393.5A5,5 0 1 1 953.1,393.5Z" style="fill:#1FD3AC" />
<path d="M953.93,422.71A5,5 0 1 1 943.93,422.71A5,5 0 1 1 953.93,422.71Z" style="fill:#1FD3AC" />
<path d="M954.76,453.31A5,5 0 1 1 944.76,453.31A5,5 0 1 1 954.76,453.31Z" style="fill:#1FD3AC" />
<path d="M955.59,455.12A5,5 0 1 1 945.59,455.12A5,5 0 1 1 955.59,455.12Z" style="fill:#1FD3AC" />
<path d="M956.43,613.56A5,5 0 1 1 946.43,613.56A5,5 0 1 1 956.43,613.56Z" style="fill:#1FD3AC" />
<path d="M957.26,608.84A5,5 0 1 1 947.26,608.84A5,5 0 1 1 957.26,608.84Z" style="fill:#1FD3AC" />
<path d="M958.09,471.42A5,5 0 1 1 948.09,471.42A5,5 0 1 1 958.09,471.42Z" style="fill:#1FD3AC" />
<path d="M958.92,369.34A5,5 0 1 1 948.92,369.34A5,5 0 1 1 958.92,369.34Z" style="fill:#1FD3AC" />
<path d="M959.75,657.37A5,5 0 1 1 949.75,657.37A5,5 0 1 1 959.75,657.37Z" style="fill:#1FD3AC" />
<path d="M960.59,441.93A5,5 0 1 1 950.59,441.93A5,5 0 1 1 960.59,441.93Z" style="fill:#1FD3AC" />
<path d="M961.42,589.17A5,5 0 1 1 951.42,589.17A5,5 0 1 1 961.42,589.17Z" style="fill:#1FD3AC" />
<path d="M962.25,559.94A5,5 0 1 1 952.25,559.94A5,5 0 1 1 962.25,559.94Z" style="fill:#1FD3AC" />
<path d="M963.08,545.97A5,5 0 1 1 953.08,545.97A5,5 0 1 1 963.08,545.97Z" style="fill:#1FD3AC" />
<path d="M963.92,383A5,5 0 1 1 953.92,383A5,5 0 1 1 963.92,383Z" style="fill:#1FD3AC" />
<path d="M964.75,481.41A5,5 0 1 1 954.75,481.41A5,5 0 1 1 964.75,481.41Z" style="fill:#1FD3AC" />
<path d="M965.58,410.26A5,5 0 1 1 955.58,410.26A5,5 0 1 1 965.58,410.26Z" style="fill:#1FD3AC" />
<path d="M966.41,421.83A5,5 0 1 1 956.41,421.83A5,5 0 1 1 966.41,421.83Z" style="fill:#1FD3AC" />
<path d="M967.24,485.08A5,5 0 1 1 957.24,485.08A5,5 0 1 1 967.24,485.08Z" style="fill:#1FD3AC" />
<path d="M968.08,412.99A5,5 0 1 1 958.08,412.99A5,5 0 1 1 968.08,412.99Z" style="fill:#1FD3AC" />
<path d="M968.91,490.27A5,5 0 1 1 958.91,490.27A5,5 0 1 1 968.91,490.27Z" style="fill:#1FD3AC" />
<path d="M969.74,466.94A5,5 0 1 1 959.74,466.94A5,5 0 1 1 969.74,466.94Z" style="fill:#1FD3AC" />
<path d="M970.57,453.01A5,5 0 1 1 960.57,453.01A5,5 0 1 1 970.57,453.01Z" style="fill:#1FD3AC" />
<path d="M971.4,583.16A5,5 0 1 1 961.4,583.16A5,5 0 1 1 971.4,583.16Z" style="fill:#1FD3AC" />
<path d="M972.24,396.27A5,5 0 1 1 962.24,396.27A5,5 0 1 1 972.24,396.27Z" style="fill:#1FD3AC" />
<path d="M973.07,400.4A5,5 0 1 1 963.07,400.4A5,5 0 1 1 973.07,400.4Z" style="fill:#1FD3AC" />
<path d="M973.9,624.1A5,5 0 1 1 963.9,624.1A5,5 0 1 1 973.9,624.1Z" style="fill:#1FD3AC" />
<path d="M974.73,548.46A5,5 0 1 1 964.73,548.46A5,5 0 1 1 974.73,548.46Z" style="fill:#1FD3AC" />
<path d="M975.56,479.74A5,5 0 1 1 965.56,479.74A5,5 0 1 1 975.56,479.74Z" style="fill:#1FD3AC" />
<path d="M976.4,475.12A5,5 0 1 1 966.4,475.12A5,5 0 1 1 976.4,475.12Z" style="fill:#1FD3AC" />
<path d="M977.23,384.7A5,5 0 1 1 967.23,384.7A5,5 0 1 1 977.23,384.7Z" style="fill:#1FD3AC" />
<path d="M978.06,571A5,5 0 1 1 968.06,571A5,5 0 1 1 978.06,571Z" style="fill:#1FD3AC" />
<path d="M978.89,452.99A5,5 0 1 1 968.89,452.99A5,5 0 1 1 978.89,452.99Z" style="fill:#1FD3AC" />
<path d="M979.72,600.03A5,5 0 1 1 969.72,600.03A5,5 0 1 1 979.72,600.03Z" style="fill:#1FD3AC" />
<path d="M980.56,452.25A5,5 0 1 1 970.56,452.25A5,5 0 1 1 980.56,452.25Z" style="fill:#1FD3AC" />
<path d="M981.39,344.99A5,5 0 1 1 971.39,344.99A5,5 0 1 1 981.39,344.99Z" style="fill:#1FD3AC" />
<path d="M982.22,461.89A5,5 0 1 1 972.22,461.89A5,5 0 1 1 982.22,461.89Z" style="fill:#1FD3AC" />
<path d="M983.05,455.81A5,5 0 1 1 973.05,455.81A5,5 0 1 1 983.05,455.81Z" style="fill:#1FD3AC" />
<path d="M983.89,431.55A5,5 0 1 1 973.89,431.55A5,5 0 1 1 983.89,431.55Z" style="fill:#1FD3AC" />
<path d="M984.72,538.22A5,5 0 1 1 974.72,538.22A5,5 0 1 1 984.72,538.22Z" style="fill:#1FD3AC" />
<path d="M985.55,592.79A5,5 0 1 1 975.55,592.79A5,5 0 1 1 985.55,592.79Z" style="fill:#1FD3AC" />
<path d="M986.38,414.46A5,5 0 1 1 976.38,414.46A5,5 0 1 1 986.38,414.46Z" style="fill:#1FD3AC" />
<path d="M987.21,388.1A5,5 0 1 1 977.21,388.1A5,5 0 1 1 987.21,388.1Z" style="fill:#1FD3AC" />
<path d="M988.05,264.26A5,5 0 1 1 978.05,264.26A5,5 0 1 1 988.05,264.26Z" style="fill:#1FD3AC" />
<path d="M988.88,582.66A5,5 0 1 1 978.88,582.66A5,5 0 1 1 988.88,582.66Z" style="fill:#1FD3AC" />
<path d="M989.71,642.99A5,5 0 1 1 979.71,642.99A5,5 0 1 1 989.71,642.99Z" style="fill:#1FD3AC" />
<path d="M990.54,541.09A5,5 0 1 1 980.54,541.09A5,5 0 1 1 990.54,541.09Z" style="fill:#1FD3AC" />
<path d="M991.37,349A5,5 0 1 1 981.37,349A5,5 0 1 1 991.37,349Z" style="fill:#1FD3AC" />
<path d="M992.21,487.61A5,5 0 1 1 982.21,487.61A5,5 0 1 1 992.21,487.61Z" style="fill:#1FD3AC" />
<path d="M993.04,510.87A5,5 0 1 1 983.04,510.87A5,5 0 1 1 993.04,510.87Z" style="fill:#1FD3AC" />
<path d="M993.87,529.95A5,5 0 1 1 983.87,529.95A5,5 0 1 1 993.87,529.95Z" style="fill:#1FD3AC" />
<path d="M994.7,369.57A5,5 0 1 1 984.7,369.57A5,5 0 1 1 994.7,369.57Z" style="fill:#1FD3AC" />
<path d="M995.53,489.29A5,5 0 1 1 985.53,489.29A5,5 0 1 1 995.53,489.29Z" style="fill:#1FD3AC" />
<path d="M996.37,459.56A5,5 0 1 1 986.37,459.56A5,5 0 1 1 996.37,459.56Z" style="fill:#1FD3AC" />
<path d="M997.2,516.9A5,5 0 1 1 987.2,516.9A5,5 0 1 1 997.2,516.9Z" style="fill:#1FD3AC" />
<path d="M998.03,427.89A5,5 0 1 1 988.03,427.89A5,5 0 1 1 998.03,427.89Z" style="fill:#1FD3AC" />
<path d="M998.86,444.53A5,5 0 1 1 988.86,444.53A5,5 0 1 1 998.86,444.53Z" style="fill:#1FD3AC" />
<path d="M999.69,543.76A5,5 0 1 1 989.69,543.76A5,5 0 1 1 999.69,543.76Z" style="fill:#1FD3AC" />
<path d="M1000.5,552.59A5,5 0 1 1 990.53,552.59A5,5 0 1 1 1000.5,552.59Z" style="fill:#1FD3AC" />
<path d="M1001.4,602.38A5,5 0 1 1 991.36,602.38A5,5 0 1 1 1001.4,602.38Z" style="fill:#1FD3AC" />
<path d="M1002.2,403.48A5,5 0 1 1 992.19,403.48A5,5 0 1 1 1002.2,403.48Z" style="fill:#1FD3AC" />
<path d="M1003,348.24A5,5 0 1 1 993.02,348.24A5,5 0 1 1 1003,348.24Z" style="fill:#1FD3AC" />
<path d="M1003.9,491.76A5,5 0 1 1 993.85,491.76A5,5 0 1 1 1003.9,491.76Z" style="fill:#1FD3AC" />
<path d="M1004.7,450.53A5,5 0 1 1 994.69,450.53A5,5 0 1 1 1004.7,450.53Z" style="fill:#1FD3AC" />
<path d="M1005.5,549.48A5,5 0 1 1 995.52,549.48A5,5 0 1 1 1005.5,549.48Z" style="fill:#1FD3AC" />
<path d="M1006.4,519.24A5,5 0 1 1 996.35,519.24A5,5 0 1 1 1006.4,519.24Z" style="fill:#1FD3AC" />
<path d="M1007.2,370.04A5,5 0 1 1 997.18,370.04A5,5 0 1 1 1007.2,370.04Z" style="fill:#1FD3AC" />
<path d="M1008,475.41A5,5 0 1 1 998.02,475.41A5,5 0 1 1 1008,475.41Z" style="fill:#1FD3AC" />
<path d="M1008.8,432.81A5,5 0 1 1 998.85,432.81A5,5 0 1 1 1008.8,432.81Z" style="fill:#1FD3AC" />
<path d="M1009.7,495.85A5,5 0 1 1 999.68,495.85A5,5 0 1 1 1009.7,495.85Z" style="fill:#1FD3AC" />
<path d="M1010.5,413.37A5,5 0 1 1 1000.5,413.37A5,5 0 1 1 1010.5,413.37Z" style="fill:#1FD3AC" />
<path d="M1011.3,469.34A5,5 0 1 1 1001.3,469.34A5,5 0 1 1 1011.3,469.34Z" style="fill:#1FD3AC" />
<path d="M1012.2,397.93A5,5 0 1 1 1002.2,397.93A5,5 0 1 1 1012.2,397.93Z" style="fill:#1FD3AC" />
<path d="M1013,508.03A5,5 0 1 1 1003,508.03A5,5 0 1 1 1013,508.03Z" style="fill:#1FD3AC" />
<path d="M1013.8,572.49A5,5 0 1 1 1003.8,572.49A5,5 0 1 1 1013.8,572.49Z" style="fill:#1FD3AC" />
<path d="M1014.7,471.1A5,5 0 1 1 1004.7,471.1A5,5 0 1 1 1014.7,471.1Z" style="fill:#1FD3AC" />
<path d="M1015.5,512.15A5,5 0 1 1 1005.5,512.15A5,5 0 1 1 1015.5,512.15Z" style="fill:#1FD3AC" />
<path d="M1016.3,490.76A5,5 0 1 1 1006.3,490.76A5,5 0 1 1 1016.3,490.76Z" style="fill:#1FD3AC" />
<path d="M1017.2,512.56A5,5 0 1 1 1007.2,512.56A5,5 0 1 1 1017.2,512.56Z" style="fill:#1FD3AC" />
<path d="M1018,458.85A5,5 0 1 1 1008,458.85A5,5 0 1 1 1018,458.85Z" style="fill:#1FD3AC" />
<path d="M1018.8,647.95A5,5 0 1 1 1008.8,647.95A5,5 0 1 1 1018.8,647.95Z" style="fill:#1FD3AC" />
<path d="M1019.7,423.37A5,5 0 1 1 1009.7,423.37A5,5 0 1 1 1019.7,423.37Z" style="fill:#1FD3AC" />
<path d="M1020.5,550.39A5,5 0 1 1 1010.5,550.39A5,5 0 1 1 1020.5,550.39Z" style="fill:#1FD3AC" />
<path d="M1021.3,516.14A5,5 0 1 1 1011.3,516.14A5,5 0 1 1 1021.3,516.14Z" style="fill:#1FD3AC" />
<path d="M1022.2,510.8A5,5 0 1 1 1012.2,510.8A5,5 0 1 1 1022.2,510.8Z" style="fill:#1FD3AC" />
<path d="M1023,288.68A5,5 0 1 1 1013,288.68A5,5 0 1 1 1023,288.68Z" style="fill:#1FD3AC" />
<path d="M1023.8,557.65A5,5 0 1 1 1013.8,557.65A5,5 0 1 1 1023.8,557.65Z" style="fill:#1FD3AC" />
<path d="M1024.7,390.98A5,5 0 1 1 1014.7,390.98A5,5 0 1 1 1024.7,390.98Z" style="fill:#1FD3AC" />
<path d="M1025.5,442.79A5,5 0 1 1 1015.5,442.79A5,5 0 1 1 1025.5,442.79Z" style="fill:#1FD3AC" />
<path d="M1026.3,558.16A5,5 0 1 1 1016.3,558.16A5,5 0 1 1 1026.3,558.16Z" style="fill:#1FD3AC" />
<path d="M1027.2,456.16A5,5 0 1 1 1017.2,456.16A5,5 0 1 1 1027.2,456.16Z" style="fill:#1FD3AC" />
<path d="M1028,481.03A5,5 0 1 1 1018,481.03A5,5 0 1 1 1028,481.03Z" style="fill:#1FD3AC" />
<path d="M1028.8,440.27A5,5 0 1 1 1018.8,440.27A5,5 0 1 1 1028.8,440.27Z" style="fill:#1FD3AC" />
<path d="M1029.6,428.82A5,5 0 1 1 1019.6,428.82A5,5 0 1 1 1029.6,428.82Z" style="fill:#1FD3AC" />
<path d="M1030.5,533.27A5,5 0 1 1 1020.5,533.27A5,5 0 1 1 1030.5,533.27Z" style="fill:#1FD3AC" />
<path d="M1031.3,385.5A5,5 0 1 1 1021.3,385.5A5,5 0 1 1 1031.3,385.5Z" style="fill:#1FD3AC" />
<path d="M1032.1,458.91A5,5 0 1 1 1022.1,458.91A5,5 0 1 1 1032.1,458.91Z" style="fill:#1FD3AC" />
<path d="M1033,587.51A5,5 0 1 1 1023,587.51A5,5 0 1 1 1033,587.51Z" style="fill:#1FD3AC" />
<path d="M1033.8,345.45A5,5 0 1 1 1023.8,345.45A5,5 0 1 1 1033.8,345.45Z" style="fill:#1FD3AC" />
<path d="M1034.6,359.69A5,5 0 1 1 1024.6,359.69A5,5 0 1 1 1034.6,359.69Z" style="fill:#1FD3AC" />
<path d="M1035.5,765.2A5,5 0 1 1 1025.5,765.2A5,5 0 1 1 1035.5,765.2Z" style="fill:#1FD3AC" />
<path d="M1036.3,505.8A5,5 0 1 1 1026.3,505.8A5,5 0 1 1 1036.3,505.8Z" style="fill:#1FD3AC" />
<path d="M1037.1,259.09A5,5 0 1 1 1027.1,259.09A5,5 0 1 1 1037.1,259.09Z" style="fill:#1FD3AC" />
<path d="M1038,523A5,5 0 1 1 1028,523A5,5 0 1 1 1038,523Z" style="fill:#1FD3AC" />
<path d="M1038.8,363.92A5,5 0 1 1 1028.8,363.92A5,5 0 1 1 1038.8,363.92Z" style="fill:#1FD3AC" />
<path d="M1039.6,438.29A5,5 0 1 1 1029.6,438.29A5,5 0 1 1 1039.6,438.29Z" style="fill:#1FD3AC" />
<path d="M1040.5,663.72A5,5 0 1 1 1030.5,663.72A5,5 0 1 1 1040.5,663.72Z" style="fill:#1FD3AC" />
<path d="M1041.3,393.01A5,5 0 1 1 1031.3,393.01A5,5 0 1 1 1041.3,393.01Z" style="fill:#1FD3AC" />
<path d="M1042.1,584.6A5,5 0 1 1 1032.1,584.6A5,5 0 1 1 1042.1,584.6Z" style="fill:#1FD3AC" />
<path d="M1043,477.57A5,5 0 1 1 1033,477.57A5,5 0 1 1 1043,477.57Z" style="fill:#1FD3AC" />
<path d="M1043.8,404.54A5,5 0 1 1 1033.8,404.54A5,5 0 1 1 1043.8,404.54Z" style="fill:#1FD3AC" />
<path d="M1044.6,486.07A5,5 0 1 1 1034.6,486.07A5,5 0 1 1 1044.6,486.07Z" style="fill:#1FD3AC" />
<path d="M1013,777.33A8,8 0 1 1 997,777.33A8,8 0 1 1 1013,777.33Z" style="fill:#1FD3AC" />
<text x="771.48" y="-764.14" transform="scale(1, -1)"
	style="font-family:Helvetica;font-weight:normal;font-style:normal;font-size:56px">1.52 fW</text>
</g>
</svg>
