<?xml version="1.0"?>
<!-- Generated by SVGo and Plotinum VG -->
<svg width="1080pt" height="1080pt" viewBox="0 0 1080 1080"
	xmlns="http://www.w3.org/2000/svg"
	xmlns:xlink="http://www.w3.org/1999/xlink">
<g transform="scale(1, -1) translate(0, -1080)">
<path d="M0,0L1080,0L1080,1080L0,1080Z" style="fill-opacity:0" />
<text x="298.23" y="-1039.5" transform="scale(1, -1)"
	style="font-family:Helvetica;font-weight:normal;font-style:normal;font-size:50px">0.020 m wiggly CABS</text>
<text x="470.04" y="-11.039" transform="scale(1, -1)"
	style="font-family:Helvetica;font-weight:normal;font-style:normal;font-size:36px">Frequency (GHz)</text>
<text x="96.101" y="-71.258" transform="scale(1, -1)"
	style="font-family:Helvetica;font-weight:normal;font-style:normal;font-size:36px">10.50</text>
<text x="254.24" y="-71.258" transform="scale(1, -1)"
	style="font-family:Helvetica;font-weight:normal;font-style:normal;font-size:36px">10.60</text>
<text x="412.37" y="-71.258" transform="scale(1, -1)"
	style="font-family:Helvetica;font-weight:normal;font-style:normal;font-size:36px">10.70</text>
<text x="570.51" y="-71.258" transform="scale(1, -1)"
	style="font-family:Helvetica;font-weight:normal;font-style:normal;font-size:36px">10.80</text>
<text x="728.65" y="-71.258" transform="scale(1, -1)"
	style="font-family:Helvetica;font-weight:normal;font-style:normal;font-size:36px">10.90</text>
<text x="888.12" y="-71.258" transform="scale(1, -1)"
	style="font-family:Helvetica;font-weight:normal;font-style:normal;font-size:36px">11.00</text>
<path d="M141.14,116.44L141.14,108.44" style="fill:none;stroke:#000000;stroke-width:1.5" />
<path d="M220.21,112.44L220.21,108.44" style="fill:none;stroke:#000000;stroke-width:1.5" />
<path d="M299.28,116.44L299.28,108.44" style="fill:none;stroke:#000000;stroke-width:1.5" />
<path d="M378.35,112.44L378.35,108.44" style="fill:none;stroke:#000000;stroke-width:1.5" />
<path d="M457.42,116.44L457.42,108.44" style="fill:none;stroke:#000000;stroke-width:1.5" />
<path d="M536.48,112.44L536.48,108.44" style="fill:none;stroke:#000000;stroke-width:1.5" />
<path d="M615.55,116.44L615.55,108.44" style="fill:none;stroke:#000000;stroke-width:1.5" />
<path d="M694.62,112.44L694.62,108.44" style="fill:none;stroke:#000000;stroke-width:1.5" />
<path d="M773.69,116.44L773.69,108.44" style="fill:none;stroke:#000000;stroke-width:1.5" />
<path d="M852.76,112.44L852.76,108.44" style="fill:none;stroke:#000000;stroke-width:1.5" />
<path d="M931.83,116.44L931.83,108.44" style="fill:none;stroke:#000000;stroke-width:1.5" />
<path d="M1010.9,112.44L1010.9,108.44" style="fill:none;stroke:#000000;stroke-width:1.5" />
<path d="M141.14,108.44L1075,108.44" style="fill:none;stroke:#000000;stroke-width:1.5" />
<g transform="rotate(90)">
<text x="337.42" y="29.18" transform="scale(1, -1)"
	style="font-family:Helvetica;font-weight:normal;font-style:normal;font-size:36px">Spectral Density (relative)</text>
</g>
<text x="67.848" y="-261.76" transform="scale(1, -1)"
	style="font-family:Helvetica;font-weight:normal;font-style:normal;font-size:36px">0.2</text>
<text x="67.848" y="-418.05" transform="scale(1, -1)"
	style="font-family:Helvetica;font-weight:normal;font-style:normal;font-size:36px">0.4</text>
<text x="67.848" y="-574.34" transform="scale(1, -1)"
	style="font-family:Helvetica;font-weight:normal;font-style:normal;font-size:36px">0.6</text>
<text x="67.848" y="-730.63" transform="scale(1, -1)"
	style="font-family:Helvetica;font-weight:normal;font-style:normal;font-size:36px">0.8</text>
<text x="67.848" y="-886.92" transform="scale(1, -1)"
	style="font-family:Helvetica;font-weight:normal;font-style:normal;font-size:36px">1.0</text>
<path d="M139.89,114.54L135.89,114.54" style="fill:none;stroke:#000000;stroke-width:1.5" />
<path d="M139.89,192.68L135.89,192.68" style="fill:none;stroke:#000000;stroke-width:1.5" />
<path d="M143.89,270.83L135.89,270.83" style="fill:none;stroke:#000000;stroke-width:1.5" />
<path d="M139.89,348.98L135.89,348.98" style="fill:none;stroke:#000000;stroke-width:1.5" />
<path d="M143.89,427.12L135.89,427.12" style="fill:none;stroke:#000000;stroke-width:1.5" />
<path d="M139.89,505.27L135.89,505.27" style="fill:none;stroke:#000000;stroke-width:1.5" />
<path d="M143.89,583.41L135.89,583.41" style="fill:none;stroke:#000000;stroke-width:1.5" />
<path d="M139.89,661.56L135.89,661.56" style="fill:none;stroke:#000000;stroke-width:1.5" />
<path d="M143.89,739.7L135.89,739.7" style="fill:none;stroke:#000000;stroke-width:1.5" />
<path d="M139.89,817.85L135.89,817.85" style="fill:none;stroke:#000000;stroke-width:1.5" />
<path d="M143.89,895.99L135.89,895.99" style="fill:none;stroke:#000000;stroke-width:1.5" />
<path d="M139.89,974.14L135.89,974.14" style="fill:none;stroke:#000000;stroke-width:1.5" />
<path d="M135.89,112.84L135.89,974.14" style="fill:none;stroke:#000000;stroke-width:1.5" />
<path d="M141.14,116.61L141.14,118.6" style="fill:none;stroke:#FF7AB4" />
<path d="M138.64,116.61L143.64,116.61" style="fill:none;stroke:#FF7AB4" />
<path d="M138.64,118.6L143.64,118.6" style="fill:none;stroke:#FF7AB4" />
<path d="M149.06,115.07L149.06,117.65" style="fill:none;stroke:#FF7AB4" />
<path d="M146.56,115.07L151.56,115.07" style="fill:none;stroke:#FF7AB4" />
<path d="M146.56,117.65L151.56,117.65" style="fill:none;stroke:#FF7AB4" />
<path d="M156.97,116.36L156.97,117.42" style="fill:none;stroke:#FF7AB4" />
<path d="M154.47,116.36L159.47,116.36" style="fill:none;stroke:#FF7AB4" />
<path d="M154.47,117.42L159.47,117.42" style="fill:none;stroke:#FF7AB4" />
<path d="M164.89,114.91L164.89,117.22" style="fill:none;stroke:#FF7AB4" />
<path d="M162.39,114.91L167.39,114.91" style="fill:none;stroke:#FF7AB4" />
<path d="M162.39,117.22L167.39,117.22" style="fill:none;stroke:#FF7AB4" />
<path d="M172.8,116.27L172.8,118.66" style="fill:none;stroke:#FF7AB4" />
<path d="M170.3,116.27L175.3,116.27" style="fill:none;stroke:#FF7AB4" />
<path d="M170.3,118.66L175.3,118.66" style="fill:none;stroke:#FF7AB4" />
<path d="M180.71,116.63L180.71,119.4" style="fill:none;stroke:#FF7AB4" />
<path d="M178.21,116.63L183.21,116.63" style="fill:none;stroke:#FF7AB4" />
<path d="M178.21,119.4L183.21,119.4" style="fill:none;stroke:#FF7AB4" />
<path d="M188.63,118.71L188.63,122.2" style="fill:none;stroke:#FF7AB4" />
<path d="M186.13,118.71L191.13,118.71" style="fill:none;stroke:#FF7AB4" />
<path d="M186.13,122.2L191.13,122.2" style="fill:none;stroke:#FF7AB4" />
<path d="M196.54,119.46L196.54,121.58" style="fill:none;stroke:#FF7AB4" />
<path d="M194.04,119.46L199.04,119.46" style="fill:none;stroke:#FF7AB4" />
<path d="M194.04,121.58L199.04,121.58" style="fill:none;stroke:#FF7AB4" />
<path d="M204.46,123.02L204.46,128.07" style="fill:none;stroke:#FF7AB4" />
<path d="M201.96,123.02L206.96,123.02" style="fill:none;stroke:#FF7AB4" />
<path d="M201.96,128.07L206.96,128.07" style="fill:none;stroke:#FF7AB4" />
<path d="M212.37,130.14L212.37,134.94" style="fill:none;stroke:#FF7AB4" />
<path d="M209.87,130.14L214.87,130.14" style="fill:none;stroke:#FF7AB4" />
<path d="M209.87,134.94L214.87,134.94" style="fill:none;stroke:#FF7AB4" />
<path d="M220.28,139.37L220.28,146.28" style="fill:none;stroke:#FF7AB4" />
<path d="M217.78,139.37L222.78,139.37" style="fill:none;stroke:#FF7AB4" />
<path d="M217.78,146.28L222.78,146.28" style="fill:none;stroke:#FF7AB4" />
<path d="M228.2,135.54L228.2,140.69" style="fill:none;stroke:#FF7AB4" />
<path d="M225.7,135.54L230.7,135.54" style="fill:none;stroke:#FF7AB4" />
<path d="M225.7,140.69L230.7,140.69" style="fill:none;stroke:#FF7AB4" />
<path d="M236.11,127.54L236.11,132.18" style="fill:none;stroke:#FF7AB4" />
<path d="M233.61,127.54L238.61,127.54" style="fill:none;stroke:#FF7AB4" />
<path d="M233.61,132.18L238.61,132.18" style="fill:none;stroke:#FF7AB4" />
<path d="M244.03,122.56L244.03,125.48" style="fill:none;stroke:#FF7AB4" />
<path d="M241.53,122.56L246.53,122.56" style="fill:none;stroke:#FF7AB4" />
<path d="M241.53,125.48L246.53,125.48" style="fill:none;stroke:#FF7AB4" />
<path d="M251.94,116.43L251.94,119.61" style="fill:none;stroke:#FF7AB4" />
<path d="M249.44,116.43L254.44,116.43" style="fill:none;stroke:#FF7AB4" />
<path d="M249.44,119.61L254.44,119.61" style="fill:none;stroke:#FF7AB4" />
<path d="M259.85,116.81L259.85,122.66" style="fill:none;stroke:#FF7AB4" />
<path d="M257.35,116.81L262.35,116.81" style="fill:none;stroke:#FF7AB4" />
<path d="M257.35,122.66L262.35,122.66" style="fill:none;stroke:#FF7AB4" />
<path d="M267.77,117.98L267.77,120.08" style="fill:none;stroke:#FF7AB4" />
<path d="M265.27,117.98L270.27,117.98" style="fill:none;stroke:#FF7AB4" />
<path d="M265.27,120.08L270.27,120.08" style="fill:none;stroke:#FF7AB4" />
<path d="M275.68,115.2L275.68,118.69" style="fill:none;stroke:#FF7AB4" />
<path d="M273.18,115.2L278.18,115.2" style="fill:none;stroke:#FF7AB4" />
<path d="M273.18,118.69L278.18,118.69" style="fill:none;stroke:#FF7AB4" />
<path d="M283.6,117.4L283.6,118.89" style="fill:none;stroke:#FF7AB4" />
<path d="M281.1,117.4L286.1,117.4" style="fill:none;stroke:#FF7AB4" />
<path d="M281.1,118.89L286.1,118.89" style="fill:none;stroke:#FF7AB4" />
<path d="M291.51,116.11L291.51,118.83" style="fill:none;stroke:#FF7AB4" />
<path d="M289.01,116.11L294.01,116.11" style="fill:none;stroke:#FF7AB4" />
<path d="M289.01,118.83L294.01,118.83" style="fill:none;stroke:#FF7AB4" />
<path d="M299.43,116.11L299.43,117.44" style="fill:none;stroke:#FF7AB4" />
<path d="M296.93,116.11L301.93,116.11" style="fill:none;stroke:#FF7AB4" />
<path d="M296.93,117.44L301.93,117.44" style="fill:none;stroke:#FF7AB4" />
<path d="M307.34,117.94L307.34,119.7" style="fill:none;stroke:#FF7AB4" />
<path d="M304.84,117.94L309.84,117.94" style="fill:none;stroke:#FF7AB4" />
<path d="M304.84,119.7L309.84,119.7" style="fill:none;stroke:#FF7AB4" />
<path d="M315.25,125.32L315.25,128.45" style="fill:none;stroke:#FF7AB4" />
<path d="M312.75,125.32L317.75,125.32" style="fill:none;stroke:#FF7AB4" />
<path d="M312.75,128.45L317.75,128.45" style="fill:none;stroke:#FF7AB4" />
<path d="M323.17,142.71L323.17,149.66" style="fill:none;stroke:#FF7AB4" />
<path d="M320.67,142.71L325.67,142.71" style="fill:none;stroke:#FF7AB4" />
<path d="M320.67,149.66L325.67,149.66" style="fill:none;stroke:#FF7AB4" />
<path d="M331.08,130.82L331.08,137.75" style="fill:none;stroke:#FF7AB4" />
<path d="M328.58,130.82L333.58,130.82" style="fill:none;stroke:#FF7AB4" />
<path d="M328.58,137.75L333.58,137.75" style="fill:none;stroke:#FF7AB4" />
<path d="M339,120.65L339,123.82" style="fill:none;stroke:#FF7AB4" />
<path d="M336.5,120.65L341.5,120.65" style="fill:none;stroke:#FF7AB4" />
<path d="M336.5,123.82L341.5,123.82" style="fill:none;stroke:#FF7AB4" />
<path d="M346.91,117.04L346.91,118.89" style="fill:none;stroke:#FF7AB4" />
<path d="M344.41,117.04L349.41,117.04" style="fill:none;stroke:#FF7AB4" />
<path d="M344.41,118.89L349.41,118.89" style="fill:none;stroke:#FF7AB4" />
<path d="M354.82,114.26L354.82,116.95" style="fill:none;stroke:#FF7AB4" />
<path d="M352.32,114.26L357.32,114.26" style="fill:none;stroke:#FF7AB4" />
<path d="M352.32,116.95L357.32,116.95" style="fill:none;stroke:#FF7AB4" />
<path d="M362.74,114.9L362.74,118.37" style="fill:none;stroke:#FF7AB4" />
<path d="M360.24,114.9L365.24,114.9" style="fill:none;stroke:#FF7AB4" />
<path d="M360.24,118.37L365.24,118.37" style="fill:none;stroke:#FF7AB4" />
<path d="M370.65,115.65L370.65,121.4" style="fill:none;stroke:#FF7AB4" />
<path d="M368.15,115.65L373.15,115.65" style="fill:none;stroke:#FF7AB4" />
<path d="M368.15,121.4L373.15,121.4" style="fill:none;stroke:#FF7AB4" />
<path d="M378.57,117.18L378.57,118.32" style="fill:none;stroke:#FF7AB4" />
<path d="M376.07,117.18L381.07,117.18" style="fill:none;stroke:#FF7AB4" />
<path d="M376.07,118.32L381.07,118.32" style="fill:none;stroke:#FF7AB4" />
<path d="M386.48,115.8L386.48,119.09" style="fill:none;stroke:#FF7AB4" />
<path d="M383.98,115.8L388.98,115.8" style="fill:none;stroke:#FF7AB4" />
<path d="M383.98,119.09L388.98,119.09" style="fill:none;stroke:#FF7AB4" />
<path d="M394.39,116.57L394.39,119.78" style="fill:none;stroke:#FF7AB4" />
<path d="M391.89,116.57L396.89,116.57" style="fill:none;stroke:#FF7AB4" />
<path d="M391.89,119.78L396.89,119.78" style="fill:none;stroke:#FF7AB4" />
<path d="M402.31,117.71L402.31,120.18" style="fill:none;stroke:#FF7AB4" />
<path d="M399.81,117.71L404.81,117.71" style="fill:none;stroke:#FF7AB4" />
<path d="M399.81,120.18L404.81,120.18" style="fill:none;stroke:#FF7AB4" />
<path d="M410.22,117.02L410.22,118.77" style="fill:none;stroke:#FF7AB4" />
<path d="M407.72,117.02L412.72,117.02" style="fill:none;stroke:#FF7AB4" />
<path d="M407.72,118.77L412.72,118.77" style="fill:none;stroke:#FF7AB4" />
<path d="M418.14,117.27L418.14,122.81" style="fill:none;stroke:#FF7AB4" />
<path d="M415.64,117.27L420.64,117.27" style="fill:none;stroke:#FF7AB4" />
<path d="M415.64,122.81L420.64,122.81" style="fill:none;stroke:#FF7AB4" />
<path d="M426.05,116.84L426.05,122.96" style="fill:none;stroke:#FF7AB4" />
<path d="M423.55,116.84L428.55,116.84" style="fill:none;stroke:#FF7AB4" />
<path d="M423.55,122.96L428.55,122.96" style="fill:none;stroke:#FF7AB4" />
<path d="M433.96,117.79L433.96,121.15" style="fill:none;stroke:#FF7AB4" />
<path d="M431.46,117.79L436.46,117.79" style="fill:none;stroke:#FF7AB4" />
<path d="M431.46,121.15L436.46,121.15" style="fill:none;stroke:#FF7AB4" />
<path d="M441.88,121.26L441.88,124.19" style="fill:none;stroke:#FF7AB4" />
<path d="M439.38,121.26L444.38,121.26" style="fill:none;stroke:#FF7AB4" />
<path d="M439.38,124.19L444.38,124.19" style="fill:none;stroke:#FF7AB4" />
<path d="M449.79,127.6L449.79,132.63" style="fill:none;stroke:#FF7AB4" />
<path d="M447.29,127.6L452.29,127.6" style="fill:none;stroke:#FF7AB4" />
<path d="M447.29,132.63L452.29,132.63" style="fill:none;stroke:#FF7AB4" />
<path d="M457.71,134.26L457.71,137.94" style="fill:none;stroke:#FF7AB4" />
<path d="M455.21,134.26L460.21,134.26" style="fill:none;stroke:#FF7AB4" />
<path d="M455.21,137.94L460.21,137.94" style="fill:none;stroke:#FF7AB4" />
<path d="M465.62,126.26L465.62,137.95" style="fill:none;stroke:#FF7AB4" />
<path d="M463.12,126.26L468.12,126.26" style="fill:none;stroke:#FF7AB4" />
<path d="M463.12,137.95L468.12,137.95" style="fill:none;stroke:#FF7AB4" />
<path d="M473.53,123.87L473.53,140.06" style="fill:none;stroke:#FF7AB4" />
<path d="M471.03,123.87L476.03,123.87" style="fill:none;stroke:#FF7AB4" />
<path d="M471.03,140.06L476.03,140.06" style="fill:none;stroke:#FF7AB4" />
<path d="M481.45,124.4L481.45,139.06" style="fill:none;stroke:#FF7AB4" />
<path d="M478.95,124.4L483.95,124.4" style="fill:none;stroke:#FF7AB4" />
<path d="M478.95,139.06L483.95,139.06" style="fill:none;stroke:#FF7AB4" />
<path d="M489.36,125.7L489.36,131.24" style="fill:none;stroke:#FF7AB4" />
<path d="M486.86,125.7L491.86,125.7" style="fill:none;stroke:#FF7AB4" />
<path d="M486.86,131.24L491.86,131.24" style="fill:none;stroke:#FF7AB4" />
<path d="M497.28,129.14L497.28,138.57" style="fill:none;stroke:#FF7AB4" />
<path d="M494.78,129.14L499.78,129.14" style="fill:none;stroke:#FF7AB4" />
<path d="M494.78,138.57L499.78,138.57" style="fill:none;stroke:#FF7AB4" />
<path d="M505.19,137.78L505.19,147.45" style="fill:none;stroke:#FF7AB4" />
<path d="M502.69,137.78L507.69,137.78" style="fill:none;stroke:#FF7AB4" />
<path d="M502.69,147.45L507.69,147.45" style="fill:none;stroke:#FF7AB4" />
<path d="M513.1,147.83L513.1,157.91" style="fill:none;stroke:#FF7AB4" />
<path d="M510.6,147.83L515.6,147.83" style="fill:none;stroke:#FF7AB4" />
<path d="M510.6,157.91L515.6,157.91" style="fill:none;stroke:#FF7AB4" />
<path d="M521.02,147.9L521.02,162.84" style="fill:none;stroke:#FF7AB4" />
<path d="M518.52,147.9L523.52,147.9" style="fill:none;stroke:#FF7AB4" />
<path d="M518.52,162.84L523.52,162.84" style="fill:none;stroke:#FF7AB4" />
<path d="M528.93,147.17L528.93,159.82" style="fill:none;stroke:#FF7AB4" />
<path d="M526.43,147.17L531.43,147.17" style="fill:none;stroke:#FF7AB4" />
<path d="M526.43,159.82L531.43,159.82" style="fill:none;stroke:#FF7AB4" />
<path d="M536.85,140.66L536.85,153.61" style="fill:none;stroke:#FF7AB4" />
<path d="M534.35,140.66L539.35,140.66" style="fill:none;stroke:#FF7AB4" />
<path d="M534.35,153.61L539.35,153.61" style="fill:none;stroke:#FF7AB4" />
<path d="M544.76,146.23L544.76,160.18" style="fill:none;stroke:#FF7AB4" />
<path d="M542.26,146.23L547.26,146.23" style="fill:none;stroke:#FF7AB4" />
<path d="M542.26,160.18L547.26,160.18" style="fill:none;stroke:#FF7AB4" />
<path d="M552.67,163.27L552.67,180.1" style="fill:none;stroke:#FF7AB4" />
<path d="M550.17,163.27L555.17,163.27" style="fill:none;stroke:#FF7AB4" />
<path d="M550.17,180.1L555.17,180.1" style="fill:none;stroke:#FF7AB4" />
<path d="M560.59,201.06L560.59,207.97" style="fill:none;stroke:#FF7AB4" />
<path d="M558.09,201.06L563.09,201.06" style="fill:none;stroke:#FF7AB4" />
<path d="M558.09,207.97L563.09,207.97" style="fill:none;stroke:#FF7AB4" />
<path d="M568.5,209.42L568.5,222.67" style="fill:none;stroke:#FF7AB4" />
<path d="M566,209.42L571,209.42" style="fill:none;stroke:#FF7AB4" />
<path d="M566,222.67L571,222.67" style="fill:none;stroke:#FF7AB4" />
<path d="M576.42,204.58L576.42,222.61" style="fill:none;stroke:#FF7AB4" />
<path d="M573.92,204.58L578.92,204.58" style="fill:none;stroke:#FF7AB4" />
<path d="M573.92,222.61L578.92,222.61" style="fill:none;stroke:#FF7AB4" />
<path d="M584.33,224.39L584.33,243.61" style="fill:none;stroke:#FF7AB4" />
<path d="M581.83,224.39L586.83,224.39" style="fill:none;stroke:#FF7AB4" />
<path d="M581.83,243.61L586.83,243.61" style="fill:none;stroke:#FF7AB4" />
<path d="M592.24,222.39L592.24,235.94" style="fill:none;stroke:#FF7AB4" />
<path d="M589.74,222.39L594.74,222.39" style="fill:none;stroke:#FF7AB4" />
<path d="M589.74,235.94L594.74,235.94" style="fill:none;stroke:#FF7AB4" />
<path d="M600.16,198.53L600.16,216.52" style="fill:none;stroke:#FF7AB4" />
<path d="M597.66,198.53L602.66,198.53" style="fill:none;stroke:#FF7AB4" />
<path d="M597.66,216.52L602.66,216.52" style="fill:none;stroke:#FF7AB4" />
<path d="M608.07,214L608.07,217.69" style="fill:none;stroke:#FF7AB4" />
<path d="M605.57,214L610.57,214" style="fill:none;stroke:#FF7AB4" />
<path d="M605.57,217.69L610.57,217.69" style="fill:none;stroke:#FF7AB4" />
<path d="M615.99,225.29L615.99,230.11" style="fill:none;stroke:#FF7AB4" />
<path d="M613.49,225.29L618.49,225.29" style="fill:none;stroke:#FF7AB4" />
<path d="M613.49,230.11L618.49,230.11" style="fill:none;stroke:#FF7AB4" />
<path d="M623.9,227.87L623.9,240.49" style="fill:none;stroke:#FF7AB4" />
<path d="M621.4,227.87L626.4,227.87" style="fill:none;stroke:#FF7AB4" />
<path d="M621.4,240.49L626.4,240.49" style="fill:none;stroke:#FF7AB4" />
<path d="M631.81,244.38L631.81,264.94" style="fill:none;stroke:#FF7AB4" />
<path d="M629.31,244.38L634.31,244.38" style="fill:none;stroke:#FF7AB4" />
<path d="M629.31,264.94L634.31,264.94" style="fill:none;stroke:#FF7AB4" />
<path d="M639.73,277.32L639.73,291.21" style="fill:none;stroke:#FF7AB4" />
<path d="M637.23,277.32L642.23,277.32" style="fill:none;stroke:#FF7AB4" />
<path d="M637.23,291.21L642.23,291.21" style="fill:none;stroke:#FF7AB4" />
<path d="M647.64,274.38L647.64,315.27" style="fill:none;stroke:#FF7AB4" />
<path d="M645.14,274.38L650.14,274.38" style="fill:none;stroke:#FF7AB4" />
<path d="M645.14,315.27L650.14,315.27" style="fill:none;stroke:#FF7AB4" />
<path d="M655.56,264.7L655.56,292.69" style="fill:none;stroke:#FF7AB4" />
<path d="M653.06,264.7L658.06,264.7" style="fill:none;stroke:#FF7AB4" />
<path d="M653.06,292.69L658.06,292.69" style="fill:none;stroke:#FF7AB4" />
<path d="M663.47,314.45L663.47,356.07" style="fill:none;stroke:#FF7AB4" />
<path d="M660.97,314.45L665.97,314.45" style="fill:none;stroke:#FF7AB4" />
<path d="M660.97,356.07L665.97,356.07" style="fill:none;stroke:#FF7AB4" />
<path d="M671.38,446.3L671.38,472.58" style="fill:none;stroke:#FF7AB4" />
<path d="M668.88,446.3L673.88,446.3" style="fill:none;stroke:#FF7AB4" />
<path d="M668.88,472.58L673.88,472.58" style="fill:none;stroke:#FF7AB4" />
<path d="M679.3,523.2L679.3,557.04" style="fill:none;stroke:#FF7AB4" />
<path d="M676.8,523.2L681.8,523.2" style="fill:none;stroke:#FF7AB4" />
<path d="M676.8,557.04L681.8,557.04" style="fill:none;stroke:#FF7AB4" />
<path d="M687.21,531.79L687.21,570.14" style="fill:none;stroke:#FF7AB4" />
<path d="M684.71,531.79L689.71,531.79" style="fill:none;stroke:#FF7AB4" />
<path d="M684.71,570.14L689.71,570.14" style="fill:none;stroke:#FF7AB4" />
<path d="M695.13,489.4L695.13,567.12" style="fill:none;stroke:#FF7AB4" />
<path d="M692.63,489.4L697.63,489.4" style="fill:none;stroke:#FF7AB4" />
<path d="M692.63,567.12L697.63,567.12" style="fill:none;stroke:#FF7AB4" />
<path d="M703.04,434.56L703.04,473.67" style="fill:none;stroke:#FF7AB4" />
<path d="M700.54,434.56L705.54,434.56" style="fill:none;stroke:#FF7AB4" />
<path d="M700.54,473.67L705.54,473.67" style="fill:none;stroke:#FF7AB4" />
<path d="M710.95,380.24L710.95,405.75" style="fill:none;stroke:#FF7AB4" />
<path d="M708.45,380.24L713.45,380.24" style="fill:none;stroke:#FF7AB4" />
<path d="M708.45,405.75L713.45,405.75" style="fill:none;stroke:#FF7AB4" />
<path d="M718.87,365.27L718.87,405.53" style="fill:none;stroke:#FF7AB4" />
<path d="M716.37,365.27L721.37,365.27" style="fill:none;stroke:#FF7AB4" />
<path d="M716.37,405.53L721.37,405.53" style="fill:none;stroke:#FF7AB4" />
<path d="M726.78,334.38L726.78,366.57" style="fill:none;stroke:#FF7AB4" />
<path d="M724.28,334.38L729.28,334.38" style="fill:none;stroke:#FF7AB4" />
<path d="M724.28,366.57L729.28,366.57" style="fill:none;stroke:#FF7AB4" />
<path d="M734.7,321.93L734.7,329.15" style="fill:none;stroke:#FF7AB4" />
<path d="M732.2,321.93L737.2,321.93" style="fill:none;stroke:#FF7AB4" />
<path d="M732.2,329.15L737.2,329.15" style="fill:none;stroke:#FF7AB4" />
<path d="M742.61,321.45L742.61,326.24" style="fill:none;stroke:#FF7AB4" />
<path d="M740.11,321.45L745.11,321.45" style="fill:none;stroke:#FF7AB4" />
<path d="M740.11,326.24L745.11,326.24" style="fill:none;stroke:#FF7AB4" />
<path d="M750.52,279.51L750.52,308.23" style="fill:none;stroke:#FF7AB4" />
<path d="M748.02,279.51L753.02,279.51" style="fill:none;stroke:#FF7AB4" />
<path d="M748.02,308.23L753.02,308.23" style="fill:none;stroke:#FF7AB4" />
<path d="M758.44,203.81L758.44,222.42" style="fill:none;stroke:#FF7AB4" />
<path d="M755.94,203.81L760.94,203.81" style="fill:none;stroke:#FF7AB4" />
<path d="M755.94,222.42L760.94,222.42" style="fill:none;stroke:#FF7AB4" />
<path d="M766.35,154.71L766.35,158.55" style="fill:none;stroke:#FF7AB4" />
<path d="M763.85,154.71L768.85,154.71" style="fill:none;stroke:#FF7AB4" />
<path d="M763.85,158.55L768.85,158.55" style="fill:none;stroke:#FF7AB4" />
<path d="M774.27,168.96L774.27,182.49" style="fill:none;stroke:#FF7AB4" />
<path d="M771.77,168.96L776.77,168.96" style="fill:none;stroke:#FF7AB4" />
<path d="M771.77,182.49L776.77,182.49" style="fill:none;stroke:#FF7AB4" />
<path d="M782.18,155.67L782.18,168.63" style="fill:none;stroke:#FF7AB4" />
<path d="M779.68,155.67L784.68,155.67" style="fill:none;stroke:#FF7AB4" />
<path d="M779.68,168.63L784.68,168.63" style="fill:none;stroke:#FF7AB4" />
<path d="M790.09,146.36L790.09,162.1" style="fill:none;stroke:#FF7AB4" />
<path d="M787.59,146.36L792.59,146.36" style="fill:none;stroke:#FF7AB4" />
<path d="M787.59,162.1L792.59,162.1" style="fill:none;stroke:#FF7AB4" />
<path d="M798.01,163.09L798.01,177.16" style="fill:none;stroke:#FF7AB4" />
<path d="M795.51,163.09L800.51,163.09" style="fill:none;stroke:#FF7AB4" />
<path d="M795.51,177.16L800.51,177.16" style="fill:none;stroke:#FF7AB4" />
<path d="M805.92,156.15L805.92,170.22" style="fill:none;stroke:#FF7AB4" />
<path d="M803.42,156.15L808.42,156.15" style="fill:none;stroke:#FF7AB4" />
<path d="M803.42,170.22L808.42,170.22" style="fill:none;stroke:#FF7AB4" />
<path d="M813.84,143.74L813.84,152.36" style="fill:none;stroke:#FF7AB4" />
<path d="M811.34,143.74L816.34,143.74" style="fill:none;stroke:#FF7AB4" />
<path d="M811.34,152.36L816.34,152.36" style="fill:none;stroke:#FF7AB4" />
<path d="M821.75,138.55L821.75,143.78" style="fill:none;stroke:#FF7AB4" />
<path d="M819.25,138.55L824.25,138.55" style="fill:none;stroke:#FF7AB4" />
<path d="M819.25,143.78L824.25,143.78" style="fill:none;stroke:#FF7AB4" />
<path d="M829.67,133.31L829.67,140.43" style="fill:none;stroke:#FF7AB4" />
<path d="M827.17,133.31L832.17,133.31" style="fill:none;stroke:#FF7AB4" />
<path d="M827.17,140.43L832.17,140.43" style="fill:none;stroke:#FF7AB4" />
<path d="M837.58,134.45L837.58,140.92" style="fill:none;stroke:#FF7AB4" />
<path d="M835.08,134.45L840.08,134.45" style="fill:none;stroke:#FF7AB4" />
<path d="M835.08,140.92L840.08,140.92" style="fill:none;stroke:#FF7AB4" />
<path d="M845.49,135.04L845.49,141.76" style="fill:none;stroke:#FF7AB4" />
<path d="M842.99,135.04L847.99,135.04" style="fill:none;stroke:#FF7AB4" />
<path d="M842.99,141.76L847.99,141.76" style="fill:none;stroke:#FF7AB4" />
<path d="M853.41,131.44L853.41,140.38" style="fill:none;stroke:#FF7AB4" />
<path d="M850.91,131.44L855.91,131.44" style="fill:none;stroke:#FF7AB4" />
<path d="M850.91,140.38L855.91,140.38" style="fill:none;stroke:#FF7AB4" />
<path d="M861.32,127.45L861.32,129.69" style="fill:none;stroke:#FF7AB4" />
<path d="M858.82,127.45L863.82,127.45" style="fill:none;stroke:#FF7AB4" />
<path d="M858.82,129.69L863.82,129.69" style="fill:none;stroke:#FF7AB4" />
<path d="M869.24,121.56L869.24,124.13" style="fill:none;stroke:#FF7AB4" />
<path d="M866.74,121.56L871.74,121.56" style="fill:none;stroke:#FF7AB4" />
<path d="M866.74,124.13L871.74,124.13" style="fill:none;stroke:#FF7AB4" />
<path d="M877.15,116.65L877.15,119.37" style="fill:none;stroke:#FF7AB4" />
<path d="M874.65,116.65L879.65,116.65" style="fill:none;stroke:#FF7AB4" />
<path d="M874.65,119.37L879.65,119.37" style="fill:none;stroke:#FF7AB4" />
<path d="M885.06,117.1L885.06,120.06" style="fill:none;stroke:#FF7AB4" />
<path d="M882.56,117.1L887.56,117.1" style="fill:none;stroke:#FF7AB4" />
<path d="M882.56,120.06L887.56,120.06" style="fill:none;stroke:#FF7AB4" />
<path d="M892.98,115.53L892.98,117.65" style="fill:none;stroke:#FF7AB4" />
<path d="M890.48,115.53L895.48,115.53" style="fill:none;stroke:#FF7AB4" />
<path d="M890.48,117.65L895.48,117.65" style="fill:none;stroke:#FF7AB4" />
<path d="M900.89,119.4L900.89,121.5" style="fill:none;stroke:#FF7AB4" />
<path d="M898.39,119.4L903.39,119.4" style="fill:none;stroke:#FF7AB4" />
<path d="M898.39,121.5L903.39,121.5" style="fill:none;stroke:#FF7AB4" />
<path d="M908.81,117.82L908.81,120.08" style="fill:none;stroke:#FF7AB4" />
<path d="M906.31,117.82L911.31,117.82" style="fill:none;stroke:#FF7AB4" />
<path d="M906.31,120.08L911.31,120.08" style="fill:none;stroke:#FF7AB4" />
<path d="M916.72,118.01L916.72,120.41" style="fill:none;stroke:#FF7AB4" />
<path d="M914.22,118.01L919.22,118.01" style="fill:none;stroke:#FF7AB4" />
<path d="M914.22,120.41L919.22,120.41" style="fill:none;stroke:#FF7AB4" />
<path d="M924.63,117.3L924.63,118.52" style="fill:none;stroke:#FF7AB4" />
<path d="M922.13,117.3L927.13,117.3" style="fill:none;stroke:#FF7AB4" />
<path d="M922.13,118.52L927.13,118.52" style="fill:none;stroke:#FF7AB4" />
<path d="M932.55,116.09L932.55,116.74" style="fill:none;stroke:#FF7AB4" />
<path d="M930.05,116.09L935.05,116.09" style="fill:none;stroke:#FF7AB4" />
<path d="M930.05,116.74L935.05,116.74" style="fill:none;stroke:#FF7AB4" />
<path d="M940.46,115.82L940.46,118.5" style="fill:none;stroke:#FF7AB4" />
<path d="M937.96,115.82L942.96,115.82" style="fill:none;stroke:#FF7AB4" />
<path d="M937.96,118.5L942.96,118.5" style="fill:none;stroke:#FF7AB4" />
<path d="M948.38,115.77L948.38,118.06" style="fill:none;stroke:#FF7AB4" />
<path d="M945.88,115.77L950.88,115.77" style="fill:none;stroke:#FF7AB4" />
<path d="M945.88,118.06L950.88,118.06" style="fill:none;stroke:#FF7AB4" />
<path d="M956.29,115.52L956.29,117.92" style="fill:none;stroke:#FF7AB4" />
<path d="M953.79,115.52L958.79,115.52" style="fill:none;stroke:#FF7AB4" />
<path d="M953.79,117.92L958.79,117.92" style="fill:none;stroke:#FF7AB4" />
<path d="M964.2,117.38L964.2,119.26" style="fill:none;stroke:#FF7AB4" />
<path d="M961.7,117.38L966.7,117.38" style="fill:none;stroke:#FF7AB4" />
<path d="M961.7,119.26L966.7,119.26" style="fill:none;stroke:#FF7AB4" />
<path d="M972.12,117.78L972.12,119.81" style="fill:none;stroke:#FF7AB4" />
<path d="M969.62,117.78L974.62,117.78" style="fill:none;stroke:#FF7AB4" />
<path d="M969.62,119.81L974.62,119.81" style="fill:none;stroke:#FF7AB4" />
<path d="M980.03,116.2L980.03,118.57" style="fill:none;stroke:#FF7AB4" />
<path d="M977.53,116.2L982.53,116.2" style="fill:none;stroke:#FF7AB4" />
<path d="M977.53,118.57L982.53,118.57" style="fill:none;stroke:#FF7AB4" />
<path d="M987.95,118.67L987.95,120.51" style="fill:none;stroke:#FF7AB4" />
<path d="M985.45,118.67L990.45,118.67" style="fill:none;stroke:#FF7AB4" />
<path d="M985.45,120.51L990.45,120.51" style="fill:none;stroke:#FF7AB4" />
<path d="M995.86,115.88L995.86,119.56" style="fill:none;stroke:#FF7AB4" />
<path d="M993.36,115.88L998.36,115.88" style="fill:none;stroke:#FF7AB4" />
<path d="M993.36,119.56L998.36,119.56" style="fill:none;stroke:#FF7AB4" />
<path d="M1003.8,117.04L1003.8,118.82" style="fill:none;stroke:#FF7AB4" />
<path d="M1001.3,117.04L1006.3,117.04" style="fill:none;stroke:#FF7AB4" />
<path d="M1001.3,118.82L1006.3,118.82" style="fill:none;stroke:#FF7AB4" />
<path d="M1011.7,116.46L1011.7,117.35" style="fill:none;stroke:#FF7AB4" />
<path d="M1009.2,116.46L1014.2,116.46" style="fill:none;stroke:#FF7AB4" />
<path d="M1009.2,117.35L1014.2,117.35" style="fill:none;stroke:#FF7AB4" />
<path d="M1019.6,113.68L1019.6,116.24" style="fill:none;stroke:#FF7AB4" />
<path d="M1017.1,113.68L1022.1,113.68" style="fill:none;stroke:#FF7AB4" />
<path d="M1017.1,116.24L1022.1,116.24" style="fill:none;stroke:#FF7AB4" />
<path d="M1027.5,114.08L1027.5,115.27" style="fill:none;stroke:#FF7AB4" />
<path d="M1025,114.08L1030,114.08" style="fill:none;stroke:#FF7AB4" />
<path d="M1025,115.27L1030,115.27" style="fill:none;stroke:#FF7AB4" />
<path d="M1035.4,116.87L1035.4,118.68" style="fill:none;stroke:#FF7AB4" />
<path d="M1032.9,116.87L1037.9,116.87" style="fill:none;stroke:#FF7AB4" />
<path d="M1032.9,118.68L1037.9,118.68" style="fill:none;stroke:#FF7AB4" />
<path d="M1043.3,115.94L1043.3,117.3" style="fill:none;stroke:#FF7AB4" />
<path d="M1040.8,115.94L1045.8,115.94" style="fill:none;stroke:#FF7AB4" />
<path d="M1040.8,117.3L1045.8,117.3" style="fill:none;stroke:#FF7AB4" />
<path d="M1051.3,118.37L1051.3,120.09" style="fill:none;stroke:#FF7AB4" />
<path d="M1048.8,118.37L1053.8,118.37" style="fill:none;stroke:#FF7AB4" />
<path d="M1048.8,120.09L1053.8,120.09" style="fill:none;stroke:#FF7AB4" />
<path d="M1059.2,123.57L1059.2,126.39" style="fill:none;stroke:#FF7AB4" />
<path d="M1056.7,123.57L1061.7,123.57" style="fill:none;stroke:#FF7AB4" />
<path d="M1056.7,126.39L1061.7,126.39" style="fill:none;stroke:#FF7AB4" />
<path d="M1067.1,126.41L1067.1,130.59" style="fill:none;stroke:#FF7AB4" />
<path d="M1064.6,126.41L1069.6,126.41" style="fill:none;stroke:#FF7AB4" />
<path d="M1064.6,130.59L1069.6,130.59" style="fill:none;stroke:#FF7AB4" />
<path d="M1075,126.08L1075,130.22" style="fill:none;stroke:#FF7AB4" />
<path d="M1072.5,126.08L1077.5,126.08" style="fill:none;stroke:#FF7AB4" />
<path d="M1072.5,130.22L1077.5,130.22" style="fill:none;stroke:#FF7AB4" />
<path d="M146.14,117.6A5,5 0 1 1 136.14,117.6A5,5 0 1 1 146.14,117.6Z" style="fill:#FF7AB4" />
<path d="M154.06,116.36A5,5 0 1 1 144.06,116.36A5,5 0 1 1 154.06,116.36Z" style="fill:#FF7AB4" />
<path d="M161.97,116.89A5,5 0 1 1 151.97,116.89A5,5 0 1 1 161.97,116.89Z" style="fill:#FF7AB4" />
<path d="M169.89,116.06A5,5 0 1 1 159.89,116.06A5,5 0 1 1 169.89,116.06Z" style="fill:#FF7AB4" />
<path d="M177.8,117.46A5,5 0 1 1 167.8,117.46A5,5 0 1 1 177.8,117.46Z" style="fill:#FF7AB4" />
<path d="M185.71,118.02A5,5 0 1 1 175.71,118.02A5,5 0 1 1 185.71,118.02Z" style="fill:#FF7AB4" />
<path d="M193.63,120.45A5,5 0 1 1 183.63,120.45A5,5 0 1 1 193.63,120.45Z" style="fill:#FF7AB4" />
<path d="M201.54,120.52A5,5 0 1 1 191.54,120.52A5,5 0 1 1 201.54,120.52Z" style="fill:#FF7AB4" />
<path d="M209.46,125.55A5,5 0 1 1 199.46,125.55A5,5 0 1 1 209.46,125.55Z" style="fill:#FF7AB4" />
<path d="M217.37,132.54A5,5 0 1 1 207.37,132.54A5,5 0 1 1 217.37,132.54Z" style="fill:#FF7AB4" />
<path d="M225.28,142.83A5,5 0 1 1 215.28,142.83A5,5 0 1 1 225.28,142.83Z" style="fill:#FF7AB4" />
<path d="M233.2,138.11A5,5 0 1 1 223.2,138.11A5,5 0 1 1 233.2,138.11Z" style="fill:#FF7AB4" />
<path d="M241.11,129.86A5,5 0 1 1 231.11,129.86A5,5 0 1 1 241.11,129.86Z" style="fill:#FF7AB4" />
<path d="M249.03,124.02A5,5 0 1 1 239.03,124.02A5,5 0 1 1 249.03,124.02Z" style="fill:#FF7AB4" />
<path d="M256.94,118.02A5,5 0 1 1 246.94,118.02A5,5 0 1 1 256.94,118.02Z" style="fill:#FF7AB4" />
<path d="M264.85,119.73A5,5 0 1 1 254.85,119.73A5,5 0 1 1 264.85,119.73Z" style="fill:#FF7AB4" />
<path d="M272.77,119.03A5,5 0 1 1 262.77,119.03A5,5 0 1 1 272.77,119.03Z" style="fill:#FF7AB4" />
<path d="M280.68,116.95A5,5 0 1 1 270.68,116.95A5,5 0 1 1 280.68,116.95Z" style="fill:#FF7AB4" />
<path d="M288.6,118.14A5,5 0 1 1 278.6,118.14A5,5 0 1 1 288.6,118.14Z" style="fill:#FF7AB4" />
<path d="M296.51,117.47A5,5 0 1 1 286.51,117.47A5,5 0 1 1 296.51,117.47Z" style="fill:#FF7AB4" />
<path d="M304.43,116.77A5,5 0 1 1 294.43,116.77A5,5 0 1 1 304.43,116.77Z" style="fill:#FF7AB4" />
<path d="M312.34,118.82A5,5 0 1 1 302.34,118.82A5,5 0 1 1 312.34,118.82Z" style="fill:#FF7AB4" />
<path d="M320.25,126.89A5,5 0 1 1 310.25,126.89A5,5 0 1 1 320.25,126.89Z" style="fill:#FF7AB4" />
<path d="M328.17,146.18A5,5 0 1 1 318.17,146.18A5,5 0 1 1 328.17,146.18Z" style="fill:#FF7AB4" />
<path d="M336.08,134.28A5,5 0 1 1 326.08,134.28A5,5 0 1 1 336.08,134.28Z" style="fill:#FF7AB4" />
<path d="M344,122.24A5,5 0 1 1 334,122.24A5,5 0 1 1 344,122.24Z" style="fill:#FF7AB4" />
<path d="M351.91,117.96A5,5 0 1 1 341.91,117.96A5,5 0 1 1 351.91,117.96Z" style="fill:#FF7AB4" />
<path d="M359.82,115.61A5,5 0 1 1 349.82,115.61A5,5 0 1 1 359.82,115.61Z" style="fill:#FF7AB4" />
<path d="M367.74,116.64A5,5 0 1 1 357.74,116.64A5,5 0 1 1 367.74,116.64Z" style="fill:#FF7AB4" />
<path d="M375.65,118.53A5,5 0 1 1 365.65,118.53A5,5 0 1 1 375.65,118.53Z" style="fill:#FF7AB4" />
<path d="M383.57,117.75A5,5 0 1 1 373.57,117.75A5,5 0 1 1 383.57,117.75Z" style="fill:#FF7AB4" />
<path d="M391.48,117.45A5,5 0 1 1 381.48,117.45A5,5 0 1 1 391.48,117.45Z" style="fill:#FF7AB4" />
<path d="M399.39,118.18A5,5 0 1 1 389.39,118.18A5,5 0 1 1 399.39,118.18Z" style="fill:#FF7AB4" />
<path d="M407.31,118.94A5,5 0 1 1 397.31,118.94A5,5 0 1 1 407.31,118.94Z" style="fill:#FF7AB4" />
<path d="M415.22,117.9A5,5 0 1 1 405.22,117.9A5,5 0 1 1 415.22,117.9Z" style="fill:#FF7AB4" />
<path d="M423.14,120.04A5,5 0 1 1 413.14,120.04A5,5 0 1 1 423.14,120.04Z" style="fill:#FF7AB4" />
<path d="M431.05,119.9A5,5 0 1 1 421.05,119.9A5,5 0 1 1 431.05,119.9Z" style="fill:#FF7AB4" />
<path d="M438.96,119.47A5,5 0 1 1 428.96,119.47A5,5 0 1 1 438.96,119.47Z" style="fill:#FF7AB4" />
<path d="M446.88,122.72A5,5 0 1 1 436.88,122.72A5,5 0 1 1 446.88,122.72Z" style="fill:#FF7AB4" />
<path d="M454.79,130.11A5,5 0 1 1 444.79,130.11A5,5 0 1 1 454.79,130.11Z" style="fill:#FF7AB4" />
<path d="M462.71,136.1A5,5 0 1 1 452.71,136.1A5,5 0 1 1 462.71,136.1Z" style="fill:#FF7AB4" />
<path d="M470.62,132.11A5,5 0 1 1 460.62,132.11A5,5 0 1 1 470.62,132.11Z" style="fill:#FF7AB4" />
<path d="M478.53,131.96A5,5 0 1 1 468.53,131.96A5,5 0 1 1 478.53,131.96Z" style="fill:#FF7AB4" />
<path d="M486.45,131.73A5,5 0 1 1 476.45,131.73A5,5 0 1 1 486.45,131.73Z" style="fill:#FF7AB4" />
<path d="M494.36,128.47A5,5 0 1 1 484.36,128.47A5,5 0 1 1 494.36,128.47Z" style="fill:#FF7AB4" />
<path d="M502.28,133.86A5,5 0 1 1 492.28,133.86A5,5 0 1 1 502.28,133.86Z" style="fill:#FF7AB4" />
<path d="M510.19,142.61A5,5 0 1 1 500.19,142.61A5,5 0 1 1 510.19,142.61Z" style="fill:#FF7AB4" />
<path d="M518.1,152.87A5,5 0 1 1 508.1,152.87A5,5 0 1 1 518.1,152.87Z" style="fill:#FF7AB4" />
<path d="M526.02,155.37A5,5 0 1 1 516.02,155.37A5,5 0 1 1 526.02,155.37Z" style="fill:#FF7AB4" />
<path d="M533.93,153.5A5,5 0 1 1 523.93,153.5A5,5 0 1 1 533.93,153.5Z" style="fill:#FF7AB4" />
<path d="M541.85,147.14A5,5 0 1 1 531.85,147.14A5,5 0 1 1 541.85,147.14Z" style="fill:#FF7AB4" />
<path d="M549.76,153.2A5,5 0 1 1 539.76,153.2A5,5 0 1 1 549.76,153.2Z" style="fill:#FF7AB4" />
<path d="M557.67,171.68A5,5 0 1 1 547.67,171.68A5,5 0 1 1 557.67,171.68Z" style="fill:#FF7AB4" />
<path d="M565.59,204.51A5,5 0 1 1 555.59,204.51A5,5 0 1 1 565.59,204.51Z" style="fill:#FF7AB4" />
<path d="M573.5,216.05A5,5 0 1 1 563.5,216.05A5,5 0 1 1 573.5,216.05Z" style="fill:#FF7AB4" />
<path d="M581.42,213.6A5,5 0 1 1 571.42,213.6A5,5 0 1 1 581.42,213.6Z" style="fill:#FF7AB4" />
<path d="M589.33,234A5,5 0 1 1 579.33,234A5,5 0 1 1 589.33,234Z" style="fill:#FF7AB4" />
<path d="M597.24,229.17A5,5 0 1 1 587.24,229.17A5,5 0 1 1 597.24,229.17Z" style="fill:#FF7AB4" />
<path d="M605.16,207.53A5,5 0 1 1 595.16,207.53A5,5 0 1 1 605.16,207.53Z" style="fill:#FF7AB4" />
<path d="M613.07,215.85A5,5 0 1 1 603.07,215.85A5,5 0 1 1 613.07,215.85Z" style="fill:#FF7AB4" />
<path d="M620.99,227.7A5,5 0 1 1 610.99,227.7A5,5 0 1 1 620.99,227.7Z" style="fill:#FF7AB4" />
<path d="M628.9,234.18A5,5 0 1 1 618.9,234.18A5,5 0 1 1 628.9,234.18Z" style="fill:#FF7AB4" />
<path d="M636.81,254.66A5,5 0 1 1 626.81,254.66A5,5 0 1 1 636.81,254.66Z" style="fill:#FF7AB4" />
<path d="M644.73,284.27A5,5 0 1 1 634.73,284.27A5,5 0 1 1 644.73,284.27Z" style="fill:#FF7AB4" />
<path d="M652.64,294.82A5,5 0 1 1 642.64,294.82A5,5 0 1 1 652.64,294.82Z" style="fill:#FF7AB4" />
<path d="M660.56,278.7A5,5 0 1 1 650.56,278.7A5,5 0 1 1 660.56,278.7Z" style="fill:#FF7AB4" />
<path d="M668.47,335.26A5,5 0 1 1 658.47,335.26A5,5 0 1 1 668.47,335.26Z" style="fill:#FF7AB4" />
<path d="M676.38,459.44A5,5 0 1 1 666.38,459.44A5,5 0 1 1 676.38,459.44Z" style="fill:#FF7AB4" />
<path d="M684.3,540.12A5,5 0 1 1 674.3,540.12A5,5 0 1 1 684.3,540.12Z" style="fill:#FF7AB4" />
<path d="M692.21,550.96A5,5 0 1 1 682.21,550.96A5,5 0 1 1 692.21,550.96Z" style="fill:#FF7AB4" />
<path d="M700.13,528.26A5,5 0 1 1 690.13,528.26A5,5 0 1 1 700.13,528.26Z" style="fill:#FF7AB4" />
<path d="M708.04,454.11A5,5 0 1 1 698.04,454.11A5,5 0 1 1 708.04,454.11Z" style="fill:#FF7AB4" />
<path d="M715.95,393A5,5 0 1 1 705.95,393A5,5 0 1 1 715.95,393Z" style="fill:#FF7AB4" />
<path d="M723.87,385.4A5,5 0 1 1 713.87,385.4A5,5 0 1 1 723.87,385.4Z" style="fill:#FF7AB4" />
<path d="M731.78,350.48A5,5 0 1 1 721.78,350.48A5,5 0 1 1 731.78,350.48Z" style="fill:#FF7AB4" />
<path d="M739.7,325.54A5,5 0 1 1 729.7,325.54A5,5 0 1 1 739.7,325.54Z" style="fill:#FF7AB4" />
<path d="M747.61,323.85A5,5 0 1 1 737.61,323.85A5,5 0 1 1 747.61,323.85Z" style="fill:#FF7AB4" />
<path d="M755.52,293.87A5,5 0 1 1 745.52,293.87A5,5 0 1 1 755.52,293.87Z" style="fill:#FF7AB4" />
<path d="M763.44,213.12A5,5 0 1 1 753.44,213.12A5,5 0 1 1 763.44,213.12Z" style="fill:#FF7AB4" />
<path d="M771.35,156.63A5,5 0 1 1 761.35,156.63A5,5 0 1 1 771.35,156.63Z" style="fill:#FF7AB4" />
<path d="M779.27,175.73A5,5 0 1 1 769.27,175.73A5,5 0 1 1 779.27,175.73Z" style="fill:#FF7AB4" />
<path d="M787.18,162.15A5,5 0 1 1 777.18,162.15A5,5 0 1 1 787.18,162.15Z" style="fill:#FF7AB4" />
<path d="M795.09,154.23A5,5 0 1 1 785.09,154.23A5,5 0 1 1 795.09,154.23Z" style="fill:#FF7AB4" />
<path d="M803.01,170.12A5,5 0 1 1 793.01,170.12A5,5 0 1 1 803.01,170.12Z" style="fill:#FF7AB4" />
<path d="M810.92,163.18A5,5 0 1 1 800.92,163.18A5,5 0 1 1 810.92,163.18Z" style="fill:#FF7AB4" />
<path d="M818.84,148.05A5,5 0 1 1 808.84,148.05A5,5 0 1 1 818.84,148.05Z" style="fill:#FF7AB4" />
<path d="M826.75,141.16A5,5 0 1 1 816.75,141.16A5,5 0 1 1 826.75,141.16Z" style="fill:#FF7AB4" />
<path d="M834.67,136.87A5,5 0 1 1 824.67,136.87A5,5 0 1 1 834.67,136.87Z" style="fill:#FF7AB4" />
<path d="M842.58,137.68A5,5 0 1 1 832.58,137.68A5,5 0 1 1 842.58,137.68Z" style="fill:#FF7AB4" />
<path d="M850.49,138.4A5,5 0 1 1 840.49,138.4A5,5 0 1 1 850.49,138.4Z" style="fill:#FF7AB4" />
<path d="M858.41,135.91A5,5 0 1 1 848.41,135.91A5,5 0 1 1 858.41,135.91Z" style="fill:#FF7AB4" />
<path d="M866.32,128.57A5,5 0 1 1 856.32,128.57A5,5 0 1 1 866.32,128.57Z" style="fill:#FF7AB4" />
<path d="M874.24,122.84A5,5 0 1 1 864.24,122.84A5,5 0 1 1 874.24,122.84Z" style="fill:#FF7AB4" />
<path d="M882.15,118.01A5,5 0 1 1 872.15,118.01A5,5 0 1 1 882.15,118.01Z" style="fill:#FF7AB4" />
<path d="M890.06,118.58A5,5 0 1 1 880.06,118.58A5,5 0 1 1 890.06,118.58Z" style="fill:#FF7AB4" />
<path d="M897.98,116.59A5,5 0 1 1 887.98,116.59A5,5 0 1 1 897.98,116.59Z" style="fill:#FF7AB4" />
<path d="M905.89,120.45A5,5 0 1 1 895.89,120.45A5,5 0 1 1 905.89,120.45Z" style="fill:#FF7AB4" />
<path d="M913.81,118.95A5,5 0 1 1 903.81,118.95A5,5 0 1 1 913.81,118.95Z" style="fill:#FF7AB4" />
<path d="M921.72,119.21A5,5 0 1 1 911.72,119.21A5,5 0 1 1 921.72,119.21Z" style="fill:#FF7AB4" />
<path d="M929.63,117.91A5,5 0 1 1 919.63,117.91A5,5 0 1 1 929.63,117.91Z" style="fill:#FF7AB4" />
<path d="M937.55,116.41A5,5 0 1 1 927.55,116.41A5,5 0 1 1 937.55,116.41Z" style="fill:#FF7AB4" />
<path d="M945.46,117.16A5,5 0 1 1 935.46,117.16A5,5 0 1 1 945.46,117.16Z" style="fill:#FF7AB4" />
<path d="M953.38,116.92A5,5 0 1 1 943.38,116.92A5,5 0 1 1 953.38,116.92Z" style="fill:#FF7AB4" />
<path d="M961.29,116.72A5,5 0 1 1 951.29,116.72A5,5 0 1 1 961.29,116.72Z" style="fill:#FF7AB4" />
<path d="M969.2,118.32A5,5 0 1 1 959.2,118.32A5,5 0 1 1 969.2,118.32Z" style="fill:#FF7AB4" />
<path d="M977.12,118.8A5,5 0 1 1 967.12,118.8A5,5 0 1 1 977.12,118.8Z" style="fill:#FF7AB4" />
<path d="M985.03,117.38A5,5 0 1 1 975.03,117.38A5,5 0 1 1 985.03,117.38Z" style="fill:#FF7AB4" />
<path d="M992.95,119.59A5,5 0 1 1 982.95,119.59A5,5 0 1 1 992.95,119.59Z" style="fill:#FF7AB4" />
<path d="M1000.9,117.72A5,5 0 1 1 990.86,117.72A5,5 0 1 1 1000.9,117.72Z" style="fill:#FF7AB4" />
<path d="M1008.8,117.93A5,5 0 1 1 998.77,117.93A5,5 0 1 1 1008.8,117.93Z" style="fill:#FF7AB4" />
<path d="M1016.7,116.9A5,5 0 1 1 1006.7,116.9A5,5 0 1 1 1016.7,116.9Z" style="fill:#FF7AB4" />
<path d="M1024.6,114.96A5,5 0 1 1 1014.6,114.96A5,5 0 1 1 1024.6,114.96Z" style="fill:#FF7AB4" />
<path d="M1032.5,114.68A5,5 0 1 1 1022.5,114.68A5,5 0 1 1 1032.5,114.68Z" style="fill:#FF7AB4" />
<path d="M1040.4,117.78A5,5 0 1 1 1030.4,117.78A5,5 0 1 1 1040.4,117.78Z" style="fill:#FF7AB4" />
<path d="M1048.3,116.62A5,5 0 1 1 1038.3,116.62A5,5 0 1 1 1048.3,116.62Z" style="fill:#FF7AB4" />
<path d="M1056.3,119.23A5,5 0 1 1 1046.3,119.23A5,5 0 1 1 1056.3,119.23Z" style="fill:#FF7AB4" />
<path d="M1064.2,124.98A5,5 0 1 1 1054.2,124.98A5,5 0 1 1 1064.2,124.98Z" style="fill:#FF7AB4" />
<path d="M1072.1,128.5A5,5 0 1 1 1062.1,128.5A5,5 0 1 1 1072.1,128.5Z" style="fill:#FF7AB4" />
<path d="M1080,128.15A5,5 0 1 1 1070,128.15A5,5 0 1 1 1080,128.15Z" style="fill:#FF7AB4" />
<path d="M141.14,974.14L1075,974.14" style="fill:none;stroke:#000000" />
<path d="M1075,114.54L1075,974.14" style="fill:none;stroke:#000000" />
<path d="M141.14,116.04L141.14,117.96" style="fill:none;stroke:#7A9CFF" />
<path d="M138.64,116.04L143.64,116.04" style="fill:none;stroke:#7A9CFF" />
<path d="M138.64,117.96L143.64,117.96" style="fill:none;stroke:#7A9CFF" />
<path d="M149.06,115.39L149.06,116.99" style="fill:none;stroke:#7A9CFF" />
<path d="M146.56,115.39L151.56,115.39" style="fill:none;stroke:#7A9CFF" />
<path d="M146.56,116.99L151.56,116.99" style="fill:none;stroke:#7A9CFF" />
<path d="M156.97,114.54L156.97,117.73" style="fill:none;stroke:#7A9CFF" />
<path d="M154.47,114.54L159.47,114.54" style="fill:none;stroke:#7A9CFF" />
<path d="M154.47,117.73L159.47,117.73" style="fill:none;stroke:#7A9CFF" />
<path d="M164.89,115.75L164.89,118.05" style="fill:none;stroke:#7A9CFF" />
<path d="M162.39,115.75L167.39,115.75" style="fill:none;stroke:#7A9CFF" />
<path d="M162.39,118.05L167.39,118.05" style="fill:none;stroke:#7A9CFF" />
<path d="M172.8,114.94L172.8,117.65" style="fill:none;stroke:#7A9CFF" />
<path d="M170.3,114.94L175.3,114.94" style="fill:none;stroke:#7A9CFF" />
<path d="M170.3,117.65L175.3,117.65" style="fill:none;stroke:#7A9CFF" />
<path d="M180.71,116.78L180.71,118.82" style="fill:none;stroke:#7A9CFF" />
<path d="M178.21,116.78L183.21,116.78" style="fill:none;stroke:#7A9CFF" />
<path d="M178.21,118.82L183.21,118.82" style="fill:none;stroke:#7A9CFF" />
<path d="M188.63,118.01L188.63,122.68" style="fill:none;stroke:#7A9CFF" />
<path d="M186.13,118.01L191.13,118.01" style="fill:none;stroke:#7A9CFF" />
<path d="M186.13,122.68L191.13,122.68" style="fill:none;stroke:#7A9CFF" />
<path d="M196.54,122.67L196.54,124.91" style="fill:none;stroke:#7A9CFF" />
<path d="M194.04,122.67L199.04,122.67" style="fill:none;stroke:#7A9CFF" />
<path d="M194.04,124.91L199.04,124.91" style="fill:none;stroke:#7A9CFF" />
<path d="M204.46,124.78L204.46,133.86" style="fill:none;stroke:#7A9CFF" />
<path d="M201.96,124.78L206.96,124.78" style="fill:none;stroke:#7A9CFF" />
<path d="M201.96,133.86L206.96,133.86" style="fill:none;stroke:#7A9CFF" />
<path d="M212.37,121.16L212.37,124.47" style="fill:none;stroke:#7A9CFF" />
<path d="M209.87,121.16L214.87,121.16" style="fill:none;stroke:#7A9CFF" />
<path d="M209.87,124.47L214.87,124.47" style="fill:none;stroke:#7A9CFF" />
<path d="M220.28,125.45L220.28,133.68" style="fill:none;stroke:#7A9CFF" />
<path d="M217.78,125.45L222.78,125.45" style="fill:none;stroke:#7A9CFF" />
<path d="M217.78,133.68L222.78,133.68" style="fill:none;stroke:#7A9CFF" />
<path d="M228.2,130.04L228.2,143.31" style="fill:none;stroke:#7A9CFF" />
<path d="M225.7,130.04L230.7,130.04" style="fill:none;stroke:#7A9CFF" />
<path d="M225.7,143.31L230.7,143.31" style="fill:none;stroke:#7A9CFF" />
<path d="M236.11,126.99L236.11,131.53" style="fill:none;stroke:#7A9CFF" />
<path d="M233.61,126.99L238.61,126.99" style="fill:none;stroke:#7A9CFF" />
<path d="M233.61,131.53L238.61,131.53" style="fill:none;stroke:#7A9CFF" />
<path d="M244.03,123.02L244.03,132.65" style="fill:none;stroke:#7A9CFF" />
<path d="M241.53,123.02L246.53,123.02" style="fill:none;stroke:#7A9CFF" />
<path d="M241.53,132.65L246.53,132.65" style="fill:none;stroke:#7A9CFF" />
<path d="M251.94,119.4L251.94,120.86" style="fill:none;stroke:#7A9CFF" />
<path d="M249.44,119.4L254.44,119.4" style="fill:none;stroke:#7A9CFF" />
<path d="M249.44,120.86L254.44,120.86" style="fill:none;stroke:#7A9CFF" />
<path d="M259.85,117.13L259.85,123.15" style="fill:none;stroke:#7A9CFF" />
<path d="M257.35,117.13L262.35,117.13" style="fill:none;stroke:#7A9CFF" />
<path d="M257.35,123.15L262.35,123.15" style="fill:none;stroke:#7A9CFF" />
<path d="M267.77,115.2L267.77,121.78" style="fill:none;stroke:#7A9CFF" />
<path d="M265.27,115.2L270.27,115.2" style="fill:none;stroke:#7A9CFF" />
<path d="M265.27,121.78L270.27,121.78" style="fill:none;stroke:#7A9CFF" />
<path d="M275.68,113.1L275.68,115.62" style="fill:none;stroke:#7A9CFF" />
<path d="M273.18,113.1L278.18,113.1" style="fill:none;stroke:#7A9CFF" />
<path d="M273.18,115.62L278.18,115.62" style="fill:none;stroke:#7A9CFF" />
<path d="M283.6,112.84L283.6,119.78" style="fill:none;stroke:#7A9CFF" />
<path d="M281.1,112.84L286.1,112.84" style="fill:none;stroke:#7A9CFF" />
<path d="M281.1,119.78L286.1,119.78" style="fill:none;stroke:#7A9CFF" />
<path d="M291.51,115.6L291.51,120.74" style="fill:none;stroke:#7A9CFF" />
<path d="M289.01,115.6L294.01,115.6" style="fill:none;stroke:#7A9CFF" />
<path d="M289.01,120.74L294.01,120.74" style="fill:none;stroke:#7A9CFF" />
<path d="M299.43,118.34L299.43,124.45" style="fill:none;stroke:#7A9CFF" />
<path d="M296.93,118.34L301.93,118.34" style="fill:none;stroke:#7A9CFF" />
<path d="M296.93,124.45L301.93,124.45" style="fill:none;stroke:#7A9CFF" />
<path d="M307.34,119.06L307.34,124.06" style="fill:none;stroke:#7A9CFF" />
<path d="M304.84,119.06L309.84,119.06" style="fill:none;stroke:#7A9CFF" />
<path d="M304.84,124.06L309.84,124.06" style="fill:none;stroke:#7A9CFF" />
<path d="M315.25,119.83L315.25,126.07" style="fill:none;stroke:#7A9CFF" />
<path d="M312.75,119.83L317.75,119.83" style="fill:none;stroke:#7A9CFF" />
<path d="M312.75,126.07L317.75,126.07" style="fill:none;stroke:#7A9CFF" />
<path d="M323.17,126.17L323.17,138.69" style="fill:none;stroke:#7A9CFF" />
<path d="M320.67,126.17L325.67,126.17" style="fill:none;stroke:#7A9CFF" />
<path d="M320.67,138.69L325.67,138.69" style="fill:none;stroke:#7A9CFF" />
<path d="M331.08,123.53L331.08,130.9" style="fill:none;stroke:#7A9CFF" />
<path d="M328.58,123.53L333.58,123.53" style="fill:none;stroke:#7A9CFF" />
<path d="M328.58,130.9L333.58,130.9" style="fill:none;stroke:#7A9CFF" />
<path d="M339,117.98L339,126.16" style="fill:none;stroke:#7A9CFF" />
<path d="M336.5,117.98L341.5,117.98" style="fill:none;stroke:#7A9CFF" />
<path d="M336.5,126.16L341.5,126.16" style="fill:none;stroke:#7A9CFF" />
<path d="M346.91,117.32L346.91,119.5" style="fill:none;stroke:#7A9CFF" />
<path d="M344.41,117.32L349.41,117.32" style="fill:none;stroke:#7A9CFF" />
<path d="M344.41,119.5L349.41,119.5" style="fill:none;stroke:#7A9CFF" />
<path d="M354.82,118.18L354.82,121.14" style="fill:none;stroke:#7A9CFF" />
<path d="M352.32,118.18L357.32,118.18" style="fill:none;stroke:#7A9CFF" />
<path d="M352.32,121.14L357.32,121.14" style="fill:none;stroke:#7A9CFF" />
<path d="M362.74,119.98L362.74,122.51" style="fill:none;stroke:#7A9CFF" />
<path d="M360.24,119.98L365.24,119.98" style="fill:none;stroke:#7A9CFF" />
<path d="M360.24,122.51L365.24,122.51" style="fill:none;stroke:#7A9CFF" />
<path d="M370.65,119.95L370.65,122.72" style="fill:none;stroke:#7A9CFF" />
<path d="M368.15,119.95L373.15,119.95" style="fill:none;stroke:#7A9CFF" />
<path d="M368.15,122.72L373.15,122.72" style="fill:none;stroke:#7A9CFF" />
<path d="M378.57,117.49L378.57,120.79" style="fill:none;stroke:#7A9CFF" />
<path d="M376.07,117.49L381.07,117.49" style="fill:none;stroke:#7A9CFF" />
<path d="M376.07,120.79L381.07,120.79" style="fill:none;stroke:#7A9CFF" />
<path d="M386.48,119.38L386.48,125" style="fill:none;stroke:#7A9CFF" />
<path d="M383.98,119.38L388.98,119.38" style="fill:none;stroke:#7A9CFF" />
<path d="M383.98,125L388.98,125" style="fill:none;stroke:#7A9CFF" />
<path d="M394.39,119.61L394.39,124.79" style="fill:none;stroke:#7A9CFF" />
<path d="M391.89,119.61L396.89,119.61" style="fill:none;stroke:#7A9CFF" />
<path d="M391.89,124.79L396.89,124.79" style="fill:none;stroke:#7A9CFF" />
<path d="M402.31,126.55L402.31,129.89" style="fill:none;stroke:#7A9CFF" />
<path d="M399.81,126.55L404.81,126.55" style="fill:none;stroke:#7A9CFF" />
<path d="M399.81,129.89L404.81,129.89" style="fill:none;stroke:#7A9CFF" />
<path d="M410.22,127.55L410.22,135.81" style="fill:none;stroke:#7A9CFF" />
<path d="M407.72,127.55L412.72,127.55" style="fill:none;stroke:#7A9CFF" />
<path d="M407.72,135.81L412.72,135.81" style="fill:none;stroke:#7A9CFF" />
<path d="M418.14,140.56L418.14,150.73" style="fill:none;stroke:#7A9CFF" />
<path d="M415.64,140.56L420.64,140.56" style="fill:none;stroke:#7A9CFF" />
<path d="M415.64,150.73L420.64,150.73" style="fill:none;stroke:#7A9CFF" />
<path d="M426.05,132.73L426.05,145.69" style="fill:none;stroke:#7A9CFF" />
<path d="M423.55,132.73L428.55,132.73" style="fill:none;stroke:#7A9CFF" />
<path d="M423.55,145.69L428.55,145.69" style="fill:none;stroke:#7A9CFF" />
<path d="M433.96,144.09L433.96,158.52" style="fill:none;stroke:#7A9CFF" />
<path d="M431.46,144.09L436.46,144.09" style="fill:none;stroke:#7A9CFF" />
<path d="M431.46,158.52L436.46,158.52" style="fill:none;stroke:#7A9CFF" />
<path d="M441.88,145.38L441.88,161.65" style="fill:none;stroke:#7A9CFF" />
<path d="M439.38,145.38L444.38,145.38" style="fill:none;stroke:#7A9CFF" />
<path d="M439.38,161.65L444.38,161.65" style="fill:none;stroke:#7A9CFF" />
<path d="M449.79,155.58L449.79,174.86" style="fill:none;stroke:#7A9CFF" />
<path d="M447.29,155.58L452.29,155.58" style="fill:none;stroke:#7A9CFF" />
<path d="M447.29,174.86L452.29,174.86" style="fill:none;stroke:#7A9CFF" />
<path d="M457.71,151.57L457.71,169.55" style="fill:none;stroke:#7A9CFF" />
<path d="M455.21,151.57L460.21,151.57" style="fill:none;stroke:#7A9CFF" />
<path d="M455.21,169.55L460.21,169.55" style="fill:none;stroke:#7A9CFF" />
<path d="M465.62,173.72L465.62,186.19" style="fill:none;stroke:#7A9CFF" />
<path d="M463.12,173.72L468.12,173.72" style="fill:none;stroke:#7A9CFF" />
<path d="M463.12,186.19L468.12,186.19" style="fill:none;stroke:#7A9CFF" />
<path d="M473.53,189.37L473.53,216.6" style="fill:none;stroke:#7A9CFF" />
<path d="M471.03,189.37L476.03,189.37" style="fill:none;stroke:#7A9CFF" />
<path d="M471.03,216.6L476.03,216.6" style="fill:none;stroke:#7A9CFF" />
<path d="M481.45,181.33L481.45,199.76" style="fill:none;stroke:#7A9CFF" />
<path d="M478.95,181.33L483.95,181.33" style="fill:none;stroke:#7A9CFF" />
<path d="M478.95,199.76L483.95,199.76" style="fill:none;stroke:#7A9CFF" />
<path d="M489.36,181.08L489.36,193.08" style="fill:none;stroke:#7A9CFF" />
<path d="M486.86,181.08L491.86,181.08" style="fill:none;stroke:#7A9CFF" />
<path d="M486.86,193.08L491.86,193.08" style="fill:none;stroke:#7A9CFF" />
<path d="M497.28,169.7L497.28,192.55" style="fill:none;stroke:#7A9CFF" />
<path d="M494.78,169.7L499.78,169.7" style="fill:none;stroke:#7A9CFF" />
<path d="M494.78,192.55L499.78,192.55" style="fill:none;stroke:#7A9CFF" />
<path d="M505.19,162.12L505.19,179.88" style="fill:none;stroke:#7A9CFF" />
<path d="M502.69,162.12L507.69,162.12" style="fill:none;stroke:#7A9CFF" />
<path d="M502.69,179.88L507.69,179.88" style="fill:none;stroke:#7A9CFF" />
<path d="M513.1,145.63L513.1,168.51" style="fill:none;stroke:#7A9CFF" />
<path d="M510.6,145.63L515.6,145.63" style="fill:none;stroke:#7A9CFF" />
<path d="M510.6,168.51L515.6,168.51" style="fill:none;stroke:#7A9CFF" />
<path d="M521.02,141.94L521.02,152.1" style="fill:none;stroke:#7A9CFF" />
<path d="M518.52,141.94L523.52,141.94" style="fill:none;stroke:#7A9CFF" />
<path d="M518.52,152.1L523.52,152.1" style="fill:none;stroke:#7A9CFF" />
<path d="M528.93,143.11L528.93,156.07" style="fill:none;stroke:#7A9CFF" />
<path d="M526.43,143.11L531.43,143.11" style="fill:none;stroke:#7A9CFF" />
<path d="M526.43,156.07L531.43,156.07" style="fill:none;stroke:#7A9CFF" />
<path d="M536.85,154.88L536.85,169.3" style="fill:none;stroke:#7A9CFF" />
<path d="M534.35,154.88L539.35,154.88" style="fill:none;stroke:#7A9CFF" />
<path d="M534.35,169.3L539.35,169.3" style="fill:none;stroke:#7A9CFF" />
<path d="M544.76,160.89L544.76,169.53" style="fill:none;stroke:#7A9CFF" />
<path d="M542.26,160.89L547.26,160.89" style="fill:none;stroke:#7A9CFF" />
<path d="M542.26,169.53L547.26,169.53" style="fill:none;stroke:#7A9CFF" />
<path d="M552.67,166.5L552.67,178.68" style="fill:none;stroke:#7A9CFF" />
<path d="M550.17,166.5L555.17,166.5" style="fill:none;stroke:#7A9CFF" />
<path d="M550.17,178.68L555.17,178.68" style="fill:none;stroke:#7A9CFF" />
<path d="M560.59,196.51L560.59,207.41" style="fill:none;stroke:#7A9CFF" />
<path d="M558.09,196.51L563.09,196.51" style="fill:none;stroke:#7A9CFF" />
<path d="M558.09,207.41L563.09,207.41" style="fill:none;stroke:#7A9CFF" />
<path d="M568.5,224.81L568.5,239.89" style="fill:none;stroke:#7A9CFF" />
<path d="M566,224.81L571,224.81" style="fill:none;stroke:#7A9CFF" />
<path d="M566,239.89L571,239.89" style="fill:none;stroke:#7A9CFF" />
<path d="M576.42,255.03L576.42,271.89" style="fill:none;stroke:#7A9CFF" />
<path d="M573.92,255.03L578.92,255.03" style="fill:none;stroke:#7A9CFF" />
<path d="M573.92,271.89L578.92,271.89" style="fill:none;stroke:#7A9CFF" />
<path d="M584.33,287.85L584.33,307.88" style="fill:none;stroke:#7A9CFF" />
<path d="M581.83,287.85L586.83,287.85" style="fill:none;stroke:#7A9CFF" />
<path d="M581.83,307.88L586.83,307.88" style="fill:none;stroke:#7A9CFF" />
<path d="M592.24,302.71L592.24,312.87" style="fill:none;stroke:#7A9CFF" />
<path d="M589.74,302.71L594.74,302.71" style="fill:none;stroke:#7A9CFF" />
<path d="M589.74,312.87L594.74,312.87" style="fill:none;stroke:#7A9CFF" />
<path d="M600.16,314.96L600.16,327.64" style="fill:none;stroke:#7A9CFF" />
<path d="M597.66,314.96L602.66,314.96" style="fill:none;stroke:#7A9CFF" />
<path d="M597.66,327.64L602.66,327.64" style="fill:none;stroke:#7A9CFF" />
<path d="M608.07,323.49L608.07,332.44" style="fill:none;stroke:#7A9CFF" />
<path d="M605.57,323.49L610.57,323.49" style="fill:none;stroke:#7A9CFF" />
<path d="M605.57,332.44L610.57,332.44" style="fill:none;stroke:#7A9CFF" />
<path d="M615.99,345.6L615.99,372.87" style="fill:none;stroke:#7A9CFF" />
<path d="M613.49,345.6L618.49,345.6" style="fill:none;stroke:#7A9CFF" />
<path d="M613.49,372.87L618.49,372.87" style="fill:none;stroke:#7A9CFF" />
<path d="M623.9,383.78L623.9,415" style="fill:none;stroke:#7A9CFF" />
<path d="M621.4,383.78L626.4,383.78" style="fill:none;stroke:#7A9CFF" />
<path d="M621.4,415L626.4,415" style="fill:none;stroke:#7A9CFF" />
<path d="M631.81,436.56L631.81,455.15" style="fill:none;stroke:#7A9CFF" />
<path d="M629.31,436.56L634.31,436.56" style="fill:none;stroke:#7A9CFF" />
<path d="M629.31,455.15L634.31,455.15" style="fill:none;stroke:#7A9CFF" />
<path d="M639.73,486.84L639.73,504.21" style="fill:none;stroke:#7A9CFF" />
<path d="M637.23,486.84L642.23,486.84" style="fill:none;stroke:#7A9CFF" />
<path d="M637.23,504.21L642.23,504.21" style="fill:none;stroke:#7A9CFF" />
<path d="M647.64,488.64L647.64,532.75" style="fill:none;stroke:#7A9CFF" />
<path d="M645.14,488.64L650.14,488.64" style="fill:none;stroke:#7A9CFF" />
<path d="M645.14,532.75L650.14,532.75" style="fill:none;stroke:#7A9CFF" />
<path d="M655.56,542.85L655.56,593.17" style="fill:none;stroke:#7A9CFF" />
<path d="M653.06,542.85L658.06,542.85" style="fill:none;stroke:#7A9CFF" />
<path d="M653.06,593.17L658.06,593.17" style="fill:none;stroke:#7A9CFF" />
<path d="M663.47,645.17L663.47,671.47" style="fill:none;stroke:#7A9CFF" />
<path d="M660.97,645.17L665.97,645.17" style="fill:none;stroke:#7A9CFF" />
<path d="M660.97,671.47L665.97,671.47" style="fill:none;stroke:#7A9CFF" />
<path d="M671.38,694.26L671.38,768.64" style="fill:none;stroke:#7A9CFF" />
<path d="M668.88,694.26L673.88,694.26" style="fill:none;stroke:#7A9CFF" />
<path d="M668.88,768.64L673.88,768.64" style="fill:none;stroke:#7A9CFF" />
<path d="M679.3,723.04L679.3,814.68" style="fill:none;stroke:#7A9CFF" />
<path d="M676.8,723.04L681.8,723.04" style="fill:none;stroke:#7A9CFF" />
<path d="M676.8,814.68L681.8,814.68" style="fill:none;stroke:#7A9CFF" />
<path d="M687.21,828.9L687.21,887.4" style="fill:none;stroke:#7A9CFF" />
<path d="M684.71,828.9L689.71,828.9" style="fill:none;stroke:#7A9CFF" />
<path d="M684.71,887.4L689.71,887.4" style="fill:none;stroke:#7A9CFF" />
<path d="M695.13,858.06L695.13,933.93" style="fill:none;stroke:#7A9CFF" />
<path d="M692.63,858.06L697.63,858.06" style="fill:none;stroke:#7A9CFF" />
<path d="M692.63,933.93L697.63,933.93" style="fill:none;stroke:#7A9CFF" />
<path d="M703.04,803.43L703.04,904.64" style="fill:none;stroke:#7A9CFF" />
<path d="M700.54,803.43L705.54,803.43" style="fill:none;stroke:#7A9CFF" />
<path d="M700.54,904.64L705.54,904.64" style="fill:none;stroke:#7A9CFF" />
<path d="M710.95,667.87L710.95,755.71" style="fill:none;stroke:#7A9CFF" />
<path d="M708.45,667.87L713.45,667.87" style="fill:none;stroke:#7A9CFF" />
<path d="M708.45,755.71L713.45,755.71" style="fill:none;stroke:#7A9CFF" />
<path d="M718.87,471.37L718.87,518.11" style="fill:none;stroke:#7A9CFF" />
<path d="M716.37,471.37L721.37,471.37" style="fill:none;stroke:#7A9CFF" />
<path d="M716.37,518.11L721.37,518.11" style="fill:none;stroke:#7A9CFF" />
<path d="M726.78,394.69L726.78,446.07" style="fill:none;stroke:#7A9CFF" />
<path d="M724.28,394.69L729.28,394.69" style="fill:none;stroke:#7A9CFF" />
<path d="M724.28,446.07L729.28,446.07" style="fill:none;stroke:#7A9CFF" />
<path d="M734.7,344.74L734.7,416.75" style="fill:none;stroke:#7A9CFF" />
<path d="M732.2,344.74L737.2,344.74" style="fill:none;stroke:#7A9CFF" />
<path d="M732.2,416.75L737.2,416.75" style="fill:none;stroke:#7A9CFF" />
<path d="M742.61,344.99L742.61,368.76" style="fill:none;stroke:#7A9CFF" />
<path d="M740.11,344.99L745.11,344.99" style="fill:none;stroke:#7A9CFF" />
<path d="M740.11,368.76L745.11,368.76" style="fill:none;stroke:#7A9CFF" />
<path d="M750.52,310L750.52,328.86" style="fill:none;stroke:#7A9CFF" />
<path d="M748.02,310L753.02,310" style="fill:none;stroke:#7A9CFF" />
<path d="M748.02,328.86L753.02,328.86" style="fill:none;stroke:#7A9CFF" />
<path d="M758.44,237.77L758.44,275.84" style="fill:none;stroke:#7A9CFF" />
<path d="M755.94,237.77L760.94,237.77" style="fill:none;stroke:#7A9CFF" />
<path d="M755.94,275.84L760.94,275.84" style="fill:none;stroke:#7A9CFF" />
<path d="M766.35,159.7L766.35,175.18" style="fill:none;stroke:#7A9CFF" />
<path d="M763.85,159.7L768.85,159.7" style="fill:none;stroke:#7A9CFF" />
<path d="M763.85,175.18L768.85,175.18" style="fill:none;stroke:#7A9CFF" />
<path d="M774.27,138.39L774.27,150.22" style="fill:none;stroke:#7A9CFF" />
<path d="M771.77,138.39L776.77,138.39" style="fill:none;stroke:#7A9CFF" />
<path d="M771.77,150.22L776.77,150.22" style="fill:none;stroke:#7A9CFF" />
<path d="M782.18,151.48L782.18,171.34" style="fill:none;stroke:#7A9CFF" />
<path d="M779.68,151.48L784.68,151.48" style="fill:none;stroke:#7A9CFF" />
<path d="M779.68,171.34L784.68,171.34" style="fill:none;stroke:#7A9CFF" />
<path d="M790.09,142.98L790.09,158.27" style="fill:none;stroke:#7A9CFF" />
<path d="M787.59,142.98L792.59,142.98" style="fill:none;stroke:#7A9CFF" />
<path d="M787.59,158.27L792.59,158.27" style="fill:none;stroke:#7A9CFF" />
<path d="M798.01,144.7L798.01,155.38" style="fill:none;stroke:#7A9CFF" />
<path d="M795.51,144.7L800.51,144.7" style="fill:none;stroke:#7A9CFF" />
<path d="M795.51,155.38L800.51,155.38" style="fill:none;stroke:#7A9CFF" />
<path d="M805.92,134.52L805.92,141.61" style="fill:none;stroke:#7A9CFF" />
<path d="M803.42,134.52L808.42,134.52" style="fill:none;stroke:#7A9CFF" />
<path d="M803.42,141.61L808.42,141.61" style="fill:none;stroke:#7A9CFF" />
<path d="M813.84,130.51L813.84,142.33" style="fill:none;stroke:#7A9CFF" />
<path d="M811.34,130.51L816.34,130.51" style="fill:none;stroke:#7A9CFF" />
<path d="M811.34,142.33L816.34,142.33" style="fill:none;stroke:#7A9CFF" />
<path d="M821.75,127.99L821.75,139.23" style="fill:none;stroke:#7A9CFF" />
<path d="M819.25,127.99L824.25,127.99" style="fill:none;stroke:#7A9CFF" />
<path d="M819.25,139.23L824.25,139.23" style="fill:none;stroke:#7A9CFF" />
<path d="M829.67,124.05L829.67,130.34" style="fill:none;stroke:#7A9CFF" />
<path d="M827.17,124.05L832.17,124.05" style="fill:none;stroke:#7A9CFF" />
<path d="M827.17,130.34L832.17,130.34" style="fill:none;stroke:#7A9CFF" />
<path d="M837.58,120.61L837.58,126.85" style="fill:none;stroke:#7A9CFF" />
<path d="M835.08,120.61L840.08,120.61" style="fill:none;stroke:#7A9CFF" />
<path d="M835.08,126.85L840.08,126.85" style="fill:none;stroke:#7A9CFF" />
<path d="M845.49,119.12L845.49,123.04" style="fill:none;stroke:#7A9CFF" />
<path d="M842.99,119.12L847.99,119.12" style="fill:none;stroke:#7A9CFF" />
<path d="M842.99,123.04L847.99,123.04" style="fill:none;stroke:#7A9CFF" />
<path d="M853.41,117.95L853.41,120.49" style="fill:none;stroke:#7A9CFF" />
<path d="M850.91,117.95L855.91,117.95" style="fill:none;stroke:#7A9CFF" />
<path d="M850.91,120.49L855.91,120.49" style="fill:none;stroke:#7A9CFF" />
<path d="M861.32,119.32L861.32,120.32" style="fill:none;stroke:#7A9CFF" />
<path d="M858.82,119.32L863.82,119.32" style="fill:none;stroke:#7A9CFF" />
<path d="M858.82,120.32L863.82,120.32" style="fill:none;stroke:#7A9CFF" />
<path d="M869.24,116.46L869.24,117.38" style="fill:none;stroke:#7A9CFF" />
<path d="M866.74,116.46L871.74,116.46" style="fill:none;stroke:#7A9CFF" />
<path d="M866.74,117.38L871.74,117.38" style="fill:none;stroke:#7A9CFF" />
<path d="M877.15,114.88L877.15,116.62" style="fill:none;stroke:#7A9CFF" />
<path d="M874.65,114.88L879.65,114.88" style="fill:none;stroke:#7A9CFF" />
<path d="M874.65,116.62L879.65,116.62" style="fill:none;stroke:#7A9CFF" />
<path d="M885.06,115.19L885.06,116.02" style="fill:none;stroke:#7A9CFF" />
<path d="M882.56,115.19L887.56,115.19" style="fill:none;stroke:#7A9CFF" />
<path d="M882.56,116.02L887.56,116.02" style="fill:none;stroke:#7A9CFF" />
<path d="M892.98,114.57L892.98,116.1" style="fill:none;stroke:#7A9CFF" />
<path d="M890.48,114.57L895.48,114.57" style="fill:none;stroke:#7A9CFF" />
<path d="M890.48,116.1L895.48,116.1" style="fill:none;stroke:#7A9CFF" />
<path d="M900.89,115.05L900.89,115.98" style="fill:none;stroke:#7A9CFF" />
<path d="M898.39,115.05L903.39,115.05" style="fill:none;stroke:#7A9CFF" />
<path d="M898.39,115.98L903.39,115.98" style="fill:none;stroke:#7A9CFF" />
<path d="M908.81,114.3L908.81,115.64" style="fill:none;stroke:#7A9CFF" />
<path d="M906.31,114.3L911.31,114.3" style="fill:none;stroke:#7A9CFF" />
<path d="M906.31,115.64L911.31,115.64" style="fill:none;stroke:#7A9CFF" />
<path d="M916.72,115.45L916.72,116.63" style="fill:none;stroke:#7A9CFF" />
<path d="M914.22,115.45L919.22,115.45" style="fill:none;stroke:#7A9CFF" />
<path d="M914.22,116.63L919.22,116.63" style="fill:none;stroke:#7A9CFF" />
<path d="M924.63,113.9L924.63,115.28" style="fill:none;stroke:#7A9CFF" />
<path d="M922.13,113.9L927.13,113.9" style="fill:none;stroke:#7A9CFF" />
<path d="M922.13,115.28L927.13,115.28" style="fill:none;stroke:#7A9CFF" />
<path d="M932.55,113.71L932.55,116.36" style="fill:none;stroke:#7A9CFF" />
<path d="M930.05,113.71L935.05,113.71" style="fill:none;stroke:#7A9CFF" />
<path d="M930.05,116.36L935.05,116.36" style="fill:none;stroke:#7A9CFF" />
<path d="M940.46,113.95L940.46,115.47" style="fill:none;stroke:#7A9CFF" />
<path d="M937.96,113.95L942.96,113.95" style="fill:none;stroke:#7A9CFF" />
<path d="M937.96,115.47L942.96,115.47" style="fill:none;stroke:#7A9CFF" />
<path d="M948.38,114.41L948.38,115.64" style="fill:none;stroke:#7A9CFF" />
<path d="M945.88,114.41L950.88,114.41" style="fill:none;stroke:#7A9CFF" />
<path d="M945.88,115.64L950.88,115.64" style="fill:none;stroke:#7A9CFF" />
<path d="M956.29,114.8L956.29,115.82" style="fill:none;stroke:#7A9CFF" />
<path d="M953.79,114.8L958.79,114.8" style="fill:none;stroke:#7A9CFF" />
<path d="M953.79,115.82L958.79,115.82" style="fill:none;stroke:#7A9CFF" />
<path d="M964.2,113.56L964.2,115.52" style="fill:none;stroke:#7A9CFF" />
<path d="M961.7,113.56L966.7,113.56" style="fill:none;stroke:#7A9CFF" />
<path d="M961.7,115.52L966.7,115.52" style="fill:none;stroke:#7A9CFF" />
<path d="M972.12,114.74L972.12,116.51" style="fill:none;stroke:#7A9CFF" />
<path d="M969.62,114.74L974.62,114.74" style="fill:none;stroke:#7A9CFF" />
<path d="M969.62,116.51L974.62,116.51" style="fill:none;stroke:#7A9CFF" />
<path d="M980.03,115.35L980.03,116.49" style="fill:none;stroke:#7A9CFF" />
<path d="M977.53,115.35L982.53,115.35" style="fill:none;stroke:#7A9CFF" />
<path d="M977.53,116.49L982.53,116.49" style="fill:none;stroke:#7A9CFF" />
<path d="M987.95,116.18L987.95,117.46" style="fill:none;stroke:#7A9CFF" />
<path d="M985.45,116.18L990.45,116.18" style="fill:none;stroke:#7A9CFF" />
<path d="M985.45,117.46L990.45,117.46" style="fill:none;stroke:#7A9CFF" />
<path d="M995.86,115.24L995.86,116.81" style="fill:none;stroke:#7A9CFF" />
<path d="M993.36,115.24L998.36,115.24" style="fill:none;stroke:#7A9CFF" />
<path d="M993.36,116.81L998.36,116.81" style="fill:none;stroke:#7A9CFF" />
<path d="M1003.8,116.57L1003.8,117.68" style="fill:none;stroke:#7A9CFF" />
<path d="M1001.3,116.57L1006.3,116.57" style="fill:none;stroke:#7A9CFF" />
<path d="M1001.3,117.68L1006.3,117.68" style="fill:none;stroke:#7A9CFF" />
<path d="M1011.7,115.11L1011.7,116.8" style="fill:none;stroke:#7A9CFF" />
<path d="M1009.2,115.11L1014.2,115.11" style="fill:none;stroke:#7A9CFF" />
<path d="M1009.2,116.8L1014.2,116.8" style="fill:none;stroke:#7A9CFF" />
<path d="M1019.6,115.02L1019.6,116.85" style="fill:none;stroke:#7A9CFF" />
<path d="M1017.1,115.02L1022.1,115.02" style="fill:none;stroke:#7A9CFF" />
<path d="M1017.1,116.85L1022.1,116.85" style="fill:none;stroke:#7A9CFF" />
<path d="M1027.5,114.23L1027.5,115.88" style="fill:none;stroke:#7A9CFF" />
<path d="M1025,114.23L1030,114.23" style="fill:none;stroke:#7A9CFF" />
<path d="M1025,115.88L1030,115.88" style="fill:none;stroke:#7A9CFF" />
<path d="M1035.4,113.69L1035.4,113.94" style="fill:none;stroke:#7A9CFF" />
<path d="M1032.9,113.69L1037.9,113.69" style="fill:none;stroke:#7A9CFF" />
<path d="M1032.9,113.94L1037.9,113.94" style="fill:none;stroke:#7A9CFF" />
<path d="M1043.3,115.06L1043.3,115.97" style="fill:none;stroke:#7A9CFF" />
<path d="M1040.8,115.06L1045.8,115.06" style="fill:none;stroke:#7A9CFF" />
<path d="M1040.8,115.97L1045.8,115.97" style="fill:none;stroke:#7A9CFF" />
<path d="M1051.3,114.97L1051.3,117.36" style="fill:none;stroke:#7A9CFF" />
<path d="M1048.8,114.97L1053.8,114.97" style="fill:none;stroke:#7A9CFF" />
<path d="M1048.8,117.36L1053.8,117.36" style="fill:none;stroke:#7A9CFF" />
<path d="M1059.2,117.54L1059.2,119.13" style="fill:none;stroke:#7A9CFF" />
<path d="M1056.7,117.54L1061.7,117.54" style="fill:none;stroke:#7A9CFF" />
<path d="M1056.7,119.13L1061.7,119.13" style="fill:none;stroke:#7A9CFF" />
<path d="M1067.1,118.34L1067.1,121.86" style="fill:none;stroke:#7A9CFF" />
<path d="M1064.6,118.34L1069.6,118.34" style="fill:none;stroke:#7A9CFF" />
<path d="M1064.6,121.86L1069.6,121.86" style="fill:none;stroke:#7A9CFF" />
<path d="M1075,115.35L1075,120.32" style="fill:none;stroke:#7A9CFF" />
<path d="M1072.5,115.35L1077.5,115.35" style="fill:none;stroke:#7A9CFF" />
<path d="M1072.5,120.32L1077.5,120.32" style="fill:none;stroke:#7A9CFF" />
<path d="M146.14,117A5,5 0 1 1 136.14,117A5,5 0 1 1 146.14,117Z" style="fill:#7A9CFF" />
<path d="M154.06,116.19A5,5 0 1 1 144.06,116.19A5,5 0 1 1 154.06,116.19Z" style="fill:#7A9CFF" />
<path d="M161.97,116.14A5,5 0 1 1 151.97,116.14A5,5 0 1 1 161.97,116.14Z" style="fill:#7A9CFF" />
<path d="M169.89,116.9A5,5 0 1 1 159.89,116.9A5,5 0 1 1 169.89,116.9Z" style="fill:#7A9CFF" />
<path d="M177.8,116.29A5,5 0 1 1 167.8,116.29A5,5 0 1 1 177.8,116.29Z" style="fill:#7A9CFF" />
<path d="M185.71,117.8A5,5 0 1 1 175.71,117.8A5,5 0 1 1 185.71,117.8Z" style="fill:#7A9CFF" />
<path d="M193.63,120.35A5,5 0 1 1 183.63,120.35A5,5 0 1 1 193.63,120.35Z" style="fill:#7A9CFF" />
<path d="M201.54,123.79A5,5 0 1 1 191.54,123.79A5,5 0 1 1 201.54,123.79Z" style="fill:#7A9CFF" />
<path d="M209.46,129.32A5,5 0 1 1 199.46,129.32A5,5 0 1 1 209.46,129.32Z" style="fill:#7A9CFF" />
<path d="M217.37,122.82A5,5 0 1 1 207.37,122.82A5,5 0 1 1 217.37,122.82Z" style="fill:#7A9CFF" />
<path d="M225.28,129.56A5,5 0 1 1 215.28,129.56A5,5 0 1 1 225.28,129.56Z" style="fill:#7A9CFF" />
<path d="M233.2,136.68A5,5 0 1 1 223.2,136.68A5,5 0 1 1 233.2,136.68Z" style="fill:#7A9CFF" />
<path d="M241.11,129.26A5,5 0 1 1 231.11,129.26A5,5 0 1 1 241.11,129.26Z" style="fill:#7A9CFF" />
<path d="M249.03,127.83A5,5 0 1 1 239.03,127.83A5,5 0 1 1 249.03,127.83Z" style="fill:#7A9CFF" />
<path d="M256.94,120.13A5,5 0 1 1 246.94,120.13A5,5 0 1 1 256.94,120.13Z" style="fill:#7A9CFF" />
<path d="M264.85,120.14A5,5 0 1 1 254.85,120.14A5,5 0 1 1 264.85,120.14Z" style="fill:#7A9CFF" />
<path d="M272.77,118.49A5,5 0 1 1 262.77,118.49A5,5 0 1 1 272.77,118.49Z" style="fill:#7A9CFF" />
<path d="M280.68,114.36A5,5 0 1 1 270.68,114.36A5,5 0 1 1 280.68,114.36Z" style="fill:#7A9CFF" />
<path d="M288.6,116.31A5,5 0 1 1 278.6,116.31A5,5 0 1 1 288.6,116.31Z" style="fill:#7A9CFF" />
<path d="M296.51,118.17A5,5 0 1 1 286.51,118.17A5,5 0 1 1 296.51,118.17Z" style="fill:#7A9CFF" />
<path d="M304.43,121.4A5,5 0 1 1 294.43,121.4A5,5 0 1 1 304.43,121.4Z" style="fill:#7A9CFF" />
<path d="M312.34,121.56A5,5 0 1 1 302.34,121.56A5,5 0 1 1 312.34,121.56Z" style="fill:#7A9CFF" />
<path d="M320.25,122.95A5,5 0 1 1 310.25,122.95A5,5 0 1 1 320.25,122.95Z" style="fill:#7A9CFF" />
<path d="M328.17,132.43A5,5 0 1 1 318.17,132.43A5,5 0 1 1 328.17,132.43Z" style="fill:#7A9CFF" />
<path d="M336.08,127.21A5,5 0 1 1 326.08,127.21A5,5 0 1 1 336.08,127.21Z" style="fill:#7A9CFF" />
<path d="M344,122.07A5,5 0 1 1 334,122.07A5,5 0 1 1 344,122.07Z" style="fill:#7A9CFF" />
<path d="M351.91,118.41A5,5 0 1 1 341.91,118.41A5,5 0 1 1 351.91,118.41Z" style="fill:#7A9CFF" />
<path d="M359.82,119.66A5,5 0 1 1 349.82,119.66A5,5 0 1 1 359.82,119.66Z" style="fill:#7A9CFF" />
<path d="M367.74,121.25A5,5 0 1 1 357.74,121.25A5,5 0 1 1 367.74,121.25Z" style="fill:#7A9CFF" />
<path d="M375.65,121.34A5,5 0 1 1 365.65,121.34A5,5 0 1 1 375.65,121.34Z" style="fill:#7A9CFF" />
<path d="M383.57,119.14A5,5 0 1 1 373.57,119.14A5,5 0 1 1 383.57,119.14Z" style="fill:#7A9CFF" />
<path d="M391.48,122.19A5,5 0 1 1 381.48,122.19A5,5 0 1 1 391.48,122.19Z" style="fill:#7A9CFF" />
<path d="M399.39,122.2A5,5 0 1 1 389.39,122.2A5,5 0 1 1 399.39,122.2Z" style="fill:#7A9CFF" />
<path d="M407.31,128.22A5,5 0 1 1 397.31,128.22A5,5 0 1 1 407.31,128.22Z" style="fill:#7A9CFF" />
<path d="M415.22,131.68A5,5 0 1 1 405.22,131.68A5,5 0 1 1 415.22,131.68Z" style="fill:#7A9CFF" />
<path d="M423.14,145.65A5,5 0 1 1 413.14,145.65A5,5 0 1 1 423.14,145.65Z" style="fill:#7A9CFF" />
<path d="M431.05,139.21A5,5 0 1 1 421.05,139.21A5,5 0 1 1 431.05,139.21Z" style="fill:#7A9CFF" />
<path d="M438.96,151.3A5,5 0 1 1 428.96,151.3A5,5 0 1 1 438.96,151.3Z" style="fill:#7A9CFF" />
<path d="M446.88,153.52A5,5 0 1 1 436.88,153.52A5,5 0 1 1 446.88,153.52Z" style="fill:#7A9CFF" />
<path d="M454.79,165.22A5,5 0 1 1 444.79,165.22A5,5 0 1 1 454.79,165.22Z" style="fill:#7A9CFF" />
<path d="M462.71,160.56A5,5 0 1 1 452.71,160.56A5,5 0 1 1 462.71,160.56Z" style="fill:#7A9CFF" />
<path d="M470.62,179.96A5,5 0 1 1 460.62,179.96A5,5 0 1 1 470.62,179.96Z" style="fill:#7A9CFF" />
<path d="M478.53,202.98A5,5 0 1 1 468.53,202.98A5,5 0 1 1 478.53,202.98Z" style="fill:#7A9CFF" />
<path d="M486.45,190.55A5,5 0 1 1 476.45,190.55A5,5 0 1 1 486.45,190.55Z" style="fill:#7A9CFF" />
<path d="M494.36,187.08A5,5 0 1 1 484.36,187.08A5,5 0 1 1 494.36,187.08Z" style="fill:#7A9CFF" />
<path d="M502.28,181.13A5,5 0 1 1 492.28,181.13A5,5 0 1 1 502.28,181.13Z" style="fill:#7A9CFF" />
<path d="M510.19,171A5,5 0 1 1 500.19,171A5,5 0 1 1 510.19,171Z" style="fill:#7A9CFF" />
<path d="M518.1,157.07A5,5 0 1 1 508.1,157.07A5,5 0 1 1 518.1,157.07Z" style="fill:#7A9CFF" />
<path d="M526.02,147.02A5,5 0 1 1 516.02,147.02A5,5 0 1 1 526.02,147.02Z" style="fill:#7A9CFF" />
<path d="M533.93,149.59A5,5 0 1 1 523.93,149.59A5,5 0 1 1 533.93,149.59Z" style="fill:#7A9CFF" />
<path d="M541.85,162.09A5,5 0 1 1 531.85,162.09A5,5 0 1 1 541.85,162.09Z" style="fill:#7A9CFF" />
<path d="M549.76,165.21A5,5 0 1 1 539.76,165.21A5,5 0 1 1 549.76,165.21Z" style="fill:#7A9CFF" />
<path d="M557.67,172.59A5,5 0 1 1 547.67,172.59A5,5 0 1 1 557.67,172.59Z" style="fill:#7A9CFF" />
<path d="M565.59,201.96A5,5 0 1 1 555.59,201.96A5,5 0 1 1 565.59,201.96Z" style="fill:#7A9CFF" />
<path d="M573.5,232.35A5,5 0 1 1 563.5,232.35A5,5 0 1 1 573.5,232.35Z" style="fill:#7A9CFF" />
<path d="M581.42,263.46A5,5 0 1 1 571.42,263.46A5,5 0 1 1 581.42,263.46Z" style="fill:#7A9CFF" />
<path d="M589.33,297.87A5,5 0 1 1 579.33,297.87A5,5 0 1 1 589.33,297.87Z" style="fill:#7A9CFF" />
<path d="M597.24,307.79A5,5 0 1 1 587.24,307.79A5,5 0 1 1 597.24,307.79Z" style="fill:#7A9CFF" />
<path d="M605.16,321.3A5,5 0 1 1 595.16,321.3A5,5 0 1 1 605.16,321.3Z" style="fill:#7A9CFF" />
<path d="M613.07,327.97A5,5 0 1 1 603.07,327.97A5,5 0 1 1 613.07,327.97Z" style="fill:#7A9CFF" />
<path d="M620.99,359.23A5,5 0 1 1 610.99,359.23A5,5 0 1 1 620.99,359.23Z" style="fill:#7A9CFF" />
<path d="M628.9,399.39A5,5 0 1 1 618.9,399.39A5,5 0 1 1 628.9,399.39Z" style="fill:#7A9CFF" />
<path d="M636.81,445.85A5,5 0 1 1 626.81,445.85A5,5 0 1 1 636.81,445.85Z" style="fill:#7A9CFF" />
<path d="M644.73,495.52A5,5 0 1 1 634.73,495.52A5,5 0 1 1 644.73,495.52Z" style="fill:#7A9CFF" />
<path d="M652.64,510.69A5,5 0 1 1 642.64,510.69A5,5 0 1 1 652.64,510.69Z" style="fill:#7A9CFF" />
<path d="M660.56,568.01A5,5 0 1 1 650.56,568.01A5,5 0 1 1 660.56,568.01Z" style="fill:#7A9CFF" />
<path d="M668.47,658.32A5,5 0 1 1 658.47,658.32A5,5 0 1 1 668.47,658.32Z" style="fill:#7A9CFF" />
<path d="M676.38,731.45A5,5 0 1 1 666.38,731.45A5,5 0 1 1 676.38,731.45Z" style="fill:#7A9CFF" />
<path d="M684.3,768.86A5,5 0 1 1 674.3,768.86A5,5 0 1 1 684.3,768.86Z" style="fill:#7A9CFF" />
<path d="M692.21,858.15A5,5 0 1 1 682.21,858.15A5,5 0 1 1 692.21,858.15Z" style="fill:#7A9CFF" />
<path d="M700.13,895.99A5,5 0 1 1 690.13,895.99A5,5 0 1 1 700.13,895.99Z" style="fill:#7A9CFF" />
<path d="M708.04,854.03A5,5 0 1 1 698.04,854.03A5,5 0 1 1 708.04,854.03Z" style="fill:#7A9CFF" />
<path d="M715.95,711.79A5,5 0 1 1 705.95,711.79A5,5 0 1 1 715.95,711.79Z" style="fill:#7A9CFF" />
<path d="M723.87,494.74A5,5 0 1 1 713.87,494.74A5,5 0 1 1 723.87,494.74Z" style="fill:#7A9CFF" />
<path d="M731.78,420.38A5,5 0 1 1 721.78,420.38A5,5 0 1 1 731.78,420.38Z" style="fill:#7A9CFF" />
<path d="M739.7,380.75A5,5 0 1 1 729.7,380.75A5,5 0 1 1 739.7,380.75Z" style="fill:#7A9CFF" />
<path d="M747.61,356.88A5,5 0 1 1 737.61,356.88A5,5 0 1 1 747.61,356.88Z" style="fill:#7A9CFF" />
<path d="M755.52,319.43A5,5 0 1 1 745.52,319.43A5,5 0 1 1 755.52,319.43Z" style="fill:#7A9CFF" />
<path d="M763.44,256.8A5,5 0 1 1 753.44,256.8A5,5 0 1 1 763.44,256.8Z" style="fill:#7A9CFF" />
<path d="M771.35,167.44A5,5 0 1 1 761.35,167.44A5,5 0 1 1 771.35,167.44Z" style="fill:#7A9CFF" />
<path d="M779.27,144.31A5,5 0 1 1 769.27,144.31A5,5 0 1 1 779.27,144.31Z" style="fill:#7A9CFF" />
<path d="M787.18,161.41A5,5 0 1 1 777.18,161.41A5,5 0 1 1 787.18,161.41Z" style="fill:#7A9CFF" />
<path d="M795.09,150.63A5,5 0 1 1 785.09,150.63A5,5 0 1 1 795.09,150.63Z" style="fill:#7A9CFF" />
<path d="M803.01,150.04A5,5 0 1 1 793.01,150.04A5,5 0 1 1 803.01,150.04Z" style="fill:#7A9CFF" />
<path d="M810.92,138.07A5,5 0 1 1 800.92,138.07A5,5 0 1 1 810.92,138.07Z" style="fill:#7A9CFF" />
<path d="M818.84,136.42A5,5 0 1 1 808.84,136.42A5,5 0 1 1 818.84,136.42Z" style="fill:#7A9CFF" />
<path d="M826.75,133.61A5,5 0 1 1 816.75,133.61A5,5 0 1 1 826.75,133.61Z" style="fill:#7A9CFF" />
<path d="M834.67,127.19A5,5 0 1 1 824.67,127.19A5,5 0 1 1 834.67,127.19Z" style="fill:#7A9CFF" />
<path d="M842.58,123.73A5,5 0 1 1 832.58,123.73A5,5 0 1 1 842.58,123.73Z" style="fill:#7A9CFF" />
<path d="M850.49,121.08A5,5 0 1 1 840.49,121.08A5,5 0 1 1 850.49,121.08Z" style="fill:#7A9CFF" />
<path d="M858.41,119.22A5,5 0 1 1 848.41,119.22A5,5 0 1 1 858.41,119.22Z" style="fill:#7A9CFF" />
<path d="M866.32,119.82A5,5 0 1 1 856.32,119.82A5,5 0 1 1 866.32,119.82Z" style="fill:#7A9CFF" />
<path d="M874.24,116.92A5,5 0 1 1 864.24,116.92A5,5 0 1 1 874.24,116.92Z" style="fill:#7A9CFF" />
<path d="M882.15,115.75A5,5 0 1 1 872.15,115.75A5,5 0 1 1 882.15,115.75Z" style="fill:#7A9CFF" />
<path d="M890.06,115.61A5,5 0 1 1 880.06,115.61A5,5 0 1 1 890.06,115.61Z" style="fill:#7A9CFF" />
<path d="M897.98,115.34A5,5 0 1 1 887.98,115.34A5,5 0 1 1 897.98,115.34Z" style="fill:#7A9CFF" />
<path d="M905.89,115.52A5,5 0 1 1 895.89,115.52A5,5 0 1 1 905.89,115.52Z" style="fill:#7A9CFF" />
<path d="M913.81,114.97A5,5 0 1 1 903.81,114.97A5,5 0 1 1 913.81,114.97Z" style="fill:#7A9CFF" />
<path d="M921.72,116.04A5,5 0 1 1 911.72,116.04A5,5 0 1 1 921.72,116.04Z" style="fill:#7A9CFF" />
<path d="M929.63,114.59A5,5 0 1 1 919.63,114.59A5,5 0 1 1 929.63,114.59Z" style="fill:#7A9CFF" />
<path d="M937.55,115.04A5,5 0 1 1 927.55,115.04A5,5 0 1 1 937.55,115.04Z" style="fill:#7A9CFF" />
<path d="M945.46,114.71A5,5 0 1 1 935.46,114.71A5,5 0 1 1 945.46,114.71Z" style="fill:#7A9CFF" />
<path d="M953.38,115.03A5,5 0 1 1 943.38,115.03A5,5 0 1 1 953.38,115.03Z" style="fill:#7A9CFF" />
<path d="M961.29,115.31A5,5 0 1 1 951.29,115.31A5,5 0 1 1 961.29,115.31Z" style="fill:#7A9CFF" />
<path d="M969.2,114.54A5,5 0 1 1 959.2,114.54A5,5 0 1 1 969.2,114.54Z" style="fill:#7A9CFF" />
<path d="M977.12,115.63A5,5 0 1 1 967.12,115.63A5,5 0 1 1 977.12,115.63Z" style="fill:#7A9CFF" />
<path d="M985.03,115.92A5,5 0 1 1 975.03,115.92A5,5 0 1 1 985.03,115.92Z" style="fill:#7A9CFF" />
<path d="M992.95,116.82A5,5 0 1 1 982.95,116.82A5,5 0 1 1 992.95,116.82Z" style="fill:#7A9CFF" />
<path d="M1000.9,116.03A5,5 0 1 1 990.86,116.03A5,5 0 1 1 1000.9,116.03Z" style="fill:#7A9CFF" />
<path d="M1008.8,117.13A5,5 0 1 1 998.77,117.13A5,5 0 1 1 1008.8,117.13Z" style="fill:#7A9CFF" />
<path d="M1016.7,115.95A5,5 0 1 1 1006.7,115.95A5,5 0 1 1 1016.7,115.95Z" style="fill:#7A9CFF" />
<path d="M1024.6,115.93A5,5 0 1 1 1014.6,115.93A5,5 0 1 1 1024.6,115.93Z" style="fill:#7A9CFF" />
<path d="M1032.5,115.06A5,5 0 1 1 1022.5,115.06A5,5 0 1 1 1032.5,115.06Z" style="fill:#7A9CFF" />
<path d="M1040.4,113.82A5,5 0 1 1 1030.4,113.82A5,5 0 1 1 1040.4,113.82Z" style="fill:#7A9CFF" />
<path d="M1048.3,115.52A5,5 0 1 1 1038.3,115.52A5,5 0 1 1 1048.3,115.52Z" style="fill:#7A9CFF" />
<path d="M1056.3,116.16A5,5 0 1 1 1046.3,116.16A5,5 0 1 1 1056.3,116.16Z" style="fill:#7A9CFF" />
<path d="M1064.2,118.33A5,5 0 1 1 1054.2,118.33A5,5 0 1 1 1064.2,118.33Z" style="fill:#7A9CFF" />
<path d="M1072.1,120.1A5,5 0 1 1 1062.1,120.1A5,5 0 1 1 1072.1,120.1Z" style="fill:#7A9CFF" />
<path d="M1080,117.84A5,5 0 1 1 1070,117.84A5,5 0 1 1 1080,117.84Z" style="fill:#7A9CFF" />
<path d="M141.14,974.14L1075,974.14" style="fill:none;stroke:#000000" />
<path d="M1075,114.54L1075,974.14" style="fill:none;stroke:#000000" />
<path d="M1013,927.49A8,8 0 1 1 997,927.49A8,8 0 1 1 1013,927.49Z" style="fill:#FF7AB4" />
<text x="752.76" y="-920.9" transform="scale(1, -1)"
	style="font-family:Helvetica;font-weight:normal;font-style:normal;font-size:28px">wiggly waveguide</text>
<path d="M1013,893.06A8,8 0 1 1 997,893.06A8,8 0 1 1 1013,893.06Z" style="fill:#7A9CFF" />
<text x="880.39" y="-886.46" transform="scale(1, -1)"
	style="font-family:Helvetica;font-weight:normal;font-style:normal;font-size:28px">no-chip</text>
</g>
</svg>
