<?xml version="1.0"?>
<!-- Generated by SVGo and Plotinum VG -->
<svg width="1080pt" height="1080pt" viewBox="0 0 1080 1080"
	xmlns="http://www.w3.org/2000/svg"
	xmlns:xlink="http://www.w3.org/1999/xlink">
<g transform="scale(1, -1) translate(0, -1080)">
<path d="M0,0L1080,0L1080,1080L0,1080Z" style="fill:#-8000000000000000-8000000000000000-8000000000000000;fill-opacity:0" />
<text x="122.09" y="-1015.2" transform="scale(1, -1)"
	style="font-family:Helvetica;font-weight:normal;font-style:normal;font-size:80px">1 mm glass slide CABS</text>
<text x="399.75" y="-17.172" transform="scale(1, -1)"
	style="font-family:Helvetica;font-weight:normal;font-style:normal;font-size:56px">Frequency (GHz)</text>
<text x="146.86" y="-119.73" transform="scale(1, -1)"
	style="font-family:Helvetica;font-weight:normal;font-style:normal;font-size:56px">10.5</text>
<text x="312.11" y="-119.73" transform="scale(1, -1)"
	style="font-family:Helvetica;font-weight:normal;font-style:normal;font-size:56px">10.7</text>
<text x="477.35" y="-119.73" transform="scale(1, -1)"
	style="font-family:Helvetica;font-weight:normal;font-style:normal;font-size:56px">10.9</text>
<text x="644.67" y="-119.73" transform="scale(1, -1)"
	style="font-family:Helvetica;font-weight:normal;font-style:normal;font-size:56px">11.1</text>
<text x="809.92" y="-119.73" transform="scale(1, -1)"
	style="font-family:Helvetica;font-weight:normal;font-style:normal;font-size:56px">11.3</text>
<text x="975.16" y="-119.73" transform="scale(1, -1)"
	style="font-family:Helvetica;font-weight:normal;font-style:normal;font-size:56px">11.5</text>
<path d="M201.36,181.12L201.36,173.12" style="fill:none;stroke:#000000;stroke-width:1.5" />
<path d="M283.98,177.12L283.98,173.12" style="fill:none;stroke:#000000;stroke-width:1.5" />
<path d="M366.6,181.12L366.6,173.12" style="fill:none;stroke:#000000;stroke-width:1.5" />
<path d="M449.23,177.12L449.23,173.12" style="fill:none;stroke:#000000;stroke-width:1.5" />
<path d="M531.85,181.12L531.85,173.12" style="fill:none;stroke:#000000;stroke-width:1.5" />
<path d="M614.47,177.12L614.47,173.12" style="fill:none;stroke:#000000;stroke-width:1.5" />
<path d="M697.09,181.12L697.09,173.12" style="fill:none;stroke:#000000;stroke-width:1.5" />
<path d="M779.71,177.12L779.71,173.12" style="fill:none;stroke:#000000;stroke-width:1.5" />
<path d="M862.34,181.12L862.34,173.12" style="fill:none;stroke:#000000;stroke-width:1.5" />
<path d="M944.96,177.12L944.96,173.12" style="fill:none;stroke:#000000;stroke-width:1.5" />
<path d="M1027.6,181.12L1027.6,173.12" style="fill:none;stroke:#000000;stroke-width:1.5" />
<path d="M201.36,173.12L1027.6,173.12" style="fill:none;stroke:#000000;stroke-width:1.5" />
<g transform="rotate(90)">
<text x="279.4" y="45.391" transform="scale(1, -1)"
	style="font-family:Helvetica;font-weight:normal;font-style:normal;font-size:56px">Spectral Density (uV)</text>
</g>
<text x="145.57" y="-175.91" transform="scale(1, -1)"
	style="font-family:Helvetica;font-weight:normal;font-style:normal;font-size:56px">0</text>
<text x="145.57" y="-283.52" transform="scale(1, -1)"
	style="font-family:Helvetica;font-weight:normal;font-style:normal;font-size:56px">2</text>
<text x="145.57" y="-391.12" transform="scale(1, -1)"
	style="font-family:Helvetica;font-weight:normal;font-style:normal;font-size:56px">4</text>
<text x="145.57" y="-498.72" transform="scale(1, -1)"
	style="font-family:Helvetica;font-weight:normal;font-style:normal;font-size:56px">6</text>
<text x="145.57" y="-606.33" transform="scale(1, -1)"
	style="font-family:Helvetica;font-weight:normal;font-style:normal;font-size:56px">8</text>
<text x="114.43" y="-713.93" transform="scale(1, -1)"
	style="font-family:Helvetica;font-weight:normal;font-style:normal;font-size:56px">10</text>
<path d="M208.28,190.02L200.28,190.02" style="fill:none;stroke:#000000;stroke-width:1.5" />
<path d="M208.28,297.62L200.28,297.62" style="fill:none;stroke:#000000;stroke-width:1.5" />
<path d="M208.28,405.23L200.28,405.23" style="fill:none;stroke:#000000;stroke-width:1.5" />
<path d="M208.28,512.83L200.28,512.83" style="fill:none;stroke:#000000;stroke-width:1.5" />
<path d="M208.28,620.44L200.28,620.44" style="fill:none;stroke:#000000;stroke-width:1.5" />
<path d="M208.28,728.04L200.28,728.04" style="fill:none;stroke:#000000;stroke-width:1.5" />
<path d="M200.28,182.24L200.28,905.62" style="fill:none;stroke:#000000;stroke-width:1.5" />
<path d="M210.53,193.64A5,5 0 1 1 200.53,193.64A5,5 0 1 1 210.53,193.64Z" style="fill:#1FD3AC" />
<path d="M214.7,196.46A5,5 0 1 1 204.7,196.46A5,5 0 1 1 214.7,196.46Z" style="fill:#1FD3AC" />
<path d="M218.86,235.09A5,5 0 1 1 208.86,235.09A5,5 0 1 1 218.86,235.09Z" style="fill:#1FD3AC" />
<path d="M223.03,195.04A5,5 0 1 1 213.03,195.04A5,5 0 1 1 223.03,195.04Z" style="fill:#1FD3AC" />
<path d="M227.2,196.78A5,5 0 1 1 217.2,196.78A5,5 0 1 1 227.2,196.78Z" style="fill:#1FD3AC" />
<path d="M231.37,197.94A5,5 0 1 1 221.37,197.94A5,5 0 1 1 231.37,197.94Z" style="fill:#1FD3AC" />
<path d="M235.54,196.9A5,5 0 1 1 225.54,196.9A5,5 0 1 1 235.54,196.9Z" style="fill:#1FD3AC" />
<path d="M239.71,194.58A5,5 0 1 1 229.71,194.58A5,5 0 1 1 239.71,194.58Z" style="fill:#1FD3AC" />
<path d="M243.88,197.76A5,5 0 1 1 233.88,197.76A5,5 0 1 1 243.88,197.76Z" style="fill:#1FD3AC" />
<path d="M248.05,196.48A5,5 0 1 1 238.05,196.48A5,5 0 1 1 248.05,196.48Z" style="fill:#1FD3AC" />
<path d="M252.22,196.85A5,5 0 1 1 242.22,196.85A5,5 0 1 1 252.22,196.85Z" style="fill:#1FD3AC" />
<path d="M256.38,197.55A5,5 0 1 1 246.38,197.55A5,5 0 1 1 256.38,197.55Z" style="fill:#1FD3AC" />
<path d="M260.55,196.47A5,5 0 1 1 250.55,196.47A5,5 0 1 1 260.55,196.47Z" style="fill:#1FD3AC" />
<path d="M264.72,197.82A5,5 0 1 1 254.72,197.82A5,5 0 1 1 264.72,197.82Z" style="fill:#1FD3AC" />
<path d="M268.89,199.62A5,5 0 1 1 258.89,199.62A5,5 0 1 1 268.89,199.62Z" style="fill:#1FD3AC" />
<path d="M273.06,199.87A5,5 0 1 1 263.06,199.87A5,5 0 1 1 273.06,199.87Z" style="fill:#1FD3AC" />
<path d="M277.23,197.66A5,5 0 1 1 267.23,197.66A5,5 0 1 1 277.23,197.66Z" style="fill:#1FD3AC" />
<path d="M281.4,200.44A5,5 0 1 1 271.4,200.44A5,5 0 1 1 281.4,200.44Z" style="fill:#1FD3AC" />
<path d="M285.57,199.83A5,5 0 1 1 275.57,199.83A5,5 0 1 1 285.57,199.83Z" style="fill:#1FD3AC" />
<path d="M289.73,200.88A5,5 0 1 1 279.73,200.88A5,5 0 1 1 289.73,200.88Z" style="fill:#1FD3AC" />
<path d="M293.9,202.23A5,5 0 1 1 283.9,202.23A5,5 0 1 1 293.9,202.23Z" style="fill:#1FD3AC" />
<path d="M298.07,203.21A5,5 0 1 1 288.07,203.21A5,5 0 1 1 298.07,203.21Z" style="fill:#1FD3AC" />
<path d="M302.24,242.74A5,5 0 1 1 292.24,242.74A5,5 0 1 1 302.24,242.74Z" style="fill:#1FD3AC" />
<path d="M306.41,233.26A5,5 0 1 1 296.41,233.26A5,5 0 1 1 306.41,233.26Z" style="fill:#1FD3AC" />
<path d="M310.58,251.62A5,5 0 1 1 300.58,251.62A5,5 0 1 1 310.58,251.62Z" style="fill:#1FD3AC" />
<path d="M314.75,207.89A5,5 0 1 1 304.75,207.89A5,5 0 1 1 314.75,207.89Z" style="fill:#1FD3AC" />
<path d="M318.92,206.95A5,5 0 1 1 308.92,206.95A5,5 0 1 1 318.92,206.95Z" style="fill:#1FD3AC" />
<path d="M323.08,211.37A5,5 0 1 1 313.08,211.37A5,5 0 1 1 323.08,211.37Z" style="fill:#1FD3AC" />
<path d="M327.25,207.16A5,5 0 1 1 317.25,207.16A5,5 0 1 1 327.25,207.16Z" style="fill:#1FD3AC" />
<path d="M331.42,210.05A5,5 0 1 1 321.42,210.05A5,5 0 1 1 331.42,210.05Z" style="fill:#1FD3AC" />
<path d="M335.59,212.09A5,5 0 1 1 325.59,212.09A5,5 0 1 1 335.59,212.09Z" style="fill:#1FD3AC" />
<path d="M339.76,215.33A5,5 0 1 1 329.76,215.33A5,5 0 1 1 339.76,215.33Z" style="fill:#1FD3AC" />
<path d="M343.93,223.27A5,5 0 1 1 333.93,223.27A5,5 0 1 1 343.93,223.27Z" style="fill:#1FD3AC" />
<path d="M348.1,221.31A5,5 0 1 1 338.1,221.31A5,5 0 1 1 348.1,221.31Z" style="fill:#1FD3AC" />
<path d="M352.27,225.74A5,5 0 1 1 342.27,225.74A5,5 0 1 1 352.27,225.74Z" style="fill:#1FD3AC" />
<path d="M356.44,226.92A5,5 0 1 1 346.44,226.92A5,5 0 1 1 356.44,226.92Z" style="fill:#1FD3AC" />
<path d="M360.6,265.46A5,5 0 1 1 350.6,265.46A5,5 0 1 1 360.6,265.46Z" style="fill:#1FD3AC" />
<path d="M364.77,234.84A5,5 0 1 1 354.77,234.84A5,5 0 1 1 364.77,234.84Z" style="fill:#1FD3AC" />
<path d="M368.94,237.97A5,5 0 1 1 358.94,237.97A5,5 0 1 1 368.94,237.97Z" style="fill:#1FD3AC" />
<path d="M373.11,242.62A5,5 0 1 1 363.11,242.62A5,5 0 1 1 373.11,242.62Z" style="fill:#1FD3AC" />
<path d="M377.28,242.94A5,5 0 1 1 367.28,242.94A5,5 0 1 1 377.28,242.94Z" style="fill:#1FD3AC" />
<path d="M381.45,255.69A5,5 0 1 1 371.45,255.69A5,5 0 1 1 381.45,255.69Z" style="fill:#1FD3AC" />
<path d="M385.62,266.66A5,5 0 1 1 375.62,266.66A5,5 0 1 1 385.62,266.66Z" style="fill:#1FD3AC" />
<path d="M389.79,262.84A5,5 0 1 1 379.79,262.84A5,5 0 1 1 389.79,262.84Z" style="fill:#1FD3AC" />
<path d="M393.95,266.02A5,5 0 1 1 383.95,266.02A5,5 0 1 1 393.95,266.02Z" style="fill:#1FD3AC" />
<path d="M398.12,281.41A5,5 0 1 1 388.12,281.41A5,5 0 1 1 398.12,281.41Z" style="fill:#1FD3AC" />
<path d="M402.29,293.86A5,5 0 1 1 392.29,293.86A5,5 0 1 1 402.29,293.86Z" style="fill:#1FD3AC" />
<path d="M406.46,303.1A5,5 0 1 1 396.46,303.1A5,5 0 1 1 406.46,303.1Z" style="fill:#1FD3AC" />
<path d="M410.63,311.17A5,5 0 1 1 400.63,311.17A5,5 0 1 1 410.63,311.17Z" style="fill:#1FD3AC" />
<path d="M414.8,333.8A5,5 0 1 1 404.8,333.8A5,5 0 1 1 414.8,333.8Z" style="fill:#1FD3AC" />
<path d="M418.97,338.48A5,5 0 1 1 408.97,338.48A5,5 0 1 1 418.97,338.48Z" style="fill:#1FD3AC" />
<path d="M423.14,373.95A5,5 0 1 1 413.14,373.95A5,5 0 1 1 423.14,373.95Z" style="fill:#1FD3AC" />
<path d="M427.3,404.3A5,5 0 1 1 417.3,404.3A5,5 0 1 1 427.3,404.3Z" style="fill:#1FD3AC" />
<path d="M431.47,451.93A5,5 0 1 1 421.47,451.93A5,5 0 1 1 431.47,451.93Z" style="fill:#1FD3AC" />
<path d="M435.64,510.05A5,5 0 1 1 425.64,510.05A5,5 0 1 1 435.64,510.05Z" style="fill:#1FD3AC" />
<path d="M439.81,522.92A5,5 0 1 1 429.81,522.92A5,5 0 1 1 439.81,522.92Z" style="fill:#1FD3AC" />
<path d="M443.98,549.22A5,5 0 1 1 433.98,549.22A5,5 0 1 1 443.98,549.22Z" style="fill:#1FD3AC" />
<path d="M448.15,653.23A5,5 0 1 1 438.15,653.23A5,5 0 1 1 448.15,653.23Z" style="fill:#1FD3AC" />
<path d="M452.32,781.81A5,5 0 1 1 442.32,781.81A5,5 0 1 1 452.32,781.81Z" style="fill:#1FD3AC" />
<path d="M456.49,834.37A5,5 0 1 1 446.49,834.37A5,5 0 1 1 456.49,834.37Z" style="fill:#1FD3AC" />
<path d="M460.65,849.89A5,5 0 1 1 450.65,849.89A5,5 0 1 1 460.65,849.89Z" style="fill:#1FD3AC" />
<path d="M464.82,738.18A5,5 0 1 1 454.82,738.18A5,5 0 1 1 464.82,738.18Z" style="fill:#1FD3AC" />
<path d="M468.99,625.47A5,5 0 1 1 458.99,625.47A5,5 0 1 1 468.99,625.47Z" style="fill:#1FD3AC" />
<path d="M473.16,630.09A5,5 0 1 1 463.16,630.09A5,5 0 1 1 473.16,630.09Z" style="fill:#1FD3AC" />
<path d="M477.33,736.72A5,5 0 1 1 467.33,736.72A5,5 0 1 1 477.33,736.72Z" style="fill:#1FD3AC" />
<path d="M481.5,833.31A5,5 0 1 1 471.5,833.31A5,5 0 1 1 481.5,833.31Z" style="fill:#1FD3AC" />
<path d="M485.67,905.62A5,5 0 1 1 475.67,905.62A5,5 0 1 1 485.67,905.62Z" style="fill:#1FD3AC" />
<path d="M489.84,873.9A5,5 0 1 1 479.84,873.9A5,5 0 1 1 489.84,873.9Z" style="fill:#1FD3AC" />
<path d="M494.01,866.47A5,5 0 1 1 484.01,866.47A5,5 0 1 1 494.01,866.47Z" style="fill:#1FD3AC" />
<path d="M498.17,831.93A5,5 0 1 1 488.17,831.93A5,5 0 1 1 498.17,831.93Z" style="fill:#1FD3AC" />
<path d="M502.34,715.26A5,5 0 1 1 492.34,715.26A5,5 0 1 1 502.34,715.26Z" style="fill:#1FD3AC" />
<path d="M506.51,603.78A5,5 0 1 1 496.51,603.78A5,5 0 1 1 506.51,603.78Z" style="fill:#1FD3AC" />
<path d="M510.68,523.1A5,5 0 1 1 500.68,523.1A5,5 0 1 1 510.68,523.1Z" style="fill:#1FD3AC" />
<path d="M514.85,435.37A5,5 0 1 1 504.85,435.37A5,5 0 1 1 514.85,435.37Z" style="fill:#1FD3AC" />
<path d="M519.02,393.87A5,5 0 1 1 509.02,393.87A5,5 0 1 1 519.02,393.87Z" style="fill:#1FD3AC" />
<path d="M523.19,340.51A5,5 0 1 1 513.19,340.51A5,5 0 1 1 523.19,340.51Z" style="fill:#1FD3AC" />
<path d="M527.36,325.13A5,5 0 1 1 517.36,325.13A5,5 0 1 1 527.36,325.13Z" style="fill:#1FD3AC" />
<path d="M531.52,309.77A5,5 0 1 1 521.52,309.77A5,5 0 1 1 531.52,309.77Z" style="fill:#1FD3AC" />
<path d="M535.69,294.56A5,5 0 1 1 525.69,294.56A5,5 0 1 1 535.69,294.56Z" style="fill:#1FD3AC" />
<path d="M539.86,277.05A5,5 0 1 1 529.86,277.05A5,5 0 1 1 539.86,277.05Z" style="fill:#1FD3AC" />
<path d="M544.03,307.83A5,5 0 1 1 534.03,307.83A5,5 0 1 1 544.03,307.83Z" style="fill:#1FD3AC" />
<path d="M548.2,256.94A5,5 0 1 1 538.2,256.94A5,5 0 1 1 548.2,256.94Z" style="fill:#1FD3AC" />
<path d="M552.37,244.06A5,5 0 1 1 542.37,244.06A5,5 0 1 1 552.37,244.06Z" style="fill:#1FD3AC" />
<path d="M556.54,241.86A5,5 0 1 1 546.54,241.86A5,5 0 1 1 556.54,241.86Z" style="fill:#1FD3AC" />
<path d="M560.71,235.91A5,5 0 1 1 550.71,235.91A5,5 0 1 1 560.71,235.91Z" style="fill:#1FD3AC" />
<path d="M564.87,232.28A5,5 0 1 1 554.87,232.28A5,5 0 1 1 564.87,232.28Z" style="fill:#1FD3AC" />
<path d="M569.04,216.61A5,5 0 1 1 559.04,216.61A5,5 0 1 1 569.04,216.61Z" style="fill:#1FD3AC" />
<path d="M573.21,218.69A5,5 0 1 1 563.21,218.69A5,5 0 1 1 573.21,218.69Z" style="fill:#1FD3AC" />
<path d="M577.38,215.76A5,5 0 1 1 567.38,215.76A5,5 0 1 1 577.38,215.76Z" style="fill:#1FD3AC" />
<path d="M581.55,210.93A5,5 0 1 1 571.55,210.93A5,5 0 1 1 581.55,210.93Z" style="fill:#1FD3AC" />
<path d="M585.72,207.73A5,5 0 1 1 575.72,207.73A5,5 0 1 1 585.72,207.73Z" style="fill:#1FD3AC" />
<path d="M589.89,212.03A5,5 0 1 1 579.89,212.03A5,5 0 1 1 589.89,212.03Z" style="fill:#1FD3AC" />
<path d="M594.06,212.18A5,5 0 1 1 584.06,212.18A5,5 0 1 1 594.06,212.18Z" style="fill:#1FD3AC" />
<path d="M598.23,213.92A5,5 0 1 1 588.23,213.92A5,5 0 1 1 598.23,213.92Z" style="fill:#1FD3AC" />
<path d="M602.39,208.44A5,5 0 1 1 592.39,208.44A5,5 0 1 1 602.39,208.44Z" style="fill:#1FD3AC" />
<path d="M606.56,207.62A5,5 0 1 1 596.56,207.62A5,5 0 1 1 606.56,207.62Z" style="fill:#1FD3AC" />
<path d="M610.73,205.25A5,5 0 1 1 600.73,205.25A5,5 0 1 1 610.73,205.25Z" style="fill:#1FD3AC" />
<path d="M614.9,206.39A5,5 0 1 1 604.9,206.39A5,5 0 1 1 614.9,206.39Z" style="fill:#1FD3AC" />
<path d="M619.07,205.24A5,5 0 1 1 609.07,205.24A5,5 0 1 1 619.07,205.24Z" style="fill:#1FD3AC" />
<path d="M623.24,204.47A5,5 0 1 1 613.24,204.47A5,5 0 1 1 623.24,204.47Z" style="fill:#1FD3AC" />
<path d="M627.41,207.15A5,5 0 1 1 617.41,207.15A5,5 0 1 1 627.41,207.15Z" style="fill:#1FD3AC" />
<path d="M631.58,209.65A5,5 0 1 1 621.58,209.65A5,5 0 1 1 631.58,209.65Z" style="fill:#1FD3AC" />
<path d="M635.74,208.34A5,5 0 1 1 625.74,208.34A5,5 0 1 1 635.74,208.34Z" style="fill:#1FD3AC" />
<path d="M639.91,208.63A5,5 0 1 1 629.91,208.63A5,5 0 1 1 639.91,208.63Z" style="fill:#1FD3AC" />
<path d="M644.08,206.54A5,5 0 1 1 634.08,206.54A5,5 0 1 1 644.08,206.54Z" style="fill:#1FD3AC" />
<path d="M648.25,244.52A5,5 0 1 1 638.25,244.52A5,5 0 1 1 648.25,244.52Z" style="fill:#1FD3AC" />
<path d="M652.42,202.9A5,5 0 1 1 642.42,202.9A5,5 0 1 1 652.42,202.9Z" style="fill:#1FD3AC" />
<path d="M656.59,202.45A5,5 0 1 1 646.59,202.45A5,5 0 1 1 656.59,202.45Z" style="fill:#1FD3AC" />
<path d="M660.76,199.77A5,5 0 1 1 650.76,199.77A5,5 0 1 1 660.76,199.77Z" style="fill:#1FD3AC" />
<path d="M664.93,199.71A5,5 0 1 1 654.93,199.71A5,5 0 1 1 664.93,199.71Z" style="fill:#1FD3AC" />
<path d="M669.09,197.88A5,5 0 1 1 659.09,197.88A5,5 0 1 1 669.09,197.88Z" style="fill:#1FD3AC" />
<path d="M673.26,200.74A5,5 0 1 1 663.26,200.74A5,5 0 1 1 673.26,200.74Z" style="fill:#1FD3AC" />
<path d="M677.43,199.23A5,5 0 1 1 667.43,199.23A5,5 0 1 1 677.43,199.23Z" style="fill:#1FD3AC" />
<path d="M681.6,198.35A5,5 0 1 1 671.6,198.35A5,5 0 1 1 681.6,198.35Z" style="fill:#1FD3AC" />
<path d="M685.77,198.22A5,5 0 1 1 675.77,198.22A5,5 0 1 1 685.77,198.22Z" style="fill:#1FD3AC" />
<path d="M689.94,196.79A5,5 0 1 1 679.94,196.79A5,5 0 1 1 689.94,196.79Z" style="fill:#1FD3AC" />
<path d="M694.11,197.92A5,5 0 1 1 684.11,197.92A5,5 0 1 1 694.11,197.92Z" style="fill:#1FD3AC" />
<path d="M698.28,200.91A5,5 0 1 1 688.28,200.91A5,5 0 1 1 698.28,200.91Z" style="fill:#1FD3AC" />
<path d="M702.44,198.45A5,5 0 1 1 692.44,198.45A5,5 0 1 1 702.44,198.45Z" style="fill:#1FD3AC" />
<path d="M706.61,200.54A5,5 0 1 1 696.61,200.54A5,5 0 1 1 706.61,200.54Z" style="fill:#1FD3AC" />
<path d="M710.78,198.84A5,5 0 1 1 700.78,198.84A5,5 0 1 1 710.78,198.84Z" style="fill:#1FD3AC" />
<path d="M714.95,197.74A5,5 0 1 1 704.95,197.74A5,5 0 1 1 714.95,197.74Z" style="fill:#1FD3AC" />
<path d="M719.12,194.38A5,5 0 1 1 709.12,194.38A5,5 0 1 1 719.12,194.38Z" style="fill:#1FD3AC" />
<path d="M723.29,197.45A5,5 0 1 1 713.29,197.45A5,5 0 1 1 723.29,197.45Z" style="fill:#1FD3AC" />
<path d="M727.46,198.2A5,5 0 1 1 717.46,198.2A5,5 0 1 1 727.46,198.2Z" style="fill:#1FD3AC" />
<path d="M731.63,198.52A5,5 0 1 1 721.63,198.52A5,5 0 1 1 731.63,198.52Z" style="fill:#1FD3AC" />
<path d="M735.8,197.77A5,5 0 1 1 725.8,197.77A5,5 0 1 1 735.8,197.77Z" style="fill:#1FD3AC" />
<path d="M739.96,197.11A5,5 0 1 1 729.96,197.11A5,5 0 1 1 739.96,197.11Z" style="fill:#1FD3AC" />
<path d="M744.13,198.63A5,5 0 1 1 734.13,198.63A5,5 0 1 1 744.13,198.63Z" style="fill:#1FD3AC" />
<path d="M748.3,198A5,5 0 1 1 738.3,198A5,5 0 1 1 748.3,198Z" style="fill:#1FD3AC" />
<path d="M752.47,197.8A5,5 0 1 1 742.47,197.8A5,5 0 1 1 752.47,197.8Z" style="fill:#1FD3AC" />
<path d="M756.64,200.35A5,5 0 1 1 746.64,200.35A5,5 0 1 1 756.64,200.35Z" style="fill:#1FD3AC" />
<path d="M760.81,196.45A5,5 0 1 1 750.81,196.45A5,5 0 1 1 760.81,196.45Z" style="fill:#1FD3AC" />
<path d="M764.98,195.21A5,5 0 1 1 754.98,195.21A5,5 0 1 1 764.98,195.21Z" style="fill:#1FD3AC" />
<path d="M769.15,197.51A5,5 0 1 1 759.15,197.51A5,5 0 1 1 769.15,197.51Z" style="fill:#1FD3AC" />
<path d="M773.31,197.66A5,5 0 1 1 763.31,197.66A5,5 0 1 1 773.31,197.66Z" style="fill:#1FD3AC" />
<path d="M777.48,197.84A5,5 0 1 1 767.48,197.84A5,5 0 1 1 777.48,197.84Z" style="fill:#1FD3AC" />
<path d="M781.65,197.38A5,5 0 1 1 771.65,197.38A5,5 0 1 1 781.65,197.38Z" style="fill:#1FD3AC" />
<path d="M785.82,195.92A5,5 0 1 1 775.82,195.92A5,5 0 1 1 785.82,195.92Z" style="fill:#1FD3AC" />
<path d="M789.99,196.92A5,5 0 1 1 779.99,196.92A5,5 0 1 1 789.99,196.92Z" style="fill:#1FD3AC" />
<path d="M794.16,196.34A5,5 0 1 1 784.16,196.34A5,5 0 1 1 794.16,196.34Z" style="fill:#1FD3AC" />
<path d="M798.33,189.61A5,5 0 1 1 788.33,189.61A5,5 0 1 1 798.33,189.61Z" style="fill:#1FD3AC" />
<path d="M802.5,191.46A5,5 0 1 1 792.5,191.46A5,5 0 1 1 802.5,191.46Z" style="fill:#1FD3AC" />
<path d="M806.66,196.13A5,5 0 1 1 796.66,196.13A5,5 0 1 1 806.66,196.13Z" style="fill:#1FD3AC" />
<path d="M810.83,195.59A5,5 0 1 1 800.83,195.59A5,5 0 1 1 810.83,195.59Z" style="fill:#1FD3AC" />
<path d="M815,197.31A5,5 0 1 1 805,197.31A5,5 0 1 1 815,197.31Z" style="fill:#1FD3AC" />
<path d="M819.17,234.31A5,5 0 1 1 809.17,234.31A5,5 0 1 1 819.17,234.31Z" style="fill:#1FD3AC" />
<path d="M823.34,198.57A5,5 0 1 1 813.34,198.57A5,5 0 1 1 823.34,198.57Z" style="fill:#1FD3AC" />
<path d="M827.51,196.76A5,5 0 1 1 817.51,196.76A5,5 0 1 1 827.51,196.76Z" style="fill:#1FD3AC" />
<path d="M831.68,195.87A5,5 0 1 1 821.68,195.87A5,5 0 1 1 831.68,195.87Z" style="fill:#1FD3AC" />
<path d="M835.85,193.41A5,5 0 1 1 825.85,193.41A5,5 0 1 1 835.85,193.41Z" style="fill:#1FD3AC" />
<path d="M840.02,182.24A5,5 0 1 1 830.02,182.24A5,5 0 1 1 840.02,182.24Z" style="fill:#1FD3AC" />
<path d="M844.18,242.38A5,5 0 1 1 834.18,242.38A5,5 0 1 1 844.18,242.38Z" style="fill:#1FD3AC" />
<path d="M848.35,193.16A5,5 0 1 1 838.35,193.16A5,5 0 1 1 848.35,193.16Z" style="fill:#1FD3AC" />
<path d="M852.52,196.5A5,5 0 1 1 842.52,196.5A5,5 0 1 1 852.52,196.5Z" style="fill:#1FD3AC" />
<path d="M856.69,192.63A5,5 0 1 1 846.69,192.63A5,5 0 1 1 856.69,192.63Z" style="fill:#1FD3AC" />
<path d="M860.86,195.95A5,5 0 1 1 850.86,195.95A5,5 0 1 1 860.86,195.95Z" style="fill:#1FD3AC" />
<path d="M865.03,193.88A5,5 0 1 1 855.03,193.88A5,5 0 1 1 865.03,193.88Z" style="fill:#1FD3AC" />
<path d="M869.2,192.61A5,5 0 1 1 859.2,192.61A5,5 0 1 1 869.2,192.61Z" style="fill:#1FD3AC" />
<path d="M873.37,190.53A5,5 0 1 1 863.37,190.53A5,5 0 1 1 873.37,190.53Z" style="fill:#1FD3AC" />
<path d="M877.53,190.71A5,5 0 1 1 867.53,190.71A5,5 0 1 1 877.53,190.71Z" style="fill:#1FD3AC" />
<path d="M881.7,193.3A5,5 0 1 1 871.7,193.3A5,5 0 1 1 881.7,193.3Z" style="fill:#1FD3AC" />
<path d="M885.87,190.54A5,5 0 1 1 875.87,190.54A5,5 0 1 1 885.87,190.54Z" style="fill:#1FD3AC" />
<path d="M890.04,192.43A5,5 0 1 1 880.04,192.43A5,5 0 1 1 890.04,192.43Z" style="fill:#1FD3AC" />
<path d="M894.21,191.63A5,5 0 1 1 884.21,191.63A5,5 0 1 1 894.21,191.63Z" style="fill:#1FD3AC" />
<path d="M898.38,194.23A5,5 0 1 1 888.38,194.23A5,5 0 1 1 898.38,194.23Z" style="fill:#1FD3AC" />
<path d="M902.55,189.73A5,5 0 1 1 892.55,189.73A5,5 0 1 1 902.55,189.73Z" style="fill:#1FD3AC" />
<path d="M906.72,190.62A5,5 0 1 1 896.72,190.62A5,5 0 1 1 906.72,190.62Z" style="fill:#1FD3AC" />
<path d="M910.88,184.14A5,5 0 1 1 900.88,184.14A5,5 0 1 1 910.88,184.14Z" style="fill:#1FD3AC" />
<path d="M915.05,191.09A5,5 0 1 1 905.05,191.09A5,5 0 1 1 915.05,191.09Z" style="fill:#1FD3AC" />
<path d="M919.22,192.46A5,5 0 1 1 909.22,192.46A5,5 0 1 1 919.22,192.46Z" style="fill:#1FD3AC" />
<path d="M923.39,192.83A5,5 0 1 1 913.39,192.83A5,5 0 1 1 923.39,192.83Z" style="fill:#1FD3AC" />
<path d="M927.56,191.68A5,5 0 1 1 917.56,191.68A5,5 0 1 1 927.56,191.68Z" style="fill:#1FD3AC" />
<path d="M931.73,190.32A5,5 0 1 1 921.73,190.32A5,5 0 1 1 931.73,190.32Z" style="fill:#1FD3AC" />
<path d="M935.9,190.14A5,5 0 1 1 925.9,190.14A5,5 0 1 1 935.9,190.14Z" style="fill:#1FD3AC" />
<path d="M940.07,191.51A5,5 0 1 1 930.07,191.51A5,5 0 1 1 940.07,191.51Z" style="fill:#1FD3AC" />
<path d="M944.23,190.11A5,5 0 1 1 934.23,190.11A5,5 0 1 1 944.23,190.11Z" style="fill:#1FD3AC" />
<path d="M948.4,226.87A5,5 0 1 1 938.4,226.87A5,5 0 1 1 948.4,226.87Z" style="fill:#1FD3AC" />
<path d="M952.57,190.31A5,5 0 1 1 942.57,190.31A5,5 0 1 1 952.57,190.31Z" style="fill:#1FD3AC" />
<path d="M956.74,216.81A5,5 0 1 1 946.74,216.81A5,5 0 1 1 956.74,216.81Z" style="fill:#1FD3AC" />
<path d="M960.91,189.99A5,5 0 1 1 950.91,189.99A5,5 0 1 1 960.91,189.99Z" style="fill:#1FD3AC" />
<path d="M965.08,191.82A5,5 0 1 1 955.08,191.82A5,5 0 1 1 965.08,191.82Z" style="fill:#1FD3AC" />
<path d="M969.25,191.8A5,5 0 1 1 959.25,191.8A5,5 0 1 1 969.25,191.8Z" style="fill:#1FD3AC" />
<path d="M973.42,191.44A5,5 0 1 1 963.42,191.44A5,5 0 1 1 973.42,191.44Z" style="fill:#1FD3AC" />
<path d="M977.59,190.7A5,5 0 1 1 967.59,190.7A5,5 0 1 1 977.59,190.7Z" style="fill:#1FD3AC" />
<path d="M981.75,189.45A5,5 0 1 1 971.75,189.45A5,5 0 1 1 981.75,189.45Z" style="fill:#1FD3AC" />
<path d="M985.92,191.26A5,5 0 1 1 975.92,191.26A5,5 0 1 1 985.92,191.26Z" style="fill:#1FD3AC" />
<path d="M990.09,189.27A5,5 0 1 1 980.09,189.27A5,5 0 1 1 990.09,189.27Z" style="fill:#1FD3AC" />
<path d="M994.26,190.85A5,5 0 1 1 984.26,190.85A5,5 0 1 1 994.26,190.85Z" style="fill:#1FD3AC" />
<path d="M998.43,189.23A5,5 0 1 1 988.43,189.23A5,5 0 1 1 998.43,189.23Z" style="fill:#1FD3AC" />
<path d="M1002.6,191.02A5,5 0 1 1 992.6,191.02A5,5 0 1 1 1002.6,191.02Z" style="fill:#1FD3AC" />
<path d="M1006.8,190.49A5,5 0 1 1 996.77,190.49A5,5 0 1 1 1006.8,190.49Z" style="fill:#1FD3AC" />
<path d="M1010.9,189.86A5,5 0 1 1 1000.9,189.86A5,5 0 1 1 1010.9,189.86Z" style="fill:#1FD3AC" />
<path d="M1015.1,191.49A5,5 0 1 1 1005.1,191.49A5,5 0 1 1 1015.1,191.49Z" style="fill:#1FD3AC" />
<path d="M1019.3,190.77A5,5 0 1 1 1009.3,190.77A5,5 0 1 1 1019.3,190.77Z" style="fill:#1FD3AC" />
<path d="M1023.4,191.87A5,5 0 1 1 1013.4,191.87A5,5 0 1 1 1023.4,191.87Z" style="fill:#1FD3AC" />
<path d="M1027.6,224.35A5,5 0 1 1 1017.6,224.35A5,5 0 1 1 1027.6,224.35Z" style="fill:#1FD3AC" />
<path d="M1038,852.33A8,8 0 1 1 1022,852.33A8,8 0 1 1 1038,852.33Z" style="fill:#1FD3AC" />
<text x="500.81" y="-839.14" transform="scale(1, -1)"
	style="font-family:Helvetica;font-weight:normal;font-style:normal;font-size:56px">10 GHz Glass Slide</text>
</g>
</svg>
