<?xml version="1.0"?>
<!-- Generated by SVGo and Plotinum VG -->
<svg width="1080pt" height="1080pt" viewBox="0 0 1080 1080"
	xmlns="http://www.w3.org/2000/svg"
	xmlns:xlink="http://www.w3.org/1999/xlink">
<g transform="scale(1, -1) translate(0, -1080)">
<path d="M0,0L1080,0L1080,1080L0,1080Z" style="fill:#-8000000000000000-8000000000000000-8000000000000000;fill-opacity:0" />
<text x="346.9" y="-1039.5" transform="scale(1, -1)"
	style="font-family:Helvetica;font-weight:normal;font-style:normal;font-size:50px">1 mm CS2 CABS</text>
<text x="497.32" y="-11.039" transform="scale(1, -1)"
	style="font-family:Helvetica;font-weight:normal;font-style:normal;font-size:36px">Frequency (GHz)</text>
<text x="242.18" y="-71.258" transform="scale(1, -1)"
	style="font-family:Helvetica;font-weight:normal;font-style:normal;font-size:36px">2.35</text>
<text x="423.31" y="-71.258" transform="scale(1, -1)"
	style="font-family:Helvetica;font-weight:normal;font-style:normal;font-size:36px">2.45</text>
<text x="604.44" y="-71.258" transform="scale(1, -1)"
	style="font-family:Helvetica;font-weight:normal;font-style:normal;font-size:36px">2.55</text>
<text x="785.57" y="-71.258" transform="scale(1, -1)"
	style="font-family:Helvetica;font-weight:normal;font-style:normal;font-size:36px">2.65</text>
<text x="966.7" y="-71.258" transform="scale(1, -1)"
	style="font-family:Helvetica;font-weight:normal;font-style:normal;font-size:36px">2.75</text>
<path d="M277.21,116.44L277.21,108.44" style="fill:none;stroke:#000000;stroke-width:1.5" />
<path d="M367.78,112.44L367.78,108.44" style="fill:none;stroke:#000000;stroke-width:1.5" />
<path d="M458.34,116.44L458.34,108.44" style="fill:none;stroke:#000000;stroke-width:1.5" />
<path d="M548.91,112.44L548.91,108.44" style="fill:none;stroke:#000000;stroke-width:1.5" />
<path d="M639.47,116.44L639.47,108.44" style="fill:none;stroke:#000000;stroke-width:1.5" />
<path d="M730.04,112.44L730.04,108.44" style="fill:none;stroke:#000000;stroke-width:1.5" />
<path d="M820.61,116.44L820.61,108.44" style="fill:none;stroke:#000000;stroke-width:1.5" />
<path d="M911.17,112.44L911.17,108.44" style="fill:none;stroke:#000000;stroke-width:1.5" />
<path d="M1001.7,116.44L1001.7,108.44" style="fill:none;stroke:#000000;stroke-width:1.5" />
<path d="M195.71,108.44L1075,108.44" style="fill:none;stroke:#000000;stroke-width:1.5" />
<g transform="rotate(90)">
<text x="371.42" y="29.18" transform="scale(1, -1)"
	style="font-family:Helvetica;font-weight:normal;font-style:normal;font-size:36px">Spectral Density (uV)</text>
</g>
<text x="87.869" y="-207.91" transform="scale(1, -1)"
	style="font-family:Helvetica;font-weight:normal;font-style:normal;font-size:36px">29.84</text>
<text x="87.869" y="-424.24" transform="scale(1, -1)"
	style="font-family:Helvetica;font-weight:normal;font-style:normal;font-size:36px">57.91</text>
<text x="87.869" y="-640.57" transform="scale(1, -1)"
	style="font-family:Helvetica;font-weight:normal;font-style:normal;font-size:36px">85.98</text>
<text x="70.52" y="-856.9" transform="scale(1, -1)"
	style="font-family:Helvetica;font-weight:normal;font-style:normal;font-size:36px">114.05</text>
<path d="M199.96,108.82L195.96,108.82" style="fill:none;stroke:#000000;stroke-width:1.5" />
<path d="M203.96,216.98L195.96,216.98" style="fill:none;stroke:#000000;stroke-width:1.5" />
<path d="M199.96,325.15L195.96,325.15" style="fill:none;stroke:#000000;stroke-width:1.5" />
<path d="M203.96,433.31L195.96,433.31" style="fill:none;stroke:#000000;stroke-width:1.5" />
<path d="M199.96,541.48L195.96,541.48" style="fill:none;stroke:#000000;stroke-width:1.5" />
<path d="M203.96,649.64L195.96,649.64" style="fill:none;stroke:#000000;stroke-width:1.5" />
<path d="M199.96,757.81L195.96,757.81" style="fill:none;stroke:#000000;stroke-width:1.5" />
<path d="M203.96,865.98L195.96,865.98" style="fill:none;stroke:#000000;stroke-width:1.5" />
<path d="M199.96,974.14L195.96,974.14" style="fill:none;stroke:#000000;stroke-width:1.5" />
<path d="M199.96,974.14L195.96,974.14" style="fill:none;stroke:#000000;stroke-width:1.5" />
<path d="M195.96,108.82L195.96,974.14" style="fill:none;stroke:#000000;stroke-width:1.5" />
<path d="M195.71,128.81L195.71,153.71" style="fill:none;stroke:#1FD3AC" />
<path d="M193.21,128.81L198.21,128.81" style="fill:none;stroke:#1FD3AC" />
<path d="M193.21,153.71L198.21,153.71" style="fill:none;stroke:#1FD3AC" />
<path d="M204.77,135.4L204.77,155.49" style="fill:none;stroke:#1FD3AC" />
<path d="M202.27,135.4L207.27,135.4" style="fill:none;stroke:#1FD3AC" />
<path d="M202.27,155.49L207.27,155.49" style="fill:none;stroke:#1FD3AC" />
<path d="M213.84,153.58L213.84,169.79" style="fill:none;stroke:#1FD3AC" />
<path d="M211.34,153.58L216.34,153.58" style="fill:none;stroke:#1FD3AC" />
<path d="M211.34,169.79L216.34,169.79" style="fill:none;stroke:#1FD3AC" />
<path d="M222.9,162.52L222.9,177.46" style="fill:none;stroke:#1FD3AC" />
<path d="M220.4,162.52L225.4,162.52" style="fill:none;stroke:#1FD3AC" />
<path d="M220.4,177.46L225.4,177.46" style="fill:none;stroke:#1FD3AC" />
<path d="M231.97,152.28L231.97,184.91" style="fill:none;stroke:#1FD3AC" />
<path d="M229.47,152.28L234.47,152.28" style="fill:none;stroke:#1FD3AC" />
<path d="M229.47,184.91L234.47,184.91" style="fill:none;stroke:#1FD3AC" />
<path d="M241.03,159.43L241.03,193.57" style="fill:none;stroke:#1FD3AC" />
<path d="M238.53,159.43L243.53,159.43" style="fill:none;stroke:#1FD3AC" />
<path d="M238.53,193.57L243.53,193.57" style="fill:none;stroke:#1FD3AC" />
<path d="M250.1,142.04L250.1,183.55" style="fill:none;stroke:#1FD3AC" />
<path d="M247.6,142.04L252.6,142.04" style="fill:none;stroke:#1FD3AC" />
<path d="M247.6,183.55L252.6,183.55" style="fill:none;stroke:#1FD3AC" />
<path d="M259.16,138.2L259.16,175.22" style="fill:none;stroke:#1FD3AC" />
<path d="M256.66,138.2L261.66,138.2" style="fill:none;stroke:#1FD3AC" />
<path d="M256.66,175.22L261.66,175.22" style="fill:none;stroke:#1FD3AC" />
<path d="M268.23,136.38L268.23,177.86" style="fill:none;stroke:#1FD3AC" />
<path d="M265.73,136.38L270.73,136.38" style="fill:none;stroke:#1FD3AC" />
<path d="M265.73,177.86L270.73,177.86" style="fill:none;stroke:#1FD3AC" />
<path d="M277.29,130.69L277.29,156.15" style="fill:none;stroke:#1FD3AC" />
<path d="M274.79,130.69L279.79,130.69" style="fill:none;stroke:#1FD3AC" />
<path d="M274.79,156.15L279.79,156.15" style="fill:none;stroke:#1FD3AC" />
<path d="M286.36,146.55L286.36,168.77" style="fill:none;stroke:#1FD3AC" />
<path d="M283.86,146.55L288.86,146.55" style="fill:none;stroke:#1FD3AC" />
<path d="M283.86,168.77L288.86,168.77" style="fill:none;stroke:#1FD3AC" />
<path d="M295.42,150.62L295.42,169.07" style="fill:none;stroke:#1FD3AC" />
<path d="M292.92,150.62L297.92,150.62" style="fill:none;stroke:#1FD3AC" />
<path d="M292.92,169.07L297.92,169.07" style="fill:none;stroke:#1FD3AC" />
<path d="M304.49,170.94L304.49,188.49" style="fill:none;stroke:#1FD3AC" />
<path d="M301.99,170.94L306.99,170.94" style="fill:none;stroke:#1FD3AC" />
<path d="M301.99,188.49L306.99,188.49" style="fill:none;stroke:#1FD3AC" />
<path d="M313.55,178.2L313.55,194.08" style="fill:none;stroke:#1FD3AC" />
<path d="M311.05,178.2L316.05,178.2" style="fill:none;stroke:#1FD3AC" />
<path d="M311.05,194.08L316.05,194.08" style="fill:none;stroke:#1FD3AC" />
<path d="M322.62,179.84L322.62,205.9" style="fill:none;stroke:#1FD3AC" />
<path d="M320.12,179.84L325.12,179.84" style="fill:none;stroke:#1FD3AC" />
<path d="M320.12,205.9L325.12,205.9" style="fill:none;stroke:#1FD3AC" />
<path d="M331.68,182.58L331.68,198.7" style="fill:none;stroke:#1FD3AC" />
<path d="M329.18,182.58L334.18,182.58" style="fill:none;stroke:#1FD3AC" />
<path d="M329.18,198.7L334.18,198.7" style="fill:none;stroke:#1FD3AC" />
<path d="M340.75,181.25L340.75,212.28" style="fill:none;stroke:#1FD3AC" />
<path d="M338.25,181.25L343.25,181.25" style="fill:none;stroke:#1FD3AC" />
<path d="M338.25,212.28L343.25,212.28" style="fill:none;stroke:#1FD3AC" />
<path d="M349.81,187.39L349.81,206.1" style="fill:none;stroke:#1FD3AC" />
<path d="M347.31,187.39L352.31,187.39" style="fill:none;stroke:#1FD3AC" />
<path d="M347.31,206.1L352.31,206.1" style="fill:none;stroke:#1FD3AC" />
<path d="M358.88,179.75L358.88,205.25" style="fill:none;stroke:#1FD3AC" />
<path d="M356.38,179.75L361.38,179.75" style="fill:none;stroke:#1FD3AC" />
<path d="M356.38,205.25L361.38,205.25" style="fill:none;stroke:#1FD3AC" />
<path d="M367.94,182.01L367.94,211.3" style="fill:none;stroke:#1FD3AC" />
<path d="M365.44,182.01L370.44,182.01" style="fill:none;stroke:#1FD3AC" />
<path d="M365.44,211.3L370.44,211.3" style="fill:none;stroke:#1FD3AC" />
<path d="M377.01,170.35L377.01,207.07" style="fill:none;stroke:#1FD3AC" />
<path d="M374.51,170.35L379.51,170.35" style="fill:none;stroke:#1FD3AC" />
<path d="M374.51,207.07L379.51,207.07" style="fill:none;stroke:#1FD3AC" />
<path d="M386.07,172.04L386.07,216.7" style="fill:none;stroke:#1FD3AC" />
<path d="M383.57,172.04L388.57,172.04" style="fill:none;stroke:#1FD3AC" />
<path d="M383.57,216.7L388.57,216.7" style="fill:none;stroke:#1FD3AC" />
<path d="M395.14,186.46L395.14,212.39" style="fill:none;stroke:#1FD3AC" />
<path d="M392.64,186.46L397.64,186.46" style="fill:none;stroke:#1FD3AC" />
<path d="M392.64,212.39L397.64,212.39" style="fill:none;stroke:#1FD3AC" />
<path d="M404.2,185.2L404.2,208.71" style="fill:none;stroke:#1FD3AC" />
<path d="M401.7,185.2L406.7,185.2" style="fill:none;stroke:#1FD3AC" />
<path d="M401.7,208.71L406.7,208.71" style="fill:none;stroke:#1FD3AC" />
<path d="M413.27,173.98L413.27,194.41" style="fill:none;stroke:#1FD3AC" />
<path d="M410.77,173.98L415.77,173.98" style="fill:none;stroke:#1FD3AC" />
<path d="M410.77,194.41L415.77,194.41" style="fill:none;stroke:#1FD3AC" />
<path d="M422.33,174.14L422.33,209.71" style="fill:none;stroke:#1FD3AC" />
<path d="M419.83,174.14L424.83,174.14" style="fill:none;stroke:#1FD3AC" />
<path d="M419.83,209.71L424.83,209.71" style="fill:none;stroke:#1FD3AC" />
<path d="M431.4,162.62L431.4,193.87" style="fill:none;stroke:#1FD3AC" />
<path d="M428.9,162.62L433.9,162.62" style="fill:none;stroke:#1FD3AC" />
<path d="M428.9,193.87L433.9,193.87" style="fill:none;stroke:#1FD3AC" />
<path d="M440.46,172.92L440.46,200.15" style="fill:none;stroke:#1FD3AC" />
<path d="M437.96,172.92L442.96,172.92" style="fill:none;stroke:#1FD3AC" />
<path d="M437.96,200.15L442.96,200.15" style="fill:none;stroke:#1FD3AC" />
<path d="M449.52,190.36L449.52,216.36" style="fill:none;stroke:#1FD3AC" />
<path d="M447.02,190.36L452.02,190.36" style="fill:none;stroke:#1FD3AC" />
<path d="M447.02,216.36L452.02,216.36" style="fill:none;stroke:#1FD3AC" />
<path d="M458.59,197.36L458.59,218.93" style="fill:none;stroke:#1FD3AC" />
<path d="M456.09,197.36L461.09,197.36" style="fill:none;stroke:#1FD3AC" />
<path d="M456.09,218.93L461.09,218.93" style="fill:none;stroke:#1FD3AC" />
<path d="M467.65,188.81L467.65,225.17" style="fill:none;stroke:#1FD3AC" />
<path d="M465.15,188.81L470.15,188.81" style="fill:none;stroke:#1FD3AC" />
<path d="M465.15,225.17L470.15,225.17" style="fill:none;stroke:#1FD3AC" />
<path d="M476.72,194.07L476.72,245.09" style="fill:none;stroke:#1FD3AC" />
<path d="M474.22,194.07L479.22,194.07" style="fill:none;stroke:#1FD3AC" />
<path d="M474.22,245.09L479.22,245.09" style="fill:none;stroke:#1FD3AC" />
<path d="M485.78,206.52L485.78,229.01" style="fill:none;stroke:#1FD3AC" />
<path d="M483.28,206.52L488.28,206.52" style="fill:none;stroke:#1FD3AC" />
<path d="M483.28,229.01L488.28,229.01" style="fill:none;stroke:#1FD3AC" />
<path d="M494.85,204.55L494.85,232.46" style="fill:none;stroke:#1FD3AC" />
<path d="M492.35,204.55L497.35,204.55" style="fill:none;stroke:#1FD3AC" />
<path d="M492.35,232.46L497.35,232.46" style="fill:none;stroke:#1FD3AC" />
<path d="M503.91,206.81L503.91,231.26" style="fill:none;stroke:#1FD3AC" />
<path d="M501.41,206.81L506.41,206.81" style="fill:none;stroke:#1FD3AC" />
<path d="M501.41,231.26L506.41,231.26" style="fill:none;stroke:#1FD3AC" />
<path d="M512.98,211.14L512.98,228.08" style="fill:none;stroke:#1FD3AC" />
<path d="M510.48,211.14L515.48,211.14" style="fill:none;stroke:#1FD3AC" />
<path d="M510.48,228.08L515.48,228.08" style="fill:none;stroke:#1FD3AC" />
<path d="M522.04,212.16L522.04,228.93" style="fill:none;stroke:#1FD3AC" />
<path d="M519.54,212.16L524.54,212.16" style="fill:none;stroke:#1FD3AC" />
<path d="M519.54,228.93L524.54,228.93" style="fill:none;stroke:#1FD3AC" />
<path d="M531.11,231.64L531.11,245.38" style="fill:none;stroke:#1FD3AC" />
<path d="M528.61,231.64L533.61,231.64" style="fill:none;stroke:#1FD3AC" />
<path d="M528.61,245.38L533.61,245.38" style="fill:none;stroke:#1FD3AC" />
<path d="M540.17,243.66L540.17,256.07" style="fill:none;stroke:#1FD3AC" />
<path d="M537.67,243.66L542.67,243.66" style="fill:none;stroke:#1FD3AC" />
<path d="M537.67,256.07L542.67,256.07" style="fill:none;stroke:#1FD3AC" />
<path d="M549.24,242.48L549.24,262.6" style="fill:none;stroke:#1FD3AC" />
<path d="M546.74,242.48L551.74,242.48" style="fill:none;stroke:#1FD3AC" />
<path d="M546.74,262.6L551.74,262.6" style="fill:none;stroke:#1FD3AC" />
<path d="M558.3,264.88L558.3,276.7" style="fill:none;stroke:#1FD3AC" />
<path d="M555.8,264.88L560.8,264.88" style="fill:none;stroke:#1FD3AC" />
<path d="M555.8,276.7L560.8,276.7" style="fill:none;stroke:#1FD3AC" />
<path d="M567.37,267.1L567.37,287.6" style="fill:none;stroke:#1FD3AC" />
<path d="M564.87,267.1L569.87,267.1" style="fill:none;stroke:#1FD3AC" />
<path d="M564.87,287.6L569.87,287.6" style="fill:none;stroke:#1FD3AC" />
<path d="M576.43,278.65L576.43,301.04" style="fill:none;stroke:#1FD3AC" />
<path d="M573.93,278.65L578.93,278.65" style="fill:none;stroke:#1FD3AC" />
<path d="M573.93,301.04L578.93,301.04" style="fill:none;stroke:#1FD3AC" />
<path d="M585.5,309.52L585.5,336.56" style="fill:none;stroke:#1FD3AC" />
<path d="M583,309.52L588,309.52" style="fill:none;stroke:#1FD3AC" />
<path d="M583,336.56L588,336.56" style="fill:none;stroke:#1FD3AC" />
<path d="M594.56,333.58L594.56,359.15" style="fill:none;stroke:#1FD3AC" />
<path d="M592.06,333.58L597.06,333.58" style="fill:none;stroke:#1FD3AC" />
<path d="M592.06,359.15L597.06,359.15" style="fill:none;stroke:#1FD3AC" />
<path d="M603.63,347.28L603.63,377.06" style="fill:none;stroke:#1FD3AC" />
<path d="M601.13,347.28L606.13,347.28" style="fill:none;stroke:#1FD3AC" />
<path d="M601.13,377.06L606.13,377.06" style="fill:none;stroke:#1FD3AC" />
<path d="M612.69,383.41L612.69,399.85" style="fill:none;stroke:#1FD3AC" />
<path d="M610.19,383.41L615.19,383.41" style="fill:none;stroke:#1FD3AC" />
<path d="M610.19,399.85L615.19,399.85" style="fill:none;stroke:#1FD3AC" />
<path d="M621.76,412.74L621.76,430.98" style="fill:none;stroke:#1FD3AC" />
<path d="M619.26,412.74L624.26,412.74" style="fill:none;stroke:#1FD3AC" />
<path d="M619.26,430.98L624.26,430.98" style="fill:none;stroke:#1FD3AC" />
<path d="M630.82,443.08L630.82,469.11" style="fill:none;stroke:#1FD3AC" />
<path d="M628.32,443.08L633.32,443.08" style="fill:none;stroke:#1FD3AC" />
<path d="M628.32,469.11L633.32,469.11" style="fill:none;stroke:#1FD3AC" />
<path d="M639.89,503.31L639.89,526.78" style="fill:none;stroke:#1FD3AC" />
<path d="M637.39,503.31L642.39,503.31" style="fill:none;stroke:#1FD3AC" />
<path d="M637.39,526.78L642.39,526.78" style="fill:none;stroke:#1FD3AC" />
<path d="M648.95,560.9L648.95,587.22" style="fill:none;stroke:#1FD3AC" />
<path d="M646.45,560.9L651.45,560.9" style="fill:none;stroke:#1FD3AC" />
<path d="M646.45,587.22L651.45,587.22" style="fill:none;stroke:#1FD3AC" />
<path d="M658.02,626.01L658.02,655.96" style="fill:none;stroke:#1FD3AC" />
<path d="M655.52,626.01L660.52,626.01" style="fill:none;stroke:#1FD3AC" />
<path d="M655.52,655.96L660.52,655.96" style="fill:none;stroke:#1FD3AC" />
<path d="M667.08,683L667.08,727.71" style="fill:none;stroke:#1FD3AC" />
<path d="M664.58,683L669.58,683" style="fill:none;stroke:#1FD3AC" />
<path d="M664.58,727.71L669.58,727.71" style="fill:none;stroke:#1FD3AC" />
<path d="M676.15,730.58L676.15,778.75" style="fill:none;stroke:#1FD3AC" />
<path d="M673.65,730.58L678.65,730.58" style="fill:none;stroke:#1FD3AC" />
<path d="M673.65,778.75L678.65,778.75" style="fill:none;stroke:#1FD3AC" />
<path d="M685.21,742.91L685.21,784.84" style="fill:none;stroke:#1FD3AC" />
<path d="M682.71,742.91L687.71,742.91" style="fill:none;stroke:#1FD3AC" />
<path d="M682.71,784.84L687.71,784.84" style="fill:none;stroke:#1FD3AC" />
<path d="M694.28,699.8L694.28,750.05" style="fill:none;stroke:#1FD3AC" />
<path d="M691.78,699.8L696.78,699.8" style="fill:none;stroke:#1FD3AC" />
<path d="M691.78,750.05L696.78,750.05" style="fill:none;stroke:#1FD3AC" />
<path d="M703.34,652.66L703.34,701.43" style="fill:none;stroke:#1FD3AC" />
<path d="M700.84,652.66L705.84,652.66" style="fill:none;stroke:#1FD3AC" />
<path d="M700.84,701.43L705.84,701.43" style="fill:none;stroke:#1FD3AC" />
<path d="M712.41,590.22L712.41,633.15" style="fill:none;stroke:#1FD3AC" />
<path d="M709.91,590.22L714.91,590.22" style="fill:none;stroke:#1FD3AC" />
<path d="M709.91,633.15L714.91,633.15" style="fill:none;stroke:#1FD3AC" />
<path d="M721.47,521.21L721.47,548.54" style="fill:none;stroke:#1FD3AC" />
<path d="M718.97,521.21L723.97,521.21" style="fill:none;stroke:#1FD3AC" />
<path d="M718.97,548.54L723.97,548.54" style="fill:none;stroke:#1FD3AC" />
<path d="M730.54,483.97L730.54,502.79" style="fill:none;stroke:#1FD3AC" />
<path d="M728.04,483.97L733.04,483.97" style="fill:none;stroke:#1FD3AC" />
<path d="M728.04,502.79L733.04,502.79" style="fill:none;stroke:#1FD3AC" />
<path d="M739.6,417.56L739.6,452.02" style="fill:none;stroke:#1FD3AC" />
<path d="M737.1,417.56L742.1,417.56" style="fill:none;stroke:#1FD3AC" />
<path d="M737.1,452.02L742.1,452.02" style="fill:none;stroke:#1FD3AC" />
<path d="M748.67,368.93L748.67,391.19" style="fill:none;stroke:#1FD3AC" />
<path d="M746.17,368.93L751.17,368.93" style="fill:none;stroke:#1FD3AC" />
<path d="M746.17,391.19L751.17,391.19" style="fill:none;stroke:#1FD3AC" />
<path d="M757.73,344.64L757.73,361.57" style="fill:none;stroke:#1FD3AC" />
<path d="M755.23,344.64L760.23,344.64" style="fill:none;stroke:#1FD3AC" />
<path d="M755.23,361.57L760.23,361.57" style="fill:none;stroke:#1FD3AC" />
<path d="M766.79,325.37L766.79,356.49" style="fill:none;stroke:#1FD3AC" />
<path d="M764.29,325.37L769.29,325.37" style="fill:none;stroke:#1FD3AC" />
<path d="M764.29,356.49L769.29,356.49" style="fill:none;stroke:#1FD3AC" />
<path d="M775.86,306.35L775.86,334.55" style="fill:none;stroke:#1FD3AC" />
<path d="M773.36,306.35L778.36,306.35" style="fill:none;stroke:#1FD3AC" />
<path d="M773.36,334.55L778.36,334.55" style="fill:none;stroke:#1FD3AC" />
<path d="M784.92,275.63L784.92,304.09" style="fill:none;stroke:#1FD3AC" />
<path d="M782.42,275.63L787.42,275.63" style="fill:none;stroke:#1FD3AC" />
<path d="M782.42,304.09L787.42,304.09" style="fill:none;stroke:#1FD3AC" />
<path d="M793.99,243.98L793.99,276.82" style="fill:none;stroke:#1FD3AC" />
<path d="M791.49,243.98L796.49,243.98" style="fill:none;stroke:#1FD3AC" />
<path d="M791.49,276.82L796.49,276.82" style="fill:none;stroke:#1FD3AC" />
<path d="M803.05,236.74L803.05,266.19" style="fill:none;stroke:#1FD3AC" />
<path d="M800.55,236.74L805.55,236.74" style="fill:none;stroke:#1FD3AC" />
<path d="M800.55,266.19L805.55,266.19" style="fill:none;stroke:#1FD3AC" />
<path d="M812.12,242.55L812.12,268.16" style="fill:none;stroke:#1FD3AC" />
<path d="M809.62,242.55L814.62,242.55" style="fill:none;stroke:#1FD3AC" />
<path d="M809.62,268.16L814.62,268.16" style="fill:none;stroke:#1FD3AC" />
<path d="M821.18,236.49L821.18,266.43" style="fill:none;stroke:#1FD3AC" />
<path d="M818.68,236.49L823.68,236.49" style="fill:none;stroke:#1FD3AC" />
<path d="M818.68,266.43L823.68,266.43" style="fill:none;stroke:#1FD3AC" />
<path d="M830.25,220.96L830.25,258.56" style="fill:none;stroke:#1FD3AC" />
<path d="M827.75,220.96L832.75,220.96" style="fill:none;stroke:#1FD3AC" />
<path d="M827.75,258.56L832.75,258.56" style="fill:none;stroke:#1FD3AC" />
<path d="M839.31,216.35L839.31,262.44" style="fill:none;stroke:#1FD3AC" />
<path d="M836.81,216.35L841.81,216.35" style="fill:none;stroke:#1FD3AC" />
<path d="M836.81,262.44L841.81,262.44" style="fill:none;stroke:#1FD3AC" />
<path d="M848.38,214.69L848.38,250.09" style="fill:none;stroke:#1FD3AC" />
<path d="M845.88,214.69L850.88,214.69" style="fill:none;stroke:#1FD3AC" />
<path d="M845.88,250.09L850.88,250.09" style="fill:none;stroke:#1FD3AC" />
<path d="M857.44,198.22L857.44,241.46" style="fill:none;stroke:#1FD3AC" />
<path d="M854.94,198.22L859.94,198.22" style="fill:none;stroke:#1FD3AC" />
<path d="M854.94,241.46L859.94,241.46" style="fill:none;stroke:#1FD3AC" />
<path d="M866.51,189.69L866.51,230.66" style="fill:none;stroke:#1FD3AC" />
<path d="M864.01,189.69L869.01,189.69" style="fill:none;stroke:#1FD3AC" />
<path d="M864.01,230.66L869.01,230.66" style="fill:none;stroke:#1FD3AC" />
<path d="M875.57,191.31L875.57,244.5" style="fill:none;stroke:#1FD3AC" />
<path d="M873.07,191.31L878.07,191.31" style="fill:none;stroke:#1FD3AC" />
<path d="M873.07,244.5L878.07,244.5" style="fill:none;stroke:#1FD3AC" />
<path d="M884.64,198.88L884.64,259.05" style="fill:none;stroke:#1FD3AC" />
<path d="M882.14,198.88L887.14,198.88" style="fill:none;stroke:#1FD3AC" />
<path d="M882.14,259.05L887.14,259.05" style="fill:none;stroke:#1FD3AC" />
<path d="M893.7,206.63L893.7,265.84" style="fill:none;stroke:#1FD3AC" />
<path d="M891.2,206.63L896.2,206.63" style="fill:none;stroke:#1FD3AC" />
<path d="M891.2,265.84L896.2,265.84" style="fill:none;stroke:#1FD3AC" />
<path d="M902.77,203.71L902.77,243.13" style="fill:none;stroke:#1FD3AC" />
<path d="M900.27,203.71L905.27,203.71" style="fill:none;stroke:#1FD3AC" />
<path d="M900.27,243.13L905.27,243.13" style="fill:none;stroke:#1FD3AC" />
<path d="M911.83,190.22L911.83,232.79" style="fill:none;stroke:#1FD3AC" />
<path d="M909.33,190.22L914.33,190.22" style="fill:none;stroke:#1FD3AC" />
<path d="M909.33,232.79L914.33,232.79" style="fill:none;stroke:#1FD3AC" />
<path d="M920.9,190.21L920.9,228.67" style="fill:none;stroke:#1FD3AC" />
<path d="M918.4,190.21L923.4,190.21" style="fill:none;stroke:#1FD3AC" />
<path d="M918.4,228.67L923.4,228.67" style="fill:none;stroke:#1FD3AC" />
<path d="M929.96,195.13L929.96,234.45" style="fill:none;stroke:#1FD3AC" />
<path d="M927.46,195.13L932.46,195.13" style="fill:none;stroke:#1FD3AC" />
<path d="M927.46,234.45L932.46,234.45" style="fill:none;stroke:#1FD3AC" />
<path d="M939.03,196.63L939.03,244.1" style="fill:none;stroke:#1FD3AC" />
<path d="M936.53,196.63L941.53,196.63" style="fill:none;stroke:#1FD3AC" />
<path d="M936.53,244.1L941.53,244.1" style="fill:none;stroke:#1FD3AC" />
<path d="M948.09,198.13L948.09,235.79" style="fill:none;stroke:#1FD3AC" />
<path d="M945.59,198.13L950.59,198.13" style="fill:none;stroke:#1FD3AC" />
<path d="M945.59,235.79L950.59,235.79" style="fill:none;stroke:#1FD3AC" />
<path d="M957.16,187.39L957.16,218.56" style="fill:none;stroke:#1FD3AC" />
<path d="M954.66,187.39L959.66,187.39" style="fill:none;stroke:#1FD3AC" />
<path d="M954.66,218.56L959.66,218.56" style="fill:none;stroke:#1FD3AC" />
<path d="M966.22,182.06L966.22,202.44" style="fill:none;stroke:#1FD3AC" />
<path d="M963.72,182.06L968.72,182.06" style="fill:none;stroke:#1FD3AC" />
<path d="M963.72,202.44L968.72,202.44" style="fill:none;stroke:#1FD3AC" />
<path d="M975.29,176.15L975.29,209.29" style="fill:none;stroke:#1FD3AC" />
<path d="M972.79,176.15L977.79,176.15" style="fill:none;stroke:#1FD3AC" />
<path d="M972.79,209.29L977.79,209.29" style="fill:none;stroke:#1FD3AC" />
<path d="M984.35,209.46L984.35,246.75" style="fill:none;stroke:#1FD3AC" />
<path d="M981.85,209.46L986.85,209.46" style="fill:none;stroke:#1FD3AC" />
<path d="M981.85,246.75L986.85,246.75" style="fill:none;stroke:#1FD3AC" />
<path d="M993.42,234.66L993.42,275.8" style="fill:none;stroke:#1FD3AC" />
<path d="M990.92,234.66L995.92,234.66" style="fill:none;stroke:#1FD3AC" />
<path d="M990.92,275.8L995.92,275.8" style="fill:none;stroke:#1FD3AC" />
<path d="M1002.5,221.13L1002.5,254.39" style="fill:none;stroke:#1FD3AC" />
<path d="M999.98,221.13L1005,221.13" style="fill:none;stroke:#1FD3AC" />
<path d="M999.98,254.39L1005,254.39" style="fill:none;stroke:#1FD3AC" />
<path d="M1011.5,219L1011.5,254.05" style="fill:none;stroke:#1FD3AC" />
<path d="M1009,219L1014,219" style="fill:none;stroke:#1FD3AC" />
<path d="M1009,254.05L1014,254.05" style="fill:none;stroke:#1FD3AC" />
<path d="M1020.6,201.35L1020.6,249.47" style="fill:none;stroke:#1FD3AC" />
<path d="M1018.1,201.35L1023.1,201.35" style="fill:none;stroke:#1FD3AC" />
<path d="M1018.1,249.47L1023.1,249.47" style="fill:none;stroke:#1FD3AC" />
<path d="M1029.7,223.74L1029.7,266.14" style="fill:none;stroke:#1FD3AC" />
<path d="M1027.2,223.74L1032.2,223.74" style="fill:none;stroke:#1FD3AC" />
<path d="M1027.2,266.14L1032.2,266.14" style="fill:none;stroke:#1FD3AC" />
<path d="M1038.7,227.28L1038.7,270.91" style="fill:none;stroke:#1FD3AC" />
<path d="M1036.2,227.28L1041.2,227.28" style="fill:none;stroke:#1FD3AC" />
<path d="M1036.2,270.91L1041.2,270.91" style="fill:none;stroke:#1FD3AC" />
<path d="M1047.8,237.15L1047.8,266.54" style="fill:none;stroke:#1FD3AC" />
<path d="M1045.3,237.15L1050.3,237.15" style="fill:none;stroke:#1FD3AC" />
<path d="M1045.3,266.54L1050.3,266.54" style="fill:none;stroke:#1FD3AC" />
<path d="M1056.9,251.35L1056.9,290.15" style="fill:none;stroke:#1FD3AC" />
<path d="M1054.4,251.35L1059.4,251.35" style="fill:none;stroke:#1FD3AC" />
<path d="M1054.4,290.15L1059.4,290.15" style="fill:none;stroke:#1FD3AC" />
<path d="M1065.9,232.4L1065.9,268.09" style="fill:none;stroke:#1FD3AC" />
<path d="M1063.4,232.4L1068.4,232.4" style="fill:none;stroke:#1FD3AC" />
<path d="M1063.4,268.09L1068.4,268.09" style="fill:none;stroke:#1FD3AC" />
<path d="M1075,201.5L1075,255.65" style="fill:none;stroke:#1FD3AC" />
<path d="M1072.5,201.5L1077.5,201.5" style="fill:none;stroke:#1FD3AC" />
<path d="M1072.5,255.65L1077.5,255.65" style="fill:none;stroke:#1FD3AC" />
<path d="M200.71,141.26A5,5 0 1 1 190.71,141.26A5,5 0 1 1 200.71,141.26Z" style="fill:#1FD3AC" />
<path d="M209.77,145.45A5,5 0 1 1 199.77,145.45A5,5 0 1 1 209.77,145.45Z" style="fill:#1FD3AC" />
<path d="M218.84,161.69A5,5 0 1 1 208.84,161.69A5,5 0 1 1 218.84,161.69Z" style="fill:#1FD3AC" />
<path d="M227.9,169.99A5,5 0 1 1 217.9,169.99A5,5 0 1 1 227.9,169.99Z" style="fill:#1FD3AC" />
<path d="M236.97,168.6A5,5 0 1 1 226.97,168.6A5,5 0 1 1 236.97,168.6Z" style="fill:#1FD3AC" />
<path d="M246.03,176.5A5,5 0 1 1 236.03,176.5A5,5 0 1 1 246.03,176.5Z" style="fill:#1FD3AC" />
<path d="M255.1,162.8A5,5 0 1 1 245.1,162.8A5,5 0 1 1 255.1,162.8Z" style="fill:#1FD3AC" />
<path d="M264.16,156.71A5,5 0 1 1 254.16,156.71A5,5 0 1 1 264.16,156.71Z" style="fill:#1FD3AC" />
<path d="M273.23,157.12A5,5 0 1 1 263.23,157.12A5,5 0 1 1 273.23,157.12Z" style="fill:#1FD3AC" />
<path d="M282.29,143.42A5,5 0 1 1 272.29,143.42A5,5 0 1 1 282.29,143.42Z" style="fill:#1FD3AC" />
<path d="M291.36,157.66A5,5 0 1 1 281.36,157.66A5,5 0 1 1 291.36,157.66Z" style="fill:#1FD3AC" />
<path d="M300.42,159.84A5,5 0 1 1 290.42,159.84A5,5 0 1 1 300.42,159.84Z" style="fill:#1FD3AC" />
<path d="M309.49,179.72A5,5 0 1 1 299.49,179.72A5,5 0 1 1 309.49,179.72Z" style="fill:#1FD3AC" />
<path d="M318.55,186.14A5,5 0 1 1 308.55,186.14A5,5 0 1 1 318.55,186.14Z" style="fill:#1FD3AC" />
<path d="M327.62,192.87A5,5 0 1 1 317.62,192.87A5,5 0 1 1 327.62,192.87Z" style="fill:#1FD3AC" />
<path d="M336.68,190.64A5,5 0 1 1 326.68,190.64A5,5 0 1 1 336.68,190.64Z" style="fill:#1FD3AC" />
<path d="M345.75,196.77A5,5 0 1 1 335.75,196.77A5,5 0 1 1 345.75,196.77Z" style="fill:#1FD3AC" />
<path d="M354.81,196.75A5,5 0 1 1 344.81,196.75A5,5 0 1 1 354.81,196.75Z" style="fill:#1FD3AC" />
<path d="M363.88,192.5A5,5 0 1 1 353.88,192.5A5,5 0 1 1 363.88,192.5Z" style="fill:#1FD3AC" />
<path d="M372.94,196.66A5,5 0 1 1 362.94,196.66A5,5 0 1 1 372.94,196.66Z" style="fill:#1FD3AC" />
<path d="M382.01,188.71A5,5 0 1 1 372.01,188.71A5,5 0 1 1 382.01,188.71Z" style="fill:#1FD3AC" />
<path d="M391.07,194.37A5,5 0 1 1 381.07,194.37A5,5 0 1 1 391.07,194.37Z" style="fill:#1FD3AC" />
<path d="M400.14,199.43A5,5 0 1 1 390.14,199.43A5,5 0 1 1 400.14,199.43Z" style="fill:#1FD3AC" />
<path d="M409.2,196.95A5,5 0 1 1 399.2,196.95A5,5 0 1 1 409.2,196.95Z" style="fill:#1FD3AC" />
<path d="M418.27,184.2A5,5 0 1 1 408.27,184.2A5,5 0 1 1 418.27,184.2Z" style="fill:#1FD3AC" />
<path d="M427.33,191.93A5,5 0 1 1 417.33,191.93A5,5 0 1 1 427.33,191.93Z" style="fill:#1FD3AC" />
<path d="M436.4,178.25A5,5 0 1 1 426.4,178.25A5,5 0 1 1 436.4,178.25Z" style="fill:#1FD3AC" />
<path d="M445.46,186.54A5,5 0 1 1 435.46,186.54A5,5 0 1 1 445.46,186.54Z" style="fill:#1FD3AC" />
<path d="M454.52,203.36A5,5 0 1 1 444.52,203.36A5,5 0 1 1 454.52,203.36Z" style="fill:#1FD3AC" />
<path d="M463.59,208.15A5,5 0 1 1 453.59,208.15A5,5 0 1 1 463.59,208.15Z" style="fill:#1FD3AC" />
<path d="M472.65,206.99A5,5 0 1 1 462.65,206.99A5,5 0 1 1 472.65,206.99Z" style="fill:#1FD3AC" />
<path d="M481.72,219.58A5,5 0 1 1 471.72,219.58A5,5 0 1 1 481.72,219.58Z" style="fill:#1FD3AC" />
<path d="M490.78,217.77A5,5 0 1 1 480.78,217.77A5,5 0 1 1 490.78,217.77Z" style="fill:#1FD3AC" />
<path d="M499.85,218.51A5,5 0 1 1 489.85,218.51A5,5 0 1 1 499.85,218.51Z" style="fill:#1FD3AC" />
<path d="M508.91,219.04A5,5 0 1 1 498.91,219.04A5,5 0 1 1 508.91,219.04Z" style="fill:#1FD3AC" />
<path d="M517.98,219.61A5,5 0 1 1 507.98,219.61A5,5 0 1 1 517.98,219.61Z" style="fill:#1FD3AC" />
<path d="M527.04,220.54A5,5 0 1 1 517.04,220.54A5,5 0 1 1 527.04,220.54Z" style="fill:#1FD3AC" />
<path d="M536.11,238.51A5,5 0 1 1 526.11,238.51A5,5 0 1 1 536.11,238.51Z" style="fill:#1FD3AC" />
<path d="M545.17,249.87A5,5 0 1 1 535.17,249.87A5,5 0 1 1 545.17,249.87Z" style="fill:#1FD3AC" />
<path d="M554.24,252.54A5,5 0 1 1 544.24,252.54A5,5 0 1 1 554.24,252.54Z" style="fill:#1FD3AC" />
<path d="M563.3,270.79A5,5 0 1 1 553.3,270.79A5,5 0 1 1 563.3,270.79Z" style="fill:#1FD3AC" />
<path d="M572.37,277.35A5,5 0 1 1 562.37,277.35A5,5 0 1 1 572.37,277.35Z" style="fill:#1FD3AC" />
<path d="M581.43,289.84A5,5 0 1 1 571.43,289.84A5,5 0 1 1 581.43,289.84Z" style="fill:#1FD3AC" />
<path d="M590.5,323.04A5,5 0 1 1 580.5,323.04A5,5 0 1 1 590.5,323.04Z" style="fill:#1FD3AC" />
<path d="M599.56,346.36A5,5 0 1 1 589.56,346.36A5,5 0 1 1 599.56,346.36Z" style="fill:#1FD3AC" />
<path d="M608.63,362.17A5,5 0 1 1 598.63,362.17A5,5 0 1 1 608.63,362.17Z" style="fill:#1FD3AC" />
<path d="M617.69,391.63A5,5 0 1 1 607.69,391.63A5,5 0 1 1 617.69,391.63Z" style="fill:#1FD3AC" />
<path d="M626.76,421.86A5,5 0 1 1 616.76,421.86A5,5 0 1 1 626.76,421.86Z" style="fill:#1FD3AC" />
<path d="M635.82,456.09A5,5 0 1 1 625.82,456.09A5,5 0 1 1 635.82,456.09Z" style="fill:#1FD3AC" />
<path d="M644.89,515.05A5,5 0 1 1 634.89,515.05A5,5 0 1 1 644.89,515.05Z" style="fill:#1FD3AC" />
<path d="M653.95,574.06A5,5 0 1 1 643.95,574.06A5,5 0 1 1 653.95,574.06Z" style="fill:#1FD3AC" />
<path d="M663.02,640.99A5,5 0 1 1 653.02,640.99A5,5 0 1 1 663.02,640.99Z" style="fill:#1FD3AC" />
<path d="M672.08,705.35A5,5 0 1 1 662.08,705.35A5,5 0 1 1 672.08,705.35Z" style="fill:#1FD3AC" />
<path d="M681.15,754.66A5,5 0 1 1 671.15,754.66A5,5 0 1 1 681.15,754.66Z" style="fill:#1FD3AC" />
<path d="M690.21,763.87A5,5 0 1 1 680.21,763.87A5,5 0 1 1 690.21,763.87Z" style="fill:#1FD3AC" />
<path d="M699.28,724.93A5,5 0 1 1 689.28,724.93A5,5 0 1 1 699.28,724.93Z" style="fill:#1FD3AC" />
<path d="M708.34,677.05A5,5 0 1 1 698.34,677.05A5,5 0 1 1 708.34,677.05Z" style="fill:#1FD3AC" />
<path d="M717.41,611.69A5,5 0 1 1 707.41,611.69A5,5 0 1 1 717.41,611.69Z" style="fill:#1FD3AC" />
<path d="M726.47,534.88A5,5 0 1 1 716.47,534.88A5,5 0 1 1 726.47,534.88Z" style="fill:#1FD3AC" />
<path d="M735.54,493.38A5,5 0 1 1 725.54,493.38A5,5 0 1 1 735.54,493.38Z" style="fill:#1FD3AC" />
<path d="M744.6,434.79A5,5 0 1 1 734.6,434.79A5,5 0 1 1 744.6,434.79Z" style="fill:#1FD3AC" />
<path d="M753.67,380.06A5,5 0 1 1 743.67,380.06A5,5 0 1 1 753.67,380.06Z" style="fill:#1FD3AC" />
<path d="M762.73,353.11A5,5 0 1 1 752.73,353.11A5,5 0 1 1 762.73,353.11Z" style="fill:#1FD3AC" />
<path d="M771.79,340.93A5,5 0 1 1 761.79,340.93A5,5 0 1 1 771.79,340.93Z" style="fill:#1FD3AC" />
<path d="M780.86,320.45A5,5 0 1 1 770.86,320.45A5,5 0 1 1 780.86,320.45Z" style="fill:#1FD3AC" />
<path d="M789.92,289.86A5,5 0 1 1 779.92,289.86A5,5 0 1 1 789.92,289.86Z" style="fill:#1FD3AC" />
<path d="M798.99,260.4A5,5 0 1 1 788.99,260.4A5,5 0 1 1 798.99,260.4Z" style="fill:#1FD3AC" />
<path d="M808.05,251.46A5,5 0 1 1 798.05,251.46A5,5 0 1 1 808.05,251.46Z" style="fill:#1FD3AC" />
<path d="M817.12,255.36A5,5 0 1 1 807.12,255.36A5,5 0 1 1 817.12,255.36Z" style="fill:#1FD3AC" />
<path d="M826.18,251.46A5,5 0 1 1 816.18,251.46A5,5 0 1 1 826.18,251.46Z" style="fill:#1FD3AC" />
<path d="M835.25,239.76A5,5 0 1 1 825.25,239.76A5,5 0 1 1 835.25,239.76Z" style="fill:#1FD3AC" />
<path d="M844.31,239.4A5,5 0 1 1 834.31,239.4A5,5 0 1 1 844.31,239.4Z" style="fill:#1FD3AC" />
<path d="M853.38,232.39A5,5 0 1 1 843.38,232.39A5,5 0 1 1 853.38,232.39Z" style="fill:#1FD3AC" />
<path d="M862.44,219.84A5,5 0 1 1 852.44,219.84A5,5 0 1 1 862.44,219.84Z" style="fill:#1FD3AC" />
<path d="M871.51,210.17A5,5 0 1 1 861.51,210.17A5,5 0 1 1 871.51,210.17Z" style="fill:#1FD3AC" />
<path d="M880.57,217.91A5,5 0 1 1 870.57,217.91A5,5 0 1 1 880.57,217.91Z" style="fill:#1FD3AC" />
<path d="M889.64,228.96A5,5 0 1 1 879.64,228.96A5,5 0 1 1 889.64,228.96Z" style="fill:#1FD3AC" />
<path d="M898.7,236.23A5,5 0 1 1 888.7,236.23A5,5 0 1 1 898.7,236.23Z" style="fill:#1FD3AC" />
<path d="M907.77,223.42A5,5 0 1 1 897.77,223.42A5,5 0 1 1 907.77,223.42Z" style="fill:#1FD3AC" />
<path d="M916.83,211.51A5,5 0 1 1 906.83,211.51A5,5 0 1 1 916.83,211.51Z" style="fill:#1FD3AC" />
<path d="M925.9,209.44A5,5 0 1 1 915.9,209.44A5,5 0 1 1 925.9,209.44Z" style="fill:#1FD3AC" />
<path d="M934.96,214.79A5,5 0 1 1 924.96,214.79A5,5 0 1 1 934.96,214.79Z" style="fill:#1FD3AC" />
<path d="M944.03,220.37A5,5 0 1 1 934.03,220.37A5,5 0 1 1 944.03,220.37Z" style="fill:#1FD3AC" />
<path d="M953.09,216.96A5,5 0 1 1 943.09,216.96A5,5 0 1 1 953.09,216.96Z" style="fill:#1FD3AC" />
<path d="M962.16,202.98A5,5 0 1 1 952.16,202.98A5,5 0 1 1 962.16,202.98Z" style="fill:#1FD3AC" />
<path d="M971.22,192.25A5,5 0 1 1 961.22,192.25A5,5 0 1 1 971.22,192.25Z" style="fill:#1FD3AC" />
<path d="M980.29,192.72A5,5 0 1 1 970.29,192.72A5,5 0 1 1 980.29,192.72Z" style="fill:#1FD3AC" />
<path d="M989.35,228.11A5,5 0 1 1 979.35,228.11A5,5 0 1 1 989.35,228.11Z" style="fill:#1FD3AC" />
<path d="M998.42,255.23A5,5 0 1 1 988.42,255.23A5,5 0 1 1 998.42,255.23Z" style="fill:#1FD3AC" />
<path d="M1007.5,237.76A5,5 0 1 1 997.48,237.76A5,5 0 1 1 1007.5,237.76Z" style="fill:#1FD3AC" />
<path d="M1016.5,236.52A5,5 0 1 1 1006.5,236.52A5,5 0 1 1 1016.5,236.52Z" style="fill:#1FD3AC" />
<path d="M1025.6,225.41A5,5 0 1 1 1015.6,225.41A5,5 0 1 1 1025.6,225.41Z" style="fill:#1FD3AC" />
<path d="M1034.7,244.94A5,5 0 1 1 1024.7,244.94A5,5 0 1 1 1034.7,244.94Z" style="fill:#1FD3AC" />
<path d="M1043.7,249.1A5,5 0 1 1 1033.7,249.1A5,5 0 1 1 1043.7,249.1Z" style="fill:#1FD3AC" />
<path d="M1052.8,251.84A5,5 0 1 1 1042.8,251.84A5,5 0 1 1 1052.8,251.84Z" style="fill:#1FD3AC" />
<path d="M1061.9,270.75A5,5 0 1 1 1051.9,270.75A5,5 0 1 1 1061.9,270.75Z" style="fill:#1FD3AC" />
<path d="M1070.9,250.24A5,5 0 1 1 1060.9,250.24A5,5 0 1 1 1070.9,250.24Z" style="fill:#1FD3AC" />
<path d="M1080,228.57A5,5 0 1 1 1070,228.57A5,5 0 1 1 1080,228.57Z" style="fill:#1FD3AC" />
<path d="M195.71,974.14L1075,974.14" style="fill:none;stroke:#000000" />
<path d="M1075,108.82L1075,974.14" style="fill:none;stroke:#000000" />
<path d="M1038,942.02A8,8 0 1 1 1022,942.02A8,8 0 1 1 1038,942.02Z" style="fill:#1FD3AC" />
<text x="824.95" y="-933.54" transform="scale(1, -1)"
	style="font-family:Helvetica;font-weight:normal;font-style:normal;font-size:36px">Full Power</text>
</g>
</svg>
