<?xml version="1.0"?>
<!-- Generated by SVGo and Plotinum VG -->
<svg width="1080pt" height="1080pt" viewBox="0 0 1080 1080"
	xmlns="http://www.w3.org/2000/svg"
	xmlns:xlink="http://www.w3.org/1999/xlink">
<g transform="scale(1, -1) translate(0, -1080)">
<path d="M0,0L1080,0L1080,1080L0,1080Z" style="fill:#-8000000000000000-8000000000000000-8000000000000000;fill-opacity:0" />
<text x="123.2" y="-1039.5" transform="scale(1, -1)"
	style="font-family:Helvetica;font-weight:normal;font-style:normal;font-size:50px">Stokes Pump Power vs Widths of Fits</text>
<text x="446.8" y="-11.039" transform="scale(1, -1)"
	style="font-family:Helvetica;font-weight:normal;font-style:normal;font-size:36px">Pump Power (mW)</text>
<text x="200.6" y="-71.258" transform="scale(1, -1)"
	style="font-family:Helvetica;font-weight:normal;font-style:normal;font-size:36px">0</text>
<text x="400.43" y="-71.258" transform="scale(1, -1)"
	style="font-family:Helvetica;font-weight:normal;font-style:normal;font-size:36px">50</text>
<text x="600.26" y="-71.258" transform="scale(1, -1)"
	style="font-family:Helvetica;font-weight:normal;font-style:normal;font-size:36px">100</text>
<text x="810.1" y="-71.258" transform="scale(1, -1)"
	style="font-family:Helvetica;font-weight:normal;font-style:normal;font-size:36px">150</text>
<text x="1019.9" y="-71.258" transform="scale(1, -1)"
	style="font-family:Helvetica;font-weight:normal;font-style:normal;font-size:36px">200</text>
<path d="M210.62,116.44L210.62,108.44" style="fill:none;stroke:#000000;stroke-width:1.5" />
<path d="M315.53,112.44L315.53,108.44" style="fill:none;stroke:#000000;stroke-width:1.5" />
<path d="M420.45,116.44L420.45,108.44" style="fill:none;stroke:#000000;stroke-width:1.5" />
<path d="M525.37,112.44L525.37,108.44" style="fill:none;stroke:#000000;stroke-width:1.5" />
<path d="M630.29,116.44L630.29,108.44" style="fill:none;stroke:#000000;stroke-width:1.5" />
<path d="M735.21,112.44L735.21,108.44" style="fill:none;stroke:#000000;stroke-width:1.5" />
<path d="M840.13,116.44L840.13,108.44" style="fill:none;stroke:#000000;stroke-width:1.5" />
<path d="M945.05,112.44L945.05,108.44" style="fill:none;stroke:#000000;stroke-width:1.5" />
<path d="M1050,116.44L1050,108.44" style="fill:none;stroke:#000000;stroke-width:1.5" />
<path d="M147.66,108.44L1050,108.44" style="fill:none;stroke:#000000;stroke-width:1.5" />
<g transform="rotate(90)">
<text x="328.69" y="29.18" transform="scale(1, -1)"
	style="font-family:Helvetica;font-weight:normal;font-style:normal;font-size:36px">Full Width Half Max (MHz)</text>
</g>
<text x="87.869" y="-220.64" transform="scale(1, -1)"
	style="font-family:Helvetica;font-weight:normal;font-style:normal;font-size:36px">70</text>
<text x="67.848" y="-587.2" transform="scale(1, -1)"
	style="font-family:Helvetica;font-weight:normal;font-style:normal;font-size:36px">100</text>
<text x="67.848" y="-953.77" transform="scale(1, -1)"
	style="font-family:Helvetica;font-weight:normal;font-style:normal;font-size:36px">130</text>
<path d="M153.91,229.71L145.91,229.71" style="fill:none;stroke:#000000;stroke-width:1.5" />
<path d="M153.91,596.27L145.91,596.27" style="fill:none;stroke:#000000;stroke-width:1.5" />
<path d="M153.91,962.84L145.91,962.84" style="fill:none;stroke:#000000;stroke-width:1.5" />
<path d="M149.91,351.9L145.91,351.9" style="fill:none;stroke:#000000;stroke-width:1.5" />
<path d="M149.91,474.08L145.91,474.08" style="fill:none;stroke:#000000;stroke-width:1.5" />
<path d="M149.91,718.46L145.91,718.46" style="fill:none;stroke:#000000;stroke-width:1.5" />
<path d="M149.91,840.65L145.91,840.65" style="fill:none;stroke:#000000;stroke-width:1.5" />
<path d="M145.91,114.57L145.91,962.84" style="fill:none;stroke:#000000;stroke-width:1.5" />
<path d="M1009.8,214.41A6,6 0 1 1 997.8,214.41A6,6 0 1 1 1009.8,214.41Z" style="fill:#1BAA8B" />
<path d="M1003.8,474.08L1003.8,214.41" style="fill:none;stroke:#1BAA8B;stroke-width:4;stroke-dasharray:15,5" />
<path d="M147.66,214.41L1003.8,214.41" style="fill:none;stroke:#7F7F7F;stroke-dasharray:5,5" />
<path d="M963.64,212.16A6,6 0 1 1 951.64,212.16A6,6 0 1 1 963.64,212.16Z" style="fill:#BC75FF" />
<path d="M957.64,474.08L957.64,212.16" style="fill:none;stroke:#BC75FF;stroke-width:4;stroke-dasharray:15,5" />
<path d="M147.66,212.16L957.64,212.16" style="fill:none;stroke:#7F7F7F;stroke-dasharray:5,5" />
<path d="M913.28,193.87A6,6 0 1 1 901.28,193.87A6,6 0 1 1 913.28,193.87Z" style="fill:#8C2E31" />
<path d="M907.28,474.08L907.28,193.87" style="fill:none;stroke:#8C2E31;stroke-width:4;stroke-dasharray:15,5" />
<path d="M147.66,193.87L907.28,193.87" style="fill:none;stroke:#7F7F7F;stroke-dasharray:5,5" />
<path d="M862.92,203.44A6,6 0 1 1 850.92,203.44A6,6 0 1 1 862.92,203.44Z" style="fill:#5B1616" />
<path d="M856.92,474.08L856.92,203.44" style="fill:none;stroke:#5B1616;stroke-width:4;stroke-dasharray:15,5" />
<path d="M147.66,203.44L856.92,203.44" style="fill:none;stroke:#7F7F7F;stroke-dasharray:5,5" />
<path d="M816.75,195.2A6,6 0 1 1 804.75,195.2A6,6 0 1 1 816.75,195.2Z" style="fill:#C96892" />
<path d="M810.75,474.08L810.75,195.2" style="fill:none;stroke:#C96892;stroke-width:4;stroke-dasharray:15,5" />
<path d="M147.66,195.2L810.75,195.2" style="fill:none;stroke:#7F7F7F;stroke-dasharray:5,5" />
<path d="M778.98,114.57A6,6 0 1 1 766.98,114.57A6,6 0 1 1 778.98,114.57Z" style="fill:#EA9CAC" />
<path d="M772.98,474.08L772.98,114.57" style="fill:none;stroke:#EA9CAC;stroke-width:4;stroke-dasharray:15,5" />
<path d="M147.66,114.57L772.98,114.57" style="fill:none;stroke:#7F7F7F;stroke-dasharray:5,5" />
<path d="M732.82,254.27A6,6 0 1 1 720.82,254.27A6,6 0 1 1 732.82,254.27Z" style="fill:#013854" />
<path d="M726.82,474.08L726.82,254.27" style="fill:none;stroke:#013854;stroke-width:4;stroke-dasharray:15,5" />
<path d="M147.66,254.27L726.82,254.27" style="fill:none;stroke:#7F7F7F;stroke-dasharray:5,5" />
<path d="M661.47,294.96A6,6 0 1 1 649.47,294.96A6,6 0 1 1 661.47,294.96Z" style="fill:#2E8C3C" />
<path d="M655.47,474.08L655.47,294.96" style="fill:none;stroke:#2E8C3C;stroke-width:4;stroke-dasharray:15,5" />
<path d="M147.66,294.96L655.47,294.96" style="fill:none;stroke:#7F7F7F;stroke-dasharray:5,5" />
<path d="M611.11,239.33A6,6 0 1 1 599.11,239.33A6,6 0 1 1 611.11,239.33Z" style="fill:#637CC6" />
<path d="M605.11,474.08L605.11,239.33" style="fill:none;stroke:#637CC6;stroke-width:4;stroke-dasharray:15,5" />
<path d="M147.66,239.33L605.11,239.33" style="fill:none;stroke:#7F7F7F;stroke-dasharray:5,5" />
<path d="M1011,908.43A6,6 0 1 1 999,908.43A6,6 0 1 1 1011,908.43Z" style="fill:#1BAA8B" />
<text x="835.96" y="-899.95" transform="scale(1, -1)"
	style="font-family:Helvetica;font-weight:normal;font-style:normal;font-size:36px">189 mW</text>
<path d="M1011,867.02A6,6 0 1 1 999,867.02A6,6 0 1 1 1011,867.02Z" style="fill:#BC75FF" />
<text x="835.96" y="-858.54" transform="scale(1, -1)"
	style="font-family:Helvetica;font-weight:normal;font-style:normal;font-size:36px">178 mW</text>
<path d="M1011,825.61A6,6 0 1 1 999,825.61A6,6 0 1 1 1011,825.61Z" style="fill:#8C2E31" />
<text x="835.96" y="-817.13" transform="scale(1, -1)"
	style="font-family:Helvetica;font-weight:normal;font-style:normal;font-size:36px">166 mW</text>
<path d="M1011,784.2A6,6 0 1 1 999,784.2A6,6 0 1 1 1011,784.2Z" style="fill:#5B1616" />
<text x="835.96" y="-775.72" transform="scale(1, -1)"
	style="font-family:Helvetica;font-weight:normal;font-style:normal;font-size:36px">154 mW</text>
<path d="M1011,742.79A6,6 0 1 1 999,742.79A6,6 0 1 1 1011,742.79Z" style="fill:#C96892" />
<text x="835.96" y="-734.3" transform="scale(1, -1)"
	style="font-family:Helvetica;font-weight:normal;font-style:normal;font-size:36px">143 mW</text>
<path d="M1011,701.37A6,6 0 1 1 999,701.37A6,6 0 1 1 1011,701.37Z" style="fill:#EA9CAC" />
<text x="835.96" y="-692.89" transform="scale(1, -1)"
	style="font-family:Helvetica;font-weight:normal;font-style:normal;font-size:36px">134 mW</text>
<path d="M1011,659.96A6,6 0 1 1 999,659.96A6,6 0 1 1 1011,659.96Z" style="fill:#013854" />
<text x="835.96" y="-651.48" transform="scale(1, -1)"
	style="font-family:Helvetica;font-weight:normal;font-style:normal;font-size:36px">123 mW</text>
<path d="M1011,618.55A6,6 0 1 1 999,618.55A6,6 0 1 1 1011,618.55Z" style="fill:#2E8C3C" />
<text x="835.96" y="-610.07" transform="scale(1, -1)"
	style="font-family:Helvetica;font-weight:normal;font-style:normal;font-size:36px">106 mW</text>
<path d="M1011,577.14A6,6 0 1 1 999,577.14A6,6 0 1 1 1011,577.14Z" style="fill:#637CC6" />
<text x="855.99" y="-568.66" transform="scale(1, -1)"
	style="font-family:Helvetica;font-weight:normal;font-style:normal;font-size:36px">94 mW</text>
</g>
</svg>
