<?xml version="1.0"?>
<!-- Generated by SVGo and Plotinum VG -->
<svg width="1080pt" height="1080pt" viewBox="0 0 1080 1080"
	xmlns="http://www.w3.org/2000/svg"
	xmlns:xlink="http://www.w3.org/1999/xlink">
<g transform="scale(1, -1) translate(0, -1080)">
<path d="M0,0L1080,0L1080,1080L0,1080Z" style="fill:#-8000000000000000-8000000000000000-8000000000000000;fill-opacity:0" />
<text x="528.89" y="-1015.2" transform="scale(1, -1)"
	style="font-family:Helvetica;font-weight:normal;font-style:normal;font-size:80px"> </text>
<text x="476.93" y="-17.172" transform="scale(1, -1)"
	style="font-family:Helvetica;font-weight:normal;font-style:normal;font-size:56px">Power (mW)</text>
<text x="216.1" y="-119.73" transform="scale(1, -1)"
	style="font-family:Helvetica;font-weight:normal;font-style:normal;font-size:56px">0</text>
<text x="334.13" y="-119.73" transform="scale(1, -1)"
	style="font-family:Helvetica;font-weight:normal;font-style:normal;font-size:56px">50</text>
<text x="452.16" y="-119.73" transform="scale(1, -1)"
	style="font-family:Helvetica;font-weight:normal;font-style:normal;font-size:56px">100</text>
<text x="585.76" y="-119.73" transform="scale(1, -1)"
	style="font-family:Helvetica;font-weight:normal;font-style:normal;font-size:56px">150</text>
<text x="719.36" y="-119.73" transform="scale(1, -1)"
	style="font-family:Helvetica;font-weight:normal;font-style:normal;font-size:56px">200</text>
<text x="852.96" y="-119.73" transform="scale(1, -1)"
	style="font-family:Helvetica;font-weight:normal;font-style:normal;font-size:56px">250</text>
<text x="986.57" y="-119.73" transform="scale(1, -1)"
	style="font-family:Helvetica;font-weight:normal;font-style:normal;font-size:56px">300</text>
<path d="M231.67,181.12L231.67,173.12" style="fill:none;stroke:#000000;stroke-width:1.5" />
<path d="M298.47,177.12L298.47,173.12" style="fill:none;stroke:#000000;stroke-width:1.5" />
<path d="M365.27,181.12L365.27,173.12" style="fill:none;stroke:#000000;stroke-width:1.5" />
<path d="M432.07,177.12L432.07,173.12" style="fill:none;stroke:#000000;stroke-width:1.5" />
<path d="M498.88,181.12L498.88,173.12" style="fill:none;stroke:#000000;stroke-width:1.5" />
<path d="M565.68,177.12L565.68,173.12" style="fill:none;stroke:#000000;stroke-width:1.5" />
<path d="M632.48,181.12L632.48,173.12" style="fill:none;stroke:#000000;stroke-width:1.5" />
<path d="M699.28,177.12L699.28,173.12" style="fill:none;stroke:#000000;stroke-width:1.5" />
<path d="M766.08,181.12L766.08,173.12" style="fill:none;stroke:#000000;stroke-width:1.5" />
<path d="M832.88,177.12L832.88,173.12" style="fill:none;stroke:#000000;stroke-width:1.5" />
<path d="M899.68,181.12L899.68,173.12" style="fill:none;stroke:#000000;stroke-width:1.5" />
<path d="M966.48,177.12L966.48,173.12" style="fill:none;stroke:#000000;stroke-width:1.5" />
<path d="M1033.3,181.12L1033.3,173.12" style="fill:none;stroke:#000000;stroke-width:1.5" />
<path d="M231.67,173.12L1033.3,173.12" style="fill:none;stroke:#000000;stroke-width:1.5" />
<g transform="rotate(90)">
<text x="245.29" y="45.391" transform="scale(1, -1)"
	style="font-family:Helvetica;font-weight:normal;font-style:normal;font-size:56px">Dissipation Rate (MHz)</text>
</g>
<text x="145.57" y="-303.09" transform="scale(1, -1)"
	style="font-family:Helvetica;font-weight:normal;font-style:normal;font-size:56px">80</text>
<text x="145.57" y="-591.01" transform="scale(1, -1)"
	style="font-family:Helvetica;font-weight:normal;font-style:normal;font-size:56px">90</text>
<text x="114.43" y="-878.93" transform="scale(1, -1)"
	style="font-family:Helvetica;font-weight:normal;font-style:normal;font-size:56px">100</text>
<path d="M235.42,173.24L231.42,173.24" style="fill:none;stroke:#000000;stroke-width:1.5" />
<path d="M239.42,317.2L231.42,317.2" style="fill:none;stroke:#000000;stroke-width:1.5" />
<path d="M235.42,461.16L231.42,461.16" style="fill:none;stroke:#000000;stroke-width:1.5" />
<path d="M239.42,605.12L231.42,605.12" style="fill:none;stroke:#000000;stroke-width:1.5" />
<path d="M235.42,749.08L231.42,749.08" style="fill:none;stroke:#000000;stroke-width:1.5" />
<path d="M239.42,893.04L231.42,893.04" style="fill:none;stroke:#000000;stroke-width:1.5" />
<path d="M231.42,173.24L231.42,893.04" style="fill:none;stroke:#000000;stroke-width:1.5" />
<path d="M258.39,547.25L311.83,558.28L365.27,569.31L418.71,580.35L472.16,591.38L525.6,602.41L579.04,613.45L632.48,624.48L685.92,635.51L739.36,646.55L792.8,657.58L846.24,668.61L899.68,679.65L953.12,690.68L1006.6,701.71" style="fill:none;stroke:#637CC6;stroke-width:3" />
<path d="M231.67,893.04L1033.3,893.04" style="fill:none;stroke:#000000" />
<path d="M1033.3,173.24L1033.3,893.04" style="fill:none;stroke:#000000" />
<path d="M258.39,525.93L311.83,516.21L365.27,506.49L418.71,496.77L472.16,487.05L525.6,477.33L579.04,467.61L632.48,457.89L685.92,448.17L739.36,438.45L792.8,428.73L846.24,419.01L899.68,409.29L953.12,399.57L1006.6,389.85" style="fill:none;stroke:#C96892;stroke-width:3" />
<path d="M231.67,536.74L1006.6,696.85" style="fill:none;stroke:#627BC5;stroke-opacity:0.4902;stroke-width:3;stroke-dasharray:15,5" />
<path d="M231.67,536.74L1006.6,376.63" style="fill:none;stroke:#C86791;stroke-opacity:0.4902;stroke-width:3;stroke-dasharray:15,5" />
<path d="M264.39,556.11A6,6 0 1 1 252.39,556.11A6,6 0 1 1 264.39,556.11Z" style="fill:#637CC6" />
<path d="M317.83,552.17A6,6 0 1 1 305.83,552.17A6,6 0 1 1 317.83,552.17Z" style="fill:#637CC6" />
<path d="M371.27,572.92A6,6 0 1 1 359.27,572.92A6,6 0 1 1 371.27,572.92Z" style="fill:#637CC6" />
<path d="M424.71,582.21A6,6 0 1 1 412.71,582.21A6,6 0 1 1 424.71,582.21Z" style="fill:#637CC6" />
<path d="M478.16,588.24A6,6 0 1 1 466.16,588.24A6,6 0 1 1 478.16,588.24Z" style="fill:#637CC6" />
<path d="M531.6,604.27A6,6 0 1 1 519.6,604.27A6,6 0 1 1 531.6,604.27Z" style="fill:#637CC6" />
<path d="M585.04,610.18A6,6 0 1 1 573.04,610.18A6,6 0 1 1 585.04,610.18Z" style="fill:#637CC6" />
<path d="M638.48,619.49A6,6 0 1 1 626.48,619.49A6,6 0 1 1 638.48,619.49Z" style="fill:#637CC6" />
<path d="M691.92,631.76A6,6 0 1 1 679.92,631.76A6,6 0 1 1 691.92,631.76Z" style="fill:#637CC6" />
<path d="M745.36,645.59A6,6 0 1 1 733.36,645.59A6,6 0 1 1 745.36,645.59Z" style="fill:#637CC6" />
<path d="M798.8,656.05A6,6 0 1 1 786.8,656.05A6,6 0 1 1 798.8,656.05Z" style="fill:#637CC6" />
<path d="M852.24,668.01A6,6 0 1 1 840.24,668.01A6,6 0 1 1 852.24,668.01Z" style="fill:#637CC6" />
<path d="M905.68,678.94A6,6 0 1 1 893.68,678.94A6,6 0 1 1 905.68,678.94Z" style="fill:#637CC6" />
<path d="M959.12,694.59A6,6 0 1 1 947.12,694.59A6,6 0 1 1 959.12,694.59Z" style="fill:#637CC6" />
<path d="M1012.6,706.67A6,6 0 1 1 1000.6,706.67A6,6 0 1 1 1012.6,706.67Z" style="fill:#637CC6" />
<path d="M264.39,536.62A6,6 0 1 1 252.39,536.62A6,6 0 1 1 264.39,536.62Z" style="fill:#C96892" />
<path d="M317.83,522.21A6,6 0 1 1 305.83,522.21A6,6 0 1 1 317.83,522.21Z" style="fill:#C96892" />
<path d="M371.27,500.23A6,6 0 1 1 359.27,500.23A6,6 0 1 1 371.27,500.23Z" style="fill:#C96892" />
<path d="M424.71,494.61A6,6 0 1 1 412.71,494.61A6,6 0 1 1 424.71,494.61Z" style="fill:#C96892" />
<path d="M478.16,480.42A6,6 0 1 1 466.16,480.42A6,6 0 1 1 478.16,480.42Z" style="fill:#C96892" />
<path d="M531.6,476.58A6,6 0 1 1 519.6,476.58A6,6 0 1 1 531.6,476.58Z" style="fill:#C96892" />
<path d="M585.04,463.53A6,6 0 1 1 573.04,463.53A6,6 0 1 1 585.04,463.53Z" style="fill:#C96892" />
<path d="M638.48,456.38A6,6 0 1 1 626.48,456.38A6,6 0 1 1 638.48,456.38Z" style="fill:#C96892" />
<path d="M691.92,444.67A6,6 0 1 1 679.92,444.67A6,6 0 1 1 691.92,444.67Z" style="fill:#C96892" />
<path d="M745.36,437.33A6,6 0 1 1 733.36,437.33A6,6 0 1 1 745.36,437.33Z" style="fill:#C96892" />
<path d="M798.8,428.25A6,6 0 1 1 786.8,428.25A6,6 0 1 1 798.8,428.25Z" style="fill:#C96892" />
<path d="M852.24,419.91A6,6 0 1 1 840.24,419.91A6,6 0 1 1 852.24,419.91Z" style="fill:#C96892" />
<path d="M905.68,413.52A6,6 0 1 1 893.68,413.52A6,6 0 1 1 905.68,413.52Z" style="fill:#C96892" />
<path d="M959.12,404.48A6,6 0 1 1 947.12,404.48A6,6 0 1 1 959.12,404.48Z" style="fill:#C96892" />
<path d="M1012.6,389.61A6,6 0 1 1 1000.6,389.61A6,6 0 1 1 1012.6,389.61Z" style="fill:#C96892" />
<path d="M269.17,839.83L319.17,839.83" style="fill:none;stroke:#637CC6;stroke-width:3" />
<text x="334.73" y="-826.64" transform="scale(1, -1)"
	style="font-family:Helvetica;font-weight:normal;font-style:normal;font-size:56px">Anti-Stokes Fit</text>
<path d="M269.17,780.97L319.17,780.97" style="fill:none;stroke:#627BC5;stroke-opacity:0.4902;stroke-width:3;stroke-dasharray:15,5" />
<text x="334.73" y="-767.77" transform="scale(1, -1)"
	style="font-family:Helvetica;font-weight:normal;font-style:normal;font-size:56px">Γ as,eff</text>
<path d="M269.17,722.1L319.17,722.1" style="fill:none;stroke:#C96892;stroke-width:3" />
<text x="334.73" y="-708.91" transform="scale(1, -1)"
	style="font-family:Helvetica;font-weight:normal;font-style:normal;font-size:56px">Stokes Fit</text>
<path d="M269.17,663.24L319.17,663.24" style="fill:none;stroke:#C86791;stroke-opacity:0.4902;stroke-width:3;stroke-dasharray:15,5" />
<text x="334.73" y="-650.05" transform="scale(1, -1)"
	style="font-family:Helvetica;font-weight:normal;font-style:normal;font-size:56px">Γ s,eff</text>
</g>
</svg>
