<?xml version="1.0"?>
<!-- Generated by SVGo and Plotinum VG -->
<svg width="1080pt" height="1080pt" viewBox="0 0 1080 1080"
	xmlns="http://www.w3.org/2000/svg"
	xmlns:xlink="http://www.w3.org/1999/xlink">
<g transform="scale(1, -1) translate(0, -1080)">
<path d="M0,0L1080,0L1080,1080L0,1080Z" style="fill:#-8000000000000000-8000000000000000-8000000000000000;fill-opacity:0" />
<text x="280.17" y="-1039.5" transform="scale(1, -1)"
	style="font-family:Helvetica;font-weight:normal;font-style:normal;font-size:50px">Height Ratios vs Power</text>
<text x="428.9" y="-11.039" transform="scale(1, -1)"
	style="font-family:Helvetica;font-weight:normal;font-style:normal;font-size:36px">Pump Power (mW)</text>
<text x="303.94" y="-71.258" transform="scale(1, -1)"
	style="font-family:Helvetica;font-weight:normal;font-style:normal;font-size:36px">50</text>
<text x="535.93" y="-71.258" transform="scale(1, -1)"
	style="font-family:Helvetica;font-weight:normal;font-style:normal;font-size:36px">100</text>
<text x="777.93" y="-71.258" transform="scale(1, -1)"
	style="font-family:Helvetica;font-weight:normal;font-style:normal;font-size:36px">150</text>
<text x="1019.9" y="-71.258" transform="scale(1, -1)"
	style="font-family:Helvetica;font-weight:normal;font-style:normal;font-size:36px">200</text>
<path d="M202.96,112.44L202.96,108.44" style="fill:none;stroke:#000000;stroke-width:1.5" />
<path d="M323.96,116.44L323.96,108.44" style="fill:none;stroke:#000000;stroke-width:1.5" />
<path d="M444.96,112.44L444.96,108.44" style="fill:none;stroke:#000000;stroke-width:1.5" />
<path d="M565.96,116.44L565.96,108.44" style="fill:none;stroke:#000000;stroke-width:1.5" />
<path d="M686.96,112.44L686.96,108.44" style="fill:none;stroke:#000000;stroke-width:1.5" />
<path d="M807.97,116.44L807.97,108.44" style="fill:none;stroke:#000000;stroke-width:1.5" />
<path d="M928.97,112.44L928.97,108.44" style="fill:none;stroke:#000000;stroke-width:1.5" />
<path d="M1050,116.44L1050,108.44" style="fill:none;stroke:#000000;stroke-width:1.5" />
<path d="M111.87,108.44L1050,108.44" style="fill:none;stroke:#000000;stroke-width:1.5" />
<g transform="rotate(90)">
<text x="320.25" y="29.18" transform="scale(1, -1)"
	style="font-family:Helvetica;font-weight:normal;font-style:normal;font-size:36px">Stokes/Anti-Stokes Heights</text>
</g>
<text x="67.848" y="-252.69" transform="scale(1, -1)"
	style="font-family:Helvetica;font-weight:normal;font-style:normal;font-size:36px">2</text>
<text x="67.848" y="-559.08" transform="scale(1, -1)"
	style="font-family:Helvetica;font-weight:normal;font-style:normal;font-size:36px">4</text>
<text x="67.848" y="-865.47" transform="scale(1, -1)"
	style="font-family:Helvetica;font-weight:normal;font-style:normal;font-size:36px">6</text>
<path d="M113.87,261.76L105.87,261.76" style="fill:none;stroke:#000000;stroke-width:1.5" />
<path d="M113.87,568.15L105.87,568.15" style="fill:none;stroke:#000000;stroke-width:1.5" />
<path d="M113.87,874.54L105.87,874.54" style="fill:none;stroke:#000000;stroke-width:1.5" />
<path d="M109.87,414.96L105.87,414.96" style="fill:none;stroke:#000000;stroke-width:1.5" />
<path d="M109.87,721.34L105.87,721.34" style="fill:none;stroke:#000000;stroke-width:1.5" />
<path d="M105.87,108.57L105.87,968.14" style="fill:none;stroke:#000000;stroke-width:1.5" />
<path d="M112.06,523.61L111.97,691.99L111.87,860.37L112.02,607.8" style="fill:none;stroke:#7F7F7F;stroke-width:3" />
<path d="M118.06,519.02A6,6 0 1 1 106.06,519.02A6,6 0 1 1 118.06,519.02Z" style="fill:#1BAA8B" />
<path d="M117.97,364.08A6,6 0 1 1 105.97,364.08A6,6 0 1 1 117.97,364.08Z" style="fill:#1BAA8B" />
<path d="M117.87,968.14A6,6 0 1 1 105.87,968.14A6,6 0 1 1 117.87,968.14Z" style="fill:#1BAA8B" />
<path d="M118.02,832.52A6,6 0 1 1 106.02,832.52A6,6 0 1 1 118.02,832.52Z" style="fill:#1BAA8B" />
</g>
</svg>
