<?xml version="1.0"?>
<!-- Generated by SVGo and Plotinum VG -->
<svg width="1080pt" height="1080pt" viewBox="0 0 1080 1080"
	xmlns="http://www.w3.org/2000/svg"
	xmlns:xlink="http://www.w3.org/1999/xlink">
<g transform="scale(1, -1) translate(0, -1080)">
<path d="M0,0L1080,0L1080,1080L0,1080Z" style="fill:#-8000000000000000-8000000000000000-8000000000000000;fill-opacity:0" />
<text x="533.05" y="-1039.5" transform="scale(1, -1)"
	style="font-family:Helvetica;font-weight:normal;font-style:normal;font-size:50px"> </text>
<text x="498.07" y="-11.039" transform="scale(1, -1)"
	style="font-family:Helvetica;font-weight:normal;font-style:normal;font-size:36px">Power (mW)</text>
<text x="136.15" y="-71.258" transform="scale(1, -1)"
	style="font-family:Helvetica;font-weight:normal;font-style:normal;font-size:36px">0</text>
<text x="276.78" y="-71.258" transform="scale(1, -1)"
	style="font-family:Helvetica;font-weight:normal;font-style:normal;font-size:36px">50</text>
<text x="417.4" y="-71.258" transform="scale(1, -1)"
	style="font-family:Helvetica;font-weight:normal;font-style:normal;font-size:36px">100</text>
<text x="568.03" y="-71.258" transform="scale(1, -1)"
	style="font-family:Helvetica;font-weight:normal;font-style:normal;font-size:36px">150</text>
<text x="718.67" y="-71.258" transform="scale(1, -1)"
	style="font-family:Helvetica;font-weight:normal;font-style:normal;font-size:36px">200</text>
<text x="869.3" y="-71.258" transform="scale(1, -1)"
	style="font-family:Helvetica;font-weight:normal;font-style:normal;font-size:36px">250</text>
<text x="1019.9" y="-71.258" transform="scale(1, -1)"
	style="font-family:Helvetica;font-weight:normal;font-style:normal;font-size:36px">300</text>
<path d="M146.16,116.44L146.16,108.44" style="fill:none;stroke:#000000;stroke-width:1.5" />
<path d="M221.48,112.44L221.48,108.44" style="fill:none;stroke:#000000;stroke-width:1.5" />
<path d="M296.8,116.44L296.8,108.44" style="fill:none;stroke:#000000;stroke-width:1.5" />
<path d="M372.11,112.44L372.11,108.44" style="fill:none;stroke:#000000;stroke-width:1.5" />
<path d="M447.43,116.44L447.43,108.44" style="fill:none;stroke:#000000;stroke-width:1.5" />
<path d="M522.75,112.44L522.75,108.44" style="fill:none;stroke:#000000;stroke-width:1.5" />
<path d="M598.07,116.44L598.07,108.44" style="fill:none;stroke:#000000;stroke-width:1.5" />
<path d="M673.38,112.44L673.38,108.44" style="fill:none;stroke:#000000;stroke-width:1.5" />
<path d="M748.7,116.44L748.7,108.44" style="fill:none;stroke:#000000;stroke-width:1.5" />
<path d="M824.02,112.44L824.02,108.44" style="fill:none;stroke:#000000;stroke-width:1.5" />
<path d="M899.33,116.44L899.33,108.44" style="fill:none;stroke:#000000;stroke-width:1.5" />
<path d="M974.65,112.44L974.65,108.44" style="fill:none;stroke:#000000;stroke-width:1.5" />
<path d="M1050,116.44L1050,108.44" style="fill:none;stroke:#000000;stroke-width:1.5" />
<path d="M146.16,108.44L1050,108.44" style="fill:none;stroke:#000000;stroke-width:1.5" />
<g transform="rotate(90)">
<text x="348.53" y="29.18" transform="scale(1, -1)"
	style="font-family:Helvetica;font-weight:normal;font-style:normal;font-size:36px">Dissipation Rate (MHz)</text>
</g>
<text x="87.869" y="-266.95" transform="scale(1, -1)"
	style="font-family:Helvetica;font-weight:normal;font-style:normal;font-size:36px">80</text>
<text x="87.869" y="-610.36" transform="scale(1, -1)"
	style="font-family:Helvetica;font-weight:normal;font-style:normal;font-size:36px">90</text>
<text x="67.848" y="-953.77" transform="scale(1, -1)"
	style="font-family:Helvetica;font-weight:normal;font-style:normal;font-size:36px">100</text>
<path d="M149.91,104.32L145.91,104.32" style="fill:none;stroke:#000000;stroke-width:1.5" />
<path d="M153.91,276.02L145.91,276.02" style="fill:none;stroke:#000000;stroke-width:1.5" />
<path d="M149.91,447.73L145.91,447.73" style="fill:none;stroke:#000000;stroke-width:1.5" />
<path d="M153.91,619.43L145.91,619.43" style="fill:none;stroke:#000000;stroke-width:1.5" />
<path d="M149.91,791.13L145.91,791.13" style="fill:none;stroke:#000000;stroke-width:1.5" />
<path d="M153.91,962.84L145.91,962.84" style="fill:none;stroke:#000000;stroke-width:1.5" />
<path d="M145.91,104.32L145.91,962.84" style="fill:none;stroke:#000000;stroke-width:1.5" />
<path d="M296.8,676.26L357.05,689.33L417.31,702.4L477.56,715.48L537.81,728.55L598.07,741.63L658.32,754.7L718.57,767.77L778.83,780.85L839.08,793.92L899.33,806.99L959.59,820.07L1019.8,833.14" style="fill:none;stroke:#637CC6;stroke-width:3" />
<path d="M146.16,962.84L1050,962.84" style="fill:none;stroke:#000000" />
<path d="M1050,104.32L1050,962.84" style="fill:none;stroke:#000000" />
<path d="M296.8,591.84L357.05,579.23L417.31,566.62L477.56,554L537.81,541.39L598.07,528.78L658.32,516.17L718.57,503.55L778.83,490.94L839.08,478.33L899.33,465.72L959.59,453.11L1019.8,440.49" style="fill:none;stroke:#C96892;stroke-width:3" />
<path d="M146.16,628.01L1019.8,824.7" style="fill:none;stroke:#627BC5;stroke-opacity:0.4902;stroke-width:3;stroke-dasharray:15,5" />
<path d="M146.16,628.01L1019.8,431.33" style="fill:none;stroke:#C86791;stroke-opacity:0.4902;stroke-width:3;stroke-dasharray:15,5" />
<path d="M302.8,685.75A6,6 0 1 1 290.8,685.75A6,6 0 1 1 302.8,685.75Z" style="fill:#637CC6" />
<path d="M363.05,703.14A6,6 0 1 1 351.05,703.14A6,6 0 1 1 363.05,703.14Z" style="fill:#637CC6" />
<path d="M423.31,690.68A6,6 0 1 1 411.31,690.68A6,6 0 1 1 423.31,690.68Z" style="fill:#637CC6" />
<path d="M483.56,710.82A6,6 0 1 1 471.56,710.82A6,6 0 1 1 483.56,710.82Z" style="fill:#637CC6" />
<path d="M543.81,722.18A6,6 0 1 1 531.81,722.18A6,6 0 1 1 543.81,722.18Z" style="fill:#637CC6" />
<path d="M604.07,738.32A6,6 0 1 1 592.07,738.32A6,6 0 1 1 604.07,738.32Z" style="fill:#637CC6" />
<path d="M664.32,750.41A6,6 0 1 1 652.32,750.41A6,6 0 1 1 664.32,750.41Z" style="fill:#637CC6" />
<path d="M724.57,766.8A6,6 0 1 1 712.57,766.8A6,6 0 1 1 724.57,766.8Z" style="fill:#637CC6" />
<path d="M784.83,779.96A6,6 0 1 1 772.83,779.96A6,6 0 1 1 784.83,779.96Z" style="fill:#637CC6" />
<path d="M845.08,791.93A6,6 0 1 1 833.08,791.93A6,6 0 1 1 845.08,791.93Z" style="fill:#637CC6" />
<path d="M905.33,810.13A6,6 0 1 1 893.33,810.13A6,6 0 1 1 905.33,810.13Z" style="fill:#637CC6" />
<path d="M965.59,821.37A6,6 0 1 1 953.59,821.37A6,6 0 1 1 965.59,821.37Z" style="fill:#637CC6" />
<path d="M1025.8,839.6A6,6 0 1 1 1013.8,839.6A6,6 0 1 1 1025.8,839.6Z" style="fill:#637CC6" />
<path d="M302.8,591.41A6,6 0 1 1 290.8,591.41A6,6 0 1 1 302.8,591.41Z" style="fill:#C96892" />
<path d="M363.05,602.51A6,6 0 1 1 351.05,602.51A6,6 0 1 1 363.05,602.51Z" style="fill:#C96892" />
<path d="M423.31,558.9A6,6 0 1 1 411.31,558.9A6,6 0 1 1 423.31,558.9Z" style="fill:#C96892" />
<path d="M483.56,545.34A6,6 0 1 1 471.56,545.34A6,6 0 1 1 483.56,545.34Z" style="fill:#C96892" />
<path d="M543.81,529.7A6,6 0 1 1 531.81,529.7A6,6 0 1 1 543.81,529.7Z" style="fill:#C96892" />
<path d="M604.07,521.72A6,6 0 1 1 592.07,521.72A6,6 0 1 1 604.07,521.72Z" style="fill:#C96892" />
<path d="M664.32,530.16A6,6 0 1 1 652.32,530.16A6,6 0 1 1 664.32,530.16Z" style="fill:#C96892" />
<path d="M724.57,500.2A6,6 0 1 1 712.57,500.2A6,6 0 1 1 724.57,500.2Z" style="fill:#C96892" />
<path d="M784.83,487.93A6,6 0 1 1 772.83,487.93A6,6 0 1 1 784.83,487.93Z" style="fill:#C96892" />
<path d="M845.08,477.94A6,6 0 1 1 833.08,477.94A6,6 0 1 1 845.08,477.94Z" style="fill:#C96892" />
<path d="M905.33,461.62A6,6 0 1 1 893.33,461.62A6,6 0 1 1 905.33,461.62Z" style="fill:#C96892" />
<path d="M965.59,454.39A6,6 0 1 1 953.59,454.39A6,6 0 1 1 965.59,454.39Z" style="fill:#C96892" />
<path d="M1025.8,448.34A6,6 0 1 1 1013.8,448.34A6,6 0 1 1 1025.8,448.34Z" style="fill:#C96892" />
<path d="M183.66,929.52L233.66,929.52" style="fill:none;stroke:#637CC6;stroke-width:3" />
<text x="243.67" y="-921.04" transform="scale(1, -1)"
	style="font-family:Helvetica;font-weight:normal;font-style:normal;font-size:36px">Anti-Stokes Fit</text>
<path d="M183.66,888.11L233.66,888.11" style="fill:none;stroke:#627BC5;stroke-opacity:0.4902;stroke-width:3;stroke-dasharray:15,5" />
<text x="243.67" y="-879.63" transform="scale(1, -1)"
	style="font-family:Helvetica;font-weight:normal;font-style:normal;font-size:36px">Γ as,eff</text>
<path d="M183.66,846.7L233.66,846.7" style="fill:none;stroke:#C96892;stroke-width:3" />
<text x="243.67" y="-838.22" transform="scale(1, -1)"
	style="font-family:Helvetica;font-weight:normal;font-style:normal;font-size:36px">Stokes Fit</text>
<path d="M183.66,805.29L233.66,805.29" style="fill:none;stroke:#C86791;stroke-opacity:0.4902;stroke-width:3;stroke-dasharray:15,5" />
<text x="243.67" y="-796.8" transform="scale(1, -1)"
	style="font-family:Helvetica;font-weight:normal;font-style:normal;font-size:36px">Γ s,eff</text>
</g>
</svg>
