<?xml version="1.0"?>
<!-- Generated by SVGo and Plotinum VG -->
<svg width="1080pt" height="1080pt" viewBox="0 0 1080 1080"
	xmlns="http://www.w3.org/2000/svg"
	xmlns:xlink="http://www.w3.org/1999/xlink">
<g transform="scale(1, -1) translate(0, -1080)">
<path d="M0,0L1080,0L1080,1080L0,1080Z" style="fill:#-8000000000000000-8000000000000000-8000000000000000;fill-opacity:0" />
<text x="82.847" y="-1039.5" transform="scale(1, -1)"
	style="font-family:Helvetica;font-weight:normal;font-style:normal;font-size:50px">1 cm UHNA3 Phase-Matching Bandwidth</text>
<text x="366.73" y="-11.039" transform="scale(1, -1)"
	style="font-family:Helvetica;font-weight:normal;font-style:normal;font-size:36px">Pump-Probe Separation (GHz)</text>
<text x="227" y="-71.258" transform="scale(1, -1)"
	style="font-family:Helvetica;font-weight:normal;font-style:normal;font-size:36px">5.00</text>
<text x="439.72" y="-71.258" transform="scale(1, -1)"
	style="font-family:Helvetica;font-weight:normal;font-style:normal;font-size:36px">15.00</text>
<text x="662.45" y="-71.258" transform="scale(1, -1)"
	style="font-family:Helvetica;font-weight:normal;font-style:normal;font-size:36px">25.00</text>
<text x="885.18" y="-71.258" transform="scale(1, -1)"
	style="font-family:Helvetica;font-weight:normal;font-style:normal;font-size:36px">35.00</text>
<path d="M150.67,112.44L150.67,108.44" style="fill:none;stroke:#000000;stroke-width:1.5" />
<path d="M262.03,116.44L262.03,108.44" style="fill:none;stroke:#000000;stroke-width:1.5" />
<path d="M373.4,112.44L373.4,108.44" style="fill:none;stroke:#000000;stroke-width:1.5" />
<path d="M484.76,116.44L484.76,108.44" style="fill:none;stroke:#000000;stroke-width:1.5" />
<path d="M596.13,112.44L596.13,108.44" style="fill:none;stroke:#000000;stroke-width:1.5" />
<path d="M707.49,116.44L707.49,108.44" style="fill:none;stroke:#000000;stroke-width:1.5" />
<path d="M818.86,112.44L818.86,108.44" style="fill:none;stroke:#000000;stroke-width:1.5" />
<path d="M930.22,116.44L930.22,108.44" style="fill:none;stroke:#000000;stroke-width:1.5" />
<path d="M150.67,108.44L1075,108.44" style="fill:none;stroke:#000000;stroke-width:1.5" />
<g transform="rotate(90)">
<text x="364.4" y="29.18" transform="scale(1, -1)"
	style="font-family:Helvetica;font-weight:normal;font-style:normal;font-size:36px">Peak Spectral Density</text>
</g>
<text x="67.848" y="-178.9" transform="scale(1, -1)"
	style="font-family:Helvetica;font-weight:normal;font-style:normal;font-size:36px">0.34</text>
<text x="67.848" y="-337.21" transform="scale(1, -1)"
	style="font-family:Helvetica;font-weight:normal;font-style:normal;font-size:36px">1.03</text>
<text x="67.848" y="-495.52" transform="scale(1, -1)"
	style="font-family:Helvetica;font-weight:normal;font-style:normal;font-size:36px">1.71</text>
<text x="67.848" y="-653.83" transform="scale(1, -1)"
	style="font-family:Helvetica;font-weight:normal;font-style:normal;font-size:36px">2.40</text>
<text x="67.848" y="-812.14" transform="scale(1, -1)"
	style="font-family:Helvetica;font-weight:normal;font-style:normal;font-size:36px">3.08</text>
<path d="M159.92,108.82L155.92,108.82" style="fill:none;stroke:#000000;stroke-width:1.5" />
<path d="M163.92,187.97L155.92,187.97" style="fill:none;stroke:#000000;stroke-width:1.5" />
<path d="M159.92,267.13L155.92,267.13" style="fill:none;stroke:#000000;stroke-width:1.5" />
<path d="M163.92,346.28L155.92,346.28" style="fill:none;stroke:#000000;stroke-width:1.5" />
<path d="M159.92,425.43L155.92,425.43" style="fill:none;stroke:#000000;stroke-width:1.5" />
<path d="M163.92,504.59L155.92,504.59" style="fill:none;stroke:#000000;stroke-width:1.5" />
<path d="M159.92,583.74L155.92,583.74" style="fill:none;stroke:#000000;stroke-width:1.5" />
<path d="M163.92,662.9L155.92,662.9" style="fill:none;stroke:#000000;stroke-width:1.5" />
<path d="M159.92,742.05L155.92,742.05" style="fill:none;stroke:#000000;stroke-width:1.5" />
<path d="M163.92,821.21L155.92,821.21" style="fill:none;stroke:#000000;stroke-width:1.5" />
<path d="M159.92,900.36L155.92,900.36" style="fill:none;stroke:#000000;stroke-width:1.5" />
<path d="M159.92,742.05L155.92,742.05" style="fill:none;stroke:#000000;stroke-width:1.5" />
<path d="M155.92,108.82L155.92,974.14" style="fill:none;stroke:#000000;stroke-width:1.5" />
<path d="M267.03,742.05A5,5 0 1 1 257.03,742.05A5,5 0 1 1 267.03,742.05Z" style="fill:#1FD3AC" />
<path d="M278.17,627.45A5,5 0 1 1 268.17,627.45A5,5 0 1 1 278.17,627.45Z" style="fill:#1FD3AC" />
<path d="M289.3,579.06A5,5 0 1 1 279.3,579.06A5,5 0 1 1 289.3,579.06Z" style="fill:#1FD3AC" />
<path d="M300.44,557.06A5,5 0 1 1 290.44,557.06A5,5 0 1 1 300.44,557.06Z" style="fill:#1FD3AC" />
<path d="M311.58,479.67A5,5 0 1 1 301.58,479.67A5,5 0 1 1 311.58,479.67Z" style="fill:#1FD3AC" />
<path d="M322.71,403.87A5,5 0 1 1 312.71,403.87A5,5 0 1 1 322.71,403.87Z" style="fill:#1FD3AC" />
<path d="M333.85,391.91A5,5 0 1 1 323.85,391.91A5,5 0 1 1 333.85,391.91Z" style="fill:#1FD3AC" />
<path d="M344.99,334.95A5,5 0 1 1 334.99,334.95A5,5 0 1 1 344.99,334.95Z" style="fill:#1FD3AC" />
<path d="M356.12,301.57A5,5 0 1 1 346.12,301.57A5,5 0 1 1 356.12,301.57Z" style="fill:#1FD3AC" />
<path d="M367.26,236.85A5,5 0 1 1 357.26,236.85A5,5 0 1 1 367.26,236.85Z" style="fill:#1FD3AC" />
<path d="M378.4,197.88A5,5 0 1 1 368.4,197.88A5,5 0 1 1 378.4,197.88Z" style="fill:#1FD3AC" />
<path d="M389.53,176.98A5,5 0 1 1 379.53,176.98A5,5 0 1 1 389.53,176.98Z" style="fill:#1FD3AC" />
<path d="M400.67,161.59A5,5 0 1 1 390.67,161.59A5,5 0 1 1 400.67,161.59Z" style="fill:#1FD3AC" />
<path d="M411.81,162.63A5,5 0 1 1 401.81,162.63A5,5 0 1 1 411.81,162.63Z" style="fill:#1FD3AC" />
<path d="M422.94,191.1A5,5 0 1 1 412.94,191.1A5,5 0 1 1 422.94,191.1Z" style="fill:#1FD3AC" />
<path d="M434.08,207.34A5,5 0 1 1 424.08,207.34A5,5 0 1 1 434.08,207.34Z" style="fill:#1FD3AC" />
<path d="M445.22,221.56A5,5 0 1 1 435.22,221.56A5,5 0 1 1 445.22,221.56Z" style="fill:#1FD3AC" />
<path d="M456.35,246.42A5,5 0 1 1 446.35,246.42A5,5 0 1 1 456.35,246.42Z" style="fill:#1FD3AC" />
<path d="M467.49,257.14A5,5 0 1 1 457.49,257.14A5,5 0 1 1 467.49,257.14Z" style="fill:#1FD3AC" />
<path d="M478.63,261.16A5,5 0 1 1 468.63,261.16A5,5 0 1 1 478.63,261.16Z" style="fill:#1FD3AC" />
<path d="M489.76,258.42A5,5 0 1 1 479.76,258.42A5,5 0 1 1 489.76,258.42Z" style="fill:#1FD3AC" />
<path d="M500.9,256.96A5,5 0 1 1 490.9,256.96A5,5 0 1 1 500.9,256.96Z" style="fill:#1FD3AC" />
<path d="M512.04,264.43A5,5 0 1 1 502.04,264.43A5,5 0 1 1 512.04,264.43Z" style="fill:#1FD3AC" />
<path d="M523.17,251.25A5,5 0 1 1 513.17,251.25A5,5 0 1 1 523.17,251.25Z" style="fill:#1FD3AC" />
<path d="M534.31,249.95A5,5 0 1 1 524.31,249.95A5,5 0 1 1 534.31,249.95Z" style="fill:#1FD3AC" />
<path d="M545.45,235.62A5,5 0 1 1 535.45,235.62A5,5 0 1 1 545.45,235.62Z" style="fill:#1FD3AC" />
<path d="M556.58,219.88A5,5 0 1 1 546.58,219.88A5,5 0 1 1 556.58,219.88Z" style="fill:#1FD3AC" />
<path d="M567.72,207.94A5,5 0 1 1 557.72,207.94A5,5 0 1 1 567.72,207.94Z" style="fill:#1FD3AC" />
<path d="M578.86,199.79A5,5 0 1 1 568.86,199.79A5,5 0 1 1 578.86,199.79Z" style="fill:#1FD3AC" />
<path d="M589.99,176.46A5,5 0 1 1 579.99,176.46A5,5 0 1 1 589.99,176.46Z" style="fill:#1FD3AC" />
<path d="M601.13,149.82A5,5 0 1 1 591.13,149.82A5,5 0 1 1 601.13,149.82Z" style="fill:#1FD3AC" />
<path d="M612.26,146.74A5,5 0 1 1 602.26,146.74A5,5 0 1 1 612.26,146.74Z" style="fill:#1FD3AC" />
<path d="M623.4,140.03A5,5 0 1 1 613.4,140.03A5,5 0 1 1 623.4,140.03Z" style="fill:#1FD3AC" />
<path d="M634.54,135.41A5,5 0 1 1 624.54,135.41A5,5 0 1 1 634.54,135.41Z" style="fill:#1FD3AC" />
<path d="M645.67,138.91A5,5 0 1 1 635.67,138.91A5,5 0 1 1 645.67,138.91Z" style="fill:#1FD3AC" />
<path d="M656.81,141.97A5,5 0 1 1 646.81,141.97A5,5 0 1 1 656.81,141.97Z" style="fill:#1FD3AC" />
<path d="M667.95,144.94A5,5 0 1 1 657.95,144.94A5,5 0 1 1 667.95,144.94Z" style="fill:#1FD3AC" />
<path d="M679.08,155.03A5,5 0 1 1 669.08,155.03A5,5 0 1 1 679.08,155.03Z" style="fill:#1FD3AC" />
<path d="M690.22,163.14A5,5 0 1 1 680.22,163.14A5,5 0 1 1 690.22,163.14Z" style="fill:#1FD3AC" />
<path d="M701.36,168.65A5,5 0 1 1 691.36,168.65A5,5 0 1 1 701.36,168.65Z" style="fill:#1FD3AC" />
<path d="M712.49,176.24A5,5 0 1 1 702.49,176.24A5,5 0 1 1 712.49,176.24Z" style="fill:#1FD3AC" />
<path d="M723.63,178.79A5,5 0 1 1 713.63,178.79A5,5 0 1 1 723.63,178.79Z" style="fill:#1FD3AC" />
<path d="M734.77,183.32A5,5 0 1 1 724.77,183.32A5,5 0 1 1 734.77,183.32Z" style="fill:#1FD3AC" />
<path d="M745.9,183.92A5,5 0 1 1 735.9,183.92A5,5 0 1 1 745.9,183.92Z" style="fill:#1FD3AC" />
<path d="M757.04,180.54A5,5 0 1 1 747.04,180.54A5,5 0 1 1 757.04,180.54Z" style="fill:#1FD3AC" />
<path d="M768.18,181.94A5,5 0 1 1 758.18,181.94A5,5 0 1 1 768.18,181.94Z" style="fill:#1FD3AC" />
<path d="M779.31,178.54A5,5 0 1 1 769.31,178.54A5,5 0 1 1 779.31,178.54Z" style="fill:#1FD3AC" />
<path d="M790.45,171.38A5,5 0 1 1 780.45,171.38A5,5 0 1 1 790.45,171.38Z" style="fill:#1FD3AC" />
<path d="M801.59,170.48A5,5 0 1 1 791.59,170.48A5,5 0 1 1 801.59,170.48Z" style="fill:#1FD3AC" />
<path d="M812.72,163.67A5,5 0 1 1 802.72,163.67A5,5 0 1 1 812.72,163.67Z" style="fill:#1FD3AC" />
<path d="M823.86,155.75A5,5 0 1 1 813.86,155.75A5,5 0 1 1 823.86,155.75Z" style="fill:#1FD3AC" />
<path d="M835,151.64A5,5 0 1 1 825,151.64A5,5 0 1 1 835,151.64Z" style="fill:#1FD3AC" />
<path d="M846.13,138.94A5,5 0 1 1 836.13,138.94A5,5 0 1 1 846.13,138.94Z" style="fill:#1FD3AC" />
<path d="M857.27,134.41A5,5 0 1 1 847.27,134.41A5,5 0 1 1 857.27,134.41Z" style="fill:#1FD3AC" />
<path d="M868.41,129.88A5,5 0 1 1 858.41,129.88A5,5 0 1 1 868.41,129.88Z" style="fill:#1FD3AC" />
<path d="M879.54,129.53A5,5 0 1 1 869.54,129.53A5,5 0 1 1 879.54,129.53Z" style="fill:#1FD3AC" />
<path d="M890.68,128.7A5,5 0 1 1 880.68,128.7A5,5 0 1 1 890.68,128.7Z" style="fill:#1FD3AC" />
<path d="M901.82,136.48A5,5 0 1 1 891.82,136.48A5,5 0 1 1 901.82,136.48Z" style="fill:#1FD3AC" />
<path d="M912.95,135.92A5,5 0 1 1 902.95,135.92A5,5 0 1 1 912.95,135.92Z" style="fill:#1FD3AC" />
<path d="M924.09,139.63A5,5 0 1 1 914.09,139.63A5,5 0 1 1 924.09,139.63Z" style="fill:#1FD3AC" />
<path d="M935.22,143.43A5,5 0 1 1 925.22,143.43A5,5 0 1 1 935.22,143.43Z" style="fill:#1FD3AC" />
<path d="M946.36,147.27A5,5 0 1 1 936.36,147.27A5,5 0 1 1 946.36,147.27Z" style="fill:#1FD3AC" />
<path d="M957.5,152.31A5,5 0 1 1 947.5,152.31A5,5 0 1 1 957.5,152.31Z" style="fill:#1FD3AC" />
<path d="M968.63,154.93A5,5 0 1 1 958.63,154.93A5,5 0 1 1 968.63,154.93Z" style="fill:#1FD3AC" />
<path d="M979.77,159.8A5,5 0 1 1 969.77,159.8A5,5 0 1 1 979.77,159.8Z" style="fill:#1FD3AC" />
<path d="M990.91,156A5,5 0 1 1 980.91,156A5,5 0 1 1 990.91,156Z" style="fill:#1FD3AC" />
<path d="M1002,157.74A5,5 0 1 1 992.04,157.74A5,5 0 1 1 1002,157.74Z" style="fill:#1FD3AC" />
<path d="M1013.2,156.79A5,5 0 1 1 1003.2,156.79A5,5 0 1 1 1013.2,156.79Z" style="fill:#1FD3AC" />
<path d="M1024.3,154.38A5,5 0 1 1 1014.3,154.38A5,5 0 1 1 1024.3,154.38Z" style="fill:#1FD3AC" />
<path d="M1035.5,150.06A5,5 0 1 1 1025.5,150.06A5,5 0 1 1 1035.5,150.06Z" style="fill:#1FD3AC" />
<path d="M1046.6,148.03A5,5 0 1 1 1036.6,148.03A5,5 0 1 1 1046.6,148.03Z" style="fill:#1FD3AC" />
<path d="M1057.7,144.95A5,5 0 1 1 1047.7,144.95A5,5 0 1 1 1057.7,144.95Z" style="fill:#1FD3AC" />
<path d="M1068.9,141.02A5,5 0 1 1 1058.9,141.02A5,5 0 1 1 1068.9,141.02Z" style="fill:#1FD3AC" />
<path d="M1080,130.77A5,5 0 1 1 1070,130.77A5,5 0 1 1 1080,130.77Z" style="fill:#1FD3AC" />
<path d="M150.67,742.05L1075,742.05" style="fill:none;stroke:#000000" />
<path d="M1075,108.82L1075,742.05" style="fill:none;stroke:#000000" />
<path d="M262.03,974.14L273.17,904.52L284.3,833.38L295.44,761.79L306.58,690.77L317.71,621.28L328.85,554.22L339.99,490.4L351.12,430.51L362.26,375.14L373.4,324.75L384.53,279.67L395.67,240.11L406.81,206.15L417.94,177.74L429.08,154.73L440.22,136.86L451.35,123.79L462.49,115.09L473.63,110.27L484.76,108.82L495.9,110.17L507.04,113.76L518.17,119.03L529.31,125.45L540.45,132.49L551.58,139.71L562.72,146.68L573.86,153.07L584.99,158.58L596.13,162.99L607.26,166.17L618.4,168.03L629.54,168.54L640.67,167.76L651.81,165.77L662.95,162.7L674.08,158.72L685.22,154.02L696.36,148.82L707.49,143.32L718.63,137.74L729.77,132.27L740.9,127.1L752.04,122.39L763.18,118.27L774.31,114.83L785.45,112.15L796.59,110.26L807.72,109.16L818.86,108.82L830,109.17L841.13,110.15L852.27,111.64L863.41,113.53L874.54,115.71L885.68,118.03L896.82,120.39L907.95,122.66L919.09,124.74L930.22,126.53L941.36,127.96L952.5,128.98L963.63,129.55L974.77,129.66L985.91,129.32L997.04,128.55L1008.2,127.41L1019.3,125.93L1030.5,124.2L1041.6,122.29L1052.7,120.27L1063.9,118.24L1075,116.26" style="fill:none;stroke:#FF0000" />
<path d="M150.67,742.05L1075,742.05" style="fill:none;stroke:#000000" />
<path d="M1075,108.82L1075,742.05" style="fill:none;stroke:#000000" />
</g>
</svg>
