<?xml version="1.0"?>
<!-- Generated by SVGo and Plotinum VG -->
<svg width="1080pt" height="1080pt" viewBox="0 0 1080 1080"
	xmlns="http://www.w3.org/2000/svg"
	xmlns:xlink="http://www.w3.org/1999/xlink">
<g transform="scale(1, -1) translate(0, -1080)">
<path d="M0,0L1080,0L1080,1080L0,1080Z" style="fill:#-8000000000000000-8000000000000000-8000000000000000;fill-opacity:0" />
<text x="533.05" y="-1039.5" transform="scale(1, -1)"
	style="font-family:Helvetica;font-weight:normal;font-style:normal;font-size:50px"> </text>
<text x="498.07" y="-11.039" transform="scale(1, -1)"
	style="font-family:Helvetica;font-weight:normal;font-style:normal;font-size:36px">Power (mW)</text>
<text x="236.58" y="-71.258" transform="scale(1, -1)"
	style="font-family:Helvetica;font-weight:normal;font-style:normal;font-size:36px">0</text>
<text x="427.41" y="-71.258" transform="scale(1, -1)"
	style="font-family:Helvetica;font-weight:normal;font-style:normal;font-size:36px">50</text>
<text x="618.25" y="-71.258" transform="scale(1, -1)"
	style="font-family:Helvetica;font-weight:normal;font-style:normal;font-size:36px">100</text>
<text x="819.09" y="-71.258" transform="scale(1, -1)"
	style="font-family:Helvetica;font-weight:normal;font-style:normal;font-size:36px">150</text>
<text x="1019.9" y="-71.258" transform="scale(1, -1)"
	style="font-family:Helvetica;font-weight:normal;font-style:normal;font-size:36px">200</text>
<path d="M146.16,112.44L146.16,108.44" style="fill:none;stroke:#000000;stroke-width:1.5" />
<path d="M246.59,116.44L246.59,108.44" style="fill:none;stroke:#000000;stroke-width:1.5" />
<path d="M347.01,112.44L347.01,108.44" style="fill:none;stroke:#000000;stroke-width:1.5" />
<path d="M447.43,116.44L447.43,108.44" style="fill:none;stroke:#000000;stroke-width:1.5" />
<path d="M547.85,112.44L547.85,108.44" style="fill:none;stroke:#000000;stroke-width:1.5" />
<path d="M648.28,116.44L648.28,108.44" style="fill:none;stroke:#000000;stroke-width:1.5" />
<path d="M748.7,112.44L748.7,108.44" style="fill:none;stroke:#000000;stroke-width:1.5" />
<path d="M849.12,116.44L849.12,108.44" style="fill:none;stroke:#000000;stroke-width:1.5" />
<path d="M949.55,112.44L949.55,108.44" style="fill:none;stroke:#000000;stroke-width:1.5" />
<path d="M1050,116.44L1050,108.44" style="fill:none;stroke:#000000;stroke-width:1.5" />
<path d="M146.16,108.44L1050,108.44" style="fill:none;stroke:#000000;stroke-width:1.5" />
<g transform="rotate(90)">
<text x="351.53" y="29.18" transform="scale(1, -1)"
	style="font-family:Helvetica;font-weight:normal;font-style:normal;font-size:36px">Dissipation Rate (MHz)</text>
</g>
<text x="87.869" y="-460.09" transform="scale(1, -1)"
	style="font-family:Helvetica;font-weight:normal;font-style:normal;font-size:36px">80</text>
<text x="87.869" y="-624.65" transform="scale(1, -1)"
	style="font-family:Helvetica;font-weight:normal;font-style:normal;font-size:36px">90</text>
<text x="67.848" y="-789.21" transform="scale(1, -1)"
	style="font-family:Helvetica;font-weight:normal;font-style:normal;font-size:36px">100</text>
<text x="70.52" y="-953.77" transform="scale(1, -1)"
	style="font-family:Helvetica;font-weight:normal;font-style:normal;font-size:36px">110</text>
<path d="M149.91,386.88L145.91,386.88" style="fill:none;stroke:#000000;stroke-width:1.5" />
<path d="M153.91,469.16L145.91,469.16" style="fill:none;stroke:#000000;stroke-width:1.5" />
<path d="M149.91,551.44L145.91,551.44" style="fill:none;stroke:#000000;stroke-width:1.5" />
<path d="M153.91,633.72L145.91,633.72" style="fill:none;stroke:#000000;stroke-width:1.5" />
<path d="M149.91,716L145.91,716" style="fill:none;stroke:#000000;stroke-width:1.5" />
<path d="M153.91,798.28L145.91,798.28" style="fill:none;stroke:#000000;stroke-width:1.5" />
<path d="M149.91,880.56L145.91,880.56" style="fill:none;stroke:#000000;stroke-width:1.5" />
<path d="M153.91,962.84L145.91,962.84" style="fill:none;stroke:#000000;stroke-width:1.5" />
<path d="M145.91,110.32L145.91,962.84" style="fill:none;stroke:#000000;stroke-width:1.5" />
<path d="M286.76,622.09L326.92,630.21L367.09,638.33L407.26,646.45L447.43,654.57L487.6,662.69L527.77,670.81L567.94,678.93L608.11,687.05L648.28,695.18L688.45,703.3L728.62,711.42L768.78,719.54L808.95,727.66L849.12,735.78L889.29,743.9L929.46,752.02" style="fill:none;stroke:#637CC6;stroke-width:3" />
<path d="M146.16,962.84L1050,962.84" style="fill:none;stroke:#000000" />
<path d="M1050,386.88L1050,962.84" style="fill:none;stroke:#000000" />
<path d="M286.76,628.22L326.92,620.45L367.09,612.68L407.26,604.91L447.43,597.15L487.6,589.38L527.77,581.61L567.94,573.84L608.11,566.08L648.28,558.31L688.45,550.54L728.62,542.77L768.78,535.01L808.95,527.24L849.12,519.47L889.29,511.7L929.46,503.94" style="fill:none;stroke:#C96892;stroke-width:3" />
<path d="M246.59,625.49L246.59,625.49" style="fill:none;stroke:#627BC5;stroke-opacity:0.4902;stroke-width:3;stroke-dasharray:15,5" />
<path d="M246.59,625.49L246.59,625.49" style="fill:none;stroke:#C86791;stroke-opacity:0.4902;stroke-width:3;stroke-dasharray:15,5" />
<path d="M292.76,543.94A6,6 0 1 1 280.76,543.94A6,6 0 1 1 292.76,543.94Z" style="fill:#637CC6" />
<path d="M332.92,642.84A6,6 0 1 1 320.92,642.84A6,6 0 1 1 332.92,642.84Z" style="fill:#637CC6" />
<path d="M373.09,649.89A6,6 0 1 1 361.09,649.89A6,6 0 1 1 373.09,649.89Z" style="fill:#637CC6" />
<path d="M413.26,660.99A6,6 0 1 1 401.26,660.99A6,6 0 1 1 413.26,660.99Z" style="fill:#637CC6" />
<path d="M453.43,661.44A6,6 0 1 1 441.43,661.44A6,6 0 1 1 453.43,661.44Z" style="fill:#637CC6" />
<path d="M493.6,666.44A6,6 0 1 1 481.6,666.44A6,6 0 1 1 493.6,666.44Z" style="fill:#637CC6" />
<path d="M533.77,704.26A6,6 0 1 1 521.77,704.26A6,6 0 1 1 533.77,704.26Z" style="fill:#637CC6" />
<path d="M573.94,686.84A6,6 0 1 1 561.94,686.84A6,6 0 1 1 573.94,686.84Z" style="fill:#637CC6" />
<path d="M614.11,697.33A6,6 0 1 1 602.11,697.33A6,6 0 1 1 614.11,697.33Z" style="fill:#637CC6" />
<path d="M654.28,706.85A6,6 0 1 1 642.28,706.85A6,6 0 1 1 654.28,706.85Z" style="fill:#637CC6" />
<path d="M694.45,713.58A6,6 0 1 1 682.45,713.58A6,6 0 1 1 694.45,713.58Z" style="fill:#637CC6" />
<path d="M734.62,717.05A6,6 0 1 1 722.62,717.05A6,6 0 1 1 734.62,717.05Z" style="fill:#637CC6" />
<path d="M774.78,717.03A6,6 0 1 1 762.78,717.03A6,6 0 1 1 774.78,717.03Z" style="fill:#637CC6" />
<path d="M814.95,712A6,6 0 1 1 802.95,712A6,6 0 1 1 814.95,712Z" style="fill:#637CC6" />
<path d="M855.12,734.3A6,6 0 1 1 843.12,734.3A6,6 0 1 1 855.12,734.3Z" style="fill:#637CC6" />
<path d="M895.29,731.04A6,6 0 1 1 883.29,731.04A6,6 0 1 1 895.29,731.04Z" style="fill:#637CC6" />
<path d="M935.46,734.12A6,6 0 1 1 923.46,734.12A6,6 0 1 1 935.46,734.12Z" style="fill:#637CC6" />
<path d="M292.76,540.96A6,6 0 1 1 280.76,540.96A6,6 0 1 1 292.76,540.96Z" style="fill:#C96892" />
<path d="M332.92,579A6,6 0 1 1 320.92,579A6,6 0 1 1 332.92,579Z" style="fill:#C96892" />
<path d="M373.09,612.94A6,6 0 1 1 361.09,612.94A6,6 0 1 1 373.09,612.94Z" style="fill:#C96892" />
<path d="M413.26,624.06A6,6 0 1 1 401.26,624.06A6,6 0 1 1 413.26,624.06Z" style="fill:#C96892" />
<path d="M453.43,613.69A6,6 0 1 1 441.43,613.69A6,6 0 1 1 453.43,613.69Z" style="fill:#C96892" />
<path d="M493.6,613.72A6,6 0 1 1 481.6,613.72A6,6 0 1 1 493.6,613.72Z" style="fill:#C96892" />
<path d="M533.77,614.08A6,6 0 1 1 521.77,614.08A6,6 0 1 1 533.77,614.08Z" style="fill:#C96892" />
<path d="M573.94,602.67A6,6 0 1 1 561.94,602.67A6,6 0 1 1 573.94,602.67Z" style="fill:#C96892" />
<path d="M614.11,602.48A6,6 0 1 1 602.11,602.48A6,6 0 1 1 614.11,602.48Z" style="fill:#C96892" />
<path d="M654.28,604.41A6,6 0 1 1 642.28,604.41A6,6 0 1 1 654.28,604.41Z" style="fill:#C96892" />
<path d="M694.45,591.68A6,6 0 1 1 682.45,591.68A6,6 0 1 1 694.45,591.68Z" style="fill:#C96892" />
<path d="M734.62,591.21A6,6 0 1 1 722.62,591.21A6,6 0 1 1 734.62,591.21Z" style="fill:#C96892" />
<path d="M774.78,581.63A6,6 0 1 1 762.78,581.63A6,6 0 1 1 774.78,581.63Z" style="fill:#C96892" />
<path d="M814.95,585.49A6,6 0 1 1 802.95,585.49A6,6 0 1 1 814.95,585.49Z" style="fill:#C96892" />
<path d="M855.12,110.32A6,6 0 1 1 843.12,110.32A6,6 0 1 1 855.12,110.32Z" style="fill:#C96892" />
<path d="M895.29,580.84A6,6 0 1 1 883.29,580.84A6,6 0 1 1 895.29,580.84Z" style="fill:#C96892" />
<path d="M935.46,574.14A6,6 0 1 1 923.46,574.14A6,6 0 1 1 935.46,574.14Z" style="fill:#C96892" />
<path d="M183.66,929.52L233.66,929.52" style="fill:none;stroke:#637CC6;stroke-width:3" />
<text x="243.67" y="-921.04" transform="scale(1, -1)"
	style="font-family:Helvetica;font-weight:normal;font-style:normal;font-size:36px">Anti-Stokes</text>
<path d="M183.66,888.11L233.66,888.11" style="fill:none;stroke:#627BC5;stroke-opacity:0.4902;stroke-width:3;stroke-dasharray:15,5" />
<text x="243.67" y="-879.63" transform="scale(1, -1)"
	style="font-family:Helvetica;font-weight:normal;font-style:normal;font-size:36px">Γ as,eff</text>
<path d="M183.66,846.7L233.66,846.7" style="fill:none;stroke:#C96892;stroke-width:3" />
<text x="243.67" y="-838.22" transform="scale(1, -1)"
	style="font-family:Helvetica;font-weight:normal;font-style:normal;font-size:36px">Stokes</text>
<path d="M183.66,805.29L233.66,805.29" style="fill:none;stroke:#C86791;stroke-opacity:0.4902;stroke-width:3;stroke-dasharray:15,5" />
<text x="243.67" y="-796.8" transform="scale(1, -1)"
	style="font-family:Helvetica;font-weight:normal;font-style:normal;font-size:36px">Γ s,eff</text>
</g>
</svg>
