<?xml version="1.0"?>
<!-- Generated by SVGo and Plotinum VG -->
<svg width="1080pt" height="1080pt" viewBox="0 0 1080 1080"
	xmlns="http://www.w3.org/2000/svg"
	xmlns:xlink="http://www.w3.org/1999/xlink">
<g transform="scale(1, -1) translate(0, -1080)">
<path d="M0,0L1080,0L1080,1080L0,1080Z" style="fill:#-8000000000000000-8000000000000000-8000000000000000;fill-opacity:0" />
<text x="205.11" y="-1039.5" transform="scale(1, -1)"
	style="font-family:Helvetica;font-weight:normal;font-style:normal;font-size:50px">1 cm pak1chip3-20um4 CABS</text>
<text x="480.05" y="-11.039" transform="scale(1, -1)"
	style="font-family:Helvetica;font-weight:normal;font-style:normal;font-size:36px">Frequency (GHz)</text>
<text x="204.7" y="-71.258" transform="scale(1, -1)"
	style="font-family:Helvetica;font-weight:normal;font-style:normal;font-size:36px">10.65</text>
<text x="389.27" y="-71.258" transform="scale(1, -1)"
	style="font-family:Helvetica;font-weight:normal;font-style:normal;font-size:36px">10.75</text>
<text x="573.84" y="-71.258" transform="scale(1, -1)"
	style="font-family:Helvetica;font-weight:normal;font-style:normal;font-size:36px">10.85</text>
<text x="758.4" y="-71.258" transform="scale(1, -1)"
	style="font-family:Helvetica;font-weight:normal;font-style:normal;font-size:36px">10.95</text>
<text x="944.3" y="-71.258" transform="scale(1, -1)"
	style="font-family:Helvetica;font-weight:normal;font-style:normal;font-size:36px">11.05</text>
<path d="M249.75,116.44L249.75,108.44" style="fill:none;stroke:#000000;stroke-width:1.5" />
<path d="M342.03,112.44L342.03,108.44" style="fill:none;stroke:#000000;stroke-width:1.5" />
<path d="M434.31,116.44L434.31,108.44" style="fill:none;stroke:#000000;stroke-width:1.5" />
<path d="M526.6,112.44L526.6,108.44" style="fill:none;stroke:#000000;stroke-width:1.5" />
<path d="M618.88,116.44L618.88,108.44" style="fill:none;stroke:#000000;stroke-width:1.5" />
<path d="M711.16,112.44L711.16,108.44" style="fill:none;stroke:#000000;stroke-width:1.5" />
<path d="M803.44,116.44L803.44,108.44" style="fill:none;stroke:#000000;stroke-width:1.5" />
<path d="M895.73,112.44L895.73,108.44" style="fill:none;stroke:#000000;stroke-width:1.5" />
<path d="M988.01,116.44L988.01,108.44" style="fill:none;stroke:#000000;stroke-width:1.5" />
<path d="M161.17,108.44L1075,108.44" style="fill:none;stroke:#000000;stroke-width:1.5" />
<g transform="rotate(90)">
<text x="371.31" y="29.18" transform="scale(1, -1)"
	style="font-family:Helvetica;font-weight:normal;font-style:normal;font-size:36px">Spectral Density (μV)</text>
</g>
<text x="67.848" y="-260.34" transform="scale(1, -1)"
	style="font-family:Helvetica;font-weight:normal;font-style:normal;font-size:36px">0.09</text>
<text x="67.848" y="-461.69" transform="scale(1, -1)"
	style="font-family:Helvetica;font-weight:normal;font-style:normal;font-size:36px">0.68</text>
<text x="67.848" y="-663.04" transform="scale(1, -1)"
	style="font-family:Helvetica;font-weight:normal;font-style:normal;font-size:36px">1.27</text>
<text x="67.848" y="-864.39" transform="scale(1, -1)"
	style="font-family:Helvetica;font-weight:normal;font-style:normal;font-size:36px">1.87</text>
<path d="M159.92,168.74L155.92,168.74" style="fill:none;stroke:#000000;stroke-width:1.5" />
<path d="M163.92,269.41L155.92,269.41" style="fill:none;stroke:#000000;stroke-width:1.5" />
<path d="M159.92,370.09L155.92,370.09" style="fill:none;stroke:#000000;stroke-width:1.5" />
<path d="M163.92,470.76L155.92,470.76" style="fill:none;stroke:#000000;stroke-width:1.5" />
<path d="M159.92,571.44L155.92,571.44" style="fill:none;stroke:#000000;stroke-width:1.5" />
<path d="M163.92,672.11L155.92,672.11" style="fill:none;stroke:#000000;stroke-width:1.5" />
<path d="M159.92,772.79L155.92,772.79" style="fill:none;stroke:#000000;stroke-width:1.5" />
<path d="M163.92,873.47L155.92,873.47" style="fill:none;stroke:#000000;stroke-width:1.5" />
<path d="M159.92,974.14L155.92,974.14" style="fill:none;stroke:#000000;stroke-width:1.5" />
<path d="M159.92,974.14L155.92,974.14" style="fill:none;stroke:#000000;stroke-width:1.5" />
<path d="M155.92,109.32L155.92,974.14" style="fill:none;stroke:#000000;stroke-width:1.5" />
<path d="M161.17,164.03L161.17,522.87" style="fill:none;stroke:#FF7AB4" />
<path d="M158.67,164.03L163.67,164.03" style="fill:none;stroke:#FF7AB4" />
<path d="M158.67,522.87L163.67,522.87" style="fill:none;stroke:#FF7AB4" />
<path d="M164.87,174.02L164.87,514.78" style="fill:none;stroke:#FF7AB4" />
<path d="M162.37,174.02L167.37,174.02" style="fill:none;stroke:#FF7AB4" />
<path d="M162.37,514.78L167.37,514.78" style="fill:none;stroke:#FF7AB4" />
<path d="M168.57,140.27L168.57,494.07" style="fill:none;stroke:#FF7AB4" />
<path d="M166.07,140.27L171.07,140.27" style="fill:none;stroke:#FF7AB4" />
<path d="M166.07,494.07L171.07,494.07" style="fill:none;stroke:#FF7AB4" />
<path d="M172.27,109.32L172.27,466.13" style="fill:none;stroke:#FF7AB4" />
<path d="M169.77,109.32L174.77,109.32" style="fill:none;stroke:#FF7AB4" />
<path d="M169.77,466.13L174.77,466.13" style="fill:none;stroke:#FF7AB4" />
<path d="M175.96,134L175.96,497.74" style="fill:none;stroke:#FF7AB4" />
<path d="M173.46,134L178.46,134" style="fill:none;stroke:#FF7AB4" />
<path d="M173.46,497.74L178.46,497.74" style="fill:none;stroke:#FF7AB4" />
<path d="M179.66,143.2L179.66,476.67" style="fill:none;stroke:#FF7AB4" />
<path d="M177.16,143.2L182.16,143.2" style="fill:none;stroke:#FF7AB4" />
<path d="M177.16,476.67L182.16,476.67" style="fill:none;stroke:#FF7AB4" />
<path d="M183.36,132.01L183.36,492.31" style="fill:none;stroke:#FF7AB4" />
<path d="M180.86,132.01L185.86,132.01" style="fill:none;stroke:#FF7AB4" />
<path d="M180.86,492.31L185.86,492.31" style="fill:none;stroke:#FF7AB4" />
<path d="M187.06,137.82L187.06,499.31" style="fill:none;stroke:#FF7AB4" />
<path d="M184.56,137.82L189.56,137.82" style="fill:none;stroke:#FF7AB4" />
<path d="M184.56,499.31L189.56,499.31" style="fill:none;stroke:#FF7AB4" />
<path d="M190.76,165.41L190.76,522.61" style="fill:none;stroke:#FF7AB4" />
<path d="M188.26,165.41L193.26,165.41" style="fill:none;stroke:#FF7AB4" />
<path d="M188.26,522.61L193.26,522.61" style="fill:none;stroke:#FF7AB4" />
<path d="M194.46,124.99L194.46,460.06" style="fill:none;stroke:#FF7AB4" />
<path d="M191.96,124.99L196.96,124.99" style="fill:none;stroke:#FF7AB4" />
<path d="M191.96,460.06L196.96,460.06" style="fill:none;stroke:#FF7AB4" />
<path d="M198.16,163.29L198.16,518.8" style="fill:none;stroke:#FF7AB4" />
<path d="M195.66,163.29L200.66,163.29" style="fill:none;stroke:#FF7AB4" />
<path d="M195.66,518.8L200.66,518.8" style="fill:none;stroke:#FF7AB4" />
<path d="M201.86,123.25L201.86,471.62" style="fill:none;stroke:#FF7AB4" />
<path d="M199.36,123.25L204.36,123.25" style="fill:none;stroke:#FF7AB4" />
<path d="M199.36,471.62L204.36,471.62" style="fill:none;stroke:#FF7AB4" />
<path d="M205.56,162.02L205.56,509.16" style="fill:none;stroke:#FF7AB4" />
<path d="M203.06,162.02L208.06,162.02" style="fill:none;stroke:#FF7AB4" />
<path d="M203.06,509.16L208.06,509.16" style="fill:none;stroke:#FF7AB4" />
<path d="M209.26,150L209.26,449.16" style="fill:none;stroke:#FF7AB4" />
<path d="M206.76,150L211.76,150" style="fill:none;stroke:#FF7AB4" />
<path d="M206.76,449.16L211.76,449.16" style="fill:none;stroke:#FF7AB4" />
<path d="M212.96,149.87L212.96,481.19" style="fill:none;stroke:#FF7AB4" />
<path d="M210.46,149.87L215.46,149.87" style="fill:none;stroke:#FF7AB4" />
<path d="M210.46,481.19L215.46,481.19" style="fill:none;stroke:#FF7AB4" />
<path d="M216.66,149.81L216.66,462.75" style="fill:none;stroke:#FF7AB4" />
<path d="M214.16,149.81L219.16,149.81" style="fill:none;stroke:#FF7AB4" />
<path d="M214.16,462.75L219.16,462.75" style="fill:none;stroke:#FF7AB4" />
<path d="M220.36,150.11L220.36,494.58" style="fill:none;stroke:#FF7AB4" />
<path d="M217.86,150.11L222.86,150.11" style="fill:none;stroke:#FF7AB4" />
<path d="M217.86,494.58L222.86,494.58" style="fill:none;stroke:#FF7AB4" />
<path d="M224.06,138.2L224.06,455.14" style="fill:none;stroke:#FF7AB4" />
<path d="M221.56,138.2L226.56,138.2" style="fill:none;stroke:#FF7AB4" />
<path d="M221.56,455.14L226.56,455.14" style="fill:none;stroke:#FF7AB4" />
<path d="M227.76,140.7L227.76,488.42" style="fill:none;stroke:#FF7AB4" />
<path d="M225.26,140.7L230.26,140.7" style="fill:none;stroke:#FF7AB4" />
<path d="M225.26,488.42L230.26,488.42" style="fill:none;stroke:#FF7AB4" />
<path d="M231.46,148.88L231.46,455.16" style="fill:none;stroke:#FF7AB4" />
<path d="M228.96,148.88L233.96,148.88" style="fill:none;stroke:#FF7AB4" />
<path d="M228.96,455.16L233.96,455.16" style="fill:none;stroke:#FF7AB4" />
<path d="M235.16,140.66L235.16,468.79" style="fill:none;stroke:#FF7AB4" />
<path d="M232.66,140.66L237.66,140.66" style="fill:none;stroke:#FF7AB4" />
<path d="M232.66,468.79L237.66,468.79" style="fill:none;stroke:#FF7AB4" />
<path d="M238.86,135.27L238.86,460.63" style="fill:none;stroke:#FF7AB4" />
<path d="M236.36,135.27L241.36,135.27" style="fill:none;stroke:#FF7AB4" />
<path d="M236.36,460.63L241.36,460.63" style="fill:none;stroke:#FF7AB4" />
<path d="M242.56,184.2L242.56,489.19" style="fill:none;stroke:#FF7AB4" />
<path d="M240.06,184.2L245.06,184.2" style="fill:none;stroke:#FF7AB4" />
<path d="M240.06,489.19L245.06,489.19" style="fill:none;stroke:#FF7AB4" />
<path d="M246.26,148.47L246.26,455.25" style="fill:none;stroke:#FF7AB4" />
<path d="M243.76,148.47L248.76,148.47" style="fill:none;stroke:#FF7AB4" />
<path d="M243.76,455.25L248.76,455.25" style="fill:none;stroke:#FF7AB4" />
<path d="M249.96,157.55L249.96,456.2" style="fill:none;stroke:#FF7AB4" />
<path d="M247.46,157.55L252.46,157.55" style="fill:none;stroke:#FF7AB4" />
<path d="M247.46,456.2L252.46,456.2" style="fill:none;stroke:#FF7AB4" />
<path d="M253.66,153.78L253.66,471.59" style="fill:none;stroke:#FF7AB4" />
<path d="M251.16,153.78L256.16,153.78" style="fill:none;stroke:#FF7AB4" />
<path d="M251.16,471.59L256.16,471.59" style="fill:none;stroke:#FF7AB4" />
<path d="M257.36,161.98L257.36,495" style="fill:none;stroke:#FF7AB4" />
<path d="M254.86,161.98L259.86,161.98" style="fill:none;stroke:#FF7AB4" />
<path d="M254.86,495L259.86,495" style="fill:none;stroke:#FF7AB4" />
<path d="M261.06,116.19L261.06,423.99" style="fill:none;stroke:#FF7AB4" />
<path d="M258.56,116.19L263.56,116.19" style="fill:none;stroke:#FF7AB4" />
<path d="M258.56,423.99L263.56,423.99" style="fill:none;stroke:#FF7AB4" />
<path d="M264.76,159.56L264.76,490.26" style="fill:none;stroke:#FF7AB4" />
<path d="M262.26,159.56L267.26,159.56" style="fill:none;stroke:#FF7AB4" />
<path d="M262.26,490.26L267.26,490.26" style="fill:none;stroke:#FF7AB4" />
<path d="M268.46,178.02L268.46,471.53" style="fill:none;stroke:#FF7AB4" />
<path d="M265.96,178.02L270.96,178.02" style="fill:none;stroke:#FF7AB4" />
<path d="M265.96,471.53L270.96,471.53" style="fill:none;stroke:#FF7AB4" />
<path d="M272.16,151.17L272.16,469.49" style="fill:none;stroke:#FF7AB4" />
<path d="M269.66,151.17L274.66,151.17" style="fill:none;stroke:#FF7AB4" />
<path d="M269.66,469.49L274.66,469.49" style="fill:none;stroke:#FF7AB4" />
<path d="M275.86,188.19L275.86,481.52" style="fill:none;stroke:#FF7AB4" />
<path d="M273.36,188.19L278.36,188.19" style="fill:none;stroke:#FF7AB4" />
<path d="M273.36,481.52L278.36,481.52" style="fill:none;stroke:#FF7AB4" />
<path d="M279.56,170.66L279.56,466.57" style="fill:none;stroke:#FF7AB4" />
<path d="M277.06,170.66L282.06,170.66" style="fill:none;stroke:#FF7AB4" />
<path d="M277.06,466.57L282.06,466.57" style="fill:none;stroke:#FF7AB4" />
<path d="M283.26,160.91L283.26,469.67" style="fill:none;stroke:#FF7AB4" />
<path d="M280.76,160.91L285.76,160.91" style="fill:none;stroke:#FF7AB4" />
<path d="M280.76,469.67L285.76,469.67" style="fill:none;stroke:#FF7AB4" />
<path d="M286.96,151.31L286.96,459.14" style="fill:none;stroke:#FF7AB4" />
<path d="M284.46,151.31L289.46,151.31" style="fill:none;stroke:#FF7AB4" />
<path d="M284.46,459.14L289.46,459.14" style="fill:none;stroke:#FF7AB4" />
<path d="M290.66,184.61L290.66,482.55" style="fill:none;stroke:#FF7AB4" />
<path d="M288.16,184.61L293.16,184.61" style="fill:none;stroke:#FF7AB4" />
<path d="M288.16,482.55L293.16,482.55" style="fill:none;stroke:#FF7AB4" />
<path d="M294.36,181.06L294.36,460.89" style="fill:none;stroke:#FF7AB4" />
<path d="M291.86,181.06L296.86,181.06" style="fill:none;stroke:#FF7AB4" />
<path d="M291.86,460.89L296.86,460.89" style="fill:none;stroke:#FF7AB4" />
<path d="M298.06,138.89L298.06,432.29" style="fill:none;stroke:#FF7AB4" />
<path d="M295.56,138.89L300.56,138.89" style="fill:none;stroke:#FF7AB4" />
<path d="M295.56,432.29L300.56,432.29" style="fill:none;stroke:#FF7AB4" />
<path d="M301.76,150.1L301.76,441.88" style="fill:none;stroke:#FF7AB4" />
<path d="M299.26,150.1L304.26,150.1" style="fill:none;stroke:#FF7AB4" />
<path d="M299.26,441.88L304.26,441.88" style="fill:none;stroke:#FF7AB4" />
<path d="M305.46,179.79L305.46,449.88" style="fill:none;stroke:#FF7AB4" />
<path d="M302.96,179.79L307.96,179.79" style="fill:none;stroke:#FF7AB4" />
<path d="M302.96,449.88L307.96,449.88" style="fill:none;stroke:#FF7AB4" />
<path d="M309.16,170.45L309.16,459.79" style="fill:none;stroke:#FF7AB4" />
<path d="M306.66,170.45L311.66,170.45" style="fill:none;stroke:#FF7AB4" />
<path d="M306.66,459.79L311.66,459.79" style="fill:none;stroke:#FF7AB4" />
<path d="M312.86,198.08L312.86,467.68" style="fill:none;stroke:#FF7AB4" />
<path d="M310.36,198.08L315.36,198.08" style="fill:none;stroke:#FF7AB4" />
<path d="M310.36,467.68L315.36,467.68" style="fill:none;stroke:#FF7AB4" />
<path d="M316.55,186.07L316.55,445.78" style="fill:none;stroke:#FF7AB4" />
<path d="M314.05,186.07L319.05,186.07" style="fill:none;stroke:#FF7AB4" />
<path d="M314.05,445.78L319.05,445.78" style="fill:none;stroke:#FF7AB4" />
<path d="M320.25,200.09L320.25,469.55" style="fill:none;stroke:#FF7AB4" />
<path d="M317.75,200.09L322.75,200.09" style="fill:none;stroke:#FF7AB4" />
<path d="M317.75,469.55L322.75,469.55" style="fill:none;stroke:#FF7AB4" />
<path d="M323.95,206.74L323.95,477.05" style="fill:none;stroke:#FF7AB4" />
<path d="M321.45,206.74L326.45,206.74" style="fill:none;stroke:#FF7AB4" />
<path d="M321.45,477.05L326.45,477.05" style="fill:none;stroke:#FF7AB4" />
<path d="M327.65,208.65L327.65,459.44" style="fill:none;stroke:#FF7AB4" />
<path d="M325.15,208.65L330.15,208.65" style="fill:none;stroke:#FF7AB4" />
<path d="M325.15,459.44L330.15,459.44" style="fill:none;stroke:#FF7AB4" />
<path d="M331.35,194.54L331.35,455.58" style="fill:none;stroke:#FF7AB4" />
<path d="M328.85,194.54L333.85,194.54" style="fill:none;stroke:#FF7AB4" />
<path d="M328.85,455.58L333.85,455.58" style="fill:none;stroke:#FF7AB4" />
<path d="M335.05,200.1L335.05,467.95" style="fill:none;stroke:#FF7AB4" />
<path d="M332.55,200.1L337.55,200.1" style="fill:none;stroke:#FF7AB4" />
<path d="M332.55,467.95L337.55,467.95" style="fill:none;stroke:#FF7AB4" />
<path d="M338.75,195.04L338.75,453.82" style="fill:none;stroke:#FF7AB4" />
<path d="M336.25,195.04L341.25,195.04" style="fill:none;stroke:#FF7AB4" />
<path d="M336.25,453.82L341.25,453.82" style="fill:none;stroke:#FF7AB4" />
<path d="M342.45,179.42L342.45,435.36" style="fill:none;stroke:#FF7AB4" />
<path d="M339.95,179.42L344.95,179.42" style="fill:none;stroke:#FF7AB4" />
<path d="M339.95,435.36L344.95,435.36" style="fill:none;stroke:#FF7AB4" />
<path d="M346.15,204.47L346.15,460.97" style="fill:none;stroke:#FF7AB4" />
<path d="M343.65,204.47L348.65,204.47" style="fill:none;stroke:#FF7AB4" />
<path d="M343.65,460.97L348.65,460.97" style="fill:none;stroke:#FF7AB4" />
<path d="M349.85,241.8L349.85,482.09" style="fill:none;stroke:#FF7AB4" />
<path d="M347.35,241.8L352.35,241.8" style="fill:none;stroke:#FF7AB4" />
<path d="M347.35,482.09L352.35,482.09" style="fill:none;stroke:#FF7AB4" />
<path d="M353.55,188.46L353.55,443.55" style="fill:none;stroke:#FF7AB4" />
<path d="M351.05,188.46L356.05,188.46" style="fill:none;stroke:#FF7AB4" />
<path d="M351.05,443.55L356.05,443.55" style="fill:none;stroke:#FF7AB4" />
<path d="M357.25,218.64L357.25,447.66" style="fill:none;stroke:#FF7AB4" />
<path d="M354.75,218.64L359.75,218.64" style="fill:none;stroke:#FF7AB4" />
<path d="M354.75,447.66L359.75,447.66" style="fill:none;stroke:#FF7AB4" />
<path d="M360.95,217.67L360.95,435.17" style="fill:none;stroke:#FF7AB4" />
<path d="M358.45,217.67L363.45,217.67" style="fill:none;stroke:#FF7AB4" />
<path d="M358.45,435.17L363.45,435.17" style="fill:none;stroke:#FF7AB4" />
<path d="M364.65,236.01L364.65,460.66" style="fill:none;stroke:#FF7AB4" />
<path d="M362.15,236.01L367.15,236.01" style="fill:none;stroke:#FF7AB4" />
<path d="M362.15,460.66L367.15,460.66" style="fill:none;stroke:#FF7AB4" />
<path d="M368.35,245.08L368.35,482.44" style="fill:none;stroke:#FF7AB4" />
<path d="M365.85,245.08L370.85,245.08" style="fill:none;stroke:#FF7AB4" />
<path d="M365.85,482.44L370.85,482.44" style="fill:none;stroke:#FF7AB4" />
<path d="M372.05,261.13L372.05,482.81" style="fill:none;stroke:#FF7AB4" />
<path d="M369.55,261.13L374.55,261.13" style="fill:none;stroke:#FF7AB4" />
<path d="M369.55,482.81L374.55,482.81" style="fill:none;stroke:#FF7AB4" />
<path d="M375.75,241.96L375.75,487.64" style="fill:none;stroke:#FF7AB4" />
<path d="M373.25,241.96L378.25,241.96" style="fill:none;stroke:#FF7AB4" />
<path d="M373.25,487.64L378.25,487.64" style="fill:none;stroke:#FF7AB4" />
<path d="M379.45,279.41L379.45,488.77" style="fill:none;stroke:#FF7AB4" />
<path d="M376.95,279.41L381.95,279.41" style="fill:none;stroke:#FF7AB4" />
<path d="M376.95,488.77L381.95,488.77" style="fill:none;stroke:#FF7AB4" />
<path d="M383.15,244.69L383.15,493.66" style="fill:none;stroke:#FF7AB4" />
<path d="M380.65,244.69L385.65,244.69" style="fill:none;stroke:#FF7AB4" />
<path d="M380.65,493.66L385.65,493.66" style="fill:none;stroke:#FF7AB4" />
<path d="M386.85,279.4L386.85,477.96" style="fill:none;stroke:#FF7AB4" />
<path d="M384.35,279.4L389.35,279.4" style="fill:none;stroke:#FF7AB4" />
<path d="M384.35,477.96L389.35,477.96" style="fill:none;stroke:#FF7AB4" />
<path d="M390.55,239.97L390.55,467.48" style="fill:none;stroke:#FF7AB4" />
<path d="M388.05,239.97L393.05,239.97" style="fill:none;stroke:#FF7AB4" />
<path d="M388.05,467.48L393.05,467.48" style="fill:none;stroke:#FF7AB4" />
<path d="M394.25,249.32L394.25,461.83" style="fill:none;stroke:#FF7AB4" />
<path d="M391.75,249.32L396.75,249.32" style="fill:none;stroke:#FF7AB4" />
<path d="M391.75,461.83L396.75,461.83" style="fill:none;stroke:#FF7AB4" />
<path d="M397.95,242.75L397.95,461.34" style="fill:none;stroke:#FF7AB4" />
<path d="M395.45,242.75L400.45,242.75" style="fill:none;stroke:#FF7AB4" />
<path d="M395.45,461.34L400.45,461.34" style="fill:none;stroke:#FF7AB4" />
<path d="M401.65,278.56L401.65,475.19" style="fill:none;stroke:#FF7AB4" />
<path d="M399.15,278.56L404.15,278.56" style="fill:none;stroke:#FF7AB4" />
<path d="M399.15,475.19L404.15,475.19" style="fill:none;stroke:#FF7AB4" />
<path d="M405.35,247.76L405.35,457.11" style="fill:none;stroke:#FF7AB4" />
<path d="M402.85,247.76L407.85,247.76" style="fill:none;stroke:#FF7AB4" />
<path d="M402.85,457.11L407.85,457.11" style="fill:none;stroke:#FF7AB4" />
<path d="M409.05,225.7L409.05,450.11" style="fill:none;stroke:#FF7AB4" />
<path d="M406.55,225.7L411.55,225.7" style="fill:none;stroke:#FF7AB4" />
<path d="M406.55,450.11L411.55,450.11" style="fill:none;stroke:#FF7AB4" />
<path d="M412.75,272.4L412.75,482.17" style="fill:none;stroke:#FF7AB4" />
<path d="M410.25,272.4L415.25,272.4" style="fill:none;stroke:#FF7AB4" />
<path d="M410.25,482.17L415.25,482.17" style="fill:none;stroke:#FF7AB4" />
<path d="M416.45,275.05L416.45,473.93" style="fill:none;stroke:#FF7AB4" />
<path d="M413.95,275.05L418.95,275.05" style="fill:none;stroke:#FF7AB4" />
<path d="M413.95,473.93L418.95,473.93" style="fill:none;stroke:#FF7AB4" />
<path d="M420.15,259.81L420.15,488.11" style="fill:none;stroke:#FF7AB4" />
<path d="M417.65,259.81L422.65,259.81" style="fill:none;stroke:#FF7AB4" />
<path d="M417.65,488.11L422.65,488.11" style="fill:none;stroke:#FF7AB4" />
<path d="M423.85,267.8L423.85,480.76" style="fill:none;stroke:#FF7AB4" />
<path d="M421.35,267.8L426.35,267.8" style="fill:none;stroke:#FF7AB4" />
<path d="M421.35,480.76L426.35,480.76" style="fill:none;stroke:#FF7AB4" />
<path d="M427.55,256.42L427.55,456.63" style="fill:none;stroke:#FF7AB4" />
<path d="M425.05,256.42L430.05,256.42" style="fill:none;stroke:#FF7AB4" />
<path d="M425.05,456.63L430.05,456.63" style="fill:none;stroke:#FF7AB4" />
<path d="M431.25,266.89L431.25,505.94" style="fill:none;stroke:#FF7AB4" />
<path d="M428.75,266.89L433.75,266.89" style="fill:none;stroke:#FF7AB4" />
<path d="M428.75,505.94L433.75,505.94" style="fill:none;stroke:#FF7AB4" />
<path d="M434.95,308.35L434.95,508.88" style="fill:none;stroke:#FF7AB4" />
<path d="M432.45,308.35L437.45,308.35" style="fill:none;stroke:#FF7AB4" />
<path d="M432.45,508.88L437.45,508.88" style="fill:none;stroke:#FF7AB4" />
<path d="M438.65,277.21L438.65,474.73" style="fill:none;stroke:#FF7AB4" />
<path d="M436.15,277.21L441.15,277.21" style="fill:none;stroke:#FF7AB4" />
<path d="M436.15,474.73L441.15,474.73" style="fill:none;stroke:#FF7AB4" />
<path d="M442.35,290.07L442.35,537.67" style="fill:none;stroke:#FF7AB4" />
<path d="M439.85,290.07L444.85,290.07" style="fill:none;stroke:#FF7AB4" />
<path d="M439.85,537.67L444.85,537.67" style="fill:none;stroke:#FF7AB4" />
<path d="M446.05,284.72L446.05,481.04" style="fill:none;stroke:#FF7AB4" />
<path d="M443.55,284.72L448.55,284.72" style="fill:none;stroke:#FF7AB4" />
<path d="M443.55,481.04L448.55,481.04" style="fill:none;stroke:#FF7AB4" />
<path d="M449.75,320.28L449.75,519" style="fill:none;stroke:#FF7AB4" />
<path d="M447.25,320.28L452.25,320.28" style="fill:none;stroke:#FF7AB4" />
<path d="M447.25,519L452.25,519" style="fill:none;stroke:#FF7AB4" />
<path d="M453.44,307.32L453.44,521.94" style="fill:none;stroke:#FF7AB4" />
<path d="M450.94,307.32L455.94,307.32" style="fill:none;stroke:#FF7AB4" />
<path d="M450.94,521.94L455.94,521.94" style="fill:none;stroke:#FF7AB4" />
<path d="M457.14,269.25L457.14,517.6" style="fill:none;stroke:#FF7AB4" />
<path d="M454.64,269.25L459.64,269.25" style="fill:none;stroke:#FF7AB4" />
<path d="M454.64,517.6L459.64,517.6" style="fill:none;stroke:#FF7AB4" />
<path d="M460.84,300L460.84,527.43" style="fill:none;stroke:#FF7AB4" />
<path d="M458.34,300L463.34,300" style="fill:none;stroke:#FF7AB4" />
<path d="M458.34,527.43L463.34,527.43" style="fill:none;stroke:#FF7AB4" />
<path d="M464.54,368.92L464.54,577.46" style="fill:none;stroke:#FF7AB4" />
<path d="M462.04,368.92L467.04,368.92" style="fill:none;stroke:#FF7AB4" />
<path d="M462.04,577.46L467.04,577.46" style="fill:none;stroke:#FF7AB4" />
<path d="M468.24,320.3L468.24,521.89" style="fill:none;stroke:#FF7AB4" />
<path d="M465.74,320.3L470.74,320.3" style="fill:none;stroke:#FF7AB4" />
<path d="M465.74,521.89L470.74,521.89" style="fill:none;stroke:#FF7AB4" />
<path d="M471.94,316.68L471.94,558.41" style="fill:none;stroke:#FF7AB4" />
<path d="M469.44,316.68L474.44,316.68" style="fill:none;stroke:#FF7AB4" />
<path d="M469.44,558.41L474.44,558.41" style="fill:none;stroke:#FF7AB4" />
<path d="M475.64,371.87L475.64,568.27" style="fill:none;stroke:#FF7AB4" />
<path d="M473.14,371.87L478.14,371.87" style="fill:none;stroke:#FF7AB4" />
<path d="M473.14,568.27L478.14,568.27" style="fill:none;stroke:#FF7AB4" />
<path d="M479.34,314.62L479.34,503.16" style="fill:none;stroke:#FF7AB4" />
<path d="M476.84,314.62L481.84,314.62" style="fill:none;stroke:#FF7AB4" />
<path d="M476.84,503.16L481.84,503.16" style="fill:none;stroke:#FF7AB4" />
<path d="M483.04,351.86L483.04,595.02" style="fill:none;stroke:#FF7AB4" />
<path d="M480.54,351.86L485.54,351.86" style="fill:none;stroke:#FF7AB4" />
<path d="M480.54,595.02L485.54,595.02" style="fill:none;stroke:#FF7AB4" />
<path d="M486.74,364.62L486.74,594.36" style="fill:none;stroke:#FF7AB4" />
<path d="M484.24,364.62L489.24,364.62" style="fill:none;stroke:#FF7AB4" />
<path d="M484.24,594.36L489.24,594.36" style="fill:none;stroke:#FF7AB4" />
<path d="M490.44,340.12L490.44,560.33" style="fill:none;stroke:#FF7AB4" />
<path d="M487.94,340.12L492.94,340.12" style="fill:none;stroke:#FF7AB4" />
<path d="M487.94,560.33L492.94,560.33" style="fill:none;stroke:#FF7AB4" />
<path d="M494.14,379.01L494.14,558.12" style="fill:none;stroke:#FF7AB4" />
<path d="M491.64,379.01L496.64,379.01" style="fill:none;stroke:#FF7AB4" />
<path d="M491.64,558.12L496.64,558.12" style="fill:none;stroke:#FF7AB4" />
<path d="M497.84,362.88L497.84,590.38" style="fill:none;stroke:#FF7AB4" />
<path d="M495.34,362.88L500.34,362.88" style="fill:none;stroke:#FF7AB4" />
<path d="M495.34,590.38L500.34,590.38" style="fill:none;stroke:#FF7AB4" />
<path d="M501.54,416.48L501.54,592.28" style="fill:none;stroke:#FF7AB4" />
<path d="M499.04,416.48L504.04,416.48" style="fill:none;stroke:#FF7AB4" />
<path d="M499.04,592.28L504.04,592.28" style="fill:none;stroke:#FF7AB4" />
<path d="M505.24,408.31L505.24,596.09" style="fill:none;stroke:#FF7AB4" />
<path d="M502.74,408.31L507.74,408.31" style="fill:none;stroke:#FF7AB4" />
<path d="M502.74,596.09L507.74,596.09" style="fill:none;stroke:#FF7AB4" />
<path d="M508.94,378.86L508.94,598.11" style="fill:none;stroke:#FF7AB4" />
<path d="M506.44,378.86L511.44,378.86" style="fill:none;stroke:#FF7AB4" />
<path d="M506.44,598.11L511.44,598.11" style="fill:none;stroke:#FF7AB4" />
<path d="M512.64,376.87L512.64,564.26" style="fill:none;stroke:#FF7AB4" />
<path d="M510.14,376.87L515.14,376.87" style="fill:none;stroke:#FF7AB4" />
<path d="M510.14,564.26L515.14,564.26" style="fill:none;stroke:#FF7AB4" />
<path d="M516.34,364.2L516.34,594.02" style="fill:none;stroke:#FF7AB4" />
<path d="M513.84,364.2L518.84,364.2" style="fill:none;stroke:#FF7AB4" />
<path d="M513.84,594.02L518.84,594.02" style="fill:none;stroke:#FF7AB4" />
<path d="M520.04,382.83L520.04,608.99" style="fill:none;stroke:#FF7AB4" />
<path d="M517.54,382.83L522.54,382.83" style="fill:none;stroke:#FF7AB4" />
<path d="M517.54,608.99L522.54,608.99" style="fill:none;stroke:#FF7AB4" />
<path d="M523.74,424.24L523.74,634.65" style="fill:none;stroke:#FF7AB4" />
<path d="M521.24,424.24L526.24,424.24" style="fill:none;stroke:#FF7AB4" />
<path d="M521.24,634.65L526.24,634.65" style="fill:none;stroke:#FF7AB4" />
<path d="M527.44,438.78L527.44,635.45" style="fill:none;stroke:#FF7AB4" />
<path d="M524.94,438.78L529.94,438.78" style="fill:none;stroke:#FF7AB4" />
<path d="M524.94,635.45L529.94,635.45" style="fill:none;stroke:#FF7AB4" />
<path d="M531.14,450.56L531.14,632.9" style="fill:none;stroke:#FF7AB4" />
<path d="M528.64,450.56L533.64,450.56" style="fill:none;stroke:#FF7AB4" />
<path d="M528.64,632.9L533.64,632.9" style="fill:none;stroke:#FF7AB4" />
<path d="M534.84,467.07L534.84,654.3" style="fill:none;stroke:#FF7AB4" />
<path d="M532.34,467.07L537.34,467.07" style="fill:none;stroke:#FF7AB4" />
<path d="M532.34,654.3L537.34,654.3" style="fill:none;stroke:#FF7AB4" />
<path d="M538.54,445.48L538.54,610.82" style="fill:none;stroke:#FF7AB4" />
<path d="M536.04,445.48L541.04,445.48" style="fill:none;stroke:#FF7AB4" />
<path d="M536.04,610.82L541.04,610.82" style="fill:none;stroke:#FF7AB4" />
<path d="M542.24,431.89L542.24,651.19" style="fill:none;stroke:#FF7AB4" />
<path d="M539.74,431.89L544.74,431.89" style="fill:none;stroke:#FF7AB4" />
<path d="M539.74,651.19L544.74,651.19" style="fill:none;stroke:#FF7AB4" />
<path d="M545.94,467.81L545.94,640.65" style="fill:none;stroke:#FF7AB4" />
<path d="M543.44,467.81L548.44,467.81" style="fill:none;stroke:#FF7AB4" />
<path d="M543.44,640.65L548.44,640.65" style="fill:none;stroke:#FF7AB4" />
<path d="M549.64,457.25L549.64,652.44" style="fill:none;stroke:#FF7AB4" />
<path d="M547.14,457.25L552.14,457.25" style="fill:none;stroke:#FF7AB4" />
<path d="M547.14,652.44L552.14,652.44" style="fill:none;stroke:#FF7AB4" />
<path d="M553.34,504.58L553.34,698.54" style="fill:none;stroke:#FF7AB4" />
<path d="M550.84,504.58L555.84,504.58" style="fill:none;stroke:#FF7AB4" />
<path d="M550.84,698.54L555.84,698.54" style="fill:none;stroke:#FF7AB4" />
<path d="M557.04,533.24L557.04,718.05" style="fill:none;stroke:#FF7AB4" />
<path d="M554.54,533.24L559.54,533.24" style="fill:none;stroke:#FF7AB4" />
<path d="M554.54,718.05L559.54,718.05" style="fill:none;stroke:#FF7AB4" />
<path d="M560.74,504.95L560.74,658.53" style="fill:none;stroke:#FF7AB4" />
<path d="M558.24,504.95L563.24,504.95" style="fill:none;stroke:#FF7AB4" />
<path d="M558.24,658.53L563.24,658.53" style="fill:none;stroke:#FF7AB4" />
<path d="M564.44,455.88L564.44,664.82" style="fill:none;stroke:#FF7AB4" />
<path d="M561.94,455.88L566.94,455.88" style="fill:none;stroke:#FF7AB4" />
<path d="M561.94,664.82L566.94,664.82" style="fill:none;stroke:#FF7AB4" />
<path d="M568.14,541.36L568.14,755.58" style="fill:none;stroke:#FF7AB4" />
<path d="M565.64,541.36L570.64,541.36" style="fill:none;stroke:#FF7AB4" />
<path d="M565.64,755.58L570.64,755.58" style="fill:none;stroke:#FF7AB4" />
<path d="M571.84,619L571.84,789.62" style="fill:none;stroke:#FF7AB4" />
<path d="M569.34,619L574.34,619" style="fill:none;stroke:#FF7AB4" />
<path d="M569.34,789.62L574.34,789.62" style="fill:none;stroke:#FF7AB4" />
<path d="M575.54,560.91L575.54,755.75" style="fill:none;stroke:#FF7AB4" />
<path d="M573.04,560.91L578.04,560.91" style="fill:none;stroke:#FF7AB4" />
<path d="M573.04,755.75L578.04,755.75" style="fill:none;stroke:#FF7AB4" />
<path d="M579.24,619.19L579.24,840.26" style="fill:none;stroke:#FF7AB4" />
<path d="M576.74,619.19L581.74,619.19" style="fill:none;stroke:#FF7AB4" />
<path d="M576.74,840.26L581.74,840.26" style="fill:none;stroke:#FF7AB4" />
<path d="M582.94,657.34L582.94,815.7" style="fill:none;stroke:#FF7AB4" />
<path d="M580.44,657.34L585.44,657.34" style="fill:none;stroke:#FF7AB4" />
<path d="M580.44,815.7L585.44,815.7" style="fill:none;stroke:#FF7AB4" />
<path d="M586.64,677.32L586.64,864.15" style="fill:none;stroke:#FF7AB4" />
<path d="M584.14,677.32L589.14,677.32" style="fill:none;stroke:#FF7AB4" />
<path d="M584.14,864.15L589.14,864.15" style="fill:none;stroke:#FF7AB4" />
<path d="M590.34,621.16L590.34,788.99" style="fill:none;stroke:#FF7AB4" />
<path d="M587.84,621.16L592.84,621.16" style="fill:none;stroke:#FF7AB4" />
<path d="M587.84,788.99L592.84,788.99" style="fill:none;stroke:#FF7AB4" />
<path d="M594.03,549.94L594.03,749.25" style="fill:none;stroke:#FF7AB4" />
<path d="M591.53,549.94L596.53,549.94" style="fill:none;stroke:#FF7AB4" />
<path d="M591.53,749.25L596.53,749.25" style="fill:none;stroke:#FF7AB4" />
<path d="M597.73,557.32L597.73,769.5" style="fill:none;stroke:#FF7AB4" />
<path d="M595.23,557.32L600.23,557.32" style="fill:none;stroke:#FF7AB4" />
<path d="M595.23,769.5L600.23,769.5" style="fill:none;stroke:#FF7AB4" />
<path d="M601.43,542.7L601.43,739.86" style="fill:none;stroke:#FF7AB4" />
<path d="M598.93,542.7L603.93,542.7" style="fill:none;stroke:#FF7AB4" />
<path d="M598.93,739.86L603.93,739.86" style="fill:none;stroke:#FF7AB4" />
<path d="M605.13,645.37L605.13,750.69" style="fill:none;stroke:#FF7AB4" />
<path d="M602.63,645.37L607.63,645.37" style="fill:none;stroke:#FF7AB4" />
<path d="M602.63,750.69L607.63,750.69" style="fill:none;stroke:#FF7AB4" />
<path d="M608.83,649.16L608.83,809.56" style="fill:none;stroke:#FF7AB4" />
<path d="M606.33,649.16L611.33,649.16" style="fill:none;stroke:#FF7AB4" />
<path d="M606.33,809.56L611.33,809.56" style="fill:none;stroke:#FF7AB4" />
<path d="M612.53,681.77L612.53,859.95" style="fill:none;stroke:#FF7AB4" />
<path d="M610.03,681.77L615.03,681.77" style="fill:none;stroke:#FF7AB4" />
<path d="M610.03,859.95L615.03,859.95" style="fill:none;stroke:#FF7AB4" />
<path d="M616.23,583.48L616.23,771.38" style="fill:none;stroke:#FF7AB4" />
<path d="M613.73,583.48L618.73,583.48" style="fill:none;stroke:#FF7AB4" />
<path d="M613.73,771.38L618.73,771.38" style="fill:none;stroke:#FF7AB4" />
<path d="M619.93,562.81L619.93,802.72" style="fill:none;stroke:#FF7AB4" />
<path d="M617.43,562.81L622.43,562.81" style="fill:none;stroke:#FF7AB4" />
<path d="M617.43,802.72L622.43,802.72" style="fill:none;stroke:#FF7AB4" />
<path d="M623.63,516.28L623.63,728.8" style="fill:none;stroke:#FF7AB4" />
<path d="M621.13,516.28L626.13,516.28" style="fill:none;stroke:#FF7AB4" />
<path d="M621.13,728.8L626.13,728.8" style="fill:none;stroke:#FF7AB4" />
<path d="M627.33,588.96L627.33,793.2" style="fill:none;stroke:#FF7AB4" />
<path d="M624.83,588.96L629.83,588.96" style="fill:none;stroke:#FF7AB4" />
<path d="M624.83,793.2L629.83,793.2" style="fill:none;stroke:#FF7AB4" />
<path d="M631.03,619.28L631.03,820.34" style="fill:none;stroke:#FF7AB4" />
<path d="M628.53,619.28L633.53,619.28" style="fill:none;stroke:#FF7AB4" />
<path d="M628.53,820.34L633.53,820.34" style="fill:none;stroke:#FF7AB4" />
<path d="M634.73,645.63L634.73,811.42" style="fill:none;stroke:#FF7AB4" />
<path d="M632.23,645.63L637.23,645.63" style="fill:none;stroke:#FF7AB4" />
<path d="M632.23,811.42L637.23,811.42" style="fill:none;stroke:#FF7AB4" />
<path d="M638.43,594.94L638.43,764.98" style="fill:none;stroke:#FF7AB4" />
<path d="M635.93,594.94L640.93,594.94" style="fill:none;stroke:#FF7AB4" />
<path d="M635.93,764.98L640.93,764.98" style="fill:none;stroke:#FF7AB4" />
<path d="M642.13,652.83L642.13,782.94" style="fill:none;stroke:#FF7AB4" />
<path d="M639.63,652.83L644.63,652.83" style="fill:none;stroke:#FF7AB4" />
<path d="M639.63,782.94L644.63,782.94" style="fill:none;stroke:#FF7AB4" />
<path d="M645.83,563.56L645.83,783.96" style="fill:none;stroke:#FF7AB4" />
<path d="M643.33,563.56L648.33,563.56" style="fill:none;stroke:#FF7AB4" />
<path d="M643.33,783.96L648.33,783.96" style="fill:none;stroke:#FF7AB4" />
<path d="M649.53,522.06L649.53,733.43" style="fill:none;stroke:#FF7AB4" />
<path d="M647.03,522.06L652.03,522.06" style="fill:none;stroke:#FF7AB4" />
<path d="M647.03,733.43L652.03,733.43" style="fill:none;stroke:#FF7AB4" />
<path d="M653.23,580.37L653.23,808.66" style="fill:none;stroke:#FF7AB4" />
<path d="M650.73,580.37L655.73,580.37" style="fill:none;stroke:#FF7AB4" />
<path d="M650.73,808.66L655.73,808.66" style="fill:none;stroke:#FF7AB4" />
<path d="M656.93,489.22L656.93,731.87" style="fill:none;stroke:#FF7AB4" />
<path d="M654.43,489.22L659.43,489.22" style="fill:none;stroke:#FF7AB4" />
<path d="M654.43,731.87L659.43,731.87" style="fill:none;stroke:#FF7AB4" />
<path d="M660.63,508.08L660.63,671.06" style="fill:none;stroke:#FF7AB4" />
<path d="M658.13,508.08L663.13,508.08" style="fill:none;stroke:#FF7AB4" />
<path d="M658.13,671.06L663.13,671.06" style="fill:none;stroke:#FF7AB4" />
<path d="M664.33,535.06L664.33,696.16" style="fill:none;stroke:#FF7AB4" />
<path d="M661.83,535.06L666.83,535.06" style="fill:none;stroke:#FF7AB4" />
<path d="M661.83,696.16L666.83,696.16" style="fill:none;stroke:#FF7AB4" />
<path d="M668.03,536.05L668.03,694.48" style="fill:none;stroke:#FF7AB4" />
<path d="M665.53,536.05L670.53,536.05" style="fill:none;stroke:#FF7AB4" />
<path d="M665.53,694.48L670.53,694.48" style="fill:none;stroke:#FF7AB4" />
<path d="M671.73,443.61L671.73,598.1" style="fill:none;stroke:#FF7AB4" />
<path d="M669.23,443.61L674.23,443.61" style="fill:none;stroke:#FF7AB4" />
<path d="M669.23,598.1L674.23,598.1" style="fill:none;stroke:#FF7AB4" />
<path d="M675.43,424.82L675.43,643.64" style="fill:none;stroke:#FF7AB4" />
<path d="M672.93,424.82L677.93,424.82" style="fill:none;stroke:#FF7AB4" />
<path d="M672.93,643.64L677.93,643.64" style="fill:none;stroke:#FF7AB4" />
<path d="M679.13,513.19L679.13,687.01" style="fill:none;stroke:#FF7AB4" />
<path d="M676.63,513.19L681.63,513.19" style="fill:none;stroke:#FF7AB4" />
<path d="M676.63,687.01L681.63,687.01" style="fill:none;stroke:#FF7AB4" />
<path d="M682.83,478.67L682.83,599.97" style="fill:none;stroke:#FF7AB4" />
<path d="M680.33,478.67L685.33,478.67" style="fill:none;stroke:#FF7AB4" />
<path d="M680.33,599.97L685.33,599.97" style="fill:none;stroke:#FF7AB4" />
<path d="M686.53,436.79L686.53,581.99" style="fill:none;stroke:#FF7AB4" />
<path d="M684.03,436.79L689.03,436.79" style="fill:none;stroke:#FF7AB4" />
<path d="M684.03,581.99L689.03,581.99" style="fill:none;stroke:#FF7AB4" />
<path d="M690.23,483.48L690.23,685.83" style="fill:none;stroke:#FF7AB4" />
<path d="M687.73,483.48L692.73,483.48" style="fill:none;stroke:#FF7AB4" />
<path d="M687.73,685.83L692.73,685.83" style="fill:none;stroke:#FF7AB4" />
<path d="M693.93,455.36L693.93,669.3" style="fill:none;stroke:#FF7AB4" />
<path d="M691.43,455.36L696.43,455.36" style="fill:none;stroke:#FF7AB4" />
<path d="M691.43,669.3L696.43,669.3" style="fill:none;stroke:#FF7AB4" />
<path d="M697.63,462.54L697.63,693.79" style="fill:none;stroke:#FF7AB4" />
<path d="M695.13,462.54L700.13,462.54" style="fill:none;stroke:#FF7AB4" />
<path d="M695.13,693.79L700.13,693.79" style="fill:none;stroke:#FF7AB4" />
<path d="M701.33,413.77L701.33,642.39" style="fill:none;stroke:#FF7AB4" />
<path d="M698.83,413.77L703.83,413.77" style="fill:none;stroke:#FF7AB4" />
<path d="M698.83,642.39L703.83,642.39" style="fill:none;stroke:#FF7AB4" />
<path d="M705.03,446.63L705.03,714.34" style="fill:none;stroke:#FF7AB4" />
<path d="M702.53,446.63L707.53,446.63" style="fill:none;stroke:#FF7AB4" />
<path d="M702.53,714.34L707.53,714.34" style="fill:none;stroke:#FF7AB4" />
<path d="M708.73,423.89L708.73,654.88" style="fill:none;stroke:#FF7AB4" />
<path d="M706.23,423.89L711.23,423.89" style="fill:none;stroke:#FF7AB4" />
<path d="M706.23,654.88L711.23,654.88" style="fill:none;stroke:#FF7AB4" />
<path d="M712.43,373.89L712.43,595.7" style="fill:none;stroke:#FF7AB4" />
<path d="M709.93,373.89L714.93,373.89" style="fill:none;stroke:#FF7AB4" />
<path d="M709.93,595.7L714.93,595.7" style="fill:none;stroke:#FF7AB4" />
<path d="M716.13,335.94L716.13,600.2" style="fill:none;stroke:#FF7AB4" />
<path d="M713.63,335.94L718.63,335.94" style="fill:none;stroke:#FF7AB4" />
<path d="M713.63,600.2L718.63,600.2" style="fill:none;stroke:#FF7AB4" />
<path d="M719.83,426.37L719.83,651.57" style="fill:none;stroke:#FF7AB4" />
<path d="M717.33,426.37L722.33,426.37" style="fill:none;stroke:#FF7AB4" />
<path d="M717.33,651.57L722.33,651.57" style="fill:none;stroke:#FF7AB4" />
<path d="M723.53,511.56L723.53,737.88" style="fill:none;stroke:#FF7AB4" />
<path d="M721.03,511.56L726.03,511.56" style="fill:none;stroke:#FF7AB4" />
<path d="M721.03,737.88L726.03,737.88" style="fill:none;stroke:#FF7AB4" />
<path d="M727.23,411.66L727.23,577.81" style="fill:none;stroke:#FF7AB4" />
<path d="M724.73,411.66L729.73,411.66" style="fill:none;stroke:#FF7AB4" />
<path d="M724.73,577.81L729.73,577.81" style="fill:none;stroke:#FF7AB4" />
<path d="M730.92,361.75L730.92,620.38" style="fill:none;stroke:#FF7AB4" />
<path d="M728.42,361.75L733.42,361.75" style="fill:none;stroke:#FF7AB4" />
<path d="M728.42,620.38L733.42,620.38" style="fill:none;stroke:#FF7AB4" />
<path d="M734.62,404.15L734.62,690.34" style="fill:none;stroke:#FF7AB4" />
<path d="M732.12,404.15L737.12,404.15" style="fill:none;stroke:#FF7AB4" />
<path d="M732.12,690.34L737.12,690.34" style="fill:none;stroke:#FF7AB4" />
<path d="M738.32,433.37L738.32,678.05" style="fill:none;stroke:#FF7AB4" />
<path d="M735.82,433.37L740.82,433.37" style="fill:none;stroke:#FF7AB4" />
<path d="M735.82,678.05L740.82,678.05" style="fill:none;stroke:#FF7AB4" />
<path d="M742.02,451.62L742.02,712.32" style="fill:none;stroke:#FF7AB4" />
<path d="M739.52,451.62L744.52,451.62" style="fill:none;stroke:#FF7AB4" />
<path d="M739.52,712.32L744.52,712.32" style="fill:none;stroke:#FF7AB4" />
<path d="M745.72,401.86L745.72,679.35" style="fill:none;stroke:#FF7AB4" />
<path d="M743.22,401.86L748.22,401.86" style="fill:none;stroke:#FF7AB4" />
<path d="M743.22,679.35L748.22,679.35" style="fill:none;stroke:#FF7AB4" />
<path d="M749.42,417.47L749.42,721.9" style="fill:none;stroke:#FF7AB4" />
<path d="M746.92,417.47L751.92,417.47" style="fill:none;stroke:#FF7AB4" />
<path d="M746.92,721.9L751.92,721.9" style="fill:none;stroke:#FF7AB4" />
<path d="M753.12,368.57L753.12,636.41" style="fill:none;stroke:#FF7AB4" />
<path d="M750.62,368.57L755.62,368.57" style="fill:none;stroke:#FF7AB4" />
<path d="M750.62,636.41L755.62,636.41" style="fill:none;stroke:#FF7AB4" />
<path d="M756.82,397.82L756.82,662.64" style="fill:none;stroke:#FF7AB4" />
<path d="M754.32,397.82L759.32,397.82" style="fill:none;stroke:#FF7AB4" />
<path d="M754.32,662.64L759.32,662.64" style="fill:none;stroke:#FF7AB4" />
<path d="M760.52,380.07L760.52,622.93" style="fill:none;stroke:#FF7AB4" />
<path d="M758.02,380.07L763.02,380.07" style="fill:none;stroke:#FF7AB4" />
<path d="M758.02,622.93L763.02,622.93" style="fill:none;stroke:#FF7AB4" />
<path d="M764.22,330.4L764.22,574.58" style="fill:none;stroke:#FF7AB4" />
<path d="M761.72,330.4L766.72,330.4" style="fill:none;stroke:#FF7AB4" />
<path d="M761.72,574.58L766.72,574.58" style="fill:none;stroke:#FF7AB4" />
<path d="M767.92,313.11L767.92,615.06" style="fill:none;stroke:#FF7AB4" />
<path d="M765.42,313.11L770.42,313.11" style="fill:none;stroke:#FF7AB4" />
<path d="M765.42,615.06L770.42,615.06" style="fill:none;stroke:#FF7AB4" />
<path d="M771.62,318.67L771.62,622.27" style="fill:none;stroke:#FF7AB4" />
<path d="M769.12,318.67L774.12,318.67" style="fill:none;stroke:#FF7AB4" />
<path d="M769.12,622.27L774.12,622.27" style="fill:none;stroke:#FF7AB4" />
<path d="M775.32,302.27L775.32,600.23" style="fill:none;stroke:#FF7AB4" />
<path d="M772.82,302.27L777.82,302.27" style="fill:none;stroke:#FF7AB4" />
<path d="M772.82,600.23L777.82,600.23" style="fill:none;stroke:#FF7AB4" />
<path d="M779.02,332.27L779.02,627.18" style="fill:none;stroke:#FF7AB4" />
<path d="M776.52,332.27L781.52,332.27" style="fill:none;stroke:#FF7AB4" />
<path d="M776.52,627.18L781.52,627.18" style="fill:none;stroke:#FF7AB4" />
<path d="M782.72,333.08L782.72,582.55" style="fill:none;stroke:#FF7AB4" />
<path d="M780.22,333.08L785.22,333.08" style="fill:none;stroke:#FF7AB4" />
<path d="M780.22,582.55L785.22,582.55" style="fill:none;stroke:#FF7AB4" />
<path d="M786.42,360.15L786.42,629.52" style="fill:none;stroke:#FF7AB4" />
<path d="M783.92,360.15L788.92,360.15" style="fill:none;stroke:#FF7AB4" />
<path d="M783.92,629.52L788.92,629.52" style="fill:none;stroke:#FF7AB4" />
<path d="M790.12,341.23L790.12,578.64" style="fill:none;stroke:#FF7AB4" />
<path d="M787.62,341.23L792.62,341.23" style="fill:none;stroke:#FF7AB4" />
<path d="M787.62,578.64L792.62,578.64" style="fill:none;stroke:#FF7AB4" />
<path d="M793.82,316.71L793.82,585.67" style="fill:none;stroke:#FF7AB4" />
<path d="M791.32,316.71L796.32,316.71" style="fill:none;stroke:#FF7AB4" />
<path d="M791.32,585.67L796.32,585.67" style="fill:none;stroke:#FF7AB4" />
<path d="M797.52,305.54L797.52,556.12" style="fill:none;stroke:#FF7AB4" />
<path d="M795.02,305.54L800.02,305.54" style="fill:none;stroke:#FF7AB4" />
<path d="M795.02,556.12L800.02,556.12" style="fill:none;stroke:#FF7AB4" />
<path d="M801.22,306.89L801.22,553.84" style="fill:none;stroke:#FF7AB4" />
<path d="M798.72,306.89L803.72,306.89" style="fill:none;stroke:#FF7AB4" />
<path d="M798.72,553.84L803.72,553.84" style="fill:none;stroke:#FF7AB4" />
<path d="M804.92,315.93L804.92,542.93" style="fill:none;stroke:#FF7AB4" />
<path d="M802.42,315.93L807.42,315.93" style="fill:none;stroke:#FF7AB4" />
<path d="M802.42,542.93L807.42,542.93" style="fill:none;stroke:#FF7AB4" />
<path d="M808.62,301.32L808.62,531.09" style="fill:none;stroke:#FF7AB4" />
<path d="M806.12,301.32L811.12,301.32" style="fill:none;stroke:#FF7AB4" />
<path d="M806.12,531.09L811.12,531.09" style="fill:none;stroke:#FF7AB4" />
<path d="M812.32,292.12L812.32,507.28" style="fill:none;stroke:#FF7AB4" />
<path d="M809.82,292.12L814.82,292.12" style="fill:none;stroke:#FF7AB4" />
<path d="M809.82,507.28L814.82,507.28" style="fill:none;stroke:#FF7AB4" />
<path d="M816.02,240.4L816.02,491.93" style="fill:none;stroke:#FF7AB4" />
<path d="M813.52,240.4L818.52,240.4" style="fill:none;stroke:#FF7AB4" />
<path d="M813.52,491.93L818.52,491.93" style="fill:none;stroke:#FF7AB4" />
<path d="M819.72,261.58L819.72,499.35" style="fill:none;stroke:#FF7AB4" />
<path d="M817.22,261.58L822.22,261.58" style="fill:none;stroke:#FF7AB4" />
<path d="M817.22,499.35L822.22,499.35" style="fill:none;stroke:#FF7AB4" />
<path d="M823.42,260.91L823.42,490.72" style="fill:none;stroke:#FF7AB4" />
<path d="M820.92,260.91L825.92,260.91" style="fill:none;stroke:#FF7AB4" />
<path d="M820.92,490.72L825.92,490.72" style="fill:none;stroke:#FF7AB4" />
<path d="M827.12,264.64L827.12,488.21" style="fill:none;stroke:#FF7AB4" />
<path d="M824.62,264.64L829.62,264.64" style="fill:none;stroke:#FF7AB4" />
<path d="M824.62,488.21L829.62,488.21" style="fill:none;stroke:#FF7AB4" />
<path d="M830.82,262.71L830.82,492.67" style="fill:none;stroke:#FF7AB4" />
<path d="M828.32,262.71L833.32,262.71" style="fill:none;stroke:#FF7AB4" />
<path d="M828.32,492.67L833.32,492.67" style="fill:none;stroke:#FF7AB4" />
<path d="M834.52,310.43L834.52,493.5" style="fill:none;stroke:#FF7AB4" />
<path d="M832.02,310.43L837.02,310.43" style="fill:none;stroke:#FF7AB4" />
<path d="M832.02,493.5L837.02,493.5" style="fill:none;stroke:#FF7AB4" />
<path d="M838.22,277.72L838.22,485.27" style="fill:none;stroke:#FF7AB4" />
<path d="M835.72,277.72L840.72,277.72" style="fill:none;stroke:#FF7AB4" />
<path d="M835.72,485.27L840.72,485.27" style="fill:none;stroke:#FF7AB4" />
<path d="M841.92,286.77L841.92,487.95" style="fill:none;stroke:#FF7AB4" />
<path d="M839.42,286.77L844.42,286.77" style="fill:none;stroke:#FF7AB4" />
<path d="M839.42,487.95L844.42,487.95" style="fill:none;stroke:#FF7AB4" />
<path d="M845.62,250.31L845.62,448.3" style="fill:none;stroke:#FF7AB4" />
<path d="M843.12,250.31L848.12,250.31" style="fill:none;stroke:#FF7AB4" />
<path d="M843.12,448.3L848.12,448.3" style="fill:none;stroke:#FF7AB4" />
<path d="M849.32,242.64L849.32,454.69" style="fill:none;stroke:#FF7AB4" />
<path d="M846.82,242.64L851.82,242.64" style="fill:none;stroke:#FF7AB4" />
<path d="M846.82,454.69L851.82,454.69" style="fill:none;stroke:#FF7AB4" />
<path d="M853.02,230.51L853.02,418.31" style="fill:none;stroke:#FF7AB4" />
<path d="M850.52,230.51L855.52,230.51" style="fill:none;stroke:#FF7AB4" />
<path d="M850.52,418.31L855.52,418.31" style="fill:none;stroke:#FF7AB4" />
<path d="M856.72,255.35L856.72,468.75" style="fill:none;stroke:#FF7AB4" />
<path d="M854.22,255.35L859.22,255.35" style="fill:none;stroke:#FF7AB4" />
<path d="M854.22,468.75L859.22,468.75" style="fill:none;stroke:#FF7AB4" />
<path d="M860.42,250.52L860.42,464.33" style="fill:none;stroke:#FF7AB4" />
<path d="M857.92,250.52L862.92,250.52" style="fill:none;stroke:#FF7AB4" />
<path d="M857.92,464.33L862.92,464.33" style="fill:none;stroke:#FF7AB4" />
<path d="M864.12,260.31L864.12,451.29" style="fill:none;stroke:#FF7AB4" />
<path d="M861.62,260.31L866.62,260.31" style="fill:none;stroke:#FF7AB4" />
<path d="M861.62,451.29L866.62,451.29" style="fill:none;stroke:#FF7AB4" />
<path d="M867.81,219.98L867.81,420.26" style="fill:none;stroke:#FF7AB4" />
<path d="M865.31,219.98L870.31,219.98" style="fill:none;stroke:#FF7AB4" />
<path d="M865.31,420.26L870.31,420.26" style="fill:none;stroke:#FF7AB4" />
<path d="M871.51,224.36L871.51,418.42" style="fill:none;stroke:#FF7AB4" />
<path d="M869.01,224.36L874.01,224.36" style="fill:none;stroke:#FF7AB4" />
<path d="M869.01,418.42L874.01,418.42" style="fill:none;stroke:#FF7AB4" />
<path d="M875.21,244.21L875.21,435.03" style="fill:none;stroke:#FF7AB4" />
<path d="M872.71,244.21L877.71,244.21" style="fill:none;stroke:#FF7AB4" />
<path d="M872.71,435.03L877.71,435.03" style="fill:none;stroke:#FF7AB4" />
<path d="M878.91,243.88L878.91,431.46" style="fill:none;stroke:#FF7AB4" />
<path d="M876.41,243.88L881.41,243.88" style="fill:none;stroke:#FF7AB4" />
<path d="M876.41,431.46L881.41,431.46" style="fill:none;stroke:#FF7AB4" />
<path d="M882.61,260.55L882.61,446.8" style="fill:none;stroke:#FF7AB4" />
<path d="M880.11,260.55L885.11,260.55" style="fill:none;stroke:#FF7AB4" />
<path d="M880.11,446.8L885.11,446.8" style="fill:none;stroke:#FF7AB4" />
<path d="M886.31,248.14L886.31,427.78" style="fill:none;stroke:#FF7AB4" />
<path d="M883.81,248.14L888.81,248.14" style="fill:none;stroke:#FF7AB4" />
<path d="M883.81,427.78L888.81,427.78" style="fill:none;stroke:#FF7AB4" />
<path d="M890.01,254.41L890.01,437.91" style="fill:none;stroke:#FF7AB4" />
<path d="M887.51,254.41L892.51,254.41" style="fill:none;stroke:#FF7AB4" />
<path d="M887.51,437.91L892.51,437.91" style="fill:none;stroke:#FF7AB4" />
<path d="M893.71,227.52L893.71,414.45" style="fill:none;stroke:#FF7AB4" />
<path d="M891.21,227.52L896.21,227.52" style="fill:none;stroke:#FF7AB4" />
<path d="M891.21,414.45L896.21,414.45" style="fill:none;stroke:#FF7AB4" />
<path d="M897.41,238.35L897.41,432.17" style="fill:none;stroke:#FF7AB4" />
<path d="M894.91,238.35L899.91,238.35" style="fill:none;stroke:#FF7AB4" />
<path d="M894.91,432.17L899.91,432.17" style="fill:none;stroke:#FF7AB4" />
<path d="M901.11,271.29L901.11,472.87" style="fill:none;stroke:#FF7AB4" />
<path d="M898.61,271.29L903.61,271.29" style="fill:none;stroke:#FF7AB4" />
<path d="M898.61,472.87L903.61,472.87" style="fill:none;stroke:#FF7AB4" />
<path d="M904.81,243.11L904.81,425.03" style="fill:none;stroke:#FF7AB4" />
<path d="M902.31,243.11L907.31,243.11" style="fill:none;stroke:#FF7AB4" />
<path d="M902.31,425.03L907.31,425.03" style="fill:none;stroke:#FF7AB4" />
<path d="M908.51,219.17L908.51,399.71" style="fill:none;stroke:#FF7AB4" />
<path d="M906.01,219.17L911.01,219.17" style="fill:none;stroke:#FF7AB4" />
<path d="M906.01,399.71L911.01,399.71" style="fill:none;stroke:#FF7AB4" />
<path d="M912.21,249.17L912.21,427.8" style="fill:none;stroke:#FF7AB4" />
<path d="M909.71,249.17L914.71,249.17" style="fill:none;stroke:#FF7AB4" />
<path d="M909.71,427.8L914.71,427.8" style="fill:none;stroke:#FF7AB4" />
<path d="M915.91,231.43L915.91,402.91" style="fill:none;stroke:#FF7AB4" />
<path d="M913.41,231.43L918.41,231.43" style="fill:none;stroke:#FF7AB4" />
<path d="M913.41,402.91L918.41,402.91" style="fill:none;stroke:#FF7AB4" />
<path d="M919.61,240.18L919.61,429.99" style="fill:none;stroke:#FF7AB4" />
<path d="M917.11,240.18L922.11,240.18" style="fill:none;stroke:#FF7AB4" />
<path d="M917.11,429.99L922.11,429.99" style="fill:none;stroke:#FF7AB4" />
<path d="M923.31,221.07L923.31,406.31" style="fill:none;stroke:#FF7AB4" />
<path d="M920.81,221.07L925.81,221.07" style="fill:none;stroke:#FF7AB4" />
<path d="M920.81,406.31L925.81,406.31" style="fill:none;stroke:#FF7AB4" />
<path d="M927.01,242.49L927.01,425.14" style="fill:none;stroke:#FF7AB4" />
<path d="M924.51,242.49L929.51,242.49" style="fill:none;stroke:#FF7AB4" />
<path d="M924.51,425.14L929.51,425.14" style="fill:none;stroke:#FF7AB4" />
<path d="M930.71,215.57L930.71,408.67" style="fill:none;stroke:#FF7AB4" />
<path d="M928.21,215.57L933.21,215.57" style="fill:none;stroke:#FF7AB4" />
<path d="M928.21,408.67L933.21,408.67" style="fill:none;stroke:#FF7AB4" />
<path d="M934.41,241.06L934.41,419.97" style="fill:none;stroke:#FF7AB4" />
<path d="M931.91,241.06L936.91,241.06" style="fill:none;stroke:#FF7AB4" />
<path d="M931.91,419.97L936.91,419.97" style="fill:none;stroke:#FF7AB4" />
<path d="M938.11,255.72L938.11,417.85" style="fill:none;stroke:#FF7AB4" />
<path d="M935.61,255.72L940.61,255.72" style="fill:none;stroke:#FF7AB4" />
<path d="M935.61,417.85L940.61,417.85" style="fill:none;stroke:#FF7AB4" />
<path d="M941.81,230.92L941.81,431.02" style="fill:none;stroke:#FF7AB4" />
<path d="M939.31,230.92L944.31,230.92" style="fill:none;stroke:#FF7AB4" />
<path d="M939.31,431.02L944.31,431.02" style="fill:none;stroke:#FF7AB4" />
<path d="M945.51,222.09L945.51,411.8" style="fill:none;stroke:#FF7AB4" />
<path d="M943.01,222.09L948.01,222.09" style="fill:none;stroke:#FF7AB4" />
<path d="M943.01,411.8L948.01,411.8" style="fill:none;stroke:#FF7AB4" />
<path d="M949.21,229.78L949.21,404.98" style="fill:none;stroke:#FF7AB4" />
<path d="M946.71,229.78L951.71,229.78" style="fill:none;stroke:#FF7AB4" />
<path d="M946.71,404.98L951.71,404.98" style="fill:none;stroke:#FF7AB4" />
<path d="M952.91,215.88L952.91,406.07" style="fill:none;stroke:#FF7AB4" />
<path d="M950.41,215.88L955.41,215.88" style="fill:none;stroke:#FF7AB4" />
<path d="M950.41,406.07L955.41,406.07" style="fill:none;stroke:#FF7AB4" />
<path d="M956.61,227.76L956.61,407.39" style="fill:none;stroke:#FF7AB4" />
<path d="M954.11,227.76L959.11,227.76" style="fill:none;stroke:#FF7AB4" />
<path d="M954.11,407.39L959.11,407.39" style="fill:none;stroke:#FF7AB4" />
<path d="M960.31,212.84L960.31,404.83" style="fill:none;stroke:#FF7AB4" />
<path d="M957.81,212.84L962.81,212.84" style="fill:none;stroke:#FF7AB4" />
<path d="M957.81,404.83L962.81,404.83" style="fill:none;stroke:#FF7AB4" />
<path d="M964.01,210.15L964.01,395.91" style="fill:none;stroke:#FF7AB4" />
<path d="M961.51,210.15L966.51,210.15" style="fill:none;stroke:#FF7AB4" />
<path d="M961.51,395.91L966.51,395.91" style="fill:none;stroke:#FF7AB4" />
<path d="M967.71,196.62L967.71,409.98" style="fill:none;stroke:#FF7AB4" />
<path d="M965.21,196.62L970.21,196.62" style="fill:none;stroke:#FF7AB4" />
<path d="M965.21,409.98L970.21,409.98" style="fill:none;stroke:#FF7AB4" />
<path d="M971.41,207.38L971.41,391.34" style="fill:none;stroke:#FF7AB4" />
<path d="M968.91,207.38L973.91,207.38" style="fill:none;stroke:#FF7AB4" />
<path d="M968.91,391.34L973.91,391.34" style="fill:none;stroke:#FF7AB4" />
<path d="M975.11,207.46L975.11,400.25" style="fill:none;stroke:#FF7AB4" />
<path d="M972.61,207.46L977.61,207.46" style="fill:none;stroke:#FF7AB4" />
<path d="M972.61,400.25L977.61,400.25" style="fill:none;stroke:#FF7AB4" />
<path d="M978.81,225.36L978.81,419.48" style="fill:none;stroke:#FF7AB4" />
<path d="M976.31,225.36L981.31,225.36" style="fill:none;stroke:#FF7AB4" />
<path d="M976.31,419.48L981.31,419.48" style="fill:none;stroke:#FF7AB4" />
<path d="M982.51,210.39L982.51,405.14" style="fill:none;stroke:#FF7AB4" />
<path d="M980.01,210.39L985.01,210.39" style="fill:none;stroke:#FF7AB4" />
<path d="M980.01,405.14L985.01,405.14" style="fill:none;stroke:#FF7AB4" />
<path d="M986.21,215.54L986.21,406.02" style="fill:none;stroke:#FF7AB4" />
<path d="M983.71,215.54L988.71,215.54" style="fill:none;stroke:#FF7AB4" />
<path d="M983.71,406.02L988.71,406.02" style="fill:none;stroke:#FF7AB4" />
<path d="M989.91,212.55L989.91,398.52" style="fill:none;stroke:#FF7AB4" />
<path d="M987.41,212.55L992.41,212.55" style="fill:none;stroke:#FF7AB4" />
<path d="M987.41,398.52L992.41,398.52" style="fill:none;stroke:#FF7AB4" />
<path d="M993.61,222.07L993.61,403.27" style="fill:none;stroke:#FF7AB4" />
<path d="M991.11,222.07L996.11,222.07" style="fill:none;stroke:#FF7AB4" />
<path d="M991.11,403.27L996.11,403.27" style="fill:none;stroke:#FF7AB4" />
<path d="M997.31,205.96L997.31,417.45" style="fill:none;stroke:#FF7AB4" />
<path d="M994.81,205.96L999.81,205.96" style="fill:none;stroke:#FF7AB4" />
<path d="M994.81,417.45L999.81,417.45" style="fill:none;stroke:#FF7AB4" />
<path d="M1001,232.98L1001,424.66" style="fill:none;stroke:#FF7AB4" />
<path d="M998.51,232.98L1003.5,232.98" style="fill:none;stroke:#FF7AB4" />
<path d="M998.51,424.66L1003.5,424.66" style="fill:none;stroke:#FF7AB4" />
<path d="M1004.7,216.32L1004.7,391.97" style="fill:none;stroke:#FF7AB4" />
<path d="M1002.2,216.32L1007.2,216.32" style="fill:none;stroke:#FF7AB4" />
<path d="M1002.2,391.97L1007.2,391.97" style="fill:none;stroke:#FF7AB4" />
<path d="M1008.4,212.05L1008.4,408.39" style="fill:none;stroke:#FF7AB4" />
<path d="M1005.9,212.05L1010.9,212.05" style="fill:none;stroke:#FF7AB4" />
<path d="M1005.9,408.39L1010.9,408.39" style="fill:none;stroke:#FF7AB4" />
<path d="M1012.1,195.51L1012.1,417.7" style="fill:none;stroke:#FF7AB4" />
<path d="M1009.6,195.51L1014.6,195.51" style="fill:none;stroke:#FF7AB4" />
<path d="M1009.6,417.7L1014.6,417.7" style="fill:none;stroke:#FF7AB4" />
<path d="M1015.8,204.56L1015.8,402.94" style="fill:none;stroke:#FF7AB4" />
<path d="M1013.3,204.56L1018.3,204.56" style="fill:none;stroke:#FF7AB4" />
<path d="M1013.3,402.94L1018.3,402.94" style="fill:none;stroke:#FF7AB4" />
<path d="M1019.5,201.3L1019.5,387.91" style="fill:none;stroke:#FF7AB4" />
<path d="M1017,201.3L1022,201.3" style="fill:none;stroke:#FF7AB4" />
<path d="M1017,387.91L1022,387.91" style="fill:none;stroke:#FF7AB4" />
<path d="M1023.2,211.47L1023.2,401.54" style="fill:none;stroke:#FF7AB4" />
<path d="M1020.7,211.47L1025.7,211.47" style="fill:none;stroke:#FF7AB4" />
<path d="M1020.7,401.54L1025.7,401.54" style="fill:none;stroke:#FF7AB4" />
<path d="M1026.9,195.12L1026.9,383.25" style="fill:none;stroke:#FF7AB4" />
<path d="M1024.4,195.12L1029.4,195.12" style="fill:none;stroke:#FF7AB4" />
<path d="M1024.4,383.25L1029.4,383.25" style="fill:none;stroke:#FF7AB4" />
<path d="M1030.6,230.18L1030.6,415.15" style="fill:none;stroke:#FF7AB4" />
<path d="M1028.1,230.18L1033.1,230.18" style="fill:none;stroke:#FF7AB4" />
<path d="M1028.1,415.15L1033.1,415.15" style="fill:none;stroke:#FF7AB4" />
<path d="M1034.3,190.53L1034.3,383.64" style="fill:none;stroke:#FF7AB4" />
<path d="M1031.8,190.53L1036.8,190.53" style="fill:none;stroke:#FF7AB4" />
<path d="M1031.8,383.64L1036.8,383.64" style="fill:none;stroke:#FF7AB4" />
<path d="M1038,198.13L1038,390.86" style="fill:none;stroke:#FF7AB4" />
<path d="M1035.5,198.13L1040.5,198.13" style="fill:none;stroke:#FF7AB4" />
<path d="M1035.5,390.86L1040.5,390.86" style="fill:none;stroke:#FF7AB4" />
<path d="M1041.7,196.59L1041.7,375.21" style="fill:none;stroke:#FF7AB4" />
<path d="M1039.2,196.59L1044.2,196.59" style="fill:none;stroke:#FF7AB4" />
<path d="M1039.2,375.21L1044.2,375.21" style="fill:none;stroke:#FF7AB4" />
<path d="M1045.4,225.03L1045.4,409.86" style="fill:none;stroke:#FF7AB4" />
<path d="M1042.9,225.03L1047.9,225.03" style="fill:none;stroke:#FF7AB4" />
<path d="M1042.9,409.86L1047.9,409.86" style="fill:none;stroke:#FF7AB4" />
<path d="M1049.1,217.51L1049.1,411.31" style="fill:none;stroke:#FF7AB4" />
<path d="M1046.6,217.51L1051.6,217.51" style="fill:none;stroke:#FF7AB4" />
<path d="M1046.6,411.31L1051.6,411.31" style="fill:none;stroke:#FF7AB4" />
<path d="M1052.8,212.85L1052.8,418.17" style="fill:none;stroke:#FF7AB4" />
<path d="M1050.3,212.85L1055.3,212.85" style="fill:none;stroke:#FF7AB4" />
<path d="M1050.3,418.17L1055.3,418.17" style="fill:none;stroke:#FF7AB4" />
<path d="M1056.5,222.17L1056.5,409.96" style="fill:none;stroke:#FF7AB4" />
<path d="M1054,222.17L1059,222.17" style="fill:none;stroke:#FF7AB4" />
<path d="M1054,409.96L1059,409.96" style="fill:none;stroke:#FF7AB4" />
<path d="M1060.2,173.69L1060.2,399.31" style="fill:none;stroke:#FF7AB4" />
<path d="M1057.7,173.69L1062.7,173.69" style="fill:none;stroke:#FF7AB4" />
<path d="M1057.7,399.31L1062.7,399.31" style="fill:none;stroke:#FF7AB4" />
<path d="M1063.9,186.56L1063.9,399.99" style="fill:none;stroke:#FF7AB4" />
<path d="M1061.4,186.56L1066.4,186.56" style="fill:none;stroke:#FF7AB4" />
<path d="M1061.4,399.99L1066.4,399.99" style="fill:none;stroke:#FF7AB4" />
<path d="M1067.6,200.98L1067.6,417.4" style="fill:none;stroke:#FF7AB4" />
<path d="M1065.1,200.98L1070.1,200.98" style="fill:none;stroke:#FF7AB4" />
<path d="M1065.1,417.4L1070.1,417.4" style="fill:none;stroke:#FF7AB4" />
<path d="M1071.3,203.8L1071.3,393.46" style="fill:none;stroke:#FF7AB4" />
<path d="M1068.8,203.8L1073.8,203.8" style="fill:none;stroke:#FF7AB4" />
<path d="M1068.8,393.46L1073.8,393.46" style="fill:none;stroke:#FF7AB4" />
<path d="M1075,192.91L1075,400.7" style="fill:none;stroke:#FF7AB4" />
<path d="M1072.5,192.91L1077.5,192.91" style="fill:none;stroke:#FF7AB4" />
<path d="M1072.5,400.7L1077.5,400.7" style="fill:none;stroke:#FF7AB4" />
<path d="M166.17,343.45A5,5 0 1 1 156.17,343.45A5,5 0 1 1 166.17,343.45Z" style="fill:#FF7AB4" />
<path d="M169.87,344.4A5,5 0 1 1 159.87,344.4A5,5 0 1 1 169.87,344.4Z" style="fill:#FF7AB4" />
<path d="M173.57,317.17A5,5 0 1 1 163.57,317.17A5,5 0 1 1 173.57,317.17Z" style="fill:#FF7AB4" />
<path d="M177.27,287.73A5,5 0 1 1 167.27,287.73A5,5 0 1 1 177.27,287.73Z" style="fill:#FF7AB4" />
<path d="M180.96,315.87A5,5 0 1 1 170.96,315.87A5,5 0 1 1 180.96,315.87Z" style="fill:#FF7AB4" />
<path d="M184.66,309.93A5,5 0 1 1 174.66,309.93A5,5 0 1 1 184.66,309.93Z" style="fill:#FF7AB4" />
<path d="M188.36,312.16A5,5 0 1 1 178.36,312.16A5,5 0 1 1 188.36,312.16Z" style="fill:#FF7AB4" />
<path d="M192.06,318.56A5,5 0 1 1 182.06,318.56A5,5 0 1 1 192.06,318.56Z" style="fill:#FF7AB4" />
<path d="M195.76,344.01A5,5 0 1 1 185.76,344.01A5,5 0 1 1 195.76,344.01Z" style="fill:#FF7AB4" />
<path d="M199.46,292.52A5,5 0 1 1 189.46,292.52A5,5 0 1 1 199.46,292.52Z" style="fill:#FF7AB4" />
<path d="M203.16,341.04A5,5 0 1 1 193.16,341.04A5,5 0 1 1 203.16,341.04Z" style="fill:#FF7AB4" />
<path d="M206.86,297.44A5,5 0 1 1 196.86,297.44A5,5 0 1 1 206.86,297.44Z" style="fill:#FF7AB4" />
<path d="M210.56,335.59A5,5 0 1 1 200.56,335.59A5,5 0 1 1 210.56,335.59Z" style="fill:#FF7AB4" />
<path d="M214.26,299.58A5,5 0 1 1 204.26,299.58A5,5 0 1 1 214.26,299.58Z" style="fill:#FF7AB4" />
<path d="M217.96,315.53A5,5 0 1 1 207.96,315.53A5,5 0 1 1 217.96,315.53Z" style="fill:#FF7AB4" />
<path d="M221.66,306.28A5,5 0 1 1 211.66,306.28A5,5 0 1 1 221.66,306.28Z" style="fill:#FF7AB4" />
<path d="M225.36,322.34A5,5 0 1 1 215.36,322.34A5,5 0 1 1 225.36,322.34Z" style="fill:#FF7AB4" />
<path d="M229.06,296.67A5,5 0 1 1 219.06,296.67A5,5 0 1 1 229.06,296.67Z" style="fill:#FF7AB4" />
<path d="M232.76,314.56A5,5 0 1 1 222.76,314.56A5,5 0 1 1 232.76,314.56Z" style="fill:#FF7AB4" />
<path d="M236.46,302.02A5,5 0 1 1 226.46,302.02A5,5 0 1 1 236.46,302.02Z" style="fill:#FF7AB4" />
<path d="M240.16,304.72A5,5 0 1 1 230.16,304.72A5,5 0 1 1 240.16,304.72Z" style="fill:#FF7AB4" />
<path d="M243.86,297.95A5,5 0 1 1 233.86,297.95A5,5 0 1 1 243.86,297.95Z" style="fill:#FF7AB4" />
<path d="M247.56,336.69A5,5 0 1 1 237.56,336.69A5,5 0 1 1 247.56,336.69Z" style="fill:#FF7AB4" />
<path d="M251.26,301.86A5,5 0 1 1 241.26,301.86A5,5 0 1 1 251.26,301.86Z" style="fill:#FF7AB4" />
<path d="M254.96,306.87A5,5 0 1 1 244.96,306.87A5,5 0 1 1 254.96,306.87Z" style="fill:#FF7AB4" />
<path d="M258.66,312.68A5,5 0 1 1 248.66,312.68A5,5 0 1 1 258.66,312.68Z" style="fill:#FF7AB4" />
<path d="M262.36,328.49A5,5 0 1 1 252.36,328.49A5,5 0 1 1 262.36,328.49Z" style="fill:#FF7AB4" />
<path d="M266.06,270.09A5,5 0 1 1 256.06,270.09A5,5 0 1 1 266.06,270.09Z" style="fill:#FF7AB4" />
<path d="M269.76,324.91A5,5 0 1 1 259.76,324.91A5,5 0 1 1 269.76,324.91Z" style="fill:#FF7AB4" />
<path d="M273.46,324.78A5,5 0 1 1 263.46,324.78A5,5 0 1 1 273.46,324.78Z" style="fill:#FF7AB4" />
<path d="M277.16,310.33A5,5 0 1 1 267.16,310.33A5,5 0 1 1 277.16,310.33Z" style="fill:#FF7AB4" />
<path d="M280.86,334.86A5,5 0 1 1 270.86,334.86A5,5 0 1 1 280.86,334.86Z" style="fill:#FF7AB4" />
<path d="M284.56,318.61A5,5 0 1 1 274.56,318.61A5,5 0 1 1 284.56,318.61Z" style="fill:#FF7AB4" />
<path d="M288.26,315.29A5,5 0 1 1 278.26,315.29A5,5 0 1 1 288.26,315.29Z" style="fill:#FF7AB4" />
<path d="M291.96,305.23A5,5 0 1 1 281.96,305.23A5,5 0 1 1 291.96,305.23Z" style="fill:#FF7AB4" />
<path d="M295.66,333.58A5,5 0 1 1 285.66,333.58A5,5 0 1 1 295.66,333.58Z" style="fill:#FF7AB4" />
<path d="M299.36,320.97A5,5 0 1 1 289.36,320.97A5,5 0 1 1 299.36,320.97Z" style="fill:#FF7AB4" />
<path d="M303.06,285.59A5,5 0 1 1 293.06,285.59A5,5 0 1 1 303.06,285.59Z" style="fill:#FF7AB4" />
<path d="M306.76,295.99A5,5 0 1 1 296.76,295.99A5,5 0 1 1 306.76,295.99Z" style="fill:#FF7AB4" />
<path d="M310.46,314.84A5,5 0 1 1 300.46,314.84A5,5 0 1 1 310.46,314.84Z" style="fill:#FF7AB4" />
<path d="M314.16,315.12A5,5 0 1 1 304.16,315.12A5,5 0 1 1 314.16,315.12Z" style="fill:#FF7AB4" />
<path d="M317.86,332.88A5,5 0 1 1 307.86,332.88A5,5 0 1 1 317.86,332.88Z" style="fill:#FF7AB4" />
<path d="M321.55,315.93A5,5 0 1 1 311.55,315.93A5,5 0 1 1 321.55,315.93Z" style="fill:#FF7AB4" />
<path d="M325.25,334.82A5,5 0 1 1 315.25,334.82A5,5 0 1 1 325.25,334.82Z" style="fill:#FF7AB4" />
<path d="M328.95,341.9A5,5 0 1 1 318.95,341.9A5,5 0 1 1 328.95,341.9Z" style="fill:#FF7AB4" />
<path d="M332.65,334.05A5,5 0 1 1 322.65,334.05A5,5 0 1 1 332.65,334.05Z" style="fill:#FF7AB4" />
<path d="M336.35,325.06A5,5 0 1 1 326.35,325.06A5,5 0 1 1 336.35,325.06Z" style="fill:#FF7AB4" />
<path d="M340.05,334.03A5,5 0 1 1 330.05,334.03A5,5 0 1 1 340.05,334.03Z" style="fill:#FF7AB4" />
<path d="M343.75,324.43A5,5 0 1 1 333.75,324.43A5,5 0 1 1 343.75,324.43Z" style="fill:#FF7AB4" />
<path d="M347.45,307.39A5,5 0 1 1 337.45,307.39A5,5 0 1 1 347.45,307.39Z" style="fill:#FF7AB4" />
<path d="M351.15,332.72A5,5 0 1 1 341.15,332.72A5,5 0 1 1 351.15,332.72Z" style="fill:#FF7AB4" />
<path d="M354.85,361.94A5,5 0 1 1 344.85,361.94A5,5 0 1 1 354.85,361.94Z" style="fill:#FF7AB4" />
<path d="M358.55,316.01A5,5 0 1 1 348.55,316.01A5,5 0 1 1 358.55,316.01Z" style="fill:#FF7AB4" />
<path d="M362.25,333.15A5,5 0 1 1 352.25,333.15A5,5 0 1 1 362.25,333.15Z" style="fill:#FF7AB4" />
<path d="M365.95,326.42A5,5 0 1 1 355.95,326.42A5,5 0 1 1 365.95,326.42Z" style="fill:#FF7AB4" />
<path d="M369.65,348.34A5,5 0 1 1 359.65,348.34A5,5 0 1 1 369.65,348.34Z" style="fill:#FF7AB4" />
<path d="M373.35,363.76A5,5 0 1 1 363.35,363.76A5,5 0 1 1 373.35,363.76Z" style="fill:#FF7AB4" />
<path d="M377.05,371.97A5,5 0 1 1 367.05,371.97A5,5 0 1 1 377.05,371.97Z" style="fill:#FF7AB4" />
<path d="M380.75,364.8A5,5 0 1 1 370.75,364.8A5,5 0 1 1 380.75,364.8Z" style="fill:#FF7AB4" />
<path d="M384.45,384.09A5,5 0 1 1 374.45,384.09A5,5 0 1 1 384.45,384.09Z" style="fill:#FF7AB4" />
<path d="M388.15,369.18A5,5 0 1 1 378.15,369.18A5,5 0 1 1 388.15,369.18Z" style="fill:#FF7AB4" />
<path d="M391.85,378.68A5,5 0 1 1 381.85,378.68A5,5 0 1 1 391.85,378.68Z" style="fill:#FF7AB4" />
<path d="M395.55,353.72A5,5 0 1 1 385.55,353.72A5,5 0 1 1 395.55,353.72Z" style="fill:#FF7AB4" />
<path d="M399.25,355.58A5,5 0 1 1 389.25,355.58A5,5 0 1 1 399.25,355.58Z" style="fill:#FF7AB4" />
<path d="M402.95,352.05A5,5 0 1 1 392.95,352.05A5,5 0 1 1 402.95,352.05Z" style="fill:#FF7AB4" />
<path d="M406.65,376.88A5,5 0 1 1 396.65,376.88A5,5 0 1 1 406.65,376.88Z" style="fill:#FF7AB4" />
<path d="M410.35,352.43A5,5 0 1 1 400.35,352.43A5,5 0 1 1 410.35,352.43Z" style="fill:#FF7AB4" />
<path d="M414.05,337.91A5,5 0 1 1 404.05,337.91A5,5 0 1 1 414.05,337.91Z" style="fill:#FF7AB4" />
<path d="M417.75,377.29A5,5 0 1 1 407.75,377.29A5,5 0 1 1 417.75,377.29Z" style="fill:#FF7AB4" />
<path d="M421.45,374.49A5,5 0 1 1 411.45,374.49A5,5 0 1 1 421.45,374.49Z" style="fill:#FF7AB4" />
<path d="M425.15,373.96A5,5 0 1 1 415.15,373.96A5,5 0 1 1 425.15,373.96Z" style="fill:#FF7AB4" />
<path d="M428.85,374.28A5,5 0 1 1 418.85,374.28A5,5 0 1 1 428.85,374.28Z" style="fill:#FF7AB4" />
<path d="M432.55,356.53A5,5 0 1 1 422.55,356.53A5,5 0 1 1 432.55,356.53Z" style="fill:#FF7AB4" />
<path d="M436.25,386.41A5,5 0 1 1 426.25,386.41A5,5 0 1 1 436.25,386.41Z" style="fill:#FF7AB4" />
<path d="M439.95,408.62A5,5 0 1 1 429.95,408.62A5,5 0 1 1 439.95,408.62Z" style="fill:#FF7AB4" />
<path d="M443.65,375.97A5,5 0 1 1 433.65,375.97A5,5 0 1 1 443.65,375.97Z" style="fill:#FF7AB4" />
<path d="M447.35,413.87A5,5 0 1 1 437.35,413.87A5,5 0 1 1 447.35,413.87Z" style="fill:#FF7AB4" />
<path d="M451.05,382.88A5,5 0 1 1 441.05,382.88A5,5 0 1 1 451.05,382.88Z" style="fill:#FF7AB4" />
<path d="M454.75,419.64A5,5 0 1 1 444.75,419.64A5,5 0 1 1 454.75,419.64Z" style="fill:#FF7AB4" />
<path d="M458.44,414.63A5,5 0 1 1 448.44,414.63A5,5 0 1 1 458.44,414.63Z" style="fill:#FF7AB4" />
<path d="M462.14,393.43A5,5 0 1 1 452.14,393.43A5,5 0 1 1 462.14,393.43Z" style="fill:#FF7AB4" />
<path d="M465.84,413.71A5,5 0 1 1 455.84,413.71A5,5 0 1 1 465.84,413.71Z" style="fill:#FF7AB4" />
<path d="M469.54,473.19A5,5 0 1 1 459.54,473.19A5,5 0 1 1 469.54,473.19Z" style="fill:#FF7AB4" />
<path d="M473.24,421.09A5,5 0 1 1 463.24,421.09A5,5 0 1 1 473.24,421.09Z" style="fill:#FF7AB4" />
<path d="M476.94,437.55A5,5 0 1 1 466.94,437.55A5,5 0 1 1 476.94,437.55Z" style="fill:#FF7AB4" />
<path d="M480.64,470.07A5,5 0 1 1 470.64,470.07A5,5 0 1 1 480.64,470.07Z" style="fill:#FF7AB4" />
<path d="M484.34,408.89A5,5 0 1 1 474.34,408.89A5,5 0 1 1 484.34,408.89Z" style="fill:#FF7AB4" />
<path d="M488.04,473.44A5,5 0 1 1 478.04,473.44A5,5 0 1 1 488.04,473.44Z" style="fill:#FF7AB4" />
<path d="M491.74,479.49A5,5 0 1 1 481.74,479.49A5,5 0 1 1 491.74,479.49Z" style="fill:#FF7AB4" />
<path d="M495.44,450.23A5,5 0 1 1 485.44,450.23A5,5 0 1 1 495.44,450.23Z" style="fill:#FF7AB4" />
<path d="M499.14,468.56A5,5 0 1 1 489.14,468.56A5,5 0 1 1 499.14,468.56Z" style="fill:#FF7AB4" />
<path d="M502.84,476.63A5,5 0 1 1 492.84,476.63A5,5 0 1 1 502.84,476.63Z" style="fill:#FF7AB4" />
<path d="M506.54,504.38A5,5 0 1 1 496.54,504.38A5,5 0 1 1 506.54,504.38Z" style="fill:#FF7AB4" />
<path d="M510.24,502.2A5,5 0 1 1 500.24,502.2A5,5 0 1 1 510.24,502.2Z" style="fill:#FF7AB4" />
<path d="M513.94,488.49A5,5 0 1 1 503.94,488.49A5,5 0 1 1 513.94,488.49Z" style="fill:#FF7AB4" />
<path d="M517.64,470.56A5,5 0 1 1 507.64,470.56A5,5 0 1 1 517.64,470.56Z" style="fill:#FF7AB4" />
<path d="M521.34,479.11A5,5 0 1 1 511.34,479.11A5,5 0 1 1 521.34,479.11Z" style="fill:#FF7AB4" />
<path d="M525.04,495.91A5,5 0 1 1 515.04,495.91A5,5 0 1 1 525.04,495.91Z" style="fill:#FF7AB4" />
<path d="M528.74,529.45A5,5 0 1 1 518.74,529.45A5,5 0 1 1 528.74,529.45Z" style="fill:#FF7AB4" />
<path d="M532.44,537.11A5,5 0 1 1 522.44,537.11A5,5 0 1 1 532.44,537.11Z" style="fill:#FF7AB4" />
<path d="M536.14,541.73A5,5 0 1 1 526.14,541.73A5,5 0 1 1 536.14,541.73Z" style="fill:#FF7AB4" />
<path d="M539.84,560.69A5,5 0 1 1 529.84,560.69A5,5 0 1 1 539.84,560.69Z" style="fill:#FF7AB4" />
<path d="M543.54,528.15A5,5 0 1 1 533.54,528.15A5,5 0 1 1 543.54,528.15Z" style="fill:#FF7AB4" />
<path d="M547.24,541.54A5,5 0 1 1 537.24,541.54A5,5 0 1 1 547.24,541.54Z" style="fill:#FF7AB4" />
<path d="M550.94,554.23A5,5 0 1 1 540.94,554.23A5,5 0 1 1 550.94,554.23Z" style="fill:#FF7AB4" />
<path d="M554.64,554.84A5,5 0 1 1 544.64,554.84A5,5 0 1 1 554.64,554.84Z" style="fill:#FF7AB4" />
<path d="M558.34,601.56A5,5 0 1 1 548.34,601.56A5,5 0 1 1 558.34,601.56Z" style="fill:#FF7AB4" />
<path d="M562.04,625.65A5,5 0 1 1 552.04,625.65A5,5 0 1 1 562.04,625.65Z" style="fill:#FF7AB4" />
<path d="M565.74,581.74A5,5 0 1 1 555.74,581.74A5,5 0 1 1 565.74,581.74Z" style="fill:#FF7AB4" />
<path d="M569.44,560.35A5,5 0 1 1 559.44,560.35A5,5 0 1 1 569.44,560.35Z" style="fill:#FF7AB4" />
<path d="M573.14,648.47A5,5 0 1 1 563.14,648.47A5,5 0 1 1 573.14,648.47Z" style="fill:#FF7AB4" />
<path d="M576.84,704.31A5,5 0 1 1 566.84,704.31A5,5 0 1 1 576.84,704.31Z" style="fill:#FF7AB4" />
<path d="M580.54,658.33A5,5 0 1 1 570.54,658.33A5,5 0 1 1 580.54,658.33Z" style="fill:#FF7AB4" />
<path d="M584.24,729.72A5,5 0 1 1 574.24,729.72A5,5 0 1 1 584.24,729.72Z" style="fill:#FF7AB4" />
<path d="M587.94,736.52A5,5 0 1 1 577.94,736.52A5,5 0 1 1 587.94,736.52Z" style="fill:#FF7AB4" />
<path d="M591.64,770.73A5,5 0 1 1 581.64,770.73A5,5 0 1 1 591.64,770.73Z" style="fill:#FF7AB4" />
<path d="M595.34,705.07A5,5 0 1 1 585.34,705.07A5,5 0 1 1 595.34,705.07Z" style="fill:#FF7AB4" />
<path d="M599.03,649.59A5,5 0 1 1 589.03,649.59A5,5 0 1 1 599.03,649.59Z" style="fill:#FF7AB4" />
<path d="M602.73,663.41A5,5 0 1 1 592.73,663.41A5,5 0 1 1 602.73,663.41Z" style="fill:#FF7AB4" />
<path d="M606.43,641.28A5,5 0 1 1 596.43,641.28A5,5 0 1 1 606.43,641.28Z" style="fill:#FF7AB4" />
<path d="M610.13,698.03A5,5 0 1 1 600.13,698.03A5,5 0 1 1 610.13,698.03Z" style="fill:#FF7AB4" />
<path d="M613.83,729.36A5,5 0 1 1 603.83,729.36A5,5 0 1 1 613.83,729.36Z" style="fill:#FF7AB4" />
<path d="M617.53,770.86A5,5 0 1 1 607.53,770.86A5,5 0 1 1 617.53,770.86Z" style="fill:#FF7AB4" />
<path d="M621.23,677.43A5,5 0 1 1 611.23,677.43A5,5 0 1 1 621.23,677.43Z" style="fill:#FF7AB4" />
<path d="M624.93,682.76A5,5 0 1 1 614.93,682.76A5,5 0 1 1 624.93,682.76Z" style="fill:#FF7AB4" />
<path d="M628.63,622.54A5,5 0 1 1 618.63,622.54A5,5 0 1 1 628.63,622.54Z" style="fill:#FF7AB4" />
<path d="M632.33,691.08A5,5 0 1 1 622.33,691.08A5,5 0 1 1 632.33,691.08Z" style="fill:#FF7AB4" />
<path d="M636.03,719.81A5,5 0 1 1 626.03,719.81A5,5 0 1 1 636.03,719.81Z" style="fill:#FF7AB4" />
<path d="M639.73,728.53A5,5 0 1 1 629.73,728.53A5,5 0 1 1 639.73,728.53Z" style="fill:#FF7AB4" />
<path d="M643.43,679.96A5,5 0 1 1 633.43,679.96A5,5 0 1 1 643.43,679.96Z" style="fill:#FF7AB4" />
<path d="M647.13,717.89A5,5 0 1 1 637.13,717.89A5,5 0 1 1 647.13,717.89Z" style="fill:#FF7AB4" />
<path d="M650.83,673.76A5,5 0 1 1 640.83,673.76A5,5 0 1 1 650.83,673.76Z" style="fill:#FF7AB4" />
<path d="M654.53,627.74A5,5 0 1 1 644.53,627.74A5,5 0 1 1 654.53,627.74Z" style="fill:#FF7AB4" />
<path d="M658.23,694.52A5,5 0 1 1 648.23,694.52A5,5 0 1 1 658.23,694.52Z" style="fill:#FF7AB4" />
<path d="M661.93,610.54A5,5 0 1 1 651.93,610.54A5,5 0 1 1 661.93,610.54Z" style="fill:#FF7AB4" />
<path d="M665.63,589.57A5,5 0 1 1 655.63,589.57A5,5 0 1 1 665.63,589.57Z" style="fill:#FF7AB4" />
<path d="M669.33,615.61A5,5 0 1 1 659.33,615.61A5,5 0 1 1 669.33,615.61Z" style="fill:#FF7AB4" />
<path d="M673.03,615.27A5,5 0 1 1 663.03,615.27A5,5 0 1 1 673.03,615.27Z" style="fill:#FF7AB4" />
<path d="M676.73,520.85A5,5 0 1 1 666.73,520.85A5,5 0 1 1 676.73,520.85Z" style="fill:#FF7AB4" />
<path d="M680.43,534.23A5,5 0 1 1 670.43,534.23A5,5 0 1 1 680.43,534.23Z" style="fill:#FF7AB4" />
<path d="M684.13,600.1A5,5 0 1 1 674.13,600.1A5,5 0 1 1 684.13,600.1Z" style="fill:#FF7AB4" />
<path d="M687.83,539.32A5,5 0 1 1 677.83,539.32A5,5 0 1 1 687.83,539.32Z" style="fill:#FF7AB4" />
<path d="M691.53,509.39A5,5 0 1 1 681.53,509.39A5,5 0 1 1 691.53,509.39Z" style="fill:#FF7AB4" />
<path d="M695.23,584.65A5,5 0 1 1 685.23,584.65A5,5 0 1 1 695.23,584.65Z" style="fill:#FF7AB4" />
<path d="M698.93,562.33A5,5 0 1 1 688.93,562.33A5,5 0 1 1 698.93,562.33Z" style="fill:#FF7AB4" />
<path d="M702.63,578.16A5,5 0 1 1 692.63,578.16A5,5 0 1 1 702.63,578.16Z" style="fill:#FF7AB4" />
<path d="M706.33,528.08A5,5 0 1 1 696.33,528.08A5,5 0 1 1 706.33,528.08Z" style="fill:#FF7AB4" />
<path d="M710.03,580.48A5,5 0 1 1 700.03,580.48A5,5 0 1 1 710.03,580.48Z" style="fill:#FF7AB4" />
<path d="M713.73,539.38A5,5 0 1 1 703.73,539.38A5,5 0 1 1 713.73,539.38Z" style="fill:#FF7AB4" />
<path d="M717.43,484.79A5,5 0 1 1 707.43,484.79A5,5 0 1 1 717.43,484.79Z" style="fill:#FF7AB4" />
<path d="M721.13,468.07A5,5 0 1 1 711.13,468.07A5,5 0 1 1 721.13,468.07Z" style="fill:#FF7AB4" />
<path d="M724.83,538.97A5,5 0 1 1 714.83,538.97A5,5 0 1 1 724.83,538.97Z" style="fill:#FF7AB4" />
<path d="M728.53,624.72A5,5 0 1 1 718.53,624.72A5,5 0 1 1 728.53,624.72Z" style="fill:#FF7AB4" />
<path d="M732.23,494.74A5,5 0 1 1 722.23,494.74A5,5 0 1 1 732.23,494.74Z" style="fill:#FF7AB4" />
<path d="M735.92,491.07A5,5 0 1 1 725.92,491.07A5,5 0 1 1 735.92,491.07Z" style="fill:#FF7AB4" />
<path d="M739.62,547.25A5,5 0 1 1 729.62,547.25A5,5 0 1 1 739.62,547.25Z" style="fill:#FF7AB4" />
<path d="M743.32,555.71A5,5 0 1 1 733.32,555.71A5,5 0 1 1 743.32,555.71Z" style="fill:#FF7AB4" />
<path d="M747.02,581.97A5,5 0 1 1 737.02,581.97A5,5 0 1 1 747.02,581.97Z" style="fill:#FF7AB4" />
<path d="M750.72,540.61A5,5 0 1 1 740.72,540.61A5,5 0 1 1 750.72,540.61Z" style="fill:#FF7AB4" />
<path d="M754.42,569.68A5,5 0 1 1 744.42,569.68A5,5 0 1 1 754.42,569.68Z" style="fill:#FF7AB4" />
<path d="M758.12,502.49A5,5 0 1 1 748.12,502.49A5,5 0 1 1 758.12,502.49Z" style="fill:#FF7AB4" />
<path d="M761.82,530.23A5,5 0 1 1 751.82,530.23A5,5 0 1 1 761.82,530.23Z" style="fill:#FF7AB4" />
<path d="M765.52,501.5A5,5 0 1 1 755.52,501.5A5,5 0 1 1 765.52,501.5Z" style="fill:#FF7AB4" />
<path d="M769.22,452.49A5,5 0 1 1 759.22,452.49A5,5 0 1 1 769.22,452.49Z" style="fill:#FF7AB4" />
<path d="M772.92,464.08A5,5 0 1 1 762.92,464.08A5,5 0 1 1 772.92,464.08Z" style="fill:#FF7AB4" />
<path d="M776.62,470.47A5,5 0 1 1 766.62,470.47A5,5 0 1 1 776.62,470.47Z" style="fill:#FF7AB4" />
<path d="M780.32,451.25A5,5 0 1 1 770.32,451.25A5,5 0 1 1 780.32,451.25Z" style="fill:#FF7AB4" />
<path d="M784.02,479.72A5,5 0 1 1 774.02,479.72A5,5 0 1 1 784.02,479.72Z" style="fill:#FF7AB4" />
<path d="M787.72,457.82A5,5 0 1 1 777.72,457.82A5,5 0 1 1 787.72,457.82Z" style="fill:#FF7AB4" />
<path d="M791.42,494.83A5,5 0 1 1 781.42,494.83A5,5 0 1 1 791.42,494.83Z" style="fill:#FF7AB4" />
<path d="M795.12,459.94A5,5 0 1 1 785.12,459.94A5,5 0 1 1 795.12,459.94Z" style="fill:#FF7AB4" />
<path d="M798.82,451.19A5,5 0 1 1 788.82,451.19A5,5 0 1 1 798.82,451.19Z" style="fill:#FF7AB4" />
<path d="M802.52,430.83A5,5 0 1 1 792.52,430.83A5,5 0 1 1 802.52,430.83Z" style="fill:#FF7AB4" />
<path d="M806.22,430.36A5,5 0 1 1 796.22,430.36A5,5 0 1 1 806.22,430.36Z" style="fill:#FF7AB4" />
<path d="M809.92,429.43A5,5 0 1 1 799.92,429.43A5,5 0 1 1 809.92,429.43Z" style="fill:#FF7AB4" />
<path d="M813.62,416.21A5,5 0 1 1 803.62,416.21A5,5 0 1 1 813.62,416.21Z" style="fill:#FF7AB4" />
<path d="M817.32,399.7A5,5 0 1 1 807.32,399.7A5,5 0 1 1 817.32,399.7Z" style="fill:#FF7AB4" />
<path d="M821.02,366.17A5,5 0 1 1 811.02,366.17A5,5 0 1 1 821.02,366.17Z" style="fill:#FF7AB4" />
<path d="M824.72,380.47A5,5 0 1 1 814.72,380.47A5,5 0 1 1 824.72,380.47Z" style="fill:#FF7AB4" />
<path d="M828.42,375.81A5,5 0 1 1 818.42,375.81A5,5 0 1 1 828.42,375.81Z" style="fill:#FF7AB4" />
<path d="M832.12,376.43A5,5 0 1 1 822.12,376.43A5,5 0 1 1 832.12,376.43Z" style="fill:#FF7AB4" />
<path d="M835.82,377.69A5,5 0 1 1 825.82,377.69A5,5 0 1 1 835.82,377.69Z" style="fill:#FF7AB4" />
<path d="M839.52,401.97A5,5 0 1 1 829.52,401.97A5,5 0 1 1 839.52,401.97Z" style="fill:#FF7AB4" />
<path d="M843.22,381.5A5,5 0 1 1 833.22,381.5A5,5 0 1 1 843.22,381.5Z" style="fill:#FF7AB4" />
<path d="M846.92,387.36A5,5 0 1 1 836.92,387.36A5,5 0 1 1 846.92,387.36Z" style="fill:#FF7AB4" />
<path d="M850.62,349.31A5,5 0 1 1 840.62,349.31A5,5 0 1 1 850.62,349.31Z" style="fill:#FF7AB4" />
<path d="M854.32,348.66A5,5 0 1 1 844.32,348.66A5,5 0 1 1 854.32,348.66Z" style="fill:#FF7AB4" />
<path d="M858.02,324.41A5,5 0 1 1 848.02,324.41A5,5 0 1 1 858.02,324.41Z" style="fill:#FF7AB4" />
<path d="M861.72,362.05A5,5 0 1 1 851.72,362.05A5,5 0 1 1 861.72,362.05Z" style="fill:#FF7AB4" />
<path d="M865.42,357.42A5,5 0 1 1 855.42,357.42A5,5 0 1 1 865.42,357.42Z" style="fill:#FF7AB4" />
<path d="M869.12,355.8A5,5 0 1 1 859.12,355.8A5,5 0 1 1 869.12,355.8Z" style="fill:#FF7AB4" />
<path d="M872.81,320.12A5,5 0 1 1 862.81,320.12A5,5 0 1 1 872.81,320.12Z" style="fill:#FF7AB4" />
<path d="M876.51,321.39A5,5 0 1 1 866.51,321.39A5,5 0 1 1 876.51,321.39Z" style="fill:#FF7AB4" />
<path d="M880.21,339.62A5,5 0 1 1 870.21,339.62A5,5 0 1 1 880.21,339.62Z" style="fill:#FF7AB4" />
<path d="M883.91,337.67A5,5 0 1 1 873.91,337.67A5,5 0 1 1 883.91,337.67Z" style="fill:#FF7AB4" />
<path d="M887.61,353.68A5,5 0 1 1 877.61,353.68A5,5 0 1 1 887.61,353.68Z" style="fill:#FF7AB4" />
<path d="M891.31,337.96A5,5 0 1 1 881.31,337.96A5,5 0 1 1 891.31,337.96Z" style="fill:#FF7AB4" />
<path d="M895.01,346.16A5,5 0 1 1 885.01,346.16A5,5 0 1 1 895.01,346.16Z" style="fill:#FF7AB4" />
<path d="M898.71,320.98A5,5 0 1 1 888.71,320.98A5,5 0 1 1 898.71,320.98Z" style="fill:#FF7AB4" />
<path d="M902.41,335.26A5,5 0 1 1 892.41,335.26A5,5 0 1 1 902.41,335.26Z" style="fill:#FF7AB4" />
<path d="M906.11,372.08A5,5 0 1 1 896.11,372.08A5,5 0 1 1 906.11,372.08Z" style="fill:#FF7AB4" />
<path d="M909.81,334.07A5,5 0 1 1 899.81,334.07A5,5 0 1 1 909.81,334.07Z" style="fill:#FF7AB4" />
<path d="M913.51,309.44A5,5 0 1 1 903.51,309.44A5,5 0 1 1 913.51,309.44Z" style="fill:#FF7AB4" />
<path d="M917.21,338.48A5,5 0 1 1 907.21,338.48A5,5 0 1 1 917.21,338.48Z" style="fill:#FF7AB4" />
<path d="M920.91,317.17A5,5 0 1 1 910.91,317.17A5,5 0 1 1 920.91,317.17Z" style="fill:#FF7AB4" />
<path d="M924.61,335.09A5,5 0 1 1 914.61,335.09A5,5 0 1 1 924.61,335.09Z" style="fill:#FF7AB4" />
<path d="M928.31,313.69A5,5 0 1 1 918.31,313.69A5,5 0 1 1 928.31,313.69Z" style="fill:#FF7AB4" />
<path d="M932.01,333.82A5,5 0 1 1 922.01,333.82A5,5 0 1 1 932.01,333.82Z" style="fill:#FF7AB4" />
<path d="M935.71,312.12A5,5 0 1 1 925.71,312.12A5,5 0 1 1 935.71,312.12Z" style="fill:#FF7AB4" />
<path d="M939.41,330.52A5,5 0 1 1 929.41,330.52A5,5 0 1 1 939.41,330.52Z" style="fill:#FF7AB4" />
<path d="M943.11,336.79A5,5 0 1 1 933.11,336.79A5,5 0 1 1 943.11,336.79Z" style="fill:#FF7AB4" />
<path d="M946.81,330.97A5,5 0 1 1 936.81,330.97A5,5 0 1 1 946.81,330.97Z" style="fill:#FF7AB4" />
<path d="M950.51,316.94A5,5 0 1 1 940.51,316.94A5,5 0 1 1 950.51,316.94Z" style="fill:#FF7AB4" />
<path d="M954.21,317.38A5,5 0 1 1 944.21,317.38A5,5 0 1 1 954.21,317.38Z" style="fill:#FF7AB4" />
<path d="M957.91,310.97A5,5 0 1 1 947.91,310.97A5,5 0 1 1 957.91,310.97Z" style="fill:#FF7AB4" />
<path d="M961.61,317.58A5,5 0 1 1 951.61,317.58A5,5 0 1 1 961.61,317.58Z" style="fill:#FF7AB4" />
<path d="M965.31,308.84A5,5 0 1 1 955.31,308.84A5,5 0 1 1 965.31,308.84Z" style="fill:#FF7AB4" />
<path d="M969.01,303.03A5,5 0 1 1 959.01,303.03A5,5 0 1 1 969.01,303.03Z" style="fill:#FF7AB4" />
<path d="M972.71,303.3A5,5 0 1 1 962.71,303.3A5,5 0 1 1 972.71,303.3Z" style="fill:#FF7AB4" />
<path d="M976.41,299.36A5,5 0 1 1 966.41,299.36A5,5 0 1 1 976.41,299.36Z" style="fill:#FF7AB4" />
<path d="M980.11,303.86A5,5 0 1 1 970.11,303.86A5,5 0 1 1 980.11,303.86Z" style="fill:#FF7AB4" />
<path d="M983.81,322.42A5,5 0 1 1 973.81,322.42A5,5 0 1 1 983.81,322.42Z" style="fill:#FF7AB4" />
<path d="M987.51,307.76A5,5 0 1 1 977.51,307.76A5,5 0 1 1 987.51,307.76Z" style="fill:#FF7AB4" />
<path d="M991.21,310.78A5,5 0 1 1 981.21,310.78A5,5 0 1 1 991.21,310.78Z" style="fill:#FF7AB4" />
<path d="M994.91,305.54A5,5 0 1 1 984.91,305.54A5,5 0 1 1 994.91,305.54Z" style="fill:#FF7AB4" />
<path d="M998.61,312.67A5,5 0 1 1 988.61,312.67A5,5 0 1 1 998.61,312.67Z" style="fill:#FF7AB4" />
<path d="M1002.3,311.71A5,5 0 1 1 992.31,311.71A5,5 0 1 1 1002.3,311.71Z" style="fill:#FF7AB4" />
<path d="M1006,328.82A5,5 0 1 1 996.01,328.82A5,5 0 1 1 1006,328.82Z" style="fill:#FF7AB4" />
<path d="M1009.7,304.14A5,5 0 1 1 999.71,304.14A5,5 0 1 1 1009.7,304.14Z" style="fill:#FF7AB4" />
<path d="M1013.4,310.22A5,5 0 1 1 1003.4,310.22A5,5 0 1 1 1013.4,310.22Z" style="fill:#FF7AB4" />
<path d="M1017.1,306.6A5,5 0 1 1 1007.1,306.6A5,5 0 1 1 1017.1,306.6Z" style="fill:#FF7AB4" />
<path d="M1020.8,303.75A5,5 0 1 1 1010.8,303.75A5,5 0 1 1 1020.8,303.75Z" style="fill:#FF7AB4" />
<path d="M1024.5,294.6A5,5 0 1 1 1014.5,294.6A5,5 0 1 1 1024.5,294.6Z" style="fill:#FF7AB4" />
<path d="M1028.2,306.5A5,5 0 1 1 1018.2,306.5A5,5 0 1 1 1028.2,306.5Z" style="fill:#FF7AB4" />
<path d="M1031.9,289.19A5,5 0 1 1 1021.9,289.19A5,5 0 1 1 1031.9,289.19Z" style="fill:#FF7AB4" />
<path d="M1035.6,322.67A5,5 0 1 1 1025.6,322.67A5,5 0 1 1 1035.6,322.67Z" style="fill:#FF7AB4" />
<path d="M1039.3,287.09A5,5 0 1 1 1029.3,287.09A5,5 0 1 1 1039.3,287.09Z" style="fill:#FF7AB4" />
<path d="M1043,294.5A5,5 0 1 1 1033,294.5A5,5 0 1 1 1043,294.5Z" style="fill:#FF7AB4" />
<path d="M1046.7,285.9A5,5 0 1 1 1036.7,285.9A5,5 0 1 1 1046.7,285.9Z" style="fill:#FF7AB4" />
<path d="M1050.4,317.45A5,5 0 1 1 1040.4,317.45A5,5 0 1 1 1050.4,317.45Z" style="fill:#FF7AB4" />
<path d="M1054.1,314.41A5,5 0 1 1 1044.1,314.41A5,5 0 1 1 1054.1,314.41Z" style="fill:#FF7AB4" />
<path d="M1057.8,315.51A5,5 0 1 1 1047.8,315.51A5,5 0 1 1 1057.8,315.51Z" style="fill:#FF7AB4" />
<path d="M1061.5,316.06A5,5 0 1 1 1051.5,316.06A5,5 0 1 1 1061.5,316.06Z" style="fill:#FF7AB4" />
<path d="M1065.2,286.5A5,5 0 1 1 1055.2,286.5A5,5 0 1 1 1065.2,286.5Z" style="fill:#FF7AB4" />
<path d="M1068.9,293.28A5,5 0 1 1 1058.9,293.28A5,5 0 1 1 1068.9,293.28Z" style="fill:#FF7AB4" />
<path d="M1072.6,309.19A5,5 0 1 1 1062.6,309.19A5,5 0 1 1 1072.6,309.19Z" style="fill:#FF7AB4" />
<path d="M1076.3,298.63A5,5 0 1 1 1066.3,298.63A5,5 0 1 1 1076.3,298.63Z" style="fill:#FF7AB4" />
<path d="M1080,296.81A5,5 0 1 1 1070,296.81A5,5 0 1 1 1080,296.81Z" style="fill:#FF7AB4" />
<path d="M161.17,974.14L1075,974.14" style="fill:none;stroke:#000000" />
<path d="M1075,168.74L1075,974.14" style="fill:none;stroke:#000000" />
<path d="M1013,927.49A8,8 0 1 1 997,927.49A8,8 0 1 1 1013,927.49Z" style="fill:#FF7AB4" />
<text x="553.57" y="-920.9" transform="scale(1, -1)"
	style="font-family:Helvetica;font-weight:normal;font-style:normal;font-size:28px">no chip just UHNA1 sample stage</text>
</g>
</svg>
