<?xml version="1.0"?>
<!-- Generated by SVGo and Plotinum VG -->
<svg width="1080pt" height="1080pt" viewBox="0 0 1080 1080"
	xmlns="http://www.w3.org/2000/svg"
	xmlns:xlink="http://www.w3.org/1999/xlink">
<g transform="scale(1, -1) translate(0, -1080)">
<path d="M0,0L1080,0L1080,1080L0,1080Z" style="fill:#-8000000000000000-8000000000000000-8000000000000000;fill-opacity:0" />
<text x="528.89" y="-1015.2" transform="scale(1, -1)"
	style="font-family:Helvetica;font-weight:normal;font-style:normal;font-size:80px"> </text>
<text x="396.01" y="-17.172" transform="scale(1, -1)"
	style="font-family:Helvetica;font-weight:normal;font-style:normal;font-size:56px">Pump Power (mW)</text>
<text x="305.17" y="-119.73" transform="scale(1, -1)"
	style="font-family:Helvetica;font-weight:normal;font-style:normal;font-size:56px">0</text>
<text x="467.73" y="-119.73" transform="scale(1, -1)"
	style="font-family:Helvetica;font-weight:normal;font-style:normal;font-size:56px">50</text>
<text x="630.29" y="-119.73" transform="scale(1, -1)"
	style="font-family:Helvetica;font-weight:normal;font-style:normal;font-size:56px">100</text>
<text x="808.43" y="-119.73" transform="scale(1, -1)"
	style="font-family:Helvetica;font-weight:normal;font-style:normal;font-size:56px">150</text>
<text x="986.57" y="-119.73" transform="scale(1, -1)"
	style="font-family:Helvetica;font-weight:normal;font-style:normal;font-size:56px">200</text>
<path d="M320.74,181.12L320.74,173.12" style="fill:none;stroke:#000000;stroke-width:1.5" />
<path d="M409.81,177.12L409.81,173.12" style="fill:none;stroke:#000000;stroke-width:1.5" />
<path d="M498.88,181.12L498.88,173.12" style="fill:none;stroke:#000000;stroke-width:1.5" />
<path d="M587.94,177.12L587.94,173.12" style="fill:none;stroke:#000000;stroke-width:1.5" />
<path d="M677.01,181.12L677.01,173.12" style="fill:none;stroke:#000000;stroke-width:1.5" />
<path d="M766.08,177.12L766.08,173.12" style="fill:none;stroke:#000000;stroke-width:1.5" />
<path d="M855.15,181.12L855.15,173.12" style="fill:none;stroke:#000000;stroke-width:1.5" />
<path d="M944.22,177.12L944.22,173.12" style="fill:none;stroke:#000000;stroke-width:1.5" />
<path d="M1033.3,181.12L1033.3,173.12" style="fill:none;stroke:#000000;stroke-width:1.5" />
<path d="M231.67,173.12L1033.3,173.12" style="fill:none;stroke:#000000;stroke-width:1.5" />
<g transform="rotate(90)">
<text x="372.88" y="45.391" transform="scale(1, -1)"
	style="font-family:Helvetica;font-weight:normal;font-style:normal;font-size:56px">FWHM (MHz)</text>
</g>
<text x="114.43" y="-285.36" transform="scale(1, -1)"
	style="font-family:Helvetica;font-weight:normal;font-style:normal;font-size:56px">100</text>
<text x="118.59" y="-529.82" transform="scale(1, -1)"
	style="font-family:Helvetica;font-weight:normal;font-style:normal;font-size:56px">110</text>
<text x="114.43" y="-774.29" transform="scale(1, -1)"
	style="font-family:Helvetica;font-weight:normal;font-style:normal;font-size:56px">120</text>
<path d="M235.42,177.24L231.42,177.24" style="fill:none;stroke:#000000;stroke-width:1.5" />
<path d="M239.42,299.47L231.42,299.47" style="fill:none;stroke:#000000;stroke-width:1.5" />
<path d="M235.42,421.7L231.42,421.7" style="fill:none;stroke:#000000;stroke-width:1.5" />
<path d="M239.42,543.93L231.42,543.93" style="fill:none;stroke:#000000;stroke-width:1.5" />
<path d="M235.42,666.16L231.42,666.16" style="fill:none;stroke:#000000;stroke-width:1.5" />
<path d="M239.42,788.39L231.42,788.39" style="fill:none;stroke:#000000;stroke-width:1.5" />
<path d="M235.42,910.62L231.42,910.62" style="fill:none;stroke:#000000;stroke-width:1.5" />
<path d="M231.42,177.24L231.42,910.62" style="fill:none;stroke:#000000;stroke-width:1.5" />
<path d="M326.74,291.58A6,6 0 1 1 314.74,291.58A6,6 0 1 1 326.74,291.58Z" style="fill:#1BAA8B" />
<path d="M231.67,910.62L1033.3,910.62" style="fill:none;stroke:#000000" />
<path d="M1033.3,177.24L1033.3,910.62" style="fill:none;stroke:#000000" />
<path d="M231.67,177.24L320.74,291.58" style="fill:none;stroke:#1BAA8B;stroke-width:4;stroke-dasharray:15,5" />
<path d="M231.67,291.58L320.74,291.58" style="fill:none;stroke:#7F7F7F;stroke-dasharray:5,5" />
<path d="M611.76,647.44A6,6 0 1 1 599.76,647.44A6,6 0 1 1 611.76,647.44Z" style="fill:#C96892" />
<path d="M231.67,910.62L1033.3,910.62" style="fill:none;stroke:#000000" />
<path d="M1033.3,177.24L1033.3,910.62" style="fill:none;stroke:#000000" />
<path d="M231.67,177.24L605.76,647.44" style="fill:none;stroke:#C96892;stroke-width:4;stroke-dasharray:15,5" />
<path d="M231.67,647.44L605.76,647.44" style="fill:none;stroke:#7F7F7F;stroke-dasharray:5,5" />
<path d="M932.4,876.15A6,6 0 1 1 920.4,876.15A6,6 0 1 1 932.4,876.15Z" style="fill:#637CC6" />
<path d="M231.67,910.62L1033.3,910.62" style="fill:none;stroke:#000000" />
<path d="M1033.3,177.24L1033.3,910.62" style="fill:none;stroke:#000000" />
<path d="M231.67,177.24L926.4,876.15" style="fill:none;stroke:#637CC6;stroke-width:4;stroke-dasharray:15,5" />
<path d="M231.67,876.15L926.4,876.15" style="fill:none;stroke:#7F7F7F;stroke-dasharray:5,5" />
</g>
</svg>
