<?xml version="1.0"?>
<!-- Generated by SVGo and Plotinum VG -->
<svg width="1080pt" height="1080pt" viewBox="0 0 1080 1080"
	xmlns="http://www.w3.org/2000/svg"
	xmlns:xlink="http://www.w3.org/1999/xlink">
<g transform="scale(1, -1) translate(0, -1080)">
<path d="M0,0L1080,0L1080,1080L0,1080Z" style="fill:#-8000000000000000-8000000000000000-8000000000000000;fill-opacity:0" />
<text x="319.11" y="-1039.5" transform="scale(1, -1)"
	style="font-family:Helvetica;font-weight:normal;font-style:normal;font-size:50px">1 cm UHNA3 CABS</text>
<text x="470.04" y="-11.039" transform="scale(1, -1)"
	style="font-family:Helvetica;font-weight:normal;font-style:normal;font-size:36px">Frequency (GHz)</text>
<text x="404.88" y="-71.258" transform="scale(1, -1)"
	style="font-family:Helvetica;font-weight:normal;font-style:normal;font-size:36px">9</text>
<text x="458.08" y="-71.258" transform="scale(1, -1)"
	style="font-family:Helvetica;font-weight:normal;font-style:normal;font-size:36px">9.07</text>
<text x="536.29" y="-71.258" transform="scale(1, -1)"
	style="font-family:Helvetica;font-weight:normal;font-style:normal;font-size:36px">9.14</text>
<text x="614.51" y="-71.258" transform="scale(1, -1)"
	style="font-family:Helvetica;font-weight:normal;font-style:normal;font-size:36px">9.21</text>
<text x="692.73" y="-71.258" transform="scale(1, -1)"
	style="font-family:Helvetica;font-weight:normal;font-style:normal;font-size:36px">9.28</text>
<path d="M414.89,116.44L414.89,108.44" style="fill:none;stroke:#000000;stroke-width:1.5" />
<path d="M454,112.44L454,108.44" style="fill:none;stroke:#000000;stroke-width:1.5" />
<path d="M493.11,116.44L493.11,108.44" style="fill:none;stroke:#000000;stroke-width:1.5" />
<path d="M532.22,112.44L532.22,108.44" style="fill:none;stroke:#000000;stroke-width:1.5" />
<path d="M571.33,116.44L571.33,108.44" style="fill:none;stroke:#000000;stroke-width:1.5" />
<path d="M610.43,112.44L610.43,108.44" style="fill:none;stroke:#000000;stroke-width:1.5" />
<path d="M649.54,116.44L649.54,108.44" style="fill:none;stroke:#000000;stroke-width:1.5" />
<path d="M688.65,112.44L688.65,108.44" style="fill:none;stroke:#000000;stroke-width:1.5" />
<path d="M727.76,116.44L727.76,108.44" style="fill:none;stroke:#000000;stroke-width:1.5" />
<path d="M141.14,108.44L1075,108.44" style="fill:none;stroke:#000000;stroke-width:1.5" />
<g transform="rotate(90)">
<text x="366.19" y="29.18" transform="scale(1, -1)"
	style="font-family:Helvetica;font-weight:normal;font-style:normal;font-size:36px">Spectral Density (mV)</text>
</g>
<text x="97.871" y="-99.746" transform="scale(1, -1)"
	style="font-family:Helvetica;font-weight:normal;font-style:normal;font-size:36px">0</text>
<text x="87.869" y="-102.2" transform="scale(1, -1)"
	style="font-family:Helvetica;font-weight:normal;font-style:normal;font-size:36px">.5</text>
<text x="97.871" y="-104.65" transform="scale(1, -1)"
	style="font-family:Helvetica;font-weight:normal;font-style:normal;font-size:36px">1</text>
<text x="67.848" y="-107.1" transform="scale(1, -1)"
	style="font-family:Helvetica;font-weight:normal;font-style:normal;font-size:36px">1.5</text>
<text x="97.871" y="-109.55" transform="scale(1, -1)"
	style="font-family:Helvetica;font-weight:normal;font-style:normal;font-size:36px">2</text>
<text x="67.848" y="-112" transform="scale(1, -1)"
	style="font-family:Helvetica;font-weight:normal;font-style:normal;font-size:36px">2.5</text>
<text x="97.871" y="-114.45" transform="scale(1, -1)"
	style="font-family:Helvetica;font-weight:normal;font-style:normal;font-size:36px">3</text>
<path d="M143.89,108.82L135.89,108.82" style="fill:none;stroke:#000000;stroke-width:1.5" />
<path d="M139.89,110.04L135.89,110.04" style="fill:none;stroke:#000000;stroke-width:1.5" />
<path d="M143.89,111.27L135.89,111.27" style="fill:none;stroke:#000000;stroke-width:1.5" />
<path d="M139.89,112.49L135.89,112.49" style="fill:none;stroke:#000000;stroke-width:1.5" />
<path d="M143.89,113.72L135.89,113.72" style="fill:none;stroke:#000000;stroke-width:1.5" />
<path d="M139.89,114.94L135.89,114.94" style="fill:none;stroke:#000000;stroke-width:1.5" />
<path d="M143.89,116.17L135.89,116.17" style="fill:none;stroke:#000000;stroke-width:1.5" />
<path d="M139.89,117.39L135.89,117.39" style="fill:none;stroke:#000000;stroke-width:1.5" />
<path d="M143.89,118.62L135.89,118.62" style="fill:none;stroke:#000000;stroke-width:1.5" />
<path d="M139.89,119.84L135.89,119.84" style="fill:none;stroke:#000000;stroke-width:1.5" />
<path d="M143.89,121.07L135.89,121.07" style="fill:none;stroke:#000000;stroke-width:1.5" />
<path d="M139.89,122.29L135.89,122.29" style="fill:none;stroke:#000000;stroke-width:1.5" />
<path d="M143.89,123.52L135.89,123.52" style="fill:none;stroke:#000000;stroke-width:1.5" />
<path d="M139.89,124.74L135.89,124.74" style="fill:none;stroke:#000000;stroke-width:1.5" />
<path d="M135.89,108.82L135.89,973.64" style="fill:none;stroke:#000000;stroke-width:1.5" />
<path d="M141.14,148.64L141.14,149.25" style="fill:none;stroke:#FF7AB4" />
<path d="M138.64,148.64L143.64,148.64" style="fill:none;stroke:#FF7AB4" />
<path d="M138.64,149.25L143.64,149.25" style="fill:none;stroke:#FF7AB4" />
<path d="M146.74,148.11L146.74,148.65" style="fill:none;stroke:#FF7AB4" />
<path d="M144.24,148.11L149.24,148.11" style="fill:none;stroke:#FF7AB4" />
<path d="M144.24,148.65L149.24,148.65" style="fill:none;stroke:#FF7AB4" />
<path d="M152.33,146.99L152.33,147.79" style="fill:none;stroke:#FF7AB4" />
<path d="M149.83,146.99L154.83,146.99" style="fill:none;stroke:#FF7AB4" />
<path d="M149.83,147.79L154.83,147.79" style="fill:none;stroke:#FF7AB4" />
<path d="M157.92,146.4L157.92,147.4" style="fill:none;stroke:#FF7AB4" />
<path d="M155.42,146.4L160.42,146.4" style="fill:none;stroke:#FF7AB4" />
<path d="M155.42,147.4L160.42,147.4" style="fill:none;stroke:#FF7AB4" />
<path d="M163.51,146.59L163.51,147.24" style="fill:none;stroke:#FF7AB4" />
<path d="M161.01,146.59L166.01,146.59" style="fill:none;stroke:#FF7AB4" />
<path d="M161.01,147.24L166.01,147.24" style="fill:none;stroke:#FF7AB4" />
<path d="M169.1,145.95L169.1,146.86" style="fill:none;stroke:#FF7AB4" />
<path d="M166.6,145.95L171.6,145.95" style="fill:none;stroke:#FF7AB4" />
<path d="M166.6,146.86L171.6,146.86" style="fill:none;stroke:#FF7AB4" />
<path d="M174.7,145.69L174.7,146.29" style="fill:none;stroke:#FF7AB4" />
<path d="M172.2,145.69L177.2,145.69" style="fill:none;stroke:#FF7AB4" />
<path d="M172.2,146.29L177.2,146.29" style="fill:none;stroke:#FF7AB4" />
<path d="M180.29,145.76L180.29,146.41" style="fill:none;stroke:#FF7AB4" />
<path d="M177.79,145.76L182.79,145.76" style="fill:none;stroke:#FF7AB4" />
<path d="M177.79,146.41L182.79,146.41" style="fill:none;stroke:#FF7AB4" />
<path d="M185.88,145.01L185.88,146.19" style="fill:none;stroke:#FF7AB4" />
<path d="M183.38,145.01L188.38,145.01" style="fill:none;stroke:#FF7AB4" />
<path d="M183.38,146.19L188.38,146.19" style="fill:none;stroke:#FF7AB4" />
<path d="M191.47,144.76L191.47,146" style="fill:none;stroke:#FF7AB4" />
<path d="M188.97,144.76L193.97,144.76" style="fill:none;stroke:#FF7AB4" />
<path d="M188.97,146L193.97,146" style="fill:none;stroke:#FF7AB4" />
<path d="M197.06,144.4L197.06,145.36" style="fill:none;stroke:#FF7AB4" />
<path d="M194.56,144.4L199.56,144.4" style="fill:none;stroke:#FF7AB4" />
<path d="M194.56,145.36L199.56,145.36" style="fill:none;stroke:#FF7AB4" />
<path d="M202.66,144.06L202.66,144.75" style="fill:none;stroke:#FF7AB4" />
<path d="M200.16,144.06L205.16,144.06" style="fill:none;stroke:#FF7AB4" />
<path d="M200.16,144.75L205.16,144.75" style="fill:none;stroke:#FF7AB4" />
<path d="M208.25,144.13L208.25,144.62" style="fill:none;stroke:#FF7AB4" />
<path d="M205.75,144.13L210.75,144.13" style="fill:none;stroke:#FF7AB4" />
<path d="M205.75,144.62L210.75,144.62" style="fill:none;stroke:#FF7AB4" />
<path d="M213.84,144.01L213.84,144.69" style="fill:none;stroke:#FF7AB4" />
<path d="M211.34,144.01L216.34,144.01" style="fill:none;stroke:#FF7AB4" />
<path d="M211.34,144.69L216.34,144.69" style="fill:none;stroke:#FF7AB4" />
<path d="M219.43,143.89L219.43,144.58" style="fill:none;stroke:#FF7AB4" />
<path d="M216.93,143.89L221.93,143.89" style="fill:none;stroke:#FF7AB4" />
<path d="M216.93,144.58L221.93,144.58" style="fill:none;stroke:#FF7AB4" />
<path d="M225.02,143.84L225.02,144.49" style="fill:none;stroke:#FF7AB4" />
<path d="M222.52,143.84L227.52,143.84" style="fill:none;stroke:#FF7AB4" />
<path d="M222.52,144.49L227.52,144.49" style="fill:none;stroke:#FF7AB4" />
<path d="M230.62,143.81L230.62,144.7" style="fill:none;stroke:#FF7AB4" />
<path d="M228.12,143.81L233.12,143.81" style="fill:none;stroke:#FF7AB4" />
<path d="M228.12,144.7L233.12,144.7" style="fill:none;stroke:#FF7AB4" />
<path d="M236.21,143.89L236.21,144.76" style="fill:none;stroke:#FF7AB4" />
<path d="M233.71,143.89L238.71,143.89" style="fill:none;stroke:#FF7AB4" />
<path d="M233.71,144.76L238.71,144.76" style="fill:none;stroke:#FF7AB4" />
<path d="M241.8,143.93L241.8,144.48" style="fill:none;stroke:#FF7AB4" />
<path d="M239.3,143.93L244.3,143.93" style="fill:none;stroke:#FF7AB4" />
<path d="M239.3,144.48L244.3,144.48" style="fill:none;stroke:#FF7AB4" />
<path d="M247.39,144.51L247.39,145" style="fill:none;stroke:#FF7AB4" />
<path d="M244.89,144.51L249.89,144.51" style="fill:none;stroke:#FF7AB4" />
<path d="M244.89,145L249.89,145" style="fill:none;stroke:#FF7AB4" />
<path d="M252.98,144.26L252.98,145.05" style="fill:none;stroke:#FF7AB4" />
<path d="M250.48,144.26L255.48,144.26" style="fill:none;stroke:#FF7AB4" />
<path d="M250.48,145.05L255.48,145.05" style="fill:none;stroke:#FF7AB4" />
<path d="M258.58,144.88L258.58,145.59" style="fill:none;stroke:#FF7AB4" />
<path d="M256.08,144.88L261.08,144.88" style="fill:none;stroke:#FF7AB4" />
<path d="M256.08,145.59L261.08,145.59" style="fill:none;stroke:#FF7AB4" />
<path d="M264.17,144.94L264.17,145.99" style="fill:none;stroke:#FF7AB4" />
<path d="M261.67,144.94L266.67,144.94" style="fill:none;stroke:#FF7AB4" />
<path d="M261.67,145.99L266.67,145.99" style="fill:none;stroke:#FF7AB4" />
<path d="M269.76,145.06L269.76,145.77" style="fill:none;stroke:#FF7AB4" />
<path d="M267.26,145.06L272.26,145.06" style="fill:none;stroke:#FF7AB4" />
<path d="M267.26,145.77L272.26,145.77" style="fill:none;stroke:#FF7AB4" />
<path d="M275.35,145.47L275.35,145.92" style="fill:none;stroke:#FF7AB4" />
<path d="M272.85,145.47L277.85,145.47" style="fill:none;stroke:#FF7AB4" />
<path d="M272.85,145.92L277.85,145.92" style="fill:none;stroke:#FF7AB4" />
<path d="M280.94,146.23L280.94,146.57" style="fill:none;stroke:#FF7AB4" />
<path d="M278.44,146.23L283.44,146.23" style="fill:none;stroke:#FF7AB4" />
<path d="M278.44,146.57L283.44,146.57" style="fill:none;stroke:#FF7AB4" />
<path d="M286.54,147.21L286.54,147.69" style="fill:none;stroke:#FF7AB4" />
<path d="M284.04,147.21L289.04,147.21" style="fill:none;stroke:#FF7AB4" />
<path d="M284.04,147.69L289.04,147.69" style="fill:none;stroke:#FF7AB4" />
<path d="M292.13,147.46L292.13,148.7" style="fill:none;stroke:#FF7AB4" />
<path d="M289.63,147.46L294.63,147.46" style="fill:none;stroke:#FF7AB4" />
<path d="M289.63,148.7L294.63,148.7" style="fill:none;stroke:#FF7AB4" />
<path d="M297.72,148.1L297.72,149.26" style="fill:none;stroke:#FF7AB4" />
<path d="M295.22,148.1L300.22,148.1" style="fill:none;stroke:#FF7AB4" />
<path d="M295.22,149.26L300.22,149.26" style="fill:none;stroke:#FF7AB4" />
<path d="M303.31,148.89L303.31,149.92" style="fill:none;stroke:#FF7AB4" />
<path d="M300.81,148.89L305.81,148.89" style="fill:none;stroke:#FF7AB4" />
<path d="M300.81,149.92L305.81,149.92" style="fill:none;stroke:#FF7AB4" />
<path d="M308.9,150.25L308.9,151.11" style="fill:none;stroke:#FF7AB4" />
<path d="M306.4,150.25L311.4,150.25" style="fill:none;stroke:#FF7AB4" />
<path d="M306.4,151.11L311.4,151.11" style="fill:none;stroke:#FF7AB4" />
<path d="M314.49,150.9L314.49,152.08" style="fill:none;stroke:#FF7AB4" />
<path d="M311.99,150.9L316.99,150.9" style="fill:none;stroke:#FF7AB4" />
<path d="M311.99,152.08L316.99,152.08" style="fill:none;stroke:#FF7AB4" />
<path d="M320.09,152.27L320.09,153.17" style="fill:none;stroke:#FF7AB4" />
<path d="M317.59,152.27L322.59,152.27" style="fill:none;stroke:#FF7AB4" />
<path d="M317.59,153.17L322.59,153.17" style="fill:none;stroke:#FF7AB4" />
<path d="M325.68,153.53L325.68,154.11" style="fill:none;stroke:#FF7AB4" />
<path d="M323.18,153.53L328.18,153.53" style="fill:none;stroke:#FF7AB4" />
<path d="M323.18,154.11L328.18,154.11" style="fill:none;stroke:#FF7AB4" />
<path d="M331.27,154.97L331.27,155.68" style="fill:none;stroke:#FF7AB4" />
<path d="M328.77,154.97L333.77,154.97" style="fill:none;stroke:#FF7AB4" />
<path d="M328.77,155.68L333.77,155.68" style="fill:none;stroke:#FF7AB4" />
<path d="M336.86,156.4L336.86,157.28" style="fill:none;stroke:#FF7AB4" />
<path d="M334.36,156.4L339.36,156.4" style="fill:none;stroke:#FF7AB4" />
<path d="M334.36,157.28L339.36,157.28" style="fill:none;stroke:#FF7AB4" />
<path d="M342.45,158.12L342.45,158.85" style="fill:none;stroke:#FF7AB4" />
<path d="M339.95,158.12L344.95,158.12" style="fill:none;stroke:#FF7AB4" />
<path d="M339.95,158.85L344.95,158.85" style="fill:none;stroke:#FF7AB4" />
<path d="M348.05,159.83L348.05,160.29" style="fill:none;stroke:#FF7AB4" />
<path d="M345.55,159.83L350.55,159.83" style="fill:none;stroke:#FF7AB4" />
<path d="M345.55,160.29L350.55,160.29" style="fill:none;stroke:#FF7AB4" />
<path d="M353.64,161.25L353.64,161.8" style="fill:none;stroke:#FF7AB4" />
<path d="M351.14,161.25L356.14,161.25" style="fill:none;stroke:#FF7AB4" />
<path d="M351.14,161.8L356.14,161.8" style="fill:none;stroke:#FF7AB4" />
<path d="M359.23,163.05L359.23,163.76" style="fill:none;stroke:#FF7AB4" />
<path d="M356.73,163.05L361.73,163.05" style="fill:none;stroke:#FF7AB4" />
<path d="M356.73,163.76L361.73,163.76" style="fill:none;stroke:#FF7AB4" />
<path d="M364.82,165.22L364.82,166.06" style="fill:none;stroke:#FF7AB4" />
<path d="M362.32,165.22L367.32,165.22" style="fill:none;stroke:#FF7AB4" />
<path d="M362.32,166.06L367.32,166.06" style="fill:none;stroke:#FF7AB4" />
<path d="M370.41,167.45L370.41,168.54" style="fill:none;stroke:#FF7AB4" />
<path d="M367.91,167.45L372.91,167.45" style="fill:none;stroke:#FF7AB4" />
<path d="M367.91,168.54L372.91,168.54" style="fill:none;stroke:#FF7AB4" />
<path d="M376.01,169.96L376.01,170.67" style="fill:none;stroke:#FF7AB4" />
<path d="M373.51,169.96L378.51,169.96" style="fill:none;stroke:#FF7AB4" />
<path d="M373.51,170.67L378.51,170.67" style="fill:none;stroke:#FF7AB4" />
<path d="M381.6,172.74L381.6,173.36" style="fill:none;stroke:#FF7AB4" />
<path d="M379.1,172.74L384.1,172.74" style="fill:none;stroke:#FF7AB4" />
<path d="M379.1,173.36L384.1,173.36" style="fill:none;stroke:#FF7AB4" />
<path d="M387.19,175.61L387.19,176.43" style="fill:none;stroke:#FF7AB4" />
<path d="M384.69,175.61L389.69,175.61" style="fill:none;stroke:#FF7AB4" />
<path d="M384.69,176.43L389.69,176.43" style="fill:none;stroke:#FF7AB4" />
<path d="M392.78,178.66L392.78,179.74" style="fill:none;stroke:#FF7AB4" />
<path d="M390.28,178.66L395.28,178.66" style="fill:none;stroke:#FF7AB4" />
<path d="M390.28,179.74L395.28,179.74" style="fill:none;stroke:#FF7AB4" />
<path d="M398.37,181.69L398.37,182.8" style="fill:none;stroke:#FF7AB4" />
<path d="M395.87,181.69L400.87,181.69" style="fill:none;stroke:#FF7AB4" />
<path d="M395.87,182.8L400.87,182.8" style="fill:none;stroke:#FF7AB4" />
<path d="M403.97,184.92L403.97,186.02" style="fill:none;stroke:#FF7AB4" />
<path d="M401.47,184.92L406.47,184.92" style="fill:none;stroke:#FF7AB4" />
<path d="M401.47,186.02L406.47,186.02" style="fill:none;stroke:#FF7AB4" />
<path d="M409.56,189.06L409.56,190.38" style="fill:none;stroke:#FF7AB4" />
<path d="M407.06,189.06L412.06,189.06" style="fill:none;stroke:#FF7AB4" />
<path d="M407.06,190.38L412.06,190.38" style="fill:none;stroke:#FF7AB4" />
<path d="M415.15,193.48L415.15,195.07" style="fill:none;stroke:#FF7AB4" />
<path d="M412.65,193.48L417.65,193.48" style="fill:none;stroke:#FF7AB4" />
<path d="M412.65,195.07L417.65,195.07" style="fill:none;stroke:#FF7AB4" />
<path d="M420.74,198.15L420.74,200.14" style="fill:none;stroke:#FF7AB4" />
<path d="M418.24,198.15L423.24,198.15" style="fill:none;stroke:#FF7AB4" />
<path d="M418.24,200.14L423.24,200.14" style="fill:none;stroke:#FF7AB4" />
<path d="M426.33,203.81L426.33,205.82" style="fill:none;stroke:#FF7AB4" />
<path d="M423.83,203.81L428.83,203.81" style="fill:none;stroke:#FF7AB4" />
<path d="M423.83,205.82L428.83,205.82" style="fill:none;stroke:#FF7AB4" />
<path d="M431.93,209.22L431.93,211.64" style="fill:none;stroke:#FF7AB4" />
<path d="M429.43,209.22L434.43,209.22" style="fill:none;stroke:#FF7AB4" />
<path d="M429.43,211.64L434.43,211.64" style="fill:none;stroke:#FF7AB4" />
<path d="M437.52,215.27L437.52,217.47" style="fill:none;stroke:#FF7AB4" />
<path d="M435.02,215.27L440.02,215.27" style="fill:none;stroke:#FF7AB4" />
<path d="M435.02,217.47L440.02,217.47" style="fill:none;stroke:#FF7AB4" />
<path d="M443.11,222.35L443.11,224.1" style="fill:none;stroke:#FF7AB4" />
<path d="M440.61,222.35L445.61,222.35" style="fill:none;stroke:#FF7AB4" />
<path d="M440.61,224.1L445.61,224.1" style="fill:none;stroke:#FF7AB4" />
<path d="M448.7,229.65L448.7,231.02" style="fill:none;stroke:#FF7AB4" />
<path d="M446.2,229.65L451.2,229.65" style="fill:none;stroke:#FF7AB4" />
<path d="M446.2,231.02L451.2,231.02" style="fill:none;stroke:#FF7AB4" />
<path d="M454.29,238.71L454.29,240.17" style="fill:none;stroke:#FF7AB4" />
<path d="M451.79,238.71L456.79,238.71" style="fill:none;stroke:#FF7AB4" />
<path d="M451.79,240.17L456.79,240.17" style="fill:none;stroke:#FF7AB4" />
<path d="M459.89,247.5L459.89,249.44" style="fill:none;stroke:#FF7AB4" />
<path d="M457.39,247.5L462.39,247.5" style="fill:none;stroke:#FF7AB4" />
<path d="M457.39,249.44L462.39,249.44" style="fill:none;stroke:#FF7AB4" />
<path d="M465.48,257.08L465.48,259.43" style="fill:none;stroke:#FF7AB4" />
<path d="M462.98,257.08L467.98,257.08" style="fill:none;stroke:#FF7AB4" />
<path d="M462.98,259.43L467.98,259.43" style="fill:none;stroke:#FF7AB4" />
<path d="M471.07,267.39L471.07,270.09" style="fill:none;stroke:#FF7AB4" />
<path d="M468.57,267.39L473.57,267.39" style="fill:none;stroke:#FF7AB4" />
<path d="M468.57,270.09L473.57,270.09" style="fill:none;stroke:#FF7AB4" />
<path d="M476.66,279.69L476.66,282.26" style="fill:none;stroke:#FF7AB4" />
<path d="M474.16,279.69L479.16,279.69" style="fill:none;stroke:#FF7AB4" />
<path d="M474.16,282.26L479.16,282.26" style="fill:none;stroke:#FF7AB4" />
<path d="M482.25,292.01L482.25,294.75" style="fill:none;stroke:#FF7AB4" />
<path d="M479.75,292.01L484.75,292.01" style="fill:none;stroke:#FF7AB4" />
<path d="M479.75,294.75L484.75,294.75" style="fill:none;stroke:#FF7AB4" />
<path d="M487.85,306.21L487.85,309.07" style="fill:none;stroke:#FF7AB4" />
<path d="M485.35,306.21L490.35,306.21" style="fill:none;stroke:#FF7AB4" />
<path d="M485.35,309.07L490.35,309.07" style="fill:none;stroke:#FF7AB4" />
<path d="M493.44,321.91L493.44,325.17" style="fill:none;stroke:#FF7AB4" />
<path d="M490.94,321.91L495.94,321.91" style="fill:none;stroke:#FF7AB4" />
<path d="M490.94,325.17L495.94,325.17" style="fill:none;stroke:#FF7AB4" />
<path d="M499.03,338.85L499.03,341.49" style="fill:none;stroke:#FF7AB4" />
<path d="M496.53,338.85L501.53,338.85" style="fill:none;stroke:#FF7AB4" />
<path d="M496.53,341.49L501.53,341.49" style="fill:none;stroke:#FF7AB4" />
<path d="M504.62,357.58L504.62,360.75" style="fill:none;stroke:#FF7AB4" />
<path d="M502.12,357.58L507.12,357.58" style="fill:none;stroke:#FF7AB4" />
<path d="M502.12,360.75L507.12,360.75" style="fill:none;stroke:#FF7AB4" />
<path d="M510.21,378.13L510.21,381.6" style="fill:none;stroke:#FF7AB4" />
<path d="M507.71,378.13L512.71,378.13" style="fill:none;stroke:#FF7AB4" />
<path d="M507.71,381.6L512.71,381.6" style="fill:none;stroke:#FF7AB4" />
<path d="M515.81,400.6L515.81,404.24" style="fill:none;stroke:#FF7AB4" />
<path d="M513.31,400.6L518.31,400.6" style="fill:none;stroke:#FF7AB4" />
<path d="M513.31,404.24L518.31,404.24" style="fill:none;stroke:#FF7AB4" />
<path d="M521.4,424.63L521.4,429.25" style="fill:none;stroke:#FF7AB4" />
<path d="M518.9,424.63L523.9,424.63" style="fill:none;stroke:#FF7AB4" />
<path d="M518.9,429.25L523.9,429.25" style="fill:none;stroke:#FF7AB4" />
<path d="M526.99,451.26L526.99,455.85" style="fill:none;stroke:#FF7AB4" />
<path d="M524.49,451.26L529.49,451.26" style="fill:none;stroke:#FF7AB4" />
<path d="M524.49,455.85L529.49,455.85" style="fill:none;stroke:#FF7AB4" />
<path d="M532.58,479.82L532.58,485" style="fill:none;stroke:#FF7AB4" />
<path d="M530.08,479.82L535.08,479.82" style="fill:none;stroke:#FF7AB4" />
<path d="M530.08,485L535.08,485" style="fill:none;stroke:#FF7AB4" />
<path d="M538.17,511.99L538.17,517.29" style="fill:none;stroke:#FF7AB4" />
<path d="M535.67,511.99L540.67,511.99" style="fill:none;stroke:#FF7AB4" />
<path d="M535.67,517.29L540.67,517.29" style="fill:none;stroke:#FF7AB4" />
<path d="M543.76,549.15L543.76,554.63" style="fill:none;stroke:#FF7AB4" />
<path d="M541.26,549.15L546.26,549.15" style="fill:none;stroke:#FF7AB4" />
<path d="M541.26,554.63L546.26,554.63" style="fill:none;stroke:#FF7AB4" />
<path d="M549.36,591.38L549.36,597.96" style="fill:none;stroke:#FF7AB4" />
<path d="M546.86,591.38L551.86,591.38" style="fill:none;stroke:#FF7AB4" />
<path d="M546.86,597.96L551.86,597.96" style="fill:none;stroke:#FF7AB4" />
<path d="M554.95,636.33L554.95,642.49" style="fill:none;stroke:#FF7AB4" />
<path d="M552.45,636.33L557.45,636.33" style="fill:none;stroke:#FF7AB4" />
<path d="M552.45,642.49L557.45,642.49" style="fill:none;stroke:#FF7AB4" />
<path d="M560.54,686.12L560.54,693.58" style="fill:none;stroke:#FF7AB4" />
<path d="M558.04,686.12L563.04,686.12" style="fill:none;stroke:#FF7AB4" />
<path d="M558.04,693.58L563.04,693.58" style="fill:none;stroke:#FF7AB4" />
<path d="M566.13,740.09L566.13,748.3" style="fill:none;stroke:#FF7AB4" />
<path d="M563.63,740.09L568.63,740.09" style="fill:none;stroke:#FF7AB4" />
<path d="M563.63,748.3L568.63,748.3" style="fill:none;stroke:#FF7AB4" />
<path d="M571.72,798.55L571.72,806.12" style="fill:none;stroke:#FF7AB4" />
<path d="M569.22,798.55L574.22,798.55" style="fill:none;stroke:#FF7AB4" />
<path d="M569.22,806.12L574.22,806.12" style="fill:none;stroke:#FF7AB4" />
<path d="M577.32,855.25L577.32,864.05" style="fill:none;stroke:#FF7AB4" />
<path d="M574.82,855.25L579.82,855.25" style="fill:none;stroke:#FF7AB4" />
<path d="M574.82,864.05L579.82,864.05" style="fill:none;stroke:#FF7AB4" />
<path d="M582.91,907.95L582.91,919.26" style="fill:none;stroke:#FF7AB4" />
<path d="M580.41,907.95L585.41,907.95" style="fill:none;stroke:#FF7AB4" />
<path d="M580.41,919.26L585.41,919.26" style="fill:none;stroke:#FF7AB4" />
<path d="M588.5,949.99L588.5,959.35" style="fill:none;stroke:#FF7AB4" />
<path d="M586,949.99L591,949.99" style="fill:none;stroke:#FF7AB4" />
<path d="M586,959.35L591,959.35" style="fill:none;stroke:#FF7AB4" />
<path d="M594.09,964.58L594.09,973.64" style="fill:none;stroke:#FF7AB4" />
<path d="M591.59,964.58L596.59,964.58" style="fill:none;stroke:#FF7AB4" />
<path d="M591.59,973.64L596.59,973.64" style="fill:none;stroke:#FF7AB4" />
<path d="M599.68,946.74L599.68,957.28" style="fill:none;stroke:#FF7AB4" />
<path d="M597.18,946.74L602.18,946.74" style="fill:none;stroke:#FF7AB4" />
<path d="M597.18,957.28L602.18,957.28" style="fill:none;stroke:#FF7AB4" />
<path d="M605.28,897.92L605.28,907.5" style="fill:none;stroke:#FF7AB4" />
<path d="M602.78,897.92L607.78,897.92" style="fill:none;stroke:#FF7AB4" />
<path d="M602.78,907.5L607.78,907.5" style="fill:none;stroke:#FF7AB4" />
<path d="M610.87,830.24L610.87,839.62" style="fill:none;stroke:#FF7AB4" />
<path d="M608.37,830.24L613.37,830.24" style="fill:none;stroke:#FF7AB4" />
<path d="M608.37,839.62L613.37,839.62" style="fill:none;stroke:#FF7AB4" />
<path d="M616.46,754.44L616.46,763.3" style="fill:none;stroke:#FF7AB4" />
<path d="M613.96,754.44L618.96,754.44" style="fill:none;stroke:#FF7AB4" />
<path d="M613.96,763.3L618.96,763.3" style="fill:none;stroke:#FF7AB4" />
<path d="M622.05,680.03L622.05,687.87" style="fill:none;stroke:#FF7AB4" />
<path d="M619.55,680.03L624.55,680.03" style="fill:none;stroke:#FF7AB4" />
<path d="M619.55,687.87L624.55,687.87" style="fill:none;stroke:#FF7AB4" />
<path d="M627.64,613.7L627.64,620.12" style="fill:none;stroke:#FF7AB4" />
<path d="M625.14,613.7L630.14,613.7" style="fill:none;stroke:#FF7AB4" />
<path d="M625.14,620.12L630.14,620.12" style="fill:none;stroke:#FF7AB4" />
<path d="M633.24,552.54L633.24,558.3" style="fill:none;stroke:#FF7AB4" />
<path d="M630.74,552.54L635.74,552.54" style="fill:none;stroke:#FF7AB4" />
<path d="M630.74,558.3L635.74,558.3" style="fill:none;stroke:#FF7AB4" />
<path d="M638.83,499.81L638.83,503.51" style="fill:none;stroke:#FF7AB4" />
<path d="M636.33,499.81L641.33,499.81" style="fill:none;stroke:#FF7AB4" />
<path d="M636.33,503.51L641.33,503.51" style="fill:none;stroke:#FF7AB4" />
<path d="M644.42,454.62L644.42,456.53" style="fill:none;stroke:#FF7AB4" />
<path d="M641.92,454.62L646.92,454.62" style="fill:none;stroke:#FF7AB4" />
<path d="M641.92,456.53L646.92,456.53" style="fill:none;stroke:#FF7AB4" />
<path d="M650.01,414.48L650.01,416.5" style="fill:none;stroke:#FF7AB4" />
<path d="M647.51,414.48L652.51,414.48" style="fill:none;stroke:#FF7AB4" />
<path d="M647.51,416.5L652.51,416.5" style="fill:none;stroke:#FF7AB4" />
<path d="M655.6,378.09L655.6,381.92" style="fill:none;stroke:#FF7AB4" />
<path d="M653.1,378.09L658.1,378.09" style="fill:none;stroke:#FF7AB4" />
<path d="M653.1,381.92L658.1,381.92" style="fill:none;stroke:#FF7AB4" />
<path d="M661.2,348.19L661.2,351.82" style="fill:none;stroke:#FF7AB4" />
<path d="M658.7,348.19L663.7,348.19" style="fill:none;stroke:#FF7AB4" />
<path d="M658.7,351.82L663.7,351.82" style="fill:none;stroke:#FF7AB4" />
<path d="M666.79,323.2L666.79,326.36" style="fill:none;stroke:#FF7AB4" />
<path d="M664.29,323.2L669.29,323.2" style="fill:none;stroke:#FF7AB4" />
<path d="M664.29,326.36L669.29,326.36" style="fill:none;stroke:#FF7AB4" />
<path d="M672.38,301.68L672.38,304.57" style="fill:none;stroke:#FF7AB4" />
<path d="M669.88,301.68L674.88,301.68" style="fill:none;stroke:#FF7AB4" />
<path d="M669.88,304.57L674.88,304.57" style="fill:none;stroke:#FF7AB4" />
<path d="M677.97,282.87L677.97,285.79" style="fill:none;stroke:#FF7AB4" />
<path d="M675.47,282.87L680.47,282.87" style="fill:none;stroke:#FF7AB4" />
<path d="M675.47,285.79L680.47,285.79" style="fill:none;stroke:#FF7AB4" />
<path d="M683.56,265.84L683.56,268.33" style="fill:none;stroke:#FF7AB4" />
<path d="M681.06,265.84L686.06,265.84" style="fill:none;stroke:#FF7AB4" />
<path d="M681.06,268.33L686.06,268.33" style="fill:none;stroke:#FF7AB4" />
<path d="M689.16,251.03L689.16,253.78" style="fill:none;stroke:#FF7AB4" />
<path d="M686.66,251.03L691.66,251.03" style="fill:none;stroke:#FF7AB4" />
<path d="M686.66,253.78L691.66,253.78" style="fill:none;stroke:#FF7AB4" />
<path d="M694.75,238.59L694.75,240.91" style="fill:none;stroke:#FF7AB4" />
<path d="M692.25,238.59L697.25,238.59" style="fill:none;stroke:#FF7AB4" />
<path d="M692.25,240.91L697.25,240.91" style="fill:none;stroke:#FF7AB4" />
<path d="M700.34,227.89L700.34,230.21" style="fill:none;stroke:#FF7AB4" />
<path d="M697.84,227.89L702.84,227.89" style="fill:none;stroke:#FF7AB4" />
<path d="M697.84,230.21L702.84,230.21" style="fill:none;stroke:#FF7AB4" />
<path d="M705.93,218.85L705.93,220.7" style="fill:none;stroke:#FF7AB4" />
<path d="M703.43,218.85L708.43,218.85" style="fill:none;stroke:#FF7AB4" />
<path d="M703.43,220.7L708.43,220.7" style="fill:none;stroke:#FF7AB4" />
<path d="M711.52,210.5L711.52,211.83" style="fill:none;stroke:#FF7AB4" />
<path d="M709.02,210.5L714.02,210.5" style="fill:none;stroke:#FF7AB4" />
<path d="M709.02,211.83L714.02,211.83" style="fill:none;stroke:#FF7AB4" />
<path d="M717.12,202.37L717.12,203.33" style="fill:none;stroke:#FF7AB4" />
<path d="M714.62,202.37L719.62,202.37" style="fill:none;stroke:#FF7AB4" />
<path d="M714.62,203.33L719.62,203.33" style="fill:none;stroke:#FF7AB4" />
<path d="M722.71,195.93L722.71,196.95" style="fill:none;stroke:#FF7AB4" />
<path d="M720.21,195.93L725.21,195.93" style="fill:none;stroke:#FF7AB4" />
<path d="M720.21,196.95L725.21,196.95" style="fill:none;stroke:#FF7AB4" />
<path d="M728.3,190.83L728.3,191.43" style="fill:none;stroke:#FF7AB4" />
<path d="M725.8,190.83L730.8,190.83" style="fill:none;stroke:#FF7AB4" />
<path d="M725.8,191.43L730.8,191.43" style="fill:none;stroke:#FF7AB4" />
<path d="M733.89,185.44L733.89,186.28" style="fill:none;stroke:#FF7AB4" />
<path d="M731.39,185.44L736.39,185.44" style="fill:none;stroke:#FF7AB4" />
<path d="M731.39,186.28L736.39,186.28" style="fill:none;stroke:#FF7AB4" />
<path d="M739.48,180.93L739.48,181.74" style="fill:none;stroke:#FF7AB4" />
<path d="M736.98,180.93L741.98,180.93" style="fill:none;stroke:#FF7AB4" />
<path d="M736.98,181.74L741.98,181.74" style="fill:none;stroke:#FF7AB4" />
<path d="M745.08,176.52L745.08,177.48" style="fill:none;stroke:#FF7AB4" />
<path d="M742.58,176.52L747.58,176.52" style="fill:none;stroke:#FF7AB4" />
<path d="M742.58,177.48L747.58,177.48" style="fill:none;stroke:#FF7AB4" />
<path d="M750.67,172.3L750.67,173.33" style="fill:none;stroke:#FF7AB4" />
<path d="M748.17,172.3L753.17,172.3" style="fill:none;stroke:#FF7AB4" />
<path d="M748.17,173.33L753.17,173.33" style="fill:none;stroke:#FF7AB4" />
<path d="M756.26,168.68L756.26,169.83" style="fill:none;stroke:#FF7AB4" />
<path d="M753.76,168.68L758.76,168.68" style="fill:none;stroke:#FF7AB4" />
<path d="M753.76,169.83L758.76,169.83" style="fill:none;stroke:#FF7AB4" />
<path d="M761.85,165.89L761.85,167.08" style="fill:none;stroke:#FF7AB4" />
<path d="M759.35,165.89L764.35,165.89" style="fill:none;stroke:#FF7AB4" />
<path d="M759.35,167.08L764.35,167.08" style="fill:none;stroke:#FF7AB4" />
<path d="M767.44,163.13L767.44,164.35" style="fill:none;stroke:#FF7AB4" />
<path d="M764.94,163.13L769.94,163.13" style="fill:none;stroke:#FF7AB4" />
<path d="M764.94,164.35L769.94,164.35" style="fill:none;stroke:#FF7AB4" />
<path d="M773.03,160.53L773.03,161.56" style="fill:none;stroke:#FF7AB4" />
<path d="M770.53,160.53L775.53,160.53" style="fill:none;stroke:#FF7AB4" />
<path d="M770.53,161.56L775.53,161.56" style="fill:none;stroke:#FF7AB4" />
<path d="M778.63,157.96L778.63,158.77" style="fill:none;stroke:#FF7AB4" />
<path d="M776.13,157.96L781.13,157.96" style="fill:none;stroke:#FF7AB4" />
<path d="M776.13,158.77L781.13,158.77" style="fill:none;stroke:#FF7AB4" />
<path d="M784.22,156.05L784.22,156.64" style="fill:none;stroke:#FF7AB4" />
<path d="M781.72,156.05L786.72,156.05" style="fill:none;stroke:#FF7AB4" />
<path d="M781.72,156.64L786.72,156.64" style="fill:none;stroke:#FF7AB4" />
<path d="M789.81,154.3L789.81,154.79" style="fill:none;stroke:#FF7AB4" />
<path d="M787.31,154.3L792.31,154.3" style="fill:none;stroke:#FF7AB4" />
<path d="M787.31,154.79L792.31,154.79" style="fill:none;stroke:#FF7AB4" />
<path d="M795.4,152.54L795.4,153.08" style="fill:none;stroke:#FF7AB4" />
<path d="M792.9,152.54L797.9,152.54" style="fill:none;stroke:#FF7AB4" />
<path d="M792.9,153.08L797.9,153.08" style="fill:none;stroke:#FF7AB4" />
<path d="M800.99,150.51L800.99,151.29" style="fill:none;stroke:#FF7AB4" />
<path d="M798.49,150.51L803.49,150.51" style="fill:none;stroke:#FF7AB4" />
<path d="M798.49,151.29L803.49,151.29" style="fill:none;stroke:#FF7AB4" />
<path d="M806.59,148.84L806.59,150.06" style="fill:none;stroke:#FF7AB4" />
<path d="M804.09,148.84L809.09,148.84" style="fill:none;stroke:#FF7AB4" />
<path d="M804.09,150.06L809.09,150.06" style="fill:none;stroke:#FF7AB4" />
<path d="M812.18,147.4L812.18,148.19" style="fill:none;stroke:#FF7AB4" />
<path d="M809.68,147.4L814.68,147.4" style="fill:none;stroke:#FF7AB4" />
<path d="M809.68,148.19L814.68,148.19" style="fill:none;stroke:#FF7AB4" />
<path d="M817.77,145.86L817.77,146.74" style="fill:none;stroke:#FF7AB4" />
<path d="M815.27,145.86L820.27,145.86" style="fill:none;stroke:#FF7AB4" />
<path d="M815.27,146.74L820.27,146.74" style="fill:none;stroke:#FF7AB4" />
<path d="M823.36,144.14L823.36,144.97" style="fill:none;stroke:#FF7AB4" />
<path d="M820.86,144.14L825.86,144.14" style="fill:none;stroke:#FF7AB4" />
<path d="M820.86,144.97L825.86,144.97" style="fill:none;stroke:#FF7AB4" />
<path d="M828.95,143.35L828.95,144.48" style="fill:none;stroke:#FF7AB4" />
<path d="M826.45,143.35L831.45,143.35" style="fill:none;stroke:#FF7AB4" />
<path d="M826.45,144.48L831.45,144.48" style="fill:none;stroke:#FF7AB4" />
<path d="M834.55,142.38L834.55,143.66" style="fill:none;stroke:#FF7AB4" />
<path d="M832.05,142.38L837.05,142.38" style="fill:none;stroke:#FF7AB4" />
<path d="M832.05,143.66L837.05,143.66" style="fill:none;stroke:#FF7AB4" />
<path d="M840.14,142.02L840.14,142.8" style="fill:none;stroke:#FF7AB4" />
<path d="M837.64,142.02L842.64,142.02" style="fill:none;stroke:#FF7AB4" />
<path d="M837.64,142.8L842.64,142.8" style="fill:none;stroke:#FF7AB4" />
<path d="M845.73,141.58L845.73,141.69" style="fill:none;stroke:#FF7AB4" />
<path d="M843.23,141.58L848.23,141.58" style="fill:none;stroke:#FF7AB4" />
<path d="M843.23,141.69L848.23,141.69" style="fill:none;stroke:#FF7AB4" />
<path d="M851.32,140.73L851.32,141.06" style="fill:none;stroke:#FF7AB4" />
<path d="M848.82,140.73L853.82,140.73" style="fill:none;stroke:#FF7AB4" />
<path d="M848.82,141.06L853.82,141.06" style="fill:none;stroke:#FF7AB4" />
<path d="M856.91,139.38L856.91,139.84" style="fill:none;stroke:#FF7AB4" />
<path d="M854.41,139.38L859.41,139.38" style="fill:none;stroke:#FF7AB4" />
<path d="M854.41,139.84L859.41,139.84" style="fill:none;stroke:#FF7AB4" />
<path d="M862.51,137.77L862.51,138.55" style="fill:none;stroke:#FF7AB4" />
<path d="M860.01,137.77L865.01,137.77" style="fill:none;stroke:#FF7AB4" />
<path d="M860.01,138.55L865.01,138.55" style="fill:none;stroke:#FF7AB4" />
<path d="M868.1,136.63L868.1,137.91" style="fill:none;stroke:#FF7AB4" />
<path d="M865.6,136.63L870.6,136.63" style="fill:none;stroke:#FF7AB4" />
<path d="M865.6,137.91L870.6,137.91" style="fill:none;stroke:#FF7AB4" />
<path d="M873.69,136.08L873.69,137.74" style="fill:none;stroke:#FF7AB4" />
<path d="M871.19,136.08L876.19,136.08" style="fill:none;stroke:#FF7AB4" />
<path d="M871.19,137.74L876.19,137.74" style="fill:none;stroke:#FF7AB4" />
<path d="M879.28,136.2L879.28,137.69" style="fill:none;stroke:#FF7AB4" />
<path d="M876.78,136.2L881.78,136.2" style="fill:none;stroke:#FF7AB4" />
<path d="M876.78,137.69L881.78,137.69" style="fill:none;stroke:#FF7AB4" />
<path d="M884.87,136.19L884.87,137.14" style="fill:none;stroke:#FF7AB4" />
<path d="M882.37,136.19L887.37,136.19" style="fill:none;stroke:#FF7AB4" />
<path d="M882.37,137.14L887.37,137.14" style="fill:none;stroke:#FF7AB4" />
<path d="M890.47,135.84L890.47,136.09" style="fill:none;stroke:#FF7AB4" />
<path d="M887.97,135.84L892.97,135.84" style="fill:none;stroke:#FF7AB4" />
<path d="M887.97,136.09L892.97,136.09" style="fill:none;stroke:#FF7AB4" />
<path d="M896.06,134.91L896.06,135.4" style="fill:none;stroke:#FF7AB4" />
<path d="M893.56,134.91L898.56,134.91" style="fill:none;stroke:#FF7AB4" />
<path d="M893.56,135.4L898.56,135.4" style="fill:none;stroke:#FF7AB4" />
<path d="M901.65,134.19L901.65,135.04" style="fill:none;stroke:#FF7AB4" />
<path d="M899.15,134.19L904.15,134.19" style="fill:none;stroke:#FF7AB4" />
<path d="M899.15,135.04L904.15,135.04" style="fill:none;stroke:#FF7AB4" />
<path d="M907.24,134.01L907.24,134.78" style="fill:none;stroke:#FF7AB4" />
<path d="M904.74,134.01L909.74,134.01" style="fill:none;stroke:#FF7AB4" />
<path d="M904.74,134.78L909.74,134.78" style="fill:none;stroke:#FF7AB4" />
<path d="M912.83,133.91L912.83,134.56" style="fill:none;stroke:#FF7AB4" />
<path d="M910.33,133.91L915.33,133.91" style="fill:none;stroke:#FF7AB4" />
<path d="M910.33,134.56L915.33,134.56" style="fill:none;stroke:#FF7AB4" />
<path d="M918.43,133.49L918.43,134.26" style="fill:none;stroke:#FF7AB4" />
<path d="M915.93,133.49L920.93,133.49" style="fill:none;stroke:#FF7AB4" />
<path d="M915.93,134.26L920.93,134.26" style="fill:none;stroke:#FF7AB4" />
<path d="M924.02,133.64L924.02,134.24" style="fill:none;stroke:#FF7AB4" />
<path d="M921.52,133.64L926.52,133.64" style="fill:none;stroke:#FF7AB4" />
<path d="M921.52,134.24L926.52,134.24" style="fill:none;stroke:#FF7AB4" />
<path d="M929.61,132.65L929.61,133.67" style="fill:none;stroke:#FF7AB4" />
<path d="M927.11,132.65L932.11,132.65" style="fill:none;stroke:#FF7AB4" />
<path d="M927.11,133.67L932.11,133.67" style="fill:none;stroke:#FF7AB4" />
<path d="M935.2,132.79L935.2,134.08" style="fill:none;stroke:#FF7AB4" />
<path d="M932.7,132.79L937.7,132.79" style="fill:none;stroke:#FF7AB4" />
<path d="M932.7,134.08L937.7,134.08" style="fill:none;stroke:#FF7AB4" />
<path d="M940.79,132.85L940.79,134.1" style="fill:none;stroke:#FF7AB4" />
<path d="M938.29,132.85L943.29,132.85" style="fill:none;stroke:#FF7AB4" />
<path d="M938.29,134.1L943.29,134.1" style="fill:none;stroke:#FF7AB4" />
<path d="M946.39,133.47L946.39,134.42" style="fill:none;stroke:#FF7AB4" />
<path d="M943.89,133.47L948.89,133.47" style="fill:none;stroke:#FF7AB4" />
<path d="M943.89,134.42L948.89,134.42" style="fill:none;stroke:#FF7AB4" />
<path d="M951.98,134.01L951.98,134.32" style="fill:none;stroke:#FF7AB4" />
<path d="M949.48,134.01L954.48,134.01" style="fill:none;stroke:#FF7AB4" />
<path d="M949.48,134.32L954.48,134.32" style="fill:none;stroke:#FF7AB4" />
<path d="M957.57,133.82L957.57,134.28" style="fill:none;stroke:#FF7AB4" />
<path d="M955.07,133.82L960.07,133.82" style="fill:none;stroke:#FF7AB4" />
<path d="M955.07,134.28L960.07,134.28" style="fill:none;stroke:#FF7AB4" />
<path d="M963.16,133.37L963.16,134.23" style="fill:none;stroke:#FF7AB4" />
<path d="M960.66,133.37L965.66,133.37" style="fill:none;stroke:#FF7AB4" />
<path d="M960.66,134.23L965.66,134.23" style="fill:none;stroke:#FF7AB4" />
<path d="M968.75,133.22L968.75,134.5" style="fill:none;stroke:#FF7AB4" />
<path d="M966.25,133.22L971.25,133.22" style="fill:none;stroke:#FF7AB4" />
<path d="M966.25,134.5L971.25,134.5" style="fill:none;stroke:#FF7AB4" />
<path d="M974.34,132.99L974.34,134.39" style="fill:none;stroke:#FF7AB4" />
<path d="M971.84,132.99L976.84,132.99" style="fill:none;stroke:#FF7AB4" />
<path d="M971.84,134.39L976.84,134.39" style="fill:none;stroke:#FF7AB4" />
<path d="M979.94,132.51L979.94,133.85" style="fill:none;stroke:#FF7AB4" />
<path d="M977.44,132.51L982.44,132.51" style="fill:none;stroke:#FF7AB4" />
<path d="M977.44,133.85L982.44,133.85" style="fill:none;stroke:#FF7AB4" />
<path d="M985.53,132.86L985.53,134.35" style="fill:none;stroke:#FF7AB4" />
<path d="M983.03,132.86L988.03,132.86" style="fill:none;stroke:#FF7AB4" />
<path d="M983.03,134.35L988.03,134.35" style="fill:none;stroke:#FF7AB4" />
<path d="M991.12,133.1L991.12,134.28" style="fill:none;stroke:#FF7AB4" />
<path d="M988.62,133.1L993.62,133.1" style="fill:none;stroke:#FF7AB4" />
<path d="M988.62,134.28L993.62,134.28" style="fill:none;stroke:#FF7AB4" />
<path d="M996.71,133.59L996.71,134.36" style="fill:none;stroke:#FF7AB4" />
<path d="M994.21,133.59L999.21,133.59" style="fill:none;stroke:#FF7AB4" />
<path d="M994.21,134.36L999.21,134.36" style="fill:none;stroke:#FF7AB4" />
<path d="M1002.3,133.15L1002.3,134.57" style="fill:none;stroke:#FF7AB4" />
<path d="M999.8,133.15L1004.8,133.15" style="fill:none;stroke:#FF7AB4" />
<path d="M999.8,134.57L1004.8,134.57" style="fill:none;stroke:#FF7AB4" />
<path d="M1007.9,132.74L1007.9,133.89" style="fill:none;stroke:#FF7AB4" />
<path d="M1005.4,132.74L1010.4,132.74" style="fill:none;stroke:#FF7AB4" />
<path d="M1005.4,133.89L1010.4,133.89" style="fill:none;stroke:#FF7AB4" />
<path d="M1013.5,131.71L1013.5,133.17" style="fill:none;stroke:#FF7AB4" />
<path d="M1011,131.71L1016,131.71" style="fill:none;stroke:#FF7AB4" />
<path d="M1011,133.17L1016,133.17" style="fill:none;stroke:#FF7AB4" />
<path d="M1019.1,131.07L1019.1,132.92" style="fill:none;stroke:#FF7AB4" />
<path d="M1016.6,131.07L1021.6,131.07" style="fill:none;stroke:#FF7AB4" />
<path d="M1016.6,132.92L1021.6,132.92" style="fill:none;stroke:#FF7AB4" />
<path d="M1024.7,131.07L1024.7,133.13" style="fill:none;stroke:#FF7AB4" />
<path d="M1022.2,131.07L1027.2,131.07" style="fill:none;stroke:#FF7AB4" />
<path d="M1022.2,133.13L1027.2,133.13" style="fill:none;stroke:#FF7AB4" />
<path d="M1030.3,131.29L1030.3,132.94" style="fill:none;stroke:#FF7AB4" />
<path d="M1027.8,131.29L1032.8,131.29" style="fill:none;stroke:#FF7AB4" />
<path d="M1027.8,132.94L1032.8,132.94" style="fill:none;stroke:#FF7AB4" />
<path d="M1035.9,131.78L1035.9,132.7" style="fill:none;stroke:#FF7AB4" />
<path d="M1033.4,131.78L1038.4,131.78" style="fill:none;stroke:#FF7AB4" />
<path d="M1033.4,132.7L1038.4,132.7" style="fill:none;stroke:#FF7AB4" />
<path d="M1041.4,131.23L1041.4,131.55" style="fill:none;stroke:#FF7AB4" />
<path d="M1038.9,131.23L1043.9,131.23" style="fill:none;stroke:#FF7AB4" />
<path d="M1038.9,131.55L1043.9,131.55" style="fill:none;stroke:#FF7AB4" />
<path d="M1047,129.07L1047,129.82" style="fill:none;stroke:#FF7AB4" />
<path d="M1044.5,129.07L1049.5,129.07" style="fill:none;stroke:#FF7AB4" />
<path d="M1044.5,129.82L1049.5,129.82" style="fill:none;stroke:#FF7AB4" />
<path d="M1052.6,128.32L1052.6,130.23" style="fill:none;stroke:#FF7AB4" />
<path d="M1050.1,128.32L1055.1,128.32" style="fill:none;stroke:#FF7AB4" />
<path d="M1050.1,130.23L1055.1,130.23" style="fill:none;stroke:#FF7AB4" />
<path d="M1058.2,127.94L1058.2,129.61" style="fill:none;stroke:#FF7AB4" />
<path d="M1055.7,127.94L1060.7,127.94" style="fill:none;stroke:#FF7AB4" />
<path d="M1055.7,129.61L1060.7,129.61" style="fill:none;stroke:#FF7AB4" />
<path d="M1063.8,127.46L1063.8,128.93" style="fill:none;stroke:#FF7AB4" />
<path d="M1061.3,127.46L1066.3,127.46" style="fill:none;stroke:#FF7AB4" />
<path d="M1061.3,128.93L1066.3,128.93" style="fill:none;stroke:#FF7AB4" />
<path d="M1069.4,127.54L1069.4,128.74" style="fill:none;stroke:#FF7AB4" />
<path d="M1066.9,127.54L1071.9,127.54" style="fill:none;stroke:#FF7AB4" />
<path d="M1066.9,128.74L1071.9,128.74" style="fill:none;stroke:#FF7AB4" />
<path d="M1075,126.59L1075,127.58" style="fill:none;stroke:#FF7AB4" />
<path d="M1072.5,126.59L1077.5,126.59" style="fill:none;stroke:#FF7AB4" />
<path d="M1072.5,127.58L1077.5,127.58" style="fill:none;stroke:#FF7AB4" />
<path d="M146.14,148.94A5,5 0 1 1 136.14,148.94A5,5 0 1 1 146.14,148.94Z" style="fill:#FF7AB4" />
<path d="M151.74,148.38A5,5 0 1 1 141.74,148.38A5,5 0 1 1 151.74,148.38Z" style="fill:#FF7AB4" />
<path d="M157.33,147.39A5,5 0 1 1 147.33,147.39A5,5 0 1 1 157.33,147.39Z" style="fill:#FF7AB4" />
<path d="M162.92,146.9A5,5 0 1 1 152.92,146.9A5,5 0 1 1 162.92,146.9Z" style="fill:#FF7AB4" />
<path d="M168.51,146.91A5,5 0 1 1 158.51,146.91A5,5 0 1 1 168.51,146.91Z" style="fill:#FF7AB4" />
<path d="M174.1,146.41A5,5 0 1 1 164.1,146.41A5,5 0 1 1 174.1,146.41Z" style="fill:#FF7AB4" />
<path d="M179.7,145.99A5,5 0 1 1 169.7,145.99A5,5 0 1 1 179.7,145.99Z" style="fill:#FF7AB4" />
<path d="M185.29,146.09A5,5 0 1 1 175.29,146.09A5,5 0 1 1 185.29,146.09Z" style="fill:#FF7AB4" />
<path d="M190.88,145.6A5,5 0 1 1 180.88,145.6A5,5 0 1 1 190.88,145.6Z" style="fill:#FF7AB4" />
<path d="M196.47,145.38A5,5 0 1 1 186.47,145.38A5,5 0 1 1 196.47,145.38Z" style="fill:#FF7AB4" />
<path d="M202.06,144.88A5,5 0 1 1 192.06,144.88A5,5 0 1 1 202.06,144.88Z" style="fill:#FF7AB4" />
<path d="M207.66,144.41A5,5 0 1 1 197.66,144.41A5,5 0 1 1 207.66,144.41Z" style="fill:#FF7AB4" />
<path d="M213.25,144.37A5,5 0 1 1 203.25,144.37A5,5 0 1 1 213.25,144.37Z" style="fill:#FF7AB4" />
<path d="M218.84,144.35A5,5 0 1 1 208.84,144.35A5,5 0 1 1 218.84,144.35Z" style="fill:#FF7AB4" />
<path d="M224.43,144.24A5,5 0 1 1 214.43,144.24A5,5 0 1 1 224.43,144.24Z" style="fill:#FF7AB4" />
<path d="M230.02,144.16A5,5 0 1 1 220.02,144.16A5,5 0 1 1 230.02,144.16Z" style="fill:#FF7AB4" />
<path d="M235.62,144.25A5,5 0 1 1 225.62,144.25A5,5 0 1 1 235.62,144.25Z" style="fill:#FF7AB4" />
<path d="M241.21,144.33A5,5 0 1 1 231.21,144.33A5,5 0 1 1 241.21,144.33Z" style="fill:#FF7AB4" />
<path d="M246.8,144.21A5,5 0 1 1 236.8,144.21A5,5 0 1 1 246.8,144.21Z" style="fill:#FF7AB4" />
<path d="M252.39,144.75A5,5 0 1 1 242.39,144.75A5,5 0 1 1 252.39,144.75Z" style="fill:#FF7AB4" />
<path d="M257.98,144.65A5,5 0 1 1 247.98,144.65A5,5 0 1 1 257.98,144.65Z" style="fill:#FF7AB4" />
<path d="M263.58,145.23A5,5 0 1 1 253.58,145.23A5,5 0 1 1 263.58,145.23Z" style="fill:#FF7AB4" />
<path d="M269.17,145.47A5,5 0 1 1 259.17,145.47A5,5 0 1 1 269.17,145.47Z" style="fill:#FF7AB4" />
<path d="M274.76,145.42A5,5 0 1 1 264.76,145.42A5,5 0 1 1 274.76,145.42Z" style="fill:#FF7AB4" />
<path d="M280.35,145.7A5,5 0 1 1 270.35,145.7A5,5 0 1 1 280.35,145.7Z" style="fill:#FF7AB4" />
<path d="M285.94,146.4A5,5 0 1 1 275.94,146.4A5,5 0 1 1 285.94,146.4Z" style="fill:#FF7AB4" />
<path d="M291.54,147.45A5,5 0 1 1 281.54,147.45A5,5 0 1 1 291.54,147.45Z" style="fill:#FF7AB4" />
<path d="M297.13,148.08A5,5 0 1 1 287.13,148.08A5,5 0 1 1 297.13,148.08Z" style="fill:#FF7AB4" />
<path d="M302.72,148.68A5,5 0 1 1 292.72,148.68A5,5 0 1 1 302.72,148.68Z" style="fill:#FF7AB4" />
<path d="M308.31,149.41A5,5 0 1 1 298.31,149.41A5,5 0 1 1 308.31,149.41Z" style="fill:#FF7AB4" />
<path d="M313.9,150.68A5,5 0 1 1 303.9,150.68A5,5 0 1 1 313.9,150.68Z" style="fill:#FF7AB4" />
<path d="M319.49,151.49A5,5 0 1 1 309.49,151.49A5,5 0 1 1 319.49,151.49Z" style="fill:#FF7AB4" />
<path d="M325.09,152.72A5,5 0 1 1 315.09,152.72A5,5 0 1 1 325.09,152.72Z" style="fill:#FF7AB4" />
<path d="M330.68,153.82A5,5 0 1 1 320.68,153.82A5,5 0 1 1 330.68,153.82Z" style="fill:#FF7AB4" />
<path d="M336.27,155.33A5,5 0 1 1 326.27,155.33A5,5 0 1 1 336.27,155.33Z" style="fill:#FF7AB4" />
<path d="M341.86,156.84A5,5 0 1 1 331.86,156.84A5,5 0 1 1 341.86,156.84Z" style="fill:#FF7AB4" />
<path d="M347.45,158.48A5,5 0 1 1 337.45,158.48A5,5 0 1 1 347.45,158.48Z" style="fill:#FF7AB4" />
<path d="M353.05,160.06A5,5 0 1 1 343.05,160.06A5,5 0 1 1 353.05,160.06Z" style="fill:#FF7AB4" />
<path d="M358.64,161.52A5,5 0 1 1 348.64,161.52A5,5 0 1 1 358.64,161.52Z" style="fill:#FF7AB4" />
<path d="M364.23,163.4A5,5 0 1 1 354.23,163.4A5,5 0 1 1 364.23,163.4Z" style="fill:#FF7AB4" />
<path d="M369.82,165.64A5,5 0 1 1 359.82,165.64A5,5 0 1 1 369.82,165.64Z" style="fill:#FF7AB4" />
<path d="M375.41,168A5,5 0 1 1 365.41,168A5,5 0 1 1 375.41,168Z" style="fill:#FF7AB4" />
<path d="M381.01,170.31A5,5 0 1 1 371.01,170.31A5,5 0 1 1 381.01,170.31Z" style="fill:#FF7AB4" />
<path d="M386.6,173.05A5,5 0 1 1 376.6,173.05A5,5 0 1 1 386.6,173.05Z" style="fill:#FF7AB4" />
<path d="M392.19,176.02A5,5 0 1 1 382.19,176.02A5,5 0 1 1 392.19,176.02Z" style="fill:#FF7AB4" />
<path d="M397.78,179.2A5,5 0 1 1 387.78,179.2A5,5 0 1 1 397.78,179.2Z" style="fill:#FF7AB4" />
<path d="M403.37,182.25A5,5 0 1 1 393.37,182.25A5,5 0 1 1 403.37,182.25Z" style="fill:#FF7AB4" />
<path d="M408.97,185.47A5,5 0 1 1 398.97,185.47A5,5 0 1 1 408.97,185.47Z" style="fill:#FF7AB4" />
<path d="M414.56,189.72A5,5 0 1 1 404.56,189.72A5,5 0 1 1 414.56,189.72Z" style="fill:#FF7AB4" />
<path d="M420.15,194.27A5,5 0 1 1 410.15,194.27A5,5 0 1 1 420.15,194.27Z" style="fill:#FF7AB4" />
<path d="M425.74,199.14A5,5 0 1 1 415.74,199.14A5,5 0 1 1 425.74,199.14Z" style="fill:#FF7AB4" />
<path d="M431.33,204.82A5,5 0 1 1 421.33,204.82A5,5 0 1 1 431.33,204.82Z" style="fill:#FF7AB4" />
<path d="M436.93,210.43A5,5 0 1 1 426.93,210.43A5,5 0 1 1 436.93,210.43Z" style="fill:#FF7AB4" />
<path d="M442.52,216.37A5,5 0 1 1 432.52,216.37A5,5 0 1 1 442.52,216.37Z" style="fill:#FF7AB4" />
<path d="M448.11,223.22A5,5 0 1 1 438.11,223.22A5,5 0 1 1 448.11,223.22Z" style="fill:#FF7AB4" />
<path d="M453.7,230.34A5,5 0 1 1 443.7,230.34A5,5 0 1 1 453.7,230.34Z" style="fill:#FF7AB4" />
<path d="M459.29,239.44A5,5 0 1 1 449.29,239.44A5,5 0 1 1 459.29,239.44Z" style="fill:#FF7AB4" />
<path d="M464.89,248.47A5,5 0 1 1 454.89,248.47A5,5 0 1 1 464.89,248.47Z" style="fill:#FF7AB4" />
<path d="M470.48,258.25A5,5 0 1 1 460.48,258.25A5,5 0 1 1 470.48,258.25Z" style="fill:#FF7AB4" />
<path d="M476.07,268.74A5,5 0 1 1 466.07,268.74A5,5 0 1 1 476.07,268.74Z" style="fill:#FF7AB4" />
<path d="M481.66,280.98A5,5 0 1 1 471.66,280.98A5,5 0 1 1 481.66,280.98Z" style="fill:#FF7AB4" />
<path d="M487.25,293.38A5,5 0 1 1 477.25,293.38A5,5 0 1 1 487.25,293.38Z" style="fill:#FF7AB4" />
<path d="M492.85,307.64A5,5 0 1 1 482.85,307.64A5,5 0 1 1 492.85,307.64Z" style="fill:#FF7AB4" />
<path d="M498.44,323.54A5,5 0 1 1 488.44,323.54A5,5 0 1 1 498.44,323.54Z" style="fill:#FF7AB4" />
<path d="M504.03,340.17A5,5 0 1 1 494.03,340.17A5,5 0 1 1 504.03,340.17Z" style="fill:#FF7AB4" />
<path d="M509.62,359.16A5,5 0 1 1 499.62,359.16A5,5 0 1 1 509.62,359.16Z" style="fill:#FF7AB4" />
<path d="M515.21,379.87A5,5 0 1 1 505.21,379.87A5,5 0 1 1 515.21,379.87Z" style="fill:#FF7AB4" />
<path d="M520.81,402.42A5,5 0 1 1 510.81,402.42A5,5 0 1 1 520.81,402.42Z" style="fill:#FF7AB4" />
<path d="M526.4,426.94A5,5 0 1 1 516.4,426.94A5,5 0 1 1 526.4,426.94Z" style="fill:#FF7AB4" />
<path d="M531.99,453.56A5,5 0 1 1 521.99,453.56A5,5 0 1 1 531.99,453.56Z" style="fill:#FF7AB4" />
<path d="M537.58,482.41A5,5 0 1 1 527.58,482.41A5,5 0 1 1 537.58,482.41Z" style="fill:#FF7AB4" />
<path d="M543.17,514.64A5,5 0 1 1 533.17,514.64A5,5 0 1 1 543.17,514.64Z" style="fill:#FF7AB4" />
<path d="M548.76,551.89A5,5 0 1 1 538.76,551.89A5,5 0 1 1 548.76,551.89Z" style="fill:#FF7AB4" />
<path d="M554.36,594.67A5,5 0 1 1 544.36,594.67A5,5 0 1 1 554.36,594.67Z" style="fill:#FF7AB4" />
<path d="M559.95,639.41A5,5 0 1 1 549.95,639.41A5,5 0 1 1 559.95,639.41Z" style="fill:#FF7AB4" />
<path d="M565.54,689.85A5,5 0 1 1 555.54,689.85A5,5 0 1 1 565.54,689.85Z" style="fill:#FF7AB4" />
<path d="M571.13,744.2A5,5 0 1 1 561.13,744.2A5,5 0 1 1 571.13,744.2Z" style="fill:#FF7AB4" />
<path d="M576.72,802.33A5,5 0 1 1 566.72,802.33A5,5 0 1 1 576.72,802.33Z" style="fill:#FF7AB4" />
<path d="M582.32,859.65A5,5 0 1 1 572.32,859.65A5,5 0 1 1 582.32,859.65Z" style="fill:#FF7AB4" />
<path d="M587.91,913.6A5,5 0 1 1 577.91,913.6A5,5 0 1 1 587.91,913.6Z" style="fill:#FF7AB4" />
<path d="M593.5,954.67A5,5 0 1 1 583.5,954.67A5,5 0 1 1 593.5,954.67Z" style="fill:#FF7AB4" />
<path d="M599.09,969.11A5,5 0 1 1 589.09,969.11A5,5 0 1 1 599.09,969.11Z" style="fill:#FF7AB4" />
<path d="M604.68,952.01A5,5 0 1 1 594.68,952.01A5,5 0 1 1 604.68,952.01Z" style="fill:#FF7AB4" />
<path d="M610.28,902.71A5,5 0 1 1 600.28,902.71A5,5 0 1 1 610.28,902.71Z" style="fill:#FF7AB4" />
<path d="M615.87,834.93A5,5 0 1 1 605.87,834.93A5,5 0 1 1 615.87,834.93Z" style="fill:#FF7AB4" />
<path d="M621.46,758.87A5,5 0 1 1 611.46,758.87A5,5 0 1 1 621.46,758.87Z" style="fill:#FF7AB4" />
<path d="M627.05,683.95A5,5 0 1 1 617.05,683.95A5,5 0 1 1 627.05,683.95Z" style="fill:#FF7AB4" />
<path d="M632.64,616.91A5,5 0 1 1 622.64,616.91A5,5 0 1 1 632.64,616.91Z" style="fill:#FF7AB4" />
<path d="M638.24,555.42A5,5 0 1 1 628.24,555.42A5,5 0 1 1 638.24,555.42Z" style="fill:#FF7AB4" />
<path d="M643.83,501.66A5,5 0 1 1 633.83,501.66A5,5 0 1 1 643.83,501.66Z" style="fill:#FF7AB4" />
<path d="M649.42,455.58A5,5 0 1 1 639.42,455.58A5,5 0 1 1 649.42,455.58Z" style="fill:#FF7AB4" />
<path d="M655.01,415.49A5,5 0 1 1 645.01,415.49A5,5 0 1 1 655.01,415.49Z" style="fill:#FF7AB4" />
<path d="M660.6,380.01A5,5 0 1 1 650.6,380.01A5,5 0 1 1 660.6,380.01Z" style="fill:#FF7AB4" />
<path d="M666.2,350A5,5 0 1 1 656.2,350A5,5 0 1 1 666.2,350Z" style="fill:#FF7AB4" />
<path d="M671.79,324.78A5,5 0 1 1 661.79,324.78A5,5 0 1 1 671.79,324.78Z" style="fill:#FF7AB4" />
<path d="M677.38,303.12A5,5 0 1 1 667.38,303.12A5,5 0 1 1 677.38,303.12Z" style="fill:#FF7AB4" />
<path d="M682.97,284.33A5,5 0 1 1 672.97,284.33A5,5 0 1 1 682.97,284.33Z" style="fill:#FF7AB4" />
<path d="M688.56,267.08A5,5 0 1 1 678.56,267.08A5,5 0 1 1 688.56,267.08Z" style="fill:#FF7AB4" />
<path d="M694.16,252.41A5,5 0 1 1 684.16,252.41A5,5 0 1 1 694.16,252.41Z" style="fill:#FF7AB4" />
<path d="M699.75,239.75A5,5 0 1 1 689.75,239.75A5,5 0 1 1 699.75,239.75Z" style="fill:#FF7AB4" />
<path d="M705.34,229.05A5,5 0 1 1 695.34,229.05A5,5 0 1 1 705.34,229.05Z" style="fill:#FF7AB4" />
<path d="M710.93,219.78A5,5 0 1 1 700.93,219.78A5,5 0 1 1 710.93,219.78Z" style="fill:#FF7AB4" />
<path d="M716.52,211.17A5,5 0 1 1 706.52,211.17A5,5 0 1 1 716.52,211.17Z" style="fill:#FF7AB4" />
<path d="M722.12,202.85A5,5 0 1 1 712.12,202.85A5,5 0 1 1 722.12,202.85Z" style="fill:#FF7AB4" />
<path d="M727.71,196.44A5,5 0 1 1 717.71,196.44A5,5 0 1 1 727.71,196.44Z" style="fill:#FF7AB4" />
<path d="M733.3,191.13A5,5 0 1 1 723.3,191.13A5,5 0 1 1 733.3,191.13Z" style="fill:#FF7AB4" />
<path d="M738.89,185.86A5,5 0 1 1 728.89,185.86A5,5 0 1 1 738.89,185.86Z" style="fill:#FF7AB4" />
<path d="M744.48,181.33A5,5 0 1 1 734.48,181.33A5,5 0 1 1 744.48,181.33Z" style="fill:#FF7AB4" />
<path d="M750.08,177A5,5 0 1 1 740.08,177A5,5 0 1 1 750.08,177Z" style="fill:#FF7AB4" />
<path d="M755.67,172.82A5,5 0 1 1 745.67,172.82A5,5 0 1 1 755.67,172.82Z" style="fill:#FF7AB4" />
<path d="M761.26,169.26A5,5 0 1 1 751.26,169.26A5,5 0 1 1 761.26,169.26Z" style="fill:#FF7AB4" />
<path d="M766.85,166.48A5,5 0 1 1 756.85,166.48A5,5 0 1 1 766.85,166.48Z" style="fill:#FF7AB4" />
<path d="M772.44,163.74A5,5 0 1 1 762.44,163.74A5,5 0 1 1 772.44,163.74Z" style="fill:#FF7AB4" />
<path d="M778.03,161.05A5,5 0 1 1 768.03,161.05A5,5 0 1 1 778.03,161.05Z" style="fill:#FF7AB4" />
<path d="M783.63,158.36A5,5 0 1 1 773.63,158.36A5,5 0 1 1 783.63,158.36Z" style="fill:#FF7AB4" />
<path d="M789.22,156.34A5,5 0 1 1 779.22,156.34A5,5 0 1 1 789.22,156.34Z" style="fill:#FF7AB4" />
<path d="M794.81,154.55A5,5 0 1 1 784.81,154.55A5,5 0 1 1 794.81,154.55Z" style="fill:#FF7AB4" />
<path d="M800.4,152.81A5,5 0 1 1 790.4,152.81A5,5 0 1 1 800.4,152.81Z" style="fill:#FF7AB4" />
<path d="M805.99,150.9A5,5 0 1 1 795.99,150.9A5,5 0 1 1 805.99,150.9Z" style="fill:#FF7AB4" />
<path d="M811.59,149.45A5,5 0 1 1 801.59,149.45A5,5 0 1 1 811.59,149.45Z" style="fill:#FF7AB4" />
<path d="M817.18,147.79A5,5 0 1 1 807.18,147.79A5,5 0 1 1 817.18,147.79Z" style="fill:#FF7AB4" />
<path d="M822.77,146.3A5,5 0 1 1 812.77,146.3A5,5 0 1 1 822.77,146.3Z" style="fill:#FF7AB4" />
<path d="M828.36,144.56A5,5 0 1 1 818.36,144.56A5,5 0 1 1 828.36,144.56Z" style="fill:#FF7AB4" />
<path d="M833.95,143.91A5,5 0 1 1 823.95,143.91A5,5 0 1 1 833.95,143.91Z" style="fill:#FF7AB4" />
<path d="M839.55,143.02A5,5 0 1 1 829.55,143.02A5,5 0 1 1 839.55,143.02Z" style="fill:#FF7AB4" />
<path d="M845.14,142.41A5,5 0 1 1 835.14,142.41A5,5 0 1 1 845.14,142.41Z" style="fill:#FF7AB4" />
<path d="M850.73,141.64A5,5 0 1 1 840.73,141.64A5,5 0 1 1 850.73,141.64Z" style="fill:#FF7AB4" />
<path d="M856.32,140.9A5,5 0 1 1 846.32,140.9A5,5 0 1 1 856.32,140.9Z" style="fill:#FF7AB4" />
<path d="M861.91,139.61A5,5 0 1 1 851.91,139.61A5,5 0 1 1 861.91,139.61Z" style="fill:#FF7AB4" />
<path d="M867.51,138.16A5,5 0 1 1 857.51,138.16A5,5 0 1 1 867.51,138.16Z" style="fill:#FF7AB4" />
<path d="M873.1,137.27A5,5 0 1 1 863.1,137.27A5,5 0 1 1 873.1,137.27Z" style="fill:#FF7AB4" />
<path d="M878.69,136.91A5,5 0 1 1 868.69,136.91A5,5 0 1 1 878.69,136.91Z" style="fill:#FF7AB4" />
<path d="M884.28,136.95A5,5 0 1 1 874.28,136.95A5,5 0 1 1 884.28,136.95Z" style="fill:#FF7AB4" />
<path d="M889.87,136.67A5,5 0 1 1 879.87,136.67A5,5 0 1 1 889.87,136.67Z" style="fill:#FF7AB4" />
<path d="M895.47,135.97A5,5 0 1 1 885.47,135.97A5,5 0 1 1 895.47,135.97Z" style="fill:#FF7AB4" />
<path d="M901.06,135.15A5,5 0 1 1 891.06,135.15A5,5 0 1 1 901.06,135.15Z" style="fill:#FF7AB4" />
<path d="M906.65,134.62A5,5 0 1 1 896.65,134.62A5,5 0 1 1 906.65,134.62Z" style="fill:#FF7AB4" />
<path d="M912.24,134.4A5,5 0 1 1 902.24,134.4A5,5 0 1 1 912.24,134.4Z" style="fill:#FF7AB4" />
<path d="M917.83,134.23A5,5 0 1 1 907.83,134.23A5,5 0 1 1 917.83,134.23Z" style="fill:#FF7AB4" />
<path d="M923.43,133.88A5,5 0 1 1 913.43,133.88A5,5 0 1 1 923.43,133.88Z" style="fill:#FF7AB4" />
<path d="M929.02,133.94A5,5 0 1 1 919.02,133.94A5,5 0 1 1 929.02,133.94Z" style="fill:#FF7AB4" />
<path d="M934.61,133.16A5,5 0 1 1 924.61,133.16A5,5 0 1 1 934.61,133.16Z" style="fill:#FF7AB4" />
<path d="M940.2,133.44A5,5 0 1 1 930.2,133.44A5,5 0 1 1 940.2,133.44Z" style="fill:#FF7AB4" />
<path d="M945.79,133.47A5,5 0 1 1 935.79,133.47A5,5 0 1 1 945.79,133.47Z" style="fill:#FF7AB4" />
<path d="M951.39,133.94A5,5 0 1 1 941.39,133.94A5,5 0 1 1 951.39,133.94Z" style="fill:#FF7AB4" />
<path d="M956.98,134.17A5,5 0 1 1 946.98,134.17A5,5 0 1 1 956.98,134.17Z" style="fill:#FF7AB4" />
<path d="M962.57,134.05A5,5 0 1 1 952.57,134.05A5,5 0 1 1 962.57,134.05Z" style="fill:#FF7AB4" />
<path d="M968.16,133.8A5,5 0 1 1 958.16,133.8A5,5 0 1 1 968.16,133.8Z" style="fill:#FF7AB4" />
<path d="M973.75,133.86A5,5 0 1 1 963.75,133.86A5,5 0 1 1 973.75,133.86Z" style="fill:#FF7AB4" />
<path d="M979.34,133.69A5,5 0 1 1 969.34,133.69A5,5 0 1 1 979.34,133.69Z" style="fill:#FF7AB4" />
<path d="M984.94,133.18A5,5 0 1 1 974.94,133.18A5,5 0 1 1 984.94,133.18Z" style="fill:#FF7AB4" />
<path d="M990.53,133.61A5,5 0 1 1 980.53,133.61A5,5 0 1 1 990.53,133.61Z" style="fill:#FF7AB4" />
<path d="M996.12,133.69A5,5 0 1 1 986.12,133.69A5,5 0 1 1 996.12,133.69Z" style="fill:#FF7AB4" />
<path d="M1001.7,133.97A5,5 0 1 1 991.71,133.97A5,5 0 1 1 1001.7,133.97Z" style="fill:#FF7AB4" />
<path d="M1007.3,133.86A5,5 0 1 1 997.3,133.86A5,5 0 1 1 1007.3,133.86Z" style="fill:#FF7AB4" />
<path d="M1012.9,133.31A5,5 0 1 1 1002.9,133.31A5,5 0 1 1 1012.9,133.31Z" style="fill:#FF7AB4" />
<path d="M1018.5,132.44A5,5 0 1 1 1008.5,132.44A5,5 0 1 1 1018.5,132.44Z" style="fill:#FF7AB4" />
<path d="M1024.1,131.99A5,5 0 1 1 1014.1,131.99A5,5 0 1 1 1024.1,131.99Z" style="fill:#FF7AB4" />
<path d="M1029.7,132.1A5,5 0 1 1 1019.7,132.1A5,5 0 1 1 1029.7,132.1Z" style="fill:#FF7AB4" />
<path d="M1035.3,132.11A5,5 0 1 1 1025.3,132.11A5,5 0 1 1 1035.3,132.11Z" style="fill:#FF7AB4" />
<path d="M1040.9,132.24A5,5 0 1 1 1030.9,132.24A5,5 0 1 1 1040.9,132.24Z" style="fill:#FF7AB4" />
<path d="M1046.4,131.39A5,5 0 1 1 1036.4,131.39A5,5 0 1 1 1046.4,131.39Z" style="fill:#FF7AB4" />
<path d="M1052,129.44A5,5 0 1 1 1042,129.44A5,5 0 1 1 1052,129.44Z" style="fill:#FF7AB4" />
<path d="M1057.6,129.28A5,5 0 1 1 1047.6,129.28A5,5 0 1 1 1057.6,129.28Z" style="fill:#FF7AB4" />
<path d="M1063.2,128.78A5,5 0 1 1 1053.2,128.78A5,5 0 1 1 1063.2,128.78Z" style="fill:#FF7AB4" />
<path d="M1068.8,128.19A5,5 0 1 1 1058.8,128.19A5,5 0 1 1 1068.8,128.19Z" style="fill:#FF7AB4" />
<path d="M1074.4,128.14A5,5 0 1 1 1064.4,128.14A5,5 0 1 1 1074.4,128.14Z" style="fill:#FF7AB4" />
<path d="M1080,127.09A5,5 0 1 1 1070,127.09A5,5 0 1 1 1080,127.09Z" style="fill:#FF7AB4" />
<path d="M414.89,124.74L727.76,124.74" style="fill:none;stroke:#000000" />
<path d="M727.76,108.82L727.76,124.74" style="fill:none;stroke:#000000" />
<path d="M1013,927.49A8,8 0 1 1 997,927.49A8,8 0 1 1 1013,927.49Z" style="fill:#FF7AB4" />
<text x="833.68" y="-920.9" transform="scale(1, -1)"
	style="font-family:Helvetica;font-weight:normal;font-style:normal;font-size:28px">1cm uhna3</text>
</g>
</svg>
