<?xml version="1.0"?>
<!-- Generated by SVGo and Plotinum VG -->
<svg width="1296pt" height="1080pt" viewBox="0 0 1296 1080"
	xmlns="http://www.w3.org/2000/svg"
	xmlns:xlink="http://www.w3.org/1999/xlink">
<g transform="scale(1, -1) translate(0, -1080)">
<path d="M0,0L1296,0L1296,1080L0,1080Z" style="fill-opacity:0" />
<text x="345.24" y="-1047.6" transform="scale(1, -1)"
	style="font-family:Liberation Sans;font-variant:normal;font-weight:normal;font-style:normal;font-size:40px">CoBS Measurement: 100 μm CS2</text>
<text x="509.63" y="-10.732" transform="scale(1, -1)"
	style="font-family:Liberation Sans;font-variant:normal;font-weight:normal;font-style:normal;font-size:35px">Frequency (Ω/2π) (GHz)</text>
<text x="85.947" y="-63.857" transform="scale(1, -1)"
	style="font-family:Liberation Serif;font-variant:normal;font-weight:normal;font-style:normal;font-size:30px">2.35</text>
<text x="258.7" y="-63.857" transform="scale(1, -1)"
	style="font-family:Liberation Serif;font-variant:normal;font-weight:normal;font-style:normal;font-size:30px">2.40</text>
<text x="431.46" y="-63.857" transform="scale(1, -1)"
	style="font-family:Liberation Serif;font-variant:normal;font-weight:normal;font-style:normal;font-size:30px">2.45</text>
<text x="604.21" y="-63.857" transform="scale(1, -1)"
	style="font-family:Liberation Serif;font-variant:normal;font-weight:normal;font-style:normal;font-size:30px">2.50</text>
<text x="776.97" y="-63.857" transform="scale(1, -1)"
	style="font-family:Liberation Serif;font-variant:normal;font-weight:normal;font-style:normal;font-size:30px">2.55</text>
<text x="949.72" y="-63.857" transform="scale(1, -1)"
	style="font-family:Liberation Serif;font-variant:normal;font-weight:normal;font-style:normal;font-size:30px">2.60</text>
<text x="1122.5" y="-63.857" transform="scale(1, -1)"
	style="font-family:Liberation Serif;font-variant:normal;font-weight:normal;font-style:normal;font-size:30px">2.65</text>
<path d="M112.2,87.324L1288,87.324" style="fill:none;stroke:#000000;stroke-width:2.5" />
<g transform="rotate(90)">
<text x="442.59" y="28.369" transform="scale(1, -1)"
	style="font-family:Liberation Sans;font-variant:normal;font-weight:normal;font-style:normal;font-size:35px">Arbitrary Units</text>
</g>
<text x="61.519" y="-129.28" transform="scale(1, -1)"
	style="font-family:Liberation Sans;font-variant:normal;font-weight:normal;font-style:normal;font-size:30px">0.2</text>
<text x="61.519" y="-325.33" transform="scale(1, -1)"
	style="font-family:Liberation Sans;font-variant:normal;font-weight:normal;font-style:normal;font-size:30px">0.4</text>
<text x="61.519" y="-521.38" transform="scale(1, -1)"
	style="font-family:Liberation Sans;font-variant:normal;font-weight:normal;font-style:normal;font-size:30px">0.6</text>
<text x="61.519" y="-717.43" transform="scale(1, -1)"
	style="font-family:Liberation Sans;font-variant:normal;font-weight:normal;font-style:normal;font-size:30px">0.8</text>
<text x="61.519" y="-913.48" transform="scale(1, -1)"
	style="font-family:Liberation Sans;font-variant:normal;font-weight:normal;font-style:normal;font-size:30px">1.0</text>
<path d="M111.56,87.824L111.56,1019.1" style="fill:none;stroke:#000000;stroke-width:2.5" />
<path d="M112.2,87.824L112.2,97.824" style="fill:none;stroke:#000000;stroke-width:2.5" />
<text x="82.641" y="-53.424" transform="scale(1, -1)"
	style="font-family:Liberation Sans;font-variant:normal;font-weight:normal;font-style:normal;font-size:30px">2.35</text>
<path d="M146.75,87.824L146.75,92.824" style="fill:none;stroke:#000000;stroke-width:2.5" />
<path d="M181.3,87.824L181.3,92.824" style="fill:none;stroke:#000000;stroke-width:2.5" />
<path d="M215.85,87.824L215.85,92.824" style="fill:none;stroke:#000000;stroke-width:2.5" />
<path d="M250.4,87.824L250.4,92.824" style="fill:none;stroke:#000000;stroke-width:2.5" />
<path d="M284.95,87.824L284.95,97.824" style="fill:none;stroke:#000000;stroke-width:2.5" />
<text x="255.4" y="-53.424" transform="scale(1, -1)"
	style="font-family:Liberation Sans;font-variant:normal;font-weight:normal;font-style:normal;font-size:30px">2.40</text>
<path d="M319.5,87.824L319.5,92.824" style="fill:none;stroke:#000000;stroke-width:2.5" />
<path d="M354.05,87.824L354.05,92.824" style="fill:none;stroke:#000000;stroke-width:2.5" />
<path d="M388.6,87.824L388.6,92.824" style="fill:none;stroke:#000000;stroke-width:2.5" />
<path d="M423.16,87.824L423.16,92.824" style="fill:none;stroke:#000000;stroke-width:2.5" />
<path d="M457.71,87.824L457.71,97.824" style="fill:none;stroke:#000000;stroke-width:2.5" />
<text x="428.15" y="-53.424" transform="scale(1, -1)"
	style="font-family:Liberation Sans;font-variant:normal;font-weight:normal;font-style:normal;font-size:30px">2.45</text>
<path d="M492.26,87.824L492.26,92.824" style="fill:none;stroke:#000000;stroke-width:2.5" />
<path d="M526.81,87.824L526.81,92.824" style="fill:none;stroke:#000000;stroke-width:2.5" />
<path d="M561.36,87.824L561.36,92.824" style="fill:none;stroke:#000000;stroke-width:2.5" />
<path d="M595.91,87.824L595.91,92.824" style="fill:none;stroke:#000000;stroke-width:2.5" />
<path d="M630.46,87.824L630.46,97.824" style="fill:none;stroke:#000000;stroke-width:2.5" />
<text x="600.91" y="-53.424" transform="scale(1, -1)"
	style="font-family:Liberation Sans;font-variant:normal;font-weight:normal;font-style:normal;font-size:30px">2.50</text>
<path d="M665.01,87.824L665.01,92.824" style="fill:none;stroke:#000000;stroke-width:2.5" />
<path d="M699.56,87.824L699.56,92.824" style="fill:none;stroke:#000000;stroke-width:2.5" />
<path d="M734.11,87.824L734.11,92.824" style="fill:none;stroke:#000000;stroke-width:2.5" />
<path d="M768.66,87.824L768.66,92.824" style="fill:none;stroke:#000000;stroke-width:2.5" />
<path d="M803.22,87.824L803.22,97.824" style="fill:none;stroke:#000000;stroke-width:2.5" />
<text x="773.66" y="-53.424" transform="scale(1, -1)"
	style="font-family:Liberation Sans;font-variant:normal;font-weight:normal;font-style:normal;font-size:30px">2.55</text>
<path d="M837.77,87.824L837.77,92.824" style="fill:none;stroke:#000000;stroke-width:2.5" />
<path d="M872.32,87.824L872.32,92.824" style="fill:none;stroke:#000000;stroke-width:2.5" />
<path d="M906.87,87.824L906.87,92.824" style="fill:none;stroke:#000000;stroke-width:2.5" />
<path d="M941.42,87.824L941.42,92.824" style="fill:none;stroke:#000000;stroke-width:2.5" />
<path d="M975.97,87.824L975.97,97.824" style="fill:none;stroke:#000000;stroke-width:2.5" />
<text x="946.41" y="-53.424" transform="scale(1, -1)"
	style="font-family:Liberation Sans;font-variant:normal;font-weight:normal;font-style:normal;font-size:30px">2.60</text>
<path d="M1010.5,87.824L1010.5,92.824" style="fill:none;stroke:#000000;stroke-width:2.5" />
<path d="M1045.1,87.824L1045.1,92.824" style="fill:none;stroke:#000000;stroke-width:2.5" />
<path d="M1079.6,87.824L1079.6,92.824" style="fill:none;stroke:#000000;stroke-width:2.5" />
<path d="M1114.2,87.824L1114.2,92.824" style="fill:none;stroke:#000000;stroke-width:2.5" />
<path d="M1148.7,87.824L1148.7,97.824" style="fill:none;stroke:#000000;stroke-width:2.5" />
<text x="1119.2" y="-53.424" transform="scale(1, -1)"
	style="font-family:Liberation Sans;font-variant:normal;font-weight:normal;font-style:normal;font-size:30px">2.65</text>
<path d="M1183.3,87.824L1183.3,92.824" style="fill:none;stroke:#000000;stroke-width:2.5" />
<path d="M1217.8,87.824L1217.8,92.824" style="fill:none;stroke:#000000;stroke-width:2.5" />
<path d="M1252.4,87.824L1252.4,92.824" style="fill:none;stroke:#000000;stroke-width:2.5" />
<path d="M1286.9,87.824L1286.9,92.824" style="fill:none;stroke:#000000;stroke-width:2.5" />
<path d="M112.2,136.84L122.2,136.84" style="fill:none;stroke:#000000;stroke-width:2.5" />
<text x="52.049" y="-128.44" transform="scale(1, -1)"
	style="font-family:Liberation Sans;font-variant:normal;font-weight:normal;font-style:normal;font-size:30px">0.2</text>
<path d="M112.2,169.51L117.2,169.51" style="fill:none;stroke:#000000;stroke-width:2.5" />
<path d="M112.2,202.19L117.2,202.19" style="fill:none;stroke:#000000;stroke-width:2.5" />
<path d="M112.2,234.86L117.2,234.86" style="fill:none;stroke:#000000;stroke-width:2.5" />
<path d="M112.2,267.54L117.2,267.54" style="fill:none;stroke:#000000;stroke-width:2.5" />
<path d="M112.2,300.21L117.2,300.21" style="fill:none;stroke:#000000;stroke-width:2.5" />
<path d="M112.2,332.89L122.2,332.89" style="fill:none;stroke:#000000;stroke-width:2.5" />
<text x="52.049" y="-324.49" transform="scale(1, -1)"
	style="font-family:Liberation Sans;font-variant:normal;font-weight:normal;font-style:normal;font-size:30px">0.4</text>
<path d="M112.2,365.56L117.2,365.56" style="fill:none;stroke:#000000;stroke-width:2.5" />
<path d="M112.2,398.24L117.2,398.24" style="fill:none;stroke:#000000;stroke-width:2.5" />
<path d="M112.2,430.91L117.2,430.91" style="fill:none;stroke:#000000;stroke-width:2.5" />
<path d="M112.2,463.59L117.2,463.59" style="fill:none;stroke:#000000;stroke-width:2.5" />
<path d="M112.2,496.26L117.2,496.26" style="fill:none;stroke:#000000;stroke-width:2.5" />
<path d="M112.2,528.94L122.2,528.94" style="fill:none;stroke:#000000;stroke-width:2.5" />
<text x="52.049" y="-520.54" transform="scale(1, -1)"
	style="font-family:Liberation Sans;font-variant:normal;font-weight:normal;font-style:normal;font-size:30px">0.6</text>
<path d="M112.2,561.61L117.2,561.61" style="fill:none;stroke:#000000;stroke-width:2.5" />
<path d="M112.2,594.29L117.2,594.29" style="fill:none;stroke:#000000;stroke-width:2.5" />
<path d="M112.2,626.96L117.2,626.96" style="fill:none;stroke:#000000;stroke-width:2.5" />
<path d="M112.2,659.64L117.2,659.64" style="fill:none;stroke:#000000;stroke-width:2.5" />
<path d="M112.2,692.31L117.2,692.31" style="fill:none;stroke:#000000;stroke-width:2.5" />
<path d="M112.2,724.99L122.2,724.99" style="fill:none;stroke:#000000;stroke-width:2.5" />
<text x="52.049" y="-716.59" transform="scale(1, -1)"
	style="font-family:Liberation Sans;font-variant:normal;font-weight:normal;font-style:normal;font-size:30px">0.8</text>
<path d="M112.2,757.66L117.2,757.66" style="fill:none;stroke:#000000;stroke-width:2.5" />
<path d="M112.2,790.34L117.2,790.34" style="fill:none;stroke:#000000;stroke-width:2.5" />
<path d="M112.2,823.01L117.2,823.01" style="fill:none;stroke:#000000;stroke-width:2.5" />
<path d="M112.2,855.69L117.2,855.69" style="fill:none;stroke:#000000;stroke-width:2.5" />
<path d="M112.2,888.36L117.2,888.36" style="fill:none;stroke:#000000;stroke-width:2.5" />
<path d="M112.2,921.04L122.2,921.04" style="fill:none;stroke:#000000;stroke-width:2.5" />
<text x="52.049" y="-912.64" transform="scale(1, -1)"
	style="font-family:Liberation Sans;font-variant:normal;font-weight:normal;font-style:normal;font-size:30px">1.0</text>
<path d="M112.2,382.58L112.2,476.99" style="fill:none;stroke:#1FD3AC" />
<path d="M109.7,382.58L114.7,382.58" style="fill:none;stroke:#1FD3AC" />
<path d="M109.7,476.99L114.7,476.99" style="fill:none;stroke:#1FD3AC" />
<path d="M129.49,373.09L129.49,492.73" style="fill:none;stroke:#1FD3AC" />
<path d="M126.99,373.09L131.99,373.09" style="fill:none;stroke:#1FD3AC" />
<path d="M126.99,492.73L131.99,492.73" style="fill:none;stroke:#1FD3AC" />
<path d="M146.78,368.53L146.78,452.16" style="fill:none;stroke:#1FD3AC" />
<path d="M144.28,368.53L149.28,368.53" style="fill:none;stroke:#1FD3AC" />
<path d="M144.28,452.16L149.28,452.16" style="fill:none;stroke:#1FD3AC" />
<path d="M164.07,362.92L164.07,479.42" style="fill:none;stroke:#1FD3AC" />
<path d="M161.57,362.92L166.57,362.92" style="fill:none;stroke:#1FD3AC" />
<path d="M161.57,479.42L166.57,479.42" style="fill:none;stroke:#1FD3AC" />
<path d="M181.36,297.5L181.36,395.84" style="fill:none;stroke:#1FD3AC" />
<path d="M178.86,297.5L183.86,297.5" style="fill:none;stroke:#1FD3AC" />
<path d="M178.86,395.84L183.86,395.84" style="fill:none;stroke:#1FD3AC" />
<path d="M198.65,338.5L198.65,499.18" style="fill:none;stroke:#1FD3AC" />
<path d="M196.15,338.5L201.15,338.5" style="fill:none;stroke:#1FD3AC" />
<path d="M196.15,499.18L201.15,499.18" style="fill:none;stroke:#1FD3AC" />
<path d="M215.94,256.11L215.94,379.44" style="fill:none;stroke:#1FD3AC" />
<path d="M213.44,256.11L218.44,256.11" style="fill:none;stroke:#1FD3AC" />
<path d="M213.44,379.44L218.44,379.44" style="fill:none;stroke:#1FD3AC" />
<path d="M233.24,345.26L233.24,475.56" style="fill:none;stroke:#1FD3AC" />
<path d="M230.74,345.26L235.74,345.26" style="fill:none;stroke:#1FD3AC" />
<path d="M230.74,475.56L235.74,475.56" style="fill:none;stroke:#1FD3AC" />
<path d="M250.53,369.73L250.53,563.93" style="fill:none;stroke:#1FD3AC" />
<path d="M248.03,369.73L253.03,369.73" style="fill:none;stroke:#1FD3AC" />
<path d="M248.03,563.93L253.03,563.93" style="fill:none;stroke:#1FD3AC" />
<path d="M267.82,409.37L267.82,460.22" style="fill:none;stroke:#1FD3AC" />
<path d="M265.32,409.37L270.32,409.37" style="fill:none;stroke:#1FD3AC" />
<path d="M265.32,460.22L270.32,460.22" style="fill:none;stroke:#1FD3AC" />
<path d="M285.11,389.69L285.11,465.66" style="fill:none;stroke:#1FD3AC" />
<path d="M282.61,389.69L287.61,389.69" style="fill:none;stroke:#1FD3AC" />
<path d="M282.61,465.66L287.61,465.66" style="fill:none;stroke:#1FD3AC" />
<path d="M302.4,373.37L302.4,440.17" style="fill:none;stroke:#1FD3AC" />
<path d="M299.9,373.37L304.9,373.37" style="fill:none;stroke:#1FD3AC" />
<path d="M299.9,440.17L304.9,440.17" style="fill:none;stroke:#1FD3AC" />
<path d="M319.69,444.53L319.69,560.18" style="fill:none;stroke:#1FD3AC" />
<path d="M317.19,444.53L322.19,444.53" style="fill:none;stroke:#1FD3AC" />
<path d="M317.19,560.18L322.19,560.18" style="fill:none;stroke:#1FD3AC" />
<path d="M336.98,292.29L336.98,471.97" style="fill:none;stroke:#1FD3AC" />
<path d="M334.48,292.29L339.48,292.29" style="fill:none;stroke:#1FD3AC" />
<path d="M334.48,471.97L339.48,471.97" style="fill:none;stroke:#1FD3AC" />
<path d="M354.27,351.52L354.27,464.27" style="fill:none;stroke:#1FD3AC" />
<path d="M351.77,351.52L356.77,351.52" style="fill:none;stroke:#1FD3AC" />
<path d="M351.77,464.27L356.77,464.27" style="fill:none;stroke:#1FD3AC" />
<path d="M371.57,317.45L371.57,384.38" style="fill:none;stroke:#1FD3AC" />
<path d="M369.07,317.45L374.07,317.45" style="fill:none;stroke:#1FD3AC" />
<path d="M369.07,384.38L374.07,384.38" style="fill:none;stroke:#1FD3AC" />
<path d="M388.86,265.83L388.86,399.1" style="fill:none;stroke:#1FD3AC" />
<path d="M386.36,265.83L391.36,265.83" style="fill:none;stroke:#1FD3AC" />
<path d="M386.36,399.1L391.36,399.1" style="fill:none;stroke:#1FD3AC" />
<path d="M406.15,313.66L406.15,494.71" style="fill:none;stroke:#1FD3AC" />
<path d="M403.65,313.66L408.65,313.66" style="fill:none;stroke:#1FD3AC" />
<path d="M403.65,494.71L408.65,494.71" style="fill:none;stroke:#1FD3AC" />
<path d="M423.44,325.31L423.44,463.28" style="fill:none;stroke:#1FD3AC" />
<path d="M420.94,325.31L425.94,325.31" style="fill:none;stroke:#1FD3AC" />
<path d="M420.94,463.28L425.94,463.28" style="fill:none;stroke:#1FD3AC" />
<path d="M440.73,352.47L440.73,484.72" style="fill:none;stroke:#1FD3AC" />
<path d="M438.23,352.47L443.23,352.47" style="fill:none;stroke:#1FD3AC" />
<path d="M438.23,484.72L443.23,484.72" style="fill:none;stroke:#1FD3AC" />
<path d="M458.02,389.24L458.02,447.59" style="fill:none;stroke:#1FD3AC" />
<path d="M455.52,389.24L460.52,389.24" style="fill:none;stroke:#1FD3AC" />
<path d="M455.52,447.59L460.52,447.59" style="fill:none;stroke:#1FD3AC" />
<path d="M475.31,368.21L475.31,382.48" style="fill:none;stroke:#1FD3AC" />
<path d="M472.81,368.21L477.81,368.21" style="fill:none;stroke:#1FD3AC" />
<path d="M472.81,382.48L477.81,382.48" style="fill:none;stroke:#1FD3AC" />
<path d="M492.6,311.63L492.6,436.24" style="fill:none;stroke:#1FD3AC" />
<path d="M490.1,311.63L495.1,311.63" style="fill:none;stroke:#1FD3AC" />
<path d="M490.1,436.24L495.1,436.24" style="fill:none;stroke:#1FD3AC" />
<path d="M509.89,376.45L509.89,510.33" style="fill:none;stroke:#1FD3AC" />
<path d="M507.39,376.45L512.39,376.45" style="fill:none;stroke:#1FD3AC" />
<path d="M507.39,510.33L512.39,510.33" style="fill:none;stroke:#1FD3AC" />
<path d="M527.19,366L527.19,453" style="fill:none;stroke:#1FD3AC" />
<path d="M524.69,366L529.69,366" style="fill:none;stroke:#1FD3AC" />
<path d="M524.69,453L529.69,453" style="fill:none;stroke:#1FD3AC" />
<path d="M544.48,523.96L544.48,633.09" style="fill:none;stroke:#1FD3AC" />
<path d="M541.98,523.96L546.98,523.96" style="fill:none;stroke:#1FD3AC" />
<path d="M541.98,633.09L546.98,633.09" style="fill:none;stroke:#1FD3AC" />
<path d="M561.77,434.56L561.77,545.51" style="fill:none;stroke:#1FD3AC" />
<path d="M559.27,434.56L564.27,434.56" style="fill:none;stroke:#1FD3AC" />
<path d="M559.27,545.51L564.27,545.51" style="fill:none;stroke:#1FD3AC" />
<path d="M579.06,371.27L579.06,471.29" style="fill:none;stroke:#1FD3AC" />
<path d="M576.56,371.27L581.56,371.27" style="fill:none;stroke:#1FD3AC" />
<path d="M576.56,471.29L581.56,471.29" style="fill:none;stroke:#1FD3AC" />
<path d="M596.35,316.86L596.35,483.01" style="fill:none;stroke:#1FD3AC" />
<path d="M593.85,316.86L598.85,316.86" style="fill:none;stroke:#1FD3AC" />
<path d="M593.85,483.01L598.85,483.01" style="fill:none;stroke:#1FD3AC" />
<path d="M613.64,376.94L613.64,550.09" style="fill:none;stroke:#1FD3AC" />
<path d="M611.14,376.94L616.14,376.94" style="fill:none;stroke:#1FD3AC" />
<path d="M611.14,550.09L616.14,550.09" style="fill:none;stroke:#1FD3AC" />
<path d="M630.93,355.93L630.93,502.44" style="fill:none;stroke:#1FD3AC" />
<path d="M628.43,355.93L633.43,355.93" style="fill:none;stroke:#1FD3AC" />
<path d="M628.43,502.44L633.43,502.44" style="fill:none;stroke:#1FD3AC" />
<path d="M648.22,459.52L648.22,535.03" style="fill:none;stroke:#1FD3AC" />
<path d="M645.72,459.52L650.72,459.52" style="fill:none;stroke:#1FD3AC" />
<path d="M645.72,535.03L650.72,535.03" style="fill:none;stroke:#1FD3AC" />
<path d="M665.52,465.38L665.52,556.9" style="fill:none;stroke:#1FD3AC" />
<path d="M663.02,465.38L668.02,465.38" style="fill:none;stroke:#1FD3AC" />
<path d="M663.02,556.9L668.02,556.9" style="fill:none;stroke:#1FD3AC" />
<path d="M682.81,491.94L682.81,607.65" style="fill:none;stroke:#1FD3AC" />
<path d="M680.31,491.94L685.31,491.94" style="fill:none;stroke:#1FD3AC" />
<path d="M680.31,607.65L685.31,607.65" style="fill:none;stroke:#1FD3AC" />
<path d="M700.1,500.72L700.1,603.1" style="fill:none;stroke:#1FD3AC" />
<path d="M697.6,500.72L702.6,500.72" style="fill:none;stroke:#1FD3AC" />
<path d="M697.6,603.1L702.6,603.1" style="fill:none;stroke:#1FD3AC" />
<path d="M717.39,533.25L717.39,683.35" style="fill:none;stroke:#1FD3AC" />
<path d="M714.89,533.25L719.89,533.25" style="fill:none;stroke:#1FD3AC" />
<path d="M714.89,683.35L719.89,683.35" style="fill:none;stroke:#1FD3AC" />
<path d="M734.68,676.29L734.68,783.36" style="fill:none;stroke:#1FD3AC" />
<path d="M732.18,676.29L737.18,676.29" style="fill:none;stroke:#1FD3AC" />
<path d="M732.18,783.36L737.18,783.36" style="fill:none;stroke:#1FD3AC" />
<path d="M751.97,699.42L751.97,844.11" style="fill:none;stroke:#1FD3AC" />
<path d="M749.47,699.42L754.47,699.42" style="fill:none;stroke:#1FD3AC" />
<path d="M749.47,844.11L754.47,844.11" style="fill:none;stroke:#1FD3AC" />
<path d="M769.26,712.5L769.26,823.62" style="fill:none;stroke:#1FD3AC" />
<path d="M766.76,712.5L771.76,712.5" style="fill:none;stroke:#1FD3AC" />
<path d="M766.76,823.62L771.76,823.62" style="fill:none;stroke:#1FD3AC" />
<path d="M786.55,828.22L786.55,912.39" style="fill:none;stroke:#1FD3AC" />
<path d="M784.05,828.22L789.05,828.22" style="fill:none;stroke:#1FD3AC" />
<path d="M784.05,912.39L789.05,912.39" style="fill:none;stroke:#1FD3AC" />
<path d="M803.85,870.28L803.85,971.79" style="fill:none;stroke:#1FD3AC" />
<path d="M801.35,870.28L806.35,870.28" style="fill:none;stroke:#1FD3AC" />
<path d="M801.35,971.79L806.35,971.79" style="fill:none;stroke:#1FD3AC" />
<path d="M821.14,825.42L821.14,908.05" style="fill:none;stroke:#1FD3AC" />
<path d="M818.64,825.42L823.64,825.42" style="fill:none;stroke:#1FD3AC" />
<path d="M818.64,908.05L823.64,908.05" style="fill:none;stroke:#1FD3AC" />
<path d="M838.43,730.8L838.43,815.16" style="fill:none;stroke:#1FD3AC" />
<path d="M835.93,730.8L840.93,730.8" style="fill:none;stroke:#1FD3AC" />
<path d="M835.93,815.16L840.93,815.16" style="fill:none;stroke:#1FD3AC" />
<path d="M855.72,659.12L855.72,741.07" style="fill:none;stroke:#1FD3AC" />
<path d="M853.22,659.12L858.22,659.12" style="fill:none;stroke:#1FD3AC" />
<path d="M853.22,741.07L858.22,741.07" style="fill:none;stroke:#1FD3AC" />
<path d="M873.01,592.74L873.01,715.61" style="fill:none;stroke:#1FD3AC" />
<path d="M870.51,592.74L875.51,592.74" style="fill:none;stroke:#1FD3AC" />
<path d="M870.51,715.61L875.51,715.61" style="fill:none;stroke:#1FD3AC" />
<path d="M890.3,671.63L890.3,727.82" style="fill:none;stroke:#1FD3AC" />
<path d="M887.8,671.63L892.8,671.63" style="fill:none;stroke:#1FD3AC" />
<path d="M887.8,727.82L892.8,727.82" style="fill:none;stroke:#1FD3AC" />
<path d="M907.59,561.88L907.59,677.99" style="fill:none;stroke:#1FD3AC" />
<path d="M905.09,561.88L910.09,561.88" style="fill:none;stroke:#1FD3AC" />
<path d="M905.09,677.99L910.09,677.99" style="fill:none;stroke:#1FD3AC" />
<path d="M924.88,505.38L924.88,659.87" style="fill:none;stroke:#1FD3AC" />
<path d="M922.38,505.38L927.38,505.38" style="fill:none;stroke:#1FD3AC" />
<path d="M922.38,659.87L927.38,659.87" style="fill:none;stroke:#1FD3AC" />
<path d="M942.18,483.53L942.18,634.89" style="fill:none;stroke:#1FD3AC" />
<path d="M939.68,483.53L944.68,483.53" style="fill:none;stroke:#1FD3AC" />
<path d="M939.68,634.89L944.68,634.89" style="fill:none;stroke:#1FD3AC" />
<path d="M959.47,435.74L959.47,558.94" style="fill:none;stroke:#1FD3AC" />
<path d="M956.97,435.74L961.97,435.74" style="fill:none;stroke:#1FD3AC" />
<path d="M956.97,558.94L961.97,558.94" style="fill:none;stroke:#1FD3AC" />
<path d="M976.76,380.98L976.76,488.66" style="fill:none;stroke:#1FD3AC" />
<path d="M974.26,380.98L979.26,380.98" style="fill:none;stroke:#1FD3AC" />
<path d="M974.26,488.66L979.26,488.66" style="fill:none;stroke:#1FD3AC" />
<path d="M994.05,346.01L994.05,459.63" style="fill:none;stroke:#1FD3AC" />
<path d="M991.55,346.01L996.55,346.01" style="fill:none;stroke:#1FD3AC" />
<path d="M991.55,459.63L996.55,459.63" style="fill:none;stroke:#1FD3AC" />
<path d="M1011.3,383.78L1011.3,524.61" style="fill:none;stroke:#1FD3AC" />
<path d="M1008.8,383.78L1013.8,383.78" style="fill:none;stroke:#1FD3AC" />
<path d="M1008.8,524.61L1013.8,524.61" style="fill:none;stroke:#1FD3AC" />
<path d="M1028.6,261.6L1028.6,382.47" style="fill:none;stroke:#1FD3AC" />
<path d="M1026.1,261.6L1031.1,261.6" style="fill:none;stroke:#1FD3AC" />
<path d="M1026.1,382.47L1031.1,382.47" style="fill:none;stroke:#1FD3AC" />
<path d="M1045.9,351.51L1045.9,494.46" style="fill:none;stroke:#1FD3AC" />
<path d="M1043.4,351.51L1048.4,351.51" style="fill:none;stroke:#1FD3AC" />
<path d="M1043.4,494.46L1048.4,494.46" style="fill:none;stroke:#1FD3AC" />
<path d="M1063.2,328.43L1063.2,460.44" style="fill:none;stroke:#1FD3AC" />
<path d="M1060.7,328.43L1065.7,328.43" style="fill:none;stroke:#1FD3AC" />
<path d="M1060.7,460.44L1065.7,460.44" style="fill:none;stroke:#1FD3AC" />
<path d="M1080.5,367.56L1080.5,531.19" style="fill:none;stroke:#1FD3AC" />
<path d="M1078,367.56L1083,367.56" style="fill:none;stroke:#1FD3AC" />
<path d="M1078,531.19L1083,531.19" style="fill:none;stroke:#1FD3AC" />
<path d="M1097.8,414.2L1097.8,502.4" style="fill:none;stroke:#1FD3AC" />
<path d="M1095.3,414.2L1100.3,414.2" style="fill:none;stroke:#1FD3AC" />
<path d="M1095.3,502.4L1100.3,502.4" style="fill:none;stroke:#1FD3AC" />
<path d="M1115.1,401.31L1115.1,496.66" style="fill:none;stroke:#1FD3AC" />
<path d="M1112.6,401.31L1117.6,401.31" style="fill:none;stroke:#1FD3AC" />
<path d="M1112.6,496.66L1117.6,496.66" style="fill:none;stroke:#1FD3AC" />
<path d="M1132.4,278.67L1132.4,396.34" style="fill:none;stroke:#1FD3AC" />
<path d="M1129.9,278.67L1134.9,278.67" style="fill:none;stroke:#1FD3AC" />
<path d="M1129.9,396.34L1134.9,396.34" style="fill:none;stroke:#1FD3AC" />
<path d="M1149.7,206.96L1149.7,346.67" style="fill:none;stroke:#1FD3AC" />
<path d="M1147.2,206.96L1152.2,206.96" style="fill:none;stroke:#1FD3AC" />
<path d="M1147.2,346.67L1152.2,346.67" style="fill:none;stroke:#1FD3AC" />
<path d="M1167,263.04L1167,434.03" style="fill:none;stroke:#1FD3AC" />
<path d="M1164.5,263.04L1169.5,263.04" style="fill:none;stroke:#1FD3AC" />
<path d="M1164.5,434.03L1169.5,434.03" style="fill:none;stroke:#1FD3AC" />
<path d="M1184.3,291.44L1184.3,372.65" style="fill:none;stroke:#1FD3AC" />
<path d="M1181.8,291.44L1186.8,291.44" style="fill:none;stroke:#1FD3AC" />
<path d="M1181.8,372.65L1186.8,372.65" style="fill:none;stroke:#1FD3AC" />
<path d="M1201.5,271.31L1201.5,311.82" style="fill:none;stroke:#1FD3AC" />
<path d="M1199,271.31L1204,271.31" style="fill:none;stroke:#1FD3AC" />
<path d="M1199,311.82L1204,311.82" style="fill:none;stroke:#1FD3AC" />
<path d="M1218.8,312.02L1218.8,438.9" style="fill:none;stroke:#1FD3AC" />
<path d="M1216.3,312.02L1221.3,312.02" style="fill:none;stroke:#1FD3AC" />
<path d="M1216.3,438.9L1221.3,438.9" style="fill:none;stroke:#1FD3AC" />
<path d="M1236.1,227.26L1236.1,386" style="fill:none;stroke:#1FD3AC" />
<path d="M1233.6,227.26L1238.6,227.26" style="fill:none;stroke:#1FD3AC" />
<path d="M1233.6,386L1238.6,386" style="fill:none;stroke:#1FD3AC" />
<path d="M1253.4,262.42L1253.4,371.59" style="fill:none;stroke:#1FD3AC" />
<path d="M1250.9,262.42L1255.9,262.42" style="fill:none;stroke:#1FD3AC" />
<path d="M1250.9,371.59L1255.9,371.59" style="fill:none;stroke:#1FD3AC" />
<path d="M1270.7,260.1L1270.7,395.47" style="fill:none;stroke:#1FD3AC" />
<path d="M1268.2,260.1L1273.2,260.1" style="fill:none;stroke:#1FD3AC" />
<path d="M1268.2,395.47L1273.2,395.47" style="fill:none;stroke:#1FD3AC" />
<path d="M1288,348.72L1288,486.91" style="fill:none;stroke:#1FD3AC" />
<path d="M1285.5,348.72L1290.5,348.72" style="fill:none;stroke:#1FD3AC" />
<path d="M1285.5,486.91L1290.5,486.91" style="fill:none;stroke:#1FD3AC" />
<path d="M120.2,429.78A8,8 0 1 1 104.2,429.78A8,8 0 1 1 120.2,429.78Z" style="fill:#1FD3AC" />
<path d="M137.49,432.91A8,8 0 1 1 121.49,432.91A8,8 0 1 1 137.49,432.91Z" style="fill:#1FD3AC" />
<path d="M154.78,410.34A8,8 0 1 1 138.78,410.34A8,8 0 1 1 154.78,410.34Z" style="fill:#1FD3AC" />
<path d="M172.07,421.17A8,8 0 1 1 156.07,421.17A8,8 0 1 1 172.07,421.17Z" style="fill:#1FD3AC" />
<path d="M189.36,346.67A8,8 0 1 1 173.36,346.67A8,8 0 1 1 189.36,346.67Z" style="fill:#1FD3AC" />
<path d="M206.65,418.84A8,8 0 1 1 190.65,418.84A8,8 0 1 1 206.65,418.84Z" style="fill:#1FD3AC" />
<path d="M223.94,317.78A8,8 0 1 1 207.94,317.78A8,8 0 1 1 223.94,317.78Z" style="fill:#1FD3AC" />
<path d="M241.24,410.41A8,8 0 1 1 225.24,410.41A8,8 0 1 1 241.24,410.41Z" style="fill:#1FD3AC" />
<path d="M258.53,466.83A8,8 0 1 1 242.53,466.83A8,8 0 1 1 258.53,466.83Z" style="fill:#1FD3AC" />
<path d="M275.82,434.79A8,8 0 1 1 259.82,434.79A8,8 0 1 1 275.82,434.79Z" style="fill:#1FD3AC" />
<path d="M293.11,427.68A8,8 0 1 1 277.11,427.68A8,8 0 1 1 293.11,427.68Z" style="fill:#1FD3AC" />
<path d="M310.4,406.77A8,8 0 1 1 294.4,406.77A8,8 0 1 1 310.4,406.77Z" style="fill:#1FD3AC" />
<path d="M327.69,502.36A8,8 0 1 1 311.69,502.36A8,8 0 1 1 327.69,502.36Z" style="fill:#1FD3AC" />
<path d="M344.98,382.13A8,8 0 1 1 328.98,382.13A8,8 0 1 1 344.98,382.13Z" style="fill:#1FD3AC" />
<path d="M362.27,407.89A8,8 0 1 1 346.27,407.89A8,8 0 1 1 362.27,407.89Z" style="fill:#1FD3AC" />
<path d="M379.57,350.92A8,8 0 1 1 363.57,350.92A8,8 0 1 1 379.57,350.92Z" style="fill:#1FD3AC" />
<path d="M396.86,332.47A8,8 0 1 1 380.86,332.47A8,8 0 1 1 396.86,332.47Z" style="fill:#1FD3AC" />
<path d="M414.15,404.19A8,8 0 1 1 398.15,404.19A8,8 0 1 1 414.15,404.19Z" style="fill:#1FD3AC" />
<path d="M431.44,394.29A8,8 0 1 1 415.44,394.29A8,8 0 1 1 431.44,394.29Z" style="fill:#1FD3AC" />
<path d="M448.73,418.59A8,8 0 1 1 432.73,418.59A8,8 0 1 1 448.73,418.59Z" style="fill:#1FD3AC" />
<path d="M466.02,418.41A8,8 0 1 1 450.02,418.41A8,8 0 1 1 466.02,418.41Z" style="fill:#1FD3AC" />
<path d="M483.31,375.34A8,8 0 1 1 467.31,375.34A8,8 0 1 1 483.31,375.34Z" style="fill:#1FD3AC" />
<path d="M500.6,373.93A8,8 0 1 1 484.6,373.93A8,8 0 1 1 500.6,373.93Z" style="fill:#1FD3AC" />
<path d="M517.89,443.39A8,8 0 1 1 501.89,443.39A8,8 0 1 1 517.89,443.39Z" style="fill:#1FD3AC" />
<path d="M535.19,409.5A8,8 0 1 1 519.19,409.5A8,8 0 1 1 535.19,409.5Z" style="fill:#1FD3AC" />
<path d="M552.48,578.53A8,8 0 1 1 536.48,578.53A8,8 0 1 1 552.48,578.53Z" style="fill:#1FD3AC" />
<path d="M569.77,490.04A8,8 0 1 1 553.77,490.04A8,8 0 1 1 569.77,490.04Z" style="fill:#1FD3AC" />
<path d="M587.06,421.28A8,8 0 1 1 571.06,421.28A8,8 0 1 1 587.06,421.28Z" style="fill:#1FD3AC" />
<path d="M604.35,399.94A8,8 0 1 1 588.35,399.94A8,8 0 1 1 604.35,399.94Z" style="fill:#1FD3AC" />
<path d="M621.64,463.52A8,8 0 1 1 605.64,463.52A8,8 0 1 1 621.64,463.52Z" style="fill:#1FD3AC" />
<path d="M638.93,429.18A8,8 0 1 1 622.93,429.18A8,8 0 1 1 638.93,429.18Z" style="fill:#1FD3AC" />
<path d="M656.22,497.28A8,8 0 1 1 640.22,497.28A8,8 0 1 1 656.22,497.28Z" style="fill:#1FD3AC" />
<path d="M673.52,511.14A8,8 0 1 1 657.52,511.14A8,8 0 1 1 673.52,511.14Z" style="fill:#1FD3AC" />
<path d="M690.81,549.8A8,8 0 1 1 674.81,549.8A8,8 0 1 1 690.81,549.8Z" style="fill:#1FD3AC" />
<path d="M708.1,551.91A8,8 0 1 1 692.1,551.91A8,8 0 1 1 708.1,551.91Z" style="fill:#1FD3AC" />
<path d="M725.39,608.3A8,8 0 1 1 709.39,608.3A8,8 0 1 1 725.39,608.3Z" style="fill:#1FD3AC" />
<path d="M742.68,729.82A8,8 0 1 1 726.68,729.82A8,8 0 1 1 742.68,729.82Z" style="fill:#1FD3AC" />
<path d="M759.97,771.77A8,8 0 1 1 743.97,771.77A8,8 0 1 1 759.97,771.77Z" style="fill:#1FD3AC" />
<path d="M777.26,768.06A8,8 0 1 1 761.26,768.06A8,8 0 1 1 777.26,768.06Z" style="fill:#1FD3AC" />
<path d="M794.55,870.3A8,8 0 1 1 778.55,870.3A8,8 0 1 1 794.55,870.3Z" style="fill:#1FD3AC" />
<path d="M811.85,921.04A8,8 0 1 1 795.85,921.04A8,8 0 1 1 811.85,921.04Z" style="fill:#1FD3AC" />
<path d="M829.14,866.73A8,8 0 1 1 813.14,866.73A8,8 0 1 1 829.14,866.73Z" style="fill:#1FD3AC" />
<path d="M846.43,772.98A8,8 0 1 1 830.43,772.98A8,8 0 1 1 846.43,772.98Z" style="fill:#1FD3AC" />
<path d="M863.72,700.09A8,8 0 1 1 847.72,700.09A8,8 0 1 1 863.72,700.09Z" style="fill:#1FD3AC" />
<path d="M881.01,654.17A8,8 0 1 1 865.01,654.17A8,8 0 1 1 881.01,654.17Z" style="fill:#1FD3AC" />
<path d="M898.3,699.73A8,8 0 1 1 882.3,699.73A8,8 0 1 1 898.3,699.73Z" style="fill:#1FD3AC" />
<path d="M915.59,619.93A8,8 0 1 1 899.59,619.93A8,8 0 1 1 915.59,619.93Z" style="fill:#1FD3AC" />
<path d="M932.88,582.63A8,8 0 1 1 916.88,582.63A8,8 0 1 1 932.88,582.63Z" style="fill:#1FD3AC" />
<path d="M950.18,559.21A8,8 0 1 1 934.18,559.21A8,8 0 1 1 950.18,559.21Z" style="fill:#1FD3AC" />
<path d="M967.47,497.34A8,8 0 1 1 951.47,497.34A8,8 0 1 1 967.47,497.34Z" style="fill:#1FD3AC" />
<path d="M984.76,434.82A8,8 0 1 1 968.76,434.82A8,8 0 1 1 984.76,434.82Z" style="fill:#1FD3AC" />
<path d="M1002,402.82A8,8 0 1 1 986.05,402.82A8,8 0 1 1 1002,402.82Z" style="fill:#1FD3AC" />
<path d="M1019.3,454.2A8,8 0 1 1 1003.3,454.2A8,8 0 1 1 1019.3,454.2Z" style="fill:#1FD3AC" />
<path d="M1036.6,322.04A8,8 0 1 1 1020.6,322.04A8,8 0 1 1 1036.6,322.04Z" style="fill:#1FD3AC" />
<path d="M1053.9,422.99A8,8 0 1 1 1037.9,422.99A8,8 0 1 1 1053.9,422.99Z" style="fill:#1FD3AC" />
<path d="M1071.2,394.44A8,8 0 1 1 1055.2,394.44A8,8 0 1 1 1071.2,394.44Z" style="fill:#1FD3AC" />
<path d="M1088.5,449.38A8,8 0 1 1 1072.5,449.38A8,8 0 1 1 1088.5,449.38Z" style="fill:#1FD3AC" />
<path d="M1105.8,458.3A8,8 0 1 1 1089.8,458.3A8,8 0 1 1 1105.8,458.3Z" style="fill:#1FD3AC" />
<path d="M1123.1,448.99A8,8 0 1 1 1107.1,448.99A8,8 0 1 1 1123.1,448.99Z" style="fill:#1FD3AC" />
<path d="M1140.4,337.51A8,8 0 1 1 1124.4,337.51A8,8 0 1 1 1140.4,337.51Z" style="fill:#1FD3AC" />
<path d="M1157.7,276.82A8,8 0 1 1 1141.7,276.82A8,8 0 1 1 1157.7,276.82Z" style="fill:#1FD3AC" />
<path d="M1175,348.53A8,8 0 1 1 1159,348.53A8,8 0 1 1 1175,348.53Z" style="fill:#1FD3AC" />
<path d="M1192.3,332.05A8,8 0 1 1 1176.3,332.05A8,8 0 1 1 1192.3,332.05Z" style="fill:#1FD3AC" />
<path d="M1209.5,291.56A8,8 0 1 1 1193.5,291.56A8,8 0 1 1 1209.5,291.56Z" style="fill:#1FD3AC" />
<path d="M1226.8,375.46A8,8 0 1 1 1210.8,375.46A8,8 0 1 1 1226.8,375.46Z" style="fill:#1FD3AC" />
<path d="M1244.1,306.63A8,8 0 1 1 1228.1,306.63A8,8 0 1 1 1244.1,306.63Z" style="fill:#1FD3AC" />
<path d="M1261.4,317.01A8,8 0 1 1 1245.4,317.01A8,8 0 1 1 1261.4,317.01Z" style="fill:#1FD3AC" />
<path d="M1278.7,327.79A8,8 0 1 1 1262.7,327.79A8,8 0 1 1 1278.7,327.79Z" style="fill:#1FD3AC" />
<path d="M1296,417.82A8,8 0 1 1 1280,417.82A8,8 0 1 1 1296,417.82Z" style="fill:#1FD3AC" />
<path d="M112.2,1019.1L1288,1019.1" style="fill:none;stroke:#000000;stroke-width:2.5" />
<path d="M1288,87.824L1288,1019.1" style="fill:none;stroke:#000000;stroke-width:2.5" />
<path d="M1229,964.69A8,8 0 1 1 1213,964.69A8,8 0 1 1 1229,964.69Z" style="fill:#1FD3AC" />
<text x="1020.9" y="-957.62" transform="scale(1, -1)"
	style="font-family:Liberation Sans;font-variant:normal;font-weight:normal;font-style:normal;font-size:30px">100 um CS2</text>
</g>
</svg>
