<?xml version="1.0"?>
<!-- Generated by SVGo and Plotinum VG -->
<svg width="1080pt" height="1080pt" viewBox="0 0 1080 1080"
	xmlns="http://www.w3.org/2000/svg"
	xmlns:xlink="http://www.w3.org/1999/xlink">
<g transform="scale(1, -1) translate(0, -1080)">
<path d="M0,0L1080,0L1080,1080L0,1080Z" style="fill:#-8000000000000000-8000000000000000-8000000000000000;fill-opacity:0" />
<text x="528.89" y="-1015.2" transform="scale(1, -1)"
	style="font-family:Helvetica;font-weight:normal;font-style:normal;font-size:80px"> </text>
<text x="388.22" y="-17.172" transform="scale(1, -1)"
	style="font-family:Helvetica;font-weight:normal;font-style:normal;font-size:56px">Pump Power (mW)</text>
<text x="200.51" y="-119.73" transform="scale(1, -1)"
	style="font-family:Helvetica;font-weight:normal;font-style:normal;font-size:56px">0</text>
<text x="389.24" y="-119.73" transform="scale(1, -1)"
	style="font-family:Helvetica;font-weight:normal;font-style:normal;font-size:56px">50</text>
<text x="577.97" y="-119.73" transform="scale(1, -1)"
	style="font-family:Helvetica;font-weight:normal;font-style:normal;font-size:56px">100</text>
<text x="782.27" y="-119.73" transform="scale(1, -1)"
	style="font-family:Helvetica;font-weight:normal;font-style:normal;font-size:56px">150</text>
<text x="986.57" y="-119.73" transform="scale(1, -1)"
	style="font-family:Helvetica;font-weight:normal;font-style:normal;font-size:56px">200</text>
<path d="M216.09,181.12L216.09,173.12" style="fill:none;stroke:#000000;stroke-width:1.5" />
<path d="M318.24,177.12L318.24,173.12" style="fill:none;stroke:#000000;stroke-width:1.5" />
<path d="M420.39,181.12L420.39,173.12" style="fill:none;stroke:#000000;stroke-width:1.5" />
<path d="M522.53,177.12L522.53,173.12" style="fill:none;stroke:#000000;stroke-width:1.5" />
<path d="M624.68,181.12L624.68,173.12" style="fill:none;stroke:#000000;stroke-width:1.5" />
<path d="M726.83,177.12L726.83,173.12" style="fill:none;stroke:#000000;stroke-width:1.5" />
<path d="M828.98,181.12L828.98,173.12" style="fill:none;stroke:#000000;stroke-width:1.5" />
<path d="M931.13,177.12L931.13,173.12" style="fill:none;stroke:#000000;stroke-width:1.5" />
<path d="M1033.3,181.12L1033.3,173.12" style="fill:none;stroke:#000000;stroke-width:1.5" />
<path d="M216.09,173.12L1033.3,173.12" style="fill:none;stroke:#000000;stroke-width:1.5" />
<g transform="rotate(90)">
<text x="204.67" y="45.391" transform="scale(1, -1)"
	style="font-family:Helvetica;font-weight:normal;font-style:normal;font-size:56px">Stokes/Anti-Stokes Heights</text>
</g>
<text x="161.13" y="-163.13" transform="scale(1, -1)"
	style="font-family:Helvetica;font-weight:normal;font-style:normal;font-size:56px">1</text>
<text x="114.43" y="-296.48" transform="scale(1, -1)"
	style="font-family:Helvetica;font-weight:normal;font-style:normal;font-size:56px">1.5</text>
<text x="161.13" y="-429.82" transform="scale(1, -1)"
	style="font-family:Helvetica;font-weight:normal;font-style:normal;font-size:56px">2</text>
<text x="114.43" y="-563.16" transform="scale(1, -1)"
	style="font-family:Helvetica;font-weight:normal;font-style:normal;font-size:56px">2.5</text>
<text x="161.13" y="-696.5" transform="scale(1, -1)"
	style="font-family:Helvetica;font-weight:normal;font-style:normal;font-size:56px">3</text>
<text x="114.43" y="-829.84" transform="scale(1, -1)"
	style="font-family:Helvetica;font-weight:normal;font-style:normal;font-size:56px">3.5</text>
<path d="M223.84,177.24L215.84,177.24" style="fill:none;stroke:#000000;stroke-width:1.5" />
<path d="M219.84,243.91L215.84,243.91" style="fill:none;stroke:#000000;stroke-width:1.5" />
<path d="M223.84,310.58L215.84,310.58" style="fill:none;stroke:#000000;stroke-width:1.5" />
<path d="M219.84,377.26L215.84,377.26" style="fill:none;stroke:#000000;stroke-width:1.5" />
<path d="M223.84,443.93L215.84,443.93" style="fill:none;stroke:#000000;stroke-width:1.5" />
<path d="M219.84,510.6L215.84,510.6" style="fill:none;stroke:#000000;stroke-width:1.5" />
<path d="M223.84,577.27L215.84,577.27" style="fill:none;stroke:#000000;stroke-width:1.5" />
<path d="M219.84,643.94L215.84,643.94" style="fill:none;stroke:#000000;stroke-width:1.5" />
<path d="M223.84,710.61L215.84,710.61" style="fill:none;stroke:#000000;stroke-width:1.5" />
<path d="M219.84,777.28L215.84,777.28" style="fill:none;stroke:#000000;stroke-width:1.5" />
<path d="M223.84,843.95L215.84,843.95" style="fill:none;stroke:#000000;stroke-width:1.5" />
<path d="M215.84,177.24L215.84,910.62" style="fill:none;stroke:#000000;stroke-width:1.5" />
<path d="M988.34,800.42L943.39,765.49L894.36,727.38L845.33,689.27L800.38,654.34L763.61,625.76L718.66,590.83L649.2,536.84L600.17,498.73L559.31,466.97L514.36,432.04L465.33,393.93L391.78,336.77L346.84,301.84L314.15,276.43L273.29,244.68" style="fill:none;stroke:#7F7F7F;stroke-width:3" />
<path d="M216.09,910.62L1033.3,910.62" style="fill:none;stroke:#000000" />
<path d="M1033.3,177.24L1033.3,910.62" style="fill:none;stroke:#000000" />
<path d="M994.34,851.14A6,6 0 1 1 982.34,851.14A6,6 0 1 1 994.34,851.14Z" style="fill:#1BAA8B" />
<path d="M949.39,757.94A6,6 0 1 1 937.39,757.94A6,6 0 1 1 949.39,757.94Z" style="fill:#1BAA8B" />
<path d="M900.36,682.4A6,6 0 1 1 888.36,682.4A6,6 0 1 1 900.36,682.4Z" style="fill:#1BAA8B" />
<path d="M851.33,673.88A6,6 0 1 1 839.33,673.88A6,6 0 1 1 851.33,673.88Z" style="fill:#1BAA8B" />
<path d="M806.38,668.38A6,6 0 1 1 794.38,668.38A6,6 0 1 1 806.38,668.38Z" style="fill:#1BAA8B" />
<path d="M769.61,628.87A6,6 0 1 1 757.61,628.87A6,6 0 1 1 769.61,628.87Z" style="fill:#1BAA8B" />
<path d="M724.66,585.18A6,6 0 1 1 712.66,585.18A6,6 0 1 1 724.66,585.18Z" style="fill:#1BAA8B" />
<path d="M655.2,521.62A6,6 0 1 1 643.2,521.62A6,6 0 1 1 655.2,521.62Z" style="fill:#1BAA8B" />
<path d="M606.17,487.09A6,6 0 1 1 594.17,487.09A6,6 0 1 1 606.17,487.09Z" style="fill:#1BAA8B" />
<path d="M565.31,454.78A6,6 0 1 1 553.31,454.78A6,6 0 1 1 565.31,454.78Z" style="fill:#1BAA8B" />
<path d="M520.36,449.23A6,6 0 1 1 508.36,449.23A6,6 0 1 1 520.36,449.23Z" style="fill:#1BAA8B" />
<path d="M471.33,408.23A6,6 0 1 1 459.33,408.23A6,6 0 1 1 471.33,408.23Z" style="fill:#1BAA8B" />
<path d="M397.78,375.56A6,6 0 1 1 385.78,375.56A6,6 0 1 1 397.78,375.56Z" style="fill:#1BAA8B" />
<path d="M352.84,308.69A6,6 0 1 1 340.84,308.69A6,6 0 1 1 352.84,308.69Z" style="fill:#1BAA8B" />
<path d="M320.15,279.86A6,6 0 1 1 308.15,279.86A6,6 0 1 1 320.15,279.86Z" style="fill:#1BAA8B" />
<path d="M279.29,208.87A6,6 0 1 1 267.29,208.87A6,6 0 1 1 279.29,208.87Z" style="fill:#1BAA8B" />
</g>
</svg>
