<?xml version="1.0"?>
<!-- Generated by SVGo and Plotinum VG -->
<svg width="1080pt" height="1080pt" viewBox="0 0 1080 1080"
	xmlns="http://www.w3.org/2000/svg"
	xmlns:xlink="http://www.w3.org/1999/xlink">
<g transform="scale(1, -1) translate(0, -1080)">
<path d="M0,0L1080,0L1080,1080L0,1080Z" style="fill:#-8000000000000000-8000000000000000-8000000000000000;fill-opacity:0" />
<text x="307.93" y="-1039.5" transform="scale(1, -1)"
	style="font-family:Helvetica;font-weight:normal;font-style:normal;font-size:50px">0.0 no sample CABS</text>
<text x="465.06" y="-11.039" transform="scale(1, -1)"
	style="font-family:Helvetica;font-weight:normal;font-style:normal;font-size:36px">Frequency (GHz)</text>
<text x="118.96" y="-71.258" transform="scale(1, -1)"
	style="font-family:Helvetica;font-weight:normal;font-style:normal;font-size:36px">1</text>
<text x="549.98" y="-71.258" transform="scale(1, -1)"
	style="font-family:Helvetica;font-weight:normal;font-style:normal;font-size:36px">2</text>
<text x="981.01" y="-71.258" transform="scale(1, -1)"
	style="font-family:Helvetica;font-weight:normal;font-style:normal;font-size:36px">3</text>
<path d="M128.97,116.44L128.97,108.44" style="fill:none;stroke:#000000;stroke-width:1.5" />
<path d="M344.48,112.44L344.48,108.44" style="fill:none;stroke:#000000;stroke-width:1.5" />
<path d="M559.99,116.44L559.99,108.44" style="fill:none;stroke:#000000;stroke-width:1.5" />
<path d="M775.51,112.44L775.51,108.44" style="fill:none;stroke:#000000;stroke-width:1.5" />
<path d="M991.02,116.44L991.02,108.44" style="fill:none;stroke:#000000;stroke-width:1.5" />
<path d="M128.97,108.44L1077.2,108.44" style="fill:none;stroke:#000000;stroke-width:1.5" />
<g transform="rotate(90)">
<text x="369.17" y="29.18" transform="scale(1, -1)"
	style="font-family:Helvetica;font-weight:normal;font-style:normal;font-size:36px">Spectral Density (pV)</text>
</g>
<text x="87.869" y="-253.11" transform="scale(1, -1)"
	style="font-family:Helvetica;font-weight:normal;font-style:normal;font-size:36px">2</text>
<text x="87.869" y="-354.12" transform="scale(1, -1)"
	style="font-family:Helvetica;font-weight:normal;font-style:normal;font-size:36px">6</text>
<text x="67.848" y="-455.13" transform="scale(1, -1)"
	style="font-family:Helvetica;font-weight:normal;font-style:normal;font-size:36px">10</text>
<text x="67.848" y="-556.14" transform="scale(1, -1)"
	style="font-family:Helvetica;font-weight:normal;font-style:normal;font-size:36px">14</text>
<text x="67.848" y="-657.15" transform="scale(1, -1)"
	style="font-family:Helvetica;font-weight:normal;font-style:normal;font-size:36px">18</text>
<text x="67.848" y="-758.16" transform="scale(1, -1)"
	style="font-family:Helvetica;font-weight:normal;font-style:normal;font-size:36px">22</text>
<path d="M129.89,211.67L125.89,211.67" style="fill:none;stroke:#000000;stroke-width:1.5" />
<path d="M133.89,262.18L125.89,262.18" style="fill:none;stroke:#000000;stroke-width:1.5" />
<path d="M129.89,312.68L125.89,312.68" style="fill:none;stroke:#000000;stroke-width:1.5" />
<path d="M133.89,363.19L125.89,363.19" style="fill:none;stroke:#000000;stroke-width:1.5" />
<path d="M129.89,413.69L125.89,413.69" style="fill:none;stroke:#000000;stroke-width:1.5" />
<path d="M133.89,464.2L125.89,464.2" style="fill:none;stroke:#000000;stroke-width:1.5" />
<path d="M129.89,514.7L125.89,514.7" style="fill:none;stroke:#000000;stroke-width:1.5" />
<path d="M133.89,565.21L125.89,565.21" style="fill:none;stroke:#000000;stroke-width:1.5" />
<path d="M129.89,615.71L125.89,615.71" style="fill:none;stroke:#000000;stroke-width:1.5" />
<path d="M133.89,666.22L125.89,666.22" style="fill:none;stroke:#000000;stroke-width:1.5" />
<path d="M129.89,716.72L125.89,716.72" style="fill:none;stroke:#000000;stroke-width:1.5" />
<path d="M133.89,767.23L125.89,767.23" style="fill:none;stroke:#000000;stroke-width:1.5" />
<path d="M129.89,817.73L125.89,817.73" style="fill:none;stroke:#000000;stroke-width:1.5" />
<path d="M125.89,109.32L125.89,969.14" style="fill:none;stroke:#000000;stroke-width:1.5" />
<path d="M136.14,259.95A5,5 0 1 1 126.14,259.95A5,5 0 1 1 136.14,259.95Z" style="fill:#1FD3AC" />
<path d="M138.32,283.87A5,5 0 1 1 128.32,283.87A5,5 0 1 1 138.32,283.87Z" style="fill:#1FD3AC" />
<path d="M140.49,272.99A5,5 0 1 1 130.49,272.99A5,5 0 1 1 140.49,272.99Z" style="fill:#1FD3AC" />
<path d="M142.67,248.56A5,5 0 1 1 132.67,248.56A5,5 0 1 1 142.67,248.56Z" style="fill:#1FD3AC" />
<path d="M144.84,269.43A5,5 0 1 1 134.84,269.43A5,5 0 1 1 144.84,269.43Z" style="fill:#1FD3AC" />
<path d="M147.02,275.37A5,5 0 1 1 137.02,275.37A5,5 0 1 1 147.02,275.37Z" style="fill:#1FD3AC" />
<path d="M149.19,241.19A5,5 0 1 1 139.19,241.19A5,5 0 1 1 149.19,241.19Z" style="fill:#1FD3AC" />
<path d="M151.37,266.21A5,5 0 1 1 141.37,266.21A5,5 0 1 1 151.37,266.21Z" style="fill:#1FD3AC" />
<path d="M153.54,326.67A5,5 0 1 1 143.54,326.67A5,5 0 1 1 153.54,326.67Z" style="fill:#1FD3AC" />
<path d="M155.72,297.29A5,5 0 1 1 145.72,297.29A5,5 0 1 1 155.72,297.29Z" style="fill:#1FD3AC" />
<path d="M157.89,342.08A5,5 0 1 1 147.89,342.08A5,5 0 1 1 157.89,342.08Z" style="fill:#1FD3AC" />
<path d="M160.07,319.14A5,5 0 1 1 150.07,319.14A5,5 0 1 1 160.07,319.14Z" style="fill:#1FD3AC" />
<path d="M162.24,355.76A5,5 0 1 1 152.24,355.76A5,5 0 1 1 162.24,355.76Z" style="fill:#1FD3AC" />
<path d="M164.41,301.21A5,5 0 1 1 154.41,301.21A5,5 0 1 1 164.41,301.21Z" style="fill:#1FD3AC" />
<path d="M166.59,299.24A5,5 0 1 1 156.59,299.24A5,5 0 1 1 166.59,299.24Z" style="fill:#1FD3AC" />
<path d="M168.76,359.28A5,5 0 1 1 158.76,359.28A5,5 0 1 1 168.76,359.28Z" style="fill:#1FD3AC" />
<path d="M170.94,442.96A5,5 0 1 1 160.94,442.96A5,5 0 1 1 170.94,442.96Z" style="fill:#1FD3AC" />
<path d="M173.11,409.89A5,5 0 1 1 163.11,409.89A5,5 0 1 1 173.11,409.89Z" style="fill:#1FD3AC" />
<path d="M175.29,317.7A5,5 0 1 1 165.29,317.7A5,5 0 1 1 175.29,317.7Z" style="fill:#1FD3AC" />
<path d="M177.46,300.44A5,5 0 1 1 167.46,300.44A5,5 0 1 1 177.46,300.44Z" style="fill:#1FD3AC" />
<path d="M179.64,327.68A5,5 0 1 1 169.64,327.68A5,5 0 1 1 179.64,327.68Z" style="fill:#1FD3AC" />
<path d="M181.81,374.07A5,5 0 1 1 171.81,374.07A5,5 0 1 1 181.81,374.07Z" style="fill:#1FD3AC" />
<path d="M183.99,360.3A5,5 0 1 1 173.99,360.3A5,5 0 1 1 183.99,360.3Z" style="fill:#1FD3AC" />
<path d="M186.16,400.88A5,5 0 1 1 176.16,400.88A5,5 0 1 1 186.16,400.88Z" style="fill:#1FD3AC" />
<path d="M188.34,328.78A5,5 0 1 1 178.34,328.78A5,5 0 1 1 188.34,328.78Z" style="fill:#1FD3AC" />
<path d="M190.51,339.49A5,5 0 1 1 180.51,339.49A5,5 0 1 1 190.51,339.49Z" style="fill:#1FD3AC" />
<path d="M192.69,354.62A5,5 0 1 1 182.69,354.62A5,5 0 1 1 192.69,354.62Z" style="fill:#1FD3AC" />
<path d="M194.86,377A5,5 0 1 1 184.86,377A5,5 0 1 1 194.86,377Z" style="fill:#1FD3AC" />
<path d="M197.04,320.88A5,5 0 1 1 187.04,320.88A5,5 0 1 1 197.04,320.88Z" style="fill:#1FD3AC" />
<path d="M199.21,411.24A5,5 0 1 1 189.21,411.24A5,5 0 1 1 199.21,411.24Z" style="fill:#1FD3AC" />
<path d="M201.39,431.38A5,5 0 1 1 191.39,431.38A5,5 0 1 1 201.39,431.38Z" style="fill:#1FD3AC" />
<path d="M203.56,408.14A5,5 0 1 1 193.56,408.14A5,5 0 1 1 203.56,408.14Z" style="fill:#1FD3AC" />
<path d="M205.74,327.45A5,5 0 1 1 195.74,327.45A5,5 0 1 1 205.74,327.45Z" style="fill:#1FD3AC" />
<path d="M207.91,378.9A5,5 0 1 1 197.91,378.9A5,5 0 1 1 207.91,378.9Z" style="fill:#1FD3AC" />
<path d="M210.09,276.97A5,5 0 1 1 200.09,276.97A5,5 0 1 1 210.09,276.97Z" style="fill:#1FD3AC" />
<path d="M212.26,293.7A5,5 0 1 1 202.26,293.7A5,5 0 1 1 212.26,293.7Z" style="fill:#1FD3AC" />
<path d="M214.43,272.2A5,5 0 1 1 204.43,272.2A5,5 0 1 1 214.43,272.2Z" style="fill:#1FD3AC" />
<path d="M216.61,316.69A5,5 0 1 1 206.61,316.69A5,5 0 1 1 216.61,316.69Z" style="fill:#1FD3AC" />
<path d="M218.78,351.98A5,5 0 1 1 208.78,351.98A5,5 0 1 1 218.78,351.98Z" style="fill:#1FD3AC" />
<path d="M220.96,333.96A5,5 0 1 1 210.96,333.96A5,5 0 1 1 220.96,333.96Z" style="fill:#1FD3AC" />
<path d="M223.13,251.79A5,5 0 1 1 213.13,251.79A5,5 0 1 1 223.13,251.79Z" style="fill:#1FD3AC" />
<path d="M225.31,280.1A5,5 0 1 1 215.31,280.1A5,5 0 1 1 225.31,280.1Z" style="fill:#1FD3AC" />
<path d="M227.48,262.68A5,5 0 1 1 217.48,262.68A5,5 0 1 1 227.48,262.68Z" style="fill:#1FD3AC" />
<path d="M229.66,279.63A5,5 0 1 1 219.66,279.63A5,5 0 1 1 229.66,279.63Z" style="fill:#1FD3AC" />
<path d="M231.83,261.59A5,5 0 1 1 221.83,261.59A5,5 0 1 1 231.83,261.59Z" style="fill:#1FD3AC" />
<path d="M234.01,261.86A5,5 0 1 1 224.01,261.86A5,5 0 1 1 234.01,261.86Z" style="fill:#1FD3AC" />
<path d="M236.18,223.83A5,5 0 1 1 226.18,223.83A5,5 0 1 1 236.18,223.83Z" style="fill:#1FD3AC" />
<path d="M238.36,255.74A5,5 0 1 1 228.36,255.74A5,5 0 1 1 238.36,255.74Z" style="fill:#1FD3AC" />
<path d="M240.53,251.56A5,5 0 1 1 230.53,251.56A5,5 0 1 1 240.53,251.56Z" style="fill:#1FD3AC" />
<path d="M242.71,310.5A5,5 0 1 1 232.71,310.5A5,5 0 1 1 242.71,310.5Z" style="fill:#1FD3AC" />
<path d="M244.88,275.81A5,5 0 1 1 234.88,275.81A5,5 0 1 1 244.88,275.81Z" style="fill:#1FD3AC" />
<path d="M247.06,267.6A5,5 0 1 1 237.06,267.6A5,5 0 1 1 247.06,267.6Z" style="fill:#1FD3AC" />
<path d="M249.23,246.52A5,5 0 1 1 239.23,246.52A5,5 0 1 1 249.23,246.52Z" style="fill:#1FD3AC" />
<path d="M251.41,216.2A5,5 0 1 1 241.41,216.2A5,5 0 1 1 251.41,216.2Z" style="fill:#1FD3AC" />
<path d="M253.58,258.74A5,5 0 1 1 243.58,258.74A5,5 0 1 1 253.58,258.74Z" style="fill:#1FD3AC" />
<path d="M255.76,273.12A5,5 0 1 1 245.76,273.12A5,5 0 1 1 255.76,273.12Z" style="fill:#1FD3AC" />
<path d="M257.93,274.3A5,5 0 1 1 247.93,274.3A5,5 0 1 1 257.93,274.3Z" style="fill:#1FD3AC" />
<path d="M260.11,291.19A5,5 0 1 1 250.11,291.19A5,5 0 1 1 260.11,291.19Z" style="fill:#1FD3AC" />
<path d="M262.28,266.1A5,5 0 1 1 252.28,266.1A5,5 0 1 1 262.28,266.1Z" style="fill:#1FD3AC" />
<path d="M264.45,265.25A5,5 0 1 1 254.45,265.25A5,5 0 1 1 264.45,265.25Z" style="fill:#1FD3AC" />
<path d="M266.63,286.2A5,5 0 1 1 256.63,286.2A5,5 0 1 1 266.63,286.2Z" style="fill:#1FD3AC" />
<path d="M268.8,309.72A5,5 0 1 1 258.8,309.72A5,5 0 1 1 268.8,309.72Z" style="fill:#1FD3AC" />
<path d="M270.98,294.7A5,5 0 1 1 260.98,294.7A5,5 0 1 1 270.98,294.7Z" style="fill:#1FD3AC" />
<path d="M273.15,294.96A5,5 0 1 1 263.15,294.96A5,5 0 1 1 273.15,294.96Z" style="fill:#1FD3AC" />
<path d="M275.33,277.09A5,5 0 1 1 265.33,277.09A5,5 0 1 1 275.33,277.09Z" style="fill:#1FD3AC" />
<path d="M277.5,233.76A5,5 0 1 1 267.5,233.76A5,5 0 1 1 277.5,233.76Z" style="fill:#1FD3AC" />
<path d="M279.68,282.75A5,5 0 1 1 269.68,282.75A5,5 0 1 1 279.68,282.75Z" style="fill:#1FD3AC" />
<path d="M281.85,290.66A5,5 0 1 1 271.85,290.66A5,5 0 1 1 281.85,290.66Z" style="fill:#1FD3AC" />
<path d="M284.03,305.33A5,5 0 1 1 274.03,305.33A5,5 0 1 1 284.03,305.33Z" style="fill:#1FD3AC" />
<path d="M286.2,330.05A5,5 0 1 1 276.2,330.05A5,5 0 1 1 286.2,330.05Z" style="fill:#1FD3AC" />
<path d="M288.38,299.18A5,5 0 1 1 278.38,299.18A5,5 0 1 1 288.38,299.18Z" style="fill:#1FD3AC" />
<path d="M290.55,304.56A5,5 0 1 1 280.55,304.56A5,5 0 1 1 290.55,304.56Z" style="fill:#1FD3AC" />
<path d="M292.73,269.76A5,5 0 1 1 282.73,269.76A5,5 0 1 1 292.73,269.76Z" style="fill:#1FD3AC" />
<path d="M294.9,282.18A5,5 0 1 1 284.9,282.18A5,5 0 1 1 294.9,282.18Z" style="fill:#1FD3AC" />
<path d="M297.08,281.51A5,5 0 1 1 287.08,281.51A5,5 0 1 1 297.08,281.51Z" style="fill:#1FD3AC" />
<path d="M299.25,304.94A5,5 0 1 1 289.25,304.94A5,5 0 1 1 299.25,304.94Z" style="fill:#1FD3AC" />
<path d="M301.43,298.7A5,5 0 1 1 291.43,298.7A5,5 0 1 1 301.43,298.7Z" style="fill:#1FD3AC" />
<path d="M303.6,352.33A5,5 0 1 1 293.6,352.33A5,5 0 1 1 303.6,352.33Z" style="fill:#1FD3AC" />
<path d="M305.78,337.1A5,5 0 1 1 295.78,337.1A5,5 0 1 1 305.78,337.1Z" style="fill:#1FD3AC" />
<path d="M307.95,288.36A5,5 0 1 1 297.95,288.36A5,5 0 1 1 307.95,288.36Z" style="fill:#1FD3AC" />
<path d="M310.13,305.63A5,5 0 1 1 300.13,305.63A5,5 0 1 1 310.13,305.63Z" style="fill:#1FD3AC" />
<path d="M312.3,343.53A5,5 0 1 1 302.3,343.53A5,5 0 1 1 312.3,343.53Z" style="fill:#1FD3AC" />
<path d="M314.48,347.51A5,5 0 1 1 304.48,347.51A5,5 0 1 1 314.48,347.51Z" style="fill:#1FD3AC" />
<path d="M316.65,367.99A5,5 0 1 1 306.65,367.99A5,5 0 1 1 316.65,367.99Z" style="fill:#1FD3AC" />
<path d="M318.82,357.92A5,5 0 1 1 308.82,357.92A5,5 0 1 1 318.82,357.92Z" style="fill:#1FD3AC" />
<path d="M321,346.14A5,5 0 1 1 311,346.14A5,5 0 1 1 321,346.14Z" style="fill:#1FD3AC" />
<path d="M323.17,393.2A5,5 0 1 1 313.17,393.2A5,5 0 1 1 323.17,393.2Z" style="fill:#1FD3AC" />
<path d="M325.35,379.92A5,5 0 1 1 315.35,379.92A5,5 0 1 1 325.35,379.92Z" style="fill:#1FD3AC" />
<path d="M327.52,365.02A5,5 0 1 1 317.52,365.02A5,5 0 1 1 327.52,365.02Z" style="fill:#1FD3AC" />
<path d="M329.7,380.21A5,5 0 1 1 319.7,380.21A5,5 0 1 1 329.7,380.21Z" style="fill:#1FD3AC" />
<path d="M331.87,402.57A5,5 0 1 1 321.87,402.57A5,5 0 1 1 331.87,402.57Z" style="fill:#1FD3AC" />
<path d="M334.05,333.85A5,5 0 1 1 324.05,333.85A5,5 0 1 1 334.05,333.85Z" style="fill:#1FD3AC" />
<path d="M336.22,357.57A5,5 0 1 1 326.22,357.57A5,5 0 1 1 336.22,357.57Z" style="fill:#1FD3AC" />
<path d="M338.4,388.94A5,5 0 1 1 328.4,388.94A5,5 0 1 1 338.4,388.94Z" style="fill:#1FD3AC" />
<path d="M340.57,372.64A5,5 0 1 1 330.57,372.64A5,5 0 1 1 340.57,372.64Z" style="fill:#1FD3AC" />
<path d="M342.75,368.41A5,5 0 1 1 332.75,368.41A5,5 0 1 1 342.75,368.41Z" style="fill:#1FD3AC" />
<path d="M344.92,384.7A5,5 0 1 1 334.92,384.7A5,5 0 1 1 344.92,384.7Z" style="fill:#1FD3AC" />
<path d="M347.1,420.14A5,5 0 1 1 337.1,420.14A5,5 0 1 1 347.1,420.14Z" style="fill:#1FD3AC" />
<path d="M349.27,371.49A5,5 0 1 1 339.27,371.49A5,5 0 1 1 349.27,371.49Z" style="fill:#1FD3AC" />
<path d="M351.45,439.56A5,5 0 1 1 341.45,439.56A5,5 0 1 1 351.45,439.56Z" style="fill:#1FD3AC" />
<path d="M353.62,373.63A5,5 0 1 1 343.62,373.63A5,5 0 1 1 353.62,373.63Z" style="fill:#1FD3AC" />
<path d="M355.8,327.73A5,5 0 1 1 345.8,327.73A5,5 0 1 1 355.8,327.73Z" style="fill:#1FD3AC" />
<path d="M357.97,382.02A5,5 0 1 1 347.97,382.02A5,5 0 1 1 357.97,382.02Z" style="fill:#1FD3AC" />
<path d="M360.15,377.66A5,5 0 1 1 350.15,377.66A5,5 0 1 1 360.15,377.66Z" style="fill:#1FD3AC" />
<path d="M362.32,379.38A5,5 0 1 1 352.32,379.38A5,5 0 1 1 362.32,379.38Z" style="fill:#1FD3AC" />
<path d="M364.5,449.58A5,5 0 1 1 354.5,449.58A5,5 0 1 1 364.5,449.58Z" style="fill:#1FD3AC" />
<path d="M366.67,420.56A5,5 0 1 1 356.67,420.56A5,5 0 1 1 366.67,420.56Z" style="fill:#1FD3AC" />
<path d="M368.84,412.27A5,5 0 1 1 358.84,412.27A5,5 0 1 1 368.84,412.27Z" style="fill:#1FD3AC" />
<path d="M371.02,462.16A5,5 0 1 1 361.02,462.16A5,5 0 1 1 371.02,462.16Z" style="fill:#1FD3AC" />
<path d="M373.19,405.37A5,5 0 1 1 363.19,405.37A5,5 0 1 1 373.19,405.37Z" style="fill:#1FD3AC" />
<path d="M375.37,350.38A5,5 0 1 1 365.37,350.38A5,5 0 1 1 375.37,350.38Z" style="fill:#1FD3AC" />
<path d="M377.54,375.11A5,5 0 1 1 367.54,375.11A5,5 0 1 1 377.54,375.11Z" style="fill:#1FD3AC" />
<path d="M379.72,366.62A5,5 0 1 1 369.72,366.62A5,5 0 1 1 379.72,366.62Z" style="fill:#1FD3AC" />
<path d="M381.89,405.6A5,5 0 1 1 371.89,405.6A5,5 0 1 1 381.89,405.6Z" style="fill:#1FD3AC" />
<path d="M384.07,421.13A5,5 0 1 1 374.07,421.13A5,5 0 1 1 384.07,421.13Z" style="fill:#1FD3AC" />
<path d="M386.24,427.03A5,5 0 1 1 376.24,427.03A5,5 0 1 1 386.24,427.03Z" style="fill:#1FD3AC" />
<path d="M388.42,389.23A5,5 0 1 1 378.42,389.23A5,5 0 1 1 388.42,389.23Z" style="fill:#1FD3AC" />
<path d="M390.59,409.13A5,5 0 1 1 380.59,409.13A5,5 0 1 1 390.59,409.13Z" style="fill:#1FD3AC" />
<path d="M392.77,374A5,5 0 1 1 382.77,374A5,5 0 1 1 392.77,374Z" style="fill:#1FD3AC" />
<path d="M394.94,385.97A5,5 0 1 1 384.94,385.97A5,5 0 1 1 394.94,385.97Z" style="fill:#1FD3AC" />
<path d="M397.12,385.44A5,5 0 1 1 387.12,385.44A5,5 0 1 1 397.12,385.44Z" style="fill:#1FD3AC" />
<path d="M399.29,306.46A5,5 0 1 1 389.29,306.46A5,5 0 1 1 399.29,306.46Z" style="fill:#1FD3AC" />
<path d="M401.47,304.72A5,5 0 1 1 391.47,304.72A5,5 0 1 1 401.47,304.72Z" style="fill:#1FD3AC" />
<path d="M403.64,284.54A5,5 0 1 1 393.64,284.54A5,5 0 1 1 403.64,284.54Z" style="fill:#1FD3AC" />
<path d="M405.82,315.28A5,5 0 1 1 395.82,315.28A5,5 0 1 1 405.82,315.28Z" style="fill:#1FD3AC" />
<path d="M407.99,292.41A5,5 0 1 1 397.99,292.41A5,5 0 1 1 407.99,292.41Z" style="fill:#1FD3AC" />
<path d="M410.17,251.44A5,5 0 1 1 400.17,251.44A5,5 0 1 1 410.17,251.44Z" style="fill:#1FD3AC" />
<path d="M412.34,232.52A5,5 0 1 1 402.34,232.52A5,5 0 1 1 412.34,232.52Z" style="fill:#1FD3AC" />
<path d="M414.52,225.5A5,5 0 1 1 404.52,225.5A5,5 0 1 1 414.52,225.5Z" style="fill:#1FD3AC" />
<path d="M416.69,228.6A5,5 0 1 1 406.69,228.6A5,5 0 1 1 416.69,228.6Z" style="fill:#1FD3AC" />
<path d="M418.86,211.56A5,5 0 1 1 408.86,211.56A5,5 0 1 1 418.86,211.56Z" style="fill:#1FD3AC" />
<path d="M421.04,253.06A5,5 0 1 1 411.04,253.06A5,5 0 1 1 421.04,253.06Z" style="fill:#1FD3AC" />
<path d="M423.21,223.05A5,5 0 1 1 413.21,223.05A5,5 0 1 1 423.21,223.05Z" style="fill:#1FD3AC" />
<path d="M425.39,207.95A5,5 0 1 1 415.39,207.95A5,5 0 1 1 425.39,207.95Z" style="fill:#1FD3AC" />
<path d="M427.56,482.56A5,5 0 1 1 417.56,482.56A5,5 0 1 1 427.56,482.56Z" style="fill:#1FD3AC" />
<path d="M429.74,276.75A5,5 0 1 1 419.74,276.75A5,5 0 1 1 429.74,276.75Z" style="fill:#1FD3AC" />
<path d="M431.91,244.21A5,5 0 1 1 421.91,244.21A5,5 0 1 1 431.91,244.21Z" style="fill:#1FD3AC" />
<path d="M434.09,109.32A5,5 0 1 1 424.09,109.32A5,5 0 1 1 434.09,109.32Z" style="fill:#1FD3AC" />
<path d="M436.26,335.74A5,5 0 1 1 426.26,335.74A5,5 0 1 1 436.26,335.74Z" style="fill:#1FD3AC" />
<path d="M438.44,279.27A5,5 0 1 1 428.44,279.27A5,5 0 1 1 438.44,279.27Z" style="fill:#1FD3AC" />
<path d="M440.61,297.58A5,5 0 1 1 430.61,297.58A5,5 0 1 1 440.61,297.58Z" style="fill:#1FD3AC" />
<path d="M442.79,266.85A5,5 0 1 1 432.79,266.85A5,5 0 1 1 442.79,266.85Z" style="fill:#1FD3AC" />
<path d="M444.96,217.04A5,5 0 1 1 434.96,217.04A5,5 0 1 1 444.96,217.04Z" style="fill:#1FD3AC" />
<path d="M447.14,245.07A5,5 0 1 1 437.14,245.07A5,5 0 1 1 447.14,245.07Z" style="fill:#1FD3AC" />
<path d="M449.31,236.34A5,5 0 1 1 439.31,236.34A5,5 0 1 1 449.31,236.34Z" style="fill:#1FD3AC" />
<path d="M451.49,245.56A5,5 0 1 1 441.49,245.56A5,5 0 1 1 451.49,245.56Z" style="fill:#1FD3AC" />
<path d="M453.66,257.3A5,5 0 1 1 443.66,257.3A5,5 0 1 1 453.66,257.3Z" style="fill:#1FD3AC" />
<path d="M455.84,252.46A5,5 0 1 1 445.84,252.46A5,5 0 1 1 455.84,252.46Z" style="fill:#1FD3AC" />
<path d="M458.01,256.73A5,5 0 1 1 448.01,256.73A5,5 0 1 1 458.01,256.73Z" style="fill:#1FD3AC" />
<path d="M460.19,208.83A5,5 0 1 1 450.19,208.83A5,5 0 1 1 460.19,208.83Z" style="fill:#1FD3AC" />
<path d="M462.36,243.51A5,5 0 1 1 452.36,243.51A5,5 0 1 1 462.36,243.51Z" style="fill:#1FD3AC" />
<path d="M464.54,256A5,5 0 1 1 454.54,256A5,5 0 1 1 464.54,256Z" style="fill:#1FD3AC" />
<path d="M466.71,266.8A5,5 0 1 1 456.71,266.8A5,5 0 1 1 466.71,266.8Z" style="fill:#1FD3AC" />
<path d="M468.88,285.47A5,5 0 1 1 458.88,285.47A5,5 0 1 1 468.88,285.47Z" style="fill:#1FD3AC" />
<path d="M471.06,249.59A5,5 0 1 1 461.06,249.59A5,5 0 1 1 471.06,249.59Z" style="fill:#1FD3AC" />
<path d="M473.23,249.17A5,5 0 1 1 463.23,249.17A5,5 0 1 1 473.23,249.17Z" style="fill:#1FD3AC" />
<path d="M475.41,246.69A5,5 0 1 1 465.41,246.69A5,5 0 1 1 475.41,246.69Z" style="fill:#1FD3AC" />
<path d="M477.58,246.17A5,5 0 1 1 467.58,246.17A5,5 0 1 1 477.58,246.17Z" style="fill:#1FD3AC" />
<path d="M479.76,248.04A5,5 0 1 1 469.76,248.04A5,5 0 1 1 479.76,248.04Z" style="fill:#1FD3AC" />
<path d="M481.93,258.72A5,5 0 1 1 471.93,258.72A5,5 0 1 1 481.93,258.72Z" style="fill:#1FD3AC" />
<path d="M484.11,321.03A5,5 0 1 1 474.11,321.03A5,5 0 1 1 484.11,321.03Z" style="fill:#1FD3AC" />
<path d="M486.28,331.98A5,5 0 1 1 476.28,331.98A5,5 0 1 1 486.28,331.98Z" style="fill:#1FD3AC" />
<path d="M488.46,326.12A5,5 0 1 1 478.46,326.12A5,5 0 1 1 488.46,326.12Z" style="fill:#1FD3AC" />
<path d="M490.63,321.29A5,5 0 1 1 480.63,321.29A5,5 0 1 1 490.63,321.29Z" style="fill:#1FD3AC" />
<path d="M492.81,297.71A5,5 0 1 1 482.81,297.71A5,5 0 1 1 492.81,297.71Z" style="fill:#1FD3AC" />
<path d="M494.98,296.26A5,5 0 1 1 484.98,296.26A5,5 0 1 1 494.98,296.26Z" style="fill:#1FD3AC" />
<path d="M497.16,294.12A5,5 0 1 1 487.16,294.12A5,5 0 1 1 497.16,294.12Z" style="fill:#1FD3AC" />
<path d="M499.33,311.21A5,5 0 1 1 489.33,311.21A5,5 0 1 1 499.33,311.21Z" style="fill:#1FD3AC" />
<path d="M501.51,347.93A5,5 0 1 1 491.51,347.93A5,5 0 1 1 501.51,347.93Z" style="fill:#1FD3AC" />
<path d="M503.68,342.1A5,5 0 1 1 493.68,342.1A5,5 0 1 1 503.68,342.1Z" style="fill:#1FD3AC" />
<path d="M505.86,345.88A5,5 0 1 1 495.86,345.88A5,5 0 1 1 505.86,345.88Z" style="fill:#1FD3AC" />
<path d="M508.03,335.7A5,5 0 1 1 498.03,335.7A5,5 0 1 1 508.03,335.7Z" style="fill:#1FD3AC" />
<path d="M510.21,298.03A5,5 0 1 1 500.21,298.03A5,5 0 1 1 510.21,298.03Z" style="fill:#1FD3AC" />
<path d="M512.38,305.25A5,5 0 1 1 502.38,305.25A5,5 0 1 1 512.38,305.25Z" style="fill:#1FD3AC" />
<path d="M514.56,325.95A5,5 0 1 1 504.56,325.95A5,5 0 1 1 514.56,325.95Z" style="fill:#1FD3AC" />
<path d="M516.73,315.2A5,5 0 1 1 506.73,315.2A5,5 0 1 1 516.73,315.2Z" style="fill:#1FD3AC" />
<path d="M518.91,308.78A5,5 0 1 1 508.91,308.78A5,5 0 1 1 518.91,308.78Z" style="fill:#1FD3AC" />
<path d="M521.08,342.56A5,5 0 1 1 511.08,342.56A5,5 0 1 1 521.08,342.56Z" style="fill:#1FD3AC" />
<path d="M523.25,310.67A5,5 0 1 1 513.25,310.67A5,5 0 1 1 523.25,310.67Z" style="fill:#1FD3AC" />
<path d="M525.43,357.74A5,5 0 1 1 515.43,357.74A5,5 0 1 1 525.43,357.74Z" style="fill:#1FD3AC" />
<path d="M527.6,368.32A5,5 0 1 1 517.6,368.32A5,5 0 1 1 527.6,368.32Z" style="fill:#1FD3AC" />
<path d="M529.78,389.75A5,5 0 1 1 519.78,389.75A5,5 0 1 1 529.78,389.75Z" style="fill:#1FD3AC" />
<path d="M531.95,365.64A5,5 0 1 1 521.95,365.64A5,5 0 1 1 531.95,365.64Z" style="fill:#1FD3AC" />
<path d="M534.13,354.35A5,5 0 1 1 524.13,354.35A5,5 0 1 1 534.13,354.35Z" style="fill:#1FD3AC" />
<path d="M536.3,377.12A5,5 0 1 1 526.3,377.12A5,5 0 1 1 536.3,377.12Z" style="fill:#1FD3AC" />
<path d="M538.48,368.59A5,5 0 1 1 528.48,368.59A5,5 0 1 1 538.48,368.59Z" style="fill:#1FD3AC" />
<path d="M540.65,316.24A5,5 0 1 1 530.65,316.24A5,5 0 1 1 540.65,316.24Z" style="fill:#1FD3AC" />
<path d="M542.83,320.05A5,5 0 1 1 532.83,320.05A5,5 0 1 1 542.83,320.05Z" style="fill:#1FD3AC" />
<path d="M545,322.28A5,5 0 1 1 535,322.28A5,5 0 1 1 545,322.28Z" style="fill:#1FD3AC" />
<path d="M547.18,331.3A5,5 0 1 1 537.18,331.3A5,5 0 1 1 547.18,331.3Z" style="fill:#1FD3AC" />
<path d="M549.35,284.48A5,5 0 1 1 539.35,284.48A5,5 0 1 1 549.35,284.48Z" style="fill:#1FD3AC" />
<path d="M551.53,315.51A5,5 0 1 1 541.53,315.51A5,5 0 1 1 551.53,315.51Z" style="fill:#1FD3AC" />
<path d="M553.7,330.5A5,5 0 1 1 543.7,330.5A5,5 0 1 1 553.7,330.5Z" style="fill:#1FD3AC" />
<path d="M555.88,306.22A5,5 0 1 1 545.88,306.22A5,5 0 1 1 555.88,306.22Z" style="fill:#1FD3AC" />
<path d="M558.05,380.24A5,5 0 1 1 548.05,380.24A5,5 0 1 1 558.05,380.24Z" style="fill:#1FD3AC" />
<path d="M560.23,345.22A5,5 0 1 1 550.23,345.22A5,5 0 1 1 560.23,345.22Z" style="fill:#1FD3AC" />
<path d="M562.4,398.89A5,5 0 1 1 552.4,398.89A5,5 0 1 1 562.4,398.89Z" style="fill:#1FD3AC" />
<path d="M564.58,382.03A5,5 0 1 1 554.58,382.03A5,5 0 1 1 564.58,382.03Z" style="fill:#1FD3AC" />
<path d="M566.75,352.68A5,5 0 1 1 556.75,352.68A5,5 0 1 1 566.75,352.68Z" style="fill:#1FD3AC" />
<path d="M568.93,365.21A5,5 0 1 1 558.93,365.21A5,5 0 1 1 568.93,365.21Z" style="fill:#1FD3AC" />
<path d="M571.1,969.14A5,5 0 1 1 561.1,969.14A5,5 0 1 1 571.1,969.14Z" style="fill:#1FD3AC" />
<path d="M573.27,637.36A5,5 0 1 1 563.27,637.36A5,5 0 1 1 573.27,637.36Z" style="fill:#1FD3AC" />
<path d="M575.45,457.63A5,5 0 1 1 565.45,457.63A5,5 0 1 1 575.45,457.63Z" style="fill:#1FD3AC" />
<path d="M577.62,343.94A5,5 0 1 1 567.62,343.94A5,5 0 1 1 577.62,343.94Z" style="fill:#1FD3AC" />
<path d="M579.8,211.67A5,5 0 1 1 569.8,211.67A5,5 0 1 1 579.8,211.67Z" style="fill:#1FD3AC" />
<path d="M581.97,437.61A5,5 0 1 1 571.97,437.61A5,5 0 1 1 581.97,437.61Z" style="fill:#1FD3AC" />
<path d="M584.15,395.23A5,5 0 1 1 574.15,395.23A5,5 0 1 1 584.15,395.23Z" style="fill:#1FD3AC" />
<path d="M586.32,346.03A5,5 0 1 1 576.32,346.03A5,5 0 1 1 586.32,346.03Z" style="fill:#1FD3AC" />
<path d="M588.5,364.91A5,5 0 1 1 578.5,364.91A5,5 0 1 1 588.5,364.91Z" style="fill:#1FD3AC" />
<path d="M590.67,387.42A5,5 0 1 1 580.67,387.42A5,5 0 1 1 590.67,387.42Z" style="fill:#1FD3AC" />
<path d="M592.85,453.58A5,5 0 1 1 582.85,453.58A5,5 0 1 1 592.85,453.58Z" style="fill:#1FD3AC" />
<path d="M595.02,348.58A5,5 0 1 1 585.02,348.58A5,5 0 1 1 595.02,348.58Z" style="fill:#1FD3AC" />
<path d="M597.2,448.98A5,5 0 1 1 587.2,448.98A5,5 0 1 1 597.2,448.98Z" style="fill:#1FD3AC" />
<path d="M599.37,479.25A5,5 0 1 1 589.37,479.25A5,5 0 1 1 599.37,479.25Z" style="fill:#1FD3AC" />
<path d="M601.55,598.54A5,5 0 1 1 591.55,598.54A5,5 0 1 1 601.55,598.54Z" style="fill:#1FD3AC" />
<path d="M603.72,480.33A5,5 0 1 1 593.72,480.33A5,5 0 1 1 603.72,480.33Z" style="fill:#1FD3AC" />
<path d="M605.9,391.72A5,5 0 1 1 595.9,391.72A5,5 0 1 1 605.9,391.72Z" style="fill:#1FD3AC" />
<path d="M608.07,495.94A5,5 0 1 1 598.07,495.94A5,5 0 1 1 608.07,495.94Z" style="fill:#1FD3AC" />
<path d="M610.25,594.72A5,5 0 1 1 600.25,594.72A5,5 0 1 1 610.25,594.72Z" style="fill:#1FD3AC" />
<path d="M612.42,496.08A5,5 0 1 1 602.42,496.08A5,5 0 1 1 612.42,496.08Z" style="fill:#1FD3AC" />
<path d="M614.6,416.67A5,5 0 1 1 604.6,416.67A5,5 0 1 1 614.6,416.67Z" style="fill:#1FD3AC" />
<path d="M616.77,391.48A5,5 0 1 1 606.77,391.48A5,5 0 1 1 616.77,391.48Z" style="fill:#1FD3AC" />
<path d="M618.95,423.57A5,5 0 1 1 608.95,423.57A5,5 0 1 1 618.95,423.57Z" style="fill:#1FD3AC" />
<path d="M621.12,403.11A5,5 0 1 1 611.12,403.11A5,5 0 1 1 621.12,403.11Z" style="fill:#1FD3AC" />
<path d="M623.29,426.89A5,5 0 1 1 613.29,426.89A5,5 0 1 1 623.29,426.89Z" style="fill:#1FD3AC" />
<path d="M625.47,346.16A5,5 0 1 1 615.47,346.16A5,5 0 1 1 625.47,346.16Z" style="fill:#1FD3AC" />
<path d="M627.64,353.08A5,5 0 1 1 617.64,353.08A5,5 0 1 1 627.64,353.08Z" style="fill:#1FD3AC" />
<path d="M629.82,266.42A5,5 0 1 1 619.82,266.42A5,5 0 1 1 629.82,266.42Z" style="fill:#1FD3AC" />
<path d="M631.99,368.1A5,5 0 1 1 621.99,368.1A5,5 0 1 1 631.99,368.1Z" style="fill:#1FD3AC" />
<path d="M634.17,347.98A5,5 0 1 1 624.17,347.98A5,5 0 1 1 634.17,347.98Z" style="fill:#1FD3AC" />
<path d="M636.34,351.76A5,5 0 1 1 626.34,351.76A5,5 0 1 1 636.34,351.76Z" style="fill:#1FD3AC" />
<path d="M638.52,338.83A5,5 0 1 1 628.52,338.83A5,5 0 1 1 638.52,338.83Z" style="fill:#1FD3AC" />
<path d="M640.69,314.7A5,5 0 1 1 630.69,314.7A5,5 0 1 1 640.69,314.7Z" style="fill:#1FD3AC" />
<path d="M642.87,314.31A5,5 0 1 1 632.87,314.31A5,5 0 1 1 642.87,314.31Z" style="fill:#1FD3AC" />
<path d="M645.04,256.94A5,5 0 1 1 635.04,256.94A5,5 0 1 1 645.04,256.94Z" style="fill:#1FD3AC" />
<path d="M647.22,272.21A5,5 0 1 1 637.22,272.21A5,5 0 1 1 647.22,272.21Z" style="fill:#1FD3AC" />
<path d="M649.39,265.61A5,5 0 1 1 639.39,265.61A5,5 0 1 1 649.39,265.61Z" style="fill:#1FD3AC" />
<path d="M651.57,276.99A5,5 0 1 1 641.57,276.99A5,5 0 1 1 651.57,276.99Z" style="fill:#1FD3AC" />
<path d="M653.74,312.04A5,5 0 1 1 643.74,312.04A5,5 0 1 1 653.74,312.04Z" style="fill:#1FD3AC" />
<path d="M655.92,277.6A5,5 0 1 1 645.92,277.6A5,5 0 1 1 655.92,277.6Z" style="fill:#1FD3AC" />
<path d="M658.09,262.34A5,5 0 1 1 648.09,262.34A5,5 0 1 1 658.09,262.34Z" style="fill:#1FD3AC" />
<path d="M660.27,264.53A5,5 0 1 1 650.27,264.53A5,5 0 1 1 660.27,264.53Z" style="fill:#1FD3AC" />
<path d="M662.44,284.09A5,5 0 1 1 652.44,284.09A5,5 0 1 1 662.44,284.09Z" style="fill:#1FD3AC" />
<path d="M664.62,284.1A5,5 0 1 1 654.62,284.1A5,5 0 1 1 664.62,284.1Z" style="fill:#1FD3AC" />
<path d="M666.79,273.48A5,5 0 1 1 656.79,273.48A5,5 0 1 1 666.79,273.48Z" style="fill:#1FD3AC" />
<path d="M668.97,349.3A5,5 0 1 1 658.97,349.3A5,5 0 1 1 668.97,349.3Z" style="fill:#1FD3AC" />
<path d="M671.14,316.15A5,5 0 1 1 661.14,316.15A5,5 0 1 1 671.14,316.15Z" style="fill:#1FD3AC" />
<path d="M673.31,340.25A5,5 0 1 1 663.31,340.25A5,5 0 1 1 673.31,340.25Z" style="fill:#1FD3AC" />
<path d="M675.49,311.16A5,5 0 1 1 665.49,311.16A5,5 0 1 1 675.49,311.16Z" style="fill:#1FD3AC" />
<path d="M677.66,289.5A5,5 0 1 1 667.66,289.5A5,5 0 1 1 677.66,289.5Z" style="fill:#1FD3AC" />
<path d="M679.84,264.19A5,5 0 1 1 669.84,264.19A5,5 0 1 1 679.84,264.19Z" style="fill:#1FD3AC" />
<path d="M682.01,292.08A5,5 0 1 1 672.01,292.08A5,5 0 1 1 682.01,292.08Z" style="fill:#1FD3AC" />
<path d="M684.19,244.07A5,5 0 1 1 674.19,244.07A5,5 0 1 1 684.19,244.07Z" style="fill:#1FD3AC" />
<path d="M686.36,269.61A5,5 0 1 1 676.36,269.61A5,5 0 1 1 686.36,269.61Z" style="fill:#1FD3AC" />
<path d="M688.54,279.1A5,5 0 1 1 678.54,279.1A5,5 0 1 1 688.54,279.1Z" style="fill:#1FD3AC" />
<path d="M690.71,256.71A5,5 0 1 1 680.71,256.71A5,5 0 1 1 690.71,256.71Z" style="fill:#1FD3AC" />
<path d="M692.89,306.81A5,5 0 1 1 682.89,306.81A5,5 0 1 1 692.89,306.81Z" style="fill:#1FD3AC" />
<path d="M695.06,303.4A5,5 0 1 1 685.06,303.4A5,5 0 1 1 695.06,303.4Z" style="fill:#1FD3AC" />
<path d="M697.24,280.27A5,5 0 1 1 687.24,280.27A5,5 0 1 1 697.24,280.27Z" style="fill:#1FD3AC" />
<path d="M699.41,366.46A5,5 0 1 1 689.41,366.46A5,5 0 1 1 699.41,366.46Z" style="fill:#1FD3AC" />
<path d="M701.59,365.4A5,5 0 1 1 691.59,365.4A5,5 0 1 1 701.59,365.4Z" style="fill:#1FD3AC" />
<path d="M703.76,378.48A5,5 0 1 1 693.76,378.48A5,5 0 1 1 703.76,378.48Z" style="fill:#1FD3AC" />
<path d="M705.94,400.87A5,5 0 1 1 695.94,400.87A5,5 0 1 1 705.94,400.87Z" style="fill:#1FD3AC" />
<path d="M708.11,332.2A5,5 0 1 1 698.11,332.2A5,5 0 1 1 708.11,332.2Z" style="fill:#1FD3AC" />
<path d="M710.29,427.73A5,5 0 1 1 700.29,427.73A5,5 0 1 1 710.29,427.73Z" style="fill:#1FD3AC" />
<path d="M712.46,284.15A5,5 0 1 1 702.46,284.15A5,5 0 1 1 712.46,284.15Z" style="fill:#1FD3AC" />
<path d="M714.64,342.33A5,5 0 1 1 704.64,342.33A5,5 0 1 1 714.64,342.33Z" style="fill:#1FD3AC" />
<path d="M716.81,353.63A5,5 0 1 1 706.81,353.63A5,5 0 1 1 716.81,353.63Z" style="fill:#1FD3AC" />
<path d="M718.99,349.93A5,5 0 1 1 708.99,349.93A5,5 0 1 1 718.99,349.93Z" style="fill:#1FD3AC" />
<path d="M721.16,358.72A5,5 0 1 1 711.16,358.72A5,5 0 1 1 721.16,358.72Z" style="fill:#1FD3AC" />
<path d="M723.33,387.97A5,5 0 1 1 713.33,387.97A5,5 0 1 1 723.33,387.97Z" style="fill:#1FD3AC" />
<path d="M725.51,321.29A5,5 0 1 1 715.51,321.29A5,5 0 1 1 725.51,321.29Z" style="fill:#1FD3AC" />
<path d="M727.68,380.08A5,5 0 1 1 717.68,380.08A5,5 0 1 1 727.68,380.08Z" style="fill:#1FD3AC" />
<path d="M729.86,315.8A5,5 0 1 1 719.86,315.8A5,5 0 1 1 729.86,315.8Z" style="fill:#1FD3AC" />
<path d="M732.03,362.96A5,5 0 1 1 722.03,362.96A5,5 0 1 1 732.03,362.96Z" style="fill:#1FD3AC" />
<path d="M734.21,341.96A5,5 0 1 1 724.21,341.96A5,5 0 1 1 734.21,341.96Z" style="fill:#1FD3AC" />
<path d="M736.38,374.51A5,5 0 1 1 726.38,374.51A5,5 0 1 1 736.38,374.51Z" style="fill:#1FD3AC" />
<path d="M738.56,385.5A5,5 0 1 1 728.56,385.5A5,5 0 1 1 738.56,385.5Z" style="fill:#1FD3AC" />
<path d="M740.73,313.91A5,5 0 1 1 730.73,313.91A5,5 0 1 1 740.73,313.91Z" style="fill:#1FD3AC" />
<path d="M742.91,363.89A5,5 0 1 1 732.91,363.89A5,5 0 1 1 742.91,363.89Z" style="fill:#1FD3AC" />
<path d="M745.08,374.24A5,5 0 1 1 735.08,374.24A5,5 0 1 1 745.08,374.24Z" style="fill:#1FD3AC" />
<path d="M747.26,322.47A5,5 0 1 1 737.26,322.47A5,5 0 1 1 747.26,322.47Z" style="fill:#1FD3AC" />
<path d="M749.43,302.11A5,5 0 1 1 739.43,302.11A5,5 0 1 1 749.43,302.11Z" style="fill:#1FD3AC" />
<path d="M751.61,307.4A5,5 0 1 1 741.61,307.4A5,5 0 1 1 751.61,307.4Z" style="fill:#1FD3AC" />
<path d="M753.78,322.7A5,5 0 1 1 743.78,322.7A5,5 0 1 1 753.78,322.7Z" style="fill:#1FD3AC" />
<path d="M755.96,301.03A5,5 0 1 1 745.96,301.03A5,5 0 1 1 755.96,301.03Z" style="fill:#1FD3AC" />
<path d="M758.13,329.74A5,5 0 1 1 748.13,329.74A5,5 0 1 1 758.13,329.74Z" style="fill:#1FD3AC" />
<path d="M760.31,342.31A5,5 0 1 1 750.31,342.31A5,5 0 1 1 760.31,342.31Z" style="fill:#1FD3AC" />
<path d="M762.48,335A5,5 0 1 1 752.48,335A5,5 0 1 1 762.48,335Z" style="fill:#1FD3AC" />
<path d="M764.66,374.04A5,5 0 1 1 754.66,374.04A5,5 0 1 1 764.66,374.04Z" style="fill:#1FD3AC" />
<path d="M766.83,383.03A5,5 0 1 1 756.83,383.03A5,5 0 1 1 766.83,383.03Z" style="fill:#1FD3AC" />
<path d="M769.01,357.99A5,5 0 1 1 759.01,357.99A5,5 0 1 1 769.01,357.99Z" style="fill:#1FD3AC" />
<path d="M771.18,298.6A5,5 0 1 1 761.18,298.6A5,5 0 1 1 771.18,298.6Z" style="fill:#1FD3AC" />
<path d="M773.36,330.54A5,5 0 1 1 763.36,330.54A5,5 0 1 1 773.36,330.54Z" style="fill:#1FD3AC" />
<path d="M775.53,324.25A5,5 0 1 1 765.53,324.25A5,5 0 1 1 775.53,324.25Z" style="fill:#1FD3AC" />
<path d="M777.7,374.23A5,5 0 1 1 767.7,374.23A5,5 0 1 1 777.7,374.23Z" style="fill:#1FD3AC" />
<path d="M779.88,366.03A5,5 0 1 1 769.88,366.03A5,5 0 1 1 779.88,366.03Z" style="fill:#1FD3AC" />
<path d="M782.05,348.74A5,5 0 1 1 772.05,348.74A5,5 0 1 1 782.05,348.74Z" style="fill:#1FD3AC" />
<path d="M784.23,358.81A5,5 0 1 1 774.23,358.81A5,5 0 1 1 784.23,358.81Z" style="fill:#1FD3AC" />
<path d="M786.4,343.55A5,5 0 1 1 776.4,343.55A5,5 0 1 1 786.4,343.55Z" style="fill:#1FD3AC" />
<path d="M788.58,351.94A5,5 0 1 1 778.58,351.94A5,5 0 1 1 788.58,351.94Z" style="fill:#1FD3AC" />
<path d="M790.75,275.42A5,5 0 1 1 780.75,275.42A5,5 0 1 1 790.75,275.42Z" style="fill:#1FD3AC" />
<path d="M792.93,342.83A5,5 0 1 1 782.93,342.83A5,5 0 1 1 792.93,342.83Z" style="fill:#1FD3AC" />
<path d="M795.1,328.46A5,5 0 1 1 785.1,328.46A5,5 0 1 1 795.1,328.46Z" style="fill:#1FD3AC" />
<path d="M797.28,295.5A5,5 0 1 1 787.28,295.5A5,5 0 1 1 797.28,295.5Z" style="fill:#1FD3AC" />
<path d="M799.45,196.78A5,5 0 1 1 789.45,196.78A5,5 0 1 1 799.45,196.78Z" style="fill:#1FD3AC" />
<path d="M801.63,395.06A5,5 0 1 1 791.63,395.06A5,5 0 1 1 801.63,395.06Z" style="fill:#1FD3AC" />
<path d="M803.8,401.25A5,5 0 1 1 793.8,401.25A5,5 0 1 1 803.8,401.25Z" style="fill:#1FD3AC" />
<path d="M805.98,450.18A5,5 0 1 1 795.98,450.18A5,5 0 1 1 805.98,450.18Z" style="fill:#1FD3AC" />
<path d="M808.15,422.85A5,5 0 1 1 798.15,422.85A5,5 0 1 1 808.15,422.85Z" style="fill:#1FD3AC" />
<path d="M810.33,354.34A5,5 0 1 1 800.33,354.34A5,5 0 1 1 810.33,354.34Z" style="fill:#1FD3AC" />
<path d="M812.5,417.76A5,5 0 1 1 802.5,417.76A5,5 0 1 1 812.5,417.76Z" style="fill:#1FD3AC" />
<path d="M814.68,473.56A5,5 0 1 1 804.68,473.56A5,5 0 1 1 814.68,473.56Z" style="fill:#1FD3AC" />
<path d="M816.85,411.76A5,5 0 1 1 806.85,411.76A5,5 0 1 1 816.85,411.76Z" style="fill:#1FD3AC" />
<path d="M819.03,407.75A5,5 0 1 1 809.03,407.75A5,5 0 1 1 819.03,407.75Z" style="fill:#1FD3AC" />
<path d="M821.2,436.31A5,5 0 1 1 811.2,436.31A5,5 0 1 1 821.2,436.31Z" style="fill:#1FD3AC" />
<path d="M823.38,357.94A5,5 0 1 1 813.38,357.94A5,5 0 1 1 823.38,357.94Z" style="fill:#1FD3AC" />
<path d="M825.55,371.49A5,5 0 1 1 815.55,371.49A5,5 0 1 1 825.55,371.49Z" style="fill:#1FD3AC" />
<path d="M827.72,319.64A5,5 0 1 1 817.72,319.64A5,5 0 1 1 827.72,319.64Z" style="fill:#1FD3AC" />
<path d="M829.9,326.4A5,5 0 1 1 819.9,326.4A5,5 0 1 1 829.9,326.4Z" style="fill:#1FD3AC" />
<path d="M832.07,240.16A5,5 0 1 1 822.07,240.16A5,5 0 1 1 832.07,240.16Z" style="fill:#1FD3AC" />
<path d="M834.25,264.88A5,5 0 1 1 824.25,264.88A5,5 0 1 1 834.25,264.88Z" style="fill:#1FD3AC" />
<path d="M836.42,290.33A5,5 0 1 1 826.42,290.33A5,5 0 1 1 836.42,290.33Z" style="fill:#1FD3AC" />
<path d="M838.6,283.5A5,5 0 1 1 828.6,283.5A5,5 0 1 1 838.6,283.5Z" style="fill:#1FD3AC" />
<path d="M840.77,353.07A5,5 0 1 1 830.77,353.07A5,5 0 1 1 840.77,353.07Z" style="fill:#1FD3AC" />
<path d="M842.95,280.86A5,5 0 1 1 832.95,280.86A5,5 0 1 1 842.95,280.86Z" style="fill:#1FD3AC" />
<path d="M845.12,367.67A5,5 0 1 1 835.12,367.67A5,5 0 1 1 845.12,367.67Z" style="fill:#1FD3AC" />
<path d="M847.3,335.5A5,5 0 1 1 837.3,335.5A5,5 0 1 1 847.3,335.5Z" style="fill:#1FD3AC" />
<path d="M849.47,308.76A5,5 0 1 1 839.47,308.76A5,5 0 1 1 849.47,308.76Z" style="fill:#1FD3AC" />
<path d="M851.65,306.9A5,5 0 1 1 841.65,306.9A5,5 0 1 1 851.65,306.9Z" style="fill:#1FD3AC" />
<path d="M853.82,285.39A5,5 0 1 1 843.82,285.39A5,5 0 1 1 853.82,285.39Z" style="fill:#1FD3AC" />
<path d="M856,335.93A5,5 0 1 1 846,335.93A5,5 0 1 1 856,335.93Z" style="fill:#1FD3AC" />
<path d="M858.17,309.45A5,5 0 1 1 848.17,309.45A5,5 0 1 1 858.17,309.45Z" style="fill:#1FD3AC" />
<path d="M860.35,386.1A5,5 0 1 1 850.35,386.1A5,5 0 1 1 860.35,386.1Z" style="fill:#1FD3AC" />
<path d="M862.52,381.48A5,5 0 1 1 852.52,381.48A5,5 0 1 1 862.52,381.48Z" style="fill:#1FD3AC" />
<path d="M864.7,397.55A5,5 0 1 1 854.7,397.55A5,5 0 1 1 864.7,397.55Z" style="fill:#1FD3AC" />
<path d="M866.87,335.07A5,5 0 1 1 856.87,335.07A5,5 0 1 1 866.87,335.07Z" style="fill:#1FD3AC" />
<path d="M869.05,305.56A5,5 0 1 1 859.05,305.56A5,5 0 1 1 869.05,305.56Z" style="fill:#1FD3AC" />
<path d="M871.22,321.07A5,5 0 1 1 861.22,321.07A5,5 0 1 1 871.22,321.07Z" style="fill:#1FD3AC" />
<path d="M873.4,321.4A5,5 0 1 1 863.4,321.4A5,5 0 1 1 873.4,321.4Z" style="fill:#1FD3AC" />
<path d="M875.57,321.3A5,5 0 1 1 865.57,321.3A5,5 0 1 1 875.57,321.3Z" style="fill:#1FD3AC" />
<path d="M877.74,286.13A5,5 0 1 1 867.74,286.13A5,5 0 1 1 877.74,286.13Z" style="fill:#1FD3AC" />
<path d="M879.92,303.49A5,5 0 1 1 869.92,303.49A5,5 0 1 1 879.92,303.49Z" style="fill:#1FD3AC" />
<path d="M882.09,344.01A5,5 0 1 1 872.09,344.01A5,5 0 1 1 882.09,344.01Z" style="fill:#1FD3AC" />
<path d="M884.27,320A5,5 0 1 1 874.27,320A5,5 0 1 1 884.27,320Z" style="fill:#1FD3AC" />
<path d="M886.44,346.4A5,5 0 1 1 876.44,346.4A5,5 0 1 1 886.44,346.4Z" style="fill:#1FD3AC" />
<path d="M888.62,347.02A5,5 0 1 1 878.62,347.02A5,5 0 1 1 888.62,347.02Z" style="fill:#1FD3AC" />
<path d="M890.79,296.68A5,5 0 1 1 880.79,296.68A5,5 0 1 1 890.79,296.68Z" style="fill:#1FD3AC" />
<path d="M892.97,301.76A5,5 0 1 1 882.97,301.76A5,5 0 1 1 892.97,301.76Z" style="fill:#1FD3AC" />
<path d="M895.14,321.51A5,5 0 1 1 885.14,321.51A5,5 0 1 1 895.14,321.51Z" style="fill:#1FD3AC" />
<path d="M897.32,294.75A5,5 0 1 1 887.32,294.75A5,5 0 1 1 897.32,294.75Z" style="fill:#1FD3AC" />
<path d="M899.49,273.64A5,5 0 1 1 889.49,273.64A5,5 0 1 1 899.49,273.64Z" style="fill:#1FD3AC" />
<path d="M901.67,333.82A5,5 0 1 1 891.67,333.82A5,5 0 1 1 901.67,333.82Z" style="fill:#1FD3AC" />
<path d="M903.84,361.52A5,5 0 1 1 893.84,361.52A5,5 0 1 1 903.84,361.52Z" style="fill:#1FD3AC" />
<path d="M906.02,344.1A5,5 0 1 1 896.02,344.1A5,5 0 1 1 906.02,344.1Z" style="fill:#1FD3AC" />
<path d="M908.19,305.07A5,5 0 1 1 898.19,305.07A5,5 0 1 1 908.19,305.07Z" style="fill:#1FD3AC" />
<path d="M910.37,310.19A5,5 0 1 1 900.37,310.19A5,5 0 1 1 910.37,310.19Z" style="fill:#1FD3AC" />
<path d="M912.54,335.31A5,5 0 1 1 902.54,335.31A5,5 0 1 1 912.54,335.31Z" style="fill:#1FD3AC" />
<path d="M914.72,349.79A5,5 0 1 1 904.72,349.79A5,5 0 1 1 914.72,349.79Z" style="fill:#1FD3AC" />
<path d="M916.89,402.27A5,5 0 1 1 906.89,402.27A5,5 0 1 1 916.89,402.27Z" style="fill:#1FD3AC" />
<path d="M919.07,381.5A5,5 0 1 1 909.07,381.5A5,5 0 1 1 919.07,381.5Z" style="fill:#1FD3AC" />
<path d="M921.24,401.8A5,5 0 1 1 911.24,401.8A5,5 0 1 1 921.24,401.8Z" style="fill:#1FD3AC" />
<path d="M923.42,366.38A5,5 0 1 1 913.42,366.38A5,5 0 1 1 923.42,366.38Z" style="fill:#1FD3AC" />
<path d="M925.59,374.77A5,5 0 1 1 915.59,374.77A5,5 0 1 1 925.59,374.77Z" style="fill:#1FD3AC" />
<path d="M927.76,390.83A5,5 0 1 1 917.76,390.83A5,5 0 1 1 927.76,390.83Z" style="fill:#1FD3AC" />
<path d="M929.94,396.87A5,5 0 1 1 919.94,396.87A5,5 0 1 1 929.94,396.87Z" style="fill:#1FD3AC" />
<path d="M932.11,406.09A5,5 0 1 1 922.11,406.09A5,5 0 1 1 932.11,406.09Z" style="fill:#1FD3AC" />
<path d="M934.29,380.49A5,5 0 1 1 924.29,380.49A5,5 0 1 1 934.29,380.49Z" style="fill:#1FD3AC" />
<path d="M936.46,449.01A5,5 0 1 1 926.46,449.01A5,5 0 1 1 936.46,449.01Z" style="fill:#1FD3AC" />
<path d="M938.64,436.51A5,5 0 1 1 928.64,436.51A5,5 0 1 1 938.64,436.51Z" style="fill:#1FD3AC" />
<path d="M940.81,406.68A5,5 0 1 1 930.81,406.68A5,5 0 1 1 940.81,406.68Z" style="fill:#1FD3AC" />
<path d="M942.99,408.92A5,5 0 1 1 932.99,408.92A5,5 0 1 1 942.99,408.92Z" style="fill:#1FD3AC" />
<path d="M945.16,362.6A5,5 0 1 1 935.16,362.6A5,5 0 1 1 945.16,362.6Z" style="fill:#1FD3AC" />
<path d="M947.34,336.4A5,5 0 1 1 937.34,336.4A5,5 0 1 1 947.34,336.4Z" style="fill:#1FD3AC" />
<path d="M949.51,345.38A5,5 0 1 1 939.51,345.38A5,5 0 1 1 949.51,345.38Z" style="fill:#1FD3AC" />
<path d="M951.69,429.23A5,5 0 1 1 941.69,429.23A5,5 0 1 1 951.69,429.23Z" style="fill:#1FD3AC" />
<path d="M953.86,334.04A5,5 0 1 1 943.86,334.04A5,5 0 1 1 953.86,334.04Z" style="fill:#1FD3AC" />
<path d="M956.04,419.79A5,5 0 1 1 946.04,419.79A5,5 0 1 1 956.04,419.79Z" style="fill:#1FD3AC" />
<path d="M958.21,492.03A5,5 0 1 1 948.21,492.03A5,5 0 1 1 958.21,492.03Z" style="fill:#1FD3AC" />
<path d="M960.39,486.89A5,5 0 1 1 950.39,486.89A5,5 0 1 1 960.39,486.89Z" style="fill:#1FD3AC" />
<path d="M962.56,413.43A5,5 0 1 1 952.56,413.43A5,5 0 1 1 962.56,413.43Z" style="fill:#1FD3AC" />
<path d="M964.74,411.84A5,5 0 1 1 954.74,411.84A5,5 0 1 1 964.74,411.84Z" style="fill:#1FD3AC" />
<path d="M966.91,374.63A5,5 0 1 1 956.91,374.63A5,5 0 1 1 966.91,374.63Z" style="fill:#1FD3AC" />
<path d="M969.09,365.13A5,5 0 1 1 959.09,365.13A5,5 0 1 1 969.09,365.13Z" style="fill:#1FD3AC" />
<path d="M971.26,369.14A5,5 0 1 1 961.26,369.14A5,5 0 1 1 971.26,369.14Z" style="fill:#1FD3AC" />
<path d="M973.44,440.3A5,5 0 1 1 963.44,440.3A5,5 0 1 1 973.44,440.3Z" style="fill:#1FD3AC" />
<path d="M975.61,451.15A5,5 0 1 1 965.61,451.15A5,5 0 1 1 975.61,451.15Z" style="fill:#1FD3AC" />
<path d="M977.79,448.86A5,5 0 1 1 967.79,448.86A5,5 0 1 1 977.79,448.86Z" style="fill:#1FD3AC" />
<path d="M979.96,370.75A5,5 0 1 1 969.96,370.75A5,5 0 1 1 979.96,370.75Z" style="fill:#1FD3AC" />
<path d="M982.13,395A5,5 0 1 1 972.13,395A5,5 0 1 1 982.13,395Z" style="fill:#1FD3AC" />
<path d="M984.31,396.56A5,5 0 1 1 974.31,396.56A5,5 0 1 1 984.31,396.56Z" style="fill:#1FD3AC" />
<path d="M986.48,434.98A5,5 0 1 1 976.48,434.98A5,5 0 1 1 986.48,434.98Z" style="fill:#1FD3AC" />
<path d="M988.66,414.24A5,5 0 1 1 978.66,414.24A5,5 0 1 1 988.66,414.24Z" style="fill:#1FD3AC" />
<path d="M990.83,423.86A5,5 0 1 1 980.83,423.86A5,5 0 1 1 990.83,423.86Z" style="fill:#1FD3AC" />
<path d="M993.01,397.15A5,5 0 1 1 983.01,397.15A5,5 0 1 1 993.01,397.15Z" style="fill:#1FD3AC" />
<path d="M995.18,390.19A5,5 0 1 1 985.18,390.19A5,5 0 1 1 995.18,390.19Z" style="fill:#1FD3AC" />
<path d="M997.36,404.83A5,5 0 1 1 987.36,404.83A5,5 0 1 1 997.36,404.83Z" style="fill:#1FD3AC" />
<path d="M999.53,453.42A5,5 0 1 1 989.53,453.42A5,5 0 1 1 999.53,453.42Z" style="fill:#1FD3AC" />
<path d="M1001.7,438.63A5,5 0 1 1 991.71,438.63A5,5 0 1 1 1001.7,438.63Z" style="fill:#1FD3AC" />
<path d="M1003.9,391.88A5,5 0 1 1 993.88,391.88A5,5 0 1 1 1003.9,391.88Z" style="fill:#1FD3AC" />
<path d="M1006.1,505.82A5,5 0 1 1 996.06,505.82A5,5 0 1 1 1006.1,505.82Z" style="fill:#1FD3AC" />
<path d="M1008.2,362.78A5,5 0 1 1 998.23,362.78A5,5 0 1 1 1008.2,362.78Z" style="fill:#1FD3AC" />
<path d="M1010.4,389.05A5,5 0 1 1 1000.4,389.05A5,5 0 1 1 1010.4,389.05Z" style="fill:#1FD3AC" />
<path d="M1012.6,352.63A5,5 0 1 1 1002.6,352.63A5,5 0 1 1 1012.6,352.63Z" style="fill:#1FD3AC" />
<path d="M1014.8,363.96A5,5 0 1 1 1004.8,363.96A5,5 0 1 1 1014.8,363.96Z" style="fill:#1FD3AC" />
<path d="M1016.9,374.51A5,5 0 1 1 1006.9,374.51A5,5 0 1 1 1016.9,374.51Z" style="fill:#1FD3AC" />
<path d="M1019.1,305.28A5,5 0 1 1 1009.1,305.28A5,5 0 1 1 1019.1,305.28Z" style="fill:#1FD3AC" />
<path d="M1021.3,326.44A5,5 0 1 1 1011.3,326.44A5,5 0 1 1 1021.3,326.44Z" style="fill:#1FD3AC" />
<path d="M1023.5,394.56A5,5 0 1 1 1013.5,394.56A5,5 0 1 1 1023.5,394.56Z" style="fill:#1FD3AC" />
<path d="M1025.6,399.67A5,5 0 1 1 1015.6,399.67A5,5 0 1 1 1025.6,399.67Z" style="fill:#1FD3AC" />
<path d="M1027.8,492.55A5,5 0 1 1 1017.8,492.55A5,5 0 1 1 1027.8,492.55Z" style="fill:#1FD3AC" />
<path d="M1030,505.73A5,5 0 1 1 1020,505.73A5,5 0 1 1 1030,505.73Z" style="fill:#1FD3AC" />
<path d="M1032.2,496.05A5,5 0 1 1 1022.2,496.05A5,5 0 1 1 1032.2,496.05Z" style="fill:#1FD3AC" />
<path d="M1034.3,383.1A5,5 0 1 1 1024.3,383.1A5,5 0 1 1 1034.3,383.1Z" style="fill:#1FD3AC" />
<path d="M1036.5,335.91A5,5 0 1 1 1026.5,335.91A5,5 0 1 1 1036.5,335.91Z" style="fill:#1FD3AC" />
<path d="M1038.7,405.78A5,5 0 1 1 1028.7,405.78A5,5 0 1 1 1038.7,405.78Z" style="fill:#1FD3AC" />
<path d="M1040.9,400.02A5,5 0 1 1 1030.9,400.02A5,5 0 1 1 1040.9,400.02Z" style="fill:#1FD3AC" />
<path d="M1043,391.51A5,5 0 1 1 1033,391.51A5,5 0 1 1 1043,391.51Z" style="fill:#1FD3AC" />
<path d="M1045.2,354.19A5,5 0 1 1 1035.2,354.19A5,5 0 1 1 1045.2,354.19Z" style="fill:#1FD3AC" />
<path d="M1047.4,365.33A5,5 0 1 1 1037.4,365.33A5,5 0 1 1 1047.4,365.33Z" style="fill:#1FD3AC" />
<path d="M1049.6,318.06A5,5 0 1 1 1039.6,318.06A5,5 0 1 1 1049.6,318.06Z" style="fill:#1FD3AC" />
<path d="M1051.7,361.81A5,5 0 1 1 1041.7,361.81A5,5 0 1 1 1051.7,361.81Z" style="fill:#1FD3AC" />
<path d="M1053.9,377.15A5,5 0 1 1 1043.9,377.15A5,5 0 1 1 1053.9,377.15Z" style="fill:#1FD3AC" />
<path d="M1056.1,300.91A5,5 0 1 1 1046.1,300.91A5,5 0 1 1 1056.1,300.91Z" style="fill:#1FD3AC" />
<path d="M1058.3,288.01A5,5 0 1 1 1048.3,288.01A5,5 0 1 1 1058.3,288.01Z" style="fill:#1FD3AC" />
<path d="M1060.4,281.21A5,5 0 1 1 1050.4,281.21A5,5 0 1 1 1060.4,281.21Z" style="fill:#1FD3AC" />
<path d="M1062.6,361.57A5,5 0 1 1 1052.6,361.57A5,5 0 1 1 1062.6,361.57Z" style="fill:#1FD3AC" />
<path d="M1064.8,363.17A5,5 0 1 1 1054.8,363.17A5,5 0 1 1 1064.8,363.17Z" style="fill:#1FD3AC" />
<path d="M1067,317.7A5,5 0 1 1 1057,317.7A5,5 0 1 1 1067,317.7Z" style="fill:#1FD3AC" />
<path d="M1069.1,347.91A5,5 0 1 1 1059.1,347.91A5,5 0 1 1 1069.1,347.91Z" style="fill:#1FD3AC" />
<path d="M1071.3,381.3A5,5 0 1 1 1061.3,381.3A5,5 0 1 1 1071.3,381.3Z" style="fill:#1FD3AC" />
<path d="M1073.5,355.35A5,5 0 1 1 1063.5,355.35A5,5 0 1 1 1073.5,355.35Z" style="fill:#1FD3AC" />
<path d="M1075.7,392.26A5,5 0 1 1 1065.7,392.26A5,5 0 1 1 1075.7,392.26Z" style="fill:#1FD3AC" />
<path d="M1077.8,351.26A5,5 0 1 1 1067.8,351.26A5,5 0 1 1 1077.8,351.26Z" style="fill:#1FD3AC" />
<path d="M1080,397.42A5,5 0 1 1 1070,397.42A5,5 0 1 1 1080,397.42Z" style="fill:#1FD3AC" />
<path d="M128.97,817.73L1077.2,817.73" style="fill:none;stroke:#000000" />
<path d="M1077.2,211.67L1077.2,817.73" style="fill:none;stroke:#000000" />
</g>
</svg>
