<?xml version="1.0"?>
<!-- Generated by SVGo and Plotinum VG -->
<svg width="1080pt" height="1080pt" viewBox="0 0 1080 1080"
	xmlns="http://www.w3.org/2000/svg"
	xmlns:xlink="http://www.w3.org/1999/xlink">
<g transform="scale(1, -1) translate(0, -1080)">
<path d="M0,0L1080,0L1080,1080L0,1080Z" style="fill:#-8000000000000000-8000000000000000-8000000000000000;fill-opacity:0" />
<text x="463.57" y="-1039.5" transform="scale(1, -1)"
	style="font-family:Helvetica;font-weight:normal;font-style:normal;font-size:50px">Stokes</text>
<text x="442.52" y="-11.039" transform="scale(1, -1)"
	style="font-family:Helvetica;font-weight:normal;font-style:normal;font-size:36px">Frequency (GHz)</text>
<text x="96.11" y="-71.258" transform="scale(1, -1)"
	style="font-family:Helvetica;font-weight:normal;font-style:normal;font-size:36px">2</text>
<text x="270.87" y="-71.258" transform="scale(1, -1)"
	style="font-family:Helvetica;font-weight:normal;font-style:normal;font-size:36px">2.1</text>
<text x="460.64" y="-71.258" transform="scale(1, -1)"
	style="font-family:Helvetica;font-weight:normal;font-style:normal;font-size:36px">2.2</text>
<text x="650.41" y="-71.258" transform="scale(1, -1)"
	style="font-family:Helvetica;font-weight:normal;font-style:normal;font-size:36px">2.3</text>
<text x="840.18" y="-71.258" transform="scale(1, -1)"
	style="font-family:Helvetica;font-weight:normal;font-style:normal;font-size:36px">2.4</text>
<text x="1030" y="-71.258" transform="scale(1, -1)"
	style="font-family:Helvetica;font-weight:normal;font-style:normal;font-size:36px">2.5</text>
<path d="M106.12,116.44L106.12,108.44" style="fill:none;stroke:#000000;stroke-width:1.5" />
<path d="M201.01,112.44L201.01,108.44" style="fill:none;stroke:#000000;stroke-width:1.5" />
<path d="M295.89,116.44L295.89,108.44" style="fill:none;stroke:#000000;stroke-width:1.5" />
<path d="M390.78,112.44L390.78,108.44" style="fill:none;stroke:#000000;stroke-width:1.5" />
<path d="M485.66,116.44L485.66,108.44" style="fill:none;stroke:#000000;stroke-width:1.5" />
<path d="M580.55,112.44L580.55,108.44" style="fill:none;stroke:#000000;stroke-width:1.5" />
<path d="M675.43,116.44L675.43,108.44" style="fill:none;stroke:#000000;stroke-width:1.5" />
<path d="M770.32,112.44L770.32,108.44" style="fill:none;stroke:#000000;stroke-width:1.5" />
<path d="M865.21,116.44L865.21,108.44" style="fill:none;stroke:#000000;stroke-width:1.5" />
<path d="M960.09,112.44L960.09,108.44" style="fill:none;stroke:#000000;stroke-width:1.5" />
<path d="M1055,116.44L1055,108.44" style="fill:none;stroke:#000000;stroke-width:1.5" />
<path d="M106.12,108.44L1055,108.44" style="fill:none;stroke:#000000;stroke-width:1.5" />
<g transform="rotate(90)">
<text x="363.52" y="29.18" transform="scale(1, -1)"
	style="font-family:Helvetica;font-weight:normal;font-style:normal;font-size:36px">Spectral Density (nV)</text>
</g>
<text x="67.848" y="-136.13" transform="scale(1, -1)"
	style="font-family:Helvetica;font-weight:normal;font-style:normal;font-size:36px">0</text>
<text x="67.848" y="-408.67" transform="scale(1, -1)"
	style="font-family:Helvetica;font-weight:normal;font-style:normal;font-size:36px">1</text>
<text x="67.848" y="-681.22" transform="scale(1, -1)"
	style="font-family:Helvetica;font-weight:normal;font-style:normal;font-size:36px">2</text>
<text x="67.848" y="-953.77" transform="scale(1, -1)"
	style="font-family:Helvetica;font-weight:normal;font-style:normal;font-size:36px">3</text>
<path d="M113.87,145.2L105.87,145.2" style="fill:none;stroke:#000000;stroke-width:1.5" />
<path d="M109.87,281.47L105.87,281.47" style="fill:none;stroke:#000000;stroke-width:1.5" />
<path d="M113.87,417.74L105.87,417.74" style="fill:none;stroke:#000000;stroke-width:1.5" />
<path d="M109.87,554.02L105.87,554.02" style="fill:none;stroke:#000000;stroke-width:1.5" />
<path d="M113.87,690.29L105.87,690.29" style="fill:none;stroke:#000000;stroke-width:1.5" />
<path d="M109.87,826.56L105.87,826.56" style="fill:none;stroke:#000000;stroke-width:1.5" />
<path d="M113.87,962.84L105.87,962.84" style="fill:none;stroke:#000000;stroke-width:1.5" />
<path d="M105.87,104.32L105.87,962.84" style="fill:none;stroke:#000000;stroke-width:1.5" />
<path d="M113.87,140.7A3,3 0 1 1 107.87,140.7A3,3 0 1 1 113.87,140.7Z" style="fill:#1FD3AC" />
<path d="M123.35,143.53A3,3 0 1 1 117.35,143.53A3,3 0 1 1 123.35,143.53Z" style="fill:#1FD3AC" />
<path d="M132.84,140.3A3,3 0 1 1 126.84,140.3A3,3 0 1 1 132.84,140.3Z" style="fill:#1FD3AC" />
<path d="M142.33,142.05A3,3 0 1 1 136.33,142.05A3,3 0 1 1 142.33,142.05Z" style="fill:#1FD3AC" />
<path d="M151.82,138.87A3,3 0 1 1 145.82,138.87A3,3 0 1 1 151.82,138.87Z" style="fill:#1FD3AC" />
<path d="M161.31,137.67A3,3 0 1 1 155.31,137.67A3,3 0 1 1 161.31,137.67Z" style="fill:#1FD3AC" />
<path d="M170.8,143.01A3,3 0 1 1 164.8,143.01A3,3 0 1 1 170.8,143.01Z" style="fill:#1FD3AC" />
<path d="M180.29,141.55A3,3 0 1 1 174.29,141.55A3,3 0 1 1 180.29,141.55Z" style="fill:#1FD3AC" />
<path d="M189.77,146.33A3,3 0 1 1 183.77,146.33A3,3 0 1 1 189.77,146.33Z" style="fill:#1FD3AC" />
<path d="M199.26,145.45A3,3 0 1 1 193.26,145.45A3,3 0 1 1 199.26,145.45Z" style="fill:#1FD3AC" />
<path d="M208.75,146.43A3,3 0 1 1 202.75,146.43A3,3 0 1 1 208.75,146.43Z" style="fill:#1FD3AC" />
<path d="M218.24,145.16A3,3 0 1 1 212.24,145.16A3,3 0 1 1 218.24,145.16Z" style="fill:#1FD3AC" />
<path d="M227.73,150.12A3,3 0 1 1 221.73,150.12A3,3 0 1 1 227.73,150.12Z" style="fill:#1FD3AC" />
<path d="M237.22,153.43A3,3 0 1 1 231.22,153.43A3,3 0 1 1 237.22,153.43Z" style="fill:#1FD3AC" />
<path d="M246.71,149.23A3,3 0 1 1 240.71,149.23A3,3 0 1 1 246.71,149.23Z" style="fill:#1FD3AC" />
<path d="M256.19,155.21A3,3 0 1 1 250.19,155.21A3,3 0 1 1 256.19,155.21Z" style="fill:#1FD3AC" />
<path d="M265.68,160.4A3,3 0 1 1 259.68,160.4A3,3 0 1 1 265.68,160.4Z" style="fill:#1FD3AC" />
<path d="M275.17,163.06A3,3 0 1 1 269.17,163.06A3,3 0 1 1 275.17,163.06Z" style="fill:#1FD3AC" />
<path d="M284.66,167.27A3,3 0 1 1 278.66,167.27A3,3 0 1 1 284.66,167.27Z" style="fill:#1FD3AC" />
<path d="M294.15,168.15A3,3 0 1 1 288.15,168.15A3,3 0 1 1 294.15,168.15Z" style="fill:#1FD3AC" />
<path d="M303.64,168.7A3,3 0 1 1 297.64,168.7A3,3 0 1 1 303.64,168.7Z" style="fill:#1FD3AC" />
<path d="M313.13,175.11A3,3 0 1 1 307.13,175.11A3,3 0 1 1 313.13,175.11Z" style="fill:#1FD3AC" />
<path d="M322.61,179.24A3,3 0 1 1 316.61,179.24A3,3 0 1 1 322.61,179.24Z" style="fill:#1FD3AC" />
<path d="M332.1,186.16A3,3 0 1 1 326.1,186.16A3,3 0 1 1 332.1,186.16Z" style="fill:#1FD3AC" />
<path d="M341.59,190.89A3,3 0 1 1 335.59,190.89A3,3 0 1 1 341.59,190.89Z" style="fill:#1FD3AC" />
<path d="M351.08,196.94A3,3 0 1 1 345.08,196.94A3,3 0 1 1 351.08,196.94Z" style="fill:#1FD3AC" />
<path d="M360.57,195.72A3,3 0 1 1 354.57,195.72A3,3 0 1 1 360.57,195.72Z" style="fill:#1FD3AC" />
<path d="M370.06,203.92A3,3 0 1 1 364.06,203.92A3,3 0 1 1 370.06,203.92Z" style="fill:#1FD3AC" />
<path d="M379.55,213.08A3,3 0 1 1 373.55,213.08A3,3 0 1 1 379.55,213.08Z" style="fill:#1FD3AC" />
<path d="M389.03,220.11A3,3 0 1 1 383.03,220.11A3,3 0 1 1 389.03,220.11Z" style="fill:#1FD3AC" />
<path d="M398.52,217.6A3,3 0 1 1 392.52,217.6A3,3 0 1 1 398.52,217.6Z" style="fill:#1FD3AC" />
<path d="M408.01,240.79A3,3 0 1 1 402.01,240.79A3,3 0 1 1 408.01,240.79Z" style="fill:#1FD3AC" />
<path d="M417.5,240.31A3,3 0 1 1 411.5,240.31A3,3 0 1 1 417.5,240.31Z" style="fill:#1FD3AC" />
<path d="M426.99,256.52A3,3 0 1 1 420.99,256.52A3,3 0 1 1 426.99,256.52Z" style="fill:#1FD3AC" />
<path d="M436.48,257.4A3,3 0 1 1 430.48,257.4A3,3 0 1 1 436.48,257.4Z" style="fill:#1FD3AC" />
<path d="M445.97,273.21A3,3 0 1 1 439.97,273.21A3,3 0 1 1 445.97,273.21Z" style="fill:#1FD3AC" />
<path d="M455.45,286.76A3,3 0 1 1 449.45,286.76A3,3 0 1 1 455.45,286.76Z" style="fill:#1FD3AC" />
<path d="M464.94,301.17A3,3 0 1 1 458.94,301.17A3,3 0 1 1 464.94,301.17Z" style="fill:#1FD3AC" />
<path d="M474.43,313.66A3,3 0 1 1 468.43,313.66A3,3 0 1 1 474.43,313.66Z" style="fill:#1FD3AC" />
<path d="M483.92,333.47A3,3 0 1 1 477.92,333.47A3,3 0 1 1 483.92,333.47Z" style="fill:#1FD3AC" />
<path d="M493.41,359.2A3,3 0 1 1 487.41,359.2A3,3 0 1 1 493.41,359.2Z" style="fill:#1FD3AC" />
<path d="M502.9,384.07A3,3 0 1 1 496.9,384.07A3,3 0 1 1 502.9,384.07Z" style="fill:#1FD3AC" />
<path d="M512.39,411.97A3,3 0 1 1 506.39,411.97A3,3 0 1 1 512.39,411.97Z" style="fill:#1FD3AC" />
<path d="M521.87,441.83A3,3 0 1 1 515.87,441.83A3,3 0 1 1 521.87,441.83Z" style="fill:#1FD3AC" />
<path d="M531.36,481.13A3,3 0 1 1 525.36,481.13A3,3 0 1 1 531.36,481.13Z" style="fill:#1FD3AC" />
<path d="M540.85,515.47A3,3 0 1 1 534.85,515.47A3,3 0 1 1 540.85,515.47Z" style="fill:#1FD3AC" />
<path d="M550.34,568.46A3,3 0 1 1 544.34,568.46A3,3 0 1 1 550.34,568.46Z" style="fill:#1FD3AC" />
<path d="M559.83,606.12A3,3 0 1 1 553.83,606.12A3,3 0 1 1 559.83,606.12Z" style="fill:#1FD3AC" />
<path d="M569.32,659.17A3,3 0 1 1 563.32,659.17A3,3 0 1 1 569.32,659.17Z" style="fill:#1FD3AC" />
<path d="M578.81,710.13A3,3 0 1 1 572.81,710.13A3,3 0 1 1 578.81,710.13Z" style="fill:#1FD3AC" />
<path d="M588.29,750.82A3,3 0 1 1 582.29,750.82A3,3 0 1 1 588.29,750.82Z" style="fill:#1FD3AC" />
<path d="M597.78,792.98A3,3 0 1 1 591.78,792.98A3,3 0 1 1 597.78,792.98Z" style="fill:#1FD3AC" />
<path d="M607.27,812.93A3,3 0 1 1 601.27,812.93A3,3 0 1 1 607.27,812.93Z" style="fill:#1FD3AC" />
<path d="M616.76,810.96A3,3 0 1 1 610.76,810.96A3,3 0 1 1 616.76,810.96Z" style="fill:#1FD3AC" />
<path d="M626.25,815.66A3,3 0 1 1 620.25,815.66A3,3 0 1 1 626.25,815.66Z" style="fill:#1FD3AC" />
<path d="M635.74,796.75A3,3 0 1 1 629.74,796.75A3,3 0 1 1 635.74,796.75Z" style="fill:#1FD3AC" />
<path d="M645.22,757.94A3,3 0 1 1 639.22,757.94A3,3 0 1 1 645.22,757.94Z" style="fill:#1FD3AC" />
<path d="M654.71,729.91A3,3 0 1 1 648.71,729.91A3,3 0 1 1 654.71,729.91Z" style="fill:#1FD3AC" />
<path d="M664.2,685.7A3,3 0 1 1 658.2,685.7A3,3 0 1 1 664.2,685.7Z" style="fill:#1FD3AC" />
<path d="M673.69,637.61A3,3 0 1 1 667.69,637.61A3,3 0 1 1 673.69,637.61Z" style="fill:#1FD3AC" />
<path d="M683.18,591.05A3,3 0 1 1 677.18,591.05A3,3 0 1 1 683.18,591.05Z" style="fill:#1FD3AC" />
<path d="M692.67,542.18A3,3 0 1 1 686.67,542.18A3,3 0 1 1 692.67,542.18Z" style="fill:#1FD3AC" />
<path d="M702.16,510.9A3,3 0 1 1 696.16,510.9A3,3 0 1 1 702.16,510.9Z" style="fill:#1FD3AC" />
<path d="M711.64,461.76A3,3 0 1 1 705.64,461.76A3,3 0 1 1 711.64,461.76Z" style="fill:#1FD3AC" />
<path d="M721.13,425.82A3,3 0 1 1 715.13,425.82A3,3 0 1 1 721.13,425.82Z" style="fill:#1FD3AC" />
<path d="M730.62,396.71A3,3 0 1 1 724.62,396.71A3,3 0 1 1 730.62,396.71Z" style="fill:#1FD3AC" />
<path d="M740.11,362.35A3,3 0 1 1 734.11,362.35A3,3 0 1 1 740.11,362.35Z" style="fill:#1FD3AC" />
<path d="M749.6,345.61A3,3 0 1 1 743.6,345.61A3,3 0 1 1 749.6,345.61Z" style="fill:#1FD3AC" />
<path d="M759.09,316.86A3,3 0 1 1 753.09,316.86A3,3 0 1 1 759.09,316.86Z" style="fill:#1FD3AC" />
<path d="M768.58,309.19A3,3 0 1 1 762.58,309.19A3,3 0 1 1 768.58,309.19Z" style="fill:#1FD3AC" />
<path d="M778.06,281.3A3,3 0 1 1 772.06,281.3A3,3 0 1 1 778.06,281.3Z" style="fill:#1FD3AC" />
<path d="M787.55,269.82A3,3 0 1 1 781.55,269.82A3,3 0 1 1 787.55,269.82Z" style="fill:#1FD3AC" />
<path d="M797.04,263.06A3,3 0 1 1 791.04,263.06A3,3 0 1 1 797.04,263.06Z" style="fill:#1FD3AC" />
<path d="M806.53,244.58A3,3 0 1 1 800.53,244.58A3,3 0 1 1 806.53,244.58Z" style="fill:#1FD3AC" />
<path d="M816.02,233.89A3,3 0 1 1 810.02,233.89A3,3 0 1 1 816.02,233.89Z" style="fill:#1FD3AC" />
<path d="M825.51,224.87A3,3 0 1 1 819.51,224.87A3,3 0 1 1 825.51,224.87Z" style="fill:#1FD3AC" />
<path d="M835,215.28A3,3 0 1 1 829,215.28A3,3 0 1 1 835,215.28Z" style="fill:#1FD3AC" />
<path d="M844.48,214.13A3,3 0 1 1 838.48,214.13A3,3 0 1 1 844.48,214.13Z" style="fill:#1FD3AC" />
<path d="M853.97,199.97A3,3 0 1 1 847.97,199.97A3,3 0 1 1 853.97,199.97Z" style="fill:#1FD3AC" />
<path d="M863.46,194.28A3,3 0 1 1 857.46,194.28A3,3 0 1 1 863.46,194.28Z" style="fill:#1FD3AC" />
<path d="M872.95,191.49A3,3 0 1 1 866.95,191.49A3,3 0 1 1 872.95,191.49Z" style="fill:#1FD3AC" />
<path d="M882.44,184.62A3,3 0 1 1 876.44,184.62A3,3 0 1 1 882.44,184.62Z" style="fill:#1FD3AC" />
<path d="M891.93,181.28A3,3 0 1 1 885.93,181.28A3,3 0 1 1 891.93,181.28Z" style="fill:#1FD3AC" />
<path d="M901.42,176.1A3,3 0 1 1 895.42,176.1A3,3 0 1 1 901.42,176.1Z" style="fill:#1FD3AC" />
<path d="M910.9,174.04A3,3 0 1 1 904.9,174.04A3,3 0 1 1 910.9,174.04Z" style="fill:#1FD3AC" />
<path d="M920.39,172.86A3,3 0 1 1 914.39,172.86A3,3 0 1 1 920.39,172.86Z" style="fill:#1FD3AC" />
<path d="M929.88,162.07A3,3 0 1 1 923.88,162.07A3,3 0 1 1 929.88,162.07Z" style="fill:#1FD3AC" />
<path d="M939.37,160.42A3,3 0 1 1 933.37,160.42A3,3 0 1 1 939.37,160.42Z" style="fill:#1FD3AC" />
<path d="M948.86,162.04A3,3 0 1 1 942.86,162.04A3,3 0 1 1 948.86,162.04Z" style="fill:#1FD3AC" />
<path d="M958.35,149.46A3,3 0 1 1 952.35,149.46A3,3 0 1 1 958.35,149.46Z" style="fill:#1FD3AC" />
<path d="M967.84,159.88A3,3 0 1 1 961.84,159.88A3,3 0 1 1 967.84,159.88Z" style="fill:#1FD3AC" />
<path d="M977.32,152.83A3,3 0 1 1 971.32,152.83A3,3 0 1 1 977.32,152.83Z" style="fill:#1FD3AC" />
<path d="M986.81,156.58A3,3 0 1 1 980.81,156.58A3,3 0 1 1 986.81,156.58Z" style="fill:#1FD3AC" />
<path d="M996.3,146.23A3,3 0 1 1 990.3,146.23A3,3 0 1 1 996.3,146.23Z" style="fill:#1FD3AC" />
<path d="M1005.8,146.66A3,3 0 1 1 999.79,146.66A3,3 0 1 1 1005.8,146.66Z" style="fill:#1FD3AC" />
<path d="M1015.3,137.74A3,3 0 1 1 1009.3,137.74A3,3 0 1 1 1015.3,137.74Z" style="fill:#1FD3AC" />
<path d="M1024.8,145.12A3,3 0 1 1 1018.8,145.12A3,3 0 1 1 1024.8,145.12Z" style="fill:#1FD3AC" />
<path d="M1034.3,138.5A3,3 0 1 1 1028.3,138.5A3,3 0 1 1 1034.3,138.5Z" style="fill:#1FD3AC" />
<path d="M1043.7,143.08A3,3 0 1 1 1037.7,143.08A3,3 0 1 1 1043.7,143.08Z" style="fill:#1FD3AC" />
<path d="M1053.2,140.21A3,3 0 1 1 1047.2,140.21A3,3 0 1 1 1053.2,140.21Z" style="fill:#1FD3AC" />
<path d="M106.12,962.84L1055,962.84" style="fill:none;stroke:#000000" />
<path d="M1055,104.32L1055,962.84" style="fill:none;stroke:#000000" />
<path d="M113.87,138.2A3,3 0 1 1 107.87,138.2A3,3 0 1 1 113.87,138.2Z" style="fill:#FF7AB4" />
<path d="M123.35,139.85A3,3 0 1 1 117.35,139.85A3,3 0 1 1 123.35,139.85Z" style="fill:#FF7AB4" />
<path d="M132.84,138.45A3,3 0 1 1 126.84,138.45A3,3 0 1 1 132.84,138.45Z" style="fill:#FF7AB4" />
<path d="M142.33,141.24A3,3 0 1 1 136.33,141.24A3,3 0 1 1 142.33,141.24Z" style="fill:#FF7AB4" />
<path d="M151.82,142.44A3,3 0 1 1 145.82,142.44A3,3 0 1 1 151.82,142.44Z" style="fill:#FF7AB4" />
<path d="M161.31,141.15A3,3 0 1 1 155.31,141.15A3,3 0 1 1 161.31,141.15Z" style="fill:#FF7AB4" />
<path d="M170.8,136.96A3,3 0 1 1 164.8,136.96A3,3 0 1 1 170.8,136.96Z" style="fill:#FF7AB4" />
<path d="M180.29,138.66A3,3 0 1 1 174.29,138.66A3,3 0 1 1 180.29,138.66Z" style="fill:#FF7AB4" />
<path d="M189.77,143.91A3,3 0 1 1 183.77,143.91A3,3 0 1 1 189.77,143.91Z" style="fill:#FF7AB4" />
<path d="M199.26,144.89A3,3 0 1 1 193.26,144.89A3,3 0 1 1 199.26,144.89Z" style="fill:#FF7AB4" />
<path d="M208.75,149.25A3,3 0 1 1 202.75,149.25A3,3 0 1 1 208.75,149.25Z" style="fill:#FF7AB4" />
<path d="M218.24,147.36A3,3 0 1 1 212.24,147.36A3,3 0 1 1 218.24,147.36Z" style="fill:#FF7AB4" />
<path d="M227.73,156.17A3,3 0 1 1 221.73,156.17A3,3 0 1 1 227.73,156.17Z" style="fill:#FF7AB4" />
<path d="M237.22,150.04A3,3 0 1 1 231.22,150.04A3,3 0 1 1 237.22,150.04Z" style="fill:#FF7AB4" />
<path d="M246.71,154.44A3,3 0 1 1 240.71,154.44A3,3 0 1 1 246.71,154.44Z" style="fill:#FF7AB4" />
<path d="M256.19,155.42A3,3 0 1 1 250.19,155.42A3,3 0 1 1 256.19,155.42Z" style="fill:#FF7AB4" />
<path d="M265.68,163.57A3,3 0 1 1 259.68,163.57A3,3 0 1 1 265.68,163.57Z" style="fill:#FF7AB4" />
<path d="M275.17,165.19A3,3 0 1 1 269.17,165.19A3,3 0 1 1 275.17,165.19Z" style="fill:#FF7AB4" />
<path d="M284.66,163.39A3,3 0 1 1 278.66,163.39A3,3 0 1 1 284.66,163.39Z" style="fill:#FF7AB4" />
<path d="M294.15,162.88A3,3 0 1 1 288.15,162.88A3,3 0 1 1 294.15,162.88Z" style="fill:#FF7AB4" />
<path d="M303.64,172.93A3,3 0 1 1 297.64,172.93A3,3 0 1 1 303.64,172.93Z" style="fill:#FF7AB4" />
<path d="M313.13,175.31A3,3 0 1 1 307.13,175.31A3,3 0 1 1 313.13,175.31Z" style="fill:#FF7AB4" />
<path d="M322.61,174.62A3,3 0 1 1 316.61,174.62A3,3 0 1 1 322.61,174.62Z" style="fill:#FF7AB4" />
<path d="M332.1,182.77A3,3 0 1 1 326.1,182.77A3,3 0 1 1 332.1,182.77Z" style="fill:#FF7AB4" />
<path d="M341.59,190.64A3,3 0 1 1 335.59,190.64A3,3 0 1 1 341.59,190.64Z" style="fill:#FF7AB4" />
<path d="M351.08,196.76A3,3 0 1 1 345.08,196.76A3,3 0 1 1 351.08,196.76Z" style="fill:#FF7AB4" />
<path d="M360.57,200.49A3,3 0 1 1 354.57,200.49A3,3 0 1 1 360.57,200.49Z" style="fill:#FF7AB4" />
<path d="M370.06,208.02A3,3 0 1 1 364.06,208.02A3,3 0 1 1 370.06,208.02Z" style="fill:#FF7AB4" />
<path d="M379.55,213.54A3,3 0 1 1 373.55,213.54A3,3 0 1 1 379.55,213.54Z" style="fill:#FF7AB4" />
<path d="M389.03,221.46A3,3 0 1 1 383.03,221.46A3,3 0 1 1 389.03,221.46Z" style="fill:#FF7AB4" />
<path d="M398.52,225.21A3,3 0 1 1 392.52,225.21A3,3 0 1 1 398.52,225.21Z" style="fill:#FF7AB4" />
<path d="M408.01,236.56A3,3 0 1 1 402.01,236.56A3,3 0 1 1 408.01,236.56Z" style="fill:#FF7AB4" />
<path d="M417.5,246.29A3,3 0 1 1 411.5,246.29A3,3 0 1 1 417.5,246.29Z" style="fill:#FF7AB4" />
<path d="M426.99,250.71A3,3 0 1 1 420.99,250.71A3,3 0 1 1 426.99,250.71Z" style="fill:#FF7AB4" />
<path d="M436.48,265.9A3,3 0 1 1 430.48,265.9A3,3 0 1 1 436.48,265.9Z" style="fill:#FF7AB4" />
<path d="M445.97,280.32A3,3 0 1 1 439.97,280.32A3,3 0 1 1 445.97,280.32Z" style="fill:#FF7AB4" />
<path d="M455.45,289.32A3,3 0 1 1 449.45,289.32A3,3 0 1 1 455.45,289.32Z" style="fill:#FF7AB4" />
<path d="M464.94,296.34A3,3 0 1 1 458.94,296.34A3,3 0 1 1 464.94,296.34Z" style="fill:#FF7AB4" />
<path d="M474.43,320.48A3,3 0 1 1 468.43,320.48A3,3 0 1 1 474.43,320.48Z" style="fill:#FF7AB4" />
<path d="M483.92,337.45A3,3 0 1 1 477.92,337.45A3,3 0 1 1 483.92,337.45Z" style="fill:#FF7AB4" />
<path d="M493.41,360.91A3,3 0 1 1 487.41,360.91A3,3 0 1 1 493.41,360.91Z" style="fill:#FF7AB4" />
<path d="M502.9,390.85A3,3 0 1 1 496.9,390.85A3,3 0 1 1 502.9,390.85Z" style="fill:#FF7AB4" />
<path d="M512.39,424.27A3,3 0 1 1 506.39,424.27A3,3 0 1 1 512.39,424.27Z" style="fill:#FF7AB4" />
<path d="M521.87,452.67A3,3 0 1 1 515.87,452.67A3,3 0 1 1 521.87,452.67Z" style="fill:#FF7AB4" />
<path d="M531.36,487.03A3,3 0 1 1 525.36,487.03A3,3 0 1 1 531.36,487.03Z" style="fill:#FF7AB4" />
<path d="M540.85,533.52A3,3 0 1 1 534.85,533.52A3,3 0 1 1 540.85,533.52Z" style="fill:#FF7AB4" />
<path d="M550.34,575.01A3,3 0 1 1 544.34,575.01A3,3 0 1 1 550.34,575.01Z" style="fill:#FF7AB4" />
<path d="M559.83,623.68A3,3 0 1 1 553.83,623.68A3,3 0 1 1 559.83,623.68Z" style="fill:#FF7AB4" />
<path d="M569.32,674.65A3,3 0 1 1 563.32,674.65A3,3 0 1 1 569.32,674.65Z" style="fill:#FF7AB4" />
<path d="M578.81,719.44A3,3 0 1 1 572.81,719.44A3,3 0 1 1 578.81,719.44Z" style="fill:#FF7AB4" />
<path d="M588.29,769.71A3,3 0 1 1 582.29,769.71A3,3 0 1 1 588.29,769.71Z" style="fill:#FF7AB4" />
<path d="M597.78,802.1A3,3 0 1 1 591.78,802.1A3,3 0 1 1 597.78,802.1Z" style="fill:#FF7AB4" />
<path d="M607.27,815.48A3,3 0 1 1 601.27,815.48A3,3 0 1 1 607.27,815.48Z" style="fill:#FF7AB4" />
<path d="M616.76,835.96A3,3 0 1 1 610.76,835.96A3,3 0 1 1 616.76,835.96Z" style="fill:#FF7AB4" />
<path d="M626.25,817.34A3,3 0 1 1 620.25,817.34A3,3 0 1 1 626.25,817.34Z" style="fill:#FF7AB4" />
<path d="M635.74,805.01A3,3 0 1 1 629.74,805.01A3,3 0 1 1 635.74,805.01Z" style="fill:#FF7AB4" />
<path d="M645.22,777.98A3,3 0 1 1 639.22,777.98A3,3 0 1 1 645.22,777.98Z" style="fill:#FF7AB4" />
<path d="M654.71,741.42A3,3 0 1 1 648.71,741.42A3,3 0 1 1 654.71,741.42Z" style="fill:#FF7AB4" />
<path d="M664.2,689A3,3 0 1 1 658.2,689A3,3 0 1 1 664.2,689Z" style="fill:#FF7AB4" />
<path d="M673.69,642.99A3,3 0 1 1 667.69,642.99A3,3 0 1 1 673.69,642.99Z" style="fill:#FF7AB4" />
<path d="M683.18,596.77A3,3 0 1 1 677.18,596.77A3,3 0 1 1 683.18,596.77Z" style="fill:#FF7AB4" />
<path d="M692.67,546.31A3,3 0 1 1 686.67,546.31A3,3 0 1 1 692.67,546.31Z" style="fill:#FF7AB4" />
<path d="M702.16,505.41A3,3 0 1 1 696.16,505.41A3,3 0 1 1 702.16,505.41Z" style="fill:#FF7AB4" />
<path d="M711.64,471.38A3,3 0 1 1 705.64,471.38A3,3 0 1 1 711.64,471.38Z" style="fill:#FF7AB4" />
<path d="M721.13,427.92A3,3 0 1 1 715.13,427.92A3,3 0 1 1 721.13,427.92Z" style="fill:#FF7AB4" />
<path d="M730.62,404.44A3,3 0 1 1 724.62,404.44A3,3 0 1 1 730.62,404.44Z" style="fill:#FF7AB4" />
<path d="M740.11,374.92A3,3 0 1 1 734.11,374.92A3,3 0 1 1 740.11,374.92Z" style="fill:#FF7AB4" />
<path d="M749.6,345.53A3,3 0 1 1 743.6,345.53A3,3 0 1 1 749.6,345.53Z" style="fill:#FF7AB4" />
<path d="M759.09,333.41A3,3 0 1 1 753.09,333.41A3,3 0 1 1 759.09,333.41Z" style="fill:#FF7AB4" />
<path d="M768.58,316.27A3,3 0 1 1 762.58,316.27A3,3 0 1 1 768.58,316.27Z" style="fill:#FF7AB4" />
<path d="M778.06,299.87A3,3 0 1 1 772.06,299.87A3,3 0 1 1 778.06,299.87Z" style="fill:#FF7AB4" />
<path d="M787.55,288.65A3,3 0 1 1 781.55,288.65A3,3 0 1 1 787.55,288.65Z" style="fill:#FF7AB4" />
<path d="M797.04,269.15A3,3 0 1 1 791.04,269.15A3,3 0 1 1 797.04,269.15Z" style="fill:#FF7AB4" />
<path d="M806.53,252.11A3,3 0 1 1 800.53,252.11A3,3 0 1 1 806.53,252.11Z" style="fill:#FF7AB4" />
<path d="M816.02,242.79A3,3 0 1 1 810.02,242.79A3,3 0 1 1 816.02,242.79Z" style="fill:#FF7AB4" />
<path d="M825.51,234.17A3,3 0 1 1 819.51,234.17A3,3 0 1 1 825.51,234.17Z" style="fill:#FF7AB4" />
<path d="M835,227.01A3,3 0 1 1 829,227.01A3,3 0 1 1 835,227.01Z" style="fill:#FF7AB4" />
<path d="M844.48,220.8A3,3 0 1 1 838.48,220.8A3,3 0 1 1 844.48,220.8Z" style="fill:#FF7AB4" />
<path d="M853.97,215.02A3,3 0 1 1 847.97,215.02A3,3 0 1 1 853.97,215.02Z" style="fill:#FF7AB4" />
<path d="M863.46,203.13A3,3 0 1 1 857.46,203.13A3,3 0 1 1 863.46,203.13Z" style="fill:#FF7AB4" />
<path d="M872.95,206.75A3,3 0 1 1 866.95,206.75A3,3 0 1 1 872.95,206.75Z" style="fill:#FF7AB4" />
<path d="M882.44,193.81A3,3 0 1 1 876.44,193.81A3,3 0 1 1 882.44,193.81Z" style="fill:#FF7AB4" />
<path d="M891.93,191.82A3,3 0 1 1 885.93,191.82A3,3 0 1 1 891.93,191.82Z" style="fill:#FF7AB4" />
<path d="M901.42,186.02A3,3 0 1 1 895.42,186.02A3,3 0 1 1 901.42,186.02Z" style="fill:#FF7AB4" />
<path d="M910.9,179.75A3,3 0 1 1 904.9,179.75A3,3 0 1 1 910.9,179.75Z" style="fill:#FF7AB4" />
<path d="M920.39,177.81A3,3 0 1 1 914.39,177.81A3,3 0 1 1 920.39,177.81Z" style="fill:#FF7AB4" />
<path d="M929.88,177.04A3,3 0 1 1 923.88,177.04A3,3 0 1 1 929.88,177.04Z" style="fill:#FF7AB4" />
<path d="M939.37,174.51A3,3 0 1 1 933.37,174.51A3,3 0 1 1 939.37,174.51Z" style="fill:#FF7AB4" />
<path d="M948.86,170.37A3,3 0 1 1 942.86,170.37A3,3 0 1 1 948.86,170.37Z" style="fill:#FF7AB4" />
<path d="M958.35,170.38A3,3 0 1 1 952.35,170.38A3,3 0 1 1 958.35,170.38Z" style="fill:#FF7AB4" />
<path d="M967.84,165.87A3,3 0 1 1 961.84,165.87A3,3 0 1 1 967.84,165.87Z" style="fill:#FF7AB4" />
<path d="M977.32,162.21A3,3 0 1 1 971.32,162.21A3,3 0 1 1 977.32,162.21Z" style="fill:#FF7AB4" />
<path d="M986.81,160.32A3,3 0 1 1 980.81,160.32A3,3 0 1 1 986.81,160.32Z" style="fill:#FF7AB4" />
<path d="M996.3,156.28A3,3 0 1 1 990.3,156.28A3,3 0 1 1 996.3,156.28Z" style="fill:#FF7AB4" />
<path d="M1005.8,164.95A3,3 0 1 1 999.79,164.95A3,3 0 1 1 1005.8,164.95Z" style="fill:#FF7AB4" />
<path d="M1015.3,154.56A3,3 0 1 1 1009.3,154.56A3,3 0 1 1 1015.3,154.56Z" style="fill:#FF7AB4" />
<path d="M1024.8,153A3,3 0 1 1 1018.8,153A3,3 0 1 1 1024.8,153Z" style="fill:#FF7AB4" />
<path d="M1034.3,153.34A3,3 0 1 1 1028.3,153.34A3,3 0 1 1 1034.3,153.34Z" style="fill:#FF7AB4" />
<path d="M1043.7,151.85A3,3 0 1 1 1037.7,151.85A3,3 0 1 1 1043.7,151.85Z" style="fill:#FF7AB4" />
<path d="M1053.2,153.8A3,3 0 1 1 1047.2,153.8A3,3 0 1 1 1053.2,153.8Z" style="fill:#FF7AB4" />
<path d="M106.12,962.84L1055,962.84" style="fill:none;stroke:#000000" />
<path d="M1055,104.32L1055,962.84" style="fill:none;stroke:#000000" />
<path d="M113.87,135A3,3 0 1 1 107.87,135A3,3 0 1 1 113.87,135Z" style="fill:#7A9CFF" />
<path d="M123.35,135.53A3,3 0 1 1 117.35,135.53A3,3 0 1 1 123.35,135.53Z" style="fill:#7A9CFF" />
<path d="M132.84,140.65A3,3 0 1 1 126.84,140.65A3,3 0 1 1 132.84,140.65Z" style="fill:#7A9CFF" />
<path d="M142.33,142.25A3,3 0 1 1 136.33,142.25A3,3 0 1 1 142.33,142.25Z" style="fill:#7A9CFF" />
<path d="M151.82,141.31A3,3 0 1 1 145.82,141.31A3,3 0 1 1 151.82,141.31Z" style="fill:#7A9CFF" />
<path d="M161.31,143.76A3,3 0 1 1 155.31,143.76A3,3 0 1 1 161.31,143.76Z" style="fill:#7A9CFF" />
<path d="M170.8,140.62A3,3 0 1 1 164.8,140.62A3,3 0 1 1 170.8,140.62Z" style="fill:#7A9CFF" />
<path d="M180.29,143.05A3,3 0 1 1 174.29,143.05A3,3 0 1 1 180.29,143.05Z" style="fill:#7A9CFF" />
<path d="M189.77,142.05A3,3 0 1 1 183.77,142.05A3,3 0 1 1 189.77,142.05Z" style="fill:#7A9CFF" />
<path d="M199.26,147.39A3,3 0 1 1 193.26,147.39A3,3 0 1 1 199.26,147.39Z" style="fill:#7A9CFF" />
<path d="M208.75,145.14A3,3 0 1 1 202.75,145.14A3,3 0 1 1 208.75,145.14Z" style="fill:#7A9CFF" />
<path d="M218.24,148.55A3,3 0 1 1 212.24,148.55A3,3 0 1 1 218.24,148.55Z" style="fill:#7A9CFF" />
<path d="M227.73,150.93A3,3 0 1 1 221.73,150.93A3,3 0 1 1 227.73,150.93Z" style="fill:#7A9CFF" />
<path d="M237.22,150.6A3,3 0 1 1 231.22,150.6A3,3 0 1 1 237.22,150.6Z" style="fill:#7A9CFF" />
<path d="M246.71,154.36A3,3 0 1 1 240.71,154.36A3,3 0 1 1 246.71,154.36Z" style="fill:#7A9CFF" />
<path d="M256.19,158.87A3,3 0 1 1 250.19,158.87A3,3 0 1 1 256.19,158.87Z" style="fill:#7A9CFF" />
<path d="M265.68,159.9A3,3 0 1 1 259.68,159.9A3,3 0 1 1 265.68,159.9Z" style="fill:#7A9CFF" />
<path d="M275.17,169.12A3,3 0 1 1 269.17,169.12A3,3 0 1 1 275.17,169.12Z" style="fill:#7A9CFF" />
<path d="M284.66,166.63A3,3 0 1 1 278.66,166.63A3,3 0 1 1 284.66,166.63Z" style="fill:#7A9CFF" />
<path d="M294.15,168.07A3,3 0 1 1 288.15,168.07A3,3 0 1 1 294.15,168.07Z" style="fill:#7A9CFF" />
<path d="M303.64,172.43A3,3 0 1 1 297.64,172.43A3,3 0 1 1 303.64,172.43Z" style="fill:#7A9CFF" />
<path d="M313.13,179.81A3,3 0 1 1 307.13,179.81A3,3 0 1 1 313.13,179.81Z" style="fill:#7A9CFF" />
<path d="M322.61,179.69A3,3 0 1 1 316.61,179.69A3,3 0 1 1 322.61,179.69Z" style="fill:#7A9CFF" />
<path d="M332.1,188.14A3,3 0 1 1 326.1,188.14A3,3 0 1 1 332.1,188.14Z" style="fill:#7A9CFF" />
<path d="M341.59,193.39A3,3 0 1 1 335.59,193.39A3,3 0 1 1 341.59,193.39Z" style="fill:#7A9CFF" />
<path d="M351.08,196.62A3,3 0 1 1 345.08,196.62A3,3 0 1 1 351.08,196.62Z" style="fill:#7A9CFF" />
<path d="M360.57,201.68A3,3 0 1 1 354.57,201.68A3,3 0 1 1 360.57,201.68Z" style="fill:#7A9CFF" />
<path d="M370.06,205.34A3,3 0 1 1 364.06,205.34A3,3 0 1 1 370.06,205.34Z" style="fill:#7A9CFF" />
<path d="M379.55,215.21A3,3 0 1 1 373.55,215.21A3,3 0 1 1 379.55,215.21Z" style="fill:#7A9CFF" />
<path d="M389.03,216.15A3,3 0 1 1 383.03,216.15A3,3 0 1 1 389.03,216.15Z" style="fill:#7A9CFF" />
<path d="M398.52,231.24A3,3 0 1 1 392.52,231.24A3,3 0 1 1 398.52,231.24Z" style="fill:#7A9CFF" />
<path d="M408.01,232.02A3,3 0 1 1 402.01,232.02A3,3 0 1 1 408.01,232.02Z" style="fill:#7A9CFF" />
<path d="M417.5,247.41A3,3 0 1 1 411.5,247.41A3,3 0 1 1 417.5,247.41Z" style="fill:#7A9CFF" />
<path d="M426.99,252.98A3,3 0 1 1 420.99,252.98A3,3 0 1 1 426.99,252.98Z" style="fill:#7A9CFF" />
<path d="M436.48,267.08A3,3 0 1 1 430.48,267.08A3,3 0 1 1 436.48,267.08Z" style="fill:#7A9CFF" />
<path d="M445.97,276.14A3,3 0 1 1 439.97,276.14A3,3 0 1 1 445.97,276.14Z" style="fill:#7A9CFF" />
<path d="M455.45,289.67A3,3 0 1 1 449.45,289.67A3,3 0 1 1 455.45,289.67Z" style="fill:#7A9CFF" />
<path d="M464.94,302.45A3,3 0 1 1 458.94,302.45A3,3 0 1 1 464.94,302.45Z" style="fill:#7A9CFF" />
<path d="M474.43,317.9A3,3 0 1 1 468.43,317.9A3,3 0 1 1 474.43,317.9Z" style="fill:#7A9CFF" />
<path d="M483.92,337.61A3,3 0 1 1 477.92,337.61A3,3 0 1 1 483.92,337.61Z" style="fill:#7A9CFF" />
<path d="M493.41,359.01A3,3 0 1 1 487.41,359.01A3,3 0 1 1 493.41,359.01Z" style="fill:#7A9CFF" />
<path d="M502.9,395.09A3,3 0 1 1 496.9,395.09A3,3 0 1 1 502.9,395.09Z" style="fill:#7A9CFF" />
<path d="M512.39,420.42A3,3 0 1 1 506.39,420.42A3,3 0 1 1 512.39,420.42Z" style="fill:#7A9CFF" />
<path d="M521.87,448.96A3,3 0 1 1 515.87,448.96A3,3 0 1 1 521.87,448.96Z" style="fill:#7A9CFF" />
<path d="M531.36,481.03A3,3 0 1 1 525.36,481.03A3,3 0 1 1 531.36,481.03Z" style="fill:#7A9CFF" />
<path d="M540.85,532.26A3,3 0 1 1 534.85,532.26A3,3 0 1 1 540.85,532.26Z" style="fill:#7A9CFF" />
<path d="M550.34,568.38A3,3 0 1 1 544.34,568.38A3,3 0 1 1 550.34,568.38Z" style="fill:#7A9CFF" />
<path d="M559.83,621.37A3,3 0 1 1 553.83,621.37A3,3 0 1 1 559.83,621.37Z" style="fill:#7A9CFF" />
<path d="M569.32,671.51A3,3 0 1 1 563.32,671.51A3,3 0 1 1 569.32,671.51Z" style="fill:#7A9CFF" />
<path d="M578.81,720.54A3,3 0 1 1 572.81,720.54A3,3 0 1 1 578.81,720.54Z" style="fill:#7A9CFF" />
<path d="M588.29,766.91A3,3 0 1 1 582.29,766.91A3,3 0 1 1 588.29,766.91Z" style="fill:#7A9CFF" />
<path d="M597.78,798.74A3,3 0 1 1 591.78,798.74A3,3 0 1 1 597.78,798.74Z" style="fill:#7A9CFF" />
<path d="M607.27,829.87A3,3 0 1 1 601.27,829.87A3,3 0 1 1 607.27,829.87Z" style="fill:#7A9CFF" />
<path d="M616.76,821.69A3,3 0 1 1 610.76,821.69A3,3 0 1 1 616.76,821.69Z" style="fill:#7A9CFF" />
<path d="M626.25,820.44A3,3 0 1 1 620.25,820.44A3,3 0 1 1 626.25,820.44Z" style="fill:#7A9CFF" />
<path d="M635.74,804.17A3,3 0 1 1 629.74,804.17A3,3 0 1 1 635.74,804.17Z" style="fill:#7A9CFF" />
<path d="M645.22,768.41A3,3 0 1 1 639.22,768.41A3,3 0 1 1 645.22,768.41Z" style="fill:#7A9CFF" />
<path d="M654.71,738.42A3,3 0 1 1 648.71,738.42A3,3 0 1 1 654.71,738.42Z" style="fill:#7A9CFF" />
<path d="M664.2,681.12A3,3 0 1 1 658.2,681.12A3,3 0 1 1 664.2,681.12Z" style="fill:#7A9CFF" />
<path d="M673.69,640.91A3,3 0 1 1 667.69,640.91A3,3 0 1 1 673.69,640.91Z" style="fill:#7A9CFF" />
<path d="M683.18,588.49A3,3 0 1 1 677.18,588.49A3,3 0 1 1 683.18,588.49Z" style="fill:#7A9CFF" />
<path d="M692.67,545.33A3,3 0 1 1 686.67,545.33A3,3 0 1 1 692.67,545.33Z" style="fill:#7A9CFF" />
<path d="M702.16,501.76A3,3 0 1 1 696.16,501.76A3,3 0 1 1 702.16,501.76Z" style="fill:#7A9CFF" />
<path d="M711.64,460.1A3,3 0 1 1 705.64,460.1A3,3 0 1 1 711.64,460.1Z" style="fill:#7A9CFF" />
<path d="M721.13,425.6A3,3 0 1 1 715.13,425.6A3,3 0 1 1 721.13,425.6Z" style="fill:#7A9CFF" />
<path d="M730.62,396.74A3,3 0 1 1 724.62,396.74A3,3 0 1 1 730.62,396.74Z" style="fill:#7A9CFF" />
<path d="M740.11,372.45A3,3 0 1 1 734.11,372.45A3,3 0 1 1 740.11,372.45Z" style="fill:#7A9CFF" />
<path d="M749.6,349.72A3,3 0 1 1 743.6,349.72A3,3 0 1 1 749.6,349.72Z" style="fill:#7A9CFF" />
<path d="M759.09,333.21A3,3 0 1 1 753.09,333.21A3,3 0 1 1 759.09,333.21Z" style="fill:#7A9CFF" />
<path d="M768.58,308.56A3,3 0 1 1 762.58,308.56A3,3 0 1 1 768.58,308.56Z" style="fill:#7A9CFF" />
<path d="M778.06,292.16A3,3 0 1 1 772.06,292.16A3,3 0 1 1 778.06,292.16Z" style="fill:#7A9CFF" />
<path d="M787.55,271.96A3,3 0 1 1 781.55,271.96A3,3 0 1 1 787.55,271.96Z" style="fill:#7A9CFF" />
<path d="M797.04,262.87A3,3 0 1 1 791.04,262.87A3,3 0 1 1 797.04,262.87Z" style="fill:#7A9CFF" />
<path d="M806.53,252.16A3,3 0 1 1 800.53,252.16A3,3 0 1 1 806.53,252.16Z" style="fill:#7A9CFF" />
<path d="M816.02,244.53A3,3 0 1 1 810.02,244.53A3,3 0 1 1 816.02,244.53Z" style="fill:#7A9CFF" />
<path d="M825.51,232.51A3,3 0 1 1 819.51,232.51A3,3 0 1 1 825.51,232.51Z" style="fill:#7A9CFF" />
<path d="M835,222.22A3,3 0 1 1 829,222.22A3,3 0 1 1 835,222.22Z" style="fill:#7A9CFF" />
<path d="M844.48,213.4A3,3 0 1 1 838.48,213.4A3,3 0 1 1 844.48,213.4Z" style="fill:#7A9CFF" />
<path d="M853.97,214.49A3,3 0 1 1 847.97,214.49A3,3 0 1 1 853.97,214.49Z" style="fill:#7A9CFF" />
<path d="M863.46,200.84A3,3 0 1 1 857.46,200.84A3,3 0 1 1 863.46,200.84Z" style="fill:#7A9CFF" />
<path d="M872.95,199.19A3,3 0 1 1 866.95,199.19A3,3 0 1 1 872.95,199.19Z" style="fill:#7A9CFF" />
<path d="M882.44,191.3A3,3 0 1 1 876.44,191.3A3,3 0 1 1 882.44,191.3Z" style="fill:#7A9CFF" />
<path d="M891.93,193.23A3,3 0 1 1 885.93,193.23A3,3 0 1 1 891.93,193.23Z" style="fill:#7A9CFF" />
<path d="M901.42,182.6A3,3 0 1 1 895.42,182.6A3,3 0 1 1 901.42,182.6Z" style="fill:#7A9CFF" />
<path d="M910.9,180.67A3,3 0 1 1 904.9,180.67A3,3 0 1 1 910.9,180.67Z" style="fill:#7A9CFF" />
<path d="M920.39,171.51A3,3 0 1 1 914.39,171.51A3,3 0 1 1 920.39,171.51Z" style="fill:#7A9CFF" />
<path d="M929.88,176.95A3,3 0 1 1 923.88,176.95A3,3 0 1 1 929.88,176.95Z" style="fill:#7A9CFF" />
<path d="M939.37,169.4A3,3 0 1 1 933.37,169.4A3,3 0 1 1 939.37,169.4Z" style="fill:#7A9CFF" />
<path d="M948.86,167.59A3,3 0 1 1 942.86,167.59A3,3 0 1 1 948.86,167.59Z" style="fill:#7A9CFF" />
<path d="M958.35,161.89A3,3 0 1 1 952.35,161.89A3,3 0 1 1 958.35,161.89Z" style="fill:#7A9CFF" />
<path d="M967.84,161.55A3,3 0 1 1 961.84,161.55A3,3 0 1 1 967.84,161.55Z" style="fill:#7A9CFF" />
<path d="M977.32,164.34A3,3 0 1 1 971.32,164.34A3,3 0 1 1 977.32,164.34Z" style="fill:#7A9CFF" />
<path d="M986.81,160.76A3,3 0 1 1 980.81,160.76A3,3 0 1 1 986.81,160.76Z" style="fill:#7A9CFF" />
<path d="M996.3,158.16A3,3 0 1 1 990.3,158.16A3,3 0 1 1 996.3,158.16Z" style="fill:#7A9CFF" />
<path d="M1005.8,164.34A3,3 0 1 1 999.79,164.34A3,3 0 1 1 1005.8,164.34Z" style="fill:#7A9CFF" />
<path d="M1015.3,151.89A3,3 0 1 1 1009.3,151.89A3,3 0 1 1 1015.3,151.89Z" style="fill:#7A9CFF" />
<path d="M1024.8,150.37A3,3 0 1 1 1018.8,150.37A3,3 0 1 1 1024.8,150.37Z" style="fill:#7A9CFF" />
<path d="M1034.3,151.6A3,3 0 1 1 1028.3,151.6A3,3 0 1 1 1034.3,151.6Z" style="fill:#7A9CFF" />
<path d="M1043.7,154.68A3,3 0 1 1 1037.7,154.68A3,3 0 1 1 1043.7,154.68Z" style="fill:#7A9CFF" />
<path d="M1053.2,145.59A3,3 0 1 1 1047.2,145.59A3,3 0 1 1 1053.2,145.59Z" style="fill:#7A9CFF" />
<path d="M106.12,962.84L1055,962.84" style="fill:none;stroke:#000000" />
<path d="M1055,104.32L1055,962.84" style="fill:none;stroke:#000000" />
<path d="M113.87,135.69A3,3 0 1 1 107.87,135.69A3,3 0 1 1 113.87,135.69Z" style="fill:#FFB66E" />
<path d="M123.35,137.41A3,3 0 1 1 117.35,137.41A3,3 0 1 1 123.35,137.41Z" style="fill:#FFB66E" />
<path d="M132.84,138.74A3,3 0 1 1 126.84,138.74A3,3 0 1 1 132.84,138.74Z" style="fill:#FFB66E" />
<path d="M142.33,139.58A3,3 0 1 1 136.33,139.58A3,3 0 1 1 142.33,139.58Z" style="fill:#FFB66E" />
<path d="M151.82,141.27A3,3 0 1 1 145.82,141.27A3,3 0 1 1 151.82,141.27Z" style="fill:#FFB66E" />
<path d="M161.31,145.58A3,3 0 1 1 155.31,145.58A3,3 0 1 1 161.31,145.58Z" style="fill:#FFB66E" />
<path d="M170.8,139.09A3,3 0 1 1 164.8,139.09A3,3 0 1 1 170.8,139.09Z" style="fill:#FFB66E" />
<path d="M180.29,139.36A3,3 0 1 1 174.29,139.36A3,3 0 1 1 180.29,139.36Z" style="fill:#FFB66E" />
<path d="M189.77,142.77A3,3 0 1 1 183.77,142.77A3,3 0 1 1 189.77,142.77Z" style="fill:#FFB66E" />
<path d="M199.26,145.65A3,3 0 1 1 193.26,145.65A3,3 0 1 1 199.26,145.65Z" style="fill:#FFB66E" />
<path d="M208.75,153.09A3,3 0 1 1 202.75,153.09A3,3 0 1 1 208.75,153.09Z" style="fill:#FFB66E" />
<path d="M218.24,148.26A3,3 0 1 1 212.24,148.26A3,3 0 1 1 218.24,148.26Z" style="fill:#FFB66E" />
<path d="M227.73,151.75A3,3 0 1 1 221.73,151.75A3,3 0 1 1 227.73,151.75Z" style="fill:#FFB66E" />
<path d="M237.22,152.45A3,3 0 1 1 231.22,152.45A3,3 0 1 1 237.22,152.45Z" style="fill:#FFB66E" />
<path d="M246.71,154.68A3,3 0 1 1 240.71,154.68A3,3 0 1 1 246.71,154.68Z" style="fill:#FFB66E" />
<path d="M256.19,154.94A3,3 0 1 1 250.19,154.94A3,3 0 1 1 256.19,154.94Z" style="fill:#FFB66E" />
<path d="M265.68,155.96A3,3 0 1 1 259.68,155.96A3,3 0 1 1 265.68,155.96Z" style="fill:#FFB66E" />
<path d="M275.17,159.83A3,3 0 1 1 269.17,159.83A3,3 0 1 1 275.17,159.83Z" style="fill:#FFB66E" />
<path d="M284.66,168.82A3,3 0 1 1 278.66,168.82A3,3 0 1 1 284.66,168.82Z" style="fill:#FFB66E" />
<path d="M294.15,168.63A3,3 0 1 1 288.15,168.63A3,3 0 1 1 294.15,168.63Z" style="fill:#FFB66E" />
<path d="M303.64,176.76A3,3 0 1 1 297.64,176.76A3,3 0 1 1 303.64,176.76Z" style="fill:#FFB66E" />
<path d="M313.13,173.9A3,3 0 1 1 307.13,173.9A3,3 0 1 1 313.13,173.9Z" style="fill:#FFB66E" />
<path d="M322.61,177.19A3,3 0 1 1 316.61,177.19A3,3 0 1 1 322.61,177.19Z" style="fill:#FFB66E" />
<path d="M332.1,185.85A3,3 0 1 1 326.1,185.85A3,3 0 1 1 332.1,185.85Z" style="fill:#FFB66E" />
<path d="M341.59,192.48A3,3 0 1 1 335.59,192.48A3,3 0 1 1 341.59,192.48Z" style="fill:#FFB66E" />
<path d="M351.08,198.68A3,3 0 1 1 345.08,198.68A3,3 0 1 1 351.08,198.68Z" style="fill:#FFB66E" />
<path d="M360.57,196.49A3,3 0 1 1 354.57,196.49A3,3 0 1 1 360.57,196.49Z" style="fill:#FFB66E" />
<path d="M370.06,209.5A3,3 0 1 1 364.06,209.5A3,3 0 1 1 370.06,209.5Z" style="fill:#FFB66E" />
<path d="M379.55,210.86A3,3 0 1 1 373.55,210.86A3,3 0 1 1 379.55,210.86Z" style="fill:#FFB66E" />
<path d="M389.03,217.33A3,3 0 1 1 383.03,217.33A3,3 0 1 1 389.03,217.33Z" style="fill:#FFB66E" />
<path d="M398.52,225.49A3,3 0 1 1 392.52,225.49A3,3 0 1 1 398.52,225.49Z" style="fill:#FFB66E" />
<path d="M408.01,237.62A3,3 0 1 1 402.01,237.62A3,3 0 1 1 408.01,237.62Z" style="fill:#FFB66E" />
<path d="M417.5,244.94A3,3 0 1 1 411.5,244.94A3,3 0 1 1 417.5,244.94Z" style="fill:#FFB66E" />
<path d="M426.99,253.49A3,3 0 1 1 420.99,253.49A3,3 0 1 1 426.99,253.49Z" style="fill:#FFB66E" />
<path d="M436.48,265.64A3,3 0 1 1 430.48,265.64A3,3 0 1 1 436.48,265.64Z" style="fill:#FFB66E" />
<path d="M445.97,269.27A3,3 0 1 1 439.97,269.27A3,3 0 1 1 445.97,269.27Z" style="fill:#FFB66E" />
<path d="M455.45,283.12A3,3 0 1 1 449.45,283.12A3,3 0 1 1 455.45,283.12Z" style="fill:#FFB66E" />
<path d="M464.94,298.16A3,3 0 1 1 458.94,298.16A3,3 0 1 1 464.94,298.16Z" style="fill:#FFB66E" />
<path d="M474.43,326.67A3,3 0 1 1 468.43,326.67A3,3 0 1 1 474.43,326.67Z" style="fill:#FFB66E" />
<path d="M483.92,337.17A3,3 0 1 1 477.92,337.17A3,3 0 1 1 483.92,337.17Z" style="fill:#FFB66E" />
<path d="M493.41,356.06A3,3 0 1 1 487.41,356.06A3,3 0 1 1 493.41,356.06Z" style="fill:#FFB66E" />
<path d="M502.9,386.56A3,3 0 1 1 496.9,386.56A3,3 0 1 1 502.9,386.56Z" style="fill:#FFB66E" />
<path d="M512.39,421.75A3,3 0 1 1 506.39,421.75A3,3 0 1 1 512.39,421.75Z" style="fill:#FFB66E" />
<path d="M521.87,450.3A3,3 0 1 1 515.87,450.3A3,3 0 1 1 521.87,450.3Z" style="fill:#FFB66E" />
<path d="M531.36,489.31A3,3 0 1 1 525.36,489.31A3,3 0 1 1 531.36,489.31Z" style="fill:#FFB66E" />
<path d="M540.85,524.28A3,3 0 1 1 534.85,524.28A3,3 0 1 1 540.85,524.28Z" style="fill:#FFB66E" />
<path d="M550.34,574.56A3,3 0 1 1 544.34,574.56A3,3 0 1 1 550.34,574.56Z" style="fill:#FFB66E" />
<path d="M559.83,622.93A3,3 0 1 1 553.83,622.93A3,3 0 1 1 559.83,622.93Z" style="fill:#FFB66E" />
<path d="M569.32,668.3A3,3 0 1 1 563.32,668.3A3,3 0 1 1 569.32,668.3Z" style="fill:#FFB66E" />
<path d="M578.81,718.13A3,3 0 1 1 572.81,718.13A3,3 0 1 1 578.81,718.13Z" style="fill:#FFB66E" />
<path d="M588.29,761.63A3,3 0 1 1 582.29,761.63A3,3 0 1 1 588.29,761.63Z" style="fill:#FFB66E" />
<path d="M597.78,787.99A3,3 0 1 1 591.78,787.99A3,3 0 1 1 597.78,787.99Z" style="fill:#FFB66E" />
<path d="M607.27,815.53A3,3 0 1 1 601.27,815.53A3,3 0 1 1 607.27,815.53Z" style="fill:#FFB66E" />
<path d="M616.76,830.24A3,3 0 1 1 610.76,830.24A3,3 0 1 1 616.76,830.24Z" style="fill:#FFB66E" />
<path d="M626.25,818.07A3,3 0 1 1 620.25,818.07A3,3 0 1 1 626.25,818.07Z" style="fill:#FFB66E" />
<path d="M635.74,788.15A3,3 0 1 1 629.74,788.15A3,3 0 1 1 635.74,788.15Z" style="fill:#FFB66E" />
<path d="M645.22,767.28A3,3 0 1 1 639.22,767.28A3,3 0 1 1 645.22,767.28Z" style="fill:#FFB66E" />
<path d="M654.71,719.3A3,3 0 1 1 648.71,719.3A3,3 0 1 1 654.71,719.3Z" style="fill:#FFB66E" />
<path d="M664.2,679.52A3,3 0 1 1 658.2,679.52A3,3 0 1 1 664.2,679.52Z" style="fill:#FFB66E" />
<path d="M673.69,635.81A3,3 0 1 1 667.69,635.81A3,3 0 1 1 673.69,635.81Z" style="fill:#FFB66E" />
<path d="M683.18,577.24A3,3 0 1 1 677.18,577.24A3,3 0 1 1 683.18,577.24Z" style="fill:#FFB66E" />
<path d="M692.67,536.69A3,3 0 1 1 686.67,536.69A3,3 0 1 1 692.67,536.69Z" style="fill:#FFB66E" />
<path d="M702.16,503.88A3,3 0 1 1 696.16,503.88A3,3 0 1 1 702.16,503.88Z" style="fill:#FFB66E" />
<path d="M711.64,459.13A3,3 0 1 1 705.64,459.13A3,3 0 1 1 711.64,459.13Z" style="fill:#FFB66E" />
<path d="M721.13,432.03A3,3 0 1 1 715.13,432.03A3,3 0 1 1 721.13,432.03Z" style="fill:#FFB66E" />
<path d="M730.62,400.47A3,3 0 1 1 724.62,400.47A3,3 0 1 1 730.62,400.47Z" style="fill:#FFB66E" />
<path d="M740.11,365.91A3,3 0 1 1 734.11,365.91A3,3 0 1 1 740.11,365.91Z" style="fill:#FFB66E" />
<path d="M749.6,345.56A3,3 0 1 1 743.6,345.56A3,3 0 1 1 749.6,345.56Z" style="fill:#FFB66E" />
<path d="M759.09,331.53A3,3 0 1 1 753.09,331.53A3,3 0 1 1 759.09,331.53Z" style="fill:#FFB66E" />
<path d="M768.58,308.36A3,3 0 1 1 762.58,308.36A3,3 0 1 1 768.58,308.36Z" style="fill:#FFB66E" />
<path d="M778.06,290.05A3,3 0 1 1 772.06,290.05A3,3 0 1 1 778.06,290.05Z" style="fill:#FFB66E" />
<path d="M787.55,275.47A3,3 0 1 1 781.55,275.47A3,3 0 1 1 787.55,275.47Z" style="fill:#FFB66E" />
<path d="M797.04,260.67A3,3 0 1 1 791.04,260.67A3,3 0 1 1 797.04,260.67Z" style="fill:#FFB66E" />
<path d="M806.53,249.49A3,3 0 1 1 800.53,249.49A3,3 0 1 1 806.53,249.49Z" style="fill:#FFB66E" />
<path d="M816.02,235.44A3,3 0 1 1 810.02,235.44A3,3 0 1 1 816.02,235.44Z" style="fill:#FFB66E" />
<path d="M825.51,226.81A3,3 0 1 1 819.51,226.81A3,3 0 1 1 825.51,226.81Z" style="fill:#FFB66E" />
<path d="M835,224.44A3,3 0 1 1 829,224.44A3,3 0 1 1 835,224.44Z" style="fill:#FFB66E" />
<path d="M844.48,215.97A3,3 0 1 1 838.48,215.97A3,3 0 1 1 844.48,215.97Z" style="fill:#FFB66E" />
<path d="M853.97,209.46A3,3 0 1 1 847.97,209.46A3,3 0 1 1 853.97,209.46Z" style="fill:#FFB66E" />
<path d="M863.46,209.78A3,3 0 1 1 857.46,209.78A3,3 0 1 1 863.46,209.78Z" style="fill:#FFB66E" />
<path d="M872.95,196.65A3,3 0 1 1 866.95,196.65A3,3 0 1 1 872.95,196.65Z" style="fill:#FFB66E" />
<path d="M882.44,199.06A3,3 0 1 1 876.44,199.06A3,3 0 1 1 882.44,199.06Z" style="fill:#FFB66E" />
<path d="M891.93,189.75A3,3 0 1 1 885.93,189.75A3,3 0 1 1 891.93,189.75Z" style="fill:#FFB66E" />
<path d="M901.42,185.4A3,3 0 1 1 895.42,185.4A3,3 0 1 1 901.42,185.4Z" style="fill:#FFB66E" />
<path d="M910.9,177.82A3,3 0 1 1 904.9,177.82A3,3 0 1 1 910.9,177.82Z" style="fill:#FFB66E" />
<path d="M920.39,182.27A3,3 0 1 1 914.39,182.27A3,3 0 1 1 920.39,182.27Z" style="fill:#FFB66E" />
<path d="M929.88,177.53A3,3 0 1 1 923.88,177.53A3,3 0 1 1 929.88,177.53Z" style="fill:#FFB66E" />
<path d="M939.37,166.43A3,3 0 1 1 933.37,166.43A3,3 0 1 1 939.37,166.43Z" style="fill:#FFB66E" />
<path d="M948.86,169.33A3,3 0 1 1 942.86,169.33A3,3 0 1 1 948.86,169.33Z" style="fill:#FFB66E" />
<path d="M958.35,173.75A3,3 0 1 1 952.35,173.75A3,3 0 1 1 958.35,173.75Z" style="fill:#FFB66E" />
<path d="M967.84,167.25A3,3 0 1 1 961.84,167.25A3,3 0 1 1 967.84,167.25Z" style="fill:#FFB66E" />
<path d="M977.32,158.59A3,3 0 1 1 971.32,158.59A3,3 0 1 1 977.32,158.59Z" style="fill:#FFB66E" />
<path d="M986.81,155.26A3,3 0 1 1 980.81,155.26A3,3 0 1 1 986.81,155.26Z" style="fill:#FFB66E" />
<path d="M996.3,155.25A3,3 0 1 1 990.3,155.25A3,3 0 1 1 996.3,155.25Z" style="fill:#FFB66E" />
<path d="M1005.8,158.96A3,3 0 1 1 999.79,158.96A3,3 0 1 1 1005.8,158.96Z" style="fill:#FFB66E" />
<path d="M1015.3,153.66A3,3 0 1 1 1009.3,153.66A3,3 0 1 1 1015.3,153.66Z" style="fill:#FFB66E" />
<path d="M1024.8,156.35A3,3 0 1 1 1018.8,156.35A3,3 0 1 1 1024.8,156.35Z" style="fill:#FFB66E" />
<path d="M1034.3,143.52A3,3 0 1 1 1028.3,143.52A3,3 0 1 1 1034.3,143.52Z" style="fill:#FFB66E" />
<path d="M1043.7,147.61A3,3 0 1 1 1037.7,147.61A3,3 0 1 1 1043.7,147.61Z" style="fill:#FFB66E" />
<path d="M1053.2,150.6A3,3 0 1 1 1047.2,150.6A3,3 0 1 1 1053.2,150.6Z" style="fill:#FFB66E" />
<path d="M106.12,962.84L1055,962.84" style="fill:none;stroke:#000000" />
<path d="M1055,104.32L1055,962.84" style="fill:none;stroke:#000000" />
<text x="191.12" y="-899.95" transform="scale(1, -1)"
	style="font-family:Helvetica;font-weight:normal;font-style:normal;font-size:36px">Pump</text>
<path d="M162.12,867.02A6,6 0 1 1 150.12,867.02A6,6 0 1 1 162.12,867.02Z" style="fill:#1FD3AC" />
<text x="191.12" y="-858.54" transform="scale(1, -1)"
	style="font-family:Helvetica;font-weight:normal;font-style:normal;font-size:36px">0 mW</text>
<path d="M162.12,825.61A6,6 0 1 1 150.12,825.61A6,6 0 1 1 162.12,825.61Z" style="fill:#FF7AB4" />
<text x="191.12" y="-817.13" transform="scale(1, -1)"
	style="font-family:Helvetica;font-weight:normal;font-style:normal;font-size:36px">55 mW</text>
<path d="M162.12,784.2A6,6 0 1 1 150.12,784.2A6,6 0 1 1 162.12,784.2Z" style="fill:#7A9CFF" />
<text x="191.12" y="-775.72" transform="scale(1, -1)"
	style="font-family:Helvetica;font-weight:normal;font-style:normal;font-size:36px">110 mW</text>
<path d="M162.12,742.79A6,6 0 1 1 150.12,742.79A6,6 0 1 1 162.12,742.79Z" style="fill:#FFB66E" />
<text x="191.12" y="-734.3" transform="scale(1, -1)"
	style="font-family:Helvetica;font-weight:normal;font-style:normal;font-size:36px">139 mW</text>
</g>
</svg>
