<?xml version="1.0"?>
<!-- Generated by SVGo and Plotinum VG -->
<svg width="1080pt" height="1080pt" viewBox="0 0 1080 1080"
	xmlns="http://www.w3.org/2000/svg"
	xmlns:xlink="http://www.w3.org/1999/xlink">
<g transform="scale(1, -1) translate(0, -1080)">
<path d="M0,0L1080,0L1080,1080L0,1080Z" style="fill:#-8000000000000000-8000000000000000-8000000000000000;fill-opacity:0" />
<text x="533.05" y="-1039.5" transform="scale(1, -1)"
	style="font-family:Helvetica;font-weight:normal;font-style:normal;font-size:50px"> </text>
<text x="442.52" y="-11.039" transform="scale(1, -1)"
	style="font-family:Helvetica;font-weight:normal;font-style:normal;font-size:36px">Frequency (GHz)</text>
<text x="96.11" y="-71.258" transform="scale(1, -1)"
	style="font-family:Helvetica;font-weight:normal;font-style:normal;font-size:36px">2</text>
<text x="270.87" y="-71.258" transform="scale(1, -1)"
	style="font-family:Helvetica;font-weight:normal;font-style:normal;font-size:36px">2.1</text>
<text x="460.64" y="-71.258" transform="scale(1, -1)"
	style="font-family:Helvetica;font-weight:normal;font-style:normal;font-size:36px">2.2</text>
<text x="650.41" y="-71.258" transform="scale(1, -1)"
	style="font-family:Helvetica;font-weight:normal;font-style:normal;font-size:36px">2.3</text>
<text x="840.18" y="-71.258" transform="scale(1, -1)"
	style="font-family:Helvetica;font-weight:normal;font-style:normal;font-size:36px">2.4</text>
<text x="1030" y="-71.258" transform="scale(1, -1)"
	style="font-family:Helvetica;font-weight:normal;font-style:normal;font-size:36px">2.5</text>
<path d="M106.12,116.44L106.12,108.44" style="fill:none;stroke:#000000;stroke-width:1.5" />
<path d="M201.01,112.44L201.01,108.44" style="fill:none;stroke:#000000;stroke-width:1.5" />
<path d="M295.89,116.44L295.89,108.44" style="fill:none;stroke:#000000;stroke-width:1.5" />
<path d="M390.78,112.44L390.78,108.44" style="fill:none;stroke:#000000;stroke-width:1.5" />
<path d="M485.66,116.44L485.66,108.44" style="fill:none;stroke:#000000;stroke-width:1.5" />
<path d="M580.55,112.44L580.55,108.44" style="fill:none;stroke:#000000;stroke-width:1.5" />
<path d="M675.43,116.44L675.43,108.44" style="fill:none;stroke:#000000;stroke-width:1.5" />
<path d="M770.32,112.44L770.32,108.44" style="fill:none;stroke:#000000;stroke-width:1.5" />
<path d="M865.21,116.44L865.21,108.44" style="fill:none;stroke:#000000;stroke-width:1.5" />
<path d="M960.09,112.44L960.09,108.44" style="fill:none;stroke:#000000;stroke-width:1.5" />
<path d="M1055,116.44L1055,108.44" style="fill:none;stroke:#000000;stroke-width:1.5" />
<path d="M106.12,108.44L1055,108.44" style="fill:none;stroke:#000000;stroke-width:1.5" />
<g transform="rotate(90)">
<text x="363.52" y="29.18" transform="scale(1, -1)"
	style="font-family:Helvetica;font-weight:normal;font-style:normal;font-size:36px">Spectral Density (uV)</text>
</g>
<text x="67.848" y="-136.13" transform="scale(1, -1)"
	style="font-family:Helvetica;font-weight:normal;font-style:normal;font-size:36px">0</text>
<text x="67.848" y="-408.67" transform="scale(1, -1)"
	style="font-family:Helvetica;font-weight:normal;font-style:normal;font-size:36px">1</text>
<text x="67.848" y="-681.22" transform="scale(1, -1)"
	style="font-family:Helvetica;font-weight:normal;font-style:normal;font-size:36px">2</text>
<text x="67.848" y="-953.77" transform="scale(1, -1)"
	style="font-family:Helvetica;font-weight:normal;font-style:normal;font-size:36px">3</text>
<path d="M113.87,145.2L105.87,145.2" style="fill:none;stroke:#000000;stroke-width:1.5" />
<path d="M109.87,281.47L105.87,281.47" style="fill:none;stroke:#000000;stroke-width:1.5" />
<path d="M113.87,417.74L105.87,417.74" style="fill:none;stroke:#000000;stroke-width:1.5" />
<path d="M109.87,554.02L105.87,554.02" style="fill:none;stroke:#000000;stroke-width:1.5" />
<path d="M113.87,690.29L105.87,690.29" style="fill:none;stroke:#000000;stroke-width:1.5" />
<path d="M109.87,826.56L105.87,826.56" style="fill:none;stroke:#000000;stroke-width:1.5" />
<path d="M113.87,962.84L105.87,962.84" style="fill:none;stroke:#000000;stroke-width:1.5" />
<path d="M105.87,104.32L105.87,962.84" style="fill:none;stroke:#000000;stroke-width:1.5" />
<path d="M113.87,140.7A3,3 0 1 1 107.87,140.7A3,3 0 1 1 113.87,140.7Z" style="fill:#1FD3AC" />
<path d="M123.35,143.53A3,3 0 1 1 117.35,143.53A3,3 0 1 1 123.35,143.53Z" style="fill:#1FD3AC" />
<path d="M132.84,140.3A3,3 0 1 1 126.84,140.3A3,3 0 1 1 132.84,140.3Z" style="fill:#1FD3AC" />
<path d="M142.33,142.05A3,3 0 1 1 136.33,142.05A3,3 0 1 1 142.33,142.05Z" style="fill:#1FD3AC" />
<path d="M151.82,138.87A3,3 0 1 1 145.82,138.87A3,3 0 1 1 151.82,138.87Z" style="fill:#1FD3AC" />
<path d="M161.31,137.67A3,3 0 1 1 155.31,137.67A3,3 0 1 1 161.31,137.67Z" style="fill:#1FD3AC" />
<path d="M170.8,143.01A3,3 0 1 1 164.8,143.01A3,3 0 1 1 170.8,143.01Z" style="fill:#1FD3AC" />
<path d="M180.29,141.55A3,3 0 1 1 174.29,141.55A3,3 0 1 1 180.29,141.55Z" style="fill:#1FD3AC" />
<path d="M189.77,146.33A3,3 0 1 1 183.77,146.33A3,3 0 1 1 189.77,146.33Z" style="fill:#1FD3AC" />
<path d="M199.26,145.45A3,3 0 1 1 193.26,145.45A3,3 0 1 1 199.26,145.45Z" style="fill:#1FD3AC" />
<path d="M208.75,146.43A3,3 0 1 1 202.75,146.43A3,3 0 1 1 208.75,146.43Z" style="fill:#1FD3AC" />
<path d="M218.24,145.16A3,3 0 1 1 212.24,145.16A3,3 0 1 1 218.24,145.16Z" style="fill:#1FD3AC" />
<path d="M227.73,150.12A3,3 0 1 1 221.73,150.12A3,3 0 1 1 227.73,150.12Z" style="fill:#1FD3AC" />
<path d="M237.22,153.43A3,3 0 1 1 231.22,153.43A3,3 0 1 1 237.22,153.43Z" style="fill:#1FD3AC" />
<path d="M246.71,149.23A3,3 0 1 1 240.71,149.23A3,3 0 1 1 246.71,149.23Z" style="fill:#1FD3AC" />
<path d="M256.19,155.21A3,3 0 1 1 250.19,155.21A3,3 0 1 1 256.19,155.21Z" style="fill:#1FD3AC" />
<path d="M265.68,160.4A3,3 0 1 1 259.68,160.4A3,3 0 1 1 265.68,160.4Z" style="fill:#1FD3AC" />
<path d="M275.17,163.06A3,3 0 1 1 269.17,163.06A3,3 0 1 1 275.17,163.06Z" style="fill:#1FD3AC" />
<path d="M284.66,167.27A3,3 0 1 1 278.66,167.27A3,3 0 1 1 284.66,167.27Z" style="fill:#1FD3AC" />
<path d="M294.15,168.15A3,3 0 1 1 288.15,168.15A3,3 0 1 1 294.15,168.15Z" style="fill:#1FD3AC" />
<path d="M303.64,168.7A3,3 0 1 1 297.64,168.7A3,3 0 1 1 303.64,168.7Z" style="fill:#1FD3AC" />
<path d="M313.13,175.11A3,3 0 1 1 307.13,175.11A3,3 0 1 1 313.13,175.11Z" style="fill:#1FD3AC" />
<path d="M322.61,179.24A3,3 0 1 1 316.61,179.24A3,3 0 1 1 322.61,179.24Z" style="fill:#1FD3AC" />
<path d="M332.1,186.16A3,3 0 1 1 326.1,186.16A3,3 0 1 1 332.1,186.16Z" style="fill:#1FD3AC" />
<path d="M341.59,190.89A3,3 0 1 1 335.59,190.89A3,3 0 1 1 341.59,190.89Z" style="fill:#1FD3AC" />
<path d="M351.08,196.94A3,3 0 1 1 345.08,196.94A3,3 0 1 1 351.08,196.94Z" style="fill:#1FD3AC" />
<path d="M360.57,195.72A3,3 0 1 1 354.57,195.72A3,3 0 1 1 360.57,195.72Z" style="fill:#1FD3AC" />
<path d="M370.06,203.92A3,3 0 1 1 364.06,203.92A3,3 0 1 1 370.06,203.92Z" style="fill:#1FD3AC" />
<path d="M379.55,213.08A3,3 0 1 1 373.55,213.08A3,3 0 1 1 379.55,213.08Z" style="fill:#1FD3AC" />
<path d="M389.03,220.11A3,3 0 1 1 383.03,220.11A3,3 0 1 1 389.03,220.11Z" style="fill:#1FD3AC" />
<path d="M398.52,217.6A3,3 0 1 1 392.52,217.6A3,3 0 1 1 398.52,217.6Z" style="fill:#1FD3AC" />
<path d="M408.01,240.79A3,3 0 1 1 402.01,240.79A3,3 0 1 1 408.01,240.79Z" style="fill:#1FD3AC" />
<path d="M417.5,240.31A3,3 0 1 1 411.5,240.31A3,3 0 1 1 417.5,240.31Z" style="fill:#1FD3AC" />
<path d="M426.99,256.52A3,3 0 1 1 420.99,256.52A3,3 0 1 1 426.99,256.52Z" style="fill:#1FD3AC" />
<path d="M436.48,257.4A3,3 0 1 1 430.48,257.4A3,3 0 1 1 436.48,257.4Z" style="fill:#1FD3AC" />
<path d="M445.97,273.21A3,3 0 1 1 439.97,273.21A3,3 0 1 1 445.97,273.21Z" style="fill:#1FD3AC" />
<path d="M455.45,286.76A3,3 0 1 1 449.45,286.76A3,3 0 1 1 455.45,286.76Z" style="fill:#1FD3AC" />
<path d="M464.94,301.17A3,3 0 1 1 458.94,301.17A3,3 0 1 1 464.94,301.17Z" style="fill:#1FD3AC" />
<path d="M474.43,313.66A3,3 0 1 1 468.43,313.66A3,3 0 1 1 474.43,313.66Z" style="fill:#1FD3AC" />
<path d="M483.92,333.47A3,3 0 1 1 477.92,333.47A3,3 0 1 1 483.92,333.47Z" style="fill:#1FD3AC" />
<path d="M493.41,359.2A3,3 0 1 1 487.41,359.2A3,3 0 1 1 493.41,359.2Z" style="fill:#1FD3AC" />
<path d="M502.9,384.07A3,3 0 1 1 496.9,384.07A3,3 0 1 1 502.9,384.07Z" style="fill:#1FD3AC" />
<path d="M512.39,411.97A3,3 0 1 1 506.39,411.97A3,3 0 1 1 512.39,411.97Z" style="fill:#1FD3AC" />
<path d="M521.87,441.83A3,3 0 1 1 515.87,441.83A3,3 0 1 1 521.87,441.83Z" style="fill:#1FD3AC" />
<path d="M531.36,481.13A3,3 0 1 1 525.36,481.13A3,3 0 1 1 531.36,481.13Z" style="fill:#1FD3AC" />
<path d="M540.85,515.47A3,3 0 1 1 534.85,515.47A3,3 0 1 1 540.85,515.47Z" style="fill:#1FD3AC" />
<path d="M550.34,568.46A3,3 0 1 1 544.34,568.46A3,3 0 1 1 550.34,568.46Z" style="fill:#1FD3AC" />
<path d="M559.83,606.12A3,3 0 1 1 553.83,606.12A3,3 0 1 1 559.83,606.12Z" style="fill:#1FD3AC" />
<path d="M569.32,659.17A3,3 0 1 1 563.32,659.17A3,3 0 1 1 569.32,659.17Z" style="fill:#1FD3AC" />
<path d="M578.81,710.13A3,3 0 1 1 572.81,710.13A3,3 0 1 1 578.81,710.13Z" style="fill:#1FD3AC" />
<path d="M588.29,750.82A3,3 0 1 1 582.29,750.82A3,3 0 1 1 588.29,750.82Z" style="fill:#1FD3AC" />
<path d="M597.78,792.98A3,3 0 1 1 591.78,792.98A3,3 0 1 1 597.78,792.98Z" style="fill:#1FD3AC" />
<path d="M607.27,812.93A3,3 0 1 1 601.27,812.93A3,3 0 1 1 607.27,812.93Z" style="fill:#1FD3AC" />
<path d="M616.76,810.96A3,3 0 1 1 610.76,810.96A3,3 0 1 1 616.76,810.96Z" style="fill:#1FD3AC" />
<path d="M626.25,815.66A3,3 0 1 1 620.25,815.66A3,3 0 1 1 626.25,815.66Z" style="fill:#1FD3AC" />
<path d="M635.74,796.75A3,3 0 1 1 629.74,796.75A3,3 0 1 1 635.74,796.75Z" style="fill:#1FD3AC" />
<path d="M645.22,757.94A3,3 0 1 1 639.22,757.94A3,3 0 1 1 645.22,757.94Z" style="fill:#1FD3AC" />
<path d="M654.71,729.91A3,3 0 1 1 648.71,729.91A3,3 0 1 1 654.71,729.91Z" style="fill:#1FD3AC" />
<path d="M664.2,685.7A3,3 0 1 1 658.2,685.7A3,3 0 1 1 664.2,685.7Z" style="fill:#1FD3AC" />
<path d="M673.69,637.61A3,3 0 1 1 667.69,637.61A3,3 0 1 1 673.69,637.61Z" style="fill:#1FD3AC" />
<path d="M683.18,591.05A3,3 0 1 1 677.18,591.05A3,3 0 1 1 683.18,591.05Z" style="fill:#1FD3AC" />
<path d="M692.67,542.18A3,3 0 1 1 686.67,542.18A3,3 0 1 1 692.67,542.18Z" style="fill:#1FD3AC" />
<path d="M702.16,510.9A3,3 0 1 1 696.16,510.9A3,3 0 1 1 702.16,510.9Z" style="fill:#1FD3AC" />
<path d="M711.64,461.76A3,3 0 1 1 705.64,461.76A3,3 0 1 1 711.64,461.76Z" style="fill:#1FD3AC" />
<path d="M721.13,425.82A3,3 0 1 1 715.13,425.82A3,3 0 1 1 721.13,425.82Z" style="fill:#1FD3AC" />
<path d="M730.62,396.71A3,3 0 1 1 724.62,396.71A3,3 0 1 1 730.62,396.71Z" style="fill:#1FD3AC" />
<path d="M740.11,362.35A3,3 0 1 1 734.11,362.35A3,3 0 1 1 740.11,362.35Z" style="fill:#1FD3AC" />
<path d="M749.6,345.61A3,3 0 1 1 743.6,345.61A3,3 0 1 1 749.6,345.61Z" style="fill:#1FD3AC" />
<path d="M759.09,316.86A3,3 0 1 1 753.09,316.86A3,3 0 1 1 759.09,316.86Z" style="fill:#1FD3AC" />
<path d="M768.58,309.19A3,3 0 1 1 762.58,309.19A3,3 0 1 1 768.58,309.19Z" style="fill:#1FD3AC" />
<path d="M778.06,281.3A3,3 0 1 1 772.06,281.3A3,3 0 1 1 778.06,281.3Z" style="fill:#1FD3AC" />
<path d="M787.55,269.82A3,3 0 1 1 781.55,269.82A3,3 0 1 1 787.55,269.82Z" style="fill:#1FD3AC" />
<path d="M797.04,263.06A3,3 0 1 1 791.04,263.06A3,3 0 1 1 797.04,263.06Z" style="fill:#1FD3AC" />
<path d="M806.53,244.58A3,3 0 1 1 800.53,244.58A3,3 0 1 1 806.53,244.58Z" style="fill:#1FD3AC" />
<path d="M816.02,233.89A3,3 0 1 1 810.02,233.89A3,3 0 1 1 816.02,233.89Z" style="fill:#1FD3AC" />
<path d="M825.51,224.87A3,3 0 1 1 819.51,224.87A3,3 0 1 1 825.51,224.87Z" style="fill:#1FD3AC" />
<path d="M835,215.28A3,3 0 1 1 829,215.28A3,3 0 1 1 835,215.28Z" style="fill:#1FD3AC" />
<path d="M844.48,214.13A3,3 0 1 1 838.48,214.13A3,3 0 1 1 844.48,214.13Z" style="fill:#1FD3AC" />
<path d="M853.97,199.97A3,3 0 1 1 847.97,199.97A3,3 0 1 1 853.97,199.97Z" style="fill:#1FD3AC" />
<path d="M863.46,194.28A3,3 0 1 1 857.46,194.28A3,3 0 1 1 863.46,194.28Z" style="fill:#1FD3AC" />
<path d="M872.95,191.49A3,3 0 1 1 866.95,191.49A3,3 0 1 1 872.95,191.49Z" style="fill:#1FD3AC" />
<path d="M882.44,184.62A3,3 0 1 1 876.44,184.62A3,3 0 1 1 882.44,184.62Z" style="fill:#1FD3AC" />
<path d="M891.93,181.28A3,3 0 1 1 885.93,181.28A3,3 0 1 1 891.93,181.28Z" style="fill:#1FD3AC" />
<path d="M901.42,176.1A3,3 0 1 1 895.42,176.1A3,3 0 1 1 901.42,176.1Z" style="fill:#1FD3AC" />
<path d="M910.9,174.04A3,3 0 1 1 904.9,174.04A3,3 0 1 1 910.9,174.04Z" style="fill:#1FD3AC" />
<path d="M920.39,172.86A3,3 0 1 1 914.39,172.86A3,3 0 1 1 920.39,172.86Z" style="fill:#1FD3AC" />
<path d="M929.88,162.07A3,3 0 1 1 923.88,162.07A3,3 0 1 1 929.88,162.07Z" style="fill:#1FD3AC" />
<path d="M939.37,160.42A3,3 0 1 1 933.37,160.42A3,3 0 1 1 939.37,160.42Z" style="fill:#1FD3AC" />
<path d="M948.86,162.04A3,3 0 1 1 942.86,162.04A3,3 0 1 1 948.86,162.04Z" style="fill:#1FD3AC" />
<path d="M958.35,149.46A3,3 0 1 1 952.35,149.46A3,3 0 1 1 958.35,149.46Z" style="fill:#1FD3AC" />
<path d="M967.84,159.88A3,3 0 1 1 961.84,159.88A3,3 0 1 1 967.84,159.88Z" style="fill:#1FD3AC" />
<path d="M977.32,152.83A3,3 0 1 1 971.32,152.83A3,3 0 1 1 977.32,152.83Z" style="fill:#1FD3AC" />
<path d="M986.81,156.58A3,3 0 1 1 980.81,156.58A3,3 0 1 1 986.81,156.58Z" style="fill:#1FD3AC" />
<path d="M996.3,146.23A3,3 0 1 1 990.3,146.23A3,3 0 1 1 996.3,146.23Z" style="fill:#1FD3AC" />
<path d="M1005.8,146.66A3,3 0 1 1 999.79,146.66A3,3 0 1 1 1005.8,146.66Z" style="fill:#1FD3AC" />
<path d="M1015.3,137.74A3,3 0 1 1 1009.3,137.74A3,3 0 1 1 1015.3,137.74Z" style="fill:#1FD3AC" />
<path d="M1024.8,145.12A3,3 0 1 1 1018.8,145.12A3,3 0 1 1 1024.8,145.12Z" style="fill:#1FD3AC" />
<path d="M1034.3,138.5A3,3 0 1 1 1028.3,138.5A3,3 0 1 1 1034.3,138.5Z" style="fill:#1FD3AC" />
<path d="M1043.7,143.08A3,3 0 1 1 1037.7,143.08A3,3 0 1 1 1043.7,143.08Z" style="fill:#1FD3AC" />
<path d="M1053.2,140.21A3,3 0 1 1 1047.2,140.21A3,3 0 1 1 1053.2,140.21Z" style="fill:#1FD3AC" />
<path d="M106.12,962.84L1055,962.84" style="fill:none;stroke:#000000" />
<path d="M1055,104.32L1055,962.84" style="fill:none;stroke:#000000" />
<path d="M110.87,162.66L112.76,162.79L114.66,162.92L116.56,163.05L118.46,163.18L120.35,163.32L122.25,163.46L124.15,163.59L126.05,163.73L127.94,163.87L129.84,164.01L131.74,164.16L133.64,164.3L135.54,164.45L137.43,164.6L139.33,164.75L141.23,164.9L143.13,165.06L145.02,165.21L146.92,165.37L148.82,165.53L150.72,165.69L152.62,165.85L154.51,166.02L156.41,166.19L158.31,166.35L160.21,166.53L162.1,166.7L164,166.87L165.9,167.05L167.8,167.23L169.69,167.41L171.59,167.6L173.49,167.78L175.39,167.97L177.29,168.16L179.18,168.36L181.08,168.55L182.98,168.75L184.88,168.95L186.77,169.15L188.67,169.36L190.57,169.57L192.47,169.78L194.36,169.99L196.26,170.21L198.16,170.43L200.06,170.65L201.96,170.88L203.85,171.11L205.75,171.34L207.65,171.57L209.55,171.81L211.44,172.05L213.34,172.29L215.24,172.54L217.14,172.79L219.04,173.05L220.93,173.3L222.83,173.56L224.73,173.83L226.63,174.1L228.52,174.37L230.42,174.64L232.32,174.92L234.22,175.21L236.11,175.49L238.01,175.79L239.91,176.08L241.81,176.38L243.71,176.69L245.6,177L247.5,177.31L249.4,177.63L251.3,177.95L253.19,178.28L255.09,178.61L256.99,178.95L258.89,179.29L260.78,179.63L262.68,179.99L264.58,180.35L266.48,180.71L268.38,181.08L270.27,181.45L272.17,181.83L274.07,182.22L275.97,182.61L277.86,183.01L279.76,183.41L281.66,183.82L283.56,184.24L285.45,184.67L287.35,185.1L289.25,185.53L291.15,185.98L293.05,186.43L294.94,186.89L296.84,187.36L298.74,187.83L300.64,188.32L302.53,188.81L304.43,189.31L306.33,189.81L308.23,190.33L310.13,190.86L312.02,191.39L313.92,191.93L315.82,192.49L317.72,193.05L319.61,193.62L321.51,194.2L323.41,194.79L325.31,195.4L327.2,196.01L329.1,196.64L331,197.27L332.9,197.92L334.8,198.58L336.69,199.25L338.59,199.93L340.49,200.63L342.39,201.34L344.28,202.06L346.18,202.8L348.08,203.55L349.98,204.31L351.87,205.09L353.77,205.89L355.67,206.7L357.57,207.52L359.47,208.36L361.36,209.22L363.26,210.1L365.16,210.99L367.06,211.9L368.95,212.83L370.85,213.78L372.75,214.74L374.65,215.73L376.55,216.74L378.44,217.76L380.34,218.81L382.24,219.89L384.14,220.98L386.03,222.1L387.93,223.24L389.83,224.4L391.73,225.59L393.62,226.81L395.52,228.05L397.42,229.32L399.32,230.62L401.22,231.95L403.11,233.31L405.01,234.69L406.91,236.11L408.81,237.56L410.7,239.05L412.6,240.57L414.5,242.12L416.4,243.71L418.29,245.33L420.19,247L422.09,248.7L423.99,250.45L425.89,252.24L427.78,254.07L429.68,255.94L431.58,257.86L433.48,259.83L435.37,261.84L437.27,263.91L439.17,266.02L441.07,268.19L442.97,270.42L444.86,272.7L446.76,275.03L448.66,277.43L450.56,279.89L452.45,282.42L454.35,285L456.25,287.66L458.15,290.39L460.04,293.19L461.94,296.06L463.84,299.01L465.74,302.03L467.64,305.14L469.53,308.33L471.43,311.61L473.33,314.98L475.23,318.44L477.12,321.99L479.02,325.64L480.92,329.39L482.82,333.25L484.71,337.21L486.61,341.28L488.51,345.47L490.41,349.77L492.31,354.19L494.2,358.73L496.1,363.41L498,368.21L499.9,373.14L501.79,378.22L503.69,383.43L505.59,388.8L507.49,394.31L509.39,399.97L511.28,405.79L513.18,411.77L515.08,417.91L516.98,424.22L518.87,430.7L520.77,437.35L522.67,444.18L524.57,451.19L526.46,458.38L528.36,465.75L530.26,473.31L532.16,481.06L534.06,489L535.95,497.12L537.85,505.43L539.75,513.93L541.65,522.62L543.54,531.49L545.44,540.54L547.34,549.77L549.24,559.17L551.13,568.73L553.03,578.45L554.93,588.31L556.83,598.31L558.73,608.44L560.62,618.67L562.52,628.99L564.42,639.39L566.32,649.85L568.21,660.34L570.11,670.83L572.01,681.32L573.91,691.75L575.81,702.11L577.7,712.37L579.6,722.48L581.5,732.41L583.4,742.13L585.29,751.6L587.19,760.78L589.09,769.62L590.99,778.09L592.88,786.14L594.78,793.73L596.68,800.83L598.58,807.4L600.48,813.39L602.37,818.77L604.27,823.52L606.17,827.6L608.07,830.99L609.96,833.66L611.86,835.6L613.76,836.79L615.66,837.24L617.55,836.93L619.45,835.86L621.35,834.06L623.25,831.51L625.15,828.25L627.04,824.29L628.94,819.66L630.84,814.39L632.74,808.5L634.63,802.04L636.53,795.03L638.43,787.52L640.33,779.55L642.22,771.15L644.12,762.37L646.02,753.26L647.92,743.84L649.82,734.16L651.71,724.26L653.61,714.17L655.51,703.94L657.41,693.6L659.3,683.17L661.2,672.7L663.1,662.2L665,651.71L666.9,641.25L668.79,630.84L670.69,620.5L672.59,610.25L674.49,600.1L676.38,590.08L678.28,580.19L680.18,570.44L682.08,560.85L683.97,551.43L685.87,542.17L687.77,533.09L689.67,524.18L691.57,515.46L693.46,506.93L695.36,498.58L697.26,490.43L699.16,482.46L701.05,474.68L702.95,467.08L704.85,459.67L706.75,452.45L708.64,445.41L710.54,438.55L712.44,431.87L714.34,425.36L716.24,419.02L718.13,412.84L720.03,406.84L721.93,400.99L723.83,395.3L725.72,389.76L727.62,384.38L729.52,379.13L731.42,374.04L733.32,369.08L735.21,364.25L737.11,359.55L739.01,354.99L740.91,350.54L742.8,346.22L744.7,342.02L746.6,337.93L748.5,333.94L750.39,330.07L752.29,326.3L754.19,322.63L756.09,319.06L757.99,315.59L759.88,312.2L761.78,308.91L763.68,305.7L765.58,302.58L767.47,299.54L769.37,296.58L771.27,293.69L773.17,290.88L775.06,288.14L776.96,285.47L778.86,282.87L780.76,280.34L782.66,277.87L784.55,275.46L786.45,273.11L788.35,270.82L790.25,268.58L792.14,266.4L794.04,264.28L795.94,262.2L797.84,260.18L799.74,258.21L801.63,256.28L803.53,254.4L805.43,252.56L807.33,250.76L809.22,249.01L811.12,247.3L813.02,245.63L814.92,243.99L816.81,242.4L818.71,240.84L820.61,239.31L822.51,237.82L824.41,236.37L826.3,234.94L828.2,233.55L830.1,232.19L832,230.86L833.89,229.55L835.79,228.28L837.69,227.03L839.59,225.81L841.48,224.61L843.38,223.44L845.28,222.3L847.18,221.18L849.08,220.08L850.97,219L852.87,217.95L854.77,216.92L856.67,215.91L858.56,214.92L860.46,213.95L862.36,213L864.26,212.06L866.16,211.15L868.05,210.25L869.95,209.38L871.85,208.51L873.75,207.67L875.64,206.84L877.54,206.03L879.44,205.23L881.34,204.45L883.23,203.68L885.13,202.93L887.03,202.19L888.93,201.47L890.83,200.75L892.72,200.06L894.62,199.37L896.52,198.7L898.42,198.03L900.31,197.39L902.21,196.75L904.11,196.12L906.01,195.51L907.9,194.9L909.8,194.31L911.7,193.72L913.6,193.15L915.5,192.58L917.39,192.03L919.29,191.49L921.19,190.95L923.09,190.42L924.98,189.91L926.88,189.4L928.78,188.9L930.68,188.4L932.58,187.92L934.47,187.44L936.37,186.97L938.27,186.51L940.17,186.06L942.06,185.61L943.96,185.17L945.86,184.74L947.76,184.32L949.65,183.9L951.55,183.49L953.45,183.08L955.35,182.68L957.25,182.29L959.14,181.9L961.04,181.52L962.94,181.14L964.84,180.77L966.73,180.41L968.63,180.05L970.53,179.7L972.43,179.35L974.32,179.01L976.22,178.67L978.12,178.33L980.02,178.01L981.92,177.68L983.81,177.36L985.71,177.05L987.61,176.74L989.51,176.44L991.4,176.14L993.3,175.84L995.2,175.55L997.1,175.26L999,174.97L1000.9,174.69L1002.8,174.42L1004.7,174.14L1006.6,173.88L1008.5,173.61L1010.4,173.35L1012.3,173.09L1014.2,172.84L1016.1,172.59L1018,172.34L1019.9,172.09L1021.8,171.85L1023.7,171.61L1025.6,171.38L1027.5,171.15L1029.4,170.92L1031.3,170.69L1033.2,170.47L1035.1,170.25L1036.9,170.03L1038.8,169.82L1040.7,169.61L1042.6,169.4L1044.5,169.19L1046.4,168.99L1048.3,168.79" style="fill:none;stroke:#1BAA8B;stroke-width:3" />
<path d="M534.58,491.22L697.07,491.22" style="fill:none;stroke:#1BAA8B;stroke-width:4;stroke-dasharray:15,5" />
<path d="M113.87,138.2A3,3 0 1 1 107.87,138.2A3,3 0 1 1 113.87,138.2Z" style="fill:#FF7AB4" />
<path d="M123.35,139.85A3,3 0 1 1 117.35,139.85A3,3 0 1 1 123.35,139.85Z" style="fill:#FF7AB4" />
<path d="M132.84,138.45A3,3 0 1 1 126.84,138.45A3,3 0 1 1 132.84,138.45Z" style="fill:#FF7AB4" />
<path d="M142.33,141.24A3,3 0 1 1 136.33,141.24A3,3 0 1 1 142.33,141.24Z" style="fill:#FF7AB4" />
<path d="M151.82,142.44A3,3 0 1 1 145.82,142.44A3,3 0 1 1 151.82,142.44Z" style="fill:#FF7AB4" />
<path d="M161.31,141.15A3,3 0 1 1 155.31,141.15A3,3 0 1 1 161.31,141.15Z" style="fill:#FF7AB4" />
<path d="M170.8,136.96A3,3 0 1 1 164.8,136.96A3,3 0 1 1 170.8,136.96Z" style="fill:#FF7AB4" />
<path d="M180.29,138.66A3,3 0 1 1 174.29,138.66A3,3 0 1 1 180.29,138.66Z" style="fill:#FF7AB4" />
<path d="M189.77,143.91A3,3 0 1 1 183.77,143.91A3,3 0 1 1 189.77,143.91Z" style="fill:#FF7AB4" />
<path d="M199.26,144.89A3,3 0 1 1 193.26,144.89A3,3 0 1 1 199.26,144.89Z" style="fill:#FF7AB4" />
<path d="M208.75,149.25A3,3 0 1 1 202.75,149.25A3,3 0 1 1 208.75,149.25Z" style="fill:#FF7AB4" />
<path d="M218.24,147.36A3,3 0 1 1 212.24,147.36A3,3 0 1 1 218.24,147.36Z" style="fill:#FF7AB4" />
<path d="M227.73,156.17A3,3 0 1 1 221.73,156.17A3,3 0 1 1 227.73,156.17Z" style="fill:#FF7AB4" />
<path d="M237.22,150.04A3,3 0 1 1 231.22,150.04A3,3 0 1 1 237.22,150.04Z" style="fill:#FF7AB4" />
<path d="M246.71,154.44A3,3 0 1 1 240.71,154.44A3,3 0 1 1 246.71,154.44Z" style="fill:#FF7AB4" />
<path d="M256.19,155.42A3,3 0 1 1 250.19,155.42A3,3 0 1 1 256.19,155.42Z" style="fill:#FF7AB4" />
<path d="M265.68,163.57A3,3 0 1 1 259.68,163.57A3,3 0 1 1 265.68,163.57Z" style="fill:#FF7AB4" />
<path d="M275.17,165.19A3,3 0 1 1 269.17,165.19A3,3 0 1 1 275.17,165.19Z" style="fill:#FF7AB4" />
<path d="M284.66,163.39A3,3 0 1 1 278.66,163.39A3,3 0 1 1 284.66,163.39Z" style="fill:#FF7AB4" />
<path d="M294.15,162.88A3,3 0 1 1 288.15,162.88A3,3 0 1 1 294.15,162.88Z" style="fill:#FF7AB4" />
<path d="M303.64,172.93A3,3 0 1 1 297.64,172.93A3,3 0 1 1 303.64,172.93Z" style="fill:#FF7AB4" />
<path d="M313.13,175.31A3,3 0 1 1 307.13,175.31A3,3 0 1 1 313.13,175.31Z" style="fill:#FF7AB4" />
<path d="M322.61,174.62A3,3 0 1 1 316.61,174.62A3,3 0 1 1 322.61,174.62Z" style="fill:#FF7AB4" />
<path d="M332.1,182.77A3,3 0 1 1 326.1,182.77A3,3 0 1 1 332.1,182.77Z" style="fill:#FF7AB4" />
<path d="M341.59,190.64A3,3 0 1 1 335.59,190.64A3,3 0 1 1 341.59,190.64Z" style="fill:#FF7AB4" />
<path d="M351.08,196.76A3,3 0 1 1 345.08,196.76A3,3 0 1 1 351.08,196.76Z" style="fill:#FF7AB4" />
<path d="M360.57,200.49A3,3 0 1 1 354.57,200.49A3,3 0 1 1 360.57,200.49Z" style="fill:#FF7AB4" />
<path d="M370.06,208.02A3,3 0 1 1 364.06,208.02A3,3 0 1 1 370.06,208.02Z" style="fill:#FF7AB4" />
<path d="M379.55,213.54A3,3 0 1 1 373.55,213.54A3,3 0 1 1 379.55,213.54Z" style="fill:#FF7AB4" />
<path d="M389.03,221.46A3,3 0 1 1 383.03,221.46A3,3 0 1 1 389.03,221.46Z" style="fill:#FF7AB4" />
<path d="M398.52,225.21A3,3 0 1 1 392.52,225.21A3,3 0 1 1 398.52,225.21Z" style="fill:#FF7AB4" />
<path d="M408.01,236.56A3,3 0 1 1 402.01,236.56A3,3 0 1 1 408.01,236.56Z" style="fill:#FF7AB4" />
<path d="M417.5,246.29A3,3 0 1 1 411.5,246.29A3,3 0 1 1 417.5,246.29Z" style="fill:#FF7AB4" />
<path d="M426.99,250.71A3,3 0 1 1 420.99,250.71A3,3 0 1 1 426.99,250.71Z" style="fill:#FF7AB4" />
<path d="M436.48,265.9A3,3 0 1 1 430.48,265.9A3,3 0 1 1 436.48,265.9Z" style="fill:#FF7AB4" />
<path d="M445.97,280.32A3,3 0 1 1 439.97,280.32A3,3 0 1 1 445.97,280.32Z" style="fill:#FF7AB4" />
<path d="M455.45,289.32A3,3 0 1 1 449.45,289.32A3,3 0 1 1 455.45,289.32Z" style="fill:#FF7AB4" />
<path d="M464.94,296.34A3,3 0 1 1 458.94,296.34A3,3 0 1 1 464.94,296.34Z" style="fill:#FF7AB4" />
<path d="M474.43,320.48A3,3 0 1 1 468.43,320.48A3,3 0 1 1 474.43,320.48Z" style="fill:#FF7AB4" />
<path d="M483.92,337.45A3,3 0 1 1 477.92,337.45A3,3 0 1 1 483.92,337.45Z" style="fill:#FF7AB4" />
<path d="M493.41,360.91A3,3 0 1 1 487.41,360.91A3,3 0 1 1 493.41,360.91Z" style="fill:#FF7AB4" />
<path d="M502.9,390.85A3,3 0 1 1 496.9,390.85A3,3 0 1 1 502.9,390.85Z" style="fill:#FF7AB4" />
<path d="M512.39,424.27A3,3 0 1 1 506.39,424.27A3,3 0 1 1 512.39,424.27Z" style="fill:#FF7AB4" />
<path d="M521.87,452.67A3,3 0 1 1 515.87,452.67A3,3 0 1 1 521.87,452.67Z" style="fill:#FF7AB4" />
<path d="M531.36,487.03A3,3 0 1 1 525.36,487.03A3,3 0 1 1 531.36,487.03Z" style="fill:#FF7AB4" />
<path d="M540.85,533.52A3,3 0 1 1 534.85,533.52A3,3 0 1 1 540.85,533.52Z" style="fill:#FF7AB4" />
<path d="M550.34,575.01A3,3 0 1 1 544.34,575.01A3,3 0 1 1 550.34,575.01Z" style="fill:#FF7AB4" />
<path d="M559.83,623.68A3,3 0 1 1 553.83,623.68A3,3 0 1 1 559.83,623.68Z" style="fill:#FF7AB4" />
<path d="M569.32,674.65A3,3 0 1 1 563.32,674.65A3,3 0 1 1 569.32,674.65Z" style="fill:#FF7AB4" />
<path d="M578.81,719.44A3,3 0 1 1 572.81,719.44A3,3 0 1 1 578.81,719.44Z" style="fill:#FF7AB4" />
<path d="M588.29,769.71A3,3 0 1 1 582.29,769.71A3,3 0 1 1 588.29,769.71Z" style="fill:#FF7AB4" />
<path d="M597.78,802.1A3,3 0 1 1 591.78,802.1A3,3 0 1 1 597.78,802.1Z" style="fill:#FF7AB4" />
<path d="M607.27,815.48A3,3 0 1 1 601.27,815.48A3,3 0 1 1 607.27,815.48Z" style="fill:#FF7AB4" />
<path d="M616.76,835.96A3,3 0 1 1 610.76,835.96A3,3 0 1 1 616.76,835.96Z" style="fill:#FF7AB4" />
<path d="M626.25,817.34A3,3 0 1 1 620.25,817.34A3,3 0 1 1 626.25,817.34Z" style="fill:#FF7AB4" />
<path d="M635.74,805.01A3,3 0 1 1 629.74,805.01A3,3 0 1 1 635.74,805.01Z" style="fill:#FF7AB4" />
<path d="M645.22,777.98A3,3 0 1 1 639.22,777.98A3,3 0 1 1 645.22,777.98Z" style="fill:#FF7AB4" />
<path d="M654.71,741.42A3,3 0 1 1 648.71,741.42A3,3 0 1 1 654.71,741.42Z" style="fill:#FF7AB4" />
<path d="M664.2,689A3,3 0 1 1 658.2,689A3,3 0 1 1 664.2,689Z" style="fill:#FF7AB4" />
<path d="M673.69,642.99A3,3 0 1 1 667.69,642.99A3,3 0 1 1 673.69,642.99Z" style="fill:#FF7AB4" />
<path d="M683.18,596.77A3,3 0 1 1 677.18,596.77A3,3 0 1 1 683.18,596.77Z" style="fill:#FF7AB4" />
<path d="M692.67,546.31A3,3 0 1 1 686.67,546.31A3,3 0 1 1 692.67,546.31Z" style="fill:#FF7AB4" />
<path d="M702.16,505.41A3,3 0 1 1 696.16,505.41A3,3 0 1 1 702.16,505.41Z" style="fill:#FF7AB4" />
<path d="M711.64,471.38A3,3 0 1 1 705.64,471.38A3,3 0 1 1 711.64,471.38Z" style="fill:#FF7AB4" />
<path d="M721.13,427.92A3,3 0 1 1 715.13,427.92A3,3 0 1 1 721.13,427.92Z" style="fill:#FF7AB4" />
<path d="M730.62,404.44A3,3 0 1 1 724.62,404.44A3,3 0 1 1 730.62,404.44Z" style="fill:#FF7AB4" />
<path d="M740.11,374.92A3,3 0 1 1 734.11,374.92A3,3 0 1 1 740.11,374.92Z" style="fill:#FF7AB4" />
<path d="M749.6,345.53A3,3 0 1 1 743.6,345.53A3,3 0 1 1 749.6,345.53Z" style="fill:#FF7AB4" />
<path d="M759.09,333.41A3,3 0 1 1 753.09,333.41A3,3 0 1 1 759.09,333.41Z" style="fill:#FF7AB4" />
<path d="M768.58,316.27A3,3 0 1 1 762.58,316.27A3,3 0 1 1 768.58,316.27Z" style="fill:#FF7AB4" />
<path d="M778.06,299.87A3,3 0 1 1 772.06,299.87A3,3 0 1 1 778.06,299.87Z" style="fill:#FF7AB4" />
<path d="M787.55,288.65A3,3 0 1 1 781.55,288.65A3,3 0 1 1 787.55,288.65Z" style="fill:#FF7AB4" />
<path d="M797.04,269.15A3,3 0 1 1 791.04,269.15A3,3 0 1 1 797.04,269.15Z" style="fill:#FF7AB4" />
<path d="M806.53,252.11A3,3 0 1 1 800.53,252.11A3,3 0 1 1 806.53,252.11Z" style="fill:#FF7AB4" />
<path d="M816.02,242.79A3,3 0 1 1 810.02,242.79A3,3 0 1 1 816.02,242.79Z" style="fill:#FF7AB4" />
<path d="M825.51,234.17A3,3 0 1 1 819.51,234.17A3,3 0 1 1 825.51,234.17Z" style="fill:#FF7AB4" />
<path d="M835,227.01A3,3 0 1 1 829,227.01A3,3 0 1 1 835,227.01Z" style="fill:#FF7AB4" />
<path d="M844.48,220.8A3,3 0 1 1 838.48,220.8A3,3 0 1 1 844.48,220.8Z" style="fill:#FF7AB4" />
<path d="M853.97,215.02A3,3 0 1 1 847.97,215.02A3,3 0 1 1 853.97,215.02Z" style="fill:#FF7AB4" />
<path d="M863.46,203.13A3,3 0 1 1 857.46,203.13A3,3 0 1 1 863.46,203.13Z" style="fill:#FF7AB4" />
<path d="M872.95,206.75A3,3 0 1 1 866.95,206.75A3,3 0 1 1 872.95,206.75Z" style="fill:#FF7AB4" />
<path d="M882.44,193.81A3,3 0 1 1 876.44,193.81A3,3 0 1 1 882.44,193.81Z" style="fill:#FF7AB4" />
<path d="M891.93,191.82A3,3 0 1 1 885.93,191.82A3,3 0 1 1 891.93,191.82Z" style="fill:#FF7AB4" />
<path d="M901.42,186.02A3,3 0 1 1 895.42,186.02A3,3 0 1 1 901.42,186.02Z" style="fill:#FF7AB4" />
<path d="M910.9,179.75A3,3 0 1 1 904.9,179.75A3,3 0 1 1 910.9,179.75Z" style="fill:#FF7AB4" />
<path d="M920.39,177.81A3,3 0 1 1 914.39,177.81A3,3 0 1 1 920.39,177.81Z" style="fill:#FF7AB4" />
<path d="M929.88,177.04A3,3 0 1 1 923.88,177.04A3,3 0 1 1 929.88,177.04Z" style="fill:#FF7AB4" />
<path d="M939.37,174.51A3,3 0 1 1 933.37,174.51A3,3 0 1 1 939.37,174.51Z" style="fill:#FF7AB4" />
<path d="M948.86,170.37A3,3 0 1 1 942.86,170.37A3,3 0 1 1 948.86,170.37Z" style="fill:#FF7AB4" />
<path d="M958.35,170.38A3,3 0 1 1 952.35,170.38A3,3 0 1 1 958.35,170.38Z" style="fill:#FF7AB4" />
<path d="M967.84,165.87A3,3 0 1 1 961.84,165.87A3,3 0 1 1 967.84,165.87Z" style="fill:#FF7AB4" />
<path d="M977.32,162.21A3,3 0 1 1 971.32,162.21A3,3 0 1 1 977.32,162.21Z" style="fill:#FF7AB4" />
<path d="M986.81,160.32A3,3 0 1 1 980.81,160.32A3,3 0 1 1 986.81,160.32Z" style="fill:#FF7AB4" />
<path d="M996.3,156.28A3,3 0 1 1 990.3,156.28A3,3 0 1 1 996.3,156.28Z" style="fill:#FF7AB4" />
<path d="M1005.8,164.95A3,3 0 1 1 999.79,164.95A3,3 0 1 1 1005.8,164.95Z" style="fill:#FF7AB4" />
<path d="M1015.3,154.56A3,3 0 1 1 1009.3,154.56A3,3 0 1 1 1015.3,154.56Z" style="fill:#FF7AB4" />
<path d="M1024.8,153A3,3 0 1 1 1018.8,153A3,3 0 1 1 1024.8,153Z" style="fill:#FF7AB4" />
<path d="M1034.3,153.34A3,3 0 1 1 1028.3,153.34A3,3 0 1 1 1034.3,153.34Z" style="fill:#FF7AB4" />
<path d="M1043.7,151.85A3,3 0 1 1 1037.7,151.85A3,3 0 1 1 1043.7,151.85Z" style="fill:#FF7AB4" />
<path d="M1053.2,153.8A3,3 0 1 1 1047.2,153.8A3,3 0 1 1 1053.2,153.8Z" style="fill:#FF7AB4" />
<path d="M106.12,962.84L1055,962.84" style="fill:none;stroke:#000000" />
<path d="M1055,104.32L1055,962.84" style="fill:none;stroke:#000000" />
<path d="M110.87,163.54L112.76,163.68L114.66,163.81L116.56,163.95L118.46,164.09L120.35,164.23L122.25,164.37L124.15,164.52L126.05,164.66L127.94,164.81L129.84,164.96L131.74,165.11L133.64,165.26L135.54,165.42L137.43,165.58L139.33,165.73L141.23,165.89L143.13,166.05L145.02,166.22L146.92,166.38L148.82,166.55L150.72,166.72L152.62,166.89L154.51,167.06L156.41,167.24L158.31,167.42L160.21,167.6L162.1,167.78L164,167.96L165.9,168.15L167.8,168.34L169.69,168.53L171.59,168.72L173.49,168.92L175.39,169.11L177.29,169.32L179.18,169.52L181.08,169.72L182.98,169.93L184.88,170.14L186.77,170.36L188.67,170.57L190.57,170.79L192.47,171.01L194.36,171.24L196.26,171.46L198.16,171.69L200.06,171.93L201.96,172.16L203.85,172.4L205.75,172.65L207.65,172.89L209.55,173.14L211.44,173.39L213.34,173.65L215.24,173.91L217.14,174.17L219.04,174.44L220.93,174.71L222.83,174.98L224.73,175.26L226.63,175.54L228.52,175.83L230.42,176.11L232.32,176.41L234.22,176.7L236.11,177.01L238.01,177.31L239.91,177.62L241.81,177.94L243.71,178.26L245.6,178.58L247.5,178.91L249.4,179.24L251.3,179.58L253.19,179.92L255.09,180.27L256.99,180.62L258.89,180.98L260.78,181.35L262.68,181.72L264.58,182.09L266.48,182.47L268.38,182.86L270.27,183.25L272.17,183.65L274.07,184.06L275.97,184.47L277.86,184.88L279.76,185.31L281.66,185.74L283.56,186.18L285.45,186.62L287.35,187.07L289.25,187.53L291.15,188L293.05,188.47L294.94,188.95L296.84,189.44L298.74,189.94L300.64,190.45L302.53,190.96L304.43,191.48L306.33,192.01L308.23,192.56L310.13,193.11L312.02,193.66L313.92,194.23L315.82,194.81L317.72,195.4L319.61,196L321.51,196.61L323.41,197.23L325.31,197.86L327.2,198.5L329.1,199.16L331,199.82L332.9,200.5L334.8,201.19L336.69,201.89L338.59,202.61L340.49,203.34L342.39,204.08L344.28,204.84L346.18,205.61L348.08,206.39L349.98,207.19L351.87,208.01L353.77,208.84L355.67,209.68L357.57,210.55L359.47,211.43L361.36,212.32L363.26,213.24L365.16,214.17L367.06,215.12L368.95,216.1L370.85,217.09L372.75,218.1L374.65,219.13L376.55,220.18L378.44,221.25L380.34,222.35L382.24,223.47L384.14,224.61L386.03,225.78L387.93,226.97L389.83,228.19L391.73,229.43L393.62,230.7L395.52,232L397.42,233.32L399.32,234.68L401.22,236.06L403.11,237.48L405.01,238.93L406.91,240.41L408.81,241.92L410.7,243.47L412.6,245.05L414.5,246.67L416.4,248.33L418.29,250.02L420.19,251.76L422.09,253.53L423.99,255.35L425.89,257.21L427.78,259.12L429.68,261.07L431.58,263.07L433.48,265.11L435.37,267.21L437.27,269.36L439.17,271.56L441.07,273.81L442.97,276.13L444.86,278.5L446.76,280.93L448.66,283.42L450.56,285.97L452.45,288.59L454.35,291.28L456.25,294.04L458.15,296.87L460.04,299.77L461.94,302.75L463.84,305.8L465.74,308.94L467.64,312.16L469.53,315.47L471.43,318.86L473.33,322.35L475.23,325.93L477.12,329.6L479.02,333.38L480.92,337.25L482.82,341.24L484.71,345.33L486.61,349.53L488.51,353.85L490.41,358.29L492.31,362.84L494.2,367.53L496.1,372.34L498,377.28L499.9,382.36L501.79,387.58L503.69,392.94L505.59,398.45L507.49,404.1L509.39,409.91L511.28,415.88L513.18,422.01L515.08,428.3L516.98,434.76L518.87,441.38L520.77,448.18L522.67,455.16L524.57,462.31L526.46,469.64L528.36,477.16L530.26,484.85L532.16,492.73L534.06,500.8L535.95,509.05L537.85,517.48L539.75,526.1L541.65,534.9L543.54,543.87L545.44,553.01L547.34,562.33L549.24,571.81L551.13,581.44L553.03,591.22L554.93,601.13L556.83,611.17L558.73,621.32L560.62,631.57L562.52,641.89L564.42,652.28L566.32,662.71L568.21,673.16L570.11,683.61L572.01,694.02L573.91,704.38L575.81,714.65L577.7,724.79L579.6,734.79L581.5,744.59L583.4,754.17L585.29,763.48L587.19,772.49L589.09,781.17L590.99,789.46L592.88,797.33L594.78,804.74L596.68,811.66L598.58,818.04L600.48,823.85L602.37,829.06L604.27,833.64L606.17,837.57L608.07,840.81L609.96,843.34L611.86,845.17L613.76,846.26L615.66,846.61L617.55,846.23L619.45,845.11L621.35,843.27L623.25,840.7L625.15,837.44L627.04,833.49L628.94,828.89L630.84,823.66L632.74,817.82L634.63,811.42L636.53,804.49L638.43,797.06L640.33,789.17L642.22,780.87L644.12,772.18L646.02,763.16L647.92,753.83L649.82,744.25L651.71,734.44L653.61,724.44L655.51,714.29L657.41,704.02L659.3,693.66L661.2,683.24L663.1,672.8L665,662.35L666.9,651.92L668.79,641.53L670.69,631.2L672.59,620.96L674.49,610.81L676.38,600.78L678.28,590.87L680.18,581.1L682.08,571.47L683.97,562L685.87,552.69L687.77,543.55L689.67,534.58L691.57,525.79L693.46,517.18L695.36,508.76L697.26,500.51L699.16,492.45L701.05,484.58L702.95,476.89L704.85,469.38L706.75,462.06L708.64,454.91L710.54,447.94L712.44,441.15L714.34,434.53L716.24,428.07L718.13,421.79L720.03,415.67L721.93,409.71L723.83,403.9L725.72,398.25L727.62,392.75L729.52,387.39L731.42,382.18L733.32,377.11L735.21,372.17L737.11,367.36L739.01,362.68L740.91,358.13L742.8,353.69L744.7,349.38L746.6,345.18L748.5,341.09L750.39,337.11L752.29,333.24L754.19,329.47L756.09,325.8L757.99,322.22L759.88,318.74L761.78,315.35L763.68,312.05L765.58,308.83L767.47,305.69L769.37,302.64L771.27,299.66L773.17,296.77L775.06,293.94L776.96,291.18L778.86,288.5L780.76,285.88L782.66,283.33L784.55,280.84L786.45,278.41L788.35,276.04L790.25,273.73L792.14,271.48L794.04,269.28L795.94,267.13L797.84,265.04L799.74,262.99L801.63,261L803.53,259.05L805.43,257.14L807.33,255.29L809.22,253.47L811.12,251.7L813.02,249.96L814.92,248.27L816.81,246.61L818.71,244.99L820.61,243.41L822.51,241.87L824.41,240.35L826.3,238.88L828.2,237.43L830.1,236.01L832,234.63L833.89,233.28L835.79,231.95L837.69,230.66L839.59,229.39L841.48,228.14L843.38,226.93L845.28,225.74L847.18,224.57L849.08,223.43L850.97,222.31L852.87,221.22L854.77,220.14L856.67,219.09L858.56,218.06L860.46,217.05L862.36,216.06L864.26,215.09L866.16,214.14L868.05,213.21L869.95,212.29L871.85,211.4L873.75,210.52L875.64,209.65L877.54,208.81L879.44,207.98L881.34,207.16L883.23,206.36L885.13,205.58L887.03,204.81L888.93,204.05L890.83,203.31L892.72,202.58L894.62,201.87L896.52,201.17L898.42,200.48L900.31,199.8L902.21,199.13L904.11,198.48L906.01,197.84L907.9,197.21L909.8,196.59L911.7,195.98L913.6,195.38L915.5,194.79L917.39,194.21L919.29,193.64L921.19,193.09L923.09,192.54L924.98,192L926.88,191.46L928.78,190.94L930.68,190.43L932.58,189.92L934.47,189.42L936.37,188.94L938.27,188.45L940.17,187.98L942.06,187.51L943.96,187.06L945.86,186.6L947.76,186.16L949.65,185.72L951.55,185.29L953.45,184.87L955.35,184.45L957.25,184.04L959.14,183.64L961.04,183.24L962.94,182.85L964.84,182.46L966.73,182.08L968.63,181.7L970.53,181.33L972.43,180.97L974.32,180.61L976.22,180.26L978.12,179.91L980.02,179.57L981.92,179.23L983.81,178.9L985.71,178.57L987.61,178.25L989.51,177.93L991.4,177.61L993.3,177.3L995.2,177L997.1,176.69L999,176.4L1000.9,176.1L1002.8,175.82L1004.7,175.53L1006.6,175.25L1008.5,174.97L1010.4,174.7L1012.3,174.43L1014.2,174.16L1016.1,173.9L1018,173.64L1019.9,173.38L1021.8,173.13L1023.7,172.88L1025.6,172.64L1027.5,172.39L1029.4,172.16L1031.3,171.92L1033.2,171.69L1035.1,171.46L1036.9,171.23L1038.8,171L1040.7,170.78L1042.6,170.56L1044.5,170.35L1046.4,170.13L1048.3,169.92" style="fill:none;stroke:#C96892;stroke-width:3" />
<path d="M532.91,495.91L698.34,495.91" style="fill:none;stroke:#C96892;stroke-width:4;stroke-dasharray:15,5" />
<path d="M113.87,135A3,3 0 1 1 107.87,135A3,3 0 1 1 113.87,135Z" style="fill:#7A9CFF" />
<path d="M123.35,135.53A3,3 0 1 1 117.35,135.53A3,3 0 1 1 123.35,135.53Z" style="fill:#7A9CFF" />
<path d="M132.84,140.65A3,3 0 1 1 126.84,140.65A3,3 0 1 1 132.84,140.65Z" style="fill:#7A9CFF" />
<path d="M142.33,142.25A3,3 0 1 1 136.33,142.25A3,3 0 1 1 142.33,142.25Z" style="fill:#7A9CFF" />
<path d="M151.82,141.31A3,3 0 1 1 145.82,141.31A3,3 0 1 1 151.82,141.31Z" style="fill:#7A9CFF" />
<path d="M161.31,143.76A3,3 0 1 1 155.31,143.76A3,3 0 1 1 161.31,143.76Z" style="fill:#7A9CFF" />
<path d="M170.8,140.62A3,3 0 1 1 164.8,140.62A3,3 0 1 1 170.8,140.62Z" style="fill:#7A9CFF" />
<path d="M180.29,143.05A3,3 0 1 1 174.29,143.05A3,3 0 1 1 180.29,143.05Z" style="fill:#7A9CFF" />
<path d="M189.77,142.05A3,3 0 1 1 183.77,142.05A3,3 0 1 1 189.77,142.05Z" style="fill:#7A9CFF" />
<path d="M199.26,147.39A3,3 0 1 1 193.26,147.39A3,3 0 1 1 199.26,147.39Z" style="fill:#7A9CFF" />
<path d="M208.75,145.14A3,3 0 1 1 202.75,145.14A3,3 0 1 1 208.75,145.14Z" style="fill:#7A9CFF" />
<path d="M218.24,148.55A3,3 0 1 1 212.24,148.55A3,3 0 1 1 218.24,148.55Z" style="fill:#7A9CFF" />
<path d="M227.73,150.93A3,3 0 1 1 221.73,150.93A3,3 0 1 1 227.73,150.93Z" style="fill:#7A9CFF" />
<path d="M237.22,150.6A3,3 0 1 1 231.22,150.6A3,3 0 1 1 237.22,150.6Z" style="fill:#7A9CFF" />
<path d="M246.71,154.36A3,3 0 1 1 240.71,154.36A3,3 0 1 1 246.71,154.36Z" style="fill:#7A9CFF" />
<path d="M256.19,158.87A3,3 0 1 1 250.19,158.87A3,3 0 1 1 256.19,158.87Z" style="fill:#7A9CFF" />
<path d="M265.68,159.9A3,3 0 1 1 259.68,159.9A3,3 0 1 1 265.68,159.9Z" style="fill:#7A9CFF" />
<path d="M275.17,169.12A3,3 0 1 1 269.17,169.12A3,3 0 1 1 275.17,169.12Z" style="fill:#7A9CFF" />
<path d="M284.66,166.63A3,3 0 1 1 278.66,166.63A3,3 0 1 1 284.66,166.63Z" style="fill:#7A9CFF" />
<path d="M294.15,168.07A3,3 0 1 1 288.15,168.07A3,3 0 1 1 294.15,168.07Z" style="fill:#7A9CFF" />
<path d="M303.64,172.43A3,3 0 1 1 297.64,172.43A3,3 0 1 1 303.64,172.43Z" style="fill:#7A9CFF" />
<path d="M313.13,179.81A3,3 0 1 1 307.13,179.81A3,3 0 1 1 313.13,179.81Z" style="fill:#7A9CFF" />
<path d="M322.61,179.69A3,3 0 1 1 316.61,179.69A3,3 0 1 1 322.61,179.69Z" style="fill:#7A9CFF" />
<path d="M332.1,188.14A3,3 0 1 1 326.1,188.14A3,3 0 1 1 332.1,188.14Z" style="fill:#7A9CFF" />
<path d="M341.59,193.39A3,3 0 1 1 335.59,193.39A3,3 0 1 1 341.59,193.39Z" style="fill:#7A9CFF" />
<path d="M351.08,196.62A3,3 0 1 1 345.08,196.62A3,3 0 1 1 351.08,196.62Z" style="fill:#7A9CFF" />
<path d="M360.57,201.68A3,3 0 1 1 354.57,201.68A3,3 0 1 1 360.57,201.68Z" style="fill:#7A9CFF" />
<path d="M370.06,205.34A3,3 0 1 1 364.06,205.34A3,3 0 1 1 370.06,205.34Z" style="fill:#7A9CFF" />
<path d="M379.55,215.21A3,3 0 1 1 373.55,215.21A3,3 0 1 1 379.55,215.21Z" style="fill:#7A9CFF" />
<path d="M389.03,216.15A3,3 0 1 1 383.03,216.15A3,3 0 1 1 389.03,216.15Z" style="fill:#7A9CFF" />
<path d="M398.52,231.24A3,3 0 1 1 392.52,231.24A3,3 0 1 1 398.52,231.24Z" style="fill:#7A9CFF" />
<path d="M408.01,232.02A3,3 0 1 1 402.01,232.02A3,3 0 1 1 408.01,232.02Z" style="fill:#7A9CFF" />
<path d="M417.5,247.41A3,3 0 1 1 411.5,247.41A3,3 0 1 1 417.5,247.41Z" style="fill:#7A9CFF" />
<path d="M426.99,252.98A3,3 0 1 1 420.99,252.98A3,3 0 1 1 426.99,252.98Z" style="fill:#7A9CFF" />
<path d="M436.48,267.08A3,3 0 1 1 430.48,267.08A3,3 0 1 1 436.48,267.08Z" style="fill:#7A9CFF" />
<path d="M445.97,276.14A3,3 0 1 1 439.97,276.14A3,3 0 1 1 445.97,276.14Z" style="fill:#7A9CFF" />
<path d="M455.45,289.67A3,3 0 1 1 449.45,289.67A3,3 0 1 1 455.45,289.67Z" style="fill:#7A9CFF" />
<path d="M464.94,302.45A3,3 0 1 1 458.94,302.45A3,3 0 1 1 464.94,302.45Z" style="fill:#7A9CFF" />
<path d="M474.43,317.9A3,3 0 1 1 468.43,317.9A3,3 0 1 1 474.43,317.9Z" style="fill:#7A9CFF" />
<path d="M483.92,337.61A3,3 0 1 1 477.92,337.61A3,3 0 1 1 483.92,337.61Z" style="fill:#7A9CFF" />
<path d="M493.41,359.01A3,3 0 1 1 487.41,359.01A3,3 0 1 1 493.41,359.01Z" style="fill:#7A9CFF" />
<path d="M502.9,395.09A3,3 0 1 1 496.9,395.09A3,3 0 1 1 502.9,395.09Z" style="fill:#7A9CFF" />
<path d="M512.39,420.42A3,3 0 1 1 506.39,420.42A3,3 0 1 1 512.39,420.42Z" style="fill:#7A9CFF" />
<path d="M521.87,448.96A3,3 0 1 1 515.87,448.96A3,3 0 1 1 521.87,448.96Z" style="fill:#7A9CFF" />
<path d="M531.36,481.03A3,3 0 1 1 525.36,481.03A3,3 0 1 1 531.36,481.03Z" style="fill:#7A9CFF" />
<path d="M540.85,532.26A3,3 0 1 1 534.85,532.26A3,3 0 1 1 540.85,532.26Z" style="fill:#7A9CFF" />
<path d="M550.34,568.38A3,3 0 1 1 544.34,568.38A3,3 0 1 1 550.34,568.38Z" style="fill:#7A9CFF" />
<path d="M559.83,621.37A3,3 0 1 1 553.83,621.37A3,3 0 1 1 559.83,621.37Z" style="fill:#7A9CFF" />
<path d="M569.32,671.51A3,3 0 1 1 563.32,671.51A3,3 0 1 1 569.32,671.51Z" style="fill:#7A9CFF" />
<path d="M578.81,720.54A3,3 0 1 1 572.81,720.54A3,3 0 1 1 578.81,720.54Z" style="fill:#7A9CFF" />
<path d="M588.29,766.91A3,3 0 1 1 582.29,766.91A3,3 0 1 1 588.29,766.91Z" style="fill:#7A9CFF" />
<path d="M597.78,798.74A3,3 0 1 1 591.78,798.74A3,3 0 1 1 597.78,798.74Z" style="fill:#7A9CFF" />
<path d="M607.27,829.87A3,3 0 1 1 601.27,829.87A3,3 0 1 1 607.27,829.87Z" style="fill:#7A9CFF" />
<path d="M616.76,821.69A3,3 0 1 1 610.76,821.69A3,3 0 1 1 616.76,821.69Z" style="fill:#7A9CFF" />
<path d="M626.25,820.44A3,3 0 1 1 620.25,820.44A3,3 0 1 1 626.25,820.44Z" style="fill:#7A9CFF" />
<path d="M635.74,804.17A3,3 0 1 1 629.74,804.17A3,3 0 1 1 635.74,804.17Z" style="fill:#7A9CFF" />
<path d="M645.22,768.41A3,3 0 1 1 639.22,768.41A3,3 0 1 1 645.22,768.41Z" style="fill:#7A9CFF" />
<path d="M654.71,738.42A3,3 0 1 1 648.71,738.42A3,3 0 1 1 654.71,738.42Z" style="fill:#7A9CFF" />
<path d="M664.2,681.12A3,3 0 1 1 658.2,681.12A3,3 0 1 1 664.2,681.12Z" style="fill:#7A9CFF" />
<path d="M673.69,640.91A3,3 0 1 1 667.69,640.91A3,3 0 1 1 673.69,640.91Z" style="fill:#7A9CFF" />
<path d="M683.18,588.49A3,3 0 1 1 677.18,588.49A3,3 0 1 1 683.18,588.49Z" style="fill:#7A9CFF" />
<path d="M692.67,545.33A3,3 0 1 1 686.67,545.33A3,3 0 1 1 692.67,545.33Z" style="fill:#7A9CFF" />
<path d="M702.16,501.76A3,3 0 1 1 696.16,501.76A3,3 0 1 1 702.16,501.76Z" style="fill:#7A9CFF" />
<path d="M711.64,460.1A3,3 0 1 1 705.64,460.1A3,3 0 1 1 711.64,460.1Z" style="fill:#7A9CFF" />
<path d="M721.13,425.6A3,3 0 1 1 715.13,425.6A3,3 0 1 1 721.13,425.6Z" style="fill:#7A9CFF" />
<path d="M730.62,396.74A3,3 0 1 1 724.62,396.74A3,3 0 1 1 730.62,396.74Z" style="fill:#7A9CFF" />
<path d="M740.11,372.45A3,3 0 1 1 734.11,372.45A3,3 0 1 1 740.11,372.45Z" style="fill:#7A9CFF" />
<path d="M749.6,349.72A3,3 0 1 1 743.6,349.72A3,3 0 1 1 749.6,349.72Z" style="fill:#7A9CFF" />
<path d="M759.09,333.21A3,3 0 1 1 753.09,333.21A3,3 0 1 1 759.09,333.21Z" style="fill:#7A9CFF" />
<path d="M768.58,308.56A3,3 0 1 1 762.58,308.56A3,3 0 1 1 768.58,308.56Z" style="fill:#7A9CFF" />
<path d="M778.06,292.16A3,3 0 1 1 772.06,292.16A3,3 0 1 1 778.06,292.16Z" style="fill:#7A9CFF" />
<path d="M787.55,271.96A3,3 0 1 1 781.55,271.96A3,3 0 1 1 787.55,271.96Z" style="fill:#7A9CFF" />
<path d="M797.04,262.87A3,3 0 1 1 791.04,262.87A3,3 0 1 1 797.04,262.87Z" style="fill:#7A9CFF" />
<path d="M806.53,252.16A3,3 0 1 1 800.53,252.16A3,3 0 1 1 806.53,252.16Z" style="fill:#7A9CFF" />
<path d="M816.02,244.53A3,3 0 1 1 810.02,244.53A3,3 0 1 1 816.02,244.53Z" style="fill:#7A9CFF" />
<path d="M825.51,232.51A3,3 0 1 1 819.51,232.51A3,3 0 1 1 825.51,232.51Z" style="fill:#7A9CFF" />
<path d="M835,222.22A3,3 0 1 1 829,222.22A3,3 0 1 1 835,222.22Z" style="fill:#7A9CFF" />
<path d="M844.48,213.4A3,3 0 1 1 838.48,213.4A3,3 0 1 1 844.48,213.4Z" style="fill:#7A9CFF" />
<path d="M853.97,214.49A3,3 0 1 1 847.97,214.49A3,3 0 1 1 853.97,214.49Z" style="fill:#7A9CFF" />
<path d="M863.46,200.84A3,3 0 1 1 857.46,200.84A3,3 0 1 1 863.46,200.84Z" style="fill:#7A9CFF" />
<path d="M872.95,199.19A3,3 0 1 1 866.95,199.19A3,3 0 1 1 872.95,199.19Z" style="fill:#7A9CFF" />
<path d="M882.44,191.3A3,3 0 1 1 876.44,191.3A3,3 0 1 1 882.44,191.3Z" style="fill:#7A9CFF" />
<path d="M891.93,193.23A3,3 0 1 1 885.93,193.23A3,3 0 1 1 891.93,193.23Z" style="fill:#7A9CFF" />
<path d="M901.42,182.6A3,3 0 1 1 895.42,182.6A3,3 0 1 1 901.42,182.6Z" style="fill:#7A9CFF" />
<path d="M910.9,180.67A3,3 0 1 1 904.9,180.67A3,3 0 1 1 910.9,180.67Z" style="fill:#7A9CFF" />
<path d="M920.39,171.51A3,3 0 1 1 914.39,171.51A3,3 0 1 1 920.39,171.51Z" style="fill:#7A9CFF" />
<path d="M929.88,176.95A3,3 0 1 1 923.88,176.95A3,3 0 1 1 929.88,176.95Z" style="fill:#7A9CFF" />
<path d="M939.37,169.4A3,3 0 1 1 933.37,169.4A3,3 0 1 1 939.37,169.4Z" style="fill:#7A9CFF" />
<path d="M948.86,167.59A3,3 0 1 1 942.86,167.59A3,3 0 1 1 948.86,167.59Z" style="fill:#7A9CFF" />
<path d="M958.35,161.89A3,3 0 1 1 952.35,161.89A3,3 0 1 1 958.35,161.89Z" style="fill:#7A9CFF" />
<path d="M967.84,161.55A3,3 0 1 1 961.84,161.55A3,3 0 1 1 967.84,161.55Z" style="fill:#7A9CFF" />
<path d="M977.32,164.34A3,3 0 1 1 971.32,164.34A3,3 0 1 1 977.32,164.34Z" style="fill:#7A9CFF" />
<path d="M986.81,160.76A3,3 0 1 1 980.81,160.76A3,3 0 1 1 986.81,160.76Z" style="fill:#7A9CFF" />
<path d="M996.3,158.16A3,3 0 1 1 990.3,158.16A3,3 0 1 1 996.3,158.16Z" style="fill:#7A9CFF" />
<path d="M1005.8,164.34A3,3 0 1 1 999.79,164.34A3,3 0 1 1 1005.8,164.34Z" style="fill:#7A9CFF" />
<path d="M1015.3,151.89A3,3 0 1 1 1009.3,151.89A3,3 0 1 1 1015.3,151.89Z" style="fill:#7A9CFF" />
<path d="M1024.8,150.37A3,3 0 1 1 1018.8,150.37A3,3 0 1 1 1024.8,150.37Z" style="fill:#7A9CFF" />
<path d="M1034.3,151.6A3,3 0 1 1 1028.3,151.6A3,3 0 1 1 1034.3,151.6Z" style="fill:#7A9CFF" />
<path d="M1043.7,154.68A3,3 0 1 1 1037.7,154.68A3,3 0 1 1 1043.7,154.68Z" style="fill:#7A9CFF" />
<path d="M1053.2,145.59A3,3 0 1 1 1047.2,145.59A3,3 0 1 1 1053.2,145.59Z" style="fill:#7A9CFF" />
<path d="M106.12,962.84L1055,962.84" style="fill:none;stroke:#000000" />
<path d="M1055,104.32L1055,962.84" style="fill:none;stroke:#000000" />
<path d="M110.87,163.24L112.76,163.38L114.66,163.51L116.56,163.65L118.46,163.78L120.35,163.92L122.25,164.06L124.15,164.21L126.05,164.35L127.94,164.49L129.84,164.64L131.74,164.79L133.64,164.94L135.54,165.09L137.43,165.25L139.33,165.4L141.23,165.56L143.13,165.72L145.02,165.88L146.92,166.04L148.82,166.21L150.72,166.37L152.62,166.54L154.51,166.71L156.41,166.89L158.31,167.06L160.21,167.24L162.1,167.42L164,167.6L165.9,167.78L167.8,167.97L169.69,168.16L171.59,168.35L173.49,168.54L175.39,168.73L177.29,168.93L179.18,169.13L181.08,169.33L182.98,169.54L184.88,169.75L186.77,169.96L188.67,170.17L190.57,170.39L192.47,170.61L194.36,170.83L196.26,171.05L198.16,171.28L200.06,171.51L201.96,171.74L203.85,171.98L205.75,172.22L207.65,172.46L209.55,172.7L211.44,172.95L213.34,173.21L215.24,173.46L217.14,173.72L219.04,173.98L220.93,174.25L222.83,174.52L224.73,174.79L226.63,175.07L228.52,175.35L230.42,175.64L232.32,175.93L234.22,176.22L236.11,176.52L238.01,176.82L239.91,177.12L241.81,177.43L243.71,177.75L245.6,178.07L247.5,178.39L249.4,178.72L251.3,179.06L253.19,179.39L255.09,179.74L256.99,180.09L258.89,180.44L260.78,180.8L262.68,181.16L264.58,181.53L266.48,181.91L268.38,182.29L270.27,182.68L272.17,183.07L274.07,183.47L275.97,183.88L277.86,184.29L279.76,184.71L281.66,185.13L283.56,185.57L285.45,186L287.35,186.45L289.25,186.9L291.15,187.36L293.05,187.83L294.94,188.31L296.84,188.79L298.74,189.28L300.64,189.78L302.53,190.29L304.43,190.81L306.33,191.33L308.23,191.87L310.13,192.41L312.02,192.96L313.92,193.52L315.82,194.09L317.72,194.68L319.61,195.27L321.51,195.87L323.41,196.48L325.31,197.11L327.2,197.74L329.1,198.39L331,199.05L332.9,199.72L334.8,200.4L336.69,201.09L338.59,201.8L340.49,202.52L342.39,203.26L344.28,204L346.18,204.76L348.08,205.54L349.98,206.33L351.87,207.14L353.77,207.96L355.67,208.8L357.57,209.65L359.47,210.52L361.36,211.41L363.26,212.32L365.16,213.24L367.06,214.18L368.95,215.14L370.85,216.12L372.75,217.12L374.65,218.14L376.55,219.18L378.44,220.25L380.34,221.33L382.24,222.44L384.14,223.57L386.03,224.73L387.93,225.91L389.83,227.11L391.73,228.35L393.62,229.6L395.52,230.89L397.42,232.2L399.32,233.55L401.22,234.92L403.11,236.32L405.01,237.76L406.91,239.22L408.81,240.72L410.7,242.26L412.6,243.83L414.5,245.43L416.4,247.08L418.29,248.76L420.19,250.48L422.09,252.24L423.99,254.05L425.89,255.89L427.78,257.78L429.68,259.72L431.58,261.7L433.48,263.74L435.37,265.82L437.27,267.95L439.17,270.14L441.07,272.38L442.97,274.68L444.86,277.03L446.76,279.45L448.66,281.92L450.56,284.46L452.45,287.07L454.35,289.74L456.25,292.48L458.15,295.3L460.04,298.19L461.94,301.15L463.84,304.19L465.74,307.31L467.64,310.52L469.53,313.81L471.43,317.19L473.33,320.66L475.23,324.23L477.12,327.89L479.02,331.66L480.92,335.52L482.82,339.49L484.71,343.57L486.61,347.77L488.51,352.07L490.41,356.5L492.31,361.05L494.2,365.73L496.1,370.53L498,375.47L499.9,380.54L501.79,385.76L503.69,391.12L505.59,396.62L507.49,402.28L509.39,408.09L511.28,414.06L513.18,420.19L515.08,426.49L516.98,432.96L518.87,439.59L520.77,446.4L522.67,453.39L524.57,460.56L526.46,467.91L528.36,475.45L530.26,483.17L532.16,491.07L534.06,499.17L535.95,507.45L537.85,515.91L539.75,524.57L541.65,533.4L543.54,542.42L545.44,551.61L547.34,560.97L549.24,570.5L551.13,580.18L553.03,590.01L554.93,599.98L556.83,610.08L558.73,620.29L560.62,630.6L562.52,640.99L564.42,651.44L566.32,661.94L568.21,672.45L570.11,682.96L572.01,693.43L573.91,703.84L575.81,714.16L577.7,724.36L579.6,734.39L581.5,744.23L583.4,753.84L585.29,763.18L587.19,772.2L589.09,780.88L590.99,789.16L592.88,797.01L594.78,804.39L596.68,811.26L598.58,817.59L600.48,823.33L602.37,828.45L604.27,832.93L606.17,836.74L608.07,839.84L609.96,842.24L611.86,843.9L613.76,844.82L615.66,845L617.55,844.42L619.45,843.1L621.35,841.05L623.25,838.27L625.15,834.79L627.04,830.62L628.94,825.79L630.84,820.33L632.74,814.28L634.63,807.66L636.53,800.51L638.43,792.87L640.33,784.78L642.22,776.29L644.12,767.42L646.02,758.22L647.92,748.73L649.82,739L651.71,729.05L653.61,718.92L655.51,708.66L657.41,698.28L659.3,687.83L661.2,677.34L663.1,666.83L665,656.32L666.9,645.85L668.79,635.43L670.69,625.08L672.59,614.82L674.49,604.67L676.38,594.64L678.28,584.74L680.18,574.98L682.08,565.38L683.97,555.94L685.87,546.67L687.77,537.57L689.67,528.65L691.57,519.92L693.46,511.36L695.36,502.99L697.26,494.81L699.16,486.82L701.05,479.01L702.95,471.39L704.85,463.96L706.75,456.7L708.64,449.63L710.54,442.74L712.44,436.02L714.34,429.48L716.24,423.1L718.13,416.89L720.03,410.85L721.93,404.96L723.83,399.24L725.72,393.66L727.62,388.23L729.52,382.95L731.42,377.81L733.32,372.81L735.21,367.95L737.11,363.21L739.01,358.6L740.91,354.12L742.8,349.76L744.7,345.51L746.6,341.38L748.5,337.36L750.39,333.44L752.29,329.63L754.19,325.92L756.09,322.31L757.99,318.8L759.88,315.37L761.78,312.04L763.68,308.79L765.58,305.63L767.47,302.55L769.37,299.55L771.27,296.63L773.17,293.78L775.06,291.01L776.96,288.3L778.86,285.67L780.76,283.1L782.66,280.59L784.55,278.15L786.45,275.77L788.35,273.44L790.25,271.17L792.14,268.96L794.04,266.8L795.94,264.7L797.84,262.64L799.74,260.64L801.63,258.68L803.53,256.77L805.43,254.9L807.33,253.08L809.22,251.29L811.12,249.55L813.02,247.85L814.92,246.19L816.81,244.57L818.71,242.98L820.61,241.43L822.51,239.92L824.41,238.43L826.3,236.99L828.2,235.57L830.1,234.18L832,232.82L833.89,231.5L835.79,230.2L837.69,228.93L839.59,227.68L841.48,226.47L843.38,225.27L845.28,224.11L847.18,222.97L849.08,221.85L850.97,220.75L852.87,219.68L854.77,218.62L856.67,217.59L858.56,216.58L860.46,215.6L862.36,214.63L864.26,213.67L866.16,212.74L868.05,211.83L869.95,210.93L871.85,210.05L873.75,209.19L875.64,208.35L877.54,207.52L879.44,206.71L881.34,205.91L883.23,205.12L885.13,204.36L887.03,203.6L888.93,202.86L890.83,202.13L892.72,201.42L894.62,200.72L896.52,200.03L898.42,199.36L900.31,198.69L902.21,198.04L904.11,197.4L906.01,196.77L907.9,196.15L909.8,195.55L911.7,194.95L913.6,194.36L915.5,193.79L917.39,193.22L919.29,192.66L921.19,192.12L923.09,191.58L924.98,191.05L926.88,190.53L928.78,190.02L930.68,189.51L932.58,189.02L934.47,188.53L936.37,188.05L938.27,187.58L940.17,187.12L942.06,186.66L943.96,186.21L945.86,185.77L947.76,185.33L949.65,184.9L951.55,184.48L953.45,184.07L955.35,183.66L957.25,183.26L959.14,182.86L961.04,182.47L962.94,182.09L964.84,181.71L966.73,181.34L968.63,180.97L970.53,180.61L972.43,180.25L974.32,179.9L976.22,179.55L978.12,179.21L980.02,178.88L981.92,178.55L983.81,178.22L985.71,177.9L987.61,177.58L989.51,177.27L991.4,176.96L993.3,176.66L995.2,176.36L997.1,176.06L999,175.77L1000.9,175.48L1002.8,175.2L1004.7,174.92L1006.6,174.65L1008.5,174.37L1010.4,174.11L1012.3,173.84L1014.2,173.58L1016.1,173.32L1018,173.07L1019.9,172.82L1021.8,172.57L1023.7,172.33L1025.6,172.09L1027.5,171.85L1029.4,171.62L1031.3,171.38L1033.2,171.16L1035.1,170.93L1036.9,170.71L1038.8,170.49L1040.7,170.27L1042.6,170.06L1044.5,169.85L1046.4,169.64L1048.3,169.43" style="fill:none;stroke:#637CC6;stroke-width:3" />
<path d="M533.11,495.11L697.19,495.11" style="fill:none;stroke:#637CC6;stroke-width:4;stroke-dasharray:15,5" />
<path d="M113.87,135.69A3,3 0 1 1 107.87,135.69A3,3 0 1 1 113.87,135.69Z" style="fill:#FFB66E" />
<path d="M123.35,137.41A3,3 0 1 1 117.35,137.41A3,3 0 1 1 123.35,137.41Z" style="fill:#FFB66E" />
<path d="M132.84,138.74A3,3 0 1 1 126.84,138.74A3,3 0 1 1 132.84,138.74Z" style="fill:#FFB66E" />
<path d="M142.33,139.58A3,3 0 1 1 136.33,139.58A3,3 0 1 1 142.33,139.58Z" style="fill:#FFB66E" />
<path d="M151.82,141.27A3,3 0 1 1 145.82,141.27A3,3 0 1 1 151.82,141.27Z" style="fill:#FFB66E" />
<path d="M161.31,145.58A3,3 0 1 1 155.31,145.58A3,3 0 1 1 161.31,145.58Z" style="fill:#FFB66E" />
<path d="M170.8,139.09A3,3 0 1 1 164.8,139.09A3,3 0 1 1 170.8,139.09Z" style="fill:#FFB66E" />
<path d="M180.29,139.36A3,3 0 1 1 174.29,139.36A3,3 0 1 1 180.29,139.36Z" style="fill:#FFB66E" />
<path d="M189.77,142.77A3,3 0 1 1 183.77,142.77A3,3 0 1 1 189.77,142.77Z" style="fill:#FFB66E" />
<path d="M199.26,145.65A3,3 0 1 1 193.26,145.65A3,3 0 1 1 199.26,145.65Z" style="fill:#FFB66E" />
<path d="M208.75,153.09A3,3 0 1 1 202.75,153.09A3,3 0 1 1 208.75,153.09Z" style="fill:#FFB66E" />
<path d="M218.24,148.26A3,3 0 1 1 212.24,148.26A3,3 0 1 1 218.24,148.26Z" style="fill:#FFB66E" />
<path d="M227.73,151.75A3,3 0 1 1 221.73,151.75A3,3 0 1 1 227.73,151.75Z" style="fill:#FFB66E" />
<path d="M237.22,152.45A3,3 0 1 1 231.22,152.45A3,3 0 1 1 237.22,152.45Z" style="fill:#FFB66E" />
<path d="M246.71,154.68A3,3 0 1 1 240.71,154.68A3,3 0 1 1 246.71,154.68Z" style="fill:#FFB66E" />
<path d="M256.19,154.94A3,3 0 1 1 250.19,154.94A3,3 0 1 1 256.19,154.94Z" style="fill:#FFB66E" />
<path d="M265.68,155.96A3,3 0 1 1 259.68,155.96A3,3 0 1 1 265.68,155.96Z" style="fill:#FFB66E" />
<path d="M275.17,159.83A3,3 0 1 1 269.17,159.83A3,3 0 1 1 275.17,159.83Z" style="fill:#FFB66E" />
<path d="M284.66,168.82A3,3 0 1 1 278.66,168.82A3,3 0 1 1 284.66,168.82Z" style="fill:#FFB66E" />
<path d="M294.15,168.63A3,3 0 1 1 288.15,168.63A3,3 0 1 1 294.15,168.63Z" style="fill:#FFB66E" />
<path d="M303.64,176.76A3,3 0 1 1 297.64,176.76A3,3 0 1 1 303.64,176.76Z" style="fill:#FFB66E" />
<path d="M313.13,173.9A3,3 0 1 1 307.13,173.9A3,3 0 1 1 313.13,173.9Z" style="fill:#FFB66E" />
<path d="M322.61,177.19A3,3 0 1 1 316.61,177.19A3,3 0 1 1 322.61,177.19Z" style="fill:#FFB66E" />
<path d="M332.1,185.85A3,3 0 1 1 326.1,185.85A3,3 0 1 1 332.1,185.85Z" style="fill:#FFB66E" />
<path d="M341.59,192.48A3,3 0 1 1 335.59,192.48A3,3 0 1 1 341.59,192.48Z" style="fill:#FFB66E" />
<path d="M351.08,198.68A3,3 0 1 1 345.08,198.68A3,3 0 1 1 351.08,198.68Z" style="fill:#FFB66E" />
<path d="M360.57,196.49A3,3 0 1 1 354.57,196.49A3,3 0 1 1 360.57,196.49Z" style="fill:#FFB66E" />
<path d="M370.06,209.5A3,3 0 1 1 364.06,209.5A3,3 0 1 1 370.06,209.5Z" style="fill:#FFB66E" />
<path d="M379.55,210.86A3,3 0 1 1 373.55,210.86A3,3 0 1 1 379.55,210.86Z" style="fill:#FFB66E" />
<path d="M389.03,217.33A3,3 0 1 1 383.03,217.33A3,3 0 1 1 389.03,217.33Z" style="fill:#FFB66E" />
<path d="M398.52,225.49A3,3 0 1 1 392.52,225.49A3,3 0 1 1 398.52,225.49Z" style="fill:#FFB66E" />
<path d="M408.01,237.62A3,3 0 1 1 402.01,237.62A3,3 0 1 1 408.01,237.62Z" style="fill:#FFB66E" />
<path d="M417.5,244.94A3,3 0 1 1 411.5,244.94A3,3 0 1 1 417.5,244.94Z" style="fill:#FFB66E" />
<path d="M426.99,253.49A3,3 0 1 1 420.99,253.49A3,3 0 1 1 426.99,253.49Z" style="fill:#FFB66E" />
<path d="M436.48,265.64A3,3 0 1 1 430.48,265.64A3,3 0 1 1 436.48,265.64Z" style="fill:#FFB66E" />
<path d="M445.97,269.27A3,3 0 1 1 439.97,269.27A3,3 0 1 1 445.97,269.27Z" style="fill:#FFB66E" />
<path d="M455.45,283.12A3,3 0 1 1 449.45,283.12A3,3 0 1 1 455.45,283.12Z" style="fill:#FFB66E" />
<path d="M464.94,298.16A3,3 0 1 1 458.94,298.16A3,3 0 1 1 464.94,298.16Z" style="fill:#FFB66E" />
<path d="M474.43,326.67A3,3 0 1 1 468.43,326.67A3,3 0 1 1 474.43,326.67Z" style="fill:#FFB66E" />
<path d="M483.92,337.17A3,3 0 1 1 477.92,337.17A3,3 0 1 1 483.92,337.17Z" style="fill:#FFB66E" />
<path d="M493.41,356.06A3,3 0 1 1 487.41,356.06A3,3 0 1 1 493.41,356.06Z" style="fill:#FFB66E" />
<path d="M502.9,386.56A3,3 0 1 1 496.9,386.56A3,3 0 1 1 502.9,386.56Z" style="fill:#FFB66E" />
<path d="M512.39,421.75A3,3 0 1 1 506.39,421.75A3,3 0 1 1 512.39,421.75Z" style="fill:#FFB66E" />
<path d="M521.87,450.3A3,3 0 1 1 515.87,450.3A3,3 0 1 1 521.87,450.3Z" style="fill:#FFB66E" />
<path d="M531.36,489.31A3,3 0 1 1 525.36,489.31A3,3 0 1 1 531.36,489.31Z" style="fill:#FFB66E" />
<path d="M540.85,524.28A3,3 0 1 1 534.85,524.28A3,3 0 1 1 540.85,524.28Z" style="fill:#FFB66E" />
<path d="M550.34,574.56A3,3 0 1 1 544.34,574.56A3,3 0 1 1 550.34,574.56Z" style="fill:#FFB66E" />
<path d="M559.83,622.93A3,3 0 1 1 553.83,622.93A3,3 0 1 1 559.83,622.93Z" style="fill:#FFB66E" />
<path d="M569.32,668.3A3,3 0 1 1 563.32,668.3A3,3 0 1 1 569.32,668.3Z" style="fill:#FFB66E" />
<path d="M578.81,718.13A3,3 0 1 1 572.81,718.13A3,3 0 1 1 578.81,718.13Z" style="fill:#FFB66E" />
<path d="M588.29,761.63A3,3 0 1 1 582.29,761.63A3,3 0 1 1 588.29,761.63Z" style="fill:#FFB66E" />
<path d="M597.78,787.99A3,3 0 1 1 591.78,787.99A3,3 0 1 1 597.78,787.99Z" style="fill:#FFB66E" />
<path d="M607.27,815.53A3,3 0 1 1 601.27,815.53A3,3 0 1 1 607.27,815.53Z" style="fill:#FFB66E" />
<path d="M616.76,830.24A3,3 0 1 1 610.76,830.24A3,3 0 1 1 616.76,830.24Z" style="fill:#FFB66E" />
<path d="M626.25,818.07A3,3 0 1 1 620.25,818.07A3,3 0 1 1 626.25,818.07Z" style="fill:#FFB66E" />
<path d="M635.74,788.15A3,3 0 1 1 629.74,788.15A3,3 0 1 1 635.74,788.15Z" style="fill:#FFB66E" />
<path d="M645.22,767.28A3,3 0 1 1 639.22,767.28A3,3 0 1 1 645.22,767.28Z" style="fill:#FFB66E" />
<path d="M654.71,719.3A3,3 0 1 1 648.71,719.3A3,3 0 1 1 654.71,719.3Z" style="fill:#FFB66E" />
<path d="M664.2,679.52A3,3 0 1 1 658.2,679.52A3,3 0 1 1 664.2,679.52Z" style="fill:#FFB66E" />
<path d="M673.69,635.81A3,3 0 1 1 667.69,635.81A3,3 0 1 1 673.69,635.81Z" style="fill:#FFB66E" />
<path d="M683.18,577.24A3,3 0 1 1 677.18,577.24A3,3 0 1 1 683.18,577.24Z" style="fill:#FFB66E" />
<path d="M692.67,536.69A3,3 0 1 1 686.67,536.69A3,3 0 1 1 692.67,536.69Z" style="fill:#FFB66E" />
<path d="M702.16,503.88A3,3 0 1 1 696.16,503.88A3,3 0 1 1 702.16,503.88Z" style="fill:#FFB66E" />
<path d="M711.64,459.13A3,3 0 1 1 705.64,459.13A3,3 0 1 1 711.64,459.13Z" style="fill:#FFB66E" />
<path d="M721.13,432.03A3,3 0 1 1 715.13,432.03A3,3 0 1 1 721.13,432.03Z" style="fill:#FFB66E" />
<path d="M730.62,400.47A3,3 0 1 1 724.62,400.47A3,3 0 1 1 730.62,400.47Z" style="fill:#FFB66E" />
<path d="M740.11,365.91A3,3 0 1 1 734.11,365.91A3,3 0 1 1 740.11,365.91Z" style="fill:#FFB66E" />
<path d="M749.6,345.56A3,3 0 1 1 743.6,345.56A3,3 0 1 1 749.6,345.56Z" style="fill:#FFB66E" />
<path d="M759.09,331.53A3,3 0 1 1 753.09,331.53A3,3 0 1 1 759.09,331.53Z" style="fill:#FFB66E" />
<path d="M768.58,308.36A3,3 0 1 1 762.58,308.36A3,3 0 1 1 768.58,308.36Z" style="fill:#FFB66E" />
<path d="M778.06,290.05A3,3 0 1 1 772.06,290.05A3,3 0 1 1 778.06,290.05Z" style="fill:#FFB66E" />
<path d="M787.55,275.47A3,3 0 1 1 781.55,275.47A3,3 0 1 1 787.55,275.47Z" style="fill:#FFB66E" />
<path d="M797.04,260.67A3,3 0 1 1 791.04,260.67A3,3 0 1 1 797.04,260.67Z" style="fill:#FFB66E" />
<path d="M806.53,249.49A3,3 0 1 1 800.53,249.49A3,3 0 1 1 806.53,249.49Z" style="fill:#FFB66E" />
<path d="M816.02,235.44A3,3 0 1 1 810.02,235.44A3,3 0 1 1 816.02,235.44Z" style="fill:#FFB66E" />
<path d="M825.51,226.81A3,3 0 1 1 819.51,226.81A3,3 0 1 1 825.51,226.81Z" style="fill:#FFB66E" />
<path d="M835,224.44A3,3 0 1 1 829,224.44A3,3 0 1 1 835,224.44Z" style="fill:#FFB66E" />
<path d="M844.48,215.97A3,3 0 1 1 838.48,215.97A3,3 0 1 1 844.48,215.97Z" style="fill:#FFB66E" />
<path d="M853.97,209.46A3,3 0 1 1 847.97,209.46A3,3 0 1 1 853.97,209.46Z" style="fill:#FFB66E" />
<path d="M863.46,209.78A3,3 0 1 1 857.46,209.78A3,3 0 1 1 863.46,209.78Z" style="fill:#FFB66E" />
<path d="M872.95,196.65A3,3 0 1 1 866.95,196.65A3,3 0 1 1 872.95,196.65Z" style="fill:#FFB66E" />
<path d="M882.44,199.06A3,3 0 1 1 876.44,199.06A3,3 0 1 1 882.44,199.06Z" style="fill:#FFB66E" />
<path d="M891.93,189.75A3,3 0 1 1 885.93,189.75A3,3 0 1 1 891.93,189.75Z" style="fill:#FFB66E" />
<path d="M901.42,185.4A3,3 0 1 1 895.42,185.4A3,3 0 1 1 901.42,185.4Z" style="fill:#FFB66E" />
<path d="M910.9,177.82A3,3 0 1 1 904.9,177.82A3,3 0 1 1 910.9,177.82Z" style="fill:#FFB66E" />
<path d="M920.39,182.27A3,3 0 1 1 914.39,182.27A3,3 0 1 1 920.39,182.27Z" style="fill:#FFB66E" />
<path d="M929.88,177.53A3,3 0 1 1 923.88,177.53A3,3 0 1 1 929.88,177.53Z" style="fill:#FFB66E" />
<path d="M939.37,166.43A3,3 0 1 1 933.37,166.43A3,3 0 1 1 939.37,166.43Z" style="fill:#FFB66E" />
<path d="M948.86,169.33A3,3 0 1 1 942.86,169.33A3,3 0 1 1 948.86,169.33Z" style="fill:#FFB66E" />
<path d="M958.35,173.75A3,3 0 1 1 952.35,173.75A3,3 0 1 1 958.35,173.75Z" style="fill:#FFB66E" />
<path d="M967.84,167.25A3,3 0 1 1 961.84,167.25A3,3 0 1 1 967.84,167.25Z" style="fill:#FFB66E" />
<path d="M977.32,158.59A3,3 0 1 1 971.32,158.59A3,3 0 1 1 977.32,158.59Z" style="fill:#FFB66E" />
<path d="M986.81,155.26A3,3 0 1 1 980.81,155.26A3,3 0 1 1 986.81,155.26Z" style="fill:#FFB66E" />
<path d="M996.3,155.25A3,3 0 1 1 990.3,155.25A3,3 0 1 1 996.3,155.25Z" style="fill:#FFB66E" />
<path d="M1005.8,158.96A3,3 0 1 1 999.79,158.96A3,3 0 1 1 1005.8,158.96Z" style="fill:#FFB66E" />
<path d="M1015.3,153.66A3,3 0 1 1 1009.3,153.66A3,3 0 1 1 1015.3,153.66Z" style="fill:#FFB66E" />
<path d="M1024.8,156.35A3,3 0 1 1 1018.8,156.35A3,3 0 1 1 1024.8,156.35Z" style="fill:#FFB66E" />
<path d="M1034.3,143.52A3,3 0 1 1 1028.3,143.52A3,3 0 1 1 1034.3,143.52Z" style="fill:#FFB66E" />
<path d="M1043.7,147.61A3,3 0 1 1 1037.7,147.61A3,3 0 1 1 1043.7,147.61Z" style="fill:#FFB66E" />
<path d="M1053.2,150.6A3,3 0 1 1 1047.2,150.6A3,3 0 1 1 1053.2,150.6Z" style="fill:#FFB66E" />
<path d="M106.12,962.84L1055,962.84" style="fill:none;stroke:#000000" />
<path d="M1055,104.32L1055,962.84" style="fill:none;stroke:#000000" />
<path d="M110.87,163.2L112.76,163.33L114.66,163.46L116.56,163.6L118.46,163.74L120.35,163.88L122.25,164.02L124.15,164.16L126.05,164.3L127.94,164.45L129.84,164.59L131.74,164.74L133.64,164.89L135.54,165.04L137.43,165.2L139.33,165.35L141.23,165.51L143.13,165.67L145.02,165.83L146.92,165.99L148.82,166.16L150.72,166.32L152.62,166.49L154.51,166.66L156.41,166.83L158.31,167.01L160.21,167.19L162.1,167.36L164,167.55L165.9,167.73L167.8,167.91L169.69,168.1L171.59,168.29L173.49,168.48L175.39,168.68L177.29,168.88L179.18,169.08L181.08,169.28L182.98,169.48L184.88,169.69L186.77,169.9L188.67,170.11L190.57,170.33L192.47,170.55L194.36,170.77L196.26,170.99L198.16,171.22L200.06,171.45L201.96,171.68L203.85,171.91L205.75,172.15L207.65,172.4L209.55,172.64L211.44,172.89L213.34,173.14L215.24,173.4L217.14,173.65L219.04,173.92L220.93,174.18L222.83,174.45L224.73,174.73L226.63,175L228.52,175.28L230.42,175.57L232.32,175.86L234.22,176.15L236.11,176.45L238.01,176.75L239.91,177.05L241.81,177.36L243.71,177.68L245.6,178L247.5,178.32L249.4,178.65L251.3,178.98L253.19,179.32L255.09,179.66L256.99,180.01L258.89,180.36L260.78,180.72L262.68,181.09L264.58,181.46L266.48,181.83L268.38,182.21L270.27,182.6L272.17,182.99L274.07,183.39L275.97,183.8L277.86,184.21L279.76,184.63L281.66,185.05L283.56,185.48L285.45,185.92L287.35,186.37L289.25,186.82L291.15,187.28L293.05,187.74L294.94,188.22L296.84,188.7L298.74,189.19L300.64,189.69L302.53,190.2L304.43,190.71L306.33,191.24L308.23,191.77L310.13,192.32L312.02,192.87L313.92,193.43L315.82,194L317.72,194.58L319.61,195.17L321.51,195.77L323.41,196.38L325.31,197.01L327.2,197.64L329.1,198.29L331,198.94L332.9,199.61L334.8,200.29L336.69,200.99L338.59,201.7L340.49,202.41L342.39,203.15L344.28,203.89L346.18,204.66L348.08,205.43L349.98,206.22L351.87,207.03L353.77,207.85L355.67,208.68L357.57,209.54L359.47,210.41L361.36,211.29L363.26,212.2L365.16,213.12L367.06,214.06L368.95,215.02L370.85,216L372.75,217L374.65,218.02L376.55,219.06L378.44,220.12L380.34,221.2L382.24,222.31L384.14,223.44L386.03,224.6L387.93,225.78L389.83,226.98L391.73,228.21L393.62,229.47L395.52,230.75L397.42,232.06L399.32,233.4L401.22,234.77L403.11,236.18L405.01,237.61L406.91,239.07L408.81,240.57L410.7,242.11L412.6,243.67L414.5,245.28L416.4,246.92L418.29,248.6L420.19,250.32L422.09,252.08L423.99,253.88L425.89,255.72L427.78,257.61L429.68,259.55L431.58,261.53L433.48,263.56L435.37,265.64L437.27,267.77L439.17,269.95L441.07,272.19L442.97,274.49L444.86,276.84L446.76,279.25L448.66,281.72L450.56,284.26L452.45,286.86L454.35,289.53L456.25,292.27L458.15,295.08L460.04,297.96L461.94,300.92L463.84,303.96L465.74,307.08L467.64,310.28L469.53,313.57L471.43,316.94L473.33,320.41L475.23,323.97L477.12,327.62L479.02,331.38L480.92,335.24L482.82,339.2L484.71,343.27L486.61,347.46L488.51,351.76L490.41,356.18L492.31,360.72L494.2,365.38L496.1,370.17L498,375.1L499.9,380.16L501.79,385.36L503.69,390.7L505.59,396.19L507.49,401.84L509.39,407.63L511.28,413.58L513.18,419.69L515.08,425.97L516.98,432.41L518.87,439.02L520.77,445.8L522.67,452.76L524.57,459.9L526.46,467.22L528.36,474.72L530.26,482.4L532.16,490.27L534.06,498.32L535.95,506.55L537.85,514.97L539.75,523.57L541.65,532.35L543.54,541.3L545.44,550.43L547.34,559.72L549.24,569.18L551.13,578.78L553.03,588.53L554.93,598.42L556.83,608.42L558.73,618.53L560.62,628.74L562.52,639.01L564.42,649.35L566.32,659.72L568.21,670.1L570.11,680.47L572.01,690.8L573.91,701.06L575.81,711.22L577.7,721.26L579.6,731.12L581.5,740.79L583.4,750.21L585.29,759.36L587.19,768.2L589.09,776.68L590.99,784.77L592.88,792.42L594.78,799.6L596.68,806.27L598.58,812.39L600.48,817.93L602.37,822.86L604.27,827.15L606.17,830.77L608.07,833.7L609.96,835.92L611.86,837.42L613.76,838.19L615.66,838.22L617.55,837.52L619.45,836.08L621.35,833.92L623.25,831.05L625.15,827.49L627.04,823.26L628.94,818.39L630.84,812.9L632.74,806.83L634.63,800.21L636.53,793.07L638.43,785.46L640.33,777.41L642.22,768.96L644.12,760.15L646.02,751.03L647.92,741.62L649.82,731.98L651.71,722.13L653.61,712.11L655.51,701.96L657.41,691.7L659.3,681.38L661.2,671.01L663.1,660.63L665,650.26L666.9,639.92L668.79,629.64L670.69,619.42L672.59,609.3L674.49,599.29L676.38,589.4L678.28,579.64L680.18,570.02L682.08,560.55L683.97,551.24L685.87,542.1L687.77,533.13L689.67,524.33L691.57,515.72L693.46,507.28L695.36,499.03L697.26,490.97L699.16,483.08L701.05,475.39L702.95,467.87L704.85,460.54L706.75,453.38L708.64,446.41L710.54,439.61L712.44,432.98L714.34,426.52L716.24,420.24L718.13,414.11L720.03,408.15L721.93,402.34L723.83,396.68L725.72,391.18L727.62,385.82L729.52,380.61L731.42,375.54L733.32,370.6L735.21,365.8L737.11,361.12L739.01,356.57L740.91,352.14L742.8,347.83L744.7,343.64L746.6,339.56L748.5,335.58L750.39,331.71L752.29,327.95L754.19,324.28L756.09,320.72L757.99,317.24L759.88,313.86L761.78,310.56L763.68,307.36L765.58,304.23L767.47,301.19L769.37,298.22L771.27,295.33L773.17,292.51L775.06,289.77L776.96,287.09L778.86,284.49L780.76,281.94L782.66,279.47L784.55,277.05L786.45,274.69L788.35,272.39L790.25,270.15L792.14,267.96L794.04,265.82L795.94,263.74L797.84,261.71L799.74,259.72L801.63,257.78L803.53,255.89L805.43,254.04L807.33,252.23L809.22,250.47L811.12,248.75L813.02,247.07L814.92,245.42L816.81,243.81L818.71,242.24L820.61,240.71L822.51,239.2L824.41,237.74L826.3,236.3L828.2,234.9L830.1,233.52L832,232.18L833.89,230.86L835.79,229.58L837.69,228.32L839.59,227.09L841.48,225.88L843.38,224.7L845.28,223.54L847.18,222.41L849.08,221.3L850.97,220.22L852.87,219.15L854.77,218.11L856.67,217.09L858.56,216.09L860.46,215.11L862.36,214.14L864.26,213.2L866.16,212.28L868.05,211.37L869.95,210.48L871.85,209.61L873.75,208.76L875.64,207.92L877.54,207.1L879.44,206.29L881.34,205.5L883.23,204.72L885.13,203.96L887.03,203.21L888.93,202.48L890.83,201.76L892.72,201.05L894.62,200.36L896.52,199.67L898.42,199L900.31,198.34L902.21,197.7L904.11,197.06L906.01,196.44L907.9,195.83L909.8,195.22L911.7,194.63L913.6,194.05L915.5,193.48L917.39,192.92L919.29,192.36L921.19,191.82L923.09,191.29L924.98,190.76L926.88,190.24L928.78,189.74L930.68,189.24L932.58,188.75L934.47,188.26L936.37,187.79L938.27,187.32L940.17,186.86L942.06,186.4L943.96,185.96L945.86,185.52L947.76,185.09L949.65,184.66L951.55,184.24L953.45,183.83L955.35,183.43L957.25,183.03L959.14,182.63L961.04,182.25L962.94,181.86L964.84,181.49L966.73,181.12L968.63,180.75L970.53,180.4L972.43,180.04L974.32,179.69L976.22,179.35L978.12,179.01L980.02,178.68L981.92,178.35L983.81,178.02L985.71,177.71L987.61,177.39L989.51,177.08L991.4,176.77L993.3,176.47L995.2,176.18L997.1,175.88L999,175.59L1000.9,175.31L1002.8,175.03L1004.7,174.75L1006.6,174.48L1008.5,174.21L1010.4,173.94L1012.3,173.68L1014.2,173.42L1016.1,173.16L1018,172.91L1019.9,172.66L1021.8,172.42L1023.7,172.17L1025.6,171.94L1027.5,171.7L1029.4,171.47L1031.3,171.24L1033.2,171.01L1035.1,170.79L1036.9,170.56L1038.8,170.35L1040.7,170.13L1042.6,169.92L1044.5,169.71L1046.4,169.5L1048.3,169.3" style="fill:none;stroke:#C28C56;stroke-width:3" />
<path d="M532.51,491.75L697.07,491.75" style="fill:none;stroke:#C28C56;stroke-width:4;stroke-dasharray:15,5" />
<text x="191.12" y="-899.95" transform="scale(1, -1)"
	style="font-family:Helvetica;font-weight:normal;font-style:normal;font-size:36px">Pump</text>
<path d="M162.12,867.02A6,6 0 1 1 150.12,867.02A6,6 0 1 1 162.12,867.02Z" style="fill:#1BAA8B" />
<text x="191.12" y="-858.54" transform="scale(1, -1)"
	style="font-family:Helvetica;font-weight:normal;font-style:normal;font-size:36px">0 mW</text>
<path d="M162.12,825.61A6,6 0 1 1 150.12,825.61A6,6 0 1 1 162.12,825.61Z" style="fill:#C96892" />
<text x="191.12" y="-817.13" transform="scale(1, -1)"
	style="font-family:Helvetica;font-weight:normal;font-style:normal;font-size:36px">55 mW</text>
<path d="M162.12,784.2A6,6 0 1 1 150.12,784.2A6,6 0 1 1 162.12,784.2Z" style="fill:#637CC6" />
<text x="191.12" y="-775.72" transform="scale(1, -1)"
	style="font-family:Helvetica;font-weight:normal;font-style:normal;font-size:36px">110 mW</text>
<path d="M162.12,742.79A6,6 0 1 1 150.12,742.79A6,6 0 1 1 162.12,742.79Z" style="fill:#C28C56" />
<text x="191.12" y="-734.3" transform="scale(1, -1)"
	style="font-family:Helvetica;font-weight:normal;font-style:normal;font-size:36px">139 mW</text>
</g>
</svg>
