<?xml version="1.0"?>
<!-- Generated by SVGo and Plotinum VG -->
<svg width="1080pt" height="1080pt" viewBox="0 0 1080 1080"
	xmlns="http://www.w3.org/2000/svg"
	xmlns:xlink="http://www.w3.org/1999/xlink">
<g transform="scale(1, -1) translate(0, -1080)">
<path d="M0,0L1080,0L1080,1080L0,1080Z" style="fill:#-8000000000000000-8000000000000000-8000000000000000;fill-opacity:0" />
<text x="398.73" y="-1039.5" transform="scale(1, -1)"
	style="font-family:Helvetica;font-weight:normal;font-style:normal;font-size:50px"> TeO2 CABS</text>
<text x="487.31" y="-11.039" transform="scale(1, -1)"
	style="font-family:Helvetica;font-weight:normal;font-style:normal;font-size:36px">Frequency (GHz)</text>
<text x="207.29" y="-71.258" transform="scale(1, -1)"
	style="font-family:Helvetica;font-weight:normal;font-style:normal;font-size:36px">11.95</text>
<text x="387.64" y="-71.258" transform="scale(1, -1)"
	style="font-family:Helvetica;font-weight:normal;font-style:normal;font-size:36px">12.05</text>
<text x="569.32" y="-71.258" transform="scale(1, -1)"
	style="font-family:Helvetica;font-weight:normal;font-style:normal;font-size:36px">12.15</text>
<text x="751" y="-71.258" transform="scale(1, -1)"
	style="font-family:Helvetica;font-weight:normal;font-style:normal;font-size:36px">12.25</text>
<text x="932.67" y="-71.258" transform="scale(1, -1)"
	style="font-family:Helvetica;font-weight:normal;font-style:normal;font-size:36px">12.35</text>
<path d="M251,116.44L251,108.44" style="fill:none;stroke:#000000;stroke-width:1.5" />
<path d="M341.84,112.44L341.84,108.44" style="fill:none;stroke:#000000;stroke-width:1.5" />
<path d="M432.68,116.44L432.68,108.44" style="fill:none;stroke:#000000;stroke-width:1.5" />
<path d="M523.52,112.44L523.52,108.44" style="fill:none;stroke:#000000;stroke-width:1.5" />
<path d="M614.36,116.44L614.36,108.44" style="fill:none;stroke:#000000;stroke-width:1.5" />
<path d="M705.2,112.44L705.2,108.44" style="fill:none;stroke:#000000;stroke-width:1.5" />
<path d="M796.04,116.44L796.04,108.44" style="fill:none;stroke:#000000;stroke-width:1.5" />
<path d="M886.88,112.44L886.88,108.44" style="fill:none;stroke:#000000;stroke-width:1.5" />
<path d="M977.72,116.44L977.72,108.44" style="fill:none;stroke:#000000;stroke-width:1.5" />
<path d="M175.69,108.44L1075,108.44" style="fill:none;stroke:#000000;stroke-width:1.5" />
<g transform="rotate(90)">
<text x="371.67" y="29.18" transform="scale(1, -1)"
	style="font-family:Helvetica;font-weight:normal;font-style:normal;font-size:36px">Spectral Density (nV)</text>
</g>
<text x="87.869" y="-234.56" transform="scale(1, -1)"
	style="font-family:Helvetica;font-weight:normal;font-style:normal;font-size:36px">9.89</text>
<text x="67.848" y="-443.28" transform="scale(1, -1)"
	style="font-family:Helvetica;font-weight:normal;font-style:normal;font-size:36px">12.96</text>
<text x="67.848" y="-652" transform="scale(1, -1)"
	style="font-family:Helvetica;font-weight:normal;font-style:normal;font-size:36px">16.04</text>
<text x="67.848" y="-860.71" transform="scale(1, -1)"
	style="font-family:Helvetica;font-weight:normal;font-style:normal;font-size:36px">19.12</text>
<path d="M179.94,139.27L175.94,139.27" style="fill:none;stroke:#000000;stroke-width:1.5" />
<path d="M183.94,243.63L175.94,243.63" style="fill:none;stroke:#000000;stroke-width:1.5" />
<path d="M179.94,347.99L175.94,347.99" style="fill:none;stroke:#000000;stroke-width:1.5" />
<path d="M183.94,452.35L175.94,452.35" style="fill:none;stroke:#000000;stroke-width:1.5" />
<path d="M179.94,556.71L175.94,556.71" style="fill:none;stroke:#000000;stroke-width:1.5" />
<path d="M183.94,661.07L175.94,661.07" style="fill:none;stroke:#000000;stroke-width:1.5" />
<path d="M179.94,765.42L175.94,765.42" style="fill:none;stroke:#000000;stroke-width:1.5" />
<path d="M183.94,869.78L175.94,869.78" style="fill:none;stroke:#000000;stroke-width:1.5" />
<path d="M179.94,974.14L175.94,974.14" style="fill:none;stroke:#000000;stroke-width:1.5" />
<path d="M179.94,974.14L175.94,974.14" style="fill:none;stroke:#000000;stroke-width:1.5" />
<path d="M175.94,109.32L175.94,974.14" style="fill:none;stroke:#000000;stroke-width:1.5" />
<path d="M175.69,532.75L175.69,742.84" style="fill:none;stroke:#1FD3AC" />
<path d="M173.19,532.75L178.19,532.75" style="fill:none;stroke:#1FD3AC" />
<path d="M173.19,742.84L178.19,742.84" style="fill:none;stroke:#1FD3AC" />
<path d="M202.94,381.97L202.94,578.03" style="fill:none;stroke:#1FD3AC" />
<path d="M200.44,381.97L205.44,381.97" style="fill:none;stroke:#1FD3AC" />
<path d="M200.44,578.03L205.44,578.03" style="fill:none;stroke:#1FD3AC" />
<path d="M230.19,327.48L230.19,576.42" style="fill:none;stroke:#1FD3AC" />
<path d="M227.69,327.48L232.69,327.48" style="fill:none;stroke:#1FD3AC" />
<path d="M227.69,576.42L232.69,576.42" style="fill:none;stroke:#1FD3AC" />
<path d="M257.44,405.87L257.44,585.83" style="fill:none;stroke:#1FD3AC" />
<path d="M254.94,405.87L259.94,405.87" style="fill:none;stroke:#1FD3AC" />
<path d="M254.94,585.83L259.94,585.83" style="fill:none;stroke:#1FD3AC" />
<path d="M284.7,457.59L284.7,613.22" style="fill:none;stroke:#1FD3AC" />
<path d="M282.2,457.59L287.2,457.59" style="fill:none;stroke:#1FD3AC" />
<path d="M282.2,613.22L287.2,613.22" style="fill:none;stroke:#1FD3AC" />
<path d="M311.95,366.12L311.95,571.9" style="fill:none;stroke:#1FD3AC" />
<path d="M309.45,366.12L314.45,366.12" style="fill:none;stroke:#1FD3AC" />
<path d="M309.45,571.9L314.45,571.9" style="fill:none;stroke:#1FD3AC" />
<path d="M339.2,471.03L339.2,601.18" style="fill:none;stroke:#1FD3AC" />
<path d="M336.7,471.03L341.7,471.03" style="fill:none;stroke:#1FD3AC" />
<path d="M336.7,601.18L341.7,601.18" style="fill:none;stroke:#1FD3AC" />
<path d="M366.45,380L366.45,617.87" style="fill:none;stroke:#1FD3AC" />
<path d="M363.95,380L368.95,380" style="fill:none;stroke:#1FD3AC" />
<path d="M363.95,617.87L368.95,617.87" style="fill:none;stroke:#1FD3AC" />
<path d="M393.7,392.26L393.7,600.83" style="fill:none;stroke:#1FD3AC" />
<path d="M391.2,392.26L396.2,392.26" style="fill:none;stroke:#1FD3AC" />
<path d="M391.2,600.83L396.2,600.83" style="fill:none;stroke:#1FD3AC" />
<path d="M420.95,406.56L420.95,639.59" style="fill:none;stroke:#1FD3AC" />
<path d="M418.45,406.56L423.45,406.56" style="fill:none;stroke:#1FD3AC" />
<path d="M418.45,639.59L423.45,639.59" style="fill:none;stroke:#1FD3AC" />
<path d="M448.21,412.18L448.21,573.14" style="fill:none;stroke:#1FD3AC" />
<path d="M445.71,412.18L450.71,412.18" style="fill:none;stroke:#1FD3AC" />
<path d="M445.71,573.14L450.71,573.14" style="fill:none;stroke:#1FD3AC" />
<path d="M475.46,386.4L475.46,587.79" style="fill:none;stroke:#1FD3AC" />
<path d="M472.96,386.4L477.96,386.4" style="fill:none;stroke:#1FD3AC" />
<path d="M472.96,587.79L477.96,587.79" style="fill:none;stroke:#1FD3AC" />
<path d="M502.71,431.99L502.71,669.93" style="fill:none;stroke:#1FD3AC" />
<path d="M500.21,431.99L505.21,431.99" style="fill:none;stroke:#1FD3AC" />
<path d="M500.21,669.93L505.21,669.93" style="fill:none;stroke:#1FD3AC" />
<path d="M529.96,480.38L529.96,656.87" style="fill:none;stroke:#1FD3AC" />
<path d="M527.46,480.38L532.46,480.38" style="fill:none;stroke:#1FD3AC" />
<path d="M527.46,656.87L532.46,656.87" style="fill:none;stroke:#1FD3AC" />
<path d="M557.21,349.13L557.21,581.76" style="fill:none;stroke:#1FD3AC" />
<path d="M554.71,349.13L559.71,349.13" style="fill:none;stroke:#1FD3AC" />
<path d="M554.71,581.76L559.71,581.76" style="fill:none;stroke:#1FD3AC" />
<path d="M584.47,430.26L584.47,663.09" style="fill:none;stroke:#1FD3AC" />
<path d="M581.97,430.26L586.97,430.26" style="fill:none;stroke:#1FD3AC" />
<path d="M581.97,663.09L586.97,663.09" style="fill:none;stroke:#1FD3AC" />
<path d="M611.72,628.71L611.72,784.44" style="fill:none;stroke:#1FD3AC" />
<path d="M609.22,628.71L614.22,628.71" style="fill:none;stroke:#1FD3AC" />
<path d="M609.22,784.44L614.22,784.44" style="fill:none;stroke:#1FD3AC" />
<path d="M638.97,415.54L638.97,656.06" style="fill:none;stroke:#1FD3AC" />
<path d="M636.47,415.54L641.47,415.54" style="fill:none;stroke:#1FD3AC" />
<path d="M636.47,656.06L641.47,656.06" style="fill:none;stroke:#1FD3AC" />
<path d="M666.22,391.75L666.22,605.48" style="fill:none;stroke:#1FD3AC" />
<path d="M663.72,391.75L668.72,391.75" style="fill:none;stroke:#1FD3AC" />
<path d="M663.72,605.48L668.72,605.48" style="fill:none;stroke:#1FD3AC" />
<path d="M693.47,352.89L693.47,596.39" style="fill:none;stroke:#1FD3AC" />
<path d="M690.97,352.89L695.97,352.89" style="fill:none;stroke:#1FD3AC" />
<path d="M690.97,596.39L695.97,596.39" style="fill:none;stroke:#1FD3AC" />
<path d="M720.73,432.73L720.73,735.6" style="fill:none;stroke:#1FD3AC" />
<path d="M718.23,432.73L723.23,432.73" style="fill:none;stroke:#1FD3AC" />
<path d="M718.23,735.6L723.23,735.6" style="fill:none;stroke:#1FD3AC" />
<path d="M747.98,382.27L747.98,619.49" style="fill:none;stroke:#1FD3AC" />
<path d="M745.48,382.27L750.48,382.27" style="fill:none;stroke:#1FD3AC" />
<path d="M745.48,619.49L750.48,619.49" style="fill:none;stroke:#1FD3AC" />
<path d="M775.23,505.34L775.23,698.13" style="fill:none;stroke:#1FD3AC" />
<path d="M772.73,505.34L777.73,505.34" style="fill:none;stroke:#1FD3AC" />
<path d="M772.73,698.13L777.73,698.13" style="fill:none;stroke:#1FD3AC" />
<path d="M802.48,285.63L802.48,439.36" style="fill:none;stroke:#1FD3AC" />
<path d="M799.98,285.63L804.98,285.63" style="fill:none;stroke:#1FD3AC" />
<path d="M799.98,439.36L804.98,439.36" style="fill:none;stroke:#1FD3AC" />
<path d="M829.73,202.33L829.73,443.93" style="fill:none;stroke:#1FD3AC" />
<path d="M827.23,202.33L832.23,202.33" style="fill:none;stroke:#1FD3AC" />
<path d="M827.23,443.93L832.23,443.93" style="fill:none;stroke:#1FD3AC" />
<path d="M856.98,304.56L856.98,520.9" style="fill:none;stroke:#1FD3AC" />
<path d="M854.48,304.56L859.48,304.56" style="fill:none;stroke:#1FD3AC" />
<path d="M854.48,520.9L859.48,520.9" style="fill:none;stroke:#1FD3AC" />
<path d="M884.24,469.97L884.24,688.06" style="fill:none;stroke:#1FD3AC" />
<path d="M881.74,469.97L886.74,469.97" style="fill:none;stroke:#1FD3AC" />
<path d="M881.74,688.06L886.74,688.06" style="fill:none;stroke:#1FD3AC" />
<path d="M911.49,308.97L911.49,497.59" style="fill:none;stroke:#1FD3AC" />
<path d="M908.99,308.97L913.99,308.97" style="fill:none;stroke:#1FD3AC" />
<path d="M908.99,497.59L913.99,497.59" style="fill:none;stroke:#1FD3AC" />
<path d="M938.74,109.32L938.74,330.34" style="fill:none;stroke:#1FD3AC" />
<path d="M936.24,109.32L941.24,109.32" style="fill:none;stroke:#1FD3AC" />
<path d="M936.24,330.34L941.24,330.34" style="fill:none;stroke:#1FD3AC" />
<path d="M965.99,547.67L965.99,705.73" style="fill:none;stroke:#1FD3AC" />
<path d="M963.49,547.67L968.49,547.67" style="fill:none;stroke:#1FD3AC" />
<path d="M963.49,705.73L968.49,705.73" style="fill:none;stroke:#1FD3AC" />
<path d="M993.24,409.47L993.24,562.05" style="fill:none;stroke:#1FD3AC" />
<path d="M990.74,409.47L995.74,409.47" style="fill:none;stroke:#1FD3AC" />
<path d="M990.74,562.05L995.74,562.05" style="fill:none;stroke:#1FD3AC" />
<path d="M1020.5,480.37L1020.5,727.19" style="fill:none;stroke:#1FD3AC" />
<path d="M1018,480.37L1023,480.37" style="fill:none;stroke:#1FD3AC" />
<path d="M1018,727.19L1023,727.19" style="fill:none;stroke:#1FD3AC" />
<path d="M1047.7,524.73L1047.7,712.3" style="fill:none;stroke:#1FD3AC" />
<path d="M1045.2,524.73L1050.2,524.73" style="fill:none;stroke:#1FD3AC" />
<path d="M1045.2,712.3L1050.2,712.3" style="fill:none;stroke:#1FD3AC" />
<path d="M1075,488.32L1075,879.07" style="fill:none;stroke:#1FD3AC" />
<path d="M1072.5,488.32L1077.5,488.32" style="fill:none;stroke:#1FD3AC" />
<path d="M1072.5,879.07L1077.5,879.07" style="fill:none;stroke:#1FD3AC" />
<path d="M180.69,637.79A5,5 0 1 1 170.69,637.79A5,5 0 1 1 180.69,637.79Z" style="fill:#1FD3AC" />
<path d="M207.94,480A5,5 0 1 1 197.94,480A5,5 0 1 1 207.94,480Z" style="fill:#1FD3AC" />
<path d="M235.19,451.95A5,5 0 1 1 225.19,451.95A5,5 0 1 1 235.19,451.95Z" style="fill:#1FD3AC" />
<path d="M262.44,495.85A5,5 0 1 1 252.44,495.85A5,5 0 1 1 262.44,495.85Z" style="fill:#1FD3AC" />
<path d="M289.7,535.41A5,5 0 1 1 279.7,535.41A5,5 0 1 1 289.7,535.41Z" style="fill:#1FD3AC" />
<path d="M316.95,469.01A5,5 0 1 1 306.95,469.01A5,5 0 1 1 316.95,469.01Z" style="fill:#1FD3AC" />
<path d="M344.2,536.11A5,5 0 1 1 334.2,536.11A5,5 0 1 1 344.2,536.11Z" style="fill:#1FD3AC" />
<path d="M371.45,498.93A5,5 0 1 1 361.45,498.93A5,5 0 1 1 371.45,498.93Z" style="fill:#1FD3AC" />
<path d="M398.7,496.54A5,5 0 1 1 388.7,496.54A5,5 0 1 1 398.7,496.54Z" style="fill:#1FD3AC" />
<path d="M425.95,523.08A5,5 0 1 1 415.95,523.08A5,5 0 1 1 425.95,523.08Z" style="fill:#1FD3AC" />
<path d="M453.21,492.66A5,5 0 1 1 443.21,492.66A5,5 0 1 1 453.21,492.66Z" style="fill:#1FD3AC" />
<path d="M480.46,487.09A5,5 0 1 1 470.46,487.09A5,5 0 1 1 480.46,487.09Z" style="fill:#1FD3AC" />
<path d="M507.71,550.96A5,5 0 1 1 497.71,550.96A5,5 0 1 1 507.71,550.96Z" style="fill:#1FD3AC" />
<path d="M534.96,568.63A5,5 0 1 1 524.96,568.63A5,5 0 1 1 534.96,568.63Z" style="fill:#1FD3AC" />
<path d="M562.21,465.44A5,5 0 1 1 552.21,465.44A5,5 0 1 1 562.21,465.44Z" style="fill:#1FD3AC" />
<path d="M589.47,546.68A5,5 0 1 1 579.47,546.68A5,5 0 1 1 589.47,546.68Z" style="fill:#1FD3AC" />
<path d="M616.72,706.57A5,5 0 1 1 606.72,706.57A5,5 0 1 1 616.72,706.57Z" style="fill:#1FD3AC" />
<path d="M643.97,535.8A5,5 0 1 1 633.97,535.8A5,5 0 1 1 643.97,535.8Z" style="fill:#1FD3AC" />
<path d="M671.22,498.62A5,5 0 1 1 661.22,498.62A5,5 0 1 1 671.22,498.62Z" style="fill:#1FD3AC" />
<path d="M698.47,474.64A5,5 0 1 1 688.47,474.64A5,5 0 1 1 698.47,474.64Z" style="fill:#1FD3AC" />
<path d="M725.73,584.16A5,5 0 1 1 715.73,584.16A5,5 0 1 1 725.73,584.16Z" style="fill:#1FD3AC" />
<path d="M752.98,500.88A5,5 0 1 1 742.98,500.88A5,5 0 1 1 752.98,500.88Z" style="fill:#1FD3AC" />
<path d="M780.23,601.74A5,5 0 1 1 770.23,601.74A5,5 0 1 1 780.23,601.74Z" style="fill:#1FD3AC" />
<path d="M807.48,362.49A5,5 0 1 1 797.48,362.49A5,5 0 1 1 807.48,362.49Z" style="fill:#1FD3AC" />
<path d="M834.73,323.13A5,5 0 1 1 824.73,323.13A5,5 0 1 1 834.73,323.13Z" style="fill:#1FD3AC" />
<path d="M861.98,412.73A5,5 0 1 1 851.98,412.73A5,5 0 1 1 861.98,412.73Z" style="fill:#1FD3AC" />
<path d="M889.24,579.01A5,5 0 1 1 879.24,579.01A5,5 0 1 1 889.24,579.01Z" style="fill:#1FD3AC" />
<path d="M916.49,403.28A5,5 0 1 1 906.49,403.28A5,5 0 1 1 916.49,403.28Z" style="fill:#1FD3AC" />
<path d="M943.74,219.83A5,5 0 1 1 933.74,219.83A5,5 0 1 1 943.74,219.83Z" style="fill:#1FD3AC" />
<path d="M970.99,626.7A5,5 0 1 1 960.99,626.7A5,5 0 1 1 970.99,626.7Z" style="fill:#1FD3AC" />
<path d="M998.24,485.76A5,5 0 1 1 988.24,485.76A5,5 0 1 1 998.24,485.76Z" style="fill:#1FD3AC" />
<path d="M1025.5,603.78A5,5 0 1 1 1015.5,603.78A5,5 0 1 1 1025.5,603.78Z" style="fill:#1FD3AC" />
<path d="M1052.7,618.52A5,5 0 1 1 1042.7,618.52A5,5 0 1 1 1052.7,618.52Z" style="fill:#1FD3AC" />
<path d="M1080,683.7A5,5 0 1 1 1070,683.7A5,5 0 1 1 1080,683.7Z" style="fill:#1FD3AC" />
<path d="M175.69,974.14L1075,974.14" style="fill:none;stroke:#000000" />
<path d="M1075,139.27L1075,974.14" style="fill:none;stroke:#000000" />
<path d="M1038,942.02A8,8 0 1 1 1022,942.02A8,8 0 1 1 1038,942.02Z" style="fill:#1FD3AC" />
<text x="819.57" y="-933.54" transform="scale(1, -1)"
	style="font-family:Helvetica;font-weight:normal;font-style:normal;font-size:36px">1 um TeO2</text>
</g>
</svg>
