<?xml version="1.0"?>
<!-- Generated by SVGo and Plotinum VG -->
<svg width="1080pt" height="1080pt" viewBox="0 0 1080 1080"
	xmlns="http://www.w3.org/2000/svg"
	xmlns:xlink="http://www.w3.org/1999/xlink">
<g transform="scale(1, -1) translate(0, -1080)">
<path d="M0,0L1080,0L1080,1080L0,1080Z" style="fill:#-8000000000000000-8000000000000000-8000000000000000;fill-opacity:0" />
<text x="123.2" y="-1039.5" transform="scale(1, -1)"
	style="font-family:Helvetica;font-weight:normal;font-style:normal;font-size:50px">Stokes Pump Power vs Widths of Fits</text>
<text x="449.05" y="-11.039" transform="scale(1, -1)"
	style="font-family:Helvetica;font-weight:normal;font-style:normal;font-size:36px">Pump Power (mW)</text>
<text x="142.15" y="-71.258" transform="scale(1, -1)"
	style="font-family:Helvetica;font-weight:normal;font-style:normal;font-size:36px">0</text>
<text x="281.78" y="-71.258" transform="scale(1, -1)"
	style="font-family:Helvetica;font-weight:normal;font-style:normal;font-size:36px">50</text>
<text x="421.4" y="-71.258" transform="scale(1, -1)"
	style="font-family:Helvetica;font-weight:normal;font-style:normal;font-size:36px">100</text>
<text x="571.03" y="-71.258" transform="scale(1, -1)"
	style="font-family:Helvetica;font-weight:normal;font-style:normal;font-size:36px">150</text>
<text x="720.67" y="-71.258" transform="scale(1, -1)"
	style="font-family:Helvetica;font-weight:normal;font-style:normal;font-size:36px">200</text>
<text x="870.3" y="-71.258" transform="scale(1, -1)"
	style="font-family:Helvetica;font-weight:normal;font-style:normal;font-size:36px">250</text>
<text x="1019.9" y="-71.258" transform="scale(1, -1)"
	style="font-family:Helvetica;font-weight:normal;font-style:normal;font-size:36px">300</text>
<path d="M152.16,116.44L152.16,108.44" style="fill:none;stroke:#000000;stroke-width:1.5" />
<path d="M226.98,112.44L226.98,108.44" style="fill:none;stroke:#000000;stroke-width:1.5" />
<path d="M301.8,116.44L301.8,108.44" style="fill:none;stroke:#000000;stroke-width:1.5" />
<path d="M376.61,112.44L376.61,108.44" style="fill:none;stroke:#000000;stroke-width:1.5" />
<path d="M451.43,116.44L451.43,108.44" style="fill:none;stroke:#000000;stroke-width:1.5" />
<path d="M526.25,112.44L526.25,108.44" style="fill:none;stroke:#000000;stroke-width:1.5" />
<path d="M601.07,116.44L601.07,108.44" style="fill:none;stroke:#000000;stroke-width:1.5" />
<path d="M675.88,112.44L675.88,108.44" style="fill:none;stroke:#000000;stroke-width:1.5" />
<path d="M750.7,116.44L750.7,108.44" style="fill:none;stroke:#000000;stroke-width:1.5" />
<path d="M825.52,112.44L825.52,108.44" style="fill:none;stroke:#000000;stroke-width:1.5" />
<path d="M900.33,116.44L900.33,108.44" style="fill:none;stroke:#000000;stroke-width:1.5" />
<path d="M975.15,112.44L975.15,108.44" style="fill:none;stroke:#000000;stroke-width:1.5" />
<path d="M1050,116.44L1050,108.44" style="fill:none;stroke:#000000;stroke-width:1.5" />
<path d="M152.16,108.44L1050,108.44" style="fill:none;stroke:#000000;stroke-width:1.5" />
<g transform="rotate(90)">
<text x="326.21" y="29.18" transform="scale(1, -1)"
	style="font-family:Helvetica;font-weight:normal;font-style:normal;font-size:36px">Full Width Half Max (MHz)</text>
</g>
<text x="87.869" y="-220.05" transform="scale(1, -1)"
	style="font-family:Helvetica;font-weight:normal;font-style:normal;font-size:36px">80</text>
<text x="87.869" y="-469.66" transform="scale(1, -1)"
	style="font-family:Helvetica;font-weight:normal;font-style:normal;font-size:36px">90</text>
<text x="67.848" y="-719.27" transform="scale(1, -1)"
	style="font-family:Helvetica;font-weight:normal;font-style:normal;font-size:36px">100</text>
<path d="M149.91,104.32L145.91,104.32" style="fill:none;stroke:#000000;stroke-width:1.5" />
<path d="M153.91,229.12L145.91,229.12" style="fill:none;stroke:#000000;stroke-width:1.5" />
<path d="M149.91,353.93L145.91,353.93" style="fill:none;stroke:#000000;stroke-width:1.5" />
<path d="M153.91,478.73L145.91,478.73" style="fill:none;stroke:#000000;stroke-width:1.5" />
<path d="M149.91,603.54L145.91,603.54" style="fill:none;stroke:#000000;stroke-width:1.5" />
<path d="M153.91,728.34L145.91,728.34" style="fill:none;stroke:#000000;stroke-width:1.5" />
<path d="M145.91,104.32L145.91,968.14" style="fill:none;stroke:#000000;stroke-width:1.5" />
<path d="M158.16,714.84A6,6 0 1 1 146.16,714.84A6,6 0 1 1 158.16,714.84Z" style="fill:#1BAA8B" />
<path d="M152.16,728.34L1050,728.34" style="fill:none;stroke:#000000" />
<path d="M1050,104.32L1050,728.34" style="fill:none;stroke:#000000" />
<path d="M152.16,104.32L152.16,714.84" style="fill:none;stroke:#1BAA8B;stroke-width:4;stroke-dasharray:15,5" />
<path d="M152.16,714.84L152.16,714.84" style="fill:none;stroke:#7F7F7F;stroke-dasharray:5,5" />
<path d="M322.76,968.14A6,6 0 1 1 310.76,968.14A6,6 0 1 1 322.76,968.14Z" style="fill:#C96892" />
<path d="M152.16,728.34L1050,728.34" style="fill:none;stroke:#000000" />
<path d="M1050,104.32L1050,728.34" style="fill:none;stroke:#000000" />
<path d="M316.76,104.32L316.76,968.14" style="fill:none;stroke:#C96892;stroke-width:4;stroke-dasharray:15,5" />
<path d="M152.16,968.14L316.76,968.14" style="fill:none;stroke:#7F7F7F;stroke-dasharray:5,5" />
<path d="M487.36,844.83A6,6 0 1 1 475.36,844.83A6,6 0 1 1 487.36,844.83Z" style="fill:#637CC6" />
<path d="M152.16,728.34L1050,728.34" style="fill:none;stroke:#000000" />
<path d="M1050,104.32L1050,728.34" style="fill:none;stroke:#000000" />
<path d="M481.36,104.32L481.36,844.83" style="fill:none;stroke:#637CC6;stroke-width:4;stroke-dasharray:15,5" />
<path d="M152.16,844.83L481.36,844.83" style="fill:none;stroke:#7F7F7F;stroke-dasharray:5,5" />
<text x="901.01" y="-883.54" transform="scale(1, -1)"
	style="font-family:Helvetica;font-weight:normal;font-style:normal;font-size:36px">0 mW</text>
<text x="880.99" y="-842.13" transform="scale(1, -1)"
	style="font-family:Helvetica;font-weight:normal;font-style:normal;font-size:36px">55 mW</text>
<text x="863.64" y="-800.72" transform="scale(1, -1)"
	style="font-family:Helvetica;font-weight:normal;font-style:normal;font-size:36px">110 mW</text>
</g>
</svg>
