<?xml version="1.0"?>
<!-- Generated by SVGo and Plotinum VG -->
<svg width="1080pt" height="1080pt" viewBox="0 0 1080 1080"
	xmlns="http://www.w3.org/2000/svg"
	xmlns:xlink="http://www.w3.org/1999/xlink">
<g transform="scale(1, -1) translate(0, -1080)">
<path d="M0,0L1080,0L1080,1080L0,1080Z" style="fill:#-8000000000000000-8000000000000000-8000000000000000;fill-opacity:0" />
<text x="248.73" y="-1015.2" transform="scale(1, -1)"
	style="font-family:Helvetica;font-weight:normal;font-style:normal;font-size:80px"> Sapphire CABS</text>
<text x="413.87" y="-17.172" transform="scale(1, -1)"
	style="font-family:Helvetica;font-weight:normal;font-style:normal;font-size:56px">Frequency (GHz)</text>
<text x="177.18" y="-119.73" transform="scale(1, -1)"
	style="font-family:Helvetica;font-weight:normal;font-style:normal;font-size:56px">.100</text>
<text x="574.09" y="-119.73" transform="scale(1, -1)"
	style="font-family:Helvetica;font-weight:normal;font-style:normal;font-size:56px">.120</text>
<text x="971.01" y="-119.73" transform="scale(1, -1)"
	style="font-family:Helvetica;font-weight:normal;font-style:normal;font-size:56px">.140</text>
<path d="M231.67,181.12L231.67,173.12" style="fill:none;stroke:#000000;stroke-width:1.5" />
<path d="M430.13,177.12L430.13,173.12" style="fill:none;stroke:#000000;stroke-width:1.5" />
<path d="M628.59,181.12L628.59,173.12" style="fill:none;stroke:#000000;stroke-width:1.5" />
<path d="M827.05,177.12L827.05,173.12" style="fill:none;stroke:#000000;stroke-width:1.5" />
<path d="M1025.5,181.12L1025.5,173.12" style="fill:none;stroke:#000000;stroke-width:1.5" />
<path d="M231.67,173.12L1025.5,173.12" style="fill:none;stroke:#000000;stroke-width:1.5" />
<g transform="rotate(90)">
<text x="271.11" y="45.391" transform="scale(1, -1)"
	style="font-family:Helvetica;font-weight:normal;font-style:normal;font-size:56px">Spectral Density (pV)</text>
</g>
<text x="145.57" y="-294.37" transform="scale(1, -1)"
	style="font-family:Helvetica;font-weight:normal;font-style:normal;font-size:56px">20</text>
<text x="145.57" y="-489.22" transform="scale(1, -1)"
	style="font-family:Helvetica;font-weight:normal;font-style:normal;font-size:56px">60</text>
<text x="114.43" y="-684.08" transform="scale(1, -1)"
	style="font-family:Helvetica;font-weight:normal;font-style:normal;font-size:56px">100</text>
<text x="114.43" y="-878.93" transform="scale(1, -1)"
	style="font-family:Helvetica;font-weight:normal;font-style:normal;font-size:56px">140</text>
<path d="M235.42,211.05L231.42,211.05" style="fill:none;stroke:#000000;stroke-width:1.5" />
<path d="M239.42,308.48L231.42,308.48" style="fill:none;stroke:#000000;stroke-width:1.5" />
<path d="M235.42,405.9L231.42,405.9" style="fill:none;stroke:#000000;stroke-width:1.5" />
<path d="M239.42,503.33L231.42,503.33" style="fill:none;stroke:#000000;stroke-width:1.5" />
<path d="M235.42,600.76L231.42,600.76" style="fill:none;stroke:#000000;stroke-width:1.5" />
<path d="M239.42,698.19L231.42,698.19" style="fill:none;stroke:#000000;stroke-width:1.5" />
<path d="M235.42,795.62L231.42,795.62" style="fill:none;stroke:#000000;stroke-width:1.5" />
<path d="M239.42,893.04L231.42,893.04" style="fill:none;stroke:#000000;stroke-width:1.5" />
<path d="M231.42,178.24L231.42,893.04" style="fill:none;stroke:#000000;stroke-width:1.5" />
<path d="M247,198.09A5,5 0 1 1 237,198.09A5,5 0 1 1 247,198.09Z" style="fill:#FF7AB4" />
<path d="M266.85,191.99A5,5 0 1 1 256.85,191.99A5,5 0 1 1 266.85,191.99Z" style="fill:#FF7AB4" />
<path d="M286.69,182.13A5,5 0 1 1 276.69,182.13A5,5 0 1 1 286.69,182.13Z" style="fill:#FF7AB4" />
<path d="M306.54,187.46A5,5 0 1 1 296.54,187.46A5,5 0 1 1 306.54,187.46Z" style="fill:#FF7AB4" />
<path d="M326.38,178.24A5,5 0 1 1 316.38,178.24A5,5 0 1 1 326.38,178.24Z" style="fill:#FF7AB4" />
<path d="M346.23,179.64A5,5 0 1 1 336.23,179.64A5,5 0 1 1 346.23,179.64Z" style="fill:#FF7AB4" />
<path d="M366.08,187.39A5,5 0 1 1 356.08,187.39A5,5 0 1 1 366.08,187.39Z" style="fill:#FF7AB4" />
<path d="M385.92,191.57A5,5 0 1 1 375.92,191.57A5,5 0 1 1 385.92,191.57Z" style="fill:#FF7AB4" />
<path d="M405.77,195.05A5,5 0 1 1 395.77,195.05A5,5 0 1 1 405.77,195.05Z" style="fill:#FF7AB4" />
<path d="M425.61,198.97A5,5 0 1 1 415.61,198.97A5,5 0 1 1 425.61,198.97Z" style="fill:#FF7AB4" />
<path d="M445.46,187.75A5,5 0 1 1 435.46,187.75A5,5 0 1 1 445.46,187.75Z" style="fill:#FF7AB4" />
<path d="M465.3,194.61A5,5 0 1 1 455.3,194.61A5,5 0 1 1 465.3,194.61Z" style="fill:#FF7AB4" />
<path d="M485.15,183.8A5,5 0 1 1 475.15,183.8A5,5 0 1 1 485.15,183.8Z" style="fill:#FF7AB4" />
<path d="M505,186.44A5,5 0 1 1 495,186.44A5,5 0 1 1 505,186.44Z" style="fill:#FF7AB4" />
<path d="M524.84,186.38A5,5 0 1 1 514.84,186.38A5,5 0 1 1 524.84,186.38Z" style="fill:#FF7AB4" />
<path d="M544.69,190.6A5,5 0 1 1 534.69,190.6A5,5 0 1 1 544.69,190.6Z" style="fill:#FF7AB4" />
<path d="M564.53,184.51A5,5 0 1 1 554.53,184.51A5,5 0 1 1 564.53,184.51Z" style="fill:#FF7AB4" />
<path d="M584.38,185A5,5 0 1 1 574.38,185A5,5 0 1 1 584.38,185Z" style="fill:#FF7AB4" />
<path d="M604.23,185.92A5,5 0 1 1 594.23,185.92A5,5 0 1 1 604.23,185.92Z" style="fill:#FF7AB4" />
<path d="M624.07,179.06A5,5 0 1 1 614.07,179.06A5,5 0 1 1 624.07,179.06Z" style="fill:#FF7AB4" />
<path d="M643.92,203.77A5,5 0 1 1 633.92,203.77A5,5 0 1 1 643.92,203.77Z" style="fill:#FF7AB4" />
<path d="M663.76,215.55A5,5 0 1 1 653.76,215.55A5,5 0 1 1 663.76,215.55Z" style="fill:#FF7AB4" />
<path d="M683.61,216.59A5,5 0 1 1 673.61,216.59A5,5 0 1 1 683.61,216.59Z" style="fill:#FF7AB4" />
<path d="M703.45,224.75A5,5 0 1 1 693.45,224.75A5,5 0 1 1 703.45,224.75Z" style="fill:#FF7AB4" />
<path d="M723.3,228.97A5,5 0 1 1 713.3,228.97A5,5 0 1 1 723.3,228.97Z" style="fill:#FF7AB4" />
<path d="M743.15,203.47A5,5 0 1 1 733.15,203.47A5,5 0 1 1 743.15,203.47Z" style="fill:#FF7AB4" />
<path d="M762.99,194.06A5,5 0 1 1 752.99,194.06A5,5 0 1 1 762.99,194.06Z" style="fill:#FF7AB4" />
<path d="M782.84,189.02A5,5 0 1 1 772.84,189.02A5,5 0 1 1 782.84,189.02Z" style="fill:#FF7AB4" />
<path d="M802.68,193.59A5,5 0 1 1 792.68,193.59A5,5 0 1 1 802.68,193.59Z" style="fill:#FF7AB4" />
<path d="M822.53,197A5,5 0 1 1 812.53,197A5,5 0 1 1 822.53,197Z" style="fill:#FF7AB4" />
<path d="M842.37,195.18A5,5 0 1 1 832.37,195.18A5,5 0 1 1 842.37,195.18Z" style="fill:#FF7AB4" />
<path d="M862.22,189.04A5,5 0 1 1 852.22,189.04A5,5 0 1 1 862.22,189.04Z" style="fill:#FF7AB4" />
<path d="M882.07,196.54A5,5 0 1 1 872.07,196.54A5,5 0 1 1 882.07,196.54Z" style="fill:#FF7AB4" />
<path d="M901.91,198.99A5,5 0 1 1 891.91,198.99A5,5 0 1 1 901.91,198.99Z" style="fill:#FF7AB4" />
<path d="M921.76,198.54A5,5 0 1 1 911.76,198.54A5,5 0 1 1 921.76,198.54Z" style="fill:#FF7AB4" />
<path d="M941.6,194.34A5,5 0 1 1 931.6,194.34A5,5 0 1 1 941.6,194.34Z" style="fill:#FF7AB4" />
<path d="M961.45,203.37A5,5 0 1 1 951.45,203.37A5,5 0 1 1 961.45,203.37Z" style="fill:#FF7AB4" />
<path d="M981.3,190.07A5,5 0 1 1 971.3,190.07A5,5 0 1 1 981.3,190.07Z" style="fill:#FF7AB4" />
<path d="M1001.1,213.75A5,5 0 1 1 991.14,213.75A5,5 0 1 1 1001.1,213.75Z" style="fill:#FF7AB4" />
<path d="M1021,206.25A5,5 0 1 1 1011,206.25A5,5 0 1 1 1021,206.25Z" style="fill:#FF7AB4" />
<path d="M231.67,893.04L1025.5,893.04" style="fill:none;stroke:#000000" />
<path d="M1025.5,211.05L1025.5,893.04" style="fill:none;stroke:#000000" />
<path d="M1038,802.33A8,8 0 1 1 1022,802.33A8,8 0 1 1 1038,802.33Z" style="fill:#FF7AB4" />
<text x="544.34" y="-789.14" transform="scale(1, -1)"
	style="font-family:Helvetica;font-weight:normal;font-style:normal;font-size:56px">Forward Sapphire</text>
</g>
</svg>
