<?xml version="1.0"?>
<!-- Generated by SVGo and Plotinum VG -->
<svg width="1080pt" height="1080pt" viewBox="0 0 1080 1080"
	xmlns="http://www.w3.org/2000/svg"
	xmlns:xlink="http://www.w3.org/1999/xlink">
<g transform="scale(1, -1) translate(0, -1080)">
<path d="M0,0L1080,0L1080,1080L0,1080Z" style="fill-opacity:0" />
<text x="365.51" y="-1047.6" transform="scale(1, -1)"
	style="font-family:Liberation Sans;font-variant:normal;font-weight:normal;font-style:normal;font-size:40px">1 cm UHNA3 CoBS</text>
<text x="424.82" y="-9.1992" transform="scale(1, -1)"
	style="font-family:Liberation Sans;font-variant:normal;font-weight:normal;font-style:normal;font-size:30px">Frequency (Ω/2π) (GHz)</text>
<text x="71.968" y="-47.715" transform="scale(1, -1)"
	style="font-family:Liberation Sans;font-variant:normal;font-weight:normal;font-style:normal;font-size:30px">9.00</text>
<text x="207.6" y="-47.715" transform="scale(1, -1)"
	style="font-family:Liberation Sans;font-variant:normal;font-weight:normal;font-style:normal;font-size:30px">9.05</text>
<text x="343.23" y="-47.715" transform="scale(1, -1)"
	style="font-family:Liberation Sans;font-variant:normal;font-weight:normal;font-style:normal;font-size:30px">9.10</text>
<text x="478.86" y="-47.715" transform="scale(1, -1)"
	style="font-family:Liberation Sans;font-variant:normal;font-weight:normal;font-style:normal;font-size:30px">9.15</text>
<text x="614.5" y="-47.715" transform="scale(1, -1)"
	style="font-family:Liberation Sans;font-variant:normal;font-weight:normal;font-style:normal;font-size:30px">9.20</text>
<text x="750.13" y="-47.715" transform="scale(1, -1)"
	style="font-family:Liberation Sans;font-variant:normal;font-weight:normal;font-style:normal;font-size:30px">9.25</text>
<text x="885.76" y="-47.715" transform="scale(1, -1)"
	style="font-family:Liberation Sans;font-variant:normal;font-weight:normal;font-style:normal;font-size:30px">9.30</text>
<text x="1021.4" y="-47.715" transform="scale(1, -1)"
	style="font-family:Liberation Sans;font-variant:normal;font-weight:normal;font-style:normal;font-size:30px">9.35</text>
<path d="M101.16,72.031L101.16,80.031" style="fill:none;stroke:#000000;stroke-width:2.5" />
<path d="M128.29,76.031L128.29,80.031" style="fill:none;stroke:#000000;stroke-width:2.5" />
<path d="M155.41,76.031L155.41,80.031" style="fill:none;stroke:#000000;stroke-width:2.5" />
<path d="M182.54,76.031L182.54,80.031" style="fill:none;stroke:#000000;stroke-width:2.5" />
<path d="M209.67,76.031L209.67,80.031" style="fill:none;stroke:#000000;stroke-width:2.5" />
<path d="M236.79,72.031L236.79,80.031" style="fill:none;stroke:#000000;stroke-width:2.5" />
<path d="M263.92,76.031L263.92,80.031" style="fill:none;stroke:#000000;stroke-width:2.5" />
<path d="M291.05,76.031L291.05,80.031" style="fill:none;stroke:#000000;stroke-width:2.5" />
<path d="M318.17,76.031L318.17,80.031" style="fill:none;stroke:#000000;stroke-width:2.5" />
<path d="M345.3,76.031L345.3,80.031" style="fill:none;stroke:#000000;stroke-width:2.5" />
<path d="M372.43,72.031L372.43,80.031" style="fill:none;stroke:#000000;stroke-width:2.5" />
<path d="M399.55,76.031L399.55,80.031" style="fill:none;stroke:#000000;stroke-width:2.5" />
<path d="M426.68,76.031L426.68,80.031" style="fill:none;stroke:#000000;stroke-width:2.5" />
<path d="M453.81,76.031L453.81,80.031" style="fill:none;stroke:#000000;stroke-width:2.5" />
<path d="M480.93,76.031L480.93,80.031" style="fill:none;stroke:#000000;stroke-width:2.5" />
<path d="M508.06,72.031L508.06,80.031" style="fill:none;stroke:#000000;stroke-width:2.5" />
<path d="M535.18,76.031L535.18,80.031" style="fill:none;stroke:#000000;stroke-width:2.5" />
<path d="M562.31,76.031L562.31,80.031" style="fill:none;stroke:#000000;stroke-width:2.5" />
<path d="M589.44,76.031L589.44,80.031" style="fill:none;stroke:#000000;stroke-width:2.5" />
<path d="M616.56,76.031L616.56,80.031" style="fill:none;stroke:#000000;stroke-width:2.5" />
<path d="M643.69,72.031L643.69,80.031" style="fill:none;stroke:#000000;stroke-width:2.5" />
<path d="M670.82,76.031L670.82,80.031" style="fill:none;stroke:#000000;stroke-width:2.5" />
<path d="M697.94,76.031L697.94,80.031" style="fill:none;stroke:#000000;stroke-width:2.5" />
<path d="M725.07,76.031L725.07,80.031" style="fill:none;stroke:#000000;stroke-width:2.5" />
<path d="M752.2,76.031L752.2,80.031" style="fill:none;stroke:#000000;stroke-width:2.5" />
<path d="M779.32,72.031L779.32,80.031" style="fill:none;stroke:#000000;stroke-width:2.5" />
<path d="M806.45,76.031L806.45,80.031" style="fill:none;stroke:#000000;stroke-width:2.5" />
<path d="M833.58,76.031L833.58,80.031" style="fill:none;stroke:#000000;stroke-width:2.5" />
<path d="M860.7,76.031L860.7,80.031" style="fill:none;stroke:#000000;stroke-width:2.5" />
<path d="M887.83,76.031L887.83,80.031" style="fill:none;stroke:#000000;stroke-width:2.5" />
<path d="M914.95,72.031L914.95,80.031" style="fill:none;stroke:#000000;stroke-width:2.5" />
<path d="M942.08,76.031L942.08,80.031" style="fill:none;stroke:#000000;stroke-width:2.5" />
<path d="M969.21,76.031L969.21,80.031" style="fill:none;stroke:#000000;stroke-width:2.5" />
<path d="M996.33,76.031L996.33,80.031" style="fill:none;stroke:#000000;stroke-width:2.5" />
<path d="M1023.5,76.031L1023.5,80.031" style="fill:none;stroke:#000000;stroke-width:2.5" />
<path d="M1050.6,72.031L1050.6,80.031" style="fill:none;stroke:#000000;stroke-width:2.5" />
<path d="M101.16,80.031L1075,80.031" style="fill:none;stroke:#000000;stroke-width:2.5" />
<g transform="rotate(90)">
<text x="458.28" y="24.316" transform="scale(1, -1)"
	style="font-family:Liberation Sans;font-variant:normal;font-weight:normal;font-style:normal;font-size:30px">Arbitrary Units</text>
</g>
<text x="44.873" y="-69.973" transform="scale(1, -1)"
	style="font-family:Liberation Sans;font-variant:normal;font-weight:normal;font-style:normal;font-size:30px">0.0</text>
<text x="44.873" y="-242.98" transform="scale(1, -1)"
	style="font-family:Liberation Sans;font-variant:normal;font-weight:normal;font-style:normal;font-size:30px">0.2</text>
<text x="44.873" y="-415.98" transform="scale(1, -1)"
	style="font-family:Liberation Sans;font-variant:normal;font-weight:normal;font-style:normal;font-size:30px">0.4</text>
<text x="44.873" y="-588.99" transform="scale(1, -1)"
	style="font-family:Liberation Sans;font-variant:normal;font-weight:normal;font-style:normal;font-size:30px">0.6</text>
<text x="44.873" y="-762" transform="scale(1, -1)"
	style="font-family:Liberation Sans;font-variant:normal;font-weight:normal;font-style:normal;font-size:30px">0.8</text>
<text x="44.873" y="-935" transform="scale(1, -1)"
	style="font-family:Liberation Sans;font-variant:normal;font-weight:normal;font-style:normal;font-size:30px">1.0</text>
<path d="M94.912,77.531L94.912,1029.1" style="fill:none;stroke:#000000;stroke-width:2.5" />
<path d="M106.16,106.82A5,5 0 1 1 96.162,106.82A5,5 0 1 1 106.16,106.82Z" style="fill:#FF7AB4" />
<path d="M108.87,106.51A5,5 0 1 1 98.875,106.51A5,5 0 1 1 108.87,106.51Z" style="fill:#FF7AB4" />
<path d="M111.59,106.52A5,5 0 1 1 101.59,106.52A5,5 0 1 1 111.59,106.52Z" style="fill:#FF7AB4" />
<path d="M114.3,108.99A5,5 0 1 1 104.3,108.99A5,5 0 1 1 114.3,108.99Z" style="fill:#FF7AB4" />
<path d="M117.01,107.88A5,5 0 1 1 107.01,107.88A5,5 0 1 1 117.01,107.88Z" style="fill:#FF7AB4" />
<path d="M119.73,109.52A5,5 0 1 1 109.73,109.52A5,5 0 1 1 119.73,109.52Z" style="fill:#FF7AB4" />
<path d="M122.44,110.29A5,5 0 1 1 112.44,110.29A5,5 0 1 1 122.44,110.29Z" style="fill:#FF7AB4" />
<path d="M125.15,110.48A5,5 0 1 1 115.15,110.48A5,5 0 1 1 125.15,110.48Z" style="fill:#FF7AB4" />
<path d="M127.86,111.76A5,5 0 1 1 117.86,111.76A5,5 0 1 1 127.86,111.76Z" style="fill:#FF7AB4" />
<path d="M130.58,111.96A5,5 0 1 1 120.58,111.96A5,5 0 1 1 130.58,111.96Z" style="fill:#FF7AB4" />
<path d="M133.29,111.74A5,5 0 1 1 123.29,111.74A5,5 0 1 1 133.29,111.74Z" style="fill:#FF7AB4" />
<path d="M136,111.67A5,5 0 1 1 126,111.67A5,5 0 1 1 136,111.67Z" style="fill:#FF7AB4" />
<path d="M138.71,111.51A5,5 0 1 1 128.71,111.51A5,5 0 1 1 138.71,111.51Z" style="fill:#FF7AB4" />
<path d="M141.43,113.72A5,5 0 1 1 131.43,113.72A5,5 0 1 1 141.43,113.72Z" style="fill:#FF7AB4" />
<path d="M144.14,114.45A5,5 0 1 1 134.14,114.45A5,5 0 1 1 144.14,114.45Z" style="fill:#FF7AB4" />
<path d="M146.85,115.06A5,5 0 1 1 136.85,115.06A5,5 0 1 1 146.85,115.06Z" style="fill:#FF7AB4" />
<path d="M149.56,114.94A5,5 0 1 1 139.56,114.94A5,5 0 1 1 149.56,114.94Z" style="fill:#FF7AB4" />
<path d="M152.28,115.12A5,5 0 1 1 142.28,115.12A5,5 0 1 1 152.28,115.12Z" style="fill:#FF7AB4" />
<path d="M154.99,115.82A5,5 0 1 1 144.99,115.82A5,5 0 1 1 154.99,115.82Z" style="fill:#FF7AB4" />
<path d="M157.7,118.2A5,5 0 1 1 147.7,118.2A5,5 0 1 1 157.7,118.2Z" style="fill:#FF7AB4" />
<path d="M160.41,117.89A5,5 0 1 1 150.41,117.89A5,5 0 1 1 160.41,117.89Z" style="fill:#FF7AB4" />
<path d="M163.13,118.13A5,5 0 1 1 153.13,118.13A5,5 0 1 1 163.13,118.13Z" style="fill:#FF7AB4" />
<path d="M165.84,117.63A5,5 0 1 1 155.84,117.63A5,5 0 1 1 165.84,117.63Z" style="fill:#FF7AB4" />
<path d="M168.55,119.63A5,5 0 1 1 158.55,119.63A5,5 0 1 1 168.55,119.63Z" style="fill:#FF7AB4" />
<path d="M171.27,119.13A5,5 0 1 1 161.27,119.13A5,5 0 1 1 171.27,119.13Z" style="fill:#FF7AB4" />
<path d="M173.98,118.85A5,5 0 1 1 163.98,118.85A5,5 0 1 1 173.98,118.85Z" style="fill:#FF7AB4" />
<path d="M176.69,123.02A5,5 0 1 1 166.69,123.02A5,5 0 1 1 176.69,123.02Z" style="fill:#FF7AB4" />
<path d="M179.4,122.05A5,5 0 1 1 169.4,122.05A5,5 0 1 1 179.4,122.05Z" style="fill:#FF7AB4" />
<path d="M182.12,125.35A5,5 0 1 1 172.12,125.35A5,5 0 1 1 182.12,125.35Z" style="fill:#FF7AB4" />
<path d="M184.83,123.81A5,5 0 1 1 174.83,123.81A5,5 0 1 1 184.83,123.81Z" style="fill:#FF7AB4" />
<path d="M187.54,124.67A5,5 0 1 1 177.54,124.67A5,5 0 1 1 187.54,124.67Z" style="fill:#FF7AB4" />
<path d="M190.25,126.08A5,5 0 1 1 180.25,126.08A5,5 0 1 1 190.25,126.08Z" style="fill:#FF7AB4" />
<path d="M192.97,127.47A5,5 0 1 1 182.97,127.47A5,5 0 1 1 192.97,127.47Z" style="fill:#FF7AB4" />
<path d="M195.68,125.73A5,5 0 1 1 185.68,125.73A5,5 0 1 1 195.68,125.73Z" style="fill:#FF7AB4" />
<path d="M198.39,126.7A5,5 0 1 1 188.39,126.7A5,5 0 1 1 198.39,126.7Z" style="fill:#FF7AB4" />
<path d="M201.1,128.82A5,5 0 1 1 191.1,128.82A5,5 0 1 1 201.1,128.82Z" style="fill:#FF7AB4" />
<path d="M203.82,127.82A5,5 0 1 1 193.82,127.82A5,5 0 1 1 203.82,127.82Z" style="fill:#FF7AB4" />
<path d="M206.53,130.51A5,5 0 1 1 196.53,130.51A5,5 0 1 1 206.53,130.51Z" style="fill:#FF7AB4" />
<path d="M209.24,130.43A5,5 0 1 1 199.24,130.43A5,5 0 1 1 209.24,130.43Z" style="fill:#FF7AB4" />
<path d="M211.96,131.82A5,5 0 1 1 201.96,131.82A5,5 0 1 1 211.96,131.82Z" style="fill:#FF7AB4" />
<path d="M214.67,132.44A5,5 0 1 1 204.67,132.44A5,5 0 1 1 214.67,132.44Z" style="fill:#FF7AB4" />
<path d="M217.38,134.77A5,5 0 1 1 207.38,134.77A5,5 0 1 1 217.38,134.77Z" style="fill:#FF7AB4" />
<path d="M220.09,134.45A5,5 0 1 1 210.09,134.45A5,5 0 1 1 220.09,134.45Z" style="fill:#FF7AB4" />
<path d="M222.81,134.7A5,5 0 1 1 212.81,134.7A5,5 0 1 1 222.81,134.7Z" style="fill:#FF7AB4" />
<path d="M225.52,136.49A5,5 0 1 1 215.52,136.49A5,5 0 1 1 225.52,136.49Z" style="fill:#FF7AB4" />
<path d="M228.23,133.51A5,5 0 1 1 218.23,133.51A5,5 0 1 1 228.23,133.51Z" style="fill:#FF7AB4" />
<path d="M230.94,139A5,5 0 1 1 220.94,139A5,5 0 1 1 230.94,139Z" style="fill:#FF7AB4" />
<path d="M233.66,137.91A5,5 0 1 1 223.66,137.91A5,5 0 1 1 233.66,137.91Z" style="fill:#FF7AB4" />
<path d="M236.37,139.68A5,5 0 1 1 226.37,139.68A5,5 0 1 1 236.37,139.68Z" style="fill:#FF7AB4" />
<path d="M239.08,141.66A5,5 0 1 1 229.08,141.66A5,5 0 1 1 239.08,141.66Z" style="fill:#FF7AB4" />
<path d="M241.79,141.14A5,5 0 1 1 231.79,141.14A5,5 0 1 1 241.79,141.14Z" style="fill:#FF7AB4" />
<path d="M244.51,145.24A5,5 0 1 1 234.51,145.24A5,5 0 1 1 244.51,145.24Z" style="fill:#FF7AB4" />
<path d="M247.22,143.43A5,5 0 1 1 237.22,143.43A5,5 0 1 1 247.22,143.43Z" style="fill:#FF7AB4" />
<path d="M249.93,146.45A5,5 0 1 1 239.93,146.45A5,5 0 1 1 249.93,146.45Z" style="fill:#FF7AB4" />
<path d="M252.64,144.99A5,5 0 1 1 242.64,144.99A5,5 0 1 1 252.64,144.99Z" style="fill:#FF7AB4" />
<path d="M255.36,148.11A5,5 0 1 1 245.36,148.11A5,5 0 1 1 255.36,148.11Z" style="fill:#FF7AB4" />
<path d="M258.07,149.65A5,5 0 1 1 248.07,149.65A5,5 0 1 1 258.07,149.65Z" style="fill:#FF7AB4" />
<path d="M260.78,152.56A5,5 0 1 1 250.78,152.56A5,5 0 1 1 260.78,152.56Z" style="fill:#FF7AB4" />
<path d="M263.5,151.24A5,5 0 1 1 253.5,151.24A5,5 0 1 1 263.5,151.24Z" style="fill:#FF7AB4" />
<path d="M266.21,151.99A5,5 0 1 1 256.21,151.99A5,5 0 1 1 266.21,151.99Z" style="fill:#FF7AB4" />
<path d="M268.92,153.03A5,5 0 1 1 258.92,153.03A5,5 0 1 1 268.92,153.03Z" style="fill:#FF7AB4" />
<path d="M271.63,154.58A5,5 0 1 1 261.63,154.58A5,5 0 1 1 271.63,154.58Z" style="fill:#FF7AB4" />
<path d="M274.35,158.48A5,5 0 1 1 264.35,158.48A5,5 0 1 1 274.35,158.48Z" style="fill:#FF7AB4" />
<path d="M277.06,159.27A5,5 0 1 1 267.06,159.27A5,5 0 1 1 277.06,159.27Z" style="fill:#FF7AB4" />
<path d="M279.77,159A5,5 0 1 1 269.77,159A5,5 0 1 1 279.77,159Z" style="fill:#FF7AB4" />
<path d="M282.48,159.35A5,5 0 1 1 272.48,159.35A5,5 0 1 1 282.48,159.35Z" style="fill:#FF7AB4" />
<path d="M285.2,161.69A5,5 0 1 1 275.2,161.69A5,5 0 1 1 285.2,161.69Z" style="fill:#FF7AB4" />
<path d="M287.91,163.7A5,5 0 1 1 277.91,163.7A5,5 0 1 1 287.91,163.7Z" style="fill:#FF7AB4" />
<path d="M290.62,165.62A5,5 0 1 1 280.62,165.62A5,5 0 1 1 290.62,165.62Z" style="fill:#FF7AB4" />
<path d="M293.33,167.95A5,5 0 1 1 283.33,167.95A5,5 0 1 1 293.33,167.95Z" style="fill:#FF7AB4" />
<path d="M296.05,170.36A5,5 0 1 1 286.05,170.36A5,5 0 1 1 296.05,170.36Z" style="fill:#FF7AB4" />
<path d="M298.76,171.85A5,5 0 1 1 288.76,171.85A5,5 0 1 1 298.76,171.85Z" style="fill:#FF7AB4" />
<path d="M301.47,174.24A5,5 0 1 1 291.47,174.24A5,5 0 1 1 301.47,174.24Z" style="fill:#FF7AB4" />
<path d="M304.18,172.12A5,5 0 1 1 294.18,172.12A5,5 0 1 1 304.18,172.12Z" style="fill:#FF7AB4" />
<path d="M306.9,175.96A5,5 0 1 1 296.9,175.96A5,5 0 1 1 306.9,175.96Z" style="fill:#FF7AB4" />
<path d="M309.61,175.43A5,5 0 1 1 299.61,175.43A5,5 0 1 1 309.61,175.43Z" style="fill:#FF7AB4" />
<path d="M312.32,177.72A5,5 0 1 1 302.32,177.72A5,5 0 1 1 312.32,177.72Z" style="fill:#FF7AB4" />
<path d="M315.04,179.74A5,5 0 1 1 305.04,179.74A5,5 0 1 1 315.04,179.74Z" style="fill:#FF7AB4" />
<path d="M317.75,182.27A5,5 0 1 1 307.75,182.27A5,5 0 1 1 317.75,182.27Z" style="fill:#FF7AB4" />
<path d="M320.46,184.89A5,5 0 1 1 310.46,184.89A5,5 0 1 1 320.46,184.89Z" style="fill:#FF7AB4" />
<path d="M323.17,186.63A5,5 0 1 1 313.17,186.63A5,5 0 1 1 323.17,186.63Z" style="fill:#FF7AB4" />
<path d="M325.89,188.66A5,5 0 1 1 315.89,188.66A5,5 0 1 1 325.89,188.66Z" style="fill:#FF7AB4" />
<path d="M328.6,191.72A5,5 0 1 1 318.6,191.72A5,5 0 1 1 328.6,191.72Z" style="fill:#FF7AB4" />
<path d="M331.31,191.22A5,5 0 1 1 321.31,191.22A5,5 0 1 1 331.31,191.22Z" style="fill:#FF7AB4" />
<path d="M334.02,196.16A5,5 0 1 1 324.02,196.16A5,5 0 1 1 334.02,196.16Z" style="fill:#FF7AB4" />
<path d="M336.74,195.94A5,5 0 1 1 326.74,195.94A5,5 0 1 1 336.74,195.94Z" style="fill:#FF7AB4" />
<path d="M339.45,198.71A5,5 0 1 1 329.45,198.71A5,5 0 1 1 339.45,198.71Z" style="fill:#FF7AB4" />
<path d="M342.16,202.28A5,5 0 1 1 332.16,202.28A5,5 0 1 1 342.16,202.28Z" style="fill:#FF7AB4" />
<path d="M344.87,203.58A5,5 0 1 1 334.87,203.58A5,5 0 1 1 344.87,203.58Z" style="fill:#FF7AB4" />
<path d="M347.59,204.82A5,5 0 1 1 337.59,204.82A5,5 0 1 1 347.59,204.82Z" style="fill:#FF7AB4" />
<path d="M350.3,208.7A5,5 0 1 1 340.3,208.7A5,5 0 1 1 350.3,208.7Z" style="fill:#FF7AB4" />
<path d="M353.01,208.37A5,5 0 1 1 343.01,208.37A5,5 0 1 1 353.01,208.37Z" style="fill:#FF7AB4" />
<path d="M355.73,217.72A5,5 0 1 1 345.73,217.72A5,5 0 1 1 355.73,217.72Z" style="fill:#FF7AB4" />
<path d="M358.44,217.16A5,5 0 1 1 348.44,217.16A5,5 0 1 1 358.44,217.16Z" style="fill:#FF7AB4" />
<path d="M361.15,220.33A5,5 0 1 1 351.15,220.33A5,5 0 1 1 361.15,220.33Z" style="fill:#FF7AB4" />
<path d="M363.86,223.39A5,5 0 1 1 353.86,223.39A5,5 0 1 1 363.86,223.39Z" style="fill:#FF7AB4" />
<path d="M366.58,225.79A5,5 0 1 1 356.58,225.79A5,5 0 1 1 366.58,225.79Z" style="fill:#FF7AB4" />
<path d="M369.29,226.51A5,5 0 1 1 359.29,226.51A5,5 0 1 1 369.29,226.51Z" style="fill:#FF7AB4" />
<path d="M372,231.19A5,5 0 1 1 362,231.19A5,5 0 1 1 372,231.19Z" style="fill:#FF7AB4" />
<path d="M374.71,234.32A5,5 0 1 1 364.71,234.32A5,5 0 1 1 374.71,234.32Z" style="fill:#FF7AB4" />
<path d="M377.43,235.74A5,5 0 1 1 367.43,235.74A5,5 0 1 1 377.43,235.74Z" style="fill:#FF7AB4" />
<path d="M380.14,240.75A5,5 0 1 1 370.14,240.75A5,5 0 1 1 380.14,240.75Z" style="fill:#FF7AB4" />
<path d="M382.85,239.94A5,5 0 1 1 372.85,239.94A5,5 0 1 1 382.85,239.94Z" style="fill:#FF7AB4" />
<path d="M385.56,244.88A5,5 0 1 1 375.56,244.88A5,5 0 1 1 385.56,244.88Z" style="fill:#FF7AB4" />
<path d="M388.28,246.66A5,5 0 1 1 378.28,246.66A5,5 0 1 1 388.28,246.66Z" style="fill:#FF7AB4" />
<path d="M390.99,249.23A5,5 0 1 1 380.99,249.23A5,5 0 1 1 390.99,249.23Z" style="fill:#FF7AB4" />
<path d="M393.7,252.79A5,5 0 1 1 383.7,252.79A5,5 0 1 1 393.7,252.79Z" style="fill:#FF7AB4" />
<path d="M396.41,258.01A5,5 0 1 1 386.41,258.01A5,5 0 1 1 396.41,258.01Z" style="fill:#FF7AB4" />
<path d="M399.13,263.42A5,5 0 1 1 389.13,263.42A5,5 0 1 1 399.13,263.42Z" style="fill:#FF7AB4" />
<path d="M401.84,265.87A5,5 0 1 1 391.84,265.87A5,5 0 1 1 401.84,265.87Z" style="fill:#FF7AB4" />
<path d="M404.55,270.15A5,5 0 1 1 394.55,270.15A5,5 0 1 1 404.55,270.15Z" style="fill:#FF7AB4" />
<path d="M407.27,271.05A5,5 0 1 1 397.27,271.05A5,5 0 1 1 407.27,271.05Z" style="fill:#FF7AB4" />
<path d="M409.98,282.17A5,5 0 1 1 399.98,282.17A5,5 0 1 1 409.98,282.17Z" style="fill:#FF7AB4" />
<path d="M412.69,278.7A5,5 0 1 1 402.69,278.7A5,5 0 1 1 412.69,278.7Z" style="fill:#FF7AB4" />
<path d="M415.4,284.55A5,5 0 1 1 405.4,284.55A5,5 0 1 1 415.4,284.55Z" style="fill:#FF7AB4" />
<path d="M418.12,285.22A5,5 0 1 1 408.12,285.22A5,5 0 1 1 418.12,285.22Z" style="fill:#FF7AB4" />
<path d="M420.83,291.04A5,5 0 1 1 410.83,291.04A5,5 0 1 1 420.83,291.04Z" style="fill:#FF7AB4" />
<path d="M423.54,290.54A5,5 0 1 1 413.54,290.54A5,5 0 1 1 423.54,290.54Z" style="fill:#FF7AB4" />
<path d="M426.25,297.15A5,5 0 1 1 416.25,297.15A5,5 0 1 1 426.25,297.15Z" style="fill:#FF7AB4" />
<path d="M428.97,299.87A5,5 0 1 1 418.97,299.87A5,5 0 1 1 428.97,299.87Z" style="fill:#FF7AB4" />
<path d="M431.68,301.95A5,5 0 1 1 421.68,301.95A5,5 0 1 1 431.68,301.95Z" style="fill:#FF7AB4" />
<path d="M434.39,310.84A5,5 0 1 1 424.39,310.84A5,5 0 1 1 434.39,310.84Z" style="fill:#FF7AB4" />
<path d="M437.1,315.5A5,5 0 1 1 427.1,315.5A5,5 0 1 1 437.1,315.5Z" style="fill:#FF7AB4" />
<path d="M439.82,322.1A5,5 0 1 1 429.82,322.1A5,5 0 1 1 439.82,322.1Z" style="fill:#FF7AB4" />
<path d="M442.53,325.78A5,5 0 1 1 432.53,325.78A5,5 0 1 1 442.53,325.78Z" style="fill:#FF7AB4" />
<path d="M445.24,330.84A5,5 0 1 1 435.24,330.84A5,5 0 1 1 445.24,330.84Z" style="fill:#FF7AB4" />
<path d="M447.95,336.29A5,5 0 1 1 437.95,336.29A5,5 0 1 1 447.95,336.29Z" style="fill:#FF7AB4" />
<path d="M450.67,340.25A5,5 0 1 1 440.67,340.25A5,5 0 1 1 450.67,340.25Z" style="fill:#FF7AB4" />
<path d="M453.38,347.42A5,5 0 1 1 443.38,347.42A5,5 0 1 1 453.38,347.42Z" style="fill:#FF7AB4" />
<path d="M456.09,351.59A5,5 0 1 1 446.09,351.59A5,5 0 1 1 456.09,351.59Z" style="fill:#FF7AB4" />
<path d="M458.81,354.18A5,5 0 1 1 448.81,354.18A5,5 0 1 1 458.81,354.18Z" style="fill:#FF7AB4" />
<path d="M461.52,358.58A5,5 0 1 1 451.52,358.58A5,5 0 1 1 461.52,358.58Z" style="fill:#FF7AB4" />
<path d="M464.23,364.41A5,5 0 1 1 454.23,364.41A5,5 0 1 1 464.23,364.41Z" style="fill:#FF7AB4" />
<path d="M466.94,367.36A5,5 0 1 1 456.94,367.36A5,5 0 1 1 466.94,367.36Z" style="fill:#FF7AB4" />
<path d="M469.66,374.64A5,5 0 1 1 459.66,374.64A5,5 0 1 1 469.66,374.64Z" style="fill:#FF7AB4" />
<path d="M472.37,380.94A5,5 0 1 1 462.37,380.94A5,5 0 1 1 472.37,380.94Z" style="fill:#FF7AB4" />
<path d="M475.08,387.34A5,5 0 1 1 465.08,387.34A5,5 0 1 1 475.08,387.34Z" style="fill:#FF7AB4" />
<path d="M477.79,394.87A5,5 0 1 1 467.79,394.87A5,5 0 1 1 477.79,394.87Z" style="fill:#FF7AB4" />
<path d="M480.51,400.09A5,5 0 1 1 470.51,400.09A5,5 0 1 1 480.51,400.09Z" style="fill:#FF7AB4" />
<path d="M483.22,405.15A5,5 0 1 1 473.22,405.15A5,5 0 1 1 483.22,405.15Z" style="fill:#FF7AB4" />
<path d="M485.93,414.35A5,5 0 1 1 475.93,414.35A5,5 0 1 1 485.93,414.35Z" style="fill:#FF7AB4" />
<path d="M488.64,417.17A5,5 0 1 1 478.64,417.17A5,5 0 1 1 488.64,417.17Z" style="fill:#FF7AB4" />
<path d="M491.36,424.28A5,5 0 1 1 481.36,424.28A5,5 0 1 1 491.36,424.28Z" style="fill:#FF7AB4" />
<path d="M494.07,432.7A5,5 0 1 1 484.07,432.7A5,5 0 1 1 494.07,432.7Z" style="fill:#FF7AB4" />
<path d="M496.78,440.79A5,5 0 1 1 486.78,440.79A5,5 0 1 1 496.78,440.79Z" style="fill:#FF7AB4" />
<path d="M499.49,447.43A5,5 0 1 1 489.49,447.43A5,5 0 1 1 499.49,447.43Z" style="fill:#FF7AB4" />
<path d="M502.21,454.94A5,5 0 1 1 492.21,454.94A5,5 0 1 1 502.21,454.94Z" style="fill:#FF7AB4" />
<path d="M504.92,464.79A5,5 0 1 1 494.92,464.79A5,5 0 1 1 504.92,464.79Z" style="fill:#FF7AB4" />
<path d="M507.63,468.07A5,5 0 1 1 497.63,468.07A5,5 0 1 1 507.63,468.07Z" style="fill:#FF7AB4" />
<path d="M510.35,475.31A5,5 0 1 1 500.35,475.31A5,5 0 1 1 510.35,475.31Z" style="fill:#FF7AB4" />
<path d="M513.06,486.85A5,5 0 1 1 503.06,486.85A5,5 0 1 1 513.06,486.85Z" style="fill:#FF7AB4" />
<path d="M515.77,488.1A5,5 0 1 1 505.77,488.1A5,5 0 1 1 515.77,488.1Z" style="fill:#FF7AB4" />
<path d="M518.48,498.3A5,5 0 1 1 508.48,498.3A5,5 0 1 1 518.48,498.3Z" style="fill:#FF7AB4" />
<path d="M521.2,512.39A5,5 0 1 1 511.2,512.39A5,5 0 1 1 521.2,512.39Z" style="fill:#FF7AB4" />
<path d="M523.91,516.81A5,5 0 1 1 513.91,516.81A5,5 0 1 1 523.91,516.81Z" style="fill:#FF7AB4" />
<path d="M526.62,523.43A5,5 0 1 1 516.62,523.43A5,5 0 1 1 526.62,523.43Z" style="fill:#FF7AB4" />
<path d="M529.33,532.49A5,5 0 1 1 519.33,532.49A5,5 0 1 1 529.33,532.49Z" style="fill:#FF7AB4" />
<path d="M532.05,540.18A5,5 0 1 1 522.05,540.18A5,5 0 1 1 532.05,540.18Z" style="fill:#FF7AB4" />
<path d="M534.76,552.2A5,5 0 1 1 524.76,552.2A5,5 0 1 1 534.76,552.2Z" style="fill:#FF7AB4" />
<path d="M537.47,559.65A5,5 0 1 1 527.47,559.65A5,5 0 1 1 537.47,559.65Z" style="fill:#FF7AB4" />
<path d="M540.18,568.5A5,5 0 1 1 530.18,568.5A5,5 0 1 1 540.18,568.5Z" style="fill:#FF7AB4" />
<path d="M542.9,576.82A5,5 0 1 1 532.9,576.82A5,5 0 1 1 542.9,576.82Z" style="fill:#FF7AB4" />
<path d="M545.61,585.13A5,5 0 1 1 535.61,585.13A5,5 0 1 1 545.61,585.13Z" style="fill:#FF7AB4" />
<path d="M548.32,599.62A5,5 0 1 1 538.32,599.62A5,5 0 1 1 548.32,599.62Z" style="fill:#FF7AB4" />
<path d="M551.04,608.75A5,5 0 1 1 541.04,608.75A5,5 0 1 1 551.04,608.75Z" style="fill:#FF7AB4" />
<path d="M553.75,630.36A5,5 0 1 1 543.75,630.36A5,5 0 1 1 553.75,630.36Z" style="fill:#FF7AB4" />
<path d="M556.46,627.74A5,5 0 1 1 546.46,627.74A5,5 0 1 1 556.46,627.74Z" style="fill:#FF7AB4" />
<path d="M559.17,644.43A5,5 0 1 1 549.17,644.43A5,5 0 1 1 559.17,644.43Z" style="fill:#FF7AB4" />
<path d="M561.89,652.62A5,5 0 1 1 551.89,652.62A5,5 0 1 1 561.89,652.62Z" style="fill:#FF7AB4" />
<path d="M564.6,668.16A5,5 0 1 1 554.6,668.16A5,5 0 1 1 564.6,668.16Z" style="fill:#FF7AB4" />
<path d="M567.31,677.16A5,5 0 1 1 557.31,677.16A5,5 0 1 1 567.31,677.16Z" style="fill:#FF7AB4" />
<path d="M570.02,693.26A5,5 0 1 1 560.02,693.26A5,5 0 1 1 570.02,693.26Z" style="fill:#FF7AB4" />
<path d="M572.74,702.62A5,5 0 1 1 562.74,702.62A5,5 0 1 1 572.74,702.62Z" style="fill:#FF7AB4" />
<path d="M575.45,717.19A5,5 0 1 1 565.45,717.19A5,5 0 1 1 575.45,717.19Z" style="fill:#FF7AB4" />
<path d="M578.16,729.89A5,5 0 1 1 568.16,729.89A5,5 0 1 1 578.16,729.89Z" style="fill:#FF7AB4" />
<path d="M580.87,744.62A5,5 0 1 1 570.87,744.62A5,5 0 1 1 580.87,744.62Z" style="fill:#FF7AB4" />
<path d="M583.59,752.42A5,5 0 1 1 573.59,752.42A5,5 0 1 1 583.59,752.42Z" style="fill:#FF7AB4" />
<path d="M586.3,764.25A5,5 0 1 1 576.3,764.25A5,5 0 1 1 586.3,764.25Z" style="fill:#FF7AB4" />
<path d="M589.01,783.34A5,5 0 1 1 579.01,783.34A5,5 0 1 1 589.01,783.34Z" style="fill:#FF7AB4" />
<path d="M591.72,790.68A5,5 0 1 1 581.72,790.68A5,5 0 1 1 591.72,790.68Z" style="fill:#FF7AB4" />
<path d="M594.44,805.45A5,5 0 1 1 584.44,805.45A5,5 0 1 1 594.44,805.45Z" style="fill:#FF7AB4" />
<path d="M597.15,819.79A5,5 0 1 1 587.15,819.79A5,5 0 1 1 597.15,819.79Z" style="fill:#FF7AB4" />
<path d="M599.86,835.3A5,5 0 1 1 589.86,835.3A5,5 0 1 1 599.86,835.3Z" style="fill:#FF7AB4" />
<path d="M602.58,846.72A5,5 0 1 1 592.58,846.72A5,5 0 1 1 602.58,846.72Z" style="fill:#FF7AB4" />
<path d="M605.29,859.83A5,5 0 1 1 595.29,859.83A5,5 0 1 1 605.29,859.83Z" style="fill:#FF7AB4" />
<path d="M608,871.39A5,5 0 1 1 598,871.39A5,5 0 1 1 608,871.39Z" style="fill:#FF7AB4" />
<path d="M610.71,881.71A5,5 0 1 1 600.71,881.71A5,5 0 1 1 610.71,881.71Z" style="fill:#FF7AB4" />
<path d="M613.43,888.76A5,5 0 1 1 603.43,888.76A5,5 0 1 1 613.43,888.76Z" style="fill:#FF7AB4" />
<path d="M616.14,901.31A5,5 0 1 1 606.14,901.31A5,5 0 1 1 616.14,901.31Z" style="fill:#FF7AB4" />
<path d="M618.85,905.28A5,5 0 1 1 608.85,905.28A5,5 0 1 1 618.85,905.28Z" style="fill:#FF7AB4" />
<path d="M621.56,912.49A5,5 0 1 1 611.56,912.49A5,5 0 1 1 621.56,912.49Z" style="fill:#FF7AB4" />
<path d="M624.28,926.01A5,5 0 1 1 614.28,926.01A5,5 0 1 1 624.28,926.01Z" style="fill:#FF7AB4" />
<path d="M626.99,925.27A5,5 0 1 1 616.99,925.27A5,5 0 1 1 626.99,925.27Z" style="fill:#FF7AB4" />
<path d="M629.7,926.99A5,5 0 1 1 619.7,926.99A5,5 0 1 1 629.7,926.99Z" style="fill:#FF7AB4" />
<path d="M632.41,933.21A5,5 0 1 1 622.41,933.21A5,5 0 1 1 632.41,933.21Z" style="fill:#FF7AB4" />
<path d="M635.13,940.49A5,5 0 1 1 625.13,940.49A5,5 0 1 1 635.13,940.49Z" style="fill:#FF7AB4" />
<path d="M637.84,942.56A5,5 0 1 1 627.84,942.56A5,5 0 1 1 637.84,942.56Z" style="fill:#FF7AB4" />
<path d="M640.55,932.76A5,5 0 1 1 630.55,932.76A5,5 0 1 1 640.55,932.76Z" style="fill:#FF7AB4" />
<path d="M643.26,932.38A5,5 0 1 1 633.26,932.38A5,5 0 1 1 643.26,932.38Z" style="fill:#FF7AB4" />
<path d="M645.98,936.84A5,5 0 1 1 635.98,936.84A5,5 0 1 1 645.98,936.84Z" style="fill:#FF7AB4" />
<path d="M648.69,924.71A5,5 0 1 1 638.69,924.71A5,5 0 1 1 648.69,924.71Z" style="fill:#FF7AB4" />
<path d="M651.4,917.96A5,5 0 1 1 641.4,917.96A5,5 0 1 1 651.4,917.96Z" style="fill:#FF7AB4" />
<path d="M654.12,906.54A5,5 0 1 1 644.12,906.54A5,5 0 1 1 654.12,906.54Z" style="fill:#FF7AB4" />
<path d="M656.83,905.8A5,5 0 1 1 646.83,905.8A5,5 0 1 1 656.83,905.8Z" style="fill:#FF7AB4" />
<path d="M659.54,883.18A5,5 0 1 1 649.54,883.18A5,5 0 1 1 659.54,883.18Z" style="fill:#FF7AB4" />
<path d="M662.25,881.41A5,5 0 1 1 652.25,881.41A5,5 0 1 1 662.25,881.41Z" style="fill:#FF7AB4" />
<path d="M664.97,865.27A5,5 0 1 1 654.97,865.27A5,5 0 1 1 664.97,865.27Z" style="fill:#FF7AB4" />
<path d="M667.68,855.46A5,5 0 1 1 657.68,855.46A5,5 0 1 1 667.68,855.46Z" style="fill:#FF7AB4" />
<path d="M670.39,832.85A5,5 0 1 1 660.39,832.85A5,5 0 1 1 670.39,832.85Z" style="fill:#FF7AB4" />
<path d="M673.1,824.47A5,5 0 1 1 663.1,824.47A5,5 0 1 1 673.1,824.47Z" style="fill:#FF7AB4" />
<path d="M675.82,810.88A5,5 0 1 1 665.82,810.88A5,5 0 1 1 675.82,810.88Z" style="fill:#FF7AB4" />
<path d="M678.53,796.91A5,5 0 1 1 668.53,796.91A5,5 0 1 1 678.53,796.91Z" style="fill:#FF7AB4" />
<path d="M681.24,770.08A5,5 0 1 1 671.24,770.08A5,5 0 1 1 681.24,770.08Z" style="fill:#FF7AB4" />
<path d="M683.95,751.44A5,5 0 1 1 673.95,751.44A5,5 0 1 1 683.95,751.44Z" style="fill:#FF7AB4" />
<path d="M686.67,742.7A5,5 0 1 1 676.67,742.7A5,5 0 1 1 686.67,742.7Z" style="fill:#FF7AB4" />
<path d="M689.38,720.32A5,5 0 1 1 679.38,720.32A5,5 0 1 1 689.38,720.32Z" style="fill:#FF7AB4" />
<path d="M692.09,706.14A5,5 0 1 1 682.09,706.14A5,5 0 1 1 692.09,706.14Z" style="fill:#FF7AB4" />
<path d="M694.81,688.36A5,5 0 1 1 684.81,688.36A5,5 0 1 1 694.81,688.36Z" style="fill:#FF7AB4" />
<path d="M697.52,668.71A5,5 0 1 1 687.52,668.71A5,5 0 1 1 697.52,668.71Z" style="fill:#FF7AB4" />
<path d="M700.23,648.63A5,5 0 1 1 690.23,648.63A5,5 0 1 1 700.23,648.63Z" style="fill:#FF7AB4" />
<path d="M702.94,634.66A5,5 0 1 1 692.94,634.66A5,5 0 1 1 702.94,634.66Z" style="fill:#FF7AB4" />
<path d="M705.66,617.16A5,5 0 1 1 695.66,617.16A5,5 0 1 1 705.66,617.16Z" style="fill:#FF7AB4" />
<path d="M708.37,602.5A5,5 0 1 1 698.37,602.5A5,5 0 1 1 708.37,602.5Z" style="fill:#FF7AB4" />
<path d="M711.08,580.27A5,5 0 1 1 701.08,580.27A5,5 0 1 1 711.08,580.27Z" style="fill:#FF7AB4" />
<path d="M713.79,566.43A5,5 0 1 1 703.79,566.43A5,5 0 1 1 713.79,566.43Z" style="fill:#FF7AB4" />
<path d="M716.51,550.55A5,5 0 1 1 706.51,550.55A5,5 0 1 1 716.51,550.55Z" style="fill:#FF7AB4" />
<path d="M719.22,533.21A5,5 0 1 1 709.22,533.21A5,5 0 1 1 719.22,533.21Z" style="fill:#FF7AB4" />
<path d="M721.93,521.01A5,5 0 1 1 711.93,521.01A5,5 0 1 1 721.93,521.01Z" style="fill:#FF7AB4" />
<path d="M724.64,507.44A5,5 0 1 1 714.64,507.44A5,5 0 1 1 724.64,507.44Z" style="fill:#FF7AB4" />
<path d="M727.36,493.41A5,5 0 1 1 717.36,493.41A5,5 0 1 1 727.36,493.41Z" style="fill:#FF7AB4" />
<path d="M730.07,481.89A5,5 0 1 1 720.07,481.89A5,5 0 1 1 730.07,481.89Z" style="fill:#FF7AB4" />
<path d="M732.78,468.94A5,5 0 1 1 722.78,468.94A5,5 0 1 1 732.78,468.94Z" style="fill:#FF7AB4" />
<path d="M735.49,455.29A5,5 0 1 1 725.49,455.29A5,5 0 1 1 735.49,455.29Z" style="fill:#FF7AB4" />
<path d="M738.21,440.77A5,5 0 1 1 728.21,440.77A5,5 0 1 1 738.21,440.77Z" style="fill:#FF7AB4" />
<path d="M740.92,426.26A5,5 0 1 1 730.92,426.26A5,5 0 1 1 740.92,426.26Z" style="fill:#FF7AB4" />
<path d="M743.63,409A5,5 0 1 1 733.63,409A5,5 0 1 1 743.63,409Z" style="fill:#FF7AB4" />
<path d="M746.35,406.23A5,5 0 1 1 736.35,406.23A5,5 0 1 1 746.35,406.23Z" style="fill:#FF7AB4" />
<path d="M749.06,396.63A5,5 0 1 1 739.06,396.63A5,5 0 1 1 749.06,396.63Z" style="fill:#FF7AB4" />
<path d="M751.77,382.37A5,5 0 1 1 741.77,382.37A5,5 0 1 1 751.77,382.37Z" style="fill:#FF7AB4" />
<path d="M754.48,373.6A5,5 0 1 1 744.48,373.6A5,5 0 1 1 754.48,373.6Z" style="fill:#FF7AB4" />
<path d="M757.2,368.63A5,5 0 1 1 747.2,368.63A5,5 0 1 1 757.2,368.63Z" style="fill:#FF7AB4" />
<path d="M759.91,360.14A5,5 0 1 1 749.91,360.14A5,5 0 1 1 759.91,360.14Z" style="fill:#FF7AB4" />
<path d="M762.62,346.37A5,5 0 1 1 752.62,346.37A5,5 0 1 1 762.62,346.37Z" style="fill:#FF7AB4" />
<path d="M765.33,336.12A5,5 0 1 1 755.33,336.12A5,5 0 1 1 765.33,336.12Z" style="fill:#FF7AB4" />
<path d="M768.05,324.79A5,5 0 1 1 758.05,324.79A5,5 0 1 1 768.05,324.79Z" style="fill:#FF7AB4" />
<path d="M770.76,313.53A5,5 0 1 1 760.76,313.53A5,5 0 1 1 770.76,313.53Z" style="fill:#FF7AB4" />
<path d="M773.47,312.21A5,5 0 1 1 763.47,312.21A5,5 0 1 1 773.47,312.21Z" style="fill:#FF7AB4" />
<path d="M776.18,302.37A5,5 0 1 1 766.18,302.37A5,5 0 1 1 776.18,302.37Z" style="fill:#FF7AB4" />
<path d="M778.9,296.79A5,5 0 1 1 768.9,296.79A5,5 0 1 1 778.9,296.79Z" style="fill:#FF7AB4" />
<path d="M781.61,287.26A5,5 0 1 1 771.61,287.26A5,5 0 1 1 781.61,287.26Z" style="fill:#FF7AB4" />
<path d="M784.32,283.54A5,5 0 1 1 774.32,283.54A5,5 0 1 1 784.32,283.54Z" style="fill:#FF7AB4" />
<path d="M787.03,275.12A5,5 0 1 1 777.03,275.12A5,5 0 1 1 787.03,275.12Z" style="fill:#FF7AB4" />
<path d="M789.75,268.26A5,5 0 1 1 779.75,268.26A5,5 0 1 1 789.75,268.26Z" style="fill:#FF7AB4" />
<path d="M792.46,262A5,5 0 1 1 782.46,262A5,5 0 1 1 792.46,262Z" style="fill:#FF7AB4" />
<path d="M795.17,257.58A5,5 0 1 1 785.17,257.58A5,5 0 1 1 795.17,257.58Z" style="fill:#FF7AB4" />
<path d="M797.89,247.91A5,5 0 1 1 787.89,247.91A5,5 0 1 1 797.89,247.91Z" style="fill:#FF7AB4" />
<path d="M800.6,248.67A5,5 0 1 1 790.6,248.67A5,5 0 1 1 800.6,248.67Z" style="fill:#FF7AB4" />
<path d="M803.31,235.66A5,5 0 1 1 793.31,235.66A5,5 0 1 1 803.31,235.66Z" style="fill:#FF7AB4" />
<path d="M806.02,234.44A5,5 0 1 1 796.02,234.44A5,5 0 1 1 806.02,234.44Z" style="fill:#FF7AB4" />
<path d="M808.74,229.35A5,5 0 1 1 798.74,229.35A5,5 0 1 1 808.74,229.35Z" style="fill:#FF7AB4" />
<path d="M811.45,226.58A5,5 0 1 1 801.45,226.58A5,5 0 1 1 811.45,226.58Z" style="fill:#FF7AB4" />
<path d="M814.16,221.41A5,5 0 1 1 804.16,221.41A5,5 0 1 1 814.16,221.41Z" style="fill:#FF7AB4" />
<path d="M816.87,215.87A5,5 0 1 1 806.87,215.87A5,5 0 1 1 816.87,215.87Z" style="fill:#FF7AB4" />
<path d="M819.59,212.67A5,5 0 1 1 809.59,212.67A5,5 0 1 1 819.59,212.67Z" style="fill:#FF7AB4" />
<path d="M822.3,210.89A5,5 0 1 1 812.3,210.89A5,5 0 1 1 822.3,210.89Z" style="fill:#FF7AB4" />
<path d="M825.01,206.07A5,5 0 1 1 815.01,206.07A5,5 0 1 1 825.01,206.07Z" style="fill:#FF7AB4" />
<path d="M827.72,199.6A5,5 0 1 1 817.72,199.6A5,5 0 1 1 827.72,199.6Z" style="fill:#FF7AB4" />
<path d="M830.44,199.34A5,5 0 1 1 820.44,199.34A5,5 0 1 1 830.44,199.34Z" style="fill:#FF7AB4" />
<path d="M833.15,195.21A5,5 0 1 1 823.15,195.21A5,5 0 1 1 833.15,195.21Z" style="fill:#FF7AB4" />
<path d="M835.86,193.77A5,5 0 1 1 825.86,193.77A5,5 0 1 1 835.86,193.77Z" style="fill:#FF7AB4" />
<path d="M838.58,189.5A5,5 0 1 1 828.58,189.5A5,5 0 1 1 838.58,189.5Z" style="fill:#FF7AB4" />
<path d="M841.29,186.51A5,5 0 1 1 831.29,186.51A5,5 0 1 1 841.29,186.51Z" style="fill:#FF7AB4" />
<path d="M844,184.22A5,5 0 1 1 834,184.22A5,5 0 1 1 844,184.22Z" style="fill:#FF7AB4" />
<path d="M846.71,181.85A5,5 0 1 1 836.71,181.85A5,5 0 1 1 846.71,181.85Z" style="fill:#FF7AB4" />
<path d="M849.43,176.47A5,5 0 1 1 839.43,176.47A5,5 0 1 1 849.43,176.47Z" style="fill:#FF7AB4" />
<path d="M852.14,176.42A5,5 0 1 1 842.14,176.42A5,5 0 1 1 852.14,176.42Z" style="fill:#FF7AB4" />
<path d="M854.85,172.21A5,5 0 1 1 844.85,172.21A5,5 0 1 1 854.85,172.21Z" style="fill:#FF7AB4" />
<path d="M857.56,170.48A5,5 0 1 1 847.56,170.48A5,5 0 1 1 857.56,170.48Z" style="fill:#FF7AB4" />
<path d="M860.28,169.48A5,5 0 1 1 850.28,169.48A5,5 0 1 1 860.28,169.48Z" style="fill:#FF7AB4" />
<path d="M862.99,165.83A5,5 0 1 1 852.99,165.83A5,5 0 1 1 862.99,165.83Z" style="fill:#FF7AB4" />
<path d="M865.7,163.69A5,5 0 1 1 855.7,163.69A5,5 0 1 1 865.7,163.69Z" style="fill:#FF7AB4" />
<path d="M868.41,160.3A5,5 0 1 1 858.41,160.3A5,5 0 1 1 868.41,160.3Z" style="fill:#FF7AB4" />
<path d="M871.13,161.17A5,5 0 1 1 861.13,161.17A5,5 0 1 1 871.13,161.17Z" style="fill:#FF7AB4" />
<path d="M873.84,155.99A5,5 0 1 1 863.84,155.99A5,5 0 1 1 873.84,155.99Z" style="fill:#FF7AB4" />
<path d="M876.55,157.59A5,5 0 1 1 866.55,157.59A5,5 0 1 1 876.55,157.59Z" style="fill:#FF7AB4" />
<path d="M879.26,152.56A5,5 0 1 1 869.26,152.56A5,5 0 1 1 879.26,152.56Z" style="fill:#FF7AB4" />
<path d="M881.98,151.54A5,5 0 1 1 871.98,151.54A5,5 0 1 1 881.98,151.54Z" style="fill:#FF7AB4" />
<path d="M884.69,151.65A5,5 0 1 1 874.69,151.65A5,5 0 1 1 884.69,151.65Z" style="fill:#FF7AB4" />
<path d="M887.4,151.42A5,5 0 1 1 877.4,151.42A5,5 0 1 1 887.4,151.42Z" style="fill:#FF7AB4" />
<path d="M890.12,149.49A5,5 0 1 1 880.12,149.49A5,5 0 1 1 890.12,149.49Z" style="fill:#FF7AB4" />
<path d="M892.83,148.05A5,5 0 1 1 882.83,148.05A5,5 0 1 1 892.83,148.05Z" style="fill:#FF7AB4" />
<path d="M895.54,146.97A5,5 0 1 1 885.54,146.97A5,5 0 1 1 895.54,146.97Z" style="fill:#FF7AB4" />
<path d="M898.25,141.38A5,5 0 1 1 888.25,141.38A5,5 0 1 1 898.25,141.38Z" style="fill:#FF7AB4" />
<path d="M900.97,140.77A5,5 0 1 1 890.97,140.77A5,5 0 1 1 900.97,140.77Z" style="fill:#FF7AB4" />
<path d="M903.68,140.97A5,5 0 1 1 893.68,140.97A5,5 0 1 1 903.68,140.97Z" style="fill:#FF7AB4" />
<path d="M906.39,139.07A5,5 0 1 1 896.39,139.07A5,5 0 1 1 906.39,139.07Z" style="fill:#FF7AB4" />
<path d="M909.1,139.13A5,5 0 1 1 899.1,139.13A5,5 0 1 1 909.1,139.13Z" style="fill:#FF7AB4" />
<path d="M911.82,137.12A5,5 0 1 1 901.82,137.12A5,5 0 1 1 911.82,137.12Z" style="fill:#FF7AB4" />
<path d="M914.53,137.13A5,5 0 1 1 904.53,137.13A5,5 0 1 1 914.53,137.13Z" style="fill:#FF7AB4" />
<path d="M917.24,133.83A5,5 0 1 1 907.24,133.83A5,5 0 1 1 917.24,133.83Z" style="fill:#FF7AB4" />
<path d="M919.95,133.26A5,5 0 1 1 909.95,133.26A5,5 0 1 1 919.95,133.26Z" style="fill:#FF7AB4" />
<path d="M922.67,132.71A5,5 0 1 1 912.67,132.71A5,5 0 1 1 922.67,132.71Z" style="fill:#FF7AB4" />
<path d="M925.38,131.37A5,5 0 1 1 915.38,131.37A5,5 0 1 1 925.38,131.37Z" style="fill:#FF7AB4" />
<path d="M928.09,130.75A5,5 0 1 1 918.09,130.75A5,5 0 1 1 928.09,130.75Z" style="fill:#FF7AB4" />
<path d="M930.8,130.01A5,5 0 1 1 920.8,130.01A5,5 0 1 1 930.8,130.01Z" style="fill:#FF7AB4" />
<path d="M933.52,129.57A5,5 0 1 1 923.52,129.57A5,5 0 1 1 933.52,129.57Z" style="fill:#FF7AB4" />
<path d="M936.23,128.6A5,5 0 1 1 926.23,128.6A5,5 0 1 1 936.23,128.6Z" style="fill:#FF7AB4" />
<path d="M938.94,127.15A5,5 0 1 1 928.94,127.15A5,5 0 1 1 938.94,127.15Z" style="fill:#FF7AB4" />
<path d="M941.66,127.17A5,5 0 1 1 931.66,127.17A5,5 0 1 1 941.66,127.17Z" style="fill:#FF7AB4" />
<path d="M944.37,124.91A5,5 0 1 1 934.37,124.91A5,5 0 1 1 944.37,124.91Z" style="fill:#FF7AB4" />
<path d="M947.08,124.13A5,5 0 1 1 937.08,124.13A5,5 0 1 1 947.08,124.13Z" style="fill:#FF7AB4" />
<path d="M949.79,123.82A5,5 0 1 1 939.79,123.82A5,5 0 1 1 949.79,123.82Z" style="fill:#FF7AB4" />
<path d="M952.51,123.48A5,5 0 1 1 942.51,123.48A5,5 0 1 1 952.51,123.48Z" style="fill:#FF7AB4" />
<path d="M955.22,121.52A5,5 0 1 1 945.22,121.52A5,5 0 1 1 955.22,121.52Z" style="fill:#FF7AB4" />
<path d="M957.93,123.04A5,5 0 1 1 947.93,123.04A5,5 0 1 1 957.93,123.04Z" style="fill:#FF7AB4" />
<path d="M960.64,122.82A5,5 0 1 1 950.64,122.82A5,5 0 1 1 960.64,122.82Z" style="fill:#FF7AB4" />
<path d="M963.36,121.65A5,5 0 1 1 953.36,121.65A5,5 0 1 1 963.36,121.65Z" style="fill:#FF7AB4" />
<path d="M966.07,121.3A5,5 0 1 1 956.07,121.3A5,5 0 1 1 966.07,121.3Z" style="fill:#FF7AB4" />
<path d="M968.78,122.12A5,5 0 1 1 958.78,122.12A5,5 0 1 1 968.78,122.12Z" style="fill:#FF7AB4" />
<path d="M971.49,119.47A5,5 0 1 1 961.49,119.47A5,5 0 1 1 971.49,119.47Z" style="fill:#FF7AB4" />
<path d="M974.21,117.46A5,5 0 1 1 964.21,117.46A5,5 0 1 1 974.21,117.46Z" style="fill:#FF7AB4" />
<path d="M976.92,118.84A5,5 0 1 1 966.92,118.84A5,5 0 1 1 976.92,118.84Z" style="fill:#FF7AB4" />
<path d="M979.63,117.59A5,5 0 1 1 969.63,117.59A5,5 0 1 1 979.63,117.59Z" style="fill:#FF7AB4" />
<path d="M982.34,117.68A5,5 0 1 1 972.34,117.68A5,5 0 1 1 982.34,117.68Z" style="fill:#FF7AB4" />
<path d="M985.06,117.57A5,5 0 1 1 975.06,117.57A5,5 0 1 1 985.06,117.57Z" style="fill:#FF7AB4" />
<path d="M987.77,114.17A5,5 0 1 1 977.77,114.17A5,5 0 1 1 987.77,114.17Z" style="fill:#FF7AB4" />
<path d="M990.48,115.5A5,5 0 1 1 980.48,115.5A5,5 0 1 1 990.48,115.5Z" style="fill:#FF7AB4" />
<path d="M993.2,114.82A5,5 0 1 1 983.2,114.82A5,5 0 1 1 993.2,114.82Z" style="fill:#FF7AB4" />
<path d="M995.91,115.51A5,5 0 1 1 985.91,115.51A5,5 0 1 1 995.91,115.51Z" style="fill:#FF7AB4" />
<path d="M998.62,112.94A5,5 0 1 1 988.62,112.94A5,5 0 1 1 998.62,112.94Z" style="fill:#FF7AB4" />
<path d="M1001.3,112.36A5,5 0 1 1 991.33,112.36A5,5 0 1 1 1001.3,112.36Z" style="fill:#FF7AB4" />
<path d="M1004,113.36A5,5 0 1 1 994.05,113.36A5,5 0 1 1 1004,113.36Z" style="fill:#FF7AB4" />
<path d="M1006.8,112.97A5,5 0 1 1 996.76,112.97A5,5 0 1 1 1006.8,112.97Z" style="fill:#FF7AB4" />
<path d="M1009.5,111.53A5,5 0 1 1 999.47,111.53A5,5 0 1 1 1009.5,111.53Z" style="fill:#FF7AB4" />
<path d="M1012.2,112.27A5,5 0 1 1 1002.2,112.27A5,5 0 1 1 1012.2,112.27Z" style="fill:#FF7AB4" />
<path d="M1014.9,112.12A5,5 0 1 1 1004.9,112.12A5,5 0 1 1 1014.9,112.12Z" style="fill:#FF7AB4" />
<path d="M1017.6,111.94A5,5 0 1 1 1007.6,111.94A5,5 0 1 1 1017.6,111.94Z" style="fill:#FF7AB4" />
<path d="M1020.3,109.92A5,5 0 1 1 1010.3,109.92A5,5 0 1 1 1020.3,109.92Z" style="fill:#FF7AB4" />
<path d="M1023,109.69A5,5 0 1 1 1013,109.69A5,5 0 1 1 1023,109.69Z" style="fill:#FF7AB4" />
<path d="M1025.7,108.05A5,5 0 1 1 1015.7,108.05A5,5 0 1 1 1025.7,108.05Z" style="fill:#FF7AB4" />
<path d="M1028.5,109.21A5,5 0 1 1 1018.5,109.21A5,5 0 1 1 1028.5,109.21Z" style="fill:#FF7AB4" />
<path d="M1031.2,108.66A5,5 0 1 1 1021.2,108.66A5,5 0 1 1 1031.2,108.66Z" style="fill:#FF7AB4" />
<path d="M1033.9,108.2A5,5 0 1 1 1023.9,108.2A5,5 0 1 1 1033.9,108.2Z" style="fill:#FF7AB4" />
<path d="M1036.6,108.15A5,5 0 1 1 1026.6,108.15A5,5 0 1 1 1036.6,108.15Z" style="fill:#FF7AB4" />
<path d="M1039.3,109.5A5,5 0 1 1 1029.3,109.5A5,5 0 1 1 1039.3,109.5Z" style="fill:#FF7AB4" />
<path d="M1042,109.17A5,5 0 1 1 1032,109.17A5,5 0 1 1 1042,109.17Z" style="fill:#FF7AB4" />
<path d="M1044.7,107.55A5,5 0 1 1 1034.7,107.55A5,5 0 1 1 1044.7,107.55Z" style="fill:#FF7AB4" />
<path d="M1047.4,106.86A5,5 0 1 1 1037.4,106.86A5,5 0 1 1 1047.4,106.86Z" style="fill:#FF7AB4" />
<path d="M1050.2,108.59A5,5 0 1 1 1040.2,108.59A5,5 0 1 1 1050.2,108.59Z" style="fill:#FF7AB4" />
<path d="M1052.9,106.34A5,5 0 1 1 1042.9,106.34A5,5 0 1 1 1052.9,106.34Z" style="fill:#FF7AB4" />
<path d="M1055.6,105.39A5,5 0 1 1 1045.6,105.39A5,5 0 1 1 1055.6,105.39Z" style="fill:#FF7AB4" />
<path d="M1058.3,104.99A5,5 0 1 1 1048.3,104.99A5,5 0 1 1 1058.3,104.99Z" style="fill:#FF7AB4" />
<path d="M1061,106.31A5,5 0 1 1 1051,106.31A5,5 0 1 1 1061,106.31Z" style="fill:#FF7AB4" />
<path d="M1063.7,105.08A5,5 0 1 1 1053.7,105.08A5,5 0 1 1 1063.7,105.08Z" style="fill:#FF7AB4" />
<path d="M1066.4,104.96A5,5 0 1 1 1056.4,104.96A5,5 0 1 1 1066.4,104.96Z" style="fill:#FF7AB4" />
<path d="M1069.1,104.3A5,5 0 1 1 1059.1,104.3A5,5 0 1 1 1069.1,104.3Z" style="fill:#FF7AB4" />
<path d="M1071.9,106.19A5,5 0 1 1 1061.9,106.19A5,5 0 1 1 1071.9,106.19Z" style="fill:#FF7AB4" />
<path d="M1074.6,104.28A5,5 0 1 1 1064.6,104.28A5,5 0 1 1 1074.6,104.28Z" style="fill:#FF7AB4" />
<path d="M1077.3,103.28A5,5 0 1 1 1067.3,103.28A5,5 0 1 1 1077.3,103.28Z" style="fill:#FF7AB4" />
<path d="M1080,103.96A5,5 0 1 1 1070,103.96A5,5 0 1 1 1080,103.96Z" style="fill:#FF7AB4" />
<path d="M101.16,1029.1L1075,1029.1" style="fill:none;stroke:#000000;stroke-width:2.5" />
<path d="M1075,77.531L1075,1029.1" style="fill:none;stroke:#000000;stroke-width:2.5" />
<path d="M1012,974.69A7,7 0 1 1 998,974.69A7,7 0 1 1 1012,974.69Z" style="fill:#FF7AB4" />
<text x="786.64" y="-967.62" transform="scale(1, -1)"
	style="font-family:Liberation Sans;font-variant:normal;font-weight:normal;font-style:normal;font-size:30px">1 mm UHNA3</text>
</g>
</svg>
