<?xml version="1.0"?>
<!-- Generated by SVGo and Plotinum VG -->
<svg width="1080pt" height="1080pt" viewBox="0 0 1080 1080"
	xmlns="http://www.w3.org/2000/svg"
	xmlns:xlink="http://www.w3.org/1999/xlink">
<g transform="scale(1, -1) translate(0, -1080)">
<path d="M0,0L1080,0L1080,1080L0,1080Z" style="fill:#-8000000000000000-8000000000000000-8000000000000000;fill-opacity:0" />
<text x="71.799" y="-1039.5" transform="scale(1, -1)"
	style="font-family:Helvetica;font-weight:normal;font-style:normal;font-size:50px">Anti-Stokes Pump Power vs Widths of Fits</text>
<text x="446.8" y="-11.039" transform="scale(1, -1)"
	style="font-family:Helvetica;font-weight:normal;font-style:normal;font-size:36px">Pump Power (mW)</text>
<text x="200.6" y="-71.258" transform="scale(1, -1)"
	style="font-family:Helvetica;font-weight:normal;font-style:normal;font-size:36px">0</text>
<text x="400.43" y="-71.258" transform="scale(1, -1)"
	style="font-family:Helvetica;font-weight:normal;font-style:normal;font-size:36px">50</text>
<text x="600.26" y="-71.258" transform="scale(1, -1)"
	style="font-family:Helvetica;font-weight:normal;font-style:normal;font-size:36px">100</text>
<text x="810.1" y="-71.258" transform="scale(1, -1)"
	style="font-family:Helvetica;font-weight:normal;font-style:normal;font-size:36px">150</text>
<text x="1019.9" y="-71.258" transform="scale(1, -1)"
	style="font-family:Helvetica;font-weight:normal;font-style:normal;font-size:36px">200</text>
<path d="M210.62,116.44L210.62,108.44" style="fill:none;stroke:#000000;stroke-width:1.5" />
<path d="M315.53,112.44L315.53,108.44" style="fill:none;stroke:#000000;stroke-width:1.5" />
<path d="M420.45,116.44L420.45,108.44" style="fill:none;stroke:#000000;stroke-width:1.5" />
<path d="M525.37,112.44L525.37,108.44" style="fill:none;stroke:#000000;stroke-width:1.5" />
<path d="M630.29,116.44L630.29,108.44" style="fill:none;stroke:#000000;stroke-width:1.5" />
<path d="M735.21,112.44L735.21,108.44" style="fill:none;stroke:#000000;stroke-width:1.5" />
<path d="M840.13,116.44L840.13,108.44" style="fill:none;stroke:#000000;stroke-width:1.5" />
<path d="M945.05,112.44L945.05,108.44" style="fill:none;stroke:#000000;stroke-width:1.5" />
<path d="M1050,116.44L1050,108.44" style="fill:none;stroke:#000000;stroke-width:1.5" />
<path d="M147.66,108.44L1050,108.44" style="fill:none;stroke:#000000;stroke-width:1.5" />
<g transform="rotate(90)">
<text x="331.34" y="29.18" transform="scale(1, -1)"
	style="font-family:Helvetica;font-weight:normal;font-style:normal;font-size:36px">Full Width Half Max (MHz)</text>
</g>
<text x="67.848" y="-221.63" transform="scale(1, -1)"
	style="font-family:Helvetica;font-weight:normal;font-style:normal;font-size:36px">100</text>
<text x="67.848" y="-573.82" transform="scale(1, -1)"
	style="font-family:Helvetica;font-weight:normal;font-style:normal;font-size:36px">300</text>
<text x="67.848" y="-926.01" transform="scale(1, -1)"
	style="font-family:Helvetica;font-weight:normal;font-style:normal;font-size:36px">500</text>
<path d="M153.91,230.7L145.91,230.7" style="fill:none;stroke:#000000;stroke-width:1.5" />
<path d="M153.91,582.89L145.91,582.89" style="fill:none;stroke:#000000;stroke-width:1.5" />
<path d="M153.91,935.08L145.91,935.08" style="fill:none;stroke:#000000;stroke-width:1.5" />
<path d="M149.91,406.79L145.91,406.79" style="fill:none;stroke:#000000;stroke-width:1.5" />
<path d="M149.91,758.98L145.91,758.98" style="fill:none;stroke:#000000;stroke-width:1.5" />
<path d="M145.91,114.57L145.91,968.14" style="fill:none;stroke:#000000;stroke-width:1.5" />
<path d="M993.02,181.53A6,6 0 1 1 981.02,181.53A6,6 0 1 1 993.02,181.53Z" style="fill:#1BAA8B" />
<path d="M987.02,213.09L987.02,181.53" style="fill:none;stroke:#1BAA8B;stroke-width:4;stroke-dasharray:15,5" />
<path d="M147.66,181.53L987.02,181.53" style="fill:none;stroke:#7F7F7F;stroke-dasharray:5,5" />
<path d="M594.32,171.66A6,6 0 1 1 582.32,171.66A6,6 0 1 1 594.32,171.66Z" style="fill:#BC75FF" />
<path d="M588.32,213.09L588.32,171.66" style="fill:none;stroke:#BC75FF;stroke-width:4;stroke-dasharray:15,5" />
<path d="M147.66,171.66L588.32,171.66" style="fill:none;stroke:#7F7F7F;stroke-dasharray:5,5" />
<path d="M405.47,114.57A6,6 0 1 1 393.47,114.57A6,6 0 1 1 405.47,114.57Z" style="fill:#8C2E31" />
<path d="M399.47,213.09L399.47,114.57" style="fill:none;stroke:#8C2E31;stroke-width:4;stroke-dasharray:15,5" />
<path d="M147.66,114.57L399.47,114.57" style="fill:none;stroke:#7F7F7F;stroke-dasharray:5,5" />
<path d="M300.55,968.14A6,6 0 1 1 288.55,968.14A6,6 0 1 1 300.55,968.14Z" style="fill:#5B1616" />
<path d="M294.55,213.09L294.55,968.14" style="fill:none;stroke:#5B1616;stroke-width:4;stroke-dasharray:15,5" />
<path d="M147.66,968.14L294.55,968.14" style="fill:none;stroke:#7F7F7F;stroke-dasharray:5,5" />
<path d="M1011,908.43A6,6 0 1 1 999,908.43A6,6 0 1 1 1011,908.43Z" style="fill:#1BAA8B" />
<text x="835.96" y="-899.95" transform="scale(1, -1)"
	style="font-family:Helvetica;font-weight:normal;font-style:normal;font-size:36px">185 mW</text>
<path d="M1011,867.02A6,6 0 1 1 999,867.02A6,6 0 1 1 1011,867.02Z" style="fill:#BC75FF" />
<text x="855.99" y="-858.54" transform="scale(1, -1)"
	style="font-family:Helvetica;font-weight:normal;font-style:normal;font-size:36px">90 mW</text>
<path d="M1011,825.61A6,6 0 1 1 999,825.61A6,6 0 1 1 1011,825.61Z" style="fill:#8C2E31" />
<text x="855.99" y="-817.13" transform="scale(1, -1)"
	style="font-family:Helvetica;font-weight:normal;font-style:normal;font-size:36px">45 mW</text>
<path d="M1011,784.2A6,6 0 1 1 999,784.2A6,6 0 1 1 1011,784.2Z" style="fill:#5B1616" />
<text x="855.99" y="-775.72" transform="scale(1, -1)"
	style="font-family:Helvetica;font-weight:normal;font-style:normal;font-size:36px">20 mW</text>
</g>
</svg>
