<?xml version="1.0"?>
<!-- Generated by SVGo and Plotinum VG -->
<svg width="1080pt" height="1080pt" viewBox="0 0 1080 1080"
	xmlns="http://www.w3.org/2000/svg"
	xmlns:xlink="http://www.w3.org/1999/xlink">
<g transform="scale(1, -1) translate(0, -1080)">
<path d="M0,0L1080,0L1080,1080L0,1080Z" style="fill:#-8000000000000000-8000000000000000-8000000000000000;fill-opacity:0" />
<text x="175.39" y="-1015.2" transform="scale(1, -1)"
	style="font-family:Helvetica;font-weight:normal;font-style:normal;font-size:80px">Linewidths vs Power</text>
<text x="479.93" y="-17.172" transform="scale(1, -1)"
	style="font-family:Helvetica;font-weight:normal;font-style:normal;font-size:56px">Power (mW)</text>
<text x="405.43" y="-119.73" transform="scale(1, -1)"
	style="font-family:Helvetica;font-weight:normal;font-style:normal;font-size:56px">50</text>
<text x="588.76" y="-119.73" transform="scale(1, -1)"
	style="font-family:Helvetica;font-weight:normal;font-style:normal;font-size:56px">100</text>
<text x="787.66" y="-119.73" transform="scale(1, -1)"
	style="font-family:Helvetica;font-weight:normal;font-style:normal;font-size:56px">150</text>
<text x="986.57" y="-119.73" transform="scale(1, -1)"
	style="font-family:Helvetica;font-weight:normal;font-style:normal;font-size:56px">200</text>
<path d="M237.67,177.12L237.67,173.12" style="fill:none;stroke:#000000;stroke-width:1.5" />
<path d="M337.12,177.12L337.12,173.12" style="fill:none;stroke:#000000;stroke-width:1.5" />
<path d="M436.57,181.12L436.57,173.12" style="fill:none;stroke:#000000;stroke-width:1.5" />
<path d="M536.03,177.12L536.03,173.12" style="fill:none;stroke:#000000;stroke-width:1.5" />
<path d="M635.48,181.12L635.48,173.12" style="fill:none;stroke:#000000;stroke-width:1.5" />
<path d="M734.93,177.12L734.93,173.12" style="fill:none;stroke:#000000;stroke-width:1.5" />
<path d="M834.38,181.12L834.38,173.12" style="fill:none;stroke:#000000;stroke-width:1.5" />
<path d="M933.83,177.12L933.83,173.12" style="fill:none;stroke:#000000;stroke-width:1.5" />
<path d="M1033.3,181.12L1033.3,173.12" style="fill:none;stroke:#000000;stroke-width:1.5" />
<path d="M237.67,173.12L1033.3,173.12" style="fill:none;stroke:#000000;stroke-width:1.5" />
<g transform="rotate(90)">
<text x="253.09" y="45.391" transform="scale(1, -1)"
	style="font-family:Helvetica;font-weight:normal;font-style:normal;font-size:56px">Dissipation Rate (MHz)</text>
</g>
<text x="145.57" y="-221.97" transform="scale(1, -1)"
	style="font-family:Helvetica;font-weight:normal;font-style:normal;font-size:56px">80</text>
<text x="114.43" y="-280.8" transform="scale(1, -1)"
	style="font-family:Helvetica;font-weight:normal;font-style:normal;font-size:56px">100</text>
<text x="118.59" y="-339.63" transform="scale(1, -1)"
	style="font-family:Helvetica;font-weight:normal;font-style:normal;font-size:56px">110</text>
<path d="M235.42,177.24L231.42,177.24" style="fill:none;stroke:#000000;stroke-width:1.5" />
<path d="M235.42,206.66L231.42,206.66" style="fill:none;stroke:#000000;stroke-width:1.5" />
<path d="M239.42,236.08L231.42,236.08" style="fill:none;stroke:#000000;stroke-width:1.5" />
<path d="M235.42,265.49L231.42,265.49" style="fill:none;stroke:#000000;stroke-width:1.5" />
<path d="M239.42,294.91L231.42,294.91" style="fill:none;stroke:#000000;stroke-width:1.5" />
<path d="M235.42,324.32L231.42,324.32" style="fill:none;stroke:#000000;stroke-width:1.5" />
<path d="M239.42,353.74L231.42,353.74" style="fill:none;stroke:#000000;stroke-width:1.5" />
<path d="M231.42,177.24L231.42,904.62" style="fill:none;stroke:#000000;stroke-width:1.5" />
<path d="M237.67,297.56L555.92,309.96L913.94,323.92" style="fill:none;stroke:#637CC6;stroke-width:3" />
<path d="M237.67,429.72L555.92,645.01L913.94,887.2" style="fill:none;stroke:#C96892;stroke-width:3" />
<path d="M237.67,264.02L237.67,264.02" style="fill:none;stroke:#005980;stroke-width:3" />
<path d="M237.67,264.02L237.67,264.02" style="fill:none;stroke:#005980;stroke-width:3" />
<path d="M243.67,292.4A6,6 0 1 1 231.67,292.4A6,6 0 1 1 243.67,292.4Z" style="fill:#637CC6" />
<path d="M561.92,319.72A6,6 0 1 1 549.92,319.72A6,6 0 1 1 561.92,319.72Z" style="fill:#637CC6" />
<path d="M919.94,319.33A6,6 0 1 1 907.94,319.33A6,6 0 1 1 919.94,319.33Z" style="fill:#637CC6" />
<path d="M243.67,292.28A6,6 0 1 1 231.67,292.28A6,6 0 1 1 243.67,292.28Z" style="fill:#C96892" />
<path d="M561.92,904.62A6,6 0 1 1 549.92,904.62A6,6 0 1 1 561.92,904.62Z" style="fill:#C96892" />
<path d="M919.94,765.03A6,6 0 1 1 907.94,765.03A6,6 0 1 1 919.94,765.03Z" style="fill:#C96892" />
<path d="M1005,852.33L1055,852.33" style="fill:none;stroke:#637CC6;stroke-width:3" />
<text x="703.1" y="-839.14" transform="scale(1, -1)"
	style="font-family:Helvetica;font-weight:normal;font-style:normal;font-size:56px">Anti-Stokes</text>
<path d="M1005,793.47L1055,793.47" style="fill:none;stroke:#005980;stroke-width:3" />
<text x="822.64" y="-780.27" transform="scale(1, -1)"
	style="font-family:Helvetica;font-weight:normal;font-style:normal;font-size:56px">Γas,eff</text>
<path d="M1005,734.6L1055,734.6" style="fill:none;stroke:#C96892;stroke-width:3" />
<text x="818.24" y="-721.41" transform="scale(1, -1)"
	style="font-family:Helvetica;font-weight:normal;font-style:normal;font-size:56px">Stokes</text>
<path d="M1005,675.74L1055,675.74" style="fill:none;stroke:#005980;stroke-width:3" />
<text x="853.79" y="-662.55" transform="scale(1, -1)"
	style="font-family:Helvetica;font-weight:normal;font-style:normal;font-size:56px">Γs,eff</text>
</g>
</svg>
