<?xml version="1.0"?>
<!-- Generated by SVGo and Plotinum VG -->
<svg width="1080pt" height="1080pt" viewBox="0 0 1080 1080"
	xmlns="http://www.w3.org/2000/svg"
	xmlns:xlink="http://www.w3.org/1999/xlink">
<g transform="scale(1, -1) translate(0, -1080)">
<path d="M0,0L1080,0L1080,1080L0,1080Z" style="fill:#-8000000000000000-8000000000000000-8000000000000000;fill-opacity:0" />
<text x="255.56" y="-1039.5" transform="scale(1, -1)"
	style="font-family:Helvetica;font-weight:normal;font-style:normal;font-size:50px">4. Negative Sloped Offset</text>
<text x="361.97" y="-11.039" transform="scale(1, -1)"
	style="font-family:Helvetica;font-weight:normal;font-style:normal;font-size:36px">Pump-Probe Separation (GHz)</text>
<text x="231.01" y="-71.258" transform="scale(1, -1)"
	style="font-family:Helvetica;font-weight:normal;font-style:normal;font-size:36px">5</text>
<text x="430.74" y="-71.258" transform="scale(1, -1)"
	style="font-family:Helvetica;font-weight:normal;font-style:normal;font-size:36px">15</text>
<text x="640.49" y="-71.258" transform="scale(1, -1)"
	style="font-family:Helvetica;font-weight:normal;font-style:normal;font-size:36px">25</text>
<text x="850.23" y="-71.258" transform="scale(1, -1)"
	style="font-family:Helvetica;font-weight:normal;font-style:normal;font-size:36px">35</text>
<path d="M136.14,112.44L136.14,108.44" style="fill:none;stroke:#000000;stroke-width:1.5" />
<path d="M241.02,116.44L241.02,108.44" style="fill:none;stroke:#000000;stroke-width:1.5" />
<path d="M345.89,112.44L345.89,108.44" style="fill:none;stroke:#000000;stroke-width:1.5" />
<path d="M450.76,116.44L450.76,108.44" style="fill:none;stroke:#000000;stroke-width:1.5" />
<path d="M555.64,112.44L555.64,108.44" style="fill:none;stroke:#000000;stroke-width:1.5" />
<path d="M660.51,116.44L660.51,108.44" style="fill:none;stroke:#000000;stroke-width:1.5" />
<path d="M765.38,112.44L765.38,108.44" style="fill:none;stroke:#000000;stroke-width:1.5" />
<path d="M870.25,116.44L870.25,108.44" style="fill:none;stroke:#000000;stroke-width:1.5" />
<path d="M975.13,112.44L975.13,108.44" style="fill:none;stroke:#000000;stroke-width:1.5" />
<path d="M1080,112.44L1080,108.44" style="fill:none;stroke:#000000;stroke-width:1.5" />
<path d="M136.14,108.44L1080,108.44" style="fill:none;stroke:#000000;stroke-width:1.5" />
<g transform="rotate(90)">
<text x="364.4" y="29.18" transform="scale(1, -1)"
	style="font-family:Helvetica;font-weight:normal;font-style:normal;font-size:36px">Peak Spectral Density</text>
</g>
<text x="67.848" y="-243.97" transform="scale(1, -1)"
	style="font-family:Helvetica;font-weight:normal;font-style:normal;font-size:36px">0.5</text>
<text x="67.848" y="-532.41" transform="scale(1, -1)"
	style="font-family:Helvetica;font-weight:normal;font-style:normal;font-size:36px">1.5</text>
<text x="67.848" y="-820.85" transform="scale(1, -1)"
	style="font-family:Helvetica;font-weight:normal;font-style:normal;font-size:36px">2.5</text>
<path d="M139.89,108.82L135.89,108.82" style="fill:none;stroke:#000000;stroke-width:1.5" />
<path d="M143.89,253.04L135.89,253.04" style="fill:none;stroke:#000000;stroke-width:1.5" />
<path d="M139.89,397.26L135.89,397.26" style="fill:none;stroke:#000000;stroke-width:1.5" />
<path d="M143.89,541.48L135.89,541.48" style="fill:none;stroke:#000000;stroke-width:1.5" />
<path d="M139.89,685.7L135.89,685.7" style="fill:none;stroke:#000000;stroke-width:1.5" />
<path d="M143.89,829.92L135.89,829.92" style="fill:none;stroke:#000000;stroke-width:1.5" />
<path d="M139.89,974.14L135.89,974.14" style="fill:none;stroke:#000000;stroke-width:1.5" />
<path d="M135.89,108.82L135.89,974.14" style="fill:none;stroke:#000000;stroke-width:1.5" />
<path d="M282.94,808.62L293.43,631.5L303.91,483.91L314.4,366.25L324.88,277.7L335.37,216.34L345.85,179.32L356.34,163.11L366.82,163.73L377.31,176.97L387.79,198.64L398.28,224.78L408.76,251.84L419.25,276.85L429.73,297.47L440.22,312.08L450.7,319.76L461.18,320.29L471.67,314.04L482.15,301.88L492.64,285.05L503.12,265.06L513.6,243.47L524.09,221.87L534.57,201.67L545.06,184.07L555.54,169.96L566.02,159.88L576.51,154.03L586.99,152.28L597.47,154.19L607.96,159.09L618.44,166.14L628.93,174.43L639.41,183L649.89,190.99L660.38,197.65L670.86,202.38L681.34,204.82L691.83,204.81L702.31,202.4L712.79,197.85L723.27,191.56L733.76,184.05L744.24,175.92L754.72,167.77L765.21,160.16L775.69,153.59L786.17,148.44L796.65,144.94L807.14,143.2L817.62,143.16L828.1,144.63L838.58,147.33L849.07,150.87L859.55,154.84L870.03,158.81L880.51,162.38L890.99,165.19L901.48,166.99L911.96,167.61L922.44,166.99L932.92,165.18L943.4,162.33L953.89,158.65L964.37,154.44L974.85,150L985.33,145.65L995.81,141.68L1006.3,138.36L1016.8,135.85" style="fill:none;stroke:#1B10000;stroke-opacity:0.58824;stroke-width:10" />
<path d="M136.14,974.14L1080,974.14" style="fill:none;stroke:#000000" />
<path d="M1080,108.82L1080,974.14" style="fill:none;stroke:#000000" />
<path d="M249.02,898.73A8,8 0 1 1 233.02,898.73A8,8 0 1 1 249.02,898.73Z" style="fill:#1FD3AC" />
<path d="M259.5,755.77A8,8 0 1 1 243.5,755.77A8,8 0 1 1 259.5,755.77Z" style="fill:#1FD3AC" />
<path d="M269.99,695.41A8,8 0 1 1 253.99,695.41A8,8 0 1 1 269.99,695.41Z" style="fill:#1FD3AC" />
<path d="M280.48,667.96A8,8 0 1 1 264.48,667.96A8,8 0 1 1 280.48,667.96Z" style="fill:#1FD3AC" />
<path d="M290.97,571.43A8,8 0 1 1 274.97,571.43A8,8 0 1 1 290.97,571.43Z" style="fill:#1FD3AC" />
<path d="M301.45,476.87A8,8 0 1 1 285.45,476.87A8,8 0 1 1 301.45,476.87Z" style="fill:#1FD3AC" />
<path d="M311.94,461.96A8,8 0 1 1 295.94,461.96A8,8 0 1 1 311.94,461.96Z" style="fill:#1FD3AC" />
<path d="M322.43,390.89A8,8 0 1 1 306.43,390.89A8,8 0 1 1 322.43,390.89Z" style="fill:#1FD3AC" />
<path d="M332.92,349.26A8,8 0 1 1 316.92,349.26A8,8 0 1 1 332.92,349.26Z" style="fill:#1FD3AC" />
<path d="M343.4,268.53A8,8 0 1 1 327.4,268.53A8,8 0 1 1 343.4,268.53Z" style="fill:#1FD3AC" />
<path d="M353.89,219.92A8,8 0 1 1 337.89,219.92A8,8 0 1 1 353.89,219.92Z" style="fill:#1FD3AC" />
<path d="M364.38,193.85A8,8 0 1 1 348.38,193.85A8,8 0 1 1 364.38,193.85Z" style="fill:#1FD3AC" />
<path d="M374.86,174.64A8,8 0 1 1 358.86,174.64A8,8 0 1 1 374.86,174.64Z" style="fill:#1FD3AC" />
<path d="M385.35,175.94A8,8 0 1 1 369.35,175.94A8,8 0 1 1 385.35,175.94Z" style="fill:#1FD3AC" />
<path d="M395.84,211.45A8,8 0 1 1 379.84,211.45A8,8 0 1 1 395.84,211.45Z" style="fill:#1FD3AC" />
<path d="M406.33,231.72A8,8 0 1 1 390.33,231.72A8,8 0 1 1 406.33,231.72Z" style="fill:#1FD3AC" />
<path d="M416.81,249.45A8,8 0 1 1 400.81,249.45A8,8 0 1 1 416.81,249.45Z" style="fill:#1FD3AC" />
<path d="M427.3,280.47A8,8 0 1 1 411.3,280.47A8,8 0 1 1 427.3,280.47Z" style="fill:#1FD3AC" />
<path d="M437.79,293.84A8,8 0 1 1 421.79,293.84A8,8 0 1 1 437.79,293.84Z" style="fill:#1FD3AC" />
<path d="M448.28,298.85A8,8 0 1 1 432.28,298.85A8,8 0 1 1 448.28,298.85Z" style="fill:#1FD3AC" />
<path d="M458.76,295.43A8,8 0 1 1 442.76,295.43A8,8 0 1 1 458.76,295.43Z" style="fill:#1FD3AC" />
<path d="M469.25,293.61A8,8 0 1 1 453.25,293.61A8,8 0 1 1 469.25,293.61Z" style="fill:#1FD3AC" />
<path d="M479.74,302.93A8,8 0 1 1 463.74,302.93A8,8 0 1 1 479.74,302.93Z" style="fill:#1FD3AC" />
<path d="M490.22,286.49A8,8 0 1 1 474.22,286.49A8,8 0 1 1 490.22,286.49Z" style="fill:#1FD3AC" />
<path d="M500.71,284.87A8,8 0 1 1 484.71,284.87A8,8 0 1 1 500.71,284.87Z" style="fill:#1FD3AC" />
<path d="M511.2,267A8,8 0 1 1 495.2,267A8,8 0 1 1 511.2,267Z" style="fill:#1FD3AC" />
<path d="M521.69,247.36A8,8 0 1 1 505.69,247.36A8,8 0 1 1 521.69,247.36Z" style="fill:#1FD3AC" />
<path d="M532.17,232.46A8,8 0 1 1 516.17,232.46A8,8 0 1 1 532.17,232.46Z" style="fill:#1FD3AC" />
<path d="M542.66,222.3A8,8 0 1 1 526.66,222.3A8,8 0 1 1 542.66,222.3Z" style="fill:#1FD3AC" />
<path d="M553.15,193.2A8,8 0 1 1 537.15,193.2A8,8 0 1 1 553.15,193.2Z" style="fill:#1FD3AC" />
<path d="M563.64,159.97A8,8 0 1 1 547.64,159.97A8,8 0 1 1 563.64,159.97Z" style="fill:#1FD3AC" />
<path d="M574.12,156.12A8,8 0 1 1 558.12,156.12A8,8 0 1 1 574.12,156.12Z" style="fill:#1FD3AC" />
<path d="M584.61,147.76A8,8 0 1 1 568.61,147.76A8,8 0 1 1 584.61,147.76Z" style="fill:#1FD3AC" />
<path d="M595.1,141.99A8,8 0 1 1 579.1,141.99A8,8 0 1 1 595.1,141.99Z" style="fill:#1FD3AC" />
<path d="M605.58,146.35A8,8 0 1 1 589.58,146.35A8,8 0 1 1 605.58,146.35Z" style="fill:#1FD3AC" />
<path d="M616.07,150.18A8,8 0 1 1 600.07,150.18A8,8 0 1 1 616.07,150.18Z" style="fill:#1FD3AC" />
<path d="M626.56,153.88A8,8 0 1 1 610.56,153.88A8,8 0 1 1 626.56,153.88Z" style="fill:#1FD3AC" />
<path d="M637.05,166.47A8,8 0 1 1 621.05,166.47A8,8 0 1 1 637.05,166.47Z" style="fill:#1FD3AC" />
<path d="M647.53,176.58A8,8 0 1 1 631.53,176.58A8,8 0 1 1 647.53,176.58Z" style="fill:#1FD3AC" />
<path d="M658.02,183.45A8,8 0 1 1 642.02,183.45A8,8 0 1 1 658.02,183.45Z" style="fill:#1FD3AC" />
<path d="M668.51,192.92A8,8 0 1 1 652.51,192.92A8,8 0 1 1 668.51,192.92Z" style="fill:#1FD3AC" />
<path d="M679,196.1A8,8 0 1 1 663,196.1A8,8 0 1 1 679,196.1Z" style="fill:#1FD3AC" />
<path d="M689.48,201.76A8,8 0 1 1 673.48,201.76A8,8 0 1 1 689.48,201.76Z" style="fill:#1FD3AC" />
<path d="M699.97,202.51A8,8 0 1 1 683.97,202.51A8,8 0 1 1 699.97,202.51Z" style="fill:#1FD3AC" />
<path d="M710.46,198.28A8,8 0 1 1 694.46,198.28A8,8 0 1 1 710.46,198.28Z" style="fill:#1FD3AC" />
<path d="M720.95,200.03A8,8 0 1 1 704.95,200.03A8,8 0 1 1 720.95,200.03Z" style="fill:#1FD3AC" />
<path d="M731.43,195.79A8,8 0 1 1 715.43,195.79A8,8 0 1 1 731.43,195.79Z" style="fill:#1FD3AC" />
<path d="M741.92,186.86A8,8 0 1 1 725.92,186.86A8,8 0 1 1 741.92,186.86Z" style="fill:#1FD3AC" />
<path d="M752.41,185.74A8,8 0 1 1 736.41,185.74A8,8 0 1 1 752.41,185.74Z" style="fill:#1FD3AC" />
<path d="M762.89,177.24A8,8 0 1 1 746.89,177.24A8,8 0 1 1 762.89,177.24Z" style="fill:#1FD3AC" />
<path d="M773.38,167.36A8,8 0 1 1 757.38,167.36A8,8 0 1 1 773.38,167.36Z" style="fill:#1FD3AC" />
<path d="M783.87,162.23A8,8 0 1 1 767.87,162.23A8,8 0 1 1 783.87,162.23Z" style="fill:#1FD3AC" />
<path d="M794.36,146.4A8,8 0 1 1 778.36,146.4A8,8 0 1 1 794.36,146.4Z" style="fill:#1FD3AC" />
<path d="M804.84,140.75A8,8 0 1 1 788.84,140.75A8,8 0 1 1 804.84,140.75Z" style="fill:#1FD3AC" />
<path d="M815.33,135.1A8,8 0 1 1 799.33,135.1A8,8 0 1 1 815.33,135.1Z" style="fill:#1FD3AC" />
<path d="M825.82,134.66A8,8 0 1 1 809.82,134.66A8,8 0 1 1 825.82,134.66Z" style="fill:#1FD3AC" />
<path d="M836.31,133.62A8,8 0 1 1 820.31,133.62A8,8 0 1 1 836.31,133.62Z" style="fill:#1FD3AC" />
<path d="M846.79,143.33A8,8 0 1 1 830.79,143.33A8,8 0 1 1 846.79,143.33Z" style="fill:#1FD3AC" />
<path d="M857.28,142.63A8,8 0 1 1 841.28,142.63A8,8 0 1 1 857.28,142.63Z" style="fill:#1FD3AC" />
<path d="M867.77,147.25A8,8 0 1 1 851.77,147.25A8,8 0 1 1 867.77,147.25Z" style="fill:#1FD3AC" />
<path d="M878.25,151.99A8,8 0 1 1 862.25,151.99A8,8 0 1 1 878.25,151.99Z" style="fill:#1FD3AC" />
<path d="M888.74,156.78A8,8 0 1 1 872.74,156.78A8,8 0 1 1 888.74,156.78Z" style="fill:#1FD3AC" />
<path d="M899.23,163.07A8,8 0 1 1 883.23,163.07A8,8 0 1 1 899.23,163.07Z" style="fill:#1FD3AC" />
<path d="M909.72,166.34A8,8 0 1 1 893.72,166.34A8,8 0 1 1 909.72,166.34Z" style="fill:#1FD3AC" />
<path d="M920.2,172.41A8,8 0 1 1 904.2,172.41A8,8 0 1 1 920.2,172.41Z" style="fill:#1FD3AC" />
<path d="M930.69,167.68A8,8 0 1 1 914.69,167.68A8,8 0 1 1 930.69,167.68Z" style="fill:#1FD3AC" />
<path d="M941.18,169.85A8,8 0 1 1 925.18,169.85A8,8 0 1 1 941.18,169.85Z" style="fill:#1FD3AC" />
<path d="M951.67,168.65A8,8 0 1 1 935.67,168.65A8,8 0 1 1 951.67,168.65Z" style="fill:#1FD3AC" />
<path d="M962.15,165.66A8,8 0 1 1 946.15,165.66A8,8 0 1 1 962.15,165.66Z" style="fill:#1FD3AC" />
<path d="M972.64,160.26A8,8 0 1 1 956.64,160.26A8,8 0 1 1 972.64,160.26Z" style="fill:#1FD3AC" />
<path d="M983.13,157.73A8,8 0 1 1 967.13,157.73A8,8 0 1 1 983.13,157.73Z" style="fill:#1FD3AC" />
<path d="M993.61,153.89A8,8 0 1 1 977.61,153.89A8,8 0 1 1 993.61,153.89Z" style="fill:#1FD3AC" />
<path d="M1004.1,148.99A8,8 0 1 1 988.1,148.99A8,8 0 1 1 1004.1,148.99Z" style="fill:#1FD3AC" />
<path d="M1014.6,136.2A8,8 0 1 1 998.59,136.2A8,8 0 1 1 1014.6,136.2Z" style="fill:#1FD3AC" />
<path d="M136.14,974.14L1080,974.14" style="fill:none;stroke:#000000" />
<path d="M1080,108.82L1080,974.14" style="fill:none;stroke:#000000" />
<path d="M980,927.49L1030,927.49" style="fill:none;stroke:#1B10000;stroke-opacity:0.58824;stroke-width:10" />
<text x="636.34" y="-920.9" transform="scale(1, -1)"
	style="font-family:Helvetica;font-weight:normal;font-style:normal;font-size:28px">Theoretical (L = 10.00 mm)</text>
<path d="M1013,893.06A8,8 0 1 1 997,893.06A8,8 0 1 1 1013,893.06Z" style="fill:#1FD3AC" />
<text x="808.81" y="-886.46" transform="scale(1, -1)"
	style="font-family:Helvetica;font-weight:normal;font-style:normal;font-size:28px">Experimental</text>
</g>
</svg>
