<?xml version="1.0"?>
<!-- Generated by SVGo and Plotinum VG -->
<svg width="1080pt" height="1080pt" viewBox="0 0 1080 1080"
	xmlns="http://www.w3.org/2000/svg"
	xmlns:xlink="http://www.w3.org/1999/xlink">
<g transform="scale(1, -1) translate(0, -1080)">
<path d="M0,0L1080,0L1080,1080L0,1080Z" style="fill:#-8000000000000000-8000000000000000-8000000000000000;fill-opacity:0" />
<text x="398.73" y="-1039.5" transform="scale(1, -1)"
	style="font-family:Helvetica;font-weight:normal;font-style:normal;font-size:50px"> TeO2 CABS</text>
<text x="497.32" y="-11.039" transform="scale(1, -1)"
	style="font-family:Helvetica;font-weight:normal;font-style:normal;font-size:36px">Frequency (GHz)</text>
<text x="306.64" y="-71.258" transform="scale(1, -1)"
	style="font-family:Helvetica;font-weight:normal;font-style:normal;font-size:36px">12.00</text>
<path d="M351.68,116.44L351.68,108.44" style="fill:none;stroke:#000000;stroke-width:1.5" />
<path d="M800.76,112.44L800.76,108.44" style="fill:none;stroke:#000000;stroke-width:1.5" />
<path d="M195.71,108.44L1075,108.44" style="fill:none;stroke:#000000;stroke-width:1.5" />
<g transform="rotate(90)">
<text x="371.42" y="29.18" transform="scale(1, -1)"
	style="font-family:Helvetica;font-weight:normal;font-style:normal;font-size:36px">Spectral Density (nV)</text>
</g>
<text x="87.869" y="-207.91" transform="scale(1, -1)"
	style="font-family:Helvetica;font-weight:normal;font-style:normal;font-size:36px">27.18</text>
<text x="70.52" y="-424.24" transform="scale(1, -1)"
	style="font-family:Helvetica;font-weight:normal;font-style:normal;font-size:36px">117.90</text>
<text x="67.848" y="-640.57" transform="scale(1, -1)"
	style="font-family:Helvetica;font-weight:normal;font-style:normal;font-size:36px">208.61</text>
<text x="67.848" y="-856.9" transform="scale(1, -1)"
	style="font-family:Helvetica;font-weight:normal;font-style:normal;font-size:36px">299.33</text>
<path d="M199.96,108.82L195.96,108.82" style="fill:none;stroke:#000000;stroke-width:1.5" />
<path d="M203.96,216.98L195.96,216.98" style="fill:none;stroke:#000000;stroke-width:1.5" />
<path d="M199.96,325.15L195.96,325.15" style="fill:none;stroke:#000000;stroke-width:1.5" />
<path d="M203.96,433.31L195.96,433.31" style="fill:none;stroke:#000000;stroke-width:1.5" />
<path d="M199.96,541.48L195.96,541.48" style="fill:none;stroke:#000000;stroke-width:1.5" />
<path d="M203.96,649.64L195.96,649.64" style="fill:none;stroke:#000000;stroke-width:1.5" />
<path d="M199.96,757.81L195.96,757.81" style="fill:none;stroke:#000000;stroke-width:1.5" />
<path d="M203.96,865.98L195.96,865.98" style="fill:none;stroke:#000000;stroke-width:1.5" />
<path d="M199.96,974.14L195.96,974.14" style="fill:none;stroke:#000000;stroke-width:1.5" />
<path d="M199.96,974.14L195.96,974.14" style="fill:none;stroke:#000000;stroke-width:1.5" />
<path d="M195.96,108.82L195.96,974.14" style="fill:none;stroke:#000000;stroke-width:1.5" />
<path d="M195.71,358.56L195.71,409.1" style="fill:none;stroke:#1FD3AC" />
<path d="M193.21,358.56L198.21,358.56" style="fill:none;stroke:#1FD3AC" />
<path d="M193.21,409.1L198.21,409.1" style="fill:none;stroke:#1FD3AC" />
<path d="M235.68,305.41L235.68,349.98" style="fill:none;stroke:#1FD3AC" />
<path d="M233.18,305.41L238.18,305.41" style="fill:none;stroke:#1FD3AC" />
<path d="M233.18,349.98L238.18,349.98" style="fill:none;stroke:#1FD3AC" />
<path d="M275.64,427.25L275.64,463.48" style="fill:none;stroke:#1FD3AC" />
<path d="M273.14,427.25L278.14,427.25" style="fill:none;stroke:#1FD3AC" />
<path d="M273.14,463.48L278.14,463.48" style="fill:none;stroke:#1FD3AC" />
<path d="M315.61,338.96L315.61,384.73" style="fill:none;stroke:#1FD3AC" />
<path d="M313.11,338.96L318.11,338.96" style="fill:none;stroke:#1FD3AC" />
<path d="M313.11,384.73L318.11,384.73" style="fill:none;stroke:#1FD3AC" />
<path d="M355.58,390.94L355.58,427.97" style="fill:none;stroke:#1FD3AC" />
<path d="M353.08,390.94L358.08,390.94" style="fill:none;stroke:#1FD3AC" />
<path d="M353.08,427.97L358.08,427.97" style="fill:none;stroke:#1FD3AC" />
<path d="M395.55,411.05L395.55,440.13" style="fill:none;stroke:#1FD3AC" />
<path d="M393.05,411.05L398.05,411.05" style="fill:none;stroke:#1FD3AC" />
<path d="M393.05,440.13L398.05,440.13" style="fill:none;stroke:#1FD3AC" />
<path d="M435.52,449.52L435.52,505.95" style="fill:none;stroke:#1FD3AC" />
<path d="M433.02,449.52L438.02,449.52" style="fill:none;stroke:#1FD3AC" />
<path d="M433.02,505.95L438.02,505.95" style="fill:none;stroke:#1FD3AC" />
<path d="M475.48,417.4L475.48,445.13" style="fill:none;stroke:#1FD3AC" />
<path d="M472.98,417.4L477.98,417.4" style="fill:none;stroke:#1FD3AC" />
<path d="M472.98,445.13L477.98,445.13" style="fill:none;stroke:#1FD3AC" />
<path d="M515.45,421.97L515.45,477.38" style="fill:none;stroke:#1FD3AC" />
<path d="M512.95,421.97L517.95,421.97" style="fill:none;stroke:#1FD3AC" />
<path d="M512.95,477.38L517.95,477.38" style="fill:none;stroke:#1FD3AC" />
<path d="M555.42,400.79L555.42,461.47" style="fill:none;stroke:#1FD3AC" />
<path d="M552.92,400.79L557.92,400.79" style="fill:none;stroke:#1FD3AC" />
<path d="M552.92,461.47L557.92,461.47" style="fill:none;stroke:#1FD3AC" />
<path d="M595.39,606.4L595.39,745.79" style="fill:none;stroke:#1FD3AC" />
<path d="M592.89,606.4L597.89,606.4" style="fill:none;stroke:#1FD3AC" />
<path d="M592.89,745.79L597.89,745.79" style="fill:none;stroke:#1FD3AC" />
<path d="M635.35,618.3L635.35,767.38" style="fill:none;stroke:#1FD3AC" />
<path d="M632.85,618.3L637.85,618.3" style="fill:none;stroke:#1FD3AC" />
<path d="M632.85,767.38L637.85,767.38" style="fill:none;stroke:#1FD3AC" />
<path d="M675.32,644.5L675.32,778.89" style="fill:none;stroke:#1FD3AC" />
<path d="M672.82,644.5L677.82,644.5" style="fill:none;stroke:#1FD3AC" />
<path d="M672.82,778.89L677.82,778.89" style="fill:none;stroke:#1FD3AC" />
<path d="M715.29,441.46L715.29,509.68" style="fill:none;stroke:#1FD3AC" />
<path d="M712.79,441.46L717.79,441.46" style="fill:none;stroke:#1FD3AC" />
<path d="M712.79,509.68L717.79,509.68" style="fill:none;stroke:#1FD3AC" />
<path d="M755.26,267.56L755.26,314.31" style="fill:none;stroke:#1FD3AC" />
<path d="M752.76,267.56L757.76,267.56" style="fill:none;stroke:#1FD3AC" />
<path d="M752.76,314.31L757.76,314.31" style="fill:none;stroke:#1FD3AC" />
<path d="M795.23,188.31L795.23,221.84" style="fill:none;stroke:#1FD3AC" />
<path d="M792.73,188.31L797.73,188.31" style="fill:none;stroke:#1FD3AC" />
<path d="M792.73,221.84L797.73,221.84" style="fill:none;stroke:#1FD3AC" />
<path d="M835.19,174L835.19,226.97" style="fill:none;stroke:#1FD3AC" />
<path d="M832.69,174L837.69,174" style="fill:none;stroke:#1FD3AC" />
<path d="M832.69,226.97L837.69,226.97" style="fill:none;stroke:#1FD3AC" />
<path d="M875.16,171.46L875.16,200.55" style="fill:none;stroke:#1FD3AC" />
<path d="M872.66,171.46L877.66,171.46" style="fill:none;stroke:#1FD3AC" />
<path d="M872.66,200.55L877.66,200.55" style="fill:none;stroke:#1FD3AC" />
<path d="M915.13,172.82L915.13,197.11" style="fill:none;stroke:#1FD3AC" />
<path d="M912.63,172.82L917.63,172.82" style="fill:none;stroke:#1FD3AC" />
<path d="M912.63,197.11L917.63,197.11" style="fill:none;stroke:#1FD3AC" />
<path d="M955.1,147.09L955.1,171.65" style="fill:none;stroke:#1FD3AC" />
<path d="M952.6,147.09L957.6,147.09" style="fill:none;stroke:#1FD3AC" />
<path d="M952.6,171.65L957.6,171.65" style="fill:none;stroke:#1FD3AC" />
<path d="M995.06,179.01L995.06,196.79" style="fill:none;stroke:#1FD3AC" />
<path d="M992.56,179.01L997.56,179.01" style="fill:none;stroke:#1FD3AC" />
<path d="M992.56,196.79L997.56,196.79" style="fill:none;stroke:#1FD3AC" />
<path d="M1035,173.94L1035,205.66" style="fill:none;stroke:#1FD3AC" />
<path d="M1032.5,173.94L1037.5,173.94" style="fill:none;stroke:#1FD3AC" />
<path d="M1032.5,205.66L1037.5,205.66" style="fill:none;stroke:#1FD3AC" />
<path d="M1075,171.59L1075,231.95" style="fill:none;stroke:#1FD3AC" />
<path d="M1072.5,171.59L1077.5,171.59" style="fill:none;stroke:#1FD3AC" />
<path d="M1072.5,231.95L1077.5,231.95" style="fill:none;stroke:#1FD3AC" />
<path d="M200.71,383.83A5,5 0 1 1 190.71,383.83A5,5 0 1 1 200.71,383.83Z" style="fill:#1FD3AC" />
<path d="M240.68,327.69A5,5 0 1 1 230.68,327.69A5,5 0 1 1 240.68,327.69Z" style="fill:#1FD3AC" />
<path d="M280.64,445.37A5,5 0 1 1 270.64,445.37A5,5 0 1 1 280.64,445.37Z" style="fill:#1FD3AC" />
<path d="M320.61,361.84A5,5 0 1 1 310.61,361.84A5,5 0 1 1 320.61,361.84Z" style="fill:#1FD3AC" />
<path d="M360.58,409.45A5,5 0 1 1 350.58,409.45A5,5 0 1 1 360.58,409.45Z" style="fill:#1FD3AC" />
<path d="M400.55,425.59A5,5 0 1 1 390.55,425.59A5,5 0 1 1 400.55,425.59Z" style="fill:#1FD3AC" />
<path d="M440.52,477.73A5,5 0 1 1 430.52,477.73A5,5 0 1 1 440.52,477.73Z" style="fill:#1FD3AC" />
<path d="M480.48,431.26A5,5 0 1 1 470.48,431.26A5,5 0 1 1 480.48,431.26Z" style="fill:#1FD3AC" />
<path d="M520.45,449.68A5,5 0 1 1 510.45,449.68A5,5 0 1 1 520.45,449.68Z" style="fill:#1FD3AC" />
<path d="M560.42,431.13A5,5 0 1 1 550.42,431.13A5,5 0 1 1 560.42,431.13Z" style="fill:#1FD3AC" />
<path d="M600.39,676.09A5,5 0 1 1 590.39,676.09A5,5 0 1 1 600.39,676.09Z" style="fill:#1FD3AC" />
<path d="M640.35,692.84A5,5 0 1 1 630.35,692.84A5,5 0 1 1 640.35,692.84Z" style="fill:#1FD3AC" />
<path d="M680.32,711.7A5,5 0 1 1 670.32,711.7A5,5 0 1 1 680.32,711.7Z" style="fill:#1FD3AC" />
<path d="M720.29,475.57A5,5 0 1 1 710.29,475.57A5,5 0 1 1 720.29,475.57Z" style="fill:#1FD3AC" />
<path d="M760.26,290.94A5,5 0 1 1 750.26,290.94A5,5 0 1 1 760.26,290.94Z" style="fill:#1FD3AC" />
<path d="M800.23,205.08A5,5 0 1 1 790.23,205.08A5,5 0 1 1 800.23,205.08Z" style="fill:#1FD3AC" />
<path d="M840.19,200.48A5,5 0 1 1 830.19,200.48A5,5 0 1 1 840.19,200.48Z" style="fill:#1FD3AC" />
<path d="M880.16,186.01A5,5 0 1 1 870.16,186.01A5,5 0 1 1 880.16,186.01Z" style="fill:#1FD3AC" />
<path d="M920.13,184.96A5,5 0 1 1 910.13,184.96A5,5 0 1 1 920.13,184.96Z" style="fill:#1FD3AC" />
<path d="M960.1,159.37A5,5 0 1 1 950.1,159.37A5,5 0 1 1 960.1,159.37Z" style="fill:#1FD3AC" />
<path d="M1000.1,187.9A5,5 0 1 1 990.06,187.9A5,5 0 1 1 1000.1,187.9Z" style="fill:#1FD3AC" />
<path d="M1040,189.8A5,5 0 1 1 1030,189.8A5,5 0 1 1 1040,189.8Z" style="fill:#1FD3AC" />
<path d="M1080,201.77A5,5 0 1 1 1070,201.77A5,5 0 1 1 1080,201.77Z" style="fill:#1FD3AC" />
<path d="M195.71,974.14L1075,974.14" style="fill:none;stroke:#000000" />
<path d="M1075,108.82L1075,974.14" style="fill:none;stroke:#000000" />
<path d="M195.71,308.22L195.71,334.73" style="fill:none;stroke:#FF7AB4" />
<path d="M193.21,308.22L198.21,308.22" style="fill:none;stroke:#FF7AB4" />
<path d="M193.21,334.73L198.21,334.73" style="fill:none;stroke:#FF7AB4" />
<path d="M235.68,343.23L235.68,386.44" style="fill:none;stroke:#FF7AB4" />
<path d="M233.18,343.23L238.18,343.23" style="fill:none;stroke:#FF7AB4" />
<path d="M233.18,386.44L238.18,386.44" style="fill:none;stroke:#FF7AB4" />
<path d="M275.64,326.52L275.64,358.39" style="fill:none;stroke:#FF7AB4" />
<path d="M273.14,326.52L278.14,326.52" style="fill:none;stroke:#FF7AB4" />
<path d="M273.14,358.39L278.14,358.39" style="fill:none;stroke:#FF7AB4" />
<path d="M315.61,308.2L315.61,335.29" style="fill:none;stroke:#FF7AB4" />
<path d="M313.11,308.2L318.11,308.2" style="fill:none;stroke:#FF7AB4" />
<path d="M313.11,335.29L318.11,335.29" style="fill:none;stroke:#FF7AB4" />
<path d="M355.58,300.93L355.58,322.86" style="fill:none;stroke:#FF7AB4" />
<path d="M353.08,300.93L358.08,300.93" style="fill:none;stroke:#FF7AB4" />
<path d="M353.08,322.86L358.08,322.86" style="fill:none;stroke:#FF7AB4" />
<path d="M395.55,316.3L395.55,365.42" style="fill:none;stroke:#FF7AB4" />
<path d="M393.05,316.3L398.05,316.3" style="fill:none;stroke:#FF7AB4" />
<path d="M393.05,365.42L398.05,365.42" style="fill:none;stroke:#FF7AB4" />
<path d="M435.52,310.51L435.52,355.06" style="fill:none;stroke:#FF7AB4" />
<path d="M433.02,310.51L438.02,310.51" style="fill:none;stroke:#FF7AB4" />
<path d="M433.02,355.06L438.02,355.06" style="fill:none;stroke:#FF7AB4" />
<path d="M475.48,368.33L475.48,403.82" style="fill:none;stroke:#FF7AB4" />
<path d="M472.98,368.33L477.98,368.33" style="fill:none;stroke:#FF7AB4" />
<path d="M472.98,403.82L477.98,403.82" style="fill:none;stroke:#FF7AB4" />
<path d="M515.45,262.35L515.45,294.79" style="fill:none;stroke:#FF7AB4" />
<path d="M512.95,262.35L517.95,262.35" style="fill:none;stroke:#FF7AB4" />
<path d="M512.95,294.79L517.95,294.79" style="fill:none;stroke:#FF7AB4" />
<path d="M555.42,253.84L555.42,298.1" style="fill:none;stroke:#FF7AB4" />
<path d="M552.92,253.84L557.92,253.84" style="fill:none;stroke:#FF7AB4" />
<path d="M552.92,298.1L557.92,298.1" style="fill:none;stroke:#FF7AB4" />
<path d="M595.39,378.83L595.39,435.39" style="fill:none;stroke:#FF7AB4" />
<path d="M592.89,378.83L597.89,378.83" style="fill:none;stroke:#FF7AB4" />
<path d="M592.89,435.39L597.89,435.39" style="fill:none;stroke:#FF7AB4" />
<path d="M635.35,440.81L635.35,500.11" style="fill:none;stroke:#FF7AB4" />
<path d="M632.85,440.81L637.85,440.81" style="fill:none;stroke:#FF7AB4" />
<path d="M632.85,500.11L637.85,500.11" style="fill:none;stroke:#FF7AB4" />
<path d="M675.32,402.06L675.32,462.42" style="fill:none;stroke:#FF7AB4" />
<path d="M672.82,402.06L677.82,402.06" style="fill:none;stroke:#FF7AB4" />
<path d="M672.82,462.42L677.82,462.42" style="fill:none;stroke:#FF7AB4" />
<path d="M715.29,279.08L715.29,329.2" style="fill:none;stroke:#FF7AB4" />
<path d="M712.79,279.08L717.79,279.08" style="fill:none;stroke:#FF7AB4" />
<path d="M712.79,329.2L717.79,329.2" style="fill:none;stroke:#FF7AB4" />
<path d="M755.26,242.16L755.26,279.35" style="fill:none;stroke:#FF7AB4" />
<path d="M752.76,242.16L757.76,242.16" style="fill:none;stroke:#FF7AB4" />
<path d="M752.76,279.35L757.76,279.35" style="fill:none;stroke:#FF7AB4" />
<path d="M795.23,158.56L795.23,186.7" style="fill:none;stroke:#FF7AB4" />
<path d="M792.73,158.56L797.73,158.56" style="fill:none;stroke:#FF7AB4" />
<path d="M792.73,186.7L797.73,186.7" style="fill:none;stroke:#FF7AB4" />
<path d="M835.19,125.27L835.19,164.34" style="fill:none;stroke:#FF7AB4" />
<path d="M832.69,125.27L837.69,125.27" style="fill:none;stroke:#FF7AB4" />
<path d="M832.69,164.34L837.69,164.34" style="fill:none;stroke:#FF7AB4" />
<path d="M875.16,149.96L875.16,176.08" style="fill:none;stroke:#FF7AB4" />
<path d="M872.66,149.96L877.66,149.96" style="fill:none;stroke:#FF7AB4" />
<path d="M872.66,176.08L877.66,176.08" style="fill:none;stroke:#FF7AB4" />
<path d="M915.13,156.43L915.13,184.56" style="fill:none;stroke:#FF7AB4" />
<path d="M912.63,156.43L917.63,156.43" style="fill:none;stroke:#FF7AB4" />
<path d="M912.63,184.56L917.63,184.56" style="fill:none;stroke:#FF7AB4" />
<path d="M955.1,149.34L955.1,176.94" style="fill:none;stroke:#FF7AB4" />
<path d="M952.6,149.34L957.6,149.34" style="fill:none;stroke:#FF7AB4" />
<path d="M952.6,176.94L957.6,176.94" style="fill:none;stroke:#FF7AB4" />
<path d="M995.06,152.38L995.06,176.96" style="fill:none;stroke:#FF7AB4" />
<path d="M992.56,152.38L997.56,152.38" style="fill:none;stroke:#FF7AB4" />
<path d="M992.56,176.96L997.56,176.96" style="fill:none;stroke:#FF7AB4" />
<path d="M1035,141.2L1035,150.1" style="fill:none;stroke:#FF7AB4" />
<path d="M1032.5,141.2L1037.5,141.2" style="fill:none;stroke:#FF7AB4" />
<path d="M1032.5,150.1L1037.5,150.1" style="fill:none;stroke:#FF7AB4" />
<path d="M1075,160L1075,206.34" style="fill:none;stroke:#FF7AB4" />
<path d="M1072.5,160L1077.5,160" style="fill:none;stroke:#FF7AB4" />
<path d="M1072.5,206.34L1077.5,206.34" style="fill:none;stroke:#FF7AB4" />
<path d="M200.71,321.47A5,5 0 1 1 190.71,321.47A5,5 0 1 1 200.71,321.47Z" style="fill:#FF7AB4" />
<path d="M240.68,364.84A5,5 0 1 1 230.68,364.84A5,5 0 1 1 240.68,364.84Z" style="fill:#FF7AB4" />
<path d="M280.64,342.46A5,5 0 1 1 270.64,342.46A5,5 0 1 1 280.64,342.46Z" style="fill:#FF7AB4" />
<path d="M320.61,321.74A5,5 0 1 1 310.61,321.74A5,5 0 1 1 320.61,321.74Z" style="fill:#FF7AB4" />
<path d="M360.58,311.9A5,5 0 1 1 350.58,311.9A5,5 0 1 1 360.58,311.9Z" style="fill:#FF7AB4" />
<path d="M400.55,340.86A5,5 0 1 1 390.55,340.86A5,5 0 1 1 400.55,340.86Z" style="fill:#FF7AB4" />
<path d="M440.52,332.79A5,5 0 1 1 430.52,332.79A5,5 0 1 1 440.52,332.79Z" style="fill:#FF7AB4" />
<path d="M480.48,386.08A5,5 0 1 1 470.48,386.08A5,5 0 1 1 480.48,386.08Z" style="fill:#FF7AB4" />
<path d="M520.45,278.57A5,5 0 1 1 510.45,278.57A5,5 0 1 1 520.45,278.57Z" style="fill:#FF7AB4" />
<path d="M560.42,275.97A5,5 0 1 1 550.42,275.97A5,5 0 1 1 560.42,275.97Z" style="fill:#FF7AB4" />
<path d="M600.39,407.11A5,5 0 1 1 590.39,407.11A5,5 0 1 1 600.39,407.11Z" style="fill:#FF7AB4" />
<path d="M640.35,470.46A5,5 0 1 1 630.35,470.46A5,5 0 1 1 640.35,470.46Z" style="fill:#FF7AB4" />
<path d="M680.32,432.24A5,5 0 1 1 670.32,432.24A5,5 0 1 1 680.32,432.24Z" style="fill:#FF7AB4" />
<path d="M720.29,304.14A5,5 0 1 1 710.29,304.14A5,5 0 1 1 720.29,304.14Z" style="fill:#FF7AB4" />
<path d="M760.26,260.75A5,5 0 1 1 750.26,260.75A5,5 0 1 1 760.26,260.75Z" style="fill:#FF7AB4" />
<path d="M800.23,172.63A5,5 0 1 1 790.23,172.63A5,5 0 1 1 800.23,172.63Z" style="fill:#FF7AB4" />
<path d="M840.19,144.81A5,5 0 1 1 830.19,144.81A5,5 0 1 1 840.19,144.81Z" style="fill:#FF7AB4" />
<path d="M880.16,163.02A5,5 0 1 1 870.16,163.02A5,5 0 1 1 880.16,163.02Z" style="fill:#FF7AB4" />
<path d="M920.13,170.5A5,5 0 1 1 910.13,170.5A5,5 0 1 1 920.13,170.5Z" style="fill:#FF7AB4" />
<path d="M960.1,163.14A5,5 0 1 1 950.1,163.14A5,5 0 1 1 960.1,163.14Z" style="fill:#FF7AB4" />
<path d="M1000.1,164.67A5,5 0 1 1 990.06,164.67A5,5 0 1 1 1000.1,164.67Z" style="fill:#FF7AB4" />
<path d="M1040,145.65A5,5 0 1 1 1030,145.65A5,5 0 1 1 1040,145.65Z" style="fill:#FF7AB4" />
<path d="M1080,183.17A5,5 0 1 1 1070,183.17A5,5 0 1 1 1080,183.17Z" style="fill:#FF7AB4" />
<path d="M195.71,974.14L1075,974.14" style="fill:none;stroke:#000000" />
<path d="M1075,108.82L1075,974.14" style="fill:none;stroke:#000000" />
<path d="M1038,942.02A8,8 0 1 1 1022,942.02A8,8 0 1 1 1038,942.02Z" style="fill:#1FD3AC" />
<text x="829.57" y="-933.54" transform="scale(1, -1)"
	style="font-family:Helvetica;font-weight:normal;font-style:normal;font-size:36px">1um TeO2</text>
<path d="M1038,900.61A8,8 0 1 1 1022,900.61A8,8 0 1 1 1038,900.61Z" style="fill:#FF7AB4" />
<text x="828.9" y="-892.13" transform="scale(1, -1)"
	style="font-family:Helvetica;font-weight:normal;font-style:normal;font-size:36px">no sample</text>
</g>
</svg>
