<?xml version="1.0"?>
<!-- Generated by SVGo and Plotinum VG -->
<svg width="1080pt" height="1080pt" viewBox="0 0 1080 1080"
	xmlns="http://www.w3.org/2000/svg"
	xmlns:xlink="http://www.w3.org/1999/xlink">
<g transform="scale(1, -1) translate(0, -1080)">
<path d="M0,0L1080,0L1080,1080L0,1080Z" style="fill:#-8000000000000000-8000000000000000-8000000000000000;fill-opacity:0" />
<text x="206.58" y="-1039.5" transform="scale(1, -1)"
	style="font-family:Helvetica;font-weight:normal;font-style:normal;font-size:50px">Pump Power vs Widths of Fits</text>
<text x="450.05" y="-11.039" transform="scale(1, -1)"
	style="font-family:Helvetica;font-weight:normal;font-style:normal;font-size:36px">Pump Power (mW)</text>
<text x="144.15" y="-71.258" transform="scale(1, -1)"
	style="font-family:Helvetica;font-weight:normal;font-style:normal;font-size:36px">0</text>
<text x="358.09" y="-71.258" transform="scale(1, -1)"
	style="font-family:Helvetica;font-weight:normal;font-style:normal;font-size:36px">50</text>
<text x="572.03" y="-71.258" transform="scale(1, -1)"
	style="font-family:Helvetica;font-weight:normal;font-style:normal;font-size:36px">100</text>
<text x="795.98" y="-71.258" transform="scale(1, -1)"
	style="font-family:Helvetica;font-weight:normal;font-style:normal;font-size:36px">150</text>
<text x="1019.9" y="-71.258" transform="scale(1, -1)"
	style="font-family:Helvetica;font-weight:normal;font-style:normal;font-size:36px">200</text>
<path d="M154.16,116.44L154.16,108.44" style="fill:none;stroke:#000000;stroke-width:1.5" />
<path d="M266.14,112.44L266.14,108.44" style="fill:none;stroke:#000000;stroke-width:1.5" />
<path d="M378.11,116.44L378.11,108.44" style="fill:none;stroke:#000000;stroke-width:1.5" />
<path d="M490.09,112.44L490.09,108.44" style="fill:none;stroke:#000000;stroke-width:1.5" />
<path d="M602.07,116.44L602.07,108.44" style="fill:none;stroke:#000000;stroke-width:1.5" />
<path d="M714.04,112.44L714.04,108.44" style="fill:none;stroke:#000000;stroke-width:1.5" />
<path d="M826.02,116.44L826.02,108.44" style="fill:none;stroke:#000000;stroke-width:1.5" />
<path d="M937.99,112.44L937.99,108.44" style="fill:none;stroke:#000000;stroke-width:1.5" />
<path d="M1050,116.44L1050,108.44" style="fill:none;stroke:#000000;stroke-width:1.5" />
<path d="M154.16,108.44L1050,108.44" style="fill:none;stroke:#000000;stroke-width:1.5" />
<g transform="rotate(90)">
<text x="326.94" y="29.18" transform="scale(1, -1)"
	style="font-family:Helvetica;font-weight:normal;font-style:normal;font-size:36px">Full Width Half Max (MHz)</text>
</g>
<text x="87.869" y="-691.68" transform="scale(1, -1)"
	style="font-family:Helvetica;font-weight:normal;font-style:normal;font-size:36px">90</text>
<text x="67.848" y="-757.2" transform="scale(1, -1)"
	style="font-family:Helvetica;font-weight:normal;font-style:normal;font-size:36px">100</text>
<text x="70.52" y="-822.73" transform="scale(1, -1)"
	style="font-family:Helvetica;font-weight:normal;font-style:normal;font-size:36px">110</text>
<text x="67.848" y="-888.25" transform="scale(1, -1)"
	style="font-family:Helvetica;font-weight:normal;font-style:normal;font-size:36px">120</text>
<text x="67.848" y="-953.77" transform="scale(1, -1)"
	style="font-family:Helvetica;font-weight:normal;font-style:normal;font-size:36px">130</text>
<path d="M153.91,700.75L145.91,700.75" style="fill:none;stroke:#000000;stroke-width:1.5" />
<path d="M149.91,733.51L145.91,733.51" style="fill:none;stroke:#000000;stroke-width:1.5" />
<path d="M153.91,766.28L145.91,766.28" style="fill:none;stroke:#000000;stroke-width:1.5" />
<path d="M149.91,799.04L145.91,799.04" style="fill:none;stroke:#000000;stroke-width:1.5" />
<path d="M153.91,831.8L145.91,831.8" style="fill:none;stroke:#000000;stroke-width:1.5" />
<path d="M149.91,864.56L145.91,864.56" style="fill:none;stroke:#000000;stroke-width:1.5" />
<path d="M153.91,897.32L145.91,897.32" style="fill:none;stroke:#000000;stroke-width:1.5" />
<path d="M149.91,930.08L145.91,930.08" style="fill:none;stroke:#000000;stroke-width:1.5" />
<path d="M153.91,962.84L145.91,962.84" style="fill:none;stroke:#000000;stroke-width:1.5" />
<path d="M145.91,111.07L145.91,962.84" style="fill:none;stroke:#000000;stroke-width:1.5" />
<path d="M159.16,760.44A5,5 0 1 1 149.16,760.44A5,5 0 1 1 159.16,760.44Z" style="fill:#1BAA8B" />
<path d="M154.16,700.75L154.16,760.44L154.16,111.07L154.16,111.07" style="fill:none;stroke:#7F7F7F;stroke-dasharray:5,5" />
<path d="M517.49,856.59A5,5 0 1 1 507.49,856.59A5,5 0 1 1 517.49,856.59Z" style="fill:#C96892" />
<path d="M512.49,700.75L512.49,856.59L154.16,111.07L154.16,111.07" style="fill:none;stroke:#7F7F7F;stroke-dasharray:5,5" />
<path d="M920.6,901.16A5,5 0 1 1 910.6,901.16A5,5 0 1 1 920.6,901.16Z" style="fill:#637CC6" />
<path d="M915.6,700.75L915.6,901.16L154.16,111.07L154.16,111.07" style="fill:none;stroke:#7F7F7F;stroke-dasharray:5,5" />
<path d="M1010,908.43A5,5 0 1 1 1000,908.43A5,5 0 1 1 1010,908.43Z" style="fill:#1BAA8B" />
<text x="876.01" y="-899.95" transform="scale(1, -1)"
	style="font-family:Helvetica;font-weight:normal;font-style:normal;font-size:36px">0 mW</text>
<path d="M1010,867.02A5,5 0 1 1 1000,867.02A5,5 0 1 1 1010,867.02Z" style="fill:#C96892" />
<text x="855.99" y="-858.54" transform="scale(1, -1)"
	style="font-family:Helvetica;font-weight:normal;font-style:normal;font-size:36px">80 mW</text>
<path d="M1010,825.61A5,5 0 1 1 1000,825.61A5,5 0 1 1 1010,825.61Z" style="fill:#637CC6" />
<text x="835.96" y="-817.13" transform="scale(1, -1)"
	style="font-family:Helvetica;font-weight:normal;font-style:normal;font-size:36px">170 mW</text>
</g>
</svg>
