<?xml version="1.0"?>
<!-- Generated by SVGo and Plotinum VG -->
<svg width="1080pt" height="1080pt" viewBox="0 0 1080 1080"
	xmlns="http://www.w3.org/2000/svg"
	xmlns:xlink="http://www.w3.org/1999/xlink">
<g transform="scale(1, -1) translate(0, -1080)">
<path d="M0,0L1080,0L1080,1080L0,1080Z" style="fill:#-8000000000000000-8000000000000000-8000000000000000;fill-opacity:0" />
<text x="82.847" y="-1039.5" transform="scale(1, -1)"
	style="font-family:Helvetica;font-weight:normal;font-style:normal;font-size:50px">1 cm UHNA3 Phase-Matching Bandwidth</text>
<text x="365.97" y="-11.039" transform="scale(1, -1)"
	style="font-family:Helvetica;font-weight:normal;font-style:normal;font-size:36px">Pump-Probe Separation (GHz)</text>
<text x="238.12" y="-71.258" transform="scale(1, -1)"
	style="font-family:Helvetica;font-weight:normal;font-style:normal;font-size:36px">5</text>
<text x="436.07" y="-71.258" transform="scale(1, -1)"
	style="font-family:Helvetica;font-weight:normal;font-style:normal;font-size:36px">15</text>
<text x="644.04" y="-71.258" transform="scale(1, -1)"
	style="font-family:Helvetica;font-weight:normal;font-style:normal;font-size:36px">25</text>
<text x="852.01" y="-71.258" transform="scale(1, -1)"
	style="font-family:Helvetica;font-weight:normal;font-style:normal;font-size:36px">35</text>
<path d="M144.14,112.44L144.14,108.44" style="fill:none;stroke:#000000;stroke-width:1.5" />
<path d="M248.13,116.44L248.13,108.44" style="fill:none;stroke:#000000;stroke-width:1.5" />
<path d="M352.11,112.44L352.11,108.44" style="fill:none;stroke:#000000;stroke-width:1.5" />
<path d="M456.1,116.44L456.1,108.44" style="fill:none;stroke:#000000;stroke-width:1.5" />
<path d="M560.08,112.44L560.08,108.44" style="fill:none;stroke:#000000;stroke-width:1.5" />
<path d="M664.06,116.44L664.06,108.44" style="fill:none;stroke:#000000;stroke-width:1.5" />
<path d="M768.05,112.44L768.05,108.44" style="fill:none;stroke:#000000;stroke-width:1.5" />
<path d="M872.03,116.44L872.03,108.44" style="fill:none;stroke:#000000;stroke-width:1.5" />
<path d="M976.02,112.44L976.02,108.44" style="fill:none;stroke:#000000;stroke-width:1.5" />
<path d="M1080,112.44L1080,108.44" style="fill:none;stroke:#000000;stroke-width:1.5" />
<path d="M144.14,108.44L1080,108.44" style="fill:none;stroke:#000000;stroke-width:1.5" />
<g transform="rotate(90)">
<text x="364.4" y="29.18" transform="scale(1, -1)"
	style="font-family:Helvetica;font-weight:normal;font-style:normal;font-size:36px">Peak Spectral Density</text>
</g>
<text x="67.848" y="-109.37" transform="scale(1, -1)"
	style="font-family:Helvetica;font-weight:normal;font-style:normal;font-size:36px">0.5</text>
<text x="67.848" y="-112.62" transform="scale(1, -1)"
	style="font-family:Helvetica;font-weight:normal;font-style:normal;font-size:36px">1.5</text>
<text x="67.848" y="-115.87" transform="scale(1, -1)"
	style="font-family:Helvetica;font-weight:normal;font-style:normal;font-size:36px">2.5</text>
<path d="M139.89,116.82L135.89,116.82" style="fill:none;stroke:#000000;stroke-width:1.5" />
<path d="M143.89,118.44L135.89,118.44" style="fill:none;stroke:#000000;stroke-width:1.5" />
<path d="M139.89,120.07L135.89,120.07" style="fill:none;stroke:#000000;stroke-width:1.5" />
<path d="M143.89,121.69L135.89,121.69" style="fill:none;stroke:#000000;stroke-width:1.5" />
<path d="M139.89,123.32L135.89,123.32" style="fill:none;stroke:#000000;stroke-width:1.5" />
<path d="M143.89,124.94L135.89,124.94" style="fill:none;stroke:#000000;stroke-width:1.5" />
<path d="M139.89,126.57L135.89,126.57" style="fill:none;stroke:#000000;stroke-width:1.5" />
<path d="M135.89,116.82L135.89,966.14" style="fill:none;stroke:#000000;stroke-width:1.5" />
<path d="M282.79,126.2L283.56,126.02L284.33,125.85L285.1,125.67L285.87,125.5L286.64,125.33L287.41,125.16L288.18,125L288.95,124.83L289.72,124.67L290.49,124.51L291.26,124.35L292.03,124.19L292.8,124.03L293.57,123.88L294.34,123.73L295.11,123.57L295.88,123.42L296.65,123.27L297.42,123.13L298.19,122.98L298.97,122.84L299.74,122.7L300.51,122.56L301.28,122.42L302.05,122.28L302.82,122.15L303.59,122.02L304.36,121.89L305.13,121.76L305.9,121.63L306.67,121.5L307.44,121.38L308.21,121.26L308.98,121.14L309.75,121.02L310.52,120.9L311.29,120.79L312.06,120.68L312.83,120.56L313.6,120.45L314.37,120.35L315.14,120.24L315.91,120.14L316.68,120.03L317.45,119.93L318.22,119.83L318.99,119.74L319.76,119.64L320.53,119.55L321.3,119.46L322.07,119.37L322.84,119.28L323.61,119.19L324.38,119.11L325.15,119.02L325.92,118.94L326.69,118.86L327.46,118.78L328.23,118.71L329,118.63L329.78,118.56L330.55,118.49L331.32,118.42L332.09,118.35L332.86,118.29L333.63,118.22L334.4,118.16L335.17,118.1L335.94,118.04L336.71,117.98L337.48,117.92L338.25,117.87L339.02,117.82L339.79,117.76L340.56,117.71L341.33,117.67L342.1,117.62L342.87,117.57L343.64,117.53L344.41,117.49L345.18,117.45L345.95,117.41L346.72,117.37L347.49,117.33L348.26,117.3L349.03,117.26L349.8,117.23L350.57,117.2L351.34,117.17L352.11,117.14L352.88,117.11L353.65,117.09L354.42,117.06L355.19,117.04L355.96,117.02L356.73,117L357.5,116.98L358.27,116.96L359.04,116.94L359.81,116.93L360.59,116.91L361.36,116.9L362.13,116.88L362.9,116.87L363.67,116.86L364.44,116.85L365.21,116.85L365.98,116.84L366.75,116.83L367.52,116.83L368.29,116.82L369.06,116.82L369.83,116.82L370.6,116.82L371.37,116.82L372.14,116.82L372.91,116.82L373.68,116.82L374.45,116.82L375.22,116.83L375.99,116.83L376.76,116.84L377.53,116.84L378.3,116.85L379.07,116.86L379.84,116.87L380.61,116.88L381.38,116.89L382.15,116.9L382.92,116.91L383.69,116.92L384.46,116.93L385.23,116.95L386,116.96L386.77,116.97L387.54,116.99L388.31,117L389.08,117.02L389.85,117.03L390.62,117.05L391.4,117.07L392.17,117.09L392.94,117.1L393.71,117.12L394.48,117.14L395.25,117.16L396.02,117.18L396.79,117.2L397.56,117.22L398.33,117.24L399.1,117.26L399.87,117.28L400.64,117.3L401.41,117.32L402.18,117.34L402.95,117.36L403.72,117.39L404.49,117.41L405.26,117.43L406.03,117.45L406.8,117.47L407.57,117.5L408.34,117.52L409.11,117.54L409.88,117.56L410.65,117.59L411.42,117.61L412.19,117.63L412.96,117.65L413.73,117.68L414.5,117.7L415.27,117.72L416.04,117.75L416.81,117.77L417.58,117.79L418.35,117.81L419.12,117.83L419.89,117.86L420.66,117.88L421.44,117.9L422.21,117.92L422.98,117.94L423.75,117.96L424.52,117.99L425.29,118.01L426.06,118.03L426.83,118.05L427.6,118.07L428.37,118.09L429.14,118.11L429.91,118.13L430.68,118.15L431.45,118.17L432.22,118.19L432.99,118.2L433.76,118.22L434.53,118.24L435.3,118.26L436.07,118.28L436.84,118.29L437.61,118.31L438.38,118.33L439.15,118.34L439.92,118.36L440.69,118.37L441.46,118.39L442.23,118.4L443,118.42L443.77,118.43L444.54,118.44L445.31,118.46L446.08,118.47L446.85,118.48L447.62,118.49L448.39,118.5L449.16,118.52L449.93,118.53L450.7,118.54L451.47,118.55L452.25,118.56L453.02,118.57L453.79,118.57L454.56,118.58L455.33,118.59L456.1,118.6L456.87,118.6L457.64,118.61L458.41,118.62L459.18,118.62L459.95,118.63L460.72,118.63L461.49,118.64L462.26,118.64L463.03,118.64L463.8,118.65L464.57,118.65L465.34,118.65L466.11,118.65L466.88,118.66L467.65,118.66L468.42,118.66L469.19,118.66L469.96,118.66L470.73,118.66L471.5,118.65L472.27,118.65L473.04,118.65L473.81,118.65L474.58,118.65L475.35,118.64L476.12,118.64L476.89,118.64L477.66,118.63L478.43,118.63L479.2,118.62L479.97,118.62L480.74,118.61L481.51,118.6L482.28,118.6L483.06,118.59L483.83,118.58L484.6,118.58L485.37,118.57L486.14,118.56L486.91,118.55L487.68,118.54L488.45,118.53L489.22,118.52L489.99,118.51L490.76,118.5L491.53,118.49L492.3,118.48L493.07,118.47L493.84,118.46L494.61,118.45L495.38,118.43L496.15,118.42L496.92,118.41L497.69,118.4L498.46,118.38L499.23,118.37L500,118.36L500.77,118.34L501.54,118.33L502.31,118.31L503.08,118.3L503.85,118.29L504.62,118.27L505.39,118.26L506.16,118.24L506.93,118.23L507.7,118.21L508.47,118.19L509.24,118.18L510.01,118.16L510.78,118.15L511.55,118.13L512.32,118.11L513.09,118.1L513.87,118.08L514.64,118.06L515.41,118.05L516.18,118.03L516.95,118.01L517.72,118L518.49,117.98L519.26,117.96L520.03,117.94L520.8,117.93L521.57,117.91L522.34,117.89L523.11,117.87L523.88,117.86L524.65,117.84L525.42,117.82L526.19,117.8L526.96,117.79L527.73,117.77L528.5,117.75L529.27,117.73L530.04,117.72L530.81,117.7L531.58,117.68L532.35,117.66L533.12,117.65L533.89,117.63L534.66,117.61L535.43,117.6L536.2,117.58L536.97,117.56L537.74,117.55L538.51,117.53L539.28,117.51L540.05,117.5L540.82,117.48L541.59,117.46L542.36,117.45L543.13,117.43L543.91,117.41L544.68,117.4L545.45,117.38L546.22,117.37L546.99,117.35L547.76,117.34L548.53,117.32L549.3,117.31L550.07,117.29L550.84,117.28L551.61,117.26L552.38,117.25L553.15,117.23L553.92,117.22L554.69,117.21L555.46,117.19L556.23,117.18L557,117.17L557.77,117.15L558.54,117.14L559.31,117.13L560.08,117.12L560.85,117.11L561.62,117.09L562.39,117.08L563.16,117.07L563.93,117.06L564.7,117.05L565.47,117.04L566.24,117.03L567.01,117.02L567.78,117.01L568.55,117L569.32,116.99L570.09,116.98L570.86,116.97L571.63,116.96L572.4,116.95L573.17,116.95L573.94,116.94L574.72,116.93L575.49,116.92L576.26,116.92L577.03,116.91L577.8,116.9L578.57,116.9L579.34,116.89L580.11,116.88L580.88,116.88L581.65,116.87L582.42,116.87L583.19,116.86L583.96,116.86L584.73,116.85L585.5,116.85L586.27,116.85L587.04,116.84L587.81,116.84L588.58,116.84L589.35,116.83L590.12,116.83L590.89,116.83L591.66,116.83L592.43,116.82L593.2,116.82L593.97,116.82L594.74,116.82L595.51,116.82L596.28,116.82L597.05,116.82L597.82,116.82L598.59,116.82L599.36,116.82L600.13,116.82L600.9,116.82L601.67,116.82L602.44,116.82L603.21,116.82L603.98,116.82L604.75,116.82L605.53,116.83L606.3,116.83L607.07,116.83L607.84,116.83L608.61,116.84L609.38,116.84L610.15,116.84L610.92,116.84L611.69,116.85L612.46,116.85L613.23,116.85L614,116.86L614.77,116.86L615.54,116.87L616.31,116.87L617.08,116.88L617.85,116.88L618.62,116.89L619.39,116.89L620.16,116.9L620.93,116.9L621.7,116.91L622.47,116.91L623.24,116.92L624.01,116.92L624.78,116.93L625.55,116.93L626.32,116.94L627.09,116.95L627.86,116.95L628.63,116.96L629.4,116.97L630.17,116.97L630.94,116.98L631.71,116.99L632.48,116.99L633.25,117L634.02,117.01L634.79,117.01L635.56,117.02L636.34,117.03L637.11,117.03L637.88,117.04L638.65,117.05L639.42,117.06L640.19,117.06L640.96,117.07L641.73,117.08L642.5,117.09L643.27,117.09L644.04,117.1L644.81,117.11L645.58,117.12L646.35,117.12L647.12,117.13L647.89,117.14L648.66,117.14L649.43,117.15L650.2,117.16L650.97,117.17L651.74,117.17L652.51,117.18L653.28,117.19L654.05,117.2L654.82,117.2L655.59,117.21L656.36,117.22L657.13,117.22L657.9,117.23L658.67,117.24L659.44,117.25L660.21,117.25L660.98,117.26L661.75,117.27L662.52,117.27L663.29,117.28L664.06,117.29L664.83,117.29L665.6,117.3L666.37,117.3L667.15,117.31L667.92,117.32L668.69,117.32L669.46,117.33L670.23,117.33L671,117.34L671.77,117.34L672.54,117.35L673.31,117.36L674.08,117.36L674.85,117.37L675.62,117.37L676.39,117.38L677.16,117.38L677.93,117.38L678.7,117.39L679.47,117.39L680.24,117.4L681.01,117.4L681.78,117.41L682.55,117.41L683.32,117.41L684.09,117.42L684.86,117.42L685.63,117.42L686.4,117.43L687.17,117.43L687.94,117.43L688.71,117.44L689.48,117.44L690.25,117.44L691.02,117.44L691.79,117.44L692.56,117.45L693.33,117.45L694.1,117.45L694.87,117.45L695.64,117.45L696.41,117.45L697.19,117.46L697.96,117.46L698.73,117.46L699.5,117.46L700.27,117.46L701.04,117.46L701.81,117.46L702.58,117.46L703.35,117.46L704.12,117.46L704.89,117.46L705.66,117.46L706.43,117.46L707.2,117.46L707.97,117.46L708.74,117.45L709.51,117.45L710.28,117.45L711.05,117.45L711.82,117.45L712.59,117.45L713.36,117.45L714.13,117.44L714.9,117.44L715.67,117.44L716.44,117.44L717.21,117.43L717.98,117.43L718.75,117.43L719.52,117.43L720.29,117.42L721.06,117.42L721.83,117.42L722.6,117.41L723.37,117.41L724.14,117.41L724.91,117.4L725.68,117.4L726.45,117.39L727.22,117.39L728,117.39L728.77,117.38L729.54,117.38L730.31,117.37L731.08,117.37L731.85,117.36L732.62,117.36L733.39,117.35L734.16,117.35L734.93,117.34L735.7,117.34L736.47,117.33L737.24,117.33L738.01,117.32L738.78,117.32L739.55,117.31L740.32,117.31L741.09,117.3L741.86,117.3L742.63,117.29L743.4,117.28L744.17,117.28L744.94,117.27L745.71,117.27L746.48,117.26L747.25,117.25L748.02,117.25L748.79,117.24L749.56,117.24L750.33,117.23L751.1,117.22L751.87,117.22L752.64,117.21L753.41,117.2L754.18,117.2L754.95,117.19L755.72,117.19L756.49,117.18L757.26,117.17L758.03,117.17L758.81,117.16L759.58,117.15L760.35,117.15L761.12,117.14L761.89,117.13L762.66,117.13L763.43,117.12L764.2,117.11L764.97,117.11L765.74,117.1L766.51,117.1L767.28,117.09L768.05,117.08L768.82,117.08L769.59,117.07L770.36,117.06L771.13,117.06L771.9,117.05L772.67,117.05L773.44,117.04L774.21,117.03L774.98,117.03L775.75,117.02L776.52,117.02L777.29,117.01L778.06,117.01L778.83,117L779.6,116.99L780.37,116.99L781.14,116.98L781.91,116.98L782.68,116.97L783.45,116.97L784.22,116.96L784.99,116.96L785.76,116.95L786.53,116.95L787.3,116.94L788.07,116.94L788.84,116.93L789.62,116.93L790.39,116.92L791.16,116.92L791.93,116.91L792.7,116.91L793.47,116.91L794.24,116.9L795.01,116.9L795.78,116.89L796.55,116.89L797.32,116.89L798.09,116.88L798.86,116.88L799.63,116.87L800.4,116.87L801.17,116.87L801.94,116.86L802.71,116.86L803.48,116.86L804.25,116.86L805.02,116.85L805.79,116.85L806.56,116.85L807.33,116.85L808.1,116.84L808.87,116.84L809.64,116.84L810.41,116.84L811.18,116.83L811.95,116.83L812.72,116.83L813.49,116.83L814.26,116.83L815.03,116.83L815.8,116.82L816.57,116.82L817.34,116.82L818.11,116.82L818.88,116.82L819.66,116.82L820.43,116.82L821.2,116.82L821.97,116.82L822.74,116.82L823.51,116.82L824.28,116.82L825.05,116.82L825.82,116.82L826.59,116.82L827.36,116.82L828.13,116.82L828.9,116.82L829.67,116.82L830.44,116.82L831.21,116.82L831.98,116.82L832.75,116.82L833.52,116.82L834.29,116.82L835.06,116.82L835.83,116.82L836.6,116.83L837.37,116.83L838.14,116.83L838.91,116.83L839.68,116.83L840.45,116.83L841.22,116.84L841.99,116.84L842.76,116.84L843.53,116.84L844.3,116.84L845.07,116.85L845.84,116.85L846.61,116.85L847.38,116.85L848.15,116.86L848.92,116.86L849.69,116.86L850.47,116.86L851.24,116.87L852.01,116.87L852.78,116.87L853.55,116.87L854.32,116.88L855.09,116.88L855.86,116.88L856.63,116.89L857.4,116.89L858.17,116.89L858.94,116.9L859.71,116.9L860.48,116.9L861.25,116.91L862.02,116.91L862.79,116.91L863.56,116.92L864.33,116.92L865.1,116.92L865.87,116.93L866.64,116.93L867.41,116.93L868.18,116.94L868.95,116.94L869.72,116.94L870.49,116.95L871.26,116.95L872.03,116.95L872.8,116.96L873.57,116.96L874.34,116.97L875.11,116.97L875.88,116.97L876.65,116.98L877.42,116.98L878.19,116.98L878.96,116.99L879.73,116.99L880.5,116.99L881.28,117L882.05,117L882.82,117.01L883.59,117.01L884.36,117.01L885.13,117.02L885.9,117.02L886.67,117.02L887.44,117.03L888.21,117.03L888.98,117.03L889.75,117.04L890.52,117.04L891.29,117.04L892.06,117.05L892.83,117.05L893.6,117.05L894.37,117.06L895.14,117.06L895.91,117.06L896.68,117.07L897.45,117.07L898.22,117.07L898.99,117.07L899.76,117.08L900.53,117.08L901.3,117.08L902.07,117.09L902.84,117.09L903.61,117.09L904.38,117.09L905.15,117.1L905.92,117.1L906.69,117.1L907.46,117.1L908.23,117.11L909,117.11L909.77,117.11L910.54,117.11L911.31,117.11L912.09,117.12L912.86,117.12L913.63,117.12L914.4,117.12L915.17,117.12L915.94,117.12L916.71,117.13L917.48,117.13L918.25,117.13L919.02,117.13L919.79,117.13L920.56,117.13L921.33,117.13L922.1,117.13L922.87,117.14L923.64,117.14L924.41,117.14L925.18,117.14L925.95,117.14L926.72,117.14L927.49,117.14L928.26,117.14L929.03,117.14L929.8,117.14L930.57,117.14L931.34,117.14L932.11,117.14L932.88,117.14L933.65,117.14L934.42,117.14L935.19,117.14L935.96,117.14L936.73,117.14L937.5,117.14L938.27,117.14L939.04,117.14L939.81,117.14L940.58,117.14L941.35,117.14L942.12,117.14L942.9,117.14L943.67,117.13L944.44,117.13L945.21,117.13L945.98,117.13L946.75,117.13L947.52,117.13L948.29,117.13L949.06,117.13L949.83,117.12L950.6,117.12L951.37,117.12L952.14,117.12L952.91,117.12L953.68,117.12L954.45,117.11L955.22,117.11L955.99,117.11L956.76,117.11L957.53,117.1L958.3,117.1L959.07,117.1L959.84,117.1L960.61,117.1L961.38,117.09L962.15,117.09L962.92,117.09L963.69,117.09L964.46,117.08L965.23,117.08L966,117.08L966.77,117.08L967.54,117.07L968.31,117.07L969.08,117.07L969.85,117.06L970.62,117.06L971.39,117.06L972.16,117.06L972.94,117.05L973.71,117.05L974.48,117.05L975.25,117.04L976.02,117.04L976.79,117.04L977.56,117.03L978.33,117.03L979.1,117.03L979.87,117.02L980.64,117.02L981.41,117.02L982.18,117.02L982.95,117.01L983.72,117.01L984.49,117.01L985.26,117L986.03,117L986.8,117L987.57,116.99L988.34,116.99L989.11,116.99L989.88,116.98L990.65,116.98L991.42,116.98L992.19,116.97L992.96,116.97L993.73,116.97L994.5,116.96L995.27,116.96L996.04,116.96L996.81,116.95L997.58,116.95L998.35,116.95L999.12,116.94L999.89,116.94L1000.7,116.94L1001.4,116.93L1002.2,116.93L1003,116.93L1003.7,116.92L1004.5,116.92L1005.3,116.92L1006.1,116.92L1006.8,116.91L1007.6,116.91L1008.4,116.91L1009.1,116.9L1009.9,116.9L1010.7,116.9L1011.4,116.9L1012.2,116.89L1013,116.89L1013.8,116.89L1014.5,116.88L1015.3,116.88L1016.1,116.88L1016.8,116.88L1017.6,116.87L1017.6,116.99L1016.8,116.99L1016.1,116.98L1015.3,116.98L1014.5,116.98L1013.8,116.98L1013,116.98L1012.2,116.98L1011.4,116.97L1010.7,116.97L1009.9,116.97L1009.1,116.97L1008.4,116.97L1007.6,116.96L1006.8,116.96L1006.1,116.96L1005.3,116.96L1004.5,116.95L1003.7,116.95L1003,116.95L1002.2,116.95L1001.4,116.95L1000.7,116.94L999.89,116.94L999.12,116.94L998.35,116.94L997.58,116.93L996.81,116.93L996.04,116.93L995.27,116.93L994.5,116.92L993.73,116.92L992.96,116.92L992.19,116.92L991.42,116.91L990.65,116.91L989.88,116.91L989.11,116.91L988.34,116.9L987.57,116.9L986.8,116.9L986.03,116.9L985.26,116.89L984.49,116.89L983.72,116.89L982.95,116.89L982.18,116.88L981.41,116.88L980.64,116.88L979.87,116.88L979.1,116.88L978.33,116.87L977.56,116.87L976.79,116.87L976.02,116.87L975.25,116.86L974.48,116.86L973.71,116.86L972.94,116.86L972.16,116.86L971.39,116.85L970.62,116.85L969.85,116.85L969.08,116.85L968.31,116.85L967.54,116.84L966.77,116.84L966,116.84L965.23,116.84L964.46,116.84L963.69,116.84L962.92,116.83L962.15,116.83L961.38,116.83L960.61,116.83L959.84,116.83L959.07,116.83L958.3,116.83L957.53,116.83L956.76,116.82L955.99,116.82L955.22,116.82L954.45,116.82L953.68,116.82L952.91,116.82L952.14,116.82L951.37,116.82L950.6,116.82L949.83,116.82L949.06,116.82L948.29,116.82L947.52,116.82L946.75,116.82L945.98,116.82L945.21,116.82L944.44,116.82L943.67,116.82L942.9,116.82L942.12,116.82L941.35,116.82L940.58,116.82L939.81,116.82L939.04,116.82L938.27,116.82L937.5,116.82L936.73,116.82L935.96,116.82L935.19,116.82L934.42,116.82L933.65,116.82L932.88,116.83L932.11,116.83L931.34,116.83L930.57,116.83L929.8,116.83L929.03,116.83L928.26,116.83L927.49,116.84L926.72,116.84L925.95,116.84L925.18,116.84L924.41,116.84L923.64,116.84L922.87,116.85L922.1,116.85L921.33,116.85L920.56,116.85L919.79,116.86L919.02,116.86L918.25,116.86L917.48,116.86L916.71,116.87L915.94,116.87L915.17,116.87L914.4,116.87L913.63,116.88L912.86,116.88L912.09,116.88L911.31,116.89L910.54,116.89L909.77,116.89L909,116.89L908.23,116.9L907.46,116.9L906.69,116.9L905.92,116.91L905.15,116.91L904.38,116.91L903.61,116.92L902.84,116.92L902.07,116.92L901.3,116.93L900.53,116.93L899.76,116.93L898.99,116.94L898.22,116.94L897.45,116.95L896.68,116.95L895.91,116.95L895.14,116.96L894.37,116.96L893.6,116.96L892.83,116.97L892.06,116.97L891.29,116.97L890.52,116.98L889.75,116.98L888.98,116.99L888.21,116.99L887.44,116.99L886.67,117L885.9,117L885.13,117L884.36,117.01L883.59,117.01L882.82,117.02L882.05,117.02L881.28,117.02L880.5,117.03L879.73,117.03L878.96,117.03L878.19,117.04L877.42,117.04L876.65,117.04L875.88,117.05L875.11,117.05L874.34,117.05L873.57,117.06L872.8,117.06L872.03,117.06L871.26,117.07L870.49,117.07L869.72,117.07L868.95,117.08L868.18,117.08L867.41,117.08L866.64,117.09L865.87,117.09L865.1,117.09L864.33,117.09L863.56,117.1L862.79,117.1L862.02,117.1L861.25,117.1L860.48,117.11L859.71,117.11L858.94,117.11L858.17,117.11L857.4,117.12L856.63,117.12L855.86,117.12L855.09,117.12L854.32,117.12L853.55,117.13L852.78,117.13L852.01,117.13L851.24,117.13L850.47,117.13L849.69,117.13L848.92,117.13L848.15,117.14L847.38,117.14L846.61,117.14L845.84,117.14L845.07,117.14L844.3,117.14L843.53,117.14L842.76,117.14L841.99,117.14L841.22,117.14L840.45,117.14L839.68,117.14L838.91,117.14L838.14,117.14L837.37,117.14L836.6,117.14L835.83,117.14L835.06,117.14L834.29,117.14L833.52,117.14L832.75,117.14L831.98,117.14L831.21,117.14L830.44,117.14L829.67,117.13L828.9,117.13L828.13,117.13L827.36,117.13L826.59,117.13L825.82,117.13L825.05,117.13L824.28,117.12L823.51,117.12L822.74,117.12L821.97,117.12L821.2,117.12L820.43,117.11L819.66,117.11L818.88,117.11L818.11,117.11L817.34,117.1L816.57,117.1L815.8,117.1L815.03,117.1L814.26,117.09L813.49,117.09L812.72,117.09L811.95,117.08L811.18,117.08L810.41,117.08L809.64,117.08L808.87,117.07L808.1,117.07L807.33,117.06L806.56,117.06L805.79,117.06L805.02,117.05L804.25,117.05L803.48,117.05L802.71,117.04L801.94,117.04L801.17,117.04L800.4,117.03L799.63,117.03L798.86,117.02L798.09,117.02L797.32,117.02L796.55,117.01L795.78,117.01L795.01,117L794.24,117L793.47,117L792.7,116.99L791.93,116.99L791.16,116.98L790.39,116.98L789.62,116.98L788.84,116.97L788.07,116.97L787.3,116.96L786.53,116.96L785.76,116.95L784.99,116.95L784.22,116.95L783.45,116.94L782.68,116.94L781.91,116.93L781.14,116.93L780.37,116.93L779.6,116.92L778.83,116.92L778.06,116.91L777.29,116.91L776.52,116.91L775.75,116.9L774.98,116.9L774.21,116.9L773.44,116.89L772.67,116.89L771.9,116.88L771.13,116.88L770.36,116.88L769.59,116.87L768.82,116.87L768.05,116.87L767.28,116.86L766.51,116.86L765.74,116.86L764.97,116.86L764.2,116.85L763.43,116.85L762.66,116.85L761.89,116.85L761.12,116.84L760.35,116.84L759.58,116.84L758.81,116.84L758.03,116.83L757.26,116.83L756.49,116.83L755.72,116.83L754.95,116.83L754.18,116.83L753.41,116.82L752.64,116.82L751.87,116.82L751.1,116.82L750.33,116.82L749.56,116.82L748.79,116.82L748.02,116.82L747.25,116.82L746.48,116.82L745.71,116.82L744.94,116.82L744.17,116.82L743.4,116.82L742.63,116.82L741.86,116.82L741.09,116.82L740.32,116.82L739.55,116.82L738.78,116.82L738.01,116.82L737.24,116.82L736.47,116.82L735.7,116.83L734.93,116.83L734.16,116.83L733.39,116.83L732.62,116.83L731.85,116.84L731.08,116.84L730.31,116.84L729.54,116.84L728.77,116.85L728,116.85L727.22,116.85L726.45,116.85L725.68,116.86L724.91,116.86L724.14,116.86L723.37,116.87L722.6,116.87L721.83,116.88L721.06,116.88L720.29,116.88L719.52,116.89L718.75,116.89L717.98,116.9L717.21,116.9L716.44,116.91L715.67,116.91L714.9,116.92L714.13,116.92L713.36,116.93L712.59,116.93L711.82,116.94L711.05,116.94L710.28,116.95L709.51,116.95L708.74,116.96L707.97,116.97L707.2,116.97L706.43,116.98L705.66,116.98L704.89,116.99L704.12,117L703.35,117L702.58,117.01L701.81,117.02L701.04,117.02L700.27,117.03L699.5,117.04L698.73,117.04L697.96,117.05L697.19,117.06L696.41,117.06L695.64,117.07L694.87,117.08L694.1,117.08L693.33,117.09L692.56,117.1L691.79,117.11L691.02,117.11L690.25,117.12L689.48,117.13L688.71,117.13L687.94,117.14L687.17,117.15L686.4,117.16L685.63,117.16L684.86,117.17L684.09,117.18L683.32,117.18L682.55,117.19L681.78,117.2L681.01,117.21L680.24,117.21L679.47,117.22L678.7,117.23L677.93,117.23L677.16,117.24L676.39,117.25L675.62,117.26L674.85,117.26L674.08,117.27L673.31,117.28L672.54,117.28L671.77,117.29L671,117.3L670.23,117.3L669.46,117.31L668.69,117.31L667.92,117.32L667.15,117.33L666.37,117.33L665.6,117.34L664.83,117.34L664.06,117.35L663.29,117.36L662.52,117.36L661.75,117.37L660.98,117.37L660.21,117.38L659.44,117.38L658.67,117.39L657.9,117.39L657.13,117.4L656.36,117.4L655.59,117.4L654.82,117.41L654.05,117.41L653.28,117.42L652.51,117.42L651.74,117.42L650.97,117.43L650.2,117.43L649.43,117.43L648.66,117.44L647.89,117.44L647.12,117.44L646.35,117.44L645.58,117.45L644.81,117.45L644.04,117.45L643.27,117.45L642.5,117.45L641.73,117.45L640.96,117.46L640.19,117.46L639.42,117.46L638.65,117.46L637.88,117.46L637.11,117.46L636.34,117.46L635.56,117.46L634.79,117.46L634.02,117.46L633.25,117.46L632.48,117.46L631.71,117.46L630.94,117.45L630.17,117.45L629.4,117.45L628.63,117.45L627.86,117.45L627.09,117.44L626.32,117.44L625.55,117.44L624.78,117.44L624.01,117.43L623.24,117.43L622.47,117.43L621.7,117.42L620.93,117.42L620.16,117.42L619.39,117.41L618.62,117.41L617.85,117.4L617.08,117.4L616.31,117.39L615.54,117.39L614.77,117.38L614,117.38L613.23,117.37L612.46,117.37L611.69,117.36L610.92,117.36L610.15,117.35L609.38,117.35L608.61,117.34L607.84,117.33L607.07,117.33L606.3,117.32L605.53,117.31L604.75,117.31L603.98,117.3L603.21,117.29L602.44,117.28L601.67,117.28L600.9,117.27L600.13,117.26L599.36,117.25L598.59,117.25L597.82,117.24L597.05,117.23L596.28,117.22L595.51,117.22L594.74,117.21L593.97,117.2L593.2,117.19L592.43,117.18L591.66,117.17L590.89,117.17L590.12,117.16L589.35,117.15L588.58,117.14L587.81,117.13L587.04,117.12L586.27,117.12L585.5,117.11L584.73,117.1L583.96,117.09L583.19,117.08L582.42,117.07L581.65,117.07L580.88,117.06L580.11,117.05L579.34,117.04L578.57,117.03L577.8,117.02L577.03,117.02L576.26,117.01L575.49,117L574.72,116.99L573.94,116.99L573.17,116.98L572.4,116.97L571.63,116.96L570.86,116.96L570.09,116.95L569.32,116.94L568.55,116.93L567.78,116.93L567.01,116.92L566.24,116.91L565.47,116.91L564.7,116.9L563.93,116.9L563.16,116.89L562.39,116.89L561.62,116.88L560.85,116.87L560.08,116.87L559.31,116.86L558.54,116.86L557.77,116.86L557,116.85L556.23,116.85L555.46,116.84L554.69,116.84L553.92,116.84L553.15,116.83L552.38,116.83L551.61,116.83L550.84,116.83L550.07,116.82L549.3,116.82L548.53,116.82L547.76,116.82L546.99,116.82L546.22,116.82L545.45,116.82L544.68,116.82L543.91,116.82L543.13,116.82L542.36,116.82L541.59,116.82L540.82,116.82L540.05,116.82L539.28,116.82L538.51,116.83L537.74,116.83L536.97,116.83L536.2,116.83L535.43,116.84L534.66,116.84L533.89,116.85L533.12,116.85L532.35,116.85L531.58,116.86L530.81,116.87L530.04,116.87L529.27,116.88L528.5,116.88L527.73,116.89L526.96,116.9L526.19,116.9L525.42,116.91L524.65,116.92L523.88,116.93L523.11,116.94L522.34,116.95L521.57,116.96L520.8,116.97L520.03,116.98L519.26,116.99L518.49,117L517.72,117.01L516.95,117.02L516.18,117.03L515.41,117.04L514.64,117.05L513.87,117.07L513.09,117.08L512.32,117.09L511.55,117.1L510.78,117.12L510.01,117.13L509.24,117.15L508.47,117.16L507.7,117.18L506.93,117.19L506.16,117.21L505.39,117.22L504.62,117.24L503.85,117.25L503.08,117.27L502.31,117.29L501.54,117.3L500.77,117.32L500,117.34L499.23,117.35L498.46,117.37L497.69,117.39L496.92,117.41L496.15,117.42L495.38,117.44L494.61,117.46L493.84,117.48L493.07,117.5L492.3,117.52L491.53,117.54L490.76,117.55L489.99,117.57L489.22,117.59L488.45,117.61L487.68,117.63L486.91,117.65L486.14,117.67L485.37,117.69L484.6,117.71L483.83,117.73L483.06,117.75L482.28,117.77L481.51,117.79L480.74,117.81L479.97,117.83L479.2,117.85L478.43,117.87L477.66,117.89L476.89,117.91L476.12,117.93L475.35,117.95L474.58,117.97L473.81,117.99L473.04,118.01L472.27,118.03L471.5,118.04L470.73,118.06L469.96,118.08L469.19,118.1L468.42,118.12L467.65,118.14L466.88,118.16L466.11,118.18L465.34,118.19L464.57,118.21L463.8,118.23L463.03,118.25L462.26,118.26L461.49,118.28L460.72,118.3L459.95,118.31L459.18,118.33L458.41,118.35L457.64,118.36L456.87,118.38L456.1,118.39L455.33,118.41L454.56,118.42L453.79,118.43L453.02,118.45L452.25,118.46L451.47,118.47L450.7,118.49L449.93,118.5L449.16,118.51L448.39,118.52L447.62,118.53L446.85,118.54L446.08,118.55L445.31,118.56L444.54,118.57L443.77,118.58L443,118.59L442.23,118.6L441.46,118.6L440.69,118.61L439.92,118.62L439.15,118.62L438.38,118.63L437.61,118.63L436.84,118.64L436.07,118.64L435.3,118.65L434.53,118.65L433.76,118.65L432.99,118.65L432.22,118.66L431.45,118.66L430.68,118.66L429.91,118.66L429.14,118.66L428.37,118.65L427.6,118.65L426.83,118.65L426.06,118.65L425.29,118.64L424.52,118.64L423.75,118.64L422.98,118.63L422.21,118.62L421.44,118.62L420.66,118.61L419.89,118.6L419.12,118.6L418.35,118.59L417.58,118.58L416.81,118.57L416.04,118.56L415.27,118.55L414.5,118.54L413.73,118.53L412.96,118.51L412.19,118.5L411.42,118.49L410.65,118.47L409.88,118.46L409.11,118.45L408.34,118.43L407.57,118.42L406.8,118.4L406.03,118.38L405.26,118.37L404.49,118.35L403.72,118.33L402.95,118.31L402.18,118.29L401.41,118.27L400.64,118.25L399.87,118.23L399.1,118.21L398.33,118.19L397.56,118.17L396.79,118.15L396.02,118.13L395.25,118.1L394.48,118.08L393.71,118.06L392.94,118.04L392.17,118.01L391.4,117.99L390.62,117.96L389.85,117.94L389.08,117.92L388.31,117.89L387.54,117.87L386.77,117.84L386,117.82L385.23,117.79L384.46,117.77L383.69,117.74L382.92,117.71L382.15,117.69L381.38,117.66L380.61,117.64L379.84,117.61L379.07,117.59L378.3,117.56L377.53,117.53L376.76,117.51L375.99,117.48L375.22,117.46L374.45,117.43L373.68,117.41L372.91,117.38L372.14,117.36L371.37,117.33L370.6,117.31L369.83,117.29L369.06,117.26L368.29,117.24L367.52,117.22L366.75,117.19L365.98,117.17L365.21,117.15L364.44,117.13L363.67,117.11L362.9,117.09L362.13,117.07L361.36,117.05L360.59,117.03L359.81,117.01L359.04,116.99L358.27,116.98L357.5,116.96L356.73,116.95L355.96,116.93L355.19,116.92L354.42,116.9L353.65,116.89L352.88,116.88L352.11,116.87L351.34,116.86L350.57,116.85L349.8,116.84L349.03,116.84L348.26,116.83L347.49,116.83L346.72,116.82L345.95,116.82L345.18,116.82L344.41,116.82L343.64,116.82L342.87,116.82L342.1,116.82L341.33,116.83L340.56,116.83L339.79,116.84L339.02,116.85L338.25,116.86L337.48,116.87L336.71,116.88L335.94,116.89L335.17,116.91L334.4,116.92L333.63,116.94L332.86,116.96L332.09,116.98L331.32,117L330.55,117.03L329.78,117.05L329,117.08L328.23,117.11L327.46,117.14L326.69,117.17L325.92,117.21L325.15,117.24L324.38,117.28L323.61,117.32L322.84,117.36L322.07,117.4L321.3,117.45L320.53,117.5L319.76,117.55L318.99,117.6L318.22,117.65L317.45,117.7L316.68,117.76L315.91,117.82L315.14,117.88L314.37,117.94L313.6,118.01L312.83,118.07L312.06,118.14L311.29,118.21L310.52,118.29L309.75,118.36L308.98,118.44L308.21,118.52L307.44,118.6L306.67,118.68L305.9,118.77L305.13,118.86L304.36,118.95L303.59,119.04L302.82,119.13L302.05,119.23L301.28,119.33L300.51,119.43L299.74,119.54L298.97,119.64L298.19,119.75L297.42,119.86L296.65,119.97L295.88,120.09L295.11,120.21L294.34,120.33L293.57,120.45L292.8,120.57L292.03,120.7L291.26,120.83L290.49,120.96L289.72,121.09L288.95,121.23L288.18,121.37L287.41,121.51L286.64,121.65L285.87,121.79L285.1,121.94L284.33,122.09L283.56,122.24L282.79,122.4Z" style="fill:#5140000;fill-opacity:0.19608" />
<path d="M282.79,124.2L283.56,124.03L284.33,123.86L285.1,123.7L285.87,123.54L286.64,123.38L287.41,123.22L288.18,123.07L288.95,122.91L289.72,122.76L290.49,122.61L291.26,122.46L292.03,122.32L292.8,122.17L293.57,122.03L294.34,121.89L295.11,121.75L295.88,121.62L296.65,121.48L297.42,121.35L298.19,121.22L298.97,121.1L299.74,120.97L300.51,120.85L301.28,120.72L302.05,120.6L302.82,120.49L303.59,120.37L304.36,120.26L305.13,120.15L305.9,120.04L306.67,119.93L307.44,119.82L308.21,119.72L308.98,119.62L309.75,119.52L310.52,119.42L311.29,119.33L312.06,119.24L312.83,119.14L313.6,119.05L314.37,118.97L315.14,118.88L315.91,118.8L316.68,118.72L317.45,118.64L318.22,118.56L318.99,118.48L319.76,118.41L320.53,118.34L321.3,118.27L322.07,118.2L322.84,118.13L323.61,118.07L324.38,118.01L325.15,117.95L325.92,117.89L326.69,117.83L327.46,117.77L328.23,117.72L329,117.67L329.78,117.62L330.55,117.57L331.32,117.52L332.09,117.48L332.86,117.43L333.63,117.39L334.4,117.35L335.17,117.31L335.94,117.28L336.71,117.24L337.48,117.21L338.25,117.18L339.02,117.15L339.79,117.12L340.56,117.09L341.33,117.06L342.1,117.04L342.87,117.01L343.64,116.99L344.41,116.97L345.18,116.95L345.95,116.93L346.72,116.92L347.49,116.9L348.26,116.89L349.03,116.88L349.8,116.87L350.57,116.86L351.34,116.85L352.11,116.84L352.88,116.83L353.65,116.83L354.42,116.82L355.19,116.82L355.96,116.82L356.73,116.82L357.5,116.82L358.27,116.82L359.04,116.82L359.81,116.82L360.59,116.83L361.36,116.83L362.13,116.84L362.9,116.84L363.67,116.85L364.44,116.86L365.21,116.87L365.98,116.88L366.75,116.89L367.52,116.9L368.29,116.91L369.06,116.93L369.83,116.94L370.6,116.95L371.37,116.97L372.14,116.98L372.91,117L373.68,117.02L374.45,117.03L375.22,117.05L375.99,117.07L376.76,117.09L377.53,117.11L378.3,117.13L379.07,117.15L379.84,117.17L380.61,117.19L381.38,117.21L382.15,117.23L382.92,117.25L383.69,117.27L384.46,117.29L385.23,117.32L386,117.34L386.77,117.36L387.54,117.39L388.31,117.41L389.08,117.43L389.85,117.46L390.62,117.48L391.4,117.5L392.17,117.53L392.94,117.55L393.71,117.58L394.48,117.6L395.25,117.62L396.02,117.65L396.79,117.67L397.56,117.7L398.33,117.72L399.1,117.75L399.87,117.77L400.64,117.79L401.41,117.82L402.18,117.84L402.95,117.86L403.72,117.89L404.49,117.91L405.26,117.93L406.03,117.96L406.8,117.98L407.57,118L408.34,118.02L409.11,118.05L409.88,118.07L410.65,118.09L411.42,118.11L412.19,118.13L412.96,118.15L413.73,118.17L414.5,118.19L415.27,118.21L416.04,118.23L416.81,118.25L417.58,118.27L418.35,118.29L419.12,118.3L419.89,118.32L420.66,118.34L421.44,118.36L422.21,118.37L422.98,118.39L423.75,118.4L424.52,118.42L425.29,118.43L426.06,118.45L426.83,118.46L427.6,118.47L428.37,118.49L429.14,118.5L429.91,118.51L430.68,118.52L431.45,118.53L432.22,118.55L432.99,118.56L433.76,118.57L434.53,118.57L435.3,118.58L436.07,118.59L436.84,118.6L437.61,118.61L438.38,118.61L439.15,118.62L439.92,118.63L440.69,118.63L441.46,118.64L442.23,118.64L443,118.64L443.77,118.65L444.54,118.65L445.31,118.65L446.08,118.65L446.85,118.66L447.62,118.66L448.39,118.66L449.16,118.66L449.93,118.66L450.7,118.66L451.47,118.65L452.25,118.65L453.02,118.65L453.79,118.65L454.56,118.64L455.33,118.64L456.1,118.64L456.87,118.63L457.64,118.63L458.41,118.62L459.18,118.61L459.95,118.61L460.72,118.6L461.49,118.59L462.26,118.59L463.03,118.58L463.8,118.57L464.57,118.56L465.34,118.55L466.11,118.54L466.88,118.53L467.65,118.52L468.42,118.51L469.19,118.5L469.96,118.49L470.73,118.48L471.5,118.47L472.27,118.45L473.04,118.44L473.81,118.43L474.58,118.42L475.35,118.4L476.12,118.39L476.89,118.37L477.66,118.36L478.43,118.34L479.2,118.33L479.97,118.31L480.74,118.3L481.51,118.28L482.28,118.27L483.06,118.25L483.83,118.24L484.6,118.22L485.37,118.2L486.14,118.19L486.91,118.17L487.68,118.15L488.45,118.13L489.22,118.12L489.99,118.1L490.76,118.08L491.53,118.06L492.3,118.05L493.07,118.03L493.84,118.01L494.61,117.99L495.38,117.97L496.15,117.95L496.92,117.94L497.69,117.92L498.46,117.9L499.23,117.88L500,117.86L500.77,117.84L501.54,117.82L502.31,117.81L503.08,117.79L503.85,117.77L504.62,117.75L505.39,117.73L506.16,117.71L506.93,117.69L507.7,117.68L508.47,117.66L509.24,117.64L510.01,117.62L510.78,117.6L511.55,117.58L512.32,117.57L513.09,117.55L513.87,117.53L514.64,117.51L515.41,117.49L516.18,117.48L516.95,117.46L517.72,117.44L518.49,117.43L519.26,117.41L520.03,117.39L520.8,117.37L521.57,117.36L522.34,117.34L523.11,117.33L523.88,117.31L524.65,117.29L525.42,117.28L526.19,117.26L526.96,117.25L527.73,117.23L528.5,117.22L529.27,117.2L530.04,117.19L530.81,117.18L531.58,117.16L532.35,117.15L533.12,117.14L533.89,117.12L534.66,117.11L535.43,117.1L536.2,117.08L536.97,117.07L537.74,117.06L538.51,117.05L539.28,117.04L540.05,117.03L540.82,117.02L541.59,117.01L542.36,117L543.13,116.99L543.91,116.98L544.68,116.97L545.45,116.96L546.22,116.95L546.99,116.94L547.76,116.93L548.53,116.92L549.3,116.92L550.07,116.91L550.84,116.9L551.61,116.89L552.38,116.89L553.15,116.88L553.92,116.88L554.69,116.87L555.46,116.87L556.23,116.86L557,116.86L557.77,116.85L558.54,116.85L559.31,116.84L560.08,116.84L560.85,116.84L561.62,116.83L562.39,116.83L563.16,116.83L563.93,116.82L564.7,116.82L565.47,116.82L566.24,116.82L567.01,116.82L567.78,116.82L568.55,116.82L569.32,116.82L570.09,116.82L570.86,116.82L571.63,116.82L572.4,116.82L573.17,116.82L573.94,116.82L574.72,116.82L575.49,116.82L576.26,116.82L577.03,116.83L577.8,116.83L578.57,116.83L579.34,116.83L580.11,116.84L580.88,116.84L581.65,116.84L582.42,116.85L583.19,116.85L583.96,116.85L584.73,116.86L585.5,116.86L586.27,116.87L587.04,116.87L587.81,116.88L588.58,116.88L589.35,116.89L590.12,116.89L590.89,116.9L591.66,116.9L592.43,116.91L593.2,116.92L593.97,116.92L594.74,116.93L595.51,116.93L596.28,116.94L597.05,116.95L597.82,116.95L598.59,116.96L599.36,116.97L600.13,116.97L600.9,116.98L601.67,116.99L602.44,117L603.21,117L603.98,117.01L604.75,117.02L605.53,117.03L606.3,117.03L607.07,117.04L607.84,117.05L608.61,117.06L609.38,117.06L610.15,117.07L610.92,117.08L611.69,117.09L612.46,117.1L613.23,117.1L614,117.11L614.77,117.12L615.54,117.13L616.31,117.14L617.08,117.14L617.85,117.15L618.62,117.16L619.39,117.17L620.16,117.17L620.93,117.18L621.7,117.19L622.47,117.2L623.24,117.21L624.01,117.21L624.78,117.22L625.55,117.23L626.32,117.24L627.09,117.24L627.86,117.25L628.63,117.26L629.4,117.26L630.17,117.27L630.94,117.28L631.71,117.29L632.48,117.29L633.25,117.3L634.02,117.31L634.79,117.31L635.56,117.32L636.34,117.32L637.11,117.33L637.88,117.34L638.65,117.34L639.42,117.35L640.19,117.35L640.96,117.36L641.73,117.37L642.5,117.37L643.27,117.38L644.04,117.38L644.81,117.39L645.58,117.39L646.35,117.39L647.12,117.4L647.89,117.4L648.66,117.41L649.43,117.41L650.2,117.42L650.97,117.42L651.74,117.42L652.51,117.43L653.28,117.43L654.05,117.43L654.82,117.44L655.59,117.44L656.36,117.44L657.13,117.44L657.9,117.45L658.67,117.45L659.44,117.45L660.21,117.45L660.98,117.45L661.75,117.45L662.52,117.46L663.29,117.46L664.06,117.46L664.83,117.46L665.6,117.46L666.37,117.46L667.15,117.46L667.92,117.46L668.69,117.46L669.46,117.46L670.23,117.46L671,117.46L671.77,117.46L672.54,117.46L673.31,117.46L674.08,117.45L674.85,117.45L675.62,117.45L676.39,117.45L677.16,117.45L677.93,117.45L678.7,117.44L679.47,117.44L680.24,117.44L681.01,117.44L681.78,117.43L682.55,117.43L683.32,117.43L684.09,117.42L684.86,117.42L685.63,117.42L686.4,117.41L687.17,117.41L687.94,117.41L688.71,117.4L689.48,117.4L690.25,117.39L691.02,117.39L691.79,117.38L692.56,117.38L693.33,117.38L694.1,117.37L694.87,117.37L695.64,117.36L696.41,117.36L697.19,117.35L697.96,117.34L698.73,117.34L699.5,117.33L700.27,117.33L701.04,117.32L701.81,117.32L702.58,117.31L703.35,117.3L704.12,117.3L704.89,117.29L705.66,117.29L706.43,117.28L707.2,117.27L707.97,117.27L708.74,117.26L709.51,117.25L710.28,117.25L711.05,117.24L711.82,117.24L712.59,117.23L713.36,117.22L714.13,117.22L714.9,117.21L715.67,117.2L716.44,117.2L717.21,117.19L717.98,117.18L718.75,117.17L719.52,117.17L720.29,117.16L721.06,117.15L721.83,117.15L722.6,117.14L723.37,117.13L724.14,117.13L724.91,117.12L725.68,117.11L726.45,117.11L727.22,117.1L728,117.09L728.77,117.09L729.54,117.08L730.31,117.07L731.08,117.07L731.85,117.06L732.62,117.05L733.39,117.05L734.16,117.04L734.93,117.03L735.7,117.03L736.47,117.02L737.24,117.02L738.01,117.01L738.78,117L739.55,117L740.32,116.99L741.09,116.99L741.86,116.98L742.63,116.97L743.4,116.97L744.17,116.96L744.94,116.96L745.71,116.95L746.48,116.95L747.25,116.94L748.02,116.94L748.79,116.93L749.56,116.93L750.33,116.92L751.1,116.92L751.87,116.91L752.64,116.91L753.41,116.9L754.18,116.9L754.95,116.89L755.72,116.89L756.49,116.89L757.26,116.88L758.03,116.88L758.81,116.87L759.58,116.87L760.35,116.87L761.12,116.86L761.89,116.86L762.66,116.86L763.43,116.85L764.2,116.85L764.97,116.85L765.74,116.85L766.51,116.84L767.28,116.84L768.05,116.84L768.82,116.84L769.59,116.83L770.36,116.83L771.13,116.83L771.9,116.83L772.67,116.83L773.44,116.83L774.21,116.82L774.98,116.82L775.75,116.82L776.52,116.82L777.29,116.82L778.06,116.82L778.83,116.82L779.6,116.82L780.37,116.82L781.14,116.82L781.91,116.82L782.68,116.82L783.45,116.82L784.22,116.82L784.99,116.82L785.76,116.82L786.53,116.82L787.3,116.82L788.07,116.82L788.84,116.82L789.62,116.82L790.39,116.82L791.16,116.82L791.93,116.82L792.7,116.82L793.47,116.83L794.24,116.83L795.01,116.83L795.78,116.83L796.55,116.83L797.32,116.83L798.09,116.84L798.86,116.84L799.63,116.84L800.4,116.84L801.17,116.85L801.94,116.85L802.71,116.85L803.48,116.85L804.25,116.86L805.02,116.86L805.79,116.86L806.56,116.86L807.33,116.87L808.1,116.87L808.87,116.87L809.64,116.88L810.41,116.88L811.18,116.88L811.95,116.89L812.72,116.89L813.49,116.89L814.26,116.9L815.03,116.9L815.8,116.9L816.57,116.91L817.34,116.91L818.11,116.91L818.88,116.92L819.66,116.92L820.43,116.92L821.2,116.93L821.97,116.93L822.74,116.94L823.51,116.94L824.28,116.94L825.05,116.95L825.82,116.95L826.59,116.95L827.36,116.96L828.13,116.96L828.9,116.97L829.67,116.97L830.44,116.97L831.21,116.98L831.98,116.98L832.75,116.99L833.52,116.99L834.29,116.99L835.06,117L835.83,117L836.6,117L837.37,117.01L838.14,117.01L838.91,117.02L839.68,117.02L840.45,117.02L841.22,117.03L841.99,117.03L842.76,117.03L843.53,117.04L844.3,117.04L845.07,117.05L845.84,117.05L846.61,117.05L847.38,117.06L848.15,117.06L848.92,117.06L849.69,117.07L850.47,117.07L851.24,117.07L852.01,117.08L852.78,117.08L853.55,117.08L854.32,117.08L855.09,117.09L855.86,117.09L856.63,117.09L857.4,117.1L858.17,117.1L858.94,117.1L859.71,117.1L860.48,117.11L861.25,117.11L862.02,117.11L862.79,117.11L863.56,117.11L864.33,117.12L865.1,117.12L865.87,117.12L866.64,117.12L867.41,117.12L868.18,117.13L868.95,117.13L869.72,117.13L870.49,117.13L871.26,117.13L872.03,117.13L872.8,117.13L873.57,117.13L874.34,117.14L875.11,117.14L875.88,117.14L876.65,117.14L877.42,117.14L878.19,117.14L878.96,117.14L879.73,117.14L880.5,117.14L881.28,117.14L882.05,117.14L882.82,117.14L883.59,117.14L884.36,117.14L885.13,117.14L885.9,117.14L886.67,117.14L887.44,117.14L888.21,117.14L888.98,117.14L889.75,117.14L890.52,117.14L891.29,117.14L892.06,117.14L892.83,117.14L893.6,117.13L894.37,117.13L895.14,117.13L895.91,117.13L896.68,117.13L897.45,117.13L898.22,117.13L898.99,117.12L899.76,117.12L900.53,117.12L901.3,117.12L902.07,117.12L902.84,117.12L903.61,117.11L904.38,117.11L905.15,117.11L905.92,117.11L906.69,117.11L907.46,117.1L908.23,117.1L909,117.1L909.77,117.1L910.54,117.09L911.31,117.09L912.09,117.09L912.86,117.09L913.63,117.08L914.4,117.08L915.17,117.08L915.94,117.07L916.71,117.07L917.48,117.07L918.25,117.07L919.02,117.06L919.79,117.06L920.56,117.06L921.33,117.05L922.1,117.05L922.87,117.05L923.64,117.04L924.41,117.04L925.18,117.04L925.95,117.03L926.72,117.03L927.49,117.03L928.26,117.02L929.03,117.02L929.8,117.02L930.57,117.01L931.34,117.01L932.11,117.01L932.88,117L933.65,117L934.42,117L935.19,116.99L935.96,116.99L936.73,116.98L937.5,116.98L938.27,116.98L939.04,116.97L939.81,116.97L940.58,116.97L941.35,116.96L942.12,116.96L942.9,116.96L943.67,116.95L944.44,116.95L945.21,116.95L945.98,116.94L946.75,116.94L947.52,116.94L948.29,116.93L949.06,116.93L949.83,116.93L950.6,116.92L951.37,116.92L952.14,116.92L952.91,116.91L953.68,116.91L954.45,116.91L955.22,116.9L955.99,116.9L956.76,116.9L957.53,116.89L958.3,116.89L959.07,116.89L959.84,116.89L960.61,116.88L961.38,116.88L962.15,116.88L962.92,116.88L963.69,116.87L964.46,116.87L965.23,116.87L966,116.87L966.77,116.86L967.54,116.86L968.31,116.86L969.08,116.86L969.85,116.85L970.62,116.85L971.39,116.85L972.16,116.85L972.94,116.85L973.71,116.84L974.48,116.84L975.25,116.84L976.02,116.84L976.79,116.84L977.56,116.84L978.33,116.83L979.1,116.83L979.87,116.83L980.64,116.83L981.41,116.83L982.18,116.83L982.95,116.83L983.72,116.82L984.49,116.82L985.26,116.82L986.03,116.82L986.8,116.82L987.57,116.82L988.34,116.82L989.11,116.82L989.88,116.82L990.65,116.82L991.42,116.82L992.19,116.82L992.96,116.82L993.73,116.82L994.5,116.82L995.27,116.82L996.04,116.82L996.81,116.82L997.58,116.82L998.35,116.82L999.12,116.82L999.89,116.82L1000.7,116.82L1001.4,116.82L1002.2,116.82L1003,116.82L1003.7,116.82L1004.5,116.82L1005.3,116.82L1006.1,116.82L1006.8,116.82L1007.6,116.82L1008.4,116.82L1009.1,116.83L1009.9,116.83L1010.7,116.83L1011.4,116.83L1012.2,116.83L1013,116.83L1013.8,116.83L1014.5,116.83L1015.3,116.83L1016.1,116.84L1016.8,116.84L1017.6,116.84" style="fill:none;stroke:#1B10000;stroke-opacity:0.58824;stroke-width:10" />
<path d="M152.14,116.82A8,8 0 1 1 136.14,116.82A8,8 0 1 1 152.14,116.82Z" style="fill:#1FD3AC" />
<path d="M152.14,116.82A8,8 0 1 1 136.14,116.82A8,8 0 1 1 152.14,116.82Z" style="fill:#1FD3AC" />
<path d="M152.14,116.82A8,8 0 1 1 136.14,116.82A8,8 0 1 1 152.14,116.82Z" style="fill:#1FD3AC" />
<path d="M152.14,116.82A8,8 0 1 1 136.14,116.82A8,8 0 1 1 152.14,116.82Z" style="fill:#1FD3AC" />
<path d="M152.14,116.82A8,8 0 1 1 136.14,116.82A8,8 0 1 1 152.14,116.82Z" style="fill:#1FD3AC" />
<path d="M152.14,116.82A8,8 0 1 1 136.14,116.82A8,8 0 1 1 152.14,116.82Z" style="fill:#1FD3AC" />
<path d="M152.14,116.82A8,8 0 1 1 136.14,116.82A8,8 0 1 1 152.14,116.82Z" style="fill:#1FD3AC" />
<path d="M152.14,116.82A8,8 0 1 1 136.14,116.82A8,8 0 1 1 152.14,116.82Z" style="fill:#1FD3AC" />
<path d="M152.14,116.82A8,8 0 1 1 136.14,116.82A8,8 0 1 1 152.14,116.82Z" style="fill:#1FD3AC" />
<path d="M152.14,116.82A8,8 0 1 1 136.14,116.82A8,8 0 1 1 152.14,116.82Z" style="fill:#1FD3AC" />
<path d="M152.14,116.82A8,8 0 1 1 136.14,116.82A8,8 0 1 1 152.14,116.82Z" style="fill:#1FD3AC" />
<path d="M152.14,116.82A8,8 0 1 1 136.14,116.82A8,8 0 1 1 152.14,116.82Z" style="fill:#1FD3AC" />
<path d="M152.14,116.82A8,8 0 1 1 136.14,116.82A8,8 0 1 1 152.14,116.82Z" style="fill:#1FD3AC" />
<path d="M152.14,116.82A8,8 0 1 1 136.14,116.82A8,8 0 1 1 152.14,116.82Z" style="fill:#1FD3AC" />
<path d="M152.14,116.82A8,8 0 1 1 136.14,116.82A8,8 0 1 1 152.14,116.82Z" style="fill:#1FD3AC" />
<path d="M152.14,116.82A8,8 0 1 1 136.14,116.82A8,8 0 1 1 152.14,116.82Z" style="fill:#1FD3AC" />
<path d="M152.14,116.82A8,8 0 1 1 136.14,116.82A8,8 0 1 1 152.14,116.82Z" style="fill:#1FD3AC" />
<path d="M152.14,116.82A8,8 0 1 1 136.14,116.82A8,8 0 1 1 152.14,116.82Z" style="fill:#1FD3AC" />
<path d="M152.14,116.82A8,8 0 1 1 136.14,116.82A8,8 0 1 1 152.14,116.82Z" style="fill:#1FD3AC" />
<path d="M152.14,116.82A8,8 0 1 1 136.14,116.82A8,8 0 1 1 152.14,116.82Z" style="fill:#1FD3AC" />
<path d="M152.14,116.82A8,8 0 1 1 136.14,116.82A8,8 0 1 1 152.14,116.82Z" style="fill:#1FD3AC" />
<path d="M152.14,116.82A8,8 0 1 1 136.14,116.82A8,8 0 1 1 152.14,116.82Z" style="fill:#1FD3AC" />
<path d="M152.14,116.82A8,8 0 1 1 136.14,116.82A8,8 0 1 1 152.14,116.82Z" style="fill:#1FD3AC" />
<path d="M152.14,116.82A8,8 0 1 1 136.14,116.82A8,8 0 1 1 152.14,116.82Z" style="fill:#1FD3AC" />
<path d="M152.14,116.82A8,8 0 1 1 136.14,116.82A8,8 0 1 1 152.14,116.82Z" style="fill:#1FD3AC" />
<path d="M152.14,116.82A8,8 0 1 1 136.14,116.82A8,8 0 1 1 152.14,116.82Z" style="fill:#1FD3AC" />
<path d="M152.14,116.82A8,8 0 1 1 136.14,116.82A8,8 0 1 1 152.14,116.82Z" style="fill:#1FD3AC" />
<path d="M152.14,116.82A8,8 0 1 1 136.14,116.82A8,8 0 1 1 152.14,116.82Z" style="fill:#1FD3AC" />
<path d="M152.14,116.82A8,8 0 1 1 136.14,116.82A8,8 0 1 1 152.14,116.82Z" style="fill:#1FD3AC" />
<path d="M152.14,116.82A8,8 0 1 1 136.14,116.82A8,8 0 1 1 152.14,116.82Z" style="fill:#1FD3AC" />
<path d="M568.08,966.14A8,8 0 1 1 552.08,966.14A8,8 0 1 1 568.08,966.14Z" style="fill:#1FD3AC" />
<path d="M144.14,126.57L1080,126.57" style="fill:none;stroke:#000000" />
<path d="M1080,116.82L1080,126.57" style="fill:none;stroke:#000000" />
<path d="M980,927.49L1030,927.49" style="fill:none;stroke:#1B10000;stroke-opacity:0.58824;stroke-width:10" />
<text x="543.7" y="-920.9" transform="scale(1, -1)"
	style="font-family:Helvetica;font-weight:normal;font-style:normal;font-size:28px">Theoretical (L = 1.00 cm, n = 1.46)</text>
<path d="M1013,893.06A8,8 0 1 1 997,893.06A8,8 0 1 1 1013,893.06Z" style="fill:#1FD3AC" />
<text x="808.81" y="-886.46" transform="scale(1, -1)"
	style="font-family:Helvetica;font-weight:normal;font-style:normal;font-size:28px">Experimental</text>
</g>
</svg>
