<?xml version="1.0"?>
<!-- Generated by SVGo and Plotinum VG -->
<svg width="1080pt" height="1080pt" viewBox="0 0 1080 1080"
	xmlns="http://www.w3.org/2000/svg"
	xmlns:xlink="http://www.w3.org/1999/xlink">
<g transform="scale(1, -1) translate(0, -1080)">
<path d="M0,0L1080,0L1080,1080L0,1080Z" style="fill:#-8000000000000000-8000000000000000-8000000000000000;fill-opacity:0" />
<text x="123.2" y="-1039.5" transform="scale(1, -1)"
	style="font-family:Helvetica;font-weight:normal;font-style:normal;font-size:50px">Stokes Pump Power vs Widths of Fits</text>
<text x="443.93" y="-11.039" transform="scale(1, -1)"
	style="font-family:Helvetica;font-weight:normal;font-style:normal;font-size:36px">Pump Power (mW)</text>
<text x="195.26" y="-71.258" transform="scale(1, -1)"
	style="font-family:Helvetica;font-weight:normal;font-style:normal;font-size:36px">0</text>
<text x="396.42" y="-71.258" transform="scale(1, -1)"
	style="font-family:Helvetica;font-weight:normal;font-style:normal;font-size:36px">50</text>
<text x="597.58" y="-71.258" transform="scale(1, -1)"
	style="font-family:Helvetica;font-weight:normal;font-style:normal;font-size:36px">100</text>
<text x="808.76" y="-71.258" transform="scale(1, -1)"
	style="font-family:Helvetica;font-weight:normal;font-style:normal;font-size:36px">150</text>
<text x="1019.9" y="-71.258" transform="scale(1, -1)"
	style="font-family:Helvetica;font-weight:normal;font-style:normal;font-size:36px">200</text>
<path d="M205.27,116.44L205.27,108.44" style="fill:none;stroke:#000000;stroke-width:1.5" />
<path d="M310.85,112.44L310.85,108.44" style="fill:none;stroke:#000000;stroke-width:1.5" />
<path d="M416.44,116.44L416.44,108.44" style="fill:none;stroke:#000000;stroke-width:1.5" />
<path d="M522.03,112.44L522.03,108.44" style="fill:none;stroke:#000000;stroke-width:1.5" />
<path d="M627.62,116.44L627.62,108.44" style="fill:none;stroke:#000000;stroke-width:1.5" />
<path d="M733.2,112.44L733.2,108.44" style="fill:none;stroke:#000000;stroke-width:1.5" />
<path d="M838.79,116.44L838.79,108.44" style="fill:none;stroke:#000000;stroke-width:1.5" />
<path d="M944.38,112.44L944.38,108.44" style="fill:none;stroke:#000000;stroke-width:1.5" />
<path d="M1050,116.44L1050,108.44" style="fill:none;stroke:#000000;stroke-width:1.5" />
<path d="M141.91,108.44L1050,108.44" style="fill:none;stroke:#000000;stroke-width:1.5" />
<g transform="rotate(90)">
<text x="323.56" y="29.18" transform="scale(1, -1)"
	style="font-family:Helvetica;font-weight:normal;font-style:normal;font-size:36px">Full Width Half Max (MHz)</text>
</g>
<text x="87.869" y="-689.61" transform="scale(1, -1)"
	style="font-family:Helvetica;font-weight:normal;font-style:normal;font-size:36px">90</text>
<text x="67.848" y="-755.65" transform="scale(1, -1)"
	style="font-family:Helvetica;font-weight:normal;font-style:normal;font-size:36px">100</text>
<text x="70.52" y="-821.69" transform="scale(1, -1)"
	style="font-family:Helvetica;font-weight:normal;font-style:normal;font-size:36px">110</text>
<text x="67.848" y="-887.73" transform="scale(1, -1)"
	style="font-family:Helvetica;font-weight:normal;font-style:normal;font-size:36px">120</text>
<text x="67.848" y="-953.77" transform="scale(1, -1)"
	style="font-family:Helvetica;font-weight:normal;font-style:normal;font-size:36px">130</text>
<path d="M153.91,698.68L145.91,698.68" style="fill:none;stroke:#000000;stroke-width:1.5" />
<path d="M149.91,731.7L145.91,731.7" style="fill:none;stroke:#000000;stroke-width:1.5" />
<path d="M153.91,764.72L145.91,764.72" style="fill:none;stroke:#000000;stroke-width:1.5" />
<path d="M149.91,797.74L145.91,797.74" style="fill:none;stroke:#000000;stroke-width:1.5" />
<path d="M153.91,830.76L145.91,830.76" style="fill:none;stroke:#000000;stroke-width:1.5" />
<path d="M149.91,863.78L145.91,863.78" style="fill:none;stroke:#000000;stroke-width:1.5" />
<path d="M153.91,896.8L145.91,896.8" style="fill:none;stroke:#000000;stroke-width:1.5" />
<path d="M149.91,929.82L145.91,929.82" style="fill:none;stroke:#000000;stroke-width:1.5" />
<path d="M153.91,962.84L145.91,962.84" style="fill:none;stroke:#000000;stroke-width:1.5" />
<path d="M145.91,104.32L145.91,962.84" style="fill:none;stroke:#000000;stroke-width:1.5" />
<path d="M1009.5,573.56A6,6 0 1 1 997.51,573.56A6,6 0 1 1 1009.5,573.56Z" style="fill:#1BAA8B" />
<path d="M1003.5,104.32L1003.5,573.56" style="fill:none;stroke:#1BAA8B;stroke-width:4;stroke-dasharray:15,5" />
<path d="M141.91,573.56L1003.5,573.56" style="fill:none;stroke:#7F7F7F;stroke-dasharray:5,5" />
<path d="M963.05,579.42A6,6 0 1 1 951.05,579.42A6,6 0 1 1 963.05,579.42Z" style="fill:#BC75FF" />
<path d="M957.05,104.32L957.05,579.42" style="fill:none;stroke:#BC75FF;stroke-width:4;stroke-dasharray:15,5" />
<path d="M141.91,579.42L957.05,579.42" style="fill:none;stroke:#7F7F7F;stroke-dasharray:5,5" />
<path d="M912.37,555.99A6,6 0 1 1 900.37,555.99A6,6 0 1 1 912.37,555.99Z" style="fill:#8C2E31" />
<path d="M906.37,104.32L906.37,555.99" style="fill:none;stroke:#8C2E31;stroke-width:4;stroke-dasharray:15,5" />
<path d="M141.91,555.99L906.37,555.99" style="fill:none;stroke:#7F7F7F;stroke-dasharray:5,5" />
<path d="M861.69,618.7A6,6 0 1 1 849.69,618.7A6,6 0 1 1 861.69,618.7Z" style="fill:#5B1616" />
<path d="M855.69,104.32L855.69,618.7" style="fill:none;stroke:#5B1616;stroke-width:4;stroke-dasharray:15,5" />
<path d="M141.91,618.7L855.69,618.7" style="fill:none;stroke:#7F7F7F;stroke-dasharray:5,5" />
<path d="M815.23,616.98A6,6 0 1 1 803.23,616.98A6,6 0 1 1 815.23,616.98Z" style="fill:#C96892" />
<path d="M809.23,104.32L809.23,616.98" style="fill:none;stroke:#C96892;stroke-width:4;stroke-dasharray:15,5" />
<path d="M141.91,616.98L809.23,616.98" style="fill:none;stroke:#7F7F7F;stroke-dasharray:5,5" />
<path d="M777.22,628.25A6,6 0 1 1 765.22,628.25A6,6 0 1 1 777.22,628.25Z" style="fill:#EA9CAC" />
<path d="M771.22,104.32L771.22,628.25" style="fill:none;stroke:#EA9CAC;stroke-width:4;stroke-dasharray:15,5" />
<path d="M141.91,628.25L771.22,628.25" style="fill:none;stroke:#7F7F7F;stroke-dasharray:5,5" />
<path d="M730.76,635.33A6,6 0 1 1 718.76,635.33A6,6 0 1 1 730.76,635.33Z" style="fill:#013854" />
<path d="M724.76,104.32L724.76,635.33" style="fill:none;stroke:#013854;stroke-width:4;stroke-dasharray:15,5" />
<path d="M141.91,635.33L724.76,635.33" style="fill:none;stroke:#7F7F7F;stroke-dasharray:5,5" />
<path d="M658.96,648.71A6,6 0 1 1 646.96,648.71A6,6 0 1 1 658.96,648.71Z" style="fill:#2E8C3C" />
<path d="M652.96,104.32L652.96,648.71" style="fill:none;stroke:#2E8C3C;stroke-width:4;stroke-dasharray:15,5" />
<path d="M141.91,648.71L652.96,648.71" style="fill:none;stroke:#7F7F7F;stroke-dasharray:5,5" />
<path d="M608.28,672.11A6,6 0 1 1 596.28,672.11A6,6 0 1 1 608.28,672.11Z" style="fill:#637CC6" />
<path d="M602.28,104.32L602.28,672.11" style="fill:none;stroke:#637CC6;stroke-width:4;stroke-dasharray:15,5" />
<path d="M141.91,672.11L602.28,672.11" style="fill:none;stroke:#7F7F7F;stroke-dasharray:5,5" />
<path d="M566.04,679.25A6,6 0 1 1 554.04,679.25A6,6 0 1 1 566.04,679.25Z" style="fill:#7A2968" />
<path d="M560.04,104.32L560.04,679.25" style="fill:none;stroke:#7A2968;stroke-width:4;stroke-dasharray:15,5" />
<path d="M141.91,679.25L560.04,679.25" style="fill:none;stroke:#7F7F7F;stroke-dasharray:5,5" />
<path d="M519.58,681.69A6,6 0 1 1 507.58,681.69A6,6 0 1 1 519.58,681.69Z" style="fill:#297A64" />
<path d="M513.58,104.32L513.58,681.69" style="fill:none;stroke:#297A64;stroke-width:4;stroke-dasharray:15,5" />
<path d="M141.91,681.69L513.58,681.69" style="fill:none;stroke:#7F7F7F;stroke-dasharray:5,5" />
<path d="M468.9,708.92A6,6 0 1 1 456.9,708.92A6,6 0 1 1 468.9,708.92Z" style="fill:#7A5A29" />
<path d="M462.9,104.32L462.9,708.92" style="fill:none;stroke:#7A5A29;stroke-width:4;stroke-dasharray:15,5" />
<path d="M141.91,708.92L462.9,708.92" style="fill:none;stroke:#7F7F7F;stroke-dasharray:5,5" />
<path d="M392.88,784.33A6,6 0 1 1 380.88,784.33A6,6 0 1 1 392.88,784.33Z" style="fill:#B78B59" />
<path d="M386.88,104.32L386.88,784.33" style="fill:none;stroke:#B78B59;stroke-width:4;stroke-dasharray:15,5" />
<path d="M141.91,784.33L386.88,784.33" style="fill:none;stroke:#7F7F7F;stroke-dasharray:5,5" />
<path d="M346.42,635.59A6,6 0 1 1 334.42,635.59A6,6 0 1 1 346.42,635.59Z" style="fill:#162C5B" />
<path d="M340.42,104.32L340.42,635.59" style="fill:none;stroke:#162C5B;stroke-width:4;stroke-dasharray:15,5" />
<path d="M141.91,635.59L340.42,635.59" style="fill:none;stroke:#7F7F7F;stroke-dasharray:5,5" />
<path d="M312.63,761.87A6,6 0 1 1 300.63,761.87A6,6 0 1 1 312.63,761.87Z" style="fill:#3B1142" />
<path d="M306.63,104.32L306.63,761.87" style="fill:none;stroke:#3B1142;stroke-width:4;stroke-dasharray:15,5" />
<path d="M141.91,761.87L306.63,761.87" style="fill:none;stroke:#7F7F7F;stroke-dasharray:5,5" />
<path d="M270.4,736.2A6,6 0 1 1 258.4,736.2A6,6 0 1 1 270.4,736.2Z" style="fill:#126663" />
<path d="M264.4,104.32L264.4,736.2" style="fill:none;stroke:#126663;stroke-width:4;stroke-dasharray:15,5" />
<path d="M141.91,736.2L264.4,736.2" style="fill:none;stroke:#7F7F7F;stroke-dasharray:5,5" />
<text x="835.96" y="-858.54" transform="scale(1, -1)"
	style="font-family:Helvetica;font-weight:normal;font-style:normal;font-size:36px">189 mW</text>
<text x="835.96" y="-817.13" transform="scale(1, -1)"
	style="font-family:Helvetica;font-weight:normal;font-style:normal;font-size:36px">178 mW</text>
<text x="835.96" y="-775.72" transform="scale(1, -1)"
	style="font-family:Helvetica;font-weight:normal;font-style:normal;font-size:36px">166 mW</text>
<text x="835.96" y="-734.3" transform="scale(1, -1)"
	style="font-family:Helvetica;font-weight:normal;font-style:normal;font-size:36px">154 mW</text>
<text x="835.96" y="-692.89" transform="scale(1, -1)"
	style="font-family:Helvetica;font-weight:normal;font-style:normal;font-size:36px">143 mW</text>
<text x="835.96" y="-651.48" transform="scale(1, -1)"
	style="font-family:Helvetica;font-weight:normal;font-style:normal;font-size:36px">134 mW</text>
<text x="835.96" y="-610.07" transform="scale(1, -1)"
	style="font-family:Helvetica;font-weight:normal;font-style:normal;font-size:36px">123 mW</text>
<text x="835.96" y="-568.66" transform="scale(1, -1)"
	style="font-family:Helvetica;font-weight:normal;font-style:normal;font-size:36px">106 mW</text>
<text x="855.99" y="-527.24" transform="scale(1, -1)"
	style="font-family:Helvetica;font-weight:normal;font-style:normal;font-size:36px">94 mW</text>
<text x="855.99" y="-485.83" transform="scale(1, -1)"
	style="font-family:Helvetica;font-weight:normal;font-style:normal;font-size:36px">84 mW</text>
<text x="855.99" y="-444.42" transform="scale(1, -1)"
	style="font-family:Helvetica;font-weight:normal;font-style:normal;font-size:36px">73 mW</text>
<text x="855.99" y="-403.01" transform="scale(1, -1)"
	style="font-family:Helvetica;font-weight:normal;font-style:normal;font-size:36px">61 mW</text>
<text x="855.99" y="-361.6" transform="scale(1, -1)"
	style="font-family:Helvetica;font-weight:normal;font-style:normal;font-size:36px">43 mW</text>
<text x="855.99" y="-320.18" transform="scale(1, -1)"
	style="font-family:Helvetica;font-weight:normal;font-style:normal;font-size:36px">32 mW</text>
<text x="855.99" y="-278.77" transform="scale(1, -1)"
	style="font-family:Helvetica;font-weight:normal;font-style:normal;font-size:36px">24 mW</text>
<text x="855.99" y="-237.36" transform="scale(1, -1)"
	style="font-family:Helvetica;font-weight:normal;font-style:normal;font-size:36px">14 mW</text>
</g>
</svg>
