<?xml version="1.0"?>
<!-- Generated by SVGo and Plotinum VG -->
<svg width="1080pt" height="1080pt" viewBox="0 0 1080 1080"
	xmlns="http://www.w3.org/2000/svg"
	xmlns:xlink="http://www.w3.org/1999/xlink">
<g transform="scale(1, -1) translate(0, -1080)">
<path d="M0,0L1080,0L1080,1080L0,1080Z" style="fill:#-8000000000000000-8000000000000000-8000000000000000;fill-opacity:0" />
<text x="82.847" y="-1039.5" transform="scale(1, -1)"
	style="font-family:Helvetica;font-weight:normal;font-style:normal;font-size:50px">1 cm UHNA3 Phase-Matching Bandwidth</text>
<text x="371.98" y="-11.039" transform="scale(1, -1)"
	style="font-family:Helvetica;font-weight:normal;font-style:normal;font-size:36px">Pump-Probe Separation (GHz)</text>
<text x="231.15" y="-71.258" transform="scale(1, -1)"
	style="font-family:Helvetica;font-weight:normal;font-style:normal;font-size:36px">5.00</text>
<text x="441.18" y="-71.258" transform="scale(1, -1)"
	style="font-family:Helvetica;font-weight:normal;font-style:normal;font-size:36px">15.00</text>
<text x="661.21" y="-71.258" transform="scale(1, -1)"
	style="font-family:Helvetica;font-weight:normal;font-style:normal;font-size:36px">25.00</text>
<text x="881.25" y="-71.258" transform="scale(1, -1)"
	style="font-family:Helvetica;font-weight:normal;font-style:normal;font-size:36px">35.00</text>
<path d="M156.17,112.44L156.17,108.44" style="fill:none;stroke:#000000;stroke-width:1.5" />
<path d="M266.18,116.44L266.18,108.44" style="fill:none;stroke:#000000;stroke-width:1.5" />
<path d="M376.2,112.44L376.2,108.44" style="fill:none;stroke:#000000;stroke-width:1.5" />
<path d="M486.22,116.44L486.22,108.44" style="fill:none;stroke:#000000;stroke-width:1.5" />
<path d="M596.24,112.44L596.24,108.44" style="fill:none;stroke:#000000;stroke-width:1.5" />
<path d="M706.26,116.44L706.26,108.44" style="fill:none;stroke:#000000;stroke-width:1.5" />
<path d="M816.27,112.44L816.27,108.44" style="fill:none;stroke:#000000;stroke-width:1.5" />
<path d="M926.29,116.44L926.29,108.44" style="fill:none;stroke:#000000;stroke-width:1.5" />
<path d="M156.17,108.44L1080,108.44" style="fill:none;stroke:#000000;stroke-width:1.5" />
<g transform="rotate(90)">
<text x="364.4" y="29.18" transform="scale(1, -1)"
	style="font-family:Helvetica;font-weight:normal;font-style:normal;font-size:36px">Peak Spectral Density</text>
</g>
<text x="67.848" y="-202.29" transform="scale(1, -1)"
	style="font-family:Helvetica;font-weight:normal;font-style:normal;font-size:36px">0.34</text>
<text x="67.848" y="-407.39" transform="scale(1, -1)"
	style="font-family:Helvetica;font-weight:normal;font-style:normal;font-size:36px">1.03</text>
<text x="67.848" y="-612.49" transform="scale(1, -1)"
	style="font-family:Helvetica;font-weight:normal;font-style:normal;font-size:36px">1.71</text>
<text x="67.848" y="-817.59" transform="scale(1, -1)"
	style="font-family:Helvetica;font-weight:normal;font-style:normal;font-size:36px">2.40</text>
<path d="M159.92,108.82L155.92,108.82" style="fill:none;stroke:#000000;stroke-width:1.5" />
<path d="M163.92,211.36L155.92,211.36" style="fill:none;stroke:#000000;stroke-width:1.5" />
<path d="M159.92,313.91L155.92,313.91" style="fill:none;stroke:#000000;stroke-width:1.5" />
<path d="M163.92,416.46L155.92,416.46" style="fill:none;stroke:#000000;stroke-width:1.5" />
<path d="M159.92,519.01L155.92,519.01" style="fill:none;stroke:#000000;stroke-width:1.5" />
<path d="M163.92,621.56L155.92,621.56" style="fill:none;stroke:#000000;stroke-width:1.5" />
<path d="M159.92,724.11L155.92,724.11" style="fill:none;stroke:#000000;stroke-width:1.5" />
<path d="M163.92,826.66L155.92,826.66" style="fill:none;stroke:#000000;stroke-width:1.5" />
<path d="M159.92,929.21L155.92,929.21" style="fill:none;stroke:#000000;stroke-width:1.5" />
<path d="M159.92,929.21L155.92,929.21" style="fill:none;stroke:#000000;stroke-width:1.5" />
<path d="M155.92,108.82L155.92,974.14" style="fill:none;stroke:#000000;stroke-width:1.5" />
<path d="M271.18,929.21A5,5 0 1 1 261.18,929.21A5,5 0 1 1 271.18,929.21Z" style="fill:#1FD3AC" />
<path d="M282.19,780.73A5,5 0 1 1 272.19,780.73A5,5 0 1 1 282.19,780.73Z" style="fill:#1FD3AC" />
<path d="M293.19,718.04A5,5 0 1 1 283.19,718.04A5,5 0 1 1 293.19,718.04Z" style="fill:#1FD3AC" />
<path d="M304.19,689.54A5,5 0 1 1 294.19,689.54A5,5 0 1 1 304.19,689.54Z" style="fill:#1FD3AC" />
<path d="M315.19,589.28A5,5 0 1 1 305.19,589.28A5,5 0 1 1 315.19,589.28Z" style="fill:#1FD3AC" />
<path d="M326.19,491.07A5,5 0 1 1 316.19,491.07A5,5 0 1 1 326.19,491.07Z" style="fill:#1FD3AC" />
<path d="M337.19,475.58A5,5 0 1 1 327.19,475.58A5,5 0 1 1 337.19,475.58Z" style="fill:#1FD3AC" />
<path d="M348.2,401.78A5,5 0 1 1 338.2,401.78A5,5 0 1 1 348.2,401.78Z" style="fill:#1FD3AC" />
<path d="M359.2,358.54A5,5 0 1 1 349.2,358.54A5,5 0 1 1 359.2,358.54Z" style="fill:#1FD3AC" />
<path d="M370.2,274.69A5,5 0 1 1 360.2,274.69A5,5 0 1 1 370.2,274.69Z" style="fill:#1FD3AC" />
<path d="M381.2,224.21A5,5 0 1 1 371.2,224.21A5,5 0 1 1 381.2,224.21Z" style="fill:#1FD3AC" />
<path d="M392.2,197.13A5,5 0 1 1 382.2,197.13A5,5 0 1 1 392.2,197.13Z" style="fill:#1FD3AC" />
<path d="M403.21,177.18A5,5 0 1 1 393.21,177.18A5,5 0 1 1 403.21,177.18Z" style="fill:#1FD3AC" />
<path d="M414.21,178.53A5,5 0 1 1 404.21,178.53A5,5 0 1 1 414.21,178.53Z" style="fill:#1FD3AC" />
<path d="M425.21,215.42A5,5 0 1 1 415.21,215.42A5,5 0 1 1 425.21,215.42Z" style="fill:#1FD3AC" />
<path d="M436.21,236.46A5,5 0 1 1 426.21,236.46A5,5 0 1 1 436.21,236.46Z" style="fill:#1FD3AC" />
<path d="M447.21,254.88A5,5 0 1 1 437.21,254.88A5,5 0 1 1 447.21,254.88Z" style="fill:#1FD3AC" />
<path d="M458.21,287.09A5,5 0 1 1 448.21,287.09A5,5 0 1 1 458.21,287.09Z" style="fill:#1FD3AC" />
<path d="M469.22,300.98A5,5 0 1 1 459.22,300.98A5,5 0 1 1 469.22,300.98Z" style="fill:#1FD3AC" />
<path d="M480.22,306.19A5,5 0 1 1 470.22,306.19A5,5 0 1 1 480.22,306.19Z" style="fill:#1FD3AC" />
<path d="M491.22,302.63A5,5 0 1 1 481.22,302.63A5,5 0 1 1 491.22,302.63Z" style="fill:#1FD3AC" />
<path d="M502.22,300.74A5,5 0 1 1 492.22,300.74A5,5 0 1 1 502.22,300.74Z" style="fill:#1FD3AC" />
<path d="M513.22,310.42A5,5 0 1 1 503.22,310.42A5,5 0 1 1 513.22,310.42Z" style="fill:#1FD3AC" />
<path d="M524.22,293.34A5,5 0 1 1 514.22,293.34A5,5 0 1 1 524.22,293.34Z" style="fill:#1FD3AC" />
<path d="M535.23,291.67A5,5 0 1 1 525.23,291.67A5,5 0 1 1 535.23,291.67Z" style="fill:#1FD3AC" />
<path d="M546.23,273.1A5,5 0 1 1 536.23,273.1A5,5 0 1 1 546.23,273.1Z" style="fill:#1FD3AC" />
<path d="M557.23,252.71A5,5 0 1 1 547.23,252.71A5,5 0 1 1 557.23,252.71Z" style="fill:#1FD3AC" />
<path d="M568.23,237.23A5,5 0 1 1 558.23,237.23A5,5 0 1 1 568.23,237.23Z" style="fill:#1FD3AC" />
<path d="M579.23,226.68A5,5 0 1 1 569.23,226.68A5,5 0 1 1 579.23,226.68Z" style="fill:#1FD3AC" />
<path d="M590.24,196.45A5,5 0 1 1 580.24,196.45A5,5 0 1 1 590.24,196.45Z" style="fill:#1FD3AC" />
<path d="M601.24,161.94A5,5 0 1 1 591.24,161.94A5,5 0 1 1 601.24,161.94Z" style="fill:#1FD3AC" />
<path d="M612.24,157.94A5,5 0 1 1 602.24,157.94A5,5 0 1 1 612.24,157.94Z" style="fill:#1FD3AC" />
<path d="M623.24,149.26A5,5 0 1 1 613.24,149.26A5,5 0 1 1 623.24,149.26Z" style="fill:#1FD3AC" />
<path d="M634.24,143.27A5,5 0 1 1 624.24,143.27A5,5 0 1 1 634.24,143.27Z" style="fill:#1FD3AC" />
<path d="M645.24,147.8A5,5 0 1 1 635.24,147.8A5,5 0 1 1 645.24,147.8Z" style="fill:#1FD3AC" />
<path d="M656.25,151.77A5,5 0 1 1 646.25,151.77A5,5 0 1 1 656.25,151.77Z" style="fill:#1FD3AC" />
<path d="M667.25,155.62A5,5 0 1 1 657.25,155.62A5,5 0 1 1 667.25,155.62Z" style="fill:#1FD3AC" />
<path d="M678.25,168.69A5,5 0 1 1 668.25,168.69A5,5 0 1 1 678.25,168.69Z" style="fill:#1FD3AC" />
<path d="M689.25,179.2A5,5 0 1 1 679.25,179.2A5,5 0 1 1 689.25,179.2Z" style="fill:#1FD3AC" />
<path d="M700.25,186.33A5,5 0 1 1 690.25,186.33A5,5 0 1 1 700.25,186.33Z" style="fill:#1FD3AC" />
<path d="M711.26,196.17A5,5 0 1 1 701.26,196.17A5,5 0 1 1 711.26,196.17Z" style="fill:#1FD3AC" />
<path d="M722.26,199.47A5,5 0 1 1 712.26,199.47A5,5 0 1 1 722.26,199.47Z" style="fill:#1FD3AC" />
<path d="M733.26,205.34A5,5 0 1 1 723.26,205.34A5,5 0 1 1 733.26,205.34Z" style="fill:#1FD3AC" />
<path d="M744.26,206.12A5,5 0 1 1 734.26,206.12A5,5 0 1 1 744.26,206.12Z" style="fill:#1FD3AC" />
<path d="M755.26,201.73A5,5 0 1 1 745.26,201.73A5,5 0 1 1 755.26,201.73Z" style="fill:#1FD3AC" />
<path d="M766.26,203.55A5,5 0 1 1 756.26,203.55A5,5 0 1 1 766.26,203.55Z" style="fill:#1FD3AC" />
<path d="M777.27,199.15A5,5 0 1 1 767.27,199.15A5,5 0 1 1 777.27,199.15Z" style="fill:#1FD3AC" />
<path d="M788.27,189.87A5,5 0 1 1 778.27,189.87A5,5 0 1 1 788.27,189.87Z" style="fill:#1FD3AC" />
<path d="M799.27,188.71A5,5 0 1 1 789.27,188.71A5,5 0 1 1 799.27,188.71Z" style="fill:#1FD3AC" />
<path d="M810.27,179.88A5,5 0 1 1 800.27,179.88A5,5 0 1 1 810.27,179.88Z" style="fill:#1FD3AC" />
<path d="M821.27,169.62A5,5 0 1 1 811.27,169.62A5,5 0 1 1 821.27,169.62Z" style="fill:#1FD3AC" />
<path d="M832.27,164.29A5,5 0 1 1 822.27,164.29A5,5 0 1 1 832.27,164.29Z" style="fill:#1FD3AC" />
<path d="M843.28,147.85A5,5 0 1 1 833.28,147.85A5,5 0 1 1 843.28,147.85Z" style="fill:#1FD3AC" />
<path d="M854.28,141.98A5,5 0 1 1 844.28,141.98A5,5 0 1 1 854.28,141.98Z" style="fill:#1FD3AC" />
<path d="M865.28,136.11A5,5 0 1 1 855.28,136.11A5,5 0 1 1 865.28,136.11Z" style="fill:#1FD3AC" />
<path d="M876.28,135.66A5,5 0 1 1 866.28,135.66A5,5 0 1 1 876.28,135.66Z" style="fill:#1FD3AC" />
<path d="M887.28,134.58A5,5 0 1 1 877.28,134.58A5,5 0 1 1 887.28,134.58Z" style="fill:#1FD3AC" />
<path d="M898.29,144.66A5,5 0 1 1 888.29,144.66A5,5 0 1 1 898.29,144.66Z" style="fill:#1FD3AC" />
<path d="M909.29,143.93A5,5 0 1 1 899.29,143.93A5,5 0 1 1 909.29,143.93Z" style="fill:#1FD3AC" />
<path d="M920.29,148.73A5,5 0 1 1 910.29,148.73A5,5 0 1 1 920.29,148.73Z" style="fill:#1FD3AC" />
<path d="M931.29,153.66A5,5 0 1 1 921.29,153.66A5,5 0 1 1 931.29,153.66Z" style="fill:#1FD3AC" />
<path d="M942.29,158.63A5,5 0 1 1 932.29,158.63A5,5 0 1 1 942.29,158.63Z" style="fill:#1FD3AC" />
<path d="M953.29,165.16A5,5 0 1 1 943.29,165.16A5,5 0 1 1 953.29,165.16Z" style="fill:#1FD3AC" />
<path d="M964.3,168.56A5,5 0 1 1 954.3,168.56A5,5 0 1 1 964.3,168.56Z" style="fill:#1FD3AC" />
<path d="M975.3,174.86A5,5 0 1 1 965.3,174.86A5,5 0 1 1 975.3,174.86Z" style="fill:#1FD3AC" />
<path d="M986.3,169.95A5,5 0 1 1 976.3,169.95A5,5 0 1 1 986.3,169.95Z" style="fill:#1FD3AC" />
<path d="M997.3,172.2A5,5 0 1 1 987.3,172.2A5,5 0 1 1 997.3,172.2Z" style="fill:#1FD3AC" />
<path d="M1008.3,170.96A5,5 0 1 1 998.3,170.96A5,5 0 1 1 1008.3,170.96Z" style="fill:#1FD3AC" />
<path d="M1019.3,167.85A5,5 0 1 1 1009.3,167.85A5,5 0 1 1 1019.3,167.85Z" style="fill:#1FD3AC" />
<path d="M1030.3,162.25A5,5 0 1 1 1020.3,162.25A5,5 0 1 1 1030.3,162.25Z" style="fill:#1FD3AC" />
<path d="M1041.3,159.62A5,5 0 1 1 1031.3,159.62A5,5 0 1 1 1041.3,159.62Z" style="fill:#1FD3AC" />
<path d="M1052.3,155.63A5,5 0 1 1 1042.3,155.63A5,5 0 1 1 1052.3,155.63Z" style="fill:#1FD3AC" />
<path d="M1063.3,150.54A5,5 0 1 1 1053.3,150.54A5,5 0 1 1 1063.3,150.54Z" style="fill:#1FD3AC" />
<path d="M1074.3,137.26A5,5 0 1 1 1064.3,137.26A5,5 0 1 1 1074.3,137.26Z" style="fill:#1FD3AC" />
<path d="M156.17,929.21L1069.3,929.21" style="fill:none;stroke:#000000" />
<path d="M1069.3,108.82L1069.3,929.21" style="fill:none;stroke:#000000" />
<path d="M266.17,974.14L277.17,843.02L288.17,718.48L299.17,603.28L310.17,499.62L321.17,409.11L332.17,332.75L343.16,270.88L354.16,223.27L365.16,189.17L376.16,167.34L387.16,156.2L398.16,153.91L409.16,158.5L420.16,167.97L431.16,180.36L442.16,193.9L453.16,207.05L464.16,218.56L475.15,227.48L486.15,233.23L497.15,235.53L508.15,234.43L519.15,230.2L530.15,223.35L541.15,214.54L552.14,204.5L563.14,193.99L574.14,183.74L585.14,174.39L596.14,166.45L607.14,160.31L618.13,156.16L629.13,154.07L640.13,153.91L651.13,155.45L662.12,158.36L673.12,162.21L684.12,166.57L695.12,170.99L706.12,175.05L717.11,178.43L728.11,180.84L739.11,182.13L750.11,182.23L761.1,181.17L772.1,179.09L783.1,176.17L794.09,172.68L805.09,168.88L816.09,165.08L827.09,161.53L838.08,158.48L849.08,156.11L860.08,154.54L871.07,153.81L882.07,153.91L893.07,154.76L904.06,156.22L915.06,158.13L926.06,160.28L937.05,162.46L948.05,164.49L959.04,166.19L970.04,167.42L981.04,168.09L992.03,168.17L1003,167.66L1014,166.62L1025,165.15L1036,163.36L1047,161.41L1058,159.44L1069,157.61L1080,156.04" style="fill:none;stroke:#FF0000" />
<path d="M156.17,929.21L1069.3,929.21" style="fill:none;stroke:#000000" />
<path d="M1069.3,108.82L1069.3,929.21" style="fill:none;stroke:#000000" />
<path d="M1010,927.49A5,5 0 1 1 1000,927.49A5,5 0 1 1 1010,927.49Z" style="fill:#1FD3AC" />
<text x="808.81" y="-920.9" transform="scale(1, -1)"
	style="font-family:Helvetica;font-weight:normal;font-style:normal;font-size:28px">Experimental</text>
<path d="M980,893.06L1030,893.06" style="fill:none;stroke:#FF0000" />
<text x="667.49" y="-886.46" transform="scale(1, -1)"
	style="font-family:Helvetica;font-weight:normal;font-style:normal;font-size:28px">Theoretical (L = 8.6 mm)</text>
</g>
</svg>
