<?xml version="1.0"?>
<!-- Generated by SVGo and Plotinum VG -->
<svg width="1080pt" height="1080pt" viewBox="0 0 1080 1080"
	xmlns="http://www.w3.org/2000/svg"
	xmlns:xlink="http://www.w3.org/1999/xlink">
<g transform="scale(1, -1) translate(0, -1080)">
<path d="M0,0L1080,0L1080,1080L0,1080Z" style="fill:#-8000000000000000-8000000000000000-8000000000000000;fill-opacity:0" />
<text x="82.847" y="-1039.5" transform="scale(1, -1)"
	style="font-family:Helvetica;font-weight:normal;font-style:normal;font-size:50px">1 cm UHNA3 Phase-Matching Bandwidth</text>
<text x="366.73" y="-11.039" transform="scale(1, -1)"
	style="font-family:Helvetica;font-weight:normal;font-style:normal;font-size:36px">Pump-Probe Separation (GHz)</text>
<text x="227" y="-71.258" transform="scale(1, -1)"
	style="font-family:Helvetica;font-weight:normal;font-style:normal;font-size:36px">5.00</text>
<text x="439.72" y="-71.258" transform="scale(1, -1)"
	style="font-family:Helvetica;font-weight:normal;font-style:normal;font-size:36px">15.00</text>
<text x="662.45" y="-71.258" transform="scale(1, -1)"
	style="font-family:Helvetica;font-weight:normal;font-style:normal;font-size:36px">25.00</text>
<text x="885.18" y="-71.258" transform="scale(1, -1)"
	style="font-family:Helvetica;font-weight:normal;font-style:normal;font-size:36px">35.00</text>
<path d="M150.67,112.44L150.67,108.44" style="fill:none;stroke:#000000;stroke-width:1.5" />
<path d="M262.03,116.44L262.03,108.44" style="fill:none;stroke:#000000;stroke-width:1.5" />
<path d="M373.4,112.44L373.4,108.44" style="fill:none;stroke:#000000;stroke-width:1.5" />
<path d="M484.76,116.44L484.76,108.44" style="fill:none;stroke:#000000;stroke-width:1.5" />
<path d="M596.13,112.44L596.13,108.44" style="fill:none;stroke:#000000;stroke-width:1.5" />
<path d="M707.49,116.44L707.49,108.44" style="fill:none;stroke:#000000;stroke-width:1.5" />
<path d="M818.86,112.44L818.86,108.44" style="fill:none;stroke:#000000;stroke-width:1.5" />
<path d="M930.22,116.44L930.22,108.44" style="fill:none;stroke:#000000;stroke-width:1.5" />
<path d="M150.67,108.44L1075,108.44" style="fill:none;stroke:#000000;stroke-width:1.5" />
<g transform="rotate(90)">
<text x="364.4" y="29.18" transform="scale(1, -1)"
	style="font-family:Helvetica;font-weight:normal;font-style:normal;font-size:36px">Peak Spectral Density</text>
</g>
<text x="67.848" y="-154.4" transform="scale(1, -1)"
	style="font-family:Helvetica;font-weight:normal;font-style:normal;font-size:36px">0.34</text>
<text x="67.848" y="-263.7" transform="scale(1, -1)"
	style="font-family:Helvetica;font-weight:normal;font-style:normal;font-size:36px">1.03</text>
<text x="67.848" y="-373" transform="scale(1, -1)"
	style="font-family:Helvetica;font-weight:normal;font-style:normal;font-size:36px">1.71</text>
<text x="67.848" y="-482.3" transform="scale(1, -1)"
	style="font-family:Helvetica;font-weight:normal;font-style:normal;font-size:36px">2.40</text>
<text x="67.848" y="-591.6" transform="scale(1, -1)"
	style="font-family:Helvetica;font-weight:normal;font-style:normal;font-size:36px">3.08</text>
<path d="M159.92,108.82L155.92,108.82" style="fill:none;stroke:#000000;stroke-width:1.5" />
<path d="M163.92,163.47L155.92,163.47" style="fill:none;stroke:#000000;stroke-width:1.5" />
<path d="M159.92,218.12L155.92,218.12" style="fill:none;stroke:#000000;stroke-width:1.5" />
<path d="M163.92,272.77L155.92,272.77" style="fill:none;stroke:#000000;stroke-width:1.5" />
<path d="M159.92,327.42L155.92,327.42" style="fill:none;stroke:#000000;stroke-width:1.5" />
<path d="M163.92,382.07L155.92,382.07" style="fill:none;stroke:#000000;stroke-width:1.5" />
<path d="M159.92,436.72L155.92,436.72" style="fill:none;stroke:#000000;stroke-width:1.5" />
<path d="M163.92,491.37L155.92,491.37" style="fill:none;stroke:#000000;stroke-width:1.5" />
<path d="M159.92,546.02L155.92,546.02" style="fill:none;stroke:#000000;stroke-width:1.5" />
<path d="M163.92,600.67L155.92,600.67" style="fill:none;stroke:#000000;stroke-width:1.5" />
<path d="M159.92,655.32L155.92,655.32" style="fill:none;stroke:#000000;stroke-width:1.5" />
<path d="M159.92,546.02L155.92,546.02" style="fill:none;stroke:#000000;stroke-width:1.5" />
<path d="M155.92,108.82L155.92,974.14" style="fill:none;stroke:#000000;stroke-width:1.5" />
<path d="M267.03,546.02A5,5 0 1 1 257.03,546.02A5,5 0 1 1 267.03,546.02Z" style="fill:#1FD3AC" />
<path d="M278.17,466.89A5,5 0 1 1 268.17,466.89A5,5 0 1 1 278.17,466.89Z" style="fill:#1FD3AC" />
<path d="M289.3,433.49A5,5 0 1 1 279.3,433.49A5,5 0 1 1 289.3,433.49Z" style="fill:#1FD3AC" />
<path d="M300.44,418.29A5,5 0 1 1 290.44,418.29A5,5 0 1 1 300.44,418.29Z" style="fill:#1FD3AC" />
<path d="M311.58,364.86A5,5 0 1 1 301.58,364.86A5,5 0 1 1 311.58,364.86Z" style="fill:#1FD3AC" />
<path d="M322.71,312.53A5,5 0 1 1 312.71,312.53A5,5 0 1 1 322.71,312.53Z" style="fill:#1FD3AC" />
<path d="M333.85,304.27A5,5 0 1 1 323.85,304.27A5,5 0 1 1 333.85,304.27Z" style="fill:#1FD3AC" />
<path d="M344.99,264.94A5,5 0 1 1 334.99,264.94A5,5 0 1 1 344.99,264.94Z" style="fill:#1FD3AC" />
<path d="M356.12,241.9A5,5 0 1 1 346.12,241.9A5,5 0 1 1 356.12,241.9Z" style="fill:#1FD3AC" />
<path d="M367.26,197.21A5,5 0 1 1 357.26,197.21A5,5 0 1 1 367.26,197.21Z" style="fill:#1FD3AC" />
<path d="M378.4,170.31A5,5 0 1 1 368.4,170.31A5,5 0 1 1 378.4,170.31Z" style="fill:#1FD3AC" />
<path d="M389.53,155.88A5,5 0 1 1 379.53,155.88A5,5 0 1 1 389.53,155.88Z" style="fill:#1FD3AC" />
<path d="M400.67,145.25A5,5 0 1 1 390.67,145.25A5,5 0 1 1 400.67,145.25Z" style="fill:#1FD3AC" />
<path d="M411.81,145.97A5,5 0 1 1 401.81,145.97A5,5 0 1 1 411.81,145.97Z" style="fill:#1FD3AC" />
<path d="M422.94,165.62A5,5 0 1 1 412.94,165.62A5,5 0 1 1 422.94,165.62Z" style="fill:#1FD3AC" />
<path d="M434.08,176.84A5,5 0 1 1 424.08,176.84A5,5 0 1 1 434.08,176.84Z" style="fill:#1FD3AC" />
<path d="M445.22,186.65A5,5 0 1 1 435.22,186.65A5,5 0 1 1 445.22,186.65Z" style="fill:#1FD3AC" />
<path d="M456.35,203.82A5,5 0 1 1 446.35,203.82A5,5 0 1 1 456.35,203.82Z" style="fill:#1FD3AC" />
<path d="M467.49,211.22A5,5 0 1 1 457.49,211.22A5,5 0 1 1 467.49,211.22Z" style="fill:#1FD3AC" />
<path d="M478.63,214A5,5 0 1 1 468.63,214A5,5 0 1 1 478.63,214Z" style="fill:#1FD3AC" />
<path d="M489.76,212.1A5,5 0 1 1 479.76,212.1A5,5 0 1 1 489.76,212.1Z" style="fill:#1FD3AC" />
<path d="M500.9,211.1A5,5 0 1 1 490.9,211.1A5,5 0 1 1 500.9,211.1Z" style="fill:#1FD3AC" />
<path d="M512.04,216.25A5,5 0 1 1 502.04,216.25A5,5 0 1 1 512.04,216.25Z" style="fill:#1FD3AC" />
<path d="M523.17,207.15A5,5 0 1 1 513.17,207.15A5,5 0 1 1 523.17,207.15Z" style="fill:#1FD3AC" />
<path d="M534.31,206.26A5,5 0 1 1 524.31,206.26A5,5 0 1 1 534.31,206.26Z" style="fill:#1FD3AC" />
<path d="M545.45,196.37A5,5 0 1 1 535.45,196.37A5,5 0 1 1 545.45,196.37Z" style="fill:#1FD3AC" />
<path d="M556.58,185.5A5,5 0 1 1 546.58,185.5A5,5 0 1 1 556.58,185.5Z" style="fill:#1FD3AC" />
<path d="M567.72,177.25A5,5 0 1 1 557.72,177.25A5,5 0 1 1 567.72,177.25Z" style="fill:#1FD3AC" />
<path d="M578.86,171.63A5,5 0 1 1 568.86,171.63A5,5 0 1 1 578.86,171.63Z" style="fill:#1FD3AC" />
<path d="M589.99,155.52A5,5 0 1 1 579.99,155.52A5,5 0 1 1 589.99,155.52Z" style="fill:#1FD3AC" />
<path d="M601.13,137.13A5,5 0 1 1 591.13,137.13A5,5 0 1 1 601.13,137.13Z" style="fill:#1FD3AC" />
<path d="M612.26,135A5,5 0 1 1 602.26,135A5,5 0 1 1 612.26,135Z" style="fill:#1FD3AC" />
<path d="M623.4,130.37A5,5 0 1 1 613.4,130.37A5,5 0 1 1 623.4,130.37Z" style="fill:#1FD3AC" />
<path d="M634.54,127.18A5,5 0 1 1 624.54,127.18A5,5 0 1 1 634.54,127.18Z" style="fill:#1FD3AC" />
<path d="M645.67,129.59A5,5 0 1 1 635.67,129.59A5,5 0 1 1 645.67,129.59Z" style="fill:#1FD3AC" />
<path d="M656.81,131.71A5,5 0 1 1 646.81,131.71A5,5 0 1 1 656.81,131.71Z" style="fill:#1FD3AC" />
<path d="M667.95,133.76A5,5 0 1 1 657.95,133.76A5,5 0 1 1 667.95,133.76Z" style="fill:#1FD3AC" />
<path d="M679.08,140.73A5,5 0 1 1 669.08,140.73A5,5 0 1 1 679.08,140.73Z" style="fill:#1FD3AC" />
<path d="M690.22,146.32A5,5 0 1 1 680.22,146.32A5,5 0 1 1 690.22,146.32Z" style="fill:#1FD3AC" />
<path d="M701.36,150.13A5,5 0 1 1 691.36,150.13A5,5 0 1 1 701.36,150.13Z" style="fill:#1FD3AC" />
<path d="M712.49,155.37A5,5 0 1 1 702.49,155.37A5,5 0 1 1 712.49,155.37Z" style="fill:#1FD3AC" />
<path d="M723.63,157.13A5,5 0 1 1 713.63,157.13A5,5 0 1 1 723.63,157.13Z" style="fill:#1FD3AC" />
<path d="M734.77,160.26A5,5 0 1 1 724.77,160.26A5,5 0 1 1 734.77,160.26Z" style="fill:#1FD3AC" />
<path d="M745.9,160.67A5,5 0 1 1 735.9,160.67A5,5 0 1 1 745.9,160.67Z" style="fill:#1FD3AC" />
<path d="M757.04,158.33A5,5 0 1 1 747.04,158.33A5,5 0 1 1 757.04,158.33Z" style="fill:#1FD3AC" />
<path d="M768.18,159.3A5,5 0 1 1 758.18,159.3A5,5 0 1 1 768.18,159.3Z" style="fill:#1FD3AC" />
<path d="M779.31,156.96A5,5 0 1 1 769.31,156.96A5,5 0 1 1 779.31,156.96Z" style="fill:#1FD3AC" />
<path d="M790.45,152.01A5,5 0 1 1 780.45,152.01A5,5 0 1 1 790.45,152.01Z" style="fill:#1FD3AC" />
<path d="M801.59,151.39A5,5 0 1 1 791.59,151.39A5,5 0 1 1 801.59,151.39Z" style="fill:#1FD3AC" />
<path d="M812.72,146.69A5,5 0 1 1 802.72,146.69A5,5 0 1 1 812.72,146.69Z" style="fill:#1FD3AC" />
<path d="M823.86,141.22A5,5 0 1 1 813.86,141.22A5,5 0 1 1 823.86,141.22Z" style="fill:#1FD3AC" />
<path d="M835,138.38A5,5 0 1 1 825,138.38A5,5 0 1 1 835,138.38Z" style="fill:#1FD3AC" />
<path d="M846.13,129.62A5,5 0 1 1 836.13,129.62A5,5 0 1 1 846.13,129.62Z" style="fill:#1FD3AC" />
<path d="M857.27,126.49A5,5 0 1 1 847.27,126.49A5,5 0 1 1 857.27,126.49Z" style="fill:#1FD3AC" />
<path d="M868.41,123.36A5,5 0 1 1 858.41,123.36A5,5 0 1 1 868.41,123.36Z" style="fill:#1FD3AC" />
<path d="M879.54,123.12A5,5 0 1 1 869.54,123.12A5,5 0 1 1 879.54,123.12Z" style="fill:#1FD3AC" />
<path d="M890.68,122.54A5,5 0 1 1 880.68,122.54A5,5 0 1 1 890.68,122.54Z" style="fill:#1FD3AC" />
<path d="M901.82,127.92A5,5 0 1 1 891.82,127.92A5,5 0 1 1 901.82,127.92Z" style="fill:#1FD3AC" />
<path d="M912.95,127.53A5,5 0 1 1 902.95,127.53A5,5 0 1 1 912.95,127.53Z" style="fill:#1FD3AC" />
<path d="M924.09,130.09A5,5 0 1 1 914.09,130.09A5,5 0 1 1 924.09,130.09Z" style="fill:#1FD3AC" />
<path d="M935.22,132.71A5,5 0 1 1 925.22,132.71A5,5 0 1 1 935.22,132.71Z" style="fill:#1FD3AC" />
<path d="M946.36,135.36A5,5 0 1 1 936.36,135.36A5,5 0 1 1 946.36,135.36Z" style="fill:#1FD3AC" />
<path d="M957.5,138.84A5,5 0 1 1 947.5,138.84A5,5 0 1 1 957.5,138.84Z" style="fill:#1FD3AC" />
<path d="M968.63,140.65A5,5 0 1 1 958.63,140.65A5,5 0 1 1 968.63,140.65Z" style="fill:#1FD3AC" />
<path d="M979.77,144.01A5,5 0 1 1 969.77,144.01A5,5 0 1 1 979.77,144.01Z" style="fill:#1FD3AC" />
<path d="M990.91,141.39A5,5 0 1 1 980.91,141.39A5,5 0 1 1 990.91,141.39Z" style="fill:#1FD3AC" />
<path d="M1002,142.59A5,5 0 1 1 992.04,142.59A5,5 0 1 1 1002,142.59Z" style="fill:#1FD3AC" />
<path d="M1013.2,141.94A5,5 0 1 1 1003.2,141.94A5,5 0 1 1 1013.2,141.94Z" style="fill:#1FD3AC" />
<path d="M1024.3,140.28A5,5 0 1 1 1014.3,140.28A5,5 0 1 1 1024.3,140.28Z" style="fill:#1FD3AC" />
<path d="M1035.5,137.29A5,5 0 1 1 1025.5,137.29A5,5 0 1 1 1035.5,137.29Z" style="fill:#1FD3AC" />
<path d="M1046.6,135.89A5,5 0 1 1 1036.6,135.89A5,5 0 1 1 1046.6,135.89Z" style="fill:#1FD3AC" />
<path d="M1057.7,133.76A5,5 0 1 1 1047.7,133.76A5,5 0 1 1 1057.7,133.76Z" style="fill:#1FD3AC" />
<path d="M1068.9,131.05A5,5 0 1 1 1058.9,131.05A5,5 0 1 1 1068.9,131.05Z" style="fill:#1FD3AC" />
<path d="M1080,123.97A5,5 0 1 1 1070,123.97A5,5 0 1 1 1080,123.97Z" style="fill:#1FD3AC" />
<path d="M150.67,546.02L1075,546.02" style="fill:none;stroke:#000000" />
<path d="M1075,108.82L1075,546.02" style="fill:none;stroke:#000000" />
<path d="M262.03,974.14L273.17,841.56L284.3,714.85L295.44,596.77L306.58,489.57L317.71,394.97L328.85,314.08L339.99,247.43L351.12,194.96L362.26,156.09L373.4,129.8L384.53,114.66L395.67,108.98L406.81,110.9L417.94,118.47L429.08,129.78L440.22,143.02L451.35,156.6L462.49,169.15L473.63,179.61L484.76,187.22L495.9,191.54L507.04,192.46L518.17,190.1L529.31,184.83L540.45,177.2L551.58,167.87L562.72,157.56L573.86,147.02L584.99,136.91L596.13,127.83L607.26,120.25L618.4,114.5L629.54,110.74L640.67,108.98L651.81,109.11L662.95,110.86L674.08,113.91L685.22,117.85L696.36,122.24L707.49,126.67L718.63,130.73L729.77,134.09L740.9,136.52L752.04,137.83L763.18,137.97L774.31,136.98L785.45,134.96L796.59,132.1L807.72,128.65L818.86,124.86L830,121.03L841.13,117.41L852.27,114.23L863.41,111.7L874.54,109.93L885.68,108.98L896.82,108.87L907.95,109.52L919.09,110.81L930.22,112.6L941.36,114.7L952.5,116.9L963.63,119.02L974.77,120.87L985.91,122.32L997.04,123.25L1008.2,123.61L1019.3,123.38L1030.5,122.59L1041.6,121.32L1052.7,119.68L1063.9,117.79L1075,115.81" style="fill:none;stroke:#FF0000" />
<path d="M150.67,546.02L1075,546.02" style="fill:none;stroke:#000000" />
<path d="M1075,108.82L1075,546.02" style="fill:none;stroke:#000000" />
</g>
</svg>
