<?xml version="1.0"?>
<!-- Generated by SVGo and Plotinum VG -->
<svg width="1080pt" height="1080pt" viewBox="0 0 1080 1080"
	xmlns="http://www.w3.org/2000/svg"
	xmlns:xlink="http://www.w3.org/1999/xlink">
<g transform="scale(1, -1) translate(0, -1080)">
<path d="M0,0L1080,0L1080,1080L0,1080Z" style="fill-opacity:0" />
<text x="365.51" y="-1047.6" transform="scale(1, -1)"
	style="font-family:Helvetica;font-weight:normal;font-style:normal;font-size:40px">1 cm UHNA3 CoBS</text>
<text x="425.32" y="-9.1992" transform="scale(1, -1)"
	style="font-family:Helvetica;font-weight:normal;font-style:normal;font-size:30px">Frequency (Ω/2π) (GHz)</text>
<text x="73.968" y="-47.715" transform="scale(1, -1)"
	style="font-family:Helvetica;font-weight:normal;font-style:normal;font-size:30px">8.75</text>
<text x="362.64" y="-47.715" transform="scale(1, -1)"
	style="font-family:Helvetica;font-weight:normal;font-style:normal;font-size:30px">9.00</text>
<text x="651.32" y="-47.715" transform="scale(1, -1)"
	style="font-family:Helvetica;font-weight:normal;font-style:normal;font-size:30px">9.25</text>
<text x="940" y="-47.715" transform="scale(1, -1)"
	style="font-family:Helvetica;font-weight:normal;font-style:normal;font-size:30px">9.50</text>
<path d="M103.16,88.031L103.16,80.031" style="fill:none;stroke:#000000;stroke-width:1.5" />
<path d="M160.9,84.031L160.9,80.031" style="fill:none;stroke:#000000;stroke-width:1.5" />
<path d="M218.63,84.031L218.63,80.031" style="fill:none;stroke:#000000;stroke-width:1.5" />
<path d="M276.37,84.031L276.37,80.031" style="fill:none;stroke:#000000;stroke-width:1.5" />
<path d="M334.1,84.031L334.1,80.031" style="fill:none;stroke:#000000;stroke-width:1.5" />
<path d="M391.84,88.031L391.84,80.031" style="fill:none;stroke:#000000;stroke-width:1.5" />
<path d="M449.57,84.031L449.57,80.031" style="fill:none;stroke:#000000;stroke-width:1.5" />
<path d="M507.31,84.031L507.31,80.031" style="fill:none;stroke:#000000;stroke-width:1.5" />
<path d="M565.04,84.031L565.04,80.031" style="fill:none;stroke:#000000;stroke-width:1.5" />
<path d="M622.78,84.031L622.78,80.031" style="fill:none;stroke:#000000;stroke-width:1.5" />
<path d="M680.51,88.031L680.51,80.031" style="fill:none;stroke:#000000;stroke-width:1.5" />
<path d="M738.25,84.031L738.25,80.031" style="fill:none;stroke:#000000;stroke-width:1.5" />
<path d="M795.98,84.031L795.98,80.031" style="fill:none;stroke:#000000;stroke-width:1.5" />
<path d="M853.72,84.031L853.72,80.031" style="fill:none;stroke:#000000;stroke-width:1.5" />
<path d="M911.46,84.031L911.46,80.031" style="fill:none;stroke:#000000;stroke-width:1.5" />
<path d="M969.19,88.031L969.19,80.031" style="fill:none;stroke:#000000;stroke-width:1.5" />
<path d="M1026.9,84.031L1026.9,80.031" style="fill:none;stroke:#000000;stroke-width:1.5" />
<path d="M103.16,80.031L1074,80.031" style="fill:none;stroke:#000000;stroke-width:2.5" />
<g transform="rotate(90)">
<text x="459.96" y="24.316" transform="scale(1, -1)"
	style="font-family:Helvetica;font-weight:normal;font-style:normal;font-size:30px">Arbitrary Units</text>
</g>
<text x="44.873" y="-72.08" transform="scale(1, -1)"
	style="font-family:Helvetica;font-weight:normal;font-style:normal;font-size:30px">0.0</text>
<text x="44.873" y="-244.93" transform="scale(1, -1)"
	style="font-family:Helvetica;font-weight:normal;font-style:normal;font-size:30px">0.2</text>
<text x="44.873" y="-417.78" transform="scale(1, -1)"
	style="font-family:Helvetica;font-weight:normal;font-style:normal;font-size:30px">0.4</text>
<text x="44.873" y="-590.63" transform="scale(1, -1)"
	style="font-family:Helvetica;font-weight:normal;font-style:normal;font-size:30px">0.6</text>
<text x="44.873" y="-763.48" transform="scale(1, -1)"
	style="font-family:Helvetica;font-weight:normal;font-style:normal;font-size:30px">0.8</text>
<text x="44.873" y="-936.33" transform="scale(1, -1)"
	style="font-family:Helvetica;font-weight:normal;font-style:normal;font-size:30px">1.0</text>
<path d="M110.91,79.639L102.91,79.639" style="fill:none;stroke:#000000;stroke-width:1.5" />
<path d="M106.91,108.45L102.91,108.45" style="fill:none;stroke:#000000;stroke-width:1.5" />
<path d="M106.91,137.26L102.91,137.26" style="fill:none;stroke:#000000;stroke-width:1.5" />
<path d="M106.91,166.06L102.91,166.06" style="fill:none;stroke:#000000;stroke-width:1.5" />
<path d="M106.91,194.87L102.91,194.87" style="fill:none;stroke:#000000;stroke-width:1.5" />
<path d="M106.91,223.68L102.91,223.68" style="fill:none;stroke:#000000;stroke-width:1.5" />
<path d="M110.91,252.49L102.91,252.49" style="fill:none;stroke:#000000;stroke-width:1.5" />
<path d="M106.91,281.3L102.91,281.3" style="fill:none;stroke:#000000;stroke-width:1.5" />
<path d="M106.91,310.11L102.91,310.11" style="fill:none;stroke:#000000;stroke-width:1.5" />
<path d="M106.91,338.91L102.91,338.91" style="fill:none;stroke:#000000;stroke-width:1.5" />
<path d="M106.91,367.72L102.91,367.72" style="fill:none;stroke:#000000;stroke-width:1.5" />
<path d="M106.91,396.53L102.91,396.53" style="fill:none;stroke:#000000;stroke-width:1.5" />
<path d="M110.91,425.34L102.91,425.34" style="fill:none;stroke:#000000;stroke-width:1.5" />
<path d="M106.91,454.15L102.91,454.15" style="fill:none;stroke:#000000;stroke-width:1.5" />
<path d="M106.91,482.95L102.91,482.95" style="fill:none;stroke:#000000;stroke-width:1.5" />
<path d="M106.91,511.76L102.91,511.76" style="fill:none;stroke:#000000;stroke-width:1.5" />
<path d="M106.91,540.57L102.91,540.57" style="fill:none;stroke:#000000;stroke-width:1.5" />
<path d="M106.91,569.38L102.91,569.38" style="fill:none;stroke:#000000;stroke-width:1.5" />
<path d="M110.91,598.19L102.91,598.19" style="fill:none;stroke:#000000;stroke-width:1.5" />
<path d="M106.91,627L102.91,627" style="fill:none;stroke:#000000;stroke-width:1.5" />
<path d="M106.91,655.8L102.91,655.8" style="fill:none;stroke:#000000;stroke-width:1.5" />
<path d="M106.91,684.61L102.91,684.61" style="fill:none;stroke:#000000;stroke-width:1.5" />
<path d="M106.91,713.42L102.91,713.42" style="fill:none;stroke:#000000;stroke-width:1.5" />
<path d="M106.91,742.23L102.91,742.23" style="fill:none;stroke:#000000;stroke-width:1.5" />
<path d="M110.91,771.04L102.91,771.04" style="fill:none;stroke:#000000;stroke-width:1.5" />
<path d="M106.91,799.85L102.91,799.85" style="fill:none;stroke:#000000;stroke-width:1.5" />
<path d="M106.91,828.65L102.91,828.65" style="fill:none;stroke:#000000;stroke-width:1.5" />
<path d="M106.91,857.46L102.91,857.46" style="fill:none;stroke:#000000;stroke-width:1.5" />
<path d="M106.91,886.27L102.91,886.27" style="fill:none;stroke:#000000;stroke-width:1.5" />
<path d="M106.91,915.08L102.91,915.08" style="fill:none;stroke:#000000;stroke-width:1.5" />
<path d="M110.91,943.89L102.91,943.89" style="fill:none;stroke:#000000;stroke-width:1.5" />
<path d="M102.91,79.639L102.91,1030.3" style="fill:none;stroke:#000000;stroke-width:2.5" />
<path d="M103.16,119.97L103.16,120.59" style="fill:none;stroke:#1FD3AC" />
<path d="M100.66,119.97L105.66,119.97" style="fill:none;stroke:#1FD3AC" />
<path d="M100.66,120.59L105.66,120.59" style="fill:none;stroke:#1FD3AC" />
<path d="M108.94,119.68L108.94,120.22" style="fill:none;stroke:#1FD3AC" />
<path d="M106.44,119.68L111.44,119.68" style="fill:none;stroke:#1FD3AC" />
<path d="M106.44,120.22L111.44,120.22" style="fill:none;stroke:#1FD3AC" />
<path d="M114.72,118.98L114.72,119.79" style="fill:none;stroke:#1FD3AC" />
<path d="M112.22,118.98L117.22,118.98" style="fill:none;stroke:#1FD3AC" />
<path d="M112.22,119.79L117.22,119.79" style="fill:none;stroke:#1FD3AC" />
<path d="M120.5,117.89L120.5,118.89" style="fill:none;stroke:#1FD3AC" />
<path d="M118,117.89L123,117.89" style="fill:none;stroke:#1FD3AC" />
<path d="M118,118.89L123,118.89" style="fill:none;stroke:#1FD3AC" />
<path d="M126.28,117.57L126.28,118.22" style="fill:none;stroke:#1FD3AC" />
<path d="M123.78,117.57L128.78,117.57" style="fill:none;stroke:#1FD3AC" />
<path d="M123.78,118.22L128.78,118.22" style="fill:none;stroke:#1FD3AC" />
<path d="M132.06,117.46L132.06,118.37" style="fill:none;stroke:#1FD3AC" />
<path d="M129.56,117.46L134.56,117.46" style="fill:none;stroke:#1FD3AC" />
<path d="M129.56,118.37L134.56,118.37" style="fill:none;stroke:#1FD3AC" />
<path d="M137.83,117.1L137.83,117.71" style="fill:none;stroke:#1FD3AC" />
<path d="M135.33,117.1L140.33,117.1" style="fill:none;stroke:#1FD3AC" />
<path d="M135.33,117.71L140.33,117.71" style="fill:none;stroke:#1FD3AC" />
<path d="M143.61,116.66L143.61,117.31" style="fill:none;stroke:#1FD3AC" />
<path d="M141.11,116.66L146.11,116.66" style="fill:none;stroke:#1FD3AC" />
<path d="M141.11,117.31L146.11,117.31" style="fill:none;stroke:#1FD3AC" />
<path d="M149.39,116.48L149.39,117.67" style="fill:none;stroke:#1FD3AC" />
<path d="M146.89,116.48L151.89,116.48" style="fill:none;stroke:#1FD3AC" />
<path d="M146.89,117.67L151.89,117.67" style="fill:none;stroke:#1FD3AC" />
<path d="M155.17,115.97L155.17,117.21" style="fill:none;stroke:#1FD3AC" />
<path d="M152.67,115.97L157.67,115.97" style="fill:none;stroke:#1FD3AC" />
<path d="M152.67,117.21L157.67,117.21" style="fill:none;stroke:#1FD3AC" />
<path d="M160.95,115.89L160.95,116.85" style="fill:none;stroke:#1FD3AC" />
<path d="M158.45,115.89L163.45,115.89" style="fill:none;stroke:#1FD3AC" />
<path d="M158.45,116.85L163.45,116.85" style="fill:none;stroke:#1FD3AC" />
<path d="M166.73,115.52L166.73,116.21" style="fill:none;stroke:#1FD3AC" />
<path d="M164.23,115.52L169.23,115.52" style="fill:none;stroke:#1FD3AC" />
<path d="M164.23,116.21L169.23,116.21" style="fill:none;stroke:#1FD3AC" />
<path d="M172.51,115.15L172.51,115.64" style="fill:none;stroke:#1FD3AC" />
<path d="M170.01,115.15L175.01,115.15" style="fill:none;stroke:#1FD3AC" />
<path d="M170.01,115.64L175.01,115.64" style="fill:none;stroke:#1FD3AC" />
<path d="M178.29,115.02L178.29,115.7" style="fill:none;stroke:#1FD3AC" />
<path d="M175.79,115.02L180.79,115.02" style="fill:none;stroke:#1FD3AC" />
<path d="M175.79,115.7L180.79,115.7" style="fill:none;stroke:#1FD3AC" />
<path d="M184.07,114.99L184.07,115.68" style="fill:none;stroke:#1FD3AC" />
<path d="M181.57,114.99L186.57,114.99" style="fill:none;stroke:#1FD3AC" />
<path d="M181.57,115.68L186.57,115.68" style="fill:none;stroke:#1FD3AC" />
<path d="M189.84,114.89L189.84,115.55" style="fill:none;stroke:#1FD3AC" />
<path d="M187.34,114.89L192.34,114.89" style="fill:none;stroke:#1FD3AC" />
<path d="M187.34,115.55L192.34,115.55" style="fill:none;stroke:#1FD3AC" />
<path d="M195.62,114.7L195.62,115.6" style="fill:none;stroke:#1FD3AC" />
<path d="M193.12,114.7L198.12,114.7" style="fill:none;stroke:#1FD3AC" />
<path d="M193.12,115.6L198.12,115.6" style="fill:none;stroke:#1FD3AC" />
<path d="M201.4,114.8L201.4,115.67" style="fill:none;stroke:#1FD3AC" />
<path d="M198.9,114.8L203.9,114.8" style="fill:none;stroke:#1FD3AC" />
<path d="M198.9,115.67L203.9,115.67" style="fill:none;stroke:#1FD3AC" />
<path d="M207.18,115.04L207.18,115.59" style="fill:none;stroke:#1FD3AC" />
<path d="M204.68,115.04L209.68,115.04" style="fill:none;stroke:#1FD3AC" />
<path d="M204.68,115.59L209.68,115.59" style="fill:none;stroke:#1FD3AC" />
<path d="M212.96,114.94L212.96,115.44" style="fill:none;stroke:#1FD3AC" />
<path d="M210.46,114.94L215.46,114.94" style="fill:none;stroke:#1FD3AC" />
<path d="M210.46,115.44L215.46,115.44" style="fill:none;stroke:#1FD3AC" />
<path d="M218.74,115.35L218.74,116.14" style="fill:none;stroke:#1FD3AC" />
<path d="M216.24,115.35L221.24,115.35" style="fill:none;stroke:#1FD3AC" />
<path d="M216.24,116.14L221.24,116.14" style="fill:none;stroke:#1FD3AC" />
<path d="M224.52,115.28L224.52,116" style="fill:none;stroke:#1FD3AC" />
<path d="M222.02,115.28L227.02,115.28" style="fill:none;stroke:#1FD3AC" />
<path d="M222.02,116L227.02,116" style="fill:none;stroke:#1FD3AC" />
<path d="M230.3,115.7L230.3,116.75" style="fill:none;stroke:#1FD3AC" />
<path d="M227.8,115.7L232.8,115.7" style="fill:none;stroke:#1FD3AC" />
<path d="M227.8,116.75L232.8,116.75" style="fill:none;stroke:#1FD3AC" />
<path d="M236.07,116.1L236.07,116.82" style="fill:none;stroke:#1FD3AC" />
<path d="M233.57,116.1L238.57,116.1" style="fill:none;stroke:#1FD3AC" />
<path d="M233.57,116.82L238.57,116.82" style="fill:none;stroke:#1FD3AC" />
<path d="M241.85,116.18L241.85,116.63" style="fill:none;stroke:#1FD3AC" />
<path d="M239.35,116.18L244.35,116.18" style="fill:none;stroke:#1FD3AC" />
<path d="M239.35,116.63L244.35,116.63" style="fill:none;stroke:#1FD3AC" />
<path d="M247.63,116.52L247.63,116.86" style="fill:none;stroke:#1FD3AC" />
<path d="M245.13,116.52L250.13,116.52" style="fill:none;stroke:#1FD3AC" />
<path d="M245.13,116.86L250.13,116.86" style="fill:none;stroke:#1FD3AC" />
<path d="M253.41,117.15L253.41,117.63" style="fill:none;stroke:#1FD3AC" />
<path d="M250.91,117.15L255.91,117.15" style="fill:none;stroke:#1FD3AC" />
<path d="M250.91,117.63L255.91,117.63" style="fill:none;stroke:#1FD3AC" />
<path d="M259.19,117.82L259.19,119.07" style="fill:none;stroke:#1FD3AC" />
<path d="M256.69,117.82L261.69,117.82" style="fill:none;stroke:#1FD3AC" />
<path d="M256.69,119.07L261.69,119.07" style="fill:none;stroke:#1FD3AC" />
<path d="M264.97,118.5L264.97,119.67" style="fill:none;stroke:#1FD3AC" />
<path d="M262.47,118.5L267.47,118.5" style="fill:none;stroke:#1FD3AC" />
<path d="M262.47,119.67L267.47,119.67" style="fill:none;stroke:#1FD3AC" />
<path d="M270.75,119.17L270.75,120.2" style="fill:none;stroke:#1FD3AC" />
<path d="M268.25,119.17L273.25,119.17" style="fill:none;stroke:#1FD3AC" />
<path d="M268.25,120.2L273.25,120.2" style="fill:none;stroke:#1FD3AC" />
<path d="M276.53,119.98L276.53,120.85" style="fill:none;stroke:#1FD3AC" />
<path d="M274.03,119.98L279.03,119.98" style="fill:none;stroke:#1FD3AC" />
<path d="M274.03,120.85L279.03,120.85" style="fill:none;stroke:#1FD3AC" />
<path d="M282.3,121.1L282.3,122.29" style="fill:none;stroke:#1FD3AC" />
<path d="M279.8,121.1L284.8,121.1" style="fill:none;stroke:#1FD3AC" />
<path d="M279.8,122.29L284.8,122.29" style="fill:none;stroke:#1FD3AC" />
<path d="M288.08,122.05L288.08,122.96" style="fill:none;stroke:#1FD3AC" />
<path d="M285.58,122.05L290.58,122.05" style="fill:none;stroke:#1FD3AC" />
<path d="M285.58,122.96L290.58,122.96" style="fill:none;stroke:#1FD3AC" />
<path d="M293.86,123.45L293.86,124.04" style="fill:none;stroke:#1FD3AC" />
<path d="M291.36,123.45L296.36,123.45" style="fill:none;stroke:#1FD3AC" />
<path d="M291.36,124.04L296.36,124.04" style="fill:none;stroke:#1FD3AC" />
<path d="M299.64,124.49L299.64,125.2" style="fill:none;stroke:#1FD3AC" />
<path d="M297.14,124.49L302.14,124.49" style="fill:none;stroke:#1FD3AC" />
<path d="M297.14,125.2L302.14,125.2" style="fill:none;stroke:#1FD3AC" />
<path d="M305.42,125.92L305.42,126.8" style="fill:none;stroke:#1FD3AC" />
<path d="M302.92,125.92L307.92,125.92" style="fill:none;stroke:#1FD3AC" />
<path d="M302.92,126.8L307.92,126.8" style="fill:none;stroke:#1FD3AC" />
<path d="M311.2,127.52L311.2,128.25" style="fill:none;stroke:#1FD3AC" />
<path d="M308.7,127.52L313.7,127.52" style="fill:none;stroke:#1FD3AC" />
<path d="M308.7,128.25L313.7,128.25" style="fill:none;stroke:#1FD3AC" />
<path d="M316.98,129.31L316.98,129.76" style="fill:none;stroke:#1FD3AC" />
<path d="M314.48,129.31L319.48,129.31" style="fill:none;stroke:#1FD3AC" />
<path d="M314.48,129.76L319.48,129.76" style="fill:none;stroke:#1FD3AC" />
<path d="M322.76,130.84L322.76,131.4" style="fill:none;stroke:#1FD3AC" />
<path d="M320.26,130.84L325.26,130.84" style="fill:none;stroke:#1FD3AC" />
<path d="M320.26,131.4L325.26,131.4" style="fill:none;stroke:#1FD3AC" />
<path d="M328.54,132.23L328.54,132.95" style="fill:none;stroke:#1FD3AC" />
<path d="M326.04,132.23L331.04,132.23" style="fill:none;stroke:#1FD3AC" />
<path d="M326.04,132.95L331.04,132.95" style="fill:none;stroke:#1FD3AC" />
<path d="M334.31,134.05L334.31,134.9" style="fill:none;stroke:#1FD3AC" />
<path d="M331.81,134.05L336.81,134.05" style="fill:none;stroke:#1FD3AC" />
<path d="M331.81,134.9L336.81,134.9" style="fill:none;stroke:#1FD3AC" />
<path d="M340.09,136.18L340.09,137.27" style="fill:none;stroke:#1FD3AC" />
<path d="M337.59,136.18L342.59,136.18" style="fill:none;stroke:#1FD3AC" />
<path d="M337.59,137.27L342.59,137.27" style="fill:none;stroke:#1FD3AC" />
<path d="M345.87,138.74L345.87,139.45" style="fill:none;stroke:#1FD3AC" />
<path d="M343.37,138.74L348.37,138.74" style="fill:none;stroke:#1FD3AC" />
<path d="M343.37,139.45L348.37,139.45" style="fill:none;stroke:#1FD3AC" />
<path d="M351.65,141.1L351.65,141.73" style="fill:none;stroke:#1FD3AC" />
<path d="M349.15,141.1L354.15,141.1" style="fill:none;stroke:#1FD3AC" />
<path d="M349.15,141.73L354.15,141.73" style="fill:none;stroke:#1FD3AC" />
<path d="M357.43,143.76L357.43,144.58" style="fill:none;stroke:#1FD3AC" />
<path d="M354.93,143.76L359.93,143.76" style="fill:none;stroke:#1FD3AC" />
<path d="M354.93,144.58L359.93,144.58" style="fill:none;stroke:#1FD3AC" />
<path d="M363.21,146.61L363.21,147.69" style="fill:none;stroke:#1FD3AC" />
<path d="M360.71,146.61L365.71,146.61" style="fill:none;stroke:#1FD3AC" />
<path d="M360.71,147.69L365.71,147.69" style="fill:none;stroke:#1FD3AC" />
<path d="M368.99,149.78L368.99,150.9" style="fill:none;stroke:#1FD3AC" />
<path d="M366.49,149.78L371.49,149.78" style="fill:none;stroke:#1FD3AC" />
<path d="M366.49,150.9L371.49,150.9" style="fill:none;stroke:#1FD3AC" />
<path d="M374.77,152.85L374.77,153.96" style="fill:none;stroke:#1FD3AC" />
<path d="M372.27,152.85L377.27,152.85" style="fill:none;stroke:#1FD3AC" />
<path d="M372.27,153.96L377.27,153.96" style="fill:none;stroke:#1FD3AC" />
<path d="M380.54,155.98L380.54,157.31" style="fill:none;stroke:#1FD3AC" />
<path d="M378.04,155.98L383.04,155.98" style="fill:none;stroke:#1FD3AC" />
<path d="M378.04,157.31L383.04,157.31" style="fill:none;stroke:#1FD3AC" />
<path d="M386.32,160.11L386.32,161.71" style="fill:none;stroke:#1FD3AC" />
<path d="M383.82,160.11L388.82,160.11" style="fill:none;stroke:#1FD3AC" />
<path d="M383.82,161.71L388.82,161.71" style="fill:none;stroke:#1FD3AC" />
<path d="M392.1,164.49L392.1,166.49" style="fill:none;stroke:#1FD3AC" />
<path d="M389.6,164.49L394.6,164.49" style="fill:none;stroke:#1FD3AC" />
<path d="M389.6,166.49L394.6,166.49" style="fill:none;stroke:#1FD3AC" />
<path d="M397.88,169.37L397.88,171.39" style="fill:none;stroke:#1FD3AC" />
<path d="M395.38,169.37L400.38,169.37" style="fill:none;stroke:#1FD3AC" />
<path d="M395.38,171.39L400.38,171.39" style="fill:none;stroke:#1FD3AC" />
<path d="M403.66,174.86L403.66,177.3" style="fill:none;stroke:#1FD3AC" />
<path d="M401.16,174.86L406.16,174.86" style="fill:none;stroke:#1FD3AC" />
<path d="M401.16,177.3L406.16,177.3" style="fill:none;stroke:#1FD3AC" />
<path d="M409.44,180.62L409.44,182.83" style="fill:none;stroke:#1FD3AC" />
<path d="M406.94,180.62L411.94,180.62" style="fill:none;stroke:#1FD3AC" />
<path d="M406.94,182.83L411.94,182.83" style="fill:none;stroke:#1FD3AC" />
<path d="M415.22,186.81L415.22,188.57" style="fill:none;stroke:#1FD3AC" />
<path d="M412.72,186.81L417.72,186.81" style="fill:none;stroke:#1FD3AC" />
<path d="M412.72,188.57L417.72,188.57" style="fill:none;stroke:#1FD3AC" />
<path d="M421,193.88L421,195.26" style="fill:none;stroke:#1FD3AC" />
<path d="M418.5,193.88L423.5,193.88" style="fill:none;stroke:#1FD3AC" />
<path d="M418.5,195.26L423.5,195.26" style="fill:none;stroke:#1FD3AC" />
<path d="M426.77,200.98L426.77,202.45" style="fill:none;stroke:#1FD3AC" />
<path d="M424.27,200.98L429.27,200.98" style="fill:none;stroke:#1FD3AC" />
<path d="M424.27,202.45L429.27,202.45" style="fill:none;stroke:#1FD3AC" />
<path d="M432.55,209.89L432.55,211.84" style="fill:none;stroke:#1FD3AC" />
<path d="M430.05,209.89L435.05,209.89" style="fill:none;stroke:#1FD3AC" />
<path d="M430.05,211.84L435.05,211.84" style="fill:none;stroke:#1FD3AC" />
<path d="M438.33,218.76L438.33,221.11" style="fill:none;stroke:#1FD3AC" />
<path d="M435.83,218.76L440.83,218.76" style="fill:none;stroke:#1FD3AC" />
<path d="M435.83,221.11L440.83,221.11" style="fill:none;stroke:#1FD3AC" />
<path d="M444.11,228.41L444.11,231.12" style="fill:none;stroke:#1FD3AC" />
<path d="M441.61,228.41L446.61,228.41" style="fill:none;stroke:#1FD3AC" />
<path d="M441.61,231.12L446.61,231.12" style="fill:none;stroke:#1FD3AC" />
<path d="M449.89,239L449.89,241.59" style="fill:none;stroke:#1FD3AC" />
<path d="M447.39,239L452.39,239" style="fill:none;stroke:#1FD3AC" />
<path d="M447.39,241.59L452.39,241.59" style="fill:none;stroke:#1FD3AC" />
<path d="M455.67,251.21L455.67,253.97" style="fill:none;stroke:#1FD3AC" />
<path d="M453.17,251.21L458.17,251.21" style="fill:none;stroke:#1FD3AC" />
<path d="M453.17,253.97L458.17,253.97" style="fill:none;stroke:#1FD3AC" />
<path d="M461.45,263.61L461.45,266.49" style="fill:none;stroke:#1FD3AC" />
<path d="M458.95,263.61L463.95,263.61" style="fill:none;stroke:#1FD3AC" />
<path d="M458.95,266.49L463.95,266.49" style="fill:none;stroke:#1FD3AC" />
<path d="M467.23,277.74L467.23,281.01" style="fill:none;stroke:#1FD3AC" />
<path d="M464.73,277.74L469.73,277.74" style="fill:none;stroke:#1FD3AC" />
<path d="M464.73,281.01L469.73,281.01" style="fill:none;stroke:#1FD3AC" />
<path d="M473.01,294.02L473.01,296.68" style="fill:none;stroke:#1FD3AC" />
<path d="M470.51,294.02L475.51,294.02" style="fill:none;stroke:#1FD3AC" />
<path d="M470.51,296.68L475.51,296.68" style="fill:none;stroke:#1FD3AC" />
<path d="M478.78,310.47L478.78,313.65" style="fill:none;stroke:#1FD3AC" />
<path d="M476.28,310.47L481.28,310.47" style="fill:none;stroke:#1FD3AC" />
<path d="M476.28,313.65L481.28,313.65" style="fill:none;stroke:#1FD3AC" />
<path d="M484.56,329.39L484.56,332.88" style="fill:none;stroke:#1FD3AC" />
<path d="M482.06,329.39L487.06,329.39" style="fill:none;stroke:#1FD3AC" />
<path d="M482.06,332.88L487.06,332.88" style="fill:none;stroke:#1FD3AC" />
<path d="M490.34,350.11L490.34,353.76" style="fill:none;stroke:#1FD3AC" />
<path d="M487.84,350.11L492.84,350.11" style="fill:none;stroke:#1FD3AC" />
<path d="M487.84,353.76L492.84,353.76" style="fill:none;stroke:#1FD3AC" />
<path d="M496.12,372.27L496.12,376.91" style="fill:none;stroke:#1FD3AC" />
<path d="M493.62,372.27L498.62,372.27" style="fill:none;stroke:#1FD3AC" />
<path d="M493.62,376.91L498.62,376.91" style="fill:none;stroke:#1FD3AC" />
<path d="M501.9,396.92L501.9,401.53" style="fill:none;stroke:#1FD3AC" />
<path d="M499.4,396.92L504.4,396.92" style="fill:none;stroke:#1FD3AC" />
<path d="M499.4,401.53L504.4,401.53" style="fill:none;stroke:#1FD3AC" />
<path d="M507.68,423.36L507.68,428.57" style="fill:none;stroke:#1FD3AC" />
<path d="M505.18,423.36L510.18,423.36" style="fill:none;stroke:#1FD3AC" />
<path d="M505.18,428.57L510.18,428.57" style="fill:none;stroke:#1FD3AC" />
<path d="M513.46,452.28L513.46,457.62" style="fill:none;stroke:#1FD3AC" />
<path d="M510.96,452.28L515.96,452.28" style="fill:none;stroke:#1FD3AC" />
<path d="M510.96,457.62L515.96,457.62" style="fill:none;stroke:#1FD3AC" />
<path d="M519.24,484.58L519.24,490.08" style="fill:none;stroke:#1FD3AC" />
<path d="M516.74,484.58L521.74,484.58" style="fill:none;stroke:#1FD3AC" />
<path d="M516.74,490.08L521.74,490.08" style="fill:none;stroke:#1FD3AC" />
<path d="M525.01,521.44L525.01,528.05" style="fill:none;stroke:#1FD3AC" />
<path d="M522.51,521.44L527.51,521.44" style="fill:none;stroke:#1FD3AC" />
<path d="M522.51,528.05L527.51,528.05" style="fill:none;stroke:#1FD3AC" />
<path d="M530.79,564.63L530.79,570.81" style="fill:none;stroke:#1FD3AC" />
<path d="M528.29,564.63L533.29,564.63" style="fill:none;stroke:#1FD3AC" />
<path d="M528.29,570.81L533.29,570.81" style="fill:none;stroke:#1FD3AC" />
<path d="M536.57,608.93L536.57,616.42" style="fill:none;stroke:#1FD3AC" />
<path d="M534.07,608.93L539.07,608.93" style="fill:none;stroke:#1FD3AC" />
<path d="M534.07,616.42L539.07,616.42" style="fill:none;stroke:#1FD3AC" />
<path d="M542.35,659.22L542.35,667.48" style="fill:none;stroke:#1FD3AC" />
<path d="M539.85,659.22L544.85,659.22" style="fill:none;stroke:#1FD3AC" />
<path d="M539.85,667.48L544.85,667.48" style="fill:none;stroke:#1FD3AC" />
<path d="M548.13,714.14L548.13,721.74" style="fill:none;stroke:#1FD3AC" />
<path d="M545.63,714.14L550.63,714.14" style="fill:none;stroke:#1FD3AC" />
<path d="M545.63,721.74L550.63,721.74" style="fill:none;stroke:#1FD3AC" />
<path d="M553.91,771.92L553.91,780.76" style="fill:none;stroke:#1FD3AC" />
<path d="M551.41,771.92L556.41,771.92" style="fill:none;stroke:#1FD3AC" />
<path d="M551.41,780.76L556.41,780.76" style="fill:none;stroke:#1FD3AC" />
<path d="M559.69,828.25L559.69,839.6" style="fill:none;stroke:#1FD3AC" />
<path d="M557.19,828.25L562.19,828.25" style="fill:none;stroke:#1FD3AC" />
<path d="M557.19,839.6L562.19,839.6" style="fill:none;stroke:#1FD3AC" />
<path d="M565.47,883.43L565.47,892.83" style="fill:none;stroke:#1FD3AC" />
<path d="M562.97,883.43L567.97,883.43" style="fill:none;stroke:#1FD3AC" />
<path d="M562.97,892.83L567.97,892.83" style="fill:none;stroke:#1FD3AC" />
<path d="M571.24,924.83L571.24,933.93" style="fill:none;stroke:#1FD3AC" />
<path d="M568.74,924.83L573.74,924.83" style="fill:none;stroke:#1FD3AC" />
<path d="M568.74,933.93L573.74,933.93" style="fill:none;stroke:#1FD3AC" />
<path d="M577.02,938.6L577.02,949.18" style="fill:none;stroke:#1FD3AC" />
<path d="M574.52,938.6L579.52,938.6" style="fill:none;stroke:#1FD3AC" />
<path d="M574.52,949.18L579.52,949.18" style="fill:none;stroke:#1FD3AC" />
<path d="M582.8,921.9L582.8,931.52" style="fill:none;stroke:#1FD3AC" />
<path d="M580.3,921.9L585.3,921.9" style="fill:none;stroke:#1FD3AC" />
<path d="M580.3,931.52L585.3,931.52" style="fill:none;stroke:#1FD3AC" />
<path d="M588.58,872.47L588.58,881.89" style="fill:none;stroke:#1FD3AC" />
<path d="M586.08,872.47L591.08,872.47" style="fill:none;stroke:#1FD3AC" />
<path d="M586.08,881.89L591.08,881.89" style="fill:none;stroke:#1FD3AC" />
<path d="M594.36,804.64L594.36,813.54" style="fill:none;stroke:#1FD3AC" />
<path d="M591.86,804.64L596.86,804.64" style="fill:none;stroke:#1FD3AC" />
<path d="M591.86,813.54L596.86,813.54" style="fill:none;stroke:#1FD3AC" />
<path d="M600.14,728.75L600.14,736.62" style="fill:none;stroke:#1FD3AC" />
<path d="M597.64,728.75L602.64,728.75" style="fill:none;stroke:#1FD3AC" />
<path d="M597.64,736.62L602.64,736.62" style="fill:none;stroke:#1FD3AC" />
<path d="M605.92,654.2L605.92,660.64" style="fill:none;stroke:#1FD3AC" />
<path d="M603.42,654.2L608.42,654.2" style="fill:none;stroke:#1FD3AC" />
<path d="M603.42,660.64L608.42,660.64" style="fill:none;stroke:#1FD3AC" />
<path d="M611.7,587.17L611.7,592.96" style="fill:none;stroke:#1FD3AC" />
<path d="M609.2,587.17L614.2,587.17" style="fill:none;stroke:#1FD3AC" />
<path d="M609.2,592.96L614.2,592.96" style="fill:none;stroke:#1FD3AC" />
<path d="M617.48,526.44L617.48,530.16" style="fill:none;stroke:#1FD3AC" />
<path d="M614.98,526.44L619.98,526.44" style="fill:none;stroke:#1FD3AC" />
<path d="M614.98,530.16L619.98,530.16" style="fill:none;stroke:#1FD3AC" />
<path d="M623.25,473.33L623.25,475.25" style="fill:none;stroke:#1FD3AC" />
<path d="M620.75,473.33L625.75,473.33" style="fill:none;stroke:#1FD3AC" />
<path d="M620.75,475.25L625.75,475.25" style="fill:none;stroke:#1FD3AC" />
<path d="M629.03,426.98L629.03,429.01" style="fill:none;stroke:#1FD3AC" />
<path d="M626.53,426.98L631.53,426.98" style="fill:none;stroke:#1FD3AC" />
<path d="M626.53,429.01L631.53,429.01" style="fill:none;stroke:#1FD3AC" />
<path d="M634.81,385.8L634.81,389.65" style="fill:none;stroke:#1FD3AC" />
<path d="M632.31,385.8L637.31,385.8" style="fill:none;stroke:#1FD3AC" />
<path d="M632.31,389.65L637.31,389.65" style="fill:none;stroke:#1FD3AC" />
<path d="M640.59,350.25L640.59,353.9" style="fill:none;stroke:#1FD3AC" />
<path d="M638.09,350.25L643.09,350.25" style="fill:none;stroke:#1FD3AC" />
<path d="M638.09,353.9L643.09,353.9" style="fill:none;stroke:#1FD3AC" />
<path d="M646.37,320.34L646.37,323.53" style="fill:none;stroke:#1FD3AC" />
<path d="M643.87,320.34L648.87,320.34" style="fill:none;stroke:#1FD3AC" />
<path d="M643.87,323.53L648.87,323.53" style="fill:none;stroke:#1FD3AC" />
<path d="M652.15,295.14L652.15,298.05" style="fill:none;stroke:#1FD3AC" />
<path d="M649.65,295.14L654.65,295.14" style="fill:none;stroke:#1FD3AC" />
<path d="M649.65,298.05L654.65,298.05" style="fill:none;stroke:#1FD3AC" />
<path d="M657.93,273.37L657.93,276.3" style="fill:none;stroke:#1FD3AC" />
<path d="M655.43,273.37L660.43,273.37" style="fill:none;stroke:#1FD3AC" />
<path d="M655.43,276.3L660.43,276.3" style="fill:none;stroke:#1FD3AC" />
<path d="M663.71,254.71L663.71,257.21" style="fill:none;stroke:#1FD3AC" />
<path d="M661.21,254.71L666.21,254.71" style="fill:none;stroke:#1FD3AC" />
<path d="M661.21,257.21L666.21,257.21" style="fill:none;stroke:#1FD3AC" />
<path d="M669.48,237.25L669.48,240.01" style="fill:none;stroke:#1FD3AC" />
<path d="M666.98,237.25L671.98,237.25" style="fill:none;stroke:#1FD3AC" />
<path d="M666.98,240.01L671.98,240.01" style="fill:none;stroke:#1FD3AC" />
<path d="M675.26,222.72L675.26,225.06" style="fill:none;stroke:#1FD3AC" />
<path d="M672.76,222.72L677.76,222.72" style="fill:none;stroke:#1FD3AC" />
<path d="M672.76,225.06L677.76,225.06" style="fill:none;stroke:#1FD3AC" />
<path d="M681.04,210L681.04,212.34" style="fill:none;stroke:#1FD3AC" />
<path d="M678.54,210L683.54,210" style="fill:none;stroke:#1FD3AC" />
<path d="M678.54,212.34L683.54,212.34" style="fill:none;stroke:#1FD3AC" />
<path d="M686.82,199.5L686.82,201.36" style="fill:none;stroke:#1FD3AC" />
<path d="M684.32,199.5L689.32,199.5" style="fill:none;stroke:#1FD3AC" />
<path d="M684.32,201.36L689.32,201.36" style="fill:none;stroke:#1FD3AC" />
<path d="M692.6,190.44L692.6,191.78" style="fill:none;stroke:#1FD3AC" />
<path d="M690.1,190.44L695.1,190.44" style="fill:none;stroke:#1FD3AC" />
<path d="M690.1,191.78L695.1,191.78" style="fill:none;stroke:#1FD3AC" />
<path d="M698.38,181.98L698.38,182.94" style="fill:none;stroke:#1FD3AC" />
<path d="M695.88,181.98L700.88,181.98" style="fill:none;stroke:#1FD3AC" />
<path d="M695.88,182.94L700.88,182.94" style="fill:none;stroke:#1FD3AC" />
<path d="M704.16,173.59L704.16,174.61" style="fill:none;stroke:#1FD3AC" />
<path d="M701.66,173.59L706.66,173.59" style="fill:none;stroke:#1FD3AC" />
<path d="M701.66,174.61L706.66,174.61" style="fill:none;stroke:#1FD3AC" />
<path d="M709.94,167.36L709.94,167.97" style="fill:none;stroke:#1FD3AC" />
<path d="M707.44,167.36L712.44,167.36" style="fill:none;stroke:#1FD3AC" />
<path d="M707.44,167.97L712.44,167.97" style="fill:none;stroke:#1FD3AC" />
<path d="M715.71,161.91L715.71,162.75" style="fill:none;stroke:#1FD3AC" />
<path d="M713.21,161.91L718.21,161.91" style="fill:none;stroke:#1FD3AC" />
<path d="M713.21,162.75L718.21,162.75" style="fill:none;stroke:#1FD3AC" />
<path d="M721.49,156.63L721.49,157.45" style="fill:none;stroke:#1FD3AC" />
<path d="M718.99,156.63L723.99,156.63" style="fill:none;stroke:#1FD3AC" />
<path d="M718.99,157.45L723.99,157.45" style="fill:none;stroke:#1FD3AC" />
<path d="M727.27,152.01L727.27,152.97" style="fill:none;stroke:#1FD3AC" />
<path d="M724.77,152.01L729.77,152.01" style="fill:none;stroke:#1FD3AC" />
<path d="M724.77,152.97L729.77,152.97" style="fill:none;stroke:#1FD3AC" />
<path d="M733.05,147.62L733.05,148.65" style="fill:none;stroke:#1FD3AC" />
<path d="M730.55,147.62L735.55,147.62" style="fill:none;stroke:#1FD3AC" />
<path d="M730.55,148.65L735.55,148.65" style="fill:none;stroke:#1FD3AC" />
<path d="M738.83,143.36L738.83,144.51" style="fill:none;stroke:#1FD3AC" />
<path d="M736.33,143.36L741.33,143.36" style="fill:none;stroke:#1FD3AC" />
<path d="M736.33,144.51L741.33,144.51" style="fill:none;stroke:#1FD3AC" />
<path d="M744.61,139.76L744.61,140.96" style="fill:none;stroke:#1FD3AC" />
<path d="M742.11,139.76L747.11,139.76" style="fill:none;stroke:#1FD3AC" />
<path d="M742.11,140.96L747.11,140.96" style="fill:none;stroke:#1FD3AC" />
<path d="M750.39,136.96L750.39,138.18" style="fill:none;stroke:#1FD3AC" />
<path d="M747.89,136.96L752.89,136.96" style="fill:none;stroke:#1FD3AC" />
<path d="M747.89,138.18L752.89,138.18" style="fill:none;stroke:#1FD3AC" />
<path d="M756.17,134.3L756.17,135.33" style="fill:none;stroke:#1FD3AC" />
<path d="M753.67,134.3L758.67,134.3" style="fill:none;stroke:#1FD3AC" />
<path d="M753.67,135.33L758.67,135.33" style="fill:none;stroke:#1FD3AC" />
<path d="M761.94,131.7L761.94,132.52" style="fill:none;stroke:#1FD3AC" />
<path d="M759.44,131.7L764.44,131.7" style="fill:none;stroke:#1FD3AC" />
<path d="M759.44,132.52L764.44,132.52" style="fill:none;stroke:#1FD3AC" />
<path d="M767.72,129.11L767.72,129.71" style="fill:none;stroke:#1FD3AC" />
<path d="M765.22,129.11L770.22,129.11" style="fill:none;stroke:#1FD3AC" />
<path d="M765.22,129.71L770.22,129.71" style="fill:none;stroke:#1FD3AC" />
<path d="M773.5,127.13L773.5,127.63" style="fill:none;stroke:#1FD3AC" />
<path d="M771,127.13L776,127.13" style="fill:none;stroke:#1FD3AC" />
<path d="M771,127.63L776,127.63" style="fill:none;stroke:#1FD3AC" />
<path d="M779.28,125.31L779.28,125.85" style="fill:none;stroke:#1FD3AC" />
<path d="M776.78,125.31L781.78,125.31" style="fill:none;stroke:#1FD3AC" />
<path d="M776.78,125.85L781.78,125.85" style="fill:none;stroke:#1FD3AC" />
<path d="M785.06,123.44L785.06,124.23" style="fill:none;stroke:#1FD3AC" />
<path d="M782.56,123.44L787.56,123.44" style="fill:none;stroke:#1FD3AC" />
<path d="M782.56,124.23L787.56,124.23" style="fill:none;stroke:#1FD3AC" />
<path d="M790.84,121.31L790.84,122.53" style="fill:none;stroke:#1FD3AC" />
<path d="M788.34,121.31L793.34,121.31" style="fill:none;stroke:#1FD3AC" />
<path d="M788.34,122.53L793.34,122.53" style="fill:none;stroke:#1FD3AC" />
<path d="M796.62,120.06L796.62,120.86" style="fill:none;stroke:#1FD3AC" />
<path d="M794.12,120.06L799.12,120.06" style="fill:none;stroke:#1FD3AC" />
<path d="M794.12,120.86L799.12,120.86" style="fill:none;stroke:#1FD3AC" />
<path d="M802.4,118.36L802.4,119.24" style="fill:none;stroke:#1FD3AC" />
<path d="M799.9,118.36L804.9,118.36" style="fill:none;stroke:#1FD3AC" />
<path d="M799.9,119.24L804.9,119.24" style="fill:none;stroke:#1FD3AC" />
<path d="M808.18,116.88L808.18,117.71" style="fill:none;stroke:#1FD3AC" />
<path d="M805.68,116.88L810.68,116.88" style="fill:none;stroke:#1FD3AC" />
<path d="M805.68,117.71L810.68,117.71" style="fill:none;stroke:#1FD3AC" />
<path d="M813.95,114.98L813.95,116.11" style="fill:none;stroke:#1FD3AC" />
<path d="M811.45,114.98L816.45,114.98" style="fill:none;stroke:#1FD3AC" />
<path d="M811.45,116.11L816.45,116.11" style="fill:none;stroke:#1FD3AC" />
<path d="M819.73,114.26L819.73,115.54" style="fill:none;stroke:#1FD3AC" />
<path d="M817.23,114.26L822.23,114.26" style="fill:none;stroke:#1FD3AC" />
<path d="M817.23,115.54L822.23,115.54" style="fill:none;stroke:#1FD3AC" />
<path d="M825.51,113.61L825.51,114.39" style="fill:none;stroke:#1FD3AC" />
<path d="M823.01,113.61L828.01,113.61" style="fill:none;stroke:#1FD3AC" />
<path d="M823.01,114.39L828.01,114.39" style="fill:none;stroke:#1FD3AC" />
<path d="M831.29,113.33L831.29,113.44" style="fill:none;stroke:#1FD3AC" />
<path d="M828.79,113.33L833.79,113.33" style="fill:none;stroke:#1FD3AC" />
<path d="M828.79,113.44L833.79,113.44" style="fill:none;stroke:#1FD3AC" />
<path d="M837.07,112.44L837.07,112.77" style="fill:none;stroke:#1FD3AC" />
<path d="M834.57,112.44L839.57,112.44" style="fill:none;stroke:#1FD3AC" />
<path d="M834.57,112.77L839.57,112.77" style="fill:none;stroke:#1FD3AC" />
<path d="M842.85,111.64L842.85,112.1" style="fill:none;stroke:#1FD3AC" />
<path d="M840.35,111.64L845.35,111.64" style="fill:none;stroke:#1FD3AC" />
<path d="M840.35,112.1L845.35,112.1" style="fill:none;stroke:#1FD3AC" />
<path d="M848.63,110.18L848.63,110.96" style="fill:none;stroke:#1FD3AC" />
<path d="M846.13,110.18L851.13,110.18" style="fill:none;stroke:#1FD3AC" />
<path d="M846.13,110.96L851.13,110.96" style="fill:none;stroke:#1FD3AC" />
<path d="M854.41,108.47L854.41,109.76" style="fill:none;stroke:#1FD3AC" />
<path d="M851.91,108.47L856.91,108.47" style="fill:none;stroke:#1FD3AC" />
<path d="M851.91,109.76L856.91,109.76" style="fill:none;stroke:#1FD3AC" />
<path d="M860.18,107.39L860.18,109.05" style="fill:none;stroke:#1FD3AC" />
<path d="M857.68,107.39L862.68,107.39" style="fill:none;stroke:#1FD3AC" />
<path d="M857.68,109.05L862.68,109.05" style="fill:none;stroke:#1FD3AC" />
<path d="M865.96,107.11L865.96,108.61" style="fill:none;stroke:#1FD3AC" />
<path d="M863.46,107.11L868.46,107.11" style="fill:none;stroke:#1FD3AC" />
<path d="M863.46,108.61L868.46,108.61" style="fill:none;stroke:#1FD3AC" />
<path d="M871.74,107.42L871.74,108.38" style="fill:none;stroke:#1FD3AC" />
<path d="M869.24,107.42L874.24,107.42" style="fill:none;stroke:#1FD3AC" />
<path d="M869.24,108.38L874.24,108.38" style="fill:none;stroke:#1FD3AC" />
<path d="M877.52,107.49L877.52,107.75" style="fill:none;stroke:#1FD3AC" />
<path d="M875.02,107.49L880.02,107.49" style="fill:none;stroke:#1FD3AC" />
<path d="M875.02,107.75L880.02,107.75" style="fill:none;stroke:#1FD3AC" />
<path d="M883.3,106.67L883.3,107.16" style="fill:none;stroke:#1FD3AC" />
<path d="M880.8,106.67L885.8,106.67" style="fill:none;stroke:#1FD3AC" />
<path d="M880.8,107.16L885.8,107.16" style="fill:none;stroke:#1FD3AC" />
<path d="M889.08,105.67L889.08,106.52" style="fill:none;stroke:#1FD3AC" />
<path d="M886.58,105.67L891.58,105.67" style="fill:none;stroke:#1FD3AC" />
<path d="M886.58,106.52L891.58,106.52" style="fill:none;stroke:#1FD3AC" />
<path d="M894.86,105.17L894.86,105.94" style="fill:none;stroke:#1FD3AC" />
<path d="M892.36,105.17L897.36,105.17" style="fill:none;stroke:#1FD3AC" />
<path d="M892.36,105.94L897.36,105.94" style="fill:none;stroke:#1FD3AC" />
<path d="M900.64,105.01L900.64,105.66" style="fill:none;stroke:#1FD3AC" />
<path d="M898.14,105.01L903.14,105.01" style="fill:none;stroke:#1FD3AC" />
<path d="M898.14,105.66L903.14,105.66" style="fill:none;stroke:#1FD3AC" />
<path d="M906.41,104.78L906.41,105.56" style="fill:none;stroke:#1FD3AC" />
<path d="M903.91,104.78L908.91,104.78" style="fill:none;stroke:#1FD3AC" />
<path d="M903.91,105.56L908.91,105.56" style="fill:none;stroke:#1FD3AC" />
<path d="M912.19,104.51L912.19,105.12" style="fill:none;stroke:#1FD3AC" />
<path d="M909.69,104.51L914.69,104.51" style="fill:none;stroke:#1FD3AC" />
<path d="M909.69,105.12L914.69,105.12" style="fill:none;stroke:#1FD3AC" />
<path d="M917.97,104.36L917.97,105.39" style="fill:none;stroke:#1FD3AC" />
<path d="M915.47,104.36L920.47,104.36" style="fill:none;stroke:#1FD3AC" />
<path d="M915.47,105.39L920.47,105.39" style="fill:none;stroke:#1FD3AC" />
<path d="M923.75,103.45L923.75,104.74" style="fill:none;stroke:#1FD3AC" />
<path d="M921.25,103.45L926.25,103.45" style="fill:none;stroke:#1FD3AC" />
<path d="M921.25,104.74L926.25,104.74" style="fill:none;stroke:#1FD3AC" />
<path d="M929.53,103.74L929.53,105" style="fill:none;stroke:#1FD3AC" />
<path d="M927.03,103.74L932.03,103.74" style="fill:none;stroke:#1FD3AC" />
<path d="M927.03,105L932.03,105" style="fill:none;stroke:#1FD3AC" />
<path d="M935.31,103.93L935.31,104.89" style="fill:none;stroke:#1FD3AC" />
<path d="M932.81,103.93L937.81,103.93" style="fill:none;stroke:#1FD3AC" />
<path d="M932.81,104.89L937.81,104.89" style="fill:none;stroke:#1FD3AC" />
<path d="M941.09,104.73L941.09,105.04" style="fill:none;stroke:#1FD3AC" />
<path d="M938.59,104.73L943.59,104.73" style="fill:none;stroke:#1FD3AC" />
<path d="M938.59,105.04L943.59,105.04" style="fill:none;stroke:#1FD3AC" />
<path d="M946.87,104.87L946.87,105.34" style="fill:none;stroke:#1FD3AC" />
<path d="M944.37,104.87L949.37,104.87" style="fill:none;stroke:#1FD3AC" />
<path d="M944.37,105.34L949.37,105.34" style="fill:none;stroke:#1FD3AC" />
<path d="M952.65,104.56L952.65,105.42" style="fill:none;stroke:#1FD3AC" />
<path d="M950.15,104.56L955.15,104.56" style="fill:none;stroke:#1FD3AC" />
<path d="M950.15,105.42L955.15,105.42" style="fill:none;stroke:#1FD3AC" />
<path d="M958.42,104.1L958.42,105.38" style="fill:none;stroke:#1FD3AC" />
<path d="M955.92,104.1L960.92,104.1" style="fill:none;stroke:#1FD3AC" />
<path d="M955.92,105.38L960.92,105.38" style="fill:none;stroke:#1FD3AC" />
<path d="M964.2,104.09L964.2,105.5" style="fill:none;stroke:#1FD3AC" />
<path d="M961.7,104.09L966.7,104.09" style="fill:none;stroke:#1FD3AC" />
<path d="M961.7,105.5L966.7,105.5" style="fill:none;stroke:#1FD3AC" />
<path d="M969.98,103.96L969.98,105.3" style="fill:none;stroke:#1FD3AC" />
<path d="M967.48,103.96L972.48,103.96" style="fill:none;stroke:#1FD3AC" />
<path d="M967.48,105.3L972.48,105.3" style="fill:none;stroke:#1FD3AC" />
<path d="M975.76,103.36L975.76,104.86" style="fill:none;stroke:#1FD3AC" />
<path d="M973.26,103.36L978.26,103.36" style="fill:none;stroke:#1FD3AC" />
<path d="M973.26,104.86L978.26,104.86" style="fill:none;stroke:#1FD3AC" />
<path d="M981.54,103.95L981.54,105.14" style="fill:none;stroke:#1FD3AC" />
<path d="M979.04,103.95L984.04,103.95" style="fill:none;stroke:#1FD3AC" />
<path d="M979.04,105.14L984.04,105.14" style="fill:none;stroke:#1FD3AC" />
<path d="M987.32,104.25L987.32,105.01" style="fill:none;stroke:#1FD3AC" />
<path d="M984.82,104.25L989.82,104.25" style="fill:none;stroke:#1FD3AC" />
<path d="M984.82,105.01L989.82,105.01" style="fill:none;stroke:#1FD3AC" />
<path d="M993.1,104.2L993.1,105.63" style="fill:none;stroke:#1FD3AC" />
<path d="M990.6,104.2L995.6,104.2" style="fill:none;stroke:#1FD3AC" />
<path d="M990.6,105.63L995.6,105.63" style="fill:none;stroke:#1FD3AC" />
<path d="M998.88,104.22L998.88,105.38" style="fill:none;stroke:#1FD3AC" />
<path d="M996.38,104.22L1001.4,104.22" style="fill:none;stroke:#1FD3AC" />
<path d="M996.38,105.38L1001.4,105.38" style="fill:none;stroke:#1FD3AC" />
<path d="M1004.7,103.52L1004.7,104.98" style="fill:none;stroke:#1FD3AC" />
<path d="M1002.2,103.52L1007.2,103.52" style="fill:none;stroke:#1FD3AC" />
<path d="M1002.2,104.98L1007.2,104.98" style="fill:none;stroke:#1FD3AC" />
<path d="M1010.4,102.44L1010.4,104.3" style="fill:none;stroke:#1FD3AC" />
<path d="M1007.9,102.44L1012.9,102.44" style="fill:none;stroke:#1FD3AC" />
<path d="M1007.9,104.3L1012.9,104.3" style="fill:none;stroke:#1FD3AC" />
<path d="M1016.2,101.89L1016.2,103.95" style="fill:none;stroke:#1FD3AC" />
<path d="M1013.7,101.89L1018.7,101.89" style="fill:none;stroke:#1FD3AC" />
<path d="M1013.7,103.95L1018.7,103.95" style="fill:none;stroke:#1FD3AC" />
<path d="M1022,102.2L1022,103.86" style="fill:none;stroke:#1FD3AC" />
<path d="M1019.5,102.2L1024.5,102.2" style="fill:none;stroke:#1FD3AC" />
<path d="M1019.5,103.86L1024.5,103.86" style="fill:none;stroke:#1FD3AC" />
<path d="M1027.8,102.58L1027.8,103.51" style="fill:none;stroke:#1FD3AC" />
<path d="M1025.3,102.58L1030.3,102.58" style="fill:none;stroke:#1FD3AC" />
<path d="M1025.3,103.51L1030.3,103.51" style="fill:none;stroke:#1FD3AC" />
<path d="M1033.5,103.01L1033.5,103.33" style="fill:none;stroke:#1FD3AC" />
<path d="M1031,103.01L1036,103.01" style="fill:none;stroke:#1FD3AC" />
<path d="M1031,103.33L1036,103.33" style="fill:none;stroke:#1FD3AC" />
<path d="M1039.3,101.94L1039.3,102.69" style="fill:none;stroke:#1FD3AC" />
<path d="M1036.8,101.94L1041.8,101.94" style="fill:none;stroke:#1FD3AC" />
<path d="M1036.8,102.69L1041.8,102.69" style="fill:none;stroke:#1FD3AC" />
<path d="M1045.1,99.405L1045.1,101.32" style="fill:none;stroke:#1FD3AC" />
<path d="M1042.6,99.405L1047.6,99.405" style="fill:none;stroke:#1FD3AC" />
<path d="M1042.6,101.32L1047.6,101.32" style="fill:none;stroke:#1FD3AC" />
<path d="M1050.9,99.352L1050.9,101.03" style="fill:none;stroke:#1FD3AC" />
<path d="M1048.4,99.352L1053.4,99.352" style="fill:none;stroke:#1FD3AC" />
<path d="M1048.4,101.03L1053.4,101.03" style="fill:none;stroke:#1FD3AC" />
<path d="M1056.7,98.952L1056.7,100.43" style="fill:none;stroke:#1FD3AC" />
<path d="M1054.2,98.952L1059.2,98.952" style="fill:none;stroke:#1FD3AC" />
<path d="M1054.2,100.43L1059.2,100.43" style="fill:none;stroke:#1FD3AC" />
<path d="M1062.4,98.5L1062.4,99.705" style="fill:none;stroke:#1FD3AC" />
<path d="M1059.9,98.5L1064.9,98.5" style="fill:none;stroke:#1FD3AC" />
<path d="M1059.9,99.705L1064.9,99.705" style="fill:none;stroke:#1FD3AC" />
<path d="M1068.2,98.552L1068.2,99.547" style="fill:none;stroke:#1FD3AC" />
<path d="M1065.7,98.552L1070.7,98.552" style="fill:none;stroke:#1FD3AC" />
<path d="M1065.7,99.547L1070.7,99.547" style="fill:none;stroke:#1FD3AC" />
<path d="M1074,97.666L1074,98.322" style="fill:none;stroke:#1FD3AC" />
<path d="M1071.5,97.666L1076.5,97.666" style="fill:none;stroke:#1FD3AC" />
<path d="M1071.5,98.322L1076.5,98.322" style="fill:none;stroke:#1FD3AC" />
<path d="M109.16,120.28A6,6 0 1 1 97.162,120.28A6,6 0 1 1 109.16,120.28Z" style="fill:#1FD3AC" />
<path d="M114.94,119.95A6,6 0 1 1 102.94,119.95A6,6 0 1 1 114.94,119.95Z" style="fill:#1FD3AC" />
<path d="M120.72,119.38A6,6 0 1 1 108.72,119.38A6,6 0 1 1 120.72,119.38Z" style="fill:#1FD3AC" />
<path d="M126.5,118.39A6,6 0 1 1 114.5,118.39A6,6 0 1 1 126.5,118.39Z" style="fill:#1FD3AC" />
<path d="M132.28,117.9A6,6 0 1 1 120.28,117.9A6,6 0 1 1 132.28,117.9Z" style="fill:#1FD3AC" />
<path d="M138.06,117.91A6,6 0 1 1 126.06,117.91A6,6 0 1 1 138.06,117.91Z" style="fill:#1FD3AC" />
<path d="M143.83,117.4A6,6 0 1 1 131.83,117.4A6,6 0 1 1 143.83,117.4Z" style="fill:#1FD3AC" />
<path d="M149.61,116.98A6,6 0 1 1 137.61,116.98A6,6 0 1 1 149.61,116.98Z" style="fill:#1FD3AC" />
<path d="M155.39,117.08A6,6 0 1 1 143.39,117.08A6,6 0 1 1 155.39,117.08Z" style="fill:#1FD3AC" />
<path d="M161.17,116.59A6,6 0 1 1 149.17,116.59A6,6 0 1 1 161.17,116.59Z" style="fill:#1FD3AC" />
<path d="M166.95,116.37A6,6 0 1 1 154.95,116.37A6,6 0 1 1 166.95,116.37Z" style="fill:#1FD3AC" />
<path d="M172.73,115.87A6,6 0 1 1 160.73,115.87A6,6 0 1 1 172.73,115.87Z" style="fill:#1FD3AC" />
<path d="M178.51,115.39A6,6 0 1 1 166.51,115.39A6,6 0 1 1 178.51,115.39Z" style="fill:#1FD3AC" />
<path d="M184.29,115.36A6,6 0 1 1 172.29,115.36A6,6 0 1 1 184.29,115.36Z" style="fill:#1FD3AC" />
<path d="M190.07,115.34A6,6 0 1 1 178.07,115.34A6,6 0 1 1 190.07,115.34Z" style="fill:#1FD3AC" />
<path d="M195.84,115.22A6,6 0 1 1 183.84,115.22A6,6 0 1 1 195.84,115.22Z" style="fill:#1FD3AC" />
<path d="M201.62,115.15A6,6 0 1 1 189.62,115.15A6,6 0 1 1 201.62,115.15Z" style="fill:#1FD3AC" />
<path d="M207.4,115.24A6,6 0 1 1 195.4,115.24A6,6 0 1 1 207.4,115.24Z" style="fill:#1FD3AC" />
<path d="M213.18,115.31A6,6 0 1 1 201.18,115.31A6,6 0 1 1 213.18,115.31Z" style="fill:#1FD3AC" />
<path d="M218.96,115.19A6,6 0 1 1 206.96,115.19A6,6 0 1 1 218.96,115.19Z" style="fill:#1FD3AC" />
<path d="M224.74,115.74A6,6 0 1 1 212.74,115.74A6,6 0 1 1 224.74,115.74Z" style="fill:#1FD3AC" />
<path d="M230.52,115.64A6,6 0 1 1 218.52,115.64A6,6 0 1 1 230.52,115.64Z" style="fill:#1FD3AC" />
<path d="M236.3,116.22A6,6 0 1 1 224.3,116.22A6,6 0 1 1 236.3,116.22Z" style="fill:#1FD3AC" />
<path d="M242.07,116.46A6,6 0 1 1 230.07,116.46A6,6 0 1 1 242.07,116.46Z" style="fill:#1FD3AC" />
<path d="M247.85,116.41A6,6 0 1 1 235.85,116.41A6,6 0 1 1 247.85,116.41Z" style="fill:#1FD3AC" />
<path d="M253.63,116.69A6,6 0 1 1 241.63,116.69A6,6 0 1 1 253.63,116.69Z" style="fill:#1FD3AC" />
<path d="M259.41,117.39A6,6 0 1 1 247.41,117.39A6,6 0 1 1 259.41,117.39Z" style="fill:#1FD3AC" />
<path d="M265.19,118.45A6,6 0 1 1 253.19,118.45A6,6 0 1 1 265.19,118.45Z" style="fill:#1FD3AC" />
<path d="M270.97,119.09A6,6 0 1 1 258.97,119.09A6,6 0 1 1 270.97,119.09Z" style="fill:#1FD3AC" />
<path d="M276.75,119.68A6,6 0 1 1 264.75,119.68A6,6 0 1 1 276.75,119.68Z" style="fill:#1FD3AC" />
<path d="M282.53,120.42A6,6 0 1 1 270.53,120.42A6,6 0 1 1 282.53,120.42Z" style="fill:#1FD3AC" />
<path d="M288.3,121.7A6,6 0 1 1 276.3,121.7A6,6 0 1 1 288.3,121.7Z" style="fill:#1FD3AC" />
<path d="M294.08,122.51A6,6 0 1 1 282.08,122.51A6,6 0 1 1 294.08,122.51Z" style="fill:#1FD3AC" />
<path d="M299.86,123.74A6,6 0 1 1 287.86,123.74A6,6 0 1 1 299.86,123.74Z" style="fill:#1FD3AC" />
<path d="M305.64,124.85A6,6 0 1 1 293.64,124.85A6,6 0 1 1 305.64,124.85Z" style="fill:#1FD3AC" />
<path d="M311.42,126.36A6,6 0 1 1 299.42,126.36A6,6 0 1 1 311.42,126.36Z" style="fill:#1FD3AC" />
<path d="M317.2,127.89A6,6 0 1 1 305.2,127.89A6,6 0 1 1 317.2,127.89Z" style="fill:#1FD3AC" />
<path d="M322.98,129.54A6,6 0 1 1 310.98,129.54A6,6 0 1 1 322.98,129.54Z" style="fill:#1FD3AC" />
<path d="M328.76,131.12A6,6 0 1 1 316.76,131.12A6,6 0 1 1 328.76,131.12Z" style="fill:#1FD3AC" />
<path d="M334.54,132.59A6,6 0 1 1 322.54,132.59A6,6 0 1 1 334.54,132.59Z" style="fill:#1FD3AC" />
<path d="M340.31,134.48A6,6 0 1 1 328.31,134.48A6,6 0 1 1 340.31,134.48Z" style="fill:#1FD3AC" />
<path d="M346.09,136.73A6,6 0 1 1 334.09,136.73A6,6 0 1 1 346.09,136.73Z" style="fill:#1FD3AC" />
<path d="M351.87,139.09A6,6 0 1 1 339.87,139.09A6,6 0 1 1 351.87,139.09Z" style="fill:#1FD3AC" />
<path d="M357.65,141.42A6,6 0 1 1 345.65,141.42A6,6 0 1 1 357.65,141.42Z" style="fill:#1FD3AC" />
<path d="M363.43,144.17A6,6 0 1 1 351.43,144.17A6,6 0 1 1 363.43,144.17Z" style="fill:#1FD3AC" />
<path d="M369.21,147.15A6,6 0 1 1 357.21,147.15A6,6 0 1 1 369.21,147.15Z" style="fill:#1FD3AC" />
<path d="M374.99,150.34A6,6 0 1 1 362.99,150.34A6,6 0 1 1 374.99,150.34Z" style="fill:#1FD3AC" />
<path d="M380.77,153.41A6,6 0 1 1 368.77,153.41A6,6 0 1 1 380.77,153.41Z" style="fill:#1FD3AC" />
<path d="M386.54,156.65A6,6 0 1 1 374.54,156.65A6,6 0 1 1 386.54,156.65Z" style="fill:#1FD3AC" />
<path d="M392.32,160.91A6,6 0 1 1 380.32,160.91A6,6 0 1 1 392.32,160.91Z" style="fill:#1FD3AC" />
<path d="M398.1,165.49A6,6 0 1 1 386.1,165.49A6,6 0 1 1 398.1,165.49Z" style="fill:#1FD3AC" />
<path d="M403.88,170.38A6,6 0 1 1 391.88,170.38A6,6 0 1 1 403.88,170.38Z" style="fill:#1FD3AC" />
<path d="M409.66,176.08A6,6 0 1 1 397.66,176.08A6,6 0 1 1 409.66,176.08Z" style="fill:#1FD3AC" />
<path d="M415.44,181.72A6,6 0 1 1 403.44,181.72A6,6 0 1 1 415.44,181.72Z" style="fill:#1FD3AC" />
<path d="M421.22,187.69A6,6 0 1 1 409.22,187.69A6,6 0 1 1 421.22,187.69Z" style="fill:#1FD3AC" />
<path d="M427,194.57A6,6 0 1 1 415,194.57A6,6 0 1 1 427,194.57Z" style="fill:#1FD3AC" />
<path d="M432.77,201.72A6,6 0 1 1 420.77,201.72A6,6 0 1 1 432.77,201.72Z" style="fill:#1FD3AC" />
<path d="M438.55,210.86A6,6 0 1 1 426.55,210.86A6,6 0 1 1 438.55,210.86Z" style="fill:#1FD3AC" />
<path d="M444.33,219.94A6,6 0 1 1 432.33,219.94A6,6 0 1 1 444.33,219.94Z" style="fill:#1FD3AC" />
<path d="M450.11,229.76A6,6 0 1 1 438.11,229.76A6,6 0 1 1 450.11,229.76Z" style="fill:#1FD3AC" />
<path d="M455.89,240.3A6,6 0 1 1 443.89,240.3A6,6 0 1 1 455.89,240.3Z" style="fill:#1FD3AC" />
<path d="M461.67,252.59A6,6 0 1 1 449.67,252.59A6,6 0 1 1 461.67,252.59Z" style="fill:#1FD3AC" />
<path d="M467.45,265.05A6,6 0 1 1 455.45,265.05A6,6 0 1 1 467.45,265.05Z" style="fill:#1FD3AC" />
<path d="M473.23,279.37A6,6 0 1 1 461.23,279.37A6,6 0 1 1 473.23,279.37Z" style="fill:#1FD3AC" />
<path d="M479.01,295.35A6,6 0 1 1 467.01,295.35A6,6 0 1 1 479.01,295.35Z" style="fill:#1FD3AC" />
<path d="M484.78,312.06A6,6 0 1 1 472.78,312.06A6,6 0 1 1 484.78,312.06Z" style="fill:#1FD3AC" />
<path d="M490.56,331.14A6,6 0 1 1 478.56,331.14A6,6 0 1 1 490.56,331.14Z" style="fill:#1FD3AC" />
<path d="M496.34,351.93A6,6 0 1 1 484.34,351.93A6,6 0 1 1 496.34,351.93Z" style="fill:#1FD3AC" />
<path d="M502.12,374.59A6,6 0 1 1 490.12,374.59A6,6 0 1 1 502.12,374.59Z" style="fill:#1FD3AC" />
<path d="M507.9,399.22A6,6 0 1 1 495.9,399.22A6,6 0 1 1 507.9,399.22Z" style="fill:#1FD3AC" />
<path d="M513.68,425.96A6,6 0 1 1 501.68,425.96A6,6 0 1 1 513.68,425.96Z" style="fill:#1FD3AC" />
<path d="M519.46,454.95A6,6 0 1 1 507.46,454.95A6,6 0 1 1 519.46,454.95Z" style="fill:#1FD3AC" />
<path d="M525.24,487.33A6,6 0 1 1 513.24,487.33A6,6 0 1 1 525.24,487.33Z" style="fill:#1FD3AC" />
<path d="M531.01,524.75A6,6 0 1 1 519.01,524.75A6,6 0 1 1 531.01,524.75Z" style="fill:#1FD3AC" />
<path d="M536.79,567.72A6,6 0 1 1 524.79,567.72A6,6 0 1 1 536.79,567.72Z" style="fill:#1FD3AC" />
<path d="M542.57,612.67A6,6 0 1 1 530.57,612.67A6,6 0 1 1 542.57,612.67Z" style="fill:#1FD3AC" />
<path d="M548.35,663.35A6,6 0 1 1 536.35,663.35A6,6 0 1 1 548.35,663.35Z" style="fill:#1FD3AC" />
<path d="M554.13,717.94A6,6 0 1 1 542.13,717.94A6,6 0 1 1 554.13,717.94Z" style="fill:#1FD3AC" />
<path d="M559.91,776.34A6,6 0 1 1 547.91,776.34A6,6 0 1 1 559.91,776.34Z" style="fill:#1FD3AC" />
<path d="M565.69,833.92A6,6 0 1 1 553.69,833.92A6,6 0 1 1 565.69,833.92Z" style="fill:#1FD3AC" />
<path d="M571.47,888.13A6,6 0 1 1 559.47,888.13A6,6 0 1 1 571.47,888.13Z" style="fill:#1FD3AC" />
<path d="M577.24,929.38A6,6 0 1 1 565.24,929.38A6,6 0 1 1 577.24,929.38Z" style="fill:#1FD3AC" />
<path d="M583.02,943.89A6,6 0 1 1 571.02,943.89A6,6 0 1 1 583.02,943.89Z" style="fill:#1FD3AC" />
<path d="M588.8,926.71A6,6 0 1 1 576.8,926.71A6,6 0 1 1 588.8,926.71Z" style="fill:#1FD3AC" />
<path d="M594.58,877.18A6,6 0 1 1 582.58,877.18A6,6 0 1 1 594.58,877.18Z" style="fill:#1FD3AC" />
<path d="M600.36,809.09A6,6 0 1 1 588.36,809.09A6,6 0 1 1 600.36,809.09Z" style="fill:#1FD3AC" />
<path d="M606.14,732.68A6,6 0 1 1 594.14,732.68A6,6 0 1 1 606.14,732.68Z" style="fill:#1FD3AC" />
<path d="M611.92,657.42A6,6 0 1 1 599.92,657.42A6,6 0 1 1 611.92,657.42Z" style="fill:#1FD3AC" />
<path d="M617.7,590.07A6,6 0 1 1 605.7,590.07A6,6 0 1 1 617.7,590.07Z" style="fill:#1FD3AC" />
<path d="M623.48,528.3A6,6 0 1 1 611.48,528.3A6,6 0 1 1 623.48,528.3Z" style="fill:#1FD3AC" />
<path d="M629.25,474.29A6,6 0 1 1 617.25,474.29A6,6 0 1 1 629.25,474.29Z" style="fill:#1FD3AC" />
<path d="M635.03,428A6,6 0 1 1 623.03,428A6,6 0 1 1 635.03,428Z" style="fill:#1FD3AC" />
<path d="M640.81,387.72A6,6 0 1 1 628.81,387.72A6,6 0 1 1 640.81,387.72Z" style="fill:#1FD3AC" />
<path d="M646.59,352.08A6,6 0 1 1 634.59,352.08A6,6 0 1 1 646.59,352.08Z" style="fill:#1FD3AC" />
<path d="M652.37,321.93A6,6 0 1 1 640.37,321.93A6,6 0 1 1 652.37,321.93Z" style="fill:#1FD3AC" />
<path d="M658.15,296.6A6,6 0 1 1 646.15,296.6A6,6 0 1 1 658.15,296.6Z" style="fill:#1FD3AC" />
<path d="M663.93,274.84A6,6 0 1 1 651.93,274.84A6,6 0 1 1 663.93,274.84Z" style="fill:#1FD3AC" />
<path d="M669.71,255.96A6,6 0 1 1 657.71,255.96A6,6 0 1 1 669.71,255.96Z" style="fill:#1FD3AC" />
<path d="M675.48,238.63A6,6 0 1 1 663.48,238.63A6,6 0 1 1 675.48,238.63Z" style="fill:#1FD3AC" />
<path d="M681.26,223.89A6,6 0 1 1 669.26,223.89A6,6 0 1 1 681.26,223.89Z" style="fill:#1FD3AC" />
<path d="M687.04,211.17A6,6 0 1 1 675.04,211.17A6,6 0 1 1 687.04,211.17Z" style="fill:#1FD3AC" />
<path d="M692.82,200.43A6,6 0 1 1 680.82,200.43A6,6 0 1 1 692.82,200.43Z" style="fill:#1FD3AC" />
<path d="M698.6,191.11A6,6 0 1 1 686.6,191.11A6,6 0 1 1 698.6,191.11Z" style="fill:#1FD3AC" />
<path d="M704.38,182.46A6,6 0 1 1 692.38,182.46A6,6 0 1 1 704.38,182.46Z" style="fill:#1FD3AC" />
<path d="M710.16,174.1A6,6 0 1 1 698.16,174.1A6,6 0 1 1 710.16,174.1Z" style="fill:#1FD3AC" />
<path d="M715.94,167.66A6,6 0 1 1 703.94,167.66A6,6 0 1 1 715.94,167.66Z" style="fill:#1FD3AC" />
<path d="M721.71,162.33A6,6 0 1 1 709.71,162.33A6,6 0 1 1 721.71,162.33Z" style="fill:#1FD3AC" />
<path d="M727.49,157.04A6,6 0 1 1 715.49,157.04A6,6 0 1 1 727.49,157.04Z" style="fill:#1FD3AC" />
<path d="M733.27,152.49A6,6 0 1 1 721.27,152.49A6,6 0 1 1 733.27,152.49Z" style="fill:#1FD3AC" />
<path d="M739.05,148.14A6,6 0 1 1 727.05,148.14A6,6 0 1 1 739.05,148.14Z" style="fill:#1FD3AC" />
<path d="M744.83,143.93A6,6 0 1 1 732.83,143.93A6,6 0 1 1 744.83,143.93Z" style="fill:#1FD3AC" />
<path d="M750.61,140.36A6,6 0 1 1 738.61,140.36A6,6 0 1 1 750.61,140.36Z" style="fill:#1FD3AC" />
<path d="M756.39,137.57A6,6 0 1 1 744.39,137.57A6,6 0 1 1 756.39,137.57Z" style="fill:#1FD3AC" />
<path d="M762.17,134.82A6,6 0 1 1 750.17,134.82A6,6 0 1 1 762.17,134.82Z" style="fill:#1FD3AC" />
<path d="M767.94,132.11A6,6 0 1 1 755.94,132.11A6,6 0 1 1 767.94,132.11Z" style="fill:#1FD3AC" />
<path d="M773.72,129.41A6,6 0 1 1 761.72,129.41A6,6 0 1 1 773.72,129.41Z" style="fill:#1FD3AC" />
<path d="M779.5,127.38A6,6 0 1 1 767.5,127.38A6,6 0 1 1 779.5,127.38Z" style="fill:#1FD3AC" />
<path d="M785.28,125.58A6,6 0 1 1 773.28,125.58A6,6 0 1 1 785.28,125.58Z" style="fill:#1FD3AC" />
<path d="M791.06,123.84A6,6 0 1 1 779.06,123.84A6,6 0 1 1 791.06,123.84Z" style="fill:#1FD3AC" />
<path d="M796.84,121.92A6,6 0 1 1 784.84,121.92A6,6 0 1 1 796.84,121.92Z" style="fill:#1FD3AC" />
<path d="M802.62,120.46A6,6 0 1 1 790.62,120.46A6,6 0 1 1 802.62,120.46Z" style="fill:#1FD3AC" />
<path d="M808.4,118.8A6,6 0 1 1 796.4,118.8A6,6 0 1 1 808.4,118.8Z" style="fill:#1FD3AC" />
<path d="M814.18,117.3A6,6 0 1 1 802.18,117.3A6,6 0 1 1 814.18,117.3Z" style="fill:#1FD3AC" />
<path d="M819.95,115.55A6,6 0 1 1 807.95,115.55A6,6 0 1 1 819.95,115.55Z" style="fill:#1FD3AC" />
<path d="M825.73,114.9A6,6 0 1 1 813.73,114.9A6,6 0 1 1 825.73,114.9Z" style="fill:#1FD3AC" />
<path d="M831.51,114A6,6 0 1 1 819.51,114A6,6 0 1 1 831.51,114Z" style="fill:#1FD3AC" />
<path d="M837.29,113.38A6,6 0 1 1 825.29,113.38A6,6 0 1 1 837.29,113.38Z" style="fill:#1FD3AC" />
<path d="M843.07,112.61A6,6 0 1 1 831.07,112.61A6,6 0 1 1 843.07,112.61Z" style="fill:#1FD3AC" />
<path d="M848.85,111.87A6,6 0 1 1 836.85,111.87A6,6 0 1 1 848.85,111.87Z" style="fill:#1FD3AC" />
<path d="M854.63,110.57A6,6 0 1 1 842.63,110.57A6,6 0 1 1 854.63,110.57Z" style="fill:#1FD3AC" />
<path d="M860.41,109.12A6,6 0 1 1 848.41,109.12A6,6 0 1 1 860.41,109.12Z" style="fill:#1FD3AC" />
<path d="M866.18,108.22A6,6 0 1 1 854.18,108.22A6,6 0 1 1 866.18,108.22Z" style="fill:#1FD3AC" />
<path d="M871.96,107.86A6,6 0 1 1 859.96,107.86A6,6 0 1 1 871.96,107.86Z" style="fill:#1FD3AC" />
<path d="M877.74,107.9A6,6 0 1 1 865.74,107.9A6,6 0 1 1 877.74,107.9Z" style="fill:#1FD3AC" />
<path d="M883.52,107.62A6,6 0 1 1 871.52,107.62A6,6 0 1 1 883.52,107.62Z" style="fill:#1FD3AC" />
<path d="M889.3,106.91A6,6 0 1 1 877.3,106.91A6,6 0 1 1 889.3,106.91Z" style="fill:#1FD3AC" />
<path d="M895.08,106.1A6,6 0 1 1 883.08,106.1A6,6 0 1 1 895.08,106.1Z" style="fill:#1FD3AC" />
<path d="M900.86,105.56A6,6 0 1 1 888.86,105.56A6,6 0 1 1 900.86,105.56Z" style="fill:#1FD3AC" />
<path d="M906.64,105.34A6,6 0 1 1 894.64,105.34A6,6 0 1 1 906.64,105.34Z" style="fill:#1FD3AC" />
<path d="M912.41,105.17A6,6 0 1 1 900.41,105.17A6,6 0 1 1 912.41,105.17Z" style="fill:#1FD3AC" />
<path d="M918.19,104.81A6,6 0 1 1 906.19,104.81A6,6 0 1 1 918.19,104.81Z" style="fill:#1FD3AC" />
<path d="M923.97,104.88A6,6 0 1 1 911.97,104.88A6,6 0 1 1 923.97,104.88Z" style="fill:#1FD3AC" />
<path d="M929.75,104.1A6,6 0 1 1 917.75,104.1A6,6 0 1 1 929.75,104.1Z" style="fill:#1FD3AC" />
<path d="M935.53,104.37A6,6 0 1 1 923.53,104.37A6,6 0 1 1 935.53,104.37Z" style="fill:#1FD3AC" />
<path d="M941.31,104.41A6,6 0 1 1 929.31,104.41A6,6 0 1 1 941.31,104.41Z" style="fill:#1FD3AC" />
<path d="M947.09,104.88A6,6 0 1 1 935.09,104.88A6,6 0 1 1 947.09,104.88Z" style="fill:#1FD3AC" />
<path d="M952.87,105.11A6,6 0 1 1 940.87,105.11A6,6 0 1 1 952.87,105.11Z" style="fill:#1FD3AC" />
<path d="M958.65,104.99A6,6 0 1 1 946.65,104.99A6,6 0 1 1 958.65,104.99Z" style="fill:#1FD3AC" />
<path d="M964.42,104.74A6,6 0 1 1 952.42,104.74A6,6 0 1 1 964.42,104.74Z" style="fill:#1FD3AC" />
<path d="M970.2,104.8A6,6 0 1 1 958.2,104.8A6,6 0 1 1 970.2,104.8Z" style="fill:#1FD3AC" />
<path d="M975.98,104.63A6,6 0 1 1 963.98,104.63A6,6 0 1 1 975.98,104.63Z" style="fill:#1FD3AC" />
<path d="M981.76,104.11A6,6 0 1 1 969.76,104.11A6,6 0 1 1 981.76,104.11Z" style="fill:#1FD3AC" />
<path d="M987.54,104.54A6,6 0 1 1 975.54,104.54A6,6 0 1 1 987.54,104.54Z" style="fill:#1FD3AC" />
<path d="M993.32,104.63A6,6 0 1 1 981.32,104.63A6,6 0 1 1 993.32,104.63Z" style="fill:#1FD3AC" />
<path d="M999.1,104.91A6,6 0 1 1 987.1,104.91A6,6 0 1 1 999.1,104.91Z" style="fill:#1FD3AC" />
<path d="M1004.9,104.8A6,6 0 1 1 992.88,104.8A6,6 0 1 1 1004.9,104.8Z" style="fill:#1FD3AC" />
<path d="M1010.7,104.25A6,6 0 1 1 998.65,104.25A6,6 0 1 1 1010.7,104.25Z" style="fill:#1FD3AC" />
<path d="M1016.4,103.37A6,6 0 1 1 1004.4,103.37A6,6 0 1 1 1016.4,103.37Z" style="fill:#1FD3AC" />
<path d="M1022.2,102.92A6,6 0 1 1 1010.2,102.92A6,6 0 1 1 1022.2,102.92Z" style="fill:#1FD3AC" />
<path d="M1028,103.03A6,6 0 1 1 1016,103.03A6,6 0 1 1 1028,103.03Z" style="fill:#1FD3AC" />
<path d="M1033.8,103.04A6,6 0 1 1 1021.8,103.04A6,6 0 1 1 1033.8,103.04Z" style="fill:#1FD3AC" />
<path d="M1039.5,103.17A6,6 0 1 1 1027.5,103.17A6,6 0 1 1 1039.5,103.17Z" style="fill:#1FD3AC" />
<path d="M1045.3,102.32A6,6 0 1 1 1033.3,102.32A6,6 0 1 1 1045.3,102.32Z" style="fill:#1FD3AC" />
<path d="M1051.1,100.36A6,6 0 1 1 1039.1,100.36A6,6 0 1 1 1051.1,100.36Z" style="fill:#1FD3AC" />
<path d="M1056.9,100.19A6,6 0 1 1 1044.9,100.19A6,6 0 1 1 1056.9,100.19Z" style="fill:#1FD3AC" />
<path d="M1062.7,99.691A6,6 0 1 1 1050.7,99.691A6,6 0 1 1 1062.7,99.691Z" style="fill:#1FD3AC" />
<path d="M1068.4,99.103A6,6 0 1 1 1056.4,99.103A6,6 0 1 1 1068.4,99.103Z" style="fill:#1FD3AC" />
<path d="M1074.2,99.05A6,6 0 1 1 1062.2,99.05A6,6 0 1 1 1074.2,99.05Z" style="fill:#1FD3AC" />
<path d="M1080,97.994A6,6 0 1 1 1068,97.994A6,6 0 1 1 1080,97.994Z" style="fill:#1FD3AC" />
<path d="M103.16,1030.3L1074,1030.3" style="fill:none;stroke:#000000;stroke-width:2.5" />
<path d="M1074,79.639L1074,1030.3" style="fill:none;stroke:#000000;stroke-width:2.5" />
<path d="M1011,981.05A6,6 0 1 1 999,981.05A6,6 0 1 1 1011,981.05Z" style="fill:#1FD3AC" />
<text x="804.97" y="-973.98" transform="scale(1, -1)"
	style="font-family:Helvetica;font-weight:normal;font-style:normal;font-size:30px">1cm UHNA3</text>
</g>
</svg>
