<?xml version="1.0"?>
<!-- Generated by SVGo and Plotinum VG -->
<svg width="1080pt" height="1080pt" viewBox="0 0 1080 1080"
	xmlns="http://www.w3.org/2000/svg"
	xmlns:xlink="http://www.w3.org/1999/xlink">
<g transform="scale(1, -1) translate(0, -1080)">
<path d="M0,0L1080,0L1080,1080L0,1080Z" style="fill:#-8000000000000000-8000000000000000-8000000000000000;fill-opacity:0" />
<text x="346.9" y="-1039.5" transform="scale(1, -1)"
	style="font-family:Helvetica;font-weight:normal;font-style:normal;font-size:50px">1 mm CS2 CABS</text>
<text x="497.32" y="-11.039" transform="scale(1, -1)"
	style="font-family:Helvetica;font-weight:normal;font-style:normal;font-size:36px">Frequency (GHz)</text>
<text x="242.18" y="-71.258" transform="scale(1, -1)"
	style="font-family:Helvetica;font-weight:normal;font-style:normal;font-size:36px">2.35</text>
<text x="423.31" y="-71.258" transform="scale(1, -1)"
	style="font-family:Helvetica;font-weight:normal;font-style:normal;font-size:36px">2.45</text>
<text x="604.44" y="-71.258" transform="scale(1, -1)"
	style="font-family:Helvetica;font-weight:normal;font-style:normal;font-size:36px">2.55</text>
<text x="785.57" y="-71.258" transform="scale(1, -1)"
	style="font-family:Helvetica;font-weight:normal;font-style:normal;font-size:36px">2.65</text>
<text x="966.7" y="-71.258" transform="scale(1, -1)"
	style="font-family:Helvetica;font-weight:normal;font-style:normal;font-size:36px">2.75</text>
<path d="M277.21,116.44L277.21,108.44" style="fill:none;stroke:#000000;stroke-width:1.5" />
<path d="M367.78,112.44L367.78,108.44" style="fill:none;stroke:#000000;stroke-width:1.5" />
<path d="M458.34,116.44L458.34,108.44" style="fill:none;stroke:#000000;stroke-width:1.5" />
<path d="M548.91,112.44L548.91,108.44" style="fill:none;stroke:#000000;stroke-width:1.5" />
<path d="M639.47,116.44L639.47,108.44" style="fill:none;stroke:#000000;stroke-width:1.5" />
<path d="M730.04,112.44L730.04,108.44" style="fill:none;stroke:#000000;stroke-width:1.5" />
<path d="M820.61,116.44L820.61,108.44" style="fill:none;stroke:#000000;stroke-width:1.5" />
<path d="M911.17,112.44L911.17,108.44" style="fill:none;stroke:#000000;stroke-width:1.5" />
<path d="M1001.7,116.44L1001.7,108.44" style="fill:none;stroke:#000000;stroke-width:1.5" />
<path d="M195.71,108.44L1075,108.44" style="fill:none;stroke:#000000;stroke-width:1.5" />
<g transform="rotate(90)">
<text x="371.42" y="29.18" transform="scale(1, -1)"
	style="font-family:Helvetica;font-weight:normal;font-style:normal;font-size:36px">Spectral Density (uV)</text>
</g>
<text x="87.869" y="-207.91" transform="scale(1, -1)"
	style="font-family:Helvetica;font-weight:normal;font-style:normal;font-size:36px">20.33</text>
<text x="87.869" y="-424.24" transform="scale(1, -1)"
	style="font-family:Helvetica;font-weight:normal;font-style:normal;font-size:36px">46.29</text>
<text x="87.869" y="-640.57" transform="scale(1, -1)"
	style="font-family:Helvetica;font-weight:normal;font-style:normal;font-size:36px">72.24</text>
<text x="87.869" y="-856.9" transform="scale(1, -1)"
	style="font-family:Helvetica;font-weight:normal;font-style:normal;font-size:36px">98.19</text>
<path d="M199.96,108.82L195.96,108.82" style="fill:none;stroke:#000000;stroke-width:1.5" />
<path d="M203.96,216.98L195.96,216.98" style="fill:none;stroke:#000000;stroke-width:1.5" />
<path d="M199.96,325.15L195.96,325.15" style="fill:none;stroke:#000000;stroke-width:1.5" />
<path d="M203.96,433.31L195.96,433.31" style="fill:none;stroke:#000000;stroke-width:1.5" />
<path d="M199.96,541.48L195.96,541.48" style="fill:none;stroke:#000000;stroke-width:1.5" />
<path d="M203.96,649.64L195.96,649.64" style="fill:none;stroke:#000000;stroke-width:1.5" />
<path d="M199.96,757.81L195.96,757.81" style="fill:none;stroke:#000000;stroke-width:1.5" />
<path d="M203.96,865.98L195.96,865.98" style="fill:none;stroke:#000000;stroke-width:1.5" />
<path d="M199.96,974.14L195.96,974.14" style="fill:none;stroke:#000000;stroke-width:1.5" />
<path d="M199.96,974.14L195.96,974.14" style="fill:none;stroke:#000000;stroke-width:1.5" />
<path d="M195.96,108.82L195.96,974.14" style="fill:none;stroke:#000000;stroke-width:1.5" />
<path d="M195.71,155.23L195.71,155.34" style="fill:none;stroke:#1FD3AC" />
<path d="M193.21,155.23L198.21,155.23" style="fill:none;stroke:#1FD3AC" />
<path d="M193.21,155.34L198.21,155.34" style="fill:none;stroke:#1FD3AC" />
<path d="M204.77,152.17L204.77,152.28" style="fill:none;stroke:#1FD3AC" />
<path d="M202.27,152.17L207.27,152.17" style="fill:none;stroke:#1FD3AC" />
<path d="M202.27,152.28L207.27,152.28" style="fill:none;stroke:#1FD3AC" />
<path d="M213.84,155.35L213.84,155.46" style="fill:none;stroke:#1FD3AC" />
<path d="M211.34,155.35L216.34,155.35" style="fill:none;stroke:#1FD3AC" />
<path d="M211.34,155.46L216.34,155.46" style="fill:none;stroke:#1FD3AC" />
<path d="M222.9,135.01L222.9,135.12" style="fill:none;stroke:#1FD3AC" />
<path d="M220.4,135.01L225.4,135.01" style="fill:none;stroke:#1FD3AC" />
<path d="M220.4,135.12L225.4,135.12" style="fill:none;stroke:#1FD3AC" />
<path d="M231.97,162.35L231.97,162.46" style="fill:none;stroke:#1FD3AC" />
<path d="M229.47,162.35L234.47,162.35" style="fill:none;stroke:#1FD3AC" />
<path d="M229.47,162.46L234.47,162.46" style="fill:none;stroke:#1FD3AC" />
<path d="M241.03,172.1L241.03,172.21" style="fill:none;stroke:#1FD3AC" />
<path d="M238.53,172.1L243.53,172.1" style="fill:none;stroke:#1FD3AC" />
<path d="M238.53,172.21L243.53,172.21" style="fill:none;stroke:#1FD3AC" />
<path d="M250.1,190.57L250.1,190.69" style="fill:none;stroke:#1FD3AC" />
<path d="M247.6,190.57L252.6,190.57" style="fill:none;stroke:#1FD3AC" />
<path d="M247.6,190.69L252.6,190.69" style="fill:none;stroke:#1FD3AC" />
<path d="M259.16,174.74L259.16,174.85" style="fill:none;stroke:#1FD3AC" />
<path d="M256.66,174.74L261.66,174.74" style="fill:none;stroke:#1FD3AC" />
<path d="M256.66,174.85L261.66,174.85" style="fill:none;stroke:#1FD3AC" />
<path d="M268.23,176.6L268.23,176.72" style="fill:none;stroke:#1FD3AC" />
<path d="M265.73,176.6L270.73,176.6" style="fill:none;stroke:#1FD3AC" />
<path d="M265.73,176.72L270.73,176.72" style="fill:none;stroke:#1FD3AC" />
<path d="M277.29,192.52L277.29,192.63" style="fill:none;stroke:#1FD3AC" />
<path d="M274.79,192.52L279.79,192.52" style="fill:none;stroke:#1FD3AC" />
<path d="M274.79,192.63L279.79,192.63" style="fill:none;stroke:#1FD3AC" />
<path d="M286.36,188.16L286.36,188.27" style="fill:none;stroke:#1FD3AC" />
<path d="M283.86,188.16L288.86,188.16" style="fill:none;stroke:#1FD3AC" />
<path d="M283.86,188.27L288.86,188.27" style="fill:none;stroke:#1FD3AC" />
<path d="M295.42,170.22L295.42,170.33" style="fill:none;stroke:#1FD3AC" />
<path d="M292.92,170.22L297.92,170.22" style="fill:none;stroke:#1FD3AC" />
<path d="M292.92,170.33L297.92,170.33" style="fill:none;stroke:#1FD3AC" />
<path d="M304.49,198.81L304.49,198.93" style="fill:none;stroke:#1FD3AC" />
<path d="M301.99,198.81L306.99,198.81" style="fill:none;stroke:#1FD3AC" />
<path d="M301.99,198.93L306.99,198.93" style="fill:none;stroke:#1FD3AC" />
<path d="M313.55,207.94L313.55,208.06" style="fill:none;stroke:#1FD3AC" />
<path d="M311.05,207.94L316.05,207.94" style="fill:none;stroke:#1FD3AC" />
<path d="M311.05,208.06L316.05,208.06" style="fill:none;stroke:#1FD3AC" />
<path d="M322.62,216.63L322.62,216.75" style="fill:none;stroke:#1FD3AC" />
<path d="M320.12,216.63L325.12,216.63" style="fill:none;stroke:#1FD3AC" />
<path d="M320.12,216.75L325.12,216.75" style="fill:none;stroke:#1FD3AC" />
<path d="M331.68,198.87L331.68,199.01" style="fill:none;stroke:#1FD3AC" />
<path d="M329.18,198.87L334.18,198.87" style="fill:none;stroke:#1FD3AC" />
<path d="M329.18,199.01L334.18,199.01" style="fill:none;stroke:#1FD3AC" />
<path d="M340.75,190.42L340.75,190.55" style="fill:none;stroke:#1FD3AC" />
<path d="M338.25,190.42L343.25,190.42" style="fill:none;stroke:#1FD3AC" />
<path d="M338.25,190.55L343.25,190.55" style="fill:none;stroke:#1FD3AC" />
<path d="M349.81,197.5L349.81,197.63" style="fill:none;stroke:#1FD3AC" />
<path d="M347.31,197.5L352.31,197.5" style="fill:none;stroke:#1FD3AC" />
<path d="M347.31,197.63L352.31,197.63" style="fill:none;stroke:#1FD3AC" />
<path d="M358.88,219.73L358.88,219.87" style="fill:none;stroke:#1FD3AC" />
<path d="M356.38,219.73L361.38,219.73" style="fill:none;stroke:#1FD3AC" />
<path d="M356.38,219.87L361.38,219.87" style="fill:none;stroke:#1FD3AC" />
<path d="M367.94,209.07L367.94,209.2" style="fill:none;stroke:#1FD3AC" />
<path d="M365.44,209.07L370.44,209.07" style="fill:none;stroke:#1FD3AC" />
<path d="M365.44,209.2L370.44,209.2" style="fill:none;stroke:#1FD3AC" />
<path d="M377.01,205.1L377.01,205.22" style="fill:none;stroke:#1FD3AC" />
<path d="M374.51,205.1L379.51,205.1" style="fill:none;stroke:#1FD3AC" />
<path d="M374.51,205.22L379.51,205.22" style="fill:none;stroke:#1FD3AC" />
<path d="M386.07,227.55L386.07,227.69" style="fill:none;stroke:#1FD3AC" />
<path d="M383.57,227.55L388.57,227.55" style="fill:none;stroke:#1FD3AC" />
<path d="M383.57,227.69L388.57,227.69" style="fill:none;stroke:#1FD3AC" />
<path d="M395.14,223.58L395.14,223.7" style="fill:none;stroke:#1FD3AC" />
<path d="M392.64,223.58L397.64,223.58" style="fill:none;stroke:#1FD3AC" />
<path d="M392.64,223.7L397.64,223.7" style="fill:none;stroke:#1FD3AC" />
<path d="M404.2,234.34L404.2,234.46" style="fill:none;stroke:#1FD3AC" />
<path d="M401.7,234.34L406.7,234.34" style="fill:none;stroke:#1FD3AC" />
<path d="M401.7,234.46L406.7,234.46" style="fill:none;stroke:#1FD3AC" />
<path d="M413.27,236.55L413.27,236.68" style="fill:none;stroke:#1FD3AC" />
<path d="M410.77,236.55L415.77,236.55" style="fill:none;stroke:#1FD3AC" />
<path d="M410.77,236.68L415.77,236.68" style="fill:none;stroke:#1FD3AC" />
<path d="M422.33,269.45L422.33,269.57" style="fill:none;stroke:#1FD3AC" />
<path d="M419.83,269.45L424.83,269.45" style="fill:none;stroke:#1FD3AC" />
<path d="M419.83,269.57L424.83,269.57" style="fill:none;stroke:#1FD3AC" />
<path d="M431.4,294.46L431.4,294.61" style="fill:none;stroke:#1FD3AC" />
<path d="M428.9,294.46L433.9,294.46" style="fill:none;stroke:#1FD3AC" />
<path d="M428.9,294.61L433.9,294.61" style="fill:none;stroke:#1FD3AC" />
<path d="M440.46,283.62L440.46,283.75" style="fill:none;stroke:#1FD3AC" />
<path d="M437.96,283.62L442.96,283.62" style="fill:none;stroke:#1FD3AC" />
<path d="M437.96,283.75L442.96,283.75" style="fill:none;stroke:#1FD3AC" />
<path d="M449.52,305.21L449.52,305.33" style="fill:none;stroke:#1FD3AC" />
<path d="M447.02,305.21L452.02,305.21" style="fill:none;stroke:#1FD3AC" />
<path d="M447.02,305.33L452.02,305.33" style="fill:none;stroke:#1FD3AC" />
<path d="M458.59,334.22L458.59,334.35" style="fill:none;stroke:#1FD3AC" />
<path d="M456.09,334.22L461.09,334.22" style="fill:none;stroke:#1FD3AC" />
<path d="M456.09,334.35L461.09,334.35" style="fill:none;stroke:#1FD3AC" />
<path d="M467.65,342.81L467.65,342.95" style="fill:none;stroke:#1FD3AC" />
<path d="M465.15,342.81L470.15,342.81" style="fill:none;stroke:#1FD3AC" />
<path d="M465.15,342.95L470.15,342.95" style="fill:none;stroke:#1FD3AC" />
<path d="M476.72,347.64L476.72,347.77" style="fill:none;stroke:#1FD3AC" />
<path d="M474.22,347.64L479.22,347.64" style="fill:none;stroke:#1FD3AC" />
<path d="M474.22,347.77L479.22,347.77" style="fill:none;stroke:#1FD3AC" />
<path d="M485.78,370.6L485.78,370.72" style="fill:none;stroke:#1FD3AC" />
<path d="M483.28,370.6L488.28,370.6" style="fill:none;stroke:#1FD3AC" />
<path d="M483.28,370.72L488.28,370.72" style="fill:none;stroke:#1FD3AC" />
<path d="M494.85,376.57L494.85,376.72" style="fill:none;stroke:#1FD3AC" />
<path d="M492.35,376.57L497.35,376.57" style="fill:none;stroke:#1FD3AC" />
<path d="M492.35,376.72L497.35,376.72" style="fill:none;stroke:#1FD3AC" />
<path d="M503.91,391.6L503.91,391.73" style="fill:none;stroke:#1FD3AC" />
<path d="M501.41,391.6L506.41,391.6" style="fill:none;stroke:#1FD3AC" />
<path d="M501.41,391.73L506.41,391.73" style="fill:none;stroke:#1FD3AC" />
<path d="M512.98,397.83L512.98,397.96" style="fill:none;stroke:#1FD3AC" />
<path d="M510.48,397.83L515.48,397.83" style="fill:none;stroke:#1FD3AC" />
<path d="M510.48,397.96L515.48,397.96" style="fill:none;stroke:#1FD3AC" />
<path d="M522.04,499.27L522.04,499.4" style="fill:none;stroke:#1FD3AC" />
<path d="M519.54,499.27L524.54,499.27" style="fill:none;stroke:#1FD3AC" />
<path d="M519.54,499.4L524.54,499.4" style="fill:none;stroke:#1FD3AC" />
<path d="M531.11,569.39L531.11,569.53" style="fill:none;stroke:#1FD3AC" />
<path d="M528.61,569.39L533.61,569.39" style="fill:none;stroke:#1FD3AC" />
<path d="M528.61,569.53L533.61,569.53" style="fill:none;stroke:#1FD3AC" />
<path d="M540.17,604.16L540.17,604.29" style="fill:none;stroke:#1FD3AC" />
<path d="M537.67,604.16L542.67,604.16" style="fill:none;stroke:#1FD3AC" />
<path d="M537.67,604.29L542.67,604.29" style="fill:none;stroke:#1FD3AC" />
<path d="M549.24,602.13L549.24,602.26" style="fill:none;stroke:#1FD3AC" />
<path d="M546.74,602.13L551.74,602.13" style="fill:none;stroke:#1FD3AC" />
<path d="M546.74,602.26L551.74,602.26" style="fill:none;stroke:#1FD3AC" />
<path d="M558.3,620.56L558.3,620.68" style="fill:none;stroke:#1FD3AC" />
<path d="M555.8,620.56L560.8,620.56" style="fill:none;stroke:#1FD3AC" />
<path d="M555.8,620.68L560.8,620.68" style="fill:none;stroke:#1FD3AC" />
<path d="M567.37,644.35L567.37,644.48" style="fill:none;stroke:#1FD3AC" />
<path d="M564.87,644.35L569.87,644.35" style="fill:none;stroke:#1FD3AC" />
<path d="M564.87,644.48L569.87,644.48" style="fill:none;stroke:#1FD3AC" />
<path d="M576.43,728.2L576.43,728.37" style="fill:none;stroke:#1FD3AC" />
<path d="M573.93,728.2L578.93,728.2" style="fill:none;stroke:#1FD3AC" />
<path d="M573.93,728.37L578.93,728.37" style="fill:none;stroke:#1FD3AC" />
<path d="M585.5,739.35L585.5,739.48" style="fill:none;stroke:#1FD3AC" />
<path d="M583,739.35L588,739.35" style="fill:none;stroke:#1FD3AC" />
<path d="M583,739.48L588,739.48" style="fill:none;stroke:#1FD3AC" />
<path d="M594.56,747.83L594.56,748.05" style="fill:none;stroke:#1FD3AC" />
<path d="M592.06,747.83L597.06,747.83" style="fill:none;stroke:#1FD3AC" />
<path d="M592.06,748.05L597.06,748.05" style="fill:none;stroke:#1FD3AC" />
<path d="M603.63,774.18L603.63,774.41" style="fill:none;stroke:#1FD3AC" />
<path d="M601.13,774.18L606.13,774.18" style="fill:none;stroke:#1FD3AC" />
<path d="M601.13,774.41L606.13,774.41" style="fill:none;stroke:#1FD3AC" />
<path d="M612.69,754.53L612.69,754.73" style="fill:none;stroke:#1FD3AC" />
<path d="M610.19,754.53L615.19,754.53" style="fill:none;stroke:#1FD3AC" />
<path d="M610.19,754.73L615.19,754.73" style="fill:none;stroke:#1FD3AC" />
<path d="M621.76,722.17L621.76,722.32" style="fill:none;stroke:#1FD3AC" />
<path d="M619.26,722.17L624.26,722.17" style="fill:none;stroke:#1FD3AC" />
<path d="M619.26,722.32L624.26,722.32" style="fill:none;stroke:#1FD3AC" />
<path d="M630.82,644.45L630.82,644.61" style="fill:none;stroke:#1FD3AC" />
<path d="M628.32,644.45L633.32,644.45" style="fill:none;stroke:#1FD3AC" />
<path d="M628.32,644.61L633.32,644.61" style="fill:none;stroke:#1FD3AC" />
<path d="M639.89,635.05L639.89,635.23" style="fill:none;stroke:#1FD3AC" />
<path d="M637.39,635.05L642.39,635.05" style="fill:none;stroke:#1FD3AC" />
<path d="M637.39,635.23L642.39,635.23" style="fill:none;stroke:#1FD3AC" />
<path d="M648.95,591.38L648.95,591.52" style="fill:none;stroke:#1FD3AC" />
<path d="M646.45,591.38L651.45,591.38" style="fill:none;stroke:#1FD3AC" />
<path d="M646.45,591.52L651.45,591.52" style="fill:none;stroke:#1FD3AC" />
<path d="M658.02,545.5L658.02,545.63" style="fill:none;stroke:#1FD3AC" />
<path d="M655.52,545.5L660.52,545.5" style="fill:none;stroke:#1FD3AC" />
<path d="M655.52,545.63L660.52,545.63" style="fill:none;stroke:#1FD3AC" />
<path d="M667.08,544.1L667.08,544.22" style="fill:none;stroke:#1FD3AC" />
<path d="M664.58,544.1L669.58,544.1" style="fill:none;stroke:#1FD3AC" />
<path d="M664.58,544.22L669.58,544.22" style="fill:none;stroke:#1FD3AC" />
<path d="M676.15,487.5L676.15,487.63" style="fill:none;stroke:#1FD3AC" />
<path d="M673.65,487.5L678.65,487.5" style="fill:none;stroke:#1FD3AC" />
<path d="M673.65,487.63L678.65,487.63" style="fill:none;stroke:#1FD3AC" />
<path d="M685.21,431.04L685.21,431.17" style="fill:none;stroke:#1FD3AC" />
<path d="M682.71,431.04L687.71,431.04" style="fill:none;stroke:#1FD3AC" />
<path d="M682.71,431.17L687.71,431.17" style="fill:none;stroke:#1FD3AC" />
<path d="M694.28,405.51L694.28,405.63" style="fill:none;stroke:#1FD3AC" />
<path d="M691.78,405.51L696.78,405.51" style="fill:none;stroke:#1FD3AC" />
<path d="M691.78,405.63L696.78,405.63" style="fill:none;stroke:#1FD3AC" />
<path d="M703.34,393.23L703.34,393.35" style="fill:none;stroke:#1FD3AC" />
<path d="M700.84,393.23L705.84,393.23" style="fill:none;stroke:#1FD3AC" />
<path d="M700.84,393.35L705.84,393.35" style="fill:none;stroke:#1FD3AC" />
<path d="M712.41,365L712.41,365.1" style="fill:none;stroke:#1FD3AC" />
<path d="M709.91,365L714.91,365" style="fill:none;stroke:#1FD3AC" />
<path d="M709.91,365.1L714.91,365.1" style="fill:none;stroke:#1FD3AC" />
<path d="M721.47,333.83L721.47,333.94" style="fill:none;stroke:#1FD3AC" />
<path d="M718.97,333.83L723.97,333.83" style="fill:none;stroke:#1FD3AC" />
<path d="M718.97,333.94L723.97,333.94" style="fill:none;stroke:#1FD3AC" />
<path d="M730.54,310.1L730.54,310.2" style="fill:none;stroke:#1FD3AC" />
<path d="M728.04,310.1L733.04,310.1" style="fill:none;stroke:#1FD3AC" />
<path d="M728.04,310.2L733.04,310.2" style="fill:none;stroke:#1FD3AC" />
<path d="M739.6,295.02L739.6,295.12" style="fill:none;stroke:#1FD3AC" />
<path d="M737.1,295.02L742.1,295.02" style="fill:none;stroke:#1FD3AC" />
<path d="M737.1,295.12L742.1,295.12" style="fill:none;stroke:#1FD3AC" />
<path d="M748.67,274.63L748.67,274.73" style="fill:none;stroke:#1FD3AC" />
<path d="M746.17,274.63L751.17,274.63" style="fill:none;stroke:#1FD3AC" />
<path d="M746.17,274.73L751.17,274.73" style="fill:none;stroke:#1FD3AC" />
<path d="M757.73,264.81L757.73,264.9" style="fill:none;stroke:#1FD3AC" />
<path d="M755.23,264.81L760.23,264.81" style="fill:none;stroke:#1FD3AC" />
<path d="M755.23,264.9L760.23,264.9" style="fill:none;stroke:#1FD3AC" />
<path d="M766.79,252.82L766.79,252.91" style="fill:none;stroke:#1FD3AC" />
<path d="M764.29,252.82L769.29,252.82" style="fill:none;stroke:#1FD3AC" />
<path d="M764.29,252.91L769.29,252.91" style="fill:none;stroke:#1FD3AC" />
<path d="M775.86,255.6L775.86,255.69" style="fill:none;stroke:#1FD3AC" />
<path d="M773.36,255.6L778.36,255.6" style="fill:none;stroke:#1FD3AC" />
<path d="M773.36,255.69L778.36,255.69" style="fill:none;stroke:#1FD3AC" />
<path d="M784.92,258.17L784.92,258.27" style="fill:none;stroke:#1FD3AC" />
<path d="M782.42,258.17L787.42,258.17" style="fill:none;stroke:#1FD3AC" />
<path d="M782.42,258.27L787.42,258.27" style="fill:none;stroke:#1FD3AC" />
<path d="M793.99,265.89L793.99,265.99" style="fill:none;stroke:#1FD3AC" />
<path d="M791.49,265.89L796.49,265.89" style="fill:none;stroke:#1FD3AC" />
<path d="M791.49,265.99L796.49,265.99" style="fill:none;stroke:#1FD3AC" />
<path d="M803.05,261.4L803.05,261.5" style="fill:none;stroke:#1FD3AC" />
<path d="M800.55,261.4L805.55,261.4" style="fill:none;stroke:#1FD3AC" />
<path d="M800.55,261.5L805.55,261.5" style="fill:none;stroke:#1FD3AC" />
<path d="M812.12,244.72L812.12,244.82" style="fill:none;stroke:#1FD3AC" />
<path d="M809.62,244.72L814.62,244.72" style="fill:none;stroke:#1FD3AC" />
<path d="M809.62,244.82L814.62,244.82" style="fill:none;stroke:#1FD3AC" />
<path d="M821.18,258.1L821.18,258.19" style="fill:none;stroke:#1FD3AC" />
<path d="M818.68,258.1L823.68,258.1" style="fill:none;stroke:#1FD3AC" />
<path d="M818.68,258.19L823.68,258.19" style="fill:none;stroke:#1FD3AC" />
<path d="M830.25,248.09L830.25,248.19" style="fill:none;stroke:#1FD3AC" />
<path d="M827.75,248.09L832.75,248.09" style="fill:none;stroke:#1FD3AC" />
<path d="M827.75,248.19L832.75,248.19" style="fill:none;stroke:#1FD3AC" />
<path d="M839.31,245.1L839.31,245.2" style="fill:none;stroke:#1FD3AC" />
<path d="M836.81,245.1L841.81,245.1" style="fill:none;stroke:#1FD3AC" />
<path d="M836.81,245.2L841.81,245.2" style="fill:none;stroke:#1FD3AC" />
<path d="M848.38,231.25L848.38,231.35" style="fill:none;stroke:#1FD3AC" />
<path d="M845.88,231.25L850.88,231.25" style="fill:none;stroke:#1FD3AC" />
<path d="M845.88,231.35L850.88,231.35" style="fill:none;stroke:#1FD3AC" />
<path d="M857.44,242.73L857.44,242.82" style="fill:none;stroke:#1FD3AC" />
<path d="M854.94,242.73L859.94,242.73" style="fill:none;stroke:#1FD3AC" />
<path d="M854.94,242.82L859.94,242.82" style="fill:none;stroke:#1FD3AC" />
<path d="M866.51,238.91L866.51,239.01" style="fill:none;stroke:#1FD3AC" />
<path d="M864.01,238.91L869.01,238.91" style="fill:none;stroke:#1FD3AC" />
<path d="M864.01,239.01L869.01,239.01" style="fill:none;stroke:#1FD3AC" />
<path d="M875.57,242.6L875.57,242.7" style="fill:none;stroke:#1FD3AC" />
<path d="M873.07,242.6L878.07,242.6" style="fill:none;stroke:#1FD3AC" />
<path d="M873.07,242.7L878.07,242.7" style="fill:none;stroke:#1FD3AC" />
<path d="M884.64,234.45L884.64,234.55" style="fill:none;stroke:#1FD3AC" />
<path d="M882.14,234.45L887.14,234.45" style="fill:none;stroke:#1FD3AC" />
<path d="M882.14,234.55L887.14,234.55" style="fill:none;stroke:#1FD3AC" />
<path d="M893.7,232.74L893.7,232.84" style="fill:none;stroke:#1FD3AC" />
<path d="M891.2,232.74L896.2,232.74" style="fill:none;stroke:#1FD3AC" />
<path d="M891.2,232.84L896.2,232.84" style="fill:none;stroke:#1FD3AC" />
<path d="M902.77,237.08L902.77,237.19" style="fill:none;stroke:#1FD3AC" />
<path d="M900.27,237.08L905.27,237.08" style="fill:none;stroke:#1FD3AC" />
<path d="M900.27,237.19L905.27,237.19" style="fill:none;stroke:#1FD3AC" />
<path d="M911.83,233.48L911.83,233.59" style="fill:none;stroke:#1FD3AC" />
<path d="M909.33,233.48L914.33,233.48" style="fill:none;stroke:#1FD3AC" />
<path d="M909.33,233.59L914.33,233.59" style="fill:none;stroke:#1FD3AC" />
<path d="M920.9,223.77L920.9,223.87" style="fill:none;stroke:#1FD3AC" />
<path d="M918.4,223.77L923.4,223.77" style="fill:none;stroke:#1FD3AC" />
<path d="M918.4,223.87L923.4,223.87" style="fill:none;stroke:#1FD3AC" />
<path d="M929.96,240.37L929.96,240.48" style="fill:none;stroke:#1FD3AC" />
<path d="M927.46,240.37L932.46,240.37" style="fill:none;stroke:#1FD3AC" />
<path d="M927.46,240.48L932.46,240.48" style="fill:none;stroke:#1FD3AC" />
<path d="M939.03,212.36L939.03,212.47" style="fill:none;stroke:#1FD3AC" />
<path d="M936.53,212.36L941.53,212.36" style="fill:none;stroke:#1FD3AC" />
<path d="M936.53,212.47L941.53,212.47" style="fill:none;stroke:#1FD3AC" />
<path d="M948.09,216.91L948.09,217.01" style="fill:none;stroke:#1FD3AC" />
<path d="M945.59,216.91L950.59,216.91" style="fill:none;stroke:#1FD3AC" />
<path d="M945.59,217.01L950.59,217.01" style="fill:none;stroke:#1FD3AC" />
<path d="M957.16,239.73L957.16,239.83" style="fill:none;stroke:#1FD3AC" />
<path d="M954.66,239.73L959.66,239.73" style="fill:none;stroke:#1FD3AC" />
<path d="M954.66,239.83L959.66,239.83" style="fill:none;stroke:#1FD3AC" />
<path d="M966.22,235.32L966.22,235.43" style="fill:none;stroke:#1FD3AC" />
<path d="M963.72,235.32L968.72,235.32" style="fill:none;stroke:#1FD3AC" />
<path d="M963.72,235.43L968.72,235.43" style="fill:none;stroke:#1FD3AC" />
<path d="M975.29,236.86L975.29,236.96" style="fill:none;stroke:#1FD3AC" />
<path d="M972.79,236.86L977.79,236.86" style="fill:none;stroke:#1FD3AC" />
<path d="M972.79,236.96L977.79,236.96" style="fill:none;stroke:#1FD3AC" />
<path d="M984.35,235.76L984.35,235.86" style="fill:none;stroke:#1FD3AC" />
<path d="M981.85,235.76L986.85,235.76" style="fill:none;stroke:#1FD3AC" />
<path d="M981.85,235.86L986.85,235.86" style="fill:none;stroke:#1FD3AC" />
<path d="M993.42,241.82L993.42,241.92" style="fill:none;stroke:#1FD3AC" />
<path d="M990.92,241.82L995.92,241.82" style="fill:none;stroke:#1FD3AC" />
<path d="M990.92,241.92L995.92,241.92" style="fill:none;stroke:#1FD3AC" />
<path d="M1002.5,242.94L1002.5,243.04" style="fill:none;stroke:#1FD3AC" />
<path d="M999.98,242.94L1005,242.94" style="fill:none;stroke:#1FD3AC" />
<path d="M999.98,243.04L1005,243.04" style="fill:none;stroke:#1FD3AC" />
<path d="M1011.5,272.52L1011.5,272.63" style="fill:none;stroke:#1FD3AC" />
<path d="M1009,272.52L1014,272.52" style="fill:none;stroke:#1FD3AC" />
<path d="M1009,272.63L1014,272.63" style="fill:none;stroke:#1FD3AC" />
<path d="M1020.6,255.2L1020.6,255.33" style="fill:none;stroke:#1FD3AC" />
<path d="M1018.1,255.2L1023.1,255.2" style="fill:none;stroke:#1FD3AC" />
<path d="M1018.1,255.33L1023.1,255.33" style="fill:none;stroke:#1FD3AC" />
<path d="M1029.7,222.83L1029.7,222.95" style="fill:none;stroke:#1FD3AC" />
<path d="M1027.2,222.83L1032.2,222.83" style="fill:none;stroke:#1FD3AC" />
<path d="M1027.2,222.95L1032.2,222.95" style="fill:none;stroke:#1FD3AC" />
<path d="M1038.7,227.51L1038.7,227.61" style="fill:none;stroke:#1FD3AC" />
<path d="M1036.2,227.51L1041.2,227.51" style="fill:none;stroke:#1FD3AC" />
<path d="M1036.2,227.61L1041.2,227.61" style="fill:none;stroke:#1FD3AC" />
<path d="M1047.8,253.88L1047.8,253.99" style="fill:none;stroke:#1FD3AC" />
<path d="M1045.3,253.88L1050.3,253.88" style="fill:none;stroke:#1FD3AC" />
<path d="M1045.3,253.99L1050.3,253.99" style="fill:none;stroke:#1FD3AC" />
<path d="M1056.9,261.39L1056.9,261.49" style="fill:none;stroke:#1FD3AC" />
<path d="M1054.4,261.39L1059.4,261.39" style="fill:none;stroke:#1FD3AC" />
<path d="M1054.4,261.49L1059.4,261.49" style="fill:none;stroke:#1FD3AC" />
<path d="M1065.9,274.42L1065.9,274.54" style="fill:none;stroke:#1FD3AC" />
<path d="M1063.4,274.42L1068.4,274.42" style="fill:none;stroke:#1FD3AC" />
<path d="M1063.4,274.54L1068.4,274.54" style="fill:none;stroke:#1FD3AC" />
<path d="M1075,251.3L1075,251.41" style="fill:none;stroke:#1FD3AC" />
<path d="M1072.5,251.3L1077.5,251.3" style="fill:none;stroke:#1FD3AC" />
<path d="M1072.5,251.41L1077.5,251.41" style="fill:none;stroke:#1FD3AC" />
<path d="M200.71,155.29A5,5 0 1 1 190.71,155.29A5,5 0 1 1 200.71,155.29Z" style="fill:#1FD3AC" />
<path d="M209.77,152.23A5,5 0 1 1 199.77,152.23A5,5 0 1 1 209.77,152.23Z" style="fill:#1FD3AC" />
<path d="M218.84,155.41A5,5 0 1 1 208.84,155.41A5,5 0 1 1 218.84,155.41Z" style="fill:#1FD3AC" />
<path d="M227.9,135.07A5,5 0 1 1 217.9,135.07A5,5 0 1 1 227.9,135.07Z" style="fill:#1FD3AC" />
<path d="M236.97,162.41A5,5 0 1 1 226.97,162.41A5,5 0 1 1 236.97,162.41Z" style="fill:#1FD3AC" />
<path d="M246.03,172.16A5,5 0 1 1 236.03,172.16A5,5 0 1 1 246.03,172.16Z" style="fill:#1FD3AC" />
<path d="M255.1,190.63A5,5 0 1 1 245.1,190.63A5,5 0 1 1 255.1,190.63Z" style="fill:#1FD3AC" />
<path d="M264.16,174.8A5,5 0 1 1 254.16,174.8A5,5 0 1 1 264.16,174.8Z" style="fill:#1FD3AC" />
<path d="M273.23,176.66A5,5 0 1 1 263.23,176.66A5,5 0 1 1 273.23,176.66Z" style="fill:#1FD3AC" />
<path d="M282.29,192.58A5,5 0 1 1 272.29,192.58A5,5 0 1 1 282.29,192.58Z" style="fill:#1FD3AC" />
<path d="M291.36,188.22A5,5 0 1 1 281.36,188.22A5,5 0 1 1 291.36,188.22Z" style="fill:#1FD3AC" />
<path d="M300.42,170.27A5,5 0 1 1 290.42,170.27A5,5 0 1 1 300.42,170.27Z" style="fill:#1FD3AC" />
<path d="M309.49,198.87A5,5 0 1 1 299.49,198.87A5,5 0 1 1 309.49,198.87Z" style="fill:#1FD3AC" />
<path d="M318.55,208A5,5 0 1 1 308.55,208A5,5 0 1 1 318.55,208Z" style="fill:#1FD3AC" />
<path d="M327.62,216.69A5,5 0 1 1 317.62,216.69A5,5 0 1 1 327.62,216.69Z" style="fill:#1FD3AC" />
<path d="M336.68,198.94A5,5 0 1 1 326.68,198.94A5,5 0 1 1 336.68,198.94Z" style="fill:#1FD3AC" />
<path d="M345.75,190.49A5,5 0 1 1 335.75,190.49A5,5 0 1 1 345.75,190.49Z" style="fill:#1FD3AC" />
<path d="M354.81,197.57A5,5 0 1 1 344.81,197.57A5,5 0 1 1 354.81,197.57Z" style="fill:#1FD3AC" />
<path d="M363.88,219.8A5,5 0 1 1 353.88,219.8A5,5 0 1 1 363.88,219.8Z" style="fill:#1FD3AC" />
<path d="M372.94,209.13A5,5 0 1 1 362.94,209.13A5,5 0 1 1 372.94,209.13Z" style="fill:#1FD3AC" />
<path d="M382.01,205.16A5,5 0 1 1 372.01,205.16A5,5 0 1 1 382.01,205.16Z" style="fill:#1FD3AC" />
<path d="M391.07,227.62A5,5 0 1 1 381.07,227.62A5,5 0 1 1 391.07,227.62Z" style="fill:#1FD3AC" />
<path d="M400.14,223.64A5,5 0 1 1 390.14,223.64A5,5 0 1 1 400.14,223.64Z" style="fill:#1FD3AC" />
<path d="M409.2,234.4A5,5 0 1 1 399.2,234.4A5,5 0 1 1 409.2,234.4Z" style="fill:#1FD3AC" />
<path d="M418.27,236.61A5,5 0 1 1 408.27,236.61A5,5 0 1 1 418.27,236.61Z" style="fill:#1FD3AC" />
<path d="M427.33,269.51A5,5 0 1 1 417.33,269.51A5,5 0 1 1 427.33,269.51Z" style="fill:#1FD3AC" />
<path d="M436.4,294.53A5,5 0 1 1 426.4,294.53A5,5 0 1 1 436.4,294.53Z" style="fill:#1FD3AC" />
<path d="M445.46,283.68A5,5 0 1 1 435.46,283.68A5,5 0 1 1 445.46,283.68Z" style="fill:#1FD3AC" />
<path d="M454.52,305.27A5,5 0 1 1 444.52,305.27A5,5 0 1 1 454.52,305.27Z" style="fill:#1FD3AC" />
<path d="M463.59,334.28A5,5 0 1 1 453.59,334.28A5,5 0 1 1 463.59,334.28Z" style="fill:#1FD3AC" />
<path d="M472.65,342.88A5,5 0 1 1 462.65,342.88A5,5 0 1 1 472.65,342.88Z" style="fill:#1FD3AC" />
<path d="M481.72,347.71A5,5 0 1 1 471.72,347.71A5,5 0 1 1 481.72,347.71Z" style="fill:#1FD3AC" />
<path d="M490.78,370.66A5,5 0 1 1 480.78,370.66A5,5 0 1 1 490.78,370.66Z" style="fill:#1FD3AC" />
<path d="M499.85,376.65A5,5 0 1 1 489.85,376.65A5,5 0 1 1 499.85,376.65Z" style="fill:#1FD3AC" />
<path d="M508.91,391.66A5,5 0 1 1 498.91,391.66A5,5 0 1 1 508.91,391.66Z" style="fill:#1FD3AC" />
<path d="M517.98,397.89A5,5 0 1 1 507.98,397.89A5,5 0 1 1 517.98,397.89Z" style="fill:#1FD3AC" />
<path d="M527.04,499.33A5,5 0 1 1 517.04,499.33A5,5 0 1 1 527.04,499.33Z" style="fill:#1FD3AC" />
<path d="M536.11,569.46A5,5 0 1 1 526.11,569.46A5,5 0 1 1 536.11,569.46Z" style="fill:#1FD3AC" />
<path d="M545.17,604.22A5,5 0 1 1 535.17,604.22A5,5 0 1 1 545.17,604.22Z" style="fill:#1FD3AC" />
<path d="M554.24,602.19A5,5 0 1 1 544.24,602.19A5,5 0 1 1 554.24,602.19Z" style="fill:#1FD3AC" />
<path d="M563.3,620.62A5,5 0 1 1 553.3,620.62A5,5 0 1 1 563.3,620.62Z" style="fill:#1FD3AC" />
<path d="M572.37,644.41A5,5 0 1 1 562.37,644.41A5,5 0 1 1 572.37,644.41Z" style="fill:#1FD3AC" />
<path d="M581.43,728.29A5,5 0 1 1 571.43,728.29A5,5 0 1 1 581.43,728.29Z" style="fill:#1FD3AC" />
<path d="M590.5,739.41A5,5 0 1 1 580.5,739.41A5,5 0 1 1 590.5,739.41Z" style="fill:#1FD3AC" />
<path d="M599.56,747.94A5,5 0 1 1 589.56,747.94A5,5 0 1 1 599.56,747.94Z" style="fill:#1FD3AC" />
<path d="M608.63,774.3A5,5 0 1 1 598.63,774.3A5,5 0 1 1 608.63,774.3Z" style="fill:#1FD3AC" />
<path d="M617.69,754.63A5,5 0 1 1 607.69,754.63A5,5 0 1 1 617.69,754.63Z" style="fill:#1FD3AC" />
<path d="M626.76,722.25A5,5 0 1 1 616.76,722.25A5,5 0 1 1 626.76,722.25Z" style="fill:#1FD3AC" />
<path d="M635.82,644.53A5,5 0 1 1 625.82,644.53A5,5 0 1 1 635.82,644.53Z" style="fill:#1FD3AC" />
<path d="M644.89,635.14A5,5 0 1 1 634.89,635.14A5,5 0 1 1 644.89,635.14Z" style="fill:#1FD3AC" />
<path d="M653.95,591.45A5,5 0 1 1 643.95,591.45A5,5 0 1 1 653.95,591.45Z" style="fill:#1FD3AC" />
<path d="M663.02,545.56A5,5 0 1 1 653.02,545.56A5,5 0 1 1 663.02,545.56Z" style="fill:#1FD3AC" />
<path d="M672.08,544.16A5,5 0 1 1 662.08,544.16A5,5 0 1 1 672.08,544.16Z" style="fill:#1FD3AC" />
<path d="M681.15,487.56A5,5 0 1 1 671.15,487.56A5,5 0 1 1 681.15,487.56Z" style="fill:#1FD3AC" />
<path d="M690.21,431.1A5,5 0 1 1 680.21,431.1A5,5 0 1 1 690.21,431.1Z" style="fill:#1FD3AC" />
<path d="M699.28,405.57A5,5 0 1 1 689.28,405.57A5,5 0 1 1 699.28,405.57Z" style="fill:#1FD3AC" />
<path d="M708.34,393.29A5,5 0 1 1 698.34,393.29A5,5 0 1 1 708.34,393.29Z" style="fill:#1FD3AC" />
<path d="M717.41,365.05A5,5 0 1 1 707.41,365.05A5,5 0 1 1 717.41,365.05Z" style="fill:#1FD3AC" />
<path d="M726.47,333.89A5,5 0 1 1 716.47,333.89A5,5 0 1 1 726.47,333.89Z" style="fill:#1FD3AC" />
<path d="M735.54,310.15A5,5 0 1 1 725.54,310.15A5,5 0 1 1 735.54,310.15Z" style="fill:#1FD3AC" />
<path d="M744.6,295.07A5,5 0 1 1 734.6,295.07A5,5 0 1 1 744.6,295.07Z" style="fill:#1FD3AC" />
<path d="M753.67,274.68A5,5 0 1 1 743.67,274.68A5,5 0 1 1 753.67,274.68Z" style="fill:#1FD3AC" />
<path d="M762.73,264.85A5,5 0 1 1 752.73,264.85A5,5 0 1 1 762.73,264.85Z" style="fill:#1FD3AC" />
<path d="M771.79,252.87A5,5 0 1 1 761.79,252.87A5,5 0 1 1 771.79,252.87Z" style="fill:#1FD3AC" />
<path d="M780.86,255.65A5,5 0 1 1 770.86,255.65A5,5 0 1 1 780.86,255.65Z" style="fill:#1FD3AC" />
<path d="M789.92,258.22A5,5 0 1 1 779.92,258.22A5,5 0 1 1 789.92,258.22Z" style="fill:#1FD3AC" />
<path d="M798.99,265.94A5,5 0 1 1 788.99,265.94A5,5 0 1 1 798.99,265.94Z" style="fill:#1FD3AC" />
<path d="M808.05,261.45A5,5 0 1 1 798.05,261.45A5,5 0 1 1 808.05,261.45Z" style="fill:#1FD3AC" />
<path d="M817.12,244.77A5,5 0 1 1 807.12,244.77A5,5 0 1 1 817.12,244.77Z" style="fill:#1FD3AC" />
<path d="M826.18,258.14A5,5 0 1 1 816.18,258.14A5,5 0 1 1 826.18,258.14Z" style="fill:#1FD3AC" />
<path d="M835.25,248.14A5,5 0 1 1 825.25,248.14A5,5 0 1 1 835.25,248.14Z" style="fill:#1FD3AC" />
<path d="M844.31,245.15A5,5 0 1 1 834.31,245.15A5,5 0 1 1 844.31,245.15Z" style="fill:#1FD3AC" />
<path d="M853.38,231.3A5,5 0 1 1 843.38,231.3A5,5 0 1 1 853.38,231.3Z" style="fill:#1FD3AC" />
<path d="M862.44,242.77A5,5 0 1 1 852.44,242.77A5,5 0 1 1 862.44,242.77Z" style="fill:#1FD3AC" />
<path d="M871.51,238.96A5,5 0 1 1 861.51,238.96A5,5 0 1 1 871.51,238.96Z" style="fill:#1FD3AC" />
<path d="M880.57,242.65A5,5 0 1 1 870.57,242.65A5,5 0 1 1 880.57,242.65Z" style="fill:#1FD3AC" />
<path d="M889.64,234.5A5,5 0 1 1 879.64,234.5A5,5 0 1 1 889.64,234.5Z" style="fill:#1FD3AC" />
<path d="M898.7,232.79A5,5 0 1 1 888.7,232.79A5,5 0 1 1 898.7,232.79Z" style="fill:#1FD3AC" />
<path d="M907.77,237.13A5,5 0 1 1 897.77,237.13A5,5 0 1 1 907.77,237.13Z" style="fill:#1FD3AC" />
<path d="M916.83,233.54A5,5 0 1 1 906.83,233.54A5,5 0 1 1 916.83,233.54Z" style="fill:#1FD3AC" />
<path d="M925.9,223.82A5,5 0 1 1 915.9,223.82A5,5 0 1 1 925.9,223.82Z" style="fill:#1FD3AC" />
<path d="M934.96,240.42A5,5 0 1 1 924.96,240.42A5,5 0 1 1 934.96,240.42Z" style="fill:#1FD3AC" />
<path d="M944.03,212.41A5,5 0 1 1 934.03,212.41A5,5 0 1 1 944.03,212.41Z" style="fill:#1FD3AC" />
<path d="M953.09,216.96A5,5 0 1 1 943.09,216.96A5,5 0 1 1 953.09,216.96Z" style="fill:#1FD3AC" />
<path d="M962.16,239.78A5,5 0 1 1 952.16,239.78A5,5 0 1 1 962.16,239.78Z" style="fill:#1FD3AC" />
<path d="M971.22,235.37A5,5 0 1 1 961.22,235.37A5,5 0 1 1 971.22,235.37Z" style="fill:#1FD3AC" />
<path d="M980.29,236.91A5,5 0 1 1 970.29,236.91A5,5 0 1 1 980.29,236.91Z" style="fill:#1FD3AC" />
<path d="M989.35,235.81A5,5 0 1 1 979.35,235.81A5,5 0 1 1 989.35,235.81Z" style="fill:#1FD3AC" />
<path d="M998.42,241.87A5,5 0 1 1 988.42,241.87A5,5 0 1 1 998.42,241.87Z" style="fill:#1FD3AC" />
<path d="M1007.5,242.99A5,5 0 1 1 997.48,242.99A5,5 0 1 1 1007.5,242.99Z" style="fill:#1FD3AC" />
<path d="M1016.5,272.58A5,5 0 1 1 1006.5,272.58A5,5 0 1 1 1016.5,272.58Z" style="fill:#1FD3AC" />
<path d="M1025.6,255.26A5,5 0 1 1 1015.6,255.26A5,5 0 1 1 1025.6,255.26Z" style="fill:#1FD3AC" />
<path d="M1034.7,222.89A5,5 0 1 1 1024.7,222.89A5,5 0 1 1 1034.7,222.89Z" style="fill:#1FD3AC" />
<path d="M1043.7,227.56A5,5 0 1 1 1033.7,227.56A5,5 0 1 1 1043.7,227.56Z" style="fill:#1FD3AC" />
<path d="M1052.8,253.93A5,5 0 1 1 1042.8,253.93A5,5 0 1 1 1052.8,253.93Z" style="fill:#1FD3AC" />
<path d="M1061.9,261.44A5,5 0 1 1 1051.9,261.44A5,5 0 1 1 1061.9,261.44Z" style="fill:#1FD3AC" />
<path d="M1070.9,274.48A5,5 0 1 1 1060.9,274.48A5,5 0 1 1 1070.9,274.48Z" style="fill:#1FD3AC" />
<path d="M1080,251.36A5,5 0 1 1 1070,251.36A5,5 0 1 1 1080,251.36Z" style="fill:#1FD3AC" />
<path d="M195.71,974.14L1075,974.14" style="fill:none;stroke:#000000" />
<path d="M1075,108.82L1075,974.14" style="fill:none;stroke:#000000" />
<path d="M1038,942.02A8,8 0 1 1 1022,942.02A8,8 0 1 1 1038,942.02Z" style="fill:#1FD3AC" />
<text x="824.95" y="-933.54" transform="scale(1, -1)"
	style="font-family:Helvetica;font-weight:normal;font-style:normal;font-size:36px">Full Power</text>
</g>
</svg>
