<?xml version="1.0"?>
<!-- Generated by SVGo and Plotinum VG -->
<svg width="1296pt" height="1080pt" viewBox="0 0 1296 1080"
	xmlns="http://www.w3.org/2000/svg"
	xmlns:xlink="http://www.w3.org/1999/xlink">
<g transform="scale(1, -1) translate(0, -1080)">
<path d="M0,0L1296,0L1296,1080L0,1080Z" style="fill-opacity:0" />
<text x="282.28" y="-1047.6" transform="scale(1, -1)"
	style="font-family:Liberation Sans;font-variant:normal;font-weight:normal;font-style:normal;font-size:40px">1 cm UHNA3 Phase-Matching Bandwidth</text>
<text x="463.83" y="-10.732" transform="scale(1, -1)"
	style="font-family:Liberation Sans;font-variant:normal;font-weight:normal;font-style:normal;font-size:35px">Pump-Probe Separation (GHz)</text>
<text x="85.197" y="-63.857" transform="scale(1, -1)"
	style="font-family:Liberation Serif;font-variant:normal;font-weight:normal;font-style:normal;font-size:30px">0.00</text>
<text x="356.12" y="-63.857" transform="scale(1, -1)"
	style="font-family:Liberation Serif;font-variant:normal;font-weight:normal;font-style:normal;font-size:30px">10.00</text>
<text x="634.55" y="-63.857" transform="scale(1, -1)"
	style="font-family:Liberation Serif;font-variant:normal;font-weight:normal;font-style:normal;font-size:30px">20.00</text>
<text x="912.97" y="-63.857" transform="scale(1, -1)"
	style="font-family:Liberation Serif;font-variant:normal;font-weight:normal;font-style:normal;font-size:30px">30.00</text>
<text x="1191.4" y="-63.857" transform="scale(1, -1)"
	style="font-family:Liberation Serif;font-variant:normal;font-weight:normal;font-style:normal;font-size:30px">40.00</text>
<path d="M111.45,87.324L1294.8,87.324" style="fill:none;stroke:#000000;stroke-width:2.5" />
<g transform="rotate(90)">
<text x="308.35" y="28.369" transform="scale(1, -1)"
	style="font-family:Liberation Sans;font-variant:normal;font-weight:normal;font-style:normal;font-size:35px">Peak Spectral Density (relative)</text>
</g>
<text x="61.519" y="-80.266" transform="scale(1, -1)"
	style="font-family:Liberation Sans;font-variant:normal;font-weight:normal;font-style:normal;font-size:30px">0.0</text>
<text x="61.519" y="-249.58" transform="scale(1, -1)"
	style="font-family:Liberation Sans;font-variant:normal;font-weight:normal;font-style:normal;font-size:30px">0.2</text>
<text x="61.519" y="-418.9" transform="scale(1, -1)"
	style="font-family:Liberation Sans;font-variant:normal;font-weight:normal;font-style:normal;font-size:30px">0.4</text>
<text x="61.519" y="-588.21" transform="scale(1, -1)"
	style="font-family:Liberation Sans;font-variant:normal;font-weight:normal;font-style:normal;font-size:30px">0.6</text>
<text x="61.519" y="-757.53" transform="scale(1, -1)"
	style="font-family:Liberation Sans;font-variant:normal;font-weight:normal;font-style:normal;font-size:30px">0.8</text>
<text x="61.519" y="-926.85" transform="scale(1, -1)"
	style="font-family:Liberation Sans;font-variant:normal;font-weight:normal;font-style:normal;font-size:30px">1.0</text>
<path d="M111.56,87.824L111.56,1019.1" style="fill:none;stroke:#000000;stroke-width:2.5" />
<path d="M111.45,87.824L111.45,97.824" style="fill:none;stroke:#000000;stroke-width:2.5" />
<text x="81.891" y="-53.424" transform="scale(1, -1)"
	style="font-family:Liberation Sans;font-variant:normal;font-weight:normal;font-style:normal;font-size:30px">0.00</text>
<path d="M167.13,87.824L167.13,92.824" style="fill:none;stroke:#000000;stroke-width:2.5" />
<path d="M222.82,87.824L222.82,92.824" style="fill:none;stroke:#000000;stroke-width:2.5" />
<path d="M278.5,87.824L278.5,92.824" style="fill:none;stroke:#000000;stroke-width:2.5" />
<path d="M334.19,87.824L334.19,92.824" style="fill:none;stroke:#000000;stroke-width:2.5" />
<path d="M389.87,87.824L389.87,97.824" style="fill:none;stroke:#000000;stroke-width:2.5" />
<text x="368.66" y="-53.424" transform="scale(1, -1)"
	style="font-family:Liberation Sans;font-variant:normal;font-weight:normal;font-style:normal;font-size:30px">10.00</text>
<path d="M445.56,87.824L445.56,92.824" style="fill:none;stroke:#000000;stroke-width:2.5" />
<path d="M501.24,87.824L501.24,92.824" style="fill:none;stroke:#000000;stroke-width:2.5" />
<path d="M556.93,87.824L556.93,92.824" style="fill:none;stroke:#000000;stroke-width:2.5" />
<path d="M612.61,87.824L612.61,92.824" style="fill:none;stroke:#000000;stroke-width:2.5" />
<path d="M668.3,87.824L668.3,97.824" style="fill:none;stroke:#000000;stroke-width:2.5" />
<text x="647.08" y="-53.424" transform="scale(1, -1)"
	style="font-family:Liberation Sans;font-variant:normal;font-weight:normal;font-style:normal;font-size:30px">20.00</text>
<path d="M723.98,87.824L723.98,92.824" style="fill:none;stroke:#000000;stroke-width:2.5" />
<path d="M779.67,87.824L779.67,92.824" style="fill:none;stroke:#000000;stroke-width:2.5" />
<path d="M835.35,87.824L835.35,92.824" style="fill:none;stroke:#000000;stroke-width:2.5" />
<path d="M891.03,87.824L891.03,92.824" style="fill:none;stroke:#000000;stroke-width:2.5" />
<path d="M946.72,87.824L946.72,97.824" style="fill:none;stroke:#000000;stroke-width:2.5" />
<text x="925.51" y="-53.424" transform="scale(1, -1)"
	style="font-family:Liberation Sans;font-variant:normal;font-weight:normal;font-style:normal;font-size:30px">30.00</text>
<path d="M1002.4,87.824L1002.4,92.824" style="fill:none;stroke:#000000;stroke-width:2.5" />
<path d="M1058.1,87.824L1058.1,92.824" style="fill:none;stroke:#000000;stroke-width:2.5" />
<path d="M1113.8,87.824L1113.8,92.824" style="fill:none;stroke:#000000;stroke-width:2.5" />
<path d="M1169.5,87.824L1169.5,92.824" style="fill:none;stroke:#000000;stroke-width:2.5" />
<path d="M1225.1,87.824L1225.1,97.824" style="fill:none;stroke:#000000;stroke-width:2.5" />
<text x="1203.9" y="-53.424" transform="scale(1, -1)"
	style="font-family:Liberation Sans;font-variant:normal;font-weight:normal;font-style:normal;font-size:30px">40.00</text>
<path d="M111.45,87.824L121.45,87.824" style="fill:none;stroke:#000000;stroke-width:2.5" />
<text x="51.299" y="-79.424" transform="scale(1, -1)"
	style="font-family:Liberation Sans;font-variant:normal;font-weight:normal;font-style:normal;font-size:30px">0.0</text>
<path d="M111.45,116.04L116.45,116.04" style="fill:none;stroke:#000000;stroke-width:2.5" />
<path d="M111.45,144.26L116.45,144.26" style="fill:none;stroke:#000000;stroke-width:2.5" />
<path d="M111.45,172.48L116.45,172.48" style="fill:none;stroke:#000000;stroke-width:2.5" />
<path d="M111.45,200.7L116.45,200.7" style="fill:none;stroke:#000000;stroke-width:2.5" />
<path d="M111.45,228.92L116.45,228.92" style="fill:none;stroke:#000000;stroke-width:2.5" />
<path d="M111.45,257.14L121.45,257.14" style="fill:none;stroke:#000000;stroke-width:2.5" />
<text x="51.299" y="-248.74" transform="scale(1, -1)"
	style="font-family:Liberation Sans;font-variant:normal;font-weight:normal;font-style:normal;font-size:30px">0.2</text>
<path d="M111.45,285.36L116.45,285.36" style="fill:none;stroke:#000000;stroke-width:2.5" />
<path d="M111.45,313.58L116.45,313.58" style="fill:none;stroke:#000000;stroke-width:2.5" />
<path d="M111.45,341.8L116.45,341.8" style="fill:none;stroke:#000000;stroke-width:2.5" />
<path d="M111.45,370.02L116.45,370.02" style="fill:none;stroke:#000000;stroke-width:2.5" />
<path d="M111.45,398.24L116.45,398.24" style="fill:none;stroke:#000000;stroke-width:2.5" />
<path d="M111.45,426.46L121.45,426.46" style="fill:none;stroke:#000000;stroke-width:2.5" />
<text x="51.299" y="-418.06" transform="scale(1, -1)"
	style="font-family:Liberation Sans;font-variant:normal;font-weight:normal;font-style:normal;font-size:30px">0.4</text>
<path d="M111.45,454.68L116.45,454.68" style="fill:none;stroke:#000000;stroke-width:2.5" />
<path d="M111.45,482.9L116.45,482.9" style="fill:none;stroke:#000000;stroke-width:2.5" />
<path d="M111.45,511.11L116.45,511.11" style="fill:none;stroke:#000000;stroke-width:2.5" />
<path d="M111.45,539.33L116.45,539.33" style="fill:none;stroke:#000000;stroke-width:2.5" />
<path d="M111.45,567.55L116.45,567.55" style="fill:none;stroke:#000000;stroke-width:2.5" />
<path d="M111.45,595.77L121.45,595.77" style="fill:none;stroke:#000000;stroke-width:2.5" />
<text x="51.299" y="-587.37" transform="scale(1, -1)"
	style="font-family:Liberation Sans;font-variant:normal;font-weight:normal;font-style:normal;font-size:30px">0.6</text>
<path d="M111.45,623.99L116.45,623.99" style="fill:none;stroke:#000000;stroke-width:2.5" />
<path d="M111.45,652.21L116.45,652.21" style="fill:none;stroke:#000000;stroke-width:2.5" />
<path d="M111.45,680.43L116.45,680.43" style="fill:none;stroke:#000000;stroke-width:2.5" />
<path d="M111.45,708.65L116.45,708.65" style="fill:none;stroke:#000000;stroke-width:2.5" />
<path d="M111.45,736.87L116.45,736.87" style="fill:none;stroke:#000000;stroke-width:2.5" />
<path d="M111.45,765.09L121.45,765.09" style="fill:none;stroke:#000000;stroke-width:2.5" />
<text x="51.299" y="-756.69" transform="scale(1, -1)"
	style="font-family:Liberation Sans;font-variant:normal;font-weight:normal;font-style:normal;font-size:30px">0.8</text>
<path d="M111.45,793.31L116.45,793.31" style="fill:none;stroke:#000000;stroke-width:2.5" />
<path d="M111.45,821.53L116.45,821.53" style="fill:none;stroke:#000000;stroke-width:2.5" />
<path d="M111.45,849.75L116.45,849.75" style="fill:none;stroke:#000000;stroke-width:2.5" />
<path d="M111.45,877.97L116.45,877.97" style="fill:none;stroke:#000000;stroke-width:2.5" />
<path d="M111.45,906.19L116.45,906.19" style="fill:none;stroke:#000000;stroke-width:2.5" />
<path d="M111.45,934.4L121.45,934.4" style="fill:none;stroke:#000000;stroke-width:2.5" />
<text x="51.299" y="-926" transform="scale(1, -1)"
	style="font-family:Liberation Sans;font-variant:normal;font-weight:normal;font-style:normal;font-size:30px">1.0</text>
<path d="M297.06,905.41L298.09,890.31L299.13,875.35L300.16,860.53L301.19,845.86L302.22,831.32L303.25,816.94L304.28,802.69L305.31,788.6L306.34,774.65L307.37,760.85L308.41,747.2L309.44,733.7L310.47,720.35L311.5,707.16L312.53,694.11L313.56,681.22L314.59,668.49L315.62,655.91L316.66,643.48L317.69,631.22L318.72,619.11L319.75,607.15L320.78,595.36L321.81,583.72L322.84,572.24L323.87,560.92L324.91,549.76L325.94,538.76L326.97,527.92L328,517.24L329.03,506.73L330.06,496.37L331.09,486.17L332.12,476.13L333.16,466.25L334.19,456.54L335.22,446.98L336.25,437.58L337.28,428.35L338.31,419.27L339.34,410.36L340.37,401.6L341.4,393.01L342.44,384.57L343.47,376.29L344.5,368.17L345.53,360.21L346.56,352.41L347.59,344.76L348.62,337.27L349.65,329.94L350.69,322.76L351.72,315.73L352.75,308.86L353.78,302.15L354.81,295.58L355.84,289.17L356.87,282.91L357.9,276.8L358.94,270.85L359.97,265.03L361,259.37L362.03,253.86L363.06,248.49L364.09,243.26L365.12,238.18L366.15,233.25L367.18,228.45L368.22,223.8L369.25,219.29L370.28,214.91L371.31,210.68L372.34,206.58L373.37,202.61L374.4,198.78L375.43,195.09L376.47,191.52L377.5,188.09L378.53,184.78L379.56,181.61L380.59,178.56L381.62,175.63L382.65,172.83L383.68,170.15L384.72,167.59L385.75,165.15L386.78,162.83L387.81,160.63L388.84,158.54L389.87,156.57L390.9,154.71L391.93,152.96L392.96,151.32L394,149.78L395.03,148.36L396.06,147.03L397.09,145.81L398.12,144.7L399.15,143.68L400.18,142.76L401.21,141.94L402.25,141.21L403.28,140.58L404.31,140.03L405.34,139.58L406.37,139.22L407.4,138.94L408.43,138.75L409.46,138.65L410.5,138.62L411.53,138.68L412.56,138.81L413.59,139.02L414.62,139.31L415.65,139.67L416.68,140.1L417.71,140.6L418.74,141.17L419.78,141.81L420.81,142.51L421.84,143.28L422.87,144.1L423.9,144.99L424.93,145.94L425.96,146.94L426.99,148L428.03,149.11L429.06,150.28L430.09,151.49L431.12,152.76L432.15,154.06L433.18,155.42L434.21,156.82L435.24,158.26L436.28,159.74L437.31,161.26L438.34,162.82L439.37,164.41L440.4,166.04L441.43,167.7L442.46,169.39L443.49,171.11L444.52,172.86L445.56,174.63L446.59,176.43L447.62,178.25L448.65,180.1L449.68,181.96L450.71,183.85L451.74,185.75L452.77,187.66L453.81,189.6L454.84,191.54L455.87,193.5L456.9,195.47L457.93,197.44L458.96,199.43L459.99,201.42L461.02,203.41L462.06,205.41L463.09,207.41L464.12,209.42L465.15,211.42L466.18,213.42L467.21,215.42L468.24,217.41L469.27,219.41L470.3,221.39L471.34,223.37L472.37,225.34L473.4,227.3L474.43,229.25L475.46,231.19L476.49,233.11L477.52,235.02L478.55,236.92L479.59,238.8L480.62,240.67L481.65,242.52L482.68,244.35L483.71,246.16L484.74,247.95L485.77,249.72L486.8,251.46L487.84,253.19L488.87,254.89L489.9,256.56L490.93,258.22L491.96,259.84L492.99,261.44L494.02,263.01L495.05,264.56L496.08,266.07L497.12,267.56L498.15,269.02L499.18,270.44L500.21,271.84L501.24,273.2L502.27,274.54L503.3,275.84L504.33,277.1L505.37,278.34L506.4,279.53L507.43,280.7L508.46,281.83L509.49,282.92L510.52,283.98L511.55,285.01L512.58,286L513.62,286.95L514.65,287.86L515.68,288.74L516.71,289.58L517.74,290.38L518.77,291.15L519.8,291.87L520.83,292.56L521.86,293.22L522.9,293.83L523.93,294.4L524.96,294.94L525.99,295.44L527.02,295.9L528.05,296.32L529.08,296.7L530.11,297.04L531.15,297.35L532.18,297.62L533.21,297.85L534.24,298.04L535.27,298.19L536.3,298.3L537.33,298.38L538.36,298.42L539.4,298.42L540.43,298.38L541.46,298.31L542.49,298.19L543.52,298.05L544.55,297.86L545.58,297.64L546.61,297.38L547.64,297.09L548.68,296.76L549.71,296.4L550.74,296L551.77,295.57L552.8,295.1L553.83,294.6L554.86,294.07L555.89,293.5L556.93,292.9L557.96,292.27L558.99,291.6L560.02,290.91L561.05,290.18L562.08,289.43L563.11,288.64L564.14,287.83L565.18,286.98L566.21,286.11L567.24,285.21L568.27,284.28L569.3,283.32L570.33,282.34L571.36,281.33L572.39,280.3L573.42,279.24L574.46,278.16L575.49,277.06L576.52,275.93L577.55,274.78L578.58,273.6L579.61,272.41L580.64,271.19L581.67,269.96L582.71,268.7L583.74,267.43L584.77,266.14L585.8,264.83L586.83,263.5L587.86,262.16L588.89,260.8L589.92,259.43L590.96,258.04L591.99,256.64L593.02,255.22L594.05,253.79L595.08,252.35L596.11,250.9L597.14,249.44L598.17,247.97L599.2,246.48L600.24,244.99L601.27,243.49L602.3,241.99L603.33,240.47L604.36,238.95L605.39,237.43L606.42,235.9L607.45,234.36L608.49,232.83L609.52,231.28L610.55,229.74L611.58,228.19L612.61,226.65L613.64,225.1L614.67,223.55L615.7,222L616.74,220.45L617.77,218.91L618.8,217.37L619.83,215.83L620.86,214.29L621.89,212.76L622.92,211.23L623.95,209.71L624.98,208.19L626.02,206.68L627.05,205.17L628.08,203.68L629.11,202.19L630.14,200.71L631.17,199.24L632.2,197.77L633.23,196.32L634.27,194.88L635.3,193.45L636.33,192.03L637.36,190.62L638.39,189.22L639.42,187.84L640.45,186.47L641.48,185.11L642.52,183.76L643.55,182.44L644.58,181.12L645.61,179.82L646.64,178.54L647.67,177.27L648.7,176.02L649.73,174.79L650.76,173.57L651.8,172.37L652.83,171.18L653.86,170.02L654.89,168.87L655.92,167.75L656.95,166.64L657.98,165.55L659.01,164.48L660.05,163.43L661.08,162.39L662.11,161.38L663.14,160.39L664.17,159.42L665.2,158.47L666.23,157.55L667.26,156.64L668.3,155.75L669.33,154.89L670.36,154.05L671.39,153.23L672.42,152.43L673.45,151.65L674.48,150.9L675.51,150.17L676.54,149.46L677.58,148.77L678.61,148.11L679.64,147.47L680.67,146.85L681.7,146.25L682.73,145.68L683.76,145.13L684.79,144.6L685.83,144.09L686.86,143.61L687.89,143.15L688.92,142.71L689.95,142.3L690.98,141.91L692.01,141.54L693.04,141.19L694.08,140.87L695.11,140.57L696.14,140.29L697.17,140.03L698.2,139.79L699.23,139.58L700.26,139.39L701.29,139.22L702.32,139.07L703.36,138.94L704.39,138.84L705.42,138.75L706.45,138.69L707.48,138.65L708.51,138.62L709.54,138.62L710.57,138.64L711.61,138.68L712.64,138.73L713.67,138.81L714.7,138.91L715.73,139.02L716.76,139.15L717.79,139.3L718.82,139.47L719.86,139.66L720.89,139.87L721.92,140.09L722.95,140.33L723.98,140.59L725.01,140.86L726.04,141.15L727.07,141.46L728.11,141.78L729.14,142.11L730.17,142.46L731.2,142.83L732.23,143.21L733.26,143.6L734.29,144.01L735.32,144.43L736.35,144.86L737.39,145.31L738.42,145.77L739.45,146.24L740.48,146.72L741.51,147.21L742.54,147.72L743.57,148.23L744.6,148.75L745.64,149.29L746.67,149.83L747.7,150.38L748.73,150.94L749.76,151.51L750.79,152.09L751.82,152.67L752.85,153.26L753.89,153.86L754.92,154.47L755.95,155.08L756.98,155.69L758.01,156.31L759.04,156.94L760.07,157.57L761.1,158.21L762.13,158.84L763.17,159.48L764.2,160.13L765.23,160.78L766.26,161.43L767.29,162.08L768.32,162.73L769.35,163.38L770.38,164.04L771.42,164.69L772.45,165.35L773.48,166L774.51,166.66L775.54,167.31L776.57,167.96L777.6,168.61L778.63,169.26L779.67,169.91L780.7,170.55L781.73,171.19L782.76,171.83L783.79,172.46L784.82,173.09L785.85,173.71L786.88,174.33L787.91,174.95L788.95,175.56L789.98,176.16L791.01,176.76L792.04,177.35L793.07,177.94L794.1,178.52L795.13,179.09L796.16,179.66L797.2,180.21L798.23,180.76L799.26,181.31L800.29,181.84L801.32,182.36L802.35,182.88L803.38,183.39L804.41,183.89L805.45,184.37L806.48,184.85L807.51,185.32L808.54,185.78L809.57,186.23L810.6,186.67L811.63,187.1L812.66,187.51L813.69,187.92L814.73,188.32L815.76,188.7L816.79,189.07L817.82,189.43L818.85,189.78L819.88,190.12L820.91,190.44L821.94,190.76L822.98,191.06L824.01,191.35L825.04,191.62L826.07,191.89L827.1,192.14L828.13,192.37L829.16,192.6L830.19,192.81L831.23,193.01L832.26,193.2L833.29,193.37L834.32,193.53L835.35,193.68L836.38,193.81L837.41,193.93L838.44,194.04L839.47,194.13L840.51,194.22L841.54,194.28L842.57,194.34L843.6,194.38L844.63,194.41L845.66,194.42L846.69,194.42L847.72,194.41L848.76,194.39L849.79,194.35L850.82,194.3L851.85,194.24L852.88,194.16L853.91,194.07L854.94,193.97L855.97,193.86L857.01,193.73L858.04,193.59L859.07,193.44L860.1,193.28L861.13,193.1L862.16,192.92L863.19,192.72L864.22,192.51L865.25,192.28L866.29,192.05L867.32,191.8L868.35,191.55L869.38,191.28L870.41,191L871.44,190.71L872.47,190.41L873.5,190.1L874.54,189.78L875.57,189.45L876.6,189.1L877.63,188.75L878.66,188.39L879.69,188.02L880.72,187.65L881.75,187.26L882.79,186.86L883.82,186.46L884.85,186.04L885.88,185.62L886.91,185.19L887.94,184.75L888.97,184.31L890,183.85L891.03,183.39L892.07,182.93L893.1,182.45L894.13,181.98L895.16,181.49L896.19,181L897.22,180.5L898.25,180L899.28,179.49L900.32,178.97L901.35,178.46L902.38,177.93L903.41,177.41L904.44,176.87L905.47,176.34L906.5,175.8L907.53,175.26L908.57,174.71L909.6,174.16L910.63,173.61L911.66,173.06L912.69,172.5L913.72,171.94L914.75,171.38L915.78,170.82L916.81,170.26L917.85,169.7L918.88,169.13L919.91,168.57L920.94,168.01L921.97,167.44L923,166.88L924.03,166.31L925.06,165.75L926.1,165.19L927.13,164.62L928.16,164.06L929.19,163.51L930.22,162.95L931.25,162.39L932.28,161.84L933.31,161.29L934.35,160.74L935.38,160.2L936.41,159.66L937.44,159.12L938.47,158.59L939.5,158.06L940.53,157.53L941.56,157.01L942.59,156.49L943.63,155.97L944.66,155.47L945.69,154.96L946.72,154.46L947.75,153.97L948.78,153.48L949.81,153L950.84,152.52L951.88,152.05L952.91,151.59L953.94,151.13L954.97,150.67L956,150.23L957.03,149.79L958.06,149.36L959.09,148.93L960.13,148.52L961.16,148.11L962.19,147.7L963.22,147.31L964.25,146.92L965.28,146.54L966.31,146.17L967.34,145.81L968.37,145.45L969.41,145.1L970.44,144.77L971.47,144.44L972.5,144.11L973.53,143.8L974.56,143.5L975.59,143.2L976.62,142.91L977.66,142.64L978.69,142.37L979.72,142.11L980.75,141.86L981.78,141.62L982.81,141.38L983.84,141.16L984.87,140.95L985.91,140.74L986.94,140.55L987.97,140.36L989,140.19L990.03,140.02L991.06,139.86L992.09,139.71L993.12,139.58L994.15,139.45L995.19,139.33L996.22,139.22L997.25,139.12L998.28,139.02L999.31,138.94L1000.3,138.87L1001.4,138.81L1002.4,138.75L1003.4,138.71L1004.5,138.67L1005.5,138.65L1006.5,138.63L1007.6,138.62L1008.6,138.62L1009.6,138.63L1010.7,138.65L1011.7,138.68L1012.7,138.71L1013.7,138.76L1014.8,138.81L1015.8,138.87L1016.8,138.94L1017.9,139.02L1018.9,139.11L1019.9,139.2L1021,139.3L1022,139.41L1023,139.53L1024.1,139.66L1025.1,139.79L1026.1,139.93L1027.2,140.08L1028.2,140.24L1029.2,140.4L1030.2,140.57L1031.3,140.74L1032.3,140.93L1033.3,141.12L1034.4,141.31L1035.4,141.52L1036.4,141.72L1037.5,141.94L1038.5,142.16L1039.5,142.38L1040.6,142.62L1041.6,142.85L1042.6,143.1L1043.7,143.34L1044.7,143.6L1045.7,143.85L1046.7,144.11L1047.8,144.38L1048.8,144.65L1049.8,144.93L1050.9,145.21L1051.9,145.49L1052.9,145.77L1054,146.06L1055,146.36L1056,146.65L1057.1,146.95L1058.1,147.25L1059.1,147.56L1060.2,147.87L1061.2,148.18L1062.2,148.49L1063.2,148.8L1064.3,149.12L1065.3,149.43L1066.3,149.75L1067.4,150.07L1068.4,150.39L1069.4,150.71L1070.5,151.03L1071.5,151.36L1072.5,151.68L1073.6,152L1074.6,152.33L1075.6,152.65L1076.7,152.97L1077.7,153.3L1078.7,153.62L1079.7,153.94L1080.8,154.26L1081.8,154.58L1082.8,154.9L1083.9,155.21L1084.9,155.53L1085.9,155.84L1087,156.15L1088,156.46L1089,156.77L1090.1,157.08L1091.1,157.38L1092.1,157.68L1093.2,157.98L1094.2,158.27L1095.2,158.56L1096.2,158.85L1097.3,159.13L1098.3,159.42L1099.3,159.69L1100.4,159.97L1101.4,160.24L1102.4,160.5L1103.5,160.77L1104.5,161.02L1105.5,161.28L1106.6,161.53L1107.6,161.77L1108.6,162.01L1109.6,162.25L1110.7,162.48L1111.7,162.7L1112.7,162.92L1113.8,163.14L1114.8,163.34L1115.8,163.55L1116.9,163.75L1117.9,163.94L1118.9,164.13L1120,164.31L1121,164.49L1122,164.66L1123.1,164.82L1124.1,164.98L1125.1,165.13L1126.1,165.28L1127.2,165.42L1128.2,165.55L1129.2,165.68L1130.3,165.8L1131.3,165.91L1132.3,166.02L1133.4,166.12L1134.4,166.22L1135.4,166.31L1136.5,166.39L1137.5,166.47L1138.5,166.54L1139.6,166.6L1140.6,166.65L1141.6,166.7L1142.6,166.75L1143.7,166.78L1144.7,166.81L1145.7,166.83L1146.8,166.85L1147.8,166.86L1148.8,166.86L1149.9,166.86L1150.9,166.85L1151.9,166.83L1153,166.81L1154,166.78L1155,166.74L1156.1,166.7L1157.1,166.65L1158.1,166.59L1159.1,166.53L1160.2,166.46L1161.2,166.38L1162.2,166.3L1163.3,166.21L1164.3,166.12L1165.3,166.02L1166.4,165.91L1167.4,165.8L1168.4,165.68L1169.5,165.56L1170.5,165.43L1171.5,165.29L1172.6,165.15L1173.6,165.01L1174.6,164.85L1175.6,164.7L1176.7,164.53L1177.7,164.37L1178.7,164.19L1179.8,164.01L1180.8,163.83L1181.8,163.64L1182.9,163.45L1183.9,163.25L1184.9,163.05L1186,162.84L1187,162.63L1188,162.42L1189.1,162.2L1190.1,161.97L1191.1,161.75L1192.1,161.52L1193.2,161.28L1194.2,161.04L1195.2,160.8L1196.3,160.55L1197.3,160.3L1198.3,160.05L1199.4,159.8L1200.4,159.54L1201.4,159.28L1202.5,159.01L1203.5,158.75L1204.5,158.48L1205.6,158.21L1206.6,157.93L1207.6,157.66L1208.6,157.38L1209.7,157.1L1210.7,156.82L1211.7,156.54L1212.8,156.26L1213.8,155.97L1214.8,155.68L1215.9,155.4L1216.9,155.11L1217.9,154.82L1219,154.53L1220,154.24L1221,153.95L1222.1,153.66L1223.1,153.37L1224.1,153.07L1225.1,152.78L1226.2,152.49L1227.2,152.2L1228.2,151.91L1229.3,151.62L1230.3,151.33L1231.3,151.04L1232.4,150.76L1233.4,150.47L1234.4,150.19L1235.5,149.9L1236.5,149.62L1237.5,149.34L1238.5,149.06L1239.6,148.78L1240.6,148.51L1241.6,148.23L1242.7,147.96L1243.7,147.69L1244.7,147.43L1245.8,147.16L1246.8,146.9L1247.8,146.64L1248.9,146.38L1249.9,146.13L1250.9,145.88L1252,145.63L1253,145.39L1254,145.15L1255,144.91L1256.1,144.67L1257.1,144.44L1258.1,144.21L1259.2,143.99L1260.2,143.77L1261.2,143.55L1262.3,143.34L1263.3,143.13L1264.3,142.93L1265.4,142.73L1266.4,142.53L1267.4,142.34L1268.5,142.15L1269.5,141.97L1270.5,141.79L1271.5,141.61L1272.6,141.44L1273.6,141.28L1274.6,141.12L1275.7,140.96L1276.7,140.81L1277.7,140.67L1278.8,140.52L1279.8,140.39L1280.8,140.26" style="fill:none;stroke:#FF4E60;stroke-width:16" />
<path d="M262.66,895.8A12,12 0 1 1 238.66,895.8A12,12 0 1 1 262.66,895.8Z" style="fill:#1FD3AC" />
<path d="M276.58,751.35A12,12 0 1 1 252.58,751.35A12,12 0 1 1 276.58,751.35Z" style="fill:#1FD3AC" />
<path d="M290.5,681.67A12,12 0 1 1 266.5,681.67A12,12 0 1 1 290.5,681.67Z" style="fill:#1FD3AC" />
<path d="M304.42,644.44A12,12 0 1 1 280.42,644.44A12,12 0 1 1 304.42,644.44Z" style="fill:#1FD3AC" />
<path d="M318.34,560.13A12,12 0 1 1 294.34,560.13A12,12 0 1 1 318.34,560.13Z" style="fill:#1FD3AC" />
<path d="M332.26,483.35A12,12 0 1 1 308.26,483.35A12,12 0 1 1 332.26,483.35Z" style="fill:#1FD3AC" />
<path d="M346.19,436.22A12,12 0 1 1 322.19,436.22A12,12 0 1 1 346.19,436.22Z" style="fill:#1FD3AC" />
<path d="M360.11,380.46A12,12 0 1 1 336.11,380.46A12,12 0 1 1 360.11,380.46Z" style="fill:#1FD3AC" />
<path d="M374.03,331.58A12,12 0 1 1 350.03,331.58A12,12 0 1 1 374.03,331.58Z" style="fill:#1FD3AC" />
<path d="M387.95,260.62A12,12 0 1 1 363.95,260.62A12,12 0 1 1 387.95,260.62Z" style="fill:#1FD3AC" />
<path d="M401.87,204.98A12,12 0 1 1 377.87,204.98A12,12 0 1 1 401.87,204.98Z" style="fill:#1FD3AC" />
<path d="M415.79,181.16A12,12 0 1 1 391.79,181.16A12,12 0 1 1 415.79,181.16Z" style="fill:#1FD3AC" />
<path d="M429.71,154.73A12,12 0 1 1 405.71,154.73A12,12 0 1 1 429.71,154.73Z" style="fill:#1FD3AC" />
<path d="M443.63,151.1A12,12 0 1 1 419.63,151.1A12,12 0 1 1 443.63,151.1Z" style="fill:#1FD3AC" />
<path d="M457.56,194.12A12,12 0 1 1 433.56,194.12A12,12 0 1 1 457.56,194.12Z" style="fill:#1FD3AC" />
<path d="M471.48,216.67A12,12 0 1 1 447.48,216.67A12,12 0 1 1 471.48,216.67Z" style="fill:#1FD3AC" />
<path d="M485.4,235.05A12,12 0 1 1 461.4,235.05A12,12 0 1 1 485.4,235.05Z" style="fill:#1FD3AC" />
<path d="M499.32,261.24A12,12 0 1 1 475.32,261.24A12,12 0 1 1 499.32,261.24Z" style="fill:#1FD3AC" />
<path d="M513.24,275.01A12,12 0 1 1 489.24,275.01A12,12 0 1 1 513.24,275.01Z" style="fill:#1FD3AC" />
<path d="M527.16,282.79A12,12 0 1 1 503.16,282.79A12,12 0 1 1 527.16,282.79Z" style="fill:#1FD3AC" />
<path d="M541.08,277.05A12,12 0 1 1 517.08,277.05A12,12 0 1 1 541.08,277.05Z" style="fill:#1FD3AC" />
<path d="M555,276.53A12,12 0 1 1 531,276.53A12,12 0 1 1 555,276.53Z" style="fill:#1FD3AC" />
<path d="M568.93,281.94A12,12 0 1 1 544.93,281.94A12,12 0 1 1 568.93,281.94Z" style="fill:#1FD3AC" />
<path d="M582.85,273.73A12,12 0 1 1 558.85,273.73A12,12 0 1 1 582.85,273.73Z" style="fill:#1FD3AC" />
<path d="M596.77,266.32A12,12 0 1 1 572.77,266.32A12,12 0 1 1 596.77,266.32Z" style="fill:#1FD3AC" />
<path d="M610.69,252.04A12,12 0 1 1 586.69,252.04A12,12 0 1 1 610.69,252.04Z" style="fill:#1FD3AC" />
<path d="M624.61,237.05A12,12 0 1 1 600.61,237.05A12,12 0 1 1 624.61,237.05Z" style="fill:#1FD3AC" />
<path d="M638.53,220.73A12,12 0 1 1 614.53,220.73A12,12 0 1 1 638.53,220.73Z" style="fill:#1FD3AC" />
<path d="M652.45,204.62A12,12 0 1 1 628.45,204.62A12,12 0 1 1 652.45,204.62Z" style="fill:#1FD3AC" />
<path d="M666.37,188.46A12,12 0 1 1 642.37,188.46A12,12 0 1 1 666.37,188.46Z" style="fill:#1FD3AC" />
<path d="M680.3,163.79A12,12 0 1 1 656.3,163.79A12,12 0 1 1 680.3,163.79Z" style="fill:#1FD3AC" />
<path d="M694.22,146.89A12,12 0 1 1 670.22,146.89A12,12 0 1 1 694.22,146.89Z" style="fill:#1FD3AC" />
<path d="M708.14,132.71A12,12 0 1 1 684.14,132.71A12,12 0 1 1 708.14,132.71Z" style="fill:#1FD3AC" />
<path d="M722.06,121.27A12,12 0 1 1 698.06,121.27A12,12 0 1 1 722.06,121.27Z" style="fill:#1FD3AC" />
<path d="M735.98,124.98A12,12 0 1 1 711.98,124.98A12,12 0 1 1 735.98,124.98Z" style="fill:#1FD3AC" />
<path d="M749.9,131.52A12,12 0 1 1 725.9,131.52A12,12 0 1 1 749.9,131.52Z" style="fill:#1FD3AC" />
<path d="M763.82,133.88A12,12 0 1 1 739.82,133.88A12,12 0 1 1 763.82,133.88Z" style="fill:#1FD3AC" />
<path d="M777.74,143.84A12,12 0 1 1 753.74,143.84A12,12 0 1 1 777.74,143.84Z" style="fill:#1FD3AC" />
<path d="M791.67,158.36A12,12 0 1 1 767.67,158.36A12,12 0 1 1 791.67,158.36Z" style="fill:#1FD3AC" />
<path d="M805.59,163.41A12,12 0 1 1 781.59,163.41A12,12 0 1 1 805.59,163.41Z" style="fill:#1FD3AC" />
<path d="M819.51,173.49A12,12 0 1 1 795.51,173.49A12,12 0 1 1 819.51,173.49Z" style="fill:#1FD3AC" />
<path d="M833.43,177.49A12,12 0 1 1 809.43,177.49A12,12 0 1 1 833.43,177.49Z" style="fill:#1FD3AC" />
<path d="M847.35,183.52A12,12 0 1 1 823.35,183.52A12,12 0 1 1 847.35,183.52Z" style="fill:#1FD3AC" />
<path d="M861.27,183.79A12,12 0 1 1 837.27,183.79A12,12 0 1 1 861.27,183.79Z" style="fill:#1FD3AC" />
<path d="M875.19,182.08A12,12 0 1 1 851.19,182.08A12,12 0 1 1 875.19,182.08Z" style="fill:#1FD3AC" />
<path d="M889.11,180.32A12,12 0 1 1 865.11,180.32A12,12 0 1 1 889.11,180.32Z" style="fill:#1FD3AC" />
<path d="M903.03,175.96A12,12 0 1 1 879.03,175.96A12,12 0 1 1 903.03,175.96Z" style="fill:#1FD3AC" />
<path d="M916.96,170.13A12,12 0 1 1 892.96,170.13A12,12 0 1 1 916.96,170.13Z" style="fill:#1FD3AC" />
<path d="M930.88,169.49A12,12 0 1 1 906.88,169.49A12,12 0 1 1 930.88,169.49Z" style="fill:#1FD3AC" />
<path d="M944.8,161.15A12,12 0 1 1 920.8,161.15A12,12 0 1 1 944.8,161.15Z" style="fill:#1FD3AC" />
<path d="M958.72,152.88A12,12 0 1 1 934.72,152.88A12,12 0 1 1 958.72,152.88Z" style="fill:#1FD3AC" />
<path d="M972.64,143.96A12,12 0 1 1 948.64,143.96A12,12 0 1 1 972.64,143.96Z" style="fill:#1FD3AC" />
<path d="M986.56,134.47A12,12 0 1 1 962.56,134.47A12,12 0 1 1 986.56,134.47Z" style="fill:#1FD3AC" />
<path d="M1000.5,123.85A12,12 0 1 1 976.48,123.85A12,12 0 1 1 1000.5,123.85Z" style="fill:#1FD3AC" />
<path d="M1014.4,114.98A12,12 0 1 1 990.4,114.98A12,12 0 1 1 1014.4,114.98Z" style="fill:#1FD3AC" />
<path d="M1028.3,110.86A12,12 0 1 1 1004.3,110.86A12,12 0 1 1 1028.3,110.86Z" style="fill:#1FD3AC" />
<path d="M1042.2,112.2A12,12 0 1 1 1018.2,112.2A12,12 0 1 1 1042.2,112.2Z" style="fill:#1FD3AC" />
<path d="M1056.2,116.18A12,12 0 1 1 1032.2,116.18A12,12 0 1 1 1056.2,116.18Z" style="fill:#1FD3AC" />
<path d="M1070.1,124.51A12,12 0 1 1 1046.1,124.51A12,12 0 1 1 1070.1,124.51Z" style="fill:#1FD3AC" />
<path d="M1084,131.49A12,12 0 1 1 1060,131.49A12,12 0 1 1 1084,131.49Z" style="fill:#1FD3AC" />
<path d="M1097.9,134.84A12,12 0 1 1 1073.9,134.84A12,12 0 1 1 1097.9,134.84Z" style="fill:#1FD3AC" />
<path d="M1111.9,139.56A12,12 0 1 1 1087.9,139.56A12,12 0 1 1 1111.9,139.56Z" style="fill:#1FD3AC" />
<path d="M1125.8,145.71A12,12 0 1 1 1101.8,145.71A12,12 0 1 1 1125.8,145.71Z" style="fill:#1FD3AC" />
<path d="M1139.7,150.22A12,12 0 1 1 1115.7,150.22A12,12 0 1 1 1139.7,150.22Z" style="fill:#1FD3AC" />
<path d="M1153.6,150.61A12,12 0 1 1 1129.6,150.61A12,12 0 1 1 1153.6,150.61Z" style="fill:#1FD3AC" />
<path d="M1167.5,149.75A12,12 0 1 1 1143.5,149.75A12,12 0 1 1 1167.5,149.75Z" style="fill:#1FD3AC" />
<path d="M1181.5,152.13A12,12 0 1 1 1157.5,152.13A12,12 0 1 1 1181.5,152.13Z" style="fill:#1FD3AC" />
<path d="M1195.4,150.01A12,12 0 1 1 1171.4,150.01A12,12 0 1 1 1195.4,150.01Z" style="fill:#1FD3AC" />
<path d="M1209.3,147.13A12,12 0 1 1 1185.3,147.13A12,12 0 1 1 1209.3,147.13Z" style="fill:#1FD3AC" />
<path d="M1223.2,143.03A12,12 0 1 1 1199.2,143.03A12,12 0 1 1 1223.2,143.03Z" style="fill:#1FD3AC" />
<path d="M1237.1,139.16A12,12 0 1 1 1213.1,139.16A12,12 0 1 1 1237.1,139.16Z" style="fill:#1FD3AC" />
<path d="M1251.1,133.71A12,12 0 1 1 1227.1,133.71A12,12 0 1 1 1251.1,133.71Z" style="fill:#1FD3AC" />
<path d="M1265,129.75A12,12 0 1 1 1241,129.75A12,12 0 1 1 1265,129.75Z" style="fill:#1FD3AC" />
<path d="M1278.9,123.56A12,12 0 1 1 1254.9,123.56A12,12 0 1 1 1278.9,123.56Z" style="fill:#1FD3AC" />
<path d="M1292.8,114.94A12,12 0 1 1 1268.8,114.94A12,12 0 1 1 1292.8,114.94Z" style="fill:#1FD3AC" />
<path d="M111.45,1019.1L1294.8,1019.1" style="fill:none;stroke:#000000;stroke-width:2.5" />
<path d="M1294.8,87.824L1294.8,1019.1" style="fill:none;stroke:#000000;stroke-width:2.5" />
<path d="M1121,939.69L1221,939.69" style="fill:none;stroke:#FF4E60;stroke-width:16" />
<text x="1002.6" y="-932.62" transform="scale(1, -1)"
	style="font-family:Liberation Sans;font-variant:normal;font-weight:normal;font-style:normal;font-size:30px">Theory  </text>
<path d="M1183,903.51A12,12 0 1 1 1159,903.51A12,12 0 1 1 1183,903.51Z" style="fill:#1FD3AC" />
<text x="965.93" y="-896.45" transform="scale(1, -1)"
	style="font-family:Liberation Sans;font-variant:normal;font-weight:normal;font-style:normal;font-size:30px">Observed  </text>
</g>
</svg>
