<?xml version="1.0"?>
<!-- Generated by SVGo and Plotinum VG -->
<svg width="1080pt" height="1080pt" viewBox="0 0 1080 1080"
	xmlns="http://www.w3.org/2000/svg"
	xmlns:xlink="http://www.w3.org/1999/xlink">
<g transform="scale(1, -1) translate(0, -1080)">
<path d="M0,0L1080,0L1080,1080L0,1080Z" style="fill:#-8000000000000000-8000000000000000-8000000000000000;fill-opacity:0" />
<text x="528.89" y="-1015.2" transform="scale(1, -1)"
	style="font-family:Helvetica;font-weight:normal;font-style:normal;font-size:80px"> </text>
<text x="476.93" y="-17.172" transform="scale(1, -1)"
	style="font-family:Helvetica;font-weight:normal;font-style:normal;font-size:56px">Power (mW)</text>
<text x="216.1" y="-119.73" transform="scale(1, -1)"
	style="font-family:Helvetica;font-weight:normal;font-style:normal;font-size:56px">0</text>
<text x="400.93" y="-119.73" transform="scale(1, -1)"
	style="font-family:Helvetica;font-weight:normal;font-style:normal;font-size:56px">50</text>
<text x="585.76" y="-119.73" transform="scale(1, -1)"
	style="font-family:Helvetica;font-weight:normal;font-style:normal;font-size:56px">100</text>
<text x="786.16" y="-119.73" transform="scale(1, -1)"
	style="font-family:Helvetica;font-weight:normal;font-style:normal;font-size:56px">150</text>
<text x="986.57" y="-119.73" transform="scale(1, -1)"
	style="font-family:Helvetica;font-weight:normal;font-style:normal;font-size:56px">200</text>
<path d="M231.67,181.12L231.67,173.12" style="fill:none;stroke:#000000;stroke-width:1.5" />
<path d="M331.87,177.12L331.87,173.12" style="fill:none;stroke:#000000;stroke-width:1.5" />
<path d="M432.07,181.12L432.07,173.12" style="fill:none;stroke:#000000;stroke-width:1.5" />
<path d="M532.28,177.12L532.28,173.12" style="fill:none;stroke:#000000;stroke-width:1.5" />
<path d="M632.48,181.12L632.48,173.12" style="fill:none;stroke:#000000;stroke-width:1.5" />
<path d="M732.68,177.12L732.68,173.12" style="fill:none;stroke:#000000;stroke-width:1.5" />
<path d="M832.88,181.12L832.88,173.12" style="fill:none;stroke:#000000;stroke-width:1.5" />
<path d="M933.08,177.12L933.08,173.12" style="fill:none;stroke:#000000;stroke-width:1.5" />
<path d="M1033.3,181.12L1033.3,173.12" style="fill:none;stroke:#000000;stroke-width:1.5" />
<path d="M231.67,173.12L1033.3,173.12" style="fill:none;stroke:#000000;stroke-width:1.5" />
<g transform="rotate(90)">
<text x="245.29" y="45.391" transform="scale(1, -1)"
	style="font-family:Helvetica;font-weight:normal;font-style:normal;font-size:56px">Dissipation Rate (MHz)</text>
</g>
<text x="145.57" y="-159.13" transform="scale(1, -1)"
	style="font-family:Helvetica;font-weight:normal;font-style:normal;font-size:56px">60</text>
<text x="145.57" y="-399.07" transform="scale(1, -1)"
	style="font-family:Helvetica;font-weight:normal;font-style:normal;font-size:56px">80</text>
<text x="114.43" y="-639" transform="scale(1, -1)"
	style="font-family:Helvetica;font-weight:normal;font-style:normal;font-size:56px">100</text>
<text x="118.59" y="-878.93" transform="scale(1, -1)"
	style="font-family:Helvetica;font-weight:normal;font-style:normal;font-size:56px">110</text>
<path d="M239.42,173.24L231.42,173.24" style="fill:none;stroke:#000000;stroke-width:1.5" />
<path d="M235.42,293.21L231.42,293.21" style="fill:none;stroke:#000000;stroke-width:1.5" />
<path d="M239.42,413.18L231.42,413.18" style="fill:none;stroke:#000000;stroke-width:1.5" />
<path d="M235.42,533.14L231.42,533.14" style="fill:none;stroke:#000000;stroke-width:1.5" />
<path d="M239.42,653.11L231.42,653.11" style="fill:none;stroke:#000000;stroke-width:1.5" />
<path d="M235.42,773.08L231.42,773.08" style="fill:none;stroke:#000000;stroke-width:1.5" />
<path d="M239.42,893.04L231.42,893.04" style="fill:none;stroke:#000000;stroke-width:1.5" />
<path d="M231.42,173.24L231.42,893.04" style="fill:none;stroke:#000000;stroke-width:1.5" />
<path d="M989.19,672.1L945.11,664.81L897.01,656.86L848.91,648.91L804.82,641.62L768.75,635.66L724.66,628.37L656.53,617.11L608.43,609.16L568.35,602.54L524.26,595.25L476.16,587.3L404.02,575.37L359.93,568.09L327.87,562.79L287.78,556.16" style="fill:none;stroke:#637CC6;stroke-width:3" />
<path d="M231.67,893.04L1033.3,893.04" style="fill:none;stroke:#000000" />
<path d="M1033.3,173.24L1033.3,893.04" style="fill:none;stroke:#000000" />
<path d="M989.19,257.96L945.11,272.87L897.01,289.14L848.91,305.41L804.82,320.32L768.75,332.52L724.66,347.43L656.53,370.47L608.43,386.74L568.35,400.29L524.26,415.2L476.16,431.47L404.02,455.87L359.93,470.78L327.87,481.63L287.78,495.18" style="fill:none;stroke:#C96892;stroke-width:3" />
<path d="M231.67,527.14L989.19,768.12" style="fill:none;stroke:#627BC5;stroke-opacity:0.4902;stroke-width:3;stroke-dasharray:15,5" />
<path d="M231.67,527.14L989.19,286.17" style="fill:none;stroke:#C86791;stroke-opacity:0.4902;stroke-width:3;stroke-dasharray:15,5" />
<path d="M995.19,694.36A6,6 0 1 1 983.19,694.36A6,6 0 1 1 995.19,694.36Z" style="fill:#637CC6" />
<path d="M951.11,652.72A6,6 0 1 1 939.11,652.72A6,6 0 1 1 951.11,652.72Z" style="fill:#637CC6" />
<path d="M903.01,672.27A6,6 0 1 1 891.01,672.27A6,6 0 1 1 903.01,672.27Z" style="fill:#637CC6" />
<path d="M854.91,634.39A6,6 0 1 1 842.91,634.39A6,6 0 1 1 854.91,634.39Z" style="fill:#637CC6" />
<path d="M810.82,627.36A6,6 0 1 1 798.82,627.36A6,6 0 1 1 810.82,627.36Z" style="fill:#637CC6" />
<path d="M774.75,665.22A6,6 0 1 1 762.75,665.22A6,6 0 1 1 774.75,665.22Z" style="fill:#637CC6" />
<path d="M730.66,602.55A6,6 0 1 1 718.66,602.55A6,6 0 1 1 730.66,602.55Z" style="fill:#637CC6" />
<path d="M662.53,617.01A6,6 0 1 1 650.53,617.01A6,6 0 1 1 662.53,617.01Z" style="fill:#637CC6" />
<path d="M614.43,602.19A6,6 0 1 1 602.43,602.19A6,6 0 1 1 614.43,602.19Z" style="fill:#637CC6" />
<path d="M574.35,588.24A6,6 0 1 1 562.35,588.24A6,6 0 1 1 574.35,588.24Z" style="fill:#637CC6" />
<path d="M530.26,587.69A6,6 0 1 1 518.26,587.69A6,6 0 1 1 530.26,587.69Z" style="fill:#637CC6" />
<path d="M482.16,590.14A6,6 0 1 1 470.16,590.14A6,6 0 1 1 482.16,590.14Z" style="fill:#637CC6" />
<path d="M410.02,599.02A6,6 0 1 1 398.02,599.02A6,6 0 1 1 410.02,599.02Z" style="fill:#637CC6" />
<path d="M365.93,563.58A6,6 0 1 1 353.93,563.58A6,6 0 1 1 365.93,563.58Z" style="fill:#637CC6" />
<path d="M333.87,578.86A6,6 0 1 1 321.87,578.86A6,6 0 1 1 333.87,578.86Z" style="fill:#637CC6" />
<path d="M293.78,546.51A6,6 0 1 1 281.78,546.51A6,6 0 1 1 293.78,546.51Z" style="fill:#637CC6" />
<path d="M995.19,263.25A6,6 0 1 1 983.19,263.25A6,6 0 1 1 995.19,263.25Z" style="fill:#C96892" />
<path d="M951.11,292.8A6,6 0 1 1 939.11,292.8A6,6 0 1 1 951.11,292.8Z" style="fill:#C96892" />
<path d="M903.01,286.4A6,6 0 1 1 891.01,286.4A6,6 0 1 1 903.01,286.4Z" style="fill:#C96892" />
<path d="M854.91,320.19A6,6 0 1 1 842.91,320.19A6,6 0 1 1 854.91,320.19Z" style="fill:#C96892" />
<path d="M810.82,322.12A6,6 0 1 1 798.82,322.12A6,6 0 1 1 810.82,322.12Z" style="fill:#C96892" />
<path d="M774.75,331.31A6,6 0 1 1 762.75,331.31A6,6 0 1 1 774.75,331.31Z" style="fill:#C96892" />
<path d="M730.66,327.31A6,6 0 1 1 718.66,327.31A6,6 0 1 1 730.66,327.31Z" style="fill:#C96892" />
<path d="M662.53,354.3A6,6 0 1 1 650.53,354.3A6,6 0 1 1 662.53,354.3Z" style="fill:#C96892" />
<path d="M614.43,383.15A6,6 0 1 1 602.43,383.15A6,6 0 1 1 614.43,383.15Z" style="fill:#C96892" />
<path d="M574.35,395.37A6,6 0 1 1 562.35,395.37A6,6 0 1 1 574.35,395.37Z" style="fill:#C96892" />
<path d="M530.26,382.46A6,6 0 1 1 518.26,382.46A6,6 0 1 1 530.26,382.46Z" style="fill:#C96892" />
<path d="M482.16,428.87A6,6 0 1 1 470.16,428.87A6,6 0 1 1 482.16,428.87Z" style="fill:#C96892" />
<path d="M410.02,449.06A6,6 0 1 1 398.02,449.06A6,6 0 1 1 410.02,449.06Z" style="fill:#C96892" />
<path d="M365.93,503.33A6,6 0 1 1 353.93,503.33A6,6 0 1 1 365.93,503.33Z" style="fill:#C96892" />
<path d="M333.87,485.88A6,6 0 1 1 321.87,485.88A6,6 0 1 1 333.87,485.88Z" style="fill:#C96892" />
<path d="M293.78,507.47A6,6 0 1 1 281.78,507.47A6,6 0 1 1 293.78,507.47Z" style="fill:#C96892" />
<path d="M206.67,802.33L256.67,802.33" style="fill:none;stroke:#637CC6;stroke-width:3" />
<text x="272.23" y="-789.14" transform="scale(1, -1)"
	style="font-family:Helvetica;font-weight:normal;font-style:normal;font-size:56px">Anti-Stokes</text>
<path d="M206.67,743.47L256.67,743.47" style="fill:none;stroke:#627BC5;stroke-opacity:0.4902;stroke-width:3;stroke-dasharray:15,5" />
<text x="272.23" y="-730.27" transform="scale(1, -1)"
	style="font-family:Helvetica;font-weight:normal;font-style:normal;font-size:56px">Γ as,eff</text>
<path d="M206.67,684.6L256.67,684.6" style="fill:none;stroke:#C96892;stroke-width:3" />
<text x="272.23" y="-671.41" transform="scale(1, -1)"
	style="font-family:Helvetica;font-weight:normal;font-style:normal;font-size:56px">Stokes</text>
<path d="M206.67,625.74L256.67,625.74" style="fill:none;stroke:#C86791;stroke-opacity:0.4902;stroke-width:3;stroke-dasharray:15,5" />
<text x="272.23" y="-612.55" transform="scale(1, -1)"
	style="font-family:Helvetica;font-weight:normal;font-style:normal;font-size:56px">Γ s,eff</text>
</g>
</svg>
