<?xml version="1.0"?>
<!-- Generated by SVGo and Plotinum VG -->
<svg width="1080pt" height="1080pt" viewBox="0 0 1080 1080"
	xmlns="http://www.w3.org/2000/svg"
	xmlns:xlink="http://www.w3.org/1999/xlink">
<g transform="scale(1, -1) translate(0, -1080)">
<path d="M0,0L1080,0L1080,1080L0,1080Z" style="fill:#-8000000000000000-8000000000000000-8000000000000000;fill-opacity:0" />
<text x="533.05" y="-1039.5" transform="scale(1, -1)"
	style="font-family:Helvetica;font-weight:normal;font-style:normal;font-size:50px"> </text>
<text x="446.05" y="-11.039" transform="scale(1, -1)"
	style="font-family:Helvetica;font-weight:normal;font-style:normal;font-size:36px">Pump Power (mW)</text>
<text x="136.15" y="-71.258" transform="scale(1, -1)"
	style="font-family:Helvetica;font-weight:normal;font-style:normal;font-size:36px">0</text>
<text x="276.78" y="-71.258" transform="scale(1, -1)"
	style="font-family:Helvetica;font-weight:normal;font-style:normal;font-size:36px">50</text>
<text x="417.4" y="-71.258" transform="scale(1, -1)"
	style="font-family:Helvetica;font-weight:normal;font-style:normal;font-size:36px">100</text>
<text x="568.03" y="-71.258" transform="scale(1, -1)"
	style="font-family:Helvetica;font-weight:normal;font-style:normal;font-size:36px">150</text>
<text x="718.67" y="-71.258" transform="scale(1, -1)"
	style="font-family:Helvetica;font-weight:normal;font-style:normal;font-size:36px">200</text>
<text x="869.3" y="-71.258" transform="scale(1, -1)"
	style="font-family:Helvetica;font-weight:normal;font-style:normal;font-size:36px">250</text>
<text x="1019.9" y="-71.258" transform="scale(1, -1)"
	style="font-family:Helvetica;font-weight:normal;font-style:normal;font-size:36px">300</text>
<path d="M146.16,116.44L146.16,108.44" style="fill:none;stroke:#000000;stroke-width:1.5" />
<path d="M221.48,112.44L221.48,108.44" style="fill:none;stroke:#000000;stroke-width:1.5" />
<path d="M296.8,116.44L296.8,108.44" style="fill:none;stroke:#000000;stroke-width:1.5" />
<path d="M372.11,112.44L372.11,108.44" style="fill:none;stroke:#000000;stroke-width:1.5" />
<path d="M447.43,116.44L447.43,108.44" style="fill:none;stroke:#000000;stroke-width:1.5" />
<path d="M522.75,112.44L522.75,108.44" style="fill:none;stroke:#000000;stroke-width:1.5" />
<path d="M598.07,116.44L598.07,108.44" style="fill:none;stroke:#000000;stroke-width:1.5" />
<path d="M673.38,112.44L673.38,108.44" style="fill:none;stroke:#000000;stroke-width:1.5" />
<path d="M748.7,116.44L748.7,108.44" style="fill:none;stroke:#000000;stroke-width:1.5" />
<path d="M824.02,112.44L824.02,108.44" style="fill:none;stroke:#000000;stroke-width:1.5" />
<path d="M899.33,116.44L899.33,108.44" style="fill:none;stroke:#000000;stroke-width:1.5" />
<path d="M974.65,112.44L974.65,108.44" style="fill:none;stroke:#000000;stroke-width:1.5" />
<path d="M1050,116.44L1050,108.44" style="fill:none;stroke:#000000;stroke-width:1.5" />
<path d="M146.16,108.44L1050,108.44" style="fill:none;stroke:#000000;stroke-width:1.5" />
<g transform="rotate(90)">
<text x="423.62" y="29.18" transform="scale(1, -1)"
	style="font-family:Helvetica;font-weight:normal;font-style:normal;font-size:36px">FWHM (MHz)</text>
</g>
<text x="87.869" y="-266.95" transform="scale(1, -1)"
	style="font-family:Helvetica;font-weight:normal;font-style:normal;font-size:36px">80</text>
<text x="87.869" y="-610.36" transform="scale(1, -1)"
	style="font-family:Helvetica;font-weight:normal;font-style:normal;font-size:36px">90</text>
<text x="67.848" y="-953.77" transform="scale(1, -1)"
	style="font-family:Helvetica;font-weight:normal;font-style:normal;font-size:36px">100</text>
<path d="M149.91,104.32L145.91,104.32" style="fill:none;stroke:#000000;stroke-width:1.5" />
<path d="M153.91,276.02L145.91,276.02" style="fill:none;stroke:#000000;stroke-width:1.5" />
<path d="M149.91,447.73L145.91,447.73" style="fill:none;stroke:#000000;stroke-width:1.5" />
<path d="M153.91,619.43L145.91,619.43" style="fill:none;stroke:#000000;stroke-width:1.5" />
<path d="M149.91,791.13L145.91,791.13" style="fill:none;stroke:#000000;stroke-width:1.5" />
<path d="M153.91,962.84L145.91,962.84" style="fill:none;stroke:#000000;stroke-width:1.5" />
<path d="M145.91,104.32L145.91,962.84" style="fill:none;stroke:#000000;stroke-width:1.5" />
<path d="M182.29,539.88A6,6 0 1 1 170.29,539.88A6,6 0 1 1 182.29,539.88Z" style="fill:#1BAA8B" />
<path d="M146.16,962.84L1050,962.84" style="fill:none;stroke:#000000" />
<path d="M1050,104.32L1050,962.84" style="fill:none;stroke:#000000" />
<path d="M176.29,104.32L176.29,539.88" style="fill:none;stroke:#1BAA8B;stroke-width:4;stroke-dasharray:15,5" />
<path d="M146.16,539.88L176.29,539.88" style="fill:none;stroke:#7F7F7F;stroke-dasharray:5,5" />
<path d="M242.54,667.42A6,6 0 1 1 230.54,667.42A6,6 0 1 1 242.54,667.42Z" style="fill:#C96892" />
<path d="M146.16,962.84L1050,962.84" style="fill:none;stroke:#000000" />
<path d="M1050,104.32L1050,962.84" style="fill:none;stroke:#000000" />
<path d="M236.54,104.32L236.54,667.42" style="fill:none;stroke:#C96892;stroke-width:4;stroke-dasharray:15,5" />
<path d="M146.16,667.42L236.54,667.42" style="fill:none;stroke:#7F7F7F;stroke-dasharray:5,5" />
<path d="M302.8,685.59A6,6 0 1 1 290.8,685.59A6,6 0 1 1 302.8,685.59Z" style="fill:#637CC6" />
<path d="M146.16,962.84L1050,962.84" style="fill:none;stroke:#000000" />
<path d="M1050,104.32L1050,962.84" style="fill:none;stroke:#000000" />
<path d="M296.8,104.32L296.8,685.59" style="fill:none;stroke:#637CC6;stroke-width:4;stroke-dasharray:15,5" />
<path d="M146.16,685.59L296.8,685.59" style="fill:none;stroke:#7F7F7F;stroke-dasharray:5,5" />
<path d="M363.05,683.61A6,6 0 1 1 351.05,683.61A6,6 0 1 1 363.05,683.61Z" style="fill:#C28C56" />
<path d="M146.16,962.84L1050,962.84" style="fill:none;stroke:#000000" />
<path d="M1050,104.32L1050,962.84" style="fill:none;stroke:#000000" />
<path d="M357.05,104.32L357.05,683.61" style="fill:none;stroke:#C28C56;stroke-width:4;stroke-dasharray:15,5" />
<path d="M146.16,683.61L357.05,683.61" style="fill:none;stroke:#7F7F7F;stroke-dasharray:5,5" />
<path d="M423.31,688.1A6,6 0 1 1 411.31,688.1A6,6 0 1 1 423.31,688.1Z" style="fill:#1BAA8B" />
<path d="M146.16,962.84L1050,962.84" style="fill:none;stroke:#000000" />
<path d="M1050,104.32L1050,962.84" style="fill:none;stroke:#000000" />
<path d="M417.31,104.32L417.31,688.1" style="fill:none;stroke:#1BAA8B;stroke-width:4;stroke-dasharray:15,5" />
<path d="M146.16,688.1L417.31,688.1" style="fill:none;stroke:#7F7F7F;stroke-dasharray:5,5" />
<path d="M483.56,716.65A6,6 0 1 1 471.56,716.65A6,6 0 1 1 483.56,716.65Z" style="fill:#C96892" />
<path d="M146.16,962.84L1050,962.84" style="fill:none;stroke:#000000" />
<path d="M1050,104.32L1050,962.84" style="fill:none;stroke:#000000" />
<path d="M477.56,104.32L477.56,716.65" style="fill:none;stroke:#C96892;stroke-width:4;stroke-dasharray:15,5" />
<path d="M146.16,716.65L477.56,716.65" style="fill:none;stroke:#7F7F7F;stroke-dasharray:5,5" />
<path d="M543.81,725.92A6,6 0 1 1 531.81,725.92A6,6 0 1 1 543.81,725.92Z" style="fill:#637CC6" />
<path d="M146.16,962.84L1050,962.84" style="fill:none;stroke:#000000" />
<path d="M1050,104.32L1050,962.84" style="fill:none;stroke:#000000" />
<path d="M537.81,104.32L537.81,725.92" style="fill:none;stroke:#637CC6;stroke-width:4;stroke-dasharray:15,5" />
<path d="M146.16,725.92L537.81,725.92" style="fill:none;stroke:#7F7F7F;stroke-dasharray:5,5" />
<path d="M604.07,731.86A6,6 0 1 1 592.07,731.86A6,6 0 1 1 604.07,731.86Z" style="fill:#C28C56" />
<path d="M146.16,962.84L1050,962.84" style="fill:none;stroke:#000000" />
<path d="M1050,104.32L1050,962.84" style="fill:none;stroke:#000000" />
<path d="M598.07,104.32L598.07,731.86" style="fill:none;stroke:#C28C56;stroke-width:4;stroke-dasharray:15,5" />
<path d="M146.16,731.86L598.07,731.86" style="fill:none;stroke:#7F7F7F;stroke-dasharray:5,5" />
<path d="M664.32,750.1A6,6 0 1 1 652.32,750.1A6,6 0 1 1 664.32,750.1Z" style="fill:#1BAA8B" />
<path d="M146.16,962.84L1050,962.84" style="fill:none;stroke:#000000" />
<path d="M1050,104.32L1050,962.84" style="fill:none;stroke:#000000" />
<path d="M658.32,104.32L658.32,750.1" style="fill:none;stroke:#1BAA8B;stroke-width:4;stroke-dasharray:15,5" />
<path d="M146.16,750.1L658.32,750.1" style="fill:none;stroke:#7F7F7F;stroke-dasharray:5,5" />
<path d="M724.57,782.19A6,6 0 1 1 712.57,782.19A6,6 0 1 1 724.57,782.19Z" style="fill:#C96892" />
<path d="M146.16,962.84L1050,962.84" style="fill:none;stroke:#000000" />
<path d="M1050,104.32L1050,962.84" style="fill:none;stroke:#000000" />
<path d="M718.57,104.32L718.57,782.19" style="fill:none;stroke:#C96892;stroke-width:4;stroke-dasharray:15,5" />
<path d="M146.16,782.19L718.57,782.19" style="fill:none;stroke:#7F7F7F;stroke-dasharray:5,5" />
<path d="M784.83,780.61A6,6 0 1 1 772.83,780.61A6,6 0 1 1 784.83,780.61Z" style="fill:#637CC6" />
<path d="M146.16,962.84L1050,962.84" style="fill:none;stroke:#000000" />
<path d="M1050,104.32L1050,962.84" style="fill:none;stroke:#000000" />
<path d="M778.83,104.32L778.83,780.61" style="fill:none;stroke:#637CC6;stroke-width:4;stroke-dasharray:15,5" />
<path d="M146.16,780.61L778.83,780.61" style="fill:none;stroke:#7F7F7F;stroke-dasharray:5,5" />
<path d="M845.08,803.8A6,6 0 1 1 833.08,803.8A6,6 0 1 1 845.08,803.8Z" style="fill:#C28C56" />
<path d="M146.16,962.84L1050,962.84" style="fill:none;stroke:#000000" />
<path d="M1050,104.32L1050,962.84" style="fill:none;stroke:#000000" />
<path d="M839.08,104.32L839.08,803.8" style="fill:none;stroke:#C28C56;stroke-width:4;stroke-dasharray:15,5" />
<path d="M146.16,803.8L839.08,803.8" style="fill:none;stroke:#7F7F7F;stroke-dasharray:5,5" />
<path d="M905.33,808.01A6,6 0 1 1 893.33,808.01A6,6 0 1 1 905.33,808.01Z" style="fill:#1BAA8B" />
<path d="M146.16,962.84L1050,962.84" style="fill:none;stroke:#000000" />
<path d="M1050,104.32L1050,962.84" style="fill:none;stroke:#000000" />
<path d="M899.33,104.32L899.33,808.01" style="fill:none;stroke:#1BAA8B;stroke-width:4;stroke-dasharray:15,5" />
<path d="M146.16,808.01L899.33,808.01" style="fill:none;stroke:#7F7F7F;stroke-dasharray:5,5" />
<path d="M965.59,832.88A6,6 0 1 1 953.59,832.88A6,6 0 1 1 965.59,832.88Z" style="fill:#C96892" />
<path d="M146.16,962.84L1050,962.84" style="fill:none;stroke:#000000" />
<path d="M1050,104.32L1050,962.84" style="fill:none;stroke:#000000" />
<path d="M959.59,104.32L959.59,832.88" style="fill:none;stroke:#C96892;stroke-width:4;stroke-dasharray:15,5" />
<path d="M146.16,832.88L959.59,832.88" style="fill:none;stroke:#7F7F7F;stroke-dasharray:5,5" />
<path d="M1025.8,848.74A6,6 0 1 1 1013.8,848.74A6,6 0 1 1 1025.8,848.74Z" style="fill:#637CC6" />
<path d="M146.16,962.84L1050,962.84" style="fill:none;stroke:#000000" />
<path d="M1050,104.32L1050,962.84" style="fill:none;stroke:#000000" />
<path d="M1019.8,104.32L1019.8,848.74" style="fill:none;stroke:#637CC6;stroke-width:4;stroke-dasharray:15,5" />
<path d="M146.16,848.74L1019.8,848.74" style="fill:none;stroke:#7F7F7F;stroke-dasharray:5,5" />
</g>
</svg>
