<?xml version="1.0"?>
<!-- Generated by SVGo and Plotinum VG -->
<svg width="1080pt" height="1080pt" viewBox="0 0 1080 1080"
	xmlns="http://www.w3.org/2000/svg"
	xmlns:xlink="http://www.w3.org/1999/xlink">
<g transform="scale(1, -1) translate(0, -1080)">
<path d="M0,0L1080,0L1080,1080L0,1080Z" style="fill:#-8000000000000000-8000000000000000-8000000000000000;fill-opacity:0" />
<text x="205.11" y="-1039.5" transform="scale(1, -1)"
	style="font-family:Helvetica;font-weight:normal;font-style:normal;font-size:50px">1 cm pak1chip3-20um4 CABS</text>
<text x="475.68" y="-11.039" transform="scale(1, -1)"
	style="font-family:Helvetica;font-weight:normal;font-style:normal;font-size:36px">Frequency (GHz)</text>
<text x="195.64" y="-71.258" transform="scale(1, -1)"
	style="font-family:Helvetica;font-weight:normal;font-style:normal;font-size:36px">10.65</text>
<text x="382.15" y="-71.258" transform="scale(1, -1)"
	style="font-family:Helvetica;font-weight:normal;font-style:normal;font-size:36px">10.75</text>
<text x="568.67" y="-71.258" transform="scale(1, -1)"
	style="font-family:Helvetica;font-weight:normal;font-style:normal;font-size:36px">10.85</text>
<text x="755.18" y="-71.258" transform="scale(1, -1)"
	style="font-family:Helvetica;font-weight:normal;font-style:normal;font-size:36px">10.95</text>
<path d="M147.43,112.44L147.43,108.44" style="fill:none;stroke:#000000;stroke-width:1.5" />
<path d="M240.68,116.44L240.68,108.44" style="fill:none;stroke:#000000;stroke-width:1.5" />
<path d="M333.94,112.44L333.94,108.44" style="fill:none;stroke:#000000;stroke-width:1.5" />
<path d="M427.2,116.44L427.2,108.44" style="fill:none;stroke:#000000;stroke-width:1.5" />
<path d="M520.46,112.44L520.46,108.44" style="fill:none;stroke:#000000;stroke-width:1.5" />
<path d="M613.71,116.44L613.71,108.44" style="fill:none;stroke:#000000;stroke-width:1.5" />
<path d="M706.97,112.44L706.97,108.44" style="fill:none;stroke:#000000;stroke-width:1.5" />
<path d="M800.23,116.44L800.23,108.44" style="fill:none;stroke:#000000;stroke-width:1.5" />
<path d="M893.49,112.44L893.49,108.44" style="fill:none;stroke:#000000;stroke-width:1.5" />
<path d="M147.43,108.44L1080,108.44" style="fill:none;stroke:#000000;stroke-width:1.5" />
<g transform="rotate(90)">
<text x="372.4" y="29.18" transform="scale(1, -1)"
	style="font-family:Helvetica;font-weight:normal;font-style:normal;font-size:36px">Spectral Density (μV)</text>
</g>
<text x="107.89" y="-103.48" transform="scale(1, -1)"
	style="font-family:Helvetica;font-weight:normal;font-style:normal;font-size:36px">0</text>
<text x="67.848" y="-318.88" transform="scale(1, -1)"
	style="font-family:Helvetica;font-weight:normal;font-style:normal;font-size:36px">250</text>
<text x="67.848" y="-534.28" transform="scale(1, -1)"
	style="font-family:Helvetica;font-weight:normal;font-style:normal;font-size:36px">500</text>
<text x="67.848" y="-749.67" transform="scale(1, -1)"
	style="font-family:Helvetica;font-weight:normal;font-style:normal;font-size:36px">750</text>
<path d="M153.91,112.55L145.91,112.55" style="fill:none;stroke:#000000;stroke-width:1.5" />
<path d="M149.91,220.25L145.91,220.25" style="fill:none;stroke:#000000;stroke-width:1.5" />
<path d="M153.91,327.95L145.91,327.95" style="fill:none;stroke:#000000;stroke-width:1.5" />
<path d="M149.91,435.65L145.91,435.65" style="fill:none;stroke:#000000;stroke-width:1.5" />
<path d="M153.91,543.35L145.91,543.35" style="fill:none;stroke:#000000;stroke-width:1.5" />
<path d="M149.91,651.05L145.91,651.05" style="fill:none;stroke:#000000;stroke-width:1.5" />
<path d="M153.91,758.74L145.91,758.74" style="fill:none;stroke:#000000;stroke-width:1.5" />
<path d="M149.91,866.44L145.91,866.44" style="fill:none;stroke:#000000;stroke-width:1.5" />
<path d="M145.91,111.5L145.91,974.14" style="fill:none;stroke:#000000;stroke-width:1.5" />
<path d="M151.16,115.89L151.16,120.8" style="fill:none;stroke:#1B9692" />
<path d="M148.66,115.89L153.66,115.89" style="fill:none;stroke:#1B9692" />
<path d="M148.66,120.8L153.66,120.8" style="fill:none;stroke:#1B9692" />
<path d="M154.9,114.09L154.9,118.71" style="fill:none;stroke:#1B9692" />
<path d="M152.4,114.09L157.4,114.09" style="fill:none;stroke:#1B9692" />
<path d="M152.4,118.71L157.4,118.71" style="fill:none;stroke:#1B9692" />
<path d="M158.64,119.5L158.64,120.59" style="fill:none;stroke:#1B9692" />
<path d="M156.14,119.5L161.14,119.5" style="fill:none;stroke:#1B9692" />
<path d="M156.14,120.59L161.14,120.59" style="fill:none;stroke:#1B9692" />
<path d="M162.38,115.53L162.38,125.33" style="fill:none;stroke:#1B9692" />
<path d="M159.88,115.53L164.88,115.53" style="fill:none;stroke:#1B9692" />
<path d="M159.88,125.33L164.88,125.33" style="fill:none;stroke:#1B9692" />
<path d="M166.12,111.5L166.12,120.92" style="fill:none;stroke:#1B9692" />
<path d="M163.62,111.5L168.62,111.5" style="fill:none;stroke:#1B9692" />
<path d="M163.62,120.92L168.62,120.92" style="fill:none;stroke:#1B9692" />
<path d="M169.86,113.76L169.86,116.46" style="fill:none;stroke:#1B9692" />
<path d="M167.36,113.76L172.36,113.76" style="fill:none;stroke:#1B9692" />
<path d="M167.36,116.46L172.36,116.46" style="fill:none;stroke:#1B9692" />
<path d="M173.6,115.03L173.6,116.16" style="fill:none;stroke:#1B9692" />
<path d="M171.1,115.03L176.1,115.03" style="fill:none;stroke:#1B9692" />
<path d="M171.1,116.16L176.1,116.16" style="fill:none;stroke:#1B9692" />
<path d="M177.34,114.96L177.34,118.45" style="fill:none;stroke:#1B9692" />
<path d="M174.84,114.96L179.84,114.96" style="fill:none;stroke:#1B9692" />
<path d="M174.84,118.45L179.84,118.45" style="fill:none;stroke:#1B9692" />
<path d="M181.07,115.01L181.07,118.6" style="fill:none;stroke:#1B9692" />
<path d="M178.57,115.01L183.57,115.01" style="fill:none;stroke:#1B9692" />
<path d="M178.57,118.6L183.57,118.6" style="fill:none;stroke:#1B9692" />
<path d="M184.81,114.54L184.81,116.24" style="fill:none;stroke:#1B9692" />
<path d="M182.31,114.54L187.31,114.54" style="fill:none;stroke:#1B9692" />
<path d="M182.31,116.24L187.31,116.24" style="fill:none;stroke:#1B9692" />
<path d="M188.55,114.24L188.55,116.37" style="fill:none;stroke:#1B9692" />
<path d="M186.05,114.24L191.05,114.24" style="fill:none;stroke:#1B9692" />
<path d="M186.05,116.37L191.05,116.37" style="fill:none;stroke:#1B9692" />
<path d="M192.29,114.19L192.29,116.6" style="fill:none;stroke:#1B9692" />
<path d="M189.79,114.19L194.79,114.19" style="fill:none;stroke:#1B9692" />
<path d="M189.79,116.6L194.79,116.6" style="fill:none;stroke:#1B9692" />
<path d="M196.03,113.32L196.03,115.07" style="fill:none;stroke:#1B9692" />
<path d="M193.53,113.32L198.53,113.32" style="fill:none;stroke:#1B9692" />
<path d="M193.53,115.07L198.53,115.07" style="fill:none;stroke:#1B9692" />
<path d="M199.77,114.56L199.77,114.81" style="fill:none;stroke:#1B9692" />
<path d="M197.27,114.56L202.27,114.56" style="fill:none;stroke:#1B9692" />
<path d="M197.27,114.81L202.27,114.81" style="fill:none;stroke:#1B9692" />
<path d="M203.51,115.46L203.51,116.86" style="fill:none;stroke:#1B9692" />
<path d="M201.01,115.46L206.01,115.46" style="fill:none;stroke:#1B9692" />
<path d="M201.01,116.86L206.01,116.86" style="fill:none;stroke:#1B9692" />
<path d="M207.25,113.11L207.25,115.7" style="fill:none;stroke:#1B9692" />
<path d="M204.75,113.11L209.75,113.11" style="fill:none;stroke:#1B9692" />
<path d="M204.75,115.7L209.75,115.7" style="fill:none;stroke:#1B9692" />
<path d="M210.99,115.02L210.99,116.14" style="fill:none;stroke:#1B9692" />
<path d="M208.49,115.02L213.49,115.02" style="fill:none;stroke:#1B9692" />
<path d="M208.49,116.14L213.49,116.14" style="fill:none;stroke:#1B9692" />
<path d="M214.72,116.91L214.72,119.1" style="fill:none;stroke:#1B9692" />
<path d="M212.22,116.91L217.22,116.91" style="fill:none;stroke:#1B9692" />
<path d="M212.22,119.1L217.22,119.1" style="fill:none;stroke:#1B9692" />
<path d="M218.46,116.1L218.46,120.26" style="fill:none;stroke:#1B9692" />
<path d="M215.96,116.1L220.96,116.1" style="fill:none;stroke:#1B9692" />
<path d="M215.96,120.26L220.96,120.26" style="fill:none;stroke:#1B9692" />
<path d="M222.2,118.48L222.2,124.19" style="fill:none;stroke:#1B9692" />
<path d="M219.7,118.48L224.7,118.48" style="fill:none;stroke:#1B9692" />
<path d="M219.7,124.19L224.7,124.19" style="fill:none;stroke:#1B9692" />
<path d="M225.94,119.92L225.94,121.77" style="fill:none;stroke:#1B9692" />
<path d="M223.44,119.92L228.44,119.92" style="fill:none;stroke:#1B9692" />
<path d="M223.44,121.77L228.44,121.77" style="fill:none;stroke:#1B9692" />
<path d="M229.68,118.13L229.68,124.37" style="fill:none;stroke:#1B9692" />
<path d="M227.18,118.13L232.18,118.13" style="fill:none;stroke:#1B9692" />
<path d="M227.18,124.37L232.18,124.37" style="fill:none;stroke:#1B9692" />
<path d="M233.42,120.44L233.42,120.91" style="fill:none;stroke:#1B9692" />
<path d="M230.92,120.44L235.92,120.44" style="fill:none;stroke:#1B9692" />
<path d="M230.92,120.91L235.92,120.91" style="fill:none;stroke:#1B9692" />
<path d="M237.16,115.4L237.16,118.56" style="fill:none;stroke:#1B9692" />
<path d="M234.66,115.4L239.66,115.4" style="fill:none;stroke:#1B9692" />
<path d="M234.66,118.56L239.66,118.56" style="fill:none;stroke:#1B9692" />
<path d="M240.9,116.43L240.9,118.08" style="fill:none;stroke:#1B9692" />
<path d="M238.4,116.43L243.4,116.43" style="fill:none;stroke:#1B9692" />
<path d="M238.4,118.08L243.4,118.08" style="fill:none;stroke:#1B9692" />
<path d="M244.63,117.36L244.63,120.13" style="fill:none;stroke:#1B9692" />
<path d="M242.13,117.36L247.13,117.36" style="fill:none;stroke:#1B9692" />
<path d="M242.13,120.13L247.13,120.13" style="fill:none;stroke:#1B9692" />
<path d="M248.37,114.92L248.37,117.89" style="fill:none;stroke:#1B9692" />
<path d="M245.87,114.92L250.87,114.92" style="fill:none;stroke:#1B9692" />
<path d="M245.87,117.89L250.87,117.89" style="fill:none;stroke:#1B9692" />
<path d="M252.11,117.44L252.11,118.86" style="fill:none;stroke:#1B9692" />
<path d="M249.61,117.44L254.61,117.44" style="fill:none;stroke:#1B9692" />
<path d="M249.61,118.86L254.61,118.86" style="fill:none;stroke:#1B9692" />
<path d="M255.85,118.62L255.85,123.02" style="fill:none;stroke:#1B9692" />
<path d="M253.35,118.62L258.35,118.62" style="fill:none;stroke:#1B9692" />
<path d="M253.35,123.02L258.35,123.02" style="fill:none;stroke:#1B9692" />
<path d="M259.59,116.3L259.59,123.22" style="fill:none;stroke:#1B9692" />
<path d="M257.09,116.3L262.09,116.3" style="fill:none;stroke:#1B9692" />
<path d="M257.09,123.22L262.09,123.22" style="fill:none;stroke:#1B9692" />
<path d="M263.33,119.7L263.33,126.99" style="fill:none;stroke:#1B9692" />
<path d="M260.83,119.7L265.83,119.7" style="fill:none;stroke:#1B9692" />
<path d="M260.83,126.99L265.83,126.99" style="fill:none;stroke:#1B9692" />
<path d="M267.07,118.4L267.07,126.74" style="fill:none;stroke:#1B9692" />
<path d="M264.57,118.4L269.57,118.4" style="fill:none;stroke:#1B9692" />
<path d="M264.57,126.74L269.57,126.74" style="fill:none;stroke:#1B9692" />
<path d="M270.81,116.86L270.81,127.51" style="fill:none;stroke:#1B9692" />
<path d="M268.31,116.86L273.31,116.86" style="fill:none;stroke:#1B9692" />
<path d="M268.31,127.51L273.31,127.51" style="fill:none;stroke:#1B9692" />
<path d="M274.55,118.43L274.55,127.41" style="fill:none;stroke:#1B9692" />
<path d="M272.05,118.43L277.05,118.43" style="fill:none;stroke:#1B9692" />
<path d="M272.05,127.41L277.05,127.41" style="fill:none;stroke:#1B9692" />
<path d="M278.28,120.49L278.28,130.26" style="fill:none;stroke:#1B9692" />
<path d="M275.78,120.49L280.78,120.49" style="fill:none;stroke:#1B9692" />
<path d="M275.78,130.26L280.78,130.26" style="fill:none;stroke:#1B9692" />
<path d="M282.02,121.5L282.02,128.82" style="fill:none;stroke:#1B9692" />
<path d="M279.52,121.5L284.52,121.5" style="fill:none;stroke:#1B9692" />
<path d="M279.52,128.82L284.52,128.82" style="fill:none;stroke:#1B9692" />
<path d="M285.76,120.22L285.76,125.41" style="fill:none;stroke:#1B9692" />
<path d="M283.26,120.22L288.26,120.22" style="fill:none;stroke:#1B9692" />
<path d="M283.26,125.41L288.26,125.41" style="fill:none;stroke:#1B9692" />
<path d="M289.5,120.06L289.5,128.16" style="fill:none;stroke:#1B9692" />
<path d="M287,120.06L292,120.06" style="fill:none;stroke:#1B9692" />
<path d="M287,128.16L292,128.16" style="fill:none;stroke:#1B9692" />
<path d="M293.24,120.74L293.24,129.86" style="fill:none;stroke:#1B9692" />
<path d="M290.74,120.74L295.74,120.74" style="fill:none;stroke:#1B9692" />
<path d="M290.74,129.86L295.74,129.86" style="fill:none;stroke:#1B9692" />
<path d="M296.98,116.74L296.98,126.92" style="fill:none;stroke:#1B9692" />
<path d="M294.48,116.74L299.48,116.74" style="fill:none;stroke:#1B9692" />
<path d="M294.48,126.92L299.48,126.92" style="fill:none;stroke:#1B9692" />
<path d="M300.72,122.28L300.72,127.24" style="fill:none;stroke:#1B9692" />
<path d="M298.22,122.28L303.22,122.28" style="fill:none;stroke:#1B9692" />
<path d="M298.22,127.24L303.22,127.24" style="fill:none;stroke:#1B9692" />
<path d="M304.46,122.33L304.46,129.13" style="fill:none;stroke:#1B9692" />
<path d="M301.96,122.33L306.96,122.33" style="fill:none;stroke:#1B9692" />
<path d="M301.96,129.13L306.96,129.13" style="fill:none;stroke:#1B9692" />
<path d="M308.19,122.58L308.19,132.24" style="fill:none;stroke:#1B9692" />
<path d="M305.69,122.58L310.69,122.58" style="fill:none;stroke:#1B9692" />
<path d="M305.69,132.24L310.69,132.24" style="fill:none;stroke:#1B9692" />
<path d="M311.93,124.8L311.93,132.24" style="fill:none;stroke:#1B9692" />
<path d="M309.43,124.8L314.43,124.8" style="fill:none;stroke:#1B9692" />
<path d="M309.43,132.24L314.43,132.24" style="fill:none;stroke:#1B9692" />
<path d="M315.67,124.63L315.67,128.3" style="fill:none;stroke:#1B9692" />
<path d="M313.17,124.63L318.17,124.63" style="fill:none;stroke:#1B9692" />
<path d="M313.17,128.3L318.17,128.3" style="fill:none;stroke:#1B9692" />
<path d="M319.41,122.27L319.41,128.16" style="fill:none;stroke:#1B9692" />
<path d="M316.91,122.27L321.91,122.27" style="fill:none;stroke:#1B9692" />
<path d="M316.91,128.16L321.91,128.16" style="fill:none;stroke:#1B9692" />
<path d="M323.15,122.26L323.15,131.91" style="fill:none;stroke:#1B9692" />
<path d="M320.65,122.26L325.65,122.26" style="fill:none;stroke:#1B9692" />
<path d="M320.65,131.91L325.65,131.91" style="fill:none;stroke:#1B9692" />
<path d="M326.89,120.22L326.89,128.8" style="fill:none;stroke:#1B9692" />
<path d="M324.39,120.22L329.39,120.22" style="fill:none;stroke:#1B9692" />
<path d="M324.39,128.8L329.39,128.8" style="fill:none;stroke:#1B9692" />
<path d="M330.63,123.06L330.63,132.25" style="fill:none;stroke:#1B9692" />
<path d="M328.13,123.06L333.13,123.06" style="fill:none;stroke:#1B9692" />
<path d="M328.13,132.25L333.13,132.25" style="fill:none;stroke:#1B9692" />
<path d="M334.37,123.37L334.37,136.14" style="fill:none;stroke:#1B9692" />
<path d="M331.87,123.37L336.87,123.37" style="fill:none;stroke:#1B9692" />
<path d="M331.87,136.14L336.87,136.14" style="fill:none;stroke:#1B9692" />
<path d="M338.1,125.92L338.1,135.36" style="fill:none;stroke:#1B9692" />
<path d="M335.6,125.92L340.6,125.92" style="fill:none;stroke:#1B9692" />
<path d="M335.6,135.36L340.6,135.36" style="fill:none;stroke:#1B9692" />
<path d="M341.84,120.09L341.84,134.22" style="fill:none;stroke:#1B9692" />
<path d="M339.34,120.09L344.34,120.09" style="fill:none;stroke:#1B9692" />
<path d="M339.34,134.22L344.34,134.22" style="fill:none;stroke:#1B9692" />
<path d="M345.58,127.41L345.58,133.43" style="fill:none;stroke:#1B9692" />
<path d="M343.08,127.41L348.08,127.41" style="fill:none;stroke:#1B9692" />
<path d="M343.08,133.43L348.08,133.43" style="fill:none;stroke:#1B9692" />
<path d="M349.32,122.26L349.32,136.96" style="fill:none;stroke:#1B9692" />
<path d="M346.82,122.26L351.82,122.26" style="fill:none;stroke:#1B9692" />
<path d="M346.82,136.96L351.82,136.96" style="fill:none;stroke:#1B9692" />
<path d="M353.06,121.45L353.06,136.34" style="fill:none;stroke:#1B9692" />
<path d="M350.56,121.45L355.56,121.45" style="fill:none;stroke:#1B9692" />
<path d="M350.56,136.34L355.56,136.34" style="fill:none;stroke:#1B9692" />
<path d="M356.8,118.98L356.8,131.28" style="fill:none;stroke:#1B9692" />
<path d="M354.3,118.98L359.3,118.98" style="fill:none;stroke:#1B9692" />
<path d="M354.3,131.28L359.3,131.28" style="fill:none;stroke:#1B9692" />
<path d="M360.54,119.21L360.54,129.86" style="fill:none;stroke:#1B9692" />
<path d="M358.04,119.21L363.04,119.21" style="fill:none;stroke:#1B9692" />
<path d="M358.04,129.86L363.04,129.86" style="fill:none;stroke:#1B9692" />
<path d="M364.28,125.72L364.28,132.21" style="fill:none;stroke:#1B9692" />
<path d="M361.78,125.72L366.78,125.72" style="fill:none;stroke:#1B9692" />
<path d="M361.78,132.21L366.78,132.21" style="fill:none;stroke:#1B9692" />
<path d="M368.02,123.54L368.02,128.43" style="fill:none;stroke:#1B9692" />
<path d="M365.52,123.54L370.52,123.54" style="fill:none;stroke:#1B9692" />
<path d="M365.52,128.43L370.52,128.43" style="fill:none;stroke:#1B9692" />
<path d="M371.75,126.38L371.75,131.45" style="fill:none;stroke:#1B9692" />
<path d="M369.25,126.38L374.25,126.38" style="fill:none;stroke:#1B9692" />
<path d="M369.25,131.45L374.25,131.45" style="fill:none;stroke:#1B9692" />
<path d="M375.49,120.63L375.49,129.28" style="fill:none;stroke:#1B9692" />
<path d="M372.99,120.63L377.99,120.63" style="fill:none;stroke:#1B9692" />
<path d="M372.99,129.28L377.99,129.28" style="fill:none;stroke:#1B9692" />
<path d="M379.23,124.07L379.23,130.97" style="fill:none;stroke:#1B9692" />
<path d="M376.73,124.07L381.73,124.07" style="fill:none;stroke:#1B9692" />
<path d="M376.73,130.97L381.73,130.97" style="fill:none;stroke:#1B9692" />
<path d="M382.97,124.73L382.97,133.7" style="fill:none;stroke:#1B9692" />
<path d="M380.47,124.73L385.47,124.73" style="fill:none;stroke:#1B9692" />
<path d="M380.47,133.7L385.47,133.7" style="fill:none;stroke:#1B9692" />
<path d="M386.71,125.55L386.71,138.72" style="fill:none;stroke:#1B9692" />
<path d="M384.21,125.55L389.21,125.55" style="fill:none;stroke:#1B9692" />
<path d="M384.21,138.72L389.21,138.72" style="fill:none;stroke:#1B9692" />
<path d="M390.45,130.77L390.45,135.74" style="fill:none;stroke:#1B9692" />
<path d="M387.95,130.77L392.95,130.77" style="fill:none;stroke:#1B9692" />
<path d="M387.95,135.74L392.95,135.74" style="fill:none;stroke:#1B9692" />
<path d="M394.19,133.05L394.19,133.8" style="fill:none;stroke:#1B9692" />
<path d="M391.69,133.05L396.69,133.05" style="fill:none;stroke:#1B9692" />
<path d="M391.69,133.8L396.69,133.8" style="fill:none;stroke:#1B9692" />
<path d="M397.93,134.58L397.93,148.22" style="fill:none;stroke:#1B9692" />
<path d="M395.43,134.58L400.43,134.58" style="fill:none;stroke:#1B9692" />
<path d="M395.43,148.22L400.43,148.22" style="fill:none;stroke:#1B9692" />
<path d="M401.66,136.75L401.66,153.07" style="fill:none;stroke:#1B9692" />
<path d="M399.16,136.75L404.16,136.75" style="fill:none;stroke:#1B9692" />
<path d="M399.16,153.07L404.16,153.07" style="fill:none;stroke:#1B9692" />
<path d="M405.4,142.98L405.4,159.85" style="fill:none;stroke:#1B9692" />
<path d="M402.9,142.98L407.9,142.98" style="fill:none;stroke:#1B9692" />
<path d="M402.9,159.85L407.9,159.85" style="fill:none;stroke:#1B9692" />
<path d="M409.14,139.16L409.14,160.39" style="fill:none;stroke:#1B9692" />
<path d="M406.64,139.16L411.64,139.16" style="fill:none;stroke:#1B9692" />
<path d="M406.64,160.39L411.64,160.39" style="fill:none;stroke:#1B9692" />
<path d="M412.88,143.01L412.88,164.3" style="fill:none;stroke:#1B9692" />
<path d="M410.38,143.01L415.38,143.01" style="fill:none;stroke:#1B9692" />
<path d="M410.38,164.3L415.38,164.3" style="fill:none;stroke:#1B9692" />
<path d="M416.62,146.1L416.62,173.55" style="fill:none;stroke:#1B9692" />
<path d="M414.12,146.1L419.12,146.1" style="fill:none;stroke:#1B9692" />
<path d="M414.12,173.55L419.12,173.55" style="fill:none;stroke:#1B9692" />
<path d="M420.36,154.71L420.36,177.64" style="fill:none;stroke:#1B9692" />
<path d="M417.86,154.71L422.86,154.71" style="fill:none;stroke:#1B9692" />
<path d="M417.86,177.64L422.86,177.64" style="fill:none;stroke:#1B9692" />
<path d="M424.1,145.65L424.1,161.93" style="fill:none;stroke:#1B9692" />
<path d="M421.6,145.65L426.6,145.65" style="fill:none;stroke:#1B9692" />
<path d="M421.6,161.93L426.6,161.93" style="fill:none;stroke:#1B9692" />
<path d="M427.84,147.21L427.84,157.68" style="fill:none;stroke:#1B9692" />
<path d="M425.34,147.21L430.34,147.21" style="fill:none;stroke:#1B9692" />
<path d="M425.34,157.68L430.34,157.68" style="fill:none;stroke:#1B9692" />
<path d="M431.58,147.11L431.58,161.3" style="fill:none;stroke:#1B9692" />
<path d="M429.08,147.11L434.08,147.11" style="fill:none;stroke:#1B9692" />
<path d="M429.08,161.3L434.08,161.3" style="fill:none;stroke:#1B9692" />
<path d="M435.31,154.03L435.31,169.76" style="fill:none;stroke:#1B9692" />
<path d="M432.81,154.03L437.81,154.03" style="fill:none;stroke:#1B9692" />
<path d="M432.81,169.76L437.81,169.76" style="fill:none;stroke:#1B9692" />
<path d="M439.05,162.25L439.05,172.32" style="fill:none;stroke:#1B9692" />
<path d="M436.55,162.25L441.55,162.25" style="fill:none;stroke:#1B9692" />
<path d="M436.55,172.32L441.55,172.32" style="fill:none;stroke:#1B9692" />
<path d="M442.79,159.13L442.79,172.82" style="fill:none;stroke:#1B9692" />
<path d="M440.29,159.13L445.29,159.13" style="fill:none;stroke:#1B9692" />
<path d="M440.29,172.82L445.29,172.82" style="fill:none;stroke:#1B9692" />
<path d="M446.53,160.5L446.53,183.42" style="fill:none;stroke:#1B9692" />
<path d="M444.03,160.5L449.03,160.5" style="fill:none;stroke:#1B9692" />
<path d="M444.03,183.42L449.03,183.42" style="fill:none;stroke:#1B9692" />
<path d="M450.27,184.94L450.27,188.75" style="fill:none;stroke:#1B9692" />
<path d="M447.77,184.94L452.77,184.94" style="fill:none;stroke:#1B9692" />
<path d="M447.77,188.75L452.77,188.75" style="fill:none;stroke:#1B9692" />
<path d="M454.01,179.87L454.01,187.22" style="fill:none;stroke:#1B9692" />
<path d="M451.51,179.87L456.51,179.87" style="fill:none;stroke:#1B9692" />
<path d="M451.51,187.22L456.51,187.22" style="fill:none;stroke:#1B9692" />
<path d="M457.75,181.69L457.75,206.83" style="fill:none;stroke:#1B9692" />
<path d="M455.25,181.69L460.25,181.69" style="fill:none;stroke:#1B9692" />
<path d="M455.25,206.83L460.25,206.83" style="fill:none;stroke:#1B9692" />
<path d="M461.49,196.53L461.49,224.91" style="fill:none;stroke:#1B9692" />
<path d="M458.99,196.53L463.99,196.53" style="fill:none;stroke:#1B9692" />
<path d="M458.99,224.91L463.99,224.91" style="fill:none;stroke:#1B9692" />
<path d="M465.22,206.37L465.22,224.42" style="fill:none;stroke:#1B9692" />
<path d="M462.72,206.37L467.72,206.37" style="fill:none;stroke:#1B9692" />
<path d="M462.72,224.42L467.72,224.42" style="fill:none;stroke:#1B9692" />
<path d="M468.96,209.91L468.96,230.14" style="fill:none;stroke:#1B9692" />
<path d="M466.46,209.91L471.46,209.91" style="fill:none;stroke:#1B9692" />
<path d="M466.46,230.14L471.46,230.14" style="fill:none;stroke:#1B9692" />
<path d="M472.7,216.69L472.7,252.56" style="fill:none;stroke:#1B9692" />
<path d="M470.2,216.69L475.2,216.69" style="fill:none;stroke:#1B9692" />
<path d="M470.2,252.56L475.2,252.56" style="fill:none;stroke:#1B9692" />
<path d="M476.44,219.51L476.44,264.48" style="fill:none;stroke:#1B9692" />
<path d="M473.94,219.51L478.94,219.51" style="fill:none;stroke:#1B9692" />
<path d="M473.94,264.48L478.94,264.48" style="fill:none;stroke:#1B9692" />
<path d="M480.18,242.69L480.18,278.74" style="fill:none;stroke:#1B9692" />
<path d="M477.68,242.69L482.68,242.69" style="fill:none;stroke:#1B9692" />
<path d="M477.68,278.74L482.68,278.74" style="fill:none;stroke:#1B9692" />
<path d="M483.92,262.73L483.92,281.92" style="fill:none;stroke:#1B9692" />
<path d="M481.42,262.73L486.42,262.73" style="fill:none;stroke:#1B9692" />
<path d="M481.42,281.92L486.42,281.92" style="fill:none;stroke:#1B9692" />
<path d="M487.66,287.02L487.66,303.6" style="fill:none;stroke:#1B9692" />
<path d="M485.16,287.02L490.16,287.02" style="fill:none;stroke:#1B9692" />
<path d="M485.16,303.6L490.16,303.6" style="fill:none;stroke:#1B9692" />
<path d="M491.4,303.49L491.4,315.18" style="fill:none;stroke:#1B9692" />
<path d="M488.9,303.49L493.9,303.49" style="fill:none;stroke:#1B9692" />
<path d="M488.9,315.18L493.9,315.18" style="fill:none;stroke:#1B9692" />
<path d="M495.14,320.55L495.14,328.69" style="fill:none;stroke:#1B9692" />
<path d="M492.64,320.55L497.64,320.55" style="fill:none;stroke:#1B9692" />
<path d="M492.64,328.69L497.64,328.69" style="fill:none;stroke:#1B9692" />
<path d="M498.87,343.93L498.87,359.26" style="fill:none;stroke:#1B9692" />
<path d="M496.37,343.93L501.37,343.93" style="fill:none;stroke:#1B9692" />
<path d="M496.37,359.26L501.37,359.26" style="fill:none;stroke:#1B9692" />
<path d="M502.61,356.12L502.61,368.61" style="fill:none;stroke:#1B9692" />
<path d="M500.11,356.12L505.11,356.12" style="fill:none;stroke:#1B9692" />
<path d="M500.11,368.61L505.11,368.61" style="fill:none;stroke:#1B9692" />
<path d="M506.35,379.95L506.35,406.65" style="fill:none;stroke:#1B9692" />
<path d="M503.85,379.95L508.85,379.95" style="fill:none;stroke:#1B9692" />
<path d="M503.85,406.65L508.85,406.65" style="fill:none;stroke:#1B9692" />
<path d="M510.09,408.37L510.09,413.78" style="fill:none;stroke:#1B9692" />
<path d="M507.59,408.37L512.59,408.37" style="fill:none;stroke:#1B9692" />
<path d="M507.59,413.78L512.59,413.78" style="fill:none;stroke:#1B9692" />
<path d="M513.83,422.07L513.83,426.67" style="fill:none;stroke:#1B9692" />
<path d="M511.33,422.07L516.33,422.07" style="fill:none;stroke:#1B9692" />
<path d="M511.33,426.67L516.33,426.67" style="fill:none;stroke:#1B9692" />
<path d="M517.57,432.4L517.57,451" style="fill:none;stroke:#1B9692" />
<path d="M515.07,432.4L520.07,432.4" style="fill:none;stroke:#1B9692" />
<path d="M515.07,451L520.07,451" style="fill:none;stroke:#1B9692" />
<path d="M521.31,441.39L521.31,462.93" style="fill:none;stroke:#1B9692" />
<path d="M518.81,441.39L523.81,441.39" style="fill:none;stroke:#1B9692" />
<path d="M518.81,462.93L523.81,462.93" style="fill:none;stroke:#1B9692" />
<path d="M525.05,460.48L525.05,474.64" style="fill:none;stroke:#1B9692" />
<path d="M522.55,460.48L527.55,460.48" style="fill:none;stroke:#1B9692" />
<path d="M522.55,474.64L527.55,474.64" style="fill:none;stroke:#1B9692" />
<path d="M528.78,465.87L528.78,478.74" style="fill:none;stroke:#1B9692" />
<path d="M526.28,465.87L531.28,465.87" style="fill:none;stroke:#1B9692" />
<path d="M526.28,478.74L531.28,478.74" style="fill:none;stroke:#1B9692" />
<path d="M532.52,474.04L532.52,477.79" style="fill:none;stroke:#1B9692" />
<path d="M530.02,474.04L535.02,474.04" style="fill:none;stroke:#1B9692" />
<path d="M530.02,477.79L535.02,477.79" style="fill:none;stroke:#1B9692" />
<path d="M536.26,467.8L536.26,471.95" style="fill:none;stroke:#1B9692" />
<path d="M533.76,467.8L538.76,467.8" style="fill:none;stroke:#1B9692" />
<path d="M533.76,471.95L538.76,471.95" style="fill:none;stroke:#1B9692" />
<path d="M540,458.37L540,480.87" style="fill:none;stroke:#1B9692" />
<path d="M537.5,458.37L542.5,458.37" style="fill:none;stroke:#1B9692" />
<path d="M537.5,480.87L542.5,480.87" style="fill:none;stroke:#1B9692" />
<path d="M543.74,464.18L543.74,477.18" style="fill:none;stroke:#1B9692" />
<path d="M541.24,464.18L546.24,464.18" style="fill:none;stroke:#1B9692" />
<path d="M541.24,477.18L546.24,477.18" style="fill:none;stroke:#1B9692" />
<path d="M547.48,465.1L547.48,471.44" style="fill:none;stroke:#1B9692" />
<path d="M544.98,465.1L549.98,465.1" style="fill:none;stroke:#1B9692" />
<path d="M544.98,471.44L549.98,471.44" style="fill:none;stroke:#1B9692" />
<path d="M551.22,452.33L551.22,461.04" style="fill:none;stroke:#1B9692" />
<path d="M548.72,452.33L553.72,452.33" style="fill:none;stroke:#1B9692" />
<path d="M548.72,461.04L553.72,461.04" style="fill:none;stroke:#1B9692" />
<path d="M554.96,448.41L554.96,452.36" style="fill:none;stroke:#1B9692" />
<path d="M552.46,448.41L557.46,448.41" style="fill:none;stroke:#1B9692" />
<path d="M552.46,452.36L557.46,452.36" style="fill:none;stroke:#1B9692" />
<path d="M558.7,434.85L558.7,457.85" style="fill:none;stroke:#1B9692" />
<path d="M556.2,434.85L561.2,434.85" style="fill:none;stroke:#1B9692" />
<path d="M556.2,457.85L561.2,457.85" style="fill:none;stroke:#1B9692" />
<path d="M562.43,432.45L562.43,440.36" style="fill:none;stroke:#1B9692" />
<path d="M559.93,432.45L564.93,432.45" style="fill:none;stroke:#1B9692" />
<path d="M559.93,440.36L564.93,440.36" style="fill:none;stroke:#1B9692" />
<path d="M566.17,423.11L566.17,439.48" style="fill:none;stroke:#1B9692" />
<path d="M563.67,423.11L568.67,423.11" style="fill:none;stroke:#1B9692" />
<path d="M563.67,439.48L568.67,439.48" style="fill:none;stroke:#1B9692" />
<path d="M569.91,399.73L569.91,428.99" style="fill:none;stroke:#1B9692" />
<path d="M567.41,399.73L572.41,399.73" style="fill:none;stroke:#1B9692" />
<path d="M567.41,428.99L572.41,428.99" style="fill:none;stroke:#1B9692" />
<path d="M573.65,385.71L573.65,415.09" style="fill:none;stroke:#1B9692" />
<path d="M571.15,385.71L576.15,385.71" style="fill:none;stroke:#1B9692" />
<path d="M571.15,415.09L576.15,415.09" style="fill:none;stroke:#1B9692" />
<path d="M577.39,367.36L577.39,407.17" style="fill:none;stroke:#1B9692" />
<path d="M574.89,367.36L579.89,367.36" style="fill:none;stroke:#1B9692" />
<path d="M574.89,407.17L579.89,407.17" style="fill:none;stroke:#1B9692" />
<path d="M581.13,368.5L581.13,405.77" style="fill:none;stroke:#1B9692" />
<path d="M578.63,368.5L583.63,368.5" style="fill:none;stroke:#1B9692" />
<path d="M578.63,405.77L583.63,405.77" style="fill:none;stroke:#1B9692" />
<path d="M584.87,317.12L584.87,338.95" style="fill:none;stroke:#1B9692" />
<path d="M582.37,317.12L587.37,317.12" style="fill:none;stroke:#1B9692" />
<path d="M582.37,338.95L587.37,338.95" style="fill:none;stroke:#1B9692" />
<path d="M588.61,256.11L588.61,288.89" style="fill:none;stroke:#1B9692" />
<path d="M586.11,256.11L591.11,256.11" style="fill:none;stroke:#1B9692" />
<path d="M586.11,288.89L591.11,288.89" style="fill:none;stroke:#1B9692" />
<path d="M592.34,222.24L592.34,269.12" style="fill:none;stroke:#1B9692" />
<path d="M589.84,222.24L594.84,222.24" style="fill:none;stroke:#1B9692" />
<path d="M589.84,269.12L594.84,269.12" style="fill:none;stroke:#1B9692" />
<path d="M596.08,169.55L596.08,262.15" style="fill:none;stroke:#1B9692" />
<path d="M593.58,169.55L598.58,169.55" style="fill:none;stroke:#1B9692" />
<path d="M593.58,262.15L598.58,262.15" style="fill:none;stroke:#1B9692" />
<path d="M599.82,213.22L599.82,300.03" style="fill:none;stroke:#1B9692" />
<path d="M597.32,213.22L602.32,213.22" style="fill:none;stroke:#1B9692" />
<path d="M597.32,300.03L602.32,300.03" style="fill:none;stroke:#1B9692" />
<path d="M603.56,202.61L603.56,313.75" style="fill:none;stroke:#1B9692" />
<path d="M601.06,202.61L606.06,202.61" style="fill:none;stroke:#1B9692" />
<path d="M601.06,313.75L606.06,313.75" style="fill:none;stroke:#1B9692" />
<path d="M607.3,206.22L607.3,327.76" style="fill:none;stroke:#1B9692" />
<path d="M604.8,206.22L609.8,206.22" style="fill:none;stroke:#1B9692" />
<path d="M604.8,327.76L609.8,327.76" style="fill:none;stroke:#1B9692" />
<path d="M611.04,238.13L611.04,303.2" style="fill:none;stroke:#1B9692" />
<path d="M608.54,238.13L613.54,238.13" style="fill:none;stroke:#1B9692" />
<path d="M608.54,303.2L613.54,303.2" style="fill:none;stroke:#1B9692" />
<path d="M614.78,264.8L614.78,308.44" style="fill:none;stroke:#1B9692" />
<path d="M612.28,264.8L617.28,264.8" style="fill:none;stroke:#1B9692" />
<path d="M612.28,308.44L617.28,308.44" style="fill:none;stroke:#1B9692" />
<path d="M618.52,262.76L618.52,332.58" style="fill:none;stroke:#1B9692" />
<path d="M616.02,262.76L621.02,262.76" style="fill:none;stroke:#1B9692" />
<path d="M616.02,332.58L621.02,332.58" style="fill:none;stroke:#1B9692" />
<path d="M622.26,262.65L622.26,300.92" style="fill:none;stroke:#1B9692" />
<path d="M619.76,262.65L624.76,262.65" style="fill:none;stroke:#1B9692" />
<path d="M619.76,300.92L624.76,300.92" style="fill:none;stroke:#1B9692" />
<path d="M625.99,230.82L625.99,257.21" style="fill:none;stroke:#1B9692" />
<path d="M623.49,230.82L628.49,230.82" style="fill:none;stroke:#1B9692" />
<path d="M623.49,257.21L628.49,257.21" style="fill:none;stroke:#1B9692" />
<path d="M629.73,222.65L629.73,261.05" style="fill:none;stroke:#1B9692" />
<path d="M627.23,222.65L632.23,222.65" style="fill:none;stroke:#1B9692" />
<path d="M627.23,261.05L632.23,261.05" style="fill:none;stroke:#1B9692" />
<path d="M633.47,192.34L633.47,210.26" style="fill:none;stroke:#1B9692" />
<path d="M630.97,192.34L635.97,192.34" style="fill:none;stroke:#1B9692" />
<path d="M630.97,210.26L635.97,210.26" style="fill:none;stroke:#1B9692" />
<path d="M637.21,192.63L637.21,218.95" style="fill:none;stroke:#1B9692" />
<path d="M634.71,192.63L639.71,192.63" style="fill:none;stroke:#1B9692" />
<path d="M634.71,218.95L639.71,218.95" style="fill:none;stroke:#1B9692" />
<path d="M640.95,179.19L640.95,216.55" style="fill:none;stroke:#1B9692" />
<path d="M638.45,179.19L643.45,179.19" style="fill:none;stroke:#1B9692" />
<path d="M638.45,216.55L643.45,216.55" style="fill:none;stroke:#1B9692" />
<path d="M644.69,176.05L644.69,201.85" style="fill:none;stroke:#1B9692" />
<path d="M642.19,176.05L647.19,176.05" style="fill:none;stroke:#1B9692" />
<path d="M642.19,201.85L647.19,201.85" style="fill:none;stroke:#1B9692" />
<path d="M648.43,201.85L648.43,211.23" style="fill:none;stroke:#1B9692" />
<path d="M645.93,201.85L650.93,201.85" style="fill:none;stroke:#1B9692" />
<path d="M645.93,211.23L650.93,211.23" style="fill:none;stroke:#1B9692" />
<path d="M652.17,210.32L652.17,229.04" style="fill:none;stroke:#1B9692" />
<path d="M649.67,210.32L654.67,210.32" style="fill:none;stroke:#1B9692" />
<path d="M649.67,229.04L654.67,229.04" style="fill:none;stroke:#1B9692" />
<path d="M655.9,178.61L655.9,235.88" style="fill:none;stroke:#1B9692" />
<path d="M653.4,178.61L658.4,178.61" style="fill:none;stroke:#1B9692" />
<path d="M653.4,235.88L658.4,235.88" style="fill:none;stroke:#1B9692" />
<path d="M659.64,203.65L659.64,229.72" style="fill:none;stroke:#1B9692" />
<path d="M657.14,203.65L662.14,203.65" style="fill:none;stroke:#1B9692" />
<path d="M657.14,229.72L662.14,229.72" style="fill:none;stroke:#1B9692" />
<path d="M663.38,187.33L663.38,211.37" style="fill:none;stroke:#1B9692" />
<path d="M660.88,187.33L665.88,187.33" style="fill:none;stroke:#1B9692" />
<path d="M660.88,211.37L665.88,211.37" style="fill:none;stroke:#1B9692" />
<path d="M667.12,194.41L667.12,214.32" style="fill:none;stroke:#1B9692" />
<path d="M664.62,194.41L669.62,194.41" style="fill:none;stroke:#1B9692" />
<path d="M664.62,214.32L669.62,214.32" style="fill:none;stroke:#1B9692" />
<path d="M670.86,180.4L670.86,198.68" style="fill:none;stroke:#1B9692" />
<path d="M668.36,180.4L673.36,180.4" style="fill:none;stroke:#1B9692" />
<path d="M668.36,198.68L673.36,198.68" style="fill:none;stroke:#1B9692" />
<path d="M674.6,173.75L674.6,203.81" style="fill:none;stroke:#1B9692" />
<path d="M672.1,173.75L677.1,173.75" style="fill:none;stroke:#1B9692" />
<path d="M672.1,203.81L677.1,203.81" style="fill:none;stroke:#1B9692" />
<path d="M678.34,175.07L678.34,190.81" style="fill:none;stroke:#1B9692" />
<path d="M675.84,175.07L680.84,175.07" style="fill:none;stroke:#1B9692" />
<path d="M675.84,190.81L680.84,190.81" style="fill:none;stroke:#1B9692" />
<path d="M682.08,158.54L682.08,166.12" style="fill:none;stroke:#1B9692" />
<path d="M679.58,158.54L684.58,158.54" style="fill:none;stroke:#1B9692" />
<path d="M679.58,166.12L684.58,166.12" style="fill:none;stroke:#1B9692" />
<path d="M685.81,145.17L685.81,160.4" style="fill:none;stroke:#1B9692" />
<path d="M683.31,145.17L688.31,145.17" style="fill:none;stroke:#1B9692" />
<path d="M683.31,160.4L688.31,160.4" style="fill:none;stroke:#1B9692" />
<path d="M689.55,130.56L689.55,145.43" style="fill:none;stroke:#1B9692" />
<path d="M687.05,130.56L692.05,130.56" style="fill:none;stroke:#1B9692" />
<path d="M687.05,145.43L692.05,145.43" style="fill:none;stroke:#1B9692" />
<path d="M693.29,122.75L693.29,142.5" style="fill:none;stroke:#1B9692" />
<path d="M690.79,122.75L695.79,122.75" style="fill:none;stroke:#1B9692" />
<path d="M690.79,142.5L695.79,142.5" style="fill:none;stroke:#1B9692" />
<path d="M697.03,131.37L697.03,137.68" style="fill:none;stroke:#1B9692" />
<path d="M694.53,131.37L699.53,131.37" style="fill:none;stroke:#1B9692" />
<path d="M694.53,137.68L699.53,137.68" style="fill:none;stroke:#1B9692" />
<path d="M700.77,121.48L700.77,139.48" style="fill:none;stroke:#1B9692" />
<path d="M698.27,121.48L703.27,121.48" style="fill:none;stroke:#1B9692" />
<path d="M698.27,139.48L703.27,139.48" style="fill:none;stroke:#1B9692" />
<path d="M704.51,123.78L704.51,139.85" style="fill:none;stroke:#1B9692" />
<path d="M702.01,123.78L707.01,123.78" style="fill:none;stroke:#1B9692" />
<path d="M702.01,139.85L707.01,139.85" style="fill:none;stroke:#1B9692" />
<path d="M708.25,124.85L708.25,149.19" style="fill:none;stroke:#1B9692" />
<path d="M705.75,124.85L710.75,124.85" style="fill:none;stroke:#1B9692" />
<path d="M705.75,149.19L710.75,149.19" style="fill:none;stroke:#1B9692" />
<path d="M711.99,132.87L711.99,152.32" style="fill:none;stroke:#1B9692" />
<path d="M709.49,132.87L714.49,132.87" style="fill:none;stroke:#1B9692" />
<path d="M709.49,152.32L714.49,152.32" style="fill:none;stroke:#1B9692" />
<path d="M715.73,129.58L715.73,140.16" style="fill:none;stroke:#1B9692" />
<path d="M713.23,129.58L718.23,129.58" style="fill:none;stroke:#1B9692" />
<path d="M713.23,140.16L718.23,140.16" style="fill:none;stroke:#1B9692" />
<path d="M719.46,126.13L719.46,133.05" style="fill:none;stroke:#1B9692" />
<path d="M716.96,126.13L721.96,126.13" style="fill:none;stroke:#1B9692" />
<path d="M716.96,133.05L721.96,133.05" style="fill:none;stroke:#1B9692" />
<path d="M723.2,118.62L723.2,126.64" style="fill:none;stroke:#1B9692" />
<path d="M720.7,118.62L725.7,118.62" style="fill:none;stroke:#1B9692" />
<path d="M720.7,126.64L725.7,126.64" style="fill:none;stroke:#1B9692" />
<path d="M726.94,123.7L726.94,131.51" style="fill:none;stroke:#1B9692" />
<path d="M724.44,123.7L729.44,123.7" style="fill:none;stroke:#1B9692" />
<path d="M724.44,131.51L729.44,131.51" style="fill:none;stroke:#1B9692" />
<path d="M730.68,118.16L730.68,128.22" style="fill:none;stroke:#1B9692" />
<path d="M728.18,118.16L733.18,118.16" style="fill:none;stroke:#1B9692" />
<path d="M728.18,128.22L733.18,128.22" style="fill:none;stroke:#1B9692" />
<path d="M734.42,117.44L734.42,123.26" style="fill:none;stroke:#1B9692" />
<path d="M731.92,117.44L736.92,117.44" style="fill:none;stroke:#1B9692" />
<path d="M731.92,123.26L736.92,123.26" style="fill:none;stroke:#1B9692" />
<path d="M738.16,113.93L738.16,121.89" style="fill:none;stroke:#1B9692" />
<path d="M735.66,113.93L740.66,113.93" style="fill:none;stroke:#1B9692" />
<path d="M735.66,121.89L740.66,121.89" style="fill:none;stroke:#1B9692" />
<path d="M741.9,120.83L741.9,123.28" style="fill:none;stroke:#1B9692" />
<path d="M739.4,120.83L744.4,120.83" style="fill:none;stroke:#1B9692" />
<path d="M739.4,123.28L744.4,123.28" style="fill:none;stroke:#1B9692" />
<path d="M745.64,115.24L745.64,123.72" style="fill:none;stroke:#1B9692" />
<path d="M743.14,115.24L748.14,115.24" style="fill:none;stroke:#1B9692" />
<path d="M743.14,123.72L748.14,123.72" style="fill:none;stroke:#1B9692" />
<path d="M749.37,117.76L749.37,120.87" style="fill:none;stroke:#1B9692" />
<path d="M746.87,117.76L751.87,117.76" style="fill:none;stroke:#1B9692" />
<path d="M746.87,120.87L751.87,120.87" style="fill:none;stroke:#1B9692" />
<path d="M753.11,118.55L753.11,121.39" style="fill:none;stroke:#1B9692" />
<path d="M750.61,118.55L755.61,118.55" style="fill:none;stroke:#1B9692" />
<path d="M750.61,121.39L755.61,121.39" style="fill:none;stroke:#1B9692" />
<path d="M756.85,120.07L756.85,122.07" style="fill:none;stroke:#1B9692" />
<path d="M754.35,120.07L759.35,120.07" style="fill:none;stroke:#1B9692" />
<path d="M754.35,122.07L759.35,122.07" style="fill:none;stroke:#1B9692" />
<path d="M760.59,117.64L760.59,124.1" style="fill:none;stroke:#1B9692" />
<path d="M758.09,117.64L763.09,117.64" style="fill:none;stroke:#1B9692" />
<path d="M758.09,124.1L763.09,124.1" style="fill:none;stroke:#1B9692" />
<path d="M764.33,121.7L764.33,127.12" style="fill:none;stroke:#1B9692" />
<path d="M761.83,121.7L766.83,121.7" style="fill:none;stroke:#1B9692" />
<path d="M761.83,127.12L766.83,127.12" style="fill:none;stroke:#1B9692" />
<path d="M768.07,119.49L768.07,126.9" style="fill:none;stroke:#1B9692" />
<path d="M765.57,119.49L770.57,119.49" style="fill:none;stroke:#1B9692" />
<path d="M765.57,126.9L770.57,126.9" style="fill:none;stroke:#1B9692" />
<path d="M771.81,119.39L771.81,123.41" style="fill:none;stroke:#1B9692" />
<path d="M769.31,119.39L774.31,119.39" style="fill:none;stroke:#1B9692" />
<path d="M769.31,123.41L774.31,123.41" style="fill:none;stroke:#1B9692" />
<path d="M775.55,121.36L775.55,125.01" style="fill:none;stroke:#1B9692" />
<path d="M773.05,121.36L778.05,121.36" style="fill:none;stroke:#1B9692" />
<path d="M773.05,125.01L778.05,125.01" style="fill:none;stroke:#1B9692" />
<path d="M779.29,122.01L779.29,126.61" style="fill:none;stroke:#1B9692" />
<path d="M776.79,122.01L781.79,122.01" style="fill:none;stroke:#1B9692" />
<path d="M776.79,126.61L781.79,126.61" style="fill:none;stroke:#1B9692" />
<path d="M783.02,120.86L783.02,123.58" style="fill:none;stroke:#1B9692" />
<path d="M780.52,120.86L785.52,120.86" style="fill:none;stroke:#1B9692" />
<path d="M780.52,123.58L785.52,123.58" style="fill:none;stroke:#1B9692" />
<path d="M786.76,121.03L786.76,125.15" style="fill:none;stroke:#1B9692" />
<path d="M784.26,121.03L789.26,121.03" style="fill:none;stroke:#1B9692" />
<path d="M784.26,125.15L789.26,125.15" style="fill:none;stroke:#1B9692" />
<path d="M790.5,118.48L790.5,123.37" style="fill:none;stroke:#1B9692" />
<path d="M788,118.48L793,118.48" style="fill:none;stroke:#1B9692" />
<path d="M788,123.37L793,123.37" style="fill:none;stroke:#1B9692" />
<path d="M794.24,120.72L794.24,126.55" style="fill:none;stroke:#1B9692" />
<path d="M791.74,120.72L796.74,120.72" style="fill:none;stroke:#1B9692" />
<path d="M791.74,126.55L796.74,126.55" style="fill:none;stroke:#1B9692" />
<path d="M797.98,118.38L797.98,124.55" style="fill:none;stroke:#1B9692" />
<path d="M795.48,118.38L800.48,118.38" style="fill:none;stroke:#1B9692" />
<path d="M795.48,124.55L800.48,124.55" style="fill:none;stroke:#1B9692" />
<path d="M801.72,117.16L801.72,126.08" style="fill:none;stroke:#1B9692" />
<path d="M799.22,117.16L804.22,117.16" style="fill:none;stroke:#1B9692" />
<path d="M799.22,126.08L804.22,126.08" style="fill:none;stroke:#1B9692" />
<path d="M805.46,116.99L805.46,128.28" style="fill:none;stroke:#1B9692" />
<path d="M802.96,116.99L807.96,116.99" style="fill:none;stroke:#1B9692" />
<path d="M802.96,128.28L807.96,128.28" style="fill:none;stroke:#1B9692" />
<path d="M809.2,121.42L809.2,128.91" style="fill:none;stroke:#1B9692" />
<path d="M806.7,121.42L811.7,121.42" style="fill:none;stroke:#1B9692" />
<path d="M806.7,128.91L811.7,128.91" style="fill:none;stroke:#1B9692" />
<path d="M812.93,123.6L812.93,128.97" style="fill:none;stroke:#1B9692" />
<path d="M810.43,123.6L815.43,123.6" style="fill:none;stroke:#1B9692" />
<path d="M810.43,128.97L815.43,128.97" style="fill:none;stroke:#1B9692" />
<path d="M816.67,123.95L816.67,128.69" style="fill:none;stroke:#1B9692" />
<path d="M814.17,123.95L819.17,123.95" style="fill:none;stroke:#1B9692" />
<path d="M814.17,128.69L819.17,128.69" style="fill:none;stroke:#1B9692" />
<path d="M820.41,123.34L820.41,124.36" style="fill:none;stroke:#1B9692" />
<path d="M817.91,123.34L822.91,123.34" style="fill:none;stroke:#1B9692" />
<path d="M817.91,124.36L822.91,124.36" style="fill:none;stroke:#1B9692" />
<path d="M824.15,121.37L824.15,122.72" style="fill:none;stroke:#1B9692" />
<path d="M821.65,121.37L826.65,121.37" style="fill:none;stroke:#1B9692" />
<path d="M821.65,122.72L826.65,122.72" style="fill:none;stroke:#1B9692" />
<path d="M827.89,121.27L827.89,122.38" style="fill:none;stroke:#1B9692" />
<path d="M825.39,121.27L830.39,121.27" style="fill:none;stroke:#1B9692" />
<path d="M825.39,122.38L830.39,122.38" style="fill:none;stroke:#1B9692" />
<path d="M831.63,119.51L831.63,119.79" style="fill:none;stroke:#1B9692" />
<path d="M829.13,119.51L834.13,119.51" style="fill:none;stroke:#1B9692" />
<path d="M829.13,119.79L834.13,119.79" style="fill:none;stroke:#1B9692" />
<path d="M835.37,118.94L835.37,119.79" style="fill:none;stroke:#1B9692" />
<path d="M832.87,118.94L837.87,118.94" style="fill:none;stroke:#1B9692" />
<path d="M832.87,119.79L837.87,119.79" style="fill:none;stroke:#1B9692" />
<path d="M839.11,118.07L839.11,120.53" style="fill:none;stroke:#1B9692" />
<path d="M836.61,118.07L841.61,118.07" style="fill:none;stroke:#1B9692" />
<path d="M836.61,120.53L841.61,120.53" style="fill:none;stroke:#1B9692" />
<path d="M842.85,117.62L842.85,121.68" style="fill:none;stroke:#1B9692" />
<path d="M840.35,117.62L845.35,117.62" style="fill:none;stroke:#1B9692" />
<path d="M840.35,121.68L845.35,121.68" style="fill:none;stroke:#1B9692" />
<path d="M846.58,118.02L846.58,120.19" style="fill:none;stroke:#1B9692" />
<path d="M844.08,118.02L849.08,118.02" style="fill:none;stroke:#1B9692" />
<path d="M844.08,120.19L849.08,120.19" style="fill:none;stroke:#1B9692" />
<path d="M850.32,117.77L850.32,119.87" style="fill:none;stroke:#1B9692" />
<path d="M847.82,117.77L852.82,117.77" style="fill:none;stroke:#1B9692" />
<path d="M847.82,119.87L852.82,119.87" style="fill:none;stroke:#1B9692" />
<path d="M854.06,116.34L854.06,119.19" style="fill:none;stroke:#1B9692" />
<path d="M851.56,116.34L856.56,116.34" style="fill:none;stroke:#1B9692" />
<path d="M851.56,119.19L856.56,119.19" style="fill:none;stroke:#1B9692" />
<path d="M857.8,118.43L857.8,120.37" style="fill:none;stroke:#1B9692" />
<path d="M855.3,118.43L860.3,118.43" style="fill:none;stroke:#1B9692" />
<path d="M855.3,120.37L860.3,120.37" style="fill:none;stroke:#1B9692" />
<path d="M861.54,119.08L861.54,119.35" style="fill:none;stroke:#1B9692" />
<path d="M859.04,119.08L864.04,119.08" style="fill:none;stroke:#1B9692" />
<path d="M859.04,119.35L864.04,119.35" style="fill:none;stroke:#1B9692" />
<path d="M865.28,117.69L865.28,118.57" style="fill:none;stroke:#1B9692" />
<path d="M862.78,117.69L867.78,117.69" style="fill:none;stroke:#1B9692" />
<path d="M862.78,118.57L867.78,118.57" style="fill:none;stroke:#1B9692" />
<path d="M869.02,116.8L869.02,118.84" style="fill:none;stroke:#1B9692" />
<path d="M866.52,116.8L871.52,116.8" style="fill:none;stroke:#1B9692" />
<path d="M866.52,118.84L871.52,118.84" style="fill:none;stroke:#1B9692" />
<path d="M872.76,116.79L872.76,117.14" style="fill:none;stroke:#1B9692" />
<path d="M870.26,116.79L875.26,116.79" style="fill:none;stroke:#1B9692" />
<path d="M870.26,117.14L875.26,117.14" style="fill:none;stroke:#1B9692" />
<path d="M876.49,116.43L876.49,117.59" style="fill:none;stroke:#1B9692" />
<path d="M873.99,116.43L878.99,116.43" style="fill:none;stroke:#1B9692" />
<path d="M873.99,117.59L878.99,117.59" style="fill:none;stroke:#1B9692" />
<path d="M880.23,115.28L880.23,117.11" style="fill:none;stroke:#1B9692" />
<path d="M877.73,115.28L882.73,115.28" style="fill:none;stroke:#1B9692" />
<path d="M877.73,117.11L882.73,117.11" style="fill:none;stroke:#1B9692" />
<path d="M883.97,115.78L883.97,117.75" style="fill:none;stroke:#1B9692" />
<path d="M881.47,115.78L886.47,115.78" style="fill:none;stroke:#1B9692" />
<path d="M881.47,117.75L886.47,117.75" style="fill:none;stroke:#1B9692" />
<path d="M887.71,115.73L887.71,116.76" style="fill:none;stroke:#1B9692" />
<path d="M885.21,115.73L890.21,115.73" style="fill:none;stroke:#1B9692" />
<path d="M885.21,116.76L890.21,116.76" style="fill:none;stroke:#1B9692" />
<path d="M891.45,114.82L891.45,115.08" style="fill:none;stroke:#1B9692" />
<path d="M888.95,114.82L893.95,114.82" style="fill:none;stroke:#1B9692" />
<path d="M888.95,115.08L893.95,115.08" style="fill:none;stroke:#1B9692" />
<path d="M895.19,113.86L895.19,114.33" style="fill:none;stroke:#1B9692" />
<path d="M892.69,113.86L897.69,113.86" style="fill:none;stroke:#1B9692" />
<path d="M892.69,114.33L897.69,114.33" style="fill:none;stroke:#1B9692" />
<path d="M898.93,115.02L898.93,115.18" style="fill:none;stroke:#1B9692" />
<path d="M896.43,115.02L901.43,115.02" style="fill:none;stroke:#1B9692" />
<path d="M896.43,115.18L901.43,115.18" style="fill:none;stroke:#1B9692" />
<path d="M902.67,114.45L902.67,116.13" style="fill:none;stroke:#1B9692" />
<path d="M900.17,114.45L905.17,114.45" style="fill:none;stroke:#1B9692" />
<path d="M900.17,116.13L905.17,116.13" style="fill:none;stroke:#1B9692" />
<path d="M906.41,113.8L906.41,114.64" style="fill:none;stroke:#1B9692" />
<path d="M903.91,113.8L908.91,113.8" style="fill:none;stroke:#1B9692" />
<path d="M903.91,114.64L908.91,114.64" style="fill:none;stroke:#1B9692" />
<path d="M910.14,114.33L910.14,115.11" style="fill:none;stroke:#1B9692" />
<path d="M907.64,114.33L912.64,114.33" style="fill:none;stroke:#1B9692" />
<path d="M907.64,115.11L912.64,115.11" style="fill:none;stroke:#1B9692" />
<path d="M913.88,115.33L913.88,116" style="fill:none;stroke:#1B9692" />
<path d="M911.38,115.33L916.38,115.33" style="fill:none;stroke:#1B9692" />
<path d="M911.38,116L916.38,116" style="fill:none;stroke:#1B9692" />
<path d="M917.62,113.04L917.62,115.62" style="fill:none;stroke:#1B9692" />
<path d="M915.12,113.04L920.12,113.04" style="fill:none;stroke:#1B9692" />
<path d="M915.12,115.62L920.12,115.62" style="fill:none;stroke:#1B9692" />
<path d="M921.36,113.89L921.36,114.55" style="fill:none;stroke:#1B9692" />
<path d="M918.86,113.89L923.86,113.89" style="fill:none;stroke:#1B9692" />
<path d="M918.86,114.55L923.86,114.55" style="fill:none;stroke:#1B9692" />
<path d="M925.1,113.97L925.1,114.35" style="fill:none;stroke:#1B9692" />
<path d="M922.6,113.97L927.6,113.97" style="fill:none;stroke:#1B9692" />
<path d="M922.6,114.35L927.6,114.35" style="fill:none;stroke:#1B9692" />
<path d="M928.84,115.8L928.84,116.06" style="fill:none;stroke:#1B9692" />
<path d="M926.34,115.8L931.34,115.8" style="fill:none;stroke:#1B9692" />
<path d="M926.34,116.06L931.34,116.06" style="fill:none;stroke:#1B9692" />
<path d="M932.58,114.37L932.58,116.9" style="fill:none;stroke:#1B9692" />
<path d="M930.08,114.37L935.08,114.37" style="fill:none;stroke:#1B9692" />
<path d="M930.08,116.9L935.08,116.9" style="fill:none;stroke:#1B9692" />
<path d="M936.32,115.92L936.32,117.77" style="fill:none;stroke:#1B9692" />
<path d="M933.82,115.92L938.82,115.92" style="fill:none;stroke:#1B9692" />
<path d="M933.82,117.77L938.82,117.77" style="fill:none;stroke:#1B9692" />
<path d="M940.05,114.55L940.05,116.28" style="fill:none;stroke:#1B9692" />
<path d="M937.55,114.55L942.55,114.55" style="fill:none;stroke:#1B9692" />
<path d="M937.55,116.28L942.55,116.28" style="fill:none;stroke:#1B9692" />
<path d="M943.79,114.34L943.79,116.38" style="fill:none;stroke:#1B9692" />
<path d="M941.29,114.34L946.29,114.34" style="fill:none;stroke:#1B9692" />
<path d="M941.29,116.38L946.29,116.38" style="fill:none;stroke:#1B9692" />
<path d="M947.53,113.23L947.53,114.77" style="fill:none;stroke:#1B9692" />
<path d="M945.03,113.23L950.03,113.23" style="fill:none;stroke:#1B9692" />
<path d="M945.03,114.77L950.03,114.77" style="fill:none;stroke:#1B9692" />
<path d="M951.27,113.38L951.27,114.25" style="fill:none;stroke:#1B9692" />
<path d="M948.77,113.38L953.77,113.38" style="fill:none;stroke:#1B9692" />
<path d="M948.77,114.25L953.77,114.25" style="fill:none;stroke:#1B9692" />
<path d="M955.01,113.94L955.01,114.2" style="fill:none;stroke:#1B9692" />
<path d="M952.51,113.94L957.51,113.94" style="fill:none;stroke:#1B9692" />
<path d="M952.51,114.2L957.51,114.2" style="fill:none;stroke:#1B9692" />
<path d="M958.75,114.66L958.75,114.9" style="fill:none;stroke:#1B9692" />
<path d="M956.25,114.66L961.25,114.66" style="fill:none;stroke:#1B9692" />
<path d="M956.25,114.9L961.25,114.9" style="fill:none;stroke:#1B9692" />
<path d="M962.49,113.95L962.49,115.39" style="fill:none;stroke:#1B9692" />
<path d="M959.99,113.95L964.99,113.95" style="fill:none;stroke:#1B9692" />
<path d="M959.99,115.39L964.99,115.39" style="fill:none;stroke:#1B9692" />
<path d="M966.23,114.02L966.23,115.41" style="fill:none;stroke:#1B9692" />
<path d="M963.73,114.02L968.73,114.02" style="fill:none;stroke:#1B9692" />
<path d="M963.73,115.41L968.73,115.41" style="fill:none;stroke:#1B9692" />
<path d="M969.97,114.15L969.97,116.09" style="fill:none;stroke:#1B9692" />
<path d="M967.47,114.15L972.47,114.15" style="fill:none;stroke:#1B9692" />
<path d="M967.47,116.09L972.47,116.09" style="fill:none;stroke:#1B9692" />
<path d="M973.7,113.71L973.7,114.86" style="fill:none;stroke:#1B9692" />
<path d="M971.2,113.71L976.2,113.71" style="fill:none;stroke:#1B9692" />
<path d="M971.2,114.86L976.2,114.86" style="fill:none;stroke:#1B9692" />
<path d="M977.44,114.31L977.44,114.71" style="fill:none;stroke:#1B9692" />
<path d="M974.94,114.31L979.94,114.31" style="fill:none;stroke:#1B9692" />
<path d="M974.94,114.71L979.94,114.71" style="fill:none;stroke:#1B9692" />
<path d="M981.18,114.14L981.18,114.93" style="fill:none;stroke:#1B9692" />
<path d="M978.68,114.14L983.68,114.14" style="fill:none;stroke:#1B9692" />
<path d="M978.68,114.93L983.68,114.93" style="fill:none;stroke:#1B9692" />
<path d="M984.92,115.09L984.92,115.4" style="fill:none;stroke:#1B9692" />
<path d="M982.42,115.09L987.42,115.09" style="fill:none;stroke:#1B9692" />
<path d="M982.42,115.4L987.42,115.4" style="fill:none;stroke:#1B9692" />
<path d="M988.66,114.63L988.66,116.62" style="fill:none;stroke:#1B9692" />
<path d="M986.16,114.63L991.16,114.63" style="fill:none;stroke:#1B9692" />
<path d="M986.16,116.62L991.16,116.62" style="fill:none;stroke:#1B9692" />
<path d="M992.4,113.88L992.4,116.2" style="fill:none;stroke:#1B9692" />
<path d="M989.9,113.88L994.9,113.88" style="fill:none;stroke:#1B9692" />
<path d="M989.9,116.2L994.9,116.2" style="fill:none;stroke:#1B9692" />
<path d="M996.14,113.91L996.14,116.48" style="fill:none;stroke:#1B9692" />
<path d="M993.64,113.91L998.64,113.91" style="fill:none;stroke:#1B9692" />
<path d="M993.64,116.48L998.64,116.48" style="fill:none;stroke:#1B9692" />
<path d="M999.88,113.42L999.88,115.82" style="fill:none;stroke:#1B9692" />
<path d="M997.38,113.42L1002.4,113.42" style="fill:none;stroke:#1B9692" />
<path d="M997.38,115.82L1002.4,115.82" style="fill:none;stroke:#1B9692" />
<path d="M1003.6,113.82L1003.6,115.12" style="fill:none;stroke:#1B9692" />
<path d="M1001.1,113.82L1006.1,113.82" style="fill:none;stroke:#1B9692" />
<path d="M1001.1,115.12L1006.1,115.12" style="fill:none;stroke:#1B9692" />
<path d="M1007.4,114.2L1007.4,114.94" style="fill:none;stroke:#1B9692" />
<path d="M1004.9,114.2L1009.9,114.2" style="fill:none;stroke:#1B9692" />
<path d="M1004.9,114.94L1009.9,114.94" style="fill:none;stroke:#1B9692" />
<path d="M1011.1,114.34L1011.1,115.3" style="fill:none;stroke:#1B9692" />
<path d="M1008.6,114.34L1013.6,114.34" style="fill:none;stroke:#1B9692" />
<path d="M1008.6,115.3L1013.6,115.3" style="fill:none;stroke:#1B9692" />
<path d="M1014.8,114.26L1014.8,115.29" style="fill:none;stroke:#1B9692" />
<path d="M1012.3,114.26L1017.3,114.26" style="fill:none;stroke:#1B9692" />
<path d="M1012.3,115.29L1017.3,115.29" style="fill:none;stroke:#1B9692" />
<path d="M1018.6,114.41L1018.6,115.1" style="fill:none;stroke:#1B9692" />
<path d="M1016.1,114.41L1021.1,114.41" style="fill:none;stroke:#1B9692" />
<path d="M1016.1,115.1L1021.1,115.1" style="fill:none;stroke:#1B9692" />
<path d="M1022.3,114.47L1022.3,114.78" style="fill:none;stroke:#1B9692" />
<path d="M1019.8,114.47L1024.8,114.47" style="fill:none;stroke:#1B9692" />
<path d="M1019.8,114.78L1024.8,114.78" style="fill:none;stroke:#1B9692" />
<path d="M1026,114.28L1026,114.98" style="fill:none;stroke:#1B9692" />
<path d="M1023.5,114.28L1028.5,114.28" style="fill:none;stroke:#1B9692" />
<path d="M1023.5,114.98L1028.5,114.98" style="fill:none;stroke:#1B9692" />
<path d="M1029.8,113.97L1029.8,114.61" style="fill:none;stroke:#1B9692" />
<path d="M1027.3,113.97L1032.3,113.97" style="fill:none;stroke:#1B9692" />
<path d="M1027.3,114.61L1032.3,114.61" style="fill:none;stroke:#1B9692" />
<path d="M1033.5,114.37L1033.5,114.97" style="fill:none;stroke:#1B9692" />
<path d="M1031,114.37L1036,114.37" style="fill:none;stroke:#1B9692" />
<path d="M1031,114.97L1036,114.97" style="fill:none;stroke:#1B9692" />
<path d="M1037.3,114.47L1037.3,115.09" style="fill:none;stroke:#1B9692" />
<path d="M1034.8,114.47L1039.8,114.47" style="fill:none;stroke:#1B9692" />
<path d="M1034.8,115.09L1039.8,115.09" style="fill:none;stroke:#1B9692" />
<path d="M1041,114.68L1041,114.9" style="fill:none;stroke:#1B9692" />
<path d="M1038.5,114.68L1043.5,114.68" style="fill:none;stroke:#1B9692" />
<path d="M1038.5,114.9L1043.5,114.9" style="fill:none;stroke:#1B9692" />
<path d="M1044.7,114.66L1044.7,115.17" style="fill:none;stroke:#1B9692" />
<path d="M1042.2,114.66L1047.2,114.66" style="fill:none;stroke:#1B9692" />
<path d="M1042.2,115.17L1047.2,115.17" style="fill:none;stroke:#1B9692" />
<path d="M1048.5,114.59L1048.5,115.08" style="fill:none;stroke:#1B9692" />
<path d="M1046,114.59L1051,114.59" style="fill:none;stroke:#1B9692" />
<path d="M1046,115.08L1051,115.08" style="fill:none;stroke:#1B9692" />
<path d="M1052.2,114.56L1052.2,114.75" style="fill:none;stroke:#1B9692" />
<path d="M1049.7,114.56L1054.7,114.56" style="fill:none;stroke:#1B9692" />
<path d="M1049.7,114.75L1054.7,114.75" style="fill:none;stroke:#1B9692" />
<path d="M1056,114.34L1056,114.54" style="fill:none;stroke:#1B9692" />
<path d="M1053.5,114.34L1058.5,114.34" style="fill:none;stroke:#1B9692" />
<path d="M1053.5,114.54L1058.5,114.54" style="fill:none;stroke:#1B9692" />
<path d="M1059.7,114.08L1059.7,114.28" style="fill:none;stroke:#1B9692" />
<path d="M1057.2,114.08L1062.2,114.08" style="fill:none;stroke:#1B9692" />
<path d="M1057.2,114.28L1062.2,114.28" style="fill:none;stroke:#1B9692" />
<path d="M1063.4,113.66L1063.4,114.16" style="fill:none;stroke:#1B9692" />
<path d="M1060.9,113.66L1065.9,113.66" style="fill:none;stroke:#1B9692" />
<path d="M1060.9,114.16L1065.9,114.16" style="fill:none;stroke:#1B9692" />
<path d="M1067.2,113.85L1067.2,113.94" style="fill:none;stroke:#1B9692" />
<path d="M1064.7,113.85L1069.7,113.85" style="fill:none;stroke:#1B9692" />
<path d="M1064.7,113.94L1069.7,113.94" style="fill:none;stroke:#1B9692" />
<path d="M1070.9,115.05L1070.9,115.18" style="fill:none;stroke:#1B9692" />
<path d="M1068.4,115.05L1073.4,115.05" style="fill:none;stroke:#1B9692" />
<path d="M1068.4,115.18L1073.4,115.18" style="fill:none;stroke:#1B9692" />
<path d="M1074.7,113.84L1074.7,114.53" style="fill:none;stroke:#1B9692" />
<path d="M1072.2,113.84L1077.2,113.84" style="fill:none;stroke:#1B9692" />
<path d="M1072.2,114.53L1077.2,114.53" style="fill:none;stroke:#1B9692" />
<path d="M156.16,118.34A5,5 0 1 1 146.16,118.34A5,5 0 1 1 156.16,118.34Z" style="fill:#1B9692" />
<path d="M159.9,116.4A5,5 0 1 1 149.9,116.4A5,5 0 1 1 159.9,116.4Z" style="fill:#1B9692" />
<path d="M163.64,120.05A5,5 0 1 1 153.64,120.05A5,5 0 1 1 163.64,120.05Z" style="fill:#1B9692" />
<path d="M167.38,120.43A5,5 0 1 1 157.38,120.43A5,5 0 1 1 167.38,120.43Z" style="fill:#1B9692" />
<path d="M171.12,116.21A5,5 0 1 1 161.12,116.21A5,5 0 1 1 171.12,116.21Z" style="fill:#1B9692" />
<path d="M174.86,115.11A5,5 0 1 1 164.86,115.11A5,5 0 1 1 174.86,115.11Z" style="fill:#1B9692" />
<path d="M178.6,115.59A5,5 0 1 1 168.6,115.59A5,5 0 1 1 178.6,115.59Z" style="fill:#1B9692" />
<path d="M182.34,116.71A5,5 0 1 1 172.34,116.71A5,5 0 1 1 182.34,116.71Z" style="fill:#1B9692" />
<path d="M186.07,116.81A5,5 0 1 1 176.07,116.81A5,5 0 1 1 186.07,116.81Z" style="fill:#1B9692" />
<path d="M189.81,115.39A5,5 0 1 1 179.81,115.39A5,5 0 1 1 189.81,115.39Z" style="fill:#1B9692" />
<path d="M193.55,115.31A5,5 0 1 1 183.55,115.31A5,5 0 1 1 193.55,115.31Z" style="fill:#1B9692" />
<path d="M197.29,115.4A5,5 0 1 1 187.29,115.4A5,5 0 1 1 197.29,115.4Z" style="fill:#1B9692" />
<path d="M201.03,114.19A5,5 0 1 1 191.03,114.19A5,5 0 1 1 201.03,114.19Z" style="fill:#1B9692" />
<path d="M204.77,114.68A5,5 0 1 1 194.77,114.68A5,5 0 1 1 204.77,114.68Z" style="fill:#1B9692" />
<path d="M208.51,116.16A5,5 0 1 1 198.51,116.16A5,5 0 1 1 208.51,116.16Z" style="fill:#1B9692" />
<path d="M212.25,114.41A5,5 0 1 1 202.25,114.41A5,5 0 1 1 212.25,114.41Z" style="fill:#1B9692" />
<path d="M215.99,115.58A5,5 0 1 1 205.99,115.58A5,5 0 1 1 215.99,115.58Z" style="fill:#1B9692" />
<path d="M219.72,118A5,5 0 1 1 209.72,118A5,5 0 1 1 219.72,118Z" style="fill:#1B9692" />
<path d="M223.46,118.18A5,5 0 1 1 213.46,118.18A5,5 0 1 1 223.46,118.18Z" style="fill:#1B9692" />
<path d="M227.2,121.33A5,5 0 1 1 217.2,121.33A5,5 0 1 1 227.2,121.33Z" style="fill:#1B9692" />
<path d="M230.94,120.85A5,5 0 1 1 220.94,120.85A5,5 0 1 1 230.94,120.85Z" style="fill:#1B9692" />
<path d="M234.68,121.25A5,5 0 1 1 224.68,121.25A5,5 0 1 1 234.68,121.25Z" style="fill:#1B9692" />
<path d="M238.42,120.68A5,5 0 1 1 228.42,120.68A5,5 0 1 1 238.42,120.68Z" style="fill:#1B9692" />
<path d="M242.16,116.98A5,5 0 1 1 232.16,116.98A5,5 0 1 1 242.16,116.98Z" style="fill:#1B9692" />
<path d="M245.9,117.25A5,5 0 1 1 235.9,117.25A5,5 0 1 1 245.9,117.25Z" style="fill:#1B9692" />
<path d="M249.63,118.74A5,5 0 1 1 239.63,118.74A5,5 0 1 1 249.63,118.74Z" style="fill:#1B9692" />
<path d="M253.37,116.41A5,5 0 1 1 243.37,116.41A5,5 0 1 1 253.37,116.41Z" style="fill:#1B9692" />
<path d="M257.11,118.15A5,5 0 1 1 247.11,118.15A5,5 0 1 1 257.11,118.15Z" style="fill:#1B9692" />
<path d="M260.85,120.82A5,5 0 1 1 250.85,120.82A5,5 0 1 1 260.85,120.82Z" style="fill:#1B9692" />
<path d="M264.59,119.76A5,5 0 1 1 254.59,119.76A5,5 0 1 1 264.59,119.76Z" style="fill:#1B9692" />
<path d="M268.33,123.35A5,5 0 1 1 258.33,123.35A5,5 0 1 1 268.33,123.35Z" style="fill:#1B9692" />
<path d="M272.07,122.57A5,5 0 1 1 262.07,122.57A5,5 0 1 1 272.07,122.57Z" style="fill:#1B9692" />
<path d="M275.81,122.18A5,5 0 1 1 265.81,122.18A5,5 0 1 1 275.81,122.18Z" style="fill:#1B9692" />
<path d="M279.55,122.92A5,5 0 1 1 269.55,122.92A5,5 0 1 1 279.55,122.92Z" style="fill:#1B9692" />
<path d="M283.28,125.37A5,5 0 1 1 273.28,125.37A5,5 0 1 1 283.28,125.37Z" style="fill:#1B9692" />
<path d="M287.02,125.16A5,5 0 1 1 277.02,125.16A5,5 0 1 1 287.02,125.16Z" style="fill:#1B9692" />
<path d="M290.76,122.82A5,5 0 1 1 280.76,122.82A5,5 0 1 1 290.76,122.82Z" style="fill:#1B9692" />
<path d="M294.5,124.11A5,5 0 1 1 284.5,124.11A5,5 0 1 1 294.5,124.11Z" style="fill:#1B9692" />
<path d="M298.24,125.3A5,5 0 1 1 288.24,125.3A5,5 0 1 1 298.24,125.3Z" style="fill:#1B9692" />
<path d="M301.98,121.83A5,5 0 1 1 291.98,121.83A5,5 0 1 1 301.98,121.83Z" style="fill:#1B9692" />
<path d="M305.72,124.76A5,5 0 1 1 295.72,124.76A5,5 0 1 1 305.72,124.76Z" style="fill:#1B9692" />
<path d="M309.46,125.73A5,5 0 1 1 299.46,125.73A5,5 0 1 1 309.46,125.73Z" style="fill:#1B9692" />
<path d="M313.19,127.41A5,5 0 1 1 303.19,127.41A5,5 0 1 1 313.19,127.41Z" style="fill:#1B9692" />
<path d="M316.93,128.52A5,5 0 1 1 306.93,128.52A5,5 0 1 1 316.93,128.52Z" style="fill:#1B9692" />
<path d="M320.67,126.47A5,5 0 1 1 310.67,126.47A5,5 0 1 1 320.67,126.47Z" style="fill:#1B9692" />
<path d="M324.41,125.22A5,5 0 1 1 314.41,125.22A5,5 0 1 1 324.41,125.22Z" style="fill:#1B9692" />
<path d="M328.15,127.09A5,5 0 1 1 318.15,127.09A5,5 0 1 1 328.15,127.09Z" style="fill:#1B9692" />
<path d="M331.89,124.51A5,5 0 1 1 321.89,124.51A5,5 0 1 1 331.89,124.51Z" style="fill:#1B9692" />
<path d="M335.63,127.65A5,5 0 1 1 325.63,127.65A5,5 0 1 1 335.63,127.65Z" style="fill:#1B9692" />
<path d="M339.37,129.75A5,5 0 1 1 329.37,129.75A5,5 0 1 1 339.37,129.75Z" style="fill:#1B9692" />
<path d="M343.1,130.64A5,5 0 1 1 333.1,130.64A5,5 0 1 1 343.1,130.64Z" style="fill:#1B9692" />
<path d="M346.84,127.16A5,5 0 1 1 336.84,127.16A5,5 0 1 1 346.84,127.16Z" style="fill:#1B9692" />
<path d="M350.58,130.42A5,5 0 1 1 340.58,130.42A5,5 0 1 1 350.58,130.42Z" style="fill:#1B9692" />
<path d="M354.32,129.61A5,5 0 1 1 344.32,129.61A5,5 0 1 1 354.32,129.61Z" style="fill:#1B9692" />
<path d="M358.06,128.89A5,5 0 1 1 348.06,128.89A5,5 0 1 1 358.06,128.89Z" style="fill:#1B9692" />
<path d="M361.8,125.13A5,5 0 1 1 351.8,125.13A5,5 0 1 1 361.8,125.13Z" style="fill:#1B9692" />
<path d="M365.54,124.54A5,5 0 1 1 355.54,124.54A5,5 0 1 1 365.54,124.54Z" style="fill:#1B9692" />
<path d="M369.28,128.97A5,5 0 1 1 359.28,128.97A5,5 0 1 1 369.28,128.97Z" style="fill:#1B9692" />
<path d="M373.02,125.99A5,5 0 1 1 363.02,125.99A5,5 0 1 1 373.02,125.99Z" style="fill:#1B9692" />
<path d="M376.75,128.91A5,5 0 1 1 366.75,128.91A5,5 0 1 1 376.75,128.91Z" style="fill:#1B9692" />
<path d="M380.49,124.95A5,5 0 1 1 370.49,124.95A5,5 0 1 1 380.49,124.95Z" style="fill:#1B9692" />
<path d="M384.23,127.52A5,5 0 1 1 374.23,127.52A5,5 0 1 1 384.23,127.52Z" style="fill:#1B9692" />
<path d="M387.97,129.21A5,5 0 1 1 377.97,129.21A5,5 0 1 1 387.97,129.21Z" style="fill:#1B9692" />
<path d="M391.71,132.14A5,5 0 1 1 381.71,132.14A5,5 0 1 1 391.71,132.14Z" style="fill:#1B9692" />
<path d="M395.45,133.26A5,5 0 1 1 385.45,133.26A5,5 0 1 1 395.45,133.26Z" style="fill:#1B9692" />
<path d="M399.19,133.42A5,5 0 1 1 389.19,133.42A5,5 0 1 1 399.19,133.42Z" style="fill:#1B9692" />
<path d="M402.93,141.4A5,5 0 1 1 392.93,141.4A5,5 0 1 1 402.93,141.4Z" style="fill:#1B9692" />
<path d="M406.66,144.91A5,5 0 1 1 396.66,144.91A5,5 0 1 1 406.66,144.91Z" style="fill:#1B9692" />
<path d="M410.4,151.42A5,5 0 1 1 400.4,151.42A5,5 0 1 1 410.4,151.42Z" style="fill:#1B9692" />
<path d="M414.14,149.78A5,5 0 1 1 404.14,149.78A5,5 0 1 1 414.14,149.78Z" style="fill:#1B9692" />
<path d="M417.88,153.66A5,5 0 1 1 407.88,153.66A5,5 0 1 1 417.88,153.66Z" style="fill:#1B9692" />
<path d="M421.62,159.82A5,5 0 1 1 411.62,159.82A5,5 0 1 1 421.62,159.82Z" style="fill:#1B9692" />
<path d="M425.36,166.18A5,5 0 1 1 415.36,166.18A5,5 0 1 1 425.36,166.18Z" style="fill:#1B9692" />
<path d="M429.1,153.79A5,5 0 1 1 419.1,153.79A5,5 0 1 1 429.1,153.79Z" style="fill:#1B9692" />
<path d="M432.84,152.44A5,5 0 1 1 422.84,152.44A5,5 0 1 1 432.84,152.44Z" style="fill:#1B9692" />
<path d="M436.58,154.21A5,5 0 1 1 426.58,154.21A5,5 0 1 1 436.58,154.21Z" style="fill:#1B9692" />
<path d="M440.31,161.9A5,5 0 1 1 430.31,161.9A5,5 0 1 1 440.31,161.9Z" style="fill:#1B9692" />
<path d="M444.05,167.28A5,5 0 1 1 434.05,167.28A5,5 0 1 1 444.05,167.28Z" style="fill:#1B9692" />
<path d="M447.79,165.97A5,5 0 1 1 437.79,165.97A5,5 0 1 1 447.79,165.97Z" style="fill:#1B9692" />
<path d="M451.53,171.96A5,5 0 1 1 441.53,171.96A5,5 0 1 1 451.53,171.96Z" style="fill:#1B9692" />
<path d="M455.27,186.85A5,5 0 1 1 445.27,186.85A5,5 0 1 1 455.27,186.85Z" style="fill:#1B9692" />
<path d="M459.01,183.55A5,5 0 1 1 449.01,183.55A5,5 0 1 1 459.01,183.55Z" style="fill:#1B9692" />
<path d="M462.75,194.26A5,5 0 1 1 452.75,194.26A5,5 0 1 1 462.75,194.26Z" style="fill:#1B9692" />
<path d="M466.49,210.72A5,5 0 1 1 456.49,210.72A5,5 0 1 1 466.49,210.72Z" style="fill:#1B9692" />
<path d="M470.22,215.4A5,5 0 1 1 460.22,215.4A5,5 0 1 1 470.22,215.4Z" style="fill:#1B9692" />
<path d="M473.96,220.02A5,5 0 1 1 463.96,220.02A5,5 0 1 1 473.96,220.02Z" style="fill:#1B9692" />
<path d="M477.7,234.63A5,5 0 1 1 467.7,234.63A5,5 0 1 1 477.7,234.63Z" style="fill:#1B9692" />
<path d="M481.44,241.99A5,5 0 1 1 471.44,241.99A5,5 0 1 1 481.44,241.99Z" style="fill:#1B9692" />
<path d="M485.18,260.71A5,5 0 1 1 475.18,260.71A5,5 0 1 1 485.18,260.71Z" style="fill:#1B9692" />
<path d="M488.92,272.33A5,5 0 1 1 478.92,272.33A5,5 0 1 1 488.92,272.33Z" style="fill:#1B9692" />
<path d="M492.66,295.31A5,5 0 1 1 482.66,295.31A5,5 0 1 1 492.66,295.31Z" style="fill:#1B9692" />
<path d="M496.4,309.33A5,5 0 1 1 486.4,309.33A5,5 0 1 1 496.4,309.33Z" style="fill:#1B9692" />
<path d="M500.14,324.62A5,5 0 1 1 490.14,324.62A5,5 0 1 1 500.14,324.62Z" style="fill:#1B9692" />
<path d="M503.87,351.6A5,5 0 1 1 493.87,351.6A5,5 0 1 1 503.87,351.6Z" style="fill:#1B9692" />
<path d="M507.61,362.36A5,5 0 1 1 497.61,362.36A5,5 0 1 1 507.61,362.36Z" style="fill:#1B9692" />
<path d="M511.35,393.3A5,5 0 1 1 501.35,393.3A5,5 0 1 1 511.35,393.3Z" style="fill:#1B9692" />
<path d="M515.09,411.08A5,5 0 1 1 505.09,411.08A5,5 0 1 1 515.09,411.08Z" style="fill:#1B9692" />
<path d="M518.83,424.37A5,5 0 1 1 508.83,424.37A5,5 0 1 1 518.83,424.37Z" style="fill:#1B9692" />
<path d="M522.57,441.7A5,5 0 1 1 512.57,441.7A5,5 0 1 1 522.57,441.7Z" style="fill:#1B9692" />
<path d="M526.31,452.16A5,5 0 1 1 516.31,452.16A5,5 0 1 1 526.31,452.16Z" style="fill:#1B9692" />
<path d="M530.05,467.56A5,5 0 1 1 520.05,467.56A5,5 0 1 1 530.05,467.56Z" style="fill:#1B9692" />
<path d="M533.78,472.31A5,5 0 1 1 523.78,472.31A5,5 0 1 1 533.78,472.31Z" style="fill:#1B9692" />
<path d="M537.52,475.92A5,5 0 1 1 527.52,475.92A5,5 0 1 1 537.52,475.92Z" style="fill:#1B9692" />
<path d="M541.26,469.87A5,5 0 1 1 531.26,469.87A5,5 0 1 1 541.26,469.87Z" style="fill:#1B9692" />
<path d="M545,469.62A5,5 0 1 1 535,469.62A5,5 0 1 1 545,469.62Z" style="fill:#1B9692" />
<path d="M548.74,470.68A5,5 0 1 1 538.74,470.68A5,5 0 1 1 548.74,470.68Z" style="fill:#1B9692" />
<path d="M552.48,468.27A5,5 0 1 1 542.48,468.27A5,5 0 1 1 552.48,468.27Z" style="fill:#1B9692" />
<path d="M556.22,456.69A5,5 0 1 1 546.22,456.69A5,5 0 1 1 556.22,456.69Z" style="fill:#1B9692" />
<path d="M559.96,450.38A5,5 0 1 1 549.96,450.38A5,5 0 1 1 559.96,450.38Z" style="fill:#1B9692" />
<path d="M563.7,446.35A5,5 0 1 1 553.7,446.35A5,5 0 1 1 563.7,446.35Z" style="fill:#1B9692" />
<path d="M567.43,436.41A5,5 0 1 1 557.43,436.41A5,5 0 1 1 567.43,436.41Z" style="fill:#1B9692" />
<path d="M571.17,431.3A5,5 0 1 1 561.17,431.3A5,5 0 1 1 571.17,431.3Z" style="fill:#1B9692" />
<path d="M574.91,414.36A5,5 0 1 1 564.91,414.36A5,5 0 1 1 574.91,414.36Z" style="fill:#1B9692" />
<path d="M578.65,400.4A5,5 0 1 1 568.65,400.4A5,5 0 1 1 578.65,400.4Z" style="fill:#1B9692" />
<path d="M582.39,387.26A5,5 0 1 1 572.39,387.26A5,5 0 1 1 582.39,387.26Z" style="fill:#1B9692" />
<path d="M586.13,387.14A5,5 0 1 1 576.13,387.14A5,5 0 1 1 586.13,387.14Z" style="fill:#1B9692" />
<path d="M589.87,328.04A5,5 0 1 1 579.87,328.04A5,5 0 1 1 589.87,328.04Z" style="fill:#1B9692" />
<path d="M593.61,272.5A5,5 0 1 1 583.61,272.5A5,5 0 1 1 593.61,272.5Z" style="fill:#1B9692" />
<path d="M597.34,245.68A5,5 0 1 1 587.34,245.68A5,5 0 1 1 597.34,245.68Z" style="fill:#1B9692" />
<path d="M601.08,215.85A5,5 0 1 1 591.08,215.85A5,5 0 1 1 601.08,215.85Z" style="fill:#1B9692" />
<path d="M604.82,256.63A5,5 0 1 1 594.82,256.63A5,5 0 1 1 604.82,256.63Z" style="fill:#1B9692" />
<path d="M608.56,258.18A5,5 0 1 1 598.56,258.18A5,5 0 1 1 608.56,258.18Z" style="fill:#1B9692" />
<path d="M612.3,266.99A5,5 0 1 1 602.3,266.99A5,5 0 1 1 612.3,266.99Z" style="fill:#1B9692" />
<path d="M616.04,270.67A5,5 0 1 1 606.04,270.67A5,5 0 1 1 616.04,270.67Z" style="fill:#1B9692" />
<path d="M619.78,286.62A5,5 0 1 1 609.78,286.62A5,5 0 1 1 619.78,286.62Z" style="fill:#1B9692" />
<path d="M623.52,297.67A5,5 0 1 1 613.52,297.67A5,5 0 1 1 623.52,297.67Z" style="fill:#1B9692" />
<path d="M627.26,281.79A5,5 0 1 1 617.26,281.79A5,5 0 1 1 627.26,281.79Z" style="fill:#1B9692" />
<path d="M630.99,244.01A5,5 0 1 1 620.99,244.01A5,5 0 1 1 630.99,244.01Z" style="fill:#1B9692" />
<path d="M634.73,241.85A5,5 0 1 1 624.73,241.85A5,5 0 1 1 634.73,241.85Z" style="fill:#1B9692" />
<path d="M638.47,201.3A5,5 0 1 1 628.47,201.3A5,5 0 1 1 638.47,201.3Z" style="fill:#1B9692" />
<path d="M642.21,205.79A5,5 0 1 1 632.21,205.79A5,5 0 1 1 642.21,205.79Z" style="fill:#1B9692" />
<path d="M645.95,197.87A5,5 0 1 1 635.95,197.87A5,5 0 1 1 645.95,197.87Z" style="fill:#1B9692" />
<path d="M649.69,188.95A5,5 0 1 1 639.69,188.95A5,5 0 1 1 649.69,188.95Z" style="fill:#1B9692" />
<path d="M653.43,206.54A5,5 0 1 1 643.43,206.54A5,5 0 1 1 653.43,206.54Z" style="fill:#1B9692" />
<path d="M657.17,219.68A5,5 0 1 1 647.17,219.68A5,5 0 1 1 657.17,219.68Z" style="fill:#1B9692" />
<path d="M660.9,207.24A5,5 0 1 1 650.9,207.24A5,5 0 1 1 660.9,207.24Z" style="fill:#1B9692" />
<path d="M664.64,216.68A5,5 0 1 1 654.64,216.68A5,5 0 1 1 664.64,216.68Z" style="fill:#1B9692" />
<path d="M668.38,199.35A5,5 0 1 1 658.38,199.35A5,5 0 1 1 668.38,199.35Z" style="fill:#1B9692" />
<path d="M672.12,204.36A5,5 0 1 1 662.12,204.36A5,5 0 1 1 672.12,204.36Z" style="fill:#1B9692" />
<path d="M675.86,189.54A5,5 0 1 1 665.86,189.54A5,5 0 1 1 675.86,189.54Z" style="fill:#1B9692" />
<path d="M679.6,188.78A5,5 0 1 1 669.6,188.78A5,5 0 1 1 679.6,188.78Z" style="fill:#1B9692" />
<path d="M683.34,182.94A5,5 0 1 1 673.34,182.94A5,5 0 1 1 683.34,182.94Z" style="fill:#1B9692" />
<path d="M687.08,162.33A5,5 0 1 1 677.08,162.33A5,5 0 1 1 687.08,162.33Z" style="fill:#1B9692" />
<path d="M690.81,152.79A5,5 0 1 1 680.81,152.79A5,5 0 1 1 690.81,152.79Z" style="fill:#1B9692" />
<path d="M694.55,138A5,5 0 1 1 684.55,138A5,5 0 1 1 694.55,138Z" style="fill:#1B9692" />
<path d="M698.29,132.63A5,5 0 1 1 688.29,132.63A5,5 0 1 1 698.29,132.63Z" style="fill:#1B9692" />
<path d="M702.03,134.53A5,5 0 1 1 692.03,134.53A5,5 0 1 1 702.03,134.53Z" style="fill:#1B9692" />
<path d="M705.77,130.48A5,5 0 1 1 695.77,130.48A5,5 0 1 1 705.77,130.48Z" style="fill:#1B9692" />
<path d="M709.51,131.81A5,5 0 1 1 699.51,131.81A5,5 0 1 1 709.51,131.81Z" style="fill:#1B9692" />
<path d="M713.25,137.02A5,5 0 1 1 703.25,137.02A5,5 0 1 1 713.25,137.02Z" style="fill:#1B9692" />
<path d="M716.99,142.6A5,5 0 1 1 706.99,142.6A5,5 0 1 1 716.99,142.6Z" style="fill:#1B9692" />
<path d="M720.73,134.87A5,5 0 1 1 710.73,134.87A5,5 0 1 1 720.73,134.87Z" style="fill:#1B9692" />
<path d="M724.46,129.59A5,5 0 1 1 714.46,129.59A5,5 0 1 1 724.46,129.59Z" style="fill:#1B9692" />
<path d="M728.2,122.63A5,5 0 1 1 718.2,122.63A5,5 0 1 1 728.2,122.63Z" style="fill:#1B9692" />
<path d="M731.94,127.61A5,5 0 1 1 721.94,127.61A5,5 0 1 1 731.94,127.61Z" style="fill:#1B9692" />
<path d="M735.68,123.19A5,5 0 1 1 725.68,123.19A5,5 0 1 1 735.68,123.19Z" style="fill:#1B9692" />
<path d="M739.42,120.35A5,5 0 1 1 729.42,120.35A5,5 0 1 1 739.42,120.35Z" style="fill:#1B9692" />
<path d="M743.16,117.91A5,5 0 1 1 733.16,117.91A5,5 0 1 1 743.16,117.91Z" style="fill:#1B9692" />
<path d="M746.9,122.06A5,5 0 1 1 736.9,122.06A5,5 0 1 1 746.9,122.06Z" style="fill:#1B9692" />
<path d="M750.64,119.48A5,5 0 1 1 740.64,119.48A5,5 0 1 1 750.64,119.48Z" style="fill:#1B9692" />
<path d="M754.37,119.32A5,5 0 1 1 744.37,119.32A5,5 0 1 1 754.37,119.32Z" style="fill:#1B9692" />
<path d="M758.11,119.97A5,5 0 1 1 748.11,119.97A5,5 0 1 1 758.11,119.97Z" style="fill:#1B9692" />
<path d="M761.85,121.07A5,5 0 1 1 751.85,121.07A5,5 0 1 1 761.85,121.07Z" style="fill:#1B9692" />
<path d="M765.59,120.87A5,5 0 1 1 755.59,120.87A5,5 0 1 1 765.59,120.87Z" style="fill:#1B9692" />
<path d="M769.33,124.41A5,5 0 1 1 759.33,124.41A5,5 0 1 1 769.33,124.41Z" style="fill:#1B9692" />
<path d="M773.07,123.19A5,5 0 1 1 763.07,123.19A5,5 0 1 1 773.07,123.19Z" style="fill:#1B9692" />
<path d="M776.81,121.4A5,5 0 1 1 766.81,121.4A5,5 0 1 1 776.81,121.4Z" style="fill:#1B9692" />
<path d="M780.55,123.18A5,5 0 1 1 770.55,123.18A5,5 0 1 1 780.55,123.18Z" style="fill:#1B9692" />
<path d="M784.29,124.31A5,5 0 1 1 774.29,124.31A5,5 0 1 1 784.29,124.31Z" style="fill:#1B9692" />
<path d="M788.02,122.22A5,5 0 1 1 778.02,122.22A5,5 0 1 1 788.02,122.22Z" style="fill:#1B9692" />
<path d="M791.76,123.09A5,5 0 1 1 781.76,123.09A5,5 0 1 1 791.76,123.09Z" style="fill:#1B9692" />
<path d="M795.5,120.93A5,5 0 1 1 785.5,120.93A5,5 0 1 1 795.5,120.93Z" style="fill:#1B9692" />
<path d="M799.24,123.64A5,5 0 1 1 789.24,123.64A5,5 0 1 1 799.24,123.64Z" style="fill:#1B9692" />
<path d="M802.98,121.47A5,5 0 1 1 792.98,121.47A5,5 0 1 1 802.98,121.47Z" style="fill:#1B9692" />
<path d="M806.72,121.62A5,5 0 1 1 796.72,121.62A5,5 0 1 1 806.72,121.62Z" style="fill:#1B9692" />
<path d="M810.46,122.63A5,5 0 1 1 800.46,122.63A5,5 0 1 1 810.46,122.63Z" style="fill:#1B9692" />
<path d="M814.2,125.16A5,5 0 1 1 804.2,125.16A5,5 0 1 1 814.2,125.16Z" style="fill:#1B9692" />
<path d="M817.93,126.28A5,5 0 1 1 807.93,126.28A5,5 0 1 1 817.93,126.28Z" style="fill:#1B9692" />
<path d="M821.67,126.32A5,5 0 1 1 811.67,126.32A5,5 0 1 1 821.67,126.32Z" style="fill:#1B9692" />
<path d="M825.41,123.85A5,5 0 1 1 815.41,123.85A5,5 0 1 1 825.41,123.85Z" style="fill:#1B9692" />
<path d="M829.15,122.05A5,5 0 1 1 819.15,122.05A5,5 0 1 1 829.15,122.05Z" style="fill:#1B9692" />
<path d="M832.89,121.83A5,5 0 1 1 822.89,121.83A5,5 0 1 1 832.89,121.83Z" style="fill:#1B9692" />
<path d="M836.63,119.65A5,5 0 1 1 826.63,119.65A5,5 0 1 1 836.63,119.65Z" style="fill:#1B9692" />
<path d="M840.37,119.37A5,5 0 1 1 830.37,119.37A5,5 0 1 1 840.37,119.37Z" style="fill:#1B9692" />
<path d="M844.11,119.3A5,5 0 1 1 834.11,119.3A5,5 0 1 1 844.11,119.3Z" style="fill:#1B9692" />
<path d="M847.85,119.65A5,5 0 1 1 837.85,119.65A5,5 0 1 1 847.85,119.65Z" style="fill:#1B9692" />
<path d="M851.58,119.1A5,5 0 1 1 841.58,119.1A5,5 0 1 1 851.58,119.1Z" style="fill:#1B9692" />
<path d="M855.32,118.82A5,5 0 1 1 845.32,118.82A5,5 0 1 1 855.32,118.82Z" style="fill:#1B9692" />
<path d="M859.06,117.76A5,5 0 1 1 849.06,117.76A5,5 0 1 1 859.06,117.76Z" style="fill:#1B9692" />
<path d="M862.8,119.4A5,5 0 1 1 852.8,119.4A5,5 0 1 1 862.8,119.4Z" style="fill:#1B9692" />
<path d="M866.54,119.21A5,5 0 1 1 856.54,119.21A5,5 0 1 1 866.54,119.21Z" style="fill:#1B9692" />
<path d="M870.28,118.13A5,5 0 1 1 860.28,118.13A5,5 0 1 1 870.28,118.13Z" style="fill:#1B9692" />
<path d="M874.02,117.82A5,5 0 1 1 864.02,117.82A5,5 0 1 1 874.02,117.82Z" style="fill:#1B9692" />
<path d="M877.76,116.97A5,5 0 1 1 867.76,116.97A5,5 0 1 1 877.76,116.97Z" style="fill:#1B9692" />
<path d="M881.49,117.01A5,5 0 1 1 871.49,117.01A5,5 0 1 1 881.49,117.01Z" style="fill:#1B9692" />
<path d="M885.23,116.19A5,5 0 1 1 875.23,116.19A5,5 0 1 1 885.23,116.19Z" style="fill:#1B9692" />
<path d="M888.97,116.76A5,5 0 1 1 878.97,116.76A5,5 0 1 1 888.97,116.76Z" style="fill:#1B9692" />
<path d="M892.71,116.24A5,5 0 1 1 882.71,116.24A5,5 0 1 1 892.71,116.24Z" style="fill:#1B9692" />
<path d="M896.45,114.95A5,5 0 1 1 886.45,114.95A5,5 0 1 1 896.45,114.95Z" style="fill:#1B9692" />
<path d="M900.19,114.1A5,5 0 1 1 890.19,114.1A5,5 0 1 1 900.19,114.1Z" style="fill:#1B9692" />
<path d="M903.93,115.1A5,5 0 1 1 893.93,115.1A5,5 0 1 1 903.93,115.1Z" style="fill:#1B9692" />
<path d="M907.67,115.29A5,5 0 1 1 897.67,115.29A5,5 0 1 1 907.67,115.29Z" style="fill:#1B9692" />
<path d="M911.41,114.22A5,5 0 1 1 901.41,114.22A5,5 0 1 1 911.41,114.22Z" style="fill:#1B9692" />
<path d="M915.14,114.72A5,5 0 1 1 905.14,114.72A5,5 0 1 1 915.14,114.72Z" style="fill:#1B9692" />
<path d="M918.88,115.67A5,5 0 1 1 908.88,115.67A5,5 0 1 1 918.88,115.67Z" style="fill:#1B9692" />
<path d="M922.62,114.33A5,5 0 1 1 912.62,114.33A5,5 0 1 1 922.62,114.33Z" style="fill:#1B9692" />
<path d="M926.36,114.22A5,5 0 1 1 916.36,114.22A5,5 0 1 1 926.36,114.22Z" style="fill:#1B9692" />
<path d="M930.1,114.16A5,5 0 1 1 920.1,114.16A5,5 0 1 1 930.1,114.16Z" style="fill:#1B9692" />
<path d="M933.84,115.93A5,5 0 1 1 923.84,115.93A5,5 0 1 1 933.84,115.93Z" style="fill:#1B9692" />
<path d="M937.58,115.63A5,5 0 1 1 927.58,115.63A5,5 0 1 1 937.58,115.63Z" style="fill:#1B9692" />
<path d="M941.32,116.85A5,5 0 1 1 931.32,116.85A5,5 0 1 1 941.32,116.85Z" style="fill:#1B9692" />
<path d="M945.05,115.42A5,5 0 1 1 935.05,115.42A5,5 0 1 1 945.05,115.42Z" style="fill:#1B9692" />
<path d="M948.79,115.36A5,5 0 1 1 938.79,115.36A5,5 0 1 1 948.79,115.36Z" style="fill:#1B9692" />
<path d="M952.53,114A5,5 0 1 1 942.53,114A5,5 0 1 1 952.53,114Z" style="fill:#1B9692" />
<path d="M956.27,113.82A5,5 0 1 1 946.27,113.82A5,5 0 1 1 956.27,113.82Z" style="fill:#1B9692" />
<path d="M960.01,114.07A5,5 0 1 1 950.01,114.07A5,5 0 1 1 960.01,114.07Z" style="fill:#1B9692" />
<path d="M963.75,114.78A5,5 0 1 1 953.75,114.78A5,5 0 1 1 963.75,114.78Z" style="fill:#1B9692" />
<path d="M967.49,114.67A5,5 0 1 1 957.49,114.67A5,5 0 1 1 967.49,114.67Z" style="fill:#1B9692" />
<path d="M971.23,114.71A5,5 0 1 1 961.23,114.71A5,5 0 1 1 971.23,114.71Z" style="fill:#1B9692" />
<path d="M974.97,115.12A5,5 0 1 1 964.97,115.12A5,5 0 1 1 974.97,115.12Z" style="fill:#1B9692" />
<path d="M978.7,114.28A5,5 0 1 1 968.7,114.28A5,5 0 1 1 978.7,114.28Z" style="fill:#1B9692" />
<path d="M982.44,114.51A5,5 0 1 1 972.44,114.51A5,5 0 1 1 982.44,114.51Z" style="fill:#1B9692" />
<path d="M986.18,114.54A5,5 0 1 1 976.18,114.54A5,5 0 1 1 986.18,114.54Z" style="fill:#1B9692" />
<path d="M989.92,115.25A5,5 0 1 1 979.92,115.25A5,5 0 1 1 989.92,115.25Z" style="fill:#1B9692" />
<path d="M993.66,115.62A5,5 0 1 1 983.66,115.62A5,5 0 1 1 993.66,115.62Z" style="fill:#1B9692" />
<path d="M997.4,115.04A5,5 0 1 1 987.4,115.04A5,5 0 1 1 997.4,115.04Z" style="fill:#1B9692" />
<path d="M1001.1,115.2A5,5 0 1 1 991.14,115.2A5,5 0 1 1 1001.1,115.2Z" style="fill:#1B9692" />
<path d="M1004.9,114.62A5,5 0 1 1 994.88,114.62A5,5 0 1 1 1004.9,114.62Z" style="fill:#1B9692" />
<path d="M1008.6,114.47A5,5 0 1 1 998.61,114.47A5,5 0 1 1 1008.6,114.47Z" style="fill:#1B9692" />
<path d="M1012.4,114.57A5,5 0 1 1 1002.4,114.57A5,5 0 1 1 1012.4,114.57Z" style="fill:#1B9692" />
<path d="M1016.1,114.82A5,5 0 1 1 1006.1,114.82A5,5 0 1 1 1016.1,114.82Z" style="fill:#1B9692" />
<path d="M1019.8,114.78A5,5 0 1 1 1009.8,114.78A5,5 0 1 1 1019.8,114.78Z" style="fill:#1B9692" />
<path d="M1023.6,114.75A5,5 0 1 1 1013.6,114.75A5,5 0 1 1 1023.6,114.75Z" style="fill:#1B9692" />
<path d="M1027.3,114.63A5,5 0 1 1 1017.3,114.63A5,5 0 1 1 1027.3,114.63Z" style="fill:#1B9692" />
<path d="M1031,114.63A5,5 0 1 1 1021,114.63A5,5 0 1 1 1031,114.63Z" style="fill:#1B9692" />
<path d="M1034.8,114.29A5,5 0 1 1 1024.8,114.29A5,5 0 1 1 1034.8,114.29Z" style="fill:#1B9692" />
<path d="M1038.5,114.67A5,5 0 1 1 1028.5,114.67A5,5 0 1 1 1038.5,114.67Z" style="fill:#1B9692" />
<path d="M1042.3,114.78A5,5 0 1 1 1032.3,114.78A5,5 0 1 1 1042.3,114.78Z" style="fill:#1B9692" />
<path d="M1046,114.79A5,5 0 1 1 1036,114.79A5,5 0 1 1 1046,114.79Z" style="fill:#1B9692" />
<path d="M1049.7,114.92A5,5 0 1 1 1039.7,114.92A5,5 0 1 1 1049.7,114.92Z" style="fill:#1B9692" />
<path d="M1053.5,114.84A5,5 0 1 1 1043.5,114.84A5,5 0 1 1 1053.5,114.84Z" style="fill:#1B9692" />
<path d="M1057.2,114.65A5,5 0 1 1 1047.2,114.65A5,5 0 1 1 1057.2,114.65Z" style="fill:#1B9692" />
<path d="M1061,114.44A5,5 0 1 1 1051,114.44A5,5 0 1 1 1061,114.44Z" style="fill:#1B9692" />
<path d="M1064.7,114.18A5,5 0 1 1 1054.7,114.18A5,5 0 1 1 1064.7,114.18Z" style="fill:#1B9692" />
<path d="M1068.4,113.91A5,5 0 1 1 1058.4,113.91A5,5 0 1 1 1068.4,113.91Z" style="fill:#1B9692" />
<path d="M1072.2,113.9A5,5 0 1 1 1062.2,113.9A5,5 0 1 1 1072.2,113.9Z" style="fill:#1B9692" />
<path d="M1075.9,115.12A5,5 0 1 1 1065.9,115.12A5,5 0 1 1 1075.9,115.12Z" style="fill:#1B9692" />
<path d="M1079.7,114.19A5,5 0 1 1 1069.7,114.19A5,5 0 1 1 1079.7,114.19Z" style="fill:#1B9692" />
<path d="M147.43,974.14L1080,974.14" style="fill:none;stroke:#000000" />
<path d="M1080,112.55L1080,974.14" style="fill:none;stroke:#000000" />
<path d="M1013,927.49A8,8 0 1 1 997,927.49A8,8 0 1 1 1013,927.49Z" style="fill:#1B9692" />
<text x="892.87" y="-920.9" transform="scale(1, -1)"
	style="font-family:Helvetica;font-weight:normal;font-style:normal;font-size:28px">9 GHz</text>
</g>
</svg>
