<?xml version="1.0"?>
<!-- Generated by SVGo and Plotinum VG -->
<svg width="1080pt" height="1080pt" viewBox="0 0 1080 1080"
	xmlns="http://www.w3.org/2000/svg"
	xmlns:xlink="http://www.w3.org/1999/xlink">
<g transform="scale(1, -1) translate(0, -1080)">
<path d="M0,0L1080,0L1080,1080L0,1080Z" style="fill:#-8000000000000000-8000000000000000-8000000000000000;fill-opacity:0" />
<text x="282.93" y="-1039.5" transform="scale(1, -1)"
	style="font-family:Helvetica;font-weight:normal;font-style:normal;font-size:50px">Liquid-CoreAnti-Stokes</text>
<text x="451.44" y="-11.039" transform="scale(1, -1)"
	style="font-family:Helvetica;font-weight:normal;font-style:normal;font-size:36px">Frequency (GHz)</text>
<text x="113.95" y="-71.258" transform="scale(1, -1)"
	style="font-family:Helvetica;font-weight:normal;font-style:normal;font-size:36px">2</text>
<text x="285.14" y="-71.258" transform="scale(1, -1)"
	style="font-family:Helvetica;font-weight:normal;font-style:normal;font-size:36px">2.1</text>
<text x="471.35" y="-71.258" transform="scale(1, -1)"
	style="font-family:Helvetica;font-weight:normal;font-style:normal;font-size:36px">2.2</text>
<text x="657.55" y="-71.258" transform="scale(1, -1)"
	style="font-family:Helvetica;font-weight:normal;font-style:normal;font-size:36px">2.3</text>
<text x="843.75" y="-71.258" transform="scale(1, -1)"
	style="font-family:Helvetica;font-weight:normal;font-style:normal;font-size:36px">2.4</text>
<text x="1030" y="-71.258" transform="scale(1, -1)"
	style="font-family:Helvetica;font-weight:normal;font-style:normal;font-size:36px">2.5</text>
<path d="M123.96,116.44L123.96,108.44" style="fill:none;stroke:#000000;stroke-width:1.5" />
<path d="M217.06,112.44L217.06,108.44" style="fill:none;stroke:#000000;stroke-width:1.5" />
<path d="M310.16,116.44L310.16,108.44" style="fill:none;stroke:#000000;stroke-width:1.5" />
<path d="M403.27,112.44L403.27,108.44" style="fill:none;stroke:#000000;stroke-width:1.5" />
<path d="M496.37,116.44L496.37,108.44" style="fill:none;stroke:#000000;stroke-width:1.5" />
<path d="M589.47,112.44L589.47,108.44" style="fill:none;stroke:#000000;stroke-width:1.5" />
<path d="M682.57,116.44L682.57,108.44" style="fill:none;stroke:#000000;stroke-width:1.5" />
<path d="M775.67,112.44L775.67,108.44" style="fill:none;stroke:#000000;stroke-width:1.5" />
<path d="M868.77,116.44L868.77,108.44" style="fill:none;stroke:#000000;stroke-width:1.5" />
<path d="M961.88,112.44L961.88,108.44" style="fill:none;stroke:#000000;stroke-width:1.5" />
<path d="M1055,116.44L1055,108.44" style="fill:none;stroke:#000000;stroke-width:1.5" />
<path d="M123.96,108.44L1055,108.44" style="fill:none;stroke:#000000;stroke-width:1.5" />
<g transform="rotate(90)">
<text x="370.67" y="29.18" transform="scale(1, -1)"
	style="font-family:Helvetica;font-weight:normal;font-style:normal;font-size:36px">Spectral Density (nV)</text>
</g>
<text x="87.869" y="-127.36" transform="scale(1, -1)"
	style="font-family:Helvetica;font-weight:normal;font-style:normal;font-size:36px">0</text>
<text x="87.869" y="-366.7" transform="scale(1, -1)"
	style="font-family:Helvetica;font-weight:normal;font-style:normal;font-size:36px">5</text>
<text x="67.848" y="-606.05" transform="scale(1, -1)"
	style="font-family:Helvetica;font-weight:normal;font-style:normal;font-size:36px">10</text>
<text x="67.848" y="-845.4" transform="scale(1, -1)"
	style="font-family:Helvetica;font-weight:normal;font-style:normal;font-size:36px">15</text>
<path d="M133.89,136.43L125.89,136.43" style="fill:none;stroke:#000000;stroke-width:1.5" />
<path d="M129.89,256.1L125.89,256.1" style="fill:none;stroke:#000000;stroke-width:1.5" />
<path d="M133.89,375.77L125.89,375.77" style="fill:none;stroke:#000000;stroke-width:1.5" />
<path d="M129.89,495.45L125.89,495.45" style="fill:none;stroke:#000000;stroke-width:1.5" />
<path d="M133.89,615.12L125.89,615.12" style="fill:none;stroke:#000000;stroke-width:1.5" />
<path d="M129.89,734.79L125.89,734.79" style="fill:none;stroke:#000000;stroke-width:1.5" />
<path d="M133.89,854.47L125.89,854.47" style="fill:none;stroke:#000000;stroke-width:1.5" />
<path d="M129.89,974.14L125.89,974.14" style="fill:none;stroke:#000000;stroke-width:1.5" />
<path d="M125.89,107.32L125.89,974.14" style="fill:none;stroke:#000000;stroke-width:1.5" />
<path d="M127.89,131.95A3,3 0 1 1 121.89,131.95A3,3 0 1 1 127.89,131.95Z" style="fill:#1B9692" />
<path d="M129.75,123.81A3,3 0 1 1 123.75,123.81A3,3 0 1 1 129.75,123.81Z" style="fill:#1B9692" />
<path d="M131.62,147.59A3,3 0 1 1 125.62,147.59A3,3 0 1 1 131.62,147.59Z" style="fill:#1B9692" />
<path d="M133.48,143.06A3,3 0 1 1 127.48,143.06A3,3 0 1 1 133.48,143.06Z" style="fill:#1B9692" />
<path d="M135.34,132.2A3,3 0 1 1 129.34,132.2A3,3 0 1 1 135.34,132.2Z" style="fill:#1B9692" />
<path d="M137.2,128.48A3,3 0 1 1 131.2,128.48A3,3 0 1 1 137.2,128.48Z" style="fill:#1B9692" />
<path d="M139.06,146.67A3,3 0 1 1 133.06,146.67A3,3 0 1 1 139.06,146.67Z" style="fill:#1B9692" />
<path d="M140.93,129.52A3,3 0 1 1 134.93,129.52A3,3 0 1 1 140.93,129.52Z" style="fill:#1B9692" />
<path d="M142.79,125.12A3,3 0 1 1 136.79,125.12A3,3 0 1 1 142.79,125.12Z" style="fill:#1B9692" />
<path d="M144.65,143.21A3,3 0 1 1 138.65,143.21A3,3 0 1 1 144.65,143.21Z" style="fill:#1B9692" />
<path d="M146.51,125.52A3,3 0 1 1 140.51,125.52A3,3 0 1 1 146.51,125.52Z" style="fill:#1B9692" />
<path d="M148.37,132.5A3,3 0 1 1 142.37,132.5A3,3 0 1 1 148.37,132.5Z" style="fill:#1B9692" />
<path d="M150.24,161.75A3,3 0 1 1 144.24,161.75A3,3 0 1 1 150.24,161.75Z" style="fill:#1B9692" />
<path d="M152.1,125.3A3,3 0 1 1 146.1,125.3A3,3 0 1 1 152.1,125.3Z" style="fill:#1B9692" />
<path d="M153.96,136.21A3,3 0 1 1 147.96,136.21A3,3 0 1 1 153.96,136.21Z" style="fill:#1B9692" />
<path d="M155.82,140.58A3,3 0 1 1 149.82,140.58A3,3 0 1 1 155.82,140.58Z" style="fill:#1B9692" />
<path d="M157.69,138.03A3,3 0 1 1 151.69,138.03A3,3 0 1 1 157.69,138.03Z" style="fill:#1B9692" />
<path d="M159.55,125.74A3,3 0 1 1 153.55,125.74A3,3 0 1 1 159.55,125.74Z" style="fill:#1B9692" />
<path d="M161.41,128.41A3,3 0 1 1 155.41,128.41A3,3 0 1 1 161.41,128.41Z" style="fill:#1B9692" />
<path d="M163.27,126.69A3,3 0 1 1 157.27,126.69A3,3 0 1 1 163.27,126.69Z" style="fill:#1B9692" />
<path d="M165.13,150.75A3,3 0 1 1 159.13,150.75A3,3 0 1 1 165.13,150.75Z" style="fill:#1B9692" />
<path d="M167,141.48A3,3 0 1 1 161,141.48A3,3 0 1 1 167,141.48Z" style="fill:#1B9692" />
<path d="M168.86,121.08A3,3 0 1 1 162.86,121.08A3,3 0 1 1 168.86,121.08Z" style="fill:#1B9692" />
<path d="M170.72,127.29A3,3 0 1 1 164.72,127.29A3,3 0 1 1 170.72,127.29Z" style="fill:#1B9692" />
<path d="M172.58,127.99A3,3 0 1 1 166.58,127.99A3,3 0 1 1 172.58,127.99Z" style="fill:#1B9692" />
<path d="M174.44,146.51A3,3 0 1 1 168.44,146.51A3,3 0 1 1 174.44,146.51Z" style="fill:#1B9692" />
<path d="M176.31,137.32A3,3 0 1 1 170.31,137.32A3,3 0 1 1 176.31,137.32Z" style="fill:#1B9692" />
<path d="M178.17,141.57A3,3 0 1 1 172.17,141.57A3,3 0 1 1 178.17,141.57Z" style="fill:#1B9692" />
<path d="M180.03,143.23A3,3 0 1 1 174.03,143.23A3,3 0 1 1 180.03,143.23Z" style="fill:#1B9692" />
<path d="M181.89,138.74A3,3 0 1 1 175.89,138.74A3,3 0 1 1 181.89,138.74Z" style="fill:#1B9692" />
<path d="M183.75,142.41A3,3 0 1 1 177.75,142.41A3,3 0 1 1 183.75,142.41Z" style="fill:#1B9692" />
<path d="M185.62,128.38A3,3 0 1 1 179.62,128.38A3,3 0 1 1 185.62,128.38Z" style="fill:#1B9692" />
<path d="M187.48,139.19A3,3 0 1 1 181.48,139.19A3,3 0 1 1 187.48,139.19Z" style="fill:#1B9692" />
<path d="M189.34,140.83A3,3 0 1 1 183.34,140.83A3,3 0 1 1 189.34,140.83Z" style="fill:#1B9692" />
<path d="M191.2,138.61A3,3 0 1 1 185.2,138.61A3,3 0 1 1 191.2,138.61Z" style="fill:#1B9692" />
<path d="M193.06,127.89A3,3 0 1 1 187.06,127.89A3,3 0 1 1 193.06,127.89Z" style="fill:#1B9692" />
<path d="M194.93,138.41A3,3 0 1 1 188.93,138.41A3,3 0 1 1 194.93,138.41Z" style="fill:#1B9692" />
<path d="M196.79,145.66A3,3 0 1 1 190.79,145.66A3,3 0 1 1 196.79,145.66Z" style="fill:#1B9692" />
<path d="M198.65,142.5A3,3 0 1 1 192.65,142.5A3,3 0 1 1 198.65,142.5Z" style="fill:#1B9692" />
<path d="M200.51,138.23A3,3 0 1 1 194.51,138.23A3,3 0 1 1 200.51,138.23Z" style="fill:#1B9692" />
<path d="M202.37,126.61A3,3 0 1 1 196.37,126.61A3,3 0 1 1 202.37,126.61Z" style="fill:#1B9692" />
<path d="M204.24,146.46A3,3 0 1 1 198.24,146.46A3,3 0 1 1 204.24,146.46Z" style="fill:#1B9692" />
<path d="M206.1,142.51A3,3 0 1 1 200.1,142.51A3,3 0 1 1 206.1,142.51Z" style="fill:#1B9692" />
<path d="M207.96,147.95A3,3 0 1 1 201.96,147.95A3,3 0 1 1 207.96,147.95Z" style="fill:#1B9692" />
<path d="M209.82,136.8A3,3 0 1 1 203.82,136.8A3,3 0 1 1 209.82,136.8Z" style="fill:#1B9692" />
<path d="M211.68,134.69A3,3 0 1 1 205.68,134.69A3,3 0 1 1 211.68,134.69Z" style="fill:#1B9692" />
<path d="M213.55,142.58A3,3 0 1 1 207.55,142.58A3,3 0 1 1 213.55,142.58Z" style="fill:#1B9692" />
<path d="M215.41,132.47A3,3 0 1 1 209.41,132.47A3,3 0 1 1 215.41,132.47Z" style="fill:#1B9692" />
<path d="M217.27,130.13A3,3 0 1 1 211.27,130.13A3,3 0 1 1 217.27,130.13Z" style="fill:#1B9692" />
<path d="M219.13,127.6A3,3 0 1 1 213.13,127.6A3,3 0 1 1 219.13,127.6Z" style="fill:#1B9692" />
<path d="M220.99,116.58A3,3 0 1 1 214.99,116.58A3,3 0 1 1 220.99,116.58Z" style="fill:#1B9692" />
<path d="M222.86,142.57A3,3 0 1 1 216.86,142.57A3,3 0 1 1 222.86,142.57Z" style="fill:#1B9692" />
<path d="M224.72,145.63A3,3 0 1 1 218.72,145.63A3,3 0 1 1 224.72,145.63Z" style="fill:#1B9692" />
<path d="M226.58,138.86A3,3 0 1 1 220.58,138.86A3,3 0 1 1 226.58,138.86Z" style="fill:#1B9692" />
<path d="M228.44,126.19A3,3 0 1 1 222.44,126.19A3,3 0 1 1 228.44,126.19Z" style="fill:#1B9692" />
<path d="M230.3,129.59A3,3 0 1 1 224.3,129.59A3,3 0 1 1 230.3,129.59Z" style="fill:#1B9692" />
<path d="M232.17,141.89A3,3 0 1 1 226.17,141.89A3,3 0 1 1 232.17,141.89Z" style="fill:#1B9692" />
<path d="M234.03,132.13A3,3 0 1 1 228.03,132.13A3,3 0 1 1 234.03,132.13Z" style="fill:#1B9692" />
<path d="M235.89,135.72A3,3 0 1 1 229.89,135.72A3,3 0 1 1 235.89,135.72Z" style="fill:#1B9692" />
<path d="M237.75,130.93A3,3 0 1 1 231.75,130.93A3,3 0 1 1 237.75,130.93Z" style="fill:#1B9692" />
<path d="M239.61,141.95A3,3 0 1 1 233.61,141.95A3,3 0 1 1 239.61,141.95Z" style="fill:#1B9692" />
<path d="M241.48,139.6A3,3 0 1 1 235.48,139.6A3,3 0 1 1 241.48,139.6Z" style="fill:#1B9692" />
<path d="M243.34,157.92A3,3 0 1 1 237.34,157.92A3,3 0 1 1 243.34,157.92Z" style="fill:#1B9692" />
<path d="M245.2,135.99A3,3 0 1 1 239.2,135.99A3,3 0 1 1 245.2,135.99Z" style="fill:#1B9692" />
<path d="M247.06,145.9A3,3 0 1 1 241.06,145.9A3,3 0 1 1 247.06,145.9Z" style="fill:#1B9692" />
<path d="M248.92,127.99A3,3 0 1 1 242.92,127.99A3,3 0 1 1 248.92,127.99Z" style="fill:#1B9692" />
<path d="M250.79,124.68A3,3 0 1 1 244.79,124.68A3,3 0 1 1 250.79,124.68Z" style="fill:#1B9692" />
<path d="M252.65,147.77A3,3 0 1 1 246.65,147.77A3,3 0 1 1 252.65,147.77Z" style="fill:#1B9692" />
<path d="M254.51,138.34A3,3 0 1 1 248.51,138.34A3,3 0 1 1 254.51,138.34Z" style="fill:#1B9692" />
<path d="M256.37,138.59A3,3 0 1 1 250.37,138.59A3,3 0 1 1 256.37,138.59Z" style="fill:#1B9692" />
<path d="M258.23,136.95A3,3 0 1 1 252.23,136.95A3,3 0 1 1 258.23,136.95Z" style="fill:#1B9692" />
<path d="M260.1,128.3A3,3 0 1 1 254.1,128.3A3,3 0 1 1 260.1,128.3Z" style="fill:#1B9692" />
<path d="M261.96,150.62A3,3 0 1 1 255.96,150.62A3,3 0 1 1 261.96,150.62Z" style="fill:#1B9692" />
<path d="M263.82,141.27A3,3 0 1 1 257.82,141.27A3,3 0 1 1 263.82,141.27Z" style="fill:#1B9692" />
<path d="M265.68,125.06A3,3 0 1 1 259.68,125.06A3,3 0 1 1 265.68,125.06Z" style="fill:#1B9692" />
<path d="M267.54,148.41A3,3 0 1 1 261.54,148.41A3,3 0 1 1 267.54,148.41Z" style="fill:#1B9692" />
<path d="M269.41,137.04A3,3 0 1 1 263.41,137.04A3,3 0 1 1 269.41,137.04Z" style="fill:#1B9692" />
<path d="M271.27,128.56A3,3 0 1 1 265.27,128.56A3,3 0 1 1 271.27,128.56Z" style="fill:#1B9692" />
<path d="M273.13,146.29A3,3 0 1 1 267.13,146.29A3,3 0 1 1 273.13,146.29Z" style="fill:#1B9692" />
<path d="M274.99,135.73A3,3 0 1 1 268.99,135.73A3,3 0 1 1 274.99,135.73Z" style="fill:#1B9692" />
<path d="M276.86,141.34A3,3 0 1 1 270.86,141.34A3,3 0 1 1 276.86,141.34Z" style="fill:#1B9692" />
<path d="M278.72,143.46A3,3 0 1 1 272.72,143.46A3,3 0 1 1 278.72,143.46Z" style="fill:#1B9692" />
<path d="M280.58,136.31A3,3 0 1 1 274.58,136.31A3,3 0 1 1 280.58,136.31Z" style="fill:#1B9692" />
<path d="M282.44,134.28A3,3 0 1 1 276.44,134.28A3,3 0 1 1 282.44,134.28Z" style="fill:#1B9692" />
<path d="M284.3,142.08A3,3 0 1 1 278.3,142.08A3,3 0 1 1 284.3,142.08Z" style="fill:#1B9692" />
<path d="M286.17,137.87A3,3 0 1 1 280.17,137.87A3,3 0 1 1 286.17,137.87Z" style="fill:#1B9692" />
<path d="M288.03,126.41A3,3 0 1 1 282.03,126.41A3,3 0 1 1 288.03,126.41Z" style="fill:#1B9692" />
<path d="M289.89,129.47A3,3 0 1 1 283.89,129.47A3,3 0 1 1 289.89,129.47Z" style="fill:#1B9692" />
<path d="M291.75,128.67A3,3 0 1 1 285.75,128.67A3,3 0 1 1 291.75,128.67Z" style="fill:#1B9692" />
<path d="M293.61,148.95A3,3 0 1 1 287.61,148.95A3,3 0 1 1 293.61,148.95Z" style="fill:#1B9692" />
<path d="M295.48,143.51A3,3 0 1 1 289.48,143.51A3,3 0 1 1 295.48,143.51Z" style="fill:#1B9692" />
<path d="M297.34,148.91A3,3 0 1 1 291.34,148.91A3,3 0 1 1 297.34,148.91Z" style="fill:#1B9692" />
<path d="M299.2,147.64A3,3 0 1 1 293.2,147.64A3,3 0 1 1 299.2,147.64Z" style="fill:#1B9692" />
<path d="M301.06,131A3,3 0 1 1 295.06,131A3,3 0 1 1 301.06,131Z" style="fill:#1B9692" />
<path d="M302.92,150.94A3,3 0 1 1 296.92,150.94A3,3 0 1 1 302.92,150.94Z" style="fill:#1B9692" />
<path d="M304.79,140.12A3,3 0 1 1 298.79,140.12A3,3 0 1 1 304.79,140.12Z" style="fill:#1B9692" />
<path d="M306.65,137.98A3,3 0 1 1 300.65,137.98A3,3 0 1 1 306.65,137.98Z" style="fill:#1B9692" />
<path d="M308.51,131.03A3,3 0 1 1 302.51,131.03A3,3 0 1 1 308.51,131.03Z" style="fill:#1B9692" />
<path d="M310.37,136.72A3,3 0 1 1 304.37,136.72A3,3 0 1 1 310.37,136.72Z" style="fill:#1B9692" />
<path d="M312.23,132.57A3,3 0 1 1 306.23,132.57A3,3 0 1 1 312.23,132.57Z" style="fill:#1B9692" />
<path d="M314.1,149.59A3,3 0 1 1 308.1,149.59A3,3 0 1 1 314.1,149.59Z" style="fill:#1B9692" />
<path d="M315.96,134.74A3,3 0 1 1 309.96,134.74A3,3 0 1 1 315.96,134.74Z" style="fill:#1B9692" />
<path d="M317.82,141.51A3,3 0 1 1 311.82,141.51A3,3 0 1 1 317.82,141.51Z" style="fill:#1B9692" />
<path d="M319.68,157.14A3,3 0 1 1 313.68,157.14A3,3 0 1 1 319.68,157.14Z" style="fill:#1B9692" />
<path d="M321.54,139.81A3,3 0 1 1 315.54,139.81A3,3 0 1 1 321.54,139.81Z" style="fill:#1B9692" />
<path d="M323.41,142.24A3,3 0 1 1 317.41,142.24A3,3 0 1 1 323.41,142.24Z" style="fill:#1B9692" />
<path d="M325.27,150.22A3,3 0 1 1 319.27,150.22A3,3 0 1 1 325.27,150.22Z" style="fill:#1B9692" />
<path d="M327.13,151.44A3,3 0 1 1 321.13,151.44A3,3 0 1 1 327.13,151.44Z" style="fill:#1B9692" />
<path d="M328.99,148.86A3,3 0 1 1 322.99,148.86A3,3 0 1 1 328.99,148.86Z" style="fill:#1B9692" />
<path d="M330.85,137.8A3,3 0 1 1 324.85,137.8A3,3 0 1 1 330.85,137.8Z" style="fill:#1B9692" />
<path d="M332.72,142.27A3,3 0 1 1 326.72,142.27A3,3 0 1 1 332.72,142.27Z" style="fill:#1B9692" />
<path d="M334.58,140.19A3,3 0 1 1 328.58,140.19A3,3 0 1 1 334.58,140.19Z" style="fill:#1B9692" />
<path d="M336.44,144.87A3,3 0 1 1 330.44,144.87A3,3 0 1 1 336.44,144.87Z" style="fill:#1B9692" />
<path d="M338.3,150.22A3,3 0 1 1 332.3,150.22A3,3 0 1 1 338.3,150.22Z" style="fill:#1B9692" />
<path d="M340.16,134.22A3,3 0 1 1 334.16,134.22A3,3 0 1 1 340.16,134.22Z" style="fill:#1B9692" />
<path d="M342.03,152.66A3,3 0 1 1 336.03,152.66A3,3 0 1 1 342.03,152.66Z" style="fill:#1B9692" />
<path d="M343.89,136.92A3,3 0 1 1 337.89,136.92A3,3 0 1 1 343.89,136.92Z" style="fill:#1B9692" />
<path d="M345.75,138.9A3,3 0 1 1 339.75,138.9A3,3 0 1 1 345.75,138.9Z" style="fill:#1B9692" />
<path d="M347.61,143.58A3,3 0 1 1 341.61,143.58A3,3 0 1 1 347.61,143.58Z" style="fill:#1B9692" />
<path d="M349.47,138.62A3,3 0 1 1 343.47,138.62A3,3 0 1 1 349.47,138.62Z" style="fill:#1B9692" />
<path d="M351.34,144.87A3,3 0 1 1 345.34,144.87A3,3 0 1 1 351.34,144.87Z" style="fill:#1B9692" />
<path d="M353.2,141.57A3,3 0 1 1 347.2,141.57A3,3 0 1 1 353.2,141.57Z" style="fill:#1B9692" />
<path d="M355.06,148.15A3,3 0 1 1 349.06,148.15A3,3 0 1 1 355.06,148.15Z" style="fill:#1B9692" />
<path d="M356.92,144.23A3,3 0 1 1 350.92,144.23A3,3 0 1 1 356.92,144.23Z" style="fill:#1B9692" />
<path d="M358.78,144.82A3,3 0 1 1 352.78,144.82A3,3 0 1 1 358.78,144.82Z" style="fill:#1B9692" />
<path d="M360.65,128.4A3,3 0 1 1 354.65,128.4A3,3 0 1 1 360.65,128.4Z" style="fill:#1B9692" />
<path d="M362.51,140.93A3,3 0 1 1 356.51,140.93A3,3 0 1 1 362.51,140.93Z" style="fill:#1B9692" />
<path d="M364.37,131.04A3,3 0 1 1 358.37,131.04A3,3 0 1 1 364.37,131.04Z" style="fill:#1B9692" />
<path d="M366.23,136.35A3,3 0 1 1 360.23,136.35A3,3 0 1 1 366.23,136.35Z" style="fill:#1B9692" />
<path d="M368.09,139.97A3,3 0 1 1 362.09,139.97A3,3 0 1 1 368.09,139.97Z" style="fill:#1B9692" />
<path d="M369.96,141.01A3,3 0 1 1 363.96,141.01A3,3 0 1 1 369.96,141.01Z" style="fill:#1B9692" />
<path d="M371.82,153.26A3,3 0 1 1 365.82,153.26A3,3 0 1 1 371.82,153.26Z" style="fill:#1B9692" />
<path d="M373.68,147.42A3,3 0 1 1 367.68,147.42A3,3 0 1 1 373.68,147.42Z" style="fill:#1B9692" />
<path d="M375.54,147.45A3,3 0 1 1 369.54,147.45A3,3 0 1 1 375.54,147.45Z" style="fill:#1B9692" />
<path d="M377.4,139.16A3,3 0 1 1 371.4,139.16A3,3 0 1 1 377.4,139.16Z" style="fill:#1B9692" />
<path d="M379.27,135.13A3,3 0 1 1 373.27,135.13A3,3 0 1 1 379.27,135.13Z" style="fill:#1B9692" />
<path d="M381.13,141.68A3,3 0 1 1 375.13,141.68A3,3 0 1 1 381.13,141.68Z" style="fill:#1B9692" />
<path d="M382.99,134.97A3,3 0 1 1 376.99,134.97A3,3 0 1 1 382.99,134.97Z" style="fill:#1B9692" />
<path d="M384.85,130.46A3,3 0 1 1 378.85,130.46A3,3 0 1 1 384.85,130.46Z" style="fill:#1B9692" />
<path d="M386.72,144.23A3,3 0 1 1 380.72,144.23A3,3 0 1 1 386.72,144.23Z" style="fill:#1B9692" />
<path d="M388.58,135.06A3,3 0 1 1 382.58,135.06A3,3 0 1 1 388.58,135.06Z" style="fill:#1B9692" />
<path d="M390.44,148.7A3,3 0 1 1 384.44,148.7A3,3 0 1 1 390.44,148.7Z" style="fill:#1B9692" />
<path d="M392.3,142.28A3,3 0 1 1 386.3,142.28A3,3 0 1 1 392.3,142.28Z" style="fill:#1B9692" />
<path d="M394.16,143.59A3,3 0 1 1 388.16,143.59A3,3 0 1 1 394.16,143.59Z" style="fill:#1B9692" />
<path d="M396.03,138.92A3,3 0 1 1 390.03,138.92A3,3 0 1 1 396.03,138.92Z" style="fill:#1B9692" />
<path d="M397.89,152.63A3,3 0 1 1 391.89,152.63A3,3 0 1 1 397.89,152.63Z" style="fill:#1B9692" />
<path d="M399.75,146.82A3,3 0 1 1 393.75,146.82A3,3 0 1 1 399.75,146.82Z" style="fill:#1B9692" />
<path d="M401.61,139.04A3,3 0 1 1 395.61,139.04A3,3 0 1 1 401.61,139.04Z" style="fill:#1B9692" />
<path d="M403.47,145.51A3,3 0 1 1 397.47,145.51A3,3 0 1 1 403.47,145.51Z" style="fill:#1B9692" />
<path d="M405.34,139.58A3,3 0 1 1 399.34,139.58A3,3 0 1 1 405.34,139.58Z" style="fill:#1B9692" />
<path d="M407.2,142.3A3,3 0 1 1 401.2,142.3A3,3 0 1 1 407.2,142.3Z" style="fill:#1B9692" />
<path d="M409.06,142.27A3,3 0 1 1 403.06,142.27A3,3 0 1 1 409.06,142.27Z" style="fill:#1B9692" />
<path d="M410.92,139.03A3,3 0 1 1 404.92,139.03A3,3 0 1 1 410.92,139.03Z" style="fill:#1B9692" />
<path d="M412.78,141.67A3,3 0 1 1 406.78,141.67A3,3 0 1 1 412.78,141.67Z" style="fill:#1B9692" />
<path d="M414.65,148.44A3,3 0 1 1 408.65,148.44A3,3 0 1 1 414.65,148.44Z" style="fill:#1B9692" />
<path d="M416.51,147.44A3,3 0 1 1 410.51,147.44A3,3 0 1 1 416.51,147.44Z" style="fill:#1B9692" />
<path d="M418.37,146.16A3,3 0 1 1 412.37,146.16A3,3 0 1 1 418.37,146.16Z" style="fill:#1B9692" />
<path d="M420.23,142.96A3,3 0 1 1 414.23,142.96A3,3 0 1 1 420.23,142.96Z" style="fill:#1B9692" />
<path d="M422.09,141.56A3,3 0 1 1 416.09,141.56A3,3 0 1 1 422.09,141.56Z" style="fill:#1B9692" />
<path d="M423.96,138.11A3,3 0 1 1 417.96,138.11A3,3 0 1 1 423.96,138.11Z" style="fill:#1B9692" />
<path d="M425.82,139.71A3,3 0 1 1 419.82,139.71A3,3 0 1 1 425.82,139.71Z" style="fill:#1B9692" />
<path d="M427.68,150.64A3,3 0 1 1 421.68,150.64A3,3 0 1 1 427.68,150.64Z" style="fill:#1B9692" />
<path d="M429.54,136.89A3,3 0 1 1 423.54,136.89A3,3 0 1 1 429.54,136.89Z" style="fill:#1B9692" />
<path d="M431.4,139.63A3,3 0 1 1 425.4,139.63A3,3 0 1 1 431.4,139.63Z" style="fill:#1B9692" />
<path d="M433.27,149.47A3,3 0 1 1 427.27,149.47A3,3 0 1 1 433.27,149.47Z" style="fill:#1B9692" />
<path d="M435.13,147.45A3,3 0 1 1 429.13,147.45A3,3 0 1 1 435.13,147.45Z" style="fill:#1B9692" />
<path d="M436.99,146.17A3,3 0 1 1 430.99,146.17A3,3 0 1 1 436.99,146.17Z" style="fill:#1B9692" />
<path d="M438.85,139.62A3,3 0 1 1 432.85,139.62A3,3 0 1 1 438.85,139.62Z" style="fill:#1B9692" />
<path d="M440.71,135.75A3,3 0 1 1 434.71,135.75A3,3 0 1 1 440.71,135.75Z" style="fill:#1B9692" />
<path d="M442.58,148.39A3,3 0 1 1 436.58,148.39A3,3 0 1 1 442.58,148.39Z" style="fill:#1B9692" />
<path d="M444.44,139A3,3 0 1 1 438.44,139A3,3 0 1 1 444.44,139Z" style="fill:#1B9692" />
<path d="M446.3,140.91A3,3 0 1 1 440.3,140.91A3,3 0 1 1 446.3,140.91Z" style="fill:#1B9692" />
<path d="M448.16,151.94A3,3 0 1 1 442.16,151.94A3,3 0 1 1 448.16,151.94Z" style="fill:#1B9692" />
<path d="M450.02,142.22A3,3 0 1 1 444.02,142.22A3,3 0 1 1 450.02,142.22Z" style="fill:#1B9692" />
<path d="M451.89,137.22A3,3 0 1 1 445.89,137.22A3,3 0 1 1 451.89,137.22Z" style="fill:#1B9692" />
<path d="M453.75,151.33A3,3 0 1 1 447.75,151.33A3,3 0 1 1 453.75,151.33Z" style="fill:#1B9692" />
<path d="M455.61,149.37A3,3 0 1 1 449.61,149.37A3,3 0 1 1 455.61,149.37Z" style="fill:#1B9692" />
<path d="M457.47,133.54A3,3 0 1 1 451.47,133.54A3,3 0 1 1 457.47,133.54Z" style="fill:#1B9692" />
<path d="M459.33,138.89A3,3 0 1 1 453.33,138.89A3,3 0 1 1 459.33,138.89Z" style="fill:#1B9692" />
<path d="M461.2,146.51A3,3 0 1 1 455.2,146.51A3,3 0 1 1 461.2,146.51Z" style="fill:#1B9692" />
<path d="M463.06,154.53A3,3 0 1 1 457.06,154.53A3,3 0 1 1 463.06,154.53Z" style="fill:#1B9692" />
<path d="M464.92,152.75A3,3 0 1 1 458.92,152.75A3,3 0 1 1 464.92,152.75Z" style="fill:#1B9692" />
<path d="M466.78,140.19A3,3 0 1 1 460.78,140.19A3,3 0 1 1 466.78,140.19Z" style="fill:#1B9692" />
<path d="M468.64,151.97A3,3 0 1 1 462.64,151.97A3,3 0 1 1 468.64,151.97Z" style="fill:#1B9692" />
<path d="M470.51,151.53A3,3 0 1 1 464.51,151.53A3,3 0 1 1 470.51,151.53Z" style="fill:#1B9692" />
<path d="M472.37,154.87A3,3 0 1 1 466.37,154.87A3,3 0 1 1 472.37,154.87Z" style="fill:#1B9692" />
<path d="M474.23,155.95A3,3 0 1 1 468.23,155.95A3,3 0 1 1 474.23,155.95Z" style="fill:#1B9692" />
<path d="M476.09,147.53A3,3 0 1 1 470.09,147.53A3,3 0 1 1 476.09,147.53Z" style="fill:#1B9692" />
<path d="M477.95,142.2A3,3 0 1 1 471.95,142.2A3,3 0 1 1 477.95,142.2Z" style="fill:#1B9692" />
<path d="M479.82,161.7A3,3 0 1 1 473.82,161.7A3,3 0 1 1 479.82,161.7Z" style="fill:#1B9692" />
<path d="M481.68,147.58A3,3 0 1 1 475.68,147.58A3,3 0 1 1 481.68,147.58Z" style="fill:#1B9692" />
<path d="M483.54,146.89A3,3 0 1 1 477.54,146.89A3,3 0 1 1 483.54,146.89Z" style="fill:#1B9692" />
<path d="M485.4,163.09A3,3 0 1 1 479.4,163.09A3,3 0 1 1 485.4,163.09Z" style="fill:#1B9692" />
<path d="M487.26,146.86A3,3 0 1 1 481.26,146.86A3,3 0 1 1 487.26,146.86Z" style="fill:#1B9692" />
<path d="M489.13,151.09A3,3 0 1 1 483.13,151.09A3,3 0 1 1 489.13,151.09Z" style="fill:#1B9692" />
<path d="M490.99,156.15A3,3 0 1 1 484.99,156.15A3,3 0 1 1 490.99,156.15Z" style="fill:#1B9692" />
<path d="M492.85,144.19A3,3 0 1 1 486.85,144.19A3,3 0 1 1 492.85,144.19Z" style="fill:#1B9692" />
<path d="M494.71,151.66A3,3 0 1 1 488.71,151.66A3,3 0 1 1 494.71,151.66Z" style="fill:#1B9692" />
<path d="M496.57,161A3,3 0 1 1 490.57,161A3,3 0 1 1 496.57,161Z" style="fill:#1B9692" />
<path d="M498.44,155.28A3,3 0 1 1 492.44,155.28A3,3 0 1 1 498.44,155.28Z" style="fill:#1B9692" />
<path d="M500.3,156.26A3,3 0 1 1 494.3,156.26A3,3 0 1 1 500.3,156.26Z" style="fill:#1B9692" />
<path d="M502.16,157.54A3,3 0 1 1 496.16,157.54A3,3 0 1 1 502.16,157.54Z" style="fill:#1B9692" />
<path d="M504.02,153.7A3,3 0 1 1 498.02,153.7A3,3 0 1 1 504.02,153.7Z" style="fill:#1B9692" />
<path d="M505.89,159.23A3,3 0 1 1 499.89,159.23A3,3 0 1 1 505.89,159.23Z" style="fill:#1B9692" />
<path d="M507.75,152.07A3,3 0 1 1 501.75,152.07A3,3 0 1 1 507.75,152.07Z" style="fill:#1B9692" />
<path d="M509.61,143.51A3,3 0 1 1 503.61,143.51A3,3 0 1 1 509.61,143.51Z" style="fill:#1B9692" />
<path d="M511.47,175.65A3,3 0 1 1 505.47,175.65A3,3 0 1 1 511.47,175.65Z" style="fill:#1B9692" />
<path d="M513.33,157.05A3,3 0 1 1 507.33,157.05A3,3 0 1 1 513.33,157.05Z" style="fill:#1B9692" />
<path d="M515.2,153.76A3,3 0 1 1 509.2,153.76A3,3 0 1 1 515.2,153.76Z" style="fill:#1B9692" />
<path d="M517.06,158.63A3,3 0 1 1 511.06,158.63A3,3 0 1 1 517.06,158.63Z" style="fill:#1B9692" />
<path d="M518.92,163.33A3,3 0 1 1 512.92,163.33A3,3 0 1 1 518.92,163.33Z" style="fill:#1B9692" />
<path d="M520.78,155.27A3,3 0 1 1 514.78,155.27A3,3 0 1 1 520.78,155.27Z" style="fill:#1B9692" />
<path d="M522.64,158.63A3,3 0 1 1 516.64,158.63A3,3 0 1 1 522.64,158.63Z" style="fill:#1B9692" />
<path d="M524.51,158.17A3,3 0 1 1 518.51,158.17A3,3 0 1 1 524.51,158.17Z" style="fill:#1B9692" />
<path d="M526.37,157.39A3,3 0 1 1 520.37,157.39A3,3 0 1 1 526.37,157.39Z" style="fill:#1B9692" />
<path d="M528.23,159.46A3,3 0 1 1 522.23,159.46A3,3 0 1 1 528.23,159.46Z" style="fill:#1B9692" />
<path d="M530.09,156.16A3,3 0 1 1 524.09,156.16A3,3 0 1 1 530.09,156.16Z" style="fill:#1B9692" />
<path d="M531.95,162.08A3,3 0 1 1 525.95,162.08A3,3 0 1 1 531.95,162.08Z" style="fill:#1B9692" />
<path d="M533.82,156.08A3,3 0 1 1 527.82,156.08A3,3 0 1 1 533.82,156.08Z" style="fill:#1B9692" />
<path d="M535.68,161.06A3,3 0 1 1 529.68,161.06A3,3 0 1 1 535.68,161.06Z" style="fill:#1B9692" />
<path d="M537.54,161.11A3,3 0 1 1 531.54,161.11A3,3 0 1 1 537.54,161.11Z" style="fill:#1B9692" />
<path d="M539.4,171.13A3,3 0 1 1 533.4,171.13A3,3 0 1 1 539.4,171.13Z" style="fill:#1B9692" />
<path d="M541.26,167.8A3,3 0 1 1 535.26,167.8A3,3 0 1 1 541.26,167.8Z" style="fill:#1B9692" />
<path d="M543.13,176.88A3,3 0 1 1 537.13,176.88A3,3 0 1 1 543.13,176.88Z" style="fill:#1B9692" />
<path d="M544.99,165.13A3,3 0 1 1 538.99,165.13A3,3 0 1 1 544.99,165.13Z" style="fill:#1B9692" />
<path d="M546.85,152.77A3,3 0 1 1 540.85,152.77A3,3 0 1 1 546.85,152.77Z" style="fill:#1B9692" />
<path d="M548.71,159.87A3,3 0 1 1 542.71,159.87A3,3 0 1 1 548.71,159.87Z" style="fill:#1B9692" />
<path d="M550.57,167.5A3,3 0 1 1 544.57,167.5A3,3 0 1 1 550.57,167.5Z" style="fill:#1B9692" />
<path d="M552.44,160.6A3,3 0 1 1 546.44,160.6A3,3 0 1 1 552.44,160.6Z" style="fill:#1B9692" />
<path d="M554.3,163.94A3,3 0 1 1 548.3,163.94A3,3 0 1 1 554.3,163.94Z" style="fill:#1B9692" />
<path d="M556.16,158.95A3,3 0 1 1 550.16,158.95A3,3 0 1 1 556.16,158.95Z" style="fill:#1B9692" />
<path d="M558.02,166.28A3,3 0 1 1 552.02,166.28A3,3 0 1 1 558.02,166.28Z" style="fill:#1B9692" />
<path d="M559.88,172.99A3,3 0 1 1 553.88,172.99A3,3 0 1 1 559.88,172.99Z" style="fill:#1B9692" />
<path d="M561.75,144.87A3,3 0 1 1 555.75,144.87A3,3 0 1 1 561.75,144.87Z" style="fill:#1B9692" />
<path d="M563.61,154.9A3,3 0 1 1 557.61,154.9A3,3 0 1 1 563.61,154.9Z" style="fill:#1B9692" />
<path d="M565.47,171.86A3,3 0 1 1 559.47,171.86A3,3 0 1 1 565.47,171.86Z" style="fill:#1B9692" />
<path d="M567.33,161.88A3,3 0 1 1 561.33,161.88A3,3 0 1 1 567.33,161.88Z" style="fill:#1B9692" />
<path d="M569.19,160.65A3,3 0 1 1 563.19,160.65A3,3 0 1 1 569.19,160.65Z" style="fill:#1B9692" />
<path d="M571.06,153.16A3,3 0 1 1 565.06,153.16A3,3 0 1 1 571.06,153.16Z" style="fill:#1B9692" />
<path d="M572.92,158.63A3,3 0 1 1 566.92,158.63A3,3 0 1 1 572.92,158.63Z" style="fill:#1B9692" />
<path d="M574.78,155.43A3,3 0 1 1 568.78,155.43A3,3 0 1 1 574.78,155.43Z" style="fill:#1B9692" />
<path d="M576.64,155.48A3,3 0 1 1 570.64,155.48A3,3 0 1 1 576.64,155.48Z" style="fill:#1B9692" />
<path d="M578.5,171.34A3,3 0 1 1 572.5,171.34A3,3 0 1 1 578.5,171.34Z" style="fill:#1B9692" />
<path d="M580.37,163.01A3,3 0 1 1 574.37,163.01A3,3 0 1 1 580.37,163.01Z" style="fill:#1B9692" />
<path d="M582.23,151.73A3,3 0 1 1 576.23,151.73A3,3 0 1 1 582.23,151.73Z" style="fill:#1B9692" />
<path d="M584.09,162.93A3,3 0 1 1 578.09,162.93A3,3 0 1 1 584.09,162.93Z" style="fill:#1B9692" />
<path d="M585.95,169.84A3,3 0 1 1 579.95,169.84A3,3 0 1 1 585.95,169.84Z" style="fill:#1B9692" />
<path d="M587.81,166.13A3,3 0 1 1 581.81,166.13A3,3 0 1 1 587.81,166.13Z" style="fill:#1B9692" />
<path d="M589.68,158.16A3,3 0 1 1 583.68,158.16A3,3 0 1 1 589.68,158.16Z" style="fill:#1B9692" />
<path d="M591.54,156.92A3,3 0 1 1 585.54,156.92A3,3 0 1 1 591.54,156.92Z" style="fill:#1B9692" />
<path d="M593.4,147.23A3,3 0 1 1 587.4,147.23A3,3 0 1 1 593.4,147.23Z" style="fill:#1B9692" />
<path d="M595.26,149.69A3,3 0 1 1 589.26,149.69A3,3 0 1 1 595.26,149.69Z" style="fill:#1B9692" />
<path d="M597.12,163.65A3,3 0 1 1 591.12,163.65A3,3 0 1 1 597.12,163.65Z" style="fill:#1B9692" />
<path d="M598.99,151.99A3,3 0 1 1 592.99,151.99A3,3 0 1 1 598.99,151.99Z" style="fill:#1B9692" />
<path d="M600.85,160.32A3,3 0 1 1 594.85,160.32A3,3 0 1 1 600.85,160.32Z" style="fill:#1B9692" />
<path d="M602.71,151.15A3,3 0 1 1 596.71,151.15A3,3 0 1 1 602.71,151.15Z" style="fill:#1B9692" />
<path d="M604.57,142.44A3,3 0 1 1 598.57,142.44A3,3 0 1 1 604.57,142.44Z" style="fill:#1B9692" />
<path d="M606.43,156.98A3,3 0 1 1 600.43,156.98A3,3 0 1 1 606.43,156.98Z" style="fill:#1B9692" />
<path d="M608.3,145.68A3,3 0 1 1 602.3,145.68A3,3 0 1 1 608.3,145.68Z" style="fill:#1B9692" />
<path d="M610.16,159.21A3,3 0 1 1 604.16,159.21A3,3 0 1 1 610.16,159.21Z" style="fill:#1B9692" />
<path d="M612.02,153.61A3,3 0 1 1 606.02,153.61A3,3 0 1 1 612.02,153.61Z" style="fill:#1B9692" />
<path d="M613.88,155.29A3,3 0 1 1 607.88,155.29A3,3 0 1 1 613.88,155.29Z" style="fill:#1B9692" />
<path d="M615.74,161.74A3,3 0 1 1 609.74,161.74A3,3 0 1 1 615.74,161.74Z" style="fill:#1B9692" />
<path d="M617.61,161.07A3,3 0 1 1 611.61,161.07A3,3 0 1 1 617.61,161.07Z" style="fill:#1B9692" />
<path d="M619.47,152.51A3,3 0 1 1 613.47,152.51A3,3 0 1 1 619.47,152.51Z" style="fill:#1B9692" />
<path d="M621.33,132.35A3,3 0 1 1 615.33,132.35A3,3 0 1 1 621.33,132.35Z" style="fill:#1B9692" />
<path d="M623.19,150.65A3,3 0 1 1 617.19,150.65A3,3 0 1 1 623.19,150.65Z" style="fill:#1B9692" />
<path d="M625.06,158.13A3,3 0 1 1 619.06,158.13A3,3 0 1 1 625.06,158.13Z" style="fill:#1B9692" />
<path d="M626.92,157.2A3,3 0 1 1 620.92,157.2A3,3 0 1 1 626.92,157.2Z" style="fill:#1B9692" />
<path d="M628.78,157.86A3,3 0 1 1 622.78,157.86A3,3 0 1 1 628.78,157.86Z" style="fill:#1B9692" />
<path d="M630.64,141.55A3,3 0 1 1 624.64,141.55A3,3 0 1 1 630.64,141.55Z" style="fill:#1B9692" />
<path d="M632.5,144.87A3,3 0 1 1 626.5,144.87A3,3 0 1 1 632.5,144.87Z" style="fill:#1B9692" />
<path d="M634.37,145.72A3,3 0 1 1 628.37,145.72A3,3 0 1 1 634.37,145.72Z" style="fill:#1B9692" />
<path d="M636.23,154.88A3,3 0 1 1 630.23,154.88A3,3 0 1 1 636.23,154.88Z" style="fill:#1B9692" />
<path d="M638.09,163.69A3,3 0 1 1 632.09,163.69A3,3 0 1 1 638.09,163.69Z" style="fill:#1B9692" />
<path d="M639.95,150.9A3,3 0 1 1 633.95,150.9A3,3 0 1 1 639.95,150.9Z" style="fill:#1B9692" />
<path d="M641.81,155.07A3,3 0 1 1 635.81,155.07A3,3 0 1 1 641.81,155.07Z" style="fill:#1B9692" />
<path d="M643.68,155.96A3,3 0 1 1 637.68,155.96A3,3 0 1 1 643.68,155.96Z" style="fill:#1B9692" />
<path d="M645.54,137.85A3,3 0 1 1 639.54,137.85A3,3 0 1 1 645.54,137.85Z" style="fill:#1B9692" />
<path d="M647.4,161.53A3,3 0 1 1 641.4,161.53A3,3 0 1 1 647.4,161.53Z" style="fill:#1B9692" />
<path d="M649.26,138.85A3,3 0 1 1 643.26,138.85A3,3 0 1 1 649.26,138.85Z" style="fill:#1B9692" />
<path d="M651.12,146.62A3,3 0 1 1 645.12,146.62A3,3 0 1 1 651.12,146.62Z" style="fill:#1B9692" />
<path d="M652.99,151.05A3,3 0 1 1 646.99,151.05A3,3 0 1 1 652.99,151.05Z" style="fill:#1B9692" />
<path d="M654.85,151.98A3,3 0 1 1 648.85,151.98A3,3 0 1 1 654.85,151.98Z" style="fill:#1B9692" />
<path d="M656.71,147.32A3,3 0 1 1 650.71,147.32A3,3 0 1 1 656.71,147.32Z" style="fill:#1B9692" />
<path d="M658.57,148.34A3,3 0 1 1 652.57,148.34A3,3 0 1 1 658.57,148.34Z" style="fill:#1B9692" />
<path d="M660.43,150.16A3,3 0 1 1 654.43,150.16A3,3 0 1 1 660.43,150.16Z" style="fill:#1B9692" />
<path d="M662.3,147.58A3,3 0 1 1 656.3,147.58A3,3 0 1 1 662.3,147.58Z" style="fill:#1B9692" />
<path d="M664.16,148.47A3,3 0 1 1 658.16,148.47A3,3 0 1 1 664.16,148.47Z" style="fill:#1B9692" />
<path d="M666.02,148.07A3,3 0 1 1 660.02,148.07A3,3 0 1 1 666.02,148.07Z" style="fill:#1B9692" />
<path d="M667.88,146.67A3,3 0 1 1 661.88,146.67A3,3 0 1 1 667.88,146.67Z" style="fill:#1B9692" />
<path d="M669.74,138.48A3,3 0 1 1 663.74,138.48A3,3 0 1 1 669.74,138.48Z" style="fill:#1B9692" />
<path d="M671.61,153.02A3,3 0 1 1 665.61,153.02A3,3 0 1 1 671.61,153.02Z" style="fill:#1B9692" />
<path d="M673.47,138.49A3,3 0 1 1 667.47,138.49A3,3 0 1 1 673.47,138.49Z" style="fill:#1B9692" />
<path d="M675.33,139.33A3,3 0 1 1 669.33,139.33A3,3 0 1 1 675.33,139.33Z" style="fill:#1B9692" />
<path d="M677.19,133.82A3,3 0 1 1 671.19,133.82A3,3 0 1 1 677.19,133.82Z" style="fill:#1B9692" />
<path d="M679.05,156.92A3,3 0 1 1 673.05,156.92A3,3 0 1 1 679.05,156.92Z" style="fill:#1B9692" />
<path d="M680.92,148.59A3,3 0 1 1 674.92,148.59A3,3 0 1 1 680.92,148.59Z" style="fill:#1B9692" />
<path d="M682.78,142.09A3,3 0 1 1 676.78,142.09A3,3 0 1 1 682.78,142.09Z" style="fill:#1B9692" />
<path d="M684.64,144.34A3,3 0 1 1 678.64,144.34A3,3 0 1 1 684.64,144.34Z" style="fill:#1B9692" />
<path d="M686.5,134.57A3,3 0 1 1 680.5,134.57A3,3 0 1 1 686.5,134.57Z" style="fill:#1B9692" />
<path d="M688.36,154.15A3,3 0 1 1 682.36,154.15A3,3 0 1 1 688.36,154.15Z" style="fill:#1B9692" />
<path d="M690.23,122.72A3,3 0 1 1 684.23,122.72A3,3 0 1 1 690.23,122.72Z" style="fill:#1B9692" />
<path d="M692.09,154.23A3,3 0 1 1 686.09,154.23A3,3 0 1 1 692.09,154.23Z" style="fill:#1B9692" />
<path d="M693.95,137.74A3,3 0 1 1 687.95,137.74A3,3 0 1 1 693.95,137.74Z" style="fill:#1B9692" />
<path d="M695.81,132.58A3,3 0 1 1 689.81,132.58A3,3 0 1 1 695.81,132.58Z" style="fill:#1B9692" />
<path d="M697.67,147.7A3,3 0 1 1 691.67,147.7A3,3 0 1 1 697.67,147.7Z" style="fill:#1B9692" />
<path d="M699.54,138.19A3,3 0 1 1 693.54,138.19A3,3 0 1 1 699.54,138.19Z" style="fill:#1B9692" />
<path d="M701.4,129.44A3,3 0 1 1 695.4,129.44A3,3 0 1 1 701.4,129.44Z" style="fill:#1B9692" />
<path d="M703.26,152.5A3,3 0 1 1 697.26,152.5A3,3 0 1 1 703.26,152.5Z" style="fill:#1B9692" />
<path d="M705.12,151.54A3,3 0 1 1 699.12,151.54A3,3 0 1 1 705.12,151.54Z" style="fill:#1B9692" />
<path d="M706.98,144.87A3,3 0 1 1 700.98,144.87A3,3 0 1 1 706.98,144.87Z" style="fill:#1B9692" />
<path d="M708.85,129.95A3,3 0 1 1 702.85,129.95A3,3 0 1 1 708.85,129.95Z" style="fill:#1B9692" />
<path d="M710.71,147.78A3,3 0 1 1 704.71,147.78A3,3 0 1 1 710.71,147.78Z" style="fill:#1B9692" />
<path d="M712.57,150.46A3,3 0 1 1 706.57,150.46A3,3 0 1 1 712.57,150.46Z" style="fill:#1B9692" />
<path d="M714.43,158.31A3,3 0 1 1 708.43,158.31A3,3 0 1 1 714.43,158.31Z" style="fill:#1B9692" />
<path d="M716.29,120.51A3,3 0 1 1 710.29,120.51A3,3 0 1 1 716.29,120.51Z" style="fill:#1B9692" />
<path d="M718.16,141A3,3 0 1 1 712.16,141A3,3 0 1 1 718.16,141Z" style="fill:#1B9692" />
<path d="M720.02,140.04A3,3 0 1 1 714.02,140.04A3,3 0 1 1 720.02,140.04Z" style="fill:#1B9692" />
<path d="M721.88,139.39A3,3 0 1 1 715.88,139.39A3,3 0 1 1 721.88,139.39Z" style="fill:#1B9692" />
<path d="M723.74,146.84A3,3 0 1 1 717.74,146.84A3,3 0 1 1 723.74,146.84Z" style="fill:#1B9692" />
<path d="M725.6,121.02A3,3 0 1 1 719.6,121.02A3,3 0 1 1 725.6,121.02Z" style="fill:#1B9692" />
<path d="M727.47,146.87A3,3 0 1 1 721.47,146.87A3,3 0 1 1 727.47,146.87Z" style="fill:#1B9692" />
<path d="M729.33,161.48A3,3 0 1 1 723.33,161.48A3,3 0 1 1 729.33,161.48Z" style="fill:#1B9692" />
<path d="M731.19,141.41A3,3 0 1 1 725.19,141.41A3,3 0 1 1 731.19,141.41Z" style="fill:#1B9692" />
<path d="M733.05,141.86A3,3 0 1 1 727.05,141.86A3,3 0 1 1 733.05,141.86Z" style="fill:#1B9692" />
<path d="M734.91,130.96A3,3 0 1 1 728.91,130.96A3,3 0 1 1 734.91,130.96Z" style="fill:#1B9692" />
<path d="M736.78,127.53A3,3 0 1 1 730.78,127.53A3,3 0 1 1 736.78,127.53Z" style="fill:#1B9692" />
<path d="M738.64,145.86A3,3 0 1 1 732.64,145.86A3,3 0 1 1 738.64,145.86Z" style="fill:#1B9692" />
<path d="M740.5,145.86A3,3 0 1 1 734.5,145.86A3,3 0 1 1 740.5,145.86Z" style="fill:#1B9692" />
<path d="M742.36,149.85A3,3 0 1 1 736.36,149.85A3,3 0 1 1 742.36,149.85Z" style="fill:#1B9692" />
<path d="M744.23,117.26A3,3 0 1 1 738.23,117.26A3,3 0 1 1 744.23,117.26Z" style="fill:#1B9692" />
<path d="M746.09,154.79A3,3 0 1 1 740.09,154.79A3,3 0 1 1 746.09,154.79Z" style="fill:#1B9692" />
<path d="M747.95,122.55A3,3 0 1 1 741.95,122.55A3,3 0 1 1 747.95,122.55Z" style="fill:#1B9692" />
<path d="M749.81,144.88A3,3 0 1 1 743.81,144.88A3,3 0 1 1 749.81,144.88Z" style="fill:#1B9692" />
<path d="M751.67,151.89A3,3 0 1 1 745.67,151.89A3,3 0 1 1 751.67,151.89Z" style="fill:#1B9692" />
<path d="M753.54,139.83A3,3 0 1 1 747.54,139.83A3,3 0 1 1 753.54,139.83Z" style="fill:#1B9692" />
<path d="M755.4,135.67A3,3 0 1 1 749.4,135.67A3,3 0 1 1 755.4,135.67Z" style="fill:#1B9692" />
<path d="M757.26,132.7A3,3 0 1 1 751.26,132.7A3,3 0 1 1 757.26,132.7Z" style="fill:#1B9692" />
<path d="M759.12,136.45A3,3 0 1 1 753.12,136.45A3,3 0 1 1 759.12,136.45Z" style="fill:#1B9692" />
<path d="M760.98,131.61A3,3 0 1 1 754.98,131.61A3,3 0 1 1 760.98,131.61Z" style="fill:#1B9692" />
<path d="M762.85,167.76A3,3 0 1 1 756.85,167.76A3,3 0 1 1 762.85,167.76Z" style="fill:#1B9692" />
<path d="M764.71,133.8A3,3 0 1 1 758.71,133.8A3,3 0 1 1 764.71,133.8Z" style="fill:#1B9692" />
<path d="M766.57,135.69A3,3 0 1 1 760.57,135.69A3,3 0 1 1 766.57,135.69Z" style="fill:#1B9692" />
<path d="M768.43,130.06A3,3 0 1 1 762.43,130.06A3,3 0 1 1 768.43,130.06Z" style="fill:#1B9692" />
<path d="M770.29,151.07A3,3 0 1 1 764.29,151.07A3,3 0 1 1 770.29,151.07Z" style="fill:#1B9692" />
<path d="M772.16,144.87A3,3 0 1 1 766.16,144.87A3,3 0 1 1 772.16,144.87Z" style="fill:#1B9692" />
<path d="M774.02,146.88A3,3 0 1 1 768.02,146.88A3,3 0 1 1 774.02,146.88Z" style="fill:#1B9692" />
<path d="M775.88,152A3,3 0 1 1 769.88,152A3,3 0 1 1 775.88,152Z" style="fill:#1B9692" />
<path d="M777.74,128.99A3,3 0 1 1 771.74,128.99A3,3 0 1 1 777.74,128.99Z" style="fill:#1B9692" />
<path d="M779.6,150.86A3,3 0 1 1 773.6,150.86A3,3 0 1 1 779.6,150.86Z" style="fill:#1B9692" />
<path d="M781.47,121.93A3,3 0 1 1 775.47,121.93A3,3 0 1 1 781.47,121.93Z" style="fill:#1B9692" />
<path d="M783.33,127.37A3,3 0 1 1 777.33,127.37A3,3 0 1 1 783.33,127.37Z" style="fill:#1B9692" />
<path d="M785.19,154.02A3,3 0 1 1 779.19,154.02A3,3 0 1 1 785.19,154.02Z" style="fill:#1B9692" />
<path d="M787.05,141.28A3,3 0 1 1 781.05,141.28A3,3 0 1 1 787.05,141.28Z" style="fill:#1B9692" />
<path d="M788.91,131.55A3,3 0 1 1 782.91,131.55A3,3 0 1 1 788.91,131.55Z" style="fill:#1B9692" />
<path d="M790.78,128.15A3,3 0 1 1 784.78,128.15A3,3 0 1 1 790.78,128.15Z" style="fill:#1B9692" />
<path d="M792.64,135.61A3,3 0 1 1 786.64,135.61A3,3 0 1 1 792.64,135.61Z" style="fill:#1B9692" />
<path d="M794.5,145.89A3,3 0 1 1 788.5,145.89A3,3 0 1 1 794.5,145.89Z" style="fill:#1B9692" />
<path d="M796.36,134.79A3,3 0 1 1 790.36,134.79A3,3 0 1 1 796.36,134.79Z" style="fill:#1B9692" />
<path d="M798.22,133.44A3,3 0 1 1 792.22,133.44A3,3 0 1 1 798.22,133.44Z" style="fill:#1B9692" />
<path d="M800.09,150.96A3,3 0 1 1 794.09,150.96A3,3 0 1 1 800.09,150.96Z" style="fill:#1B9692" />
<path d="M801.95,143.86A3,3 0 1 1 795.95,143.86A3,3 0 1 1 801.95,143.86Z" style="fill:#1B9692" />
<path d="M803.81,123.3A3,3 0 1 1 797.81,123.3A3,3 0 1 1 803.81,123.3Z" style="fill:#1B9692" />
<path d="M805.67,125.72A3,3 0 1 1 799.67,125.72A3,3 0 1 1 805.67,125.72Z" style="fill:#1B9692" />
<path d="M807.53,107.32A3,3 0 1 1 801.53,107.32A3,3 0 1 1 807.53,107.32Z" style="fill:#1B9692" />
<path d="M809.4,138.8A3,3 0 1 1 803.4,138.8A3,3 0 1 1 809.4,138.8Z" style="fill:#1B9692" />
<path d="M811.26,134.54A3,3 0 1 1 805.26,134.54A3,3 0 1 1 811.26,134.54Z" style="fill:#1B9692" />
<path d="M813.12,141.81A3,3 0 1 1 807.12,141.81A3,3 0 1 1 813.12,141.81Z" style="fill:#1B9692" />
<path d="M814.98,126.62A3,3 0 1 1 808.98,126.62A3,3 0 1 1 814.98,126.62Z" style="fill:#1B9692" />
<path d="M816.84,142.85A3,3 0 1 1 810.84,142.85A3,3 0 1 1 816.84,142.85Z" style="fill:#1B9692" />
<path d="M818.71,150.8A3,3 0 1 1 812.71,150.8A3,3 0 1 1 818.71,150.8Z" style="fill:#1B9692" />
<path d="M820.57,151.81A3,3 0 1 1 814.57,151.81A3,3 0 1 1 820.57,151.81Z" style="fill:#1B9692" />
<path d="M822.43,155.84A3,3 0 1 1 816.43,155.84A3,3 0 1 1 822.43,155.84Z" style="fill:#1B9692" />
<path d="M824.29,137.8A3,3 0 1 1 818.29,137.8A3,3 0 1 1 824.29,137.8Z" style="fill:#1B9692" />
<path d="M826.15,147.89A3,3 0 1 1 820.15,147.89A3,3 0 1 1 826.15,147.89Z" style="fill:#1B9692" />
<path d="M828.02,158.56A3,3 0 1 1 822.02,158.56A3,3 0 1 1 828.02,158.56Z" style="fill:#1B9692" />
<path d="M829.88,137.05A3,3 0 1 1 823.88,137.05A3,3 0 1 1 829.88,137.05Z" style="fill:#1B9692" />
<path d="M831.74,125.26A3,3 0 1 1 825.74,125.26A3,3 0 1 1 831.74,125.26Z" style="fill:#1B9692" />
<path d="M833.6,129.04A3,3 0 1 1 827.6,129.04A3,3 0 1 1 833.6,129.04Z" style="fill:#1B9692" />
<path d="M835.46,128.83A3,3 0 1 1 829.46,128.83A3,3 0 1 1 835.46,128.83Z" style="fill:#1B9692" />
<path d="M837.33,145.87A3,3 0 1 1 831.33,145.87A3,3 0 1 1 837.33,145.87Z" style="fill:#1B9692" />
<path d="M839.19,145.86A3,3 0 1 1 833.19,145.86A3,3 0 1 1 839.19,145.86Z" style="fill:#1B9692" />
<path d="M841.05,165.11A3,3 0 1 1 835.05,165.11A3,3 0 1 1 841.05,165.11Z" style="fill:#1B9692" />
<path d="M842.91,138.2A3,3 0 1 1 836.91,138.2A3,3 0 1 1 842.91,138.2Z" style="fill:#1B9692" />
<path d="M844.77,145.87A3,3 0 1 1 838.77,145.87A3,3 0 1 1 844.77,145.87Z" style="fill:#1B9692" />
<path d="M846.64,113.23A3,3 0 1 1 840.64,113.23A3,3 0 1 1 846.64,113.23Z" style="fill:#1B9692" />
<path d="M848.5,135.88A3,3 0 1 1 842.5,135.88A3,3 0 1 1 848.5,135.88Z" style="fill:#1B9692" />
<path d="M850.36,153.52A3,3 0 1 1 844.36,153.52A3,3 0 1 1 850.36,153.52Z" style="fill:#1B9692" />
<path d="M852.22,129.3A3,3 0 1 1 846.22,129.3A3,3 0 1 1 852.22,129.3Z" style="fill:#1B9692" />
<path d="M854.09,142.92A3,3 0 1 1 848.09,142.92A3,3 0 1 1 854.09,142.92Z" style="fill:#1B9692" />
<path d="M855.95,140.95A3,3 0 1 1 849.95,140.95A3,3 0 1 1 855.95,140.95Z" style="fill:#1B9692" />
<path d="M857.81,125.97A3,3 0 1 1 851.81,125.97A3,3 0 1 1 857.81,125.97Z" style="fill:#1B9692" />
<path d="M859.67,144.87A3,3 0 1 1 853.67,144.87A3,3 0 1 1 859.67,144.87Z" style="fill:#1B9692" />
<path d="M861.53,134.49A3,3 0 1 1 855.53,134.49A3,3 0 1 1 861.53,134.49Z" style="fill:#1B9692" />
<path d="M863.4,138.99A3,3 0 1 1 857.4,138.99A3,3 0 1 1 863.4,138.99Z" style="fill:#1B9692" />
<path d="M865.26,132.98A3,3 0 1 1 859.26,132.98A3,3 0 1 1 865.26,132.98Z" style="fill:#1B9692" />
<path d="M867.12,145.86A3,3 0 1 1 861.12,145.86A3,3 0 1 1 867.12,145.86Z" style="fill:#1B9692" />
<path d="M868.98,157.4A3,3 0 1 1 862.98,157.4A3,3 0 1 1 868.98,157.4Z" style="fill:#1B9692" />
<path d="M870.84,136.04A3,3 0 1 1 864.84,136.04A3,3 0 1 1 870.84,136.04Z" style="fill:#1B9692" />
<path d="M872.71,148.78A3,3 0 1 1 866.71,148.78A3,3 0 1 1 872.71,148.78Z" style="fill:#1B9692" />
<path d="M874.57,164.78A3,3 0 1 1 868.57,164.78A3,3 0 1 1 874.57,164.78Z" style="fill:#1B9692" />
<path d="M876.43,156.42A3,3 0 1 1 870.43,156.42A3,3 0 1 1 876.43,156.42Z" style="fill:#1B9692" />
<path d="M878.29,173.47A3,3 0 1 1 872.29,173.47A3,3 0 1 1 878.29,173.47Z" style="fill:#1B9692" />
<path d="M880.15,144.87A3,3 0 1 1 874.15,144.87A3,3 0 1 1 880.15,144.87Z" style="fill:#1B9692" />
<path d="M882.02,138.21A3,3 0 1 1 876.02,138.21A3,3 0 1 1 882.02,138.21Z" style="fill:#1B9692" />
<path d="M883.88,140.01A3,3 0 1 1 877.88,140.01A3,3 0 1 1 883.88,140.01Z" style="fill:#1B9692" />
<path d="M885.74,131.28A3,3 0 1 1 879.74,131.28A3,3 0 1 1 885.74,131.28Z" style="fill:#1B9692" />
<path d="M887.6,139.03A3,3 0 1 1 881.6,139.03A3,3 0 1 1 887.6,139.03Z" style="fill:#1B9692" />
<path d="M889.46,142.91A3,3 0 1 1 883.46,142.91A3,3 0 1 1 889.46,142.91Z" style="fill:#1B9692" />
<path d="M891.33,130.49A3,3 0 1 1 885.33,130.49A3,3 0 1 1 891.33,130.49Z" style="fill:#1B9692" />
<path d="M893.19,123.7A3,3 0 1 1 887.19,123.7A3,3 0 1 1 893.19,123.7Z" style="fill:#1B9692" />
<path d="M895.05,120.14A3,3 0 1 1 889.05,120.14A3,3 0 1 1 895.05,120.14Z" style="fill:#1B9692" />
<path d="M896.91,142.98A3,3 0 1 1 890.91,142.98A3,3 0 1 1 896.91,142.98Z" style="fill:#1B9692" />
<path d="M898.77,133.24A3,3 0 1 1 892.77,133.24A3,3 0 1 1 898.77,133.24Z" style="fill:#1B9692" />
<path d="M900.64,131.65A3,3 0 1 1 894.64,131.65A3,3 0 1 1 900.64,131.65Z" style="fill:#1B9692" />
<path d="M902.5,143.95A3,3 0 1 1 896.5,143.95A3,3 0 1 1 902.5,143.95Z" style="fill:#1B9692" />
<path d="M904.36,146.75A3,3 0 1 1 898.36,146.75A3,3 0 1 1 904.36,146.75Z" style="fill:#1B9692" />
<path d="M906.22,146.75A3,3 0 1 1 900.22,146.75A3,3 0 1 1 906.22,146.75Z" style="fill:#1B9692" />
<path d="M908.08,140.18A3,3 0 1 1 902.08,140.18A3,3 0 1 1 908.08,140.18Z" style="fill:#1B9692" />
<path d="M909.95,141.15A3,3 0 1 1 903.95,141.15A3,3 0 1 1 909.95,141.15Z" style="fill:#1B9692" />
<path d="M911.81,133.54A3,3 0 1 1 905.81,133.54A3,3 0 1 1 911.81,133.54Z" style="fill:#1B9692" />
<path d="M913.67,138.33A3,3 0 1 1 907.67,138.33A3,3 0 1 1 913.67,138.33Z" style="fill:#1B9692" />
<path d="M915.53,133.46A3,3 0 1 1 909.53,133.46A3,3 0 1 1 915.53,133.46Z" style="fill:#1B9692" />
<path d="M917.39,146.27A3,3 0 1 1 911.39,146.27A3,3 0 1 1 917.39,146.27Z" style="fill:#1B9692" />
<path d="M919.26,154.04A3,3 0 1 1 913.26,154.04A3,3 0 1 1 919.26,154.04Z" style="fill:#1B9692" />
<path d="M921.12,130.79A3,3 0 1 1 915.12,130.79A3,3 0 1 1 921.12,130.79Z" style="fill:#1B9692" />
<path d="M922.98,150.45A3,3 0 1 1 916.98,150.45A3,3 0 1 1 922.98,150.45Z" style="fill:#1B9692" />
<path d="M924.84,149.48A3,3 0 1 1 918.84,149.48A3,3 0 1 1 924.84,149.48Z" style="fill:#1B9692" />
<path d="M926.7,148.08A3,3 0 1 1 920.7,148.08A3,3 0 1 1 926.7,148.08Z" style="fill:#1B9692" />
<path d="M928.57,125.19A3,3 0 1 1 922.57,125.19A3,3 0 1 1 928.57,125.19Z" style="fill:#1B9692" />
<path d="M930.43,130.91A3,3 0 1 1 924.43,130.91A3,3 0 1 1 930.43,130.91Z" style="fill:#1B9692" />
<path d="M932.29,163.97A3,3 0 1 1 926.29,163.97A3,3 0 1 1 932.29,163.97Z" style="fill:#1B9692" />
<path d="M934.15,123.32A3,3 0 1 1 928.15,123.32A3,3 0 1 1 934.15,123.32Z" style="fill:#1B9692" />
<path d="M936.01,139.35A3,3 0 1 1 930.01,139.35A3,3 0 1 1 936.01,139.35Z" style="fill:#1B9692" />
<path d="M937.88,155.78A3,3 0 1 1 931.88,155.78A3,3 0 1 1 937.88,155.78Z" style="fill:#1B9692" />
<path d="M939.74,149.43A3,3 0 1 1 933.74,149.43A3,3 0 1 1 939.74,149.43Z" style="fill:#1B9692" />
<path d="M941.6,129.23A3,3 0 1 1 935.6,129.23A3,3 0 1 1 941.6,129.23Z" style="fill:#1B9692" />
<path d="M943.46,110.19A3,3 0 1 1 937.46,110.19A3,3 0 1 1 943.46,110.19Z" style="fill:#1B9692" />
<path d="M945.32,128.82A3,3 0 1 1 939.32,128.82A3,3 0 1 1 945.32,128.82Z" style="fill:#1B9692" />
<path d="M947.19,145.78A3,3 0 1 1 941.19,145.78A3,3 0 1 1 947.19,145.78Z" style="fill:#1B9692" />
<path d="M949.05,146.68A3,3 0 1 1 943.05,146.68A3,3 0 1 1 949.05,146.68Z" style="fill:#1B9692" />
<path d="M950.91,134.75A3,3 0 1 1 944.91,134.75A3,3 0 1 1 950.91,134.75Z" style="fill:#1B9692" />
<path d="M952.77,137.59A3,3 0 1 1 946.77,137.59A3,3 0 1 1 952.77,137.59Z" style="fill:#1B9692" />
<path d="M954.63,129.73A3,3 0 1 1 948.63,129.73A3,3 0 1 1 954.63,129.73Z" style="fill:#1B9692" />
<path d="M956.5,139.45A3,3 0 1 1 950.5,139.45A3,3 0 1 1 956.5,139.45Z" style="fill:#1B9692" />
<path d="M958.36,129.31A3,3 0 1 1 952.36,129.31A3,3 0 1 1 958.36,129.31Z" style="fill:#1B9692" />
<path d="M960.22,134.94A3,3 0 1 1 954.22,134.94A3,3 0 1 1 960.22,134.94Z" style="fill:#1B9692" />
<path d="M962.08,144.87A3,3 0 1 1 956.08,144.87A3,3 0 1 1 962.08,144.87Z" style="fill:#1B9692" />
<path d="M963.94,146.73A3,3 0 1 1 957.94,146.73A3,3 0 1 1 963.94,146.73Z" style="fill:#1B9692" />
<path d="M965.81,127.87A3,3 0 1 1 959.81,127.87A3,3 0 1 1 965.81,127.87Z" style="fill:#1B9692" />
<path d="M967.67,129.34A3,3 0 1 1 961.67,129.34A3,3 0 1 1 967.67,129.34Z" style="fill:#1B9692" />
<path d="M969.53,125.07A3,3 0 1 1 963.53,125.07A3,3 0 1 1 969.53,125.07Z" style="fill:#1B9692" />
<path d="M971.39,141.26A3,3 0 1 1 965.39,141.26A3,3 0 1 1 971.39,141.26Z" style="fill:#1B9692" />
<path d="M973.26,128.92A3,3 0 1 1 967.26,128.92A3,3 0 1 1 973.26,128.92Z" style="fill:#1B9692" />
<path d="M975.12,148.34A3,3 0 1 1 969.12,148.34A3,3 0 1 1 975.12,148.34Z" style="fill:#1B9692" />
<path d="M976.98,140.46A3,3 0 1 1 970.98,140.46A3,3 0 1 1 976.98,140.46Z" style="fill:#1B9692" />
<path d="M978.84,131.51A3,3 0 1 1 972.84,131.51A3,3 0 1 1 978.84,131.51Z" style="fill:#1B9692" />
<path d="M980.7,159.11A3,3 0 1 1 974.7,159.11A3,3 0 1 1 980.7,159.11Z" style="fill:#1B9692" />
<path d="M982.57,132.1A3,3 0 1 1 976.57,132.1A3,3 0 1 1 982.57,132.1Z" style="fill:#1B9692" />
<path d="M984.43,133.45A3,3 0 1 1 978.43,133.45A3,3 0 1 1 984.43,133.45Z" style="fill:#1B9692" />
<path d="M986.29,140.47A3,3 0 1 1 980.29,140.47A3,3 0 1 1 986.29,140.47Z" style="fill:#1B9692" />
<path d="M988.15,145.74A3,3 0 1 1 982.15,145.74A3,3 0 1 1 988.15,145.74Z" style="fill:#1B9692" />
<path d="M990.01,147.51A3,3 0 1 1 984.01,147.51A3,3 0 1 1 990.01,147.51Z" style="fill:#1B9692" />
<path d="M991.88,134.86A3,3 0 1 1 985.88,134.86A3,3 0 1 1 991.88,134.86Z" style="fill:#1B9692" />
<path d="M993.74,145.74A3,3 0 1 1 987.74,145.74A3,3 0 1 1 993.74,145.74Z" style="fill:#1B9692" />
<path d="M995.6,137A3,3 0 1 1 989.6,137A3,3 0 1 1 995.6,137Z" style="fill:#1B9692" />
<path d="M997.46,139.65A3,3 0 1 1 991.46,139.65A3,3 0 1 1 997.46,139.65Z" style="fill:#1B9692" />
<path d="M999.32,136.14A3,3 0 1 1 993.32,136.14A3,3 0 1 1 999.32,136.14Z" style="fill:#1B9692" />
<path d="M1001.2,133.59A3,3 0 1 1 995.19,133.59A3,3 0 1 1 1001.2,133.59Z" style="fill:#1B9692" />
<path d="M1003,138.77A3,3 0 1 1 997.05,138.77A3,3 0 1 1 1003,138.77Z" style="fill:#1B9692" />
<path d="M1004.9,138.92A3,3 0 1 1 998.91,138.92A3,3 0 1 1 1004.9,138.92Z" style="fill:#1B9692" />
<path d="M1006.8,137.04A3,3 0 1 1 1000.8,137.04A3,3 0 1 1 1006.8,137.04Z" style="fill:#1B9692" />
<path d="M1008.6,137.09A3,3 0 1 1 1002.6,137.09A3,3 0 1 1 1008.6,137.09Z" style="fill:#1B9692" />
<path d="M1010.5,138.41A3,3 0 1 1 1004.5,138.41A3,3 0 1 1 1010.5,138.41Z" style="fill:#1B9692" />
<path d="M1012.4,129.51A3,3 0 1 1 1006.4,129.51A3,3 0 1 1 1012.4,129.51Z" style="fill:#1B9692" />
<path d="M1014.2,135.47A3,3 0 1 1 1008.2,135.47A3,3 0 1 1 1014.2,135.47Z" style="fill:#1B9692" />
<path d="M1016.1,149.06A3,3 0 1 1 1010.1,149.06A3,3 0 1 1 1016.1,149.06Z" style="fill:#1B9692" />
<path d="M1017.9,144.02A3,3 0 1 1 1011.9,144.02A3,3 0 1 1 1017.9,144.02Z" style="fill:#1B9692" />
<path d="M1019.8,146.93A3,3 0 1 1 1013.8,146.93A3,3 0 1 1 1019.8,146.93Z" style="fill:#1B9692" />
<path d="M1021.7,128.93A3,3 0 1 1 1015.7,128.93A3,3 0 1 1 1021.7,128.93Z" style="fill:#1B9692" />
<path d="M1023.5,112.95A3,3 0 1 1 1017.5,112.95A3,3 0 1 1 1023.5,112.95Z" style="fill:#1B9692" />
<path d="M1025.4,123.85A3,3 0 1 1 1019.4,123.85A3,3 0 1 1 1025.4,123.85Z" style="fill:#1B9692" />
<path d="M1027.3,133.99A3,3 0 1 1 1021.3,133.99A3,3 0 1 1 1027.3,133.99Z" style="fill:#1B9692" />
<path d="M1029.1,133.52A3,3 0 1 1 1023.1,133.52A3,3 0 1 1 1029.1,133.52Z" style="fill:#1B9692" />
<path d="M1031,127.09A3,3 0 1 1 1025,127.09A3,3 0 1 1 1031,127.09Z" style="fill:#1B9692" />
<path d="M1032.8,134.17A3,3 0 1 1 1026.8,134.17A3,3 0 1 1 1032.8,134.17Z" style="fill:#1B9692" />
<path d="M1034.7,133.22A3,3 0 1 1 1028.7,133.22A3,3 0 1 1 1034.7,133.22Z" style="fill:#1B9692" />
<path d="M1036.6,136.51A3,3 0 1 1 1030.6,136.51A3,3 0 1 1 1036.6,136.51Z" style="fill:#1B9692" />
<path d="M1038.4,143.22A3,3 0 1 1 1032.4,143.22A3,3 0 1 1 1038.4,143.22Z" style="fill:#1B9692" />
<path d="M1040.3,134.24A3,3 0 1 1 1034.3,134.24A3,3 0 1 1 1040.3,134.24Z" style="fill:#1B9692" />
<path d="M1042.2,133.36A3,3 0 1 1 1036.2,133.36A3,3 0 1 1 1042.2,133.36Z" style="fill:#1B9692" />
<path d="M1044,140.73A3,3 0 1 1 1038,140.73A3,3 0 1 1 1044,140.73Z" style="fill:#1B9692" />
<path d="M1045.9,130.93A3,3 0 1 1 1039.9,130.93A3,3 0 1 1 1045.9,130.93Z" style="fill:#1B9692" />
<path d="M1047.7,145.22A3,3 0 1 1 1041.7,145.22A3,3 0 1 1 1047.7,145.22Z" style="fill:#1B9692" />
<path d="M1049.6,139.2A3,3 0 1 1 1043.6,139.2A3,3 0 1 1 1049.6,139.2Z" style="fill:#1B9692" />
<path d="M1051.5,149.69A3,3 0 1 1 1045.5,149.69A3,3 0 1 1 1051.5,149.69Z" style="fill:#1B9692" />
<path d="M1053.3,131.86A3,3 0 1 1 1047.3,131.86A3,3 0 1 1 1053.3,131.86Z" style="fill:#1B9692" />
<path d="M1055.2,148.08A3,3 0 1 1 1049.2,148.08A3,3 0 1 1 1055.2,148.08Z" style="fill:#1B9692" />
<path d="M1057,133.57A3,3 0 1 1 1051,133.57A3,3 0 1 1 1057,133.57Z" style="fill:#1B9692" />
<path d="M124.89,137.39L126.75,137.4L128.62,137.41L130.48,137.42L132.34,137.43L134.2,137.44L136.06,137.44L137.93,137.45L139.79,137.46L141.65,137.47L143.51,137.48L145.37,137.49L147.24,137.5L149.1,137.51L150.96,137.52L152.82,137.53L154.69,137.54L156.55,137.55L158.41,137.56L160.27,137.57L162.13,137.58L164,137.59L165.86,137.6L167.72,137.61L169.58,137.62L171.44,137.63L173.31,137.65L175.17,137.66L177.03,137.67L178.89,137.68L180.75,137.69L182.62,137.7L184.48,137.72L186.34,137.73L188.2,137.74L190.06,137.75L191.93,137.77L193.79,137.78L195.65,137.79L197.51,137.81L199.37,137.82L201.24,137.84L203.1,137.85L204.96,137.86L206.82,137.88L208.68,137.89L210.55,137.91L212.41,137.92L214.27,137.94L216.13,137.96L217.99,137.97L219.86,137.99L221.72,138.01L223.58,138.02L225.44,138.04L227.3,138.06L229.17,138.07L231.03,138.09L232.89,138.11L234.75,138.13L236.61,138.15L238.48,138.17L240.34,138.19L242.2,138.21L244.06,138.23L245.92,138.25L247.79,138.27L249.65,138.29L251.51,138.31L253.37,138.33L255.23,138.35L257.1,138.38L258.96,138.4L260.82,138.42L262.68,138.45L264.54,138.47L266.41,138.5L268.27,138.52L270.13,138.55L271.99,138.57L273.86,138.6L275.72,138.63L277.58,138.65L279.44,138.68L281.3,138.71L283.17,138.74L285.03,138.77L286.89,138.8L288.75,138.83L290.61,138.86L292.48,138.89L294.34,138.92L296.2,138.96L298.06,138.99L299.92,139.02L301.79,139.06L303.65,139.09L305.51,139.13L307.37,139.17L309.23,139.21L311.1,139.24L312.96,139.28L314.82,139.32L316.68,139.36L318.54,139.41L320.41,139.45L322.27,139.49L324.13,139.54L325.99,139.58L327.85,139.63L329.72,139.67L331.58,139.72L333.44,139.77L335.3,139.82L337.16,139.87L339.03,139.93L340.89,139.98L342.75,140.03L344.61,140.09L346.47,140.15L348.34,140.21L350.2,140.27L352.06,140.33L353.92,140.39L355.78,140.45L357.65,140.52L359.51,140.59L361.37,140.65L363.23,140.72L365.09,140.8L366.96,140.87L368.82,140.94L370.68,141.02L372.54,141.1L374.4,141.18L376.27,141.26L378.13,141.35L379.99,141.43L381.85,141.52L383.72,141.61L385.58,141.71L387.44,141.8L389.3,141.9L391.16,142L393.03,142.1L394.89,142.21L396.75,142.31L398.61,142.43L400.47,142.54L402.34,142.66L404.2,142.77L406.06,142.9L407.92,143.02L409.78,143.15L411.65,143.28L413.51,143.42L415.37,143.56L417.23,143.7L419.09,143.85L420.96,144L422.82,144.15L424.68,144.31L426.54,144.48L428.4,144.64L430.27,144.81L432.13,144.99L433.99,145.17L435.85,145.36L437.71,145.55L439.58,145.74L441.44,145.94L443.3,146.15L445.16,146.36L447.02,146.58L448.89,146.8L450.75,147.03L452.61,147.26L454.47,147.5L456.33,147.75L458.2,148L460.06,148.26L461.92,148.52L463.78,148.79L465.64,149.07L467.51,149.35L469.37,149.64L471.23,149.94L473.09,150.24L474.95,150.55L476.82,150.86L478.68,151.18L480.54,151.51L482.4,151.84L484.26,152.18L486.13,152.52L487.99,152.87L489.85,153.22L491.71,153.58L493.57,153.94L495.44,154.31L497.3,154.68L499.16,155.05L501.02,155.42L502.89,155.79L504.75,156.16L506.61,156.53L508.47,156.9L510.33,157.27L512.2,157.64L514.06,158L515.92,158.35L517.78,158.7L519.64,159.03L521.51,159.36L523.37,159.68L525.23,159.99L527.09,160.28L528.95,160.56L530.82,160.82L532.68,161.06L534.54,161.29L536.4,161.5L538.26,161.68L540.13,161.85L541.99,161.99L543.85,162.1L545.71,162.2L547.57,162.27L549.44,162.31L551.3,162.33L553.16,162.32L555.02,162.29L556.88,162.23L558.75,162.15L560.61,162.05L562.47,161.92L564.33,161.76L566.19,161.59L568.06,161.39L569.92,161.17L571.78,160.94L573.64,160.68L575.5,160.41L577.37,160.13L579.23,159.83L581.09,159.52L582.95,159.19L584.81,158.86L586.68,158.52L588.54,158.17L590.4,157.81L592.26,157.45L594.12,157.08L595.99,156.71L597.85,156.34L599.71,155.97L601.57,155.6L603.43,155.22L605.3,154.85L607.16,154.48L609.02,154.12L610.88,153.75L612.74,153.4L614.61,153.04L616.47,152.69L618.33,152.34L620.19,152L622.06,151.67L623.92,151.34L625.78,151.02L627.64,150.7L629.5,150.39L631.37,150.08L633.23,149.78L635.09,149.49L636.95,149.2L638.81,148.92L640.68,148.65L642.54,148.38L644.4,148.12L646.26,147.87L648.12,147.62L649.99,147.38L651.85,147.14L653.71,146.91L655.57,146.68L657.43,146.46L659.3,146.25L661.16,146.04L663.02,145.84L664.88,145.64L666.74,145.45L668.61,145.26L670.47,145.08L672.33,144.9L674.19,144.72L676.05,144.56L677.92,144.39L679.78,144.23L681.64,144.07L683.5,143.92L685.36,143.77L687.23,143.63L689.09,143.49L690.95,143.35L692.81,143.21L694.67,143.08L696.54,142.96L698.4,142.83L700.26,142.71L702.12,142.59L703.98,142.48L705.85,142.37L707.71,142.26L709.57,142.15L711.43,142.05L713.29,141.95L715.16,141.85L717.02,141.75L718.88,141.66L720.74,141.56L722.6,141.48L724.47,141.39L726.33,141.3L728.19,141.22L730.05,141.14L731.91,141.06L733.78,140.98L735.64,140.9L737.5,140.83L739.36,140.76L741.23,140.69L743.09,140.62L744.95,140.55L746.81,140.48L748.67,140.42L750.54,140.36L752.4,140.29L754.26,140.23L756.12,140.18L757.98,140.12L759.85,140.06L761.71,140.01L763.57,139.95L765.43,139.9L767.29,139.85L769.16,139.8L771.02,139.75L772.88,139.7L774.74,139.65L776.6,139.6L778.47,139.56L780.33,139.51L782.19,139.47L784.05,139.43L785.91,139.38L787.78,139.34L789.64,139.3L791.5,139.26L793.36,139.22L795.22,139.19L797.09,139.15L798.95,139.11L800.81,139.08L802.67,139.04L804.53,139.01L806.4,138.97L808.26,138.94L810.12,138.91L811.98,138.87L813.84,138.84L815.71,138.81L817.57,138.78L819.43,138.75L821.29,138.72L823.15,138.69L825.02,138.67L826.88,138.64L828.74,138.61L830.6,138.58L832.46,138.56L834.33,138.53L836.19,138.51L838.05,138.48L839.91,138.46L841.77,138.43L843.64,138.41L845.5,138.39L847.36,138.37L849.22,138.34L851.09,138.32L852.95,138.3L854.81,138.28L856.67,138.26L858.53,138.24L860.4,138.22L862.26,138.2L864.12,138.18L865.98,138.16L867.84,138.14L869.71,138.12L871.57,138.1L873.43,138.08L875.29,138.07L877.15,138.05L879.02,138.03L880.88,138.01L882.74,138L884.6,137.98L886.46,137.96L888.33,137.95L890.19,137.93L892.05,137.92L893.91,137.9L895.77,137.89L897.64,137.87L899.5,137.86L901.36,137.84L903.22,137.83L905.08,137.81L906.95,137.8L908.81,137.79L910.67,137.77L912.53,137.76L914.39,137.75L916.26,137.74L918.12,137.72L919.98,137.71L921.84,137.7L923.7,137.69L925.57,137.67L927.43,137.66L929.29,137.65L931.15,137.64L933.01,137.63L934.88,137.62L936.74,137.61L938.6,137.6L940.46,137.58L942.32,137.57L944.19,137.56L946.05,137.55L947.91,137.54L949.77,137.53L951.63,137.52L953.5,137.51L955.36,137.5L957.22,137.49L959.08,137.49L960.94,137.48L962.81,137.47L964.67,137.46L966.53,137.45L968.39,137.44L970.26,137.43L972.12,137.42L973.98,137.41L975.84,137.41L977.7,137.4L979.57,137.39L981.43,137.38L983.29,137.37L985.15,137.37L987.01,137.36L988.88,137.35L990.74,137.34L992.6,137.34L994.46,137.33L996.32,137.32L998.19,137.31L1000,137.31L1001.9,137.3L1003.8,137.29L1005.6,137.29L1007.5,137.28L1009.4,137.27L1011.2,137.27L1013.1,137.26L1014.9,137.25L1016.8,137.25L1018.7,137.24L1020.5,137.23L1022.4,137.23L1024.3,137.22L1026.1,137.22L1028,137.21L1029.8,137.2L1031.7,137.2L1033.6,137.19L1035.4,137.19L1037.3,137.18L1039.2,137.18L1041,137.17L1042.9,137.16L1044.7,137.16L1046.6,137.15L1048.5,137.15L1050.3,137.14L1052.2,137.14" style="fill:none;stroke:#126663;stroke-width:3" />
<path d="M467.69,149.38L635.81,149.38" style="fill:none;stroke:#126663;stroke-width:4;stroke-dasharray:15,5" />
<text x="867.96" y="-899.95" transform="scale(1, -1)"
	style="font-family:Helvetica;font-weight:normal;font-style:normal;font-size:36px">Power</text>
<path d="M1011,867.02A6,6 0 1 1 999,867.02A6,6 0 1 1 1011,867.02Z" style="fill:#126663" />
<text x="855.99" y="-858.54" transform="scale(1, -1)"
	style="font-family:Helvetica;font-weight:normal;font-style:normal;font-size:36px">14 mW</text>
</g>
</svg>
