<?xml version="1.0"?>
<!-- Generated by SVGo and Plotinum VG -->
<svg width="1296pt" height="1080pt" viewBox="0 0 1296 1080"
	xmlns="http://www.w3.org/2000/svg"
	xmlns:xlink="http://www.w3.org/1999/xlink">
<g transform="scale(1, -1) translate(0, -1080)">
<path d="M0,0L1296,0L1296,1080L0,1080Z" style="fill-opacity:0" />
<text x="282.28" y="-1047.6" transform="scale(1, -1)"
	style="font-family:Liberation Sans;font-variant:normal;font-weight:normal;font-style:normal;font-size:40px">1 cm UHNA3 Phase-Matching Bandwidth</text>
<text x="460.83" y="-10.732" transform="scale(1, -1)"
	style="font-family:Liberation Sans;font-variant:normal;font-weight:normal;font-style:normal;font-size:35px">Pump-Probe Separation (GHz)</text>
<text x="230.09" y="-63.857" transform="scale(1, -1)"
	style="font-family:Liberation Serif;font-variant:normal;font-weight:normal;font-style:normal;font-size:30px">5</text>
<text x="486.88" y="-63.857" transform="scale(1, -1)"
	style="font-family:Liberation Serif;font-variant:normal;font-weight:normal;font-style:normal;font-size:30px">15</text>
<text x="751.17" y="-63.857" transform="scale(1, -1)"
	style="font-family:Liberation Serif;font-variant:normal;font-weight:normal;font-style:normal;font-size:30px">25</text>
<text x="1015.5" y="-63.857" transform="scale(1, -1)"
	style="font-family:Liberation Serif;font-variant:normal;font-weight:normal;font-style:normal;font-size:30px">35</text>
<path d="M105.45,87.324L1294.8,87.324" style="fill:none;stroke:#000000;stroke-width:2.5" />
<g transform="rotate(90)">
<text x="335.14" y="28.369" transform="scale(1, -1)"
	style="font-family:Liberation Sans;font-variant:normal;font-weight:normal;font-style:normal;font-size:35px">Peak Spectral Density (mV)</text>
</g>
<text x="61.519" y="-80.266" transform="scale(1, -1)"
	style="font-family:Liberation Sans;font-variant:normal;font-weight:normal;font-style:normal;font-size:30px">0.0</text>
<text x="61.519" y="-88.022" transform="scale(1, -1)"
	style="font-family:Liberation Sans;font-variant:normal;font-weight:normal;font-style:normal;font-size:30px">0.2</text>
<text x="61.519" y="-95.779" transform="scale(1, -1)"
	style="font-family:Liberation Sans;font-variant:normal;font-weight:normal;font-style:normal;font-size:30px">0.4</text>
<text x="61.519" y="-103.54" transform="scale(1, -1)"
	style="font-family:Liberation Sans;font-variant:normal;font-weight:normal;font-style:normal;font-size:30px">0.6</text>
<text x="61.519" y="-111.29" transform="scale(1, -1)"
	style="font-family:Liberation Sans;font-variant:normal;font-weight:normal;font-style:normal;font-size:30px">0.8</text>
<text x="61.519" y="-119.05" transform="scale(1, -1)"
	style="font-family:Liberation Sans;font-variant:normal;font-weight:normal;font-style:normal;font-size:30px">1.0</text>
<path d="M111.56,87.824L111.56,1012.3" style="fill:none;stroke:#000000;stroke-width:2.5" />
<path d="M105.45,87.824L105.45,92.824" style="fill:none;stroke:#000000;stroke-width:2.5" />
<path d="M237.59,87.824L237.59,97.824" style="fill:none;stroke:#000000;stroke-width:2.5" />
<text x="187.18" y="-53.424" transform="scale(1, -1)"
	style="font-family:Liberation Sans;font-variant:normal;font-weight:normal;font-style:normal;font-size:30px">5</text>
<path d="M369.74,87.824L369.74,92.824" style="fill:none;stroke:#000000;stroke-width:2.5" />
<path d="M501.88,87.824L501.88,97.824" style="fill:none;stroke:#000000;stroke-width:2.5" />
<text x="459.82" y="-53.424" transform="scale(1, -1)"
	style="font-family:Liberation Sans;font-variant:normal;font-weight:normal;font-style:normal;font-size:30px">15</text>
<path d="M634.03,87.824L634.03,92.824" style="fill:none;stroke:#000000;stroke-width:2.5" />
<path d="M766.17,87.824L766.17,97.824" style="fill:none;stroke:#000000;stroke-width:2.5" />
<text x="724.11" y="-53.424" transform="scale(1, -1)"
	style="font-family:Liberation Sans;font-variant:normal;font-weight:normal;font-style:normal;font-size:30px">25</text>
<path d="M898.32,87.824L898.32,92.824" style="fill:none;stroke:#000000;stroke-width:2.5" />
<path d="M1030.5,87.824L1030.5,97.824" style="fill:none;stroke:#000000;stroke-width:2.5" />
<text x="988.39" y="-53.424" transform="scale(1, -1)"
	style="font-family:Liberation Sans;font-variant:normal;font-weight:normal;font-style:normal;font-size:30px">35</text>
<path d="M1162.6,87.824L1162.6,92.824" style="fill:none;stroke:#000000;stroke-width:2.5" />
<path d="M1294.8,87.824L1294.8,92.824" style="fill:none;stroke:#000000;stroke-width:2.5" />
<path d="M105.45,87.824L115.45,87.824" style="fill:none;stroke:#000000;stroke-width:2.5" />
<text x="45.299" y="-79.424" transform="scale(1, -1)"
	style="font-family:Liberation Sans;font-variant:normal;font-weight:normal;font-style:normal;font-size:30px">0.0</text>
<path d="M105.45,89.117L110.45,89.117" style="fill:none;stroke:#000000;stroke-width:2.5" />
<path d="M105.45,90.41L110.45,90.41" style="fill:none;stroke:#000000;stroke-width:2.5" />
<path d="M105.45,91.703L110.45,91.703" style="fill:none;stroke:#000000;stroke-width:2.5" />
<path d="M105.45,92.995L110.45,92.995" style="fill:none;stroke:#000000;stroke-width:2.5" />
<path d="M105.45,94.288L110.45,94.288" style="fill:none;stroke:#000000;stroke-width:2.5" />
<path d="M105.45,95.581L115.45,95.581" style="fill:none;stroke:#000000;stroke-width:2.5" />
<text x="45.299" y="-87.181" transform="scale(1, -1)"
	style="font-family:Liberation Sans;font-variant:normal;font-weight:normal;font-style:normal;font-size:30px">0.2</text>
<path d="M105.45,96.874L110.45,96.874" style="fill:none;stroke:#000000;stroke-width:2.5" />
<path d="M105.45,98.167L110.45,98.167" style="fill:none;stroke:#000000;stroke-width:2.5" />
<path d="M105.45,99.459L110.45,99.459" style="fill:none;stroke:#000000;stroke-width:2.5" />
<path d="M105.45,100.75L110.45,100.75" style="fill:none;stroke:#000000;stroke-width:2.5" />
<path d="M105.45,102.05L110.45,102.05" style="fill:none;stroke:#000000;stroke-width:2.5" />
<path d="M105.45,103.34L115.45,103.34" style="fill:none;stroke:#000000;stroke-width:2.5" />
<text x="45.299" y="-94.938" transform="scale(1, -1)"
	style="font-family:Liberation Sans;font-variant:normal;font-weight:normal;font-style:normal;font-size:30px">0.4</text>
<path d="M105.45,104.63L110.45,104.63" style="fill:none;stroke:#000000;stroke-width:2.5" />
<path d="M105.45,105.92L110.45,105.92" style="fill:none;stroke:#000000;stroke-width:2.5" />
<path d="M105.45,107.22L110.45,107.22" style="fill:none;stroke:#000000;stroke-width:2.5" />
<path d="M105.45,108.51L110.45,108.51" style="fill:none;stroke:#000000;stroke-width:2.5" />
<path d="M105.45,109.8L110.45,109.8" style="fill:none;stroke:#000000;stroke-width:2.5" />
<path d="M105.45,111.09L115.45,111.09" style="fill:none;stroke:#000000;stroke-width:2.5" />
<text x="45.299" y="-102.69" transform="scale(1, -1)"
	style="font-family:Liberation Sans;font-variant:normal;font-weight:normal;font-style:normal;font-size:30px">0.6</text>
<path d="M105.45,112.39L110.45,112.39" style="fill:none;stroke:#000000;stroke-width:2.5" />
<path d="M105.45,113.68L110.45,113.68" style="fill:none;stroke:#000000;stroke-width:2.5" />
<path d="M105.45,114.97L110.45,114.97" style="fill:none;stroke:#000000;stroke-width:2.5" />
<path d="M105.45,116.27L110.45,116.27" style="fill:none;stroke:#000000;stroke-width:2.5" />
<path d="M105.45,117.56L110.45,117.56" style="fill:none;stroke:#000000;stroke-width:2.5" />
<path d="M105.45,118.85L115.45,118.85" style="fill:none;stroke:#000000;stroke-width:2.5" />
<text x="45.299" y="-110.45" transform="scale(1, -1)"
	style="font-family:Liberation Sans;font-variant:normal;font-weight:normal;font-style:normal;font-size:30px">0.8</text>
<path d="M105.45,120.14L110.45,120.14" style="fill:none;stroke:#000000;stroke-width:2.5" />
<path d="M105.45,121.44L110.45,121.44" style="fill:none;stroke:#000000;stroke-width:2.5" />
<path d="M105.45,122.73L110.45,122.73" style="fill:none;stroke:#000000;stroke-width:2.5" />
<path d="M105.45,124.02L110.45,124.02" style="fill:none;stroke:#000000;stroke-width:2.5" />
<path d="M105.45,125.32L110.45,125.32" style="fill:none;stroke:#000000;stroke-width:2.5" />
<path d="M105.45,126.61L115.45,126.61" style="fill:none;stroke:#000000;stroke-width:2.5" />
<text x="45.299" y="-118.21" transform="scale(1, -1)"
	style="font-family:Liberation Sans;font-variant:normal;font-weight:normal;font-style:normal;font-size:30px">1.0</text>
<path d="M245.59,1012.3A8,8 0 1 1 229.59,1012.3A8,8 0 1 1 245.59,1012.3Z" style="fill:#1FD3AC" />
<path d="M258.81,574.13A8,8 0 1 1 242.81,574.13A8,8 0 1 1 258.81,574.13Z" style="fill:#1FD3AC" />
<path d="M272.02,254.26A8,8 0 1 1 256.02,254.26A8,8 0 1 1 272.02,254.26Z" style="fill:#1FD3AC" />
<path d="M285.24,117.31A8,8 0 1 1 269.24,117.31A8,8 0 1 1 285.24,117.31Z" style="fill:#1FD3AC" />
<path d="M298.45,117.27A8,8 0 1 1 282.45,117.27A8,8 0 1 1 298.45,117.27Z" style="fill:#1FD3AC" />
<path d="M311.66,118.77A8,8 0 1 1 295.66,118.77A8,8 0 1 1 311.66,118.77Z" style="fill:#1FD3AC" />
<path d="M324.88,118.77A8,8 0 1 1 308.88,118.77A8,8 0 1 1 324.88,118.77Z" style="fill:#1FD3AC" />
<path d="M338.09,118.74A8,8 0 1 1 322.09,118.74A8,8 0 1 1 338.09,118.74Z" style="fill:#1FD3AC" />
<path d="M351.31,118.74A8,8 0 1 1 335.31,118.74A8,8 0 1 1 351.31,118.74Z" style="fill:#1FD3AC" />
<path d="M364.52,118.72A8,8 0 1 1 348.52,118.72A8,8 0 1 1 364.52,118.72Z" style="fill:#1FD3AC" />
<path d="M377.74,118.72A8,8 0 1 1 361.74,118.72A8,8 0 1 1 377.74,118.72Z" style="fill:#1FD3AC" />
<path d="M390.95,118.72A8,8 0 1 1 374.95,118.72A8,8 0 1 1 390.95,118.72Z" style="fill:#1FD3AC" />
<path d="M404.17,118.72A8,8 0 1 1 388.17,118.72A8,8 0 1 1 404.17,118.72Z" style="fill:#1FD3AC" />
<path d="M417.38,118.72A8,8 0 1 1 401.38,118.72A8,8 0 1 1 417.38,118.72Z" style="fill:#1FD3AC" />
<path d="M430.59,118.72A8,8 0 1 1 414.59,118.72A8,8 0 1 1 430.59,118.72Z" style="fill:#1FD3AC" />
<path d="M443.81,118.72A8,8 0 1 1 427.81,118.72A8,8 0 1 1 443.81,118.72Z" style="fill:#1FD3AC" />
<path d="M457.02,118.72A8,8 0 1 1 441.02,118.72A8,8 0 1 1 457.02,118.72Z" style="fill:#1FD3AC" />
<path d="M470.24,118.74A8,8 0 1 1 454.24,118.74A8,8 0 1 1 470.24,118.74Z" style="fill:#1FD3AC" />
<path d="M483.45,118.74A8,8 0 1 1 467.45,118.74A8,8 0 1 1 483.45,118.74Z" style="fill:#1FD3AC" />
<path d="M496.67,118.74A8,8 0 1 1 480.67,118.74A8,8 0 1 1 496.67,118.74Z" style="fill:#1FD3AC" />
<path d="M105.45,223.57L1294.8,223.57" style="fill:none;stroke:#000000;stroke-width:2.5" />
<path d="M1294.8,87.824L1294.8,223.57" style="fill:none;stroke:#000000;stroke-width:2.5" />
</g>
</svg>
