<?xml version="1.0"?>
<!-- Generated by SVGo and Plotinum VG -->
<svg width="1080pt" height="1080pt" viewBox="0 0 1080 1080"
	xmlns="http://www.w3.org/2000/svg"
	xmlns:xlink="http://www.w3.org/1999/xlink">
<g transform="scale(1, -1) translate(0, -1080)">
<path d="M0,0L1080,0L1080,1080L0,1080Z" style="fill:#-8000000000000000-8000000000000000-8000000000000000;fill-opacity:0" />
<text x="389.13" y="-1039.5" transform="scale(1, -1)"
	style="font-family:Helvetica;font-weight:normal;font-style:normal;font-size:50px">Γeff vs Power</text>
<text x="495.95" y="-11.039" transform="scale(1, -1)"
	style="font-family:Helvetica;font-weight:normal;font-style:normal;font-size:36px">Power (mW)</text>
<text x="348.91" y="-71.258" transform="scale(1, -1)"
	style="font-family:Helvetica;font-weight:normal;font-style:normal;font-size:36px">50</text>
<text x="565.91" y="-71.258" transform="scale(1, -1)"
	style="font-family:Helvetica;font-weight:normal;font-style:normal;font-size:36px">100</text>
<text x="792.92" y="-71.258" transform="scale(1, -1)"
	style="font-family:Helvetica;font-weight:normal;font-style:normal;font-size:36px">150</text>
<text x="1019.9" y="-71.258" transform="scale(1, -1)"
	style="font-family:Helvetica;font-weight:normal;font-style:normal;font-size:36px">200</text>
<path d="M141.91,112.44L141.91,108.44" style="fill:none;stroke:#000000;stroke-width:1.5" />
<path d="M255.42,112.44L255.42,108.44" style="fill:none;stroke:#000000;stroke-width:1.5" />
<path d="M368.93,116.44L368.93,108.44" style="fill:none;stroke:#000000;stroke-width:1.5" />
<path d="M482.43,112.44L482.43,108.44" style="fill:none;stroke:#000000;stroke-width:1.5" />
<path d="M595.94,116.44L595.94,108.44" style="fill:none;stroke:#000000;stroke-width:1.5" />
<path d="M709.45,112.44L709.45,108.44" style="fill:none;stroke:#000000;stroke-width:1.5" />
<path d="M822.95,116.44L822.95,108.44" style="fill:none;stroke:#000000;stroke-width:1.5" />
<path d="M936.46,112.44L936.46,108.44" style="fill:none;stroke:#000000;stroke-width:1.5" />
<path d="M1050,116.44L1050,108.44" style="fill:none;stroke:#000000;stroke-width:1.5" />
<path d="M141.91,108.44L1050,108.44" style="fill:none;stroke:#000000;stroke-width:1.5" />
<g transform="rotate(90)">
<text x="506.98" y="29.18" transform="scale(1, -1)"
	style="font-family:Helvetica;font-weight:normal;font-style:normal;font-size:36px">Γeff</text>
</g>
<text x="67.848" y="-393.96" transform="scale(1, -1)"
	style="font-family:Helvetica;font-weight:normal;font-style:normal;font-size:36px">100</text>
<text x="67.848" y="-673.86" transform="scale(1, -1)"
	style="font-family:Helvetica;font-weight:normal;font-style:normal;font-size:36px">200</text>
<text x="67.848" y="-953.77" transform="scale(1, -1)"
	style="font-family:Helvetica;font-weight:normal;font-style:normal;font-size:36px">300</text>
<path d="M149.91,123.12L145.91,123.12" style="fill:none;stroke:#000000;stroke-width:1.5" />
<path d="M149.91,263.08L145.91,263.08" style="fill:none;stroke:#000000;stroke-width:1.5" />
<path d="M153.91,403.03L145.91,403.03" style="fill:none;stroke:#000000;stroke-width:1.5" />
<path d="M149.91,542.98L145.91,542.98" style="fill:none;stroke:#000000;stroke-width:1.5" />
<path d="M153.91,682.93L145.91,682.93" style="fill:none;stroke:#000000;stroke-width:1.5" />
<path d="M149.91,822.89L145.91,822.89" style="fill:none;stroke:#000000;stroke-width:1.5" />
<path d="M153.91,962.84L145.91,962.84" style="fill:none;stroke:#000000;stroke-width:1.5" />
<path d="M145.91,110.32L145.91,962.84" style="fill:none;stroke:#000000;stroke-width:1.5" />
<path d="M1000,898L950.08,866.16L895.6,831.42L841.12,796.69L791.17,764.84L750.31,738.79L700.37,706.95L623.18,657.73L568.7,622.99L523.3,594.05L473.35,562.2L418.87,527.47L337.15,475.36L287.2,443.51L250.88,420.36L205.48,391.41" style="fill:none;stroke:#637CC6;stroke-width:3" />
<path d="M1000,120.72L950.08,132.56L895.6,145.48L841.12,158.39L791.17,170.23L750.31,179.92L700.37,191.76L623.18,210.06L568.7,222.98L523.3,233.74L473.35,245.58L418.87,258.5L337.15,277.87L287.2,289.71L250.88,298.32L205.48,309.09" style="fill:none;stroke:#C96892;stroke-width:3" />
<path d="M1006,809.45A6,6 0 1 1 994.02,809.45A6,6 0 1 1 1006,809.45Z" style="fill:#637CC6" />
<path d="M956.08,742.84A6,6 0 1 1 944.08,742.84A6,6 0 1 1 956.08,742.84Z" style="fill:#637CC6" />
<path d="M901.6,841.81A6,6 0 1 1 889.6,841.81A6,6 0 1 1 901.6,841.81Z" style="fill:#637CC6" />
<path d="M847.12,811.46A6,6 0 1 1 835.12,811.46A6,6 0 1 1 847.12,811.46Z" style="fill:#637CC6" />
<path d="M797.17,785.78A6,6 0 1 1 785.17,785.78A6,6 0 1 1 797.17,785.78Z" style="fill:#637CC6" />
<path d="M756.31,784.74A6,6 0 1 1 744.31,784.74A6,6 0 1 1 756.31,784.74Z" style="fill:#637CC6" />
<path d="M706.37,746.19A6,6 0 1 1 694.37,746.19A6,6 0 1 1 706.37,746.19Z" style="fill:#637CC6" />
<path d="M629.18,690.36A6,6 0 1 1 617.18,690.36A6,6 0 1 1 629.18,690.36Z" style="fill:#637CC6" />
<path d="M574.7,672.59A6,6 0 1 1 562.7,672.59A6,6 0 1 1 574.7,672.59Z" style="fill:#637CC6" />
<path d="M529.3,642.81A6,6 0 1 1 517.3,642.81A6,6 0 1 1 529.3,642.81Z" style="fill:#637CC6" />
<path d="M479.35,628.18A6,6 0 1 1 467.35,628.18A6,6 0 1 1 479.35,628.18Z" style="fill:#637CC6" />
<path d="M424.87,616.54A6,6 0 1 1 412.87,616.54A6,6 0 1 1 424.87,616.54Z" style="fill:#637CC6" />
<path d="M343.15,597.98A6,6 0 1 1 331.15,597.98A6,6 0 1 1 343.15,597.98Z" style="fill:#637CC6" />
<path d="M293.2,358.44A6,6 0 1 1 281.2,358.44A6,6 0 1 1 293.2,358.44Z" style="fill:#637CC6" />
<path d="M256.88,329.98A6,6 0 1 1 244.88,329.98A6,6 0 1 1 256.88,329.98Z" style="fill:#637CC6" />
<path d="M211.48,238.79A6,6 0 1 1 199.48,238.79A6,6 0 1 1 211.48,238.79Z" style="fill:#637CC6" />
<path d="M1006,110.32A6,6 0 1 1 994.02,110.32A6,6 0 1 1 1006,110.32Z" style="fill:#C96892" />
<path d="M956.08,122.34A6,6 0 1 1 944.08,122.34A6,6 0 1 1 956.08,122.34Z" style="fill:#C96892" />
<path d="M901.6,135.31A6,6 0 1 1 889.6,135.31A6,6 0 1 1 901.6,135.31Z" style="fill:#C96892" />
<path d="M847.12,151.76A6,6 0 1 1 835.12,151.76A6,6 0 1 1 847.12,151.76Z" style="fill:#C96892" />
<path d="M797.17,165.14A6,6 0 1 1 785.17,165.14A6,6 0 1 1 797.17,165.14Z" style="fill:#C96892" />
<path d="M756.31,177.34A6,6 0 1 1 744.31,177.34A6,6 0 1 1 756.31,177.34Z" style="fill:#C96892" />
<path d="M706.37,192.04A6,6 0 1 1 694.37,192.04A6,6 0 1 1 706.37,192.04Z" style="fill:#C96892" />
<path d="M629.18,215.9A6,6 0 1 1 617.18,215.9A6,6 0 1 1 629.18,215.9Z" style="fill:#C96892" />
<path d="M574.7,236.18A6,6 0 1 1 562.7,236.18A6,6 0 1 1 574.7,236.18Z" style="fill:#C96892" />
<path d="M529.3,251.35A6,6 0 1 1 517.3,251.35A6,6 0 1 1 529.3,251.35Z" style="fill:#C96892" />
<path d="M479.35,267.07A6,6 0 1 1 467.35,267.07A6,6 0 1 1 479.35,267.07Z" style="fill:#C96892" />
<path d="M424.87,291.21A6,6 0 1 1 412.87,291.21A6,6 0 1 1 424.87,291.21Z" style="fill:#C96892" />
<path d="M343.15,332.34A6,6 0 1 1 331.15,332.34A6,6 0 1 1 343.15,332.34Z" style="fill:#C96892" />
<path d="M293.2,282.3A6,6 0 1 1 281.2,282.3A6,6 0 1 1 293.2,282.3Z" style="fill:#C96892" />
<path d="M256.88,281.28A6,6 0 1 1 244.88,281.28A6,6 0 1 1 256.88,281.28Z" style="fill:#C96892" />
<path d="M211.48,233.04A6,6 0 1 1 199.48,233.04A6,6 0 1 1 211.48,233.04Z" style="fill:#C96892" />
<path d="M980,867.02L1030,867.02" style="fill:none;stroke:#637CC6;stroke-width:3" />
<text x="785.92" y="-858.54" transform="scale(1, -1)"
	style="font-family:Helvetica;font-weight:normal;font-style:normal;font-size:36px">Anti-Stokes</text>
<path d="M980,825.61L1030,825.61" style="fill:none;stroke:#C96892;stroke-width:3" />
<text x="859.94" y="-817.13" transform="scale(1, -1)"
	style="font-family:Helvetica;font-weight:normal;font-style:normal;font-size:36px">Stokes</text>
</g>
</svg>
