<?xml version="1.0"?>
<!-- Generated by SVGo and Plotinum VG -->
<svg width="1080pt" height="1080pt" viewBox="0 0 1080 1080"
	xmlns="http://www.w3.org/2000/svg"
	xmlns:xlink="http://www.w3.org/1999/xlink">
<g transform="scale(1, -1) translate(0, -1080)">
<path d="M0,0L1080,0L1080,1080L0,1080Z" style="fill:#-8000000000000000-8000000000000000-8000000000000000;fill-opacity:0" />
<text x="82.847" y="-1039.5" transform="scale(1, -1)"
	style="font-family:Helvetica;font-weight:normal;font-style:normal;font-size:50px">1 cm UHNA3 Phase-Matching Bandwidth</text>
<text x="361.97" y="-11.039" transform="scale(1, -1)"
	style="font-family:Helvetica;font-weight:normal;font-style:normal;font-size:36px">Pump-Probe Separation (GHz)</text>
<text x="231.01" y="-71.258" transform="scale(1, -1)"
	style="font-family:Helvetica;font-weight:normal;font-style:normal;font-size:36px">5</text>
<text x="430.74" y="-71.258" transform="scale(1, -1)"
	style="font-family:Helvetica;font-weight:normal;font-style:normal;font-size:36px">15</text>
<text x="640.49" y="-71.258" transform="scale(1, -1)"
	style="font-family:Helvetica;font-weight:normal;font-style:normal;font-size:36px">25</text>
<text x="850.23" y="-71.258" transform="scale(1, -1)"
	style="font-family:Helvetica;font-weight:normal;font-style:normal;font-size:36px">35</text>
<path d="M136.14,112.44L136.14,108.44" style="fill:none;stroke:#000000;stroke-width:1.5" />
<path d="M241.02,116.44L241.02,108.44" style="fill:none;stroke:#000000;stroke-width:1.5" />
<path d="M345.89,112.44L345.89,108.44" style="fill:none;stroke:#000000;stroke-width:1.5" />
<path d="M450.76,116.44L450.76,108.44" style="fill:none;stroke:#000000;stroke-width:1.5" />
<path d="M555.64,112.44L555.64,108.44" style="fill:none;stroke:#000000;stroke-width:1.5" />
<path d="M660.51,116.44L660.51,108.44" style="fill:none;stroke:#000000;stroke-width:1.5" />
<path d="M765.38,112.44L765.38,108.44" style="fill:none;stroke:#000000;stroke-width:1.5" />
<path d="M870.25,116.44L870.25,108.44" style="fill:none;stroke:#000000;stroke-width:1.5" />
<path d="M975.13,112.44L975.13,108.44" style="fill:none;stroke:#000000;stroke-width:1.5" />
<path d="M1080,112.44L1080,108.44" style="fill:none;stroke:#000000;stroke-width:1.5" />
<path d="M136.14,108.44L1080,108.44" style="fill:none;stroke:#000000;stroke-width:1.5" />
<g transform="rotate(90)">
<text x="364.4" y="29.18" transform="scale(1, -1)"
	style="font-family:Helvetica;font-weight:normal;font-style:normal;font-size:36px">Peak Spectral Density</text>
</g>
<text x="67.848" y="-240.83" transform="scale(1, -1)"
	style="font-family:Helvetica;font-weight:normal;font-style:normal;font-size:36px">0.5</text>
<text x="67.848" y="-523" transform="scale(1, -1)"
	style="font-family:Helvetica;font-weight:normal;font-style:normal;font-size:36px">1.5</text>
<text x="67.848" y="-805.18" transform="scale(1, -1)"
	style="font-family:Helvetica;font-weight:normal;font-style:normal;font-size:36px">2.5</text>
<path d="M139.89,108.82L135.89,108.82" style="fill:none;stroke:#000000;stroke-width:1.5" />
<path d="M143.89,249.9L135.89,249.9" style="fill:none;stroke:#000000;stroke-width:1.5" />
<path d="M139.89,390.99L135.89,390.99" style="fill:none;stroke:#000000;stroke-width:1.5" />
<path d="M143.89,532.08L135.89,532.08" style="fill:none;stroke:#000000;stroke-width:1.5" />
<path d="M139.89,673.16L135.89,673.16" style="fill:none;stroke:#000000;stroke-width:1.5" />
<path d="M143.89,814.25L135.89,814.25" style="fill:none;stroke:#000000;stroke-width:1.5" />
<path d="M139.89,955.33L135.89,955.33" style="fill:none;stroke:#000000;stroke-width:1.5" />
<path d="M135.89,108.82L135.89,974.14" style="fill:none;stroke:#000000;stroke-width:1.5" />
<path d="M272.46,974.14L282.94,775.93L293.43,602.6L303.91,456.08L314.4,337.09L324.88,245.23L335.37,179.09L345.85,136.4L356.34,114.18L366.82,108.98L377.31,117.05L387.79,134.61L398.28,157.95L408.76,183.69L419.25,208.87L429.73,231.07L440.22,248.48L450.7,259.92L461.18,264.84L471.67,263.26L482.15,255.69L492.64,243.05L503.12,226.56L513.6,207.6L524.09,187.62L534.57,167.99L545.06,149.96L555.54,134.53L566.02,122.44L576.51,114.11L586.99,109.68L597.47,108.97L607.96,111.56L618.44,116.81L628.93,123.97L639.41,132.19L649.89,140.63L660.38,148.5L670.86,155.14L681.34,160.01L691.83,162.77L702.31,163.29L712.79,161.6L723.27,157.9L733.76,152.57L744.24,146.05L754.72,138.88L765.21,131.61L775.69,124.74L786.17,118.75L796.65,114L807.14,110.72L817.62,109.05L828.1,108.97L838.58,110.35L849.07,112.94L859.55,116.44L870.03,120.47L880.51,124.64L890.99,128.59L901.48,131.97L911.96,134.51L922.44,136.02L932.92,136.41L943.4,135.67L953.89,133.9L964.37,131.25L974.85,127.95L985.33,124.28L995.81,120.52L1006.3,116.95L1016.8,113.83" style="fill:none;stroke:#000000;stroke-opacity:0.19608" />
<path d="M293.43,343.12L303.91,237.96L314.4,166.59L324.88,125.34L335.37,109.46L345.85,113.48L356.34,131.69L366.82,158.46L377.31,188.62L387.79,217.73L398.28,242.29L408.76,259.84L419.25,269L429.73,269.44L440.22,261.7L450.7,247.1L461.18,227.43L471.67,204.79L482.15,181.35L492.64,159.12L503.12,139.81L513.6,124.68L524.09,114.48L534.57,109.46L545.06,109.33L555.54,113.4L566.02,120.65L576.51,129.87L586.99,139.78L597.47,149.16L607.96,156.97L618.44,162.41L628.93,165.01L639.41,164.61L649.89,161.38L660.38,155.74L670.86,148.36L681.34,140L691.83,131.48L702.31,123.6L712.79,117L723.27,112.2L733.76,109.46L744.24,108.86L754.72,110.25L765.21,113.28L775.69,117.48L786.17,122.29L796.65,127.12L807.14,131.44L817.62,134.77L828.1,136.8L838.58,137.34L849.07,136.39L859.55,134.08L870.03,130.68L880.51,126.57L890.99,122.17L901.48,117.9L911.96,114.17L922.44,111.28L932.92,109.46L943.4,108.82L953.89,109.32L964.37,110.83L974.85,113.12L985.33,115.88L995.81,118.8L1006.3,121.53L1016.8,123.78" style="fill:none;stroke:#5140000;stroke-opacity:0.19608" />
<path d="M282.94,625.27L293.43,464.38L303.91,335.49L314.4,238.09L324.88,170.3L335.37,129.15L345.85,110.81L356.34,110.85L366.82,124.58L377.31,147.32L387.79,174.66L398.28,202.68L408.76,228.11L419.25,248.48L429.73,262.14L440.22,268.26L450.7,266.81L461.18,258.38L471.67,244.15L482.15,225.64L492.64,204.57L503.12,182.75L513.6,161.83L524.09,143.25L534.57,128.14L545.06,117.22L555.54,110.8L566.02,108.82L576.51,110.82L586.99,116.1L597.47,123.72L607.96,132.65L618.44,141.85L628.93,150.34L639.41,157.3L649.89,162.12L660.38,164.43L670.86,164.12L681.34,161.31L691.83,156.35L702.31,149.74L712.79,142.13L723.27,134.17L733.76,126.52L744.24,119.79L754.72,114.44L765.21,110.79L775.69,109.01L786.17,109.07L796.65,110.79L807.14,113.87L817.62,117.9L828.1,122.39L838.58,126.89L849.07,130.93L859.55,134.14L870.03,136.24L880.51,137.05L890.99,136.54L901.48,134.79L911.96,132L922.44,128.43L932.92,124.43L943.4,120.33L953.89,116.5L964.37,113.24L974.85,110.78L985.33,109.28L995.81,108.82L1006.3,109.35L1016.8,110.76" style="fill:none;stroke:#1B10000;stroke-opacity:0.58824;stroke-width:10" />
<path d="M249.02,881.56A8,8 0 1 1 233.02,881.56A8,8 0 1 1 249.02,881.56Z" style="fill:#1FD3AC" />
<path d="M259.5,741.71A8,8 0 1 1 243.5,741.71A8,8 0 1 1 259.5,741.71Z" style="fill:#1FD3AC" />
<path d="M269.99,682.66A8,8 0 1 1 253.99,682.66A8,8 0 1 1 269.99,682.66Z" style="fill:#1FD3AC" />
<path d="M280.48,655.81A8,8 0 1 1 264.48,655.81A8,8 0 1 1 280.48,655.81Z" style="fill:#1FD3AC" />
<path d="M290.97,561.37A8,8 0 1 1 274.97,561.37A8,8 0 1 1 290.97,561.37Z" style="fill:#1FD3AC" />
<path d="M301.45,468.87A8,8 0 1 1 285.45,468.87A8,8 0 1 1 301.45,468.87Z" style="fill:#1FD3AC" />
<path d="M311.94,454.28A8,8 0 1 1 295.94,454.28A8,8 0 1 1 311.94,454.28Z" style="fill:#1FD3AC" />
<path d="M322.43,384.76A8,8 0 1 1 306.43,384.76A8,8 0 1 1 322.43,384.76Z" style="fill:#1FD3AC" />
<path d="M332.92,344.03A8,8 0 1 1 316.92,344.03A8,8 0 1 1 332.92,344.03Z" style="fill:#1FD3AC" />
<path d="M343.4,265.06A8,8 0 1 1 327.4,265.06A8,8 0 1 1 343.4,265.06Z" style="fill:#1FD3AC" />
<path d="M353.89,217.51A8,8 0 1 1 337.89,217.51A8,8 0 1 1 353.89,217.51Z" style="fill:#1FD3AC" />
<path d="M364.38,192A8,8 0 1 1 348.38,192A8,8 0 1 1 364.38,192Z" style="fill:#1FD3AC" />
<path d="M374.86,173.21A8,8 0 1 1 358.86,173.21A8,8 0 1 1 374.86,173.21Z" style="fill:#1FD3AC" />
<path d="M385.35,174.48A8,8 0 1 1 369.35,174.48A8,8 0 1 1 385.35,174.48Z" style="fill:#1FD3AC" />
<path d="M395.84,209.22A8,8 0 1 1 379.84,209.22A8,8 0 1 1 395.84,209.22Z" style="fill:#1FD3AC" />
<path d="M406.33,229.05A8,8 0 1 1 390.33,229.05A8,8 0 1 1 406.33,229.05Z" style="fill:#1FD3AC" />
<path d="M416.81,246.39A8,8 0 1 1 400.81,246.39A8,8 0 1 1 416.81,246.39Z" style="fill:#1FD3AC" />
<path d="M427.3,276.74A8,8 0 1 1 411.3,276.74A8,8 0 1 1 427.3,276.74Z" style="fill:#1FD3AC" />
<path d="M437.79,289.82A8,8 0 1 1 421.79,289.82A8,8 0 1 1 437.79,289.82Z" style="fill:#1FD3AC" />
<path d="M448.28,294.72A8,8 0 1 1 432.28,294.72A8,8 0 1 1 448.28,294.72Z" style="fill:#1FD3AC" />
<path d="M458.76,291.37A8,8 0 1 1 442.76,291.37A8,8 0 1 1 458.76,291.37Z" style="fill:#1FD3AC" />
<path d="M469.25,289.59A8,8 0 1 1 453.25,289.59A8,8 0 1 1 469.25,289.59Z" style="fill:#1FD3AC" />
<path d="M479.74,298.71A8,8 0 1 1 463.74,298.71A8,8 0 1 1 479.74,298.71Z" style="fill:#1FD3AC" />
<path d="M490.22,282.62A8,8 0 1 1 474.22,282.62A8,8 0 1 1 490.22,282.62Z" style="fill:#1FD3AC" />
<path d="M500.71,281.05A8,8 0 1 1 484.71,281.05A8,8 0 1 1 500.71,281.05Z" style="fill:#1FD3AC" />
<path d="M511.2,263.56A8,8 0 1 1 495.2,263.56A8,8 0 1 1 511.2,263.56Z" style="fill:#1FD3AC" />
<path d="M521.69,244.35A8,8 0 1 1 505.69,244.35A8,8 0 1 1 521.69,244.35Z" style="fill:#1FD3AC" />
<path d="M532.17,229.78A8,8 0 1 1 516.17,229.78A8,8 0 1 1 532.17,229.78Z" style="fill:#1FD3AC" />
<path d="M542.66,219.84A8,8 0 1 1 526.66,219.84A8,8 0 1 1 542.66,219.84Z" style="fill:#1FD3AC" />
<path d="M553.15,191.36A8,8 0 1 1 537.15,191.36A8,8 0 1 1 553.15,191.36Z" style="fill:#1FD3AC" />
<path d="M563.64,158.86A8,8 0 1 1 547.64,158.86A8,8 0 1 1 563.64,158.86Z" style="fill:#1FD3AC" />
<path d="M574.12,155.09A8,8 0 1 1 558.12,155.09A8,8 0 1 1 574.12,155.09Z" style="fill:#1FD3AC" />
<path d="M584.61,146.91A8,8 0 1 1 568.61,146.91A8,8 0 1 1 584.61,146.91Z" style="fill:#1FD3AC" />
<path d="M595.1,141.27A8,8 0 1 1 579.1,141.27A8,8 0 1 1 595.1,141.27Z" style="fill:#1FD3AC" />
<path d="M605.58,145.54A8,8 0 1 1 589.58,145.54A8,8 0 1 1 605.58,145.54Z" style="fill:#1FD3AC" />
<path d="M616.07,149.28A8,8 0 1 1 600.07,149.28A8,8 0 1 1 616.07,149.28Z" style="fill:#1FD3AC" />
<path d="M626.56,152.9A8,8 0 1 1 610.56,152.9A8,8 0 1 1 626.56,152.9Z" style="fill:#1FD3AC" />
<path d="M637.05,165.21A8,8 0 1 1 621.05,165.21A8,8 0 1 1 637.05,165.21Z" style="fill:#1FD3AC" />
<path d="M647.53,175.11A8,8 0 1 1 631.53,175.11A8,8 0 1 1 647.53,175.11Z" style="fill:#1FD3AC" />
<path d="M658.02,181.83A8,8 0 1 1 642.02,181.83A8,8 0 1 1 658.02,181.83Z" style="fill:#1FD3AC" />
<path d="M668.51,191.09A8,8 0 1 1 652.51,191.09A8,8 0 1 1 668.51,191.09Z" style="fill:#1FD3AC" />
<path d="M679,194.2A8,8 0 1 1 663,194.2A8,8 0 1 1 679,194.2Z" style="fill:#1FD3AC" />
<path d="M689.48,199.74A8,8 0 1 1 673.48,199.74A8,8 0 1 1 689.48,199.74Z" style="fill:#1FD3AC" />
<path d="M699.97,200.47A8,8 0 1 1 683.97,200.47A8,8 0 1 1 699.97,200.47Z" style="fill:#1FD3AC" />
<path d="M710.46,196.34A8,8 0 1 1 694.46,196.34A8,8 0 1 1 710.46,196.34Z" style="fill:#1FD3AC" />
<path d="M720.95,198.05A8,8 0 1 1 704.95,198.05A8,8 0 1 1 720.95,198.05Z" style="fill:#1FD3AC" />
<path d="M731.43,193.9A8,8 0 1 1 715.43,193.9A8,8 0 1 1 731.43,193.9Z" style="fill:#1FD3AC" />
<path d="M741.92,185.16A8,8 0 1 1 725.92,185.16A8,8 0 1 1 741.92,185.16Z" style="fill:#1FD3AC" />
<path d="M752.41,184.07A8,8 0 1 1 736.41,184.07A8,8 0 1 1 752.41,184.07Z" style="fill:#1FD3AC" />
<path d="M762.89,175.75A8,8 0 1 1 746.89,175.75A8,8 0 1 1 762.89,175.75Z" style="fill:#1FD3AC" />
<path d="M773.38,166.09A8,8 0 1 1 757.38,166.09A8,8 0 1 1 773.38,166.09Z" style="fill:#1FD3AC" />
<path d="M783.87,161.07A8,8 0 1 1 767.87,161.07A8,8 0 1 1 783.87,161.07Z" style="fill:#1FD3AC" />
<path d="M794.36,145.58A8,8 0 1 1 778.36,145.58A8,8 0 1 1 794.36,145.58Z" style="fill:#1FD3AC" />
<path d="M804.84,140.05A8,8 0 1 1 788.84,140.05A8,8 0 1 1 804.84,140.05Z" style="fill:#1FD3AC" />
<path d="M815.33,134.53A8,8 0 1 1 799.33,134.53A8,8 0 1 1 815.33,134.53Z" style="fill:#1FD3AC" />
<path d="M825.82,134.1A8,8 0 1 1 809.82,134.1A8,8 0 1 1 825.82,134.1Z" style="fill:#1FD3AC" />
<path d="M836.31,133.08A8,8 0 1 1 820.31,133.08A8,8 0 1 1 836.31,133.08Z" style="fill:#1FD3AC" />
<path d="M846.79,142.58A8,8 0 1 1 830.79,142.58A8,8 0 1 1 846.79,142.58Z" style="fill:#1FD3AC" />
<path d="M857.28,141.9A8,8 0 1 1 841.28,141.9A8,8 0 1 1 857.28,141.9Z" style="fill:#1FD3AC" />
<path d="M867.77,146.41A8,8 0 1 1 851.77,146.41A8,8 0 1 1 867.77,146.41Z" style="fill:#1FD3AC" />
<path d="M878.25,151.05A8,8 0 1 1 862.25,151.05A8,8 0 1 1 878.25,151.05Z" style="fill:#1FD3AC" />
<path d="M888.74,155.74A8,8 0 1 1 872.74,155.74A8,8 0 1 1 888.74,155.74Z" style="fill:#1FD3AC" />
<path d="M899.23,161.89A8,8 0 1 1 883.23,161.89A8,8 0 1 1 899.23,161.89Z" style="fill:#1FD3AC" />
<path d="M909.72,165.09A8,8 0 1 1 893.72,165.09A8,8 0 1 1 909.72,165.09Z" style="fill:#1FD3AC" />
<path d="M920.2,171.03A8,8 0 1 1 904.2,171.03A8,8 0 1 1 920.2,171.03Z" style="fill:#1FD3AC" />
<path d="M930.69,166.4A8,8 0 1 1 914.69,166.4A8,8 0 1 1 930.69,166.4Z" style="fill:#1FD3AC" />
<path d="M941.18,168.52A8,8 0 1 1 925.18,168.52A8,8 0 1 1 941.18,168.52Z" style="fill:#1FD3AC" />
<path d="M951.67,167.35A8,8 0 1 1 935.67,167.35A8,8 0 1 1 951.67,167.35Z" style="fill:#1FD3AC" />
<path d="M962.15,164.42A8,8 0 1 1 946.15,164.42A8,8 0 1 1 962.15,164.42Z" style="fill:#1FD3AC" />
<path d="M972.64,159.15A8,8 0 1 1 956.64,159.15A8,8 0 1 1 972.64,159.15Z" style="fill:#1FD3AC" />
<path d="M983.13,156.67A8,8 0 1 1 967.13,156.67A8,8 0 1 1 983.13,156.67Z" style="fill:#1FD3AC" />
<path d="M993.61,152.91A8,8 0 1 1 977.61,152.91A8,8 0 1 1 993.61,152.91Z" style="fill:#1FD3AC" />
<path d="M1004.1,148.12A8,8 0 1 1 988.1,148.12A8,8 0 1 1 1004.1,148.12Z" style="fill:#1FD3AC" />
<path d="M1014.6,135.6A8,8 0 1 1 998.59,135.6A8,8 0 1 1 1014.6,135.6Z" style="fill:#1FD3AC" />
<path d="M136.14,955.33L1080,955.33" style="fill:none;stroke:#000000" />
<path d="M1080,108.82L1080,955.33" style="fill:none;stroke:#000000" />
<path d="M980,927.49L1030,927.49" style="fill:none;stroke:#1B10000;stroke-opacity:0.58824;stroke-width:10" />
<text x="543.7" y="-920.9" transform="scale(1, -1)"
	style="font-family:Helvetica;font-weight:normal;font-style:normal;font-size:28px">Theoretical (L = 1.00 cm, n = 1.46)</text>
<path d="M1013,893.06A8,8 0 1 1 997,893.06A8,8 0 1 1 1013,893.06Z" style="fill:#1FD3AC" />
<text x="808.81" y="-886.46" transform="scale(1, -1)"
	style="font-family:Helvetica;font-weight:normal;font-style:normal;font-size:28px">Experimental</text>
</g>
</svg>
