<?xml version="1.0"?>
<!-- Generated by SVGo and Plotinum VG -->
<svg width="1080pt" height="1080pt" viewBox="0 0 1080 1080"
	xmlns="http://www.w3.org/2000/svg"
	xmlns:xlink="http://www.w3.org/1999/xlink">
<g transform="scale(1, -1) translate(0, -1080)">
<path d="M0,0L1080,0L1080,1080L0,1080Z" style="fill:#-8000000000000000-8000000000000000-8000000000000000;fill-opacity:0" />
<text x="224.3" y="-1015.2" transform="scale(1, -1)"
	style="font-family:Helvetica;font-weight:normal;font-style:normal;font-size:80px"> no sample CABS</text>
<text x="413.87" y="-17.172" transform="scale(1, -1)"
	style="font-family:Helvetica;font-weight:normal;font-style:normal;font-size:56px">Frequency (GHz)</text>
<text x="179.25" y="-119.73" transform="scale(1, -1)"
	style="font-family:Helvetica;font-weight:normal;font-style:normal;font-size:56px">11.5</text>
<text x="338.02" y="-119.73" transform="scale(1, -1)"
	style="font-family:Helvetica;font-weight:normal;font-style:normal;font-size:56px">11.7</text>
<text x="496.79" y="-119.73" transform="scale(1, -1)"
	style="font-family:Helvetica;font-weight:normal;font-style:normal;font-size:56px">11.9</text>
<text x="653.47" y="-119.73" transform="scale(1, -1)"
	style="font-family:Helvetica;font-weight:normal;font-style:normal;font-size:56px">12.1</text>
<text x="812.24" y="-119.73" transform="scale(1, -1)"
	style="font-family:Helvetica;font-weight:normal;font-style:normal;font-size:56px">12.3</text>
<text x="971.01" y="-119.73" transform="scale(1, -1)"
	style="font-family:Helvetica;font-weight:normal;font-style:normal;font-size:56px">12.5</text>
<path d="M231.67,181.12L231.67,173.12" style="fill:none;stroke:#000000;stroke-width:1.5" />
<path d="M311.06,177.12L311.06,173.12" style="fill:none;stroke:#000000;stroke-width:1.5" />
<path d="M390.44,181.12L390.44,173.12" style="fill:none;stroke:#000000;stroke-width:1.5" />
<path d="M469.82,177.12L469.82,173.12" style="fill:none;stroke:#000000;stroke-width:1.5" />
<path d="M549.2,181.12L549.2,173.12" style="fill:none;stroke:#000000;stroke-width:1.5" />
<path d="M628.59,177.12L628.59,173.12" style="fill:none;stroke:#000000;stroke-width:1.5" />
<path d="M707.97,181.12L707.97,173.12" style="fill:none;stroke:#000000;stroke-width:1.5" />
<path d="M787.35,177.12L787.35,173.12" style="fill:none;stroke:#000000;stroke-width:1.5" />
<path d="M866.74,181.12L866.74,173.12" style="fill:none;stroke:#000000;stroke-width:1.5" />
<path d="M946.12,177.12L946.12,173.12" style="fill:none;stroke:#000000;stroke-width:1.5" />
<path d="M1025.5,181.12L1025.5,173.12" style="fill:none;stroke:#000000;stroke-width:1.5" />
<path d="M231.67,173.12L1025.5,173.12" style="fill:none;stroke:#000000;stroke-width:1.5" />
<g transform="rotate(90)">
<text x="279.9" y="45.391" transform="scale(1, -1)"
	style="font-family:Helvetica;font-weight:normal;font-style:normal;font-size:56px">Spectral Density (pV)</text>
</g>
<text x="114.43" y="-303.57" transform="scale(1, -1)"
	style="font-family:Helvetica;font-weight:normal;font-style:normal;font-size:56px">100</text>
<text x="114.43" y="-472.98" transform="scale(1, -1)"
	style="font-family:Helvetica;font-weight:normal;font-style:normal;font-size:56px">300</text>
<text x="114.43" y="-642.39" transform="scale(1, -1)"
	style="font-family:Helvetica;font-weight:normal;font-style:normal;font-size:56px">500</text>
<text x="114.43" y="-811.81" transform="scale(1, -1)"
	style="font-family:Helvetica;font-weight:normal;font-style:normal;font-size:56px">700</text>
<path d="M235.42,232.97L231.42,232.97" style="fill:none;stroke:#000000;stroke-width:1.5" />
<path d="M239.42,317.68L231.42,317.68" style="fill:none;stroke:#000000;stroke-width:1.5" />
<path d="M235.42,402.38L231.42,402.38" style="fill:none;stroke:#000000;stroke-width:1.5" />
<path d="M239.42,487.09L231.42,487.09" style="fill:none;stroke:#000000;stroke-width:1.5" />
<path d="M235.42,571.8L231.42,571.8" style="fill:none;stroke:#000000;stroke-width:1.5" />
<path d="M239.42,656.5L231.42,656.5" style="fill:none;stroke:#000000;stroke-width:1.5" />
<path d="M235.42,741.21L231.42,741.21" style="fill:none;stroke:#000000;stroke-width:1.5" />
<path d="M239.42,825.92L231.42,825.92" style="fill:none;stroke:#000000;stroke-width:1.5" />
<path d="M235.42,910.62L231.42,910.62" style="fill:none;stroke:#000000;stroke-width:1.5" />
<path d="M231.42,178.24L231.42,910.62" style="fill:none;stroke:#000000;stroke-width:1.5" />
<path d="M244.65,565.47A5,5 0 1 1 234.65,565.47A5,5 0 1 1 244.65,565.47Z" style="fill:#1FD3AC" />
<path d="M252.58,561.47A5,5 0 1 1 242.58,561.47A5,5 0 1 1 252.58,561.47Z" style="fill:#1FD3AC" />
<path d="M260.52,562.09A5,5 0 1 1 250.52,562.09A5,5 0 1 1 260.52,562.09Z" style="fill:#1FD3AC" />
<path d="M268.46,490.2A5,5 0 1 1 258.46,490.2A5,5 0 1 1 268.46,490.2Z" style="fill:#1FD3AC" />
<path d="M276.4,480.44A5,5 0 1 1 266.4,480.44A5,5 0 1 1 276.4,480.44Z" style="fill:#1FD3AC" />
<path d="M284.34,511.71A5,5 0 1 1 274.34,511.71A5,5 0 1 1 284.34,511.71Z" style="fill:#1FD3AC" />
<path d="M292.28,497.71A5,5 0 1 1 282.28,497.71A5,5 0 1 1 292.28,497.71Z" style="fill:#1FD3AC" />
<path d="M300.21,517.88A5,5 0 1 1 290.21,517.88A5,5 0 1 1 300.21,517.88Z" style="fill:#1FD3AC" />
<path d="M308.15,522.83A5,5 0 1 1 298.15,522.83A5,5 0 1 1 308.15,522.83Z" style="fill:#1FD3AC" />
<path d="M316.09,497.93A5,5 0 1 1 306.09,497.93A5,5 0 1 1 316.09,497.93Z" style="fill:#1FD3AC" />
<path d="M324.03,544.54A5,5 0 1 1 314.03,544.54A5,5 0 1 1 324.03,544.54Z" style="fill:#1FD3AC" />
<path d="M331.97,671.7A5,5 0 1 1 321.97,671.7A5,5 0 1 1 331.97,671.7Z" style="fill:#1FD3AC" />
<path d="M339.91,705.83A5,5 0 1 1 329.91,705.83A5,5 0 1 1 339.91,705.83Z" style="fill:#1FD3AC" />
<path d="M347.84,676.57A5,5 0 1 1 337.84,676.57A5,5 0 1 1 347.84,676.57Z" style="fill:#1FD3AC" />
<path d="M355.78,794.08A5,5 0 1 1 345.78,794.08A5,5 0 1 1 355.78,794.08Z" style="fill:#1FD3AC" />
<path d="M363.72,697.18A5,5 0 1 1 353.72,697.18A5,5 0 1 1 363.72,697.18Z" style="fill:#1FD3AC" />
<path d="M371.66,755.13A5,5 0 1 1 361.66,755.13A5,5 0 1 1 371.66,755.13Z" style="fill:#1FD3AC" />
<path d="M379.6,811.06A5,5 0 1 1 369.6,811.06A5,5 0 1 1 379.6,811.06Z" style="fill:#1FD3AC" />
<path d="M387.54,672.67A5,5 0 1 1 377.54,672.67A5,5 0 1 1 387.54,672.67Z" style="fill:#1FD3AC" />
<path d="M395.47,702.52A5,5 0 1 1 385.47,702.52A5,5 0 1 1 395.47,702.52Z" style="fill:#1FD3AC" />
<path d="M403.41,733.61A5,5 0 1 1 393.41,733.61A5,5 0 1 1 403.41,733.61Z" style="fill:#1FD3AC" />
<path d="M411.35,632.07A5,5 0 1 1 401.35,632.07A5,5 0 1 1 411.35,632.07Z" style="fill:#1FD3AC" />
<path d="M419.29,579.52A5,5 0 1 1 409.29,579.52A5,5 0 1 1 419.29,579.52Z" style="fill:#1FD3AC" />
<path d="M427.23,594.26A5,5 0 1 1 417.23,594.26A5,5 0 1 1 427.23,594.26Z" style="fill:#1FD3AC" />
<path d="M435.17,459.5A5,5 0 1 1 425.17,459.5A5,5 0 1 1 435.17,459.5Z" style="fill:#1FD3AC" />
<path d="M443.1,345.26A5,5 0 1 1 433.1,345.26A5,5 0 1 1 443.1,345.26Z" style="fill:#1FD3AC" />
<path d="M451.04,235.48A5,5 0 1 1 441.04,235.48A5,5 0 1 1 451.04,235.48Z" style="fill:#1FD3AC" />
<path d="M458.98,346.86A5,5 0 1 1 448.98,346.86A5,5 0 1 1 458.98,346.86Z" style="fill:#1FD3AC" />
<path d="M466.92,374.89A5,5 0 1 1 456.92,374.89A5,5 0 1 1 466.92,374.89Z" style="fill:#1FD3AC" />
<path d="M474.86,436.04A5,5 0 1 1 464.86,436.04A5,5 0 1 1 474.86,436.04Z" style="fill:#1FD3AC" />
<path d="M482.8,330.69A5,5 0 1 1 472.8,330.69A5,5 0 1 1 482.8,330.69Z" style="fill:#1FD3AC" />
<path d="M490.73,471.97A5,5 0 1 1 480.73,471.97A5,5 0 1 1 490.73,471.97Z" style="fill:#1FD3AC" />
<path d="M498.67,314.67A5,5 0 1 1 488.67,314.67A5,5 0 1 1 498.67,314.67Z" style="fill:#1FD3AC" />
<path d="M506.61,300.09A5,5 0 1 1 496.61,300.09A5,5 0 1 1 506.61,300.09Z" style="fill:#1FD3AC" />
<path d="M514.55,295.61A5,5 0 1 1 504.55,295.61A5,5 0 1 1 514.55,295.61Z" style="fill:#1FD3AC" />
<path d="M522.49,292.74A5,5 0 1 1 512.49,292.74A5,5 0 1 1 522.49,292.74Z" style="fill:#1FD3AC" />
<path d="M530.43,329.74A5,5 0 1 1 520.43,329.74A5,5 0 1 1 530.43,329.74Z" style="fill:#1FD3AC" />
<path d="M538.36,347.43A5,5 0 1 1 528.36,347.43A5,5 0 1 1 538.36,347.43Z" style="fill:#1FD3AC" />
<path d="M546.3,361.43A5,5 0 1 1 536.3,361.43A5,5 0 1 1 546.3,361.43Z" style="fill:#1FD3AC" />
<path d="M554.24,353.95A5,5 0 1 1 544.24,353.95A5,5 0 1 1 554.24,353.95Z" style="fill:#1FD3AC" />
<path d="M562.18,334.63A5,5 0 1 1 552.18,334.63A5,5 0 1 1 562.18,334.63Z" style="fill:#1FD3AC" />
<path d="M570.12,403.9A5,5 0 1 1 560.12,403.9A5,5 0 1 1 570.12,403.9Z" style="fill:#1FD3AC" />
<path d="M578.06,377.55A5,5 0 1 1 568.06,377.55A5,5 0 1 1 578.06,377.55Z" style="fill:#1FD3AC" />
<path d="M585.99,487.14A5,5 0 1 1 575.99,487.14A5,5 0 1 1 585.99,487.14Z" style="fill:#1FD3AC" />
<path d="M593.93,479.61A5,5 0 1 1 583.93,479.61A5,5 0 1 1 593.93,479.61Z" style="fill:#1FD3AC" />
<path d="M601.87,512.39A5,5 0 1 1 591.87,512.39A5,5 0 1 1 601.87,512.39Z" style="fill:#1FD3AC" />
<path d="M609.81,426.52A5,5 0 1 1 599.81,426.52A5,5 0 1 1 609.81,426.52Z" style="fill:#1FD3AC" />
<path d="M617.75,463.41A5,5 0 1 1 607.75,463.41A5,5 0 1 1 617.75,463.41Z" style="fill:#1FD3AC" />
<path d="M625.69,476.57A5,5 0 1 1 615.69,476.57A5,5 0 1 1 625.69,476.57Z" style="fill:#1FD3AC" />
<path d="M633.62,459.17A5,5 0 1 1 623.62,459.17A5,5 0 1 1 633.62,459.17Z" style="fill:#1FD3AC" />
<path d="M641.56,452.35A5,5 0 1 1 631.56,452.35A5,5 0 1 1 641.56,452.35Z" style="fill:#1FD3AC" />
<path d="M649.5,454.08A5,5 0 1 1 639.5,454.08A5,5 0 1 1 649.5,454.08Z" style="fill:#1FD3AC" />
<path d="M657.44,434.4A5,5 0 1 1 647.44,434.4A5,5 0 1 1 657.44,434.4Z" style="fill:#1FD3AC" />
<path d="M665.38,487.41A5,5 0 1 1 655.38,487.41A5,5 0 1 1 665.38,487.41Z" style="fill:#1FD3AC" />
<path d="M673.32,441.39A5,5 0 1 1 663.32,441.39A5,5 0 1 1 673.32,441.39Z" style="fill:#1FD3AC" />
<path d="M681.25,501.82A5,5 0 1 1 671.25,501.82A5,5 0 1 1 681.25,501.82Z" style="fill:#1FD3AC" />
<path d="M689.19,504.31A5,5 0 1 1 679.19,504.31A5,5 0 1 1 689.19,504.31Z" style="fill:#1FD3AC" />
<path d="M697.13,497.52A5,5 0 1 1 687.13,497.52A5,5 0 1 1 697.13,497.52Z" style="fill:#1FD3AC" />
<path d="M705.07,521.46A5,5 0 1 1 695.07,521.46A5,5 0 1 1 705.07,521.46Z" style="fill:#1FD3AC" />
<path d="M713.01,419.02A5,5 0 1 1 703.01,419.02A5,5 0 1 1 713.01,419.02Z" style="fill:#1FD3AC" />
<path d="M720.95,346.77A5,5 0 1 1 710.95,346.77A5,5 0 1 1 720.95,346.77Z" style="fill:#1FD3AC" />
<path d="M728.88,364.9A5,5 0 1 1 718.88,364.9A5,5 0 1 1 728.88,364.9Z" style="fill:#1FD3AC" />
<path d="M736.82,401.72A5,5 0 1 1 726.82,401.72A5,5 0 1 1 736.82,401.72Z" style="fill:#1FD3AC" />
<path d="M744.76,435.77A5,5 0 1 1 734.76,435.77A5,5 0 1 1 744.76,435.77Z" style="fill:#1FD3AC" />
<path d="M752.7,411.11A5,5 0 1 1 742.7,411.11A5,5 0 1 1 752.7,411.11Z" style="fill:#1FD3AC" />
<path d="M760.64,319.21A5,5 0 1 1 750.64,319.21A5,5 0 1 1 760.64,319.21Z" style="fill:#1FD3AC" />
<path d="M768.58,541.97A5,5 0 1 1 758.58,541.97A5,5 0 1 1 768.58,541.97Z" style="fill:#1FD3AC" />
<path d="M776.51,339.05A5,5 0 1 1 766.51,339.05A5,5 0 1 1 776.51,339.05Z" style="fill:#1FD3AC" />
<path d="M784.45,432.09A5,5 0 1 1 774.45,432.09A5,5 0 1 1 784.45,432.09Z" style="fill:#1FD3AC" />
<path d="M792.39,343.85A5,5 0 1 1 782.39,343.85A5,5 0 1 1 792.39,343.85Z" style="fill:#1FD3AC" />
<path d="M800.33,468.69A5,5 0 1 1 790.33,468.69A5,5 0 1 1 800.33,468.69Z" style="fill:#1FD3AC" />
<path d="M808.27,330.38A5,5 0 1 1 798.27,330.38A5,5 0 1 1 808.27,330.38Z" style="fill:#1FD3AC" />
<path d="M816.21,282.37A5,5 0 1 1 806.21,282.37A5,5 0 1 1 816.21,282.37Z" style="fill:#1FD3AC" />
<path d="M824.14,255.76A5,5 0 1 1 814.14,255.76A5,5 0 1 1 824.14,255.76Z" style="fill:#1FD3AC" />
<path d="M832.08,214.57A5,5 0 1 1 822.08,214.57A5,5 0 1 1 832.08,214.57Z" style="fill:#1FD3AC" />
<path d="M840.02,197.09A5,5 0 1 1 830.02,197.09A5,5 0 1 1 840.02,197.09Z" style="fill:#1FD3AC" />
<path d="M847.96,231.59A5,5 0 1 1 837.96,231.59A5,5 0 1 1 847.96,231.59Z" style="fill:#1FD3AC" />
<path d="M855.9,229.04A5,5 0 1 1 845.9,229.04A5,5 0 1 1 855.9,229.04Z" style="fill:#1FD3AC" />
<path d="M863.84,248.53A5,5 0 1 1 853.84,248.53A5,5 0 1 1 863.84,248.53Z" style="fill:#1FD3AC" />
<path d="M871.77,178.24A5,5 0 1 1 861.77,178.24A5,5 0 1 1 871.77,178.24Z" style="fill:#1FD3AC" />
<path d="M879.71,235.53A5,5 0 1 1 869.71,235.53A5,5 0 1 1 879.71,235.53Z" style="fill:#1FD3AC" />
<path d="M887.65,254.81A5,5 0 1 1 877.65,254.81A5,5 0 1 1 887.65,254.81Z" style="fill:#1FD3AC" />
<path d="M895.59,269.7A5,5 0 1 1 885.59,269.7A5,5 0 1 1 895.59,269.7Z" style="fill:#1FD3AC" />
<path d="M903.53,259.54A5,5 0 1 1 893.53,259.54A5,5 0 1 1 903.53,259.54Z" style="fill:#1FD3AC" />
<path d="M911.47,260.4A5,5 0 1 1 901.47,260.4A5,5 0 1 1 911.47,260.4Z" style="fill:#1FD3AC" />
<path d="M919.4,232.04A5,5 0 1 1 909.4,232.04A5,5 0 1 1 919.4,232.04Z" style="fill:#1FD3AC" />
<path d="M927.34,269.45A5,5 0 1 1 917.34,269.45A5,5 0 1 1 927.34,269.45Z" style="fill:#1FD3AC" />
<path d="M935.28,247.7A5,5 0 1 1 925.28,247.7A5,5 0 1 1 935.28,247.7Z" style="fill:#1FD3AC" />
<path d="M943.22,269.92A5,5 0 1 1 933.22,269.92A5,5 0 1 1 943.22,269.92Z" style="fill:#1FD3AC" />
<path d="M951.16,254.44A5,5 0 1 1 941.16,254.44A5,5 0 1 1 951.16,254.44Z" style="fill:#1FD3AC" />
<path d="M959.1,250.57A5,5 0 1 1 949.1,250.57A5,5 0 1 1 959.1,250.57Z" style="fill:#1FD3AC" />
<path d="M967.03,243.89A5,5 0 1 1 957.03,243.89A5,5 0 1 1 967.03,243.89Z" style="fill:#1FD3AC" />
<path d="M974.97,265.33A5,5 0 1 1 964.97,265.33A5,5 0 1 1 974.97,265.33Z" style="fill:#1FD3AC" />
<path d="M982.91,267.07A5,5 0 1 1 972.91,267.07A5,5 0 1 1 982.91,267.07Z" style="fill:#1FD3AC" />
<path d="M990.85,318.86A5,5 0 1 1 980.85,318.86A5,5 0 1 1 990.85,318.86Z" style="fill:#1FD3AC" />
<path d="M998.79,320.48A5,5 0 1 1 988.79,320.48A5,5 0 1 1 998.79,320.48Z" style="fill:#1FD3AC" />
<path d="M1006.7,287.24A5,5 0 1 1 996.73,287.24A5,5 0 1 1 1006.7,287.24Z" style="fill:#1FD3AC" />
<path d="M1014.7,251.3A5,5 0 1 1 1004.7,251.3A5,5 0 1 1 1014.7,251.3Z" style="fill:#1FD3AC" />
<path d="M1022.6,241.62A5,5 0 1 1 1012.6,241.62A5,5 0 1 1 1022.6,241.62Z" style="fill:#1FD3AC" />
<path d="M231.67,910.62L1025.5,910.62" style="fill:none;stroke:#000000" />
<path d="M1025.5,232.97L1025.5,910.62" style="fill:none;stroke:#000000" />
<path d="M988,852.33A8,8 0 1 1 972,852.33A8,8 0 1 1 988,852.33Z" style="fill:#1FD3AC" />
<text x="681.07" y="-839.14" transform="scale(1, -1)"
	style="font-family:Helvetica;font-weight:normal;font-style:normal;font-size:56px">no sample</text>
</g>
</svg>
