<?xml version="1.0"?>
<!-- Generated by SVGo and Plotinum VG -->
<svg width="1080pt" height="1080pt" viewBox="0 0 1080 1080"
	xmlns="http://www.w3.org/2000/svg"
	xmlns:xlink="http://www.w3.org/1999/xlink">
<g transform="scale(1, -1) translate(0, -1080)">
<path d="M0,0L1080,0L1080,1080L0,1080Z" style="fill:#-8000000000000000-8000000000000000-8000000000000000;fill-opacity:0" />
<text x="119.79" y="-1015.2" transform="scale(1, -1)"
	style="font-family:Helvetica;font-weight:normal;font-style:normal;font-size:80px">Liquid-Core Anti-Stokes</text>
<text x="390.51" y="-17.172" transform="scale(1, -1)"
	style="font-family:Helvetica;font-weight:normal;font-style:normal;font-size:56px">Frequency (GHz)</text>
<text x="153.81" y="-119.73" transform="scale(1, -1)"
	style="font-family:Helvetica;font-weight:normal;font-style:normal;font-size:56px">2</text>
<text x="304.8" y="-119.73" transform="scale(1, -1)"
	style="font-family:Helvetica;font-weight:normal;font-style:normal;font-size:56px">2.1</text>
<text x="479.14" y="-119.73" transform="scale(1, -1)"
	style="font-family:Helvetica;font-weight:normal;font-style:normal;font-size:56px">2.2</text>
<text x="653.47" y="-119.73" transform="scale(1, -1)"
	style="font-family:Helvetica;font-weight:normal;font-style:normal;font-size:56px">2.3</text>
<text x="827.81" y="-119.73" transform="scale(1, -1)"
	style="font-family:Helvetica;font-weight:normal;font-style:normal;font-size:56px">2.4</text>
<text x="1002.2" y="-119.73" transform="scale(1, -1)"
	style="font-family:Helvetica;font-weight:normal;font-style:normal;font-size:56px">2.5</text>
<path d="M169.38,181.12L169.38,173.12" style="fill:none;stroke:#000000;stroke-width:1.5" />
<path d="M256.55,177.12L256.55,173.12" style="fill:none;stroke:#000000;stroke-width:1.5" />
<path d="M343.72,181.12L343.72,173.12" style="fill:none;stroke:#000000;stroke-width:1.5" />
<path d="M430.89,177.12L430.89,173.12" style="fill:none;stroke:#000000;stroke-width:1.5" />
<path d="M518.06,181.12L518.06,173.12" style="fill:none;stroke:#000000;stroke-width:1.5" />
<path d="M605.23,177.12L605.23,173.12" style="fill:none;stroke:#000000;stroke-width:1.5" />
<path d="M692.4,181.12L692.4,173.12" style="fill:none;stroke:#000000;stroke-width:1.5" />
<path d="M779.57,177.12L779.57,173.12" style="fill:none;stroke:#000000;stroke-width:1.5" />
<path d="M866.74,181.12L866.74,173.12" style="fill:none;stroke:#000000;stroke-width:1.5" />
<path d="M953.91,177.12L953.91,173.12" style="fill:none;stroke:#000000;stroke-width:1.5" />
<path d="M1041.1,181.12L1041.1,173.12" style="fill:none;stroke:#000000;stroke-width:1.5" />
<path d="M169.38,173.12L1041.1,173.12" style="fill:none;stroke:#000000;stroke-width:1.5" />
<g transform="rotate(90)">
<text x="272.11" y="45.391" transform="scale(1, -1)"
	style="font-family:Helvetica;font-weight:normal;font-style:normal;font-size:56px">Spectral Density (nV)</text>
</g>
<text x="114.43" y="-187.29" transform="scale(1, -1)"
	style="font-family:Helvetica;font-weight:normal;font-style:normal;font-size:56px">0</text>
<text x="114.43" y="-325.62" transform="scale(1, -1)"
	style="font-family:Helvetica;font-weight:normal;font-style:normal;font-size:56px">1</text>
<text x="114.43" y="-463.95" transform="scale(1, -1)"
	style="font-family:Helvetica;font-weight:normal;font-style:normal;font-size:56px">2</text>
<text x="114.43" y="-602.28" transform="scale(1, -1)"
	style="font-family:Helvetica;font-weight:normal;font-style:normal;font-size:56px">3</text>
<text x="114.43" y="-740.61" transform="scale(1, -1)"
	style="font-family:Helvetica;font-weight:normal;font-style:normal;font-size:56px">4</text>
<text x="114.43" y="-878.93" transform="scale(1, -1)"
	style="font-family:Helvetica;font-weight:normal;font-style:normal;font-size:56px">5</text>
<path d="M177.13,201.4L169.13,201.4" style="fill:none;stroke:#000000;stroke-width:1.5" />
<path d="M177.13,339.73L169.13,339.73" style="fill:none;stroke:#000000;stroke-width:1.5" />
<path d="M177.13,478.06L169.13,478.06" style="fill:none;stroke:#000000;stroke-width:1.5" />
<path d="M177.13,616.39L169.13,616.39" style="fill:none;stroke:#000000;stroke-width:1.5" />
<path d="M177.13,754.71L169.13,754.71" style="fill:none;stroke:#000000;stroke-width:1.5" />
<path d="M177.13,893.04L169.13,893.04" style="fill:none;stroke:#000000;stroke-width:1.5" />
<path d="M169.13,180.24L169.13,893.04" style="fill:none;stroke:#000000;stroke-width:1.5" />
<path d="M181.1,205.07A3,3 0 1 1 175.1,205.07A3,3 0 1 1 181.1,205.07Z" style="fill:#1FD3AC" />
<path d="M198.53,204.71A3,3 0 1 1 192.53,204.71A3,3 0 1 1 198.53,204.71Z" style="fill:#1FD3AC" />
<path d="M215.97,186.12A3,3 0 1 1 209.97,186.12A3,3 0 1 1 215.97,186.12Z" style="fill:#1FD3AC" />
<path d="M233.4,187.25A3,3 0 1 1 227.4,187.25A3,3 0 1 1 233.4,187.25Z" style="fill:#1FD3AC" />
<path d="M250.84,180.98A3,3 0 1 1 244.84,180.98A3,3 0 1 1 250.84,180.98Z" style="fill:#1FD3AC" />
<path d="M268.27,202.17A3,3 0 1 1 262.27,202.17A3,3 0 1 1 268.27,202.17Z" style="fill:#1FD3AC" />
<path d="M285.7,215.97A3,3 0 1 1 279.7,215.97A3,3 0 1 1 285.7,215.97Z" style="fill:#1FD3AC" />
<path d="M303.14,225.51A3,3 0 1 1 297.14,225.51A3,3 0 1 1 303.14,225.51Z" style="fill:#1FD3AC" />
<path d="M320.57,212.65A3,3 0 1 1 314.57,212.65A3,3 0 1 1 320.57,212.65Z" style="fill:#1FD3AC" />
<path d="M338,228.63A3,3 0 1 1 332,228.63A3,3 0 1 1 338,228.63Z" style="fill:#1FD3AC" />
<path d="M355.44,228.65A3,3 0 1 1 349.44,228.65A3,3 0 1 1 355.44,228.65Z" style="fill:#1FD3AC" />
<path d="M372.87,221.98A3,3 0 1 1 366.87,221.98A3,3 0 1 1 372.87,221.98Z" style="fill:#1FD3AC" />
<path d="M390.31,210.77A3,3 0 1 1 384.31,210.77A3,3 0 1 1 390.31,210.77Z" style="fill:#1FD3AC" />
<path d="M407.74,229A3,3 0 1 1 401.74,229A3,3 0 1 1 407.74,229Z" style="fill:#1FD3AC" />
<path d="M425.17,213.42A3,3 0 1 1 419.17,213.42A3,3 0 1 1 425.17,213.42Z" style="fill:#1FD3AC" />
<path d="M442.61,218.51A3,3 0 1 1 436.61,218.51A3,3 0 1 1 442.61,218.51Z" style="fill:#1FD3AC" />
<path d="M460.04,232.41A3,3 0 1 1 454.04,232.41A3,3 0 1 1 460.04,232.41Z" style="fill:#1FD3AC" />
<path d="M477.48,224.75A3,3 0 1 1 471.48,224.75A3,3 0 1 1 477.48,224.75Z" style="fill:#1FD3AC" />
<path d="M494.91,248.07A3,3 0 1 1 488.91,248.07A3,3 0 1 1 494.91,248.07Z" style="fill:#1FD3AC" />
<path d="M512.34,243.31A3,3 0 1 1 506.34,243.31A3,3 0 1 1 512.34,243.31Z" style="fill:#1FD3AC" />
<path d="M529.78,257.02A3,3 0 1 1 523.78,257.02A3,3 0 1 1 529.78,257.02Z" style="fill:#1FD3AC" />
<path d="M547.21,320.66A3,3 0 1 1 541.21,320.66A3,3 0 1 1 547.21,320.66Z" style="fill:#1FD3AC" />
<path d="M564.64,320.11A3,3 0 1 1 558.64,320.11A3,3 0 1 1 564.64,320.11Z" style="fill:#1FD3AC" />
<path d="M582.08,379.4A3,3 0 1 1 576.08,379.4A3,3 0 1 1 582.08,379.4Z" style="fill:#1FD3AC" />
<path d="M599.51,397.47A3,3 0 1 1 593.51,397.47A3,3 0 1 1 599.51,397.47Z" style="fill:#1FD3AC" />
<path d="M616.95,472.92A3,3 0 1 1 610.95,472.92A3,3 0 1 1 616.95,472.92Z" style="fill:#1FD3AC" />
<path d="M634.38,507.83A3,3 0 1 1 628.38,507.83A3,3 0 1 1 634.38,507.83Z" style="fill:#1FD3AC" />
<path d="M651.81,511.96A3,3 0 1 1 645.81,511.96A3,3 0 1 1 651.81,511.96Z" style="fill:#1FD3AC" />
<path d="M669.25,520.92A3,3 0 1 1 663.25,520.92A3,3 0 1 1 669.25,520.92Z" style="fill:#1FD3AC" />
<path d="M686.68,482.12A3,3 0 1 1 680.68,482.12A3,3 0 1 1 686.68,482.12Z" style="fill:#1FD3AC" />
<path d="M704.12,443.29A3,3 0 1 1 698.12,443.29A3,3 0 1 1 704.12,443.29Z" style="fill:#1FD3AC" />
<path d="M721.55,422.71A3,3 0 1 1 715.55,422.71A3,3 0 1 1 721.55,422.71Z" style="fill:#1FD3AC" />
<path d="M738.98,393.36A3,3 0 1 1 732.98,393.36A3,3 0 1 1 738.98,393.36Z" style="fill:#1FD3AC" />
<path d="M756.42,363.31A3,3 0 1 1 750.42,363.31A3,3 0 1 1 756.42,363.31Z" style="fill:#1FD3AC" />
<path d="M773.85,348.3A3,3 0 1 1 767.85,348.3A3,3 0 1 1 773.85,348.3Z" style="fill:#1FD3AC" />
<path d="M791.29,311.8A3,3 0 1 1 785.29,311.8A3,3 0 1 1 791.29,311.8Z" style="fill:#1FD3AC" />
<path d="M808.72,304.85A3,3 0 1 1 802.72,304.85A3,3 0 1 1 808.72,304.85Z" style="fill:#1FD3AC" />
<path d="M826.15,288.59A3,3 0 1 1 820.15,288.59A3,3 0 1 1 826.15,288.59Z" style="fill:#1FD3AC" />
<path d="M843.59,264.69A3,3 0 1 1 837.59,264.69A3,3 0 1 1 843.59,264.69Z" style="fill:#1FD3AC" />
<path d="M861.02,273.71A3,3 0 1 1 855.02,273.71A3,3 0 1 1 861.02,273.71Z" style="fill:#1FD3AC" />
<path d="M878.45,250.62A3,3 0 1 1 872.45,250.62A3,3 0 1 1 878.45,250.62Z" style="fill:#1FD3AC" />
<path d="M895.89,248.89A3,3 0 1 1 889.89,248.89A3,3 0 1 1 895.89,248.89Z" style="fill:#1FD3AC" />
<path d="M913.32,270.31A3,3 0 1 1 907.32,270.31A3,3 0 1 1 913.32,270.31Z" style="fill:#1FD3AC" />
<path d="M930.76,259.81A3,3 0 1 1 924.76,259.81A3,3 0 1 1 930.76,259.81Z" style="fill:#1FD3AC" />
<path d="M948.19,245.63A3,3 0 1 1 942.19,245.63A3,3 0 1 1 948.19,245.63Z" style="fill:#1FD3AC" />
<path d="M965.62,253.96A3,3 0 1 1 959.62,253.96A3,3 0 1 1 965.62,253.96Z" style="fill:#1FD3AC" />
<path d="M983.06,243.59A3,3 0 1 1 977.06,243.59A3,3 0 1 1 983.06,243.59Z" style="fill:#1FD3AC" />
<path d="M1000.5,241.65A3,3 0 1 1 994.49,241.65A3,3 0 1 1 1000.5,241.65Z" style="fill:#1FD3AC" />
<path d="M1017.9,227.23A3,3 0 1 1 1011.9,227.23A3,3 0 1 1 1017.9,227.23Z" style="fill:#1FD3AC" />
<path d="M1035.4,231.6A3,3 0 1 1 1029.4,231.6A3,3 0 1 1 1035.4,231.6Z" style="fill:#1FD3AC" />
<path d="M178.1,211.3L179.84,211.37L181.59,211.44L183.33,211.51L185.07,211.58L186.82,211.65L188.56,211.73L190.3,211.8L192.05,211.88L193.79,211.95L195.53,212.03L197.28,212.1L199.02,212.18L200.76,212.26L202.51,212.34L204.25,212.42L205.99,212.5L207.74,212.58L209.48,212.67L211.22,212.75L212.97,212.84L214.71,212.92L216.45,213.01L218.2,213.1L219.94,213.18L221.68,213.27L223.43,213.36L225.17,213.46L226.91,213.55L228.66,213.64L230.4,213.74L232.14,213.83L233.89,213.93L235.63,214.03L237.37,214.13L239.12,214.23L240.86,214.33L242.61,214.43L244.35,214.54L246.09,214.64L247.84,214.75L249.58,214.86L251.32,214.97L253.07,215.08L254.81,215.19L256.55,215.3L258.3,215.42L260.04,215.53L261.78,215.65L263.53,215.77L265.27,215.89L267.01,216.01L268.76,216.14L270.5,216.26L272.24,216.39L273.99,216.51L275.73,216.64L277.47,216.78L279.22,216.91L280.96,217.04L282.7,217.18L284.45,217.32L286.19,217.46L287.93,217.6L289.68,217.74L291.42,217.89L293.16,218.04L294.91,218.19L296.65,218.34L298.39,218.49L300.14,218.65L301.88,218.8L303.62,218.96L305.37,219.12L307.11,219.29L308.85,219.46L310.6,219.62L312.34,219.79L314.08,219.97L315.83,220.14L317.57,220.32L319.31,220.5L321.06,220.69L322.8,220.87L324.54,221.06L326.29,221.25L328.03,221.44L329.77,221.64L331.52,221.84L333.26,222.04L335,222.25L336.75,222.46L338.49,222.67L340.23,222.88L341.98,223.1L343.72,223.32L345.46,223.54L347.21,223.77L348.95,224L350.7,224.24L352.44,224.48L354.18,224.72L355.93,224.96L357.67,225.21L359.41,225.47L361.16,225.72L362.9,225.98L364.64,226.25L366.39,226.52L368.13,226.79L369.87,227.07L371.62,227.35L373.36,227.64L375.1,227.93L376.85,228.23L378.59,228.53L380.33,228.83L382.08,229.15L383.82,229.46L385.56,229.78L387.31,230.11L389.05,230.44L390.79,230.78L392.54,231.13L394.28,231.47L396.02,231.83L397.77,232.19L399.51,232.56L401.25,232.93L403,233.32L404.74,233.7L406.48,234.1L408.23,234.5L409.97,234.91L411.71,235.32L413.46,235.75L415.2,236.18L416.94,236.62L418.69,237.06L420.43,237.52L422.17,237.98L423.92,238.46L425.66,238.94L427.4,239.43L429.15,239.93L430.89,240.43L432.63,240.95L434.38,241.48L436.12,242.02L437.86,242.57L439.61,243.13L441.35,243.7L443.09,244.28L444.84,244.87L446.58,245.47L448.32,246.09L450.07,246.72L451.81,247.36L453.55,248.02L455.3,248.68L457.04,249.36L458.79,250.06L460.53,250.77L462.27,251.49L464.02,252.23L465.76,252.99L467.5,253.76L469.25,254.54L470.99,255.34L472.73,256.16L474.48,257L476.22,257.86L477.96,258.73L479.71,259.62L481.45,260.54L483.19,261.47L484.94,262.42L486.68,263.4L488.42,264.39L490.17,265.41L491.91,266.45L493.65,267.51L495.4,268.6L497.14,269.71L498.88,270.85L500.63,272.01L502.37,273.2L504.11,274.42L505.86,275.66L507.6,276.94L509.34,278.24L511.09,279.58L512.83,280.94L514.57,282.34L516.32,283.77L518.06,285.23L519.8,286.73L521.55,288.26L523.29,289.83L525.03,291.44L526.78,293.09L528.52,294.77L530.26,296.5L532.01,298.26L533.75,300.07L535.49,301.92L537.24,303.82L538.98,305.76L540.72,307.75L542.47,309.79L544.21,311.87L545.95,314.01L547.7,316.19L549.44,318.43L551.18,320.72L552.93,323.06L554.67,325.46L556.41,327.92L558.16,330.43L559.9,333L561.64,335.63L563.39,338.32L565.13,341.07L566.87,343.88L568.62,346.75L570.36,349.69L572.11,352.69L573.85,355.75L575.59,358.88L577.34,362.07L579.08,365.33L580.82,368.65L582.57,372.03L584.31,375.48L586.05,378.99L587.8,382.56L589.54,386.19L591.28,389.88L593.03,393.63L594.77,397.43L596.51,401.28L598.26,405.19L600,409.14L601.74,413.13L603.49,417.17L605.23,421.23L606.97,425.33L608.72,429.45L610.46,433.59L612.2,437.74L613.95,441.9L615.69,446.05L617.43,450.2L619.18,454.32L620.92,458.42L622.66,462.48L624.41,466.49L626.15,470.45L627.89,474.33L629.64,478.14L631.38,481.86L633.12,485.47L634.87,488.97L636.61,492.34L638.35,495.58L640.1,498.66L641.84,501.58L643.58,504.33L645.33,506.89L647.07,509.26L648.81,511.42L650.56,513.36L652.3,515.09L654.04,516.58L655.79,517.83L657.53,518.83L659.27,519.59L661.02,520.09L662.76,520.34L664.5,520.33L666.25,520.07L667.99,519.55L669.73,518.78L671.48,517.75L673.22,516.49L674.96,514.98L676.71,513.25L678.45,511.29L680.2,509.12L681.94,506.74L683.68,504.16L685.43,501.4L687.17,498.47L688.91,495.38L690.66,492.14L692.4,488.75L694.14,485.25L695.89,481.63L697.63,477.9L699.37,474.09L701.12,470.2L702.86,466.24L704.6,462.22L706.35,458.16L708.09,454.06L709.83,449.94L711.58,445.79L713.32,441.64L715.06,437.48L716.81,433.33L718.55,429.19L720.29,425.07L722.04,420.98L723.78,416.91L725.52,412.88L727.27,408.89L729.01,404.94L730.75,401.04L732.5,397.19L734.24,393.39L735.98,389.65L737.73,385.96L739.47,382.33L741.21,378.77L742.96,375.26L744.7,371.82L746.44,368.44L748.19,365.12L749.93,361.87L751.67,358.68L753.42,355.56L755.16,352.5L756.9,349.5L758.65,346.57L760.39,343.7L762.13,340.89L763.88,338.15L765.62,335.46L767.36,332.84L769.11,330.27L770.85,327.76L772.59,325.31L774.34,322.91L776.08,320.57L777.82,318.29L779.57,316.05L781.31,313.87L783.05,311.74L784.8,309.66L786.54,307.63L788.29,305.64L790.03,303.7L791.77,301.81L793.52,299.96L795.26,298.15L797,296.39L798.75,294.67L800.49,292.98L802.23,291.34L803.98,289.73L805.72,288.17L807.46,286.64L809.21,285.14L810.95,283.68L812.69,282.25L814.44,280.85L816.18,279.49L817.92,278.16L819.67,276.86L821.41,275.59L823.15,274.34L824.9,273.13L826.64,271.94L828.38,270.78L830.13,269.64L831.87,268.53L833.61,267.44L835.36,266.38L837.1,265.34L838.84,264.33L840.59,263.33L842.33,262.36L844.07,261.41L845.82,260.48L847.56,259.57L849.3,258.68L851.05,257.8L852.79,256.95L854.53,256.11L856.28,255.29L858.02,254.49L859.76,253.71L861.51,252.94L863.25,252.18L864.99,251.45L866.74,250.72L868.48,250.01L870.22,249.32L871.97,248.64L873.71,247.97L875.45,247.32L877.2,246.68L878.94,246.05L880.68,245.44L882.43,244.83L884.17,244.24L885.91,243.66L887.66,243.09L889.4,242.53L891.14,241.98L892.89,241.45L894.63,240.92L896.38,240.4L898.12,239.89L899.86,239.4L901.61,238.91L903.35,238.43L905.09,237.95L906.84,237.49L908.58,237.04L910.32,236.59L912.07,236.15L913.81,235.72L915.55,235.3L917.3,234.88L919.04,234.47L920.78,234.07L922.53,233.68L924.27,233.29L926.01,232.91L927.76,232.54L929.5,232.17L931.24,231.81L932.99,231.45L934.73,231.1L936.47,230.76L938.22,230.42L939.96,230.09L941.7,229.76L943.45,229.44L945.19,229.13L946.93,228.82L948.68,228.51L950.42,228.21L952.16,227.91L953.91,227.62L955.65,227.33L957.39,227.05L959.14,226.77L960.88,226.5L962.62,226.23L964.37,225.97L966.11,225.71L967.85,225.45L969.6,225.2L971.34,224.95L973.08,224.7L974.83,224.46L976.57,224.22L978.31,223.99L980.06,223.76L981.8,223.53L983.54,223.31L985.29,223.09L987.03,222.87L988.77,222.65L990.52,222.44L992.26,222.24L994,222.03L995.75,221.83L997.49,221.63L999.23,221.43L1001,221.24L1002.7,221.05L1004.5,220.86L1006.2,220.67L1008,220.49L1009.7,220.31L1011.4,220.13L1013.2,219.96L1014.9,219.78L1016.7,219.61L1018.4,219.44L1020.2,219.28L1021.9,219.11L1023.6,218.95L1025.4,218.79L1027.1,218.64L1028.9,218.48L1030.6,218.33" style="fill:none;stroke:#1BAA8B;stroke-width:3" />
<path d="M576.69,360.89L750.47,360.89" style="fill:none;stroke:#1BAA8B;stroke-width:4;stroke-dasharray:15,5" />
<path d="M181.1,201.79A3,3 0 1 1 175.1,201.79A3,3 0 1 1 181.1,201.79Z" style="fill:#FF7AB4" />
<path d="M198.53,203.37A3,3 0 1 1 192.53,203.37A3,3 0 1 1 198.53,203.37Z" style="fill:#FF7AB4" />
<path d="M215.97,185.91A3,3 0 1 1 209.97,185.91A3,3 0 1 1 215.97,185.91Z" style="fill:#FF7AB4" />
<path d="M233.4,197.27A3,3 0 1 1 227.4,197.27A3,3 0 1 1 233.4,197.27Z" style="fill:#FF7AB4" />
<path d="M250.84,190.71A3,3 0 1 1 244.84,190.71A3,3 0 1 1 250.84,190.71Z" style="fill:#FF7AB4" />
<path d="M268.27,189.83A3,3 0 1 1 262.27,189.83A3,3 0 1 1 268.27,189.83Z" style="fill:#FF7AB4" />
<path d="M285.7,211.47A3,3 0 1 1 279.7,211.47A3,3 0 1 1 285.7,211.47Z" style="fill:#FF7AB4" />
<path d="M303.14,222.67A3,3 0 1 1 297.14,222.67A3,3 0 1 1 303.14,222.67Z" style="fill:#FF7AB4" />
<path d="M320.57,227.93A3,3 0 1 1 314.57,227.93A3,3 0 1 1 320.57,227.93Z" style="fill:#FF7AB4" />
<path d="M338,240.65A3,3 0 1 1 332,240.65A3,3 0 1 1 338,240.65Z" style="fill:#FF7AB4" />
<path d="M355.44,223.26A3,3 0 1 1 349.44,223.26A3,3 0 1 1 355.44,223.26Z" style="fill:#FF7AB4" />
<path d="M372.87,253.26A3,3 0 1 1 366.87,253.26A3,3 0 1 1 372.87,253.26Z" style="fill:#FF7AB4" />
<path d="M390.31,254.62A3,3 0 1 1 384.31,254.62A3,3 0 1 1 390.31,254.62Z" style="fill:#FF7AB4" />
<path d="M407.74,226.69A3,3 0 1 1 401.74,226.69A3,3 0 1 1 407.74,226.69Z" style="fill:#FF7AB4" />
<path d="M425.17,261.9A3,3 0 1 1 419.17,261.9A3,3 0 1 1 425.17,261.9Z" style="fill:#FF7AB4" />
<path d="M442.61,251.74A3,3 0 1 1 436.61,251.74A3,3 0 1 1 442.61,251.74Z" style="fill:#FF7AB4" />
<path d="M460.04,285.8A3,3 0 1 1 454.04,285.8A3,3 0 1 1 460.04,285.8Z" style="fill:#FF7AB4" />
<path d="M477.48,292.24A3,3 0 1 1 471.48,292.24A3,3 0 1 1 477.48,292.24Z" style="fill:#FF7AB4" />
<path d="M494.91,305.42A3,3 0 1 1 488.91,305.42A3,3 0 1 1 494.91,305.42Z" style="fill:#FF7AB4" />
<path d="M512.34,328.81A3,3 0 1 1 506.34,328.81A3,3 0 1 1 512.34,328.81Z" style="fill:#FF7AB4" />
<path d="M529.78,382.46A3,3 0 1 1 523.78,382.46A3,3 0 1 1 529.78,382.46Z" style="fill:#FF7AB4" />
<path d="M547.21,430.08A3,3 0 1 1 541.21,430.08A3,3 0 1 1 547.21,430.08Z" style="fill:#FF7AB4" />
<path d="M564.64,496.04A3,3 0 1 1 558.64,496.04A3,3 0 1 1 564.64,496.04Z" style="fill:#FF7AB4" />
<path d="M582.08,529.62A3,3 0 1 1 576.08,529.62A3,3 0 1 1 582.08,529.62Z" style="fill:#FF7AB4" />
<path d="M599.51,614.43A3,3 0 1 1 593.51,614.43A3,3 0 1 1 599.51,614.43Z" style="fill:#FF7AB4" />
<path d="M616.95,742.31A3,3 0 1 1 610.95,742.31A3,3 0 1 1 616.95,742.31Z" style="fill:#FF7AB4" />
<path d="M634.38,785.57A3,3 0 1 1 628.38,785.57A3,3 0 1 1 634.38,785.57Z" style="fill:#FF7AB4" />
<path d="M651.81,789.93A3,3 0 1 1 645.81,789.93A3,3 0 1 1 651.81,789.93Z" style="fill:#FF7AB4" />
<path d="M669.25,775.94A3,3 0 1 1 663.25,775.94A3,3 0 1 1 669.25,775.94Z" style="fill:#FF7AB4" />
<path d="M686.68,721.73A3,3 0 1 1 680.68,721.73A3,3 0 1 1 686.68,721.73Z" style="fill:#FF7AB4" />
<path d="M704.12,657.54A3,3 0 1 1 698.12,657.54A3,3 0 1 1 704.12,657.54Z" style="fill:#FF7AB4" />
<path d="M721.55,587.98A3,3 0 1 1 715.55,587.98A3,3 0 1 1 721.55,587.98Z" style="fill:#FF7AB4" />
<path d="M738.98,534.3A3,3 0 1 1 732.98,534.3A3,3 0 1 1 738.98,534.3Z" style="fill:#FF7AB4" />
<path d="M756.42,497.99A3,3 0 1 1 750.42,497.99A3,3 0 1 1 756.42,497.99Z" style="fill:#FF7AB4" />
<path d="M773.85,463.09A3,3 0 1 1 767.85,463.09A3,3 0 1 1 773.85,463.09Z" style="fill:#FF7AB4" />
<path d="M791.29,438.12A3,3 0 1 1 785.29,438.12A3,3 0 1 1 791.29,438.12Z" style="fill:#FF7AB4" />
<path d="M808.72,408.43A3,3 0 1 1 802.72,408.43A3,3 0 1 1 808.72,408.43Z" style="fill:#FF7AB4" />
<path d="M826.15,372.01A3,3 0 1 1 820.15,372.01A3,3 0 1 1 826.15,372.01Z" style="fill:#FF7AB4" />
<path d="M843.59,333.75A3,3 0 1 1 837.59,333.75A3,3 0 1 1 843.59,333.75Z" style="fill:#FF7AB4" />
<path d="M861.02,319.65A3,3 0 1 1 855.02,319.65A3,3 0 1 1 861.02,319.65Z" style="fill:#FF7AB4" />
<path d="M878.45,314.87A3,3 0 1 1 872.45,314.87A3,3 0 1 1 878.45,314.87Z" style="fill:#FF7AB4" />
<path d="M895.89,292.53A3,3 0 1 1 889.89,292.53A3,3 0 1 1 895.89,292.53Z" style="fill:#FF7AB4" />
<path d="M913.32,307.9A3,3 0 1 1 907.32,307.9A3,3 0 1 1 913.32,307.9Z" style="fill:#FF7AB4" />
<path d="M930.76,281.94A3,3 0 1 1 924.76,281.94A3,3 0 1 1 930.76,281.94Z" style="fill:#FF7AB4" />
<path d="M948.19,279.95A3,3 0 1 1 942.19,279.95A3,3 0 1 1 948.19,279.95Z" style="fill:#FF7AB4" />
<path d="M965.62,287.02A3,3 0 1 1 959.62,287.02A3,3 0 1 1 965.62,287.02Z" style="fill:#FF7AB4" />
<path d="M983.06,277.07A3,3 0 1 1 977.06,277.07A3,3 0 1 1 983.06,277.07Z" style="fill:#FF7AB4" />
<path d="M1000.5,276.17A3,3 0 1 1 994.49,276.17A3,3 0 1 1 1000.5,276.17Z" style="fill:#FF7AB4" />
<path d="M1017.9,265.57A3,3 0 1 1 1011.9,265.57A3,3 0 1 1 1017.9,265.57Z" style="fill:#FF7AB4" />
<path d="M1035.4,250.82A3,3 0 1 1 1029.4,250.82A3,3 0 1 1 1035.4,250.82Z" style="fill:#FF7AB4" />
<path d="M178.1,222.49L179.84,222.63L181.59,222.78L183.33,222.94L185.07,223.09L186.82,223.24L188.56,223.4L190.3,223.56L192.05,223.72L193.79,223.88L195.53,224.04L197.28,224.21L199.02,224.38L200.76,224.55L202.51,224.72L204.25,224.89L205.99,225.06L207.74,225.24L209.48,225.42L211.22,225.6L212.97,225.78L214.71,225.96L216.45,226.15L218.2,226.34L219.94,226.53L221.68,226.72L223.43,226.92L225.17,227.11L226.91,227.31L228.66,227.52L230.4,227.72L232.14,227.93L233.89,228.13L235.63,228.35L237.37,228.56L239.12,228.78L240.86,228.99L242.61,229.22L244.35,229.44L246.09,229.67L247.84,229.9L249.58,230.13L251.32,230.36L253.07,230.6L254.81,230.84L256.55,231.09L258.3,231.33L260.04,231.58L261.78,231.83L263.53,232.09L265.27,232.35L267.01,232.61L268.76,232.88L270.5,233.15L272.24,233.42L273.99,233.69L275.73,233.97L277.47,234.26L279.22,234.54L280.96,234.83L282.7,235.13L284.45,235.42L286.19,235.73L287.93,236.03L289.68,236.34L291.42,236.65L293.16,236.97L294.91,237.29L296.65,237.62L298.39,237.95L300.14,238.29L301.88,238.63L303.62,238.97L305.37,239.32L307.11,239.67L308.85,240.03L310.6,240.39L312.34,240.76L314.08,241.14L315.83,241.51L317.57,241.9L319.31,242.29L321.06,242.68L322.8,243.08L324.54,243.49L326.29,243.9L328.03,244.32L329.77,244.74L331.52,245.17L333.26,245.61L335,246.05L336.75,246.5L338.49,246.96L340.23,247.42L341.98,247.89L343.72,248.37L345.46,248.85L347.21,249.34L348.95,249.84L350.7,250.35L352.44,250.86L354.18,251.38L355.93,251.91L357.67,252.45L359.41,253L361.16,253.55L362.9,254.12L364.64,254.69L366.39,255.27L368.13,255.86L369.87,256.46L371.62,257.07L373.36,257.69L375.1,258.32L376.85,258.96L378.59,259.61L380.33,260.27L382.08,260.95L383.82,261.63L385.56,262.32L387.31,263.03L389.05,263.75L390.79,264.48L392.54,265.22L394.28,265.98L396.02,266.74L397.77,267.53L399.51,268.32L401.25,269.13L403,269.95L404.74,270.79L406.48,271.64L408.23,272.51L409.97,273.39L411.71,274.29L413.46,275.2L415.2,276.13L416.94,277.08L418.69,278.05L420.43,279.03L422.17,280.03L423.92,281.05L425.66,282.09L427.4,283.14L429.15,284.22L430.89,285.32L432.63,286.43L434.38,287.57L436.12,288.73L437.86,289.92L439.61,291.12L441.35,292.35L443.09,293.61L444.84,294.88L446.58,296.19L448.32,297.51L450.07,298.87L451.81,300.25L453.55,301.66L455.3,303.1L457.04,304.56L458.79,306.06L460.53,307.58L462.27,309.14L464.02,310.73L465.76,312.35L467.5,314.01L469.25,315.7L470.99,317.42L472.73,319.18L474.48,320.98L476.22,322.82L477.96,324.69L479.71,326.61L481.45,328.56L483.19,330.56L484.94,332.6L486.68,334.68L488.42,336.81L490.17,338.99L491.91,341.21L493.65,343.48L495.4,345.8L497.14,348.18L498.88,350.6L500.63,353.08L502.37,355.61L504.11,358.2L505.86,360.85L507.6,363.56L509.34,366.33L511.09,369.16L512.83,372.05L514.57,375.01L516.32,378.03L518.06,381.12L519.8,384.29L521.55,387.52L523.29,390.83L525.03,394.21L526.78,397.67L528.52,401.21L530.26,404.82L532.01,408.52L533.75,412.3L535.49,416.17L537.24,420.12L538.98,424.16L540.72,428.29L542.47,432.51L544.21,436.83L545.95,441.24L547.7,445.74L549.44,450.35L551.18,455.05L552.93,459.85L554.67,464.75L556.41,469.76L558.16,474.87L559.9,480.09L561.64,485.41L563.39,490.83L565.13,496.36L566.87,502L568.62,507.75L570.36,513.6L572.11,519.55L573.85,525.62L575.59,531.78L577.34,538.05L579.08,544.41L580.82,550.87L582.57,557.43L584.31,564.08L586.05,570.82L587.8,577.64L589.54,584.55L591.28,591.52L593.03,598.57L594.77,605.67L596.51,612.83L598.26,620.03L600,627.28L601.74,634.55L603.49,641.84L605.23,649.13L606.97,656.42L608.72,663.7L610.46,670.94L612.2,678.14L613.95,685.28L615.69,692.35L617.43,699.32L619.18,706.19L620.92,712.94L622.66,719.54L624.41,725.98L626.15,732.24L627.89,738.31L629.64,744.16L631.38,749.78L633.12,755.14L634.87,760.23L636.61,765.03L638.35,769.52L640.1,773.69L641.84,777.52L643.58,780.99L645.33,784.1L647.07,786.82L648.81,789.16L650.56,791.09L652.3,792.61L654.04,793.71L655.79,794.39L657.53,794.65L659.27,794.48L661.02,793.89L662.76,792.88L664.5,791.45L666.25,789.61L667.99,787.36L669.73,784.72L671.48,781.69L673.22,778.3L674.96,774.54L676.71,770.45L678.45,766.02L680.2,761.29L681.94,756.26L683.68,750.95L685.43,745.39L687.17,739.59L688.91,733.57L690.66,727.35L692.4,720.94L694.14,714.37L695.89,707.66L697.63,700.81L699.37,693.86L701.12,686.81L702.86,679.68L704.6,672.5L706.35,665.26L708.09,657.99L709.83,650.7L711.58,643.41L713.32,636.12L715.06,628.84L716.81,621.59L718.55,614.38L720.29,607.21L722.04,600.09L723.78,593.03L725.52,586.04L727.27,579.12L729.01,572.28L730.75,565.53L732.5,558.86L734.24,552.28L735.98,545.79L737.73,539.41L739.47,533.12L741.21,526.93L742.96,520.85L744.7,514.87L746.44,509L748.19,503.23L749.93,497.57L751.67,492.01L753.42,486.57L755.16,481.22L756.9,475.99L758.65,470.85L760.39,465.82L762.13,460.9L763.88,456.07L765.62,451.35L767.36,446.73L769.11,442.2L770.85,437.77L772.59,433.43L774.34,429.19L776.08,425.04L777.82,420.98L779.57,417.01L781.31,413.13L783.05,409.33L784.8,405.61L786.54,401.98L788.29,398.42L790.03,394.95L791.77,391.55L793.52,388.23L795.26,384.98L797,381.8L798.75,378.69L800.49,375.65L802.23,372.68L803.98,369.77L805.72,366.93L807.46,364.15L809.21,361.43L810.95,358.77L812.69,356.17L814.44,353.62L816.18,351.13L817.92,348.69L819.67,346.31L821.41,343.98L823.15,341.7L824.9,339.46L826.64,337.28L828.38,335.14L830.13,333.04L831.87,330.99L833.61,328.99L835.36,327.02L837.1,325.1L838.84,323.22L840.59,321.37L842.33,319.57L844.07,317.8L845.82,316.06L847.56,314.37L849.3,312.71L851.05,311.08L852.79,309.48L854.53,307.92L856.28,306.38L858.02,304.88L859.76,303.41L861.51,301.97L863.25,300.55L864.99,299.16L866.74,297.8L868.48,296.47L870.22,295.16L871.97,293.88L873.71,292.62L875.45,291.39L877.2,290.18L878.94,288.99L880.68,287.82L882.43,286.68L884.17,285.56L885.91,284.45L887.66,283.37L889.4,282.31L891.14,281.27L892.89,280.25L894.63,279.24L896.38,278.26L898.12,277.29L899.86,276.34L901.61,275.4L903.35,274.48L905.09,273.58L906.84,272.7L908.58,271.83L910.32,270.97L912.07,270.13L913.81,269.3L915.55,268.49L917.3,267.7L919.04,266.91L920.78,266.14L922.53,265.38L924.27,264.64L926.01,263.9L927.76,263.18L929.5,262.47L931.24,261.78L932.99,261.09L934.73,260.42L936.47,259.75L938.22,259.1L939.96,258.46L941.7,257.83L943.45,257.21L945.19,256.59L946.93,255.99L948.68,255.4L950.42,254.81L952.16,254.24L953.91,253.67L955.65,253.12L957.39,252.57L959.14,252.03L960.88,251.5L962.62,250.97L964.37,250.46L966.11,249.95L967.85,249.45L969.6,248.96L971.34,248.47L973.08,247.99L974.83,247.52L976.57,247.06L978.31,246.6L980.06,246.15L981.8,245.71L983.54,245.27L985.29,244.84L987.03,244.41L988.77,243.99L990.52,243.58L992.26,243.17L994,242.77L995.75,242.37L997.49,241.98L999.23,241.6L1001,241.22L1002.7,240.84L1004.5,240.47L1006.2,240.11L1008,239.75L1009.7,239.39L1011.4,239.04L1013.2,238.7L1014.9,238.36L1016.7,238.02L1018.4,237.69L1020.2,237.36L1021.9,237.04L1023.6,236.72L1025.4,236.41L1027.1,236.1L1028.9,235.79L1030.6,235.49" style="fill:none;stroke:#C96892;stroke-width:3" />
<path d="M565.65,498.03L749.79,498.03" style="fill:none;stroke:#C96892;stroke-width:4;stroke-dasharray:15,5" />
<path d="M181.1,180.24A3,3 0 1 1 175.1,180.24A3,3 0 1 1 181.1,180.24Z" style="fill:#7A9CFF" />
<path d="M198.53,197.97A3,3 0 1 1 192.53,197.97A3,3 0 1 1 198.53,197.97Z" style="fill:#7A9CFF" />
<path d="M215.97,198.08A3,3 0 1 1 209.97,198.08A3,3 0 1 1 215.97,198.08Z" style="fill:#7A9CFF" />
<path d="M233.4,207.36A3,3 0 1 1 227.4,207.36A3,3 0 1 1 233.4,207.36Z" style="fill:#7A9CFF" />
<path d="M250.84,191.31A3,3 0 1 1 244.84,191.31A3,3 0 1 1 250.84,191.31Z" style="fill:#7A9CFF" />
<path d="M268.27,215A3,3 0 1 1 262.27,215A3,3 0 1 1 268.27,215Z" style="fill:#7A9CFF" />
<path d="M285.7,209.28A3,3 0 1 1 279.7,209.28A3,3 0 1 1 285.7,209.28Z" style="fill:#7A9CFF" />
<path d="M303.14,216.28A3,3 0 1 1 297.14,216.28A3,3 0 1 1 303.14,216.28Z" style="fill:#7A9CFF" />
<path d="M320.57,211.93A3,3 0 1 1 314.57,211.93A3,3 0 1 1 320.57,211.93Z" style="fill:#7A9CFF" />
<path d="M338,227.94A3,3 0 1 1 332,227.94A3,3 0 1 1 338,227.94Z" style="fill:#7A9CFF" />
<path d="M355.44,198.6A3,3 0 1 1 349.44,198.6A3,3 0 1 1 355.44,198.6Z" style="fill:#7A9CFF" />
<path d="M372.87,220.33A3,3 0 1 1 366.87,220.33A3,3 0 1 1 372.87,220.33Z" style="fill:#7A9CFF" />
<path d="M390.31,215.84A3,3 0 1 1 384.31,215.84A3,3 0 1 1 390.31,215.84Z" style="fill:#7A9CFF" />
<path d="M407.74,217.69A3,3 0 1 1 401.74,217.69A3,3 0 1 1 407.74,217.69Z" style="fill:#7A9CFF" />
<path d="M425.17,237.14A3,3 0 1 1 419.17,237.14A3,3 0 1 1 425.17,237.14Z" style="fill:#7A9CFF" />
<path d="M442.61,225.1A3,3 0 1 1 436.61,225.1A3,3 0 1 1 442.61,225.1Z" style="fill:#7A9CFF" />
<path d="M460.04,277.09A3,3 0 1 1 454.04,277.09A3,3 0 1 1 460.04,277.09Z" style="fill:#7A9CFF" />
<path d="M477.48,266.29A3,3 0 1 1 471.48,266.29A3,3 0 1 1 477.48,266.29Z" style="fill:#7A9CFF" />
<path d="M494.91,304.33A3,3 0 1 1 488.91,304.33A3,3 0 1 1 494.91,304.33Z" style="fill:#7A9CFF" />
<path d="M512.34,278.63A3,3 0 1 1 506.34,278.63A3,3 0 1 1 512.34,278.63Z" style="fill:#7A9CFF" />
<path d="M529.78,316.79A3,3 0 1 1 523.78,316.79A3,3 0 1 1 529.78,316.79Z" style="fill:#7A9CFF" />
<path d="M547.21,360.84A3,3 0 1 1 541.21,360.84A3,3 0 1 1 547.21,360.84Z" style="fill:#7A9CFF" />
<path d="M564.64,367.86A3,3 0 1 1 558.64,367.86A3,3 0 1 1 564.64,367.86Z" style="fill:#7A9CFF" />
<path d="M582.08,409.58A3,3 0 1 1 576.08,409.58A3,3 0 1 1 582.08,409.58Z" style="fill:#7A9CFF" />
<path d="M599.51,409.55A3,3 0 1 1 593.51,409.55A3,3 0 1 1 599.51,409.55Z" style="fill:#7A9CFF" />
<path d="M616.95,474.42A3,3 0 1 1 610.95,474.42A3,3 0 1 1 616.95,474.42Z" style="fill:#7A9CFF" />
<path d="M634.38,511.02A3,3 0 1 1 628.38,511.02A3,3 0 1 1 634.38,511.02Z" style="fill:#7A9CFF" />
<path d="M651.81,487.72A3,3 0 1 1 645.81,487.72A3,3 0 1 1 651.81,487.72Z" style="fill:#7A9CFF" />
<path d="M669.25,480.96A3,3 0 1 1 663.25,480.96A3,3 0 1 1 669.25,480.96Z" style="fill:#7A9CFF" />
<path d="M686.68,475.11A3,3 0 1 1 680.68,475.11A3,3 0 1 1 686.68,475.11Z" style="fill:#7A9CFF" />
<path d="M704.12,437.69A3,3 0 1 1 698.12,437.69A3,3 0 1 1 704.12,437.69Z" style="fill:#7A9CFF" />
<path d="M721.55,428.26A3,3 0 1 1 715.55,428.26A3,3 0 1 1 721.55,428.26Z" style="fill:#7A9CFF" />
<path d="M738.98,381.92A3,3 0 1 1 732.98,381.92A3,3 0 1 1 738.98,381.92Z" style="fill:#7A9CFF" />
<path d="M756.42,373.41A3,3 0 1 1 750.42,373.41A3,3 0 1 1 756.42,373.41Z" style="fill:#7A9CFF" />
<path d="M773.85,371.73A3,3 0 1 1 767.85,371.73A3,3 0 1 1 773.85,371.73Z" style="fill:#7A9CFF" />
<path d="M791.29,344.03A3,3 0 1 1 785.29,344.03A3,3 0 1 1 791.29,344.03Z" style="fill:#7A9CFF" />
<path d="M808.72,336.52A3,3 0 1 1 802.72,336.52A3,3 0 1 1 808.72,336.52Z" style="fill:#7A9CFF" />
<path d="M826.15,322.66A3,3 0 1 1 820.15,322.66A3,3 0 1 1 826.15,322.66Z" style="fill:#7A9CFF" />
<path d="M843.59,306.47A3,3 0 1 1 837.59,306.47A3,3 0 1 1 843.59,306.47Z" style="fill:#7A9CFF" />
<path d="M861.02,286.04A3,3 0 1 1 855.02,286.04A3,3 0 1 1 861.02,286.04Z" style="fill:#7A9CFF" />
<path d="M878.45,271.78A3,3 0 1 1 872.45,271.78A3,3 0 1 1 878.45,271.78Z" style="fill:#7A9CFF" />
<path d="M895.89,251.34A3,3 0 1 1 889.89,251.34A3,3 0 1 1 895.89,251.34Z" style="fill:#7A9CFF" />
<path d="M913.32,274.91A3,3 0 1 1 907.32,274.91A3,3 0 1 1 913.32,274.91Z" style="fill:#7A9CFF" />
<path d="M930.76,232.13A3,3 0 1 1 924.76,232.13A3,3 0 1 1 930.76,232.13Z" style="fill:#7A9CFF" />
<path d="M948.19,238.6A3,3 0 1 1 942.19,238.6A3,3 0 1 1 948.19,238.6Z" style="fill:#7A9CFF" />
<path d="M965.62,250.43A3,3 0 1 1 959.62,250.43A3,3 0 1 1 965.62,250.43Z" style="fill:#7A9CFF" />
<path d="M983.06,253.67A3,3 0 1 1 977.06,253.67A3,3 0 1 1 983.06,253.67Z" style="fill:#7A9CFF" />
<path d="M1000.5,252.08A3,3 0 1 1 994.49,252.08A3,3 0 1 1 1000.5,252.08Z" style="fill:#7A9CFF" />
<path d="M1017.9,233.79A3,3 0 1 1 1011.9,233.79A3,3 0 1 1 1017.9,233.79Z" style="fill:#7A9CFF" />
<path d="M1035.4,240.55A3,3 0 1 1 1029.4,240.55A3,3 0 1 1 1035.4,240.55Z" style="fill:#7A9CFF" />
<path d="M178.1,216.36L179.84,216.47L181.59,216.57L183.33,216.68L185.07,216.78L186.82,216.89L188.56,217L190.3,217.11L192.05,217.22L193.79,217.33L195.53,217.44L197.28,217.56L199.02,217.67L200.76,217.79L202.51,217.91L204.25,218.03L205.99,218.15L207.74,218.27L209.48,218.39L211.22,218.51L212.97,218.64L214.71,218.77L216.45,218.89L218.2,219.02L219.94,219.16L221.68,219.29L223.43,219.42L225.17,219.56L226.91,219.69L228.66,219.83L230.4,219.97L232.14,220.11L233.89,220.26L235.63,220.4L237.37,220.55L239.12,220.7L240.86,220.85L242.61,221L244.35,221.15L246.09,221.31L247.84,221.46L249.58,221.62L251.32,221.78L253.07,221.94L254.81,222.11L256.55,222.28L258.3,222.44L260.04,222.61L261.78,222.79L263.53,222.96L265.27,223.14L267.01,223.31L268.76,223.49L270.5,223.68L272.24,223.86L273.99,224.05L275.73,224.24L277.47,224.43L279.22,224.62L280.96,224.82L282.7,225.02L284.45,225.22L286.19,225.42L287.93,225.63L289.68,225.84L291.42,226.05L293.16,226.27L294.91,226.48L296.65,226.7L298.39,226.92L300.14,227.15L301.88,227.38L303.62,227.61L305.37,227.84L307.11,228.08L308.85,228.32L310.6,228.57L312.34,228.81L314.08,229.06L315.83,229.32L317.57,229.57L319.31,229.83L321.06,230.1L322.8,230.36L324.54,230.63L326.29,230.91L328.03,231.19L329.77,231.47L331.52,231.76L333.26,232.04L335,232.34L336.75,232.64L338.49,232.94L340.23,233.25L341.98,233.56L343.72,233.87L345.46,234.19L347.21,234.51L348.95,234.84L350.7,235.18L352.44,235.51L354.18,235.86L355.93,236.2L357.67,236.56L359.41,236.92L361.16,237.28L362.9,237.65L364.64,238.02L366.39,238.4L368.13,238.79L369.87,239.18L371.62,239.58L373.36,239.98L375.1,240.39L376.85,240.8L378.59,241.22L380.33,241.65L382.08,242.09L383.82,242.53L385.56,242.98L387.31,243.43L389.05,243.89L390.79,244.36L392.54,244.84L394.28,245.32L396.02,245.82L397.77,246.32L399.51,246.82L401.25,247.34L403,247.86L404.74,248.4L406.48,248.94L408.23,249.49L409.97,250.04L411.71,250.61L413.46,251.19L415.2,251.78L416.94,252.37L418.69,252.98L420.43,253.6L422.17,254.22L423.92,254.86L425.66,255.51L427.4,256.17L429.15,256.84L430.89,257.52L432.63,258.21L434.38,258.92L436.12,259.64L437.86,260.37L439.61,261.11L441.35,261.86L443.09,262.63L444.84,263.41L446.58,264.21L448.32,265.02L450.07,265.84L451.81,266.68L453.55,267.53L455.3,268.4L457.04,269.28L458.79,270.18L460.53,271.1L462.27,272.03L464.02,272.98L465.76,273.95L467.5,274.93L469.25,275.93L470.99,276.95L472.73,277.99L474.48,279.05L476.22,280.13L477.96,281.22L479.71,282.34L481.45,283.48L483.19,284.63L484.94,285.81L486.68,287.02L488.42,288.24L490.17,289.49L491.91,290.75L493.65,292.05L495.4,293.36L497.14,294.71L498.88,296.07L500.63,297.46L502.37,298.88L504.11,300.33L505.86,301.8L507.6,303.29L509.34,304.82L511.09,306.37L512.83,307.96L514.57,309.57L516.32,311.21L518.06,312.88L519.8,314.58L521.55,316.31L523.29,318.08L525.03,319.87L526.78,321.7L528.52,323.56L530.26,325.45L532.01,327.38L533.75,329.34L535.49,331.34L537.24,333.36L538.98,335.43L540.72,337.53L542.47,339.66L544.21,341.83L545.95,344.04L547.7,346.28L549.44,348.55L551.18,350.86L552.93,353.21L554.67,355.6L556.41,358.01L558.16,360.47L559.9,362.96L561.64,365.48L563.39,368.04L565.13,370.63L566.87,373.26L568.62,375.91L570.36,378.6L572.11,381.32L573.85,384.07L575.59,386.85L577.34,389.65L579.08,392.48L580.82,395.34L582.57,398.22L584.31,401.11L586.05,404.03L587.8,406.97L589.54,409.91L591.28,412.87L593.03,415.84L594.77,418.82L596.51,421.8L598.26,424.78L600,427.75L601.74,430.72L603.49,433.68L605.23,436.63L606.97,439.56L608.72,442.46L610.46,445.34L612.2,448.19L613.95,451L615.69,453.77L617.43,456.5L619.18,459.18L620.92,461.8L622.66,464.36L624.41,466.85L626.15,469.28L627.89,471.62L629.64,473.89L631.38,476.07L633.12,478.16L634.87,480.15L636.61,482.05L638.35,483.83L640.1,485.51L641.84,487.07L643.58,488.51L645.33,489.83L647.07,491.02L648.81,492.08L650.56,493.01L652.3,493.8L654.04,494.46L655.79,494.98L657.53,495.35L659.27,495.59L661.02,495.68L662.76,495.63L664.5,495.43L666.25,495.09L667.99,494.62L669.73,494L671.48,493.24L673.22,492.35L674.96,491.32L676.71,490.17L678.45,488.88L680.2,487.47L681.94,485.95L683.68,484.3L685.43,482.55L687.17,480.68L688.91,478.72L690.66,476.66L692.4,474.5L694.14,472.26L695.89,469.93L697.63,467.53L699.37,465.05L701.12,462.51L702.86,459.9L704.6,457.24L706.35,454.53L708.09,451.77L709.83,448.97L711.58,446.13L713.32,443.26L715.06,440.36L716.81,437.44L718.55,434.49L720.29,431.54L722.04,428.57L723.78,425.6L725.52,422.62L727.27,419.64L729.01,416.66L730.75,413.69L732.5,410.73L734.24,407.77L735.98,404.84L737.73,401.91L739.47,399.01L741.21,396.13L742.96,393.27L744.7,390.43L746.44,387.62L748.19,384.83L749.93,382.07L751.67,379.35L753.42,376.65L755.16,373.98L756.9,371.35L758.65,368.75L760.39,366.18L762.13,363.65L763.88,361.15L765.62,358.68L767.36,356.26L769.11,353.86L770.85,351.51L772.59,349.18L774.34,346.9L776.08,344.65L777.82,342.43L779.57,340.25L781.31,338.11L783.05,336L784.8,333.93L786.54,331.89L788.29,329.89L790.03,327.92L791.77,325.98L793.52,324.08L795.26,322.21L797,320.37L798.75,318.57L800.49,316.79L802.23,315.05L803.98,313.34L805.72,311.66L807.46,310.01L809.21,308.39L810.95,306.8L812.69,305.24L814.44,303.71L816.18,302.2L817.92,300.73L819.67,299.28L821.41,297.85L823.15,296.45L824.9,295.08L826.64,293.73L828.38,292.41L830.13,291.11L831.87,289.83L833.61,288.58L835.36,287.35L837.1,286.14L838.84,284.96L840.59,283.79L842.33,282.65L844.07,281.53L845.82,280.42L847.56,279.34L849.3,278.28L851.05,277.24L852.79,276.21L854.53,275.2L856.28,274.22L858.02,273.25L859.76,272.29L861.51,271.35L863.25,270.43L864.99,269.53L866.74,268.64L868.48,267.77L870.22,266.91L871.97,266.07L873.71,265.24L875.45,264.43L877.2,263.63L878.94,262.84L880.68,262.07L882.43,261.31L884.17,260.57L885.91,259.83L887.66,259.11L889.4,258.41L891.14,257.71L892.89,257.02L894.63,256.35L896.38,255.69L898.12,255.04L899.86,254.4L901.61,253.77L903.35,253.15L905.09,252.54L906.84,251.94L908.58,251.35L910.32,250.77L912.07,250.2L913.81,249.64L915.55,249.09L917.3,248.54L919.04,248.01L920.78,247.48L922.53,246.96L924.27,246.45L926.01,245.95L927.76,245.46L929.5,244.97L931.24,244.49L932.99,244.02L934.73,243.56L936.47,243.1L938.22,242.65L939.96,242.21L941.7,241.77L943.45,241.34L945.19,240.92L946.93,240.5L948.68,240.09L950.42,239.69L952.16,239.29L953.91,238.89L955.65,238.51L957.39,238.13L959.14,237.75L960.88,237.38L962.62,237.02L964.37,236.66L966.11,236.3L967.85,235.95L969.6,235.61L971.34,235.27L973.08,234.93L974.83,234.6L976.57,234.28L978.31,233.96L980.06,233.64L981.8,233.33L983.54,233.02L985.29,232.72L987.03,232.42L988.77,232.13L990.52,231.83L992.26,231.55L994,231.26L995.75,230.98L997.49,230.71L999.23,230.44L1001,230.17L1002.7,229.9L1004.5,229.64L1006.2,229.39L1008,229.13L1009.7,228.88L1011.4,228.63L1013.2,228.39L1014.9,228.15L1016.7,227.91L1018.4,227.67L1020.2,227.44L1021.9,227.21L1023.6,226.99L1025.4,226.76L1027.1,226.54L1028.9,226.32L1030.6,226.11" style="fill:none;stroke:#637CC6;stroke-width:3" />
<path d="M549.43,348.54L773.08,348.54" style="fill:none;stroke:#637CC6;stroke-width:4;stroke-dasharray:15,5" />
<text x="830.71" y="-898" transform="scale(1, -1)"
	style="font-family:Helvetica;font-weight:normal;font-style:normal;font-size:56px">Power</text>
<path d="M1036,852.33A6,6 0 1 1 1024,852.33A6,6 0 1 1 1036,852.33Z" style="fill:#1BAA8B" />
<text x="958.3" y="-839.14" transform="scale(1, -1)"
	style="font-family:Helvetica;font-weight:normal;font-style:normal;font-size:56px">0</text>
<path d="M1036,793.47A6,6 0 1 1 1024,793.47A6,6 0 1 1 1036,793.47Z" style="fill:#C96892" />
<text x="927.15" y="-780.27" transform="scale(1, -1)"
	style="font-family:Helvetica;font-weight:normal;font-style:normal;font-size:56px">80</text>
<path d="M1036,734.6A6,6 0 1 1 1024,734.6A6,6 0 1 1 1036,734.6Z" style="fill:#637CC6" />
<text x="896.01" y="-721.41" transform="scale(1, -1)"
	style="font-family:Helvetica;font-weight:normal;font-style:normal;font-size:56px">170</text>
</g>
</svg>
