<?xml version="1.0"?>
<!-- Generated by SVGo and Plotinum VG -->
<svg width="1080pt" height="1080pt" viewBox="0 0 1080 1080"
	xmlns="http://www.w3.org/2000/svg"
	xmlns:xlink="http://www.w3.org/1999/xlink">
<g transform="scale(1, -1) translate(0, -1080)">
<path d="M0,0L1080,0L1080,1080L0,1080Z" style="fill:#-8000000000000000-8000000000000000-8000000000000000;fill-opacity:0" />
<text x="312.12" y="-1039.5" transform="scale(1, -1)"
	style="font-family:Helvetica;font-weight:normal;font-style:normal;font-size:50px">Linewidths vs Power</text>
<text x="495.95" y="-11.039" transform="scale(1, -1)"
	style="font-family:Helvetica;font-weight:normal;font-style:normal;font-size:36px">Power (mW)</text>
<text x="348.91" y="-71.258" transform="scale(1, -1)"
	style="font-family:Helvetica;font-weight:normal;font-style:normal;font-size:36px">50</text>
<text x="565.91" y="-71.258" transform="scale(1, -1)"
	style="font-family:Helvetica;font-weight:normal;font-style:normal;font-size:36px">100</text>
<text x="792.92" y="-71.258" transform="scale(1, -1)"
	style="font-family:Helvetica;font-weight:normal;font-style:normal;font-size:36px">150</text>
<text x="1019.9" y="-71.258" transform="scale(1, -1)"
	style="font-family:Helvetica;font-weight:normal;font-style:normal;font-size:36px">200</text>
<path d="M141.91,112.44L141.91,108.44" style="fill:none;stroke:#000000;stroke-width:1.5" />
<path d="M255.42,112.44L255.42,108.44" style="fill:none;stroke:#000000;stroke-width:1.5" />
<path d="M368.93,116.44L368.93,108.44" style="fill:none;stroke:#000000;stroke-width:1.5" />
<path d="M482.43,112.44L482.43,108.44" style="fill:none;stroke:#000000;stroke-width:1.5" />
<path d="M595.94,116.44L595.94,108.44" style="fill:none;stroke:#000000;stroke-width:1.5" />
<path d="M709.45,112.44L709.45,108.44" style="fill:none;stroke:#000000;stroke-width:1.5" />
<path d="M822.95,116.44L822.95,108.44" style="fill:none;stroke:#000000;stroke-width:1.5" />
<path d="M936.46,112.44L936.46,108.44" style="fill:none;stroke:#000000;stroke-width:1.5" />
<path d="M1050,116.44L1050,108.44" style="fill:none;stroke:#000000;stroke-width:1.5" />
<path d="M141.91,108.44L1050,108.44" style="fill:none;stroke:#000000;stroke-width:1.5" />
<g transform="rotate(90)">
<text x="354.18" y="29.18" transform="scale(1, -1)"
	style="font-family:Helvetica;font-weight:normal;font-style:normal;font-size:36px">Dissipation Rate (MHz)</text>
</g>
<text x="87.869" y="-343.77" transform="scale(1, -1)"
	style="font-family:Helvetica;font-weight:normal;font-style:normal;font-size:36px">80</text>
<text x="67.848" y="-592.29" transform="scale(1, -1)"
	style="font-family:Helvetica;font-weight:normal;font-style:normal;font-size:36px">120</text>
<text x="67.848" y="-840.81" transform="scale(1, -1)"
	style="font-family:Helvetica;font-weight:normal;font-style:normal;font-size:36px">160</text>
<path d="M149.91,104.32L145.91,104.32" style="fill:none;stroke:#000000;stroke-width:1.5" />
<path d="M149.91,228.58L145.91,228.58" style="fill:none;stroke:#000000;stroke-width:1.5" />
<path d="M153.91,352.84L145.91,352.84" style="fill:none;stroke:#000000;stroke-width:1.5" />
<path d="M149.91,477.1L145.91,477.1" style="fill:none;stroke:#000000;stroke-width:1.5" />
<path d="M153.91,601.36L145.91,601.36" style="fill:none;stroke:#000000;stroke-width:1.5" />
<path d="M149.91,725.62L145.91,725.62" style="fill:none;stroke:#000000;stroke-width:1.5" />
<path d="M153.91,849.88L145.91,849.88" style="fill:none;stroke:#000000;stroke-width:1.5" />
<path d="M149.91,974.14L145.91,974.14" style="fill:none;stroke:#000000;stroke-width:1.5" />
<path d="M145.91,104.32L145.91,974.14" style="fill:none;stroke:#000000;stroke-width:1.5" />
<path d="M1000,688.52L950.08,678.37L895.6,667.29L841.12,656.21L791.17,646.05L750.31,637.74L700.37,627.58L623.18,611.88L568.7,600.8L523.3,591.57L473.35,581.41L418.87,570.33L337.15,553.71L287.2,543.56L250.88,536.17L205.48,526.94" style="fill:none;stroke:#637CC6;stroke-width:3" />
<path d="M1000,287.48L950.08,298.68L895.6,310.89L841.12,323.11L791.17,334.3L750.31,343.46L700.37,354.66L623.18,371.96L568.7,384.18L523.3,394.36L473.35,405.55L418.87,417.77L337.15,436.09L287.2,447.28L250.88,455.43L205.48,465.6" style="fill:none;stroke:#C96892;stroke-width:3" />
<path d="M1006,591.85A6,6 0 1 1 994.02,591.85A6,6 0 1 1 1006,591.85Z" style="fill:#637CC6" />
<path d="M956.08,542.69A6,6 0 1 1 944.08,542.69A6,6 0 1 1 956.08,542.69Z" style="fill:#637CC6" />
<path d="M901.6,680.45A6,6 0 1 1 889.6,680.45A6,6 0 1 1 901.6,680.45Z" style="fill:#637CC6" />
<path d="M847.12,674.11A6,6 0 1 1 835.12,674.11A6,6 0 1 1 847.12,674.11Z" style="fill:#637CC6" />
<path d="M797.17,672.91A6,6 0 1 1 785.17,672.91A6,6 0 1 1 797.17,672.91Z" style="fill:#637CC6" />
<path d="M756.31,687.71A6,6 0 1 1 744.31,687.71A6,6 0 1 1 756.31,687.71Z" style="fill:#637CC6" />
<path d="M706.37,675.6A6,6 0 1 1 694.37,675.6A6,6 0 1 1 706.37,675.6Z" style="fill:#637CC6" />
<path d="M629.18,644.26A6,6 0 1 1 617.18,644.26A6,6 0 1 1 629.18,644.26Z" style="fill:#637CC6" />
<path d="M574.7,653.28A6,6 0 1 1 562.7,653.28A6,6 0 1 1 574.7,653.28Z" style="fill:#637CC6" />
<path d="M529.3,631.79A6,6 0 1 1 517.3,631.79A6,6 0 1 1 529.3,631.79Z" style="fill:#637CC6" />
<path d="M479.35,651.91A6,6 0 1 1 467.35,651.91A6,6 0 1 1 479.35,651.91Z" style="fill:#637CC6" />
<path d="M424.87,669.74A6,6 0 1 1 412.87,669.74A6,6 0 1 1 424.87,669.74Z" style="fill:#637CC6" />
<path d="M343.15,703.12A6,6 0 1 1 331.15,703.12A6,6 0 1 1 343.15,703.12Z" style="fill:#637CC6" />
<path d="M293.2,384.19A6,6 0 1 1 281.2,384.19A6,6 0 1 1 293.2,384.19Z" style="fill:#637CC6" />
<path d="M256.88,504.04A6,6 0 1 1 244.88,504.04A6,6 0 1 1 256.88,504.04Z" style="fill:#637CC6" />
<path d="M211.48,350.49A6,6 0 1 1 199.48,350.49A6,6 0 1 1 211.48,350.49Z" style="fill:#637CC6" />
<path d="M1006,293.63A6,6 0 1 1 994.02,293.63A6,6 0 1 1 1006,293.63Z" style="fill:#C96892" />
<path d="M956.08,301.32A6,6 0 1 1 944.08,301.32A6,6 0 1 1 956.08,301.32Z" style="fill:#C96892" />
<path d="M901.6,278.68A6,6 0 1 1 889.6,278.68A6,6 0 1 1 901.6,278.68Z" style="fill:#C96892" />
<path d="M847.12,339.82A6,6 0 1 1 835.12,339.82A6,6 0 1 1 847.12,339.82Z" style="fill:#C96892" />
<path d="M797.17,335.59A6,6 0 1 1 785.17,335.59A6,6 0 1 1 797.17,335.59Z" style="fill:#C96892" />
<path d="M756.31,345.71A6,6 0 1 1 744.31,345.71A6,6 0 1 1 756.31,345.71Z" style="fill:#C96892" />
<path d="M706.37,355.56A6,6 0 1 1 694.37,355.56A6,6 0 1 1 706.37,355.56Z" style="fill:#C96892" />
<path d="M629.18,366.89A6,6 0 1 1 617.18,366.89A6,6 0 1 1 629.18,366.89Z" style="fill:#C96892" />
<path d="M574.7,386.99A6,6 0 1 1 562.7,386.99A6,6 0 1 1 574.7,386.99Z" style="fill:#C96892" />
<path d="M529.3,397.79A6,6 0 1 1 517.3,397.79A6,6 0 1 1 529.3,397.79Z" style="fill:#C96892" />
<path d="M479.35,398.95A6,6 0 1 1 467.35,398.95A6,6 0 1 1 479.35,398.95Z" style="fill:#C96892" />
<path d="M424.87,424.86A6,6 0 1 1 412.87,424.86A6,6 0 1 1 424.87,424.86Z" style="fill:#C96892" />
<path d="M343.15,501.52A6,6 0 1 1 331.15,501.52A6,6 0 1 1 343.15,501.52Z" style="fill:#C96892" />
<path d="M293.2,360.18A6,6 0 1 1 281.2,360.18A6,6 0 1 1 293.2,360.18Z" style="fill:#C96892" />
<path d="M256.88,479.62A6,6 0 1 1 244.88,479.62A6,6 0 1 1 256.88,479.62Z" style="fill:#C96892" />
<path d="M211.48,463.69A6,6 0 1 1 199.48,463.69A6,6 0 1 1 211.48,463.69Z" style="fill:#C96892" />
<path d="M980,867.02L1030,867.02" style="fill:none;stroke:#637CC6;stroke-width:3" />
<text x="785.92" y="-858.54" transform="scale(1, -1)"
	style="font-family:Helvetica;font-weight:normal;font-style:normal;font-size:36px">Anti-Stokes</text>
<path d="M980,825.61L1030,825.61" style="fill:none;stroke:#C96892;stroke-width:3" />
<text x="859.94" y="-817.13" transform="scale(1, -1)"
	style="font-family:Helvetica;font-weight:normal;font-style:normal;font-size:36px">Stokes</text>
</g>
</svg>
