<?xml version="1.0"?>
<!-- Generated by SVGo and Plotinum VG -->
<svg width="1296pt" height="1080pt" viewBox="0 0 1296 1080"
	xmlns="http://www.w3.org/2000/svg"
	xmlns:xlink="http://www.w3.org/1999/xlink">
<g transform="scale(1, -1) translate(0, -1080)">
<path d="M0,0L1296,0L1296,1080L0,1080Z" style="fill-opacity:0" />
<text x="358.95" y="-1047.6" transform="scale(1, -1)"
	style="font-family:Liberation Sans;font-variant:normal;font-weight:normal;font-style:normal;font-size:40px">CoBS Measurement: 1 μm TeO2</text>
<text x="509.63" y="-10.732" transform="scale(1, -1)"
	style="font-family:Liberation Sans;font-variant:normal;font-weight:normal;font-style:normal;font-size:35px">Frequency (Ω/2π) (GHz)</text>
<text x="223" y="-63.857" transform="scale(1, -1)"
	style="font-family:Liberation Serif;font-variant:normal;font-weight:normal;font-style:normal;font-size:30px">11.97</text>
<text x="400.96" y="-63.857" transform="scale(1, -1)"
	style="font-family:Liberation Serif;font-variant:normal;font-weight:normal;font-style:normal;font-size:30px">12.05</text>
<text x="579.47" y="-63.857" transform="scale(1, -1)"
	style="font-family:Liberation Serif;font-variant:normal;font-weight:normal;font-style:normal;font-size:30px">12.12</text>
<text x="757.98" y="-63.857" transform="scale(1, -1)"
	style="font-family:Liberation Serif;font-variant:normal;font-weight:normal;font-style:normal;font-size:30px">12.20</text>
<text x="936.5" y="-63.857" transform="scale(1, -1)"
	style="font-family:Liberation Serif;font-variant:normal;font-weight:normal;font-style:normal;font-size:30px">12.27</text>
<text x="1115" y="-63.857" transform="scale(1, -1)"
	style="font-family:Liberation Serif;font-variant:normal;font-weight:normal;font-style:normal;font-size:30px">12.35</text>
<path d="M112.2,87.324L1288,87.324" style="fill:none;stroke:#000000;stroke-width:2.5" />
<g transform="rotate(90)">
<text x="353.1" y="28.369" transform="scale(1, -1)"
	style="font-family:Liberation Sans;font-variant:normal;font-weight:normal;font-style:normal;font-size:35px">Spectral Density (relative)</text>
</g>
<text x="61.519" y="-157.87" transform="scale(1, -1)"
	style="font-family:Liberation Sans;font-variant:normal;font-weight:normal;font-style:normal;font-size:30px">0.0</text>
<text x="61.519" y="-313.08" transform="scale(1, -1)"
	style="font-family:Liberation Sans;font-variant:normal;font-weight:normal;font-style:normal;font-size:30px">0.2</text>
<text x="61.519" y="-468.28" transform="scale(1, -1)"
	style="font-family:Liberation Sans;font-variant:normal;font-weight:normal;font-style:normal;font-size:30px">0.4</text>
<text x="61.519" y="-623.49" transform="scale(1, -1)"
	style="font-family:Liberation Sans;font-variant:normal;font-weight:normal;font-style:normal;font-size:30px">0.6</text>
<text x="61.519" y="-778.69" transform="scale(1, -1)"
	style="font-family:Liberation Sans;font-variant:normal;font-weight:normal;font-style:normal;font-size:30px">0.8</text>
<text x="61.519" y="-933.9" transform="scale(1, -1)"
	style="font-family:Liberation Sans;font-variant:normal;font-weight:normal;font-style:normal;font-size:30px">1.0</text>
<path d="M111.56,87.824L111.56,1019.1" style="fill:none;stroke:#000000;stroke-width:2.5" />
<path d="M113.39,87.824L113.39,92.824" style="fill:none;stroke:#000000;stroke-width:2.5" />
<path d="M149.09,87.824L149.09,92.824" style="fill:none;stroke:#000000;stroke-width:2.5" />
<path d="M184.79,87.824L184.79,92.824" style="fill:none;stroke:#000000;stroke-width:2.5" />
<path d="M220.49,87.824L220.49,92.824" style="fill:none;stroke:#000000;stroke-width:2.5" />
<path d="M256.2,87.824L256.2,97.824" style="fill:none;stroke:#000000;stroke-width:2.5" />
<text x="233.87" y="-53.424" transform="scale(1, -1)"
	style="font-family:Liberation Sans;font-variant:normal;font-weight:normal;font-style:normal;font-size:30px">11.97</text>
<path d="M291.9,87.824L291.9,92.824" style="fill:none;stroke:#000000;stroke-width:2.5" />
<path d="M327.6,87.824L327.6,92.824" style="fill:none;stroke:#000000;stroke-width:2.5" />
<path d="M363.3,87.824L363.3,92.824" style="fill:none;stroke:#000000;stroke-width:2.5" />
<path d="M399.01,87.824L399.01,92.824" style="fill:none;stroke:#000000;stroke-width:2.5" />
<path d="M434.71,87.824L434.71,97.824" style="fill:none;stroke:#000000;stroke-width:2.5" />
<text x="413.5" y="-53.424" transform="scale(1, -1)"
	style="font-family:Liberation Sans;font-variant:normal;font-weight:normal;font-style:normal;font-size:30px">12.05</text>
<path d="M470.41,87.824L470.41,92.824" style="fill:none;stroke:#000000;stroke-width:2.5" />
<path d="M506.11,87.824L506.11,92.824" style="fill:none;stroke:#000000;stroke-width:2.5" />
<path d="M541.82,87.824L541.82,92.824" style="fill:none;stroke:#000000;stroke-width:2.5" />
<path d="M577.52,87.824L577.52,92.824" style="fill:none;stroke:#000000;stroke-width:2.5" />
<path d="M613.22,87.824L613.22,97.824" style="fill:none;stroke:#000000;stroke-width:2.5" />
<text x="592.01" y="-53.424" transform="scale(1, -1)"
	style="font-family:Liberation Sans;font-variant:normal;font-weight:normal;font-style:normal;font-size:30px">12.12</text>
<path d="M648.92,87.824L648.92,92.824" style="fill:none;stroke:#000000;stroke-width:2.5" />
<path d="M684.63,87.824L684.63,92.824" style="fill:none;stroke:#000000;stroke-width:2.5" />
<path d="M720.33,87.824L720.33,92.824" style="fill:none;stroke:#000000;stroke-width:2.5" />
<path d="M756.03,87.824L756.03,92.824" style="fill:none;stroke:#000000;stroke-width:2.5" />
<path d="M791.73,87.824L791.73,97.824" style="fill:none;stroke:#000000;stroke-width:2.5" />
<text x="770.52" y="-53.424" transform="scale(1, -1)"
	style="font-family:Liberation Sans;font-variant:normal;font-weight:normal;font-style:normal;font-size:30px">12.20</text>
<path d="M827.44,87.824L827.44,92.824" style="fill:none;stroke:#000000;stroke-width:2.5" />
<path d="M863.14,87.824L863.14,92.824" style="fill:none;stroke:#000000;stroke-width:2.5" />
<path d="M898.84,87.824L898.84,92.824" style="fill:none;stroke:#000000;stroke-width:2.5" />
<path d="M934.54,87.824L934.54,92.824" style="fill:none;stroke:#000000;stroke-width:2.5" />
<path d="M970.25,87.824L970.25,97.824" style="fill:none;stroke:#000000;stroke-width:2.5" />
<text x="949.03" y="-53.424" transform="scale(1, -1)"
	style="font-family:Liberation Sans;font-variant:normal;font-weight:normal;font-style:normal;font-size:30px">12.27</text>
<path d="M1006,87.824L1006,92.824" style="fill:none;stroke:#000000;stroke-width:2.5" />
<path d="M1041.7,87.824L1041.7,92.824" style="fill:none;stroke:#000000;stroke-width:2.5" />
<path d="M1077.4,87.824L1077.4,92.824" style="fill:none;stroke:#000000;stroke-width:2.5" />
<path d="M1113.1,87.824L1113.1,92.824" style="fill:none;stroke:#000000;stroke-width:2.5" />
<path d="M1148.8,87.824L1148.8,97.824" style="fill:none;stroke:#000000;stroke-width:2.5" />
<text x="1127.5" y="-53.424" transform="scale(1, -1)"
	style="font-family:Liberation Sans;font-variant:normal;font-weight:normal;font-style:normal;font-size:30px">12.35</text>
<path d="M1184.5,87.824L1184.5,92.824" style="fill:none;stroke:#000000;stroke-width:2.5" />
<path d="M1220.2,87.824L1220.2,92.824" style="fill:none;stroke:#000000;stroke-width:2.5" />
<path d="M1255.9,87.824L1255.9,92.824" style="fill:none;stroke:#000000;stroke-width:2.5" />
<path d="M112.2,165.43L122.2,165.43" style="fill:none;stroke:#000000;stroke-width:2.5" />
<text x="52.049" y="-157.03" transform="scale(1, -1)"
	style="font-family:Liberation Sans;font-variant:normal;font-weight:normal;font-style:normal;font-size:30px">0.0</text>
<path d="M112.2,191.3L117.2,191.3" style="fill:none;stroke:#000000;stroke-width:2.5" />
<path d="M112.2,217.16L117.2,217.16" style="fill:none;stroke:#000000;stroke-width:2.5" />
<path d="M112.2,243.03L117.2,243.03" style="fill:none;stroke:#000000;stroke-width:2.5" />
<path d="M112.2,268.9L117.2,268.9" style="fill:none;stroke:#000000;stroke-width:2.5" />
<path d="M112.2,294.77L117.2,294.77" style="fill:none;stroke:#000000;stroke-width:2.5" />
<path d="M112.2,320.63L122.2,320.63" style="fill:none;stroke:#000000;stroke-width:2.5" />
<text x="52.049" y="-312.23" transform="scale(1, -1)"
	style="font-family:Liberation Sans;font-variant:normal;font-weight:normal;font-style:normal;font-size:30px">0.2</text>
<path d="M112.2,346.5L117.2,346.5" style="fill:none;stroke:#000000;stroke-width:2.5" />
<path d="M112.2,372.37L117.2,372.37" style="fill:none;stroke:#000000;stroke-width:2.5" />
<path d="M112.2,398.24L117.2,398.24" style="fill:none;stroke:#000000;stroke-width:2.5" />
<path d="M112.2,424.1L117.2,424.1" style="fill:none;stroke:#000000;stroke-width:2.5" />
<path d="M112.2,449.97L117.2,449.97" style="fill:none;stroke:#000000;stroke-width:2.5" />
<path d="M112.2,475.84L122.2,475.84" style="fill:none;stroke:#000000;stroke-width:2.5" />
<text x="52.049" y="-467.44" transform="scale(1, -1)"
	style="font-family:Liberation Sans;font-variant:normal;font-weight:normal;font-style:normal;font-size:30px">0.4</text>
<path d="M112.2,501.71L117.2,501.71" style="fill:none;stroke:#000000;stroke-width:2.5" />
<path d="M112.2,527.58L117.2,527.58" style="fill:none;stroke:#000000;stroke-width:2.5" />
<path d="M112.2,553.44L117.2,553.44" style="fill:none;stroke:#000000;stroke-width:2.5" />
<path d="M112.2,579.31L117.2,579.31" style="fill:none;stroke:#000000;stroke-width:2.5" />
<path d="M112.2,605.18L117.2,605.18" style="fill:none;stroke:#000000;stroke-width:2.5" />
<path d="M112.2,631.05L122.2,631.05" style="fill:none;stroke:#000000;stroke-width:2.5" />
<text x="52.049" y="-622.65" transform="scale(1, -1)"
	style="font-family:Liberation Sans;font-variant:normal;font-weight:normal;font-style:normal;font-size:30px">0.6</text>
<path d="M112.2,656.91L117.2,656.91" style="fill:none;stroke:#000000;stroke-width:2.5" />
<path d="M112.2,682.78L117.2,682.78" style="fill:none;stroke:#000000;stroke-width:2.5" />
<path d="M112.2,708.65L117.2,708.65" style="fill:none;stroke:#000000;stroke-width:2.5" />
<path d="M112.2,734.52L117.2,734.52" style="fill:none;stroke:#000000;stroke-width:2.5" />
<path d="M112.2,760.39L117.2,760.39" style="fill:none;stroke:#000000;stroke-width:2.5" />
<path d="M112.2,786.25L122.2,786.25" style="fill:none;stroke:#000000;stroke-width:2.5" />
<text x="52.049" y="-777.85" transform="scale(1, -1)"
	style="font-family:Liberation Sans;font-variant:normal;font-weight:normal;font-style:normal;font-size:30px">0.8</text>
<path d="M112.2,812.12L117.2,812.12" style="fill:none;stroke:#000000;stroke-width:2.5" />
<path d="M112.2,837.99L117.2,837.99" style="fill:none;stroke:#000000;stroke-width:2.5" />
<path d="M112.2,863.86L117.2,863.86" style="fill:none;stroke:#000000;stroke-width:2.5" />
<path d="M112.2,889.72L117.2,889.72" style="fill:none;stroke:#000000;stroke-width:2.5" />
<path d="M112.2,915.59L117.2,915.59" style="fill:none;stroke:#000000;stroke-width:2.5" />
<path d="M112.2,941.46L122.2,941.46" style="fill:none;stroke:#000000;stroke-width:2.5" />
<text x="52.049" y="-933.06" transform="scale(1, -1)"
	style="font-family:Liberation Sans;font-variant:normal;font-weight:normal;font-style:normal;font-size:30px">1.0</text>
<path d="M112.2,298.22L112.2,322.69" style="fill:none;stroke:#1FD3AC" />
<path d="M109.7,298.22L114.7,298.22" style="fill:none;stroke:#1FD3AC" />
<path d="M109.7,322.69L114.7,322.69" style="fill:none;stroke:#1FD3AC" />
<path d="M157.42,272.12L157.42,320.98" style="fill:none;stroke:#1FD3AC" />
<path d="M154.92,272.12L159.92,272.12" style="fill:none;stroke:#1FD3AC" />
<path d="M154.92,320.98L159.92,320.98" style="fill:none;stroke:#1FD3AC" />
<path d="M202.64,323.06L202.64,356.73" style="fill:none;stroke:#1FD3AC" />
<path d="M200.14,323.06L205.14,323.06" style="fill:none;stroke:#1FD3AC" />
<path d="M200.14,356.73L205.14,356.73" style="fill:none;stroke:#1FD3AC" />
<path d="M247.87,346.21L247.87,385.39" style="fill:none;stroke:#1FD3AC" />
<path d="M245.37,346.21L250.37,346.21" style="fill:none;stroke:#1FD3AC" />
<path d="M245.37,385.39L250.37,385.39" style="fill:none;stroke:#1FD3AC" />
<path d="M293.09,300.67L293.09,329.34" style="fill:none;stroke:#1FD3AC" />
<path d="M290.59,300.67L295.59,300.67" style="fill:none;stroke:#1FD3AC" />
<path d="M290.59,329.34L295.59,329.34" style="fill:none;stroke:#1FD3AC" />
<path d="M338.31,337.22L338.31,364.06" style="fill:none;stroke:#1FD3AC" />
<path d="M335.81,337.22L340.81,337.22" style="fill:none;stroke:#1FD3AC" />
<path d="M335.81,364.06L340.81,364.06" style="fill:none;stroke:#1FD3AC" />
<path d="M383.54,348.4L383.54,371.21" style="fill:none;stroke:#1FD3AC" />
<path d="M381.04,348.4L386.04,348.4" style="fill:none;stroke:#1FD3AC" />
<path d="M381.04,371.21L386.04,371.21" style="fill:none;stroke:#1FD3AC" />
<path d="M428.76,364.41L428.76,412.38" style="fill:none;stroke:#1FD3AC" />
<path d="M426.26,364.41L431.26,364.41" style="fill:none;stroke:#1FD3AC" />
<path d="M426.26,412.38L431.26,412.38" style="fill:none;stroke:#1FD3AC" />
<path d="M473.98,366L473.98,394.76" style="fill:none;stroke:#1FD3AC" />
<path d="M471.48,366L476.48,366" style="fill:none;stroke:#1FD3AC" />
<path d="M471.48,394.76L476.48,394.76" style="fill:none;stroke:#1FD3AC" />
<path d="M519.21,355.62L519.21,389.34" style="fill:none;stroke:#1FD3AC" />
<path d="M516.71,355.62L521.71,355.62" style="fill:none;stroke:#1FD3AC" />
<path d="M516.71,389.34L521.71,389.34" style="fill:none;stroke:#1FD3AC" />
<path d="M564.43,340.25L564.43,375.27" style="fill:none;stroke:#1FD3AC" />
<path d="M561.93,340.25L566.93,340.25" style="fill:none;stroke:#1FD3AC" />
<path d="M561.93,375.27L566.93,375.27" style="fill:none;stroke:#1FD3AC" />
<path d="M609.65,347.32L609.65,395.05" style="fill:none;stroke:#1FD3AC" />
<path d="M607.15,347.32L612.15,347.32" style="fill:none;stroke:#1FD3AC" />
<path d="M607.15,395.05L612.15,395.05" style="fill:none;stroke:#1FD3AC" />
<path d="M654.88,527.64L654.88,629.21" style="fill:none;stroke:#1FD3AC" />
<path d="M652.38,527.64L657.38,527.64" style="fill:none;stroke:#1FD3AC" />
<path d="M652.38,629.21L657.38,629.21" style="fill:none;stroke:#1FD3AC" />
<path d="M700.1,513.31L700.1,622.76" style="fill:none;stroke:#1FD3AC" />
<path d="M697.6,513.31L702.6,513.31" style="fill:none;stroke:#1FD3AC" />
<path d="M697.6,622.76L702.6,622.76" style="fill:none;stroke:#1FD3AC" />
<path d="M745.32,490.5L745.32,604.42" style="fill:none;stroke:#1FD3AC" />
<path d="M742.82,490.5L747.82,490.5" style="fill:none;stroke:#1FD3AC" />
<path d="M742.82,604.42L747.82,604.42" style="fill:none;stroke:#1FD3AC" />
<path d="M790.54,426.66L790.54,503.93" style="fill:none;stroke:#1FD3AC" />
<path d="M788.04,426.66L793.04,426.66" style="fill:none;stroke:#1FD3AC" />
<path d="M788.04,503.93L793.04,503.93" style="fill:none;stroke:#1FD3AC" />
<path d="M835.77,304.68L835.77,352.65" style="fill:none;stroke:#1FD3AC" />
<path d="M833.27,304.68L838.27,304.68" style="fill:none;stroke:#1FD3AC" />
<path d="M833.27,352.65L838.27,352.65" style="fill:none;stroke:#1FD3AC" />
<path d="M880.99,220.19L880.99,250.81" style="fill:none;stroke:#1FD3AC" />
<path d="M878.49,220.19L883.49,220.19" style="fill:none;stroke:#1FD3AC" />
<path d="M878.49,250.81L883.49,250.81" style="fill:none;stroke:#1FD3AC" />
<path d="M926.21,185.5L926.21,211.95" style="fill:none;stroke:#1FD3AC" />
<path d="M923.71,185.5L928.71,185.5" style="fill:none;stroke:#1FD3AC" />
<path d="M923.71,211.95L928.71,211.95" style="fill:none;stroke:#1FD3AC" />
<path d="M971.44,180.68L971.44,222.52" style="fill:none;stroke:#1FD3AC" />
<path d="M968.94,180.68L973.94,180.68" style="fill:none;stroke:#1FD3AC" />
<path d="M968.94,222.52L973.94,222.52" style="fill:none;stroke:#1FD3AC" />
<path d="M1016.7,175.51L1016.7,197.33" style="fill:none;stroke:#1FD3AC" />
<path d="M1014.2,175.51L1019.2,175.51" style="fill:none;stroke:#1FD3AC" />
<path d="M1014.2,197.33L1019.2,197.33" style="fill:none;stroke:#1FD3AC" />
<path d="M1061.9,179.34L1061.9,196.86" style="fill:none;stroke:#1FD3AC" />
<path d="M1059.4,179.34L1064.4,179.34" style="fill:none;stroke:#1FD3AC" />
<path d="M1059.4,196.86L1064.4,196.86" style="fill:none;stroke:#1FD3AC" />
<path d="M1107.1,164.03L1107.1,190.25" style="fill:none;stroke:#1FD3AC" />
<path d="M1104.6,164.03L1109.6,164.03" style="fill:none;stroke:#1FD3AC" />
<path d="M1104.6,190.25L1109.6,190.25" style="fill:none;stroke:#1FD3AC" />
<path d="M1152.3,178.45L1152.3,191.83" style="fill:none;stroke:#1FD3AC" />
<path d="M1149.8,178.45L1154.8,178.45" style="fill:none;stroke:#1FD3AC" />
<path d="M1149.8,191.83L1154.8,191.83" style="fill:none;stroke:#1FD3AC" />
<path d="M1197.6,181.98L1197.6,193.76" style="fill:none;stroke:#1FD3AC" />
<path d="M1195.1,181.98L1200.1,181.98" style="fill:none;stroke:#1FD3AC" />
<path d="M1195.1,193.76L1200.1,193.76" style="fill:none;stroke:#1FD3AC" />
<path d="M1242.8,182.16L1242.8,210.25" style="fill:none;stroke:#1FD3AC" />
<path d="M1240.3,182.16L1245.3,182.16" style="fill:none;stroke:#1FD3AC" />
<path d="M1240.3,210.25L1245.3,210.25" style="fill:none;stroke:#1FD3AC" />
<path d="M1288,158.73L1288,229.32" style="fill:none;stroke:#1FD3AC" />
<path d="M1285.5,158.73L1290.5,158.73" style="fill:none;stroke:#1FD3AC" />
<path d="M1285.5,229.32L1290.5,229.32" style="fill:none;stroke:#1FD3AC" />
<path d="M120.2,310.45A8,8 0 1 1 104.2,310.45A8,8 0 1 1 120.2,310.45Z" style="fill:#1FD3AC" />
<path d="M165.42,296.55A8,8 0 1 1 149.42,296.55A8,8 0 1 1 165.42,296.55Z" style="fill:#1FD3AC" />
<path d="M210.64,339.9A8,8 0 1 1 194.64,339.9A8,8 0 1 1 210.64,339.9Z" style="fill:#1FD3AC" />
<path d="M255.87,365.8A8,8 0 1 1 239.87,365.8A8,8 0 1 1 255.87,365.8Z" style="fill:#1FD3AC" />
<path d="M301.09,315.01A8,8 0 1 1 285.09,315.01A8,8 0 1 1 301.09,315.01Z" style="fill:#1FD3AC" />
<path d="M346.31,350.64A8,8 0 1 1 330.31,350.64A8,8 0 1 1 346.31,350.64Z" style="fill:#1FD3AC" />
<path d="M391.54,359.81A8,8 0 1 1 375.54,359.81A8,8 0 1 1 391.54,359.81Z" style="fill:#1FD3AC" />
<path d="M436.76,388.4A8,8 0 1 1 420.76,388.4A8,8 0 1 1 436.76,388.4Z" style="fill:#1FD3AC" />
<path d="M481.98,380.38A8,8 0 1 1 465.98,380.38A8,8 0 1 1 481.98,380.38Z" style="fill:#1FD3AC" />
<path d="M527.21,372.48A8,8 0 1 1 511.21,372.48A8,8 0 1 1 527.21,372.48Z" style="fill:#1FD3AC" />
<path d="M572.43,357.76A8,8 0 1 1 556.43,357.76A8,8 0 1 1 572.43,357.76Z" style="fill:#1FD3AC" />
<path d="M617.65,371.19A8,8 0 1 1 601.65,371.19A8,8 0 1 1 617.65,371.19Z" style="fill:#1FD3AC" />
<path d="M662.88,578.42A8,8 0 1 1 646.88,578.42A8,8 0 1 1 662.88,578.42Z" style="fill:#1FD3AC" />
<path d="M708.1,568.03A8,8 0 1 1 692.1,568.03A8,8 0 1 1 708.1,568.03Z" style="fill:#1FD3AC" />
<path d="M753.32,547.46A8,8 0 1 1 737.32,547.46A8,8 0 1 1 753.32,547.46Z" style="fill:#1FD3AC" />
<path d="M798.54,465.3A8,8 0 1 1 782.54,465.3A8,8 0 1 1 798.54,465.3Z" style="fill:#1FD3AC" />
<path d="M843.77,328.66A8,8 0 1 1 827.77,328.66A8,8 0 1 1 843.77,328.66Z" style="fill:#1FD3AC" />
<path d="M888.99,235.5A8,8 0 1 1 872.99,235.5A8,8 0 1 1 888.99,235.5Z" style="fill:#1FD3AC" />
<path d="M934.21,198.73A8,8 0 1 1 918.21,198.73A8,8 0 1 1 934.21,198.73Z" style="fill:#1FD3AC" />
<path d="M979.44,201.6A8,8 0 1 1 963.44,201.6A8,8 0 1 1 979.44,201.6Z" style="fill:#1FD3AC" />
<path d="M1024.7,186.42A8,8 0 1 1 1008.7,186.42A8,8 0 1 1 1024.7,186.42Z" style="fill:#1FD3AC" />
<path d="M1069.9,188.1A8,8 0 1 1 1053.9,188.1A8,8 0 1 1 1069.9,188.1Z" style="fill:#1FD3AC" />
<path d="M1115.1,177.14A8,8 0 1 1 1099.1,177.14A8,8 0 1 1 1115.1,177.14Z" style="fill:#1FD3AC" />
<path d="M1160.3,185.14A8,8 0 1 1 1144.3,185.14A8,8 0 1 1 1160.3,185.14Z" style="fill:#1FD3AC" />
<path d="M1205.6,187.87A8,8 0 1 1 1189.6,187.87A8,8 0 1 1 1205.6,187.87Z" style="fill:#1FD3AC" />
<path d="M1250.8,196.21A8,8 0 1 1 1234.8,196.21A8,8 0 1 1 1250.8,196.21Z" style="fill:#1FD3AC" />
<path d="M1296,194.03A8,8 0 1 1 1280,194.03A8,8 0 1 1 1296,194.03Z" style="fill:#1FD3AC" />
<path d="M112.2,1019.1L1288,1019.1" style="fill:none;stroke:#000000;stroke-width:2.5" />
<path d="M1288,87.824L1288,1019.1" style="fill:none;stroke:#000000;stroke-width:2.5" />
<path d="M112.2,258.76L112.2,284.84" style="fill:none;stroke:#FF7AB4" />
<path d="M109.7,258.76L114.7,258.76" style="fill:none;stroke:#FF7AB4" />
<path d="M109.7,284.84L114.7,284.84" style="fill:none;stroke:#FF7AB4" />
<path d="M157.42,291.23L157.42,309.9" style="fill:none;stroke:#FF7AB4" />
<path d="M154.92,291.23L159.92,291.23" style="fill:none;stroke:#FF7AB4" />
<path d="M154.92,309.9L159.92,309.9" style="fill:none;stroke:#FF7AB4" />
<path d="M202.64,303.31L202.64,340.36" style="fill:none;stroke:#FF7AB4" />
<path d="M200.14,303.31L205.14,303.31" style="fill:none;stroke:#FF7AB4" />
<path d="M200.14,340.36L205.14,340.36" style="fill:none;stroke:#FF7AB4" />
<path d="M247.87,287.21L247.87,310.28" style="fill:none;stroke:#FF7AB4" />
<path d="M245.37,287.21L250.37,287.21" style="fill:none;stroke:#FF7AB4" />
<path d="M245.37,310.28L250.37,310.28" style="fill:none;stroke:#FF7AB4" />
<path d="M293.09,275.7L293.09,294.99" style="fill:none;stroke:#FF7AB4" />
<path d="M290.59,275.7L295.59,275.7" style="fill:none;stroke:#FF7AB4" />
<path d="M290.59,294.99L295.59,294.99" style="fill:none;stroke:#FF7AB4" />
<path d="M338.31,264.76L338.31,280.39" style="fill:none;stroke:#FF7AB4" />
<path d="M335.81,264.76L340.81,264.76" style="fill:none;stroke:#FF7AB4" />
<path d="M335.81,280.39L340.81,280.39" style="fill:none;stroke:#FF7AB4" />
<path d="M383.54,282.37L383.54,320.64" style="fill:none;stroke:#FF7AB4" />
<path d="M381.04,282.37L386.04,282.37" style="fill:none;stroke:#FF7AB4" />
<path d="M381.04,320.64L386.04,320.64" style="fill:none;stroke:#FF7AB4" />
<path d="M428.76,277.88L428.76,312.26" style="fill:none;stroke:#FF7AB4" />
<path d="M426.26,277.88L431.26,277.88" style="fill:none;stroke:#FF7AB4" />
<path d="M426.26,312.26L431.26,312.26" style="fill:none;stroke:#FF7AB4" />
<path d="M473.98,308.88L473.98,342.53" style="fill:none;stroke:#FF7AB4" />
<path d="M471.48,308.88L476.48,308.88" style="fill:none;stroke:#FF7AB4" />
<path d="M471.48,342.53L476.48,342.53" style="fill:none;stroke:#FF7AB4" />
<path d="M519.21,284.8L519.21,314.83" style="fill:none;stroke:#FF7AB4" />
<path d="M516.71,284.8L521.71,284.8" style="fill:none;stroke:#FF7AB4" />
<path d="M516.71,314.83L521.71,314.83" style="fill:none;stroke:#FF7AB4" />
<path d="M564.43,236.29L564.43,255.94" style="fill:none;stroke:#FF7AB4" />
<path d="M561.93,236.29L566.93,236.29" style="fill:none;stroke:#FF7AB4" />
<path d="M561.93,255.94L566.93,255.94" style="fill:none;stroke:#FF7AB4" />
<path d="M609.65,236.89L609.65,271.13" style="fill:none;stroke:#FF7AB4" />
<path d="M607.15,236.89L612.15,236.89" style="fill:none;stroke:#FF7AB4" />
<path d="M607.15,271.13L612.15,271.13" style="fill:none;stroke:#FF7AB4" />
<path d="M654.88,343.19L654.88,383.86" style="fill:none;stroke:#FF7AB4" />
<path d="M652.38,343.19L657.38,343.19" style="fill:none;stroke:#FF7AB4" />
<path d="M652.38,383.86L657.38,383.86" style="fill:none;stroke:#FF7AB4" />
<path d="M700.1,375.54L700.1,419.94" style="fill:none;stroke:#FF7AB4" />
<path d="M697.6,375.54L702.6,375.54" style="fill:none;stroke:#FF7AB4" />
<path d="M697.6,419.94L702.6,419.94" style="fill:none;stroke:#FF7AB4" />
<path d="M745.32,344.02L745.32,391.39" style="fill:none;stroke:#FF7AB4" />
<path d="M742.82,344.02L747.82,344.02" style="fill:none;stroke:#FF7AB4" />
<path d="M742.82,391.39L747.82,391.39" style="fill:none;stroke:#FF7AB4" />
<path d="M790.54,277.47L790.54,320.34" style="fill:none;stroke:#FF7AB4" />
<path d="M788.04,277.47L793.04,277.47" style="fill:none;stroke:#FF7AB4" />
<path d="M788.04,320.34L793.04,320.34" style="fill:none;stroke:#FF7AB4" />
<path d="M835.77,261.61L835.77,296.92" style="fill:none;stroke:#FF7AB4" />
<path d="M833.27,261.61L838.27,261.61" style="fill:none;stroke:#FF7AB4" />
<path d="M833.27,296.92L838.27,296.92" style="fill:none;stroke:#FF7AB4" />
<path d="M880.99,181.34L880.99,206.92" style="fill:none;stroke:#FF7AB4" />
<path d="M878.49,181.34L883.49,181.34" style="fill:none;stroke:#FF7AB4" />
<path d="M878.49,206.92L883.49,206.92" style="fill:none;stroke:#FF7AB4" />
<path d="M926.21,170.47L926.21,193.84" style="fill:none;stroke:#FF7AB4" />
<path d="M923.71,170.47L928.71,170.47" style="fill:none;stroke:#FF7AB4" />
<path d="M923.71,193.84L928.71,193.84" style="fill:none;stroke:#FF7AB4" />
<path d="M971.44,152.52L971.44,180.27" style="fill:none;stroke:#FF7AB4" />
<path d="M968.94,152.52L973.94,152.52" style="fill:none;stroke:#FF7AB4" />
<path d="M968.94,180.27L973.94,180.27" style="fill:none;stroke:#FF7AB4" />
<path d="M1016.7,161.33L1016.7,181.48" style="fill:none;stroke:#FF7AB4" />
<path d="M1014.2,161.33L1019.2,161.33" style="fill:none;stroke:#FF7AB4" />
<path d="M1014.2,181.48L1019.2,181.48" style="fill:none;stroke:#FF7AB4" />
<path d="M1061.9,175.48L1061.9,195.43" style="fill:none;stroke:#FF7AB4" />
<path d="M1059.4,175.48L1064.4,175.48" style="fill:none;stroke:#FF7AB4" />
<path d="M1059.4,195.43L1064.4,195.43" style="fill:none;stroke:#FF7AB4" />
<path d="M1107.1,163.09L1107.1,181.19" style="fill:none;stroke:#FF7AB4" />
<path d="M1104.6,163.09L1109.6,163.09" style="fill:none;stroke:#FF7AB4" />
<path d="M1104.6,181.19L1109.6,181.19" style="fill:none;stroke:#FF7AB4" />
<path d="M1152.3,158.7L1152.3,180.74" style="fill:none;stroke:#FF7AB4" />
<path d="M1149.8,158.7L1154.8,158.7" style="fill:none;stroke:#FF7AB4" />
<path d="M1149.8,180.74L1154.8,180.74" style="fill:none;stroke:#FF7AB4" />
<path d="M1197.6,160.39L1197.6,179.54" style="fill:none;stroke:#FF7AB4" />
<path d="M1195.1,160.39L1200.1,160.39" style="fill:none;stroke:#FF7AB4" />
<path d="M1195.1,179.54L1200.1,179.54" style="fill:none;stroke:#FF7AB4" />
<path d="M1242.8,158.98L1242.8,165.42" style="fill:none;stroke:#FF7AB4" />
<path d="M1240.3,158.98L1245.3,158.98" style="fill:none;stroke:#FF7AB4" />
<path d="M1240.3,165.42L1245.3,165.42" style="fill:none;stroke:#FF7AB4" />
<path d="M1288,184.75L1288,217.19" style="fill:none;stroke:#FF7AB4" />
<path d="M1285.5,184.75L1290.5,184.75" style="fill:none;stroke:#FF7AB4" />
<path d="M1285.5,217.19L1290.5,217.19" style="fill:none;stroke:#FF7AB4" />
<path d="M120.2,271.8A8,8 0 1 1 104.2,271.8A8,8 0 1 1 120.2,271.8Z" style="fill:#FF7AB4" />
<path d="M165.42,300.57A8,8 0 1 1 149.42,300.57A8,8 0 1 1 165.42,300.57Z" style="fill:#FF7AB4" />
<path d="M210.64,321.83A8,8 0 1 1 194.64,321.83A8,8 0 1 1 210.64,321.83Z" style="fill:#FF7AB4" />
<path d="M255.87,298.74A8,8 0 1 1 239.87,298.74A8,8 0 1 1 255.87,298.74Z" style="fill:#FF7AB4" />
<path d="M301.09,285.35A8,8 0 1 1 285.09,285.35A8,8 0 1 1 301.09,285.35Z" style="fill:#FF7AB4" />
<path d="M346.31,272.57A8,8 0 1 1 330.31,272.57A8,8 0 1 1 346.31,272.57Z" style="fill:#FF7AB4" />
<path d="M391.54,301.51A8,8 0 1 1 375.54,301.51A8,8 0 1 1 391.54,301.51Z" style="fill:#FF7AB4" />
<path d="M436.76,295.07A8,8 0 1 1 420.76,295.07A8,8 0 1 1 436.76,295.07Z" style="fill:#FF7AB4" />
<path d="M481.98,325.7A8,8 0 1 1 465.98,325.7A8,8 0 1 1 481.98,325.7Z" style="fill:#FF7AB4" />
<path d="M527.21,299.81A8,8 0 1 1 511.21,299.81A8,8 0 1 1 527.21,299.81Z" style="fill:#FF7AB4" />
<path d="M572.43,246.11A8,8 0 1 1 556.43,246.11A8,8 0 1 1 572.43,246.11Z" style="fill:#FF7AB4" />
<path d="M617.65,254.01A8,8 0 1 1 601.65,254.01A8,8 0 1 1 617.65,254.01Z" style="fill:#FF7AB4" />
<path d="M662.88,363.52A8,8 0 1 1 646.88,363.52A8,8 0 1 1 662.88,363.52Z" style="fill:#FF7AB4" />
<path d="M708.1,397.74A8,8 0 1 1 692.1,397.74A8,8 0 1 1 708.1,397.74Z" style="fill:#FF7AB4" />
<path d="M753.32,367.7A8,8 0 1 1 737.32,367.7A8,8 0 1 1 753.32,367.7Z" style="fill:#FF7AB4" />
<path d="M798.54,298.91A8,8 0 1 1 782.54,298.91A8,8 0 1 1 798.54,298.91Z" style="fill:#FF7AB4" />
<path d="M843.77,279.26A8,8 0 1 1 827.77,279.26A8,8 0 1 1 843.77,279.26Z" style="fill:#FF7AB4" />
<path d="M888.99,194.13A8,8 0 1 1 872.99,194.13A8,8 0 1 1 888.99,194.13Z" style="fill:#FF7AB4" />
<path d="M934.21,182.15A8,8 0 1 1 918.21,182.15A8,8 0 1 1 934.21,182.15Z" style="fill:#FF7AB4" />
<path d="M979.44,166.4A8,8 0 1 1 963.44,166.4A8,8 0 1 1 979.44,166.4Z" style="fill:#FF7AB4" />
<path d="M1024.7,171.41A8,8 0 1 1 1008.7,171.41A8,8 0 1 1 1024.7,171.41Z" style="fill:#FF7AB4" />
<path d="M1069.9,185.46A8,8 0 1 1 1053.9,185.46A8,8 0 1 1 1069.9,185.46Z" style="fill:#FF7AB4" />
<path d="M1115.1,172.14A8,8 0 1 1 1099.1,172.14A8,8 0 1 1 1115.1,172.14Z" style="fill:#FF7AB4" />
<path d="M1160.3,169.72A8,8 0 1 1 1144.3,169.72A8,8 0 1 1 1160.3,169.72Z" style="fill:#FF7AB4" />
<path d="M1205.6,169.97A8,8 0 1 1 1189.6,169.97A8,8 0 1 1 1205.6,169.97Z" style="fill:#FF7AB4" />
<path d="M1250.8,162.2A8,8 0 1 1 1234.8,162.2A8,8 0 1 1 1250.8,162.2Z" style="fill:#FF7AB4" />
<path d="M1296,200.97A8,8 0 1 1 1280,200.97A8,8 0 1 1 1296,200.97Z" style="fill:#FF7AB4" />
<path d="M112.2,1019.1L1288,1019.1" style="fill:none;stroke:#000000;stroke-width:2.5" />
<path d="M1288,87.824L1288,1019.1" style="fill:none;stroke:#000000;stroke-width:2.5" />
<path d="M1229,964.69A8,8 0 1 1 1213,964.69A8,8 0 1 1 1229,964.69Z" style="fill:#1FD3AC" />
<text x="1049.8" y="-957.62" transform="scale(1, -1)"
	style="font-family:Liberation Sans;font-variant:normal;font-weight:normal;font-style:normal;font-size:30px">1um TeO2</text>
<path d="M1229,928.51A8,8 0 1 1 1213,928.51A8,8 0 1 1 1229,928.51Z" style="fill:#FF7AB4" />
<text x="1049.3" y="-921.45" transform="scale(1, -1)"
	style="font-family:Liberation Sans;font-variant:normal;font-weight:normal;font-style:normal;font-size:30px">no sample</text>
</g>
</svg>
