<?xml version="1.0"?>
<!-- Generated by SVGo and Plotinum VG -->
<svg width="1080pt" height="1080pt" viewBox="0 0 1080 1080"
	xmlns="http://www.w3.org/2000/svg"
	xmlns:xlink="http://www.w3.org/1999/xlink">
<g transform="scale(1, -1) translate(0, -1080)">
<path d="M0,0L1080,0L1080,1080L0,1080Z" style="fill:#-8000000000000000-8000000000000000-8000000000000000;fill-opacity:0" />
<text x="319.11" y="-1039.5" transform="scale(1, -1)"
	style="font-family:Helvetica;font-weight:normal;font-style:normal;font-size:50px">1 cm UHNA3 CABS</text>
<text x="500.07" y="-11.039" transform="scale(1, -1)"
	style="font-family:Helvetica;font-weight:normal;font-style:normal;font-size:36px">Frequency (GHz)</text>
<text x="239.34" y="-71.258" transform="scale(1, -1)"
	style="font-family:Helvetica;font-weight:normal;font-style:normal;font-size:36px">9.03</text>
<text x="398.43" y="-71.258" transform="scale(1, -1)"
	style="font-family:Helvetica;font-weight:normal;font-style:normal;font-size:36px">9.07</text>
<text x="557.52" y="-71.258" transform="scale(1, -1)"
	style="font-family:Helvetica;font-weight:normal;font-style:normal;font-size:36px">9.12</text>
<text x="716.61" y="-71.258" transform="scale(1, -1)"
	style="font-family:Helvetica;font-weight:normal;font-style:normal;font-size:36px">9.18</text>
<text x="875.69" y="-71.258" transform="scale(1, -1)"
	style="font-family:Helvetica;font-weight:normal;font-style:normal;font-size:36px">9.22</text>
<path d="M274.38,116.44L274.38,108.44" style="fill:none;stroke:#000000;stroke-width:1.5" />
<path d="M353.92,112.44L353.92,108.44" style="fill:none;stroke:#000000;stroke-width:1.5" />
<path d="M433.46,116.44L433.46,108.44" style="fill:none;stroke:#000000;stroke-width:1.5" />
<path d="M513.01,112.44L513.01,108.44" style="fill:none;stroke:#000000;stroke-width:1.5" />
<path d="M592.55,116.44L592.55,108.44" style="fill:none;stroke:#000000;stroke-width:1.5" />
<path d="M672.1,112.44L672.1,108.44" style="fill:none;stroke:#000000;stroke-width:1.5" />
<path d="M751.64,116.44L751.64,108.44" style="fill:none;stroke:#000000;stroke-width:1.5" />
<path d="M831.18,112.44L831.18,108.44" style="fill:none;stroke:#000000;stroke-width:1.5" />
<path d="M910.73,116.44L910.73,108.44" style="fill:none;stroke:#000000;stroke-width:1.5" />
<path d="M990.27,112.44L990.27,108.44" style="fill:none;stroke:#000000;stroke-width:1.5" />
<path d="M201.21,108.44L1075,108.44" style="fill:none;stroke:#000000;stroke-width:1.5" />
<g transform="rotate(90)">
<text x="371.06" y="29.18" transform="scale(1, -1)"
	style="font-family:Helvetica;font-weight:normal;font-style:normal;font-size:36px">Spectral Density (μV)</text>
</g>
<text x="87.869" y="-207.91" transform="scale(1, -1)"
	style="font-family:Helvetica;font-weight:normal;font-style:normal;font-size:36px">49.37</text>
<text x="67.848" y="-424.24" transform="scale(1, -1)"
	style="font-family:Helvetica;font-weight:normal;font-style:normal;font-size:36px">106.97</text>
<text x="67.848" y="-640.57" transform="scale(1, -1)"
	style="font-family:Helvetica;font-weight:normal;font-style:normal;font-size:36px">164.57</text>
<text x="67.848" y="-856.9" transform="scale(1, -1)"
	style="font-family:Helvetica;font-weight:normal;font-style:normal;font-size:36px">222.17</text>
<path d="M199.96,108.82L195.96,108.82" style="fill:none;stroke:#000000;stroke-width:1.5" />
<path d="M203.96,216.98L195.96,216.98" style="fill:none;stroke:#000000;stroke-width:1.5" />
<path d="M199.96,325.15L195.96,325.15" style="fill:none;stroke:#000000;stroke-width:1.5" />
<path d="M203.96,433.31L195.96,433.31" style="fill:none;stroke:#000000;stroke-width:1.5" />
<path d="M199.96,541.48L195.96,541.48" style="fill:none;stroke:#000000;stroke-width:1.5" />
<path d="M203.96,649.64L195.96,649.64" style="fill:none;stroke:#000000;stroke-width:1.5" />
<path d="M199.96,757.81L195.96,757.81" style="fill:none;stroke:#000000;stroke-width:1.5" />
<path d="M203.96,865.98L195.96,865.98" style="fill:none;stroke:#000000;stroke-width:1.5" />
<path d="M199.96,974.14L195.96,974.14" style="fill:none;stroke:#000000;stroke-width:1.5" />
<path d="M199.96,974.14L195.96,974.14" style="fill:none;stroke:#000000;stroke-width:1.5" />
<path d="M195.96,108.82L195.96,974.14" style="fill:none;stroke:#000000;stroke-width:1.5" />
<path d="M201.21,153.97L201.21,157.75" style="fill:none;stroke:#5B1616" />
<path d="M198.71,153.97L203.71,153.97" style="fill:none;stroke:#5B1616" />
<path d="M198.71,157.75L203.71,157.75" style="fill:none;stroke:#5B1616" />
<path d="M207.59,157.26L207.59,160.57" style="fill:none;stroke:#5B1616" />
<path d="M205.09,157.26L210.09,157.26" style="fill:none;stroke:#5B1616" />
<path d="M205.09,160.57L210.09,160.57" style="fill:none;stroke:#5B1616" />
<path d="M213.97,159.69L213.97,163.66" style="fill:none;stroke:#5B1616" />
<path d="M211.47,159.69L216.47,159.69" style="fill:none;stroke:#5B1616" />
<path d="M211.47,163.66L216.47,163.66" style="fill:none;stroke:#5B1616" />
<path d="M220.34,163.9L220.34,167.75" style="fill:none;stroke:#5B1616" />
<path d="M217.84,163.9L222.84,163.9" style="fill:none;stroke:#5B1616" />
<path d="M217.84,167.75L222.84,167.75" style="fill:none;stroke:#5B1616" />
<path d="M226.72,168.32L226.72,170.38" style="fill:none;stroke:#5B1616" />
<path d="M224.22,168.32L229.22,168.32" style="fill:none;stroke:#5B1616" />
<path d="M224.22,170.38L229.22,170.38" style="fill:none;stroke:#5B1616" />
<path d="M233.1,171.99L233.1,173.6" style="fill:none;stroke:#5B1616" />
<path d="M230.6,171.99L235.6,171.99" style="fill:none;stroke:#5B1616" />
<path d="M230.6,173.6L235.6,173.6" style="fill:none;stroke:#5B1616" />
<path d="M239.48,173.85L239.48,177.81" style="fill:none;stroke:#5B1616" />
<path d="M236.98,173.85L241.98,173.85" style="fill:none;stroke:#5B1616" />
<path d="M236.98,177.81L241.98,177.81" style="fill:none;stroke:#5B1616" />
<path d="M245.86,175.97L245.86,180.99" style="fill:none;stroke:#5B1616" />
<path d="M243.36,175.97L248.36,175.97" style="fill:none;stroke:#5B1616" />
<path d="M243.36,180.99L248.36,180.99" style="fill:none;stroke:#5B1616" />
<path d="M252.23,180.28L252.23,184.73" style="fill:none;stroke:#5B1616" />
<path d="M249.73,180.28L254.73,180.28" style="fill:none;stroke:#5B1616" />
<path d="M249.73,184.73L254.73,184.73" style="fill:none;stroke:#5B1616" />
<path d="M258.61,184.83L258.61,188.73" style="fill:none;stroke:#5B1616" />
<path d="M256.11,184.83L261.11,184.83" style="fill:none;stroke:#5B1616" />
<path d="M256.11,188.73L261.11,188.73" style="fill:none;stroke:#5B1616" />
<path d="M264.99,188.17L264.99,192.44" style="fill:none;stroke:#5B1616" />
<path d="M262.49,188.17L267.49,188.17" style="fill:none;stroke:#5B1616" />
<path d="M262.49,192.44L267.49,192.44" style="fill:none;stroke:#5B1616" />
<path d="M271.37,193.73L271.37,196.88" style="fill:none;stroke:#5B1616" />
<path d="M268.87,193.73L273.87,193.73" style="fill:none;stroke:#5B1616" />
<path d="M268.87,196.88L273.87,196.88" style="fill:none;stroke:#5B1616" />
<path d="M277.75,196.61L277.75,201.3" style="fill:none;stroke:#5B1616" />
<path d="M275.25,196.61L280.25,196.61" style="fill:none;stroke:#5B1616" />
<path d="M275.25,201.3L280.25,201.3" style="fill:none;stroke:#5B1616" />
<path d="M284.12,201.3L284.12,206.68" style="fill:none;stroke:#5B1616" />
<path d="M281.62,201.3L286.62,201.3" style="fill:none;stroke:#5B1616" />
<path d="M281.62,206.68L286.62,206.68" style="fill:none;stroke:#5B1616" />
<path d="M290.5,204.48L290.5,207.85" style="fill:none;stroke:#5B1616" />
<path d="M288,204.48L293,204.48" style="fill:none;stroke:#5B1616" />
<path d="M288,207.85L293,207.85" style="fill:none;stroke:#5B1616" />
<path d="M296.88,209.31L296.88,213.96" style="fill:none;stroke:#5B1616" />
<path d="M294.38,209.31L299.38,209.31" style="fill:none;stroke:#5B1616" />
<path d="M294.38,213.96L299.38,213.96" style="fill:none;stroke:#5B1616" />
<path d="M303.26,213.67L303.26,219.15" style="fill:none;stroke:#5B1616" />
<path d="M300.76,213.67L305.76,213.67" style="fill:none;stroke:#5B1616" />
<path d="M300.76,219.15L305.76,219.15" style="fill:none;stroke:#5B1616" />
<path d="M309.64,218.88L309.64,222.45" style="fill:none;stroke:#5B1616" />
<path d="M307.14,218.88L312.14,218.88" style="fill:none;stroke:#5B1616" />
<path d="M307.14,222.45L312.14,222.45" style="fill:none;stroke:#5B1616" />
<path d="M316.01,225.56L316.01,230.42" style="fill:none;stroke:#5B1616" />
<path d="M313.51,225.56L318.51,225.56" style="fill:none;stroke:#5B1616" />
<path d="M313.51,230.42L318.51,230.42" style="fill:none;stroke:#5B1616" />
<path d="M322.39,226.86L322.39,233.73" style="fill:none;stroke:#5B1616" />
<path d="M319.89,226.86L324.89,226.86" style="fill:none;stroke:#5B1616" />
<path d="M319.89,233.73L324.89,233.73" style="fill:none;stroke:#5B1616" />
<path d="M328.77,236.3L328.77,237.81" style="fill:none;stroke:#5B1616" />
<path d="M326.27,236.3L331.27,236.3" style="fill:none;stroke:#5B1616" />
<path d="M326.27,237.81L331.27,237.81" style="fill:none;stroke:#5B1616" />
<path d="M335.15,243.99L335.15,247.43" style="fill:none;stroke:#5B1616" />
<path d="M332.65,243.99L337.65,243.99" style="fill:none;stroke:#5B1616" />
<path d="M332.65,247.43L337.65,247.43" style="fill:none;stroke:#5B1616" />
<path d="M341.53,248.99L341.53,253.24" style="fill:none;stroke:#5B1616" />
<path d="M339.03,248.99L344.03,248.99" style="fill:none;stroke:#5B1616" />
<path d="M339.03,253.24L344.03,253.24" style="fill:none;stroke:#5B1616" />
<path d="M347.9,254.37L347.9,258.11" style="fill:none;stroke:#5B1616" />
<path d="M345.4,254.37L350.4,254.37" style="fill:none;stroke:#5B1616" />
<path d="M345.4,258.11L350.4,258.11" style="fill:none;stroke:#5B1616" />
<path d="M354.28,259.46L354.28,265.06" style="fill:none;stroke:#5B1616" />
<path d="M351.78,259.46L356.78,259.46" style="fill:none;stroke:#5B1616" />
<path d="M351.78,265.06L356.78,265.06" style="fill:none;stroke:#5B1616" />
<path d="M360.66,268.4L360.66,273.18" style="fill:none;stroke:#5B1616" />
<path d="M358.16,268.4L363.16,268.4" style="fill:none;stroke:#5B1616" />
<path d="M358.16,273.18L363.16,273.18" style="fill:none;stroke:#5B1616" />
<path d="M367.04,273.91L367.04,277.9" style="fill:none;stroke:#5B1616" />
<path d="M364.54,273.91L369.54,273.91" style="fill:none;stroke:#5B1616" />
<path d="M364.54,277.9L369.54,277.9" style="fill:none;stroke:#5B1616" />
<path d="M373.42,281.13L373.42,284.14" style="fill:none;stroke:#5B1616" />
<path d="M370.92,281.13L375.92,281.13" style="fill:none;stroke:#5B1616" />
<path d="M370.92,284.14L375.92,284.14" style="fill:none;stroke:#5B1616" />
<path d="M379.79,290.41L379.79,296.98" style="fill:none;stroke:#5B1616" />
<path d="M377.29,290.41L382.29,290.41" style="fill:none;stroke:#5B1616" />
<path d="M377.29,296.98L382.29,296.98" style="fill:none;stroke:#5B1616" />
<path d="M386.17,295.95L386.17,302.19" style="fill:none;stroke:#5B1616" />
<path d="M383.67,295.95L388.67,295.95" style="fill:none;stroke:#5B1616" />
<path d="M383.67,302.19L388.67,302.19" style="fill:none;stroke:#5B1616" />
<path d="M392.55,305.86L392.55,312.87" style="fill:none;stroke:#5B1616" />
<path d="M390.05,305.86L395.05,305.86" style="fill:none;stroke:#5B1616" />
<path d="M390.05,312.87L395.05,312.87" style="fill:none;stroke:#5B1616" />
<path d="M398.93,313.47L398.93,318.01" style="fill:none;stroke:#5B1616" />
<path d="M396.43,313.47L401.43,313.47" style="fill:none;stroke:#5B1616" />
<path d="M396.43,318.01L401.43,318.01" style="fill:none;stroke:#5B1616" />
<path d="M405.31,320.25L405.31,323.73" style="fill:none;stroke:#5B1616" />
<path d="M402.81,320.25L407.81,320.25" style="fill:none;stroke:#5B1616" />
<path d="M402.81,323.73L407.81,323.73" style="fill:none;stroke:#5B1616" />
<path d="M411.68,328.5L411.68,333.02" style="fill:none;stroke:#5B1616" />
<path d="M409.18,328.5L414.18,328.5" style="fill:none;stroke:#5B1616" />
<path d="M409.18,333.02L414.18,333.02" style="fill:none;stroke:#5B1616" />
<path d="M418.06,337.96L418.06,342.39" style="fill:none;stroke:#5B1616" />
<path d="M415.56,337.96L420.56,337.96" style="fill:none;stroke:#5B1616" />
<path d="M415.56,342.39L420.56,342.39" style="fill:none;stroke:#5B1616" />
<path d="M424.44,345.74L424.44,353.73" style="fill:none;stroke:#5B1616" />
<path d="M421.94,345.74L426.94,345.74" style="fill:none;stroke:#5B1616" />
<path d="M421.94,353.73L426.94,353.73" style="fill:none;stroke:#5B1616" />
<path d="M430.82,353.77L430.82,360.05" style="fill:none;stroke:#5B1616" />
<path d="M428.32,353.77L433.32,353.77" style="fill:none;stroke:#5B1616" />
<path d="M428.32,360.05L433.32,360.05" style="fill:none;stroke:#5B1616" />
<path d="M437.2,363.6L437.2,370.55" style="fill:none;stroke:#5B1616" />
<path d="M434.7,363.6L439.7,363.6" style="fill:none;stroke:#5B1616" />
<path d="M434.7,370.55L439.7,370.55" style="fill:none;stroke:#5B1616" />
<path d="M443.57,375.37L443.57,382.42" style="fill:none;stroke:#5B1616" />
<path d="M441.07,375.37L446.07,375.37" style="fill:none;stroke:#5B1616" />
<path d="M441.07,382.42L446.07,382.42" style="fill:none;stroke:#5B1616" />
<path d="M449.95,385.03L449.95,390.55" style="fill:none;stroke:#5B1616" />
<path d="M447.45,385.03L452.45,385.03" style="fill:none;stroke:#5B1616" />
<path d="M447.45,390.55L452.45,390.55" style="fill:none;stroke:#5B1616" />
<path d="M456.33,395.92L456.33,401.36" style="fill:none;stroke:#5B1616" />
<path d="M453.83,395.92L458.83,395.92" style="fill:none;stroke:#5B1616" />
<path d="M453.83,401.36L458.83,401.36" style="fill:none;stroke:#5B1616" />
<path d="M462.71,406.77L462.71,409.9" style="fill:none;stroke:#5B1616" />
<path d="M460.21,406.77L465.21,406.77" style="fill:none;stroke:#5B1616" />
<path d="M460.21,409.9L465.21,409.9" style="fill:none;stroke:#5B1616" />
<path d="M469.09,413.45L469.09,419.9" style="fill:none;stroke:#5B1616" />
<path d="M466.59,413.45L471.59,413.45" style="fill:none;stroke:#5B1616" />
<path d="M466.59,419.9L471.59,419.9" style="fill:none;stroke:#5B1616" />
<path d="M475.46,428.71L475.46,435.47" style="fill:none;stroke:#5B1616" />
<path d="M472.96,428.71L477.96,428.71" style="fill:none;stroke:#5B1616" />
<path d="M472.96,435.47L477.96,435.47" style="fill:none;stroke:#5B1616" />
<path d="M481.84,440.79L481.84,447.44" style="fill:none;stroke:#5B1616" />
<path d="M479.34,440.79L484.34,440.79" style="fill:none;stroke:#5B1616" />
<path d="M479.34,447.44L484.34,447.44" style="fill:none;stroke:#5B1616" />
<path d="M488.22,452.87L488.22,458.32" style="fill:none;stroke:#5B1616" />
<path d="M485.72,452.87L490.72,452.87" style="fill:none;stroke:#5B1616" />
<path d="M485.72,458.32L490.72,458.32" style="fill:none;stroke:#5B1616" />
<path d="M494.6,469.04L494.6,474.55" style="fill:none;stroke:#5B1616" />
<path d="M492.1,469.04L497.1,469.04" style="fill:none;stroke:#5B1616" />
<path d="M492.1,474.55L497.1,474.55" style="fill:none;stroke:#5B1616" />
<path d="M500.98,479.18L500.98,487.07" style="fill:none;stroke:#5B1616" />
<path d="M498.48,479.18L503.48,479.18" style="fill:none;stroke:#5B1616" />
<path d="M498.48,487.07L503.48,487.07" style="fill:none;stroke:#5B1616" />
<path d="M507.35,492.42L507.35,501.6" style="fill:none;stroke:#5B1616" />
<path d="M504.85,492.42L509.85,492.42" style="fill:none;stroke:#5B1616" />
<path d="M504.85,501.6L509.85,501.6" style="fill:none;stroke:#5B1616" />
<path d="M513.73,501.92L513.73,509.25" style="fill:none;stroke:#5B1616" />
<path d="M511.23,501.92L516.23,501.92" style="fill:none;stroke:#5B1616" />
<path d="M511.23,509.25L516.23,509.25" style="fill:none;stroke:#5B1616" />
<path d="M520.11,519.04L520.11,525.94" style="fill:none;stroke:#5B1616" />
<path d="M517.61,519.04L522.61,519.04" style="fill:none;stroke:#5B1616" />
<path d="M517.61,525.94L522.61,525.94" style="fill:none;stroke:#5B1616" />
<path d="M526.49,534.94L526.49,543.37" style="fill:none;stroke:#5B1616" />
<path d="M523.99,534.94L528.99,534.94" style="fill:none;stroke:#5B1616" />
<path d="M523.99,543.37L528.99,543.37" style="fill:none;stroke:#5B1616" />
<path d="M532.87,545.62L532.87,555.58" style="fill:none;stroke:#5B1616" />
<path d="M530.37,545.62L535.37,545.62" style="fill:none;stroke:#5B1616" />
<path d="M530.37,555.58L535.37,555.58" style="fill:none;stroke:#5B1616" />
<path d="M539.24,561.05L539.24,566.98" style="fill:none;stroke:#5B1616" />
<path d="M536.74,561.05L541.74,561.05" style="fill:none;stroke:#5B1616" />
<path d="M536.74,566.98L541.74,566.98" style="fill:none;stroke:#5B1616" />
<path d="M545.62,575.27L545.62,582.61" style="fill:none;stroke:#5B1616" />
<path d="M543.12,575.27L548.12,575.27" style="fill:none;stroke:#5B1616" />
<path d="M543.12,582.61L548.12,582.61" style="fill:none;stroke:#5B1616" />
<path d="M552,588.56L552,595.72" style="fill:none;stroke:#5B1616" />
<path d="M549.5,588.56L554.5,588.56" style="fill:none;stroke:#5B1616" />
<path d="M549.5,595.72L554.5,595.72" style="fill:none;stroke:#5B1616" />
<path d="M558.38,598.55L558.38,607.95" style="fill:none;stroke:#5B1616" />
<path d="M555.88,598.55L560.88,598.55" style="fill:none;stroke:#5B1616" />
<path d="M555.88,607.95L560.88,607.95" style="fill:none;stroke:#5B1616" />
<path d="M564.76,603.39L564.76,614.66" style="fill:none;stroke:#5B1616" />
<path d="M562.26,603.39L567.26,603.39" style="fill:none;stroke:#5B1616" />
<path d="M562.26,614.66L567.26,614.66" style="fill:none;stroke:#5B1616" />
<path d="M571.14,611.66L571.14,620.3" style="fill:none;stroke:#5B1616" />
<path d="M568.64,611.66L573.64,611.66" style="fill:none;stroke:#5B1616" />
<path d="M568.64,620.3L573.64,620.3" style="fill:none;stroke:#5B1616" />
<path d="M577.51,616.25L577.51,626.09" style="fill:none;stroke:#5B1616" />
<path d="M575.01,616.25L580.01,616.25" style="fill:none;stroke:#5B1616" />
<path d="M575.01,626.09L580.01,626.09" style="fill:none;stroke:#5B1616" />
<path d="M583.89,628.4L583.89,636.78" style="fill:none;stroke:#5B1616" />
<path d="M581.39,628.4L586.39,628.4" style="fill:none;stroke:#5B1616" />
<path d="M581.39,636.78L586.39,636.78" style="fill:none;stroke:#5B1616" />
<path d="M590.27,627.08L590.27,637.06" style="fill:none;stroke:#5B1616" />
<path d="M587.77,627.08L592.77,627.08" style="fill:none;stroke:#5B1616" />
<path d="M587.77,637.06L592.77,637.06" style="fill:none;stroke:#5B1616" />
<path d="M596.65,634.19L596.65,647.68" style="fill:none;stroke:#5B1616" />
<path d="M594.15,634.19L599.15,634.19" style="fill:none;stroke:#5B1616" />
<path d="M594.15,647.68L599.15,647.68" style="fill:none;stroke:#5B1616" />
<path d="M603.03,636.63L603.03,642.22" style="fill:none;stroke:#5B1616" />
<path d="M600.53,636.63L605.53,636.63" style="fill:none;stroke:#5B1616" />
<path d="M600.53,642.22L605.53,642.22" style="fill:none;stroke:#5B1616" />
<path d="M609.4,632.04L609.4,634.9" style="fill:none;stroke:#5B1616" />
<path d="M606.9,632.04L611.9,632.04" style="fill:none;stroke:#5B1616" />
<path d="M606.9,634.9L611.9,634.9" style="fill:none;stroke:#5B1616" />
<path d="M615.78,617.99L615.78,625.8" style="fill:none;stroke:#5B1616" />
<path d="M613.28,617.99L618.28,617.99" style="fill:none;stroke:#5B1616" />
<path d="M613.28,625.8L618.28,625.8" style="fill:none;stroke:#5B1616" />
<path d="M622.16,607.7L622.16,616.39" style="fill:none;stroke:#5B1616" />
<path d="M619.66,607.7L624.66,607.7" style="fill:none;stroke:#5B1616" />
<path d="M619.66,616.39L624.66,616.39" style="fill:none;stroke:#5B1616" />
<path d="M628.54,591.1L628.54,599.83" style="fill:none;stroke:#5B1616" />
<path d="M626.04,591.1L631.04,591.1" style="fill:none;stroke:#5B1616" />
<path d="M626.04,599.83L631.04,599.83" style="fill:none;stroke:#5B1616" />
<path d="M634.92,577.42L634.92,585.63" style="fill:none;stroke:#5B1616" />
<path d="M632.42,577.42L637.42,577.42" style="fill:none;stroke:#5B1616" />
<path d="M632.42,585.63L637.42,585.63" style="fill:none;stroke:#5B1616" />
<path d="M641.29,564.74L641.29,570.18" style="fill:none;stroke:#5B1616" />
<path d="M638.79,564.74L643.79,564.74" style="fill:none;stroke:#5B1616" />
<path d="M638.79,570.18L643.79,570.18" style="fill:none;stroke:#5B1616" />
<path d="M647.67,554.82L647.67,561.07" style="fill:none;stroke:#5B1616" />
<path d="M645.17,554.82L650.17,554.82" style="fill:none;stroke:#5B1616" />
<path d="M645.17,561.07L650.17,561.07" style="fill:none;stroke:#5B1616" />
<path d="M654.05,547.74L654.05,551.47" style="fill:none;stroke:#5B1616" />
<path d="M651.55,547.74L656.55,547.74" style="fill:none;stroke:#5B1616" />
<path d="M651.55,551.47L656.55,551.47" style="fill:none;stroke:#5B1616" />
<path d="M660.43,551.02L660.43,554.6" style="fill:none;stroke:#5B1616" />
<path d="M657.93,551.02L662.93,551.02" style="fill:none;stroke:#5B1616" />
<path d="M657.93,554.6L662.93,554.6" style="fill:none;stroke:#5B1616" />
<path d="M666.81,555.45L666.81,563.11" style="fill:none;stroke:#5B1616" />
<path d="M664.31,555.45L669.31,555.45" style="fill:none;stroke:#5B1616" />
<path d="M664.31,563.11L669.31,563.11" style="fill:none;stroke:#5B1616" />
<path d="M673.18,575.77L673.18,590.71" style="fill:none;stroke:#5B1616" />
<path d="M670.68,575.77L675.68,575.77" style="fill:none;stroke:#5B1616" />
<path d="M670.68,590.71L675.68,590.71" style="fill:none;stroke:#5B1616" />
<path d="M679.56,600.88L679.56,620.13" style="fill:none;stroke:#5B1616" />
<path d="M677.06,600.88L682.06,600.88" style="fill:none;stroke:#5B1616" />
<path d="M677.06,620.13L682.06,620.13" style="fill:none;stroke:#5B1616" />
<path d="M685.94,632.01L685.94,648.92" style="fill:none;stroke:#5B1616" />
<path d="M683.44,632.01L688.44,632.01" style="fill:none;stroke:#5B1616" />
<path d="M683.44,648.92L688.44,648.92" style="fill:none;stroke:#5B1616" />
<path d="M692.32,669.35L692.32,683" style="fill:none;stroke:#5B1616" />
<path d="M689.82,669.35L694.82,669.35" style="fill:none;stroke:#5B1616" />
<path d="M689.82,683L694.82,683" style="fill:none;stroke:#5B1616" />
<path d="M698.7,700.09L698.7,715.38" style="fill:none;stroke:#5B1616" />
<path d="M696.2,700.09L701.2,700.09" style="fill:none;stroke:#5B1616" />
<path d="M696.2,715.38L701.2,715.38" style="fill:none;stroke:#5B1616" />
<path d="M705.07,724.99L705.07,743.72" style="fill:none;stroke:#5B1616" />
<path d="M702.57,724.99L707.57,724.99" style="fill:none;stroke:#5B1616" />
<path d="M702.57,743.72L707.57,743.72" style="fill:none;stroke:#5B1616" />
<path d="M711.45,751.94L711.45,769.95" style="fill:none;stroke:#5B1616" />
<path d="M708.95,751.94L713.95,751.94" style="fill:none;stroke:#5B1616" />
<path d="M708.95,769.95L713.95,769.95" style="fill:none;stroke:#5B1616" />
<path d="M717.83,769.18L717.83,781.39" style="fill:none;stroke:#5B1616" />
<path d="M715.33,769.18L720.33,769.18" style="fill:none;stroke:#5B1616" />
<path d="M715.33,781.39L720.33,781.39" style="fill:none;stroke:#5B1616" />
<path d="M724.21,784.81L724.21,794.83" style="fill:none;stroke:#5B1616" />
<path d="M721.71,784.81L726.71,784.81" style="fill:none;stroke:#5B1616" />
<path d="M721.71,794.83L726.71,794.83" style="fill:none;stroke:#5B1616" />
<path d="M730.59,798.3L730.59,808.28" style="fill:none;stroke:#5B1616" />
<path d="M728.09,798.3L733.09,798.3" style="fill:none;stroke:#5B1616" />
<path d="M728.09,808.28L733.09,808.28" style="fill:none;stroke:#5B1616" />
<path d="M736.96,795.99L736.96,802.27" style="fill:none;stroke:#5B1616" />
<path d="M734.46,795.99L739.46,795.99" style="fill:none;stroke:#5B1616" />
<path d="M734.46,802.27L739.46,802.27" style="fill:none;stroke:#5B1616" />
<path d="M743.34,796.37L743.34,804.09" style="fill:none;stroke:#5B1616" />
<path d="M740.84,796.37L745.84,796.37" style="fill:none;stroke:#5B1616" />
<path d="M740.84,804.09L745.84,804.09" style="fill:none;stroke:#5B1616" />
<path d="M749.72,797.98L749.72,807.4" style="fill:none;stroke:#5B1616" />
<path d="M747.22,797.98L752.22,797.98" style="fill:none;stroke:#5B1616" />
<path d="M747.22,807.4L752.22,807.4" style="fill:none;stroke:#5B1616" />
<path d="M756.1,779.23L756.1,788.49" style="fill:none;stroke:#5B1616" />
<path d="M753.6,779.23L758.6,779.23" style="fill:none;stroke:#5B1616" />
<path d="M753.6,788.49L758.6,788.49" style="fill:none;stroke:#5B1616" />
<path d="M762.48,755.81L762.48,766.92" style="fill:none;stroke:#5B1616" />
<path d="M759.98,755.81L764.98,755.81" style="fill:none;stroke:#5B1616" />
<path d="M759.98,766.92L764.98,766.92" style="fill:none;stroke:#5B1616" />
<path d="M768.85,745.31L768.85,756.21" style="fill:none;stroke:#5B1616" />
<path d="M766.35,745.31L771.35,745.31" style="fill:none;stroke:#5B1616" />
<path d="M766.35,756.21L771.35,756.21" style="fill:none;stroke:#5B1616" />
<path d="M775.23,720.92L775.23,733.61" style="fill:none;stroke:#5B1616" />
<path d="M772.73,720.92L777.73,720.92" style="fill:none;stroke:#5B1616" />
<path d="M772.73,733.61L777.73,733.61" style="fill:none;stroke:#5B1616" />
<path d="M781.61,694.79L781.61,706.57" style="fill:none;stroke:#5B1616" />
<path d="M779.11,694.79L784.11,694.79" style="fill:none;stroke:#5B1616" />
<path d="M779.11,706.57L784.11,706.57" style="fill:none;stroke:#5B1616" />
<path d="M787.99,667.99L787.99,685.02" style="fill:none;stroke:#5B1616" />
<path d="M785.49,667.99L790.49,667.99" style="fill:none;stroke:#5B1616" />
<path d="M785.49,685.02L790.49,685.02" style="fill:none;stroke:#5B1616" />
<path d="M794.37,663.4L794.37,671.76" style="fill:none;stroke:#5B1616" />
<path d="M791.87,663.4L796.87,663.4" style="fill:none;stroke:#5B1616" />
<path d="M791.87,671.76L796.87,671.76" style="fill:none;stroke:#5B1616" />
<path d="M800.74,633.25L800.74,642.96" style="fill:none;stroke:#5B1616" />
<path d="M798.24,633.25L803.24,633.25" style="fill:none;stroke:#5B1616" />
<path d="M798.24,642.96L803.24,642.96" style="fill:none;stroke:#5B1616" />
<path d="M807.12,611.16L807.12,616.99" style="fill:none;stroke:#5B1616" />
<path d="M804.62,611.16L809.62,611.16" style="fill:none;stroke:#5B1616" />
<path d="M804.62,616.99L809.62,616.99" style="fill:none;stroke:#5B1616" />
<path d="M813.5,586.63L813.5,596.74" style="fill:none;stroke:#5B1616" />
<path d="M811,586.63L816,586.63" style="fill:none;stroke:#5B1616" />
<path d="M811,596.74L816,596.74" style="fill:none;stroke:#5B1616" />
<path d="M819.88,562.63L819.88,571.45" style="fill:none;stroke:#5B1616" />
<path d="M817.38,562.63L822.38,562.63" style="fill:none;stroke:#5B1616" />
<path d="M817.38,571.45L822.38,571.45" style="fill:none;stroke:#5B1616" />
<path d="M826.26,536.47L826.26,542.17" style="fill:none;stroke:#5B1616" />
<path d="M823.76,536.47L828.76,536.47" style="fill:none;stroke:#5B1616" />
<path d="M823.76,542.17L828.76,542.17" style="fill:none;stroke:#5B1616" />
<path d="M832.63,511.9L832.63,524.54" style="fill:none;stroke:#5B1616" />
<path d="M830.13,511.9L835.13,511.9" style="fill:none;stroke:#5B1616" />
<path d="M830.13,524.54L835.13,524.54" style="fill:none;stroke:#5B1616" />
<path d="M839.01,491.64L839.01,502.86" style="fill:none;stroke:#5B1616" />
<path d="M836.51,491.64L841.51,491.64" style="fill:none;stroke:#5B1616" />
<path d="M836.51,502.86L841.51,502.86" style="fill:none;stroke:#5B1616" />
<path d="M845.39,470.55L845.39,478.05" style="fill:none;stroke:#5B1616" />
<path d="M842.89,470.55L847.89,470.55" style="fill:none;stroke:#5B1616" />
<path d="M842.89,478.05L847.89,478.05" style="fill:none;stroke:#5B1616" />
<path d="M851.77,454.83L851.77,464.42" style="fill:none;stroke:#5B1616" />
<path d="M849.27,454.83L854.27,454.83" style="fill:none;stroke:#5B1616" />
<path d="M849.27,464.42L854.27,464.42" style="fill:none;stroke:#5B1616" />
<path d="M858.15,433.82L858.15,440.65" style="fill:none;stroke:#5B1616" />
<path d="M855.65,433.82L860.65,433.82" style="fill:none;stroke:#5B1616" />
<path d="M855.65,440.65L860.65,440.65" style="fill:none;stroke:#5B1616" />
<path d="M864.52,417.12L864.52,425.05" style="fill:none;stroke:#5B1616" />
<path d="M862.02,417.12L867.02,417.12" style="fill:none;stroke:#5B1616" />
<path d="M862.02,425.05L867.02,425.05" style="fill:none;stroke:#5B1616" />
<path d="M870.9,402.33L870.9,406.46" style="fill:none;stroke:#5B1616" />
<path d="M868.4,402.33L873.4,402.33" style="fill:none;stroke:#5B1616" />
<path d="M868.4,406.46L873.4,406.46" style="fill:none;stroke:#5B1616" />
<path d="M877.28,383.96L877.28,387.71" style="fill:none;stroke:#5B1616" />
<path d="M874.78,383.96L879.78,383.96" style="fill:none;stroke:#5B1616" />
<path d="M874.78,387.71L879.78,387.71" style="fill:none;stroke:#5B1616" />
<path d="M883.66,367.26L883.66,372.19" style="fill:none;stroke:#5B1616" />
<path d="M881.16,367.26L886.16,367.26" style="fill:none;stroke:#5B1616" />
<path d="M881.16,372.19L886.16,372.19" style="fill:none;stroke:#5B1616" />
<path d="M890.04,352.09L890.04,357.36" style="fill:none;stroke:#5B1616" />
<path d="M887.54,352.09L892.54,352.09" style="fill:none;stroke:#5B1616" />
<path d="M887.54,357.36L892.54,357.36" style="fill:none;stroke:#5B1616" />
<path d="M896.41,339.3L896.41,344.75" style="fill:none;stroke:#5B1616" />
<path d="M893.91,339.3L898.91,339.3" style="fill:none;stroke:#5B1616" />
<path d="M893.91,344.75L898.91,344.75" style="fill:none;stroke:#5B1616" />
<path d="M902.79,326.14L902.79,330.3" style="fill:none;stroke:#5B1616" />
<path d="M900.29,326.14L905.29,326.14" style="fill:none;stroke:#5B1616" />
<path d="M900.29,330.3L905.29,330.3" style="fill:none;stroke:#5B1616" />
<path d="M909.17,312.31L909.17,315.06" style="fill:none;stroke:#5B1616" />
<path d="M906.67,312.31L911.67,312.31" style="fill:none;stroke:#5B1616" />
<path d="M906.67,315.06L911.67,315.06" style="fill:none;stroke:#5B1616" />
<path d="M915.55,296.32L915.55,299.61" style="fill:none;stroke:#5B1616" />
<path d="M913.05,296.32L918.05,296.32" style="fill:none;stroke:#5B1616" />
<path d="M913.05,299.61L918.05,299.61" style="fill:none;stroke:#5B1616" />
<path d="M921.93,286.62L921.93,289.82" style="fill:none;stroke:#5B1616" />
<path d="M919.43,286.62L924.43,286.62" style="fill:none;stroke:#5B1616" />
<path d="M919.43,289.82L924.43,289.82" style="fill:none;stroke:#5B1616" />
<path d="M928.31,276.12L928.31,278.7" style="fill:none;stroke:#5B1616" />
<path d="M925.81,276.12L930.81,276.12" style="fill:none;stroke:#5B1616" />
<path d="M925.81,278.7L930.81,278.7" style="fill:none;stroke:#5B1616" />
<path d="M934.68,263.97L934.68,266.26" style="fill:none;stroke:#5B1616" />
<path d="M932.18,263.97L937.18,263.97" style="fill:none;stroke:#5B1616" />
<path d="M932.18,266.26L937.18,266.26" style="fill:none;stroke:#5B1616" />
<path d="M941.06,253.79L941.06,259.16" style="fill:none;stroke:#5B1616" />
<path d="M938.56,253.79L943.56,253.79" style="fill:none;stroke:#5B1616" />
<path d="M938.56,259.16L943.56,259.16" style="fill:none;stroke:#5B1616" />
<path d="M947.44,244.66L947.44,249.43" style="fill:none;stroke:#5B1616" />
<path d="M944.94,244.66L949.94,244.66" style="fill:none;stroke:#5B1616" />
<path d="M944.94,249.43L949.94,249.43" style="fill:none;stroke:#5B1616" />
<path d="M953.82,233.81L953.82,239.37" style="fill:none;stroke:#5B1616" />
<path d="M951.32,233.81L956.32,233.81" style="fill:none;stroke:#5B1616" />
<path d="M951.32,239.37L956.32,239.37" style="fill:none;stroke:#5B1616" />
<path d="M960.2,226.98L960.2,231.75" style="fill:none;stroke:#5B1616" />
<path d="M957.7,226.98L962.7,226.98" style="fill:none;stroke:#5B1616" />
<path d="M957.7,231.75L962.7,231.75" style="fill:none;stroke:#5B1616" />
<path d="M966.57,219.42L966.57,223.09" style="fill:none;stroke:#5B1616" />
<path d="M964.07,219.42L969.07,219.42" style="fill:none;stroke:#5B1616" />
<path d="M964.07,223.09L969.07,223.09" style="fill:none;stroke:#5B1616" />
<path d="M972.95,211.63L972.95,215.19" style="fill:none;stroke:#5B1616" />
<path d="M970.45,211.63L975.45,211.63" style="fill:none;stroke:#5B1616" />
<path d="M970.45,215.19L975.45,215.19" style="fill:none;stroke:#5B1616" />
<path d="M979.33,203.44L979.33,208.14" style="fill:none;stroke:#5B1616" />
<path d="M976.83,203.44L981.83,203.44" style="fill:none;stroke:#5B1616" />
<path d="M976.83,208.14L981.83,208.14" style="fill:none;stroke:#5B1616" />
<path d="M985.71,199.6L985.71,203.47" style="fill:none;stroke:#5B1616" />
<path d="M983.21,199.6L988.21,199.6" style="fill:none;stroke:#5B1616" />
<path d="M983.21,203.47L988.21,203.47" style="fill:none;stroke:#5B1616" />
<path d="M992.09,193.03L992.09,195.94" style="fill:none;stroke:#5B1616" />
<path d="M989.59,193.03L994.59,193.03" style="fill:none;stroke:#5B1616" />
<path d="M989.59,195.94L994.59,195.94" style="fill:none;stroke:#5B1616" />
<path d="M998.46,187.24L998.46,190.5" style="fill:none;stroke:#5B1616" />
<path d="M995.96,187.24L1001,187.24" style="fill:none;stroke:#5B1616" />
<path d="M995.96,190.5L1001,190.5" style="fill:none;stroke:#5B1616" />
<path d="M1004.8,180.76L1004.8,183.89" style="fill:none;stroke:#5B1616" />
<path d="M1002.3,180.76L1007.3,180.76" style="fill:none;stroke:#5B1616" />
<path d="M1002.3,183.89L1007.3,183.89" style="fill:none;stroke:#5B1616" />
<path d="M1011.2,178.04L1011.2,180.24" style="fill:none;stroke:#5B1616" />
<path d="M1008.7,178.04L1013.7,178.04" style="fill:none;stroke:#5B1616" />
<path d="M1008.7,180.24L1013.7,180.24" style="fill:none;stroke:#5B1616" />
<path d="M1017.6,174.37L1017.6,176.24" style="fill:none;stroke:#5B1616" />
<path d="M1015.1,174.37L1020.1,174.37" style="fill:none;stroke:#5B1616" />
<path d="M1015.1,176.24L1020.1,176.24" style="fill:none;stroke:#5B1616" />
<path d="M1024,169.01L1024,171.28" style="fill:none;stroke:#5B1616" />
<path d="M1021.5,169.01L1026.5,169.01" style="fill:none;stroke:#5B1616" />
<path d="M1021.5,171.28L1026.5,171.28" style="fill:none;stroke:#5B1616" />
<path d="M1030.4,163.51L1030.4,166.35" style="fill:none;stroke:#5B1616" />
<path d="M1027.9,163.51L1032.9,163.51" style="fill:none;stroke:#5B1616" />
<path d="M1027.9,166.35L1032.9,166.35" style="fill:none;stroke:#5B1616" />
<path d="M1036.7,159.87L1036.7,161.32" style="fill:none;stroke:#5B1616" />
<path d="M1034.2,159.87L1039.2,159.87" style="fill:none;stroke:#5B1616" />
<path d="M1034.2,161.32L1039.2,161.32" style="fill:none;stroke:#5B1616" />
<path d="M1043.1,153.98L1043.1,156.54" style="fill:none;stroke:#5B1616" />
<path d="M1040.6,153.98L1045.6,153.98" style="fill:none;stroke:#5B1616" />
<path d="M1040.6,156.54L1045.6,156.54" style="fill:none;stroke:#5B1616" />
<path d="M1049.5,151.28L1049.5,153.14" style="fill:none;stroke:#5B1616" />
<path d="M1047,151.28L1052,151.28" style="fill:none;stroke:#5B1616" />
<path d="M1047,153.14L1052,153.14" style="fill:none;stroke:#5B1616" />
<path d="M1055.9,147.98L1055.9,150.33" style="fill:none;stroke:#5B1616" />
<path d="M1053.4,147.98L1058.4,147.98" style="fill:none;stroke:#5B1616" />
<path d="M1053.4,150.33L1058.4,150.33" style="fill:none;stroke:#5B1616" />
<path d="M1062.2,143.31L1062.2,145.69" style="fill:none;stroke:#5B1616" />
<path d="M1059.7,143.31L1064.7,143.31" style="fill:none;stroke:#5B1616" />
<path d="M1059.7,145.69L1064.7,145.69" style="fill:none;stroke:#5B1616" />
<path d="M1068.6,140.6L1068.6,141.74" style="fill:none;stroke:#5B1616" />
<path d="M1066.1,140.6L1071.1,140.6" style="fill:none;stroke:#5B1616" />
<path d="M1066.1,141.74L1071.1,141.74" style="fill:none;stroke:#5B1616" />
<path d="M1075,134.54L1075,136.53" style="fill:none;stroke:#5B1616" />
<path d="M1072.5,134.54L1077.5,134.54" style="fill:none;stroke:#5B1616" />
<path d="M1072.5,136.53L1077.5,136.53" style="fill:none;stroke:#5B1616" />
<path d="M206.21,155.86A5,5 0 1 1 196.21,155.86A5,5 0 1 1 206.21,155.86Z" style="fill:#5B1616" />
<path d="M212.59,158.91A5,5 0 1 1 202.59,158.91A5,5 0 1 1 212.59,158.91Z" style="fill:#5B1616" />
<path d="M218.97,161.67A5,5 0 1 1 208.97,161.67A5,5 0 1 1 218.97,161.67Z" style="fill:#5B1616" />
<path d="M225.34,165.83A5,5 0 1 1 215.34,165.83A5,5 0 1 1 225.34,165.83Z" style="fill:#5B1616" />
<path d="M231.72,169.35A5,5 0 1 1 221.72,169.35A5,5 0 1 1 231.72,169.35Z" style="fill:#5B1616" />
<path d="M238.1,172.8A5,5 0 1 1 228.1,172.8A5,5 0 1 1 238.1,172.8Z" style="fill:#5B1616" />
<path d="M244.48,175.83A5,5 0 1 1 234.48,175.83A5,5 0 1 1 244.48,175.83Z" style="fill:#5B1616" />
<path d="M250.86,178.48A5,5 0 1 1 240.86,178.48A5,5 0 1 1 250.86,178.48Z" style="fill:#5B1616" />
<path d="M257.23,182.5A5,5 0 1 1 247.23,182.5A5,5 0 1 1 257.23,182.5Z" style="fill:#5B1616" />
<path d="M263.61,186.78A5,5 0 1 1 253.61,186.78A5,5 0 1 1 263.61,186.78Z" style="fill:#5B1616" />
<path d="M269.99,190.3A5,5 0 1 1 259.99,190.3A5,5 0 1 1 269.99,190.3Z" style="fill:#5B1616" />
<path d="M276.37,195.3A5,5 0 1 1 266.37,195.3A5,5 0 1 1 276.37,195.3Z" style="fill:#5B1616" />
<path d="M282.75,198.96A5,5 0 1 1 272.75,198.96A5,5 0 1 1 282.75,198.96Z" style="fill:#5B1616" />
<path d="M289.12,203.99A5,5 0 1 1 279.12,203.99A5,5 0 1 1 289.12,203.99Z" style="fill:#5B1616" />
<path d="M295.5,206.17A5,5 0 1 1 285.5,206.17A5,5 0 1 1 295.5,206.17Z" style="fill:#5B1616" />
<path d="M301.88,211.63A5,5 0 1 1 291.88,211.63A5,5 0 1 1 301.88,211.63Z" style="fill:#5B1616" />
<path d="M308.26,216.41A5,5 0 1 1 298.26,216.41A5,5 0 1 1 308.26,216.41Z" style="fill:#5B1616" />
<path d="M314.64,220.67A5,5 0 1 1 304.64,220.67A5,5 0 1 1 314.64,220.67Z" style="fill:#5B1616" />
<path d="M321.01,227.99A5,5 0 1 1 311.01,227.99A5,5 0 1 1 321.01,227.99Z" style="fill:#5B1616" />
<path d="M327.39,230.29A5,5 0 1 1 317.39,230.29A5,5 0 1 1 327.39,230.29Z" style="fill:#5B1616" />
<path d="M333.77,237.06A5,5 0 1 1 323.77,237.06A5,5 0 1 1 333.77,237.06Z" style="fill:#5B1616" />
<path d="M340.15,245.71A5,5 0 1 1 330.15,245.71A5,5 0 1 1 340.15,245.71Z" style="fill:#5B1616" />
<path d="M346.53,251.12A5,5 0 1 1 336.53,251.12A5,5 0 1 1 346.53,251.12Z" style="fill:#5B1616" />
<path d="M352.9,256.24A5,5 0 1 1 342.9,256.24A5,5 0 1 1 352.9,256.24Z" style="fill:#5B1616" />
<path d="M359.28,262.26A5,5 0 1 1 349.28,262.26A5,5 0 1 1 359.28,262.26Z" style="fill:#5B1616" />
<path d="M365.66,270.79A5,5 0 1 1 355.66,270.79A5,5 0 1 1 365.66,270.79Z" style="fill:#5B1616" />
<path d="M372.04,275.9A5,5 0 1 1 362.04,275.9A5,5 0 1 1 372.04,275.9Z" style="fill:#5B1616" />
<path d="M378.42,282.64A5,5 0 1 1 368.42,282.64A5,5 0 1 1 378.42,282.64Z" style="fill:#5B1616" />
<path d="M384.79,293.7A5,5 0 1 1 374.79,293.7A5,5 0 1 1 384.79,293.7Z" style="fill:#5B1616" />
<path d="M391.17,299.07A5,5 0 1 1 381.17,299.07A5,5 0 1 1 391.17,299.07Z" style="fill:#5B1616" />
<path d="M397.55,309.37A5,5 0 1 1 387.55,309.37A5,5 0 1 1 397.55,309.37Z" style="fill:#5B1616" />
<path d="M403.93,315.74A5,5 0 1 1 393.93,315.74A5,5 0 1 1 403.93,315.74Z" style="fill:#5B1616" />
<path d="M410.31,321.99A5,5 0 1 1 400.31,321.99A5,5 0 1 1 410.31,321.99Z" style="fill:#5B1616" />
<path d="M416.68,330.76A5,5 0 1 1 406.68,330.76A5,5 0 1 1 416.68,330.76Z" style="fill:#5B1616" />
<path d="M423.06,340.17A5,5 0 1 1 413.06,340.17A5,5 0 1 1 423.06,340.17Z" style="fill:#5B1616" />
<path d="M429.44,349.74A5,5 0 1 1 419.44,349.74A5,5 0 1 1 429.44,349.74Z" style="fill:#5B1616" />
<path d="M435.82,356.91A5,5 0 1 1 425.82,356.91A5,5 0 1 1 435.82,356.91Z" style="fill:#5B1616" />
<path d="M442.2,367.07A5,5 0 1 1 432.2,367.07A5,5 0 1 1 442.2,367.07Z" style="fill:#5B1616" />
<path d="M448.57,378.9A5,5 0 1 1 438.57,378.9A5,5 0 1 1 448.57,378.9Z" style="fill:#5B1616" />
<path d="M454.95,387.79A5,5 0 1 1 444.95,387.79A5,5 0 1 1 454.95,387.79Z" style="fill:#5B1616" />
<path d="M461.33,398.64A5,5 0 1 1 451.33,398.64A5,5 0 1 1 461.33,398.64Z" style="fill:#5B1616" />
<path d="M467.71,408.33A5,5 0 1 1 457.71,408.33A5,5 0 1 1 467.71,408.33Z" style="fill:#5B1616" />
<path d="M474.09,416.68A5,5 0 1 1 464.09,416.68A5,5 0 1 1 474.09,416.68Z" style="fill:#5B1616" />
<path d="M480.46,432.09A5,5 0 1 1 470.46,432.09A5,5 0 1 1 480.46,432.09Z" style="fill:#5B1616" />
<path d="M486.84,444.12A5,5 0 1 1 476.84,444.12A5,5 0 1 1 486.84,444.12Z" style="fill:#5B1616" />
<path d="M493.22,455.6A5,5 0 1 1 483.22,455.6A5,5 0 1 1 493.22,455.6Z" style="fill:#5B1616" />
<path d="M499.6,471.79A5,5 0 1 1 489.6,471.79A5,5 0 1 1 499.6,471.79Z" style="fill:#5B1616" />
<path d="M505.98,483.13A5,5 0 1 1 495.98,483.13A5,5 0 1 1 505.98,483.13Z" style="fill:#5B1616" />
<path d="M512.35,497.01A5,5 0 1 1 502.35,497.01A5,5 0 1 1 512.35,497.01Z" style="fill:#5B1616" />
<path d="M518.73,505.58A5,5 0 1 1 508.73,505.58A5,5 0 1 1 518.73,505.58Z" style="fill:#5B1616" />
<path d="M525.11,522.49A5,5 0 1 1 515.11,522.49A5,5 0 1 1 525.11,522.49Z" style="fill:#5B1616" />
<path d="M531.49,539.15A5,5 0 1 1 521.49,539.15A5,5 0 1 1 531.49,539.15Z" style="fill:#5B1616" />
<path d="M537.87,550.6A5,5 0 1 1 527.87,550.6A5,5 0 1 1 537.87,550.6Z" style="fill:#5B1616" />
<path d="M544.24,564.01A5,5 0 1 1 534.24,564.01A5,5 0 1 1 544.24,564.01Z" style="fill:#5B1616" />
<path d="M550.62,578.94A5,5 0 1 1 540.62,578.94A5,5 0 1 1 550.62,578.94Z" style="fill:#5B1616" />
<path d="M557,592.14A5,5 0 1 1 547,592.14A5,5 0 1 1 557,592.14Z" style="fill:#5B1616" />
<path d="M563.38,603.25A5,5 0 1 1 553.38,603.25A5,5 0 1 1 563.38,603.25Z" style="fill:#5B1616" />
<path d="M569.76,609.02A5,5 0 1 1 559.76,609.02A5,5 0 1 1 569.76,609.02Z" style="fill:#5B1616" />
<path d="M576.14,615.98A5,5 0 1 1 566.14,615.98A5,5 0 1 1 576.14,615.98Z" style="fill:#5B1616" />
<path d="M582.51,621.17A5,5 0 1 1 572.51,621.17A5,5 0 1 1 582.51,621.17Z" style="fill:#5B1616" />
<path d="M588.89,632.59A5,5 0 1 1 578.89,632.59A5,5 0 1 1 588.89,632.59Z" style="fill:#5B1616" />
<path d="M595.27,632.07A5,5 0 1 1 585.27,632.07A5,5 0 1 1 595.27,632.07Z" style="fill:#5B1616" />
<path d="M601.65,640.94A5,5 0 1 1 591.65,640.94A5,5 0 1 1 601.65,640.94Z" style="fill:#5B1616" />
<path d="M608.03,639.42A5,5 0 1 1 598.03,639.42A5,5 0 1 1 608.03,639.42Z" style="fill:#5B1616" />
<path d="M614.4,633.47A5,5 0 1 1 604.4,633.47A5,5 0 1 1 614.4,633.47Z" style="fill:#5B1616" />
<path d="M620.78,621.9A5,5 0 1 1 610.78,621.9A5,5 0 1 1 620.78,621.9Z" style="fill:#5B1616" />
<path d="M627.16,612.05A5,5 0 1 1 617.16,612.05A5,5 0 1 1 627.16,612.05Z" style="fill:#5B1616" />
<path d="M633.54,595.47A5,5 0 1 1 623.54,595.47A5,5 0 1 1 633.54,595.47Z" style="fill:#5B1616" />
<path d="M639.92,581.53A5,5 0 1 1 629.92,581.53A5,5 0 1 1 639.92,581.53Z" style="fill:#5B1616" />
<path d="M646.29,567.46A5,5 0 1 1 636.29,567.46A5,5 0 1 1 646.29,567.46Z" style="fill:#5B1616" />
<path d="M652.67,557.94A5,5 0 1 1 642.67,557.94A5,5 0 1 1 652.67,557.94Z" style="fill:#5B1616" />
<path d="M659.05,549.6A5,5 0 1 1 649.05,549.6A5,5 0 1 1 659.05,549.6Z" style="fill:#5B1616" />
<path d="M665.43,552.81A5,5 0 1 1 655.43,552.81A5,5 0 1 1 665.43,552.81Z" style="fill:#5B1616" />
<path d="M671.81,559.28A5,5 0 1 1 661.81,559.28A5,5 0 1 1 671.81,559.28Z" style="fill:#5B1616" />
<path d="M678.18,583.24A5,5 0 1 1 668.18,583.24A5,5 0 1 1 678.18,583.24Z" style="fill:#5B1616" />
<path d="M684.56,610.5A5,5 0 1 1 674.56,610.5A5,5 0 1 1 684.56,610.5Z" style="fill:#5B1616" />
<path d="M690.94,640.47A5,5 0 1 1 680.94,640.47A5,5 0 1 1 690.94,640.47Z" style="fill:#5B1616" />
<path d="M697.32,676.17A5,5 0 1 1 687.32,676.17A5,5 0 1 1 697.32,676.17Z" style="fill:#5B1616" />
<path d="M703.7,707.73A5,5 0 1 1 693.7,707.73A5,5 0 1 1 703.7,707.73Z" style="fill:#5B1616" />
<path d="M710.07,734.35A5,5 0 1 1 700.07,734.35A5,5 0 1 1 710.07,734.35Z" style="fill:#5B1616" />
<path d="M716.45,760.94A5,5 0 1 1 706.45,760.94A5,5 0 1 1 716.45,760.94Z" style="fill:#5B1616" />
<path d="M722.83,775.28A5,5 0 1 1 712.83,775.28A5,5 0 1 1 722.83,775.28Z" style="fill:#5B1616" />
<path d="M729.21,789.82A5,5 0 1 1 719.21,789.82A5,5 0 1 1 729.21,789.82Z" style="fill:#5B1616" />
<path d="M735.59,803.29A5,5 0 1 1 725.59,803.29A5,5 0 1 1 735.59,803.29Z" style="fill:#5B1616" />
<path d="M741.96,799.13A5,5 0 1 1 731.96,799.13A5,5 0 1 1 741.96,799.13Z" style="fill:#5B1616" />
<path d="M748.34,800.23A5,5 0 1 1 738.34,800.23A5,5 0 1 1 748.34,800.23Z" style="fill:#5B1616" />
<path d="M754.72,802.69A5,5 0 1 1 744.72,802.69A5,5 0 1 1 754.72,802.69Z" style="fill:#5B1616" />
<path d="M761.1,783.86A5,5 0 1 1 751.1,783.86A5,5 0 1 1 761.1,783.86Z" style="fill:#5B1616" />
<path d="M767.48,761.37A5,5 0 1 1 757.48,761.37A5,5 0 1 1 767.48,761.37Z" style="fill:#5B1616" />
<path d="M773.85,750.76A5,5 0 1 1 763.85,750.76A5,5 0 1 1 773.85,750.76Z" style="fill:#5B1616" />
<path d="M780.23,727.27A5,5 0 1 1 770.23,727.27A5,5 0 1 1 780.23,727.27Z" style="fill:#5B1616" />
<path d="M786.61,700.68A5,5 0 1 1 776.61,700.68A5,5 0 1 1 786.61,700.68Z" style="fill:#5B1616" />
<path d="M792.99,676.5A5,5 0 1 1 782.99,676.5A5,5 0 1 1 792.99,676.5Z" style="fill:#5B1616" />
<path d="M799.37,667.58A5,5 0 1 1 789.37,667.58A5,5 0 1 1 799.37,667.58Z" style="fill:#5B1616" />
<path d="M805.74,638.11A5,5 0 1 1 795.74,638.11A5,5 0 1 1 805.74,638.11Z" style="fill:#5B1616" />
<path d="M812.12,614.07A5,5 0 1 1 802.12,614.07A5,5 0 1 1 812.12,614.07Z" style="fill:#5B1616" />
<path d="M818.5,591.68A5,5 0 1 1 808.5,591.68A5,5 0 1 1 818.5,591.68Z" style="fill:#5B1616" />
<path d="M824.88,567.04A5,5 0 1 1 814.88,567.04A5,5 0 1 1 824.88,567.04Z" style="fill:#5B1616" />
<path d="M831.26,539.32A5,5 0 1 1 821.26,539.32A5,5 0 1 1 831.26,539.32Z" style="fill:#5B1616" />
<path d="M837.63,518.22A5,5 0 1 1 827.63,518.22A5,5 0 1 1 837.63,518.22Z" style="fill:#5B1616" />
<path d="M844.01,497.25A5,5 0 1 1 834.01,497.25A5,5 0 1 1 844.01,497.25Z" style="fill:#5B1616" />
<path d="M850.39,474.3A5,5 0 1 1 840.39,474.3A5,5 0 1 1 850.39,474.3Z" style="fill:#5B1616" />
<path d="M856.77,459.62A5,5 0 1 1 846.77,459.62A5,5 0 1 1 856.77,459.62Z" style="fill:#5B1616" />
<path d="M863.15,437.24A5,5 0 1 1 853.15,437.24A5,5 0 1 1 863.15,437.24Z" style="fill:#5B1616" />
<path d="M869.52,421.08A5,5 0 1 1 859.52,421.08A5,5 0 1 1 869.52,421.08Z" style="fill:#5B1616" />
<path d="M875.9,404.4A5,5 0 1 1 865.9,404.4A5,5 0 1 1 875.9,404.4Z" style="fill:#5B1616" />
<path d="M882.28,385.83A5,5 0 1 1 872.28,385.83A5,5 0 1 1 882.28,385.83Z" style="fill:#5B1616" />
<path d="M888.66,369.72A5,5 0 1 1 878.66,369.72A5,5 0 1 1 888.66,369.72Z" style="fill:#5B1616" />
<path d="M895.04,354.72A5,5 0 1 1 885.04,354.72A5,5 0 1 1 895.04,354.72Z" style="fill:#5B1616" />
<path d="M901.41,342.03A5,5 0 1 1 891.41,342.03A5,5 0 1 1 901.41,342.03Z" style="fill:#5B1616" />
<path d="M907.79,328.22A5,5 0 1 1 897.79,328.22A5,5 0 1 1 907.79,328.22Z" style="fill:#5B1616" />
<path d="M914.17,313.69A5,5 0 1 1 904.17,313.69A5,5 0 1 1 914.17,313.69Z" style="fill:#5B1616" />
<path d="M920.55,297.96A5,5 0 1 1 910.55,297.96A5,5 0 1 1 920.55,297.96Z" style="fill:#5B1616" />
<path d="M926.93,288.22A5,5 0 1 1 916.93,288.22A5,5 0 1 1 926.93,288.22Z" style="fill:#5B1616" />
<path d="M933.31,277.41A5,5 0 1 1 923.31,277.41A5,5 0 1 1 933.31,277.41Z" style="fill:#5B1616" />
<path d="M939.68,265.11A5,5 0 1 1 929.68,265.11A5,5 0 1 1 939.68,265.11Z" style="fill:#5B1616" />
<path d="M946.06,256.47A5,5 0 1 1 936.06,256.47A5,5 0 1 1 946.06,256.47Z" style="fill:#5B1616" />
<path d="M952.44,247.04A5,5 0 1 1 942.44,247.04A5,5 0 1 1 952.44,247.04Z" style="fill:#5B1616" />
<path d="M958.82,236.59A5,5 0 1 1 948.82,236.59A5,5 0 1 1 958.82,236.59Z" style="fill:#5B1616" />
<path d="M965.2,229.36A5,5 0 1 1 955.2,229.36A5,5 0 1 1 965.2,229.36Z" style="fill:#5B1616" />
<path d="M971.57,221.26A5,5 0 1 1 961.57,221.26A5,5 0 1 1 971.57,221.26Z" style="fill:#5B1616" />
<path d="M977.95,213.41A5,5 0 1 1 967.95,213.41A5,5 0 1 1 977.95,213.41Z" style="fill:#5B1616" />
<path d="M984.33,205.79A5,5 0 1 1 974.33,205.79A5,5 0 1 1 984.33,205.79Z" style="fill:#5B1616" />
<path d="M990.71,201.54A5,5 0 1 1 980.71,201.54A5,5 0 1 1 990.71,201.54Z" style="fill:#5B1616" />
<path d="M997.09,194.49A5,5 0 1 1 987.09,194.49A5,5 0 1 1 997.09,194.49Z" style="fill:#5B1616" />
<path d="M1003.5,188.87A5,5 0 1 1 993.46,188.87A5,5 0 1 1 1003.5,188.87Z" style="fill:#5B1616" />
<path d="M1009.8,182.32A5,5 0 1 1 999.84,182.32A5,5 0 1 1 1009.8,182.32Z" style="fill:#5B1616" />
<path d="M1016.2,179.14A5,5 0 1 1 1006.2,179.14A5,5 0 1 1 1016.2,179.14Z" style="fill:#5B1616" />
<path d="M1022.6,175.31A5,5 0 1 1 1012.6,175.31A5,5 0 1 1 1022.6,175.31Z" style="fill:#5B1616" />
<path d="M1029,170.15A5,5 0 1 1 1019,170.15A5,5 0 1 1 1029,170.15Z" style="fill:#5B1616" />
<path d="M1035.4,164.93A5,5 0 1 1 1025.4,164.93A5,5 0 1 1 1035.4,164.93Z" style="fill:#5B1616" />
<path d="M1041.7,160.6A5,5 0 1 1 1031.7,160.6A5,5 0 1 1 1041.7,160.6Z" style="fill:#5B1616" />
<path d="M1048.1,155.26A5,5 0 1 1 1038.1,155.26A5,5 0 1 1 1048.1,155.26Z" style="fill:#5B1616" />
<path d="M1054.5,152.21A5,5 0 1 1 1044.5,152.21A5,5 0 1 1 1054.5,152.21Z" style="fill:#5B1616" />
<path d="M1060.9,149.16A5,5 0 1 1 1050.9,149.16A5,5 0 1 1 1060.9,149.16Z" style="fill:#5B1616" />
<path d="M1067.2,144.5A5,5 0 1 1 1057.2,144.5A5,5 0 1 1 1067.2,144.5Z" style="fill:#5B1616" />
<path d="M1073.6,141.17A5,5 0 1 1 1063.6,141.17A5,5 0 1 1 1073.6,141.17Z" style="fill:#5B1616" />
<path d="M1080,135.54A5,5 0 1 1 1070,135.54A5,5 0 1 1 1080,135.54Z" style="fill:#5B1616" />
<path d="M201.21,974.14L1075,974.14" style="fill:none;stroke:#000000" />
<path d="M1075,108.82L1075,974.14" style="fill:none;stroke:#000000" />
<path d="M201.21,160.59L207.59,163.76L213.97,167.02L220.34,170.36L226.72,173.78L233.1,177.3L239.48,180.9L245.86,184.6L252.23,188.39L258.61,192.28L264.99,196.28L271.37,200.37L277.75,204.58L284.12,208.9L290.5,213.34L296.88,217.89L303.26,222.57L309.64,227.37L316.01,232.3L322.39,237.36L328.77,242.56L335.15,247.89L341.53,253.38L347.9,259.01L354.28,264.79L360.66,270.73L367.04,276.82L373.42,283.08L379.79,289.51L386.17,296.1L392.55,302.87L398.93,309.81L405.31,316.93L411.68,324.24L418.06,331.73L424.44,339.4L430.82,347.27L437.2,355.32L443.57,363.56L449.95,371.99L456.33,380.61L462.71,389.42L469.09,398.41L475.46,407.59L481.84,416.94L488.22,426.46L494.6,436.15L500.98,445.99L507.35,455.98L513.73,466.09L520.11,476.33L526.49,486.67L532.87,497.09L539.24,507.57L545.62,518.09L552,528.63L558.38,539.15L564.76,549.62L571.14,560.01L577.51,570.29L583.89,580.4L590.27,590.32L596.65,599.98L603.03,609.36L609.4,618.39L615.78,627.04L622.16,635.23L628.54,642.93L634.92,650.08L641.29,656.63L647.67,662.52L654.05,667.71L660.43,672.14L666.81,675.78L673.18,678.59L679.56,680.53L685.94,681.57L692.32,681.68L698.7,680.86L705.07,679.1L711.45,676.38L717.83,672.72L724.21,668.14L730.59,662.64L736.96,656.26L743.34,649.04L749.72,641L756.1,632.21L762.48,622.7L768.85,612.53L775.23,601.76L781.61,590.46L787.99,578.67L794.37,566.46L800.74,553.89L807.12,541.02L813.5,527.91L819.88,514.61L826.26,501.19L832.63,487.68L839.01,474.14L845.39,460.62L851.77,447.14L858.15,433.76L864.52,420.49L870.9,407.38L877.28,394.45L883.66,381.72L890.04,369.22L896.41,356.95L902.79,344.94L909.17,333.19L915.55,321.72L921.93,310.53L928.31,299.63L934.68,289.02L941.06,278.7L947.44,268.68L953.82,258.94L960.2,249.5L966.57,240.35L972.95,231.48L979.33,222.88L985.71,214.57L992.09,206.52L998.46,198.73L1004.8,191.2L1011.2,183.92L1017.6,176.88L1024,170.08L1030.4,163.51L1036.7,157.17L1043.1,151.03L1049.5,145.11L1055.9,139.39L1062.2,133.87L1068.6,128.54L1075,123.38" style="fill:none;stroke:#5B1616;stroke-width:2" />
<path d="M1013,927.49A8,8 0 1 1 997,927.49A8,8 0 1 1 1013,927.49Z" style="fill:#5B1616" />
<text x="853.95" y="-920.9" transform="scale(1, -1)"
	style="font-family:Helvetica;font-weight:normal;font-style:normal;font-size:28px">23.5 GHz</text>
</g>
</svg>
