<?xml version="1.0"?>
<!-- Generated by SVGo and Plotinum VG -->
<svg width="1080pt" height="1080pt" viewBox="0 0 1080 1080"
	xmlns="http://www.w3.org/2000/svg"
	xmlns:xlink="http://www.w3.org/1999/xlink">
<g transform="scale(1, -1) translate(0, -1080)">
<path d="M0,0L1080,0L1080,1080L0,1080Z" style="fill:#-8000000000000000-8000000000000000-8000000000000000;fill-opacity:0" />
<text x="533.05" y="-1039.5" transform="scale(1, -1)"
	style="font-family:Helvetica;font-weight:normal;font-style:normal;font-size:50px"> </text>
<text x="446.05" y="-11.039" transform="scale(1, -1)"
	style="font-family:Helvetica;font-weight:normal;font-style:normal;font-size:36px">Pump Power (mW)</text>
<text x="236.58" y="-71.258" transform="scale(1, -1)"
	style="font-family:Helvetica;font-weight:normal;font-style:normal;font-size:36px">0</text>
<text x="427.41" y="-71.258" transform="scale(1, -1)"
	style="font-family:Helvetica;font-weight:normal;font-style:normal;font-size:36px">50</text>
<text x="618.25" y="-71.258" transform="scale(1, -1)"
	style="font-family:Helvetica;font-weight:normal;font-style:normal;font-size:36px">100</text>
<text x="819.09" y="-71.258" transform="scale(1, -1)"
	style="font-family:Helvetica;font-weight:normal;font-style:normal;font-size:36px">150</text>
<text x="1019.9" y="-71.258" transform="scale(1, -1)"
	style="font-family:Helvetica;font-weight:normal;font-style:normal;font-size:36px">200</text>
<path d="M246.59,116.44L246.59,108.44" style="fill:none;stroke:#000000;stroke-width:1.5" />
<path d="M347.01,112.44L347.01,108.44" style="fill:none;stroke:#000000;stroke-width:1.5" />
<path d="M447.43,116.44L447.43,108.44" style="fill:none;stroke:#000000;stroke-width:1.5" />
<path d="M547.85,112.44L547.85,108.44" style="fill:none;stroke:#000000;stroke-width:1.5" />
<path d="M648.28,116.44L648.28,108.44" style="fill:none;stroke:#000000;stroke-width:1.5" />
<path d="M748.7,112.44L748.7,108.44" style="fill:none;stroke:#000000;stroke-width:1.5" />
<path d="M849.12,116.44L849.12,108.44" style="fill:none;stroke:#000000;stroke-width:1.5" />
<path d="M949.55,112.44L949.55,108.44" style="fill:none;stroke:#000000;stroke-width:1.5" />
<path d="M1050,116.44L1050,108.44" style="fill:none;stroke:#000000;stroke-width:1.5" />
<path d="M146.16,108.44L1050,108.44" style="fill:none;stroke:#000000;stroke-width:1.5" />
<g transform="rotate(90)">
<text x="429.27" y="29.18" transform="scale(1, -1)"
	style="font-family:Helvetica;font-weight:normal;font-style:normal;font-size:36px">FWHM (MHz)</text>
</g>
<text x="87.869" y="-168.82" transform="scale(1, -1)"
	style="font-family:Helvetica;font-weight:normal;font-style:normal;font-size:36px">90</text>
<text x="87.869" y="-355.18" transform="scale(1, -1)"
	style="font-family:Helvetica;font-weight:normal;font-style:normal;font-size:36px">94</text>
<text x="87.869" y="-541.55" transform="scale(1, -1)"
	style="font-family:Helvetica;font-weight:normal;font-style:normal;font-size:36px">98</text>
<text x="67.848" y="-727.92" transform="scale(1, -1)"
	style="font-family:Helvetica;font-weight:normal;font-style:normal;font-size:36px">102</text>
<text x="67.848" y="-914.28" transform="scale(1, -1)"
	style="font-family:Helvetica;font-weight:normal;font-style:normal;font-size:36px">106</text>
<path d="M153.91,177.89L145.91,177.89" style="fill:none;stroke:#000000;stroke-width:1.5" />
<path d="M149.91,271.07L145.91,271.07" style="fill:none;stroke:#000000;stroke-width:1.5" />
<path d="M153.91,364.25L145.91,364.25" style="fill:none;stroke:#000000;stroke-width:1.5" />
<path d="M149.91,457.44L145.91,457.44" style="fill:none;stroke:#000000;stroke-width:1.5" />
<path d="M153.91,550.62L145.91,550.62" style="fill:none;stroke:#000000;stroke-width:1.5" />
<path d="M149.91,643.8L145.91,643.8" style="fill:none;stroke:#000000;stroke-width:1.5" />
<path d="M153.91,736.99L145.91,736.99" style="fill:none;stroke:#000000;stroke-width:1.5" />
<path d="M149.91,830.17L145.91,830.17" style="fill:none;stroke:#000000;stroke-width:1.5" />
<path d="M153.91,923.35L145.91,923.35" style="fill:none;stroke:#000000;stroke-width:1.5" />
<path d="M145.91,110.32L145.91,968.14" style="fill:none;stroke:#000000;stroke-width:1.5" />
<path d="M252.59,110.32A6,6 0 1 1 240.59,110.32A6,6 0 1 1 252.59,110.32Z" style="fill:#1BAA8B" />
<path d="M146.16,876.76L1050,876.76" style="fill:none;stroke:#000000" />
<path d="M1050,177.89L1050,876.76" style="fill:none;stroke:#000000" />
<path d="M246.59,177.89L246.59,110.32" style="fill:none;stroke:#1BAA8B;stroke-width:4;stroke-dasharray:15,5" />
<path d="M146.16,110.32L246.59,110.32" style="fill:none;stroke:#7F7F7F;stroke-dasharray:5,5" />
<path d="M573.94,470.55A6,6 0 1 1 561.94,470.55A6,6 0 1 1 573.94,470.55Z" style="fill:#C96892" />
<path d="M146.16,876.76L1050,876.76" style="fill:none;stroke:#000000" />
<path d="M1050,177.89L1050,876.76" style="fill:none;stroke:#000000" />
<path d="M567.94,177.89L567.94,470.55" style="fill:none;stroke:#C96892;stroke-width:4;stroke-dasharray:15,5" />
<path d="M146.16,470.55L567.94,470.55" style="fill:none;stroke:#7F7F7F;stroke-dasharray:5,5" />
<path d="M919.39,968.14A6,6 0 1 1 907.39,968.14A6,6 0 1 1 919.39,968.14Z" style="fill:#637CC6" />
<path d="M146.16,876.76L1050,876.76" style="fill:none;stroke:#000000" />
<path d="M1050,177.89L1050,876.76" style="fill:none;stroke:#000000" />
<path d="M913.39,177.89L913.39,968.14" style="fill:none;stroke:#637CC6;stroke-width:4;stroke-dasharray:15,5" />
<path d="M146.16,968.14L913.39,968.14" style="fill:none;stroke:#7F7F7F;stroke-dasharray:5,5" />
</g>
</svg>
