<?xml version="1.0"?>
<!-- Generated by SVGo and Plotinum VG -->
<svg width="1080pt" height="1080pt" viewBox="0 0 1080 1080"
	xmlns="http://www.w3.org/2000/svg"
	xmlns:xlink="http://www.w3.org/1999/xlink">
<g transform="scale(1, -1) translate(0, -1080)">
<path d="M0,0L1080,0L1080,1080L0,1080Z" style="fill:#-8000000000000000-8000000000000000-8000000000000000;fill-opacity:0" />
<text x="533.05" y="-1039.5" transform="scale(1, -1)"
	style="font-family:Helvetica;font-weight:normal;font-style:normal;font-size:50px"> </text>
<text x="444.04" y="-11.039" transform="scale(1, -1)"
	style="font-family:Helvetica;font-weight:normal;font-style:normal;font-size:36px">Pump Power (mW)</text>
<text x="132.13" y="-71.258" transform="scale(1, -1)"
	style="font-family:Helvetica;font-weight:normal;font-style:normal;font-size:36px">0</text>
<text x="349.08" y="-71.258" transform="scale(1, -1)"
	style="font-family:Helvetica;font-weight:normal;font-style:normal;font-size:36px">50</text>
<text x="566.02" y="-71.258" transform="scale(1, -1)"
	style="font-family:Helvetica;font-weight:normal;font-style:normal;font-size:36px">100</text>
<text x="792.98" y="-71.258" transform="scale(1, -1)"
	style="font-family:Helvetica;font-weight:normal;font-style:normal;font-size:36px">150</text>
<text x="1019.9" y="-71.258" transform="scale(1, -1)"
	style="font-family:Helvetica;font-weight:normal;font-style:normal;font-size:36px">200</text>
<path d="M142.14,116.44L142.14,108.44" style="fill:none;stroke:#000000;stroke-width:1.5" />
<path d="M255.62,112.44L255.62,108.44" style="fill:none;stroke:#000000;stroke-width:1.5" />
<path d="M369.1,116.44L369.1,108.44" style="fill:none;stroke:#000000;stroke-width:1.5" />
<path d="M482.58,112.44L482.58,108.44" style="fill:none;stroke:#000000;stroke-width:1.5" />
<path d="M596.06,116.44L596.06,108.44" style="fill:none;stroke:#000000;stroke-width:1.5" />
<path d="M709.53,112.44L709.53,108.44" style="fill:none;stroke:#000000;stroke-width:1.5" />
<path d="M823.01,116.44L823.01,108.44" style="fill:none;stroke:#000000;stroke-width:1.5" />
<path d="M936.49,112.44L936.49,108.44" style="fill:none;stroke:#000000;stroke-width:1.5" />
<path d="M1050,116.44L1050,108.44" style="fill:none;stroke:#000000;stroke-width:1.5" />
<path d="M142.14,108.44L1050,108.44" style="fill:none;stroke:#000000;stroke-width:1.5" />
<g transform="rotate(90)">
<text x="318.13" y="29.18" transform="scale(1, -1)"
	style="font-family:Helvetica;font-weight:normal;font-style:normal;font-size:36px">Stokes/Anti-Stokes Heights</text>
</g>
<text x="97.871" y="-214.27" transform="scale(1, -1)"
	style="font-family:Helvetica;font-weight:normal;font-style:normal;font-size:36px">1</text>
<text x="67.848" y="-267.63" transform="scale(1, -1)"
	style="font-family:Helvetica;font-weight:normal;font-style:normal;font-size:36px">1.5</text>
<text x="97.871" y="-321" transform="scale(1, -1)"
	style="font-family:Helvetica;font-weight:normal;font-style:normal;font-size:36px">2</text>
<text x="67.848" y="-374.36" transform="scale(1, -1)"
	style="font-family:Helvetica;font-weight:normal;font-style:normal;font-size:36px">2.5</text>
<text x="97.871" y="-427.72" transform="scale(1, -1)"
	style="font-family:Helvetica;font-weight:normal;font-style:normal;font-size:36px">3</text>
<text x="67.848" y="-481.09" transform="scale(1, -1)"
	style="font-family:Helvetica;font-weight:normal;font-style:normal;font-size:36px">3.5</text>
<path d="M143.89,223.34L135.89,223.34" style="fill:none;stroke:#000000;stroke-width:1.5" />
<path d="M139.89,250.02L135.89,250.02" style="fill:none;stroke:#000000;stroke-width:1.5" />
<path d="M143.89,276.7L135.89,276.7" style="fill:none;stroke:#000000;stroke-width:1.5" />
<path d="M139.89,303.39L135.89,303.39" style="fill:none;stroke:#000000;stroke-width:1.5" />
<path d="M143.89,330.07L135.89,330.07" style="fill:none;stroke:#000000;stroke-width:1.5" />
<path d="M139.89,356.75L135.89,356.75" style="fill:none;stroke:#000000;stroke-width:1.5" />
<path d="M143.89,383.43L135.89,383.43" style="fill:none;stroke:#000000;stroke-width:1.5" />
<path d="M139.89,410.11L135.89,410.11" style="fill:none;stroke:#000000;stroke-width:1.5" />
<path d="M143.89,436.79L135.89,436.79" style="fill:none;stroke:#000000;stroke-width:1.5" />
<path d="M139.89,463.47L135.89,463.47" style="fill:none;stroke:#000000;stroke-width:1.5" />
<path d="M143.89,490.16L135.89,490.16" style="fill:none;stroke:#000000;stroke-width:1.5" />
<path d="M135.89,104.32L135.89,968.14" style="fill:none;stroke:#000000;stroke-width:1.5" />
<path d="M142.14,104.32L505.27,474.23L913.79,890.39" style="fill:none;stroke:#7F7F7F;stroke-width:3" />
<path d="M142.14,516.84L1050,516.84" style="fill:none;stroke:#000000" />
<path d="M1050,223.34L1050,516.84" style="fill:none;stroke:#000000" />
<path d="M148.14,191.79A6,6 0 1 1 136.14,191.79A6,6 0 1 1 148.14,191.79Z" style="fill:#1BAA8B" />
<path d="M511.27,309A6,6 0 1 1 499.27,309A6,6 0 1 1 511.27,309Z" style="fill:#1BAA8B" />
<path d="M919.79,968.14A6,6 0 1 1 907.79,968.14A6,6 0 1 1 919.79,968.14Z" style="fill:#1BAA8B" />
</g>
</svg>
