<?xml version="1.0"?>
<!-- Generated by SVGo and Plotinum VG -->
<svg width="1080pt" height="1080pt" viewBox="0 0 1080 1080"
	xmlns="http://www.w3.org/2000/svg"
	xmlns:xlink="http://www.w3.org/1999/xlink">
<g transform="scale(1, -1) translate(0, -1080)">
<path d="M0,0L1080,0L1080,1080L0,1080Z" style="fill:#-8000000000000000-8000000000000000-8000000000000000;fill-opacity:0" />
<text x="331.04" y="-1015.2" transform="scale(1, -1)"
	style="font-family:Helvetica;font-weight:normal;font-style:normal;font-size:80px"> CS2 CABS</text>
<text x="461.72" y="-17.172" transform="scale(1, -1)"
	style="font-family:Helvetica;font-weight:normal;font-style:normal;font-size:56px">Frequency (GHz)</text>
<text x="296.69" y="-119.73" transform="scale(1, -1)"
	style="font-family:Helvetica;font-weight:normal;font-style:normal;font-size:56px">2.35</text>
<text x="482.5" y="-119.73" transform="scale(1, -1)"
	style="font-family:Helvetica;font-weight:normal;font-style:normal;font-size:56px">2.45</text>
<text x="668.31" y="-119.73" transform="scale(1, -1)"
	style="font-family:Helvetica;font-weight:normal;font-style:normal;font-size:56px">2.55</text>
<text x="854.12" y="-119.73" transform="scale(1, -1)"
	style="font-family:Helvetica;font-weight:normal;font-style:normal;font-size:56px">2.65</text>
<path d="M351.19,181.12L351.19,173.12" style="fill:none;stroke:#000000;stroke-width:1.5" />
<path d="M444.09,177.12L444.09,173.12" style="fill:none;stroke:#000000;stroke-width:1.5" />
<path d="M537,181.12L537,173.12" style="fill:none;stroke:#000000;stroke-width:1.5" />
<path d="M629.9,177.12L629.9,173.12" style="fill:none;stroke:#000000;stroke-width:1.5" />
<path d="M722.81,181.12L722.81,173.12" style="fill:none;stroke:#000000;stroke-width:1.5" />
<path d="M815.71,177.12L815.71,173.12" style="fill:none;stroke:#000000;stroke-width:1.5" />
<path d="M908.62,181.12L908.62,173.12" style="fill:none;stroke:#000000;stroke-width:1.5" />
<path d="M1001.5,177.12L1001.5,173.12" style="fill:none;stroke:#000000;stroke-width:1.5" />
<path d="M277.88,173.12L1075,173.12" style="fill:none;stroke:#000000;stroke-width:1.5" />
<g transform="rotate(90)">
<text x="279.65" y="45.391" transform="scale(1, -1)"
	style="font-family:Helvetica;font-weight:normal;font-style:normal;font-size:56px">Spectral Density (uV)</text>
</g>
<text x="145.57" y="-255.24" transform="scale(1, -1)"
	style="font-family:Helvetica;font-weight:normal;font-style:normal;font-size:56px">0.97</text>
<text x="145.57" y="-438.46" transform="scale(1, -1)"
	style="font-family:Helvetica;font-weight:normal;font-style:normal;font-size:56px">3.94</text>
<text x="145.57" y="-621.68" transform="scale(1, -1)"
	style="font-family:Helvetica;font-weight:normal;font-style:normal;font-size:56px">6.91</text>
<text x="145.57" y="-804.91" transform="scale(1, -1)"
	style="font-family:Helvetica;font-weight:normal;font-style:normal;font-size:56px">9.88</text>
<path d="M282.12,177.74L278.12,177.74" style="fill:none;stroke:#000000;stroke-width:1.5" />
<path d="M286.12,269.35L278.12,269.35" style="fill:none;stroke:#000000;stroke-width:1.5" />
<path d="M282.12,360.96L278.12,360.96" style="fill:none;stroke:#000000;stroke-width:1.5" />
<path d="M286.12,452.57L278.12,452.57" style="fill:none;stroke:#000000;stroke-width:1.5" />
<path d="M282.12,544.18L278.12,544.18" style="fill:none;stroke:#000000;stroke-width:1.5" />
<path d="M286.12,635.79L278.12,635.79" style="fill:none;stroke:#000000;stroke-width:1.5" />
<path d="M282.12,727.4L278.12,727.4" style="fill:none;stroke:#000000;stroke-width:1.5" />
<path d="M286.12,819.01L278.12,819.01" style="fill:none;stroke:#000000;stroke-width:1.5" />
<path d="M282.12,910.62L278.12,910.62" style="fill:none;stroke:#000000;stroke-width:1.5" />
<path d="M282.12,910.62L278.12,910.62" style="fill:none;stroke:#000000;stroke-width:1.5" />
<path d="M278.12,177.74L278.12,910.62" style="fill:none;stroke:#000000;stroke-width:1.5" />
<path d="M277.88,207.03L277.88,215.86" style="fill:none;stroke:#1FD3AC" />
<path d="M275.38,207.03L280.38,207.03" style="fill:none;stroke:#1FD3AC" />
<path d="M275.38,215.86L280.38,215.86" style="fill:none;stroke:#1FD3AC" />
<path d="M298.31,203.71L298.31,208.05" style="fill:none;stroke:#1FD3AC" />
<path d="M295.81,203.71L300.81,203.71" style="fill:none;stroke:#1FD3AC" />
<path d="M295.81,208.05L300.81,208.05" style="fill:none;stroke:#1FD3AC" />
<path d="M318.75,198.45L318.75,204.45" style="fill:none;stroke:#1FD3AC" />
<path d="M316.25,198.45L321.25,198.45" style="fill:none;stroke:#1FD3AC" />
<path d="M316.25,204.45L321.25,204.45" style="fill:none;stroke:#1FD3AC" />
<path d="M339.19,205.2L339.19,213.77" style="fill:none;stroke:#1FD3AC" />
<path d="M336.69,205.2L341.69,205.2" style="fill:none;stroke:#1FD3AC" />
<path d="M336.69,213.77L341.69,213.77" style="fill:none;stroke:#1FD3AC" />
<path d="M359.63,214.22L359.63,215.53" style="fill:none;stroke:#1FD3AC" />
<path d="M357.13,214.22L362.13,214.22" style="fill:none;stroke:#1FD3AC" />
<path d="M357.13,215.53L362.13,215.53" style="fill:none;stroke:#1FD3AC" />
<path d="M380.07,208.98L380.07,214.43" style="fill:none;stroke:#1FD3AC" />
<path d="M377.57,208.98L382.57,208.98" style="fill:none;stroke:#1FD3AC" />
<path d="M377.57,214.43L382.57,214.43" style="fill:none;stroke:#1FD3AC" />
<path d="M400.51,210.41L400.51,214.41" style="fill:none;stroke:#1FD3AC" />
<path d="M398.01,210.41L403.01,210.41" style="fill:none;stroke:#1FD3AC" />
<path d="M398.01,214.41L403.01,214.41" style="fill:none;stroke:#1FD3AC" />
<path d="M420.95,199.13L420.95,219.56" style="fill:none;stroke:#1FD3AC" />
<path d="M418.45,199.13L423.45,199.13" style="fill:none;stroke:#1FD3AC" />
<path d="M418.45,219.56L423.45,219.56" style="fill:none;stroke:#1FD3AC" />
<path d="M441.39,208.48L441.39,210.85" style="fill:none;stroke:#1FD3AC" />
<path d="M438.89,208.48L443.89,208.48" style="fill:none;stroke:#1FD3AC" />
<path d="M438.89,210.85L443.89,210.85" style="fill:none;stroke:#1FD3AC" />
<path d="M461.83,206.02L461.83,218.51" style="fill:none;stroke:#1FD3AC" />
<path d="M459.33,206.02L464.33,206.02" style="fill:none;stroke:#1FD3AC" />
<path d="M459.33,218.51L464.33,218.51" style="fill:none;stroke:#1FD3AC" />
<path d="M482.27,206.26L482.27,216.25" style="fill:none;stroke:#1FD3AC" />
<path d="M479.77,206.26L484.77,206.26" style="fill:none;stroke:#1FD3AC" />
<path d="M479.77,216.25L484.77,216.25" style="fill:none;stroke:#1FD3AC" />
<path d="M502.71,205.96L502.71,217.84" style="fill:none;stroke:#1FD3AC" />
<path d="M500.21,205.96L505.21,205.96" style="fill:none;stroke:#1FD3AC" />
<path d="M500.21,217.84L505.21,217.84" style="fill:none;stroke:#1FD3AC" />
<path d="M523.14,210.73L523.14,211.55" style="fill:none;stroke:#1FD3AC" />
<path d="M520.64,210.73L525.64,210.73" style="fill:none;stroke:#1FD3AC" />
<path d="M520.64,211.55L525.64,211.55" style="fill:none;stroke:#1FD3AC" />
<path d="M543.58,215.77L543.58,217.2" style="fill:none;stroke:#1FD3AC" />
<path d="M541.08,215.77L546.08,215.77" style="fill:none;stroke:#1FD3AC" />
<path d="M541.08,217.2L546.08,217.2" style="fill:none;stroke:#1FD3AC" />
<path d="M564.02,223.24L564.02,224.57" style="fill:none;stroke:#1FD3AC" />
<path d="M561.52,223.24L566.52,223.24" style="fill:none;stroke:#1FD3AC" />
<path d="M561.52,224.57L566.52,224.57" style="fill:none;stroke:#1FD3AC" />
<path d="M584.46,221.07L584.46,231.36" style="fill:none;stroke:#1FD3AC" />
<path d="M581.96,221.07L586.96,221.07" style="fill:none;stroke:#1FD3AC" />
<path d="M581.96,231.36L586.96,231.36" style="fill:none;stroke:#1FD3AC" />
<path d="M604.9,251.59L604.9,275.07" style="fill:none;stroke:#1FD3AC" />
<path d="M602.4,251.59L607.4,251.59" style="fill:none;stroke:#1FD3AC" />
<path d="M602.4,275.07L607.4,275.07" style="fill:none;stroke:#1FD3AC" />
<path d="M625.34,279.73L625.34,323.95" style="fill:none;stroke:#1FD3AC" />
<path d="M622.84,279.73L627.84,279.73" style="fill:none;stroke:#1FD3AC" />
<path d="M622.84,323.95L627.84,323.95" style="fill:none;stroke:#1FD3AC" />
<path d="M645.78,324.37L645.78,374.31" style="fill:none;stroke:#1FD3AC" />
<path d="M643.28,324.37L648.28,324.37" style="fill:none;stroke:#1FD3AC" />
<path d="M643.28,374.31L648.28,374.31" style="fill:none;stroke:#1FD3AC" />
<path d="M666.22,414.05L666.22,445.71" style="fill:none;stroke:#1FD3AC" />
<path d="M663.72,414.05L668.72,414.05" style="fill:none;stroke:#1FD3AC" />
<path d="M663.72,445.71L668.72,445.71" style="fill:none;stroke:#1FD3AC" />
<path d="M686.66,561.82L686.66,581.47" style="fill:none;stroke:#1FD3AC" />
<path d="M684.16,561.82L689.16,561.82" style="fill:none;stroke:#1FD3AC" />
<path d="M684.16,581.47L689.16,581.47" style="fill:none;stroke:#1FD3AC" />
<path d="M707.1,683.14L707.1,760.84" style="fill:none;stroke:#1FD3AC" />
<path d="M704.6,683.14L709.6,683.14" style="fill:none;stroke:#1FD3AC" />
<path d="M704.6,760.84L709.6,760.84" style="fill:none;stroke:#1FD3AC" />
<path d="M727.54,645.84L727.54,716.35" style="fill:none;stroke:#1FD3AC" />
<path d="M725.04,645.84L730.04,645.84" style="fill:none;stroke:#1FD3AC" />
<path d="M725.04,716.35L730.04,716.35" style="fill:none;stroke:#1FD3AC" />
<path d="M747.97,472.01L747.97,486.87" style="fill:none;stroke:#1FD3AC" />
<path d="M745.47,472.01L750.47,472.01" style="fill:none;stroke:#1FD3AC" />
<path d="M745.47,486.87L750.47,486.87" style="fill:none;stroke:#1FD3AC" />
<path d="M768.41,382.85L768.41,427.77" style="fill:none;stroke:#1FD3AC" />
<path d="M765.91,382.85L770.91,382.85" style="fill:none;stroke:#1FD3AC" />
<path d="M765.91,427.77L770.91,427.77" style="fill:none;stroke:#1FD3AC" />
<path d="M788.85,333.95L788.85,350.25" style="fill:none;stroke:#1FD3AC" />
<path d="M786.35,333.95L791.35,333.95" style="fill:none;stroke:#1FD3AC" />
<path d="M786.35,350.25L791.35,350.25" style="fill:none;stroke:#1FD3AC" />
<path d="M809.29,296.14L809.29,317.07" style="fill:none;stroke:#1FD3AC" />
<path d="M806.79,296.14L811.79,296.14" style="fill:none;stroke:#1FD3AC" />
<path d="M806.79,317.07L811.79,317.07" style="fill:none;stroke:#1FD3AC" />
<path d="M829.73,282.09L829.73,290.35" style="fill:none;stroke:#1FD3AC" />
<path d="M827.23,282.09L832.23,282.09" style="fill:none;stroke:#1FD3AC" />
<path d="M827.23,290.35L832.23,290.35" style="fill:none;stroke:#1FD3AC" />
<path d="M850.17,273.68L850.17,273.87" style="fill:none;stroke:#1FD3AC" />
<path d="M847.67,273.68L852.67,273.68" style="fill:none;stroke:#1FD3AC" />
<path d="M847.67,273.87L852.67,273.87" style="fill:none;stroke:#1FD3AC" />
<path d="M870.61,251.87L870.61,253.5" style="fill:none;stroke:#1FD3AC" />
<path d="M868.11,251.87L873.11,251.87" style="fill:none;stroke:#1FD3AC" />
<path d="M868.11,253.5L873.11,253.5" style="fill:none;stroke:#1FD3AC" />
<path d="M891.05,242.05L891.05,255.61" style="fill:none;stroke:#1FD3AC" />
<path d="M888.55,242.05L893.55,242.05" style="fill:none;stroke:#1FD3AC" />
<path d="M888.55,255.61L893.55,255.61" style="fill:none;stroke:#1FD3AC" />
<path d="M911.49,253.33L911.49,258.22" style="fill:none;stroke:#1FD3AC" />
<path d="M908.99,253.33L913.99,253.33" style="fill:none;stroke:#1FD3AC" />
<path d="M908.99,258.22L913.99,258.22" style="fill:none;stroke:#1FD3AC" />
<path d="M931.93,240.93L931.93,254.9" style="fill:none;stroke:#1FD3AC" />
<path d="M929.43,240.93L934.43,240.93" style="fill:none;stroke:#1FD3AC" />
<path d="M929.43,254.9L934.43,254.9" style="fill:none;stroke:#1FD3AC" />
<path d="M952.37,255.18L952.37,260.64" style="fill:none;stroke:#1FD3AC" />
<path d="M949.87,255.18L954.87,255.18" style="fill:none;stroke:#1FD3AC" />
<path d="M949.87,260.64L954.87,260.64" style="fill:none;stroke:#1FD3AC" />
<path d="M972.8,247.78L972.8,252.85" style="fill:none;stroke:#1FD3AC" />
<path d="M970.3,247.78L975.3,247.78" style="fill:none;stroke:#1FD3AC" />
<path d="M970.3,252.85L975.3,252.85" style="fill:none;stroke:#1FD3AC" />
<path d="M993.24,237.7L993.24,244.91" style="fill:none;stroke:#1FD3AC" />
<path d="M990.74,237.7L995.74,237.7" style="fill:none;stroke:#1FD3AC" />
<path d="M990.74,244.91L995.74,244.91" style="fill:none;stroke:#1FD3AC" />
<path d="M1013.7,245.47L1013.7,252.5" style="fill:none;stroke:#1FD3AC" />
<path d="M1011.2,245.47L1016.2,245.47" style="fill:none;stroke:#1FD3AC" />
<path d="M1011.2,252.5L1016.2,252.5" style="fill:none;stroke:#1FD3AC" />
<path d="M1034.1,246.23L1034.1,255.82" style="fill:none;stroke:#1FD3AC" />
<path d="M1031.6,246.23L1036.6,246.23" style="fill:none;stroke:#1FD3AC" />
<path d="M1031.6,255.82L1036.6,255.82" style="fill:none;stroke:#1FD3AC" />
<path d="M1054.6,245.15L1054.6,250.44" style="fill:none;stroke:#1FD3AC" />
<path d="M1052.1,245.15L1057.1,245.15" style="fill:none;stroke:#1FD3AC" />
<path d="M1052.1,250.44L1057.1,250.44" style="fill:none;stroke:#1FD3AC" />
<path d="M1075,251.27L1075,259.59" style="fill:none;stroke:#1FD3AC" />
<path d="M1072.5,251.27L1077.5,251.27" style="fill:none;stroke:#1FD3AC" />
<path d="M1072.5,259.59L1077.5,259.59" style="fill:none;stroke:#1FD3AC" />
<path d="M282.88,211.45A5,5 0 1 1 272.88,211.45A5,5 0 1 1 282.88,211.45Z" style="fill:#1FD3AC" />
<path d="M303.31,205.88A5,5 0 1 1 293.31,205.88A5,5 0 1 1 303.31,205.88Z" style="fill:#1FD3AC" />
<path d="M323.75,201.45A5,5 0 1 1 313.75,201.45A5,5 0 1 1 323.75,201.45Z" style="fill:#1FD3AC" />
<path d="M344.19,209.49A5,5 0 1 1 334.19,209.49A5,5 0 1 1 344.19,209.49Z" style="fill:#1FD3AC" />
<path d="M364.63,214.87A5,5 0 1 1 354.63,214.87A5,5 0 1 1 364.63,214.87Z" style="fill:#1FD3AC" />
<path d="M385.07,211.7A5,5 0 1 1 375.07,211.7A5,5 0 1 1 385.07,211.7Z" style="fill:#1FD3AC" />
<path d="M405.51,212.41A5,5 0 1 1 395.51,212.41A5,5 0 1 1 405.51,212.41Z" style="fill:#1FD3AC" />
<path d="M425.95,209.34A5,5 0 1 1 415.95,209.34A5,5 0 1 1 425.95,209.34Z" style="fill:#1FD3AC" />
<path d="M446.39,209.66A5,5 0 1 1 436.39,209.66A5,5 0 1 1 446.39,209.66Z" style="fill:#1FD3AC" />
<path d="M466.83,212.26A5,5 0 1 1 456.83,212.26A5,5 0 1 1 466.83,212.26Z" style="fill:#1FD3AC" />
<path d="M487.27,211.26A5,5 0 1 1 477.27,211.26A5,5 0 1 1 487.27,211.26Z" style="fill:#1FD3AC" />
<path d="M507.71,211.9A5,5 0 1 1 497.71,211.9A5,5 0 1 1 507.71,211.9Z" style="fill:#1FD3AC" />
<path d="M528.14,211.14A5,5 0 1 1 518.14,211.14A5,5 0 1 1 528.14,211.14Z" style="fill:#1FD3AC" />
<path d="M548.58,216.48A5,5 0 1 1 538.58,216.48A5,5 0 1 1 548.58,216.48Z" style="fill:#1FD3AC" />
<path d="M569.02,223.91A5,5 0 1 1 559.02,223.91A5,5 0 1 1 569.02,223.91Z" style="fill:#1FD3AC" />
<path d="M589.46,226.22A5,5 0 1 1 579.46,226.22A5,5 0 1 1 589.46,226.22Z" style="fill:#1FD3AC" />
<path d="M609.9,263.33A5,5 0 1 1 599.9,263.33A5,5 0 1 1 609.9,263.33Z" style="fill:#1FD3AC" />
<path d="M630.34,301.84A5,5 0 1 1 620.34,301.84A5,5 0 1 1 630.34,301.84Z" style="fill:#1FD3AC" />
<path d="M650.78,349.34A5,5 0 1 1 640.78,349.34A5,5 0 1 1 650.78,349.34Z" style="fill:#1FD3AC" />
<path d="M671.22,429.88A5,5 0 1 1 661.22,429.88A5,5 0 1 1 671.22,429.88Z" style="fill:#1FD3AC" />
<path d="M691.66,571.65A5,5 0 1 1 681.66,571.65A5,5 0 1 1 691.66,571.65Z" style="fill:#1FD3AC" />
<path d="M712.1,721.99A5,5 0 1 1 702.1,721.99A5,5 0 1 1 712.1,721.99Z" style="fill:#1FD3AC" />
<path d="M732.54,681.1A5,5 0 1 1 722.54,681.1A5,5 0 1 1 732.54,681.1Z" style="fill:#1FD3AC" />
<path d="M752.97,479.44A5,5 0 1 1 742.97,479.44A5,5 0 1 1 752.97,479.44Z" style="fill:#1FD3AC" />
<path d="M773.41,405.31A5,5 0 1 1 763.41,405.31A5,5 0 1 1 773.41,405.31Z" style="fill:#1FD3AC" />
<path d="M793.85,342.1A5,5 0 1 1 783.85,342.1A5,5 0 1 1 793.85,342.1Z" style="fill:#1FD3AC" />
<path d="M814.29,306.6A5,5 0 1 1 804.29,306.6A5,5 0 1 1 814.29,306.6Z" style="fill:#1FD3AC" />
<path d="M834.73,286.22A5,5 0 1 1 824.73,286.22A5,5 0 1 1 834.73,286.22Z" style="fill:#1FD3AC" />
<path d="M855.17,273.78A5,5 0 1 1 845.17,273.78A5,5 0 1 1 855.17,273.78Z" style="fill:#1FD3AC" />
<path d="M875.61,252.69A5,5 0 1 1 865.61,252.69A5,5 0 1 1 875.61,252.69Z" style="fill:#1FD3AC" />
<path d="M896.05,248.83A5,5 0 1 1 886.05,248.83A5,5 0 1 1 896.05,248.83Z" style="fill:#1FD3AC" />
<path d="M916.49,255.77A5,5 0 1 1 906.49,255.77A5,5 0 1 1 916.49,255.77Z" style="fill:#1FD3AC" />
<path d="M936.93,247.92A5,5 0 1 1 926.93,247.92A5,5 0 1 1 936.93,247.92Z" style="fill:#1FD3AC" />
<path d="M957.37,257.91A5,5 0 1 1 947.37,257.91A5,5 0 1 1 957.37,257.91Z" style="fill:#1FD3AC" />
<path d="M977.8,250.32A5,5 0 1 1 967.8,250.32A5,5 0 1 1 977.8,250.32Z" style="fill:#1FD3AC" />
<path d="M998.24,241.3A5,5 0 1 1 988.24,241.3A5,5 0 1 1 998.24,241.3Z" style="fill:#1FD3AC" />
<path d="M1018.7,248.99A5,5 0 1 1 1008.7,248.99A5,5 0 1 1 1018.7,248.99Z" style="fill:#1FD3AC" />
<path d="M1039.1,251.02A5,5 0 1 1 1029.1,251.02A5,5 0 1 1 1039.1,251.02Z" style="fill:#1FD3AC" />
<path d="M1059.6,247.79A5,5 0 1 1 1049.6,247.79A5,5 0 1 1 1059.6,247.79Z" style="fill:#1FD3AC" />
<path d="M1080,255.43A5,5 0 1 1 1070,255.43A5,5 0 1 1 1080,255.43Z" style="fill:#1FD3AC" />
<path d="M277.88,910.62L1075,910.62" style="fill:none;stroke:#000000" />
<path d="M1075,177.74L1075,910.62" style="fill:none;stroke:#000000" />
<path d="M1038,852.33A8,8 0 1 1 1022,852.33A8,8 0 1 1 1038,852.33Z" style="fill:#1FD3AC" />
<text x="-283.46" y="-839.14" transform="scale(1, -1)"
	style="font-family:Helvetica;font-weight:normal;font-style:normal;font-size:56px">10um Physically Simulated with 1mm &amp; low powers</text>
</g>
</svg>
