<?xml version="1.0"?>
<!-- Generated by SVGo and Plotinum VG -->
<svg width="1080pt" height="1080pt" viewBox="0 0 1080 1080"
	xmlns="http://www.w3.org/2000/svg"
	xmlns:xlink="http://www.w3.org/1999/xlink">
<g transform="scale(1, -1) translate(0, -1080)">
<path d="M0,0L1080,0L1080,1080L0,1080Z" style="fill:#-8000000000000000-8000000000000000-8000000000000000;fill-opacity:0" />
<text x="319.11" y="-1039.5" transform="scale(1, -1)"
	style="font-family:Helvetica;font-weight:normal;font-style:normal;font-size:50px">1 cm UHNA3 CABS</text>
<text x="497.32" y="-11.039" transform="scale(1, -1)"
	style="font-family:Helvetica;font-weight:normal;font-style:normal;font-size:36px">Frequency (GHz)</text>
<text x="226.96" y="-71.258" transform="scale(1, -1)"
	style="font-family:Helvetica;font-weight:normal;font-style:normal;font-size:36px">9.03</text>
<text x="392.71" y="-71.258" transform="scale(1, -1)"
	style="font-family:Helvetica;font-weight:normal;font-style:normal;font-size:36px">9.07</text>
<text x="558.47" y="-71.258" transform="scale(1, -1)"
	style="font-family:Helvetica;font-weight:normal;font-style:normal;font-size:36px">9.12</text>
<text x="724.22" y="-71.258" transform="scale(1, -1)"
	style="font-family:Helvetica;font-weight:normal;font-style:normal;font-size:36px">9.18</text>
<text x="889.97" y="-71.258" transform="scale(1, -1)"
	style="font-family:Helvetica;font-weight:normal;font-style:normal;font-size:36px">9.22</text>
<path d="M261.99,116.44L261.99,108.44" style="fill:none;stroke:#000000;stroke-width:1.5" />
<path d="M344.87,112.44L344.87,108.44" style="fill:none;stroke:#000000;stroke-width:1.5" />
<path d="M427.75,116.44L427.75,108.44" style="fill:none;stroke:#000000;stroke-width:1.5" />
<path d="M510.62,112.44L510.62,108.44" style="fill:none;stroke:#000000;stroke-width:1.5" />
<path d="M593.5,116.44L593.5,108.44" style="fill:none;stroke:#000000;stroke-width:1.5" />
<path d="M676.38,112.44L676.38,108.44" style="fill:none;stroke:#000000;stroke-width:1.5" />
<path d="M759.25,116.44L759.25,108.44" style="fill:none;stroke:#000000;stroke-width:1.5" />
<path d="M842.13,112.44L842.13,108.44" style="fill:none;stroke:#000000;stroke-width:1.5" />
<path d="M925.01,116.44L925.01,108.44" style="fill:none;stroke:#000000;stroke-width:1.5" />
<path d="M1007.9,112.44L1007.9,108.44" style="fill:none;stroke:#000000;stroke-width:1.5" />
<path d="M195.71,108.44L1075,108.44" style="fill:none;stroke:#000000;stroke-width:1.5" />
<g transform="rotate(90)">
<text x="371.42" y="29.18" transform="scale(1, -1)"
	style="font-family:Helvetica;font-weight:normal;font-style:normal;font-size:36px">Spectral Density (uV)</text>
</g>
<text x="87.869" y="-207.91" transform="scale(1, -1)"
	style="font-family:Helvetica;font-weight:normal;font-style:normal;font-size:36px">87.89</text>
<text x="70.52" y="-424.24" transform="scale(1, -1)"
	style="font-family:Helvetica;font-weight:normal;font-style:normal;font-size:36px">245.11</text>
<text x="67.848" y="-640.57" transform="scale(1, -1)"
	style="font-family:Helvetica;font-weight:normal;font-style:normal;font-size:36px">402.32</text>
<text x="67.848" y="-856.9" transform="scale(1, -1)"
	style="font-family:Helvetica;font-weight:normal;font-style:normal;font-size:36px">559.54</text>
<path d="M199.96,108.82L195.96,108.82" style="fill:none;stroke:#000000;stroke-width:1.5" />
<path d="M203.96,216.98L195.96,216.98" style="fill:none;stroke:#000000;stroke-width:1.5" />
<path d="M199.96,325.15L195.96,325.15" style="fill:none;stroke:#000000;stroke-width:1.5" />
<path d="M203.96,433.31L195.96,433.31" style="fill:none;stroke:#000000;stroke-width:1.5" />
<path d="M199.96,541.48L195.96,541.48" style="fill:none;stroke:#000000;stroke-width:1.5" />
<path d="M203.96,649.64L195.96,649.64" style="fill:none;stroke:#000000;stroke-width:1.5" />
<path d="M199.96,757.81L195.96,757.81" style="fill:none;stroke:#000000;stroke-width:1.5" />
<path d="M203.96,865.98L195.96,865.98" style="fill:none;stroke:#000000;stroke-width:1.5" />
<path d="M199.96,974.14L195.96,974.14" style="fill:none;stroke:#000000;stroke-width:1.5" />
<path d="M199.96,974.14L195.96,974.14" style="fill:none;stroke:#000000;stroke-width:1.5" />
<path d="M195.96,108.82L195.96,974.14" style="fill:none;stroke:#000000;stroke-width:1.5" />
<path d="M195.71,164.2L195.71,166.1" style="fill:none;stroke:#7A5A29" />
<path d="M193.21,164.2L198.21,164.2" style="fill:none;stroke:#7A5A29" />
<path d="M193.21,166.1L198.21,166.1" style="fill:none;stroke:#7A5A29" />
<path d="M212.3,168.45L212.3,170.31" style="fill:none;stroke:#7A5A29" />
<path d="M209.8,168.45L214.8,168.45" style="fill:none;stroke:#7A5A29" />
<path d="M209.8,170.31L214.8,170.31" style="fill:none;stroke:#7A5A29" />
<path d="M228.89,173.33L228.89,175.14" style="fill:none;stroke:#7A5A29" />
<path d="M226.39,173.33L231.39,173.33" style="fill:none;stroke:#7A5A29" />
<path d="M226.39,175.14L231.39,175.14" style="fill:none;stroke:#7A5A29" />
<path d="M245.48,178.99L245.48,180.85" style="fill:none;stroke:#7A5A29" />
<path d="M242.98,178.99L247.98,178.99" style="fill:none;stroke:#7A5A29" />
<path d="M242.98,180.85L247.98,180.85" style="fill:none;stroke:#7A5A29" />
<path d="M262.07,185.86L262.07,186.91" style="fill:none;stroke:#7A5A29" />
<path d="M259.57,185.86L264.57,185.86" style="fill:none;stroke:#7A5A29" />
<path d="M259.57,186.91L264.57,186.91" style="fill:none;stroke:#7A5A29" />
<path d="M278.66,190.57L278.66,193.88" style="fill:none;stroke:#7A5A29" />
<path d="M276.16,190.57L281.16,190.57" style="fill:none;stroke:#7A5A29" />
<path d="M276.16,193.88L281.16,193.88" style="fill:none;stroke:#7A5A29" />
<path d="M295.25,198.02L295.25,200.93" style="fill:none;stroke:#7A5A29" />
<path d="M292.75,198.02L297.75,198.02" style="fill:none;stroke:#7A5A29" />
<path d="M292.75,200.93L297.75,200.93" style="fill:none;stroke:#7A5A29" />
<path d="M311.84,206.41L311.84,210.05" style="fill:none;stroke:#7A5A29" />
<path d="M309.34,206.41L314.34,206.41" style="fill:none;stroke:#7A5A29" />
<path d="M309.34,210.05L314.34,210.05" style="fill:none;stroke:#7A5A29" />
<path d="M328.43,215.76L328.43,219.67" style="fill:none;stroke:#7A5A29" />
<path d="M325.93,215.76L330.93,215.76" style="fill:none;stroke:#7A5A29" />
<path d="M325.93,219.67L330.93,219.67" style="fill:none;stroke:#7A5A29" />
<path d="M345.02,225.4L345.02,229.32" style="fill:none;stroke:#7A5A29" />
<path d="M342.52,225.4L347.52,225.4" style="fill:none;stroke:#7A5A29" />
<path d="M342.52,229.32L347.52,229.32" style="fill:none;stroke:#7A5A29" />
<path d="M361.61,236.57L361.61,239.56" style="fill:none;stroke:#7A5A29" />
<path d="M359.11,236.57L364.11,236.57" style="fill:none;stroke:#7A5A29" />
<path d="M359.11,239.56L364.11,239.56" style="fill:none;stroke:#7A5A29" />
<path d="M378.2,250.54L378.2,253.21" style="fill:none;stroke:#7A5A29" />
<path d="M375.7,250.54L380.7,250.54" style="fill:none;stroke:#7A5A29" />
<path d="M375.7,253.21L380.7,253.21" style="fill:none;stroke:#7A5A29" />
<path d="M394.79,261.58L394.79,268.5" style="fill:none;stroke:#7A5A29" />
<path d="M392.29,261.58L397.29,261.58" style="fill:none;stroke:#7A5A29" />
<path d="M392.29,268.5L397.29,268.5" style="fill:none;stroke:#7A5A29" />
<path d="M411.38,278.96L411.38,282.21" style="fill:none;stroke:#7A5A29" />
<path d="M408.88,278.96L413.88,278.96" style="fill:none;stroke:#7A5A29" />
<path d="M408.88,282.21L413.88,282.21" style="fill:none;stroke:#7A5A29" />
<path d="M427.97,299.25L427.97,301.59" style="fill:none;stroke:#7A5A29" />
<path d="M425.47,299.25L430.47,299.25" style="fill:none;stroke:#7A5A29" />
<path d="M425.47,301.59L430.47,301.59" style="fill:none;stroke:#7A5A29" />
<path d="M444.56,320.03L444.56,323.71" style="fill:none;stroke:#7A5A29" />
<path d="M442.06,320.03L447.06,320.03" style="fill:none;stroke:#7A5A29" />
<path d="M442.06,323.71L447.06,323.71" style="fill:none;stroke:#7A5A29" />
<path d="M461.16,341.51L461.16,346.5" style="fill:none;stroke:#7A5A29" />
<path d="M458.66,341.51L463.66,341.51" style="fill:none;stroke:#7A5A29" />
<path d="M458.66,346.5L463.66,346.5" style="fill:none;stroke:#7A5A29" />
<path d="M477.75,366.46L477.75,372.83" style="fill:none;stroke:#7A5A29" />
<path d="M475.25,366.46L480.25,366.46" style="fill:none;stroke:#7A5A29" />
<path d="M475.25,372.83L480.25,372.83" style="fill:none;stroke:#7A5A29" />
<path d="M494.34,391.86L494.34,394.63" style="fill:none;stroke:#7A5A29" />
<path d="M491.84,391.86L496.84,391.86" style="fill:none;stroke:#7A5A29" />
<path d="M491.84,394.63L496.84,394.63" style="fill:none;stroke:#7A5A29" />
<path d="M510.93,423.55L510.93,428.06" style="fill:none;stroke:#7A5A29" />
<path d="M508.43,423.55L513.43,423.55" style="fill:none;stroke:#7A5A29" />
<path d="M508.43,428.06L513.43,428.06" style="fill:none;stroke:#7A5A29" />
<path d="M527.52,457.81L527.52,463.13" style="fill:none;stroke:#7A5A29" />
<path d="M525.02,457.81L530.02,457.81" style="fill:none;stroke:#7A5A29" />
<path d="M525.02,463.13L530.02,463.13" style="fill:none;stroke:#7A5A29" />
<path d="M544.11,493.9L544.11,504.3" style="fill:none;stroke:#7A5A29" />
<path d="M541.61,493.9L546.61,493.9" style="fill:none;stroke:#7A5A29" />
<path d="M541.61,504.3L546.61,504.3" style="fill:none;stroke:#7A5A29" />
<path d="M560.7,544.32L560.7,551.34" style="fill:none;stroke:#7A5A29" />
<path d="M558.2,544.32L563.2,544.32" style="fill:none;stroke:#7A5A29" />
<path d="M558.2,551.34L563.2,551.34" style="fill:none;stroke:#7A5A29" />
<path d="M577.29,592.75L577.29,598.63" style="fill:none;stroke:#7A5A29" />
<path d="M574.79,592.75L579.79,592.75" style="fill:none;stroke:#7A5A29" />
<path d="M574.79,598.63L579.79,598.63" style="fill:none;stroke:#7A5A29" />
<path d="M593.88,642.09L593.88,651.76" style="fill:none;stroke:#7A5A29" />
<path d="M591.38,642.09L596.38,642.09" style="fill:none;stroke:#7A5A29" />
<path d="M591.38,651.76L596.38,651.76" style="fill:none;stroke:#7A5A29" />
<path d="M610.47,689.76L610.47,695.4" style="fill:none;stroke:#7A5A29" />
<path d="M607.97,689.76L612.97,689.76" style="fill:none;stroke:#7A5A29" />
<path d="M607.97,695.4L612.97,695.4" style="fill:none;stroke:#7A5A29" />
<path d="M627.06,740.31L627.06,749.97" style="fill:none;stroke:#7A5A29" />
<path d="M624.56,740.31L629.56,740.31" style="fill:none;stroke:#7A5A29" />
<path d="M624.56,749.97L629.56,749.97" style="fill:none;stroke:#7A5A29" />
<path d="M643.65,763.98L643.65,777.81" style="fill:none;stroke:#7A5A29" />
<path d="M641.15,763.98L646.15,763.98" style="fill:none;stroke:#7A5A29" />
<path d="M641.15,777.81L646.15,777.81" style="fill:none;stroke:#7A5A29" />
<path d="M660.24,762.11L660.24,772.19" style="fill:none;stroke:#7A5A29" />
<path d="M657.74,762.11L662.74,762.11" style="fill:none;stroke:#7A5A29" />
<path d="M657.74,772.19L662.74,772.19" style="fill:none;stroke:#7A5A29" />
<path d="M676.83,721.12L676.83,738.34" style="fill:none;stroke:#7A5A29" />
<path d="M674.33,721.12L679.33,721.12" style="fill:none;stroke:#7A5A29" />
<path d="M674.33,738.34L679.33,738.34" style="fill:none;stroke:#7A5A29" />
<path d="M693.42,662.28L693.42,673.87" style="fill:none;stroke:#7A5A29" />
<path d="M690.92,662.28L695.92,662.28" style="fill:none;stroke:#7A5A29" />
<path d="M690.92,673.87L695.92,673.87" style="fill:none;stroke:#7A5A29" />
<path d="M710.01,591.45L710.01,596.4" style="fill:none;stroke:#7A5A29" />
<path d="M707.51,591.45L712.51,591.45" style="fill:none;stroke:#7A5A29" />
<path d="M707.51,596.4L712.51,596.4" style="fill:none;stroke:#7A5A29" />
<path d="M726.6,510.26L726.6,516.52" style="fill:none;stroke:#7A5A29" />
<path d="M724.1,510.26L729.1,510.26" style="fill:none;stroke:#7A5A29" />
<path d="M724.1,516.52L729.1,516.52" style="fill:none;stroke:#7A5A29" />
<path d="M743.19,433.42L743.19,442.3" style="fill:none;stroke:#7A5A29" />
<path d="M740.69,433.42L745.69,433.42" style="fill:none;stroke:#7A5A29" />
<path d="M740.69,442.3L745.69,442.3" style="fill:none;stroke:#7A5A29" />
<path d="M759.78,373.54L759.78,379.61" style="fill:none;stroke:#7A5A29" />
<path d="M757.28,373.54L762.28,373.54" style="fill:none;stroke:#7A5A29" />
<path d="M757.28,379.61L762.28,379.61" style="fill:none;stroke:#7A5A29" />
<path d="M776.37,323.81L776.37,329.27" style="fill:none;stroke:#7A5A29" />
<path d="M773.87,323.81L778.87,323.81" style="fill:none;stroke:#7A5A29" />
<path d="M773.87,329.27L778.87,329.27" style="fill:none;stroke:#7A5A29" />
<path d="M792.96,287.3L792.96,290.58" style="fill:none;stroke:#7A5A29" />
<path d="M790.46,287.3L795.46,287.3" style="fill:none;stroke:#7A5A29" />
<path d="M790.46,290.58L795.46,290.58" style="fill:none;stroke:#7A5A29" />
<path d="M809.55,259.13L809.55,261.14" style="fill:none;stroke:#7A5A29" />
<path d="M807.05,259.13L812.05,259.13" style="fill:none;stroke:#7A5A29" />
<path d="M807.05,261.14L812.05,261.14" style="fill:none;stroke:#7A5A29" />
<path d="M826.14,238.56L826.14,241.93" style="fill:none;stroke:#7A5A29" />
<path d="M823.64,238.56L828.64,238.56" style="fill:none;stroke:#7A5A29" />
<path d="M823.64,241.93L828.64,241.93" style="fill:none;stroke:#7A5A29" />
<path d="M842.73,223.25L842.73,225.76" style="fill:none;stroke:#7A5A29" />
<path d="M840.23,223.25L845.23,223.25" style="fill:none;stroke:#7A5A29" />
<path d="M840.23,225.76L845.23,225.76" style="fill:none;stroke:#7A5A29" />
<path d="M859.32,210.38L859.32,214.28" style="fill:none;stroke:#7A5A29" />
<path d="M856.82,210.38L861.82,210.38" style="fill:none;stroke:#7A5A29" />
<path d="M856.82,214.28L861.82,214.28" style="fill:none;stroke:#7A5A29" />
<path d="M875.92,201L875.92,204.44" style="fill:none;stroke:#7A5A29" />
<path d="M873.42,201L878.42,201" style="fill:none;stroke:#7A5A29" />
<path d="M873.42,204.44L878.42,204.44" style="fill:none;stroke:#7A5A29" />
<path d="M892.51,192.85L892.51,195.32" style="fill:none;stroke:#7A5A29" />
<path d="M890.01,192.85L895.01,192.85" style="fill:none;stroke:#7A5A29" />
<path d="M890.01,195.32L895.01,195.32" style="fill:none;stroke:#7A5A29" />
<path d="M909.1,183.16L909.1,185.8" style="fill:none;stroke:#7A5A29" />
<path d="M906.6,183.16L911.6,183.16" style="fill:none;stroke:#7A5A29" />
<path d="M906.6,185.8L911.6,185.8" style="fill:none;stroke:#7A5A29" />
<path d="M925.69,177.93L925.69,179.39" style="fill:none;stroke:#7A5A29" />
<path d="M923.19,177.93L928.19,177.93" style="fill:none;stroke:#7A5A29" />
<path d="M923.19,179.39L928.19,179.39" style="fill:none;stroke:#7A5A29" />
<path d="M942.28,168.58L942.28,171.27" style="fill:none;stroke:#7A5A29" />
<path d="M939.78,168.58L944.78,168.58" style="fill:none;stroke:#7A5A29" />
<path d="M939.78,171.27L944.78,171.27" style="fill:none;stroke:#7A5A29" />
<path d="M958.87,163.18L958.87,164.96" style="fill:none;stroke:#7A5A29" />
<path d="M956.37,163.18L961.37,163.18" style="fill:none;stroke:#7A5A29" />
<path d="M956.37,164.96L961.37,164.96" style="fill:none;stroke:#7A5A29" />
<path d="M975.46,159.81L975.46,161.43" style="fill:none;stroke:#7A5A29" />
<path d="M972.96,159.81L977.96,159.81" style="fill:none;stroke:#7A5A29" />
<path d="M972.96,161.43L977.96,161.43" style="fill:none;stroke:#7A5A29" />
<path d="M992.05,154.06L992.05,155.79" style="fill:none;stroke:#7A5A29" />
<path d="M989.55,154.06L994.55,154.06" style="fill:none;stroke:#7A5A29" />
<path d="M989.55,155.79L994.55,155.79" style="fill:none;stroke:#7A5A29" />
<path d="M1008.6,148.29L1008.6,150.75" style="fill:none;stroke:#7A5A29" />
<path d="M1006.1,148.29L1011.1,148.29" style="fill:none;stroke:#7A5A29" />
<path d="M1006.1,150.75L1011.1,150.75" style="fill:none;stroke:#7A5A29" />
<path d="M1025.2,144.36L1025.2,146.48" style="fill:none;stroke:#7A5A29" />
<path d="M1022.7,144.36L1027.7,144.36" style="fill:none;stroke:#7A5A29" />
<path d="M1022.7,146.48L1027.7,146.48" style="fill:none;stroke:#7A5A29" />
<path d="M1041.8,141.48L1041.8,142.35" style="fill:none;stroke:#7A5A29" />
<path d="M1039.3,141.48L1044.3,141.48" style="fill:none;stroke:#7A5A29" />
<path d="M1039.3,142.35L1044.3,142.35" style="fill:none;stroke:#7A5A29" />
<path d="M1058.4,137.86L1058.4,139.15" style="fill:none;stroke:#7A5A29" />
<path d="M1055.9,137.86L1060.9,137.86" style="fill:none;stroke:#7A5A29" />
<path d="M1055.9,139.15L1060.9,139.15" style="fill:none;stroke:#7A5A29" />
<path d="M1075,134.74L1075,135.92" style="fill:none;stroke:#7A5A29" />
<path d="M1072.5,134.74L1077.5,134.74" style="fill:none;stroke:#7A5A29" />
<path d="M1072.5,135.92L1077.5,135.92" style="fill:none;stroke:#7A5A29" />
<path d="M200.71,165.15A5,5 0 1 1 190.71,165.15A5,5 0 1 1 200.71,165.15Z" style="fill:#7A5A29" />
<path d="M217.3,169.38A5,5 0 1 1 207.3,169.38A5,5 0 1 1 217.3,169.38Z" style="fill:#7A5A29" />
<path d="M233.89,174.24A5,5 0 1 1 223.89,174.24A5,5 0 1 1 233.89,174.24Z" style="fill:#7A5A29" />
<path d="M250.48,179.92A5,5 0 1 1 240.48,179.92A5,5 0 1 1 250.48,179.92Z" style="fill:#7A5A29" />
<path d="M267.07,186.38A5,5 0 1 1 257.07,186.38A5,5 0 1 1 267.07,186.38Z" style="fill:#7A5A29" />
<path d="M283.66,192.23A5,5 0 1 1 273.66,192.23A5,5 0 1 1 283.66,192.23Z" style="fill:#7A5A29" />
<path d="M300.25,199.47A5,5 0 1 1 290.25,199.47A5,5 0 1 1 300.25,199.47Z" style="fill:#7A5A29" />
<path d="M316.84,208.23A5,5 0 1 1 306.84,208.23A5,5 0 1 1 316.84,208.23Z" style="fill:#7A5A29" />
<path d="M333.43,217.72A5,5 0 1 1 323.43,217.72A5,5 0 1 1 333.43,217.72Z" style="fill:#7A5A29" />
<path d="M350.02,227.36A5,5 0 1 1 340.02,227.36A5,5 0 1 1 350.02,227.36Z" style="fill:#7A5A29" />
<path d="M366.61,238.07A5,5 0 1 1 356.61,238.07A5,5 0 1 1 366.61,238.07Z" style="fill:#7A5A29" />
<path d="M383.2,251.87A5,5 0 1 1 373.2,251.87A5,5 0 1 1 383.2,251.87Z" style="fill:#7A5A29" />
<path d="M399.79,265.04A5,5 0 1 1 389.79,265.04A5,5 0 1 1 399.79,265.04Z" style="fill:#7A5A29" />
<path d="M416.38,280.59A5,5 0 1 1 406.38,280.59A5,5 0 1 1 416.38,280.59Z" style="fill:#7A5A29" />
<path d="M432.97,300.42A5,5 0 1 1 422.97,300.42A5,5 0 1 1 432.97,300.42Z" style="fill:#7A5A29" />
<path d="M449.56,321.87A5,5 0 1 1 439.56,321.87A5,5 0 1 1 449.56,321.87Z" style="fill:#7A5A29" />
<path d="M466.16,344.01A5,5 0 1 1 456.16,344.01A5,5 0 1 1 466.16,344.01Z" style="fill:#7A5A29" />
<path d="M482.75,369.65A5,5 0 1 1 472.75,369.65A5,5 0 1 1 482.75,369.65Z" style="fill:#7A5A29" />
<path d="M499.34,393.25A5,5 0 1 1 489.34,393.25A5,5 0 1 1 499.34,393.25Z" style="fill:#7A5A29" />
<path d="M515.93,425.8A5,5 0 1 1 505.93,425.8A5,5 0 1 1 515.93,425.8Z" style="fill:#7A5A29" />
<path d="M532.52,460.47A5,5 0 1 1 522.52,460.47A5,5 0 1 1 532.52,460.47Z" style="fill:#7A5A29" />
<path d="M549.11,499.1A5,5 0 1 1 539.11,499.1A5,5 0 1 1 549.11,499.1Z" style="fill:#7A5A29" />
<path d="M565.7,547.83A5,5 0 1 1 555.7,547.83A5,5 0 1 1 565.7,547.83Z" style="fill:#7A5A29" />
<path d="M582.29,595.69A5,5 0 1 1 572.29,595.69A5,5 0 1 1 582.29,595.69Z" style="fill:#7A5A29" />
<path d="M598.88,646.92A5,5 0 1 1 588.88,646.92A5,5 0 1 1 598.88,646.92Z" style="fill:#7A5A29" />
<path d="M615.47,692.58A5,5 0 1 1 605.47,692.58A5,5 0 1 1 615.47,692.58Z" style="fill:#7A5A29" />
<path d="M632.06,745.14A5,5 0 1 1 622.06,745.14A5,5 0 1 1 632.06,745.14Z" style="fill:#7A5A29" />
<path d="M648.65,770.9A5,5 0 1 1 638.65,770.9A5,5 0 1 1 648.65,770.9Z" style="fill:#7A5A29" />
<path d="M665.24,767.15A5,5 0 1 1 655.24,767.15A5,5 0 1 1 665.24,767.15Z" style="fill:#7A5A29" />
<path d="M681.83,729.73A5,5 0 1 1 671.83,729.73A5,5 0 1 1 681.83,729.73Z" style="fill:#7A5A29" />
<path d="M698.42,668.07A5,5 0 1 1 688.42,668.07A5,5 0 1 1 698.42,668.07Z" style="fill:#7A5A29" />
<path d="M715.01,593.92A5,5 0 1 1 705.01,593.92A5,5 0 1 1 715.01,593.92Z" style="fill:#7A5A29" />
<path d="M731.6,513.39A5,5 0 1 1 721.6,513.39A5,5 0 1 1 731.6,513.39Z" style="fill:#7A5A29" />
<path d="M748.19,437.86A5,5 0 1 1 738.19,437.86A5,5 0 1 1 748.19,437.86Z" style="fill:#7A5A29" />
<path d="M764.78,376.58A5,5 0 1 1 754.78,376.58A5,5 0 1 1 764.78,376.58Z" style="fill:#7A5A29" />
<path d="M781.37,326.54A5,5 0 1 1 771.37,326.54A5,5 0 1 1 781.37,326.54Z" style="fill:#7A5A29" />
<path d="M797.96,288.94A5,5 0 1 1 787.96,288.94A5,5 0 1 1 797.96,288.94Z" style="fill:#7A5A29" />
<path d="M814.55,260.13A5,5 0 1 1 804.55,260.13A5,5 0 1 1 814.55,260.13Z" style="fill:#7A5A29" />
<path d="M831.14,240.24A5,5 0 1 1 821.14,240.24A5,5 0 1 1 831.14,240.24Z" style="fill:#7A5A29" />
<path d="M847.73,224.5A5,5 0 1 1 837.73,224.5A5,5 0 1 1 847.73,224.5Z" style="fill:#7A5A29" />
<path d="M864.32,212.33A5,5 0 1 1 854.32,212.33A5,5 0 1 1 864.32,212.33Z" style="fill:#7A5A29" />
<path d="M880.92,202.72A5,5 0 1 1 870.92,202.72A5,5 0 1 1 880.92,202.72Z" style="fill:#7A5A29" />
<path d="M897.51,194.09A5,5 0 1 1 887.51,194.09A5,5 0 1 1 897.51,194.09Z" style="fill:#7A5A29" />
<path d="M914.1,184.48A5,5 0 1 1 904.1,184.48A5,5 0 1 1 914.1,184.48Z" style="fill:#7A5A29" />
<path d="M930.69,178.66A5,5 0 1 1 920.69,178.66A5,5 0 1 1 930.69,178.66Z" style="fill:#7A5A29" />
<path d="M947.28,169.93A5,5 0 1 1 937.28,169.93A5,5 0 1 1 947.28,169.93Z" style="fill:#7A5A29" />
<path d="M963.87,164.07A5,5 0 1 1 953.87,164.07A5,5 0 1 1 963.87,164.07Z" style="fill:#7A5A29" />
<path d="M980.46,160.62A5,5 0 1 1 970.46,160.62A5,5 0 1 1 980.46,160.62Z" style="fill:#7A5A29" />
<path d="M997.05,154.93A5,5 0 1 1 987.05,154.93A5,5 0 1 1 997.05,154.93Z" style="fill:#7A5A29" />
<path d="M1013.6,149.52A5,5 0 1 1 1003.6,149.52A5,5 0 1 1 1013.6,149.52Z" style="fill:#7A5A29" />
<path d="M1030.2,145.42A5,5 0 1 1 1020.2,145.42A5,5 0 1 1 1030.2,145.42Z" style="fill:#7A5A29" />
<path d="M1046.8,141.91A5,5 0 1 1 1036.8,141.91A5,5 0 1 1 1046.8,141.91Z" style="fill:#7A5A29" />
<path d="M1063.4,138.5A5,5 0 1 1 1053.4,138.5A5,5 0 1 1 1063.4,138.5Z" style="fill:#7A5A29" />
<path d="M1080,135.33A5,5 0 1 1 1070,135.33A5,5 0 1 1 1080,135.33Z" style="fill:#7A5A29" />
<path d="M195.71,974.14L1075,974.14" style="fill:none;stroke:#000000" />
<path d="M1075,108.82L1075,974.14" style="fill:none;stroke:#000000" />
<path d="M1038,942.02A8,8 0 1 1 1022,942.02A8,8 0 1 1 1038,942.02Z" style="fill:#7A5A29" />
<text x="872.95" y="-933.54" transform="scale(1, -1)"
	style="font-family:Helvetica;font-weight:normal;font-style:normal;font-size:36px">19 GHz</text>
</g>
</svg>
