<?xml version="1.0"?>
<!-- Generated by SVGo and Plotinum VG -->
<svg width="1080pt" height="1080pt" viewBox="0 0 1080 1080"
	xmlns="http://www.w3.org/2000/svg"
	xmlns:xlink="http://www.w3.org/1999/xlink">
<g transform="scale(1, -1) translate(0, -1080)">
<path d="M0,0L1080,0L1080,1080L0,1080Z" style="fill:#-8000000000000000-8000000000000000-8000000000000000;fill-opacity:0" />
<text x="346.9" y="-1039.5" transform="scale(1, -1)"
	style="font-family:Helvetica;font-weight:normal;font-style:normal;font-size:50px">1 mm CS2 CABS</text>
<text x="497.32" y="-11.039" transform="scale(1, -1)"
	style="font-family:Helvetica;font-weight:normal;font-style:normal;font-size:36px">Frequency (GHz)</text>
<text x="242.18" y="-71.258" transform="scale(1, -1)"
	style="font-family:Helvetica;font-weight:normal;font-style:normal;font-size:36px">2.35</text>
<text x="423.31" y="-71.258" transform="scale(1, -1)"
	style="font-family:Helvetica;font-weight:normal;font-style:normal;font-size:36px">2.45</text>
<text x="604.44" y="-71.258" transform="scale(1, -1)"
	style="font-family:Helvetica;font-weight:normal;font-style:normal;font-size:36px">2.55</text>
<text x="785.57" y="-71.258" transform="scale(1, -1)"
	style="font-family:Helvetica;font-weight:normal;font-style:normal;font-size:36px">2.65</text>
<text x="966.7" y="-71.258" transform="scale(1, -1)"
	style="font-family:Helvetica;font-weight:normal;font-style:normal;font-size:36px">2.75</text>
<path d="M277.21,116.44L277.21,108.44" style="fill:none;stroke:#000000;stroke-width:1.5" />
<path d="M367.78,112.44L367.78,108.44" style="fill:none;stroke:#000000;stroke-width:1.5" />
<path d="M458.34,116.44L458.34,108.44" style="fill:none;stroke:#000000;stroke-width:1.5" />
<path d="M548.91,112.44L548.91,108.44" style="fill:none;stroke:#000000;stroke-width:1.5" />
<path d="M639.47,116.44L639.47,108.44" style="fill:none;stroke:#000000;stroke-width:1.5" />
<path d="M730.04,112.44L730.04,108.44" style="fill:none;stroke:#000000;stroke-width:1.5" />
<path d="M820.6,116.44L820.6,108.44" style="fill:none;stroke:#000000;stroke-width:1.5" />
<path d="M911.17,112.44L911.17,108.44" style="fill:none;stroke:#000000;stroke-width:1.5" />
<path d="M1001.7,116.44L1001.7,108.44" style="fill:none;stroke:#000000;stroke-width:1.5" />
<path d="M195.71,108.44L1075,108.44" style="fill:none;stroke:#000000;stroke-width:1.5" />
<g transform="rotate(90)">
<text x="371.06" y="29.18" transform="scale(1, -1)"
	style="font-family:Helvetica;font-weight:normal;font-style:normal;font-size:36px">Spectral Density (μV)</text>
</g>
<text x="87.869" y="-207.91" transform="scale(1, -1)"
	style="font-family:Helvetica;font-weight:normal;font-style:normal;font-size:36px">52.49</text>
<text x="67.848" y="-424.24" transform="scale(1, -1)"
	style="font-family:Helvetica;font-weight:normal;font-style:normal;font-size:36px">123.43</text>
<text x="67.848" y="-640.57" transform="scale(1, -1)"
	style="font-family:Helvetica;font-weight:normal;font-style:normal;font-size:36px">194.37</text>
<text x="67.848" y="-856.9" transform="scale(1, -1)"
	style="font-family:Helvetica;font-weight:normal;font-style:normal;font-size:36px">265.32</text>
<path d="M199.96,108.82L195.96,108.82" style="fill:none;stroke:#000000;stroke-width:1.5" />
<path d="M203.96,216.98L195.96,216.98" style="fill:none;stroke:#000000;stroke-width:1.5" />
<path d="M199.96,325.15L195.96,325.15" style="fill:none;stroke:#000000;stroke-width:1.5" />
<path d="M203.96,433.31L195.96,433.31" style="fill:none;stroke:#000000;stroke-width:1.5" />
<path d="M199.96,541.48L195.96,541.48" style="fill:none;stroke:#000000;stroke-width:1.5" />
<path d="M203.96,649.64L195.96,649.64" style="fill:none;stroke:#000000;stroke-width:1.5" />
<path d="M199.96,757.81L195.96,757.81" style="fill:none;stroke:#000000;stroke-width:1.5" />
<path d="M203.96,865.98L195.96,865.98" style="fill:none;stroke:#000000;stroke-width:1.5" />
<path d="M199.96,974.14L195.96,974.14" style="fill:none;stroke:#000000;stroke-width:1.5" />
<path d="M199.96,974.14L195.96,974.14" style="fill:none;stroke:#000000;stroke-width:1.5" />
<path d="M195.96,108.82L195.96,974.14" style="fill:none;stroke:#000000;stroke-width:1.5" />
<path d="M195.71,746.65L195.71,770.73" style="fill:none;stroke:#1FD3AC" />
<path d="M193.21,746.65L198.21,746.65" style="fill:none;stroke:#1FD3AC" />
<path d="M193.21,770.73L198.21,770.73" style="fill:none;stroke:#1FD3AC" />
<path d="M204.77,722.54L204.77,762.96" style="fill:none;stroke:#1FD3AC" />
<path d="M202.27,722.54L207.27,722.54" style="fill:none;stroke:#1FD3AC" />
<path d="M202.27,762.96L207.27,762.96" style="fill:none;stroke:#1FD3AC" />
<path d="M213.84,749.19L213.84,787.82" style="fill:none;stroke:#1FD3AC" />
<path d="M211.34,749.19L216.34,749.19" style="fill:none;stroke:#1FD3AC" />
<path d="M211.34,787.82L216.34,787.82" style="fill:none;stroke:#1FD3AC" />
<path d="M222.9,742.93L222.9,789.68" style="fill:none;stroke:#1FD3AC" />
<path d="M220.4,742.93L225.4,742.93" style="fill:none;stroke:#1FD3AC" />
<path d="M220.4,789.68L225.4,789.68" style="fill:none;stroke:#1FD3AC" />
<path d="M231.97,758.54L231.97,821.53" style="fill:none;stroke:#1FD3AC" />
<path d="M229.47,758.54L234.47,758.54" style="fill:none;stroke:#1FD3AC" />
<path d="M229.47,821.53L234.47,821.53" style="fill:none;stroke:#1FD3AC" />
<path d="M241.03,751.63L241.03,778.78" style="fill:none;stroke:#1FD3AC" />
<path d="M238.53,751.63L243.53,751.63" style="fill:none;stroke:#1FD3AC" />
<path d="M238.53,778.78L243.53,778.78" style="fill:none;stroke:#1FD3AC" />
<path d="M250.1,732.9L250.1,767.45" style="fill:none;stroke:#1FD3AC" />
<path d="M247.6,732.9L252.6,732.9" style="fill:none;stroke:#1FD3AC" />
<path d="M247.6,767.45L252.6,767.45" style="fill:none;stroke:#1FD3AC" />
<path d="M259.16,782.94L259.16,812.68" style="fill:none;stroke:#1FD3AC" />
<path d="M256.66,782.94L261.66,782.94" style="fill:none;stroke:#1FD3AC" />
<path d="M256.66,812.68L261.66,812.68" style="fill:none;stroke:#1FD3AC" />
<path d="M268.23,726.53L268.23,746.3" style="fill:none;stroke:#1FD3AC" />
<path d="M265.73,726.53L270.73,726.53" style="fill:none;stroke:#1FD3AC" />
<path d="M265.73,746.3L270.73,746.3" style="fill:none;stroke:#1FD3AC" />
<path d="M277.29,784.77L277.29,805.61" style="fill:none;stroke:#1FD3AC" />
<path d="M274.79,784.77L279.79,784.77" style="fill:none;stroke:#1FD3AC" />
<path d="M274.79,805.61L279.79,805.61" style="fill:none;stroke:#1FD3AC" />
<path d="M286.36,719.6L286.36,789.87" style="fill:none;stroke:#1FD3AC" />
<path d="M283.86,719.6L288.86,719.6" style="fill:none;stroke:#1FD3AC" />
<path d="M283.86,789.87L288.86,789.87" style="fill:none;stroke:#1FD3AC" />
<path d="M295.42,721.45L295.42,775.95" style="fill:none;stroke:#1FD3AC" />
<path d="M292.92,721.45L297.92,721.45" style="fill:none;stroke:#1FD3AC" />
<path d="M292.92,775.95L297.92,775.95" style="fill:none;stroke:#1FD3AC" />
<path d="M304.49,769.72L304.49,816.55" style="fill:none;stroke:#1FD3AC" />
<path d="M301.99,769.72L306.99,769.72" style="fill:none;stroke:#1FD3AC" />
<path d="M301.99,816.55L306.99,816.55" style="fill:none;stroke:#1FD3AC" />
<path d="M313.55,770.39L313.55,785.07" style="fill:none;stroke:#1FD3AC" />
<path d="M311.05,770.39L316.05,770.39" style="fill:none;stroke:#1FD3AC" />
<path d="M311.05,785.07L316.05,785.07" style="fill:none;stroke:#1FD3AC" />
<path d="M322.62,771.12L322.62,798.13" style="fill:none;stroke:#1FD3AC" />
<path d="M320.12,771.12L325.12,771.12" style="fill:none;stroke:#1FD3AC" />
<path d="M320.12,798.13L325.12,798.13" style="fill:none;stroke:#1FD3AC" />
<path d="M331.68,712.33L331.68,783.34" style="fill:none;stroke:#1FD3AC" />
<path d="M329.18,712.33L334.18,712.33" style="fill:none;stroke:#1FD3AC" />
<path d="M329.18,783.34L334.18,783.34" style="fill:none;stroke:#1FD3AC" />
<path d="M340.75,767.71L340.75,813.14" style="fill:none;stroke:#1FD3AC" />
<path d="M338.25,767.71L343.25,767.71" style="fill:none;stroke:#1FD3AC" />
<path d="M338.25,813.14L343.25,813.14" style="fill:none;stroke:#1FD3AC" />
<path d="M349.81,720.24L349.81,777.82" style="fill:none;stroke:#1FD3AC" />
<path d="M347.31,720.24L352.31,720.24" style="fill:none;stroke:#1FD3AC" />
<path d="M347.31,777.82L352.31,777.82" style="fill:none;stroke:#1FD3AC" />
<path d="M358.88,721.06L358.88,792.75" style="fill:none;stroke:#1FD3AC" />
<path d="M356.38,721.06L361.38,721.06" style="fill:none;stroke:#1FD3AC" />
<path d="M356.38,792.75L361.38,792.75" style="fill:none;stroke:#1FD3AC" />
<path d="M367.94,659.55L367.94,701.32" style="fill:none;stroke:#1FD3AC" />
<path d="M365.44,659.55L370.44,659.55" style="fill:none;stroke:#1FD3AC" />
<path d="M365.44,701.32L370.44,701.32" style="fill:none;stroke:#1FD3AC" />
<path d="M377.01,643.16L377.01,697.01" style="fill:none;stroke:#1FD3AC" />
<path d="M374.51,643.16L379.51,643.16" style="fill:none;stroke:#1FD3AC" />
<path d="M374.51,697.01L379.51,697.01" style="fill:none;stroke:#1FD3AC" />
<path d="M386.07,679.62L386.07,736.78" style="fill:none;stroke:#1FD3AC" />
<path d="M383.57,679.62L388.57,679.62" style="fill:none;stroke:#1FD3AC" />
<path d="M383.57,736.78L388.57,736.78" style="fill:none;stroke:#1FD3AC" />
<path d="M395.14,626.93L395.14,697.3" style="fill:none;stroke:#1FD3AC" />
<path d="M392.64,626.93L397.64,626.93" style="fill:none;stroke:#1FD3AC" />
<path d="M392.64,697.3L397.64,697.3" style="fill:none;stroke:#1FD3AC" />
<path d="M404.2,608.4L404.2,656.02" style="fill:none;stroke:#1FD3AC" />
<path d="M401.7,608.4L406.7,608.4" style="fill:none;stroke:#1FD3AC" />
<path d="M401.7,656.02L406.7,656.02" style="fill:none;stroke:#1FD3AC" />
<path d="M413.27,608.15L413.27,665.44" style="fill:none;stroke:#1FD3AC" />
<path d="M410.77,608.15L415.77,608.15" style="fill:none;stroke:#1FD3AC" />
<path d="M410.77,665.44L415.77,665.44" style="fill:none;stroke:#1FD3AC" />
<path d="M422.33,595.47L422.33,647.52" style="fill:none;stroke:#1FD3AC" />
<path d="M419.83,595.47L424.83,595.47" style="fill:none;stroke:#1FD3AC" />
<path d="M419.83,647.52L424.83,647.52" style="fill:none;stroke:#1FD3AC" />
<path d="M431.4,553.74L431.4,578.27" style="fill:none;stroke:#1FD3AC" />
<path d="M428.9,553.74L433.9,553.74" style="fill:none;stroke:#1FD3AC" />
<path d="M428.9,578.27L433.9,578.27" style="fill:none;stroke:#1FD3AC" />
<path d="M440.46,541.89L440.46,585.9" style="fill:none;stroke:#1FD3AC" />
<path d="M437.96,541.89L442.96,541.89" style="fill:none;stroke:#1FD3AC" />
<path d="M437.96,585.9L442.96,585.9" style="fill:none;stroke:#1FD3AC" />
<path d="M449.52,516.26L449.52,566.98" style="fill:none;stroke:#1FD3AC" />
<path d="M447.02,516.26L452.02,516.26" style="fill:none;stroke:#1FD3AC" />
<path d="M447.02,566.98L452.02,566.98" style="fill:none;stroke:#1FD3AC" />
<path d="M458.59,482.04L458.59,510.56" style="fill:none;stroke:#1FD3AC" />
<path d="M456.09,482.04L461.09,482.04" style="fill:none;stroke:#1FD3AC" />
<path d="M456.09,510.56L461.09,510.56" style="fill:none;stroke:#1FD3AC" />
<path d="M467.65,507.16L467.65,531.98" style="fill:none;stroke:#1FD3AC" />
<path d="M465.15,507.16L470.15,507.16" style="fill:none;stroke:#1FD3AC" />
<path d="M465.15,531.98L470.15,531.98" style="fill:none;stroke:#1FD3AC" />
<path d="M476.72,490.69L476.72,537.2" style="fill:none;stroke:#1FD3AC" />
<path d="M474.22,490.69L479.22,490.69" style="fill:none;stroke:#1FD3AC" />
<path d="M474.22,537.2L479.22,537.2" style="fill:none;stroke:#1FD3AC" />
<path d="M485.78,472.69L485.78,509.61" style="fill:none;stroke:#1FD3AC" />
<path d="M483.28,472.69L488.28,472.69" style="fill:none;stroke:#1FD3AC" />
<path d="M483.28,509.61L488.28,509.61" style="fill:none;stroke:#1FD3AC" />
<path d="M494.85,432.68L494.85,469.01" style="fill:none;stroke:#1FD3AC" />
<path d="M492.35,432.68L497.35,432.68" style="fill:none;stroke:#1FD3AC" />
<path d="M492.35,469.01L497.35,469.01" style="fill:none;stroke:#1FD3AC" />
<path d="M503.91,398.69L503.91,429.16" style="fill:none;stroke:#1FD3AC" />
<path d="M501.41,398.69L506.41,398.69" style="fill:none;stroke:#1FD3AC" />
<path d="M501.41,429.16L506.41,429.16" style="fill:none;stroke:#1FD3AC" />
<path d="M512.98,405L512.98,452.97" style="fill:none;stroke:#1FD3AC" />
<path d="M510.48,405L515.48,405" style="fill:none;stroke:#1FD3AC" />
<path d="M510.48,452.97L515.48,452.97" style="fill:none;stroke:#1FD3AC" />
<path d="M522.04,392.27L522.04,424.04" style="fill:none;stroke:#1FD3AC" />
<path d="M519.54,392.27L524.54,392.27" style="fill:none;stroke:#1FD3AC" />
<path d="M519.54,424.04L524.54,424.04" style="fill:none;stroke:#1FD3AC" />
<path d="M531.11,371.95L531.11,404.52" style="fill:none;stroke:#1FD3AC" />
<path d="M528.61,371.95L533.61,371.95" style="fill:none;stroke:#1FD3AC" />
<path d="M528.61,404.52L533.61,404.52" style="fill:none;stroke:#1FD3AC" />
<path d="M540.17,369.38L540.17,396.43" style="fill:none;stroke:#1FD3AC" />
<path d="M537.67,369.38L542.67,369.38" style="fill:none;stroke:#1FD3AC" />
<path d="M537.67,396.43L542.67,396.43" style="fill:none;stroke:#1FD3AC" />
<path d="M549.24,309.65L549.24,338.95" style="fill:none;stroke:#1FD3AC" />
<path d="M546.74,309.65L551.74,309.65" style="fill:none;stroke:#1FD3AC" />
<path d="M546.74,338.95L551.74,338.95" style="fill:none;stroke:#1FD3AC" />
<path d="M558.3,282.89L558.3,321.3" style="fill:none;stroke:#1FD3AC" />
<path d="M555.8,282.89L560.8,282.89" style="fill:none;stroke:#1FD3AC" />
<path d="M555.8,321.3L560.8,321.3" style="fill:none;stroke:#1FD3AC" />
<path d="M567.37,269.42L567.37,292.89" style="fill:none;stroke:#1FD3AC" />
<path d="M564.87,269.42L569.87,269.42" style="fill:none;stroke:#1FD3AC" />
<path d="M564.87,292.89L569.87,292.89" style="fill:none;stroke:#1FD3AC" />
<path d="M576.43,237.33L576.43,284.97" style="fill:none;stroke:#1FD3AC" />
<path d="M573.93,237.33L578.93,237.33" style="fill:none;stroke:#1FD3AC" />
<path d="M573.93,284.97L578.93,284.97" style="fill:none;stroke:#1FD3AC" />
<path d="M585.5,255.77L585.5,272.92" style="fill:none;stroke:#1FD3AC" />
<path d="M583,255.77L588,255.77" style="fill:none;stroke:#1FD3AC" />
<path d="M583,272.92L588,272.92" style="fill:none;stroke:#1FD3AC" />
<path d="M594.56,275.96L594.56,284.64" style="fill:none;stroke:#1FD3AC" />
<path d="M592.06,275.96L597.06,275.96" style="fill:none;stroke:#1FD3AC" />
<path d="M592.06,284.64L597.06,284.64" style="fill:none;stroke:#1FD3AC" />
<path d="M603.63,209.67L603.63,257.78" style="fill:none;stroke:#1FD3AC" />
<path d="M601.13,209.67L606.13,209.67" style="fill:none;stroke:#1FD3AC" />
<path d="M601.13,257.78L606.13,257.78" style="fill:none;stroke:#1FD3AC" />
<path d="M612.69,244.79L612.69,275.32" style="fill:none;stroke:#1FD3AC" />
<path d="M610.19,244.79L615.19,244.79" style="fill:none;stroke:#1FD3AC" />
<path d="M610.19,275.32L615.19,275.32" style="fill:none;stroke:#1FD3AC" />
<path d="M621.76,236.38L621.76,285.14" style="fill:none;stroke:#1FD3AC" />
<path d="M619.26,236.38L624.26,236.38" style="fill:none;stroke:#1FD3AC" />
<path d="M619.26,285.14L624.26,285.14" style="fill:none;stroke:#1FD3AC" />
<path d="M630.82,239.49L630.82,278.31" style="fill:none;stroke:#1FD3AC" />
<path d="M628.32,239.49L633.32,239.49" style="fill:none;stroke:#1FD3AC" />
<path d="M628.32,278.31L633.32,278.31" style="fill:none;stroke:#1FD3AC" />
<path d="M639.89,237.66L639.89,255.91" style="fill:none;stroke:#1FD3AC" />
<path d="M637.39,237.66L642.39,237.66" style="fill:none;stroke:#1FD3AC" />
<path d="M637.39,255.91L642.39,255.91" style="fill:none;stroke:#1FD3AC" />
<path d="M648.95,263.82L648.95,297.73" style="fill:none;stroke:#1FD3AC" />
<path d="M646.45,263.82L651.45,263.82" style="fill:none;stroke:#1FD3AC" />
<path d="M646.45,297.73L651.45,297.73" style="fill:none;stroke:#1FD3AC" />
<path d="M658.02,263.73L658.02,332.26" style="fill:none;stroke:#1FD3AC" />
<path d="M655.52,263.73L660.52,263.73" style="fill:none;stroke:#1FD3AC" />
<path d="M655.52,332.26L660.52,332.26" style="fill:none;stroke:#1FD3AC" />
<path d="M667.08,239.43L667.08,318.71" style="fill:none;stroke:#1FD3AC" />
<path d="M664.58,239.43L669.58,239.43" style="fill:none;stroke:#1FD3AC" />
<path d="M664.58,318.71L669.58,318.71" style="fill:none;stroke:#1FD3AC" />
<path d="M676.15,198.86L676.15,265.38" style="fill:none;stroke:#1FD3AC" />
<path d="M673.65,198.86L678.65,198.86" style="fill:none;stroke:#1FD3AC" />
<path d="M673.65,265.38L678.65,265.38" style="fill:none;stroke:#1FD3AC" />
<path d="M685.21,187.59L685.21,217.46" style="fill:none;stroke:#1FD3AC" />
<path d="M682.71,187.59L687.71,187.59" style="fill:none;stroke:#1FD3AC" />
<path d="M682.71,217.46L687.71,217.46" style="fill:none;stroke:#1FD3AC" />
<path d="M694.28,160.6L694.28,174.28" style="fill:none;stroke:#1FD3AC" />
<path d="M691.78,160.6L696.78,160.6" style="fill:none;stroke:#1FD3AC" />
<path d="M691.78,174.28L696.78,174.28" style="fill:none;stroke:#1FD3AC" />
<path d="M703.34,160.26L703.34,179.15" style="fill:none;stroke:#1FD3AC" />
<path d="M700.84,160.26L705.84,160.26" style="fill:none;stroke:#1FD3AC" />
<path d="M700.84,179.15L705.84,179.15" style="fill:none;stroke:#1FD3AC" />
<path d="M712.41,188.28L712.41,227.03" style="fill:none;stroke:#1FD3AC" />
<path d="M709.91,188.28L714.91,188.28" style="fill:none;stroke:#1FD3AC" />
<path d="M709.91,227.03L714.91,227.03" style="fill:none;stroke:#1FD3AC" />
<path d="M721.47,203.7L721.47,231.78" style="fill:none;stroke:#1FD3AC" />
<path d="M718.97,203.7L723.97,203.7" style="fill:none;stroke:#1FD3AC" />
<path d="M718.97,231.78L723.97,231.78" style="fill:none;stroke:#1FD3AC" />
<path d="M730.54,187.9L730.54,208.94" style="fill:none;stroke:#1FD3AC" />
<path d="M728.04,187.9L733.04,187.9" style="fill:none;stroke:#1FD3AC" />
<path d="M728.04,208.94L733.04,208.94" style="fill:none;stroke:#1FD3AC" />
<path d="M739.6,167.53L739.6,188.28" style="fill:none;stroke:#1FD3AC" />
<path d="M737.1,167.53L742.1,167.53" style="fill:none;stroke:#1FD3AC" />
<path d="M737.1,188.28L742.1,188.28" style="fill:none;stroke:#1FD3AC" />
<path d="M748.67,130.01L748.67,150.11" style="fill:none;stroke:#1FD3AC" />
<path d="M746.17,130.01L751.17,130.01" style="fill:none;stroke:#1FD3AC" />
<path d="M746.17,150.11L751.17,150.11" style="fill:none;stroke:#1FD3AC" />
<path d="M757.73,135.61L757.73,152.61" style="fill:none;stroke:#1FD3AC" />
<path d="M755.23,135.61L760.23,135.61" style="fill:none;stroke:#1FD3AC" />
<path d="M755.23,152.61L760.23,152.61" style="fill:none;stroke:#1FD3AC" />
<path d="M766.79,151.57L766.79,169.91" style="fill:none;stroke:#1FD3AC" />
<path d="M764.29,151.57L769.29,151.57" style="fill:none;stroke:#1FD3AC" />
<path d="M764.29,169.91L769.29,169.91" style="fill:none;stroke:#1FD3AC" />
<path d="M775.86,154.98L775.86,177.64" style="fill:none;stroke:#1FD3AC" />
<path d="M773.36,154.98L778.36,154.98" style="fill:none;stroke:#1FD3AC" />
<path d="M773.36,177.64L778.36,177.64" style="fill:none;stroke:#1FD3AC" />
<path d="M784.92,171.89L784.92,207.78" style="fill:none;stroke:#1FD3AC" />
<path d="M782.42,171.89L787.42,171.89" style="fill:none;stroke:#1FD3AC" />
<path d="M782.42,207.78L787.42,207.78" style="fill:none;stroke:#1FD3AC" />
<path d="M793.99,164.95L793.99,186.11" style="fill:none;stroke:#1FD3AC" />
<path d="M791.49,164.95L796.49,164.95" style="fill:none;stroke:#1FD3AC" />
<path d="M791.49,186.11L796.49,186.11" style="fill:none;stroke:#1FD3AC" />
<path d="M803.05,176.02L803.05,195.12" style="fill:none;stroke:#1FD3AC" />
<path d="M800.55,176.02L805.55,176.02" style="fill:none;stroke:#1FD3AC" />
<path d="M800.55,195.12L805.55,195.12" style="fill:none;stroke:#1FD3AC" />
<path d="M812.12,172.2L812.12,186.29" style="fill:none;stroke:#1FD3AC" />
<path d="M809.62,172.2L814.62,172.2" style="fill:none;stroke:#1FD3AC" />
<path d="M809.62,186.29L814.62,186.29" style="fill:none;stroke:#1FD3AC" />
<path d="M821.18,168.93L821.18,182.88" style="fill:none;stroke:#1FD3AC" />
<path d="M818.68,168.93L823.68,168.93" style="fill:none;stroke:#1FD3AC" />
<path d="M818.68,182.88L823.68,182.88" style="fill:none;stroke:#1FD3AC" />
<path d="M830.25,176.45L830.25,184.07" style="fill:none;stroke:#1FD3AC" />
<path d="M827.75,176.45L832.75,176.45" style="fill:none;stroke:#1FD3AC" />
<path d="M827.75,184.07L832.75,184.07" style="fill:none;stroke:#1FD3AC" />
<path d="M839.31,201.11L839.31,216.74" style="fill:none;stroke:#1FD3AC" />
<path d="M836.81,201.11L841.81,201.11" style="fill:none;stroke:#1FD3AC" />
<path d="M836.81,216.74L841.81,216.74" style="fill:none;stroke:#1FD3AC" />
<path d="M848.38,198.26L848.38,223.73" style="fill:none;stroke:#1FD3AC" />
<path d="M845.88,198.26L850.88,198.26" style="fill:none;stroke:#1FD3AC" />
<path d="M845.88,223.73L850.88,223.73" style="fill:none;stroke:#1FD3AC" />
<path d="M857.44,203.5L857.44,218.89" style="fill:none;stroke:#1FD3AC" />
<path d="M854.94,203.5L859.94,203.5" style="fill:none;stroke:#1FD3AC" />
<path d="M854.94,218.89L859.94,218.89" style="fill:none;stroke:#1FD3AC" />
<path d="M866.51,182.26L866.51,209.45" style="fill:none;stroke:#1FD3AC" />
<path d="M864.01,182.26L869.01,182.26" style="fill:none;stroke:#1FD3AC" />
<path d="M864.01,209.45L869.01,209.45" style="fill:none;stroke:#1FD3AC" />
<path d="M875.57,192.96L875.57,214.95" style="fill:none;stroke:#1FD3AC" />
<path d="M873.07,192.96L878.07,192.96" style="fill:none;stroke:#1FD3AC" />
<path d="M873.07,214.95L878.07,214.95" style="fill:none;stroke:#1FD3AC" />
<path d="M884.64,181.4L884.64,201.38" style="fill:none;stroke:#1FD3AC" />
<path d="M882.14,181.4L887.14,181.4" style="fill:none;stroke:#1FD3AC" />
<path d="M882.14,201.38L887.14,201.38" style="fill:none;stroke:#1FD3AC" />
<path d="M893.7,181.53L893.7,211.47" style="fill:none;stroke:#1FD3AC" />
<path d="M891.2,181.53L896.2,181.53" style="fill:none;stroke:#1FD3AC" />
<path d="M891.2,211.47L896.2,211.47" style="fill:none;stroke:#1FD3AC" />
<path d="M902.77,197.66L902.77,225.72" style="fill:none;stroke:#1FD3AC" />
<path d="M900.27,197.66L905.27,197.66" style="fill:none;stroke:#1FD3AC" />
<path d="M900.27,225.72L905.27,225.72" style="fill:none;stroke:#1FD3AC" />
<path d="M911.83,193.52L911.83,222.24" style="fill:none;stroke:#1FD3AC" />
<path d="M909.33,193.52L914.33,193.52" style="fill:none;stroke:#1FD3AC" />
<path d="M909.33,222.24L914.33,222.24" style="fill:none;stroke:#1FD3AC" />
<path d="M920.9,212.19L920.9,225.41" style="fill:none;stroke:#1FD3AC" />
<path d="M918.4,212.19L923.4,212.19" style="fill:none;stroke:#1FD3AC" />
<path d="M918.4,225.41L923.4,225.41" style="fill:none;stroke:#1FD3AC" />
<path d="M929.96,196.9L929.96,242.82" style="fill:none;stroke:#1FD3AC" />
<path d="M927.46,196.9L932.46,196.9" style="fill:none;stroke:#1FD3AC" />
<path d="M927.46,242.82L932.46,242.82" style="fill:none;stroke:#1FD3AC" />
<path d="M939.03,231.05L939.03,248.68" style="fill:none;stroke:#1FD3AC" />
<path d="M936.53,231.05L941.53,231.05" style="fill:none;stroke:#1FD3AC" />
<path d="M936.53,248.68L941.53,248.68" style="fill:none;stroke:#1FD3AC" />
<path d="M948.09,249.74L948.09,271.68" style="fill:none;stroke:#1FD3AC" />
<path d="M945.59,249.74L950.59,249.74" style="fill:none;stroke:#1FD3AC" />
<path d="M945.59,271.68L950.59,271.68" style="fill:none;stroke:#1FD3AC" />
<path d="M957.16,265.19L957.16,279.47" style="fill:none;stroke:#1FD3AC" />
<path d="M954.66,265.19L959.66,265.19" style="fill:none;stroke:#1FD3AC" />
<path d="M954.66,279.47L959.66,279.47" style="fill:none;stroke:#1FD3AC" />
<path d="M966.22,216.14L966.22,270.49" style="fill:none;stroke:#1FD3AC" />
<path d="M963.72,216.14L968.72,216.14" style="fill:none;stroke:#1FD3AC" />
<path d="M963.72,270.49L968.72,270.49" style="fill:none;stroke:#1FD3AC" />
<path d="M975.29,232.99L975.29,267.74" style="fill:none;stroke:#1FD3AC" />
<path d="M972.79,232.99L977.79,232.99" style="fill:none;stroke:#1FD3AC" />
<path d="M972.79,267.74L977.79,267.74" style="fill:none;stroke:#1FD3AC" />
<path d="M984.35,241.39L984.35,253.69" style="fill:none;stroke:#1FD3AC" />
<path d="M981.85,241.39L986.85,241.39" style="fill:none;stroke:#1FD3AC" />
<path d="M981.85,253.69L986.85,253.69" style="fill:none;stroke:#1FD3AC" />
<path d="M993.42,264.06L993.42,285.79" style="fill:none;stroke:#1FD3AC" />
<path d="M990.92,264.06L995.92,264.06" style="fill:none;stroke:#1FD3AC" />
<path d="M990.92,285.79L995.92,285.79" style="fill:none;stroke:#1FD3AC" />
<path d="M1002.5,219.43L1002.5,252.03" style="fill:none;stroke:#1FD3AC" />
<path d="M999.98,219.43L1005,219.43" style="fill:none;stroke:#1FD3AC" />
<path d="M999.98,252.03L1005,252.03" style="fill:none;stroke:#1FD3AC" />
<path d="M1011.5,250.34L1011.5,262.99" style="fill:none;stroke:#1FD3AC" />
<path d="M1009,250.34L1014,250.34" style="fill:none;stroke:#1FD3AC" />
<path d="M1009,262.99L1014,262.99" style="fill:none;stroke:#1FD3AC" />
<path d="M1020.6,239.18L1020.6,282.19" style="fill:none;stroke:#1FD3AC" />
<path d="M1018.1,239.18L1023.1,239.18" style="fill:none;stroke:#1FD3AC" />
<path d="M1018.1,282.19L1023.1,282.19" style="fill:none;stroke:#1FD3AC" />
<path d="M1029.7,230.43L1029.7,274.46" style="fill:none;stroke:#1FD3AC" />
<path d="M1027.2,230.43L1032.2,230.43" style="fill:none;stroke:#1FD3AC" />
<path d="M1027.2,274.46L1032.2,274.46" style="fill:none;stroke:#1FD3AC" />
<path d="M1038.7,224.57L1038.7,249.62" style="fill:none;stroke:#1FD3AC" />
<path d="M1036.2,224.57L1041.2,224.57" style="fill:none;stroke:#1FD3AC" />
<path d="M1036.2,249.62L1041.2,249.62" style="fill:none;stroke:#1FD3AC" />
<path d="M1047.8,237.51L1047.8,278.48" style="fill:none;stroke:#1FD3AC" />
<path d="M1045.3,237.51L1050.3,237.51" style="fill:none;stroke:#1FD3AC" />
<path d="M1045.3,278.48L1050.3,278.48" style="fill:none;stroke:#1FD3AC" />
<path d="M1056.9,260.64L1056.9,295.15" style="fill:none;stroke:#1FD3AC" />
<path d="M1054.4,260.64L1059.4,260.64" style="fill:none;stroke:#1FD3AC" />
<path d="M1054.4,295.15L1059.4,295.15" style="fill:none;stroke:#1FD3AC" />
<path d="M1065.9,243.22L1065.9,271.03" style="fill:none;stroke:#1FD3AC" />
<path d="M1063.4,243.22L1068.4,243.22" style="fill:none;stroke:#1FD3AC" />
<path d="M1063.4,271.03L1068.4,271.03" style="fill:none;stroke:#1FD3AC" />
<path d="M1075,237.77L1075,288.9" style="fill:none;stroke:#1FD3AC" />
<path d="M1072.5,237.77L1077.5,237.77" style="fill:none;stroke:#1FD3AC" />
<path d="M1072.5,288.9L1077.5,288.9" style="fill:none;stroke:#1FD3AC" />
<path d="M200.71,758.69A5,5 0 1 1 190.71,758.69A5,5 0 1 1 200.71,758.69Z" style="fill:#1FD3AC" />
<path d="M209.77,742.75A5,5 0 1 1 199.77,742.75A5,5 0 1 1 209.77,742.75Z" style="fill:#1FD3AC" />
<path d="M218.84,768.5A5,5 0 1 1 208.84,768.5A5,5 0 1 1 218.84,768.5Z" style="fill:#1FD3AC" />
<path d="M227.9,766.3A5,5 0 1 1 217.9,766.3A5,5 0 1 1 227.9,766.3Z" style="fill:#1FD3AC" />
<path d="M236.97,790.03A5,5 0 1 1 226.97,790.03A5,5 0 1 1 236.97,790.03Z" style="fill:#1FD3AC" />
<path d="M246.03,765.21A5,5 0 1 1 236.03,765.21A5,5 0 1 1 246.03,765.21Z" style="fill:#1FD3AC" />
<path d="M255.1,750.18A5,5 0 1 1 245.1,750.18A5,5 0 1 1 255.1,750.18Z" style="fill:#1FD3AC" />
<path d="M264.16,797.81A5,5 0 1 1 254.16,797.81A5,5 0 1 1 264.16,797.81Z" style="fill:#1FD3AC" />
<path d="M273.23,736.41A5,5 0 1 1 263.23,736.41A5,5 0 1 1 273.23,736.41Z" style="fill:#1FD3AC" />
<path d="M282.29,795.19A5,5 0 1 1 272.29,795.19A5,5 0 1 1 282.29,795.19Z" style="fill:#1FD3AC" />
<path d="M291.36,754.73A5,5 0 1 1 281.36,754.73A5,5 0 1 1 291.36,754.73Z" style="fill:#1FD3AC" />
<path d="M300.42,748.7A5,5 0 1 1 290.42,748.7A5,5 0 1 1 300.42,748.7Z" style="fill:#1FD3AC" />
<path d="M309.49,793.14A5,5 0 1 1 299.49,793.14A5,5 0 1 1 309.49,793.14Z" style="fill:#1FD3AC" />
<path d="M318.55,777.73A5,5 0 1 1 308.55,777.73A5,5 0 1 1 318.55,777.73Z" style="fill:#1FD3AC" />
<path d="M327.62,784.63A5,5 0 1 1 317.62,784.63A5,5 0 1 1 327.62,784.63Z" style="fill:#1FD3AC" />
<path d="M336.68,747.84A5,5 0 1 1 326.68,747.84A5,5 0 1 1 336.68,747.84Z" style="fill:#1FD3AC" />
<path d="M345.75,790.42A5,5 0 1 1 335.75,790.42A5,5 0 1 1 345.75,790.42Z" style="fill:#1FD3AC" />
<path d="M354.81,749.03A5,5 0 1 1 344.81,749.03A5,5 0 1 1 354.81,749.03Z" style="fill:#1FD3AC" />
<path d="M363.88,756.9A5,5 0 1 1 353.88,756.9A5,5 0 1 1 363.88,756.9Z" style="fill:#1FD3AC" />
<path d="M372.94,680.43A5,5 0 1 1 362.94,680.43A5,5 0 1 1 372.94,680.43Z" style="fill:#1FD3AC" />
<path d="M382.01,670.09A5,5 0 1 1 372.01,670.09A5,5 0 1 1 382.01,670.09Z" style="fill:#1FD3AC" />
<path d="M391.07,708.2A5,5 0 1 1 381.07,708.2A5,5 0 1 1 391.07,708.2Z" style="fill:#1FD3AC" />
<path d="M400.14,662.11A5,5 0 1 1 390.14,662.11A5,5 0 1 1 400.14,662.11Z" style="fill:#1FD3AC" />
<path d="M409.2,632.21A5,5 0 1 1 399.2,632.21A5,5 0 1 1 409.2,632.21Z" style="fill:#1FD3AC" />
<path d="M418.27,636.8A5,5 0 1 1 408.27,636.8A5,5 0 1 1 418.27,636.8Z" style="fill:#1FD3AC" />
<path d="M427.33,621.5A5,5 0 1 1 417.33,621.5A5,5 0 1 1 427.33,621.5Z" style="fill:#1FD3AC" />
<path d="M436.4,566A5,5 0 1 1 426.4,566A5,5 0 1 1 436.4,566Z" style="fill:#1FD3AC" />
<path d="M445.46,563.89A5,5 0 1 1 435.46,563.89A5,5 0 1 1 445.46,563.89Z" style="fill:#1FD3AC" />
<path d="M454.52,541.62A5,5 0 1 1 444.52,541.62A5,5 0 1 1 454.52,541.62Z" style="fill:#1FD3AC" />
<path d="M463.59,496.3A5,5 0 1 1 453.59,496.3A5,5 0 1 1 463.59,496.3Z" style="fill:#1FD3AC" />
<path d="M472.65,519.57A5,5 0 1 1 462.65,519.57A5,5 0 1 1 472.65,519.57Z" style="fill:#1FD3AC" />
<path d="M481.72,513.95A5,5 0 1 1 471.72,513.95A5,5 0 1 1 481.72,513.95Z" style="fill:#1FD3AC" />
<path d="M490.78,491.15A5,5 0 1 1 480.78,491.15A5,5 0 1 1 490.78,491.15Z" style="fill:#1FD3AC" />
<path d="M499.85,450.85A5,5 0 1 1 489.85,450.85A5,5 0 1 1 499.85,450.85Z" style="fill:#1FD3AC" />
<path d="M508.91,413.92A5,5 0 1 1 498.91,413.92A5,5 0 1 1 508.91,413.92Z" style="fill:#1FD3AC" />
<path d="M517.98,428.98A5,5 0 1 1 507.98,428.98A5,5 0 1 1 517.98,428.98Z" style="fill:#1FD3AC" />
<path d="M527.04,408.16A5,5 0 1 1 517.04,408.16A5,5 0 1 1 527.04,408.16Z" style="fill:#1FD3AC" />
<path d="M536.11,388.23A5,5 0 1 1 526.11,388.23A5,5 0 1 1 536.11,388.23Z" style="fill:#1FD3AC" />
<path d="M545.17,382.9A5,5 0 1 1 535.17,382.9A5,5 0 1 1 545.17,382.9Z" style="fill:#1FD3AC" />
<path d="M554.24,324.3A5,5 0 1 1 544.24,324.3A5,5 0 1 1 554.24,324.3Z" style="fill:#1FD3AC" />
<path d="M563.3,302.1A5,5 0 1 1 553.3,302.1A5,5 0 1 1 563.3,302.1Z" style="fill:#1FD3AC" />
<path d="M572.37,281.15A5,5 0 1 1 562.37,281.15A5,5 0 1 1 572.37,281.15Z" style="fill:#1FD3AC" />
<path d="M581.43,261.15A5,5 0 1 1 571.43,261.15A5,5 0 1 1 581.43,261.15Z" style="fill:#1FD3AC" />
<path d="M590.5,264.35A5,5 0 1 1 580.5,264.35A5,5 0 1 1 590.5,264.35Z" style="fill:#1FD3AC" />
<path d="M599.56,280.3A5,5 0 1 1 589.56,280.3A5,5 0 1 1 599.56,280.3Z" style="fill:#1FD3AC" />
<path d="M608.63,233.73A5,5 0 1 1 598.63,233.73A5,5 0 1 1 608.63,233.73Z" style="fill:#1FD3AC" />
<path d="M617.69,260.05A5,5 0 1 1 607.69,260.05A5,5 0 1 1 617.69,260.05Z" style="fill:#1FD3AC" />
<path d="M626.76,260.76A5,5 0 1 1 616.76,260.76A5,5 0 1 1 626.76,260.76Z" style="fill:#1FD3AC" />
<path d="M635.82,258.9A5,5 0 1 1 625.82,258.9A5,5 0 1 1 635.82,258.9Z" style="fill:#1FD3AC" />
<path d="M644.89,246.78A5,5 0 1 1 634.89,246.78A5,5 0 1 1 644.89,246.78Z" style="fill:#1FD3AC" />
<path d="M653.95,280.78A5,5 0 1 1 643.95,280.78A5,5 0 1 1 653.95,280.78Z" style="fill:#1FD3AC" />
<path d="M663.02,298A5,5 0 1 1 653.02,298A5,5 0 1 1 663.02,298Z" style="fill:#1FD3AC" />
<path d="M672.08,279.07A5,5 0 1 1 662.08,279.07A5,5 0 1 1 672.08,279.07Z" style="fill:#1FD3AC" />
<path d="M681.15,232.12A5,5 0 1 1 671.15,232.12A5,5 0 1 1 681.15,232.12Z" style="fill:#1FD3AC" />
<path d="M690.21,202.52A5,5 0 1 1 680.21,202.52A5,5 0 1 1 690.21,202.52Z" style="fill:#1FD3AC" />
<path d="M699.28,167.44A5,5 0 1 1 689.28,167.44A5,5 0 1 1 699.28,167.44Z" style="fill:#1FD3AC" />
<path d="M708.34,169.7A5,5 0 1 1 698.34,169.7A5,5 0 1 1 708.34,169.7Z" style="fill:#1FD3AC" />
<path d="M717.41,207.66A5,5 0 1 1 707.41,207.66A5,5 0 1 1 717.41,207.66Z" style="fill:#1FD3AC" />
<path d="M726.47,217.74A5,5 0 1 1 716.47,217.74A5,5 0 1 1 726.47,217.74Z" style="fill:#1FD3AC" />
<path d="M735.54,198.42A5,5 0 1 1 725.54,198.42A5,5 0 1 1 735.54,198.42Z" style="fill:#1FD3AC" />
<path d="M744.6,177.91A5,5 0 1 1 734.6,177.91A5,5 0 1 1 744.6,177.91Z" style="fill:#1FD3AC" />
<path d="M753.67,140.06A5,5 0 1 1 743.67,140.06A5,5 0 1 1 753.67,140.06Z" style="fill:#1FD3AC" />
<path d="M762.73,144.11A5,5 0 1 1 752.73,144.11A5,5 0 1 1 762.73,144.11Z" style="fill:#1FD3AC" />
<path d="M771.79,160.74A5,5 0 1 1 761.79,160.74A5,5 0 1 1 771.79,160.74Z" style="fill:#1FD3AC" />
<path d="M780.86,166.31A5,5 0 1 1 770.86,166.31A5,5 0 1 1 780.86,166.31Z" style="fill:#1FD3AC" />
<path d="M789.92,189.84A5,5 0 1 1 779.92,189.84A5,5 0 1 1 789.92,189.84Z" style="fill:#1FD3AC" />
<path d="M798.99,175.53A5,5 0 1 1 788.99,175.53A5,5 0 1 1 798.99,175.53Z" style="fill:#1FD3AC" />
<path d="M808.05,185.57A5,5 0 1 1 798.05,185.57A5,5 0 1 1 808.05,185.57Z" style="fill:#1FD3AC" />
<path d="M817.12,179.24A5,5 0 1 1 807.12,179.24A5,5 0 1 1 817.12,179.24Z" style="fill:#1FD3AC" />
<path d="M826.18,175.91A5,5 0 1 1 816.18,175.91A5,5 0 1 1 826.18,175.91Z" style="fill:#1FD3AC" />
<path d="M835.25,180.26A5,5 0 1 1 825.25,180.26A5,5 0 1 1 835.25,180.26Z" style="fill:#1FD3AC" />
<path d="M844.31,208.93A5,5 0 1 1 834.31,208.93A5,5 0 1 1 844.31,208.93Z" style="fill:#1FD3AC" />
<path d="M853.38,210.99A5,5 0 1 1 843.38,210.99A5,5 0 1 1 853.38,210.99Z" style="fill:#1FD3AC" />
<path d="M862.44,211.2A5,5 0 1 1 852.44,211.2A5,5 0 1 1 862.44,211.2Z" style="fill:#1FD3AC" />
<path d="M871.51,195.85A5,5 0 1 1 861.51,195.85A5,5 0 1 1 871.51,195.85Z" style="fill:#1FD3AC" />
<path d="M880.57,203.96A5,5 0 1 1 870.57,203.96A5,5 0 1 1 880.57,203.96Z" style="fill:#1FD3AC" />
<path d="M889.64,191.39A5,5 0 1 1 879.64,191.39A5,5 0 1 1 889.64,191.39Z" style="fill:#1FD3AC" />
<path d="M898.7,196.5A5,5 0 1 1 888.7,196.5A5,5 0 1 1 898.7,196.5Z" style="fill:#1FD3AC" />
<path d="M907.77,211.69A5,5 0 1 1 897.77,211.69A5,5 0 1 1 907.77,211.69Z" style="fill:#1FD3AC" />
<path d="M916.83,207.88A5,5 0 1 1 906.83,207.88A5,5 0 1 1 916.83,207.88Z" style="fill:#1FD3AC" />
<path d="M925.9,218.8A5,5 0 1 1 915.9,218.8A5,5 0 1 1 925.9,218.8Z" style="fill:#1FD3AC" />
<path d="M934.96,219.86A5,5 0 1 1 924.96,219.86A5,5 0 1 1 934.96,219.86Z" style="fill:#1FD3AC" />
<path d="M944.03,239.86A5,5 0 1 1 934.03,239.86A5,5 0 1 1 944.03,239.86Z" style="fill:#1FD3AC" />
<path d="M953.09,260.71A5,5 0 1 1 943.09,260.71A5,5 0 1 1 953.09,260.71Z" style="fill:#1FD3AC" />
<path d="M962.16,272.33A5,5 0 1 1 952.16,272.33A5,5 0 1 1 962.16,272.33Z" style="fill:#1FD3AC" />
<path d="M971.22,243.32A5,5 0 1 1 961.22,243.32A5,5 0 1 1 971.22,243.32Z" style="fill:#1FD3AC" />
<path d="M980.29,250.37A5,5 0 1 1 970.29,250.37A5,5 0 1 1 980.29,250.37Z" style="fill:#1FD3AC" />
<path d="M989.35,247.54A5,5 0 1 1 979.35,247.54A5,5 0 1 1 989.35,247.54Z" style="fill:#1FD3AC" />
<path d="M998.42,274.92A5,5 0 1 1 988.42,274.92A5,5 0 1 1 998.42,274.92Z" style="fill:#1FD3AC" />
<path d="M1007.5,235.73A5,5 0 1 1 997.48,235.73A5,5 0 1 1 1007.5,235.73Z" style="fill:#1FD3AC" />
<path d="M1016.5,256.67A5,5 0 1 1 1006.5,256.67A5,5 0 1 1 1016.5,256.67Z" style="fill:#1FD3AC" />
<path d="M1025.6,260.69A5,5 0 1 1 1015.6,260.69A5,5 0 1 1 1025.6,260.69Z" style="fill:#1FD3AC" />
<path d="M1034.7,252.45A5,5 0 1 1 1024.7,252.45A5,5 0 1 1 1034.7,252.45Z" style="fill:#1FD3AC" />
<path d="M1043.7,237.09A5,5 0 1 1 1033.7,237.09A5,5 0 1 1 1043.7,237.09Z" style="fill:#1FD3AC" />
<path d="M1052.8,257.99A5,5 0 1 1 1042.8,257.99A5,5 0 1 1 1052.8,257.99Z" style="fill:#1FD3AC" />
<path d="M1061.9,277.9A5,5 0 1 1 1051.9,277.9A5,5 0 1 1 1061.9,277.9Z" style="fill:#1FD3AC" />
<path d="M1070.9,257.12A5,5 0 1 1 1060.9,257.12A5,5 0 1 1 1070.9,257.12Z" style="fill:#1FD3AC" />
<path d="M1080,263.34A5,5 0 1 1 1070,263.34A5,5 0 1 1 1080,263.34Z" style="fill:#1FD3AC" />
<path d="M195.71,974.14L1075,974.14" style="fill:none;stroke:#000000" />
<path d="M1075,108.82L1075,974.14" style="fill:none;stroke:#000000" />
<path d="M1038,952.49A8,8 0 1 1 1022,952.49A8,8 0 1 1 1038,952.49Z" style="fill:#1FD3AC" />
<text x="872.75" y="-945.9" transform="scale(1, -1)"
	style="font-family:Helvetica;font-weight:normal;font-style:normal;font-size:28px">1mm CS2</text>
</g>
</svg>
