<?xml version="1.0"?>
<!-- Generated by SVGo and Plotinum VG -->
<svg width="1080pt" height="1080pt" viewBox="0 0 1080 1080"
	xmlns="http://www.w3.org/2000/svg"
	xmlns:xlink="http://www.w3.org/1999/xlink">
<g transform="scale(1, -1) translate(0, -1080)">
<path d="M0,0L1080,0L1080,1080L0,1080Z" style="fill:#-8000000000000000-8000000000000000-8000000000000000;fill-opacity:0" />
<text x="348.69" y="-1039.5" transform="scale(1, -1)"
	style="font-family:Helvetica;font-weight:normal;font-style:normal;font-size:50px">500 nm Te CABS</text>
<text x="442.52" y="-11.039" transform="scale(1, -1)"
	style="font-family:Helvetica;font-weight:normal;font-style:normal;font-size:36px">Frequency (GHz)</text>
<text x="81.099" y="-71.258" transform="scale(1, -1)"
	style="font-family:Helvetica;font-weight:normal;font-style:normal;font-size:36px">2.4</text>
<text x="318.31" y="-71.258" transform="scale(1, -1)"
	style="font-family:Helvetica;font-weight:normal;font-style:normal;font-size:36px">2.5</text>
<text x="555.53" y="-71.258" transform="scale(1, -1)"
	style="font-family:Helvetica;font-weight:normal;font-style:normal;font-size:36px">2.6</text>
<text x="792.74" y="-71.258" transform="scale(1, -1)"
	style="font-family:Helvetica;font-weight:normal;font-style:normal;font-size:36px">2.7</text>
<text x="1030" y="-71.258" transform="scale(1, -1)"
	style="font-family:Helvetica;font-weight:normal;font-style:normal;font-size:36px">2.8</text>
<path d="M106.12,116.44L106.12,108.44" style="fill:none;stroke:#000000;stroke-width:1.5" />
<path d="M224.73,112.44L224.73,108.44" style="fill:none;stroke:#000000;stroke-width:1.5" />
<path d="M343.34,116.44L343.34,108.44" style="fill:none;stroke:#000000;stroke-width:1.5" />
<path d="M461.94,112.44L461.94,108.44" style="fill:none;stroke:#000000;stroke-width:1.5" />
<path d="M580.55,116.44L580.55,108.44" style="fill:none;stroke:#000000;stroke-width:1.5" />
<path d="M699.16,112.44L699.16,108.44" style="fill:none;stroke:#000000;stroke-width:1.5" />
<path d="M817.76,116.44L817.76,108.44" style="fill:none;stroke:#000000;stroke-width:1.5" />
<path d="M936.37,112.44L936.37,108.44" style="fill:none;stroke:#000000;stroke-width:1.5" />
<path d="M1055,116.44L1055,108.44" style="fill:none;stroke:#000000;stroke-width:1.5" />
<path d="M106.12,108.44L1055,108.44" style="fill:none;stroke:#000000;stroke-width:1.5" />
<g transform="rotate(90)">
<text x="369.17" y="29.18" transform="scale(1, -1)"
	style="font-family:Helvetica;font-weight:normal;font-style:normal;font-size:36px">Spectral Density (uV)</text>
</g>
<text x="67.848" y="-182.23" transform="scale(1, -1)"
	style="font-family:Helvetica;font-weight:normal;font-style:normal;font-size:36px">1</text>
<text x="67.848" y="-356.19" transform="scale(1, -1)"
	style="font-family:Helvetica;font-weight:normal;font-style:normal;font-size:36px">3</text>
<text x="67.848" y="-530.16" transform="scale(1, -1)"
	style="font-family:Helvetica;font-weight:normal;font-style:normal;font-size:36px">5</text>
<text x="67.848" y="-704.12" transform="scale(1, -1)"
	style="font-family:Helvetica;font-weight:normal;font-style:normal;font-size:36px">7</text>
<text x="67.848" y="-878.09" transform="scale(1, -1)"
	style="font-family:Helvetica;font-weight:normal;font-style:normal;font-size:36px">9</text>
<path d="M109.87,104.32L105.87,104.32" style="fill:none;stroke:#000000;stroke-width:1.5" />
<path d="M113.87,191.3L105.87,191.3" style="fill:none;stroke:#000000;stroke-width:1.5" />
<path d="M109.87,278.28L105.87,278.28" style="fill:none;stroke:#000000;stroke-width:1.5" />
<path d="M113.87,365.26L105.87,365.26" style="fill:none;stroke:#000000;stroke-width:1.5" />
<path d="M109.87,452.25L105.87,452.25" style="fill:none;stroke:#000000;stroke-width:1.5" />
<path d="M113.87,539.23L105.87,539.23" style="fill:none;stroke:#000000;stroke-width:1.5" />
<path d="M109.87,626.21L105.87,626.21" style="fill:none;stroke:#000000;stroke-width:1.5" />
<path d="M113.87,713.19L105.87,713.19" style="fill:none;stroke:#000000;stroke-width:1.5" />
<path d="M109.87,800.18L105.87,800.18" style="fill:none;stroke:#000000;stroke-width:1.5" />
<path d="M113.87,887.16L105.87,887.16" style="fill:none;stroke:#000000;stroke-width:1.5" />
<path d="M109.87,974.14L105.87,974.14" style="fill:none;stroke:#000000;stroke-width:1.5" />
<path d="M105.87,104.32L105.87,974.14" style="fill:none;stroke:#000000;stroke-width:1.5" />
<path d="M123.09,155.22A5,5 0 1 1 113.09,155.22A5,5 0 1 1 123.09,155.22Z" style="fill:#1FD3AC" />
<path d="M135.06,156.23A5,5 0 1 1 125.06,156.23A5,5 0 1 1 135.06,156.23Z" style="fill:#1FD3AC" />
<path d="M147.03,165.69A5,5 0 1 1 137.03,165.69A5,5 0 1 1 147.03,165.69Z" style="fill:#1FD3AC" />
<path d="M159,174.48A5,5 0 1 1 149,174.48A5,5 0 1 1 159,174.48Z" style="fill:#1FD3AC" />
<path d="M170.97,162.15A5,5 0 1 1 160.97,162.15A5,5 0 1 1 170.97,162.15Z" style="fill:#1FD3AC" />
<path d="M182.93,173.27A5,5 0 1 1 172.93,173.27A5,5 0 1 1 182.93,173.27Z" style="fill:#1FD3AC" />
<path d="M194.9,157.9A5,5 0 1 1 184.9,157.9A5,5 0 1 1 194.9,157.9Z" style="fill:#1FD3AC" />
<path d="M206.87,163.49A5,5 0 1 1 196.87,163.49A5,5 0 1 1 206.87,163.49Z" style="fill:#1FD3AC" />
<path d="M218.84,157.57A5,5 0 1 1 208.84,157.57A5,5 0 1 1 218.84,157.57Z" style="fill:#1FD3AC" />
<path d="M230.81,155.47A5,5 0 1 1 220.81,155.47A5,5 0 1 1 230.81,155.47Z" style="fill:#1FD3AC" />
<path d="M242.78,162.23A5,5 0 1 1 232.78,162.23A5,5 0 1 1 242.78,162.23Z" style="fill:#1FD3AC" />
<path d="M254.75,166.66A5,5 0 1 1 244.75,166.66A5,5 0 1 1 254.75,166.66Z" style="fill:#1FD3AC" />
<path d="M266.72,167.12A5,5 0 1 1 256.72,167.12A5,5 0 1 1 266.72,167.12Z" style="fill:#1FD3AC" />
<path d="M278.69,172.12A5,5 0 1 1 268.69,172.12A5,5 0 1 1 278.69,172.12Z" style="fill:#1FD3AC" />
<path d="M290.65,190.17A5,5 0 1 1 280.65,190.17A5,5 0 1 1 290.65,190.17Z" style="fill:#1FD3AC" />
<path d="M302.62,181.87A5,5 0 1 1 292.62,181.87A5,5 0 1 1 302.62,181.87Z" style="fill:#1FD3AC" />
<path d="M314.59,156.76A5,5 0 1 1 304.59,156.76A5,5 0 1 1 314.59,156.76Z" style="fill:#1FD3AC" />
<path d="M326.56,171.52A5,5 0 1 1 316.56,171.52A5,5 0 1 1 326.56,171.52Z" style="fill:#1FD3AC" />
<path d="M338.53,177.16A5,5 0 1 1 328.53,177.16A5,5 0 1 1 338.53,177.16Z" style="fill:#1FD3AC" />
<path d="M350.5,186.77A5,5 0 1 1 340.5,186.77A5,5 0 1 1 350.5,186.77Z" style="fill:#1FD3AC" />
<path d="M362.47,186.8A5,5 0 1 1 352.47,186.8A5,5 0 1 1 362.47,186.8Z" style="fill:#1FD3AC" />
<path d="M374.44,182.42A5,5 0 1 1 364.44,182.42A5,5 0 1 1 374.44,182.42Z" style="fill:#1FD3AC" />
<path d="M386.41,187.25A5,5 0 1 1 376.41,187.25A5,5 0 1 1 386.41,187.25Z" style="fill:#1FD3AC" />
<path d="M398.37,179.9A5,5 0 1 1 388.37,179.9A5,5 0 1 1 398.37,179.9Z" style="fill:#1FD3AC" />
<path d="M410.34,199.92A5,5 0 1 1 400.34,199.92A5,5 0 1 1 410.34,199.92Z" style="fill:#1FD3AC" />
<path d="M422.31,200A5,5 0 1 1 412.31,200A5,5 0 1 1 422.31,200Z" style="fill:#1FD3AC" />
<path d="M434.28,190.28A5,5 0 1 1 424.28,190.28A5,5 0 1 1 434.28,190.28Z" style="fill:#1FD3AC" />
<path d="M446.25,180.13A5,5 0 1 1 436.25,180.13A5,5 0 1 1 446.25,180.13Z" style="fill:#1FD3AC" />
<path d="M458.22,190.19A5,5 0 1 1 448.22,190.19A5,5 0 1 1 458.22,190.19Z" style="fill:#1FD3AC" />
<path d="M470.19,186.73A5,5 0 1 1 460.19,186.73A5,5 0 1 1 470.19,186.73Z" style="fill:#1FD3AC" />
<path d="M482.16,182.99A5,5 0 1 1 472.16,182.99A5,5 0 1 1 482.16,182.99Z" style="fill:#1FD3AC" />
<path d="M494.13,186.61A5,5 0 1 1 484.13,186.61A5,5 0 1 1 494.13,186.61Z" style="fill:#1FD3AC" />
<path d="M506.09,197.75A5,5 0 1 1 496.09,197.75A5,5 0 1 1 506.09,197.75Z" style="fill:#1FD3AC" />
<path d="M518.06,214.29A5,5 0 1 1 508.06,214.29A5,5 0 1 1 518.06,214.29Z" style="fill:#1FD3AC" />
<path d="M530.03,249.33A5,5 0 1 1 520.03,249.33A5,5 0 1 1 530.03,249.33Z" style="fill:#1FD3AC" />
<path d="M542,236.17A5,5 0 1 1 532,236.17A5,5 0 1 1 542,236.17Z" style="fill:#1FD3AC" />
<path d="M553.97,226.67A5,5 0 1 1 543.97,226.67A5,5 0 1 1 553.97,226.67Z" style="fill:#1FD3AC" />
<path d="M565.94,219.13A5,5 0 1 1 555.94,219.13A5,5 0 1 1 565.94,219.13Z" style="fill:#1FD3AC" />
<path d="M577.91,214.13A5,5 0 1 1 567.91,214.13A5,5 0 1 1 577.91,214.13Z" style="fill:#1FD3AC" />
<path d="M589.88,188.55A5,5 0 1 1 579.88,188.55A5,5 0 1 1 589.88,188.55Z" style="fill:#1FD3AC" />
<path d="M601.84,200.05A5,5 0 1 1 591.84,200.05A5,5 0 1 1 601.84,200.05Z" style="fill:#1FD3AC" />
<path d="M613.81,203.06A5,5 0 1 1 603.81,203.06A5,5 0 1 1 613.81,203.06Z" style="fill:#1FD3AC" />
<path d="M625.78,218.74A5,5 0 1 1 615.78,218.74A5,5 0 1 1 625.78,218.74Z" style="fill:#1FD3AC" />
<path d="M637.75,189.52A5,5 0 1 1 627.75,189.52A5,5 0 1 1 637.75,189.52Z" style="fill:#1FD3AC" />
<path d="M649.72,164.23A5,5 0 1 1 639.72,164.23A5,5 0 1 1 649.72,164.23Z" style="fill:#1FD3AC" />
<path d="M661.69,156.69A5,5 0 1 1 651.69,156.69A5,5 0 1 1 661.69,156.69Z" style="fill:#1FD3AC" />
<path d="M673.66,153.95A5,5 0 1 1 663.66,153.95A5,5 0 1 1 673.66,153.95Z" style="fill:#1FD3AC" />
<path d="M685.63,159.46A5,5 0 1 1 675.63,159.46A5,5 0 1 1 685.63,159.46Z" style="fill:#1FD3AC" />
<path d="M697.6,159.64A5,5 0 1 1 687.6,159.64A5,5 0 1 1 697.6,159.64Z" style="fill:#1FD3AC" />
<path d="M709.56,154.57A5,5 0 1 1 699.56,154.57A5,5 0 1 1 709.56,154.57Z" style="fill:#1FD3AC" />
<path d="M721.53,163A5,5 0 1 1 711.53,163A5,5 0 1 1 721.53,163Z" style="fill:#1FD3AC" />
<path d="M733.5,162.68A5,5 0 1 1 723.5,162.68A5,5 0 1 1 733.5,162.68Z" style="fill:#1FD3AC" />
<path d="M745.47,157.65A5,5 0 1 1 735.47,157.65A5,5 0 1 1 745.47,157.65Z" style="fill:#1FD3AC" />
<path d="M757.44,161.73A5,5 0 1 1 747.44,161.73A5,5 0 1 1 757.44,161.73Z" style="fill:#1FD3AC" />
<path d="M769.41,154.53A5,5 0 1 1 759.41,154.53A5,5 0 1 1 769.41,154.53Z" style="fill:#1FD3AC" />
<path d="M781.38,160.66A5,5 0 1 1 771.38,160.66A5,5 0 1 1 781.38,160.66Z" style="fill:#1FD3AC" />
<path d="M793.35,156.51A5,5 0 1 1 783.35,156.51A5,5 0 1 1 793.35,156.51Z" style="fill:#1FD3AC" />
<path d="M805.32,153.78A5,5 0 1 1 795.32,153.78A5,5 0 1 1 805.32,153.78Z" style="fill:#1FD3AC" />
<path d="M817.28,151.82A5,5 0 1 1 807.28,151.82A5,5 0 1 1 817.28,151.82Z" style="fill:#1FD3AC" />
<path d="M829.25,146.85A5,5 0 1 1 819.25,146.85A5,5 0 1 1 829.25,146.85Z" style="fill:#1FD3AC" />
<path d="M841.22,133.59A5,5 0 1 1 831.22,133.59A5,5 0 1 1 841.22,133.59Z" style="fill:#1FD3AC" />
<path d="M853.19,134.65A5,5 0 1 1 843.19,134.65A5,5 0 1 1 853.19,134.65Z" style="fill:#1FD3AC" />
<path d="M865.16,134.97A5,5 0 1 1 855.16,134.97A5,5 0 1 1 865.16,134.97Z" style="fill:#1FD3AC" />
<path d="M877.13,146.29A5,5 0 1 1 867.13,146.29A5,5 0 1 1 877.13,146.29Z" style="fill:#1FD3AC" />
<path d="M889.1,152.06A5,5 0 1 1 879.1,152.06A5,5 0 1 1 889.1,152.06Z" style="fill:#1FD3AC" />
<path d="M901.07,158.73A5,5 0 1 1 891.07,158.73A5,5 0 1 1 901.07,158.73Z" style="fill:#1FD3AC" />
<path d="M913.04,151.91A5,5 0 1 1 903.04,151.91A5,5 0 1 1 913.04,151.91Z" style="fill:#1FD3AC" />
<path d="M925,157.3A5,5 0 1 1 915,157.3A5,5 0 1 1 925,157.3Z" style="fill:#1FD3AC" />
<path d="M936.97,181.26A5,5 0 1 1 926.97,181.26A5,5 0 1 1 936.97,181.26Z" style="fill:#1FD3AC" />
<path d="M948.94,183.05A5,5 0 1 1 938.94,183.05A5,5 0 1 1 948.94,183.05Z" style="fill:#1FD3AC" />
<path d="M960.91,186.47A5,5 0 1 1 950.91,186.47A5,5 0 1 1 960.91,186.47Z" style="fill:#1FD3AC" />
<path d="M972.88,169.95A5,5 0 1 1 962.88,169.95A5,5 0 1 1 972.88,169.95Z" style="fill:#1FD3AC" />
<path d="M984.85,171.77A5,5 0 1 1 974.85,171.77A5,5 0 1 1 984.85,171.77Z" style="fill:#1FD3AC" />
<path d="M996.82,172.06A5,5 0 1 1 986.82,172.06A5,5 0 1 1 996.82,172.06Z" style="fill:#1FD3AC" />
<path d="M1008.8,163.9A5,5 0 1 1 998.79,163.9A5,5 0 1 1 1008.8,163.9Z" style="fill:#1FD3AC" />
<path d="M1020.8,157.66A5,5 0 1 1 1010.8,157.66A5,5 0 1 1 1020.8,157.66Z" style="fill:#1FD3AC" />
<path d="M1032.7,166A5,5 0 1 1 1022.7,166A5,5 0 1 1 1032.7,166Z" style="fill:#1FD3AC" />
<path d="M1044.7,168.38A5,5 0 1 1 1034.7,168.38A5,5 0 1 1 1044.7,168.38Z" style="fill:#1FD3AC" />
<path d="M106.12,974.14L1055,974.14" style="fill:none;stroke:#000000" />
<path d="M1055,104.32L1055,974.14" style="fill:none;stroke:#000000" />
</g>
</svg>
