<?xml version="1.0"?>
<!-- Generated by SVGo and Plotinum VG -->
<svg width="612pt" height="1296pt" viewBox="0 0 612 1296"
	xmlns="http://www.w3.org/2000/svg"
	xmlns:xlink="http://www.w3.org/1999/xlink">
<g transform="scale(1, -1) translate(0, -1296)">
<path d="M0,0L612,0L612,1296L0,1296Z" style="fill:#FFFFFF" />
<text x="239.48" y="-5.5195" transform="scale(1, -1)"
	style="font-family:Helvetica;font-weight:normal;font-style:normal;font-size:18px">Frequency (GHz)</text>
<text x="3.5058" y="-25.016" transform="scale(1, -1)"
	style="font-family:Helvetica;font-weight:normal;font-style:normal;font-size:16px">2.36</text>
<text x="285.19" y="-25.016" transform="scale(1, -1)"
	style="font-family:Helvetica;font-weight:normal;font-style:normal;font-size:16px">2.52</text>
<text x="566.87" y="-25.016" transform="scale(1, -1)"
	style="font-family:Helvetica;font-weight:normal;font-style:normal;font-size:16px">2.68</text>
<path d="M19.076,53.984L19.076,45.984" style="fill:none;stroke:#000000;stroke-width:1.5" />
<path d="M300.76,53.984L300.76,45.984" style="fill:none;stroke:#000000;stroke-width:1.5" />
<path d="M582.44,53.984L582.44,45.984" style="fill:none;stroke:#000000;stroke-width:1.5" />
<path d="M159.92,49.984L159.92,45.984" style="fill:none;stroke:#000000;stroke-width:1.5" />
<path d="M441.6,49.984L441.6,45.984" style="fill:none;stroke:#000000;stroke-width:1.5" />
<path d="M5,45.984L612,45.984" style="fill:none;stroke:#000000;stroke-width:1.5" />
<path d="M5,630.39L5,883.07L8.5291,883.96L12.058,896.59L15.587,893.98L19.116,897.96L22.645,890.63L26.174,900.46L29.703,897L33.233,910.69L36.762,909.84L40.291,913.85L43.82,911.29L47.349,909.97L50.878,917.45L54.407,916.07L57.936,915.7L61.465,928.01L64.994,927.47L68.523,927.31L72.052,922L75.581,931.37L79.11,924.28L82.64,926.67L86.169,929.14L89.698,931.79L93.227,938.53L96.756,940.42L100.28,940.66L103.81,944.22L107.34,940.34L110.87,945.88L114.4,946.9L117.93,946.12L121.46,947.69L124.99,951.72L128.52,952.08L132.05,959.5L135.58,961.42L139.1,974.9L142.63,978.84L146.16,977.13L149.69,975.53L153.22,979.35L156.75,989.93L160.28,988.86L163.81,993.18L167.34,995.1L170.87,997.68L174.4,995.89L177.92,1008.6L181.45,1003.9L184.98,1004.1L188.51,1016.5L192.04,1021.9L195.57,1023.2L199.1,1025L202.63,1036.1L206.16,1042.8L209.69,1052.5L213.22,1063.1L216.74,1068.3L220.27,1073.5L223.8,1075.6L227.33,1094.9L230.86,1111.6L234.39,1111L237.92,1124.9L241.45,1122.7L244.98,1138.4L248.51,1139.7L252.03,1151.2L255.56,1160.6L259.09,1170.7L262.62,1180.7L266.15,1187.1L269.68,1197L273.21,1209.9L276.74,1212.6L280.27,1218.8L283.8,1228.8L287.33,1226L290.85,1232.2L294.38,1228.3L297.91,1235.5L301.44,1229.8L304.97,1229.9L308.5,1230.3L312.03,1216L315.56,1206.3L319.09,1202.4L322.62,1190.4L326.15,1180.3L329.67,1165.5L333.2,1153.4L336.73,1139L340.26,1120.3L343.79,1109.8L347.32,1094.4L350.85,1076L354.38,1054.2L357.91,1045.1L361.44,1026.7L364.97,1017L368.49,999.61L372.02,985.27L375.55,975.11L379.08,963.67L382.61,959.56L386.14,948.81L389.67,930.25L393.2,926.64L396.73,919.12L400.26,909.45L403.78,908.54L407.31,894.49L410.84,895.64L414.37,887.72L417.9,880.42L421.43,870.56L424.96,859.75L428.49,854.36L432.02,853.54L435.55,847.08L439.08,841.62L442.6,837.8L446.13,830.82L449.66,829.9L453.19,828.75L456.72,823.25L460.25,817.12L463.78,810.9L467.31,812.91L470.84,807.19L474.37,798.32L477.9,795.72L481.42,791.12L484.95,790.73L488.48,785.77L492.01,788.91L495.54,787.38L499.07,789.67L502.6,789.72L506.13,785.16L509.66,787.21L513.19,784.77L516.72,781.73L520.24,780.8L523.77,778.61L527.3,783.57L530.83,778.86L534.36,777.85L537.89,779.53L541.42,786.37L544.95,786.79L548.48,783.59L552.01,786.51L555.53,785.3L559.06,787.17L562.59,785.43L566.12,784.49L569.65,787.83L573.18,785.61L576.71,790.02L580.24,783.46L583.77,780.19L587.3,787.1L590.83,787.18L594.35,790.63L597.88,784L601.41,783.24L604.94,789.96L608.47,785.51L612,782.06L612,630.39Z" style="fill:#FFFFFF" />
<path d="M5,883.07L8.5291,883.96L12.058,896.59L15.587,893.98L19.116,897.96L22.645,890.63L26.174,900.46L29.703,897L33.233,910.69L36.762,909.84L40.291,913.85L43.82,911.29L47.349,909.97L50.878,917.45L54.407,916.07L57.936,915.7L61.465,928.01L64.994,927.47L68.523,927.31L72.052,922L75.581,931.37L79.11,924.28L82.64,926.67L86.169,929.14L89.698,931.79L93.227,938.53L96.756,940.42L100.28,940.66L103.81,944.22L107.34,940.34L110.87,945.88L114.4,946.9L117.93,946.12L121.46,947.69L124.99,951.72L128.52,952.08L132.05,959.5L135.58,961.42L139.1,974.9L142.63,978.84L146.16,977.13L149.69,975.53L153.22,979.35L156.75,989.93L160.28,988.86L163.81,993.18L167.34,995.1L170.87,997.68L174.4,995.89L177.92,1008.6L181.45,1003.9L184.98,1004.1L188.51,1016.5L192.04,1021.9L195.57,1023.2L199.1,1025L202.63,1036.1L206.16,1042.8L209.69,1052.5L213.22,1063.1L216.74,1068.3L220.27,1073.5L223.8,1075.6L227.33,1094.9L230.86,1111.6L234.39,1111L237.92,1124.9L241.45,1122.7L244.98,1138.4L248.51,1139.7L252.03,1151.2L255.56,1160.6L259.09,1170.7L262.62,1180.7L266.15,1187.1L269.68,1197L273.21,1209.9L276.74,1212.6L280.27,1218.8L283.8,1228.8L287.33,1226L290.85,1232.2L294.38,1228.3L297.91,1235.5L301.44,1229.8L304.97,1229.9L308.5,1230.3L312.03,1216L315.56,1206.3L319.09,1202.4L322.62,1190.4L326.15,1180.3L329.67,1165.5L333.2,1153.4L336.73,1139L340.26,1120.3L343.79,1109.8L347.32,1094.4L350.85,1076L354.38,1054.2L357.91,1045.1L361.44,1026.7L364.97,1017L368.49,999.61L372.02,985.27L375.55,975.11L379.08,963.67L382.61,959.56L386.14,948.81L389.67,930.25L393.2,926.64L396.73,919.12L400.26,909.45L403.78,908.54L407.31,894.49L410.84,895.64L414.37,887.72L417.9,880.42L421.43,870.56L424.96,859.75L428.49,854.36L432.02,853.54L435.55,847.08L439.08,841.62L442.6,837.8L446.13,830.82L449.66,829.9L453.19,828.75L456.72,823.25L460.25,817.12L463.78,810.9L467.31,812.91L470.84,807.19L474.37,798.32L477.9,795.72L481.42,791.12L484.95,790.73L488.48,785.77L492.01,788.91L495.54,787.38L499.07,789.67L502.6,789.72L506.13,785.16L509.66,787.21L513.19,784.77L516.72,781.73L520.24,780.8L523.77,778.61L527.3,783.57L530.83,778.86L534.36,777.85L537.89,779.53L541.42,786.37L544.95,786.79L548.48,783.59L552.01,786.51L555.53,785.3L559.06,787.17L562.59,785.43L566.12,784.49L569.65,787.83L573.18,785.61L576.71,790.02L580.24,783.46L583.77,780.19L587.3,787.1L590.83,787.18L594.35,790.63L597.88,784L601.41,783.24L604.94,789.96L608.47,785.51L612,782.06" style="fill:none;stroke:#000000;stroke-width:2" />
<path d="M5,600.14L5,818.59L8.5291,819.23L12.058,820.88L15.587,820.92L19.116,828.1L22.645,824.56L26.174,824.44L29.703,828.42L33.233,831.31L36.762,829.87L40.291,840.52L43.82,839.23L47.349,839.14L50.878,835.6L54.407,840.94L57.936,842.28L61.465,833.97L64.994,844.43L68.523,838.65L72.052,838.16L75.581,842.8L79.11,847.01L82.64,850.16L86.169,845.22L89.698,843.96L93.227,861.41L96.756,863.02L100.28,857.95L103.81,861.22L107.34,858.47L110.87,857.51L114.4,864.18L117.93,864.95L121.46,865.06L124.99,859.97L128.52,869.28L132.05,873.43L135.58,876.19L139.1,881.71L142.63,878.06L146.16,874.84L149.69,880.05L153.22,883.24L156.75,880.21L160.28,878.3L163.81,884.51L167.34,891.84L170.87,895.24L174.4,888.1L177.92,904.05L181.45,903.51L184.98,910.05L188.51,910.22L192.04,919.98L195.57,919.39L199.1,924.63L202.63,920.47L206.16,942.29L209.69,941.57L213.22,946.91L216.74,952.47L220.27,953.55L223.8,958.6L227.33,968.58L230.86,979.91L234.39,983.87L237.92,986.36L241.45,1003.2L244.98,1010.6L248.51,1012L252.03,1018.2L255.56,1028.9L259.09,1035.2L262.62,1040.2L266.15,1052.3L269.68,1067.4L273.21,1067.4L276.74,1078.4L280.27,1083.6L283.8,1092.9L287.33,1107.7L290.85,1112.4L294.38,1124.9L297.91,1137.3L301.44,1142L304.97,1152.3L308.5,1164.9L312.03,1164.5L315.56,1175.4L319.09,1185.7L322.62,1191.5L326.15,1199.3L329.67,1191.6L333.2,1192.5L336.73,1194.4L340.26,1180.5L343.79,1172.4L347.32,1169.2L350.85,1157.3L354.38,1143.5L357.91,1134.2L361.44,1121.2L364.97,1110.3L368.49,1089.1L372.02,1073.1L375.55,1062.8L379.08,1041.1L382.61,1031.9L386.14,1019.3L389.67,1007.3L393.2,990.08L396.73,982.51L400.26,970.27L403.78,963.41L407.31,945.01L410.84,935.44L414.37,929.17L417.9,921.34L421.43,917.96L424.96,907.43L428.49,899.58L432.02,891.03L435.55,883.64L439.08,871.56L442.6,867.65L446.13,860.88L449.66,849.54L453.19,844.88L456.72,835.03L460.25,834.84L463.78,821.31L467.31,824.37L470.84,812.85L474.37,813.63L477.9,812.18L481.42,806.54L484.95,805.42L488.48,802.27L492.01,804.06L495.54,802.46L499.07,798.47L502.6,798.51L506.13,795.37L509.66,795.79L513.19,793.08L516.72,791.41L520.24,792.43L523.77,787.79L527.3,792.08L530.83,787.71L534.36,784.23L537.89,785.64L541.42,790.94L544.95,787.27L548.48,784.37L552.01,790.95L555.53,791.57L559.06,788.88L562.59,787.59L566.12,781.91L569.65,779.95L573.18,786.76L576.71,785.89L580.24,785.51L583.77,786.6L587.3,777.77L590.83,789.57L594.35,784.81L597.88,785.71L601.41,782.7L604.94,781.51L608.47,781.66L612,778.36L612,600.14Z" style="fill:#FFFFFF" />
<path d="M5,818.59L8.5291,819.23L12.058,820.88L15.587,820.92L19.116,828.1L22.645,824.56L26.174,824.44L29.703,828.42L33.233,831.31L36.762,829.87L40.291,840.52L43.82,839.23L47.349,839.14L50.878,835.6L54.407,840.94L57.936,842.28L61.465,833.97L64.994,844.43L68.523,838.65L72.052,838.16L75.581,842.8L79.11,847.01L82.64,850.16L86.169,845.22L89.698,843.96L93.227,861.41L96.756,863.02L100.28,857.95L103.81,861.22L107.34,858.47L110.87,857.51L114.4,864.18L117.93,864.95L121.46,865.06L124.99,859.97L128.52,869.28L132.05,873.43L135.58,876.19L139.1,881.71L142.63,878.06L146.16,874.84L149.69,880.05L153.22,883.24L156.75,880.21L160.28,878.3L163.81,884.51L167.34,891.84L170.87,895.24L174.4,888.1L177.92,904.05L181.45,903.51L184.98,910.05L188.51,910.22L192.04,919.98L195.57,919.39L199.1,924.63L202.63,920.47L206.16,942.29L209.69,941.57L213.22,946.91L216.74,952.47L220.27,953.55L223.8,958.6L227.33,968.58L230.86,979.91L234.39,983.87L237.92,986.36L241.45,1003.2L244.98,1010.6L248.51,1012L252.03,1018.2L255.56,1028.9L259.09,1035.2L262.62,1040.2L266.15,1052.3L269.68,1067.4L273.21,1067.4L276.74,1078.4L280.27,1083.6L283.8,1092.9L287.33,1107.7L290.85,1112.4L294.38,1124.9L297.91,1137.3L301.44,1142L304.97,1152.3L308.5,1164.9L312.03,1164.5L315.56,1175.4L319.09,1185.7L322.62,1191.5L326.15,1199.3L329.67,1191.6L333.2,1192.5L336.73,1194.4L340.26,1180.5L343.79,1172.4L347.32,1169.2L350.85,1157.3L354.38,1143.5L357.91,1134.2L361.44,1121.2L364.97,1110.3L368.49,1089.1L372.02,1073.1L375.55,1062.8L379.08,1041.1L382.61,1031.9L386.14,1019.3L389.67,1007.3L393.2,990.08L396.73,982.51L400.26,970.27L403.78,963.41L407.31,945.01L410.84,935.44L414.37,929.17L417.9,921.34L421.43,917.96L424.96,907.43L428.49,899.58L432.02,891.03L435.55,883.64L439.08,871.56L442.6,867.65L446.13,860.88L449.66,849.54L453.19,844.88L456.72,835.03L460.25,834.84L463.78,821.31L467.31,824.37L470.84,812.85L474.37,813.63L477.9,812.18L481.42,806.54L484.95,805.42L488.48,802.27L492.01,804.06L495.54,802.46L499.07,798.47L502.6,798.51L506.13,795.37L509.66,795.79L513.19,793.08L516.72,791.41L520.24,792.43L523.77,787.79L527.3,792.08L530.83,787.71L534.36,784.23L537.89,785.64L541.42,790.94L544.95,787.27L548.48,784.37L552.01,790.95L555.53,791.57L559.06,788.88L562.59,787.59L566.12,781.91L569.65,779.95L573.18,786.76L576.71,785.89L580.24,785.51L583.77,786.6L587.3,777.77L590.83,789.57L594.35,784.81L597.88,785.71L601.41,782.7L604.94,781.51L608.47,781.66L612,778.36" style="fill:none;stroke:#000000;stroke-width:2" />
<path d="M5,569.88L5,764.49L8.5291,767.02L12.058,758.57L15.587,760.35L19.116,758.83L22.645,764.7L26.174,765.69L29.703,771.77L33.233,773.06L36.762,772.92L40.291,775.24L43.82,782.69L47.349,779.22L50.878,772.87L54.407,773.43L57.936,776.48L61.465,776.72L64.994,782.85L68.523,779.92L72.052,787.84L75.581,789.14L79.11,779.52L82.64,788.13L86.169,777.67L89.698,788.06L93.227,777.72L96.756,780.09L100.28,785.41L103.81,793.6L107.34,789.94L110.87,787.19L114.4,792.15L117.93,783.3L121.46,797.58L124.99,799.92L128.52,796.31L132.05,803.01L135.58,798.93L139.1,805.37L142.63,803.06L146.16,806.35L149.69,808.56L153.22,818.15L156.75,810.84L160.28,819.75L163.81,817.54L167.34,820.47L170.87,822.54L174.4,822.06L177.92,827.87L181.45,825.85L184.98,825.16L188.51,836.81L192.04,838.68L195.57,845.67L199.1,849.43L202.63,851.9L206.16,847.86L209.69,854.29L213.22,861.38L216.74,873.9L220.27,879.23L223.8,890.69L227.33,900.01L230.86,903.68L234.39,907.82L237.92,918.57L241.45,929.63L244.98,933.02L248.51,945.05L252.03,951.12L255.56,967.04L259.09,977.89L262.62,984.3L266.15,999.09L269.68,1008.1L273.21,1021.2L276.74,1018.8L280.27,1031.1L283.8,1032.9L287.33,1051.9L290.85,1060.9L294.38,1066.9L297.91,1083.8L301.44,1093L304.97,1104.8L308.5,1101.3L312.03,1113.1L315.56,1121.7L319.09,1125.7L322.62,1125.5L326.15,1137.6L329.67,1136L333.2,1137.6L336.73,1131.5L340.26,1121.8L343.79,1115.9L347.32,1110L350.85,1096.9L354.38,1090L357.91,1075.8L361.44,1071.1L364.97,1051.3L368.49,1040.5L372.02,1031.6L375.55,1015.2L379.08,998.22L382.61,988.54L386.14,975.78L389.67,961.18L393.2,953.46L396.73,940.04L400.26,928.99L403.78,927.34L407.31,914.6L410.84,906.75L414.37,901.43L417.9,888.14L421.43,884.41L424.96,877.76L428.49,867.52L432.02,860.91L435.55,851.72L439.08,847.98L442.6,834.81L446.13,831.36L449.66,824L453.19,815.26L456.72,814.63L460.25,803.55L463.78,797.47L467.31,792.61L470.84,787.7L474.37,790.73L477.9,789.31L481.42,787.84L484.95,788.32L488.48,783.86L492.01,779.43L495.54,772.8L499.07,772.27L502.6,770.2L506.13,763.76L509.66,763.22L513.19,761.13L516.72,767.27L520.24,766.16L523.77,770.68L527.3,761.86L530.83,762.33L534.36,763.67L537.89,762.09L541.42,764.7L544.95,759.74L548.48,765.26L552.01,763.81L555.53,762.81L559.06,763.75L562.59,759.3L566.12,765.06L569.65,764.35L573.18,762.26L576.71,758.78L580.24,758.04L583.77,756.22L587.3,761.85L590.83,760.79L594.35,760.7L597.88,756.11L601.41,762.12L604.94,761.08L608.47,764.05L612,762.46L612,569.88Z" style="fill:#FFFFFF" />
<path d="M5,764.49L8.5291,767.02L12.058,758.57L15.587,760.35L19.116,758.83L22.645,764.7L26.174,765.69L29.703,771.77L33.233,773.06L36.762,772.92L40.291,775.24L43.82,782.69L47.349,779.22L50.878,772.87L54.407,773.43L57.936,776.48L61.465,776.72L64.994,782.85L68.523,779.92L72.052,787.84L75.581,789.14L79.11,779.52L82.64,788.13L86.169,777.67L89.698,788.06L93.227,777.72L96.756,780.09L100.28,785.41L103.81,793.6L107.34,789.94L110.87,787.19L114.4,792.15L117.93,783.3L121.46,797.58L124.99,799.92L128.52,796.31L132.05,803.01L135.58,798.93L139.1,805.37L142.63,803.06L146.16,806.35L149.69,808.56L153.22,818.15L156.75,810.84L160.28,819.75L163.81,817.54L167.34,820.47L170.87,822.54L174.4,822.06L177.92,827.87L181.45,825.85L184.98,825.16L188.51,836.81L192.04,838.68L195.57,845.67L199.1,849.43L202.63,851.9L206.16,847.86L209.69,854.29L213.22,861.38L216.74,873.9L220.27,879.23L223.8,890.69L227.33,900.01L230.86,903.68L234.39,907.82L237.92,918.57L241.45,929.63L244.98,933.02L248.51,945.05L252.03,951.12L255.56,967.04L259.09,977.89L262.62,984.3L266.15,999.09L269.68,1008.1L273.21,1021.2L276.74,1018.8L280.27,1031.1L283.8,1032.9L287.33,1051.9L290.85,1060.9L294.38,1066.9L297.91,1083.8L301.44,1093L304.97,1104.8L308.5,1101.3L312.03,1113.1L315.56,1121.7L319.09,1125.7L322.62,1125.5L326.15,1137.6L329.67,1136L333.2,1137.6L336.73,1131.5L340.26,1121.8L343.79,1115.9L347.32,1110L350.85,1096.9L354.38,1090L357.91,1075.8L361.44,1071.1L364.97,1051.3L368.49,1040.5L372.02,1031.6L375.55,1015.2L379.08,998.22L382.61,988.54L386.14,975.78L389.67,961.18L393.2,953.46L396.73,940.04L400.26,928.99L403.78,927.34L407.31,914.6L410.84,906.75L414.37,901.43L417.9,888.14L421.43,884.41L424.96,877.76L428.49,867.52L432.02,860.91L435.55,851.72L439.08,847.98L442.6,834.81L446.13,831.36L449.66,824L453.19,815.26L456.72,814.63L460.25,803.55L463.78,797.47L467.31,792.61L470.84,787.7L474.37,790.73L477.9,789.31L481.42,787.84L484.95,788.32L488.48,783.86L492.01,779.43L495.54,772.8L499.07,772.27L502.6,770.2L506.13,763.76L509.66,763.22L513.19,761.13L516.72,767.27L520.24,766.16L523.77,770.68L527.3,761.86L530.83,762.33L534.36,763.67L537.89,762.09L541.42,764.7L544.95,759.74L548.48,765.26L552.01,763.81L555.53,762.81L559.06,763.75L562.59,759.3L566.12,765.06L569.65,764.35L573.18,762.26L576.71,758.78L580.24,758.04L583.77,756.22L587.3,761.85L590.83,760.79L594.35,760.7L597.88,756.11L601.41,762.12L604.94,761.08L608.47,764.05L612,762.46" style="fill:none;stroke:#000000;stroke-width:2" />
<path d="M5,539.63L5,680.07L8.5291,682.38L12.058,686.2L15.587,683.12L19.116,685.86L22.645,685.05L26.174,677.76L29.703,682.74L33.233,678.95L36.762,683.1L40.291,681.43L43.82,684.69L47.349,686.65L50.878,687.29L54.407,693.36L57.936,691.08L61.465,691.51L64.994,692.39L68.523,691.34L72.052,700.63L75.581,701.59L79.11,697.8L82.64,699.61L86.169,706.47L89.698,694.79L93.227,700.86L96.756,703.87L100.28,705.77L103.81,709.33L107.34,704L110.87,711.69L114.4,715.58L117.93,710.66L121.46,710.89L124.99,715.38L128.52,719.64L132.05,719.86L135.58,727.81L139.1,722.53L142.63,724.56L146.16,725.66L149.69,734.09L153.22,730.55L156.75,735.56L160.28,744.01L163.81,742.26L167.34,743.78L170.87,748.25L174.4,752.58L177.92,753.69L181.45,759.68L184.98,760.03L188.51,765.14L192.04,770.46L195.57,772.47L199.1,782.19L202.63,779.38L206.16,791.29L209.69,805.35L213.22,807.6L216.74,818.37L220.27,823.27L223.8,836.84L227.33,841.78L230.86,850.97L234.39,861.57L237.92,871.95L241.45,880.32L244.98,889.37L248.51,892.75L252.03,907.89L255.56,923.22L259.09,936.8L262.62,949L266.15,956.57L269.68,969.05L273.21,979.03L276.74,992.08L280.27,994.24L283.8,1006.3L287.33,1013.5L290.85,1019.6L294.38,1035L297.91,1042L301.44,1045.9L304.97,1045.4L308.5,1047.5L312.03,1046.5L315.56,1048.8L319.09,1047.7L322.62,1040.6L326.15,1032.9L329.67,1027.2L333.2,1016.5L336.73,1014.9L340.26,998.69L343.79,990.75L347.32,973.7L350.85,964.67L354.38,946.43L357.91,940.28L361.44,931.96L364.97,916.55L368.49,908.71L372.02,898.85L375.55,889.57L379.08,873.82L382.61,871.36L386.14,855.73L389.67,850.81L393.2,840.58L396.73,833.08L400.26,830.44L403.78,819.41L407.31,810.77L410.84,809.65L414.37,802.55L417.9,803.44L421.43,795.33L424.96,784.53L428.49,778.3L432.02,775.36L435.55,772.95L439.08,767.28L442.6,761.33L446.13,749.83L449.66,746.46L453.19,741.97L456.72,743.43L460.25,736.32L463.78,735.59L467.31,725.57L470.84,720.8L474.37,724.4L477.9,722.97L481.42,722.06L484.95,719.62L488.48,716.91L492.01,717.86L495.54,716.95L499.07,716.37L502.6,711.31L506.13,708.37L509.66,713.41L513.19,708.55L516.72,707.59L520.24,701.27L523.77,705.01L527.3,708.81L530.83,702.2L534.36,706.78L537.89,710.66L541.42,706.32L544.95,704.44L548.48,700.77L552.01,702.23L555.53,699.17L559.06,706.08L562.59,706.01L566.12,706.44L569.65,707.19L573.18,702.11L576.71,703.13L580.24,705.55L583.77,704.83L587.3,699.45L590.83,699.95L594.35,700.31L597.88,705.84L601.41,705.19L604.94,702.35L608.47,702.12L612,704.7L612,539.63Z" style="fill:#FFFFFF" />
<path d="M5,680.07L8.5291,682.38L12.058,686.2L15.587,683.12L19.116,685.86L22.645,685.05L26.174,677.76L29.703,682.74L33.233,678.95L36.762,683.1L40.291,681.43L43.82,684.69L47.349,686.65L50.878,687.29L54.407,693.36L57.936,691.08L61.465,691.51L64.994,692.39L68.523,691.34L72.052,700.63L75.581,701.59L79.11,697.8L82.64,699.61L86.169,706.47L89.698,694.79L93.227,700.86L96.756,703.87L100.28,705.77L103.81,709.33L107.34,704L110.87,711.69L114.4,715.58L117.93,710.66L121.46,710.89L124.99,715.38L128.52,719.64L132.05,719.86L135.58,727.81L139.1,722.53L142.63,724.56L146.16,725.66L149.69,734.09L153.22,730.55L156.75,735.56L160.28,744.01L163.81,742.26L167.34,743.78L170.87,748.25L174.4,752.58L177.92,753.69L181.45,759.68L184.98,760.03L188.51,765.14L192.04,770.46L195.57,772.47L199.1,782.19L202.63,779.38L206.16,791.29L209.69,805.35L213.22,807.6L216.74,818.37L220.27,823.27L223.8,836.84L227.33,841.78L230.86,850.97L234.39,861.57L237.92,871.95L241.45,880.32L244.98,889.37L248.51,892.75L252.03,907.89L255.56,923.22L259.09,936.8L262.62,949L266.15,956.57L269.68,969.05L273.21,979.03L276.74,992.08L280.27,994.24L283.8,1006.3L287.33,1013.5L290.85,1019.6L294.38,1035L297.91,1042L301.44,1045.9L304.97,1045.4L308.5,1047.5L312.03,1046.5L315.56,1048.8L319.09,1047.7L322.62,1040.6L326.15,1032.9L329.67,1027.2L333.2,1016.5L336.73,1014.9L340.26,998.69L343.79,990.75L347.32,973.7L350.85,964.67L354.38,946.43L357.91,940.28L361.44,931.96L364.97,916.55L368.49,908.71L372.02,898.85L375.55,889.57L379.08,873.82L382.61,871.36L386.14,855.73L389.67,850.81L393.2,840.58L396.73,833.08L400.26,830.44L403.78,819.41L407.31,810.77L410.84,809.65L414.37,802.55L417.9,803.44L421.43,795.33L424.96,784.53L428.49,778.3L432.02,775.36L435.55,772.95L439.08,767.28L442.6,761.33L446.13,749.83L449.66,746.46L453.19,741.97L456.72,743.43L460.25,736.32L463.78,735.59L467.31,725.57L470.84,720.8L474.37,724.4L477.9,722.97L481.42,722.06L484.95,719.62L488.48,716.91L492.01,717.86L495.54,716.95L499.07,716.37L502.6,711.31L506.13,708.37L509.66,713.41L513.19,708.55L516.72,707.59L520.24,701.27L523.77,705.01L527.3,708.81L530.83,702.2L534.36,706.78L537.89,710.66L541.42,706.32L544.95,704.44L548.48,700.77L552.01,702.23L555.53,699.17L559.06,706.08L562.59,706.01L566.12,706.44L569.65,707.19L573.18,702.11L576.71,703.13L580.24,705.55L583.77,704.83L587.3,699.45L590.83,699.95L594.35,700.31L597.88,705.84L601.41,705.19L604.94,702.35L608.47,702.12L612,704.7" style="fill:none;stroke:#000000;stroke-width:2" />
<path d="M5,509.37L5,705.08L8.5291,702.15L12.058,697.04L15.587,704.32L19.116,705.49L22.645,706.25L26.174,712.17L29.703,705.45L33.233,708.35L36.762,713.7L40.291,715.03L43.82,726.47L47.349,730.59L50.878,719.08L54.407,729.64L57.936,736.61L61.465,740.2L64.994,738.85L68.523,736.75L72.052,741.24L75.581,742.86L79.11,745.58L82.64,747.95L86.169,748.51L89.698,751.46L93.227,753.11L96.756,755.83L100.28,759.74L103.81,765.33L107.34,752.88L110.87,757.71L114.4,763.08L117.93,768.75L121.46,768.8L124.99,766.95L128.52,766.38L132.05,757.84L135.58,763.06L139.1,770.04L142.63,769.7L146.16,778.72L149.69,796.14L153.22,788.2L156.75,791.2L160.28,794.16L163.81,801.85L167.34,801.45L170.87,813.05L174.4,818.13L177.92,822.93L181.45,820.24L184.98,822.29L188.51,830L192.04,833.29L195.57,832.63L199.1,830.86L202.63,838.05L206.16,841.27L209.69,848.51L213.22,846.81L216.74,856.1L220.27,857.56L223.8,860.74L227.33,876.22L230.86,874.52L234.39,891.81L237.92,887.05L241.45,903.48L244.98,907.51L248.51,916.34L252.03,923.64L255.56,936.21L259.09,946.32L262.62,942.82L266.15,947.04L269.68,952.34L273.21,959.8L276.74,967.92L280.27,969.17L283.8,980.33L287.33,992.09L290.85,987.96L294.38,994.29L297.91,1011L301.44,1009.6L304.97,1012L308.5,1014.6L312.03,1014L315.56,1013.1L319.09,1015.9L322.62,1013.6L326.15,1001.8L329.67,994.55L333.2,991.26L336.73,981.67L340.26,973.99L343.79,959.42L347.32,947.62L350.85,925.57L354.38,916.13L357.91,896.15L361.44,882.12L364.97,865.36L368.49,856.29L372.02,834.81L375.55,833.82L379.08,814.16L382.61,805.56L386.14,792.29L389.67,776.06L393.2,772.08L396.73,760.79L400.26,749.51L403.78,735.45L407.31,733.92L410.84,719.26L414.37,708.72L417.9,700.28L421.43,691.3L424.96,683.22L428.49,680.5L432.02,665.81L435.55,657.98L439.08,650.44L442.6,647L446.13,642.05L449.66,634.32L453.19,633.35L456.72,623.81L460.25,624.76L463.78,616.27L467.31,606.86L470.84,602.98L474.37,602.62L477.9,598.02L481.42,599.48L484.95,594.83L488.48,598.63L492.01,595.86L495.54,596.34L499.07,589.98L502.6,584.06L506.13,586.89L509.66,586.59L513.19,585.39L516.72,578.38L520.24,579.99L523.77,584.87L527.3,585.29L530.83,583.72L534.36,583.69L537.89,585.93L541.42,577.94L544.95,585.21L548.48,577.52L552.01,579.34L555.53,573.97L559.06,583.84L562.59,578.1L566.12,579.17L569.65,579.9L573.18,573.75L576.71,578.53L580.24,572.94L583.77,576.7L587.3,572.64L590.83,573.23L594.35,570.9L597.88,574.31L601.41,572.73L604.94,576.3L608.47,580.3L612,573.72L612,509.37Z" style="fill:#FFFFFF" />
<path d="M5,705.08L8.5291,702.15L12.058,697.04L15.587,704.32L19.116,705.49L22.645,706.25L26.174,712.17L29.703,705.45L33.233,708.35L36.762,713.7L40.291,715.03L43.82,726.47L47.349,730.59L50.878,719.08L54.407,729.64L57.936,736.61L61.465,740.2L64.994,738.85L68.523,736.75L72.052,741.24L75.581,742.86L79.11,745.58L82.64,747.95L86.169,748.51L89.698,751.46L93.227,753.11L96.756,755.83L100.28,759.74L103.81,765.33L107.34,752.88L110.87,757.71L114.4,763.08L117.93,768.75L121.46,768.8L124.99,766.95L128.52,766.38L132.05,757.84L135.58,763.06L139.1,770.04L142.63,769.7L146.16,778.72L149.69,796.14L153.22,788.2L156.75,791.2L160.28,794.16L163.81,801.85L167.34,801.45L170.87,813.05L174.4,818.13L177.92,822.93L181.45,820.24L184.98,822.29L188.51,830L192.04,833.29L195.57,832.63L199.1,830.86L202.63,838.05L206.16,841.27L209.69,848.51L213.22,846.81L216.74,856.1L220.27,857.56L223.8,860.74L227.33,876.22L230.86,874.52L234.39,891.81L237.92,887.05L241.45,903.48L244.98,907.51L248.51,916.34L252.03,923.64L255.56,936.21L259.09,946.32L262.62,942.82L266.15,947.04L269.68,952.34L273.21,959.8L276.74,967.92L280.27,969.17L283.8,980.33L287.33,992.09L290.85,987.96L294.38,994.29L297.91,1011L301.44,1009.6L304.97,1012L308.5,1014.6L312.03,1014L315.56,1013.1L319.09,1015.9L322.62,1013.6L326.15,1001.8L329.67,994.55L333.2,991.26L336.73,981.67L340.26,973.99L343.79,959.42L347.32,947.62L350.85,925.57L354.38,916.13L357.91,896.15L361.44,882.12L364.97,865.36L368.49,856.29L372.02,834.81L375.55,833.82L379.08,814.16L382.61,805.56L386.14,792.29L389.67,776.06L393.2,772.08L396.73,760.79L400.26,749.51L403.78,735.45L407.31,733.92L410.84,719.26L414.37,708.72L417.9,700.28L421.43,691.3L424.96,683.22L428.49,680.5L432.02,665.81L435.55,657.98L439.08,650.44L442.6,647L446.13,642.05L449.66,634.32L453.19,633.35L456.72,623.81L460.25,624.76L463.78,616.27L467.31,606.86L470.84,602.98L474.37,602.62L477.9,598.02L481.42,599.48L484.95,594.83L488.48,598.63L492.01,595.86L495.54,596.34L499.07,589.98L502.6,584.06L506.13,586.89L509.66,586.59L513.19,585.39L516.72,578.38L520.24,579.99L523.77,584.87L527.3,585.29L530.83,583.72L534.36,583.69L537.89,585.93L541.42,577.94L544.95,585.21L548.48,577.52L552.01,579.34L555.53,573.97L559.06,583.84L562.59,578.1L566.12,579.17L569.65,579.9L573.18,573.75L576.71,578.53L580.24,572.94L583.77,576.7L587.3,572.64L590.83,573.23L594.35,570.9L597.88,574.31L601.41,572.73L604.94,576.3L608.47,580.3L612,573.72" style="fill:none;stroke:#000000;stroke-width:2" />
<path d="M5,479.12L5,565.28L8.5291,563.78L12.058,577.17L15.587,565.93L19.116,568.87L22.645,566.82L26.174,583.23L29.703,578.7L33.233,577.8L36.762,585.05L40.291,579.5L43.82,578.96L47.349,583.65L50.878,577.92L54.407,569.43L57.936,575.95L61.465,578.46L64.994,587.42L68.523,579.16L72.052,590.86L75.581,577.48L79.11,578.72L82.64,587.72L86.169,575.53L89.698,573.72L93.227,580.01L96.756,585.14L100.28,577.27L103.81,584.1L107.34,585.17L110.87,588.98L114.4,582.57L117.93,590.31L121.46,585.23L124.99,588.81L128.52,582.33L132.05,594.64L135.58,597.02L139.1,596.11L142.63,590.2L146.16,590.67L149.69,589.92L153.22,598.29L156.75,586.07L160.28,594.32L163.81,595.16L167.34,607.52L170.87,600.93L174.4,606.88L177.92,606.39L181.45,618.34L184.98,615.98L188.51,616.81L192.04,620.74L195.57,626.38L199.1,631.35L202.63,629.06L206.16,638.06L209.69,648.25L213.22,647.51L216.74,656.43L220.27,662.19L223.8,672.01L227.33,675.4L230.86,681.34L234.39,689.57L237.92,690.89L241.45,699.82L244.98,704.47L248.51,711.87L252.03,722.2L255.56,740.74L259.09,749.19L262.62,764.47L266.15,765.36L269.68,772.87L273.21,783.27L276.74,796.63L280.27,807.68L283.8,824.43L287.33,831.11L290.85,842.41L294.38,866.19L297.91,873.99L301.44,891.92L304.97,893.92L308.5,913.84L312.03,921.49L315.56,932.14L319.09,939.49L322.62,962.73L326.15,959.34L329.67,962.99L333.2,968.94L336.73,978.54L340.26,978.07L343.79,966.25L347.32,958.28L350.85,958.01L354.38,953.85L357.91,946.97L361.44,934.37L364.97,920.4L368.49,917.75L372.02,902.39L375.55,893.49L379.08,890.3L382.61,878L386.14,863.72L389.67,853.3L393.2,844.57L396.73,842.81L400.26,827.64L403.78,817.72L407.31,811.79L410.84,797.76L414.37,790.66L417.9,782.07L421.43,781.17L424.96,771.49L428.49,767.32L432.02,752.75L435.55,747.77L439.08,740.24L442.6,735.54L446.13,727.21L449.66,721.92L453.19,717.74L456.72,716.82L460.25,701.27L463.78,702.59L467.31,700.79L470.84,692.2L474.37,686.96L477.9,682.43L481.42,683.66L484.95,679.58L488.48,674.25L492.01,672.76L495.54,674.2L499.07,670.2L502.6,670.64L506.13,665.08L509.66,674.82L513.19,666.27L516.72,671.42L520.24,664.36L523.77,661.97L527.3,664.05L530.83,659.44L534.36,661.63L537.89,665.58L541.42,664.82L544.95,663.06L548.48,655.76L552.01,659.66L555.53,660.38L559.06,654.38L562.59,653.71L566.12,651.87L569.65,658.43L573.18,659.3L576.71,657.76L580.24,657.69L583.77,651.86L587.3,655.33L590.83,655.4L594.35,647.82L597.88,649.48L601.41,652.72L604.94,651.57L608.47,655.28L612,649.7L612,479.12Z" style="fill:#FFFFFF" />
<path d="M5,565.28L8.5291,563.78L12.058,577.17L15.587,565.93L19.116,568.87L22.645,566.82L26.174,583.23L29.703,578.7L33.233,577.8L36.762,585.05L40.291,579.5L43.82,578.96L47.349,583.65L50.878,577.92L54.407,569.43L57.936,575.95L61.465,578.46L64.994,587.42L68.523,579.16L72.052,590.86L75.581,577.48L79.11,578.72L82.64,587.72L86.169,575.53L89.698,573.72L93.227,580.01L96.756,585.14L100.28,577.27L103.81,584.1L107.34,585.17L110.87,588.98L114.4,582.57L117.93,590.31L121.46,585.23L124.99,588.81L128.52,582.33L132.05,594.64L135.58,597.02L139.1,596.11L142.63,590.2L146.16,590.67L149.69,589.92L153.22,598.29L156.75,586.07L160.28,594.32L163.81,595.16L167.34,607.52L170.87,600.93L174.4,606.88L177.92,606.39L181.45,618.34L184.98,615.98L188.51,616.81L192.04,620.74L195.57,626.38L199.1,631.35L202.63,629.06L206.16,638.06L209.69,648.25L213.22,647.51L216.74,656.43L220.27,662.19L223.8,672.01L227.33,675.4L230.86,681.34L234.39,689.57L237.92,690.89L241.45,699.82L244.98,704.47L248.51,711.87L252.03,722.2L255.56,740.74L259.09,749.19L262.62,764.47L266.15,765.36L269.68,772.87L273.21,783.27L276.74,796.63L280.27,807.68L283.8,824.43L287.33,831.11L290.85,842.41L294.38,866.19L297.91,873.99L301.44,891.92L304.97,893.92L308.5,913.84L312.03,921.49L315.56,932.14L319.09,939.49L322.62,962.73L326.15,959.34L329.67,962.99L333.2,968.94L336.73,978.54L340.26,978.07L343.79,966.25L347.32,958.28L350.85,958.01L354.38,953.85L357.91,946.97L361.44,934.37L364.97,920.4L368.49,917.75L372.02,902.39L375.55,893.49L379.08,890.3L382.61,878L386.14,863.72L389.67,853.3L393.2,844.57L396.73,842.81L400.26,827.64L403.78,817.72L407.31,811.79L410.84,797.76L414.37,790.66L417.9,782.07L421.43,781.17L424.96,771.49L428.49,767.32L432.02,752.75L435.55,747.77L439.08,740.24L442.6,735.54L446.13,727.21L449.66,721.92L453.19,717.74L456.72,716.82L460.25,701.27L463.78,702.59L467.31,700.79L470.84,692.2L474.37,686.96L477.9,682.43L481.42,683.66L484.95,679.58L488.48,674.25L492.01,672.76L495.54,674.2L499.07,670.2L502.6,670.64L506.13,665.08L509.66,674.82L513.19,666.27L516.72,671.42L520.24,664.36L523.77,661.97L527.3,664.05L530.83,659.44L534.36,661.63L537.89,665.58L541.42,664.82L544.95,663.06L548.48,655.76L552.01,659.66L555.53,660.38L559.06,654.38L562.59,653.71L566.12,651.87L569.65,658.43L573.18,659.3L576.71,657.76L580.24,657.69L583.77,651.86L587.3,655.33L590.83,655.4L594.35,647.82L597.88,649.48L601.41,652.72L604.94,651.57L608.47,655.28L612,649.7" style="fill:none;stroke:#000000;stroke-width:2" />
<path d="M5,448.86L5,569.88L8.5291,585.03L12.058,581.04L15.587,584.59L19.116,574.76L22.645,584.18L26.174,591.45L29.703,586.61L33.233,572.72L36.762,582.59L40.291,593.4L43.82,595.81L47.349,594.26L50.878,594.48L54.407,597.23L57.936,599.26L61.465,606.8L64.994,593.45L68.523,595.38L72.052,588.05L75.581,599.16L79.11,591.23L82.64,585.84L86.169,597.55L89.698,597.35L93.227,595.33L96.756,597.77L100.28,598.6L103.81,599.16L107.34,601.31L110.87,608.26L114.4,597.85L117.93,606.46L121.46,602.7L124.99,600.76L128.52,612.62L132.05,604.71L135.58,602.81L139.1,609.42L142.63,619.8L146.16,605.22L149.69,602.12L153.22,617.16L156.75,614.04L160.28,611.25L163.81,621L167.34,612.9L170.87,612.13L174.4,611.06L177.92,615.2L181.45,611.61L184.98,620.17L188.51,623.07L192.04,626.69L195.57,636.55L199.1,636.44L202.63,625.84L206.16,639.1L209.69,637.23L213.22,639.14L216.74,650.17L220.27,651.44L223.8,659.58L227.33,668.2L230.86,662.13L234.39,670.62L237.92,680.51L241.45,674.05L244.98,690.62L248.51,687.93L252.03,694.63L255.56,716.04L259.09,718.74L262.62,732.19L266.15,733.61L269.68,746.53L273.21,760.37L276.74,768.04L280.27,780.57L283.8,785.28L287.33,801.73L290.85,814.31L294.38,814.76L297.91,823.43L301.44,849.05L304.97,847.19L308.5,864.43L312.03,878.08L315.56,886.11L319.09,896.69L322.62,904.76L326.15,908.32L329.67,934.23L333.2,920.09L336.73,947.86L340.26,939.81L343.79,940.97L347.32,940.71L350.85,927.48L354.38,918.13L357.91,917.92L361.44,915.46L364.97,906.66L368.49,910.22L372.02,889.8L375.55,880.49L379.08,872.84L382.61,868.7L386.14,853.59L389.67,842.56L393.2,830.62L396.73,819.63L400.26,812.75L403.78,806.99L407.31,795.71L410.84,788.14L414.37,770.92L417.9,756.89L421.43,740.43L424.96,746.34L428.49,731.72L432.02,739.47L435.55,734.97L439.08,726.34L442.6,718.84L446.13,713.73L449.66,710.28L453.19,706.83L456.72,707.32L460.25,693.26L463.78,689.22L467.31,691.25L470.84,687.22L474.37,676.23L477.9,678.91L481.42,665.66L484.95,670.5L488.48,671.94L492.01,655.45L495.54,660.92L499.07,654.68L502.6,646.83L506.13,649.06L509.66,639.79L513.19,645.95L516.72,636.49L520.24,642.75L523.77,645.17L527.3,644.57L530.83,638.13L534.36,649.11L537.89,645.89L541.42,643.13L544.95,660.15L548.48,658.83L552.01,650.83L555.53,651.85L559.06,647.95L562.59,649.79L566.12,651.94L569.65,648.13L573.18,642.07L576.71,641.39L580.24,646.3L583.77,641.33L587.3,641.43L590.83,646.39L594.35,641.3L597.88,645.33L601.41,648.24L604.94,645.54L608.47,644.24L612,649.89L612,448.86Z" style="fill:#FFFFFF" />
<path d="M5,569.88L8.5291,585.03L12.058,581.04L15.587,584.59L19.116,574.76L22.645,584.18L26.174,591.45L29.703,586.61L33.233,572.72L36.762,582.59L40.291,593.4L43.82,595.81L47.349,594.26L50.878,594.48L54.407,597.23L57.936,599.26L61.465,606.8L64.994,593.45L68.523,595.38L72.052,588.05L75.581,599.16L79.11,591.23L82.64,585.84L86.169,597.55L89.698,597.35L93.227,595.33L96.756,597.77L100.28,598.6L103.81,599.16L107.34,601.31L110.87,608.26L114.4,597.85L117.93,606.46L121.46,602.7L124.99,600.76L128.52,612.62L132.05,604.71L135.58,602.81L139.1,609.42L142.63,619.8L146.16,605.22L149.69,602.12L153.22,617.16L156.75,614.04L160.28,611.25L163.81,621L167.34,612.9L170.87,612.13L174.4,611.06L177.92,615.2L181.45,611.61L184.98,620.17L188.51,623.07L192.04,626.69L195.57,636.55L199.1,636.44L202.63,625.84L206.16,639.1L209.69,637.23L213.22,639.14L216.74,650.17L220.27,651.44L223.8,659.58L227.33,668.2L230.86,662.13L234.39,670.62L237.92,680.51L241.45,674.05L244.98,690.62L248.51,687.93L252.03,694.63L255.56,716.04L259.09,718.74L262.62,732.19L266.15,733.61L269.68,746.53L273.21,760.37L276.74,768.04L280.27,780.57L283.8,785.28L287.33,801.73L290.85,814.31L294.38,814.76L297.91,823.43L301.44,849.05L304.97,847.19L308.5,864.43L312.03,878.08L315.56,886.11L319.09,896.69L322.62,904.76L326.15,908.32L329.67,934.23L333.2,920.09L336.73,947.86L340.26,939.81L343.79,940.97L347.32,940.71L350.85,927.48L354.38,918.13L357.91,917.92L361.44,915.46L364.97,906.66L368.49,910.22L372.02,889.8L375.55,880.49L379.08,872.84L382.61,868.7L386.14,853.59L389.67,842.56L393.2,830.62L396.73,819.63L400.26,812.75L403.78,806.99L407.31,795.71L410.84,788.14L414.37,770.92L417.9,756.89L421.43,740.43L424.96,746.34L428.49,731.72L432.02,739.47L435.55,734.97L439.08,726.34L442.6,718.84L446.13,713.73L449.66,710.28L453.19,706.83L456.72,707.32L460.25,693.26L463.78,689.22L467.31,691.25L470.84,687.22L474.37,676.23L477.9,678.91L481.42,665.66L484.95,670.5L488.48,671.94L492.01,655.45L495.54,660.92L499.07,654.68L502.6,646.83L506.13,649.06L509.66,639.79L513.19,645.95L516.72,636.49L520.24,642.75L523.77,645.17L527.3,644.57L530.83,638.13L534.36,649.11L537.89,645.89L541.42,643.13L544.95,660.15L548.48,658.83L552.01,650.83L555.53,651.85L559.06,647.95L562.59,649.79L566.12,651.94L569.65,648.13L573.18,642.07L576.71,641.39L580.24,646.3L583.77,641.33L587.3,641.43L590.83,646.39L594.35,641.3L597.88,645.33L601.41,648.24L604.94,645.54L608.47,644.24L612,649.89" style="fill:none;stroke:#000000;stroke-width:2" />
<path d="M5,418.61L5,611.63L8.5291,611.61L12.058,612.77L15.587,609.6L19.116,613.29L22.645,622.85L26.174,619.98L29.703,617.96L33.233,620.56L36.762,623.24L40.291,623.12L43.82,624.43L47.349,627.41L50.878,626.28L54.407,631.79L57.936,632.19L61.465,627.18L64.994,636.45L68.523,637.8L72.052,636.12L75.581,644.35L79.11,643.87L82.64,648.61L86.169,649.53L89.698,651.99L93.227,653.25L96.756,651.12L100.28,650.72L103.81,651.88L107.34,657.38L110.87,658.07L114.4,662.81L117.93,668.73L121.46,670.09L124.99,669.52L128.52,671.17L132.05,674.61L135.58,675.07L139.1,677.66L142.63,674.16L146.16,671.67L149.69,677.63L153.22,679.42L156.75,686.62L160.28,695.32L163.81,697.42L167.34,695.94L170.87,699.1L174.4,702.24L177.92,706.16L181.45,709.15L184.98,711.37L188.51,714.7L192.04,713.83L195.57,725.45L199.1,727.97L202.63,733.48L206.16,738.2L209.69,735.24L213.22,740.74L216.74,754.95L220.27,754.78L223.8,761.69L227.33,768.84L230.86,779.09L234.39,777.9L237.92,787.04L241.45,793.87L244.98,798.18L248.51,803.02L252.03,811.41L255.56,818.94L259.09,823.49L262.62,833.09L266.15,837.03L269.68,842.04L273.21,847.1L276.74,859.25L280.27,863.17L283.8,863.61L287.33,867.28L290.85,881.74L294.38,887.64L297.91,888.79L301.44,891.1L304.97,899.48L308.5,902.46L312.03,903.87L315.56,904.23L319.09,903.11L322.62,900.38L326.15,895.55L329.67,892L333.2,889.91L336.73,875.94L340.26,874.81L343.79,856.26L347.32,835.84L350.85,829.37L354.38,808.08L357.91,797.81L361.44,778.25L364.97,762.5L368.49,750.59L372.02,735.76L375.55,714.72L379.08,708.48L382.61,688.86L386.14,685.93L389.67,662.37L393.2,650.37L396.73,632.3L400.26,619.5L403.78,600.75L407.31,598.62L410.84,590.55L414.37,588.01L417.9,586.4L421.43,568.45L424.96,570.86L428.49,557.79L432.02,552.67L435.55,548.62L439.08,543.45L442.6,530.81L446.13,529.58L449.66,521.94L453.19,518.32L456.72,517.95L460.25,512.24L463.78,514.01L467.31,501.94L470.84,503.64L474.37,498.28L477.9,494.05L481.42,482.44L484.95,477.06L488.48,471.29L492.01,474L495.54,469.18L499.07,459.33L502.6,457.83L506.13,452.97L509.66,451.49L513.19,452.56L516.72,458.66L520.24,458.77L523.77,456.86L527.3,463.81L530.83,460.31L534.36,459.15L537.89,453.19L541.42,453.35L544.95,458.49L548.48,463.15L552.01,464.92L555.53,463.94L559.06,465.58L562.59,462.41L566.12,466.42L569.65,460.3L573.18,454.09L576.71,451.51L580.24,447.02L583.77,446.85L587.3,441.81L590.83,444.55L594.35,441.61L597.88,446.65L601.41,446.38L604.94,443.91L608.47,442.36L612,437.82L612,418.61Z" style="fill:#FFFFFF" />
<path d="M5,611.63L8.5291,611.61L12.058,612.77L15.587,609.6L19.116,613.29L22.645,622.85L26.174,619.98L29.703,617.96L33.233,620.56L36.762,623.24L40.291,623.12L43.82,624.43L47.349,627.41L50.878,626.28L54.407,631.79L57.936,632.19L61.465,627.18L64.994,636.45L68.523,637.8L72.052,636.12L75.581,644.35L79.11,643.87L82.64,648.61L86.169,649.53L89.698,651.99L93.227,653.25L96.756,651.12L100.28,650.72L103.81,651.88L107.34,657.38L110.87,658.07L114.4,662.81L117.93,668.73L121.46,670.09L124.99,669.52L128.52,671.17L132.05,674.61L135.58,675.07L139.1,677.66L142.63,674.16L146.16,671.67L149.69,677.63L153.22,679.42L156.75,686.62L160.28,695.32L163.81,697.42L167.34,695.94L170.87,699.1L174.4,702.24L177.92,706.16L181.45,709.15L184.98,711.37L188.51,714.7L192.04,713.83L195.57,725.45L199.1,727.97L202.63,733.48L206.16,738.2L209.69,735.24L213.22,740.74L216.74,754.95L220.27,754.78L223.8,761.69L227.33,768.84L230.86,779.09L234.39,777.9L237.92,787.04L241.45,793.87L244.98,798.18L248.51,803.02L252.03,811.41L255.56,818.94L259.09,823.49L262.62,833.09L266.15,837.03L269.68,842.04L273.21,847.1L276.74,859.25L280.27,863.17L283.8,863.61L287.33,867.28L290.85,881.74L294.38,887.64L297.91,888.79L301.44,891.1L304.97,899.48L308.5,902.46L312.03,903.87L315.56,904.23L319.09,903.11L322.62,900.38L326.15,895.55L329.67,892L333.2,889.91L336.73,875.94L340.26,874.81L343.79,856.26L347.32,835.84L350.85,829.37L354.38,808.08L357.91,797.81L361.44,778.25L364.97,762.5L368.49,750.59L372.02,735.76L375.55,714.72L379.08,708.48L382.61,688.86L386.14,685.93L389.67,662.37L393.2,650.37L396.73,632.3L400.26,619.5L403.78,600.75L407.31,598.62L410.84,590.55L414.37,588.01L417.9,586.4L421.43,568.45L424.96,570.86L428.49,557.79L432.02,552.67L435.55,548.62L439.08,543.45L442.6,530.81L446.13,529.58L449.66,521.94L453.19,518.32L456.72,517.95L460.25,512.24L463.78,514.01L467.31,501.94L470.84,503.64L474.37,498.28L477.9,494.05L481.42,482.44L484.95,477.06L488.48,471.29L492.01,474L495.54,469.18L499.07,459.33L502.6,457.83L506.13,452.97L509.66,451.49L513.19,452.56L516.72,458.66L520.24,458.77L523.77,456.86L527.3,463.81L530.83,460.31L534.36,459.15L537.89,453.19L541.42,453.35L544.95,458.49L548.48,463.15L552.01,464.92L555.53,463.94L559.06,465.58L562.59,462.41L566.12,466.42L569.65,460.3L573.18,454.09L576.71,451.51L580.24,447.02L583.77,446.85L587.3,441.81L590.83,444.55L594.35,441.61L597.88,446.65L601.41,446.38L604.94,443.91L608.47,442.36L612,437.82" style="fill:none;stroke:#000000;stroke-width:2" />
<path d="M5,388.35L5,579.05L8.5291,582.44L12.058,577.08L15.587,579.62L19.116,574.91L22.645,577.18L26.174,580.77L29.703,586.03L33.233,589.13L36.762,583.01L40.291,593.38L43.82,596.8L47.349,595.95L50.878,595.78L54.407,603.67L57.936,607.48L61.465,606.39L64.994,605.5L68.523,609.6L72.052,610.67L75.581,622.67L79.11,618.25L82.64,621.15L86.169,620.36L89.698,625.21L93.227,632.13L96.756,627.77L100.28,624.19L103.81,634.62L107.34,630.61L110.87,632.9L114.4,634.94L117.93,638.74L121.46,635.7L124.99,642.59L128.52,640.61L132.05,642.78L135.58,643.77L139.1,645.16L142.63,644.07L146.16,652.4L149.69,660.57L153.22,656.34L156.75,664.37L160.28,669.6L163.81,664.21L167.34,665.32L170.87,675.09L174.4,671.4L177.92,675.62L181.45,684.74L184.98,684.76L188.51,688.16L192.04,693.47L195.57,698.55L199.1,703.12L202.63,709.01L206.16,714.59L209.69,722.22L213.22,729.29L216.74,738.31L220.27,740L223.8,740.97L227.33,750.99L230.86,752.52L234.39,772.33L237.92,777.31L241.45,785.07L244.98,794L248.51,800.76L252.03,807.89L255.56,815.81L259.09,823.8L262.62,827.06L266.15,833.14L269.68,833.78L273.21,836.48L276.74,835.97L280.27,843.68L283.8,838.41L287.33,839.31L290.85,845.2L294.38,847.48L297.91,847.11L301.44,844.89L304.97,838.28L308.5,833.63L312.03,834.12L315.56,819.64L319.09,810.77L322.62,795.94L326.15,779.47L329.67,760.52L333.2,752.65L336.73,736.95L340.26,727.57L343.79,704.59L347.32,693.68L350.85,673.97L354.38,659.52L357.91,643.3L361.44,633.56L364.97,619.64L368.49,601.28L372.02,591.75L375.55,587.68L379.08,578.29L382.61,572.56L386.14,562.76L389.67,551.89L393.2,544.87L396.73,533.28L400.26,523.96L403.78,524.91L407.31,513.91L410.84,512.58L414.37,498.39L417.9,490.8L421.43,486.05L424.96,480.84L428.49,480.48L432.02,469.22L435.55,470.8L439.08,462.44L442.6,459.72L446.13,453.5L449.66,449.33L453.19,445.98L456.72,443.83L460.25,441.7L463.78,438.74L467.31,441.84L470.84,434.87L474.37,433.01L477.9,428.56L481.42,421.98L484.95,422.52L488.48,420.28L492.01,418.49L495.54,416.78L499.07,412.59L502.6,411.93L506.13,410.9L509.66,412.54L513.19,409.64L516.72,409.4L520.24,414.46L523.77,414.37L527.3,410.01L530.83,410.75L534.36,406.06L537.89,406.65L541.42,406.93L544.95,405.85L548.48,409.63L552.01,406.07L555.53,405.69L559.06,401.12L562.59,401.98L566.12,401.19L569.65,402.38L573.18,403.85L576.71,401.04L580.24,398.61L583.77,404.28L587.3,405.57L590.83,410.14L594.35,405.51L597.88,403.64L601.41,398.14L604.94,403.51L608.47,406.42L612,400.93L612,388.35Z" style="fill:#FFFFFF" />
<path d="M5,579.05L8.5291,582.44L12.058,577.08L15.587,579.62L19.116,574.91L22.645,577.18L26.174,580.77L29.703,586.03L33.233,589.13L36.762,583.01L40.291,593.38L43.82,596.8L47.349,595.95L50.878,595.78L54.407,603.67L57.936,607.48L61.465,606.39L64.994,605.5L68.523,609.6L72.052,610.67L75.581,622.67L79.11,618.25L82.64,621.15L86.169,620.36L89.698,625.21L93.227,632.13L96.756,627.77L100.28,624.19L103.81,634.62L107.34,630.61L110.87,632.9L114.4,634.94L117.93,638.74L121.46,635.7L124.99,642.59L128.52,640.61L132.05,642.78L135.58,643.77L139.1,645.16L142.63,644.07L146.16,652.4L149.69,660.57L153.22,656.34L156.75,664.37L160.28,669.6L163.81,664.21L167.34,665.32L170.87,675.09L174.4,671.4L177.92,675.62L181.45,684.74L184.98,684.76L188.51,688.16L192.04,693.47L195.57,698.55L199.1,703.12L202.63,709.01L206.16,714.59L209.69,722.22L213.22,729.29L216.74,738.31L220.27,740L223.8,740.97L227.33,750.99L230.86,752.52L234.39,772.33L237.92,777.31L241.45,785.07L244.98,794L248.51,800.76L252.03,807.89L255.56,815.81L259.09,823.8L262.62,827.06L266.15,833.14L269.68,833.78L273.21,836.48L276.74,835.97L280.27,843.68L283.8,838.41L287.33,839.31L290.85,845.2L294.38,847.48L297.91,847.11L301.44,844.89L304.97,838.28L308.5,833.63L312.03,834.12L315.56,819.64L319.09,810.77L322.62,795.94L326.15,779.47L329.67,760.52L333.2,752.65L336.73,736.95L340.26,727.57L343.79,704.59L347.32,693.68L350.85,673.97L354.38,659.52L357.91,643.3L361.44,633.56L364.97,619.64L368.49,601.28L372.02,591.75L375.55,587.68L379.08,578.29L382.61,572.56L386.14,562.76L389.67,551.89L393.2,544.87L396.73,533.28L400.26,523.96L403.78,524.91L407.31,513.91L410.84,512.58L414.37,498.39L417.9,490.8L421.43,486.05L424.96,480.84L428.49,480.48L432.02,469.22L435.55,470.8L439.08,462.44L442.6,459.72L446.13,453.5L449.66,449.33L453.19,445.98L456.72,443.83L460.25,441.7L463.78,438.74L467.31,441.84L470.84,434.87L474.37,433.01L477.9,428.56L481.42,421.98L484.95,422.52L488.48,420.28L492.01,418.49L495.54,416.78L499.07,412.59L502.6,411.93L506.13,410.9L509.66,412.54L513.19,409.64L516.72,409.4L520.24,414.46L523.77,414.37L527.3,410.01L530.83,410.75L534.36,406.06L537.89,406.65L541.42,406.93L544.95,405.85L548.48,409.63L552.01,406.07L555.53,405.69L559.06,401.12L562.59,401.98L566.12,401.19L569.65,402.38L573.18,403.85L576.71,401.04L580.24,398.61L583.77,404.28L587.3,405.57L590.83,410.14L594.35,405.51L597.88,403.64L601.41,398.14L604.94,403.51L608.47,406.42L612,400.93" style="fill:none;stroke:#000000;stroke-width:2" />
<path d="M5,358.1L5,418.02L8.5291,422.7L12.058,416L15.587,416.48L19.116,409.84L22.645,414.61L26.174,418.82L29.703,425.23L33.233,423.32L36.762,427.22L40.291,421.05L43.82,417.81L47.349,424.53L50.878,426.15L54.407,416.03L57.936,422.83L61.465,425.37L64.994,423.15L68.523,417.34L72.052,424.15L75.581,423.64L79.11,417.7L82.64,415.75L86.169,421L89.698,425.89L93.227,419.58L96.756,417.56L100.28,418.91L103.81,422.33L107.34,423.56L110.87,420.53L114.4,426.95L117.93,426.8L121.46,430.63L124.99,428.91L128.52,428.65L132.05,425.86L135.58,429.12L139.1,431.95L142.63,428.36L146.16,429.52L149.69,436.79L153.22,439.91L156.75,442.33L160.28,448.85L163.81,445.55L167.34,446.35L170.87,446.97L174.4,450.79L177.92,455.62L181.45,461.59L184.98,460.04L188.51,462.95L192.04,468.25L195.57,472.21L199.1,478.96L202.63,480.6L206.16,488.26L209.69,496.07L213.22,499.9L216.74,509.19L220.27,512.12L223.8,511.1L227.33,519.58L230.86,529.96L234.39,538.99L237.92,548.4L241.45,550.7L244.98,560.76L248.51,569.81L252.03,582.83L255.56,587.38L259.09,598L262.62,612.28L266.15,627.3L269.68,639.24L273.21,643.24L276.74,655.22L280.27,669.26L283.8,676.63L287.33,688.99L290.85,704.8L294.38,713.76L297.91,734.72L301.44,745.25L304.97,751.51L308.5,769.03L312.03,786.72L315.56,786.41L319.09,786.29L322.62,801.9L326.15,799.93L329.67,807.59L333.2,813.46L336.73,812.6L340.26,812.78L343.79,804.53L347.32,796.21L350.85,790.91L354.38,784.9L357.91,782.29L361.44,772.26L364.97,758.67L368.49,755.5L372.02,743.99L375.55,735.16L379.08,726.62L382.61,715.69L386.14,698.16L389.67,696.29L393.2,694.88L396.73,673.86L400.26,673.61L403.78,662.97L407.31,662.95L410.84,650.31L414.37,639.24L417.9,640.82L421.43,631.81L424.96,629.43L428.49,624.61L432.02,616.64L435.55,609.73L439.08,604.25L442.6,597.96L446.13,590.26L449.66,585.37L453.19,585.61L456.72,578.86L460.25,567.26L463.78,568.27L467.31,561.64L470.84,558.03L474.37,554.5L477.9,553.06L481.42,546.16L484.95,545.37L488.48,542.93L492.01,537.96L495.54,537.61L499.07,539.21L502.6,533.45L506.13,530.58L509.66,533.16L513.19,523.53L516.72,525.27L520.24,523.79L523.77,525.35L527.3,520.78L530.83,523.43L534.36,521.56L537.89,526.89L541.42,526.14L544.95,523.16L548.48,523.58L552.01,521.77L555.53,520.74L559.06,526.62L562.59,523.69L566.12,525.58L569.65,526.81L573.18,519.5L576.71,521.79L580.24,520.38L583.77,523.96L587.3,520.8L590.83,526.92L594.35,529.06L597.88,528.39L601.41,526.78L604.94,529.97L608.47,524.72L612,523.47L612,358.1Z" style="fill:#FFFFFF" />
<path d="M5,418.02L8.5291,422.7L12.058,416L15.587,416.48L19.116,409.84L22.645,414.61L26.174,418.82L29.703,425.23L33.233,423.32L36.762,427.22L40.291,421.05L43.82,417.81L47.349,424.53L50.878,426.15L54.407,416.03L57.936,422.83L61.465,425.37L64.994,423.15L68.523,417.34L72.052,424.15L75.581,423.64L79.11,417.7L82.64,415.75L86.169,421L89.698,425.89L93.227,419.58L96.756,417.56L100.28,418.91L103.81,422.33L107.34,423.56L110.87,420.53L114.4,426.95L117.93,426.8L121.46,430.63L124.99,428.91L128.52,428.65L132.05,425.86L135.58,429.12L139.1,431.95L142.63,428.36L146.16,429.52L149.69,436.79L153.22,439.91L156.75,442.33L160.28,448.85L163.81,445.55L167.34,446.35L170.87,446.97L174.4,450.79L177.92,455.62L181.45,461.59L184.98,460.04L188.51,462.95L192.04,468.25L195.57,472.21L199.1,478.96L202.63,480.6L206.16,488.26L209.69,496.07L213.22,499.9L216.74,509.19L220.27,512.12L223.8,511.1L227.33,519.58L230.86,529.96L234.39,538.99L237.92,548.4L241.45,550.7L244.98,560.76L248.51,569.81L252.03,582.83L255.56,587.38L259.09,598L262.62,612.28L266.15,627.3L269.68,639.24L273.21,643.24L276.74,655.22L280.27,669.26L283.8,676.63L287.33,688.99L290.85,704.8L294.38,713.76L297.91,734.72L301.44,745.25L304.97,751.51L308.5,769.03L312.03,786.72L315.56,786.41L319.09,786.29L322.62,801.9L326.15,799.93L329.67,807.59L333.2,813.46L336.73,812.6L340.26,812.78L343.79,804.53L347.32,796.21L350.85,790.91L354.38,784.9L357.91,782.29L361.44,772.26L364.97,758.67L368.49,755.5L372.02,743.99L375.55,735.16L379.08,726.62L382.61,715.69L386.14,698.16L389.67,696.29L393.2,694.88L396.73,673.86L400.26,673.61L403.78,662.97L407.31,662.95L410.84,650.31L414.37,639.24L417.9,640.82L421.43,631.81L424.96,629.43L428.49,624.61L432.02,616.64L435.55,609.73L439.08,604.25L442.6,597.96L446.13,590.26L449.66,585.37L453.19,585.61L456.72,578.86L460.25,567.26L463.78,568.27L467.31,561.64L470.84,558.03L474.37,554.5L477.9,553.06L481.42,546.16L484.95,545.37L488.48,542.93L492.01,537.96L495.54,537.61L499.07,539.21L502.6,533.45L506.13,530.58L509.66,533.16L513.19,523.53L516.72,525.27L520.24,523.79L523.77,525.35L527.3,520.78L530.83,523.43L534.36,521.56L537.89,526.89L541.42,526.14L544.95,523.16L548.48,523.58L552.01,521.77L555.53,520.74L559.06,526.62L562.59,523.69L566.12,525.58L569.65,526.81L573.18,519.5L576.71,521.79L580.24,520.38L583.77,523.96L587.3,520.8L590.83,526.92L594.35,529.06L597.88,528.39L601.41,526.78L604.94,529.97L608.47,524.72L612,523.47" style="fill:none;stroke:#000000;stroke-width:2" />
<path d="M5,327.84L5,578.65L8.5291,580.38L12.058,571.9L15.587,580.64L19.116,579.54L22.645,583.91L26.174,584.49L29.703,593.16L33.233,588.34L36.762,587.14L40.291,597.22L43.82,593.82L47.349,595.99L50.878,592.36L54.407,592.41L57.936,587.83L61.465,593.92L64.994,596.42L68.523,602.71L72.052,607.59L75.581,599.92L79.11,604.53L82.64,600.08L86.169,604.15L89.698,609.08L93.227,609.53L96.756,611.85L100.28,611.63L103.81,613.69L107.34,611.63L110.87,614.33L114.4,612.02L117.93,621.37L121.46,612.17L124.99,622.31L128.52,633.87L132.05,620.3L135.58,627.58L139.1,639.33L142.63,636.68L146.16,638.98L149.69,635.54L153.22,638.51L156.75,644.37L160.28,647.05L163.81,651.36L167.34,653.84L170.87,652.32L174.4,656.6L177.92,651.37L181.45,660.79L184.98,659.31L188.51,668.73L192.04,668.41L195.57,673.63L199.1,671.33L202.63,678.59L206.16,680.85L209.69,686.47L213.22,688.35L216.74,694.18L220.27,690.93L223.8,701.37L227.33,709.63L230.86,707.05L234.39,712.09L237.92,719.48L241.45,723.24L244.98,729.65L248.51,730.67L252.03,733.77L255.56,741.48L259.09,735.46L262.62,747.91L266.15,749.44L269.68,757.87L273.21,752.81L276.74,755.76L280.27,749.14L283.8,762.56L287.33,754.55L290.85,758.35L294.38,756.05L297.91,758.45L301.44,751.19L304.97,758.04L308.5,745.08L312.03,745.8L315.56,740.66L319.09,735.98L322.62,724.69L326.15,719.96L329.67,710.03L333.2,701.26L336.73,683.33L340.26,669.42L343.79,655.44L347.32,634.82L350.85,620.98L354.38,607.72L357.91,593.2L361.44,574.52L364.97,564.79L368.49,542.2L372.02,525.51L375.55,515.77L379.08,504.56L382.61,493.34L386.14,479.95L389.67,468.7L393.2,455.13L396.73,449.93L400.26,440.24L403.78,421.18L407.31,408.65L410.84,405.16L414.37,400.11L417.9,393.58L421.43,384.05L424.96,374.14L428.49,370.98L432.02,363.27L435.55,353.3L439.08,353.89L442.6,350.73L446.13,348.63L449.66,343.89L453.19,341.47L456.72,344.43L460.25,338.78L463.78,335.46L467.31,334.49L470.84,332.92L474.37,334.66L477.9,332.74L481.42,335.53L484.95,334.12L488.48,335.87L492.01,337.74L495.54,338.78L499.07,344.75L502.6,343.91L506.13,345.69L509.66,346.23L513.19,350.55L516.72,351.59L520.24,351.01L523.77,351L527.3,353.58L530.83,352.39L534.36,356.52L537.89,352.05L541.42,350.03L544.95,356.6L548.48,356.37L552.01,363.09L555.53,360.16L559.06,361.8L562.59,362.94L566.12,366.53L569.65,365.85L573.18,368.61L576.71,376.11L580.24,372.47L583.77,372.56L587.3,375.88L590.83,375.13L594.35,378.69L597.88,380.02L601.41,374.94L604.94,379.31L608.47,378.31L612,384.56L612,327.84Z" style="fill:#FFFFFF" />
<path d="M5,578.65L8.5291,580.38L12.058,571.9L15.587,580.64L19.116,579.54L22.645,583.91L26.174,584.49L29.703,593.16L33.233,588.34L36.762,587.14L40.291,597.22L43.82,593.82L47.349,595.99L50.878,592.36L54.407,592.41L57.936,587.83L61.465,593.92L64.994,596.42L68.523,602.71L72.052,607.59L75.581,599.92L79.11,604.53L82.64,600.08L86.169,604.15L89.698,609.08L93.227,609.53L96.756,611.85L100.28,611.63L103.81,613.69L107.34,611.63L110.87,614.33L114.4,612.02L117.93,621.37L121.46,612.17L124.99,622.31L128.52,633.87L132.05,620.3L135.58,627.58L139.1,639.33L142.63,636.68L146.16,638.98L149.69,635.54L153.22,638.51L156.75,644.37L160.28,647.05L163.81,651.36L167.34,653.84L170.87,652.32L174.4,656.6L177.92,651.37L181.45,660.79L184.98,659.31L188.51,668.73L192.04,668.41L195.57,673.63L199.1,671.33L202.63,678.59L206.16,680.85L209.69,686.47L213.22,688.35L216.74,694.18L220.27,690.93L223.8,701.37L227.33,709.63L230.86,707.05L234.39,712.09L237.92,719.48L241.45,723.24L244.98,729.65L248.51,730.67L252.03,733.77L255.56,741.48L259.09,735.46L262.62,747.91L266.15,749.44L269.68,757.87L273.21,752.81L276.74,755.76L280.27,749.14L283.8,762.56L287.33,754.55L290.85,758.35L294.38,756.05L297.91,758.45L301.44,751.19L304.97,758.04L308.5,745.08L312.03,745.8L315.56,740.66L319.09,735.98L322.62,724.69L326.15,719.96L329.67,710.03L333.2,701.26L336.73,683.33L340.26,669.42L343.79,655.44L347.32,634.82L350.85,620.98L354.38,607.72L357.91,593.2L361.44,574.52L364.97,564.79L368.49,542.2L372.02,525.51L375.55,515.77L379.08,504.56L382.61,493.34L386.14,479.95L389.67,468.7L393.2,455.13L396.73,449.93L400.26,440.24L403.78,421.18L407.31,408.65L410.84,405.16L414.37,400.11L417.9,393.58L421.43,384.05L424.96,374.14L428.49,370.98L432.02,363.27L435.55,353.3L439.08,353.89L442.6,350.73L446.13,348.63L449.66,343.89L453.19,341.47L456.72,344.43L460.25,338.78L463.78,335.46L467.31,334.49L470.84,332.92L474.37,334.66L477.9,332.74L481.42,335.53L484.95,334.12L488.48,335.87L492.01,337.74L495.54,338.78L499.07,344.75L502.6,343.91L506.13,345.69L509.66,346.23L513.19,350.55L516.72,351.59L520.24,351.01L523.77,351L527.3,353.58L530.83,352.39L534.36,356.52L537.89,352.05L541.42,350.03L544.95,356.6L548.48,356.37L552.01,363.09L555.53,360.16L559.06,361.8L562.59,362.94L566.12,366.53L569.65,365.85L573.18,368.61L576.71,376.11L580.24,372.47L583.77,372.56L587.3,375.88L590.83,375.13L594.35,378.69L597.88,380.02L601.41,374.94L604.94,379.31L608.47,378.31L612,384.56" style="fill:none;stroke:#000000;stroke-width:2" />
<path d="M5,297.59L5,310.64L8.5291,319.87L12.058,309.58L15.587,311.06L19.116,314.55L22.645,310.39L26.174,315.11L29.703,315.81L33.233,315.6L36.762,314.81L40.291,310.05L43.82,313.15L47.349,311.78L50.878,313.67L54.407,312.29L57.936,311.44L61.465,310.21L64.994,311.34L68.523,311.84L72.052,310.87L75.581,311.32L79.11,307.84L82.64,306.77L86.169,305.88L89.698,305.93L93.227,306.28L96.756,308.21L100.28,306.64L103.81,309.29L107.34,311.38L110.87,314.75L114.4,315.59L117.93,318.06L121.46,319.06L124.99,321.45L128.52,327.12L132.05,322.93L135.58,331.17L139.1,333.67L142.63,339.17L146.16,337.38L149.69,339.27L153.22,335.45L156.75,341.36L160.28,345.93L163.81,347.1L167.34,348.7L170.87,355.83L174.4,349.18L177.92,358.29L181.45,361.66L184.98,369.91L188.51,377.28L192.04,382.15L195.57,383.39L199.1,393.53L202.63,399.88L206.16,400.53L209.69,408.18L213.22,410.04L216.74,421.01L220.27,423.76L223.8,435.78L227.33,443.99L230.86,453.23L234.39,466.55L237.92,473.2L241.45,482.79L244.98,495.73L248.51,505.49L252.03,518.96L255.56,532.61L259.09,541.38L262.62,562L266.15,566.25L269.68,582.29L273.21,589.3L276.74,594.25L280.27,609.37L283.8,616.11L287.33,631.55L290.85,645.91L294.38,650.58L297.91,658.43L301.44,667.7L304.97,672.44L308.5,677.88L312.03,681.91L315.56,684.79L319.09,688.48L322.62,688.68L326.15,682.39L329.67,682.66L333.2,676.77L336.73,670.47L340.26,662.6L343.79,659.49L347.32,648.18L350.85,638.49L354.38,631.44L357.91,627.33L361.44,618.67L364.97,610.93L368.49,603.8L372.02,592.65L375.55,590.93L379.08,585.97L382.61,580.06L386.14,571.21L389.67,567.4L393.2,563.99L396.73,557.19L400.26,550.25L403.78,547.44L407.31,537.02L410.84,530.43L414.37,527.58L417.9,517.69L421.43,516L424.96,512.83L428.49,506.47L432.02,506.91L435.55,503.07L439.08,498.66L442.6,500.69L446.13,492.27L449.66,491.55L453.19,478.17L456.72,481.45L460.25,478.56L463.78,473.42L467.31,464.53L470.84,460.26L474.37,458.52L477.9,462.4L481.42,464.46L484.95,460.31L488.48,459.65L492.01,455.96L495.54,457.83L499.07,455.06L502.6,451.86L506.13,451.72L509.66,451.14L513.19,443.86L516.72,448.59L520.24,446.91L523.77,444.11L527.3,440.51L530.83,441.48L534.36,444.27L537.89,445.43L541.42,444.78L544.95,441.75L548.48,445.19L552.01,442.91L555.53,438.35L559.06,443.15L562.59,445.47L566.12,439.2L569.65,439.19L573.18,442.41L576.71,436.6L580.24,438.56L583.77,437.68L587.3,437.66L590.83,438.15L594.35,437.2L597.88,436.16L601.41,436.22L604.94,434.26L608.47,434.97L612,430.97L612,297.59Z" style="fill:#FFFFFF" />
<path d="M5,310.64L8.5291,319.87L12.058,309.58L15.587,311.06L19.116,314.55L22.645,310.39L26.174,315.11L29.703,315.81L33.233,315.6L36.762,314.81L40.291,310.05L43.82,313.15L47.349,311.78L50.878,313.67L54.407,312.29L57.936,311.44L61.465,310.21L64.994,311.34L68.523,311.84L72.052,310.87L75.581,311.32L79.11,307.84L82.64,306.77L86.169,305.88L89.698,305.93L93.227,306.28L96.756,308.21L100.28,306.64L103.81,309.29L107.34,311.38L110.87,314.75L114.4,315.59L117.93,318.06L121.46,319.06L124.99,321.45L128.52,327.12L132.05,322.93L135.58,331.17L139.1,333.67L142.63,339.17L146.16,337.38L149.69,339.27L153.22,335.45L156.75,341.36L160.28,345.93L163.81,347.1L167.34,348.7L170.87,355.83L174.4,349.18L177.92,358.29L181.45,361.66L184.98,369.91L188.51,377.28L192.04,382.15L195.57,383.39L199.1,393.53L202.63,399.88L206.16,400.53L209.69,408.18L213.22,410.04L216.74,421.01L220.27,423.76L223.8,435.78L227.33,443.99L230.86,453.23L234.39,466.55L237.92,473.2L241.45,482.79L244.98,495.73L248.51,505.49L252.03,518.96L255.56,532.61L259.09,541.38L262.62,562L266.15,566.25L269.68,582.29L273.21,589.3L276.74,594.25L280.27,609.37L283.8,616.11L287.33,631.55L290.85,645.91L294.38,650.58L297.91,658.43L301.44,667.7L304.97,672.44L308.5,677.88L312.03,681.91L315.56,684.79L319.09,688.48L322.62,688.68L326.15,682.39L329.67,682.66L333.2,676.77L336.73,670.47L340.26,662.6L343.79,659.49L347.32,648.18L350.85,638.49L354.38,631.44L357.91,627.33L361.44,618.67L364.97,610.93L368.49,603.8L372.02,592.65L375.55,590.93L379.08,585.97L382.61,580.06L386.14,571.21L389.67,567.4L393.2,563.99L396.73,557.19L400.26,550.25L403.78,547.44L407.31,537.02L410.84,530.43L414.37,527.58L417.9,517.69L421.43,516L424.96,512.83L428.49,506.47L432.02,506.91L435.55,503.07L439.08,498.66L442.6,500.69L446.13,492.27L449.66,491.55L453.19,478.17L456.72,481.45L460.25,478.56L463.78,473.42L467.31,464.53L470.84,460.26L474.37,458.52L477.9,462.4L481.42,464.46L484.95,460.31L488.48,459.65L492.01,455.96L495.54,457.83L499.07,455.06L502.6,451.86L506.13,451.72L509.66,451.14L513.19,443.86L516.72,448.59L520.24,446.91L523.77,444.11L527.3,440.51L530.83,441.48L534.36,444.27L537.89,445.43L541.42,444.78L544.95,441.75L548.48,445.19L552.01,442.91L555.53,438.35L559.06,443.15L562.59,445.47L566.12,439.2L569.65,439.19L573.18,442.41L576.71,436.6L580.24,438.56L583.77,437.68L587.3,437.66L590.83,438.15L594.35,437.2L597.88,436.16L601.41,436.22L604.94,434.26L608.47,434.97L612,430.97" style="fill:none;stroke:#000000;stroke-width:2" />
<path d="M5,267.33L5,305.34L8.5291,293.13L12.058,290.15L15.587,299.46L19.116,308.63L22.645,312.46L26.174,300.81L29.703,309.81L33.233,299.6L36.762,312.32L40.291,312.84L43.82,302.14L47.349,313.66L50.878,307.76L54.407,313.74L57.936,307.11L61.465,302.11L64.994,304.21L68.523,310.38L72.052,311.86L75.581,312.14L79.11,309.47L82.64,315.05L86.169,323.86L89.698,318.09L93.227,324.51L96.756,311.38L100.28,318L103.81,304.16L107.34,310.2L110.87,313.55L114.4,310.12L117.93,307.1L121.46,302.4L124.99,296.19L128.52,293.59L132.05,305.9L135.58,296.96L139.1,294.07L142.63,291.42L146.16,292.86L149.69,295.86L153.22,293.59L156.75,299.56L160.28,312.82L163.81,302.52L167.34,322.64L170.87,316.72L174.4,311.86L177.92,318.83L181.45,321.28L184.98,317.79L188.51,318.15L192.04,322.94L195.57,328.63L199.1,333.64L202.63,336.74L206.16,338.73L209.69,338.15L213.22,335.01L216.74,335.51L220.27,330.59L223.8,349.27L227.33,338.67L230.86,364.43L234.39,355.46L237.92,359.5L241.45,361.58L244.98,372.26L248.51,375.88L252.03,386.98L255.56,385.45L259.09,395.1L262.62,412.56L266.15,421.44L269.68,414.15L273.21,413.19L276.74,426.06L280.27,442.57L283.8,461.76L287.33,467.35L290.85,468.8L294.38,485.26L297.91,494.58L301.44,501.21L304.97,514.29L308.5,529.58L312.03,529.26L315.56,541.23L319.09,543.1L322.62,556.08L326.15,565.76L329.67,586.26L333.2,586.68L336.73,599.01L340.26,595.41L343.79,603.24L347.32,594.71L350.85,593.2L354.38,595.51L357.91,591.76L361.44,599.88L364.97,596.04L368.49,586.97L372.02,583.27L375.55,575.4L379.08,563.15L382.61,557.31L386.14,549.22L389.67,543.36L393.2,549.05L396.73,548.51L400.26,528.08L403.78,528.04L407.31,522.18L410.84,513.45L414.37,506.28L417.9,509.31L421.43,505.65L424.96,499.55L428.49,488.31L432.02,488.72L435.55,484.93L439.08,477.54L442.6,467.29L446.13,470.13L449.66,456.19L453.19,448.86L456.72,452.71L460.25,435.62L463.78,435.31L467.31,436.24L470.84,428.1L474.37,427.05L477.9,422.4L481.42,417.36L484.95,416.96L488.48,422.03L492.01,414.54L495.54,418.64L499.07,420.25L502.6,414.3L506.13,409.06L509.66,408.9L513.19,405.67L516.72,409.21L520.24,406.41L523.77,408.65L527.3,419.27L530.83,419.4L534.36,419.2L537.89,419.95L541.42,415.44L544.95,407.75L548.48,401.35L552.01,398.97L555.53,406.27L559.06,403.98L562.59,412.76L566.12,406.09L569.65,406.96L573.18,400.49L576.71,394.46L580.24,393.32L583.77,394.84L587.3,416.75L590.83,413.65L594.35,416.7L597.88,407.42L601.41,408.37L604.94,405.36L608.47,414.34L612,403.46L612,267.33Z" style="fill:#FFFFFF" />
<path d="M5,305.34L8.5291,293.13L12.058,290.15L15.587,299.46L19.116,308.63L22.645,312.46L26.174,300.81L29.703,309.81L33.233,299.6L36.762,312.32L40.291,312.84L43.82,302.14L47.349,313.66L50.878,307.76L54.407,313.74L57.936,307.11L61.465,302.11L64.994,304.21L68.523,310.38L72.052,311.86L75.581,312.14L79.11,309.47L82.64,315.05L86.169,323.86L89.698,318.09L93.227,324.51L96.756,311.38L100.28,318L103.81,304.16L107.34,310.2L110.87,313.55L114.4,310.12L117.93,307.1L121.46,302.4L124.99,296.19L128.52,293.59L132.05,305.9L135.58,296.96L139.1,294.07L142.63,291.42L146.16,292.86L149.69,295.86L153.22,293.59L156.75,299.56L160.28,312.82L163.81,302.52L167.34,322.64L170.87,316.72L174.4,311.86L177.92,318.83L181.45,321.28L184.98,317.79L188.51,318.15L192.04,322.94L195.57,328.63L199.1,333.64L202.63,336.74L206.16,338.73L209.69,338.15L213.22,335.01L216.74,335.51L220.27,330.59L223.8,349.27L227.33,338.67L230.86,364.43L234.39,355.46L237.92,359.5L241.45,361.58L244.98,372.26L248.51,375.88L252.03,386.98L255.56,385.45L259.09,395.1L262.62,412.56L266.15,421.44L269.68,414.15L273.21,413.19L276.74,426.06L280.27,442.57L283.8,461.76L287.33,467.35L290.85,468.8L294.38,485.26L297.91,494.58L301.44,501.21L304.97,514.29L308.5,529.58L312.03,529.26L315.56,541.23L319.09,543.1L322.62,556.08L326.15,565.76L329.67,586.26L333.2,586.68L336.73,599.01L340.26,595.41L343.79,603.24L347.32,594.71L350.85,593.2L354.38,595.51L357.91,591.76L361.44,599.88L364.97,596.04L368.49,586.97L372.02,583.27L375.55,575.4L379.08,563.15L382.61,557.31L386.14,549.22L389.67,543.36L393.2,549.05L396.73,548.51L400.26,528.08L403.78,528.04L407.31,522.18L410.84,513.45L414.37,506.28L417.9,509.31L421.43,505.65L424.96,499.55L428.49,488.31L432.02,488.72L435.55,484.93L439.08,477.54L442.6,467.29L446.13,470.13L449.66,456.19L453.19,448.86L456.72,452.71L460.25,435.62L463.78,435.31L467.31,436.24L470.84,428.1L474.37,427.05L477.9,422.4L481.42,417.36L484.95,416.96L488.48,422.03L492.01,414.54L495.54,418.64L499.07,420.25L502.6,414.3L506.13,409.06L509.66,408.9L513.19,405.67L516.72,409.21L520.24,406.41L523.77,408.65L527.3,419.27L530.83,419.4L534.36,419.2L537.89,419.95L541.42,415.44L544.95,407.75L548.48,401.35L552.01,398.97L555.53,406.27L559.06,403.98L562.59,412.76L566.12,406.09L569.65,406.96L573.18,400.49L576.71,394.46L580.24,393.32L583.77,394.84L587.3,416.75L590.83,413.65L594.35,416.7L597.88,407.42L601.41,408.37L604.94,405.36L608.47,414.34L612,403.46" style="fill:none;stroke:#000000;stroke-width:2" />
<path d="M5,237.08L5,316.65L8.5291,319L12.058,313.26L15.587,314.21L19.116,316.08L22.645,310.94L26.174,307.32L29.703,310.45L33.233,312.11L36.762,306.8L40.291,314.73L43.82,310.83L47.349,309.33L50.878,302.79L54.407,308.7L57.936,308.86L61.465,311.87L64.994,316.07L68.523,310.39L72.052,308.74L75.581,310.12L79.11,307.8L82.64,310.92L86.169,305.71L89.698,310.88L93.227,303.15L96.756,308.44L100.28,308.25L103.81,307.27L107.34,307.31L110.87,307.43L114.4,308.05L117.93,310.87L121.46,300.1L124.99,305.6L128.52,306.15L132.05,310.71L135.58,309.88L139.1,308.23L142.63,306.57L146.16,307.18L149.69,303.97L153.22,299.8L156.75,291.54L160.28,301.54L163.81,295.23L167.34,305.69L170.87,302.25L174.4,302.84L177.92,307.33L181.45,303.88L184.98,309.67L188.51,306.31L192.04,303.52L195.57,309.07L199.1,309.23L202.63,310.61L206.16,313.02L209.69,321.41L213.22,322.88L216.74,324.41L220.27,330.36L223.8,332L227.33,339.86L230.86,343.01L234.39,347.75L237.92,356.05L241.45,367.48L244.98,373.98L248.51,382.6L252.03,382.99L255.56,382.76L259.09,386.76L262.62,395.44L266.15,402.58L269.68,405.03L273.21,412.48L276.74,423.1L280.27,428.27L283.8,442.88L287.33,459.82L290.85,465.23L294.38,473.26L297.91,486.08L301.44,495.69L304.97,507.13L308.5,512.66L312.03,519.99L315.56,536.58L319.09,542.21L322.62,548.82L326.15,549.36L329.67,560.08L333.2,560.12L336.73,561.74L340.26,565.92L343.79,567.97L347.32,565.84L350.85,561.69L354.38,556.43L357.91,546.4L361.44,545.95L364.97,541.71L368.49,534.16L372.02,529.59L375.55,524.83L379.08,519.55L382.61,505.9L386.14,503.58L389.67,495.54L393.2,495.48L396.73,488.96L400.26,484.09L403.78,480.31L407.31,473.23L410.84,468.39L414.37,466.5L417.9,458.3L421.43,458.47L424.96,452.65L428.49,448.21L432.02,447.84L435.55,440.45L439.08,433.08L442.6,429.11L446.13,422.67L449.66,420.67L453.19,418.42L456.72,412.28L460.25,401.45L463.78,396.64L467.31,399.39L470.84,396.86L474.37,392.65L477.9,388.91L481.42,384.73L484.95,382L488.48,384.75L492.01,384.93L495.54,384.94L499.07,382.17L502.6,382.21L506.13,389.27L509.66,381.63L513.19,382.88L516.72,380.24L520.24,377.96L523.77,372.28L527.3,375.86L530.83,377.65L534.36,369.96L537.89,376.72L541.42,379.07L544.95,384.45L548.48,379.35L552.01,385.1L555.53,385.98L559.06,386.71L562.59,387.81L566.12,387.14L569.65,383.97L573.18,388.57L576.71,388.49L580.24,390.3L583.77,392.99L587.3,386.36L590.83,384.22L594.35,382.24L597.88,374.54L601.41,373.13L604.94,376.65L608.47,374.46L612,370.49L612,237.08Z" style="fill:#FFFFFF" />
<path d="M5,316.65L8.5291,319L12.058,313.26L15.587,314.21L19.116,316.08L22.645,310.94L26.174,307.32L29.703,310.45L33.233,312.11L36.762,306.8L40.291,314.73L43.82,310.83L47.349,309.33L50.878,302.79L54.407,308.7L57.936,308.86L61.465,311.87L64.994,316.07L68.523,310.39L72.052,308.74L75.581,310.12L79.11,307.8L82.64,310.92L86.169,305.71L89.698,310.88L93.227,303.15L96.756,308.44L100.28,308.25L103.81,307.27L107.34,307.31L110.87,307.43L114.4,308.05L117.93,310.87L121.46,300.1L124.99,305.6L128.52,306.15L132.05,310.71L135.58,309.88L139.1,308.23L142.63,306.57L146.16,307.18L149.69,303.97L153.22,299.8L156.75,291.54L160.28,301.54L163.81,295.23L167.34,305.69L170.87,302.25L174.4,302.84L177.92,307.33L181.45,303.88L184.98,309.67L188.51,306.31L192.04,303.52L195.57,309.07L199.1,309.23L202.63,310.61L206.16,313.02L209.69,321.41L213.22,322.88L216.74,324.41L220.27,330.36L223.8,332L227.33,339.86L230.86,343.01L234.39,347.75L237.92,356.05L241.45,367.48L244.98,373.98L248.51,382.6L252.03,382.99L255.56,382.76L259.09,386.76L262.62,395.44L266.15,402.58L269.68,405.03L273.21,412.48L276.74,423.1L280.27,428.27L283.8,442.88L287.33,459.82L290.85,465.23L294.38,473.26L297.91,486.08L301.44,495.69L304.97,507.13L308.5,512.66L312.03,519.99L315.56,536.58L319.09,542.21L322.62,548.82L326.15,549.36L329.67,560.08L333.2,560.12L336.73,561.74L340.26,565.92L343.79,567.97L347.32,565.84L350.85,561.69L354.38,556.43L357.91,546.4L361.44,545.95L364.97,541.71L368.49,534.16L372.02,529.59L375.55,524.83L379.08,519.55L382.61,505.9L386.14,503.58L389.67,495.54L393.2,495.48L396.73,488.96L400.26,484.09L403.78,480.31L407.31,473.23L410.84,468.39L414.37,466.5L417.9,458.3L421.43,458.47L424.96,452.65L428.49,448.21L432.02,447.84L435.55,440.45L439.08,433.08L442.6,429.11L446.13,422.67L449.66,420.67L453.19,418.42L456.72,412.28L460.25,401.45L463.78,396.64L467.31,399.39L470.84,396.86L474.37,392.65L477.9,388.91L481.42,384.73L484.95,382L488.48,384.75L492.01,384.93L495.54,384.94L499.07,382.17L502.6,382.21L506.13,389.27L509.66,381.63L513.19,382.88L516.72,380.24L520.24,377.96L523.77,372.28L527.3,375.86L530.83,377.65L534.36,369.96L537.89,376.72L541.42,379.07L544.95,384.45L548.48,379.35L552.01,385.1L555.53,385.98L559.06,386.71L562.59,387.81L566.12,387.14L569.65,383.97L573.18,388.57L576.71,388.49L580.24,390.3L583.77,392.99L587.3,386.36L590.83,384.22L594.35,382.24L597.88,374.54L601.41,373.13L604.94,376.65L608.47,374.46L612,370.49" style="fill:none;stroke:#000000;stroke-width:2" />
<path d="M5,206.82L5,390.33L8.5291,389.2L12.058,389.44L15.587,398.9L19.116,394.3L22.645,397.28L26.174,398.03L29.703,404.53L33.233,402.42L36.762,406.94L40.291,403.8L43.82,404.25L47.349,405.95L50.878,405.56L54.407,399.46L57.936,405.16L61.465,407.51L64.994,412.41L68.523,409.73L72.052,410.43L75.581,414.45L79.11,409.79L82.64,415.19L86.169,417.36L89.698,419.31L93.227,421.15L96.756,416.36L100.28,420.39L103.81,420.64L107.34,416.77L110.87,413.87L114.4,408.76L117.93,412.96L121.46,419.13L124.99,421.19L128.52,419.19L132.05,417.84L135.58,422.24L139.1,424.27L142.63,424.18L146.16,422.41L149.69,424.06L153.22,434.4L156.75,432.3L160.28,434.48L163.81,438.99L167.34,433.98L170.87,434.53L174.4,436.91L177.92,439.89L181.45,440.38L184.98,446.23L188.51,450.19L192.04,449.18L195.57,450.25L199.1,454.55L202.63,455.78L206.16,458.46L209.69,454.65L213.22,461.39L216.74,453.53L220.27,458.94L223.8,462.29L227.33,468.24L230.86,471.11L234.39,476.86L237.92,474.58L241.45,477.25L244.98,478.32L248.51,489.75L252.03,492.23L255.56,499.74L259.09,491.04L262.62,495.5L266.15,501.27L269.68,492.39L273.21,493.89L276.74,498.61L280.27,495.56L283.8,502.69L287.33,503.79L290.85,501.63L294.38,501.38L297.91,501.79L301.44,497.56L304.97,497.79L308.5,488.82L312.03,486.67L315.56,475.7L319.09,470.95L322.62,461.34L326.15,451.89L329.67,442.75L333.2,432.89L336.73,422.65L340.26,412.34L343.79,403.86L347.32,400.49L350.85,394.13L354.38,395.76L357.91,378.06L361.44,373.88L364.97,371.86L368.49,362.65L372.02,353.62L375.55,346.85L379.08,341.36L382.61,333.65L386.14,330.92L389.67,332.17L393.2,326.9L396.73,319.76L400.26,323.42L403.78,320.5L407.31,318.96L410.84,312.65L414.37,310.08L417.9,313.29L421.43,307.13L424.96,306.08L428.49,303.85L432.02,306.43L435.55,297.09L439.08,302.74L442.6,298.84L446.13,297.34L449.66,293.87L453.19,298.36L456.72,294.18L460.25,298.88L463.78,292.71L467.31,292.38L470.84,287.69L474.37,285.23L477.9,284.85L481.42,285.22L484.95,282.59L488.48,284.6L492.01,287.43L495.54,283.54L499.07,284.03L502.6,293.71L506.13,289.28L509.66,292.15L513.19,295.67L516.72,294.32L520.24,290.73L523.77,293.7L527.3,288.32L530.83,289.65L534.36,291.82L537.89,286.16L541.42,287.99L544.95,291.02L548.48,282.52L552.01,287.18L555.53,296.44L559.06,294.27L562.59,289.41L566.12,291.51L569.65,290.74L573.18,299.52L576.71,293.91L580.24,290.34L583.77,290.46L587.3,295.19L590.83,303.72L594.35,302.51L597.88,299.04L601.41,305.98L604.94,302.14L608.47,303.53L612,300.09L612,206.82Z" style="fill:#FFFFFF" />
<path d="M5,390.33L8.5291,389.2L12.058,389.44L15.587,398.9L19.116,394.3L22.645,397.28L26.174,398.03L29.703,404.53L33.233,402.42L36.762,406.94L40.291,403.8L43.82,404.25L47.349,405.95L50.878,405.56L54.407,399.46L57.936,405.16L61.465,407.51L64.994,412.41L68.523,409.73L72.052,410.43L75.581,414.45L79.11,409.79L82.64,415.19L86.169,417.36L89.698,419.31L93.227,421.15L96.756,416.36L100.28,420.39L103.81,420.64L107.34,416.77L110.87,413.87L114.4,408.76L117.93,412.96L121.46,419.13L124.99,421.19L128.52,419.19L132.05,417.84L135.58,422.24L139.1,424.27L142.63,424.18L146.16,422.41L149.69,424.06L153.22,434.4L156.75,432.3L160.28,434.48L163.81,438.99L167.34,433.98L170.87,434.53L174.4,436.91L177.92,439.89L181.45,440.38L184.98,446.23L188.51,450.19L192.04,449.18L195.57,450.25L199.1,454.55L202.63,455.78L206.16,458.46L209.69,454.65L213.22,461.39L216.74,453.53L220.27,458.94L223.8,462.29L227.33,468.24L230.86,471.11L234.39,476.86L237.92,474.58L241.45,477.25L244.98,478.32L248.51,489.75L252.03,492.23L255.56,499.74L259.09,491.04L262.62,495.5L266.15,501.27L269.68,492.39L273.21,493.89L276.74,498.61L280.27,495.56L283.8,502.69L287.33,503.79L290.85,501.63L294.38,501.38L297.91,501.79L301.44,497.56L304.97,497.79L308.5,488.82L312.03,486.67L315.56,475.7L319.09,470.95L322.62,461.34L326.15,451.89L329.67,442.75L333.2,432.89L336.73,422.65L340.26,412.34L343.79,403.86L347.32,400.49L350.85,394.13L354.38,395.76L357.91,378.06L361.44,373.88L364.97,371.86L368.49,362.65L372.02,353.62L375.55,346.85L379.08,341.36L382.61,333.65L386.14,330.92L389.67,332.17L393.2,326.9L396.73,319.76L400.26,323.42L403.78,320.5L407.31,318.96L410.84,312.65L414.37,310.08L417.9,313.29L421.43,307.13L424.96,306.08L428.49,303.85L432.02,306.43L435.55,297.09L439.08,302.74L442.6,298.84L446.13,297.34L449.66,293.87L453.19,298.36L456.72,294.18L460.25,298.88L463.78,292.71L467.31,292.38L470.84,287.69L474.37,285.23L477.9,284.85L481.42,285.22L484.95,282.59L488.48,284.6L492.01,287.43L495.54,283.54L499.07,284.03L502.6,293.71L506.13,289.28L509.66,292.15L513.19,295.67L516.72,294.32L520.24,290.73L523.77,293.7L527.3,288.32L530.83,289.65L534.36,291.82L537.89,286.16L541.42,287.99L544.95,291.02L548.48,282.52L552.01,287.18L555.53,296.44L559.06,294.27L562.59,289.41L566.12,291.51L569.65,290.74L573.18,299.52L576.71,293.91L580.24,290.34L583.77,290.46L587.3,295.19L590.83,303.72L594.35,302.51L597.88,299.04L601.41,305.98L604.94,302.14L608.47,303.53L612,300.09" style="fill:none;stroke:#000000;stroke-width:2" />
<path d="M5,176.57L5,314.73L8.5291,326.5L12.058,324.02L15.587,333.83L19.116,335.85L22.645,336.17L26.174,339.88L29.703,348.05L33.233,354.2L36.762,360.7L40.291,356.61L43.82,348.62L47.349,324.96L50.878,316L54.407,323.04L57.936,325.19L61.465,343.05L64.994,356.64L68.523,346.49L72.052,343.08L75.581,354.46L79.11,354.39L82.64,338.19L86.169,335.91L89.698,334.4L93.227,340.23L96.756,327.58L100.28,343.19L103.81,334.98L107.34,333.62L110.87,344.68L114.4,336.9L117.93,328.89L121.46,351.47L124.99,346.09L128.52,353.87L132.05,358.91L135.58,359.78L139.1,350.46L142.63,345.46L146.16,357.31L149.69,344.99L153.22,379.83L156.75,366.75L160.28,364.66L163.81,370.15L167.34,356.35L170.87,365.75L174.4,365.08L177.92,352.2L181.45,352.87L184.98,353.61L188.51,349.54L192.04,358.85L195.57,355.94L199.1,377.26L202.63,381.71L206.16,389.38L209.69,389.76L213.22,398.65L216.74,391.69L220.27,394.74L223.8,416.51L227.33,405.26L230.86,402.27L234.39,404.27L237.92,404.85L241.45,412.09L244.98,414.28L248.51,403.86L252.03,401.23L255.56,413.72L259.09,412.26L262.62,418.07L266.15,409.55L269.68,422.27L273.21,435.88L276.74,438.43L280.27,444.73L283.8,434.02L287.33,440.53L290.85,436.6L294.38,443.86L297.91,451.66L301.44,456.37L304.97,450.88L308.5,455.08L312.03,466.38L315.56,464.19L319.09,462.51L322.62,462.6L326.15,452L329.67,457.97L333.2,461.98L336.73,458.12L340.26,453.54L343.79,458.47L347.32,444.11L350.85,447.76L354.38,438.09L357.91,433.71L361.44,432.47L364.97,408.06L368.49,403.4L372.02,400.34L375.55,392.42L379.08,386.56L382.61,381.86L386.14,372.35L389.67,362.11L393.2,358.67L396.73,367.94L400.26,353.49L403.78,352.7L407.31,351.44L410.84,344.78L414.37,336.37L417.9,333.72L421.43,325.81L424.96,326.77L428.49,324.42L432.02,318.08L435.55,316.23L439.08,310.81L442.6,302.18L446.13,307.73L449.66,298.35L453.19,290.23L456.72,295.13L460.25,292.24L463.78,289.72L467.31,287.16L470.84,289.05L474.37,283.51L477.9,281.94L481.42,282.15L484.95,285.35L488.48,288.38L492.01,286.92L495.54,285.98L499.07,277.88L502.6,280.56L506.13,277.53L509.66,278.24L513.19,277.49L516.72,274.59L520.24,276.91L523.77,272.6L527.3,274.65L530.83,281.06L534.36,282.15L537.89,280.63L541.42,277.44L544.95,282.5L548.48,283.25L552.01,274.48L555.53,276.27L559.06,274.08L562.59,280.19L566.12,276.03L569.65,279.99L573.18,275.47L576.71,287.03L580.24,283.86L583.77,284.16L587.3,281.77L590.83,278.82L594.35,273.77L597.88,274.29L601.41,265.22L604.94,271.88L608.47,278.95L612,271.69L612,176.57Z" style="fill:#FFFFFF" />
<path d="M5,314.73L8.5291,326.5L12.058,324.02L15.587,333.83L19.116,335.85L22.645,336.17L26.174,339.88L29.703,348.05L33.233,354.2L36.762,360.7L40.291,356.61L43.82,348.62L47.349,324.96L50.878,316L54.407,323.04L57.936,325.19L61.465,343.05L64.994,356.64L68.523,346.49L72.052,343.08L75.581,354.46L79.11,354.39L82.64,338.19L86.169,335.91L89.698,334.4L93.227,340.23L96.756,327.58L100.28,343.19L103.81,334.98L107.34,333.62L110.87,344.68L114.4,336.9L117.93,328.89L121.46,351.47L124.99,346.09L128.52,353.87L132.05,358.91L135.58,359.78L139.1,350.46L142.63,345.46L146.16,357.31L149.69,344.99L153.22,379.83L156.75,366.75L160.28,364.66L163.81,370.15L167.34,356.35L170.87,365.75L174.4,365.08L177.92,352.2L181.45,352.87L184.98,353.61L188.51,349.54L192.04,358.85L195.57,355.94L199.1,377.26L202.63,381.71L206.16,389.38L209.69,389.76L213.22,398.65L216.74,391.69L220.27,394.74L223.8,416.51L227.33,405.26L230.86,402.27L234.39,404.27L237.92,404.85L241.45,412.09L244.98,414.28L248.51,403.86L252.03,401.23L255.56,413.72L259.09,412.26L262.62,418.07L266.15,409.55L269.68,422.27L273.21,435.88L276.74,438.43L280.27,444.73L283.8,434.02L287.33,440.53L290.85,436.6L294.38,443.86L297.91,451.66L301.44,456.37L304.97,450.88L308.5,455.08L312.03,466.38L315.56,464.19L319.09,462.51L322.62,462.6L326.15,452L329.67,457.97L333.2,461.98L336.73,458.12L340.26,453.54L343.79,458.47L347.32,444.11L350.85,447.76L354.38,438.09L357.91,433.71L361.44,432.47L364.97,408.06L368.49,403.4L372.02,400.34L375.55,392.42L379.08,386.56L382.61,381.86L386.14,372.35L389.67,362.11L393.2,358.67L396.73,367.94L400.26,353.49L403.78,352.7L407.31,351.44L410.84,344.78L414.37,336.37L417.9,333.72L421.43,325.81L424.96,326.77L428.49,324.42L432.02,318.08L435.55,316.23L439.08,310.81L442.6,302.18L446.13,307.73L449.66,298.35L453.19,290.23L456.72,295.13L460.25,292.24L463.78,289.72L467.31,287.16L470.84,289.05L474.37,283.51L477.9,281.94L481.42,282.15L484.95,285.35L488.48,288.38L492.01,286.92L495.54,285.98L499.07,277.88L502.6,280.56L506.13,277.53L509.66,278.24L513.19,277.49L516.72,274.59L520.24,276.91L523.77,272.6L527.3,274.65L530.83,281.06L534.36,282.15L537.89,280.63L541.42,277.44L544.95,282.5L548.48,283.25L552.01,274.48L555.53,276.27L559.06,274.08L562.59,280.19L566.12,276.03L569.65,279.99L573.18,275.47L576.71,287.03L580.24,283.86L583.77,284.16L587.3,281.77L590.83,278.82L594.35,273.77L597.88,274.29L601.41,265.22L604.94,271.88L608.47,278.95L612,271.69" style="fill:none;stroke:#000000;stroke-width:2" />
<path d="M5,146.31L5,319.79L8.5291,323.07L12.058,320.72L15.587,324.14L19.116,332.89L22.645,329.29L26.174,327.03L29.703,323.68L33.233,337.04L36.762,331.11L40.291,335.26L43.82,329.35L47.349,330.53L50.878,340.32L54.407,335.25L57.936,340.93L61.465,339.27L64.994,340.06L68.523,341.24L72.052,338.46L75.581,343.57L79.11,347.94L82.64,342.16L86.169,339.45L89.698,342.72L93.227,341.96L96.756,343.95L100.28,347.58L103.81,343.16L107.34,345.99L110.87,347.59L114.4,344.62L117.93,343.88L121.46,350.35L124.99,348.36L128.52,351.22L132.05,350.54L135.58,347.52L139.1,349.91L142.63,346.44L146.16,347.46L149.69,353.64L153.22,358.46L156.75,350.62L160.28,353.09L163.81,358.18L167.34,357.4L170.87,359.59L174.4,366.54L177.92,359.63L181.45,359.69L184.98,359.52L188.51,362.82L192.04,361.16L195.57,359.75L199.1,362.11L202.63,361.25L206.16,368.58L209.69,364.66L213.22,374.42L216.74,377.35L220.27,372.06L223.8,377.23L227.33,376.28L230.86,381.21L234.39,388.01L237.92,382.08L241.45,390.74L244.98,395.77L248.51,393.53L252.03,395.53L255.56,404.05L259.09,409.97L262.62,410.01L266.15,408.79L269.68,418.71L273.21,415.65L276.74,414.14L280.27,412.47L283.8,406.07L287.33,411.64L290.85,426.14L294.38,415.55L297.91,420.72L301.44,420.57L304.97,428.22L308.5,422L312.03,417.51L315.56,418.89L319.09,425.18L322.62,408.74L326.15,413.53L329.67,413.89L333.2,414.06L336.73,421.14L340.26,414.06L343.79,409.06L347.32,400.82L350.85,391.88L354.38,387.8L357.91,377.74L361.44,375.74L364.97,360.06L368.49,352.05L372.02,343.26L375.55,332.66L379.08,333.18L382.61,322.71L386.14,316.05L389.67,311.02L393.2,309.55L396.73,298.67L400.26,299.36L403.78,290.61L407.31,293.69L410.84,295.28L414.37,289.07L417.9,286.76L421.43,285.11L424.96,281.59L428.49,278.01L432.02,275.47L435.55,270.25L439.08,269.64L442.6,268.34L446.13,269.87L449.66,268.04L453.19,266.29L456.72,257.27L460.25,265.15L463.78,256.73L467.31,259L470.84,254.26L474.37,250.36L477.9,249.92L481.42,243.42L484.95,237.09L488.48,236.24L492.01,235.15L495.54,236.29L499.07,241.45L502.6,242.62L506.13,245.8L509.66,246.05L513.19,251.88L516.72,243.7L520.24,247.29L523.77,248.87L527.3,254.25L530.83,247.92L534.36,246.7L537.89,253.15L541.42,256.48L544.95,256.53L548.48,263.66L552.01,260.93L555.53,257.2L559.06,258.65L562.59,258.03L566.12,256.49L569.65,253.12L573.18,253.87L576.71,252.76L580.24,244.53L583.77,252.32L587.3,243.53L590.83,251.62L594.35,250.82L597.88,249.01L601.41,247.14L604.94,247.35L608.47,248.55L612,240.48L612,146.31Z" style="fill:#FFFFFF" />
<path d="M5,319.79L8.5291,323.07L12.058,320.72L15.587,324.14L19.116,332.89L22.645,329.29L26.174,327.03L29.703,323.68L33.233,337.04L36.762,331.11L40.291,335.26L43.82,329.35L47.349,330.53L50.878,340.32L54.407,335.25L57.936,340.93L61.465,339.27L64.994,340.06L68.523,341.24L72.052,338.46L75.581,343.57L79.11,347.94L82.64,342.16L86.169,339.45L89.698,342.72L93.227,341.96L96.756,343.95L100.28,347.58L103.81,343.16L107.34,345.99L110.87,347.59L114.4,344.62L117.93,343.88L121.46,350.35L124.99,348.36L128.52,351.22L132.05,350.54L135.58,347.52L139.1,349.91L142.63,346.44L146.16,347.46L149.69,353.64L153.22,358.46L156.75,350.62L160.28,353.09L163.81,358.18L167.34,357.4L170.87,359.59L174.4,366.54L177.92,359.63L181.45,359.69L184.98,359.52L188.51,362.82L192.04,361.16L195.57,359.75L199.1,362.11L202.63,361.25L206.16,368.58L209.69,364.66L213.22,374.42L216.74,377.35L220.27,372.06L223.8,377.23L227.33,376.28L230.86,381.21L234.39,388.01L237.92,382.08L241.45,390.74L244.98,395.77L248.51,393.53L252.03,395.53L255.56,404.05L259.09,409.97L262.62,410.01L266.15,408.79L269.68,418.71L273.21,415.65L276.74,414.14L280.27,412.47L283.8,406.07L287.33,411.64L290.85,426.14L294.38,415.55L297.91,420.72L301.44,420.57L304.97,428.22L308.5,422L312.03,417.51L315.56,418.89L319.09,425.18L322.62,408.74L326.15,413.53L329.67,413.89L333.2,414.06L336.73,421.14L340.26,414.06L343.79,409.06L347.32,400.82L350.85,391.88L354.38,387.8L357.91,377.74L361.44,375.74L364.97,360.06L368.49,352.05L372.02,343.26L375.55,332.66L379.08,333.18L382.61,322.71L386.14,316.05L389.67,311.02L393.2,309.55L396.73,298.67L400.26,299.36L403.78,290.61L407.31,293.69L410.84,295.28L414.37,289.07L417.9,286.76L421.43,285.11L424.96,281.59L428.49,278.01L432.02,275.47L435.55,270.25L439.08,269.64L442.6,268.34L446.13,269.87L449.66,268.04L453.19,266.29L456.72,257.27L460.25,265.15L463.78,256.73L467.31,259L470.84,254.26L474.37,250.36L477.9,249.92L481.42,243.42L484.95,237.09L488.48,236.24L492.01,235.15L495.54,236.29L499.07,241.45L502.6,242.62L506.13,245.8L509.66,246.05L513.19,251.88L516.72,243.7L520.24,247.29L523.77,248.87L527.3,254.25L530.83,247.92L534.36,246.7L537.89,253.15L541.42,256.48L544.95,256.53L548.48,263.66L552.01,260.93L555.53,257.2L559.06,258.65L562.59,258.03L566.12,256.49L569.65,253.12L573.18,253.87L576.71,252.76L580.24,244.53L583.77,252.32L587.3,243.53L590.83,251.62L594.35,250.82L597.88,249.01L601.41,247.14L604.94,247.35L608.47,248.55L612,240.48" style="fill:none;stroke:#000000;stroke-width:2" />
<path d="M5,116.06L5,257.04L8.5291,262.92L12.058,267.14L15.587,264.99L19.116,263.47L22.645,268.93L26.174,265.24L29.703,270.88L33.233,270.71L36.762,276.17L40.291,278.28L43.82,278.34L47.349,272.78L50.878,270.71L54.407,270.54L57.936,279.13L61.465,272.49L64.994,271.9L68.523,276.27L72.052,275.73L75.581,282.49L79.11,280.94L82.64,272.48L86.169,274.34L89.698,266.14L93.227,271.35L96.756,269.4L100.28,273.2L103.81,268.66L107.34,269.13L110.87,273.21L114.4,266.17L117.93,266.39L121.46,270.26L124.99,269.29L128.52,274.51L132.05,270.49L135.58,271.13L139.1,268.59L142.63,267.36L146.16,263L149.69,258.92L153.22,261.6L156.75,259.65L160.28,250.68L163.81,253.91L167.34,250.61L170.87,257.05L174.4,261.4L177.92,257.18L181.45,256.25L184.98,263L188.51,261.45L192.04,256.92L195.57,264.75L199.1,266.45L202.63,268.06L206.16,270.18L209.69,263.89L213.22,269.85L216.74,265.22L220.27,269.46L223.8,269.12L227.33,263.16L230.86,268.31L234.39,270.8L237.92,272.59L241.45,281.11L244.98,283.71L248.51,279.9L252.03,284.96L255.56,293.75L259.09,293.16L262.62,291.49L266.15,292.49L269.68,298.63L273.21,296.32L276.74,303.8L280.27,301.57L283.8,312.18L287.33,314.64L290.85,320.46L294.38,326.08L297.91,342.17L301.44,344.7L304.97,354.33L308.5,357.39L312.03,367.74L315.56,373.17L319.09,376.65L322.62,381.79L326.15,388.01L329.67,373.13L333.2,384.65L336.73,380.82L340.26,382.56L343.79,380.84L347.32,377.19L350.85,368.14L354.38,369.53L357.91,365.15L361.44,364.01L364.97,360.65L368.49,356.98L372.02,351.56L375.55,346.63L379.08,341.18L382.61,338.71L386.14,339.58L389.67,328.89L393.2,331.48L396.73,326.34L400.26,322.43L403.78,320.04L407.31,312.6L410.84,315.09L414.37,307.87L417.9,311.17L421.43,302.21L424.96,302.05L428.49,300.34L432.02,296.53L435.55,293.85L439.08,288.99L442.6,286.46L446.13,286.76L449.66,280.41L453.19,278.11L456.72,280.43L460.25,270.1L463.78,271.24L467.31,269.33L470.84,266.98L474.37,262.01L477.9,266.28L481.42,262.65L484.95,252.33L488.48,257.29L492.01,258.78L495.54,253.68L499.07,254.86L502.6,263.09L506.13,262.51L509.66,259.56L513.19,261.75L516.72,262.81L520.24,263.05L523.77,260.33L527.3,252.96L530.83,256.85L534.36,258.71L537.89,260.36L541.42,253.97L544.95,256.28L548.48,257.88L552.01,256.03L555.53,258.76L559.06,262.38L562.59,262.86L566.12,260.79L569.65,255.13L573.18,262.73L576.71,261.68L580.24,264.92L583.77,258.01L587.3,261.85L590.83,266.25L594.35,261.95L597.88,266.31L601.41,268.7L604.94,267.62L608.47,262.62L612,268.4L612,116.06Z" style="fill:#FFFFFF" />
<path d="M5,257.04L8.5291,262.92L12.058,267.14L15.587,264.99L19.116,263.47L22.645,268.93L26.174,265.24L29.703,270.88L33.233,270.71L36.762,276.17L40.291,278.28L43.82,278.34L47.349,272.78L50.878,270.71L54.407,270.54L57.936,279.13L61.465,272.49L64.994,271.9L68.523,276.27L72.052,275.73L75.581,282.49L79.11,280.94L82.64,272.48L86.169,274.34L89.698,266.14L93.227,271.35L96.756,269.4L100.28,273.2L103.81,268.66L107.34,269.13L110.87,273.21L114.4,266.17L117.93,266.39L121.46,270.26L124.99,269.29L128.52,274.51L132.05,270.49L135.58,271.13L139.1,268.59L142.63,267.36L146.16,263L149.69,258.92L153.22,261.6L156.75,259.65L160.28,250.68L163.81,253.91L167.34,250.61L170.87,257.05L174.4,261.4L177.92,257.18L181.45,256.25L184.98,263L188.51,261.45L192.04,256.92L195.57,264.75L199.1,266.45L202.63,268.06L206.16,270.18L209.69,263.89L213.22,269.85L216.74,265.22L220.27,269.46L223.8,269.12L227.33,263.16L230.86,268.31L234.39,270.8L237.92,272.59L241.45,281.11L244.98,283.71L248.51,279.9L252.03,284.96L255.56,293.75L259.09,293.16L262.62,291.49L266.15,292.49L269.68,298.63L273.21,296.32L276.74,303.8L280.27,301.57L283.8,312.18L287.33,314.64L290.85,320.46L294.38,326.08L297.91,342.17L301.44,344.7L304.97,354.33L308.5,357.39L312.03,367.74L315.56,373.17L319.09,376.65L322.62,381.79L326.15,388.01L329.67,373.13L333.2,384.65L336.73,380.82L340.26,382.56L343.79,380.84L347.32,377.19L350.85,368.14L354.38,369.53L357.91,365.15L361.44,364.01L364.97,360.65L368.49,356.98L372.02,351.56L375.55,346.63L379.08,341.18L382.61,338.71L386.14,339.58L389.67,328.89L393.2,331.48L396.73,326.34L400.26,322.43L403.78,320.04L407.31,312.6L410.84,315.09L414.37,307.87L417.9,311.17L421.43,302.21L424.96,302.05L428.49,300.34L432.02,296.53L435.55,293.85L439.08,288.99L442.6,286.46L446.13,286.76L449.66,280.41L453.19,278.11L456.72,280.43L460.25,270.1L463.78,271.24L467.31,269.33L470.84,266.98L474.37,262.01L477.9,266.28L481.42,262.65L484.95,252.33L488.48,257.29L492.01,258.78L495.54,253.68L499.07,254.86L502.6,263.09L506.13,262.51L509.66,259.56L513.19,261.75L516.72,262.81L520.24,263.05L523.77,260.33L527.3,252.96L530.83,256.85L534.36,258.71L537.89,260.36L541.42,253.97L544.95,256.28L548.48,257.88L552.01,256.03L555.53,258.76L559.06,262.38L562.59,262.86L566.12,260.79L569.65,255.13L573.18,262.73L576.71,261.68L580.24,264.92L583.77,258.01L587.3,261.85L590.83,266.25L594.35,261.95L597.88,266.31L601.41,268.7L604.94,267.62L608.47,262.62L612,268.4" style="fill:none;stroke:#000000;stroke-width:2" />
<path d="M5,85.804L5,259.5L8.5291,259L12.058,260.25L15.587,263.57L19.116,262.85L22.645,260.36L26.174,265.83L29.703,263.51L33.233,263.12L36.762,275.11L40.291,263.05L43.82,265.03L47.349,252.23L50.878,260.47L54.407,259.53L57.936,264.36L61.465,268.47L64.994,267.45L68.523,269.23L72.052,270.23L75.581,266.9L79.11,271.42L82.64,268.14L86.169,268.52L89.698,267.39L93.227,261.24L96.756,267.5L100.28,272.52L103.81,275.73L107.34,277.31L110.87,274.2L114.4,264.61L117.93,277.39L121.46,276.76L124.99,271.9L128.52,278.21L132.05,281.51L135.58,283.38L139.1,272.35L142.63,279.12L146.16,280.67L149.69,284.01L153.22,282.84L156.75,279.93L160.28,291.76L163.81,286.23L167.34,281.12L170.87,289.55L174.4,294.41L177.92,288.1L181.45,286L184.98,287.67L188.51,287.71L192.04,278.68L195.57,275.75L199.1,276.46L202.63,273.21L206.16,287.19L209.69,290.56L213.22,300.68L216.74,300.99L220.27,305.51L223.8,306.66L227.33,303.74L230.86,304.97L234.39,307.34L237.92,305.91L241.45,317.69L244.98,325.99L248.51,318.53L252.03,326.53L255.56,326.22L259.09,329.36L262.62,330.08L266.15,333.59L269.68,334.7L273.21,329.97L276.74,339.18L280.27,332.75L283.8,336.84L287.33,339.32L290.85,335.63L294.38,345.88L297.91,344.96L301.44,337.31L304.97,338.8L308.5,347.34L312.03,346.2L315.56,346.05L319.09,343.51L322.62,350.22L326.15,344.58L329.67,341.51L333.2,345.79L336.73,340.37L340.26,337.65L343.79,332.62L347.32,337.68L350.85,330.09L354.38,322.56L357.91,319.43L361.44,305.05L364.97,298.54L368.49,292.77L372.02,286.5L375.55,273.61L379.08,273.3L382.61,267.64L386.14,260.55L389.67,252.06L393.2,244.8L396.73,243.47L400.26,241.45L403.78,235.95L407.31,233.83L410.84,227.72L414.37,227.55L417.9,223.18L421.43,217.31L424.96,219.62L428.49,217.9L432.02,214.13L435.55,213.38L439.08,202.6L442.6,204.82L446.13,204.89L449.66,204.49L453.19,197.87L456.72,200.49L460.25,199.88L463.78,196.81L467.31,190.52L470.84,191.26L474.37,191.26L477.9,179.96L481.42,187.35L484.95,186.56L488.48,182.98L492.01,190.69L495.54,178.68L499.07,186.49L502.6,181.53L506.13,183.96L509.66,184.78L513.19,187.15L516.72,192.26L520.24,192.99L523.77,195.46L527.3,191.11L530.83,188.76L534.36,193.24L537.89,194.73L541.42,200.56L544.95,197.66L548.48,194.11L552.01,193.27L555.53,194.46L559.06,193.07L562.59,197.28L566.12,195.73L569.65,193.28L573.18,193.96L576.71,200.76L580.24,193.81L583.77,195.67L587.3,201.07L590.83,198.12L594.35,204.74L597.88,203.71L601.41,202.66L604.94,209.43L608.47,199.41L612,208.28L612,85.804Z" style="fill:#FFFFFF" />
<path d="M5,259.5L8.5291,259L12.058,260.25L15.587,263.57L19.116,262.85L22.645,260.36L26.174,265.83L29.703,263.51L33.233,263.12L36.762,275.11L40.291,263.05L43.82,265.03L47.349,252.23L50.878,260.47L54.407,259.53L57.936,264.36L61.465,268.47L64.994,267.45L68.523,269.23L72.052,270.23L75.581,266.9L79.11,271.42L82.64,268.14L86.169,268.52L89.698,267.39L93.227,261.24L96.756,267.5L100.28,272.52L103.81,275.73L107.34,277.31L110.87,274.2L114.4,264.61L117.93,277.39L121.46,276.76L124.99,271.9L128.52,278.21L132.05,281.51L135.58,283.38L139.1,272.35L142.63,279.12L146.16,280.67L149.69,284.01L153.22,282.84L156.75,279.93L160.28,291.76L163.81,286.23L167.34,281.12L170.87,289.55L174.4,294.41L177.92,288.1L181.45,286L184.98,287.67L188.51,287.71L192.04,278.68L195.57,275.75L199.1,276.46L202.63,273.21L206.16,287.19L209.69,290.56L213.22,300.68L216.74,300.99L220.27,305.51L223.8,306.66L227.33,303.74L230.86,304.97L234.39,307.34L237.92,305.91L241.45,317.69L244.98,325.99L248.51,318.53L252.03,326.53L255.56,326.22L259.09,329.36L262.62,330.08L266.15,333.59L269.68,334.7L273.21,329.97L276.74,339.18L280.27,332.75L283.8,336.84L287.33,339.32L290.85,335.63L294.38,345.88L297.91,344.96L301.44,337.31L304.97,338.8L308.5,347.34L312.03,346.2L315.56,346.05L319.09,343.51L322.62,350.22L326.15,344.58L329.67,341.51L333.2,345.79L336.73,340.37L340.26,337.65L343.79,332.62L347.32,337.68L350.85,330.09L354.38,322.56L357.91,319.43L361.44,305.05L364.97,298.54L368.49,292.77L372.02,286.5L375.55,273.61L379.08,273.3L382.61,267.64L386.14,260.55L389.67,252.06L393.2,244.8L396.73,243.47L400.26,241.45L403.78,235.95L407.31,233.83L410.84,227.72L414.37,227.55L417.9,223.18L421.43,217.31L424.96,219.62L428.49,217.9L432.02,214.13L435.55,213.38L439.08,202.6L442.6,204.82L446.13,204.89L449.66,204.49L453.19,197.87L456.72,200.49L460.25,199.88L463.78,196.81L467.31,190.52L470.84,191.26L474.37,191.26L477.9,179.96L481.42,187.35L484.95,186.56L488.48,182.98L492.01,190.69L495.54,178.68L499.07,186.49L502.6,181.53L506.13,183.96L509.66,184.78L513.19,187.15L516.72,192.26L520.24,192.99L523.77,195.46L527.3,191.11L530.83,188.76L534.36,193.24L537.89,194.73L541.42,200.56L544.95,197.66L548.48,194.11L552.01,193.27L555.53,194.46L559.06,193.07L562.59,197.28L566.12,195.73L569.65,193.28L573.18,193.96L576.71,200.76L580.24,193.81L583.77,195.67L587.3,201.07L590.83,198.12L594.35,204.74L597.88,203.71L601.41,202.66L604.94,209.43L608.47,199.41L612,208.28" style="fill:none;stroke:#000000;stroke-width:2" />
<path d="M5,55.549L5,212.84L8.5291,213.99L12.058,213.5L15.587,214.19L19.116,203.3L22.645,216.51L26.174,212.76L29.703,215.35L33.233,225.86L36.762,216.36L40.291,222.49L43.82,225.62L47.349,232.56L50.878,233.39L54.407,225.88L57.936,231.9L61.465,233.18L64.994,224.75L68.523,221.81L72.052,217.81L75.581,226.16L79.11,220.94L82.64,217.13L86.169,222.4L89.698,218.39L93.227,226.34L96.756,230.2L100.28,230.81L103.81,230.93L107.34,228.89L110.87,232.09L114.4,230.19L117.93,223.97L121.46,226.85L124.99,235.52L128.52,233.57L132.05,244L135.58,243.68L139.1,246.34L142.63,249.2L146.16,248.68L149.69,240.11L153.22,240.91L156.75,253.89L160.28,246.9L163.81,246.07L167.34,244.23L170.87,253.08L174.4,255.62L177.92,250.25L181.45,259.1L184.98,262.3L188.51,264.28L192.04,267.36L195.57,256.57L199.1,258.42L202.63,262.94L206.16,271.43L209.69,277.7L213.22,276.13L216.74,274.09L220.27,268.87L223.8,258.59L227.33,258.64L230.86,268.64L234.39,276.91L237.92,275.31L241.45,268.93L244.98,276.79L248.51,278.98L252.03,281.78L255.56,282.53L259.09,284.1L262.62,282.04L266.15,285.98L269.68,295.57L273.21,295.61L276.74,300.78L280.27,305.27L283.8,301.31L287.33,299.82L290.85,300.71L294.38,301.62L297.91,303.12L301.44,297.74L304.97,301.05L308.5,296.48L312.03,293.9L315.56,288.85L319.09,285.17L322.62,285.08L326.15,277.52L329.67,273.2L333.2,269.88L336.73,268.18L340.26,259.8L343.79,253.12L347.32,253.96L350.85,247.36L354.38,248.11L357.91,236.59L361.44,228.28L364.97,226.63L368.49,221.85L372.02,217.46L375.55,216.03L379.08,213.79L382.61,207.59L386.14,206.47L389.67,204.14L393.2,198.85L396.73,194.43L400.26,189.51L403.78,194.95L407.31,189.14L410.84,183.37L414.37,185.32L417.9,182.73L421.43,176.3L424.96,175.42L428.49,176.49L432.02,175.99L435.55,172.01L439.08,173.82L442.6,172.12L446.13,169.5L449.66,171.34L453.19,171.08L456.72,168.86L460.25,165.79L463.78,164.03L467.31,160.9L470.84,162.87L474.37,159.42L477.9,157.92L481.42,154.06L484.95,153.14L488.48,160.92L492.01,153.93L495.54,155.56L499.07,161.02L502.6,159.09L506.13,159.48L509.66,156.64L513.19,154.56L516.72,164.53L520.24,159.08L523.77,159.16L527.3,160.32L530.83,157.45L534.36,159.7L537.89,159.43L541.42,159.88L544.95,160.61L548.48,163.58L552.01,160.75L555.53,159.18L559.06,163.95L562.59,162.37L566.12,162.79L569.65,163.64L573.18,159.64L576.71,159.64L580.24,156.35L583.77,159.15L587.3,163.61L590.83,166.53L594.35,164.87L597.88,165.24L601.41,168L604.94,168.52L608.47,164.64L612,160.89L612,55.549Z" style="fill:#FFFFFF" />
<path d="M5,212.84L8.5291,213.99L12.058,213.5L15.587,214.19L19.116,203.3L22.645,216.51L26.174,212.76L29.703,215.35L33.233,225.86L36.762,216.36L40.291,222.49L43.82,225.62L47.349,232.56L50.878,233.39L54.407,225.88L57.936,231.9L61.465,233.18L64.994,224.75L68.523,221.81L72.052,217.81L75.581,226.16L79.11,220.94L82.64,217.13L86.169,222.4L89.698,218.39L93.227,226.34L96.756,230.2L100.28,230.81L103.81,230.93L107.34,228.89L110.87,232.09L114.4,230.19L117.93,223.97L121.46,226.85L124.99,235.52L128.52,233.57L132.05,244L135.58,243.68L139.1,246.34L142.63,249.2L146.16,248.68L149.69,240.11L153.22,240.91L156.75,253.89L160.28,246.9L163.81,246.07L167.34,244.23L170.87,253.08L174.4,255.62L177.92,250.25L181.45,259.1L184.98,262.3L188.51,264.28L192.04,267.36L195.57,256.57L199.1,258.42L202.63,262.94L206.16,271.43L209.69,277.7L213.22,276.13L216.74,274.09L220.27,268.87L223.8,258.59L227.33,258.64L230.86,268.64L234.39,276.91L237.92,275.31L241.45,268.93L244.98,276.79L248.51,278.98L252.03,281.78L255.56,282.53L259.09,284.1L262.62,282.04L266.15,285.98L269.68,295.57L273.21,295.61L276.74,300.78L280.27,305.27L283.8,301.31L287.33,299.82L290.85,300.71L294.38,301.62L297.91,303.12L301.44,297.74L304.97,301.05L308.5,296.48L312.03,293.9L315.56,288.85L319.09,285.17L322.62,285.08L326.15,277.52L329.67,273.2L333.2,269.88L336.73,268.18L340.26,259.8L343.79,253.12L347.32,253.96L350.85,247.36L354.38,248.11L357.91,236.59L361.44,228.28L364.97,226.63L368.49,221.85L372.02,217.46L375.55,216.03L379.08,213.79L382.61,207.59L386.14,206.47L389.67,204.14L393.2,198.85L396.73,194.43L400.26,189.51L403.78,194.95L407.31,189.14L410.84,183.37L414.37,185.32L417.9,182.73L421.43,176.3L424.96,175.42L428.49,176.49L432.02,175.99L435.55,172.01L439.08,173.82L442.6,172.12L446.13,169.5L449.66,171.34L453.19,171.08L456.72,168.86L460.25,165.79L463.78,164.03L467.31,160.9L470.84,162.87L474.37,159.42L477.9,157.92L481.42,154.06L484.95,153.14L488.48,160.92L492.01,153.93L495.54,155.56L499.07,161.02L502.6,159.09L506.13,159.48L509.66,156.64L513.19,154.56L516.72,164.53L520.24,159.08L523.77,159.16L527.3,160.32L530.83,157.45L534.36,159.7L537.89,159.43L541.42,159.88L544.95,160.61L548.48,163.58L552.01,160.75L555.53,159.18L559.06,163.95L562.59,162.37L566.12,162.79L569.65,163.64L573.18,159.64L576.71,159.64L580.24,156.35L583.77,159.15L587.3,163.61L590.83,166.53L594.35,164.87L597.88,165.24L601.41,168L604.94,168.52L608.47,164.64L612,160.89" style="fill:none;stroke:#000000;stroke-width:2" />
</g>
</svg>
