<?xml version="1.0"?>
<!-- Generated by SVGo and Plotinum VG -->
<svg width="612pt" height="792pt" viewBox="0 0 612 792"
	xmlns="http://www.w3.org/2000/svg"
	xmlns:xlink="http://www.w3.org/1999/xlink">
<g transform="scale(1, -1) translate(0, -792)">
<path d="M0,0L612,0L612,792L0,792Z" style="fill:#FFFFFF" />
<text x="239.48" y="-5.5195" transform="scale(1, -1)"
	style="font-family:Helvetica;font-weight:normal;font-style:normal;font-size:18px">Frequency (GHz)</text>
<text x="3.5058" y="-25.016" transform="scale(1, -1)"
	style="font-family:Helvetica;font-weight:normal;font-style:normal;font-size:16px">2.36</text>
<text x="285.19" y="-25.016" transform="scale(1, -1)"
	style="font-family:Helvetica;font-weight:normal;font-style:normal;font-size:16px">2.52</text>
<text x="566.87" y="-25.016" transform="scale(1, -1)"
	style="font-family:Helvetica;font-weight:normal;font-style:normal;font-size:16px">2.68</text>
<path d="M19.076,53.984L19.076,45.984" style="fill:none;stroke:#000000;stroke-width:1.5" />
<path d="M300.76,53.984L300.76,45.984" style="fill:none;stroke:#000000;stroke-width:1.5" />
<path d="M582.44,53.984L582.44,45.984" style="fill:none;stroke:#000000;stroke-width:1.5" />
<path d="M159.92,49.984L159.92,45.984" style="fill:none;stroke:#000000;stroke-width:1.5" />
<path d="M441.6,49.984L441.6,45.984" style="fill:none;stroke:#000000;stroke-width:1.5" />
<path d="M5,45.984L612,45.984" style="fill:none;stroke:#000000;stroke-width:1.5" />
<path d="M5,143.92L5,378.1L8.5291,378.08L12.058,379.48L15.587,375.63L19.116,380.11L22.645,391.71L26.174,388.23L29.703,385.78L33.233,388.93L36.762,392.18L40.291,392.04L43.82,393.62L47.349,397.24L50.878,395.88L54.407,402.56L57.936,403.05L61.465,396.96L64.994,408.21L68.523,409.85L72.052,407.81L75.581,417.79L79.11,417.22L82.64,422.96L86.169,424.07L89.698,427.07L93.227,428.59L96.756,426L100.28,425.52L103.81,426.93L107.34,433.61L110.87,434.44L114.4,440.19L117.93,447.38L121.46,449.02L124.99,448.33L128.52,450.33L132.05,454.5L135.58,455.06L139.1,458.21L142.63,453.96L146.16,450.95L149.69,458.17L153.22,460.34L156.75,469.08L160.28,479.64L163.81,482.18L167.34,480.38L170.87,484.22L174.4,488.02L177.92,492.78L181.45,496.42L184.98,499.11L188.51,503.14L192.04,502.09L195.57,516.18L199.1,519.25L202.63,525.92L206.16,531.65L209.69,528.06L213.22,534.74L216.74,551.98L220.27,551.77L223.8,560.15L227.33,568.82L230.86,581.26L234.39,579.82L237.92,590.91L241.45,599.19L244.98,604.42L248.51,610.3L252.03,620.47L255.56,629.61L259.09,635.13L262.62,646.78L266.15,651.55L269.68,657.64L273.21,663.78L276.74,678.51L280.27,683.26L283.8,683.81L287.33,688.25L290.85,705.8L294.38,712.95L297.91,714.35L301.44,717.15L304.97,727.31L308.5,730.93L312.03,732.65L315.56,733.08L319.09,731.72L322.62,728.41L326.15,722.55L329.67,718.24L333.2,715.71L336.73,698.76L340.26,697.38L343.79,674.89L347.32,650.11L350.85,642.26L354.38,616.44L357.91,603.97L361.44,580.25L364.97,561.13L368.49,546.69L372.02,528.7L375.55,503.16L379.08,495.6L382.61,471.79L386.14,468.23L389.67,439.66L393.2,425.1L396.73,403.18L400.26,387.64L403.78,364.9L407.31,362.31L410.84,352.52L414.37,349.44L417.9,347.49L421.43,325.72L424.96,328.63L428.49,312.78L432.02,306.56L435.55,301.65L439.08,295.38L442.6,280.04L446.13,278.55L449.66,269.29L453.19,264.89L456.72,264.45L460.25,257.52L463.78,259.66L467.31,245.02L470.84,247.08L474.37,240.58L477.9,235.45L481.42,221.36L484.95,214.83L488.48,207.84L492.01,211.12L495.54,205.28L499.07,193.33L502.6,191.5L506.13,185.62L509.66,183.82L513.19,185.11L516.72,192.52L520.24,192.65L523.77,190.33L527.3,198.77L530.83,194.51L534.36,193.11L537.89,185.88L541.42,186.07L544.95,192.31L548.48,197.96L552.01,200.1L555.53,198.93L559.06,200.91L562.59,197.07L566.12,201.92L569.65,194.5L573.18,186.97L576.71,183.85L580.24,178.4L583.77,178.19L587.3,172.07L590.83,175.39L594.35,171.83L597.88,177.94L601.41,177.62L604.94,174.62L608.47,172.74L612,167.23L612,143.92Z" style="fill:#FFFFFF" />
<path d="M5,378.1L8.5291,378.08L12.058,379.48L15.587,375.63L19.116,380.11L22.645,391.71L26.174,388.23L29.703,385.78L33.233,388.93L36.762,392.18L40.291,392.04L43.82,393.62L47.349,397.24L50.878,395.88L54.407,402.56L57.936,403.05L61.465,396.96L64.994,408.21L68.523,409.85L72.052,407.81L75.581,417.79L79.11,417.22L82.64,422.96L86.169,424.07L89.698,427.07L93.227,428.59L96.756,426L100.28,425.52L103.81,426.93L107.34,433.61L110.87,434.44L114.4,440.19L117.93,447.38L121.46,449.02L124.99,448.33L128.52,450.33L132.05,454.5L135.58,455.06L139.1,458.21L142.63,453.96L146.16,450.95L149.69,458.17L153.22,460.34L156.75,469.08L160.28,479.64L163.81,482.18L167.34,480.38L170.87,484.22L174.4,488.02L177.92,492.78L181.45,496.42L184.98,499.11L188.51,503.14L192.04,502.09L195.57,516.18L199.1,519.25L202.63,525.92L206.16,531.65L209.69,528.06L213.22,534.74L216.74,551.98L220.27,551.77L223.8,560.15L227.33,568.82L230.86,581.26L234.39,579.82L237.92,590.91L241.45,599.19L244.98,604.42L248.51,610.3L252.03,620.47L255.56,629.61L259.09,635.13L262.62,646.78L266.15,651.55L269.68,657.64L273.21,663.78L276.74,678.51L280.27,683.26L283.8,683.81L287.33,688.25L290.85,705.8L294.38,712.95L297.91,714.35L301.44,717.15L304.97,727.31L308.5,730.93L312.03,732.65L315.56,733.08L319.09,731.72L322.62,728.41L326.15,722.55L329.67,718.24L333.2,715.71L336.73,698.76L340.26,697.38L343.79,674.89L347.32,650.11L350.85,642.26L354.38,616.44L357.91,603.97L361.44,580.25L364.97,561.13L368.49,546.69L372.02,528.7L375.55,503.16L379.08,495.6L382.61,471.79L386.14,468.23L389.67,439.66L393.2,425.1L396.73,403.18L400.26,387.64L403.78,364.9L407.31,362.31L410.84,352.52L414.37,349.44L417.9,347.49L421.43,325.72L424.96,328.63L428.49,312.78L432.02,306.56L435.55,301.65L439.08,295.38L442.6,280.04L446.13,278.55L449.66,269.29L453.19,264.89L456.72,264.45L460.25,257.52L463.78,259.66L467.31,245.02L470.84,247.08L474.37,240.58L477.9,235.45L481.42,221.36L484.95,214.83L488.48,207.84L492.01,211.12L495.54,205.28L499.07,193.33L502.6,191.5L506.13,185.62L509.66,183.82L513.19,185.11L516.72,192.52L520.24,192.65L523.77,190.33L527.3,198.77L530.83,194.51L534.36,193.11L537.89,185.88L541.42,186.07L544.95,192.31L548.48,197.96L552.01,200.1L555.53,198.93L559.06,200.91L562.59,197.07L566.12,201.92L569.65,194.5L573.18,186.97L576.71,183.85L580.24,178.4L583.77,178.19L587.3,172.07L590.83,175.39L594.35,171.83L597.88,177.94L601.41,177.62L604.94,174.62L608.47,172.74L612,167.23" style="fill:none;stroke:#000000;stroke-width:2" />
<path d="M5,55.549L5,152.09L8.5291,154.94L12.058,147.97L15.587,149.12L19.116,151.39L22.645,145.16L26.174,140.76L29.703,144.57L33.233,146.58L36.762,140.13L40.291,149.76L43.82,145.02L47.349,143.21L50.878,135.27L54.407,142.44L57.936,142.64L61.465,146.28L64.994,151.39L68.523,144.5L72.052,142.49L75.581,144.17L79.11,141.35L82.64,145.13L86.169,138.82L89.698,145.09L93.227,135.71L96.756,142.13L100.28,141.9L103.81,140.71L107.34,140.76L110.87,140.89L114.4,141.65L117.93,145.07L121.46,132L124.99,138.68L128.52,139.35L132.05,144.88L135.58,143.87L139.1,141.87L142.63,139.86L146.16,140.6L149.69,136.71L153.22,131.65L156.75,121.62L160.28,133.75L163.81,126.1L167.34,138.79L170.87,134.61L174.4,135.34L177.92,140.78L181.45,136.6L184.98,143.61L188.51,139.54L192.04,136.15L195.57,142.9L199.1,143.09L202.63,144.75L206.16,147.68L209.69,157.86L213.22,159.64L216.74,161.5L220.27,168.72L223.8,170.71L227.33,180.25L230.86,184.07L234.39,189.81L237.92,199.89L241.45,213.75L244.98,221.64L248.51,232.1L252.03,232.57L255.56,232.29L259.09,237.15L262.62,247.68L266.15,256.33L269.68,259.31L273.21,268.35L276.74,281.23L280.27,287.5L283.8,305.23L287.33,325.78L290.85,332.34L294.38,342.08L297.91,357.64L301.44,369.3L304.97,383.17L308.5,389.88L312.03,398.78L315.56,418.91L319.09,425.74L322.62,433.75L326.15,434.41L329.67,447.42L333.2,447.47L336.73,449.43L340.26,454.51L343.79,456.99L347.32,454.4L350.85,449.37L354.38,442.99L357.91,430.82L361.44,430.27L364.97,425.13L368.49,415.97L372.02,410.42L375.55,404.65L379.08,398.25L382.61,381.68L386.14,378.87L389.67,369.11L393.2,369.04L396.73,361.13L400.26,355.22L403.78,350.64L407.31,342.05L410.84,336.18L414.37,333.88L417.9,323.94L421.43,324.15L424.96,317.08L428.49,311.7L432.02,311.25L435.55,302.28L439.08,293.34L442.6,288.52L446.13,280.71L449.66,278.28L453.19,275.55L456.72,268.1L460.25,254.97L463.78,249.13L467.31,252.47L470.84,249.39L474.37,244.29L477.9,239.75L481.42,234.69L484.95,231.37L488.48,234.71L492.01,234.92L495.54,234.93L499.07,231.57L502.6,231.63L506.13,240.19L509.66,230.92L513.19,232.43L516.72,229.24L520.24,226.47L523.77,219.57L527.3,223.92L530.83,226.09L534.36,216.76L537.89,224.96L541.42,227.82L544.95,234.34L548.48,228.15L552.01,235.13L555.53,236.2L559.06,237.09L562.59,238.42L566.12,237.61L569.65,233.76L573.18,239.34L576.71,239.24L580.24,241.44L583.77,244.71L587.3,236.65L590.83,234.06L594.35,231.65L597.88,222.32L601.41,220.61L604.94,224.87L608.47,222.22L612,217.4L612,55.549Z" style="fill:#FFFFFF" />
<path d="M5,152.09L8.5291,154.94L12.058,147.97L15.587,149.12L19.116,151.39L22.645,145.16L26.174,140.76L29.703,144.57L33.233,146.58L36.762,140.13L40.291,149.76L43.82,145.02L47.349,143.21L50.878,135.27L54.407,142.44L57.936,142.64L61.465,146.28L64.994,151.39L68.523,144.5L72.052,142.49L75.581,144.17L79.11,141.35L82.64,145.13L86.169,138.82L89.698,145.09L93.227,135.71L96.756,142.13L100.28,141.9L103.81,140.71L107.34,140.76L110.87,140.89L114.4,141.65L117.93,145.07L121.46,132L124.99,138.68L128.52,139.35L132.05,144.88L135.58,143.87L139.1,141.87L142.63,139.86L146.16,140.6L149.69,136.71L153.22,131.65L156.75,121.62L160.28,133.75L163.81,126.1L167.34,138.79L170.87,134.61L174.4,135.34L177.92,140.78L181.45,136.6L184.98,143.61L188.51,139.54L192.04,136.15L195.57,142.9L199.1,143.09L202.63,144.75L206.16,147.68L209.69,157.86L213.22,159.64L216.74,161.5L220.27,168.72L223.8,170.71L227.33,180.25L230.86,184.07L234.39,189.81L237.92,199.89L241.45,213.75L244.98,221.64L248.51,232.1L252.03,232.57L255.56,232.29L259.09,237.15L262.62,247.68L266.15,256.33L269.68,259.31L273.21,268.35L276.74,281.23L280.27,287.5L283.8,305.23L287.33,325.78L290.85,332.34L294.38,342.08L297.91,357.64L301.44,369.3L304.97,383.17L308.5,389.88L312.03,398.78L315.56,418.91L319.09,425.74L322.62,433.75L326.15,434.41L329.67,447.42L333.2,447.47L336.73,449.43L340.26,454.51L343.79,456.99L347.32,454.4L350.85,449.37L354.38,442.99L357.91,430.82L361.44,430.27L364.97,425.13L368.49,415.97L372.02,410.42L375.55,404.65L379.08,398.25L382.61,381.68L386.14,378.87L389.67,369.11L393.2,369.04L396.73,361.13L400.26,355.22L403.78,350.64L407.31,342.05L410.84,336.18L414.37,333.88L417.9,323.94L421.43,324.15L424.96,317.08L428.49,311.7L432.02,311.25L435.55,302.28L439.08,293.34L442.6,288.52L446.13,280.71L449.66,278.28L453.19,275.55L456.72,268.1L460.25,254.97L463.78,249.13L467.31,252.47L470.84,249.39L474.37,244.29L477.9,239.75L481.42,234.69L484.95,231.37L488.48,234.71L492.01,234.92L495.54,234.93L499.07,231.57L502.6,231.63L506.13,240.19L509.66,230.92L513.19,232.43L516.72,229.24L520.24,226.47L523.77,219.57L527.3,223.92L530.83,226.09L534.36,216.76L537.89,224.96L541.42,227.82L544.95,234.34L548.48,228.15L552.01,235.13L555.53,236.2L559.06,237.09L562.59,238.42L566.12,237.61L569.65,233.76L573.18,239.34L576.71,239.24L580.24,241.44L583.77,244.71L587.3,236.65L590.83,234.06L594.35,231.65L597.88,222.32L601.41,220.61L604.94,224.87L608.47,222.22L612,217.4" style="fill:none;stroke:#000000;stroke-width:2" />
</g>
</svg>
