<?xml version="1.0"?>
<!-- Generated by SVGo and Plotinum VG -->
<svg width="1296pt" height="1080pt" viewBox="0 0 1296 1080"
	xmlns="http://www.w3.org/2000/svg"
	xmlns:xlink="http://www.w3.org/1999/xlink">
<g transform="scale(1, -1) translate(0, -1080)">
<path d="M0,0L1296,0L1296,1080L0,1080Z" style="fill-opacity:0" />
<text x="356.36" y="-1047.6" transform="scale(1, -1)"
	style="font-family:Liberation Sans;font-variant:normal;font-weight:normal;font-style:normal;font-size:40px">CoBS Measurement: 10 μm CS2</text>
<text x="509.63" y="-10.732" transform="scale(1, -1)"
	style="font-family:Liberation Sans;font-variant:normal;font-weight:normal;font-style:normal;font-size:35px">Frequency (Ω/2π) (GHz)</text>
<text x="234.74" y="-63.857" transform="scale(1, -1)"
	style="font-family:Liberation Serif;font-variant:normal;font-weight:normal;font-style:normal;font-size:30px">2.40</text>
<text x="416.19" y="-63.857" transform="scale(1, -1)"
	style="font-family:Liberation Serif;font-variant:normal;font-weight:normal;font-style:normal;font-size:30px">2.45</text>
<text x="597.64" y="-63.857" transform="scale(1, -1)"
	style="font-family:Liberation Serif;font-variant:normal;font-weight:normal;font-style:normal;font-size:30px">2.50</text>
<text x="779.09" y="-63.857" transform="scale(1, -1)"
	style="font-family:Liberation Serif;font-variant:normal;font-weight:normal;font-style:normal;font-size:30px">2.55</text>
<text x="960.54" y="-63.857" transform="scale(1, -1)"
	style="font-family:Liberation Serif;font-variant:normal;font-weight:normal;font-style:normal;font-size:30px">2.60</text>
<text x="1142" y="-63.857" transform="scale(1, -1)"
	style="font-family:Liberation Serif;font-variant:normal;font-weight:normal;font-style:normal;font-size:30px">2.65</text>
<path d="M112.2,87.324L1288,87.324" style="fill:none;stroke:#000000;stroke-width:2.5" />
<g transform="rotate(90)">
<text x="442.59" y="28.369" transform="scale(1, -1)"
	style="font-family:Liberation Sans;font-variant:normal;font-weight:normal;font-style:normal;font-size:35px">Arbitrary Units</text>
</g>
<text x="61.519" y="-80.266" transform="scale(1, -1)"
	style="font-family:Liberation Sans;font-variant:normal;font-weight:normal;font-style:normal;font-size:30px">0.2</text>
<text x="61.519" y="-287.21" transform="scale(1, -1)"
	style="font-family:Liberation Sans;font-variant:normal;font-weight:normal;font-style:normal;font-size:30px">0.4</text>
<text x="61.519" y="-494.15" transform="scale(1, -1)"
	style="font-family:Liberation Sans;font-variant:normal;font-weight:normal;font-style:normal;font-size:30px">0.6</text>
<text x="61.519" y="-701.09" transform="scale(1, -1)"
	style="font-family:Liberation Sans;font-variant:normal;font-weight:normal;font-style:normal;font-size:30px">0.8</text>
<text x="61.519" y="-908.03" transform="scale(1, -1)"
	style="font-family:Liberation Sans;font-variant:normal;font-weight:normal;font-style:normal;font-size:30px">1.0</text>
<path d="M111.56,87.824L111.56,1019.1" style="fill:none;stroke:#000000;stroke-width:2.5" />
<path d="M115.83,87.824L115.83,92.824" style="fill:none;stroke:#000000;stroke-width:2.5" />
<path d="M152.12,87.824L152.12,92.824" style="fill:none;stroke:#000000;stroke-width:2.5" />
<path d="M188.41,87.824L188.41,92.824" style="fill:none;stroke:#000000;stroke-width:2.5" />
<path d="M224.7,87.824L224.7,92.824" style="fill:none;stroke:#000000;stroke-width:2.5" />
<path d="M260.99,87.824L260.99,97.824" style="fill:none;stroke:#000000;stroke-width:2.5" />
<text x="231.43" y="-53.424" transform="scale(1, -1)"
	style="font-family:Liberation Sans;font-variant:normal;font-weight:normal;font-style:normal;font-size:30px">2.40</text>
<path d="M297.28,87.824L297.28,92.824" style="fill:none;stroke:#000000;stroke-width:2.5" />
<path d="M333.57,87.824L333.57,92.824" style="fill:none;stroke:#000000;stroke-width:2.5" />
<path d="M369.86,87.824L369.86,92.824" style="fill:none;stroke:#000000;stroke-width:2.5" />
<path d="M406.15,87.824L406.15,92.824" style="fill:none;stroke:#000000;stroke-width:2.5" />
<path d="M442.44,87.824L442.44,97.824" style="fill:none;stroke:#000000;stroke-width:2.5" />
<text x="412.88" y="-53.424" transform="scale(1, -1)"
	style="font-family:Liberation Sans;font-variant:normal;font-weight:normal;font-style:normal;font-size:30px">2.45</text>
<path d="M478.73,87.824L478.73,92.824" style="fill:none;stroke:#000000;stroke-width:2.5" />
<path d="M515.02,87.824L515.02,92.824" style="fill:none;stroke:#000000;stroke-width:2.5" />
<path d="M551.31,87.824L551.31,92.824" style="fill:none;stroke:#000000;stroke-width:2.5" />
<path d="M587.6,87.824L587.6,92.824" style="fill:none;stroke:#000000;stroke-width:2.5" />
<path d="M623.89,87.824L623.89,97.824" style="fill:none;stroke:#000000;stroke-width:2.5" />
<text x="594.33" y="-53.424" transform="scale(1, -1)"
	style="font-family:Liberation Sans;font-variant:normal;font-weight:normal;font-style:normal;font-size:30px">2.50</text>
<path d="M660.18,87.824L660.18,92.824" style="fill:none;stroke:#000000;stroke-width:2.5" />
<path d="M696.47,87.824L696.47,92.824" style="fill:none;stroke:#000000;stroke-width:2.5" />
<path d="M732.76,87.824L732.76,92.824" style="fill:none;stroke:#000000;stroke-width:2.5" />
<path d="M769.05,87.824L769.05,92.824" style="fill:none;stroke:#000000;stroke-width:2.5" />
<path d="M805.34,87.824L805.34,97.824" style="fill:none;stroke:#000000;stroke-width:2.5" />
<text x="775.78" y="-53.424" transform="scale(1, -1)"
	style="font-family:Liberation Sans;font-variant:normal;font-weight:normal;font-style:normal;font-size:30px">2.55</text>
<path d="M841.63,87.824L841.63,92.824" style="fill:none;stroke:#000000;stroke-width:2.5" />
<path d="M877.92,87.824L877.92,92.824" style="fill:none;stroke:#000000;stroke-width:2.5" />
<path d="M914.21,87.824L914.21,92.824" style="fill:none;stroke:#000000;stroke-width:2.5" />
<path d="M950.5,87.824L950.5,92.824" style="fill:none;stroke:#000000;stroke-width:2.5" />
<path d="M986.79,87.824L986.79,97.824" style="fill:none;stroke:#000000;stroke-width:2.5" />
<text x="957.24" y="-53.424" transform="scale(1, -1)"
	style="font-family:Liberation Sans;font-variant:normal;font-weight:normal;font-style:normal;font-size:30px">2.60</text>
<path d="M1023.1,87.824L1023.1,92.824" style="fill:none;stroke:#000000;stroke-width:2.5" />
<path d="M1059.4,87.824L1059.4,92.824" style="fill:none;stroke:#000000;stroke-width:2.5" />
<path d="M1095.7,87.824L1095.7,92.824" style="fill:none;stroke:#000000;stroke-width:2.5" />
<path d="M1132,87.824L1132,92.824" style="fill:none;stroke:#000000;stroke-width:2.5" />
<path d="M1168.2,87.824L1168.2,97.824" style="fill:none;stroke:#000000;stroke-width:2.5" />
<text x="1138.7" y="-53.424" transform="scale(1, -1)"
	style="font-family:Liberation Sans;font-variant:normal;font-weight:normal;font-style:normal;font-size:30px">2.65</text>
<path d="M1204.5,87.824L1204.5,92.824" style="fill:none;stroke:#000000;stroke-width:2.5" />
<path d="M1240.8,87.824L1240.8,92.824" style="fill:none;stroke:#000000;stroke-width:2.5" />
<path d="M1277.1,87.824L1277.1,92.824" style="fill:none;stroke:#000000;stroke-width:2.5" />
<path d="M112.2,87.824L122.2,87.824" style="fill:none;stroke:#000000;stroke-width:2.5" />
<text x="52.049" y="-79.424" transform="scale(1, -1)"
	style="font-family:Liberation Sans;font-variant:normal;font-weight:normal;font-style:normal;font-size:30px">0.2</text>
<path d="M112.2,122.31L117.2,122.31" style="fill:none;stroke:#000000;stroke-width:2.5" />
<path d="M112.2,156.8L117.2,156.8" style="fill:none;stroke:#000000;stroke-width:2.5" />
<path d="M112.2,191.3L117.2,191.3" style="fill:none;stroke:#000000;stroke-width:2.5" />
<path d="M112.2,225.79L117.2,225.79" style="fill:none;stroke:#000000;stroke-width:2.5" />
<path d="M112.2,260.28L117.2,260.28" style="fill:none;stroke:#000000;stroke-width:2.5" />
<path d="M112.2,294.77L122.2,294.77" style="fill:none;stroke:#000000;stroke-width:2.5" />
<text x="52.049" y="-286.37" transform="scale(1, -1)"
	style="font-family:Liberation Sans;font-variant:normal;font-weight:normal;font-style:normal;font-size:30px">0.4</text>
<path d="M112.2,329.26L117.2,329.26" style="fill:none;stroke:#000000;stroke-width:2.5" />
<path d="M112.2,363.75L117.2,363.75" style="fill:none;stroke:#000000;stroke-width:2.5" />
<path d="M112.2,398.24L117.2,398.24" style="fill:none;stroke:#000000;stroke-width:2.5" />
<path d="M112.2,432.73L117.2,432.73" style="fill:none;stroke:#000000;stroke-width:2.5" />
<path d="M112.2,467.22L117.2,467.22" style="fill:none;stroke:#000000;stroke-width:2.5" />
<path d="M112.2,501.71L122.2,501.71" style="fill:none;stroke:#000000;stroke-width:2.5" />
<text x="52.049" y="-493.31" transform="scale(1, -1)"
	style="font-family:Liberation Sans;font-variant:normal;font-weight:normal;font-style:normal;font-size:30px">0.6</text>
<path d="M112.2,536.2L117.2,536.2" style="fill:none;stroke:#000000;stroke-width:2.5" />
<path d="M112.2,570.69L117.2,570.69" style="fill:none;stroke:#000000;stroke-width:2.5" />
<path d="M112.2,605.18L117.2,605.18" style="fill:none;stroke:#000000;stroke-width:2.5" />
<path d="M112.2,639.67L117.2,639.67" style="fill:none;stroke:#000000;stroke-width:2.5" />
<path d="M112.2,674.16L117.2,674.16" style="fill:none;stroke:#000000;stroke-width:2.5" />
<path d="M112.2,708.65L122.2,708.65" style="fill:none;stroke:#000000;stroke-width:2.5" />
<text x="52.049" y="-700.25" transform="scale(1, -1)"
	style="font-family:Liberation Sans;font-variant:normal;font-weight:normal;font-style:normal;font-size:30px">0.8</text>
<path d="M112.2,743.14L117.2,743.14" style="fill:none;stroke:#000000;stroke-width:2.5" />
<path d="M112.2,777.63L117.2,777.63" style="fill:none;stroke:#000000;stroke-width:2.5" />
<path d="M112.2,812.12L117.2,812.12" style="fill:none;stroke:#000000;stroke-width:2.5" />
<path d="M112.2,846.61L117.2,846.61" style="fill:none;stroke:#000000;stroke-width:2.5" />
<path d="M112.2,881.1L117.2,881.1" style="fill:none;stroke:#000000;stroke-width:2.5" />
<path d="M112.2,915.59L122.2,915.59" style="fill:none;stroke:#000000;stroke-width:2.5" />
<text x="52.049" y="-907.19" transform="scale(1, -1)"
	style="font-family:Liberation Sans;font-variant:normal;font-weight:normal;font-style:normal;font-size:30px">1.0</text>
<path d="M112.2,570.2L112.2,722.75" style="fill:none;stroke:#1FD3AC" />
<path d="M109.7,570.2L114.7,570.2" style="fill:none;stroke:#1FD3AC" />
<path d="M109.7,722.75L114.7,722.75" style="fill:none;stroke:#1FD3AC" />
<path d="M177.52,614.01L177.52,687.36" style="fill:none;stroke:#1FD3AC" />
<path d="M175.02,614.01L180.02,614.01" style="fill:none;stroke:#1FD3AC" />
<path d="M175.02,687.36L180.02,687.36" style="fill:none;stroke:#1FD3AC" />
<path d="M242.84,532.59L242.84,702.78" style="fill:none;stroke:#1FD3AC" />
<path d="M240.34,532.59L245.34,532.59" style="fill:none;stroke:#1FD3AC" />
<path d="M240.34,702.78L245.34,702.78" style="fill:none;stroke:#1FD3AC" />
<path d="M308.16,536.11L308.16,597.42" style="fill:none;stroke:#1FD3AC" />
<path d="M305.66,536.11L310.66,536.11" style="fill:none;stroke:#1FD3AC" />
<path d="M305.66,597.42L310.66,597.42" style="fill:none;stroke:#1FD3AC" />
<path d="M373.49,634.77L373.49,824.9" style="fill:none;stroke:#1FD3AC" />
<path d="M370.99,634.77L375.99,634.77" style="fill:none;stroke:#1FD3AC" />
<path d="M370.99,824.9L375.99,824.9" style="fill:none;stroke:#1FD3AC" />
<path d="M438.81,573.09L438.81,691.46" style="fill:none;stroke:#1FD3AC" />
<path d="M436.31,573.09L441.31,573.09" style="fill:none;stroke:#1FD3AC" />
<path d="M436.31,691.46L441.31,691.46" style="fill:none;stroke:#1FD3AC" />
<path d="M504.13,709.09L504.13,777.96" style="fill:none;stroke:#1FD3AC" />
<path d="M501.63,709.09L506.63,709.09" style="fill:none;stroke:#1FD3AC" />
<path d="M501.63,777.96L506.63,777.96" style="fill:none;stroke:#1FD3AC" />
<path d="M569.45,572.63L569.45,685.28" style="fill:none;stroke:#1FD3AC" />
<path d="M566.95,572.63L571.95,572.63" style="fill:none;stroke:#1FD3AC" />
<path d="M566.95,685.28L571.95,685.28" style="fill:none;stroke:#1FD3AC" />
<path d="M634.78,676.61L634.78,802.13" style="fill:none;stroke:#1FD3AC" />
<path d="M632.28,676.61L637.28,676.61" style="fill:none;stroke:#1FD3AC" />
<path d="M632.28,802.13L637.28,802.13" style="fill:none;stroke:#1FD3AC" />
<path d="M700.1,548.6L700.1,662.77" style="fill:none;stroke:#1FD3AC" />
<path d="M697.6,548.6L702.6,548.6" style="fill:none;stroke:#1FD3AC" />
<path d="M697.6,662.77L702.6,662.77" style="fill:none;stroke:#1FD3AC" />
<path d="M765.42,374.72L765.42,445.16" style="fill:none;stroke:#1FD3AC" />
<path d="M762.92,374.72L767.92,374.72" style="fill:none;stroke:#1FD3AC" />
<path d="M762.92,445.16L767.92,445.16" style="fill:none;stroke:#1FD3AC" />
<path d="M830.74,475.96L830.74,613.85" style="fill:none;stroke:#1FD3AC" />
<path d="M828.24,475.96L833.24,475.96" style="fill:none;stroke:#1FD3AC" />
<path d="M828.24,613.85L833.24,613.85" style="fill:none;stroke:#1FD3AC" />
<path d="M896.07,371.91L896.07,462.62" style="fill:none;stroke:#1FD3AC" />
<path d="M893.57,371.91L898.57,371.91" style="fill:none;stroke:#1FD3AC" />
<path d="M893.57,462.62L898.57,462.62" style="fill:none;stroke:#1FD3AC" />
<path d="M961.39,322.3L961.39,371.14" style="fill:none;stroke:#1FD3AC" />
<path d="M958.89,322.3L963.89,322.3" style="fill:none;stroke:#1FD3AC" />
<path d="M958.89,371.14L963.89,371.14" style="fill:none;stroke:#1FD3AC" />
<path d="M1026.7,230.41L1026.7,264.67" style="fill:none;stroke:#1FD3AC" />
<path d="M1024.2,230.41L1029.2,230.41" style="fill:none;stroke:#1FD3AC" />
<path d="M1024.2,264.67L1029.2,264.67" style="fill:none;stroke:#1FD3AC" />
<path d="M1092,214.78L1092,260.41" style="fill:none;stroke:#1FD3AC" />
<path d="M1089.5,214.78L1094.5,214.78" style="fill:none;stroke:#1FD3AC" />
<path d="M1089.5,260.41L1094.5,260.41" style="fill:none;stroke:#1FD3AC" />
<path d="M1157.4,328.48L1157.4,371.02" style="fill:none;stroke:#1FD3AC" />
<path d="M1154.9,328.48L1159.9,328.48" style="fill:none;stroke:#1FD3AC" />
<path d="M1154.9,371.02L1159.9,371.02" style="fill:none;stroke:#1FD3AC" />
<path d="M1222.7,409.6L1222.7,448.45" style="fill:none;stroke:#1FD3AC" />
<path d="M1220.2,409.6L1225.2,409.6" style="fill:none;stroke:#1FD3AC" />
<path d="M1220.2,448.45L1225.2,448.45" style="fill:none;stroke:#1FD3AC" />
<path d="M1288,380.85L1288,500.04" style="fill:none;stroke:#1FD3AC" />
<path d="M1285.5,380.85L1290.5,380.85" style="fill:none;stroke:#1FD3AC" />
<path d="M1285.5,500.04L1290.5,500.04" style="fill:none;stroke:#1FD3AC" />
<path d="M120.2,646.47A8,8 0 1 1 104.2,646.47A8,8 0 1 1 120.2,646.47Z" style="fill:#1FD3AC" />
<path d="M185.52,650.69A8,8 0 1 1 169.52,650.69A8,8 0 1 1 185.52,650.69Z" style="fill:#1FD3AC" />
<path d="M250.84,617.69A8,8 0 1 1 234.84,617.69A8,8 0 1 1 250.84,617.69Z" style="fill:#1FD3AC" />
<path d="M316.16,566.76A8,8 0 1 1 300.16,566.76A8,8 0 1 1 316.16,566.76Z" style="fill:#1FD3AC" />
<path d="M381.49,729.84A8,8 0 1 1 365.49,729.84A8,8 0 1 1 381.49,729.84Z" style="fill:#1FD3AC" />
<path d="M446.81,632.27A8,8 0 1 1 430.81,632.27A8,8 0 1 1 446.81,632.27Z" style="fill:#1FD3AC" />
<path d="M512.13,743.53A8,8 0 1 1 496.13,743.53A8,8 0 1 1 512.13,743.53Z" style="fill:#1FD3AC" />
<path d="M577.45,628.96A8,8 0 1 1 561.45,628.96A8,8 0 1 1 577.45,628.96Z" style="fill:#1FD3AC" />
<path d="M642.78,739.37A8,8 0 1 1 626.78,739.37A8,8 0 1 1 642.78,739.37Z" style="fill:#1FD3AC" />
<path d="M708.1,605.68A8,8 0 1 1 692.1,605.68A8,8 0 1 1 708.1,605.68Z" style="fill:#1FD3AC" />
<path d="M773.42,409.94A8,8 0 1 1 757.42,409.94A8,8 0 1 1 773.42,409.94Z" style="fill:#1FD3AC" />
<path d="M838.74,544.9A8,8 0 1 1 822.74,544.9A8,8 0 1 1 838.74,544.9Z" style="fill:#1FD3AC" />
<path d="M904.07,417.26A8,8 0 1 1 888.07,417.26A8,8 0 1 1 904.07,417.26Z" style="fill:#1FD3AC" />
<path d="M969.39,346.72A8,8 0 1 1 953.39,346.72A8,8 0 1 1 969.39,346.72Z" style="fill:#1FD3AC" />
<path d="M1034.7,247.54A8,8 0 1 1 1018.7,247.54A8,8 0 1 1 1034.7,247.54Z" style="fill:#1FD3AC" />
<path d="M1100,237.59A8,8 0 1 1 1084,237.59A8,8 0 1 1 1100,237.59Z" style="fill:#1FD3AC" />
<path d="M1165.4,349.75A8,8 0 1 1 1149.4,349.75A8,8 0 1 1 1165.4,349.75Z" style="fill:#1FD3AC" />
<path d="M1230.7,429.03A8,8 0 1 1 1214.7,429.03A8,8 0 1 1 1230.7,429.03Z" style="fill:#1FD3AC" />
<path d="M1296,440.44A8,8 0 1 1 1280,440.44A8,8 0 1 1 1296,440.44Z" style="fill:#1FD3AC" />
<path d="M112.2,1019.1L1288,1019.1" style="fill:none;stroke:#000000;stroke-width:2.5" />
<path d="M1288,87.824L1288,1019.1" style="fill:none;stroke:#000000;stroke-width:2.5" />
<path d="M1229,964.69A8,8 0 1 1 1213,964.69A8,8 0 1 1 1229,964.69Z" style="fill:#1FD3AC" />
<text x="1037" y="-957.62" transform="scale(1, -1)"
	style="font-family:Liberation Sans;font-variant:normal;font-weight:normal;font-style:normal;font-size:30px">10 μm CS2</text>
</g>
</svg>
