<?xml version="1.0"?>
<!-- Generated by SVGo and Plotinum VG -->
<svg width="1080pt" height="1080pt" viewBox="0 0 1080 1080"
	xmlns="http://www.w3.org/2000/svg"
	xmlns:xlink="http://www.w3.org/1999/xlink">
<g transform="scale(1, -1) translate(0, -1080)">
<path d="M0,0L1080,0L1080,1080L0,1080Z" style="fill:#-8000000000000000-8000000000000000-8000000000000000;fill-opacity:0" />
<text x="346.9" y="-1039.5" transform="scale(1, -1)"
	style="font-family:Helvetica;font-weight:normal;font-style:normal;font-size:50px">1 mm CS2 CABS</text>
<text x="487.31" y="-11.039" transform="scale(1, -1)"
	style="font-family:Helvetica;font-weight:normal;font-style:normal;font-size:36px">Frequency (GHz)</text>
<text x="224.01" y="-71.258" transform="scale(1, -1)"
	style="font-family:Helvetica;font-weight:normal;font-style:normal;font-size:36px">2.35</text>
<text x="409.27" y="-71.258" transform="scale(1, -1)"
	style="font-family:Helvetica;font-weight:normal;font-style:normal;font-size:36px">2.45</text>
<text x="594.52" y="-71.258" transform="scale(1, -1)"
	style="font-family:Helvetica;font-weight:normal;font-style:normal;font-size:36px">2.55</text>
<text x="779.78" y="-71.258" transform="scale(1, -1)"
	style="font-family:Helvetica;font-weight:normal;font-style:normal;font-size:36px">2.65</text>
<text x="965.04" y="-71.258" transform="scale(1, -1)"
	style="font-family:Helvetica;font-weight:normal;font-style:normal;font-size:36px">2.75</text>
<path d="M259.04,116.44L259.04,108.44" style="fill:none;stroke:#000000;stroke-width:1.5" />
<path d="M351.67,112.44L351.67,108.44" style="fill:none;stroke:#000000;stroke-width:1.5" />
<path d="M444.3,116.44L444.3,108.44" style="fill:none;stroke:#000000;stroke-width:1.5" />
<path d="M536.93,112.44L536.93,108.44" style="fill:none;stroke:#000000;stroke-width:1.5" />
<path d="M629.56,116.44L629.56,108.44" style="fill:none;stroke:#000000;stroke-width:1.5" />
<path d="M722.19,112.44L722.19,108.44" style="fill:none;stroke:#000000;stroke-width:1.5" />
<path d="M814.81,116.44L814.81,108.44" style="fill:none;stroke:#000000;stroke-width:1.5" />
<path d="M907.44,112.44L907.44,108.44" style="fill:none;stroke:#000000;stroke-width:1.5" />
<path d="M1000.1,116.44L1000.1,108.44" style="fill:none;stroke:#000000;stroke-width:1.5" />
<path d="M175.69,108.44L1075,108.44" style="fill:none;stroke:#000000;stroke-width:1.5" />
<g transform="rotate(90)">
<text x="371.42" y="29.18" transform="scale(1, -1)"
	style="font-family:Helvetica;font-weight:normal;font-style:normal;font-size:36px">Spectral Density (uV)</text>
</g>
<text x="87.869" y="-207.91" transform="scale(1, -1)"
	style="font-family:Helvetica;font-weight:normal;font-style:normal;font-size:36px">9.27</text>
<text x="67.848" y="-424.24" transform="scale(1, -1)"
	style="font-family:Helvetica;font-weight:normal;font-style:normal;font-size:36px">17.23</text>
<text x="67.848" y="-640.57" transform="scale(1, -1)"
	style="font-family:Helvetica;font-weight:normal;font-style:normal;font-size:36px">25.18</text>
<text x="67.848" y="-856.9" transform="scale(1, -1)"
	style="font-family:Helvetica;font-weight:normal;font-style:normal;font-size:36px">33.14</text>
<path d="M179.94,108.82L175.94,108.82" style="fill:none;stroke:#000000;stroke-width:1.5" />
<path d="M183.94,216.98L175.94,216.98" style="fill:none;stroke:#000000;stroke-width:1.5" />
<path d="M179.94,325.15L175.94,325.15" style="fill:none;stroke:#000000;stroke-width:1.5" />
<path d="M183.94,433.31L175.94,433.31" style="fill:none;stroke:#000000;stroke-width:1.5" />
<path d="M179.94,541.48L175.94,541.48" style="fill:none;stroke:#000000;stroke-width:1.5" />
<path d="M183.94,649.64L175.94,649.64" style="fill:none;stroke:#000000;stroke-width:1.5" />
<path d="M179.94,757.81L175.94,757.81" style="fill:none;stroke:#000000;stroke-width:1.5" />
<path d="M183.94,865.98L175.94,865.98" style="fill:none;stroke:#000000;stroke-width:1.5" />
<path d="M179.94,974.14L175.94,974.14" style="fill:none;stroke:#000000;stroke-width:1.5" />
<path d="M179.94,974.14L175.94,974.14" style="fill:none;stroke:#000000;stroke-width:1.5" />
<path d="M175.94,108.82L175.94,974.14" style="fill:none;stroke:#000000;stroke-width:1.5" />
<path d="M175.69,130.27L175.69,149.35" style="fill:none;stroke:#1FD3AC" />
<path d="M173.19,130.27L178.19,130.27" style="fill:none;stroke:#1FD3AC" />
<path d="M173.19,149.35L178.19,149.35" style="fill:none;stroke:#1FD3AC" />
<path d="M184.96,156.26L184.96,162.54" style="fill:none;stroke:#1FD3AC" />
<path d="M182.46,156.26L187.46,156.26" style="fill:none;stroke:#1FD3AC" />
<path d="M182.46,162.54L187.46,162.54" style="fill:none;stroke:#1FD3AC" />
<path d="M194.23,166.85L194.23,175.41" style="fill:none;stroke:#1FD3AC" />
<path d="M191.73,166.85L196.73,166.85" style="fill:none;stroke:#1FD3AC" />
<path d="M191.73,175.41L196.73,175.41" style="fill:none;stroke:#1FD3AC" />
<path d="M203.5,161.81L203.5,183.77" style="fill:none;stroke:#1FD3AC" />
<path d="M201,161.81L206,161.81" style="fill:none;stroke:#1FD3AC" />
<path d="M201,183.77L206,183.77" style="fill:none;stroke:#1FD3AC" />
<path d="M212.77,172.19L212.77,179.92" style="fill:none;stroke:#1FD3AC" />
<path d="M210.27,172.19L215.27,172.19" style="fill:none;stroke:#1FD3AC" />
<path d="M210.27,179.92L215.27,179.92" style="fill:none;stroke:#1FD3AC" />
<path d="M222.04,164.97L222.04,183.21" style="fill:none;stroke:#1FD3AC" />
<path d="M219.54,164.97L224.54,164.97" style="fill:none;stroke:#1FD3AC" />
<path d="M219.54,183.21L224.54,183.21" style="fill:none;stroke:#1FD3AC" />
<path d="M231.32,169.43L231.32,200.56" style="fill:none;stroke:#1FD3AC" />
<path d="M228.82,169.43L233.82,169.43" style="fill:none;stroke:#1FD3AC" />
<path d="M228.82,200.56L233.82,200.56" style="fill:none;stroke:#1FD3AC" />
<path d="M240.59,165.3L240.59,200.76" style="fill:none;stroke:#1FD3AC" />
<path d="M238.09,165.3L243.09,165.3" style="fill:none;stroke:#1FD3AC" />
<path d="M238.09,200.76L243.09,200.76" style="fill:none;stroke:#1FD3AC" />
<path d="M249.86,174.33L249.86,204.63" style="fill:none;stroke:#1FD3AC" />
<path d="M247.36,174.33L252.36,174.33" style="fill:none;stroke:#1FD3AC" />
<path d="M247.36,204.63L252.36,204.63" style="fill:none;stroke:#1FD3AC" />
<path d="M259.13,169.59L259.13,201.65" style="fill:none;stroke:#1FD3AC" />
<path d="M256.63,169.59L261.63,169.59" style="fill:none;stroke:#1FD3AC" />
<path d="M256.63,201.65L261.63,201.65" style="fill:none;stroke:#1FD3AC" />
<path d="M268.4,172.44L268.4,193.51" style="fill:none;stroke:#1FD3AC" />
<path d="M265.9,172.44L270.9,172.44" style="fill:none;stroke:#1FD3AC" />
<path d="M265.9,193.51L270.9,193.51" style="fill:none;stroke:#1FD3AC" />
<path d="M277.67,180.16L277.67,212.24" style="fill:none;stroke:#1FD3AC" />
<path d="M275.17,180.16L280.17,180.16" style="fill:none;stroke:#1FD3AC" />
<path d="M275.17,212.24L280.17,212.24" style="fill:none;stroke:#1FD3AC" />
<path d="M286.94,161.87L286.94,200.51" style="fill:none;stroke:#1FD3AC" />
<path d="M284.44,161.87L289.44,161.87" style="fill:none;stroke:#1FD3AC" />
<path d="M284.44,200.51L289.44,200.51" style="fill:none;stroke:#1FD3AC" />
<path d="M296.21,172.22L296.21,200.4" style="fill:none;stroke:#1FD3AC" />
<path d="M293.71,172.22L298.71,172.22" style="fill:none;stroke:#1FD3AC" />
<path d="M293.71,200.4L298.71,200.4" style="fill:none;stroke:#1FD3AC" />
<path d="M305.49,176.41L305.49,196.58" style="fill:none;stroke:#1FD3AC" />
<path d="M302.99,176.41L307.99,176.41" style="fill:none;stroke:#1FD3AC" />
<path d="M302.99,196.58L307.99,196.58" style="fill:none;stroke:#1FD3AC" />
<path d="M314.76,170.12L314.76,193.49" style="fill:none;stroke:#1FD3AC" />
<path d="M312.26,170.12L317.26,170.12" style="fill:none;stroke:#1FD3AC" />
<path d="M312.26,193.49L317.26,193.49" style="fill:none;stroke:#1FD3AC" />
<path d="M324.03,170.66L324.03,196.39" style="fill:none;stroke:#1FD3AC" />
<path d="M321.53,170.66L326.53,170.66" style="fill:none;stroke:#1FD3AC" />
<path d="M321.53,196.39L326.53,196.39" style="fill:none;stroke:#1FD3AC" />
<path d="M333.3,179.56L333.3,188.27" style="fill:none;stroke:#1FD3AC" />
<path d="M330.8,179.56L335.8,179.56" style="fill:none;stroke:#1FD3AC" />
<path d="M330.8,188.27L335.8,188.27" style="fill:none;stroke:#1FD3AC" />
<path d="M342.57,181.33L342.57,189.76" style="fill:none;stroke:#1FD3AC" />
<path d="M340.07,181.33L345.07,181.33" style="fill:none;stroke:#1FD3AC" />
<path d="M340.07,189.76L345.07,189.76" style="fill:none;stroke:#1FD3AC" />
<path d="M351.84,192.91L351.84,205.3" style="fill:none;stroke:#1FD3AC" />
<path d="M349.34,192.91L354.34,192.91" style="fill:none;stroke:#1FD3AC" />
<path d="M349.34,205.3L354.34,205.3" style="fill:none;stroke:#1FD3AC" />
<path d="M361.11,196.24L361.11,208.36" style="fill:none;stroke:#1FD3AC" />
<path d="M358.61,196.24L363.61,196.24" style="fill:none;stroke:#1FD3AC" />
<path d="M358.61,208.36L363.61,208.36" style="fill:none;stroke:#1FD3AC" />
<path d="M370.38,187.98L370.38,211.24" style="fill:none;stroke:#1FD3AC" />
<path d="M367.88,187.98L372.88,187.98" style="fill:none;stroke:#1FD3AC" />
<path d="M367.88,211.24L372.88,211.24" style="fill:none;stroke:#1FD3AC" />
<path d="M379.66,199.17L379.66,205.98" style="fill:none;stroke:#1FD3AC" />
<path d="M377.16,199.17L382.16,199.17" style="fill:none;stroke:#1FD3AC" />
<path d="M377.16,205.98L382.16,205.98" style="fill:none;stroke:#1FD3AC" />
<path d="M388.93,190.69L388.93,208.36" style="fill:none;stroke:#1FD3AC" />
<path d="M386.43,190.69L391.43,190.69" style="fill:none;stroke:#1FD3AC" />
<path d="M386.43,208.36L391.43,208.36" style="fill:none;stroke:#1FD3AC" />
<path d="M398.2,202.01L398.2,216.36" style="fill:none;stroke:#1FD3AC" />
<path d="M395.7,202.01L400.7,202.01" style="fill:none;stroke:#1FD3AC" />
<path d="M395.7,216.36L400.7,216.36" style="fill:none;stroke:#1FD3AC" />
<path d="M407.47,184.66L407.47,200.54" style="fill:none;stroke:#1FD3AC" />
<path d="M404.97,184.66L409.97,184.66" style="fill:none;stroke:#1FD3AC" />
<path d="M404.97,200.54L409.97,200.54" style="fill:none;stroke:#1FD3AC" />
<path d="M416.74,187.95L416.74,207.22" style="fill:none;stroke:#1FD3AC" />
<path d="M414.24,187.95L419.24,187.95" style="fill:none;stroke:#1FD3AC" />
<path d="M414.24,207.22L419.24,207.22" style="fill:none;stroke:#1FD3AC" />
<path d="M426.01,189.73L426.01,219.42" style="fill:none;stroke:#1FD3AC" />
<path d="M423.51,189.73L428.51,189.73" style="fill:none;stroke:#1FD3AC" />
<path d="M423.51,219.42L428.51,219.42" style="fill:none;stroke:#1FD3AC" />
<path d="M435.28,205.27L435.28,213.4" style="fill:none;stroke:#1FD3AC" />
<path d="M432.78,205.27L437.78,205.27" style="fill:none;stroke:#1FD3AC" />
<path d="M432.78,213.4L437.78,213.4" style="fill:none;stroke:#1FD3AC" />
<path d="M444.55,205.54L444.55,224.17" style="fill:none;stroke:#1FD3AC" />
<path d="M442.05,205.54L447.05,205.54" style="fill:none;stroke:#1FD3AC" />
<path d="M442.05,224.17L447.05,224.17" style="fill:none;stroke:#1FD3AC" />
<path d="M453.83,215.12L453.83,253.05" style="fill:none;stroke:#1FD3AC" />
<path d="M451.33,215.12L456.33,215.12" style="fill:none;stroke:#1FD3AC" />
<path d="M451.33,253.05L456.33,253.05" style="fill:none;stroke:#1FD3AC" />
<path d="M463.1,219.91L463.1,251.04" style="fill:none;stroke:#1FD3AC" />
<path d="M460.6,219.91L465.6,219.91" style="fill:none;stroke:#1FD3AC" />
<path d="M460.6,251.04L465.6,251.04" style="fill:none;stroke:#1FD3AC" />
<path d="M472.37,231.11L472.37,275.7" style="fill:none;stroke:#1FD3AC" />
<path d="M469.87,231.11L474.87,231.11" style="fill:none;stroke:#1FD3AC" />
<path d="M469.87,275.7L474.87,275.7" style="fill:none;stroke:#1FD3AC" />
<path d="M481.64,255.45L481.64,278.19" style="fill:none;stroke:#1FD3AC" />
<path d="M479.14,255.45L484.14,255.45" style="fill:none;stroke:#1FD3AC" />
<path d="M479.14,278.19L484.14,278.19" style="fill:none;stroke:#1FD3AC" />
<path d="M490.91,263.33L490.91,279.21" style="fill:none;stroke:#1FD3AC" />
<path d="M488.41,263.33L493.41,263.33" style="fill:none;stroke:#1FD3AC" />
<path d="M488.41,279.21L493.41,279.21" style="fill:none;stroke:#1FD3AC" />
<path d="M500.18,278.39L500.18,300.02" style="fill:none;stroke:#1FD3AC" />
<path d="M497.68,278.39L502.68,278.39" style="fill:none;stroke:#1FD3AC" />
<path d="M497.68,300.02L502.68,300.02" style="fill:none;stroke:#1FD3AC" />
<path d="M509.45,310.49L509.45,329.77" style="fill:none;stroke:#1FD3AC" />
<path d="M506.95,310.49L511.95,310.49" style="fill:none;stroke:#1FD3AC" />
<path d="M506.95,329.77L511.95,329.77" style="fill:none;stroke:#1FD3AC" />
<path d="M518.72,342L518.72,357.1" style="fill:none;stroke:#1FD3AC" />
<path d="M516.22,342L521.22,342" style="fill:none;stroke:#1FD3AC" />
<path d="M516.22,357.1L521.22,357.1" style="fill:none;stroke:#1FD3AC" />
<path d="M528,374.12L528,396.77" style="fill:none;stroke:#1FD3AC" />
<path d="M525.5,374.12L530.5,374.12" style="fill:none;stroke:#1FD3AC" />
<path d="M525.5,396.77L530.5,396.77" style="fill:none;stroke:#1FD3AC" />
<path d="M537.27,406.44L537.27,420.31" style="fill:none;stroke:#1FD3AC" />
<path d="M534.77,406.44L539.77,406.44" style="fill:none;stroke:#1FD3AC" />
<path d="M534.77,420.31L539.77,420.31" style="fill:none;stroke:#1FD3AC" />
<path d="M546.54,447.47L546.54,462.91" style="fill:none;stroke:#1FD3AC" />
<path d="M544.04,447.47L549.04,447.47" style="fill:none;stroke:#1FD3AC" />
<path d="M544.04,462.91L549.04,462.91" style="fill:none;stroke:#1FD3AC" />
<path d="M555.81,488.01L555.81,514.28" style="fill:none;stroke:#1FD3AC" />
<path d="M553.31,488.01L558.31,488.01" style="fill:none;stroke:#1FD3AC" />
<path d="M553.31,514.28L558.31,514.28" style="fill:none;stroke:#1FD3AC" />
<path d="M565.08,499.34L565.08,525.12" style="fill:none;stroke:#1FD3AC" />
<path d="M562.58,499.34L567.58,499.34" style="fill:none;stroke:#1FD3AC" />
<path d="M562.58,525.12L567.58,525.12" style="fill:none;stroke:#1FD3AC" />
<path d="M574.35,541.01L574.35,584.47" style="fill:none;stroke:#1FD3AC" />
<path d="M571.85,541.01L576.85,541.01" style="fill:none;stroke:#1FD3AC" />
<path d="M571.85,584.47L576.85,584.47" style="fill:none;stroke:#1FD3AC" />
<path d="M583.62,573.15L583.62,610.35" style="fill:none;stroke:#1FD3AC" />
<path d="M581.12,573.15L586.12,573.15" style="fill:none;stroke:#1FD3AC" />
<path d="M581.12,610.35L586.12,610.35" style="fill:none;stroke:#1FD3AC" />
<path d="M592.89,648.76L592.89,683.62" style="fill:none;stroke:#1FD3AC" />
<path d="M590.39,648.76L595.39,648.76" style="fill:none;stroke:#1FD3AC" />
<path d="M590.39,683.62L595.39,683.62" style="fill:none;stroke:#1FD3AC" />
<path d="M602.17,712.11L602.17,737.76" style="fill:none;stroke:#1FD3AC" />
<path d="M599.67,712.11L604.67,712.11" style="fill:none;stroke:#1FD3AC" />
<path d="M599.67,737.76L604.67,737.76" style="fill:none;stroke:#1FD3AC" />
<path d="M611.44,744.42L611.44,784.33" style="fill:none;stroke:#1FD3AC" />
<path d="M608.94,744.42L613.94,744.42" style="fill:none;stroke:#1FD3AC" />
<path d="M608.94,784.33L613.94,784.33" style="fill:none;stroke:#1FD3AC" />
<path d="M620.71,737.99L620.71,759.27" style="fill:none;stroke:#1FD3AC" />
<path d="M618.21,737.99L623.21,737.99" style="fill:none;stroke:#1FD3AC" />
<path d="M618.21,759.27L623.21,759.27" style="fill:none;stroke:#1FD3AC" />
<path d="M629.98,708.35L629.98,750.1" style="fill:none;stroke:#1FD3AC" />
<path d="M627.48,708.35L632.48,708.35" style="fill:none;stroke:#1FD3AC" />
<path d="M627.48,750.1L632.48,750.1" style="fill:none;stroke:#1FD3AC" />
<path d="M639.25,657.5L639.25,695.71" style="fill:none;stroke:#1FD3AC" />
<path d="M636.75,657.5L641.75,657.5" style="fill:none;stroke:#1FD3AC" />
<path d="M636.75,695.71L641.75,695.71" style="fill:none;stroke:#1FD3AC" />
<path d="M648.52,616.67L648.52,661.19" style="fill:none;stroke:#1FD3AC" />
<path d="M646.02,616.67L651.02,616.67" style="fill:none;stroke:#1FD3AC" />
<path d="M646.02,661.19L651.02,661.19" style="fill:none;stroke:#1FD3AC" />
<path d="M657.79,588.92L657.79,628.15" style="fill:none;stroke:#1FD3AC" />
<path d="M655.29,588.92L660.29,588.92" style="fill:none;stroke:#1FD3AC" />
<path d="M655.29,628.15L660.29,628.15" style="fill:none;stroke:#1FD3AC" />
<path d="M667.06,556.98L667.06,584.88" style="fill:none;stroke:#1FD3AC" />
<path d="M664.56,556.98L669.56,556.98" style="fill:none;stroke:#1FD3AC" />
<path d="M664.56,584.88L669.56,584.88" style="fill:none;stroke:#1FD3AC" />
<path d="M676.34,501.32L676.34,528.26" style="fill:none;stroke:#1FD3AC" />
<path d="M673.84,501.32L678.84,501.32" style="fill:none;stroke:#1FD3AC" />
<path d="M673.84,528.26L678.84,528.26" style="fill:none;stroke:#1FD3AC" />
<path d="M685.61,472.76L685.61,493.46" style="fill:none;stroke:#1FD3AC" />
<path d="M683.11,472.76L688.11,472.76" style="fill:none;stroke:#1FD3AC" />
<path d="M683.11,493.46L688.11,493.46" style="fill:none;stroke:#1FD3AC" />
<path d="M694.88,423.15L694.88,450.41" style="fill:none;stroke:#1FD3AC" />
<path d="M692.38,423.15L697.38,423.15" style="fill:none;stroke:#1FD3AC" />
<path d="M692.38,450.41L697.38,450.41" style="fill:none;stroke:#1FD3AC" />
<path d="M704.15,416.49L704.15,427.71" style="fill:none;stroke:#1FD3AC" />
<path d="M701.65,416.49L706.65,416.49" style="fill:none;stroke:#1FD3AC" />
<path d="M701.65,427.71L706.65,427.71" style="fill:none;stroke:#1FD3AC" />
<path d="M713.42,375.85L713.42,382.21" style="fill:none;stroke:#1FD3AC" />
<path d="M710.92,375.85L715.92,375.85" style="fill:none;stroke:#1FD3AC" />
<path d="M710.92,382.21L715.92,382.21" style="fill:none;stroke:#1FD3AC" />
<path d="M722.69,338.33L722.69,345.29" style="fill:none;stroke:#1FD3AC" />
<path d="M720.19,338.33L725.19,338.33" style="fill:none;stroke:#1FD3AC" />
<path d="M720.19,345.29L725.19,345.29" style="fill:none;stroke:#1FD3AC" />
<path d="M731.96,321.73L731.96,339.62" style="fill:none;stroke:#1FD3AC" />
<path d="M729.46,321.73L734.46,321.73" style="fill:none;stroke:#1FD3AC" />
<path d="M729.46,339.62L734.46,339.62" style="fill:none;stroke:#1FD3AC" />
<path d="M741.23,302.49L741.23,318.84" style="fill:none;stroke:#1FD3AC" />
<path d="M738.73,302.49L743.73,302.49" style="fill:none;stroke:#1FD3AC" />
<path d="M738.73,318.84L743.73,318.84" style="fill:none;stroke:#1FD3AC" />
<path d="M750.51,288.69L750.51,304.09" style="fill:none;stroke:#1FD3AC" />
<path d="M748.01,288.69L753.01,288.69" style="fill:none;stroke:#1FD3AC" />
<path d="M748.01,304.09L753.01,304.09" style="fill:none;stroke:#1FD3AC" />
<path d="M759.78,268.32L759.78,276.39" style="fill:none;stroke:#1FD3AC" />
<path d="M757.28,268.32L762.28,268.32" style="fill:none;stroke:#1FD3AC" />
<path d="M757.28,276.39L762.28,276.39" style="fill:none;stroke:#1FD3AC" />
<path d="M769.05,252.24L769.05,269.68" style="fill:none;stroke:#1FD3AC" />
<path d="M766.55,252.24L771.55,252.24" style="fill:none;stroke:#1FD3AC" />
<path d="M766.55,269.68L771.55,269.68" style="fill:none;stroke:#1FD3AC" />
<path d="M778.32,244.73L778.32,271.41" style="fill:none;stroke:#1FD3AC" />
<path d="M775.82,244.73L780.82,244.73" style="fill:none;stroke:#1FD3AC" />
<path d="M775.82,271.41L780.82,271.41" style="fill:none;stroke:#1FD3AC" />
<path d="M787.59,247.58L787.59,268.18" style="fill:none;stroke:#1FD3AC" />
<path d="M785.09,247.58L790.09,247.58" style="fill:none;stroke:#1FD3AC" />
<path d="M785.09,268.18L790.09,268.18" style="fill:none;stroke:#1FD3AC" />
<path d="M796.86,245.36L796.86,256.71" style="fill:none;stroke:#1FD3AC" />
<path d="M794.36,245.36L799.36,245.36" style="fill:none;stroke:#1FD3AC" />
<path d="M794.36,256.71L799.36,256.71" style="fill:none;stroke:#1FD3AC" />
<path d="M806.13,253.78L806.13,266.19" style="fill:none;stroke:#1FD3AC" />
<path d="M803.63,253.78L808.63,253.78" style="fill:none;stroke:#1FD3AC" />
<path d="M803.63,266.19L808.63,266.19" style="fill:none;stroke:#1FD3AC" />
<path d="M815.4,240.26L815.4,250.72" style="fill:none;stroke:#1FD3AC" />
<path d="M812.9,240.26L817.9,240.26" style="fill:none;stroke:#1FD3AC" />
<path d="M812.9,250.72L817.9,250.72" style="fill:none;stroke:#1FD3AC" />
<path d="M824.68,225.23L824.68,233.69" style="fill:none;stroke:#1FD3AC" />
<path d="M822.18,225.23L827.18,225.23" style="fill:none;stroke:#1FD3AC" />
<path d="M822.18,233.69L827.18,233.69" style="fill:none;stroke:#1FD3AC" />
<path d="M833.95,233.95L833.95,243.07" style="fill:none;stroke:#1FD3AC" />
<path d="M831.45,233.95L836.45,233.95" style="fill:none;stroke:#1FD3AC" />
<path d="M831.45,243.07L836.45,243.07" style="fill:none;stroke:#1FD3AC" />
<path d="M843.22,237.13L843.22,244.61" style="fill:none;stroke:#1FD3AC" />
<path d="M840.72,237.13L845.72,237.13" style="fill:none;stroke:#1FD3AC" />
<path d="M840.72,244.61L845.72,244.61" style="fill:none;stroke:#1FD3AC" />
<path d="M852.49,231.11L852.49,240.51" style="fill:none;stroke:#1FD3AC" />
<path d="M849.99,231.11L854.99,231.11" style="fill:none;stroke:#1FD3AC" />
<path d="M849.99,240.51L854.99,240.51" style="fill:none;stroke:#1FD3AC" />
<path d="M861.76,228.05L861.76,239.46" style="fill:none;stroke:#1FD3AC" />
<path d="M859.26,228.05L864.26,228.05" style="fill:none;stroke:#1FD3AC" />
<path d="M859.26,239.46L864.26,239.46" style="fill:none;stroke:#1FD3AC" />
<path d="M871.03,220L871.03,242.37" style="fill:none;stroke:#1FD3AC" />
<path d="M868.53,220L873.53,220" style="fill:none;stroke:#1FD3AC" />
<path d="M868.53,242.37L873.53,242.37" style="fill:none;stroke:#1FD3AC" />
<path d="M880.3,215.71L880.3,228.58" style="fill:none;stroke:#1FD3AC" />
<path d="M877.8,215.71L882.8,215.71" style="fill:none;stroke:#1FD3AC" />
<path d="M877.8,228.58L882.8,228.58" style="fill:none;stroke:#1FD3AC" />
<path d="M889.57,218.95L889.57,224.49" style="fill:none;stroke:#1FD3AC" />
<path d="M887.07,218.95L892.07,218.95" style="fill:none;stroke:#1FD3AC" />
<path d="M887.07,224.49L892.07,224.49" style="fill:none;stroke:#1FD3AC" />
<path d="M898.85,235.2L898.85,252.75" style="fill:none;stroke:#1FD3AC" />
<path d="M896.35,235.2L901.35,235.2" style="fill:none;stroke:#1FD3AC" />
<path d="M896.35,252.75L901.35,252.75" style="fill:none;stroke:#1FD3AC" />
<path d="M908.12,233.55L908.12,248.92" style="fill:none;stroke:#1FD3AC" />
<path d="M905.62,233.55L910.62,233.55" style="fill:none;stroke:#1FD3AC" />
<path d="M905.62,248.92L910.62,248.92" style="fill:none;stroke:#1FD3AC" />
<path d="M917.39,229.48L917.39,247.17" style="fill:none;stroke:#1FD3AC" />
<path d="M914.89,229.48L919.89,229.48" style="fill:none;stroke:#1FD3AC" />
<path d="M914.89,247.17L919.89,247.17" style="fill:none;stroke:#1FD3AC" />
<path d="M926.66,220.47L926.66,244.53" style="fill:none;stroke:#1FD3AC" />
<path d="M924.16,220.47L929.16,220.47" style="fill:none;stroke:#1FD3AC" />
<path d="M924.16,244.53L929.16,244.53" style="fill:none;stroke:#1FD3AC" />
<path d="M935.93,229.94L935.93,267.61" style="fill:none;stroke:#1FD3AC" />
<path d="M933.43,229.94L938.43,229.94" style="fill:none;stroke:#1FD3AC" />
<path d="M933.43,267.61L938.43,267.61" style="fill:none;stroke:#1FD3AC" />
<path d="M945.2,243.66L945.2,264.18" style="fill:none;stroke:#1FD3AC" />
<path d="M942.7,243.66L947.7,243.66" style="fill:none;stroke:#1FD3AC" />
<path d="M942.7,264.18L947.7,264.18" style="fill:none;stroke:#1FD3AC" />
<path d="M954.47,250.89L954.47,272.15" style="fill:none;stroke:#1FD3AC" />
<path d="M951.97,250.89L956.97,250.89" style="fill:none;stroke:#1FD3AC" />
<path d="M951.97,272.15L956.97,272.15" style="fill:none;stroke:#1FD3AC" />
<path d="M963.74,256.62L963.74,283.3" style="fill:none;stroke:#1FD3AC" />
<path d="M961.24,256.62L966.24,256.62" style="fill:none;stroke:#1FD3AC" />
<path d="M961.24,283.3L966.24,283.3" style="fill:none;stroke:#1FD3AC" />
<path d="M973.02,261.28L973.02,292.59" style="fill:none;stroke:#1FD3AC" />
<path d="M970.52,261.28L975.52,261.28" style="fill:none;stroke:#1FD3AC" />
<path d="M970.52,292.59L975.52,292.59" style="fill:none;stroke:#1FD3AC" />
<path d="M982.29,263.39L982.29,291.28" style="fill:none;stroke:#1FD3AC" />
<path d="M979.79,263.39L984.79,263.39" style="fill:none;stroke:#1FD3AC" />
<path d="M979.79,291.28L984.79,291.28" style="fill:none;stroke:#1FD3AC" />
<path d="M991.56,282.47L991.56,305.99" style="fill:none;stroke:#1FD3AC" />
<path d="M989.06,282.47L994.06,282.47" style="fill:none;stroke:#1FD3AC" />
<path d="M989.06,305.99L994.06,305.99" style="fill:none;stroke:#1FD3AC" />
<path d="M1000.8,274.26L1000.8,288.38" style="fill:none;stroke:#1FD3AC" />
<path d="M998.33,274.26L1003.3,274.26" style="fill:none;stroke:#1FD3AC" />
<path d="M998.33,288.38L1003.3,288.38" style="fill:none;stroke:#1FD3AC" />
<path d="M1010.1,271.71L1010.1,287.1" style="fill:none;stroke:#1FD3AC" />
<path d="M1007.6,271.71L1012.6,271.71" style="fill:none;stroke:#1FD3AC" />
<path d="M1007.6,287.1L1012.6,287.1" style="fill:none;stroke:#1FD3AC" />
<path d="M1019.4,276.82L1019.4,287.12" style="fill:none;stroke:#1FD3AC" />
<path d="M1016.9,276.82L1021.9,276.82" style="fill:none;stroke:#1FD3AC" />
<path d="M1016.9,287.12L1021.9,287.12" style="fill:none;stroke:#1FD3AC" />
<path d="M1028.6,288.85L1028.6,293.92" style="fill:none;stroke:#1FD3AC" />
<path d="M1026.1,288.85L1031.1,288.85" style="fill:none;stroke:#1FD3AC" />
<path d="M1026.1,293.92L1031.1,293.92" style="fill:none;stroke:#1FD3AC" />
<path d="M1037.9,283.69L1037.9,292.67" style="fill:none;stroke:#1FD3AC" />
<path d="M1035.4,283.69L1040.4,283.69" style="fill:none;stroke:#1FD3AC" />
<path d="M1035.4,292.67L1040.4,292.67" style="fill:none;stroke:#1FD3AC" />
<path d="M1047.2,289.1L1047.2,303.84" style="fill:none;stroke:#1FD3AC" />
<path d="M1044.7,289.1L1049.7,289.1" style="fill:none;stroke:#1FD3AC" />
<path d="M1044.7,303.84L1049.7,303.84" style="fill:none;stroke:#1FD3AC" />
<path d="M1056.5,311.97L1056.5,320.52" style="fill:none;stroke:#1FD3AC" />
<path d="M1054,311.97L1059,311.97" style="fill:none;stroke:#1FD3AC" />
<path d="M1054,320.52L1059,320.52" style="fill:none;stroke:#1FD3AC" />
<path d="M1065.7,309.68L1065.7,324.58" style="fill:none;stroke:#1FD3AC" />
<path d="M1063.2,309.68L1068.2,309.68" style="fill:none;stroke:#1FD3AC" />
<path d="M1063.2,324.58L1068.2,324.58" style="fill:none;stroke:#1FD3AC" />
<path d="M1075,330.55L1075,340.44" style="fill:none;stroke:#1FD3AC" />
<path d="M1072.5,330.55L1077.5,330.55" style="fill:none;stroke:#1FD3AC" />
<path d="M1072.5,340.44L1077.5,340.44" style="fill:none;stroke:#1FD3AC" />
<path d="M180.69,139.81A5,5 0 1 1 170.69,139.81A5,5 0 1 1 180.69,139.81Z" style="fill:#1FD3AC" />
<path d="M189.96,159.4A5,5 0 1 1 179.96,159.4A5,5 0 1 1 189.96,159.4Z" style="fill:#1FD3AC" />
<path d="M199.23,171.13A5,5 0 1 1 189.23,171.13A5,5 0 1 1 199.23,171.13Z" style="fill:#1FD3AC" />
<path d="M208.5,172.79A5,5 0 1 1 198.5,172.79A5,5 0 1 1 208.5,172.79Z" style="fill:#1FD3AC" />
<path d="M217.77,176.05A5,5 0 1 1 207.77,176.05A5,5 0 1 1 217.77,176.05Z" style="fill:#1FD3AC" />
<path d="M227.04,174.09A5,5 0 1 1 217.04,174.09A5,5 0 1 1 227.04,174.09Z" style="fill:#1FD3AC" />
<path d="M236.32,185A5,5 0 1 1 226.32,185A5,5 0 1 1 236.32,185Z" style="fill:#1FD3AC" />
<path d="M245.59,183.03A5,5 0 1 1 235.59,183.03A5,5 0 1 1 245.59,183.03Z" style="fill:#1FD3AC" />
<path d="M254.86,189.48A5,5 0 1 1 244.86,189.48A5,5 0 1 1 254.86,189.48Z" style="fill:#1FD3AC" />
<path d="M264.13,185.62A5,5 0 1 1 254.13,185.62A5,5 0 1 1 264.13,185.62Z" style="fill:#1FD3AC" />
<path d="M273.4,182.97A5,5 0 1 1 263.4,182.97A5,5 0 1 1 273.4,182.97Z" style="fill:#1FD3AC" />
<path d="M282.67,196.2A5,5 0 1 1 272.67,196.2A5,5 0 1 1 282.67,196.2Z" style="fill:#1FD3AC" />
<path d="M291.94,181.19A5,5 0 1 1 281.94,181.19A5,5 0 1 1 291.94,181.19Z" style="fill:#1FD3AC" />
<path d="M301.21,186.31A5,5 0 1 1 291.21,186.31A5,5 0 1 1 301.21,186.31Z" style="fill:#1FD3AC" />
<path d="M310.49,186.5A5,5 0 1 1 300.49,186.5A5,5 0 1 1 310.49,186.5Z" style="fill:#1FD3AC" />
<path d="M319.76,181.8A5,5 0 1 1 309.76,181.8A5,5 0 1 1 319.76,181.8Z" style="fill:#1FD3AC" />
<path d="M329.03,183.53A5,5 0 1 1 319.03,183.53A5,5 0 1 1 329.03,183.53Z" style="fill:#1FD3AC" />
<path d="M338.3,183.92A5,5 0 1 1 328.3,183.92A5,5 0 1 1 338.3,183.92Z" style="fill:#1FD3AC" />
<path d="M347.57,185.54A5,5 0 1 1 337.57,185.54A5,5 0 1 1 347.57,185.54Z" style="fill:#1FD3AC" />
<path d="M356.84,199.11A5,5 0 1 1 346.84,199.11A5,5 0 1 1 356.84,199.11Z" style="fill:#1FD3AC" />
<path d="M366.11,202.3A5,5 0 1 1 356.11,202.3A5,5 0 1 1 366.11,202.3Z" style="fill:#1FD3AC" />
<path d="M375.38,199.61A5,5 0 1 1 365.38,199.61A5,5 0 1 1 375.38,199.61Z" style="fill:#1FD3AC" />
<path d="M384.66,202.58A5,5 0 1 1 374.66,202.58A5,5 0 1 1 384.66,202.58Z" style="fill:#1FD3AC" />
<path d="M393.93,199.52A5,5 0 1 1 383.93,199.52A5,5 0 1 1 393.93,199.52Z" style="fill:#1FD3AC" />
<path d="M403.2,209.19A5,5 0 1 1 393.2,209.19A5,5 0 1 1 403.2,209.19Z" style="fill:#1FD3AC" />
<path d="M412.47,192.6A5,5 0 1 1 402.47,192.6A5,5 0 1 1 412.47,192.6Z" style="fill:#1FD3AC" />
<path d="M421.74,197.58A5,5 0 1 1 411.74,197.58A5,5 0 1 1 421.74,197.58Z" style="fill:#1FD3AC" />
<path d="M431.01,204.57A5,5 0 1 1 421.01,204.57A5,5 0 1 1 431.01,204.57Z" style="fill:#1FD3AC" />
<path d="M440.28,209.33A5,5 0 1 1 430.28,209.33A5,5 0 1 1 440.28,209.33Z" style="fill:#1FD3AC" />
<path d="M449.55,214.85A5,5 0 1 1 439.55,214.85A5,5 0 1 1 449.55,214.85Z" style="fill:#1FD3AC" />
<path d="M458.83,234.08A5,5 0 1 1 448.83,234.08A5,5 0 1 1 458.83,234.08Z" style="fill:#1FD3AC" />
<path d="M468.1,235.48A5,5 0 1 1 458.1,235.48A5,5 0 1 1 468.1,235.48Z" style="fill:#1FD3AC" />
<path d="M477.37,253.4A5,5 0 1 1 467.37,253.4A5,5 0 1 1 477.37,253.4Z" style="fill:#1FD3AC" />
<path d="M486.64,266.82A5,5 0 1 1 476.64,266.82A5,5 0 1 1 486.64,266.82Z" style="fill:#1FD3AC" />
<path d="M495.91,271.27A5,5 0 1 1 485.91,271.27A5,5 0 1 1 495.91,271.27Z" style="fill:#1FD3AC" />
<path d="M505.18,289.2A5,5 0 1 1 495.18,289.2A5,5 0 1 1 505.18,289.2Z" style="fill:#1FD3AC" />
<path d="M514.45,320.13A5,5 0 1 1 504.45,320.13A5,5 0 1 1 514.45,320.13Z" style="fill:#1FD3AC" />
<path d="M523.72,349.55A5,5 0 1 1 513.72,349.55A5,5 0 1 1 523.72,349.55Z" style="fill:#1FD3AC" />
<path d="M533,385.45A5,5 0 1 1 523,385.45A5,5 0 1 1 533,385.45Z" style="fill:#1FD3AC" />
<path d="M542.27,413.37A5,5 0 1 1 532.27,413.37A5,5 0 1 1 542.27,413.37Z" style="fill:#1FD3AC" />
<path d="M551.54,455.19A5,5 0 1 1 541.54,455.19A5,5 0 1 1 551.54,455.19Z" style="fill:#1FD3AC" />
<path d="M560.81,501.15A5,5 0 1 1 550.81,501.15A5,5 0 1 1 560.81,501.15Z" style="fill:#1FD3AC" />
<path d="M570.08,512.23A5,5 0 1 1 560.08,512.23A5,5 0 1 1 570.08,512.23Z" style="fill:#1FD3AC" />
<path d="M579.35,562.74A5,5 0 1 1 569.35,562.74A5,5 0 1 1 579.35,562.74Z" style="fill:#1FD3AC" />
<path d="M588.62,591.75A5,5 0 1 1 578.62,591.75A5,5 0 1 1 588.62,591.75Z" style="fill:#1FD3AC" />
<path d="M597.89,666.19A5,5 0 1 1 587.89,666.19A5,5 0 1 1 597.89,666.19Z" style="fill:#1FD3AC" />
<path d="M607.17,724.94A5,5 0 1 1 597.17,724.94A5,5 0 1 1 607.17,724.94Z" style="fill:#1FD3AC" />
<path d="M616.44,764.38A5,5 0 1 1 606.44,764.38A5,5 0 1 1 616.44,764.38Z" style="fill:#1FD3AC" />
<path d="M625.71,748.63A5,5 0 1 1 615.71,748.63A5,5 0 1 1 625.71,748.63Z" style="fill:#1FD3AC" />
<path d="M634.98,729.22A5,5 0 1 1 624.98,729.22A5,5 0 1 1 634.98,729.22Z" style="fill:#1FD3AC" />
<path d="M644.25,676.61A5,5 0 1 1 634.25,676.61A5,5 0 1 1 644.25,676.61Z" style="fill:#1FD3AC" />
<path d="M653.52,638.93A5,5 0 1 1 643.52,638.93A5,5 0 1 1 653.52,638.93Z" style="fill:#1FD3AC" />
<path d="M662.79,608.53A5,5 0 1 1 652.79,608.53A5,5 0 1 1 662.79,608.53Z" style="fill:#1FD3AC" />
<path d="M672.06,570.93A5,5 0 1 1 662.06,570.93A5,5 0 1 1 672.06,570.93Z" style="fill:#1FD3AC" />
<path d="M681.34,514.79A5,5 0 1 1 671.34,514.79A5,5 0 1 1 681.34,514.79Z" style="fill:#1FD3AC" />
<path d="M690.61,483.11A5,5 0 1 1 680.61,483.11A5,5 0 1 1 690.61,483.11Z" style="fill:#1FD3AC" />
<path d="M699.88,436.78A5,5 0 1 1 689.88,436.78A5,5 0 1 1 699.88,436.78Z" style="fill:#1FD3AC" />
<path d="M709.15,422.1A5,5 0 1 1 699.15,422.1A5,5 0 1 1 709.15,422.1Z" style="fill:#1FD3AC" />
<path d="M718.42,379.03A5,5 0 1 1 708.42,379.03A5,5 0 1 1 718.42,379.03Z" style="fill:#1FD3AC" />
<path d="M727.69,341.81A5,5 0 1 1 717.69,341.81A5,5 0 1 1 727.69,341.81Z" style="fill:#1FD3AC" />
<path d="M736.96,330.68A5,5 0 1 1 726.96,330.68A5,5 0 1 1 736.96,330.68Z" style="fill:#1FD3AC" />
<path d="M746.23,310.66A5,5 0 1 1 736.23,310.66A5,5 0 1 1 746.23,310.66Z" style="fill:#1FD3AC" />
<path d="M755.51,296.39A5,5 0 1 1 745.51,296.39A5,5 0 1 1 755.51,296.39Z" style="fill:#1FD3AC" />
<path d="M764.78,272.36A5,5 0 1 1 754.78,272.36A5,5 0 1 1 764.78,272.36Z" style="fill:#1FD3AC" />
<path d="M774.05,260.96A5,5 0 1 1 764.05,260.96A5,5 0 1 1 774.05,260.96Z" style="fill:#1FD3AC" />
<path d="M783.32,258.07A5,5 0 1 1 773.32,258.07A5,5 0 1 1 783.32,258.07Z" style="fill:#1FD3AC" />
<path d="M792.59,257.88A5,5 0 1 1 782.59,257.88A5,5 0 1 1 792.59,257.88Z" style="fill:#1FD3AC" />
<path d="M801.86,251.04A5,5 0 1 1 791.86,251.04A5,5 0 1 1 801.86,251.04Z" style="fill:#1FD3AC" />
<path d="M811.13,259.99A5,5 0 1 1 801.13,259.99A5,5 0 1 1 811.13,259.99Z" style="fill:#1FD3AC" />
<path d="M820.4,245.49A5,5 0 1 1 810.4,245.49A5,5 0 1 1 820.4,245.49Z" style="fill:#1FD3AC" />
<path d="M829.68,229.46A5,5 0 1 1 819.68,229.46A5,5 0 1 1 829.68,229.46Z" style="fill:#1FD3AC" />
<path d="M838.95,238.51A5,5 0 1 1 828.95,238.51A5,5 0 1 1 838.95,238.51Z" style="fill:#1FD3AC" />
<path d="M848.22,240.87A5,5 0 1 1 838.22,240.87A5,5 0 1 1 848.22,240.87Z" style="fill:#1FD3AC" />
<path d="M857.49,235.81A5,5 0 1 1 847.49,235.81A5,5 0 1 1 857.49,235.81Z" style="fill:#1FD3AC" />
<path d="M866.76,233.76A5,5 0 1 1 856.76,233.76A5,5 0 1 1 866.76,233.76Z" style="fill:#1FD3AC" />
<path d="M876.03,231.19A5,5 0 1 1 866.03,231.19A5,5 0 1 1 876.03,231.19Z" style="fill:#1FD3AC" />
<path d="M885.3,222.14A5,5 0 1 1 875.3,222.14A5,5 0 1 1 885.3,222.14Z" style="fill:#1FD3AC" />
<path d="M894.57,221.72A5,5 0 1 1 884.57,221.72A5,5 0 1 1 894.57,221.72Z" style="fill:#1FD3AC" />
<path d="M903.85,243.98A5,5 0 1 1 893.85,243.98A5,5 0 1 1 903.85,243.98Z" style="fill:#1FD3AC" />
<path d="M913.12,241.23A5,5 0 1 1 903.12,241.23A5,5 0 1 1 913.12,241.23Z" style="fill:#1FD3AC" />
<path d="M922.39,238.33A5,5 0 1 1 912.39,238.33A5,5 0 1 1 922.39,238.33Z" style="fill:#1FD3AC" />
<path d="M931.66,232.5A5,5 0 1 1 921.66,232.5A5,5 0 1 1 931.66,232.5Z" style="fill:#1FD3AC" />
<path d="M940.93,248.77A5,5 0 1 1 930.93,248.77A5,5 0 1 1 940.93,248.77Z" style="fill:#1FD3AC" />
<path d="M950.2,253.92A5,5 0 1 1 940.2,253.92A5,5 0 1 1 950.2,253.92Z" style="fill:#1FD3AC" />
<path d="M959.47,261.52A5,5 0 1 1 949.47,261.52A5,5 0 1 1 959.47,261.52Z" style="fill:#1FD3AC" />
<path d="M968.74,269.96A5,5 0 1 1 958.74,269.96A5,5 0 1 1 968.74,269.96Z" style="fill:#1FD3AC" />
<path d="M978.02,276.94A5,5 0 1 1 968.02,276.94A5,5 0 1 1 978.02,276.94Z" style="fill:#1FD3AC" />
<path d="M987.29,277.34A5,5 0 1 1 977.29,277.34A5,5 0 1 1 987.29,277.34Z" style="fill:#1FD3AC" />
<path d="M996.56,294.23A5,5 0 1 1 986.56,294.23A5,5 0 1 1 996.56,294.23Z" style="fill:#1FD3AC" />
<path d="M1005.8,281.32A5,5 0 1 1 995.83,281.32A5,5 0 1 1 1005.8,281.32Z" style="fill:#1FD3AC" />
<path d="M1015.1,279.41A5,5 0 1 1 1005.1,279.41A5,5 0 1 1 1015.1,279.41Z" style="fill:#1FD3AC" />
<path d="M1024.4,281.97A5,5 0 1 1 1014.4,281.97A5,5 0 1 1 1024.4,281.97Z" style="fill:#1FD3AC" />
<path d="M1033.6,291.38A5,5 0 1 1 1023.6,291.38A5,5 0 1 1 1033.6,291.38Z" style="fill:#1FD3AC" />
<path d="M1042.9,288.18A5,5 0 1 1 1032.9,288.18A5,5 0 1 1 1042.9,288.18Z" style="fill:#1FD3AC" />
<path d="M1052.2,296.47A5,5 0 1 1 1042.2,296.47A5,5 0 1 1 1052.2,296.47Z" style="fill:#1FD3AC" />
<path d="M1061.5,316.25A5,5 0 1 1 1051.5,316.25A5,5 0 1 1 1061.5,316.25Z" style="fill:#1FD3AC" />
<path d="M1070.7,317.13A5,5 0 1 1 1060.7,317.13A5,5 0 1 1 1070.7,317.13Z" style="fill:#1FD3AC" />
<path d="M1080,335.49A5,5 0 1 1 1070,335.49A5,5 0 1 1 1080,335.49Z" style="fill:#1FD3AC" />
<path d="M175.69,974.14L1075,974.14" style="fill:none;stroke:#000000" />
<path d="M1075,108.82L1075,974.14" style="fill:none;stroke:#000000" />
<path d="M1038,942.02A8,8 0 1 1 1022,942.02A8,8 0 1 1 1038,942.02Z" style="fill:#1FD3AC" />
<text x="824.95" y="-933.54" transform="scale(1, -1)"
	style="font-family:Helvetica;font-weight:normal;font-style:normal;font-size:36px">Full Power</text>
</g>
</svg>
