<?xml version="1.0"?>
<!-- Generated by SVGo and Plotinum VG -->
<svg width="1296pt" height="1080pt" viewBox="0 0 1296 1080"
	xmlns="http://www.w3.org/2000/svg"
	xmlns:xlink="http://www.w3.org/1999/xlink">
<g transform="scale(1, -1) translate(0, -1080)">
<path d="M0,0L1296,0L1296,1080L0,1080Z" style="fill-opacity:0" />
<text x="282.28" y="-1047.6" transform="scale(1, -1)"
	style="font-family:Liberation Sans;font-variant:normal;font-weight:normal;font-style:normal;font-size:40px">1 cm UHNA3 Phase-Matching Bandwidth</text>
<text x="460.46" y="-10.732" transform="scale(1, -1)"
	style="font-family:Liberation Sans;font-variant:normal;font-weight:normal;font-style:normal;font-size:35px">Pump-Probe Separation (GHz)</text>
<text x="225.26" y="-63.857" transform="scale(1, -1)"
	style="font-family:Liberation Serif;font-variant:normal;font-weight:normal;font-style:normal;font-size:30px">5.00</text>
<text x="497.89" y="-63.857" transform="scale(1, -1)"
	style="font-family:Liberation Serif;font-variant:normal;font-weight:normal;font-style:normal;font-size:30px">15.00</text>
<text x="778.03" y="-63.857" transform="scale(1, -1)"
	style="font-family:Liberation Serif;font-variant:normal;font-weight:normal;font-style:normal;font-size:30px">25.00</text>
<text x="1058.2" y="-63.857" transform="scale(1, -1)"
	style="font-family:Liberation Serif;font-variant:normal;font-weight:normal;font-style:normal;font-size:30px">35.00</text>
<path d="M111.45,87.324L1288,87.324" style="fill:none;stroke:#000000;stroke-width:2.5" />
<g transform="rotate(90)">
<text x="306.47" y="28.369" transform="scale(1, -1)"
	style="font-family:Liberation Sans;font-variant:normal;font-weight:normal;font-style:normal;font-size:35px">Peak Spectral Density (relative)</text>
</g>
<text x="61.519" y="-80.266" transform="scale(1, -1)"
	style="font-family:Liberation Sans;font-variant:normal;font-weight:normal;font-style:normal;font-size:30px">0.0</text>
<text x="61.519" y="-242.98" transform="scale(1, -1)"
	style="font-family:Liberation Sans;font-variant:normal;font-weight:normal;font-style:normal;font-size:30px">0.2</text>
<text x="61.519" y="-405.7" transform="scale(1, -1)"
	style="font-family:Liberation Sans;font-variant:normal;font-weight:normal;font-style:normal;font-size:30px">0.4</text>
<text x="61.519" y="-568.42" transform="scale(1, -1)"
	style="font-family:Liberation Sans;font-variant:normal;font-weight:normal;font-style:normal;font-size:30px">0.6</text>
<text x="61.519" y="-731.14" transform="scale(1, -1)"
	style="font-family:Liberation Sans;font-variant:normal;font-weight:normal;font-style:normal;font-size:30px">0.8</text>
<text x="61.519" y="-893.86" transform="scale(1, -1)"
	style="font-family:Liberation Sans;font-variant:normal;font-weight:normal;font-style:normal;font-size:30px">1.0</text>
<path d="M111.56,87.824L111.56,1015.3" style="fill:none;stroke:#000000;stroke-width:2.5" />
<path d="M111.45,87.824L111.45,92.824" style="fill:none;stroke:#000000;stroke-width:2.5" />
<path d="M251.51,87.824L251.51,97.824" style="fill:none;stroke:#000000;stroke-width:2.5" />
<text x="221.96" y="-53.424" transform="scale(1, -1)"
	style="font-family:Liberation Sans;font-variant:normal;font-weight:normal;font-style:normal;font-size:30px">5.00</text>
<path d="M391.58,87.824L391.58,92.824" style="fill:none;stroke:#000000;stroke-width:2.5" />
<path d="M531.64,87.824L531.64,97.824" style="fill:none;stroke:#000000;stroke-width:2.5" />
<text x="510.43" y="-53.424" transform="scale(1, -1)"
	style="font-family:Liberation Sans;font-variant:normal;font-weight:normal;font-style:normal;font-size:30px">15.00</text>
<path d="M671.71,87.824L671.71,92.824" style="fill:none;stroke:#000000;stroke-width:2.5" />
<path d="M811.78,87.824L811.78,97.824" style="fill:none;stroke:#000000;stroke-width:2.5" />
<text x="790.56" y="-53.424" transform="scale(1, -1)"
	style="font-family:Liberation Sans;font-variant:normal;font-weight:normal;font-style:normal;font-size:30px">25.00</text>
<path d="M951.84,87.824L951.84,92.824" style="fill:none;stroke:#000000;stroke-width:2.5" />
<path d="M1091.9,87.824L1091.9,97.824" style="fill:none;stroke:#000000;stroke-width:2.5" />
<text x="1070.7" y="-53.424" transform="scale(1, -1)"
	style="font-family:Liberation Sans;font-variant:normal;font-weight:normal;font-style:normal;font-size:30px">35.00</text>
<path d="M111.45,87.824L121.45,87.824" style="fill:none;stroke:#000000;stroke-width:2.5" />
<text x="51.299" y="-79.424" transform="scale(1, -1)"
	style="font-family:Liberation Sans;font-variant:normal;font-weight:normal;font-style:normal;font-size:30px">0.0</text>
<path d="M111.45,114.94L116.45,114.94" style="fill:none;stroke:#000000;stroke-width:2.5" />
<path d="M111.45,142.06L116.45,142.06" style="fill:none;stroke:#000000;stroke-width:2.5" />
<path d="M111.45,169.18L116.45,169.18" style="fill:none;stroke:#000000;stroke-width:2.5" />
<path d="M111.45,196.3L116.45,196.3" style="fill:none;stroke:#000000;stroke-width:2.5" />
<path d="M111.45,223.42L116.45,223.42" style="fill:none;stroke:#000000;stroke-width:2.5" />
<path d="M111.45,250.54L121.45,250.54" style="fill:none;stroke:#000000;stroke-width:2.5" />
<text x="51.299" y="-242.14" transform="scale(1, -1)"
	style="font-family:Liberation Sans;font-variant:normal;font-weight:normal;font-style:normal;font-size:30px">0.2</text>
<path d="M111.45,277.66L116.45,277.66" style="fill:none;stroke:#000000;stroke-width:2.5" />
<path d="M111.45,304.78L116.45,304.78" style="fill:none;stroke:#000000;stroke-width:2.5" />
<path d="M111.45,331.9L116.45,331.9" style="fill:none;stroke:#000000;stroke-width:2.5" />
<path d="M111.45,359.02L116.45,359.02" style="fill:none;stroke:#000000;stroke-width:2.5" />
<path d="M111.45,386.14L116.45,386.14" style="fill:none;stroke:#000000;stroke-width:2.5" />
<path d="M111.45,413.26L121.45,413.26" style="fill:none;stroke:#000000;stroke-width:2.5" />
<text x="51.299" y="-404.86" transform="scale(1, -1)"
	style="font-family:Liberation Sans;font-variant:normal;font-weight:normal;font-style:normal;font-size:30px">0.4</text>
<path d="M111.45,440.38L116.45,440.38" style="fill:none;stroke:#000000;stroke-width:2.5" />
<path d="M111.45,467.5L116.45,467.5" style="fill:none;stroke:#000000;stroke-width:2.5" />
<path d="M111.45,494.62L116.45,494.62" style="fill:none;stroke:#000000;stroke-width:2.5" />
<path d="M111.45,521.74L116.45,521.74" style="fill:none;stroke:#000000;stroke-width:2.5" />
<path d="M111.45,548.86L116.45,548.86" style="fill:none;stroke:#000000;stroke-width:2.5" />
<path d="M111.45,575.98L121.45,575.98" style="fill:none;stroke:#000000;stroke-width:2.5" />
<text x="51.299" y="-567.58" transform="scale(1, -1)"
	style="font-family:Liberation Sans;font-variant:normal;font-weight:normal;font-style:normal;font-size:30px">0.6</text>
<path d="M111.45,603.1L116.45,603.1" style="fill:none;stroke:#000000;stroke-width:2.5" />
<path d="M111.45,630.22L116.45,630.22" style="fill:none;stroke:#000000;stroke-width:2.5" />
<path d="M111.45,657.34L116.45,657.34" style="fill:none;stroke:#000000;stroke-width:2.5" />
<path d="M111.45,684.46L116.45,684.46" style="fill:none;stroke:#000000;stroke-width:2.5" />
<path d="M111.45,711.58L116.45,711.58" style="fill:none;stroke:#000000;stroke-width:2.5" />
<path d="M111.45,738.7L121.45,738.7" style="fill:none;stroke:#000000;stroke-width:2.5" />
<text x="51.299" y="-730.3" transform="scale(1, -1)"
	style="font-family:Liberation Sans;font-variant:normal;font-weight:normal;font-style:normal;font-size:30px">0.8</text>
<path d="M111.45,765.82L116.45,765.82" style="fill:none;stroke:#000000;stroke-width:2.5" />
<path d="M111.45,792.94L116.45,792.94" style="fill:none;stroke:#000000;stroke-width:2.5" />
<path d="M111.45,820.06L116.45,820.06" style="fill:none;stroke:#000000;stroke-width:2.5" />
<path d="M111.45,847.18L116.45,847.18" style="fill:none;stroke:#000000;stroke-width:2.5" />
<path d="M111.45,874.3L116.45,874.3" style="fill:none;stroke:#000000;stroke-width:2.5" />
<path d="M111.45,901.42L121.45,901.42" style="fill:none;stroke:#000000;stroke-width:2.5" />
<text x="51.299" y="-893.02" transform="scale(1, -1)"
	style="font-family:Liberation Sans;font-variant:normal;font-weight:normal;font-style:normal;font-size:30px">1.0</text>
<path d="M298.2,1015.3L299.24,1000.7L300.28,986.23L301.31,971.88L302.35,957.67L303.39,943.58L304.43,929.63L305.46,915.82L306.5,902.14L307.54,888.6L308.58,875.19L309.61,861.93L310.65,848.81L311.69,835.82L312.73,822.98L313.76,810.28L314.8,797.72L315.84,785.31L316.88,773.04L317.91,760.92L318.95,748.94L319.99,737.11L321.03,725.43L322.06,713.89L323.1,702.5L324.14,691.26L325.18,680.17L326.21,669.23L327.25,658.44L328.29,647.8L329.33,637.31L330.36,626.97L331.4,616.78L332.44,606.74L333.48,596.85L334.51,587.11L335.55,577.53L336.59,568.09L337.63,558.81L338.66,549.68L339.7,540.69L340.74,531.86L341.78,523.18L342.81,514.65L343.85,506.27L344.89,498.04L345.93,489.97L346.96,482.04L348,474.26L349.04,466.62L350.08,459.14L351.12,451.81L352.15,444.62L353.19,437.58L354.23,430.68L355.27,423.93L356.3,417.33L357.34,410.87L358.38,404.56L359.42,398.39L360.45,392.36L361.49,386.48L362.53,380.73L363.57,375.13L364.6,369.67L365.64,364.34L366.68,359.15L367.72,354.11L368.75,349.19L369.79,344.41L370.83,339.77L371.87,335.26L372.9,330.88L373.94,326.64L374.98,322.52L376.02,318.54L377.05,314.68L378.09,310.95L379.13,307.34L380.17,303.86L381.2,300.5L382.24,297.27L383.28,294.16L384.32,291.17L385.35,288.29L386.39,285.54L387.43,282.9L388.47,280.37L389.5,277.96L390.54,275.66L391.58,273.47L392.62,271.39L393.65,269.43L394.69,267.56L395.73,265.81L396.77,264.15L397.8,262.6L398.84,261.15L399.88,259.8L400.92,258.55L401.95,257.4L402.99,256.34L404.03,255.38L405.07,254.5L406.1,253.72L407.14,253.03L408.18,252.43L409.22,251.91L410.25,251.48L411.29,251.13L412.33,250.87L413.37,250.68L414.4,250.57L415.44,250.54L416.48,250.59L417.52,250.71L418.55,250.9L419.59,251.16L420.63,251.5L421.67,251.9L422.7,252.37L423.74,252.9L424.78,253.49L425.82,254.15L426.85,254.87L427.89,255.64L428.93,256.47L429.97,257.36L431,258.3L432.04,259.3L433.08,260.34L434.12,261.44L435.15,262.58L436.19,263.77L437.23,265L438.27,266.27L439.3,267.59L440.34,268.95L441.38,270.34L442.42,271.78L443.45,273.24L444.49,274.75L445.53,276.28L446.57,277.85L447.6,279.44L448.64,281.07L449.68,282.72L450.72,284.4L451.75,286.1L452.79,287.82L453.83,289.56L454.87,291.33L455.91,293.11L456.94,294.91L457.98,296.72L459.02,298.55L460.06,300.4L461.09,302.25L462.13,304.12L463.17,305.99L464.21,307.87L465.24,309.76L466.28,311.66L467.32,313.56L468.36,315.46L469.39,317.36L470.43,319.27L471.47,321.17L472.51,323.08L473.54,324.98L474.58,326.87L475.62,328.76L476.66,330.65L477.69,332.53L478.73,334.4L479.77,336.26L480.81,338.11L481.84,339.95L482.88,341.78L483.92,343.59L484.96,345.4L485.99,347.18L487.03,348.95L488.07,350.71L489.11,352.44L490.14,354.16L491.18,355.86L492.22,357.54L493.26,359.2L494.29,360.84L495.33,362.45L496.37,364.04L497.41,365.61L498.44,367.16L499.48,368.68L500.52,370.17L501.56,371.64L502.59,373.08L503.63,374.49L504.67,375.87L505.71,377.23L506.74,378.56L507.78,379.86L508.82,381.12L509.86,382.36L510.89,383.57L511.93,384.74L512.97,385.88L514.01,386.99L515.04,388.07L516.08,389.12L517.12,390.13L518.16,391.1L519.19,392.05L520.23,392.96L521.27,393.83L522.31,394.67L523.34,395.48L524.38,396.25L525.42,396.98L526.46,397.68L527.49,398.35L528.53,398.97L529.57,399.57L530.61,400.12L531.64,400.64L532.68,401.12L533.72,401.57L534.76,401.98L535.79,402.36L536.83,402.69L537.87,403L538.91,403.26L539.94,403.49L540.98,403.69L542.02,403.84L543.06,403.97L544.09,404.05L545.13,404.1L546.17,404.12L547.21,404.1L548.24,404.04L549.28,403.95L550.32,403.83L551.36,403.67L552.39,403.47L553.43,403.24L554.47,402.98L555.51,402.69L556.54,402.36L557.58,402L558.62,401.6L559.66,401.18L560.7,400.72L561.73,400.23L562.77,399.71L563.81,399.16L564.85,398.57L565.88,397.96L566.92,397.32L567.96,396.65L569,395.94L570.03,395.22L571.07,394.46L572.11,393.67L573.15,392.86L574.18,392.02L575.22,391.16L576.26,390.27L577.3,389.35L578.33,388.41L579.37,387.45L580.41,386.46L581.45,385.45L582.48,384.42L583.52,383.36L584.56,382.28L585.6,381.18L586.63,380.06L587.67,378.92L588.71,377.77L589.75,376.59L590.78,375.39L591.82,374.18L592.86,372.95L593.9,371.7L594.93,370.44L595.97,369.16L597.01,367.87L598.05,366.56L599.08,365.24L600.12,363.9L601.16,362.56L602.2,361.2L603.23,359.83L604.27,358.45L605.31,357.06L606.35,355.66L607.38,354.25L608.42,352.83L609.46,351.41L610.5,349.98L611.53,348.54L612.57,347.09L613.61,345.64L614.65,344.19L615.68,342.73L616.72,341.27L617.76,339.8L618.8,338.33L619.83,336.86L620.87,335.39L621.91,333.92L622.95,332.45L623.98,330.97L625.02,329.5L626.06,328.03L627.1,326.57L628.13,325.1L629.17,323.64L630.21,322.18L631.25,320.73L632.28,319.28L633.32,317.83L634.36,316.39L635.4,314.96L636.43,313.53L637.47,312.12L638.51,310.71L639.55,309.3L640.58,307.91L641.62,306.52L642.66,305.15L643.7,303.78L644.73,302.43L645.77,301.08L646.81,299.75L647.85,298.43L648.88,297.12L649.92,295.82L650.96,294.54L652,293.27L653.03,292.01L654.07,290.77L655.11,289.54L656.15,288.33L657.18,287.13L658.22,285.95L659.26,284.78L660.3,283.63L661.33,282.5L662.37,281.38L663.41,280.28L664.45,279.19L665.49,278.13L666.52,277.08L667.56,276.05L668.6,275.04L669.64,274.05L670.67,273.07L671.71,272.12L672.75,271.18L673.79,270.27L674.82,269.37L675.86,268.49L676.9,267.64L677.94,266.8L678.97,265.98L680.01,265.19L681.05,264.41L682.09,263.66L683.12,262.92L684.16,262.21L685.2,261.52L686.24,260.85L687.27,260.2L688.31,259.57L689.35,258.96L690.39,258.38L691.42,257.81L692.46,257.27L693.5,256.75L694.54,256.25L695.57,255.77L696.61,255.31L697.65,254.88L698.69,254.46L699.72,254.07L700.76,253.7L701.8,253.34L702.84,253.02L703.87,252.71L704.91,252.42L705.95,252.15L706.99,251.91L708.02,251.68L709.06,251.48L710.1,251.3L711.14,251.13L712.17,250.99L713.21,250.87L714.25,250.76L715.29,250.68L716.32,250.62L717.36,250.57L718.4,250.55L719.44,250.54L720.47,250.56L721.51,250.59L722.55,250.64L723.59,250.71L724.62,250.8L725.66,250.9L726.7,251.02L727.74,251.16L728.77,251.32L729.81,251.49L730.85,251.69L731.89,251.89L732.92,252.12L733.96,252.35L735,252.61L736.04,252.88L737.07,253.16L738.11,253.46L739.15,253.78L740.19,254.11L741.22,254.45L742.26,254.81L743.3,255.17L744.34,255.56L745.37,255.95L746.41,256.36L747.45,256.78L748.49,257.21L749.52,257.65L750.56,258.1L751.6,258.57L752.64,259.04L753.67,259.52L754.71,260.02L755.75,260.52L756.79,261.03L757.82,261.55L758.86,262.08L759.9,262.62L760.94,263.16L761.97,263.71L763.01,264.27L764.05,264.83L765.09,265.41L766.12,265.98L767.16,266.56L768.2,267.15L769.24,267.74L770.28,268.34L771.31,268.94L772.35,269.55L773.39,270.15L774.43,270.76L775.46,271.38L776.5,271.99L777.54,272.61L778.58,273.23L779.61,273.85L780.65,274.48L781.69,275.1L782.73,275.72L783.76,276.34L784.8,276.97L785.84,277.59L786.88,278.21L787.91,278.83L788.95,279.45L789.99,280.06L791.03,280.68L792.06,281.29L793.1,281.9L794.14,282.5L795.18,283.1L796.21,283.7L797.25,284.3L798.29,284.88L799.33,285.47L800.36,286.05L801.4,286.62L802.44,287.19L803.48,287.76L804.51,288.31L805.55,288.86L806.59,289.41L807.63,289.95L808.66,290.48L809.7,291L810.74,291.52L811.78,292.03L812.81,292.53L813.85,293.02L814.89,293.5L815.93,293.98L816.96,294.44L818,294.9L819.04,295.35L820.08,295.79L821.11,296.21L822.15,296.63L823.19,297.04L824.23,297.44L825.26,297.83L826.3,298.21L827.34,298.58L828.38,298.93L829.41,299.28L830.45,299.61L831.49,299.94L832.53,300.25L833.56,300.55L834.6,300.84L835.64,301.12L836.68,301.39L837.71,301.64L838.75,301.88L839.79,302.12L840.83,302.33L841.86,302.54L842.9,302.74L843.94,302.92L844.98,303.09L846.01,303.25L847.05,303.39L848.09,303.53L849.13,303.65L850.16,303.75L851.2,303.85L852.24,303.93L853.28,304.01L854.31,304.06L855.35,304.11L856.39,304.14L857.43,304.17L858.46,304.17L859.5,304.17L860.54,304.16L861.58,304.13L862.61,304.09L863.65,304.04L864.69,303.97L865.73,303.89L866.76,303.81L867.8,303.71L868.84,303.59L869.88,303.47L870.91,303.33L871.95,303.19L872.99,303.03L874.03,302.86L875.07,302.68L876.1,302.48L877.14,302.28L878.18,302.07L879.22,301.84L880.25,301.61L881.29,301.36L882.33,301.1L883.37,300.84L884.4,300.56L885.44,300.27L886.48,299.97L887.52,299.67L888.55,299.35L889.59,299.03L890.63,298.69L891.67,298.35L892.7,298L893.74,297.64L894.78,297.27L895.82,296.89L896.85,296.5L897.89,296.11L898.93,295.71L899.97,295.3L901,294.88L902.04,294.46L903.08,294.03L904.12,293.59L905.15,293.15L906.19,292.7L907.23,292.24L908.27,291.78L909.3,291.31L910.34,290.84L911.38,290.36L912.42,289.88L913.45,289.39L914.49,288.9L915.53,288.4L916.57,287.9L917.6,287.4L918.64,286.89L919.68,286.38L920.72,285.86L921.75,285.34L922.79,284.82L923.83,284.3L924.87,283.77L925.9,283.25L926.94,282.72L927.98,282.18L929.02,281.65L930.05,281.12L931.09,280.58L932.13,280.05L933.17,279.51L934.2,278.97L935.24,278.44L936.28,277.9L937.32,277.36L938.35,276.83L939.39,276.29L940.43,275.76L941.47,275.22L942.5,274.69L943.54,274.16L944.58,273.63L945.62,273.11L946.65,272.58L947.69,272.06L948.73,271.54L949.77,271.02L950.8,270.51L951.84,270L952.88,269.5L953.92,268.99L954.95,268.49L955.99,268L957.03,267.51L958.07,267.02L959.1,266.54L960.14,266.06L961.18,265.59L962.22,265.12L963.25,264.66L964.29,264.2L965.33,263.75L966.37,263.3L967.4,262.86L968.44,262.43L969.48,262L970.52,261.58L971.55,261.16L972.59,260.76L973.63,260.35L974.67,259.96L975.71,259.57L976.74,259.19L977.78,258.82L978.82,258.45L979.86,258.09L980.89,257.74L981.93,257.39L982.97,257.06L984.01,256.73L985.04,256.41L986.08,256.09L987.12,255.79L988.16,255.49L989.19,255.2L990.23,254.92L991.27,254.65L992.31,254.39L993.34,254.13L994.38,253.89L995.42,253.65L996.46,253.42L997.49,253.2L998.53,252.99L999.57,252.78L1000.6,252.59L1001.6,252.4L1002.7,252.23L1003.7,252.06L1004.8,251.9L1005.8,251.75L1006.8,251.61L1007.9,251.47L1008.9,251.35L1009.9,251.24L1011,251.13L1012,251.03L1013.1,250.95L1014.1,250.87L1015.1,250.8L1016.2,250.73L1017.2,250.68L1018.2,250.64L1019.3,250.6L1020.3,250.57L1021.4,250.55L1022.4,250.54L1023.4,250.54L1024.5,250.55L1025.5,250.57L1026.5,250.59L1027.6,250.62L1028.6,250.66L1029.7,250.71L1030.7,250.76L1031.7,250.83L1032.8,250.9L1033.8,250.98L1034.8,251.07L1035.9,251.16L1036.9,251.26L1038,251.37L1039,251.49L1040,251.61L1041.1,251.74L1042.1,251.88L1043.1,252.03L1044.2,252.18L1045.2,252.34L1046.3,252.5L1047.3,252.67L1048.3,252.85L1049.4,253.03L1050.4,253.22L1051.4,253.42L1052.5,253.62L1053.5,253.83L1054.6,254.04L1055.6,254.26L1056.6,254.48L1057.7,254.7L1058.7,254.94L1059.7,255.17L1060.8,255.42L1061.8,255.66L1062.9,255.91L1063.9,256.17L1064.9,256.43L1066,256.69L1067,256.95L1068,257.22L1069.1,257.5L1070.1,257.77L1071.2,258.05L1072.2,258.34L1073.2,258.62L1074.3,258.91L1075.3,259.2L1076.3,259.49L1077.4,259.79L1078.4,260.08L1079.5,260.38L1080.5,260.68L1081.5,260.98L1082.6,261.29L1083.6,261.59L1084.6,261.89L1085.7,262.2L1086.7,262.51L1087.8,262.81L1088.8,263.12L1089.8,263.43L1090.9,263.74L1091.9,264.04L1092.9,264.35L1094,264.66L1095,264.96L1096.1,265.27L1097.1,265.57L1098.1,265.88L1099.2,266.18L1100.2,266.48L1101.2,266.78L1102.3,267.08L1103.3,267.38L1104.4,267.67L1105.4,267.96L1106.4,268.25L1107.5,268.54L1108.5,268.83L1109.5,269.11L1110.6,269.39L1111.6,269.67L1112.7,269.94L1113.7,270.21L1114.7,270.48L1115.8,270.75L1116.8,271.01L1117.8,271.26L1118.9,271.52L1119.9,271.77L1121,272.01L1122,272.26L1123,272.49L1124.1,272.73L1125.1,272.96L1126.1,273.18L1127.2,273.4L1128.2,273.62L1129.3,273.83L1130.3,274.03L1131.3,274.24L1132.4,274.43L1133.4,274.62L1134.4,274.81L1135.5,274.99L1136.5,275.16L1137.6,275.33L1138.6,275.5L1139.6,275.66L1140.7,275.81L1141.7,275.96L1142.7,276.1L1143.8,276.23L1144.8,276.36L1145.9,276.49L1146.9,276.61L1147.9,276.72L1149,276.82L1150,276.92L1151,277.02L1152.1,277.11L1153.1,277.19L1154.2,277.26L1155.2,277.33L1156.2,277.4L1157.3,277.45L1158.3,277.5L1159.3,277.55L1160.4,277.59L1161.4,277.62L1162.5,277.64L1163.5,277.66L1164.5,277.68L1165.6,277.68L1166.6,277.68L1167.6,277.68L1168.7,277.67L1169.7,277.65L1170.8,277.62L1171.8,277.59L1172.8,277.56L1173.9,277.52L1174.9,277.47L1175.9,277.41L1177,277.35L1178,277.28L1179.1,277.21L1180.1,277.13L1181.1,277.05L1182.2,276.96L1183.2,276.86L1184.2,276.76L1185.3,276.65L1186.3,276.54L1187.4,276.42L1188.4,276.3L1189.4,276.17L1190.5,276.04L1191.5,275.9L1192.5,275.75L1193.6,275.6L1194.6,275.45L1195.7,275.29L1196.7,275.12L1197.7,274.95L1198.8,274.78L1199.8,274.6L1200.8,274.42L1201.9,274.23L1202.9,274.04L1204,273.84L1205,273.64L1206,273.44L1207.1,273.23L1208.1,273.02L1209.1,272.8L1210.2,272.58L1211.2,272.36L1212.3,272.13L1213.3,271.9L1214.3,271.67L1215.4,271.43L1216.4,271.19L1217.4,270.95L1218.5,270.7L1219.5,270.46L1220.6,270.21L1221.6,269.95L1222.6,269.7L1223.7,269.44L1224.7,269.18L1225.7,268.92L1226.8,268.66L1227.8,268.39L1228.9,268.13L1229.9,267.86L1230.9,267.59L1232,267.32L1233,267.05L1234,266.77L1235.1,266.5L1236.1,266.23L1237.2,265.95L1238.2,265.67L1239.2,265.4L1240.3,265.12L1241.3,264.84L1242.3,264.57L1243.4,264.29L1244.4,264.01L1245.5,263.74L1246.5,263.46L1247.5,263.19L1248.6,262.91L1249.6,262.64L1250.6,262.36L1251.7,262.09L1252.7,261.82L1253.8,261.55L1254.8,261.28L1255.8,261.01L1256.9,260.74L1257.9,260.48L1258.9,260.22L1260,259.95L1261,259.7L1262.1,259.44L1263.1,259.18L1264.1,258.93L1265.2,258.68L1266.2,258.43L1267.2,258.18L1268.3,257.94L1269.3,257.7L1270.4,257.46L1271.4,257.23L1272.4,257L1273.5,256.77L1274.5,256.54L1275.5,256.32L1276.6,256.1L1277.6,255.88L1278.7,255.67L1279.7,255.46L1280.7,255.26L1281.8,255.06L1282.8,254.86L1283.8,254.66L1284.9,254.47L1285.9,254.29L1287,254.1L1288,253.93" style="fill:none;stroke:#FF4E60;stroke-width:10" />
<path d="M259.51,864.31A8,8 0 1 1 243.51,864.31A8,8 0 1 1 259.51,864.31Z" style="fill:#1FD3AC" />
<path d="M273.52,725.49A8,8 0 1 1 257.52,725.49A8,8 0 1 1 273.52,725.49Z" style="fill:#1FD3AC" />
<path d="M287.53,658.53A8,8 0 1 1 271.53,658.53A8,8 0 1 1 287.53,658.53Z" style="fill:#1FD3AC" />
<path d="M301.53,622.75A8,8 0 1 1 285.53,622.75A8,8 0 1 1 301.53,622.75Z" style="fill:#1FD3AC" />
<path d="M315.54,541.72A8,8 0 1 1 299.54,541.72A8,8 0 1 1 315.54,541.72Z" style="fill:#1FD3AC" />
<path d="M329.55,467.94A8,8 0 1 1 313.55,467.94A8,8 0 1 1 329.55,467.94Z" style="fill:#1FD3AC" />
<path d="M343.55,422.64A8,8 0 1 1 327.55,422.64A8,8 0 1 1 343.55,422.64Z" style="fill:#1FD3AC" />
<path d="M357.56,369.06A8,8 0 1 1 341.56,369.06A8,8 0 1 1 357.56,369.06Z" style="fill:#1FD3AC" />
<path d="M371.57,322.08A8,8 0 1 1 355.57,322.08A8,8 0 1 1 371.57,322.08Z" style="fill:#1FD3AC" />
<path d="M385.57,253.88A8,8 0 1 1 369.57,253.88A8,8 0 1 1 385.57,253.88Z" style="fill:#1FD3AC" />
<path d="M399.58,200.42A8,8 0 1 1 383.58,200.42A8,8 0 1 1 399.58,200.42Z" style="fill:#1FD3AC" />
<path d="M413.59,177.53A8,8 0 1 1 397.59,177.53A8,8 0 1 1 413.59,177.53Z" style="fill:#1FD3AC" />
<path d="M427.59,152.13A8,8 0 1 1 411.59,152.13A8,8 0 1 1 427.59,152.13Z" style="fill:#1FD3AC" />
<path d="M441.6,148.64A8,8 0 1 1 425.6,148.64A8,8 0 1 1 441.6,148.64Z" style="fill:#1FD3AC" />
<path d="M455.6,189.97A8,8 0 1 1 439.6,189.97A8,8 0 1 1 455.6,189.97Z" style="fill:#1FD3AC" />
<path d="M469.61,211.65A8,8 0 1 1 453.61,211.65A8,8 0 1 1 469.61,211.65Z" style="fill:#1FD3AC" />
<path d="M483.62,229.32A8,8 0 1 1 467.62,229.32A8,8 0 1 1 483.62,229.32Z" style="fill:#1FD3AC" />
<path d="M497.62,254.48A8,8 0 1 1 481.62,254.48A8,8 0 1 1 497.62,254.48Z" style="fill:#1FD3AC" />
<path d="M511.63,267.72A8,8 0 1 1 495.63,267.72A8,8 0 1 1 511.63,267.72Z" style="fill:#1FD3AC" />
<path d="M525.64,275.19A8,8 0 1 1 509.64,275.19A8,8 0 1 1 525.64,275.19Z" style="fill:#1FD3AC" />
<path d="M539.64,269.68A8,8 0 1 1 523.64,269.68A8,8 0 1 1 539.64,269.68Z" style="fill:#1FD3AC" />
<path d="M553.65,269.18A8,8 0 1 1 537.65,269.18A8,8 0 1 1 553.65,269.18Z" style="fill:#1FD3AC" />
<path d="M567.66,274.38A8,8 0 1 1 551.66,274.38A8,8 0 1 1 567.66,274.38Z" style="fill:#1FD3AC" />
<path d="M581.66,266.49A8,8 0 1 1 565.66,266.49A8,8 0 1 1 581.66,266.49Z" style="fill:#1FD3AC" />
<path d="M595.67,259.36A8,8 0 1 1 579.67,259.36A8,8 0 1 1 595.67,259.36Z" style="fill:#1FD3AC" />
<path d="M609.68,245.64A8,8 0 1 1 593.68,245.64A8,8 0 1 1 609.68,245.64Z" style="fill:#1FD3AC" />
<path d="M623.68,231.24A8,8 0 1 1 607.68,231.24A8,8 0 1 1 623.68,231.24Z" style="fill:#1FD3AC" />
<path d="M637.69,215.56A8,8 0 1 1 621.69,215.56A8,8 0 1 1 637.69,215.56Z" style="fill:#1FD3AC" />
<path d="M651.7,200.07A8,8 0 1 1 635.7,200.07A8,8 0 1 1 651.7,200.07Z" style="fill:#1FD3AC" />
<path d="M665.7,184.54A8,8 0 1 1 649.7,184.54A8,8 0 1 1 665.7,184.54Z" style="fill:#1FD3AC" />
<path d="M679.71,160.83A8,8 0 1 1 663.71,160.83A8,8 0 1 1 679.71,160.83Z" style="fill:#1FD3AC" />
<path d="M693.72,144.59A8,8 0 1 1 677.72,144.59A8,8 0 1 1 693.72,144.59Z" style="fill:#1FD3AC" />
<path d="M707.72,130.96A8,8 0 1 1 691.72,130.96A8,8 0 1 1 707.72,130.96Z" style="fill:#1FD3AC" />
<path d="M721.73,119.97A8,8 0 1 1 705.73,119.97A8,8 0 1 1 721.73,119.97Z" style="fill:#1FD3AC" />
<path d="M735.74,123.54A8,8 0 1 1 719.74,123.54A8,8 0 1 1 735.74,123.54Z" style="fill:#1FD3AC" />
<path d="M749.74,129.82A8,8 0 1 1 733.74,129.82A8,8 0 1 1 749.74,129.82Z" style="fill:#1FD3AC" />
<path d="M763.75,132.08A8,8 0 1 1 747.75,132.08A8,8 0 1 1 763.75,132.08Z" style="fill:#1FD3AC" />
<path d="M777.76,141.66A8,8 0 1 1 761.76,141.66A8,8 0 1 1 777.76,141.66Z" style="fill:#1FD3AC" />
<path d="M791.76,155.61A8,8 0 1 1 775.76,155.61A8,8 0 1 1 791.76,155.61Z" style="fill:#1FD3AC" />
<path d="M805.77,160.47A8,8 0 1 1 789.77,160.47A8,8 0 1 1 805.77,160.47Z" style="fill:#1FD3AC" />
<path d="M819.78,170.15A8,8 0 1 1 803.78,170.15A8,8 0 1 1 819.78,170.15Z" style="fill:#1FD3AC" />
<path d="M833.78,173.99A8,8 0 1 1 817.78,173.99A8,8 0 1 1 833.78,173.99Z" style="fill:#1FD3AC" />
<path d="M847.79,179.79A8,8 0 1 1 831.79,179.79A8,8 0 1 1 847.79,179.79Z" style="fill:#1FD3AC" />
<path d="M861.8,180.05A8,8 0 1 1 845.8,180.05A8,8 0 1 1 861.8,180.05Z" style="fill:#1FD3AC" />
<path d="M875.8,178.41A8,8 0 1 1 859.8,178.41A8,8 0 1 1 875.8,178.41Z" style="fill:#1FD3AC" />
<path d="M889.81,176.72A8,8 0 1 1 873.81,176.72A8,8 0 1 1 889.81,176.72Z" style="fill:#1FD3AC" />
<path d="M903.82,172.52A8,8 0 1 1 887.82,172.52A8,8 0 1 1 903.82,172.52Z" style="fill:#1FD3AC" />
<path d="M917.82,166.93A8,8 0 1 1 901.82,166.93A8,8 0 1 1 917.82,166.93Z" style="fill:#1FD3AC" />
<path d="M931.83,166.31A8,8 0 1 1 915.83,166.31A8,8 0 1 1 931.83,166.31Z" style="fill:#1FD3AC" />
<path d="M945.84,158.29A8,8 0 1 1 929.84,158.29A8,8 0 1 1 945.84,158.29Z" style="fill:#1FD3AC" />
<path d="M959.84,150.35A8,8 0 1 1 943.84,150.35A8,8 0 1 1 959.84,150.35Z" style="fill:#1FD3AC" />
<path d="M973.85,141.77A8,8 0 1 1 957.85,141.77A8,8 0 1 1 973.85,141.77Z" style="fill:#1FD3AC" />
<path d="M987.86,132.65A8,8 0 1 1 971.86,132.65A8,8 0 1 1 987.86,132.65Z" style="fill:#1FD3AC" />
<path d="M1001.9,122.44A8,8 0 1 1 985.86,122.44A8,8 0 1 1 1001.9,122.44Z" style="fill:#1FD3AC" />
<path d="M1015.9,113.92A8,8 0 1 1 999.87,113.92A8,8 0 1 1 1015.9,113.92Z" style="fill:#1FD3AC" />
<path d="M1029.9,109.96A8,8 0 1 1 1013.9,109.96A8,8 0 1 1 1029.9,109.96Z" style="fill:#1FD3AC" />
<path d="M1043.9,111.25A8,8 0 1 1 1027.9,111.25A8,8 0 1 1 1043.9,111.25Z" style="fill:#1FD3AC" />
<path d="M1057.9,115.07A8,8 0 1 1 1041.9,115.07A8,8 0 1 1 1057.9,115.07Z" style="fill:#1FD3AC" />
<path d="M1071.9,123.08A8,8 0 1 1 1055.9,123.08A8,8 0 1 1 1071.9,123.08Z" style="fill:#1FD3AC" />
<path d="M1085.9,129.79A8,8 0 1 1 1069.9,129.79A8,8 0 1 1 1085.9,129.79Z" style="fill:#1FD3AC" />
<path d="M1099.9,133.01A8,8 0 1 1 1083.9,133.01A8,8 0 1 1 1099.9,133.01Z" style="fill:#1FD3AC" />
<path d="M1113.9,137.54A8,8 0 1 1 1097.9,137.54A8,8 0 1 1 1113.9,137.54Z" style="fill:#1FD3AC" />
<path d="M1127.9,143.45A8,8 0 1 1 1111.9,143.45A8,8 0 1 1 1127.9,143.45Z" style="fill:#1FD3AC" />
<path d="M1141.9,147.79A8,8 0 1 1 1125.9,147.79A8,8 0 1 1 1141.9,147.79Z" style="fill:#1FD3AC" />
<path d="M1155.9,148.16A8,8 0 1 1 1139.9,148.16A8,8 0 1 1 1155.9,148.16Z" style="fill:#1FD3AC" />
<path d="M1169.9,147.34A8,8 0 1 1 1153.9,147.34A8,8 0 1 1 1169.9,147.34Z" style="fill:#1FD3AC" />
<path d="M1183.9,149.63A8,8 0 1 1 1167.9,149.63A8,8 0 1 1 1183.9,149.63Z" style="fill:#1FD3AC" />
<path d="M1198,147.59A8,8 0 1 1 1182,147.59A8,8 0 1 1 1198,147.59Z" style="fill:#1FD3AC" />
<path d="M1212,144.82A8,8 0 1 1 1196,144.82A8,8 0 1 1 1212,144.82Z" style="fill:#1FD3AC" />
<path d="M1226,140.88A8,8 0 1 1 1210,140.88A8,8 0 1 1 1226,140.88Z" style="fill:#1FD3AC" />
<path d="M1240,137.16A8,8 0 1 1 1224,137.16A8,8 0 1 1 1240,137.16Z" style="fill:#1FD3AC" />
<path d="M1254,131.92A8,8 0 1 1 1238,131.92A8,8 0 1 1 1254,131.92Z" style="fill:#1FD3AC" />
<path d="M1268,128.11A8,8 0 1 1 1252,128.11A8,8 0 1 1 1268,128.11Z" style="fill:#1FD3AC" />
<path d="M1282,122.17A8,8 0 1 1 1266,122.17A8,8 0 1 1 1282,122.17Z" style="fill:#1FD3AC" />
<path d="M1296,113.88A8,8 0 1 1 1280,113.88A8,8 0 1 1 1296,113.88Z" style="fill:#1FD3AC" />
<path d="M111.45,982.78L1288,982.78" style="fill:none;stroke:#000000;stroke-width:2.5" />
<path d="M1288,87.824L1288,982.78" style="fill:none;stroke:#000000;stroke-width:2.5" />
<path d="M1196,964.69L1246,964.69" style="fill:none;stroke:#FF4E60;stroke-width:10" />
<text x="728.54" y="-957.62" transform="scale(1, -1)"
	style="font-family:Liberation Sans;font-variant:normal;font-weight:normal;font-style:normal;font-size:30px">Theoretical (L = 0.94 cm, n = 1.47)</text>
<path d="M1229,928.51A8,8 0 1 1 1213,928.51A8,8 0 1 1 1229,928.51Z" style="fill:#1FD3AC" />
<text x="1012.6" y="-921.45" transform="scale(1, -1)"
	style="font-family:Liberation Sans;font-variant:normal;font-weight:normal;font-style:normal;font-size:30px">Experimental</text>
</g>
</svg>
