<?xml version="1.0"?>
<!-- Generated by SVGo and Plotinum VG -->
<svg width="1080pt" height="1080pt" viewBox="0 0 1080 1080"
	xmlns="http://www.w3.org/2000/svg"
	xmlns:xlink="http://www.w3.org/1999/xlink">
<g transform="scale(1, -1) translate(0, -1080)">
<path d="M0,0L1080,0L1080,1080L0,1080Z" style="fill:#-8000000000000000-8000000000000000-8000000000000000;fill-opacity:0" />
<text x="463.57" y="-1039.5" transform="scale(1, -1)"
	style="font-family:Helvetica;font-weight:normal;font-style:normal;font-size:50px">Stokes</text>
<text x="442.52" y="-11.039" transform="scale(1, -1)"
	style="font-family:Helvetica;font-weight:normal;font-style:normal;font-size:36px">Frequency (GHz)</text>
<text x="96.11" y="-71.258" transform="scale(1, -1)"
	style="font-family:Helvetica;font-weight:normal;font-style:normal;font-size:36px">2</text>
<text x="270.87" y="-71.258" transform="scale(1, -1)"
	style="font-family:Helvetica;font-weight:normal;font-style:normal;font-size:36px">2.1</text>
<text x="460.64" y="-71.258" transform="scale(1, -1)"
	style="font-family:Helvetica;font-weight:normal;font-style:normal;font-size:36px">2.2</text>
<text x="650.41" y="-71.258" transform="scale(1, -1)"
	style="font-family:Helvetica;font-weight:normal;font-style:normal;font-size:36px">2.3</text>
<text x="840.18" y="-71.258" transform="scale(1, -1)"
	style="font-family:Helvetica;font-weight:normal;font-style:normal;font-size:36px">2.4</text>
<text x="1030" y="-71.258" transform="scale(1, -1)"
	style="font-family:Helvetica;font-weight:normal;font-style:normal;font-size:36px">2.5</text>
<path d="M106.12,116.44L106.12,108.44" style="fill:none;stroke:#000000;stroke-width:1.5" />
<path d="M201.01,112.44L201.01,108.44" style="fill:none;stroke:#000000;stroke-width:1.5" />
<path d="M295.89,116.44L295.89,108.44" style="fill:none;stroke:#000000;stroke-width:1.5" />
<path d="M390.78,112.44L390.78,108.44" style="fill:none;stroke:#000000;stroke-width:1.5" />
<path d="M485.66,116.44L485.66,108.44" style="fill:none;stroke:#000000;stroke-width:1.5" />
<path d="M580.55,112.44L580.55,108.44" style="fill:none;stroke:#000000;stroke-width:1.5" />
<path d="M675.43,116.44L675.43,108.44" style="fill:none;stroke:#000000;stroke-width:1.5" />
<path d="M770.32,112.44L770.32,108.44" style="fill:none;stroke:#000000;stroke-width:1.5" />
<path d="M865.21,116.44L865.21,108.44" style="fill:none;stroke:#000000;stroke-width:1.5" />
<path d="M960.09,112.44L960.09,108.44" style="fill:none;stroke:#000000;stroke-width:1.5" />
<path d="M1055,116.44L1055,108.44" style="fill:none;stroke:#000000;stroke-width:1.5" />
<path d="M106.12,108.44L1055,108.44" style="fill:none;stroke:#000000;stroke-width:1.5" />
<g transform="rotate(90)">
<text x="369.17" y="29.18" transform="scale(1, -1)"
	style="font-family:Helvetica;font-weight:normal;font-style:normal;font-size:36px">Spectral Density (nV)</text>
</g>
<text x="67.848" y="-253.4" transform="scale(1, -1)"
	style="font-family:Helvetica;font-weight:normal;font-style:normal;font-size:36px">0</text>
<text x="67.848" y="-411.55" transform="scale(1, -1)"
	style="font-family:Helvetica;font-weight:normal;font-style:normal;font-size:36px">1</text>
<text x="67.848" y="-569.7" transform="scale(1, -1)"
	style="font-family:Helvetica;font-weight:normal;font-style:normal;font-size:36px">2</text>
<text x="67.848" y="-727.85" transform="scale(1, -1)"
	style="font-family:Helvetica;font-weight:normal;font-style:normal;font-size:36px">3</text>
<text x="67.848" y="-886" transform="scale(1, -1)"
	style="font-family:Helvetica;font-weight:normal;font-style:normal;font-size:36px">4</text>
<path d="M113.87,262.47L105.87,262.47" style="fill:none;stroke:#000000;stroke-width:1.5" />
<path d="M109.87,341.54L105.87,341.54" style="fill:none;stroke:#000000;stroke-width:1.5" />
<path d="M113.87,420.62L105.87,420.62" style="fill:none;stroke:#000000;stroke-width:1.5" />
<path d="M109.87,499.69L105.87,499.69" style="fill:none;stroke:#000000;stroke-width:1.5" />
<path d="M113.87,578.77L105.87,578.77" style="fill:none;stroke:#000000;stroke-width:1.5" />
<path d="M109.87,657.84L105.87,657.84" style="fill:none;stroke:#000000;stroke-width:1.5" />
<path d="M113.87,736.92L105.87,736.92" style="fill:none;stroke:#000000;stroke-width:1.5" />
<path d="M109.87,815.99L105.87,815.99" style="fill:none;stroke:#000000;stroke-width:1.5" />
<path d="M113.87,895.07L105.87,895.07" style="fill:none;stroke:#000000;stroke-width:1.5" />
<path d="M109.87,974.14L105.87,974.14" style="fill:none;stroke:#000000;stroke-width:1.5" />
<path d="M105.87,104.32L105.87,974.14" style="fill:none;stroke:#000000;stroke-width:1.5" />
<path d="M118.61,244.3A3,3 0 1 1 112.61,244.3A3,3 0 1 1 118.61,244.3Z" style="fill:#1FD3AC" />
<path d="M137.59,218.36A3,3 0 1 1 131.59,218.36A3,3 0 1 1 137.59,218.36Z" style="fill:#1FD3AC" />
<path d="M156.56,279.79A3,3 0 1 1 150.56,279.79A3,3 0 1 1 156.56,279.79Z" style="fill:#1FD3AC" />
<path d="M175.54,250.65A3,3 0 1 1 169.54,250.65A3,3 0 1 1 175.54,250.65Z" style="fill:#1FD3AC" />
<path d="M194.52,246.45A3,3 0 1 1 188.52,246.45A3,3 0 1 1 194.52,246.45Z" style="fill:#1FD3AC" />
<path d="M213.5,267.29A3,3 0 1 1 207.5,267.29A3,3 0 1 1 213.5,267.29Z" style="fill:#1FD3AC" />
<path d="M232.47,282.15A3,3 0 1 1 226.47,282.15A3,3 0 1 1 232.47,282.15Z" style="fill:#1FD3AC" />
<path d="M251.45,307.29A3,3 0 1 1 245.45,307.29A3,3 0 1 1 251.45,307.29Z" style="fill:#1FD3AC" />
<path d="M270.43,289.52A3,3 0 1 1 264.43,289.52A3,3 0 1 1 270.43,289.52Z" style="fill:#1FD3AC" />
<path d="M289.4,331.5A3,3 0 1 1 283.4,331.5A3,3 0 1 1 289.4,331.5Z" style="fill:#1FD3AC" />
<path d="M308.38,326.6A3,3 0 1 1 302.38,326.6A3,3 0 1 1 308.38,326.6Z" style="fill:#1FD3AC" />
<path d="M327.36,364.07A3,3 0 1 1 321.36,364.07A3,3 0 1 1 327.36,364.07Z" style="fill:#1FD3AC" />
<path d="M346.34,379.91A3,3 0 1 1 340.34,379.91A3,3 0 1 1 346.34,379.91Z" style="fill:#1FD3AC" />
<path d="M365.31,385.07A3,3 0 1 1 359.31,385.07A3,3 0 1 1 365.31,385.07Z" style="fill:#1FD3AC" />
<path d="M384.29,397.53A3,3 0 1 1 378.29,397.53A3,3 0 1 1 384.29,397.53Z" style="fill:#1FD3AC" />
<path d="M403.27,389.16A3,3 0 1 1 397.27,389.16A3,3 0 1 1 403.27,389.16Z" style="fill:#1FD3AC" />
<path d="M422.24,385.6A3,3 0 1 1 416.24,385.6A3,3 0 1 1 422.24,385.6Z" style="fill:#1FD3AC" />
<path d="M441.22,399.78A3,3 0 1 1 435.22,399.78A3,3 0 1 1 441.22,399.78Z" style="fill:#1FD3AC" />
<path d="M460.2,433.94A3,3 0 1 1 454.2,433.94A3,3 0 1 1 460.2,433.94Z" style="fill:#1FD3AC" />
<path d="M479.18,432.9A3,3 0 1 1 473.18,432.9A3,3 0 1 1 479.18,432.9Z" style="fill:#1FD3AC" />
<path d="M498.15,479.34A3,3 0 1 1 492.15,479.34A3,3 0 1 1 498.15,479.34Z" style="fill:#1FD3AC" />
<path d="M517.13,506.98A3,3 0 1 1 511.13,506.98A3,3 0 1 1 517.13,506.98Z" style="fill:#1FD3AC" />
<path d="M536.11,619.16A3,3 0 1 1 530.11,619.16A3,3 0 1 1 536.11,619.16Z" style="fill:#1FD3AC" />
<path d="M555.08,659.25A3,3 0 1 1 549.08,659.25A3,3 0 1 1 555.08,659.25Z" style="fill:#1FD3AC" />
<path d="M574.06,720.59A3,3 0 1 1 568.06,720.59A3,3 0 1 1 574.06,720.59Z" style="fill:#1FD3AC" />
<path d="M593.04,790.38A3,3 0 1 1 587.04,790.38A3,3 0 1 1 593.04,790.38Z" style="fill:#1FD3AC" />
<path d="M612.02,764.42A3,3 0 1 1 606.02,764.42A3,3 0 1 1 612.02,764.42Z" style="fill:#1FD3AC" />
<path d="M630.99,706.53A3,3 0 1 1 624.99,706.53A3,3 0 1 1 630.99,706.53Z" style="fill:#1FD3AC" />
<path d="M649.97,603.56A3,3 0 1 1 643.97,603.56A3,3 0 1 1 649.97,603.56Z" style="fill:#1FD3AC" />
<path d="M668.95,530.56A3,3 0 1 1 662.95,530.56A3,3 0 1 1 668.95,530.56Z" style="fill:#1FD3AC" />
<path d="M687.92,457.91A3,3 0 1 1 681.92,457.91A3,3 0 1 1 687.92,457.91Z" style="fill:#1FD3AC" />
<path d="M706.9,428.45A3,3 0 1 1 700.9,428.45A3,3 0 1 1 706.9,428.45Z" style="fill:#1FD3AC" />
<path d="M725.88,391A3,3 0 1 1 719.88,391A3,3 0 1 1 725.88,391Z" style="fill:#1FD3AC" />
<path d="M744.85,346.1A3,3 0 1 1 738.85,346.1A3,3 0 1 1 744.85,346.1Z" style="fill:#1FD3AC" />
<path d="M763.83,334.21A3,3 0 1 1 757.83,334.21A3,3 0 1 1 763.83,334.21Z" style="fill:#1FD3AC" />
<path d="M782.81,325A3,3 0 1 1 776.81,325A3,3 0 1 1 782.81,325Z" style="fill:#1FD3AC" />
<path d="M801.79,298.65A3,3 0 1 1 795.79,298.65A3,3 0 1 1 801.79,298.65Z" style="fill:#1FD3AC" />
<path d="M820.76,296.25A3,3 0 1 1 814.76,296.25A3,3 0 1 1 820.76,296.25Z" style="fill:#1FD3AC" />
<path d="M839.74,306.98A3,3 0 1 1 833.74,306.98A3,3 0 1 1 839.74,306.98Z" style="fill:#1FD3AC" />
<path d="M858.72,316.4A3,3 0 1 1 852.72,316.4A3,3 0 1 1 858.72,316.4Z" style="fill:#1FD3AC" />
<path d="M877.69,235.44A3,3 0 1 1 871.69,235.44A3,3 0 1 1 877.69,235.44Z" style="fill:#1FD3AC" />
<path d="M896.67,293.5A3,3 0 1 1 890.67,293.5A3,3 0 1 1 896.67,293.5Z" style="fill:#1FD3AC" />
<path d="M915.65,234.39A3,3 0 1 1 909.65,234.39A3,3 0 1 1 915.65,234.39Z" style="fill:#1FD3AC" />
<path d="M934.63,290.1A3,3 0 1 1 928.63,290.1A3,3 0 1 1 934.63,290.1Z" style="fill:#1FD3AC" />
<path d="M953.6,296.99A3,3 0 1 1 947.6,296.99A3,3 0 1 1 953.6,296.99Z" style="fill:#1FD3AC" />
<path d="M972.58,303A3,3 0 1 1 966.58,303A3,3 0 1 1 972.58,303Z" style="fill:#1FD3AC" />
<path d="M991.56,286.48A3,3 0 1 1 985.56,286.48A3,3 0 1 1 991.56,286.48Z" style="fill:#1FD3AC" />
<path d="M1010.5,308.73A3,3 0 1 1 1004.5,308.73A3,3 0 1 1 1010.5,308.73Z" style="fill:#1FD3AC" />
<path d="M1029.5,259.5A3,3 0 1 1 1023.5,259.5A3,3 0 1 1 1029.5,259.5Z" style="fill:#1FD3AC" />
<path d="M1048.5,275.95A3,3 0 1 1 1042.5,275.95A3,3 0 1 1 1048.5,275.95Z" style="fill:#1FD3AC" />
<path d="M106.12,974.14L1055,974.14" style="fill:none;stroke:#000000" />
<path d="M1055,104.32L1055,974.14" style="fill:none;stroke:#000000" />
<path d="M118.61,233.81A3,3 0 1 1 112.61,233.81A3,3 0 1 1 118.61,233.81Z" style="fill:#FF7AB4" />
<path d="M137.59,220.98A3,3 0 1 1 131.59,220.98A3,3 0 1 1 137.59,220.98Z" style="fill:#FF7AB4" />
<path d="M156.56,274.27A3,3 0 1 1 150.56,274.27A3,3 0 1 1 156.56,274.27Z" style="fill:#FF7AB4" />
<path d="M175.54,246.54A3,3 0 1 1 169.54,246.54A3,3 0 1 1 175.54,246.54Z" style="fill:#FF7AB4" />
<path d="M194.52,264.07A3,3 0 1 1 188.52,264.07A3,3 0 1 1 194.52,264.07Z" style="fill:#FF7AB4" />
<path d="M213.5,278.44A3,3 0 1 1 207.5,278.44A3,3 0 1 1 213.5,278.44Z" style="fill:#FF7AB4" />
<path d="M232.47,287.12A3,3 0 1 1 226.47,287.12A3,3 0 1 1 232.47,287.12Z" style="fill:#FF7AB4" />
<path d="M251.45,282.82A3,3 0 1 1 245.45,282.82A3,3 0 1 1 251.45,282.82Z" style="fill:#FF7AB4" />
<path d="M270.43,323.17A3,3 0 1 1 264.43,323.17A3,3 0 1 1 270.43,323.17Z" style="fill:#FF7AB4" />
<path d="M289.4,317.04A3,3 0 1 1 283.4,317.04A3,3 0 1 1 289.4,317.04Z" style="fill:#FF7AB4" />
<path d="M308.38,337.56A3,3 0 1 1 302.38,337.56A3,3 0 1 1 308.38,337.56Z" style="fill:#FF7AB4" />
<path d="M327.36,379.53A3,3 0 1 1 321.36,379.53A3,3 0 1 1 327.36,379.53Z" style="fill:#FF7AB4" />
<path d="M346.34,397.06A3,3 0 1 1 340.34,397.06A3,3 0 1 1 346.34,397.06Z" style="fill:#FF7AB4" />
<path d="M365.31,389.81A3,3 0 1 1 359.31,389.81A3,3 0 1 1 365.31,389.81Z" style="fill:#FF7AB4" />
<path d="M384.29,414.77A3,3 0 1 1 378.29,414.77A3,3 0 1 1 384.29,414.77Z" style="fill:#FF7AB4" />
<path d="M403.27,396.31A3,3 0 1 1 397.27,396.31A3,3 0 1 1 403.27,396.31Z" style="fill:#FF7AB4" />
<path d="M422.24,394.17A3,3 0 1 1 416.24,394.17A3,3 0 1 1 422.24,394.17Z" style="fill:#FF7AB4" />
<path d="M441.22,426.34A3,3 0 1 1 435.22,426.34A3,3 0 1 1 441.22,426.34Z" style="fill:#FF7AB4" />
<path d="M460.2,436.67A3,3 0 1 1 454.2,436.67A3,3 0 1 1 460.2,436.67Z" style="fill:#FF7AB4" />
<path d="M479.18,476.8A3,3 0 1 1 473.18,476.8A3,3 0 1 1 479.18,476.8Z" style="fill:#FF7AB4" />
<path d="M498.15,485.1A3,3 0 1 1 492.15,485.1A3,3 0 1 1 498.15,485.1Z" style="fill:#FF7AB4" />
<path d="M517.13,522.6A3,3 0 1 1 511.13,522.6A3,3 0 1 1 517.13,522.6Z" style="fill:#FF7AB4" />
<path d="M536.11,636.25A3,3 0 1 1 530.11,636.25A3,3 0 1 1 536.11,636.25Z" style="fill:#FF7AB4" />
<path d="M555.08,683A3,3 0 1 1 549.08,683A3,3 0 1 1 555.08,683Z" style="fill:#FF7AB4" />
<path d="M574.06,757.66A3,3 0 1 1 568.06,757.66A3,3 0 1 1 574.06,757.66Z" style="fill:#FF7AB4" />
<path d="M593.04,827.35A3,3 0 1 1 587.04,827.35A3,3 0 1 1 593.04,827.35Z" style="fill:#FF7AB4" />
<path d="M612.02,794.96A3,3 0 1 1 606.02,794.96A3,3 0 1 1 612.02,794.96Z" style="fill:#FF7AB4" />
<path d="M630.99,738.24A3,3 0 1 1 624.99,738.24A3,3 0 1 1 630.99,738.24Z" style="fill:#FF7AB4" />
<path d="M649.97,635.05A3,3 0 1 1 643.97,635.05A3,3 0 1 1 649.97,635.05Z" style="fill:#FF7AB4" />
<path d="M668.95,541.12A3,3 0 1 1 662.95,541.12A3,3 0 1 1 668.95,541.12Z" style="fill:#FF7AB4" />
<path d="M687.92,491.04A3,3 0 1 1 681.92,491.04A3,3 0 1 1 687.92,491.04Z" style="fill:#FF7AB4" />
<path d="M706.9,448.37A3,3 0 1 1 700.9,448.37A3,3 0 1 1 706.9,448.37Z" style="fill:#FF7AB4" />
<path d="M725.88,382.81A3,3 0 1 1 719.88,382.81A3,3 0 1 1 725.88,382.81Z" style="fill:#FF7AB4" />
<path d="M744.85,375.45A3,3 0 1 1 738.85,375.45A3,3 0 1 1 744.85,375.45Z" style="fill:#FF7AB4" />
<path d="M763.83,328.29A3,3 0 1 1 757.83,328.29A3,3 0 1 1 763.83,328.29Z" style="fill:#FF7AB4" />
<path d="M782.81,331.9A3,3 0 1 1 776.81,331.9A3,3 0 1 1 782.81,331.9Z" style="fill:#FF7AB4" />
<path d="M801.79,314.09A3,3 0 1 1 795.79,314.09A3,3 0 1 1 801.79,314.09Z" style="fill:#FF7AB4" />
<path d="M820.76,330.83A3,3 0 1 1 814.76,330.83A3,3 0 1 1 820.76,330.83Z" style="fill:#FF7AB4" />
<path d="M839.74,321.02A3,3 0 1 1 833.74,321.02A3,3 0 1 1 839.74,321.02Z" style="fill:#FF7AB4" />
<path d="M858.72,307.8A3,3 0 1 1 852.72,307.8A3,3 0 1 1 858.72,307.8Z" style="fill:#FF7AB4" />
<path d="M877.69,268.46A3,3 0 1 1 871.69,268.46A3,3 0 1 1 877.69,268.46Z" style="fill:#FF7AB4" />
<path d="M896.67,294.48A3,3 0 1 1 890.67,294.48A3,3 0 1 1 896.67,294.48Z" style="fill:#FF7AB4" />
<path d="M915.65,321.85A3,3 0 1 1 909.65,321.85A3,3 0 1 1 915.65,321.85Z" style="fill:#FF7AB4" />
<path d="M934.63,319.91A3,3 0 1 1 928.63,319.91A3,3 0 1 1 934.63,319.91Z" style="fill:#FF7AB4" />
<path d="M953.6,266.19A3,3 0 1 1 947.6,266.19A3,3 0 1 1 953.6,266.19Z" style="fill:#FF7AB4" />
<path d="M972.58,281.86A3,3 0 1 1 966.58,281.86A3,3 0 1 1 972.58,281.86Z" style="fill:#FF7AB4" />
<path d="M991.56,256.48A3,3 0 1 1 985.56,256.48A3,3 0 1 1 991.56,256.48Z" style="fill:#FF7AB4" />
<path d="M1010.5,261.05A3,3 0 1 1 1004.5,261.05A3,3 0 1 1 1010.5,261.05Z" style="fill:#FF7AB4" />
<path d="M1029.5,283.12A3,3 0 1 1 1023.5,283.12A3,3 0 1 1 1029.5,283.12Z" style="fill:#FF7AB4" />
<path d="M1048.5,278.43A3,3 0 1 1 1042.5,278.43A3,3 0 1 1 1048.5,278.43Z" style="fill:#FF7AB4" />
<path d="M106.12,974.14L1055,974.14" style="fill:none;stroke:#000000" />
<path d="M1055,104.32L1055,974.14" style="fill:none;stroke:#000000" />
<path d="M118.61,233.41A3,3 0 1 1 112.61,233.41A3,3 0 1 1 118.61,233.41Z" style="fill:#7A9CFF" />
<path d="M137.59,227.64A3,3 0 1 1 131.59,227.64A3,3 0 1 1 137.59,227.64Z" style="fill:#7A9CFF" />
<path d="M156.56,267.07A3,3 0 1 1 150.56,267.07A3,3 0 1 1 156.56,267.07Z" style="fill:#7A9CFF" />
<path d="M175.54,255.19A3,3 0 1 1 169.54,255.19A3,3 0 1 1 175.54,255.19Z" style="fill:#7A9CFF" />
<path d="M194.52,261.08A3,3 0 1 1 188.52,261.08A3,3 0 1 1 194.52,261.08Z" style="fill:#7A9CFF" />
<path d="M213.5,281.52A3,3 0 1 1 207.5,281.52A3,3 0 1 1 213.5,281.52Z" style="fill:#7A9CFF" />
<path d="M232.47,280.13A3,3 0 1 1 226.47,280.13A3,3 0 1 1 232.47,280.13Z" style="fill:#7A9CFF" />
<path d="M251.45,280.57A3,3 0 1 1 245.45,280.57A3,3 0 1 1 251.45,280.57Z" style="fill:#7A9CFF" />
<path d="M270.43,312.05A3,3 0 1 1 264.43,312.05A3,3 0 1 1 270.43,312.05Z" style="fill:#7A9CFF" />
<path d="M289.4,306.46A3,3 0 1 1 283.4,306.46A3,3 0 1 1 289.4,306.46Z" style="fill:#7A9CFF" />
<path d="M308.38,338.4A3,3 0 1 1 302.38,338.4A3,3 0 1 1 308.38,338.4Z" style="fill:#7A9CFF" />
<path d="M327.36,391.69A3,3 0 1 1 321.36,391.69A3,3 0 1 1 327.36,391.69Z" style="fill:#7A9CFF" />
<path d="M346.34,394.09A3,3 0 1 1 340.34,394.09A3,3 0 1 1 346.34,394.09Z" style="fill:#7A9CFF" />
<path d="M365.31,365.57A3,3 0 1 1 359.31,365.57A3,3 0 1 1 365.31,365.57Z" style="fill:#7A9CFF" />
<path d="M384.29,368.91A3,3 0 1 1 378.29,368.91A3,3 0 1 1 384.29,368.91Z" style="fill:#7A9CFF" />
<path d="M403.27,384.99A3,3 0 1 1 397.27,384.99A3,3 0 1 1 403.27,384.99Z" style="fill:#7A9CFF" />
<path d="M422.24,389.15A3,3 0 1 1 416.24,389.15A3,3 0 1 1 422.24,389.15Z" style="fill:#7A9CFF" />
<path d="M441.22,415.98A3,3 0 1 1 435.22,415.98A3,3 0 1 1 441.22,415.98Z" style="fill:#7A9CFF" />
<path d="M460.2,433.07A3,3 0 1 1 454.2,433.07A3,3 0 1 1 460.2,433.07Z" style="fill:#7A9CFF" />
<path d="M479.18,477A3,3 0 1 1 473.18,477A3,3 0 1 1 479.18,477Z" style="fill:#7A9CFF" />
<path d="M498.15,495.31A3,3 0 1 1 492.15,495.31A3,3 0 1 1 498.15,495.31Z" style="fill:#7A9CFF" />
<path d="M517.13,534.86A3,3 0 1 1 511.13,534.86A3,3 0 1 1 517.13,534.86Z" style="fill:#7A9CFF" />
<path d="M536.11,630.06A3,3 0 1 1 530.11,630.06A3,3 0 1 1 536.11,630.06Z" style="fill:#7A9CFF" />
<path d="M555.08,690.92A3,3 0 1 1 549.08,690.92A3,3 0 1 1 555.08,690.92Z" style="fill:#7A9CFF" />
<path d="M574.06,792.79A3,3 0 1 1 568.06,792.79A3,3 0 1 1 574.06,792.79Z" style="fill:#7A9CFF" />
<path d="M593.04,872.92A3,3 0 1 1 587.04,872.92A3,3 0 1 1 593.04,872.92Z" style="fill:#7A9CFF" />
<path d="M612.02,837.45A3,3 0 1 1 606.02,837.45A3,3 0 1 1 612.02,837.45Z" style="fill:#7A9CFF" />
<path d="M630.99,743.15A3,3 0 1 1 624.99,743.15A3,3 0 1 1 630.99,743.15Z" style="fill:#7A9CFF" />
<path d="M649.97,640.08A3,3 0 1 1 643.97,640.08A3,3 0 1 1 649.97,640.08Z" style="fill:#7A9CFF" />
<path d="M668.95,542.89A3,3 0 1 1 662.95,542.89A3,3 0 1 1 668.95,542.89Z" style="fill:#7A9CFF" />
<path d="M687.92,471.21A3,3 0 1 1 681.92,471.21A3,3 0 1 1 687.92,471.21Z" style="fill:#7A9CFF" />
<path d="M706.9,454.53A3,3 0 1 1 700.9,454.53A3,3 0 1 1 706.9,454.53Z" style="fill:#7A9CFF" />
<path d="M725.88,386.26A3,3 0 1 1 719.88,386.26A3,3 0 1 1 725.88,386.26Z" style="fill:#7A9CFF" />
<path d="M744.85,373.76A3,3 0 1 1 738.85,373.76A3,3 0 1 1 744.85,373.76Z" style="fill:#7A9CFF" />
<path d="M763.83,328.66A3,3 0 1 1 757.83,328.66A3,3 0 1 1 763.83,328.66Z" style="fill:#7A9CFF" />
<path d="M782.81,313.4A3,3 0 1 1 776.81,313.4A3,3 0 1 1 782.81,313.4Z" style="fill:#7A9CFF" />
<path d="M801.79,289.23A3,3 0 1 1 795.79,289.23A3,3 0 1 1 801.79,289.23Z" style="fill:#7A9CFF" />
<path d="M820.76,296.92A3,3 0 1 1 814.76,296.92A3,3 0 1 1 820.76,296.92Z" style="fill:#7A9CFF" />
<path d="M839.74,299.62A3,3 0 1 1 833.74,299.62A3,3 0 1 1 839.74,299.62Z" style="fill:#7A9CFF" />
<path d="M858.72,313.26A3,3 0 1 1 852.72,313.26A3,3 0 1 1 858.72,313.26Z" style="fill:#7A9CFF" />
<path d="M877.69,282.42A3,3 0 1 1 871.69,282.42A3,3 0 1 1 877.69,282.42Z" style="fill:#7A9CFF" />
<path d="M896.67,303.42A3,3 0 1 1 890.67,303.42A3,3 0 1 1 896.67,303.42Z" style="fill:#7A9CFF" />
<path d="M915.65,251.65A3,3 0 1 1 909.65,251.65A3,3 0 1 1 915.65,251.65Z" style="fill:#7A9CFF" />
<path d="M934.63,284.14A3,3 0 1 1 928.63,284.14A3,3 0 1 1 934.63,284.14Z" style="fill:#7A9CFF" />
<path d="M953.6,290.15A3,3 0 1 1 947.6,290.15A3,3 0 1 1 953.6,290.15Z" style="fill:#7A9CFF" />
<path d="M972.58,259.19A3,3 0 1 1 966.58,259.19A3,3 0 1 1 972.58,259.19Z" style="fill:#7A9CFF" />
<path d="M991.56,159.14A3,3 0 1 1 985.56,159.14A3,3 0 1 1 991.56,159.14Z" style="fill:#7A9CFF" />
<path d="M1010.5,293.54A3,3 0 1 1 1004.5,293.54A3,3 0 1 1 1010.5,293.54Z" style="fill:#7A9CFF" />
<path d="M1029.5,272.39A3,3 0 1 1 1023.5,272.39A3,3 0 1 1 1029.5,272.39Z" style="fill:#7A9CFF" />
<path d="M1048.5,269.39A3,3 0 1 1 1042.5,269.39A3,3 0 1 1 1048.5,269.39Z" style="fill:#7A9CFF" />
<path d="M106.12,974.14L1055,974.14" style="fill:none;stroke:#000000" />
<path d="M1055,104.32L1055,974.14" style="fill:none;stroke:#000000" />
<text x="191.12" y="-899.95" transform="scale(1, -1)"
	style="font-family:Helvetica;font-weight:normal;font-style:normal;font-size:36px">Pump</text>
<path d="M162.12,867.02A6,6 0 1 1 150.12,867.02A6,6 0 1 1 162.12,867.02Z" style="fill:#1FD3AC" />
<text x="191.12" y="-858.54" transform="scale(1, -1)"
	style="font-family:Helvetica;font-weight:normal;font-style:normal;font-size:36px">0 mW</text>
<path d="M162.12,825.61A6,6 0 1 1 150.12,825.61A6,6 0 1 1 162.12,825.61Z" style="fill:#FF7AB4" />
<text x="191.12" y="-817.13" transform="scale(1, -1)"
	style="font-family:Helvetica;font-weight:normal;font-style:normal;font-size:36px">80 mW</text>
<path d="M162.12,784.2A6,6 0 1 1 150.12,784.2A6,6 0 1 1 162.12,784.2Z" style="fill:#7A9CFF" />
<text x="191.12" y="-775.72" transform="scale(1, -1)"
	style="font-family:Helvetica;font-weight:normal;font-style:normal;font-size:36px">166 mW</text>
</g>
</svg>
