<?xml version="1.0"?>
<!-- Generated by SVGo and Plotinum VG -->
<svg width="1080pt" height="1080pt" viewBox="0 0 1080 1080"
	xmlns="http://www.w3.org/2000/svg"
	xmlns:xlink="http://www.w3.org/1999/xlink">
<g transform="scale(1, -1) translate(0, -1080)">
<path d="M0,0L1080,0L1080,1080L0,1080Z" style="fill:#-8000000000000000-8000000000000000-8000000000000000;fill-opacity:0" />
<text x="319.11" y="-1039.5" transform="scale(1, -1)"
	style="font-family:Helvetica;font-weight:normal;font-style:normal;font-size:50px">1 cm UHNA3 CABS</text>
<text x="462.91" y="-11.039" transform="scale(1, -1)"
	style="font-family:Helvetica;font-weight:normal;font-style:normal;font-size:36px">Frequency (GHz)</text>
<text x="111.88" y="-71.258" transform="scale(1, -1)"
	style="font-family:Helvetica;font-weight:normal;font-style:normal;font-size:36px">9</text>
<text x="363.01" y="-71.258" transform="scale(1, -1)"
	style="font-family:Helvetica;font-weight:normal;font-style:normal;font-size:36px">9.1</text>
<text x="629.15" y="-71.258" transform="scale(1, -1)"
	style="font-family:Helvetica;font-weight:normal;font-style:normal;font-size:36px">9.2</text>
<text x="895.29" y="-71.258" transform="scale(1, -1)"
	style="font-family:Helvetica;font-weight:normal;font-style:normal;font-size:36px">9.3</text>
<path d="M121.89,116.44L121.89,108.44" style="fill:none;stroke:#000000;stroke-width:1.5" />
<path d="M254.96,112.44L254.96,108.44" style="fill:none;stroke:#000000;stroke-width:1.5" />
<path d="M388.03,116.44L388.03,108.44" style="fill:none;stroke:#000000;stroke-width:1.5" />
<path d="M521.1,112.44L521.1,108.44" style="fill:none;stroke:#000000;stroke-width:1.5" />
<path d="M654.17,116.44L654.17,108.44" style="fill:none;stroke:#000000;stroke-width:1.5" />
<path d="M787.24,112.44L787.24,108.44" style="fill:none;stroke:#000000;stroke-width:1.5" />
<path d="M920.32,116.44L920.32,108.44" style="fill:none;stroke:#000000;stroke-width:1.5" />
<path d="M1053.4,112.44L1053.4,108.44" style="fill:none;stroke:#000000;stroke-width:1.5" />
<path d="M121.89,108.44L1080,108.44" style="fill:none;stroke:#000000;stroke-width:1.5" />
<g transform="rotate(90)">
<text x="364.02" y="29.18" transform="scale(1, -1)"
	style="font-family:Helvetica;font-weight:normal;font-style:normal;font-size:36px">Spectral Density (pV)</text>
</g>
<text x="87.869" y="-96.246" transform="scale(1, -1)"
	style="font-family:Helvetica;font-weight:normal;font-style:normal;font-size:36px">0</text>
<text x="67.848" y="-382.09" transform="scale(1, -1)"
	style="font-family:Helvetica;font-weight:normal;font-style:normal;font-size:36px">20</text>
<text x="67.848" y="-667.93" transform="scale(1, -1)"
	style="font-family:Helvetica;font-weight:normal;font-style:normal;font-size:36px">40</text>
<text x="67.848" y="-953.77" transform="scale(1, -1)"
	style="font-family:Helvetica;font-weight:normal;font-style:normal;font-size:36px">60</text>
<path d="M133.89,105.32L125.89,105.32" style="fill:none;stroke:#000000;stroke-width:1.5" />
<path d="M129.89,248.24L125.89,248.24" style="fill:none;stroke:#000000;stroke-width:1.5" />
<path d="M133.89,391.16L125.89,391.16" style="fill:none;stroke:#000000;stroke-width:1.5" />
<path d="M129.89,534.08L125.89,534.08" style="fill:none;stroke:#000000;stroke-width:1.5" />
<path d="M133.89,677L125.89,677" style="fill:none;stroke:#000000;stroke-width:1.5" />
<path d="M129.89,819.92L125.89,819.92" style="fill:none;stroke:#000000;stroke-width:1.5" />
<path d="M133.89,962.84L125.89,962.84" style="fill:none;stroke:#000000;stroke-width:1.5" />
<path d="M125.89,105.32L125.89,962.84" style="fill:none;stroke:#000000;stroke-width:1.5" />
<path d="M138.2,319.21A3,3 0 1 1 132.2,319.21A3,3 0 1 1 138.2,319.21Z" style="fill:#BC75FF" />
<path d="M151.51,186.26A3,3 0 1 1 145.51,186.26A3,3 0 1 1 151.51,186.26Z" style="fill:#BC75FF" />
<path d="M164.81,262.92A3,3 0 1 1 158.81,262.92A3,3 0 1 1 164.81,262.92Z" style="fill:#BC75FF" />
<path d="M178.12,332.35A3,3 0 1 1 172.12,332.35A3,3 0 1 1 178.12,332.35Z" style="fill:#BC75FF" />
<path d="M191.43,254.1A3,3 0 1 1 185.43,254.1A3,3 0 1 1 191.43,254.1Z" style="fill:#BC75FF" />
<path d="M204.73,218.26A3,3 0 1 1 198.73,218.26A3,3 0 1 1 204.73,218.26Z" style="fill:#BC75FF" />
<path d="M218.04,413.78A3,3 0 1 1 212.04,413.78A3,3 0 1 1 218.04,413.78Z" style="fill:#BC75FF" />
<path d="M231.35,385.19A3,3 0 1 1 225.35,385.19A3,3 0 1 1 231.35,385.19Z" style="fill:#BC75FF" />
<path d="M244.66,287.55A3,3 0 1 1 238.66,287.55A3,3 0 1 1 244.66,287.55Z" style="fill:#BC75FF" />
<path d="M257.96,206.13A3,3 0 1 1 251.96,206.13A3,3 0 1 1 257.96,206.13Z" style="fill:#BC75FF" />
<path d="M271.27,299.63A3,3 0 1 1 265.27,299.63A3,3 0 1 1 271.27,299.63Z" style="fill:#BC75FF" />
<path d="M284.58,296.1A3,3 0 1 1 278.58,296.1A3,3 0 1 1 284.58,296.1Z" style="fill:#BC75FF" />
<path d="M297.88,496.45A3,3 0 1 1 291.88,496.45A3,3 0 1 1 297.88,496.45Z" style="fill:#BC75FF" />
<path d="M311.19,465.78A3,3 0 1 1 305.19,465.78A3,3 0 1 1 311.19,465.78Z" style="fill:#BC75FF" />
<path d="M324.5,373.41A3,3 0 1 1 318.5,373.41A3,3 0 1 1 324.5,373.41Z" style="fill:#BC75FF" />
<path d="M337.81,427.12A3,3 0 1 1 331.81,427.12A3,3 0 1 1 337.81,427.12Z" style="fill:#BC75FF" />
<path d="M351.11,276.22A3,3 0 1 1 345.11,276.22A3,3 0 1 1 351.11,276.22Z" style="fill:#BC75FF" />
<path d="M364.42,299.63A3,3 0 1 1 358.42,299.63A3,3 0 1 1 364.42,299.63Z" style="fill:#BC75FF" />
<path d="M377.73,354.1A3,3 0 1 1 371.73,354.1A3,3 0 1 1 377.73,354.1Z" style="fill:#BC75FF" />
<path d="M391.03,369.67A3,3 0 1 1 385.03,369.67A3,3 0 1 1 391.03,369.67Z" style="fill:#BC75FF" />
<path d="M404.34,428.09A3,3 0 1 1 398.34,428.09A3,3 0 1 1 404.34,428.09Z" style="fill:#BC75FF" />
<path d="M417.65,317.5A3,3 0 1 1 411.65,317.5A3,3 0 1 1 417.65,317.5Z" style="fill:#BC75FF" />
<path d="M430.95,562.24A3,3 0 1 1 424.95,562.24A3,3 0 1 1 430.95,562.24Z" style="fill:#BC75FF" />
<path d="M444.26,454.73A3,3 0 1 1 438.26,454.73A3,3 0 1 1 444.26,454.73Z" style="fill:#BC75FF" />
<path d="M457.57,451.45A3,3 0 1 1 451.57,451.45A3,3 0 1 1 457.57,451.45Z" style="fill:#BC75FF" />
<path d="M470.88,523.24A3,3 0 1 1 464.88,523.24A3,3 0 1 1 470.88,523.24Z" style="fill:#BC75FF" />
<path d="M484.18,581.05A3,3 0 1 1 478.18,581.05A3,3 0 1 1 484.18,581.05Z" style="fill:#BC75FF" />
<path d="M497.49,597.04A3,3 0 1 1 491.49,597.04A3,3 0 1 1 497.49,597.04Z" style="fill:#BC75FF" />
<path d="M510.8,644.68A3,3 0 1 1 504.8,644.68A3,3 0 1 1 510.8,644.68Z" style="fill:#BC75FF" />
<path d="M524.1,598.46A3,3 0 1 1 518.1,598.46A3,3 0 1 1 524.1,598.46Z" style="fill:#BC75FF" />
<path d="M537.41,602.68A3,3 0 1 1 531.41,602.68A3,3 0 1 1 537.41,602.68Z" style="fill:#BC75FF" />
<path d="M550.72,618.71A3,3 0 1 1 544.72,618.71A3,3 0 1 1 550.72,618.71Z" style="fill:#BC75FF" />
<path d="M564.03,742.85A3,3 0 1 1 558.03,742.85A3,3 0 1 1 564.03,742.85Z" style="fill:#BC75FF" />
<path d="M577.33,643.54A3,3 0 1 1 571.33,643.54A3,3 0 1 1 577.33,643.54Z" style="fill:#BC75FF" />
<path d="M590.64,624.06A3,3 0 1 1 584.64,624.06A3,3 0 1 1 590.64,624.06Z" style="fill:#BC75FF" />
<path d="M603.95,673.23A3,3 0 1 1 597.95,673.23A3,3 0 1 1 603.95,673.23Z" style="fill:#BC75FF" />
<path d="M617.25,507.39A3,3 0 1 1 611.25,507.39A3,3 0 1 1 617.25,507.39Z" style="fill:#BC75FF" />
<path d="M630.56,614.31A3,3 0 1 1 624.56,614.31A3,3 0 1 1 630.56,614.31Z" style="fill:#BC75FF" />
<path d="M643.87,523.7A3,3 0 1 1 637.87,523.7A3,3 0 1 1 643.87,523.7Z" style="fill:#BC75FF" />
<path d="M657.17,453.9A3,3 0 1 1 651.17,453.9A3,3 0 1 1 657.17,453.9Z" style="fill:#BC75FF" />
<path d="M670.48,492.14A3,3 0 1 1 664.48,492.14A3,3 0 1 1 670.48,492.14Z" style="fill:#BC75FF" />
<path d="M683.79,361.03A3,3 0 1 1 677.79,361.03A3,3 0 1 1 683.79,361.03Z" style="fill:#BC75FF" />
<path d="M697.1,403.91A3,3 0 1 1 691.1,403.91A3,3 0 1 1 697.1,403.91Z" style="fill:#BC75FF" />
<path d="M710.4,391.68A3,3 0 1 1 704.4,391.68A3,3 0 1 1 710.4,391.68Z" style="fill:#BC75FF" />
<path d="M723.71,588.16A3,3 0 1 1 717.71,588.16A3,3 0 1 1 723.71,588.16Z" style="fill:#BC75FF" />
<path d="M737.02,430.1A3,3 0 1 1 731.02,430.1A3,3 0 1 1 737.02,430.1Z" style="fill:#BC75FF" />
<path d="M750.32,353.36A3,3 0 1 1 744.32,353.36A3,3 0 1 1 750.32,353.36Z" style="fill:#BC75FF" />
<path d="M763.63,389.23A3,3 0 1 1 757.63,389.23A3,3 0 1 1 763.63,389.23Z" style="fill:#BC75FF" />
<path d="M776.94,332.47A3,3 0 1 1 770.94,332.47A3,3 0 1 1 776.94,332.47Z" style="fill:#BC75FF" />
<path d="M790.24,354.05A3,3 0 1 1 784.24,354.05A3,3 0 1 1 790.24,354.05Z" style="fill:#BC75FF" />
<path d="M803.55,412.87A3,3 0 1 1 797.55,412.87A3,3 0 1 1 803.55,412.87Z" style="fill:#BC75FF" />
<path d="M816.86,266.71A3,3 0 1 1 810.86,266.71A3,3 0 1 1 816.86,266.71Z" style="fill:#BC75FF" />
<path d="M830.17,625.42A3,3 0 1 1 824.17,625.42A3,3 0 1 1 830.17,625.42Z" style="fill:#BC75FF" />
<path d="M843.47,348.39A3,3 0 1 1 837.47,348.39A3,3 0 1 1 843.47,348.39Z" style="fill:#BC75FF" />
<path d="M856.78,325.45A3,3 0 1 1 850.78,325.45A3,3 0 1 1 856.78,325.45Z" style="fill:#BC75FF" />
<path d="M870.09,260.72A3,3 0 1 1 864.09,260.72A3,3 0 1 1 870.09,260.72Z" style="fill:#BC75FF" />
<path d="M883.39,278.22A3,3 0 1 1 877.39,278.22A3,3 0 1 1 883.39,278.22Z" style="fill:#BC75FF" />
<path d="M896.7,253.42A3,3 0 1 1 890.7,253.42A3,3 0 1 1 896.7,253.42Z" style="fill:#BC75FF" />
<path d="M910.01,190.55A3,3 0 1 1 904.01,190.55A3,3 0 1 1 910.01,190.55Z" style="fill:#BC75FF" />
<path d="M1011,867.02A6,6 0 1 1 999,867.02A6,6 0 1 1 1011,867.02Z" style="fill:#BC75FF" />
<text x="875.97" y="-858.54" transform="scale(1, -1)"
	style="font-family:Helvetica;font-weight:normal;font-style:normal;font-size:36px">10 fW</text>
</g>
</svg>
