<?xml version="1.0"?>
<!-- Generated by SVGo and Plotinum VG -->
<svg width="1080pt" height="1080pt" viewBox="0 0 1080 1080"
	xmlns="http://www.w3.org/2000/svg"
	xmlns:xlink="http://www.w3.org/1999/xlink">
<g transform="scale(1, -1) translate(0, -1080)">
<path d="M0,0L1080,0L1080,1080L0,1080Z" style="fill:#-8000000000000000-8000000000000000-8000000000000000;fill-opacity:0" />
<text x="463.57" y="-1039.5" transform="scale(1, -1)"
	style="font-family:Helvetica;font-weight:normal;font-style:normal;font-size:50px">Stokes</text>
<text x="462.91" y="-11.039" transform="scale(1, -1)"
	style="font-family:Helvetica;font-weight:normal;font-style:normal;font-size:36px">Frequency (GHz)</text>
<text x="1037.5" y="-71.258" transform="scale(1, -1)"
	style="font-family:Helvetica;font-weight:normal;font-style:normal;font-size:36px">2</text>
<text x="1022.6" y="-71.258" transform="scale(1, -1)"
	style="font-family:Helvetica;font-weight:normal;font-style:normal;font-size:36px">2.1</text>
<text x="1022.6" y="-71.258" transform="scale(1, -1)"
	style="font-family:Helvetica;font-weight:normal;font-style:normal;font-size:36px">2.2</text>
<text x="1022.7" y="-71.258" transform="scale(1, -1)"
	style="font-family:Helvetica;font-weight:normal;font-style:normal;font-size:36px">2.3</text>
<text x="1022.8" y="-71.258" transform="scale(1, -1)"
	style="font-family:Helvetica;font-weight:normal;font-style:normal;font-size:36px">2.4</text>
<text x="1022.9" y="-71.258" transform="scale(1, -1)"
	style="font-family:Helvetica;font-weight:normal;font-style:normal;font-size:36px">2.5</text>
<path d="M1047.5,116.44L1047.5,108.44" style="fill:none;stroke:#000000;stroke-width:1.5" />
<path d="M1047.5,112.44L1047.5,108.44" style="fill:none;stroke:#000000;stroke-width:1.5" />
<path d="M1047.6,116.44L1047.6,108.44" style="fill:none;stroke:#000000;stroke-width:1.5" />
<path d="M1047.6,112.44L1047.6,108.44" style="fill:none;stroke:#000000;stroke-width:1.5" />
<path d="M1047.7,116.44L1047.7,108.44" style="fill:none;stroke:#000000;stroke-width:1.5" />
<path d="M1047.7,112.44L1047.7,108.44" style="fill:none;stroke:#000000;stroke-width:1.5" />
<path d="M1047.7,116.44L1047.7,108.44" style="fill:none;stroke:#000000;stroke-width:1.5" />
<path d="M1047.8,112.44L1047.8,108.44" style="fill:none;stroke:#000000;stroke-width:1.5" />
<path d="M1047.8,116.44L1047.8,108.44" style="fill:none;stroke:#000000;stroke-width:1.5" />
<path d="M1047.8,112.44L1047.8,108.44" style="fill:none;stroke:#000000;stroke-width:1.5" />
<path d="M1047.9,116.44L1047.9,108.44" style="fill:none;stroke:#000000;stroke-width:1.5" />
<path d="M121.89,108.44L1080,108.44" style="fill:none;stroke:#000000;stroke-width:1.5" />
<g transform="rotate(90)">
<text x="370.67" y="29.18" transform="scale(1, -1)"
	style="font-family:Helvetica;font-weight:normal;font-style:normal;font-size:36px">Spectral Density (nV)</text>
</g>
<text x="87.869" y="-98.567" transform="scale(1, -1)"
	style="font-family:Helvetica;font-weight:normal;font-style:normal;font-size:36px">0</text>
<text x="87.869" y="-140.47" transform="scale(1, -1)"
	style="font-family:Helvetica;font-weight:normal;font-style:normal;font-size:36px">5</text>
<text x="67.848" y="-182.38" transform="scale(1, -1)"
	style="font-family:Helvetica;font-weight:normal;font-style:normal;font-size:36px">10</text>
<text x="67.848" y="-224.29" transform="scale(1, -1)"
	style="font-family:Helvetica;font-weight:normal;font-style:normal;font-size:36px">15</text>
<path d="M133.89,107.64L125.89,107.64" style="fill:none;stroke:#000000;stroke-width:1.5" />
<path d="M129.89,128.59L125.89,128.59" style="fill:none;stroke:#000000;stroke-width:1.5" />
<path d="M133.89,149.54L125.89,149.54" style="fill:none;stroke:#000000;stroke-width:1.5" />
<path d="M129.89,170.5L125.89,170.5" style="fill:none;stroke:#000000;stroke-width:1.5" />
<path d="M133.89,191.45L125.89,191.45" style="fill:none;stroke:#000000;stroke-width:1.5" />
<path d="M129.89,212.4L125.89,212.4" style="fill:none;stroke:#000000;stroke-width:1.5" />
<path d="M133.89,233.36L125.89,233.36" style="fill:none;stroke:#000000;stroke-width:1.5" />
<path d="M129.89,254.31L125.89,254.31" style="fill:none;stroke:#000000;stroke-width:1.5" />
<path d="M125.89,107.32L125.89,974.14" style="fill:none;stroke:#000000;stroke-width:1.5" />
<path d="M1050.5,108.35A3,3 0 1 1 1044.5,108.35A3,3 0 1 1 1050.5,108.35Z" style="fill:#1FD3AC" />
<path d="M1050.6,108.85A3,3 0 1 1 1044.6,108.85A3,3 0 1 1 1050.6,108.85Z" style="fill:#1FD3AC" />
<path d="M1050.6,109.37A3,3 0 1 1 1044.6,109.37A3,3 0 1 1 1050.6,109.37Z" style="fill:#1FD3AC" />
<path d="M1050.6,110.29A3,3 0 1 1 1044.6,110.29A3,3 0 1 1 1050.6,110.29Z" style="fill:#1FD3AC" />
<path d="M1050.7,113.11A3,3 0 1 1 1044.7,113.11A3,3 0 1 1 1050.7,113.11Z" style="fill:#1FD3AC" />
<path d="M1050.7,123.59A3,3 0 1 1 1044.7,123.59A3,3 0 1 1 1050.7,123.59Z" style="fill:#1FD3AC" />
<path d="M1050.8,134.85A3,3 0 1 1 1044.8,134.85A3,3 0 1 1 1050.8,134.85Z" style="fill:#1FD3AC" />
<path d="M1050.8,135.18A3,3 0 1 1 1044.8,135.18A3,3 0 1 1 1050.8,135.18Z" style="fill:#1FD3AC" />
<path d="M1050.8,133.29A3,3 0 1 1 1044.8,133.29A3,3 0 1 1 1050.8,133.29Z" style="fill:#1FD3AC" />
<path d="M1050.9,131.13A3,3 0 1 1 1044.9,131.13A3,3 0 1 1 1050.9,131.13Z" style="fill:#1FD3AC" />
<path d="M1047.5,110.17L1047.6,110.94L1047.6,112.09L1047.6,113.91L1047.7,116.9L1047.7,121.95L1047.8,129.82L1047.8,137.32L1047.8,135.67L1047.9,127.23" style="fill:none;stroke:#1BAA8B;stroke-width:3" />
<path d="M1047.7,122.85L1047.9,122.85" style="fill:none;stroke:#1BAA8B;stroke-width:4;stroke-dasharray:15,5" />
<path d="M1050.9,127.07A3,3 0 1 1 1044.9,127.07A3,3 0 1 1 1050.9,127.07Z" style="fill:#BC75FF" />
<path d="M1050.9,127.07A3,3 0 1 1 1044.9,127.07A3,3 0 1 1 1050.9,127.07Z" style="fill:#BC75FF" />
<path d="M1051,127.07A3,3 0 1 1 1045,127.07A3,3 0 1 1 1051,127.07Z" style="fill:#BC75FF" />
<path d="M1051,127.07A3,3 0 1 1 1045,127.07A3,3 0 1 1 1051,127.07Z" style="fill:#BC75FF" />
<path d="M1051.1,127.07A3,3 0 1 1 1045.1,127.07A3,3 0 1 1 1051.1,127.07Z" style="fill:#BC75FF" />
<path d="M1051.1,127.07A3,3 0 1 1 1045.1,127.07A3,3 0 1 1 1051.1,127.07Z" style="fill:#BC75FF" />
<path d="M1051.1,127.07A3,3 0 1 1 1045.1,127.07A3,3 0 1 1 1051.1,127.07Z" style="fill:#BC75FF" />
<path d="M1051.2,127.07A3,3 0 1 1 1045.2,127.07A3,3 0 1 1 1051.2,127.07Z" style="fill:#BC75FF" />
<path d="M1051.2,127.07A3,3 0 1 1 1045.2,127.07A3,3 0 1 1 1051.2,127.07Z" style="fill:#BC75FF" />
<path d="M1051.2,127.07A3,3 0 1 1 1045.2,127.07A3,3 0 1 1 1051.2,127.07Z" style="fill:#BC75FF" />
<path d="M1047.9,127.07L1047.9,127.07L1048,127.07L1048,127.07L1048.1,127.07L1048.1,127.07L1048.1,127.07L1048.2,127.07L1048.2,127.07L1048.2,127.07" style="fill:none;stroke:#BC75FF;stroke-width:3" />
<path d="M1016.1,117.35L1080,117.35" style="fill:none;stroke:#BC75FF;stroke-width:4;stroke-dasharray:15,5" />
<path d="M1051.3,125.32A3,3 0 1 1 1045.3,125.32A3,3 0 1 1 1051.3,125.32Z" style="fill:#8C2E31" />
<path d="M1051.3,125.32A3,3 0 1 1 1045.3,125.32A3,3 0 1 1 1051.3,125.32Z" style="fill:#8C2E31" />
<path d="M1051.4,125.32A3,3 0 1 1 1045.4,125.32A3,3 0 1 1 1051.4,125.32Z" style="fill:#8C2E31" />
<path d="M1051.4,125.32A3,3 0 1 1 1045.4,125.32A3,3 0 1 1 1051.4,125.32Z" style="fill:#8C2E31" />
<path d="M1051.4,125.32A3,3 0 1 1 1045.4,125.32A3,3 0 1 1 1051.4,125.32Z" style="fill:#8C2E31" />
<path d="M1051.5,125.32A3,3 0 1 1 1045.5,125.32A3,3 0 1 1 1051.5,125.32Z" style="fill:#8C2E31" />
<path d="M1051.5,125.32A3,3 0 1 1 1045.5,125.32A3,3 0 1 1 1051.5,125.32Z" style="fill:#8C2E31" />
<path d="M1051.5,125.32A3,3 0 1 1 1045.5,125.32A3,3 0 1 1 1051.5,125.32Z" style="fill:#8C2E31" />
<path d="M1051.6,125.32A3,3 0 1 1 1045.6,125.32A3,3 0 1 1 1051.6,125.32Z" style="fill:#8C2E31" />
<path d="M1051.6,125.32A3,3 0 1 1 1045.6,125.32A3,3 0 1 1 1051.6,125.32Z" style="fill:#8C2E31" />
<path d="M1048.3,125.36L1048.3,125.35L1048.4,125.34L1048.4,125.33L1048.4,125.32L1048.5,125.31L1048.5,125.3L1048.5,125.29L1048.6,125.28L1048.6,125.27" style="fill:none;stroke:#8C2E31;stroke-width:3" />
<path d="M952.92,119.78L1071.5,119.78" style="fill:none;stroke:#8C2E31;stroke-width:4;stroke-dasharray:15,5" />
<path d="M1051.6,127.72A3,3 0 1 1 1045.6,127.72A3,3 0 1 1 1051.6,127.72Z" style="fill:#5B1616" />
<path d="M1051.7,127.72A3,3 0 1 1 1045.7,127.72A3,3 0 1 1 1051.7,127.72Z" style="fill:#5B1616" />
<path d="M1051.7,127.72A3,3 0 1 1 1045.7,127.72A3,3 0 1 1 1051.7,127.72Z" style="fill:#5B1616" />
<path d="M1051.8,127.72A3,3 0 1 1 1045.8,127.72A3,3 0 1 1 1051.8,127.72Z" style="fill:#5B1616" />
<path d="M1051.8,127.72A3,3 0 1 1 1045.8,127.72A3,3 0 1 1 1051.8,127.72Z" style="fill:#5B1616" />
<path d="M1051.8,127.72A3,3 0 1 1 1045.8,127.72A3,3 0 1 1 1051.8,127.72Z" style="fill:#5B1616" />
<path d="M1051.9,127.72A3,3 0 1 1 1045.9,127.72A3,3 0 1 1 1051.9,127.72Z" style="fill:#5B1616" />
<path d="M1051.9,127.72A3,3 0 1 1 1045.9,127.72A3,3 0 1 1 1051.9,127.72Z" style="fill:#5B1616" />
<path d="M1051.9,127.72A3,3 0 1 1 1045.9,127.72A3,3 0 1 1 1051.9,127.72Z" style="fill:#5B1616" />
<path d="M1052,127.72A3,3 0 1 1 1046,127.72A3,3 0 1 1 1052,127.72Z" style="fill:#5B1616" />
<path d="M1048.6,127.74L1048.7,127.74L1048.7,127.73L1048.8,127.72L1048.8,127.72L1048.8,127.71L1048.9,127.71L1048.9,127.7L1048.9,127.7L1049,127.69" style="fill:none;stroke:#5B1616;stroke-width:3" />
<path d="M733.56,205.05L893.18,205.05" style="fill:none;stroke:#5B1616;stroke-width:4;stroke-dasharray:15,5" />
<path d="M1052,126.54A3,3 0 1 1 1046,126.54A3,3 0 1 1 1052,126.54Z" style="fill:#FF7AB4" />
<path d="M1052.1,126.54A3,3 0 1 1 1046.1,126.54A3,3 0 1 1 1052.1,126.54Z" style="fill:#FF7AB4" />
<path d="M1052.1,126.54A3,3 0 1 1 1046.1,126.54A3,3 0 1 1 1052.1,126.54Z" style="fill:#FF7AB4" />
<path d="M1052.1,126.54A3,3 0 1 1 1046.1,126.54A3,3 0 1 1 1052.1,126.54Z" style="fill:#FF7AB4" />
<path d="M1052.2,126.54A3,3 0 1 1 1046.2,126.54A3,3 0 1 1 1052.2,126.54Z" style="fill:#FF7AB4" />
<path d="M1052.2,126.54A3,3 0 1 1 1046.2,126.54A3,3 0 1 1 1052.2,126.54Z" style="fill:#FF7AB4" />
<path d="M1052.2,126.54A3,3 0 1 1 1046.2,126.54A3,3 0 1 1 1052.2,126.54Z" style="fill:#FF7AB4" />
<path d="M1052.3,126.54A3,3 0 1 1 1046.3,126.54A3,3 0 1 1 1052.3,126.54Z" style="fill:#FF7AB4" />
<path d="M1052.3,126.54A3,3 0 1 1 1046.3,126.54A3,3 0 1 1 1052.3,126.54Z" style="fill:#FF7AB4" />
<path d="M1052.4,126.54A3,3 0 1 1 1046.4,126.54A3,3 0 1 1 1052.4,126.54Z" style="fill:#FF7AB4" />
<path d="M1049,126.55L1049.1,126.55L1049.1,126.55L1049.1,126.55L1049.2,126.54L1049.2,126.54L1049.2,126.54L1049.3,126.54L1049.3,126.53L1049.4,126.53" style="fill:none;stroke:#C96892;stroke-width:3" />
<path d="M451.82,343.01L654.71,343.01" style="fill:none;stroke:#C96892;stroke-width:4;stroke-dasharray:15,5" />
<path d="M1052.4,125.02A3,3 0 1 1 1046.4,125.02A3,3 0 1 1 1052.4,125.02Z" style="fill:#EA9CAC" />
<path d="M1052.4,125.02A3,3 0 1 1 1046.4,125.02A3,3 0 1 1 1052.4,125.02Z" style="fill:#EA9CAC" />
<path d="M1052.5,125.02A3,3 0 1 1 1046.5,125.02A3,3 0 1 1 1052.5,125.02Z" style="fill:#EA9CAC" />
<path d="M1052.5,125.02A3,3 0 1 1 1046.5,125.02A3,3 0 1 1 1052.5,125.02Z" style="fill:#EA9CAC" />
<path d="M1052.5,125.02A3,3 0 1 1 1046.5,125.02A3,3 0 1 1 1052.5,125.02Z" style="fill:#EA9CAC" />
<path d="M1052.6,125.02A3,3 0 1 1 1046.6,125.02A3,3 0 1 1 1052.6,125.02Z" style="fill:#EA9CAC" />
<path d="M1052.6,125.02A3,3 0 1 1 1046.6,125.02A3,3 0 1 1 1052.6,125.02Z" style="fill:#EA9CAC" />
<path d="M1052.7,125.02A3,3 0 1 1 1046.7,125.02A3,3 0 1 1 1052.7,125.02Z" style="fill:#EA9CAC" />
<path d="M1052.7,125.02A3,3 0 1 1 1046.7,125.02A3,3 0 1 1 1052.7,125.02Z" style="fill:#EA9CAC" />
<path d="M1052.7,125.02A3,3 0 1 1 1046.7,125.02A3,3 0 1 1 1052.7,125.02Z" style="fill:#EA9CAC" />
<path d="M1049.4,125.02L1049.4,125.02L1049.5,125.02L1049.5,125.02L1049.5,125.02L1049.6,125.02L1049.6,125.01L1049.7,125.01L1049.7,125.01L1049.7,125.01" style="fill:none;stroke:#EA9CAC;stroke-width:3" />
<path d="M121.89,507.91L362.44,507.91" style="fill:none;stroke:#EA9CAC;stroke-width:4;stroke-dasharray:15,5" />
<path d="M1052.8,123.36A3,3 0 1 1 1046.8,123.36A3,3 0 1 1 1052.8,123.36Z" style="fill:#013854" />
<path d="M1052.8,123.36A3,3 0 1 1 1046.8,123.36A3,3 0 1 1 1052.8,123.36Z" style="fill:#013854" />
<path d="M1052.8,123.36A3,3 0 1 1 1046.8,123.36A3,3 0 1 1 1052.8,123.36Z" style="fill:#013854" />
<path d="M1052.9,123.36A3,3 0 1 1 1046.9,123.36A3,3 0 1 1 1052.9,123.36Z" style="fill:#013854" />
<path d="M1052.9,123.36A3,3 0 1 1 1046.9,123.36A3,3 0 1 1 1052.9,123.36Z" style="fill:#013854" />
<path d="M1053,123.36A3,3 0 1 1 1047,123.36A3,3 0 1 1 1053,123.36Z" style="fill:#013854" />
<path d="M1053,123.36A3,3 0 1 1 1047,123.36A3,3 0 1 1 1053,123.36Z" style="fill:#013854" />
<path d="M1053,123.36A3,3 0 1 1 1047,123.36A3,3 0 1 1 1053,123.36Z" style="fill:#013854" />
<path d="M1053.1,123.36A3,3 0 1 1 1047.1,123.36A3,3 0 1 1 1053.1,123.36Z" style="fill:#013854" />
<path d="M1053.1,123.36A3,3 0 1 1 1047.1,123.36A3,3 0 1 1 1053.1,123.36Z" style="fill:#013854" />
<path d="M1049.8,123.37L1049.8,123.37L1049.8,123.36L1049.9,123.36L1049.9,123.36L1050,123.36L1050,123.36L1050,123.35L1050.1,123.35L1050.1,123.35" style="fill:none;stroke:#013854;stroke-width:3" />
<path d="M458.53,821.98L571.39,821.98" style="fill:none;stroke:#013854;stroke-width:4;stroke-dasharray:15,5" />
<path d="M1053.1,121.05A3,3 0 1 1 1047.1,121.05A3,3 0 1 1 1053.1,121.05Z" style="fill:#2E8C3C" />
<path d="M1053.2,121.05A3,3 0 1 1 1047.2,121.05A3,3 0 1 1 1053.2,121.05Z" style="fill:#2E8C3C" />
<path d="M1053.2,121.05A3,3 0 1 1 1047.2,121.05A3,3 0 1 1 1053.2,121.05Z" style="fill:#2E8C3C" />
<path d="M1053.3,121.05A3,3 0 1 1 1047.3,121.05A3,3 0 1 1 1053.3,121.05Z" style="fill:#2E8C3C" />
<path d="M1053.3,121.05A3,3 0 1 1 1047.3,121.05A3,3 0 1 1 1053.3,121.05Z" style="fill:#2E8C3C" />
<path d="M1053.3,121.05A3,3 0 1 1 1047.3,121.05A3,3 0 1 1 1053.3,121.05Z" style="fill:#2E8C3C" />
<path d="M1053.4,121.05A3,3 0 1 1 1047.4,121.05A3,3 0 1 1 1053.4,121.05Z" style="fill:#2E8C3C" />
<path d="M1053.4,121.05A3,3 0 1 1 1047.4,121.05A3,3 0 1 1 1053.4,121.05Z" style="fill:#2E8C3C" />
<path d="M1053.4,121.05A3,3 0 1 1 1047.4,121.05A3,3 0 1 1 1053.4,121.05Z" style="fill:#2E8C3C" />
<path d="M1053.5,121.05A3,3 0 1 1 1047.5,121.05A3,3 0 1 1 1053.5,121.05Z" style="fill:#2E8C3C" />
<path d="M1050.1,121.06L1050.2,121.06L1050.2,121.06L1050.3,121.05L1050.3,121.05L1050.3,121.05L1050.4,121.05L1050.4,121.05L1050.4,121.05L1050.5,121.04" style="fill:none;stroke:#2E8C3C;stroke-width:3" />
<path d="M409.9,974.14L513.85,974.14" style="fill:none;stroke:#2E8C3C;stroke-width:4;stroke-dasharray:15,5" />
<path d="M1053.5,119.59A3,3 0 1 1 1047.5,119.59A3,3 0 1 1 1053.5,119.59Z" style="fill:#7A9CFF" />
<path d="M1053.6,119.59A3,3 0 1 1 1047.6,119.59A3,3 0 1 1 1053.6,119.59Z" style="fill:#7A9CFF" />
<path d="M1053.6,119.59A3,3 0 1 1 1047.6,119.59A3,3 0 1 1 1053.6,119.59Z" style="fill:#7A9CFF" />
<path d="M1053.6,119.59A3,3 0 1 1 1047.6,119.59A3,3 0 1 1 1053.6,119.59Z" style="fill:#7A9CFF" />
<path d="M1053.7,119.59A3,3 0 1 1 1047.7,119.59A3,3 0 1 1 1053.7,119.59Z" style="fill:#7A9CFF" />
<path d="M1053.7,119.59A3,3 0 1 1 1047.7,119.59A3,3 0 1 1 1053.7,119.59Z" style="fill:#7A9CFF" />
<path d="M1053.7,119.59A3,3 0 1 1 1047.7,119.59A3,3 0 1 1 1053.7,119.59Z" style="fill:#7A9CFF" />
<path d="M1053.8,119.59A3,3 0 1 1 1047.8,119.59A3,3 0 1 1 1053.8,119.59Z" style="fill:#7A9CFF" />
<path d="M1053.8,119.59A3,3 0 1 1 1047.8,119.59A3,3 0 1 1 1053.8,119.59Z" style="fill:#7A9CFF" />
<path d="M1053.9,119.59A3,3 0 1 1 1047.9,119.59A3,3 0 1 1 1053.9,119.59Z" style="fill:#7A9CFF" />
<path d="M1050.5,119.59L1050.6,119.59L1050.6,119.59L1050.6,119.59L1050.7,119.59L1050.7,119.59L1050.7,119.59L1050.8,119.58L1050.8,119.58L1050.9,119.58" style="fill:none;stroke:#637CC6;stroke-width:3" />
<path d="M367.72,443L529.85,443" style="fill:none;stroke:#637CC6;stroke-width:4;stroke-dasharray:15,5" />
<path d="M1053.9,118.38A3,3 0 1 1 1047.9,118.38A3,3 0 1 1 1053.9,118.38Z" style="fill:#7A2968" />
<path d="M1053.9,118.38A3,3 0 1 1 1047.9,118.38A3,3 0 1 1 1053.9,118.38Z" style="fill:#7A2968" />
<path d="M1054,118.38A3,3 0 1 1 1048,118.38A3,3 0 1 1 1054,118.38Z" style="fill:#7A2968" />
<path d="M1054,118.38A3,3 0 1 1 1048,118.38A3,3 0 1 1 1054,118.38Z" style="fill:#7A2968" />
<path d="M1054,118.38A3,3 0 1 1 1048,118.38A3,3 0 1 1 1054,118.38Z" style="fill:#7A2968" />
<path d="M1054.1,118.38A3,3 0 1 1 1048.1,118.38A3,3 0 1 1 1054.1,118.38Z" style="fill:#7A2968" />
<path d="M1054.1,118.38A3,3 0 1 1 1048.1,118.38A3,3 0 1 1 1054.1,118.38Z" style="fill:#7A2968" />
<path d="M1054.1,118.38A3,3 0 1 1 1048.1,118.38A3,3 0 1 1 1054.1,118.38Z" style="fill:#7A2968" />
<path d="M1054.2,118.38A3,3 0 1 1 1048.2,118.38A3,3 0 1 1 1054.2,118.38Z" style="fill:#7A2968" />
<path d="M1054.2,118.38A3,3 0 1 1 1048.2,118.38A3,3 0 1 1 1054.2,118.38Z" style="fill:#7A2968" />
<path d="M1050.9,118.39L1050.9,118.39L1051,118.38L1051,118.38L1051,118.38L1051.1,118.38L1051.1,118.38L1051.1,118.38L1051.2,118.38L1051.2,118.38" style="fill:none;stroke:#7A2968;stroke-width:3" />
<path d="M394.08,423.78L546.76,423.78" style="fill:none;stroke:#7A2968;stroke-width:4;stroke-dasharray:15,5" />
<path d="M1054.3,117.17A3,3 0 1 1 1048.3,117.17A3,3 0 1 1 1054.3,117.17Z" style="fill:#297A64" />
<path d="M1054.3,117.17A3,3 0 1 1 1048.3,117.17A3,3 0 1 1 1054.3,117.17Z" style="fill:#297A64" />
<path d="M1054.3,117.17A3,3 0 1 1 1048.3,117.17A3,3 0 1 1 1054.3,117.17Z" style="fill:#297A64" />
<path d="M1054.4,117.17A3,3 0 1 1 1048.4,117.17A3,3 0 1 1 1054.4,117.17Z" style="fill:#297A64" />
<path d="M1054.4,117.17A3,3 0 1 1 1048.4,117.17A3,3 0 1 1 1054.4,117.17Z" style="fill:#297A64" />
<path d="M1054.4,117.17A3,3 0 1 1 1048.4,117.17A3,3 0 1 1 1054.4,117.17Z" style="fill:#297A64" />
<path d="M1054.5,117.17A3,3 0 1 1 1048.5,117.17A3,3 0 1 1 1054.5,117.17Z" style="fill:#297A64" />
<path d="M1054.5,117.17A3,3 0 1 1 1048.5,117.17A3,3 0 1 1 1054.5,117.17Z" style="fill:#297A64" />
<path d="M1054.6,117.17A3,3 0 1 1 1048.6,117.17A3,3 0 1 1 1054.6,117.17Z" style="fill:#297A64" />
<path d="M1054.6,117.17A3,3 0 1 1 1048.6,117.17A3,3 0 1 1 1054.6,117.17Z" style="fill:#297A64" />
<path d="M1051.3,117.18L1051.3,117.17L1051.3,117.17L1051.4,117.17L1051.4,117.17L1051.4,117.17L1051.5,117.17L1051.5,117.17L1051.6,117.16L1051.6,117.16" style="fill:none;stroke:#297A64;stroke-width:3" />
<path d="M456.13,383.72L595.46,383.72" style="fill:none;stroke:#297A64;stroke-width:4;stroke-dasharray:15,5" />
<path d="M1054.6,115.67A3,3 0 1 1 1048.6,115.67A3,3 0 1 1 1054.6,115.67Z" style="fill:#7A5A29" />
<path d="M1054.7,115.67A3,3 0 1 1 1048.7,115.67A3,3 0 1 1 1054.7,115.67Z" style="fill:#7A5A29" />
<path d="M1054.7,115.67A3,3 0 1 1 1048.7,115.67A3,3 0 1 1 1054.7,115.67Z" style="fill:#7A5A29" />
<path d="M1054.7,115.67A3,3 0 1 1 1048.7,115.67A3,3 0 1 1 1054.7,115.67Z" style="fill:#7A5A29" />
<path d="M1054.8,115.67A3,3 0 1 1 1048.8,115.67A3,3 0 1 1 1054.8,115.67Z" style="fill:#7A5A29" />
<path d="M1054.8,115.67A3,3 0 1 1 1048.8,115.67A3,3 0 1 1 1054.8,115.67Z" style="fill:#7A5A29" />
<path d="M1054.9,115.67A3,3 0 1 1 1048.9,115.67A3,3 0 1 1 1054.9,115.67Z" style="fill:#7A5A29" />
<path d="M1054.9,115.67A3,3 0 1 1 1048.9,115.67A3,3 0 1 1 1054.9,115.67Z" style="fill:#7A5A29" />
<path d="M1054.9,115.67A3,3 0 1 1 1048.9,115.67A3,3 0 1 1 1054.9,115.67Z" style="fill:#7A5A29" />
<path d="M1055,115.67A3,3 0 1 1 1049,115.67A3,3 0 1 1 1055,115.67Z" style="fill:#7A5A29" />
<path d="M1051.6,115.68L1051.7,115.67L1051.7,115.67L1051.7,115.67L1051.8,115.67L1051.8,115.67L1051.9,115.67L1051.9,115.67L1051.9,115.67L1052,115.66" style="fill:none;stroke:#7A5A29;stroke-width:3" />
<path d="M559.79,375.42L667.88,375.42" style="fill:none;stroke:#7A5A29;stroke-width:4;stroke-dasharray:15,5" />
<path d="M1055,113.49A3,3 0 1 1 1049,113.49A3,3 0 1 1 1055,113.49Z" style="fill:#FFC17A" />
<path d="M1055,113.49A3,3 0 1 1 1049,113.49A3,3 0 1 1 1055,113.49Z" style="fill:#FFC17A" />
<path d="M1055.1,113.49A3,3 0 1 1 1049.1,113.49A3,3 0 1 1 1055.1,113.49Z" style="fill:#FFC17A" />
<path d="M1055.1,113.49A3,3 0 1 1 1049.1,113.49A3,3 0 1 1 1055.1,113.49Z" style="fill:#FFC17A" />
<path d="M1055.2,113.49A3,3 0 1 1 1049.2,113.49A3,3 0 1 1 1055.2,113.49Z" style="fill:#FFC17A" />
<path d="M1055.2,113.49A3,3 0 1 1 1049.2,113.49A3,3 0 1 1 1055.2,113.49Z" style="fill:#FFC17A" />
<path d="M1055.2,113.49A3,3 0 1 1 1049.2,113.49A3,3 0 1 1 1055.2,113.49Z" style="fill:#FFC17A" />
<path d="M1055.3,113.49A3,3 0 1 1 1049.3,113.49A3,3 0 1 1 1055.3,113.49Z" style="fill:#FFC17A" />
<path d="M1055.3,113.49A3,3 0 1 1 1049.3,113.49A3,3 0 1 1 1055.3,113.49Z" style="fill:#FFC17A" />
<path d="M1055.3,113.49A3,3 0 1 1 1049.3,113.49A3,3 0 1 1 1055.3,113.49Z" style="fill:#FFC17A" />
<path d="M1052,113.5L1052,113.5L1052.1,113.5L1052.1,113.49L1052.2,113.49L1052.2,113.49L1052.2,113.49L1052.3,113.49L1052.3,113.49L1052.3,113.49" style="fill:none;stroke:#B78B59;stroke-width:3" />
<path d="M705.26,337.65L776.01,337.65" style="fill:none;stroke:#B78B59;stroke-width:4;stroke-dasharray:15,5" />
<path d="M1055.4,109.67A3,3 0 1 1 1049.4,109.67A3,3 0 1 1 1055.4,109.67Z" style="fill:#162C5B" />
<path d="M1055.4,109.67A3,3 0 1 1 1049.4,109.67A3,3 0 1 1 1055.4,109.67Z" style="fill:#162C5B" />
<path d="M1055.5,109.67A3,3 0 1 1 1049.5,109.67A3,3 0 1 1 1055.5,109.67Z" style="fill:#162C5B" />
<path d="M1055.5,109.67A3,3 0 1 1 1049.5,109.67A3,3 0 1 1 1055.5,109.67Z" style="fill:#162C5B" />
<path d="M1055.5,109.67A3,3 0 1 1 1049.5,109.67A3,3 0 1 1 1055.5,109.67Z" style="fill:#162C5B" />
<path d="M1055.6,109.67A3,3 0 1 1 1049.6,109.67A3,3 0 1 1 1055.6,109.67Z" style="fill:#162C5B" />
<path d="M1055.6,109.67A3,3 0 1 1 1049.6,109.67A3,3 0 1 1 1055.6,109.67Z" style="fill:#162C5B" />
<path d="M1055.6,109.67A3,3 0 1 1 1049.6,109.67A3,3 0 1 1 1055.6,109.67Z" style="fill:#162C5B" />
<path d="M1055.7,109.67A3,3 0 1 1 1049.7,109.67A3,3 0 1 1 1055.7,109.67Z" style="fill:#162C5B" />
<path d="M1055.7,109.67A3,3 0 1 1 1049.7,109.67A3,3 0 1 1 1055.7,109.67Z" style="fill:#162C5B" />
<path d="M1052.4,109.68L1052.4,109.68L1052.5,109.68L1052.5,109.68L1052.5,109.67L1052.6,109.67L1052.6,109.67L1052.6,109.67L1052.7,109.67L1052.7,109.67" style="fill:none;stroke:#162C5B;stroke-width:3" />
<path d="M833.22,132.55L908.28,132.55" style="fill:none;stroke:#162C5B;stroke-width:4;stroke-dasharray:15,5" />
<path d="M1055.8,109.02A3,3 0 1 1 1049.8,109.02A3,3 0 1 1 1055.8,109.02Z" style="fill:#3B1142" />
<path d="M1055.8,109.02A3,3 0 1 1 1049.8,109.02A3,3 0 1 1 1055.8,109.02Z" style="fill:#3B1142" />
<path d="M1055.8,109.02A3,3 0 1 1 1049.8,109.02A3,3 0 1 1 1055.8,109.02Z" style="fill:#3B1142" />
<path d="M1055.9,109.02A3,3 0 1 1 1049.9,109.02A3,3 0 1 1 1055.9,109.02Z" style="fill:#3B1142" />
<path d="M1055.9,109.02A3,3 0 1 1 1049.9,109.02A3,3 0 1 1 1055.9,109.02Z" style="fill:#3B1142" />
<path d="M1055.9,109.02A3,3 0 1 1 1049.9,109.02A3,3 0 1 1 1055.9,109.02Z" style="fill:#3B1142" />
<path d="M1056,109.02A3,3 0 1 1 1050,109.02A3,3 0 1 1 1056,109.02Z" style="fill:#3B1142" />
<path d="M1056,109.02A3,3 0 1 1 1050,109.02A3,3 0 1 1 1056,109.02Z" style="fill:#3B1142" />
<path d="M1056.1,109.02A3,3 0 1 1 1050.1,109.02A3,3 0 1 1 1056.1,109.02Z" style="fill:#3B1142" />
<path d="M1056.1,109.02A3,3 0 1 1 1050.1,109.02A3,3 0 1 1 1056.1,109.02Z" style="fill:#3B1142" />
<path d="M1052.8,109.02L1052.8,109.02L1052.8,109.02L1052.9,109.02L1052.9,109.02L1052.9,109.02L1053,109.02L1053,109.02L1053.1,109.01L1053.1,109.01" style="fill:none;stroke:#3B1142;stroke-width:3" />
<path d="M867.15,119.71L940.52,119.71" style="fill:none;stroke:#3B1142;stroke-width:4;stroke-dasharray:15,5" />
<path d="M1056.1,107.32A3,3 0 1 1 1050.1,107.32A3,3 0 1 1 1056.1,107.32Z" style="fill:#1B9692" />
<path d="M1056.2,107.32A3,3 0 1 1 1050.2,107.32A3,3 0 1 1 1056.2,107.32Z" style="fill:#1B9692" />
<path d="M1056.2,107.32A3,3 0 1 1 1050.2,107.32A3,3 0 1 1 1056.2,107.32Z" style="fill:#1B9692" />
<path d="M1056.2,107.32A3,3 0 1 1 1050.2,107.32A3,3 0 1 1 1056.2,107.32Z" style="fill:#1B9692" />
<path d="M1056.3,107.32A3,3 0 1 1 1050.3,107.32A3,3 0 1 1 1056.3,107.32Z" style="fill:#1B9692" />
<path d="M1056.3,107.32A3,3 0 1 1 1050.3,107.32A3,3 0 1 1 1056.3,107.32Z" style="fill:#1B9692" />
<path d="M1056.4,107.32A3,3 0 1 1 1050.4,107.32A3,3 0 1 1 1056.4,107.32Z" style="fill:#1B9692" />
<path d="M1056.4,107.32A3,3 0 1 1 1050.4,107.32A3,3 0 1 1 1056.4,107.32Z" style="fill:#1B9692" />
<path d="M1056.4,107.32A3,3 0 1 1 1050.4,107.32A3,3 0 1 1 1056.4,107.32Z" style="fill:#1B9692" />
<path d="M1056.5,107.32A3,3 0 1 1 1050.5,107.32A3,3 0 1 1 1056.5,107.32Z" style="fill:#1B9692" />
<path d="M1053.1,107.64L1053.2,107.64L1053.2,107.64L1053.2,107.64L1053.3,107.64L1053.3,107.64L1053.4,107.64L1053.4,107.64L1053.4,107.64L1053.5,107.64" style="fill:none;stroke:#126663;stroke-width:3" />
<path d="M1047.7,128.59L1047.7,128.59" style="fill:none;stroke:#126663;stroke-width:4;stroke-dasharray:15,5" />
<text x="867.96" y="-899.95" transform="scale(1, -1)"
	style="font-family:Helvetica;font-weight:normal;font-style:normal;font-size:36px">Power</text>
<path d="M1011,867.02A6,6 0 1 1 999,867.02A6,6 0 1 1 1011,867.02Z" style="fill:#1BAA8B" />
<text x="835.96" y="-858.54" transform="scale(1, -1)"
	style="font-family:Helvetica;font-weight:normal;font-style:normal;font-size:36px">189 mW</text>
<path d="M1011,825.61A6,6 0 1 1 999,825.61A6,6 0 1 1 1011,825.61Z" style="fill:#BC75FF" />
<text x="835.96" y="-817.13" transform="scale(1, -1)"
	style="font-family:Helvetica;font-weight:normal;font-style:normal;font-size:36px">178 mW</text>
<path d="M1011,784.2A6,6 0 1 1 999,784.2A6,6 0 1 1 1011,784.2Z" style="fill:#8C2E31" />
<text x="835.96" y="-775.72" transform="scale(1, -1)"
	style="font-family:Helvetica;font-weight:normal;font-style:normal;font-size:36px">166 mW</text>
<path d="M1011,742.79A6,6 0 1 1 999,742.79A6,6 0 1 1 1011,742.79Z" style="fill:#5B1616" />
<text x="835.96" y="-734.3" transform="scale(1, -1)"
	style="font-family:Helvetica;font-weight:normal;font-style:normal;font-size:36px">154 mW</text>
<path d="M1011,701.37A6,6 0 1 1 999,701.37A6,6 0 1 1 1011,701.37Z" style="fill:#C96892" />
<text x="835.96" y="-692.89" transform="scale(1, -1)"
	style="font-family:Helvetica;font-weight:normal;font-style:normal;font-size:36px">143 mW</text>
<path d="M1011,659.96A6,6 0 1 1 999,659.96A6,6 0 1 1 1011,659.96Z" style="fill:#EA9CAC" />
<text x="835.96" y="-651.48" transform="scale(1, -1)"
	style="font-family:Helvetica;font-weight:normal;font-style:normal;font-size:36px">134 mW</text>
<path d="M1011,618.55A6,6 0 1 1 999,618.55A6,6 0 1 1 1011,618.55Z" style="fill:#013854" />
<text x="835.96" y="-610.07" transform="scale(1, -1)"
	style="font-family:Helvetica;font-weight:normal;font-style:normal;font-size:36px">123 mW</text>
<path d="M1011,577.14A6,6 0 1 1 999,577.14A6,6 0 1 1 1011,577.14Z" style="fill:#2E8C3C" />
<text x="835.96" y="-568.66" transform="scale(1, -1)"
	style="font-family:Helvetica;font-weight:normal;font-style:normal;font-size:36px">106 mW</text>
<path d="M1011,535.73A6,6 0 1 1 999,535.73A6,6 0 1 1 1011,535.73Z" style="fill:#637CC6" />
<text x="855.99" y="-527.24" transform="scale(1, -1)"
	style="font-family:Helvetica;font-weight:normal;font-style:normal;font-size:36px">94 mW</text>
<path d="M1011,494.31A6,6 0 1 1 999,494.31A6,6 0 1 1 1011,494.31Z" style="fill:#7A2968" />
<text x="855.99" y="-485.83" transform="scale(1, -1)"
	style="font-family:Helvetica;font-weight:normal;font-style:normal;font-size:36px">84 mW</text>
<path d="M1011,452.9A6,6 0 1 1 999,452.9A6,6 0 1 1 1011,452.9Z" style="fill:#297A64" />
<text x="855.99" y="-444.42" transform="scale(1, -1)"
	style="font-family:Helvetica;font-weight:normal;font-style:normal;font-size:36px">73 mW</text>
<path d="M1011,411.49A6,6 0 1 1 999,411.49A6,6 0 1 1 1011,411.49Z" style="fill:#7A5A29" />
<text x="855.99" y="-403.01" transform="scale(1, -1)"
	style="font-family:Helvetica;font-weight:normal;font-style:normal;font-size:36px">61 mW</text>
<path d="M1011,370.08A6,6 0 1 1 999,370.08A6,6 0 1 1 1011,370.08Z" style="fill:#B78B59" />
<text x="855.99" y="-361.6" transform="scale(1, -1)"
	style="font-family:Helvetica;font-weight:normal;font-style:normal;font-size:36px">43 mW</text>
<path d="M1011,328.67A6,6 0 1 1 999,328.67A6,6 0 1 1 1011,328.67Z" style="fill:#162C5B" />
<text x="855.99" y="-320.18" transform="scale(1, -1)"
	style="font-family:Helvetica;font-weight:normal;font-style:normal;font-size:36px">32 mW</text>
<path d="M1011,287.25A6,6 0 1 1 999,287.25A6,6 0 1 1 1011,287.25Z" style="fill:#3B1142" />
<text x="855.99" y="-278.77" transform="scale(1, -1)"
	style="font-family:Helvetica;font-weight:normal;font-style:normal;font-size:36px">24 mW</text>
<path d="M1011,245.84A6,6 0 1 1 999,245.84A6,6 0 1 1 1011,245.84Z" style="fill:#126663" />
<text x="855.99" y="-237.36" transform="scale(1, -1)"
	style="font-family:Helvetica;font-weight:normal;font-style:normal;font-size:36px">14 mW</text>
</g>
</svg>
