<?xml version="1.0"?>
<!-- Generated by SVGo and Plotinum VG -->
<svg width="1080pt" height="1080pt" viewBox="0 0 1080 1080"
	xmlns="http://www.w3.org/2000/svg"
	xmlns:xlink="http://www.w3.org/1999/xlink">
<g transform="scale(1, -1) translate(0, -1080)">
<path d="M0,0L1080,0L1080,1080L0,1080Z" style="fill:#-8000000000000000-8000000000000000-8000000000000000;fill-opacity:0" />
<text x="231.04" y="-1015.2" transform="scale(1, -1)"
	style="font-family:Helvetica;font-weight:normal;font-style:normal;font-size:80px">4 mm CS2 CABS</text>
<text x="425.72" y="-17.172" transform="scale(1, -1)"
	style="font-family:Helvetica;font-weight:normal;font-style:normal;font-size:56px">Frequency (GHz)</text>
<text x="164.78" y="-119.73" transform="scale(1, -1)"
	style="font-family:Helvetica;font-weight:normal;font-style:normal;font-size:56px">2.3</text>
<text x="514.17" y="-119.73" transform="scale(1, -1)"
	style="font-family:Helvetica;font-weight:normal;font-style:normal;font-size:56px">2.5</text>
<text x="863.56" y="-119.73" transform="scale(1, -1)"
	style="font-family:Helvetica;font-weight:normal;font-style:normal;font-size:56px">2.7</text>
<path d="M203.7,181.12L203.7,173.12" style="fill:none;stroke:#000000;stroke-width:1.5" />
<path d="M378.4,177.12L378.4,173.12" style="fill:none;stroke:#000000;stroke-width:1.5" />
<path d="M553.09,181.12L553.09,173.12" style="fill:none;stroke:#000000;stroke-width:1.5" />
<path d="M727.79,177.12L727.79,173.12" style="fill:none;stroke:#000000;stroke-width:1.5" />
<path d="M902.49,181.12L902.49,173.12" style="fill:none;stroke:#000000;stroke-width:1.5" />
<path d="M1077.2,177.12L1077.2,173.12" style="fill:none;stroke:#000000;stroke-width:1.5" />
<path d="M203.7,173.12L1077.2,173.12" style="fill:none;stroke:#000000;stroke-width:1.5" />
<g transform="rotate(90)">
<text x="273.11" y="45.391" transform="scale(1, -1)"
	style="font-family:Helvetica;font-weight:normal;font-style:normal;font-size:56px">Spectral Density (uV)</text>
</g>
<text x="145.57" y="-199.38" transform="scale(1, -1)"
	style="font-family:Helvetica;font-weight:normal;font-style:normal;font-size:56px">0</text>
<text x="114.43" y="-425.89" transform="scale(1, -1)"
	style="font-family:Helvetica;font-weight:normal;font-style:normal;font-size:56px">10</text>
<text x="114.43" y="-652.41" transform="scale(1, -1)"
	style="font-family:Helvetica;font-weight:normal;font-style:normal;font-size:56px">20</text>
<text x="114.43" y="-878.93" transform="scale(1, -1)"
	style="font-family:Helvetica;font-weight:normal;font-style:normal;font-size:56px">30</text>
<path d="M208.28,213.48L200.28,213.48" style="fill:none;stroke:#000000;stroke-width:1.5" />
<path d="M204.28,326.74L200.28,326.74" style="fill:none;stroke:#000000;stroke-width:1.5" />
<path d="M208.28,440L200.28,440" style="fill:none;stroke:#000000;stroke-width:1.5" />
<path d="M204.28,553.26L200.28,553.26" style="fill:none;stroke:#000000;stroke-width:1.5" />
<path d="M208.28,666.52L200.28,666.52" style="fill:none;stroke:#000000;stroke-width:1.5" />
<path d="M204.28,779.78L200.28,779.78" style="fill:none;stroke:#000000;stroke-width:1.5" />
<path d="M208.28,893.04L200.28,893.04" style="fill:none;stroke:#000000;stroke-width:1.5" />
<path d="M200.28,182.24L200.28,893.04" style="fill:none;stroke:#000000;stroke-width:1.5" />
<path d="M210.53,249.57A5,5 0 1 1 200.53,249.57A5,5 0 1 1 210.53,249.57Z" style="fill:#BC75FF" />
<path d="M212.35,279.4A5,5 0 1 1 202.35,279.4A5,5 0 1 1 212.35,279.4Z" style="fill:#BC75FF" />
<path d="M214.18,274.05A5,5 0 1 1 204.18,274.05A5,5 0 1 1 214.18,274.05Z" style="fill:#BC75FF" />
<path d="M216.01,286.1A5,5 0 1 1 206.01,286.1A5,5 0 1 1 216.01,286.1Z" style="fill:#BC75FF" />
<path d="M217.83,251.11A5,5 0 1 1 207.83,251.11A5,5 0 1 1 217.83,251.11Z" style="fill:#BC75FF" />
<path d="M219.66,262.07A5,5 0 1 1 209.66,262.07A5,5 0 1 1 219.66,262.07Z" style="fill:#BC75FF" />
<path d="M221.49,258.93A5,5 0 1 1 211.49,258.93A5,5 0 1 1 221.49,258.93Z" style="fill:#BC75FF" />
<path d="M223.31,249.32A5,5 0 1 1 213.31,249.32A5,5 0 1 1 223.31,249.32Z" style="fill:#BC75FF" />
<path d="M225.14,262.44A5,5 0 1 1 215.14,262.44A5,5 0 1 1 225.14,262.44Z" style="fill:#BC75FF" />
<path d="M226.97,269.4A5,5 0 1 1 216.97,269.4A5,5 0 1 1 226.97,269.4Z" style="fill:#BC75FF" />
<path d="M228.79,302.95A5,5 0 1 1 218.79,302.95A5,5 0 1 1 228.79,302.95Z" style="fill:#BC75FF" />
<path d="M230.62,293.1A5,5 0 1 1 220.62,293.1A5,5 0 1 1 230.62,293.1Z" style="fill:#BC75FF" />
<path d="M232.45,268.51A5,5 0 1 1 222.45,268.51A5,5 0 1 1 232.45,268.51Z" style="fill:#BC75FF" />
<path d="M234.27,262.36A5,5 0 1 1 224.27,262.36A5,5 0 1 1 234.27,262.36Z" style="fill:#BC75FF" />
<path d="M236.1,282.51A5,5 0 1 1 226.1,282.51A5,5 0 1 1 236.1,282.51Z" style="fill:#BC75FF" />
<path d="M237.93,260.82A5,5 0 1 1 227.93,260.82A5,5 0 1 1 237.93,260.82Z" style="fill:#BC75FF" />
<path d="M239.75,313.99A5,5 0 1 1 229.75,313.99A5,5 0 1 1 239.75,313.99Z" style="fill:#BC75FF" />
<path d="M241.58,289.67A5,5 0 1 1 231.58,289.67A5,5 0 1 1 241.58,289.67Z" style="fill:#BC75FF" />
<path d="M243.41,268.21A5,5 0 1 1 233.41,268.21A5,5 0 1 1 243.41,268.21Z" style="fill:#BC75FF" />
<path d="M245.23,260.25A5,5 0 1 1 235.23,260.25A5,5 0 1 1 245.23,260.25Z" style="fill:#BC75FF" />
<path d="M247.06,254.69A5,5 0 1 1 237.06,254.69A5,5 0 1 1 247.06,254.69Z" style="fill:#BC75FF" />
<path d="M248.89,272.05A5,5 0 1 1 238.89,272.05A5,5 0 1 1 248.89,272.05Z" style="fill:#BC75FF" />
<path d="M250.71,278.43A5,5 0 1 1 240.71,278.43A5,5 0 1 1 250.71,278.43Z" style="fill:#BC75FF" />
<path d="M252.54,299.63A5,5 0 1 1 242.54,299.63A5,5 0 1 1 252.54,299.63Z" style="fill:#BC75FF" />
<path d="M254.37,315.55A5,5 0 1 1 244.37,315.55A5,5 0 1 1 254.37,315.55Z" style="fill:#BC75FF" />
<path d="M256.19,317.95A5,5 0 1 1 246.19,317.95A5,5 0 1 1 256.19,317.95Z" style="fill:#BC75FF" />
<path d="M258.02,279.33A5,5 0 1 1 248.02,279.33A5,5 0 1 1 258.02,279.33Z" style="fill:#BC75FF" />
<path d="M259.85,284.58A5,5 0 1 1 249.85,284.58A5,5 0 1 1 259.85,284.58Z" style="fill:#BC75FF" />
<path d="M261.67,283.12A5,5 0 1 1 251.67,283.12A5,5 0 1 1 261.67,283.12Z" style="fill:#BC75FF" />
<path d="M263.5,274.91A5,5 0 1 1 253.5,274.91A5,5 0 1 1 263.5,274.91Z" style="fill:#BC75FF" />
<path d="M265.33,288.79A5,5 0 1 1 255.33,288.79A5,5 0 1 1 265.33,288.79Z" style="fill:#BC75FF" />
<path d="M267.15,289.61A5,5 0 1 1 257.15,289.61A5,5 0 1 1 267.15,289.61Z" style="fill:#BC75FF" />
<path d="M268.98,312.87A5,5 0 1 1 258.98,312.87A5,5 0 1 1 268.98,312.87Z" style="fill:#BC75FF" />
<path d="M270.81,310.11A5,5 0 1 1 260.81,310.11A5,5 0 1 1 270.81,310.11Z" style="fill:#BC75FF" />
<path d="M272.63,291.22A5,5 0 1 1 262.63,291.22A5,5 0 1 1 272.63,291.22Z" style="fill:#BC75FF" />
<path d="M274.46,314A5,5 0 1 1 264.46,314A5,5 0 1 1 274.46,314Z" style="fill:#BC75FF" />
<path d="M276.29,324.07A5,5 0 1 1 266.29,324.07A5,5 0 1 1 276.29,324.07Z" style="fill:#BC75FF" />
<path d="M278.11,305.64A5,5 0 1 1 268.11,305.64A5,5 0 1 1 278.11,305.64Z" style="fill:#BC75FF" />
<path d="M279.94,310.21A5,5 0 1 1 269.94,310.21A5,5 0 1 1 279.94,310.21Z" style="fill:#BC75FF" />
<path d="M281.77,322.22A5,5 0 1 1 271.77,322.22A5,5 0 1 1 281.77,322.22Z" style="fill:#BC75FF" />
<path d="M283.59,280.03A5,5 0 1 1 273.59,280.03A5,5 0 1 1 283.59,280.03Z" style="fill:#BC75FF" />
<path d="M285.42,304.25A5,5 0 1 1 275.42,304.25A5,5 0 1 1 285.42,304.25Z" style="fill:#BC75FF" />
<path d="M287.25,306.21A5,5 0 1 1 277.25,306.21A5,5 0 1 1 287.25,306.21Z" style="fill:#BC75FF" />
<path d="M289.07,276.42A5,5 0 1 1 279.07,276.42A5,5 0 1 1 289.07,276.42Z" style="fill:#BC75FF" />
<path d="M290.9,309.21A5,5 0 1 1 280.9,309.21A5,5 0 1 1 290.9,309.21Z" style="fill:#BC75FF" />
<path d="M292.73,331.57A5,5 0 1 1 282.73,331.57A5,5 0 1 1 292.73,331.57Z" style="fill:#BC75FF" />
<path d="M294.55,328.46A5,5 0 1 1 284.55,328.46A5,5 0 1 1 294.55,328.46Z" style="fill:#BC75FF" />
<path d="M296.38,317.92A5,5 0 1 1 286.38,317.92A5,5 0 1 1 296.38,317.92Z" style="fill:#BC75FF" />
<path d="M298.21,330.72A5,5 0 1 1 288.21,330.72A5,5 0 1 1 298.21,330.72Z" style="fill:#BC75FF" />
<path d="M300.03,327.66A5,5 0 1 1 290.03,327.66A5,5 0 1 1 300.03,327.66Z" style="fill:#BC75FF" />
<path d="M301.86,303.44A5,5 0 1 1 291.86,303.44A5,5 0 1 1 301.86,303.44Z" style="fill:#BC75FF" />
<path d="M303.69,293.65A5,5 0 1 1 293.69,293.65A5,5 0 1 1 303.69,293.65Z" style="fill:#BC75FF" />
<path d="M305.51,309.25A5,5 0 1 1 295.51,309.25A5,5 0 1 1 305.51,309.25Z" style="fill:#BC75FF" />
<path d="M307.34,295.4A5,5 0 1 1 297.34,295.4A5,5 0 1 1 307.34,295.4Z" style="fill:#BC75FF" />
<path d="M309.16,292.12A5,5 0 1 1 299.16,292.12A5,5 0 1 1 309.16,292.12Z" style="fill:#BC75FF" />
<path d="M310.99,314.01A5,5 0 1 1 300.99,314.01A5,5 0 1 1 310.99,314.01Z" style="fill:#BC75FF" />
<path d="M312.82,327.62A5,5 0 1 1 302.82,327.62A5,5 0 1 1 312.82,327.62Z" style="fill:#BC75FF" />
<path d="M314.64,328.22A5,5 0 1 1 304.64,328.22A5,5 0 1 1 314.64,328.22Z" style="fill:#BC75FF" />
<path d="M316.47,318.41A5,5 0 1 1 306.47,318.41A5,5 0 1 1 316.47,318.41Z" style="fill:#BC75FF" />
<path d="M318.3,300.36A5,5 0 1 1 308.3,300.36A5,5 0 1 1 318.3,300.36Z" style="fill:#BC75FF" />
<path d="M320.12,323.15A5,5 0 1 1 310.12,323.15A5,5 0 1 1 320.12,323.15Z" style="fill:#BC75FF" />
<path d="M321.95,302.97A5,5 0 1 1 311.95,302.97A5,5 0 1 1 321.95,302.97Z" style="fill:#BC75FF" />
<path d="M323.78,294.71A5,5 0 1 1 313.78,294.71A5,5 0 1 1 323.78,294.71Z" style="fill:#BC75FF" />
<path d="M325.6,290.23A5,5 0 1 1 315.6,290.23A5,5 0 1 1 325.6,290.23Z" style="fill:#BC75FF" />
<path d="M327.43,320.58A5,5 0 1 1 317.43,320.58A5,5 0 1 1 327.43,320.58Z" style="fill:#BC75FF" />
<path d="M329.26,353.09A5,5 0 1 1 319.26,353.09A5,5 0 1 1 329.26,353.09Z" style="fill:#BC75FF" />
<path d="M331.08,342.97A5,5 0 1 1 321.08,342.97A5,5 0 1 1 331.08,342.97Z" style="fill:#BC75FF" />
<path d="M332.91,327.72A5,5 0 1 1 322.91,327.72A5,5 0 1 1 332.91,327.72Z" style="fill:#BC75FF" />
<path d="M334.74,313.18A5,5 0 1 1 324.74,313.18A5,5 0 1 1 334.74,313.18Z" style="fill:#BC75FF" />
<path d="M336.56,327.76A5,5 0 1 1 326.56,327.76A5,5 0 1 1 336.56,327.76Z" style="fill:#BC75FF" />
<path d="M338.39,289.59A5,5 0 1 1 328.39,289.59A5,5 0 1 1 338.39,289.59Z" style="fill:#BC75FF" />
<path d="M340.22,331.01A5,5 0 1 1 330.22,331.01A5,5 0 1 1 340.22,331.01Z" style="fill:#BC75FF" />
<path d="M342.04,358.03A5,5 0 1 1 332.04,358.03A5,5 0 1 1 342.04,358.03Z" style="fill:#BC75FF" />
<path d="M343.87,347.37A5,5 0 1 1 333.87,347.37A5,5 0 1 1 343.87,347.37Z" style="fill:#BC75FF" />
<path d="M345.7,318.84A5,5 0 1 1 335.7,318.84A5,5 0 1 1 345.7,318.84Z" style="fill:#BC75FF" />
<path d="M347.52,341.12A5,5 0 1 1 337.52,341.12A5,5 0 1 1 347.52,341.12Z" style="fill:#BC75FF" />
<path d="M349.35,360.73A5,5 0 1 1 339.35,360.73A5,5 0 1 1 349.35,360.73Z" style="fill:#BC75FF" />
<path d="M351.18,337.67A5,5 0 1 1 341.18,337.67A5,5 0 1 1 351.18,337.67Z" style="fill:#BC75FF" />
<path d="M353,319.63A5,5 0 1 1 343,319.63A5,5 0 1 1 353,319.63Z" style="fill:#BC75FF" />
<path d="M354.83,320.07A5,5 0 1 1 344.83,320.07A5,5 0 1 1 354.83,320.07Z" style="fill:#BC75FF" />
<path d="M356.66,287.17A5,5 0 1 1 346.66,287.17A5,5 0 1 1 356.66,287.17Z" style="fill:#BC75FF" />
<path d="M358.48,325.71A5,5 0 1 1 348.48,325.71A5,5 0 1 1 358.48,325.71Z" style="fill:#BC75FF" />
<path d="M360.31,344.69A5,5 0 1 1 350.31,344.69A5,5 0 1 1 360.31,344.69Z" style="fill:#BC75FF" />
<path d="M362.14,368.67A5,5 0 1 1 352.14,368.67A5,5 0 1 1 362.14,368.67Z" style="fill:#BC75FF" />
<path d="M363.96,365.72A5,5 0 1 1 353.96,365.72A5,5 0 1 1 363.96,365.72Z" style="fill:#BC75FF" />
<path d="M365.79,341.78A5,5 0 1 1 355.79,341.78A5,5 0 1 1 365.79,341.78Z" style="fill:#BC75FF" />
<path d="M367.62,358.04A5,5 0 1 1 357.62,358.04A5,5 0 1 1 367.62,358.04Z" style="fill:#BC75FF" />
<path d="M369.44,345.13A5,5 0 1 1 359.44,345.13A5,5 0 1 1 369.44,345.13Z" style="fill:#BC75FF" />
<path d="M371.27,337.87A5,5 0 1 1 361.27,337.87A5,5 0 1 1 371.27,337.87Z" style="fill:#BC75FF" />
<path d="M373.1,347.68A5,5 0 1 1 363.1,347.68A5,5 0 1 1 373.1,347.68Z" style="fill:#BC75FF" />
<path d="M374.92,343.21A5,5 0 1 1 364.92,343.21A5,5 0 1 1 374.92,343.21Z" style="fill:#BC75FF" />
<path d="M376.75,324.35A5,5 0 1 1 366.75,324.35A5,5 0 1 1 376.75,324.35Z" style="fill:#BC75FF" />
<path d="M378.58,346.66A5,5 0 1 1 368.58,346.66A5,5 0 1 1 378.58,346.66Z" style="fill:#BC75FF" />
<path d="M380.4,352.32A5,5 0 1 1 370.4,352.32A5,5 0 1 1 380.4,352.32Z" style="fill:#BC75FF" />
<path d="M382.23,325.33A5,5 0 1 1 372.23,325.33A5,5 0 1 1 382.23,325.33Z" style="fill:#BC75FF" />
<path d="M384.06,332.5A5,5 0 1 1 374.06,332.5A5,5 0 1 1 384.06,332.5Z" style="fill:#BC75FF" />
<path d="M385.88,342.67A5,5 0 1 1 375.88,342.67A5,5 0 1 1 385.88,342.67Z" style="fill:#BC75FF" />
<path d="M387.71,345.68A5,5 0 1 1 377.71,345.68A5,5 0 1 1 387.71,345.68Z" style="fill:#BC75FF" />
<path d="M389.54,339.13A5,5 0 1 1 379.54,339.13A5,5 0 1 1 389.54,339.13Z" style="fill:#BC75FF" />
<path d="M391.36,344.7A5,5 0 1 1 381.36,344.7A5,5 0 1 1 391.36,344.7Z" style="fill:#BC75FF" />
<path d="M393.19,353.82A5,5 0 1 1 383.19,353.82A5,5 0 1 1 393.19,353.82Z" style="fill:#BC75FF" />
<path d="M395.02,349.77A5,5 0 1 1 385.02,349.77A5,5 0 1 1 395.02,349.77Z" style="fill:#BC75FF" />
<path d="M396.84,343.32A5,5 0 1 1 386.84,343.32A5,5 0 1 1 396.84,343.32Z" style="fill:#BC75FF" />
<path d="M398.67,358.74A5,5 0 1 1 388.67,358.74A5,5 0 1 1 398.67,358.74Z" style="fill:#BC75FF" />
<path d="M400.5,366.59A5,5 0 1 1 390.5,366.59A5,5 0 1 1 400.5,366.59Z" style="fill:#BC75FF" />
<path d="M402.32,366.82A5,5 0 1 1 392.32,366.82A5,5 0 1 1 402.32,366.82Z" style="fill:#BC75FF" />
<path d="M404.15,354.88A5,5 0 1 1 394.15,354.88A5,5 0 1 1 404.15,354.88Z" style="fill:#BC75FF" />
<path d="M405.98,371.36A5,5 0 1 1 395.98,371.36A5,5 0 1 1 405.98,371.36Z" style="fill:#BC75FF" />
<path d="M407.8,372.78A5,5 0 1 1 397.8,372.78A5,5 0 1 1 407.8,372.78Z" style="fill:#BC75FF" />
<path d="M409.63,355.92A5,5 0 1 1 399.63,355.92A5,5 0 1 1 409.63,355.92Z" style="fill:#BC75FF" />
<path d="M411.46,340.34A5,5 0 1 1 401.46,340.34A5,5 0 1 1 411.46,340.34Z" style="fill:#BC75FF" />
<path d="M413.28,358.33A5,5 0 1 1 403.28,358.33A5,5 0 1 1 413.28,358.33Z" style="fill:#BC75FF" />
<path d="M415.11,346.1A5,5 0 1 1 405.11,346.1A5,5 0 1 1 415.11,346.1Z" style="fill:#BC75FF" />
<path d="M416.94,356.58A5,5 0 1 1 406.94,356.58A5,5 0 1 1 416.94,356.58Z" style="fill:#BC75FF" />
<path d="M418.76,312.92A5,5 0 1 1 408.76,312.92A5,5 0 1 1 418.76,312.92Z" style="fill:#BC75FF" />
<path d="M420.59,326.27A5,5 0 1 1 410.59,326.27A5,5 0 1 1 420.59,326.27Z" style="fill:#BC75FF" />
<path d="M422.42,320.09A5,5 0 1 1 412.42,320.09A5,5 0 1 1 422.42,320.09Z" style="fill:#BC75FF" />
<path d="M424.24,376.81A5,5 0 1 1 414.24,376.81A5,5 0 1 1 424.24,376.81Z" style="fill:#BC75FF" />
<path d="M426.07,393.83A5,5 0 1 1 416.07,393.83A5,5 0 1 1 426.07,393.83Z" style="fill:#BC75FF" />
<path d="M427.9,387.67A5,5 0 1 1 417.9,387.67A5,5 0 1 1 427.9,387.67Z" style="fill:#BC75FF" />
<path d="M429.72,391.61A5,5 0 1 1 419.72,391.61A5,5 0 1 1 429.72,391.61Z" style="fill:#BC75FF" />
<path d="M431.55,378.9A5,5 0 1 1 421.55,378.9A5,5 0 1 1 431.55,378.9Z" style="fill:#BC75FF" />
<path d="M433.38,401.66A5,5 0 1 1 423.38,401.66A5,5 0 1 1 433.38,401.66Z" style="fill:#BC75FF" />
<path d="M435.2,380.67A5,5 0 1 1 425.2,380.67A5,5 0 1 1 435.2,380.67Z" style="fill:#BC75FF" />
<path d="M437.03,337.98A5,5 0 1 1 427.03,337.98A5,5 0 1 1 437.03,337.98Z" style="fill:#BC75FF" />
<path d="M438.86,367.76A5,5 0 1 1 428.86,367.76A5,5 0 1 1 438.86,367.76Z" style="fill:#BC75FF" />
<path d="M440.68,329.71A5,5 0 1 1 430.68,329.71A5,5 0 1 1 440.68,329.71Z" style="fill:#BC75FF" />
<path d="M442.51,380.59A5,5 0 1 1 432.51,380.59A5,5 0 1 1 442.51,380.59Z" style="fill:#BC75FF" />
<path d="M444.34,395.34A5,5 0 1 1 434.34,395.34A5,5 0 1 1 444.34,395.34Z" style="fill:#BC75FF" />
<path d="M446.16,376.42A5,5 0 1 1 436.16,376.42A5,5 0 1 1 446.16,376.42Z" style="fill:#BC75FF" />
<path d="M447.99,360.02A5,5 0 1 1 437.99,360.02A5,5 0 1 1 447.99,360.02Z" style="fill:#BC75FF" />
<path d="M449.81,363.74A5,5 0 1 1 439.81,363.74A5,5 0 1 1 449.81,363.74Z" style="fill:#BC75FF" />
<path d="M451.64,352.27A5,5 0 1 1 441.64,352.27A5,5 0 1 1 451.64,352.27Z" style="fill:#BC75FF" />
<path d="M453.47,369.12A5,5 0 1 1 443.47,369.12A5,5 0 1 1 453.47,369.12Z" style="fill:#BC75FF" />
<path d="M455.29,396.76A5,5 0 1 1 445.29,396.76A5,5 0 1 1 455.29,396.76Z" style="fill:#BC75FF" />
<path d="M457.12,396.62A5,5 0 1 1 447.12,396.62A5,5 0 1 1 457.12,396.62Z" style="fill:#BC75FF" />
<path d="M458.95,384A5,5 0 1 1 448.95,384A5,5 0 1 1 458.95,384Z" style="fill:#BC75FF" />
<path d="M460.77,379.85A5,5 0 1 1 450.77,379.85A5,5 0 1 1 460.77,379.85Z" style="fill:#BC75FF" />
<path d="M462.6,402.16A5,5 0 1 1 452.6,402.16A5,5 0 1 1 462.6,402.16Z" style="fill:#BC75FF" />
<path d="M464.43,388.32A5,5 0 1 1 454.43,388.32A5,5 0 1 1 464.43,388.32Z" style="fill:#BC75FF" />
<path d="M466.25,366.19A5,5 0 1 1 456.25,366.19A5,5 0 1 1 466.25,366.19Z" style="fill:#BC75FF" />
<path d="M468.08,385.84A5,5 0 1 1 458.08,385.84A5,5 0 1 1 468.08,385.84Z" style="fill:#BC75FF" />
<path d="M469.91,407.51A5,5 0 1 1 459.91,407.51A5,5 0 1 1 469.91,407.51Z" style="fill:#BC75FF" />
<path d="M471.73,395.69A5,5 0 1 1 461.73,395.69A5,5 0 1 1 471.73,395.69Z" style="fill:#BC75FF" />
<path d="M473.56,381.75A5,5 0 1 1 463.56,381.75A5,5 0 1 1 473.56,381.75Z" style="fill:#BC75FF" />
<path d="M475.39,371.12A5,5 0 1 1 465.39,371.12A5,5 0 1 1 475.39,371.12Z" style="fill:#BC75FF" />
<path d="M477.21,351.03A5,5 0 1 1 467.21,351.03A5,5 0 1 1 477.21,351.03Z" style="fill:#BC75FF" />
<path d="M479.04,390.29A5,5 0 1 1 469.04,390.29A5,5 0 1 1 479.04,390.29Z" style="fill:#BC75FF" />
<path d="M480.87,373.54A5,5 0 1 1 470.87,373.54A5,5 0 1 1 480.87,373.54Z" style="fill:#BC75FF" />
<path d="M482.69,346.58A5,5 0 1 1 472.69,346.58A5,5 0 1 1 482.69,346.58Z" style="fill:#BC75FF" />
<path d="M484.52,398.74A5,5 0 1 1 474.52,398.74A5,5 0 1 1 484.52,398.74Z" style="fill:#BC75FF" />
<path d="M486.35,404.4A5,5 0 1 1 476.35,404.4A5,5 0 1 1 486.35,404.4Z" style="fill:#BC75FF" />
<path d="M488.17,375.83A5,5 0 1 1 478.17,375.83A5,5 0 1 1 488.17,375.83Z" style="fill:#BC75FF" />
<path d="M490,361.97A5,5 0 1 1 480,361.97A5,5 0 1 1 490,361.97Z" style="fill:#BC75FF" />
<path d="M491.83,359.49A5,5 0 1 1 481.83,359.49A5,5 0 1 1 491.83,359.49Z" style="fill:#BC75FF" />
<path d="M493.65,323.21A5,5 0 1 1 483.65,323.21A5,5 0 1 1 493.65,323.21Z" style="fill:#BC75FF" />
<path d="M495.48,319.04A5,5 0 1 1 485.48,319.04A5,5 0 1 1 495.48,319.04Z" style="fill:#BC75FF" />
<path d="M497.31,338.55A5,5 0 1 1 487.31,338.55A5,5 0 1 1 497.31,338.55Z" style="fill:#BC75FF" />
<path d="M499.13,437.89A5,5 0 1 1 489.13,437.89A5,5 0 1 1 499.13,437.89Z" style="fill:#BC75FF" />
<path d="M500.96,408.87A5,5 0 1 1 490.96,408.87A5,5 0 1 1 500.96,408.87Z" style="fill:#BC75FF" />
<path d="M502.79,411.94A5,5 0 1 1 492.79,411.94A5,5 0 1 1 502.79,411.94Z" style="fill:#BC75FF" />
<path d="M504.61,380.45A5,5 0 1 1 494.61,380.45A5,5 0 1 1 504.61,380.45Z" style="fill:#BC75FF" />
<path d="M506.44,433.95A5,5 0 1 1 496.44,433.95A5,5 0 1 1 506.44,433.95Z" style="fill:#BC75FF" />
<path d="M508.27,420.92A5,5 0 1 1 498.27,420.92A5,5 0 1 1 508.27,420.92Z" style="fill:#BC75FF" />
<path d="M510.09,399.48A5,5 0 1 1 500.09,399.48A5,5 0 1 1 510.09,399.48Z" style="fill:#BC75FF" />
<path d="M511.92,442.82A5,5 0 1 1 501.92,442.82A5,5 0 1 1 511.92,442.82Z" style="fill:#BC75FF" />
<path d="M513.75,435.63A5,5 0 1 1 503.75,435.63A5,5 0 1 1 513.75,435.63Z" style="fill:#BC75FF" />
<path d="M515.57,419.98A5,5 0 1 1 505.57,419.98A5,5 0 1 1 515.57,419.98Z" style="fill:#BC75FF" />
<path d="M517.4,458.02A5,5 0 1 1 507.4,458.02A5,5 0 1 1 517.4,458.02Z" style="fill:#BC75FF" />
<path d="M519.23,423.81A5,5 0 1 1 509.23,423.81A5,5 0 1 1 519.23,423.81Z" style="fill:#BC75FF" />
<path d="M521.05,404.6A5,5 0 1 1 511.05,404.6A5,5 0 1 1 521.05,404.6Z" style="fill:#BC75FF" />
<path d="M522.88,382.01A5,5 0 1 1 512.88,382.01A5,5 0 1 1 522.88,382.01Z" style="fill:#BC75FF" />
<path d="M524.71,426.36A5,5 0 1 1 514.71,426.36A5,5 0 1 1 524.71,426.36Z" style="fill:#BC75FF" />
<path d="M526.53,430.54A5,5 0 1 1 516.53,430.54A5,5 0 1 1 526.53,430.54Z" style="fill:#BC75FF" />
<path d="M528.36,464.2A5,5 0 1 1 518.36,464.2A5,5 0 1 1 528.36,464.2Z" style="fill:#BC75FF" />
<path d="M530.19,470.48A5,5 0 1 1 520.19,470.48A5,5 0 1 1 530.19,470.48Z" style="fill:#BC75FF" />
<path d="M532.01,476.61A5,5 0 1 1 522.01,476.61A5,5 0 1 1 532.01,476.61Z" style="fill:#BC75FF" />
<path d="M533.84,456.78A5,5 0 1 1 523.84,456.78A5,5 0 1 1 533.84,456.78Z" style="fill:#BC75FF" />
<path d="M535.67,487.93A5,5 0 1 1 525.67,487.93A5,5 0 1 1 535.67,487.93Z" style="fill:#BC75FF" />
<path d="M537.49,453.64A5,5 0 1 1 527.49,453.64A5,5 0 1 1 537.49,453.64Z" style="fill:#BC75FF" />
<path d="M539.32,477.33A5,5 0 1 1 529.32,477.33A5,5 0 1 1 539.32,477.33Z" style="fill:#BC75FF" />
<path d="M541.15,480.28A5,5 0 1 1 531.15,480.28A5,5 0 1 1 541.15,480.28Z" style="fill:#BC75FF" />
<path d="M542.97,424.53A5,5 0 1 1 532.97,424.53A5,5 0 1 1 542.97,424.53Z" style="fill:#BC75FF" />
<path d="M544.8,397.81A5,5 0 1 1 534.8,397.81A5,5 0 1 1 544.8,397.81Z" style="fill:#BC75FF" />
<path d="M546.63,410.17A5,5 0 1 1 536.63,410.17A5,5 0 1 1 546.63,410.17Z" style="fill:#BC75FF" />
<path d="M548.45,409.14A5,5 0 1 1 538.45,409.14A5,5 0 1 1 548.45,409.14Z" style="fill:#BC75FF" />
<path d="M550.28,457A5,5 0 1 1 540.28,457A5,5 0 1 1 550.28,457Z" style="fill:#BC75FF" />
<path d="M552.11,487.47A5,5 0 1 1 542.11,487.47A5,5 0 1 1 552.11,487.47Z" style="fill:#BC75FF" />
<path d="M553.93,458.63A5,5 0 1 1 543.93,458.63A5,5 0 1 1 553.93,458.63Z" style="fill:#BC75FF" />
<path d="M555.76,457.73A5,5 0 1 1 545.76,457.73A5,5 0 1 1 555.76,457.73Z" style="fill:#BC75FF" />
<path d="M557.59,436.24A5,5 0 1 1 547.59,436.24A5,5 0 1 1 557.59,436.24Z" style="fill:#BC75FF" />
<path d="M559.41,416.75A5,5 0 1 1 549.41,416.75A5,5 0 1 1 559.41,416.75Z" style="fill:#BC75FF" />
<path d="M561.24,473.87A5,5 0 1 1 551.24,473.87A5,5 0 1 1 561.24,473.87Z" style="fill:#BC75FF" />
<path d="M563.07,535.13A5,5 0 1 1 553.07,535.13A5,5 0 1 1 563.07,535.13Z" style="fill:#BC75FF" />
<path d="M564.89,502.12A5,5 0 1 1 554.89,502.12A5,5 0 1 1 564.89,502.12Z" style="fill:#BC75FF" />
<path d="M566.72,468.74A5,5 0 1 1 556.72,468.74A5,5 0 1 1 566.72,468.74Z" style="fill:#BC75FF" />
<path d="M568.55,517.1A5,5 0 1 1 558.55,517.1A5,5 0 1 1 568.55,517.1Z" style="fill:#BC75FF" />
<path d="M570.37,504.89A5,5 0 1 1 560.37,504.89A5,5 0 1 1 570.37,504.89Z" style="fill:#BC75FF" />
<path d="M572.2,444.25A5,5 0 1 1 562.2,444.25A5,5 0 1 1 572.2,444.25Z" style="fill:#BC75FF" />
<path d="M574.03,474.17A5,5 0 1 1 564.03,474.17A5,5 0 1 1 574.03,474.17Z" style="fill:#BC75FF" />
<path d="M575.85,570.84A5,5 0 1 1 565.85,570.84A5,5 0 1 1 575.85,570.84Z" style="fill:#BC75FF" />
<path d="M577.68,510.52A5,5 0 1 1 567.68,510.52A5,5 0 1 1 577.68,510.52Z" style="fill:#BC75FF" />
<path d="M579.51,502.21A5,5 0 1 1 569.51,502.21A5,5 0 1 1 579.51,502.21Z" style="fill:#BC75FF" />
<path d="M581.33,482.48A5,5 0 1 1 571.33,482.48A5,5 0 1 1 581.33,482.48Z" style="fill:#BC75FF" />
<path d="M583.16,457.67A5,5 0 1 1 573.16,457.67A5,5 0 1 1 583.16,457.67Z" style="fill:#BC75FF" />
<path d="M584.99,426.64A5,5 0 1 1 574.99,426.64A5,5 0 1 1 584.99,426.64Z" style="fill:#BC75FF" />
<path d="M586.81,474.91A5,5 0 1 1 576.81,474.91A5,5 0 1 1 586.81,474.91Z" style="fill:#BC75FF" />
<path d="M588.64,523.27A5,5 0 1 1 578.64,523.27A5,5 0 1 1 588.64,523.27Z" style="fill:#BC75FF" />
<path d="M590.46,465.48A5,5 0 1 1 580.46,465.48A5,5 0 1 1 590.46,465.48Z" style="fill:#BC75FF" />
<path d="M592.29,430.85A5,5 0 1 1 582.29,430.85A5,5 0 1 1 592.29,430.85Z" style="fill:#BC75FF" />
<path d="M594.12,486.39A5,5 0 1 1 584.12,486.39A5,5 0 1 1 594.12,486.39Z" style="fill:#BC75FF" />
<path d="M595.94,464.97A5,5 0 1 1 585.94,464.97A5,5 0 1 1 595.94,464.97Z" style="fill:#BC75FF" />
<path d="M597.77,469.59A5,5 0 1 1 587.77,469.59A5,5 0 1 1 597.77,469.59Z" style="fill:#BC75FF" />
<path d="M599.6,476.79A5,5 0 1 1 589.6,476.79A5,5 0 1 1 599.6,476.79Z" style="fill:#BC75FF" />
<path d="M601.42,478.25A5,5 0 1 1 591.42,478.25A5,5 0 1 1 601.42,478.25Z" style="fill:#BC75FF" />
<path d="M603.25,513.1A5,5 0 1 1 593.25,513.1A5,5 0 1 1 603.25,513.1Z" style="fill:#BC75FF" />
<path d="M605.08,555.37A5,5 0 1 1 595.08,555.37A5,5 0 1 1 605.08,555.37Z" style="fill:#BC75FF" />
<path d="M606.9,577.93A5,5 0 1 1 596.9,577.93A5,5 0 1 1 606.9,577.93Z" style="fill:#BC75FF" />
<path d="M608.73,580.58A5,5 0 1 1 598.73,580.58A5,5 0 1 1 608.73,580.58Z" style="fill:#BC75FF" />
<path d="M610.56,472.2A5,5 0 1 1 600.56,472.2A5,5 0 1 1 610.56,472.2Z" style="fill:#BC75FF" />
<path d="M612.38,506.9A5,5 0 1 1 602.38,506.9A5,5 0 1 1 612.38,506.9Z" style="fill:#BC75FF" />
<path d="M614.21,495.37A5,5 0 1 1 604.21,495.37A5,5 0 1 1 614.21,495.37Z" style="fill:#BC75FF" />
<path d="M616.04,546.76A5,5 0 1 1 606.04,546.76A5,5 0 1 1 616.04,546.76Z" style="fill:#BC75FF" />
<path d="M617.86,642.02A5,5 0 1 1 607.86,642.02A5,5 0 1 1 617.86,642.02Z" style="fill:#BC75FF" />
<path d="M619.69,603.68A5,5 0 1 1 609.69,603.68A5,5 0 1 1 619.69,603.68Z" style="fill:#BC75FF" />
<path d="M621.52,521.24A5,5 0 1 1 611.52,521.24A5,5 0 1 1 621.52,521.24Z" style="fill:#BC75FF" />
<path d="M623.34,645.9A5,5 0 1 1 613.34,645.9A5,5 0 1 1 623.34,645.9Z" style="fill:#BC75FF" />
<path d="M625.17,739.56A5,5 0 1 1 615.17,739.56A5,5 0 1 1 625.17,739.56Z" style="fill:#BC75FF" />
<path d="M627,623.21A5,5 0 1 1 617,623.21A5,5 0 1 1 627,623.21Z" style="fill:#BC75FF" />
<path d="M628.82,622.46A5,5 0 1 1 618.82,622.46A5,5 0 1 1 628.82,622.46Z" style="fill:#BC75FF" />
<path d="M630.65,697.34A5,5 0 1 1 620.65,697.34A5,5 0 1 1 630.65,697.34Z" style="fill:#BC75FF" />
<path d="M632.48,719.91A5,5 0 1 1 622.48,719.91A5,5 0 1 1 632.48,719.91Z" style="fill:#BC75FF" />
<path d="M634.3,748.28A5,5 0 1 1 624.3,748.28A5,5 0 1 1 634.3,748.28Z" style="fill:#BC75FF" />
<path d="M636.13,719.57A5,5 0 1 1 626.13,719.57A5,5 0 1 1 636.13,719.57Z" style="fill:#BC75FF" />
<path d="M637.96,692.98A5,5 0 1 1 627.96,692.98A5,5 0 1 1 637.96,692.98Z" style="fill:#BC75FF" />
<path d="M639.78,723.71A5,5 0 1 1 629.78,723.71A5,5 0 1 1 639.78,723.71Z" style="fill:#BC75FF" />
<path d="M641.61,687.47A5,5 0 1 1 631.61,687.47A5,5 0 1 1 641.61,687.47Z" style="fill:#BC75FF" />
<path d="M643.44,775.24A5,5 0 1 1 633.44,775.24A5,5 0 1 1 643.44,775.24Z" style="fill:#BC75FF" />
<path d="M645.26,823.53A5,5 0 1 1 635.26,823.53A5,5 0 1 1 645.26,823.53Z" style="fill:#BC75FF" />
<path d="M647.09,766.98A5,5 0 1 1 637.09,766.98A5,5 0 1 1 647.09,766.98Z" style="fill:#BC75FF" />
<path d="M648.92,733.56A5,5 0 1 1 638.92,733.56A5,5 0 1 1 648.92,733.56Z" style="fill:#BC75FF" />
<path d="M650.74,626.57A5,5 0 1 1 640.74,626.57A5,5 0 1 1 650.74,626.57Z" style="fill:#BC75FF" />
<path d="M652.57,654.02A5,5 0 1 1 642.57,654.02A5,5 0 1 1 652.57,654.02Z" style="fill:#BC75FF" />
<path d="M654.4,639.65A5,5 0 1 1 644.4,639.65A5,5 0 1 1 654.4,639.65Z" style="fill:#BC75FF" />
<path d="M656.22,503.58A5,5 0 1 1 646.22,503.58A5,5 0 1 1 656.22,503.58Z" style="fill:#BC75FF" />
<path d="M658.05,489.32A5,5 0 1 1 648.05,489.32A5,5 0 1 1 658.05,489.32Z" style="fill:#BC75FF" />
<path d="M659.88,525.99A5,5 0 1 1 649.88,525.99A5,5 0 1 1 659.88,525.99Z" style="fill:#BC75FF" />
<path d="M661.7,625.44A5,5 0 1 1 651.7,625.44A5,5 0 1 1 661.7,625.44Z" style="fill:#BC75FF" />
<path d="M663.53,536.87A5,5 0 1 1 653.53,536.87A5,5 0 1 1 663.53,536.87Z" style="fill:#BC75FF" />
<path d="M665.36,390.58A5,5 0 1 1 655.36,390.58A5,5 0 1 1 665.36,390.58Z" style="fill:#BC75FF" />
<path d="M667.18,506.08A5,5 0 1 1 657.18,506.08A5,5 0 1 1 667.18,506.08Z" style="fill:#BC75FF" />
<path d="M669.01,433.57A5,5 0 1 1 659.01,433.57A5,5 0 1 1 669.01,433.57Z" style="fill:#BC75FF" />
<path d="M670.84,412.39A5,5 0 1 1 660.84,412.39A5,5 0 1 1 670.84,412.39Z" style="fill:#BC75FF" />
<path d="M672.66,394.8A5,5 0 1 1 662.66,394.8A5,5 0 1 1 672.66,394.8Z" style="fill:#BC75FF" />
<path d="M674.49,457.5A5,5 0 1 1 664.49,457.5A5,5 0 1 1 674.49,457.5Z" style="fill:#BC75FF" />
<path d="M676.32,439.07A5,5 0 1 1 666.32,439.07A5,5 0 1 1 676.32,439.07Z" style="fill:#BC75FF" />
<path d="M678.14,403.77A5,5 0 1 1 668.14,403.77A5,5 0 1 1 678.14,403.77Z" style="fill:#BC75FF" />
<path d="M679.97,370.06A5,5 0 1 1 669.97,370.06A5,5 0 1 1 679.97,370.06Z" style="fill:#BC75FF" />
<path d="M681.8,350.68A5,5 0 1 1 671.8,350.68A5,5 0 1 1 681.8,350.68Z" style="fill:#BC75FF" />
<path d="M683.62,364.79A5,5 0 1 1 673.62,364.79A5,5 0 1 1 683.62,364.79Z" style="fill:#BC75FF" />
<path d="M685.45,353.16A5,5 0 1 1 675.45,353.16A5,5 0 1 1 685.45,353.16Z" style="fill:#BC75FF" />
<path d="M687.28,298.82A5,5 0 1 1 677.28,298.82A5,5 0 1 1 687.28,298.82Z" style="fill:#BC75FF" />
<path d="M689.1,257.1A5,5 0 1 1 679.1,257.1A5,5 0 1 1 689.1,257.1Z" style="fill:#BC75FF" />
<path d="M690.93,276.1A5,5 0 1 1 680.93,276.1A5,5 0 1 1 690.93,276.1Z" style="fill:#BC75FF" />
<path d="M692.76,280.71A5,5 0 1 1 682.76,280.71A5,5 0 1 1 692.76,280.71Z" style="fill:#BC75FF" />
<path d="M694.58,269.81A5,5 0 1 1 684.58,269.81A5,5 0 1 1 694.58,269.81Z" style="fill:#BC75FF" />
<path d="M696.41,263.25A5,5 0 1 1 686.41,263.25A5,5 0 1 1 696.41,263.25Z" style="fill:#BC75FF" />
<path d="M698.24,285.78A5,5 0 1 1 688.24,285.78A5,5 0 1 1 698.24,285.78Z" style="fill:#BC75FF" />
<path d="M700.06,230.69A5,5 0 1 1 690.06,230.69A5,5 0 1 1 700.06,230.69Z" style="fill:#BC75FF" />
<path d="M701.89,257.5A5,5 0 1 1 691.89,257.5A5,5 0 1 1 701.89,257.5Z" style="fill:#BC75FF" />
<path d="M703.72,285.39A5,5 0 1 1 693.72,285.39A5,5 0 1 1 703.72,285.39Z" style="fill:#BC75FF" />
<path d="M705.54,268.48A5,5 0 1 1 695.54,268.48A5,5 0 1 1 705.54,268.48Z" style="fill:#BC75FF" />
<path d="M707.37,235.21A5,5 0 1 1 697.37,235.21A5,5 0 1 1 707.37,235.21Z" style="fill:#BC75FF" />
<path d="M709.2,239.47A5,5 0 1 1 699.2,239.47A5,5 0 1 1 709.2,239.47Z" style="fill:#BC75FF" />
<path d="M711.02,237.08A5,5 0 1 1 701.02,237.08A5,5 0 1 1 711.02,237.08Z" style="fill:#BC75FF" />
<path d="M712.85,245.94A5,5 0 1 1 702.85,245.94A5,5 0 1 1 712.85,245.94Z" style="fill:#BC75FF" />
<path d="M714.68,267.59A5,5 0 1 1 704.68,267.59A5,5 0 1 1 714.68,267.59Z" style="fill:#BC75FF" />
<path d="M716.5,236.57A5,5 0 1 1 706.5,236.57A5,5 0 1 1 716.5,236.57Z" style="fill:#BC75FF" />
<path d="M718.33,233.13A5,5 0 1 1 708.33,233.13A5,5 0 1 1 718.33,233.13Z" style="fill:#BC75FF" />
<path d="M720.16,224.62A5,5 0 1 1 710.16,224.62A5,5 0 1 1 720.16,224.62Z" style="fill:#BC75FF" />
<path d="M721.98,214.85A5,5 0 1 1 711.98,214.85A5,5 0 1 1 721.98,214.85Z" style="fill:#BC75FF" />
<path d="M723.81,203.03A5,5 0 1 1 713.81,203.03A5,5 0 1 1 723.81,203.03Z" style="fill:#BC75FF" />
<path d="M725.64,234.66A5,5 0 1 1 715.64,234.66A5,5 0 1 1 725.64,234.66Z" style="fill:#BC75FF" />
<path d="M727.46,190.2A5,5 0 1 1 717.46,190.2A5,5 0 1 1 727.46,190.2Z" style="fill:#BC75FF" />
<path d="M729.29,192.58A5,5 0 1 1 719.29,192.58A5,5 0 1 1 729.29,192.58Z" style="fill:#BC75FF" />
<path d="M731.11,199.23A5,5 0 1 1 721.11,199.23A5,5 0 1 1 731.11,199.23Z" style="fill:#BC75FF" />
<path d="M732.94,213A5,5 0 1 1 722.94,213A5,5 0 1 1 732.94,213Z" style="fill:#BC75FF" />
<path d="M734.77,215.8A5,5 0 1 1 724.77,215.8A5,5 0 1 1 734.77,215.8Z" style="fill:#BC75FF" />
<path d="M736.59,207.98A5,5 0 1 1 726.59,207.98A5,5 0 1 1 736.59,207.98Z" style="fill:#BC75FF" />
<path d="M738.42,218.83A5,5 0 1 1 728.42,218.83A5,5 0 1 1 738.42,218.83Z" style="fill:#BC75FF" />
<path d="M740.25,217.04A5,5 0 1 1 730.25,217.04A5,5 0 1 1 740.25,217.04Z" style="fill:#BC75FF" />
<path d="M742.07,199.79A5,5 0 1 1 732.07,199.79A5,5 0 1 1 742.07,199.79Z" style="fill:#BC75FF" />
<path d="M743.9,194.8A5,5 0 1 1 733.9,194.8A5,5 0 1 1 743.9,194.8Z" style="fill:#BC75FF" />
<path d="M745.73,187.2A5,5 0 1 1 735.73,187.2A5,5 0 1 1 745.73,187.2Z" style="fill:#BC75FF" />
<path d="M747.55,192.5A5,5 0 1 1 737.55,192.5A5,5 0 1 1 747.55,192.5Z" style="fill:#BC75FF" />
<path d="M749.38,191.61A5,5 0 1 1 739.38,191.61A5,5 0 1 1 749.38,191.61Z" style="fill:#BC75FF" />
<path d="M751.21,206.49A5,5 0 1 1 741.21,206.49A5,5 0 1 1 751.21,206.49Z" style="fill:#BC75FF" />
<path d="M753.03,206.69A5,5 0 1 1 743.03,206.69A5,5 0 1 1 753.03,206.69Z" style="fill:#BC75FF" />
<path d="M754.86,198.98A5,5 0 1 1 744.86,198.98A5,5 0 1 1 754.86,198.98Z" style="fill:#BC75FF" />
<path d="M756.69,225.79A5,5 0 1 1 746.69,225.79A5,5 0 1 1 756.69,225.79Z" style="fill:#BC75FF" />
<path d="M758.51,205.56A5,5 0 1 1 748.51,205.56A5,5 0 1 1 758.51,205.56Z" style="fill:#BC75FF" />
<path d="M760.34,214.76A5,5 0 1 1 750.34,214.76A5,5 0 1 1 760.34,214.76Z" style="fill:#BC75FF" />
<path d="M762.17,215.2A5,5 0 1 1 752.17,215.2A5,5 0 1 1 762.17,215.2Z" style="fill:#BC75FF" />
<path d="M763.99,229.84A5,5 0 1 1 753.99,229.84A5,5 0 1 1 763.99,229.84Z" style="fill:#BC75FF" />
<path d="M765.82,224.51A5,5 0 1 1 755.82,224.51A5,5 0 1 1 765.82,224.51Z" style="fill:#BC75FF" />
<path d="M767.65,213.66A5,5 0 1 1 757.65,213.66A5,5 0 1 1 767.65,213.66Z" style="fill:#BC75FF" />
<path d="M769.47,238.94A5,5 0 1 1 759.47,238.94A5,5 0 1 1 769.47,238.94Z" style="fill:#BC75FF" />
<path d="M771.3,204.08A5,5 0 1 1 761.3,204.08A5,5 0 1 1 771.3,204.08Z" style="fill:#BC75FF" />
<path d="M773.13,196.84A5,5 0 1 1 763.13,196.84A5,5 0 1 1 773.13,196.84Z" style="fill:#BC75FF" />
<path d="M774.95,227.26A5,5 0 1 1 764.95,227.26A5,5 0 1 1 774.95,227.26Z" style="fill:#BC75FF" />
<path d="M776.78,218.94A5,5 0 1 1 766.78,218.94A5,5 0 1 1 776.78,218.94Z" style="fill:#BC75FF" />
<path d="M778.61,216.54A5,5 0 1 1 768.61,216.54A5,5 0 1 1 778.61,216.54Z" style="fill:#BC75FF" />
<path d="M780.43,225.89A5,5 0 1 1 770.43,225.89A5,5 0 1 1 780.43,225.89Z" style="fill:#BC75FF" />
<path d="M782.26,187.54A5,5 0 1 1 772.26,187.54A5,5 0 1 1 782.26,187.54Z" style="fill:#BC75FF" />
<path d="M784.09,194.16A5,5 0 1 1 774.09,194.16A5,5 0 1 1 784.09,194.16Z" style="fill:#BC75FF" />
<path d="M785.91,214.36A5,5 0 1 1 775.91,214.36A5,5 0 1 1 785.91,214.36Z" style="fill:#BC75FF" />
<path d="M787.74,248.22A5,5 0 1 1 777.74,248.22A5,5 0 1 1 787.74,248.22Z" style="fill:#BC75FF" />
<path d="M789.57,227.76A5,5 0 1 1 779.57,227.76A5,5 0 1 1 789.57,227.76Z" style="fill:#BC75FF" />
<path d="M791.39,220.67A5,5 0 1 1 781.39,220.67A5,5 0 1 1 791.39,220.67Z" style="fill:#BC75FF" />
<path d="M793.22,198.62A5,5 0 1 1 783.22,198.62A5,5 0 1 1 793.22,198.62Z" style="fill:#BC75FF" />
<path d="M795.05,209.97A5,5 0 1 1 785.05,209.97A5,5 0 1 1 795.05,209.97Z" style="fill:#BC75FF" />
<path d="M796.87,200.92A5,5 0 1 1 786.87,200.92A5,5 0 1 1 796.87,200.92Z" style="fill:#BC75FF" />
<path d="M798.7,190.03A5,5 0 1 1 788.7,190.03A5,5 0 1 1 798.7,190.03Z" style="fill:#BC75FF" />
<path d="M800.53,192.05A5,5 0 1 1 790.53,192.05A5,5 0 1 1 800.53,192.05Z" style="fill:#BC75FF" />
<path d="M802.35,198.09A5,5 0 1 1 792.35,198.09A5,5 0 1 1 802.35,198.09Z" style="fill:#BC75FF" />
<path d="M804.18,233.74A5,5 0 1 1 794.18,233.74A5,5 0 1 1 804.18,233.74Z" style="fill:#BC75FF" />
<path d="M806.01,231.59A5,5 0 1 1 796.01,231.59A5,5 0 1 1 806.01,231.59Z" style="fill:#BC75FF" />
<path d="M807.83,216.73A5,5 0 1 1 797.83,216.73A5,5 0 1 1 807.83,216.73Z" style="fill:#BC75FF" />
<path d="M809.66,196.79A5,5 0 1 1 799.66,196.79A5,5 0 1 1 809.66,196.79Z" style="fill:#BC75FF" />
<path d="M811.49,235.13A5,5 0 1 1 801.49,235.13A5,5 0 1 1 811.49,235.13Z" style="fill:#BC75FF" />
<path d="M813.31,249.75A5,5 0 1 1 803.31,249.75A5,5 0 1 1 813.31,249.75Z" style="fill:#BC75FF" />
<path d="M815.14,268.54A5,5 0 1 1 805.14,268.54A5,5 0 1 1 815.14,268.54Z" style="fill:#BC75FF" />
<path d="M816.97,224.74A5,5 0 1 1 806.97,224.74A5,5 0 1 1 816.97,224.74Z" style="fill:#BC75FF" />
<path d="M818.79,231.03A5,5 0 1 1 808.79,231.03A5,5 0 1 1 818.79,231.03Z" style="fill:#BC75FF" />
<path d="M820.62,242.23A5,5 0 1 1 810.62,242.23A5,5 0 1 1 820.62,242.23Z" style="fill:#BC75FF" />
<path d="M822.45,218.48A5,5 0 1 1 812.45,218.48A5,5 0 1 1 822.45,218.48Z" style="fill:#BC75FF" />
<path d="M824.27,203.29A5,5 0 1 1 814.27,203.29A5,5 0 1 1 824.27,203.29Z" style="fill:#BC75FF" />
<path d="M826.1,225.53A5,5 0 1 1 816.1,225.53A5,5 0 1 1 826.1,225.53Z" style="fill:#BC75FF" />
<path d="M827.93,253.57A5,5 0 1 1 817.93,253.57A5,5 0 1 1 827.93,253.57Z" style="fill:#BC75FF" />
<path d="M829.75,259.71A5,5 0 1 1 819.75,259.71A5,5 0 1 1 829.75,259.71Z" style="fill:#BC75FF" />
<path d="M831.58,211.47A5,5 0 1 1 821.58,211.47A5,5 0 1 1 831.58,211.47Z" style="fill:#BC75FF" />
<path d="M833.41,213.54A5,5 0 1 1 823.41,213.54A5,5 0 1 1 833.41,213.54Z" style="fill:#BC75FF" />
<path d="M835.23,208.59A5,5 0 1 1 825.23,208.59A5,5 0 1 1 835.23,208.59Z" style="fill:#BC75FF" />
<path d="M837.06,204.79A5,5 0 1 1 827.06,204.79A5,5 0 1 1 837.06,204.79Z" style="fill:#BC75FF" />
<path d="M838.89,219.56A5,5 0 1 1 828.89,219.56A5,5 0 1 1 838.89,219.56Z" style="fill:#BC75FF" />
<path d="M840.71,214.72A5,5 0 1 1 830.71,214.72A5,5 0 1 1 840.71,214.72Z" style="fill:#BC75FF" />
<path d="M842.54,252.26A5,5 0 1 1 832.54,252.26A5,5 0 1 1 842.54,252.26Z" style="fill:#BC75FF" />
<path d="M844.37,222.97A5,5 0 1 1 834.37,222.97A5,5 0 1 1 844.37,222.97Z" style="fill:#BC75FF" />
<path d="M846.19,234.65A5,5 0 1 1 836.19,234.65A5,5 0 1 1 846.19,234.65Z" style="fill:#BC75FF" />
<path d="M848.02,222.23A5,5 0 1 1 838.02,222.23A5,5 0 1 1 848.02,222.23Z" style="fill:#BC75FF" />
<path d="M849.85,225.2A5,5 0 1 1 839.85,225.2A5,5 0 1 1 849.85,225.2Z" style="fill:#BC75FF" />
<path d="M851.67,221.52A5,5 0 1 1 841.67,221.52A5,5 0 1 1 851.67,221.52Z" style="fill:#BC75FF" />
<path d="M853.5,225.11A5,5 0 1 1 843.5,225.11A5,5 0 1 1 853.5,225.11Z" style="fill:#BC75FF" />
<path d="M855.33,246.76A5,5 0 1 1 845.33,246.76A5,5 0 1 1 855.33,246.76Z" style="fill:#BC75FF" />
<path d="M857.15,241.19A5,5 0 1 1 847.15,241.19A5,5 0 1 1 857.15,241.19Z" style="fill:#BC75FF" />
<path d="M858.98,213.59A5,5 0 1 1 848.98,213.59A5,5 0 1 1 858.98,213.59Z" style="fill:#BC75FF" />
<path d="M860.81,219.31A5,5 0 1 1 850.81,219.31A5,5 0 1 1 860.81,219.31Z" style="fill:#BC75FF" />
<path d="M862.63,232.14A5,5 0 1 1 852.63,232.14A5,5 0 1 1 862.63,232.14Z" style="fill:#BC75FF" />
<path d="M864.46,243.49A5,5 0 1 1 854.46,243.49A5,5 0 1 1 864.46,243.49Z" style="fill:#BC75FF" />
<path d="M866.29,238.05A5,5 0 1 1 856.29,238.05A5,5 0 1 1 866.29,238.05Z" style="fill:#BC75FF" />
<path d="M868.11,245.77A5,5 0 1 1 858.11,245.77A5,5 0 1 1 868.11,245.77Z" style="fill:#BC75FF" />
<path d="M869.94,266.1A5,5 0 1 1 859.94,266.1A5,5 0 1 1 869.94,266.1Z" style="fill:#BC75FF" />
<path d="M871.76,255.11A5,5 0 1 1 861.76,255.11A5,5 0 1 1 871.76,255.11Z" style="fill:#BC75FF" />
<path d="M873.59,229.19A5,5 0 1 1 863.59,229.19A5,5 0 1 1 873.59,229.19Z" style="fill:#BC75FF" />
<path d="M875.42,227.29A5,5 0 1 1 865.42,227.29A5,5 0 1 1 875.42,227.29Z" style="fill:#BC75FF" />
<path d="M877.24,199.38A5,5 0 1 1 867.24,199.38A5,5 0 1 1 877.24,199.38Z" style="fill:#BC75FF" />
<path d="M879.07,182.24A5,5 0 1 1 869.07,182.24A5,5 0 1 1 879.07,182.24Z" style="fill:#BC75FF" />
<path d="M880.9,223.03A5,5 0 1 1 870.9,223.03A5,5 0 1 1 880.9,223.03Z" style="fill:#BC75FF" />
<path d="M882.72,239.82A5,5 0 1 1 872.72,239.82A5,5 0 1 1 882.72,239.82Z" style="fill:#BC75FF" />
<path d="M884.55,255.51A5,5 0 1 1 874.55,255.51A5,5 0 1 1 884.55,255.51Z" style="fill:#BC75FF" />
<path d="M886.38,248.72A5,5 0 1 1 876.38,248.72A5,5 0 1 1 886.38,248.72Z" style="fill:#BC75FF" />
<path d="M888.2,221.57A5,5 0 1 1 878.2,221.57A5,5 0 1 1 888.2,221.57Z" style="fill:#BC75FF" />
<path d="M890.03,223.43A5,5 0 1 1 880.03,223.43A5,5 0 1 1 890.03,223.43Z" style="fill:#BC75FF" />
<path d="M891.86,269.96A5,5 0 1 1 881.86,269.96A5,5 0 1 1 891.86,269.96Z" style="fill:#BC75FF" />
<path d="M893.68,259.13A5,5 0 1 1 883.68,259.13A5,5 0 1 1 893.68,259.13Z" style="fill:#BC75FF" />
<path d="M895.51,260.23A5,5 0 1 1 885.51,260.23A5,5 0 1 1 895.51,260.23Z" style="fill:#BC75FF" />
<path d="M897.34,236.9A5,5 0 1 1 887.34,236.9A5,5 0 1 1 897.34,236.9Z" style="fill:#BC75FF" />
<path d="M899.16,231.28A5,5 0 1 1 889.16,231.28A5,5 0 1 1 899.16,231.28Z" style="fill:#BC75FF" />
<path d="M900.99,222.34A5,5 0 1 1 890.99,222.34A5,5 0 1 1 900.99,222.34Z" style="fill:#BC75FF" />
<path d="M902.82,212.11A5,5 0 1 1 892.82,212.11A5,5 0 1 1 902.82,212.11Z" style="fill:#BC75FF" />
<path d="M904.64,213.46A5,5 0 1 1 894.64,213.46A5,5 0 1 1 904.64,213.46Z" style="fill:#BC75FF" />
<path d="M906.47,249.19A5,5 0 1 1 896.47,249.19A5,5 0 1 1 906.47,249.19Z" style="fill:#BC75FF" />
<path d="M908.3,266.16A5,5 0 1 1 898.3,266.16A5,5 0 1 1 908.3,266.16Z" style="fill:#BC75FF" />
<path d="M910.12,270.39A5,5 0 1 1 900.12,270.39A5,5 0 1 1 910.12,270.39Z" style="fill:#BC75FF" />
<path d="M911.95,286.02A5,5 0 1 1 901.95,286.02A5,5 0 1 1 911.95,286.02Z" style="fill:#BC75FF" />
<path d="M913.78,237.83A5,5 0 1 1 903.78,237.83A5,5 0 1 1 913.78,237.83Z" style="fill:#BC75FF" />
<path d="M915.6,257.93A5,5 0 1 1 905.6,257.93A5,5 0 1 1 915.6,257.93Z" style="fill:#BC75FF" />
<path d="M917.43,243.07A5,5 0 1 1 907.43,243.07A5,5 0 1 1 917.43,243.07Z" style="fill:#BC75FF" />
<path d="M919.26,271.7A5,5 0 1 1 909.26,271.7A5,5 0 1 1 919.26,271.7Z" style="fill:#BC75FF" />
<path d="M921.08,268.26A5,5 0 1 1 911.08,268.26A5,5 0 1 1 921.08,268.26Z" style="fill:#BC75FF" />
<path d="M922.91,259.66A5,5 0 1 1 912.91,259.66A5,5 0 1 1 922.91,259.66Z" style="fill:#BC75FF" />
<path d="M924.74,241.86A5,5 0 1 1 914.74,241.86A5,5 0 1 1 924.74,241.86Z" style="fill:#BC75FF" />
<path d="M926.56,256.99A5,5 0 1 1 916.56,256.99A5,5 0 1 1 926.56,256.99Z" style="fill:#BC75FF" />
<path d="M928.39,257.67A5,5 0 1 1 918.39,257.67A5,5 0 1 1 928.39,257.67Z" style="fill:#BC75FF" />
<path d="M930.22,273.52A5,5 0 1 1 920.22,273.52A5,5 0 1 1 930.22,273.52Z" style="fill:#BC75FF" />
<path d="M932.04,269.4A5,5 0 1 1 922.04,269.4A5,5 0 1 1 932.04,269.4Z" style="fill:#BC75FF" />
<path d="M933.87,258.09A5,5 0 1 1 923.87,258.09A5,5 0 1 1 933.87,258.09Z" style="fill:#BC75FF" />
<path d="M935.7,280.17A5,5 0 1 1 925.7,280.17A5,5 0 1 1 935.7,280.17Z" style="fill:#BC75FF" />
<path d="M937.52,276.77A5,5 0 1 1 927.52,276.77A5,5 0 1 1 937.52,276.77Z" style="fill:#BC75FF" />
<path d="M939.35,283.96A5,5 0 1 1 929.35,283.96A5,5 0 1 1 939.35,283.96Z" style="fill:#BC75FF" />
<path d="M941.18,290.29A5,5 0 1 1 931.18,290.29A5,5 0 1 1 941.18,290.29Z" style="fill:#BC75FF" />
<path d="M943,270.46A5,5 0 1 1 933,270.46A5,5 0 1 1 943,270.46Z" style="fill:#BC75FF" />
<path d="M944.83,259.82A5,5 0 1 1 934.83,259.82A5,5 0 1 1 944.83,259.82Z" style="fill:#BC75FF" />
<path d="M946.66,260.32A5,5 0 1 1 936.66,260.32A5,5 0 1 1 946.66,260.32Z" style="fill:#BC75FF" />
<path d="M948.48,269.38A5,5 0 1 1 938.48,269.38A5,5 0 1 1 948.48,269.38Z" style="fill:#BC75FF" />
<path d="M950.31,236.79A5,5 0 1 1 940.31,236.79A5,5 0 1 1 950.31,236.79Z" style="fill:#BC75FF" />
<path d="M952.14,269.39A5,5 0 1 1 942.14,269.39A5,5 0 1 1 952.14,269.39Z" style="fill:#BC75FF" />
<path d="M953.96,269.22A5,5 0 1 1 943.96,269.22A5,5 0 1 1 953.96,269.22Z" style="fill:#BC75FF" />
<path d="M955.79,276.04A5,5 0 1 1 945.79,276.04A5,5 0 1 1 955.79,276.04Z" style="fill:#BC75FF" />
<path d="M957.62,257.06A5,5 0 1 1 947.62,257.06A5,5 0 1 1 957.62,257.06Z" style="fill:#BC75FF" />
<path d="M959.44,255.65A5,5 0 1 1 949.44,255.65A5,5 0 1 1 959.44,255.65Z" style="fill:#BC75FF" />
<path d="M961.27,255.88A5,5 0 1 1 951.27,255.88A5,5 0 1 1 961.27,255.88Z" style="fill:#BC75FF" />
<path d="M963.1,247.94A5,5 0 1 1 953.1,247.94A5,5 0 1 1 963.1,247.94Z" style="fill:#BC75FF" />
<path d="M964.92,253.87A5,5 0 1 1 954.92,253.87A5,5 0 1 1 964.92,253.87Z" style="fill:#BC75FF" />
<path d="M966.75,255.45A5,5 0 1 1 956.75,255.45A5,5 0 1 1 966.75,255.45Z" style="fill:#BC75FF" />
<path d="M968.58,234.6A5,5 0 1 1 958.58,234.6A5,5 0 1 1 968.58,234.6Z" style="fill:#BC75FF" />
<path d="M970.4,256.06A5,5 0 1 1 960.4,256.06A5,5 0 1 1 970.4,256.06Z" style="fill:#BC75FF" />
<path d="M972.23,267.19A5,5 0 1 1 962.23,267.19A5,5 0 1 1 972.23,267.19Z" style="fill:#BC75FF" />
<path d="M974.06,285.64A5,5 0 1 1 964.06,285.64A5,5 0 1 1 974.06,285.64Z" style="fill:#BC75FF" />
<path d="M975.88,285.52A5,5 0 1 1 965.88,285.52A5,5 0 1 1 975.88,285.52Z" style="fill:#BC75FF" />
<path d="M977.71,249.65A5,5 0 1 1 967.71,249.65A5,5 0 1 1 977.71,249.65Z" style="fill:#BC75FF" />
<path d="M979.54,282.44A5,5 0 1 1 969.54,282.44A5,5 0 1 1 979.54,282.44Z" style="fill:#BC75FF" />
<path d="M981.36,283.61A5,5 0 1 1 971.36,283.61A5,5 0 1 1 981.36,283.61Z" style="fill:#BC75FF" />
<path d="M983.19,289.59A5,5 0 1 1 973.19,289.59A5,5 0 1 1 983.19,289.59Z" style="fill:#BC75FF" />
<path d="M985.02,298.83A5,5 0 1 1 975.02,298.83A5,5 0 1 1 985.02,298.83Z" style="fill:#BC75FF" />
<path d="M986.84,290.62A5,5 0 1 1 976.84,290.62A5,5 0 1 1 986.84,290.62Z" style="fill:#BC75FF" />
<path d="M988.67,272.04A5,5 0 1 1 978.67,272.04A5,5 0 1 1 988.67,272.04Z" style="fill:#BC75FF" />
<path d="M990.5,283.46A5,5 0 1 1 980.5,283.46A5,5 0 1 1 990.5,283.46Z" style="fill:#BC75FF" />
<path d="M992.32,271.84A5,5 0 1 1 982.32,271.84A5,5 0 1 1 992.32,271.84Z" style="fill:#BC75FF" />
<path d="M994.15,267.51A5,5 0 1 1 984.15,267.51A5,5 0 1 1 994.15,267.51Z" style="fill:#BC75FF" />
<path d="M995.98,267.96A5,5 0 1 1 985.98,267.96A5,5 0 1 1 995.98,267.96Z" style="fill:#BC75FF" />
<path d="M997.8,270.3A5,5 0 1 1 987.8,270.3A5,5 0 1 1 997.8,270.3Z" style="fill:#BC75FF" />
<path d="M999.63,291.51A5,5 0 1 1 989.63,291.51A5,5 0 1 1 999.63,291.51Z" style="fill:#BC75FF" />
<path d="M1001.5,278.4A5,5 0 1 1 991.46,278.4A5,5 0 1 1 1001.5,278.4Z" style="fill:#BC75FF" />
<path d="M1003.3,237.83A5,5 0 1 1 993.28,237.83A5,5 0 1 1 1003.3,237.83Z" style="fill:#BC75FF" />
<path d="M1005.1,272.99A5,5 0 1 1 995.11,272.99A5,5 0 1 1 1005.1,272.99Z" style="fill:#BC75FF" />
<path d="M1006.9,273.7A5,5 0 1 1 996.94,273.7A5,5 0 1 1 1006.9,273.7Z" style="fill:#BC75FF" />
<path d="M1008.8,269.17A5,5 0 1 1 998.76,269.17A5,5 0 1 1 1008.8,269.17Z" style="fill:#BC75FF" />
<path d="M1010.6,284.39A5,5 0 1 1 1000.6,284.39A5,5 0 1 1 1010.6,284.39Z" style="fill:#BC75FF" />
<path d="M1012.4,288.99A5,5 0 1 1 1002.4,288.99A5,5 0 1 1 1012.4,288.99Z" style="fill:#BC75FF" />
<path d="M1014.2,304.19A5,5 0 1 1 1004.2,304.19A5,5 0 1 1 1014.2,304.19Z" style="fill:#BC75FF" />
<path d="M1016.1,303.06A5,5 0 1 1 1006.1,303.06A5,5 0 1 1 1016.1,303.06Z" style="fill:#BC75FF" />
<path d="M1017.9,305.11A5,5 0 1 1 1007.9,305.11A5,5 0 1 1 1017.9,305.11Z" style="fill:#BC75FF" />
<path d="M1019.7,317.63A5,5 0 1 1 1009.7,317.63A5,5 0 1 1 1019.7,317.63Z" style="fill:#BC75FF" />
<path d="M1021.5,300.2A5,5 0 1 1 1011.5,300.2A5,5 0 1 1 1021.5,300.2Z" style="fill:#BC75FF" />
<path d="M1023.4,265.62A5,5 0 1 1 1013.4,265.62A5,5 0 1 1 1023.4,265.62Z" style="fill:#BC75FF" />
<path d="M1025.2,266.08A5,5 0 1 1 1015.2,266.08A5,5 0 1 1 1025.2,266.08Z" style="fill:#BC75FF" />
<path d="M1027,262.95A5,5 0 1 1 1017,262.95A5,5 0 1 1 1027,262.95Z" style="fill:#BC75FF" />
<path d="M1028.9,287.33A5,5 0 1 1 1018.9,287.33A5,5 0 1 1 1028.9,287.33Z" style="fill:#BC75FF" />
<path d="M1030.7,282.69A5,5 0 1 1 1020.7,282.69A5,5 0 1 1 1030.7,282.69Z" style="fill:#BC75FF" />
<path d="M1032.5,274.48A5,5 0 1 1 1022.5,274.48A5,5 0 1 1 1032.5,274.48Z" style="fill:#BC75FF" />
<path d="M1034.3,278.74A5,5 0 1 1 1024.3,278.74A5,5 0 1 1 1034.3,278.74Z" style="fill:#BC75FF" />
<path d="M1036.2,282.46A5,5 0 1 1 1026.2,282.46A5,5 0 1 1 1036.2,282.46Z" style="fill:#BC75FF" />
<path d="M1038,294.63A5,5 0 1 1 1028,294.63A5,5 0 1 1 1038,294.63Z" style="fill:#BC75FF" />
<path d="M1039.8,305.4A5,5 0 1 1 1029.8,305.4A5,5 0 1 1 1039.8,305.4Z" style="fill:#BC75FF" />
<path d="M1041.6,281.56A5,5 0 1 1 1031.6,281.56A5,5 0 1 1 1041.6,281.56Z" style="fill:#BC75FF" />
<path d="M1043.5,283.12A5,5 0 1 1 1033.5,283.12A5,5 0 1 1 1043.5,283.12Z" style="fill:#BC75FF" />
<path d="M1045.3,289.87A5,5 0 1 1 1035.3,289.87A5,5 0 1 1 1045.3,289.87Z" style="fill:#BC75FF" />
<path d="M1047.1,308.33A5,5 0 1 1 1037.1,308.33A5,5 0 1 1 1047.1,308.33Z" style="fill:#BC75FF" />
<path d="M1048.9,318.32A5,5 0 1 1 1038.9,318.32A5,5 0 1 1 1048.9,318.32Z" style="fill:#BC75FF" />
<path d="M1050.8,291.97A5,5 0 1 1 1040.8,291.97A5,5 0 1 1 1050.8,291.97Z" style="fill:#BC75FF" />
<path d="M1052.6,284.26A5,5 0 1 1 1042.6,284.26A5,5 0 1 1 1052.6,284.26Z" style="fill:#BC75FF" />
<path d="M1054.4,289.97A5,5 0 1 1 1044.4,289.97A5,5 0 1 1 1054.4,289.97Z" style="fill:#BC75FF" />
<path d="M1056.3,298.41A5,5 0 1 1 1046.3,298.41A5,5 0 1 1 1056.3,298.41Z" style="fill:#BC75FF" />
<path d="M1058.1,291.15A5,5 0 1 1 1048.1,291.15A5,5 0 1 1 1058.1,291.15Z" style="fill:#BC75FF" />
<path d="M1059.9,302.52A5,5 0 1 1 1049.9,302.52A5,5 0 1 1 1059.9,302.52Z" style="fill:#BC75FF" />
<path d="M1061.7,290.38A5,5 0 1 1 1051.7,290.38A5,5 0 1 1 1061.7,290.38Z" style="fill:#BC75FF" />
<path d="M1063.6,314.4A5,5 0 1 1 1053.6,314.4A5,5 0 1 1 1063.6,314.4Z" style="fill:#BC75FF" />
<path d="M1065.4,317.13A5,5 0 1 1 1055.4,317.13A5,5 0 1 1 1065.4,317.13Z" style="fill:#BC75FF" />
<path d="M1067.2,309.51A5,5 0 1 1 1057.2,309.51A5,5 0 1 1 1067.2,309.51Z" style="fill:#BC75FF" />
<path d="M1069,296.36A5,5 0 1 1 1059,296.36A5,5 0 1 1 1069,296.36Z" style="fill:#BC75FF" />
<path d="M1070.9,277.35A5,5 0 1 1 1060.9,277.35A5,5 0 1 1 1070.9,277.35Z" style="fill:#BC75FF" />
<path d="M1072.7,312.97A5,5 0 1 1 1062.7,312.97A5,5 0 1 1 1072.7,312.97Z" style="fill:#BC75FF" />
<path d="M1074.5,301.1A5,5 0 1 1 1064.5,301.1A5,5 0 1 1 1074.5,301.1Z" style="fill:#BC75FF" />
<path d="M1076.3,298.46A5,5 0 1 1 1066.3,298.46A5,5 0 1 1 1076.3,298.46Z" style="fill:#BC75FF" />
<path d="M1078.2,288.64A5,5 0 1 1 1068.2,288.64A5,5 0 1 1 1078.2,288.64Z" style="fill:#BC75FF" />
<path d="M1080,300.59A5,5 0 1 1 1070,300.59A5,5 0 1 1 1080,300.59Z" style="fill:#BC75FF" />
<path d="M210.53,214.61A5,5 0 1 1 200.53,214.61A5,5 0 1 1 210.53,214.61Z" style="fill:#5B1616" />
<path d="M212.35,213.45A5,5 0 1 1 202.35,213.45A5,5 0 1 1 212.35,213.45Z" style="fill:#5B1616" />
<path d="M214.18,212.75A5,5 0 1 1 204.18,212.75A5,5 0 1 1 214.18,212.75Z" style="fill:#5B1616" />
<path d="M216.01,214.77A5,5 0 1 1 206.01,214.77A5,5 0 1 1 216.01,214.77Z" style="fill:#5B1616" />
<path d="M217.83,213.18A5,5 0 1 1 207.83,213.18A5,5 0 1 1 217.83,213.18Z" style="fill:#5B1616" />
<path d="M219.66,213.13A5,5 0 1 1 209.66,213.13A5,5 0 1 1 219.66,213.13Z" style="fill:#5B1616" />
<path d="M221.49,215.13A5,5 0 1 1 211.49,215.13A5,5 0 1 1 221.49,215.13Z" style="fill:#5B1616" />
<path d="M223.31,213.84A5,5 0 1 1 213.31,213.84A5,5 0 1 1 223.31,213.84Z" style="fill:#5B1616" />
<path d="M225.14,215.74A5,5 0 1 1 215.14,215.74A5,5 0 1 1 225.14,215.74Z" style="fill:#5B1616" />
<path d="M226.97,214.46A5,5 0 1 1 216.97,214.46A5,5 0 1 1 226.97,214.46Z" style="fill:#5B1616" />
<path d="M228.79,213.39A5,5 0 1 1 218.79,213.39A5,5 0 1 1 228.79,213.39Z" style="fill:#5B1616" />
<path d="M230.62,215.27A5,5 0 1 1 220.62,215.27A5,5 0 1 1 230.62,215.27Z" style="fill:#5B1616" />
<path d="M232.45,214.39A5,5 0 1 1 222.45,214.39A5,5 0 1 1 232.45,214.39Z" style="fill:#5B1616" />
<path d="M234.27,212.18A5,5 0 1 1 224.27,212.18A5,5 0 1 1 234.27,212.18Z" style="fill:#5B1616" />
<path d="M236.1,215.63A5,5 0 1 1 226.1,215.63A5,5 0 1 1 236.1,215.63Z" style="fill:#5B1616" />
<path d="M237.93,214.02A5,5 0 1 1 227.93,214.02A5,5 0 1 1 237.93,214.02Z" style="fill:#5B1616" />
<path d="M239.75,213.13A5,5 0 1 1 229.75,213.13A5,5 0 1 1 239.75,213.13Z" style="fill:#5B1616" />
<path d="M241.58,213.79A5,5 0 1 1 231.58,213.79A5,5 0 1 1 241.58,213.79Z" style="fill:#5B1616" />
<path d="M243.41,214.55A5,5 0 1 1 233.41,214.55A5,5 0 1 1 243.41,214.55Z" style="fill:#5B1616" />
<path d="M245.23,212.2A5,5 0 1 1 235.23,212.2A5,5 0 1 1 245.23,212.2Z" style="fill:#5B1616" />
<path d="M247.06,213.57A5,5 0 1 1 237.06,213.57A5,5 0 1 1 247.06,213.57Z" style="fill:#5B1616" />
<path d="M248.89,213.72A5,5 0 1 1 238.89,213.72A5,5 0 1 1 248.89,213.72Z" style="fill:#5B1616" />
<path d="M250.71,212.01A5,5 0 1 1 240.71,212.01A5,5 0 1 1 250.71,212.01Z" style="fill:#5B1616" />
<path d="M252.54,214.95A5,5 0 1 1 242.54,214.95A5,5 0 1 1 252.54,214.95Z" style="fill:#5B1616" />
<path d="M254.37,213.83A5,5 0 1 1 244.37,213.83A5,5 0 1 1 254.37,213.83Z" style="fill:#5B1616" />
<path d="M256.19,213.73A5,5 0 1 1 246.19,213.73A5,5 0 1 1 256.19,213.73Z" style="fill:#5B1616" />
<path d="M258.02,212.49A5,5 0 1 1 248.02,212.49A5,5 0 1 1 258.02,212.49Z" style="fill:#5B1616" />
<path d="M259.85,213.18A5,5 0 1 1 249.85,213.18A5,5 0 1 1 259.85,213.18Z" style="fill:#5B1616" />
<path d="M261.67,213.32A5,5 0 1 1 251.67,213.32A5,5 0 1 1 261.67,213.32Z" style="fill:#5B1616" />
<path d="M263.5,211.42A5,5 0 1 1 253.5,211.42A5,5 0 1 1 263.5,211.42Z" style="fill:#5B1616" />
<path d="M265.33,213.95A5,5 0 1 1 255.33,213.95A5,5 0 1 1 265.33,213.95Z" style="fill:#5B1616" />
<path d="M267.15,213.13A5,5 0 1 1 257.15,213.13A5,5 0 1 1 267.15,213.13Z" style="fill:#5B1616" />
<path d="M268.98,214.97A5,5 0 1 1 258.98,214.97A5,5 0 1 1 268.98,214.97Z" style="fill:#5B1616" />
<path d="M270.81,212.99A5,5 0 1 1 260.81,212.99A5,5 0 1 1 270.81,212.99Z" style="fill:#5B1616" />
<path d="M272.63,213.39A5,5 0 1 1 262.63,213.39A5,5 0 1 1 272.63,213.39Z" style="fill:#5B1616" />
<path d="M274.46,212.78A5,5 0 1 1 264.46,212.78A5,5 0 1 1 274.46,212.78Z" style="fill:#5B1616" />
<path d="M276.29,214.09A5,5 0 1 1 266.29,214.09A5,5 0 1 1 276.29,214.09Z" style="fill:#5B1616" />
<path d="M278.11,213.12A5,5 0 1 1 268.11,213.12A5,5 0 1 1 278.11,213.12Z" style="fill:#5B1616" />
<path d="M279.94,212.14A5,5 0 1 1 269.94,212.14A5,5 0 1 1 279.94,212.14Z" style="fill:#5B1616" />
<path d="M281.77,214.69A5,5 0 1 1 271.77,214.69A5,5 0 1 1 281.77,214.69Z" style="fill:#5B1616" />
<path d="M283.59,214.54A5,5 0 1 1 273.59,214.54A5,5 0 1 1 283.59,214.54Z" style="fill:#5B1616" />
<path d="M285.42,213.35A5,5 0 1 1 275.42,213.35A5,5 0 1 1 285.42,213.35Z" style="fill:#5B1616" />
<path d="M287.25,213.9A5,5 0 1 1 277.25,213.9A5,5 0 1 1 287.25,213.9Z" style="fill:#5B1616" />
<path d="M289.07,212.96A5,5 0 1 1 279.07,212.96A5,5 0 1 1 289.07,212.96Z" style="fill:#5B1616" />
<path d="M290.9,212.93A5,5 0 1 1 280.9,212.93A5,5 0 1 1 290.9,212.93Z" style="fill:#5B1616" />
<path d="M292.73,213.61A5,5 0 1 1 282.73,213.61A5,5 0 1 1 292.73,213.61Z" style="fill:#5B1616" />
<path d="M294.55,213.37A5,5 0 1 1 284.55,213.37A5,5 0 1 1 294.55,213.37Z" style="fill:#5B1616" />
<path d="M296.38,213.85A5,5 0 1 1 286.38,213.85A5,5 0 1 1 296.38,213.85Z" style="fill:#5B1616" />
<path d="M298.21,213.39A5,5 0 1 1 288.21,213.39A5,5 0 1 1 298.21,213.39Z" style="fill:#5B1616" />
<path d="M300.03,212.64A5,5 0 1 1 290.03,212.64A5,5 0 1 1 300.03,212.64Z" style="fill:#5B1616" />
<path d="M301.86,214.55A5,5 0 1 1 291.86,214.55A5,5 0 1 1 301.86,214.55Z" style="fill:#5B1616" />
<path d="M303.69,212.79A5,5 0 1 1 293.69,212.79A5,5 0 1 1 303.69,212.79Z" style="fill:#5B1616" />
<path d="M305.51,214.68A5,5 0 1 1 295.51,214.68A5,5 0 1 1 305.51,214.68Z" style="fill:#5B1616" />
<path d="M307.34,213.77A5,5 0 1 1 297.34,213.77A5,5 0 1 1 307.34,213.77Z" style="fill:#5B1616" />
<path d="M309.16,213.77A5,5 0 1 1 299.16,213.77A5,5 0 1 1 309.16,213.77Z" style="fill:#5B1616" />
<path d="M310.99,213.94A5,5 0 1 1 300.99,213.94A5,5 0 1 1 310.99,213.94Z" style="fill:#5B1616" />
<path d="M312.82,214.1A5,5 0 1 1 302.82,214.1A5,5 0 1 1 312.82,214.1Z" style="fill:#5B1616" />
<path d="M314.64,214.45A5,5 0 1 1 304.64,214.45A5,5 0 1 1 314.64,214.45Z" style="fill:#5B1616" />
<path d="M316.47,213.1A5,5 0 1 1 306.47,213.1A5,5 0 1 1 316.47,213.1Z" style="fill:#5B1616" />
<path d="M318.3,214.93A5,5 0 1 1 308.3,214.93A5,5 0 1 1 318.3,214.93Z" style="fill:#5B1616" />
<path d="M320.12,211.49A5,5 0 1 1 310.12,211.49A5,5 0 1 1 320.12,211.49Z" style="fill:#5B1616" />
<path d="M321.95,214.33A5,5 0 1 1 311.95,214.33A5,5 0 1 1 321.95,214.33Z" style="fill:#5B1616" />
<path d="M323.78,214.29A5,5 0 1 1 313.78,214.29A5,5 0 1 1 323.78,214.29Z" style="fill:#5B1616" />
<path d="M325.6,213.5A5,5 0 1 1 315.6,213.5A5,5 0 1 1 325.6,213.5Z" style="fill:#5B1616" />
<path d="M327.43,213.01A5,5 0 1 1 317.43,213.01A5,5 0 1 1 327.43,213.01Z" style="fill:#5B1616" />
<path d="M329.26,214.2A5,5 0 1 1 319.26,214.2A5,5 0 1 1 329.26,214.2Z" style="fill:#5B1616" />
<path d="M331.08,211.98A5,5 0 1 1 321.08,211.98A5,5 0 1 1 331.08,211.98Z" style="fill:#5B1616" />
<path d="M332.91,214.85A5,5 0 1 1 322.91,214.85A5,5 0 1 1 332.91,214.85Z" style="fill:#5B1616" />
<path d="M334.74,214.8A5,5 0 1 1 324.74,214.8A5,5 0 1 1 334.74,214.8Z" style="fill:#5B1616" />
<path d="M336.56,213.15A5,5 0 1 1 326.56,213.15A5,5 0 1 1 336.56,213.15Z" style="fill:#5B1616" />
<path d="M338.39,214.11A5,5 0 1 1 328.39,214.11A5,5 0 1 1 338.39,214.11Z" style="fill:#5B1616" />
<path d="M340.22,213.39A5,5 0 1 1 330.22,213.39A5,5 0 1 1 340.22,213.39Z" style="fill:#5B1616" />
<path d="M342.04,215.97A5,5 0 1 1 332.04,215.97A5,5 0 1 1 342.04,215.97Z" style="fill:#5B1616" />
<path d="M343.87,214.4A5,5 0 1 1 333.87,214.4A5,5 0 1 1 343.87,214.4Z" style="fill:#5B1616" />
<path d="M345.7,213.5A5,5 0 1 1 335.7,213.5A5,5 0 1 1 345.7,213.5Z" style="fill:#5B1616" />
<path d="M347.52,214.08A5,5 0 1 1 337.52,214.08A5,5 0 1 1 347.52,214.08Z" style="fill:#5B1616" />
<path d="M349.35,213.89A5,5 0 1 1 339.35,213.89A5,5 0 1 1 349.35,213.89Z" style="fill:#5B1616" />
<path d="M351.18,215.22A5,5 0 1 1 341.18,215.22A5,5 0 1 1 351.18,215.22Z" style="fill:#5B1616" />
<path d="M353,213.08A5,5 0 1 1 343,213.08A5,5 0 1 1 353,213.08Z" style="fill:#5B1616" />
<path d="M354.83,212.02A5,5 0 1 1 344.83,212.02A5,5 0 1 1 354.83,212.02Z" style="fill:#5B1616" />
<path d="M356.66,213.13A5,5 0 1 1 346.66,213.13A5,5 0 1 1 356.66,213.13Z" style="fill:#5B1616" />
<path d="M358.48,215.52A5,5 0 1 1 348.48,215.52A5,5 0 1 1 358.48,215.52Z" style="fill:#5B1616" />
<path d="M360.31,213.63A5,5 0 1 1 350.31,213.63A5,5 0 1 1 360.31,213.63Z" style="fill:#5B1616" />
<path d="M362.14,211.85A5,5 0 1 1 352.14,211.85A5,5 0 1 1 362.14,211.85Z" style="fill:#5B1616" />
<path d="M363.96,214.97A5,5 0 1 1 353.96,214.97A5,5 0 1 1 363.96,214.97Z" style="fill:#5B1616" />
<path d="M365.79,213.02A5,5 0 1 1 355.79,213.02A5,5 0 1 1 365.79,213.02Z" style="fill:#5B1616" />
<path d="M367.62,215.68A5,5 0 1 1 357.62,215.68A5,5 0 1 1 367.62,215.68Z" style="fill:#5B1616" />
<path d="M369.44,215.47A5,5 0 1 1 359.44,215.47A5,5 0 1 1 369.44,215.47Z" style="fill:#5B1616" />
<path d="M371.27,215.53A5,5 0 1 1 361.27,215.53A5,5 0 1 1 371.27,215.53Z" style="fill:#5B1616" />
<path d="M373.1,213.75A5,5 0 1 1 363.1,213.75A5,5 0 1 1 373.1,213.75Z" style="fill:#5B1616" />
<path d="M374.92,214.82A5,5 0 1 1 364.92,214.82A5,5 0 1 1 374.92,214.82Z" style="fill:#5B1616" />
<path d="M376.75,214.03A5,5 0 1 1 366.75,214.03A5,5 0 1 1 376.75,214.03Z" style="fill:#5B1616" />
<path d="M378.58,212.94A5,5 0 1 1 368.58,212.94A5,5 0 1 1 378.58,212.94Z" style="fill:#5B1616" />
<path d="M380.4,214.68A5,5 0 1 1 370.4,214.68A5,5 0 1 1 380.4,214.68Z" style="fill:#5B1616" />
<path d="M382.23,214.43A5,5 0 1 1 372.23,214.43A5,5 0 1 1 382.23,214.43Z" style="fill:#5B1616" />
<path d="M384.06,215.45A5,5 0 1 1 374.06,215.45A5,5 0 1 1 384.06,215.45Z" style="fill:#5B1616" />
<path d="M385.88,216.22A5,5 0 1 1 375.88,216.22A5,5 0 1 1 385.88,216.22Z" style="fill:#5B1616" />
<path d="M387.71,211.38A5,5 0 1 1 377.71,211.38A5,5 0 1 1 387.71,211.38Z" style="fill:#5B1616" />
<path d="M389.54,214.54A5,5 0 1 1 379.54,214.54A5,5 0 1 1 389.54,214.54Z" style="fill:#5B1616" />
<path d="M391.36,214.59A5,5 0 1 1 381.36,214.59A5,5 0 1 1 391.36,214.59Z" style="fill:#5B1616" />
<path d="M393.19,213.71A5,5 0 1 1 383.19,213.71A5,5 0 1 1 393.19,213.71Z" style="fill:#5B1616" />
<path d="M395.02,213.21A5,5 0 1 1 385.02,213.21A5,5 0 1 1 395.02,213.21Z" style="fill:#5B1616" />
<path d="M396.84,214A5,5 0 1 1 386.84,214A5,5 0 1 1 396.84,214Z" style="fill:#5B1616" />
<path d="M398.67,212.53A5,5 0 1 1 388.67,212.53A5,5 0 1 1 398.67,212.53Z" style="fill:#5B1616" />
<path d="M400.5,213.2A5,5 0 1 1 390.5,213.2A5,5 0 1 1 400.5,213.2Z" style="fill:#5B1616" />
<path d="M402.32,214.57A5,5 0 1 1 392.32,214.57A5,5 0 1 1 402.32,214.57Z" style="fill:#5B1616" />
<path d="M404.15,213.12A5,5 0 1 1 394.15,213.12A5,5 0 1 1 404.15,213.12Z" style="fill:#5B1616" />
<path d="M405.98,214.35A5,5 0 1 1 395.98,214.35A5,5 0 1 1 405.98,214.35Z" style="fill:#5B1616" />
<path d="M407.8,216.38A5,5 0 1 1 397.8,216.38A5,5 0 1 1 407.8,216.38Z" style="fill:#5B1616" />
<path d="M409.63,213.78A5,5 0 1 1 399.63,213.78A5,5 0 1 1 409.63,213.78Z" style="fill:#5B1616" />
<path d="M411.46,213.75A5,5 0 1 1 401.46,213.75A5,5 0 1 1 411.46,213.75Z" style="fill:#5B1616" />
<path d="M413.28,215.17A5,5 0 1 1 403.28,215.17A5,5 0 1 1 413.28,215.17Z" style="fill:#5B1616" />
<path d="M415.11,215.15A5,5 0 1 1 405.11,215.15A5,5 0 1 1 415.11,215.15Z" style="fill:#5B1616" />
<path d="M416.94,213.83A5,5 0 1 1 406.94,213.83A5,5 0 1 1 416.94,213.83Z" style="fill:#5B1616" />
<path d="M418.76,215.33A5,5 0 1 1 408.76,215.33A5,5 0 1 1 418.76,215.33Z" style="fill:#5B1616" />
<path d="M420.59,213.2A5,5 0 1 1 410.59,213.2A5,5 0 1 1 420.59,213.2Z" style="fill:#5B1616" />
<path d="M422.42,214.42A5,5 0 1 1 412.42,214.42A5,5 0 1 1 422.42,214.42Z" style="fill:#5B1616" />
<path d="M424.24,214.44A5,5 0 1 1 414.24,214.44A5,5 0 1 1 424.24,214.44Z" style="fill:#5B1616" />
<path d="M426.07,214.26A5,5 0 1 1 416.07,214.26A5,5 0 1 1 426.07,214.26Z" style="fill:#5B1616" />
<path d="M427.9,213.45A5,5 0 1 1 417.9,213.45A5,5 0 1 1 427.9,213.45Z" style="fill:#5B1616" />
<path d="M429.72,216.2A5,5 0 1 1 419.72,216.2A5,5 0 1 1 429.72,216.2Z" style="fill:#5B1616" />
<path d="M431.55,213.89A5,5 0 1 1 421.55,213.89A5,5 0 1 1 431.55,213.89Z" style="fill:#5B1616" />
<path d="M433.38,214.11A5,5 0 1 1 423.38,214.11A5,5 0 1 1 433.38,214.11Z" style="fill:#5B1616" />
<path d="M435.2,214.63A5,5 0 1 1 425.2,214.63A5,5 0 1 1 435.2,214.63Z" style="fill:#5B1616" />
<path d="M437.03,214.77A5,5 0 1 1 427.03,214.77A5,5 0 1 1 437.03,214.77Z" style="fill:#5B1616" />
<path d="M438.86,215.35A5,5 0 1 1 428.86,215.35A5,5 0 1 1 438.86,215.35Z" style="fill:#5B1616" />
<path d="M440.68,215.34A5,5 0 1 1 430.68,215.34A5,5 0 1 1 440.68,215.34Z" style="fill:#5B1616" />
<path d="M442.51,214.46A5,5 0 1 1 432.51,214.46A5,5 0 1 1 442.51,214.46Z" style="fill:#5B1616" />
<path d="M444.34,213.62A5,5 0 1 1 434.34,213.62A5,5 0 1 1 444.34,213.62Z" style="fill:#5B1616" />
<path d="M446.16,215.03A5,5 0 1 1 436.16,215.03A5,5 0 1 1 446.16,215.03Z" style="fill:#5B1616" />
<path d="M447.99,215.35A5,5 0 1 1 437.99,215.35A5,5 0 1 1 447.99,215.35Z" style="fill:#5B1616" />
<path d="M449.81,215.07A5,5 0 1 1 439.81,215.07A5,5 0 1 1 449.81,215.07Z" style="fill:#5B1616" />
<path d="M451.64,215.05A5,5 0 1 1 441.64,215.05A5,5 0 1 1 451.64,215.05Z" style="fill:#5B1616" />
<path d="M453.47,215.61A5,5 0 1 1 443.47,215.61A5,5 0 1 1 453.47,215.61Z" style="fill:#5B1616" />
<path d="M455.29,213.57A5,5 0 1 1 445.29,213.57A5,5 0 1 1 455.29,213.57Z" style="fill:#5B1616" />
<path d="M457.12,212.63A5,5 0 1 1 447.12,212.63A5,5 0 1 1 457.12,212.63Z" style="fill:#5B1616" />
<path d="M458.95,215.81A5,5 0 1 1 448.95,215.81A5,5 0 1 1 458.95,215.81Z" style="fill:#5B1616" />
<path d="M460.77,215.24A5,5 0 1 1 450.77,215.24A5,5 0 1 1 460.77,215.24Z" style="fill:#5B1616" />
<path d="M462.6,215.79A5,5 0 1 1 452.6,215.79A5,5 0 1 1 462.6,215.79Z" style="fill:#5B1616" />
<path d="M464.43,214.15A5,5 0 1 1 454.43,214.15A5,5 0 1 1 464.43,214.15Z" style="fill:#5B1616" />
<path d="M466.25,214.12A5,5 0 1 1 456.25,214.12A5,5 0 1 1 466.25,214.12Z" style="fill:#5B1616" />
<path d="M468.08,215.96A5,5 0 1 1 458.08,215.96A5,5 0 1 1 468.08,215.96Z" style="fill:#5B1616" />
<path d="M469.91,214.26A5,5 0 1 1 459.91,214.26A5,5 0 1 1 469.91,214.26Z" style="fill:#5B1616" />
<path d="M471.73,216.51A5,5 0 1 1 461.73,216.51A5,5 0 1 1 471.73,216.51Z" style="fill:#5B1616" />
<path d="M473.56,213.69A5,5 0 1 1 463.56,213.69A5,5 0 1 1 473.56,213.69Z" style="fill:#5B1616" />
<path d="M475.39,214.06A5,5 0 1 1 465.39,214.06A5,5 0 1 1 475.39,214.06Z" style="fill:#5B1616" />
<path d="M477.21,215.99A5,5 0 1 1 467.21,215.99A5,5 0 1 1 477.21,215.99Z" style="fill:#5B1616" />
<path d="M479.04,215.71A5,5 0 1 1 469.04,215.71A5,5 0 1 1 479.04,215.71Z" style="fill:#5B1616" />
<path d="M480.87,214.6A5,5 0 1 1 470.87,214.6A5,5 0 1 1 480.87,214.6Z" style="fill:#5B1616" />
<path d="M482.69,213.91A5,5 0 1 1 472.69,213.91A5,5 0 1 1 482.69,213.91Z" style="fill:#5B1616" />
<path d="M484.52,213.46A5,5 0 1 1 474.52,213.46A5,5 0 1 1 484.52,213.46Z" style="fill:#5B1616" />
<path d="M486.35,212.95A5,5 0 1 1 476.35,212.95A5,5 0 1 1 486.35,212.95Z" style="fill:#5B1616" />
<path d="M488.17,213.44A5,5 0 1 1 478.17,213.44A5,5 0 1 1 488.17,213.44Z" style="fill:#5B1616" />
<path d="M490,214.09A5,5 0 1 1 480,214.09A5,5 0 1 1 490,214.09Z" style="fill:#5B1616" />
<path d="M491.83,215.01A5,5 0 1 1 481.83,215.01A5,5 0 1 1 491.83,215.01Z" style="fill:#5B1616" />
<path d="M493.65,215.33A5,5 0 1 1 483.65,215.33A5,5 0 1 1 493.65,215.33Z" style="fill:#5B1616" />
<path d="M495.48,213.89A5,5 0 1 1 485.48,213.89A5,5 0 1 1 495.48,213.89Z" style="fill:#5B1616" />
<path d="M497.31,212.48A5,5 0 1 1 487.31,212.48A5,5 0 1 1 497.31,212.48Z" style="fill:#5B1616" />
<path d="M499.13,217.94A5,5 0 1 1 489.13,217.94A5,5 0 1 1 499.13,217.94Z" style="fill:#5B1616" />
<path d="M500.96,214.85A5,5 0 1 1 490.96,214.85A5,5 0 1 1 500.96,214.85Z" style="fill:#5B1616" />
<path d="M502.79,216.72A5,5 0 1 1 492.79,216.72A5,5 0 1 1 502.79,216.72Z" style="fill:#5B1616" />
<path d="M504.61,214.77A5,5 0 1 1 494.61,214.77A5,5 0 1 1 504.61,214.77Z" style="fill:#5B1616" />
<path d="M506.44,217.34A5,5 0 1 1 496.44,217.34A5,5 0 1 1 506.44,217.34Z" style="fill:#5B1616" />
<path d="M508.27,215.9A5,5 0 1 1 498.27,215.9A5,5 0 1 1 508.27,215.9Z" style="fill:#5B1616" />
<path d="M510.09,216A5,5 0 1 1 500.09,216A5,5 0 1 1 510.09,216Z" style="fill:#5B1616" />
<path d="M511.92,216.11A5,5 0 1 1 501.92,216.11A5,5 0 1 1 511.92,216.11Z" style="fill:#5B1616" />
<path d="M513.75,213.96A5,5 0 1 1 503.75,213.96A5,5 0 1 1 513.75,213.96Z" style="fill:#5B1616" />
<path d="M515.57,214.67A5,5 0 1 1 505.57,214.67A5,5 0 1 1 515.57,214.67Z" style="fill:#5B1616" />
<path d="M517.4,214.1A5,5 0 1 1 507.4,214.1A5,5 0 1 1 517.4,214.1Z" style="fill:#5B1616" />
<path d="M519.23,216.47A5,5 0 1 1 509.23,216.47A5,5 0 1 1 519.23,216.47Z" style="fill:#5B1616" />
<path d="M521.05,216.54A5,5 0 1 1 511.05,216.54A5,5 0 1 1 521.05,216.54Z" style="fill:#5B1616" />
<path d="M522.88,212.28A5,5 0 1 1 512.88,212.28A5,5 0 1 1 522.88,212.28Z" style="fill:#5B1616" />
<path d="M524.71,217.1A5,5 0 1 1 514.71,217.1A5,5 0 1 1 524.71,217.1Z" style="fill:#5B1616" />
<path d="M526.53,216.61A5,5 0 1 1 516.53,216.61A5,5 0 1 1 526.53,216.61Z" style="fill:#5B1616" />
<path d="M528.36,217.53A5,5 0 1 1 518.36,217.53A5,5 0 1 1 528.36,217.53Z" style="fill:#5B1616" />
<path d="M530.19,215.89A5,5 0 1 1 520.19,215.89A5,5 0 1 1 530.19,215.89Z" style="fill:#5B1616" />
<path d="M532.01,215.64A5,5 0 1 1 522.01,215.64A5,5 0 1 1 532.01,215.64Z" style="fill:#5B1616" />
<path d="M533.84,215.4A5,5 0 1 1 523.84,215.4A5,5 0 1 1 533.84,215.4Z" style="fill:#5B1616" />
<path d="M535.67,214.14A5,5 0 1 1 525.67,214.14A5,5 0 1 1 535.67,214.14Z" style="fill:#5B1616" />
<path d="M537.49,215.85A5,5 0 1 1 527.49,215.85A5,5 0 1 1 537.49,215.85Z" style="fill:#5B1616" />
<path d="M539.32,216.38A5,5 0 1 1 529.32,216.38A5,5 0 1 1 539.32,216.38Z" style="fill:#5B1616" />
<path d="M541.15,215.84A5,5 0 1 1 531.15,215.84A5,5 0 1 1 541.15,215.84Z" style="fill:#5B1616" />
<path d="M542.97,217.72A5,5 0 1 1 532.97,217.72A5,5 0 1 1 542.97,217.72Z" style="fill:#5B1616" />
<path d="M544.8,216.21A5,5 0 1 1 534.8,216.21A5,5 0 1 1 544.8,216.21Z" style="fill:#5B1616" />
<path d="M546.63,215.92A5,5 0 1 1 536.63,215.92A5,5 0 1 1 546.63,215.92Z" style="fill:#5B1616" />
<path d="M548.45,215.7A5,5 0 1 1 538.45,215.7A5,5 0 1 1 548.45,215.7Z" style="fill:#5B1616" />
<path d="M550.28,215.6A5,5 0 1 1 540.28,215.6A5,5 0 1 1 550.28,215.6Z" style="fill:#5B1616" />
<path d="M552.11,216.7A5,5 0 1 1 542.11,216.7A5,5 0 1 1 552.11,216.7Z" style="fill:#5B1616" />
<path d="M553.93,215.04A5,5 0 1 1 543.93,215.04A5,5 0 1 1 553.93,215.04Z" style="fill:#5B1616" />
<path d="M555.76,215.04A5,5 0 1 1 545.76,215.04A5,5 0 1 1 555.76,215.04Z" style="fill:#5B1616" />
<path d="M557.59,215.75A5,5 0 1 1 547.59,215.75A5,5 0 1 1 557.59,215.75Z" style="fill:#5B1616" />
<path d="M559.41,214.39A5,5 0 1 1 549.41,214.39A5,5 0 1 1 559.41,214.39Z" style="fill:#5B1616" />
<path d="M561.24,217.24A5,5 0 1 1 551.24,217.24A5,5 0 1 1 561.24,217.24Z" style="fill:#5B1616" />
<path d="M563.07,216.29A5,5 0 1 1 553.07,216.29A5,5 0 1 1 563.07,216.29Z" style="fill:#5B1616" />
<path d="M564.89,218.73A5,5 0 1 1 554.89,218.73A5,5 0 1 1 564.89,218.73Z" style="fill:#5B1616" />
<path d="M566.72,216.71A5,5 0 1 1 556.72,216.71A5,5 0 1 1 566.72,216.71Z" style="fill:#5B1616" />
<path d="M568.55,216.54A5,5 0 1 1 558.55,216.54A5,5 0 1 1 568.55,216.54Z" style="fill:#5B1616" />
<path d="M570.37,218.77A5,5 0 1 1 560.37,218.77A5,5 0 1 1 570.37,218.77Z" style="fill:#5B1616" />
<path d="M572.2,218.08A5,5 0 1 1 562.2,218.08A5,5 0 1 1 572.2,218.08Z" style="fill:#5B1616" />
<path d="M574.03,217.75A5,5 0 1 1 564.03,217.75A5,5 0 1 1 574.03,217.75Z" style="fill:#5B1616" />
<path d="M575.85,217.27A5,5 0 1 1 565.85,217.27A5,5 0 1 1 575.85,217.27Z" style="fill:#5B1616" />
<path d="M577.68,215.63A5,5 0 1 1 567.68,215.63A5,5 0 1 1 577.68,215.63Z" style="fill:#5B1616" />
<path d="M579.51,217.86A5,5 0 1 1 569.51,217.86A5,5 0 1 1 579.51,217.86Z" style="fill:#5B1616" />
<path d="M581.33,216.12A5,5 0 1 1 571.33,216.12A5,5 0 1 1 581.33,216.12Z" style="fill:#5B1616" />
<path d="M583.16,218.88A5,5 0 1 1 573.16,218.88A5,5 0 1 1 583.16,218.88Z" style="fill:#5B1616" />
<path d="M584.99,217.83A5,5 0 1 1 574.99,217.83A5,5 0 1 1 584.99,217.83Z" style="fill:#5B1616" />
<path d="M586.81,218.4A5,5 0 1 1 576.81,218.4A5,5 0 1 1 586.81,218.4Z" style="fill:#5B1616" />
<path d="M588.64,218.94A5,5 0 1 1 578.64,218.94A5,5 0 1 1 588.64,218.94Z" style="fill:#5B1616" />
<path d="M590.46,221.34A5,5 0 1 1 580.46,221.34A5,5 0 1 1 590.46,221.34Z" style="fill:#5B1616" />
<path d="M592.29,219.19A5,5 0 1 1 582.29,219.19A5,5 0 1 1 592.29,219.19Z" style="fill:#5B1616" />
<path d="M594.12,219.65A5,5 0 1 1 584.12,219.65A5,5 0 1 1 594.12,219.65Z" style="fill:#5B1616" />
<path d="M595.94,218.52A5,5 0 1 1 585.94,218.52A5,5 0 1 1 595.94,218.52Z" style="fill:#5B1616" />
<path d="M597.77,218.73A5,5 0 1 1 587.77,218.73A5,5 0 1 1 597.77,218.73Z" style="fill:#5B1616" />
<path d="M599.6,220.97A5,5 0 1 1 589.6,220.97A5,5 0 1 1 599.6,220.97Z" style="fill:#5B1616" />
<path d="M601.42,222.29A5,5 0 1 1 591.42,222.29A5,5 0 1 1 601.42,222.29Z" style="fill:#5B1616" />
<path d="M603.25,222.89A5,5 0 1 1 593.25,222.89A5,5 0 1 1 603.25,222.89Z" style="fill:#5B1616" />
<path d="M605.08,220.46A5,5 0 1 1 595.08,220.46A5,5 0 1 1 605.08,220.46Z" style="fill:#5B1616" />
<path d="M606.9,223.83A5,5 0 1 1 596.9,223.83A5,5 0 1 1 606.9,223.83Z" style="fill:#5B1616" />
<path d="M608.73,222.58A5,5 0 1 1 598.73,222.58A5,5 0 1 1 608.73,222.58Z" style="fill:#5B1616" />
<path d="M610.56,222.39A5,5 0 1 1 600.56,222.39A5,5 0 1 1 610.56,222.39Z" style="fill:#5B1616" />
<path d="M612.38,224.84A5,5 0 1 1 602.38,224.84A5,5 0 1 1 612.38,224.84Z" style="fill:#5B1616" />
<path d="M614.21,223.73A5,5 0 1 1 604.21,223.73A5,5 0 1 1 614.21,223.73Z" style="fill:#5B1616" />
<path d="M616.04,224.51A5,5 0 1 1 606.04,224.51A5,5 0 1 1 616.04,224.51Z" style="fill:#5B1616" />
<path d="M617.86,226.28A5,5 0 1 1 607.86,226.28A5,5 0 1 1 617.86,226.28Z" style="fill:#5B1616" />
<path d="M619.69,223.3A5,5 0 1 1 609.69,223.3A5,5 0 1 1 619.69,223.3Z" style="fill:#5B1616" />
<path d="M621.52,227.15A5,5 0 1 1 611.52,227.15A5,5 0 1 1 621.52,227.15Z" style="fill:#5B1616" />
<path d="M623.34,226.67A5,5 0 1 1 613.34,226.67A5,5 0 1 1 623.34,226.67Z" style="fill:#5B1616" />
<path d="M625.17,226.87A5,5 0 1 1 615.17,226.87A5,5 0 1 1 625.17,226.87Z" style="fill:#5B1616" />
<path d="M627,226.67A5,5 0 1 1 617,226.67A5,5 0 1 1 627,226.67Z" style="fill:#5B1616" />
<path d="M628.82,229.15A5,5 0 1 1 618.82,229.15A5,5 0 1 1 628.82,229.15Z" style="fill:#5B1616" />
<path d="M630.65,226.61A5,5 0 1 1 620.65,226.61A5,5 0 1 1 630.65,226.61Z" style="fill:#5B1616" />
<path d="M632.48,226.28A5,5 0 1 1 622.48,226.28A5,5 0 1 1 632.48,226.28Z" style="fill:#5B1616" />
<path d="M634.3,225.54A5,5 0 1 1 624.3,225.54A5,5 0 1 1 634.3,225.54Z" style="fill:#5B1616" />
<path d="M636.13,225.8A5,5 0 1 1 626.13,225.8A5,5 0 1 1 636.13,225.8Z" style="fill:#5B1616" />
<path d="M637.96,225.22A5,5 0 1 1 627.96,225.22A5,5 0 1 1 637.96,225.22Z" style="fill:#5B1616" />
<path d="M639.78,225.71A5,5 0 1 1 629.78,225.71A5,5 0 1 1 639.78,225.71Z" style="fill:#5B1616" />
<path d="M641.61,222.82A5,5 0 1 1 631.61,222.82A5,5 0 1 1 641.61,222.82Z" style="fill:#5B1616" />
<path d="M643.44,226.43A5,5 0 1 1 633.44,226.43A5,5 0 1 1 643.44,226.43Z" style="fill:#5B1616" />
<path d="M645.26,223.13A5,5 0 1 1 635.26,223.13A5,5 0 1 1 645.26,223.13Z" style="fill:#5B1616" />
<path d="M647.09,224.96A5,5 0 1 1 637.09,224.96A5,5 0 1 1 647.09,224.96Z" style="fill:#5B1616" />
<path d="M648.92,221.99A5,5 0 1 1 638.92,221.99A5,5 0 1 1 648.92,221.99Z" style="fill:#5B1616" />
<path d="M650.74,223.86A5,5 0 1 1 640.74,223.86A5,5 0 1 1 650.74,223.86Z" style="fill:#5B1616" />
<path d="M652.57,221.47A5,5 0 1 1 642.57,221.47A5,5 0 1 1 652.57,221.47Z" style="fill:#5B1616" />
<path d="M654.4,220.84A5,5 0 1 1 644.4,220.84A5,5 0 1 1 654.4,220.84Z" style="fill:#5B1616" />
<path d="M656.22,220.25A5,5 0 1 1 646.22,220.25A5,5 0 1 1 656.22,220.25Z" style="fill:#5B1616" />
<path d="M658.05,218.05A5,5 0 1 1 648.05,218.05A5,5 0 1 1 658.05,218.05Z" style="fill:#5B1616" />
<path d="M659.88,216.2A5,5 0 1 1 649.88,216.2A5,5 0 1 1 659.88,216.2Z" style="fill:#5B1616" />
<path d="M661.7,219.84A5,5 0 1 1 651.7,219.84A5,5 0 1 1 661.7,219.84Z" style="fill:#5B1616" />
<path d="M663.53,218.52A5,5 0 1 1 653.53,218.52A5,5 0 1 1 663.53,218.52Z" style="fill:#5B1616" />
<path d="M665.36,217.16A5,5 0 1 1 655.36,217.16A5,5 0 1 1 665.36,217.16Z" style="fill:#5B1616" />
<path d="M667.18,219.07A5,5 0 1 1 657.18,219.07A5,5 0 1 1 667.18,219.07Z" style="fill:#5B1616" />
<path d="M669.01,218.25A5,5 0 1 1 659.01,218.25A5,5 0 1 1 669.01,218.25Z" style="fill:#5B1616" />
<path d="M670.84,217.73A5,5 0 1 1 660.84,217.73A5,5 0 1 1 670.84,217.73Z" style="fill:#5B1616" />
<path d="M672.66,217.28A5,5 0 1 1 662.66,217.28A5,5 0 1 1 672.66,217.28Z" style="fill:#5B1616" />
<path d="M674.49,216.42A5,5 0 1 1 664.49,216.42A5,5 0 1 1 674.49,216.42Z" style="fill:#5B1616" />
<path d="M676.32,215.54A5,5 0 1 1 666.32,215.54A5,5 0 1 1 676.32,215.54Z" style="fill:#5B1616" />
<path d="M678.14,215.84A5,5 0 1 1 668.14,215.84A5,5 0 1 1 678.14,215.84Z" style="fill:#5B1616" />
<path d="M679.97,213.84A5,5 0 1 1 669.97,213.84A5,5 0 1 1 679.97,213.84Z" style="fill:#5B1616" />
<path d="M681.8,216.46A5,5 0 1 1 671.8,216.46A5,5 0 1 1 681.8,216.46Z" style="fill:#5B1616" />
<path d="M683.62,214.47A5,5 0 1 1 673.62,214.47A5,5 0 1 1 683.62,214.47Z" style="fill:#5B1616" />
<path d="M685.45,215.82A5,5 0 1 1 675.45,215.82A5,5 0 1 1 685.45,215.82Z" style="fill:#5B1616" />
<path d="M687.28,215.08A5,5 0 1 1 677.28,215.08A5,5 0 1 1 687.28,215.08Z" style="fill:#5B1616" />
<path d="M689.1,216.88A5,5 0 1 1 679.1,216.88A5,5 0 1 1 689.1,216.88Z" style="fill:#5B1616" />
<path d="M690.93,214.73A5,5 0 1 1 680.93,214.73A5,5 0 1 1 690.93,214.73Z" style="fill:#5B1616" />
<path d="M692.76,217.24A5,5 0 1 1 682.76,217.24A5,5 0 1 1 692.76,217.24Z" style="fill:#5B1616" />
<path d="M694.58,213.98A5,5 0 1 1 684.58,213.98A5,5 0 1 1 694.58,213.98Z" style="fill:#5B1616" />
<path d="M696.41,215.95A5,5 0 1 1 686.41,215.95A5,5 0 1 1 696.41,215.95Z" style="fill:#5B1616" />
<path d="M698.24,216.32A5,5 0 1 1 688.24,216.32A5,5 0 1 1 698.24,216.32Z" style="fill:#5B1616" />
<path d="M700.06,214.87A5,5 0 1 1 690.06,214.87A5,5 0 1 1 700.06,214.87Z" style="fill:#5B1616" />
<path d="M701.89,213.76A5,5 0 1 1 691.89,213.76A5,5 0 1 1 701.89,213.76Z" style="fill:#5B1616" />
<path d="M703.72,216.23A5,5 0 1 1 693.72,216.23A5,5 0 1 1 703.72,216.23Z" style="fill:#5B1616" />
<path d="M705.54,215.12A5,5 0 1 1 695.54,215.12A5,5 0 1 1 705.54,215.12Z" style="fill:#5B1616" />
<path d="M707.37,215.46A5,5 0 1 1 697.37,215.46A5,5 0 1 1 707.37,215.46Z" style="fill:#5B1616" />
<path d="M709.2,215.36A5,5 0 1 1 699.2,215.36A5,5 0 1 1 709.2,215.36Z" style="fill:#5B1616" />
<path d="M711.02,217.64A5,5 0 1 1 701.02,217.64A5,5 0 1 1 711.02,217.64Z" style="fill:#5B1616" />
<path d="M712.85,214.25A5,5 0 1 1 702.85,214.25A5,5 0 1 1 712.85,214.25Z" style="fill:#5B1616" />
<path d="M714.68,215.07A5,5 0 1 1 704.68,215.07A5,5 0 1 1 714.68,215.07Z" style="fill:#5B1616" />
<path d="M716.5,213.98A5,5 0 1 1 706.5,213.98A5,5 0 1 1 716.5,213.98Z" style="fill:#5B1616" />
<path d="M718.33,214.45A5,5 0 1 1 708.33,214.45A5,5 0 1 1 718.33,214.45Z" style="fill:#5B1616" />
<path d="M720.16,214.6A5,5 0 1 1 710.16,214.6A5,5 0 1 1 720.16,214.6Z" style="fill:#5B1616" />
<path d="M721.98,215.19A5,5 0 1 1 711.98,215.19A5,5 0 1 1 721.98,215.19Z" style="fill:#5B1616" />
<path d="M723.81,217.13A5,5 0 1 1 713.81,217.13A5,5 0 1 1 723.81,217.13Z" style="fill:#5B1616" />
<path d="M725.64,212.87A5,5 0 1 1 715.64,212.87A5,5 0 1 1 725.64,212.87Z" style="fill:#5B1616" />
<path d="M727.46,214.21A5,5 0 1 1 717.46,214.21A5,5 0 1 1 727.46,214.21Z" style="fill:#5B1616" />
<path d="M729.29,214.24A5,5 0 1 1 719.29,214.24A5,5 0 1 1 729.29,214.24Z" style="fill:#5B1616" />
<path d="M731.11,213.78A5,5 0 1 1 721.11,213.78A5,5 0 1 1 731.11,213.78Z" style="fill:#5B1616" />
<path d="M732.94,215.33A5,5 0 1 1 722.94,215.33A5,5 0 1 1 732.94,215.33Z" style="fill:#5B1616" />
<path d="M734.77,215.88A5,5 0 1 1 724.77,215.88A5,5 0 1 1 734.77,215.88Z" style="fill:#5B1616" />
<path d="M736.59,214.43A5,5 0 1 1 726.59,214.43A5,5 0 1 1 736.59,214.43Z" style="fill:#5B1616" />
<path d="M738.42,212.98A5,5 0 1 1 728.42,212.98A5,5 0 1 1 738.42,212.98Z" style="fill:#5B1616" />
<path d="M740.25,215.42A5,5 0 1 1 730.25,215.42A5,5 0 1 1 740.25,215.42Z" style="fill:#5B1616" />
<path d="M742.07,212.65A5,5 0 1 1 732.07,212.65A5,5 0 1 1 742.07,212.65Z" style="fill:#5B1616" />
<path d="M743.9,216.52A5,5 0 1 1 733.9,216.52A5,5 0 1 1 743.9,216.52Z" style="fill:#5B1616" />
<path d="M745.73,214.06A5,5 0 1 1 735.73,214.06A5,5 0 1 1 745.73,214.06Z" style="fill:#5B1616" />
<path d="M747.55,214.01A5,5 0 1 1 737.55,214.01A5,5 0 1 1 747.55,214.01Z" style="fill:#5B1616" />
<path d="M749.38,213.84A5,5 0 1 1 739.38,213.84A5,5 0 1 1 749.38,213.84Z" style="fill:#5B1616" />
<path d="M751.21,213.27A5,5 0 1 1 741.21,213.27A5,5 0 1 1 751.21,213.27Z" style="fill:#5B1616" />
<path d="M753.03,213.86A5,5 0 1 1 743.03,213.86A5,5 0 1 1 753.03,213.86Z" style="fill:#5B1616" />
<path d="M754.86,214.4A5,5 0 1 1 744.86,214.4A5,5 0 1 1 754.86,214.4Z" style="fill:#5B1616" />
<path d="M756.69,215.65A5,5 0 1 1 746.69,215.65A5,5 0 1 1 756.69,215.65Z" style="fill:#5B1616" />
<path d="M758.51,215.89A5,5 0 1 1 748.51,215.89A5,5 0 1 1 758.51,215.89Z" style="fill:#5B1616" />
<path d="M760.34,213.16A5,5 0 1 1 750.34,213.16A5,5 0 1 1 760.34,213.16Z" style="fill:#5B1616" />
<path d="M762.17,214.17A5,5 0 1 1 752.17,214.17A5,5 0 1 1 762.17,214.17Z" style="fill:#5B1616" />
<path d="M763.99,213.56A5,5 0 1 1 753.99,213.56A5,5 0 1 1 763.99,213.56Z" style="fill:#5B1616" />
<path d="M765.82,213.06A5,5 0 1 1 755.82,213.06A5,5 0 1 1 765.82,213.06Z" style="fill:#5B1616" />
<path d="M767.65,214.45A5,5 0 1 1 757.65,214.45A5,5 0 1 1 767.65,214.45Z" style="fill:#5B1616" />
<path d="M769.47,214.58A5,5 0 1 1 759.47,214.58A5,5 0 1 1 769.47,214.58Z" style="fill:#5B1616" />
<path d="M771.3,215.4A5,5 0 1 1 761.3,215.4A5,5 0 1 1 771.3,215.4Z" style="fill:#5B1616" />
<path d="M773.13,213.19A5,5 0 1 1 763.13,213.19A5,5 0 1 1 773.13,213.19Z" style="fill:#5B1616" />
<path d="M774.95,214.67A5,5 0 1 1 764.95,214.67A5,5 0 1 1 774.95,214.67Z" style="fill:#5B1616" />
<path d="M776.78,214.56A5,5 0 1 1 766.78,214.56A5,5 0 1 1 776.78,214.56Z" style="fill:#5B1616" />
<path d="M778.61,216.85A5,5 0 1 1 768.61,216.85A5,5 0 1 1 778.61,216.85Z" style="fill:#5B1616" />
<path d="M780.43,213.06A5,5 0 1 1 770.43,213.06A5,5 0 1 1 780.43,213.06Z" style="fill:#5B1616" />
<path d="M782.26,213.2A5,5 0 1 1 772.26,213.2A5,5 0 1 1 782.26,213.2Z" style="fill:#5B1616" />
<path d="M784.09,213.67A5,5 0 1 1 774.09,213.67A5,5 0 1 1 784.09,213.67Z" style="fill:#5B1616" />
<path d="M785.91,211.84A5,5 0 1 1 775.91,211.84A5,5 0 1 1 785.91,211.84Z" style="fill:#5B1616" />
<path d="M787.74,214.26A5,5 0 1 1 777.74,214.26A5,5 0 1 1 787.74,214.26Z" style="fill:#5B1616" />
<path d="M789.57,217.08A5,5 0 1 1 779.57,217.08A5,5 0 1 1 789.57,217.08Z" style="fill:#5B1616" />
<path d="M791.39,213.84A5,5 0 1 1 781.39,213.84A5,5 0 1 1 791.39,213.84Z" style="fill:#5B1616" />
<path d="M793.22,213.57A5,5 0 1 1 783.22,213.57A5,5 0 1 1 793.22,213.57Z" style="fill:#5B1616" />
<path d="M795.05,214.22A5,5 0 1 1 785.05,214.22A5,5 0 1 1 795.05,214.22Z" style="fill:#5B1616" />
<path d="M796.87,212.65A5,5 0 1 1 786.87,212.65A5,5 0 1 1 796.87,212.65Z" style="fill:#5B1616" />
<path d="M798.7,212.74A5,5 0 1 1 788.7,212.74A5,5 0 1 1 798.7,212.74Z" style="fill:#5B1616" />
<path d="M800.53,216.85A5,5 0 1 1 790.53,216.85A5,5 0 1 1 800.53,216.85Z" style="fill:#5B1616" />
<path d="M802.35,213.42A5,5 0 1 1 792.35,213.42A5,5 0 1 1 802.35,213.42Z" style="fill:#5B1616" />
<path d="M804.18,212.16A5,5 0 1 1 794.18,212.16A5,5 0 1 1 804.18,212.16Z" style="fill:#5B1616" />
<path d="M806.01,214.85A5,5 0 1 1 796.01,214.85A5,5 0 1 1 806.01,214.85Z" style="fill:#5B1616" />
<path d="M807.83,214.14A5,5 0 1 1 797.83,214.14A5,5 0 1 1 807.83,214.14Z" style="fill:#5B1616" />
<path d="M809.66,213.12A5,5 0 1 1 799.66,213.12A5,5 0 1 1 809.66,213.12Z" style="fill:#5B1616" />
<path d="M811.49,213.07A5,5 0 1 1 801.49,213.07A5,5 0 1 1 811.49,213.07Z" style="fill:#5B1616" />
<path d="M813.31,215.51A5,5 0 1 1 803.31,215.51A5,5 0 1 1 813.31,215.51Z" style="fill:#5B1616" />
<path d="M815.14,212.41A5,5 0 1 1 805.14,212.41A5,5 0 1 1 815.14,212.41Z" style="fill:#5B1616" />
<path d="M816.97,212.19A5,5 0 1 1 806.97,212.19A5,5 0 1 1 816.97,212.19Z" style="fill:#5B1616" />
<path d="M818.79,212.71A5,5 0 1 1 808.79,212.71A5,5 0 1 1 818.79,212.71Z" style="fill:#5B1616" />
<path d="M820.62,214.33A5,5 0 1 1 810.62,214.33A5,5 0 1 1 820.62,214.33Z" style="fill:#5B1616" />
<path d="M822.45,214.07A5,5 0 1 1 812.45,214.07A5,5 0 1 1 822.45,214.07Z" style="fill:#5B1616" />
<path d="M824.27,214.08A5,5 0 1 1 814.27,214.08A5,5 0 1 1 824.27,214.08Z" style="fill:#5B1616" />
<path d="M826.1,212.4A5,5 0 1 1 816.1,212.4A5,5 0 1 1 826.1,212.4Z" style="fill:#5B1616" />
<path d="M827.93,213.99A5,5 0 1 1 817.93,213.99A5,5 0 1 1 827.93,213.99Z" style="fill:#5B1616" />
<path d="M829.75,211.08A5,5 0 1 1 819.75,211.08A5,5 0 1 1 829.75,211.08Z" style="fill:#5B1616" />
<path d="M831.58,216.19A5,5 0 1 1 821.58,216.19A5,5 0 1 1 831.58,216.19Z" style="fill:#5B1616" />
<path d="M833.41,215.31A5,5 0 1 1 823.41,215.31A5,5 0 1 1 833.41,215.31Z" style="fill:#5B1616" />
<path d="M835.23,214.58A5,5 0 1 1 825.23,214.58A5,5 0 1 1 835.23,214.58Z" style="fill:#5B1616" />
<path d="M837.06,216.15A5,5 0 1 1 827.06,216.15A5,5 0 1 1 837.06,216.15Z" style="fill:#5B1616" />
<path d="M838.89,215.8A5,5 0 1 1 828.89,215.8A5,5 0 1 1 838.89,215.8Z" style="fill:#5B1616" />
<path d="M840.71,214.86A5,5 0 1 1 830.71,214.86A5,5 0 1 1 840.71,214.86Z" style="fill:#5B1616" />
<path d="M842.54,215.64A5,5 0 1 1 832.54,215.64A5,5 0 1 1 842.54,215.64Z" style="fill:#5B1616" />
<path d="M844.37,216.08A5,5 0 1 1 834.37,216.08A5,5 0 1 1 844.37,216.08Z" style="fill:#5B1616" />
<path d="M846.19,213.66A5,5 0 1 1 836.19,213.66A5,5 0 1 1 846.19,213.66Z" style="fill:#5B1616" />
<path d="M848.02,214.8A5,5 0 1 1 838.02,214.8A5,5 0 1 1 848.02,214.8Z" style="fill:#5B1616" />
<path d="M849.85,214.61A5,5 0 1 1 839.85,214.61A5,5 0 1 1 849.85,214.61Z" style="fill:#5B1616" />
<path d="M851.67,213.62A5,5 0 1 1 841.67,213.62A5,5 0 1 1 851.67,213.62Z" style="fill:#5B1616" />
<path d="M853.5,213.32A5,5 0 1 1 843.5,213.32A5,5 0 1 1 853.5,213.32Z" style="fill:#5B1616" />
<path d="M855.33,214.55A5,5 0 1 1 845.33,214.55A5,5 0 1 1 855.33,214.55Z" style="fill:#5B1616" />
<path d="M857.15,213.91A5,5 0 1 1 847.15,213.91A5,5 0 1 1 857.15,213.91Z" style="fill:#5B1616" />
<path d="M858.98,212.31A5,5 0 1 1 848.98,212.31A5,5 0 1 1 858.98,212.31Z" style="fill:#5B1616" />
<path d="M860.81,213.07A5,5 0 1 1 850.81,213.07A5,5 0 1 1 860.81,213.07Z" style="fill:#5B1616" />
<path d="M862.63,215.55A5,5 0 1 1 852.63,215.55A5,5 0 1 1 862.63,215.55Z" style="fill:#5B1616" />
<path d="M864.46,214.58A5,5 0 1 1 854.46,214.58A5,5 0 1 1 864.46,214.58Z" style="fill:#5B1616" />
<path d="M866.29,217.19A5,5 0 1 1 856.29,217.19A5,5 0 1 1 866.29,217.19Z" style="fill:#5B1616" />
<path d="M868.11,213.4A5,5 0 1 1 858.11,213.4A5,5 0 1 1 868.11,213.4Z" style="fill:#5B1616" />
<path d="M869.94,214.31A5,5 0 1 1 859.94,214.31A5,5 0 1 1 869.94,214.31Z" style="fill:#5B1616" />
<path d="M871.76,212.88A5,5 0 1 1 861.76,212.88A5,5 0 1 1 871.76,212.88Z" style="fill:#5B1616" />
<path d="M873.59,213.56A5,5 0 1 1 863.59,213.56A5,5 0 1 1 873.59,213.56Z" style="fill:#5B1616" />
<path d="M875.42,215.04A5,5 0 1 1 865.42,215.04A5,5 0 1 1 875.42,215.04Z" style="fill:#5B1616" />
<path d="M877.24,215.71A5,5 0 1 1 867.24,215.71A5,5 0 1 1 877.24,215.71Z" style="fill:#5B1616" />
<path d="M879.07,214.68A5,5 0 1 1 869.07,214.68A5,5 0 1 1 879.07,214.68Z" style="fill:#5B1616" />
<path d="M880.9,215.38A5,5 0 1 1 870.9,215.38A5,5 0 1 1 880.9,215.38Z" style="fill:#5B1616" />
<path d="M882.72,214.11A5,5 0 1 1 872.72,214.11A5,5 0 1 1 882.72,214.11Z" style="fill:#5B1616" />
<path d="M884.55,214.16A5,5 0 1 1 874.55,214.16A5,5 0 1 1 884.55,214.16Z" style="fill:#5B1616" />
<path d="M886.38,214.09A5,5 0 1 1 876.38,214.09A5,5 0 1 1 886.38,214.09Z" style="fill:#5B1616" />
<path d="M888.2,216.64A5,5 0 1 1 878.2,216.64A5,5 0 1 1 888.2,216.64Z" style="fill:#5B1616" />
<path d="M890.03,215.69A5,5 0 1 1 880.03,215.69A5,5 0 1 1 890.03,215.69Z" style="fill:#5B1616" />
<path d="M891.86,215.28A5,5 0 1 1 881.86,215.28A5,5 0 1 1 891.86,215.28Z" style="fill:#5B1616" />
<path d="M893.68,214.78A5,5 0 1 1 883.68,214.78A5,5 0 1 1 893.68,214.78Z" style="fill:#5B1616" />
<path d="M895.51,214.49A5,5 0 1 1 885.51,214.49A5,5 0 1 1 895.51,214.49Z" style="fill:#5B1616" />
<path d="M897.34,214.57A5,5 0 1 1 887.34,214.57A5,5 0 1 1 897.34,214.57Z" style="fill:#5B1616" />
<path d="M899.16,216.6A5,5 0 1 1 889.16,216.6A5,5 0 1 1 899.16,216.6Z" style="fill:#5B1616" />
<path d="M900.99,214.24A5,5 0 1 1 890.99,214.24A5,5 0 1 1 900.99,214.24Z" style="fill:#5B1616" />
<path d="M902.82,213.97A5,5 0 1 1 892.82,213.97A5,5 0 1 1 902.82,213.97Z" style="fill:#5B1616" />
<path d="M904.64,213.39A5,5 0 1 1 894.64,213.39A5,5 0 1 1 904.64,213.39Z" style="fill:#5B1616" />
<path d="M906.47,216A5,5 0 1 1 896.47,216A5,5 0 1 1 906.47,216Z" style="fill:#5B1616" />
<path d="M908.3,214.1A5,5 0 1 1 898.3,214.1A5,5 0 1 1 908.3,214.1Z" style="fill:#5B1616" />
<path d="M910.12,214.83A5,5 0 1 1 900.12,214.83A5,5 0 1 1 910.12,214.83Z" style="fill:#5B1616" />
<path d="M911.95,216.92A5,5 0 1 1 901.95,216.92A5,5 0 1 1 911.95,216.92Z" style="fill:#5B1616" />
<path d="M913.78,215.98A5,5 0 1 1 903.78,215.98A5,5 0 1 1 913.78,215.98Z" style="fill:#5B1616" />
<path d="M915.6,213.43A5,5 0 1 1 905.6,213.43A5,5 0 1 1 915.6,213.43Z" style="fill:#5B1616" />
<path d="M917.43,214.13A5,5 0 1 1 907.43,214.13A5,5 0 1 1 917.43,214.13Z" style="fill:#5B1616" />
<path d="M919.26,215.6A5,5 0 1 1 909.26,215.6A5,5 0 1 1 919.26,215.6Z" style="fill:#5B1616" />
<path d="M921.08,214.29A5,5 0 1 1 911.08,214.29A5,5 0 1 1 921.08,214.29Z" style="fill:#5B1616" />
<path d="M922.91,213.1A5,5 0 1 1 912.91,213.1A5,5 0 1 1 922.91,213.1Z" style="fill:#5B1616" />
<path d="M924.74,213.99A5,5 0 1 1 914.74,213.99A5,5 0 1 1 924.74,213.99Z" style="fill:#5B1616" />
<path d="M926.56,214.13A5,5 0 1 1 916.56,214.13A5,5 0 1 1 926.56,214.13Z" style="fill:#5B1616" />
<path d="M928.39,213.14A5,5 0 1 1 918.39,213.14A5,5 0 1 1 928.39,213.14Z" style="fill:#5B1616" />
<path d="M930.22,215.47A5,5 0 1 1 920.22,215.47A5,5 0 1 1 930.22,215.47Z" style="fill:#5B1616" />
<path d="M932.04,215.03A5,5 0 1 1 922.04,215.03A5,5 0 1 1 932.04,215.03Z" style="fill:#5B1616" />
<path d="M933.87,216.37A5,5 0 1 1 923.87,216.37A5,5 0 1 1 933.87,216.37Z" style="fill:#5B1616" />
<path d="M935.7,214.49A5,5 0 1 1 925.7,214.49A5,5 0 1 1 935.7,214.49Z" style="fill:#5B1616" />
<path d="M937.52,213.6A5,5 0 1 1 927.52,213.6A5,5 0 1 1 937.52,213.6Z" style="fill:#5B1616" />
<path d="M939.35,215.51A5,5 0 1 1 929.35,215.51A5,5 0 1 1 939.35,215.51Z" style="fill:#5B1616" />
<path d="M941.18,214.08A5,5 0 1 1 931.18,214.08A5,5 0 1 1 941.18,214.08Z" style="fill:#5B1616" />
<path d="M943,215.78A5,5 0 1 1 933,215.78A5,5 0 1 1 943,215.78Z" style="fill:#5B1616" />
<path d="M944.83,215.66A5,5 0 1 1 934.83,215.66A5,5 0 1 1 944.83,215.66Z" style="fill:#5B1616" />
<path d="M946.66,211.67A5,5 0 1 1 936.66,211.67A5,5 0 1 1 946.66,211.67Z" style="fill:#5B1616" />
<path d="M948.48,214.64A5,5 0 1 1 938.48,214.64A5,5 0 1 1 948.48,214.64Z" style="fill:#5B1616" />
<path d="M950.31,214.12A5,5 0 1 1 940.31,214.12A5,5 0 1 1 950.31,214.12Z" style="fill:#5B1616" />
<path d="M952.14,214.3A5,5 0 1 1 942.14,214.3A5,5 0 1 1 952.14,214.3Z" style="fill:#5B1616" />
<path d="M953.96,213.45A5,5 0 1 1 943.96,213.45A5,5 0 1 1 953.96,213.45Z" style="fill:#5B1616" />
<path d="M955.79,213.33A5,5 0 1 1 945.79,213.33A5,5 0 1 1 955.79,213.33Z" style="fill:#5B1616" />
<path d="M957.62,215.37A5,5 0 1 1 947.62,215.37A5,5 0 1 1 957.62,215.37Z" style="fill:#5B1616" />
<path d="M959.44,216.3A5,5 0 1 1 949.44,216.3A5,5 0 1 1 959.44,216.3Z" style="fill:#5B1616" />
<path d="M961.27,214.48A5,5 0 1 1 951.27,214.48A5,5 0 1 1 961.27,214.48Z" style="fill:#5B1616" />
<path d="M963.1,216.08A5,5 0 1 1 953.1,216.08A5,5 0 1 1 963.1,216.08Z" style="fill:#5B1616" />
<path d="M964.92,214.75A5,5 0 1 1 954.92,214.75A5,5 0 1 1 964.92,214.75Z" style="fill:#5B1616" />
<path d="M966.75,214.78A5,5 0 1 1 956.75,214.78A5,5 0 1 1 966.75,214.78Z" style="fill:#5B1616" />
<path d="M968.58,216.46A5,5 0 1 1 958.58,216.46A5,5 0 1 1 968.58,216.46Z" style="fill:#5B1616" />
<path d="M970.4,215.2A5,5 0 1 1 960.4,215.2A5,5 0 1 1 970.4,215.2Z" style="fill:#5B1616" />
<path d="M972.23,214.01A5,5 0 1 1 962.23,214.01A5,5 0 1 1 972.23,214.01Z" style="fill:#5B1616" />
<path d="M974.06,215.83A5,5 0 1 1 964.06,215.83A5,5 0 1 1 974.06,215.83Z" style="fill:#5B1616" />
<path d="M975.88,214.81A5,5 0 1 1 965.88,214.81A5,5 0 1 1 975.88,214.81Z" style="fill:#5B1616" />
<path d="M977.71,215.71A5,5 0 1 1 967.71,215.71A5,5 0 1 1 977.71,215.71Z" style="fill:#5B1616" />
<path d="M979.54,214.46A5,5 0 1 1 969.54,214.46A5,5 0 1 1 979.54,214.46Z" style="fill:#5B1616" />
<path d="M981.36,214.93A5,5 0 1 1 971.36,214.93A5,5 0 1 1 981.36,214.93Z" style="fill:#5B1616" />
<path d="M983.19,215.4A5,5 0 1 1 973.19,215.4A5,5 0 1 1 983.19,215.4Z" style="fill:#5B1616" />
<path d="M985.02,216.41A5,5 0 1 1 975.02,216.41A5,5 0 1 1 985.02,216.41Z" style="fill:#5B1616" />
<path d="M986.84,215.91A5,5 0 1 1 976.84,215.91A5,5 0 1 1 986.84,215.91Z" style="fill:#5B1616" />
<path d="M988.67,216.96A5,5 0 1 1 978.67,216.96A5,5 0 1 1 988.67,216.96Z" style="fill:#5B1616" />
<path d="M990.5,215.53A5,5 0 1 1 980.5,215.53A5,5 0 1 1 990.5,215.53Z" style="fill:#5B1616" />
<path d="M992.32,215.35A5,5 0 1 1 982.32,215.35A5,5 0 1 1 992.32,215.35Z" style="fill:#5B1616" />
<path d="M994.15,215.17A5,5 0 1 1 984.15,215.17A5,5 0 1 1 994.15,215.17Z" style="fill:#5B1616" />
<path d="M995.98,212.35A5,5 0 1 1 985.98,212.35A5,5 0 1 1 995.98,212.35Z" style="fill:#5B1616" />
<path d="M997.8,215.02A5,5 0 1 1 987.8,215.02A5,5 0 1 1 997.8,215.02Z" style="fill:#5B1616" />
<path d="M999.63,216.91A5,5 0 1 1 989.63,216.91A5,5 0 1 1 999.63,216.91Z" style="fill:#5B1616" />
<path d="M1001.5,216.43A5,5 0 1 1 991.46,216.43A5,5 0 1 1 1001.5,216.43Z" style="fill:#5B1616" />
<path d="M1003.3,217.11A5,5 0 1 1 993.28,217.11A5,5 0 1 1 1003.3,217.11Z" style="fill:#5B1616" />
<path d="M1005.1,214.65A5,5 0 1 1 995.11,214.65A5,5 0 1 1 1005.1,214.65Z" style="fill:#5B1616" />
<path d="M1006.9,215.9A5,5 0 1 1 996.94,215.9A5,5 0 1 1 1006.9,215.9Z" style="fill:#5B1616" />
<path d="M1008.8,215.76A5,5 0 1 1 998.76,215.76A5,5 0 1 1 1008.8,215.76Z" style="fill:#5B1616" />
<path d="M1010.6,215.43A5,5 0 1 1 1000.6,215.43A5,5 0 1 1 1010.6,215.43Z" style="fill:#5B1616" />
<path d="M1012.4,215.31A5,5 0 1 1 1002.4,215.31A5,5 0 1 1 1012.4,215.31Z" style="fill:#5B1616" />
<path d="M1014.2,215.55A5,5 0 1 1 1004.2,215.55A5,5 0 1 1 1014.2,215.55Z" style="fill:#5B1616" />
<path d="M1016.1,215.08A5,5 0 1 1 1006.1,215.08A5,5 0 1 1 1016.1,215.08Z" style="fill:#5B1616" />
<path d="M1017.9,216.4A5,5 0 1 1 1007.9,216.4A5,5 0 1 1 1017.9,216.4Z" style="fill:#5B1616" />
<path d="M1019.7,214.72A5,5 0 1 1 1009.7,214.72A5,5 0 1 1 1019.7,214.72Z" style="fill:#5B1616" />
<path d="M1021.5,215.32A5,5 0 1 1 1011.5,215.32A5,5 0 1 1 1021.5,215.32Z" style="fill:#5B1616" />
<path d="M1023.4,214.48A5,5 0 1 1 1013.4,214.48A5,5 0 1 1 1023.4,214.48Z" style="fill:#5B1616" />
<path d="M1025.2,213.74A5,5 0 1 1 1015.2,213.74A5,5 0 1 1 1025.2,213.74Z" style="fill:#5B1616" />
<path d="M1027,217.29A5,5 0 1 1 1017,217.29A5,5 0 1 1 1027,217.29Z" style="fill:#5B1616" />
<path d="M1028.9,215.82A5,5 0 1 1 1018.9,215.82A5,5 0 1 1 1028.9,215.82Z" style="fill:#5B1616" />
<path d="M1030.7,216.63A5,5 0 1 1 1020.7,216.63A5,5 0 1 1 1030.7,216.63Z" style="fill:#5B1616" />
<path d="M1032.5,215.57A5,5 0 1 1 1022.5,215.57A5,5 0 1 1 1032.5,215.57Z" style="fill:#5B1616" />
<path d="M1034.3,215.37A5,5 0 1 1 1024.3,215.37A5,5 0 1 1 1034.3,215.37Z" style="fill:#5B1616" />
<path d="M1036.2,215.62A5,5 0 1 1 1026.2,215.62A5,5 0 1 1 1036.2,215.62Z" style="fill:#5B1616" />
<path d="M1038,216.98A5,5 0 1 1 1028,216.98A5,5 0 1 1 1038,216.98Z" style="fill:#5B1616" />
<path d="M1039.8,215.91A5,5 0 1 1 1029.8,215.91A5,5 0 1 1 1039.8,215.91Z" style="fill:#5B1616" />
<path d="M1041.6,216.42A5,5 0 1 1 1031.6,216.42A5,5 0 1 1 1041.6,216.42Z" style="fill:#5B1616" />
<path d="M1043.5,215.39A5,5 0 1 1 1033.5,215.39A5,5 0 1 1 1043.5,215.39Z" style="fill:#5B1616" />
<path d="M1045.3,216.73A5,5 0 1 1 1035.3,216.73A5,5 0 1 1 1045.3,216.73Z" style="fill:#5B1616" />
<path d="M1047.1,216.26A5,5 0 1 1 1037.1,216.26A5,5 0 1 1 1047.1,216.26Z" style="fill:#5B1616" />
<path d="M1048.9,216.51A5,5 0 1 1 1038.9,216.51A5,5 0 1 1 1048.9,216.51Z" style="fill:#5B1616" />
<path d="M1050.8,215.43A5,5 0 1 1 1040.8,215.43A5,5 0 1 1 1050.8,215.43Z" style="fill:#5B1616" />
<path d="M1052.6,216.39A5,5 0 1 1 1042.6,216.39A5,5 0 1 1 1052.6,216.39Z" style="fill:#5B1616" />
<path d="M1054.4,216.13A5,5 0 1 1 1044.4,216.13A5,5 0 1 1 1054.4,216.13Z" style="fill:#5B1616" />
<path d="M1056.3,216.79A5,5 0 1 1 1046.3,216.79A5,5 0 1 1 1056.3,216.79Z" style="fill:#5B1616" />
<path d="M1058.1,215.81A5,5 0 1 1 1048.1,215.81A5,5 0 1 1 1058.1,215.81Z" style="fill:#5B1616" />
<path d="M1059.9,215.19A5,5 0 1 1 1049.9,215.19A5,5 0 1 1 1059.9,215.19Z" style="fill:#5B1616" />
<path d="M1061.7,214.39A5,5 0 1 1 1051.7,214.39A5,5 0 1 1 1061.7,214.39Z" style="fill:#5B1616" />
<path d="M1063.6,216.34A5,5 0 1 1 1053.6,216.34A5,5 0 1 1 1063.6,216.34Z" style="fill:#5B1616" />
<path d="M1065.4,215.73A5,5 0 1 1 1055.4,215.73A5,5 0 1 1 1065.4,215.73Z" style="fill:#5B1616" />
<path d="M1067.2,217.54A5,5 0 1 1 1057.2,217.54A5,5 0 1 1 1067.2,217.54Z" style="fill:#5B1616" />
<path d="M1069,216.23A5,5 0 1 1 1059,216.23A5,5 0 1 1 1069,216.23Z" style="fill:#5B1616" />
<path d="M1070.9,215.48A5,5 0 1 1 1060.9,215.48A5,5 0 1 1 1070.9,215.48Z" style="fill:#5B1616" />
<path d="M1072.7,216.16A5,5 0 1 1 1062.7,216.16A5,5 0 1 1 1072.7,216.16Z" style="fill:#5B1616" />
<path d="M1074.5,216.8A5,5 0 1 1 1064.5,216.8A5,5 0 1 1 1074.5,216.8Z" style="fill:#5B1616" />
<path d="M1076.3,214.65A5,5 0 1 1 1066.3,214.65A5,5 0 1 1 1076.3,214.65Z" style="fill:#5B1616" />
<path d="M1078.2,215.59A5,5 0 1 1 1068.2,215.59A5,5 0 1 1 1078.2,215.59Z" style="fill:#5B1616" />
<path d="M1080,214.48A5,5 0 1 1 1070,214.48A5,5 0 1 1 1080,214.48Z" style="fill:#5B1616" />
<path d="M1038,852.33A8,8 0 1 1 1022,852.33A8,8 0 1 1 1038,852.33Z" style="fill:#BC75FF" />
<text x="706.24" y="-839.14" transform="scale(1, -1)"
	style="font-family:Helvetica;font-weight:normal;font-style:normal;font-size:56px">3 GHz CS2</text>
<path d="M1038,793.47A8,8 0 1 1 1022,793.47A8,8 0 1 1 1038,793.47Z" style="fill:#5B1616" />
<text x="706.24" y="-780.27" transform="scale(1, -1)"
	style="font-family:Helvetica;font-weight:normal;font-style:normal;font-size:56px">6 GHz CS2</text>
</g>
</svg>
