<?xml version="1.0"?>
<!-- Generated by SVGo and Plotinum VG -->
<svg width="1080pt" height="1080pt" viewBox="0 0 1080 1080"
	xmlns="http://www.w3.org/2000/svg"
	xmlns:xlink="http://www.w3.org/1999/xlink">
<g transform="scale(1, -1) translate(0, -1080)">
<path d="M0,0L1080,0L1080,1080L0,1080Z" style="fill:#-8000000000000000-8000000000000000-8000000000000000;fill-opacity:0" />
<text x="280.17" y="-1039.5" transform="scale(1, -1)"
	style="font-family:Helvetica;font-weight:normal;font-style:normal;font-size:50px">Height Ratios vs Power</text>
<text x="426.03" y="-11.039" transform="scale(1, -1)"
	style="font-family:Helvetica;font-weight:normal;font-style:normal;font-size:36px">Pump Power (mW)</text>
<text x="322.06" y="-71.258" transform="scale(1, -1)"
	style="font-family:Helvetica;font-weight:normal;font-style:normal;font-size:36px">50</text>
<text x="548.01" y="-71.258" transform="scale(1, -1)"
	style="font-family:Helvetica;font-weight:normal;font-style:normal;font-size:36px">100</text>
<text x="783.97" y="-71.258" transform="scale(1, -1)"
	style="font-family:Helvetica;font-weight:normal;font-style:normal;font-size:36px">150</text>
<text x="1019.9" y="-71.258" transform="scale(1, -1)"
	style="font-family:Helvetica;font-weight:normal;font-style:normal;font-size:36px">200</text>
<path d="M106.12,112.44L106.12,108.44" style="fill:none;stroke:#000000;stroke-width:1.5" />
<path d="M224.1,112.44L224.1,108.44" style="fill:none;stroke:#000000;stroke-width:1.5" />
<path d="M342.08,116.44L342.08,108.44" style="fill:none;stroke:#000000;stroke-width:1.5" />
<path d="M460.06,112.44L460.06,108.44" style="fill:none;stroke:#000000;stroke-width:1.5" />
<path d="M578.04,116.44L578.04,108.44" style="fill:none;stroke:#000000;stroke-width:1.5" />
<path d="M696.03,112.44L696.03,108.44" style="fill:none;stroke:#000000;stroke-width:1.5" />
<path d="M814.01,116.44L814.01,108.44" style="fill:none;stroke:#000000;stroke-width:1.5" />
<path d="M931.99,112.44L931.99,108.44" style="fill:none;stroke:#000000;stroke-width:1.5" />
<path d="M1050,116.44L1050,108.44" style="fill:none;stroke:#000000;stroke-width:1.5" />
<path d="M106.12,108.44L1050,108.44" style="fill:none;stroke:#000000;stroke-width:1.5" />
<g transform="rotate(90)">
<text x="320.13" y="29.18" transform="scale(1, -1)"
	style="font-family:Helvetica;font-weight:normal;font-style:normal;font-size:36px">Stokes/Anti-Stokes Heights</text>
</g>
<text x="67.848" y="-99.246" transform="scale(1, -1)"
	style="font-family:Helvetica;font-weight:normal;font-style:normal;font-size:36px">1</text>
<text x="67.848" y="-439.51" transform="scale(1, -1)"
	style="font-family:Helvetica;font-weight:normal;font-style:normal;font-size:36px">2</text>
<text x="67.848" y="-779.77" transform="scale(1, -1)"
	style="font-family:Helvetica;font-weight:normal;font-style:normal;font-size:36px">3</text>
<path d="M113.87,108.32L105.87,108.32" style="fill:none;stroke:#000000;stroke-width:1.5" />
<path d="M109.87,278.45L105.87,278.45" style="fill:none;stroke:#000000;stroke-width:1.5" />
<path d="M113.87,448.58L105.87,448.58" style="fill:none;stroke:#000000;stroke-width:1.5" />
<path d="M109.87,618.71L105.87,618.71" style="fill:none;stroke:#000000;stroke-width:1.5" />
<path d="M113.87,788.84L105.87,788.84" style="fill:none;stroke:#000000;stroke-width:1.5" />
<path d="M109.87,958.97L105.87,958.97" style="fill:none;stroke:#000000;stroke-width:1.5" />
<path d="M105.87,108.32L105.87,968.14" style="fill:none;stroke:#000000;stroke-width:1.5" />
<path d="M998.06,887.76L946.14,846.81L889.51,802.13L832.88,757.45L780.97,716.49L738.5,682.98L686.59,642.02L606.36,578.72L549.73,534.04L502.54,496.81L450.63,455.85L393.99,411.17L309.05,344.15L257.14,303.19L219.38,273.4L172.19,236.17" style="fill:none;stroke:#7F7F7F;stroke-width:3" />
<path d="M1004.1,968.14A6,6 0 1 1 992.06,968.14A6,6 0 1 1 1004.1,968.14Z" style="fill:#1BAA8B" />
<path d="M952.14,849.22A6,6 0 1 1 940.14,849.22A6,6 0 1 1 952.14,849.22Z" style="fill:#1BAA8B" />
<path d="M895.51,752.84A6,6 0 1 1 883.51,752.84A6,6 0 1 1 895.51,752.84Z" style="fill:#1BAA8B" />
<path d="M838.88,741.97A6,6 0 1 1 826.88,741.97A6,6 0 1 1 838.88,741.97Z" style="fill:#1BAA8B" />
<path d="M786.97,734.95A6,6 0 1 1 774.97,734.95A6,6 0 1 1 786.97,734.95Z" style="fill:#1BAA8B" />
<path d="M744.5,684.55A6,6 0 1 1 732.5,684.55A6,6 0 1 1 744.5,684.55Z" style="fill:#1BAA8B" />
<path d="M692.59,628.8A6,6 0 1 1 680.59,628.8A6,6 0 1 1 692.59,628.8Z" style="fill:#1BAA8B" />
<path d="M612.36,547.7A6,6 0 1 1 600.36,547.7A6,6 0 1 1 612.36,547.7Z" style="fill:#1BAA8B" />
<path d="M555.73,503.65A6,6 0 1 1 543.73,503.65A6,6 0 1 1 555.73,503.65Z" style="fill:#1BAA8B" />
<path d="M508.54,462.42A6,6 0 1 1 496.54,462.42A6,6 0 1 1 508.54,462.42Z" style="fill:#1BAA8B" />
<path d="M456.63,455.34A6,6 0 1 1 444.63,455.34A6,6 0 1 1 456.63,455.34Z" style="fill:#1BAA8B" />
<path d="M399.99,403.03A6,6 0 1 1 387.99,403.03A6,6 0 1 1 399.99,403.03Z" style="fill:#1BAA8B" />
<path d="M315.05,403.25A6,6 0 1 1 303.05,403.25A6,6 0 1 1 315.05,403.25Z" style="fill:#1BAA8B" />
<path d="M263.14,320.2A6,6 0 1 1 251.14,320.2A6,6 0 1 1 263.14,320.2Z" style="fill:#1BAA8B" />
<path d="M225.38,288.45A6,6 0 1 1 213.38,288.45A6,6 0 1 1 225.38,288.45Z" style="fill:#1BAA8B" />
<path d="M178.19,224.61A6,6 0 1 1 166.19,224.61A6,6 0 1 1 178.19,224.61Z" style="fill:#1BAA8B" />
</g>
</svg>
