<?xml version="1.0"?>
<!-- Generated by SVGo and Plotinum VG -->
<svg width="1080pt" height="1080pt" viewBox="0 0 1080 1080"
	xmlns="http://www.w3.org/2000/svg"
	xmlns:xlink="http://www.w3.org/1999/xlink">
<g transform="scale(1, -1) translate(0, -1080)">
<path d="M0,0L1080,0L1080,1080L0,1080Z" style="fill:#-8000000000000000-8000000000000000-8000000000000000;fill-opacity:0" />
<text x="346.9" y="-1039.5" transform="scale(1, -1)"
	style="font-family:Helvetica;font-weight:normal;font-style:normal;font-size:50px">1 mm CS2 CABS</text>
<text x="497.32" y="-11.039" transform="scale(1, -1)"
	style="font-family:Helvetica;font-weight:normal;font-style:normal;font-size:36px">Frequency (GHz)</text>
<text x="242.18" y="-71.258" transform="scale(1, -1)"
	style="font-family:Helvetica;font-weight:normal;font-style:normal;font-size:36px">2.35</text>
<text x="423.31" y="-71.258" transform="scale(1, -1)"
	style="font-family:Helvetica;font-weight:normal;font-style:normal;font-size:36px">2.45</text>
<text x="604.44" y="-71.258" transform="scale(1, -1)"
	style="font-family:Helvetica;font-weight:normal;font-style:normal;font-size:36px">2.55</text>
<text x="785.57" y="-71.258" transform="scale(1, -1)"
	style="font-family:Helvetica;font-weight:normal;font-style:normal;font-size:36px">2.65</text>
<text x="966.7" y="-71.258" transform="scale(1, -1)"
	style="font-family:Helvetica;font-weight:normal;font-style:normal;font-size:36px">2.75</text>
<path d="M277.21,116.44L277.21,108.44" style="fill:none;stroke:#000000;stroke-width:1.5" />
<path d="M367.78,112.44L367.78,108.44" style="fill:none;stroke:#000000;stroke-width:1.5" />
<path d="M458.34,116.44L458.34,108.44" style="fill:none;stroke:#000000;stroke-width:1.5" />
<path d="M548.91,112.44L548.91,108.44" style="fill:none;stroke:#000000;stroke-width:1.5" />
<path d="M639.47,116.44L639.47,108.44" style="fill:none;stroke:#000000;stroke-width:1.5" />
<path d="M730.04,112.44L730.04,108.44" style="fill:none;stroke:#000000;stroke-width:1.5" />
<path d="M820.61,116.44L820.61,108.44" style="fill:none;stroke:#000000;stroke-width:1.5" />
<path d="M911.17,112.44L911.17,108.44" style="fill:none;stroke:#000000;stroke-width:1.5" />
<path d="M1001.7,116.44L1001.7,108.44" style="fill:none;stroke:#000000;stroke-width:1.5" />
<path d="M195.71,108.44L1075,108.44" style="fill:none;stroke:#000000;stroke-width:1.5" />
<g transform="rotate(90)">
<text x="371.67" y="29.18" transform="scale(1, -1)"
	style="font-family:Helvetica;font-weight:normal;font-style:normal;font-size:36px">Spectral Density (nV)</text>
</g>
<text x="75.881" y="-243.3" transform="scale(1, -1)"
	style="font-family:Helvetica;font-weight:normal;font-style:normal;font-size:36px">-51.71</text>
<text x="87.869" y="-449.52" transform="scale(1, -1)"
	style="font-family:Helvetica;font-weight:normal;font-style:normal;font-size:36px">62.62</text>
<text x="67.848" y="-655.74" transform="scale(1, -1)"
	style="font-family:Helvetica;font-weight:normal;font-style:normal;font-size:36px">176.95</text>
<text x="67.848" y="-861.96" transform="scale(1, -1)"
	style="font-family:Helvetica;font-weight:normal;font-style:normal;font-size:36px">291.29</text>
<path d="M199.96,149.25L195.96,149.25" style="fill:none;stroke:#000000;stroke-width:1.5" />
<path d="M203.96,252.37L195.96,252.37" style="fill:none;stroke:#000000;stroke-width:1.5" />
<path d="M199.96,355.48L195.96,355.48" style="fill:none;stroke:#000000;stroke-width:1.5" />
<path d="M203.96,458.59L195.96,458.59" style="fill:none;stroke:#000000;stroke-width:1.5" />
<path d="M199.96,561.7L195.96,561.7" style="fill:none;stroke:#000000;stroke-width:1.5" />
<path d="M203.96,664.81L195.96,664.81" style="fill:none;stroke:#000000;stroke-width:1.5" />
<path d="M199.96,767.92L195.96,767.92" style="fill:none;stroke:#000000;stroke-width:1.5" />
<path d="M203.96,871.03L195.96,871.03" style="fill:none;stroke:#000000;stroke-width:1.5" />
<path d="M199.96,974.14L195.96,974.14" style="fill:none;stroke:#000000;stroke-width:1.5" />
<path d="M199.96,974.14L195.96,974.14" style="fill:none;stroke:#000000;stroke-width:1.5" />
<path d="M195.96,109.32L195.96,974.14" style="fill:none;stroke:#000000;stroke-width:1.5" />
<path d="M195.71,322.69L195.71,543.09" style="fill:none;stroke:#FF7AB4" />
<path d="M193.21,322.69L198.21,322.69" style="fill:none;stroke:#FF7AB4" />
<path d="M193.21,543.09L198.21,543.09" style="fill:none;stroke:#FF7AB4" />
<path d="M204.77,570.64L204.77,662.03" style="fill:none;stroke:#FF7AB4" />
<path d="M202.27,570.64L207.27,570.64" style="fill:none;stroke:#FF7AB4" />
<path d="M202.27,662.03L207.27,662.03" style="fill:none;stroke:#FF7AB4" />
<path d="M213.84,222.03L213.84,425.98" style="fill:none;stroke:#FF7AB4" />
<path d="M211.34,222.03L216.34,222.03" style="fill:none;stroke:#FF7AB4" />
<path d="M211.34,425.98L216.34,425.98" style="fill:none;stroke:#FF7AB4" />
<path d="M222.9,242.24L222.9,401.9" style="fill:none;stroke:#FF7AB4" />
<path d="M220.4,242.24L225.4,242.24" style="fill:none;stroke:#FF7AB4" />
<path d="M220.4,401.9L225.4,401.9" style="fill:none;stroke:#FF7AB4" />
<path d="M231.97,248.87L231.97,386.23" style="fill:none;stroke:#FF7AB4" />
<path d="M229.47,248.87L234.47,248.87" style="fill:none;stroke:#FF7AB4" />
<path d="M229.47,386.23L234.47,386.23" style="fill:none;stroke:#FF7AB4" />
<path d="M241.03,223.32L241.03,505.38" style="fill:none;stroke:#FF7AB4" />
<path d="M238.53,223.32L243.53,223.32" style="fill:none;stroke:#FF7AB4" />
<path d="M238.53,505.38L243.53,505.38" style="fill:none;stroke:#FF7AB4" />
<path d="M250.1,224.85L250.1,445.14" style="fill:none;stroke:#FF7AB4" />
<path d="M247.6,224.85L252.6,224.85" style="fill:none;stroke:#FF7AB4" />
<path d="M247.6,445.14L252.6,445.14" style="fill:none;stroke:#FF7AB4" />
<path d="M259.16,219.89L259.16,341.24" style="fill:none;stroke:#FF7AB4" />
<path d="M256.66,219.89L261.66,219.89" style="fill:none;stroke:#FF7AB4" />
<path d="M256.66,341.24L261.66,341.24" style="fill:none;stroke:#FF7AB4" />
<path d="M268.23,348.65L268.23,498.29" style="fill:none;stroke:#FF7AB4" />
<path d="M265.73,348.65L270.73,348.65" style="fill:none;stroke:#FF7AB4" />
<path d="M265.73,498.29L270.73,498.29" style="fill:none;stroke:#FF7AB4" />
<path d="M277.29,245.99L277.29,419.27" style="fill:none;stroke:#FF7AB4" />
<path d="M274.79,245.99L279.79,245.99" style="fill:none;stroke:#FF7AB4" />
<path d="M274.79,419.27L279.79,419.27" style="fill:none;stroke:#FF7AB4" />
<path d="M286.36,351.8L286.36,448.24" style="fill:none;stroke:#FF7AB4" />
<path d="M283.86,351.8L288.86,351.8" style="fill:none;stroke:#FF7AB4" />
<path d="M283.86,448.24L288.86,448.24" style="fill:none;stroke:#FF7AB4" />
<path d="M295.42,235.7L295.42,435.62" style="fill:none;stroke:#FF7AB4" />
<path d="M292.92,235.7L297.92,235.7" style="fill:none;stroke:#FF7AB4" />
<path d="M292.92,435.62L297.92,435.62" style="fill:none;stroke:#FF7AB4" />
<path d="M304.49,259.15L304.49,443.33" style="fill:none;stroke:#FF7AB4" />
<path d="M301.99,259.15L306.99,259.15" style="fill:none;stroke:#FF7AB4" />
<path d="M301.99,443.33L306.99,443.33" style="fill:none;stroke:#FF7AB4" />
<path d="M313.55,438L313.55,666.06" style="fill:none;stroke:#FF7AB4" />
<path d="M311.05,438L316.05,438" style="fill:none;stroke:#FF7AB4" />
<path d="M311.05,666.06L316.05,666.06" style="fill:none;stroke:#FF7AB4" />
<path d="M322.62,328.83L322.62,624.21" style="fill:none;stroke:#FF7AB4" />
<path d="M320.12,328.83L325.12,328.83" style="fill:none;stroke:#FF7AB4" />
<path d="M320.12,624.21L325.12,624.21" style="fill:none;stroke:#FF7AB4" />
<path d="M331.68,270.81L331.68,381.29" style="fill:none;stroke:#FF7AB4" />
<path d="M329.18,270.81L334.18,270.81" style="fill:none;stroke:#FF7AB4" />
<path d="M329.18,381.29L334.18,381.29" style="fill:none;stroke:#FF7AB4" />
<path d="M340.75,478.52L340.75,647.47" style="fill:none;stroke:#FF7AB4" />
<path d="M338.25,478.52L343.25,478.52" style="fill:none;stroke:#FF7AB4" />
<path d="M338.25,647.47L343.25,647.47" style="fill:none;stroke:#FF7AB4" />
<path d="M349.81,257.3L349.81,464.96" style="fill:none;stroke:#FF7AB4" />
<path d="M347.31,257.3L352.31,257.3" style="fill:none;stroke:#FF7AB4" />
<path d="M347.31,464.96L352.31,464.96" style="fill:none;stroke:#FF7AB4" />
<path d="M358.88,287.57L358.88,467.04" style="fill:none;stroke:#FF7AB4" />
<path d="M356.38,287.57L361.38,287.57" style="fill:none;stroke:#FF7AB4" />
<path d="M356.38,467.04L361.38,467.04" style="fill:none;stroke:#FF7AB4" />
<path d="M367.94,402.04L367.94,480.07" style="fill:none;stroke:#FF7AB4" />
<path d="M365.44,402.04L370.44,402.04" style="fill:none;stroke:#FF7AB4" />
<path d="M365.44,480.07L370.44,480.07" style="fill:none;stroke:#FF7AB4" />
<path d="M377.01,227.84L377.01,438.65" style="fill:none;stroke:#FF7AB4" />
<path d="M374.51,227.84L379.51,227.84" style="fill:none;stroke:#FF7AB4" />
<path d="M374.51,438.65L379.51,438.65" style="fill:none;stroke:#FF7AB4" />
<path d="M386.07,200.03L386.07,359.37" style="fill:none;stroke:#FF7AB4" />
<path d="M383.57,200.03L388.57,200.03" style="fill:none;stroke:#FF7AB4" />
<path d="M383.57,359.37L388.57,359.37" style="fill:none;stroke:#FF7AB4" />
<path d="M395.14,288L395.14,492.3" style="fill:none;stroke:#FF7AB4" />
<path d="M392.64,288L397.64,288" style="fill:none;stroke:#FF7AB4" />
<path d="M392.64,492.3L397.64,492.3" style="fill:none;stroke:#FF7AB4" />
<path d="M404.2,400.06L404.2,560.3" style="fill:none;stroke:#FF7AB4" />
<path d="M401.7,400.06L406.7,400.06" style="fill:none;stroke:#FF7AB4" />
<path d="M401.7,560.3L406.7,560.3" style="fill:none;stroke:#FF7AB4" />
<path d="M413.27,140.94L413.27,403.13" style="fill:none;stroke:#FF7AB4" />
<path d="M410.77,140.94L415.77,140.94" style="fill:none;stroke:#FF7AB4" />
<path d="M410.77,403.13L415.77,403.13" style="fill:none;stroke:#FF7AB4" />
<path d="M422.33,323.01L422.33,579.05" style="fill:none;stroke:#FF7AB4" />
<path d="M419.83,323.01L424.83,323.01" style="fill:none;stroke:#FF7AB4" />
<path d="M419.83,579.05L424.83,579.05" style="fill:none;stroke:#FF7AB4" />
<path d="M431.4,402.09L431.4,576.88" style="fill:none;stroke:#FF7AB4" />
<path d="M428.9,402.09L433.9,402.09" style="fill:none;stroke:#FF7AB4" />
<path d="M428.9,576.88L433.9,576.88" style="fill:none;stroke:#FF7AB4" />
<path d="M440.46,365.42L440.46,571.02" style="fill:none;stroke:#FF7AB4" />
<path d="M437.96,365.42L442.96,365.42" style="fill:none;stroke:#FF7AB4" />
<path d="M437.96,571.02L442.96,571.02" style="fill:none;stroke:#FF7AB4" />
<path d="M449.52,349.55L449.52,514.91" style="fill:none;stroke:#FF7AB4" />
<path d="M447.02,349.55L452.02,349.55" style="fill:none;stroke:#FF7AB4" />
<path d="M447.02,514.91L452.02,514.91" style="fill:none;stroke:#FF7AB4" />
<path d="M458.59,257.03L458.59,510.19" style="fill:none;stroke:#FF7AB4" />
<path d="M456.09,257.03L461.09,257.03" style="fill:none;stroke:#FF7AB4" />
<path d="M456.09,510.19L461.09,510.19" style="fill:none;stroke:#FF7AB4" />
<path d="M467.65,129.61L467.65,370.9" style="fill:none;stroke:#FF7AB4" />
<path d="M465.15,129.61L470.15,129.61" style="fill:none;stroke:#FF7AB4" />
<path d="M465.15,370.9L470.15,370.9" style="fill:none;stroke:#FF7AB4" />
<path d="M476.72,159.57L476.72,218.3" style="fill:none;stroke:#FF7AB4" />
<path d="M474.22,159.57L479.22,159.57" style="fill:none;stroke:#FF7AB4" />
<path d="M474.22,218.3L479.22,218.3" style="fill:none;stroke:#FF7AB4" />
<path d="M485.78,458.81L485.78,558.5" style="fill:none;stroke:#FF7AB4" />
<path d="M483.28,458.81L488.28,458.81" style="fill:none;stroke:#FF7AB4" />
<path d="M483.28,558.5L488.28,558.5" style="fill:none;stroke:#FF7AB4" />
<path d="M494.85,207.85L494.85,365.18" style="fill:none;stroke:#FF7AB4" />
<path d="M492.35,207.85L497.35,207.85" style="fill:none;stroke:#FF7AB4" />
<path d="M492.35,365.18L497.35,365.18" style="fill:none;stroke:#FF7AB4" />
<path d="M503.91,269L503.91,573.96" style="fill:none;stroke:#FF7AB4" />
<path d="M501.41,269L506.41,269" style="fill:none;stroke:#FF7AB4" />
<path d="M501.41,573.96L506.41,573.96" style="fill:none;stroke:#FF7AB4" />
<path d="M512.98,348.04L512.98,476.2" style="fill:none;stroke:#FF7AB4" />
<path d="M510.48,348.04L515.48,348.04" style="fill:none;stroke:#FF7AB4" />
<path d="M510.48,476.2L515.48,476.2" style="fill:none;stroke:#FF7AB4" />
<path d="M522.04,293.69L522.04,540.27" style="fill:none;stroke:#FF7AB4" />
<path d="M519.54,293.69L524.54,293.69" style="fill:none;stroke:#FF7AB4" />
<path d="M519.54,540.27L524.54,540.27" style="fill:none;stroke:#FF7AB4" />
<path d="M531.11,242.54L531.11,487.01" style="fill:none;stroke:#FF7AB4" />
<path d="M528.61,242.54L533.61,242.54" style="fill:none;stroke:#FF7AB4" />
<path d="M528.61,487.01L533.61,487.01" style="fill:none;stroke:#FF7AB4" />
<path d="M540.17,202.52L540.17,476.44" style="fill:none;stroke:#FF7AB4" />
<path d="M537.67,202.52L542.67,202.52" style="fill:none;stroke:#FF7AB4" />
<path d="M537.67,476.44L542.67,476.44" style="fill:none;stroke:#FF7AB4" />
<path d="M549.24,388.02L549.24,445.21" style="fill:none;stroke:#FF7AB4" />
<path d="M546.74,388.02L551.74,388.02" style="fill:none;stroke:#FF7AB4" />
<path d="M546.74,445.21L551.74,445.21" style="fill:none;stroke:#FF7AB4" />
<path d="M558.3,314.03L558.3,470.25" style="fill:none;stroke:#FF7AB4" />
<path d="M555.8,314.03L560.8,314.03" style="fill:none;stroke:#FF7AB4" />
<path d="M555.8,470.25L560.8,470.25" style="fill:none;stroke:#FF7AB4" />
<path d="M567.37,212.9L567.37,465.23" style="fill:none;stroke:#FF7AB4" />
<path d="M564.87,212.9L569.87,212.9" style="fill:none;stroke:#FF7AB4" />
<path d="M564.87,465.23L569.87,465.23" style="fill:none;stroke:#FF7AB4" />
<path d="M576.43,413.76L576.43,709.77" style="fill:none;stroke:#FF7AB4" />
<path d="M573.93,413.76L578.93,413.76" style="fill:none;stroke:#FF7AB4" />
<path d="M573.93,709.77L578.93,709.77" style="fill:none;stroke:#FF7AB4" />
<path d="M585.5,441.29L585.5,603.29" style="fill:none;stroke:#FF7AB4" />
<path d="M583,441.29L588,441.29" style="fill:none;stroke:#FF7AB4" />
<path d="M583,603.29L588,603.29" style="fill:none;stroke:#FF7AB4" />
<path d="M594.56,345.51L594.56,455.05" style="fill:none;stroke:#FF7AB4" />
<path d="M592.06,345.51L597.06,345.51" style="fill:none;stroke:#FF7AB4" />
<path d="M592.06,455.05L597.06,455.05" style="fill:none;stroke:#FF7AB4" />
<path d="M603.63,377.36L603.63,534.88" style="fill:none;stroke:#FF7AB4" />
<path d="M601.13,377.36L606.13,377.36" style="fill:none;stroke:#FF7AB4" />
<path d="M601.13,534.88L606.13,534.88" style="fill:none;stroke:#FF7AB4" />
<path d="M612.69,391.56L612.69,558.14" style="fill:none;stroke:#FF7AB4" />
<path d="M610.19,391.56L615.19,391.56" style="fill:none;stroke:#FF7AB4" />
<path d="M610.19,558.14L615.19,558.14" style="fill:none;stroke:#FF7AB4" />
<path d="M621.76,347.51L621.76,464.72" style="fill:none;stroke:#FF7AB4" />
<path d="M619.26,347.51L624.26,347.51" style="fill:none;stroke:#FF7AB4" />
<path d="M619.26,464.72L624.26,464.72" style="fill:none;stroke:#FF7AB4" />
<path d="M630.82,314.86L630.82,521.41" style="fill:none;stroke:#FF7AB4" />
<path d="M628.32,314.86L633.32,314.86" style="fill:none;stroke:#FF7AB4" />
<path d="M628.32,521.41L633.32,521.41" style="fill:none;stroke:#FF7AB4" />
<path d="M639.89,399.9L639.89,577.37" style="fill:none;stroke:#FF7AB4" />
<path d="M637.39,399.9L642.39,399.9" style="fill:none;stroke:#FF7AB4" />
<path d="M637.39,577.37L642.39,577.37" style="fill:none;stroke:#FF7AB4" />
<path d="M648.95,533.68L648.95,726.38" style="fill:none;stroke:#FF7AB4" />
<path d="M646.45,533.68L651.45,533.68" style="fill:none;stroke:#FF7AB4" />
<path d="M646.45,726.38L651.45,726.38" style="fill:none;stroke:#FF7AB4" />
<path d="M658.02,480.99L658.02,636.39" style="fill:none;stroke:#FF7AB4" />
<path d="M655.52,480.99L660.52,480.99" style="fill:none;stroke:#FF7AB4" />
<path d="M655.52,636.39L660.52,636.39" style="fill:none;stroke:#FF7AB4" />
<path d="M667.08,608.51L667.08,801.65" style="fill:none;stroke:#FF7AB4" />
<path d="M664.58,608.51L669.58,608.51" style="fill:none;stroke:#FF7AB4" />
<path d="M664.58,801.65L669.58,801.65" style="fill:none;stroke:#FF7AB4" />
<path d="M676.15,671.07L676.15,821.23" style="fill:none;stroke:#FF7AB4" />
<path d="M673.65,671.07L678.65,671.07" style="fill:none;stroke:#FF7AB4" />
<path d="M673.65,821.23L678.65,821.23" style="fill:none;stroke:#FF7AB4" />
<path d="M685.21,312.34L685.21,531.63" style="fill:none;stroke:#FF7AB4" />
<path d="M682.71,312.34L687.71,312.34" style="fill:none;stroke:#FF7AB4" />
<path d="M682.71,531.63L687.71,531.63" style="fill:none;stroke:#FF7AB4" />
<path d="M694.28,583.43L694.28,783.2" style="fill:none;stroke:#FF7AB4" />
<path d="M691.78,583.43L696.78,583.43" style="fill:none;stroke:#FF7AB4" />
<path d="M691.78,783.2L696.78,783.2" style="fill:none;stroke:#FF7AB4" />
<path d="M703.34,352.16L703.34,481.62" style="fill:none;stroke:#FF7AB4" />
<path d="M700.84,352.16L705.84,352.16" style="fill:none;stroke:#FF7AB4" />
<path d="M700.84,481.62L705.84,481.62" style="fill:none;stroke:#FF7AB4" />
<path d="M712.41,490.79L712.41,604.61" style="fill:none;stroke:#FF7AB4" />
<path d="M709.91,490.79L714.91,490.79" style="fill:none;stroke:#FF7AB4" />
<path d="M709.91,604.61L714.91,604.61" style="fill:none;stroke:#FF7AB4" />
<path d="M721.47,297.43L721.47,377.23" style="fill:none;stroke:#FF7AB4" />
<path d="M718.97,297.43L723.97,297.43" style="fill:none;stroke:#FF7AB4" />
<path d="M718.97,377.23L723.97,377.23" style="fill:none;stroke:#FF7AB4" />
<path d="M730.54,202.92L730.54,372.83" style="fill:none;stroke:#FF7AB4" />
<path d="M728.04,202.92L733.04,202.92" style="fill:none;stroke:#FF7AB4" />
<path d="M728.04,372.83L733.04,372.83" style="fill:none;stroke:#FF7AB4" />
<path d="M739.6,346.45L739.6,413.93" style="fill:none;stroke:#FF7AB4" />
<path d="M737.1,346.45L742.1,346.45" style="fill:none;stroke:#FF7AB4" />
<path d="M737.1,413.93L742.1,413.93" style="fill:none;stroke:#FF7AB4" />
<path d="M748.67,456.94L748.67,569.34" style="fill:none;stroke:#FF7AB4" />
<path d="M746.17,456.94L751.17,456.94" style="fill:none;stroke:#FF7AB4" />
<path d="M746.17,569.34L751.17,569.34" style="fill:none;stroke:#FF7AB4" />
<path d="M757.73,350.69L757.73,474.06" style="fill:none;stroke:#FF7AB4" />
<path d="M755.23,350.69L760.23,350.69" style="fill:none;stroke:#FF7AB4" />
<path d="M755.23,474.06L760.23,474.06" style="fill:none;stroke:#FF7AB4" />
<path d="M766.79,221.08L766.79,473.48" style="fill:none;stroke:#FF7AB4" />
<path d="M764.29,221.08L769.29,221.08" style="fill:none;stroke:#FF7AB4" />
<path d="M764.29,473.48L769.29,473.48" style="fill:none;stroke:#FF7AB4" />
<path d="M775.86,375.73L775.86,482.18" style="fill:none;stroke:#FF7AB4" />
<path d="M773.36,375.73L778.36,375.73" style="fill:none;stroke:#FF7AB4" />
<path d="M773.36,482.18L778.36,482.18" style="fill:none;stroke:#FF7AB4" />
<path d="M784.92,271.25L784.92,427.51" style="fill:none;stroke:#FF7AB4" />
<path d="M782.42,271.25L787.42,271.25" style="fill:none;stroke:#FF7AB4" />
<path d="M782.42,427.51L787.42,427.51" style="fill:none;stroke:#FF7AB4" />
<path d="M793.99,481.83L793.99,650.46" style="fill:none;stroke:#FF7AB4" />
<path d="M791.49,481.83L796.49,481.83" style="fill:none;stroke:#FF7AB4" />
<path d="M791.49,650.46L796.49,650.46" style="fill:none;stroke:#FF7AB4" />
<path d="M803.05,315.38L803.05,400.22" style="fill:none;stroke:#FF7AB4" />
<path d="M800.55,315.38L805.55,315.38" style="fill:none;stroke:#FF7AB4" />
<path d="M800.55,400.22L805.55,400.22" style="fill:none;stroke:#FF7AB4" />
<path d="M812.12,263.45L812.12,392.66" style="fill:none;stroke:#FF7AB4" />
<path d="M809.62,263.45L814.62,263.45" style="fill:none;stroke:#FF7AB4" />
<path d="M809.62,392.66L814.62,392.66" style="fill:none;stroke:#FF7AB4" />
<path d="M821.18,338.42L821.18,615.6" style="fill:none;stroke:#FF7AB4" />
<path d="M818.68,338.42L823.68,338.42" style="fill:none;stroke:#FF7AB4" />
<path d="M818.68,615.6L823.68,615.6" style="fill:none;stroke:#FF7AB4" />
<path d="M830.25,312.21L830.25,478.97" style="fill:none;stroke:#FF7AB4" />
<path d="M827.75,312.21L832.75,312.21" style="fill:none;stroke:#FF7AB4" />
<path d="M827.75,478.97L832.75,478.97" style="fill:none;stroke:#FF7AB4" />
<path d="M839.31,311.01L839.31,424.32" style="fill:none;stroke:#FF7AB4" />
<path d="M836.81,311.01L841.81,311.01" style="fill:none;stroke:#FF7AB4" />
<path d="M836.81,424.32L841.81,424.32" style="fill:none;stroke:#FF7AB4" />
<path d="M848.38,285.25L848.38,420.8" style="fill:none;stroke:#FF7AB4" />
<path d="M845.88,285.25L850.88,285.25" style="fill:none;stroke:#FF7AB4" />
<path d="M845.88,420.8L850.88,420.8" style="fill:none;stroke:#FF7AB4" />
<path d="M857.44,236.96L857.44,397.41" style="fill:none;stroke:#FF7AB4" />
<path d="M854.94,236.96L859.94,236.96" style="fill:none;stroke:#FF7AB4" />
<path d="M854.94,397.41L859.94,397.41" style="fill:none;stroke:#FF7AB4" />
<path d="M866.51,278.89L866.51,439.53" style="fill:none;stroke:#FF7AB4" />
<path d="M864.01,278.89L869.01,278.89" style="fill:none;stroke:#FF7AB4" />
<path d="M864.01,439.53L869.01,439.53" style="fill:none;stroke:#FF7AB4" />
<path d="M875.57,305.5L875.57,509.62" style="fill:none;stroke:#FF7AB4" />
<path d="M873.07,305.5L878.07,305.5" style="fill:none;stroke:#FF7AB4" />
<path d="M873.07,509.62L878.07,509.62" style="fill:none;stroke:#FF7AB4" />
<path d="M884.64,345.78L884.64,446.05" style="fill:none;stroke:#FF7AB4" />
<path d="M882.14,345.78L887.14,345.78" style="fill:none;stroke:#FF7AB4" />
<path d="M882.14,446.05L887.14,446.05" style="fill:none;stroke:#FF7AB4" />
<path d="M893.7,109.32L893.7,382.44" style="fill:none;stroke:#FF7AB4" />
<path d="M891.2,109.32L896.2,109.32" style="fill:none;stroke:#FF7AB4" />
<path d="M891.2,382.44L896.2,382.44" style="fill:none;stroke:#FF7AB4" />
<path d="M902.77,293.96L902.77,543.55" style="fill:none;stroke:#FF7AB4" />
<path d="M900.27,293.96L905.27,293.96" style="fill:none;stroke:#FF7AB4" />
<path d="M900.27,543.55L905.27,543.55" style="fill:none;stroke:#FF7AB4" />
<path d="M911.83,338.3L911.83,532.61" style="fill:none;stroke:#FF7AB4" />
<path d="M909.33,338.3L914.33,338.3" style="fill:none;stroke:#FF7AB4" />
<path d="M909.33,532.61L914.33,532.61" style="fill:none;stroke:#FF7AB4" />
<path d="M920.9,163.97L920.9,384.14" style="fill:none;stroke:#FF7AB4" />
<path d="M918.4,163.97L923.4,163.97" style="fill:none;stroke:#FF7AB4" />
<path d="M918.4,384.14L923.4,384.14" style="fill:none;stroke:#FF7AB4" />
<path d="M929.96,367.18L929.96,500.54" style="fill:none;stroke:#FF7AB4" />
<path d="M927.46,367.18L932.46,367.18" style="fill:none;stroke:#FF7AB4" />
<path d="M927.46,500.54L932.46,500.54" style="fill:none;stroke:#FF7AB4" />
<path d="M939.03,251.22L939.03,429.75" style="fill:none;stroke:#FF7AB4" />
<path d="M936.53,251.22L941.53,251.22" style="fill:none;stroke:#FF7AB4" />
<path d="M936.53,429.75L941.53,429.75" style="fill:none;stroke:#FF7AB4" />
<path d="M948.09,351.91L948.09,520.18" style="fill:none;stroke:#FF7AB4" />
<path d="M945.59,351.91L950.59,351.91" style="fill:none;stroke:#FF7AB4" />
<path d="M945.59,520.18L950.59,520.18" style="fill:none;stroke:#FF7AB4" />
<path d="M957.16,169.23L957.16,259.19" style="fill:none;stroke:#FF7AB4" />
<path d="M954.66,169.23L959.66,169.23" style="fill:none;stroke:#FF7AB4" />
<path d="M954.66,259.19L959.66,259.19" style="fill:none;stroke:#FF7AB4" />
<path d="M966.22,331.71L966.22,407.26" style="fill:none;stroke:#FF7AB4" />
<path d="M963.72,331.71L968.72,331.71" style="fill:none;stroke:#FF7AB4" />
<path d="M963.72,407.26L968.72,407.26" style="fill:none;stroke:#FF7AB4" />
<path d="M975.29,357.24L975.29,557.66" style="fill:none;stroke:#FF7AB4" />
<path d="M972.79,357.24L977.79,357.24" style="fill:none;stroke:#FF7AB4" />
<path d="M972.79,557.66L977.79,557.66" style="fill:none;stroke:#FF7AB4" />
<path d="M984.35,314.93L984.35,429.77" style="fill:none;stroke:#FF7AB4" />
<path d="M981.85,314.93L986.85,314.93" style="fill:none;stroke:#FF7AB4" />
<path d="M981.85,429.77L986.85,429.77" style="fill:none;stroke:#FF7AB4" />
<path d="M993.42,339.46L993.42,518.66" style="fill:none;stroke:#FF7AB4" />
<path d="M990.92,339.46L995.92,339.46" style="fill:none;stroke:#FF7AB4" />
<path d="M990.92,518.66L995.92,518.66" style="fill:none;stroke:#FF7AB4" />
<path d="M1002.5,178.27L1002.5,366.15" style="fill:none;stroke:#FF7AB4" />
<path d="M999.98,178.27L1005,178.27" style="fill:none;stroke:#FF7AB4" />
<path d="M999.98,366.15L1005,366.15" style="fill:none;stroke:#FF7AB4" />
<path d="M1011.5,301.76L1011.5,478.03" style="fill:none;stroke:#FF7AB4" />
<path d="M1009,301.76L1014,301.76" style="fill:none;stroke:#FF7AB4" />
<path d="M1009,478.03L1014,478.03" style="fill:none;stroke:#FF7AB4" />
<path d="M1020.6,377.04L1020.6,492.04" style="fill:none;stroke:#FF7AB4" />
<path d="M1018.1,377.04L1023.1,377.04" style="fill:none;stroke:#FF7AB4" />
<path d="M1018.1,492.04L1023.1,492.04" style="fill:none;stroke:#FF7AB4" />
<path d="M1029.7,237.38L1029.7,480.14" style="fill:none;stroke:#FF7AB4" />
<path d="M1027.2,237.38L1032.2,237.38" style="fill:none;stroke:#FF7AB4" />
<path d="M1027.2,480.14L1032.2,480.14" style="fill:none;stroke:#FF7AB4" />
<path d="M1038.7,268.64L1038.7,432.25" style="fill:none;stroke:#FF7AB4" />
<path d="M1036.2,268.64L1041.2,268.64" style="fill:none;stroke:#FF7AB4" />
<path d="M1036.2,432.25L1041.2,432.25" style="fill:none;stroke:#FF7AB4" />
<path d="M1047.8,415.41L1047.8,493.86" style="fill:none;stroke:#FF7AB4" />
<path d="M1045.3,415.41L1050.3,415.41" style="fill:none;stroke:#FF7AB4" />
<path d="M1045.3,493.86L1050.3,493.86" style="fill:none;stroke:#FF7AB4" />
<path d="M1056.9,221.65L1056.9,358.33" style="fill:none;stroke:#FF7AB4" />
<path d="M1054.4,221.65L1059.4,221.65" style="fill:none;stroke:#FF7AB4" />
<path d="M1054.4,358.33L1059.4,358.33" style="fill:none;stroke:#FF7AB4" />
<path d="M1065.9,217.42L1065.9,465.17" style="fill:none;stroke:#FF7AB4" />
<path d="M1063.4,217.42L1068.4,217.42" style="fill:none;stroke:#FF7AB4" />
<path d="M1063.4,465.17L1068.4,465.17" style="fill:none;stroke:#FF7AB4" />
<path d="M1075,333.32L1075,483.47" style="fill:none;stroke:#FF7AB4" />
<path d="M1072.5,333.32L1077.5,333.32" style="fill:none;stroke:#FF7AB4" />
<path d="M1072.5,483.47L1077.5,483.47" style="fill:none;stroke:#FF7AB4" />
<path d="M200.71,432.89A5,5 0 1 1 190.71,432.89A5,5 0 1 1 200.71,432.89Z" style="fill:#FF7AB4" />
<path d="M209.77,616.34A5,5 0 1 1 199.77,616.34A5,5 0 1 1 209.77,616.34Z" style="fill:#FF7AB4" />
<path d="M218.84,324.01A5,5 0 1 1 208.84,324.01A5,5 0 1 1 218.84,324.01Z" style="fill:#FF7AB4" />
<path d="M227.9,322.07A5,5 0 1 1 217.9,322.07A5,5 0 1 1 227.9,322.07Z" style="fill:#FF7AB4" />
<path d="M236.97,317.55A5,5 0 1 1 226.97,317.55A5,5 0 1 1 236.97,317.55Z" style="fill:#FF7AB4" />
<path d="M246.03,364.35A5,5 0 1 1 236.03,364.35A5,5 0 1 1 246.03,364.35Z" style="fill:#FF7AB4" />
<path d="M255.1,335A5,5 0 1 1 245.1,335A5,5 0 1 1 255.1,335Z" style="fill:#FF7AB4" />
<path d="M264.16,280.56A5,5 0 1 1 254.16,280.56A5,5 0 1 1 264.16,280.56Z" style="fill:#FF7AB4" />
<path d="M273.23,423.47A5,5 0 1 1 263.23,423.47A5,5 0 1 1 273.23,423.47Z" style="fill:#FF7AB4" />
<path d="M282.29,332.63A5,5 0 1 1 272.29,332.63A5,5 0 1 1 282.29,332.63Z" style="fill:#FF7AB4" />
<path d="M291.36,400.02A5,5 0 1 1 281.36,400.02A5,5 0 1 1 291.36,400.02Z" style="fill:#FF7AB4" />
<path d="M300.42,335.66A5,5 0 1 1 290.42,335.66A5,5 0 1 1 300.42,335.66Z" style="fill:#FF7AB4" />
<path d="M309.49,351.24A5,5 0 1 1 299.49,351.24A5,5 0 1 1 309.49,351.24Z" style="fill:#FF7AB4" />
<path d="M318.55,552.03A5,5 0 1 1 308.55,552.03A5,5 0 1 1 318.55,552.03Z" style="fill:#FF7AB4" />
<path d="M327.62,476.52A5,5 0 1 1 317.62,476.52A5,5 0 1 1 327.62,476.52Z" style="fill:#FF7AB4" />
<path d="M336.68,326.05A5,5 0 1 1 326.68,326.05A5,5 0 1 1 336.68,326.05Z" style="fill:#FF7AB4" />
<path d="M345.75,562.99A5,5 0 1 1 335.75,562.99A5,5 0 1 1 345.75,562.99Z" style="fill:#FF7AB4" />
<path d="M354.81,361.13A5,5 0 1 1 344.81,361.13A5,5 0 1 1 354.81,361.13Z" style="fill:#FF7AB4" />
<path d="M363.88,377.3A5,5 0 1 1 353.88,377.3A5,5 0 1 1 363.88,377.3Z" style="fill:#FF7AB4" />
<path d="M372.94,441.05A5,5 0 1 1 362.94,441.05A5,5 0 1 1 372.94,441.05Z" style="fill:#FF7AB4" />
<path d="M382.01,333.25A5,5 0 1 1 372.01,333.25A5,5 0 1 1 382.01,333.25Z" style="fill:#FF7AB4" />
<path d="M391.07,279.7A5,5 0 1 1 381.07,279.7A5,5 0 1 1 391.07,279.7Z" style="fill:#FF7AB4" />
<path d="M400.14,390.15A5,5 0 1 1 390.14,390.15A5,5 0 1 1 400.14,390.15Z" style="fill:#FF7AB4" />
<path d="M409.2,480.18A5,5 0 1 1 399.2,480.18A5,5 0 1 1 409.2,480.18Z" style="fill:#FF7AB4" />
<path d="M418.27,272.04A5,5 0 1 1 408.27,272.04A5,5 0 1 1 418.27,272.04Z" style="fill:#FF7AB4" />
<path d="M427.33,451.03A5,5 0 1 1 417.33,451.03A5,5 0 1 1 427.33,451.03Z" style="fill:#FF7AB4" />
<path d="M436.4,489.49A5,5 0 1 1 426.4,489.49A5,5 0 1 1 436.4,489.49Z" style="fill:#FF7AB4" />
<path d="M445.46,468.22A5,5 0 1 1 435.46,468.22A5,5 0 1 1 445.46,468.22Z" style="fill:#FF7AB4" />
<path d="M454.52,432.23A5,5 0 1 1 444.52,432.23A5,5 0 1 1 454.52,432.23Z" style="fill:#FF7AB4" />
<path d="M463.59,383.61A5,5 0 1 1 453.59,383.61A5,5 0 1 1 463.59,383.61Z" style="fill:#FF7AB4" />
<path d="M472.65,250.25A5,5 0 1 1 462.65,250.25A5,5 0 1 1 472.65,250.25Z" style="fill:#FF7AB4" />
<path d="M481.72,188.93A5,5 0 1 1 471.72,188.93A5,5 0 1 1 481.72,188.93Z" style="fill:#FF7AB4" />
<path d="M490.78,508.66A5,5 0 1 1 480.78,508.66A5,5 0 1 1 490.78,508.66Z" style="fill:#FF7AB4" />
<path d="M499.85,286.51A5,5 0 1 1 489.85,286.51A5,5 0 1 1 499.85,286.51Z" style="fill:#FF7AB4" />
<path d="M508.91,421.48A5,5 0 1 1 498.91,421.48A5,5 0 1 1 508.91,421.48Z" style="fill:#FF7AB4" />
<path d="M517.98,412.12A5,5 0 1 1 507.98,412.12A5,5 0 1 1 517.98,412.12Z" style="fill:#FF7AB4" />
<path d="M527.04,416.98A5,5 0 1 1 517.04,416.98A5,5 0 1 1 527.04,416.98Z" style="fill:#FF7AB4" />
<path d="M536.11,364.77A5,5 0 1 1 526.11,364.77A5,5 0 1 1 536.11,364.77Z" style="fill:#FF7AB4" />
<path d="M545.17,339.48A5,5 0 1 1 535.17,339.48A5,5 0 1 1 545.17,339.48Z" style="fill:#FF7AB4" />
<path d="M554.24,416.61A5,5 0 1 1 544.24,416.61A5,5 0 1 1 554.24,416.61Z" style="fill:#FF7AB4" />
<path d="M563.3,392.14A5,5 0 1 1 553.3,392.14A5,5 0 1 1 563.3,392.14Z" style="fill:#FF7AB4" />
<path d="M572.37,339.06A5,5 0 1 1 562.37,339.06A5,5 0 1 1 572.37,339.06Z" style="fill:#FF7AB4" />
<path d="M581.43,561.77A5,5 0 1 1 571.43,561.77A5,5 0 1 1 581.43,561.77Z" style="fill:#FF7AB4" />
<path d="M590.5,522.29A5,5 0 1 1 580.5,522.29A5,5 0 1 1 590.5,522.29Z" style="fill:#FF7AB4" />
<path d="M599.56,400.28A5,5 0 1 1 589.56,400.28A5,5 0 1 1 599.56,400.28Z" style="fill:#FF7AB4" />
<path d="M608.63,456.12A5,5 0 1 1 598.63,456.12A5,5 0 1 1 608.63,456.12Z" style="fill:#FF7AB4" />
<path d="M617.69,474.85A5,5 0 1 1 607.69,474.85A5,5 0 1 1 617.69,474.85Z" style="fill:#FF7AB4" />
<path d="M626.76,406.11A5,5 0 1 1 616.76,406.11A5,5 0 1 1 626.76,406.11Z" style="fill:#FF7AB4" />
<path d="M635.82,418.13A5,5 0 1 1 625.82,418.13A5,5 0 1 1 635.82,418.13Z" style="fill:#FF7AB4" />
<path d="M644.89,488.63A5,5 0 1 1 634.89,488.63A5,5 0 1 1 644.89,488.63Z" style="fill:#FF7AB4" />
<path d="M653.95,630.03A5,5 0 1 1 643.95,630.03A5,5 0 1 1 653.95,630.03Z" style="fill:#FF7AB4" />
<path d="M663.02,558.69A5,5 0 1 1 653.02,558.69A5,5 0 1 1 663.02,558.69Z" style="fill:#FF7AB4" />
<path d="M672.08,705.08A5,5 0 1 1 662.08,705.08A5,5 0 1 1 672.08,705.08Z" style="fill:#FF7AB4" />
<path d="M681.15,746.15A5,5 0 1 1 671.15,746.15A5,5 0 1 1 681.15,746.15Z" style="fill:#FF7AB4" />
<path d="M690.21,421.99A5,5 0 1 1 680.21,421.99A5,5 0 1 1 690.21,421.99Z" style="fill:#FF7AB4" />
<path d="M699.28,683.32A5,5 0 1 1 689.28,683.32A5,5 0 1 1 699.28,683.32Z" style="fill:#FF7AB4" />
<path d="M708.34,416.89A5,5 0 1 1 698.34,416.89A5,5 0 1 1 708.34,416.89Z" style="fill:#FF7AB4" />
<path d="M717.41,547.7A5,5 0 1 1 707.41,547.7A5,5 0 1 1 717.41,547.7Z" style="fill:#FF7AB4" />
<path d="M726.47,337.33A5,5 0 1 1 716.47,337.33A5,5 0 1 1 726.47,337.33Z" style="fill:#FF7AB4" />
<path d="M735.54,287.88A5,5 0 1 1 725.54,287.88A5,5 0 1 1 735.54,287.88Z" style="fill:#FF7AB4" />
<path d="M744.6,380.19A5,5 0 1 1 734.6,380.19A5,5 0 1 1 744.6,380.19Z" style="fill:#FF7AB4" />
<path d="M753.67,513.14A5,5 0 1 1 743.67,513.14A5,5 0 1 1 753.67,513.14Z" style="fill:#FF7AB4" />
<path d="M762.73,412.38A5,5 0 1 1 752.73,412.38A5,5 0 1 1 762.73,412.38Z" style="fill:#FF7AB4" />
<path d="M771.79,347.28A5,5 0 1 1 761.79,347.28A5,5 0 1 1 771.79,347.28Z" style="fill:#FF7AB4" />
<path d="M780.86,428.96A5,5 0 1 1 770.86,428.96A5,5 0 1 1 780.86,428.96Z" style="fill:#FF7AB4" />
<path d="M789.92,349.38A5,5 0 1 1 779.92,349.38A5,5 0 1 1 789.92,349.38Z" style="fill:#FF7AB4" />
<path d="M798.99,566.14A5,5 0 1 1 788.99,566.14A5,5 0 1 1 798.99,566.14Z" style="fill:#FF7AB4" />
<path d="M808.05,357.8A5,5 0 1 1 798.05,357.8A5,5 0 1 1 808.05,357.8Z" style="fill:#FF7AB4" />
<path d="M817.12,328.06A5,5 0 1 1 807.12,328.06A5,5 0 1 1 817.12,328.06Z" style="fill:#FF7AB4" />
<path d="M826.18,477.01A5,5 0 1 1 816.18,477.01A5,5 0 1 1 826.18,477.01Z" style="fill:#FF7AB4" />
<path d="M835.25,395.59A5,5 0 1 1 825.25,395.59A5,5 0 1 1 835.25,395.59Z" style="fill:#FF7AB4" />
<path d="M844.31,367.66A5,5 0 1 1 834.31,367.66A5,5 0 1 1 844.31,367.66Z" style="fill:#FF7AB4" />
<path d="M853.38,353.03A5,5 0 1 1 843.38,353.03A5,5 0 1 1 853.38,353.03Z" style="fill:#FF7AB4" />
<path d="M862.44,317.19A5,5 0 1 1 852.44,317.19A5,5 0 1 1 862.44,317.19Z" style="fill:#FF7AB4" />
<path d="M871.51,359.21A5,5 0 1 1 861.51,359.21A5,5 0 1 1 871.51,359.21Z" style="fill:#FF7AB4" />
<path d="M880.57,407.56A5,5 0 1 1 870.57,407.56A5,5 0 1 1 880.57,407.56Z" style="fill:#FF7AB4" />
<path d="M889.64,395.92A5,5 0 1 1 879.64,395.92A5,5 0 1 1 889.64,395.92Z" style="fill:#FF7AB4" />
<path d="M898.7,245.88A5,5 0 1 1 888.7,245.88A5,5 0 1 1 898.7,245.88Z" style="fill:#FF7AB4" />
<path d="M907.77,418.76A5,5 0 1 1 897.77,418.76A5,5 0 1 1 907.77,418.76Z" style="fill:#FF7AB4" />
<path d="M916.83,435.45A5,5 0 1 1 906.83,435.45A5,5 0 1 1 916.83,435.45Z" style="fill:#FF7AB4" />
<path d="M925.9,274.06A5,5 0 1 1 915.9,274.06A5,5 0 1 1 925.9,274.06Z" style="fill:#FF7AB4" />
<path d="M934.96,433.86A5,5 0 1 1 924.96,433.86A5,5 0 1 1 934.96,433.86Z" style="fill:#FF7AB4" />
<path d="M944.03,340.49A5,5 0 1 1 934.03,340.49A5,5 0 1 1 944.03,340.49Z" style="fill:#FF7AB4" />
<path d="M953.09,436.05A5,5 0 1 1 943.09,436.05A5,5 0 1 1 953.09,436.05Z" style="fill:#FF7AB4" />
<path d="M962.16,214.21A5,5 0 1 1 952.16,214.21A5,5 0 1 1 962.16,214.21Z" style="fill:#FF7AB4" />
<path d="M971.22,369.49A5,5 0 1 1 961.22,369.49A5,5 0 1 1 971.22,369.49Z" style="fill:#FF7AB4" />
<path d="M980.29,457.45A5,5 0 1 1 970.29,457.45A5,5 0 1 1 980.29,457.45Z" style="fill:#FF7AB4" />
<path d="M989.35,372.35A5,5 0 1 1 979.35,372.35A5,5 0 1 1 989.35,372.35Z" style="fill:#FF7AB4" />
<path d="M998.42,429.06A5,5 0 1 1 988.42,429.06A5,5 0 1 1 998.42,429.06Z" style="fill:#FF7AB4" />
<path d="M1007.5,272.21A5,5 0 1 1 997.48,272.21A5,5 0 1 1 1007.5,272.21Z" style="fill:#FF7AB4" />
<path d="M1016.5,389.89A5,5 0 1 1 1006.5,389.89A5,5 0 1 1 1016.5,389.89Z" style="fill:#FF7AB4" />
<path d="M1025.6,434.54A5,5 0 1 1 1015.6,434.54A5,5 0 1 1 1025.6,434.54Z" style="fill:#FF7AB4" />
<path d="M1034.7,358.76A5,5 0 1 1 1024.7,358.76A5,5 0 1 1 1034.7,358.76Z" style="fill:#FF7AB4" />
<path d="M1043.7,350.45A5,5 0 1 1 1033.7,350.45A5,5 0 1 1 1043.7,350.45Z" style="fill:#FF7AB4" />
<path d="M1052.8,454.64A5,5 0 1 1 1042.8,454.64A5,5 0 1 1 1052.8,454.64Z" style="fill:#FF7AB4" />
<path d="M1061.9,289.99A5,5 0 1 1 1051.9,289.99A5,5 0 1 1 1061.9,289.99Z" style="fill:#FF7AB4" />
<path d="M1070.9,341.29A5,5 0 1 1 1060.9,341.29A5,5 0 1 1 1070.9,341.29Z" style="fill:#FF7AB4" />
<path d="M1080,408.4A5,5 0 1 1 1070,408.4A5,5 0 1 1 1080,408.4Z" style="fill:#FF7AB4" />
<path d="M195.71,974.14L1075,974.14" style="fill:none;stroke:#000000" />
<path d="M1075,149.25L1075,974.14" style="fill:none;stroke:#000000" />
<path d="M1038,942.02A8,8 0 1 1 1022,942.02A8,8 0 1 1 1038,942.02Z" style="fill:#FF7AB4" />
<text x="684.87" y="-933.54" transform="scale(1, -1)"
	style="font-family:Helvetica;font-weight:normal;font-style:normal;font-size:36px">23 min run (5 avgs)</text>
</g>
</svg>
