<?xml version="1.0"?>
<!-- Generated by SVGo and Plotinum VG -->
<svg width="1080pt" height="1080pt" viewBox="0 0 1080 1080"
	xmlns="http://www.w3.org/2000/svg"
	xmlns:xlink="http://www.w3.org/1999/xlink">
<g transform="scale(1, -1) translate(0, -1080)">
<path d="M0,0L1080,0L1080,1080L0,1080Z" style="fill-opacity:0" />
<text x="346.9" y="-1039.5" transform="scale(1, -1)"
	style="font-family:Helvetica;font-weight:normal;font-style:normal;font-size:50px">1 mm CS2 CABS</text>
<text x="436.02" y="-11.039" transform="scale(1, -1)"
	style="font-family:Helvetica;font-weight:normal;font-style:normal;font-size:36px">Frequency (GHz)</text>
<text x="104.89" y="-71.258" transform="scale(1, -1)"
	style="font-family:Helvetica;font-weight:normal;font-style:normal;font-size:36px">2.37</text>
<text x="250.18" y="-71.258" transform="scale(1, -1)"
	style="font-family:Helvetica;font-weight:normal;font-style:normal;font-size:36px">2.42</text>
<text x="395.47" y="-71.258" transform="scale(1, -1)"
	style="font-family:Helvetica;font-weight:normal;font-style:normal;font-size:36px">2.47</text>
<text x="540.77" y="-71.258" transform="scale(1, -1)"
	style="font-family:Helvetica;font-weight:normal;font-style:normal;font-size:36px">2.52</text>
<text x="686.06" y="-71.258" transform="scale(1, -1)"
	style="font-family:Helvetica;font-weight:normal;font-style:normal;font-size:36px">2.57</text>
<text x="831.36" y="-71.258" transform="scale(1, -1)"
	style="font-family:Helvetica;font-weight:normal;font-style:normal;font-size:36px">2.62</text>
<text x="976.65" y="-71.258" transform="scale(1, -1)"
	style="font-family:Helvetica;font-weight:normal;font-style:normal;font-size:36px">2.67</text>
<path d="M139.92,116.44L139.92,108.44" style="fill:none;stroke:#000000;stroke-width:1.5" />
<path d="M212.57,112.44L212.57,108.44" style="fill:none;stroke:#000000;stroke-width:1.5" />
<path d="M285.21,116.44L285.21,108.44" style="fill:none;stroke:#000000;stroke-width:1.5" />
<path d="M357.86,112.44L357.86,108.44" style="fill:none;stroke:#000000;stroke-width:1.5" />
<path d="M430.51,116.44L430.51,108.44" style="fill:none;stroke:#000000;stroke-width:1.5" />
<path d="M503.15,112.44L503.15,108.44" style="fill:none;stroke:#000000;stroke-width:1.5" />
<path d="M575.8,116.44L575.8,108.44" style="fill:none;stroke:#000000;stroke-width:1.5" />
<path d="M648.45,112.44L648.45,108.44" style="fill:none;stroke:#000000;stroke-width:1.5" />
<path d="M721.1,116.44L721.1,108.44" style="fill:none;stroke:#000000;stroke-width:1.5" />
<path d="M793.74,112.44L793.74,108.44" style="fill:none;stroke:#000000;stroke-width:1.5" />
<path d="M866.39,116.44L866.39,108.44" style="fill:none;stroke:#000000;stroke-width:1.5" />
<path d="M939.04,112.44L939.04,108.44" style="fill:none;stroke:#000000;stroke-width:1.5" />
<path d="M1011.7,116.44L1011.7,108.44" style="fill:none;stroke:#000000;stroke-width:1.5" />
<path d="M73.098,108.44L1075,108.44" style="fill:none;stroke:#000000;stroke-width:1.5" />
<g transform="rotate(90)">
<text x="335.41" y="29.18" transform="scale(1, -1)"
	style="font-family:Helvetica;font-weight:normal;font-style:normal;font-size:36px">Spectral Density (relative)</text>
</g>
<path d="M67.848,108.82L67.848,974.14" style="fill:none;stroke:#000000;stroke-width:1.5" />
<path d="M73.098,212.33L73.098,212.33" style="fill:none;stroke:#FFC17A" />
<path d="M70.598,212.33L75.598,212.33" style="fill:none;stroke:#FFC17A" />
<path d="M70.598,212.33L75.598,212.33" style="fill:none;stroke:#FFC17A" />
<path d="M78.923,220.41L78.923,220.41" style="fill:none;stroke:#FFC17A" />
<path d="M76.423,220.41L81.423,220.41" style="fill:none;stroke:#FFC17A" />
<path d="M76.423,220.41L81.423,220.41" style="fill:none;stroke:#FFC17A" />
<path d="M84.748,208.84L84.748,208.84" style="fill:none;stroke:#FFC17A" />
<path d="M82.248,208.84L87.248,208.84" style="fill:none;stroke:#FFC17A" />
<path d="M82.248,208.84L87.248,208.84" style="fill:none;stroke:#FFC17A" />
<path d="M90.573,209.68L90.573,209.68" style="fill:none;stroke:#FFC17A" />
<path d="M88.073,209.68L93.073,209.68" style="fill:none;stroke:#FFC17A" />
<path d="M88.073,209.68L93.073,209.68" style="fill:none;stroke:#FFC17A" />
<path d="M96.398,198.2L96.398,198.2" style="fill:none;stroke:#FFC17A" />
<path d="M93.898,198.2L98.898,198.2" style="fill:none;stroke:#FFC17A" />
<path d="M93.898,198.2L98.898,198.2" style="fill:none;stroke:#FFC17A" />
<path d="M102.22,206.44L102.22,206.44" style="fill:none;stroke:#FFC17A" />
<path d="M99.723,206.44L104.72,206.44" style="fill:none;stroke:#FFC17A" />
<path d="M99.723,206.44L104.72,206.44" style="fill:none;stroke:#FFC17A" />
<path d="M108.05,213.72L108.05,213.72" style="fill:none;stroke:#FFC17A" />
<path d="M105.55,213.72L110.55,213.72" style="fill:none;stroke:#FFC17A" />
<path d="M105.55,213.72L110.55,213.72" style="fill:none;stroke:#FFC17A" />
<path d="M113.87,224.8L113.87,224.8" style="fill:none;stroke:#FFC17A" />
<path d="M111.37,224.8L116.37,224.8" style="fill:none;stroke:#FFC17A" />
<path d="M111.37,224.8L116.37,224.8" style="fill:none;stroke:#FFC17A" />
<path d="M119.7,221.48L119.7,221.48" style="fill:none;stroke:#FFC17A" />
<path d="M117.2,221.48L122.2,221.48" style="fill:none;stroke:#FFC17A" />
<path d="M117.2,221.48L122.2,221.48" style="fill:none;stroke:#FFC17A" />
<path d="M125.52,228.22L125.52,228.22" style="fill:none;stroke:#FFC17A" />
<path d="M123.02,228.22L128.02,228.22" style="fill:none;stroke:#FFC17A" />
<path d="M123.02,228.22L128.02,228.22" style="fill:none;stroke:#FFC17A" />
<path d="M131.35,217.57L131.35,217.57" style="fill:none;stroke:#FFC17A" />
<path d="M128.85,217.57L133.85,217.57" style="fill:none;stroke:#FFC17A" />
<path d="M128.85,217.57L133.85,217.57" style="fill:none;stroke:#FFC17A" />
<path d="M137.17,211.97L137.17,211.97" style="fill:none;stroke:#FFC17A" />
<path d="M134.67,211.97L139.67,211.97" style="fill:none;stroke:#FFC17A" />
<path d="M134.67,211.97L139.67,211.97" style="fill:none;stroke:#FFC17A" />
<path d="M143,223.57L143,223.57" style="fill:none;stroke:#FFC17A" />
<path d="M140.5,223.57L145.5,223.57" style="fill:none;stroke:#FFC17A" />
<path d="M140.5,223.57L145.5,223.57" style="fill:none;stroke:#FFC17A" />
<path d="M148.82,226.38L148.82,226.38" style="fill:none;stroke:#FFC17A" />
<path d="M146.32,226.38L151.32,226.38" style="fill:none;stroke:#FFC17A" />
<path d="M146.32,226.38L151.32,226.38" style="fill:none;stroke:#FFC17A" />
<path d="M154.65,208.89L154.65,208.89" style="fill:none;stroke:#FFC17A" />
<path d="M152.15,208.89L157.15,208.89" style="fill:none;stroke:#FFC17A" />
<path d="M152.15,208.89L157.15,208.89" style="fill:none;stroke:#FFC17A" />
<path d="M160.47,220.65L160.47,220.65" style="fill:none;stroke:#FFC17A" />
<path d="M157.97,220.65L162.97,220.65" style="fill:none;stroke:#FFC17A" />
<path d="M157.97,220.65L162.97,220.65" style="fill:none;stroke:#FFC17A" />
<path d="M166.3,225.03L166.3,225.03" style="fill:none;stroke:#FFC17A" />
<path d="M163.8,225.03L168.8,225.03" style="fill:none;stroke:#FFC17A" />
<path d="M163.8,225.03L168.8,225.03" style="fill:none;stroke:#FFC17A" />
<path d="M172.12,221.2L172.12,221.2" style="fill:none;stroke:#FFC17A" />
<path d="M169.62,221.2L174.62,221.2" style="fill:none;stroke:#FFC17A" />
<path d="M169.62,221.2L174.62,221.2" style="fill:none;stroke:#FFC17A" />
<path d="M177.95,211.15L177.95,211.15" style="fill:none;stroke:#FFC17A" />
<path d="M175.45,211.15L180.45,211.15" style="fill:none;stroke:#FFC17A" />
<path d="M175.45,211.15L180.45,211.15" style="fill:none;stroke:#FFC17A" />
<path d="M183.77,222.92L183.77,222.92" style="fill:none;stroke:#FFC17A" />
<path d="M181.27,222.92L186.27,222.92" style="fill:none;stroke:#FFC17A" />
<path d="M181.27,222.92L186.27,222.92" style="fill:none;stroke:#FFC17A" />
<path d="M189.6,222.04L189.6,222.04" style="fill:none;stroke:#FFC17A" />
<path d="M187.1,222.04L192.1,222.04" style="fill:none;stroke:#FFC17A" />
<path d="M187.1,222.04L192.1,222.04" style="fill:none;stroke:#FFC17A" />
<path d="M195.42,211.79L195.42,211.79" style="fill:none;stroke:#FFC17A" />
<path d="M192.92,211.79L197.92,211.79" style="fill:none;stroke:#FFC17A" />
<path d="M192.92,211.79L197.92,211.79" style="fill:none;stroke:#FFC17A" />
<path d="M201.25,208.4L201.25,208.4" style="fill:none;stroke:#FFC17A" />
<path d="M198.75,208.4L203.75,208.4" style="fill:none;stroke:#FFC17A" />
<path d="M198.75,208.4L203.75,208.4" style="fill:none;stroke:#FFC17A" />
<path d="M207.07,217.48L207.07,217.48" style="fill:none;stroke:#FFC17A" />
<path d="M204.57,217.48L209.57,217.48" style="fill:none;stroke:#FFC17A" />
<path d="M204.57,217.48L209.57,217.48" style="fill:none;stroke:#FFC17A" />
<path d="M212.9,225.93L212.9,225.93" style="fill:none;stroke:#FFC17A" />
<path d="M210.4,225.93L215.4,225.93" style="fill:none;stroke:#FFC17A" />
<path d="M210.4,225.93L215.4,225.93" style="fill:none;stroke:#FFC17A" />
<path d="M218.72,215.04L218.72,215.04" style="fill:none;stroke:#FFC17A" />
<path d="M216.22,215.04L221.22,215.04" style="fill:none;stroke:#FFC17A" />
<path d="M216.22,215.04L221.22,215.04" style="fill:none;stroke:#FFC17A" />
<path d="M224.55,211.54L224.55,211.54" style="fill:none;stroke:#FFC17A" />
<path d="M222.05,211.54L227.05,211.54" style="fill:none;stroke:#FFC17A" />
<path d="M222.05,211.54L227.05,211.54" style="fill:none;stroke:#FFC17A" />
<path d="M230.37,213.88L230.37,213.88" style="fill:none;stroke:#FFC17A" />
<path d="M227.87,213.88L232.87,213.88" style="fill:none;stroke:#FFC17A" />
<path d="M227.87,213.88L232.87,213.88" style="fill:none;stroke:#FFC17A" />
<path d="M236.2,219.78L236.2,219.78" style="fill:none;stroke:#FFC17A" />
<path d="M233.7,219.78L238.7,219.78" style="fill:none;stroke:#FFC17A" />
<path d="M233.7,219.78L238.7,219.78" style="fill:none;stroke:#FFC17A" />
<path d="M242.02,221.9L242.02,221.9" style="fill:none;stroke:#FFC17A" />
<path d="M239.52,221.9L244.52,221.9" style="fill:none;stroke:#FFC17A" />
<path d="M239.52,221.9L244.52,221.9" style="fill:none;stroke:#FFC17A" />
<path d="M247.85,216.66L247.85,216.66" style="fill:none;stroke:#FFC17A" />
<path d="M245.35,216.66L250.35,216.66" style="fill:none;stroke:#FFC17A" />
<path d="M245.35,216.66L250.35,216.66" style="fill:none;stroke:#FFC17A" />
<path d="M253.67,227.76L253.67,227.76" style="fill:none;stroke:#FFC17A" />
<path d="M251.17,227.76L256.17,227.76" style="fill:none;stroke:#FFC17A" />
<path d="M251.17,227.76L256.17,227.76" style="fill:none;stroke:#FFC17A" />
<path d="M259.5,227.5L259.5,227.5" style="fill:none;stroke:#FFC17A" />
<path d="M257,227.5L262,227.5" style="fill:none;stroke:#FFC17A" />
<path d="M257,227.5L262,227.5" style="fill:none;stroke:#FFC17A" />
<path d="M265.32,234.11L265.32,234.11" style="fill:none;stroke:#FFC17A" />
<path d="M262.82,234.11L267.82,234.11" style="fill:none;stroke:#FFC17A" />
<path d="M262.82,234.11L267.82,234.11" style="fill:none;stroke:#FFC17A" />
<path d="M271.15,231.14L271.15,231.14" style="fill:none;stroke:#FFC17A" />
<path d="M268.65,231.14L273.65,231.14" style="fill:none;stroke:#FFC17A" />
<path d="M268.65,231.14L273.65,231.14" style="fill:none;stroke:#FFC17A" />
<path d="M276.97,230.69L276.97,230.69" style="fill:none;stroke:#FFC17A" />
<path d="M274.47,230.69L279.47,230.69" style="fill:none;stroke:#FFC17A" />
<path d="M274.47,230.69L279.47,230.69" style="fill:none;stroke:#FFC17A" />
<path d="M282.8,225.87L282.8,225.87" style="fill:none;stroke:#FFC17A" />
<path d="M280.3,225.87L285.3,225.87" style="fill:none;stroke:#FFC17A" />
<path d="M280.3,225.87L285.3,225.87" style="fill:none;stroke:#FFC17A" />
<path d="M288.62,231.52L288.62,231.52" style="fill:none;stroke:#FFC17A" />
<path d="M286.12,231.52L291.12,231.52" style="fill:none;stroke:#FFC17A" />
<path d="M286.12,231.52L291.12,231.52" style="fill:none;stroke:#FFC17A" />
<path d="M294.45,236.39L294.45,236.39" style="fill:none;stroke:#FFC17A" />
<path d="M291.95,236.39L296.95,236.39" style="fill:none;stroke:#FFC17A" />
<path d="M291.95,236.39L296.95,236.39" style="fill:none;stroke:#FFC17A" />
<path d="M300.27,230.2L300.27,230.2" style="fill:none;stroke:#FFC17A" />
<path d="M297.77,230.2L302.77,230.2" style="fill:none;stroke:#FFC17A" />
<path d="M297.77,230.2L302.77,230.2" style="fill:none;stroke:#FFC17A" />
<path d="M306.1,232.21L306.1,232.21" style="fill:none;stroke:#FFC17A" />
<path d="M303.6,232.21L308.6,232.21" style="fill:none;stroke:#FFC17A" />
<path d="M303.6,232.21L308.6,232.21" style="fill:none;stroke:#FFC17A" />
<path d="M311.92,244.77L311.92,244.77" style="fill:none;stroke:#FFC17A" />
<path d="M309.42,244.77L314.42,244.77" style="fill:none;stroke:#FFC17A" />
<path d="M309.42,244.77L314.42,244.77" style="fill:none;stroke:#FFC17A" />
<path d="M317.75,250.15L317.75,250.15" style="fill:none;stroke:#FFC17A" />
<path d="M315.25,250.15L320.25,250.15" style="fill:none;stroke:#FFC17A" />
<path d="M315.25,250.15L320.25,250.15" style="fill:none;stroke:#FFC17A" />
<path d="M323.57,254.33L323.57,254.33" style="fill:none;stroke:#FFC17A" />
<path d="M321.07,254.33L326.07,254.33" style="fill:none;stroke:#FFC17A" />
<path d="M321.07,254.33L326.07,254.33" style="fill:none;stroke:#FFC17A" />
<path d="M329.4,265.6L329.4,265.6" style="fill:none;stroke:#FFC17A" />
<path d="M326.9,265.6L331.9,265.6" style="fill:none;stroke:#FFC17A" />
<path d="M326.9,265.6L331.9,265.6" style="fill:none;stroke:#FFC17A" />
<path d="M335.22,259.9L335.22,259.9" style="fill:none;stroke:#FFC17A" />
<path d="M332.72,259.9L337.72,259.9" style="fill:none;stroke:#FFC17A" />
<path d="M332.72,259.9L337.72,259.9" style="fill:none;stroke:#FFC17A" />
<path d="M341.05,261.27L341.05,261.27" style="fill:none;stroke:#FFC17A" />
<path d="M338.55,261.27L343.55,261.27" style="fill:none;stroke:#FFC17A" />
<path d="M338.55,261.27L343.55,261.27" style="fill:none;stroke:#FFC17A" />
<path d="M346.87,262.35L346.87,262.35" style="fill:none;stroke:#FFC17A" />
<path d="M344.37,262.35L349.37,262.35" style="fill:none;stroke:#FFC17A" />
<path d="M344.37,262.35L349.37,262.35" style="fill:none;stroke:#FFC17A" />
<path d="M352.7,268.95L352.7,268.95" style="fill:none;stroke:#FFC17A" />
<path d="M350.2,268.95L355.2,268.95" style="fill:none;stroke:#FFC17A" />
<path d="M350.2,268.95L355.2,268.95" style="fill:none;stroke:#FFC17A" />
<path d="M358.52,277.28L358.52,277.28" style="fill:none;stroke:#FFC17A" />
<path d="M356.02,277.28L361.02,277.28" style="fill:none;stroke:#FFC17A" />
<path d="M356.02,277.28L361.02,277.28" style="fill:none;stroke:#FFC17A" />
<path d="M364.35,287.6L364.35,287.6" style="fill:none;stroke:#FFC17A" />
<path d="M361.85,287.6L366.85,287.6" style="fill:none;stroke:#FFC17A" />
<path d="M361.85,287.6L366.85,287.6" style="fill:none;stroke:#FFC17A" />
<path d="M370.17,284.93L370.17,284.93" style="fill:none;stroke:#FFC17A" />
<path d="M367.67,284.93L372.67,284.93" style="fill:none;stroke:#FFC17A" />
<path d="M367.67,284.93L372.67,284.93" style="fill:none;stroke:#FFC17A" />
<path d="M376,289.95L376,289.95" style="fill:none;stroke:#FFC17A" />
<path d="M373.5,289.95L378.5,289.95" style="fill:none;stroke:#FFC17A" />
<path d="M373.5,289.95L378.5,289.95" style="fill:none;stroke:#FFC17A" />
<path d="M381.82,299.11L381.82,299.11" style="fill:none;stroke:#FFC17A" />
<path d="M379.32,299.11L384.32,299.11" style="fill:none;stroke:#FFC17A" />
<path d="M379.32,299.11L384.32,299.11" style="fill:none;stroke:#FFC17A" />
<path d="M387.65,305.96L387.65,305.96" style="fill:none;stroke:#FFC17A" />
<path d="M385.15,305.96L390.15,305.96" style="fill:none;stroke:#FFC17A" />
<path d="M385.15,305.96L390.15,305.96" style="fill:none;stroke:#FFC17A" />
<path d="M393.47,317.62L393.47,317.62" style="fill:none;stroke:#FFC17A" />
<path d="M390.97,317.62L395.97,317.62" style="fill:none;stroke:#FFC17A" />
<path d="M390.97,317.62L395.97,317.62" style="fill:none;stroke:#FFC17A" />
<path d="M399.3,320.45L399.3,320.45" style="fill:none;stroke:#FFC17A" />
<path d="M396.8,320.45L401.8,320.45" style="fill:none;stroke:#FFC17A" />
<path d="M396.8,320.45L401.8,320.45" style="fill:none;stroke:#FFC17A" />
<path d="M405.12,333.67L405.12,333.67" style="fill:none;stroke:#FFC17A" />
<path d="M402.62,333.67L407.62,333.67" style="fill:none;stroke:#FFC17A" />
<path d="M402.62,333.67L407.62,333.67" style="fill:none;stroke:#FFC17A" />
<path d="M410.95,347.17L410.95,347.17" style="fill:none;stroke:#FFC17A" />
<path d="M408.45,347.17L413.45,347.17" style="fill:none;stroke:#FFC17A" />
<path d="M408.45,347.17L413.45,347.17" style="fill:none;stroke:#FFC17A" />
<path d="M416.77,353.78L416.77,353.78" style="fill:none;stroke:#FFC17A" />
<path d="M414.27,353.78L419.27,353.78" style="fill:none;stroke:#FFC17A" />
<path d="M414.27,353.78L419.27,353.78" style="fill:none;stroke:#FFC17A" />
<path d="M422.6,369.83L422.6,369.83" style="fill:none;stroke:#FFC17A" />
<path d="M420.1,369.83L425.1,369.83" style="fill:none;stroke:#FFC17A" />
<path d="M420.1,369.83L425.1,369.83" style="fill:none;stroke:#FFC17A" />
<path d="M428.42,374.89L428.42,374.89" style="fill:none;stroke:#FFC17A" />
<path d="M425.92,374.89L430.92,374.89" style="fill:none;stroke:#FFC17A" />
<path d="M425.92,374.89L430.92,374.89" style="fill:none;stroke:#FFC17A" />
<path d="M434.25,373.14L434.25,373.14" style="fill:none;stroke:#FFC17A" />
<path d="M431.75,373.14L436.75,373.14" style="fill:none;stroke:#FFC17A" />
<path d="M431.75,373.14L436.75,373.14" style="fill:none;stroke:#FFC17A" />
<path d="M440.07,387.78L440.07,387.78" style="fill:none;stroke:#FFC17A" />
<path d="M437.57,387.78L442.57,387.78" style="fill:none;stroke:#FFC17A" />
<path d="M437.57,387.78L442.57,387.78" style="fill:none;stroke:#FFC17A" />
<path d="M445.9,405.71L445.9,405.71" style="fill:none;stroke:#FFC17A" />
<path d="M443.4,405.71L448.4,405.71" style="fill:none;stroke:#FFC17A" />
<path d="M443.4,405.71L448.4,405.71" style="fill:none;stroke:#FFC17A" />
<path d="M451.72,421.31L451.72,421.31" style="fill:none;stroke:#FFC17A" />
<path d="M449.22,421.31L454.22,421.31" style="fill:none;stroke:#FFC17A" />
<path d="M449.22,421.31L454.22,421.31" style="fill:none;stroke:#FFC17A" />
<path d="M457.55,437.58L457.55,437.58" style="fill:none;stroke:#FFC17A" />
<path d="M455.05,437.58L460.05,437.58" style="fill:none;stroke:#FFC17A" />
<path d="M455.05,437.58L460.05,437.58" style="fill:none;stroke:#FFC17A" />
<path d="M463.37,441.54L463.37,441.54" style="fill:none;stroke:#FFC17A" />
<path d="M460.87,441.54L465.87,441.54" style="fill:none;stroke:#FFC17A" />
<path d="M460.87,441.54L465.87,441.54" style="fill:none;stroke:#FFC17A" />
<path d="M469.2,458.92L469.2,458.92" style="fill:none;stroke:#FFC17A" />
<path d="M466.7,458.92L471.7,458.92" style="fill:none;stroke:#FFC17A" />
<path d="M466.7,458.92L471.7,458.92" style="fill:none;stroke:#FFC17A" />
<path d="M475.02,474.55L475.02,474.55" style="fill:none;stroke:#FFC17A" />
<path d="M472.52,474.55L477.52,474.55" style="fill:none;stroke:#FFC17A" />
<path d="M472.52,474.55L477.52,474.55" style="fill:none;stroke:#FFC17A" />
<path d="M480.85,497.05L480.85,497.05" style="fill:none;stroke:#FFC17A" />
<path d="M478.35,497.05L483.35,497.05" style="fill:none;stroke:#FFC17A" />
<path d="M478.35,497.05L483.35,497.05" style="fill:none;stroke:#FFC17A" />
<path d="M486.67,504.91L486.67,504.91" style="fill:none;stroke:#FFC17A" />
<path d="M484.17,504.91L489.17,504.91" style="fill:none;stroke:#FFC17A" />
<path d="M484.17,504.91L489.17,504.91" style="fill:none;stroke:#FFC17A" />
<path d="M492.5,523.26L492.5,523.26" style="fill:none;stroke:#FFC17A" />
<path d="M490,523.26L495,523.26" style="fill:none;stroke:#FFC17A" />
<path d="M490,523.26L495,523.26" style="fill:none;stroke:#FFC17A" />
<path d="M498.32,547.93L498.32,547.93" style="fill:none;stroke:#FFC17A" />
<path d="M495.82,547.93L500.82,547.93" style="fill:none;stroke:#FFC17A" />
<path d="M495.82,547.93L500.82,547.93" style="fill:none;stroke:#FFC17A" />
<path d="M504.15,573.87L504.15,573.87" style="fill:none;stroke:#FFC17A" />
<path d="M501.65,573.87L506.65,573.87" style="fill:none;stroke:#FFC17A" />
<path d="M501.65,573.87L506.65,573.87" style="fill:none;stroke:#FFC17A" />
<path d="M509.97,594.49L509.97,594.49" style="fill:none;stroke:#FFC17A" />
<path d="M507.47,594.49L512.47,594.49" style="fill:none;stroke:#FFC17A" />
<path d="M507.47,594.49L512.47,594.49" style="fill:none;stroke:#FFC17A" />
<path d="M515.8,601.41L515.8,601.41" style="fill:none;stroke:#FFC17A" />
<path d="M513.3,601.41L518.3,601.41" style="fill:none;stroke:#FFC17A" />
<path d="M513.3,601.41L518.3,601.41" style="fill:none;stroke:#FFC17A" />
<path d="M521.62,622.11L521.62,622.11" style="fill:none;stroke:#FFC17A" />
<path d="M519.12,622.11L524.12,622.11" style="fill:none;stroke:#FFC17A" />
<path d="M519.12,622.11L524.12,622.11" style="fill:none;stroke:#FFC17A" />
<path d="M527.45,646.36L527.45,646.36" style="fill:none;stroke:#FFC17A" />
<path d="M524.95,646.36L529.95,646.36" style="fill:none;stroke:#FFC17A" />
<path d="M524.95,646.36L529.95,646.36" style="fill:none;stroke:#FFC17A" />
<path d="M533.27,659.09L533.27,659.09" style="fill:none;stroke:#FFC17A" />
<path d="M530.77,659.09L535.77,659.09" style="fill:none;stroke:#FFC17A" />
<path d="M530.77,659.09L535.77,659.09" style="fill:none;stroke:#FFC17A" />
<path d="M539.1,680.45L539.1,680.45" style="fill:none;stroke:#FFC17A" />
<path d="M536.6,680.45L541.6,680.45" style="fill:none;stroke:#FFC17A" />
<path d="M536.6,680.45L541.6,680.45" style="fill:none;stroke:#FFC17A" />
<path d="M544.92,707.75L544.92,707.75" style="fill:none;stroke:#FFC17A" />
<path d="M542.42,707.75L547.42,707.75" style="fill:none;stroke:#FFC17A" />
<path d="M542.42,707.75L547.42,707.75" style="fill:none;stroke:#FFC17A" />
<path d="M550.75,723.23L550.75,723.23" style="fill:none;stroke:#FFC17A" />
<path d="M548.25,723.23L553.25,723.23" style="fill:none;stroke:#FFC17A" />
<path d="M548.25,723.23L553.25,723.23" style="fill:none;stroke:#FFC17A" />
<path d="M556.57,759.45L556.57,759.45" style="fill:none;stroke:#FFC17A" />
<path d="M554.07,759.45L559.07,759.45" style="fill:none;stroke:#FFC17A" />
<path d="M554.07,759.45L559.07,759.45" style="fill:none;stroke:#FFC17A" />
<path d="M562.4,777.63L562.4,777.63" style="fill:none;stroke:#FFC17A" />
<path d="M559.9,777.63L564.9,777.63" style="fill:none;stroke:#FFC17A" />
<path d="M559.9,777.63L564.9,777.63" style="fill:none;stroke:#FFC17A" />
<path d="M568.22,788.44L568.22,788.44" style="fill:none;stroke:#FFC17A" />
<path d="M565.72,788.44L570.72,788.44" style="fill:none;stroke:#FFC17A" />
<path d="M565.72,788.44L570.72,788.44" style="fill:none;stroke:#FFC17A" />
<path d="M574.05,818.71L574.05,818.71" style="fill:none;stroke:#FFC17A" />
<path d="M571.55,818.71L576.55,818.71" style="fill:none;stroke:#FFC17A" />
<path d="M571.55,818.71L576.55,818.71" style="fill:none;stroke:#FFC17A" />
<path d="M579.87,849.28L579.87,849.28" style="fill:none;stroke:#FFC17A" />
<path d="M577.37,849.28L582.37,849.28" style="fill:none;stroke:#FFC17A" />
<path d="M577.37,849.28L582.37,849.28" style="fill:none;stroke:#FFC17A" />
<path d="M585.7,848.74L585.7,848.74" style="fill:none;stroke:#FFC17A" />
<path d="M583.2,848.74L588.2,848.74" style="fill:none;stroke:#FFC17A" />
<path d="M583.2,848.74L588.2,848.74" style="fill:none;stroke:#FFC17A" />
<path d="M591.52,848.53L591.52,848.53" style="fill:none;stroke:#FFC17A" />
<path d="M589.02,848.53L594.02,848.53" style="fill:none;stroke:#FFC17A" />
<path d="M589.02,848.53L594.02,848.53" style="fill:none;stroke:#FFC17A" />
<path d="M597.35,875.49L597.35,875.49" style="fill:none;stroke:#FFC17A" />
<path d="M594.85,875.49L599.85,875.49" style="fill:none;stroke:#FFC17A" />
<path d="M594.85,875.49L599.85,875.49" style="fill:none;stroke:#FFC17A" />
<path d="M603.17,872.09L603.17,872.09" style="fill:none;stroke:#FFC17A" />
<path d="M600.67,872.09L605.67,872.09" style="fill:none;stroke:#FFC17A" />
<path d="M600.67,872.09L605.67,872.09" style="fill:none;stroke:#FFC17A" />
<path d="M609,885.33L609,885.33" style="fill:none;stroke:#FFC17A" />
<path d="M606.5,885.33L611.5,885.33" style="fill:none;stroke:#FFC17A" />
<path d="M606.5,885.33L611.5,885.33" style="fill:none;stroke:#FFC17A" />
<path d="M614.82,895.47L614.82,895.47" style="fill:none;stroke:#FFC17A" />
<path d="M612.32,895.47L617.32,895.47" style="fill:none;stroke:#FFC17A" />
<path d="M612.32,895.47L617.32,895.47" style="fill:none;stroke:#FFC17A" />
<path d="M620.65,893.97L620.65,893.97" style="fill:none;stroke:#FFC17A" />
<path d="M618.15,893.97L623.15,893.97" style="fill:none;stroke:#FFC17A" />
<path d="M618.15,893.97L623.15,893.97" style="fill:none;stroke:#FFC17A" />
<path d="M626.47,894.29L626.47,894.29" style="fill:none;stroke:#FFC17A" />
<path d="M623.97,894.29L628.97,894.29" style="fill:none;stroke:#FFC17A" />
<path d="M623.97,894.29L628.97,894.29" style="fill:none;stroke:#FFC17A" />
<path d="M632.3,880.03L632.3,880.03" style="fill:none;stroke:#FFC17A" />
<path d="M629.8,880.03L634.8,880.03" style="fill:none;stroke:#FFC17A" />
<path d="M629.8,880.03L634.8,880.03" style="fill:none;stroke:#FFC17A" />
<path d="M638.12,865.67L638.12,865.67" style="fill:none;stroke:#FFC17A" />
<path d="M635.62,865.67L640.62,865.67" style="fill:none;stroke:#FFC17A" />
<path d="M635.62,865.67L640.62,865.67" style="fill:none;stroke:#FFC17A" />
<path d="M643.95,856.51L643.95,856.51" style="fill:none;stroke:#FFC17A" />
<path d="M641.45,856.51L646.45,856.51" style="fill:none;stroke:#FFC17A" />
<path d="M641.45,856.51L646.45,856.51" style="fill:none;stroke:#FFC17A" />
<path d="M649.77,846.13L649.77,846.13" style="fill:none;stroke:#FFC17A" />
<path d="M647.27,846.13L652.27,846.13" style="fill:none;stroke:#FFC17A" />
<path d="M647.27,846.13L652.27,846.13" style="fill:none;stroke:#FFC17A" />
<path d="M655.6,841.63L655.6,841.63" style="fill:none;stroke:#FFC17A" />
<path d="M653.1,841.63L658.1,841.63" style="fill:none;stroke:#FFC17A" />
<path d="M653.1,841.63L658.1,841.63" style="fill:none;stroke:#FFC17A" />
<path d="M661.42,824.3L661.42,824.3" style="fill:none;stroke:#FFC17A" />
<path d="M658.92,824.3L663.92,824.3" style="fill:none;stroke:#FFC17A" />
<path d="M658.92,824.3L663.92,824.3" style="fill:none;stroke:#FFC17A" />
<path d="M667.25,800.82L667.25,800.82" style="fill:none;stroke:#FFC17A" />
<path d="M664.75,800.82L669.75,800.82" style="fill:none;stroke:#FFC17A" />
<path d="M664.75,800.82L669.75,800.82" style="fill:none;stroke:#FFC17A" />
<path d="M673.07,795.34L673.07,795.34" style="fill:none;stroke:#FFC17A" />
<path d="M670.57,795.34L675.57,795.34" style="fill:none;stroke:#FFC17A" />
<path d="M670.57,795.34L675.57,795.34" style="fill:none;stroke:#FFC17A" />
<path d="M678.9,775.46L678.9,775.46" style="fill:none;stroke:#FFC17A" />
<path d="M676.4,775.46L681.4,775.46" style="fill:none;stroke:#FFC17A" />
<path d="M676.4,775.46L681.4,775.46" style="fill:none;stroke:#FFC17A" />
<path d="M684.72,760.2L684.72,760.2" style="fill:none;stroke:#FFC17A" />
<path d="M682.22,760.2L687.22,760.2" style="fill:none;stroke:#FFC17A" />
<path d="M682.22,760.2L687.22,760.2" style="fill:none;stroke:#FFC17A" />
<path d="M690.55,745.45L690.55,745.45" style="fill:none;stroke:#FFC17A" />
<path d="M688.05,745.45L693.05,745.45" style="fill:none;stroke:#FFC17A" />
<path d="M688.05,745.45L693.05,745.45" style="fill:none;stroke:#FFC17A" />
<path d="M696.37,726.56L696.37,726.56" style="fill:none;stroke:#FFC17A" />
<path d="M693.87,726.56L698.87,726.56" style="fill:none;stroke:#FFC17A" />
<path d="M693.87,726.56L698.87,726.56" style="fill:none;stroke:#FFC17A" />
<path d="M702.2,696.28L702.2,696.28" style="fill:none;stroke:#FFC17A" />
<path d="M699.7,696.28L704.7,696.28" style="fill:none;stroke:#FFC17A" />
<path d="M699.7,696.28L704.7,696.28" style="fill:none;stroke:#FFC17A" />
<path d="M708.02,693.06L708.02,693.06" style="fill:none;stroke:#FFC17A" />
<path d="M705.52,693.06L710.52,693.06" style="fill:none;stroke:#FFC17A" />
<path d="M705.52,693.06L710.52,693.06" style="fill:none;stroke:#FFC17A" />
<path d="M713.85,690.62L713.85,690.62" style="fill:none;stroke:#FFC17A" />
<path d="M711.35,690.62L716.35,690.62" style="fill:none;stroke:#FFC17A" />
<path d="M711.35,690.62L716.35,690.62" style="fill:none;stroke:#FFC17A" />
<path d="M719.67,654.3L719.67,654.3" style="fill:none;stroke:#FFC17A" />
<path d="M717.17,654.3L722.17,654.3" style="fill:none;stroke:#FFC17A" />
<path d="M717.17,654.3L722.17,654.3" style="fill:none;stroke:#FFC17A" />
<path d="M725.5,653.88L725.5,653.88" style="fill:none;stroke:#FFC17A" />
<path d="M723,653.88L728,653.88" style="fill:none;stroke:#FFC17A" />
<path d="M723,653.88L728,653.88" style="fill:none;stroke:#FFC17A" />
<path d="M731.32,635.48L731.32,635.48" style="fill:none;stroke:#FFC17A" />
<path d="M728.82,635.48L733.82,635.48" style="fill:none;stroke:#FFC17A" />
<path d="M728.82,635.48L733.82,635.48" style="fill:none;stroke:#FFC17A" />
<path d="M737.15,635.47L737.15,635.47" style="fill:none;stroke:#FFC17A" />
<path d="M734.65,635.47L739.65,635.47" style="fill:none;stroke:#FFC17A" />
<path d="M734.65,635.47L739.65,635.47" style="fill:none;stroke:#FFC17A" />
<path d="M742.97,613.62L742.97,613.62" style="fill:none;stroke:#FFC17A" />
<path d="M740.47,613.62L745.47,613.62" style="fill:none;stroke:#FFC17A" />
<path d="M740.47,613.62L745.47,613.62" style="fill:none;stroke:#FFC17A" />
<path d="M748.8,594.5L748.8,594.5" style="fill:none;stroke:#FFC17A" />
<path d="M746.3,594.5L751.3,594.5" style="fill:none;stroke:#FFC17A" />
<path d="M746.3,594.5L751.3,594.5" style="fill:none;stroke:#FFC17A" />
<path d="M754.62,597.22L754.62,597.22" style="fill:none;stroke:#FFC17A" />
<path d="M752.12,597.22L757.12,597.22" style="fill:none;stroke:#FFC17A" />
<path d="M752.12,597.22L757.12,597.22" style="fill:none;stroke:#FFC17A" />
<path d="M760.45,581.66L760.45,581.66" style="fill:none;stroke:#FFC17A" />
<path d="M757.95,581.66L762.95,581.66" style="fill:none;stroke:#FFC17A" />
<path d="M757.95,581.66L762.95,581.66" style="fill:none;stroke:#FFC17A" />
<path d="M766.27,577.55L766.27,577.55" style="fill:none;stroke:#FFC17A" />
<path d="M763.77,577.55L768.77,577.55" style="fill:none;stroke:#FFC17A" />
<path d="M763.77,577.55L768.77,577.55" style="fill:none;stroke:#FFC17A" />
<path d="M772.1,569.23L772.1,569.23" style="fill:none;stroke:#FFC17A" />
<path d="M769.6,569.23L774.6,569.23" style="fill:none;stroke:#FFC17A" />
<path d="M769.6,569.23L774.6,569.23" style="fill:none;stroke:#FFC17A" />
<path d="M777.92,555.46L777.92,555.46" style="fill:none;stroke:#FFC17A" />
<path d="M775.42,555.46L780.42,555.46" style="fill:none;stroke:#FFC17A" />
<path d="M775.42,555.46L780.42,555.46" style="fill:none;stroke:#FFC17A" />
<path d="M783.75,543.52L783.75,543.52" style="fill:none;stroke:#FFC17A" />
<path d="M781.25,543.52L786.25,543.52" style="fill:none;stroke:#FFC17A" />
<path d="M781.25,543.52L786.25,543.52" style="fill:none;stroke:#FFC17A" />
<path d="M789.57,534.05L789.57,534.05" style="fill:none;stroke:#FFC17A" />
<path d="M787.07,534.05L792.07,534.05" style="fill:none;stroke:#FFC17A" />
<path d="M787.07,534.05L792.07,534.05" style="fill:none;stroke:#FFC17A" />
<path d="M795.4,523.19L795.4,523.19" style="fill:none;stroke:#FFC17A" />
<path d="M792.9,523.19L797.9,523.19" style="fill:none;stroke:#FFC17A" />
<path d="M792.9,523.19L797.9,523.19" style="fill:none;stroke:#FFC17A" />
<path d="M801.22,509.89L801.22,509.89" style="fill:none;stroke:#FFC17A" />
<path d="M798.72,509.89L803.72,509.89" style="fill:none;stroke:#FFC17A" />
<path d="M798.72,509.89L803.72,509.89" style="fill:none;stroke:#FFC17A" />
<path d="M807.05,501.43L807.05,501.43" style="fill:none;stroke:#FFC17A" />
<path d="M804.55,501.43L809.55,501.43" style="fill:none;stroke:#FFC17A" />
<path d="M804.55,501.43L809.55,501.43" style="fill:none;stroke:#FFC17A" />
<path d="M812.87,501.85L812.87,501.85" style="fill:none;stroke:#FFC17A" />
<path d="M810.37,501.85L815.37,501.85" style="fill:none;stroke:#FFC17A" />
<path d="M810.37,501.85L815.37,501.85" style="fill:none;stroke:#FFC17A" />
<path d="M818.7,490.19L818.7,490.19" style="fill:none;stroke:#FFC17A" />
<path d="M816.2,490.19L821.2,490.19" style="fill:none;stroke:#FFC17A" />
<path d="M816.2,490.19L821.2,490.19" style="fill:none;stroke:#FFC17A" />
<path d="M824.52,470.15L824.52,470.15" style="fill:none;stroke:#FFC17A" />
<path d="M822.02,470.15L827.02,470.15" style="fill:none;stroke:#FFC17A" />
<path d="M822.02,470.15L827.02,470.15" style="fill:none;stroke:#FFC17A" />
<path d="M830.35,471.9L830.35,471.9" style="fill:none;stroke:#FFC17A" />
<path d="M827.85,471.9L832.85,471.9" style="fill:none;stroke:#FFC17A" />
<path d="M827.85,471.9L832.85,471.9" style="fill:none;stroke:#FFC17A" />
<path d="M836.17,460.44L836.17,460.44" style="fill:none;stroke:#FFC17A" />
<path d="M833.67,460.44L838.67,460.44" style="fill:none;stroke:#FFC17A" />
<path d="M833.67,460.44L838.67,460.44" style="fill:none;stroke:#FFC17A" />
<path d="M842,454.21L842,454.21" style="fill:none;stroke:#FFC17A" />
<path d="M839.5,454.21L844.5,454.21" style="fill:none;stroke:#FFC17A" />
<path d="M839.5,454.21L844.5,454.21" style="fill:none;stroke:#FFC17A" />
<path d="M847.82,448.1L847.82,448.1" style="fill:none;stroke:#FFC17A" />
<path d="M845.32,448.1L850.32,448.1" style="fill:none;stroke:#FFC17A" />
<path d="M845.32,448.1L850.32,448.1" style="fill:none;stroke:#FFC17A" />
<path d="M853.65,445.62L853.65,445.62" style="fill:none;stroke:#FFC17A" />
<path d="M851.15,445.62L856.15,445.62" style="fill:none;stroke:#FFC17A" />
<path d="M851.15,445.62L856.15,445.62" style="fill:none;stroke:#FFC17A" />
<path d="M859.47,433.69L859.47,433.69" style="fill:none;stroke:#FFC17A" />
<path d="M856.97,433.69L861.97,433.69" style="fill:none;stroke:#FFC17A" />
<path d="M856.97,433.69L861.97,433.69" style="fill:none;stroke:#FFC17A" />
<path d="M865.3,432.33L865.3,432.33" style="fill:none;stroke:#FFC17A" />
<path d="M862.8,432.33L867.8,432.33" style="fill:none;stroke:#FFC17A" />
<path d="M862.8,432.33L867.8,432.33" style="fill:none;stroke:#FFC17A" />
<path d="M871.12,428.11L871.12,428.11" style="fill:none;stroke:#FFC17A" />
<path d="M868.62,428.11L873.62,428.11" style="fill:none;stroke:#FFC17A" />
<path d="M868.62,428.11L873.62,428.11" style="fill:none;stroke:#FFC17A" />
<path d="M876.95,419.54L876.95,419.54" style="fill:none;stroke:#FFC17A" />
<path d="M874.45,419.54L879.45,419.54" style="fill:none;stroke:#FFC17A" />
<path d="M874.45,419.54L879.45,419.54" style="fill:none;stroke:#FFC17A" />
<path d="M882.77,418.93L882.77,418.93" style="fill:none;stroke:#FFC17A" />
<path d="M880.27,418.93L885.27,418.93" style="fill:none;stroke:#FFC17A" />
<path d="M880.27,418.93L885.27,418.93" style="fill:none;stroke:#FFC17A" />
<path d="M888.6,421.69L888.6,421.69" style="fill:none;stroke:#FFC17A" />
<path d="M886.1,421.69L891.1,421.69" style="fill:none;stroke:#FFC17A" />
<path d="M886.1,421.69L891.1,421.69" style="fill:none;stroke:#FFC17A" />
<path d="M894.42,411.74L894.42,411.74" style="fill:none;stroke:#FFC17A" />
<path d="M891.92,411.74L896.92,411.74" style="fill:none;stroke:#FFC17A" />
<path d="M891.92,411.74L896.92,411.74" style="fill:none;stroke:#FFC17A" />
<path d="M900.25,406.78L900.25,406.78" style="fill:none;stroke:#FFC17A" />
<path d="M897.75,406.78L902.75,406.78" style="fill:none;stroke:#FFC17A" />
<path d="M897.75,406.78L902.75,406.78" style="fill:none;stroke:#FFC17A" />
<path d="M906.07,411.23L906.07,411.23" style="fill:none;stroke:#FFC17A" />
<path d="M903.57,411.23L908.57,411.23" style="fill:none;stroke:#FFC17A" />
<path d="M903.57,411.23L908.57,411.23" style="fill:none;stroke:#FFC17A" />
<path d="M911.9,394.61L911.9,394.61" style="fill:none;stroke:#FFC17A" />
<path d="M909.4,394.61L914.4,394.61" style="fill:none;stroke:#FFC17A" />
<path d="M909.4,394.61L914.4,394.61" style="fill:none;stroke:#FFC17A" />
<path d="M917.72,397.62L917.72,397.62" style="fill:none;stroke:#FFC17A" />
<path d="M915.22,397.62L920.22,397.62" style="fill:none;stroke:#FFC17A" />
<path d="M915.22,397.62L920.22,397.62" style="fill:none;stroke:#FFC17A" />
<path d="M923.55,395.06L923.55,395.06" style="fill:none;stroke:#FFC17A" />
<path d="M921.05,395.06L926.05,395.06" style="fill:none;stroke:#FFC17A" />
<path d="M921.05,395.06L926.05,395.06" style="fill:none;stroke:#FFC17A" />
<path d="M929.37,397.75L929.37,397.75" style="fill:none;stroke:#FFC17A" />
<path d="M926.87,397.75L931.87,397.75" style="fill:none;stroke:#FFC17A" />
<path d="M926.87,397.75L931.87,397.75" style="fill:none;stroke:#FFC17A" />
<path d="M935.2,389.85L935.2,389.85" style="fill:none;stroke:#FFC17A" />
<path d="M932.7,389.85L937.7,389.85" style="fill:none;stroke:#FFC17A" />
<path d="M932.7,389.85L937.7,389.85" style="fill:none;stroke:#FFC17A" />
<path d="M941.02,394.42L941.02,394.42" style="fill:none;stroke:#FFC17A" />
<path d="M938.52,394.42L943.52,394.42" style="fill:none;stroke:#FFC17A" />
<path d="M938.52,394.42L943.52,394.42" style="fill:none;stroke:#FFC17A" />
<path d="M946.85,391.21L946.85,391.21" style="fill:none;stroke:#FFC17A" />
<path d="M944.35,391.21L949.35,391.21" style="fill:none;stroke:#FFC17A" />
<path d="M944.35,391.21L949.35,391.21" style="fill:none;stroke:#FFC17A" />
<path d="M952.67,400.41L952.67,400.41" style="fill:none;stroke:#FFC17A" />
<path d="M950.17,400.41L955.17,400.41" style="fill:none;stroke:#FFC17A" />
<path d="M950.17,400.41L955.17,400.41" style="fill:none;stroke:#FFC17A" />
<path d="M958.5,399.12L958.5,399.12" style="fill:none;stroke:#FFC17A" />
<path d="M956,399.12L961,399.12" style="fill:none;stroke:#FFC17A" />
<path d="M956,399.12L961,399.12" style="fill:none;stroke:#FFC17A" />
<path d="M964.32,393.97L964.32,393.97" style="fill:none;stroke:#FFC17A" />
<path d="M961.82,393.97L966.82,393.97" style="fill:none;stroke:#FFC17A" />
<path d="M961.82,393.97L966.82,393.97" style="fill:none;stroke:#FFC17A" />
<path d="M970.15,394.68L970.15,394.68" style="fill:none;stroke:#FFC17A" />
<path d="M967.65,394.68L972.65,394.68" style="fill:none;stroke:#FFC17A" />
<path d="M967.65,394.68L972.65,394.68" style="fill:none;stroke:#FFC17A" />
<path d="M975.97,391.56L975.97,391.56" style="fill:none;stroke:#FFC17A" />
<path d="M973.47,391.56L978.47,391.56" style="fill:none;stroke:#FFC17A" />
<path d="M973.47,391.56L978.47,391.56" style="fill:none;stroke:#FFC17A" />
<path d="M981.8,389.78L981.8,389.78" style="fill:none;stroke:#FFC17A" />
<path d="M979.3,389.78L984.3,389.78" style="fill:none;stroke:#FFC17A" />
<path d="M979.3,389.78L984.3,389.78" style="fill:none;stroke:#FFC17A" />
<path d="M987.62,399.95L987.62,399.95" style="fill:none;stroke:#FFC17A" />
<path d="M985.12,399.95L990.12,399.95" style="fill:none;stroke:#FFC17A" />
<path d="M985.12,399.95L990.12,399.95" style="fill:none;stroke:#FFC17A" />
<path d="M993.45,394.88L993.45,394.88" style="fill:none;stroke:#FFC17A" />
<path d="M990.95,394.88L995.95,394.88" style="fill:none;stroke:#FFC17A" />
<path d="M990.95,394.88L995.95,394.88" style="fill:none;stroke:#FFC17A" />
<path d="M999.27,398.15L999.27,398.15" style="fill:none;stroke:#FFC17A" />
<path d="M996.77,398.15L1001.8,398.15" style="fill:none;stroke:#FFC17A" />
<path d="M996.77,398.15L1001.8,398.15" style="fill:none;stroke:#FFC17A" />
<path d="M1005.1,400.27L1005.1,400.27" style="fill:none;stroke:#FFC17A" />
<path d="M1002.6,400.27L1007.6,400.27" style="fill:none;stroke:#FFC17A" />
<path d="M1002.6,400.27L1007.6,400.27" style="fill:none;stroke:#FFC17A" />
<path d="M1010.9,387.64L1010.9,387.64" style="fill:none;stroke:#FFC17A" />
<path d="M1008.4,387.64L1013.4,387.64" style="fill:none;stroke:#FFC17A" />
<path d="M1008.4,387.64L1013.4,387.64" style="fill:none;stroke:#FFC17A" />
<path d="M1016.7,391.59L1016.7,391.59" style="fill:none;stroke:#FFC17A" />
<path d="M1014.2,391.59L1019.2,391.59" style="fill:none;stroke:#FFC17A" />
<path d="M1014.2,391.59L1019.2,391.59" style="fill:none;stroke:#FFC17A" />
<path d="M1022.6,389.16L1022.6,389.16" style="fill:none;stroke:#FFC17A" />
<path d="M1020.1,389.16L1025.1,389.16" style="fill:none;stroke:#FFC17A" />
<path d="M1020.1,389.16L1025.1,389.16" style="fill:none;stroke:#FFC17A" />
<path d="M1028.4,395.35L1028.4,395.35" style="fill:none;stroke:#FFC17A" />
<path d="M1025.9,395.35L1030.9,395.35" style="fill:none;stroke:#FFC17A" />
<path d="M1025.9,395.35L1030.9,395.35" style="fill:none;stroke:#FFC17A" />
<path d="M1034.2,389.88L1034.2,389.88" style="fill:none;stroke:#FFC17A" />
<path d="M1031.7,389.88L1036.7,389.88" style="fill:none;stroke:#FFC17A" />
<path d="M1031.7,389.88L1036.7,389.88" style="fill:none;stroke:#FFC17A" />
<path d="M1040,400.46L1040,400.46" style="fill:none;stroke:#FFC17A" />
<path d="M1037.5,400.46L1042.5,400.46" style="fill:none;stroke:#FFC17A" />
<path d="M1037.5,400.46L1042.5,400.46" style="fill:none;stroke:#FFC17A" />
<path d="M1045.9,404.16L1045.9,404.16" style="fill:none;stroke:#FFC17A" />
<path d="M1043.4,404.16L1048.4,404.16" style="fill:none;stroke:#FFC17A" />
<path d="M1043.4,404.16L1048.4,404.16" style="fill:none;stroke:#FFC17A" />
<path d="M1051.7,403L1051.7,403" style="fill:none;stroke:#FFC17A" />
<path d="M1049.2,403L1054.2,403" style="fill:none;stroke:#FFC17A" />
<path d="M1049.2,403L1054.2,403" style="fill:none;stroke:#FFC17A" />
<path d="M1057.5,400.23L1057.5,400.23" style="fill:none;stroke:#FFC17A" />
<path d="M1055,400.23L1060,400.23" style="fill:none;stroke:#FFC17A" />
<path d="M1055,400.23L1060,400.23" style="fill:none;stroke:#FFC17A" />
<path d="M1063.3,405.74L1063.3,405.74" style="fill:none;stroke:#FFC17A" />
<path d="M1060.8,405.74L1065.8,405.74" style="fill:none;stroke:#FFC17A" />
<path d="M1060.8,405.74L1065.8,405.74" style="fill:none;stroke:#FFC17A" />
<path d="M1069.2,396.66L1069.2,396.66" style="fill:none;stroke:#FFC17A" />
<path d="M1066.7,396.66L1071.7,396.66" style="fill:none;stroke:#FFC17A" />
<path d="M1066.7,396.66L1071.7,396.66" style="fill:none;stroke:#FFC17A" />
<path d="M1075,394.5L1075,394.5" style="fill:none;stroke:#FFC17A" />
<path d="M1072.5,394.5L1077.5,394.5" style="fill:none;stroke:#FFC17A" />
<path d="M1072.5,394.5L1077.5,394.5" style="fill:none;stroke:#FFC17A" />
<path d="M78.098,212.33A5,5 0 1 1 68.098,212.33A5,5 0 1 1 78.098,212.33Z" style="fill:#FFC17A" />
<path d="M83.923,220.41A5,5 0 1 1 73.923,220.41A5,5 0 1 1 83.923,220.41Z" style="fill:#FFC17A" />
<path d="M89.748,208.84A5,5 0 1 1 79.748,208.84A5,5 0 1 1 89.748,208.84Z" style="fill:#FFC17A" />
<path d="M95.573,209.68A5,5 0 1 1 85.573,209.68A5,5 0 1 1 95.573,209.68Z" style="fill:#FFC17A" />
<path d="M101.4,198.2A5,5 0 1 1 91.398,198.2A5,5 0 1 1 101.4,198.2Z" style="fill:#FFC17A" />
<path d="M107.22,206.44A5,5 0 1 1 97.223,206.44A5,5 0 1 1 107.22,206.44Z" style="fill:#FFC17A" />
<path d="M113.05,213.72A5,5 0 1 1 103.05,213.72A5,5 0 1 1 113.05,213.72Z" style="fill:#FFC17A" />
<path d="M118.87,224.8A5,5 0 1 1 108.87,224.8A5,5 0 1 1 118.87,224.8Z" style="fill:#FFC17A" />
<path d="M124.7,221.48A5,5 0 1 1 114.7,221.48A5,5 0 1 1 124.7,221.48Z" style="fill:#FFC17A" />
<path d="M130.52,228.22A5,5 0 1 1 120.52,228.22A5,5 0 1 1 130.52,228.22Z" style="fill:#FFC17A" />
<path d="M136.35,217.57A5,5 0 1 1 126.35,217.57A5,5 0 1 1 136.35,217.57Z" style="fill:#FFC17A" />
<path d="M142.17,211.97A5,5 0 1 1 132.17,211.97A5,5 0 1 1 142.17,211.97Z" style="fill:#FFC17A" />
<path d="M148,223.57A5,5 0 1 1 138,223.57A5,5 0 1 1 148,223.57Z" style="fill:#FFC17A" />
<path d="M153.82,226.38A5,5 0 1 1 143.82,226.38A5,5 0 1 1 153.82,226.38Z" style="fill:#FFC17A" />
<path d="M159.65,208.89A5,5 0 1 1 149.65,208.89A5,5 0 1 1 159.65,208.89Z" style="fill:#FFC17A" />
<path d="M165.47,220.65A5,5 0 1 1 155.47,220.65A5,5 0 1 1 165.47,220.65Z" style="fill:#FFC17A" />
<path d="M171.3,225.03A5,5 0 1 1 161.3,225.03A5,5 0 1 1 171.3,225.03Z" style="fill:#FFC17A" />
<path d="M177.12,221.2A5,5 0 1 1 167.12,221.2A5,5 0 1 1 177.12,221.2Z" style="fill:#FFC17A" />
<path d="M182.95,211.15A5,5 0 1 1 172.95,211.15A5,5 0 1 1 182.95,211.15Z" style="fill:#FFC17A" />
<path d="M188.77,222.92A5,5 0 1 1 178.77,222.92A5,5 0 1 1 188.77,222.92Z" style="fill:#FFC17A" />
<path d="M194.6,222.04A5,5 0 1 1 184.6,222.04A5,5 0 1 1 194.6,222.04Z" style="fill:#FFC17A" />
<path d="M200.42,211.79A5,5 0 1 1 190.42,211.79A5,5 0 1 1 200.42,211.79Z" style="fill:#FFC17A" />
<path d="M206.25,208.4A5,5 0 1 1 196.25,208.4A5,5 0 1 1 206.25,208.4Z" style="fill:#FFC17A" />
<path d="M212.07,217.48A5,5 0 1 1 202.07,217.48A5,5 0 1 1 212.07,217.48Z" style="fill:#FFC17A" />
<path d="M217.9,225.93A5,5 0 1 1 207.9,225.93A5,5 0 1 1 217.9,225.93Z" style="fill:#FFC17A" />
<path d="M223.72,215.04A5,5 0 1 1 213.72,215.04A5,5 0 1 1 223.72,215.04Z" style="fill:#FFC17A" />
<path d="M229.55,211.54A5,5 0 1 1 219.55,211.54A5,5 0 1 1 229.55,211.54Z" style="fill:#FFC17A" />
<path d="M235.37,213.88A5,5 0 1 1 225.37,213.88A5,5 0 1 1 235.37,213.88Z" style="fill:#FFC17A" />
<path d="M241.2,219.78A5,5 0 1 1 231.2,219.78A5,5 0 1 1 241.2,219.78Z" style="fill:#FFC17A" />
<path d="M247.02,221.9A5,5 0 1 1 237.02,221.9A5,5 0 1 1 247.02,221.9Z" style="fill:#FFC17A" />
<path d="M252.85,216.66A5,5 0 1 1 242.85,216.66A5,5 0 1 1 252.85,216.66Z" style="fill:#FFC17A" />
<path d="M258.67,227.76A5,5 0 1 1 248.67,227.76A5,5 0 1 1 258.67,227.76Z" style="fill:#FFC17A" />
<path d="M264.5,227.5A5,5 0 1 1 254.5,227.5A5,5 0 1 1 264.5,227.5Z" style="fill:#FFC17A" />
<path d="M270.32,234.11A5,5 0 1 1 260.32,234.11A5,5 0 1 1 270.32,234.11Z" style="fill:#FFC17A" />
<path d="M276.15,231.14A5,5 0 1 1 266.15,231.14A5,5 0 1 1 276.15,231.14Z" style="fill:#FFC17A" />
<path d="M281.97,230.69A5,5 0 1 1 271.97,230.69A5,5 0 1 1 281.97,230.69Z" style="fill:#FFC17A" />
<path d="M287.8,225.87A5,5 0 1 1 277.8,225.87A5,5 0 1 1 287.8,225.87Z" style="fill:#FFC17A" />
<path d="M293.62,231.52A5,5 0 1 1 283.62,231.52A5,5 0 1 1 293.62,231.52Z" style="fill:#FFC17A" />
<path d="M299.45,236.39A5,5 0 1 1 289.45,236.39A5,5 0 1 1 299.45,236.39Z" style="fill:#FFC17A" />
<path d="M305.27,230.2A5,5 0 1 1 295.27,230.2A5,5 0 1 1 305.27,230.2Z" style="fill:#FFC17A" />
<path d="M311.1,232.21A5,5 0 1 1 301.1,232.21A5,5 0 1 1 311.1,232.21Z" style="fill:#FFC17A" />
<path d="M316.92,244.77A5,5 0 1 1 306.92,244.77A5,5 0 1 1 316.92,244.77Z" style="fill:#FFC17A" />
<path d="M322.75,250.15A5,5 0 1 1 312.75,250.15A5,5 0 1 1 322.75,250.15Z" style="fill:#FFC17A" />
<path d="M328.57,254.33A5,5 0 1 1 318.57,254.33A5,5 0 1 1 328.57,254.33Z" style="fill:#FFC17A" />
<path d="M334.4,265.6A5,5 0 1 1 324.4,265.6A5,5 0 1 1 334.4,265.6Z" style="fill:#FFC17A" />
<path d="M340.22,259.9A5,5 0 1 1 330.22,259.9A5,5 0 1 1 340.22,259.9Z" style="fill:#FFC17A" />
<path d="M346.05,261.27A5,5 0 1 1 336.05,261.27A5,5 0 1 1 346.05,261.27Z" style="fill:#FFC17A" />
<path d="M351.87,262.35A5,5 0 1 1 341.87,262.35A5,5 0 1 1 351.87,262.35Z" style="fill:#FFC17A" />
<path d="M357.7,268.95A5,5 0 1 1 347.7,268.95A5,5 0 1 1 357.7,268.95Z" style="fill:#FFC17A" />
<path d="M363.52,277.28A5,5 0 1 1 353.52,277.28A5,5 0 1 1 363.52,277.28Z" style="fill:#FFC17A" />
<path d="M369.35,287.6A5,5 0 1 1 359.35,287.6A5,5 0 1 1 369.35,287.6Z" style="fill:#FFC17A" />
<path d="M375.17,284.93A5,5 0 1 1 365.17,284.93A5,5 0 1 1 375.17,284.93Z" style="fill:#FFC17A" />
<path d="M381,289.95A5,5 0 1 1 371,289.95A5,5 0 1 1 381,289.95Z" style="fill:#FFC17A" />
<path d="M386.82,299.11A5,5 0 1 1 376.82,299.11A5,5 0 1 1 386.82,299.11Z" style="fill:#FFC17A" />
<path d="M392.65,305.96A5,5 0 1 1 382.65,305.96A5,5 0 1 1 392.65,305.96Z" style="fill:#FFC17A" />
<path d="M398.47,317.62A5,5 0 1 1 388.47,317.62A5,5 0 1 1 398.47,317.62Z" style="fill:#FFC17A" />
<path d="M404.3,320.45A5,5 0 1 1 394.3,320.45A5,5 0 1 1 404.3,320.45Z" style="fill:#FFC17A" />
<path d="M410.12,333.67A5,5 0 1 1 400.12,333.67A5,5 0 1 1 410.12,333.67Z" style="fill:#FFC17A" />
<path d="M415.95,347.17A5,5 0 1 1 405.95,347.17A5,5 0 1 1 415.95,347.17Z" style="fill:#FFC17A" />
<path d="M421.77,353.78A5,5 0 1 1 411.77,353.78A5,5 0 1 1 421.77,353.78Z" style="fill:#FFC17A" />
<path d="M427.6,369.83A5,5 0 1 1 417.6,369.83A5,5 0 1 1 427.6,369.83Z" style="fill:#FFC17A" />
<path d="M433.42,374.89A5,5 0 1 1 423.42,374.89A5,5 0 1 1 433.42,374.89Z" style="fill:#FFC17A" />
<path d="M439.25,373.14A5,5 0 1 1 429.25,373.14A5,5 0 1 1 439.25,373.14Z" style="fill:#FFC17A" />
<path d="M445.07,387.78A5,5 0 1 1 435.07,387.78A5,5 0 1 1 445.07,387.78Z" style="fill:#FFC17A" />
<path d="M450.9,405.71A5,5 0 1 1 440.9,405.71A5,5 0 1 1 450.9,405.71Z" style="fill:#FFC17A" />
<path d="M456.72,421.31A5,5 0 1 1 446.72,421.31A5,5 0 1 1 456.72,421.31Z" style="fill:#FFC17A" />
<path d="M462.55,437.58A5,5 0 1 1 452.55,437.58A5,5 0 1 1 462.55,437.58Z" style="fill:#FFC17A" />
<path d="M468.37,441.54A5,5 0 1 1 458.37,441.54A5,5 0 1 1 468.37,441.54Z" style="fill:#FFC17A" />
<path d="M474.2,458.92A5,5 0 1 1 464.2,458.92A5,5 0 1 1 474.2,458.92Z" style="fill:#FFC17A" />
<path d="M480.02,474.55A5,5 0 1 1 470.02,474.55A5,5 0 1 1 480.02,474.55Z" style="fill:#FFC17A" />
<path d="M485.85,497.05A5,5 0 1 1 475.85,497.05A5,5 0 1 1 485.85,497.05Z" style="fill:#FFC17A" />
<path d="M491.67,504.91A5,5 0 1 1 481.67,504.91A5,5 0 1 1 491.67,504.91Z" style="fill:#FFC17A" />
<path d="M497.5,523.26A5,5 0 1 1 487.5,523.26A5,5 0 1 1 497.5,523.26Z" style="fill:#FFC17A" />
<path d="M503.32,547.93A5,5 0 1 1 493.32,547.93A5,5 0 1 1 503.32,547.93Z" style="fill:#FFC17A" />
<path d="M509.15,573.87A5,5 0 1 1 499.15,573.87A5,5 0 1 1 509.15,573.87Z" style="fill:#FFC17A" />
<path d="M514.97,594.49A5,5 0 1 1 504.97,594.49A5,5 0 1 1 514.97,594.49Z" style="fill:#FFC17A" />
<path d="M520.8,601.41A5,5 0 1 1 510.8,601.41A5,5 0 1 1 520.8,601.41Z" style="fill:#FFC17A" />
<path d="M526.62,622.11A5,5 0 1 1 516.62,622.11A5,5 0 1 1 526.62,622.11Z" style="fill:#FFC17A" />
<path d="M532.45,646.36A5,5 0 1 1 522.45,646.36A5,5 0 1 1 532.45,646.36Z" style="fill:#FFC17A" />
<path d="M538.27,659.09A5,5 0 1 1 528.27,659.09A5,5 0 1 1 538.27,659.09Z" style="fill:#FFC17A" />
<path d="M544.1,680.45A5,5 0 1 1 534.1,680.45A5,5 0 1 1 544.1,680.45Z" style="fill:#FFC17A" />
<path d="M549.92,707.75A5,5 0 1 1 539.92,707.75A5,5 0 1 1 549.92,707.75Z" style="fill:#FFC17A" />
<path d="M555.75,723.23A5,5 0 1 1 545.75,723.23A5,5 0 1 1 555.75,723.23Z" style="fill:#FFC17A" />
<path d="M561.57,759.45A5,5 0 1 1 551.57,759.45A5,5 0 1 1 561.57,759.45Z" style="fill:#FFC17A" />
<path d="M567.4,777.63A5,5 0 1 1 557.4,777.63A5,5 0 1 1 567.4,777.63Z" style="fill:#FFC17A" />
<path d="M573.22,788.44A5,5 0 1 1 563.22,788.44A5,5 0 1 1 573.22,788.44Z" style="fill:#FFC17A" />
<path d="M579.05,818.71A5,5 0 1 1 569.05,818.71A5,5 0 1 1 579.05,818.71Z" style="fill:#FFC17A" />
<path d="M584.87,849.28A5,5 0 1 1 574.87,849.28A5,5 0 1 1 584.87,849.28Z" style="fill:#FFC17A" />
<path d="M590.7,848.74A5,5 0 1 1 580.7,848.74A5,5 0 1 1 590.7,848.74Z" style="fill:#FFC17A" />
<path d="M596.52,848.53A5,5 0 1 1 586.52,848.53A5,5 0 1 1 596.52,848.53Z" style="fill:#FFC17A" />
<path d="M602.35,875.49A5,5 0 1 1 592.35,875.49A5,5 0 1 1 602.35,875.49Z" style="fill:#FFC17A" />
<path d="M608.17,872.09A5,5 0 1 1 598.17,872.09A5,5 0 1 1 608.17,872.09Z" style="fill:#FFC17A" />
<path d="M614,885.33A5,5 0 1 1 604,885.33A5,5 0 1 1 614,885.33Z" style="fill:#FFC17A" />
<path d="M619.82,895.47A5,5 0 1 1 609.82,895.47A5,5 0 1 1 619.82,895.47Z" style="fill:#FFC17A" />
<path d="M625.65,893.97A5,5 0 1 1 615.65,893.97A5,5 0 1 1 625.65,893.97Z" style="fill:#FFC17A" />
<path d="M631.47,894.29A5,5 0 1 1 621.47,894.29A5,5 0 1 1 631.47,894.29Z" style="fill:#FFC17A" />
<path d="M637.3,880.03A5,5 0 1 1 627.3,880.03A5,5 0 1 1 637.3,880.03Z" style="fill:#FFC17A" />
<path d="M643.12,865.67A5,5 0 1 1 633.12,865.67A5,5 0 1 1 643.12,865.67Z" style="fill:#FFC17A" />
<path d="M648.95,856.51A5,5 0 1 1 638.95,856.51A5,5 0 1 1 648.95,856.51Z" style="fill:#FFC17A" />
<path d="M654.77,846.13A5,5 0 1 1 644.77,846.13A5,5 0 1 1 654.77,846.13Z" style="fill:#FFC17A" />
<path d="M660.6,841.63A5,5 0 1 1 650.6,841.63A5,5 0 1 1 660.6,841.63Z" style="fill:#FFC17A" />
<path d="M666.42,824.3A5,5 0 1 1 656.42,824.3A5,5 0 1 1 666.42,824.3Z" style="fill:#FFC17A" />
<path d="M672.25,800.82A5,5 0 1 1 662.25,800.82A5,5 0 1 1 672.25,800.82Z" style="fill:#FFC17A" />
<path d="M678.07,795.34A5,5 0 1 1 668.07,795.34A5,5 0 1 1 678.07,795.34Z" style="fill:#FFC17A" />
<path d="M683.9,775.46A5,5 0 1 1 673.9,775.46A5,5 0 1 1 683.9,775.46Z" style="fill:#FFC17A" />
<path d="M689.72,760.2A5,5 0 1 1 679.72,760.2A5,5 0 1 1 689.72,760.2Z" style="fill:#FFC17A" />
<path d="M695.55,745.45A5,5 0 1 1 685.55,745.45A5,5 0 1 1 695.55,745.45Z" style="fill:#FFC17A" />
<path d="M701.37,726.56A5,5 0 1 1 691.37,726.56A5,5 0 1 1 701.37,726.56Z" style="fill:#FFC17A" />
<path d="M707.2,696.28A5,5 0 1 1 697.2,696.28A5,5 0 1 1 707.2,696.28Z" style="fill:#FFC17A" />
<path d="M713.02,693.06A5,5 0 1 1 703.02,693.06A5,5 0 1 1 713.02,693.06Z" style="fill:#FFC17A" />
<path d="M718.85,690.62A5,5 0 1 1 708.85,690.62A5,5 0 1 1 718.85,690.62Z" style="fill:#FFC17A" />
<path d="M724.67,654.3A5,5 0 1 1 714.67,654.3A5,5 0 1 1 724.67,654.3Z" style="fill:#FFC17A" />
<path d="M730.5,653.88A5,5 0 1 1 720.5,653.88A5,5 0 1 1 730.5,653.88Z" style="fill:#FFC17A" />
<path d="M736.32,635.48A5,5 0 1 1 726.32,635.48A5,5 0 1 1 736.32,635.48Z" style="fill:#FFC17A" />
<path d="M742.15,635.47A5,5 0 1 1 732.15,635.47A5,5 0 1 1 742.15,635.47Z" style="fill:#FFC17A" />
<path d="M747.97,613.62A5,5 0 1 1 737.97,613.62A5,5 0 1 1 747.97,613.62Z" style="fill:#FFC17A" />
<path d="M753.8,594.5A5,5 0 1 1 743.8,594.5A5,5 0 1 1 753.8,594.5Z" style="fill:#FFC17A" />
<path d="M759.62,597.22A5,5 0 1 1 749.62,597.22A5,5 0 1 1 759.62,597.22Z" style="fill:#FFC17A" />
<path d="M765.45,581.66A5,5 0 1 1 755.45,581.66A5,5 0 1 1 765.45,581.66Z" style="fill:#FFC17A" />
<path d="M771.27,577.55A5,5 0 1 1 761.27,577.55A5,5 0 1 1 771.27,577.55Z" style="fill:#FFC17A" />
<path d="M777.1,569.23A5,5 0 1 1 767.1,569.23A5,5 0 1 1 777.1,569.23Z" style="fill:#FFC17A" />
<path d="M782.92,555.46A5,5 0 1 1 772.92,555.46A5,5 0 1 1 782.92,555.46Z" style="fill:#FFC17A" />
<path d="M788.75,543.52A5,5 0 1 1 778.75,543.52A5,5 0 1 1 788.75,543.52Z" style="fill:#FFC17A" />
<path d="M794.57,534.05A5,5 0 1 1 784.57,534.05A5,5 0 1 1 794.57,534.05Z" style="fill:#FFC17A" />
<path d="M800.4,523.19A5,5 0 1 1 790.4,523.19A5,5 0 1 1 800.4,523.19Z" style="fill:#FFC17A" />
<path d="M806.22,509.89A5,5 0 1 1 796.22,509.89A5,5 0 1 1 806.22,509.89Z" style="fill:#FFC17A" />
<path d="M812.05,501.43A5,5 0 1 1 802.05,501.43A5,5 0 1 1 812.05,501.43Z" style="fill:#FFC17A" />
<path d="M817.87,501.85A5,5 0 1 1 807.87,501.85A5,5 0 1 1 817.87,501.85Z" style="fill:#FFC17A" />
<path d="M823.7,490.19A5,5 0 1 1 813.7,490.19A5,5 0 1 1 823.7,490.19Z" style="fill:#FFC17A" />
<path d="M829.52,470.15A5,5 0 1 1 819.52,470.15A5,5 0 1 1 829.52,470.15Z" style="fill:#FFC17A" />
<path d="M835.35,471.9A5,5 0 1 1 825.35,471.9A5,5 0 1 1 835.35,471.9Z" style="fill:#FFC17A" />
<path d="M841.17,460.44A5,5 0 1 1 831.17,460.44A5,5 0 1 1 841.17,460.44Z" style="fill:#FFC17A" />
<path d="M847,454.21A5,5 0 1 1 837,454.21A5,5 0 1 1 847,454.21Z" style="fill:#FFC17A" />
<path d="M852.82,448.1A5,5 0 1 1 842.82,448.1A5,5 0 1 1 852.82,448.1Z" style="fill:#FFC17A" />
<path d="M858.65,445.62A5,5 0 1 1 848.65,445.62A5,5 0 1 1 858.65,445.62Z" style="fill:#FFC17A" />
<path d="M864.47,433.69A5,5 0 1 1 854.47,433.69A5,5 0 1 1 864.47,433.69Z" style="fill:#FFC17A" />
<path d="M870.3,432.33A5,5 0 1 1 860.3,432.33A5,5 0 1 1 870.3,432.33Z" style="fill:#FFC17A" />
<path d="M876.12,428.11A5,5 0 1 1 866.12,428.11A5,5 0 1 1 876.12,428.11Z" style="fill:#FFC17A" />
<path d="M881.95,419.54A5,5 0 1 1 871.95,419.54A5,5 0 1 1 881.95,419.54Z" style="fill:#FFC17A" />
<path d="M887.77,418.93A5,5 0 1 1 877.77,418.93A5,5 0 1 1 887.77,418.93Z" style="fill:#FFC17A" />
<path d="M893.6,421.69A5,5 0 1 1 883.6,421.69A5,5 0 1 1 893.6,421.69Z" style="fill:#FFC17A" />
<path d="M899.42,411.74A5,5 0 1 1 889.42,411.74A5,5 0 1 1 899.42,411.74Z" style="fill:#FFC17A" />
<path d="M905.25,406.78A5,5 0 1 1 895.25,406.78A5,5 0 1 1 905.25,406.78Z" style="fill:#FFC17A" />
<path d="M911.07,411.23A5,5 0 1 1 901.07,411.23A5,5 0 1 1 911.07,411.23Z" style="fill:#FFC17A" />
<path d="M916.9,394.61A5,5 0 1 1 906.9,394.61A5,5 0 1 1 916.9,394.61Z" style="fill:#FFC17A" />
<path d="M922.72,397.62A5,5 0 1 1 912.72,397.62A5,5 0 1 1 922.72,397.62Z" style="fill:#FFC17A" />
<path d="M928.55,395.06A5,5 0 1 1 918.55,395.06A5,5 0 1 1 928.55,395.06Z" style="fill:#FFC17A" />
<path d="M934.37,397.75A5,5 0 1 1 924.37,397.75A5,5 0 1 1 934.37,397.75Z" style="fill:#FFC17A" />
<path d="M940.2,389.85A5,5 0 1 1 930.2,389.85A5,5 0 1 1 940.2,389.85Z" style="fill:#FFC17A" />
<path d="M946.02,394.42A5,5 0 1 1 936.02,394.42A5,5 0 1 1 946.02,394.42Z" style="fill:#FFC17A" />
<path d="M951.85,391.21A5,5 0 1 1 941.85,391.21A5,5 0 1 1 951.85,391.21Z" style="fill:#FFC17A" />
<path d="M957.67,400.41A5,5 0 1 1 947.67,400.41A5,5 0 1 1 957.67,400.41Z" style="fill:#FFC17A" />
<path d="M963.5,399.12A5,5 0 1 1 953.5,399.12A5,5 0 1 1 963.5,399.12Z" style="fill:#FFC17A" />
<path d="M969.32,393.97A5,5 0 1 1 959.32,393.97A5,5 0 1 1 969.32,393.97Z" style="fill:#FFC17A" />
<path d="M975.15,394.68A5,5 0 1 1 965.15,394.68A5,5 0 1 1 975.15,394.68Z" style="fill:#FFC17A" />
<path d="M980.97,391.56A5,5 0 1 1 970.97,391.56A5,5 0 1 1 980.97,391.56Z" style="fill:#FFC17A" />
<path d="M986.8,389.78A5,5 0 1 1 976.8,389.78A5,5 0 1 1 986.8,389.78Z" style="fill:#FFC17A" />
<path d="M992.62,399.95A5,5 0 1 1 982.62,399.95A5,5 0 1 1 992.62,399.95Z" style="fill:#FFC17A" />
<path d="M998.45,394.88A5,5 0 1 1 988.45,394.88A5,5 0 1 1 998.45,394.88Z" style="fill:#FFC17A" />
<path d="M1004.3,398.15A5,5 0 1 1 994.27,398.15A5,5 0 1 1 1004.3,398.15Z" style="fill:#FFC17A" />
<path d="M1010.1,400.27A5,5 0 1 1 1000.1,400.27A5,5 0 1 1 1010.1,400.27Z" style="fill:#FFC17A" />
<path d="M1015.9,387.64A5,5 0 1 1 1005.9,387.64A5,5 0 1 1 1015.9,387.64Z" style="fill:#FFC17A" />
<path d="M1021.7,391.59A5,5 0 1 1 1011.7,391.59A5,5 0 1 1 1021.7,391.59Z" style="fill:#FFC17A" />
<path d="M1027.6,389.16A5,5 0 1 1 1017.6,389.16A5,5 0 1 1 1027.6,389.16Z" style="fill:#FFC17A" />
<path d="M1033.4,395.35A5,5 0 1 1 1023.4,395.35A5,5 0 1 1 1033.4,395.35Z" style="fill:#FFC17A" />
<path d="M1039.2,389.88A5,5 0 1 1 1029.2,389.88A5,5 0 1 1 1039.2,389.88Z" style="fill:#FFC17A" />
<path d="M1045,400.46A5,5 0 1 1 1035,400.46A5,5 0 1 1 1045,400.46Z" style="fill:#FFC17A" />
<path d="M1050.9,404.16A5,5 0 1 1 1040.9,404.16A5,5 0 1 1 1050.9,404.16Z" style="fill:#FFC17A" />
<path d="M1056.7,403A5,5 0 1 1 1046.7,403A5,5 0 1 1 1056.7,403Z" style="fill:#FFC17A" />
<path d="M1062.5,400.23A5,5 0 1 1 1052.5,400.23A5,5 0 1 1 1062.5,400.23Z" style="fill:#FFC17A" />
<path d="M1068.3,405.74A5,5 0 1 1 1058.3,405.74A5,5 0 1 1 1068.3,405.74Z" style="fill:#FFC17A" />
<path d="M1074.2,396.66A5,5 0 1 1 1064.2,396.66A5,5 0 1 1 1074.2,396.66Z" style="fill:#FFC17A" />
<path d="M1080,394.5A5,5 0 1 1 1070,394.5A5,5 0 1 1 1080,394.5Z" style="fill:#FFC17A" />
<path d="M73.098,974.14L1075,974.14" style="fill:none;stroke:#000000" />
<path d="M1075,108.82L1075,974.14" style="fill:none;stroke:#000000" />
<path d="M1013,927.49A8,8 0 1 1 997,927.49A8,8 0 1 1 1013,927.49Z" style="fill:#FFC17A" />
<text x="877.3" y="-920.9" transform="scale(1, -1)"
	style="font-family:Helvetica;font-weight:normal;font-style:normal;font-size:28px">13 GHz</text>
</g>
</svg>
