<?xml version="1.0"?>
<!-- Generated by SVGo and Plotinum VG -->
<svg width="1080pt" height="1080pt" viewBox="0 0 1080 1080"
	xmlns="http://www.w3.org/2000/svg"
	xmlns:xlink="http://www.w3.org/1999/xlink">
<g transform="scale(1, -1) translate(0, -1080)">
<path d="M0,0L1080,0L1080,1080L0,1080Z" style="fill:#-8000000000000000-8000000000000000-8000000000000000;fill-opacity:0" />
<text x="312.12" y="-1039.5" transform="scale(1, -1)"
	style="font-family:Helvetica;font-weight:normal;font-style:normal;font-size:50px">Linewidths vs Power</text>
<text x="448.93" y="-11.039" transform="scale(1, -1)"
	style="font-family:Helvetica;font-weight:normal;font-style:normal;font-size:36px">Pump Power (mW)</text>
<text x="281.57" y="-71.258" transform="scale(1, -1)"
	style="font-family:Helvetica;font-weight:normal;font-style:normal;font-size:36px">50</text>
<text x="521.02" y="-71.258" transform="scale(1, -1)"
	style="font-family:Helvetica;font-weight:normal;font-style:normal;font-size:36px">100</text>
<text x="770.48" y="-71.258" transform="scale(1, -1)"
	style="font-family:Helvetica;font-weight:normal;font-style:normal;font-size:36px">150</text>
<text x="1019.9" y="-71.258" transform="scale(1, -1)"
	style="font-family:Helvetica;font-weight:normal;font-style:normal;font-size:36px">200</text>
<path d="M176.86,112.44L176.86,108.44" style="fill:none;stroke:#000000;stroke-width:1.5" />
<path d="M301.59,116.44L301.59,108.44" style="fill:none;stroke:#000000;stroke-width:1.5" />
<path d="M426.32,112.44L426.32,108.44" style="fill:none;stroke:#000000;stroke-width:1.5" />
<path d="M551.05,116.44L551.05,108.44" style="fill:none;stroke:#000000;stroke-width:1.5" />
<path d="M675.78,112.44L675.78,108.44" style="fill:none;stroke:#000000;stroke-width:1.5" />
<path d="M800.51,116.44L800.51,108.44" style="fill:none;stroke:#000000;stroke-width:1.5" />
<path d="M925.24,112.44L925.24,108.44" style="fill:none;stroke:#000000;stroke-width:1.5" />
<path d="M1050,116.44L1050,108.44" style="fill:none;stroke:#000000;stroke-width:1.5" />
<path d="M151.91,108.44L1050,108.44" style="fill:none;stroke:#000000;stroke-width:1.5" />
<g transform="rotate(90)">
<text x="328.34" y="29.18" transform="scale(1, -1)"
	style="font-family:Helvetica;font-weight:normal;font-style:normal;font-size:36px">Full Width Half Max (MHz)</text>
</g>
<text x="87.869" y="-183.72" transform="scale(1, -1)"
	style="font-family:Helvetica;font-weight:normal;font-style:normal;font-size:36px">50</text>
<text x="87.869" y="-225.07" transform="scale(1, -1)"
	style="font-family:Helvetica;font-weight:normal;font-style:normal;font-size:36px">75</text>
<text x="67.848" y="-266.42" transform="scale(1, -1)"
	style="font-family:Helvetica;font-weight:normal;font-style:normal;font-size:36px">100</text>
<text x="67.848" y="-307.77" transform="scale(1, -1)"
	style="font-family:Helvetica;font-weight:normal;font-style:normal;font-size:36px">125</text>
<path d="M153.91,192.79L145.91,192.79" style="fill:none;stroke:#000000;stroke-width:1.5" />
<path d="M149.91,213.46L145.91,213.46" style="fill:none;stroke:#000000;stroke-width:1.5" />
<path d="M153.91,234.14L145.91,234.14" style="fill:none;stroke:#000000;stroke-width:1.5" />
<path d="M149.91,254.81L145.91,254.81" style="fill:none;stroke:#000000;stroke-width:1.5" />
<path d="M153.91,275.49L145.91,275.49" style="fill:none;stroke:#000000;stroke-width:1.5" />
<path d="M149.91,296.16L145.91,296.16" style="fill:none;stroke:#000000;stroke-width:1.5" />
<path d="M153.91,316.84L145.91,316.84" style="fill:none;stroke:#000000;stroke-width:1.5" />
<path d="M145.91,108.57L145.91,968.14" style="fill:none;stroke:#000000;stroke-width:1.5" />
<path d="M975.13,108.57L501.16,381.61L276.64,510.94L151.91,582.79" style="fill:none;stroke:#637CC6;stroke-width:3" />
<path d="M975.13,142.14L501.16,374.75L276.64,484.93L151.91,546.15" style="fill:none;stroke:#C96892;stroke-width:3" />
<path d="M981.13,229.31A6,6 0 1 1 969.13,229.31A6,6 0 1 1 981.13,229.31Z" style="fill:#637CC6" />
<path d="M507.16,220.04A6,6 0 1 1 495.16,220.04A6,6 0 1 1 507.16,220.04Z" style="fill:#637CC6" />
<path d="M282.64,166.41A6,6 0 1 1 270.64,166.41A6,6 0 1 1 282.64,166.41Z" style="fill:#637CC6" />
<path d="M157.91,968.14A6,6 0 1 1 145.91,968.14A6,6 0 1 1 157.91,968.14Z" style="fill:#637CC6" />
<path d="M981.13,255.47A6,6 0 1 1 969.13,255.47A6,6 0 1 1 981.13,255.47Z" style="fill:#C96892" />
<path d="M507.16,215.57A6,6 0 1 1 495.16,215.57A6,6 0 1 1 507.16,215.57Z" style="fill:#C96892" />
<path d="M282.64,182.66A6,6 0 1 1 270.64,182.66A6,6 0 1 1 282.64,182.66Z" style="fill:#C96892" />
<path d="M157.91,894.27A6,6 0 1 1 145.91,894.27A6,6 0 1 1 157.91,894.27Z" style="fill:#C96892" />
<path d="M980,908.43L1030,908.43" style="fill:none;stroke:#637CC6;stroke-width:3" />
<text x="785.92" y="-899.95" transform="scale(1, -1)"
	style="font-family:Helvetica;font-weight:normal;font-style:normal;font-size:36px">Anti-Stokes</text>
<path d="M980,867.02L1030,867.02" style="fill:none;stroke:#C96892;stroke-width:3" />
<text x="859.94" y="-858.54" transform="scale(1, -1)"
	style="font-family:Helvetica;font-weight:normal;font-style:normal;font-size:36px">Stokes</text>
</g>
</svg>
