<?xml version="1.0"?>
<!-- Generated by SVGo and Plotinum VG -->
<svg width="1080pt" height="1080pt" viewBox="0 0 1080 1080"
	xmlns="http://www.w3.org/2000/svg"
	xmlns:xlink="http://www.w3.org/1999/xlink">
<g transform="scale(1, -1) translate(0, -1080)">
<path d="M0,0L1080,0L1080,1080L0,1080Z" style="fill:#-8000000000000000-8000000000000000-8000000000000000;fill-opacity:0" />
<text x="528.89" y="-1015.2" transform="scale(1, -1)"
	style="font-family:Helvetica;font-weight:normal;font-style:normal;font-size:80px"> </text>
<text x="479.93" y="-17.172" transform="scale(1, -1)"
	style="font-family:Helvetica;font-weight:normal;font-style:normal;font-size:56px">Power (mW)</text>
<text x="222.1" y="-119.73" transform="scale(1, -1)"
	style="font-family:Helvetica;font-weight:normal;font-style:normal;font-size:56px">0</text>
<text x="405.43" y="-119.73" transform="scale(1, -1)"
	style="font-family:Helvetica;font-weight:normal;font-style:normal;font-size:56px">50</text>
<text x="588.76" y="-119.73" transform="scale(1, -1)"
	style="font-family:Helvetica;font-weight:normal;font-style:normal;font-size:56px">100</text>
<text x="787.66" y="-119.73" transform="scale(1, -1)"
	style="font-family:Helvetica;font-weight:normal;font-style:normal;font-size:56px">150</text>
<text x="986.57" y="-119.73" transform="scale(1, -1)"
	style="font-family:Helvetica;font-weight:normal;font-style:normal;font-size:56px">200</text>
<path d="M237.67,181.12L237.67,173.12" style="fill:none;stroke:#000000;stroke-width:1.5" />
<path d="M337.12,177.12L337.12,173.12" style="fill:none;stroke:#000000;stroke-width:1.5" />
<path d="M436.57,181.12L436.57,173.12" style="fill:none;stroke:#000000;stroke-width:1.5" />
<path d="M536.03,177.12L536.03,173.12" style="fill:none;stroke:#000000;stroke-width:1.5" />
<path d="M635.48,181.12L635.48,173.12" style="fill:none;stroke:#000000;stroke-width:1.5" />
<path d="M734.93,177.12L734.93,173.12" style="fill:none;stroke:#000000;stroke-width:1.5" />
<path d="M834.38,181.12L834.38,173.12" style="fill:none;stroke:#000000;stroke-width:1.5" />
<path d="M933.83,177.12L933.83,173.12" style="fill:none;stroke:#000000;stroke-width:1.5" />
<path d="M1033.3,181.12L1033.3,173.12" style="fill:none;stroke:#000000;stroke-width:1.5" />
<path d="M237.67,173.12L1033.3,173.12" style="fill:none;stroke:#000000;stroke-width:1.5" />
<g transform="rotate(90)">
<text x="254.09" y="45.391" transform="scale(1, -1)"
	style="font-family:Helvetica;font-weight:normal;font-style:normal;font-size:56px">Dissipation Rate (MHz)</text>
</g>
<text x="145.57" y="-159.13" transform="scale(1, -1)"
	style="font-family:Helvetica;font-weight:normal;font-style:normal;font-size:56px">60</text>
<text x="145.57" y="-387.34" transform="scale(1, -1)"
	style="font-family:Helvetica;font-weight:normal;font-style:normal;font-size:56px">80</text>
<text x="114.43" y="-615.54" transform="scale(1, -1)"
	style="font-family:Helvetica;font-weight:normal;font-style:normal;font-size:56px">100</text>
<text x="118.59" y="-843.74" transform="scale(1, -1)"
	style="font-family:Helvetica;font-weight:normal;font-style:normal;font-size:56px">110</text>
<path d="M239.42,173.24L231.42,173.24" style="fill:none;stroke:#000000;stroke-width:1.5" />
<path d="M235.42,287.34L231.42,287.34" style="fill:none;stroke:#000000;stroke-width:1.5" />
<path d="M239.42,401.44L231.42,401.44" style="fill:none;stroke:#000000;stroke-width:1.5" />
<path d="M235.42,515.55L231.42,515.55" style="fill:none;stroke:#000000;stroke-width:1.5" />
<path d="M239.42,629.65L231.42,629.65" style="fill:none;stroke:#000000;stroke-width:1.5" />
<path d="M235.42,743.75L231.42,743.75" style="fill:none;stroke:#000000;stroke-width:1.5" />
<path d="M239.42,857.85L231.42,857.85" style="fill:none;stroke:#000000;stroke-width:1.5" />
<path d="M231.42,173.24L231.42,910.62" style="fill:none;stroke:#000000;stroke-width:1.5" />
<path d="M237.67,639.25L555.92,766.96L913.94,910.62" style="fill:none;stroke:#637CC6;stroke-width:3" />
<path d="M237.67,857.85L1033.3,857.85" style="fill:none;stroke:#000000" />
<path d="M1033.3,173.24L1033.3,857.85" style="fill:none;stroke:#000000" />
<path d="M237.67,584.78L555.92,611.73L913.94,642.06" style="fill:none;stroke:#C96892;stroke-width:3" />
<path d="M237.67,509.84L237.67,509.84" style="fill:none;stroke:#627BC5;stroke-opacity:0.4902;stroke-width:3;stroke-dasharray:15,5" />
<path d="M237.67,509.84L237.67,509.84" style="fill:none;stroke:#C86791;stroke-opacity:0.4902;stroke-width:3;stroke-dasharray:15,5" />
<path d="M243.67,625.96A6,6 0 1 1 231.67,625.96A6,6 0 1 1 243.67,625.96Z" style="fill:#637CC6" />
<path d="M561.92,792.06A6,6 0 1 1 549.92,792.06A6,6 0 1 1 561.92,792.06Z" style="fill:#637CC6" />
<path d="M919.94,898.81A6,6 0 1 1 907.94,898.81A6,6 0 1 1 919.94,898.81Z" style="fill:#637CC6" />
<path d="M243.67,568.92A6,6 0 1 1 231.67,568.92A6,6 0 1 1 243.67,568.92Z" style="fill:#C96892" />
<path d="M561.92,641.7A6,6 0 1 1 549.92,641.7A6,6 0 1 1 561.92,641.7Z" style="fill:#C96892" />
<path d="M919.94,627.96A6,6 0 1 1 907.94,627.96A6,6 0 1 1 919.94,627.96Z" style="fill:#C96892" />
<path d="M256.67,852.33L306.67,852.33" style="fill:none;stroke:#637CC6;stroke-width:3" />
<text x="322.23" y="-839.14" transform="scale(1, -1)"
	style="font-family:Helvetica;font-weight:normal;font-style:normal;font-size:56px">Anti-Stokes</text>
<path d="M256.67,793.47L306.67,793.47" style="fill:none;stroke:#627BC5;stroke-opacity:0.4902;stroke-width:3;stroke-dasharray:15,5" />
<text x="322.23" y="-780.27" transform="scale(1, -1)"
	style="font-family:Helvetica;font-weight:normal;font-style:normal;font-size:56px">Γ as,eff</text>
<path d="M256.67,734.6L306.67,734.6" style="fill:none;stroke:#C96892;stroke-width:3" />
<text x="322.23" y="-721.41" transform="scale(1, -1)"
	style="font-family:Helvetica;font-weight:normal;font-style:normal;font-size:56px">Stokes</text>
<path d="M256.67,675.74L306.67,675.74" style="fill:none;stroke:#C86791;stroke-opacity:0.4902;stroke-width:3;stroke-dasharray:15,5" />
<text x="322.23" y="-662.55" transform="scale(1, -1)"
	style="font-family:Helvetica;font-weight:normal;font-style:normal;font-size:56px">Γ s,eff</text>
</g>
</svg>
