<?xml version="1.0"?>
<!-- Generated by SVGo and Plotinum VG -->
<svg width="1080pt" height="1080pt" viewBox="0 0 1080 1080"
	xmlns="http://www.w3.org/2000/svg"
	xmlns:xlink="http://www.w3.org/1999/xlink">
<g transform="scale(1, -1) translate(0, -1080)">
<path d="M0,0L1080,0L1080,1080L0,1080Z" style="fill:#-8000000000000000-8000000000000000-8000000000000000;fill-opacity:0" />
<text x="346.9" y="-1039.5" transform="scale(1, -1)"
	style="font-family:Helvetica;font-weight:normal;font-style:normal;font-size:50px">1 mm CS2 CABS</text>
<text x="497.32" y="-11.039" transform="scale(1, -1)"
	style="font-family:Helvetica;font-weight:normal;font-style:normal;font-size:36px">Frequency (GHz)</text>
<text x="242.18" y="-71.258" transform="scale(1, -1)"
	style="font-family:Helvetica;font-weight:normal;font-style:normal;font-size:36px">2.35</text>
<text x="423.31" y="-71.258" transform="scale(1, -1)"
	style="font-family:Helvetica;font-weight:normal;font-style:normal;font-size:36px">2.45</text>
<text x="604.44" y="-71.258" transform="scale(1, -1)"
	style="font-family:Helvetica;font-weight:normal;font-style:normal;font-size:36px">2.55</text>
<text x="785.57" y="-71.258" transform="scale(1, -1)"
	style="font-family:Helvetica;font-weight:normal;font-style:normal;font-size:36px">2.65</text>
<text x="966.7" y="-71.258" transform="scale(1, -1)"
	style="font-family:Helvetica;font-weight:normal;font-style:normal;font-size:36px">2.75</text>
<path d="M277.21,116.44L277.21,108.44" style="fill:none;stroke:#000000;stroke-width:1.5" />
<path d="M367.78,112.44L367.78,108.44" style="fill:none;stroke:#000000;stroke-width:1.5" />
<path d="M458.34,116.44L458.34,108.44" style="fill:none;stroke:#000000;stroke-width:1.5" />
<path d="M548.91,112.44L548.91,108.44" style="fill:none;stroke:#000000;stroke-width:1.5" />
<path d="M639.47,116.44L639.47,108.44" style="fill:none;stroke:#000000;stroke-width:1.5" />
<path d="M730.04,112.44L730.04,108.44" style="fill:none;stroke:#000000;stroke-width:1.5" />
<path d="M820.61,116.44L820.61,108.44" style="fill:none;stroke:#000000;stroke-width:1.5" />
<path d="M911.17,112.44L911.17,108.44" style="fill:none;stroke:#000000;stroke-width:1.5" />
<path d="M1001.7,116.44L1001.7,108.44" style="fill:none;stroke:#000000;stroke-width:1.5" />
<path d="M195.71,108.44L1075,108.44" style="fill:none;stroke:#000000;stroke-width:1.5" />
<g transform="rotate(90)">
<text x="371.42" y="29.18" transform="scale(1, -1)"
	style="font-family:Helvetica;font-weight:normal;font-style:normal;font-size:36px">Spectral Density (uV)</text>
</g>
<text x="87.869" y="-207.91" transform="scale(1, -1)"
	style="font-family:Helvetica;font-weight:normal;font-style:normal;font-size:36px">44.66</text>
<text x="87.869" y="-424.24" transform="scale(1, -1)"
	style="font-family:Helvetica;font-weight:normal;font-style:normal;font-size:36px">92.48</text>
<text x="67.848" y="-640.57" transform="scale(1, -1)"
	style="font-family:Helvetica;font-weight:normal;font-style:normal;font-size:36px">140.31</text>
<text x="67.848" y="-856.9" transform="scale(1, -1)"
	style="font-family:Helvetica;font-weight:normal;font-style:normal;font-size:36px">188.14</text>
<path d="M199.96,108.82L195.96,108.82" style="fill:none;stroke:#000000;stroke-width:1.5" />
<path d="M203.96,216.98L195.96,216.98" style="fill:none;stroke:#000000;stroke-width:1.5" />
<path d="M199.96,325.15L195.96,325.15" style="fill:none;stroke:#000000;stroke-width:1.5" />
<path d="M203.96,433.31L195.96,433.31" style="fill:none;stroke:#000000;stroke-width:1.5" />
<path d="M199.96,541.48L195.96,541.48" style="fill:none;stroke:#000000;stroke-width:1.5" />
<path d="M203.96,649.64L195.96,649.64" style="fill:none;stroke:#000000;stroke-width:1.5" />
<path d="M199.96,757.81L195.96,757.81" style="fill:none;stroke:#000000;stroke-width:1.5" />
<path d="M203.96,865.98L195.96,865.98" style="fill:none;stroke:#000000;stroke-width:1.5" />
<path d="M199.96,974.14L195.96,974.14" style="fill:none;stroke:#000000;stroke-width:1.5" />
<path d="M199.96,974.14L195.96,974.14" style="fill:none;stroke:#000000;stroke-width:1.5" />
<path d="M195.96,108.82L195.96,974.14" style="fill:none;stroke:#000000;stroke-width:1.5" />
<path d="M195.71,158.29L195.71,172.48" style="fill:none;stroke:#7A9CFF" />
<path d="M193.21,158.29L198.21,158.29" style="fill:none;stroke:#7A9CFF" />
<path d="M193.21,172.48L198.21,172.48" style="fill:none;stroke:#7A9CFF" />
<path d="M204.77,149.31L204.77,164.21" style="fill:none;stroke:#7A9CFF" />
<path d="M202.27,149.31L207.27,149.31" style="fill:none;stroke:#7A9CFF" />
<path d="M202.27,164.21L207.27,164.21" style="fill:none;stroke:#7A9CFF" />
<path d="M213.84,153.77L213.84,168.98" style="fill:none;stroke:#7A9CFF" />
<path d="M211.34,153.77L216.34,153.77" style="fill:none;stroke:#7A9CFF" />
<path d="M211.34,168.98L216.34,168.98" style="fill:none;stroke:#7A9CFF" />
<path d="M222.9,141.55L222.9,171.28" style="fill:none;stroke:#7A9CFF" />
<path d="M220.4,141.55L225.4,141.55" style="fill:none;stroke:#7A9CFF" />
<path d="M220.4,171.28L225.4,171.28" style="fill:none;stroke:#7A9CFF" />
<path d="M231.97,137.77L231.97,144.96" style="fill:none;stroke:#7A9CFF" />
<path d="M229.47,137.77L234.47,137.77" style="fill:none;stroke:#7A9CFF" />
<path d="M229.47,144.96L234.47,144.96" style="fill:none;stroke:#7A9CFF" />
<path d="M241.03,124.19L241.03,167.58" style="fill:none;stroke:#7A9CFF" />
<path d="M238.53,124.19L243.53,124.19" style="fill:none;stroke:#7A9CFF" />
<path d="M238.53,167.58L243.53,167.58" style="fill:none;stroke:#7A9CFF" />
<path d="M250.1,134.08L250.1,149.54" style="fill:none;stroke:#7A9CFF" />
<path d="M247.6,134.08L252.6,134.08" style="fill:none;stroke:#7A9CFF" />
<path d="M247.6,149.54L252.6,149.54" style="fill:none;stroke:#7A9CFF" />
<path d="M259.16,141.36L259.16,165.11" style="fill:none;stroke:#7A9CFF" />
<path d="M256.66,141.36L261.66,141.36" style="fill:none;stroke:#7A9CFF" />
<path d="M256.66,165.11L261.66,165.11" style="fill:none;stroke:#7A9CFF" />
<path d="M268.23,150.84L268.23,181.25" style="fill:none;stroke:#7A9CFF" />
<path d="M265.73,150.84L270.73,150.84" style="fill:none;stroke:#7A9CFF" />
<path d="M265.73,181.25L270.73,181.25" style="fill:none;stroke:#7A9CFF" />
<path d="M277.29,141.82L277.29,189.22" style="fill:none;stroke:#7A9CFF" />
<path d="M274.79,141.82L279.79,141.82" style="fill:none;stroke:#7A9CFF" />
<path d="M274.79,189.22L279.79,189.22" style="fill:none;stroke:#7A9CFF" />
<path d="M286.36,131.87L286.36,160.39" style="fill:none;stroke:#7A9CFF" />
<path d="M283.86,131.87L288.86,131.87" style="fill:none;stroke:#7A9CFF" />
<path d="M283.86,160.39L288.86,160.39" style="fill:none;stroke:#7A9CFF" />
<path d="M295.42,142.99L295.42,175.81" style="fill:none;stroke:#7A9CFF" />
<path d="M292.92,142.99L297.92,142.99" style="fill:none;stroke:#7A9CFF" />
<path d="M292.92,175.81L297.92,175.81" style="fill:none;stroke:#7A9CFF" />
<path d="M304.49,158.98L304.49,194.81" style="fill:none;stroke:#7A9CFF" />
<path d="M301.99,158.98L306.99,158.98" style="fill:none;stroke:#7A9CFF" />
<path d="M301.99,194.81L306.99,194.81" style="fill:none;stroke:#7A9CFF" />
<path d="M313.55,165.92L313.55,189.97" style="fill:none;stroke:#7A9CFF" />
<path d="M311.05,165.92L316.05,165.92" style="fill:none;stroke:#7A9CFF" />
<path d="M311.05,189.97L316.05,189.97" style="fill:none;stroke:#7A9CFF" />
<path d="M322.62,170.53L322.62,199.24" style="fill:none;stroke:#7A9CFF" />
<path d="M320.12,170.53L325.12,170.53" style="fill:none;stroke:#7A9CFF" />
<path d="M320.12,199.24L325.12,199.24" style="fill:none;stroke:#7A9CFF" />
<path d="M331.68,174.02L331.68,197.35" style="fill:none;stroke:#7A9CFF" />
<path d="M329.18,174.02L334.18,174.02" style="fill:none;stroke:#7A9CFF" />
<path d="M329.18,197.35L334.18,197.35" style="fill:none;stroke:#7A9CFF" />
<path d="M340.75,169.92L340.75,187.73" style="fill:none;stroke:#7A9CFF" />
<path d="M338.25,169.92L343.25,169.92" style="fill:none;stroke:#7A9CFF" />
<path d="M338.25,187.73L343.25,187.73" style="fill:none;stroke:#7A9CFF" />
<path d="M349.81,169.68L349.81,190.59" style="fill:none;stroke:#7A9CFF" />
<path d="M347.31,169.68L352.31,169.68" style="fill:none;stroke:#7A9CFF" />
<path d="M347.31,190.59L352.31,190.59" style="fill:none;stroke:#7A9CFF" />
<path d="M358.88,165.36L358.88,179.96" style="fill:none;stroke:#7A9CFF" />
<path d="M356.38,165.36L361.38,165.36" style="fill:none;stroke:#7A9CFF" />
<path d="M356.38,179.96L361.38,179.96" style="fill:none;stroke:#7A9CFF" />
<path d="M367.94,177.08L367.94,188.62" style="fill:none;stroke:#7A9CFF" />
<path d="M365.44,177.08L370.44,177.08" style="fill:none;stroke:#7A9CFF" />
<path d="M365.44,188.62L370.44,188.62" style="fill:none;stroke:#7A9CFF" />
<path d="M377.01,169.81L377.01,192.89" style="fill:none;stroke:#7A9CFF" />
<path d="M374.51,169.81L379.51,169.81" style="fill:none;stroke:#7A9CFF" />
<path d="M374.51,192.89L379.51,192.89" style="fill:none;stroke:#7A9CFF" />
<path d="M386.07,151.11L386.07,183" style="fill:none;stroke:#7A9CFF" />
<path d="M383.57,151.11L388.57,151.11" style="fill:none;stroke:#7A9CFF" />
<path d="M383.57,183L388.57,183" style="fill:none;stroke:#7A9CFF" />
<path d="M395.14,169.56L395.14,184.54" style="fill:none;stroke:#7A9CFF" />
<path d="M392.64,169.56L397.64,169.56" style="fill:none;stroke:#7A9CFF" />
<path d="M392.64,184.54L397.64,184.54" style="fill:none;stroke:#7A9CFF" />
<path d="M404.2,175.99L404.2,197.62" style="fill:none;stroke:#7A9CFF" />
<path d="M401.7,175.99L406.7,175.99" style="fill:none;stroke:#7A9CFF" />
<path d="M401.7,197.62L406.7,197.62" style="fill:none;stroke:#7A9CFF" />
<path d="M413.27,162.93L413.27,190.74" style="fill:none;stroke:#7A9CFF" />
<path d="M410.77,162.93L415.77,162.93" style="fill:none;stroke:#7A9CFF" />
<path d="M410.77,190.74L415.77,190.74" style="fill:none;stroke:#7A9CFF" />
<path d="M422.33,166.38L422.33,185.81" style="fill:none;stroke:#7A9CFF" />
<path d="M419.83,166.38L424.83,166.38" style="fill:none;stroke:#7A9CFF" />
<path d="M419.83,185.81L424.83,185.81" style="fill:none;stroke:#7A9CFF" />
<path d="M431.4,165.61L431.4,212.1" style="fill:none;stroke:#7A9CFF" />
<path d="M428.9,165.61L433.9,165.61" style="fill:none;stroke:#7A9CFF" />
<path d="M428.9,212.1L433.9,212.1" style="fill:none;stroke:#7A9CFF" />
<path d="M440.46,170.77L440.46,207.56" style="fill:none;stroke:#7A9CFF" />
<path d="M437.96,170.77L442.96,170.77" style="fill:none;stroke:#7A9CFF" />
<path d="M437.96,207.56L442.96,207.56" style="fill:none;stroke:#7A9CFF" />
<path d="M449.52,174.07L449.52,212.93" style="fill:none;stroke:#7A9CFF" />
<path d="M447.02,174.07L452.02,174.07" style="fill:none;stroke:#7A9CFF" />
<path d="M447.02,212.93L452.02,212.93" style="fill:none;stroke:#7A9CFF" />
<path d="M458.59,171.16L458.59,206.02" style="fill:none;stroke:#7A9CFF" />
<path d="M456.09,171.16L461.09,171.16" style="fill:none;stroke:#7A9CFF" />
<path d="M456.09,206.02L461.09,206.02" style="fill:none;stroke:#7A9CFF" />
<path d="M467.65,182.93L467.65,210.16" style="fill:none;stroke:#7A9CFF" />
<path d="M465.15,182.93L470.15,182.93" style="fill:none;stroke:#7A9CFF" />
<path d="M465.15,210.16L470.15,210.16" style="fill:none;stroke:#7A9CFF" />
<path d="M476.72,204.46L476.72,243.99" style="fill:none;stroke:#7A9CFF" />
<path d="M474.22,204.46L479.22,204.46" style="fill:none;stroke:#7A9CFF" />
<path d="M474.22,243.99L479.22,243.99" style="fill:none;stroke:#7A9CFF" />
<path d="M485.78,203.26L485.78,248.89" style="fill:none;stroke:#7A9CFF" />
<path d="M483.28,203.26L488.28,203.26" style="fill:none;stroke:#7A9CFF" />
<path d="M483.28,248.89L488.28,248.89" style="fill:none;stroke:#7A9CFF" />
<path d="M494.85,212.38L494.85,261.01" style="fill:none;stroke:#7A9CFF" />
<path d="M492.35,212.38L497.35,212.38" style="fill:none;stroke:#7A9CFF" />
<path d="M492.35,261.01L497.35,261.01" style="fill:none;stroke:#7A9CFF" />
<path d="M503.91,235.92L503.91,263.18" style="fill:none;stroke:#7A9CFF" />
<path d="M501.41,235.92L506.41,235.92" style="fill:none;stroke:#7A9CFF" />
<path d="M501.41,263.18L506.41,263.18" style="fill:none;stroke:#7A9CFF" />
<path d="M512.98,234.4L512.98,272.5" style="fill:none;stroke:#7A9CFF" />
<path d="M510.48,234.4L515.48,234.4" style="fill:none;stroke:#7A9CFF" />
<path d="M510.48,272.5L515.48,272.5" style="fill:none;stroke:#7A9CFF" />
<path d="M522.04,272.03L522.04,286.95" style="fill:none;stroke:#7A9CFF" />
<path d="M519.54,272.03L524.54,272.03" style="fill:none;stroke:#7A9CFF" />
<path d="M519.54,286.95L524.54,286.95" style="fill:none;stroke:#7A9CFF" />
<path d="M531.11,289.3L531.11,320.39" style="fill:none;stroke:#7A9CFF" />
<path d="M528.61,289.3L533.61,289.3" style="fill:none;stroke:#7A9CFF" />
<path d="M528.61,320.39L533.61,320.39" style="fill:none;stroke:#7A9CFF" />
<path d="M540.17,309.09L540.17,347.75" style="fill:none;stroke:#7A9CFF" />
<path d="M537.67,309.09L542.67,309.09" style="fill:none;stroke:#7A9CFF" />
<path d="M537.67,347.75L542.67,347.75" style="fill:none;stroke:#7A9CFF" />
<path d="M549.24,332.95L549.24,386.53" style="fill:none;stroke:#7A9CFF" />
<path d="M546.74,332.95L551.74,332.95" style="fill:none;stroke:#7A9CFF" />
<path d="M546.74,386.53L551.74,386.53" style="fill:none;stroke:#7A9CFF" />
<path d="M558.3,362.2L558.3,392.04" style="fill:none;stroke:#7A9CFF" />
<path d="M555.8,362.2L560.8,362.2" style="fill:none;stroke:#7A9CFF" />
<path d="M555.8,392.04L560.8,392.04" style="fill:none;stroke:#7A9CFF" />
<path d="M567.37,370.19L567.37,406.34" style="fill:none;stroke:#7A9CFF" />
<path d="M564.87,370.19L569.87,370.19" style="fill:none;stroke:#7A9CFF" />
<path d="M564.87,406.34L569.87,406.34" style="fill:none;stroke:#7A9CFF" />
<path d="M576.43,412.76L576.43,447.11" style="fill:none;stroke:#7A9CFF" />
<path d="M573.93,412.76L578.93,412.76" style="fill:none;stroke:#7A9CFF" />
<path d="M573.93,447.11L578.93,447.11" style="fill:none;stroke:#7A9CFF" />
<path d="M585.5,453.62L585.5,486.76" style="fill:none;stroke:#7A9CFF" />
<path d="M583,453.62L588,453.62" style="fill:none;stroke:#7A9CFF" />
<path d="M583,486.76L588,486.76" style="fill:none;stroke:#7A9CFF" />
<path d="M594.56,500.99L594.56,533.32" style="fill:none;stroke:#7A9CFF" />
<path d="M592.06,500.99L597.06,500.99" style="fill:none;stroke:#7A9CFF" />
<path d="M592.06,533.32L597.06,533.32" style="fill:none;stroke:#7A9CFF" />
<path d="M603.63,529.77L603.63,573.21" style="fill:none;stroke:#7A9CFF" />
<path d="M601.13,529.77L606.13,529.77" style="fill:none;stroke:#7A9CFF" />
<path d="M601.13,573.21L606.13,573.21" style="fill:none;stroke:#7A9CFF" />
<path d="M612.69,600.2L612.69,626.66" style="fill:none;stroke:#7A9CFF" />
<path d="M610.19,600.2L615.19,600.2" style="fill:none;stroke:#7A9CFF" />
<path d="M610.19,626.66L615.19,626.66" style="fill:none;stroke:#7A9CFF" />
<path d="M621.76,669.17L621.76,694.1" style="fill:none;stroke:#7A9CFF" />
<path d="M619.26,669.17L624.26,669.17" style="fill:none;stroke:#7A9CFF" />
<path d="M619.26,694.1L624.26,694.1" style="fill:none;stroke:#7A9CFF" />
<path d="M630.82,730.24L630.82,749.08" style="fill:none;stroke:#7A9CFF" />
<path d="M628.32,730.24L633.32,730.24" style="fill:none;stroke:#7A9CFF" />
<path d="M628.32,749.08L633.32,749.08" style="fill:none;stroke:#7A9CFF" />
<path d="M639.89,740.44L639.89,785.66" style="fill:none;stroke:#7A9CFF" />
<path d="M637.39,740.44L642.39,740.44" style="fill:none;stroke:#7A9CFF" />
<path d="M637.39,785.66L642.39,785.66" style="fill:none;stroke:#7A9CFF" />
<path d="M648.95,737.27L648.95,778.71" style="fill:none;stroke:#7A9CFF" />
<path d="M646.45,737.27L651.45,737.27" style="fill:none;stroke:#7A9CFF" />
<path d="M646.45,778.71L651.45,778.71" style="fill:none;stroke:#7A9CFF" />
<path d="M658.02,704.45L658.02,745.31" style="fill:none;stroke:#7A9CFF" />
<path d="M655.52,704.45L660.52,704.45" style="fill:none;stroke:#7A9CFF" />
<path d="M655.52,745.31L660.52,745.31" style="fill:none;stroke:#7A9CFF" />
<path d="M667.08,658.61L667.08,685.86" style="fill:none;stroke:#7A9CFF" />
<path d="M664.58,658.61L669.58,658.61" style="fill:none;stroke:#7A9CFF" />
<path d="M664.58,685.86L669.58,685.86" style="fill:none;stroke:#7A9CFF" />
<path d="M676.15,592.65L676.15,630.56" style="fill:none;stroke:#7A9CFF" />
<path d="M673.65,592.65L678.65,592.65" style="fill:none;stroke:#7A9CFF" />
<path d="M673.65,630.56L678.65,630.56" style="fill:none;stroke:#7A9CFF" />
<path d="M685.21,552.27L685.21,579.67" style="fill:none;stroke:#7A9CFF" />
<path d="M682.71,552.27L687.71,552.27" style="fill:none;stroke:#7A9CFF" />
<path d="M682.71,579.67L687.71,579.67" style="fill:none;stroke:#7A9CFF" />
<path d="M694.28,489.87L694.28,525.98" style="fill:none;stroke:#7A9CFF" />
<path d="M691.78,489.87L696.78,489.87" style="fill:none;stroke:#7A9CFF" />
<path d="M691.78,525.98L696.78,525.98" style="fill:none;stroke:#7A9CFF" />
<path d="M703.34,467.13L703.34,480.75" style="fill:none;stroke:#7A9CFF" />
<path d="M700.84,467.13L705.84,467.13" style="fill:none;stroke:#7A9CFF" />
<path d="M700.84,480.75L705.84,480.75" style="fill:none;stroke:#7A9CFF" />
<path d="M712.41,417.26L712.41,438.3" style="fill:none;stroke:#7A9CFF" />
<path d="M709.91,417.26L714.91,417.26" style="fill:none;stroke:#7A9CFF" />
<path d="M709.91,438.3L714.91,438.3" style="fill:none;stroke:#7A9CFF" />
<path d="M721.47,380.48L721.47,407.37" style="fill:none;stroke:#7A9CFF" />
<path d="M718.97,380.48L723.97,380.48" style="fill:none;stroke:#7A9CFF" />
<path d="M718.97,407.37L723.97,407.37" style="fill:none;stroke:#7A9CFF" />
<path d="M730.54,344.9L730.54,368.53" style="fill:none;stroke:#7A9CFF" />
<path d="M728.04,344.9L733.04,344.9" style="fill:none;stroke:#7A9CFF" />
<path d="M728.04,368.53L733.04,368.53" style="fill:none;stroke:#7A9CFF" />
<path d="M739.6,328.62L739.6,352.16" style="fill:none;stroke:#7A9CFF" />
<path d="M737.1,328.62L742.1,328.62" style="fill:none;stroke:#7A9CFF" />
<path d="M737.1,352.16L742.1,352.16" style="fill:none;stroke:#7A9CFF" />
<path d="M748.67,304.44L748.67,335.36" style="fill:none;stroke:#7A9CFF" />
<path d="M746.17,304.44L751.17,304.44" style="fill:none;stroke:#7A9CFF" />
<path d="M746.17,335.36L751.17,335.36" style="fill:none;stroke:#7A9CFF" />
<path d="M757.73,289.82L757.73,304.66" style="fill:none;stroke:#7A9CFF" />
<path d="M755.23,289.82L760.23,289.82" style="fill:none;stroke:#7A9CFF" />
<path d="M755.23,304.66L760.23,304.66" style="fill:none;stroke:#7A9CFF" />
<path d="M766.79,271.91L766.79,284.81" style="fill:none;stroke:#7A9CFF" />
<path d="M764.29,271.91L769.29,271.91" style="fill:none;stroke:#7A9CFF" />
<path d="M764.29,284.81L769.29,284.81" style="fill:none;stroke:#7A9CFF" />
<path d="M775.86,272.29L775.86,282.77" style="fill:none;stroke:#7A9CFF" />
<path d="M773.36,272.29L778.36,272.29" style="fill:none;stroke:#7A9CFF" />
<path d="M773.36,282.77L778.36,282.77" style="fill:none;stroke:#7A9CFF" />
<path d="M784.92,253.61L784.92,263.39" style="fill:none;stroke:#7A9CFF" />
<path d="M782.42,253.61L787.42,253.61" style="fill:none;stroke:#7A9CFF" />
<path d="M782.42,263.39L787.42,263.39" style="fill:none;stroke:#7A9CFF" />
<path d="M793.99,245.03L793.99,256.93" style="fill:none;stroke:#7A9CFF" />
<path d="M791.49,245.03L796.49,245.03" style="fill:none;stroke:#7A9CFF" />
<path d="M791.49,256.93L796.49,256.93" style="fill:none;stroke:#7A9CFF" />
<path d="M803.05,223.51L803.05,244.9" style="fill:none;stroke:#7A9CFF" />
<path d="M800.55,223.51L805.55,223.51" style="fill:none;stroke:#7A9CFF" />
<path d="M800.55,244.9L805.55,244.9" style="fill:none;stroke:#7A9CFF" />
<path d="M812.12,216.96L812.12,238.03" style="fill:none;stroke:#7A9CFF" />
<path d="M809.62,216.96L814.62,216.96" style="fill:none;stroke:#7A9CFF" />
<path d="M809.62,238.03L814.62,238.03" style="fill:none;stroke:#7A9CFF" />
<path d="M821.18,224.08L821.18,252.47" style="fill:none;stroke:#7A9CFF" />
<path d="M818.68,224.08L823.68,224.08" style="fill:none;stroke:#7A9CFF" />
<path d="M818.68,252.47L823.68,252.47" style="fill:none;stroke:#7A9CFF" />
<path d="M830.25,225.92L830.25,244.76" style="fill:none;stroke:#7A9CFF" />
<path d="M827.75,225.92L832.75,225.92" style="fill:none;stroke:#7A9CFF" />
<path d="M827.75,244.76L832.75,244.76" style="fill:none;stroke:#7A9CFF" />
<path d="M839.31,218.1L839.31,244.24" style="fill:none;stroke:#7A9CFF" />
<path d="M836.81,218.1L841.81,218.1" style="fill:none;stroke:#7A9CFF" />
<path d="M836.81,244.24L841.81,244.24" style="fill:none;stroke:#7A9CFF" />
<path d="M848.38,211.25L848.38,243.63" style="fill:none;stroke:#7A9CFF" />
<path d="M845.88,211.25L850.88,211.25" style="fill:none;stroke:#7A9CFF" />
<path d="M845.88,243.63L850.88,243.63" style="fill:none;stroke:#7A9CFF" />
<path d="M857.44,211.68L857.44,231.61" style="fill:none;stroke:#7A9CFF" />
<path d="M854.94,211.68L859.94,211.68" style="fill:none;stroke:#7A9CFF" />
<path d="M854.94,231.61L859.94,231.61" style="fill:none;stroke:#7A9CFF" />
<path d="M866.51,205.26L866.51,238.11" style="fill:none;stroke:#7A9CFF" />
<path d="M864.01,205.26L869.01,205.26" style="fill:none;stroke:#7A9CFF" />
<path d="M864.01,238.11L869.01,238.11" style="fill:none;stroke:#7A9CFF" />
<path d="M875.57,209.65L875.57,242.27" style="fill:none;stroke:#7A9CFF" />
<path d="M873.07,209.65L878.07,209.65" style="fill:none;stroke:#7A9CFF" />
<path d="M873.07,242.27L878.07,242.27" style="fill:none;stroke:#7A9CFF" />
<path d="M884.64,213.91L884.64,237.28" style="fill:none;stroke:#7A9CFF" />
<path d="M882.14,213.91L887.14,213.91" style="fill:none;stroke:#7A9CFF" />
<path d="M882.14,237.28L887.14,237.28" style="fill:none;stroke:#7A9CFF" />
<path d="M893.7,218.78L893.7,236.89" style="fill:none;stroke:#7A9CFF" />
<path d="M891.2,218.78L896.2,218.78" style="fill:none;stroke:#7A9CFF" />
<path d="M891.2,236.89L896.2,236.89" style="fill:none;stroke:#7A9CFF" />
<path d="M902.77,221.41L902.77,231.77" style="fill:none;stroke:#7A9CFF" />
<path d="M900.27,221.41L905.27,221.41" style="fill:none;stroke:#7A9CFF" />
<path d="M900.27,231.77L905.27,231.77" style="fill:none;stroke:#7A9CFF" />
<path d="M911.83,214.24L911.83,234.56" style="fill:none;stroke:#7A9CFF" />
<path d="M909.33,214.24L914.33,214.24" style="fill:none;stroke:#7A9CFF" />
<path d="M909.33,234.56L914.33,234.56" style="fill:none;stroke:#7A9CFF" />
<path d="M920.9,213.78L920.9,239.43" style="fill:none;stroke:#7A9CFF" />
<path d="M918.4,213.78L923.4,213.78" style="fill:none;stroke:#7A9CFF" />
<path d="M918.4,239.43L923.4,239.43" style="fill:none;stroke:#7A9CFF" />
<path d="M929.96,215.99L929.96,227.62" style="fill:none;stroke:#7A9CFF" />
<path d="M927.46,215.99L932.46,215.99" style="fill:none;stroke:#7A9CFF" />
<path d="M927.46,227.62L932.46,227.62" style="fill:none;stroke:#7A9CFF" />
<path d="M939.03,221.65L939.03,240.99" style="fill:none;stroke:#7A9CFF" />
<path d="M936.53,221.65L941.53,221.65" style="fill:none;stroke:#7A9CFF" />
<path d="M936.53,240.99L941.53,240.99" style="fill:none;stroke:#7A9CFF" />
<path d="M948.09,199.6L948.09,247.24" style="fill:none;stroke:#7A9CFF" />
<path d="M945.59,199.6L950.59,199.6" style="fill:none;stroke:#7A9CFF" />
<path d="M945.59,247.24L950.59,247.24" style="fill:none;stroke:#7A9CFF" />
<path d="M957.16,207.16L957.16,263.46" style="fill:none;stroke:#7A9CFF" />
<path d="M954.66,207.16L959.66,207.16" style="fill:none;stroke:#7A9CFF" />
<path d="M954.66,263.46L959.66,263.46" style="fill:none;stroke:#7A9CFF" />
<path d="M966.22,220.99L966.22,244.8" style="fill:none;stroke:#7A9CFF" />
<path d="M963.72,220.99L968.72,220.99" style="fill:none;stroke:#7A9CFF" />
<path d="M963.72,244.8L968.72,244.8" style="fill:none;stroke:#7A9CFF" />
<path d="M975.29,220.85L975.29,254.09" style="fill:none;stroke:#7A9CFF" />
<path d="M972.79,220.85L977.79,220.85" style="fill:none;stroke:#7A9CFF" />
<path d="M972.79,254.09L977.79,254.09" style="fill:none;stroke:#7A9CFF" />
<path d="M984.35,220.1L984.35,251.21" style="fill:none;stroke:#7A9CFF" />
<path d="M981.85,220.1L986.85,220.1" style="fill:none;stroke:#7A9CFF" />
<path d="M981.85,251.21L986.85,251.21" style="fill:none;stroke:#7A9CFF" />
<path d="M993.42,225.08L993.42,246" style="fill:none;stroke:#7A9CFF" />
<path d="M990.92,225.08L995.92,225.08" style="fill:none;stroke:#7A9CFF" />
<path d="M990.92,246L995.92,246" style="fill:none;stroke:#7A9CFF" />
<path d="M1002.5,224.91L1002.5,243.13" style="fill:none;stroke:#7A9CFF" />
<path d="M999.98,224.91L1005,224.91" style="fill:none;stroke:#7A9CFF" />
<path d="M999.98,243.13L1005,243.13" style="fill:none;stroke:#7A9CFF" />
<path d="M1011.5,239.51L1011.5,260.58" style="fill:none;stroke:#7A9CFF" />
<path d="M1009,239.51L1014,239.51" style="fill:none;stroke:#7A9CFF" />
<path d="M1009,260.58L1014,260.58" style="fill:none;stroke:#7A9CFF" />
<path d="M1020.6,239.72L1020.6,249.25" style="fill:none;stroke:#7A9CFF" />
<path d="M1018.1,239.72L1023.1,239.72" style="fill:none;stroke:#7A9CFF" />
<path d="M1018.1,249.25L1023.1,249.25" style="fill:none;stroke:#7A9CFF" />
<path d="M1029.7,234.23L1029.7,262.29" style="fill:none;stroke:#7A9CFF" />
<path d="M1027.2,234.23L1032.2,234.23" style="fill:none;stroke:#7A9CFF" />
<path d="M1027.2,262.29L1032.2,262.29" style="fill:none;stroke:#7A9CFF" />
<path d="M1038.7,251.42L1038.7,276.19" style="fill:none;stroke:#7A9CFF" />
<path d="M1036.2,251.42L1041.2,251.42" style="fill:none;stroke:#7A9CFF" />
<path d="M1036.2,276.19L1041.2,276.19" style="fill:none;stroke:#7A9CFF" />
<path d="M1047.8,252.49L1047.8,280.8" style="fill:none;stroke:#7A9CFF" />
<path d="M1045.3,252.49L1050.3,252.49" style="fill:none;stroke:#7A9CFF" />
<path d="M1045.3,280.8L1050.3,280.8" style="fill:none;stroke:#7A9CFF" />
<path d="M1056.9,251.98L1056.9,285.44" style="fill:none;stroke:#7A9CFF" />
<path d="M1054.4,251.98L1059.4,251.98" style="fill:none;stroke:#7A9CFF" />
<path d="M1054.4,285.44L1059.4,285.44" style="fill:none;stroke:#7A9CFF" />
<path d="M1065.9,254.33L1065.9,293.59" style="fill:none;stroke:#7A9CFF" />
<path d="M1063.4,254.33L1068.4,254.33" style="fill:none;stroke:#7A9CFF" />
<path d="M1063.4,293.59L1068.4,293.59" style="fill:none;stroke:#7A9CFF" />
<path d="M1075,268.36L1075,292.39" style="fill:none;stroke:#7A9CFF" />
<path d="M1072.5,268.36L1077.5,268.36" style="fill:none;stroke:#7A9CFF" />
<path d="M1072.5,292.39L1077.5,292.39" style="fill:none;stroke:#7A9CFF" />
<path d="M200.71,165.38A5,5 0 1 1 190.71,165.38A5,5 0 1 1 200.71,165.38Z" style="fill:#7A9CFF" />
<path d="M209.77,156.76A5,5 0 1 1 199.77,156.76A5,5 0 1 1 209.77,156.76Z" style="fill:#7A9CFF" />
<path d="M218.84,161.38A5,5 0 1 1 208.84,161.38A5,5 0 1 1 218.84,161.38Z" style="fill:#7A9CFF" />
<path d="M227.9,156.41A5,5 0 1 1 217.9,156.41A5,5 0 1 1 227.9,156.41Z" style="fill:#7A9CFF" />
<path d="M236.97,141.37A5,5 0 1 1 226.97,141.37A5,5 0 1 1 236.97,141.37Z" style="fill:#7A9CFF" />
<path d="M246.03,145.89A5,5 0 1 1 236.03,145.89A5,5 0 1 1 246.03,145.89Z" style="fill:#7A9CFF" />
<path d="M255.1,141.81A5,5 0 1 1 245.1,141.81A5,5 0 1 1 255.1,141.81Z" style="fill:#7A9CFF" />
<path d="M264.16,153.24A5,5 0 1 1 254.16,153.24A5,5 0 1 1 264.16,153.24Z" style="fill:#7A9CFF" />
<path d="M273.23,166.05A5,5 0 1 1 263.23,166.05A5,5 0 1 1 273.23,166.05Z" style="fill:#7A9CFF" />
<path d="M282.29,165.52A5,5 0 1 1 272.29,165.52A5,5 0 1 1 282.29,165.52Z" style="fill:#7A9CFF" />
<path d="M291.36,146.13A5,5 0 1 1 281.36,146.13A5,5 0 1 1 291.36,146.13Z" style="fill:#7A9CFF" />
<path d="M300.42,159.4A5,5 0 1 1 290.42,159.4A5,5 0 1 1 300.42,159.4Z" style="fill:#7A9CFF" />
<path d="M309.49,176.9A5,5 0 1 1 299.49,176.9A5,5 0 1 1 309.49,176.9Z" style="fill:#7A9CFF" />
<path d="M318.55,177.95A5,5 0 1 1 308.55,177.95A5,5 0 1 1 318.55,177.95Z" style="fill:#7A9CFF" />
<path d="M327.62,184.88A5,5 0 1 1 317.62,184.88A5,5 0 1 1 327.62,184.88Z" style="fill:#7A9CFF" />
<path d="M336.68,185.68A5,5 0 1 1 326.68,185.68A5,5 0 1 1 336.68,185.68Z" style="fill:#7A9CFF" />
<path d="M345.75,178.83A5,5 0 1 1 335.75,178.83A5,5 0 1 1 345.75,178.83Z" style="fill:#7A9CFF" />
<path d="M354.81,180.13A5,5 0 1 1 344.81,180.13A5,5 0 1 1 354.81,180.13Z" style="fill:#7A9CFF" />
<path d="M363.88,172.66A5,5 0 1 1 353.88,172.66A5,5 0 1 1 363.88,172.66Z" style="fill:#7A9CFF" />
<path d="M372.94,182.85A5,5 0 1 1 362.94,182.85A5,5 0 1 1 372.94,182.85Z" style="fill:#7A9CFF" />
<path d="M382.01,181.35A5,5 0 1 1 372.01,181.35A5,5 0 1 1 382.01,181.35Z" style="fill:#7A9CFF" />
<path d="M391.07,167.06A5,5 0 1 1 381.07,167.06A5,5 0 1 1 391.07,167.06Z" style="fill:#7A9CFF" />
<path d="M400.14,177.05A5,5 0 1 1 390.14,177.05A5,5 0 1 1 400.14,177.05Z" style="fill:#7A9CFF" />
<path d="M409.2,186.81A5,5 0 1 1 399.2,186.81A5,5 0 1 1 409.2,186.81Z" style="fill:#7A9CFF" />
<path d="M418.27,176.84A5,5 0 1 1 408.27,176.84A5,5 0 1 1 418.27,176.84Z" style="fill:#7A9CFF" />
<path d="M427.33,176.09A5,5 0 1 1 417.33,176.09A5,5 0 1 1 427.33,176.09Z" style="fill:#7A9CFF" />
<path d="M436.4,188.86A5,5 0 1 1 426.4,188.86A5,5 0 1 1 436.4,188.86Z" style="fill:#7A9CFF" />
<path d="M445.46,189.16A5,5 0 1 1 435.46,189.16A5,5 0 1 1 445.46,189.16Z" style="fill:#7A9CFF" />
<path d="M454.52,193.5A5,5 0 1 1 444.52,193.5A5,5 0 1 1 454.52,193.5Z" style="fill:#7A9CFF" />
<path d="M463.59,188.59A5,5 0 1 1 453.59,188.59A5,5 0 1 1 463.59,188.59Z" style="fill:#7A9CFF" />
<path d="M472.65,196.54A5,5 0 1 1 462.65,196.54A5,5 0 1 1 472.65,196.54Z" style="fill:#7A9CFF" />
<path d="M481.72,224.22A5,5 0 1 1 471.72,224.22A5,5 0 1 1 481.72,224.22Z" style="fill:#7A9CFF" />
<path d="M490.78,226.08A5,5 0 1 1 480.78,226.08A5,5 0 1 1 490.78,226.08Z" style="fill:#7A9CFF" />
<path d="M499.85,236.7A5,5 0 1 1 489.85,236.7A5,5 0 1 1 499.85,236.7Z" style="fill:#7A9CFF" />
<path d="M508.91,249.55A5,5 0 1 1 498.91,249.55A5,5 0 1 1 508.91,249.55Z" style="fill:#7A9CFF" />
<path d="M517.98,253.45A5,5 0 1 1 507.98,253.45A5,5 0 1 1 517.98,253.45Z" style="fill:#7A9CFF" />
<path d="M527.04,279.49A5,5 0 1 1 517.04,279.49A5,5 0 1 1 527.04,279.49Z" style="fill:#7A9CFF" />
<path d="M536.11,304.84A5,5 0 1 1 526.11,304.84A5,5 0 1 1 536.11,304.84Z" style="fill:#7A9CFF" />
<path d="M545.17,328.42A5,5 0 1 1 535.17,328.42A5,5 0 1 1 545.17,328.42Z" style="fill:#7A9CFF" />
<path d="M554.24,359.74A5,5 0 1 1 544.24,359.74A5,5 0 1 1 554.24,359.74Z" style="fill:#7A9CFF" />
<path d="M563.3,377.12A5,5 0 1 1 553.3,377.12A5,5 0 1 1 563.3,377.12Z" style="fill:#7A9CFF" />
<path d="M572.37,388.26A5,5 0 1 1 562.37,388.26A5,5 0 1 1 572.37,388.26Z" style="fill:#7A9CFF" />
<path d="M581.43,429.94A5,5 0 1 1 571.43,429.94A5,5 0 1 1 581.43,429.94Z" style="fill:#7A9CFF" />
<path d="M590.5,470.19A5,5 0 1 1 580.5,470.19A5,5 0 1 1 590.5,470.19Z" style="fill:#7A9CFF" />
<path d="M599.56,517.16A5,5 0 1 1 589.56,517.16A5,5 0 1 1 599.56,517.16Z" style="fill:#7A9CFF" />
<path d="M608.63,551.49A5,5 0 1 1 598.63,551.49A5,5 0 1 1 608.63,551.49Z" style="fill:#7A9CFF" />
<path d="M617.69,613.43A5,5 0 1 1 607.69,613.43A5,5 0 1 1 617.69,613.43Z" style="fill:#7A9CFF" />
<path d="M626.76,681.64A5,5 0 1 1 616.76,681.64A5,5 0 1 1 626.76,681.64Z" style="fill:#7A9CFF" />
<path d="M635.82,739.66A5,5 0 1 1 625.82,739.66A5,5 0 1 1 635.82,739.66Z" style="fill:#7A9CFF" />
<path d="M644.89,763.05A5,5 0 1 1 634.89,763.05A5,5 0 1 1 644.89,763.05Z" style="fill:#7A9CFF" />
<path d="M653.95,757.99A5,5 0 1 1 643.95,757.99A5,5 0 1 1 653.95,757.99Z" style="fill:#7A9CFF" />
<path d="M663.02,724.88A5,5 0 1 1 653.02,724.88A5,5 0 1 1 663.02,724.88Z" style="fill:#7A9CFF" />
<path d="M672.08,672.24A5,5 0 1 1 662.08,672.24A5,5 0 1 1 672.08,672.24Z" style="fill:#7A9CFF" />
<path d="M681.15,611.6A5,5 0 1 1 671.15,611.6A5,5 0 1 1 681.15,611.6Z" style="fill:#7A9CFF" />
<path d="M690.21,565.97A5,5 0 1 1 680.21,565.97A5,5 0 1 1 690.21,565.97Z" style="fill:#7A9CFF" />
<path d="M699.28,507.93A5,5 0 1 1 689.28,507.93A5,5 0 1 1 699.28,507.93Z" style="fill:#7A9CFF" />
<path d="M708.34,473.94A5,5 0 1 1 698.34,473.94A5,5 0 1 1 708.34,473.94Z" style="fill:#7A9CFF" />
<path d="M717.41,427.78A5,5 0 1 1 707.41,427.78A5,5 0 1 1 717.41,427.78Z" style="fill:#7A9CFF" />
<path d="M726.47,393.93A5,5 0 1 1 716.47,393.93A5,5 0 1 1 726.47,393.93Z" style="fill:#7A9CFF" />
<path d="M735.54,356.72A5,5 0 1 1 725.54,356.72A5,5 0 1 1 735.54,356.72Z" style="fill:#7A9CFF" />
<path d="M744.6,340.39A5,5 0 1 1 734.6,340.39A5,5 0 1 1 744.6,340.39Z" style="fill:#7A9CFF" />
<path d="M753.67,319.9A5,5 0 1 1 743.67,319.9A5,5 0 1 1 753.67,319.9Z" style="fill:#7A9CFF" />
<path d="M762.73,297.24A5,5 0 1 1 752.73,297.24A5,5 0 1 1 762.73,297.24Z" style="fill:#7A9CFF" />
<path d="M771.79,278.36A5,5 0 1 1 761.79,278.36A5,5 0 1 1 771.79,278.36Z" style="fill:#7A9CFF" />
<path d="M780.86,277.53A5,5 0 1 1 770.86,277.53A5,5 0 1 1 780.86,277.53Z" style="fill:#7A9CFF" />
<path d="M789.92,258.5A5,5 0 1 1 779.92,258.5A5,5 0 1 1 789.92,258.5Z" style="fill:#7A9CFF" />
<path d="M798.99,250.98A5,5 0 1 1 788.99,250.98A5,5 0 1 1 798.99,250.98Z" style="fill:#7A9CFF" />
<path d="M808.05,234.2A5,5 0 1 1 798.05,234.2A5,5 0 1 1 808.05,234.2Z" style="fill:#7A9CFF" />
<path d="M817.12,227.49A5,5 0 1 1 807.12,227.49A5,5 0 1 1 817.12,227.49Z" style="fill:#7A9CFF" />
<path d="M826.18,238.27A5,5 0 1 1 816.18,238.27A5,5 0 1 1 826.18,238.27Z" style="fill:#7A9CFF" />
<path d="M835.25,235.34A5,5 0 1 1 825.25,235.34A5,5 0 1 1 835.25,235.34Z" style="fill:#7A9CFF" />
<path d="M844.31,231.17A5,5 0 1 1 834.31,231.17A5,5 0 1 1 844.31,231.17Z" style="fill:#7A9CFF" />
<path d="M853.38,227.44A5,5 0 1 1 843.38,227.44A5,5 0 1 1 853.38,227.44Z" style="fill:#7A9CFF" />
<path d="M862.44,221.65A5,5 0 1 1 852.44,221.65A5,5 0 1 1 862.44,221.65Z" style="fill:#7A9CFF" />
<path d="M871.51,221.69A5,5 0 1 1 861.51,221.69A5,5 0 1 1 871.51,221.69Z" style="fill:#7A9CFF" />
<path d="M880.57,225.96A5,5 0 1 1 870.57,225.96A5,5 0 1 1 880.57,225.96Z" style="fill:#7A9CFF" />
<path d="M889.64,225.59A5,5 0 1 1 879.64,225.59A5,5 0 1 1 889.64,225.59Z" style="fill:#7A9CFF" />
<path d="M898.7,227.84A5,5 0 1 1 888.7,227.84A5,5 0 1 1 898.7,227.84Z" style="fill:#7A9CFF" />
<path d="M907.77,226.59A5,5 0 1 1 897.77,226.59A5,5 0 1 1 907.77,226.59Z" style="fill:#7A9CFF" />
<path d="M916.83,224.4A5,5 0 1 1 906.83,224.4A5,5 0 1 1 916.83,224.4Z" style="fill:#7A9CFF" />
<path d="M925.9,226.6A5,5 0 1 1 915.9,226.6A5,5 0 1 1 925.9,226.6Z" style="fill:#7A9CFF" />
<path d="M934.96,221.81A5,5 0 1 1 924.96,221.81A5,5 0 1 1 934.96,221.81Z" style="fill:#7A9CFF" />
<path d="M944.03,231.32A5,5 0 1 1 934.03,231.32A5,5 0 1 1 944.03,231.32Z" style="fill:#7A9CFF" />
<path d="M953.09,223.42A5,5 0 1 1 943.09,223.42A5,5 0 1 1 953.09,223.42Z" style="fill:#7A9CFF" />
<path d="M962.16,235.31A5,5 0 1 1 952.16,235.31A5,5 0 1 1 962.16,235.31Z" style="fill:#7A9CFF" />
<path d="M971.22,232.9A5,5 0 1 1 961.22,232.9A5,5 0 1 1 971.22,232.9Z" style="fill:#7A9CFF" />
<path d="M980.29,237.47A5,5 0 1 1 970.29,237.47A5,5 0 1 1 980.29,237.47Z" style="fill:#7A9CFF" />
<path d="M989.35,235.66A5,5 0 1 1 979.35,235.66A5,5 0 1 1 989.35,235.66Z" style="fill:#7A9CFF" />
<path d="M998.42,235.54A5,5 0 1 1 988.42,235.54A5,5 0 1 1 998.42,235.54Z" style="fill:#7A9CFF" />
<path d="M1007.5,234.02A5,5 0 1 1 997.48,234.02A5,5 0 1 1 1007.5,234.02Z" style="fill:#7A9CFF" />
<path d="M1016.5,250.05A5,5 0 1 1 1006.5,250.05A5,5 0 1 1 1016.5,250.05Z" style="fill:#7A9CFF" />
<path d="M1025.6,244.48A5,5 0 1 1 1015.6,244.48A5,5 0 1 1 1025.6,244.48Z" style="fill:#7A9CFF" />
<path d="M1034.7,248.26A5,5 0 1 1 1024.7,248.26A5,5 0 1 1 1034.7,248.26Z" style="fill:#7A9CFF" />
<path d="M1043.7,263.8A5,5 0 1 1 1033.7,263.8A5,5 0 1 1 1043.7,263.8Z" style="fill:#7A9CFF" />
<path d="M1052.8,266.65A5,5 0 1 1 1042.8,266.65A5,5 0 1 1 1052.8,266.65Z" style="fill:#7A9CFF" />
<path d="M1061.9,268.71A5,5 0 1 1 1051.9,268.71A5,5 0 1 1 1061.9,268.71Z" style="fill:#7A9CFF" />
<path d="M1070.9,273.96A5,5 0 1 1 1060.9,273.96A5,5 0 1 1 1070.9,273.96Z" style="fill:#7A9CFF" />
<path d="M1080,280.37A5,5 0 1 1 1070,280.37A5,5 0 1 1 1080,280.37Z" style="fill:#7A9CFF" />
<path d="M195.71,974.14L1075,974.14" style="fill:none;stroke:#000000" />
<path d="M1075,108.82L1075,974.14" style="fill:none;stroke:#000000" />
<path d="M1038,942.02A8,8 0 1 1 1022,942.02A8,8 0 1 1 1038,942.02Z" style="fill:#7A9CFF" />
<text x="738.87" y="-933.54" transform="scale(1, -1)"
	style="font-family:Helvetica;font-weight:normal;font-style:normal;font-size:36px">.1s dwell 5 avgs</text>
</g>
</svg>
