<?xml version="1.0"?>
<!-- Generated by SVGo and Plotinum VG -->
<svg width="1080pt" height="1080pt" viewBox="0 0 1080 1080"
	xmlns="http://www.w3.org/2000/svg"
	xmlns:xlink="http://www.w3.org/1999/xlink">
<g transform="scale(1, -1) translate(0, -1080)">
<path d="M0,0L1080,0L1080,1080L0,1080Z" style="fill:#-8000000000000000-8000000000000000-8000000000000000;fill-opacity:0" />
<text x="233.91" y="-1015.2" transform="scale(1, -1)"
	style="font-family:Helvetica;font-weight:normal;font-style:normal;font-size:80px">500 nm Te CABS</text>
<text x="424.23" y="-17.172" transform="scale(1, -1)"
	style="font-family:Helvetica;font-weight:normal;font-style:normal;font-size:56px">Frequency (GHz)</text>
<text x="192.75" y="-119.73" transform="scale(1, -1)"
	style="font-family:Helvetica;font-weight:normal;font-style:normal;font-size:56px">2.4</text>
<text x="395.1" y="-119.73" transform="scale(1, -1)"
	style="font-family:Helvetica;font-weight:normal;font-style:normal;font-size:56px">2.5</text>
<text x="597.45" y="-119.73" transform="scale(1, -1)"
	style="font-family:Helvetica;font-weight:normal;font-style:normal;font-size:56px">2.6</text>
<text x="799.8" y="-119.73" transform="scale(1, -1)"
	style="font-family:Helvetica;font-weight:normal;font-style:normal;font-size:56px">2.7</text>
<text x="1002.2" y="-119.73" transform="scale(1, -1)"
	style="font-family:Helvetica;font-weight:normal;font-style:normal;font-size:56px">2.8</text>
<path d="M231.67,181.12L231.67,173.12" style="fill:none;stroke:#000000;stroke-width:1.5" />
<path d="M332.85,177.12L332.85,173.12" style="fill:none;stroke:#000000;stroke-width:1.5" />
<path d="M434.02,181.12L434.02,173.12" style="fill:none;stroke:#000000;stroke-width:1.5" />
<path d="M535.2,177.12L535.2,173.12" style="fill:none;stroke:#000000;stroke-width:1.5" />
<path d="M636.37,181.12L636.37,173.12" style="fill:none;stroke:#000000;stroke-width:1.5" />
<path d="M737.55,177.12L737.55,173.12" style="fill:none;stroke:#000000;stroke-width:1.5" />
<path d="M838.73,181.12L838.73,173.12" style="fill:none;stroke:#000000;stroke-width:1.5" />
<path d="M939.9,177.12L939.9,173.12" style="fill:none;stroke:#000000;stroke-width:1.5" />
<path d="M1041.1,181.12L1041.1,173.12" style="fill:none;stroke:#000000;stroke-width:1.5" />
<path d="M231.67,173.12L1046.2,173.12" style="fill:none;stroke:#000000;stroke-width:1.5" />
<g transform="rotate(90)">
<text x="274.9" y="45.391" transform="scale(1, -1)"
	style="font-family:Helvetica;font-weight:normal;font-style:normal;font-size:56px">Spectral Density (pV)</text>
</g>
<text x="114.43" y="-251.71" transform="scale(1, -1)"
	style="font-family:Helvetica;font-weight:normal;font-style:normal;font-size:56px">190</text>
<text x="114.43" y="-436.87" transform="scale(1, -1)"
	style="font-family:Helvetica;font-weight:normal;font-style:normal;font-size:56px">210</text>
<text x="114.43" y="-622.02" transform="scale(1, -1)"
	style="font-family:Helvetica;font-weight:normal;font-style:normal;font-size:56px">230</text>
<text x="114.43" y="-807.18" transform="scale(1, -1)"
	style="font-family:Helvetica;font-weight:normal;font-style:normal;font-size:56px">250</text>
<path d="M235.42,173.24L231.42,173.24" style="fill:none;stroke:#000000;stroke-width:1.5" />
<path d="M239.42,265.82L231.42,265.82" style="fill:none;stroke:#000000;stroke-width:1.5" />
<path d="M235.42,358.4L231.42,358.4" style="fill:none;stroke:#000000;stroke-width:1.5" />
<path d="M239.42,450.98L231.42,450.98" style="fill:none;stroke:#000000;stroke-width:1.5" />
<path d="M235.42,543.55L231.42,543.55" style="fill:none;stroke:#000000;stroke-width:1.5" />
<path d="M239.42,636.13L231.42,636.13" style="fill:none;stroke:#000000;stroke-width:1.5" />
<path d="M235.42,728.71L231.42,728.71" style="fill:none;stroke:#000000;stroke-width:1.5" />
<path d="M239.42,821.29L231.42,821.29" style="fill:none;stroke:#000000;stroke-width:1.5" />
<path d="M231.42,173.24L231.42,905.62" style="fill:none;stroke:#000000;stroke-width:1.5" />
<path d="M249.92,438.26A5,5 0 1 1 239.92,438.26A5,5 0 1 1 249.92,438.26Z" style="fill:#1FD3AC" />
<path d="M272.18,415.64A5,5 0 1 1 262.18,415.64A5,5 0 1 1 272.18,415.64Z" style="fill:#1FD3AC" />
<path d="M294.43,385.53A5,5 0 1 1 284.43,385.53A5,5 0 1 1 294.43,385.53Z" style="fill:#1FD3AC" />
<path d="M316.69,269.05A5,5 0 1 1 306.69,269.05A5,5 0 1 1 316.69,269.05Z" style="fill:#1FD3AC" />
<path d="M338.95,489.05A5,5 0 1 1 328.95,489.05A5,5 0 1 1 338.95,489.05Z" style="fill:#1FD3AC" />
<path d="M361.21,261.26A5,5 0 1 1 351.21,261.26A5,5 0 1 1 361.21,261.26Z" style="fill:#1FD3AC" />
<path d="M383.47,424.69A5,5 0 1 1 373.47,424.69A5,5 0 1 1 383.47,424.69Z" style="fill:#1FD3AC" />
<path d="M405.73,296.41A5,5 0 1 1 395.73,296.41A5,5 0 1 1 405.73,296.41Z" style="fill:#1FD3AC" />
<path d="M427.99,318.17A5,5 0 1 1 417.99,318.17A5,5 0 1 1 427.99,318.17Z" style="fill:#1FD3AC" />
<path d="M450.24,303.15A5,5 0 1 1 440.24,303.15A5,5 0 1 1 450.24,303.15Z" style="fill:#1FD3AC" />
<path d="M472.5,591.59A5,5 0 1 1 462.5,591.59A5,5 0 1 1 472.5,591.59Z" style="fill:#1FD3AC" />
<path d="M494.76,318.31A5,5 0 1 1 484.76,318.31A5,5 0 1 1 494.76,318.31Z" style="fill:#1FD3AC" />
<path d="M517.02,370.2A5,5 0 1 1 507.02,370.2A5,5 0 1 1 517.02,370.2Z" style="fill:#1FD3AC" />
<path d="M539.28,651.88A5,5 0 1 1 529.28,651.88A5,5 0 1 1 539.28,651.88Z" style="fill:#1FD3AC" />
<path d="M561.54,458.58A5,5 0 1 1 551.54,458.58A5,5 0 1 1 561.54,458.58Z" style="fill:#1FD3AC" />
<path d="M583.8,734.37A5,5 0 1 1 573.8,734.37A5,5 0 1 1 583.8,734.37Z" style="fill:#1FD3AC" />
<path d="M606.05,476.1A5,5 0 1 1 596.05,476.1A5,5 0 1 1 606.05,476.1Z" style="fill:#1FD3AC" />
<path d="M628.31,706A5,5 0 1 1 618.31,706A5,5 0 1 1 628.31,706Z" style="fill:#1FD3AC" />
<path d="M650.57,781.15A5,5 0 1 1 640.57,781.15A5,5 0 1 1 650.57,781.15Z" style="fill:#1FD3AC" />
<path d="M672.83,708.7A5,5 0 1 1 662.83,708.7A5,5 0 1 1 672.83,708.7Z" style="fill:#1FD3AC" />
<path d="M695.09,905.62A5,5 0 1 1 685.09,905.62A5,5 0 1 1 695.09,905.62Z" style="fill:#1FD3AC" />
<path d="M717.35,549.59A5,5 0 1 1 707.35,549.59A5,5 0 1 1 717.35,549.59Z" style="fill:#1FD3AC" />
<path d="M739.61,724.19A5,5 0 1 1 729.61,724.19A5,5 0 1 1 739.61,724.19Z" style="fill:#1FD3AC" />
<path d="M761.87,372.59A5,5 0 1 1 751.87,372.59A5,5 0 1 1 761.87,372.59Z" style="fill:#1FD3AC" />
<path d="M784.12,559.78A5,5 0 1 1 774.12,559.78A5,5 0 1 1 784.12,559.78Z" style="fill:#1FD3AC" />
<path d="M806.38,416.24A5,5 0 1 1 796.38,416.24A5,5 0 1 1 806.38,416.24Z" style="fill:#1FD3AC" />
<path d="M828.64,343.12A5,5 0 1 1 818.64,343.12A5,5 0 1 1 828.64,343.12Z" style="fill:#1FD3AC" />
<path d="M850.9,282.85A5,5 0 1 1 840.9,282.85A5,5 0 1 1 850.9,282.85Z" style="fill:#1FD3AC" />
<path d="M873.16,514.65A5,5 0 1 1 863.16,514.65A5,5 0 1 1 873.16,514.65Z" style="fill:#1FD3AC" />
<path d="M895.42,262.66A5,5 0 1 1 885.42,262.66A5,5 0 1 1 895.42,262.66Z" style="fill:#1FD3AC" />
<path d="M917.68,475.75A5,5 0 1 1 907.68,475.75A5,5 0 1 1 917.68,475.75Z" style="fill:#1FD3AC" />
<path d="M939.93,330.08A5,5 0 1 1 929.93,330.08A5,5 0 1 1 939.93,330.08Z" style="fill:#1FD3AC" />
<path d="M962.19,277.24A5,5 0 1 1 952.19,277.24A5,5 0 1 1 962.19,277.24Z" style="fill:#1FD3AC" />
<path d="M984.45,286.03A5,5 0 1 1 974.45,286.03A5,5 0 1 1 984.45,286.03Z" style="fill:#1FD3AC" />
<path d="M1006.7,213.06A5,5 0 1 1 996.71,213.06A5,5 0 1 1 1006.7,213.06Z" style="fill:#1FD3AC" />
<path d="M1029,264.4A5,5 0 1 1 1019,264.4A5,5 0 1 1 1029,264.4Z" style="fill:#1FD3AC" />
<path d="M1051.2,315.4A5,5 0 1 1 1041.2,315.4A5,5 0 1 1 1051.2,315.4Z" style="fill:#1FD3AC" />
<path d="M231.67,821.29L1041.1,821.29" style="fill:none;stroke:#000000" />
<path d="M1041.1,173.24L1041.1,821.29" style="fill:none;stroke:#000000" />
</g>
</svg>
