<?xml version="1.0"?>
<!-- Generated by SVGo and Plotinum VG -->
<svg width="1080pt" height="1080pt" viewBox="0 0 1080 1080"
	xmlns="http://www.w3.org/2000/svg"
	xmlns:xlink="http://www.w3.org/1999/xlink">
<g transform="scale(1, -1) translate(0, -1080)">
<path d="M0,0L1080,0L1080,1080L0,1080Z" style="fill:#-8000000000000000-8000000000000000-8000000000000000;fill-opacity:0" />
<text x="533.05" y="-1039.5" transform="scale(1, -1)"
	style="font-family:Helvetica;font-weight:normal;font-style:normal;font-size:50px"> </text>
<text x="444.04" y="-11.039" transform="scale(1, -1)"
	style="font-family:Helvetica;font-weight:normal;font-style:normal;font-size:36px">Pump Power (mW)</text>
<text x="132.13" y="-71.258" transform="scale(1, -1)"
	style="font-family:Helvetica;font-weight:normal;font-style:normal;font-size:36px">0</text>
<text x="273.43" y="-71.258" transform="scale(1, -1)"
	style="font-family:Helvetica;font-weight:normal;font-style:normal;font-size:36px">50</text>
<text x="414.72" y="-71.258" transform="scale(1, -1)"
	style="font-family:Helvetica;font-weight:normal;font-style:normal;font-size:36px">100</text>
<text x="566.02" y="-71.258" transform="scale(1, -1)"
	style="font-family:Helvetica;font-weight:normal;font-style:normal;font-size:36px">150</text>
<text x="717.33" y="-71.258" transform="scale(1, -1)"
	style="font-family:Helvetica;font-weight:normal;font-style:normal;font-size:36px">200</text>
<text x="868.63" y="-71.258" transform="scale(1, -1)"
	style="font-family:Helvetica;font-weight:normal;font-style:normal;font-size:36px">250</text>
<text x="1019.9" y="-71.258" transform="scale(1, -1)"
	style="font-family:Helvetica;font-weight:normal;font-style:normal;font-size:36px">300</text>
<path d="M142.14,116.44L142.14,108.44" style="fill:none;stroke:#000000;stroke-width:1.5" />
<path d="M217.8,112.44L217.8,108.44" style="fill:none;stroke:#000000;stroke-width:1.5" />
<path d="M293.45,116.44L293.45,108.44" style="fill:none;stroke:#000000;stroke-width:1.5" />
<path d="M369.1,112.44L369.1,108.44" style="fill:none;stroke:#000000;stroke-width:1.5" />
<path d="M444.75,116.44L444.75,108.44" style="fill:none;stroke:#000000;stroke-width:1.5" />
<path d="M520.4,112.44L520.4,108.44" style="fill:none;stroke:#000000;stroke-width:1.5" />
<path d="M596.06,116.44L596.06,108.44" style="fill:none;stroke:#000000;stroke-width:1.5" />
<path d="M671.71,112.44L671.71,108.44" style="fill:none;stroke:#000000;stroke-width:1.5" />
<path d="M747.36,116.44L747.36,108.44" style="fill:none;stroke:#000000;stroke-width:1.5" />
<path d="M823.01,112.44L823.01,108.44" style="fill:none;stroke:#000000;stroke-width:1.5" />
<path d="M898.66,116.44L898.66,108.44" style="fill:none;stroke:#000000;stroke-width:1.5" />
<path d="M974.32,112.44L974.32,108.44" style="fill:none;stroke:#000000;stroke-width:1.5" />
<path d="M1050,116.44L1050,108.44" style="fill:none;stroke:#000000;stroke-width:1.5" />
<path d="M142.14,108.44L1050,108.44" style="fill:none;stroke:#000000;stroke-width:1.5" />
<g transform="rotate(90)">
<text x="315.48" y="29.18" transform="scale(1, -1)"
	style="font-family:Helvetica;font-weight:normal;font-style:normal;font-size:36px">Stokes/Anti-Stokes Heights</text>
</g>
<text x="97.871" y="-95.246" transform="scale(1, -1)"
	style="font-family:Helvetica;font-weight:normal;font-style:normal;font-size:36px">1</text>
<text x="67.848" y="-266.95" transform="scale(1, -1)"
	style="font-family:Helvetica;font-weight:normal;font-style:normal;font-size:36px">1.1</text>
<text x="67.848" y="-438.65" transform="scale(1, -1)"
	style="font-family:Helvetica;font-weight:normal;font-style:normal;font-size:36px">1.2</text>
<text x="67.848" y="-610.36" transform="scale(1, -1)"
	style="font-family:Helvetica;font-weight:normal;font-style:normal;font-size:36px">1.3</text>
<text x="67.848" y="-782.06" transform="scale(1, -1)"
	style="font-family:Helvetica;font-weight:normal;font-style:normal;font-size:36px">1.4</text>
<text x="67.848" y="-953.77" transform="scale(1, -1)"
	style="font-family:Helvetica;font-weight:normal;font-style:normal;font-size:36px">1.5</text>
<path d="M143.89,104.32L135.89,104.32" style="fill:none;stroke:#000000;stroke-width:1.5" />
<path d="M139.89,190.17L135.89,190.17" style="fill:none;stroke:#000000;stroke-width:1.5" />
<path d="M143.89,276.02L135.89,276.02" style="fill:none;stroke:#000000;stroke-width:1.5" />
<path d="M139.89,361.87L135.89,361.87" style="fill:none;stroke:#000000;stroke-width:1.5" />
<path d="M143.89,447.72L135.89,447.72" style="fill:none;stroke:#000000;stroke-width:1.5" />
<path d="M139.89,533.58L135.89,533.58" style="fill:none;stroke:#000000;stroke-width:1.5" />
<path d="M143.89,619.43L135.89,619.43" style="fill:none;stroke:#000000;stroke-width:1.5" />
<path d="M139.89,705.28L135.89,705.28" style="fill:none;stroke:#000000;stroke-width:1.5" />
<path d="M143.89,791.13L135.89,791.13" style="fill:none;stroke:#000000;stroke-width:1.5" />
<path d="M139.89,876.99L135.89,876.99" style="fill:none;stroke:#000000;stroke-width:1.5" />
<path d="M143.89,962.84L135.89,962.84" style="fill:none;stroke:#000000;stroke-width:1.5" />
<path d="M135.89,104.32L135.89,962.84" style="fill:none;stroke:#000000;stroke-width:1.5" />
<path d="M142.14,165.35L308.58,200.85L475.01,236.35L641.45,271.85" style="fill:none;stroke:#7F7F7F;stroke-width:3" />
<path d="M142.14,962.84L1050,962.84" style="fill:none;stroke:#000000" />
<path d="M1050,104.32L1050,962.84" style="fill:none;stroke:#000000" />
<path d="M148.14,157.13A6,6 0 1 1 136.14,157.13A6,6 0 1 1 148.14,157.13Z" style="fill:#1BAA8B" />
<path d="M314.58,207.67A6,6 0 1 1 302.58,207.67A6,6 0 1 1 314.58,207.67Z" style="fill:#1BAA8B" />
<path d="M481.01,247.39A6,6 0 1 1 469.01,247.39A6,6 0 1 1 481.01,247.39Z" style="fill:#1BAA8B" />
<path d="M647.45,262.22A6,6 0 1 1 635.45,262.22A6,6 0 1 1 647.45,262.22Z" style="fill:#1BAA8B" />
</g>
</svg>
