<?xml version="1.0"?>
<!-- Generated by SVGo and Plotinum VG -->
<svg width="1080pt" height="1080pt" viewBox="0 0 1080 1080"
	xmlns="http://www.w3.org/2000/svg"
	xmlns:xlink="http://www.w3.org/1999/xlink">
<g transform="scale(1, -1) translate(0, -1080)">
<path d="M0,0L1080,0L1080,1080L0,1080Z" style="fill:#-8000000000000000-8000000000000000-8000000000000000;fill-opacity:0" />
<text x="280.17" y="-1039.5" transform="scale(1, -1)"
	style="font-family:Helvetica;font-weight:normal;font-style:normal;font-size:50px">Height Ratios vs Power</text>
<text x="423.9" y="-11.039" transform="scale(1, -1)"
	style="font-family:Helvetica;font-weight:normal;font-style:normal;font-size:36px">Pump Power (mW)</text>
<text x="318.87" y="-71.258" transform="scale(1, -1)"
	style="font-family:Helvetica;font-weight:normal;font-style:normal;font-size:36px">50</text>
<text x="545.89" y="-71.258" transform="scale(1, -1)"
	style="font-family:Helvetica;font-weight:normal;font-style:normal;font-size:36px">100</text>
<text x="782.91" y="-71.258" transform="scale(1, -1)"
	style="font-family:Helvetica;font-weight:normal;font-style:normal;font-size:36px">150</text>
<text x="1019.9" y="-71.258" transform="scale(1, -1)"
	style="font-family:Helvetica;font-weight:normal;font-style:normal;font-size:36px">200</text>
<path d="M101.87,112.44L101.87,108.44" style="fill:none;stroke:#000000;stroke-width:1.5" />
<path d="M220.38,112.44L220.38,108.44" style="fill:none;stroke:#000000;stroke-width:1.5" />
<path d="M338.9,116.44L338.9,108.44" style="fill:none;stroke:#000000;stroke-width:1.5" />
<path d="M457.41,112.44L457.41,108.44" style="fill:none;stroke:#000000;stroke-width:1.5" />
<path d="M575.92,116.44L575.92,108.44" style="fill:none;stroke:#000000;stroke-width:1.5" />
<path d="M694.43,112.44L694.43,108.44" style="fill:none;stroke:#000000;stroke-width:1.5" />
<path d="M812.94,116.44L812.94,108.44" style="fill:none;stroke:#000000;stroke-width:1.5" />
<path d="M931.46,112.44L931.46,108.44" style="fill:none;stroke:#000000;stroke-width:1.5" />
<path d="M1050,116.44L1050,108.44" style="fill:none;stroke:#000000;stroke-width:1.5" />
<path d="M101.87,108.44L1050,108.44" style="fill:none;stroke:#000000;stroke-width:1.5" />
<g transform="rotate(90)">
<text x="321.13" y="29.18" transform="scale(1, -1)"
	style="font-family:Helvetica;font-weight:normal;font-style:normal;font-size:36px">Stokes/Anti-Stokes Heights</text>
</g>
<text x="67.848" y="-101.25" transform="scale(1, -1)"
	style="font-family:Helvetica;font-weight:normal;font-style:normal;font-size:36px">1</text>
<text x="67.848" y="-400.12" transform="scale(1, -1)"
	style="font-family:Helvetica;font-weight:normal;font-style:normal;font-size:36px">2</text>
<text x="67.848" y="-698.99" transform="scale(1, -1)"
	style="font-family:Helvetica;font-weight:normal;font-style:normal;font-size:36px">3</text>
<path d="M113.87,110.32L105.87,110.32" style="fill:none;stroke:#000000;stroke-width:1.5" />
<path d="M109.87,259.75L105.87,259.75" style="fill:none;stroke:#000000;stroke-width:1.5" />
<path d="M113.87,409.19L105.87,409.19" style="fill:none;stroke:#000000;stroke-width:1.5" />
<path d="M109.87,558.63L105.87,558.63" style="fill:none;stroke:#000000;stroke-width:1.5" />
<path d="M113.87,708.06L105.87,708.06" style="fill:none;stroke:#000000;stroke-width:1.5" />
<path d="M109.87,857.5L105.87,857.5" style="fill:none;stroke:#000000;stroke-width:1.5" />
<path d="M105.87,110.32L105.87,968.14" style="fill:none;stroke:#000000;stroke-width:1.5" />
<path d="M997.82,533.79L945.68,514.51L888.79,493.49L831.91,472.46L779.76,453.19L737.1,437.42L684.95,418.15L604.36,388.36L547.48,367.33L500.07,349.81L447.93,330.54L391.04,309.51L305.71,277.98L253.57,258.7L215.64,244.69L168.24,227.16" style="fill:none;stroke:#7F7F7F;stroke-width:3" />
<path d="M1003.8,392.44A6,6 0 1 1 991.82,392.44A6,6 0 1 1 1003.8,392.44Z" style="fill:#1BAA8B" />
<path d="M951.68,406.56A6,6 0 1 1 939.68,406.56A6,6 0 1 1 951.68,406.56Z" style="fill:#1BAA8B" />
<path d="M894.79,304.31A6,6 0 1 1 882.79,304.31A6,6 0 1 1 894.79,304.31Z" style="fill:#1BAA8B" />
<path d="M837.91,851.78A6,6 0 1 1 825.91,851.78A6,6 0 1 1 837.91,851.78Z" style="fill:#1BAA8B" />
<path d="M785.76,459.98A6,6 0 1 1 773.76,459.98A6,6 0 1 1 785.76,459.98Z" style="fill:#1BAA8B" />
<path d="M743.1,367.04A6,6 0 1 1 731.1,367.04A6,6 0 1 1 743.1,367.04Z" style="fill:#1BAA8B" />
<path d="M690.95,440.44A6,6 0 1 1 678.95,440.44A6,6 0 1 1 690.95,440.44Z" style="fill:#1BAA8B" />
<path d="M610.36,968.14A6,6 0 1 1 598.36,968.14A6,6 0 1 1 610.36,968.14Z" style="fill:#1BAA8B" />
<path d="M553.48,241.36A6,6 0 1 1 541.48,241.36A6,6 0 1 1 553.48,241.36Z" style="fill:#1BAA8B" />
<path d="M506.07,235.43A6,6 0 1 1 494.07,235.43A6,6 0 1 1 506.07,235.43Z" style="fill:#1BAA8B" />
<path d="M453.93,219.85A6,6 0 1 1 441.93,219.85A6,6 0 1 1 453.93,219.85Z" style="fill:#1BAA8B" />
<path d="M397.04,197.01A6,6 0 1 1 385.04,197.01A6,6 0 1 1 397.04,197.01Z" style="fill:#1BAA8B" />
<path d="M311.71,194.94A6,6 0 1 1 299.71,194.94A6,6 0 1 1 311.71,194.94Z" style="fill:#1BAA8B" />
<path d="M259.57,303.94A6,6 0 1 1 247.57,303.94A6,6 0 1 1 259.57,303.94Z" style="fill:#1BAA8B" />
<path d="M221.64,383.57A6,6 0 1 1 209.64,383.57A6,6 0 1 1 221.64,383.57Z" style="fill:#1BAA8B" />
<path d="M174.24,110.32A6,6 0 1 1 162.24,110.32A6,6 0 1 1 174.24,110.32Z" style="fill:#1BAA8B" />
</g>
</svg>
