<?xml version="1.0"?>
<!-- Generated by SVGo and Plotinum VG -->
<svg width="1296pt" height="1080pt" viewBox="0 0 1296 1080"
	xmlns="http://www.w3.org/2000/svg"
	xmlns:xlink="http://www.w3.org/1999/xlink">
<g transform="scale(1, -1) translate(0, -1080)">
<path d="M0,0L1296,0L1296,1080L0,1080Z" style="fill-opacity:0" />
<text x="358.95" y="-1047.6" transform="scale(1, -1)"
	style="font-family:Liberation Sans;font-variant:normal;font-weight:normal;font-style:normal;font-size:40px">CoBS Measurement: 1 μm TeO2</text>
<text x="507.52" y="-10.732" transform="scale(1, -1)"
	style="font-family:Liberation Sans;font-variant:normal;font-weight:normal;font-style:normal;font-size:35px">Frequency (Ω/2π) (GHz)</text>
<text x="74.774" y="-63.857" transform="scale(1, -1)"
	style="font-family:Liberation Serif;font-variant:normal;font-weight:normal;font-style:normal;font-size:30px">11.80</text>
<text x="497.17" y="-63.857" transform="scale(1, -1)"
	style="font-family:Liberation Serif;font-variant:normal;font-weight:normal;font-style:normal;font-size:30px">12.05</text>
<text x="920.12" y="-63.857" transform="scale(1, -1)"
	style="font-family:Liberation Serif;font-variant:normal;font-weight:normal;font-style:normal;font-size:30px">12.30</text>
<path d="M107.97,87.324L1288,87.324" style="fill:none;stroke:#000000;stroke-width:2.5" />
<g transform="rotate(90)">
<text x="442.59" y="28.369" transform="scale(1, -1)"
	style="font-family:Liberation Sans;font-variant:normal;font-weight:normal;font-style:normal;font-size:35px">Arbitrary Units</text>
</g>
<text x="61.519" y="-80.266" transform="scale(1, -1)"
	style="font-family:Liberation Sans;font-variant:normal;font-weight:normal;font-style:normal;font-size:30px">0.0</text>
<text x="61.519" y="-235.47" transform="scale(1, -1)"
	style="font-family:Liberation Sans;font-variant:normal;font-weight:normal;font-style:normal;font-size:30px">0.2</text>
<text x="61.519" y="-390.68" transform="scale(1, -1)"
	style="font-family:Liberation Sans;font-variant:normal;font-weight:normal;font-style:normal;font-size:30px">0.4</text>
<text x="61.519" y="-545.88" transform="scale(1, -1)"
	style="font-family:Liberation Sans;font-variant:normal;font-weight:normal;font-style:normal;font-size:30px">0.6</text>
<text x="61.519" y="-701.09" transform="scale(1, -1)"
	style="font-family:Liberation Sans;font-variant:normal;font-weight:normal;font-style:normal;font-size:30px">0.8</text>
<text x="61.519" y="-856.3" transform="scale(1, -1)"
	style="font-family:Liberation Sans;font-variant:normal;font-weight:normal;font-style:normal;font-size:30px">1.0</text>
<path d="M111.56,87.824L111.56,1019.1" style="fill:none;stroke:#000000;stroke-width:2.5" />
<path d="M107.97,87.824L107.97,97.824" style="fill:none;stroke:#000000;stroke-width:2.5" />
<text x="85.641" y="-53.424" transform="scale(1, -1)"
	style="font-family:Liberation Sans;font-variant:normal;font-weight:normal;font-style:normal;font-size:30px">11.80</text>
<path d="M192.56,87.824L192.56,92.824" style="fill:none;stroke:#000000;stroke-width:2.5" />
<path d="M277.15,87.824L277.15,92.824" style="fill:none;stroke:#000000;stroke-width:2.5" />
<path d="M361.74,87.824L361.74,92.824" style="fill:none;stroke:#000000;stroke-width:2.5" />
<path d="M446.33,87.824L446.33,92.824" style="fill:none;stroke:#000000;stroke-width:2.5" />
<path d="M530.92,87.824L530.92,97.824" style="fill:none;stroke:#000000;stroke-width:2.5" />
<text x="509.7" y="-53.424" transform="scale(1, -1)"
	style="font-family:Liberation Sans;font-variant:normal;font-weight:normal;font-style:normal;font-size:30px">12.05</text>
<path d="M615.51,87.824L615.51,92.824" style="fill:none;stroke:#000000;stroke-width:2.5" />
<path d="M700.1,87.824L700.1,92.824" style="fill:none;stroke:#000000;stroke-width:2.5" />
<path d="M784.69,87.824L784.69,92.824" style="fill:none;stroke:#000000;stroke-width:2.5" />
<path d="M869.28,87.824L869.28,92.824" style="fill:none;stroke:#000000;stroke-width:2.5" />
<path d="M953.87,87.824L953.87,97.824" style="fill:none;stroke:#000000;stroke-width:2.5" />
<text x="932.66" y="-53.424" transform="scale(1, -1)"
	style="font-family:Liberation Sans;font-variant:normal;font-weight:normal;font-style:normal;font-size:30px">12.30</text>
<path d="M1038.5,87.824L1038.5,92.824" style="fill:none;stroke:#000000;stroke-width:2.5" />
<path d="M1123,87.824L1123,92.824" style="fill:none;stroke:#000000;stroke-width:2.5" />
<path d="M1207.6,87.824L1207.6,92.824" style="fill:none;stroke:#000000;stroke-width:2.5" />
<path d="M107.97,87.824L117.97,87.824" style="fill:none;stroke:#000000;stroke-width:2.5" />
<text x="47.819" y="-79.424" transform="scale(1, -1)"
	style="font-family:Liberation Sans;font-variant:normal;font-weight:normal;font-style:normal;font-size:30px">0.0</text>
<path d="M107.97,113.69L112.97,113.69" style="fill:none;stroke:#000000;stroke-width:2.5" />
<path d="M107.97,139.56L112.97,139.56" style="fill:none;stroke:#000000;stroke-width:2.5" />
<path d="M107.97,165.43L112.97,165.43" style="fill:none;stroke:#000000;stroke-width:2.5" />
<path d="M107.97,191.3L112.97,191.3" style="fill:none;stroke:#000000;stroke-width:2.5" />
<path d="M107.97,217.16L112.97,217.16" style="fill:none;stroke:#000000;stroke-width:2.5" />
<path d="M107.97,243.03L117.97,243.03" style="fill:none;stroke:#000000;stroke-width:2.5" />
<text x="47.819" y="-234.63" transform="scale(1, -1)"
	style="font-family:Liberation Sans;font-variant:normal;font-weight:normal;font-style:normal;font-size:30px">0.2</text>
<path d="M107.97,268.9L112.97,268.9" style="fill:none;stroke:#000000;stroke-width:2.5" />
<path d="M107.97,294.77L112.97,294.77" style="fill:none;stroke:#000000;stroke-width:2.5" />
<path d="M107.97,320.63L112.97,320.63" style="fill:none;stroke:#000000;stroke-width:2.5" />
<path d="M107.97,346.5L112.97,346.5" style="fill:none;stroke:#000000;stroke-width:2.5" />
<path d="M107.97,372.37L112.97,372.37" style="fill:none;stroke:#000000;stroke-width:2.5" />
<path d="M107.97,398.24L117.97,398.24" style="fill:none;stroke:#000000;stroke-width:2.5" />
<text x="47.819" y="-389.84" transform="scale(1, -1)"
	style="font-family:Liberation Sans;font-variant:normal;font-weight:normal;font-style:normal;font-size:30px">0.4</text>
<path d="M107.97,424.1L112.97,424.1" style="fill:none;stroke:#000000;stroke-width:2.5" />
<path d="M107.97,449.97L112.97,449.97" style="fill:none;stroke:#000000;stroke-width:2.5" />
<path d="M107.97,475.84L112.97,475.84" style="fill:none;stroke:#000000;stroke-width:2.5" />
<path d="M107.97,501.71L112.97,501.71" style="fill:none;stroke:#000000;stroke-width:2.5" />
<path d="M107.97,527.58L112.97,527.58" style="fill:none;stroke:#000000;stroke-width:2.5" />
<path d="M107.97,553.44L117.97,553.44" style="fill:none;stroke:#000000;stroke-width:2.5" />
<text x="47.819" y="-545.04" transform="scale(1, -1)"
	style="font-family:Liberation Sans;font-variant:normal;font-weight:normal;font-style:normal;font-size:30px">0.6</text>
<path d="M107.97,579.31L112.97,579.31" style="fill:none;stroke:#000000;stroke-width:2.5" />
<path d="M107.97,605.18L112.97,605.18" style="fill:none;stroke:#000000;stroke-width:2.5" />
<path d="M107.97,631.05L112.97,631.05" style="fill:none;stroke:#000000;stroke-width:2.5" />
<path d="M107.97,656.91L112.97,656.91" style="fill:none;stroke:#000000;stroke-width:2.5" />
<path d="M107.97,682.78L112.97,682.78" style="fill:none;stroke:#000000;stroke-width:2.5" />
<path d="M107.97,708.65L117.97,708.65" style="fill:none;stroke:#000000;stroke-width:2.5" />
<text x="47.819" y="-700.25" transform="scale(1, -1)"
	style="font-family:Liberation Sans;font-variant:normal;font-weight:normal;font-style:normal;font-size:30px">0.8</text>
<path d="M107.97,734.52L112.97,734.52" style="fill:none;stroke:#000000;stroke-width:2.5" />
<path d="M107.97,760.39L112.97,760.39" style="fill:none;stroke:#000000;stroke-width:2.5" />
<path d="M107.97,786.25L112.97,786.25" style="fill:none;stroke:#000000;stroke-width:2.5" />
<path d="M107.97,812.12L112.97,812.12" style="fill:none;stroke:#000000;stroke-width:2.5" />
<path d="M107.97,837.99L112.97,837.99" style="fill:none;stroke:#000000;stroke-width:2.5" />
<path d="M107.97,863.86L117.97,863.86" style="fill:none;stroke:#000000;stroke-width:2.5" />
<text x="47.819" y="-855.46" transform="scale(1, -1)"
	style="font-family:Liberation Sans;font-variant:normal;font-weight:normal;font-style:normal;font-size:30px">1.0</text>
<path d="M112.2,427.4L112.2,522.71" style="fill:none;stroke:#FF7AB4" />
<path d="M109.7,427.4L114.7,427.4" style="fill:none;stroke:#FF7AB4" />
<path d="M109.7,522.71L114.7,522.71" style="fill:none;stroke:#FF7AB4" />
<path d="M120.66,494.42L120.66,633.19" style="fill:none;stroke:#FF7AB4" />
<path d="M118.16,494.42L123.16,494.42" style="fill:none;stroke:#FF7AB4" />
<path d="M118.16,633.19L123.16,633.19" style="fill:none;stroke:#FF7AB4" />
<path d="M129.11,422.74L129.11,512.36" style="fill:none;stroke:#FF7AB4" />
<path d="M126.61,422.74L131.61,422.74" style="fill:none;stroke:#FF7AB4" />
<path d="M126.61,512.36L131.61,512.36" style="fill:none;stroke:#FF7AB4" />
<path d="M137.57,469.6L137.57,609.35" style="fill:none;stroke:#FF7AB4" />
<path d="M135.07,469.6L140.07,469.6" style="fill:none;stroke:#FF7AB4" />
<path d="M135.07,609.35L140.07,609.35" style="fill:none;stroke:#FF7AB4" />
<path d="M146.03,479.98L146.03,552.74" style="fill:none;stroke:#FF7AB4" />
<path d="M143.53,479.98L148.53,479.98" style="fill:none;stroke:#FF7AB4" />
<path d="M143.53,552.74L148.53,552.74" style="fill:none;stroke:#FF7AB4" />
<path d="M154.49,374.32L154.49,427.84" style="fill:none;stroke:#FF7AB4" />
<path d="M151.99,374.32L156.99,374.32" style="fill:none;stroke:#FF7AB4" />
<path d="M151.99,427.84L156.99,427.84" style="fill:none;stroke:#FF7AB4" />
<path d="M162.95,355.76L162.95,412.93" style="fill:none;stroke:#FF7AB4" />
<path d="M160.45,355.76L165.45,355.76" style="fill:none;stroke:#FF7AB4" />
<path d="M160.45,412.93L165.45,412.93" style="fill:none;stroke:#FF7AB4" />
<path d="M171.41,320.9L171.41,369.96" style="fill:none;stroke:#FF7AB4" />
<path d="M168.91,320.9L173.91,320.9" style="fill:none;stroke:#FF7AB4" />
<path d="M168.91,369.96L173.91,369.96" style="fill:none;stroke:#FF7AB4" />
<path d="M179.87,300.87L179.87,343.69" style="fill:none;stroke:#FF7AB4" />
<path d="M177.37,300.87L182.37,300.87" style="fill:none;stroke:#FF7AB4" />
<path d="M177.37,343.69L182.37,343.69" style="fill:none;stroke:#FF7AB4" />
<path d="M188.33,299.14L188.33,346.01" style="fill:none;stroke:#FF7AB4" />
<path d="M185.83,299.14L190.83,299.14" style="fill:none;stroke:#FF7AB4" />
<path d="M185.83,346.01L190.83,346.01" style="fill:none;stroke:#FF7AB4" />
<path d="M196.79,325.95L196.79,373.55" style="fill:none;stroke:#FF7AB4" />
<path d="M194.29,325.95L199.29,325.95" style="fill:none;stroke:#FF7AB4" />
<path d="M194.29,373.55L199.29,373.55" style="fill:none;stroke:#FF7AB4" />
<path d="M205.25,269.43L205.25,295.81" style="fill:none;stroke:#FF7AB4" />
<path d="M202.75,269.43L207.75,269.43" style="fill:none;stroke:#FF7AB4" />
<path d="M202.75,295.81L207.75,295.81" style="fill:none;stroke:#FF7AB4" />
<path d="M213.7,307.05L213.7,361.48" style="fill:none;stroke:#FF7AB4" />
<path d="M211.2,307.05L216.2,307.05" style="fill:none;stroke:#FF7AB4" />
<path d="M211.2,361.48L216.2,361.48" style="fill:none;stroke:#FF7AB4" />
<path d="M222.16,274.83L222.16,326.8" style="fill:none;stroke:#FF7AB4" />
<path d="M219.66,274.83L224.66,274.83" style="fill:none;stroke:#FF7AB4" />
<path d="M219.66,326.8L224.66,326.8" style="fill:none;stroke:#FF7AB4" />
<path d="M230.62,286.31L230.62,333.83" style="fill:none;stroke:#FF7AB4" />
<path d="M228.12,286.31L233.12,286.31" style="fill:none;stroke:#FF7AB4" />
<path d="M228.12,333.83L233.12,333.83" style="fill:none;stroke:#FF7AB4" />
<path d="M239.08,275.67L239.08,300.9" style="fill:none;stroke:#FF7AB4" />
<path d="M236.58,275.67L241.58,275.67" style="fill:none;stroke:#FF7AB4" />
<path d="M236.58,300.9L241.58,300.9" style="fill:none;stroke:#FF7AB4" />
<path d="M247.54,259.22L247.54,301.7" style="fill:none;stroke:#FF7AB4" />
<path d="M245.04,259.22L250.04,259.22" style="fill:none;stroke:#FF7AB4" />
<path d="M245.04,301.7L250.04,301.7" style="fill:none;stroke:#FF7AB4" />
<path d="M256,264.37L256,308.84" style="fill:none;stroke:#FF7AB4" />
<path d="M253.5,264.37L258.5,264.37" style="fill:none;stroke:#FF7AB4" />
<path d="M253.5,308.84L258.5,308.84" style="fill:none;stroke:#FF7AB4" />
<path d="M264.46,292.64L264.46,339.57" style="fill:none;stroke:#FF7AB4" />
<path d="M261.96,292.64L266.96,292.64" style="fill:none;stroke:#FF7AB4" />
<path d="M261.96,339.57L266.96,339.57" style="fill:none;stroke:#FF7AB4" />
<path d="M272.92,247.53L272.92,286.13" style="fill:none;stroke:#FF7AB4" />
<path d="M270.42,247.53L275.42,247.53" style="fill:none;stroke:#FF7AB4" />
<path d="M270.42,286.13L275.42,286.13" style="fill:none;stroke:#FF7AB4" />
<path d="M281.38,284.98L281.38,317.95" style="fill:none;stroke:#FF7AB4" />
<path d="M278.88,284.98L283.88,284.98" style="fill:none;stroke:#FF7AB4" />
<path d="M278.88,317.95L283.88,317.95" style="fill:none;stroke:#FF7AB4" />
<path d="M289.84,270.1L289.84,309.74" style="fill:none;stroke:#FF7AB4" />
<path d="M287.34,270.1L292.34,270.1" style="fill:none;stroke:#FF7AB4" />
<path d="M287.34,309.74L292.34,309.74" style="fill:none;stroke:#FF7AB4" />
<path d="M298.3,273.03L298.3,327.29" style="fill:none;stroke:#FF7AB4" />
<path d="M295.8,273.03L300.8,273.03" style="fill:none;stroke:#FF7AB4" />
<path d="M295.8,327.29L300.8,327.29" style="fill:none;stroke:#FF7AB4" />
<path d="M306.75,240.24L306.75,301.06" style="fill:none;stroke:#FF7AB4" />
<path d="M304.25,240.24L309.25,240.24" style="fill:none;stroke:#FF7AB4" />
<path d="M304.25,301.06L309.25,301.06" style="fill:none;stroke:#FF7AB4" />
<path d="M315.21,341.59L315.21,378.43" style="fill:none;stroke:#FF7AB4" />
<path d="M312.71,341.59L317.71,341.59" style="fill:none;stroke:#FF7AB4" />
<path d="M312.71,378.43L317.71,378.43" style="fill:none;stroke:#FF7AB4" />
<path d="M323.67,304.76L323.67,355.19" style="fill:none;stroke:#FF7AB4" />
<path d="M321.17,304.76L326.17,304.76" style="fill:none;stroke:#FF7AB4" />
<path d="M321.17,355.19L326.17,355.19" style="fill:none;stroke:#FF7AB4" />
<path d="M332.13,317.26L332.13,353.93" style="fill:none;stroke:#FF7AB4" />
<path d="M329.63,317.26L334.63,317.26" style="fill:none;stroke:#FF7AB4" />
<path d="M329.63,353.93L334.63,353.93" style="fill:none;stroke:#FF7AB4" />
<path d="M340.59,325.51L340.59,370.64" style="fill:none;stroke:#FF7AB4" />
<path d="M338.09,325.51L343.09,325.51" style="fill:none;stroke:#FF7AB4" />
<path d="M338.09,370.64L343.09,370.64" style="fill:none;stroke:#FF7AB4" />
<path d="M349.05,349.47L349.05,395.78" style="fill:none;stroke:#FF7AB4" />
<path d="M346.55,349.47L351.55,349.47" style="fill:none;stroke:#FF7AB4" />
<path d="M346.55,395.78L351.55,395.78" style="fill:none;stroke:#FF7AB4" />
<path d="M357.51,309.35L357.51,349.94" style="fill:none;stroke:#FF7AB4" />
<path d="M355.01,309.35L360.01,309.35" style="fill:none;stroke:#FF7AB4" />
<path d="M355.01,349.94L360.01,349.94" style="fill:none;stroke:#FF7AB4" />
<path d="M365.97,335.12L365.97,390.47" style="fill:none;stroke:#FF7AB4" />
<path d="M363.47,335.12L368.47,335.12" style="fill:none;stroke:#FF7AB4" />
<path d="M363.47,390.47L368.47,390.47" style="fill:none;stroke:#FF7AB4" />
<path d="M374.43,334.69L374.43,376.57" style="fill:none;stroke:#FF7AB4" />
<path d="M371.93,334.69L376.93,334.69" style="fill:none;stroke:#FF7AB4" />
<path d="M371.93,376.57L376.93,376.57" style="fill:none;stroke:#FF7AB4" />
<path d="M382.89,333.23L382.89,386.48" style="fill:none;stroke:#FF7AB4" />
<path d="M380.39,333.23L385.39,333.23" style="fill:none;stroke:#FF7AB4" />
<path d="M380.39,386.48L385.39,386.48" style="fill:none;stroke:#FF7AB4" />
<path d="M391.34,291.14L391.34,323.11" style="fill:none;stroke:#FF7AB4" />
<path d="M388.84,291.14L393.84,291.14" style="fill:none;stroke:#FF7AB4" />
<path d="M388.84,323.11L393.84,323.11" style="fill:none;stroke:#FF7AB4" />
<path d="M399.8,324.67L399.8,384.78" style="fill:none;stroke:#FF7AB4" />
<path d="M397.3,324.67L402.3,324.67" style="fill:none;stroke:#FF7AB4" />
<path d="M397.3,384.78L402.3,384.78" style="fill:none;stroke:#FF7AB4" />
<path d="M408.26,360.11L408.26,404.53" style="fill:none;stroke:#FF7AB4" />
<path d="M405.76,360.11L410.76,360.11" style="fill:none;stroke:#FF7AB4" />
<path d="M405.76,404.53L410.76,404.53" style="fill:none;stroke:#FF7AB4" />
<path d="M416.72,388.45L416.72,451.4" style="fill:none;stroke:#FF7AB4" />
<path d="M414.22,388.45L419.22,388.45" style="fill:none;stroke:#FF7AB4" />
<path d="M414.22,451.4L419.22,451.4" style="fill:none;stroke:#FF7AB4" />
<path d="M425.18,346.19L425.18,398.01" style="fill:none;stroke:#FF7AB4" />
<path d="M422.68,346.19L427.68,346.19" style="fill:none;stroke:#FF7AB4" />
<path d="M422.68,398.01L427.68,398.01" style="fill:none;stroke:#FF7AB4" />
<path d="M433.64,389.73L433.64,427.26" style="fill:none;stroke:#FF7AB4" />
<path d="M431.14,389.73L436.14,389.73" style="fill:none;stroke:#FF7AB4" />
<path d="M431.14,427.26L436.14,427.26" style="fill:none;stroke:#FF7AB4" />
<path d="M442.1,334.33L442.1,369.79" style="fill:none;stroke:#FF7AB4" />
<path d="M439.6,334.33L444.6,334.33" style="fill:none;stroke:#FF7AB4" />
<path d="M439.6,369.79L444.6,369.79" style="fill:none;stroke:#FF7AB4" />
<path d="M450.56,289.61L450.56,368.38" style="fill:none;stroke:#FF7AB4" />
<path d="M448.06,289.61L453.06,289.61" style="fill:none;stroke:#FF7AB4" />
<path d="M448.06,368.38L453.06,368.38" style="fill:none;stroke:#FF7AB4" />
<path d="M459.02,298.11L459.02,377.81" style="fill:none;stroke:#FF7AB4" />
<path d="M456.52,298.11L461.52,298.11" style="fill:none;stroke:#FF7AB4" />
<path d="M456.52,377.81L461.52,377.81" style="fill:none;stroke:#FF7AB4" />
<path d="M467.48,331.18L467.48,383.76" style="fill:none;stroke:#FF7AB4" />
<path d="M464.98,331.18L469.98,331.18" style="fill:none;stroke:#FF7AB4" />
<path d="M464.98,383.76L469.98,383.76" style="fill:none;stroke:#FF7AB4" />
<path d="M475.93,380.11L475.93,445.51" style="fill:none;stroke:#FF7AB4" />
<path d="M473.43,380.11L478.43,380.11" style="fill:none;stroke:#FF7AB4" />
<path d="M473.43,445.51L478.43,445.51" style="fill:none;stroke:#FF7AB4" />
<path d="M484.39,352.26L484.39,405.97" style="fill:none;stroke:#FF7AB4" />
<path d="M481.89,352.26L486.89,352.26" style="fill:none;stroke:#FF7AB4" />
<path d="M481.89,405.97L486.89,405.97" style="fill:none;stroke:#FF7AB4" />
<path d="M492.85,371.45L492.85,423.72" style="fill:none;stroke:#FF7AB4" />
<path d="M490.35,371.45L495.35,371.45" style="fill:none;stroke:#FF7AB4" />
<path d="M490.35,423.72L495.35,423.72" style="fill:none;stroke:#FF7AB4" />
<path d="M501.31,376.82L501.31,443.43" style="fill:none;stroke:#FF7AB4" />
<path d="M498.81,376.82L503.81,376.82" style="fill:none;stroke:#FF7AB4" />
<path d="M498.81,443.43L503.81,443.43" style="fill:none;stroke:#FF7AB4" />
<path d="M509.77,391.78L509.77,470.56" style="fill:none;stroke:#FF7AB4" />
<path d="M507.27,391.78L512.27,391.78" style="fill:none;stroke:#FF7AB4" />
<path d="M507.27,470.56L512.27,470.56" style="fill:none;stroke:#FF7AB4" />
<path d="M518.23,417.07L518.23,447.24" style="fill:none;stroke:#FF7AB4" />
<path d="M515.73,417.07L520.73,417.07" style="fill:none;stroke:#FF7AB4" />
<path d="M515.73,447.24L520.73,447.24" style="fill:none;stroke:#FF7AB4" />
<path d="M526.69,426.3L526.69,496.75" style="fill:none;stroke:#FF7AB4" />
<path d="M524.19,426.3L529.19,426.3" style="fill:none;stroke:#FF7AB4" />
<path d="M524.19,496.75L529.19,496.75" style="fill:none;stroke:#FF7AB4" />
<path d="M535.15,461.81L535.15,522.58" style="fill:none;stroke:#FF7AB4" />
<path d="M532.65,461.81L537.65,461.81" style="fill:none;stroke:#FF7AB4" />
<path d="M532.65,522.58L537.65,522.58" style="fill:none;stroke:#FF7AB4" />
<path d="M543.61,383.9L543.61,440.07" style="fill:none;stroke:#FF7AB4" />
<path d="M541.11,383.9L546.11,383.9" style="fill:none;stroke:#FF7AB4" />
<path d="M541.11,440.07L546.11,440.07" style="fill:none;stroke:#FF7AB4" />
<path d="M552.07,349.43L552.07,400.78" style="fill:none;stroke:#FF7AB4" />
<path d="M549.57,349.43L554.57,349.43" style="fill:none;stroke:#FF7AB4" />
<path d="M549.57,400.78L554.57,400.78" style="fill:none;stroke:#FF7AB4" />
<path d="M560.52,421.1L560.52,467.7" style="fill:none;stroke:#FF7AB4" />
<path d="M558.02,421.1L563.02,421.1" style="fill:none;stroke:#FF7AB4" />
<path d="M558.02,467.7L563.02,467.7" style="fill:none;stroke:#FF7AB4" />
<path d="M568.98,393.95L568.98,465.18" style="fill:none;stroke:#FF7AB4" />
<path d="M566.48,393.95L571.48,393.95" style="fill:none;stroke:#FF7AB4" />
<path d="M566.48,465.18L571.48,465.18" style="fill:none;stroke:#FF7AB4" />
<path d="M577.44,401.67L577.44,472.42" style="fill:none;stroke:#FF7AB4" />
<path d="M574.94,401.67L579.94,401.67" style="fill:none;stroke:#FF7AB4" />
<path d="M574.94,472.42L579.94,472.42" style="fill:none;stroke:#FF7AB4" />
<path d="M585.9,425.56L585.9,479.2" style="fill:none;stroke:#FF7AB4" />
<path d="M583.4,425.56L588.4,425.56" style="fill:none;stroke:#FF7AB4" />
<path d="M583.4,479.2L588.4,479.2" style="fill:none;stroke:#FF7AB4" />
<path d="M594.36,347.24L594.36,420.66" style="fill:none;stroke:#FF7AB4" />
<path d="M591.86,347.24L596.86,347.24" style="fill:none;stroke:#FF7AB4" />
<path d="M591.86,420.66L596.86,420.66" style="fill:none;stroke:#FF7AB4" />
<path d="M602.82,365.71L602.82,435.69" style="fill:none;stroke:#FF7AB4" />
<path d="M600.32,365.71L605.32,365.71" style="fill:none;stroke:#FF7AB4" />
<path d="M600.32,435.69L605.32,435.69" style="fill:none;stroke:#FF7AB4" />
<path d="M611.28,353.94L611.28,416.35" style="fill:none;stroke:#FF7AB4" />
<path d="M608.78,353.94L613.78,353.94" style="fill:none;stroke:#FF7AB4" />
<path d="M608.78,416.35L613.78,416.35" style="fill:none;stroke:#FF7AB4" />
<path d="M619.74,360.47L619.74,419.09" style="fill:none;stroke:#FF7AB4" />
<path d="M617.24,360.47L622.24,360.47" style="fill:none;stroke:#FF7AB4" />
<path d="M617.24,419.09L622.24,419.09" style="fill:none;stroke:#FF7AB4" />
<path d="M628.2,295.27L628.2,362.12" style="fill:none;stroke:#FF7AB4" />
<path d="M625.7,295.27L630.7,295.27" style="fill:none;stroke:#FF7AB4" />
<path d="M625.7,362.12L630.7,362.12" style="fill:none;stroke:#FF7AB4" />
<path d="M636.66,364.92L636.66,425.29" style="fill:none;stroke:#FF7AB4" />
<path d="M634.16,364.92L639.16,364.92" style="fill:none;stroke:#FF7AB4" />
<path d="M634.16,425.29L639.16,425.29" style="fill:none;stroke:#FF7AB4" />
<path d="M645.11,372.4L645.11,466.23" style="fill:none;stroke:#FF7AB4" />
<path d="M642.61,372.4L647.61,372.4" style="fill:none;stroke:#FF7AB4" />
<path d="M642.61,466.23L647.61,466.23" style="fill:none;stroke:#FF7AB4" />
<path d="M653.57,386.17L653.57,467.74" style="fill:none;stroke:#FF7AB4" />
<path d="M651.07,386.17L656.07,386.17" style="fill:none;stroke:#FF7AB4" />
<path d="M651.07,467.74L656.07,467.74" style="fill:none;stroke:#FF7AB4" />
<path d="M662.03,347.75L662.03,400.57" style="fill:none;stroke:#FF7AB4" />
<path d="M659.53,347.75L664.53,347.75" style="fill:none;stroke:#FF7AB4" />
<path d="M659.53,400.57L664.53,400.57" style="fill:none;stroke:#FF7AB4" />
<path d="M670.49,482.25L670.49,577.56" style="fill:none;stroke:#FF7AB4" />
<path d="M667.99,482.25L672.99,482.25" style="fill:none;stroke:#FF7AB4" />
<path d="M667.99,577.56L672.99,577.56" style="fill:none;stroke:#FF7AB4" />
<path d="M678.95,668.28L678.95,751.22" style="fill:none;stroke:#FF7AB4" />
<path d="M676.45,668.28L681.45,668.28" style="fill:none;stroke:#FF7AB4" />
<path d="M676.45,751.22L681.45,751.22" style="fill:none;stroke:#FF7AB4" />
<path d="M687.41,671.74L687.41,867.2" style="fill:none;stroke:#FF7AB4" />
<path d="M684.91,671.74L689.91,671.74" style="fill:none;stroke:#FF7AB4" />
<path d="M684.91,867.2L689.91,867.2" style="fill:none;stroke:#FF7AB4" />
<path d="M695.87,585.97L695.87,713.38" style="fill:none;stroke:#FF7AB4" />
<path d="M693.37,585.97L698.37,585.97" style="fill:none;stroke:#FF7AB4" />
<path d="M693.37,713.38L698.37,713.38" style="fill:none;stroke:#FF7AB4" />
<path d="M704.33,777.44L704.33,950.27" style="fill:none;stroke:#FF7AB4" />
<path d="M701.83,777.44L706.83,777.44" style="fill:none;stroke:#FF7AB4" />
<path d="M701.83,950.27L706.83,950.27" style="fill:none;stroke:#FF7AB4" />
<path d="M712.79,722.36L712.79,843.09" style="fill:none;stroke:#FF7AB4" />
<path d="M710.29,722.36L715.29,722.36" style="fill:none;stroke:#FF7AB4" />
<path d="M710.29,843.09L715.29,843.09" style="fill:none;stroke:#FF7AB4" />
<path d="M721.25,704.05L721.25,834.99" style="fill:none;stroke:#FF7AB4" />
<path d="M718.75,704.05L723.75,704.05" style="fill:none;stroke:#FF7AB4" />
<path d="M718.75,834.99L723.75,834.99" style="fill:none;stroke:#FF7AB4" />
<path d="M729.7,735.55L729.7,836.45" style="fill:none;stroke:#FF7AB4" />
<path d="M727.2,735.55L732.2,735.55" style="fill:none;stroke:#FF7AB4" />
<path d="M727.2,836.45L732.2,836.45" style="fill:none;stroke:#FF7AB4" />
<path d="M738.16,692.68L738.16,841.41" style="fill:none;stroke:#FF7AB4" />
<path d="M735.66,692.68L740.66,692.68" style="fill:none;stroke:#FF7AB4" />
<path d="M735.66,841.41L740.66,841.41" style="fill:none;stroke:#FF7AB4" />
<path d="M746.62,691.74L746.62,878.63" style="fill:none;stroke:#FF7AB4" />
<path d="M744.12,691.74L749.12,691.74" style="fill:none;stroke:#FF7AB4" />
<path d="M744.12,878.63L749.12,878.63" style="fill:none;stroke:#FF7AB4" />
<path d="M755.08,680.56L755.08,786" style="fill:none;stroke:#FF7AB4" />
<path d="M752.58,680.56L757.58,680.56" style="fill:none;stroke:#FF7AB4" />
<path d="M752.58,786L757.58,786" style="fill:none;stroke:#FF7AB4" />
<path d="M763.54,593.83L763.54,684.89" style="fill:none;stroke:#FF7AB4" />
<path d="M761.04,593.83L766.04,593.83" style="fill:none;stroke:#FF7AB4" />
<path d="M761.04,684.89L766.04,684.89" style="fill:none;stroke:#FF7AB4" />
<path d="M772,690.63L772,814.48" style="fill:none;stroke:#FF7AB4" />
<path d="M769.5,690.63L774.5,690.63" style="fill:none;stroke:#FF7AB4" />
<path d="M769.5,814.48L774.5,814.48" style="fill:none;stroke:#FF7AB4" />
<path d="M780.46,473.18L780.46,589.18" style="fill:none;stroke:#FF7AB4" />
<path d="M777.96,473.18L782.96,473.18" style="fill:none;stroke:#FF7AB4" />
<path d="M777.96,589.18L782.96,589.18" style="fill:none;stroke:#FF7AB4" />
<path d="M788.92,447.27L788.92,565.02" style="fill:none;stroke:#FF7AB4" />
<path d="M786.42,447.27L791.42,447.27" style="fill:none;stroke:#FF7AB4" />
<path d="M786.42,565.02L791.42,565.02" style="fill:none;stroke:#FF7AB4" />
<path d="M797.38,311.71L797.38,380.53" style="fill:none;stroke:#FF7AB4" />
<path d="M794.88,311.71L799.88,311.71" style="fill:none;stroke:#FF7AB4" />
<path d="M794.88,380.53L799.88,380.53" style="fill:none;stroke:#FF7AB4" />
<path d="M805.84,334.22L805.84,415.97" style="fill:none;stroke:#FF7AB4" />
<path d="M803.34,334.22L808.34,334.22" style="fill:none;stroke:#FF7AB4" />
<path d="M803.34,415.97L808.34,415.97" style="fill:none;stroke:#FF7AB4" />
<path d="M814.3,387.52L814.3,421.62" style="fill:none;stroke:#FF7AB4" />
<path d="M811.8,387.52L816.8,387.52" style="fill:none;stroke:#FF7AB4" />
<path d="M811.8,421.62L816.8,421.62" style="fill:none;stroke:#FF7AB4" />
<path d="M822.75,279.02L822.75,319.32" style="fill:none;stroke:#FF7AB4" />
<path d="M820.25,279.02L825.25,279.02" style="fill:none;stroke:#FF7AB4" />
<path d="M820.25,319.32L825.25,319.32" style="fill:none;stroke:#FF7AB4" />
<path d="M831.21,211.15L831.21,289.31" style="fill:none;stroke:#FF7AB4" />
<path d="M828.71,211.15L833.71,211.15" style="fill:none;stroke:#FF7AB4" />
<path d="M828.71,289.31L833.71,289.31" style="fill:none;stroke:#FF7AB4" />
<path d="M839.67,227.66L839.67,282.59" style="fill:none;stroke:#FF7AB4" />
<path d="M837.17,227.66L842.17,227.66" style="fill:none;stroke:#FF7AB4" />
<path d="M837.17,282.59L842.17,282.59" style="fill:none;stroke:#FF7AB4" />
<path d="M848.13,228.46L848.13,262.28" style="fill:none;stroke:#FF7AB4" />
<path d="M845.63,228.46L850.63,228.46" style="fill:none;stroke:#FF7AB4" />
<path d="M845.63,262.28L850.63,262.28" style="fill:none;stroke:#FF7AB4" />
<path d="M856.59,220.22L856.59,256.98" style="fill:none;stroke:#FF7AB4" />
<path d="M854.09,220.22L859.09,220.22" style="fill:none;stroke:#FF7AB4" />
<path d="M854.09,256.98L859.09,256.98" style="fill:none;stroke:#FF7AB4" />
<path d="M865.05,192.25L865.05,232.31" style="fill:none;stroke:#FF7AB4" />
<path d="M862.55,192.25L867.55,192.25" style="fill:none;stroke:#FF7AB4" />
<path d="M862.55,232.31L867.55,232.31" style="fill:none;stroke:#FF7AB4" />
<path d="M873.51,189.09L873.51,219.08" style="fill:none;stroke:#FF7AB4" />
<path d="M871.01,189.09L876.01,189.09" style="fill:none;stroke:#FF7AB4" />
<path d="M871.01,219.08L876.01,219.08" style="fill:none;stroke:#FF7AB4" />
<path d="M881.97,178.2L881.97,208.19" style="fill:none;stroke:#FF7AB4" />
<path d="M879.47,178.2L884.47,178.2" style="fill:none;stroke:#FF7AB4" />
<path d="M879.47,208.19L884.47,208.19" style="fill:none;stroke:#FF7AB4" />
<path d="M890.43,177.24L890.43,227.07" style="fill:none;stroke:#FF7AB4" />
<path d="M887.93,177.24L892.93,177.24" style="fill:none;stroke:#FF7AB4" />
<path d="M887.93,227.07L892.93,227.07" style="fill:none;stroke:#FF7AB4" />
<path d="M898.89,186.56L898.89,212.71" style="fill:none;stroke:#FF7AB4" />
<path d="M896.39,186.56L901.39,186.56" style="fill:none;stroke:#FF7AB4" />
<path d="M896.39,212.71L901.39,212.71" style="fill:none;stroke:#FF7AB4" />
<path d="M907.34,130.45L907.34,182.44" style="fill:none;stroke:#FF7AB4" />
<path d="M904.84,130.45L909.84,130.45" style="fill:none;stroke:#FF7AB4" />
<path d="M904.84,182.44L909.84,182.44" style="fill:none;stroke:#FF7AB4" />
<path d="M915.8,141.2L915.8,204.17" style="fill:none;stroke:#FF7AB4" />
<path d="M913.3,141.2L918.3,141.2" style="fill:none;stroke:#FF7AB4" />
<path d="M913.3,204.17L918.3,204.17" style="fill:none;stroke:#FF7AB4" />
<path d="M924.26,165.42L924.26,216.03" style="fill:none;stroke:#FF7AB4" />
<path d="M921.76,165.42L926.76,165.42" style="fill:none;stroke:#FF7AB4" />
<path d="M921.76,216.03L926.76,216.03" style="fill:none;stroke:#FF7AB4" />
<path d="M932.72,173.89L932.72,194.85" style="fill:none;stroke:#FF7AB4" />
<path d="M930.22,173.89L935.22,173.89" style="fill:none;stroke:#FF7AB4" />
<path d="M930.22,194.85L935.22,194.85" style="fill:none;stroke:#FF7AB4" />
<path d="M941.18,137.02L941.18,179.52" style="fill:none;stroke:#FF7AB4" />
<path d="M938.68,137.02L943.68,137.02" style="fill:none;stroke:#FF7AB4" />
<path d="M938.68,179.52L943.68,179.52" style="fill:none;stroke:#FF7AB4" />
<path d="M949.64,152.55L949.64,204.99" style="fill:none;stroke:#FF7AB4" />
<path d="M947.14,152.55L952.14,152.55" style="fill:none;stroke:#FF7AB4" />
<path d="M947.14,204.99L952.14,204.99" style="fill:none;stroke:#FF7AB4" />
<path d="M958.1,127.42L958.1,178.55" style="fill:none;stroke:#FF7AB4" />
<path d="M955.6,127.42L960.6,127.42" style="fill:none;stroke:#FF7AB4" />
<path d="M955.6,178.55L960.6,178.55" style="fill:none;stroke:#FF7AB4" />
<path d="M966.56,116.56L966.56,155.09" style="fill:none;stroke:#FF7AB4" />
<path d="M964.06,116.56L969.06,116.56" style="fill:none;stroke:#FF7AB4" />
<path d="M964.06,155.09L969.06,155.09" style="fill:none;stroke:#FF7AB4" />
<path d="M975.02,88.606L975.02,135.57" style="fill:none;stroke:#FF7AB4" />
<path d="M972.52,88.606L977.52,88.606" style="fill:none;stroke:#FF7AB4" />
<path d="M972.52,135.57L977.52,135.57" style="fill:none;stroke:#FF7AB4" />
<path d="M983.48,160.73L983.48,194.47" style="fill:none;stroke:#FF7AB4" />
<path d="M980.98,160.73L985.98,160.73" style="fill:none;stroke:#FF7AB4" />
<path d="M980.98,194.47L985.98,194.47" style="fill:none;stroke:#FF7AB4" />
<path d="M991.93,117.5L991.93,157.15" style="fill:none;stroke:#FF7AB4" />
<path d="M989.43,117.5L994.43,117.5" style="fill:none;stroke:#FF7AB4" />
<path d="M989.43,157.15L994.43,157.15" style="fill:none;stroke:#FF7AB4" />
<path d="M1000.4,169.68L1000.4,188.35" style="fill:none;stroke:#FF7AB4" />
<path d="M997.89,169.68L1002.9,169.68" style="fill:none;stroke:#FF7AB4" />
<path d="M997.89,188.35L1002.9,188.35" style="fill:none;stroke:#FF7AB4" />
<path d="M1008.9,165.95L1008.9,187.59" style="fill:none;stroke:#FF7AB4" />
<path d="M1006.4,165.95L1011.4,165.95" style="fill:none;stroke:#FF7AB4" />
<path d="M1006.4,187.59L1011.4,187.59" style="fill:none;stroke:#FF7AB4" />
<path d="M1017.3,190.58L1017.3,221.15" style="fill:none;stroke:#FF7AB4" />
<path d="M1014.8,190.58L1019.8,190.58" style="fill:none;stroke:#FF7AB4" />
<path d="M1014.8,221.15L1019.8,221.15" style="fill:none;stroke:#FF7AB4" />
<path d="M1025.8,209.1L1025.8,256.78" style="fill:none;stroke:#FF7AB4" />
<path d="M1023.3,209.1L1028.3,209.1" style="fill:none;stroke:#FF7AB4" />
<path d="M1023.3,256.78L1028.3,256.78" style="fill:none;stroke:#FF7AB4" />
<path d="M1034.2,200.69L1034.2,227.22" style="fill:none;stroke:#FF7AB4" />
<path d="M1031.7,200.69L1036.7,200.69" style="fill:none;stroke:#FF7AB4" />
<path d="M1031.7,227.22L1036.7,227.22" style="fill:none;stroke:#FF7AB4" />
<path d="M1042.7,156.89L1042.7,201.49" style="fill:none;stroke:#FF7AB4" />
<path d="M1040.2,156.89L1045.2,156.89" style="fill:none;stroke:#FF7AB4" />
<path d="M1040.2,201.49L1045.2,201.49" style="fill:none;stroke:#FF7AB4" />
<path d="M1051.1,183.24L1051.1,222.02" style="fill:none;stroke:#FF7AB4" />
<path d="M1048.6,183.24L1053.6,183.24" style="fill:none;stroke:#FF7AB4" />
<path d="M1048.6,222.02L1053.6,222.02" style="fill:none;stroke:#FF7AB4" />
<path d="M1059.6,182.66L1059.6,226.64" style="fill:none;stroke:#FF7AB4" />
<path d="M1057.1,182.66L1062.1,182.66" style="fill:none;stroke:#FF7AB4" />
<path d="M1057.1,226.64L1062.1,226.64" style="fill:none;stroke:#FF7AB4" />
<path d="M1068.1,205.39L1068.1,234.84" style="fill:none;stroke:#FF7AB4" />
<path d="M1065.6,205.39L1070.6,205.39" style="fill:none;stroke:#FF7AB4" />
<path d="M1065.6,234.84L1070.6,234.84" style="fill:none;stroke:#FF7AB4" />
<path d="M1076.5,149.1L1076.5,173.58" style="fill:none;stroke:#FF7AB4" />
<path d="M1074,149.1L1079,149.1" style="fill:none;stroke:#FF7AB4" />
<path d="M1074,173.58L1079,173.58" style="fill:none;stroke:#FF7AB4" />
<path d="M1085,162.91L1085,199.73" style="fill:none;stroke:#FF7AB4" />
<path d="M1082.5,162.91L1087.5,162.91" style="fill:none;stroke:#FF7AB4" />
<path d="M1082.5,199.73L1087.5,199.73" style="fill:none;stroke:#FF7AB4" />
<path d="M1093.4,177.85L1093.4,216.22" style="fill:none;stroke:#FF7AB4" />
<path d="M1090.9,177.85L1095.9,177.85" style="fill:none;stroke:#FF7AB4" />
<path d="M1090.9,216.22L1095.9,216.22" style="fill:none;stroke:#FF7AB4" />
<path d="M1101.9,170.99L1101.9,219.84" style="fill:none;stroke:#FF7AB4" />
<path d="M1099.4,170.99L1104.4,170.99" style="fill:none;stroke:#FF7AB4" />
<path d="M1099.4,219.84L1104.4,219.84" style="fill:none;stroke:#FF7AB4" />
<path d="M1110.4,233.97L1110.4,271.29" style="fill:none;stroke:#FF7AB4" />
<path d="M1107.9,233.97L1112.9,233.97" style="fill:none;stroke:#FF7AB4" />
<path d="M1107.9,271.29L1112.9,271.29" style="fill:none;stroke:#FF7AB4" />
<path d="M1118.8,177.01L1118.8,223.71" style="fill:none;stroke:#FF7AB4" />
<path d="M1116.3,177.01L1121.3,177.01" style="fill:none;stroke:#FF7AB4" />
<path d="M1116.3,223.71L1121.3,223.71" style="fill:none;stroke:#FF7AB4" />
<path d="M1127.3,195.16L1127.3,226.24" style="fill:none;stroke:#FF7AB4" />
<path d="M1124.8,195.16L1129.8,195.16" style="fill:none;stroke:#FF7AB4" />
<path d="M1124.8,226.24L1129.8,226.24" style="fill:none;stroke:#FF7AB4" />
<path d="M1135.7,171.52L1135.7,199.84" style="fill:none;stroke:#FF7AB4" />
<path d="M1133.2,171.52L1138.2,171.52" style="fill:none;stroke:#FF7AB4" />
<path d="M1133.2,199.84L1138.2,199.84" style="fill:none;stroke:#FF7AB4" />
<path d="M1144.2,178.35L1144.2,219.63" style="fill:none;stroke:#FF7AB4" />
<path d="M1141.7,178.35L1146.7,178.35" style="fill:none;stroke:#FF7AB4" />
<path d="M1141.7,219.63L1146.7,219.63" style="fill:none;stroke:#FF7AB4" />
<path d="M1152.7,202.91L1152.7,236.47" style="fill:none;stroke:#FF7AB4" />
<path d="M1150.2,202.91L1155.2,202.91" style="fill:none;stroke:#FF7AB4" />
<path d="M1150.2,236.47L1155.2,236.47" style="fill:none;stroke:#FF7AB4" />
<path d="M1161.1,260.73L1161.1,304.41" style="fill:none;stroke:#FF7AB4" />
<path d="M1158.6,260.73L1163.6,260.73" style="fill:none;stroke:#FF7AB4" />
<path d="M1158.6,304.41L1163.6,304.41" style="fill:none;stroke:#FF7AB4" />
<path d="M1169.6,242.5L1169.6,290.2" style="fill:none;stroke:#FF7AB4" />
<path d="M1167.1,242.5L1172.1,242.5" style="fill:none;stroke:#FF7AB4" />
<path d="M1167.1,290.2L1172.1,290.2" style="fill:none;stroke:#FF7AB4" />
<path d="M1178,209.54L1178,259.85" style="fill:none;stroke:#FF7AB4" />
<path d="M1175.5,209.54L1180.5,209.54" style="fill:none;stroke:#FF7AB4" />
<path d="M1175.5,259.85L1180.5,259.85" style="fill:none;stroke:#FF7AB4" />
<path d="M1186.5,194.3L1186.5,220.15" style="fill:none;stroke:#FF7AB4" />
<path d="M1184,194.3L1189,194.3" style="fill:none;stroke:#FF7AB4" />
<path d="M1184,220.15L1189,220.15" style="fill:none;stroke:#FF7AB4" />
<path d="M1195,232.4L1195,280.81" style="fill:none;stroke:#FF7AB4" />
<path d="M1192.5,232.4L1197.5,232.4" style="fill:none;stroke:#FF7AB4" />
<path d="M1192.5,280.81L1197.5,280.81" style="fill:none;stroke:#FF7AB4" />
<path d="M1203.4,256.08L1203.4,298.95" style="fill:none;stroke:#FF7AB4" />
<path d="M1200.9,256.08L1205.9,256.08" style="fill:none;stroke:#FF7AB4" />
<path d="M1200.9,298.95L1205.9,298.95" style="fill:none;stroke:#FF7AB4" />
<path d="M1211.9,256.37L1211.9,305.07" style="fill:none;stroke:#FF7AB4" />
<path d="M1209.4,256.37L1214.4,256.37" style="fill:none;stroke:#FF7AB4" />
<path d="M1209.4,305.07L1214.4,305.07" style="fill:none;stroke:#FF7AB4" />
<path d="M1220.3,247.03L1220.3,292.46" style="fill:none;stroke:#FF7AB4" />
<path d="M1217.8,247.03L1222.8,247.03" style="fill:none;stroke:#FF7AB4" />
<path d="M1217.8,292.46L1222.8,292.46" style="fill:none;stroke:#FF7AB4" />
<path d="M1228.8,246.87L1228.8,297.4" style="fill:none;stroke:#FF7AB4" />
<path d="M1226.3,246.87L1231.3,246.87" style="fill:none;stroke:#FF7AB4" />
<path d="M1226.3,297.4L1231.3,297.4" style="fill:none;stroke:#FF7AB4" />
<path d="M1237.2,332.38L1237.2,434.93" style="fill:none;stroke:#FF7AB4" />
<path d="M1234.7,332.38L1239.7,332.38" style="fill:none;stroke:#FF7AB4" />
<path d="M1234.7,434.93L1239.7,434.93" style="fill:none;stroke:#FF7AB4" />
<path d="M1245.7,293.18L1245.7,348.96" style="fill:none;stroke:#FF7AB4" />
<path d="M1243.2,293.18L1248.2,293.18" style="fill:none;stroke:#FF7AB4" />
<path d="M1243.2,348.96L1248.2,348.96" style="fill:none;stroke:#FF7AB4" />
<path d="M1254.2,259.08L1254.2,307.78" style="fill:none;stroke:#FF7AB4" />
<path d="M1251.7,259.08L1256.7,259.08" style="fill:none;stroke:#FF7AB4" />
<path d="M1251.7,307.78L1256.7,307.78" style="fill:none;stroke:#FF7AB4" />
<path d="M1262.6,240.12L1262.6,291.18" style="fill:none;stroke:#FF7AB4" />
<path d="M1260.1,240.12L1265.1,240.12" style="fill:none;stroke:#FF7AB4" />
<path d="M1260.1,291.18L1265.1,291.18" style="fill:none;stroke:#FF7AB4" />
<path d="M1271.1,248.04L1271.1,291.08" style="fill:none;stroke:#FF7AB4" />
<path d="M1268.6,248.04L1273.6,248.04" style="fill:none;stroke:#FF7AB4" />
<path d="M1268.6,291.08L1273.6,291.08" style="fill:none;stroke:#FF7AB4" />
<path d="M1279.5,223.09L1279.5,287.14" style="fill:none;stroke:#FF7AB4" />
<path d="M1277,223.09L1282,223.09" style="fill:none;stroke:#FF7AB4" />
<path d="M1277,287.14L1282,287.14" style="fill:none;stroke:#FF7AB4" />
<path d="M1288,204.06L1288,249.75" style="fill:none;stroke:#FF7AB4" />
<path d="M1285.5,204.06L1290.5,204.06" style="fill:none;stroke:#FF7AB4" />
<path d="M1285.5,249.75L1290.5,249.75" style="fill:none;stroke:#FF7AB4" />
<path d="M120.2,475.06A8,8 0 1 1 104.2,475.06A8,8 0 1 1 120.2,475.06Z" style="fill:#FF7AB4" />
<path d="M128.66,563.8A8,8 0 1 1 112.66,563.8A8,8 0 1 1 128.66,563.8Z" style="fill:#FF7AB4" />
<path d="M137.11,467.55A8,8 0 1 1 121.11,467.55A8,8 0 1 1 137.11,467.55Z" style="fill:#FF7AB4" />
<path d="M145.57,539.47A8,8 0 1 1 129.57,539.47A8,8 0 1 1 145.57,539.47Z" style="fill:#FF7AB4" />
<path d="M154.03,516.36A8,8 0 1 1 138.03,516.36A8,8 0 1 1 154.03,516.36Z" style="fill:#FF7AB4" />
<path d="M162.49,401.08A8,8 0 1 1 146.49,401.08A8,8 0 1 1 162.49,401.08Z" style="fill:#FF7AB4" />
<path d="M170.95,384.34A8,8 0 1 1 154.95,384.34A8,8 0 1 1 170.95,384.34Z" style="fill:#FF7AB4" />
<path d="M179.41,345.43A8,8 0 1 1 163.41,345.43A8,8 0 1 1 179.41,345.43Z" style="fill:#FF7AB4" />
<path d="M187.87,322.28A8,8 0 1 1 171.87,322.28A8,8 0 1 1 187.87,322.28Z" style="fill:#FF7AB4" />
<path d="M196.33,322.57A8,8 0 1 1 180.33,322.57A8,8 0 1 1 196.33,322.57Z" style="fill:#FF7AB4" />
<path d="M204.79,349.75A8,8 0 1 1 188.79,349.75A8,8 0 1 1 204.79,349.75Z" style="fill:#FF7AB4" />
<path d="M213.25,282.62A8,8 0 1 1 197.25,282.62A8,8 0 1 1 213.25,282.62Z" style="fill:#FF7AB4" />
<path d="M221.7,334.26A8,8 0 1 1 205.7,334.26A8,8 0 1 1 221.7,334.26Z" style="fill:#FF7AB4" />
<path d="M230.16,300.82A8,8 0 1 1 214.16,300.82A8,8 0 1 1 230.16,300.82Z" style="fill:#FF7AB4" />
<path d="M238.62,310.07A8,8 0 1 1 222.62,310.07A8,8 0 1 1 238.62,310.07Z" style="fill:#FF7AB4" />
<path d="M247.08,288.28A8,8 0 1 1 231.08,288.28A8,8 0 1 1 247.08,288.28Z" style="fill:#FF7AB4" />
<path d="M255.54,280.46A8,8 0 1 1 239.54,280.46A8,8 0 1 1 255.54,280.46Z" style="fill:#FF7AB4" />
<path d="M264,286.6A8,8 0 1 1 248,286.6A8,8 0 1 1 264,286.6Z" style="fill:#FF7AB4" />
<path d="M272.46,316.1A8,8 0 1 1 256.46,316.1A8,8 0 1 1 272.46,316.1Z" style="fill:#FF7AB4" />
<path d="M280.92,266.83A8,8 0 1 1 264.92,266.83A8,8 0 1 1 280.92,266.83Z" style="fill:#FF7AB4" />
<path d="M289.38,301.46A8,8 0 1 1 273.38,301.46A8,8 0 1 1 289.38,301.46Z" style="fill:#FF7AB4" />
<path d="M297.84,289.92A8,8 0 1 1 281.84,289.92A8,8 0 1 1 297.84,289.92Z" style="fill:#FF7AB4" />
<path d="M306.3,300.16A8,8 0 1 1 290.3,300.16A8,8 0 1 1 306.3,300.16Z" style="fill:#FF7AB4" />
<path d="M314.75,270.65A8,8 0 1 1 298.75,270.65A8,8 0 1 1 314.75,270.65Z" style="fill:#FF7AB4" />
<path d="M323.21,360.01A8,8 0 1 1 307.21,360.01A8,8 0 1 1 323.21,360.01Z" style="fill:#FF7AB4" />
<path d="M331.67,329.98A8,8 0 1 1 315.67,329.98A8,8 0 1 1 331.67,329.98Z" style="fill:#FF7AB4" />
<path d="M340.13,335.6A8,8 0 1 1 324.13,335.6A8,8 0 1 1 340.13,335.6Z" style="fill:#FF7AB4" />
<path d="M348.59,348.07A8,8 0 1 1 332.59,348.07A8,8 0 1 1 348.59,348.07Z" style="fill:#FF7AB4" />
<path d="M357.05,372.62A8,8 0 1 1 341.05,372.62A8,8 0 1 1 357.05,372.62Z" style="fill:#FF7AB4" />
<path d="M365.51,329.65A8,8 0 1 1 349.51,329.65A8,8 0 1 1 365.51,329.65Z" style="fill:#FF7AB4" />
<path d="M373.97,362.8A8,8 0 1 1 357.97,362.8A8,8 0 1 1 373.97,362.8Z" style="fill:#FF7AB4" />
<path d="M382.43,355.63A8,8 0 1 1 366.43,355.63A8,8 0 1 1 382.43,355.63Z" style="fill:#FF7AB4" />
<path d="M390.89,359.86A8,8 0 1 1 374.89,359.86A8,8 0 1 1 390.89,359.86Z" style="fill:#FF7AB4" />
<path d="M399.34,307.13A8,8 0 1 1 383.34,307.13A8,8 0 1 1 399.34,307.13Z" style="fill:#FF7AB4" />
<path d="M407.8,354.73A8,8 0 1 1 391.8,354.73A8,8 0 1 1 407.8,354.73Z" style="fill:#FF7AB4" />
<path d="M416.26,382.32A8,8 0 1 1 400.26,382.32A8,8 0 1 1 416.26,382.32Z" style="fill:#FF7AB4" />
<path d="M424.72,419.92A8,8 0 1 1 408.72,419.92A8,8 0 1 1 424.72,419.92Z" style="fill:#FF7AB4" />
<path d="M433.18,372.1A8,8 0 1 1 417.18,372.1A8,8 0 1 1 433.18,372.1Z" style="fill:#FF7AB4" />
<path d="M441.64,408.5A8,8 0 1 1 425.64,408.5A8,8 0 1 1 441.64,408.5Z" style="fill:#FF7AB4" />
<path d="M450.1,352.06A8,8 0 1 1 434.1,352.06A8,8 0 1 1 450.1,352.06Z" style="fill:#FF7AB4" />
<path d="M458.56,328.99A8,8 0 1 1 442.56,328.99A8,8 0 1 1 458.56,328.99Z" style="fill:#FF7AB4" />
<path d="M467.02,337.96A8,8 0 1 1 451.02,337.96A8,8 0 1 1 467.02,337.96Z" style="fill:#FF7AB4" />
<path d="M475.48,357.47A8,8 0 1 1 459.48,357.47A8,8 0 1 1 475.48,357.47Z" style="fill:#FF7AB4" />
<path d="M483.93,412.81A8,8 0 1 1 467.93,412.81A8,8 0 1 1 483.93,412.81Z" style="fill:#FF7AB4" />
<path d="M492.39,379.12A8,8 0 1 1 476.39,379.12A8,8 0 1 1 492.39,379.12Z" style="fill:#FF7AB4" />
<path d="M500.85,397.59A8,8 0 1 1 484.85,397.59A8,8 0 1 1 500.85,397.59Z" style="fill:#FF7AB4" />
<path d="M509.31,410.12A8,8 0 1 1 493.31,410.12A8,8 0 1 1 509.31,410.12Z" style="fill:#FF7AB4" />
<path d="M517.77,431.17A8,8 0 1 1 501.77,431.17A8,8 0 1 1 517.77,431.17Z" style="fill:#FF7AB4" />
<path d="M526.23,432.15A8,8 0 1 1 510.23,432.15A8,8 0 1 1 526.23,432.15Z" style="fill:#FF7AB4" />
<path d="M534.69,461.52A8,8 0 1 1 518.69,461.52A8,8 0 1 1 534.69,461.52Z" style="fill:#FF7AB4" />
<path d="M543.15,492.19A8,8 0 1 1 527.15,492.19A8,8 0 1 1 543.15,492.19Z" style="fill:#FF7AB4" />
<path d="M551.61,411.99A8,8 0 1 1 535.61,411.99A8,8 0 1 1 551.61,411.99Z" style="fill:#FF7AB4" />
<path d="M560.07,375.1A8,8 0 1 1 544.07,375.1A8,8 0 1 1 560.07,375.1Z" style="fill:#FF7AB4" />
<path d="M568.52,444.4A8,8 0 1 1 552.52,444.4A8,8 0 1 1 568.52,444.4Z" style="fill:#FF7AB4" />
<path d="M576.98,429.57A8,8 0 1 1 560.98,429.57A8,8 0 1 1 576.98,429.57Z" style="fill:#FF7AB4" />
<path d="M585.44,437.04A8,8 0 1 1 569.44,437.04A8,8 0 1 1 585.44,437.04Z" style="fill:#FF7AB4" />
<path d="M593.9,452.38A8,8 0 1 1 577.9,452.38A8,8 0 1 1 593.9,452.38Z" style="fill:#FF7AB4" />
<path d="M602.36,383.95A8,8 0 1 1 586.36,383.95A8,8 0 1 1 602.36,383.95Z" style="fill:#FF7AB4" />
<path d="M610.82,400.7A8,8 0 1 1 594.82,400.7A8,8 0 1 1 610.82,400.7Z" style="fill:#FF7AB4" />
<path d="M619.28,385.15A8,8 0 1 1 603.28,385.15A8,8 0 1 1 619.28,385.15Z" style="fill:#FF7AB4" />
<path d="M627.74,389.78A8,8 0 1 1 611.74,389.78A8,8 0 1 1 627.74,389.78Z" style="fill:#FF7AB4" />
<path d="M636.2,328.7A8,8 0 1 1 620.2,328.7A8,8 0 1 1 636.2,328.7Z" style="fill:#FF7AB4" />
<path d="M644.66,395.11A8,8 0 1 1 628.66,395.11A8,8 0 1 1 644.66,395.11Z" style="fill:#FF7AB4" />
<path d="M653.11,419.32A8,8 0 1 1 637.11,419.32A8,8 0 1 1 653.11,419.32Z" style="fill:#FF7AB4" />
<path d="M661.57,426.96A8,8 0 1 1 645.57,426.96A8,8 0 1 1 661.57,426.96Z" style="fill:#FF7AB4" />
<path d="M670.03,374.16A8,8 0 1 1 654.03,374.16A8,8 0 1 1 670.03,374.16Z" style="fill:#FF7AB4" />
<path d="M678.49,529.91A8,8 0 1 1 662.49,529.91A8,8 0 1 1 678.49,529.91Z" style="fill:#FF7AB4" />
<path d="M686.95,709.75A8,8 0 1 1 670.95,709.75A8,8 0 1 1 686.95,709.75Z" style="fill:#FF7AB4" />
<path d="M695.41,769.47A8,8 0 1 1 679.41,769.47A8,8 0 1 1 695.41,769.47Z" style="fill:#FF7AB4" />
<path d="M703.87,649.68A8,8 0 1 1 687.87,649.68A8,8 0 1 1 703.87,649.68Z" style="fill:#FF7AB4" />
<path d="M712.33,863.86A8,8 0 1 1 696.33,863.86A8,8 0 1 1 712.33,863.86Z" style="fill:#FF7AB4" />
<path d="M720.79,782.72A8,8 0 1 1 704.79,782.72A8,8 0 1 1 720.79,782.72Z" style="fill:#FF7AB4" />
<path d="M729.25,769.52A8,8 0 1 1 713.25,769.52A8,8 0 1 1 729.25,769.52Z" style="fill:#FF7AB4" />
<path d="M737.7,786A8,8 0 1 1 721.7,786A8,8 0 1 1 737.7,786Z" style="fill:#FF7AB4" />
<path d="M746.16,767.04A8,8 0 1 1 730.16,767.04A8,8 0 1 1 746.16,767.04Z" style="fill:#FF7AB4" />
<path d="M754.62,785.19A8,8 0 1 1 738.62,785.19A8,8 0 1 1 754.62,785.19Z" style="fill:#FF7AB4" />
<path d="M763.08,733.28A8,8 0 1 1 747.08,733.28A8,8 0 1 1 763.08,733.28Z" style="fill:#FF7AB4" />
<path d="M771.54,639.36A8,8 0 1 1 755.54,639.36A8,8 0 1 1 771.54,639.36Z" style="fill:#FF7AB4" />
<path d="M780,752.56A8,8 0 1 1 764,752.56A8,8 0 1 1 780,752.56Z" style="fill:#FF7AB4" />
<path d="M788.46,531.18A8,8 0 1 1 772.46,531.18A8,8 0 1 1 788.46,531.18Z" style="fill:#FF7AB4" />
<path d="M796.92,506.14A8,8 0 1 1 780.92,506.14A8,8 0 1 1 796.92,506.14Z" style="fill:#FF7AB4" />
<path d="M805.38,346.12A8,8 0 1 1 789.38,346.12A8,8 0 1 1 805.38,346.12Z" style="fill:#FF7AB4" />
<path d="M813.84,375.1A8,8 0 1 1 797.84,375.1A8,8 0 1 1 813.84,375.1Z" style="fill:#FF7AB4" />
<path d="M822.3,404.57A8,8 0 1 1 806.3,404.57A8,8 0 1 1 822.3,404.57Z" style="fill:#FF7AB4" />
<path d="M830.75,299.17A8,8 0 1 1 814.75,299.17A8,8 0 1 1 830.75,299.17Z" style="fill:#FF7AB4" />
<path d="M839.21,250.23A8,8 0 1 1 823.21,250.23A8,8 0 1 1 839.21,250.23Z" style="fill:#FF7AB4" />
<path d="M847.67,255.12A8,8 0 1 1 831.67,255.12A8,8 0 1 1 847.67,255.12Z" style="fill:#FF7AB4" />
<path d="M856.13,245.37A8,8 0 1 1 840.13,245.37A8,8 0 1 1 856.13,245.37Z" style="fill:#FF7AB4" />
<path d="M864.59,238.6A8,8 0 1 1 848.59,238.6A8,8 0 1 1 864.59,238.6Z" style="fill:#FF7AB4" />
<path d="M873.05,212.28A8,8 0 1 1 857.05,212.28A8,8 0 1 1 873.05,212.28Z" style="fill:#FF7AB4" />
<path d="M881.51,204.09A8,8 0 1 1 865.51,204.09A8,8 0 1 1 881.51,204.09Z" style="fill:#FF7AB4" />
<path d="M889.97,193.2A8,8 0 1 1 873.97,193.2A8,8 0 1 1 889.97,193.2Z" style="fill:#FF7AB4" />
<path d="M898.43,202.15A8,8 0 1 1 882.43,202.15A8,8 0 1 1 898.43,202.15Z" style="fill:#FF7AB4" />
<path d="M906.89,199.64A8,8 0 1 1 890.89,199.64A8,8 0 1 1 906.89,199.64Z" style="fill:#FF7AB4" />
<path d="M915.34,156.45A8,8 0 1 1 899.34,156.45A8,8 0 1 1 915.34,156.45Z" style="fill:#FF7AB4" />
<path d="M923.8,172.68A8,8 0 1 1 907.8,172.68A8,8 0 1 1 923.8,172.68Z" style="fill:#FF7AB4" />
<path d="M932.26,190.73A8,8 0 1 1 916.26,190.73A8,8 0 1 1 932.26,190.73Z" style="fill:#FF7AB4" />
<path d="M940.72,184.37A8,8 0 1 1 924.72,184.37A8,8 0 1 1 940.72,184.37Z" style="fill:#FF7AB4" />
<path d="M949.18,158.27A8,8 0 1 1 933.18,158.27A8,8 0 1 1 949.18,158.27Z" style="fill:#FF7AB4" />
<path d="M957.64,178.77A8,8 0 1 1 941.64,178.77A8,8 0 1 1 957.64,178.77Z" style="fill:#FF7AB4" />
<path d="M966.1,152.98A8,8 0 1 1 950.1,152.98A8,8 0 1 1 966.1,152.98Z" style="fill:#FF7AB4" />
<path d="M974.56,135.83A8,8 0 1 1 958.56,135.83A8,8 0 1 1 974.56,135.83Z" style="fill:#FF7AB4" />
<path d="M983.02,112.09A8,8 0 1 1 967.02,112.09A8,8 0 1 1 983.02,112.09Z" style="fill:#FF7AB4" />
<path d="M991.48,177.6A8,8 0 1 1 975.48,177.6A8,8 0 1 1 991.48,177.6Z" style="fill:#FF7AB4" />
<path d="M999.93,137.33A8,8 0 1 1 983.93,137.33A8,8 0 1 1 999.93,137.33Z" style="fill:#FF7AB4" />
<path d="M1008.4,179.01A8,8 0 1 1 992.39,179.01A8,8 0 1 1 1008.4,179.01Z" style="fill:#FF7AB4" />
<path d="M1016.9,176.77A8,8 0 1 1 1000.9,176.77A8,8 0 1 1 1016.9,176.77Z" style="fill:#FF7AB4" />
<path d="M1025.3,205.87A8,8 0 1 1 1009.3,205.87A8,8 0 1 1 1025.3,205.87Z" style="fill:#FF7AB4" />
<path d="M1033.8,232.94A8,8 0 1 1 1017.8,232.94A8,8 0 1 1 1033.8,232.94Z" style="fill:#FF7AB4" />
<path d="M1042.2,213.95A8,8 0 1 1 1026.2,213.95A8,8 0 1 1 1042.2,213.95Z" style="fill:#FF7AB4" />
<path d="M1050.7,179.19A8,8 0 1 1 1034.7,179.19A8,8 0 1 1 1050.7,179.19Z" style="fill:#FF7AB4" />
<path d="M1059.1,202.63A8,8 0 1 1 1043.1,202.63A8,8 0 1 1 1059.1,202.63Z" style="fill:#FF7AB4" />
<path d="M1067.6,204.65A8,8 0 1 1 1051.6,204.65A8,8 0 1 1 1067.6,204.65Z" style="fill:#FF7AB4" />
<path d="M1076.1,220.12A8,8 0 1 1 1060.1,220.12A8,8 0 1 1 1076.1,220.12Z" style="fill:#FF7AB4" />
<path d="M1084.5,161.34A8,8 0 1 1 1068.5,161.34A8,8 0 1 1 1084.5,161.34Z" style="fill:#FF7AB4" />
<path d="M1093,181.32A8,8 0 1 1 1077,181.32A8,8 0 1 1 1093,181.32Z" style="fill:#FF7AB4" />
<path d="M1101.4,197.03A8,8 0 1 1 1085.4,197.03A8,8 0 1 1 1101.4,197.03Z" style="fill:#FF7AB4" />
<path d="M1109.9,195.42A8,8 0 1 1 1093.9,195.42A8,8 0 1 1 1109.9,195.42Z" style="fill:#FF7AB4" />
<path d="M1118.4,252.63A8,8 0 1 1 1102.4,252.63A8,8 0 1 1 1118.4,252.63Z" style="fill:#FF7AB4" />
<path d="M1126.8,200.36A8,8 0 1 1 1110.8,200.36A8,8 0 1 1 1126.8,200.36Z" style="fill:#FF7AB4" />
<path d="M1135.3,210.7A8,8 0 1 1 1119.3,210.7A8,8 0 1 1 1135.3,210.7Z" style="fill:#FF7AB4" />
<path d="M1143.7,185.68A8,8 0 1 1 1127.7,185.68A8,8 0 1 1 1143.7,185.68Z" style="fill:#FF7AB4" />
<path d="M1152.2,198.99A8,8 0 1 1 1136.2,198.99A8,8 0 1 1 1152.2,198.99Z" style="fill:#FF7AB4" />
<path d="M1160.7,219.69A8,8 0 1 1 1144.7,219.69A8,8 0 1 1 1160.7,219.69Z" style="fill:#FF7AB4" />
<path d="M1169.1,282.57A8,8 0 1 1 1153.1,282.57A8,8 0 1 1 1169.1,282.57Z" style="fill:#FF7AB4" />
<path d="M1177.6,266.35A8,8 0 1 1 1161.6,266.35A8,8 0 1 1 1177.6,266.35Z" style="fill:#FF7AB4" />
<path d="M1186,234.69A8,8 0 1 1 1170,234.69A8,8 0 1 1 1186,234.69Z" style="fill:#FF7AB4" />
<path d="M1194.5,207.23A8,8 0 1 1 1178.5,207.23A8,8 0 1 1 1194.5,207.23Z" style="fill:#FF7AB4" />
<path d="M1203,256.6A8,8 0 1 1 1187,256.6A8,8 0 1 1 1203,256.6Z" style="fill:#FF7AB4" />
<path d="M1211.4,277.51A8,8 0 1 1 1195.4,277.51A8,8 0 1 1 1211.4,277.51Z" style="fill:#FF7AB4" />
<path d="M1219.9,280.72A8,8 0 1 1 1203.9,280.72A8,8 0 1 1 1219.9,280.72Z" style="fill:#FF7AB4" />
<path d="M1228.3,269.75A8,8 0 1 1 1212.3,269.75A8,8 0 1 1 1228.3,269.75Z" style="fill:#FF7AB4" />
<path d="M1236.8,272.14A8,8 0 1 1 1220.8,272.14A8,8 0 1 1 1236.8,272.14Z" style="fill:#FF7AB4" />
<path d="M1245.2,383.65A8,8 0 1 1 1229.2,383.65A8,8 0 1 1 1245.2,383.65Z" style="fill:#FF7AB4" />
<path d="M1253.7,321.07A8,8 0 1 1 1237.7,321.07A8,8 0 1 1 1253.7,321.07Z" style="fill:#FF7AB4" />
<path d="M1262.2,283.43A8,8 0 1 1 1246.2,283.43A8,8 0 1 1 1262.2,283.43Z" style="fill:#FF7AB4" />
<path d="M1270.6,265.65A8,8 0 1 1 1254.6,265.65A8,8 0 1 1 1270.6,265.65Z" style="fill:#FF7AB4" />
<path d="M1279.1,269.56A8,8 0 1 1 1263.1,269.56A8,8 0 1 1 1279.1,269.56Z" style="fill:#FF7AB4" />
<path d="M1287.5,255.11A8,8 0 1 1 1271.5,255.11A8,8 0 1 1 1287.5,255.11Z" style="fill:#FF7AB4" />
<path d="M1296,226.91A8,8 0 1 1 1280,226.91A8,8 0 1 1 1296,226.91Z" style="fill:#FF7AB4" />
<path d="M107.97,941.46L1288,941.46" style="fill:none;stroke:#000000;stroke-width:2.5" />
<path d="M1288,87.824L1288,1019.1" style="fill:none;stroke:#000000;stroke-width:2.5" />
<path d="M1229,964.69A8,8 0 1 1 1213,964.69A8,8 0 1 1 1229,964.69Z" style="fill:#FF7AB4" />
<text x="1041.5" y="-957.62" transform="scale(1, -1)"
	style="font-family:Liberation Sans;font-variant:normal;font-weight:normal;font-style:normal;font-size:30px">1 um TeO2</text>
</g>
</svg>
