<?xml version="1.0"?>
<!-- Generated by SVGo and Plotinum VG -->
<svg width="1080pt" height="1080pt" viewBox="0 0 1080 1080"
	xmlns="http://www.w3.org/2000/svg"
	xmlns:xlink="http://www.w3.org/1999/xlink">
<g transform="scale(1, -1) translate(0, -1080)">
<path d="M0,0L1080,0L1080,1080L0,1080Z" style="fill:#FFFFFF" />
<text x="340.67" y="-1052.4" transform="scale(1, -1)"
	style="font-family:Helvetica;font-weight:normal;font-style:normal;font-size:34px">Pump Power vs Fit Widths</text>
<text x="483.58" y="-7.3594" transform="scale(1, -1)"
	style="font-family:Helvetica;font-weight:normal;font-style:normal;font-size:24px">Pump Power (mW)</text>
<text x="578.25" y="-54.172" transform="scale(1, -1)"
	style="font-family:Helvetica;font-weight:normal;font-style:normal;font-size:24px">0</text>
<text x="690.34" y="-54.172" transform="scale(1, -1)"
	style="font-family:Helvetica;font-weight:normal;font-style:normal;font-size:24px">50</text>
<text x="802.43" y="-54.172" transform="scale(1, -1)"
	style="font-family:Helvetica;font-weight:normal;font-style:normal;font-size:24px">100</text>
<text x="921.19" y="-54.172" transform="scale(1, -1)"
	style="font-family:Helvetica;font-weight:normal;font-style:normal;font-size:24px">150</text>
<text x="1040" y="-54.172" transform="scale(1, -1)"
	style="font-family:Helvetica;font-weight:normal;font-style:normal;font-size:24px">200</text>
<path d="M584.92,89.625L584.92,81.625" style="fill:none;stroke:#000000;stroke-width:1.5" />
<path d="M644.3,85.625L644.3,81.625" style="fill:none;stroke:#000000;stroke-width:1.5" />
<path d="M703.68,89.625L703.68,81.625" style="fill:none;stroke:#000000;stroke-width:1.5" />
<path d="M763.07,85.625L763.07,81.625" style="fill:none;stroke:#000000;stroke-width:1.5" />
<path d="M822.45,89.625L822.45,81.625" style="fill:none;stroke:#000000;stroke-width:1.5" />
<path d="M881.83,85.625L881.83,81.625" style="fill:none;stroke:#000000;stroke-width:1.5" />
<path d="M941.21,89.625L941.21,81.625" style="fill:none;stroke:#000000;stroke-width:1.5" />
<path d="M1000.6,85.625L1000.6,81.625" style="fill:none;stroke:#000000;stroke-width:1.5" />
<path d="M1060,89.625L1060,81.625" style="fill:none;stroke:#000000;stroke-width:1.5" />
<path d="M109.86,81.625L1060,81.625" style="fill:none;stroke:#000000;stroke-width:1.5" />
<g transform="rotate(90)">
<text x="440.41" y="19.453" transform="scale(1, -1)"
	style="font-family:Helvetica;font-weight:normal;font-style:normal;font-size:24px">Frequency (MHz)</text>
</g>
<text x="65.246" y="-75.664" transform="scale(1, -1)"
	style="font-family:Helvetica;font-weight:normal;font-style:normal;font-size:24px">90</text>
<text x="51.898" y="-301.36" transform="scale(1, -1)"
	style="font-family:Helvetica;font-weight:normal;font-style:normal;font-size:24px">100</text>
<text x="53.68" y="-527.05" transform="scale(1, -1)"
	style="font-family:Helvetica;font-weight:normal;font-style:normal;font-size:24px">110</text>
<text x="51.898" y="-752.74" transform="scale(1, -1)"
	style="font-family:Helvetica;font-weight:normal;font-style:normal;font-size:24px">120</text>
<text x="51.898" y="-978.43" transform="scale(1, -1)"
	style="font-family:Helvetica;font-weight:normal;font-style:normal;font-size:24px">130</text>
<path d="M114.61,81.711L106.61,81.711" style="fill:none;stroke:#000000;stroke-width:1.5" />
<path d="M110.61,194.56L106.61,194.56" style="fill:none;stroke:#000000;stroke-width:1.5" />
<path d="M114.61,307.4L106.61,307.4" style="fill:none;stroke:#000000;stroke-width:1.5" />
<path d="M110.61,420.25L106.61,420.25" style="fill:none;stroke:#000000;stroke-width:1.5" />
<path d="M114.61,533.1L106.61,533.1" style="fill:none;stroke:#000000;stroke-width:1.5" />
<path d="M110.61,645.94L106.61,645.94" style="fill:none;stroke:#000000;stroke-width:1.5" />
<path d="M114.61,758.79L106.61,758.79" style="fill:none;stroke:#000000;stroke-width:1.5" />
<path d="M110.61,871.63L106.61,871.63" style="fill:none;stroke:#000000;stroke-width:1.5" />
<path d="M114.61,984.48L106.61,984.48" style="fill:none;stroke:#000000;stroke-width:1.5" />
<path d="M106.61,81.711L106.61,984.48" style="fill:none;stroke:#000000;stroke-width:1.5" />
<path d="M589.92,287.29A5,5 0 1 1 579.92,287.29A5,5 0 1 1 589.92,287.29Z" style="fill:#1BAA8B" />
<path d="M584.92,81.711L584.92,287.29L109.86,287.29L584.92,287.29" style="fill:none;stroke:#7F7F7F;stroke-dasharray:5,5" />
<path d="M779.94,618.51A5,5 0 1 1 769.94,618.51A5,5 0 1 1 779.94,618.51Z" style="fill:#C96892" />
<path d="M774.94,81.711L774.94,618.51L109.86,618.51L774.94,618.51" style="fill:none;stroke:#7F7F7F;stroke-dasharray:5,5" />
<path d="M993.72,772.02A5,5 0 1 1 983.72,772.02A5,5 0 1 1 993.72,772.02Z" style="fill:#637CC6" />
<path d="M988.72,81.711L988.72,772.02L109.86,772.02L988.72,772.02" style="fill:none;stroke:#7F7F7F;stroke-dasharray:5,5" />
<path d="M1010,931.54A5,5 0 1 1 1000,931.54A5,5 0 1 1 1010,931.54Z" style="fill:#1BAA8B" />
<text x="910.67" y="-925.89" transform="scale(1, -1)"
	style="font-family:Helvetica;font-weight:normal;font-style:normal;font-size:24px">0 mW</text>
<path d="M1010,900.6A5,5 0 1 1 1000,900.6A5,5 0 1 1 1010,900.6Z" style="fill:#C96892" />
<text x="897.32" y="-894.95" transform="scale(1, -1)"
	style="font-family:Helvetica;font-weight:normal;font-style:normal;font-size:24px">80 mW</text>
<path d="M1010,869.66A5,5 0 1 1 1000,869.66A5,5 0 1 1 1010,869.66Z" style="fill:#637CC6" />
<text x="883.98" y="-864.01" transform="scale(1, -1)"
	style="font-family:Helvetica;font-weight:normal;font-style:normal;font-size:24px">170 mW</text>
</g>
</svg>
