<?xml version="1.0"?>
<!-- Generated by SVGo and Plotinum VG -->
<svg width="1080pt" height="1080pt" viewBox="0 0 1080 1080"
	xmlns="http://www.w3.org/2000/svg"
	xmlns:xlink="http://www.w3.org/1999/xlink">
<g transform="scale(1, -1) translate(0, -1080)">
<path d="M0,0L1080,0L1080,1080L0,1080Z" style="fill:#-8000000000000000-8000000000000000-8000000000000000;fill-opacity:0" />
<text x="82.847" y="-1039.5" transform="scale(1, -1)"
	style="font-family:Helvetica;font-weight:normal;font-style:normal;font-size:50px">1 cm UHNA3 Phase-Matching Bandwidth</text>
<text x="366.73" y="-11.039" transform="scale(1, -1)"
	style="font-family:Helvetica;font-weight:normal;font-style:normal;font-size:36px">Pump-Probe Separation (GHz)</text>
<text x="208.07" y="-71.258" transform="scale(1, -1)"
	style="font-family:Helvetica;font-weight:normal;font-style:normal;font-size:36px">0.50</text>
<text x="392.93" y="-71.258" transform="scale(1, -1)"
	style="font-family:Helvetica;font-weight:normal;font-style:normal;font-size:36px">1.50</text>
<text x="577.8" y="-71.258" transform="scale(1, -1)"
	style="font-family:Helvetica;font-weight:normal;font-style:normal;font-size:36px">2.50</text>
<text x="762.67" y="-71.258" transform="scale(1, -1)"
	style="font-family:Helvetica;font-weight:normal;font-style:normal;font-size:36px">3.50</text>
<text x="947.53" y="-71.258" transform="scale(1, -1)"
	style="font-family:Helvetica;font-weight:normal;font-style:normal;font-size:36px">4.50</text>
<path d="M150.67,112.44L150.67,108.44" style="fill:none;stroke:#000000;stroke-width:1.5" />
<path d="M243.1,116.44L243.1,108.44" style="fill:none;stroke:#000000;stroke-width:1.5" />
<path d="M335.53,112.44L335.53,108.44" style="fill:none;stroke:#000000;stroke-width:1.5" />
<path d="M427.97,116.44L427.97,108.44" style="fill:none;stroke:#000000;stroke-width:1.5" />
<path d="M520.4,112.44L520.4,108.44" style="fill:none;stroke:#000000;stroke-width:1.5" />
<path d="M612.83,116.44L612.83,108.44" style="fill:none;stroke:#000000;stroke-width:1.5" />
<path d="M705.27,112.44L705.27,108.44" style="fill:none;stroke:#000000;stroke-width:1.5" />
<path d="M797.7,116.44L797.7,108.44" style="fill:none;stroke:#000000;stroke-width:1.5" />
<path d="M890.13,112.44L890.13,108.44" style="fill:none;stroke:#000000;stroke-width:1.5" />
<path d="M982.57,116.44L982.57,108.44" style="fill:none;stroke:#000000;stroke-width:1.5" />
<path d="M150.67,108.44L1075,108.44" style="fill:none;stroke:#000000;stroke-width:1.5" />
<g transform="rotate(90)">
<text x="361.9" y="29.18" transform="scale(1, -1)"
	style="font-family:Helvetica;font-weight:normal;font-style:normal;font-size:36px">Peak Spectral Density</text>
</g>
<text x="67.848" y="-207.29" transform="scale(1, -1)"
	style="font-family:Helvetica;font-weight:normal;font-style:normal;font-size:36px">0.34</text>
<text x="67.848" y="-422.37" transform="scale(1, -1)"
	style="font-family:Helvetica;font-weight:normal;font-style:normal;font-size:36px">1.03</text>
<text x="67.848" y="-637.45" transform="scale(1, -1)"
	style="font-family:Helvetica;font-weight:normal;font-style:normal;font-size:36px">1.71</text>
<text x="67.848" y="-852.53" transform="scale(1, -1)"
	style="font-family:Helvetica;font-weight:normal;font-style:normal;font-size:36px">2.40</text>
<path d="M159.92,108.82L155.92,108.82" style="fill:none;stroke:#000000;stroke-width:1.5" />
<path d="M163.92,216.36L155.92,216.36" style="fill:none;stroke:#000000;stroke-width:1.5" />
<path d="M159.92,323.9L155.92,323.9" style="fill:none;stroke:#000000;stroke-width:1.5" />
<path d="M163.92,431.44L155.92,431.44" style="fill:none;stroke:#000000;stroke-width:1.5" />
<path d="M159.92,538.98L155.92,538.98" style="fill:none;stroke:#000000;stroke-width:1.5" />
<path d="M163.92,646.52L155.92,646.52" style="fill:none;stroke:#000000;stroke-width:1.5" />
<path d="M159.92,754.06L155.92,754.06" style="fill:none;stroke:#000000;stroke-width:1.5" />
<path d="M163.92,861.6L155.92,861.6" style="fill:none;stroke:#000000;stroke-width:1.5" />
<path d="M159.92,969.14L155.92,969.14" style="fill:none;stroke:#000000;stroke-width:1.5" />
<path d="M159.92,969.14L155.92,969.14" style="fill:none;stroke:#000000;stroke-width:1.5" />
<path d="M155.92,108.82L155.92,969.14" style="fill:none;stroke:#000000;stroke-width:1.5" />
<path d="M1080,969.14A5,5 0 1 1 1070,969.14A5,5 0 1 1 1080,969.14Z" style="fill:#1FD3AC" />
<path d="M150.67,969.14L1075,969.14" style="fill:none;stroke:#000000" />
<path d="M1075,108.82L1075,969.14" style="fill:none;stroke:#000000" />
</g>
</svg>
