<?xml version="1.0"?>
<!-- Generated by SVGo and Plotinum VG -->
<svg width="1080pt" height="1080pt" viewBox="0 0 1080 1080"
	xmlns="http://www.w3.org/2000/svg"
	xmlns:xlink="http://www.w3.org/1999/xlink">
<g transform="scale(1, -1) translate(0, -1080)">
<path d="M0,0L1080,0L1080,1080L0,1080Z" style="fill:#-8000000000000000-8000000000000000-8000000000000000;fill-opacity:0" />
<text x="280.17" y="-1039.5" transform="scale(1, -1)"
	style="font-family:Helvetica;font-weight:normal;font-style:normal;font-size:50px">Height Ratios vs Power</text>
<text x="423.9" y="-11.039" transform="scale(1, -1)"
	style="font-family:Helvetica;font-weight:normal;font-style:normal;font-size:36px">Pump Power (mW)</text>
<text x="318.87" y="-71.258" transform="scale(1, -1)"
	style="font-family:Helvetica;font-weight:normal;font-style:normal;font-size:36px">50</text>
<text x="545.89" y="-71.258" transform="scale(1, -1)"
	style="font-family:Helvetica;font-weight:normal;font-style:normal;font-size:36px">100</text>
<text x="782.91" y="-71.258" transform="scale(1, -1)"
	style="font-family:Helvetica;font-weight:normal;font-style:normal;font-size:36px">150</text>
<text x="1019.9" y="-71.258" transform="scale(1, -1)"
	style="font-family:Helvetica;font-weight:normal;font-style:normal;font-size:36px">200</text>
<path d="M101.87,112.44L101.87,108.44" style="fill:none;stroke:#000000;stroke-width:1.5" />
<path d="M220.38,112.44L220.38,108.44" style="fill:none;stroke:#000000;stroke-width:1.5" />
<path d="M338.9,116.44L338.9,108.44" style="fill:none;stroke:#000000;stroke-width:1.5" />
<path d="M457.41,112.44L457.41,108.44" style="fill:none;stroke:#000000;stroke-width:1.5" />
<path d="M575.92,116.44L575.92,108.44" style="fill:none;stroke:#000000;stroke-width:1.5" />
<path d="M694.43,112.44L694.43,108.44" style="fill:none;stroke:#000000;stroke-width:1.5" />
<path d="M812.94,116.44L812.94,108.44" style="fill:none;stroke:#000000;stroke-width:1.5" />
<path d="M931.46,112.44L931.46,108.44" style="fill:none;stroke:#000000;stroke-width:1.5" />
<path d="M1050,116.44L1050,108.44" style="fill:none;stroke:#000000;stroke-width:1.5" />
<path d="M101.87,108.44L1050,108.44" style="fill:none;stroke:#000000;stroke-width:1.5" />
<g transform="rotate(90)">
<text x="318.13" y="29.18" transform="scale(1, -1)"
	style="font-family:Helvetica;font-weight:normal;font-style:normal;font-size:36px">Stokes/Anti-Stokes Heights</text>
</g>
<text x="67.848" y="-95.246" transform="scale(1, -1)"
	style="font-family:Helvetica;font-weight:normal;font-style:normal;font-size:36px">1</text>
<text x="67.848" y="-115.56" transform="scale(1, -1)"
	style="font-family:Helvetica;font-weight:normal;font-style:normal;font-size:36px">2</text>
<text x="67.848" y="-135.87" transform="scale(1, -1)"
	style="font-family:Helvetica;font-weight:normal;font-style:normal;font-size:36px">3</text>
<path d="M113.87,104.32L105.87,104.32" style="fill:none;stroke:#000000;stroke-width:1.5" />
<path d="M109.87,114.47L105.87,114.47" style="fill:none;stroke:#000000;stroke-width:1.5" />
<path d="M113.87,124.63L105.87,124.63" style="fill:none;stroke:#000000;stroke-width:1.5" />
<path d="M109.87,134.78L105.87,134.78" style="fill:none;stroke:#000000;stroke-width:1.5" />
<path d="M113.87,144.94L105.87,144.94" style="fill:none;stroke:#000000;stroke-width:1.5" />
<path d="M109.87,155.09L105.87,155.09" style="fill:none;stroke:#000000;stroke-width:1.5" />
<path d="M105.87,104.32L105.87,968.14" style="fill:none;stroke:#000000;stroke-width:1.5" />
<path d="M997.82,503.73L945.68,505.25L888.79,506.91L831.91,508.57L779.76,510.09L737.1,511.33L684.95,512.85L604.36,515.2L547.48,516.86L500.07,518.24L447.93,519.76L391.04,521.42L305.71,523.91L253.57,525.43L215.64,526.54L168.24,527.92" style="fill:none;stroke:#7F7F7F;stroke-width:3" />
<path d="M1003.8,353.85A6,6 0 1 1 991.82,353.85A6,6 0 1 1 1003.8,353.85Z" style="fill:#1BAA8B" />
<path d="M951.68,302.63A6,6 0 1 1 939.68,302.63A6,6 0 1 1 951.68,302.63Z" style="fill:#1BAA8B" />
<path d="M894.79,337.29A6,6 0 1 1 882.79,337.29A6,6 0 1 1 894.79,337.29Z" style="fill:#1BAA8B" />
<path d="M837.91,968.14A6,6 0 1 1 825.91,968.14A6,6 0 1 1 837.91,968.14Z" style="fill:#1BAA8B" />
<path d="M785.76,299.8A6,6 0 1 1 773.76,299.8A6,6 0 1 1 785.76,299.8Z" style="fill:#1BAA8B" />
<path d="M743.1,384.9A6,6 0 1 1 731.1,384.9A6,6 0 1 1 743.1,384.9Z" style="fill:#1BAA8B" />
<path d="M690.95,865.52A6,6 0 1 1 678.95,865.52A6,6 0 1 1 690.95,865.52Z" style="fill:#1BAA8B" />
<path d="M610.36,801.76A6,6 0 1 1 598.36,801.76A6,6 0 1 1 610.36,801.76Z" style="fill:#1BAA8B" />
<path d="M553.48,340.82A6,6 0 1 1 541.48,340.82A6,6 0 1 1 553.48,340.82Z" style="fill:#1BAA8B" />
<path d="M506.07,724.26A6,6 0 1 1 494.07,724.26A6,6 0 1 1 506.07,724.26Z" style="fill:#1BAA8B" />
<path d="M453.93,717.85A6,6 0 1 1 441.93,717.85A6,6 0 1 1 453.93,717.85Z" style="fill:#1BAA8B" />
<path d="M397.04,264.4A6,6 0 1 1 385.04,264.4A6,6 0 1 1 397.04,264.4Z" style="fill:#1BAA8B" />
<path d="M311.71,631.91A6,6 0 1 1 299.71,631.91A6,6 0 1 1 311.71,631.91Z" style="fill:#1BAA8B" />
<path d="M259.57,254.9A6,6 0 1 1 247.57,254.9A6,6 0 1 1 259.57,254.9Z" style="fill:#1BAA8B" />
<path d="M221.64,545.56A6,6 0 1 1 209.64,545.56A6,6 0 1 1 221.64,545.56Z" style="fill:#1BAA8B" />
<path d="M174.24,460.44A6,6 0 1 1 162.24,460.44A6,6 0 1 1 174.24,460.44Z" style="fill:#1BAA8B" />
</g>
</svg>
