<?xml version="1.0"?>
<!-- Generated by SVGo and Plotinum VG -->
<svg width="1080pt" height="1080pt" viewBox="0 0 1080 1080"
	xmlns="http://www.w3.org/2000/svg"
	xmlns:xlink="http://www.w3.org/1999/xlink">
<g transform="scale(1, -1) translate(0, -1080)">
<path d="M0,0L1080,0L1080,1080L0,1080Z" style="fill:#-8000000000000000-8000000000000000-8000000000000000;fill-opacity:0" />
<text x="339.41" y="-1039.5" transform="scale(1, -1)"
	style="font-family:Helvetica;font-weight:normal;font-style:normal;font-size:50px">10 μm CS2 CABS</text>
<text x="477.3" y="-11.039" transform="scale(1, -1)"
	style="font-family:Helvetica;font-weight:normal;font-style:normal;font-size:36px">Frequency (GHz)</text>
<text x="145.43" y="-71.258" transform="scale(1, -1)"
	style="font-family:Helvetica;font-weight:normal;font-style:normal;font-size:36px">2.41</text>
<text x="244.73" y="-71.258" transform="scale(1, -1)"
	style="font-family:Helvetica;font-weight:normal;font-style:normal;font-size:36px">2.43</text>
<text x="344.03" y="-71.258" transform="scale(1, -1)"
	style="font-family:Helvetica;font-weight:normal;font-style:normal;font-size:36px">2.45</text>
<text x="443.33" y="-71.258" transform="scale(1, -1)"
	style="font-family:Helvetica;font-weight:normal;font-style:normal;font-size:36px">2.47</text>
<text x="542.62" y="-71.258" transform="scale(1, -1)"
	style="font-family:Helvetica;font-weight:normal;font-style:normal;font-size:36px">2.49</text>
<text x="641.92" y="-71.258" transform="scale(1, -1)"
	style="font-family:Helvetica;font-weight:normal;font-style:normal;font-size:36px">2.51</text>
<text x="741.22" y="-71.258" transform="scale(1, -1)"
	style="font-family:Helvetica;font-weight:normal;font-style:normal;font-size:36px">2.53</text>
<text x="840.51" y="-71.258" transform="scale(1, -1)"
	style="font-family:Helvetica;font-weight:normal;font-style:normal;font-size:36px">2.55</text>
<text x="939.81" y="-71.258" transform="scale(1, -1)"
	style="font-family:Helvetica;font-weight:normal;font-style:normal;font-size:36px">2.57</text>
<path d="M180.47,116.44L180.47,108.44" style="fill:none;stroke:#000000;stroke-width:1.5" />
<path d="M230.12,112.44L230.12,108.44" style="fill:none;stroke:#000000;stroke-width:1.5" />
<path d="M279.76,116.44L279.76,108.44" style="fill:none;stroke:#000000;stroke-width:1.5" />
<path d="M329.41,112.44L329.41,108.44" style="fill:none;stroke:#000000;stroke-width:1.5" />
<path d="M379.06,116.44L379.06,108.44" style="fill:none;stroke:#000000;stroke-width:1.5" />
<path d="M428.71,112.44L428.71,108.44" style="fill:none;stroke:#000000;stroke-width:1.5" />
<path d="M478.36,116.44L478.36,108.44" style="fill:none;stroke:#000000;stroke-width:1.5" />
<path d="M528.01,112.44L528.01,108.44" style="fill:none;stroke:#000000;stroke-width:1.5" />
<path d="M577.66,116.44L577.66,108.44" style="fill:none;stroke:#000000;stroke-width:1.5" />
<path d="M627.3,112.44L627.3,108.44" style="fill:none;stroke:#000000;stroke-width:1.5" />
<path d="M676.95,116.44L676.95,108.44" style="fill:none;stroke:#000000;stroke-width:1.5" />
<path d="M726.6,112.44L726.6,108.44" style="fill:none;stroke:#000000;stroke-width:1.5" />
<path d="M776.25,116.44L776.25,108.44" style="fill:none;stroke:#000000;stroke-width:1.5" />
<path d="M825.9,112.44L825.9,108.44" style="fill:none;stroke:#000000;stroke-width:1.5" />
<path d="M875.55,116.44L875.55,108.44" style="fill:none;stroke:#000000;stroke-width:1.5" />
<path d="M925.19,112.44L925.19,108.44" style="fill:none;stroke:#000000;stroke-width:1.5" />
<path d="M974.84,116.44L974.84,108.44" style="fill:none;stroke:#000000;stroke-width:1.5" />
<path d="M1024.5,112.44L1024.5,108.44" style="fill:none;stroke:#000000;stroke-width:1.5" />
<path d="M155.67,108.44L1075,108.44" style="fill:none;stroke:#000000;stroke-width:1.5" />
<g transform="rotate(90)">
<text x="371.42" y="29.18" transform="scale(1, -1)"
	style="font-family:Helvetica;font-weight:normal;font-style:normal;font-size:36px">Spectral Density (uV)</text>
</g>
<text x="67.848" y="-207.91" transform="scale(1, -1)"
	style="font-family:Helvetica;font-weight:normal;font-style:normal;font-size:36px">0.87</text>
<text x="67.848" y="-424.24" transform="scale(1, -1)"
	style="font-family:Helvetica;font-weight:normal;font-style:normal;font-size:36px">1.04</text>
<text x="67.848" y="-640.57" transform="scale(1, -1)"
	style="font-family:Helvetica;font-weight:normal;font-style:normal;font-size:36px">1.20</text>
<text x="67.848" y="-856.9" transform="scale(1, -1)"
	style="font-family:Helvetica;font-weight:normal;font-style:normal;font-size:36px">1.37</text>
<path d="M159.92,108.82L155.92,108.82" style="fill:none;stroke:#000000;stroke-width:1.5" />
<path d="M163.92,216.98L155.92,216.98" style="fill:none;stroke:#000000;stroke-width:1.5" />
<path d="M159.92,325.15L155.92,325.15" style="fill:none;stroke:#000000;stroke-width:1.5" />
<path d="M163.92,433.31L155.92,433.31" style="fill:none;stroke:#000000;stroke-width:1.5" />
<path d="M159.92,541.48L155.92,541.48" style="fill:none;stroke:#000000;stroke-width:1.5" />
<path d="M163.92,649.64L155.92,649.64" style="fill:none;stroke:#000000;stroke-width:1.5" />
<path d="M159.92,757.81L155.92,757.81" style="fill:none;stroke:#000000;stroke-width:1.5" />
<path d="M163.92,865.98L155.92,865.98" style="fill:none;stroke:#000000;stroke-width:1.5" />
<path d="M159.92,974.14L155.92,974.14" style="fill:none;stroke:#000000;stroke-width:1.5" />
<path d="M159.92,974.14L155.92,974.14" style="fill:none;stroke:#000000;stroke-width:1.5" />
<path d="M155.92,108.82L155.92,974.14" style="fill:none;stroke:#000000;stroke-width:1.5" />
<path d="M160.67,307.51A5,5 0 1 1 150.67,307.51A5,5 0 1 1 160.67,307.51Z" style="fill:#FF7AB4" />
<path d="M185.51,348.34A5,5 0 1 1 175.51,348.34A5,5 0 1 1 185.51,348.34Z" style="fill:#FF7AB4" />
<path d="M210.36,326.59A5,5 0 1 1 200.36,326.59A5,5 0 1 1 210.36,326.59Z" style="fill:#FF7AB4" />
<path d="M235.21,380.36A5,5 0 1 1 225.21,380.36A5,5 0 1 1 235.21,380.36Z" style="fill:#FF7AB4" />
<path d="M260.05,400.02A5,5 0 1 1 250.05,400.02A5,5 0 1 1 260.05,400.02Z" style="fill:#FF7AB4" />
<path d="M284.9,420.3A5,5 0 1 1 274.9,420.3A5,5 0 1 1 284.9,420.3Z" style="fill:#FF7AB4" />
<path d="M309.75,427.09A5,5 0 1 1 299.75,427.09A5,5 0 1 1 309.75,427.09Z" style="fill:#FF7AB4" />
<path d="M334.59,477.69A5,5 0 1 1 324.59,477.69A5,5 0 1 1 334.59,477.69Z" style="fill:#FF7AB4" />
<path d="M359.44,450.45A5,5 0 1 1 349.44,450.45A5,5 0 1 1 359.44,450.45Z" style="fill:#FF7AB4" />
<path d="M384.29,386.93A5,5 0 1 1 374.29,386.93A5,5 0 1 1 384.29,386.93Z" style="fill:#FF7AB4" />
<path d="M409.13,356.64A5,5 0 1 1 399.13,356.64A5,5 0 1 1 409.13,356.64Z" style="fill:#FF7AB4" />
<path d="M433.98,418.44A5,5 0 1 1 423.98,418.44A5,5 0 1 1 433.98,418.44Z" style="fill:#FF7AB4" />
<path d="M458.83,408.35A5,5 0 1 1 448.83,408.35A5,5 0 1 1 458.83,408.35Z" style="fill:#FF7AB4" />
<path d="M483.68,396.26A5,5 0 1 1 473.68,396.26A5,5 0 1 1 483.68,396.26Z" style="fill:#FF7AB4" />
<path d="M508.52,400.54A5,5 0 1 1 498.52,400.54A5,5 0 1 1 508.52,400.54Z" style="fill:#FF7AB4" />
<path d="M533.37,460.23A5,5 0 1 1 523.37,460.23A5,5 0 1 1 533.37,460.23Z" style="fill:#FF7AB4" />
<path d="M558.22,429.56A5,5 0 1 1 548.22,429.56A5,5 0 1 1 558.22,429.56Z" style="fill:#FF7AB4" />
<path d="M583.06,456.94A5,5 0 1 1 573.06,456.94A5,5 0 1 1 583.06,456.94Z" style="fill:#FF7AB4" />
<path d="M607.91,456.11A5,5 0 1 1 597.91,456.11A5,5 0 1 1 607.91,456.11Z" style="fill:#FF7AB4" />
<path d="M632.76,454.76A5,5 0 1 1 622.76,454.76A5,5 0 1 1 632.76,454.76Z" style="fill:#FF7AB4" />
<path d="M657.6,578.67A5,5 0 1 1 647.6,578.67A5,5 0 1 1 657.6,578.67Z" style="fill:#FF7AB4" />
<path d="M682.45,648.89A5,5 0 1 1 672.45,648.89A5,5 0 1 1 682.45,648.89Z" style="fill:#FF7AB4" />
<path d="M707.3,594.02A5,5 0 1 1 697.3,594.02A5,5 0 1 1 707.3,594.02Z" style="fill:#FF7AB4" />
<path d="M732.14,774.35A5,5 0 1 1 722.14,774.35A5,5 0 1 1 732.14,774.35Z" style="fill:#FF7AB4" />
<path d="M756.99,422.82A5,5 0 1 1 746.99,422.82A5,5 0 1 1 756.99,422.82Z" style="fill:#FF7AB4" />
<path d="M781.84,370.1A5,5 0 1 1 771.84,370.1A5,5 0 1 1 781.84,370.1Z" style="fill:#FF7AB4" />
<path d="M806.68,422.05A5,5 0 1 1 796.68,422.05A5,5 0 1 1 806.68,422.05Z" style="fill:#FF7AB4" />
<path d="M831.53,426.46A5,5 0 1 1 821.53,426.46A5,5 0 1 1 831.53,426.46Z" style="fill:#FF7AB4" />
<path d="M856.38,476.99A5,5 0 1 1 846.38,476.99A5,5 0 1 1 856.38,476.99Z" style="fill:#FF7AB4" />
<path d="M881.23,554.74A5,5 0 1 1 871.23,554.74A5,5 0 1 1 881.23,554.74Z" style="fill:#FF7AB4" />
<path d="M906.07,592.58A5,5 0 1 1 896.07,592.58A5,5 0 1 1 906.07,592.58Z" style="fill:#FF7AB4" />
<path d="M930.92,531.2A5,5 0 1 1 920.92,531.2A5,5 0 1 1 930.92,531.2Z" style="fill:#FF7AB4" />
<path d="M955.77,499.91A5,5 0 1 1 945.77,499.91A5,5 0 1 1 955.77,499.91Z" style="fill:#FF7AB4" />
<path d="M980.61,440.82A5,5 0 1 1 970.61,440.82A5,5 0 1 1 980.61,440.82Z" style="fill:#FF7AB4" />
<path d="M1005.5,319.96A5,5 0 1 1 995.46,319.96A5,5 0 1 1 1005.5,319.96Z" style="fill:#FF7AB4" />
<path d="M1030.3,278.57A5,5 0 1 1 1020.3,278.57A5,5 0 1 1 1030.3,278.57Z" style="fill:#FF7AB4" />
<path d="M1055.2,206.44A5,5 0 1 1 1045.2,206.44A5,5 0 1 1 1055.2,206.44Z" style="fill:#FF7AB4" />
<path d="M1080,135.04A5,5 0 1 1 1070,135.04A5,5 0 1 1 1080,135.04Z" style="fill:#FF7AB4" />
<path d="M155.67,974.14L1075,974.14" style="fill:none;stroke:#000000" />
<path d="M1075,108.82L1075,974.14" style="fill:none;stroke:#000000" />
<path d="M1038,942.02A8,8 0 1 1 1022,942.02A8,8 0 1 1 1038,942.02Z" style="fill:#FF7AB4" />
</g>
</svg>
