<?xml version="1.0"?>
<!-- Generated by SVGo and Plotinum VG -->
<svg width="1080pt" height="1080pt" viewBox="0 0 1080 1080"
	xmlns="http://www.w3.org/2000/svg"
	xmlns:xlink="http://www.w3.org/1999/xlink">
<g transform="scale(1, -1) translate(0, -1080)">
<path d="M0,0L1080,0L1080,1080L0,1080Z" style="fill:#-8000000000000000-8000000000000000-8000000000000000;fill-opacity:0" />
<text x="319.11" y="-1039.5" transform="scale(1, -1)"
	style="font-family:Helvetica;font-weight:normal;font-style:normal;font-size:50px">1 cm UHNA3 CABS</text>
<text x="487.31" y="-11.039" transform="scale(1, -1)"
	style="font-family:Helvetica;font-weight:normal;font-style:normal;font-size:36px">Frequency (GHz)</text>
<text x="215.96" y="-71.258" transform="scale(1, -1)"
	style="font-family:Helvetica;font-weight:normal;font-style:normal;font-size:36px">9.03</text>
<text x="379.69" y="-71.258" transform="scale(1, -1)"
	style="font-family:Helvetica;font-weight:normal;font-style:normal;font-size:36px">9.07</text>
<text x="543.43" y="-71.258" transform="scale(1, -1)"
	style="font-family:Helvetica;font-weight:normal;font-style:normal;font-size:36px">9.12</text>
<text x="707.16" y="-71.258" transform="scale(1, -1)"
	style="font-family:Helvetica;font-weight:normal;font-style:normal;font-size:36px">9.18</text>
<text x="870.9" y="-71.258" transform="scale(1, -1)"
	style="font-family:Helvetica;font-weight:normal;font-style:normal;font-size:36px">9.22</text>
<path d="M250.99,116.44L250.99,108.44" style="fill:none;stroke:#000000;stroke-width:1.5" />
<path d="M332.86,112.44L332.86,108.44" style="fill:none;stroke:#000000;stroke-width:1.5" />
<path d="M414.73,116.44L414.73,108.44" style="fill:none;stroke:#000000;stroke-width:1.5" />
<path d="M496.59,112.44L496.59,108.44" style="fill:none;stroke:#000000;stroke-width:1.5" />
<path d="M578.46,116.44L578.46,108.44" style="fill:none;stroke:#000000;stroke-width:1.5" />
<path d="M660.33,112.44L660.33,108.44" style="fill:none;stroke:#000000;stroke-width:1.5" />
<path d="M742.19,116.44L742.19,108.44" style="fill:none;stroke:#000000;stroke-width:1.5" />
<path d="M824.06,112.44L824.06,108.44" style="fill:none;stroke:#000000;stroke-width:1.5" />
<path d="M905.93,116.44L905.93,108.44" style="fill:none;stroke:#000000;stroke-width:1.5" />
<path d="M987.8,112.44L987.8,108.44" style="fill:none;stroke:#000000;stroke-width:1.5" />
<path d="M175.69,108.44L1075,108.44" style="fill:none;stroke:#000000;stroke-width:1.5" />
<g transform="rotate(90)">
<text x="304.44" y="29.18" transform="scale(1, -1)"
	style="font-family:Helvetica;font-weight:normal;font-style:normal;font-size:36px">Normalized by Powers (V/W³)</text>
</g>
<text x="87.869" y="-207.91" transform="scale(1, -1)"
	style="font-family:Helvetica;font-weight:normal;font-style:normal;font-size:36px">8.48</text>
<text x="67.848" y="-424.24" transform="scale(1, -1)"
	style="font-family:Helvetica;font-weight:normal;font-style:normal;font-size:36px">22.91</text>
<text x="67.848" y="-640.57" transform="scale(1, -1)"
	style="font-family:Helvetica;font-weight:normal;font-style:normal;font-size:36px">37.34</text>
<text x="67.848" y="-856.9" transform="scale(1, -1)"
	style="font-family:Helvetica;font-weight:normal;font-style:normal;font-size:36px">51.77</text>
<path d="M179.94,108.82L175.94,108.82" style="fill:none;stroke:#000000;stroke-width:1.5" />
<path d="M183.94,216.98L175.94,216.98" style="fill:none;stroke:#000000;stroke-width:1.5" />
<path d="M179.94,325.15L175.94,325.15" style="fill:none;stroke:#000000;stroke-width:1.5" />
<path d="M183.94,433.31L175.94,433.31" style="fill:none;stroke:#000000;stroke-width:1.5" />
<path d="M179.94,541.48L175.94,541.48" style="fill:none;stroke:#000000;stroke-width:1.5" />
<path d="M183.94,649.64L175.94,649.64" style="fill:none;stroke:#000000;stroke-width:1.5" />
<path d="M179.94,757.81L175.94,757.81" style="fill:none;stroke:#000000;stroke-width:1.5" />
<path d="M183.94,865.98L175.94,865.98" style="fill:none;stroke:#000000;stroke-width:1.5" />
<path d="M179.94,974.14L175.94,974.14" style="fill:none;stroke:#000000;stroke-width:1.5" />
<path d="M179.94,974.14L175.94,974.14" style="fill:none;stroke:#000000;stroke-width:1.5" />
<path d="M175.94,108.82L175.94,974.14" style="fill:none;stroke:#000000;stroke-width:1.5" />
<path d="M175.69,164.78L175.69,166.1" style="fill:none;stroke:#1FD3AC" />
<path d="M173.19,164.78L178.19,164.78" style="fill:none;stroke:#1FD3AC" />
<path d="M173.19,166.1L178.19,166.1" style="fill:none;stroke:#1FD3AC" />
<path d="M182.25,166.44L182.25,167.61" style="fill:none;stroke:#1FD3AC" />
<path d="M179.75,166.44L184.75,166.44" style="fill:none;stroke:#1FD3AC" />
<path d="M179.75,167.61L184.75,167.61" style="fill:none;stroke:#1FD3AC" />
<path d="M188.82,167.37L188.82,169.28" style="fill:none;stroke:#1FD3AC" />
<path d="M186.32,167.37L191.32,167.37" style="fill:none;stroke:#1FD3AC" />
<path d="M186.32,169.28L191.32,169.28" style="fill:none;stroke:#1FD3AC" />
<path d="M195.38,170.65L195.38,172.47" style="fill:none;stroke:#1FD3AC" />
<path d="M192.88,170.65L197.88,170.65" style="fill:none;stroke:#1FD3AC" />
<path d="M192.88,172.47L197.88,172.47" style="fill:none;stroke:#1FD3AC" />
<path d="M201.94,172.01L201.94,173.56" style="fill:none;stroke:#1FD3AC" />
<path d="M199.44,172.01L204.44,172.01" style="fill:none;stroke:#1FD3AC" />
<path d="M199.44,173.56L204.44,173.56" style="fill:none;stroke:#1FD3AC" />
<path d="M208.51,174.18L208.51,175.7" style="fill:none;stroke:#1FD3AC" />
<path d="M206.01,174.18L211.01,174.18" style="fill:none;stroke:#1FD3AC" />
<path d="M206.01,175.7L211.01,175.7" style="fill:none;stroke:#1FD3AC" />
<path d="M215.07,175.93L215.07,177.62" style="fill:none;stroke:#1FD3AC" />
<path d="M212.57,175.93L217.57,175.93" style="fill:none;stroke:#1FD3AC" />
<path d="M212.57,177.62L217.57,177.62" style="fill:none;stroke:#1FD3AC" />
<path d="M221.64,179.33L221.64,180.9" style="fill:none;stroke:#1FD3AC" />
<path d="M219.14,179.33L224.14,179.33" style="fill:none;stroke:#1FD3AC" />
<path d="M219.14,180.9L224.14,180.9" style="fill:none;stroke:#1FD3AC" />
<path d="M228.2,180.52L228.2,182.51" style="fill:none;stroke:#1FD3AC" />
<path d="M225.7,180.52L230.7,180.52" style="fill:none;stroke:#1FD3AC" />
<path d="M225.7,182.51L230.7,182.51" style="fill:none;stroke:#1FD3AC" />
<path d="M234.77,184.52L234.77,186.06" style="fill:none;stroke:#1FD3AC" />
<path d="M232.27,184.52L237.27,184.52" style="fill:none;stroke:#1FD3AC" />
<path d="M232.27,186.06L237.27,186.06" style="fill:none;stroke:#1FD3AC" />
<path d="M241.33,187.07L241.33,189.25" style="fill:none;stroke:#1FD3AC" />
<path d="M238.83,187.07L243.83,187.07" style="fill:none;stroke:#1FD3AC" />
<path d="M238.83,189.25L243.83,189.25" style="fill:none;stroke:#1FD3AC" />
<path d="M247.9,188.26L247.9,190.74" style="fill:none;stroke:#1FD3AC" />
<path d="M245.4,188.26L250.4,188.26" style="fill:none;stroke:#1FD3AC" />
<path d="M245.4,190.74L250.4,190.74" style="fill:none;stroke:#1FD3AC" />
<path d="M254.46,192.3L254.46,193.9" style="fill:none;stroke:#1FD3AC" />
<path d="M251.96,192.3L256.96,192.3" style="fill:none;stroke:#1FD3AC" />
<path d="M251.96,193.9L256.96,193.9" style="fill:none;stroke:#1FD3AC" />
<path d="M261.02,196.31L261.02,197.79" style="fill:none;stroke:#1FD3AC" />
<path d="M258.52,196.31L263.52,196.31" style="fill:none;stroke:#1FD3AC" />
<path d="M258.52,197.79L263.52,197.79" style="fill:none;stroke:#1FD3AC" />
<path d="M267.59,198.45L267.59,200.28" style="fill:none;stroke:#1FD3AC" />
<path d="M265.09,198.45L270.09,198.45" style="fill:none;stroke:#1FD3AC" />
<path d="M265.09,200.28L270.09,200.28" style="fill:none;stroke:#1FD3AC" />
<path d="M274.15,202.41L274.15,203.89" style="fill:none;stroke:#1FD3AC" />
<path d="M271.65,202.41L276.65,202.41" style="fill:none;stroke:#1FD3AC" />
<path d="M271.65,203.89L276.65,203.89" style="fill:none;stroke:#1FD3AC" />
<path d="M280.72,205.72L280.72,206.57" style="fill:none;stroke:#1FD3AC" />
<path d="M278.22,205.72L283.22,205.72" style="fill:none;stroke:#1FD3AC" />
<path d="M278.22,206.57L283.22,206.57" style="fill:none;stroke:#1FD3AC" />
<path d="M287.28,208.98L287.28,211.16" style="fill:none;stroke:#1FD3AC" />
<path d="M284.78,208.98L289.78,208.98" style="fill:none;stroke:#1FD3AC" />
<path d="M284.78,211.16L289.78,211.16" style="fill:none;stroke:#1FD3AC" />
<path d="M293.85,213.61L293.85,214.34" style="fill:none;stroke:#1FD3AC" />
<path d="M291.35,213.61L296.35,213.61" style="fill:none;stroke:#1FD3AC" />
<path d="M291.35,214.34L296.35,214.34" style="fill:none;stroke:#1FD3AC" />
<path d="M300.41,217.23L300.41,217.85" style="fill:none;stroke:#1FD3AC" />
<path d="M297.91,217.23L302.91,217.23" style="fill:none;stroke:#1FD3AC" />
<path d="M297.91,217.85L302.91,217.85" style="fill:none;stroke:#1FD3AC" />
<path d="M306.97,220.8L306.97,222.13" style="fill:none;stroke:#1FD3AC" />
<path d="M304.47,220.8L309.47,220.8" style="fill:none;stroke:#1FD3AC" />
<path d="M304.47,222.13L309.47,222.13" style="fill:none;stroke:#1FD3AC" />
<path d="M313.54,225.04L313.54,226.37" style="fill:none;stroke:#1FD3AC" />
<path d="M311.04,225.04L316.04,225.04" style="fill:none;stroke:#1FD3AC" />
<path d="M311.04,226.37L316.04,226.37" style="fill:none;stroke:#1FD3AC" />
<path d="M320.1,229.12L320.1,230.02" style="fill:none;stroke:#1FD3AC" />
<path d="M317.6,229.12L322.6,229.12" style="fill:none;stroke:#1FD3AC" />
<path d="M317.6,230.02L322.6,230.02" style="fill:none;stroke:#1FD3AC" />
<path d="M326.67,235.24L326.67,236.61" style="fill:none;stroke:#1FD3AC" />
<path d="M324.17,235.24L329.17,235.24" style="fill:none;stroke:#1FD3AC" />
<path d="M324.17,236.61L329.17,236.61" style="fill:none;stroke:#1FD3AC" />
<path d="M333.23,238.41L333.23,240.15" style="fill:none;stroke:#1FD3AC" />
<path d="M330.73,238.41L335.73,238.41" style="fill:none;stroke:#1FD3AC" />
<path d="M330.73,240.15L335.73,240.15" style="fill:none;stroke:#1FD3AC" />
<path d="M339.8,241.33L339.8,244.78" style="fill:none;stroke:#1FD3AC" />
<path d="M337.3,241.33L342.3,241.33" style="fill:none;stroke:#1FD3AC" />
<path d="M337.3,244.78L342.3,244.78" style="fill:none;stroke:#1FD3AC" />
<path d="M346.36,247.32L346.36,249.86" style="fill:none;stroke:#1FD3AC" />
<path d="M343.86,247.32L348.86,247.32" style="fill:none;stroke:#1FD3AC" />
<path d="M343.86,249.86L348.86,249.86" style="fill:none;stroke:#1FD3AC" />
<path d="M352.92,251.81L352.92,255.66" style="fill:none;stroke:#1FD3AC" />
<path d="M350.42,251.81L355.42,251.81" style="fill:none;stroke:#1FD3AC" />
<path d="M350.42,255.66L355.42,255.66" style="fill:none;stroke:#1FD3AC" />
<path d="M359.49,256.66L359.49,261.38" style="fill:none;stroke:#1FD3AC" />
<path d="M356.99,256.66L361.99,256.66" style="fill:none;stroke:#1FD3AC" />
<path d="M356.99,261.38L361.99,261.38" style="fill:none;stroke:#1FD3AC" />
<path d="M366.05,261.86L366.05,268.12" style="fill:none;stroke:#1FD3AC" />
<path d="M363.55,261.86L368.55,261.86" style="fill:none;stroke:#1FD3AC" />
<path d="M363.55,268.12L368.55,268.12" style="fill:none;stroke:#1FD3AC" />
<path d="M372.62,267.31L372.62,271.74" style="fill:none;stroke:#1FD3AC" />
<path d="M370.12,267.31L375.12,267.31" style="fill:none;stroke:#1FD3AC" />
<path d="M370.12,271.74L375.12,271.74" style="fill:none;stroke:#1FD3AC" />
<path d="M379.18,274.17L379.18,278.56" style="fill:none;stroke:#1FD3AC" />
<path d="M376.68,274.17L381.68,274.17" style="fill:none;stroke:#1FD3AC" />
<path d="M376.68,278.56L381.68,278.56" style="fill:none;stroke:#1FD3AC" />
<path d="M385.75,279.55L385.75,284.52" style="fill:none;stroke:#1FD3AC" />
<path d="M383.25,279.55L388.25,279.55" style="fill:none;stroke:#1FD3AC" />
<path d="M383.25,284.52L388.25,284.52" style="fill:none;stroke:#1FD3AC" />
<path d="M392.31,286.33L392.31,290.72" style="fill:none;stroke:#1FD3AC" />
<path d="M389.81,286.33L394.81,286.33" style="fill:none;stroke:#1FD3AC" />
<path d="M389.81,290.72L394.81,290.72" style="fill:none;stroke:#1FD3AC" />
<path d="M398.87,292.6L398.87,296.84" style="fill:none;stroke:#1FD3AC" />
<path d="M396.37,292.6L401.37,292.6" style="fill:none;stroke:#1FD3AC" />
<path d="M396.37,296.84L401.37,296.84" style="fill:none;stroke:#1FD3AC" />
<path d="M405.44,299.76L405.44,303.36" style="fill:none;stroke:#1FD3AC" />
<path d="M402.94,299.76L407.94,299.76" style="fill:none;stroke:#1FD3AC" />
<path d="M402.94,303.36L407.94,303.36" style="fill:none;stroke:#1FD3AC" />
<path d="M412,304.8L412,309.98" style="fill:none;stroke:#1FD3AC" />
<path d="M409.5,304.8L414.5,304.8" style="fill:none;stroke:#1FD3AC" />
<path d="M409.5,309.98L414.5,309.98" style="fill:none;stroke:#1FD3AC" />
<path d="M418.57,314.22L418.57,318.66" style="fill:none;stroke:#1FD3AC" />
<path d="M416.07,314.22L421.07,314.22" style="fill:none;stroke:#1FD3AC" />
<path d="M416.07,318.66L421.07,318.66" style="fill:none;stroke:#1FD3AC" />
<path d="M425.13,322.15L425.13,325.82" style="fill:none;stroke:#1FD3AC" />
<path d="M422.63,322.15L427.63,322.15" style="fill:none;stroke:#1FD3AC" />
<path d="M422.63,325.82L427.63,325.82" style="fill:none;stroke:#1FD3AC" />
<path d="M431.7,331.38L431.7,334.02" style="fill:none;stroke:#1FD3AC" />
<path d="M429.2,331.38L434.2,331.38" style="fill:none;stroke:#1FD3AC" />
<path d="M429.2,334.02L434.2,334.02" style="fill:none;stroke:#1FD3AC" />
<path d="M438.26,339.03L438.26,342.77" style="fill:none;stroke:#1FD3AC" />
<path d="M435.76,339.03L440.76,339.03" style="fill:none;stroke:#1FD3AC" />
<path d="M435.76,342.77L440.76,342.77" style="fill:none;stroke:#1FD3AC" />
<path d="M444.82,347.77L444.82,350.72" style="fill:none;stroke:#1FD3AC" />
<path d="M442.32,347.77L447.32,347.77" style="fill:none;stroke:#1FD3AC" />
<path d="M442.32,350.72L447.32,350.72" style="fill:none;stroke:#1FD3AC" />
<path d="M451.39,357.85L451.39,360.64" style="fill:none;stroke:#1FD3AC" />
<path d="M448.89,357.85L453.89,357.85" style="fill:none;stroke:#1FD3AC" />
<path d="M448.89,360.64L453.89,360.64" style="fill:none;stroke:#1FD3AC" />
<path d="M457.95,367.56L457.95,370.66" style="fill:none;stroke:#1FD3AC" />
<path d="M455.45,367.56L460.45,367.56" style="fill:none;stroke:#1FD3AC" />
<path d="M455.45,370.66L460.45,370.66" style="fill:none;stroke:#1FD3AC" />
<path d="M464.52,378.2L464.52,381.18" style="fill:none;stroke:#1FD3AC" />
<path d="M462.02,378.2L467.02,378.2" style="fill:none;stroke:#1FD3AC" />
<path d="M462.02,381.18L467.02,381.18" style="fill:none;stroke:#1FD3AC" />
<path d="M471.08,389.44L471.08,393.58" style="fill:none;stroke:#1FD3AC" />
<path d="M468.58,389.44L473.58,389.44" style="fill:none;stroke:#1FD3AC" />
<path d="M468.58,393.58L473.58,393.58" style="fill:none;stroke:#1FD3AC" />
<path d="M477.65,399.23L477.65,403.63" style="fill:none;stroke:#1FD3AC" />
<path d="M475.15,399.23L480.15,399.23" style="fill:none;stroke:#1FD3AC" />
<path d="M475.15,403.63L480.15,403.63" style="fill:none;stroke:#1FD3AC" />
<path d="M484.21,410.31L484.21,415.5" style="fill:none;stroke:#1FD3AC" />
<path d="M481.71,410.31L486.71,410.31" style="fill:none;stroke:#1FD3AC" />
<path d="M481.71,415.5L486.71,415.5" style="fill:none;stroke:#1FD3AC" />
<path d="M490.78,424.83L490.78,428.29" style="fill:none;stroke:#1FD3AC" />
<path d="M488.28,424.83L493.28,424.83" style="fill:none;stroke:#1FD3AC" />
<path d="M488.28,428.29L493.28,428.29" style="fill:none;stroke:#1FD3AC" />
<path d="M497.34,438.73L497.34,441.92" style="fill:none;stroke:#1FD3AC" />
<path d="M494.84,438.73L499.84,438.73" style="fill:none;stroke:#1FD3AC" />
<path d="M494.84,441.92L499.84,441.92" style="fill:none;stroke:#1FD3AC" />
<path d="M503.9,451.3L503.9,456.66" style="fill:none;stroke:#1FD3AC" />
<path d="M501.4,451.3L506.4,451.3" style="fill:none;stroke:#1FD3AC" />
<path d="M501.4,456.66L506.4,456.66" style="fill:none;stroke:#1FD3AC" />
<path d="M510.47,467.96L510.47,472.6" style="fill:none;stroke:#1FD3AC" />
<path d="M507.97,467.96L512.97,467.96" style="fill:none;stroke:#1FD3AC" />
<path d="M507.97,472.6L512.97,472.6" style="fill:none;stroke:#1FD3AC" />
<path d="M517.03,480.29L517.03,486.47" style="fill:none;stroke:#1FD3AC" />
<path d="M514.53,480.29L519.53,480.29" style="fill:none;stroke:#1FD3AC" />
<path d="M514.53,486.47L519.53,486.47" style="fill:none;stroke:#1FD3AC" />
<path d="M523.6,496.29L523.6,503.46" style="fill:none;stroke:#1FD3AC" />
<path d="M521.1,496.29L526.1,496.29" style="fill:none;stroke:#1FD3AC" />
<path d="M521.1,503.46L526.1,503.46" style="fill:none;stroke:#1FD3AC" />
<path d="M530.16,514.43L530.16,523.4" style="fill:none;stroke:#1FD3AC" />
<path d="M527.66,514.43L532.66,514.43" style="fill:none;stroke:#1FD3AC" />
<path d="M527.66,523.4L532.66,523.4" style="fill:none;stroke:#1FD3AC" />
<path d="M536.73,530.62L536.73,537.61" style="fill:none;stroke:#1FD3AC" />
<path d="M534.23,530.62L539.23,530.62" style="fill:none;stroke:#1FD3AC" />
<path d="M534.23,537.61L539.23,537.61" style="fill:none;stroke:#1FD3AC" />
<path d="M543.29,545.45L543.29,551.3" style="fill:none;stroke:#1FD3AC" />
<path d="M540.79,545.45L545.79,545.45" style="fill:none;stroke:#1FD3AC" />
<path d="M540.79,551.3L545.79,551.3" style="fill:none;stroke:#1FD3AC" />
<path d="M549.85,563.46L549.85,568.5" style="fill:none;stroke:#1FD3AC" />
<path d="M547.35,563.46L552.35,563.46" style="fill:none;stroke:#1FD3AC" />
<path d="M547.35,568.5L552.35,568.5" style="fill:none;stroke:#1FD3AC" />
<path d="M556.42,586.99L556.42,590.23" style="fill:none;stroke:#1FD3AC" />
<path d="M553.92,586.99L558.92,586.99" style="fill:none;stroke:#1FD3AC" />
<path d="M553.92,590.23L558.92,590.23" style="fill:none;stroke:#1FD3AC" />
<path d="M562.98,605.6L562.98,612.61" style="fill:none;stroke:#1FD3AC" />
<path d="M560.48,605.6L565.48,605.6" style="fill:none;stroke:#1FD3AC" />
<path d="M560.48,612.61L565.48,612.61" style="fill:none;stroke:#1FD3AC" />
<path d="M569.55,626.64L569.55,633.23" style="fill:none;stroke:#1FD3AC" />
<path d="M567.05,626.64L572.05,626.64" style="fill:none;stroke:#1FD3AC" />
<path d="M567.05,633.23L572.05,633.23" style="fill:none;stroke:#1FD3AC" />
<path d="M576.11,644.58L576.11,652.72" style="fill:none;stroke:#1FD3AC" />
<path d="M573.61,644.58L578.61,644.58" style="fill:none;stroke:#1FD3AC" />
<path d="M573.61,652.72L578.61,652.72" style="fill:none;stroke:#1FD3AC" />
<path d="M582.68,661.97L582.68,668.89" style="fill:none;stroke:#1FD3AC" />
<path d="M580.18,661.97L585.18,661.97" style="fill:none;stroke:#1FD3AC" />
<path d="M580.18,668.89L585.18,668.89" style="fill:none;stroke:#1FD3AC" />
<path d="M589.24,689.61L589.24,695.57" style="fill:none;stroke:#1FD3AC" />
<path d="M586.74,689.61L591.74,689.61" style="fill:none;stroke:#1FD3AC" />
<path d="M586.74,695.57L591.74,695.57" style="fill:none;stroke:#1FD3AC" />
<path d="M595.8,704.48L595.8,712.29" style="fill:none;stroke:#1FD3AC" />
<path d="M593.3,704.48L598.3,704.48" style="fill:none;stroke:#1FD3AC" />
<path d="M593.3,712.29L598.3,712.29" style="fill:none;stroke:#1FD3AC" />
<path d="M602.37,721.84L602.37,730.68" style="fill:none;stroke:#1FD3AC" />
<path d="M599.87,721.84L604.87,721.84" style="fill:none;stroke:#1FD3AC" />
<path d="M599.87,730.68L604.87,730.68" style="fill:none;stroke:#1FD3AC" />
<path d="M608.93,744.02L608.93,750.84" style="fill:none;stroke:#1FD3AC" />
<path d="M606.43,744.02L611.43,744.02" style="fill:none;stroke:#1FD3AC" />
<path d="M606.43,750.84L611.43,750.84" style="fill:none;stroke:#1FD3AC" />
<path d="M615.5,760.3L615.5,767.91" style="fill:none;stroke:#1FD3AC" />
<path d="M613,760.3L618,760.3" style="fill:none;stroke:#1FD3AC" />
<path d="M613,767.91L618,767.91" style="fill:none;stroke:#1FD3AC" />
<path d="M622.06,775.77L622.06,782.52" style="fill:none;stroke:#1FD3AC" />
<path d="M619.56,775.77L624.56,775.77" style="fill:none;stroke:#1FD3AC" />
<path d="M619.56,782.52L624.56,782.52" style="fill:none;stroke:#1FD3AC" />
<path d="M628.63,783.88L628.63,789.96" style="fill:none;stroke:#1FD3AC" />
<path d="M626.13,783.88L631.13,783.88" style="fill:none;stroke:#1FD3AC" />
<path d="M626.13,789.96L631.13,789.96" style="fill:none;stroke:#1FD3AC" />
<path d="M635.19,796.44L635.19,801.13" style="fill:none;stroke:#1FD3AC" />
<path d="M632.69,796.44L637.69,796.44" style="fill:none;stroke:#1FD3AC" />
<path d="M632.69,801.13L637.69,801.13" style="fill:none;stroke:#1FD3AC" />
<path d="M641.75,798.96L641.75,807.34" style="fill:none;stroke:#1FD3AC" />
<path d="M639.25,798.96L644.25,798.96" style="fill:none;stroke:#1FD3AC" />
<path d="M639.25,807.34L644.25,807.34" style="fill:none;stroke:#1FD3AC" />
<path d="M648.32,800.45L648.32,804.47" style="fill:none;stroke:#1FD3AC" />
<path d="M645.82,800.45L650.82,800.45" style="fill:none;stroke:#1FD3AC" />
<path d="M645.82,804.47L650.82,804.47" style="fill:none;stroke:#1FD3AC" />
<path d="M654.88,796.74L654.88,802.72" style="fill:none;stroke:#1FD3AC" />
<path d="M652.38,796.74L657.38,796.74" style="fill:none;stroke:#1FD3AC" />
<path d="M652.38,802.72L657.38,802.72" style="fill:none;stroke:#1FD3AC" />
<path d="M661.45,780.93L661.45,790.36" style="fill:none;stroke:#1FD3AC" />
<path d="M658.95,780.93L663.95,780.93" style="fill:none;stroke:#1FD3AC" />
<path d="M658.95,790.36L663.95,790.36" style="fill:none;stroke:#1FD3AC" />
<path d="M668.01,768.59L668.01,775.65" style="fill:none;stroke:#1FD3AC" />
<path d="M665.51,768.59L670.51,768.59" style="fill:none;stroke:#1FD3AC" />
<path d="M665.51,775.65L670.51,775.65" style="fill:none;stroke:#1FD3AC" />
<path d="M674.58,755.1L674.58,759.41" style="fill:none;stroke:#1FD3AC" />
<path d="M672.08,755.1L677.08,755.1" style="fill:none;stroke:#1FD3AC" />
<path d="M672.08,759.41L677.08,759.41" style="fill:none;stroke:#1FD3AC" />
<path d="M681.14,732.51L681.14,737.48" style="fill:none;stroke:#1FD3AC" />
<path d="M678.64,732.51L683.64,732.51" style="fill:none;stroke:#1FD3AC" />
<path d="M678.64,737.48L683.64,737.48" style="fill:none;stroke:#1FD3AC" />
<path d="M687.7,706.69L687.7,715.02" style="fill:none;stroke:#1FD3AC" />
<path d="M685.2,706.69L690.2,706.69" style="fill:none;stroke:#1FD3AC" />
<path d="M685.2,715.02L690.2,715.02" style="fill:none;stroke:#1FD3AC" />
<path d="M694.27,688L694.27,695.71" style="fill:none;stroke:#1FD3AC" />
<path d="M691.77,688L696.77,688" style="fill:none;stroke:#1FD3AC" />
<path d="M691.77,695.71L696.77,695.71" style="fill:none;stroke:#1FD3AC" />
<path d="M700.83,661.39L700.83,668.48" style="fill:none;stroke:#1FD3AC" />
<path d="M698.33,661.39L703.33,661.39" style="fill:none;stroke:#1FD3AC" />
<path d="M698.33,668.48L703.33,668.48" style="fill:none;stroke:#1FD3AC" />
<path d="M707.4,632.79L707.4,642.53" style="fill:none;stroke:#1FD3AC" />
<path d="M704.9,632.79L709.9,632.79" style="fill:none;stroke:#1FD3AC" />
<path d="M704.9,642.53L709.9,642.53" style="fill:none;stroke:#1FD3AC" />
<path d="M713.96,606.38L713.96,614.81" style="fill:none;stroke:#1FD3AC" />
<path d="M711.46,606.38L716.46,606.38" style="fill:none;stroke:#1FD3AC" />
<path d="M711.46,614.81L716.46,614.81" style="fill:none;stroke:#1FD3AC" />
<path d="M720.53,583.9L720.53,589.23" style="fill:none;stroke:#1FD3AC" />
<path d="M718.03,583.9L723.03,583.9" style="fill:none;stroke:#1FD3AC" />
<path d="M718.03,589.23L723.03,589.23" style="fill:none;stroke:#1FD3AC" />
<path d="M727.09,560.17L727.09,568.9" style="fill:none;stroke:#1FD3AC" />
<path d="M724.59,560.17L729.59,560.17" style="fill:none;stroke:#1FD3AC" />
<path d="M724.59,568.9L729.59,568.9" style="fill:none;stroke:#1FD3AC" />
<path d="M733.66,536.84L733.66,543.51" style="fill:none;stroke:#1FD3AC" />
<path d="M731.16,536.84L736.16,536.84" style="fill:none;stroke:#1FD3AC" />
<path d="M731.16,543.51L736.16,543.51" style="fill:none;stroke:#1FD3AC" />
<path d="M740.22,514.68L740.22,522.12" style="fill:none;stroke:#1FD3AC" />
<path d="M737.72,514.68L742.72,514.68" style="fill:none;stroke:#1FD3AC" />
<path d="M737.72,522.12L742.72,522.12" style="fill:none;stroke:#1FD3AC" />
<path d="M746.78,494.53L746.78,499.33" style="fill:none;stroke:#1FD3AC" />
<path d="M744.28,494.53L749.28,494.53" style="fill:none;stroke:#1FD3AC" />
<path d="M744.28,499.33L749.28,499.33" style="fill:none;stroke:#1FD3AC" />
<path d="M753.35,475.33L753.35,482.04" style="fill:none;stroke:#1FD3AC" />
<path d="M750.85,475.33L755.85,475.33" style="fill:none;stroke:#1FD3AC" />
<path d="M750.85,482.04L755.85,482.04" style="fill:none;stroke:#1FD3AC" />
<path d="M759.91,455.99L759.91,461.44" style="fill:none;stroke:#1FD3AC" />
<path d="M757.41,455.99L762.41,455.99" style="fill:none;stroke:#1FD3AC" />
<path d="M757.41,461.44L762.41,461.44" style="fill:none;stroke:#1FD3AC" />
<path d="M766.48,437.04L766.48,444.35" style="fill:none;stroke:#1FD3AC" />
<path d="M763.98,437.04L768.98,437.04" style="fill:none;stroke:#1FD3AC" />
<path d="M763.98,444.35L768.98,444.35" style="fill:none;stroke:#1FD3AC" />
<path d="M773.04,419.14L773.04,425.89" style="fill:none;stroke:#1FD3AC" />
<path d="M770.54,419.14L775.54,419.14" style="fill:none;stroke:#1FD3AC" />
<path d="M770.54,425.89L775.54,425.89" style="fill:none;stroke:#1FD3AC" />
<path d="M779.61,403.87L779.61,408.55" style="fill:none;stroke:#1FD3AC" />
<path d="M777.11,403.87L782.11,403.87" style="fill:none;stroke:#1FD3AC" />
<path d="M777.11,408.55L782.11,408.55" style="fill:none;stroke:#1FD3AC" />
<path d="M786.17,389.99L786.17,392.77" style="fill:none;stroke:#1FD3AC" />
<path d="M783.67,389.99L788.67,389.99" style="fill:none;stroke:#1FD3AC" />
<path d="M783.67,392.77L788.67,392.77" style="fill:none;stroke:#1FD3AC" />
<path d="M792.73,375.06L792.73,378.05" style="fill:none;stroke:#1FD3AC" />
<path d="M790.23,375.06L795.23,375.06" style="fill:none;stroke:#1FD3AC" />
<path d="M790.23,378.05L795.23,378.05" style="fill:none;stroke:#1FD3AC" />
<path d="M799.3,361.12L799.3,364.62" style="fill:none;stroke:#1FD3AC" />
<path d="M796.8,361.12L801.8,361.12" style="fill:none;stroke:#1FD3AC" />
<path d="M796.8,364.62L801.8,364.62" style="fill:none;stroke:#1FD3AC" />
<path d="M805.86,350.19L805.86,354.7" style="fill:none;stroke:#1FD3AC" />
<path d="M803.36,350.19L808.36,350.19" style="fill:none;stroke:#1FD3AC" />
<path d="M803.36,354.7L808.36,354.7" style="fill:none;stroke:#1FD3AC" />
<path d="M812.43,335.54L812.43,339.95" style="fill:none;stroke:#1FD3AC" />
<path d="M809.93,335.54L814.93,335.54" style="fill:none;stroke:#1FD3AC" />
<path d="M809.93,339.95L814.93,339.95" style="fill:none;stroke:#1FD3AC" />
<path d="M818.99,326.19L818.99,327.58" style="fill:none;stroke:#1FD3AC" />
<path d="M816.49,326.19L821.49,326.19" style="fill:none;stroke:#1FD3AC" />
<path d="M816.49,327.58L821.49,327.58" style="fill:none;stroke:#1FD3AC" />
<path d="M825.56,316.11L825.56,318.07" style="fill:none;stroke:#1FD3AC" />
<path d="M823.06,316.11L828.06,316.11" style="fill:none;stroke:#1FD3AC" />
<path d="M823.06,318.07L828.06,318.07" style="fill:none;stroke:#1FD3AC" />
<path d="M832.12,306.53L832.12,307.28" style="fill:none;stroke:#1FD3AC" />
<path d="M829.62,306.53L834.62,306.53" style="fill:none;stroke:#1FD3AC" />
<path d="M829.62,307.28L834.62,307.28" style="fill:none;stroke:#1FD3AC" />
<path d="M838.68,294.89L838.68,297.88" style="fill:none;stroke:#1FD3AC" />
<path d="M836.18,294.89L841.18,294.89" style="fill:none;stroke:#1FD3AC" />
<path d="M836.18,297.88L841.18,297.88" style="fill:none;stroke:#1FD3AC" />
<path d="M845.25,286.31L845.25,289.65" style="fill:none;stroke:#1FD3AC" />
<path d="M842.75,286.31L847.75,286.31" style="fill:none;stroke:#1FD3AC" />
<path d="M842.75,289.65L847.75,289.65" style="fill:none;stroke:#1FD3AC" />
<path d="M851.81,278.79L851.81,282.09" style="fill:none;stroke:#1FD3AC" />
<path d="M849.31,278.79L854.31,278.79" style="fill:none;stroke:#1FD3AC" />
<path d="M849.31,282.09L854.31,282.09" style="fill:none;stroke:#1FD3AC" />
<path d="M858.38,272.15L858.38,274.92" style="fill:none;stroke:#1FD3AC" />
<path d="M855.88,272.15L860.88,272.15" style="fill:none;stroke:#1FD3AC" />
<path d="M855.88,274.92L860.88,274.92" style="fill:none;stroke:#1FD3AC" />
<path d="M864.94,264.15L864.94,267.25" style="fill:none;stroke:#1FD3AC" />
<path d="M862.44,264.15L867.44,264.15" style="fill:none;stroke:#1FD3AC" />
<path d="M862.44,267.25L867.44,267.25" style="fill:none;stroke:#1FD3AC" />
<path d="M871.51,255.37L871.51,258.13" style="fill:none;stroke:#1FD3AC" />
<path d="M869.01,255.37L874.01,255.37" style="fill:none;stroke:#1FD3AC" />
<path d="M869.01,258.13L874.01,258.13" style="fill:none;stroke:#1FD3AC" />
<path d="M878.07,248.5L878.07,251.32" style="fill:none;stroke:#1FD3AC" />
<path d="M875.57,248.5L880.57,248.5" style="fill:none;stroke:#1FD3AC" />
<path d="M875.57,251.32L880.57,251.32" style="fill:none;stroke:#1FD3AC" />
<path d="M884.63,243.5L884.63,245.15" style="fill:none;stroke:#1FD3AC" />
<path d="M882.13,243.5L887.13,243.5" style="fill:none;stroke:#1FD3AC" />
<path d="M882.13,245.15L887.13,245.15" style="fill:none;stroke:#1FD3AC" />
<path d="M891.2,236.77L891.2,239.17" style="fill:none;stroke:#1FD3AC" />
<path d="M888.7,236.77L893.7,236.77" style="fill:none;stroke:#1FD3AC" />
<path d="M888.7,239.17L893.7,239.17" style="fill:none;stroke:#1FD3AC" />
<path d="M897.76,230.7L897.76,232.84" style="fill:none;stroke:#1FD3AC" />
<path d="M895.26,230.7L900.26,230.7" style="fill:none;stroke:#1FD3AC" />
<path d="M895.26,232.84L900.26,232.84" style="fill:none;stroke:#1FD3AC" />
<path d="M904.33,226.1L904.33,227.91" style="fill:none;stroke:#1FD3AC" />
<path d="M901.83,226.1L906.83,226.1" style="fill:none;stroke:#1FD3AC" />
<path d="M901.83,227.91L906.83,227.91" style="fill:none;stroke:#1FD3AC" />
<path d="M910.89,220.08L910.89,221.68" style="fill:none;stroke:#1FD3AC" />
<path d="M908.39,220.08L913.39,220.08" style="fill:none;stroke:#1FD3AC" />
<path d="M908.39,221.68L913.39,221.68" style="fill:none;stroke:#1FD3AC" />
<path d="M917.46,214.91L917.46,216.14" style="fill:none;stroke:#1FD3AC" />
<path d="M914.96,214.91L919.96,214.91" style="fill:none;stroke:#1FD3AC" />
<path d="M914.96,216.14L919.96,216.14" style="fill:none;stroke:#1FD3AC" />
<path d="M924.02,210.77L924.02,212.53" style="fill:none;stroke:#1FD3AC" />
<path d="M921.52,210.77L926.52,210.77" style="fill:none;stroke:#1FD3AC" />
<path d="M921.52,212.53L926.52,212.53" style="fill:none;stroke:#1FD3AC" />
<path d="M930.58,205.24L930.58,207.15" style="fill:none;stroke:#1FD3AC" />
<path d="M928.08,205.24L933.08,205.24" style="fill:none;stroke:#1FD3AC" />
<path d="M928.08,207.15L933.08,207.15" style="fill:none;stroke:#1FD3AC" />
<path d="M937.15,201.8L937.15,203.43" style="fill:none;stroke:#1FD3AC" />
<path d="M934.65,201.8L939.65,201.8" style="fill:none;stroke:#1FD3AC" />
<path d="M934.65,203.43L939.65,203.43" style="fill:none;stroke:#1FD3AC" />
<path d="M943.71,197.24L943.71,199.08" style="fill:none;stroke:#1FD3AC" />
<path d="M941.21,197.24L946.21,197.24" style="fill:none;stroke:#1FD3AC" />
<path d="M941.21,199.08L946.21,199.08" style="fill:none;stroke:#1FD3AC" />
<path d="M950.28,194.38L950.28,195.19" style="fill:none;stroke:#1FD3AC" />
<path d="M947.78,194.38L952.78,194.38" style="fill:none;stroke:#1FD3AC" />
<path d="M947.78,195.19L952.78,195.19" style="fill:none;stroke:#1FD3AC" />
<path d="M956.84,191.32L956.84,192.59" style="fill:none;stroke:#1FD3AC" />
<path d="M954.34,191.32L959.34,191.32" style="fill:none;stroke:#1FD3AC" />
<path d="M954.34,192.59L959.34,192.59" style="fill:none;stroke:#1FD3AC" />
<path d="M963.41,187.8L963.41,189.28" style="fill:none;stroke:#1FD3AC" />
<path d="M960.91,187.8L965.91,187.8" style="fill:none;stroke:#1FD3AC" />
<path d="M960.91,189.28L965.91,189.28" style="fill:none;stroke:#1FD3AC" />
<path d="M969.97,184.37L969.97,185.46" style="fill:none;stroke:#1FD3AC" />
<path d="M967.47,184.37L972.47,184.37" style="fill:none;stroke:#1FD3AC" />
<path d="M967.47,185.46L972.47,185.46" style="fill:none;stroke:#1FD3AC" />
<path d="M976.54,180.98L976.54,182" style="fill:none;stroke:#1FD3AC" />
<path d="M974.04,180.98L979.04,180.98" style="fill:none;stroke:#1FD3AC" />
<path d="M974.04,182L979.04,182" style="fill:none;stroke:#1FD3AC" />
<path d="M983.1,176.84L983.1,177.57" style="fill:none;stroke:#1FD3AC" />
<path d="M980.6,176.84L985.6,176.84" style="fill:none;stroke:#1FD3AC" />
<path d="M980.6,177.57L985.6,177.57" style="fill:none;stroke:#1FD3AC" />
<path d="M989.66,174.63L989.66,176.22" style="fill:none;stroke:#1FD3AC" />
<path d="M987.16,174.63L992.16,174.63" style="fill:none;stroke:#1FD3AC" />
<path d="M987.16,176.22L992.16,176.22" style="fill:none;stroke:#1FD3AC" />
<path d="M996.23,171.5L996.23,172.65" style="fill:none;stroke:#1FD3AC" />
<path d="M993.73,171.5L998.73,171.5" style="fill:none;stroke:#1FD3AC" />
<path d="M993.73,172.65L998.73,172.65" style="fill:none;stroke:#1FD3AC" />
<path d="M1002.8,169.28L1002.8,169.99" style="fill:none;stroke:#1FD3AC" />
<path d="M1000.3,169.28L1005.3,169.28" style="fill:none;stroke:#1FD3AC" />
<path d="M1000.3,169.99L1005.3,169.99" style="fill:none;stroke:#1FD3AC" />
<path d="M1009.4,166.16L1009.4,167.37" style="fill:none;stroke:#1FD3AC" />
<path d="M1006.9,166.16L1011.9,166.16" style="fill:none;stroke:#1FD3AC" />
<path d="M1006.9,167.37L1011.9,167.37" style="fill:none;stroke:#1FD3AC" />
<path d="M1015.9,163.41L1015.9,164.8" style="fill:none;stroke:#1FD3AC" />
<path d="M1013.4,163.41L1018.4,163.41" style="fill:none;stroke:#1FD3AC" />
<path d="M1013.4,164.8L1018.4,164.8" style="fill:none;stroke:#1FD3AC" />
<path d="M1022.5,160.7L1022.5,162.24" style="fill:none;stroke:#1FD3AC" />
<path d="M1020,160.7L1025,160.7" style="fill:none;stroke:#1FD3AC" />
<path d="M1020,162.24L1025,162.24" style="fill:none;stroke:#1FD3AC" />
<path d="M1029,159.67L1029,160.89" style="fill:none;stroke:#1FD3AC" />
<path d="M1026.5,159.67L1031.5,159.67" style="fill:none;stroke:#1FD3AC" />
<path d="M1026.5,160.89L1031.5,160.89" style="fill:none;stroke:#1FD3AC" />
<path d="M1035.6,157.66L1035.6,159" style="fill:none;stroke:#1FD3AC" />
<path d="M1033.1,157.66L1038.1,157.66" style="fill:none;stroke:#1FD3AC" />
<path d="M1033.1,159L1038.1,159" style="fill:none;stroke:#1FD3AC" />
<path d="M1042.2,155.78L1042.2,157.23" style="fill:none;stroke:#1FD3AC" />
<path d="M1039.7,155.78L1044.7,155.78" style="fill:none;stroke:#1FD3AC" />
<path d="M1039.7,157.23L1044.7,157.23" style="fill:none;stroke:#1FD3AC" />
<path d="M1048.7,154.21L1048.7,155.27" style="fill:none;stroke:#1FD3AC" />
<path d="M1046.2,154.21L1051.2,154.21" style="fill:none;stroke:#1FD3AC" />
<path d="M1046.2,155.27L1051.2,155.27" style="fill:none;stroke:#1FD3AC" />
<path d="M1055.3,152.48L1055.3,153.63" style="fill:none;stroke:#1FD3AC" />
<path d="M1052.8,152.48L1057.8,152.48" style="fill:none;stroke:#1FD3AC" />
<path d="M1052.8,153.63L1057.8,153.63" style="fill:none;stroke:#1FD3AC" />
<path d="M1061.9,150.43L1061.9,151.8" style="fill:none;stroke:#1FD3AC" />
<path d="M1059.4,150.43L1064.4,150.43" style="fill:none;stroke:#1FD3AC" />
<path d="M1059.4,151.8L1064.4,151.8" style="fill:none;stroke:#1FD3AC" />
<path d="M1068.4,148.8L1068.4,150.39" style="fill:none;stroke:#1FD3AC" />
<path d="M1065.9,148.8L1070.9,148.8" style="fill:none;stroke:#1FD3AC" />
<path d="M1065.9,150.39L1070.9,150.39" style="fill:none;stroke:#1FD3AC" />
<path d="M1075,147.51L1075,148.57" style="fill:none;stroke:#1FD3AC" />
<path d="M1072.5,147.51L1077.5,147.51" style="fill:none;stroke:#1FD3AC" />
<path d="M1072.5,148.57L1077.5,148.57" style="fill:none;stroke:#1FD3AC" />
<path d="M180.69,165.44A5,5 0 1 1 170.69,165.44A5,5 0 1 1 180.69,165.44Z" style="fill:#1FD3AC" />
<path d="M187.25,167.02A5,5 0 1 1 177.25,167.02A5,5 0 1 1 187.25,167.02Z" style="fill:#1FD3AC" />
<path d="M193.82,168.33A5,5 0 1 1 183.82,168.33A5,5 0 1 1 193.82,168.33Z" style="fill:#1FD3AC" />
<path d="M200.38,171.56A5,5 0 1 1 190.38,171.56A5,5 0 1 1 200.38,171.56Z" style="fill:#1FD3AC" />
<path d="M206.94,172.78A5,5 0 1 1 196.94,172.78A5,5 0 1 1 206.94,172.78Z" style="fill:#1FD3AC" />
<path d="M213.51,174.94A5,5 0 1 1 203.51,174.94A5,5 0 1 1 213.51,174.94Z" style="fill:#1FD3AC" />
<path d="M220.07,176.77A5,5 0 1 1 210.07,176.77A5,5 0 1 1 220.07,176.77Z" style="fill:#1FD3AC" />
<path d="M226.64,180.12A5,5 0 1 1 216.64,180.12A5,5 0 1 1 226.64,180.12Z" style="fill:#1FD3AC" />
<path d="M233.2,181.52A5,5 0 1 1 223.2,181.52A5,5 0 1 1 233.2,181.52Z" style="fill:#1FD3AC" />
<path d="M239.77,185.29A5,5 0 1 1 229.77,185.29A5,5 0 1 1 239.77,185.29Z" style="fill:#1FD3AC" />
<path d="M246.33,188.16A5,5 0 1 1 236.33,188.16A5,5 0 1 1 246.33,188.16Z" style="fill:#1FD3AC" />
<path d="M252.9,189.5A5,5 0 1 1 242.9,189.5A5,5 0 1 1 252.9,189.5Z" style="fill:#1FD3AC" />
<path d="M259.46,193.1A5,5 0 1 1 249.46,193.1A5,5 0 1 1 259.46,193.1Z" style="fill:#1FD3AC" />
<path d="M266.02,197.05A5,5 0 1 1 256.02,197.05A5,5 0 1 1 266.02,197.05Z" style="fill:#1FD3AC" />
<path d="M272.59,199.37A5,5 0 1 1 262.59,199.37A5,5 0 1 1 272.59,199.37Z" style="fill:#1FD3AC" />
<path d="M279.15,203.15A5,5 0 1 1 269.15,203.15A5,5 0 1 1 279.15,203.15Z" style="fill:#1FD3AC" />
<path d="M285.72,206.14A5,5 0 1 1 275.72,206.14A5,5 0 1 1 285.72,206.14Z" style="fill:#1FD3AC" />
<path d="M292.28,210.07A5,5 0 1 1 282.28,210.07A5,5 0 1 1 292.28,210.07Z" style="fill:#1FD3AC" />
<path d="M298.85,213.98A5,5 0 1 1 288.85,213.98A5,5 0 1 1 298.85,213.98Z" style="fill:#1FD3AC" />
<path d="M305.41,217.54A5,5 0 1 1 295.41,217.54A5,5 0 1 1 305.41,217.54Z" style="fill:#1FD3AC" />
<path d="M311.97,221.46A5,5 0 1 1 301.97,221.46A5,5 0 1 1 311.97,221.46Z" style="fill:#1FD3AC" />
<path d="M318.54,225.7A5,5 0 1 1 308.54,225.7A5,5 0 1 1 318.54,225.7Z" style="fill:#1FD3AC" />
<path d="M325.1,229.57A5,5 0 1 1 315.1,229.57A5,5 0 1 1 325.1,229.57Z" style="fill:#1FD3AC" />
<path d="M331.67,235.92A5,5 0 1 1 321.67,235.92A5,5 0 1 1 331.67,235.92Z" style="fill:#1FD3AC" />
<path d="M338.23,239.28A5,5 0 1 1 328.23,239.28A5,5 0 1 1 338.23,239.28Z" style="fill:#1FD3AC" />
<path d="M344.8,243.06A5,5 0 1 1 334.8,243.06A5,5 0 1 1 344.8,243.06Z" style="fill:#1FD3AC" />
<path d="M351.36,248.59A5,5 0 1 1 341.36,248.59A5,5 0 1 1 351.36,248.59Z" style="fill:#1FD3AC" />
<path d="M357.92,253.74A5,5 0 1 1 347.92,253.74A5,5 0 1 1 357.92,253.74Z" style="fill:#1FD3AC" />
<path d="M364.49,259.02A5,5 0 1 1 354.49,259.02A5,5 0 1 1 364.49,259.02Z" style="fill:#1FD3AC" />
<path d="M371.05,264.99A5,5 0 1 1 361.05,264.99A5,5 0 1 1 371.05,264.99Z" style="fill:#1FD3AC" />
<path d="M377.62,269.52A5,5 0 1 1 367.62,269.52A5,5 0 1 1 377.62,269.52Z" style="fill:#1FD3AC" />
<path d="M384.18,276.36A5,5 0 1 1 374.18,276.36A5,5 0 1 1 384.18,276.36Z" style="fill:#1FD3AC" />
<path d="M390.75,282.03A5,5 0 1 1 380.75,282.03A5,5 0 1 1 390.75,282.03Z" style="fill:#1FD3AC" />
<path d="M397.31,288.53A5,5 0 1 1 387.31,288.53A5,5 0 1 1 397.31,288.53Z" style="fill:#1FD3AC" />
<path d="M403.87,294.72A5,5 0 1 1 393.87,294.72A5,5 0 1 1 403.87,294.72Z" style="fill:#1FD3AC" />
<path d="M410.44,301.56A5,5 0 1 1 400.44,301.56A5,5 0 1 1 410.44,301.56Z" style="fill:#1FD3AC" />
<path d="M417,307.39A5,5 0 1 1 407,307.39A5,5 0 1 1 417,307.39Z" style="fill:#1FD3AC" />
<path d="M423.57,316.44A5,5 0 1 1 413.57,316.44A5,5 0 1 1 423.57,316.44Z" style="fill:#1FD3AC" />
<path d="M430.13,323.99A5,5 0 1 1 420.13,323.99A5,5 0 1 1 430.13,323.99Z" style="fill:#1FD3AC" />
<path d="M436.7,332.7A5,5 0 1 1 426.7,332.7A5,5 0 1 1 436.7,332.7Z" style="fill:#1FD3AC" />
<path d="M443.26,340.9A5,5 0 1 1 433.26,340.9A5,5 0 1 1 443.26,340.9Z" style="fill:#1FD3AC" />
<path d="M449.82,349.25A5,5 0 1 1 439.82,349.25A5,5 0 1 1 449.82,349.25Z" style="fill:#1FD3AC" />
<path d="M456.39,359.25A5,5 0 1 1 446.39,359.25A5,5 0 1 1 456.39,359.25Z" style="fill:#1FD3AC" />
<path d="M462.95,369.11A5,5 0 1 1 452.95,369.11A5,5 0 1 1 462.95,369.11Z" style="fill:#1FD3AC" />
<path d="M469.52,379.69A5,5 0 1 1 459.52,379.69A5,5 0 1 1 469.52,379.69Z" style="fill:#1FD3AC" />
<path d="M476.08,391.51A5,5 0 1 1 466.08,391.51A5,5 0 1 1 476.08,391.51Z" style="fill:#1FD3AC" />
<path d="M482.65,401.43A5,5 0 1 1 472.65,401.43A5,5 0 1 1 482.65,401.43Z" style="fill:#1FD3AC" />
<path d="M489.21,412.9A5,5 0 1 1 479.21,412.9A5,5 0 1 1 489.21,412.9Z" style="fill:#1FD3AC" />
<path d="M495.78,426.56A5,5 0 1 1 485.78,426.56A5,5 0 1 1 495.78,426.56Z" style="fill:#1FD3AC" />
<path d="M502.34,440.33A5,5 0 1 1 492.34,440.33A5,5 0 1 1 502.34,440.33Z" style="fill:#1FD3AC" />
<path d="M508.9,453.98A5,5 0 1 1 498.9,453.98A5,5 0 1 1 508.9,453.98Z" style="fill:#1FD3AC" />
<path d="M515.47,470.28A5,5 0 1 1 505.47,470.28A5,5 0 1 1 515.47,470.28Z" style="fill:#1FD3AC" />
<path d="M522.03,483.38A5,5 0 1 1 512.03,483.38A5,5 0 1 1 522.03,483.38Z" style="fill:#1FD3AC" />
<path d="M528.6,499.87A5,5 0 1 1 518.6,499.87A5,5 0 1 1 528.6,499.87Z" style="fill:#1FD3AC" />
<path d="M535.16,518.92A5,5 0 1 1 525.16,518.92A5,5 0 1 1 535.16,518.92Z" style="fill:#1FD3AC" />
<path d="M541.73,534.11A5,5 0 1 1 531.73,534.11A5,5 0 1 1 541.73,534.11Z" style="fill:#1FD3AC" />
<path d="M548.29,548.38A5,5 0 1 1 538.29,548.38A5,5 0 1 1 548.29,548.38Z" style="fill:#1FD3AC" />
<path d="M554.85,565.98A5,5 0 1 1 544.85,565.98A5,5 0 1 1 554.85,565.98Z" style="fill:#1FD3AC" />
<path d="M561.42,588.61A5,5 0 1 1 551.42,588.61A5,5 0 1 1 561.42,588.61Z" style="fill:#1FD3AC" />
<path d="M567.98,609.1A5,5 0 1 1 557.98,609.1A5,5 0 1 1 567.98,609.1Z" style="fill:#1FD3AC" />
<path d="M574.55,629.93A5,5 0 1 1 564.55,629.93A5,5 0 1 1 574.55,629.93Z" style="fill:#1FD3AC" />
<path d="M581.11,648.65A5,5 0 1 1 571.11,648.65A5,5 0 1 1 581.11,648.65Z" style="fill:#1FD3AC" />
<path d="M587.68,665.43A5,5 0 1 1 577.68,665.43A5,5 0 1 1 587.68,665.43Z" style="fill:#1FD3AC" />
<path d="M594.24,692.59A5,5 0 1 1 584.24,692.59A5,5 0 1 1 594.24,692.59Z" style="fill:#1FD3AC" />
<path d="M600.8,708.38A5,5 0 1 1 590.8,708.38A5,5 0 1 1 600.8,708.38Z" style="fill:#1FD3AC" />
<path d="M607.37,726.26A5,5 0 1 1 597.37,726.26A5,5 0 1 1 607.37,726.26Z" style="fill:#1FD3AC" />
<path d="M613.93,747.43A5,5 0 1 1 603.93,747.43A5,5 0 1 1 613.93,747.43Z" style="fill:#1FD3AC" />
<path d="M620.5,764.1A5,5 0 1 1 610.5,764.1A5,5 0 1 1 620.5,764.1Z" style="fill:#1FD3AC" />
<path d="M627.06,779.15A5,5 0 1 1 617.06,779.15A5,5 0 1 1 627.06,779.15Z" style="fill:#1FD3AC" />
<path d="M633.63,786.92A5,5 0 1 1 623.63,786.92A5,5 0 1 1 633.63,786.92Z" style="fill:#1FD3AC" />
<path d="M640.19,798.78A5,5 0 1 1 630.19,798.78A5,5 0 1 1 640.19,798.78Z" style="fill:#1FD3AC" />
<path d="M646.75,803.15A5,5 0 1 1 636.75,803.15A5,5 0 1 1 646.75,803.15Z" style="fill:#1FD3AC" />
<path d="M653.32,802.46A5,5 0 1 1 643.32,802.46A5,5 0 1 1 653.32,802.46Z" style="fill:#1FD3AC" />
<path d="M659.88,799.73A5,5 0 1 1 649.88,799.73A5,5 0 1 1 659.88,799.73Z" style="fill:#1FD3AC" />
<path d="M666.45,785.64A5,5 0 1 1 656.45,785.64A5,5 0 1 1 666.45,785.64Z" style="fill:#1FD3AC" />
<path d="M673.01,772.12A5,5 0 1 1 663.01,772.12A5,5 0 1 1 673.01,772.12Z" style="fill:#1FD3AC" />
<path d="M679.58,757.25A5,5 0 1 1 669.58,757.25A5,5 0 1 1 679.58,757.25Z" style="fill:#1FD3AC" />
<path d="M686.14,735A5,5 0 1 1 676.14,735A5,5 0 1 1 686.14,735Z" style="fill:#1FD3AC" />
<path d="M692.7,710.85A5,5 0 1 1 682.7,710.85A5,5 0 1 1 692.7,710.85Z" style="fill:#1FD3AC" />
<path d="M699.27,691.85A5,5 0 1 1 689.27,691.85A5,5 0 1 1 699.27,691.85Z" style="fill:#1FD3AC" />
<path d="M705.83,664.94A5,5 0 1 1 695.83,664.94A5,5 0 1 1 705.83,664.94Z" style="fill:#1FD3AC" />
<path d="M712.4,637.66A5,5 0 1 1 702.4,637.66A5,5 0 1 1 712.4,637.66Z" style="fill:#1FD3AC" />
<path d="M718.96,610.59A5,5 0 1 1 708.96,610.59A5,5 0 1 1 718.96,610.59Z" style="fill:#1FD3AC" />
<path d="M725.53,586.56A5,5 0 1 1 715.53,586.56A5,5 0 1 1 725.53,586.56Z" style="fill:#1FD3AC" />
<path d="M732.09,564.53A5,5 0 1 1 722.09,564.53A5,5 0 1 1 732.09,564.53Z" style="fill:#1FD3AC" />
<path d="M738.66,540.17A5,5 0 1 1 728.66,540.17A5,5 0 1 1 738.66,540.17Z" style="fill:#1FD3AC" />
<path d="M745.22,518.4A5,5 0 1 1 735.22,518.4A5,5 0 1 1 745.22,518.4Z" style="fill:#1FD3AC" />
<path d="M751.78,496.93A5,5 0 1 1 741.78,496.93A5,5 0 1 1 751.78,496.93Z" style="fill:#1FD3AC" />
<path d="M758.35,478.68A5,5 0 1 1 748.35,478.68A5,5 0 1 1 758.35,478.68Z" style="fill:#1FD3AC" />
<path d="M764.91,458.71A5,5 0 1 1 754.91,458.71A5,5 0 1 1 764.91,458.71Z" style="fill:#1FD3AC" />
<path d="M771.48,440.7A5,5 0 1 1 761.48,440.7A5,5 0 1 1 771.48,440.7Z" style="fill:#1FD3AC" />
<path d="M778.04,422.52A5,5 0 1 1 768.04,422.52A5,5 0 1 1 778.04,422.52Z" style="fill:#1FD3AC" />
<path d="M784.61,406.21A5,5 0 1 1 774.61,406.21A5,5 0 1 1 784.61,406.21Z" style="fill:#1FD3AC" />
<path d="M791.17,391.38A5,5 0 1 1 781.17,391.38A5,5 0 1 1 791.17,391.38Z" style="fill:#1FD3AC" />
<path d="M797.73,376.56A5,5 0 1 1 787.73,376.56A5,5 0 1 1 797.73,376.56Z" style="fill:#1FD3AC" />
<path d="M804.3,362.87A5,5 0 1 1 794.3,362.87A5,5 0 1 1 804.3,362.87Z" style="fill:#1FD3AC" />
<path d="M810.86,352.45A5,5 0 1 1 800.86,352.45A5,5 0 1 1 810.86,352.45Z" style="fill:#1FD3AC" />
<path d="M817.43,337.75A5,5 0 1 1 807.43,337.75A5,5 0 1 1 817.43,337.75Z" style="fill:#1FD3AC" />
<path d="M823.99,326.88A5,5 0 1 1 813.99,326.88A5,5 0 1 1 823.99,326.88Z" style="fill:#1FD3AC" />
<path d="M830.56,317.09A5,5 0 1 1 820.56,317.09A5,5 0 1 1 830.56,317.09Z" style="fill:#1FD3AC" />
<path d="M837.12,306.91A5,5 0 1 1 827.12,306.91A5,5 0 1 1 837.12,306.91Z" style="fill:#1FD3AC" />
<path d="M843.68,296.38A5,5 0 1 1 833.68,296.38A5,5 0 1 1 843.68,296.38Z" style="fill:#1FD3AC" />
<path d="M850.25,287.98A5,5 0 1 1 840.25,287.98A5,5 0 1 1 850.25,287.98Z" style="fill:#1FD3AC" />
<path d="M856.81,280.44A5,5 0 1 1 846.81,280.44A5,5 0 1 1 856.81,280.44Z" style="fill:#1FD3AC" />
<path d="M863.38,273.54A5,5 0 1 1 853.38,273.54A5,5 0 1 1 863.38,273.54Z" style="fill:#1FD3AC" />
<path d="M869.94,265.7A5,5 0 1 1 859.94,265.7A5,5 0 1 1 869.94,265.7Z" style="fill:#1FD3AC" />
<path d="M876.51,256.75A5,5 0 1 1 866.51,256.75A5,5 0 1 1 876.51,256.75Z" style="fill:#1FD3AC" />
<path d="M883.07,249.91A5,5 0 1 1 873.07,249.91A5,5 0 1 1 883.07,249.91Z" style="fill:#1FD3AC" />
<path d="M889.63,244.32A5,5 0 1 1 879.63,244.32A5,5 0 1 1 889.63,244.32Z" style="fill:#1FD3AC" />
<path d="M896.2,237.97A5,5 0 1 1 886.2,237.97A5,5 0 1 1 896.2,237.97Z" style="fill:#1FD3AC" />
<path d="M902.76,231.77A5,5 0 1 1 892.76,231.77A5,5 0 1 1 902.76,231.77Z" style="fill:#1FD3AC" />
<path d="M909.33,227.01A5,5 0 1 1 899.33,227.01A5,5 0 1 1 909.33,227.01Z" style="fill:#1FD3AC" />
<path d="M915.89,220.88A5,5 0 1 1 905.89,220.88A5,5 0 1 1 915.89,220.88Z" style="fill:#1FD3AC" />
<path d="M922.46,215.53A5,5 0 1 1 912.46,215.53A5,5 0 1 1 922.46,215.53Z" style="fill:#1FD3AC" />
<path d="M929.02,211.65A5,5 0 1 1 919.02,211.65A5,5 0 1 1 929.02,211.65Z" style="fill:#1FD3AC" />
<path d="M935.58,206.19A5,5 0 1 1 925.58,206.19A5,5 0 1 1 935.58,206.19Z" style="fill:#1FD3AC" />
<path d="M942.15,202.61A5,5 0 1 1 932.15,202.61A5,5 0 1 1 942.15,202.61Z" style="fill:#1FD3AC" />
<path d="M948.71,198.16A5,5 0 1 1 938.71,198.16A5,5 0 1 1 948.71,198.16Z" style="fill:#1FD3AC" />
<path d="M955.28,194.78A5,5 0 1 1 945.28,194.78A5,5 0 1 1 955.28,194.78Z" style="fill:#1FD3AC" />
<path d="M961.84,191.96A5,5 0 1 1 951.84,191.96A5,5 0 1 1 961.84,191.96Z" style="fill:#1FD3AC" />
<path d="M968.41,188.54A5,5 0 1 1 958.41,188.54A5,5 0 1 1 968.41,188.54Z" style="fill:#1FD3AC" />
<path d="M974.97,184.92A5,5 0 1 1 964.97,184.92A5,5 0 1 1 974.97,184.92Z" style="fill:#1FD3AC" />
<path d="M981.54,181.49A5,5 0 1 1 971.54,181.49A5,5 0 1 1 981.54,181.49Z" style="fill:#1FD3AC" />
<path d="M988.1,177.2A5,5 0 1 1 978.1,177.2A5,5 0 1 1 988.1,177.2Z" style="fill:#1FD3AC" />
<path d="M994.66,175.43A5,5 0 1 1 984.66,175.43A5,5 0 1 1 994.66,175.43Z" style="fill:#1FD3AC" />
<path d="M1001.2,172.08A5,5 0 1 1 991.23,172.08A5,5 0 1 1 1001.2,172.08Z" style="fill:#1FD3AC" />
<path d="M1007.8,169.64A5,5 0 1 1 997.79,169.64A5,5 0 1 1 1007.8,169.64Z" style="fill:#1FD3AC" />
<path d="M1014.4,166.76A5,5 0 1 1 1004.4,166.76A5,5 0 1 1 1014.4,166.76Z" style="fill:#1FD3AC" />
<path d="M1020.9,164.11A5,5 0 1 1 1010.9,164.11A5,5 0 1 1 1020.9,164.11Z" style="fill:#1FD3AC" />
<path d="M1027.5,161.47A5,5 0 1 1 1017.5,161.47A5,5 0 1 1 1027.5,161.47Z" style="fill:#1FD3AC" />
<path d="M1034,160.28A5,5 0 1 1 1024,160.28A5,5 0 1 1 1034,160.28Z" style="fill:#1FD3AC" />
<path d="M1040.6,158.33A5,5 0 1 1 1030.6,158.33A5,5 0 1 1 1040.6,158.33Z" style="fill:#1FD3AC" />
<path d="M1047.2,156.51A5,5 0 1 1 1037.2,156.51A5,5 0 1 1 1047.2,156.51Z" style="fill:#1FD3AC" />
<path d="M1053.7,154.74A5,5 0 1 1 1043.7,154.74A5,5 0 1 1 1053.7,154.74Z" style="fill:#1FD3AC" />
<path d="M1060.3,153.05A5,5 0 1 1 1050.3,153.05A5,5 0 1 1 1060.3,153.05Z" style="fill:#1FD3AC" />
<path d="M1066.9,151.11A5,5 0 1 1 1056.9,151.11A5,5 0 1 1 1066.9,151.11Z" style="fill:#1FD3AC" />
<path d="M1073.4,149.59A5,5 0 1 1 1063.4,149.59A5,5 0 1 1 1073.4,149.59Z" style="fill:#1FD3AC" />
<path d="M1080,148.04A5,5 0 1 1 1070,148.04A5,5 0 1 1 1080,148.04Z" style="fill:#1FD3AC" />
<path d="M175.69,974.14L1075,974.14" style="fill:none;stroke:#000000" />
<path d="M1075,108.82L1075,974.14" style="fill:none;stroke:#000000" />
<path d="M175.69,156.24L175.69,157.4" style="fill:none;stroke:#FF7AB4" />
<path d="M173.19,156.24L178.19,156.24" style="fill:none;stroke:#FF7AB4" />
<path d="M173.19,157.4L178.19,157.4" style="fill:none;stroke:#FF7AB4" />
<path d="M182.25,157.29L182.25,158.38" style="fill:none;stroke:#FF7AB4" />
<path d="M179.75,157.29L184.75,157.29" style="fill:none;stroke:#FF7AB4" />
<path d="M179.75,158.38L184.75,158.38" style="fill:none;stroke:#FF7AB4" />
<path d="M188.82,159.38L188.82,159.93" style="fill:none;stroke:#FF7AB4" />
<path d="M186.32,159.38L191.32,159.38" style="fill:none;stroke:#FF7AB4" />
<path d="M186.32,159.93L191.32,159.93" style="fill:none;stroke:#FF7AB4" />
<path d="M195.38,160.15L195.38,161.51" style="fill:none;stroke:#FF7AB4" />
<path d="M192.88,160.15L197.88,160.15" style="fill:none;stroke:#FF7AB4" />
<path d="M192.88,161.51L197.88,161.51" style="fill:none;stroke:#FF7AB4" />
<path d="M201.94,162.2L201.94,163.43" style="fill:none;stroke:#FF7AB4" />
<path d="M199.44,162.2L204.44,162.2" style="fill:none;stroke:#FF7AB4" />
<path d="M199.44,163.43L204.44,163.43" style="fill:none;stroke:#FF7AB4" />
<path d="M208.51,164.43L208.51,165.58" style="fill:none;stroke:#FF7AB4" />
<path d="M206.01,164.43L211.01,164.43" style="fill:none;stroke:#FF7AB4" />
<path d="M206.01,165.58L211.01,165.58" style="fill:none;stroke:#FF7AB4" />
<path d="M215.07,165.58L215.07,166.39" style="fill:none;stroke:#FF7AB4" />
<path d="M212.57,165.58L217.57,165.58" style="fill:none;stroke:#FF7AB4" />
<path d="M212.57,166.39L217.57,166.39" style="fill:none;stroke:#FF7AB4" />
<path d="M221.64,168.71L221.64,169.71" style="fill:none;stroke:#FF7AB4" />
<path d="M219.14,168.71L224.14,168.71" style="fill:none;stroke:#FF7AB4" />
<path d="M219.14,169.71L224.14,169.71" style="fill:none;stroke:#FF7AB4" />
<path d="M228.2,170.15L228.2,171.79" style="fill:none;stroke:#FF7AB4" />
<path d="M225.7,170.15L230.7,170.15" style="fill:none;stroke:#FF7AB4" />
<path d="M225.7,171.79L230.7,171.79" style="fill:none;stroke:#FF7AB4" />
<path d="M234.77,172.37L234.77,173.66" style="fill:none;stroke:#FF7AB4" />
<path d="M232.27,172.37L237.27,172.37" style="fill:none;stroke:#FF7AB4" />
<path d="M232.27,173.66L237.27,173.66" style="fill:none;stroke:#FF7AB4" />
<path d="M241.33,175.35L241.33,176.46" style="fill:none;stroke:#FF7AB4" />
<path d="M238.83,175.35L243.83,175.35" style="fill:none;stroke:#FF7AB4" />
<path d="M238.83,176.46L243.83,176.46" style="fill:none;stroke:#FF7AB4" />
<path d="M247.9,177.09L247.9,179.27" style="fill:none;stroke:#FF7AB4" />
<path d="M245.4,177.09L250.4,177.09" style="fill:none;stroke:#FF7AB4" />
<path d="M245.4,179.27L250.4,179.27" style="fill:none;stroke:#FF7AB4" />
<path d="M254.46,179.31L254.46,180.97" style="fill:none;stroke:#FF7AB4" />
<path d="M251.96,179.31L256.96,179.31" style="fill:none;stroke:#FF7AB4" />
<path d="M251.96,180.97L256.96,180.97" style="fill:none;stroke:#FF7AB4" />
<path d="M261.02,182.89L261.02,185.47" style="fill:none;stroke:#FF7AB4" />
<path d="M258.52,182.89L263.52,182.89" style="fill:none;stroke:#FF7AB4" />
<path d="M258.52,185.47L263.52,185.47" style="fill:none;stroke:#FF7AB4" />
<path d="M267.59,185.59L267.59,186.04" style="fill:none;stroke:#FF7AB4" />
<path d="M265.09,185.59L270.09,185.59" style="fill:none;stroke:#FF7AB4" />
<path d="M265.09,186.04L270.09,186.04" style="fill:none;stroke:#FF7AB4" />
<path d="M274.15,187.64L274.15,189.66" style="fill:none;stroke:#FF7AB4" />
<path d="M271.65,187.64L276.65,187.64" style="fill:none;stroke:#FF7AB4" />
<path d="M271.65,189.66L276.65,189.66" style="fill:none;stroke:#FF7AB4" />
<path d="M280.72,190.95L280.72,193.74" style="fill:none;stroke:#FF7AB4" />
<path d="M278.22,190.95L283.22,190.95" style="fill:none;stroke:#FF7AB4" />
<path d="M278.22,193.74L283.22,193.74" style="fill:none;stroke:#FF7AB4" />
<path d="M287.28,192.89L287.28,193.78" style="fill:none;stroke:#FF7AB4" />
<path d="M284.78,192.89L289.78,192.89" style="fill:none;stroke:#FF7AB4" />
<path d="M284.78,193.78L289.78,193.78" style="fill:none;stroke:#FF7AB4" />
<path d="M293.85,197.52L293.85,198.44" style="fill:none;stroke:#FF7AB4" />
<path d="M291.35,197.52L296.35,197.52" style="fill:none;stroke:#FF7AB4" />
<path d="M291.35,198.44L296.35,198.44" style="fill:none;stroke:#FF7AB4" />
<path d="M300.41,200.05L300.41,201.27" style="fill:none;stroke:#FF7AB4" />
<path d="M297.91,200.05L302.91,200.05" style="fill:none;stroke:#FF7AB4" />
<path d="M297.91,201.27L302.91,201.27" style="fill:none;stroke:#FF7AB4" />
<path d="M306.97,202.34L306.97,204.63" style="fill:none;stroke:#FF7AB4" />
<path d="M304.47,202.34L309.47,202.34" style="fill:none;stroke:#FF7AB4" />
<path d="M304.47,204.63L309.47,204.63" style="fill:none;stroke:#FF7AB4" />
<path d="M313.54,206.45L313.54,208" style="fill:none;stroke:#FF7AB4" />
<path d="M311.04,206.45L316.04,206.45" style="fill:none;stroke:#FF7AB4" />
<path d="M311.04,208L316.04,208" style="fill:none;stroke:#FF7AB4" />
<path d="M320.1,209.63L320.1,211.71" style="fill:none;stroke:#FF7AB4" />
<path d="M317.6,209.63L322.6,209.63" style="fill:none;stroke:#FF7AB4" />
<path d="M317.6,211.71L322.6,211.71" style="fill:none;stroke:#FF7AB4" />
<path d="M326.67,215.62L326.67,217.14" style="fill:none;stroke:#FF7AB4" />
<path d="M324.17,215.62L329.17,215.62" style="fill:none;stroke:#FF7AB4" />
<path d="M324.17,217.14L329.17,217.14" style="fill:none;stroke:#FF7AB4" />
<path d="M333.23,219.49L333.23,221.26" style="fill:none;stroke:#FF7AB4" />
<path d="M330.73,219.49L335.73,219.49" style="fill:none;stroke:#FF7AB4" />
<path d="M330.73,221.26L335.73,221.26" style="fill:none;stroke:#FF7AB4" />
<path d="M339.8,221.06L339.8,222.59" style="fill:none;stroke:#FF7AB4" />
<path d="M337.3,221.06L342.3,221.06" style="fill:none;stroke:#FF7AB4" />
<path d="M337.3,222.59L342.3,222.59" style="fill:none;stroke:#FF7AB4" />
<path d="M346.36,226.81L346.36,227.23" style="fill:none;stroke:#FF7AB4" />
<path d="M343.86,226.81L348.86,226.81" style="fill:none;stroke:#FF7AB4" />
<path d="M343.86,227.23L348.86,227.23" style="fill:none;stroke:#FF7AB4" />
<path d="M352.92,228.47L352.92,232.42" style="fill:none;stroke:#FF7AB4" />
<path d="M350.42,228.47L355.42,228.47" style="fill:none;stroke:#FF7AB4" />
<path d="M350.42,232.42L355.42,232.42" style="fill:none;stroke:#FF7AB4" />
<path d="M359.49,234.07L359.49,235.6" style="fill:none;stroke:#FF7AB4" />
<path d="M356.99,234.07L361.99,234.07" style="fill:none;stroke:#FF7AB4" />
<path d="M356.99,235.6L361.99,235.6" style="fill:none;stroke:#FF7AB4" />
<path d="M366.05,240.12L366.05,242.61" style="fill:none;stroke:#FF7AB4" />
<path d="M363.55,240.12L368.55,240.12" style="fill:none;stroke:#FF7AB4" />
<path d="M363.55,242.61L368.55,242.61" style="fill:none;stroke:#FF7AB4" />
<path d="M372.62,242.55L372.62,245.1" style="fill:none;stroke:#FF7AB4" />
<path d="M370.12,242.55L375.12,242.55" style="fill:none;stroke:#FF7AB4" />
<path d="M370.12,245.1L375.12,245.1" style="fill:none;stroke:#FF7AB4" />
<path d="M379.18,248.96L379.18,250.52" style="fill:none;stroke:#FF7AB4" />
<path d="M376.68,248.96L381.68,248.96" style="fill:none;stroke:#FF7AB4" />
<path d="M376.68,250.52L381.68,250.52" style="fill:none;stroke:#FF7AB4" />
<path d="M385.75,254.17L385.75,255.71" style="fill:none;stroke:#FF7AB4" />
<path d="M383.25,254.17L388.25,254.17" style="fill:none;stroke:#FF7AB4" />
<path d="M383.25,255.71L388.25,255.71" style="fill:none;stroke:#FF7AB4" />
<path d="M392.31,259.8L392.31,261.43" style="fill:none;stroke:#FF7AB4" />
<path d="M389.81,259.8L394.81,259.8" style="fill:none;stroke:#FF7AB4" />
<path d="M389.81,261.43L394.81,261.43" style="fill:none;stroke:#FF7AB4" />
<path d="M398.87,266.28L398.87,268.65" style="fill:none;stroke:#FF7AB4" />
<path d="M396.37,266.28L401.37,266.28" style="fill:none;stroke:#FF7AB4" />
<path d="M396.37,268.65L401.37,268.65" style="fill:none;stroke:#FF7AB4" />
<path d="M405.44,270.53L405.44,273.81" style="fill:none;stroke:#FF7AB4" />
<path d="M402.94,270.53L407.94,270.53" style="fill:none;stroke:#FF7AB4" />
<path d="M402.94,273.81L407.94,273.81" style="fill:none;stroke:#FF7AB4" />
<path d="M412,275.73L412,279.14" style="fill:none;stroke:#FF7AB4" />
<path d="M409.5,275.73L414.5,275.73" style="fill:none;stroke:#FF7AB4" />
<path d="M409.5,279.14L414.5,279.14" style="fill:none;stroke:#FF7AB4" />
<path d="M418.57,283.38L418.57,285.37" style="fill:none;stroke:#FF7AB4" />
<path d="M416.07,283.38L421.07,283.38" style="fill:none;stroke:#FF7AB4" />
<path d="M416.07,285.37L421.07,285.37" style="fill:none;stroke:#FF7AB4" />
<path d="M425.13,292.67L425.13,296.34" style="fill:none;stroke:#FF7AB4" />
<path d="M422.63,292.67L427.63,292.67" style="fill:none;stroke:#FF7AB4" />
<path d="M422.63,296.34L427.63,296.34" style="fill:none;stroke:#FF7AB4" />
<path d="M431.7,297.77L431.7,302.78" style="fill:none;stroke:#FF7AB4" />
<path d="M429.2,297.77L434.2,297.77" style="fill:none;stroke:#FF7AB4" />
<path d="M429.2,302.78L434.2,302.78" style="fill:none;stroke:#FF7AB4" />
<path d="M438.26,305.14L438.26,309.05" style="fill:none;stroke:#FF7AB4" />
<path d="M435.76,305.14L440.76,305.14" style="fill:none;stroke:#FF7AB4" />
<path d="M435.76,309.05L440.76,309.05" style="fill:none;stroke:#FF7AB4" />
<path d="M444.82,311.78L444.82,317.75" style="fill:none;stroke:#FF7AB4" />
<path d="M442.32,311.78L447.32,311.78" style="fill:none;stroke:#FF7AB4" />
<path d="M442.32,317.75L447.32,317.75" style="fill:none;stroke:#FF7AB4" />
<path d="M451.39,321.09L451.39,324.71" style="fill:none;stroke:#FF7AB4" />
<path d="M448.89,321.09L453.89,321.09" style="fill:none;stroke:#FF7AB4" />
<path d="M448.89,324.71L453.89,324.71" style="fill:none;stroke:#FF7AB4" />
<path d="M457.95,330.51L457.95,333.26" style="fill:none;stroke:#FF7AB4" />
<path d="M455.45,330.51L460.45,330.51" style="fill:none;stroke:#FF7AB4" />
<path d="M455.45,333.26L460.45,333.26" style="fill:none;stroke:#FF7AB4" />
<path d="M464.52,334.78L464.52,338.2" style="fill:none;stroke:#FF7AB4" />
<path d="M462.02,334.78L467.02,334.78" style="fill:none;stroke:#FF7AB4" />
<path d="M462.02,338.2L467.02,338.2" style="fill:none;stroke:#FF7AB4" />
<path d="M471.08,343.13L471.08,346.63" style="fill:none;stroke:#FF7AB4" />
<path d="M468.58,343.13L473.58,343.13" style="fill:none;stroke:#FF7AB4" />
<path d="M468.58,346.63L473.58,346.63" style="fill:none;stroke:#FF7AB4" />
<path d="M477.65,358.11L477.65,365.28" style="fill:none;stroke:#FF7AB4" />
<path d="M475.15,358.11L480.15,358.11" style="fill:none;stroke:#FF7AB4" />
<path d="M475.15,365.28L480.15,365.28" style="fill:none;stroke:#FF7AB4" />
<path d="M484.21,364.03L484.21,368.72" style="fill:none;stroke:#FF7AB4" />
<path d="M481.71,364.03L486.71,364.03" style="fill:none;stroke:#FF7AB4" />
<path d="M481.71,368.72L486.71,368.72" style="fill:none;stroke:#FF7AB4" />
<path d="M490.78,374.97L490.78,379.97" style="fill:none;stroke:#FF7AB4" />
<path d="M488.28,374.97L493.28,374.97" style="fill:none;stroke:#FF7AB4" />
<path d="M488.28,379.97L493.28,379.97" style="fill:none;stroke:#FF7AB4" />
<path d="M497.34,387.25L497.34,391.47" style="fill:none;stroke:#FF7AB4" />
<path d="M494.84,387.25L499.84,387.25" style="fill:none;stroke:#FF7AB4" />
<path d="M494.84,391.47L499.84,391.47" style="fill:none;stroke:#FF7AB4" />
<path d="M503.9,396.43L503.9,402.84" style="fill:none;stroke:#FF7AB4" />
<path d="M501.4,396.43L506.4,396.43" style="fill:none;stroke:#FF7AB4" />
<path d="M501.4,402.84L506.4,402.84" style="fill:none;stroke:#FF7AB4" />
<path d="M510.47,412.11L510.47,416.53" style="fill:none;stroke:#FF7AB4" />
<path d="M507.97,412.11L512.97,412.11" style="fill:none;stroke:#FF7AB4" />
<path d="M507.97,416.53L512.97,416.53" style="fill:none;stroke:#FF7AB4" />
<path d="M517.03,421.84L517.03,423.93" style="fill:none;stroke:#FF7AB4" />
<path d="M514.53,421.84L519.53,421.84" style="fill:none;stroke:#FF7AB4" />
<path d="M514.53,423.93L519.53,423.93" style="fill:none;stroke:#FF7AB4" />
<path d="M523.6,437.94L523.6,443.96" style="fill:none;stroke:#FF7AB4" />
<path d="M521.1,437.94L526.1,437.94" style="fill:none;stroke:#FF7AB4" />
<path d="M521.1,443.96L526.1,443.96" style="fill:none;stroke:#FF7AB4" />
<path d="M530.16,447.42L530.16,451.99" style="fill:none;stroke:#FF7AB4" />
<path d="M527.66,447.42L532.66,447.42" style="fill:none;stroke:#FF7AB4" />
<path d="M527.66,451.99L532.66,451.99" style="fill:none;stroke:#FF7AB4" />
<path d="M536.73,463.13L536.73,470.83" style="fill:none;stroke:#FF7AB4" />
<path d="M534.23,463.13L539.23,463.13" style="fill:none;stroke:#FF7AB4" />
<path d="M534.23,470.83L539.23,470.83" style="fill:none;stroke:#FF7AB4" />
<path d="M543.29,476.69L543.29,487.47" style="fill:none;stroke:#FF7AB4" />
<path d="M540.79,476.69L545.79,476.69" style="fill:none;stroke:#FF7AB4" />
<path d="M540.79,487.47L545.79,487.47" style="fill:none;stroke:#FF7AB4" />
<path d="M549.85,493.17L549.85,499.9" style="fill:none;stroke:#FF7AB4" />
<path d="M547.35,493.17L552.35,493.17" style="fill:none;stroke:#FF7AB4" />
<path d="M547.35,499.9L552.35,499.9" style="fill:none;stroke:#FF7AB4" />
<path d="M556.42,510.39L556.42,521.98" style="fill:none;stroke:#FF7AB4" />
<path d="M553.92,510.39L558.92,510.39" style="fill:none;stroke:#FF7AB4" />
<path d="M553.92,521.98L558.92,521.98" style="fill:none;stroke:#FF7AB4" />
<path d="M562.98,527.91L562.98,535.43" style="fill:none;stroke:#FF7AB4" />
<path d="M560.48,527.91L565.48,527.91" style="fill:none;stroke:#FF7AB4" />
<path d="M560.48,535.43L565.48,535.43" style="fill:none;stroke:#FF7AB4" />
<path d="M569.55,541.39L569.55,547.94" style="fill:none;stroke:#FF7AB4" />
<path d="M567.05,541.39L572.05,541.39" style="fill:none;stroke:#FF7AB4" />
<path d="M567.05,547.94L572.05,547.94" style="fill:none;stroke:#FF7AB4" />
<path d="M576.11,562.48L576.11,570.15" style="fill:none;stroke:#FF7AB4" />
<path d="M573.61,562.48L578.61,562.48" style="fill:none;stroke:#FF7AB4" />
<path d="M573.61,570.15L578.61,570.15" style="fill:none;stroke:#FF7AB4" />
<path d="M582.68,578.05L582.68,587.18" style="fill:none;stroke:#FF7AB4" />
<path d="M580.18,578.05L585.18,578.05" style="fill:none;stroke:#FF7AB4" />
<path d="M580.18,587.18L585.18,587.18" style="fill:none;stroke:#FF7AB4" />
<path d="M589.24,592.32L589.24,602.84" style="fill:none;stroke:#FF7AB4" />
<path d="M586.74,592.32L591.74,592.32" style="fill:none;stroke:#FF7AB4" />
<path d="M586.74,602.84L591.74,602.84" style="fill:none;stroke:#FF7AB4" />
<path d="M595.8,604.15L595.8,611.37" style="fill:none;stroke:#FF7AB4" />
<path d="M593.3,604.15L598.3,604.15" style="fill:none;stroke:#FF7AB4" />
<path d="M593.3,611.37L598.3,611.37" style="fill:none;stroke:#FF7AB4" />
<path d="M602.37,627.43L602.37,634.29" style="fill:none;stroke:#FF7AB4" />
<path d="M599.87,627.43L604.87,627.43" style="fill:none;stroke:#FF7AB4" />
<path d="M599.87,634.29L604.87,634.29" style="fill:none;stroke:#FF7AB4" />
<path d="M608.93,639.83L608.93,650.39" style="fill:none;stroke:#FF7AB4" />
<path d="M606.43,639.83L611.43,639.83" style="fill:none;stroke:#FF7AB4" />
<path d="M606.43,650.39L611.43,650.39" style="fill:none;stroke:#FF7AB4" />
<path d="M615.5,657.24L615.5,659.84" style="fill:none;stroke:#FF7AB4" />
<path d="M613,657.24L618,657.24" style="fill:none;stroke:#FF7AB4" />
<path d="M613,659.84L618,659.84" style="fill:none;stroke:#FF7AB4" />
<path d="M622.06,667.7L622.06,673.05" style="fill:none;stroke:#FF7AB4" />
<path d="M619.56,667.7L624.56,667.7" style="fill:none;stroke:#FF7AB4" />
<path d="M619.56,673.05L624.56,673.05" style="fill:none;stroke:#FF7AB4" />
<path d="M628.63,682.41L628.63,689.97" style="fill:none;stroke:#FF7AB4" />
<path d="M626.13,682.41L631.13,682.41" style="fill:none;stroke:#FF7AB4" />
<path d="M626.13,689.97L631.13,689.97" style="fill:none;stroke:#FF7AB4" />
<path d="M635.19,689.83L635.19,695.27" style="fill:none;stroke:#FF7AB4" />
<path d="M632.69,689.83L637.69,689.83" style="fill:none;stroke:#FF7AB4" />
<path d="M632.69,695.27L637.69,695.27" style="fill:none;stroke:#FF7AB4" />
<path d="M641.75,692.81L641.75,696.85" style="fill:none;stroke:#FF7AB4" />
<path d="M639.25,692.81L644.25,692.81" style="fill:none;stroke:#FF7AB4" />
<path d="M639.25,696.85L644.25,696.85" style="fill:none;stroke:#FF7AB4" />
<path d="M648.32,689.41L648.32,696.05" style="fill:none;stroke:#FF7AB4" />
<path d="M645.82,689.41L650.82,689.41" style="fill:none;stroke:#FF7AB4" />
<path d="M645.82,696.05L650.82,696.05" style="fill:none;stroke:#FF7AB4" />
<path d="M654.88,682.62L654.88,686.9" style="fill:none;stroke:#FF7AB4" />
<path d="M652.38,682.62L657.38,682.62" style="fill:none;stroke:#FF7AB4" />
<path d="M652.38,686.9L657.38,686.9" style="fill:none;stroke:#FF7AB4" />
<path d="M661.45,674.43L661.45,685.02" style="fill:none;stroke:#FF7AB4" />
<path d="M658.95,674.43L663.95,674.43" style="fill:none;stroke:#FF7AB4" />
<path d="M658.95,685.02L663.95,685.02" style="fill:none;stroke:#FF7AB4" />
<path d="M668.01,665.67L668.01,676.63" style="fill:none;stroke:#FF7AB4" />
<path d="M665.51,665.67L670.51,665.67" style="fill:none;stroke:#FF7AB4" />
<path d="M665.51,676.63L670.51,676.63" style="fill:none;stroke:#FF7AB4" />
<path d="M674.58,642.1L674.58,652.15" style="fill:none;stroke:#FF7AB4" />
<path d="M672.08,642.1L677.08,642.1" style="fill:none;stroke:#FF7AB4" />
<path d="M672.08,652.15L677.08,652.15" style="fill:none;stroke:#FF7AB4" />
<path d="M681.14,631.25L681.14,638.4" style="fill:none;stroke:#FF7AB4" />
<path d="M678.64,631.25L683.64,631.25" style="fill:none;stroke:#FF7AB4" />
<path d="M678.64,638.4L683.64,638.4" style="fill:none;stroke:#FF7AB4" />
<path d="M687.7,615.85L687.7,623.95" style="fill:none;stroke:#FF7AB4" />
<path d="M685.2,615.85L690.2,615.85" style="fill:none;stroke:#FF7AB4" />
<path d="M685.2,623.95L690.2,623.95" style="fill:none;stroke:#FF7AB4" />
<path d="M694.27,582.2L694.27,597.2" style="fill:none;stroke:#FF7AB4" />
<path d="M691.77,582.2L696.77,582.2" style="fill:none;stroke:#FF7AB4" />
<path d="M691.77,597.2L696.77,597.2" style="fill:none;stroke:#FF7AB4" />
<path d="M700.83,572.17L700.83,576.67" style="fill:none;stroke:#FF7AB4" />
<path d="M698.33,572.17L703.33,572.17" style="fill:none;stroke:#FF7AB4" />
<path d="M698.33,576.67L703.33,576.67" style="fill:none;stroke:#FF7AB4" />
<path d="M707.4,551.44L707.4,556.33" style="fill:none;stroke:#FF7AB4" />
<path d="M704.9,551.44L709.9,551.44" style="fill:none;stroke:#FF7AB4" />
<path d="M704.9,556.33L709.9,556.33" style="fill:none;stroke:#FF7AB4" />
<path d="M713.96,521.66L713.96,529.73" style="fill:none;stroke:#FF7AB4" />
<path d="M711.46,521.66L716.46,521.66" style="fill:none;stroke:#FF7AB4" />
<path d="M711.46,529.73L716.46,529.73" style="fill:none;stroke:#FF7AB4" />
<path d="M720.53,499.76L720.53,505.07" style="fill:none;stroke:#FF7AB4" />
<path d="M718.03,499.76L723.03,499.76" style="fill:none;stroke:#FF7AB4" />
<path d="M718.03,505.07L723.03,505.07" style="fill:none;stroke:#FF7AB4" />
<path d="M727.09,481.5L727.09,488.24" style="fill:none;stroke:#FF7AB4" />
<path d="M724.59,481.5L729.59,481.5" style="fill:none;stroke:#FF7AB4" />
<path d="M724.59,488.24L729.59,488.24" style="fill:none;stroke:#FF7AB4" />
<path d="M733.66,462.4L733.66,466.52" style="fill:none;stroke:#FF7AB4" />
<path d="M731.16,462.4L736.16,462.4" style="fill:none;stroke:#FF7AB4" />
<path d="M731.16,466.52L736.16,466.52" style="fill:none;stroke:#FF7AB4" />
<path d="M740.22,440.84L740.22,444.23" style="fill:none;stroke:#FF7AB4" />
<path d="M737.72,440.84L742.72,440.84" style="fill:none;stroke:#FF7AB4" />
<path d="M737.72,444.23L742.72,444.23" style="fill:none;stroke:#FF7AB4" />
<path d="M746.78,422.96L746.78,427.29" style="fill:none;stroke:#FF7AB4" />
<path d="M744.28,422.96L749.28,422.96" style="fill:none;stroke:#FF7AB4" />
<path d="M744.28,427.29L749.28,427.29" style="fill:none;stroke:#FF7AB4" />
<path d="M753.35,405.62L753.35,410.76" style="fill:none;stroke:#FF7AB4" />
<path d="M750.85,405.62L755.85,405.62" style="fill:none;stroke:#FF7AB4" />
<path d="M750.85,410.76L755.85,410.76" style="fill:none;stroke:#FF7AB4" />
<path d="M759.91,392.58L759.91,395.82" style="fill:none;stroke:#FF7AB4" />
<path d="M757.41,392.58L762.41,392.58" style="fill:none;stroke:#FF7AB4" />
<path d="M757.41,395.82L762.41,395.82" style="fill:none;stroke:#FF7AB4" />
<path d="M766.48,376.93L766.48,380.05" style="fill:none;stroke:#FF7AB4" />
<path d="M763.98,376.93L768.98,376.93" style="fill:none;stroke:#FF7AB4" />
<path d="M763.98,380.05L768.98,380.05" style="fill:none;stroke:#FF7AB4" />
<path d="M773.04,361.69L773.04,366.23" style="fill:none;stroke:#FF7AB4" />
<path d="M770.54,361.69L775.54,361.69" style="fill:none;stroke:#FF7AB4" />
<path d="M770.54,366.23L775.54,366.23" style="fill:none;stroke:#FF7AB4" />
<path d="M779.61,345.9L779.61,347.74" style="fill:none;stroke:#FF7AB4" />
<path d="M777.11,345.9L782.11,345.9" style="fill:none;stroke:#FF7AB4" />
<path d="M777.11,347.74L782.11,347.74" style="fill:none;stroke:#FF7AB4" />
<path d="M786.17,333.56L786.17,337.15" style="fill:none;stroke:#FF7AB4" />
<path d="M783.67,333.56L788.67,333.56" style="fill:none;stroke:#FF7AB4" />
<path d="M783.67,337.15L788.67,337.15" style="fill:none;stroke:#FF7AB4" />
<path d="M792.73,323.85L792.73,326.59" style="fill:none;stroke:#FF7AB4" />
<path d="M790.23,323.85L795.23,323.85" style="fill:none;stroke:#FF7AB4" />
<path d="M790.23,326.59L795.23,326.59" style="fill:none;stroke:#FF7AB4" />
<path d="M799.3,308.21L799.3,313.61" style="fill:none;stroke:#FF7AB4" />
<path d="M796.8,308.21L801.8,308.21" style="fill:none;stroke:#FF7AB4" />
<path d="M796.8,313.61L801.8,313.61" style="fill:none;stroke:#FF7AB4" />
<path d="M805.86,300.7L805.86,304.57" style="fill:none;stroke:#FF7AB4" />
<path d="M803.36,300.7L808.36,300.7" style="fill:none;stroke:#FF7AB4" />
<path d="M803.36,304.57L808.36,304.57" style="fill:none;stroke:#FF7AB4" />
<path d="M812.43,290.79L812.43,294.58" style="fill:none;stroke:#FF7AB4" />
<path d="M809.93,290.79L814.93,290.79" style="fill:none;stroke:#FF7AB4" />
<path d="M809.93,294.58L814.93,294.58" style="fill:none;stroke:#FF7AB4" />
<path d="M818.99,280.6L818.99,283.36" style="fill:none;stroke:#FF7AB4" />
<path d="M816.49,280.6L821.49,280.6" style="fill:none;stroke:#FF7AB4" />
<path d="M816.49,283.36L821.49,283.36" style="fill:none;stroke:#FF7AB4" />
<path d="M825.56,271.32L825.56,273.43" style="fill:none;stroke:#FF7AB4" />
<path d="M823.06,271.32L828.06,271.32" style="fill:none;stroke:#FF7AB4" />
<path d="M823.06,273.43L828.06,273.43" style="fill:none;stroke:#FF7AB4" />
<path d="M832.12,266.43L832.12,268.2" style="fill:none;stroke:#FF7AB4" />
<path d="M829.62,266.43L834.62,266.43" style="fill:none;stroke:#FF7AB4" />
<path d="M829.62,268.2L834.62,268.2" style="fill:none;stroke:#FF7AB4" />
<path d="M838.68,258.53L838.68,259.63" style="fill:none;stroke:#FF7AB4" />
<path d="M836.18,258.53L841.18,258.53" style="fill:none;stroke:#FF7AB4" />
<path d="M836.18,259.63L841.18,259.63" style="fill:none;stroke:#FF7AB4" />
<path d="M845.25,248.76L845.25,250.23" style="fill:none;stroke:#FF7AB4" />
<path d="M842.75,248.76L847.75,248.76" style="fill:none;stroke:#FF7AB4" />
<path d="M842.75,250.23L847.75,250.23" style="fill:none;stroke:#FF7AB4" />
<path d="M851.81,242.12L851.81,244.86" style="fill:none;stroke:#FF7AB4" />
<path d="M849.31,242.12L854.31,242.12" style="fill:none;stroke:#FF7AB4" />
<path d="M849.31,244.86L854.31,244.86" style="fill:none;stroke:#FF7AB4" />
<path d="M858.38,235.12L858.38,237.23" style="fill:none;stroke:#FF7AB4" />
<path d="M855.88,235.12L860.88,235.12" style="fill:none;stroke:#FF7AB4" />
<path d="M855.88,237.23L860.88,237.23" style="fill:none;stroke:#FF7AB4" />
<path d="M864.94,230.13L864.94,231.73" style="fill:none;stroke:#FF7AB4" />
<path d="M862.44,230.13L867.44,230.13" style="fill:none;stroke:#FF7AB4" />
<path d="M862.44,231.73L867.44,231.73" style="fill:none;stroke:#FF7AB4" />
<path d="M871.51,223L871.51,224.67" style="fill:none;stroke:#FF7AB4" />
<path d="M869.01,223L874.01,223" style="fill:none;stroke:#FF7AB4" />
<path d="M869.01,224.67L874.01,224.67" style="fill:none;stroke:#FF7AB4" />
<path d="M878.07,218.01L878.07,219.85" style="fill:none;stroke:#FF7AB4" />
<path d="M875.57,218.01L880.57,218.01" style="fill:none;stroke:#FF7AB4" />
<path d="M875.57,219.85L880.57,219.85" style="fill:none;stroke:#FF7AB4" />
<path d="M884.63,213L884.63,214.23" style="fill:none;stroke:#FF7AB4" />
<path d="M882.13,213L887.13,213" style="fill:none;stroke:#FF7AB4" />
<path d="M882.13,214.23L887.13,214.23" style="fill:none;stroke:#FF7AB4" />
<path d="M891.2,208.55L891.2,210.36" style="fill:none;stroke:#FF7AB4" />
<path d="M888.7,208.55L893.7,208.55" style="fill:none;stroke:#FF7AB4" />
<path d="M888.7,210.36L893.7,210.36" style="fill:none;stroke:#FF7AB4" />
<path d="M897.76,203.84L897.76,205.62" style="fill:none;stroke:#FF7AB4" />
<path d="M895.26,203.84L900.26,203.84" style="fill:none;stroke:#FF7AB4" />
<path d="M895.26,205.62L900.26,205.62" style="fill:none;stroke:#FF7AB4" />
<path d="M904.33,198.16L904.33,200.33" style="fill:none;stroke:#FF7AB4" />
<path d="M901.83,198.16L906.83,198.16" style="fill:none;stroke:#FF7AB4" />
<path d="M901.83,200.33L906.83,200.33" style="fill:none;stroke:#FF7AB4" />
<path d="M910.89,193.55L910.89,194.16" style="fill:none;stroke:#FF7AB4" />
<path d="M908.39,193.55L913.39,193.55" style="fill:none;stroke:#FF7AB4" />
<path d="M908.39,194.16L913.39,194.16" style="fill:none;stroke:#FF7AB4" />
<path d="M917.46,191.24L917.46,192.46" style="fill:none;stroke:#FF7AB4" />
<path d="M914.96,191.24L919.96,191.24" style="fill:none;stroke:#FF7AB4" />
<path d="M914.96,192.46L919.96,192.46" style="fill:none;stroke:#FF7AB4" />
<path d="M924.02,185.15L924.02,186.7" style="fill:none;stroke:#FF7AB4" />
<path d="M921.52,185.15L926.52,185.15" style="fill:none;stroke:#FF7AB4" />
<path d="M921.52,186.7L926.52,186.7" style="fill:none;stroke:#FF7AB4" />
<path d="M930.58,183.54L930.58,186.05" style="fill:none;stroke:#FF7AB4" />
<path d="M928.08,183.54L933.08,183.54" style="fill:none;stroke:#FF7AB4" />
<path d="M928.08,186.05L933.08,186.05" style="fill:none;stroke:#FF7AB4" />
<path d="M937.15,179.31L937.15,181.59" style="fill:none;stroke:#FF7AB4" />
<path d="M934.65,179.31L939.65,179.31" style="fill:none;stroke:#FF7AB4" />
<path d="M934.65,181.59L939.65,181.59" style="fill:none;stroke:#FF7AB4" />
<path d="M943.71,176.44L943.71,177.39" style="fill:none;stroke:#FF7AB4" />
<path d="M941.21,176.44L946.21,176.44" style="fill:none;stroke:#FF7AB4" />
<path d="M941.21,177.39L946.21,177.39" style="fill:none;stroke:#FF7AB4" />
<path d="M950.28,175.26L950.28,176.65" style="fill:none;stroke:#FF7AB4" />
<path d="M947.78,175.26L952.78,175.26" style="fill:none;stroke:#FF7AB4" />
<path d="M947.78,176.65L952.78,176.65" style="fill:none;stroke:#FF7AB4" />
<path d="M956.84,170.07L956.84,171.61" style="fill:none;stroke:#FF7AB4" />
<path d="M954.34,170.07L959.34,170.07" style="fill:none;stroke:#FF7AB4" />
<path d="M954.34,171.61L959.34,171.61" style="fill:none;stroke:#FF7AB4" />
<path d="M963.41,168.38L963.41,170.11" style="fill:none;stroke:#FF7AB4" />
<path d="M960.91,168.38L965.91,168.38" style="fill:none;stroke:#FF7AB4" />
<path d="M960.91,170.11L965.91,170.11" style="fill:none;stroke:#FF7AB4" />
<path d="M969.97,164.47L969.97,166.37" style="fill:none;stroke:#FF7AB4" />
<path d="M967.47,164.47L972.47,164.47" style="fill:none;stroke:#FF7AB4" />
<path d="M967.47,166.37L972.47,166.37" style="fill:none;stroke:#FF7AB4" />
<path d="M976.54,162.71L976.54,163.59" style="fill:none;stroke:#FF7AB4" />
<path d="M974.04,162.71L979.04,162.71" style="fill:none;stroke:#FF7AB4" />
<path d="M974.04,163.59L979.04,163.59" style="fill:none;stroke:#FF7AB4" />
<path d="M983.1,159.67L983.1,160.55" style="fill:none;stroke:#FF7AB4" />
<path d="M980.6,159.67L985.6,159.67" style="fill:none;stroke:#FF7AB4" />
<path d="M980.6,160.55L985.6,160.55" style="fill:none;stroke:#FF7AB4" />
<path d="M989.66,157.39L989.66,157.94" style="fill:none;stroke:#FF7AB4" />
<path d="M987.16,157.39L992.16,157.39" style="fill:none;stroke:#FF7AB4" />
<path d="M987.16,157.94L992.16,157.94" style="fill:none;stroke:#FF7AB4" />
<path d="M996.23,155.36L996.23,156.65" style="fill:none;stroke:#FF7AB4" />
<path d="M993.73,155.36L998.73,155.36" style="fill:none;stroke:#FF7AB4" />
<path d="M993.73,156.65L998.73,156.65" style="fill:none;stroke:#FF7AB4" />
<path d="M1002.8,153.87L1002.8,154.33" style="fill:none;stroke:#FF7AB4" />
<path d="M1000.3,153.87L1005.3,153.87" style="fill:none;stroke:#FF7AB4" />
<path d="M1000.3,154.33L1005.3,154.33" style="fill:none;stroke:#FF7AB4" />
<path d="M1009.4,151.7L1009.4,152.96" style="fill:none;stroke:#FF7AB4" />
<path d="M1006.9,151.7L1011.9,151.7" style="fill:none;stroke:#FF7AB4" />
<path d="M1006.9,152.96L1011.9,152.96" style="fill:none;stroke:#FF7AB4" />
<path d="M1015.9,148.84L1015.9,150.04" style="fill:none;stroke:#FF7AB4" />
<path d="M1013.4,148.84L1018.4,148.84" style="fill:none;stroke:#FF7AB4" />
<path d="M1013.4,150.04L1018.4,150.04" style="fill:none;stroke:#FF7AB4" />
<path d="M1022.5,146.11L1022.5,147.61" style="fill:none;stroke:#FF7AB4" />
<path d="M1020,146.11L1025,146.11" style="fill:none;stroke:#FF7AB4" />
<path d="M1020,147.61L1025,147.61" style="fill:none;stroke:#FF7AB4" />
<path d="M1029,145.08L1029,146.12" style="fill:none;stroke:#FF7AB4" />
<path d="M1026.5,145.08L1031.5,145.08" style="fill:none;stroke:#FF7AB4" />
<path d="M1026.5,146.12L1031.5,146.12" style="fill:none;stroke:#FF7AB4" />
<path d="M1035.6,143.57L1035.6,144.15" style="fill:none;stroke:#FF7AB4" />
<path d="M1033.1,143.57L1038.1,143.57" style="fill:none;stroke:#FF7AB4" />
<path d="M1033.1,144.15L1038.1,144.15" style="fill:none;stroke:#FF7AB4" />
<path d="M1042.2,141.91L1042.2,142.81" style="fill:none;stroke:#FF7AB4" />
<path d="M1039.7,141.91L1044.7,141.91" style="fill:none;stroke:#FF7AB4" />
<path d="M1039.7,142.81L1044.7,142.81" style="fill:none;stroke:#FF7AB4" />
<path d="M1048.7,140.35L1048.7,140.98" style="fill:none;stroke:#FF7AB4" />
<path d="M1046.2,140.35L1051.2,140.35" style="fill:none;stroke:#FF7AB4" />
<path d="M1046.2,140.98L1051.2,140.98" style="fill:none;stroke:#FF7AB4" />
<path d="M1055.3,138.24L1055.3,140.02" style="fill:none;stroke:#FF7AB4" />
<path d="M1052.8,138.24L1057.8,138.24" style="fill:none;stroke:#FF7AB4" />
<path d="M1052.8,140.02L1057.8,140.02" style="fill:none;stroke:#FF7AB4" />
<path d="M1061.9,137.1L1061.9,138.17" style="fill:none;stroke:#FF7AB4" />
<path d="M1059.4,137.1L1064.4,137.1" style="fill:none;stroke:#FF7AB4" />
<path d="M1059.4,138.17L1064.4,138.17" style="fill:none;stroke:#FF7AB4" />
<path d="M1068.4,136.8L1068.4,137.47" style="fill:none;stroke:#FF7AB4" />
<path d="M1065.9,136.8L1070.9,136.8" style="fill:none;stroke:#FF7AB4" />
<path d="M1065.9,137.47L1070.9,137.47" style="fill:none;stroke:#FF7AB4" />
<path d="M1075,134.8L1075,135.75" style="fill:none;stroke:#FF7AB4" />
<path d="M1072.5,134.8L1077.5,134.8" style="fill:none;stroke:#FF7AB4" />
<path d="M1072.5,135.75L1077.5,135.75" style="fill:none;stroke:#FF7AB4" />
<path d="M180.69,156.82A5,5 0 1 1 170.69,156.82A5,5 0 1 1 180.69,156.82Z" style="fill:#FF7AB4" />
<path d="M187.25,157.83A5,5 0 1 1 177.25,157.83A5,5 0 1 1 187.25,157.83Z" style="fill:#FF7AB4" />
<path d="M193.82,159.66A5,5 0 1 1 183.82,159.66A5,5 0 1 1 193.82,159.66Z" style="fill:#FF7AB4" />
<path d="M200.38,160.83A5,5 0 1 1 190.38,160.83A5,5 0 1 1 200.38,160.83Z" style="fill:#FF7AB4" />
<path d="M206.94,162.82A5,5 0 1 1 196.94,162.82A5,5 0 1 1 206.94,162.82Z" style="fill:#FF7AB4" />
<path d="M213.51,165A5,5 0 1 1 203.51,165A5,5 0 1 1 213.51,165Z" style="fill:#FF7AB4" />
<path d="M220.07,165.98A5,5 0 1 1 210.07,165.98A5,5 0 1 1 220.07,165.98Z" style="fill:#FF7AB4" />
<path d="M226.64,169.21A5,5 0 1 1 216.64,169.21A5,5 0 1 1 226.64,169.21Z" style="fill:#FF7AB4" />
<path d="M233.2,170.97A5,5 0 1 1 223.2,170.97A5,5 0 1 1 233.2,170.97Z" style="fill:#FF7AB4" />
<path d="M239.77,173.02A5,5 0 1 1 229.77,173.02A5,5 0 1 1 239.77,173.02Z" style="fill:#FF7AB4" />
<path d="M246.33,175.9A5,5 0 1 1 236.33,175.9A5,5 0 1 1 246.33,175.9Z" style="fill:#FF7AB4" />
<path d="M252.9,178.18A5,5 0 1 1 242.9,178.18A5,5 0 1 1 252.9,178.18Z" style="fill:#FF7AB4" />
<path d="M259.46,180.14A5,5 0 1 1 249.46,180.14A5,5 0 1 1 259.46,180.14Z" style="fill:#FF7AB4" />
<path d="M266.02,184.18A5,5 0 1 1 256.02,184.18A5,5 0 1 1 266.02,184.18Z" style="fill:#FF7AB4" />
<path d="M272.59,185.81A5,5 0 1 1 262.59,185.81A5,5 0 1 1 272.59,185.81Z" style="fill:#FF7AB4" />
<path d="M279.15,188.65A5,5 0 1 1 269.15,188.65A5,5 0 1 1 279.15,188.65Z" style="fill:#FF7AB4" />
<path d="M285.72,192.35A5,5 0 1 1 275.72,192.35A5,5 0 1 1 285.72,192.35Z" style="fill:#FF7AB4" />
<path d="M292.28,193.34A5,5 0 1 1 282.28,193.34A5,5 0 1 1 292.28,193.34Z" style="fill:#FF7AB4" />
<path d="M298.85,197.98A5,5 0 1 1 288.85,197.98A5,5 0 1 1 298.85,197.98Z" style="fill:#FF7AB4" />
<path d="M305.41,200.66A5,5 0 1 1 295.41,200.66A5,5 0 1 1 305.41,200.66Z" style="fill:#FF7AB4" />
<path d="M311.97,203.48A5,5 0 1 1 301.97,203.48A5,5 0 1 1 311.97,203.48Z" style="fill:#FF7AB4" />
<path d="M318.54,207.22A5,5 0 1 1 308.54,207.22A5,5 0 1 1 318.54,207.22Z" style="fill:#FF7AB4" />
<path d="M325.1,210.67A5,5 0 1 1 315.1,210.67A5,5 0 1 1 325.1,210.67Z" style="fill:#FF7AB4" />
<path d="M331.67,216.38A5,5 0 1 1 321.67,216.38A5,5 0 1 1 331.67,216.38Z" style="fill:#FF7AB4" />
<path d="M338.23,220.38A5,5 0 1 1 328.23,220.38A5,5 0 1 1 338.23,220.38Z" style="fill:#FF7AB4" />
<path d="M344.8,221.82A5,5 0 1 1 334.8,221.82A5,5 0 1 1 344.8,221.82Z" style="fill:#FF7AB4" />
<path d="M351.36,227.02A5,5 0 1 1 341.36,227.02A5,5 0 1 1 351.36,227.02Z" style="fill:#FF7AB4" />
<path d="M357.92,230.44A5,5 0 1 1 347.92,230.44A5,5 0 1 1 357.92,230.44Z" style="fill:#FF7AB4" />
<path d="M364.49,234.84A5,5 0 1 1 354.49,234.84A5,5 0 1 1 364.49,234.84Z" style="fill:#FF7AB4" />
<path d="M371.05,241.37A5,5 0 1 1 361.05,241.37A5,5 0 1 1 371.05,241.37Z" style="fill:#FF7AB4" />
<path d="M377.62,243.82A5,5 0 1 1 367.62,243.82A5,5 0 1 1 377.62,243.82Z" style="fill:#FF7AB4" />
<path d="M384.18,249.74A5,5 0 1 1 374.18,249.74A5,5 0 1 1 384.18,249.74Z" style="fill:#FF7AB4" />
<path d="M390.75,254.94A5,5 0 1 1 380.75,254.94A5,5 0 1 1 390.75,254.94Z" style="fill:#FF7AB4" />
<path d="M397.31,260.61A5,5 0 1 1 387.31,260.61A5,5 0 1 1 397.31,260.61Z" style="fill:#FF7AB4" />
<path d="M403.87,267.46A5,5 0 1 1 393.87,267.46A5,5 0 1 1 403.87,267.46Z" style="fill:#FF7AB4" />
<path d="M410.44,272.17A5,5 0 1 1 400.44,272.17A5,5 0 1 1 410.44,272.17Z" style="fill:#FF7AB4" />
<path d="M417,277.44A5,5 0 1 1 407,277.44A5,5 0 1 1 417,277.44Z" style="fill:#FF7AB4" />
<path d="M423.57,284.37A5,5 0 1 1 413.57,284.37A5,5 0 1 1 423.57,284.37Z" style="fill:#FF7AB4" />
<path d="M430.13,294.5A5,5 0 1 1 420.13,294.5A5,5 0 1 1 430.13,294.5Z" style="fill:#FF7AB4" />
<path d="M436.7,300.28A5,5 0 1 1 426.7,300.28A5,5 0 1 1 436.7,300.28Z" style="fill:#FF7AB4" />
<path d="M443.26,307.09A5,5 0 1 1 433.26,307.09A5,5 0 1 1 443.26,307.09Z" style="fill:#FF7AB4" />
<path d="M449.82,314.76A5,5 0 1 1 439.82,314.76A5,5 0 1 1 449.82,314.76Z" style="fill:#FF7AB4" />
<path d="M456.39,322.9A5,5 0 1 1 446.39,322.9A5,5 0 1 1 456.39,322.9Z" style="fill:#FF7AB4" />
<path d="M462.95,331.89A5,5 0 1 1 452.95,331.89A5,5 0 1 1 462.95,331.89Z" style="fill:#FF7AB4" />
<path d="M469.52,336.49A5,5 0 1 1 459.52,336.49A5,5 0 1 1 469.52,336.49Z" style="fill:#FF7AB4" />
<path d="M476.08,344.88A5,5 0 1 1 466.08,344.88A5,5 0 1 1 476.08,344.88Z" style="fill:#FF7AB4" />
<path d="M482.65,361.69A5,5 0 1 1 472.65,361.69A5,5 0 1 1 482.65,361.69Z" style="fill:#FF7AB4" />
<path d="M489.21,366.38A5,5 0 1 1 479.21,366.38A5,5 0 1 1 489.21,366.38Z" style="fill:#FF7AB4" />
<path d="M495.78,377.47A5,5 0 1 1 485.78,377.47A5,5 0 1 1 495.78,377.47Z" style="fill:#FF7AB4" />
<path d="M502.34,389.36A5,5 0 1 1 492.34,389.36A5,5 0 1 1 502.34,389.36Z" style="fill:#FF7AB4" />
<path d="M508.9,399.63A5,5 0 1 1 498.9,399.63A5,5 0 1 1 508.9,399.63Z" style="fill:#FF7AB4" />
<path d="M515.47,414.32A5,5 0 1 1 505.47,414.32A5,5 0 1 1 515.47,414.32Z" style="fill:#FF7AB4" />
<path d="M522.03,422.89A5,5 0 1 1 512.03,422.89A5,5 0 1 1 522.03,422.89Z" style="fill:#FF7AB4" />
<path d="M528.6,440.95A5,5 0 1 1 518.6,440.95A5,5 0 1 1 528.6,440.95Z" style="fill:#FF7AB4" />
<path d="M535.16,449.71A5,5 0 1 1 525.16,449.71A5,5 0 1 1 535.16,449.71Z" style="fill:#FF7AB4" />
<path d="M541.73,466.98A5,5 0 1 1 531.73,466.98A5,5 0 1 1 541.73,466.98Z" style="fill:#FF7AB4" />
<path d="M548.29,482.08A5,5 0 1 1 538.29,482.08A5,5 0 1 1 548.29,482.08Z" style="fill:#FF7AB4" />
<path d="M554.85,496.54A5,5 0 1 1 544.85,496.54A5,5 0 1 1 554.85,496.54Z" style="fill:#FF7AB4" />
<path d="M561.42,516.18A5,5 0 1 1 551.42,516.18A5,5 0 1 1 561.42,516.18Z" style="fill:#FF7AB4" />
<path d="M567.98,531.67A5,5 0 1 1 557.98,531.67A5,5 0 1 1 567.98,531.67Z" style="fill:#FF7AB4" />
<path d="M574.55,544.67A5,5 0 1 1 564.55,544.67A5,5 0 1 1 574.55,544.67Z" style="fill:#FF7AB4" />
<path d="M581.11,566.31A5,5 0 1 1 571.11,566.31A5,5 0 1 1 581.11,566.31Z" style="fill:#FF7AB4" />
<path d="M587.68,582.62A5,5 0 1 1 577.68,582.62A5,5 0 1 1 587.68,582.62Z" style="fill:#FF7AB4" />
<path d="M594.24,597.58A5,5 0 1 1 584.24,597.58A5,5 0 1 1 594.24,597.58Z" style="fill:#FF7AB4" />
<path d="M600.8,607.76A5,5 0 1 1 590.8,607.76A5,5 0 1 1 600.8,607.76Z" style="fill:#FF7AB4" />
<path d="M607.37,630.86A5,5 0 1 1 597.37,630.86A5,5 0 1 1 607.37,630.86Z" style="fill:#FF7AB4" />
<path d="M613.93,645.11A5,5 0 1 1 603.93,645.11A5,5 0 1 1 613.93,645.11Z" style="fill:#FF7AB4" />
<path d="M620.5,658.54A5,5 0 1 1 610.5,658.54A5,5 0 1 1 620.5,658.54Z" style="fill:#FF7AB4" />
<path d="M627.06,670.37A5,5 0 1 1 617.06,670.37A5,5 0 1 1 627.06,670.37Z" style="fill:#FF7AB4" />
<path d="M633.63,686.19A5,5 0 1 1 623.63,686.19A5,5 0 1 1 633.63,686.19Z" style="fill:#FF7AB4" />
<path d="M640.19,692.55A5,5 0 1 1 630.19,692.55A5,5 0 1 1 640.19,692.55Z" style="fill:#FF7AB4" />
<path d="M646.75,694.83A5,5 0 1 1 636.75,694.83A5,5 0 1 1 646.75,694.83Z" style="fill:#FF7AB4" />
<path d="M653.32,692.73A5,5 0 1 1 643.32,692.73A5,5 0 1 1 653.32,692.73Z" style="fill:#FF7AB4" />
<path d="M659.88,684.76A5,5 0 1 1 649.88,684.76A5,5 0 1 1 659.88,684.76Z" style="fill:#FF7AB4" />
<path d="M666.45,679.72A5,5 0 1 1 656.45,679.72A5,5 0 1 1 666.45,679.72Z" style="fill:#FF7AB4" />
<path d="M673.01,671.15A5,5 0 1 1 663.01,671.15A5,5 0 1 1 673.01,671.15Z" style="fill:#FF7AB4" />
<path d="M679.58,647.12A5,5 0 1 1 669.58,647.12A5,5 0 1 1 679.58,647.12Z" style="fill:#FF7AB4" />
<path d="M686.14,634.82A5,5 0 1 1 676.14,634.82A5,5 0 1 1 686.14,634.82Z" style="fill:#FF7AB4" />
<path d="M692.7,619.9A5,5 0 1 1 682.7,619.9A5,5 0 1 1 692.7,619.9Z" style="fill:#FF7AB4" />
<path d="M699.27,589.7A5,5 0 1 1 689.27,589.7A5,5 0 1 1 699.27,589.7Z" style="fill:#FF7AB4" />
<path d="M705.83,574.42A5,5 0 1 1 695.83,574.42A5,5 0 1 1 705.83,574.42Z" style="fill:#FF7AB4" />
<path d="M712.4,553.89A5,5 0 1 1 702.4,553.89A5,5 0 1 1 712.4,553.89Z" style="fill:#FF7AB4" />
<path d="M718.96,525.69A5,5 0 1 1 708.96,525.69A5,5 0 1 1 718.96,525.69Z" style="fill:#FF7AB4" />
<path d="M725.53,502.42A5,5 0 1 1 715.53,502.42A5,5 0 1 1 725.53,502.42Z" style="fill:#FF7AB4" />
<path d="M732.09,484.87A5,5 0 1 1 722.09,484.87A5,5 0 1 1 732.09,484.87Z" style="fill:#FF7AB4" />
<path d="M738.66,464.46A5,5 0 1 1 728.66,464.46A5,5 0 1 1 738.66,464.46Z" style="fill:#FF7AB4" />
<path d="M745.22,442.54A5,5 0 1 1 735.22,442.54A5,5 0 1 1 745.22,442.54Z" style="fill:#FF7AB4" />
<path d="M751.78,425.13A5,5 0 1 1 741.78,425.13A5,5 0 1 1 751.78,425.13Z" style="fill:#FF7AB4" />
<path d="M758.35,408.19A5,5 0 1 1 748.35,408.19A5,5 0 1 1 758.35,408.19Z" style="fill:#FF7AB4" />
<path d="M764.91,394.2A5,5 0 1 1 754.91,394.2A5,5 0 1 1 764.91,394.2Z" style="fill:#FF7AB4" />
<path d="M771.48,378.49A5,5 0 1 1 761.48,378.49A5,5 0 1 1 771.48,378.49Z" style="fill:#FF7AB4" />
<path d="M778.04,363.96A5,5 0 1 1 768.04,363.96A5,5 0 1 1 778.04,363.96Z" style="fill:#FF7AB4" />
<path d="M784.61,346.82A5,5 0 1 1 774.61,346.82A5,5 0 1 1 784.61,346.82Z" style="fill:#FF7AB4" />
<path d="M791.17,335.35A5,5 0 1 1 781.17,335.35A5,5 0 1 1 791.17,335.35Z" style="fill:#FF7AB4" />
<path d="M797.73,325.22A5,5 0 1 1 787.73,325.22A5,5 0 1 1 797.73,325.22Z" style="fill:#FF7AB4" />
<path d="M804.3,310.91A5,5 0 1 1 794.3,310.91A5,5 0 1 1 804.3,310.91Z" style="fill:#FF7AB4" />
<path d="M810.86,302.64A5,5 0 1 1 800.86,302.64A5,5 0 1 1 810.86,302.64Z" style="fill:#FF7AB4" />
<path d="M817.43,292.68A5,5 0 1 1 807.43,292.68A5,5 0 1 1 817.43,292.68Z" style="fill:#FF7AB4" />
<path d="M823.99,281.98A5,5 0 1 1 813.99,281.98A5,5 0 1 1 823.99,281.98Z" style="fill:#FF7AB4" />
<path d="M830.56,272.38A5,5 0 1 1 820.56,272.38A5,5 0 1 1 830.56,272.38Z" style="fill:#FF7AB4" />
<path d="M837.12,267.31A5,5 0 1 1 827.12,267.31A5,5 0 1 1 837.12,267.31Z" style="fill:#FF7AB4" />
<path d="M843.68,259.08A5,5 0 1 1 833.68,259.08A5,5 0 1 1 843.68,259.08Z" style="fill:#FF7AB4" />
<path d="M850.25,249.5A5,5 0 1 1 840.25,249.5A5,5 0 1 1 850.25,249.5Z" style="fill:#FF7AB4" />
<path d="M856.81,243.49A5,5 0 1 1 846.81,243.49A5,5 0 1 1 856.81,243.49Z" style="fill:#FF7AB4" />
<path d="M863.38,236.17A5,5 0 1 1 853.38,236.17A5,5 0 1 1 863.38,236.17Z" style="fill:#FF7AB4" />
<path d="M869.94,230.93A5,5 0 1 1 859.94,230.93A5,5 0 1 1 869.94,230.93Z" style="fill:#FF7AB4" />
<path d="M876.51,223.84A5,5 0 1 1 866.51,223.84A5,5 0 1 1 876.51,223.84Z" style="fill:#FF7AB4" />
<path d="M883.07,218.93A5,5 0 1 1 873.07,218.93A5,5 0 1 1 883.07,218.93Z" style="fill:#FF7AB4" />
<path d="M889.63,213.62A5,5 0 1 1 879.63,213.62A5,5 0 1 1 889.63,213.62Z" style="fill:#FF7AB4" />
<path d="M896.2,209.45A5,5 0 1 1 886.2,209.45A5,5 0 1 1 896.2,209.45Z" style="fill:#FF7AB4" />
<path d="M902.76,204.73A5,5 0 1 1 892.76,204.73A5,5 0 1 1 902.76,204.73Z" style="fill:#FF7AB4" />
<path d="M909.33,199.24A5,5 0 1 1 899.33,199.24A5,5 0 1 1 909.33,199.24Z" style="fill:#FF7AB4" />
<path d="M915.89,193.86A5,5 0 1 1 905.89,193.86A5,5 0 1 1 915.89,193.86Z" style="fill:#FF7AB4" />
<path d="M922.46,191.85A5,5 0 1 1 912.46,191.85A5,5 0 1 1 922.46,191.85Z" style="fill:#FF7AB4" />
<path d="M929.02,185.93A5,5 0 1 1 919.02,185.93A5,5 0 1 1 929.02,185.93Z" style="fill:#FF7AB4" />
<path d="M935.58,184.8A5,5 0 1 1 925.58,184.8A5,5 0 1 1 935.58,184.8Z" style="fill:#FF7AB4" />
<path d="M942.15,180.45A5,5 0 1 1 932.15,180.45A5,5 0 1 1 942.15,180.45Z" style="fill:#FF7AB4" />
<path d="M948.71,176.91A5,5 0 1 1 938.71,176.91A5,5 0 1 1 948.71,176.91Z" style="fill:#FF7AB4" />
<path d="M955.28,175.96A5,5 0 1 1 945.28,175.96A5,5 0 1 1 955.28,175.96Z" style="fill:#FF7AB4" />
<path d="M961.84,170.84A5,5 0 1 1 951.84,170.84A5,5 0 1 1 961.84,170.84Z" style="fill:#FF7AB4" />
<path d="M968.41,169.25A5,5 0 1 1 958.41,169.25A5,5 0 1 1 968.41,169.25Z" style="fill:#FF7AB4" />
<path d="M974.97,165.42A5,5 0 1 1 964.97,165.42A5,5 0 1 1 974.97,165.42Z" style="fill:#FF7AB4" />
<path d="M981.54,163.15A5,5 0 1 1 971.54,163.15A5,5 0 1 1 981.54,163.15Z" style="fill:#FF7AB4" />
<path d="M988.1,160.11A5,5 0 1 1 978.1,160.11A5,5 0 1 1 988.1,160.11Z" style="fill:#FF7AB4" />
<path d="M994.66,157.66A5,5 0 1 1 984.66,157.66A5,5 0 1 1 994.66,157.66Z" style="fill:#FF7AB4" />
<path d="M1001.2,156A5,5 0 1 1 991.23,156A5,5 0 1 1 1001.2,156Z" style="fill:#FF7AB4" />
<path d="M1007.8,154.1A5,5 0 1 1 997.79,154.1A5,5 0 1 1 1007.8,154.1Z" style="fill:#FF7AB4" />
<path d="M1014.4,152.33A5,5 0 1 1 1004.4,152.33A5,5 0 1 1 1014.4,152.33Z" style="fill:#FF7AB4" />
<path d="M1020.9,149.44A5,5 0 1 1 1010.9,149.44A5,5 0 1 1 1020.9,149.44Z" style="fill:#FF7AB4" />
<path d="M1027.5,146.86A5,5 0 1 1 1017.5,146.86A5,5 0 1 1 1027.5,146.86Z" style="fill:#FF7AB4" />
<path d="M1034,145.6A5,5 0 1 1 1024,145.6A5,5 0 1 1 1034,145.6Z" style="fill:#FF7AB4" />
<path d="M1040.6,143.86A5,5 0 1 1 1030.6,143.86A5,5 0 1 1 1040.6,143.86Z" style="fill:#FF7AB4" />
<path d="M1047.2,142.36A5,5 0 1 1 1037.2,142.36A5,5 0 1 1 1047.2,142.36Z" style="fill:#FF7AB4" />
<path d="M1053.7,140.66A5,5 0 1 1 1043.7,140.66A5,5 0 1 1 1053.7,140.66Z" style="fill:#FF7AB4" />
<path d="M1060.3,139.13A5,5 0 1 1 1050.3,139.13A5,5 0 1 1 1060.3,139.13Z" style="fill:#FF7AB4" />
<path d="M1066.9,137.64A5,5 0 1 1 1056.9,137.64A5,5 0 1 1 1066.9,137.64Z" style="fill:#FF7AB4" />
<path d="M1073.4,137.14A5,5 0 1 1 1063.4,137.14A5,5 0 1 1 1073.4,137.14Z" style="fill:#FF7AB4" />
<path d="M1080,135.27A5,5 0 1 1 1070,135.27A5,5 0 1 1 1080,135.27Z" style="fill:#FF7AB4" />
<path d="M175.69,974.14L1075,974.14" style="fill:none;stroke:#000000" />
<path d="M1075,108.82L1075,974.14" style="fill:none;stroke:#000000" />
<path d="M1038,952.49A8,8 0 1 1 1022,952.49A8,8 0 1 1 1038,952.49Z" style="fill:#1FD3AC" />
<text x="917.87" y="-945.9" transform="scale(1, -1)"
	style="font-family:Helvetica;font-weight:normal;font-style:normal;font-size:28px">5 GHz</text>
<path d="M1038,918.06A8,8 0 1 1 1022,918.06A8,8 0 1 1 1038,918.06Z" style="fill:#FF7AB4" />
<text x="894.52" y="-911.46" transform="scale(1, -1)"
	style="font-family:Helvetica;font-weight:normal;font-style:normal;font-size:28px">5.5 GHz</text>
</g>
</svg>
