<?xml version="1.0"?>
<!-- Generated by SVGo and Plotinum VG -->
<svg width="1080pt" height="1080pt" viewBox="0 0 1080 1080"
	xmlns="http://www.w3.org/2000/svg"
	xmlns:xlink="http://www.w3.org/1999/xlink">
<g transform="scale(1, -1) translate(0, -1080)">
<path d="M0,0L1080,0L1080,1080L0,1080Z" style="fill:#-8000000000000000-8000000000000000-8000000000000000;fill-opacity:0" />
<text x="312.12" y="-1039.5" transform="scale(1, -1)"
	style="font-family:Helvetica;font-weight:normal;font-style:normal;font-size:50px">Linewidths vs Power</text>
<text x="495.95" y="-11.039" transform="scale(1, -1)"
	style="font-family:Helvetica;font-weight:normal;font-style:normal;font-size:36px">Power (mW)</text>
<text x="348.91" y="-71.258" transform="scale(1, -1)"
	style="font-family:Helvetica;font-weight:normal;font-style:normal;font-size:36px">50</text>
<text x="565.91" y="-71.258" transform="scale(1, -1)"
	style="font-family:Helvetica;font-weight:normal;font-style:normal;font-size:36px">100</text>
<text x="792.92" y="-71.258" transform="scale(1, -1)"
	style="font-family:Helvetica;font-weight:normal;font-style:normal;font-size:36px">150</text>
<text x="1019.9" y="-71.258" transform="scale(1, -1)"
	style="font-family:Helvetica;font-weight:normal;font-style:normal;font-size:36px">200</text>
<path d="M141.91,112.44L141.91,108.44" style="fill:none;stroke:#000000;stroke-width:1.5" />
<path d="M255.42,112.44L255.42,108.44" style="fill:none;stroke:#000000;stroke-width:1.5" />
<path d="M368.93,116.44L368.93,108.44" style="fill:none;stroke:#000000;stroke-width:1.5" />
<path d="M482.43,112.44L482.43,108.44" style="fill:none;stroke:#000000;stroke-width:1.5" />
<path d="M595.94,116.44L595.94,108.44" style="fill:none;stroke:#000000;stroke-width:1.5" />
<path d="M709.45,112.44L709.45,108.44" style="fill:none;stroke:#000000;stroke-width:1.5" />
<path d="M822.95,116.44L822.95,108.44" style="fill:none;stroke:#000000;stroke-width:1.5" />
<path d="M936.46,112.44L936.46,108.44" style="fill:none;stroke:#000000;stroke-width:1.5" />
<path d="M1050,116.44L1050,108.44" style="fill:none;stroke:#000000;stroke-width:1.5" />
<path d="M141.91,108.44L1050,108.44" style="fill:none;stroke:#000000;stroke-width:1.5" />
<g transform="rotate(90)">
<text x="348.53" y="29.18" transform="scale(1, -1)"
	style="font-family:Helvetica;font-weight:normal;font-style:normal;font-size:36px">Dissipation Rate (MHz)</text>
</g>
<text x="67.848" y="-381.42" transform="scale(1, -1)"
	style="font-family:Helvetica;font-weight:normal;font-style:normal;font-size:36px">100</text>
<text x="67.848" y="-667.59" transform="scale(1, -1)"
	style="font-family:Helvetica;font-weight:normal;font-style:normal;font-size:36px">200</text>
<text x="67.848" y="-953.77" transform="scale(1, -1)"
	style="font-family:Helvetica;font-weight:normal;font-style:normal;font-size:36px">300</text>
<path d="M149.91,104.32L145.91,104.32" style="fill:none;stroke:#000000;stroke-width:1.5" />
<path d="M149.91,247.4L145.91,247.4" style="fill:none;stroke:#000000;stroke-width:1.5" />
<path d="M153.91,390.49L145.91,390.49" style="fill:none;stroke:#000000;stroke-width:1.5" />
<path d="M149.91,533.58L145.91,533.58" style="fill:none;stroke:#000000;stroke-width:1.5" />
<path d="M153.91,676.66L145.91,676.66" style="fill:none;stroke:#000000;stroke-width:1.5" />
<path d="M149.91,819.75L145.91,819.75" style="fill:none;stroke:#000000;stroke-width:1.5" />
<path d="M153.91,962.84L145.91,962.84" style="fill:none;stroke:#000000;stroke-width:1.5" />
<path d="M145.91,104.32L145.91,962.84" style="fill:none;stroke:#000000;stroke-width:1.5" />
<path d="M1000,510.3L950.08,500.71L895.6,490.25L841.12,479.79L791.17,470.2L750.31,462.36L700.37,452.77L623.18,437.96L568.7,427.5L523.3,418.78L473.35,409.2L418.87,398.74L337.15,383.05L287.2,373.46L250.88,366.49L205.48,357.77" style="fill:none;stroke:#637CC6;stroke-width:3" />
<path d="M1000,285.77L950.08,279.43L895.6,272.52L841.12,265.6L791.17,259.26L750.31,254.08L700.37,247.74L623.18,237.94L568.7,231.03L523.3,225.27L473.35,218.93L418.87,212.02L337.15,201.64L287.2,195.3L250.88,190.7L205.48,184.93" style="fill:none;stroke:#C96892;stroke-width:3" />
<path d="M1006,443.94A6,6 0 1 1 994.02,443.94A6,6 0 1 1 1006,443.94Z" style="fill:#637CC6" />
<path d="M956.08,420.48A6,6 0 1 1 944.08,420.48A6,6 0 1 1 956.08,420.48Z" style="fill:#637CC6" />
<path d="M901.6,483.78A6,6 0 1 1 889.6,483.78A6,6 0 1 1 901.6,483.78Z" style="fill:#637CC6" />
<path d="M847.12,480.92A6,6 0 1 1 835.12,480.92A6,6 0 1 1 847.12,480.92Z" style="fill:#637CC6" />
<path d="M797.17,479.33A6,6 0 1 1 785.17,479.33A6,6 0 1 1 797.17,479.33Z" style="fill:#637CC6" />
<path d="M756.31,489.57A6,6 0 1 1 744.31,489.57A6,6 0 1 1 756.31,489.57Z" style="fill:#637CC6" />
<path d="M706.37,480.41A6,6 0 1 1 694.37,480.41A6,6 0 1 1 706.37,480.41Z" style="fill:#637CC6" />
<path d="M629.18,467.26A6,6 0 1 1 617.18,467.26A6,6 0 1 1 629.18,467.26Z" style="fill:#637CC6" />
<path d="M574.7,471.43A6,6 0 1 1 562.7,471.43A6,6 0 1 1 574.7,471.43Z" style="fill:#637CC6" />
<path d="M529.3,464.83A6,6 0 1 1 517.3,464.83A6,6 0 1 1 529.3,464.83Z" style="fill:#637CC6" />
<path d="M479.35,470.08A6,6 0 1 1 467.35,470.08A6,6 0 1 1 479.35,470.08Z" style="fill:#637CC6" />
<path d="M424.87,479.64A6,6 0 1 1 412.87,479.64A6,6 0 1 1 424.87,479.64Z" style="fill:#637CC6" />
<path d="M343.15,495.04A6,6 0 1 1 331.15,495.04A6,6 0 1 1 343.15,495.04Z" style="fill:#637CC6" />
<path d="M293.2,308.12A6,6 0 1 1 281.2,308.12A6,6 0 1 1 293.2,308.12Z" style="fill:#637CC6" />
<path d="M256.88,290.59A6,6 0 1 1 244.88,290.59A6,6 0 1 1 256.88,290.59Z" style="fill:#637CC6" />
<path d="M211.48,213.92A6,6 0 1 1 199.48,213.92A6,6 0 1 1 211.48,213.92Z" style="fill:#637CC6" />
<path d="M1006,377.96A6,6 0 1 1 994.02,377.96A6,6 0 1 1 1006,377.96Z" style="fill:#C96892" />
<path d="M956.08,358.18A6,6 0 1 1 944.08,358.18A6,6 0 1 1 956.08,358.18Z" style="fill:#C96892" />
<path d="M901.6,202.18A6,6 0 1 1 889.6,202.18A6,6 0 1 1 901.6,202.18Z" style="fill:#C96892" />
<path d="M847.12,215.77A6,6 0 1 1 835.12,215.77A6,6 0 1 1 847.12,215.77Z" style="fill:#C96892" />
<path d="M797.17,215.39A6,6 0 1 1 785.17,215.39A6,6 0 1 1 797.17,215.39Z" style="fill:#C96892" />
<path d="M756.31,217.83A6,6 0 1 1 744.31,217.83A6,6 0 1 1 756.31,217.83Z" style="fill:#C96892" />
<path d="M706.37,219.37A6,6 0 1 1 694.37,219.37A6,6 0 1 1 706.37,219.37Z" style="fill:#C96892" />
<path d="M629.18,222.27A6,6 0 1 1 617.18,222.27A6,6 0 1 1 629.18,222.27Z" style="fill:#C96892" />
<path d="M574.7,227.34A6,6 0 1 1 562.7,227.34A6,6 0 1 1 574.7,227.34Z" style="fill:#C96892" />
<path d="M529.3,228.89A6,6 0 1 1 517.3,228.89A6,6 0 1 1 529.3,228.89Z" style="fill:#C96892" />
<path d="M479.35,229.41A6,6 0 1 1 467.35,229.41A6,6 0 1 1 479.35,229.41Z" style="fill:#C96892" />
<path d="M424.87,235.31A6,6 0 1 1 412.87,235.31A6,6 0 1 1 424.87,235.31Z" style="fill:#C96892" />
<path d="M343.15,245.52A6,6 0 1 1 331.15,245.52A6,6 0 1 1 343.15,245.52Z" style="fill:#C96892" />
<path d="M293.2,203.61A6,6 0 1 1 281.2,203.61A6,6 0 1 1 293.2,203.61Z" style="fill:#C96892" />
<path d="M256.88,197.82A6,6 0 1 1 244.88,197.82A6,6 0 1 1 256.88,197.82Z" style="fill:#C96892" />
<path d="M211.48,165.32A6,6 0 1 1 199.48,165.32A6,6 0 1 1 211.48,165.32Z" style="fill:#C96892" />
<path d="M980,867.02L1030,867.02" style="fill:none;stroke:#637CC6;stroke-width:3" />
<text x="785.92" y="-858.54" transform="scale(1, -1)"
	style="font-family:Helvetica;font-weight:normal;font-style:normal;font-size:36px">Anti-Stokes</text>
<path d="M980,825.61L1030,825.61" style="fill:none;stroke:#C96892;stroke-width:3" />
<text x="859.94" y="-817.13" transform="scale(1, -1)"
	style="font-family:Helvetica;font-weight:normal;font-style:normal;font-size:36px">Stokes</text>
</g>
</svg>
