<?xml version="1.0"?>
<!-- Generated by SVGo and Plotinum VG -->
<svg width="1080pt" height="1080pt" viewBox="0 0 1080 1080"
	xmlns="http://www.w3.org/2000/svg"
	xmlns:xlink="http://www.w3.org/1999/xlink">
<g transform="scale(1, -1) translate(0, -1080)">
<path d="M0,0L1080,0L1080,1080L0,1080Z" style="fill:#-8000000000000000-8000000000000000-8000000000000000;fill-opacity:0" />
<text x="319.11" y="-1039.5" transform="scale(1, -1)"
	style="font-family:Helvetica;font-weight:normal;font-style:normal;font-size:50px">1 cm UHNA3 CABS</text>
<text x="475.05" y="-11.039" transform="scale(1, -1)"
	style="font-family:Helvetica;font-weight:normal;font-style:normal;font-size:36px">Frequency (GHz)</text>
<text x="111.13" y="-71.258" transform="scale(1, -1)"
	style="font-family:Helvetica;font-weight:normal;font-style:normal;font-size:36px">8.75</text>
<text x="410.81" y="-71.258" transform="scale(1, -1)"
	style="font-family:Helvetica;font-weight:normal;font-style:normal;font-size:36px">9</text>
<text x="660.45" y="-71.258" transform="scale(1, -1)"
	style="font-family:Helvetica;font-weight:normal;font-style:normal;font-size:36px">9.25</text>
<text x="945.11" y="-71.258" transform="scale(1, -1)"
	style="font-family:Helvetica;font-weight:normal;font-style:normal;font-size:36px">9.5</text>
<path d="M146.16,116.44L146.16,108.44" style="fill:none;stroke:#000000;stroke-width:1.5" />
<path d="M283.49,112.44L283.49,108.44" style="fill:none;stroke:#000000;stroke-width:1.5" />
<path d="M420.82,116.44L420.82,108.44" style="fill:none;stroke:#000000;stroke-width:1.5" />
<path d="M558.15,112.44L558.15,108.44" style="fill:none;stroke:#000000;stroke-width:1.5" />
<path d="M695.48,116.44L695.48,108.44" style="fill:none;stroke:#000000;stroke-width:1.5" />
<path d="M832.81,112.44L832.81,108.44" style="fill:none;stroke:#000000;stroke-width:1.5" />
<path d="M970.14,116.44L970.14,108.44" style="fill:none;stroke:#000000;stroke-width:1.5" />
<path d="M1080,112.44L1080,108.44" style="fill:none;stroke:#000000;stroke-width:1.5" />
<path d="M146.16,108.44L1080,108.44" style="fill:none;stroke:#000000;stroke-width:1.5" />
<g transform="rotate(90)">
<text x="366.44" y="29.18" transform="scale(1, -1)"
	style="font-family:Helvetica;font-weight:normal;font-style:normal;font-size:36px">Spectral Density (mV)</text>
</g>
<text x="107.89" y="-99.746" transform="scale(1, -1)"
	style="font-family:Helvetica;font-weight:normal;font-style:normal;font-size:36px">0</text>
<text x="87.869" y="-222.38" transform="scale(1, -1)"
	style="font-family:Helvetica;font-weight:normal;font-style:normal;font-size:36px">50</text>
<text x="67.848" y="-345.01" transform="scale(1, -1)"
	style="font-family:Helvetica;font-weight:normal;font-style:normal;font-size:36px">100</text>
<text x="67.848" y="-467.65" transform="scale(1, -1)"
	style="font-family:Helvetica;font-weight:normal;font-style:normal;font-size:36px">150</text>
<text x="67.848" y="-590.28" transform="scale(1, -1)"
	style="font-family:Helvetica;font-weight:normal;font-style:normal;font-size:36px">200</text>
<path d="M153.91,108.82L145.91,108.82" style="fill:none;stroke:#000000;stroke-width:1.5" />
<path d="M149.91,170.13L145.91,170.13" style="fill:none;stroke:#000000;stroke-width:1.5" />
<path d="M153.91,231.45L145.91,231.45" style="fill:none;stroke:#000000;stroke-width:1.5" />
<path d="M149.91,292.77L145.91,292.77" style="fill:none;stroke:#000000;stroke-width:1.5" />
<path d="M153.91,354.08L145.91,354.08" style="fill:none;stroke:#000000;stroke-width:1.5" />
<path d="M149.91,415.4L145.91,415.4" style="fill:none;stroke:#000000;stroke-width:1.5" />
<path d="M153.91,476.72L145.91,476.72" style="fill:none;stroke:#000000;stroke-width:1.5" />
<path d="M149.91,538.04L145.91,538.04" style="fill:none;stroke:#000000;stroke-width:1.5" />
<path d="M153.91,599.35L145.91,599.35" style="fill:none;stroke:#000000;stroke-width:1.5" />
<path d="M145.91,108.82L145.91,974.14" style="fill:none;stroke:#000000;stroke-width:1.5" />
<path d="M151.66,128.75L151.66,129.05" style="fill:none;stroke:#FF7AB4" />
<path d="M149.16,128.75L154.16,128.75" style="fill:none;stroke:#FF7AB4" />
<path d="M149.16,129.05L154.16,129.05" style="fill:none;stroke:#FF7AB4" />
<path d="M157.16,128.48L157.16,128.75" style="fill:none;stroke:#FF7AB4" />
<path d="M154.66,128.48L159.66,128.48" style="fill:none;stroke:#FF7AB4" />
<path d="M154.66,128.75L159.66,128.75" style="fill:none;stroke:#FF7AB4" />
<path d="M162.66,127.92L162.66,128.32" style="fill:none;stroke:#FF7AB4" />
<path d="M160.16,127.92L165.16,127.92" style="fill:none;stroke:#FF7AB4" />
<path d="M160.16,128.32L165.16,128.32" style="fill:none;stroke:#FF7AB4" />
<path d="M168.16,127.63L168.16,128.13" style="fill:none;stroke:#FF7AB4" />
<path d="M165.66,127.63L170.66,127.63" style="fill:none;stroke:#FF7AB4" />
<path d="M165.66,128.13L170.66,128.13" style="fill:none;stroke:#FF7AB4" />
<path d="M173.65,127.72L173.65,128.05" style="fill:none;stroke:#FF7AB4" />
<path d="M171.15,127.72L176.15,127.72" style="fill:none;stroke:#FF7AB4" />
<path d="M171.15,128.05L176.15,128.05" style="fill:none;stroke:#FF7AB4" />
<path d="M179.15,127.4L179.15,127.86" style="fill:none;stroke:#FF7AB4" />
<path d="M176.65,127.4L181.65,127.4" style="fill:none;stroke:#FF7AB4" />
<path d="M176.65,127.86L181.65,127.86" style="fill:none;stroke:#FF7AB4" />
<path d="M184.65,127.27L184.65,127.57" style="fill:none;stroke:#FF7AB4" />
<path d="M182.15,127.27L187.15,127.27" style="fill:none;stroke:#FF7AB4" />
<path d="M182.15,127.57L187.15,127.57" style="fill:none;stroke:#FF7AB4" />
<path d="M190.15,127.31L190.15,127.63" style="fill:none;stroke:#FF7AB4" />
<path d="M187.65,127.31L192.65,127.31" style="fill:none;stroke:#FF7AB4" />
<path d="M187.65,127.63L192.65,127.63" style="fill:none;stroke:#FF7AB4" />
<path d="M195.65,126.93L195.65,127.52" style="fill:none;stroke:#FF7AB4" />
<path d="M193.15,126.93L198.15,126.93" style="fill:none;stroke:#FF7AB4" />
<path d="M193.15,127.52L198.15,127.52" style="fill:none;stroke:#FF7AB4" />
<path d="M201.15,126.81L201.15,127.42" style="fill:none;stroke:#FF7AB4" />
<path d="M198.65,126.81L203.65,126.81" style="fill:none;stroke:#FF7AB4" />
<path d="M198.65,127.42L203.65,127.42" style="fill:none;stroke:#FF7AB4" />
<path d="M206.64,126.63L206.64,127.1" style="fill:none;stroke:#FF7AB4" />
<path d="M204.14,126.63L209.14,126.63" style="fill:none;stroke:#FF7AB4" />
<path d="M204.14,127.1L209.14,127.1" style="fill:none;stroke:#FF7AB4" />
<path d="M212.14,126.46L212.14,126.8" style="fill:none;stroke:#FF7AB4" />
<path d="M209.64,126.46L214.64,126.46" style="fill:none;stroke:#FF7AB4" />
<path d="M209.64,126.8L214.64,126.8" style="fill:none;stroke:#FF7AB4" />
<path d="M217.64,126.49L217.64,126.73" style="fill:none;stroke:#FF7AB4" />
<path d="M215.14,126.49L220.14,126.49" style="fill:none;stroke:#FF7AB4" />
<path d="M215.14,126.73L220.14,126.73" style="fill:none;stroke:#FF7AB4" />
<path d="M223.14,126.43L223.14,126.77" style="fill:none;stroke:#FF7AB4" />
<path d="M220.64,126.43L225.64,126.43" style="fill:none;stroke:#FF7AB4" />
<path d="M220.64,126.77L225.64,126.77" style="fill:none;stroke:#FF7AB4" />
<path d="M228.64,126.37L228.64,126.72" style="fill:none;stroke:#FF7AB4" />
<path d="M226.14,126.37L231.14,126.37" style="fill:none;stroke:#FF7AB4" />
<path d="M226.14,126.72L231.14,126.72" style="fill:none;stroke:#FF7AB4" />
<path d="M234.13,126.34L234.13,126.67" style="fill:none;stroke:#FF7AB4" />
<path d="M231.63,126.34L236.63,126.34" style="fill:none;stroke:#FF7AB4" />
<path d="M231.63,126.67L236.63,126.67" style="fill:none;stroke:#FF7AB4" />
<path d="M239.63,126.33L239.63,126.78" style="fill:none;stroke:#FF7AB4" />
<path d="M237.13,126.33L242.13,126.33" style="fill:none;stroke:#FF7AB4" />
<path d="M237.13,126.78L242.13,126.78" style="fill:none;stroke:#FF7AB4" />
<path d="M245.13,126.37L245.13,126.81" style="fill:none;stroke:#FF7AB4" />
<path d="M242.63,126.37L247.63,126.37" style="fill:none;stroke:#FF7AB4" />
<path d="M242.63,126.81L247.63,126.81" style="fill:none;stroke:#FF7AB4" />
<path d="M250.63,126.39L250.63,126.67" style="fill:none;stroke:#FF7AB4" />
<path d="M248.13,126.39L253.13,126.39" style="fill:none;stroke:#FF7AB4" />
<path d="M248.13,126.67L253.13,126.67" style="fill:none;stroke:#FF7AB4" />
<path d="M256.13,126.68L256.13,126.93" style="fill:none;stroke:#FF7AB4" />
<path d="M253.63,126.68L258.63,126.68" style="fill:none;stroke:#FF7AB4" />
<path d="M253.63,126.93L258.63,126.93" style="fill:none;stroke:#FF7AB4" />
<path d="M261.63,126.56L261.63,126.95" style="fill:none;stroke:#FF7AB4" />
<path d="M259.13,126.56L264.13,126.56" style="fill:none;stroke:#FF7AB4" />
<path d="M259.13,126.95L264.13,126.95" style="fill:none;stroke:#FF7AB4" />
<path d="M267.12,126.86L267.12,127.22" style="fill:none;stroke:#FF7AB4" />
<path d="M264.62,126.86L269.62,126.86" style="fill:none;stroke:#FF7AB4" />
<path d="M264.62,127.22L269.62,127.22" style="fill:none;stroke:#FF7AB4" />
<path d="M272.62,126.9L272.62,127.42" style="fill:none;stroke:#FF7AB4" />
<path d="M270.12,126.9L275.12,126.9" style="fill:none;stroke:#FF7AB4" />
<path d="M270.12,127.42L275.12,127.42" style="fill:none;stroke:#FF7AB4" />
<path d="M278.12,126.96L278.12,127.31" style="fill:none;stroke:#FF7AB4" />
<path d="M275.62,126.96L280.62,126.96" style="fill:none;stroke:#FF7AB4" />
<path d="M275.62,127.31L280.62,127.31" style="fill:none;stroke:#FF7AB4" />
<path d="M283.62,127.16L283.62,127.39" style="fill:none;stroke:#FF7AB4" />
<path d="M281.12,127.16L286.12,127.16" style="fill:none;stroke:#FF7AB4" />
<path d="M281.12,127.39L286.12,127.39" style="fill:none;stroke:#FF7AB4" />
<path d="M289.12,127.54L289.12,127.71" style="fill:none;stroke:#FF7AB4" />
<path d="M286.62,127.54L291.62,127.54" style="fill:none;stroke:#FF7AB4" />
<path d="M286.62,127.71L291.62,127.71" style="fill:none;stroke:#FF7AB4" />
<path d="M294.61,128.03L294.61,128.27" style="fill:none;stroke:#FF7AB4" />
<path d="M292.11,128.03L297.11,128.03" style="fill:none;stroke:#FF7AB4" />
<path d="M292.11,128.27L297.11,128.27" style="fill:none;stroke:#FF7AB4" />
<path d="M300.11,128.16L300.11,128.78" style="fill:none;stroke:#FF7AB4" />
<path d="M297.61,128.16L302.61,128.16" style="fill:none;stroke:#FF7AB4" />
<path d="M297.61,128.78L302.61,128.78" style="fill:none;stroke:#FF7AB4" />
<path d="M305.61,128.48L305.61,129.06" style="fill:none;stroke:#FF7AB4" />
<path d="M303.11,128.48L308.11,128.48" style="fill:none;stroke:#FF7AB4" />
<path d="M303.11,129.06L308.11,129.06" style="fill:none;stroke:#FF7AB4" />
<path d="M311.11,128.87L311.11,129.39" style="fill:none;stroke:#FF7AB4" />
<path d="M308.61,128.87L313.61,128.87" style="fill:none;stroke:#FF7AB4" />
<path d="M308.61,129.39L313.61,129.39" style="fill:none;stroke:#FF7AB4" />
<path d="M316.61,129.56L316.61,129.98" style="fill:none;stroke:#FF7AB4" />
<path d="M314.11,129.56L319.11,129.56" style="fill:none;stroke:#FF7AB4" />
<path d="M314.11,129.98L319.11,129.98" style="fill:none;stroke:#FF7AB4" />
<path d="M322.11,129.88L322.11,130.47" style="fill:none;stroke:#FF7AB4" />
<path d="M319.61,129.88L324.61,129.88" style="fill:none;stroke:#FF7AB4" />
<path d="M319.61,130.47L324.61,130.47" style="fill:none;stroke:#FF7AB4" />
<path d="M327.6,130.56L327.6,131.02" style="fill:none;stroke:#FF7AB4" />
<path d="M325.1,130.56L330.1,130.56" style="fill:none;stroke:#FF7AB4" />
<path d="M325.1,131.02L330.1,131.02" style="fill:none;stroke:#FF7AB4" />
<path d="M333.1,131.19L333.1,131.49" style="fill:none;stroke:#FF7AB4" />
<path d="M330.6,131.19L335.6,131.19" style="fill:none;stroke:#FF7AB4" />
<path d="M330.6,131.49L335.6,131.49" style="fill:none;stroke:#FF7AB4" />
<path d="M338.6,131.92L338.6,132.27" style="fill:none;stroke:#FF7AB4" />
<path d="M336.1,131.92L341.1,131.92" style="fill:none;stroke:#FF7AB4" />
<path d="M336.1,132.27L341.1,132.27" style="fill:none;stroke:#FF7AB4" />
<path d="M344.1,132.63L344.1,133.07" style="fill:none;stroke:#FF7AB4" />
<path d="M341.6,132.63L346.6,132.63" style="fill:none;stroke:#FF7AB4" />
<path d="M341.6,133.07L346.6,133.07" style="fill:none;stroke:#FF7AB4" />
<path d="M349.6,133.49L349.6,133.86" style="fill:none;stroke:#FF7AB4" />
<path d="M347.1,133.49L352.1,133.49" style="fill:none;stroke:#FF7AB4" />
<path d="M347.1,133.86L352.1,133.86" style="fill:none;stroke:#FF7AB4" />
<path d="M355.09,134.35L355.09,134.58" style="fill:none;stroke:#FF7AB4" />
<path d="M352.59,134.35L357.59,134.35" style="fill:none;stroke:#FF7AB4" />
<path d="M352.59,134.58L357.59,134.58" style="fill:none;stroke:#FF7AB4" />
<path d="M360.59,135.06L360.59,135.34" style="fill:none;stroke:#FF7AB4" />
<path d="M358.09,135.06L363.09,135.06" style="fill:none;stroke:#FF7AB4" />
<path d="M358.09,135.34L363.09,135.34" style="fill:none;stroke:#FF7AB4" />
<path d="M366.09,135.96L366.09,136.31" style="fill:none;stroke:#FF7AB4" />
<path d="M363.59,135.96L368.59,135.96" style="fill:none;stroke:#FF7AB4" />
<path d="M363.59,136.31L368.59,136.31" style="fill:none;stroke:#FF7AB4" />
<path d="M371.59,137.05L371.59,137.47" style="fill:none;stroke:#FF7AB4" />
<path d="M369.09,137.05L374.09,137.05" style="fill:none;stroke:#FF7AB4" />
<path d="M369.09,137.47L374.09,137.47" style="fill:none;stroke:#FF7AB4" />
<path d="M377.09,138.16L377.09,138.71" style="fill:none;stroke:#FF7AB4" />
<path d="M374.59,138.16L379.59,138.16" style="fill:none;stroke:#FF7AB4" />
<path d="M374.59,138.71L379.59,138.71" style="fill:none;stroke:#FF7AB4" />
<path d="M382.59,139.42L382.59,139.77" style="fill:none;stroke:#FF7AB4" />
<path d="M380.09,139.42L385.09,139.42" style="fill:none;stroke:#FF7AB4" />
<path d="M380.09,139.77L385.09,139.77" style="fill:none;stroke:#FF7AB4" />
<path d="M388.08,140.81L388.08,141.12" style="fill:none;stroke:#FF7AB4" />
<path d="M385.58,140.81L390.58,140.81" style="fill:none;stroke:#FF7AB4" />
<path d="M385.58,141.12L390.58,141.12" style="fill:none;stroke:#FF7AB4" />
<path d="M393.58,142.25L393.58,142.66" style="fill:none;stroke:#FF7AB4" />
<path d="M391.08,142.25L396.08,142.25" style="fill:none;stroke:#FF7AB4" />
<path d="M391.08,142.66L396.08,142.66" style="fill:none;stroke:#FF7AB4" />
<path d="M399.08,143.77L399.08,144.31" style="fill:none;stroke:#FF7AB4" />
<path d="M396.58,143.77L401.58,143.77" style="fill:none;stroke:#FF7AB4" />
<path d="M396.58,144.31L401.58,144.31" style="fill:none;stroke:#FF7AB4" />
<path d="M404.58,145.29L404.58,145.85" style="fill:none;stroke:#FF7AB4" />
<path d="M402.08,145.29L407.08,145.29" style="fill:none;stroke:#FF7AB4" />
<path d="M402.08,145.85L407.08,145.85" style="fill:none;stroke:#FF7AB4" />
<path d="M410.08,146.91L410.08,147.46" style="fill:none;stroke:#FF7AB4" />
<path d="M407.58,146.91L412.58,146.91" style="fill:none;stroke:#FF7AB4" />
<path d="M407.58,147.46L412.58,147.46" style="fill:none;stroke:#FF7AB4" />
<path d="M415.57,148.98L415.57,149.64" style="fill:none;stroke:#FF7AB4" />
<path d="M413.07,148.98L418.07,148.98" style="fill:none;stroke:#FF7AB4" />
<path d="M413.07,149.64L418.07,149.64" style="fill:none;stroke:#FF7AB4" />
<path d="M421.07,151.19L421.07,151.98" style="fill:none;stroke:#FF7AB4" />
<path d="M418.57,151.19L423.57,151.19" style="fill:none;stroke:#FF7AB4" />
<path d="M418.57,151.98L423.57,151.98" style="fill:none;stroke:#FF7AB4" />
<path d="M426.57,153.53L426.57,154.52" style="fill:none;stroke:#FF7AB4" />
<path d="M424.07,153.53L429.07,153.53" style="fill:none;stroke:#FF7AB4" />
<path d="M424.07,154.52L429.07,154.52" style="fill:none;stroke:#FF7AB4" />
<path d="M432.07,156.36L432.07,157.37" style="fill:none;stroke:#FF7AB4" />
<path d="M429.57,156.36L434.57,156.36" style="fill:none;stroke:#FF7AB4" />
<path d="M429.57,157.37L434.57,157.37" style="fill:none;stroke:#FF7AB4" />
<path d="M437.57,159.07L437.57,160.28" style="fill:none;stroke:#FF7AB4" />
<path d="M435.07,159.07L440.07,159.07" style="fill:none;stroke:#FF7AB4" />
<path d="M435.07,160.28L440.07,160.28" style="fill:none;stroke:#FF7AB4" />
<path d="M443.07,162.1L443.07,163.2" style="fill:none;stroke:#FF7AB4" />
<path d="M440.57,162.1L445.57,162.1" style="fill:none;stroke:#FF7AB4" />
<path d="M440.57,163.2L445.57,163.2" style="fill:none;stroke:#FF7AB4" />
<path d="M448.56,165.64L448.56,166.51" style="fill:none;stroke:#FF7AB4" />
<path d="M446.06,165.64L451.06,165.64" style="fill:none;stroke:#FF7AB4" />
<path d="M446.06,166.51L451.06,166.51" style="fill:none;stroke:#FF7AB4" />
<path d="M454.06,169.3L454.06,169.98" style="fill:none;stroke:#FF7AB4" />
<path d="M451.56,169.3L456.56,169.3" style="fill:none;stroke:#FF7AB4" />
<path d="M451.56,169.98L456.56,169.98" style="fill:none;stroke:#FF7AB4" />
<path d="M459.56,173.83L459.56,174.56" style="fill:none;stroke:#FF7AB4" />
<path d="M457.06,173.83L462.06,173.83" style="fill:none;stroke:#FF7AB4" />
<path d="M457.06,174.56L462.06,174.56" style="fill:none;stroke:#FF7AB4" />
<path d="M465.06,178.23L465.06,179.2" style="fill:none;stroke:#FF7AB4" />
<path d="M462.56,178.23L467.56,178.23" style="fill:none;stroke:#FF7AB4" />
<path d="M462.56,179.2L467.56,179.2" style="fill:none;stroke:#FF7AB4" />
<path d="M470.56,183.02L470.56,184.2" style="fill:none;stroke:#FF7AB4" />
<path d="M468.06,183.02L473.06,183.02" style="fill:none;stroke:#FF7AB4" />
<path d="M468.06,184.2L473.06,184.2" style="fill:none;stroke:#FF7AB4" />
<path d="M476.05,188.18L476.05,189.53" style="fill:none;stroke:#FF7AB4" />
<path d="M473.55,188.18L478.55,188.18" style="fill:none;stroke:#FF7AB4" />
<path d="M473.55,189.53L478.55,189.53" style="fill:none;stroke:#FF7AB4" />
<path d="M481.55,194.34L481.55,195.63" style="fill:none;stroke:#FF7AB4" />
<path d="M479.05,194.34L484.05,194.34" style="fill:none;stroke:#FF7AB4" />
<path d="M479.05,195.63L484.05,195.63" style="fill:none;stroke:#FF7AB4" />
<path d="M487.05,200.5L487.05,201.88" style="fill:none;stroke:#FF7AB4" />
<path d="M484.55,200.5L489.55,200.5" style="fill:none;stroke:#FF7AB4" />
<path d="M484.55,201.88L489.55,201.88" style="fill:none;stroke:#FF7AB4" />
<path d="M492.55,207.61L492.55,209.04" style="fill:none;stroke:#FF7AB4" />
<path d="M490.05,207.61L495.05,207.61" style="fill:none;stroke:#FF7AB4" />
<path d="M490.05,209.04L495.05,209.04" style="fill:none;stroke:#FF7AB4" />
<path d="M498.05,215.47L498.05,217.1" style="fill:none;stroke:#FF7AB4" />
<path d="M495.55,215.47L500.55,215.47" style="fill:none;stroke:#FF7AB4" />
<path d="M495.55,217.1L500.55,217.1" style="fill:none;stroke:#FF7AB4" />
<path d="M503.55,223.95L503.55,225.27" style="fill:none;stroke:#FF7AB4" />
<path d="M501.05,223.95L506.05,223.95" style="fill:none;stroke:#FF7AB4" />
<path d="M501.05,225.27L506.05,225.27" style="fill:none;stroke:#FF7AB4" />
<path d="M509.04,233.32L509.04,234.91" style="fill:none;stroke:#FF7AB4" />
<path d="M506.54,233.32L511.54,233.32" style="fill:none;stroke:#FF7AB4" />
<path d="M506.54,234.91L511.54,234.91" style="fill:none;stroke:#FF7AB4" />
<path d="M514.54,243.61L514.54,245.35" style="fill:none;stroke:#FF7AB4" />
<path d="M512.04,243.61L517.04,243.61" style="fill:none;stroke:#FF7AB4" />
<path d="M512.04,245.35L517.04,245.35" style="fill:none;stroke:#FF7AB4" />
<path d="M520.04,254.86L520.04,256.67" style="fill:none;stroke:#FF7AB4" />
<path d="M517.54,254.86L522.54,254.86" style="fill:none;stroke:#FF7AB4" />
<path d="M517.54,256.67L522.54,256.67" style="fill:none;stroke:#FF7AB4" />
<path d="M525.54,266.88L525.54,269.19" style="fill:none;stroke:#FF7AB4" />
<path d="M523.04,266.88L528.04,266.88" style="fill:none;stroke:#FF7AB4" />
<path d="M523.04,269.19L528.04,269.19" style="fill:none;stroke:#FF7AB4" />
<path d="M531.04,280.21L531.04,282.51" style="fill:none;stroke:#FF7AB4" />
<path d="M528.54,280.21L533.54,280.21" style="fill:none;stroke:#FF7AB4" />
<path d="M528.54,282.51L533.54,282.51" style="fill:none;stroke:#FF7AB4" />
<path d="M536.53,294.5L536.53,297.1" style="fill:none;stroke:#FF7AB4" />
<path d="M534.03,294.5L539.03,294.5" style="fill:none;stroke:#FF7AB4" />
<path d="M534.03,297.1L539.03,297.1" style="fill:none;stroke:#FF7AB4" />
<path d="M542.03,310.6L542.03,313.26" style="fill:none;stroke:#FF7AB4" />
<path d="M539.53,310.6L544.53,310.6" style="fill:none;stroke:#FF7AB4" />
<path d="M539.53,313.26L544.53,313.26" style="fill:none;stroke:#FF7AB4" />
<path d="M547.53,329.2L547.53,331.94" style="fill:none;stroke:#FF7AB4" />
<path d="M545.03,329.2L550.03,329.2" style="fill:none;stroke:#FF7AB4" />
<path d="M545.03,331.94L550.03,331.94" style="fill:none;stroke:#FF7AB4" />
<path d="M553.03,350.34L553.03,353.63" style="fill:none;stroke:#FF7AB4" />
<path d="M550.53,350.34L555.53,350.34" style="fill:none;stroke:#FF7AB4" />
<path d="M550.53,353.63L555.53,353.63" style="fill:none;stroke:#FF7AB4" />
<path d="M558.53,372.84L558.53,375.92" style="fill:none;stroke:#FF7AB4" />
<path d="M556.03,372.84L561.03,372.84" style="fill:none;stroke:#FF7AB4" />
<path d="M556.03,375.92L561.03,375.92" style="fill:none;stroke:#FF7AB4" />
<path d="M564.02,397.76L564.02,401.49" style="fill:none;stroke:#FF7AB4" />
<path d="M561.52,397.76L566.52,397.76" style="fill:none;stroke:#FF7AB4" />
<path d="M561.52,401.49L566.52,401.49" style="fill:none;stroke:#FF7AB4" />
<path d="M569.52,424.77L569.52,428.88" style="fill:none;stroke:#FF7AB4" />
<path d="M567.02,424.77L572.02,424.77" style="fill:none;stroke:#FF7AB4" />
<path d="M567.02,428.88L572.02,428.88" style="fill:none;stroke:#FF7AB4" />
<path d="M575.02,454.03L575.02,457.81" style="fill:none;stroke:#FF7AB4" />
<path d="M572.52,454.03L577.52,454.03" style="fill:none;stroke:#FF7AB4" />
<path d="M572.52,457.81L577.52,457.81" style="fill:none;stroke:#FF7AB4" />
<path d="M580.52,482.4L580.52,486.81" style="fill:none;stroke:#FF7AB4" />
<path d="M578.02,482.4L583.02,482.4" style="fill:none;stroke:#FF7AB4" />
<path d="M578.02,486.81L583.02,486.81" style="fill:none;stroke:#FF7AB4" />
<path d="M586.02,508.78L586.02,514.44" style="fill:none;stroke:#FF7AB4" />
<path d="M583.52,508.78L588.52,508.78" style="fill:none;stroke:#FF7AB4" />
<path d="M583.52,514.44L588.52,514.44" style="fill:none;stroke:#FF7AB4" />
<path d="M591.52,529.82L591.52,534.51" style="fill:none;stroke:#FF7AB4" />
<path d="M589.02,529.82L594.02,529.82" style="fill:none;stroke:#FF7AB4" />
<path d="M589.02,534.51L594.02,534.51" style="fill:none;stroke:#FF7AB4" />
<path d="M597.01,537.12L597.01,541.66" style="fill:none;stroke:#FF7AB4" />
<path d="M594.51,537.12L599.51,537.12" style="fill:none;stroke:#FF7AB4" />
<path d="M594.51,541.66L599.51,541.66" style="fill:none;stroke:#FF7AB4" />
<path d="M602.51,528.2L602.51,533.47" style="fill:none;stroke:#FF7AB4" />
<path d="M600.01,528.2L605.01,528.2" style="fill:none;stroke:#FF7AB4" />
<path d="M600.01,533.47L605.01,533.47" style="fill:none;stroke:#FF7AB4" />
<path d="M608.01,503.76L608.01,508.56" style="fill:none;stroke:#FF7AB4" />
<path d="M605.51,503.76L610.51,503.76" style="fill:none;stroke:#FF7AB4" />
<path d="M605.51,508.56L610.51,508.56" style="fill:none;stroke:#FF7AB4" />
<path d="M613.51,469.89L613.51,474.58" style="fill:none;stroke:#FF7AB4" />
<path d="M611.01,469.89L616.01,469.89" style="fill:none;stroke:#FF7AB4" />
<path d="M611.01,474.58L616.01,474.58" style="fill:none;stroke:#FF7AB4" />
<path d="M619.01,431.95L619.01,436.39" style="fill:none;stroke:#FF7AB4" />
<path d="M616.51,431.95L621.51,431.95" style="fill:none;stroke:#FF7AB4" />
<path d="M616.51,436.39L621.51,436.39" style="fill:none;stroke:#FF7AB4" />
<path d="M624.5,394.71L624.5,398.63" style="fill:none;stroke:#FF7AB4" />
<path d="M622,394.71L627,394.71" style="fill:none;stroke:#FF7AB4" />
<path d="M622,398.63L627,398.63" style="fill:none;stroke:#FF7AB4" />
<path d="M630,361.51L630,364.72" style="fill:none;stroke:#FF7AB4" />
<path d="M627.5,361.51L632.5,361.51" style="fill:none;stroke:#FF7AB4" />
<path d="M627.5,364.72L632.5,364.72" style="fill:none;stroke:#FF7AB4" />
<path d="M635.5,330.9L635.5,333.78" style="fill:none;stroke:#FF7AB4" />
<path d="M633,330.9L638,330.9" style="fill:none;stroke:#FF7AB4" />
<path d="M633,333.78L638,333.78" style="fill:none;stroke:#FF7AB4" />
<path d="M641,304.51L641,306.36" style="fill:none;stroke:#FF7AB4" />
<path d="M638.5,304.51L643.5,304.51" style="fill:none;stroke:#FF7AB4" />
<path d="M638.5,306.36L643.5,306.36" style="fill:none;stroke:#FF7AB4" />
<path d="M646.5,281.89L646.5,282.85" style="fill:none;stroke:#FF7AB4" />
<path d="M644,281.89L649,281.89" style="fill:none;stroke:#FF7AB4" />
<path d="M644,282.85L649,282.85" style="fill:none;stroke:#FF7AB4" />
<path d="M652,261.8L652,262.81" style="fill:none;stroke:#FF7AB4" />
<path d="M649.5,261.8L654.5,261.8" style="fill:none;stroke:#FF7AB4" />
<path d="M649.5,262.81L654.5,262.81" style="fill:none;stroke:#FF7AB4" />
<path d="M657.49,243.59L657.49,245.51" style="fill:none;stroke:#FF7AB4" />
<path d="M654.99,243.59L659.99,243.59" style="fill:none;stroke:#FF7AB4" />
<path d="M654.99,245.51L659.99,245.51" style="fill:none;stroke:#FF7AB4" />
<path d="M662.99,228.62L662.99,230.44" style="fill:none;stroke:#FF7AB4" />
<path d="M660.49,228.62L665.49,228.62" style="fill:none;stroke:#FF7AB4" />
<path d="M660.49,230.44L665.49,230.44" style="fill:none;stroke:#FF7AB4" />
<path d="M668.49,216.11L668.49,217.7" style="fill:none;stroke:#FF7AB4" />
<path d="M665.99,216.11L670.99,216.11" style="fill:none;stroke:#FF7AB4" />
<path d="M665.99,217.7L670.99,217.7" style="fill:none;stroke:#FF7AB4" />
<path d="M673.99,205.34L673.99,206.79" style="fill:none;stroke:#FF7AB4" />
<path d="M671.49,205.34L676.49,205.34" style="fill:none;stroke:#FF7AB4" />
<path d="M671.49,206.79L676.49,206.79" style="fill:none;stroke:#FF7AB4" />
<path d="M679.49,195.93L679.49,197.39" style="fill:none;stroke:#FF7AB4" />
<path d="M676.99,195.93L681.99,195.93" style="fill:none;stroke:#FF7AB4" />
<path d="M676.99,197.39L681.99,197.39" style="fill:none;stroke:#FF7AB4" />
<path d="M684.98,187.41L684.98,188.65" style="fill:none;stroke:#FF7AB4" />
<path d="M682.48,187.41L687.48,187.41" style="fill:none;stroke:#FF7AB4" />
<path d="M682.48,188.65L687.48,188.65" style="fill:none;stroke:#FF7AB4" />
<path d="M690.48,180L690.48,181.37" style="fill:none;stroke:#FF7AB4" />
<path d="M687.98,180L692.98,180" style="fill:none;stroke:#FF7AB4" />
<path d="M687.98,181.37L692.98,181.37" style="fill:none;stroke:#FF7AB4" />
<path d="M695.98,173.77L695.98,174.93" style="fill:none;stroke:#FF7AB4" />
<path d="M693.48,173.77L698.48,173.77" style="fill:none;stroke:#FF7AB4" />
<path d="M693.48,174.93L698.48,174.93" style="fill:none;stroke:#FF7AB4" />
<path d="M701.48,168.41L701.48,169.58" style="fill:none;stroke:#FF7AB4" />
<path d="M698.98,168.41L703.98,168.41" style="fill:none;stroke:#FF7AB4" />
<path d="M698.98,169.58L703.98,169.58" style="fill:none;stroke:#FF7AB4" />
<path d="M706.98,163.89L706.98,164.82" style="fill:none;stroke:#FF7AB4" />
<path d="M704.48,163.89L709.48,163.89" style="fill:none;stroke:#FF7AB4" />
<path d="M704.48,164.82L709.48,164.82" style="fill:none;stroke:#FF7AB4" />
<path d="M712.48,159.71L712.48,160.38" style="fill:none;stroke:#FF7AB4" />
<path d="M709.98,159.71L714.98,159.71" style="fill:none;stroke:#FF7AB4" />
<path d="M709.98,160.38L714.98,160.38" style="fill:none;stroke:#FF7AB4" />
<path d="M717.97,155.64L717.97,156.12" style="fill:none;stroke:#FF7AB4" />
<path d="M715.47,155.64L720.47,155.64" style="fill:none;stroke:#FF7AB4" />
<path d="M715.47,156.12L720.47,156.12" style="fill:none;stroke:#FF7AB4" />
<path d="M723.47,152.42L723.47,152.93" style="fill:none;stroke:#FF7AB4" />
<path d="M720.97,152.42L725.97,152.42" style="fill:none;stroke:#FF7AB4" />
<path d="M720.97,152.93L725.97,152.93" style="fill:none;stroke:#FF7AB4" />
<path d="M728.97,149.86L728.97,150.16" style="fill:none;stroke:#FF7AB4" />
<path d="M726.47,149.86L731.47,149.86" style="fill:none;stroke:#FF7AB4" />
<path d="M726.47,150.16L731.47,150.16" style="fill:none;stroke:#FF7AB4" />
<path d="M734.47,147.17L734.47,147.59" style="fill:none;stroke:#FF7AB4" />
<path d="M731.97,147.17L736.97,147.17" style="fill:none;stroke:#FF7AB4" />
<path d="M731.97,147.59L736.97,147.59" style="fill:none;stroke:#FF7AB4" />
<path d="M739.97,144.91L739.97,145.32" style="fill:none;stroke:#FF7AB4" />
<path d="M737.47,144.91L742.47,144.91" style="fill:none;stroke:#FF7AB4" />
<path d="M737.47,145.32L742.47,145.32" style="fill:none;stroke:#FF7AB4" />
<path d="M745.46,142.7L745.46,143.18" style="fill:none;stroke:#FF7AB4" />
<path d="M742.96,142.7L747.96,142.7" style="fill:none;stroke:#FF7AB4" />
<path d="M742.96,143.18L747.96,143.18" style="fill:none;stroke:#FF7AB4" />
<path d="M750.96,140.59L750.96,141.11" style="fill:none;stroke:#FF7AB4" />
<path d="M748.46,140.59L753.46,140.59" style="fill:none;stroke:#FF7AB4" />
<path d="M748.46,141.11L753.46,141.11" style="fill:none;stroke:#FF7AB4" />
<path d="M756.46,138.78L756.46,139.35" style="fill:none;stroke:#FF7AB4" />
<path d="M753.96,138.78L758.96,138.78" style="fill:none;stroke:#FF7AB4" />
<path d="M753.96,139.35L758.96,139.35" style="fill:none;stroke:#FF7AB4" />
<path d="M761.96,137.38L761.96,137.98" style="fill:none;stroke:#FF7AB4" />
<path d="M759.46,137.38L764.46,137.38" style="fill:none;stroke:#FF7AB4" />
<path d="M759.46,137.98L764.46,137.98" style="fill:none;stroke:#FF7AB4" />
<path d="M767.46,136L767.46,136.61" style="fill:none;stroke:#FF7AB4" />
<path d="M764.96,136L769.96,136" style="fill:none;stroke:#FF7AB4" />
<path d="M764.96,136.61L769.96,136.61" style="fill:none;stroke:#FF7AB4" />
<path d="M772.96,134.7L772.96,135.22" style="fill:none;stroke:#FF7AB4" />
<path d="M770.46,134.7L775.46,134.7" style="fill:none;stroke:#FF7AB4" />
<path d="M770.46,135.22L775.46,135.22" style="fill:none;stroke:#FF7AB4" />
<path d="M778.45,133.41L778.45,133.82" style="fill:none;stroke:#FF7AB4" />
<path d="M775.95,133.41L780.95,133.41" style="fill:none;stroke:#FF7AB4" />
<path d="M775.95,133.82L780.95,133.82" style="fill:none;stroke:#FF7AB4" />
<path d="M783.95,132.45L783.95,132.75" style="fill:none;stroke:#FF7AB4" />
<path d="M781.45,132.45L786.45,132.45" style="fill:none;stroke:#FF7AB4" />
<path d="M781.45,132.75L786.45,132.75" style="fill:none;stroke:#FF7AB4" />
<path d="M789.45,131.58L789.45,131.83" style="fill:none;stroke:#FF7AB4" />
<path d="M786.95,131.58L791.95,131.58" style="fill:none;stroke:#FF7AB4" />
<path d="M786.95,131.83L791.95,131.83" style="fill:none;stroke:#FF7AB4" />
<path d="M794.95,130.7L794.95,130.97" style="fill:none;stroke:#FF7AB4" />
<path d="M792.45,130.7L797.45,130.7" style="fill:none;stroke:#FF7AB4" />
<path d="M792.45,130.97L797.45,130.97" style="fill:none;stroke:#FF7AB4" />
<path d="M800.45,129.69L800.45,130.08" style="fill:none;stroke:#FF7AB4" />
<path d="M797.95,129.69L802.95,129.69" style="fill:none;stroke:#FF7AB4" />
<path d="M797.95,130.08L802.95,130.08" style="fill:none;stroke:#FF7AB4" />
<path d="M805.94,128.85L805.94,129.46" style="fill:none;stroke:#FF7AB4" />
<path d="M803.44,128.85L808.44,128.85" style="fill:none;stroke:#FF7AB4" />
<path d="M803.44,129.46L808.44,129.46" style="fill:none;stroke:#FF7AB4" />
<path d="M811.44,128.13L811.44,128.52" style="fill:none;stroke:#FF7AB4" />
<path d="M808.94,128.13L813.94,128.13" style="fill:none;stroke:#FF7AB4" />
<path d="M808.94,128.52L813.94,128.52" style="fill:none;stroke:#FF7AB4" />
<path d="M816.94,127.36L816.94,127.8" style="fill:none;stroke:#FF7AB4" />
<path d="M814.44,127.36L819.44,127.36" style="fill:none;stroke:#FF7AB4" />
<path d="M814.44,127.8L819.44,127.8" style="fill:none;stroke:#FF7AB4" />
<path d="M822.44,126.5L822.44,126.91" style="fill:none;stroke:#FF7AB4" />
<path d="M819.94,126.5L824.94,126.5" style="fill:none;stroke:#FF7AB4" />
<path d="M819.94,126.91L824.94,126.91" style="fill:none;stroke:#FF7AB4" />
<path d="M827.94,126.1L827.94,126.66" style="fill:none;stroke:#FF7AB4" />
<path d="M825.44,126.1L830.44,126.1" style="fill:none;stroke:#FF7AB4" />
<path d="M825.44,126.66L830.44,126.66" style="fill:none;stroke:#FF7AB4" />
<path d="M833.44,125.62L833.44,126.25" style="fill:none;stroke:#FF7AB4" />
<path d="M830.94,125.62L835.94,125.62" style="fill:none;stroke:#FF7AB4" />
<path d="M830.94,126.25L835.94,126.25" style="fill:none;stroke:#FF7AB4" />
<path d="M838.93,125.43L838.93,125.82" style="fill:none;stroke:#FF7AB4" />
<path d="M836.43,125.43L841.43,125.43" style="fill:none;stroke:#FF7AB4" />
<path d="M836.43,125.82L841.43,125.82" style="fill:none;stroke:#FF7AB4" />
<path d="M844.43,125.22L844.43,125.27" style="fill:none;stroke:#FF7AB4" />
<path d="M841.93,125.22L846.93,125.22" style="fill:none;stroke:#FF7AB4" />
<path d="M841.93,125.27L846.93,125.27" style="fill:none;stroke:#FF7AB4" />
<path d="M849.93,124.79L849.93,124.96" style="fill:none;stroke:#FF7AB4" />
<path d="M847.43,124.79L852.43,124.79" style="fill:none;stroke:#FF7AB4" />
<path d="M847.43,124.96L852.43,124.96" style="fill:none;stroke:#FF7AB4" />
<path d="M855.43,124.11L855.43,124.34" style="fill:none;stroke:#FF7AB4" />
<path d="M852.93,124.11L857.93,124.11" style="fill:none;stroke:#FF7AB4" />
<path d="M852.93,124.34L857.93,124.34" style="fill:none;stroke:#FF7AB4" />
<path d="M860.93,123.31L860.93,123.7" style="fill:none;stroke:#FF7AB4" />
<path d="M858.43,123.31L863.43,123.31" style="fill:none;stroke:#FF7AB4" />
<path d="M858.43,123.7L863.43,123.7" style="fill:none;stroke:#FF7AB4" />
<path d="M866.42,122.74L866.42,123.38" style="fill:none;stroke:#FF7AB4" />
<path d="M863.92,122.74L868.92,122.74" style="fill:none;stroke:#FF7AB4" />
<path d="M863.92,123.38L868.92,123.38" style="fill:none;stroke:#FF7AB4" />
<path d="M871.92,122.46L871.92,123.29" style="fill:none;stroke:#FF7AB4" />
<path d="M869.42,122.46L874.42,122.46" style="fill:none;stroke:#FF7AB4" />
<path d="M869.42,123.29L874.42,123.29" style="fill:none;stroke:#FF7AB4" />
<path d="M877.42,122.52L877.42,123.27" style="fill:none;stroke:#FF7AB4" />
<path d="M874.92,122.52L879.92,122.52" style="fill:none;stroke:#FF7AB4" />
<path d="M874.92,123.27L879.92,123.27" style="fill:none;stroke:#FF7AB4" />
<path d="M882.92,122.52L882.92,122.99" style="fill:none;stroke:#FF7AB4" />
<path d="M880.42,122.52L885.42,122.52" style="fill:none;stroke:#FF7AB4" />
<path d="M880.42,122.99L885.42,122.99" style="fill:none;stroke:#FF7AB4" />
<path d="M888.42,122.34L888.42,122.47" style="fill:none;stroke:#FF7AB4" />
<path d="M885.92,122.34L890.92,122.34" style="fill:none;stroke:#FF7AB4" />
<path d="M885.92,122.47L890.92,122.47" style="fill:none;stroke:#FF7AB4" />
<path d="M893.92,121.88L893.92,122.12" style="fill:none;stroke:#FF7AB4" />
<path d="M891.42,121.88L896.42,121.88" style="fill:none;stroke:#FF7AB4" />
<path d="M891.42,122.12L896.42,122.12" style="fill:none;stroke:#FF7AB4" />
<path d="M899.41,121.52L899.41,121.94" style="fill:none;stroke:#FF7AB4" />
<path d="M896.91,121.52L901.91,121.52" style="fill:none;stroke:#FF7AB4" />
<path d="M896.91,121.94L901.91,121.94" style="fill:none;stroke:#FF7AB4" />
<path d="M904.91,121.43L904.91,121.81" style="fill:none;stroke:#FF7AB4" />
<path d="M902.41,121.43L907.41,121.43" style="fill:none;stroke:#FF7AB4" />
<path d="M902.41,121.81L907.41,121.81" style="fill:none;stroke:#FF7AB4" />
<path d="M910.41,121.37L910.41,121.7" style="fill:none;stroke:#FF7AB4" />
<path d="M907.91,121.37L912.91,121.37" style="fill:none;stroke:#FF7AB4" />
<path d="M907.91,121.7L912.91,121.7" style="fill:none;stroke:#FF7AB4" />
<path d="M915.91,121.16L915.91,121.55" style="fill:none;stroke:#FF7AB4" />
<path d="M913.41,121.16L918.41,121.16" style="fill:none;stroke:#FF7AB4" />
<path d="M913.41,121.55L918.41,121.55" style="fill:none;stroke:#FF7AB4" />
<path d="M921.41,121.24L921.41,121.54" style="fill:none;stroke:#FF7AB4" />
<path d="M918.91,121.24L923.91,121.24" style="fill:none;stroke:#FF7AB4" />
<path d="M918.91,121.54L923.91,121.54" style="fill:none;stroke:#FF7AB4" />
<path d="M926.9,120.75L926.9,121.26" style="fill:none;stroke:#FF7AB4" />
<path d="M924.4,120.75L929.4,120.75" style="fill:none;stroke:#FF7AB4" />
<path d="M924.4,121.26L929.4,121.26" style="fill:none;stroke:#FF7AB4" />
<path d="M932.4,120.82L932.4,121.46" style="fill:none;stroke:#FF7AB4" />
<path d="M929.9,120.82L934.9,120.82" style="fill:none;stroke:#FF7AB4" />
<path d="M929.9,121.46L934.9,121.46" style="fill:none;stroke:#FF7AB4" />
<path d="M937.9,120.84L937.9,121.47" style="fill:none;stroke:#FF7AB4" />
<path d="M935.4,120.84L940.4,120.84" style="fill:none;stroke:#FF7AB4" />
<path d="M935.4,121.47L940.4,121.47" style="fill:none;stroke:#FF7AB4" />
<path d="M943.4,121.15L943.4,121.63" style="fill:none;stroke:#FF7AB4" />
<path d="M940.9,121.15L945.9,121.15" style="fill:none;stroke:#FF7AB4" />
<path d="M940.9,121.63L945.9,121.63" style="fill:none;stroke:#FF7AB4" />
<path d="M948.9,121.43L948.9,121.58" style="fill:none;stroke:#FF7AB4" />
<path d="M946.4,121.43L951.4,121.43" style="fill:none;stroke:#FF7AB4" />
<path d="M946.4,121.58L951.4,121.58" style="fill:none;stroke:#FF7AB4" />
<path d="M954.4,121.33L954.4,121.56" style="fill:none;stroke:#FF7AB4" />
<path d="M951.9,121.33L956.9,121.33" style="fill:none;stroke:#FF7AB4" />
<path d="M951.9,121.56L956.9,121.56" style="fill:none;stroke:#FF7AB4" />
<path d="M959.89,121.11L959.89,121.54" style="fill:none;stroke:#FF7AB4" />
<path d="M957.39,121.11L962.39,121.11" style="fill:none;stroke:#FF7AB4" />
<path d="M957.39,121.54L962.39,121.54" style="fill:none;stroke:#FF7AB4" />
<path d="M965.39,121.03L965.39,121.67" style="fill:none;stroke:#FF7AB4" />
<path d="M962.89,121.03L967.89,121.03" style="fill:none;stroke:#FF7AB4" />
<path d="M962.89,121.67L967.89,121.67" style="fill:none;stroke:#FF7AB4" />
<path d="M970.89,120.92L970.89,121.62" style="fill:none;stroke:#FF7AB4" />
<path d="M968.39,120.92L973.39,120.92" style="fill:none;stroke:#FF7AB4" />
<path d="M968.39,121.62L973.39,121.62" style="fill:none;stroke:#FF7AB4" />
<path d="M976.39,120.67L976.39,121.34" style="fill:none;stroke:#FF7AB4" />
<path d="M973.89,120.67L978.89,120.67" style="fill:none;stroke:#FF7AB4" />
<path d="M973.89,121.34L978.89,121.34" style="fill:none;stroke:#FF7AB4" />
<path d="M981.89,120.85L981.89,121.6" style="fill:none;stroke:#FF7AB4" />
<path d="M979.39,120.85L984.39,120.85" style="fill:none;stroke:#FF7AB4" />
<path d="M979.39,121.6L984.39,121.6" style="fill:none;stroke:#FF7AB4" />
<path d="M987.38,120.97L987.38,121.56" style="fill:none;stroke:#FF7AB4" />
<path d="M984.88,120.97L989.88,120.97" style="fill:none;stroke:#FF7AB4" />
<path d="M984.88,121.56L989.88,121.56" style="fill:none;stroke:#FF7AB4" />
<path d="M992.88,121.22L992.88,121.6" style="fill:none;stroke:#FF7AB4" />
<path d="M990.38,121.22L995.38,121.22" style="fill:none;stroke:#FF7AB4" />
<path d="M990.38,121.6L995.38,121.6" style="fill:none;stroke:#FF7AB4" />
<path d="M998.38,121L998.38,121.71" style="fill:none;stroke:#FF7AB4" />
<path d="M995.88,121L1000.9,121" style="fill:none;stroke:#FF7AB4" />
<path d="M995.88,121.71L1000.9,121.71" style="fill:none;stroke:#FF7AB4" />
<path d="M1003.9,120.79L1003.9,121.37" style="fill:none;stroke:#FF7AB4" />
<path d="M1001.4,120.79L1006.4,120.79" style="fill:none;stroke:#FF7AB4" />
<path d="M1001.4,121.37L1006.4,121.37" style="fill:none;stroke:#FF7AB4" />
<path d="M1009.4,120.27L1009.4,121" style="fill:none;stroke:#FF7AB4" />
<path d="M1006.9,120.27L1011.9,120.27" style="fill:none;stroke:#FF7AB4" />
<path d="M1006.9,121L1011.9,121" style="fill:none;stroke:#FF7AB4" />
<path d="M1014.9,119.95L1014.9,120.88" style="fill:none;stroke:#FF7AB4" />
<path d="M1012.4,119.95L1017.4,119.95" style="fill:none;stroke:#FF7AB4" />
<path d="M1012.4,120.88L1017.4,120.88" style="fill:none;stroke:#FF7AB4" />
<path d="M1020.4,119.95L1020.4,120.98" style="fill:none;stroke:#FF7AB4" />
<path d="M1017.9,119.95L1022.9,119.95" style="fill:none;stroke:#FF7AB4" />
<path d="M1017.9,120.98L1022.9,120.98" style="fill:none;stroke:#FF7AB4" />
<path d="M1025.9,120.06L1025.9,120.89" style="fill:none;stroke:#FF7AB4" />
<path d="M1023.4,120.06L1028.4,120.06" style="fill:none;stroke:#FF7AB4" />
<path d="M1023.4,120.89L1028.4,120.89" style="fill:none;stroke:#FF7AB4" />
<path d="M1031.4,120.31L1031.4,120.77" style="fill:none;stroke:#FF7AB4" />
<path d="M1028.9,120.31L1033.9,120.31" style="fill:none;stroke:#FF7AB4" />
<path d="M1028.9,120.77L1033.9,120.77" style="fill:none;stroke:#FF7AB4" />
<path d="M1036.9,120.04L1036.9,120.19" style="fill:none;stroke:#FF7AB4" />
<path d="M1034.4,120.04L1039.4,120.04" style="fill:none;stroke:#FF7AB4" />
<path d="M1034.4,120.19L1039.4,120.19" style="fill:none;stroke:#FF7AB4" />
<path d="M1042.4,118.95L1042.4,119.33" style="fill:none;stroke:#FF7AB4" />
<path d="M1039.9,118.95L1044.9,118.95" style="fill:none;stroke:#FF7AB4" />
<path d="M1039.9,119.33L1044.9,119.33" style="fill:none;stroke:#FF7AB4" />
<path d="M1047.9,118.58L1047.9,119.53" style="fill:none;stroke:#FF7AB4" />
<path d="M1045.4,118.58L1050.4,118.58" style="fill:none;stroke:#FF7AB4" />
<path d="M1045.4,119.53L1050.4,119.53" style="fill:none;stroke:#FF7AB4" />
<path d="M1053.4,118.39L1053.4,119.23" style="fill:none;stroke:#FF7AB4" />
<path d="M1050.9,118.39L1055.9,118.39" style="fill:none;stroke:#FF7AB4" />
<path d="M1050.9,119.23L1055.9,119.23" style="fill:none;stroke:#FF7AB4" />
<path d="M1058.9,118.15L1058.9,118.88" style="fill:none;stroke:#FF7AB4" />
<path d="M1056.4,118.15L1061.4,118.15" style="fill:none;stroke:#FF7AB4" />
<path d="M1056.4,118.88L1061.4,118.88" style="fill:none;stroke:#FF7AB4" />
<path d="M1064.4,118.19L1064.4,118.79" style="fill:none;stroke:#FF7AB4" />
<path d="M1061.9,118.19L1066.9,118.19" style="fill:none;stroke:#FF7AB4" />
<path d="M1061.9,118.79L1066.9,118.79" style="fill:none;stroke:#FF7AB4" />
<path d="M1069.9,117.71L1069.9,118.21" style="fill:none;stroke:#FF7AB4" />
<path d="M1067.4,117.71L1072.4,117.71" style="fill:none;stroke:#FF7AB4" />
<path d="M1067.4,118.21L1072.4,118.21" style="fill:none;stroke:#FF7AB4" />
<path d="M156.66,128.9A5,5 0 1 1 146.66,128.9A5,5 0 1 1 156.66,128.9Z" style="fill:#FF7AB4" />
<path d="M162.16,128.62A5,5 0 1 1 152.16,128.62A5,5 0 1 1 162.16,128.62Z" style="fill:#FF7AB4" />
<path d="M167.66,128.12A5,5 0 1 1 157.66,128.12A5,5 0 1 1 167.66,128.12Z" style="fill:#FF7AB4" />
<path d="M173.16,127.88A5,5 0 1 1 163.16,127.88A5,5 0 1 1 173.16,127.88Z" style="fill:#FF7AB4" />
<path d="M178.65,127.88A5,5 0 1 1 168.65,127.88A5,5 0 1 1 178.65,127.88Z" style="fill:#FF7AB4" />
<path d="M184.15,127.63A5,5 0 1 1 174.15,127.63A5,5 0 1 1 184.15,127.63Z" style="fill:#FF7AB4" />
<path d="M189.65,127.42A5,5 0 1 1 179.65,127.42A5,5 0 1 1 189.65,127.42Z" style="fill:#FF7AB4" />
<path d="M195.15,127.47A5,5 0 1 1 185.15,127.47A5,5 0 1 1 195.15,127.47Z" style="fill:#FF7AB4" />
<path d="M200.65,127.23A5,5 0 1 1 190.65,127.23A5,5 0 1 1 200.65,127.23Z" style="fill:#FF7AB4" />
<path d="M206.15,127.12A5,5 0 1 1 196.15,127.12A5,5 0 1 1 206.15,127.12Z" style="fill:#FF7AB4" />
<path d="M211.64,126.87A5,5 0 1 1 201.64,126.87A5,5 0 1 1 211.64,126.87Z" style="fill:#FF7AB4" />
<path d="M217.14,126.63A5,5 0 1 1 207.14,126.63A5,5 0 1 1 217.14,126.63Z" style="fill:#FF7AB4" />
<path d="M222.64,126.61A5,5 0 1 1 212.64,126.61A5,5 0 1 1 222.64,126.61Z" style="fill:#FF7AB4" />
<path d="M228.14,126.6A5,5 0 1 1 218.14,126.6A5,5 0 1 1 228.14,126.6Z" style="fill:#FF7AB4" />
<path d="M233.64,126.54A5,5 0 1 1 223.64,126.54A5,5 0 1 1 233.64,126.54Z" style="fill:#FF7AB4" />
<path d="M239.13,126.51A5,5 0 1 1 229.13,126.51A5,5 0 1 1 239.13,126.51Z" style="fill:#FF7AB4" />
<path d="M244.63,126.55A5,5 0 1 1 234.63,126.55A5,5 0 1 1 244.63,126.55Z" style="fill:#FF7AB4" />
<path d="M250.13,126.59A5,5 0 1 1 240.13,126.59A5,5 0 1 1 250.13,126.59Z" style="fill:#FF7AB4" />
<path d="M255.63,126.53A5,5 0 1 1 245.63,126.53A5,5 0 1 1 255.63,126.53Z" style="fill:#FF7AB4" />
<path d="M261.13,126.8A5,5 0 1 1 251.13,126.8A5,5 0 1 1 261.13,126.8Z" style="fill:#FF7AB4" />
<path d="M266.63,126.75A5,5 0 1 1 256.63,126.75A5,5 0 1 1 266.63,126.75Z" style="fill:#FF7AB4" />
<path d="M272.12,127.04A5,5 0 1 1 262.12,127.04A5,5 0 1 1 272.12,127.04Z" style="fill:#FF7AB4" />
<path d="M277.62,127.16A5,5 0 1 1 267.62,127.16A5,5 0 1 1 277.62,127.16Z" style="fill:#FF7AB4" />
<path d="M283.12,127.14A5,5 0 1 1 273.12,127.14A5,5 0 1 1 283.12,127.14Z" style="fill:#FF7AB4" />
<path d="M288.62,127.27A5,5 0 1 1 278.62,127.27A5,5 0 1 1 288.62,127.27Z" style="fill:#FF7AB4" />
<path d="M294.12,127.63A5,5 0 1 1 284.12,127.63A5,5 0 1 1 294.12,127.63Z" style="fill:#FF7AB4" />
<path d="M299.61,128.15A5,5 0 1 1 289.61,128.15A5,5 0 1 1 299.61,128.15Z" style="fill:#FF7AB4" />
<path d="M305.11,128.47A5,5 0 1 1 295.11,128.47A5,5 0 1 1 305.11,128.47Z" style="fill:#FF7AB4" />
<path d="M310.61,128.77A5,5 0 1 1 300.61,128.77A5,5 0 1 1 310.61,128.77Z" style="fill:#FF7AB4" />
<path d="M316.11,129.13A5,5 0 1 1 306.11,129.13A5,5 0 1 1 316.11,129.13Z" style="fill:#FF7AB4" />
<path d="M321.61,129.77A5,5 0 1 1 311.61,129.77A5,5 0 1 1 321.61,129.77Z" style="fill:#FF7AB4" />
<path d="M327.11,130.17A5,5 0 1 1 317.11,130.17A5,5 0 1 1 327.11,130.17Z" style="fill:#FF7AB4" />
<path d="M332.6,130.79A5,5 0 1 1 322.6,130.79A5,5 0 1 1 332.6,130.79Z" style="fill:#FF7AB4" />
<path d="M338.1,131.34A5,5 0 1 1 328.1,131.34A5,5 0 1 1 338.1,131.34Z" style="fill:#FF7AB4" />
<path d="M343.6,132.09A5,5 0 1 1 333.6,132.09A5,5 0 1 1 343.6,132.09Z" style="fill:#FF7AB4" />
<path d="M349.1,132.85A5,5 0 1 1 339.1,132.85A5,5 0 1 1 349.1,132.85Z" style="fill:#FF7AB4" />
<path d="M354.6,133.68A5,5 0 1 1 344.6,133.68A5,5 0 1 1 354.6,133.68Z" style="fill:#FF7AB4" />
<path d="M360.09,134.46A5,5 0 1 1 350.09,134.46A5,5 0 1 1 360.09,134.46Z" style="fill:#FF7AB4" />
<path d="M365.59,135.2A5,5 0 1 1 355.59,135.2A5,5 0 1 1 365.59,135.2Z" style="fill:#FF7AB4" />
<path d="M371.09,136.14A5,5 0 1 1 361.09,136.14A5,5 0 1 1 371.09,136.14Z" style="fill:#FF7AB4" />
<path d="M376.59,137.26A5,5 0 1 1 366.59,137.26A5,5 0 1 1 376.59,137.26Z" style="fill:#FF7AB4" />
<path d="M382.09,138.44A5,5 0 1 1 372.09,138.44A5,5 0 1 1 382.09,138.44Z" style="fill:#FF7AB4" />
<path d="M387.59,139.59A5,5 0 1 1 377.59,139.59A5,5 0 1 1 387.59,139.59Z" style="fill:#FF7AB4" />
<path d="M393.08,140.97A5,5 0 1 1 383.08,140.97A5,5 0 1 1 393.08,140.97Z" style="fill:#FF7AB4" />
<path d="M398.58,142.45A5,5 0 1 1 388.58,142.45A5,5 0 1 1 398.58,142.45Z" style="fill:#FF7AB4" />
<path d="M404.08,144.04A5,5 0 1 1 394.08,144.04A5,5 0 1 1 404.08,144.04Z" style="fill:#FF7AB4" />
<path d="M409.58,145.57A5,5 0 1 1 399.58,145.57A5,5 0 1 1 409.58,145.57Z" style="fill:#FF7AB4" />
<path d="M415.08,147.18A5,5 0 1 1 405.08,147.18A5,5 0 1 1 415.08,147.18Z" style="fill:#FF7AB4" />
<path d="M420.57,149.31A5,5 0 1 1 410.57,149.31A5,5 0 1 1 420.57,149.31Z" style="fill:#FF7AB4" />
<path d="M426.07,151.59A5,5 0 1 1 416.07,151.59A5,5 0 1 1 426.07,151.59Z" style="fill:#FF7AB4" />
<path d="M431.57,154.02A5,5 0 1 1 421.57,154.02A5,5 0 1 1 431.57,154.02Z" style="fill:#FF7AB4" />
<path d="M437.07,156.86A5,5 0 1 1 427.07,156.86A5,5 0 1 1 437.07,156.86Z" style="fill:#FF7AB4" />
<path d="M442.57,159.68A5,5 0 1 1 432.57,159.68A5,5 0 1 1 442.57,159.68Z" style="fill:#FF7AB4" />
<path d="M448.07,162.65A5,5 0 1 1 438.07,162.65A5,5 0 1 1 448.07,162.65Z" style="fill:#FF7AB4" />
<path d="M453.56,166.08A5,5 0 1 1 443.56,166.08A5,5 0 1 1 453.56,166.08Z" style="fill:#FF7AB4" />
<path d="M459.06,169.64A5,5 0 1 1 449.06,169.64A5,5 0 1 1 459.06,169.64Z" style="fill:#FF7AB4" />
<path d="M464.56,174.19A5,5 0 1 1 454.56,174.19A5,5 0 1 1 464.56,174.19Z" style="fill:#FF7AB4" />
<path d="M470.06,178.71A5,5 0 1 1 460.06,178.71A5,5 0 1 1 470.06,178.71Z" style="fill:#FF7AB4" />
<path d="M475.56,183.61A5,5 0 1 1 465.56,183.61A5,5 0 1 1 475.56,183.61Z" style="fill:#FF7AB4" />
<path d="M481.05,188.86A5,5 0 1 1 471.05,188.86A5,5 0 1 1 481.05,188.86Z" style="fill:#FF7AB4" />
<path d="M486.55,194.98A5,5 0 1 1 476.55,194.98A5,5 0 1 1 486.55,194.98Z" style="fill:#FF7AB4" />
<path d="M492.05,201.19A5,5 0 1 1 482.05,201.19A5,5 0 1 1 492.05,201.19Z" style="fill:#FF7AB4" />
<path d="M497.55,208.33A5,5 0 1 1 487.55,208.33A5,5 0 1 1 497.55,208.33Z" style="fill:#FF7AB4" />
<path d="M503.05,216.29A5,5 0 1 1 493.05,216.29A5,5 0 1 1 503.05,216.29Z" style="fill:#FF7AB4" />
<path d="M508.55,224.61A5,5 0 1 1 498.55,224.61A5,5 0 1 1 508.55,224.61Z" style="fill:#FF7AB4" />
<path d="M514.04,234.11A5,5 0 1 1 504.04,234.11A5,5 0 1 1 514.04,234.11Z" style="fill:#FF7AB4" />
<path d="M519.54,244.48A5,5 0 1 1 509.54,244.48A5,5 0 1 1 519.54,244.48Z" style="fill:#FF7AB4" />
<path d="M525.04,255.77A5,5 0 1 1 515.04,255.77A5,5 0 1 1 525.04,255.77Z" style="fill:#FF7AB4" />
<path d="M530.54,268.04A5,5 0 1 1 520.54,268.04A5,5 0 1 1 530.54,268.04Z" style="fill:#FF7AB4" />
<path d="M536.04,281.36A5,5 0 1 1 526.04,281.36A5,5 0 1 1 536.04,281.36Z" style="fill:#FF7AB4" />
<path d="M541.53,295.8A5,5 0 1 1 531.53,295.8A5,5 0 1 1 541.53,295.8Z" style="fill:#FF7AB4" />
<path d="M547.03,311.93A5,5 0 1 1 537.03,311.93A5,5 0 1 1 547.03,311.93Z" style="fill:#FF7AB4" />
<path d="M552.53,330.57A5,5 0 1 1 542.53,330.57A5,5 0 1 1 552.53,330.57Z" style="fill:#FF7AB4" />
<path d="M558.03,351.98A5,5 0 1 1 548.03,351.98A5,5 0 1 1 558.03,351.98Z" style="fill:#FF7AB4" />
<path d="M563.53,374.38A5,5 0 1 1 553.53,374.38A5,5 0 1 1 563.53,374.38Z" style="fill:#FF7AB4" />
<path d="M569.02,399.63A5,5 0 1 1 559.02,399.63A5,5 0 1 1 569.02,399.63Z" style="fill:#FF7AB4" />
<path d="M574.52,426.82A5,5 0 1 1 564.52,426.82A5,5 0 1 1 574.52,426.82Z" style="fill:#FF7AB4" />
<path d="M580.02,455.92A5,5 0 1 1 570.02,455.92A5,5 0 1 1 580.02,455.92Z" style="fill:#FF7AB4" />
<path d="M585.52,484.61A5,5 0 1 1 575.52,484.61A5,5 0 1 1 585.52,484.61Z" style="fill:#FF7AB4" />
<path d="M591.02,511.61A5,5 0 1 1 581.02,511.61A5,5 0 1 1 591.02,511.61Z" style="fill:#FF7AB4" />
<path d="M596.52,532.16A5,5 0 1 1 586.52,532.16A5,5 0 1 1 596.52,532.16Z" style="fill:#FF7AB4" />
<path d="M602.01,539.39A5,5 0 1 1 592.01,539.39A5,5 0 1 1 602.01,539.39Z" style="fill:#FF7AB4" />
<path d="M607.51,530.83A5,5 0 1 1 597.51,530.83A5,5 0 1 1 607.51,530.83Z" style="fill:#FF7AB4" />
<path d="M613.01,506.16A5,5 0 1 1 603.01,506.16A5,5 0 1 1 613.01,506.16Z" style="fill:#FF7AB4" />
<path d="M618.51,472.24A5,5 0 1 1 608.51,472.24A5,5 0 1 1 618.51,472.24Z" style="fill:#FF7AB4" />
<path d="M624.01,434.17A5,5 0 1 1 614.01,434.17A5,5 0 1 1 624.01,434.17Z" style="fill:#FF7AB4" />
<path d="M629.5,396.67A5,5 0 1 1 619.5,396.67A5,5 0 1 1 629.5,396.67Z" style="fill:#FF7AB4" />
<path d="M635,363.12A5,5 0 1 1 625,363.12A5,5 0 1 1 635,363.12Z" style="fill:#FF7AB4" />
<path d="M640.5,332.34A5,5 0 1 1 630.5,332.34A5,5 0 1 1 640.5,332.34Z" style="fill:#FF7AB4" />
<path d="M646,305.43A5,5 0 1 1 636,305.43A5,5 0 1 1 646,305.43Z" style="fill:#FF7AB4" />
<path d="M651.5,282.37A5,5 0 1 1 641.5,282.37A5,5 0 1 1 651.5,282.37Z" style="fill:#FF7AB4" />
<path d="M657,262.31A5,5 0 1 1 647,262.31A5,5 0 1 1 657,262.31Z" style="fill:#FF7AB4" />
<path d="M662.49,244.55A5,5 0 1 1 652.49,244.55A5,5 0 1 1 662.49,244.55Z" style="fill:#FF7AB4" />
<path d="M667.99,229.53A5,5 0 1 1 657.99,229.53A5,5 0 1 1 667.99,229.53Z" style="fill:#FF7AB4" />
<path d="M673.49,216.91A5,5 0 1 1 663.49,216.91A5,5 0 1 1 673.49,216.91Z" style="fill:#FF7AB4" />
<path d="M678.99,206.07A5,5 0 1 1 668.99,206.07A5,5 0 1 1 678.99,206.07Z" style="fill:#FF7AB4" />
<path d="M684.49,196.66A5,5 0 1 1 674.49,196.66A5,5 0 1 1 684.49,196.66Z" style="fill:#FF7AB4" />
<path d="M689.98,188.03A5,5 0 1 1 679.98,188.03A5,5 0 1 1 689.98,188.03Z" style="fill:#FF7AB4" />
<path d="M695.48,180.68A5,5 0 1 1 685.48,180.68A5,5 0 1 1 695.48,180.68Z" style="fill:#FF7AB4" />
<path d="M700.98,174.35A5,5 0 1 1 690.98,174.35A5,5 0 1 1 700.98,174.35Z" style="fill:#FF7AB4" />
<path d="M706.48,168.99A5,5 0 1 1 696.48,168.99A5,5 0 1 1 706.48,168.99Z" style="fill:#FF7AB4" />
<path d="M711.98,164.35A5,5 0 1 1 701.98,164.35A5,5 0 1 1 711.98,164.35Z" style="fill:#FF7AB4" />
<path d="M717.48,160.04A5,5 0 1 1 707.48,160.04A5,5 0 1 1 717.48,160.04Z" style="fill:#FF7AB4" />
<path d="M722.97,155.88A5,5 0 1 1 712.97,155.88A5,5 0 1 1 722.97,155.88Z" style="fill:#FF7AB4" />
<path d="M728.47,152.67A5,5 0 1 1 718.47,152.67A5,5 0 1 1 728.47,152.67Z" style="fill:#FF7AB4" />
<path d="M733.97,150.01A5,5 0 1 1 723.97,150.01A5,5 0 1 1 733.97,150.01Z" style="fill:#FF7AB4" />
<path d="M739.47,147.38A5,5 0 1 1 729.47,147.38A5,5 0 1 1 739.47,147.38Z" style="fill:#FF7AB4" />
<path d="M744.97,145.11A5,5 0 1 1 734.97,145.11A5,5 0 1 1 744.97,145.11Z" style="fill:#FF7AB4" />
<path d="M750.46,142.94A5,5 0 1 1 740.46,142.94A5,5 0 1 1 750.46,142.94Z" style="fill:#FF7AB4" />
<path d="M755.96,140.85A5,5 0 1 1 745.96,140.85A5,5 0 1 1 755.96,140.85Z" style="fill:#FF7AB4" />
<path d="M761.46,139.07A5,5 0 1 1 751.46,139.07A5,5 0 1 1 761.46,139.07Z" style="fill:#FF7AB4" />
<path d="M766.96,137.68A5,5 0 1 1 756.96,137.68A5,5 0 1 1 766.96,137.68Z" style="fill:#FF7AB4" />
<path d="M772.46,136.31A5,5 0 1 1 762.46,136.31A5,5 0 1 1 772.46,136.31Z" style="fill:#FF7AB4" />
<path d="M777.96,134.96A5,5 0 1 1 767.96,134.96A5,5 0 1 1 777.96,134.96Z" style="fill:#FF7AB4" />
<path d="M783.45,133.61A5,5 0 1 1 773.45,133.61A5,5 0 1 1 783.45,133.61Z" style="fill:#FF7AB4" />
<path d="M788.95,132.6A5,5 0 1 1 778.95,132.6A5,5 0 1 1 788.95,132.6Z" style="fill:#FF7AB4" />
<path d="M794.45,131.7A5,5 0 1 1 784.45,131.7A5,5 0 1 1 794.45,131.7Z" style="fill:#FF7AB4" />
<path d="M799.95,130.84A5,5 0 1 1 789.95,130.84A5,5 0 1 1 799.95,130.84Z" style="fill:#FF7AB4" />
<path d="M805.45,129.88A5,5 0 1 1 795.45,129.88A5,5 0 1 1 805.45,129.88Z" style="fill:#FF7AB4" />
<path d="M810.94,129.15A5,5 0 1 1 800.94,129.15A5,5 0 1 1 810.94,129.15Z" style="fill:#FF7AB4" />
<path d="M816.44,128.33A5,5 0 1 1 806.44,128.33A5,5 0 1 1 816.44,128.33Z" style="fill:#FF7AB4" />
<path d="M821.94,127.58A5,5 0 1 1 811.94,127.58A5,5 0 1 1 821.94,127.58Z" style="fill:#FF7AB4" />
<path d="M827.44,126.71A5,5 0 1 1 817.44,126.71A5,5 0 1 1 827.44,126.71Z" style="fill:#FF7AB4" />
<path d="M832.94,126.38A5,5 0 1 1 822.94,126.38A5,5 0 1 1 832.94,126.38Z" style="fill:#FF7AB4" />
<path d="M838.44,125.94A5,5 0 1 1 828.44,125.94A5,5 0 1 1 838.44,125.94Z" style="fill:#FF7AB4" />
<path d="M843.93,125.63A5,5 0 1 1 833.93,125.63A5,5 0 1 1 843.93,125.63Z" style="fill:#FF7AB4" />
<path d="M849.43,125.24A5,5 0 1 1 839.43,125.24A5,5 0 1 1 849.43,125.24Z" style="fill:#FF7AB4" />
<path d="M854.93,124.87A5,5 0 1 1 844.93,124.87A5,5 0 1 1 854.93,124.87Z" style="fill:#FF7AB4" />
<path d="M860.43,124.23A5,5 0 1 1 850.43,124.23A5,5 0 1 1 860.43,124.23Z" style="fill:#FF7AB4" />
<path d="M865.93,123.5A5,5 0 1 1 855.93,123.5A5,5 0 1 1 865.93,123.5Z" style="fill:#FF7AB4" />
<path d="M871.42,123.06A5,5 0 1 1 861.42,123.06A5,5 0 1 1 871.42,123.06Z" style="fill:#FF7AB4" />
<path d="M876.92,122.88A5,5 0 1 1 866.92,122.88A5,5 0 1 1 876.92,122.88Z" style="fill:#FF7AB4" />
<path d="M882.42,122.9A5,5 0 1 1 872.42,122.9A5,5 0 1 1 882.42,122.9Z" style="fill:#FF7AB4" />
<path d="M887.92,122.76A5,5 0 1 1 877.92,122.76A5,5 0 1 1 887.92,122.76Z" style="fill:#FF7AB4" />
<path d="M893.42,122.4A5,5 0 1 1 883.42,122.4A5,5 0 1 1 893.42,122.4Z" style="fill:#FF7AB4" />
<path d="M898.92,122A5,5 0 1 1 888.92,122A5,5 0 1 1 898.92,122Z" style="fill:#FF7AB4" />
<path d="M904.41,121.73A5,5 0 1 1 894.41,121.73A5,5 0 1 1 904.41,121.73Z" style="fill:#FF7AB4" />
<path d="M909.91,121.62A5,5 0 1 1 899.91,121.62A5,5 0 1 1 909.91,121.62Z" style="fill:#FF7AB4" />
<path d="M915.41,121.54A5,5 0 1 1 905.41,121.54A5,5 0 1 1 915.41,121.54Z" style="fill:#FF7AB4" />
<path d="M920.91,121.36A5,5 0 1 1 910.91,121.36A5,5 0 1 1 920.91,121.36Z" style="fill:#FF7AB4" />
<path d="M926.41,121.39A5,5 0 1 1 916.41,121.39A5,5 0 1 1 926.41,121.39Z" style="fill:#FF7AB4" />
<path d="M931.9,121A5,5 0 1 1 921.9,121A5,5 0 1 1 931.9,121Z" style="fill:#FF7AB4" />
<path d="M937.4,121.14A5,5 0 1 1 927.4,121.14A5,5 0 1 1 937.4,121.14Z" style="fill:#FF7AB4" />
<path d="M942.9,121.16A5,5 0 1 1 932.9,121.16A5,5 0 1 1 942.9,121.16Z" style="fill:#FF7AB4" />
<path d="M948.4,121.39A5,5 0 1 1 938.4,121.39A5,5 0 1 1 948.4,121.39Z" style="fill:#FF7AB4" />
<path d="M953.9,121.5A5,5 0 1 1 943.9,121.5A5,5 0 1 1 953.9,121.5Z" style="fill:#FF7AB4" />
<path d="M959.4,121.45A5,5 0 1 1 949.4,121.45A5,5 0 1 1 959.4,121.45Z" style="fill:#FF7AB4" />
<path d="M964.89,121.32A5,5 0 1 1 954.89,121.32A5,5 0 1 1 964.89,121.32Z" style="fill:#FF7AB4" />
<path d="M970.39,121.35A5,5 0 1 1 960.39,121.35A5,5 0 1 1 970.39,121.35Z" style="fill:#FF7AB4" />
<path d="M975.89,121.27A5,5 0 1 1 965.89,121.27A5,5 0 1 1 975.89,121.27Z" style="fill:#FF7AB4" />
<path d="M981.39,121.01A5,5 0 1 1 971.39,121.01A5,5 0 1 1 981.39,121.01Z" style="fill:#FF7AB4" />
<path d="M986.89,121.22A5,5 0 1 1 976.89,121.22A5,5 0 1 1 986.89,121.22Z" style="fill:#FF7AB4" />
<path d="M992.38,121.27A5,5 0 1 1 982.38,121.27A5,5 0 1 1 992.38,121.27Z" style="fill:#FF7AB4" />
<path d="M997.88,121.41A5,5 0 1 1 987.88,121.41A5,5 0 1 1 997.88,121.41Z" style="fill:#FF7AB4" />
<path d="M1003.4,121.35A5,5 0 1 1 993.38,121.35A5,5 0 1 1 1003.4,121.35Z" style="fill:#FF7AB4" />
<path d="M1008.9,121.08A5,5 0 1 1 998.88,121.08A5,5 0 1 1 1008.9,121.08Z" style="fill:#FF7AB4" />
<path d="M1014.4,120.64A5,5 0 1 1 1004.4,120.64A5,5 0 1 1 1014.4,120.64Z" style="fill:#FF7AB4" />
<path d="M1019.9,120.42A5,5 0 1 1 1009.9,120.42A5,5 0 1 1 1019.9,120.42Z" style="fill:#FF7AB4" />
<path d="M1025.4,120.47A5,5 0 1 1 1015.4,120.47A5,5 0 1 1 1025.4,120.47Z" style="fill:#FF7AB4" />
<path d="M1030.9,120.48A5,5 0 1 1 1020.9,120.48A5,5 0 1 1 1030.9,120.48Z" style="fill:#FF7AB4" />
<path d="M1036.4,120.54A5,5 0 1 1 1026.4,120.54A5,5 0 1 1 1036.4,120.54Z" style="fill:#FF7AB4" />
<path d="M1041.9,120.11A5,5 0 1 1 1031.9,120.11A5,5 0 1 1 1041.9,120.11Z" style="fill:#FF7AB4" />
<path d="M1047.4,119.14A5,5 0 1 1 1037.4,119.14A5,5 0 1 1 1047.4,119.14Z" style="fill:#FF7AB4" />
<path d="M1052.9,119.06A5,5 0 1 1 1042.9,119.06A5,5 0 1 1 1052.9,119.06Z" style="fill:#FF7AB4" />
<path d="M1058.4,118.81A5,5 0 1 1 1048.4,118.81A5,5 0 1 1 1058.4,118.81Z" style="fill:#FF7AB4" />
<path d="M1063.9,118.51A5,5 0 1 1 1053.9,118.51A5,5 0 1 1 1063.9,118.51Z" style="fill:#FF7AB4" />
<path d="M1069.4,118.49A5,5 0 1 1 1059.4,118.49A5,5 0 1 1 1069.4,118.49Z" style="fill:#FF7AB4" />
<path d="M1074.9,117.96A5,5 0 1 1 1064.9,117.96A5,5 0 1 1 1074.9,117.96Z" style="fill:#FF7AB4" />
<path d="M146.16,599.35L1080,599.35" style="fill:none;stroke:#000000" />
<path d="M1080,108.82L1080,599.35" style="fill:none;stroke:#000000" />
<path d="M151.66,116.74L157.16,116.94L162.66,117.15L168.16,117.36L173.65,117.59L179.15,117.82L184.65,118.06L190.15,118.31L195.65,118.57L201.15,118.85L206.64,119.13L212.14,119.43L217.64,119.74L223.14,120.06L228.64,120.4L234.13,120.75L239.63,121.12L245.13,121.5L250.63,121.91L256.13,122.33L261.63,122.77L267.12,123.24L272.62,123.73L278.12,124.24L283.62,124.78L289.12,125.35L294.61,125.95L300.11,126.58L305.61,127.25L311.11,127.96L316.61,128.71L322.11,129.5L327.6,130.34L333.1,131.23L338.6,132.17L344.1,133.18L349.6,134.25L355.09,135.39L360.59,136.61L366.09,137.92L371.59,139.31L377.09,140.81L382.59,142.42L388.08,144.15L393.58,146.02L399.08,148.04L404.58,150.22L410.08,152.58L415.57,155.15L421.07,157.95L426.57,161L432.07,164.33L437.57,167.99L443.07,172L448.56,176.43L454.06,181.33L459.56,186.75L465.06,192.78L470.56,199.51L476.05,207.05L481.55,215.51L487.05,225.05L492.55,235.86L498.05,248.13L503.55,262.13L509.04,278.17L514.54,296.61L520.04,317.89L525.54,342.51L531.04,371.09L536.53,404.3L542.03,442.87L547.53,487.54L553.03,538.91L558.53,597.24L564.02,662.11L569.52,731.91L575.02,803.26L580.52,870.62L586.02,926.58L591.52,963.14L597.01,974.14L602.51,957.57L608.01,916.47L613.51,857.61L619.01,789.02L624.5,717.77L630,648.94L635.5,585.47L641,528.68L646.5,478.81L652,435.52L657.49,398.15L662.99,365.98L668.49,338.28L673.99,314.38L679.49,293.72L684.98,275.79L690.48,260.18L695.98,246.54L701.48,234.56L706.98,224.01L712.48,214.68L717.97,206.4L723.47,199.01L728.97,192.41L734.47,186.49L739.97,181.16L745.46,176.34L750.96,171.98L756.46,168.02L761.96,164.41L767.46,161.12L772.96,158.11L778.45,155.34L783.95,152.8L789.45,150.46L794.95,148.3L800.45,146.3L805.94,144.45L811.44,142.72L816.94,141.13L822.44,139.63L827.94,138.24L833.44,136.95L838.93,135.73L844.43,134.59L849.93,133.52L855.43,132.52L860.93,131.58L866.42,130.69L871.92,129.85L877.42,129.06L882.92,128.31L888.42,127.6L893.92,126.93L899.41,126.3L904.91,125.7L910.41,125.13L915.91,124.58L921.41,124.07L926.9,123.58L932.4,123.11L937.9,122.66L943.4,122.24L948.9,121.83L954.4,121.44L959.89,121.07L965.39,120.72L970.89,120.38L976.39,120.05L981.89,119.74L987.38,119.44L992.88,119.16L998.38,118.88L1003.9,118.62L1009.4,118.36L1014.9,118.12L1020.4,117.88L1025.9,117.66L1031.4,117.44L1036.9,117.23L1042.4,117.03L1047.9,116.83L1053.4,116.65L1058.9,116.46L1064.4,116.29L1069.9,116.12" style="fill:none;stroke:#FF7AB4;stroke-width:2" />
<path d="M1013,927.49A8,8 0 1 1 997,927.49A8,8 0 1 1 1013,927.49Z" style="fill:#FF7AB4" />
<text x="833.68" y="-920.9" transform="scale(1, -1)"
	style="font-family:Helvetica;font-weight:normal;font-style:normal;font-size:28px">1cm uhna3</text>
</g>
</svg>
