<?xml version="1.0"?>
<!-- Generated by SVGo and Plotinum VG -->
<svg width="1080pt" height="1080pt" viewBox="0 0 1080 1080"
	xmlns="http://www.w3.org/2000/svg"
	xmlns:xlink="http://www.w3.org/1999/xlink">
<g transform="scale(1, -1) translate(0, -1080)">
<path d="M0,0L1080,0L1080,1080L0,1080Z" style="fill:#-8000000000000000-8000000000000000-8000000000000000;fill-opacity:0" />
<text x="307.93" y="-1039.5" transform="scale(1, -1)"
	style="font-family:Helvetica;font-weight:normal;font-style:normal;font-size:50px">0.0 no sample CABS</text>
<text x="475.05" y="-11.039" transform="scale(1, -1)"
	style="font-family:Helvetica;font-weight:normal;font-style:normal;font-size:36px">Frequency (GHz)</text>
<text x="136.15" y="-71.258" transform="scale(1, -1)"
	style="font-family:Helvetica;font-weight:normal;font-style:normal;font-size:36px">1</text>
<text x="560.62" y="-71.258" transform="scale(1, -1)"
	style="font-family:Helvetica;font-weight:normal;font-style:normal;font-size:36px">2</text>
<text x="985.1" y="-71.258" transform="scale(1, -1)"
	style="font-family:Helvetica;font-weight:normal;font-style:normal;font-size:36px">3</text>
<path d="M146.16,116.44L146.16,108.44" style="fill:none;stroke:#000000;stroke-width:1.5" />
<path d="M358.4,112.44L358.4,108.44" style="fill:none;stroke:#000000;stroke-width:1.5" />
<path d="M570.63,116.44L570.63,108.44" style="fill:none;stroke:#000000;stroke-width:1.5" />
<path d="M782.87,112.44L782.87,108.44" style="fill:none;stroke:#000000;stroke-width:1.5" />
<path d="M995.11,116.44L995.11,108.44" style="fill:none;stroke:#000000;stroke-width:1.5" />
<path d="M146.16,108.44L1080,108.44" style="fill:none;stroke:#000000;stroke-width:1.5" />
<g transform="rotate(90)">
<text x="366.67" y="29.18" transform="scale(1, -1)"
	style="font-family:Helvetica;font-weight:normal;font-style:normal;font-size:36px">Spectral Density (pV)</text>
</g>
<text x="87.869" y="-226.12" transform="scale(1, -1)"
	style="font-family:Helvetica;font-weight:normal;font-style:normal;font-size:36px">20</text>
<text x="87.869" y="-487.88" transform="scale(1, -1)"
	style="font-family:Helvetica;font-weight:normal;font-style:normal;font-size:36px">60</text>
<text x="67.848" y="-749.63" transform="scale(1, -1)"
	style="font-family:Helvetica;font-weight:normal;font-style:normal;font-size:36px">100</text>
<path d="M149.91,104.32L145.91,104.32" style="fill:none;stroke:#000000;stroke-width:1.5" />
<path d="M153.91,235.19L145.91,235.19" style="fill:none;stroke:#000000;stroke-width:1.5" />
<path d="M149.91,366.07L145.91,366.07" style="fill:none;stroke:#000000;stroke-width:1.5" />
<path d="M153.91,496.95L145.91,496.95" style="fill:none;stroke:#000000;stroke-width:1.5" />
<path d="M149.91,627.83L145.91,627.83" style="fill:none;stroke:#000000;stroke-width:1.5" />
<path d="M153.91,758.7L145.91,758.7" style="fill:none;stroke:#000000;stroke-width:1.5" />
<path d="M149.91,889.58L145.91,889.58" style="fill:none;stroke:#000000;stroke-width:1.5" />
<path d="M145.91,104.32L145.91,969.14" style="fill:none;stroke:#000000;stroke-width:1.5" />
<path d="M156.49,277.32A5,5 0 1 1 146.49,277.32A5,5 0 1 1 156.49,277.32Z" style="fill:#1FD3AC" />
<path d="M162.86,241.1A5,5 0 1 1 152.86,241.1A5,5 0 1 1 162.86,241.1Z" style="fill:#1FD3AC" />
<path d="M169.22,276.26A5,5 0 1 1 159.22,276.26A5,5 0 1 1 169.22,276.26Z" style="fill:#1FD3AC" />
<path d="M175.59,383.75A5,5 0 1 1 165.59,383.75A5,5 0 1 1 175.59,383.75Z" style="fill:#1FD3AC" />
<path d="M181.96,381.76A5,5 0 1 1 171.96,381.76A5,5 0 1 1 181.96,381.76Z" style="fill:#1FD3AC" />
<path d="M188.32,602.82A5,5 0 1 1 178.32,602.82A5,5 0 1 1 188.32,602.82Z" style="fill:#1FD3AC" />
<path d="M194.69,372.79A5,5 0 1 1 184.69,372.79A5,5 0 1 1 194.69,372.79Z" style="fill:#1FD3AC" />
<path d="M201.06,536.42A5,5 0 1 1 191.06,536.42A5,5 0 1 1 201.06,536.42Z" style="fill:#1FD3AC" />
<path d="M207.43,439.37A5,5 0 1 1 197.43,439.37A5,5 0 1 1 207.43,439.37Z" style="fill:#1FD3AC" />
<path d="M213.79,513.84A5,5 0 1 1 203.79,513.84A5,5 0 1 1 213.79,513.84Z" style="fill:#1FD3AC" />
<path d="M220.16,563.82A5,5 0 1 1 210.16,563.82A5,5 0 1 1 220.16,563.82Z" style="fill:#1FD3AC" />
<path d="M226.53,376.03A5,5 0 1 1 216.53,376.03A5,5 0 1 1 226.53,376.03Z" style="fill:#1FD3AC" />
<path d="M232.89,368.51A5,5 0 1 1 222.89,368.51A5,5 0 1 1 232.89,368.51Z" style="fill:#1FD3AC" />
<path d="M239.26,303.72A5,5 0 1 1 229.26,303.72A5,5 0 1 1 239.26,303.72Z" style="fill:#1FD3AC" />
<path d="M245.63,250.2A5,5 0 1 1 235.63,250.2A5,5 0 1 1 245.63,250.2Z" style="fill:#1FD3AC" />
<path d="M252,196.23A5,5 0 1 1 242,196.23A5,5 0 1 1 252,196.23Z" style="fill:#1FD3AC" />
<path d="M258.36,279.54A5,5 0 1 1 248.36,279.54A5,5 0 1 1 258.36,279.54Z" style="fill:#1FD3AC" />
<path d="M264.73,186.64A5,5 0 1 1 254.73,186.64A5,5 0 1 1 264.73,186.64Z" style="fill:#1FD3AC" />
<path d="M271.1,252.15A5,5 0 1 1 261.1,252.15A5,5 0 1 1 271.1,252.15Z" style="fill:#1FD3AC" />
<path d="M277.46,266.3A5,5 0 1 1 267.46,266.3A5,5 0 1 1 277.46,266.3Z" style="fill:#1FD3AC" />
<path d="M283.83,325.11A5,5 0 1 1 273.83,325.11A5,5 0 1 1 283.83,325.11Z" style="fill:#1FD3AC" />
<path d="M290.2,251.85A5,5 0 1 1 280.2,251.85A5,5 0 1 1 290.2,251.85Z" style="fill:#1FD3AC" />
<path d="M296.56,314.84A5,5 0 1 1 286.56,314.84A5,5 0 1 1 296.56,314.84Z" style="fill:#1FD3AC" />
<path d="M302.93,362.39A5,5 0 1 1 292.93,362.39A5,5 0 1 1 302.93,362.39Z" style="fill:#1FD3AC" />
<path d="M309.3,275.73A5,5 0 1 1 299.3,275.73A5,5 0 1 1 309.3,275.73Z" style="fill:#1FD3AC" />
<path d="M315.67,381.56A5,5 0 1 1 305.67,381.56A5,5 0 1 1 315.67,381.56Z" style="fill:#1FD3AC" />
<path d="M322.03,360.07A5,5 0 1 1 312.03,360.07A5,5 0 1 1 322.03,360.07Z" style="fill:#1FD3AC" />
<path d="M328.4,470.58A5,5 0 1 1 318.4,470.58A5,5 0 1 1 328.4,470.58Z" style="fill:#1FD3AC" />
<path d="M334.77,503.59A5,5 0 1 1 324.77,503.59A5,5 0 1 1 334.77,503.59Z" style="fill:#1FD3AC" />
<path d="M341.13,527.69A5,5 0 1 1 331.13,527.69A5,5 0 1 1 341.13,527.69Z" style="fill:#1FD3AC" />
<path d="M347.5,500.78A5,5 0 1 1 337.5,500.78A5,5 0 1 1 347.5,500.78Z" style="fill:#1FD3AC" />
<path d="M353.87,531.87A5,5 0 1 1 343.87,531.87A5,5 0 1 1 353.87,531.87Z" style="fill:#1FD3AC" />
<path d="M360.24,571.91A5,5 0 1 1 350.24,571.91A5,5 0 1 1 360.24,571.91Z" style="fill:#1FD3AC" />
<path d="M366.6,541.31A5,5 0 1 1 356.6,541.31A5,5 0 1 1 366.6,541.31Z" style="fill:#1FD3AC" />
<path d="M372.97,539.71A5,5 0 1 1 362.97,539.71A5,5 0 1 1 372.97,539.71Z" style="fill:#1FD3AC" />
<path d="M379.34,663.53A5,5 0 1 1 369.34,663.53A5,5 0 1 1 379.34,663.53Z" style="fill:#1FD3AC" />
<path d="M385.7,679.84A5,5 0 1 1 375.7,679.84A5,5 0 1 1 385.7,679.84Z" style="fill:#1FD3AC" />
<path d="M392.07,499.15A5,5 0 1 1 382.07,499.15A5,5 0 1 1 392.07,499.15Z" style="fill:#1FD3AC" />
<path d="M398.44,638.79A5,5 0 1 1 388.44,638.79A5,5 0 1 1 398.44,638.79Z" style="fill:#1FD3AC" />
<path d="M404.8,568.47A5,5 0 1 1 394.8,568.47A5,5 0 1 1 404.8,568.47Z" style="fill:#1FD3AC" />
<path d="M411.17,486.85A5,5 0 1 1 401.17,486.85A5,5 0 1 1 411.17,486.85Z" style="fill:#1FD3AC" />
<path d="M417.54,337.14A5,5 0 1 1 407.54,337.14A5,5 0 1 1 417.54,337.14Z" style="fill:#1FD3AC" />
<path d="M423.91,226.42A5,5 0 1 1 413.91,226.42A5,5 0 1 1 423.91,226.42Z" style="fill:#1FD3AC" />
<path d="M430.27,130.78A5,5 0 1 1 420.27,130.78A5,5 0 1 1 430.27,130.78Z" style="fill:#1FD3AC" />
<path d="M436.64,146.68A5,5 0 1 1 426.64,146.68A5,5 0 1 1 436.64,146.68Z" style="fill:#1FD3AC" />
<path d="M443.01,422.63A5,5 0 1 1 433.01,422.63A5,5 0 1 1 443.01,422.63Z" style="fill:#1FD3AC" />
<path d="M449.37,181.46A5,5 0 1 1 439.37,181.46A5,5 0 1 1 449.37,181.46Z" style="fill:#1FD3AC" />
<path d="M455.74,230.83A5,5 0 1 1 445.74,230.83A5,5 0 1 1 455.74,230.83Z" style="fill:#1FD3AC" />
<path d="M462.11,183.75A5,5 0 1 1 452.11,183.75A5,5 0 1 1 462.11,183.75Z" style="fill:#1FD3AC" />
<path d="M468.48,217.89A5,5 0 1 1 458.48,217.89A5,5 0 1 1 468.48,217.89Z" style="fill:#1FD3AC" />
<path d="M474.84,167.66A5,5 0 1 1 464.84,167.66A5,5 0 1 1 474.84,167.66Z" style="fill:#1FD3AC" />
<path d="M481.21,248.44A5,5 0 1 1 471.21,248.44A5,5 0 1 1 481.21,248.44Z" style="fill:#1FD3AC" />
<path d="M487.58,196.75A5,5 0 1 1 477.58,196.75A5,5 0 1 1 487.58,196.75Z" style="fill:#1FD3AC" />
<path d="M493.94,270.84A5,5 0 1 1 483.94,270.84A5,5 0 1 1 493.94,270.84Z" style="fill:#1FD3AC" />
<path d="M500.31,401.78A5,5 0 1 1 490.31,401.78A5,5 0 1 1 500.31,401.78Z" style="fill:#1FD3AC" />
<path d="M506.68,322.93A5,5 0 1 1 496.68,322.93A5,5 0 1 1 506.68,322.93Z" style="fill:#1FD3AC" />
<path d="M513.04,420.66A5,5 0 1 1 503.04,420.66A5,5 0 1 1 513.04,420.66Z" style="fill:#1FD3AC" />
<path d="M519.41,401.98A5,5 0 1 1 509.41,401.98A5,5 0 1 1 519.41,401.98Z" style="fill:#1FD3AC" />
<path d="M525.78,373.29A5,5 0 1 1 515.78,373.29A5,5 0 1 1 525.78,373.29Z" style="fill:#1FD3AC" />
<path d="M532.15,386.78A5,5 0 1 1 522.15,386.78A5,5 0 1 1 532.15,386.78Z" style="fill:#1FD3AC" />
<path d="M538.51,519.62A5,5 0 1 1 528.51,519.62A5,5 0 1 1 538.51,519.62Z" style="fill:#1FD3AC" />
<path d="M544.88,503.48A5,5 0 1 1 534.88,503.48A5,5 0 1 1 544.88,503.48Z" style="fill:#1FD3AC" />
<path d="M551.25,423.8A5,5 0 1 1 541.25,423.8A5,5 0 1 1 551.25,423.8Z" style="fill:#1FD3AC" />
<path d="M557.61,366.09A5,5 0 1 1 547.61,366.09A5,5 0 1 1 557.61,366.09Z" style="fill:#1FD3AC" />
<path d="M563.98,378.33A5,5 0 1 1 553.98,378.33A5,5 0 1 1 563.98,378.33Z" style="fill:#1FD3AC" />
<path d="M570.35,527A5,5 0 1 1 560.35,527A5,5 0 1 1 570.35,527Z" style="fill:#1FD3AC" />
<path d="M576.72,505.9A5,5 0 1 1 566.72,505.9A5,5 0 1 1 576.72,505.9Z" style="fill:#1FD3AC" />
<path d="M583.08,684.48A5,5 0 1 1 573.08,684.48A5,5 0 1 1 583.08,684.48Z" style="fill:#1FD3AC" />
<path d="M589.45,413.74A5,5 0 1 1 579.45,413.74A5,5 0 1 1 589.45,413.74Z" style="fill:#1FD3AC" />
<path d="M595.82,511.31A5,5 0 1 1 585.82,511.31A5,5 0 1 1 595.82,511.31Z" style="fill:#1FD3AC" />
<path d="M602.18,583.35A5,5 0 1 1 592.18,583.35A5,5 0 1 1 602.18,583.35Z" style="fill:#1FD3AC" />
<path d="M608.55,874.61A5,5 0 1 1 598.55,874.61A5,5 0 1 1 608.55,874.61Z" style="fill:#1FD3AC" />
<path d="M614.92,737.45A5,5 0 1 1 604.92,737.45A5,5 0 1 1 614.92,737.45Z" style="fill:#1FD3AC" />
<path d="M621.28,969.14A5,5 0 1 1 611.28,969.14A5,5 0 1 1 621.28,969.14Z" style="fill:#1FD3AC" />
<path d="M627.65,619.76A5,5 0 1 1 617.65,619.76A5,5 0 1 1 627.65,619.76Z" style="fill:#1FD3AC" />
<path d="M634.02,571.75A5,5 0 1 1 624.02,571.75A5,5 0 1 1 634.02,571.75Z" style="fill:#1FD3AC" />
<path d="M640.39,408.88A5,5 0 1 1 630.39,408.88A5,5 0 1 1 640.39,408.88Z" style="fill:#1FD3AC" />
<path d="M646.75,452.9A5,5 0 1 1 636.75,452.9A5,5 0 1 1 646.75,452.9Z" style="fill:#1FD3AC" />
<path d="M653.12,321.08A5,5 0 1 1 643.12,321.08A5,5 0 1 1 653.12,321.08Z" style="fill:#1FD3AC" />
<path d="M659.49,259.62A5,5 0 1 1 649.49,259.62A5,5 0 1 1 659.49,259.62Z" style="fill:#1FD3AC" />
<path d="M665.85,291.74A5,5 0 1 1 655.85,291.74A5,5 0 1 1 665.85,291.74Z" style="fill:#1FD3AC" />
<path d="M672.22,275.1A5,5 0 1 1 662.22,275.1A5,5 0 1 1 672.22,275.1Z" style="fill:#1FD3AC" />
<path d="M678.59,366.83A5,5 0 1 1 668.59,366.83A5,5 0 1 1 678.59,366.83Z" style="fill:#1FD3AC" />
<path d="M684.96,368.55A5,5 0 1 1 674.96,368.55A5,5 0 1 1 684.96,368.55Z" style="fill:#1FD3AC" />
<path d="M691.32,247.12A5,5 0 1 1 681.32,247.12A5,5 0 1 1 691.32,247.12Z" style="fill:#1FD3AC" />
<path d="M697.69,251.5A5,5 0 1 1 687.69,251.5A5,5 0 1 1 697.69,251.5Z" style="fill:#1FD3AC" />
<path d="M704.06,324.98A5,5 0 1 1 694.06,324.98A5,5 0 1 1 704.06,324.98Z" style="fill:#1FD3AC" />
<path d="M710.42,514.9A5,5 0 1 1 700.42,514.9A5,5 0 1 1 710.42,514.9Z" style="fill:#1FD3AC" />
<path d="M716.79,558.5A5,5 0 1 1 706.79,558.5A5,5 0 1 1 716.79,558.5Z" style="fill:#1FD3AC" />
<path d="M723.16,402.41A5,5 0 1 1 713.16,402.41A5,5 0 1 1 723.16,402.41Z" style="fill:#1FD3AC" />
<path d="M729.52,503.04A5,5 0 1 1 719.52,503.04A5,5 0 1 1 729.52,503.04Z" style="fill:#1FD3AC" />
<path d="M735.89,434.42A5,5 0 1 1 725.89,434.42A5,5 0 1 1 735.89,434.42Z" style="fill:#1FD3AC" />
<path d="M742.26,488.2A5,5 0 1 1 732.26,488.2A5,5 0 1 1 742.26,488.2Z" style="fill:#1FD3AC" />
<path d="M748.63,474.27A5,5 0 1 1 738.63,474.27A5,5 0 1 1 748.63,474.27Z" style="fill:#1FD3AC" />
<path d="M754.99,418.57A5,5 0 1 1 744.99,418.57A5,5 0 1 1 754.99,418.57Z" style="fill:#1FD3AC" />
<path d="M761.36,360.1A5,5 0 1 1 751.36,360.1A5,5 0 1 1 761.36,360.1Z" style="fill:#1FD3AC" />
<path d="M767.73,425.68A5,5 0 1 1 757.73,425.68A5,5 0 1 1 767.73,425.68Z" style="fill:#1FD3AC" />
<path d="M774.09,518.97A5,5 0 1 1 764.09,518.97A5,5 0 1 1 774.09,518.97Z" style="fill:#1FD3AC" />
<path d="M780.46,379.32A5,5 0 1 1 770.46,379.32A5,5 0 1 1 780.46,379.32Z" style="fill:#1FD3AC" />
<path d="M786.83,496.47A5,5 0 1 1 776.83,496.47A5,5 0 1 1 786.83,496.47Z" style="fill:#1FD3AC" />
<path d="M793.2,466.49A5,5 0 1 1 783.2,466.49A5,5 0 1 1 793.2,466.49Z" style="fill:#1FD3AC" />
<path d="M799.56,373.56A5,5 0 1 1 789.56,373.56A5,5 0 1 1 799.56,373.56Z" style="fill:#1FD3AC" />
<path d="M805.93,322.28A5,5 0 1 1 795.93,322.28A5,5 0 1 1 805.93,322.28Z" style="fill:#1FD3AC" />
<path d="M812.3,656.51A5,5 0 1 1 802.3,656.51A5,5 0 1 1 812.3,656.51Z" style="fill:#1FD3AC" />
<path d="M818.66,631.79A5,5 0 1 1 808.66,631.79A5,5 0 1 1 818.66,631.79Z" style="fill:#1FD3AC" />
<path d="M825.03,640.56A5,5 0 1 1 815.03,640.56A5,5 0 1 1 825.03,640.56Z" style="fill:#1FD3AC" />
<path d="M831.4,461.98A5,5 0 1 1 821.4,461.98A5,5 0 1 1 831.4,461.98Z" style="fill:#1FD3AC" />
<path d="M837.77,273.99A5,5 0 1 1 827.77,273.99A5,5 0 1 1 837.77,273.99Z" style="fill:#1FD3AC" />
<path d="M844.13,356.45A5,5 0 1 1 834.13,356.45A5,5 0 1 1 844.13,356.45Z" style="fill:#1FD3AC" />
<path d="M850.5,405.8A5,5 0 1 1 840.5,405.8A5,5 0 1 1 850.5,405.8Z" style="fill:#1FD3AC" />
<path d="M856.87,353.51A5,5 0 1 1 846.87,353.51A5,5 0 1 1 856.87,353.51Z" style="fill:#1FD3AC" />
<path d="M863.23,359.8A5,5 0 1 1 853.23,359.8A5,5 0 1 1 863.23,359.8Z" style="fill:#1FD3AC" />
<path d="M869.6,562.22A5,5 0 1 1 859.6,562.22A5,5 0 1 1 869.6,562.22Z" style="fill:#1FD3AC" />
<path d="M875.97,386.51A5,5 0 1 1 865.97,386.51A5,5 0 1 1 875.97,386.51Z" style="fill:#1FD3AC" />
<path d="M882.33,358.11A5,5 0 1 1 872.33,358.11A5,5 0 1 1 882.33,358.11Z" style="fill:#1FD3AC" />
<path d="M888.7,391.51A5,5 0 1 1 878.7,391.51A5,5 0 1 1 888.7,391.51Z" style="fill:#1FD3AC" />
<path d="M895.07,411.04A5,5 0 1 1 885.07,411.04A5,5 0 1 1 895.07,411.04Z" style="fill:#1FD3AC" />
<path d="M901.44,348.78A5,5 0 1 1 891.44,348.78A5,5 0 1 1 901.44,348.78Z" style="fill:#1FD3AC" />
<path d="M907.8,392.8A5,5 0 1 1 897.8,392.8A5,5 0 1 1 907.8,392.8Z" style="fill:#1FD3AC" />
<path d="M914.17,384.49A5,5 0 1 1 904.17,384.49A5,5 0 1 1 914.17,384.49Z" style="fill:#1FD3AC" />
<path d="M920.54,495.05A5,5 0 1 1 910.54,495.05A5,5 0 1 1 920.54,495.05Z" style="fill:#1FD3AC" />
<path d="M926.9,548.88A5,5 0 1 1 916.9,548.88A5,5 0 1 1 926.9,548.88Z" style="fill:#1FD3AC" />
<path d="M933.27,559.92A5,5 0 1 1 923.27,559.92A5,5 0 1 1 933.27,559.92Z" style="fill:#1FD3AC" />
<path d="M939.64,623.09A5,5 0 1 1 929.64,623.09A5,5 0 1 1 939.64,623.09Z" style="fill:#1FD3AC" />
<path d="M946.01,637.35A5,5 0 1 1 936.01,637.35A5,5 0 1 1 946.01,637.35Z" style="fill:#1FD3AC" />
<path d="M952.37,457.92A5,5 0 1 1 942.37,457.92A5,5 0 1 1 952.37,457.92Z" style="fill:#1FD3AC" />
<path d="M958.74,577.71A5,5 0 1 1 948.74,577.71A5,5 0 1 1 958.74,577.71Z" style="fill:#1FD3AC" />
<path d="M965.11,758.51A5,5 0 1 1 955.11,758.51A5,5 0 1 1 965.11,758.51Z" style="fill:#1FD3AC" />
<path d="M971.47,550.55A5,5 0 1 1 961.47,550.55A5,5 0 1 1 971.47,550.55Z" style="fill:#1FD3AC" />
<path d="M977.84,644.68A5,5 0 1 1 967.84,644.68A5,5 0 1 1 977.84,644.68Z" style="fill:#1FD3AC" />
<path d="M984.21,604.96A5,5 0 1 1 974.21,604.96A5,5 0 1 1 984.21,604.96Z" style="fill:#1FD3AC" />
<path d="M990.57,631.88A5,5 0 1 1 980.57,631.88A5,5 0 1 1 990.57,631.88Z" style="fill:#1FD3AC" />
<path d="M996.94,602.02A5,5 0 1 1 986.94,602.02A5,5 0 1 1 996.94,602.02Z" style="fill:#1FD3AC" />
<path d="M1003.3,676.03A5,5 0 1 1 993.31,676.03A5,5 0 1 1 1003.3,676.03Z" style="fill:#1FD3AC" />
<path d="M1009.7,644.59A5,5 0 1 1 999.68,644.59A5,5 0 1 1 1009.7,644.59Z" style="fill:#1FD3AC" />
<path d="M1016,510.84A5,5 0 1 1 1006,510.84A5,5 0 1 1 1016,510.84Z" style="fill:#1FD3AC" />
<path d="M1022.4,424.97A5,5 0 1 1 1012.4,424.97A5,5 0 1 1 1022.4,424.97Z" style="fill:#1FD3AC" />
<path d="M1028.8,667.31A5,5 0 1 1 1018.8,667.31A5,5 0 1 1 1028.8,667.31Z" style="fill:#1FD3AC" />
<path d="M1035.1,752.05A5,5 0 1 1 1025.1,752.05A5,5 0 1 1 1035.1,752.05Z" style="fill:#1FD3AC" />
<path d="M1041.5,542A5,5 0 1 1 1031.5,542A5,5 0 1 1 1041.5,542Z" style="fill:#1FD3AC" />
<path d="M1047.9,515.49A5,5 0 1 1 1037.9,515.49A5,5 0 1 1 1047.9,515.49Z" style="fill:#1FD3AC" />
<path d="M1054.2,468.84A5,5 0 1 1 1044.2,468.84A5,5 0 1 1 1054.2,468.84Z" style="fill:#1FD3AC" />
<path d="M1060.6,307.41A5,5 0 1 1 1050.6,307.41A5,5 0 1 1 1060.6,307.41Z" style="fill:#1FD3AC" />
<path d="M1067,456.25A5,5 0 1 1 1057,456.25A5,5 0 1 1 1067,456.25Z" style="fill:#1FD3AC" />
<path d="M1073.3,492.63A5,5 0 1 1 1063.3,492.63A5,5 0 1 1 1073.3,492.63Z" style="fill:#1FD3AC" />
<path d="M1079.7,541.33A5,5 0 1 1 1069.7,541.33A5,5 0 1 1 1079.7,541.33Z" style="fill:#1FD3AC" />
<path d="M146.16,889.58L1080,889.58" style="fill:none;stroke:#000000" />
<path d="M1080,104.32L1080,889.58" style="fill:none;stroke:#000000" />
</g>
</svg>
