<?xml version="1.0"?>
<!-- Generated by SVGo and Plotinum VG -->
<svg width="1080pt" height="1080pt" viewBox="0 0 1080 1080"
	xmlns="http://www.w3.org/2000/svg"
	xmlns:xlink="http://www.w3.org/1999/xlink">
<g transform="scale(1, -1) translate(0, -1080)">
<path d="M0,0L1080,0L1080,1080L0,1080Z" style="fill:#-8000000000000000-8000000000000000-8000000000000000;fill-opacity:0" />
<text x="533.05" y="-1039.5" transform="scale(1, -1)"
	style="font-family:Helvetica;font-weight:normal;font-style:normal;font-size:50px"> </text>
<text x="444.04" y="-11.039" transform="scale(1, -1)"
	style="font-family:Helvetica;font-weight:normal;font-style:normal;font-size:36px">Pump Power (mW)</text>
<text x="132.13" y="-71.258" transform="scale(1, -1)"
	style="font-family:Helvetica;font-weight:normal;font-style:normal;font-size:36px">0</text>
<text x="349.08" y="-71.258" transform="scale(1, -1)"
	style="font-family:Helvetica;font-weight:normal;font-style:normal;font-size:36px">50</text>
<text x="566.02" y="-71.258" transform="scale(1, -1)"
	style="font-family:Helvetica;font-weight:normal;font-style:normal;font-size:36px">100</text>
<text x="792.98" y="-71.258" transform="scale(1, -1)"
	style="font-family:Helvetica;font-weight:normal;font-style:normal;font-size:36px">150</text>
<text x="1019.9" y="-71.258" transform="scale(1, -1)"
	style="font-family:Helvetica;font-weight:normal;font-style:normal;font-size:36px">200</text>
<path d="M142.14,116.44L142.14,108.44" style="fill:none;stroke:#000000;stroke-width:1.5" />
<path d="M255.62,112.44L255.62,108.44" style="fill:none;stroke:#000000;stroke-width:1.5" />
<path d="M369.1,116.44L369.1,108.44" style="fill:none;stroke:#000000;stroke-width:1.5" />
<path d="M482.58,112.44L482.58,108.44" style="fill:none;stroke:#000000;stroke-width:1.5" />
<path d="M596.06,116.44L596.06,108.44" style="fill:none;stroke:#000000;stroke-width:1.5" />
<path d="M709.53,112.44L709.53,108.44" style="fill:none;stroke:#000000;stroke-width:1.5" />
<path d="M823.01,116.44L823.01,108.44" style="fill:none;stroke:#000000;stroke-width:1.5" />
<path d="M936.49,112.44L936.49,108.44" style="fill:none;stroke:#000000;stroke-width:1.5" />
<path d="M1050,116.44L1050,108.44" style="fill:none;stroke:#000000;stroke-width:1.5" />
<path d="M142.14,108.44L1050,108.44" style="fill:none;stroke:#000000;stroke-width:1.5" />
<g transform="rotate(90)">
<text x="318.48" y="29.18" transform="scale(1, -1)"
	style="font-family:Helvetica;font-weight:normal;font-style:normal;font-size:36px">Stokes/Anti-Stokes Heights</text>
</g>
<text x="97.871" y="-927.66" transform="scale(1, -1)"
	style="font-family:Helvetica;font-weight:normal;font-style:normal;font-size:36px">1</text>
<text x="67.848" y="-932.88" transform="scale(1, -1)"
	style="font-family:Helvetica;font-weight:normal;font-style:normal;font-size:36px">1.1</text>
<text x="67.848" y="-938.1" transform="scale(1, -1)"
	style="font-family:Helvetica;font-weight:normal;font-style:normal;font-size:36px">1.2</text>
<text x="67.848" y="-943.32" transform="scale(1, -1)"
	style="font-family:Helvetica;font-weight:normal;font-style:normal;font-size:36px">1.3</text>
<text x="67.848" y="-948.55" transform="scale(1, -1)"
	style="font-family:Helvetica;font-weight:normal;font-style:normal;font-size:36px">1.4</text>
<text x="67.848" y="-953.77" transform="scale(1, -1)"
	style="font-family:Helvetica;font-weight:normal;font-style:normal;font-size:36px">1.5</text>
<path d="M143.89,936.73L135.89,936.73" style="fill:none;stroke:#000000;stroke-width:1.5" />
<path d="M139.89,939.34L135.89,939.34" style="fill:none;stroke:#000000;stroke-width:1.5" />
<path d="M143.89,941.95L135.89,941.95" style="fill:none;stroke:#000000;stroke-width:1.5" />
<path d="M139.89,944.56L135.89,944.56" style="fill:none;stroke:#000000;stroke-width:1.5" />
<path d="M143.89,947.17L135.89,947.17" style="fill:none;stroke:#000000;stroke-width:1.5" />
<path d="M139.89,949.78L135.89,949.78" style="fill:none;stroke:#000000;stroke-width:1.5" />
<path d="M143.89,952.39L135.89,952.39" style="fill:none;stroke:#000000;stroke-width:1.5" />
<path d="M139.89,955.01L135.89,955.01" style="fill:none;stroke:#000000;stroke-width:1.5" />
<path d="M143.89,957.62L135.89,957.62" style="fill:none;stroke:#000000;stroke-width:1.5" />
<path d="M139.89,960.23L135.89,960.23" style="fill:none;stroke:#000000;stroke-width:1.5" />
<path d="M143.89,962.84L135.89,962.84" style="fill:none;stroke:#000000;stroke-width:1.5" />
<path d="M135.89,110.32L135.89,962.84" style="fill:none;stroke:#000000;stroke-width:1.5" />
<path d="M142.14,914.61L187.54,912.07L232.93,909.54L278.32,907.01L323.71,904.47L369.1,901.94L414.49,899.4L459.88,896.87L505.27,894.33L550.66,891.8L596.06,889.27L641.45,886.73L686.84,884.2L732.23,881.66L777.62,879.13L823.01,876.59L868.4,874.06L913.79,871.53" style="fill:none;stroke:#7F7F7F;stroke-width:3" />
<path d="M142.14,962.84L1050,962.84" style="fill:none;stroke:#000000" />
<path d="M1050,936.73L1050,962.84" style="fill:none;stroke:#000000" />
<path d="M148.14,877.64A6,6 0 1 1 136.14,877.64A6,6 0 1 1 148.14,877.64Z" style="fill:#1BAA8B" />
<path d="M193.54,935.76A6,6 0 1 1 181.54,935.76A6,6 0 1 1 193.54,935.76Z" style="fill:#1BAA8B" />
<path d="M238.93,937.9A6,6 0 1 1 226.93,937.9A6,6 0 1 1 238.93,937.9Z" style="fill:#1BAA8B" />
<path d="M284.32,939.12A6,6 0 1 1 272.32,939.12A6,6 0 1 1 284.32,939.12Z" style="fill:#1BAA8B" />
<path d="M329.71,939.55A6,6 0 1 1 317.71,939.55A6,6 0 1 1 329.71,939.55Z" style="fill:#1BAA8B" />
<path d="M375.1,940.1A6,6 0 1 1 363.1,940.1A6,6 0 1 1 375.1,940.1Z" style="fill:#1BAA8B" />
<path d="M420.49,940.91A6,6 0 1 1 408.49,940.91A6,6 0 1 1 420.49,940.91Z" style="fill:#1BAA8B" />
<path d="M465.88,941.63A6,6 0 1 1 453.88,941.63A6,6 0 1 1 465.88,941.63Z" style="fill:#1BAA8B" />
<path d="M511.27,942.66A6,6 0 1 1 499.27,942.66A6,6 0 1 1 511.27,942.66Z" style="fill:#1BAA8B" />
<path d="M556.66,943.64A6,6 0 1 1 544.66,943.64A6,6 0 1 1 556.66,943.64Z" style="fill:#1BAA8B" />
<path d="M602.06,944.41A6,6 0 1 1 590.06,944.41A6,6 0 1 1 602.06,944.41Z" style="fill:#1BAA8B" />
<path d="M647.45,110.32A6,6 0 1 1 635.45,110.32A6,6 0 1 1 647.45,110.32Z" style="fill:#1BAA8B" />
<path d="M692.84,945.57A6,6 0 1 1 680.84,945.57A6,6 0 1 1 692.84,945.57Z" style="fill:#1BAA8B" />
<path d="M738.23,946.26A6,6 0 1 1 726.23,946.26A6,6 0 1 1 738.23,946.26Z" style="fill:#1BAA8B" />
<path d="M783.62,947.02A6,6 0 1 1 771.62,947.02A6,6 0 1 1 783.62,947.02Z" style="fill:#1BAA8B" />
<path d="M829.01,944.45A6,6 0 1 1 817.01,944.45A6,6 0 1 1 829.01,944.45Z" style="fill:#1BAA8B" />
<path d="M874.4,948.45A6,6 0 1 1 862.4,948.45A6,6 0 1 1 874.4,948.45Z" style="fill:#1BAA8B" />
<path d="M919.79,949.8A6,6 0 1 1 907.79,949.8A6,6 0 1 1 919.79,949.8Z" style="fill:#1BAA8B" />
</g>
</svg>
