<?xml version="1.0"?>
<!-- Generated by SVGo and Plotinum VG -->
<svg width="1080pt" height="1080pt" viewBox="0 0 1080 1080"
	xmlns="http://www.w3.org/2000/svg"
	xmlns:xlink="http://www.w3.org/1999/xlink">
<g transform="scale(1, -1) translate(0, -1080)">
<path d="M0,0L1080,0L1080,1080L0,1080Z" style="fill:#-8000000000000000-8000000000000000-8000000000000000;fill-opacity:0" />
<text x="-1.9434" y="-1039.5" transform="scale(1, -1)"
	style="font-family:Helvetica;font-weight:normal;font-style:normal;font-size:50px">Peak Scattered Power vs. Pump-Probe Detuning</text>
<text x="379.49" y="-11.039" transform="scale(1, -1)"
	style="font-family:Helvetica;font-weight:normal;font-style:normal;font-size:36px">Pump-Probe Detuning (GHz)</text>
<text x="246.73" y="-71.258" transform="scale(1, -1)"
	style="font-family:Helvetica;font-weight:normal;font-style:normal;font-size:36px">5</text>
<text x="347.29" y="-71.258" transform="scale(1, -1)"
	style="font-family:Helvetica;font-weight:normal;font-style:normal;font-size:36px">10</text>
<text x="457.87" y="-71.258" transform="scale(1, -1)"
	style="font-family:Helvetica;font-weight:normal;font-style:normal;font-size:36px">15</text>
<text x="568.45" y="-71.258" transform="scale(1, -1)"
	style="font-family:Helvetica;font-weight:normal;font-style:normal;font-size:36px">20</text>
<text x="679.02" y="-71.258" transform="scale(1, -1)"
	style="font-family:Helvetica;font-weight:normal;font-style:normal;font-size:36px">25</text>
<text x="789.6" y="-71.258" transform="scale(1, -1)"
	style="font-family:Helvetica;font-weight:normal;font-style:normal;font-size:36px">30</text>
<text x="900.17" y="-71.258" transform="scale(1, -1)"
	style="font-family:Helvetica;font-weight:normal;font-style:normal;font-size:36px">35</text>
<text x="1010.7" y="-71.258" transform="scale(1, -1)"
	style="font-family:Helvetica;font-weight:normal;font-style:normal;font-size:36px">40</text>
<path d="M256.74,116.44L256.74,108.44" style="fill:none;stroke:#000000;stroke-width:1.5" />
<path d="M367.32,116.44L367.32,108.44" style="fill:none;stroke:#000000;stroke-width:1.5" />
<path d="M477.89,116.44L477.89,108.44" style="fill:none;stroke:#000000;stroke-width:1.5" />
<path d="M588.47,116.44L588.47,108.44" style="fill:none;stroke:#000000;stroke-width:1.5" />
<path d="M699.04,116.44L699.04,108.44" style="fill:none;stroke:#000000;stroke-width:1.5" />
<path d="M809.62,116.44L809.62,108.44" style="fill:none;stroke:#000000;stroke-width:1.5" />
<path d="M920.19,116.44L920.19,108.44" style="fill:none;stroke:#000000;stroke-width:1.5" />
<path d="M1030.8,116.44L1030.8,108.44" style="fill:none;stroke:#000000;stroke-width:1.5" />
<path d="M146.16,108.44L1075,108.44" style="fill:none;stroke:#000000;stroke-width:1.5" />
<g transform="rotate(90)">
<text x="366.92" y="29.18" transform="scale(1, -1)"
	style="font-family:Helvetica;font-weight:normal;font-style:normal;font-size:36px">Scattered Power (pW)</text>
</g>
<text x="107.89" y="-104.75" transform="scale(1, -1)"
	style="font-family:Helvetica;font-weight:normal;font-style:normal;font-size:36px">0</text>
<text x="87.869" y="-262.27" transform="scale(1, -1)"
	style="font-family:Helvetica;font-weight:normal;font-style:normal;font-size:36px">50</text>
<text x="67.848" y="-419.8" transform="scale(1, -1)"
	style="font-family:Helvetica;font-weight:normal;font-style:normal;font-size:36px">100</text>
<text x="67.848" y="-577.33" transform="scale(1, -1)"
	style="font-family:Helvetica;font-weight:normal;font-style:normal;font-size:36px">150</text>
<text x="67.848" y="-734.86" transform="scale(1, -1)"
	style="font-family:Helvetica;font-weight:normal;font-style:normal;font-size:36px">200</text>
<text x="67.848" y="-892.39" transform="scale(1, -1)"
	style="font-family:Helvetica;font-weight:normal;font-style:normal;font-size:36px">250</text>
<path d="M153.91,113.82L145.91,113.82" style="fill:none;stroke:#000000;stroke-width:1.5" />
<path d="M153.91,271.35L145.91,271.35" style="fill:none;stroke:#000000;stroke-width:1.5" />
<path d="M153.91,428.87L145.91,428.87" style="fill:none;stroke:#000000;stroke-width:1.5" />
<path d="M153.91,586.4L145.91,586.4" style="fill:none;stroke:#000000;stroke-width:1.5" />
<path d="M153.91,743.93L145.91,743.93" style="fill:none;stroke:#000000;stroke-width:1.5" />
<path d="M153.91,901.46L145.91,901.46" style="fill:none;stroke:#000000;stroke-width:1.5" />
<path d="M145.91,113.82L145.91,974.14" style="fill:none;stroke:#000000;stroke-width:1.5" />
<path d="M261.74,830.75A5,5 0 1 1 251.74,830.75A5,5 0 1 1 261.74,830.75Z" style="fill:#FF4E60" />
<path d="M272.8,682.01A5,5 0 1 1 262.8,682.01A5,5 0 1 1 272.8,682.01Z" style="fill:#FF4E60" />
<path d="M283.85,556.64A5,5 0 1 1 273.85,556.64A5,5 0 1 1 283.85,556.64Z" style="fill:#FF4E60" />
<path d="M294.91,451.73A5,5 0 1 1 284.91,451.73A5,5 0 1 1 294.91,451.73Z" style="fill:#FF4E60" />
<path d="M305.97,347.95A5,5 0 1 1 295.97,347.95A5,5 0 1 1 305.97,347.95Z" style="fill:#FF4E60" />
<path d="M317.03,273.94A5,5 0 1 1 307.03,273.94A5,5 0 1 1 317.03,273.94Z" style="fill:#FF4E60" />
<path d="M328.09,213.14A5,5 0 1 1 318.09,213.14A5,5 0 1 1 328.09,213.14Z" style="fill:#FF4E60" />
<path d="M339.14,169.51A5,5 0 1 1 329.14,169.51A5,5 0 1 1 339.14,169.51Z" style="fill:#FF4E60" />
<path d="M350.2,138.49A5,5 0 1 1 340.2,138.49A5,5 0 1 1 350.2,138.49Z" style="fill:#FF4E60" />
<path d="M361.26,120.92A5,5 0 1 1 351.26,120.92A5,5 0 1 1 361.26,120.92Z" style="fill:#FF4E60" />
<path d="M372.32,114.09A5,5 0 1 1 362.32,114.09A5,5 0 1 1 372.32,114.09Z" style="fill:#FF4E60" />
<path d="M383.37,115.81A5,5 0 1 1 373.37,115.81A5,5 0 1 1 383.37,115.81Z" style="fill:#FF4E60" />
<path d="M394.43,123.66A5,5 0 1 1 384.43,123.66A5,5 0 1 1 394.43,123.66Z" style="fill:#FF4E60" />
<path d="M405.49,135.29A5,5 0 1 1 395.49,135.29A5,5 0 1 1 405.49,135.29Z" style="fill:#FF4E60" />
<path d="M416.55,149.28A5,5 0 1 1 406.55,149.28A5,5 0 1 1 416.55,149.28Z" style="fill:#FF4E60" />
<path d="M427.6,161.93A5,5 0 1 1 417.6,161.93A5,5 0 1 1 427.6,161.93Z" style="fill:#FF4E60" />
<path d="M438.66,173.51A5,5 0 1 1 428.66,173.51A5,5 0 1 1 438.66,173.51Z" style="fill:#FF4E60" />
<path d="M449.72,182.81A5,5 0 1 1 439.72,182.81A5,5 0 1 1 449.72,182.81Z" style="fill:#FF4E60" />
<path d="M460.78,187.21A5,5 0 1 1 450.78,187.21A5,5 0 1 1 460.78,187.21Z" style="fill:#FF4E60" />
<path d="M471.83,189.42A5,5 0 1 1 461.83,189.42A5,5 0 1 1 471.83,189.42Z" style="fill:#FF4E60" />
<path d="M482.89,187.07A5,5 0 1 1 472.89,187.07A5,5 0 1 1 482.89,187.07Z" style="fill:#FF4E60" />
<path d="M493.95,181.81A5,5 0 1 1 483.95,181.81A5,5 0 1 1 493.95,181.81Z" style="fill:#FF4E60" />
<path d="M505.01,175.8A5,5 0 1 1 495.01,175.8A5,5 0 1 1 505.01,175.8Z" style="fill:#FF4E60" />
<path d="M516.06,166.24A5,5 0 1 1 506.06,166.24A5,5 0 1 1 516.06,166.24Z" style="fill:#FF4E60" />
<path d="M527.12,156.8A5,5 0 1 1 517.12,156.8A5,5 0 1 1 527.12,156.8Z" style="fill:#FF4E60" />
<path d="M538.18,145.04A5,5 0 1 1 528.18,145.04A5,5 0 1 1 538.18,145.04Z" style="fill:#FF4E60" />
<path d="M549.24,135.45A5,5 0 1 1 539.24,135.45A5,5 0 1 1 549.24,135.45Z" style="fill:#FF4E60" />
<path d="M560.29,126.9A5,5 0 1 1 550.29,126.9A5,5 0 1 1 560.29,126.9Z" style="fill:#FF4E60" />
<path d="M571.35,120.57A5,5 0 1 1 561.35,120.57A5,5 0 1 1 571.35,120.57Z" style="fill:#FF4E60" />
<path d="M582.41,116.22A5,5 0 1 1 572.41,116.22A5,5 0 1 1 582.41,116.22Z" style="fill:#FF4E60" />
<path d="M593.47,114.08A5,5 0 1 1 583.47,114.08A5,5 0 1 1 593.47,114.08Z" style="fill:#FF4E60" />
<path d="M604.52,114.03A5,5 0 1 1 594.52,114.03A5,5 0 1 1 604.52,114.03Z" style="fill:#FF4E60" />
<path d="M615.58,115.73A5,5 0 1 1 605.58,115.73A5,5 0 1 1 615.58,115.73Z" style="fill:#FF4E60" />
<path d="M626.64,118.83A5,5 0 1 1 616.64,118.83A5,5 0 1 1 626.64,118.83Z" style="fill:#FF4E60" />
<path d="M637.7,122.7A5,5 0 1 1 627.7,122.7A5,5 0 1 1 637.7,122.7Z" style="fill:#FF4E60" />
<path d="M648.75,127.23A5,5 0 1 1 638.75,127.23A5,5 0 1 1 648.75,127.23Z" style="fill:#FF4E60" />
<path d="M659.81,131.19A5,5 0 1 1 649.81,131.19A5,5 0 1 1 659.81,131.19Z" style="fill:#FF4E60" />
<path d="M670.87,134.86A5,5 0 1 1 660.87,134.86A5,5 0 1 1 670.87,134.86Z" style="fill:#FF4E60" />
<path d="M681.93,137.85A5,5 0 1 1 671.93,137.85A5,5 0 1 1 681.93,137.85Z" style="fill:#FF4E60" />
<path d="M692.99,139.14A5,5 0 1 1 682.99,139.14A5,5 0 1 1 692.99,139.14Z" style="fill:#FF4E60" />
<path d="M704.04,140.01A5,5 0 1 1 694.04,140.01A5,5 0 1 1 704.04,140.01Z" style="fill:#FF4E60" />
<path d="M715.1,138.67A5,5 0 1 1 705.1,138.67A5,5 0 1 1 715.1,138.67Z" style="fill:#FF4E60" />
<path d="M726.16,137.07A5,5 0 1 1 716.16,137.07A5,5 0 1 1 726.16,137.07Z" style="fill:#FF4E60" />
<path d="M737.22,133.9A5,5 0 1 1 727.22,133.9A5,5 0 1 1 737.22,133.9Z" style="fill:#FF4E60" />
<path d="M748.27,130.67A5,5 0 1 1 738.27,130.67A5,5 0 1 1 748.27,130.67Z" style="fill:#FF4E60" />
<path d="M759.33,126.86A5,5 0 1 1 749.33,126.86A5,5 0 1 1 759.33,126.86Z" style="fill:#FF4E60" />
<path d="M770.39,123.26A5,5 0 1 1 760.39,123.26A5,5 0 1 1 770.39,123.26Z" style="fill:#FF4E60" />
<path d="M781.45,119.93A5,5 0 1 1 771.45,119.93A5,5 0 1 1 781.45,119.93Z" style="fill:#FF4E60" />
<path d="M792.5,117.19A5,5 0 1 1 782.5,117.19A5,5 0 1 1 792.5,117.19Z" style="fill:#FF4E60" />
<path d="M803.56,115.19A5,5 0 1 1 793.56,115.19A5,5 0 1 1 803.56,115.19Z" style="fill:#FF4E60" />
<path d="M814.62,114.08A5,5 0 1 1 804.62,114.08A5,5 0 1 1 814.62,114.08Z" style="fill:#FF4E60" />
<path d="M825.68,113.83A5,5 0 1 1 815.68,113.83A5,5 0 1 1 825.68,113.83Z" style="fill:#FF4E60" />
<path d="M836.73,114.4A5,5 0 1 1 826.73,114.4A5,5 0 1 1 836.73,114.4Z" style="fill:#FF4E60" />
<path d="M847.79,115.65A5,5 0 1 1 837.79,115.65A5,5 0 1 1 847.79,115.65Z" style="fill:#FF4E60" />
<path d="M858.85,117.38A5,5 0 1 1 848.85,117.38A5,5 0 1 1 858.85,117.38Z" style="fill:#FF4E60" />
<path d="M869.91,119.54A5,5 0 1 1 859.91,119.54A5,5 0 1 1 869.91,119.54Z" style="fill:#FF4E60" />
<path d="M880.96,121.56A5,5 0 1 1 870.96,121.56A5,5 0 1 1 880.96,121.56Z" style="fill:#FF4E60" />
<path d="M892.02,123.78A5,5 0 1 1 882.02,123.78A5,5 0 1 1 892.02,123.78Z" style="fill:#FF4E60" />
<path d="M903.08,125.25A5,5 0 1 1 893.08,125.25A5,5 0 1 1 903.08,125.25Z" style="fill:#FF4E60" />
<path d="M914.14,126.43A5,5 0 1 1 904.14,126.43A5,5 0 1 1 914.14,126.43Z" style="fill:#FF4E60" />
<path d="M925.19,126.91A5,5 0 1 1 915.19,126.91A5,5 0 1 1 925.19,126.91Z" style="fill:#FF4E60" />
<path d="M936.25,126.5A5,5 0 1 1 926.25,126.5A5,5 0 1 1 936.25,126.5Z" style="fill:#FF4E60" />
<path d="M947.31,125.92A5,5 0 1 1 937.31,125.92A5,5 0 1 1 947.31,125.92Z" style="fill:#FF4E60" />
<path d="M958.37,124.61A5,5 0 1 1 948.37,124.61A5,5 0 1 1 958.37,124.61Z" style="fill:#FF4E60" />
<path d="M969.42,123.25A5,5 0 1 1 959.42,123.25A5,5 0 1 1 969.42,123.25Z" style="fill:#FF4E60" />
<path d="M980.48,121.45A5,5 0 1 1 970.48,121.45A5,5 0 1 1 980.48,121.45Z" style="fill:#FF4E60" />
<path d="M991.54,119.41A5,5 0 1 1 981.54,119.41A5,5 0 1 1 991.54,119.41Z" style="fill:#FF4E60" />
<path d="M1002.6,117.61A5,5 0 1 1 992.6,117.61A5,5 0 1 1 1002.6,117.61Z" style="fill:#FF4E60" />
<path d="M1013.7,116.04A5,5 0 1 1 1003.7,116.04A5,5 0 1 1 1013.7,116.04Z" style="fill:#FF4E60" />
<path d="M1024.7,114.81A5,5 0 1 1 1014.7,114.81A5,5 0 1 1 1024.7,114.81Z" style="fill:#FF4E60" />
<path d="M1035.8,114.09A5,5 0 1 1 1025.8,114.09A5,5 0 1 1 1035.8,114.09Z" style="fill:#FF4E60" />
<path d="M1046.8,113.82A5,5 0 1 1 1036.8,113.82A5,5 0 1 1 1046.8,113.82Z" style="fill:#FF4E60" />
<path d="M1057.9,114.03A5,5 0 1 1 1047.9,114.03A5,5 0 1 1 1057.9,114.03Z" style="fill:#FF4E60" />
<path d="M1068.9,114.66A5,5 0 1 1 1058.9,114.66A5,5 0 1 1 1068.9,114.66Z" style="fill:#FF4E60" />
<path d="M1080,115.65A5,5 0 1 1 1070,115.65A5,5 0 1 1 1080,115.65Z" style="fill:#FF4E60" />
<path d="M146.16,974.14L1075,974.14" style="fill:none;stroke:#000000" />
<path d="M1075,113.82L1075,974.14" style="fill:none;stroke:#000000" />
</g>
</svg>
