<?xml version="1.0"?>
<!-- Generated by SVGo and Plotinum VG -->
<svg width="1080pt" height="1080pt" viewBox="0 0 1080 1080"
	xmlns="http://www.w3.org/2000/svg"
	xmlns:xlink="http://www.w3.org/1999/xlink">
<g transform="scale(1, -1) translate(0, -1080)">
<path d="M0,0L1080,0L1080,1080L0,1080Z" style="fill:#-8000000000000000-8000000000000000-8000000000000000;fill-opacity:0" />
<text x="231.04" y="-1015.2" transform="scale(1, -1)"
	style="font-family:Helvetica;font-weight:normal;font-style:normal;font-size:80px">4 mm CS2 CABS</text>
<text x="425.55" y="-17.172" transform="scale(1, -1)"
	style="font-family:Helvetica;font-weight:normal;font-style:normal;font-size:56px">Frequency (GHz)</text>
<text x="161.6" y="-119.73" transform="scale(1, -1)"
	style="font-family:Helvetica;font-weight:normal;font-style:normal;font-size:56px">2.3</text>
<text x="513.39" y="-119.73" transform="scale(1, -1)"
	style="font-family:Helvetica;font-weight:normal;font-style:normal;font-size:56px">2.5</text>
<text x="865.18" y="-119.73" transform="scale(1, -1)"
	style="font-family:Helvetica;font-weight:normal;font-style:normal;font-size:56px">2.7</text>
<path d="M200.53,181.12L200.53,173.12" style="fill:none;stroke:#000000;stroke-width:1.5" />
<path d="M376.42,177.12L376.42,173.12" style="fill:none;stroke:#000000;stroke-width:1.5" />
<path d="M552.32,181.12L552.32,173.12" style="fill:none;stroke:#000000;stroke-width:1.5" />
<path d="M728.21,177.12L728.21,173.12" style="fill:none;stroke:#000000;stroke-width:1.5" />
<path d="M904.11,181.12L904.11,173.12" style="fill:none;stroke:#000000;stroke-width:1.5" />
<path d="M1080,177.12L1080,173.12" style="fill:none;stroke:#000000;stroke-width:1.5" />
<path d="M200.53,173.12L1080,173.12" style="fill:none;stroke:#000000;stroke-width:1.5" />
<g transform="rotate(90)">
<text x="273.01" y="45.391" transform="scale(1, -1)"
	style="font-family:Helvetica;font-weight:normal;font-style:normal;font-size:56px">Spectral Density (uV)</text>
</g>
<text x="145.57" y="-167.93" transform="scale(1, -1)"
	style="font-family:Helvetica;font-weight:normal;font-style:normal;font-size:56px">0</text>
<text x="114.43" y="-404.93" transform="scale(1, -1)"
	style="font-family:Helvetica;font-weight:normal;font-style:normal;font-size:56px">20</text>
<text x="114.43" y="-641.93" transform="scale(1, -1)"
	style="font-family:Helvetica;font-weight:normal;font-style:normal;font-size:56px">40</text>
<text x="114.43" y="-878.93" transform="scale(1, -1)"
	style="font-family:Helvetica;font-weight:normal;font-style:normal;font-size:56px">60</text>
<path d="M208.28,182.04L200.28,182.04" style="fill:none;stroke:#000000;stroke-width:1.5" />
<path d="M204.28,300.54L200.28,300.54" style="fill:none;stroke:#000000;stroke-width:1.5" />
<path d="M208.28,419.04L200.28,419.04" style="fill:none;stroke:#000000;stroke-width:1.5" />
<path d="M204.28,537.54L200.28,537.54" style="fill:none;stroke:#000000;stroke-width:1.5" />
<path d="M208.28,656.04L200.28,656.04" style="fill:none;stroke:#000000;stroke-width:1.5" />
<path d="M204.28,774.54L200.28,774.54" style="fill:none;stroke:#000000;stroke-width:1.5" />
<path d="M208.28,893.04L200.28,893.04" style="fill:none;stroke:#000000;stroke-width:1.5" />
<path d="M200.28,182.04L200.28,893.04" style="fill:none;stroke:#000000;stroke-width:1.5" />
<path d="M214.4,291.4A5,5 0 1 1 204.4,291.4A5,5 0 1 1 214.4,291.4Z" style="fill:#1FD3AC" />
<path d="M223.28,293.98A5,5 0 1 1 213.28,293.98A5,5 0 1 1 223.28,293.98Z" style="fill:#1FD3AC" />
<path d="M232.15,312.07A5,5 0 1 1 222.15,312.07A5,5 0 1 1 232.15,312.07Z" style="fill:#1FD3AC" />
<path d="M241.03,295.77A5,5 0 1 1 231.03,295.77A5,5 0 1 1 241.03,295.77Z" style="fill:#1FD3AC" />
<path d="M249.9,288.78A5,5 0 1 1 239.9,288.78A5,5 0 1 1 249.9,288.78Z" style="fill:#1FD3AC" />
<path d="M258.78,313.03A5,5 0 1 1 248.78,313.03A5,5 0 1 1 258.78,313.03Z" style="fill:#1FD3AC" />
<path d="M267.65,328.08A5,5 0 1 1 257.65,328.08A5,5 0 1 1 267.65,328.08Z" style="fill:#1FD3AC" />
<path d="M276.53,334.59A5,5 0 1 1 266.53,334.59A5,5 0 1 1 276.53,334.59Z" style="fill:#1FD3AC" />
<path d="M285.4,344.64A5,5 0 1 1 275.4,344.64A5,5 0 1 1 285.4,344.64Z" style="fill:#1FD3AC" />
<path d="M294.28,336.21A5,5 0 1 1 284.28,336.21A5,5 0 1 1 294.28,336.21Z" style="fill:#1FD3AC" />
<path d="M303.15,326.74A5,5 0 1 1 293.15,326.74A5,5 0 1 1 303.15,326.74Z" style="fill:#1FD3AC" />
<path d="M312.03,342.97A5,5 0 1 1 302.03,342.97A5,5 0 1 1 312.03,342.97Z" style="fill:#1FD3AC" />
<path d="M320.9,349.33A5,5 0 1 1 310.9,349.33A5,5 0 1 1 320.9,349.33Z" style="fill:#1FD3AC" />
<path d="M329.78,354.03A5,5 0 1 1 319.78,354.03A5,5 0 1 1 329.78,354.03Z" style="fill:#1FD3AC" />
<path d="M338.65,364.95A5,5 0 1 1 328.65,364.95A5,5 0 1 1 338.65,364.95Z" style="fill:#1FD3AC" />
<path d="M347.53,374.21A5,5 0 1 1 337.53,374.21A5,5 0 1 1 347.53,374.21Z" style="fill:#1FD3AC" />
<path d="M356.4,370.56A5,5 0 1 1 346.4,370.56A5,5 0 1 1 356.4,370.56Z" style="fill:#1FD3AC" />
<path d="M365.28,372.12A5,5 0 1 1 355.28,372.12A5,5 0 1 1 365.28,372.12Z" style="fill:#1FD3AC" />
<path d="M374.15,381.49A5,5 0 1 1 364.15,381.49A5,5 0 1 1 374.15,381.49Z" style="fill:#1FD3AC" />
<path d="M383.03,390.76A5,5 0 1 1 373.03,390.76A5,5 0 1 1 383.03,390.76Z" style="fill:#1FD3AC" />
<path d="M391.9,387.2A5,5 0 1 1 381.9,387.2A5,5 0 1 1 391.9,387.2Z" style="fill:#1FD3AC" />
<path d="M400.78,396.89A5,5 0 1 1 390.78,396.89A5,5 0 1 1 400.78,396.89Z" style="fill:#1FD3AC" />
<path d="M409.65,397.21A5,5 0 1 1 399.65,397.21A5,5 0 1 1 409.65,397.21Z" style="fill:#1FD3AC" />
<path d="M418.53,404.51A5,5 0 1 1 408.53,404.51A5,5 0 1 1 418.53,404.51Z" style="fill:#1FD3AC" />
<path d="M427.4,405.5A5,5 0 1 1 417.4,405.5A5,5 0 1 1 427.4,405.5Z" style="fill:#1FD3AC" />
<path d="M436.28,413.98A5,5 0 1 1 426.28,413.98A5,5 0 1 1 436.28,413.98Z" style="fill:#1FD3AC" />
<path d="M445.15,418.54A5,5 0 1 1 435.15,418.54A5,5 0 1 1 445.15,418.54Z" style="fill:#1FD3AC" />
<path d="M454.03,419.62A5,5 0 1 1 444.03,419.62A5,5 0 1 1 454.03,419.62Z" style="fill:#1FD3AC" />
<path d="M462.9,433.85A5,5 0 1 1 452.9,433.85A5,5 0 1 1 462.9,433.85Z" style="fill:#1FD3AC" />
<path d="M471.78,445.47A5,5 0 1 1 461.78,445.47A5,5 0 1 1 471.78,445.47Z" style="fill:#1FD3AC" />
<path d="M480.65,443.39A5,5 0 1 1 470.65,443.39A5,5 0 1 1 480.65,443.39Z" style="fill:#1FD3AC" />
<path d="M489.53,451.18A5,5 0 1 1 479.53,451.18A5,5 0 1 1 489.53,451.18Z" style="fill:#1FD3AC" />
<path d="M498.4,451.37A5,5 0 1 1 488.4,451.37A5,5 0 1 1 498.4,451.37Z" style="fill:#1FD3AC" />
<path d="M507.28,459.71A5,5 0 1 1 497.28,459.71A5,5 0 1 1 507.28,459.71Z" style="fill:#1FD3AC" />
<path d="M516.15,476.41A5,5 0 1 1 506.15,476.41A5,5 0 1 1 516.15,476.41Z" style="fill:#1FD3AC" />
<path d="M525.02,485.48A5,5 0 1 1 515.02,485.48A5,5 0 1 1 525.02,485.48Z" style="fill:#1FD3AC" />
<path d="M533.9,481.89A5,5 0 1 1 523.9,481.89A5,5 0 1 1 533.9,481.89Z" style="fill:#1FD3AC" />
<path d="M542.77,494.89A5,5 0 1 1 532.77,494.89A5,5 0 1 1 542.77,494.89Z" style="fill:#1FD3AC" />
<path d="M551.65,505.97A5,5 0 1 1 541.65,505.97A5,5 0 1 1 551.65,505.97Z" style="fill:#1FD3AC" />
<path d="M560.52,516.56A5,5 0 1 1 550.52,516.56A5,5 0 1 1 560.52,516.56Z" style="fill:#1FD3AC" />
<path d="M569.4,490.57A5,5 0 1 1 559.4,490.57A5,5 0 1 1 569.4,490.57Z" style="fill:#1FD3AC" />
<path d="M578.27,558.85A5,5 0 1 1 568.27,558.85A5,5 0 1 1 578.27,558.85Z" style="fill:#1FD3AC" />
<path d="M587.15,601.47A5,5 0 1 1 577.15,601.47A5,5 0 1 1 587.15,601.47Z" style="fill:#1FD3AC" />
<path d="M596.02,596.36A5,5 0 1 1 586.02,596.36A5,5 0 1 1 596.02,596.36Z" style="fill:#1FD3AC" />
<path d="M604.9,651.26A5,5 0 1 1 594.9,651.26A5,5 0 1 1 604.9,651.26Z" style="fill:#1FD3AC" />
<path d="M613.77,650.28A5,5 0 1 1 603.77,650.28A5,5 0 1 1 613.77,650.28Z" style="fill:#1FD3AC" />
<path d="M622.65,708.41A5,5 0 1 1 612.65,708.41A5,5 0 1 1 622.65,708.41Z" style="fill:#1FD3AC" />
<path d="M631.52,779.45A5,5 0 1 1 621.52,779.45A5,5 0 1 1 631.52,779.45Z" style="fill:#1FD3AC" />
<path d="M640.4,773.15A5,5 0 1 1 630.4,773.15A5,5 0 1 1 640.4,773.15Z" style="fill:#1FD3AC" />
<path d="M649.27,769.89A5,5 0 1 1 639.27,769.89A5,5 0 1 1 649.27,769.89Z" style="fill:#1FD3AC" />
<path d="M658.15,693.09A5,5 0 1 1 648.15,693.09A5,5 0 1 1 658.15,693.09Z" style="fill:#1FD3AC" />
<path d="M667.02,591.14A5,5 0 1 1 657.02,591.14A5,5 0 1 1 667.02,591.14Z" style="fill:#1FD3AC" />
<path d="M675.9,508.93A5,5 0 1 1 665.9,508.93A5,5 0 1 1 675.9,508.93Z" style="fill:#1FD3AC" />
<path d="M684.77,440.96A5,5 0 1 1 674.77,440.96A5,5 0 1 1 684.77,440.96Z" style="fill:#1FD3AC" />
<path d="M693.65,384.18A5,5 0 1 1 683.65,384.18A5,5 0 1 1 693.65,384.18Z" style="fill:#1FD3AC" />
<path d="M702.52,361.81A5,5 0 1 1 692.52,361.81A5,5 0 1 1 702.52,361.81Z" style="fill:#1FD3AC" />
<path d="M711.4,297.55A5,5 0 1 1 701.4,297.55A5,5 0 1 1 711.4,297.55Z" style="fill:#1FD3AC" />
<path d="M720.27,272.48A5,5 0 1 1 710.27,272.48A5,5 0 1 1 720.27,272.48Z" style="fill:#1FD3AC" />
<path d="M729.15,260.83A5,5 0 1 1 719.15,260.83A5,5 0 1 1 729.15,260.83Z" style="fill:#1FD3AC" />
<path d="M738.02,277.22A5,5 0 1 1 728.02,277.22A5,5 0 1 1 738.02,277.22Z" style="fill:#1FD3AC" />
<path d="M746.9,273.46A5,5 0 1 1 736.9,273.46A5,5 0 1 1 746.9,273.46Z" style="fill:#1FD3AC" />
<path d="M755.77,278.28A5,5 0 1 1 745.77,278.28A5,5 0 1 1 755.77,278.28Z" style="fill:#1FD3AC" />
<path d="M764.65,240.21A5,5 0 1 1 754.65,240.21A5,5 0 1 1 764.65,240.21Z" style="fill:#1FD3AC" />
<path d="M773.52,254.18A5,5 0 1 1 763.52,254.18A5,5 0 1 1 773.52,254.18Z" style="fill:#1FD3AC" />
<path d="M782.4,247.51A5,5 0 1 1 772.4,247.51A5,5 0 1 1 782.4,247.51Z" style="fill:#1FD3AC" />
<path d="M791.27,236.04A5,5 0 1 1 781.27,236.04A5,5 0 1 1 791.27,236.04Z" style="fill:#1FD3AC" />
<path d="M800.15,220.69A5,5 0 1 1 790.15,220.69A5,5 0 1 1 800.15,220.69Z" style="fill:#1FD3AC" />
<path d="M809.02,231.86A5,5 0 1 1 799.02,231.86A5,5 0 1 1 809.02,231.86Z" style="fill:#1FD3AC" />
<path d="M817.9,266.33A5,5 0 1 1 807.9,266.33A5,5 0 1 1 817.9,266.33Z" style="fill:#1FD3AC" />
<path d="M826.77,271.58A5,5 0 1 1 816.77,271.58A5,5 0 1 1 826.77,271.58Z" style="fill:#1FD3AC" />
<path d="M835.65,259.28A5,5 0 1 1 825.65,259.28A5,5 0 1 1 835.65,259.28Z" style="fill:#1FD3AC" />
<path d="M844.52,256.16A5,5 0 1 1 834.52,256.16A5,5 0 1 1 844.52,256.16Z" style="fill:#1FD3AC" />
<path d="M853.4,261.44A5,5 0 1 1 843.4,261.44A5,5 0 1 1 853.4,261.44Z" style="fill:#1FD3AC" />
<path d="M862.27,255.14A5,5 0 1 1 852.27,255.14A5,5 0 1 1 862.27,255.14Z" style="fill:#1FD3AC" />
<path d="M871.15,231.35A5,5 0 1 1 861.15,231.35A5,5 0 1 1 871.15,231.35Z" style="fill:#1FD3AC" />
<path d="M880.02,231.24A5,5 0 1 1 870.02,231.24A5,5 0 1 1 880.02,231.24Z" style="fill:#1FD3AC" />
<path d="M888.9,257.95A5,5 0 1 1 878.9,257.95A5,5 0 1 1 888.9,257.95Z" style="fill:#1FD3AC" />
<path d="M897.77,282.33A5,5 0 1 1 887.77,282.33A5,5 0 1 1 897.77,282.33Z" style="fill:#1FD3AC" />
<path d="M906.65,289.54A5,5 0 1 1 896.65,289.54A5,5 0 1 1 906.65,289.54Z" style="fill:#1FD3AC" />
<path d="M915.52,278.93A5,5 0 1 1 905.52,278.93A5,5 0 1 1 915.52,278.93Z" style="fill:#1FD3AC" />
<path d="M924.4,300.2A5,5 0 1 1 914.4,300.2A5,5 0 1 1 924.4,300.2Z" style="fill:#1FD3AC" />
<path d="M933.27,287.27A5,5 0 1 1 923.27,287.27A5,5 0 1 1 933.27,287.27Z" style="fill:#1FD3AC" />
<path d="M942.15,273.4A5,5 0 1 1 932.15,273.4A5,5 0 1 1 942.15,273.4Z" style="fill:#1FD3AC" />
<path d="M951.02,261.74A5,5 0 1 1 941.02,261.74A5,5 0 1 1 951.02,261.74Z" style="fill:#1FD3AC" />
<path d="M959.9,282.51A5,5 0 1 1 949.9,282.51A5,5 0 1 1 959.9,282.51Z" style="fill:#1FD3AC" />
<path d="M968.77,266.07A5,5 0 1 1 958.77,266.07A5,5 0 1 1 968.77,266.07Z" style="fill:#1FD3AC" />
<path d="M977.65,264.36A5,5 0 1 1 967.65,264.36A5,5 0 1 1 977.65,264.36Z" style="fill:#1FD3AC" />
<path d="M986.52,265.35A5,5 0 1 1 976.52,265.35A5,5 0 1 1 986.52,265.35Z" style="fill:#1FD3AC" />
<path d="M995.4,309.64A5,5 0 1 1 985.4,309.64A5,5 0 1 1 995.4,309.64Z" style="fill:#1FD3AC" />
<path d="M1004.3,316.12A5,5 0 1 1 994.27,316.12A5,5 0 1 1 1004.3,316.12Z" style="fill:#1FD3AC" />
<path d="M1013.1,311.61A5,5 0 1 1 1003.1,311.61A5,5 0 1 1 1013.1,311.61Z" style="fill:#1FD3AC" />
<path d="M1022,294.6A5,5 0 1 1 1012,294.6A5,5 0 1 1 1022,294.6Z" style="fill:#1FD3AC" />
<path d="M1030.9,296.86A5,5 0 1 1 1020.9,296.86A5,5 0 1 1 1030.9,296.86Z" style="fill:#1FD3AC" />
<path d="M1039.8,282.58A5,5 0 1 1 1029.8,282.58A5,5 0 1 1 1039.8,282.58Z" style="fill:#1FD3AC" />
<path d="M1048.6,280.55A5,5 0 1 1 1038.6,280.55A5,5 0 1 1 1048.6,280.55Z" style="fill:#1FD3AC" />
<path d="M1057.5,273.67A5,5 0 1 1 1047.5,273.67A5,5 0 1 1 1057.5,273.67Z" style="fill:#1FD3AC" />
<path d="M1066.4,284.5A5,5 0 1 1 1056.4,284.5A5,5 0 1 1 1066.4,284.5Z" style="fill:#1FD3AC" />
<path d="M1075.3,281.09A5,5 0 1 1 1065.3,281.09A5,5 0 1 1 1075.3,281.09Z" style="fill:#1FD3AC" />
<path d="M214.4,183.78A5,5 0 1 1 204.4,183.78A5,5 0 1 1 214.4,183.78Z" style="fill:#BC75FF" />
<path d="M223.28,185.9A5,5 0 1 1 213.28,185.9A5,5 0 1 1 223.28,185.9Z" style="fill:#BC75FF" />
<path d="M232.15,184.36A5,5 0 1 1 222.15,184.36A5,5 0 1 1 232.15,184.36Z" style="fill:#BC75FF" />
<path d="M241.03,183.75A5,5 0 1 1 231.03,183.75A5,5 0 1 1 241.03,183.75Z" style="fill:#BC75FF" />
<path d="M249.9,184.76A5,5 0 1 1 239.9,184.76A5,5 0 1 1 249.9,184.76Z" style="fill:#BC75FF" />
<path d="M258.78,184.5A5,5 0 1 1 248.78,184.5A5,5 0 1 1 258.78,184.5Z" style="fill:#BC75FF" />
<path d="M267.65,185.52A5,5 0 1 1 257.65,185.52A5,5 0 1 1 267.65,185.52Z" style="fill:#BC75FF" />
<path d="M276.53,185.49A5,5 0 1 1 266.53,185.49A5,5 0 1 1 276.53,185.49Z" style="fill:#BC75FF" />
<path d="M285.4,185.12A5,5 0 1 1 275.4,185.12A5,5 0 1 1 285.4,185.12Z" style="fill:#BC75FF" />
<path d="M294.28,184.37A5,5 0 1 1 284.28,184.37A5,5 0 1 1 294.28,184.37Z" style="fill:#BC75FF" />
<path d="M303.15,184.58A5,5 0 1 1 293.15,184.58A5,5 0 1 1 303.15,184.58Z" style="fill:#BC75FF" />
<path d="M312.03,185.04A5,5 0 1 1 302.03,185.04A5,5 0 1 1 312.03,185.04Z" style="fill:#BC75FF" />
<path d="M320.9,184.21A5,5 0 1 1 310.9,184.21A5,5 0 1 1 320.9,184.21Z" style="fill:#BC75FF" />
<path d="M329.78,184.63A5,5 0 1 1 319.78,184.63A5,5 0 1 1 329.78,184.63Z" style="fill:#BC75FF" />
<path d="M338.65,185.01A5,5 0 1 1 328.65,185.01A5,5 0 1 1 338.65,185.01Z" style="fill:#BC75FF" />
<path d="M347.53,184.8A5,5 0 1 1 337.53,184.8A5,5 0 1 1 347.53,184.8Z" style="fill:#BC75FF" />
<path d="M356.4,184.97A5,5 0 1 1 346.4,184.97A5,5 0 1 1 356.4,184.97Z" style="fill:#BC75FF" />
<path d="M365.28,185.07A5,5 0 1 1 355.28,185.07A5,5 0 1 1 365.28,185.07Z" style="fill:#BC75FF" />
<path d="M374.15,185.79A5,5 0 1 1 364.15,185.79A5,5 0 1 1 374.15,185.79Z" style="fill:#BC75FF" />
<path d="M383.03,186.15A5,5 0 1 1 373.03,186.15A5,5 0 1 1 383.03,186.15Z" style="fill:#BC75FF" />
<path d="M391.9,183.6A5,5 0 1 1 381.9,183.6A5,5 0 1 1 391.9,183.6Z" style="fill:#BC75FF" />
<path d="M400.78,186.8A5,5 0 1 1 390.78,186.8A5,5 0 1 1 400.78,186.8Z" style="fill:#BC75FF" />
<path d="M409.65,186.62A5,5 0 1 1 399.65,186.62A5,5 0 1 1 409.65,186.62Z" style="fill:#BC75FF" />
<path d="M418.53,186.08A5,5 0 1 1 408.53,186.08A5,5 0 1 1 418.53,186.08Z" style="fill:#BC75FF" />
<path d="M427.4,186.72A5,5 0 1 1 417.4,186.72A5,5 0 1 1 427.4,186.72Z" style="fill:#BC75FF" />
<path d="M436.28,186.47A5,5 0 1 1 426.28,186.47A5,5 0 1 1 436.28,186.47Z" style="fill:#BC75FF" />
<path d="M445.15,187.47A5,5 0 1 1 435.15,187.47A5,5 0 1 1 445.15,187.47Z" style="fill:#BC75FF" />
<path d="M454.03,189.97A5,5 0 1 1 444.03,189.97A5,5 0 1 1 454.03,189.97Z" style="fill:#BC75FF" />
<path d="M462.9,187.66A5,5 0 1 1 452.9,187.66A5,5 0 1 1 462.9,187.66Z" style="fill:#BC75FF" />
<path d="M471.78,188.39A5,5 0 1 1 461.78,188.39A5,5 0 1 1 471.78,188.39Z" style="fill:#BC75FF" />
<path d="M480.65,188.4A5,5 0 1 1 470.65,188.4A5,5 0 1 1 480.65,188.4Z" style="fill:#BC75FF" />
<path d="M489.53,191.09A5,5 0 1 1 479.53,191.09A5,5 0 1 1 489.53,191.09Z" style="fill:#BC75FF" />
<path d="M498.4,191.88A5,5 0 1 1 488.4,191.88A5,5 0 1 1 498.4,191.88Z" style="fill:#BC75FF" />
<path d="M507.28,189.27A5,5 0 1 1 497.28,189.27A5,5 0 1 1 507.28,189.27Z" style="fill:#BC75FF" />
<path d="M516.15,188.32A5,5 0 1 1 506.15,188.32A5,5 0 1 1 516.15,188.32Z" style="fill:#BC75FF" />
<path d="M525.02,190.85A5,5 0 1 1 515.02,190.85A5,5 0 1 1 525.02,190.85Z" style="fill:#BC75FF" />
<path d="M533.9,188.82A5,5 0 1 1 523.9,188.82A5,5 0 1 1 533.9,188.82Z" style="fill:#BC75FF" />
<path d="M542.77,191.49A5,5 0 1 1 532.77,191.49A5,5 0 1 1 542.77,191.49Z" style="fill:#BC75FF" />
<path d="M551.65,191.86A5,5 0 1 1 541.65,191.86A5,5 0 1 1 551.65,191.86Z" style="fill:#BC75FF" />
<path d="M560.52,192.76A5,5 0 1 1 550.52,192.76A5,5 0 1 1 560.52,192.76Z" style="fill:#BC75FF" />
<path d="M569.4,192.75A5,5 0 1 1 559.4,192.75A5,5 0 1 1 569.4,192.75Z" style="fill:#BC75FF" />
<path d="M578.27,194.02A5,5 0 1 1 568.27,194.02A5,5 0 1 1 578.27,194.02Z" style="fill:#BC75FF" />
<path d="M587.15,196.81A5,5 0 1 1 577.15,196.81A5,5 0 1 1 587.15,196.81Z" style="fill:#BC75FF" />
<path d="M596.02,197.25A5,5 0 1 1 586.02,197.25A5,5 0 1 1 596.02,197.25Z" style="fill:#BC75FF" />
<path d="M604.9,201.18A5,5 0 1 1 594.9,201.18A5,5 0 1 1 604.9,201.18Z" style="fill:#BC75FF" />
<path d="M613.77,210.04A5,5 0 1 1 603.77,210.04A5,5 0 1 1 613.77,210.04Z" style="fill:#BC75FF" />
<path d="M622.65,220.52A5,5 0 1 1 612.65,220.52A5,5 0 1 1 622.65,220.52Z" style="fill:#BC75FF" />
<path d="M631.52,236.71A5,5 0 1 1 621.52,236.71A5,5 0 1 1 631.52,236.71Z" style="fill:#BC75FF" />
<path d="M640.4,240.59A5,5 0 1 1 630.4,240.59A5,5 0 1 1 640.4,240.59Z" style="fill:#BC75FF" />
<path d="M649.27,235.73A5,5 0 1 1 639.27,235.73A5,5 0 1 1 649.27,235.73Z" style="fill:#BC75FF" />
<path d="M658.15,229.21A5,5 0 1 1 648.15,229.21A5,5 0 1 1 658.15,229.21Z" style="fill:#BC75FF" />
<path d="M667.02,220.1A5,5 0 1 1 657.02,220.1A5,5 0 1 1 667.02,220.1Z" style="fill:#BC75FF" />
<path d="M675.9,209.82A5,5 0 1 1 665.9,209.82A5,5 0 1 1 675.9,209.82Z" style="fill:#BC75FF" />
<path d="M684.77,202.44A5,5 0 1 1 674.77,202.44A5,5 0 1 1 684.77,202.44Z" style="fill:#BC75FF" />
<path d="M693.65,195.93A5,5 0 1 1 683.65,195.93A5,5 0 1 1 693.65,195.93Z" style="fill:#BC75FF" />
<path d="M702.52,190.87A5,5 0 1 1 692.52,190.87A5,5 0 1 1 702.52,190.87Z" style="fill:#BC75FF" />
<path d="M711.4,190.13A5,5 0 1 1 701.4,190.13A5,5 0 1 1 711.4,190.13Z" style="fill:#BC75FF" />
<path d="M720.27,187.46A5,5 0 1 1 710.27,187.46A5,5 0 1 1 720.27,187.46Z" style="fill:#BC75FF" />
<path d="M729.15,186.13A5,5 0 1 1 719.15,186.13A5,5 0 1 1 729.15,186.13Z" style="fill:#BC75FF" />
<path d="M738.02,185.37A5,5 0 1 1 728.02,185.37A5,5 0 1 1 738.02,185.37Z" style="fill:#BC75FF" />
<path d="M746.9,184.46A5,5 0 1 1 736.9,184.46A5,5 0 1 1 746.9,184.46Z" style="fill:#BC75FF" />
<path d="M755.77,184.71A5,5 0 1 1 745.77,184.71A5,5 0 1 1 755.77,184.71Z" style="fill:#BC75FF" />
<path d="M764.65,185.01A5,5 0 1 1 754.65,185.01A5,5 0 1 1 764.65,185.01Z" style="fill:#BC75FF" />
<path d="M773.52,183.14A5,5 0 1 1 763.52,183.14A5,5 0 1 1 773.52,183.14Z" style="fill:#BC75FF" />
<path d="M782.4,183.82A5,5 0 1 1 772.4,183.82A5,5 0 1 1 782.4,183.82Z" style="fill:#BC75FF" />
<path d="M791.27,184.48A5,5 0 1 1 781.27,184.48A5,5 0 1 1 791.27,184.48Z" style="fill:#BC75FF" />
<path d="M800.15,182.57A5,5 0 1 1 790.15,182.57A5,5 0 1 1 800.15,182.57Z" style="fill:#BC75FF" />
<path d="M809.02,185.19A5,5 0 1 1 799.02,185.19A5,5 0 1 1 809.02,185.19Z" style="fill:#BC75FF" />
<path d="M817.9,185.34A5,5 0 1 1 807.9,185.34A5,5 0 1 1 817.9,185.34Z" style="fill:#BC75FF" />
<path d="M826.77,185.91A5,5 0 1 1 816.77,185.91A5,5 0 1 1 826.77,185.91Z" style="fill:#BC75FF" />
<path d="M835.65,184.99A5,5 0 1 1 825.65,184.99A5,5 0 1 1 835.65,184.99Z" style="fill:#BC75FF" />
<path d="M844.52,183.81A5,5 0 1 1 834.52,183.81A5,5 0 1 1 844.52,183.81Z" style="fill:#BC75FF" />
<path d="M853.4,184.79A5,5 0 1 1 843.4,184.79A5,5 0 1 1 853.4,184.79Z" style="fill:#BC75FF" />
<path d="M862.27,184.88A5,5 0 1 1 852.27,184.88A5,5 0 1 1 862.27,184.88Z" style="fill:#BC75FF" />
<path d="M871.15,183.94A5,5 0 1 1 861.15,183.94A5,5 0 1 1 871.15,183.94Z" style="fill:#BC75FF" />
<path d="M880.02,184.6A5,5 0 1 1 870.02,184.6A5,5 0 1 1 880.02,184.6Z" style="fill:#BC75FF" />
<path d="M888.9,183.89A5,5 0 1 1 878.9,183.89A5,5 0 1 1 888.9,183.89Z" style="fill:#BC75FF" />
<path d="M897.77,185.18A5,5 0 1 1 887.77,185.18A5,5 0 1 1 897.77,185.18Z" style="fill:#BC75FF" />
<path d="M906.65,184.32A5,5 0 1 1 896.65,184.32A5,5 0 1 1 906.65,184.32Z" style="fill:#BC75FF" />
<path d="M915.52,183.56A5,5 0 1 1 905.52,183.56A5,5 0 1 1 915.52,183.56Z" style="fill:#BC75FF" />
<path d="M924.4,183.95A5,5 0 1 1 914.4,183.95A5,5 0 1 1 924.4,183.95Z" style="fill:#BC75FF" />
<path d="M933.27,182.24A5,5 0 1 1 923.27,182.24A5,5 0 1 1 933.27,182.24Z" style="fill:#BC75FF" />
<path d="M942.15,184.39A5,5 0 1 1 932.15,184.39A5,5 0 1 1 942.15,184.39Z" style="fill:#BC75FF" />
<path d="M951.02,184.79A5,5 0 1 1 941.02,184.79A5,5 0 1 1 951.02,184.79Z" style="fill:#BC75FF" />
<path d="M959.9,183.78A5,5 0 1 1 949.9,183.78A5,5 0 1 1 959.9,183.78Z" style="fill:#BC75FF" />
<path d="M968.77,183.41A5,5 0 1 1 958.77,183.41A5,5 0 1 1 968.77,183.41Z" style="fill:#BC75FF" />
<path d="M977.65,182.94A5,5 0 1 1 967.65,182.94A5,5 0 1 1 977.65,182.94Z" style="fill:#BC75FF" />
<path d="M986.52,183.26A5,5 0 1 1 976.52,183.26A5,5 0 1 1 986.52,183.26Z" style="fill:#BC75FF" />
<path d="M995.4,183.31A5,5 0 1 1 985.4,183.31A5,5 0 1 1 995.4,183.31Z" style="fill:#BC75FF" />
<path d="M1004.3,183.47A5,5 0 1 1 994.27,183.47A5,5 0 1 1 1004.3,183.47Z" style="fill:#BC75FF" />
<path d="M1013.1,184.35A5,5 0 1 1 1003.1,184.35A5,5 0 1 1 1013.1,184.35Z" style="fill:#BC75FF" />
<path d="M1022,183.82A5,5 0 1 1 1012,183.82A5,5 0 1 1 1022,183.82Z" style="fill:#BC75FF" />
<path d="M1030.9,183.46A5,5 0 1 1 1020.9,183.46A5,5 0 1 1 1030.9,183.46Z" style="fill:#BC75FF" />
<path d="M1039.8,184.75A5,5 0 1 1 1029.8,184.75A5,5 0 1 1 1039.8,184.75Z" style="fill:#BC75FF" />
<path d="M1048.6,184.15A5,5 0 1 1 1038.6,184.15A5,5 0 1 1 1048.6,184.15Z" style="fill:#BC75FF" />
<path d="M1057.5,184.87A5,5 0 1 1 1047.5,184.87A5,5 0 1 1 1057.5,184.87Z" style="fill:#BC75FF" />
<path d="M1066.4,184.58A5,5 0 1 1 1056.4,184.58A5,5 0 1 1 1066.4,184.58Z" style="fill:#BC75FF" />
<path d="M1075.3,184.31A5,5 0 1 1 1065.3,184.31A5,5 0 1 1 1075.3,184.31Z" style="fill:#BC75FF" />
<path d="M1038,852.33A8,8 0 1 1 1022,852.33A8,8 0 1 1 1038,852.33Z" style="fill:#1FD3AC" />
<text x="706.24" y="-839.14" transform="scale(1, -1)"
	style="font-family:Helvetica;font-weight:normal;font-style:normal;font-size:56px">3 GHz CS2</text>
<path d="M1038,793.47A8,8 0 1 1 1022,793.47A8,8 0 1 1 1038,793.47Z" style="fill:#BC75FF" />
<text x="706.24" y="-780.27" transform="scale(1, -1)"
	style="font-family:Helvetica;font-weight:normal;font-style:normal;font-size:56px">4 GHz CS2</text>
</g>
</svg>
