<?xml version="1.0"?>
<!-- Generated by SVGo and Plotinum VG -->
<svg width="1080pt" height="1080pt" viewBox="0 0 1080 1080"
	xmlns="http://www.w3.org/2000/svg"
	xmlns:xlink="http://www.w3.org/1999/xlink">
<g transform="scale(1, -1) translate(0, -1080)">
<path d="M0,0L1080,0L1080,1080L0,1080Z" style="fill:#-8000000000000000-8000000000000000-8000000000000000;fill-opacity:0" />
<text x="533.05" y="-1039.5" transform="scale(1, -1)"
	style="font-family:Helvetica;font-weight:normal;font-style:normal;font-size:50px"> </text>
<text x="442.52" y="-11.039" transform="scale(1, -1)"
	style="font-family:Helvetica;font-weight:normal;font-style:normal;font-size:36px">Frequency (GHz)</text>
<text x="96.11" y="-71.258" transform="scale(1, -1)"
	style="font-family:Helvetica;font-weight:normal;font-style:normal;font-size:36px">2</text>
<text x="270.87" y="-71.258" transform="scale(1, -1)"
	style="font-family:Helvetica;font-weight:normal;font-style:normal;font-size:36px">2.1</text>
<text x="460.64" y="-71.258" transform="scale(1, -1)"
	style="font-family:Helvetica;font-weight:normal;font-style:normal;font-size:36px">2.2</text>
<text x="650.41" y="-71.258" transform="scale(1, -1)"
	style="font-family:Helvetica;font-weight:normal;font-style:normal;font-size:36px">2.3</text>
<text x="840.18" y="-71.258" transform="scale(1, -1)"
	style="font-family:Helvetica;font-weight:normal;font-style:normal;font-size:36px">2.4</text>
<text x="1030" y="-71.258" transform="scale(1, -1)"
	style="font-family:Helvetica;font-weight:normal;font-style:normal;font-size:36px">2.5</text>
<path d="M106.12,116.44L106.12,108.44" style="fill:none;stroke:#000000;stroke-width:1.5" />
<path d="M201.01,112.44L201.01,108.44" style="fill:none;stroke:#000000;stroke-width:1.5" />
<path d="M295.89,116.44L295.89,108.44" style="fill:none;stroke:#000000;stroke-width:1.5" />
<path d="M390.78,112.44L390.78,108.44" style="fill:none;stroke:#000000;stroke-width:1.5" />
<path d="M485.66,116.44L485.66,108.44" style="fill:none;stroke:#000000;stroke-width:1.5" />
<path d="M580.55,112.44L580.55,108.44" style="fill:none;stroke:#000000;stroke-width:1.5" />
<path d="M675.43,116.44L675.43,108.44" style="fill:none;stroke:#000000;stroke-width:1.5" />
<path d="M770.32,112.44L770.32,108.44" style="fill:none;stroke:#000000;stroke-width:1.5" />
<path d="M865.21,116.44L865.21,108.44" style="fill:none;stroke:#000000;stroke-width:1.5" />
<path d="M960.09,112.44L960.09,108.44" style="fill:none;stroke:#000000;stroke-width:1.5" />
<path d="M1055,116.44L1055,108.44" style="fill:none;stroke:#000000;stroke-width:1.5" />
<path d="M106.12,108.44L1055,108.44" style="fill:none;stroke:#000000;stroke-width:1.5" />
<g transform="rotate(90)">
<text x="365.02" y="29.18" transform="scale(1, -1)"
	style="font-family:Helvetica;font-weight:normal;font-style:normal;font-size:36px">Spectral Density (uV)</text>
</g>
<text x="67.848" y="-115.07" transform="scale(1, -1)"
	style="font-family:Helvetica;font-weight:normal;font-style:normal;font-size:36px">0</text>
<text x="67.848" y="-394.64" transform="scale(1, -1)"
	style="font-family:Helvetica;font-weight:normal;font-style:normal;font-size:36px">1</text>
<text x="67.848" y="-674.2" transform="scale(1, -1)"
	style="font-family:Helvetica;font-weight:normal;font-style:normal;font-size:36px">2</text>
<text x="67.848" y="-953.77" transform="scale(1, -1)"
	style="font-family:Helvetica;font-weight:normal;font-style:normal;font-size:36px">3</text>
<path d="M113.87,124.14L105.87,124.14" style="fill:none;stroke:#000000;stroke-width:1.5" />
<path d="M109.87,263.93L105.87,263.93" style="fill:none;stroke:#000000;stroke-width:1.5" />
<path d="M113.87,403.71L105.87,403.71" style="fill:none;stroke:#000000;stroke-width:1.5" />
<path d="M109.87,543.49L105.87,543.49" style="fill:none;stroke:#000000;stroke-width:1.5" />
<path d="M113.87,683.27L105.87,683.27" style="fill:none;stroke:#000000;stroke-width:1.5" />
<path d="M109.87,823.06L105.87,823.06" style="fill:none;stroke:#000000;stroke-width:1.5" />
<path d="M113.87,962.84L105.87,962.84" style="fill:none;stroke:#000000;stroke-width:1.5" />
<path d="M105.87,107.32L105.87,962.84" style="fill:none;stroke:#000000;stroke-width:1.5" />
<path d="M113.87,119.47A3,3 0 1 1 107.87,119.47A3,3 0 1 1 113.87,119.47Z" style="fill:#1FD3AC" />
<path d="M123.35,120.35A3,3 0 1 1 117.35,120.35A3,3 0 1 1 123.35,120.35Z" style="fill:#1FD3AC" />
<path d="M132.84,117.77A3,3 0 1 1 126.84,117.77A3,3 0 1 1 132.84,117.77Z" style="fill:#1FD3AC" />
<path d="M142.33,117.89A3,3 0 1 1 136.33,117.89A3,3 0 1 1 142.33,117.89Z" style="fill:#1FD3AC" />
<path d="M151.82,115.51A3,3 0 1 1 145.82,115.51A3,3 0 1 1 151.82,115.51Z" style="fill:#1FD3AC" />
<path d="M161.31,122.36A3,3 0 1 1 155.31,122.36A3,3 0 1 1 161.31,122.36Z" style="fill:#1FD3AC" />
<path d="M170.8,118.27A3,3 0 1 1 164.8,118.27A3,3 0 1 1 170.8,118.27Z" style="fill:#1FD3AC" />
<path d="M180.29,118.95A3,3 0 1 1 174.29,118.95A3,3 0 1 1 180.29,118.95Z" style="fill:#1FD3AC" />
<path d="M189.77,123A3,3 0 1 1 183.77,123A3,3 0 1 1 189.77,123Z" style="fill:#1FD3AC" />
<path d="M199.26,125.1A3,3 0 1 1 193.26,125.1A3,3 0 1 1 199.26,125.1Z" style="fill:#1FD3AC" />
<path d="M208.75,125.36A3,3 0 1 1 202.75,125.36A3,3 0 1 1 208.75,125.36Z" style="fill:#1FD3AC" />
<path d="M218.24,126.12A3,3 0 1 1 212.24,126.12A3,3 0 1 1 218.24,126.12Z" style="fill:#1FD3AC" />
<path d="M227.73,126.23A3,3 0 1 1 221.73,126.23A3,3 0 1 1 227.73,126.23Z" style="fill:#1FD3AC" />
<path d="M237.22,130.38A3,3 0 1 1 231.22,130.38A3,3 0 1 1 237.22,130.38Z" style="fill:#1FD3AC" />
<path d="M246.71,132.01A3,3 0 1 1 240.71,132.01A3,3 0 1 1 246.71,132.01Z" style="fill:#1FD3AC" />
<path d="M256.19,140.86A3,3 0 1 1 250.19,140.86A3,3 0 1 1 256.19,140.86Z" style="fill:#1FD3AC" />
<path d="M265.68,141.76A3,3 0 1 1 259.68,141.76A3,3 0 1 1 265.68,141.76Z" style="fill:#1FD3AC" />
<path d="M275.17,139.98A3,3 0 1 1 269.17,139.98A3,3 0 1 1 275.17,139.98Z" style="fill:#1FD3AC" />
<path d="M284.66,145.15A3,3 0 1 1 278.66,145.15A3,3 0 1 1 284.66,145.15Z" style="fill:#1FD3AC" />
<path d="M294.15,145.31A3,3 0 1 1 288.15,145.31A3,3 0 1 1 294.15,145.31Z" style="fill:#1FD3AC" />
<path d="M303.64,149.33A3,3 0 1 1 297.64,149.33A3,3 0 1 1 303.64,149.33Z" style="fill:#1FD3AC" />
<path d="M313.13,153.6A3,3 0 1 1 307.13,153.6A3,3 0 1 1 313.13,153.6Z" style="fill:#1FD3AC" />
<path d="M322.61,154.84A3,3 0 1 1 316.61,154.84A3,3 0 1 1 322.61,154.84Z" style="fill:#1FD3AC" />
<path d="M332.1,159.8A3,3 0 1 1 326.1,159.8A3,3 0 1 1 332.1,159.8Z" style="fill:#1FD3AC" />
<path d="M341.59,166.46A3,3 0 1 1 335.59,166.46A3,3 0 1 1 341.59,166.46Z" style="fill:#1FD3AC" />
<path d="M351.08,173.69A3,3 0 1 1 345.08,173.69A3,3 0 1 1 351.08,173.69Z" style="fill:#1FD3AC" />
<path d="M360.57,178.1A3,3 0 1 1 354.57,178.1A3,3 0 1 1 360.57,178.1Z" style="fill:#1FD3AC" />
<path d="M370.06,178.5A3,3 0 1 1 364.06,178.5A3,3 0 1 1 370.06,178.5Z" style="fill:#1FD3AC" />
<path d="M379.55,185.32A3,3 0 1 1 373.55,185.32A3,3 0 1 1 379.55,185.32Z" style="fill:#1FD3AC" />
<path d="M389.03,196.08A3,3 0 1 1 383.03,196.08A3,3 0 1 1 389.03,196.08Z" style="fill:#1FD3AC" />
<path d="M398.52,196.51A3,3 0 1 1 392.52,196.51A3,3 0 1 1 398.52,196.51Z" style="fill:#1FD3AC" />
<path d="M408.01,202.71A3,3 0 1 1 402.01,202.71A3,3 0 1 1 408.01,202.71Z" style="fill:#1FD3AC" />
<path d="M417.5,214.08A3,3 0 1 1 411.5,214.08A3,3 0 1 1 417.5,214.08Z" style="fill:#1FD3AC" />
<path d="M426.99,223.96A3,3 0 1 1 420.99,223.96A3,3 0 1 1 426.99,223.96Z" style="fill:#1FD3AC" />
<path d="M436.48,238.47A3,3 0 1 1 430.48,238.47A3,3 0 1 1 436.48,238.47Z" style="fill:#1FD3AC" />
<path d="M445.97,243.29A3,3 0 1 1 439.97,243.29A3,3 0 1 1 445.97,243.29Z" style="fill:#1FD3AC" />
<path d="M455.45,254.09A3,3 0 1 1 449.45,254.09A3,3 0 1 1 455.45,254.09Z" style="fill:#1FD3AC" />
<path d="M464.94,265.98A3,3 0 1 1 458.94,265.98A3,3 0 1 1 464.94,265.98Z" style="fill:#1FD3AC" />
<path d="M474.43,285.41A3,3 0 1 1 468.43,285.41A3,3 0 1 1 474.43,285.41Z" style="fill:#1FD3AC" />
<path d="M483.92,304.38A3,3 0 1 1 477.92,304.38A3,3 0 1 1 483.92,304.38Z" style="fill:#1FD3AC" />
<path d="M493.41,331.82A3,3 0 1 1 487.41,331.82A3,3 0 1 1 493.41,331.82Z" style="fill:#1FD3AC" />
<path d="M502.9,350.3A3,3 0 1 1 496.9,350.3A3,3 0 1 1 502.9,350.3Z" style="fill:#1FD3AC" />
<path d="M512.39,376.62A3,3 0 1 1 506.39,376.62A3,3 0 1 1 512.39,376.62Z" style="fill:#1FD3AC" />
<path d="M521.87,402.38A3,3 0 1 1 515.87,402.38A3,3 0 1 1 521.87,402.38Z" style="fill:#1FD3AC" />
<path d="M531.36,447.44A3,3 0 1 1 525.36,447.44A3,3 0 1 1 531.36,447.44Z" style="fill:#1FD3AC" />
<path d="M540.85,481.58A3,3 0 1 1 534.85,481.58A3,3 0 1 1 540.85,481.58Z" style="fill:#1FD3AC" />
<path d="M550.34,526.44A3,3 0 1 1 544.34,526.44A3,3 0 1 1 550.34,526.44Z" style="fill:#1FD3AC" />
<path d="M559.83,574.33A3,3 0 1 1 553.83,574.33A3,3 0 1 1 559.83,574.33Z" style="fill:#1FD3AC" />
<path d="M569.32,620.38A3,3 0 1 1 563.32,620.38A3,3 0 1 1 569.32,620.38Z" style="fill:#1FD3AC" />
<path d="M578.81,661.12A3,3 0 1 1 572.81,661.12A3,3 0 1 1 578.81,661.12Z" style="fill:#1FD3AC" />
<path d="M588.29,701.6A3,3 0 1 1 582.29,701.6A3,3 0 1 1 588.29,701.6Z" style="fill:#1FD3AC" />
<path d="M597.78,730.49A3,3 0 1 1 591.78,730.49A3,3 0 1 1 597.78,730.49Z" style="fill:#1FD3AC" />
<path d="M607.27,764.09A3,3 0 1 1 601.27,764.09A3,3 0 1 1 607.27,764.09Z" style="fill:#1FD3AC" />
<path d="M616.76,771.39A3,3 0 1 1 610.76,771.39A3,3 0 1 1 616.76,771.39Z" style="fill:#1FD3AC" />
<path d="M626.25,770.63A3,3 0 1 1 620.25,770.63A3,3 0 1 1 626.25,770.63Z" style="fill:#1FD3AC" />
<path d="M635.74,748.6A3,3 0 1 1 629.74,748.6A3,3 0 1 1 635.74,748.6Z" style="fill:#1FD3AC" />
<path d="M645.22,721.82A3,3 0 1 1 639.22,721.82A3,3 0 1 1 645.22,721.82Z" style="fill:#1FD3AC" />
<path d="M654.71,684.52A3,3 0 1 1 648.71,684.52A3,3 0 1 1 654.71,684.52Z" style="fill:#1FD3AC" />
<path d="M664.2,641.82A3,3 0 1 1 658.2,641.82A3,3 0 1 1 664.2,641.82Z" style="fill:#1FD3AC" />
<path d="M673.69,597.37A3,3 0 1 1 667.69,597.37A3,3 0 1 1 673.69,597.37Z" style="fill:#1FD3AC" />
<path d="M683.18,550.25A3,3 0 1 1 677.18,550.25A3,3 0 1 1 683.18,550.25Z" style="fill:#1FD3AC" />
<path d="M692.67,518.99A3,3 0 1 1 686.67,518.99A3,3 0 1 1 692.67,518.99Z" style="fill:#1FD3AC" />
<path d="M702.16,469.26A3,3 0 1 1 696.16,469.26A3,3 0 1 1 702.16,469.26Z" style="fill:#1FD3AC" />
<path d="M711.64,436.75A3,3 0 1 1 705.64,436.75A3,3 0 1 1 711.64,436.75Z" style="fill:#1FD3AC" />
<path d="M721.13,401.29A3,3 0 1 1 715.13,401.29A3,3 0 1 1 721.13,401.29Z" style="fill:#1FD3AC" />
<path d="M730.62,376.34A3,3 0 1 1 724.62,376.34A3,3 0 1 1 730.62,376.34Z" style="fill:#1FD3AC" />
<path d="M740.11,354.05A3,3 0 1 1 734.11,354.05A3,3 0 1 1 740.11,354.05Z" style="fill:#1FD3AC" />
<path d="M749.6,327.43A3,3 0 1 1 743.6,327.43A3,3 0 1 1 749.6,327.43Z" style="fill:#1FD3AC" />
<path d="M759.09,304.35A3,3 0 1 1 753.09,304.35A3,3 0 1 1 759.09,304.35Z" style="fill:#1FD3AC" />
<path d="M768.58,287.53A3,3 0 1 1 762.58,287.53A3,3 0 1 1 768.58,287.53Z" style="fill:#1FD3AC" />
<path d="M778.06,265.01A3,3 0 1 1 772.06,265.01A3,3 0 1 1 778.06,265.01Z" style="fill:#1FD3AC" />
<path d="M787.55,254.11A3,3 0 1 1 781.55,254.11A3,3 0 1 1 787.55,254.11Z" style="fill:#1FD3AC" />
<path d="M797.04,241.07A3,3 0 1 1 791.04,241.07A3,3 0 1 1 797.04,241.07Z" style="fill:#1FD3AC" />
<path d="M806.53,229.18A3,3 0 1 1 800.53,229.18A3,3 0 1 1 806.53,229.18Z" style="fill:#1FD3AC" />
<path d="M816.02,227.26A3,3 0 1 1 810.02,227.26A3,3 0 1 1 816.02,227.26Z" style="fill:#1FD3AC" />
<path d="M825.51,212.36A3,3 0 1 1 819.51,212.36A3,3 0 1 1 825.51,212.36Z" style="fill:#1FD3AC" />
<path d="M835,206.17A3,3 0 1 1 829,206.17A3,3 0 1 1 835,206.17Z" style="fill:#1FD3AC" />
<path d="M844.48,197.66A3,3 0 1 1 838.48,197.66A3,3 0 1 1 844.48,197.66Z" style="fill:#1FD3AC" />
<path d="M853.97,192.53A3,3 0 1 1 847.97,192.53A3,3 0 1 1 853.97,192.53Z" style="fill:#1FD3AC" />
<path d="M863.46,183.33A3,3 0 1 1 857.46,183.33A3,3 0 1 1 863.46,183.33Z" style="fill:#1FD3AC" />
<path d="M872.95,177.68A3,3 0 1 1 866.95,177.68A3,3 0 1 1 872.95,177.68Z" style="fill:#1FD3AC" />
<path d="M882.44,175.87A3,3 0 1 1 876.44,175.87A3,3 0 1 1 882.44,175.87Z" style="fill:#1FD3AC" />
<path d="M891.93,172.57A3,3 0 1 1 885.93,172.57A3,3 0 1 1 891.93,172.57Z" style="fill:#1FD3AC" />
<path d="M901.42,170.03A3,3 0 1 1 895.42,170.03A3,3 0 1 1 901.42,170.03Z" style="fill:#1FD3AC" />
<path d="M910.9,165.69A3,3 0 1 1 904.9,165.69A3,3 0 1 1 910.9,165.69Z" style="fill:#1FD3AC" />
<path d="M920.39,164.69A3,3 0 1 1 914.39,164.69A3,3 0 1 1 920.39,164.69Z" style="fill:#1FD3AC" />
<path d="M929.88,161.46A3,3 0 1 1 923.88,161.46A3,3 0 1 1 929.88,161.46Z" style="fill:#1FD3AC" />
<path d="M939.37,157.56A3,3 0 1 1 933.37,157.56A3,3 0 1 1 939.37,157.56Z" style="fill:#1FD3AC" />
<path d="M948.86,150.67A3,3 0 1 1 942.86,150.67A3,3 0 1 1 948.86,150.67Z" style="fill:#1FD3AC" />
<path d="M958.35,155.14A3,3 0 1 1 952.35,155.14A3,3 0 1 1 958.35,155.14Z" style="fill:#1FD3AC" />
<path d="M967.84,144.76A3,3 0 1 1 961.84,144.76A3,3 0 1 1 967.84,144.76Z" style="fill:#1FD3AC" />
<path d="M977.32,151.5A3,3 0 1 1 971.32,151.5A3,3 0 1 1 977.32,151.5Z" style="fill:#1FD3AC" />
<path d="M986.81,149.58A3,3 0 1 1 980.81,149.58A3,3 0 1 1 986.81,149.58Z" style="fill:#1FD3AC" />
<path d="M996.3,143.26A3,3 0 1 1 990.3,143.26A3,3 0 1 1 996.3,143.26Z" style="fill:#1FD3AC" />
<path d="M1005.8,135.23A3,3 0 1 1 999.79,135.23A3,3 0 1 1 1005.8,135.23Z" style="fill:#1FD3AC" />
<path d="M1015.3,138.97A3,3 0 1 1 1009.3,138.97A3,3 0 1 1 1015.3,138.97Z" style="fill:#1FD3AC" />
<path d="M1024.8,141.14A3,3 0 1 1 1018.8,141.14A3,3 0 1 1 1024.8,141.14Z" style="fill:#1FD3AC" />
<path d="M1034.3,131.99A3,3 0 1 1 1028.3,131.99A3,3 0 1 1 1034.3,131.99Z" style="fill:#1FD3AC" />
<path d="M1043.7,136.1A3,3 0 1 1 1037.7,136.1A3,3 0 1 1 1043.7,136.1Z" style="fill:#1FD3AC" />
<path d="M1053.2,134A3,3 0 1 1 1047.2,134A3,3 0 1 1 1053.2,134Z" style="fill:#1FD3AC" />
<path d="M106.12,962.84L1055,962.84" style="fill:none;stroke:#000000" />
<path d="M1055,124.14L1055,962.84" style="fill:none;stroke:#000000" />
<path d="M110.87,141.53L112.76,141.66L114.66,141.78L116.56,141.91L118.46,142.05L120.35,142.18L122.25,142.31L124.15,142.45L126.05,142.59L127.94,142.73L129.84,142.87L131.74,143.01L133.64,143.16L135.54,143.3L137.43,143.45L139.33,143.6L141.23,143.75L143.13,143.9L145.02,144.06L146.92,144.21L148.82,144.37L150.72,144.53L152.62,144.69L154.51,144.85L156.41,145.02L158.31,145.19L160.21,145.36L162.1,145.53L164,145.7L165.9,145.88L167.8,146.06L169.69,146.24L171.59,146.42L173.49,146.6L175.39,146.79L177.29,146.98L179.18,147.17L181.08,147.36L182.98,147.56L184.88,147.76L186.77,147.96L188.67,148.16L190.57,148.37L192.47,148.58L194.36,148.79L196.26,149.01L198.16,149.22L200.06,149.44L201.96,149.67L203.85,149.89L205.75,150.12L207.65,150.35L209.55,150.59L211.44,150.82L213.34,151.07L215.24,151.31L217.14,151.56L219.04,151.81L220.93,152.06L222.83,152.32L224.73,152.58L226.63,152.85L228.52,153.12L230.42,153.39L232.32,153.66L234.22,153.94L236.11,154.23L238.01,154.52L239.91,154.81L241.81,155.11L243.71,155.41L245.6,155.71L247.5,156.02L249.4,156.33L251.3,156.65L253.19,156.98L255.09,157.3L256.99,157.64L258.89,157.97L260.78,158.32L262.68,158.66L264.58,159.02L266.48,159.37L268.38,159.74L270.27,160.11L272.17,160.48L274.07,160.86L275.97,161.25L277.86,161.64L279.76,162.04L281.66,162.45L283.56,162.86L285.45,163.28L287.35,163.7L289.25,164.13L291.15,164.57L293.05,165.02L294.94,165.47L296.84,165.93L298.74,166.4L300.64,166.87L302.53,167.36L304.43,167.85L306.33,168.35L308.23,168.85L310.13,169.37L312.02,169.9L313.92,170.43L315.82,170.97L317.72,171.53L319.61,172.09L321.51,172.66L323.41,173.24L325.31,173.84L327.2,174.44L329.1,175.05L331,175.68L332.9,176.31L334.8,176.96L336.69,177.62L338.59,178.29L340.49,178.97L342.39,179.67L344.28,180.38L346.18,181.1L348.08,181.84L349.98,182.59L351.87,183.35L353.77,184.13L355.67,184.92L357.57,185.73L359.47,186.56L361.36,187.4L363.26,188.25L365.16,189.13L367.06,190.02L368.95,190.93L370.85,191.86L372.75,192.8L374.65,193.77L376.55,194.75L378.44,195.76L380.34,196.78L382.24,197.83L384.14,198.9L386.03,199.99L387.93,201.1L389.83,202.24L391.73,203.4L393.62,204.59L395.52,205.8L397.42,207.04L399.32,208.31L401.22,209.6L403.11,210.92L405.01,212.28L406.91,213.66L408.81,215.07L410.7,216.52L412.6,217.99L414.5,219.5L416.4,221.05L418.29,222.63L420.19,224.25L422.09,225.91L423.99,227.6L425.89,229.34L427.78,231.11L429.68,232.93L431.58,234.79L433.48,236.7L435.37,238.65L437.27,240.65L439.17,242.7L441.07,244.8L442.97,246.95L444.86,249.16L446.76,251.42L448.66,253.74L450.56,256.11L452.45,258.55L454.35,261.05L456.25,263.61L458.15,266.24L460.04,268.94L461.94,271.71L463.84,274.55L465.74,277.46L467.64,280.45L469.53,283.52L471.43,286.67L473.33,289.9L475.23,293.22L477.12,296.63L479.02,300.13L480.92,303.73L482.82,307.42L484.71,311.21L486.61,315.11L488.51,319.11L490.41,323.22L492.31,327.44L494.2,331.78L496.1,336.23L498,340.81L499.9,345.51L501.79,350.34L503.69,355.3L505.59,360.4L507.49,365.63L509.39,371L511.28,376.52L513.18,382.19L515.08,388L516.98,393.97L518.87,400.1L520.77,406.39L522.67,412.83L524.57,419.45L526.46,426.22L528.36,433.17L530.26,440.28L532.16,447.57L534.06,455.03L535.95,462.66L537.85,470.46L539.75,478.43L541.65,486.57L543.54,494.87L545.44,503.34L547.34,511.97L549.24,520.75L551.13,529.68L553.03,538.75L554.93,547.95L556.83,557.27L558.73,566.71L560.62,576.24L562.52,585.86L564.42,595.54L566.32,605.28L568.21,615.04L570.11,624.82L572.01,634.58L573.91,644.31L575.81,653.97L577.7,663.53L579.6,672.98L581.5,682.27L583.4,691.37L585.29,700.25L587.19,708.88L589.09,717.22L590.99,725.22L592.88,732.86L594.78,740.1L596.68,746.91L598.58,753.24L600.48,759.07L602.37,764.36L604.27,769.08L606.17,773.21L608.07,776.72L609.96,779.6L611.86,781.81L613.76,783.36L615.66,784.23L617.55,784.41L619.45,783.91L621.35,782.72L623.25,780.86L625.15,778.34L627.04,775.17L628.94,771.36L630.84,766.96L632.74,761.96L634.63,756.42L636.53,750.36L638.43,743.8L640.33,736.79L642.22,729.36L644.12,721.54L646.02,713.38L647.92,704.9L649.82,696.15L651.71,687.16L653.61,677.97L655.51,668.6L657.41,659.1L659.3,649.48L661.2,639.79L663.1,630.04L665,620.27L666.9,610.5L668.79,600.74L670.69,591.03L672.59,581.37L674.49,571.79L676.38,562.3L678.28,552.92L680.18,543.65L682.08,534.51L683.97,525.51L685.87,516.64L687.77,507.93L689.67,499.38L691.57,490.99L693.46,482.76L695.36,474.7L697.26,466.81L699.16,459.09L701.05,451.54L702.95,444.16L704.85,436.95L706.75,429.92L708.64,423.05L710.54,416.35L712.44,409.81L714.34,403.44L716.24,397.23L718.13,391.18L720.03,385.28L721.93,379.53L723.83,373.94L725.72,368.49L727.62,363.18L729.52,358.01L731.42,352.98L733.32,348.08L735.21,343.31L737.11,338.67L739.01,334.15L740.91,329.75L742.8,325.46L744.7,321.29L746.6,317.24L748.5,313.28L750.39,309.44L752.29,305.69L754.19,302.05L756.09,298.49L757.99,295.04L759.88,291.67L761.78,288.39L763.68,285.19L765.58,282.08L767.47,279.05L769.37,276.09L771.27,273.22L773.17,270.41L775.06,267.68L776.96,265.01L778.86,262.41L780.76,259.88L782.66,257.41L784.55,255L786.45,252.65L788.35,250.36L790.25,248.13L792.14,245.95L794.04,243.82L795.94,241.74L797.84,239.72L799.74,237.74L801.63,235.81L803.53,233.92L805.43,232.08L807.33,230.28L809.22,228.52L811.12,226.81L813.02,225.13L814.92,223.49L816.81,221.89L818.71,220.33L820.61,218.8L822.51,217.3L824.41,215.84L826.3,214.41L828.2,213.01L830.1,211.64L832,210.31L833.89,209L835.79,207.72L837.69,206.46L839.59,205.24L841.48,204.04L843.38,202.86L845.28,201.71L847.18,200.58L849.08,199.48L850.97,198.4L852.87,197.34L854.77,196.3L856.67,195.29L858.56,194.29L860.46,193.32L862.36,192.36L864.26,191.42L866.16,190.5L868.05,189.6L869.95,188.72L871.85,187.85L873.75,187L875.64,186.17L877.54,185.35L879.44,184.55L881.34,183.77L883.23,182.99L885.13,182.24L887.03,181.49L888.93,180.76L890.83,180.05L892.72,179.34L894.62,178.65L896.52,177.98L898.42,177.31L900.31,176.66L902.21,176.02L904.11,175.38L906.01,174.76L907.9,174.16L909.8,173.56L911.7,172.97L913.6,172.39L915.5,171.83L917.39,171.27L919.29,170.72L921.19,170.18L923.09,169.65L924.98,169.13L926.88,168.62L928.78,168.11L930.68,167.62L932.58,167.13L934.47,166.65L936.37,166.18L938.27,165.71L940.17,165.26L942.06,164.81L943.96,164.37L945.86,163.93L947.76,163.5L949.65,163.08L951.55,162.67L953.45,162.26L955.35,161.86L957.25,161.46L959.14,161.07L961.04,160.69L962.94,160.31L964.84,159.94L966.73,159.57L968.63,159.21L970.53,158.85L972.43,158.5L974.32,158.16L976.22,157.82L978.12,157.48L980.02,157.15L981.92,156.82L983.81,156.5L985.71,156.19L987.61,155.88L989.51,155.57L991.4,155.27L993.3,154.97L995.2,154.67L997.1,154.38L999,154.1L1000.9,153.81L1002.8,153.54L1004.7,153.26L1006.6,152.99L1008.5,152.72L1010.4,152.46L1012.3,152.2L1014.2,151.94L1016.1,151.69L1018,151.44L1019.9,151.2L1021.8,150.95L1023.7,150.71L1025.6,150.48L1027.5,150.24L1029.4,150.01L1031.3,149.79L1033.2,149.56L1035.1,149.34L1036.9,149.12L1038.8,148.91L1040.7,148.69L1042.6,148.48L1044.5,148.27L1046.4,148.07L1048.3,147.87" style="fill:none;stroke:#1BAA8B;stroke-width:3" />
<path d="M533.87,454.29L700.36,454.29" style="fill:none;stroke:#1BAA8B;stroke-width:4;stroke-dasharray:15,5" />
<path d="M113.87,116.6A3,3 0 1 1 107.87,116.6A3,3 0 1 1 113.87,116.6Z" style="fill:#FF7AB4" />
<path d="M123.35,118.26A3,3 0 1 1 117.35,118.26A3,3 0 1 1 123.35,118.26Z" style="fill:#FF7AB4" />
<path d="M132.84,118.03A3,3 0 1 1 126.84,118.03A3,3 0 1 1 132.84,118.03Z" style="fill:#FF7AB4" />
<path d="M142.33,118.53A3,3 0 1 1 136.33,118.53A3,3 0 1 1 142.33,118.53Z" style="fill:#FF7AB4" />
<path d="M151.82,114.61A3,3 0 1 1 145.82,114.61A3,3 0 1 1 151.82,114.61Z" style="fill:#FF7AB4" />
<path d="M161.31,125.17A3,3 0 1 1 155.31,125.17A3,3 0 1 1 161.31,125.17Z" style="fill:#FF7AB4" />
<path d="M170.8,119.58A3,3 0 1 1 164.8,119.58A3,3 0 1 1 170.8,119.58Z" style="fill:#FF7AB4" />
<path d="M180.29,125.82A3,3 0 1 1 174.29,125.82A3,3 0 1 1 180.29,125.82Z" style="fill:#FF7AB4" />
<path d="M189.77,117.33A3,3 0 1 1 183.77,117.33A3,3 0 1 1 189.77,117.33Z" style="fill:#FF7AB4" />
<path d="M199.26,123.77A3,3 0 1 1 193.26,123.77A3,3 0 1 1 199.26,123.77Z" style="fill:#FF7AB4" />
<path d="M208.75,122.63A3,3 0 1 1 202.75,122.63A3,3 0 1 1 208.75,122.63Z" style="fill:#FF7AB4" />
<path d="M218.24,127.4A3,3 0 1 1 212.24,127.4A3,3 0 1 1 218.24,127.4Z" style="fill:#FF7AB4" />
<path d="M227.73,132.05A3,3 0 1 1 221.73,132.05A3,3 0 1 1 227.73,132.05Z" style="fill:#FF7AB4" />
<path d="M237.22,131.41A3,3 0 1 1 231.22,131.41A3,3 0 1 1 237.22,131.41Z" style="fill:#FF7AB4" />
<path d="M246.71,133.11A3,3 0 1 1 240.71,133.11A3,3 0 1 1 246.71,133.11Z" style="fill:#FF7AB4" />
<path d="M256.19,134.93A3,3 0 1 1 250.19,134.93A3,3 0 1 1 256.19,134.93Z" style="fill:#FF7AB4" />
<path d="M265.68,140.79A3,3 0 1 1 259.68,140.79A3,3 0 1 1 265.68,140.79Z" style="fill:#FF7AB4" />
<path d="M275.17,144.32A3,3 0 1 1 269.17,144.32A3,3 0 1 1 275.17,144.32Z" style="fill:#FF7AB4" />
<path d="M284.66,142.89A3,3 0 1 1 278.66,142.89A3,3 0 1 1 284.66,142.89Z" style="fill:#FF7AB4" />
<path d="M294.15,143.36A3,3 0 1 1 288.15,143.36A3,3 0 1 1 294.15,143.36Z" style="fill:#FF7AB4" />
<path d="M303.64,148.32A3,3 0 1 1 297.64,148.32A3,3 0 1 1 303.64,148.32Z" style="fill:#FF7AB4" />
<path d="M313.13,153.24A3,3 0 1 1 307.13,153.24A3,3 0 1 1 313.13,153.24Z" style="fill:#FF7AB4" />
<path d="M322.61,159.6A3,3 0 1 1 316.61,159.6A3,3 0 1 1 322.61,159.6Z" style="fill:#FF7AB4" />
<path d="M332.1,160.26A3,3 0 1 1 326.1,160.26A3,3 0 1 1 332.1,160.26Z" style="fill:#FF7AB4" />
<path d="M341.59,165.9A3,3 0 1 1 335.59,165.9A3,3 0 1 1 341.59,165.9Z" style="fill:#FF7AB4" />
<path d="M351.08,172.12A3,3 0 1 1 345.08,172.12A3,3 0 1 1 351.08,172.12Z" style="fill:#FF7AB4" />
<path d="M360.57,180.38A3,3 0 1 1 354.57,180.38A3,3 0 1 1 360.57,180.38Z" style="fill:#FF7AB4" />
<path d="M370.06,183.94A3,3 0 1 1 364.06,183.94A3,3 0 1 1 370.06,183.94Z" style="fill:#FF7AB4" />
<path d="M379.55,190.19A3,3 0 1 1 373.55,190.19A3,3 0 1 1 379.55,190.19Z" style="fill:#FF7AB4" />
<path d="M389.03,195.31A3,3 0 1 1 383.03,195.31A3,3 0 1 1 389.03,195.31Z" style="fill:#FF7AB4" />
<path d="M398.52,200A3,3 0 1 1 392.52,200A3,3 0 1 1 398.52,200Z" style="fill:#FF7AB4" />
<path d="M408.01,205.19A3,3 0 1 1 402.01,205.19A3,3 0 1 1 408.01,205.19Z" style="fill:#FF7AB4" />
<path d="M417.5,214.81A3,3 0 1 1 411.5,214.81A3,3 0 1 1 417.5,214.81Z" style="fill:#FF7AB4" />
<path d="M426.99,219.35A3,3 0 1 1 420.99,219.35A3,3 0 1 1 426.99,219.35Z" style="fill:#FF7AB4" />
<path d="M436.48,231.8A3,3 0 1 1 430.48,231.8A3,3 0 1 1 436.48,231.8Z" style="fill:#FF7AB4" />
<path d="M445.97,248.31A3,3 0 1 1 439.97,248.31A3,3 0 1 1 445.97,248.31Z" style="fill:#FF7AB4" />
<path d="M455.45,253.14A3,3 0 1 1 449.45,253.14A3,3 0 1 1 455.45,253.14Z" style="fill:#FF7AB4" />
<path d="M464.94,274.22A3,3 0 1 1 458.94,274.22A3,3 0 1 1 464.94,274.22Z" style="fill:#FF7AB4" />
<path d="M474.43,285.48A3,3 0 1 1 468.43,285.48A3,3 0 1 1 474.43,285.48Z" style="fill:#FF7AB4" />
<path d="M483.92,310.7A3,3 0 1 1 477.92,310.7A3,3 0 1 1 483.92,310.7Z" style="fill:#FF7AB4" />
<path d="M493.41,330.79A3,3 0 1 1 487.41,330.79A3,3 0 1 1 493.41,330.79Z" style="fill:#FF7AB4" />
<path d="M502.9,355.06A3,3 0 1 1 496.9,355.06A3,3 0 1 1 502.9,355.06Z" style="fill:#FF7AB4" />
<path d="M512.39,379.18A3,3 0 1 1 506.39,379.18A3,3 0 1 1 512.39,379.18Z" style="fill:#FF7AB4" />
<path d="M521.87,416.62A3,3 0 1 1 515.87,416.62A3,3 0 1 1 521.87,416.62Z" style="fill:#FF7AB4" />
<path d="M531.36,447.98A3,3 0 1 1 525.36,447.98A3,3 0 1 1 531.36,447.98Z" style="fill:#FF7AB4" />
<path d="M540.85,487.37A3,3 0 1 1 534.85,487.37A3,3 0 1 1 540.85,487.37Z" style="fill:#FF7AB4" />
<path d="M550.34,524.78A3,3 0 1 1 544.34,524.78A3,3 0 1 1 550.34,524.78Z" style="fill:#FF7AB4" />
<path d="M559.83,572.72A3,3 0 1 1 553.83,572.72A3,3 0 1 1 559.83,572.72Z" style="fill:#FF7AB4" />
<path d="M569.32,620.74A3,3 0 1 1 563.32,620.74A3,3 0 1 1 569.32,620.74Z" style="fill:#FF7AB4" />
<path d="M578.81,669.64A3,3 0 1 1 572.81,669.64A3,3 0 1 1 578.81,669.64Z" style="fill:#FF7AB4" />
<path d="M588.29,708.02A3,3 0 1 1 582.29,708.02A3,3 0 1 1 588.29,708.02Z" style="fill:#FF7AB4" />
<path d="M597.78,742.38A3,3 0 1 1 591.78,742.38A3,3 0 1 1 597.78,742.38Z" style="fill:#FF7AB4" />
<path d="M607.27,754.35A3,3 0 1 1 601.27,754.35A3,3 0 1 1 607.27,754.35Z" style="fill:#FF7AB4" />
<path d="M616.76,771.21A3,3 0 1 1 610.76,771.21A3,3 0 1 1 616.76,771.21Z" style="fill:#FF7AB4" />
<path d="M626.25,764.81A3,3 0 1 1 620.25,764.81A3,3 0 1 1 626.25,764.81Z" style="fill:#FF7AB4" />
<path d="M635.74,748.59A3,3 0 1 1 629.74,748.59A3,3 0 1 1 635.74,748.59Z" style="fill:#FF7AB4" />
<path d="M645.22,719.06A3,3 0 1 1 639.22,719.06A3,3 0 1 1 645.22,719.06Z" style="fill:#FF7AB4" />
<path d="M654.71,684.72A3,3 0 1 1 648.71,684.72A3,3 0 1 1 654.71,684.72Z" style="fill:#FF7AB4" />
<path d="M664.2,643.19A3,3 0 1 1 658.2,643.19A3,3 0 1 1 664.2,643.19Z" style="fill:#FF7AB4" />
<path d="M673.69,597.34A3,3 0 1 1 667.69,597.34A3,3 0 1 1 673.69,597.34Z" style="fill:#FF7AB4" />
<path d="M683.18,558.6A3,3 0 1 1 677.18,558.6A3,3 0 1 1 683.18,558.6Z" style="fill:#FF7AB4" />
<path d="M692.67,513.68A3,3 0 1 1 686.67,513.68A3,3 0 1 1 692.67,513.68Z" style="fill:#FF7AB4" />
<path d="M702.16,475.31A3,3 0 1 1 696.16,475.31A3,3 0 1 1 702.16,475.31Z" style="fill:#FF7AB4" />
<path d="M711.64,437.97A3,3 0 1 1 705.64,437.97A3,3 0 1 1 711.64,437.97Z" style="fill:#FF7AB4" />
<path d="M721.13,403.89A3,3 0 1 1 715.13,403.89A3,3 0 1 1 721.13,403.89Z" style="fill:#FF7AB4" />
<path d="M730.62,377.08A3,3 0 1 1 724.62,377.08A3,3 0 1 1 730.62,377.08Z" style="fill:#FF7AB4" />
<path d="M740.11,359.85A3,3 0 1 1 734.11,359.85A3,3 0 1 1 740.11,359.85Z" style="fill:#FF7AB4" />
<path d="M749.6,326.99A3,3 0 1 1 743.6,326.99A3,3 0 1 1 749.6,326.99Z" style="fill:#FF7AB4" />
<path d="M759.09,301.1A3,3 0 1 1 753.09,301.1A3,3 0 1 1 759.09,301.1Z" style="fill:#FF7AB4" />
<path d="M768.58,284.95A3,3 0 1 1 762.58,284.95A3,3 0 1 1 768.58,284.95Z" style="fill:#FF7AB4" />
<path d="M778.06,270.56A3,3 0 1 1 772.06,270.56A3,3 0 1 1 778.06,270.56Z" style="fill:#FF7AB4" />
<path d="M787.55,257.44A3,3 0 1 1 781.55,257.44A3,3 0 1 1 787.55,257.44Z" style="fill:#FF7AB4" />
<path d="M797.04,252.43A3,3 0 1 1 791.04,252.43A3,3 0 1 1 797.04,252.43Z" style="fill:#FF7AB4" />
<path d="M806.53,235.06A3,3 0 1 1 800.53,235.06A3,3 0 1 1 806.53,235.06Z" style="fill:#FF7AB4" />
<path d="M816.02,220.21A3,3 0 1 1 810.02,220.21A3,3 0 1 1 816.02,220.21Z" style="fill:#FF7AB4" />
<path d="M825.51,214.55A3,3 0 1 1 819.51,214.55A3,3 0 1 1 825.51,214.55Z" style="fill:#FF7AB4" />
<path d="M835,210.75A3,3 0 1 1 829,210.75A3,3 0 1 1 835,210.75Z" style="fill:#FF7AB4" />
<path d="M844.48,193.69A3,3 0 1 1 838.48,193.69A3,3 0 1 1 844.48,193.69Z" style="fill:#FF7AB4" />
<path d="M853.97,191.29A3,3 0 1 1 847.97,191.29A3,3 0 1 1 853.97,191.29Z" style="fill:#FF7AB4" />
<path d="M863.46,189.59A3,3 0 1 1 857.46,189.59A3,3 0 1 1 863.46,189.59Z" style="fill:#FF7AB4" />
<path d="M872.95,182.55A3,3 0 1 1 866.95,182.55A3,3 0 1 1 872.95,182.55Z" style="fill:#FF7AB4" />
<path d="M882.44,170.57A3,3 0 1 1 876.44,170.57A3,3 0 1 1 882.44,170.57Z" style="fill:#FF7AB4" />
<path d="M891.93,169.03A3,3 0 1 1 885.93,169.03A3,3 0 1 1 891.93,169.03Z" style="fill:#FF7AB4" />
<path d="M901.42,169.96A3,3 0 1 1 895.42,169.96A3,3 0 1 1 901.42,169.96Z" style="fill:#FF7AB4" />
<path d="M910.9,167.97A3,3 0 1 1 904.9,167.97A3,3 0 1 1 910.9,167.97Z" style="fill:#FF7AB4" />
<path d="M920.39,167.01A3,3 0 1 1 914.39,167.01A3,3 0 1 1 920.39,167.01Z" style="fill:#FF7AB4" />
<path d="M929.88,158.84A3,3 0 1 1 923.88,158.84A3,3 0 1 1 929.88,158.84Z" style="fill:#FF7AB4" />
<path d="M939.37,152.93A3,3 0 1 1 933.37,152.93A3,3 0 1 1 939.37,152.93Z" style="fill:#FF7AB4" />
<path d="M948.86,158.24A3,3 0 1 1 942.86,158.24A3,3 0 1 1 948.86,158.24Z" style="fill:#FF7AB4" />
<path d="M958.35,148.54A3,3 0 1 1 952.35,148.54A3,3 0 1 1 958.35,148.54Z" style="fill:#FF7AB4" />
<path d="M967.84,144.38A3,3 0 1 1 961.84,144.38A3,3 0 1 1 967.84,144.38Z" style="fill:#FF7AB4" />
<path d="M977.32,142.56A3,3 0 1 1 971.32,142.56A3,3 0 1 1 977.32,142.56Z" style="fill:#FF7AB4" />
<path d="M986.81,145.27A3,3 0 1 1 980.81,145.27A3,3 0 1 1 986.81,145.27Z" style="fill:#FF7AB4" />
<path d="M996.3,140.66A3,3 0 1 1 990.3,140.66A3,3 0 1 1 996.3,140.66Z" style="fill:#FF7AB4" />
<path d="M1005.8,142.09A3,3 0 1 1 999.79,142.09A3,3 0 1 1 1005.8,142.09Z" style="fill:#FF7AB4" />
<path d="M1015.3,139A3,3 0 1 1 1009.3,139A3,3 0 1 1 1015.3,139Z" style="fill:#FF7AB4" />
<path d="M1024.8,139.3A3,3 0 1 1 1018.8,139.3A3,3 0 1 1 1024.8,139.3Z" style="fill:#FF7AB4" />
<path d="M1034.3,133.33A3,3 0 1 1 1028.3,133.33A3,3 0 1 1 1034.3,133.33Z" style="fill:#FF7AB4" />
<path d="M1043.7,133.71A3,3 0 1 1 1037.7,133.71A3,3 0 1 1 1043.7,133.71Z" style="fill:#FF7AB4" />
<path d="M1053.2,134.93A3,3 0 1 1 1047.2,134.93A3,3 0 1 1 1053.2,134.93Z" style="fill:#FF7AB4" />
<path d="M106.12,962.84L1055,962.84" style="fill:none;stroke:#000000" />
<path d="M1055,124.14L1055,962.84" style="fill:none;stroke:#000000" />
<path d="M110.87,141.83L112.76,141.96L114.66,142.09L116.56,142.22L118.46,142.35L120.35,142.49L122.25,142.63L124.15,142.76L126.05,142.9L127.94,143.05L129.84,143.19L131.74,143.33L133.64,143.48L135.54,143.63L137.43,143.78L139.33,143.93L141.23,144.08L143.13,144.24L145.02,144.4L146.92,144.56L148.82,144.72L150.72,144.88L152.62,145.04L154.51,145.21L156.41,145.38L158.31,145.55L160.21,145.72L162.1,145.9L164,146.07L165.9,146.25L167.8,146.43L169.69,146.62L171.59,146.8L173.49,146.99L175.39,147.18L177.29,147.37L179.18,147.57L181.08,147.76L182.98,147.96L184.88,148.16L186.77,148.37L188.67,148.58L190.57,148.79L192.47,149L194.36,149.21L196.26,149.43L198.16,149.65L200.06,149.88L201.96,150.1L203.85,150.33L205.75,150.57L207.65,150.8L209.55,151.04L211.44,151.28L213.34,151.53L215.24,151.78L217.14,152.03L219.04,152.28L220.93,152.54L222.83,152.8L224.73,153.07L226.63,153.34L228.52,153.61L230.42,153.89L232.32,154.17L234.22,154.46L236.11,154.74L238.01,155.04L239.91,155.33L241.81,155.64L243.71,155.94L245.6,156.25L247.5,156.57L249.4,156.89L251.3,157.21L253.19,157.54L255.09,157.87L256.99,158.21L258.89,158.55L260.78,158.9L262.68,159.25L264.58,159.61L266.48,159.98L268.38,160.35L270.27,160.72L272.17,161.1L274.07,161.49L275.97,161.88L277.86,162.28L279.76,162.69L281.66,163.1L283.56,163.52L285.45,163.94L287.35,164.38L289.25,164.82L291.15,165.26L293.05,165.71L294.94,166.17L296.84,166.64L298.74,167.12L300.64,167.6L302.53,168.09L304.43,168.59L306.33,169.1L308.23,169.62L310.13,170.14L312.02,170.68L313.92,171.22L315.82,171.77L317.72,172.33L319.61,172.9L321.51,173.49L323.41,174.08L325.31,174.68L327.2,175.29L329.1,175.92L331,176.55L332.9,177.2L334.8,177.86L336.69,178.53L338.59,179.21L340.49,179.9L342.39,180.61L344.28,181.33L346.18,182.07L348.08,182.81L349.98,183.58L351.87,184.35L353.77,185.14L355.67,185.95L357.57,186.77L359.47,187.61L361.36,188.46L363.26,189.33L365.16,190.22L367.06,191.13L368.95,192.05L370.85,192.99L372.75,193.96L374.65,194.94L376.55,195.94L378.44,196.96L380.34,198L382.24,199.06L384.14,200.15L386.03,201.26L387.93,202.39L389.83,203.54L391.73,204.72L393.62,205.93L395.52,207.16L397.42,208.42L399.32,209.7L401.22,211.02L403.11,212.36L405.01,213.73L406.91,215.14L408.81,216.57L410.7,218.04L412.6,219.54L414.5,221.07L416.4,222.64L418.29,224.24L420.19,225.89L422.09,227.57L423.99,229.29L425.89,231.05L427.78,232.85L429.68,234.69L431.58,236.58L433.48,238.51L435.37,240.5L437.27,242.52L439.17,244.6L441.07,246.73L442.97,248.91L444.86,251.15L446.76,253.44L448.66,255.79L450.56,258.2L452.45,260.67L454.35,263.2L456.25,265.8L458.15,268.46L460.04,271.19L461.94,273.99L463.84,276.87L465.74,279.82L467.64,282.85L469.53,285.95L471.43,289.14L473.33,292.41L475.23,295.77L477.12,299.22L479.02,302.76L480.92,306.4L482.82,310.13L484.71,313.97L486.61,317.9L488.51,321.95L490.41,326.1L492.31,330.36L494.2,334.74L496.1,339.24L498,343.86L499.9,348.6L501.79,353.47L503.69,358.48L505.59,363.61L507.49,368.89L509.39,374.31L511.28,379.86L513.18,385.57L515.08,391.43L516.98,397.44L518.87,403.6L520.77,409.92L522.67,416.4L524.57,423.05L526.46,429.86L528.36,436.83L530.26,443.97L532.16,451.28L534.06,458.76L535.95,466.41L537.85,474.23L539.75,482.21L541.65,490.35L543.54,498.66L545.44,507.13L547.34,515.75L549.24,524.52L551.13,533.43L553.03,542.48L554.93,551.65L556.83,560.93L558.73,570.33L560.62,579.81L562.52,589.37L564.42,598.98L566.32,608.64L568.21,618.33L570.11,628.01L572.01,637.68L573.91,647.29L575.81,656.84L577.7,666.28L579.6,675.6L581.5,684.75L583.4,693.7L585.29,702.43L587.19,710.9L589.09,719.07L590.99,726.91L592.88,734.38L594.78,741.45L596.68,748.08L598.58,754.24L600.48,759.89L602.37,765.01L604.27,769.57L606.17,773.54L608.07,776.9L609.96,779.63L611.86,781.71L613.76,783.12L615.66,783.87L617.55,783.95L619.45,783.36L621.35,782.09L623.25,780.16L625.15,777.58L627.04,774.37L628.94,770.54L630.84,766.11L632.74,761.12L634.63,755.58L636.53,749.54L638.43,743.01L640.33,736.04L642.22,728.66L644.12,720.9L646.02,712.81L647.92,704.4L649.82,695.73L651.71,686.82L653.61,677.71L655.51,668.43L657.41,659.02L659.3,649.49L661.2,639.89L663.1,630.23L665,620.55L666.9,610.87L668.79,601.2L670.69,591.57L672.59,582L674.49,572.49L676.38,563.08L678.28,553.77L680.18,544.57L682.08,535.49L683.97,526.55L685.87,517.75L687.77,509.09L689.67,500.59L691.57,492.25L693.46,484.06L695.36,476.04L697.26,468.19L699.16,460.5L701.05,452.99L702.95,445.64L704.85,438.46L706.75,431.44L708.64,424.6L710.54,417.91L712.44,411.4L714.34,405.04L716.24,398.84L718.13,392.79L720.03,386.9L721.93,381.16L723.83,375.57L725.72,370.12L727.62,364.81L729.52,359.64L731.42,354.61L733.32,349.71L735.21,344.94L737.11,340.29L739.01,335.76L740.91,331.36L742.8,327.07L744.7,322.89L746.6,318.82L748.5,314.86L750.39,311L752.29,307.25L754.19,303.59L756.09,300.03L757.99,296.56L759.88,293.18L761.78,289.88L763.68,286.68L765.58,283.55L767.47,280.51L769.37,277.54L771.27,274.65L773.17,271.83L775.06,269.08L776.96,266.4L778.86,263.79L780.76,261.24L782.66,258.76L784.55,256.34L786.45,253.98L788.35,251.67L790.25,249.42L792.14,247.23L794.04,245.09L795.94,243L797.84,240.96L799.74,238.97L801.63,237.02L803.53,235.12L805.43,233.27L807.33,231.46L809.22,229.69L811.12,227.96L813.02,226.27L814.92,224.62L816.81,223L818.71,221.43L820.61,219.89L822.51,218.38L824.41,216.9L826.3,215.46L828.2,214.05L830.1,212.67L832,211.32L833.89,210L835.79,208.71L837.69,207.45L839.59,206.21L841.48,205L843.38,203.81L845.28,202.65L847.18,201.51L849.08,200.4L850.97,199.31L852.87,198.24L854.77,197.19L856.67,196.17L858.56,195.16L860.46,194.18L862.36,193.21L864.26,192.27L866.16,191.34L868.05,190.43L869.95,189.54L871.85,188.66L873.75,187.8L875.64,186.96L877.54,186.14L879.44,185.33L881.34,184.53L883.23,183.75L885.13,182.99L887.03,182.24L888.93,181.5L890.83,180.78L892.72,180.06L894.62,179.37L896.52,178.68L898.42,178.01L900.31,177.35L902.21,176.7L904.11,176.06L906.01,175.44L907.9,174.82L909.8,174.22L911.7,173.62L913.6,173.04L915.5,172.46L917.39,171.9L919.29,171.34L921.19,170.8L923.09,170.26L924.98,169.74L926.88,169.22L928.78,168.71L930.68,168.21L932.58,167.71L934.47,167.23L936.37,166.75L938.27,166.28L940.17,165.82L942.06,165.36L943.96,164.92L945.86,164.48L947.76,164.04L949.65,163.62L951.55,163.2L953.45,162.78L955.35,162.38L957.25,161.98L959.14,161.58L961.04,161.19L962.94,160.81L964.84,160.43L966.73,160.06L968.63,159.7L970.53,159.34L972.43,158.98L974.32,158.63L976.22,158.29L978.12,157.95L980.02,157.61L981.92,157.28L983.81,156.96L985.71,156.64L987.61,156.32L989.51,156.01L991.4,155.71L993.3,155.4L995.2,155.11L997.1,154.81L999,154.52L1000.9,154.24L1002.8,153.95L1004.7,153.68L1006.6,153.4L1008.5,153.13L1010.4,152.86L1012.3,152.6L1014.2,152.34L1016.1,152.09L1018,151.83L1019.9,151.58L1021.8,151.34L1023.7,151.1L1025.6,150.86L1027.5,150.62L1029.4,150.39L1031.3,150.16L1033.2,149.93L1035.1,149.7L1036.9,149.48L1038.8,149.26L1040.7,149.05L1042.6,148.83L1044.5,148.62L1046.4,148.42L1048.3,148.21" style="fill:none;stroke:#C96892;stroke-width:3" />
<path d="M532.87,454.07L700.78,454.07" style="fill:none;stroke:#C96892;stroke-width:4;stroke-dasharray:15,5" />
<path d="M113.87,107.32A3,3 0 1 1 107.87,107.32A3,3 0 1 1 113.87,107.32Z" style="fill:#7A9CFF" />
<path d="M123.35,116.62A3,3 0 1 1 117.35,116.62A3,3 0 1 1 123.35,116.62Z" style="fill:#7A9CFF" />
<path d="M132.84,119.93A3,3 0 1 1 126.84,119.93A3,3 0 1 1 132.84,119.93Z" style="fill:#7A9CFF" />
<path d="M142.33,117.71A3,3 0 1 1 136.33,117.71A3,3 0 1 1 142.33,117.71Z" style="fill:#7A9CFF" />
<path d="M151.82,116.34A3,3 0 1 1 145.82,116.34A3,3 0 1 1 151.82,116.34Z" style="fill:#7A9CFF" />
<path d="M161.31,120.85A3,3 0 1 1 155.31,120.85A3,3 0 1 1 161.31,120.85Z" style="fill:#7A9CFF" />
<path d="M170.8,124.14A3,3 0 1 1 164.8,124.14A3,3 0 1 1 170.8,124.14Z" style="fill:#7A9CFF" />
<path d="M180.29,121.4A3,3 0 1 1 174.29,121.4A3,3 0 1 1 180.29,121.4Z" style="fill:#7A9CFF" />
<path d="M189.77,122.95A3,3 0 1 1 183.77,122.95A3,3 0 1 1 189.77,122.95Z" style="fill:#7A9CFF" />
<path d="M199.26,127.7A3,3 0 1 1 193.26,127.7A3,3 0 1 1 199.26,127.7Z" style="fill:#7A9CFF" />
<path d="M208.75,125.66A3,3 0 1 1 202.75,125.66A3,3 0 1 1 208.75,125.66Z" style="fill:#7A9CFF" />
<path d="M218.24,126.09A3,3 0 1 1 212.24,126.09A3,3 0 1 1 218.24,126.09Z" style="fill:#7A9CFF" />
<path d="M227.73,131.94A3,3 0 1 1 221.73,131.94A3,3 0 1 1 227.73,131.94Z" style="fill:#7A9CFF" />
<path d="M237.22,134.82A3,3 0 1 1 231.22,134.82A3,3 0 1 1 237.22,134.82Z" style="fill:#7A9CFF" />
<path d="M246.71,133.37A3,3 0 1 1 240.71,133.37A3,3 0 1 1 246.71,133.37Z" style="fill:#7A9CFF" />
<path d="M256.19,134.29A3,3 0 1 1 250.19,134.29A3,3 0 1 1 256.19,134.29Z" style="fill:#7A9CFF" />
<path d="M265.68,139.09A3,3 0 1 1 259.68,139.09A3,3 0 1 1 265.68,139.09Z" style="fill:#7A9CFF" />
<path d="M275.17,139.27A3,3 0 1 1 269.17,139.27A3,3 0 1 1 275.17,139.27Z" style="fill:#7A9CFF" />
<path d="M284.66,141.44A3,3 0 1 1 278.66,141.44A3,3 0 1 1 284.66,141.44Z" style="fill:#7A9CFF" />
<path d="M294.15,148.24A3,3 0 1 1 288.15,148.24A3,3 0 1 1 294.15,148.24Z" style="fill:#7A9CFF" />
<path d="M303.64,150.98A3,3 0 1 1 297.64,150.98A3,3 0 1 1 303.64,150.98Z" style="fill:#7A9CFF" />
<path d="M313.13,151.74A3,3 0 1 1 307.13,151.74A3,3 0 1 1 313.13,151.74Z" style="fill:#7A9CFF" />
<path d="M322.61,153.98A3,3 0 1 1 316.61,153.98A3,3 0 1 1 322.61,153.98Z" style="fill:#7A9CFF" />
<path d="M332.1,167.02A3,3 0 1 1 326.1,167.02A3,3 0 1 1 332.1,167.02Z" style="fill:#7A9CFF" />
<path d="M341.59,169.23A3,3 0 1 1 335.59,169.23A3,3 0 1 1 341.59,169.23Z" style="fill:#7A9CFF" />
<path d="M351.08,166.84A3,3 0 1 1 345.08,166.84A3,3 0 1 1 351.08,166.84Z" style="fill:#7A9CFF" />
<path d="M360.57,173.78A3,3 0 1 1 354.57,173.78A3,3 0 1 1 360.57,173.78Z" style="fill:#7A9CFF" />
<path d="M370.06,178.45A3,3 0 1 1 364.06,178.45A3,3 0 1 1 370.06,178.45Z" style="fill:#7A9CFF" />
<path d="M379.55,183.11A3,3 0 1 1 373.55,183.11A3,3 0 1 1 379.55,183.11Z" style="fill:#7A9CFF" />
<path d="M389.03,194.13A3,3 0 1 1 383.03,194.13A3,3 0 1 1 389.03,194.13Z" style="fill:#7A9CFF" />
<path d="M398.52,203.66A3,3 0 1 1 392.52,203.66A3,3 0 1 1 398.52,203.66Z" style="fill:#7A9CFF" />
<path d="M408.01,203.93A3,3 0 1 1 402.01,203.93A3,3 0 1 1 408.01,203.93Z" style="fill:#7A9CFF" />
<path d="M417.5,211.19A3,3 0 1 1 411.5,211.19A3,3 0 1 1 417.5,211.19Z" style="fill:#7A9CFF" />
<path d="M426.99,219.13A3,3 0 1 1 420.99,219.13A3,3 0 1 1 426.99,219.13Z" style="fill:#7A9CFF" />
<path d="M436.48,237.87A3,3 0 1 1 430.48,237.87A3,3 0 1 1 436.48,237.87Z" style="fill:#7A9CFF" />
<path d="M445.97,243.82A3,3 0 1 1 439.97,243.82A3,3 0 1 1 445.97,243.82Z" style="fill:#7A9CFF" />
<path d="M455.45,262.57A3,3 0 1 1 449.45,262.57A3,3 0 1 1 455.45,262.57Z" style="fill:#7A9CFF" />
<path d="M464.94,275.08A3,3 0 1 1 458.94,275.08A3,3 0 1 1 464.94,275.08Z" style="fill:#7A9CFF" />
<path d="M474.43,287.68A3,3 0 1 1 468.43,287.68A3,3 0 1 1 474.43,287.68Z" style="fill:#7A9CFF" />
<path d="M483.92,313.71A3,3 0 1 1 477.92,313.71A3,3 0 1 1 483.92,313.71Z" style="fill:#7A9CFF" />
<path d="M493.41,329.09A3,3 0 1 1 487.41,329.09A3,3 0 1 1 493.41,329.09Z" style="fill:#7A9CFF" />
<path d="M502.9,349.86A3,3 0 1 1 496.9,349.86A3,3 0 1 1 502.9,349.86Z" style="fill:#7A9CFF" />
<path d="M512.39,382.01A3,3 0 1 1 506.39,382.01A3,3 0 1 1 512.39,382.01Z" style="fill:#7A9CFF" />
<path d="M521.87,411.48A3,3 0 1 1 515.87,411.48A3,3 0 1 1 521.87,411.48Z" style="fill:#7A9CFF" />
<path d="M531.36,444.06A3,3 0 1 1 525.36,444.06A3,3 0 1 1 531.36,444.06Z" style="fill:#7A9CFF" />
<path d="M540.85,491.27A3,3 0 1 1 534.85,491.27A3,3 0 1 1 540.85,491.27Z" style="fill:#7A9CFF" />
<path d="M550.34,531.79A3,3 0 1 1 544.34,531.79A3,3 0 1 1 550.34,531.79Z" style="fill:#7A9CFF" />
<path d="M559.83,574A3,3 0 1 1 553.83,574A3,3 0 1 1 559.83,574Z" style="fill:#7A9CFF" />
<path d="M569.32,621.8A3,3 0 1 1 563.32,621.8A3,3 0 1 1 569.32,621.8Z" style="fill:#7A9CFF" />
<path d="M578.81,667.64A3,3 0 1 1 572.81,667.64A3,3 0 1 1 578.81,667.64Z" style="fill:#7A9CFF" />
<path d="M588.29,712.06A3,3 0 1 1 582.29,712.06A3,3 0 1 1 588.29,712.06Z" style="fill:#7A9CFF" />
<path d="M597.78,741.99A3,3 0 1 1 591.78,741.99A3,3 0 1 1 597.78,741.99Z" style="fill:#7A9CFF" />
<path d="M607.27,763.93A3,3 0 1 1 601.27,763.93A3,3 0 1 1 607.27,763.93Z" style="fill:#7A9CFF" />
<path d="M616.76,768.94A3,3 0 1 1 610.76,768.94A3,3 0 1 1 616.76,768.94Z" style="fill:#7A9CFF" />
<path d="M626.25,763.31A3,3 0 1 1 620.25,763.31A3,3 0 1 1 626.25,763.31Z" style="fill:#7A9CFF" />
<path d="M635.74,748.1A3,3 0 1 1 629.74,748.1A3,3 0 1 1 635.74,748.1Z" style="fill:#7A9CFF" />
<path d="M645.22,723.49A3,3 0 1 1 639.22,723.49A3,3 0 1 1 645.22,723.49Z" style="fill:#7A9CFF" />
<path d="M654.71,679.57A3,3 0 1 1 648.71,679.57A3,3 0 1 1 654.71,679.57Z" style="fill:#7A9CFF" />
<path d="M664.2,631.61A3,3 0 1 1 658.2,631.61A3,3 0 1 1 664.2,631.61Z" style="fill:#7A9CFF" />
<path d="M673.69,599.97A3,3 0 1 1 667.69,599.97A3,3 0 1 1 673.69,599.97Z" style="fill:#7A9CFF" />
<path d="M683.18,559.21A3,3 0 1 1 677.18,559.21A3,3 0 1 1 683.18,559.21Z" style="fill:#7A9CFF" />
<path d="M692.67,505.73A3,3 0 1 1 686.67,505.73A3,3 0 1 1 692.67,505.73Z" style="fill:#7A9CFF" />
<path d="M702.16,468.52A3,3 0 1 1 696.16,468.52A3,3 0 1 1 702.16,468.52Z" style="fill:#7A9CFF" />
<path d="M711.64,433.91A3,3 0 1 1 705.64,433.91A3,3 0 1 1 711.64,433.91Z" style="fill:#7A9CFF" />
<path d="M721.13,402.81A3,3 0 1 1 715.13,402.81A3,3 0 1 1 721.13,402.81Z" style="fill:#7A9CFF" />
<path d="M730.62,366.58A3,3 0 1 1 724.62,366.58A3,3 0 1 1 730.62,366.58Z" style="fill:#7A9CFF" />
<path d="M740.11,344.23A3,3 0 1 1 734.11,344.23A3,3 0 1 1 740.11,344.23Z" style="fill:#7A9CFF" />
<path d="M749.6,324.43A3,3 0 1 1 743.6,324.43A3,3 0 1 1 749.6,324.43Z" style="fill:#7A9CFF" />
<path d="M759.09,303.41A3,3 0 1 1 753.09,303.41A3,3 0 1 1 759.09,303.41Z" style="fill:#7A9CFF" />
<path d="M768.58,283.69A3,3 0 1 1 762.58,283.69A3,3 0 1 1 768.58,283.69Z" style="fill:#7A9CFF" />
<path d="M778.06,270.43A3,3 0 1 1 772.06,270.43A3,3 0 1 1 778.06,270.43Z" style="fill:#7A9CFF" />
<path d="M787.55,254.14A3,3 0 1 1 781.55,254.14A3,3 0 1 1 787.55,254.14Z" style="fill:#7A9CFF" />
<path d="M797.04,245.6A3,3 0 1 1 791.04,245.6A3,3 0 1 1 797.04,245.6Z" style="fill:#7A9CFF" />
<path d="M806.53,227.1A3,3 0 1 1 800.53,227.1A3,3 0 1 1 806.53,227.1Z" style="fill:#7A9CFF" />
<path d="M816.02,225.11A3,3 0 1 1 810.02,225.11A3,3 0 1 1 816.02,225.11Z" style="fill:#7A9CFF" />
<path d="M825.51,214.24A3,3 0 1 1 819.51,214.24A3,3 0 1 1 825.51,214.24Z" style="fill:#7A9CFF" />
<path d="M835,204.23A3,3 0 1 1 829,204.23A3,3 0 1 1 835,204.23Z" style="fill:#7A9CFF" />
<path d="M844.48,200.95A3,3 0 1 1 838.48,200.95A3,3 0 1 1 844.48,200.95Z" style="fill:#7A9CFF" />
<path d="M853.97,193.61A3,3 0 1 1 847.97,193.61A3,3 0 1 1 853.97,193.61Z" style="fill:#7A9CFF" />
<path d="M863.46,179.67A3,3 0 1 1 857.46,179.67A3,3 0 1 1 863.46,179.67Z" style="fill:#7A9CFF" />
<path d="M872.95,180.2A3,3 0 1 1 866.95,180.2A3,3 0 1 1 872.95,180.2Z" style="fill:#7A9CFF" />
<path d="M882.44,175.34A3,3 0 1 1 876.44,175.34A3,3 0 1 1 882.44,175.34Z" style="fill:#7A9CFF" />
<path d="M891.93,170.51A3,3 0 1 1 885.93,170.51A3,3 0 1 1 891.93,170.51Z" style="fill:#7A9CFF" />
<path d="M901.42,173.3A3,3 0 1 1 895.42,173.3A3,3 0 1 1 901.42,173.3Z" style="fill:#7A9CFF" />
<path d="M910.9,165.47A3,3 0 1 1 904.9,165.47A3,3 0 1 1 910.9,165.47Z" style="fill:#7A9CFF" />
<path d="M920.39,160.86A3,3 0 1 1 914.39,160.86A3,3 0 1 1 920.39,160.86Z" style="fill:#7A9CFF" />
<path d="M929.88,156.06A3,3 0 1 1 923.88,156.06A3,3 0 1 1 929.88,156.06Z" style="fill:#7A9CFF" />
<path d="M939.37,154.92A3,3 0 1 1 933.37,154.92A3,3 0 1 1 939.37,154.92Z" style="fill:#7A9CFF" />
<path d="M948.86,149.16A3,3 0 1 1 942.86,149.16A3,3 0 1 1 948.86,149.16Z" style="fill:#7A9CFF" />
<path d="M958.35,151.18A3,3 0 1 1 952.35,151.18A3,3 0 1 1 958.35,151.18Z" style="fill:#7A9CFF" />
<path d="M967.84,147.97A3,3 0 1 1 961.84,147.97A3,3 0 1 1 967.84,147.97Z" style="fill:#7A9CFF" />
<path d="M977.32,144.63A3,3 0 1 1 971.32,144.63A3,3 0 1 1 977.32,144.63Z" style="fill:#7A9CFF" />
<path d="M986.81,141.23A3,3 0 1 1 980.81,141.23A3,3 0 1 1 986.81,141.23Z" style="fill:#7A9CFF" />
<path d="M996.3,140.18A3,3 0 1 1 990.3,140.18A3,3 0 1 1 996.3,140.18Z" style="fill:#7A9CFF" />
<path d="M1005.8,138.7A3,3 0 1 1 999.79,138.7A3,3 0 1 1 1005.8,138.7Z" style="fill:#7A9CFF" />
<path d="M1015.3,137.65A3,3 0 1 1 1009.3,137.65A3,3 0 1 1 1015.3,137.65Z" style="fill:#7A9CFF" />
<path d="M1024.8,132.71A3,3 0 1 1 1018.8,132.71A3,3 0 1 1 1024.8,132.71Z" style="fill:#7A9CFF" />
<path d="M1034.3,129.06A3,3 0 1 1 1028.3,129.06A3,3 0 1 1 1034.3,129.06Z" style="fill:#7A9CFF" />
<path d="M1043.7,134.72A3,3 0 1 1 1037.7,134.72A3,3 0 1 1 1043.7,134.72Z" style="fill:#7A9CFF" />
<path d="M1053.2,127.8A3,3 0 1 1 1047.2,127.8A3,3 0 1 1 1053.2,127.8Z" style="fill:#7A9CFF" />
<path d="M106.12,962.84L1055,962.84" style="fill:none;stroke:#000000" />
<path d="M1055,124.14L1055,962.84" style="fill:none;stroke:#000000" />
<path d="M110.87,141.61L112.76,141.74L114.66,141.87L116.56,142L118.46,142.13L120.35,142.26L122.25,142.4L124.15,142.54L126.05,142.68L127.94,142.82L129.84,142.96L131.74,143.1L133.64,143.25L135.54,143.39L137.43,143.54L139.33,143.69L141.23,143.84L143.13,144L145.02,144.15L146.92,144.31L148.82,144.47L150.72,144.63L152.62,144.79L154.51,144.96L156.41,145.12L158.31,145.29L160.21,145.46L162.1,145.64L164,145.81L165.9,145.99L167.8,146.17L169.69,146.35L171.59,146.53L173.49,146.72L175.39,146.91L177.29,147.1L179.18,147.29L181.08,147.48L182.98,147.68L184.88,147.88L186.77,148.08L188.67,148.29L190.57,148.5L192.47,148.71L194.36,148.92L196.26,149.14L198.16,149.36L200.06,149.58L201.96,149.8L203.85,150.03L205.75,150.26L207.65,150.49L209.55,150.73L211.44,150.97L213.34,151.21L215.24,151.46L217.14,151.71L219.04,151.96L220.93,152.22L222.83,152.48L224.73,152.74L226.63,153.01L228.52,153.28L230.42,153.56L232.32,153.83L234.22,154.12L236.11,154.4L238.01,154.69L239.91,154.99L241.81,155.29L243.71,155.59L245.6,155.9L247.5,156.21L249.4,156.52L251.3,156.85L253.19,157.17L255.09,157.5L256.99,157.84L258.89,158.18L260.78,158.52L262.68,158.87L264.58,159.23L266.48,159.59L268.38,159.96L270.27,160.33L272.17,160.71L274.07,161.09L275.97,161.48L277.86,161.88L279.76,162.28L281.66,162.69L283.56,163.11L285.45,163.53L287.35,163.96L289.25,164.39L291.15,164.83L293.05,165.28L294.94,165.74L296.84,166.2L298.74,166.68L300.64,167.16L302.53,167.64L304.43,168.14L306.33,168.64L308.23,169.16L310.13,169.68L312.02,170.21L313.92,170.75L315.82,171.3L317.72,171.86L319.61,172.42L321.51,173L323.41,173.59L325.31,174.19L327.2,174.8L329.1,175.42L331,176.05L332.9,176.69L334.8,177.34L336.69,178.01L338.59,178.69L340.49,179.38L342.39,180.08L344.28,180.8L346.18,181.53L348.08,182.27L349.98,183.03L351.87,183.8L353.77,184.59L355.67,185.39L357.57,186.21L359.47,187.04L361.36,187.89L363.26,188.76L365.16,189.64L367.06,190.54L368.95,191.46L370.85,192.4L372.75,193.36L374.65,194.33L376.55,195.33L378.44,196.35L380.34,197.39L382.24,198.44L384.14,199.53L386.03,200.63L387.93,201.76L389.83,202.91L391.73,204.08L393.62,205.29L395.52,206.51L397.42,207.77L399.32,209.05L401.22,210.36L403.11,211.7L405.01,213.07L406.91,214.47L408.81,215.9L410.7,217.36L412.6,218.86L414.5,220.39L416.4,221.95L418.29,223.55L420.19,225.19L422.09,226.87L423.99,228.59L425.89,230.35L427.78,232.14L429.68,233.99L431.58,235.87L433.48,237.81L435.37,239.79L437.27,241.81L439.17,243.89L441.07,246.02L442.97,248.2L444.86,250.44L446.76,252.73L448.66,255.08L450.56,257.49L452.45,259.96L454.35,262.5L456.25,265.1L458.15,267.77L460.04,270.5L461.94,273.31L463.84,276.19L465.74,279.15L467.64,282.18L469.53,285.29L471.43,288.49L473.33,291.77L475.23,295.14L477.12,298.6L479.02,302.16L480.92,305.81L482.82,309.56L484.71,313.41L486.61,317.36L488.51,321.42L490.41,325.6L492.31,329.88L494.2,334.29L496.1,338.81L498,343.45L499.9,348.23L501.79,353.13L503.69,358.17L505.59,363.34L507.49,368.65L509.39,374.11L511.28,379.71L513.18,385.46L515.08,391.37L516.98,397.42L518.87,403.64L520.77,410.02L522.67,416.56L524.57,423.27L526.46,430.14L528.36,437.19L530.26,444.4L532.16,451.79L534.06,459.34L535.95,467.07L537.85,474.97L539.75,483.05L541.65,491.28L543.54,499.69L545.44,508.25L547.34,516.97L549.24,525.85L551.13,534.87L553.03,544.02L554.93,553.3L556.83,562.7L558.73,572.21L560.62,581.8L562.52,591.47L564.42,601.2L566.32,610.97L568.21,620.77L570.11,630.56L572.01,640.32L573.91,650.04L575.81,659.67L577.7,669.2L579.6,678.58L581.5,687.8L583.4,696.81L585.29,705.58L587.19,714.08L589.09,722.27L590.99,730.11L592.88,737.56L594.78,744.59L596.68,751.17L598.58,757.26L600.48,762.82L602.37,767.83L604.27,772.26L606.17,776.08L608.07,779.27L609.96,781.82L611.86,783.69L613.76,784.89L615.66,785.4L617.55,785.23L619.45,784.37L621.35,782.83L623.25,780.62L625.15,777.75L627.04,774.24L628.94,770.11L630.84,765.39L632.74,760.1L634.63,754.27L636.53,747.93L638.43,741.12L640.33,733.87L642.22,726.22L644.12,718.2L646.02,709.85L647.92,701.21L649.82,692.32L651.71,683.2L653.61,673.89L655.51,664.43L657.41,654.85L659.3,645.17L661.2,635.43L663.1,625.64L665,615.85L666.9,606.07L668.79,596.31L670.69,586.61L672.59,576.97L674.49,567.42L676.38,557.97L678.28,548.63L680.18,539.41L682.08,530.32L683.97,521.37L685.87,512.58L687.77,503.93L689.67,495.45L691.57,487.13L693.46,478.97L695.36,470.99L697.26,463.17L699.16,455.53L701.05,448.06L702.95,440.76L704.85,433.63L706.75,426.67L708.64,419.88L710.54,413.26L712.44,406.8L714.34,400.5L716.24,394.36L718.13,388.38L720.03,382.56L721.93,376.88L723.83,371.35L725.72,365.97L727.62,360.73L729.52,355.62L731.42,350.65L733.32,345.82L735.21,341.11L737.11,336.52L739.01,332.06L740.91,327.72L742.8,323.49L744.7,319.37L746.6,315.36L748.5,311.46L750.39,307.66L752.29,303.96L754.19,300.36L756.09,296.86L757.99,293.44L759.88,290.12L761.78,286.88L763.68,283.72L765.58,280.65L767.47,277.65L769.37,274.73L771.27,271.89L773.17,269.12L775.06,266.42L776.96,263.79L778.86,261.22L780.76,258.72L782.66,256.28L784.55,253.9L786.45,251.57L788.35,249.31L790.25,247.1L792.14,244.95L794.04,242.84L795.94,240.79L797.84,238.79L799.74,236.83L801.63,234.92L803.53,233.06L805.43,231.24L807.33,229.46L809.22,227.72L811.12,226.02L813.02,224.36L814.92,222.74L816.81,221.16L818.71,219.61L820.61,218.1L822.51,216.62L824.41,215.17L826.3,213.76L828.2,212.38L830.1,211.02L832,209.7L833.89,208.4L835.79,207.13L837.69,205.89L839.59,204.68L841.48,203.49L843.38,202.33L845.28,201.19L847.18,200.07L849.08,198.98L850.97,197.91L852.87,196.86L854.77,195.83L856.67,194.83L858.56,193.84L860.46,192.88L862.36,191.93L864.26,191L866.16,190.09L868.05,189.2L869.95,188.32L871.85,187.46L873.75,186.62L875.64,185.8L877.54,184.99L879.44,184.19L881.34,183.41L883.23,182.65L885.13,181.9L887.03,181.16L888.93,180.44L890.83,179.73L892.72,179.03L894.62,178.35L896.52,177.67L898.42,177.01L900.31,176.37L902.21,175.73L904.11,175.1L906.01,174.49L907.9,173.89L909.8,173.29L911.7,172.71L913.6,172.14L915.5,171.57L917.39,171.02L919.29,170.48L921.19,169.94L923.09,169.42L924.98,168.9L926.88,168.39L928.78,167.89L930.68,167.4L932.58,166.91L934.47,166.44L936.37,165.97L938.27,165.51L940.17,165.06L942.06,164.61L943.96,164.17L945.86,163.74L947.76,163.32L949.65,162.9L951.55,162.48L953.45,162.08L955.35,161.68L957.25,161.29L959.14,160.9L961.04,160.52L962.94,160.14L964.84,159.77L966.73,159.41L968.63,159.05L970.53,158.7L972.43,158.35L974.32,158.01L976.22,157.67L978.12,157.34L980.02,157.01L981.92,156.68L983.81,156.37L985.71,156.05L987.61,155.74L989.51,155.44L991.4,155.14L993.3,154.84L995.2,154.55L997.1,154.26L999,153.97L1000.9,153.69L1002.8,153.42L1004.7,153.14L1006.6,152.87L1008.5,152.61L1010.4,152.35L1012.3,152.09L1014.2,151.84L1016.1,151.58L1018,151.34L1019.9,151.09L1021.8,150.85L1023.7,150.61L1025.6,150.38L1027.5,150.14L1029.4,149.92L1031.3,149.69L1033.2,149.47L1035.1,149.25L1036.9,149.03L1038.8,148.81L1040.7,148.6L1042.6,148.39L1044.5,148.19L1046.4,147.98L1048.3,147.78" style="fill:none;stroke:#637CC6;stroke-width:3" />
<path d="M532.92,454.79L699.34,454.79" style="fill:none;stroke:#637CC6;stroke-width:4;stroke-dasharray:15,5" />
<path d="M113.87,110.87A3,3 0 1 1 107.87,110.87A3,3 0 1 1 113.87,110.87Z" style="fill:#FFB66E" />
<path d="M123.35,116.94A3,3 0 1 1 117.35,116.94A3,3 0 1 1 123.35,116.94Z" style="fill:#FFB66E" />
<path d="M132.84,120.73A3,3 0 1 1 126.84,120.73A3,3 0 1 1 132.84,120.73Z" style="fill:#FFB66E" />
<path d="M142.33,119.99A3,3 0 1 1 136.33,119.99A3,3 0 1 1 142.33,119.99Z" style="fill:#FFB66E" />
<path d="M151.82,121.33A3,3 0 1 1 145.82,121.33A3,3 0 1 1 151.82,121.33Z" style="fill:#FFB66E" />
<path d="M161.31,118.55A3,3 0 1 1 155.31,118.55A3,3 0 1 1 161.31,118.55Z" style="fill:#FFB66E" />
<path d="M170.8,114.09A3,3 0 1 1 164.8,114.09A3,3 0 1 1 170.8,114.09Z" style="fill:#FFB66E" />
<path d="M180.29,124.32A3,3 0 1 1 174.29,124.32A3,3 0 1 1 180.29,124.32Z" style="fill:#FFB66E" />
<path d="M189.77,125.98A3,3 0 1 1 183.77,125.98A3,3 0 1 1 189.77,125.98Z" style="fill:#FFB66E" />
<path d="M199.26,120.35A3,3 0 1 1 193.26,120.35A3,3 0 1 1 199.26,120.35Z" style="fill:#FFB66E" />
<path d="M208.75,132.98A3,3 0 1 1 202.75,132.98A3,3 0 1 1 208.75,132.98Z" style="fill:#FFB66E" />
<path d="M218.24,128.4A3,3 0 1 1 212.24,128.4A3,3 0 1 1 218.24,128.4Z" style="fill:#FFB66E" />
<path d="M227.73,130.03A3,3 0 1 1 221.73,130.03A3,3 0 1 1 227.73,130.03Z" style="fill:#FFB66E" />
<path d="M237.22,125.71A3,3 0 1 1 231.22,125.71A3,3 0 1 1 237.22,125.71Z" style="fill:#FFB66E" />
<path d="M246.71,131.77A3,3 0 1 1 240.71,131.77A3,3 0 1 1 246.71,131.77Z" style="fill:#FFB66E" />
<path d="M256.19,137.68A3,3 0 1 1 250.19,137.68A3,3 0 1 1 256.19,137.68Z" style="fill:#FFB66E" />
<path d="M265.68,142.55A3,3 0 1 1 259.68,142.55A3,3 0 1 1 265.68,142.55Z" style="fill:#FFB66E" />
<path d="M275.17,139.27A3,3 0 1 1 269.17,139.27A3,3 0 1 1 275.17,139.27Z" style="fill:#FFB66E" />
<path d="M284.66,141.96A3,3 0 1 1 278.66,141.96A3,3 0 1 1 284.66,141.96Z" style="fill:#FFB66E" />
<path d="M294.15,144.77A3,3 0 1 1 288.15,144.77A3,3 0 1 1 294.15,144.77Z" style="fill:#FFB66E" />
<path d="M303.64,137.15A3,3 0 1 1 297.64,137.15A3,3 0 1 1 303.64,137.15Z" style="fill:#FFB66E" />
<path d="M313.13,151.16A3,3 0 1 1 307.13,151.16A3,3 0 1 1 313.13,151.16Z" style="fill:#FFB66E" />
<path d="M322.61,152.44A3,3 0 1 1 316.61,152.44A3,3 0 1 1 322.61,152.44Z" style="fill:#FFB66E" />
<path d="M332.1,164.33A3,3 0 1 1 326.1,164.33A3,3 0 1 1 332.1,164.33Z" style="fill:#FFB66E" />
<path d="M341.59,166.65A3,3 0 1 1 335.59,166.65A3,3 0 1 1 341.59,166.65Z" style="fill:#FFB66E" />
<path d="M351.08,176.47A3,3 0 1 1 345.08,176.47A3,3 0 1 1 351.08,176.47Z" style="fill:#FFB66E" />
<path d="M360.57,178.28A3,3 0 1 1 354.57,178.28A3,3 0 1 1 360.57,178.28Z" style="fill:#FFB66E" />
<path d="M370.06,180.54A3,3 0 1 1 364.06,180.54A3,3 0 1 1 370.06,180.54Z" style="fill:#FFB66E" />
<path d="M379.55,185.3A3,3 0 1 1 373.55,185.3A3,3 0 1 1 379.55,185.3Z" style="fill:#FFB66E" />
<path d="M389.03,194.21A3,3 0 1 1 383.03,194.21A3,3 0 1 1 389.03,194.21Z" style="fill:#FFB66E" />
<path d="M398.52,198.49A3,3 0 1 1 392.52,198.49A3,3 0 1 1 398.52,198.49Z" style="fill:#FFB66E" />
<path d="M408.01,209.84A3,3 0 1 1 402.01,209.84A3,3 0 1 1 408.01,209.84Z" style="fill:#FFB66E" />
<path d="M417.5,215.66A3,3 0 1 1 411.5,215.66A3,3 0 1 1 417.5,215.66Z" style="fill:#FFB66E" />
<path d="M426.99,226.08A3,3 0 1 1 420.99,226.08A3,3 0 1 1 426.99,226.08Z" style="fill:#FFB66E" />
<path d="M436.48,235.22A3,3 0 1 1 430.48,235.22A3,3 0 1 1 436.48,235.22Z" style="fill:#FFB66E" />
<path d="M445.97,245.53A3,3 0 1 1 439.97,245.53A3,3 0 1 1 445.97,245.53Z" style="fill:#FFB66E" />
<path d="M455.45,258.01A3,3 0 1 1 449.45,258.01A3,3 0 1 1 455.45,258.01Z" style="fill:#FFB66E" />
<path d="M464.94,277.75A3,3 0 1 1 458.94,277.75A3,3 0 1 1 464.94,277.75Z" style="fill:#FFB66E" />
<path d="M474.43,283.88A3,3 0 1 1 468.43,283.88A3,3 0 1 1 474.43,283.88Z" style="fill:#FFB66E" />
<path d="M483.92,305.02A3,3 0 1 1 477.92,305.02A3,3 0 1 1 483.92,305.02Z" style="fill:#FFB66E" />
<path d="M493.41,328.33A3,3 0 1 1 487.41,328.33A3,3 0 1 1 493.41,328.33Z" style="fill:#FFB66E" />
<path d="M502.9,350.03A3,3 0 1 1 496.9,350.03A3,3 0 1 1 502.9,350.03Z" style="fill:#FFB66E" />
<path d="M512.39,384.36A3,3 0 1 1 506.39,384.36A3,3 0 1 1 512.39,384.36Z" style="fill:#FFB66E" />
<path d="M521.87,409.53A3,3 0 1 1 515.87,409.53A3,3 0 1 1 521.87,409.53Z" style="fill:#FFB66E" />
<path d="M531.36,447.9A3,3 0 1 1 525.36,447.9A3,3 0 1 1 531.36,447.9Z" style="fill:#FFB66E" />
<path d="M540.85,480.78A3,3 0 1 1 534.85,480.78A3,3 0 1 1 540.85,480.78Z" style="fill:#FFB66E" />
<path d="M550.34,522.43A3,3 0 1 1 544.34,522.43A3,3 0 1 1 550.34,522.43Z" style="fill:#FFB66E" />
<path d="M559.83,576.2A3,3 0 1 1 553.83,576.2A3,3 0 1 1 559.83,576.2Z" style="fill:#FFB66E" />
<path d="M569.32,614.66A3,3 0 1 1 563.32,614.66A3,3 0 1 1 569.32,614.66Z" style="fill:#FFB66E" />
<path d="M578.81,656.78A3,3 0 1 1 572.81,656.78A3,3 0 1 1 578.81,656.78Z" style="fill:#FFB66E" />
<path d="M588.29,709.14A3,3 0 1 1 582.29,709.14A3,3 0 1 1 588.29,709.14Z" style="fill:#FFB66E" />
<path d="M597.78,737.58A3,3 0 1 1 591.78,737.58A3,3 0 1 1 597.78,737.58Z" style="fill:#FFB66E" />
<path d="M607.27,747.47A3,3 0 1 1 601.27,747.47A3,3 0 1 1 607.27,747.47Z" style="fill:#FFB66E" />
<path d="M616.76,768.27A3,3 0 1 1 610.76,768.27A3,3 0 1 1 616.76,768.27Z" style="fill:#FFB66E" />
<path d="M626.25,752.98A3,3 0 1 1 620.25,752.98A3,3 0 1 1 626.25,752.98Z" style="fill:#FFB66E" />
<path d="M635.74,742.77A3,3 0 1 1 629.74,742.77A3,3 0 1 1 635.74,742.77Z" style="fill:#FFB66E" />
<path d="M645.22,720.97A3,3 0 1 1 639.22,720.97A3,3 0 1 1 645.22,720.97Z" style="fill:#FFB66E" />
<path d="M654.71,680.81A3,3 0 1 1 648.71,680.81A3,3 0 1 1 654.71,680.81Z" style="fill:#FFB66E" />
<path d="M664.2,632.92A3,3 0 1 1 658.2,632.92A3,3 0 1 1 664.2,632.92Z" style="fill:#FFB66E" />
<path d="M673.69,582.25A3,3 0 1 1 667.69,582.25A3,3 0 1 1 673.69,582.25Z" style="fill:#FFB66E" />
<path d="M683.18,544.56A3,3 0 1 1 677.18,544.56A3,3 0 1 1 683.18,544.56Z" style="fill:#FFB66E" />
<path d="M692.67,509.66A3,3 0 1 1 686.67,509.66A3,3 0 1 1 692.67,509.66Z" style="fill:#FFB66E" />
<path d="M702.16,472.45A3,3 0 1 1 696.16,472.45A3,3 0 1 1 702.16,472.45Z" style="fill:#FFB66E" />
<path d="M711.64,428.11A3,3 0 1 1 705.64,428.11A3,3 0 1 1 711.64,428.11Z" style="fill:#FFB66E" />
<path d="M721.13,407.34A3,3 0 1 1 715.13,407.34A3,3 0 1 1 721.13,407.34Z" style="fill:#FFB66E" />
<path d="M730.62,367.29A3,3 0 1 1 724.62,367.29A3,3 0 1 1 730.62,367.29Z" style="fill:#FFB66E" />
<path d="M740.11,345.9A3,3 0 1 1 734.11,345.9A3,3 0 1 1 740.11,345.9Z" style="fill:#FFB66E" />
<path d="M749.6,323.87A3,3 0 1 1 743.6,323.87A3,3 0 1 1 749.6,323.87Z" style="fill:#FFB66E" />
<path d="M759.09,303.26A3,3 0 1 1 753.09,303.26A3,3 0 1 1 759.09,303.26Z" style="fill:#FFB66E" />
<path d="M768.58,284.95A3,3 0 1 1 762.58,284.95A3,3 0 1 1 768.58,284.95Z" style="fill:#FFB66E" />
<path d="M778.06,275.19A3,3 0 1 1 772.06,275.19A3,3 0 1 1 778.06,275.19Z" style="fill:#FFB66E" />
<path d="M787.55,254.15A3,3 0 1 1 781.55,254.15A3,3 0 1 1 787.55,254.15Z" style="fill:#FFB66E" />
<path d="M797.04,241.63A3,3 0 1 1 791.04,241.63A3,3 0 1 1 797.04,241.63Z" style="fill:#FFB66E" />
<path d="M806.53,235.78A3,3 0 1 1 800.53,235.78A3,3 0 1 1 806.53,235.78Z" style="fill:#FFB66E" />
<path d="M816.02,218.64A3,3 0 1 1 810.02,218.64A3,3 0 1 1 816.02,218.64Z" style="fill:#FFB66E" />
<path d="M825.51,208.73A3,3 0 1 1 819.51,208.73A3,3 0 1 1 825.51,208.73Z" style="fill:#FFB66E" />
<path d="M835,208.19A3,3 0 1 1 829,208.19A3,3 0 1 1 835,208.19Z" style="fill:#FFB66E" />
<path d="M844.48,197.52A3,3 0 1 1 838.48,197.52A3,3 0 1 1 844.48,197.52Z" style="fill:#FFB66E" />
<path d="M853.97,190.34A3,3 0 1 1 847.97,190.34A3,3 0 1 1 853.97,190.34Z" style="fill:#FFB66E" />
<path d="M863.46,185.78A3,3 0 1 1 857.46,185.78A3,3 0 1 1 863.46,185.78Z" style="fill:#FFB66E" />
<path d="M872.95,179.95A3,3 0 1 1 866.95,179.95A3,3 0 1 1 872.95,179.95Z" style="fill:#FFB66E" />
<path d="M882.44,172.29A3,3 0 1 1 876.44,172.29A3,3 0 1 1 882.44,172.29Z" style="fill:#FFB66E" />
<path d="M891.93,163.84A3,3 0 1 1 885.93,163.84A3,3 0 1 1 891.93,163.84Z" style="fill:#FFB66E" />
<path d="M901.42,167.89A3,3 0 1 1 895.42,167.89A3,3 0 1 1 901.42,167.89Z" style="fill:#FFB66E" />
<path d="M910.9,166.23A3,3 0 1 1 904.9,166.23A3,3 0 1 1 910.9,166.23Z" style="fill:#FFB66E" />
<path d="M920.39,161.46A3,3 0 1 1 914.39,161.46A3,3 0 1 1 920.39,161.46Z" style="fill:#FFB66E" />
<path d="M929.88,163.19A3,3 0 1 1 923.88,163.19A3,3 0 1 1 929.88,163.19Z" style="fill:#FFB66E" />
<path d="M939.37,155.07A3,3 0 1 1 933.37,155.07A3,3 0 1 1 939.37,155.07Z" style="fill:#FFB66E" />
<path d="M948.86,153.46A3,3 0 1 1 942.86,153.46A3,3 0 1 1 948.86,153.46Z" style="fill:#FFB66E" />
<path d="M958.35,152.52A3,3 0 1 1 952.35,152.52A3,3 0 1 1 958.35,152.52Z" style="fill:#FFB66E" />
<path d="M967.84,146.83A3,3 0 1 1 961.84,146.83A3,3 0 1 1 967.84,146.83Z" style="fill:#FFB66E" />
<path d="M977.32,144.9A3,3 0 1 1 971.32,144.9A3,3 0 1 1 977.32,144.9Z" style="fill:#FFB66E" />
<path d="M986.81,144.97A3,3 0 1 1 980.81,144.97A3,3 0 1 1 986.81,144.97Z" style="fill:#FFB66E" />
<path d="M996.3,139.45A3,3 0 1 1 990.3,139.45A3,3 0 1 1 996.3,139.45Z" style="fill:#FFB66E" />
<path d="M1005.8,134.67A3,3 0 1 1 999.79,134.67A3,3 0 1 1 1005.8,134.67Z" style="fill:#FFB66E" />
<path d="M1015.3,140.82A3,3 0 1 1 1009.3,140.82A3,3 0 1 1 1015.3,140.82Z" style="fill:#FFB66E" />
<path d="M1024.8,139A3,3 0 1 1 1018.8,139A3,3 0 1 1 1024.8,139Z" style="fill:#FFB66E" />
<path d="M1034.3,132.33A3,3 0 1 1 1028.3,132.33A3,3 0 1 1 1034.3,132.33Z" style="fill:#FFB66E" />
<path d="M1043.7,130.09A3,3 0 1 1 1037.7,130.09A3,3 0 1 1 1043.7,130.09Z" style="fill:#FFB66E" />
<path d="M1053.2,136.62A3,3 0 1 1 1047.2,136.62A3,3 0 1 1 1053.2,136.62Z" style="fill:#FFB66E" />
<path d="M106.12,962.84L1055,962.84" style="fill:none;stroke:#000000" />
<path d="M1055,124.14L1055,962.84" style="fill:none;stroke:#000000" />
<path d="M110.87,141.58L112.76,141.71L114.66,141.84L116.56,141.97L118.46,142.11L120.35,142.24L122.25,142.37L124.15,142.51L126.05,142.65L127.94,142.79L129.84,142.93L131.74,143.07L133.64,143.22L135.54,143.37L137.43,143.51L139.33,143.66L141.23,143.82L143.13,143.97L145.02,144.12L146.92,144.28L148.82,144.44L150.72,144.6L152.62,144.76L154.51,144.93L156.41,145.09L158.31,145.26L160.21,145.43L162.1,145.6L164,145.78L165.9,145.95L167.8,146.13L169.69,146.31L171.59,146.5L173.49,146.68L175.39,146.87L177.29,147.06L179.18,147.25L181.08,147.45L182.98,147.65L184.88,147.84L186.77,148.05L188.67,148.25L190.57,148.46L192.47,148.67L194.36,148.88L196.26,149.1L198.16,149.32L200.06,149.54L201.96,149.76L203.85,149.99L205.75,150.22L207.65,150.45L209.55,150.69L211.44,150.93L213.34,151.17L215.24,151.41L217.14,151.66L219.04,151.91L220.93,152.17L222.83,152.43L224.73,152.69L226.63,152.96L228.52,153.23L230.42,153.5L232.32,153.78L234.22,154.06L236.11,154.35L238.01,154.64L239.91,154.93L241.81,155.23L243.71,155.53L245.6,155.84L247.5,156.15L249.4,156.46L251.3,156.78L253.19,157.11L255.09,157.44L256.99,157.77L258.89,158.11L260.78,158.46L262.68,158.81L264.58,159.16L266.48,159.52L268.38,159.89L270.27,160.26L272.17,160.64L274.07,161.02L275.97,161.41L277.86,161.8L279.76,162.2L281.66,162.61L283.56,163.02L285.45,163.45L287.35,163.87L289.25,164.31L291.15,164.75L293.05,165.2L294.94,165.65L296.84,166.11L298.74,166.58L300.64,167.06L302.53,167.55L304.43,168.04L306.33,168.54L308.23,169.06L310.13,169.58L312.02,170.1L313.92,170.64L315.82,171.19L317.72,171.74L319.61,172.31L321.51,172.89L323.41,173.47L325.31,174.07L327.2,174.67L329.1,175.29L331,175.92L332.9,176.56L334.8,177.21L336.69,177.87L338.59,178.55L340.49,179.24L342.39,179.94L344.28,180.65L346.18,181.38L348.08,182.12L349.98,182.87L351.87,183.64L353.77,184.43L355.67,185.23L357.57,186.04L359.47,186.87L361.36,187.72L363.26,188.58L365.16,189.46L367.06,190.35L368.95,191.27L370.85,192.2L372.75,193.16L374.65,194.13L376.55,195.12L378.44,196.13L380.34,197.16L382.24,198.22L384.14,199.29L386.03,200.39L387.93,201.51L389.83,202.66L391.73,203.83L393.62,205.02L395.52,206.24L397.42,207.49L399.32,208.77L401.22,210.07L403.11,211.4L405.01,212.76L406.91,214.15L408.81,215.57L410.7,217.03L412.6,218.52L414.5,220.04L416.4,221.59L418.29,223.19L420.19,224.81L422.09,226.48L423.99,228.19L425.89,229.93L427.78,231.72L429.68,233.55L431.58,235.43L433.48,237.35L435.37,239.31L437.27,241.33L439.17,243.39L441.07,245.51L442.97,247.67L444.86,249.89L446.76,252.17L448.66,254.5L450.56,256.89L452.45,259.35L454.35,261.86L456.25,264.44L458.15,267.09L460.04,269.8L461.94,272.59L463.84,275.44L465.74,278.38L467.64,281.38L469.53,284.47L471.43,287.64L473.33,290.9L475.23,294.24L477.12,297.67L479.02,301.19L480.92,304.8L482.82,308.52L484.71,312.33L486.61,316.25L488.51,320.27L490.41,324.4L492.31,328.64L494.2,333L496.1,337.48L498,342.08L499.9,346.8L501.79,351.65L503.69,356.63L505.59,361.74L507.49,367L509.39,372.39L511.28,377.92L513.18,383.61L515.08,389.44L516.98,395.43L518.87,401.57L520.77,407.86L522.67,414.32L524.57,420.94L526.46,427.73L528.36,434.68L530.26,441.79L532.16,449.08L534.06,456.53L535.95,464.15L537.85,471.94L539.75,479.89L541.65,488L543.54,496.28L545.44,504.72L547.34,513.31L549.24,522.04L551.13,530.92L553.03,539.93L554.93,549.06L556.83,558.31L558.73,567.65L560.62,577.09L562.52,586.6L564.42,596.17L566.32,605.77L568.21,615.4L570.11,625.02L572.01,634.61L573.91,644.16L575.81,653.63L577.7,662.99L579.6,672.21L581.5,681.27L583.4,690.13L585.29,698.76L587.19,707.11L589.09,715.16L590.99,722.88L592.88,730.22L594.78,737.15L596.68,743.63L598.58,749.64L600.48,755.14L602.37,760.1L604.27,764.49L606.17,768.29L608.07,771.48L609.96,774.03L611.86,775.93L613.76,777.17L615.66,777.75L617.55,777.65L619.45,776.88L621.35,775.45L623.25,773.35L625.15,770.62L627.04,767.25L628.94,763.28L630.84,758.72L632.74,753.6L634.63,747.95L636.53,741.8L638.43,735.18L640.33,728.13L642.22,720.68L644.12,712.86L646.02,704.72L647.92,696.28L649.82,687.58L651.71,678.66L653.61,669.55L655.51,660.28L657.41,650.89L659.3,641.4L661.2,631.83L663.1,622.23L665,612.6L666.9,602.98L668.79,593.38L670.69,583.83L672.59,574.34L674.49,564.93L676.38,555.61L678.28,546.4L680.18,537.3L682.08,528.33L683.97,519.49L685.87,510.8L687.77,502.25L689.67,493.86L691.57,485.63L693.46,477.56L695.36,469.66L697.26,461.92L699.16,454.35L701.05,446.94L702.95,439.71L704.85,432.64L706.75,425.74L708.64,419L710.54,412.43L712.44,406.02L714.34,399.77L716.24,393.67L718.13,387.73L720.03,381.94L721.93,376.3L723.83,370.81L725.72,365.46L727.62,360.24L729.52,355.17L731.42,350.23L733.32,345.41L735.21,340.73L737.11,336.17L739.01,331.72L740.91,327.4L742.8,323.19L744.7,319.09L746.6,315.1L748.5,311.21L750.39,307.43L752.29,303.74L754.19,300.16L756.09,296.66L757.99,293.26L759.88,289.94L761.78,286.71L763.68,283.57L765.58,280.5L767.47,277.52L769.37,274.61L771.27,271.77L773.17,269.01L775.06,266.31L776.96,263.69L778.86,261.13L780.76,258.63L782.66,256.19L784.55,253.82L786.45,251.5L788.35,249.24L790.25,247.04L792.14,244.89L794.04,242.79L795.94,240.74L797.84,238.74L799.74,236.79L801.63,234.88L803.53,233.02L805.43,231.2L807.33,229.42L809.22,227.69L811.12,225.99L813.02,224.34L814.92,222.72L816.81,221.14L818.71,219.59L820.61,218.08L822.51,216.6L824.41,215.16L826.3,213.74L828.2,212.36L830.1,211.01L832,209.69L833.89,208.39L835.79,207.13L837.69,205.89L839.59,204.67L841.48,203.49L843.38,202.32L845.28,201.18L847.18,200.07L849.08,198.98L850.97,197.91L852.87,196.86L854.77,195.83L856.67,194.83L858.56,193.84L860.46,192.88L862.36,191.93L864.26,191L866.16,190.09L868.05,189.2L869.95,188.33L871.85,187.47L873.75,186.63L875.64,185.8L877.54,184.99L879.44,184.2L881.34,183.42L883.23,182.65L885.13,181.9L887.03,181.17L888.93,180.44L890.83,179.73L892.72,179.04L894.62,178.35L896.52,177.68L898.42,177.02L900.31,176.37L902.21,175.74L904.11,175.11L906.01,174.5L907.9,173.89L909.8,173.3L911.7,172.72L913.6,172.14L915.5,171.58L917.39,171.03L919.29,170.48L921.19,169.95L923.09,169.42L924.98,168.91L926.88,168.4L928.78,167.9L930.68,167.41L932.58,166.92L934.47,166.45L936.37,165.98L938.27,165.52L940.17,165.06L942.06,164.62L943.96,164.18L945.86,163.75L947.76,163.32L949.65,162.9L951.55,162.49L953.45,162.09L955.35,161.69L957.25,161.29L959.14,160.91L961.04,160.53L962.94,160.15L964.84,159.78L966.73,159.42L968.63,159.06L970.53,158.7L972.43,158.36L974.32,158.01L976.22,157.68L978.12,157.34L980.02,157.01L981.92,156.69L983.81,156.37L985.71,156.06L987.61,155.75L989.51,155.44L991.4,155.14L993.3,154.85L995.2,154.55L997.1,154.26L999,153.98L1000.9,153.7L1002.8,153.42L1004.7,153.15L1006.6,152.88L1008.5,152.62L1010.4,152.35L1012.3,152.1L1014.2,151.84L1016.1,151.59L1018,151.34L1019.9,151.1L1021.8,150.86L1023.7,150.62L1025.6,150.38L1027.5,150.15L1029.4,149.92L1031.3,149.7L1033.2,149.47L1035.1,149.25L1036.9,149.03L1038.8,148.82L1040.7,148.61L1042.6,148.4L1044.5,148.19L1046.4,147.99L1048.3,147.79" style="fill:none;stroke:#C28C56;stroke-width:3" />
<path d="M532.64,450.97L700.02,450.97" style="fill:none;stroke:#C28C56;stroke-width:4;stroke-dasharray:15,5" />
<text x="191.12" y="-899.95" transform="scale(1, -1)"
	style="font-family:Helvetica;font-weight:normal;font-style:normal;font-size:36px">Pump</text>
<path d="M162.12,867.02A6,6 0 1 1 150.12,867.02A6,6 0 1 1 162.12,867.02Z" style="fill:#1BAA8B" />
<text x="191.12" y="-858.54" transform="scale(1, -1)"
	style="font-family:Helvetica;font-weight:normal;font-style:normal;font-size:36px">0 mW</text>
<path d="M162.12,825.61A6,6 0 1 1 150.12,825.61A6,6 0 1 1 162.12,825.61Z" style="fill:#C96892" />
<text x="191.12" y="-817.13" transform="scale(1, -1)"
	style="font-family:Helvetica;font-weight:normal;font-style:normal;font-size:36px">55 mW</text>
<path d="M162.12,784.2A6,6 0 1 1 150.12,784.2A6,6 0 1 1 162.12,784.2Z" style="fill:#637CC6" />
<text x="191.12" y="-775.72" transform="scale(1, -1)"
	style="font-family:Helvetica;font-weight:normal;font-style:normal;font-size:36px">110 mW</text>
<path d="M162.12,742.79A6,6 0 1 1 150.12,742.79A6,6 0 1 1 162.12,742.79Z" style="fill:#C28C56" />
<text x="191.12" y="-734.3" transform="scale(1, -1)"
	style="font-family:Helvetica;font-weight:normal;font-style:normal;font-size:36px">139 mW</text>
</g>
</svg>
