<?xml version="1.0"?>
<!-- Generated by SVGo and Plotinum VG -->
<svg width="1080pt" height="1080pt" viewBox="0 0 1080 1080"
	xmlns="http://www.w3.org/2000/svg"
	xmlns:xlink="http://www.w3.org/1999/xlink">
<g transform="scale(1, -1) translate(0, -1080)">
<path d="M0,0L1080,0L1080,1080L0,1080Z" style="fill:#-8000000000000000-8000000000000000-8000000000000000;fill-opacity:0" />
<text x="180.55" y="-1015.2" transform="scale(1, -1)"
	style="font-family:Helvetica;font-weight:normal;font-style:normal;font-size:80px">500 nm TeO2 CABS</text>
<text x="416.36" y="-17.172" transform="scale(1, -1)"
	style="font-family:Helvetica;font-weight:normal;font-style:normal;font-size:56px">Frequency (GHz)</text>
<text x="373.67" y="-119.73" transform="scale(1, -1)"
	style="font-family:Helvetica;font-weight:normal;font-style:normal;font-size:56px">11.75</text>
<text x="561.01" y="-119.73" transform="scale(1, -1)"
	style="font-family:Helvetica;font-weight:normal;font-style:normal;font-size:56px">12.00</text>
<text x="750.44" y="-119.73" transform="scale(1, -1)"
	style="font-family:Helvetica;font-weight:normal;font-style:normal;font-size:56px">12.24</text>
<text x="939.86" y="-119.73" transform="scale(1, -1)"
	style="font-family:Helvetica;font-weight:normal;font-style:normal;font-size:56px">12.49</text>
<path d="M346.94,177.12L346.94,173.12" style="fill:none;stroke:#000000;stroke-width:1.5" />
<path d="M441.66,181.12L441.66,173.12" style="fill:none;stroke:#000000;stroke-width:1.5" />
<path d="M536.37,177.12L536.37,173.12" style="fill:none;stroke:#000000;stroke-width:1.5" />
<path d="M631.08,181.12L631.08,173.12" style="fill:none;stroke:#000000;stroke-width:1.5" />
<path d="M725.79,177.12L725.79,173.12" style="fill:none;stroke:#000000;stroke-width:1.5" />
<path d="M820.51,181.12L820.51,173.12" style="fill:none;stroke:#000000;stroke-width:1.5" />
<path d="M915.22,177.12L915.22,173.12" style="fill:none;stroke:#000000;stroke-width:1.5" />
<path d="M1009.9,181.12L1009.9,173.12" style="fill:none;stroke:#000000;stroke-width:1.5" />
<path d="M252.23,173.12L1009.9,173.12" style="fill:none;stroke:#000000;stroke-width:1.5" />
<g transform="rotate(90)">
<text x="279.9" y="45.391" transform="scale(1, -1)"
	style="font-family:Helvetica;font-weight:normal;font-style:normal;font-size:56px">Spectral Density (uV)</text>
</g>
<text x="114.43" y="-448.62" transform="scale(1, -1)"
	style="font-family:Helvetica;font-weight:normal;font-style:normal;font-size:56px">0.25</text>
<path d="M250.98,198.88L246.98,198.88" style="fill:none;stroke:#000000;stroke-width:1.5" />
<path d="M254.98,462.72L246.98,462.72" style="fill:none;stroke:#000000;stroke-width:1.5" />
<path d="M250.98,726.57L246.98,726.57" style="fill:none;stroke:#000000;stroke-width:1.5" />
<path d="M246.98,178.24L246.98,910.62" style="fill:none;stroke:#000000;stroke-width:1.5" />
<path d="M257.23,310.73A5,5 0 1 1 247.23,310.73A5,5 0 1 1 257.23,310.73Z" style="fill:#FF7AB4" />
<path d="M261.08,476.75A5,5 0 1 1 251.08,476.75A5,5 0 1 1 261.08,476.75Z" style="fill:#FF7AB4" />
<path d="M264.92,457.45A5,5 0 1 1 254.92,457.45A5,5 0 1 1 264.92,457.45Z" style="fill:#FF7AB4" />
<path d="M268.77,521.54A5,5 0 1 1 258.77,521.54A5,5 0 1 1 268.77,521.54Z" style="fill:#FF7AB4" />
<path d="M272.62,507.78A5,5 0 1 1 262.62,507.78A5,5 0 1 1 272.62,507.78Z" style="fill:#FF7AB4" />
<path d="M276.46,360.39A5,5 0 1 1 266.46,360.39A5,5 0 1 1 276.46,360.39Z" style="fill:#FF7AB4" />
<path d="M280.31,386.37A5,5 0 1 1 270.31,386.37A5,5 0 1 1 280.31,386.37Z" style="fill:#FF7AB4" />
<path d="M284.15,399.17A5,5 0 1 1 274.15,399.17A5,5 0 1 1 284.15,399.17Z" style="fill:#FF7AB4" />
<path d="M288,364.21A5,5 0 1 1 278,364.21A5,5 0 1 1 288,364.21Z" style="fill:#FF7AB4" />
<path d="M291.85,280.69A5,5 0 1 1 281.85,280.69A5,5 0 1 1 291.85,280.69Z" style="fill:#FF7AB4" />
<path d="M295.69,376.34A5,5 0 1 1 285.69,376.34A5,5 0 1 1 295.69,376.34Z" style="fill:#FF7AB4" />
<path d="M299.54,300.82A5,5 0 1 1 289.54,300.82A5,5 0 1 1 299.54,300.82Z" style="fill:#FF7AB4" />
<path d="M303.38,326.9A5,5 0 1 1 293.38,326.9A5,5 0 1 1 303.38,326.9Z" style="fill:#FF7AB4" />
<path d="M307.23,266.9A5,5 0 1 1 297.23,266.9A5,5 0 1 1 307.23,266.9Z" style="fill:#FF7AB4" />
<path d="M311.08,372.25A5,5 0 1 1 301.08,372.25A5,5 0 1 1 311.08,372.25Z" style="fill:#FF7AB4" />
<path d="M314.92,333.85A5,5 0 1 1 304.92,333.85A5,5 0 1 1 314.92,333.85Z" style="fill:#FF7AB4" />
<path d="M318.77,369.52A5,5 0 1 1 308.77,369.52A5,5 0 1 1 318.77,369.52Z" style="fill:#FF7AB4" />
<path d="M322.62,361.25A5,5 0 1 1 312.62,361.25A5,5 0 1 1 322.62,361.25Z" style="fill:#FF7AB4" />
<path d="M326.46,528.12A5,5 0 1 1 316.46,528.12A5,5 0 1 1 326.46,528.12Z" style="fill:#FF7AB4" />
<path d="M330.31,572.87A5,5 0 1 1 320.31,572.87A5,5 0 1 1 330.31,572.87Z" style="fill:#FF7AB4" />
<path d="M334.15,531.79A5,5 0 1 1 324.15,531.79A5,5 0 1 1 334.15,531.79Z" style="fill:#FF7AB4" />
<path d="M338,396.36A5,5 0 1 1 328,396.36A5,5 0 1 1 338,396.36Z" style="fill:#FF7AB4" />
<path d="M341.85,593.97A5,5 0 1 1 331.85,593.97A5,5 0 1 1 341.85,593.97Z" style="fill:#FF7AB4" />
<path d="M345.69,493.08A5,5 0 1 1 335.69,493.08A5,5 0 1 1 345.69,493.08Z" style="fill:#FF7AB4" />
<path d="M349.54,478.68A5,5 0 1 1 339.54,478.68A5,5 0 1 1 349.54,478.68Z" style="fill:#FF7AB4" />
<path d="M353.39,482.31A5,5 0 1 1 343.39,482.31A5,5 0 1 1 353.39,482.31Z" style="fill:#FF7AB4" />
<path d="M357.23,543.49A5,5 0 1 1 347.23,543.49A5,5 0 1 1 357.23,543.49Z" style="fill:#FF7AB4" />
<path d="M361.08,522.51A5,5 0 1 1 351.08,522.51A5,5 0 1 1 361.08,522.51Z" style="fill:#FF7AB4" />
<path d="M364.92,391.81A5,5 0 1 1 354.92,391.81A5,5 0 1 1 364.92,391.81Z" style="fill:#FF7AB4" />
<path d="M368.77,339.31A5,5 0 1 1 358.77,339.31A5,5 0 1 1 368.77,339.31Z" style="fill:#FF7AB4" />
<path d="M372.62,356.72A5,5 0 1 1 362.62,356.72A5,5 0 1 1 372.62,356.72Z" style="fill:#FF7AB4" />
<path d="M376.46,403.92A5,5 0 1 1 366.46,403.92A5,5 0 1 1 376.46,403.92Z" style="fill:#FF7AB4" />
<path d="M380.31,579.84A5,5 0 1 1 370.31,579.84A5,5 0 1 1 380.31,579.84Z" style="fill:#FF7AB4" />
<path d="M384.16,564.07A5,5 0 1 1 374.16,564.07A5,5 0 1 1 384.16,564.07Z" style="fill:#FF7AB4" />
<path d="M388,527.82A5,5 0 1 1 378,527.82A5,5 0 1 1 388,527.82Z" style="fill:#FF7AB4" />
<path d="M391.85,768.28A5,5 0 1 1 381.85,768.28A5,5 0 1 1 391.85,768.28Z" style="fill:#FF7AB4" />
<path d="M395.69,574.78A5,5 0 1 1 385.69,574.78A5,5 0 1 1 395.69,574.78Z" style="fill:#FF7AB4" />
<path d="M399.54,655.49A5,5 0 1 1 389.54,655.49A5,5 0 1 1 399.54,655.49Z" style="fill:#FF7AB4" />
<path d="M403.39,639.26A5,5 0 1 1 393.39,639.26A5,5 0 1 1 403.39,639.26Z" style="fill:#FF7AB4" />
<path d="M407.23,591.02A5,5 0 1 1 397.23,591.02A5,5 0 1 1 407.23,591.02Z" style="fill:#FF7AB4" />
<path d="M411.08,665.04A5,5 0 1 1 401.08,665.04A5,5 0 1 1 411.08,665.04Z" style="fill:#FF7AB4" />
<path d="M414.92,714.63A5,5 0 1 1 404.92,714.63A5,5 0 1 1 414.92,714.63Z" style="fill:#FF7AB4" />
<path d="M418.77,541.04A5,5 0 1 1 408.77,541.04A5,5 0 1 1 418.77,541.04Z" style="fill:#FF7AB4" />
<path d="M422.62,445.48A5,5 0 1 1 412.62,445.48A5,5 0 1 1 422.62,445.48Z" style="fill:#FF7AB4" />
<path d="M426.46,495.7A5,5 0 1 1 416.46,495.7A5,5 0 1 1 426.46,495.7Z" style="fill:#FF7AB4" />
<path d="M430.31,542.67A5,5 0 1 1 420.31,542.67A5,5 0 1 1 430.31,542.67Z" style="fill:#FF7AB4" />
<path d="M434.16,590.44A5,5 0 1 1 424.16,590.44A5,5 0 1 1 434.16,590.44Z" style="fill:#FF7AB4" />
<path d="M438,452.57A5,5 0 1 1 428,452.57A5,5 0 1 1 438,452.57Z" style="fill:#FF7AB4" />
<path d="M441.85,455.2A5,5 0 1 1 431.85,455.2A5,5 0 1 1 441.85,455.2Z" style="fill:#FF7AB4" />
<path d="M445.69,414.42A5,5 0 1 1 435.69,414.42A5,5 0 1 1 445.69,414.42Z" style="fill:#FF7AB4" />
<path d="M449.54,294.89A5,5 0 1 1 439.54,294.89A5,5 0 1 1 449.54,294.89Z" style="fill:#FF7AB4" />
<path d="M453.39,563.53A5,5 0 1 1 443.39,563.53A5,5 0 1 1 453.39,563.53Z" style="fill:#FF7AB4" />
<path d="M457.23,546.59A5,5 0 1 1 447.23,546.59A5,5 0 1 1 457.23,546.59Z" style="fill:#FF7AB4" />
<path d="M461.08,359.42A5,5 0 1 1 451.08,359.42A5,5 0 1 1 461.08,359.42Z" style="fill:#FF7AB4" />
<path d="M464.93,257.63A5,5 0 1 1 454.93,257.63A5,5 0 1 1 464.93,257.63Z" style="fill:#FF7AB4" />
<path d="M468.77,298.48A5,5 0 1 1 458.77,298.48A5,5 0 1 1 468.77,298.48Z" style="fill:#FF7AB4" />
<path d="M472.62,351.54A5,5 0 1 1 462.62,351.54A5,5 0 1 1 472.62,351.54Z" style="fill:#FF7AB4" />
<path d="M476.46,322.3A5,5 0 1 1 466.46,322.3A5,5 0 1 1 476.46,322.3Z" style="fill:#FF7AB4" />
<path d="M480.31,262.64A5,5 0 1 1 470.31,262.64A5,5 0 1 1 480.31,262.64Z" style="fill:#FF7AB4" />
<path d="M484.16,318.66A5,5 0 1 1 474.16,318.66A5,5 0 1 1 484.16,318.66Z" style="fill:#FF7AB4" />
<path d="M488,283.11A5,5 0 1 1 478,283.11A5,5 0 1 1 488,283.11Z" style="fill:#FF7AB4" />
<path d="M491.85,349.74A5,5 0 1 1 481.85,349.74A5,5 0 1 1 491.85,349.74Z" style="fill:#FF7AB4" />
<path d="M495.69,397.12A5,5 0 1 1 485.69,397.12A5,5 0 1 1 495.69,397.12Z" style="fill:#FF7AB4" />
<path d="M499.54,435.98A5,5 0 1 1 489.54,435.98A5,5 0 1 1 499.54,435.98Z" style="fill:#FF7AB4" />
<path d="M503.39,456.46A5,5 0 1 1 493.39,456.46A5,5 0 1 1 503.39,456.46Z" style="fill:#FF7AB4" />
<path d="M507.23,364.92A5,5 0 1 1 497.23,364.92A5,5 0 1 1 507.23,364.92Z" style="fill:#FF7AB4" />
<path d="M511.08,334.82A5,5 0 1 1 501.08,334.82A5,5 0 1 1 511.08,334.82Z" style="fill:#FF7AB4" />
<path d="M514.93,348.18A5,5 0 1 1 504.93,348.18A5,5 0 1 1 514.93,348.18Z" style="fill:#FF7AB4" />
<path d="M518.77,383.06A5,5 0 1 1 508.77,383.06A5,5 0 1 1 518.77,383.06Z" style="fill:#FF7AB4" />
<path d="M522.62,361.57A5,5 0 1 1 512.62,361.57A5,5 0 1 1 522.62,361.57Z" style="fill:#FF7AB4" />
<path d="M526.46,307A5,5 0 1 1 516.46,307A5,5 0 1 1 526.46,307Z" style="fill:#FF7AB4" />
<path d="M530.31,252.69A5,5 0 1 1 520.31,252.69A5,5 0 1 1 530.31,252.69Z" style="fill:#FF7AB4" />
<path d="M534.16,298.55A5,5 0 1 1 524.16,298.55A5,5 0 1 1 534.16,298.55Z" style="fill:#FF7AB4" />
<path d="M538,345.14A5,5 0 1 1 528,345.14A5,5 0 1 1 538,345.14Z" style="fill:#FF7AB4" />
<path d="M541.85,333.29A5,5 0 1 1 531.85,333.29A5,5 0 1 1 541.85,333.29Z" style="fill:#FF7AB4" />
<path d="M545.7,369.96A5,5 0 1 1 535.7,369.96A5,5 0 1 1 545.7,369.96Z" style="fill:#FF7AB4" />
<path d="M549.54,345.67A5,5 0 1 1 539.54,345.67A5,5 0 1 1 549.54,345.67Z" style="fill:#FF7AB4" />
<path d="M553.39,428.57A5,5 0 1 1 543.39,428.57A5,5 0 1 1 553.39,428.57Z" style="fill:#FF7AB4" />
<path d="M557.23,259.76A5,5 0 1 1 547.23,259.76A5,5 0 1 1 557.23,259.76Z" style="fill:#FF7AB4" />
<path d="M561.08,264.15A5,5 0 1 1 551.08,264.15A5,5 0 1 1 561.08,264.15Z" style="fill:#FF7AB4" />
<path d="M564.93,284.04A5,5 0 1 1 554.93,284.04A5,5 0 1 1 564.93,284.04Z" style="fill:#FF7AB4" />
<path d="M568.77,302.37A5,5 0 1 1 558.77,302.37A5,5 0 1 1 568.77,302.37Z" style="fill:#FF7AB4" />
<path d="M572.62,302.95A5,5 0 1 1 562.62,302.95A5,5 0 1 1 572.62,302.95Z" style="fill:#FF7AB4" />
<path d="M576.46,282.99A5,5 0 1 1 566.46,282.99A5,5 0 1 1 576.46,282.99Z" style="fill:#FF7AB4" />
<path d="M580.31,327.61A5,5 0 1 1 570.31,327.61A5,5 0 1 1 580.31,327.61Z" style="fill:#FF7AB4" />
<path d="M584.16,359.61A5,5 0 1 1 574.16,359.61A5,5 0 1 1 584.16,359.61Z" style="fill:#FF7AB4" />
<path d="M588,273.36A5,5 0 1 1 578,273.36A5,5 0 1 1 588,273.36Z" style="fill:#FF7AB4" />
<path d="M591.85,244.69A5,5 0 1 1 581.85,244.69A5,5 0 1 1 591.85,244.69Z" style="fill:#FF7AB4" />
<path d="M595.7,381.38A5,5 0 1 1 585.7,381.38A5,5 0 1 1 595.7,381.38Z" style="fill:#FF7AB4" />
<path d="M599.54,341.55A5,5 0 1 1 589.54,341.55A5,5 0 1 1 599.54,341.55Z" style="fill:#FF7AB4" />
<path d="M603.39,377.69A5,5 0 1 1 593.39,377.69A5,5 0 1 1 603.39,377.69Z" style="fill:#FF7AB4" />
<path d="M607.23,381.61A5,5 0 1 1 597.23,381.61A5,5 0 1 1 607.23,381.61Z" style="fill:#FF7AB4" />
<path d="M611.08,339.66A5,5 0 1 1 601.08,339.66A5,5 0 1 1 611.08,339.66Z" style="fill:#FF7AB4" />
<path d="M614.93,410.22A5,5 0 1 1 604.93,410.22A5,5 0 1 1 614.93,410.22Z" style="fill:#FF7AB4" />
<path d="M618.77,356.65A5,5 0 1 1 608.77,356.65A5,5 0 1 1 618.77,356.65Z" style="fill:#FF7AB4" />
<path d="M622.62,276.13A5,5 0 1 1 612.62,276.13A5,5 0 1 1 622.62,276.13Z" style="fill:#FF7AB4" />
<path d="M626.47,254.22A5,5 0 1 1 616.47,254.22A5,5 0 1 1 626.47,254.22Z" style="fill:#FF7AB4" />
<path d="M630.31,336.78A5,5 0 1 1 620.31,336.78A5,5 0 1 1 630.31,336.78Z" style="fill:#FF7AB4" />
<path d="M634.16,383.4A5,5 0 1 1 624.16,383.4A5,5 0 1 1 634.16,383.4Z" style="fill:#FF7AB4" />
<path d="M638,321.19A5,5 0 1 1 628,321.19A5,5 0 1 1 638,321.19Z" style="fill:#FF7AB4" />
<path d="M641.85,336.11A5,5 0 1 1 631.85,336.11A5,5 0 1 1 641.85,336.11Z" style="fill:#FF7AB4" />
<path d="M645.7,270.77A5,5 0 1 1 635.7,270.77A5,5 0 1 1 645.7,270.77Z" style="fill:#FF7AB4" />
<path d="M649.54,311A5,5 0 1 1 639.54,311A5,5 0 1 1 649.54,311Z" style="fill:#FF7AB4" />
<path d="M653.39,284.74A5,5 0 1 1 643.39,284.74A5,5 0 1 1 653.39,284.74Z" style="fill:#FF7AB4" />
<path d="M657.24,393.04A5,5 0 1 1 647.24,393.04A5,5 0 1 1 657.24,393.04Z" style="fill:#FF7AB4" />
<path d="M661.08,313.01A5,5 0 1 1 651.08,313.01A5,5 0 1 1 661.08,313.01Z" style="fill:#FF7AB4" />
<path d="M664.93,349.79A5,5 0 1 1 654.93,349.79A5,5 0 1 1 664.93,349.79Z" style="fill:#FF7AB4" />
<path d="M668.77,323.29A5,5 0 1 1 658.77,323.29A5,5 0 1 1 668.77,323.29Z" style="fill:#FF7AB4" />
<path d="M672.62,263.06A5,5 0 1 1 662.62,263.06A5,5 0 1 1 672.62,263.06Z" style="fill:#FF7AB4" />
<path d="M676.47,321.13A5,5 0 1 1 666.47,321.13A5,5 0 1 1 676.47,321.13Z" style="fill:#FF7AB4" />
<path d="M680.31,331.94A5,5 0 1 1 670.31,331.94A5,5 0 1 1 680.31,331.94Z" style="fill:#FF7AB4" />
<path d="M684.16,325.38A5,5 0 1 1 674.16,325.38A5,5 0 1 1 684.16,325.38Z" style="fill:#FF7AB4" />
<path d="M688,326.25A5,5 0 1 1 678,326.25A5,5 0 1 1 688,326.25Z" style="fill:#FF7AB4" />
<path d="M691.85,291.96A5,5 0 1 1 681.85,291.96A5,5 0 1 1 691.85,291.96Z" style="fill:#FF7AB4" />
<path d="M695.7,328.09A5,5 0 1 1 685.7,328.09A5,5 0 1 1 695.7,328.09Z" style="fill:#FF7AB4" />
<path d="M699.54,271.79A5,5 0 1 1 689.54,271.79A5,5 0 1 1 699.54,271.79Z" style="fill:#FF7AB4" />
<path d="M703.39,309.69A5,5 0 1 1 693.39,309.69A5,5 0 1 1 703.39,309.69Z" style="fill:#FF7AB4" />
<path d="M707.24,380.23A5,5 0 1 1 697.24,380.23A5,5 0 1 1 707.24,380.23Z" style="fill:#FF7AB4" />
<path d="M711.08,308.33A5,5 0 1 1 701.08,308.33A5,5 0 1 1 711.08,308.33Z" style="fill:#FF7AB4" />
<path d="M714.93,211.23A5,5 0 1 1 704.93,211.23A5,5 0 1 1 714.93,211.23Z" style="fill:#FF7AB4" />
<path d="M718.77,251.2A5,5 0 1 1 708.77,251.2A5,5 0 1 1 718.77,251.2Z" style="fill:#FF7AB4" />
<path d="M722.62,318.91A5,5 0 1 1 712.62,318.91A5,5 0 1 1 722.62,318.91Z" style="fill:#FF7AB4" />
<path d="M726.47,385.97A5,5 0 1 1 716.47,385.97A5,5 0 1 1 726.47,385.97Z" style="fill:#FF7AB4" />
<path d="M730.31,262.93A5,5 0 1 1 720.31,262.93A5,5 0 1 1 730.31,262.93Z" style="fill:#FF7AB4" />
<path d="M734.16,304.55A5,5 0 1 1 724.16,304.55A5,5 0 1 1 734.16,304.55Z" style="fill:#FF7AB4" />
<path d="M738.01,373.35A5,5 0 1 1 728.01,373.35A5,5 0 1 1 738.01,373.35Z" style="fill:#FF7AB4" />
<path d="M741.85,302.54A5,5 0 1 1 731.85,302.54A5,5 0 1 1 741.85,302.54Z" style="fill:#FF7AB4" />
<path d="M745.7,271.68A5,5 0 1 1 735.7,271.68A5,5 0 1 1 745.7,271.68Z" style="fill:#FF7AB4" />
<path d="M749.54,248.27A5,5 0 1 1 739.54,248.27A5,5 0 1 1 749.54,248.27Z" style="fill:#FF7AB4" />
<path d="M753.39,285.76A5,5 0 1 1 743.39,285.76A5,5 0 1 1 753.39,285.76Z" style="fill:#FF7AB4" />
<path d="M757.24,240.46A5,5 0 1 1 747.24,240.46A5,5 0 1 1 757.24,240.46Z" style="fill:#FF7AB4" />
<path d="M761.08,267.56A5,5 0 1 1 751.08,267.56A5,5 0 1 1 761.08,267.56Z" style="fill:#FF7AB4" />
<path d="M764.93,347.21A5,5 0 1 1 754.93,347.21A5,5 0 1 1 764.93,347.21Z" style="fill:#FF7AB4" />
<path d="M768.77,270.03A5,5 0 1 1 758.77,270.03A5,5 0 1 1 768.77,270.03Z" style="fill:#FF7AB4" />
<path d="M772.62,235.25A5,5 0 1 1 762.62,235.25A5,5 0 1 1 772.62,235.25Z" style="fill:#FF7AB4" />
<path d="M776.47,309.26A5,5 0 1 1 766.47,309.26A5,5 0 1 1 776.47,309.26Z" style="fill:#FF7AB4" />
<path d="M780.31,286.08A5,5 0 1 1 770.31,286.08A5,5 0 1 1 780.31,286.08Z" style="fill:#FF7AB4" />
<path d="M784.16,303.04A5,5 0 1 1 774.16,303.04A5,5 0 1 1 784.16,303.04Z" style="fill:#FF7AB4" />
<path d="M788.01,274.55A5,5 0 1 1 778.01,274.55A5,5 0 1 1 788.01,274.55Z" style="fill:#FF7AB4" />
<path d="M791.85,274.75A5,5 0 1 1 781.85,274.75A5,5 0 1 1 791.85,274.75Z" style="fill:#FF7AB4" />
<path d="M795.7,266.98A5,5 0 1 1 785.7,266.98A5,5 0 1 1 795.7,266.98Z" style="fill:#FF7AB4" />
<path d="M799.54,284.66A5,5 0 1 1 789.54,284.66A5,5 0 1 1 799.54,284.66Z" style="fill:#FF7AB4" />
<path d="M803.39,275.09A5,5 0 1 1 793.39,275.09A5,5 0 1 1 803.39,275.09Z" style="fill:#FF7AB4" />
<path d="M807.24,239.3A5,5 0 1 1 797.24,239.3A5,5 0 1 1 807.24,239.3Z" style="fill:#FF7AB4" />
<path d="M811.08,213.33A5,5 0 1 1 801.08,213.33A5,5 0 1 1 811.08,213.33Z" style="fill:#FF7AB4" />
<path d="M814.93,268.55A5,5 0 1 1 804.93,268.55A5,5 0 1 1 814.93,268.55Z" style="fill:#FF7AB4" />
<path d="M818.78,216A5,5 0 1 1 808.78,216A5,5 0 1 1 818.78,216Z" style="fill:#FF7AB4" />
<path d="M822.62,197.7A5,5 0 1 1 812.62,197.7A5,5 0 1 1 822.62,197.7Z" style="fill:#FF7AB4" />
<path d="M826.47,224.43A5,5 0 1 1 816.47,224.43A5,5 0 1 1 826.47,224.43Z" style="fill:#FF7AB4" />
<path d="M830.31,190.37A5,5 0 1 1 820.31,190.37A5,5 0 1 1 830.31,190.37Z" style="fill:#FF7AB4" />
<path d="M834.16,220.68A5,5 0 1 1 824.16,220.68A5,5 0 1 1 834.16,220.68Z" style="fill:#FF7AB4" />
<path d="M838.01,197.6A5,5 0 1 1 828.01,197.6A5,5 0 1 1 838.01,197.6Z" style="fill:#FF7AB4" />
<path d="M841.85,231.31A5,5 0 1 1 831.85,231.31A5,5 0 1 1 841.85,231.31Z" style="fill:#FF7AB4" />
<path d="M845.7,206.1A5,5 0 1 1 835.7,206.1A5,5 0 1 1 845.7,206.1Z" style="fill:#FF7AB4" />
<path d="M849.55,202.76A5,5 0 1 1 839.55,202.76A5,5 0 1 1 849.55,202.76Z" style="fill:#FF7AB4" />
<path d="M853.39,198.13A5,5 0 1 1 843.39,198.13A5,5 0 1 1 853.39,198.13Z" style="fill:#FF7AB4" />
<path d="M857.24,247.27A5,5 0 1 1 847.24,247.27A5,5 0 1 1 857.24,247.27Z" style="fill:#FF7AB4" />
<path d="M861.08,206.49A5,5 0 1 1 851.08,206.49A5,5 0 1 1 861.08,206.49Z" style="fill:#FF7AB4" />
<path d="M864.93,187.39A5,5 0 1 1 854.93,187.39A5,5 0 1 1 864.93,187.39Z" style="fill:#FF7AB4" />
<path d="M868.78,178.24A5,5 0 1 1 858.78,178.24A5,5 0 1 1 868.78,178.24Z" style="fill:#FF7AB4" />
<path d="M872.62,233.22A5,5 0 1 1 862.62,233.22A5,5 0 1 1 872.62,233.22Z" style="fill:#FF7AB4" />
<path d="M876.47,236.95A5,5 0 1 1 866.47,236.95A5,5 0 1 1 876.47,236.95Z" style="fill:#FF7AB4" />
<path d="M880.31,229.5A5,5 0 1 1 870.31,229.5A5,5 0 1 1 880.31,229.5Z" style="fill:#FF7AB4" />
<path d="M884.16,227.91A5,5 0 1 1 874.16,227.91A5,5 0 1 1 884.16,227.91Z" style="fill:#FF7AB4" />
<path d="M888.01,246.48A5,5 0 1 1 878.01,246.48A5,5 0 1 1 888.01,246.48Z" style="fill:#FF7AB4" />
<path d="M891.85,232.58A5,5 0 1 1 881.85,232.58A5,5 0 1 1 891.85,232.58Z" style="fill:#FF7AB4" />
<path d="M895.7,203.2A5,5 0 1 1 885.7,203.2A5,5 0 1 1 895.7,203.2Z" style="fill:#FF7AB4" />
<path d="M899.55,218.3A5,5 0 1 1 889.55,218.3A5,5 0 1 1 899.55,218.3Z" style="fill:#FF7AB4" />
<path d="M903.39,236.1A5,5 0 1 1 893.39,236.1A5,5 0 1 1 903.39,236.1Z" style="fill:#FF7AB4" />
<path d="M907.24,222.04A5,5 0 1 1 897.24,222.04A5,5 0 1 1 907.24,222.04Z" style="fill:#FF7AB4" />
<path d="M911.08,254.03A5,5 0 1 1 901.08,254.03A5,5 0 1 1 911.08,254.03Z" style="fill:#FF7AB4" />
<path d="M914.93,242.97A5,5 0 1 1 904.93,242.97A5,5 0 1 1 914.93,242.97Z" style="fill:#FF7AB4" />
<path d="M918.78,244.71A5,5 0 1 1 908.78,244.71A5,5 0 1 1 918.78,244.71Z" style="fill:#FF7AB4" />
<path d="M922.62,232.71A5,5 0 1 1 912.62,232.71A5,5 0 1 1 922.62,232.71Z" style="fill:#FF7AB4" />
<path d="M926.47,178.79A5,5 0 1 1 916.47,178.79A5,5 0 1 1 926.47,178.79Z" style="fill:#FF7AB4" />
<path d="M930.32,239.79A5,5 0 1 1 920.32,239.79A5,5 0 1 1 930.32,239.79Z" style="fill:#FF7AB4" />
<path d="M934.16,231.34A5,5 0 1 1 924.16,231.34A5,5 0 1 1 934.16,231.34Z" style="fill:#FF7AB4" />
<path d="M938.01,225.44A5,5 0 1 1 928.01,225.44A5,5 0 1 1 938.01,225.44Z" style="fill:#FF7AB4" />
<path d="M941.85,242.02A5,5 0 1 1 931.85,242.02A5,5 0 1 1 941.85,242.02Z" style="fill:#FF7AB4" />
<path d="M945.7,252.51A5,5 0 1 1 935.7,252.51A5,5 0 1 1 945.7,252.51Z" style="fill:#FF7AB4" />
<path d="M949.55,230.5A5,5 0 1 1 939.55,230.5A5,5 0 1 1 949.55,230.5Z" style="fill:#FF7AB4" />
<path d="M953.39,216.75A5,5 0 1 1 943.39,216.75A5,5 0 1 1 953.39,216.75Z" style="fill:#FF7AB4" />
<path d="M957.24,198.11A5,5 0 1 1 947.24,198.11A5,5 0 1 1 957.24,198.11Z" style="fill:#FF7AB4" />
<path d="M961.08,238.19A5,5 0 1 1 951.08,238.19A5,5 0 1 1 961.08,238.19Z" style="fill:#FF7AB4" />
<path d="M964.93,225.84A5,5 0 1 1 954.93,225.84A5,5 0 1 1 964.93,225.84Z" style="fill:#FF7AB4" />
<path d="M968.78,199.86A5,5 0 1 1 958.78,199.86A5,5 0 1 1 968.78,199.86Z" style="fill:#FF7AB4" />
<path d="M972.62,215.65A5,5 0 1 1 962.62,215.65A5,5 0 1 1 972.62,215.65Z" style="fill:#FF7AB4" />
<path d="M976.47,237.9A5,5 0 1 1 966.47,237.9A5,5 0 1 1 976.47,237.9Z" style="fill:#FF7AB4" />
<path d="M980.32,194.94A5,5 0 1 1 970.32,194.94A5,5 0 1 1 980.32,194.94Z" style="fill:#FF7AB4" />
<path d="M984.16,218.69A5,5 0 1 1 974.16,218.69A5,5 0 1 1 984.16,218.69Z" style="fill:#FF7AB4" />
<path d="M988.01,210.49A5,5 0 1 1 978.01,210.49A5,5 0 1 1 988.01,210.49Z" style="fill:#FF7AB4" />
<path d="M991.85,277.31A5,5 0 1 1 981.85,277.31A5,5 0 1 1 991.85,277.31Z" style="fill:#FF7AB4" />
<path d="M995.7,233.19A5,5 0 1 1 985.7,233.19A5,5 0 1 1 995.7,233.19Z" style="fill:#FF7AB4" />
<path d="M999.55,219.96A5,5 0 1 1 989.55,219.96A5,5 0 1 1 999.55,219.96Z" style="fill:#FF7AB4" />
<path d="M1003.4,212.54A5,5 0 1 1 993.39,212.54A5,5 0 1 1 1003.4,212.54Z" style="fill:#FF7AB4" />
<path d="M1007.2,243.67A5,5 0 1 1 997.24,243.67A5,5 0 1 1 1007.2,243.67Z" style="fill:#FF7AB4" />
<path d="M1011.1,211.5A5,5 0 1 1 1001.1,211.5A5,5 0 1 1 1011.1,211.5Z" style="fill:#FF7AB4" />
<path d="M1014.9,214.7A5,5 0 1 1 1004.9,214.7A5,5 0 1 1 1014.9,214.7Z" style="fill:#FF7AB4" />
<path d="M252.23,910.62L1009.9,910.62" style="fill:none;stroke:#000000" />
<path d="M1009.9,178.24L1009.9,910.62" style="fill:none;stroke:#000000" />
<path d="M1038,852.33A8,8 0 1 1 1022,852.33A8,8 0 1 1 1038,852.33Z" style="fill:#FF7AB4" />
<text x="544.34" y="-839.14" transform="scale(1, -1)"
	style="font-family:Helvetica;font-weight:normal;font-style:normal;font-size:56px">Sample Removed</text>
</g>
</svg>
