<?xml version="1.0"?>
<!-- Generated by SVGo and Plotinum VG -->
<svg width="1080pt" height="1080pt" viewBox="0 0 1080 1080"
	xmlns="http://www.w3.org/2000/svg"
	xmlns:xlink="http://www.w3.org/1999/xlink">
<g transform="scale(1, -1) translate(0, -1080)">
<path d="M0,0L1080,0L1080,1080L0,1080Z" style="fill:#-8000000000000000-8000000000000000-8000000000000000;fill-opacity:0" />
<text x="319.11" y="-1039.5" transform="scale(1, -1)"
	style="font-family:Helvetica;font-weight:normal;font-style:normal;font-size:50px">1 cm UHNA3 CABS</text>
<text x="500.07" y="-11.039" transform="scale(1, -1)"
	style="font-family:Helvetica;font-weight:normal;font-style:normal;font-size:36px">Frequency (GHz)</text>
<text x="239.34" y="-71.258" transform="scale(1, -1)"
	style="font-family:Helvetica;font-weight:normal;font-style:normal;font-size:36px">9.03</text>
<text x="398.43" y="-71.258" transform="scale(1, -1)"
	style="font-family:Helvetica;font-weight:normal;font-style:normal;font-size:36px">9.07</text>
<text x="557.52" y="-71.258" transform="scale(1, -1)"
	style="font-family:Helvetica;font-weight:normal;font-style:normal;font-size:36px">9.12</text>
<text x="716.61" y="-71.258" transform="scale(1, -1)"
	style="font-family:Helvetica;font-weight:normal;font-style:normal;font-size:36px">9.18</text>
<text x="875.69" y="-71.258" transform="scale(1, -1)"
	style="font-family:Helvetica;font-weight:normal;font-style:normal;font-size:36px">9.22</text>
<path d="M274.38,116.44L274.38,108.44" style="fill:none;stroke:#000000;stroke-width:1.5" />
<path d="M353.92,112.44L353.92,108.44" style="fill:none;stroke:#000000;stroke-width:1.5" />
<path d="M433.46,116.44L433.46,108.44" style="fill:none;stroke:#000000;stroke-width:1.5" />
<path d="M513.01,112.44L513.01,108.44" style="fill:none;stroke:#000000;stroke-width:1.5" />
<path d="M592.55,116.44L592.55,108.44" style="fill:none;stroke:#000000;stroke-width:1.5" />
<path d="M672.1,112.44L672.1,108.44" style="fill:none;stroke:#000000;stroke-width:1.5" />
<path d="M751.64,116.44L751.64,108.44" style="fill:none;stroke:#000000;stroke-width:1.5" />
<path d="M831.18,112.44L831.18,108.44" style="fill:none;stroke:#000000;stroke-width:1.5" />
<path d="M910.73,116.44L910.73,108.44" style="fill:none;stroke:#000000;stroke-width:1.5" />
<path d="M990.27,112.44L990.27,108.44" style="fill:none;stroke:#000000;stroke-width:1.5" />
<path d="M201.21,108.44L1075,108.44" style="fill:none;stroke:#000000;stroke-width:1.5" />
<g transform="rotate(90)">
<text x="371.06" y="29.18" transform="scale(1, -1)"
	style="font-family:Helvetica;font-weight:normal;font-style:normal;font-size:36px">Spectral Density (μV)</text>
</g>
<text x="87.869" y="-207.91" transform="scale(1, -1)"
	style="font-family:Helvetica;font-weight:normal;font-style:normal;font-size:36px">28.82</text>
<text x="67.848" y="-424.24" transform="scale(1, -1)"
	style="font-family:Helvetica;font-weight:normal;font-style:normal;font-size:36px">101.87</text>
<text x="67.848" y="-640.57" transform="scale(1, -1)"
	style="font-family:Helvetica;font-weight:normal;font-style:normal;font-size:36px">174.92</text>
<text x="67.848" y="-856.9" transform="scale(1, -1)"
	style="font-family:Helvetica;font-weight:normal;font-style:normal;font-size:36px">247.97</text>
<path d="M199.96,108.82L195.96,108.82" style="fill:none;stroke:#000000;stroke-width:1.5" />
<path d="M203.96,216.98L195.96,216.98" style="fill:none;stroke:#000000;stroke-width:1.5" />
<path d="M199.96,325.15L195.96,325.15" style="fill:none;stroke:#000000;stroke-width:1.5" />
<path d="M203.96,433.31L195.96,433.31" style="fill:none;stroke:#000000;stroke-width:1.5" />
<path d="M199.96,541.48L195.96,541.48" style="fill:none;stroke:#000000;stroke-width:1.5" />
<path d="M203.96,649.64L195.96,649.64" style="fill:none;stroke:#000000;stroke-width:1.5" />
<path d="M199.96,757.81L195.96,757.81" style="fill:none;stroke:#000000;stroke-width:1.5" />
<path d="M203.96,865.98L195.96,865.98" style="fill:none;stroke:#000000;stroke-width:1.5" />
<path d="M199.96,974.14L195.96,974.14" style="fill:none;stroke:#000000;stroke-width:1.5" />
<path d="M199.96,974.14L195.96,974.14" style="fill:none;stroke:#000000;stroke-width:1.5" />
<path d="M195.96,108.82L195.96,974.14" style="fill:none;stroke:#000000;stroke-width:1.5" />
<path d="M201.21,194.71L201.21,195.55" style="fill:none;stroke:#3B1142" />
<path d="M198.71,194.71L203.71,194.71" style="fill:none;stroke:#3B1142" />
<path d="M198.71,195.55L203.71,195.55" style="fill:none;stroke:#3B1142" />
<path d="M207.59,196.4L207.59,197.64" style="fill:none;stroke:#3B1142" />
<path d="M205.09,196.4L210.09,196.4" style="fill:none;stroke:#3B1142" />
<path d="M205.09,197.64L210.09,197.64" style="fill:none;stroke:#3B1142" />
<path d="M213.97,198.21L213.97,198.62" style="fill:none;stroke:#3B1142" />
<path d="M211.47,198.21L216.47,198.21" style="fill:none;stroke:#3B1142" />
<path d="M211.47,198.62L216.47,198.62" style="fill:none;stroke:#3B1142" />
<path d="M220.34,199.87L220.34,200.99" style="fill:none;stroke:#3B1142" />
<path d="M217.84,199.87L222.84,199.87" style="fill:none;stroke:#3B1142" />
<path d="M217.84,200.99L222.84,200.99" style="fill:none;stroke:#3B1142" />
<path d="M226.72,202.28L226.72,202.6" style="fill:none;stroke:#3B1142" />
<path d="M224.22,202.28L229.22,202.28" style="fill:none;stroke:#3B1142" />
<path d="M224.22,202.6L229.22,202.6" style="fill:none;stroke:#3B1142" />
<path d="M233.1,202.84L233.1,204.95" style="fill:none;stroke:#3B1142" />
<path d="M230.6,202.84L235.6,202.84" style="fill:none;stroke:#3B1142" />
<path d="M230.6,204.95L235.6,204.95" style="fill:none;stroke:#3B1142" />
<path d="M239.48,205.67L239.48,207.34" style="fill:none;stroke:#3B1142" />
<path d="M236.98,205.67L241.98,205.67" style="fill:none;stroke:#3B1142" />
<path d="M236.98,207.34L241.98,207.34" style="fill:none;stroke:#3B1142" />
<path d="M245.86,207.67L245.86,209.77" style="fill:none;stroke:#3B1142" />
<path d="M243.36,207.67L248.36,207.67" style="fill:none;stroke:#3B1142" />
<path d="M243.36,209.77L248.36,209.77" style="fill:none;stroke:#3B1142" />
<path d="M252.23,210.1L252.23,212.39" style="fill:none;stroke:#3B1142" />
<path d="M249.73,210.1L254.73,210.1" style="fill:none;stroke:#3B1142" />
<path d="M249.73,212.39L254.73,212.39" style="fill:none;stroke:#3B1142" />
<path d="M258.61,212.53L258.61,214.9" style="fill:none;stroke:#3B1142" />
<path d="M256.11,212.53L261.11,212.53" style="fill:none;stroke:#3B1142" />
<path d="M256.11,214.9L261.11,214.9" style="fill:none;stroke:#3B1142" />
<path d="M264.99,214.99L264.99,216.59" style="fill:none;stroke:#3B1142" />
<path d="M262.49,214.99L267.49,214.99" style="fill:none;stroke:#3B1142" />
<path d="M262.49,216.59L267.49,216.59" style="fill:none;stroke:#3B1142" />
<path d="M271.37,218.5L271.37,218.91" style="fill:none;stroke:#3B1142" />
<path d="M268.87,218.5L273.87,218.5" style="fill:none;stroke:#3B1142" />
<path d="M268.87,218.91L273.87,218.91" style="fill:none;stroke:#3B1142" />
<path d="M277.75,221.53L277.75,221.89" style="fill:none;stroke:#3B1142" />
<path d="M275.25,221.53L280.25,221.53" style="fill:none;stroke:#3B1142" />
<path d="M275.25,221.89L280.25,221.89" style="fill:none;stroke:#3B1142" />
<path d="M284.12,223.96L284.12,224.77" style="fill:none;stroke:#3B1142" />
<path d="M281.62,223.96L286.62,223.96" style="fill:none;stroke:#3B1142" />
<path d="M281.62,224.77L286.62,224.77" style="fill:none;stroke:#3B1142" />
<path d="M290.5,225.84L290.5,226.56" style="fill:none;stroke:#3B1142" />
<path d="M288,225.84L293,225.84" style="fill:none;stroke:#3B1142" />
<path d="M288,226.56L293,226.56" style="fill:none;stroke:#3B1142" />
<path d="M296.88,228.49L296.88,229.78" style="fill:none;stroke:#3B1142" />
<path d="M294.38,228.49L299.38,228.49" style="fill:none;stroke:#3B1142" />
<path d="M294.38,229.78L299.38,229.78" style="fill:none;stroke:#3B1142" />
<path d="M303.26,231.13L303.26,232.25" style="fill:none;stroke:#3B1142" />
<path d="M300.76,231.13L305.76,231.13" style="fill:none;stroke:#3B1142" />
<path d="M300.76,232.25L305.76,232.25" style="fill:none;stroke:#3B1142" />
<path d="M309.64,233.67L309.64,235.63" style="fill:none;stroke:#3B1142" />
<path d="M307.14,233.67L312.14,233.67" style="fill:none;stroke:#3B1142" />
<path d="M307.14,235.63L312.14,235.63" style="fill:none;stroke:#3B1142" />
<path d="M316.01,237.17L316.01,238.79" style="fill:none;stroke:#3B1142" />
<path d="M313.51,237.17L318.51,237.17" style="fill:none;stroke:#3B1142" />
<path d="M313.51,238.79L318.51,238.79" style="fill:none;stroke:#3B1142" />
<path d="M322.39,239.86L322.39,242.46" style="fill:none;stroke:#3B1142" />
<path d="M319.89,239.86L324.89,239.86" style="fill:none;stroke:#3B1142" />
<path d="M319.89,242.46L324.89,242.46" style="fill:none;stroke:#3B1142" />
<path d="M328.77,244.35L328.77,245.88" style="fill:none;stroke:#3B1142" />
<path d="M326.27,244.35L331.27,244.35" style="fill:none;stroke:#3B1142" />
<path d="M326.27,245.88L331.27,245.88" style="fill:none;stroke:#3B1142" />
<path d="M335.15,247.69L335.15,249.52" style="fill:none;stroke:#3B1142" />
<path d="M332.65,247.69L337.65,247.69" style="fill:none;stroke:#3B1142" />
<path d="M332.65,249.52L337.65,249.52" style="fill:none;stroke:#3B1142" />
<path d="M341.53,251.41L341.53,254.28" style="fill:none;stroke:#3B1142" />
<path d="M339.03,251.41L344.03,251.41" style="fill:none;stroke:#3B1142" />
<path d="M339.03,254.28L344.03,254.28" style="fill:none;stroke:#3B1142" />
<path d="M347.9,253.93L347.9,256.14" style="fill:none;stroke:#3B1142" />
<path d="M345.4,253.93L350.4,253.93" style="fill:none;stroke:#3B1142" />
<path d="M345.4,256.14L350.4,256.14" style="fill:none;stroke:#3B1142" />
<path d="M354.28,260.06L354.28,261.49" style="fill:none;stroke:#3B1142" />
<path d="M351.78,260.06L356.78,260.06" style="fill:none;stroke:#3B1142" />
<path d="M351.78,261.49L356.78,261.49" style="fill:none;stroke:#3B1142" />
<path d="M360.66,264.22L360.66,266.21" style="fill:none;stroke:#3B1142" />
<path d="M358.16,264.22L363.16,264.22" style="fill:none;stroke:#3B1142" />
<path d="M358.16,266.21L363.16,266.21" style="fill:none;stroke:#3B1142" />
<path d="M367.04,268.75L367.04,271.07" style="fill:none;stroke:#3B1142" />
<path d="M364.54,268.75L369.54,268.75" style="fill:none;stroke:#3B1142" />
<path d="M364.54,271.07L369.54,271.07" style="fill:none;stroke:#3B1142" />
<path d="M373.42,271.99L373.42,274.98" style="fill:none;stroke:#3B1142" />
<path d="M370.92,271.99L375.92,271.99" style="fill:none;stroke:#3B1142" />
<path d="M370.92,274.98L375.92,274.98" style="fill:none;stroke:#3B1142" />
<path d="M379.79,276.94L379.79,278.85" style="fill:none;stroke:#3B1142" />
<path d="M377.29,276.94L382.29,276.94" style="fill:none;stroke:#3B1142" />
<path d="M377.29,278.85L382.29,278.85" style="fill:none;stroke:#3B1142" />
<path d="M386.17,282.12L386.17,284.2" style="fill:none;stroke:#3B1142" />
<path d="M383.67,282.12L388.67,282.12" style="fill:none;stroke:#3B1142" />
<path d="M383.67,284.2L388.67,284.2" style="fill:none;stroke:#3B1142" />
<path d="M392.55,285.47L392.55,287.79" style="fill:none;stroke:#3B1142" />
<path d="M390.05,285.47L395.05,285.47" style="fill:none;stroke:#3B1142" />
<path d="M390.05,287.79L395.05,287.79" style="fill:none;stroke:#3B1142" />
<path d="M398.93,290.19L398.93,292.43" style="fill:none;stroke:#3B1142" />
<path d="M396.43,290.19L401.43,290.19" style="fill:none;stroke:#3B1142" />
<path d="M396.43,292.43L401.43,292.43" style="fill:none;stroke:#3B1142" />
<path d="M405.31,295.33L405.31,297.09" style="fill:none;stroke:#3B1142" />
<path d="M402.81,295.33L407.81,295.33" style="fill:none;stroke:#3B1142" />
<path d="M402.81,297.09L407.81,297.09" style="fill:none;stroke:#3B1142" />
<path d="M411.68,304.4L411.68,307.07" style="fill:none;stroke:#3B1142" />
<path d="M409.18,304.4L414.18,304.4" style="fill:none;stroke:#3B1142" />
<path d="M409.18,307.07L414.18,307.07" style="fill:none;stroke:#3B1142" />
<path d="M418.06,308.35L418.06,310.93" style="fill:none;stroke:#3B1142" />
<path d="M415.56,308.35L420.56,308.35" style="fill:none;stroke:#3B1142" />
<path d="M415.56,310.93L420.56,310.93" style="fill:none;stroke:#3B1142" />
<path d="M424.44,315.41L424.44,318.23" style="fill:none;stroke:#3B1142" />
<path d="M421.94,315.41L426.94,315.41" style="fill:none;stroke:#3B1142" />
<path d="M421.94,318.23L426.94,318.23" style="fill:none;stroke:#3B1142" />
<path d="M430.82,322.75L430.82,325.77" style="fill:none;stroke:#3B1142" />
<path d="M428.32,322.75L433.32,322.75" style="fill:none;stroke:#3B1142" />
<path d="M428.32,325.77L433.32,325.77" style="fill:none;stroke:#3B1142" />
<path d="M437.2,326.69L437.2,332.12" style="fill:none;stroke:#3B1142" />
<path d="M434.7,326.69L439.7,326.69" style="fill:none;stroke:#3B1142" />
<path d="M434.7,332.12L439.7,332.12" style="fill:none;stroke:#3B1142" />
<path d="M443.57,334.07L443.57,339.19" style="fill:none;stroke:#3B1142" />
<path d="M441.07,334.07L446.07,334.07" style="fill:none;stroke:#3B1142" />
<path d="M441.07,339.19L446.07,339.19" style="fill:none;stroke:#3B1142" />
<path d="M449.95,341.99L449.95,346.41" style="fill:none;stroke:#3B1142" />
<path d="M447.45,341.99L452.45,341.99" style="fill:none;stroke:#3B1142" />
<path d="M447.45,346.41L452.45,346.41" style="fill:none;stroke:#3B1142" />
<path d="M456.33,353.22L456.33,357.81" style="fill:none;stroke:#3B1142" />
<path d="M453.83,353.22L458.83,353.22" style="fill:none;stroke:#3B1142" />
<path d="M453.83,357.81L458.83,357.81" style="fill:none;stroke:#3B1142" />
<path d="M462.71,361.45L462.71,364.7" style="fill:none;stroke:#3B1142" />
<path d="M460.21,361.45L465.21,361.45" style="fill:none;stroke:#3B1142" />
<path d="M460.21,364.7L465.21,364.7" style="fill:none;stroke:#3B1142" />
<path d="M469.09,370.58L469.09,373.59" style="fill:none;stroke:#3B1142" />
<path d="M466.59,370.58L471.59,370.58" style="fill:none;stroke:#3B1142" />
<path d="M466.59,373.59L471.59,373.59" style="fill:none;stroke:#3B1142" />
<path d="M475.46,378.35L475.46,382.18" style="fill:none;stroke:#3B1142" />
<path d="M472.96,378.35L477.96,378.35" style="fill:none;stroke:#3B1142" />
<path d="M472.96,382.18L477.96,382.18" style="fill:none;stroke:#3B1142" />
<path d="M481.84,385.86L481.84,390.89" style="fill:none;stroke:#3B1142" />
<path d="M479.34,385.86L484.34,385.86" style="fill:none;stroke:#3B1142" />
<path d="M479.34,390.89L484.34,390.89" style="fill:none;stroke:#3B1142" />
<path d="M488.22,401.02L488.22,404.09" style="fill:none;stroke:#3B1142" />
<path d="M485.72,401.02L490.72,401.02" style="fill:none;stroke:#3B1142" />
<path d="M485.72,404.09L490.72,404.09" style="fill:none;stroke:#3B1142" />
<path d="M494.6,412.28L494.6,415.5" style="fill:none;stroke:#3B1142" />
<path d="M492.1,412.28L497.1,412.28" style="fill:none;stroke:#3B1142" />
<path d="M492.1,415.5L497.1,415.5" style="fill:none;stroke:#3B1142" />
<path d="M500.98,422.53L500.98,427.04" style="fill:none;stroke:#3B1142" />
<path d="M498.48,422.53L503.48,422.53" style="fill:none;stroke:#3B1142" />
<path d="M498.48,427.04L503.48,427.04" style="fill:none;stroke:#3B1142" />
<path d="M507.35,433.03L507.35,437.83" style="fill:none;stroke:#3B1142" />
<path d="M504.85,433.03L509.85,433.03" style="fill:none;stroke:#3B1142" />
<path d="M504.85,437.83L509.85,437.83" style="fill:none;stroke:#3B1142" />
<path d="M513.73,446.58L513.73,450.93" style="fill:none;stroke:#3B1142" />
<path d="M511.23,446.58L516.23,446.58" style="fill:none;stroke:#3B1142" />
<path d="M511.23,450.93L516.23,450.93" style="fill:none;stroke:#3B1142" />
<path d="M520.11,460.96L520.11,464.99" style="fill:none;stroke:#3B1142" />
<path d="M517.61,460.96L522.61,460.96" style="fill:none;stroke:#3B1142" />
<path d="M517.61,464.99L522.61,464.99" style="fill:none;stroke:#3B1142" />
<path d="M526.49,476.15L526.49,479.03" style="fill:none;stroke:#3B1142" />
<path d="M523.99,476.15L528.99,476.15" style="fill:none;stroke:#3B1142" />
<path d="M523.99,479.03L528.99,479.03" style="fill:none;stroke:#3B1142" />
<path d="M532.87,492.03L532.87,494.97" style="fill:none;stroke:#3B1142" />
<path d="M530.37,492.03L535.37,492.03" style="fill:none;stroke:#3B1142" />
<path d="M530.37,494.97L535.37,494.97" style="fill:none;stroke:#3B1142" />
<path d="M539.24,501.16L539.24,506.61" style="fill:none;stroke:#3B1142" />
<path d="M536.74,501.16L541.74,501.16" style="fill:none;stroke:#3B1142" />
<path d="M536.74,506.61L541.74,506.61" style="fill:none;stroke:#3B1142" />
<path d="M545.62,517.25L545.62,523.42" style="fill:none;stroke:#3B1142" />
<path d="M543.12,517.25L548.12,517.25" style="fill:none;stroke:#3B1142" />
<path d="M543.12,523.42L548.12,523.42" style="fill:none;stroke:#3B1142" />
<path d="M552,534.61L552,543.71" style="fill:none;stroke:#3B1142" />
<path d="M549.5,534.61L554.5,534.61" style="fill:none;stroke:#3B1142" />
<path d="M549.5,543.71L554.5,543.71" style="fill:none;stroke:#3B1142" />
<path d="M558.38,556.77L558.38,562.84" style="fill:none;stroke:#3B1142" />
<path d="M555.88,556.77L560.88,556.77" style="fill:none;stroke:#3B1142" />
<path d="M555.88,562.84L560.88,562.84" style="fill:none;stroke:#3B1142" />
<path d="M564.76,578.74L564.76,587.34" style="fill:none;stroke:#3B1142" />
<path d="M562.26,578.74L567.26,578.74" style="fill:none;stroke:#3B1142" />
<path d="M562.26,587.34L567.26,587.34" style="fill:none;stroke:#3B1142" />
<path d="M571.14,599.59L571.14,603.53" style="fill:none;stroke:#3B1142" />
<path d="M568.64,599.59L573.64,599.59" style="fill:none;stroke:#3B1142" />
<path d="M568.64,603.53L573.64,603.53" style="fill:none;stroke:#3B1142" />
<path d="M577.51,622.41L577.51,626.81" style="fill:none;stroke:#3B1142" />
<path d="M575.01,622.41L580.01,622.41" style="fill:none;stroke:#3B1142" />
<path d="M575.01,626.81L580.01,626.81" style="fill:none;stroke:#3B1142" />
<path d="M583.89,637.63L583.89,641.69" style="fill:none;stroke:#3B1142" />
<path d="M581.39,637.63L586.39,637.63" style="fill:none;stroke:#3B1142" />
<path d="M581.39,641.69L586.39,641.69" style="fill:none;stroke:#3B1142" />
<path d="M590.27,658.55L590.27,665.14" style="fill:none;stroke:#3B1142" />
<path d="M587.77,658.55L592.77,658.55" style="fill:none;stroke:#3B1142" />
<path d="M587.77,665.14L592.77,665.14" style="fill:none;stroke:#3B1142" />
<path d="M596.65,683.59L596.65,691.21" style="fill:none;stroke:#3B1142" />
<path d="M594.15,683.59L599.15,683.59" style="fill:none;stroke:#3B1142" />
<path d="M594.15,691.21L599.15,691.21" style="fill:none;stroke:#3B1142" />
<path d="M603.03,701.4L603.03,708.08" style="fill:none;stroke:#3B1142" />
<path d="M600.53,701.4L605.53,701.4" style="fill:none;stroke:#3B1142" />
<path d="M600.53,708.08L605.53,708.08" style="fill:none;stroke:#3B1142" />
<path d="M609.4,716.3L609.4,722.68" style="fill:none;stroke:#3B1142" />
<path d="M606.9,716.3L611.9,716.3" style="fill:none;stroke:#3B1142" />
<path d="M606.9,722.68L611.9,722.68" style="fill:none;stroke:#3B1142" />
<path d="M615.78,742.48L615.78,746.61" style="fill:none;stroke:#3B1142" />
<path d="M613.28,742.48L618.28,742.48" style="fill:none;stroke:#3B1142" />
<path d="M613.28,746.61L618.28,746.61" style="fill:none;stroke:#3B1142" />
<path d="M622.16,756.55L622.16,763.37" style="fill:none;stroke:#3B1142" />
<path d="M619.66,756.55L624.66,756.55" style="fill:none;stroke:#3B1142" />
<path d="M619.66,763.37L624.66,763.37" style="fill:none;stroke:#3B1142" />
<path d="M628.54,773.5L628.54,787.32" style="fill:none;stroke:#3B1142" />
<path d="M626.04,773.5L631.04,773.5" style="fill:none;stroke:#3B1142" />
<path d="M626.04,787.32L631.04,787.32" style="fill:none;stroke:#3B1142" />
<path d="M634.92,786.26L634.92,794.04" style="fill:none;stroke:#3B1142" />
<path d="M632.42,786.26L637.42,786.26" style="fill:none;stroke:#3B1142" />
<path d="M632.42,794.04L637.42,794.04" style="fill:none;stroke:#3B1142" />
<path d="M641.29,799.48L641.29,807.89" style="fill:none;stroke:#3B1142" />
<path d="M638.79,799.48L643.79,799.48" style="fill:none;stroke:#3B1142" />
<path d="M638.79,807.89L643.79,807.89" style="fill:none;stroke:#3B1142" />
<path d="M647.67,799.47L647.67,804.99" style="fill:none;stroke:#3B1142" />
<path d="M645.17,799.47L650.17,799.47" style="fill:none;stroke:#3B1142" />
<path d="M645.17,804.99L650.17,804.99" style="fill:none;stroke:#3B1142" />
<path d="M654.05,798.63L654.05,806.3" style="fill:none;stroke:#3B1142" />
<path d="M651.55,798.63L656.55,798.63" style="fill:none;stroke:#3B1142" />
<path d="M651.55,806.3L656.55,806.3" style="fill:none;stroke:#3B1142" />
<path d="M660.43,783.01L660.43,794.08" style="fill:none;stroke:#3B1142" />
<path d="M657.93,783.01L662.93,783.01" style="fill:none;stroke:#3B1142" />
<path d="M657.93,794.08L662.93,794.08" style="fill:none;stroke:#3B1142" />
<path d="M666.81,766.56L666.81,782.6" style="fill:none;stroke:#3B1142" />
<path d="M664.31,766.56L669.31,766.56" style="fill:none;stroke:#3B1142" />
<path d="M664.31,782.6L669.31,782.6" style="fill:none;stroke:#3B1142" />
<path d="M673.18,745.17L673.18,761.26" style="fill:none;stroke:#3B1142" />
<path d="M670.68,745.17L675.68,745.17" style="fill:none;stroke:#3B1142" />
<path d="M670.68,761.26L675.68,761.26" style="fill:none;stroke:#3B1142" />
<path d="M679.56,711.95L679.56,732.7" style="fill:none;stroke:#3B1142" />
<path d="M677.06,711.95L682.06,711.95" style="fill:none;stroke:#3B1142" />
<path d="M677.06,732.7L682.06,732.7" style="fill:none;stroke:#3B1142" />
<path d="M685.94,684.74L685.94,701.31" style="fill:none;stroke:#3B1142" />
<path d="M683.44,684.74L688.44,684.74" style="fill:none;stroke:#3B1142" />
<path d="M683.44,701.31L688.44,701.31" style="fill:none;stroke:#3B1142" />
<path d="M692.32,641.25L692.32,662.56" style="fill:none;stroke:#3B1142" />
<path d="M689.82,641.25L694.82,641.25" style="fill:none;stroke:#3B1142" />
<path d="M689.82,662.56L694.82,662.56" style="fill:none;stroke:#3B1142" />
<path d="M698.7,602.42L698.7,623.82" style="fill:none;stroke:#3B1142" />
<path d="M696.2,602.42L701.2,602.42" style="fill:none;stroke:#3B1142" />
<path d="M696.2,623.82L701.2,623.82" style="fill:none;stroke:#3B1142" />
<path d="M705.07,559.43L705.07,578.68" style="fill:none;stroke:#3B1142" />
<path d="M702.57,559.43L707.57,559.43" style="fill:none;stroke:#3B1142" />
<path d="M702.57,578.68L707.57,578.68" style="fill:none;stroke:#3B1142" />
<path d="M711.45,515.34L711.45,534.73" style="fill:none;stroke:#3B1142" />
<path d="M708.95,515.34L713.95,515.34" style="fill:none;stroke:#3B1142" />
<path d="M708.95,534.73L713.95,534.73" style="fill:none;stroke:#3B1142" />
<path d="M717.83,480.8L717.83,496.09" style="fill:none;stroke:#3B1142" />
<path d="M715.33,480.8L720.33,480.8" style="fill:none;stroke:#3B1142" />
<path d="M715.33,496.09L720.33,496.09" style="fill:none;stroke:#3B1142" />
<path d="M724.21,437.43L724.21,455.27" style="fill:none;stroke:#3B1142" />
<path d="M721.71,437.43L726.71,437.43" style="fill:none;stroke:#3B1142" />
<path d="M721.71,455.27L726.71,455.27" style="fill:none;stroke:#3B1142" />
<path d="M730.59,393.29L730.59,413.9" style="fill:none;stroke:#3B1142" />
<path d="M728.09,393.29L733.09,393.29" style="fill:none;stroke:#3B1142" />
<path d="M728.09,413.9L733.09,413.9" style="fill:none;stroke:#3B1142" />
<path d="M736.96,358.63L736.96,373.77" style="fill:none;stroke:#3B1142" />
<path d="M734.46,358.63L739.46,358.63" style="fill:none;stroke:#3B1142" />
<path d="M734.46,373.77L739.46,373.77" style="fill:none;stroke:#3B1142" />
<path d="M743.34,320.3L743.34,338.2" style="fill:none;stroke:#3B1142" />
<path d="M740.84,320.3L745.84,320.3" style="fill:none;stroke:#3B1142" />
<path d="M740.84,338.2L745.84,338.2" style="fill:none;stroke:#3B1142" />
<path d="M749.72,288.85L749.72,303.64" style="fill:none;stroke:#3B1142" />
<path d="M747.22,288.85L752.22,288.85" style="fill:none;stroke:#3B1142" />
<path d="M747.22,303.64L752.22,303.64" style="fill:none;stroke:#3B1142" />
<path d="M756.1,258.74L756.1,274.05" style="fill:none;stroke:#3B1142" />
<path d="M753.6,258.74L758.6,258.74" style="fill:none;stroke:#3B1142" />
<path d="M753.6,274.05L758.6,274.05" style="fill:none;stroke:#3B1142" />
<path d="M762.48,228.44L762.48,244.38" style="fill:none;stroke:#3B1142" />
<path d="M759.98,228.44L764.98,228.44" style="fill:none;stroke:#3B1142" />
<path d="M759.98,244.38L764.98,244.38" style="fill:none;stroke:#3B1142" />
<path d="M768.85,204.86L768.85,218.86" style="fill:none;stroke:#3B1142" />
<path d="M766.35,204.86L771.35,204.86" style="fill:none;stroke:#3B1142" />
<path d="M766.35,218.86L771.35,218.86" style="fill:none;stroke:#3B1142" />
<path d="M775.23,181.38L775.23,195.55" style="fill:none;stroke:#3B1142" />
<path d="M772.73,181.38L777.73,181.38" style="fill:none;stroke:#3B1142" />
<path d="M772.73,195.55L777.73,195.55" style="fill:none;stroke:#3B1142" />
<path d="M781.61,162.13L781.61,174.01" style="fill:none;stroke:#3B1142" />
<path d="M779.11,162.13L784.11,162.13" style="fill:none;stroke:#3B1142" />
<path d="M779.11,174.01L784.11,174.01" style="fill:none;stroke:#3B1142" />
<path d="M787.99,145.39L787.99,156.32" style="fill:none;stroke:#3B1142" />
<path d="M785.49,145.39L790.49,145.39" style="fill:none;stroke:#3B1142" />
<path d="M785.49,156.32L790.49,156.32" style="fill:none;stroke:#3B1142" />
<path d="M794.37,134.09L794.37,143.43" style="fill:none;stroke:#3B1142" />
<path d="M791.87,134.09L796.87,134.09" style="fill:none;stroke:#3B1142" />
<path d="M791.87,143.43L796.87,143.43" style="fill:none;stroke:#3B1142" />
<path d="M800.74,134.06L800.74,137.97" style="fill:none;stroke:#3B1142" />
<path d="M798.24,134.06L803.24,134.06" style="fill:none;stroke:#3B1142" />
<path d="M798.24,137.97L803.24,137.97" style="fill:none;stroke:#3B1142" />
<path d="M807.12,141.85L807.12,147.29" style="fill:none;stroke:#3B1142" />
<path d="M804.62,141.85L809.62,141.85" style="fill:none;stroke:#3B1142" />
<path d="M804.62,147.29L809.62,147.29" style="fill:none;stroke:#3B1142" />
<path d="M813.5,151.83L813.5,157.97" style="fill:none;stroke:#3B1142" />
<path d="M811,151.83L816,151.83" style="fill:none;stroke:#3B1142" />
<path d="M811,157.97L816,157.97" style="fill:none;stroke:#3B1142" />
<path d="M819.88,160.5L819.88,165.63" style="fill:none;stroke:#3B1142" />
<path d="M817.38,160.5L822.38,160.5" style="fill:none;stroke:#3B1142" />
<path d="M817.38,165.63L822.38,165.63" style="fill:none;stroke:#3B1142" />
<path d="M826.26,167.41L826.26,171.44" style="fill:none;stroke:#3B1142" />
<path d="M823.76,167.41L828.76,167.41" style="fill:none;stroke:#3B1142" />
<path d="M823.76,171.44L828.76,171.44" style="fill:none;stroke:#3B1142" />
<path d="M832.63,173.29L832.63,176.63" style="fill:none;stroke:#3B1142" />
<path d="M830.13,173.29L835.13,173.29" style="fill:none;stroke:#3B1142" />
<path d="M830.13,176.63L835.13,176.63" style="fill:none;stroke:#3B1142" />
<path d="M839.01,176.79L839.01,180.14" style="fill:none;stroke:#3B1142" />
<path d="M836.51,176.79L841.51,176.79" style="fill:none;stroke:#3B1142" />
<path d="M836.51,180.14L841.51,180.14" style="fill:none;stroke:#3B1142" />
<path d="M845.39,181.96L845.39,183.98" style="fill:none;stroke:#3B1142" />
<path d="M842.89,181.96L847.89,181.96" style="fill:none;stroke:#3B1142" />
<path d="M842.89,183.98L847.89,183.98" style="fill:none;stroke:#3B1142" />
<path d="M851.77,183.27L851.77,186.16" style="fill:none;stroke:#3B1142" />
<path d="M849.27,183.27L854.27,183.27" style="fill:none;stroke:#3B1142" />
<path d="M849.27,186.16L854.27,186.16" style="fill:none;stroke:#3B1142" />
<path d="M858.15,184.49L858.15,186.58" style="fill:none;stroke:#3B1142" />
<path d="M855.65,184.49L860.65,184.49" style="fill:none;stroke:#3B1142" />
<path d="M855.65,186.58L860.65,186.58" style="fill:none;stroke:#3B1142" />
<path d="M864.52,186.15L864.52,189.53" style="fill:none;stroke:#3B1142" />
<path d="M862.02,186.15L867.02,186.15" style="fill:none;stroke:#3B1142" />
<path d="M862.02,189.53L867.02,189.53" style="fill:none;stroke:#3B1142" />
<path d="M870.9,188.91L870.9,191.12" style="fill:none;stroke:#3B1142" />
<path d="M868.4,188.91L873.4,188.91" style="fill:none;stroke:#3B1142" />
<path d="M868.4,191.12L873.4,191.12" style="fill:none;stroke:#3B1142" />
<path d="M877.28,188.53L877.28,191.38" style="fill:none;stroke:#3B1142" />
<path d="M874.78,188.53L879.78,188.53" style="fill:none;stroke:#3B1142" />
<path d="M874.78,191.38L879.78,191.38" style="fill:none;stroke:#3B1142" />
<path d="M883.66,189.51L883.66,191.99" style="fill:none;stroke:#3B1142" />
<path d="M881.16,189.51L886.16,189.51" style="fill:none;stroke:#3B1142" />
<path d="M881.16,191.99L886.16,191.99" style="fill:none;stroke:#3B1142" />
<path d="M890.04,188.65L890.04,190.58" style="fill:none;stroke:#3B1142" />
<path d="M887.54,188.65L892.54,188.65" style="fill:none;stroke:#3B1142" />
<path d="M887.54,190.58L892.54,190.58" style="fill:none;stroke:#3B1142" />
<path d="M896.41,188.47L896.41,189.82" style="fill:none;stroke:#3B1142" />
<path d="M893.91,188.47L898.91,188.47" style="fill:none;stroke:#3B1142" />
<path d="M893.91,189.82L898.91,189.82" style="fill:none;stroke:#3B1142" />
<path d="M902.79,187.53L902.79,189.65" style="fill:none;stroke:#3B1142" />
<path d="M900.29,187.53L905.29,187.53" style="fill:none;stroke:#3B1142" />
<path d="M900.29,189.65L905.29,189.65" style="fill:none;stroke:#3B1142" />
<path d="M909.17,186.71L909.17,188.58" style="fill:none;stroke:#3B1142" />
<path d="M906.67,186.71L911.67,186.71" style="fill:none;stroke:#3B1142" />
<path d="M906.67,188.58L911.67,188.58" style="fill:none;stroke:#3B1142" />
<path d="M915.55,186.41L915.55,187.49" style="fill:none;stroke:#3B1142" />
<path d="M913.05,186.41L918.05,186.41" style="fill:none;stroke:#3B1142" />
<path d="M913.05,187.49L918.05,187.49" style="fill:none;stroke:#3B1142" />
<path d="M921.93,184.99L921.93,186.09" style="fill:none;stroke:#3B1142" />
<path d="M919.43,184.99L924.43,184.99" style="fill:none;stroke:#3B1142" />
<path d="M919.43,186.09L924.43,186.09" style="fill:none;stroke:#3B1142" />
<path d="M928.31,183.96L928.31,185.31" style="fill:none;stroke:#3B1142" />
<path d="M925.81,183.96L930.81,183.96" style="fill:none;stroke:#3B1142" />
<path d="M925.81,185.31L930.81,185.31" style="fill:none;stroke:#3B1142" />
<path d="M934.68,182.86L934.68,183.78" style="fill:none;stroke:#3B1142" />
<path d="M932.18,182.86L937.18,182.86" style="fill:none;stroke:#3B1142" />
<path d="M932.18,183.78L937.18,183.78" style="fill:none;stroke:#3B1142" />
<path d="M941.06,180.23L941.06,182.07" style="fill:none;stroke:#3B1142" />
<path d="M938.56,180.23L943.56,180.23" style="fill:none;stroke:#3B1142" />
<path d="M938.56,182.07L943.56,182.07" style="fill:none;stroke:#3B1142" />
<path d="M947.44,179.4L947.44,181.48" style="fill:none;stroke:#3B1142" />
<path d="M944.94,179.4L949.94,179.4" style="fill:none;stroke:#3B1142" />
<path d="M944.94,181.48L949.94,181.48" style="fill:none;stroke:#3B1142" />
<path d="M953.82,178.42L953.82,179.8" style="fill:none;stroke:#3B1142" />
<path d="M951.32,178.42L956.32,178.42" style="fill:none;stroke:#3B1142" />
<path d="M951.32,179.8L956.32,179.8" style="fill:none;stroke:#3B1142" />
<path d="M960.2,176.59L960.2,179.01" style="fill:none;stroke:#3B1142" />
<path d="M957.7,176.59L962.7,176.59" style="fill:none;stroke:#3B1142" />
<path d="M957.7,179.01L962.7,179.01" style="fill:none;stroke:#3B1142" />
<path d="M966.57,176.42L966.57,178.22" style="fill:none;stroke:#3B1142" />
<path d="M964.07,176.42L969.07,176.42" style="fill:none;stroke:#3B1142" />
<path d="M964.07,178.22L969.07,178.22" style="fill:none;stroke:#3B1142" />
<path d="M972.95,174.8L972.95,176.79" style="fill:none;stroke:#3B1142" />
<path d="M970.45,174.8L975.45,174.8" style="fill:none;stroke:#3B1142" />
<path d="M970.45,176.79L975.45,176.79" style="fill:none;stroke:#3B1142" />
<path d="M979.33,173.41L979.33,176" style="fill:none;stroke:#3B1142" />
<path d="M976.83,173.41L981.83,173.41" style="fill:none;stroke:#3B1142" />
<path d="M976.83,176L981.83,176" style="fill:none;stroke:#3B1142" />
<path d="M985.71,173.72L985.71,174.98" style="fill:none;stroke:#3B1142" />
<path d="M983.21,173.72L988.21,173.72" style="fill:none;stroke:#3B1142" />
<path d="M983.21,174.98L988.21,174.98" style="fill:none;stroke:#3B1142" />
<path d="M992.09,173.09L992.09,173.54" style="fill:none;stroke:#3B1142" />
<path d="M989.59,173.09L994.59,173.09" style="fill:none;stroke:#3B1142" />
<path d="M989.59,173.54L994.59,173.54" style="fill:none;stroke:#3B1142" />
<path d="M998.46,170.75L998.46,171.71" style="fill:none;stroke:#3B1142" />
<path d="M995.96,170.75L1001,170.75" style="fill:none;stroke:#3B1142" />
<path d="M995.96,171.71L1001,171.71" style="fill:none;stroke:#3B1142" />
<path d="M1004.8,169.69L1004.8,170.03" style="fill:none;stroke:#3B1142" />
<path d="M1002.3,169.69L1007.3,169.69" style="fill:none;stroke:#3B1142" />
<path d="M1002.3,170.03L1007.3,170.03" style="fill:none;stroke:#3B1142" />
<path d="M1011.2,169.92L1011.2,170.33" style="fill:none;stroke:#3B1142" />
<path d="M1008.7,169.92L1013.7,169.92" style="fill:none;stroke:#3B1142" />
<path d="M1008.7,170.33L1013.7,170.33" style="fill:none;stroke:#3B1142" />
<path d="M1017.6,167.99L1017.6,168.94" style="fill:none;stroke:#3B1142" />
<path d="M1015.1,167.99L1020.1,167.99" style="fill:none;stroke:#3B1142" />
<path d="M1015.1,168.94L1020.1,168.94" style="fill:none;stroke:#3B1142" />
<path d="M1024,166.68L1024,168.14" style="fill:none;stroke:#3B1142" />
<path d="M1021.5,166.68L1026.5,166.68" style="fill:none;stroke:#3B1142" />
<path d="M1021.5,168.14L1026.5,168.14" style="fill:none;stroke:#3B1142" />
<path d="M1030.4,166.98L1030.4,167.79" style="fill:none;stroke:#3B1142" />
<path d="M1027.9,166.98L1032.9,166.98" style="fill:none;stroke:#3B1142" />
<path d="M1027.9,167.79L1032.9,167.79" style="fill:none;stroke:#3B1142" />
<path d="M1036.7,164.67L1036.7,165.62" style="fill:none;stroke:#3B1142" />
<path d="M1034.2,164.67L1039.2,164.67" style="fill:none;stroke:#3B1142" />
<path d="M1034.2,165.62L1039.2,165.62" style="fill:none;stroke:#3B1142" />
<path d="M1043.1,164L1043.1,165.01" style="fill:none;stroke:#3B1142" />
<path d="M1040.6,164L1045.6,164" style="fill:none;stroke:#3B1142" />
<path d="M1040.6,165.01L1045.6,165.01" style="fill:none;stroke:#3B1142" />
<path d="M1049.5,163.66L1049.5,164.24" style="fill:none;stroke:#3B1142" />
<path d="M1047,163.66L1052,163.66" style="fill:none;stroke:#3B1142" />
<path d="M1047,164.24L1052,164.24" style="fill:none;stroke:#3B1142" />
<path d="M1055.9,162.74L1055.9,163.71" style="fill:none;stroke:#3B1142" />
<path d="M1053.4,162.74L1058.4,162.74" style="fill:none;stroke:#3B1142" />
<path d="M1053.4,163.71L1058.4,163.71" style="fill:none;stroke:#3B1142" />
<path d="M1062.2,162.45L1062.2,163.07" style="fill:none;stroke:#3B1142" />
<path d="M1059.7,162.45L1064.7,162.45" style="fill:none;stroke:#3B1142" />
<path d="M1059.7,163.07L1064.7,163.07" style="fill:none;stroke:#3B1142" />
<path d="M1068.6,161.47L1068.6,162.18" style="fill:none;stroke:#3B1142" />
<path d="M1066.1,161.47L1071.1,161.47" style="fill:none;stroke:#3B1142" />
<path d="M1066.1,162.18L1071.1,162.18" style="fill:none;stroke:#3B1142" />
<path d="M1075,161.66L1075,162.26" style="fill:none;stroke:#3B1142" />
<path d="M1072.5,161.66L1077.5,161.66" style="fill:none;stroke:#3B1142" />
<path d="M1072.5,162.26L1077.5,162.26" style="fill:none;stroke:#3B1142" />
<path d="M206.21,195.13A5,5 0 1 1 196.21,195.13A5,5 0 1 1 206.21,195.13Z" style="fill:#3B1142" />
<path d="M212.59,197.02A5,5 0 1 1 202.59,197.02A5,5 0 1 1 212.59,197.02Z" style="fill:#3B1142" />
<path d="M218.97,198.42A5,5 0 1 1 208.97,198.42A5,5 0 1 1 218.97,198.42Z" style="fill:#3B1142" />
<path d="M225.34,200.43A5,5 0 1 1 215.34,200.43A5,5 0 1 1 225.34,200.43Z" style="fill:#3B1142" />
<path d="M231.72,202.44A5,5 0 1 1 221.72,202.44A5,5 0 1 1 231.72,202.44Z" style="fill:#3B1142" />
<path d="M238.1,203.9A5,5 0 1 1 228.1,203.9A5,5 0 1 1 238.1,203.9Z" style="fill:#3B1142" />
<path d="M244.48,206.5A5,5 0 1 1 234.48,206.5A5,5 0 1 1 244.48,206.5Z" style="fill:#3B1142" />
<path d="M250.86,208.72A5,5 0 1 1 240.86,208.72A5,5 0 1 1 250.86,208.72Z" style="fill:#3B1142" />
<path d="M257.23,211.24A5,5 0 1 1 247.23,211.24A5,5 0 1 1 257.23,211.24Z" style="fill:#3B1142" />
<path d="M263.61,213.72A5,5 0 1 1 253.61,213.72A5,5 0 1 1 263.61,213.72Z" style="fill:#3B1142" />
<path d="M269.99,215.79A5,5 0 1 1 259.99,215.79A5,5 0 1 1 269.99,215.79Z" style="fill:#3B1142" />
<path d="M276.37,218.71A5,5 0 1 1 266.37,218.71A5,5 0 1 1 276.37,218.71Z" style="fill:#3B1142" />
<path d="M282.75,221.71A5,5 0 1 1 272.75,221.71A5,5 0 1 1 282.75,221.71Z" style="fill:#3B1142" />
<path d="M289.12,224.36A5,5 0 1 1 279.12,224.36A5,5 0 1 1 289.12,224.36Z" style="fill:#3B1142" />
<path d="M295.5,226.2A5,5 0 1 1 285.5,226.2A5,5 0 1 1 295.5,226.2Z" style="fill:#3B1142" />
<path d="M301.88,229.14A5,5 0 1 1 291.88,229.14A5,5 0 1 1 301.88,229.14Z" style="fill:#3B1142" />
<path d="M308.26,231.69A5,5 0 1 1 298.26,231.69A5,5 0 1 1 308.26,231.69Z" style="fill:#3B1142" />
<path d="M314.64,234.65A5,5 0 1 1 304.64,234.65A5,5 0 1 1 314.64,234.65Z" style="fill:#3B1142" />
<path d="M321.01,237.98A5,5 0 1 1 311.01,237.98A5,5 0 1 1 321.01,237.98Z" style="fill:#3B1142" />
<path d="M327.39,241.16A5,5 0 1 1 317.39,241.16A5,5 0 1 1 327.39,241.16Z" style="fill:#3B1142" />
<path d="M333.77,245.11A5,5 0 1 1 323.77,245.11A5,5 0 1 1 333.77,245.11Z" style="fill:#3B1142" />
<path d="M340.15,248.61A5,5 0 1 1 330.15,248.61A5,5 0 1 1 340.15,248.61Z" style="fill:#3B1142" />
<path d="M346.53,252.84A5,5 0 1 1 336.53,252.84A5,5 0 1 1 346.53,252.84Z" style="fill:#3B1142" />
<path d="M352.9,255.03A5,5 0 1 1 342.9,255.03A5,5 0 1 1 352.9,255.03Z" style="fill:#3B1142" />
<path d="M359.28,260.77A5,5 0 1 1 349.28,260.77A5,5 0 1 1 359.28,260.77Z" style="fill:#3B1142" />
<path d="M365.66,265.22A5,5 0 1 1 355.66,265.22A5,5 0 1 1 365.66,265.22Z" style="fill:#3B1142" />
<path d="M372.04,269.91A5,5 0 1 1 362.04,269.91A5,5 0 1 1 372.04,269.91Z" style="fill:#3B1142" />
<path d="M378.42,273.49A5,5 0 1 1 368.42,273.49A5,5 0 1 1 378.42,273.49Z" style="fill:#3B1142" />
<path d="M384.79,277.89A5,5 0 1 1 374.79,277.89A5,5 0 1 1 384.79,277.89Z" style="fill:#3B1142" />
<path d="M391.17,283.16A5,5 0 1 1 381.17,283.16A5,5 0 1 1 391.17,283.16Z" style="fill:#3B1142" />
<path d="M397.55,286.63A5,5 0 1 1 387.55,286.63A5,5 0 1 1 397.55,286.63Z" style="fill:#3B1142" />
<path d="M403.93,291.31A5,5 0 1 1 393.93,291.31A5,5 0 1 1 403.93,291.31Z" style="fill:#3B1142" />
<path d="M410.31,296.21A5,5 0 1 1 400.31,296.21A5,5 0 1 1 410.31,296.21Z" style="fill:#3B1142" />
<path d="M416.68,305.74A5,5 0 1 1 406.68,305.74A5,5 0 1 1 416.68,305.74Z" style="fill:#3B1142" />
<path d="M423.06,309.64A5,5 0 1 1 413.06,309.64A5,5 0 1 1 423.06,309.64Z" style="fill:#3B1142" />
<path d="M429.44,316.82A5,5 0 1 1 419.44,316.82A5,5 0 1 1 429.44,316.82Z" style="fill:#3B1142" />
<path d="M435.82,324.26A5,5 0 1 1 425.82,324.26A5,5 0 1 1 435.82,324.26Z" style="fill:#3B1142" />
<path d="M442.2,329.41A5,5 0 1 1 432.2,329.41A5,5 0 1 1 442.2,329.41Z" style="fill:#3B1142" />
<path d="M448.57,336.63A5,5 0 1 1 438.57,336.63A5,5 0 1 1 448.57,336.63Z" style="fill:#3B1142" />
<path d="M454.95,344.2A5,5 0 1 1 444.95,344.2A5,5 0 1 1 454.95,344.2Z" style="fill:#3B1142" />
<path d="M461.33,355.51A5,5 0 1 1 451.33,355.51A5,5 0 1 1 461.33,355.51Z" style="fill:#3B1142" />
<path d="M467.71,363.07A5,5 0 1 1 457.71,363.07A5,5 0 1 1 467.71,363.07Z" style="fill:#3B1142" />
<path d="M474.09,372.08A5,5 0 1 1 464.09,372.08A5,5 0 1 1 474.09,372.08Z" style="fill:#3B1142" />
<path d="M480.46,380.27A5,5 0 1 1 470.46,380.27A5,5 0 1 1 480.46,380.27Z" style="fill:#3B1142" />
<path d="M486.84,388.37A5,5 0 1 1 476.84,388.37A5,5 0 1 1 486.84,388.37Z" style="fill:#3B1142" />
<path d="M493.22,402.55A5,5 0 1 1 483.22,402.55A5,5 0 1 1 493.22,402.55Z" style="fill:#3B1142" />
<path d="M499.6,413.89A5,5 0 1 1 489.6,413.89A5,5 0 1 1 499.6,413.89Z" style="fill:#3B1142" />
<path d="M505.98,424.78A5,5 0 1 1 495.98,424.78A5,5 0 1 1 505.98,424.78Z" style="fill:#3B1142" />
<path d="M512.35,435.43A5,5 0 1 1 502.35,435.43A5,5 0 1 1 512.35,435.43Z" style="fill:#3B1142" />
<path d="M518.73,448.76A5,5 0 1 1 508.73,448.76A5,5 0 1 1 518.73,448.76Z" style="fill:#3B1142" />
<path d="M525.11,462.98A5,5 0 1 1 515.11,462.98A5,5 0 1 1 525.11,462.98Z" style="fill:#3B1142" />
<path d="M531.49,477.59A5,5 0 1 1 521.49,477.59A5,5 0 1 1 531.49,477.59Z" style="fill:#3B1142" />
<path d="M537.87,493.5A5,5 0 1 1 527.87,493.5A5,5 0 1 1 537.87,493.5Z" style="fill:#3B1142" />
<path d="M544.24,503.88A5,5 0 1 1 534.24,503.88A5,5 0 1 1 544.24,503.88Z" style="fill:#3B1142" />
<path d="M550.62,520.33A5,5 0 1 1 540.62,520.33A5,5 0 1 1 550.62,520.33Z" style="fill:#3B1142" />
<path d="M557,539.16A5,5 0 1 1 547,539.16A5,5 0 1 1 557,539.16Z" style="fill:#3B1142" />
<path d="M563.38,559.81A5,5 0 1 1 553.38,559.81A5,5 0 1 1 563.38,559.81Z" style="fill:#3B1142" />
<path d="M569.76,583.04A5,5 0 1 1 559.76,583.04A5,5 0 1 1 569.76,583.04Z" style="fill:#3B1142" />
<path d="M576.14,601.56A5,5 0 1 1 566.14,601.56A5,5 0 1 1 576.14,601.56Z" style="fill:#3B1142" />
<path d="M582.51,624.61A5,5 0 1 1 572.51,624.61A5,5 0 1 1 582.51,624.61Z" style="fill:#3B1142" />
<path d="M588.89,639.66A5,5 0 1 1 578.89,639.66A5,5 0 1 1 588.89,639.66Z" style="fill:#3B1142" />
<path d="M595.27,661.85A5,5 0 1 1 585.27,661.85A5,5 0 1 1 595.27,661.85Z" style="fill:#3B1142" />
<path d="M601.65,687.4A5,5 0 1 1 591.65,687.4A5,5 0 1 1 601.65,687.4Z" style="fill:#3B1142" />
<path d="M608.03,704.74A5,5 0 1 1 598.03,704.74A5,5 0 1 1 608.03,704.74Z" style="fill:#3B1142" />
<path d="M614.4,719.49A5,5 0 1 1 604.4,719.49A5,5 0 1 1 614.4,719.49Z" style="fill:#3B1142" />
<path d="M620.78,744.54A5,5 0 1 1 610.78,744.54A5,5 0 1 1 620.78,744.54Z" style="fill:#3B1142" />
<path d="M627.16,759.96A5,5 0 1 1 617.16,759.96A5,5 0 1 1 627.16,759.96Z" style="fill:#3B1142" />
<path d="M633.54,780.41A5,5 0 1 1 623.54,780.41A5,5 0 1 1 633.54,780.41Z" style="fill:#3B1142" />
<path d="M639.92,790.15A5,5 0 1 1 629.92,790.15A5,5 0 1 1 639.92,790.15Z" style="fill:#3B1142" />
<path d="M646.29,803.68A5,5 0 1 1 636.29,803.68A5,5 0 1 1 646.29,803.68Z" style="fill:#3B1142" />
<path d="M652.67,802.23A5,5 0 1 1 642.67,802.23A5,5 0 1 1 652.67,802.23Z" style="fill:#3B1142" />
<path d="M659.05,802.46A5,5 0 1 1 649.05,802.46A5,5 0 1 1 659.05,802.46Z" style="fill:#3B1142" />
<path d="M665.43,788.54A5,5 0 1 1 655.43,788.54A5,5 0 1 1 665.43,788.54Z" style="fill:#3B1142" />
<path d="M671.81,774.58A5,5 0 1 1 661.81,774.58A5,5 0 1 1 671.81,774.58Z" style="fill:#3B1142" />
<path d="M678.18,753.21A5,5 0 1 1 668.18,753.21A5,5 0 1 1 678.18,753.21Z" style="fill:#3B1142" />
<path d="M684.56,722.33A5,5 0 1 1 674.56,722.33A5,5 0 1 1 684.56,722.33Z" style="fill:#3B1142" />
<path d="M690.94,693.03A5,5 0 1 1 680.94,693.03A5,5 0 1 1 690.94,693.03Z" style="fill:#3B1142" />
<path d="M697.32,651.91A5,5 0 1 1 687.32,651.91A5,5 0 1 1 697.32,651.91Z" style="fill:#3B1142" />
<path d="M703.7,613.12A5,5 0 1 1 693.7,613.12A5,5 0 1 1 703.7,613.12Z" style="fill:#3B1142" />
<path d="M710.07,569.05A5,5 0 1 1 700.07,569.05A5,5 0 1 1 710.07,569.05Z" style="fill:#3B1142" />
<path d="M716.45,525.03A5,5 0 1 1 706.45,525.03A5,5 0 1 1 716.45,525.03Z" style="fill:#3B1142" />
<path d="M722.83,488.44A5,5 0 1 1 712.83,488.44A5,5 0 1 1 722.83,488.44Z" style="fill:#3B1142" />
<path d="M729.21,446.35A5,5 0 1 1 719.21,446.35A5,5 0 1 1 729.21,446.35Z" style="fill:#3B1142" />
<path d="M735.59,403.59A5,5 0 1 1 725.59,403.59A5,5 0 1 1 735.59,403.59Z" style="fill:#3B1142" />
<path d="M741.96,366.2A5,5 0 1 1 731.96,366.2A5,5 0 1 1 741.96,366.2Z" style="fill:#3B1142" />
<path d="M748.34,329.25A5,5 0 1 1 738.34,329.25A5,5 0 1 1 748.34,329.25Z" style="fill:#3B1142" />
<path d="M754.72,296.24A5,5 0 1 1 744.72,296.24A5,5 0 1 1 754.72,296.24Z" style="fill:#3B1142" />
<path d="M761.1,266.4A5,5 0 1 1 751.1,266.4A5,5 0 1 1 761.1,266.4Z" style="fill:#3B1142" />
<path d="M767.48,236.41A5,5 0 1 1 757.48,236.41A5,5 0 1 1 767.48,236.41Z" style="fill:#3B1142" />
<path d="M773.85,211.86A5,5 0 1 1 763.85,211.86A5,5 0 1 1 773.85,211.86Z" style="fill:#3B1142" />
<path d="M780.23,188.46A5,5 0 1 1 770.23,188.46A5,5 0 1 1 780.23,188.46Z" style="fill:#3B1142" />
<path d="M786.61,168.07A5,5 0 1 1 776.61,168.07A5,5 0 1 1 786.61,168.07Z" style="fill:#3B1142" />
<path d="M792.99,150.86A5,5 0 1 1 782.99,150.86A5,5 0 1 1 792.99,150.86Z" style="fill:#3B1142" />
<path d="M799.37,138.76A5,5 0 1 1 789.37,138.76A5,5 0 1 1 799.37,138.76Z" style="fill:#3B1142" />
<path d="M805.74,136.02A5,5 0 1 1 795.74,136.02A5,5 0 1 1 805.74,136.02Z" style="fill:#3B1142" />
<path d="M812.12,144.57A5,5 0 1 1 802.12,144.57A5,5 0 1 1 812.12,144.57Z" style="fill:#3B1142" />
<path d="M818.5,154.9A5,5 0 1 1 808.5,154.9A5,5 0 1 1 818.5,154.9Z" style="fill:#3B1142" />
<path d="M824.88,163.06A5,5 0 1 1 814.88,163.06A5,5 0 1 1 824.88,163.06Z" style="fill:#3B1142" />
<path d="M831.26,169.43A5,5 0 1 1 821.26,169.43A5,5 0 1 1 831.26,169.43Z" style="fill:#3B1142" />
<path d="M837.63,174.96A5,5 0 1 1 827.63,174.96A5,5 0 1 1 837.63,174.96Z" style="fill:#3B1142" />
<path d="M844.01,178.47A5,5 0 1 1 834.01,178.47A5,5 0 1 1 844.01,178.47Z" style="fill:#3B1142" />
<path d="M850.39,182.97A5,5 0 1 1 840.39,182.97A5,5 0 1 1 850.39,182.97Z" style="fill:#3B1142" />
<path d="M856.77,184.71A5,5 0 1 1 846.77,184.71A5,5 0 1 1 856.77,184.71Z" style="fill:#3B1142" />
<path d="M863.15,185.54A5,5 0 1 1 853.15,185.54A5,5 0 1 1 863.15,185.54Z" style="fill:#3B1142" />
<path d="M869.52,187.84A5,5 0 1 1 859.52,187.84A5,5 0 1 1 869.52,187.84Z" style="fill:#3B1142" />
<path d="M875.9,190.01A5,5 0 1 1 865.9,190.01A5,5 0 1 1 875.9,190.01Z" style="fill:#3B1142" />
<path d="M882.28,189.95A5,5 0 1 1 872.28,189.95A5,5 0 1 1 882.28,189.95Z" style="fill:#3B1142" />
<path d="M888.66,190.75A5,5 0 1 1 878.66,190.75A5,5 0 1 1 888.66,190.75Z" style="fill:#3B1142" />
<path d="M895.04,189.62A5,5 0 1 1 885.04,189.62A5,5 0 1 1 895.04,189.62Z" style="fill:#3B1142" />
<path d="M901.41,189.14A5,5 0 1 1 891.41,189.14A5,5 0 1 1 901.41,189.14Z" style="fill:#3B1142" />
<path d="M907.79,188.59A5,5 0 1 1 897.79,188.59A5,5 0 1 1 907.79,188.59Z" style="fill:#3B1142" />
<path d="M914.17,187.64A5,5 0 1 1 904.17,187.64A5,5 0 1 1 914.17,187.64Z" style="fill:#3B1142" />
<path d="M920.55,186.95A5,5 0 1 1 910.55,186.95A5,5 0 1 1 920.55,186.95Z" style="fill:#3B1142" />
<path d="M926.93,185.54A5,5 0 1 1 916.93,185.54A5,5 0 1 1 926.93,185.54Z" style="fill:#3B1142" />
<path d="M933.31,184.64A5,5 0 1 1 923.31,184.64A5,5 0 1 1 933.31,184.64Z" style="fill:#3B1142" />
<path d="M939.68,183.32A5,5 0 1 1 929.68,183.32A5,5 0 1 1 939.68,183.32Z" style="fill:#3B1142" />
<path d="M946.06,181.15A5,5 0 1 1 936.06,181.15A5,5 0 1 1 946.06,181.15Z" style="fill:#3B1142" />
<path d="M952.44,180.44A5,5 0 1 1 942.44,180.44A5,5 0 1 1 952.44,180.44Z" style="fill:#3B1142" />
<path d="M958.82,179.11A5,5 0 1 1 948.82,179.11A5,5 0 1 1 958.82,179.11Z" style="fill:#3B1142" />
<path d="M965.2,177.8A5,5 0 1 1 955.2,177.8A5,5 0 1 1 965.2,177.8Z" style="fill:#3B1142" />
<path d="M971.57,177.32A5,5 0 1 1 961.57,177.32A5,5 0 1 1 971.57,177.32Z" style="fill:#3B1142" />
<path d="M977.95,175.79A5,5 0 1 1 967.95,175.79A5,5 0 1 1 977.95,175.79Z" style="fill:#3B1142" />
<path d="M984.33,174.7A5,5 0 1 1 974.33,174.7A5,5 0 1 1 984.33,174.7Z" style="fill:#3B1142" />
<path d="M990.71,174.35A5,5 0 1 1 980.71,174.35A5,5 0 1 1 990.71,174.35Z" style="fill:#3B1142" />
<path d="M997.09,173.31A5,5 0 1 1 987.09,173.31A5,5 0 1 1 997.09,173.31Z" style="fill:#3B1142" />
<path d="M1003.5,171.23A5,5 0 1 1 993.46,171.23A5,5 0 1 1 1003.5,171.23Z" style="fill:#3B1142" />
<path d="M1009.8,169.86A5,5 0 1 1 999.84,169.86A5,5 0 1 1 1009.8,169.86Z" style="fill:#3B1142" />
<path d="M1016.2,170.12A5,5 0 1 1 1006.2,170.12A5,5 0 1 1 1016.2,170.12Z" style="fill:#3B1142" />
<path d="M1022.6,168.47A5,5 0 1 1 1012.6,168.47A5,5 0 1 1 1022.6,168.47Z" style="fill:#3B1142" />
<path d="M1029,167.41A5,5 0 1 1 1019,167.41A5,5 0 1 1 1029,167.41Z" style="fill:#3B1142" />
<path d="M1035.4,167.39A5,5 0 1 1 1025.4,167.39A5,5 0 1 1 1035.4,167.39Z" style="fill:#3B1142" />
<path d="M1041.7,165.15A5,5 0 1 1 1031.7,165.15A5,5 0 1 1 1041.7,165.15Z" style="fill:#3B1142" />
<path d="M1048.1,164.51A5,5 0 1 1 1038.1,164.51A5,5 0 1 1 1048.1,164.51Z" style="fill:#3B1142" />
<path d="M1054.5,163.95A5,5 0 1 1 1044.5,163.95A5,5 0 1 1 1054.5,163.95Z" style="fill:#3B1142" />
<path d="M1060.9,163.22A5,5 0 1 1 1050.9,163.22A5,5 0 1 1 1060.9,163.22Z" style="fill:#3B1142" />
<path d="M1067.2,162.76A5,5 0 1 1 1057.2,162.76A5,5 0 1 1 1067.2,162.76Z" style="fill:#3B1142" />
<path d="M1073.6,161.82A5,5 0 1 1 1063.6,161.82A5,5 0 1 1 1073.6,161.82Z" style="fill:#3B1142" />
<path d="M1080,161.96A5,5 0 1 1 1070,161.96A5,5 0 1 1 1080,161.96Z" style="fill:#3B1142" />
<path d="M201.21,974.14L1075,974.14" style="fill:none;stroke:#000000" />
<path d="M1075,108.82L1075,974.14" style="fill:none;stroke:#000000" />
<path d="M201.21,204.74L207.59,205.89L213.97,207.08L220.34,208.31L226.72,209.59L233.1,210.91L239.48,212.28L245.86,213.69L252.23,215.16L258.61,216.68L264.99,218.25L271.37,219.88L277.75,221.57L284.12,223.32L290.5,225.14L296.88,227.02L303.26,228.97L309.64,230.99L316.01,233.08L322.39,235.25L328.77,237.5L335.15,239.83L341.53,242.25L347.9,244.74L354.28,247.33L360.66,250L367.04,252.77L373.42,255.62L379.79,258.57L386.17,261.61L392.55,264.74L398.93,267.97L405.31,271.28L411.68,274.68L418.06,278.15L424.44,281.71L430.82,285.34L437.2,289.02L443.57,292.76L449.95,296.54L456.33,300.34L462.71,304.15L469.09,307.96L475.46,311.73L481.84,315.46L488.22,319.1L494.6,322.64L500.98,326.04L507.35,329.28L513.73,332.32L520.11,335.12L526.49,337.66L532.87,339.9L539.24,341.81L545.62,343.36L552,344.52L558.38,345.27L564.76,345.6L571.14,345.48L577.51,344.92L583.89,343.9L590.27,342.45L596.65,340.56L603.03,338.25L609.4,335.56L615.78,332.5L622.16,329.11L628.54,325.41L634.92,321.46L641.29,317.29L647.67,312.92L654.05,308.41L660.43,303.79L666.81,299.09L673.18,294.34L679.56,289.58L685.94,284.83L692.32,280.11L698.7,275.46L705.07,270.87L711.45,266.38L717.83,261.98L724.21,257.71L730.59,253.55L736.96,249.52L743.34,245.62L749.72,241.85L756.1,238.22L762.48,234.73L768.85,231.37L775.23,228.14L781.61,225.04L787.99,222.07L794.37,219.23L800.74,216.51L807.12,213.9L813.5,211.41L819.88,209.03L826.26,206.75L832.63,204.57L839.01,202.49L845.39,200.5L851.77,198.61L858.15,196.79L864.52,195.06L870.9,193.4L877.28,191.82L883.66,190.3L890.04,188.86L896.41,187.48L902.79,186.15L909.17,184.89L915.55,183.68L921.93,182.52L928.31,181.41L934.68,180.35L941.06,179.34L947.44,178.37L953.82,177.44L960.2,176.54L966.57,175.69L972.95,174.87L979.33,174.08L985.71,173.32L992.09,172.6L998.46,171.9L1004.8,171.24L1011.2,170.59L1017.6,169.98L1024,169.39L1030.4,168.82L1036.7,168.27L1043.1,167.74L1049.5,167.24L1055.9,166.75L1062.2,166.28L1068.6,165.83L1075,165.39" style="fill:none;stroke:#3B1142;stroke-width:2" />
<path d="M1013,927.49A8,8 0 1 1 997,927.49A8,8 0 1 1 1013,927.49Z" style="fill:#3B1142" />
<text x="853.95" y="-920.9" transform="scale(1, -1)"
	style="font-family:Helvetica;font-weight:normal;font-style:normal;font-size:28px">20.5 GHz</text>
</g>
</svg>
