<?xml version="1.0"?>
<!-- Generated by SVGo and Plotinum VG -->
<svg width="1080pt" height="1080pt" viewBox="0 0 1080 1080"
	xmlns="http://www.w3.org/2000/svg"
	xmlns:xlink="http://www.w3.org/1999/xlink">
<g transform="scale(1, -1) translate(0, -1080)">
<path d="M0,0L1080,0L1080,1080L0,1080Z" style="fill:#-8000000000000000-8000000000000000-8000000000000000;fill-opacity:0" />
<text x="398.73" y="-1039.5" transform="scale(1, -1)"
	style="font-family:Helvetica;font-weight:normal;font-style:normal;font-size:50px"> TeO2 CABS</text>
<text x="497.32" y="-11.039" transform="scale(1, -1)"
	style="font-family:Helvetica;font-weight:normal;font-style:normal;font-size:36px">Frequency (GHz)</text>
<text x="261.91" y="-71.258" transform="scale(1, -1)"
	style="font-family:Helvetica;font-weight:normal;font-style:normal;font-size:36px">11.97</text>
<text x="480.4" y="-71.258" transform="scale(1, -1)"
	style="font-family:Helvetica;font-weight:normal;font-style:normal;font-size:36px">12.09</text>
<text x="700.22" y="-71.258" transform="scale(1, -1)"
	style="font-family:Helvetica;font-weight:normal;font-style:normal;font-size:36px">12.21</text>
<text x="920.04" y="-71.258" transform="scale(1, -1)"
	style="font-family:Helvetica;font-weight:normal;font-style:normal;font-size:36px">12.33</text>
<path d="M195.71,112.44L195.71,108.44" style="fill:none;stroke:#000000;stroke-width:1.5" />
<path d="M305.62,116.44L305.62,108.44" style="fill:none;stroke:#000000;stroke-width:1.5" />
<path d="M415.53,112.44L415.53,108.44" style="fill:none;stroke:#000000;stroke-width:1.5" />
<path d="M525.44,116.44L525.44,108.44" style="fill:none;stroke:#000000;stroke-width:1.5" />
<path d="M635.35,112.44L635.35,108.44" style="fill:none;stroke:#000000;stroke-width:1.5" />
<path d="M745.27,116.44L745.27,108.44" style="fill:none;stroke:#000000;stroke-width:1.5" />
<path d="M855.18,112.44L855.18,108.44" style="fill:none;stroke:#000000;stroke-width:1.5" />
<path d="M965.09,116.44L965.09,108.44" style="fill:none;stroke:#000000;stroke-width:1.5" />
<path d="M1075,112.44L1075,108.44" style="fill:none;stroke:#000000;stroke-width:1.5" />
<path d="M195.71,108.44L1075,108.44" style="fill:none;stroke:#000000;stroke-width:1.5" />
<g transform="rotate(90)">
<text x="371.42" y="29.18" transform="scale(1, -1)"
	style="font-family:Helvetica;font-weight:normal;font-style:normal;font-size:36px">Spectral Density (nV)</text>
</g>
<text x="87.869" y="-207.91" transform="scale(1, -1)"
	style="font-family:Helvetica;font-weight:normal;font-style:normal;font-size:36px">29.31</text>
<text x="67.848" y="-424.24" transform="scale(1, -1)"
	style="font-family:Helvetica;font-weight:normal;font-style:normal;font-size:36px">139.04</text>
<text x="67.848" y="-640.57" transform="scale(1, -1)"
	style="font-family:Helvetica;font-weight:normal;font-style:normal;font-size:36px">248.77</text>
<text x="67.848" y="-856.9" transform="scale(1, -1)"
	style="font-family:Helvetica;font-weight:normal;font-style:normal;font-size:36px">358.50</text>
<path d="M199.96,108.82L195.96,108.82" style="fill:none;stroke:#000000;stroke-width:1.5" />
<path d="M203.96,216.98L195.96,216.98" style="fill:none;stroke:#000000;stroke-width:1.5" />
<path d="M199.96,325.15L195.96,325.15" style="fill:none;stroke:#000000;stroke-width:1.5" />
<path d="M203.96,433.31L195.96,433.31" style="fill:none;stroke:#000000;stroke-width:1.5" />
<path d="M199.96,541.48L195.96,541.48" style="fill:none;stroke:#000000;stroke-width:1.5" />
<path d="M203.96,649.64L195.96,649.64" style="fill:none;stroke:#000000;stroke-width:1.5" />
<path d="M199.96,757.81L195.96,757.81" style="fill:none;stroke:#000000;stroke-width:1.5" />
<path d="M203.96,865.98L195.96,865.98" style="fill:none;stroke:#000000;stroke-width:1.5" />
<path d="M199.96,974.14L195.96,974.14" style="fill:none;stroke:#000000;stroke-width:1.5" />
<path d="M199.96,974.14L195.96,974.14" style="fill:none;stroke:#000000;stroke-width:1.5" />
<path d="M195.96,108.82L195.96,974.14" style="fill:none;stroke:#000000;stroke-width:1.5" />
<path d="M195.71,311.76L195.71,347.51" style="fill:none;stroke:#1FD3AC" />
<path d="M193.21,311.76L198.21,311.76" style="fill:none;stroke:#1FD3AC" />
<path d="M193.21,347.51L198.21,347.51" style="fill:none;stroke:#1FD3AC" />
<path d="M225.02,282.7L225.02,344.47" style="fill:none;stroke:#1FD3AC" />
<path d="M222.52,282.7L227.52,282.7" style="fill:none;stroke:#1FD3AC" />
<path d="M222.52,344.47L227.52,344.47" style="fill:none;stroke:#1FD3AC" />
<path d="M254.33,314.67L254.33,357.09" style="fill:none;stroke:#1FD3AC" />
<path d="M251.83,314.67L256.83,314.67" style="fill:none;stroke:#1FD3AC" />
<path d="M251.83,357.09L256.83,357.09" style="fill:none;stroke:#1FD3AC" />
<path d="M283.64,408.08L283.64,417.77" style="fill:none;stroke:#1FD3AC" />
<path d="M281.14,408.08L286.14,408.08" style="fill:none;stroke:#1FD3AC" />
<path d="M281.14,417.77L286.14,417.77" style="fill:none;stroke:#1FD3AC" />
<path d="M312.95,323.4L312.95,379.47" style="fill:none;stroke:#1FD3AC" />
<path d="M310.45,323.4L315.45,323.4" style="fill:none;stroke:#1FD3AC" />
<path d="M310.45,379.47L315.45,379.47" style="fill:none;stroke:#1FD3AC" />
<path d="M342.26,324.07L342.26,370.47" style="fill:none;stroke:#1FD3AC" />
<path d="M339.76,324.07L344.76,324.07" style="fill:none;stroke:#1FD3AC" />
<path d="M339.76,370.47L344.76,370.47" style="fill:none;stroke:#1FD3AC" />
<path d="M371.57,354.25L371.57,388.88" style="fill:none;stroke:#1FD3AC" />
<path d="M369.07,354.25L374.07,354.25" style="fill:none;stroke:#1FD3AC" />
<path d="M369.07,388.88L374.07,388.88" style="fill:none;stroke:#1FD3AC" />
<path d="M400.88,372L400.88,405.05" style="fill:none;stroke:#1FD3AC" />
<path d="M398.38,372L403.38,372" style="fill:none;stroke:#1FD3AC" />
<path d="M398.38,405.05L403.38,405.05" style="fill:none;stroke:#1FD3AC" />
<path d="M430.19,384.76L430.19,449.28" style="fill:none;stroke:#1FD3AC" />
<path d="M427.69,384.76L432.69,384.76" style="fill:none;stroke:#1FD3AC" />
<path d="M427.69,449.28L432.69,449.28" style="fill:none;stroke:#1FD3AC" />
<path d="M459.5,391.31L459.5,421.45" style="fill:none;stroke:#1FD3AC" />
<path d="M457,391.31L462,391.31" style="fill:none;stroke:#1FD3AC" />
<path d="M457,421.45L462,421.45" style="fill:none;stroke:#1FD3AC" />
<path d="M488.81,376.49L488.81,405.31" style="fill:none;stroke:#1FD3AC" />
<path d="M486.31,376.49L491.31,376.49" style="fill:none;stroke:#1FD3AC" />
<path d="M486.31,405.31L491.31,405.31" style="fill:none;stroke:#1FD3AC" />
<path d="M518.12,383.13L518.12,444.09" style="fill:none;stroke:#1FD3AC" />
<path d="M515.62,383.13L520.62,383.13" style="fill:none;stroke:#1FD3AC" />
<path d="M515.62,444.09L520.62,444.09" style="fill:none;stroke:#1FD3AC" />
<path d="M547.43,359.46L547.43,397.25" style="fill:none;stroke:#1FD3AC" />
<path d="M544.93,359.46L549.93,359.46" style="fill:none;stroke:#1FD3AC" />
<path d="M544.93,397.25L549.93,397.25" style="fill:none;stroke:#1FD3AC" />
<path d="M576.74,372.46L576.74,434.56" style="fill:none;stroke:#1FD3AC" />
<path d="M574.24,372.46L579.24,372.46" style="fill:none;stroke:#1FD3AC" />
<path d="M574.24,434.56L579.24,434.56" style="fill:none;stroke:#1FD3AC" />
<path d="M606.04,506.9L606.04,567.22" style="fill:none;stroke:#1FD3AC" />
<path d="M603.54,506.9L608.54,506.9" style="fill:none;stroke:#1FD3AC" />
<path d="M603.54,567.22L608.54,567.22" style="fill:none;stroke:#1FD3AC" />
<path d="M635.35,627.67L635.35,784.5" style="fill:none;stroke:#1FD3AC" />
<path d="M632.85,627.67L637.85,627.67" style="fill:none;stroke:#1FD3AC" />
<path d="M632.85,784.5L637.85,784.5" style="fill:none;stroke:#1FD3AC" />
<path d="M664.66,517.56L664.66,667.09" style="fill:none;stroke:#1FD3AC" />
<path d="M662.16,517.56L667.16,517.56" style="fill:none;stroke:#1FD3AC" />
<path d="M662.16,667.09L667.16,667.09" style="fill:none;stroke:#1FD3AC" />
<path d="M693.97,530.06L693.97,682.65" style="fill:none;stroke:#1FD3AC" />
<path d="M691.47,530.06L696.47,530.06" style="fill:none;stroke:#1FD3AC" />
<path d="M691.47,682.65L696.47,682.65" style="fill:none;stroke:#1FD3AC" />
<path d="M723.28,431.51L723.28,518.28" style="fill:none;stroke:#1FD3AC" />
<path d="M720.78,431.51L725.78,431.51" style="fill:none;stroke:#1FD3AC" />
<path d="M720.78,518.28L725.78,518.28" style="fill:none;stroke:#1FD3AC" />
<path d="M752.59,320.51L752.59,383.54" style="fill:none;stroke:#1FD3AC" />
<path d="M750.09,320.51L755.09,320.51" style="fill:none;stroke:#1FD3AC" />
<path d="M750.09,383.54L755.09,383.54" style="fill:none;stroke:#1FD3AC" />
<path d="M781.9,219.3L781.9,264.44" style="fill:none;stroke:#1FD3AC" />
<path d="M779.4,219.3L784.4,219.3" style="fill:none;stroke:#1FD3AC" />
<path d="M779.4,264.44L784.4,264.44" style="fill:none;stroke:#1FD3AC" />
<path d="M811.21,214.37L811.21,230.25" style="fill:none;stroke:#1FD3AC" />
<path d="M808.71,214.37L813.71,214.37" style="fill:none;stroke:#1FD3AC" />
<path d="M808.71,230.25L813.71,230.25" style="fill:none;stroke:#1FD3AC" />
<path d="M840.52,168.69L840.52,227.28" style="fill:none;stroke:#1FD3AC" />
<path d="M838.02,168.69L843.02,168.69" style="fill:none;stroke:#1FD3AC" />
<path d="M838.02,227.28L843.02,227.28" style="fill:none;stroke:#1FD3AC" />
<path d="M869.83,162.62L869.83,198.26" style="fill:none;stroke:#1FD3AC" />
<path d="M867.33,162.62L872.33,162.62" style="fill:none;stroke:#1FD3AC" />
<path d="M867.33,198.26L872.33,198.26" style="fill:none;stroke:#1FD3AC" />
<path d="M899.14,173.36L899.14,206.09" style="fill:none;stroke:#1FD3AC" />
<path d="M896.64,173.36L901.64,173.36" style="fill:none;stroke:#1FD3AC" />
<path d="M896.64,206.09L901.64,206.09" style="fill:none;stroke:#1FD3AC" />
<path d="M928.45,170.67L928.45,191.31" style="fill:none;stroke:#1FD3AC" />
<path d="M925.95,170.67L930.95,170.67" style="fill:none;stroke:#1FD3AC" />
<path d="M925.95,191.31L930.95,191.31" style="fill:none;stroke:#1FD3AC" />
<path d="M957.76,158.72L957.76,192.73" style="fill:none;stroke:#1FD3AC" />
<path d="M955.26,158.72L960.26,158.72" style="fill:none;stroke:#1FD3AC" />
<path d="M955.26,192.73L960.26,192.73" style="fill:none;stroke:#1FD3AC" />
<path d="M987.07,164.64L987.07,178.76" style="fill:none;stroke:#1FD3AC" />
<path d="M984.57,164.64L989.57,164.64" style="fill:none;stroke:#1FD3AC" />
<path d="M984.57,178.76L989.57,178.76" style="fill:none;stroke:#1FD3AC" />
<path d="M1016.4,174.22L1016.4,193.51" style="fill:none;stroke:#1FD3AC" />
<path d="M1013.9,174.22L1018.9,174.22" style="fill:none;stroke:#1FD3AC" />
<path d="M1013.9,193.51L1018.9,193.51" style="fill:none;stroke:#1FD3AC" />
<path d="M1045.7,195.72L1045.7,215.12" style="fill:none;stroke:#1FD3AC" />
<path d="M1043.2,195.72L1048.2,195.72" style="fill:none;stroke:#1FD3AC" />
<path d="M1043.2,215.12L1048.2,215.12" style="fill:none;stroke:#1FD3AC" />
<path d="M1075,167.51L1075,202.19" style="fill:none;stroke:#1FD3AC" />
<path d="M1072.5,167.51L1077.5,167.51" style="fill:none;stroke:#1FD3AC" />
<path d="M1072.5,202.19L1077.5,202.19" style="fill:none;stroke:#1FD3AC" />
<path d="M200.71,329.63A5,5 0 1 1 190.71,329.63A5,5 0 1 1 200.71,329.63Z" style="fill:#1FD3AC" />
<path d="M230.02,313.58A5,5 0 1 1 220.02,313.58A5,5 0 1 1 230.02,313.58Z" style="fill:#1FD3AC" />
<path d="M259.33,335.88A5,5 0 1 1 249.33,335.88A5,5 0 1 1 259.33,335.88Z" style="fill:#1FD3AC" />
<path d="M288.64,412.92A5,5 0 1 1 278.64,412.92A5,5 0 1 1 288.64,412.92Z" style="fill:#1FD3AC" />
<path d="M317.95,351.44A5,5 0 1 1 307.95,351.44A5,5 0 1 1 317.95,351.44Z" style="fill:#1FD3AC" />
<path d="M347.26,347.27A5,5 0 1 1 337.26,347.27A5,5 0 1 1 347.26,347.27Z" style="fill:#1FD3AC" />
<path d="M376.57,371.56A5,5 0 1 1 366.57,371.56A5,5 0 1 1 376.57,371.56Z" style="fill:#1FD3AC" />
<path d="M405.88,388.52A5,5 0 1 1 395.88,388.52A5,5 0 1 1 405.88,388.52Z" style="fill:#1FD3AC" />
<path d="M435.19,417.02A5,5 0 1 1 425.19,417.02A5,5 0 1 1 435.19,417.02Z" style="fill:#1FD3AC" />
<path d="M464.5,406.38A5,5 0 1 1 454.5,406.38A5,5 0 1 1 464.5,406.38Z" style="fill:#1FD3AC" />
<path d="M493.81,390.9A5,5 0 1 1 483.81,390.9A5,5 0 1 1 493.81,390.9Z" style="fill:#1FD3AC" />
<path d="M523.12,413.61A5,5 0 1 1 513.12,413.61A5,5 0 1 1 523.12,413.61Z" style="fill:#1FD3AC" />
<path d="M552.43,378.35A5,5 0 1 1 542.43,378.35A5,5 0 1 1 552.43,378.35Z" style="fill:#1FD3AC" />
<path d="M581.74,403.51A5,5 0 1 1 571.74,403.51A5,5 0 1 1 581.74,403.51Z" style="fill:#1FD3AC" />
<path d="M611.04,537.06A5,5 0 1 1 601.04,537.06A5,5 0 1 1 611.04,537.06Z" style="fill:#1FD3AC" />
<path d="M640.35,706.09A5,5 0 1 1 630.35,706.09A5,5 0 1 1 640.35,706.09Z" style="fill:#1FD3AC" />
<path d="M669.66,592.32A5,5 0 1 1 659.66,592.32A5,5 0 1 1 669.66,592.32Z" style="fill:#1FD3AC" />
<path d="M698.97,606.35A5,5 0 1 1 688.97,606.35A5,5 0 1 1 698.97,606.35Z" style="fill:#1FD3AC" />
<path d="M728.28,474.89A5,5 0 1 1 718.28,474.89A5,5 0 1 1 728.28,474.89Z" style="fill:#1FD3AC" />
<path d="M757.59,352.03A5,5 0 1 1 747.59,352.03A5,5 0 1 1 757.59,352.03Z" style="fill:#1FD3AC" />
<path d="M786.9,241.87A5,5 0 1 1 776.9,241.87A5,5 0 1 1 786.9,241.87Z" style="fill:#1FD3AC" />
<path d="M816.21,222.31A5,5 0 1 1 806.21,222.31A5,5 0 1 1 816.21,222.31Z" style="fill:#1FD3AC" />
<path d="M845.52,197.98A5,5 0 1 1 835.52,197.98A5,5 0 1 1 845.52,197.98Z" style="fill:#1FD3AC" />
<path d="M874.83,180.44A5,5 0 1 1 864.83,180.44A5,5 0 1 1 874.83,180.44Z" style="fill:#1FD3AC" />
<path d="M904.14,189.73A5,5 0 1 1 894.14,189.73A5,5 0 1 1 904.14,189.73Z" style="fill:#1FD3AC" />
<path d="M933.45,180.99A5,5 0 1 1 923.45,180.99A5,5 0 1 1 933.45,180.99Z" style="fill:#1FD3AC" />
<path d="M962.76,175.73A5,5 0 1 1 952.76,175.73A5,5 0 1 1 962.76,175.73Z" style="fill:#1FD3AC" />
<path d="M992.07,171.7A5,5 0 1 1 982.07,171.7A5,5 0 1 1 992.07,171.7Z" style="fill:#1FD3AC" />
<path d="M1021.4,183.87A5,5 0 1 1 1011.4,183.87A5,5 0 1 1 1021.4,183.87Z" style="fill:#1FD3AC" />
<path d="M1050.7,205.42A5,5 0 1 1 1040.7,205.42A5,5 0 1 1 1050.7,205.42Z" style="fill:#1FD3AC" />
<path d="M1080,184.85A5,5 0 1 1 1070,184.85A5,5 0 1 1 1080,184.85Z" style="fill:#1FD3AC" />
<path d="M195.71,974.14L1075,974.14" style="fill:none;stroke:#000000" />
<path d="M1075,108.82L1075,974.14" style="fill:none;stroke:#000000" />
<path d="M195.71,279.6L195.71,309.16" style="fill:none;stroke:#FF7AB4" />
<path d="M193.21,279.6L198.21,279.6" style="fill:none;stroke:#FF7AB4" />
<path d="M193.21,309.16L198.21,309.16" style="fill:none;stroke:#FF7AB4" />
<path d="M225.02,296.67L225.02,321.45" style="fill:none;stroke:#FF7AB4" />
<path d="M222.52,296.67L227.52,296.67" style="fill:none;stroke:#FF7AB4" />
<path d="M222.52,321.45L227.52,321.45" style="fill:none;stroke:#FF7AB4" />
<path d="M254.33,325.16L254.33,368.08" style="fill:none;stroke:#FF7AB4" />
<path d="M251.83,325.16L256.83,325.16" style="fill:none;stroke:#FF7AB4" />
<path d="M251.83,368.08L256.83,368.08" style="fill:none;stroke:#FF7AB4" />
<path d="M283.64,295.97L283.64,329.58" style="fill:none;stroke:#FF7AB4" />
<path d="M281.14,295.97L286.14,295.97" style="fill:none;stroke:#FF7AB4" />
<path d="M281.14,329.58L286.14,329.58" style="fill:none;stroke:#FF7AB4" />
<path d="M312.95,300.5L312.95,325.94" style="fill:none;stroke:#FF7AB4" />
<path d="M310.45,300.5L315.45,300.5" style="fill:none;stroke:#FF7AB4" />
<path d="M310.45,325.94L315.45,325.94" style="fill:none;stroke:#FF7AB4" />
<path d="M342.26,286.66L342.26,313.78" style="fill:none;stroke:#FF7AB4" />
<path d="M339.76,286.66L344.76,286.66" style="fill:none;stroke:#FF7AB4" />
<path d="M339.76,313.78L344.76,313.78" style="fill:none;stroke:#FF7AB4" />
<path d="M371.57,270.74L371.57,289.37" style="fill:none;stroke:#FF7AB4" />
<path d="M369.07,270.74L374.07,270.74" style="fill:none;stroke:#FF7AB4" />
<path d="M369.07,289.37L374.07,289.37" style="fill:none;stroke:#FF7AB4" />
<path d="M400.88,299.78L400.88,354.04" style="fill:none;stroke:#FF7AB4" />
<path d="M398.38,299.78L403.38,299.78" style="fill:none;stroke:#FF7AB4" />
<path d="M398.38,354.04L403.38,354.04" style="fill:none;stroke:#FF7AB4" />
<path d="M430.19,279.43L430.19,314.88" style="fill:none;stroke:#FF7AB4" />
<path d="M427.69,279.43L432.69,279.43" style="fill:none;stroke:#FF7AB4" />
<path d="M427.69,314.88L432.69,314.88" style="fill:none;stroke:#FF7AB4" />
<path d="M459.5,304.23L459.5,346.73" style="fill:none;stroke:#FF7AB4" />
<path d="M457,304.23L462,304.23" style="fill:none;stroke:#FF7AB4" />
<path d="M457,346.73L462,346.73" style="fill:none;stroke:#FF7AB4" />
<path d="M488.81,328.45L488.81,369.07" style="fill:none;stroke:#FF7AB4" />
<path d="M486.31,328.45L491.31,328.45" style="fill:none;stroke:#FF7AB4" />
<path d="M486.31,369.07L491.31,369.07" style="fill:none;stroke:#FF7AB4" />
<path d="M518.12,268.58L518.12,308.99" style="fill:none;stroke:#FF7AB4" />
<path d="M515.62,268.58L520.62,268.58" style="fill:none;stroke:#FF7AB4" />
<path d="M515.62,308.99L520.62,308.99" style="fill:none;stroke:#FF7AB4" />
<path d="M547.43,241.61L547.43,269.7" style="fill:none;stroke:#FF7AB4" />
<path d="M544.93,241.61L549.93,241.61" style="fill:none;stroke:#FF7AB4" />
<path d="M544.93,269.7L549.93,269.7" style="fill:none;stroke:#FF7AB4" />
<path d="M576.74,238.57L576.74,283.69" style="fill:none;stroke:#FF7AB4" />
<path d="M574.24,238.57L579.24,238.57" style="fill:none;stroke:#FF7AB4" />
<path d="M574.24,283.69L579.24,283.69" style="fill:none;stroke:#FF7AB4" />
<path d="M606.04,336.43L606.04,377.43" style="fill:none;stroke:#FF7AB4" />
<path d="M603.54,336.43L608.54,336.43" style="fill:none;stroke:#FF7AB4" />
<path d="M603.54,377.43L608.54,377.43" style="fill:none;stroke:#FF7AB4" />
<path d="M635.35,405.41L635.35,462.01" style="fill:none;stroke:#FF7AB4" />
<path d="M632.85,405.41L637.85,405.41" style="fill:none;stroke:#FF7AB4" />
<path d="M632.85,462.01L637.85,462.01" style="fill:none;stroke:#FF7AB4" />
<path d="M664.66,364.53L664.66,435.63" style="fill:none;stroke:#FF7AB4" />
<path d="M662.16,364.53L667.16,364.53" style="fill:none;stroke:#FF7AB4" />
<path d="M662.16,435.63L667.16,435.63" style="fill:none;stroke:#FF7AB4" />
<path d="M693.97,388.86L693.97,440.62" style="fill:none;stroke:#FF7AB4" />
<path d="M691.47,388.86L696.47,388.86" style="fill:none;stroke:#FF7AB4" />
<path d="M691.47,440.62L696.47,440.62" style="fill:none;stroke:#FF7AB4" />
<path d="M723.28,277.81L723.28,322.56" style="fill:none;stroke:#FF7AB4" />
<path d="M720.78,277.81L725.78,277.81" style="fill:none;stroke:#FF7AB4" />
<path d="M720.78,322.56L725.78,322.56" style="fill:none;stroke:#FF7AB4" />
<path d="M752.59,260.96L752.59,299.82" style="fill:none;stroke:#FF7AB4" />
<path d="M750.09,260.96L755.09,260.96" style="fill:none;stroke:#FF7AB4" />
<path d="M750.09,299.82L755.09,299.82" style="fill:none;stroke:#FF7AB4" />
<path d="M781.9,201.04L781.9,218.7" style="fill:none;stroke:#FF7AB4" />
<path d="M779.4,201.04L784.4,201.04" style="fill:none;stroke:#FF7AB4" />
<path d="M779.4,218.7L784.4,218.7" style="fill:none;stroke:#FF7AB4" />
<path d="M811.21,158.43L811.21,189.04" style="fill:none;stroke:#FF7AB4" />
<path d="M808.71,158.43L813.71,158.43" style="fill:none;stroke:#FF7AB4" />
<path d="M808.71,189.04L813.71,189.04" style="fill:none;stroke:#FF7AB4" />
<path d="M840.52,152.71L840.52,191.08" style="fill:none;stroke:#FF7AB4" />
<path d="M838.02,152.71L843.02,152.71" style="fill:none;stroke:#FF7AB4" />
<path d="M838.02,191.08L843.02,191.08" style="fill:none;stroke:#FF7AB4" />
<path d="M869.83,127.87L869.83,156.56" style="fill:none;stroke:#FF7AB4" />
<path d="M867.33,127.87L872.33,127.87" style="fill:none;stroke:#FF7AB4" />
<path d="M867.33,156.56L872.33,156.56" style="fill:none;stroke:#FF7AB4" />
<path d="M899.14,165.49L899.14,188.89" style="fill:none;stroke:#FF7AB4" />
<path d="M896.64,165.49L901.64,165.49" style="fill:none;stroke:#FF7AB4" />
<path d="M896.64,188.89L901.64,188.89" style="fill:none;stroke:#FF7AB4" />
<path d="M928.45,168.65L928.45,194.94" style="fill:none;stroke:#FF7AB4" />
<path d="M925.95,168.65L930.95,168.65" style="fill:none;stroke:#FF7AB4" />
<path d="M925.95,194.94L930.95,194.94" style="fill:none;stroke:#FF7AB4" />
<path d="M957.76,158.1L957.76,181.24" style="fill:none;stroke:#FF7AB4" />
<path d="M955.26,158.1L960.26,158.1" style="fill:none;stroke:#FF7AB4" />
<path d="M955.26,181.24L960.26,181.24" style="fill:none;stroke:#FF7AB4" />
<path d="M987.07,149.65L987.07,177.76" style="fill:none;stroke:#FF7AB4" />
<path d="M984.57,149.65L989.57,149.65" style="fill:none;stroke:#FF7AB4" />
<path d="M984.57,177.76L989.57,177.76" style="fill:none;stroke:#FF7AB4" />
<path d="M1016.4,149.1L1016.4,166.87" style="fill:none;stroke:#FF7AB4" />
<path d="M1013.9,149.1L1018.9,149.1" style="fill:none;stroke:#FF7AB4" />
<path d="M1013.9,166.87L1018.9,166.87" style="fill:none;stroke:#FF7AB4" />
<path d="M1045.7,152.32L1045.7,178.55" style="fill:none;stroke:#FF7AB4" />
<path d="M1043.2,152.32L1048.2,152.32" style="fill:none;stroke:#FF7AB4" />
<path d="M1043.2,178.55L1048.2,178.55" style="fill:none;stroke:#FF7AB4" />
<path d="M1075,157.64L1075,174.78" style="fill:none;stroke:#FF7AB4" />
<path d="M1072.5,157.64L1077.5,157.64" style="fill:none;stroke:#FF7AB4" />
<path d="M1072.5,174.78L1077.5,174.78" style="fill:none;stroke:#FF7AB4" />
<path d="M200.71,294.38A5,5 0 1 1 190.71,294.38A5,5 0 1 1 200.71,294.38Z" style="fill:#FF7AB4" />
<path d="M230.02,309.06A5,5 0 1 1 220.02,309.06A5,5 0 1 1 230.02,309.06Z" style="fill:#FF7AB4" />
<path d="M259.33,346.62A5,5 0 1 1 249.33,346.62A5,5 0 1 1 259.33,346.62Z" style="fill:#FF7AB4" />
<path d="M288.64,312.77A5,5 0 1 1 278.64,312.77A5,5 0 1 1 288.64,312.77Z" style="fill:#FF7AB4" />
<path d="M317.95,313.22A5,5 0 1 1 307.95,313.22A5,5 0 1 1 317.95,313.22Z" style="fill:#FF7AB4" />
<path d="M347.26,300.22A5,5 0 1 1 337.26,300.22A5,5 0 1 1 347.26,300.22Z" style="fill:#FF7AB4" />
<path d="M376.57,280.05A5,5 0 1 1 366.57,280.05A5,5 0 1 1 376.57,280.05Z" style="fill:#FF7AB4" />
<path d="M405.88,326.91A5,5 0 1 1 395.88,326.91A5,5 0 1 1 405.88,326.91Z" style="fill:#FF7AB4" />
<path d="M435.19,297.16A5,5 0 1 1 425.19,297.16A5,5 0 1 1 435.19,297.16Z" style="fill:#FF7AB4" />
<path d="M464.5,325.48A5,5 0 1 1 454.5,325.48A5,5 0 1 1 464.5,325.48Z" style="fill:#FF7AB4" />
<path d="M493.81,348.76A5,5 0 1 1 483.81,348.76A5,5 0 1 1 493.81,348.76Z" style="fill:#FF7AB4" />
<path d="M523.12,288.79A5,5 0 1 1 513.12,288.79A5,5 0 1 1 523.12,288.79Z" style="fill:#FF7AB4" />
<path d="M552.43,255.66A5,5 0 1 1 542.43,255.66A5,5 0 1 1 552.43,255.66Z" style="fill:#FF7AB4" />
<path d="M581.74,261.13A5,5 0 1 1 571.74,261.13A5,5 0 1 1 581.74,261.13Z" style="fill:#FF7AB4" />
<path d="M611.04,356.93A5,5 0 1 1 601.04,356.93A5,5 0 1 1 611.04,356.93Z" style="fill:#FF7AB4" />
<path d="M640.35,433.71A5,5 0 1 1 630.35,433.71A5,5 0 1 1 640.35,433.71Z" style="fill:#FF7AB4" />
<path d="M669.66,400.08A5,5 0 1 1 659.66,400.08A5,5 0 1 1 669.66,400.08Z" style="fill:#FF7AB4" />
<path d="M698.97,414.74A5,5 0 1 1 688.97,414.74A5,5 0 1 1 698.97,414.74Z" style="fill:#FF7AB4" />
<path d="M728.28,300.18A5,5 0 1 1 718.28,300.18A5,5 0 1 1 728.28,300.18Z" style="fill:#FF7AB4" />
<path d="M757.59,280.39A5,5 0 1 1 747.59,280.39A5,5 0 1 1 757.59,280.39Z" style="fill:#FF7AB4" />
<path d="M786.9,209.87A5,5 0 1 1 776.9,209.87A5,5 0 1 1 786.9,209.87Z" style="fill:#FF7AB4" />
<path d="M816.21,173.74A5,5 0 1 1 806.21,173.74A5,5 0 1 1 816.21,173.74Z" style="fill:#FF7AB4" />
<path d="M845.52,171.9A5,5 0 1 1 835.52,171.9A5,5 0 1 1 845.52,171.9Z" style="fill:#FF7AB4" />
<path d="M874.83,142.21A5,5 0 1 1 864.83,142.21A5,5 0 1 1 874.83,142.21Z" style="fill:#FF7AB4" />
<path d="M904.14,177.19A5,5 0 1 1 894.14,177.19A5,5 0 1 1 904.14,177.19Z" style="fill:#FF7AB4" />
<path d="M933.45,181.8A5,5 0 1 1 923.45,181.8A5,5 0 1 1 933.45,181.8Z" style="fill:#FF7AB4" />
<path d="M962.76,169.67A5,5 0 1 1 952.76,169.67A5,5 0 1 1 962.76,169.67Z" style="fill:#FF7AB4" />
<path d="M992.07,163.71A5,5 0 1 1 982.07,163.71A5,5 0 1 1 992.07,163.71Z" style="fill:#FF7AB4" />
<path d="M1021.4,157.99A5,5 0 1 1 1011.4,157.99A5,5 0 1 1 1021.4,157.99Z" style="fill:#FF7AB4" />
<path d="M1050.7,165.43A5,5 0 1 1 1040.7,165.43A5,5 0 1 1 1050.7,165.43Z" style="fill:#FF7AB4" />
<path d="M1080,166.21A5,5 0 1 1 1070,166.21A5,5 0 1 1 1080,166.21Z" style="fill:#FF7AB4" />
<path d="M195.71,974.14L1075,974.14" style="fill:none;stroke:#000000" />
<path d="M1075,108.82L1075,974.14" style="fill:none;stroke:#000000" />
<path d="M1038,942.02A8,8 0 1 1 1022,942.02A8,8 0 1 1 1038,942.02Z" style="fill:#1FD3AC" />
<text x="829.57" y="-933.54" transform="scale(1, -1)"
	style="font-family:Helvetica;font-weight:normal;font-style:normal;font-size:36px">1um TeO2</text>
<path d="M1038,900.61A8,8 0 1 1 1022,900.61A8,8 0 1 1 1038,900.61Z" style="fill:#FF7AB4" />
<text x="828.9" y="-892.13" transform="scale(1, -1)"
	style="font-family:Helvetica;font-weight:normal;font-style:normal;font-size:36px">no sample</text>
</g>
</svg>
