<?xml version="1.0"?>
<!-- Generated by SVGo and Plotinum VG -->
<svg width="1080pt" height="1080pt" viewBox="0 0 1080 1080"
	xmlns="http://www.w3.org/2000/svg"
	xmlns:xlink="http://www.w3.org/1999/xlink">
<g transform="scale(1, -1) translate(0, -1080)">
<path d="M0,0L1080,0L1080,1080L0,1080Z" style="fill:#-8000000000000000-8000000000000000-8000000000000000;fill-opacity:0" />
<text x="533.05" y="-1039.5" transform="scale(1, -1)"
	style="font-family:Helvetica;font-weight:normal;font-style:normal;font-size:50px"> </text>
<text x="498.07" y="-11.039" transform="scale(1, -1)"
	style="font-family:Helvetica;font-weight:normal;font-style:normal;font-size:36px">Power (mW)</text>
<text x="236.58" y="-71.258" transform="scale(1, -1)"
	style="font-family:Helvetica;font-weight:normal;font-style:normal;font-size:36px">0</text>
<text x="427.41" y="-71.258" transform="scale(1, -1)"
	style="font-family:Helvetica;font-weight:normal;font-style:normal;font-size:36px">50</text>
<text x="618.25" y="-71.258" transform="scale(1, -1)"
	style="font-family:Helvetica;font-weight:normal;font-style:normal;font-size:36px">100</text>
<text x="819.09" y="-71.258" transform="scale(1, -1)"
	style="font-family:Helvetica;font-weight:normal;font-style:normal;font-size:36px">150</text>
<text x="1019.9" y="-71.258" transform="scale(1, -1)"
	style="font-family:Helvetica;font-weight:normal;font-style:normal;font-size:36px">200</text>
<path d="M146.16,112.44L146.16,108.44" style="fill:none;stroke:#000000;stroke-width:1.5" />
<path d="M246.59,116.44L246.59,108.44" style="fill:none;stroke:#000000;stroke-width:1.5" />
<path d="M347.01,112.44L347.01,108.44" style="fill:none;stroke:#000000;stroke-width:1.5" />
<path d="M447.43,116.44L447.43,108.44" style="fill:none;stroke:#000000;stroke-width:1.5" />
<path d="M547.85,112.44L547.85,108.44" style="fill:none;stroke:#000000;stroke-width:1.5" />
<path d="M648.28,116.44L648.28,108.44" style="fill:none;stroke:#000000;stroke-width:1.5" />
<path d="M748.7,112.44L748.7,108.44" style="fill:none;stroke:#000000;stroke-width:1.5" />
<path d="M849.12,116.44L849.12,108.44" style="fill:none;stroke:#000000;stroke-width:1.5" />
<path d="M949.55,112.44L949.55,108.44" style="fill:none;stroke:#000000;stroke-width:1.5" />
<path d="M1050,116.44L1050,108.44" style="fill:none;stroke:#000000;stroke-width:1.5" />
<path d="M146.16,108.44L1050,108.44" style="fill:none;stroke:#000000;stroke-width:1.5" />
<g transform="rotate(90)">
<text x="354.18" y="29.18" transform="scale(1, -1)"
	style="font-family:Helvetica;font-weight:normal;font-style:normal;font-size:36px">Dissipation Rate (MHz)</text>
</g>
<text x="87.869" y="-250.89" transform="scale(1, -1)"
	style="font-family:Helvetica;font-weight:normal;font-style:normal;font-size:36px">80</text>
<text x="87.869" y="-318.68" transform="scale(1, -1)"
	style="font-family:Helvetica;font-weight:normal;font-style:normal;font-size:36px">90</text>
<text x="67.848" y="-386.47" transform="scale(1, -1)"
	style="font-family:Helvetica;font-weight:normal;font-style:normal;font-size:36px">100</text>
<text x="70.52" y="-454.26" transform="scale(1, -1)"
	style="font-family:Helvetica;font-weight:normal;font-style:normal;font-size:36px">110</text>
<path d="M149.91,226.07L145.91,226.07" style="fill:none;stroke:#000000;stroke-width:1.5" />
<path d="M153.91,259.96L145.91,259.96" style="fill:none;stroke:#000000;stroke-width:1.5" />
<path d="M149.91,293.85L145.91,293.85" style="fill:none;stroke:#000000;stroke-width:1.5" />
<path d="M153.91,327.75L145.91,327.75" style="fill:none;stroke:#000000;stroke-width:1.5" />
<path d="M149.91,361.64L145.91,361.64" style="fill:none;stroke:#000000;stroke-width:1.5" />
<path d="M153.91,395.54L145.91,395.54" style="fill:none;stroke:#000000;stroke-width:1.5" />
<path d="M149.91,429.43L145.91,429.43" style="fill:none;stroke:#000000;stroke-width:1.5" />
<path d="M153.91,463.33L145.91,463.33" style="fill:none;stroke:#000000;stroke-width:1.5" />
<path d="M145.91,110.32L145.91,968.14" style="fill:none;stroke:#000000;stroke-width:1.5" />
<path d="M286.76,320.16L326.92,323.53L367.09,326.89L407.26,330.25L447.43,333.62L487.6,336.98L527.77,340.34L567.94,343.7L608.11,347.07L648.28,350.43L688.45,353.79L728.62,357.15L768.78,360.52L808.95,363.88L849.12,367.24L889.29,370.6L929.46,373.97" style="fill:none;stroke:#637CC6;stroke-width:3" />
<path d="M146.16,463.33L1050,463.33" style="fill:none;stroke:#000000" />
<path d="M1050,226.07L1050,463.33" style="fill:none;stroke:#000000" />
<path d="M286.76,337.75L326.92,337.65L367.09,337.54L407.26,337.44L447.43,337.33L487.6,337.23L527.77,337.12L567.94,337.02L608.11,336.91L648.28,336.81L688.45,336.71L728.62,336.6L768.78,336.5L808.95,336.39L849.12,336.29L889.29,336.18L929.46,336.08" style="fill:none;stroke:#C96892;stroke-width:3" />
<path d="M246.59,324.36L246.59,324.36" style="fill:none;stroke:#627BC5;stroke-opacity:0.4902;stroke-width:3;stroke-dasharray:15,5" />
<path d="M246.59,324.36L246.59,324.36" style="fill:none;stroke:#C86791;stroke-opacity:0.4902;stroke-width:3;stroke-dasharray:15,5" />
<path d="M292.76,288.19A6,6 0 1 1 280.76,288.19A6,6 0 1 1 292.76,288.19Z" style="fill:#637CC6" />
<path d="M332.92,329.11A6,6 0 1 1 320.92,329.11A6,6 0 1 1 332.92,329.11Z" style="fill:#637CC6" />
<path d="M373.09,331.74A6,6 0 1 1 361.09,331.74A6,6 0 1 1 373.09,331.74Z" style="fill:#637CC6" />
<path d="M413.26,335.97A6,6 0 1 1 401.26,335.97A6,6 0 1 1 413.26,335.97Z" style="fill:#637CC6" />
<path d="M453.43,336.18A6,6 0 1 1 441.43,336.18A6,6 0 1 1 453.43,336.18Z" style="fill:#637CC6" />
<path d="M493.6,338.3A6,6 0 1 1 481.6,338.3A6,6 0 1 1 493.6,338.3Z" style="fill:#637CC6" />
<path d="M533.77,354.2A6,6 0 1 1 521.77,354.2A6,6 0 1 1 533.77,354.2Z" style="fill:#637CC6" />
<path d="M573.94,346.76A6,6 0 1 1 561.94,346.76A6,6 0 1 1 573.94,346.76Z" style="fill:#637CC6" />
<path d="M614.11,351.17A6,6 0 1 1 602.11,351.17A6,6 0 1 1 614.11,351.17Z" style="fill:#637CC6" />
<path d="M654.28,355.32A6,6 0 1 1 642.28,355.32A6,6 0 1 1 654.28,355.32Z" style="fill:#637CC6" />
<path d="M694.45,357.98A6,6 0 1 1 682.45,357.98A6,6 0 1 1 694.45,357.98Z" style="fill:#637CC6" />
<path d="M734.62,359.5A6,6 0 1 1 722.62,359.5A6,6 0 1 1 734.62,359.5Z" style="fill:#637CC6" />
<path d="M774.78,359.47A6,6 0 1 1 762.78,359.47A6,6 0 1 1 774.78,359.47Z" style="fill:#637CC6" />
<path d="M814.95,357.42A6,6 0 1 1 802.95,357.42A6,6 0 1 1 814.95,357.42Z" style="fill:#637CC6" />
<path d="M855.12,366.72A6,6 0 1 1 843.12,366.72A6,6 0 1 1 855.12,366.72Z" style="fill:#637CC6" />
<path d="M895.29,365.39A6,6 0 1 1 883.29,365.39A6,6 0 1 1 895.29,365.39Z" style="fill:#637CC6" />
<path d="M935.46,366.69A6,6 0 1 1 923.46,366.69A6,6 0 1 1 935.46,366.69Z" style="fill:#637CC6" />
<path d="M292.76,290.6A6,6 0 1 1 280.76,290.6A6,6 0 1 1 292.76,290.6Z" style="fill:#C96892" />
<path d="M332.92,305.17A6,6 0 1 1 320.92,305.17A6,6 0 1 1 332.92,305.17Z" style="fill:#C96892" />
<path d="M373.09,317.95A6,6 0 1 1 361.09,317.95A6,6 0 1 1 373.09,317.95Z" style="fill:#C96892" />
<path d="M413.26,322.18A6,6 0 1 1 401.26,322.18A6,6 0 1 1 413.26,322.18Z" style="fill:#C96892" />
<path d="M453.43,317.84A6,6 0 1 1 441.43,317.84A6,6 0 1 1 453.43,317.84Z" style="fill:#C96892" />
<path d="M493.6,317.64A6,6 0 1 1 481.6,317.64A6,6 0 1 1 493.6,317.64Z" style="fill:#C96892" />
<path d="M533.77,317.49A6,6 0 1 1 521.77,317.49A6,6 0 1 1 533.77,317.49Z" style="fill:#C96892" />
<path d="M573.94,312.54A6,6 0 1 1 561.94,312.54A6,6 0 1 1 573.94,312.54Z" style="fill:#C96892" />
<path d="M614.11,312.47A6,6 0 1 1 602.11,312.47A6,6 0 1 1 614.11,312.47Z" style="fill:#C96892" />
<path d="M654.28,313.62A6,6 0 1 1 642.28,313.62A6,6 0 1 1 654.28,313.62Z" style="fill:#C96892" />
<path d="M694.45,968.14A6,6 0 1 1 682.45,968.14A6,6 0 1 1 694.45,968.14Z" style="fill:#C96892" />
<path d="M734.62,307.9A6,6 0 1 1 722.62,307.9A6,6 0 1 1 734.62,307.9Z" style="fill:#C96892" />
<path d="M774.78,304.13A6,6 0 1 1 762.78,304.13A6,6 0 1 1 774.78,304.13Z" style="fill:#C96892" />
<path d="M814.95,305.47A6,6 0 1 1 802.95,305.47A6,6 0 1 1 814.95,305.47Z" style="fill:#C96892" />
<path d="M855.12,110.32A6,6 0 1 1 843.12,110.32A6,6 0 1 1 855.12,110.32Z" style="fill:#C96892" />
<path d="M895.29,303.5A6,6 0 1 1 883.29,303.5A6,6 0 1 1 895.29,303.5Z" style="fill:#C96892" />
<path d="M935.46,300.6A6,6 0 1 1 923.46,300.6A6,6 0 1 1 935.46,300.6Z" style="fill:#C96892" />
<path d="M183.66,929.52L233.66,929.52" style="fill:none;stroke:#637CC6;stroke-width:3" />
<text x="243.67" y="-921.04" transform="scale(1, -1)"
	style="font-family:Helvetica;font-weight:normal;font-style:normal;font-size:36px">Anti-Stokes</text>
<path d="M183.66,888.11L233.66,888.11" style="fill:none;stroke:#627BC5;stroke-opacity:0.4902;stroke-width:3;stroke-dasharray:15,5" />
<text x="243.67" y="-879.63" transform="scale(1, -1)"
	style="font-family:Helvetica;font-weight:normal;font-style:normal;font-size:36px">Γ as,eff</text>
<path d="M183.66,846.7L233.66,846.7" style="fill:none;stroke:#C96892;stroke-width:3" />
<text x="243.67" y="-838.22" transform="scale(1, -1)"
	style="font-family:Helvetica;font-weight:normal;font-style:normal;font-size:36px">Stokes</text>
<path d="M183.66,805.29L233.66,805.29" style="fill:none;stroke:#C86791;stroke-opacity:0.4902;stroke-width:3;stroke-dasharray:15,5" />
<text x="243.67" y="-796.8" transform="scale(1, -1)"
	style="font-family:Helvetica;font-weight:normal;font-style:normal;font-size:36px">Γ s,eff</text>
</g>
</svg>
