<?xml version="1.0"?>
<!-- Generated by SVGo and Plotinum VG -->
<svg width="1080pt" height="1080pt" viewBox="0 0 1080 1080"
	xmlns="http://www.w3.org/2000/svg"
	xmlns:xlink="http://www.w3.org/1999/xlink">
<g transform="scale(1, -1) translate(0, -1080)">
<path d="M0,0L1080,0L1080,1080L0,1080Z" style="fill:#-8000000000000000-8000000000000000-8000000000000000;fill-opacity:0" />
<text x="339.41" y="-1039.5" transform="scale(1, -1)"
	style="font-family:Helvetica;font-weight:normal;font-style:normal;font-size:50px">10 μm CS2 CABS</text>
<text x="477.24" y="-11.039" transform="scale(1, -1)"
	style="font-family:Helvetica;font-weight:normal;font-style:normal;font-size:36px">Frequency (GHz)</text>
<text x="163.53" y="-71.258" transform="scale(1, -1)"
	style="font-family:Helvetica;font-weight:normal;font-style:normal;font-size:36px">2.42</text>
<text x="228.64" y="-71.258" transform="scale(1, -1)"
	style="font-family:Helvetica;font-weight:normal;font-style:normal;font-size:36px">2.44</text>
<text x="293.75" y="-71.258" transform="scale(1, -1)"
	style="font-family:Helvetica;font-weight:normal;font-style:normal;font-size:36px">2.46</text>
<text x="358.86" y="-71.258" transform="scale(1, -1)"
	style="font-family:Helvetica;font-weight:normal;font-style:normal;font-size:36px">2.48</text>
<text x="423.96" y="-71.258" transform="scale(1, -1)"
	style="font-family:Helvetica;font-weight:normal;font-style:normal;font-size:36px">2.50</text>
<text x="489.07" y="-71.258" transform="scale(1, -1)"
	style="font-family:Helvetica;font-weight:normal;font-style:normal;font-size:36px">2.52</text>
<text x="554.18" y="-71.258" transform="scale(1, -1)"
	style="font-family:Helvetica;font-weight:normal;font-style:normal;font-size:36px">2.54</text>
<text x="619.29" y="-71.258" transform="scale(1, -1)"
	style="font-family:Helvetica;font-weight:normal;font-style:normal;font-size:36px">2.56</text>
<text x="684.39" y="-71.258" transform="scale(1, -1)"
	style="font-family:Helvetica;font-weight:normal;font-style:normal;font-size:36px">2.58</text>
<text x="749.5" y="-71.258" transform="scale(1, -1)"
	style="font-family:Helvetica;font-weight:normal;font-style:normal;font-size:36px">2.60</text>
<text x="814.61" y="-71.258" transform="scale(1, -1)"
	style="font-family:Helvetica;font-weight:normal;font-style:normal;font-size:36px">2.62</text>
<text x="879.72" y="-71.258" transform="scale(1, -1)"
	style="font-family:Helvetica;font-weight:normal;font-style:normal;font-size:36px">2.64</text>
<text x="944.83" y="-71.258" transform="scale(1, -1)"
	style="font-family:Helvetica;font-weight:normal;font-style:normal;font-size:36px">2.66</text>
<text x="1009.9" y="-71.258" transform="scale(1, -1)"
	style="font-family:Helvetica;font-weight:normal;font-style:normal;font-size:36px">2.68</text>
<path d="M198.57,116.44L198.57,108.44" style="fill:none;stroke:#000000;stroke-width:1.5" />
<path d="M231.12,112.44L231.12,108.44" style="fill:none;stroke:#000000;stroke-width:1.5" />
<path d="M263.67,116.44L263.67,108.44" style="fill:none;stroke:#000000;stroke-width:1.5" />
<path d="M296.23,112.44L296.23,108.44" style="fill:none;stroke:#000000;stroke-width:1.5" />
<path d="M328.78,116.44L328.78,108.44" style="fill:none;stroke:#000000;stroke-width:1.5" />
<path d="M361.34,112.44L361.34,108.44" style="fill:none;stroke:#000000;stroke-width:1.5" />
<path d="M393.89,116.44L393.89,108.44" style="fill:none;stroke:#000000;stroke-width:1.5" />
<path d="M426.44,112.44L426.44,108.44" style="fill:none;stroke:#000000;stroke-width:1.5" />
<path d="M459,116.44L459,108.44" style="fill:none;stroke:#000000;stroke-width:1.5" />
<path d="M491.55,112.44L491.55,108.44" style="fill:none;stroke:#000000;stroke-width:1.5" />
<path d="M524.1,116.44L524.1,108.44" style="fill:none;stroke:#000000;stroke-width:1.5" />
<path d="M556.66,112.44L556.66,108.44" style="fill:none;stroke:#000000;stroke-width:1.5" />
<path d="M589.21,116.44L589.21,108.44" style="fill:none;stroke:#000000;stroke-width:1.5" />
<path d="M621.77,112.44L621.77,108.44" style="fill:none;stroke:#000000;stroke-width:1.5" />
<path d="M654.32,116.44L654.32,108.44" style="fill:none;stroke:#000000;stroke-width:1.5" />
<path d="M686.87,112.44L686.87,108.44" style="fill:none;stroke:#000000;stroke-width:1.5" />
<path d="M719.43,116.44L719.43,108.44" style="fill:none;stroke:#000000;stroke-width:1.5" />
<path d="M751.98,112.44L751.98,108.44" style="fill:none;stroke:#000000;stroke-width:1.5" />
<path d="M784.54,116.44L784.54,108.44" style="fill:none;stroke:#000000;stroke-width:1.5" />
<path d="M817.09,112.44L817.09,108.44" style="fill:none;stroke:#000000;stroke-width:1.5" />
<path d="M849.64,116.44L849.64,108.44" style="fill:none;stroke:#000000;stroke-width:1.5" />
<path d="M882.2,112.44L882.2,108.44" style="fill:none;stroke:#000000;stroke-width:1.5" />
<path d="M914.75,116.44L914.75,108.44" style="fill:none;stroke:#000000;stroke-width:1.5" />
<path d="M947.31,112.44L947.31,108.44" style="fill:none;stroke:#000000;stroke-width:1.5" />
<path d="M979.86,116.44L979.86,108.44" style="fill:none;stroke:#000000;stroke-width:1.5" />
<path d="M1012.4,112.44L1012.4,108.44" style="fill:none;stroke:#000000;stroke-width:1.5" />
<path d="M1045,116.44L1045,108.44" style="fill:none;stroke:#000000;stroke-width:1.5" />
<path d="M167.65,108.44L1062.9,108.44" style="fill:none;stroke:#000000;stroke-width:1.5" />
<g transform="rotate(90)">
<text x="371.42" y="29.18" transform="scale(1, -1)"
	style="font-family:Helvetica;font-weight:normal;font-style:normal;font-size:36px">Spectral Density (uV)</text>
</g>
<text x="67.848" y="-207.91" transform="scale(1, -1)"
	style="font-family:Helvetica;font-weight:normal;font-style:normal;font-size:36px">-2.77</text>
<text x="67.848" y="-424.24" transform="scale(1, -1)"
	style="font-family:Helvetica;font-weight:normal;font-style:normal;font-size:36px">-0.86</text>
<text x="79.836" y="-640.57" transform="scale(1, -1)"
	style="font-family:Helvetica;font-weight:normal;font-style:normal;font-size:36px">1.06</text>
<text x="79.836" y="-856.9" transform="scale(1, -1)"
	style="font-family:Helvetica;font-weight:normal;font-style:normal;font-size:36px">2.98</text>
<path d="M171.9,108.82L167.9,108.82" style="fill:none;stroke:#000000;stroke-width:1.5" />
<path d="M175.9,216.98L167.9,216.98" style="fill:none;stroke:#000000;stroke-width:1.5" />
<path d="M171.9,325.15L167.9,325.15" style="fill:none;stroke:#000000;stroke-width:1.5" />
<path d="M175.9,433.31L167.9,433.31" style="fill:none;stroke:#000000;stroke-width:1.5" />
<path d="M171.9,541.48L167.9,541.48" style="fill:none;stroke:#000000;stroke-width:1.5" />
<path d="M175.9,649.64L167.9,649.64" style="fill:none;stroke:#000000;stroke-width:1.5" />
<path d="M171.9,757.81L167.9,757.81" style="fill:none;stroke:#000000;stroke-width:1.5" />
<path d="M175.9,865.98L167.9,865.98" style="fill:none;stroke:#000000;stroke-width:1.5" />
<path d="M171.9,974.14L167.9,974.14" style="fill:none;stroke:#000000;stroke-width:1.5" />
<path d="M171.9,974.14L167.9,974.14" style="fill:none;stroke:#000000;stroke-width:1.5" />
<path d="M167.9,108.82L167.9,974.14" style="fill:none;stroke:#000000;stroke-width:1.5" />
<path d="M167.65,522.82L167.65,591.31" style="fill:none;stroke:#1FD3AC" />
<path d="M165.15,522.82L170.15,522.82" style="fill:none;stroke:#1FD3AC" />
<path d="M165.15,591.31L170.15,591.31" style="fill:none;stroke:#1FD3AC" />
<path d="M203.46,274.16L203.46,711.98" style="fill:none;stroke:#1FD3AC" />
<path d="M200.96,274.16L205.96,274.16" style="fill:none;stroke:#1FD3AC" />
<path d="M200.96,711.98L205.96,711.98" style="fill:none;stroke:#1FD3AC" />
<path d="M239.27,439.52L239.27,656.11" style="fill:none;stroke:#1FD3AC" />
<path d="M236.77,439.52L241.77,439.52" style="fill:none;stroke:#1FD3AC" />
<path d="M236.77,656.11L241.77,656.11" style="fill:none;stroke:#1FD3AC" />
<path d="M275.08,766.5L275.08,776.97" style="fill:none;stroke:#1FD3AC" />
<path d="M272.58,766.5L277.58,766.5" style="fill:none;stroke:#1FD3AC" />
<path d="M272.58,776.97L277.58,776.97" style="fill:none;stroke:#1FD3AC" />
<path d="M310.89,272.05L310.89,319.54" style="fill:none;stroke:#1FD3AC" />
<path d="M308.39,272.05L313.39,272.05" style="fill:none;stroke:#1FD3AC" />
<path d="M308.39,319.54L313.39,319.54" style="fill:none;stroke:#1FD3AC" />
<path d="M346.7,317.48L346.7,368.09" style="fill:none;stroke:#1FD3AC" />
<path d="M344.2,317.48L349.2,317.48" style="fill:none;stroke:#1FD3AC" />
<path d="M344.2,368.09L349.2,368.09" style="fill:none;stroke:#1FD3AC" />
<path d="M382.51,129.54L382.51,151.53" style="fill:none;stroke:#1FD3AC" />
<path d="M380.01,129.54L385.01,129.54" style="fill:none;stroke:#1FD3AC" />
<path d="M380.01,151.53L385.01,151.53" style="fill:none;stroke:#1FD3AC" />
<path d="M418.32,320.12L418.32,580.21" style="fill:none;stroke:#1FD3AC" />
<path d="M415.82,320.12L420.82,320.12" style="fill:none;stroke:#1FD3AC" />
<path d="M415.82,580.21L420.82,580.21" style="fill:none;stroke:#1FD3AC" />
<path d="M454.13,448.45L454.13,500.29" style="fill:none;stroke:#1FD3AC" />
<path d="M451.63,448.45L456.63,448.45" style="fill:none;stroke:#1FD3AC" />
<path d="M451.63,500.29L456.63,500.29" style="fill:none;stroke:#1FD3AC" />
<path d="M489.94,356.23L489.94,545.8" style="fill:none;stroke:#1FD3AC" />
<path d="M487.44,356.23L492.44,356.23" style="fill:none;stroke:#1FD3AC" />
<path d="M487.44,545.8L492.44,545.8" style="fill:none;stroke:#1FD3AC" />
<path d="M525.75,146.06L525.75,304.85" style="fill:none;stroke:#1FD3AC" />
<path d="M523.25,146.06L528.25,146.06" style="fill:none;stroke:#1FD3AC" />
<path d="M523.25,304.85L528.25,304.85" style="fill:none;stroke:#1FD3AC" />
<path d="M561.56,265.97L561.56,568.68" style="fill:none;stroke:#1FD3AC" />
<path d="M559.06,265.97L564.06,265.97" style="fill:none;stroke:#1FD3AC" />
<path d="M559.06,568.68L564.06,568.68" style="fill:none;stroke:#1FD3AC" />
<path d="M597.37,384.95L597.37,621.69" style="fill:none;stroke:#1FD3AC" />
<path d="M594.87,384.95L599.87,384.95" style="fill:none;stroke:#1FD3AC" />
<path d="M594.87,621.69L599.87,621.69" style="fill:none;stroke:#1FD3AC" />
<path d="M633.17,411.75L633.17,415.7" style="fill:none;stroke:#1FD3AC" />
<path d="M630.67,411.75L635.67,411.75" style="fill:none;stroke:#1FD3AC" />
<path d="M630.67,415.7L635.67,415.7" style="fill:none;stroke:#1FD3AC" />
<path d="M668.98,449.16L668.98,460.3" style="fill:none;stroke:#1FD3AC" />
<path d="M666.48,449.16L671.48,449.16" style="fill:none;stroke:#1FD3AC" />
<path d="M666.48,460.3L671.48,460.3" style="fill:none;stroke:#1FD3AC" />
<path d="M704.79,604.07L704.79,660.46" style="fill:none;stroke:#1FD3AC" />
<path d="M702.29,604.07L707.29,604.07" style="fill:none;stroke:#1FD3AC" />
<path d="M702.29,660.46L707.29,660.46" style="fill:none;stroke:#1FD3AC" />
<path d="M740.6,634.76L740.6,748.05" style="fill:none;stroke:#1FD3AC" />
<path d="M738.1,634.76L743.1,634.76" style="fill:none;stroke:#1FD3AC" />
<path d="M738.1,748.05L743.1,748.05" style="fill:none;stroke:#1FD3AC" />
<path d="M776.41,140.48L776.41,356.5" style="fill:none;stroke:#1FD3AC" />
<path d="M773.91,140.48L778.91,140.48" style="fill:none;stroke:#1FD3AC" />
<path d="M773.91,356.5L778.91,356.5" style="fill:none;stroke:#1FD3AC" />
<path d="M812.22,293.89L812.22,368.68" style="fill:none;stroke:#1FD3AC" />
<path d="M809.72,293.89L814.72,293.89" style="fill:none;stroke:#1FD3AC" />
<path d="M809.72,368.68L814.72,368.68" style="fill:none;stroke:#1FD3AC" />
<path d="M848.03,554.56L848.03,640.81" style="fill:none;stroke:#1FD3AC" />
<path d="M845.53,554.56L850.53,554.56" style="fill:none;stroke:#1FD3AC" />
<path d="M845.53,640.81L850.53,640.81" style="fill:none;stroke:#1FD3AC" />
<path d="M883.84,360.81L883.84,510.59" style="fill:none;stroke:#1FD3AC" />
<path d="M881.34,360.81L886.34,360.81" style="fill:none;stroke:#1FD3AC" />
<path d="M881.34,510.59L886.34,510.59" style="fill:none;stroke:#1FD3AC" />
<path d="M919.65,336.14L919.65,410.57" style="fill:none;stroke:#1FD3AC" />
<path d="M917.15,336.14L922.15,336.14" style="fill:none;stroke:#1FD3AC" />
<path d="M917.15,410.57L922.15,410.57" style="fill:none;stroke:#1FD3AC" />
<path d="M955.46,537.91L955.46,688.89" style="fill:none;stroke:#1FD3AC" />
<path d="M952.96,537.91L957.96,537.91" style="fill:none;stroke:#1FD3AC" />
<path d="M952.96,688.89L957.96,688.89" style="fill:none;stroke:#1FD3AC" />
<path d="M991.27,560.43L991.27,676.97" style="fill:none;stroke:#1FD3AC" />
<path d="M988.77,560.43L993.77,560.43" style="fill:none;stroke:#1FD3AC" />
<path d="M988.77,676.97L993.77,676.97" style="fill:none;stroke:#1FD3AC" />
<path d="M1027.1,485.38L1027.1,810.31" style="fill:none;stroke:#1FD3AC" />
<path d="M1024.6,485.38L1029.6,485.38" style="fill:none;stroke:#1FD3AC" />
<path d="M1024.6,810.31L1029.6,810.31" style="fill:none;stroke:#1FD3AC" />
<path d="M1062.9,419.41L1062.9,665.45" style="fill:none;stroke:#1FD3AC" />
<path d="M1060.4,419.41L1065.4,419.41" style="fill:none;stroke:#1FD3AC" />
<path d="M1060.4,665.45L1065.4,665.45" style="fill:none;stroke:#1FD3AC" />
<path d="M172.65,557.06A5,5 0 1 1 162.65,557.06A5,5 0 1 1 172.65,557.06Z" style="fill:#1FD3AC" />
<path d="M208.46,493.07A5,5 0 1 1 198.46,493.07A5,5 0 1 1 208.46,493.07Z" style="fill:#1FD3AC" />
<path d="M244.27,547.81A5,5 0 1 1 234.27,547.81A5,5 0 1 1 244.27,547.81Z" style="fill:#1FD3AC" />
<path d="M280.08,771.74A5,5 0 1 1 270.08,771.74A5,5 0 1 1 280.08,771.74Z" style="fill:#1FD3AC" />
<path d="M315.89,295.8A5,5 0 1 1 305.89,295.8A5,5 0 1 1 315.89,295.8Z" style="fill:#1FD3AC" />
<path d="M351.7,342.79A5,5 0 1 1 341.7,342.79A5,5 0 1 1 351.7,342.79Z" style="fill:#1FD3AC" />
<path d="M387.51,140.54A5,5 0 1 1 377.51,140.54A5,5 0 1 1 387.51,140.54Z" style="fill:#1FD3AC" />
<path d="M423.32,450.16A5,5 0 1 1 413.32,450.16A5,5 0 1 1 423.32,450.16Z" style="fill:#1FD3AC" />
<path d="M459.13,474.37A5,5 0 1 1 449.13,474.37A5,5 0 1 1 459.13,474.37Z" style="fill:#1FD3AC" />
<path d="M494.94,451.02A5,5 0 1 1 484.94,451.02A5,5 0 1 1 494.94,451.02Z" style="fill:#1FD3AC" />
<path d="M530.75,225.45A5,5 0 1 1 520.75,225.45A5,5 0 1 1 530.75,225.45Z" style="fill:#1FD3AC" />
<path d="M566.56,417.32A5,5 0 1 1 556.56,417.32A5,5 0 1 1 566.56,417.32Z" style="fill:#1FD3AC" />
<path d="M602.37,503.32A5,5 0 1 1 592.37,503.32A5,5 0 1 1 602.37,503.32Z" style="fill:#1FD3AC" />
<path d="M638.17,413.73A5,5 0 1 1 628.17,413.73A5,5 0 1 1 638.17,413.73Z" style="fill:#1FD3AC" />
<path d="M673.98,454.73A5,5 0 1 1 663.98,454.73A5,5 0 1 1 673.98,454.73Z" style="fill:#1FD3AC" />
<path d="M709.79,632.26A5,5 0 1 1 699.79,632.26A5,5 0 1 1 709.79,632.26Z" style="fill:#1FD3AC" />
<path d="M745.6,691.41A5,5 0 1 1 735.6,691.41A5,5 0 1 1 745.6,691.41Z" style="fill:#1FD3AC" />
<path d="M781.41,248.49A5,5 0 1 1 771.41,248.49A5,5 0 1 1 781.41,248.49Z" style="fill:#1FD3AC" />
<path d="M817.22,331.28A5,5 0 1 1 807.22,331.28A5,5 0 1 1 817.22,331.28Z" style="fill:#1FD3AC" />
<path d="M853.03,597.68A5,5 0 1 1 843.03,597.68A5,5 0 1 1 853.03,597.68Z" style="fill:#1FD3AC" />
<path d="M888.84,435.7A5,5 0 1 1 878.84,435.7A5,5 0 1 1 888.84,435.7Z" style="fill:#1FD3AC" />
<path d="M924.65,373.35A5,5 0 1 1 914.65,373.35A5,5 0 1 1 924.65,373.35Z" style="fill:#1FD3AC" />
<path d="M960.46,613.4A5,5 0 1 1 950.46,613.4A5,5 0 1 1 960.46,613.4Z" style="fill:#1FD3AC" />
<path d="M996.27,618.7A5,5 0 1 1 986.27,618.7A5,5 0 1 1 996.27,618.7Z" style="fill:#1FD3AC" />
<path d="M1032.1,647.84A5,5 0 1 1 1022.1,647.84A5,5 0 1 1 1032.1,647.84Z" style="fill:#1FD3AC" />
<path d="M1067.9,542.43A5,5 0 1 1 1057.9,542.43A5,5 0 1 1 1067.9,542.43Z" style="fill:#1FD3AC" />
<path d="M167.65,974.14L1062.9,974.14" style="fill:none;stroke:#000000" />
<path d="M1062.9,108.82L1062.9,974.14" style="fill:none;stroke:#000000" />
<path d="M1038,942.02A8,8 0 1 1 1022,942.02A8,8 0 1 1 1038,942.02Z" style="fill:#1FD3AC" />
</g>
</svg>
