<?xml version="1.0"?>
<!-- Generated by SVGo and Plotinum VG -->
<svg width="1080pt" height="1080pt" viewBox="0 0 1080 1080"
	xmlns="http://www.w3.org/2000/svg"
	xmlns:xlink="http://www.w3.org/1999/xlink">
<g transform="scale(1, -1) translate(0, -1080)">
<path d="M0,0L1080,0L1080,1080L0,1080Z" style="fill:#-8000000000000000-8000000000000000-8000000000000000;fill-opacity:0" />
<text x="412.17" y="-1039.5" transform="scale(1, -1)"
	style="font-family:Helvetica;font-weight:normal;font-style:normal;font-size:50px">Anti-Stokes</text>
<text x="452.53" y="-11.039" transform="scale(1, -1)"
	style="font-family:Helvetica;font-weight:normal;font-style:normal;font-size:36px">Frequency (GHz)</text>
<text x="116.13" y="-71.258" transform="scale(1, -1)"
	style="font-family:Helvetica;font-weight:normal;font-style:normal;font-size:36px">2</text>
<text x="286.89" y="-71.258" transform="scale(1, -1)"
	style="font-family:Helvetica;font-weight:normal;font-style:normal;font-size:36px">2.1</text>
<text x="472.65" y="-71.258" transform="scale(1, -1)"
	style="font-family:Helvetica;font-weight:normal;font-style:normal;font-size:36px">2.2</text>
<text x="658.42" y="-71.258" transform="scale(1, -1)"
	style="font-family:Helvetica;font-weight:normal;font-style:normal;font-size:36px">2.3</text>
<text x="844.19" y="-71.258" transform="scale(1, -1)"
	style="font-family:Helvetica;font-weight:normal;font-style:normal;font-size:36px">2.4</text>
<text x="1030" y="-71.258" transform="scale(1, -1)"
	style="font-family:Helvetica;font-weight:normal;font-style:normal;font-size:36px">2.5</text>
<path d="M126.14,116.44L126.14,108.44" style="fill:none;stroke:#000000;stroke-width:1.5" />
<path d="M219.03,112.44L219.03,108.44" style="fill:none;stroke:#000000;stroke-width:1.5" />
<path d="M311.91,116.44L311.91,108.44" style="fill:none;stroke:#000000;stroke-width:1.5" />
<path d="M404.79,112.44L404.79,108.44" style="fill:none;stroke:#000000;stroke-width:1.5" />
<path d="M497.68,116.44L497.68,108.44" style="fill:none;stroke:#000000;stroke-width:1.5" />
<path d="M590.56,112.44L590.56,108.44" style="fill:none;stroke:#000000;stroke-width:1.5" />
<path d="M683.44,116.44L683.44,108.44" style="fill:none;stroke:#000000;stroke-width:1.5" />
<path d="M776.33,112.44L776.33,108.44" style="fill:none;stroke:#000000;stroke-width:1.5" />
<path d="M869.21,116.44L869.21,108.44" style="fill:none;stroke:#000000;stroke-width:1.5" />
<path d="M962.09,112.44L962.09,108.44" style="fill:none;stroke:#000000;stroke-width:1.5" />
<path d="M1055,116.44L1055,108.44" style="fill:none;stroke:#000000;stroke-width:1.5" />
<path d="M126.14,108.44L1055,108.44" style="fill:none;stroke:#000000;stroke-width:1.5" />
<g transform="rotate(90)">
<text x="363.52" y="29.18" transform="scale(1, -1)"
	style="font-family:Helvetica;font-weight:normal;font-style:normal;font-size:36px">Spectral Density (nV)</text>
</g>
<text x="87.869" y="-238.33" transform="scale(1, -1)"
	style="font-family:Helvetica;font-weight:normal;font-style:normal;font-size:36px">0</text>
<text x="87.869" y="-381.42" transform="scale(1, -1)"
	style="font-family:Helvetica;font-weight:normal;font-style:normal;font-size:36px">5</text>
<text x="67.848" y="-524.51" transform="scale(1, -1)"
	style="font-family:Helvetica;font-weight:normal;font-style:normal;font-size:36px">10</text>
<text x="67.848" y="-667.59" transform="scale(1, -1)"
	style="font-family:Helvetica;font-weight:normal;font-style:normal;font-size:36px">15</text>
<text x="67.848" y="-810.68" transform="scale(1, -1)"
	style="font-family:Helvetica;font-weight:normal;font-style:normal;font-size:36px">20</text>
<text x="67.848" y="-953.77" transform="scale(1, -1)"
	style="font-family:Helvetica;font-weight:normal;font-style:normal;font-size:36px">25</text>
<path d="M133.89,247.4L125.89,247.4" style="fill:none;stroke:#000000;stroke-width:1.5" />
<path d="M133.89,390.49L125.89,390.49" style="fill:none;stroke:#000000;stroke-width:1.5" />
<path d="M133.89,533.58L125.89,533.58" style="fill:none;stroke:#000000;stroke-width:1.5" />
<path d="M133.89,676.66L125.89,676.66" style="fill:none;stroke:#000000;stroke-width:1.5" />
<path d="M133.89,819.75L125.89,819.75" style="fill:none;stroke:#000000;stroke-width:1.5" />
<path d="M133.89,962.84L125.89,962.84" style="fill:none;stroke:#000000;stroke-width:1.5" />
<path d="M125.89,104.32L125.89,962.84" style="fill:none;stroke:#000000;stroke-width:1.5" />
<path d="M133.79,242.75A3,3 0 1 1 127.79,242.75A3,3 0 1 1 133.79,242.75Z" style="fill:#5B1616" />
<path d="M143.08,242.59A3,3 0 1 1 137.08,242.59A3,3 0 1 1 143.08,242.59Z" style="fill:#5B1616" />
<path d="M152.36,242.14A3,3 0 1 1 146.36,242.14A3,3 0 1 1 152.36,242.14Z" style="fill:#5B1616" />
<path d="M161.65,246.86A3,3 0 1 1 155.65,246.86A3,3 0 1 1 161.65,246.86Z" style="fill:#5B1616" />
<path d="M170.94,247.41A3,3 0 1 1 164.94,247.41A3,3 0 1 1 170.94,247.41Z" style="fill:#5B1616" />
<path d="M180.23,244.76A3,3 0 1 1 174.23,244.76A3,3 0 1 1 180.23,244.76Z" style="fill:#5B1616" />
<path d="M189.52,242.98A3,3 0 1 1 183.52,242.98A3,3 0 1 1 189.52,242.98Z" style="fill:#5B1616" />
<path d="M198.81,244.53A3,3 0 1 1 192.81,244.53A3,3 0 1 1 198.81,244.53Z" style="fill:#5B1616" />
<path d="M208.09,249.33A3,3 0 1 1 202.09,249.33A3,3 0 1 1 208.09,249.33Z" style="fill:#5B1616" />
<path d="M217.38,246.55A3,3 0 1 1 211.38,246.55A3,3 0 1 1 217.38,246.55Z" style="fill:#5B1616" />
<path d="M226.67,247.15A3,3 0 1 1 220.67,247.15A3,3 0 1 1 226.67,247.15Z" style="fill:#5B1616" />
<path d="M235.96,251.23A3,3 0 1 1 229.96,251.23A3,3 0 1 1 235.96,251.23Z" style="fill:#5B1616" />
<path d="M245.25,249.22A3,3 0 1 1 239.25,249.22A3,3 0 1 1 245.25,249.22Z" style="fill:#5B1616" />
<path d="M254.54,252.13A3,3 0 1 1 248.54,252.13A3,3 0 1 1 254.54,252.13Z" style="fill:#5B1616" />
<path d="M263.82,251.54A3,3 0 1 1 257.82,251.54A3,3 0 1 1 263.82,251.54Z" style="fill:#5B1616" />
<path d="M273.11,256.31A3,3 0 1 1 267.11,256.31A3,3 0 1 1 273.11,256.31Z" style="fill:#5B1616" />
<path d="M282.4,252.99A3,3 0 1 1 276.4,252.99A3,3 0 1 1 282.4,252.99Z" style="fill:#5B1616" />
<path d="M291.69,258.22A3,3 0 1 1 285.69,258.22A3,3 0 1 1 291.69,258.22Z" style="fill:#5B1616" />
<path d="M300.98,259.51A3,3 0 1 1 294.98,259.51A3,3 0 1 1 300.98,259.51Z" style="fill:#5B1616" />
<path d="M310.27,260.61A3,3 0 1 1 304.27,260.61A3,3 0 1 1 310.27,260.61Z" style="fill:#5B1616" />
<path d="M319.55,265.07A3,3 0 1 1 313.55,265.07A3,3 0 1 1 319.55,265.07Z" style="fill:#5B1616" />
<path d="M328.84,265.9A3,3 0 1 1 322.84,265.9A3,3 0 1 1 328.84,265.9Z" style="fill:#5B1616" />
<path d="M338.13,268.92A3,3 0 1 1 332.13,268.92A3,3 0 1 1 338.13,268.92Z" style="fill:#5B1616" />
<path d="M347.42,269.65A3,3 0 1 1 341.42,269.65A3,3 0 1 1 347.42,269.65Z" style="fill:#5B1616" />
<path d="M356.71,266.8A3,3 0 1 1 350.71,266.8A3,3 0 1 1 356.71,266.8Z" style="fill:#5B1616" />
<path d="M366,272.72A3,3 0 1 1 360,272.72A3,3 0 1 1 366,272.72Z" style="fill:#5B1616" />
<path d="M375.28,272.75A3,3 0 1 1 369.28,272.75A3,3 0 1 1 375.28,272.75Z" style="fill:#5B1616" />
<path d="M384.57,272.03A3,3 0 1 1 378.57,272.03A3,3 0 1 1 384.57,272.03Z" style="fill:#5B1616" />
<path d="M393.86,269.65A3,3 0 1 1 387.86,269.65A3,3 0 1 1 393.86,269.65Z" style="fill:#5B1616" />
<path d="M403.15,270.37A3,3 0 1 1 397.15,270.37A3,3 0 1 1 403.15,270.37Z" style="fill:#5B1616" />
<path d="M412.44,270.33A3,3 0 1 1 406.44,270.33A3,3 0 1 1 412.44,270.33Z" style="fill:#5B1616" />
<path d="M421.73,271.1A3,3 0 1 1 415.73,271.1A3,3 0 1 1 421.73,271.1Z" style="fill:#5B1616" />
<path d="M431.01,268.31A3,3 0 1 1 425.01,268.31A3,3 0 1 1 431.01,268.31Z" style="fill:#5B1616" />
<path d="M440.3,272.54A3,3 0 1 1 434.3,272.54A3,3 0 1 1 440.3,272.54Z" style="fill:#5B1616" />
<path d="M449.59,272.9A3,3 0 1 1 443.59,272.9A3,3 0 1 1 449.59,272.9Z" style="fill:#5B1616" />
<path d="M458.88,273.16A3,3 0 1 1 452.88,273.16A3,3 0 1 1 458.88,273.16Z" style="fill:#5B1616" />
<path d="M468.17,270.82A3,3 0 1 1 462.17,270.82A3,3 0 1 1 468.17,270.82Z" style="fill:#5B1616" />
<path d="M477.46,274.5A3,3 0 1 1 471.46,274.5A3,3 0 1 1 477.46,274.5Z" style="fill:#5B1616" />
<path d="M486.74,282.66A3,3 0 1 1 480.74,282.66A3,3 0 1 1 486.74,282.66Z" style="fill:#5B1616" />
<path d="M496.03,284.87A3,3 0 1 1 490.03,284.87A3,3 0 1 1 496.03,284.87Z" style="fill:#5B1616" />
<path d="M505.32,287.2A3,3 0 1 1 499.32,287.2A3,3 0 1 1 505.32,287.2Z" style="fill:#5B1616" />
<path d="M514.61,286.25A3,3 0 1 1 508.61,286.25A3,3 0 1 1 514.61,286.25Z" style="fill:#5B1616" />
<path d="M523.9,294.82A3,3 0 1 1 517.9,294.82A3,3 0 1 1 523.9,294.82Z" style="fill:#5B1616" />
<path d="M533.19,297.03A3,3 0 1 1 527.19,297.03A3,3 0 1 1 533.19,297.03Z" style="fill:#5B1616" />
<path d="M542.47,305.23A3,3 0 1 1 536.47,305.23A3,3 0 1 1 542.47,305.23Z" style="fill:#5B1616" />
<path d="M551.76,309.08A3,3 0 1 1 545.76,309.08A3,3 0 1 1 551.76,309.08Z" style="fill:#5B1616" />
<path d="M561.05,319.93A3,3 0 1 1 555.05,319.93A3,3 0 1 1 561.05,319.93Z" style="fill:#5B1616" />
<path d="M570.34,324.56A3,3 0 1 1 564.34,324.56A3,3 0 1 1 570.34,324.56Z" style="fill:#5B1616" />
<path d="M579.63,324.94A3,3 0 1 1 573.63,324.94A3,3 0 1 1 579.63,324.94Z" style="fill:#5B1616" />
<path d="M588.92,335.7A3,3 0 1 1 582.92,335.7A3,3 0 1 1 588.92,335.7Z" style="fill:#5B1616" />
<path d="M598.2,339.94A3,3 0 1 1 592.2,339.94A3,3 0 1 1 598.2,339.94Z" style="fill:#5B1616" />
<path d="M607.49,346.83A3,3 0 1 1 601.49,346.83A3,3 0 1 1 607.49,346.83Z" style="fill:#5B1616" />
<path d="M616.78,352.57A3,3 0 1 1 610.78,352.57A3,3 0 1 1 616.78,352.57Z" style="fill:#5B1616" />
<path d="M626.07,343.49A3,3 0 1 1 620.07,343.49A3,3 0 1 1 626.07,343.49Z" style="fill:#5B1616" />
<path d="M635.36,340.25A3,3 0 1 1 629.36,340.25A3,3 0 1 1 635.36,340.25Z" style="fill:#5B1616" />
<path d="M644.65,335.53A3,3 0 1 1 638.65,335.53A3,3 0 1 1 644.65,335.53Z" style="fill:#5B1616" />
<path d="M653.93,325.9A3,3 0 1 1 647.93,325.9A3,3 0 1 1 653.93,325.9Z" style="fill:#5B1616" />
<path d="M663.22,316.51A3,3 0 1 1 657.22,316.51A3,3 0 1 1 663.22,316.51Z" style="fill:#5B1616" />
<path d="M672.51,304.5A3,3 0 1 1 666.51,304.5A3,3 0 1 1 672.51,304.5Z" style="fill:#5B1616" />
<path d="M681.8,298.96A3,3 0 1 1 675.8,298.96A3,3 0 1 1 681.8,298.96Z" style="fill:#5B1616" />
<path d="M691.09,296.27A3,3 0 1 1 685.09,296.27A3,3 0 1 1 691.09,296.27Z" style="fill:#5B1616" />
<path d="M700.38,284.5A3,3 0 1 1 694.38,284.5A3,3 0 1 1 700.38,284.5Z" style="fill:#5B1616" />
<path d="M709.66,289.14A3,3 0 1 1 703.66,289.14A3,3 0 1 1 709.66,289.14Z" style="fill:#5B1616" />
<path d="M718.95,280.28A3,3 0 1 1 712.95,280.28A3,3 0 1 1 718.95,280.28Z" style="fill:#5B1616" />
<path d="M728.24,282.96A3,3 0 1 1 722.24,282.96A3,3 0 1 1 728.24,282.96Z" style="fill:#5B1616" />
<path d="M737.53,271.52A3,3 0 1 1 731.53,271.52A3,3 0 1 1 737.53,271.52Z" style="fill:#5B1616" />
<path d="M746.82,271.71A3,3 0 1 1 740.82,271.71A3,3 0 1 1 746.82,271.71Z" style="fill:#5B1616" />
<path d="M756.11,265.65A3,3 0 1 1 750.11,265.65A3,3 0 1 1 756.11,265.65Z" style="fill:#5B1616" />
<path d="M765.39,265.2A3,3 0 1 1 759.39,265.2A3,3 0 1 1 765.39,265.2Z" style="fill:#5B1616" />
<path d="M774.68,263.99A3,3 0 1 1 768.68,263.99A3,3 0 1 1 774.68,263.99Z" style="fill:#5B1616" />
<path d="M783.97,266.16A3,3 0 1 1 777.97,266.16A3,3 0 1 1 783.97,266.16Z" style="fill:#5B1616" />
<path d="M793.26,263.89A3,3 0 1 1 787.26,263.89A3,3 0 1 1 793.26,263.89Z" style="fill:#5B1616" />
<path d="M802.55,258.92A3,3 0 1 1 796.55,258.92A3,3 0 1 1 802.55,258.92Z" style="fill:#5B1616" />
<path d="M811.84,258.46A3,3 0 1 1 805.84,258.46A3,3 0 1 1 811.84,258.46Z" style="fill:#5B1616" />
<path d="M821.12,256.94A3,3 0 1 1 815.12,256.94A3,3 0 1 1 821.12,256.94Z" style="fill:#5B1616" />
<path d="M830.41,263.1A3,3 0 1 1 824.41,263.1A3,3 0 1 1 830.41,263.1Z" style="fill:#5B1616" />
<path d="M839.7,259.73A3,3 0 1 1 833.7,259.73A3,3 0 1 1 839.7,259.73Z" style="fill:#5B1616" />
<path d="M848.99,256.37A3,3 0 1 1 842.99,256.37A3,3 0 1 1 848.99,256.37Z" style="fill:#5B1616" />
<path d="M858.28,255.12A3,3 0 1 1 852.28,255.12A3,3 0 1 1 858.28,255.12Z" style="fill:#5B1616" />
<path d="M867.57,257.53A3,3 0 1 1 861.57,257.53A3,3 0 1 1 867.57,257.53Z" style="fill:#5B1616" />
<path d="M876.85,250.63A3,3 0 1 1 870.85,250.63A3,3 0 1 1 876.85,250.63Z" style="fill:#5B1616" />
<path d="M886.14,257.56A3,3 0 1 1 880.14,257.56A3,3 0 1 1 886.14,257.56Z" style="fill:#5B1616" />
<path d="M895.43,251.42A3,3 0 1 1 889.43,251.42A3,3 0 1 1 895.43,251.42Z" style="fill:#5B1616" />
<path d="M904.72,247.78A3,3 0 1 1 898.72,247.78A3,3 0 1 1 904.72,247.78Z" style="fill:#5B1616" />
<path d="M914.01,253.02A3,3 0 1 1 908.01,253.02A3,3 0 1 1 914.01,253.02Z" style="fill:#5B1616" />
<path d="M923.3,240.94A3,3 0 1 1 917.3,240.94A3,3 0 1 1 923.3,240.94Z" style="fill:#5B1616" />
<path d="M932.58,250.4A3,3 0 1 1 926.58,250.4A3,3 0 1 1 932.58,250.4Z" style="fill:#5B1616" />
<path d="M941.87,241.71A3,3 0 1 1 935.87,241.71A3,3 0 1 1 941.87,241.71Z" style="fill:#5B1616" />
<path d="M951.16,257.43A3,3 0 1 1 945.16,257.43A3,3 0 1 1 951.16,257.43Z" style="fill:#5B1616" />
<path d="M960.45,249.47A3,3 0 1 1 954.45,249.47A3,3 0 1 1 960.45,249.47Z" style="fill:#5B1616" />
<path d="M969.74,251.73A3,3 0 1 1 963.74,251.73A3,3 0 1 1 969.74,251.73Z" style="fill:#5B1616" />
<path d="M979.03,251.51A3,3 0 1 1 973.03,251.51A3,3 0 1 1 979.03,251.51Z" style="fill:#5B1616" />
<path d="M988.31,247.09A3,3 0 1 1 982.31,247.09A3,3 0 1 1 988.31,247.09Z" style="fill:#5B1616" />
<path d="M997.6,253.39A3,3 0 1 1 991.6,253.39A3,3 0 1 1 997.6,253.39Z" style="fill:#5B1616" />
<path d="M1006.9,252.24A3,3 0 1 1 1000.9,252.24A3,3 0 1 1 1006.9,252.24Z" style="fill:#5B1616" />
<path d="M1016.2,235.21A3,3 0 1 1 1010.2,235.21A3,3 0 1 1 1016.2,235.21Z" style="fill:#5B1616" />
<path d="M1025.5,250.7A3,3 0 1 1 1019.5,250.7A3,3 0 1 1 1025.5,250.7Z" style="fill:#5B1616" />
<path d="M1034.8,247.54A3,3 0 1 1 1028.8,247.54A3,3 0 1 1 1034.8,247.54Z" style="fill:#5B1616" />
<path d="M1044,253.1A3,3 0 1 1 1038,253.1A3,3 0 1 1 1044,253.1Z" style="fill:#5B1616" />
<path d="M1053.3,246.96A3,3 0 1 1 1047.3,246.96A3,3 0 1 1 1053.3,246.96Z" style="fill:#5B1616" />
<path d="M126.14,962.84L1055,962.84" style="fill:none;stroke:#000000" />
<path d="M1055,104.32L1055,962.84" style="fill:none;stroke:#000000" />
<path d="M133.79,237.97A3,3 0 1 1 127.79,237.97A3,3 0 1 1 133.79,237.97Z" style="fill:#013854" />
<path d="M143.08,239.39A3,3 0 1 1 137.08,239.39A3,3 0 1 1 143.08,239.39Z" style="fill:#013854" />
<path d="M152.36,237.19A3,3 0 1 1 146.36,237.19A3,3 0 1 1 152.36,237.19Z" style="fill:#013854" />
<path d="M161.65,242A3,3 0 1 1 155.65,242A3,3 0 1 1 161.65,242Z" style="fill:#013854" />
<path d="M170.94,242.92A3,3 0 1 1 164.94,242.92A3,3 0 1 1 170.94,242.92Z" style="fill:#013854" />
<path d="M180.23,241.97A3,3 0 1 1 174.23,241.97A3,3 0 1 1 180.23,241.97Z" style="fill:#013854" />
<path d="M189.52,241.97A3,3 0 1 1 183.52,241.97A3,3 0 1 1 189.52,241.97Z" style="fill:#013854" />
<path d="M198.81,241.11A3,3 0 1 1 192.81,241.11A3,3 0 1 1 198.81,241.11Z" style="fill:#013854" />
<path d="M208.09,248.16A3,3 0 1 1 202.09,248.16A3,3 0 1 1 208.09,248.16Z" style="fill:#013854" />
<path d="M217.38,247.2A3,3 0 1 1 211.38,247.2A3,3 0 1 1 217.38,247.2Z" style="fill:#013854" />
<path d="M226.67,248.3A3,3 0 1 1 220.67,248.3A3,3 0 1 1 226.67,248.3Z" style="fill:#013854" />
<path d="M235.96,253.17A3,3 0 1 1 229.96,253.17A3,3 0 1 1 235.96,253.17Z" style="fill:#013854" />
<path d="M245.25,251.73A3,3 0 1 1 239.25,251.73A3,3 0 1 1 245.25,251.73Z" style="fill:#013854" />
<path d="M254.54,257.39A3,3 0 1 1 248.54,257.39A3,3 0 1 1 254.54,257.39Z" style="fill:#013854" />
<path d="M263.82,258.13A3,3 0 1 1 257.82,258.13A3,3 0 1 1 263.82,258.13Z" style="fill:#013854" />
<path d="M273.11,264.34A3,3 0 1 1 267.11,264.34A3,3 0 1 1 273.11,264.34Z" style="fill:#013854" />
<path d="M282.4,262.89A3,3 0 1 1 276.4,262.89A3,3 0 1 1 282.4,262.89Z" style="fill:#013854" />
<path d="M291.69,268.61A3,3 0 1 1 285.69,268.61A3,3 0 1 1 291.69,268.61Z" style="fill:#013854" />
<path d="M300.98,273.16A3,3 0 1 1 294.98,273.16A3,3 0 1 1 300.98,273.16Z" style="fill:#013854" />
<path d="M310.27,272.42A3,3 0 1 1 304.27,272.42A3,3 0 1 1 310.27,272.42Z" style="fill:#013854" />
<path d="M319.55,278.66A3,3 0 1 1 313.55,278.66A3,3 0 1 1 319.55,278.66Z" style="fill:#013854" />
<path d="M328.84,284.81A3,3 0 1 1 322.84,284.81A3,3 0 1 1 328.84,284.81Z" style="fill:#013854" />
<path d="M338.13,288.2A3,3 0 1 1 332.13,288.2A3,3 0 1 1 338.13,288.2Z" style="fill:#013854" />
<path d="M347.42,290.97A3,3 0 1 1 341.42,290.97A3,3 0 1 1 347.42,290.97Z" style="fill:#013854" />
<path d="M356.71,290.88A3,3 0 1 1 350.71,290.88A3,3 0 1 1 356.71,290.88Z" style="fill:#013854" />
<path d="M366,296.05A3,3 0 1 1 360,296.05A3,3 0 1 1 366,296.05Z" style="fill:#013854" />
<path d="M375.28,294.23A3,3 0 1 1 369.28,294.23A3,3 0 1 1 375.28,294.23Z" style="fill:#013854" />
<path d="M384.57,297.36A3,3 0 1 1 378.57,297.36A3,3 0 1 1 384.57,297.36Z" style="fill:#013854" />
<path d="M393.86,294.77A3,3 0 1 1 387.86,294.77A3,3 0 1 1 393.86,294.77Z" style="fill:#013854" />
<path d="M403.15,293.91A3,3 0 1 1 397.15,293.91A3,3 0 1 1 403.15,293.91Z" style="fill:#013854" />
<path d="M412.44,294.01A3,3 0 1 1 406.44,294.01A3,3 0 1 1 412.44,294.01Z" style="fill:#013854" />
<path d="M421.73,295.32A3,3 0 1 1 415.73,295.32A3,3 0 1 1 421.73,295.32Z" style="fill:#013854" />
<path d="M431.01,293.89A3,3 0 1 1 425.01,293.89A3,3 0 1 1 431.01,293.89Z" style="fill:#013854" />
<path d="M440.3,300.41A3,3 0 1 1 434.3,300.41A3,3 0 1 1 440.3,300.41Z" style="fill:#013854" />
<path d="M449.59,300.25A3,3 0 1 1 443.59,300.25A3,3 0 1 1 449.59,300.25Z" style="fill:#013854" />
<path d="M458.88,300.11A3,3 0 1 1 452.88,300.11A3,3 0 1 1 458.88,300.11Z" style="fill:#013854" />
<path d="M468.17,300.45A3,3 0 1 1 462.17,300.45A3,3 0 1 1 468.17,300.45Z" style="fill:#013854" />
<path d="M477.46,305.11A3,3 0 1 1 471.46,305.11A3,3 0 1 1 477.46,305.11Z" style="fill:#013854" />
<path d="M486.74,317.78A3,3 0 1 1 480.74,317.78A3,3 0 1 1 486.74,317.78Z" style="fill:#013854" />
<path d="M496.03,319.08A3,3 0 1 1 490.03,319.08A3,3 0 1 1 496.03,319.08Z" style="fill:#013854" />
<path d="M505.32,327.48A3,3 0 1 1 499.32,327.48A3,3 0 1 1 505.32,327.48Z" style="fill:#013854" />
<path d="M514.61,330.2A3,3 0 1 1 508.61,330.2A3,3 0 1 1 514.61,330.2Z" style="fill:#013854" />
<path d="M523.9,342.08A3,3 0 1 1 517.9,342.08A3,3 0 1 1 523.9,342.08Z" style="fill:#013854" />
<path d="M533.19,347.12A3,3 0 1 1 527.19,347.12A3,3 0 1 1 533.19,347.12Z" style="fill:#013854" />
<path d="M542.47,357.85A3,3 0 1 1 536.47,357.85A3,3 0 1 1 542.47,357.85Z" style="fill:#013854" />
<path d="M551.76,366.86A3,3 0 1 1 545.76,366.86A3,3 0 1 1 551.76,366.86Z" style="fill:#013854" />
<path d="M561.05,386.43A3,3 0 1 1 555.05,386.43A3,3 0 1 1 561.05,386.43Z" style="fill:#013854" />
<path d="M570.34,398.96A3,3 0 1 1 564.34,398.96A3,3 0 1 1 570.34,398.96Z" style="fill:#013854" />
<path d="M579.63,406.11A3,3 0 1 1 573.63,406.11A3,3 0 1 1 579.63,406.11Z" style="fill:#013854" />
<path d="M588.92,424.78A3,3 0 1 1 582.92,424.78A3,3 0 1 1 588.92,424.78Z" style="fill:#013854" />
<path d="M598.2,431.17A3,3 0 1 1 592.2,431.17A3,3 0 1 1 598.2,431.17Z" style="fill:#013854" />
<path d="M607.49,448.57A3,3 0 1 1 601.49,448.57A3,3 0 1 1 607.49,448.57Z" style="fill:#013854" />
<path d="M616.78,453.49A3,3 0 1 1 610.78,453.49A3,3 0 1 1 616.78,453.49Z" style="fill:#013854" />
<path d="M626.07,438.79A3,3 0 1 1 620.07,438.79A3,3 0 1 1 626.07,438.79Z" style="fill:#013854" />
<path d="M635.36,430.59A3,3 0 1 1 629.36,430.59A3,3 0 1 1 635.36,430.59Z" style="fill:#013854" />
<path d="M644.65,417.62A3,3 0 1 1 638.65,417.62A3,3 0 1 1 644.65,417.62Z" style="fill:#013854" />
<path d="M653.93,400.51A3,3 0 1 1 647.93,400.51A3,3 0 1 1 653.93,400.51Z" style="fill:#013854" />
<path d="M663.22,381.98A3,3 0 1 1 657.22,381.98A3,3 0 1 1 663.22,381.98Z" style="fill:#013854" />
<path d="M672.51,364.03A3,3 0 1 1 666.51,364.03A3,3 0 1 1 672.51,364.03Z" style="fill:#013854" />
<path d="M681.8,353.09A3,3 0 1 1 675.8,353.09A3,3 0 1 1 681.8,353.09Z" style="fill:#013854" />
<path d="M691.09,342.1A3,3 0 1 1 685.09,342.1A3,3 0 1 1 691.09,342.1Z" style="fill:#013854" />
<path d="M700.38,327.84A3,3 0 1 1 694.38,327.84A3,3 0 1 1 700.38,327.84Z" style="fill:#013854" />
<path d="M709.66,324.43A3,3 0 1 1 703.66,324.43A3,3 0 1 1 709.66,324.43Z" style="fill:#013854" />
<path d="M718.95,312.47A3,3 0 1 1 712.95,312.47A3,3 0 1 1 718.95,312.47Z" style="fill:#013854" />
<path d="M728.24,311.6A3,3 0 1 1 722.24,311.6A3,3 0 1 1 728.24,311.6Z" style="fill:#013854" />
<path d="M737.53,298.16A3,3 0 1 1 731.53,298.16A3,3 0 1 1 737.53,298.16Z" style="fill:#013854" />
<path d="M746.82,297.53A3,3 0 1 1 740.82,297.53A3,3 0 1 1 746.82,297.53Z" style="fill:#013854" />
<path d="M756.11,285.13A3,3 0 1 1 750.11,285.13A3,3 0 1 1 756.11,285.13Z" style="fill:#013854" />
<path d="M765.39,283.08A3,3 0 1 1 759.39,283.08A3,3 0 1 1 765.39,283.08Z" style="fill:#013854" />
<path d="M774.68,279.88A3,3 0 1 1 768.68,279.88A3,3 0 1 1 774.68,279.88Z" style="fill:#013854" />
<path d="M783.97,281.21A3,3 0 1 1 777.97,281.21A3,3 0 1 1 783.97,281.21Z" style="fill:#013854" />
<path d="M793.26,277.15A3,3 0 1 1 787.26,277.15A3,3 0 1 1 793.26,277.15Z" style="fill:#013854" />
<path d="M802.55,270.61A3,3 0 1 1 796.55,270.61A3,3 0 1 1 802.55,270.61Z" style="fill:#013854" />
<path d="M811.84,270.11A3,3 0 1 1 805.84,270.11A3,3 0 1 1 811.84,270.11Z" style="fill:#013854" />
<path d="M821.12,267.52A3,3 0 1 1 815.12,267.52A3,3 0 1 1 821.12,267.52Z" style="fill:#013854" />
<path d="M830.41,272.79A3,3 0 1 1 824.41,272.79A3,3 0 1 1 830.41,272.79Z" style="fill:#013854" />
<path d="M839.7,268.38A3,3 0 1 1 833.7,268.38A3,3 0 1 1 839.7,268.38Z" style="fill:#013854" />
<path d="M848.99,268.2A3,3 0 1 1 842.99,268.2A3,3 0 1 1 848.99,268.2Z" style="fill:#013854" />
<path d="M858.28,265.02A3,3 0 1 1 852.28,265.02A3,3 0 1 1 858.28,265.02Z" style="fill:#013854" />
<path d="M867.57,267.83A3,3 0 1 1 861.57,267.83A3,3 0 1 1 867.57,267.83Z" style="fill:#013854" />
<path d="M876.85,256.67A3,3 0 1 1 870.85,256.67A3,3 0 1 1 876.85,256.67Z" style="fill:#013854" />
<path d="M886.14,263.3A3,3 0 1 1 880.14,263.3A3,3 0 1 1 886.14,263.3Z" style="fill:#013854" />
<path d="M895.43,257.66A3,3 0 1 1 889.43,257.66A3,3 0 1 1 895.43,257.66Z" style="fill:#013854" />
<path d="M904.72,254.45A3,3 0 1 1 898.72,254.45A3,3 0 1 1 904.72,254.45Z" style="fill:#013854" />
<path d="M914.01,257.01A3,3 0 1 1 908.01,257.01A3,3 0 1 1 914.01,257.01Z" style="fill:#013854" />
<path d="M923.3,247.81A3,3 0 1 1 917.3,247.81A3,3 0 1 1 923.3,247.81Z" style="fill:#013854" />
<path d="M932.58,252.16A3,3 0 1 1 926.58,252.16A3,3 0 1 1 932.58,252.16Z" style="fill:#013854" />
<path d="M941.87,241.38A3,3 0 1 1 935.87,241.38A3,3 0 1 1 941.87,241.38Z" style="fill:#013854" />
<path d="M951.16,259.04A3,3 0 1 1 945.16,259.04A3,3 0 1 1 951.16,259.04Z" style="fill:#013854" />
<path d="M960.45,253.35A3,3 0 1 1 954.45,253.35A3,3 0 1 1 960.45,253.35Z" style="fill:#013854" />
<path d="M969.74,254.47A3,3 0 1 1 963.74,254.47A3,3 0 1 1 969.74,254.47Z" style="fill:#013854" />
<path d="M979.03,257.77A3,3 0 1 1 973.03,257.77A3,3 0 1 1 979.03,257.77Z" style="fill:#013854" />
<path d="M988.31,240.62A3,3 0 1 1 982.31,240.62A3,3 0 1 1 988.31,240.62Z" style="fill:#013854" />
<path d="M997.6,254.34A3,3 0 1 1 991.6,254.34A3,3 0 1 1 997.6,254.34Z" style="fill:#013854" />
<path d="M1006.9,256.42A3,3 0 1 1 1000.9,256.42A3,3 0 1 1 1006.9,256.42Z" style="fill:#013854" />
<path d="M1016.2,230.53A3,3 0 1 1 1010.2,230.53A3,3 0 1 1 1016.2,230.53Z" style="fill:#013854" />
<path d="M1025.5,254.74A3,3 0 1 1 1019.5,254.74A3,3 0 1 1 1025.5,254.74Z" style="fill:#013854" />
<path d="M1034.8,251.26A3,3 0 1 1 1028.8,251.26A3,3 0 1 1 1034.8,251.26Z" style="fill:#013854" />
<path d="M1044,255.71A3,3 0 1 1 1038,255.71A3,3 0 1 1 1044,255.71Z" style="fill:#013854" />
<path d="M1053.3,251.75A3,3 0 1 1 1047.3,251.75A3,3 0 1 1 1053.3,251.75Z" style="fill:#013854" />
<path d="M126.14,962.84L1055,962.84" style="fill:none;stroke:#000000" />
<path d="M1055,104.32L1055,962.84" style="fill:none;stroke:#000000" />
<path d="M133.79,234.87A3,3 0 1 1 127.79,234.87A3,3 0 1 1 133.79,234.87Z" style="fill:#7A2968" />
<path d="M143.08,233.39A3,3 0 1 1 137.08,233.39A3,3 0 1 1 143.08,233.39Z" style="fill:#7A2968" />
<path d="M152.36,234.62A3,3 0 1 1 146.36,234.62A3,3 0 1 1 152.36,234.62Z" style="fill:#7A2968" />
<path d="M161.65,236.5A3,3 0 1 1 155.65,236.5A3,3 0 1 1 161.65,236.5Z" style="fill:#7A2968" />
<path d="M170.94,240.96A3,3 0 1 1 164.94,240.96A3,3 0 1 1 170.94,240.96Z" style="fill:#7A2968" />
<path d="M180.23,238A3,3 0 1 1 174.23,238A3,3 0 1 1 180.23,238Z" style="fill:#7A2968" />
<path d="M189.52,237.81A3,3 0 1 1 183.52,237.81A3,3 0 1 1 189.52,237.81Z" style="fill:#7A2968" />
<path d="M198.81,241.56A3,3 0 1 1 192.81,241.56A3,3 0 1 1 198.81,241.56Z" style="fill:#7A2968" />
<path d="M208.09,250.11A3,3 0 1 1 202.09,250.11A3,3 0 1 1 208.09,250.11Z" style="fill:#7A2968" />
<path d="M217.38,246.52A3,3 0 1 1 211.38,246.52A3,3 0 1 1 217.38,246.52Z" style="fill:#7A2968" />
<path d="M226.67,248.29A3,3 0 1 1 220.67,248.29A3,3 0 1 1 226.67,248.29Z" style="fill:#7A2968" />
<path d="M235.96,255.13A3,3 0 1 1 229.96,255.13A3,3 0 1 1 235.96,255.13Z" style="fill:#7A2968" />
<path d="M245.25,255.87A3,3 0 1 1 239.25,255.87A3,3 0 1 1 245.25,255.87Z" style="fill:#7A2968" />
<path d="M254.54,261.15A3,3 0 1 1 248.54,261.15A3,3 0 1 1 254.54,261.15Z" style="fill:#7A2968" />
<path d="M263.82,263.02A3,3 0 1 1 257.82,263.02A3,3 0 1 1 263.82,263.02Z" style="fill:#7A2968" />
<path d="M273.11,271.85A3,3 0 1 1 267.11,271.85A3,3 0 1 1 273.11,271.85Z" style="fill:#7A2968" />
<path d="M282.4,271.31A3,3 0 1 1 276.4,271.31A3,3 0 1 1 282.4,271.31Z" style="fill:#7A2968" />
<path d="M291.69,280.05A3,3 0 1 1 285.69,280.05A3,3 0 1 1 291.69,280.05Z" style="fill:#7A2968" />
<path d="M300.98,284.16A3,3 0 1 1 294.98,284.16A3,3 0 1 1 300.98,284.16Z" style="fill:#7A2968" />
<path d="M310.27,288.21A3,3 0 1 1 304.27,288.21A3,3 0 1 1 310.27,288.21Z" style="fill:#7A2968" />
<path d="M319.55,298.27A3,3 0 1 1 313.55,298.27A3,3 0 1 1 319.55,298.27Z" style="fill:#7A2968" />
<path d="M328.84,304.22A3,3 0 1 1 322.84,304.22A3,3 0 1 1 328.84,304.22Z" style="fill:#7A2968" />
<path d="M338.13,312.17A3,3 0 1 1 332.13,312.17A3,3 0 1 1 338.13,312.17Z" style="fill:#7A2968" />
<path d="M347.42,315.03A3,3 0 1 1 341.42,315.03A3,3 0 1 1 347.42,315.03Z" style="fill:#7A2968" />
<path d="M356.71,317.02A3,3 0 1 1 350.71,317.02A3,3 0 1 1 356.71,317.02Z" style="fill:#7A2968" />
<path d="M366,322.79A3,3 0 1 1 360,322.79A3,3 0 1 1 366,322.79Z" style="fill:#7A2968" />
<path d="M375.28,322.28A3,3 0 1 1 369.28,322.28A3,3 0 1 1 375.28,322.28Z" style="fill:#7A2968" />
<path d="M384.57,323.14A3,3 0 1 1 378.57,323.14A3,3 0 1 1 384.57,323.14Z" style="fill:#7A2968" />
<path d="M393.86,318.65A3,3 0 1 1 387.86,318.65A3,3 0 1 1 393.86,318.65Z" style="fill:#7A2968" />
<path d="M403.15,317.78A3,3 0 1 1 397.15,317.78A3,3 0 1 1 403.15,317.78Z" style="fill:#7A2968" />
<path d="M412.44,316.85A3,3 0 1 1 406.44,316.85A3,3 0 1 1 412.44,316.85Z" style="fill:#7A2968" />
<path d="M421.73,321.11A3,3 0 1 1 415.73,321.11A3,3 0 1 1 421.73,321.11Z" style="fill:#7A2968" />
<path d="M431.01,321.6A3,3 0 1 1 425.01,321.6A3,3 0 1 1 431.01,321.6Z" style="fill:#7A2968" />
<path d="M440.3,327.94A3,3 0 1 1 434.3,327.94A3,3 0 1 1 440.3,327.94Z" style="fill:#7A2968" />
<path d="M449.59,327.63A3,3 0 1 1 443.59,327.63A3,3 0 1 1 449.59,327.63Z" style="fill:#7A2968" />
<path d="M458.88,332.49A3,3 0 1 1 452.88,332.49A3,3 0 1 1 458.88,332.49Z" style="fill:#7A2968" />
<path d="M468.17,333.01A3,3 0 1 1 462.17,333.01A3,3 0 1 1 468.17,333.01Z" style="fill:#7A2968" />
<path d="M477.46,341.25A3,3 0 1 1 471.46,341.25A3,3 0 1 1 477.46,341.25Z" style="fill:#7A2968" />
<path d="M486.74,354.19A3,3 0 1 1 480.74,354.19A3,3 0 1 1 486.74,354.19Z" style="fill:#7A2968" />
<path d="M496.03,357.03A3,3 0 1 1 490.03,357.03A3,3 0 1 1 496.03,357.03Z" style="fill:#7A2968" />
<path d="M505.32,369.42A3,3 0 1 1 499.32,369.42A3,3 0 1 1 505.32,369.42Z" style="fill:#7A2968" />
<path d="M514.61,374.94A3,3 0 1 1 508.61,374.94A3,3 0 1 1 514.61,374.94Z" style="fill:#7A2968" />
<path d="M523.9,390.69A3,3 0 1 1 517.9,390.69A3,3 0 1 1 523.9,390.69Z" style="fill:#7A2968" />
<path d="M533.19,400.23A3,3 0 1 1 527.19,400.23A3,3 0 1 1 533.19,400.23Z" style="fill:#7A2968" />
<path d="M542.47,416.5A3,3 0 1 1 536.47,416.5A3,3 0 1 1 542.47,416.5Z" style="fill:#7A2968" />
<path d="M551.76,433.73A3,3 0 1 1 545.76,433.73A3,3 0 1 1 551.76,433.73Z" style="fill:#7A2968" />
<path d="M561.05,456.17A3,3 0 1 1 555.05,456.17A3,3 0 1 1 561.05,456.17Z" style="fill:#7A2968" />
<path d="M570.34,474.83A3,3 0 1 1 564.34,474.83A3,3 0 1 1 570.34,474.83Z" style="fill:#7A2968" />
<path d="M579.63,490.87A3,3 0 1 1 573.63,490.87A3,3 0 1 1 579.63,490.87Z" style="fill:#7A2968" />
<path d="M588.92,514.45A3,3 0 1 1 582.92,514.45A3,3 0 1 1 588.92,514.45Z" style="fill:#7A2968" />
<path d="M598.2,527.33A3,3 0 1 1 592.2,527.33A3,3 0 1 1 598.2,527.33Z" style="fill:#7A2968" />
<path d="M607.49,545.34A3,3 0 1 1 601.49,545.34A3,3 0 1 1 607.49,545.34Z" style="fill:#7A2968" />
<path d="M616.78,555.1A3,3 0 1 1 610.78,555.1A3,3 0 1 1 616.78,555.1Z" style="fill:#7A2968" />
<path d="M626.07,536.19A3,3 0 1 1 620.07,536.19A3,3 0 1 1 626.07,536.19Z" style="fill:#7A2968" />
<path d="M635.36,521.04A3,3 0 1 1 629.36,521.04A3,3 0 1 1 635.36,521.04Z" style="fill:#7A2968" />
<path d="M644.65,498.12A3,3 0 1 1 638.65,498.12A3,3 0 1 1 644.65,498.12Z" style="fill:#7A2968" />
<path d="M653.93,474.62A3,3 0 1 1 647.93,474.62A3,3 0 1 1 653.93,474.62Z" style="fill:#7A2968" />
<path d="M663.22,447.66A3,3 0 1 1 657.22,447.66A3,3 0 1 1 663.22,447.66Z" style="fill:#7A2968" />
<path d="M672.51,420.75A3,3 0 1 1 666.51,420.75A3,3 0 1 1 672.51,420.75Z" style="fill:#7A2968" />
<path d="M681.8,402.95A3,3 0 1 1 675.8,402.95A3,3 0 1 1 681.8,402.95Z" style="fill:#7A2968" />
<path d="M691.09,389.44A3,3 0 1 1 685.09,389.44A3,3 0 1 1 691.09,389.44Z" style="fill:#7A2968" />
<path d="M700.38,368.71A3,3 0 1 1 694.38,368.71A3,3 0 1 1 700.38,368.71Z" style="fill:#7A2968" />
<path d="M709.66,362.41A3,3 0 1 1 703.66,362.41A3,3 0 1 1 709.66,362.41Z" style="fill:#7A2968" />
<path d="M718.95,344.17A3,3 0 1 1 712.95,344.17A3,3 0 1 1 718.95,344.17Z" style="fill:#7A2968" />
<path d="M728.24,341.35A3,3 0 1 1 722.24,341.35A3,3 0 1 1 728.24,341.35Z" style="fill:#7A2968" />
<path d="M737.53,323.11A3,3 0 1 1 731.53,323.11A3,3 0 1 1 737.53,323.11Z" style="fill:#7A2968" />
<path d="M746.82,320.05A3,3 0 1 1 740.82,320.05A3,3 0 1 1 746.82,320.05Z" style="fill:#7A2968" />
<path d="M756.11,304.21A3,3 0 1 1 750.11,304.21A3,3 0 1 1 756.11,304.21Z" style="fill:#7A2968" />
<path d="M765.39,302.59A3,3 0 1 1 759.39,302.59A3,3 0 1 1 765.39,302.59Z" style="fill:#7A2968" />
<path d="M774.68,295.7A3,3 0 1 1 768.68,295.7A3,3 0 1 1 774.68,295.7Z" style="fill:#7A2968" />
<path d="M783.97,296.04A3,3 0 1 1 777.97,296.04A3,3 0 1 1 783.97,296.04Z" style="fill:#7A2968" />
<path d="M793.26,291.08A3,3 0 1 1 787.26,291.08A3,3 0 1 1 793.26,291.08Z" style="fill:#7A2968" />
<path d="M802.55,285.21A3,3 0 1 1 796.55,285.21A3,3 0 1 1 802.55,285.21Z" style="fill:#7A2968" />
<path d="M811.84,282.93A3,3 0 1 1 805.84,282.93A3,3 0 1 1 811.84,282.93Z" style="fill:#7A2968" />
<path d="M821.12,281.32A3,3 0 1 1 815.12,281.32A3,3 0 1 1 821.12,281.32Z" style="fill:#7A2968" />
<path d="M830.41,284.21A3,3 0 1 1 824.41,284.21A3,3 0 1 1 830.41,284.21Z" style="fill:#7A2968" />
<path d="M839.7,277.73A3,3 0 1 1 833.7,277.73A3,3 0 1 1 839.7,277.73Z" style="fill:#7A2968" />
<path d="M848.99,280.37A3,3 0 1 1 842.99,280.37A3,3 0 1 1 848.99,280.37Z" style="fill:#7A2968" />
<path d="M858.28,276A3,3 0 1 1 852.28,276A3,3 0 1 1 858.28,276Z" style="fill:#7A2968" />
<path d="M867.57,276.09A3,3 0 1 1 861.57,276.09A3,3 0 1 1 867.57,276.09Z" style="fill:#7A2968" />
<path d="M876.85,271.59A3,3 0 1 1 870.85,271.59A3,3 0 1 1 876.85,271.59Z" style="fill:#7A2968" />
<path d="M886.14,278.19A3,3 0 1 1 880.14,278.19A3,3 0 1 1 886.14,278.19Z" style="fill:#7A2968" />
<path d="M895.43,264.73A3,3 0 1 1 889.43,264.73A3,3 0 1 1 895.43,264.73Z" style="fill:#7A2968" />
<path d="M904.72,254.07A3,3 0 1 1 898.72,254.07A3,3 0 1 1 904.72,254.07Z" style="fill:#7A2968" />
<path d="M914.01,259.71A3,3 0 1 1 908.01,259.71A3,3 0 1 1 914.01,259.71Z" style="fill:#7A2968" />
<path d="M923.3,247.52A3,3 0 1 1 917.3,247.52A3,3 0 1 1 923.3,247.52Z" style="fill:#7A2968" />
<path d="M932.58,256.97A3,3 0 1 1 926.58,256.97A3,3 0 1 1 932.58,256.97Z" style="fill:#7A2968" />
<path d="M941.87,245.75A3,3 0 1 1 935.87,245.75A3,3 0 1 1 941.87,245.75Z" style="fill:#7A2968" />
<path d="M951.16,261.4A3,3 0 1 1 945.16,261.4A3,3 0 1 1 951.16,261.4Z" style="fill:#7A2968" />
<path d="M960.45,257.43A3,3 0 1 1 954.45,257.43A3,3 0 1 1 960.45,257.43Z" style="fill:#7A2968" />
<path d="M969.74,251.26A3,3 0 1 1 963.74,251.26A3,3 0 1 1 969.74,251.26Z" style="fill:#7A2968" />
<path d="M979.03,258.91A3,3 0 1 1 973.03,258.91A3,3 0 1 1 979.03,258.91Z" style="fill:#7A2968" />
<path d="M988.31,250.34A3,3 0 1 1 982.31,250.34A3,3 0 1 1 988.31,250.34Z" style="fill:#7A2968" />
<path d="M997.6,258.96A3,3 0 1 1 991.6,258.96A3,3 0 1 1 997.6,258.96Z" style="fill:#7A2968" />
<path d="M1006.9,257.82A3,3 0 1 1 1000.9,257.82A3,3 0 1 1 1006.9,257.82Z" style="fill:#7A2968" />
<path d="M1016.2,240.15A3,3 0 1 1 1010.2,240.15A3,3 0 1 1 1016.2,240.15Z" style="fill:#7A2968" />
<path d="M1025.5,260.17A3,3 0 1 1 1019.5,260.17A3,3 0 1 1 1025.5,260.17Z" style="fill:#7A2968" />
<path d="M1034.8,255.88A3,3 0 1 1 1028.8,255.88A3,3 0 1 1 1034.8,255.88Z" style="fill:#7A2968" />
<path d="M1044,262.38A3,3 0 1 1 1038,262.38A3,3 0 1 1 1044,262.38Z" style="fill:#7A2968" />
<path d="M1053.3,256.27A3,3 0 1 1 1047.3,256.27A3,3 0 1 1 1053.3,256.27Z" style="fill:#7A2968" />
<path d="M126.14,962.84L1055,962.84" style="fill:none;stroke:#000000" />
<path d="M1055,104.32L1055,962.84" style="fill:none;stroke:#000000" />
<path d="M133.79,229.5A3,3 0 1 1 127.79,229.5A3,3 0 1 1 133.79,229.5Z" style="fill:#FFC17A" />
<path d="M143.08,227.66A3,3 0 1 1 137.08,227.66A3,3 0 1 1 143.08,227.66Z" style="fill:#FFC17A" />
<path d="M152.36,228.57A3,3 0 1 1 146.36,228.57A3,3 0 1 1 152.36,228.57Z" style="fill:#FFC17A" />
<path d="M161.65,233.47A3,3 0 1 1 155.65,233.47A3,3 0 1 1 161.65,233.47Z" style="fill:#FFC17A" />
<path d="M170.94,235.86A3,3 0 1 1 164.94,235.86A3,3 0 1 1 170.94,235.86Z" style="fill:#FFC17A" />
<path d="M180.23,234.88A3,3 0 1 1 174.23,234.88A3,3 0 1 1 180.23,234.88Z" style="fill:#FFC17A" />
<path d="M189.52,235.69A3,3 0 1 1 183.52,235.69A3,3 0 1 1 189.52,235.69Z" style="fill:#FFC17A" />
<path d="M198.81,240.17A3,3 0 1 1 192.81,240.17A3,3 0 1 1 198.81,240.17Z" style="fill:#FFC17A" />
<path d="M208.09,247.38A3,3 0 1 1 202.09,247.38A3,3 0 1 1 208.09,247.38Z" style="fill:#FFC17A" />
<path d="M217.38,246.81A3,3 0 1 1 211.38,246.81A3,3 0 1 1 217.38,246.81Z" style="fill:#FFC17A" />
<path d="M226.67,250.75A3,3 0 1 1 220.67,250.75A3,3 0 1 1 226.67,250.75Z" style="fill:#FFC17A" />
<path d="M235.96,258.13A3,3 0 1 1 229.96,258.13A3,3 0 1 1 235.96,258.13Z" style="fill:#FFC17A" />
<path d="M245.25,259.21A3,3 0 1 1 239.25,259.21A3,3 0 1 1 245.25,259.21Z" style="fill:#FFC17A" />
<path d="M254.54,265.86A3,3 0 1 1 248.54,265.86A3,3 0 1 1 254.54,265.86Z" style="fill:#FFC17A" />
<path d="M263.82,271.07A3,3 0 1 1 257.82,271.07A3,3 0 1 1 263.82,271.07Z" style="fill:#FFC17A" />
<path d="M273.11,280.21A3,3 0 1 1 267.11,280.21A3,3 0 1 1 273.11,280.21Z" style="fill:#FFC17A" />
<path d="M282.4,281.83A3,3 0 1 1 276.4,281.83A3,3 0 1 1 282.4,281.83Z" style="fill:#FFC17A" />
<path d="M291.69,291.34A3,3 0 1 1 285.69,291.34A3,3 0 1 1 291.69,291.34Z" style="fill:#FFC17A" />
<path d="M300.98,296.97A3,3 0 1 1 294.98,296.97A3,3 0 1 1 300.98,296.97Z" style="fill:#FFC17A" />
<path d="M310.27,302.14A3,3 0 1 1 304.27,302.14A3,3 0 1 1 310.27,302.14Z" style="fill:#FFC17A" />
<path d="M319.55,312.67A3,3 0 1 1 313.55,312.67A3,3 0 1 1 319.55,312.67Z" style="fill:#FFC17A" />
<path d="M328.84,320.52A3,3 0 1 1 322.84,320.52A3,3 0 1 1 328.84,320.52Z" style="fill:#FFC17A" />
<path d="M338.13,330.09A3,3 0 1 1 332.13,330.09A3,3 0 1 1 338.13,330.09Z" style="fill:#FFC17A" />
<path d="M347.42,338.06A3,3 0 1 1 341.42,338.06A3,3 0 1 1 347.42,338.06Z" style="fill:#FFC17A" />
<path d="M356.71,341.21A3,3 0 1 1 350.71,341.21A3,3 0 1 1 356.71,341.21Z" style="fill:#FFC17A" />
<path d="M366,347.13A3,3 0 1 1 360,347.13A3,3 0 1 1 366,347.13Z" style="fill:#FFC17A" />
<path d="M375.28,348.27A3,3 0 1 1 369.28,348.27A3,3 0 1 1 375.28,348.27Z" style="fill:#FFC17A" />
<path d="M384.57,347.2A3,3 0 1 1 378.57,347.2A3,3 0 1 1 384.57,347.2Z" style="fill:#FFC17A" />
<path d="M393.86,341.94A3,3 0 1 1 387.86,341.94A3,3 0 1 1 393.86,341.94Z" style="fill:#FFC17A" />
<path d="M403.15,343.6A3,3 0 1 1 397.15,343.6A3,3 0 1 1 403.15,343.6Z" style="fill:#FFC17A" />
<path d="M412.44,344.03A3,3 0 1 1 406.44,344.03A3,3 0 1 1 412.44,344.03Z" style="fill:#FFC17A" />
<path d="M421.73,345.5A3,3 0 1 1 415.73,345.5A3,3 0 1 1 421.73,345.5Z" style="fill:#FFC17A" />
<path d="M431.01,346.46A3,3 0 1 1 425.01,346.46A3,3 0 1 1 431.01,346.46Z" style="fill:#FFC17A" />
<path d="M440.3,352.24A3,3 0 1 1 434.3,352.24A3,3 0 1 1 440.3,352.24Z" style="fill:#FFC17A" />
<path d="M449.59,356.31A3,3 0 1 1 443.59,356.31A3,3 0 1 1 449.59,356.31Z" style="fill:#FFC17A" />
<path d="M458.88,359.81A3,3 0 1 1 452.88,359.81A3,3 0 1 1 458.88,359.81Z" style="fill:#FFC17A" />
<path d="M468.17,361.87A3,3 0 1 1 462.17,361.87A3,3 0 1 1 468.17,361.87Z" style="fill:#FFC17A" />
<path d="M477.46,373.37A3,3 0 1 1 471.46,373.37A3,3 0 1 1 477.46,373.37Z" style="fill:#FFC17A" />
<path d="M486.74,388.03A3,3 0 1 1 480.74,388.03A3,3 0 1 1 486.74,388.03Z" style="fill:#FFC17A" />
<path d="M496.03,395.79A3,3 0 1 1 490.03,395.79A3,3 0 1 1 496.03,395.79Z" style="fill:#FFC17A" />
<path d="M505.32,409.51A3,3 0 1 1 499.32,409.51A3,3 0 1 1 505.32,409.51Z" style="fill:#FFC17A" />
<path d="M514.61,417.47A3,3 0 1 1 508.61,417.47A3,3 0 1 1 514.61,417.47Z" style="fill:#FFC17A" />
<path d="M523.9,434.95A3,3 0 1 1 517.9,434.95A3,3 0 1 1 523.9,434.95Z" style="fill:#FFC17A" />
<path d="M533.19,451.19A3,3 0 1 1 527.19,451.19A3,3 0 1 1 533.19,451.19Z" style="fill:#FFC17A" />
<path d="M542.47,472.02A3,3 0 1 1 536.47,472.02A3,3 0 1 1 542.47,472.02Z" style="fill:#FFC17A" />
<path d="M551.76,493.3A3,3 0 1 1 545.76,493.3A3,3 0 1 1 551.76,493.3Z" style="fill:#FFC17A" />
<path d="M561.05,524.17A3,3 0 1 1 555.05,524.17A3,3 0 1 1 561.05,524.17Z" style="fill:#FFC17A" />
<path d="M570.34,547.01A3,3 0 1 1 564.34,547.01A3,3 0 1 1 570.34,547.01Z" style="fill:#FFC17A" />
<path d="M579.63,568.07A3,3 0 1 1 573.63,568.07A3,3 0 1 1 579.63,568.07Z" style="fill:#FFC17A" />
<path d="M588.92,599.74A3,3 0 1 1 582.92,599.74A3,3 0 1 1 588.92,599.74Z" style="fill:#FFC17A" />
<path d="M598.2,617.98A3,3 0 1 1 592.2,617.98A3,3 0 1 1 598.2,617.98Z" style="fill:#FFC17A" />
<path d="M607.49,639.36A3,3 0 1 1 601.49,639.36A3,3 0 1 1 607.49,639.36Z" style="fill:#FFC17A" />
<path d="M616.78,645.63A3,3 0 1 1 610.78,645.63A3,3 0 1 1 616.78,645.63Z" style="fill:#FFC17A" />
<path d="M626.07,625.39A3,3 0 1 1 620.07,625.39A3,3 0 1 1 626.07,625.39Z" style="fill:#FFC17A" />
<path d="M635.36,602.7A3,3 0 1 1 629.36,602.7A3,3 0 1 1 635.36,602.7Z" style="fill:#FFC17A" />
<path d="M644.65,575.19A3,3 0 1 1 638.65,575.19A3,3 0 1 1 644.65,575.19Z" style="fill:#FFC17A" />
<path d="M653.93,541.02A3,3 0 1 1 647.93,541.02A3,3 0 1 1 653.93,541.02Z" style="fill:#FFC17A" />
<path d="M663.22,507.6A3,3 0 1 1 657.22,507.6A3,3 0 1 1 663.22,507.6Z" style="fill:#FFC17A" />
<path d="M672.51,476.37A3,3 0 1 1 666.51,476.37A3,3 0 1 1 672.51,476.37Z" style="fill:#FFC17A" />
<path d="M681.8,450.84A3,3 0 1 1 675.8,450.84A3,3 0 1 1 681.8,450.84Z" style="fill:#FFC17A" />
<path d="M691.09,432.99A3,3 0 1 1 685.09,432.99A3,3 0 1 1 691.09,432.99Z" style="fill:#FFC17A" />
<path d="M700.38,409.48A3,3 0 1 1 694.38,409.48A3,3 0 1 1 700.38,409.48Z" style="fill:#FFC17A" />
<path d="M709.66,395.51A3,3 0 1 1 703.66,395.51A3,3 0 1 1 709.66,395.51Z" style="fill:#FFC17A" />
<path d="M718.95,375.83A3,3 0 1 1 712.95,375.83A3,3 0 1 1 718.95,375.83Z" style="fill:#FFC17A" />
<path d="M728.24,367.56A3,3 0 1 1 722.24,367.56A3,3 0 1 1 728.24,367.56Z" style="fill:#FFC17A" />
<path d="M737.53,348.01A3,3 0 1 1 731.53,348.01A3,3 0 1 1 737.53,348.01Z" style="fill:#FFC17A" />
<path d="M746.82,341.54A3,3 0 1 1 740.82,341.54A3,3 0 1 1 746.82,341.54Z" style="fill:#FFC17A" />
<path d="M756.11,327.28A3,3 0 1 1 750.11,327.28A3,3 0 1 1 756.11,327.28Z" style="fill:#FFC17A" />
<path d="M765.39,320.97A3,3 0 1 1 759.39,320.97A3,3 0 1 1 765.39,320.97Z" style="fill:#FFC17A" />
<path d="M774.68,314.2A3,3 0 1 1 768.68,314.2A3,3 0 1 1 774.68,314.2Z" style="fill:#FFC17A" />
<path d="M783.97,310.22A3,3 0 1 1 777.97,310.22A3,3 0 1 1 783.97,310.22Z" style="fill:#FFC17A" />
<path d="M793.26,306.2A3,3 0 1 1 787.26,306.2A3,3 0 1 1 793.26,306.2Z" style="fill:#FFC17A" />
<path d="M802.55,297.91A3,3 0 1 1 796.55,297.91A3,3 0 1 1 802.55,297.91Z" style="fill:#FFC17A" />
<path d="M811.84,294.25A3,3 0 1 1 805.84,294.25A3,3 0 1 1 811.84,294.25Z" style="fill:#FFC17A" />
<path d="M821.12,290.51A3,3 0 1 1 815.12,290.51A3,3 0 1 1 821.12,290.51Z" style="fill:#FFC17A" />
<path d="M830.41,294.36A3,3 0 1 1 824.41,294.36A3,3 0 1 1 830.41,294.36Z" style="fill:#FFC17A" />
<path d="M839.7,287.57A3,3 0 1 1 833.7,287.57A3,3 0 1 1 839.7,287.57Z" style="fill:#FFC17A" />
<path d="M848.99,288.3A3,3 0 1 1 842.99,288.3A3,3 0 1 1 848.99,288.3Z" style="fill:#FFC17A" />
<path d="M858.28,284.01A3,3 0 1 1 852.28,284.01A3,3 0 1 1 858.28,284.01Z" style="fill:#FFC17A" />
<path d="M867.57,284.81A3,3 0 1 1 861.57,284.81A3,3 0 1 1 867.57,284.81Z" style="fill:#FFC17A" />
<path d="M876.85,276.73A3,3 0 1 1 870.85,276.73A3,3 0 1 1 876.85,276.73Z" style="fill:#FFC17A" />
<path d="M886.14,278.5A3,3 0 1 1 880.14,278.5A3,3 0 1 1 886.14,278.5Z" style="fill:#FFC17A" />
<path d="M895.43,272.13A3,3 0 1 1 889.43,272.13A3,3 0 1 1 895.43,272.13Z" style="fill:#FFC17A" />
<path d="M904.72,262.3A3,3 0 1 1 898.72,262.3A3,3 0 1 1 904.72,262.3Z" style="fill:#FFC17A" />
<path d="M914.01,265.61A3,3 0 1 1 908.01,265.61A3,3 0 1 1 914.01,265.61Z" style="fill:#FFC17A" />
<path d="M923.3,255.28A3,3 0 1 1 917.3,255.28A3,3 0 1 1 923.3,255.28Z" style="fill:#FFC17A" />
<path d="M932.58,259.61A3,3 0 1 1 926.58,259.61A3,3 0 1 1 932.58,259.61Z" style="fill:#FFC17A" />
<path d="M941.87,247.19A3,3 0 1 1 935.87,247.19A3,3 0 1 1 941.87,247.19Z" style="fill:#FFC17A" />
<path d="M951.16,264.4A3,3 0 1 1 945.16,264.4A3,3 0 1 1 951.16,264.4Z" style="fill:#FFC17A" />
<path d="M960.45,261.19A3,3 0 1 1 954.45,261.19A3,3 0 1 1 960.45,261.19Z" style="fill:#FFC17A" />
<path d="M969.74,259.68A3,3 0 1 1 963.74,259.68A3,3 0 1 1 969.74,259.68Z" style="fill:#FFC17A" />
<path d="M979.03,264.55A3,3 0 1 1 973.03,264.55A3,3 0 1 1 979.03,264.55Z" style="fill:#FFC17A" />
<path d="M988.31,257.87A3,3 0 1 1 982.31,257.87A3,3 0 1 1 988.31,257.87Z" style="fill:#FFC17A" />
<path d="M997.6,261.69A3,3 0 1 1 991.6,261.69A3,3 0 1 1 997.6,261.69Z" style="fill:#FFC17A" />
<path d="M1006.9,261.36A3,3 0 1 1 1000.9,261.36A3,3 0 1 1 1006.9,261.36Z" style="fill:#FFC17A" />
<path d="M1016.2,246.2A3,3 0 1 1 1010.2,246.2A3,3 0 1 1 1016.2,246.2Z" style="fill:#FFC17A" />
<path d="M1025.5,265.09A3,3 0 1 1 1019.5,265.09A3,3 0 1 1 1025.5,265.09Z" style="fill:#FFC17A" />
<path d="M1034.8,257.35A3,3 0 1 1 1028.8,257.35A3,3 0 1 1 1034.8,257.35Z" style="fill:#FFC17A" />
<path d="M1044,264.05A3,3 0 1 1 1038,264.05A3,3 0 1 1 1044,264.05Z" style="fill:#FFC17A" />
<path d="M1053.3,260.51A3,3 0 1 1 1047.3,260.51A3,3 0 1 1 1053.3,260.51Z" style="fill:#FFC17A" />
<path d="M126.14,962.84L1055,962.84" style="fill:none;stroke:#000000" />
<path d="M1055,104.32L1055,962.84" style="fill:none;stroke:#000000" />
<path d="M133.79,225.57A3,3 0 1 1 127.79,225.57A3,3 0 1 1 133.79,225.57Z" style="fill:#3B1142" />
<path d="M143.08,226.53A3,3 0 1 1 137.08,226.53A3,3 0 1 1 143.08,226.53Z" style="fill:#3B1142" />
<path d="M152.36,227.24A3,3 0 1 1 146.36,227.24A3,3 0 1 1 152.36,227.24Z" style="fill:#3B1142" />
<path d="M161.65,232.95A3,3 0 1 1 155.65,232.95A3,3 0 1 1 161.65,232.95Z" style="fill:#3B1142" />
<path d="M170.94,235.81A3,3 0 1 1 164.94,235.81A3,3 0 1 1 170.94,235.81Z" style="fill:#3B1142" />
<path d="M180.23,233.42A3,3 0 1 1 174.23,233.42A3,3 0 1 1 180.23,233.42Z" style="fill:#3B1142" />
<path d="M189.52,234.34A3,3 0 1 1 183.52,234.34A3,3 0 1 1 189.52,234.34Z" style="fill:#3B1142" />
<path d="M198.81,238.86A3,3 0 1 1 192.81,238.86A3,3 0 1 1 198.81,238.86Z" style="fill:#3B1142" />
<path d="M208.09,248.32A3,3 0 1 1 202.09,248.32A3,3 0 1 1 208.09,248.32Z" style="fill:#3B1142" />
<path d="M217.38,244.61A3,3 0 1 1 211.38,244.61A3,3 0 1 1 217.38,244.61Z" style="fill:#3B1142" />
<path d="M226.67,249.98A3,3 0 1 1 220.67,249.98A3,3 0 1 1 226.67,249.98Z" style="fill:#3B1142" />
<path d="M235.96,258.16A3,3 0 1 1 229.96,258.16A3,3 0 1 1 235.96,258.16Z" style="fill:#3B1142" />
<path d="M245.25,260.23A3,3 0 1 1 239.25,260.23A3,3 0 1 1 245.25,260.23Z" style="fill:#3B1142" />
<path d="M254.54,268.41A3,3 0 1 1 248.54,268.41A3,3 0 1 1 254.54,268.41Z" style="fill:#3B1142" />
<path d="M263.82,274.11A3,3 0 1 1 257.82,274.11A3,3 0 1 1 263.82,274.11Z" style="fill:#3B1142" />
<path d="M273.11,284.18A3,3 0 1 1 267.11,284.18A3,3 0 1 1 273.11,284.18Z" style="fill:#3B1142" />
<path d="M282.4,286.25A3,3 0 1 1 276.4,286.25A3,3 0 1 1 282.4,286.25Z" style="fill:#3B1142" />
<path d="M291.69,298.25A3,3 0 1 1 285.69,298.25A3,3 0 1 1 291.69,298.25Z" style="fill:#3B1142" />
<path d="M300.98,304.06A3,3 0 1 1 294.98,304.06A3,3 0 1 1 300.98,304.06Z" style="fill:#3B1142" />
<path d="M310.27,311.02A3,3 0 1 1 304.27,311.02A3,3 0 1 1 310.27,311.02Z" style="fill:#3B1142" />
<path d="M319.55,322.55A3,3 0 1 1 313.55,322.55A3,3 0 1 1 319.55,322.55Z" style="fill:#3B1142" />
<path d="M328.84,333.63A3,3 0 1 1 322.84,333.63A3,3 0 1 1 328.84,333.63Z" style="fill:#3B1142" />
<path d="M338.13,343.31A3,3 0 1 1 332.13,343.31A3,3 0 1 1 338.13,343.31Z" style="fill:#3B1142" />
<path d="M347.42,352.66A3,3 0 1 1 341.42,352.66A3,3 0 1 1 347.42,352.66Z" style="fill:#3B1142" />
<path d="M356.71,356.32A3,3 0 1 1 350.71,356.32A3,3 0 1 1 356.71,356.32Z" style="fill:#3B1142" />
<path d="M366,363.64A3,3 0 1 1 360,363.64A3,3 0 1 1 366,363.64Z" style="fill:#3B1142" />
<path d="M375.28,364.13A3,3 0 1 1 369.28,364.13A3,3 0 1 1 375.28,364.13Z" style="fill:#3B1142" />
<path d="M384.57,363.3A3,3 0 1 1 378.57,363.3A3,3 0 1 1 384.57,363.3Z" style="fill:#3B1142" />
<path d="M393.86,358.17A3,3 0 1 1 387.86,358.17A3,3 0 1 1 393.86,358.17Z" style="fill:#3B1142" />
<path d="M403.15,358.51A3,3 0 1 1 397.15,358.51A3,3 0 1 1 403.15,358.51Z" style="fill:#3B1142" />
<path d="M412.44,358.43A3,3 0 1 1 406.44,358.43A3,3 0 1 1 412.44,358.43Z" style="fill:#3B1142" />
<path d="M421.73,362.79A3,3 0 1 1 415.73,362.79A3,3 0 1 1 421.73,362.79Z" style="fill:#3B1142" />
<path d="M431.01,362.93A3,3 0 1 1 425.01,362.93A3,3 0 1 1 431.01,362.93Z" style="fill:#3B1142" />
<path d="M440.3,370.95A3,3 0 1 1 434.3,370.95A3,3 0 1 1 440.3,370.95Z" style="fill:#3B1142" />
<path d="M449.59,373.54A3,3 0 1 1 443.59,373.54A3,3 0 1 1 449.59,373.54Z" style="fill:#3B1142" />
<path d="M458.88,379.43A3,3 0 1 1 452.88,379.43A3,3 0 1 1 458.88,379.43Z" style="fill:#3B1142" />
<path d="M468.17,381.06A3,3 0 1 1 462.17,381.06A3,3 0 1 1 468.17,381.06Z" style="fill:#3B1142" />
<path d="M477.46,392.2A3,3 0 1 1 471.46,392.2A3,3 0 1 1 477.46,392.2Z" style="fill:#3B1142" />
<path d="M486.74,411.01A3,3 0 1 1 480.74,411.01A3,3 0 1 1 486.74,411.01Z" style="fill:#3B1142" />
<path d="M496.03,419.04A3,3 0 1 1 490.03,419.04A3,3 0 1 1 496.03,419.04Z" style="fill:#3B1142" />
<path d="M505.32,436.03A3,3 0 1 1 499.32,436.03A3,3 0 1 1 505.32,436.03Z" style="fill:#3B1142" />
<path d="M514.61,447.05A3,3 0 1 1 508.61,447.05A3,3 0 1 1 514.61,447.05Z" style="fill:#3B1142" />
<path d="M523.9,469.34A3,3 0 1 1 517.9,469.34A3,3 0 1 1 523.9,469.34Z" style="fill:#3B1142" />
<path d="M533.19,486.76A3,3 0 1 1 527.19,486.76A3,3 0 1 1 533.19,486.76Z" style="fill:#3B1142" />
<path d="M542.47,510.01A3,3 0 1 1 536.47,510.01A3,3 0 1 1 542.47,510.01Z" style="fill:#3B1142" />
<path d="M551.76,534.16A3,3 0 1 1 545.76,534.16A3,3 0 1 1 551.76,534.16Z" style="fill:#3B1142" />
<path d="M561.05,568.86A3,3 0 1 1 555.05,568.86A3,3 0 1 1 561.05,568.86Z" style="fill:#3B1142" />
<path d="M570.34,595.28A3,3 0 1 1 564.34,595.28A3,3 0 1 1 570.34,595.28Z" style="fill:#3B1142" />
<path d="M579.63,619.6A3,3 0 1 1 573.63,619.6A3,3 0 1 1 579.63,619.6Z" style="fill:#3B1142" />
<path d="M588.92,655.71A3,3 0 1 1 582.92,655.71A3,3 0 1 1 588.92,655.71Z" style="fill:#3B1142" />
<path d="M598.2,679.64A3,3 0 1 1 592.2,679.64A3,3 0 1 1 598.2,679.64Z" style="fill:#3B1142" />
<path d="M607.49,702.61A3,3 0 1 1 601.49,702.61A3,3 0 1 1 607.49,702.61Z" style="fill:#3B1142" />
<path d="M616.78,706.98A3,3 0 1 1 610.78,706.98A3,3 0 1 1 616.78,706.98Z" style="fill:#3B1142" />
<path d="M626.07,684.6A3,3 0 1 1 620.07,684.6A3,3 0 1 1 626.07,684.6Z" style="fill:#3B1142" />
<path d="M635.36,657.37A3,3 0 1 1 629.36,657.37A3,3 0 1 1 635.36,657.37Z" style="fill:#3B1142" />
<path d="M644.65,623.25A3,3 0 1 1 638.65,623.25A3,3 0 1 1 644.65,623.25Z" style="fill:#3B1142" />
<path d="M653.93,585.34A3,3 0 1 1 647.93,585.34A3,3 0 1 1 653.93,585.34Z" style="fill:#3B1142" />
<path d="M663.22,543.91A3,3 0 1 1 657.22,543.91A3,3 0 1 1 663.22,543.91Z" style="fill:#3B1142" />
<path d="M672.51,509.73A3,3 0 1 1 666.51,509.73A3,3 0 1 1 672.51,509.73Z" style="fill:#3B1142" />
<path d="M681.8,482.51A3,3 0 1 1 675.8,482.51A3,3 0 1 1 681.8,482.51Z" style="fill:#3B1142" />
<path d="M691.09,459.36A3,3 0 1 1 685.09,459.36A3,3 0 1 1 691.09,459.36Z" style="fill:#3B1142" />
<path d="M700.38,431.97A3,3 0 1 1 694.38,431.97A3,3 0 1 1 700.38,431.97Z" style="fill:#3B1142" />
<path d="M709.66,417.07A3,3 0 1 1 703.66,417.07A3,3 0 1 1 709.66,417.07Z" style="fill:#3B1142" />
<path d="M718.95,395.13A3,3 0 1 1 712.95,395.13A3,3 0 1 1 718.95,395.13Z" style="fill:#3B1142" />
<path d="M728.24,384.46A3,3 0 1 1 722.24,384.46A3,3 0 1 1 728.24,384.46Z" style="fill:#3B1142" />
<path d="M737.53,363.01A3,3 0 1 1 731.53,363.01A3,3 0 1 1 737.53,363.01Z" style="fill:#3B1142" />
<path d="M746.82,354.11A3,3 0 1 1 740.82,354.11A3,3 0 1 1 746.82,354.11Z" style="fill:#3B1142" />
<path d="M756.11,336.65A3,3 0 1 1 750.11,336.65A3,3 0 1 1 756.11,336.65Z" style="fill:#3B1142" />
<path d="M765.39,331.36A3,3 0 1 1 759.39,331.36A3,3 0 1 1 765.39,331.36Z" style="fill:#3B1142" />
<path d="M774.68,321.93A3,3 0 1 1 768.68,321.93A3,3 0 1 1 774.68,321.93Z" style="fill:#3B1142" />
<path d="M783.97,319.03A3,3 0 1 1 777.97,319.03A3,3 0 1 1 783.97,319.03Z" style="fill:#3B1142" />
<path d="M793.26,313.04A3,3 0 1 1 787.26,313.04A3,3 0 1 1 793.26,313.04Z" style="fill:#3B1142" />
<path d="M802.55,304.27A3,3 0 1 1 796.55,304.27A3,3 0 1 1 802.55,304.27Z" style="fill:#3B1142" />
<path d="M811.84,301.62A3,3 0 1 1 805.84,301.62A3,3 0 1 1 811.84,301.62Z" style="fill:#3B1142" />
<path d="M821.12,295.49A3,3 0 1 1 815.12,295.49A3,3 0 1 1 821.12,295.49Z" style="fill:#3B1142" />
<path d="M830.41,298.95A3,3 0 1 1 824.41,298.95A3,3 0 1 1 830.41,298.95Z" style="fill:#3B1142" />
<path d="M839.7,292.04A3,3 0 1 1 833.7,292.04A3,3 0 1 1 839.7,292.04Z" style="fill:#3B1142" />
<path d="M848.99,294.63A3,3 0 1 1 842.99,294.63A3,3 0 1 1 848.99,294.63Z" style="fill:#3B1142" />
<path d="M858.28,288.53A3,3 0 1 1 852.28,288.53A3,3 0 1 1 858.28,288.53Z" style="fill:#3B1142" />
<path d="M867.57,290.5A3,3 0 1 1 861.57,290.5A3,3 0 1 1 867.57,290.5Z" style="fill:#3B1142" />
<path d="M876.85,279.47A3,3 0 1 1 870.85,279.47A3,3 0 1 1 876.85,279.47Z" style="fill:#3B1142" />
<path d="M886.14,282.18A3,3 0 1 1 880.14,282.18A3,3 0 1 1 886.14,282.18Z" style="fill:#3B1142" />
<path d="M895.43,272.76A3,3 0 1 1 889.43,272.76A3,3 0 1 1 895.43,272.76Z" style="fill:#3B1142" />
<path d="M904.72,266.41A3,3 0 1 1 898.72,266.41A3,3 0 1 1 904.72,266.41Z" style="fill:#3B1142" />
<path d="M914.01,268.24A3,3 0 1 1 908.01,268.24A3,3 0 1 1 914.01,268.24Z" style="fill:#3B1142" />
<path d="M923.3,251.74A3,3 0 1 1 917.3,251.74A3,3 0 1 1 923.3,251.74Z" style="fill:#3B1142" />
<path d="M932.58,257.84A3,3 0 1 1 926.58,257.84A3,3 0 1 1 932.58,257.84Z" style="fill:#3B1142" />
<path d="M941.87,248.51A3,3 0 1 1 935.87,248.51A3,3 0 1 1 941.87,248.51Z" style="fill:#3B1142" />
<path d="M951.16,262.89A3,3 0 1 1 945.16,262.89A3,3 0 1 1 951.16,262.89Z" style="fill:#3B1142" />
<path d="M960.45,261.59A3,3 0 1 1 954.45,261.59A3,3 0 1 1 960.45,261.59Z" style="fill:#3B1142" />
<path d="M969.74,257.59A3,3 0 1 1 963.74,257.59A3,3 0 1 1 969.74,257.59Z" style="fill:#3B1142" />
<path d="M979.03,266.68A3,3 0 1 1 973.03,266.68A3,3 0 1 1 979.03,266.68Z" style="fill:#3B1142" />
<path d="M988.31,259.21A3,3 0 1 1 982.31,259.21A3,3 0 1 1 988.31,259.21Z" style="fill:#3B1142" />
<path d="M997.6,263.3A3,3 0 1 1 991.6,263.3A3,3 0 1 1 997.6,263.3Z" style="fill:#3B1142" />
<path d="M1006.9,262.16A3,3 0 1 1 1000.9,262.16A3,3 0 1 1 1006.9,262.16Z" style="fill:#3B1142" />
<path d="M1016.2,242.87A3,3 0 1 1 1010.2,242.87A3,3 0 1 1 1016.2,242.87Z" style="fill:#3B1142" />
<path d="M1025.5,264.04A3,3 0 1 1 1019.5,264.04A3,3 0 1 1 1025.5,264.04Z" style="fill:#3B1142" />
<path d="M1034.8,261.79A3,3 0 1 1 1028.8,261.79A3,3 0 1 1 1034.8,261.79Z" style="fill:#3B1142" />
<path d="M1044,265.71A3,3 0 1 1 1038,265.71A3,3 0 1 1 1044,265.71Z" style="fill:#3B1142" />
<path d="M1053.3,261.24A3,3 0 1 1 1047.3,261.24A3,3 0 1 1 1053.3,261.24Z" style="fill:#3B1142" />
<path d="M126.14,962.84L1055,962.84" style="fill:none;stroke:#000000" />
<path d="M1055,104.32L1055,962.84" style="fill:none;stroke:#000000" />
<path d="M133.79,222.2A3,3 0 1 1 127.79,222.2A3,3 0 1 1 133.79,222.2Z" style="fill:#755529" />
<path d="M143.08,223.57A3,3 0 1 1 137.08,223.57A3,3 0 1 1 143.08,223.57Z" style="fill:#755529" />
<path d="M152.36,222.41A3,3 0 1 1 146.36,222.41A3,3 0 1 1 152.36,222.41Z" style="fill:#755529" />
<path d="M161.65,230.41A3,3 0 1 1 155.65,230.41A3,3 0 1 1 161.65,230.41Z" style="fill:#755529" />
<path d="M170.94,232.09A3,3 0 1 1 164.94,232.09A3,3 0 1 1 170.94,232.09Z" style="fill:#755529" />
<path d="M180.23,230.9A3,3 0 1 1 174.23,230.9A3,3 0 1 1 180.23,230.9Z" style="fill:#755529" />
<path d="M189.52,232.6A3,3 0 1 1 183.52,232.6A3,3 0 1 1 189.52,232.6Z" style="fill:#755529" />
<path d="M198.81,236.21A3,3 0 1 1 192.81,236.21A3,3 0 1 1 198.81,236.21Z" style="fill:#755529" />
<path d="M208.09,244.47A3,3 0 1 1 202.09,244.47A3,3 0 1 1 208.09,244.47Z" style="fill:#755529" />
<path d="M217.38,246.01A3,3 0 1 1 211.38,246.01A3,3 0 1 1 217.38,246.01Z" style="fill:#755529" />
<path d="M226.67,251.47A3,3 0 1 1 220.67,251.47A3,3 0 1 1 226.67,251.47Z" style="fill:#755529" />
<path d="M235.96,260.95A3,3 0 1 1 229.96,260.95A3,3 0 1 1 235.96,260.95Z" style="fill:#755529" />
<path d="M245.25,262.89A3,3 0 1 1 239.25,262.89A3,3 0 1 1 245.25,262.89Z" style="fill:#755529" />
<path d="M254.54,272.65A3,3 0 1 1 248.54,272.65A3,3 0 1 1 254.54,272.65Z" style="fill:#755529" />
<path d="M263.82,278.83A3,3 0 1 1 257.82,278.83A3,3 0 1 1 263.82,278.83Z" style="fill:#755529" />
<path d="M273.11,291.42A3,3 0 1 1 267.11,291.42A3,3 0 1 1 273.11,291.42Z" style="fill:#755529" />
<path d="M282.4,296.43A3,3 0 1 1 276.4,296.43A3,3 0 1 1 282.4,296.43Z" style="fill:#755529" />
<path d="M291.69,308.66A3,3 0 1 1 285.69,308.66A3,3 0 1 1 291.69,308.66Z" style="fill:#755529" />
<path d="M300.98,320.03A3,3 0 1 1 294.98,320.03A3,3 0 1 1 300.98,320.03Z" style="fill:#755529" />
<path d="M310.27,328.4A3,3 0 1 1 304.27,328.4A3,3 0 1 1 310.27,328.4Z" style="fill:#755529" />
<path d="M319.55,339.67A3,3 0 1 1 313.55,339.67A3,3 0 1 1 319.55,339.67Z" style="fill:#755529" />
<path d="M328.84,353.11A3,3 0 1 1 322.84,353.11A3,3 0 1 1 328.84,353.11Z" style="fill:#755529" />
<path d="M338.13,365.7A3,3 0 1 1 332.13,365.7A3,3 0 1 1 338.13,365.7Z" style="fill:#755529" />
<path d="M347.42,376.09A3,3 0 1 1 341.42,376.09A3,3 0 1 1 347.42,376.09Z" style="fill:#755529" />
<path d="M356.71,381.39A3,3 0 1 1 350.71,381.39A3,3 0 1 1 356.71,381.39Z" style="fill:#755529" />
<path d="M366,391.11A3,3 0 1 1 360,391.11A3,3 0 1 1 366,391.11Z" style="fill:#755529" />
<path d="M375.28,391.87A3,3 0 1 1 369.28,391.87A3,3 0 1 1 375.28,391.87Z" style="fill:#755529" />
<path d="M384.57,391.87A3,3 0 1 1 378.57,391.87A3,3 0 1 1 384.57,391.87Z" style="fill:#755529" />
<path d="M393.86,384.95A3,3 0 1 1 387.86,384.95A3,3 0 1 1 393.86,384.95Z" style="fill:#755529" />
<path d="M403.15,386.85A3,3 0 1 1 397.15,386.85A3,3 0 1 1 403.15,386.85Z" style="fill:#755529" />
<path d="M412.44,387.11A3,3 0 1 1 406.44,387.11A3,3 0 1 1 412.44,387.11Z" style="fill:#755529" />
<path d="M421.73,388.64A3,3 0 1 1 415.73,388.64A3,3 0 1 1 421.73,388.64Z" style="fill:#755529" />
<path d="M431.01,390.7A3,3 0 1 1 425.01,390.7A3,3 0 1 1 431.01,390.7Z" style="fill:#755529" />
<path d="M440.3,400.36A3,3 0 1 1 434.3,400.36A3,3 0 1 1 440.3,400.36Z" style="fill:#755529" />
<path d="M449.59,402A3,3 0 1 1 443.59,402A3,3 0 1 1 449.59,402Z" style="fill:#755529" />
<path d="M458.88,409A3,3 0 1 1 452.88,409A3,3 0 1 1 458.88,409Z" style="fill:#755529" />
<path d="M468.17,414.32A3,3 0 1 1 462.17,414.32A3,3 0 1 1 468.17,414.32Z" style="fill:#755529" />
<path d="M477.46,427.69A3,3 0 1 1 471.46,427.69A3,3 0 1 1 477.46,427.69Z" style="fill:#755529" />
<path d="M486.74,446.53A3,3 0 1 1 480.74,446.53A3,3 0 1 1 486.74,446.53Z" style="fill:#755529" />
<path d="M496.03,459.03A3,3 0 1 1 490.03,459.03A3,3 0 1 1 496.03,459.03Z" style="fill:#755529" />
<path d="M505.32,477.51A3,3 0 1 1 499.32,477.51A3,3 0 1 1 505.32,477.51Z" style="fill:#755529" />
<path d="M514.61,492.36A3,3 0 1 1 508.61,492.36A3,3 0 1 1 514.61,492.36Z" style="fill:#755529" />
<path d="M523.9,517.99A3,3 0 1 1 517.9,517.99A3,3 0 1 1 523.9,517.99Z" style="fill:#755529" />
<path d="M533.19,542.05A3,3 0 1 1 527.19,542.05A3,3 0 1 1 533.19,542.05Z" style="fill:#755529" />
<path d="M542.47,573.77A3,3 0 1 1 536.47,573.77A3,3 0 1 1 542.47,573.77Z" style="fill:#755529" />
<path d="M551.76,598.97A3,3 0 1 1 545.76,598.97A3,3 0 1 1 551.76,598.97Z" style="fill:#755529" />
<path d="M561.05,641.13A3,3 0 1 1 555.05,641.13A3,3 0 1 1 561.05,641.13Z" style="fill:#755529" />
<path d="M570.34,671.57A3,3 0 1 1 564.34,671.57A3,3 0 1 1 570.34,671.57Z" style="fill:#755529" />
<path d="M579.63,698.9A3,3 0 1 1 573.63,698.9A3,3 0 1 1 579.63,698.9Z" style="fill:#755529" />
<path d="M588.92,742.58A3,3 0 1 1 582.92,742.58A3,3 0 1 1 588.92,742.58Z" style="fill:#755529" />
<path d="M598.2,769.78A3,3 0 1 1 592.2,769.78A3,3 0 1 1 598.2,769.78Z" style="fill:#755529" />
<path d="M607.49,794.96A3,3 0 1 1 601.49,794.96A3,3 0 1 1 607.49,794.96Z" style="fill:#755529" />
<path d="M616.78,801.95A3,3 0 1 1 610.78,801.95A3,3 0 1 1 616.78,801.95Z" style="fill:#755529" />
<path d="M626.07,774.53A3,3 0 1 1 620.07,774.53A3,3 0 1 1 626.07,774.53Z" style="fill:#755529" />
<path d="M635.36,741.53A3,3 0 1 1 629.36,741.53A3,3 0 1 1 635.36,741.53Z" style="fill:#755529" />
<path d="M644.65,700.49A3,3 0 1 1 638.65,700.49A3,3 0 1 1 644.65,700.49Z" style="fill:#755529" />
<path d="M653.93,652.5A3,3 0 1 1 647.93,652.5A3,3 0 1 1 653.93,652.5Z" style="fill:#755529" />
<path d="M663.22,607.41A3,3 0 1 1 657.22,607.41A3,3 0 1 1 663.22,607.41Z" style="fill:#755529" />
<path d="M672.51,565.95A3,3 0 1 1 666.51,565.95A3,3 0 1 1 672.51,565.95Z" style="fill:#755529" />
<path d="M681.8,531A3,3 0 1 1 675.8,531A3,3 0 1 1 681.8,531Z" style="fill:#755529" />
<path d="M691.09,502.09A3,3 0 1 1 685.09,502.09A3,3 0 1 1 691.09,502.09Z" style="fill:#755529" />
<path d="M700.38,469.99A3,3 0 1 1 694.38,469.99A3,3 0 1 1 700.38,469.99Z" style="fill:#755529" />
<path d="M709.66,452.48A3,3 0 1 1 703.66,452.48A3,3 0 1 1 709.66,452.48Z" style="fill:#755529" />
<path d="M718.95,424.56A3,3 0 1 1 712.95,424.56A3,3 0 1 1 718.95,424.56Z" style="fill:#755529" />
<path d="M728.24,412.65A3,3 0 1 1 722.24,412.65A3,3 0 1 1 728.24,412.65Z" style="fill:#755529" />
<path d="M737.53,390.38A3,3 0 1 1 731.53,390.38A3,3 0 1 1 737.53,390.38Z" style="fill:#755529" />
<path d="M746.82,376.49A3,3 0 1 1 740.82,376.49A3,3 0 1 1 746.82,376.49Z" style="fill:#755529" />
<path d="M756.11,357.35A3,3 0 1 1 750.11,357.35A3,3 0 1 1 756.11,357.35Z" style="fill:#755529" />
<path d="M765.39,350.44A3,3 0 1 1 759.39,350.44A3,3 0 1 1 765.39,350.44Z" style="fill:#755529" />
<path d="M774.68,337.91A3,3 0 1 1 768.68,337.91A3,3 0 1 1 774.68,337.91Z" style="fill:#755529" />
<path d="M783.97,334.44A3,3 0 1 1 777.97,334.44A3,3 0 1 1 783.97,334.44Z" style="fill:#755529" />
<path d="M793.26,327.31A3,3 0 1 1 787.26,327.31A3,3 0 1 1 793.26,327.31Z" style="fill:#755529" />
<path d="M802.55,316.77A3,3 0 1 1 796.55,316.77A3,3 0 1 1 802.55,316.77Z" style="fill:#755529" />
<path d="M811.84,313.39A3,3 0 1 1 805.84,313.39A3,3 0 1 1 811.84,313.39Z" style="fill:#755529" />
<path d="M821.12,306.24A3,3 0 1 1 815.12,306.24A3,3 0 1 1 821.12,306.24Z" style="fill:#755529" />
<path d="M830.41,309.53A3,3 0 1 1 824.41,309.53A3,3 0 1 1 830.41,309.53Z" style="fill:#755529" />
<path d="M839.7,302.93A3,3 0 1 1 833.7,302.93A3,3 0 1 1 839.7,302.93Z" style="fill:#755529" />
<path d="M848.99,299.93A3,3 0 1 1 842.99,299.93A3,3 0 1 1 848.99,299.93Z" style="fill:#755529" />
<path d="M858.28,297.48A3,3 0 1 1 852.28,297.48A3,3 0 1 1 858.28,297.48Z" style="fill:#755529" />
<path d="M867.57,298.45A3,3 0 1 1 861.57,298.45A3,3 0 1 1 867.57,298.45Z" style="fill:#755529" />
<path d="M876.85,287.26A3,3 0 1 1 870.85,287.26A3,3 0 1 1 876.85,287.26Z" style="fill:#755529" />
<path d="M886.14,290.7A3,3 0 1 1 880.14,290.7A3,3 0 1 1 886.14,290.7Z" style="fill:#755529" />
<path d="M895.43,280.76A3,3 0 1 1 889.43,280.76A3,3 0 1 1 895.43,280.76Z" style="fill:#755529" />
<path d="M904.72,271.99A3,3 0 1 1 898.72,271.99A3,3 0 1 1 904.72,271.99Z" style="fill:#755529" />
<path d="M914.01,271.41A3,3 0 1 1 908.01,271.41A3,3 0 1 1 914.01,271.41Z" style="fill:#755529" />
<path d="M923.3,258.53A3,3 0 1 1 917.3,258.53A3,3 0 1 1 923.3,258.53Z" style="fill:#755529" />
<path d="M932.58,264.5A3,3 0 1 1 926.58,264.5A3,3 0 1 1 932.58,264.5Z" style="fill:#755529" />
<path d="M941.87,251.58A3,3 0 1 1 935.87,251.58A3,3 0 1 1 941.87,251.58Z" style="fill:#755529" />
<path d="M951.16,268.83A3,3 0 1 1 945.16,268.83A3,3 0 1 1 951.16,268.83Z" style="fill:#755529" />
<path d="M960.45,263.6A3,3 0 1 1 954.45,263.6A3,3 0 1 1 960.45,263.6Z" style="fill:#755529" />
<path d="M969.74,260.62A3,3 0 1 1 963.74,260.62A3,3 0 1 1 969.74,260.62Z" style="fill:#755529" />
<path d="M979.03,268.05A3,3 0 1 1 973.03,268.05A3,3 0 1 1 979.03,268.05Z" style="fill:#755529" />
<path d="M988.31,251.06A3,3 0 1 1 982.31,251.06A3,3 0 1 1 988.31,251.06Z" style="fill:#755529" />
<path d="M997.6,269.33A3,3 0 1 1 991.6,269.33A3,3 0 1 1 997.6,269.33Z" style="fill:#755529" />
<path d="M1006.9,263.1A3,3 0 1 1 1000.9,263.1A3,3 0 1 1 1006.9,263.1Z" style="fill:#755529" />
<path d="M1016.2,243.04A3,3 0 1 1 1010.2,243.04A3,3 0 1 1 1016.2,243.04Z" style="fill:#755529" />
<path d="M1025.5,267.01A3,3 0 1 1 1019.5,267.01A3,3 0 1 1 1025.5,267.01Z" style="fill:#755529" />
<path d="M1034.8,262.01A3,3 0 1 1 1028.8,262.01A3,3 0 1 1 1034.8,262.01Z" style="fill:#755529" />
<path d="M1044,269.87A3,3 0 1 1 1038,269.87A3,3 0 1 1 1044,269.87Z" style="fill:#755529" />
<path d="M1053.3,266.27A3,3 0 1 1 1047.3,266.27A3,3 0 1 1 1053.3,266.27Z" style="fill:#755529" />
<path d="M126.14,962.84L1055,962.84" style="fill:none;stroke:#000000" />
<path d="M1055,104.32L1055,962.84" style="fill:none;stroke:#000000" />
<text x="211.14" y="-899.95" transform="scale(1, -1)"
	style="font-family:Helvetica;font-weight:normal;font-style:normal;font-size:36px">Pump</text>
<path d="M182.14,867.02A6,6 0 1 1 170.14,867.02A6,6 0 1 1 182.14,867.02Z" style="fill:#5B1616" />
<text x="211.14" y="-858.54" transform="scale(1, -1)"
	style="font-family:Helvetica;font-weight:normal;font-style:normal;font-size:36px">30 mW</text>
<path d="M182.14,825.61A6,6 0 1 1 170.14,825.61A6,6 0 1 1 182.14,825.61Z" style="fill:#013854" />
<text x="211.14" y="-817.13" transform="scale(1, -1)"
	style="font-family:Helvetica;font-weight:normal;font-style:normal;font-size:36px">60 mW</text>
<path d="M182.14,784.2A6,6 0 1 1 170.14,784.2A6,6 0 1 1 182.14,784.2Z" style="fill:#7A2968" />
<text x="211.14" y="-775.72" transform="scale(1, -1)"
	style="font-family:Helvetica;font-weight:normal;font-style:normal;font-size:36px">90 mW</text>
<path d="M182.14,742.79A6,6 0 1 1 170.14,742.79A6,6 0 1 1 182.14,742.79Z" style="fill:#FFC17A" />
<text x="211.14" y="-734.3" transform="scale(1, -1)"
	style="font-family:Helvetica;font-weight:normal;font-style:normal;font-size:36px">120 mW</text>
<path d="M182.14,701.37A6,6 0 1 1 170.14,701.37A6,6 0 1 1 182.14,701.37Z" style="fill:#3B1142" />
<text x="211.14" y="-692.89" transform="scale(1, -1)"
	style="font-family:Helvetica;font-weight:normal;font-style:normal;font-size:36px">140 mW</text>
<path d="M182.14,659.96A6,6 0 1 1 170.14,659.96A6,6 0 1 1 182.14,659.96Z" style="fill:#755529" />
<text x="211.14" y="-651.48" transform="scale(1, -1)"
	style="font-family:Helvetica;font-weight:normal;font-style:normal;font-size:36px">170 mW</text>
</g>
</svg>
