<?xml version="1.0"?>
<!-- Generated by SVGo and Plotinum VG -->
<svg width="1080pt" height="1080pt" viewBox="0 0 1080 1080"
	xmlns="http://www.w3.org/2000/svg"
	xmlns:xlink="http://www.w3.org/1999/xlink">
<g transform="scale(1, -1) translate(0, -1080)">
<path d="M0,0L1080,0L1080,1080L0,1080Z" style="fill:#-8000000000000000-8000000000000000-8000000000000000;fill-opacity:0" />
<text x="123.2" y="-1039.5" transform="scale(1, -1)"
	style="font-family:Helvetica;font-weight:normal;font-style:normal;font-size:50px">Stokes Pump Power vs Widths of Fits</text>
<text x="446.05" y="-11.039" transform="scale(1, -1)"
	style="font-family:Helvetica;font-weight:normal;font-style:normal;font-size:36px">Pump Power (mW)</text>
<text x="236.58" y="-71.258" transform="scale(1, -1)"
	style="font-family:Helvetica;font-weight:normal;font-style:normal;font-size:36px">0</text>
<text x="427.41" y="-71.258" transform="scale(1, -1)"
	style="font-family:Helvetica;font-weight:normal;font-style:normal;font-size:36px">50</text>
<text x="618.25" y="-71.258" transform="scale(1, -1)"
	style="font-family:Helvetica;font-weight:normal;font-style:normal;font-size:36px">100</text>
<text x="819.09" y="-71.258" transform="scale(1, -1)"
	style="font-family:Helvetica;font-weight:normal;font-style:normal;font-size:36px">150</text>
<text x="1019.9" y="-71.258" transform="scale(1, -1)"
	style="font-family:Helvetica;font-weight:normal;font-style:normal;font-size:36px">200</text>
<path d="M246.59,116.44L246.59,108.44" style="fill:none;stroke:#000000;stroke-width:1.5" />
<path d="M347.01,112.44L347.01,108.44" style="fill:none;stroke:#000000;stroke-width:1.5" />
<path d="M447.43,116.44L447.43,108.44" style="fill:none;stroke:#000000;stroke-width:1.5" />
<path d="M547.85,112.44L547.85,108.44" style="fill:none;stroke:#000000;stroke-width:1.5" />
<path d="M648.28,116.44L648.28,108.44" style="fill:none;stroke:#000000;stroke-width:1.5" />
<path d="M748.7,112.44L748.7,108.44" style="fill:none;stroke:#000000;stroke-width:1.5" />
<path d="M849.12,116.44L849.12,108.44" style="fill:none;stroke:#000000;stroke-width:1.5" />
<path d="M949.55,112.44L949.55,108.44" style="fill:none;stroke:#000000;stroke-width:1.5" />
<path d="M1050,116.44L1050,108.44" style="fill:none;stroke:#000000;stroke-width:1.5" />
<path d="M146.16,108.44L1050,108.44" style="fill:none;stroke:#000000;stroke-width:1.5" />
<g transform="rotate(90)">
<text x="323.56" y="29.18" transform="scale(1, -1)"
	style="font-family:Helvetica;font-weight:normal;font-style:normal;font-size:36px">Full Width Half Max (MHz)</text>
</g>
<text x="87.869" y="-217.89" transform="scale(1, -1)"
	style="font-family:Helvetica;font-weight:normal;font-style:normal;font-size:36px">80</text>
<text x="87.869" y="-463.18" transform="scale(1, -1)"
	style="font-family:Helvetica;font-weight:normal;font-style:normal;font-size:36px">90</text>
<text x="67.848" y="-708.48" transform="scale(1, -1)"
	style="font-family:Helvetica;font-weight:normal;font-style:normal;font-size:36px">100</text>
<text x="70.52" y="-953.77" transform="scale(1, -1)"
	style="font-family:Helvetica;font-weight:normal;font-style:normal;font-size:36px">110</text>
<path d="M149.91,104.32L145.91,104.32" style="fill:none;stroke:#000000;stroke-width:1.5" />
<path d="M153.91,226.96L145.91,226.96" style="fill:none;stroke:#000000;stroke-width:1.5" />
<path d="M149.91,349.61L145.91,349.61" style="fill:none;stroke:#000000;stroke-width:1.5" />
<path d="M153.91,472.25L145.91,472.25" style="fill:none;stroke:#000000;stroke-width:1.5" />
<path d="M149.91,594.9L145.91,594.9" style="fill:none;stroke:#000000;stroke-width:1.5" />
<path d="M153.91,717.55L145.91,717.55" style="fill:none;stroke:#000000;stroke-width:1.5" />
<path d="M149.91,840.19L145.91,840.19" style="fill:none;stroke:#000000;stroke-width:1.5" />
<path d="M153.91,962.84L145.91,962.84" style="fill:none;stroke:#000000;stroke-width:1.5" />
<path d="M145.91,104.32L145.91,962.84" style="fill:none;stroke:#000000;stroke-width:1.5" />
<path d="M373.09,436.78A6,6 0 1 1 361.09,436.78A6,6 0 1 1 373.09,436.78Z" style="fill:#5B1616" />
<path d="M146.16,962.84L1050,962.84" style="fill:none;stroke:#000000" />
<path d="M1050,104.32L1050,962.84" style="fill:none;stroke:#000000" />
<path d="M367.09,104.32L367.09,436.78" style="fill:none;stroke:#5B1616;stroke-width:4;stroke-dasharray:15,5" />
<path d="M146.16,436.78L367.09,436.78" style="fill:none;stroke:#7F7F7F;stroke-dasharray:5,5" />
<path d="M493.6,435.69A6,6 0 1 1 481.6,435.69A6,6 0 1 1 493.6,435.69Z" style="fill:#013854" />
<path d="M146.16,962.84L1050,962.84" style="fill:none;stroke:#000000" />
<path d="M1050,104.32L1050,962.84" style="fill:none;stroke:#000000" />
<path d="M487.6,104.32L487.6,435.69" style="fill:none;stroke:#013854;stroke-width:4;stroke-dasharray:15,5" />
<path d="M146.16,435.69L487.6,435.69" style="fill:none;stroke:#7F7F7F;stroke-dasharray:5,5" />
<path d="M614.11,416.95A6,6 0 1 1 602.11,416.95A6,6 0 1 1 614.11,416.95Z" style="fill:#7A2968" />
<path d="M146.16,962.84L1050,962.84" style="fill:none;stroke:#000000" />
<path d="M1050,104.32L1050,962.84" style="fill:none;stroke:#000000" />
<path d="M608.11,104.32L608.11,416.95" style="fill:none;stroke:#7A2968;stroke-width:4;stroke-dasharray:15,5" />
<path d="M146.16,416.95L608.11,416.95" style="fill:none;stroke:#7F7F7F;stroke-dasharray:5,5" />
<path d="M734.62,400.43A6,6 0 1 1 722.62,400.43A6,6 0 1 1 734.62,400.43Z" style="fill:#B78B59" />
<path d="M146.16,962.84L1050,962.84" style="fill:none;stroke:#000000" />
<path d="M1050,104.32L1050,962.84" style="fill:none;stroke:#000000" />
<path d="M728.62,104.32L728.62,400.43" style="fill:none;stroke:#B78B59;stroke-width:4;stroke-dasharray:15,5" />
<path d="M146.16,400.43L728.62,400.43" style="fill:none;stroke:#7F7F7F;stroke-dasharray:5,5" />
<path d="M814.95,391.62A6,6 0 1 1 802.95,391.62A6,6 0 1 1 814.95,391.62Z" style="fill:#3B1142" />
<path d="M146.16,962.84L1050,962.84" style="fill:none;stroke:#000000" />
<path d="M1050,104.32L1050,962.84" style="fill:none;stroke:#000000" />
<path d="M808.95,104.32L808.95,391.62" style="fill:none;stroke:#3B1142;stroke-width:4;stroke-dasharray:15,5" />
<path d="M146.16,391.62L808.95,391.62" style="fill:none;stroke:#7F7F7F;stroke-dasharray:5,5" />
<path d="M935.46,374.02A6,6 0 1 1 923.46,374.02A6,6 0 1 1 935.46,374.02Z" style="fill:#755529" />
<path d="M146.16,962.84L1050,962.84" style="fill:none;stroke:#000000" />
<path d="M1050,104.32L1050,962.84" style="fill:none;stroke:#000000" />
<path d="M929.46,104.32L929.46,374.02" style="fill:none;stroke:#755529;stroke-width:4;stroke-dasharray:15,5" />
<path d="M146.16,374.02L929.46,374.02" style="fill:none;stroke:#7F7F7F;stroke-dasharray:5,5" />
<text x="880.99" y="-883.54" transform="scale(1, -1)"
	style="font-family:Helvetica;font-weight:normal;font-style:normal;font-size:36px">30 mW</text>
<text x="880.99" y="-842.13" transform="scale(1, -1)"
	style="font-family:Helvetica;font-weight:normal;font-style:normal;font-size:36px">60 mW</text>
<text x="880.99" y="-800.72" transform="scale(1, -1)"
	style="font-family:Helvetica;font-weight:normal;font-style:normal;font-size:36px">90 mW</text>
<text x="860.96" y="-759.3" transform="scale(1, -1)"
	style="font-family:Helvetica;font-weight:normal;font-style:normal;font-size:36px">120 mW</text>
<text x="860.96" y="-717.89" transform="scale(1, -1)"
	style="font-family:Helvetica;font-weight:normal;font-style:normal;font-size:36px">140 mW</text>
<text x="860.96" y="-676.48" transform="scale(1, -1)"
	style="font-family:Helvetica;font-weight:normal;font-style:normal;font-size:36px">170 mW</text>
</g>
</svg>
