<?xml version="1.0"?>
<!-- Generated by SVGo and Plotinum VG -->
<svg width="1080pt" height="1080pt" viewBox="0 0 1080 1080"
	xmlns="http://www.w3.org/2000/svg"
	xmlns:xlink="http://www.w3.org/1999/xlink">
<g transform="scale(1, -1) translate(0, -1080)">
<path d="M0,0L1080,0L1080,1080L0,1080Z" style="fill:#-8000000000000000-8000000000000000-8000000000000000;fill-opacity:0" />
<text x="312.12" y="-1039.5" transform="scale(1, -1)"
	style="font-family:Helvetica;font-weight:normal;font-style:normal;font-size:50px">Linewidths vs Power</text>
<text x="445.93" y="-11.039" transform="scale(1, -1)"
	style="font-family:Helvetica;font-weight:normal;font-style:normal;font-size:36px">Pump Power (mW)</text>
<text x="135.9" y="-71.258" transform="scale(1, -1)"
	style="font-family:Helvetica;font-weight:normal;font-style:normal;font-size:36px">0</text>
<text x="351.91" y="-71.258" transform="scale(1, -1)"
	style="font-family:Helvetica;font-weight:normal;font-style:normal;font-size:36px">50</text>
<text x="567.91" y="-71.258" transform="scale(1, -1)"
	style="font-family:Helvetica;font-weight:normal;font-style:normal;font-size:36px">100</text>
<text x="793.92" y="-71.258" transform="scale(1, -1)"
	style="font-family:Helvetica;font-weight:normal;font-style:normal;font-size:36px">150</text>
<text x="1019.9" y="-71.258" transform="scale(1, -1)"
	style="font-family:Helvetica;font-weight:normal;font-style:normal;font-size:36px">200</text>
<path d="M145.91,116.44L145.91,108.44" style="fill:none;stroke:#000000;stroke-width:1.5" />
<path d="M258.92,112.44L258.92,108.44" style="fill:none;stroke:#000000;stroke-width:1.5" />
<path d="M371.93,116.44L371.93,108.44" style="fill:none;stroke:#000000;stroke-width:1.5" />
<path d="M484.93,112.44L484.93,108.44" style="fill:none;stroke:#000000;stroke-width:1.5" />
<path d="M597.94,116.44L597.94,108.44" style="fill:none;stroke:#000000;stroke-width:1.5" />
<path d="M710.95,112.44L710.95,108.44" style="fill:none;stroke:#000000;stroke-width:1.5" />
<path d="M823.95,116.44L823.95,108.44" style="fill:none;stroke:#000000;stroke-width:1.5" />
<path d="M936.96,112.44L936.96,108.44" style="fill:none;stroke:#000000;stroke-width:1.5" />
<path d="M1050,116.44L1050,108.44" style="fill:none;stroke:#000000;stroke-width:1.5" />
<path d="M145.91,108.44L1050,108.44" style="fill:none;stroke:#000000;stroke-width:1.5" />
<g transform="rotate(90)">
<text x="325.69" y="29.18" transform="scale(1, -1)"
	style="font-family:Helvetica;font-weight:normal;font-style:normal;font-size:36px">Full Width Half Max (MHz)</text>
</g>
<text x="87.869" y="-165.21" transform="scale(1, -1)"
	style="font-family:Helvetica;font-weight:normal;font-style:normal;font-size:36px">30</text>
<text x="87.869" y="-559.49" transform="scale(1, -1)"
	style="font-family:Helvetica;font-weight:normal;font-style:normal;font-size:36px">90</text>
<text x="67.848" y="-953.77" transform="scale(1, -1)"
	style="font-family:Helvetica;font-weight:normal;font-style:normal;font-size:36px">150</text>
<path d="M153.91,174.28L145.91,174.28" style="fill:none;stroke:#000000;stroke-width:1.5" />
<path d="M153.91,568.56L145.91,568.56" style="fill:none;stroke:#000000;stroke-width:1.5" />
<path d="M153.91,962.84L145.91,962.84" style="fill:none;stroke:#000000;stroke-width:1.5" />
<path d="M149.91,371.42L145.91,371.42" style="fill:none;stroke:#000000;stroke-width:1.5" />
<path d="M149.91,765.7L145.91,765.7" style="fill:none;stroke:#000000;stroke-width:1.5" />
<path d="M145.91,108.57L145.91,962.84" style="fill:none;stroke:#000000;stroke-width:1.5" />
<path d="M1000.2,742.53L792.31,648.52L570.82,548.39L340.29,444.17L209.2,384.91" style="fill:none;stroke:#637CC6;stroke-width:3" />
<path d="M1000.2,449.08L792.31,441.39L570.82,433.19L340.29,424.67L209.2,419.82" style="fill:none;stroke:#C96892;stroke-width:3" />
<path d="M1006.2,642.3A6,6 0 1 1 994.24,642.3A6,6 0 1 1 1006.2,642.3Z" style="fill:#637CC6" />
<path d="M798.31,735.08A6,6 0 1 1 786.31,735.08A6,6 0 1 1 798.31,735.08Z" style="fill:#637CC6" />
<path d="M576.82,577.37A6,6 0 1 1 564.82,577.37A6,6 0 1 1 576.82,577.37Z" style="fill:#637CC6" />
<path d="M346.29,584.07A6,6 0 1 1 334.29,584.07A6,6 0 1 1 346.29,584.07Z" style="fill:#637CC6" />
<path d="M215.2,229.71A6,6 0 1 1 203.2,229.71A6,6 0 1 1 215.2,229.71Z" style="fill:#637CC6" />
<path d="M1006.2,428.91A6,6 0 1 1 994.24,428.91A6,6 0 1 1 1006.2,428.91Z" style="fill:#C96892" />
<path d="M798.31,418.57A6,6 0 1 1 786.31,418.57A6,6 0 1 1 798.31,418.57Z" style="fill:#C96892" />
<path d="M576.82,442.31A6,6 0 1 1 564.82,442.31A6,6 0 1 1 576.82,442.31Z" style="fill:#C96892" />
<path d="M346.29,622.71A6,6 0 1 1 334.29,622.71A6,6 0 1 1 346.29,622.71Z" style="fill:#C96892" />
<path d="M215.2,255.64A6,6 0 1 1 203.2,255.64A6,6 0 1 1 215.2,255.64Z" style="fill:#C96892" />
<path d="M980,908.43L1030,908.43" style="fill:none;stroke:#637CC6;stroke-width:3" />
<text x="785.92" y="-899.95" transform="scale(1, -1)"
	style="font-family:Helvetica;font-weight:normal;font-style:normal;font-size:36px">Anti-Stokes</text>
<path d="M980,867.02L1030,867.02" style="fill:none;stroke:#C96892;stroke-width:3" />
<text x="859.94" y="-858.54" transform="scale(1, -1)"
	style="font-family:Helvetica;font-weight:normal;font-style:normal;font-size:36px">Stokes</text>
</g>
</svg>
