<?xml version="1.0"?>
<!-- Generated by SVGo and Plotinum VG -->
<svg width="1080pt" height="1080pt" viewBox="0 0 1080 1080"
	xmlns="http://www.w3.org/2000/svg"
	xmlns:xlink="http://www.w3.org/1999/xlink">
<g transform="scale(1, -1) translate(0, -1080)">
<path d="M0,0L1080,0L1080,1080L0,1080Z" style="fill:#-8000000000000000-8000000000000000-8000000000000000;fill-opacity:0" />
<text x="319.11" y="-1039.5" transform="scale(1, -1)"
	style="font-family:Helvetica;font-weight:normal;font-style:normal;font-size:50px">1 cm UHNA3 CABS</text>
<text x="472.92" y="-11.039" transform="scale(1, -1)"
	style="font-family:Helvetica;font-weight:normal;font-style:normal;font-size:36px">Frequency (GHz)</text>
<text x="131.9" y="-71.258" transform="scale(1, -1)"
	style="font-family:Helvetica;font-weight:normal;font-style:normal;font-size:36px">9</text>
<text x="377.47" y="-71.258" transform="scale(1, -1)"
	style="font-family:Helvetica;font-weight:normal;font-style:normal;font-size:36px">9.1</text>
<text x="638.05" y="-71.258" transform="scale(1, -1)"
	style="font-family:Helvetica;font-weight:normal;font-style:normal;font-size:36px">9.2</text>
<text x="898.63" y="-71.258" transform="scale(1, -1)"
	style="font-family:Helvetica;font-weight:normal;font-style:normal;font-size:36px">9.3</text>
<path d="M141.91,116.44L141.91,108.44" style="fill:none;stroke:#000000;stroke-width:1.5" />
<path d="M272.2,112.44L272.2,108.44" style="fill:none;stroke:#000000;stroke-width:1.5" />
<path d="M402.49,116.44L402.49,108.44" style="fill:none;stroke:#000000;stroke-width:1.5" />
<path d="M532.78,112.44L532.78,108.44" style="fill:none;stroke:#000000;stroke-width:1.5" />
<path d="M663.07,116.44L663.07,108.44" style="fill:none;stroke:#000000;stroke-width:1.5" />
<path d="M793.36,112.44L793.36,108.44" style="fill:none;stroke:#000000;stroke-width:1.5" />
<path d="M923.65,116.44L923.65,108.44" style="fill:none;stroke:#000000;stroke-width:1.5" />
<path d="M1053.9,112.44L1053.9,108.44" style="fill:none;stroke:#000000;stroke-width:1.5" />
<path d="M141.91,108.44L1080,108.44" style="fill:none;stroke:#000000;stroke-width:1.5" />
<g transform="rotate(90)">
<text x="365.02" y="29.18" transform="scale(1, -1)"
	style="font-family:Helvetica;font-weight:normal;font-style:normal;font-size:36px">Spectral Density (uV)</text>
</g>
<text x="107.89" y="-181.22" transform="scale(1, -1)"
	style="font-family:Helvetica;font-weight:normal;font-style:normal;font-size:36px">0</text>
<text x="87.869" y="-567.49" transform="scale(1, -1)"
	style="font-family:Helvetica;font-weight:normal;font-style:normal;font-size:36px">50</text>
<text x="67.848" y="-953.77" transform="scale(1, -1)"
	style="font-family:Helvetica;font-weight:normal;font-style:normal;font-size:36px">100</text>
<path d="M153.91,190.29L145.91,190.29" style="fill:none;stroke:#000000;stroke-width:1.5" />
<path d="M149.91,383.43L145.91,383.43" style="fill:none;stroke:#000000;stroke-width:1.5" />
<path d="M153.91,576.56L145.91,576.56" style="fill:none;stroke:#000000;stroke-width:1.5" />
<path d="M149.91,769.7L145.91,769.7" style="fill:none;stroke:#000000;stroke-width:1.5" />
<path d="M153.91,962.84L145.91,962.84" style="fill:none;stroke:#000000;stroke-width:1.5" />
<path d="M145.91,107.32L145.91,962.84" style="fill:none;stroke:#000000;stroke-width:1.5" />
<path d="M157.94,193.8A3,3 0 1 1 151.94,193.8A3,3 0 1 1 157.94,193.8Z" style="fill:#8C2E31" />
<path d="M170.97,176.56A3,3 0 1 1 164.97,176.56A3,3 0 1 1 170.97,176.56Z" style="fill:#8C2E31" />
<path d="M184,202.3A3,3 0 1 1 178,202.3A3,3 0 1 1 184,202.3Z" style="fill:#8C2E31" />
<path d="M197.03,107.32A3,3 0 1 1 191.03,107.32A3,3 0 1 1 197.03,107.32Z" style="fill:#8C2E31" />
<path d="M210.06,136.3A3,3 0 1 1 204.06,136.3A3,3 0 1 1 210.06,136.3Z" style="fill:#8C2E31" />
<path d="M223.09,155.89A3,3 0 1 1 217.09,155.89A3,3 0 1 1 223.09,155.89Z" style="fill:#8C2E31" />
<path d="M236.12,242.59A3,3 0 1 1 230.12,242.59A3,3 0 1 1 236.12,242.59Z" style="fill:#8C2E31" />
<path d="M249.15,276.99A3,3 0 1 1 243.15,276.99A3,3 0 1 1 249.15,276.99Z" style="fill:#8C2E31" />
<path d="M262.17,180A3,3 0 1 1 256.17,180A3,3 0 1 1 262.17,180Z" style="fill:#8C2E31" />
<path d="M275.2,192.7A3,3 0 1 1 269.2,192.7A3,3 0 1 1 275.2,192.7Z" style="fill:#8C2E31" />
<path d="M288.23,176.51A3,3 0 1 1 282.23,176.51A3,3 0 1 1 288.23,176.51Z" style="fill:#8C2E31" />
<path d="M301.26,262.83A3,3 0 1 1 295.26,262.83A3,3 0 1 1 301.26,262.83Z" style="fill:#8C2E31" />
<path d="M314.29,291.97A3,3 0 1 1 308.29,291.97A3,3 0 1 1 314.29,291.97Z" style="fill:#8C2E31" />
<path d="M327.32,224.1A3,3 0 1 1 321.32,224.1A3,3 0 1 1 327.32,224.1Z" style="fill:#8C2E31" />
<path d="M340.35,298.59A3,3 0 1 1 334.35,298.59A3,3 0 1 1 340.35,298.59Z" style="fill:#8C2E31" />
<path d="M353.38,277.95A3,3 0 1 1 347.38,277.95A3,3 0 1 1 353.38,277.95Z" style="fill:#8C2E31" />
<path d="M366.41,355.32A3,3 0 1 1 360.41,355.32A3,3 0 1 1 366.41,355.32Z" style="fill:#8C2E31" />
<path d="M379.44,275.58A3,3 0 1 1 373.44,275.58A3,3 0 1 1 379.44,275.58Z" style="fill:#8C2E31" />
<path d="M392.46,290.08A3,3 0 1 1 386.46,290.08A3,3 0 1 1 392.46,290.08Z" style="fill:#8C2E31" />
<path d="M405.49,283.54A3,3 0 1 1 399.49,283.54A3,3 0 1 1 405.49,283.54Z" style="fill:#8C2E31" />
<path d="M418.52,299.36A3,3 0 1 1 412.52,299.36A3,3 0 1 1 418.52,299.36Z" style="fill:#8C2E31" />
<path d="M431.55,347.29A3,3 0 1 1 425.55,347.29A3,3 0 1 1 431.55,347.29Z" style="fill:#8C2E31" />
<path d="M444.58,297.64A3,3 0 1 1 438.58,297.64A3,3 0 1 1 444.58,297.64Z" style="fill:#8C2E31" />
<path d="M457.61,372.67A3,3 0 1 1 451.61,372.67A3,3 0 1 1 457.61,372.67Z" style="fill:#8C2E31" />
<path d="M470.64,313.47A3,3 0 1 1 464.64,313.47A3,3 0 1 1 470.64,313.47Z" style="fill:#8C2E31" />
<path d="M483.67,335.52A3,3 0 1 1 477.67,335.52A3,3 0 1 1 483.67,335.52Z" style="fill:#8C2E31" />
<path d="M496.7,343.37A3,3 0 1 1 490.7,343.37A3,3 0 1 1 496.7,343.37Z" style="fill:#8C2E31" />
<path d="M509.73,371.8A3,3 0 1 1 503.73,371.8A3,3 0 1 1 509.73,371.8Z" style="fill:#8C2E31" />
<path d="M522.75,406.45A3,3 0 1 1 516.75,406.45A3,3 0 1 1 522.75,406.45Z" style="fill:#8C2E31" />
<path d="M535.78,320.52A3,3 0 1 1 529.78,320.52A3,3 0 1 1 535.78,320.52Z" style="fill:#8C2E31" />
<path d="M548.81,445.82A3,3 0 1 1 542.81,445.82A3,3 0 1 1 548.81,445.82Z" style="fill:#8C2E31" />
<path d="M561.84,394.94A3,3 0 1 1 555.84,394.94A3,3 0 1 1 561.84,394.94Z" style="fill:#8C2E31" />
<path d="M574.87,353.18A3,3 0 1 1 568.87,353.18A3,3 0 1 1 574.87,353.18Z" style="fill:#8C2E31" />
<path d="M587.9,345.89A3,3 0 1 1 581.9,345.89A3,3 0 1 1 587.9,345.89Z" style="fill:#8C2E31" />
<path d="M600.93,345.39A3,3 0 1 1 594.93,345.39A3,3 0 1 1 600.93,345.39Z" style="fill:#8C2E31" />
<path d="M613.96,292.31A3,3 0 1 1 607.96,292.31A3,3 0 1 1 613.96,292.31Z" style="fill:#8C2E31" />
<path d="M626.99,241.95A3,3 0 1 1 620.99,241.95A3,3 0 1 1 626.99,241.95Z" style="fill:#8C2E31" />
<path d="M640.01,282.33A3,3 0 1 1 634.01,282.33A3,3 0 1 1 640.01,282.33Z" style="fill:#8C2E31" />
<path d="M653.04,238.96A3,3 0 1 1 647.04,238.96A3,3 0 1 1 653.04,238.96Z" style="fill:#8C2E31" />
<path d="M666.07,236.54A3,3 0 1 1 660.07,236.54A3,3 0 1 1 666.07,236.54Z" style="fill:#8C2E31" />
<path d="M679.1,212.08A3,3 0 1 1 673.1,212.08A3,3 0 1 1 679.1,212.08Z" style="fill:#8C2E31" />
<path d="M692.13,245.29A3,3 0 1 1 686.13,245.29A3,3 0 1 1 692.13,245.29Z" style="fill:#8C2E31" />
<path d="M705.16,175.74A3,3 0 1 1 699.16,175.74A3,3 0 1 1 705.16,175.74Z" style="fill:#8C2E31" />
<path d="M718.19,179.49A3,3 0 1 1 712.19,179.49A3,3 0 1 1 718.19,179.49Z" style="fill:#8C2E31" />
<path d="M731.22,170.42A3,3 0 1 1 725.22,170.42A3,3 0 1 1 731.22,170.42Z" style="fill:#8C2E31" />
<path d="M744.25,269.34A3,3 0 1 1 738.25,269.34A3,3 0 1 1 744.25,269.34Z" style="fill:#8C2E31" />
<path d="M757.28,186.09A3,3 0 1 1 751.28,186.09A3,3 0 1 1 757.28,186.09Z" style="fill:#8C2E31" />
<path d="M770.3,195.83A3,3 0 1 1 764.3,195.83A3,3 0 1 1 770.3,195.83Z" style="fill:#8C2E31" />
<path d="M783.33,139.15A3,3 0 1 1 777.33,139.15A3,3 0 1 1 783.33,139.15Z" style="fill:#8C2E31" />
<path d="M796.36,221.17A3,3 0 1 1 790.36,221.17A3,3 0 1 1 796.36,221.17Z" style="fill:#8C2E31" />
<path d="M809.39,221.92A3,3 0 1 1 803.39,221.92A3,3 0 1 1 809.39,221.92Z" style="fill:#8C2E31" />
<path d="M822.42,290.66A3,3 0 1 1 816.42,290.66A3,3 0 1 1 822.42,290.66Z" style="fill:#8C2E31" />
<path d="M835.45,218.01A3,3 0 1 1 829.45,218.01A3,3 0 1 1 835.45,218.01Z" style="fill:#8C2E31" />
<path d="M848.48,308.01A3,3 0 1 1 842.48,308.01A3,3 0 1 1 848.48,308.01Z" style="fill:#8C2E31" />
<path d="M861.51,248.84A3,3 0 1 1 855.51,248.84A3,3 0 1 1 861.51,248.84Z" style="fill:#8C2E31" />
<path d="M874.54,270.69A3,3 0 1 1 868.54,270.69A3,3 0 1 1 874.54,270.69Z" style="fill:#8C2E31" />
<path d="M887.57,351.14A3,3 0 1 1 881.57,351.14A3,3 0 1 1 887.57,351.14Z" style="fill:#8C2E31" />
<path d="M900.59,318.26A3,3 0 1 1 894.59,318.26A3,3 0 1 1 900.59,318.26Z" style="fill:#8C2E31" />
<path d="M913.62,283.37A3,3 0 1 1 907.62,283.37A3,3 0 1 1 913.62,283.37Z" style="fill:#8C2E31" />
<path d="M1011,867.02A6,6 0 1 1 999,867.02A6,6 0 1 1 1011,867.02Z" style="fill:#8C2E31" />
<text x="347.63" y="-858.54" transform="scale(1, -1)"
	style="font-family:Helvetica;font-weight:normal;font-style:normal;font-size:36px">350 uW 10m Range 200 Hz Bandwidth</text>
</g>
</svg>
