<?xml version="1.0"?>
<!-- Generated by SVGo and Plotinum VG -->
<svg width="1296pt" height="1080pt" viewBox="0 0 1296 1080"
	xmlns="http://www.w3.org/2000/svg"
	xmlns:xlink="http://www.w3.org/1999/xlink">
<g transform="scale(1, -1) translate(0, -1080)">
<path d="M0,0L1296,0L1296,1080L0,1080Z" style="fill-opacity:0" />
<text x="358.95" y="-1047.6" transform="scale(1, -1)"
	style="font-family:Liberation Sans;font-variant:normal;font-weight:normal;font-style:normal;font-size:40px">CoBS Measurement: 1 μm TeO2</text>
<text x="507.52" y="-10.732" transform="scale(1, -1)"
	style="font-family:Liberation Sans;font-variant:normal;font-weight:normal;font-style:normal;font-size:35px">Frequency (Ω/2π) (GHz)</text>
<text x="74.774" y="-63.857" transform="scale(1, -1)"
	style="font-family:Liberation Serif;font-variant:normal;font-weight:normal;font-style:normal;font-size:30px">11.80</text>
<text x="497.17" y="-63.857" transform="scale(1, -1)"
	style="font-family:Liberation Serif;font-variant:normal;font-weight:normal;font-style:normal;font-size:30px">12.05</text>
<text x="920.12" y="-63.857" transform="scale(1, -1)"
	style="font-family:Liberation Serif;font-variant:normal;font-weight:normal;font-style:normal;font-size:30px">12.30</text>
<path d="M107.97,87.324L1288,87.324" style="fill:none;stroke:#000000;stroke-width:2.5" />
<g transform="rotate(90)">
<text x="442.59" y="28.369" transform="scale(1, -1)"
	style="font-family:Liberation Sans;font-variant:normal;font-weight:normal;font-style:normal;font-size:35px">Arbitrary Units</text>
</g>
<text x="61.519" y="-213.3" transform="scale(1, -1)"
	style="font-family:Liberation Sans;font-variant:normal;font-weight:normal;font-style:normal;font-size:30px">0.0</text>
<text x="61.519" y="-346.33" transform="scale(1, -1)"
	style="font-family:Liberation Sans;font-variant:normal;font-weight:normal;font-style:normal;font-size:30px">0.2</text>
<text x="61.519" y="-479.37" transform="scale(1, -1)"
	style="font-family:Liberation Sans;font-variant:normal;font-weight:normal;font-style:normal;font-size:30px">0.4</text>
<text x="61.519" y="-612.4" transform="scale(1, -1)"
	style="font-family:Liberation Sans;font-variant:normal;font-weight:normal;font-style:normal;font-size:30px">0.6</text>
<text x="61.519" y="-745.44" transform="scale(1, -1)"
	style="font-family:Liberation Sans;font-variant:normal;font-weight:normal;font-style:normal;font-size:30px">0.8</text>
<text x="61.519" y="-878.47" transform="scale(1, -1)"
	style="font-family:Liberation Sans;font-variant:normal;font-weight:normal;font-style:normal;font-size:30px">1.0</text>
<path d="M111.56,87.824L111.56,1019.1" style="fill:none;stroke:#000000;stroke-width:2.5" />
<path d="M107.97,87.824L107.97,97.824" style="fill:none;stroke:#000000;stroke-width:2.5" />
<text x="85.641" y="-53.424" transform="scale(1, -1)"
	style="font-family:Liberation Sans;font-variant:normal;font-weight:normal;font-style:normal;font-size:30px">11.80</text>
<path d="M192.56,87.824L192.56,92.824" style="fill:none;stroke:#000000;stroke-width:2.5" />
<path d="M277.15,87.824L277.15,92.824" style="fill:none;stroke:#000000;stroke-width:2.5" />
<path d="M361.74,87.824L361.74,92.824" style="fill:none;stroke:#000000;stroke-width:2.5" />
<path d="M446.33,87.824L446.33,92.824" style="fill:none;stroke:#000000;stroke-width:2.5" />
<path d="M530.92,87.824L530.92,97.824" style="fill:none;stroke:#000000;stroke-width:2.5" />
<text x="509.7" y="-53.424" transform="scale(1, -1)"
	style="font-family:Liberation Sans;font-variant:normal;font-weight:normal;font-style:normal;font-size:30px">12.05</text>
<path d="M615.51,87.824L615.51,92.824" style="fill:none;stroke:#000000;stroke-width:2.5" />
<path d="M700.1,87.824L700.1,92.824" style="fill:none;stroke:#000000;stroke-width:2.5" />
<path d="M784.69,87.824L784.69,92.824" style="fill:none;stroke:#000000;stroke-width:2.5" />
<path d="M869.28,87.824L869.28,92.824" style="fill:none;stroke:#000000;stroke-width:2.5" />
<path d="M953.87,87.824L953.87,97.824" style="fill:none;stroke:#000000;stroke-width:2.5" />
<text x="932.66" y="-53.424" transform="scale(1, -1)"
	style="font-family:Liberation Sans;font-variant:normal;font-weight:normal;font-style:normal;font-size:30px">12.30</text>
<path d="M1038.5,87.824L1038.5,92.824" style="fill:none;stroke:#000000;stroke-width:2.5" />
<path d="M1123,87.824L1123,92.824" style="fill:none;stroke:#000000;stroke-width:2.5" />
<path d="M1207.6,87.824L1207.6,92.824" style="fill:none;stroke:#000000;stroke-width:2.5" />
<path d="M107.97,220.86L117.97,220.86" style="fill:none;stroke:#000000;stroke-width:2.5" />
<text x="47.819" y="-212.46" transform="scale(1, -1)"
	style="font-family:Liberation Sans;font-variant:normal;font-weight:normal;font-style:normal;font-size:30px">0.0</text>
<path d="M107.97,243.03L112.97,243.03" style="fill:none;stroke:#000000;stroke-width:2.5" />
<path d="M107.97,265.2L112.97,265.2" style="fill:none;stroke:#000000;stroke-width:2.5" />
<path d="M107.97,287.38L112.97,287.38" style="fill:none;stroke:#000000;stroke-width:2.5" />
<path d="M107.97,309.55L112.97,309.55" style="fill:none;stroke:#000000;stroke-width:2.5" />
<path d="M107.97,331.72L112.97,331.72" style="fill:none;stroke:#000000;stroke-width:2.5" />
<path d="M107.97,353.89L117.97,353.89" style="fill:none;stroke:#000000;stroke-width:2.5" />
<text x="47.819" y="-345.49" transform="scale(1, -1)"
	style="font-family:Liberation Sans;font-variant:normal;font-weight:normal;font-style:normal;font-size:30px">0.2</text>
<path d="M107.97,376.06L112.97,376.06" style="fill:none;stroke:#000000;stroke-width:2.5" />
<path d="M107.97,398.24L112.97,398.24" style="fill:none;stroke:#000000;stroke-width:2.5" />
<path d="M107.97,420.41L112.97,420.41" style="fill:none;stroke:#000000;stroke-width:2.5" />
<path d="M107.97,442.58L112.97,442.58" style="fill:none;stroke:#000000;stroke-width:2.5" />
<path d="M107.97,464.75L112.97,464.75" style="fill:none;stroke:#000000;stroke-width:2.5" />
<path d="M107.97,486.93L117.97,486.93" style="fill:none;stroke:#000000;stroke-width:2.5" />
<text x="47.819" y="-478.53" transform="scale(1, -1)"
	style="font-family:Liberation Sans;font-variant:normal;font-weight:normal;font-style:normal;font-size:30px">0.4</text>
<path d="M107.97,509.1L112.97,509.1" style="fill:none;stroke:#000000;stroke-width:2.5" />
<path d="M107.97,531.27L112.97,531.27" style="fill:none;stroke:#000000;stroke-width:2.5" />
<path d="M107.97,553.44L112.97,553.44" style="fill:none;stroke:#000000;stroke-width:2.5" />
<path d="M107.97,575.62L112.97,575.62" style="fill:none;stroke:#000000;stroke-width:2.5" />
<path d="M107.97,597.79L112.97,597.79" style="fill:none;stroke:#000000;stroke-width:2.5" />
<path d="M107.97,619.96L117.97,619.96" style="fill:none;stroke:#000000;stroke-width:2.5" />
<text x="47.819" y="-611.56" transform="scale(1, -1)"
	style="font-family:Liberation Sans;font-variant:normal;font-weight:normal;font-style:normal;font-size:30px">0.6</text>
<path d="M107.97,642.13L112.97,642.13" style="fill:none;stroke:#000000;stroke-width:2.5" />
<path d="M107.97,664.31L112.97,664.31" style="fill:none;stroke:#000000;stroke-width:2.5" />
<path d="M107.97,686.48L112.97,686.48" style="fill:none;stroke:#000000;stroke-width:2.5" />
<path d="M107.97,708.65L112.97,708.65" style="fill:none;stroke:#000000;stroke-width:2.5" />
<path d="M107.97,730.82L112.97,730.82" style="fill:none;stroke:#000000;stroke-width:2.5" />
<path d="M107.97,752.99L117.97,752.99" style="fill:none;stroke:#000000;stroke-width:2.5" />
<text x="47.819" y="-744.59" transform="scale(1, -1)"
	style="font-family:Liberation Sans;font-variant:normal;font-weight:normal;font-style:normal;font-size:30px">0.8</text>
<path d="M107.97,775.17L112.97,775.17" style="fill:none;stroke:#000000;stroke-width:2.5" />
<path d="M107.97,797.34L112.97,797.34" style="fill:none;stroke:#000000;stroke-width:2.5" />
<path d="M107.97,819.51L112.97,819.51" style="fill:none;stroke:#000000;stroke-width:2.5" />
<path d="M107.97,841.68L112.97,841.68" style="fill:none;stroke:#000000;stroke-width:2.5" />
<path d="M107.97,863.86L112.97,863.86" style="fill:none;stroke:#000000;stroke-width:2.5" />
<path d="M107.97,886.03L117.97,886.03" style="fill:none;stroke:#000000;stroke-width:2.5" />
<text x="47.819" y="-877.63" transform="scale(1, -1)"
	style="font-family:Liberation Sans;font-variant:normal;font-weight:normal;font-style:normal;font-size:30px">1.0</text>
<path d="M112.2,511.92L112.2,593.62" style="fill:none;stroke:#FF7AB4" />
<path d="M109.7,511.92L114.7,511.92" style="fill:none;stroke:#FF7AB4" />
<path d="M109.7,593.62L114.7,593.62" style="fill:none;stroke:#FF7AB4" />
<path d="M120.66,569.37L120.66,688.31" style="fill:none;stroke:#FF7AB4" />
<path d="M118.16,569.37L123.16,569.37" style="fill:none;stroke:#FF7AB4" />
<path d="M118.16,688.31L123.16,688.31" style="fill:none;stroke:#FF7AB4" />
<path d="M129.11,507.93L129.11,584.75" style="fill:none;stroke:#FF7AB4" />
<path d="M126.61,507.93L131.61,507.93" style="fill:none;stroke:#FF7AB4" />
<path d="M126.61,584.75L131.61,584.75" style="fill:none;stroke:#FF7AB4" />
<path d="M137.57,548.09L137.57,667.88" style="fill:none;stroke:#FF7AB4" />
<path d="M135.07,548.09L140.07,548.09" style="fill:none;stroke:#FF7AB4" />
<path d="M135.07,667.88L140.07,667.88" style="fill:none;stroke:#FF7AB4" />
<path d="M146.03,557L146.03,619.36" style="fill:none;stroke:#FF7AB4" />
<path d="M143.53,557L148.53,557" style="fill:none;stroke:#FF7AB4" />
<path d="M143.53,619.36L148.53,619.36" style="fill:none;stroke:#FF7AB4" />
<path d="M154.49,466.43L154.49,512.3" style="fill:none;stroke:#FF7AB4" />
<path d="M151.99,466.43L156.99,466.43" style="fill:none;stroke:#FF7AB4" />
<path d="M151.99,512.3L156.99,512.3" style="fill:none;stroke:#FF7AB4" />
<path d="M162.95,450.51L162.95,499.52" style="fill:none;stroke:#FF7AB4" />
<path d="M160.45,450.51L165.45,450.51" style="fill:none;stroke:#FF7AB4" />
<path d="M160.45,499.52L165.45,499.52" style="fill:none;stroke:#FF7AB4" />
<path d="M171.41,420.63L171.41,462.69" style="fill:none;stroke:#FF7AB4" />
<path d="M168.91,420.63L173.91,420.63" style="fill:none;stroke:#FF7AB4" />
<path d="M168.91,462.69L173.91,462.69" style="fill:none;stroke:#FF7AB4" />
<path d="M179.87,403.47L179.87,440.17" style="fill:none;stroke:#FF7AB4" />
<path d="M177.37,403.47L182.37,403.47" style="fill:none;stroke:#FF7AB4" />
<path d="M177.37,440.17L182.37,440.17" style="fill:none;stroke:#FF7AB4" />
<path d="M188.33,401.98L188.33,442.16" style="fill:none;stroke:#FF7AB4" />
<path d="M185.83,401.98L190.83,401.98" style="fill:none;stroke:#FF7AB4" />
<path d="M185.83,442.16L190.83,442.16" style="fill:none;stroke:#FF7AB4" />
<path d="M196.79,424.96L196.79,465.76" style="fill:none;stroke:#FF7AB4" />
<path d="M194.29,424.96L199.29,424.96" style="fill:none;stroke:#FF7AB4" />
<path d="M194.29,465.76L199.29,465.76" style="fill:none;stroke:#FF7AB4" />
<path d="M205.25,376.52L205.25,399.13" style="fill:none;stroke:#FF7AB4" />
<path d="M202.75,376.52L207.75,376.52" style="fill:none;stroke:#FF7AB4" />
<path d="M202.75,399.13L207.75,399.13" style="fill:none;stroke:#FF7AB4" />
<path d="M213.7,408.77L213.7,455.42" style="fill:none;stroke:#FF7AB4" />
<path d="M211.2,408.77L216.2,408.77" style="fill:none;stroke:#FF7AB4" />
<path d="M211.2,455.42L216.2,455.42" style="fill:none;stroke:#FF7AB4" />
<path d="M222.16,381.15L222.16,425.7" style="fill:none;stroke:#FF7AB4" />
<path d="M219.66,381.15L224.66,381.15" style="fill:none;stroke:#FF7AB4" />
<path d="M219.66,425.7L224.66,425.7" style="fill:none;stroke:#FF7AB4" />
<path d="M230.62,390.99L230.62,431.72" style="fill:none;stroke:#FF7AB4" />
<path d="M228.12,390.99L233.12,390.99" style="fill:none;stroke:#FF7AB4" />
<path d="M228.12,431.72L233.12,431.72" style="fill:none;stroke:#FF7AB4" />
<path d="M239.08,381.86L239.08,403.5" style="fill:none;stroke:#FF7AB4" />
<path d="M236.58,381.86L241.58,381.86" style="fill:none;stroke:#FF7AB4" />
<path d="M236.58,403.5L241.58,403.5" style="fill:none;stroke:#FF7AB4" />
<path d="M247.54,367.77L247.54,404.18" style="fill:none;stroke:#FF7AB4" />
<path d="M245.04,367.77L250.04,367.77" style="fill:none;stroke:#FF7AB4" />
<path d="M245.04,404.18L250.04,404.18" style="fill:none;stroke:#FF7AB4" />
<path d="M256,372.18L256,410.3" style="fill:none;stroke:#FF7AB4" />
<path d="M253.5,372.18L258.5,372.18" style="fill:none;stroke:#FF7AB4" />
<path d="M253.5,410.3L258.5,410.3" style="fill:none;stroke:#FF7AB4" />
<path d="M264.46,396.41L264.46,436.64" style="fill:none;stroke:#FF7AB4" />
<path d="M261.96,396.41L266.96,396.41" style="fill:none;stroke:#FF7AB4" />
<path d="M261.96,436.64L266.96,436.64" style="fill:none;stroke:#FF7AB4" />
<path d="M272.92,357.75L272.92,390.83" style="fill:none;stroke:#FF7AB4" />
<path d="M270.42,357.75L275.42,357.75" style="fill:none;stroke:#FF7AB4" />
<path d="M270.42,390.83L275.42,390.83" style="fill:none;stroke:#FF7AB4" />
<path d="M281.38,389.85L281.38,418.11" style="fill:none;stroke:#FF7AB4" />
<path d="M278.88,389.85L283.88,389.85" style="fill:none;stroke:#FF7AB4" />
<path d="M278.88,418.11L283.88,418.11" style="fill:none;stroke:#FF7AB4" />
<path d="M289.84,377.09L289.84,411.07" style="fill:none;stroke:#FF7AB4" />
<path d="M287.34,377.09L292.34,377.09" style="fill:none;stroke:#FF7AB4" />
<path d="M287.34,411.07L292.34,411.07" style="fill:none;stroke:#FF7AB4" />
<path d="M298.3,379.61L298.3,426.12" style="fill:none;stroke:#FF7AB4" />
<path d="M295.8,379.61L300.8,379.61" style="fill:none;stroke:#FF7AB4" />
<path d="M295.8,426.12L300.8,426.12" style="fill:none;stroke:#FF7AB4" />
<path d="M306.75,351.5L306.75,403.63" style="fill:none;stroke:#FF7AB4" />
<path d="M304.25,351.5L309.25,351.5" style="fill:none;stroke:#FF7AB4" />
<path d="M304.25,403.63L309.25,403.63" style="fill:none;stroke:#FF7AB4" />
<path d="M315.21,438.37L315.21,469.95" style="fill:none;stroke:#FF7AB4" />
<path d="M312.71,438.37L317.71,438.37" style="fill:none;stroke:#FF7AB4" />
<path d="M312.71,469.95L317.71,469.95" style="fill:none;stroke:#FF7AB4" />
<path d="M323.67,406.81L323.67,450.03" style="fill:none;stroke:#FF7AB4" />
<path d="M321.17,406.81L326.17,406.81" style="fill:none;stroke:#FF7AB4" />
<path d="M321.17,450.03L326.17,450.03" style="fill:none;stroke:#FF7AB4" />
<path d="M332.13,417.52L332.13,448.95" style="fill:none;stroke:#FF7AB4" />
<path d="M329.63,417.52L334.63,417.52" style="fill:none;stroke:#FF7AB4" />
<path d="M329.63,448.95L334.63,448.95" style="fill:none;stroke:#FF7AB4" />
<path d="M340.59,424.59L340.59,463.27" style="fill:none;stroke:#FF7AB4" />
<path d="M338.09,424.59L343.09,424.59" style="fill:none;stroke:#FF7AB4" />
<path d="M338.09,463.27L343.09,463.27" style="fill:none;stroke:#FF7AB4" />
<path d="M349.05,445.13L349.05,484.82" style="fill:none;stroke:#FF7AB4" />
<path d="M346.55,445.13L351.55,445.13" style="fill:none;stroke:#FF7AB4" />
<path d="M346.55,484.82L351.55,484.82" style="fill:none;stroke:#FF7AB4" />
<path d="M357.51,410.74L357.51,445.53" style="fill:none;stroke:#FF7AB4" />
<path d="M355.01,410.74L360.01,410.74" style="fill:none;stroke:#FF7AB4" />
<path d="M355.01,445.53L360.01,445.53" style="fill:none;stroke:#FF7AB4" />
<path d="M365.97,432.83L365.97,480.27" style="fill:none;stroke:#FF7AB4" />
<path d="M363.47,432.83L368.47,432.83" style="fill:none;stroke:#FF7AB4" />
<path d="M363.47,480.27L368.47,480.27" style="fill:none;stroke:#FF7AB4" />
<path d="M374.43,432.45L374.43,468.35" style="fill:none;stroke:#FF7AB4" />
<path d="M371.93,432.45L376.93,432.45" style="fill:none;stroke:#FF7AB4" />
<path d="M371.93,468.35L376.93,468.35" style="fill:none;stroke:#FF7AB4" />
<path d="M382.89,431.21L382.89,476.85" style="fill:none;stroke:#FF7AB4" />
<path d="M380.39,431.21L385.39,431.21" style="fill:none;stroke:#FF7AB4" />
<path d="M380.39,476.85L385.39,476.85" style="fill:none;stroke:#FF7AB4" />
<path d="M391.34,395.13L391.34,422.54" style="fill:none;stroke:#FF7AB4" />
<path d="M388.84,395.13L393.84,395.13" style="fill:none;stroke:#FF7AB4" />
<path d="M388.84,422.54L393.84,422.54" style="fill:none;stroke:#FF7AB4" />
<path d="M399.8,423.87L399.8,475.39" style="fill:none;stroke:#FF7AB4" />
<path d="M397.3,423.87L402.3,423.87" style="fill:none;stroke:#FF7AB4" />
<path d="M397.3,475.39L402.3,475.39" style="fill:none;stroke:#FF7AB4" />
<path d="M408.26,454.25L408.26,492.32" style="fill:none;stroke:#FF7AB4" />
<path d="M405.76,454.25L410.76,454.25" style="fill:none;stroke:#FF7AB4" />
<path d="M405.76,492.32L410.76,492.32" style="fill:none;stroke:#FF7AB4" />
<path d="M416.72,478.53L416.72,532.5" style="fill:none;stroke:#FF7AB4" />
<path d="M414.22,478.53L419.22,478.53" style="fill:none;stroke:#FF7AB4" />
<path d="M414.22,532.5L419.22,532.5" style="fill:none;stroke:#FF7AB4" />
<path d="M425.18,442.32L425.18,486.74" style="fill:none;stroke:#FF7AB4" />
<path d="M422.68,442.32L427.68,442.32" style="fill:none;stroke:#FF7AB4" />
<path d="M422.68,486.74L427.68,486.74" style="fill:none;stroke:#FF7AB4" />
<path d="M433.64,479.64L433.64,511.8" style="fill:none;stroke:#FF7AB4" />
<path d="M431.14,479.64L436.14,479.64" style="fill:none;stroke:#FF7AB4" />
<path d="M431.14,511.8L436.14,511.8" style="fill:none;stroke:#FF7AB4" />
<path d="M442.1,432.15L442.1,462.55" style="fill:none;stroke:#FF7AB4" />
<path d="M439.6,432.15L444.6,432.15" style="fill:none;stroke:#FF7AB4" />
<path d="M439.6,462.55L444.6,462.55" style="fill:none;stroke:#FF7AB4" />
<path d="M450.56,393.81L450.56,461.33" style="fill:none;stroke:#FF7AB4" />
<path d="M448.06,393.81L453.06,393.81" style="fill:none;stroke:#FF7AB4" />
<path d="M448.06,461.33L453.06,461.33" style="fill:none;stroke:#FF7AB4" />
<path d="M459.02,401.1L459.02,469.42" style="fill:none;stroke:#FF7AB4" />
<path d="M456.52,401.1L461.52,401.1" style="fill:none;stroke:#FF7AB4" />
<path d="M456.52,469.42L461.52,469.42" style="fill:none;stroke:#FF7AB4" />
<path d="M467.48,429.45L467.48,474.52" style="fill:none;stroke:#FF7AB4" />
<path d="M464.98,429.45L469.98,429.45" style="fill:none;stroke:#FF7AB4" />
<path d="M464.98,474.52L469.98,474.52" style="fill:none;stroke:#FF7AB4" />
<path d="M475.93,471.39L475.93,527.45" style="fill:none;stroke:#FF7AB4" />
<path d="M473.43,471.39L478.43,471.39" style="fill:none;stroke:#FF7AB4" />
<path d="M473.43,527.45L478.43,527.45" style="fill:none;stroke:#FF7AB4" />
<path d="M484.39,447.52L484.39,493.56" style="fill:none;stroke:#FF7AB4" />
<path d="M481.89,447.52L486.89,447.52" style="fill:none;stroke:#FF7AB4" />
<path d="M481.89,493.56L486.89,493.56" style="fill:none;stroke:#FF7AB4" />
<path d="M492.85,463.97L492.85,508.77" style="fill:none;stroke:#FF7AB4" />
<path d="M490.35,463.97L495.35,463.97" style="fill:none;stroke:#FF7AB4" />
<path d="M490.35,508.77L495.35,508.77" style="fill:none;stroke:#FF7AB4" />
<path d="M501.31,468.57L501.31,525.66" style="fill:none;stroke:#FF7AB4" />
<path d="M498.81,468.57L503.81,468.57" style="fill:none;stroke:#FF7AB4" />
<path d="M498.81,525.66L503.81,525.66" style="fill:none;stroke:#FF7AB4" />
<path d="M509.77,481.39L509.77,548.92" style="fill:none;stroke:#FF7AB4" />
<path d="M507.27,481.39L512.27,481.39" style="fill:none;stroke:#FF7AB4" />
<path d="M507.27,548.92L512.27,548.92" style="fill:none;stroke:#FF7AB4" />
<path d="M518.23,503.07L518.23,528.93" style="fill:none;stroke:#FF7AB4" />
<path d="M515.73,503.07L520.73,503.07" style="fill:none;stroke:#FF7AB4" />
<path d="M515.73,528.93L520.73,528.93" style="fill:none;stroke:#FF7AB4" />
<path d="M526.69,510.98L526.69,571.37" style="fill:none;stroke:#FF7AB4" />
<path d="M524.19,510.98L529.19,510.98" style="fill:none;stroke:#FF7AB4" />
<path d="M524.19,571.37L529.19,571.37" style="fill:none;stroke:#FF7AB4" />
<path d="M535.15,541.42L535.15,593.51" style="fill:none;stroke:#FF7AB4" />
<path d="M532.65,541.42L537.65,541.42" style="fill:none;stroke:#FF7AB4" />
<path d="M532.65,593.51L537.65,593.51" style="fill:none;stroke:#FF7AB4" />
<path d="M543.61,474.64L543.61,522.79" style="fill:none;stroke:#FF7AB4" />
<path d="M541.11,474.64L546.11,474.64" style="fill:none;stroke:#FF7AB4" />
<path d="M541.11,522.79L546.11,522.79" style="fill:none;stroke:#FF7AB4" />
<path d="M552.07,445.09L552.07,489.11" style="fill:none;stroke:#FF7AB4" />
<path d="M549.57,445.09L554.57,445.09" style="fill:none;stroke:#FF7AB4" />
<path d="M549.57,489.11L554.57,489.11" style="fill:none;stroke:#FF7AB4" />
<path d="M560.52,506.52L560.52,546.46" style="fill:none;stroke:#FF7AB4" />
<path d="M558.02,506.52L563.02,506.52" style="fill:none;stroke:#FF7AB4" />
<path d="M558.02,546.46L563.02,546.46" style="fill:none;stroke:#FF7AB4" />
<path d="M568.98,483.25L568.98,544.31" style="fill:none;stroke:#FF7AB4" />
<path d="M566.48,483.25L571.48,483.25" style="fill:none;stroke:#FF7AB4" />
<path d="M566.48,544.31L571.48,544.31" style="fill:none;stroke:#FF7AB4" />
<path d="M577.44,489.87L577.44,550.51" style="fill:none;stroke:#FF7AB4" />
<path d="M574.94,489.87L579.94,489.87" style="fill:none;stroke:#FF7AB4" />
<path d="M574.94,550.51L579.94,550.51" style="fill:none;stroke:#FF7AB4" />
<path d="M585.9,510.34L585.9,556.32" style="fill:none;stroke:#FF7AB4" />
<path d="M583.4,510.34L588.4,510.34" style="fill:none;stroke:#FF7AB4" />
<path d="M583.4,556.32L588.4,556.32" style="fill:none;stroke:#FF7AB4" />
<path d="M594.36,443.22L594.36,506.15" style="fill:none;stroke:#FF7AB4" />
<path d="M591.86,443.22L596.86,443.22" style="fill:none;stroke:#FF7AB4" />
<path d="M591.86,506.15L596.86,506.15" style="fill:none;stroke:#FF7AB4" />
<path d="M602.82,459.05L602.82,519.03" style="fill:none;stroke:#FF7AB4" />
<path d="M600.32,459.05L605.32,459.05" style="fill:none;stroke:#FF7AB4" />
<path d="M600.32,519.03L605.32,519.03" style="fill:none;stroke:#FF7AB4" />
<path d="M611.28,448.96L611.28,502.45" style="fill:none;stroke:#FF7AB4" />
<path d="M608.78,448.96L613.78,448.96" style="fill:none;stroke:#FF7AB4" />
<path d="M608.78,502.45L613.78,502.45" style="fill:none;stroke:#FF7AB4" />
<path d="M619.74,454.56L619.74,504.8" style="fill:none;stroke:#FF7AB4" />
<path d="M617.24,454.56L622.24,454.56" style="fill:none;stroke:#FF7AB4" />
<path d="M617.24,504.8L622.24,504.8" style="fill:none;stroke:#FF7AB4" />
<path d="M628.2,398.67L628.2,455.97" style="fill:none;stroke:#FF7AB4" />
<path d="M625.7,398.67L630.7,398.67" style="fill:none;stroke:#FF7AB4" />
<path d="M625.7,455.97L630.7,455.97" style="fill:none;stroke:#FF7AB4" />
<path d="M636.66,458.37L636.66,510.11" style="fill:none;stroke:#FF7AB4" />
<path d="M634.16,458.37L639.16,458.37" style="fill:none;stroke:#FF7AB4" />
<path d="M634.16,510.11L639.16,510.11" style="fill:none;stroke:#FF7AB4" />
<path d="M645.11,464.78L645.11,545.2" style="fill:none;stroke:#FF7AB4" />
<path d="M642.61,464.78L647.61,464.78" style="fill:none;stroke:#FF7AB4" />
<path d="M642.61,545.2L647.61,545.2" style="fill:none;stroke:#FF7AB4" />
<path d="M653.57,476.58L653.57,546.5" style="fill:none;stroke:#FF7AB4" />
<path d="M651.07,476.58L656.07,476.58" style="fill:none;stroke:#FF7AB4" />
<path d="M651.07,546.5L656.07,546.5" style="fill:none;stroke:#FF7AB4" />
<path d="M662.03,443.65L662.03,488.92" style="fill:none;stroke:#FF7AB4" />
<path d="M659.53,443.65L664.53,443.65" style="fill:none;stroke:#FF7AB4" />
<path d="M659.53,488.92L664.53,488.92" style="fill:none;stroke:#FF7AB4" />
<path d="M670.49,558.94L670.49,640.63" style="fill:none;stroke:#FF7AB4" />
<path d="M667.99,558.94L672.99,558.94" style="fill:none;stroke:#FF7AB4" />
<path d="M667.99,640.63L672.99,640.63" style="fill:none;stroke:#FF7AB4" />
<path d="M678.95,718.39L678.95,789.48" style="fill:none;stroke:#FF7AB4" />
<path d="M676.45,718.39L681.45,718.39" style="fill:none;stroke:#FF7AB4" />
<path d="M676.45,789.48L681.45,789.48" style="fill:none;stroke:#FF7AB4" />
<path d="M687.41,721.36L687.41,888.9" style="fill:none;stroke:#FF7AB4" />
<path d="M684.91,721.36L689.91,721.36" style="fill:none;stroke:#FF7AB4" />
<path d="M684.91,888.9L689.91,888.9" style="fill:none;stroke:#FF7AB4" />
<path d="M695.87,647.84L695.87,757.05" style="fill:none;stroke:#FF7AB4" />
<path d="M693.37,647.84L698.37,647.84" style="fill:none;stroke:#FF7AB4" />
<path d="M693.37,757.05L698.37,757.05" style="fill:none;stroke:#FF7AB4" />
<path d="M704.33,811.96L704.33,960.1" style="fill:none;stroke:#FF7AB4" />
<path d="M701.83,811.96L706.83,811.96" style="fill:none;stroke:#FF7AB4" />
<path d="M701.83,960.1L706.83,960.1" style="fill:none;stroke:#FF7AB4" />
<path d="M712.79,764.74L712.79,868.23" style="fill:none;stroke:#FF7AB4" />
<path d="M710.29,764.74L715.29,764.74" style="fill:none;stroke:#FF7AB4" />
<path d="M710.29,868.23L715.29,868.23" style="fill:none;stroke:#FF7AB4" />
<path d="M721.25,749.05L721.25,861.28" style="fill:none;stroke:#FF7AB4" />
<path d="M718.75,749.05L723.75,749.05" style="fill:none;stroke:#FF7AB4" />
<path d="M718.75,861.28L723.75,861.28" style="fill:none;stroke:#FF7AB4" />
<path d="M729.7,776.05L729.7,862.54" style="fill:none;stroke:#FF7AB4" />
<path d="M727.2,776.05L732.2,776.05" style="fill:none;stroke:#FF7AB4" />
<path d="M727.2,862.54L732.2,862.54" style="fill:none;stroke:#FF7AB4" />
<path d="M738.16,739.3L738.16,866.79" style="fill:none;stroke:#FF7AB4" />
<path d="M735.66,739.3L740.66,739.3" style="fill:none;stroke:#FF7AB4" />
<path d="M735.66,866.79L740.66,866.79" style="fill:none;stroke:#FF7AB4" />
<path d="M746.62,738.5L746.62,898.69" style="fill:none;stroke:#FF7AB4" />
<path d="M744.12,738.5L749.12,738.5" style="fill:none;stroke:#FF7AB4" />
<path d="M744.12,898.69L749.12,898.69" style="fill:none;stroke:#FF7AB4" />
<path d="M755.08,728.92L755.08,819.3" style="fill:none;stroke:#FF7AB4" />
<path d="M752.58,728.92L757.58,728.92" style="fill:none;stroke:#FF7AB4" />
<path d="M752.58,819.3L757.58,819.3" style="fill:none;stroke:#FF7AB4" />
<path d="M763.54,654.58L763.54,732.62" style="fill:none;stroke:#FF7AB4" />
<path d="M761.04,654.58L766.04,654.58" style="fill:none;stroke:#FF7AB4" />
<path d="M761.04,732.62L766.04,732.62" style="fill:none;stroke:#FF7AB4" />
<path d="M772,737.55L772,843.71" style="fill:none;stroke:#FF7AB4" />
<path d="M769.5,737.55L774.5,737.55" style="fill:none;stroke:#FF7AB4" />
<path d="M769.5,843.71L774.5,843.71" style="fill:none;stroke:#FF7AB4" />
<path d="M780.46,551.17L780.46,650.59" style="fill:none;stroke:#FF7AB4" />
<path d="M777.96,551.17L782.96,551.17" style="fill:none;stroke:#FF7AB4" />
<path d="M777.96,650.59L782.96,650.59" style="fill:none;stroke:#FF7AB4" />
<path d="M788.92,528.95L788.92,629.88" style="fill:none;stroke:#FF7AB4" />
<path d="M786.42,528.95L791.42,528.95" style="fill:none;stroke:#FF7AB4" />
<path d="M786.42,629.88L791.42,629.88" style="fill:none;stroke:#FF7AB4" />
<path d="M797.38,412.76L797.38,471.75" style="fill:none;stroke:#FF7AB4" />
<path d="M794.88,412.76L799.88,412.76" style="fill:none;stroke:#FF7AB4" />
<path d="M794.88,471.75L799.88,471.75" style="fill:none;stroke:#FF7AB4" />
<path d="M805.84,432.05L805.84,502.13" style="fill:none;stroke:#FF7AB4" />
<path d="M803.34,432.05L808.34,432.05" style="fill:none;stroke:#FF7AB4" />
<path d="M803.34,502.13L808.34,502.13" style="fill:none;stroke:#FF7AB4" />
<path d="M814.3,477.74L814.3,506.97" style="fill:none;stroke:#FF7AB4" />
<path d="M811.8,477.74L816.8,477.74" style="fill:none;stroke:#FF7AB4" />
<path d="M811.8,506.97L816.8,506.97" style="fill:none;stroke:#FF7AB4" />
<path d="M822.75,384.74L822.75,419.28" style="fill:none;stroke:#FF7AB4" />
<path d="M820.25,384.74L825.25,384.74" style="fill:none;stroke:#FF7AB4" />
<path d="M820.25,419.28L825.25,419.28" style="fill:none;stroke:#FF7AB4" />
<path d="M831.21,326.57L831.21,393.56" style="fill:none;stroke:#FF7AB4" />
<path d="M828.71,326.57L833.71,326.57" style="fill:none;stroke:#FF7AB4" />
<path d="M828.71,393.56L833.71,393.56" style="fill:none;stroke:#FF7AB4" />
<path d="M839.67,340.72L839.67,387.8" style="fill:none;stroke:#FF7AB4" />
<path d="M837.17,340.72L842.17,340.72" style="fill:none;stroke:#FF7AB4" />
<path d="M837.17,387.8L842.17,387.8" style="fill:none;stroke:#FF7AB4" />
<path d="M848.13,341.41L848.13,370.39" style="fill:none;stroke:#FF7AB4" />
<path d="M845.63,341.41L850.63,341.41" style="fill:none;stroke:#FF7AB4" />
<path d="M845.63,370.39L850.63,370.39" style="fill:none;stroke:#FF7AB4" />
<path d="M856.59,334.34L856.59,365.85" style="fill:none;stroke:#FF7AB4" />
<path d="M854.09,334.34L859.09,334.34" style="fill:none;stroke:#FF7AB4" />
<path d="M854.09,365.85L859.09,365.85" style="fill:none;stroke:#FF7AB4" />
<path d="M865.05,310.37L865.05,344.7" style="fill:none;stroke:#FF7AB4" />
<path d="M862.55,310.37L867.55,310.37" style="fill:none;stroke:#FF7AB4" />
<path d="M862.55,344.7L867.55,344.7" style="fill:none;stroke:#FF7AB4" />
<path d="M873.51,307.66L873.51,333.36" style="fill:none;stroke:#FF7AB4" />
<path d="M871.01,307.66L876.01,307.66" style="fill:none;stroke:#FF7AB4" />
<path d="M871.01,333.36L876.01,333.36" style="fill:none;stroke:#FF7AB4" />
<path d="M881.97,298.32L881.97,324.03" style="fill:none;stroke:#FF7AB4" />
<path d="M879.47,298.32L884.47,298.32" style="fill:none;stroke:#FF7AB4" />
<path d="M879.47,324.03L884.47,324.03" style="fill:none;stroke:#FF7AB4" />
<path d="M890.43,297.5L890.43,340.21" style="fill:none;stroke:#FF7AB4" />
<path d="M887.93,297.5L892.93,297.5" style="fill:none;stroke:#FF7AB4" />
<path d="M887.93,340.21L892.93,340.21" style="fill:none;stroke:#FF7AB4" />
<path d="M898.89,305.49L898.89,327.9" style="fill:none;stroke:#FF7AB4" />
<path d="M896.39,305.49L901.39,305.49" style="fill:none;stroke:#FF7AB4" />
<path d="M896.39,327.9L901.39,327.9" style="fill:none;stroke:#FF7AB4" />
<path d="M907.34,257.39L907.34,301.96" style="fill:none;stroke:#FF7AB4" />
<path d="M904.84,257.39L909.84,257.39" style="fill:none;stroke:#FF7AB4" />
<path d="M904.84,301.96L909.84,301.96" style="fill:none;stroke:#FF7AB4" />
<path d="M915.8,266.61L915.8,320.59" style="fill:none;stroke:#FF7AB4" />
<path d="M913.3,266.61L918.3,266.61" style="fill:none;stroke:#FF7AB4" />
<path d="M913.3,320.59L918.3,320.59" style="fill:none;stroke:#FF7AB4" />
<path d="M924.26,287.37L924.26,330.75" style="fill:none;stroke:#FF7AB4" />
<path d="M921.76,287.37L926.76,287.37" style="fill:none;stroke:#FF7AB4" />
<path d="M921.76,330.75L926.76,330.75" style="fill:none;stroke:#FF7AB4" />
<path d="M932.72,294.63L932.72,312.6" style="fill:none;stroke:#FF7AB4" />
<path d="M930.22,294.63L935.22,294.63" style="fill:none;stroke:#FF7AB4" />
<path d="M930.22,312.6L935.22,312.6" style="fill:none;stroke:#FF7AB4" />
<path d="M941.18,263.03L941.18,299.45" style="fill:none;stroke:#FF7AB4" />
<path d="M938.68,263.03L943.68,263.03" style="fill:none;stroke:#FF7AB4" />
<path d="M938.68,299.45L943.68,299.45" style="fill:none;stroke:#FF7AB4" />
<path d="M949.64,276.34L949.64,321.29" style="fill:none;stroke:#FF7AB4" />
<path d="M947.14,276.34L952.14,276.34" style="fill:none;stroke:#FF7AB4" />
<path d="M947.14,321.29L952.14,321.29" style="fill:none;stroke:#FF7AB4" />
<path d="M958.1,254.8L958.1,298.62" style="fill:none;stroke:#FF7AB4" />
<path d="M955.6,254.8L960.6,254.8" style="fill:none;stroke:#FF7AB4" />
<path d="M955.6,298.62L960.6,298.62" style="fill:none;stroke:#FF7AB4" />
<path d="M966.56,245.49L966.56,278.51" style="fill:none;stroke:#FF7AB4" />
<path d="M964.06,245.49L969.06,245.49" style="fill:none;stroke:#FF7AB4" />
<path d="M964.06,278.51L969.06,278.51" style="fill:none;stroke:#FF7AB4" />
<path d="M975.02,221.53L975.02,261.78" style="fill:none;stroke:#FF7AB4" />
<path d="M972.52,221.53L977.52,221.53" style="fill:none;stroke:#FF7AB4" />
<path d="M972.52,261.78L977.52,261.78" style="fill:none;stroke:#FF7AB4" />
<path d="M983.48,283.35L983.48,312.27" style="fill:none;stroke:#FF7AB4" />
<path d="M980.98,283.35L985.98,283.35" style="fill:none;stroke:#FF7AB4" />
<path d="M980.98,312.27L985.98,312.27" style="fill:none;stroke:#FF7AB4" />
<path d="M991.93,246.3L991.93,280.28" style="fill:none;stroke:#FF7AB4" />
<path d="M989.43,246.3L994.43,246.3" style="fill:none;stroke:#FF7AB4" />
<path d="M989.43,280.28L994.43,280.28" style="fill:none;stroke:#FF7AB4" />
<path d="M1000.4,291.02L1000.4,307.03" style="fill:none;stroke:#FF7AB4" />
<path d="M997.89,291.02L1002.9,291.02" style="fill:none;stroke:#FF7AB4" />
<path d="M997.89,307.03L1002.9,307.03" style="fill:none;stroke:#FF7AB4" />
<path d="M1008.9,287.82L1008.9,306.37" style="fill:none;stroke:#FF7AB4" />
<path d="M1006.4,287.82L1011.4,287.82" style="fill:none;stroke:#FF7AB4" />
<path d="M1006.4,306.37L1011.4,306.37" style="fill:none;stroke:#FF7AB4" />
<path d="M1017.3,308.93L1017.3,335.14" style="fill:none;stroke:#FF7AB4" />
<path d="M1014.8,308.93L1019.8,308.93" style="fill:none;stroke:#FF7AB4" />
<path d="M1014.8,335.14L1019.8,335.14" style="fill:none;stroke:#FF7AB4" />
<path d="M1025.8,324.81L1025.8,365.68" style="fill:none;stroke:#FF7AB4" />
<path d="M1023.3,324.81L1028.3,324.81" style="fill:none;stroke:#FF7AB4" />
<path d="M1023.3,365.68L1028.3,365.68" style="fill:none;stroke:#FF7AB4" />
<path d="M1034.2,317.6L1034.2,340.34" style="fill:none;stroke:#FF7AB4" />
<path d="M1031.7,317.6L1036.7,317.6" style="fill:none;stroke:#FF7AB4" />
<path d="M1031.7,340.34L1036.7,340.34" style="fill:none;stroke:#FF7AB4" />
<path d="M1042.7,280.06L1042.7,318.29" style="fill:none;stroke:#FF7AB4" />
<path d="M1040.2,280.06L1045.2,280.06" style="fill:none;stroke:#FF7AB4" />
<path d="M1040.2,318.29L1045.2,318.29" style="fill:none;stroke:#FF7AB4" />
<path d="M1051.1,302.64L1051.1,335.89" style="fill:none;stroke:#FF7AB4" />
<path d="M1048.6,302.64L1053.6,302.64" style="fill:none;stroke:#FF7AB4" />
<path d="M1048.6,335.89L1053.6,335.89" style="fill:none;stroke:#FF7AB4" />
<path d="M1059.6,302.15L1059.6,339.85" style="fill:none;stroke:#FF7AB4" />
<path d="M1057.1,302.15L1062.1,302.15" style="fill:none;stroke:#FF7AB4" />
<path d="M1057.1,339.85L1062.1,339.85" style="fill:none;stroke:#FF7AB4" />
<path d="M1068.1,321.63L1068.1,346.87" style="fill:none;stroke:#FF7AB4" />
<path d="M1065.6,321.63L1070.6,321.63" style="fill:none;stroke:#FF7AB4" />
<path d="M1065.6,346.87L1070.6,346.87" style="fill:none;stroke:#FF7AB4" />
<path d="M1076.5,273.38L1076.5,294.36" style="fill:none;stroke:#FF7AB4" />
<path d="M1074,273.38L1079,273.38" style="fill:none;stroke:#FF7AB4" />
<path d="M1074,294.36L1079,294.36" style="fill:none;stroke:#FF7AB4" />
<path d="M1085,285.22L1085,316.78" style="fill:none;stroke:#FF7AB4" />
<path d="M1082.5,285.22L1087.5,285.22" style="fill:none;stroke:#FF7AB4" />
<path d="M1082.5,316.78L1087.5,316.78" style="fill:none;stroke:#FF7AB4" />
<path d="M1093.4,298.02L1093.4,330.91" style="fill:none;stroke:#FF7AB4" />
<path d="M1090.9,298.02L1095.9,298.02" style="fill:none;stroke:#FF7AB4" />
<path d="M1090.9,330.91L1095.9,330.91" style="fill:none;stroke:#FF7AB4" />
<path d="M1101.9,292.14L1101.9,334.02" style="fill:none;stroke:#FF7AB4" />
<path d="M1099.4,292.14L1104.4,292.14" style="fill:none;stroke:#FF7AB4" />
<path d="M1099.4,334.02L1104.4,334.02" style="fill:none;stroke:#FF7AB4" />
<path d="M1110.4,346.12L1110.4,378.12" style="fill:none;stroke:#FF7AB4" />
<path d="M1107.9,346.12L1112.9,346.12" style="fill:none;stroke:#FF7AB4" />
<path d="M1107.9,378.12L1112.9,378.12" style="fill:none;stroke:#FF7AB4" />
<path d="M1118.8,297.3L1118.8,337.33" style="fill:none;stroke:#FF7AB4" />
<path d="M1116.3,297.3L1121.3,297.3" style="fill:none;stroke:#FF7AB4" />
<path d="M1116.3,337.33L1121.3,337.33" style="fill:none;stroke:#FF7AB4" />
<path d="M1127.3,312.86L1127.3,339.5" style="fill:none;stroke:#FF7AB4" />
<path d="M1124.8,312.86L1129.8,312.86" style="fill:none;stroke:#FF7AB4" />
<path d="M1124.8,339.5L1129.8,339.5" style="fill:none;stroke:#FF7AB4" />
<path d="M1135.7,292.6L1135.7,316.87" style="fill:none;stroke:#FF7AB4" />
<path d="M1133.2,292.6L1138.2,292.6" style="fill:none;stroke:#FF7AB4" />
<path d="M1133.2,316.87L1138.2,316.87" style="fill:none;stroke:#FF7AB4" />
<path d="M1144.2,298.46L1144.2,333.83" style="fill:none;stroke:#FF7AB4" />
<path d="M1141.7,298.46L1146.7,298.46" style="fill:none;stroke:#FF7AB4" />
<path d="M1141.7,333.83L1146.7,333.83" style="fill:none;stroke:#FF7AB4" />
<path d="M1152.7,319.5L1152.7,348.27" style="fill:none;stroke:#FF7AB4" />
<path d="M1150.2,319.5L1155.2,319.5" style="fill:none;stroke:#FF7AB4" />
<path d="M1150.2,348.27L1155.2,348.27" style="fill:none;stroke:#FF7AB4" />
<path d="M1161.1,369.07L1161.1,406.5" style="fill:none;stroke:#FF7AB4" />
<path d="M1158.6,369.07L1163.6,369.07" style="fill:none;stroke:#FF7AB4" />
<path d="M1158.6,406.5L1163.6,406.5" style="fill:none;stroke:#FF7AB4" />
<path d="M1169.6,353.44L1169.6,394.32" style="fill:none;stroke:#FF7AB4" />
<path d="M1167.1,353.44L1172.1,353.44" style="fill:none;stroke:#FF7AB4" />
<path d="M1167.1,394.32L1172.1,394.32" style="fill:none;stroke:#FF7AB4" />
<path d="M1178,325.19L1178,368.31" style="fill:none;stroke:#FF7AB4" />
<path d="M1175.5,325.19L1180.5,325.19" style="fill:none;stroke:#FF7AB4" />
<path d="M1175.5,368.31L1180.5,368.31" style="fill:none;stroke:#FF7AB4" />
<path d="M1186.5,312.12L1186.5,334.28" style="fill:none;stroke:#FF7AB4" />
<path d="M1184,312.12L1189,312.12" style="fill:none;stroke:#FF7AB4" />
<path d="M1184,334.28L1189,334.28" style="fill:none;stroke:#FF7AB4" />
<path d="M1195,344.78L1195,386.27" style="fill:none;stroke:#FF7AB4" />
<path d="M1192.5,344.78L1197.5,344.78" style="fill:none;stroke:#FF7AB4" />
<path d="M1192.5,386.27L1197.5,386.27" style="fill:none;stroke:#FF7AB4" />
<path d="M1203.4,365.08L1203.4,401.82" style="fill:none;stroke:#FF7AB4" />
<path d="M1200.9,365.08L1205.9,365.08" style="fill:none;stroke:#FF7AB4" />
<path d="M1200.9,401.82L1205.9,401.82" style="fill:none;stroke:#FF7AB4" />
<path d="M1211.9,365.33L1211.9,407.07" style="fill:none;stroke:#FF7AB4" />
<path d="M1209.4,365.33L1214.4,365.33" style="fill:none;stroke:#FF7AB4" />
<path d="M1209.4,407.07L1214.4,407.07" style="fill:none;stroke:#FF7AB4" />
<path d="M1220.3,357.32L1220.3,396.26" style="fill:none;stroke:#FF7AB4" />
<path d="M1217.8,357.32L1222.8,357.32" style="fill:none;stroke:#FF7AB4" />
<path d="M1217.8,396.26L1222.8,396.26" style="fill:none;stroke:#FF7AB4" />
<path d="M1228.8,357.18L1228.8,400.5" style="fill:none;stroke:#FF7AB4" />
<path d="M1226.3,357.18L1231.3,357.18" style="fill:none;stroke:#FF7AB4" />
<path d="M1226.3,400.5L1231.3,400.5" style="fill:none;stroke:#FF7AB4" />
<path d="M1237.2,430.47L1237.2,518.38" style="fill:none;stroke:#FF7AB4" />
<path d="M1234.7,430.47L1239.7,430.47" style="fill:none;stroke:#FF7AB4" />
<path d="M1234.7,518.38L1239.7,518.38" style="fill:none;stroke:#FF7AB4" />
<path d="M1245.7,396.88L1245.7,444.69" style="fill:none;stroke:#FF7AB4" />
<path d="M1243.2,396.88L1248.2,396.88" style="fill:none;stroke:#FF7AB4" />
<path d="M1243.2,444.69L1248.2,444.69" style="fill:none;stroke:#FF7AB4" />
<path d="M1254.2,367.64L1254.2,409.39" style="fill:none;stroke:#FF7AB4" />
<path d="M1251.7,367.64L1256.7,367.64" style="fill:none;stroke:#FF7AB4" />
<path d="M1251.7,409.39L1256.7,409.39" style="fill:none;stroke:#FF7AB4" />
<path d="M1262.6,351.4L1262.6,395.16" style="fill:none;stroke:#FF7AB4" />
<path d="M1260.1,351.4L1265.1,351.4" style="fill:none;stroke:#FF7AB4" />
<path d="M1260.1,395.16L1265.1,395.16" style="fill:none;stroke:#FF7AB4" />
<path d="M1271.1,358.19L1271.1,395.08" style="fill:none;stroke:#FF7AB4" />
<path d="M1268.6,358.19L1273.6,358.19" style="fill:none;stroke:#FF7AB4" />
<path d="M1268.6,395.08L1273.6,395.08" style="fill:none;stroke:#FF7AB4" />
<path d="M1279.5,336.8L1279.5,391.7" style="fill:none;stroke:#FF7AB4" />
<path d="M1277,336.8L1282,336.8" style="fill:none;stroke:#FF7AB4" />
<path d="M1277,391.7L1282,391.7" style="fill:none;stroke:#FF7AB4" />
<path d="M1288,320.49L1288,359.65" style="fill:none;stroke:#FF7AB4" />
<path d="M1285.5,320.49L1290.5,320.49" style="fill:none;stroke:#FF7AB4" />
<path d="M1285.5,359.65L1290.5,359.65" style="fill:none;stroke:#FF7AB4" />
<path d="M120.2,552.77A8,8 0 1 1 104.2,552.77A8,8 0 1 1 120.2,552.77Z" style="fill:#FF7AB4" />
<path d="M128.66,628.84A8,8 0 1 1 112.66,628.84A8,8 0 1 1 128.66,628.84Z" style="fill:#FF7AB4" />
<path d="M137.11,546.34A8,8 0 1 1 121.11,546.34A8,8 0 1 1 137.11,546.34Z" style="fill:#FF7AB4" />
<path d="M145.57,607.98A8,8 0 1 1 129.57,607.98A8,8 0 1 1 145.57,607.98Z" style="fill:#FF7AB4" />
<path d="M154.03,588.18A8,8 0 1 1 138.03,588.18A8,8 0 1 1 154.03,588.18Z" style="fill:#FF7AB4" />
<path d="M162.49,489.36A8,8 0 1 1 146.49,489.36A8,8 0 1 1 162.49,489.36Z" style="fill:#FF7AB4" />
<path d="M170.95,475.02A8,8 0 1 1 154.95,475.02A8,8 0 1 1 170.95,475.02Z" style="fill:#FF7AB4" />
<path d="M179.41,441.66A8,8 0 1 1 163.41,441.66A8,8 0 1 1 179.41,441.66Z" style="fill:#FF7AB4" />
<path d="M187.87,421.82A8,8 0 1 1 171.87,421.82A8,8 0 1 1 187.87,421.82Z" style="fill:#FF7AB4" />
<path d="M196.33,422.07A8,8 0 1 1 180.33,422.07A8,8 0 1 1 196.33,422.07Z" style="fill:#FF7AB4" />
<path d="M204.79,445.36A8,8 0 1 1 188.79,445.36A8,8 0 1 1 204.79,445.36Z" style="fill:#FF7AB4" />
<path d="M213.25,387.83A8,8 0 1 1 197.25,387.83A8,8 0 1 1 213.25,387.83Z" style="fill:#FF7AB4" />
<path d="M221.7,432.09A8,8 0 1 1 205.7,432.09A8,8 0 1 1 221.7,432.09Z" style="fill:#FF7AB4" />
<path d="M230.16,403.42A8,8 0 1 1 214.16,403.42A8,8 0 1 1 230.16,403.42Z" style="fill:#FF7AB4" />
<path d="M238.62,411.35A8,8 0 1 1 222.62,411.35A8,8 0 1 1 238.62,411.35Z" style="fill:#FF7AB4" />
<path d="M247.08,392.68A8,8 0 1 1 231.08,392.68A8,8 0 1 1 247.08,392.68Z" style="fill:#FF7AB4" />
<path d="M255.54,385.97A8,8 0 1 1 239.54,385.97A8,8 0 1 1 255.54,385.97Z" style="fill:#FF7AB4" />
<path d="M264,391.24A8,8 0 1 1 248,391.24A8,8 0 1 1 264,391.24Z" style="fill:#FF7AB4" />
<path d="M272.46,416.53A8,8 0 1 1 256.46,416.53A8,8 0 1 1 272.46,416.53Z" style="fill:#FF7AB4" />
<path d="M280.92,374.29A8,8 0 1 1 264.92,374.29A8,8 0 1 1 280.92,374.29Z" style="fill:#FF7AB4" />
<path d="M289.38,403.98A8,8 0 1 1 273.38,403.98A8,8 0 1 1 289.38,403.98Z" style="fill:#FF7AB4" />
<path d="M297.84,394.08A8,8 0 1 1 281.84,394.08A8,8 0 1 1 297.84,394.08Z" style="fill:#FF7AB4" />
<path d="M306.3,402.86A8,8 0 1 1 290.3,402.86A8,8 0 1 1 306.3,402.86Z" style="fill:#FF7AB4" />
<path d="M314.75,377.56A8,8 0 1 1 298.75,377.56A8,8 0 1 1 314.75,377.56Z" style="fill:#FF7AB4" />
<path d="M323.21,454.16A8,8 0 1 1 307.21,454.16A8,8 0 1 1 323.21,454.16Z" style="fill:#FF7AB4" />
<path d="M331.67,428.42A8,8 0 1 1 315.67,428.42A8,8 0 1 1 331.67,428.42Z" style="fill:#FF7AB4" />
<path d="M340.13,433.23A8,8 0 1 1 324.13,433.23A8,8 0 1 1 340.13,433.23Z" style="fill:#FF7AB4" />
<path d="M348.59,443.93A8,8 0 1 1 332.59,443.93A8,8 0 1 1 348.59,443.93Z" style="fill:#FF7AB4" />
<path d="M357.05,464.97A8,8 0 1 1 341.05,464.97A8,8 0 1 1 357.05,464.97Z" style="fill:#FF7AB4" />
<path d="M365.51,428.13A8,8 0 1 1 349.51,428.13A8,8 0 1 1 365.51,428.13Z" style="fill:#FF7AB4" />
<path d="M373.97,456.55A8,8 0 1 1 357.97,456.55A8,8 0 1 1 373.97,456.55Z" style="fill:#FF7AB4" />
<path d="M382.43,450.4A8,8 0 1 1 366.43,450.4A8,8 0 1 1 382.43,450.4Z" style="fill:#FF7AB4" />
<path d="M390.89,454.03A8,8 0 1 1 374.89,454.03A8,8 0 1 1 390.89,454.03Z" style="fill:#FF7AB4" />
<path d="M399.34,408.83A8,8 0 1 1 383.34,408.83A8,8 0 1 1 399.34,408.83Z" style="fill:#FF7AB4" />
<path d="M407.8,449.63A8,8 0 1 1 391.8,449.63A8,8 0 1 1 407.8,449.63Z" style="fill:#FF7AB4" />
<path d="M416.26,473.29A8,8 0 1 1 400.26,473.29A8,8 0 1 1 416.26,473.29Z" style="fill:#FF7AB4" />
<path d="M424.72,505.52A8,8 0 1 1 408.72,505.52A8,8 0 1 1 424.72,505.52Z" style="fill:#FF7AB4" />
<path d="M433.18,464.53A8,8 0 1 1 417.18,464.53A8,8 0 1 1 433.18,464.53Z" style="fill:#FF7AB4" />
<path d="M441.64,495.72A8,8 0 1 1 425.64,495.72A8,8 0 1 1 441.64,495.72Z" style="fill:#FF7AB4" />
<path d="M450.1,447.35A8,8 0 1 1 434.1,447.35A8,8 0 1 1 450.1,447.35Z" style="fill:#FF7AB4" />
<path d="M458.56,427.57A8,8 0 1 1 442.56,427.57A8,8 0 1 1 458.56,427.57Z" style="fill:#FF7AB4" />
<path d="M467.02,435.26A8,8 0 1 1 451.02,435.26A8,8 0 1 1 467.02,435.26Z" style="fill:#FF7AB4" />
<path d="M475.48,451.98A8,8 0 1 1 459.48,451.98A8,8 0 1 1 475.48,451.98Z" style="fill:#FF7AB4" />
<path d="M483.93,499.42A8,8 0 1 1 467.93,499.42A8,8 0 1 1 483.93,499.42Z" style="fill:#FF7AB4" />
<path d="M492.39,470.54A8,8 0 1 1 476.39,470.54A8,8 0 1 1 492.39,470.54Z" style="fill:#FF7AB4" />
<path d="M500.85,486.37A8,8 0 1 1 484.85,486.37A8,8 0 1 1 500.85,486.37Z" style="fill:#FF7AB4" />
<path d="M509.31,497.12A8,8 0 1 1 493.31,497.12A8,8 0 1 1 509.31,497.12Z" style="fill:#FF7AB4" />
<path d="M517.77,515.15A8,8 0 1 1 501.77,515.15A8,8 0 1 1 517.77,515.15Z" style="fill:#FF7AB4" />
<path d="M526.23,516A8,8 0 1 1 510.23,516A8,8 0 1 1 526.23,516Z" style="fill:#FF7AB4" />
<path d="M534.69,541.17A8,8 0 1 1 518.69,541.17A8,8 0 1 1 534.69,541.17Z" style="fill:#FF7AB4" />
<path d="M543.15,567.46A8,8 0 1 1 527.15,567.46A8,8 0 1 1 543.15,567.46Z" style="fill:#FF7AB4" />
<path d="M551.61,498.71A8,8 0 1 1 535.61,498.71A8,8 0 1 1 551.61,498.71Z" style="fill:#FF7AB4" />
<path d="M560.07,467.1A8,8 0 1 1 544.07,467.1A8,8 0 1 1 560.07,467.1Z" style="fill:#FF7AB4" />
<path d="M568.52,526.49A8,8 0 1 1 552.52,526.49A8,8 0 1 1 568.52,526.49Z" style="fill:#FF7AB4" />
<path d="M576.98,513.78A8,8 0 1 1 560.98,513.78A8,8 0 1 1 576.98,513.78Z" style="fill:#FF7AB4" />
<path d="M585.44,520.19A8,8 0 1 1 569.44,520.19A8,8 0 1 1 585.44,520.19Z" style="fill:#FF7AB4" />
<path d="M593.9,533.33A8,8 0 1 1 577.9,533.33A8,8 0 1 1 593.9,533.33Z" style="fill:#FF7AB4" />
<path d="M602.36,474.68A8,8 0 1 1 586.36,474.68A8,8 0 1 1 602.36,474.68Z" style="fill:#FF7AB4" />
<path d="M610.82,489.04A8,8 0 1 1 594.82,489.04A8,8 0 1 1 610.82,489.04Z" style="fill:#FF7AB4" />
<path d="M619.28,475.71A8,8 0 1 1 603.28,475.71A8,8 0 1 1 619.28,475.71Z" style="fill:#FF7AB4" />
<path d="M627.74,479.68A8,8 0 1 1 611.74,479.68A8,8 0 1 1 627.74,479.68Z" style="fill:#FF7AB4" />
<path d="M636.2,427.32A8,8 0 1 1 620.2,427.32A8,8 0 1 1 636.2,427.32Z" style="fill:#FF7AB4" />
<path d="M644.66,484.24A8,8 0 1 1 628.66,484.24A8,8 0 1 1 644.66,484.24Z" style="fill:#FF7AB4" />
<path d="M653.11,504.99A8,8 0 1 1 637.11,504.99A8,8 0 1 1 653.11,504.99Z" style="fill:#FF7AB4" />
<path d="M661.57,511.54A8,8 0 1 1 645.57,511.54A8,8 0 1 1 661.57,511.54Z" style="fill:#FF7AB4" />
<path d="M670.03,466.29A8,8 0 1 1 654.03,466.29A8,8 0 1 1 670.03,466.29Z" style="fill:#FF7AB4" />
<path d="M678.49,599.79A8,8 0 1 1 662.49,599.79A8,8 0 1 1 678.49,599.79Z" style="fill:#FF7AB4" />
<path d="M686.95,753.94A8,8 0 1 1 670.95,753.94A8,8 0 1 1 686.95,753.94Z" style="fill:#FF7AB4" />
<path d="M695.41,805.13A8,8 0 1 1 679.41,805.13A8,8 0 1 1 695.41,805.13Z" style="fill:#FF7AB4" />
<path d="M703.87,702.45A8,8 0 1 1 687.87,702.45A8,8 0 1 1 703.87,702.45Z" style="fill:#FF7AB4" />
<path d="M712.33,886.03A8,8 0 1 1 696.33,886.03A8,8 0 1 1 712.33,886.03Z" style="fill:#FF7AB4" />
<path d="M720.79,816.49A8,8 0 1 1 704.79,816.49A8,8 0 1 1 720.79,816.49Z" style="fill:#FF7AB4" />
<path d="M729.25,805.17A8,8 0 1 1 713.25,805.17A8,8 0 1 1 729.25,805.17Z" style="fill:#FF7AB4" />
<path d="M737.7,819.29A8,8 0 1 1 721.7,819.29A8,8 0 1 1 737.7,819.29Z" style="fill:#FF7AB4" />
<path d="M746.16,803.04A8,8 0 1 1 730.16,803.04A8,8 0 1 1 746.16,803.04Z" style="fill:#FF7AB4" />
<path d="M754.62,818.6A8,8 0 1 1 738.62,818.6A8,8 0 1 1 754.62,818.6Z" style="fill:#FF7AB4" />
<path d="M763.08,774.11A8,8 0 1 1 747.08,774.11A8,8 0 1 1 763.08,774.11Z" style="fill:#FF7AB4" />
<path d="M771.54,693.6A8,8 0 1 1 755.54,693.6A8,8 0 1 1 771.54,693.6Z" style="fill:#FF7AB4" />
<path d="M780,790.63A8,8 0 1 1 764,790.63A8,8 0 1 1 780,790.63Z" style="fill:#FF7AB4" />
<path d="M788.46,600.88A8,8 0 1 1 772.46,600.88A8,8 0 1 1 788.46,600.88Z" style="fill:#FF7AB4" />
<path d="M796.92,579.42A8,8 0 1 1 780.92,579.42A8,8 0 1 1 796.92,579.42Z" style="fill:#FF7AB4" />
<path d="M805.38,442.26A8,8 0 1 1 789.38,442.26A8,8 0 1 1 805.38,442.26Z" style="fill:#FF7AB4" />
<path d="M813.84,467.09A8,8 0 1 1 797.84,467.09A8,8 0 1 1 813.84,467.09Z" style="fill:#FF7AB4" />
<path d="M822.3,492.35A8,8 0 1 1 806.3,492.35A8,8 0 1 1 822.3,492.35Z" style="fill:#FF7AB4" />
<path d="M830.75,402.01A8,8 0 1 1 814.75,402.01A8,8 0 1 1 830.75,402.01Z" style="fill:#FF7AB4" />
<path d="M839.21,360.07A8,8 0 1 1 823.21,360.07A8,8 0 1 1 839.21,360.07Z" style="fill:#FF7AB4" />
<path d="M847.67,364.26A8,8 0 1 1 831.67,364.26A8,8 0 1 1 847.67,364.26Z" style="fill:#FF7AB4" />
<path d="M856.13,355.9A8,8 0 1 1 840.13,355.9A8,8 0 1 1 856.13,355.9Z" style="fill:#FF7AB4" />
<path d="M864.59,350.09A8,8 0 1 1 848.59,350.09A8,8 0 1 1 864.59,350.09Z" style="fill:#FF7AB4" />
<path d="M873.05,327.53A8,8 0 1 1 857.05,327.53A8,8 0 1 1 873.05,327.53Z" style="fill:#FF7AB4" />
<path d="M881.51,320.51A8,8 0 1 1 865.51,320.51A8,8 0 1 1 881.51,320.51Z" style="fill:#FF7AB4" />
<path d="M889.97,311.18A8,8 0 1 1 873.97,311.18A8,8 0 1 1 889.97,311.18Z" style="fill:#FF7AB4" />
<path d="M898.43,318.85A8,8 0 1 1 882.43,318.85A8,8 0 1 1 898.43,318.85Z" style="fill:#FF7AB4" />
<path d="M906.89,316.7A8,8 0 1 1 890.89,316.7A8,8 0 1 1 906.89,316.7Z" style="fill:#FF7AB4" />
<path d="M915.34,279.68A8,8 0 1 1 899.34,279.68A8,8 0 1 1 915.34,279.68Z" style="fill:#FF7AB4" />
<path d="M923.8,293.6A8,8 0 1 1 907.8,293.6A8,8 0 1 1 923.8,293.6Z" style="fill:#FF7AB4" />
<path d="M932.26,309.06A8,8 0 1 1 916.26,309.06A8,8 0 1 1 932.26,309.06Z" style="fill:#FF7AB4" />
<path d="M940.72,303.61A8,8 0 1 1 924.72,303.61A8,8 0 1 1 940.72,303.61Z" style="fill:#FF7AB4" />
<path d="M949.18,281.24A8,8 0 1 1 933.18,281.24A8,8 0 1 1 949.18,281.24Z" style="fill:#FF7AB4" />
<path d="M957.64,298.81A8,8 0 1 1 941.64,298.81A8,8 0 1 1 957.64,298.81Z" style="fill:#FF7AB4" />
<path d="M966.1,276.71A8,8 0 1 1 950.1,276.71A8,8 0 1 1 966.1,276.71Z" style="fill:#FF7AB4" />
<path d="M974.56,262A8,8 0 1 1 958.56,262A8,8 0 1 1 974.56,262Z" style="fill:#FF7AB4" />
<path d="M983.02,241.66A8,8 0 1 1 967.02,241.66A8,8 0 1 1 983.02,241.66Z" style="fill:#FF7AB4" />
<path d="M991.48,297.81A8,8 0 1 1 975.48,297.81A8,8 0 1 1 991.48,297.81Z" style="fill:#FF7AB4" />
<path d="M999.93,263.29A8,8 0 1 1 983.93,263.29A8,8 0 1 1 999.93,263.29Z" style="fill:#FF7AB4" />
<path d="M1008.4,299.02A8,8 0 1 1 992.39,299.02A8,8 0 1 1 1008.4,299.02Z" style="fill:#FF7AB4" />
<path d="M1016.9,297.1A8,8 0 1 1 1000.9,297.1A8,8 0 1 1 1016.9,297.1Z" style="fill:#FF7AB4" />
<path d="M1025.3,322.04A8,8 0 1 1 1009.3,322.04A8,8 0 1 1 1025.3,322.04Z" style="fill:#FF7AB4" />
<path d="M1033.8,345.25A8,8 0 1 1 1017.8,345.25A8,8 0 1 1 1033.8,345.25Z" style="fill:#FF7AB4" />
<path d="M1042.2,328.97A8,8 0 1 1 1026.2,328.97A8,8 0 1 1 1042.2,328.97Z" style="fill:#FF7AB4" />
<path d="M1050.7,299.17A8,8 0 1 1 1034.7,299.17A8,8 0 1 1 1050.7,299.17Z" style="fill:#FF7AB4" />
<path d="M1059.1,319.27A8,8 0 1 1 1043.1,319.27A8,8 0 1 1 1059.1,319.27Z" style="fill:#FF7AB4" />
<path d="M1067.6,321A8,8 0 1 1 1051.6,321A8,8 0 1 1 1067.6,321Z" style="fill:#FF7AB4" />
<path d="M1076.1,334.25A8,8 0 1 1 1060.1,334.25A8,8 0 1 1 1076.1,334.25Z" style="fill:#FF7AB4" />
<path d="M1084.5,283.87A8,8 0 1 1 1068.5,283.87A8,8 0 1 1 1084.5,283.87Z" style="fill:#FF7AB4" />
<path d="M1093,301A8,8 0 1 1 1077,301A8,8 0 1 1 1093,301Z" style="fill:#FF7AB4" />
<path d="M1101.4,314.47A8,8 0 1 1 1085.4,314.47A8,8 0 1 1 1101.4,314.47Z" style="fill:#FF7AB4" />
<path d="M1109.9,313.08A8,8 0 1 1 1093.9,313.08A8,8 0 1 1 1109.9,313.08Z" style="fill:#FF7AB4" />
<path d="M1118.4,362.12A8,8 0 1 1 1102.4,362.12A8,8 0 1 1 1118.4,362.12Z" style="fill:#FF7AB4" />
<path d="M1126.8,317.31A8,8 0 1 1 1110.8,317.31A8,8 0 1 1 1126.8,317.31Z" style="fill:#FF7AB4" />
<path d="M1135.3,326.18A8,8 0 1 1 1119.3,326.18A8,8 0 1 1 1135.3,326.18Z" style="fill:#FF7AB4" />
<path d="M1143.7,304.74A8,8 0 1 1 1127.7,304.74A8,8 0 1 1 1143.7,304.74Z" style="fill:#FF7AB4" />
<path d="M1152.2,316.14A8,8 0 1 1 1136.2,316.14A8,8 0 1 1 1152.2,316.14Z" style="fill:#FF7AB4" />
<path d="M1160.7,333.89A8,8 0 1 1 1144.7,333.89A8,8 0 1 1 1160.7,333.89Z" style="fill:#FF7AB4" />
<path d="M1169.1,387.79A8,8 0 1 1 1153.1,387.79A8,8 0 1 1 1169.1,387.79Z" style="fill:#FF7AB4" />
<path d="M1177.6,373.88A8,8 0 1 1 1161.6,373.88A8,8 0 1 1 1177.6,373.88Z" style="fill:#FF7AB4" />
<path d="M1186,346.75A8,8 0 1 1 1170,346.75A8,8 0 1 1 1186,346.75Z" style="fill:#FF7AB4" />
<path d="M1194.5,323.2A8,8 0 1 1 1178.5,323.2A8,8 0 1 1 1194.5,323.2Z" style="fill:#FF7AB4" />
<path d="M1203,365.53A8,8 0 1 1 1187,365.53A8,8 0 1 1 1203,365.53Z" style="fill:#FF7AB4" />
<path d="M1211.4,383.45A8,8 0 1 1 1195.4,383.45A8,8 0 1 1 1211.4,383.45Z" style="fill:#FF7AB4" />
<path d="M1219.9,386.2A8,8 0 1 1 1203.9,386.2A8,8 0 1 1 1219.9,386.2Z" style="fill:#FF7AB4" />
<path d="M1228.3,376.79A8,8 0 1 1 1212.3,376.79A8,8 0 1 1 1228.3,376.79Z" style="fill:#FF7AB4" />
<path d="M1236.8,378.84A8,8 0 1 1 1220.8,378.84A8,8 0 1 1 1236.8,378.84Z" style="fill:#FF7AB4" />
<path d="M1245.2,474.43A8,8 0 1 1 1229.2,474.43A8,8 0 1 1 1245.2,474.43Z" style="fill:#FF7AB4" />
<path d="M1253.7,420.78A8,8 0 1 1 1237.7,420.78A8,8 0 1 1 1253.7,420.78Z" style="fill:#FF7AB4" />
<path d="M1262.2,388.52A8,8 0 1 1 1246.2,388.52A8,8 0 1 1 1262.2,388.52Z" style="fill:#FF7AB4" />
<path d="M1270.6,373.28A8,8 0 1 1 1254.6,373.28A8,8 0 1 1 1270.6,373.28Z" style="fill:#FF7AB4" />
<path d="M1279.1,376.63A8,8 0 1 1 1263.1,376.63A8,8 0 1 1 1279.1,376.63Z" style="fill:#FF7AB4" />
<path d="M1287.5,364.25A8,8 0 1 1 1271.5,364.25A8,8 0 1 1 1287.5,364.25Z" style="fill:#FF7AB4" />
<path d="M1296,340.07A8,8 0 1 1 1280,340.07A8,8 0 1 1 1296,340.07Z" style="fill:#FF7AB4" />
<path d="M107.97,1019.1L1288,1019.1" style="fill:none;stroke:#000000;stroke-width:2.5" />
<path d="M1288,87.824L1288,1019.1" style="fill:none;stroke:#000000;stroke-width:2.5" />
<path d="M1229,964.69A8,8 0 1 1 1213,964.69A8,8 0 1 1 1229,964.69Z" style="fill:#FF7AB4" />
<text x="1041.5" y="-957.62" transform="scale(1, -1)"
	style="font-family:Liberation Sans;font-variant:normal;font-weight:normal;font-style:normal;font-size:30px">1 um TeO2</text>
</g>
</svg>
