<?xml version="1.0"?>
<!-- Generated by SVGo and Plotinum VG -->
<svg width="1080pt" height="1080pt" viewBox="0 0 1080 1080"
	xmlns="http://www.w3.org/2000/svg"
	xmlns:xlink="http://www.w3.org/1999/xlink">
<g transform="scale(1, -1) translate(0, -1080)">
<path d="M0,0L1080,0L1080,1080L0,1080Z" style="fill:#-8000000000000000-8000000000000000-8000000000000000;fill-opacity:0" />
<text x="119.79" y="-1015.2" transform="scale(1, -1)"
	style="font-family:Helvetica;font-weight:normal;font-style:normal;font-size:80px">Liquid-Core Anti-Stokes</text>
<text x="390.51" y="-17.172" transform="scale(1, -1)"
	style="font-family:Helvetica;font-weight:normal;font-style:normal;font-size:56px">Frequency (GHz)</text>
<text x="153.81" y="-119.73" transform="scale(1, -1)"
	style="font-family:Helvetica;font-weight:normal;font-style:normal;font-size:56px">2</text>
<text x="304.8" y="-119.73" transform="scale(1, -1)"
	style="font-family:Helvetica;font-weight:normal;font-style:normal;font-size:56px">2.1</text>
<text x="479.14" y="-119.73" transform="scale(1, -1)"
	style="font-family:Helvetica;font-weight:normal;font-style:normal;font-size:56px">2.2</text>
<text x="653.47" y="-119.73" transform="scale(1, -1)"
	style="font-family:Helvetica;font-weight:normal;font-style:normal;font-size:56px">2.3</text>
<text x="827.81" y="-119.73" transform="scale(1, -1)"
	style="font-family:Helvetica;font-weight:normal;font-style:normal;font-size:56px">2.4</text>
<text x="1002.2" y="-119.73" transform="scale(1, -1)"
	style="font-family:Helvetica;font-weight:normal;font-style:normal;font-size:56px">2.5</text>
<path d="M169.38,181.12L169.38,173.12" style="fill:none;stroke:#000000;stroke-width:1.5" />
<path d="M256.55,177.12L256.55,173.12" style="fill:none;stroke:#000000;stroke-width:1.5" />
<path d="M343.72,181.12L343.72,173.12" style="fill:none;stroke:#000000;stroke-width:1.5" />
<path d="M430.89,177.12L430.89,173.12" style="fill:none;stroke:#000000;stroke-width:1.5" />
<path d="M518.06,181.12L518.06,173.12" style="fill:none;stroke:#000000;stroke-width:1.5" />
<path d="M605.23,177.12L605.23,173.12" style="fill:none;stroke:#000000;stroke-width:1.5" />
<path d="M692.4,181.12L692.4,173.12" style="fill:none;stroke:#000000;stroke-width:1.5" />
<path d="M779.57,177.12L779.57,173.12" style="fill:none;stroke:#000000;stroke-width:1.5" />
<path d="M866.74,181.12L866.74,173.12" style="fill:none;stroke:#000000;stroke-width:1.5" />
<path d="M953.91,177.12L953.91,173.12" style="fill:none;stroke:#000000;stroke-width:1.5" />
<path d="M1041.1,181.12L1041.1,173.12" style="fill:none;stroke:#000000;stroke-width:1.5" />
<path d="M169.38,173.12L1041.1,173.12" style="fill:none;stroke:#000000;stroke-width:1.5" />
<g transform="rotate(90)">
<text x="272.11" y="45.391" transform="scale(1, -1)"
	style="font-family:Helvetica;font-weight:normal;font-style:normal;font-size:56px">Spectral Density (nV)</text>
</g>
<text x="114.43" y="-203.53" transform="scale(1, -1)"
	style="font-family:Helvetica;font-weight:normal;font-style:normal;font-size:56px">0</text>
<text x="114.43" y="-338.61" transform="scale(1, -1)"
	style="font-family:Helvetica;font-weight:normal;font-style:normal;font-size:56px">1</text>
<text x="114.43" y="-473.69" transform="scale(1, -1)"
	style="font-family:Helvetica;font-weight:normal;font-style:normal;font-size:56px">2</text>
<text x="114.43" y="-608.77" transform="scale(1, -1)"
	style="font-family:Helvetica;font-weight:normal;font-style:normal;font-size:56px">3</text>
<text x="114.43" y="-743.85" transform="scale(1, -1)"
	style="font-family:Helvetica;font-weight:normal;font-style:normal;font-size:56px">4</text>
<text x="114.43" y="-878.93" transform="scale(1, -1)"
	style="font-family:Helvetica;font-weight:normal;font-style:normal;font-size:56px">5</text>
<path d="M177.13,217.63L169.13,217.63" style="fill:none;stroke:#000000;stroke-width:1.5" />
<path d="M177.13,352.72L169.13,352.72" style="fill:none;stroke:#000000;stroke-width:1.5" />
<path d="M177.13,487.8L169.13,487.8" style="fill:none;stroke:#000000;stroke-width:1.5" />
<path d="M177.13,622.88L169.13,622.88" style="fill:none;stroke:#000000;stroke-width:1.5" />
<path d="M177.13,757.96L169.13,757.96" style="fill:none;stroke:#000000;stroke-width:1.5" />
<path d="M177.13,893.04L169.13,893.04" style="fill:none;stroke:#000000;stroke-width:1.5" />
<path d="M169.13,180.24L169.13,893.04" style="fill:none;stroke:#000000;stroke-width:1.5" />
<path d="M181.1,206.68A3,3 0 1 1 175.1,206.68A3,3 0 1 1 181.1,206.68Z" style="fill:#1FD3AC" />
<path d="M198.53,189.64A3,3 0 1 1 192.53,189.64A3,3 0 1 1 198.53,189.64Z" style="fill:#1FD3AC" />
<path d="M215.97,208.98A3,3 0 1 1 209.97,208.98A3,3 0 1 1 215.97,208.98Z" style="fill:#1FD3AC" />
<path d="M233.4,219.32A3,3 0 1 1 227.4,219.32A3,3 0 1 1 233.4,219.32Z" style="fill:#1FD3AC" />
<path d="M250.84,220.22A3,3 0 1 1 244.84,220.22A3,3 0 1 1 250.84,220.22Z" style="fill:#1FD3AC" />
<path d="M268.27,214.7A3,3 0 1 1 262.27,214.7A3,3 0 1 1 268.27,214.7Z" style="fill:#1FD3AC" />
<path d="M285.7,235.89A3,3 0 1 1 279.7,235.89A3,3 0 1 1 285.7,235.89Z" style="fill:#1FD3AC" />
<path d="M303.14,239.75A3,3 0 1 1 297.14,239.75A3,3 0 1 1 303.14,239.75Z" style="fill:#1FD3AC" />
<path d="M320.57,247.29A3,3 0 1 1 314.57,247.29A3,3 0 1 1 320.57,247.29Z" style="fill:#1FD3AC" />
<path d="M338,252.98A3,3 0 1 1 332,252.98A3,3 0 1 1 338,252.98Z" style="fill:#1FD3AC" />
<path d="M355.44,276.96A3,3 0 1 1 349.44,276.96A3,3 0 1 1 355.44,276.96Z" style="fill:#1FD3AC" />
<path d="M372.87,263.18A3,3 0 1 1 366.87,263.18A3,3 0 1 1 372.87,263.18Z" style="fill:#1FD3AC" />
<path d="M390.31,284.56A3,3 0 1 1 384.31,284.56A3,3 0 1 1 390.31,284.56Z" style="fill:#1FD3AC" />
<path d="M407.74,320.47A3,3 0 1 1 401.74,320.47A3,3 0 1 1 407.74,320.47Z" style="fill:#1FD3AC" />
<path d="M425.17,358.49A3,3 0 1 1 419.17,358.49A3,3 0 1 1 425.17,358.49Z" style="fill:#1FD3AC" />
<path d="M442.61,391.99A3,3 0 1 1 436.61,391.99A3,3 0 1 1 442.61,391.99Z" style="fill:#1FD3AC" />
<path d="M460.04,429.06A3,3 0 1 1 454.04,429.06A3,3 0 1 1 460.04,429.06Z" style="fill:#1FD3AC" />
<path d="M477.48,467.03A3,3 0 1 1 471.48,467.03A3,3 0 1 1 477.48,467.03Z" style="fill:#1FD3AC" />
<path d="M494.91,547.14A3,3 0 1 1 488.91,547.14A3,3 0 1 1 494.91,547.14Z" style="fill:#1FD3AC" />
<path d="M512.34,610.98A3,3 0 1 1 506.34,610.98A3,3 0 1 1 512.34,610.98Z" style="fill:#1FD3AC" />
<path d="M529.78,656.84A3,3 0 1 1 523.78,656.84A3,3 0 1 1 529.78,656.84Z" style="fill:#1FD3AC" />
<path d="M547.21,720.32A3,3 0 1 1 541.21,720.32A3,3 0 1 1 547.21,720.32Z" style="fill:#1FD3AC" />
<path d="M564.64,748.61A3,3 0 1 1 558.64,748.61A3,3 0 1 1 564.64,748.61Z" style="fill:#1FD3AC" />
<path d="M582.08,753.37A3,3 0 1 1 576.08,753.37A3,3 0 1 1 582.08,753.37Z" style="fill:#1FD3AC" />
<path d="M599.51,737.9A3,3 0 1 1 593.51,737.9A3,3 0 1 1 599.51,737.9Z" style="fill:#1FD3AC" />
<path d="M616.95,665.42A3,3 0 1 1 610.95,665.42A3,3 0 1 1 616.95,665.42Z" style="fill:#1FD3AC" />
<path d="M634.38,627.82A3,3 0 1 1 628.38,627.82A3,3 0 1 1 634.38,627.82Z" style="fill:#1FD3AC" />
<path d="M651.81,597.55A3,3 0 1 1 645.81,597.55A3,3 0 1 1 651.81,597.55Z" style="fill:#1FD3AC" />
<path d="M669.25,535.27A3,3 0 1 1 663.25,535.27A3,3 0 1 1 669.25,535.27Z" style="fill:#1FD3AC" />
<path d="M686.68,475.23A3,3 0 1 1 680.68,475.23A3,3 0 1 1 686.68,475.23Z" style="fill:#1FD3AC" />
<path d="M704.12,451.41A3,3 0 1 1 698.12,451.41A3,3 0 1 1 704.12,451.41Z" style="fill:#1FD3AC" />
<path d="M721.55,431.91A3,3 0 1 1 715.55,431.91A3,3 0 1 1 721.55,431.91Z" style="fill:#1FD3AC" />
<path d="M738.98,366.84A3,3 0 1 1 732.98,366.84A3,3 0 1 1 738.98,366.84Z" style="fill:#1FD3AC" />
<path d="M756.42,333.25A3,3 0 1 1 750.42,333.25A3,3 0 1 1 756.42,333.25Z" style="fill:#1FD3AC" />
<path d="M773.85,335A3,3 0 1 1 767.85,335A3,3 0 1 1 773.85,335Z" style="fill:#1FD3AC" />
<path d="M791.29,299.07A3,3 0 1 1 785.29,299.07A3,3 0 1 1 791.29,299.07Z" style="fill:#1FD3AC" />
<path d="M808.72,261.11A3,3 0 1 1 802.72,261.11A3,3 0 1 1 808.72,261.11Z" style="fill:#1FD3AC" />
<path d="M826.15,284.71A3,3 0 1 1 820.15,284.71A3,3 0 1 1 826.15,284.71Z" style="fill:#1FD3AC" />
<path d="M843.59,255.56A3,3 0 1 1 837.59,255.56A3,3 0 1 1 843.59,255.56Z" style="fill:#1FD3AC" />
<path d="M861.02,256.68A3,3 0 1 1 855.02,256.68A3,3 0 1 1 861.02,256.68Z" style="fill:#1FD3AC" />
<path d="M878.45,250.17A3,3 0 1 1 872.45,250.17A3,3 0 1 1 878.45,250.17Z" style="fill:#1FD3AC" />
<path d="M895.89,229.45A3,3 0 1 1 889.89,229.45A3,3 0 1 1 895.89,229.45Z" style="fill:#1FD3AC" />
<path d="M913.32,230.04A3,3 0 1 1 907.32,230.04A3,3 0 1 1 913.32,230.04Z" style="fill:#1FD3AC" />
<path d="M930.76,207.22A3,3 0 1 1 924.76,207.22A3,3 0 1 1 930.76,207.22Z" style="fill:#1FD3AC" />
<path d="M948.19,217.26A3,3 0 1 1 942.19,217.26A3,3 0 1 1 948.19,217.26Z" style="fill:#1FD3AC" />
<path d="M965.62,205.46A3,3 0 1 1 959.62,205.46A3,3 0 1 1 965.62,205.46Z" style="fill:#1FD3AC" />
<path d="M983.06,192.34A3,3 0 1 1 977.06,192.34A3,3 0 1 1 983.06,192.34Z" style="fill:#1FD3AC" />
<path d="M1000.5,197.7A3,3 0 1 1 994.49,197.7A3,3 0 1 1 1000.5,197.7Z" style="fill:#1FD3AC" />
<path d="M1017.9,184.84A3,3 0 1 1 1011.9,184.84A3,3 0 1 1 1017.9,184.84Z" style="fill:#1FD3AC" />
<path d="M1035.4,197.79A3,3 0 1 1 1029.4,197.79A3,3 0 1 1 1035.4,197.79Z" style="fill:#1FD3AC" />
<path d="M178.1,244.72L179.84,244.95L181.59,245.18L183.33,245.41L185.07,245.64L186.82,245.88L188.56,246.12L190.3,246.37L192.05,246.61L193.79,246.86L195.53,247.12L197.28,247.37L199.02,247.63L200.76,247.89L202.51,248.16L204.25,248.43L205.99,248.7L207.74,248.98L209.48,249.26L211.22,249.55L212.97,249.83L214.71,250.13L216.45,250.42L218.2,250.72L219.94,251.03L221.68,251.33L223.43,251.65L225.17,251.96L226.91,252.28L228.66,252.61L230.4,252.94L232.14,253.27L233.89,253.61L235.63,253.96L237.37,254.3L239.12,254.66L240.86,255.02L242.61,255.38L244.35,255.75L246.09,256.12L247.84,256.5L249.58,256.89L251.32,257.28L253.07,257.67L254.81,258.08L256.55,258.48L258.3,258.9L260.04,259.32L261.78,259.75L263.53,260.18L265.27,260.62L267.01,261.06L268.76,261.52L270.5,261.98L272.24,262.44L273.99,262.92L275.73,263.4L277.47,263.89L279.22,264.38L280.96,264.89L282.7,265.4L284.45,265.92L286.19,266.45L287.93,266.99L289.68,267.53L291.42,268.09L293.16,268.65L294.91,269.22L296.65,269.8L298.39,270.4L300.14,271L301.88,271.61L303.62,272.23L305.37,272.86L307.11,273.5L308.85,274.16L310.6,274.82L312.34,275.5L314.08,276.19L315.83,276.88L317.57,277.6L319.31,278.32L321.06,279.06L322.8,279.8L324.54,280.57L326.29,281.34L328.03,282.13L329.77,282.94L331.52,283.75L333.26,284.59L335,285.44L336.75,286.3L338.49,287.18L340.23,288.07L341.98,288.99L343.72,289.92L345.46,290.86L347.21,291.83L348.95,292.81L350.7,293.81L352.44,294.83L354.18,295.87L355.93,296.93L357.67,298.01L359.41,299.11L361.16,300.23L362.9,301.38L364.64,302.54L366.39,303.73L368.13,304.95L369.87,306.18L371.62,307.45L373.36,308.73L375.1,310.05L376.85,311.39L378.59,312.76L380.33,314.15L382.08,315.58L383.82,317.03L385.56,318.52L387.31,320.03L389.05,321.58L390.79,323.16L392.54,324.77L394.28,326.42L396.02,328.11L397.77,329.82L399.51,331.58L401.25,333.37L403,335.21L404.74,337.08L406.48,338.99L408.23,340.95L409.97,342.95L411.71,344.99L413.46,347.08L415.2,349.21L416.94,351.4L418.69,353.63L420.43,355.91L422.17,358.24L423.92,360.63L425.66,363.07L427.4,365.56L429.15,368.11L430.89,370.72L432.63,373.39L434.38,376.12L436.12,378.92L437.86,381.78L439.61,384.7L441.35,387.69L443.09,390.75L444.84,393.88L446.58,397.08L448.32,400.36L450.07,403.71L451.81,407.14L453.55,410.65L455.3,414.24L457.04,417.91L458.79,421.67L460.53,425.51L462.27,429.43L464.02,433.45L465.76,437.56L467.5,441.76L469.25,446.06L470.99,450.45L472.73,454.93L474.48,459.52L476.22,464.2L477.96,468.99L479.71,473.87L481.45,478.86L483.19,483.95L484.94,489.15L486.68,494.45L488.42,499.85L490.17,505.36L491.91,510.97L493.65,516.69L495.4,522.51L497.14,528.43L498.88,534.45L500.63,540.57L502.37,546.79L504.11,553.1L505.86,559.5L507.6,565.98L509.34,572.55L511.09,579.2L512.83,585.92L514.57,592.71L516.32,599.55L518.06,606.45L519.8,613.39L521.55,620.37L523.29,627.37L525.03,634.39L526.78,641.41L528.52,648.43L530.26,655.42L532.01,662.38L533.75,669.29L535.49,676.14L537.24,682.92L538.98,689.59L540.72,696.16L542.47,702.59L544.21,708.88L545.95,715L547.7,720.94L549.44,726.68L551.18,732.19L552.93,737.46L554.67,742.47L556.41,747.21L558.16,751.65L559.9,755.77L561.64,759.57L563.39,763.03L565.13,766.12L566.87,768.85L568.62,771.19L570.36,773.14L572.11,774.69L573.85,775.83L575.59,776.55L577.34,776.86L579.08,776.75L580.82,776.23L582.57,775.29L584.31,773.94L586.05,772.18L587.8,770.03L589.54,767.48L591.28,764.57L593.03,761.28L594.77,757.65L596.51,753.68L598.26,749.39L600,744.79L601.74,739.91L603.49,734.76L605.23,729.37L606.97,723.74L608.72,717.89L610.46,711.86L612.2,705.65L613.95,699.28L615.69,692.78L617.43,686.15L619.18,679.42L620.92,672.61L622.66,665.73L624.41,658.79L626.15,651.81L627.89,644.8L629.64,637.78L631.38,630.76L633.12,623.74L634.87,616.75L636.61,609.79L638.35,602.87L640.1,596L641.84,589.19L643.58,582.44L645.33,575.75L647.07,569.15L648.81,562.62L650.56,556.18L652.3,549.82L654.04,543.56L655.79,537.39L657.53,531.32L659.27,525.35L661.02,519.49L662.76,513.72L664.5,508.06L666.25,502.5L667.99,497.04L669.73,491.69L671.48,486.45L673.22,481.3L674.96,476.27L676.71,471.33L678.45,466.5L680.2,461.77L681.94,457.13L683.68,452.6L685.43,448.16L687.17,443.82L688.91,439.58L690.66,435.42L692.4,431.36L694.14,427.39L695.89,423.51L697.63,419.71L699.37,416L701.12,412.37L702.86,408.82L704.6,405.36L706.35,401.97L708.09,398.65L709.83,395.42L711.58,392.25L713.32,389.16L715.06,386.13L716.81,383.18L718.55,380.29L720.29,377.46L722.04,374.7L723.78,372L725.52,369.37L727.27,366.79L729.01,364.26L730.75,361.8L732.5,359.39L734.24,357.03L735.98,354.72L737.73,352.47L739.47,350.26L741.21,348.1L742.96,345.99L744.7,343.93L746.44,341.91L748.19,339.93L749.93,338L751.67,336.11L753.42,334.25L755.16,332.44L756.9,330.67L758.65,328.93L760.39,327.23L762.13,325.57L763.88,323.94L765.62,322.34L767.36,320.78L769.11,319.25L770.85,317.75L772.59,316.28L774.34,314.84L776.08,313.43L777.82,312.05L779.57,310.69L781.31,309.37L783.05,308.07L784.8,306.79L786.54,305.54L788.29,304.32L790.03,303.11L791.77,301.94L793.52,300.78L795.26,299.65L797,298.54L798.75,297.45L800.49,296.38L802.23,295.33L803.98,294.3L805.72,293.29L807.46,292.3L809.21,291.33L810.95,290.37L812.69,289.43L814.44,288.51L816.18,287.61L817.92,286.72L819.67,285.85L821.41,285L823.15,284.16L824.9,283.33L826.64,282.52L828.38,281.72L830.13,280.94L831.87,280.17L833.61,279.42L835.36,278.67L837.1,277.94L838.84,277.23L840.59,276.52L842.33,275.83L844.07,275.15L845.82,274.48L847.56,273.82L849.3,273.17L851.05,272.53L852.79,271.91L854.53,271.29L856.28,270.69L858.02,270.09L859.76,269.5L861.51,268.93L863.25,268.36L864.99,267.8L866.74,267.25L868.48,266.71L870.22,266.17L871.97,265.65L873.71,265.13L875.45,264.63L877.2,264.13L878.94,263.63L880.68,263.15L882.43,262.67L884.17,262.2L885.91,261.74L887.66,261.28L889.4,260.83L891.14,260.39L892.89,259.95L894.63,259.52L896.38,259.1L898.12,258.68L899.86,258.27L901.61,257.87L903.35,257.47L905.09,257.08L906.84,256.69L908.58,256.31L910.32,255.93L912.07,255.56L913.81,255.19L915.55,254.83L917.3,254.47L919.04,254.12L920.78,253.78L922.53,253.44L924.27,253.1L926.01,252.77L927.76,252.44L929.5,252.12L931.24,251.8L932.99,251.48L934.73,251.17L936.47,250.87L938.22,250.57L939.96,250.27L941.7,249.98L943.45,249.69L945.19,249.4L946.93,249.12L948.68,248.84L950.42,248.56L952.16,248.29L953.91,248.02L955.65,247.76L957.39,247.5L959.14,247.24L960.88,246.98L962.62,246.73L964.37,246.48L966.11,246.24L967.85,246L969.6,245.76L971.34,245.52L973.08,245.29L974.83,245.06L976.57,244.83L978.31,244.61L980.06,244.38L981.8,244.16L983.54,243.95L985.29,243.73L987.03,243.52L988.77,243.31L990.52,243.11L992.26,242.9L994,242.7L995.75,242.5L997.49,242.3L999.23,242.11L1001,241.92L1002.7,241.73L1004.5,241.54L1006.2,241.35L1008,241.17L1009.7,240.99L1011.4,240.81L1013.2,240.63L1014.9,240.45L1016.7,240.28L1018.4,240.11L1020.2,239.94L1021.9,239.77L1023.6,239.61L1025.4,239.44L1027.1,239.28L1028.9,239.12L1030.6,238.96" style="fill:none;stroke:#1BAA8B;stroke-width:3" />
<path d="M487.59,497.25L667.92,497.25" style="fill:none;stroke:#1BAA8B;stroke-width:4;stroke-dasharray:15,5" />
<path d="M181.1,211.64A3,3 0 1 1 175.1,211.64A3,3 0 1 1 181.1,211.64Z" style="fill:#FF7AB4" />
<path d="M198.53,204.42A3,3 0 1 1 192.53,204.42A3,3 0 1 1 198.53,204.42Z" style="fill:#FF7AB4" />
<path d="M215.97,210.26A3,3 0 1 1 209.97,210.26A3,3 0 1 1 215.97,210.26Z" style="fill:#FF7AB4" />
<path d="M233.4,222.12A3,3 0 1 1 227.4,222.12A3,3 0 1 1 233.4,222.12Z" style="fill:#FF7AB4" />
<path d="M250.84,215.3A3,3 0 1 1 244.84,215.3A3,3 0 1 1 250.84,215.3Z" style="fill:#FF7AB4" />
<path d="M268.27,211.9A3,3 0 1 1 262.27,211.9A3,3 0 1 1 268.27,211.9Z" style="fill:#FF7AB4" />
<path d="M285.7,228.44A3,3 0 1 1 279.7,228.44A3,3 0 1 1 285.7,228.44Z" style="fill:#FF7AB4" />
<path d="M303.14,231.03A3,3 0 1 1 297.14,231.03A3,3 0 1 1 303.14,231.03Z" style="fill:#FF7AB4" />
<path d="M320.57,235.05A3,3 0 1 1 314.57,235.05A3,3 0 1 1 320.57,235.05Z" style="fill:#FF7AB4" />
<path d="M338,249.67A3,3 0 1 1 332,249.67A3,3 0 1 1 338,249.67Z" style="fill:#FF7AB4" />
<path d="M355.44,258.9A3,3 0 1 1 349.44,258.9A3,3 0 1 1 355.44,258.9Z" style="fill:#FF7AB4" />
<path d="M372.87,256.18A3,3 0 1 1 366.87,256.18A3,3 0 1 1 372.87,256.18Z" style="fill:#FF7AB4" />
<path d="M390.31,275.95A3,3 0 1 1 384.31,275.95A3,3 0 1 1 390.31,275.95Z" style="fill:#FF7AB4" />
<path d="M407.74,296.99A3,3 0 1 1 401.74,296.99A3,3 0 1 1 407.74,296.99Z" style="fill:#FF7AB4" />
<path d="M425.17,326.25A3,3 0 1 1 419.17,326.25A3,3 0 1 1 425.17,326.25Z" style="fill:#FF7AB4" />
<path d="M442.61,336.1A3,3 0 1 1 436.61,336.1A3,3 0 1 1 442.61,336.1Z" style="fill:#FF7AB4" />
<path d="M460.04,388.18A3,3 0 1 1 454.04,388.18A3,3 0 1 1 460.04,388.18Z" style="fill:#FF7AB4" />
<path d="M477.48,410.86A3,3 0 1 1 471.48,410.86A3,3 0 1 1 477.48,410.86Z" style="fill:#FF7AB4" />
<path d="M494.91,486.7A3,3 0 1 1 488.91,486.7A3,3 0 1 1 494.91,486.7Z" style="fill:#FF7AB4" />
<path d="M512.34,538A3,3 0 1 1 506.34,538A3,3 0 1 1 512.34,538Z" style="fill:#FF7AB4" />
<path d="M529.78,598.62A3,3 0 1 1 523.78,598.62A3,3 0 1 1 529.78,598.62Z" style="fill:#FF7AB4" />
<path d="M547.21,658.82A3,3 0 1 1 541.21,658.82A3,3 0 1 1 547.21,658.82Z" style="fill:#FF7AB4" />
<path d="M564.64,675.18A3,3 0 1 1 558.64,675.18A3,3 0 1 1 564.64,675.18Z" style="fill:#FF7AB4" />
<path d="M582.08,681.64A3,3 0 1 1 576.08,681.64A3,3 0 1 1 582.08,681.64Z" style="fill:#FF7AB4" />
<path d="M599.51,664.23A3,3 0 1 1 593.51,664.23A3,3 0 1 1 599.51,664.23Z" style="fill:#FF7AB4" />
<path d="M616.95,613.52A3,3 0 1 1 610.95,613.52A3,3 0 1 1 616.95,613.52Z" style="fill:#FF7AB4" />
<path d="M634.38,562.2A3,3 0 1 1 628.38,562.2A3,3 0 1 1 634.38,562.2Z" style="fill:#FF7AB4" />
<path d="M651.81,517.26A3,3 0 1 1 645.81,517.26A3,3 0 1 1 651.81,517.26Z" style="fill:#FF7AB4" />
<path d="M669.25,467.28A3,3 0 1 1 663.25,467.28A3,3 0 1 1 669.25,467.28Z" style="fill:#FF7AB4" />
<path d="M686.68,423.56A3,3 0 1 1 680.68,423.56A3,3 0 1 1 686.68,423.56Z" style="fill:#FF7AB4" />
<path d="M704.12,408.94A3,3 0 1 1 698.12,408.94A3,3 0 1 1 704.12,408.94Z" style="fill:#FF7AB4" />
<path d="M721.55,370.57A3,3 0 1 1 715.55,370.57A3,3 0 1 1 721.55,370.57Z" style="fill:#FF7AB4" />
<path d="M738.98,337.18A3,3 0 1 1 732.98,337.18A3,3 0 1 1 738.98,337.18Z" style="fill:#FF7AB4" />
<path d="M756.42,315.61A3,3 0 1 1 750.42,315.61A3,3 0 1 1 756.42,315.61Z" style="fill:#FF7AB4" />
<path d="M773.85,306.06A3,3 0 1 1 767.85,306.06A3,3 0 1 1 773.85,306.06Z" style="fill:#FF7AB4" />
<path d="M791.29,296.65A3,3 0 1 1 785.29,296.65A3,3 0 1 1 791.29,296.65Z" style="fill:#FF7AB4" />
<path d="M808.72,273.2A3,3 0 1 1 802.72,273.2A3,3 0 1 1 808.72,273.2Z" style="fill:#FF7AB4" />
<path d="M826.15,277.12A3,3 0 1 1 820.15,277.12A3,3 0 1 1 826.15,277.12Z" style="fill:#FF7AB4" />
<path d="M843.59,263.28A3,3 0 1 1 837.59,263.28A3,3 0 1 1 843.59,263.28Z" style="fill:#FF7AB4" />
<path d="M861.02,238.45A3,3 0 1 1 855.02,238.45A3,3 0 1 1 861.02,238.45Z" style="fill:#FF7AB4" />
<path d="M878.45,259.01A3,3 0 1 1 872.45,259.01A3,3 0 1 1 878.45,259.01Z" style="fill:#FF7AB4" />
<path d="M895.89,234.57A3,3 0 1 1 889.89,234.57A3,3 0 1 1 895.89,234.57Z" style="fill:#FF7AB4" />
<path d="M913.32,238.1A3,3 0 1 1 907.32,238.1A3,3 0 1 1 913.32,238.1Z" style="fill:#FF7AB4" />
<path d="M930.76,229.02A3,3 0 1 1 924.76,229.02A3,3 0 1 1 930.76,229.02Z" style="fill:#FF7AB4" />
<path d="M948.19,219.95A3,3 0 1 1 942.19,219.95A3,3 0 1 1 948.19,219.95Z" style="fill:#FF7AB4" />
<path d="M965.62,213.46A3,3 0 1 1 959.62,213.46A3,3 0 1 1 965.62,213.46Z" style="fill:#FF7AB4" />
<path d="M983.06,212.81A3,3 0 1 1 977.06,212.81A3,3 0 1 1 983.06,212.81Z" style="fill:#FF7AB4" />
<path d="M1000.5,203.38A3,3 0 1 1 994.49,203.38A3,3 0 1 1 1000.5,203.38Z" style="fill:#FF7AB4" />
<path d="M1017.9,180.24A3,3 0 1 1 1011.9,180.24A3,3 0 1 1 1017.9,180.24Z" style="fill:#FF7AB4" />
<path d="M1035.4,193.25A3,3 0 1 1 1029.4,193.25A3,3 0 1 1 1035.4,193.25Z" style="fill:#FF7AB4" />
<path d="M178.1,238.81L179.84,238.99L181.59,239.17L183.33,239.35L185.07,239.54L186.82,239.73L188.56,239.92L190.3,240.11L192.05,240.3L193.79,240.5L195.53,240.7L197.28,240.9L199.02,241.1L200.76,241.31L202.51,241.52L204.25,241.73L205.99,241.95L207.74,242.17L209.48,242.39L211.22,242.61L212.97,242.84L214.71,243.07L216.45,243.3L218.2,243.54L219.94,243.78L221.68,244.02L223.43,244.27L225.17,244.52L226.91,244.77L228.66,245.03L230.4,245.29L232.14,245.55L233.89,245.82L235.63,246.09L237.37,246.37L239.12,246.65L240.86,246.93L242.61,247.22L244.35,247.51L246.09,247.81L247.84,248.11L249.58,248.41L251.32,248.72L253.07,249.03L254.81,249.35L256.55,249.67L258.3,250L260.04,250.34L261.78,250.67L263.53,251.02L265.27,251.36L267.01,251.72L268.76,252.08L270.5,252.44L272.24,252.81L273.99,253.19L275.73,253.57L277.47,253.96L279.22,254.35L280.96,254.75L282.7,255.16L284.45,255.57L286.19,255.99L287.93,256.42L289.68,256.85L291.42,257.29L293.16,257.74L294.91,258.19L296.65,258.66L298.39,259.13L300.14,259.61L301.88,260.09L303.62,260.59L305.37,261.09L307.11,261.6L308.85,262.12L310.6,262.65L312.34,263.19L314.08,263.74L315.83,264.3L317.57,264.86L319.31,265.44L321.06,266.03L322.8,266.63L324.54,267.24L326.29,267.86L328.03,268.49L329.77,269.13L331.52,269.78L333.26,270.45L335,271.13L336.75,271.82L338.49,272.52L340.23,273.24L341.98,273.97L343.72,274.72L345.46,275.48L347.21,276.25L348.95,277.04L350.7,277.84L352.44,278.66L354.18,279.5L355.93,280.35L357.67,281.22L359.41,282.11L361.16,283.01L362.9,283.93L364.64,284.87L366.39,285.83L368.13,286.81L369.87,287.81L371.62,288.83L373.36,289.87L375.1,290.93L376.85,292.02L378.59,293.12L380.33,294.25L382.08,295.41L383.82,296.59L385.56,297.79L387.31,299.02L389.05,300.28L390.79,301.56L392.54,302.88L394.28,304.22L396.02,305.59L397.77,306.99L399.51,308.42L401.25,309.88L403,311.38L404.74,312.91L406.48,314.47L408.23,316.08L409.97,317.71L411.71,319.39L413.46,321.1L415.2,322.85L416.94,324.65L418.69,326.48L420.43,328.36L422.17,330.28L423.92,332.25L425.66,334.26L427.4,336.32L429.15,338.44L430.89,340.6L432.63,342.81L434.38,345.08L436.12,347.4L437.86,349.77L439.61,352.21L441.35,354.7L443.09,357.25L444.84,359.87L446.58,362.55L448.32,365.29L450.07,368.1L451.81,370.98L453.55,373.93L455.3,376.96L457.04,380.05L458.79,383.22L460.53,386.47L462.27,389.8L464.02,393.21L465.76,396.7L467.5,400.28L469.25,403.94L470.99,407.68L472.73,411.52L474.48,415.45L476.22,419.47L477.96,423.58L479.71,427.79L481.45,432.1L483.19,436.5L484.94,441L486.68,445.6L488.42,450.31L490.17,455.11L491.91,460.01L493.65,465.02L495.4,470.12L497.14,475.33L498.88,480.63L500.63,486.04L502.37,491.54L504.11,497.14L505.86,502.83L507.6,508.62L509.34,514.49L511.09,520.44L512.83,526.47L514.57,532.58L516.32,538.75L518.06,544.99L519.8,551.29L521.55,557.63L523.29,564.01L525.03,570.42L526.78,576.84L528.52,583.28L530.26,589.71L532.01,596.13L533.75,602.51L535.49,608.85L537.24,615.13L538.98,621.34L540.72,627.45L542.47,633.45L544.21,639.33L545.95,645.05L547.7,650.61L549.44,655.99L551.18,661.16L552.93,666.11L554.67,670.82L556.41,675.26L558.16,679.43L559.9,683.3L561.64,686.85L563.39,690.07L565.13,692.95L566.87,695.47L568.62,697.62L570.36,699.39L572.11,700.77L573.85,701.75L575.59,702.34L577.34,702.51L579.08,702.29L580.82,701.66L582.57,700.62L584.31,699.2L586.05,697.38L587.8,695.19L589.54,692.62L591.28,689.7L593.03,686.44L594.77,682.84L596.51,678.94L598.26,674.74L600,670.26L601.74,665.52L603.49,660.55L605.23,655.35L606.97,649.95L608.72,644.37L610.46,638.62L612.2,632.73L613.95,626.72L615.69,620.59L617.43,614.38L619.18,608.09L620.92,601.74L622.66,595.35L624.41,588.93L626.15,582.5L627.89,576.07L629.64,569.64L631.38,563.23L633.12,556.86L634.87,550.52L636.61,544.23L638.35,538L640.1,531.84L641.84,525.74L643.58,519.71L645.33,513.77L647.07,507.91L648.81,502.14L650.56,496.46L652.3,490.87L654.04,485.38L655.79,479.99L657.53,474.69L659.27,469.5L661.02,464.41L662.76,459.41L664.5,454.52L666.25,449.73L667.99,445.04L669.73,440.45L671.48,435.96L673.22,431.57L674.96,427.28L676.71,423.08L678.45,418.98L680.2,414.97L681.94,411.05L683.68,407.23L685.43,403.49L687.17,399.84L688.91,396.27L690.66,392.79L692.4,389.39L694.14,386.08L695.89,382.84L697.63,379.67L699.37,376.59L701.12,373.57L702.86,370.63L704.6,367.76L706.35,364.96L708.09,362.22L709.83,359.55L711.58,356.94L713.32,354.39L715.06,351.91L716.81,349.48L718.55,347.11L720.29,344.8L722.04,342.54L723.78,340.33L725.52,338.18L727.27,336.07L729.01,334.02L730.75,332.01L732.5,330.05L734.24,328.13L735.98,326.26L737.73,324.43L739.47,322.64L741.21,320.89L742.96,319.18L744.7,317.51L746.44,315.88L748.19,314.28L749.93,312.72L751.67,311.2L753.42,309.7L755.16,308.24L756.9,306.82L758.65,305.42L760.39,304.05L762.13,302.72L763.88,301.41L765.62,300.13L767.36,298.87L769.11,297.65L770.85,296.44L772.59,295.27L774.34,294.12L776.08,292.99L777.82,291.88L779.57,290.8L781.31,289.74L783.05,288.7L784.8,287.69L786.54,286.69L788.29,285.71L790.03,284.76L791.77,283.82L793.52,282.9L795.26,282L797,281.11L798.75,280.25L800.49,279.4L802.23,278.56L803.98,277.75L805.72,276.94L807.46,276.16L809.21,275.39L810.95,274.63L812.69,273.88L814.44,273.15L816.18,272.44L817.92,271.74L819.67,271.05L821.41,270.37L823.15,269.7L824.9,269.05L826.64,268.41L828.38,267.78L830.13,267.16L831.87,266.55L833.61,265.96L835.36,265.37L837.1,264.79L838.84,264.23L840.59,263.67L842.33,263.12L844.07,262.59L845.82,262.06L847.56,261.54L849.3,261.03L851.05,260.53L852.79,260.03L854.53,259.55L856.28,259.07L858.02,258.6L859.76,258.14L861.51,257.68L863.25,257.24L864.99,256.8L866.74,256.36L868.48,255.94L870.22,255.52L871.97,255.11L873.71,254.7L875.45,254.3L877.2,253.91L878.94,253.52L880.68,253.14L882.43,252.77L884.17,252.4L885.91,252.03L887.66,251.67L889.4,251.32L891.14,250.97L892.89,250.63L894.63,250.29L896.38,249.96L898.12,249.64L899.86,249.31L901.61,249L903.35,248.68L905.09,248.37L906.84,248.07L908.58,247.77L910.32,247.47L912.07,247.18L913.81,246.9L915.55,246.61L917.3,246.34L919.04,246.06L920.78,245.79L922.53,245.52L924.27,245.26L926.01,245L927.76,244.74L929.5,244.49L931.24,244.24L932.99,243.99L934.73,243.75L936.47,243.51L938.22,243.28L939.96,243.04L941.7,242.81L943.45,242.59L945.19,242.36L946.93,242.14L948.68,241.92L950.42,241.71L952.16,241.5L953.91,241.29L955.65,241.08L957.39,240.88L959.14,240.67L960.88,240.47L962.62,240.28L964.37,240.08L966.11,239.89L967.85,239.7L969.6,239.52L971.34,239.33L973.08,239.15L974.83,238.97L976.57,238.79L978.31,238.62L980.06,238.44L981.8,238.27L983.54,238.1L985.29,237.93L987.03,237.77L988.77,237.61L990.52,237.45L992.26,237.29L994,237.13L995.75,236.97L997.49,236.82L999.23,236.67L1001,236.52L1002.7,236.37L1004.5,236.22L1006.2,236.08L1008,235.93L1009.7,235.79L1011.4,235.65L1013.2,235.51L1014.9,235.38L1016.7,235.24L1018.4,235.11L1020.2,234.97L1021.9,234.84L1023.6,234.71L1025.4,234.59L1027.1,234.46L1028.9,234.33L1030.6,234.21" style="fill:none;stroke:#C96892;stroke-width:3" />
<path d="M491.93,460.07L662.53,460.07" style="fill:none;stroke:#C96892;stroke-width:4;stroke-dasharray:15,5" />
<path d="M181.1,215.47A3,3 0 1 1 175.1,215.47A3,3 0 1 1 181.1,215.47Z" style="fill:#7A9CFF" />
<path d="M198.53,215.45A3,3 0 1 1 192.53,215.45A3,3 0 1 1 198.53,215.45Z" style="fill:#7A9CFF" />
<path d="M215.97,203.79A3,3 0 1 1 209.97,203.79A3,3 0 1 1 215.97,203.79Z" style="fill:#7A9CFF" />
<path d="M233.4,204.1A3,3 0 1 1 227.4,204.1A3,3 0 1 1 233.4,204.1Z" style="fill:#7A9CFF" />
<path d="M250.84,216.05A3,3 0 1 1 244.84,216.05A3,3 0 1 1 250.84,216.05Z" style="fill:#7A9CFF" />
<path d="M268.27,213.48A3,3 0 1 1 262.27,213.48A3,3 0 1 1 268.27,213.48Z" style="fill:#7A9CFF" />
<path d="M285.7,233.86A3,3 0 1 1 279.7,233.86A3,3 0 1 1 285.7,233.86Z" style="fill:#7A9CFF" />
<path d="M303.14,235.76A3,3 0 1 1 297.14,235.76A3,3 0 1 1 303.14,235.76Z" style="fill:#7A9CFF" />
<path d="M320.57,236.79A3,3 0 1 1 314.57,236.79A3,3 0 1 1 320.57,236.79Z" style="fill:#7A9CFF" />
<path d="M338,238.46A3,3 0 1 1 332,238.46A3,3 0 1 1 338,238.46Z" style="fill:#7A9CFF" />
<path d="M355.44,251.36A3,3 0 1 1 349.44,251.36A3,3 0 1 1 355.44,251.36Z" style="fill:#7A9CFF" />
<path d="M372.87,248.06A3,3 0 1 1 366.87,248.06A3,3 0 1 1 372.87,248.06Z" style="fill:#7A9CFF" />
<path d="M390.31,255.19A3,3 0 1 1 384.31,255.19A3,3 0 1 1 390.31,255.19Z" style="fill:#7A9CFF" />
<path d="M407.74,268.96A3,3 0 1 1 401.74,268.96A3,3 0 1 1 407.74,268.96Z" style="fill:#7A9CFF" />
<path d="M425.17,288.19A3,3 0 1 1 419.17,288.19A3,3 0 1 1 425.17,288.19Z" style="fill:#7A9CFF" />
<path d="M442.61,311.84A3,3 0 1 1 436.61,311.84A3,3 0 1 1 442.61,311.84Z" style="fill:#7A9CFF" />
<path d="M460.04,345.43A3,3 0 1 1 454.04,345.43A3,3 0 1 1 460.04,345.43Z" style="fill:#7A9CFF" />
<path d="M477.48,345.67A3,3 0 1 1 471.48,345.67A3,3 0 1 1 477.48,345.67Z" style="fill:#7A9CFF" />
<path d="M494.91,412.75A3,3 0 1 1 488.91,412.75A3,3 0 1 1 494.91,412.75Z" style="fill:#7A9CFF" />
<path d="M512.34,447.68A3,3 0 1 1 506.34,447.68A3,3 0 1 1 512.34,447.68Z" style="fill:#7A9CFF" />
<path d="M529.78,503.74A3,3 0 1 1 523.78,503.74A3,3 0 1 1 529.78,503.74Z" style="fill:#7A9CFF" />
<path d="M547.21,546.43A3,3 0 1 1 541.21,546.43A3,3 0 1 1 547.21,546.43Z" style="fill:#7A9CFF" />
<path d="M564.64,569.69A3,3 0 1 1 558.64,569.69A3,3 0 1 1 564.64,569.69Z" style="fill:#7A9CFF" />
<path d="M582.08,567.66A3,3 0 1 1 576.08,567.66A3,3 0 1 1 582.08,567.66Z" style="fill:#7A9CFF" />
<path d="M599.51,540.93A3,3 0 1 1 593.51,540.93A3,3 0 1 1 599.51,540.93Z" style="fill:#7A9CFF" />
<path d="M616.95,506.96A3,3 0 1 1 610.95,506.96A3,3 0 1 1 616.95,506.96Z" style="fill:#7A9CFF" />
<path d="M634.38,493.12A3,3 0 1 1 628.38,493.12A3,3 0 1 1 634.38,493.12Z" style="fill:#7A9CFF" />
<path d="M651.81,429.41A3,3 0 1 1 645.81,429.41A3,3 0 1 1 651.81,429.41Z" style="fill:#7A9CFF" />
<path d="M669.25,392.86A3,3 0 1 1 663.25,392.86A3,3 0 1 1 669.25,392.86Z" style="fill:#7A9CFF" />
<path d="M686.68,368.84A3,3 0 1 1 680.68,368.84A3,3 0 1 1 686.68,368.84Z" style="fill:#7A9CFF" />
<path d="M704.12,354.47A3,3 0 1 1 698.12,354.47A3,3 0 1 1 704.12,354.47Z" style="fill:#7A9CFF" />
<path d="M721.55,337.68A3,3 0 1 1 715.55,337.68A3,3 0 1 1 721.55,337.68Z" style="fill:#7A9CFF" />
<path d="M738.98,310.02A3,3 0 1 1 732.98,310.02A3,3 0 1 1 738.98,310.02Z" style="fill:#7A9CFF" />
<path d="M756.42,268.15A3,3 0 1 1 750.42,268.15A3,3 0 1 1 756.42,268.15Z" style="fill:#7A9CFF" />
<path d="M773.85,289.03A3,3 0 1 1 767.85,289.03A3,3 0 1 1 773.85,289.03Z" style="fill:#7A9CFF" />
<path d="M791.29,271.74A3,3 0 1 1 785.29,271.74A3,3 0 1 1 791.29,271.74Z" style="fill:#7A9CFF" />
<path d="M808.72,230.12A3,3 0 1 1 802.72,230.12A3,3 0 1 1 808.72,230.12Z" style="fill:#7A9CFF" />
<path d="M826.15,295.54A3,3 0 1 1 820.15,295.54A3,3 0 1 1 826.15,295.54Z" style="fill:#7A9CFF" />
<path d="M843.59,261.66A3,3 0 1 1 837.59,261.66A3,3 0 1 1 843.59,261.66Z" style="fill:#7A9CFF" />
<path d="M861.02,244.8A3,3 0 1 1 855.02,244.8A3,3 0 1 1 861.02,244.8Z" style="fill:#7A9CFF" />
<path d="M878.45,251.97A3,3 0 1 1 872.45,251.97A3,3 0 1 1 878.45,251.97Z" style="fill:#7A9CFF" />
<path d="M895.89,220.39A3,3 0 1 1 889.89,220.39A3,3 0 1 1 895.89,220.39Z" style="fill:#7A9CFF" />
<path d="M913.32,239.32A3,3 0 1 1 907.32,239.32A3,3 0 1 1 913.32,239.32Z" style="fill:#7A9CFF" />
<path d="M930.76,215.35A3,3 0 1 1 924.76,215.35A3,3 0 1 1 930.76,215.35Z" style="fill:#7A9CFF" />
<path d="M948.19,228.21A3,3 0 1 1 942.19,228.21A3,3 0 1 1 948.19,228.21Z" style="fill:#7A9CFF" />
<path d="M965.62,218.4A3,3 0 1 1 959.62,218.4A3,3 0 1 1 965.62,218.4Z" style="fill:#7A9CFF" />
<path d="M983.06,216.69A3,3 0 1 1 977.06,216.69A3,3 0 1 1 983.06,216.69Z" style="fill:#7A9CFF" />
<path d="M1000.5,213.97A3,3 0 1 1 994.49,213.97A3,3 0 1 1 1000.5,213.97Z" style="fill:#7A9CFF" />
<path d="M1017.9,190.31A3,3 0 1 1 1011.9,190.31A3,3 0 1 1 1017.9,190.31Z" style="fill:#7A9CFF" />
<path d="M1035.4,206.44A3,3 0 1 1 1029.4,206.44A3,3 0 1 1 1035.4,206.44Z" style="fill:#7A9CFF" />
<path d="M178.1,232.87L179.84,233L181.59,233.13L183.33,233.26L185.07,233.39L186.82,233.52L188.56,233.66L190.3,233.8L192.05,233.94L193.79,234.08L195.53,234.23L197.28,234.37L199.02,234.52L200.76,234.67L202.51,234.82L204.25,234.97L205.99,235.13L207.74,235.29L209.48,235.44L211.22,235.61L212.97,235.77L214.71,235.94L216.45,236.1L218.2,236.28L219.94,236.45L221.68,236.62L223.43,236.8L225.17,236.98L226.91,237.16L228.66,237.35L230.4,237.54L232.14,237.73L233.89,237.92L235.63,238.12L237.37,238.32L239.12,238.52L240.86,238.72L242.61,238.93L244.35,239.14L246.09,239.35L247.84,239.57L249.58,239.79L251.32,240.01L253.07,240.24L254.81,240.47L256.55,240.7L258.3,240.94L260.04,241.18L261.78,241.42L263.53,241.67L265.27,241.92L267.01,242.18L268.76,242.44L270.5,242.7L272.24,242.97L273.99,243.24L275.73,243.51L277.47,243.79L279.22,244.08L280.96,244.37L282.7,244.66L284.45,244.96L286.19,245.26L287.93,245.57L289.68,245.89L291.42,246.2L293.16,246.53L294.91,246.86L296.65,247.19L298.39,247.53L300.14,247.88L301.88,248.23L303.62,248.59L305.37,248.95L307.11,249.32L308.85,249.7L310.6,250.08L312.34,250.47L314.08,250.87L315.83,251.27L317.57,251.68L319.31,252.1L321.06,252.53L322.8,252.96L324.54,253.4L326.29,253.85L328.03,254.31L329.77,254.77L331.52,255.25L333.26,255.73L335,256.22L336.75,256.72L338.49,257.24L340.23,257.76L341.98,258.29L343.72,258.83L345.46,259.38L347.21,259.94L348.95,260.51L350.7,261.09L352.44,261.69L354.18,262.3L355.93,262.91L357.67,263.54L359.41,264.19L361.16,264.84L362.9,265.51L364.64,266.2L366.39,266.9L368.13,267.61L369.87,268.33L371.62,269.07L373.36,269.83L375.1,270.6L376.85,271.39L378.59,272.2L380.33,273.02L382.08,273.86L383.82,274.72L385.56,275.6L387.31,276.49L389.05,277.41L390.79,278.34L392.54,279.3L394.28,280.28L396.02,281.28L397.77,282.3L399.51,283.34L401.25,284.41L403,285.51L404.74,286.62L406.48,287.77L408.23,288.94L409.97,290.13L411.71,291.36L413.46,292.61L415.2,293.89L416.94,295.2L418.69,296.55L420.43,297.92L422.17,299.33L423.92,300.77L425.66,302.25L427.4,303.76L429.15,305.31L430.89,306.89L432.63,308.52L434.38,310.18L436.12,311.89L437.86,313.63L439.61,315.42L441.35,317.26L443.09,319.14L444.84,321.06L446.58,323.03L448.32,325.06L450.07,327.13L451.81,329.25L453.55,331.43L455.3,333.66L457.04,335.95L458.79,338.3L460.53,340.7L462.27,343.16L464.02,345.69L465.76,348.27L467.5,350.92L469.25,353.64L470.99,356.42L472.73,359.27L474.48,362.2L476.22,365.19L477.96,368.25L479.71,371.39L481.45,374.6L483.19,377.88L484.94,381.24L486.68,384.68L488.42,388.2L490.17,391.79L491.91,395.47L493.65,399.22L495.4,403.05L497.14,406.96L498.88,410.95L500.63,415.02L502.37,419.17L504.11,423.39L505.86,427.69L507.6,432.06L509.34,436.5L511.09,441.01L512.83,445.58L514.57,450.21L516.32,454.91L518.06,459.65L519.8,464.44L521.55,469.27L523.29,474.14L525.03,479.04L526.78,483.95L528.52,488.88L530.26,493.81L532.01,498.73L533.75,503.64L535.49,508.51L537.24,513.35L538.98,518.13L540.72,522.84L542.47,527.48L544.21,532.02L545.95,536.45L547.7,540.75L549.44,544.92L551.18,548.93L552.93,552.77L554.67,556.43L556.41,559.88L558.16,563.12L559.9,566.13L561.64,568.9L563.39,571.41L565.13,573.65L566.87,575.61L568.62,577.28L570.36,578.66L572.11,579.73L573.85,580.49L575.59,580.94L577.34,581.07L579.08,580.88L580.82,580.38L582.57,579.57L584.31,578.44L586.05,577.01L587.8,575.29L589.54,573.28L591.28,570.99L593.03,568.43L594.77,565.62L596.51,562.57L598.26,559.29L600,555.8L601.74,552.11L603.49,548.24L605.23,544.2L606.97,540.01L608.72,535.68L610.46,531.23L612.2,526.67L613.95,522.02L615.69,517.29L617.43,512.5L619.18,507.66L620.92,502.78L622.66,497.87L624.41,492.95L626.15,488.02L627.89,483.09L629.64,478.18L631.38,473.29L633.12,468.42L634.87,463.6L636.61,458.81L638.35,454.08L640.1,449.4L641.84,444.77L643.58,440.21L645.33,435.72L647.07,431.29L648.81,426.93L650.56,422.65L652.3,418.44L654.04,414.31L655.79,410.25L657.53,406.27L659.27,402.38L661.02,398.56L662.76,394.82L664.5,391.16L666.25,387.58L667.99,384.07L669.73,380.65L671.48,377.3L673.22,374.03L674.96,370.83L676.71,367.71L678.45,364.66L680.2,361.68L681.94,358.77L683.68,355.93L685.43,353.16L687.17,350.46L688.91,347.82L690.66,345.24L692.4,342.73L694.14,340.27L695.89,337.88L697.63,335.55L699.37,333.27L701.12,331.05L702.86,328.88L704.6,326.76L706.35,324.7L708.09,322.69L709.83,320.72L711.58,318.8L713.32,316.93L715.06,315.11L716.81,313.32L718.55,311.58L720.29,309.89L722.04,308.23L723.78,306.61L725.52,305.03L727.27,303.49L729.01,301.99L730.75,300.52L732.5,299.08L734.24,297.68L735.98,296.31L737.73,294.97L739.47,293.66L741.21,292.39L742.96,291.14L744.7,289.92L746.44,288.73L748.19,287.56L749.93,286.43L751.67,285.31L753.42,284.22L755.16,283.16L756.9,282.12L758.65,281.1L760.39,280.11L762.13,279.13L763.88,278.18L765.62,277.25L767.36,276.33L769.11,275.44L770.85,274.57L772.59,273.71L774.34,272.88L776.08,272.06L777.82,271.25L779.57,270.47L781.31,269.7L783.05,268.94L784.8,268.2L786.54,267.48L788.29,266.77L790.03,266.08L791.77,265.4L793.52,264.73L795.26,264.07L797,263.43L798.75,262.8L800.49,262.19L802.23,261.58L803.98,260.99L805.72,260.41L807.46,259.84L809.21,259.28L810.95,258.73L812.69,258.19L814.44,257.66L816.18,257.15L817.92,256.64L819.67,256.14L821.41,255.65L823.15,255.16L824.9,254.69L826.64,254.23L828.38,253.77L830.13,253.32L831.87,252.88L833.61,252.45L835.36,252.03L837.1,251.61L838.84,251.2L840.59,250.8L842.33,250.4L844.07,250.02L845.82,249.63L847.56,249.26L849.3,248.89L851.05,248.53L852.79,248.17L854.53,247.82L856.28,247.47L858.02,247.13L859.76,246.8L861.51,246.47L863.25,246.15L864.99,245.83L866.74,245.52L868.48,245.21L870.22,244.91L871.97,244.61L873.71,244.32L875.45,244.03L877.2,243.75L878.94,243.47L880.68,243.19L882.43,242.92L884.17,242.65L885.91,242.39L887.66,242.13L889.4,241.88L891.14,241.63L892.89,241.38L894.63,241.14L896.38,240.9L898.12,240.66L899.86,240.43L901.61,240.2L903.35,239.97L905.09,239.75L906.84,239.53L908.58,239.32L910.32,239.1L912.07,238.89L913.81,238.69L915.55,238.48L917.3,238.28L919.04,238.08L920.78,237.89L922.53,237.69L924.27,237.5L926.01,237.32L927.76,237.13L929.5,236.95L931.24,236.77L932.99,236.59L934.73,236.42L936.47,236.25L938.22,236.08L939.96,235.91L941.7,235.74L943.45,235.58L945.19,235.42L946.93,235.26L948.68,235.1L950.42,234.95L952.16,234.79L953.91,234.64L955.65,234.49L957.39,234.35L959.14,234.2L960.88,234.06L962.62,233.92L964.37,233.78L966.11,233.64L967.85,233.5L969.6,233.37L971.34,233.23L973.08,233.1L974.83,232.97L976.57,232.84L978.31,232.72L980.06,232.59L981.8,232.47L983.54,232.35L985.29,232.23L987.03,232.11L988.77,231.99L990.52,231.88L992.26,231.76L994,231.65L995.75,231.53L997.49,231.42L999.23,231.31L1001,231.21L1002.7,231.1L1004.5,230.99L1006.2,230.89L1008,230.79L1009.7,230.68L1011.4,230.58L1013.2,230.48L1014.9,230.39L1016.7,230.29L1018.4,230.19L1020.2,230.1L1021.9,230L1023.6,229.91L1025.4,229.82L1027.1,229.73L1028.9,229.64L1030.6,229.55" style="fill:none;stroke:#637CC6;stroke-width:3" />
<path d="M493.71,399.35L660.65,399.35" style="fill:none;stroke:#637CC6;stroke-width:4;stroke-dasharray:15,5" />
<path d="M181.1,212.95A3,3 0 1 1 175.1,212.95A3,3 0 1 1 181.1,212.95Z" style="fill:#FFC17A" />
<path d="M198.53,203.18A3,3 0 1 1 192.53,203.18A3,3 0 1 1 198.53,203.18Z" style="fill:#FFC17A" />
<path d="M215.97,216.69A3,3 0 1 1 209.97,216.69A3,3 0 1 1 215.97,216.69Z" style="fill:#FFC17A" />
<path d="M233.4,218.3A3,3 0 1 1 227.4,218.3A3,3 0 1 1 233.4,218.3Z" style="fill:#FFC17A" />
<path d="M250.84,202.75A3,3 0 1 1 244.84,202.75A3,3 0 1 1 250.84,202.75Z" style="fill:#FFC17A" />
<path d="M268.27,217.47A3,3 0 1 1 262.27,217.47A3,3 0 1 1 268.27,217.47Z" style="fill:#FFC17A" />
<path d="M285.7,241.68A3,3 0 1 1 279.7,241.68A3,3 0 1 1 285.7,241.68Z" style="fill:#FFC17A" />
<path d="M303.14,223.63A3,3 0 1 1 297.14,223.63A3,3 0 1 1 303.14,223.63Z" style="fill:#FFC17A" />
<path d="M320.57,230.54A3,3 0 1 1 314.57,230.54A3,3 0 1 1 320.57,230.54Z" style="fill:#FFC17A" />
<path d="M338,232.88A3,3 0 1 1 332,232.88A3,3 0 1 1 338,232.88Z" style="fill:#FFC17A" />
<path d="M355.44,237.83A3,3 0 1 1 349.44,237.83A3,3 0 1 1 355.44,237.83Z" style="fill:#FFC17A" />
<path d="M372.87,232.73A3,3 0 1 1 366.87,232.73A3,3 0 1 1 372.87,232.73Z" style="fill:#FFC17A" />
<path d="M390.31,231.19A3,3 0 1 1 384.31,231.19A3,3 0 1 1 390.31,231.19Z" style="fill:#FFC17A" />
<path d="M407.74,251.35A3,3 0 1 1 401.74,251.35A3,3 0 1 1 407.74,251.35Z" style="fill:#FFC17A" />
<path d="M425.17,252.5A3,3 0 1 1 419.17,252.5A3,3 0 1 1 425.17,252.5Z" style="fill:#FFC17A" />
<path d="M442.61,261.06A3,3 0 1 1 436.61,261.06A3,3 0 1 1 442.61,261.06Z" style="fill:#FFC17A" />
<path d="M460.04,279.46A3,3 0 1 1 454.04,279.46A3,3 0 1 1 460.04,279.46Z" style="fill:#FFC17A" />
<path d="M477.48,273.25A3,3 0 1 1 471.48,273.25A3,3 0 1 1 477.48,273.25Z" style="fill:#FFC17A" />
<path d="M494.91,324.9A3,3 0 1 1 488.91,324.9A3,3 0 1 1 494.91,324.9Z" style="fill:#FFC17A" />
<path d="M512.34,350.53A3,3 0 1 1 506.34,350.53A3,3 0 1 1 512.34,350.53Z" style="fill:#FFC17A" />
<path d="M529.78,367.44A3,3 0 1 1 523.78,367.44A3,3 0 1 1 529.78,367.44Z" style="fill:#FFC17A" />
<path d="M547.21,393.48A3,3 0 1 1 541.21,393.48A3,3 0 1 1 547.21,393.48Z" style="fill:#FFC17A" />
<path d="M564.64,409.6A3,3 0 1 1 558.64,409.6A3,3 0 1 1 564.64,409.6Z" style="fill:#FFC17A" />
<path d="M582.08,397.22A3,3 0 1 1 576.08,397.22A3,3 0 1 1 582.08,397.22Z" style="fill:#FFC17A" />
<path d="M599.51,391.43A3,3 0 1 1 593.51,391.43A3,3 0 1 1 599.51,391.43Z" style="fill:#FFC17A" />
<path d="M616.95,352.92A3,3 0 1 1 610.95,352.92A3,3 0 1 1 616.95,352.92Z" style="fill:#FFC17A" />
<path d="M634.38,341.85A3,3 0 1 1 628.38,341.85A3,3 0 1 1 634.38,341.85Z" style="fill:#FFC17A" />
<path d="M651.81,343.43A3,3 0 1 1 645.81,343.43A3,3 0 1 1 651.81,343.43Z" style="fill:#FFC17A" />
<path d="M669.25,302.58A3,3 0 1 1 663.25,302.58A3,3 0 1 1 669.25,302.58Z" style="fill:#FFC17A" />
<path d="M686.68,304.1A3,3 0 1 1 680.68,304.1A3,3 0 1 1 686.68,304.1Z" style="fill:#FFC17A" />
<path d="M704.12,286.05A3,3 0 1 1 698.12,286.05A3,3 0 1 1 704.12,286.05Z" style="fill:#FFC17A" />
<path d="M721.55,285.14A3,3 0 1 1 715.55,285.14A3,3 0 1 1 721.55,285.14Z" style="fill:#FFC17A" />
<path d="M738.98,245.52A3,3 0 1 1 732.98,245.52A3,3 0 1 1 738.98,245.52Z" style="fill:#FFC17A" />
<path d="M756.42,243.57A3,3 0 1 1 750.42,243.57A3,3 0 1 1 756.42,243.57Z" style="fill:#FFC17A" />
<path d="M773.85,263.45A3,3 0 1 1 767.85,263.45A3,3 0 1 1 773.85,263.45Z" style="fill:#FFC17A" />
<path d="M791.29,250.95A3,3 0 1 1 785.29,250.95A3,3 0 1 1 791.29,250.95Z" style="fill:#FFC17A" />
<path d="M808.72,218.24A3,3 0 1 1 802.72,218.24A3,3 0 1 1 808.72,218.24Z" style="fill:#FFC17A" />
<path d="M826.15,255.55A3,3 0 1 1 820.15,255.55A3,3 0 1 1 826.15,255.55Z" style="fill:#FFC17A" />
<path d="M843.59,246.7A3,3 0 1 1 837.59,246.7A3,3 0 1 1 843.59,246.7Z" style="fill:#FFC17A" />
<path d="M861.02,244.71A3,3 0 1 1 855.02,244.71A3,3 0 1 1 861.02,244.71Z" style="fill:#FFC17A" />
<path d="M878.45,254.06A3,3 0 1 1 872.45,254.06A3,3 0 1 1 878.45,254.06Z" style="fill:#FFC17A" />
<path d="M895.89,213.3A3,3 0 1 1 889.89,213.3A3,3 0 1 1 895.89,213.3Z" style="fill:#FFC17A" />
<path d="M913.32,246.72A3,3 0 1 1 907.32,246.72A3,3 0 1 1 913.32,246.72Z" style="fill:#FFC17A" />
<path d="M930.76,228.9A3,3 0 1 1 924.76,228.9A3,3 0 1 1 930.76,228.9Z" style="fill:#FFC17A" />
<path d="M948.19,223.27A3,3 0 1 1 942.19,223.27A3,3 0 1 1 948.19,223.27Z" style="fill:#FFC17A" />
<path d="M965.62,210.22A3,3 0 1 1 959.62,210.22A3,3 0 1 1 965.62,210.22Z" style="fill:#FFC17A" />
<path d="M983.06,211.26A3,3 0 1 1 977.06,211.26A3,3 0 1 1 983.06,211.26Z" style="fill:#FFC17A" />
<path d="M1000.5,228.57A3,3 0 1 1 994.49,228.57A3,3 0 1 1 1000.5,228.57Z" style="fill:#FFC17A" />
<path d="M1017.9,203.57A3,3 0 1 1 1011.9,203.57A3,3 0 1 1 1017.9,203.57Z" style="fill:#FFC17A" />
<path d="M1035.4,216.31A3,3 0 1 1 1029.4,216.31A3,3 0 1 1 1035.4,216.31Z" style="fill:#FFC17A" />
<path d="M178.1,225.66L179.84,225.73L181.59,225.8L183.33,225.87L185.07,225.94L186.82,226.01L188.56,226.08L190.3,226.15L192.05,226.23L193.79,226.3L195.53,226.38L197.28,226.46L199.02,226.54L200.76,226.62L202.51,226.7L204.25,226.78L205.99,226.86L207.74,226.94L209.48,227.03L211.22,227.11L212.97,227.2L214.71,227.29L216.45,227.38L218.2,227.47L219.94,227.56L221.68,227.65L223.43,227.75L225.17,227.84L226.91,227.94L228.66,228.04L230.4,228.14L232.14,228.24L233.89,228.34L235.63,228.45L237.37,228.55L239.12,228.66L240.86,228.77L242.61,228.88L244.35,228.99L246.09,229.11L247.84,229.22L249.58,229.34L251.32,229.46L253.07,229.58L254.81,229.7L256.55,229.82L258.3,229.95L260.04,230.08L261.78,230.21L263.53,230.34L265.27,230.47L267.01,230.61L268.76,230.75L270.5,230.89L272.24,231.03L273.99,231.17L275.73,231.32L277.47,231.47L279.22,231.62L280.96,231.78L282.7,231.93L284.45,232.09L286.19,232.25L287.93,232.42L289.68,232.59L291.42,232.76L293.16,232.93L294.91,233.11L296.65,233.28L298.39,233.47L300.14,233.65L301.88,233.84L303.62,234.03L305.37,234.22L307.11,234.42L308.85,234.62L310.6,234.83L312.34,235.04L314.08,235.25L315.83,235.46L317.57,235.68L319.31,235.91L321.06,236.14L322.8,236.37L324.54,236.6L326.29,236.84L328.03,237.09L329.77,237.34L331.52,237.59L333.26,237.85L335,238.11L336.75,238.38L338.49,238.66L340.23,238.93L341.98,239.22L343.72,239.51L345.46,239.8L347.21,240.1L348.95,240.41L350.7,240.72L352.44,241.04L354.18,241.37L355.93,241.7L357.67,242.04L359.41,242.39L361.16,242.74L362.9,243.1L364.64,243.46L366.39,243.84L368.13,244.22L369.87,244.61L371.62,245.01L373.36,245.42L375.1,245.83L376.85,246.26L378.59,246.69L380.33,247.13L382.08,247.59L383.82,248.05L385.56,248.52L387.31,249L389.05,249.49L390.79,250L392.54,250.51L394.28,251.04L396.02,251.58L397.77,252.13L399.51,252.69L401.25,253.27L403,253.86L404.74,254.46L406.48,255.08L408.23,255.71L409.97,256.36L411.71,257.02L413.46,257.69L415.2,258.39L416.94,259.09L418.69,259.82L420.43,260.56L422.17,261.32L423.92,262.1L425.66,262.9L427.4,263.72L429.15,264.56L430.89,265.41L432.63,266.29L434.38,267.19L436.12,268.12L437.86,269.06L439.61,270.03L441.35,271.02L443.09,272.04L444.84,273.08L446.58,274.15L448.32,275.25L450.07,276.37L451.81,277.52L453.55,278.7L455.3,279.91L457.04,281.15L458.79,282.42L460.53,283.73L462.27,285.06L464.02,286.43L465.76,287.83L467.5,289.27L469.25,290.74L470.99,292.25L472.73,293.79L474.48,295.37L476.22,296.99L477.96,298.65L479.71,300.35L481.45,302.09L483.19,303.87L484.94,305.69L486.68,307.55L488.42,309.45L490.17,311.39L491.91,313.37L493.65,315.4L495.4,317.47L497.14,319.58L498.88,321.73L500.63,323.92L502.37,326.15L504.11,328.41L505.86,330.72L507.6,333.06L509.34,335.44L511.09,337.86L512.83,340.3L514.57,342.77L516.32,345.27L518.06,347.79L519.8,350.33L521.55,352.89L523.29,355.46L525.03,358.05L526.78,360.63L528.52,363.21L530.26,365.79L532.01,368.36L533.75,370.9L535.49,373.43L537.24,375.92L538.98,378.37L540.72,380.78L542.47,383.13L544.21,385.43L545.95,387.65L547.7,389.8L549.44,391.86L551.18,393.83L552.93,395.69L554.67,397.45L556.41,399.09L558.16,400.6L559.9,401.99L561.64,403.23L563.39,404.33L565.13,405.29L566.87,406.08L568.62,406.72L570.36,407.2L572.11,407.51L573.85,407.66L575.59,407.64L577.34,407.46L579.08,407.11L580.82,406.59L582.57,405.92L584.31,405.08L586.05,404.1L587.8,402.96L589.54,401.68L591.28,400.27L593.03,398.72L594.77,397.06L596.51,395.27L598.26,393.38L600,391.39L601.74,389.31L603.49,387.15L605.23,384.91L606.97,382.6L608.72,380.23L610.46,377.81L612.2,375.35L613.95,372.85L615.69,370.32L617.43,367.77L619.18,365.2L620.92,362.62L622.66,360.04L624.41,357.45L626.15,354.88L627.89,352.31L629.64,349.75L631.38,347.21L633.12,344.69L634.87,342.2L636.61,339.74L638.35,337.3L640.1,334.9L641.84,332.53L643.58,330.19L645.33,327.89L647.07,325.63L648.81,323.41L650.56,321.23L652.3,319.09L654.04,316.99L655.79,314.93L657.53,312.92L659.27,310.94L661.02,309.01L662.76,307.12L664.5,305.27L666.25,303.46L667.99,301.69L669.73,299.96L671.48,298.27L673.22,296.62L674.96,295.01L676.71,293.44L678.45,291.9L680.2,290.4L681.94,288.94L683.68,287.51L685.43,286.11L687.17,284.75L688.91,283.42L690.66,282.13L692.4,280.87L694.14,279.63L695.89,278.43L697.63,277.26L699.37,276.11L701.12,275L702.86,273.91L704.6,272.84L706.35,271.81L708.09,270.79L709.83,269.81L711.58,268.84L713.32,267.9L715.06,266.99L716.81,266.09L718.55,265.22L720.29,264.36L722.04,263.53L723.78,262.72L725.52,261.92L727.27,261.15L729.01,260.39L730.75,259.65L732.5,258.93L734.24,258.23L735.98,257.54L737.73,256.86L739.47,256.21L741.21,255.56L742.96,254.94L744.7,254.32L746.44,253.72L748.19,253.14L749.93,252.56L751.67,252L753.42,251.46L755.16,250.92L756.9,250.4L758.65,249.88L760.39,249.38L762.13,248.89L763.88,248.41L765.62,247.94L767.36,247.48L769.11,247.03L770.85,246.59L772.59,246.16L774.34,245.74L776.08,245.32L777.82,244.92L779.57,244.52L781.31,244.13L783.05,243.75L784.8,243.38L786.54,243.01L788.29,242.66L790.03,242.31L791.77,241.96L793.52,241.62L795.26,241.29L797,240.97L798.75,240.65L800.49,240.34L802.23,240.04L803.98,239.74L805.72,239.44L807.46,239.15L809.21,238.87L810.95,238.59L812.69,238.32L814.44,238.05L816.18,237.79L817.92,237.53L819.67,237.28L821.41,237.03L823.15,236.79L824.9,236.55L826.64,236.31L828.38,236.08L830.13,235.86L831.87,235.63L833.61,235.41L835.36,235.2L837.1,234.99L838.84,234.78L840.59,234.58L842.33,234.38L844.07,234.18L845.82,233.99L847.56,233.8L849.3,233.61L851.05,233.42L852.79,233.24L854.53,233.06L856.28,232.89L858.02,232.72L859.76,232.55L861.51,232.38L863.25,232.22L864.99,232.06L866.74,231.9L868.48,231.74L870.22,231.59L871.97,231.44L873.71,231.29L875.45,231.14L877.2,231L878.94,230.85L880.68,230.72L882.43,230.58L884.17,230.44L885.91,230.31L887.66,230.18L889.4,230.05L891.14,229.92L892.89,229.79L894.63,229.67L896.38,229.55L898.12,229.43L899.86,229.31L901.61,229.19L903.35,229.08L905.09,228.97L906.84,228.85L908.58,228.74L910.32,228.64L912.07,228.53L913.81,228.42L915.55,228.32L917.3,228.22L919.04,228.12L920.78,228.02L922.53,227.92L924.27,227.82L926.01,227.73L927.76,227.63L929.5,227.54L931.24,227.45L932.99,227.36L934.73,227.27L936.47,227.18L938.22,227.09L939.96,227.01L941.7,226.92L943.45,226.84L945.19,226.76L946.93,226.68L948.68,226.6L950.42,226.52L952.16,226.44L953.91,226.36L955.65,226.29L957.39,226.21L959.14,226.14L960.88,226.06L962.62,225.99L964.37,225.92L966.11,225.85L967.85,225.78L969.6,225.71L971.34,225.64L973.08,225.58L974.83,225.51L976.57,225.45L978.31,225.38L980.06,225.32L981.8,225.25L983.54,225.19L985.29,225.13L987.03,225.07L988.77,225.01L990.52,224.95L992.26,224.89L994,224.83L995.75,224.78L997.49,224.72L999.23,224.66L1001,224.61L1002.7,224.55L1004.5,224.5L1006.2,224.45L1008,224.39L1009.7,224.34L1011.4,224.29L1013.2,224.24L1014.9,224.19L1016.7,224.14L1018.4,224.09L1020.2,224.04L1021.9,223.99L1023.6,223.95L1025.4,223.9L1027.1,223.85L1028.9,223.81L1030.6,223.76" style="fill:none;stroke:#B78B59;stroke-width:3" />
<path d="M491.28,312.65L657.76,312.65" style="fill:none;stroke:#B78B59;stroke-width:4;stroke-dasharray:15,5" />
<path d="M181.1,215.69A3,3 0 1 1 175.1,215.69A3,3 0 1 1 181.1,215.69Z" style="fill:#1B9692" />
<path d="M198.53,209.76A3,3 0 1 1 192.53,209.76A3,3 0 1 1 198.53,209.76Z" style="fill:#1B9692" />
<path d="M215.97,218.94A3,3 0 1 1 209.97,218.94A3,3 0 1 1 215.97,218.94Z" style="fill:#1B9692" />
<path d="M233.4,222.77A3,3 0 1 1 227.4,222.77A3,3 0 1 1 233.4,222.77Z" style="fill:#1B9692" />
<path d="M250.84,216.48A3,3 0 1 1 244.84,216.48A3,3 0 1 1 250.84,216.48Z" style="fill:#1B9692" />
<path d="M268.27,208.25A3,3 0 1 1 262.27,208.25A3,3 0 1 1 268.27,208.25Z" style="fill:#1B9692" />
<path d="M285.7,228.48A3,3 0 1 1 279.7,228.48A3,3 0 1 1 285.7,228.48Z" style="fill:#1B9692" />
<path d="M303.14,218.08A3,3 0 1 1 297.14,218.08A3,3 0 1 1 303.14,218.08Z" style="fill:#1B9692" />
<path d="M320.57,222.99A3,3 0 1 1 314.57,222.99A3,3 0 1 1 320.57,222.99Z" style="fill:#1B9692" />
<path d="M338,228.64A3,3 0 1 1 332,228.64A3,3 0 1 1 338,228.64Z" style="fill:#1B9692" />
<path d="M355.44,239.7A3,3 0 1 1 349.44,239.7A3,3 0 1 1 355.44,239.7Z" style="fill:#1B9692" />
<path d="M372.87,231.32A3,3 0 1 1 366.87,231.32A3,3 0 1 1 372.87,231.32Z" style="fill:#1B9692" />
<path d="M390.31,228.92A3,3 0 1 1 384.31,228.92A3,3 0 1 1 390.31,228.92Z" style="fill:#1B9692" />
<path d="M407.74,231.99A3,3 0 1 1 401.74,231.99A3,3 0 1 1 407.74,231.99Z" style="fill:#1B9692" />
<path d="M425.17,234.92A3,3 0 1 1 419.17,234.92A3,3 0 1 1 425.17,234.92Z" style="fill:#1B9692" />
<path d="M442.61,236.29A3,3 0 1 1 436.61,236.29A3,3 0 1 1 442.61,236.29Z" style="fill:#1B9692" />
<path d="M460.04,239.84A3,3 0 1 1 454.04,239.84A3,3 0 1 1 460.04,239.84Z" style="fill:#1B9692" />
<path d="M477.48,235.87A3,3 0 1 1 471.48,235.87A3,3 0 1 1 477.48,235.87Z" style="fill:#1B9692" />
<path d="M494.91,262.16A3,3 0 1 1 488.91,262.16A3,3 0 1 1 494.91,262.16Z" style="fill:#1B9692" />
<path d="M512.34,263.03A3,3 0 1 1 506.34,263.03A3,3 0 1 1 512.34,263.03Z" style="fill:#1B9692" />
<path d="M529.78,274.3A3,3 0 1 1 523.78,274.3A3,3 0 1 1 529.78,274.3Z" style="fill:#1B9692" />
<path d="M547.21,280.88A3,3 0 1 1 541.21,280.88A3,3 0 1 1 547.21,280.88Z" style="fill:#1B9692" />
<path d="M564.64,297.28A3,3 0 1 1 558.64,297.28A3,3 0 1 1 564.64,297.28Z" style="fill:#1B9692" />
<path d="M582.08,283.61A3,3 0 1 1 576.08,283.61A3,3 0 1 1 582.08,283.61Z" style="fill:#1B9692" />
<path d="M599.51,284.06A3,3 0 1 1 593.51,284.06A3,3 0 1 1 599.51,284.06Z" style="fill:#1B9692" />
<path d="M616.95,267.19A3,3 0 1 1 610.95,267.19A3,3 0 1 1 616.95,267.19Z" style="fill:#1B9692" />
<path d="M634.38,267.87A3,3 0 1 1 628.38,267.87A3,3 0 1 1 634.38,267.87Z" style="fill:#1B9692" />
<path d="M651.81,264.69A3,3 0 1 1 645.81,264.69A3,3 0 1 1 651.81,264.69Z" style="fill:#1B9692" />
<path d="M669.25,249.78A3,3 0 1 1 663.25,249.78A3,3 0 1 1 669.25,249.78Z" style="fill:#1B9692" />
<path d="M686.68,238.4A3,3 0 1 1 680.68,238.4A3,3 0 1 1 686.68,238.4Z" style="fill:#1B9692" />
<path d="M704.12,231.02A3,3 0 1 1 698.12,231.02A3,3 0 1 1 704.12,231.02Z" style="fill:#1B9692" />
<path d="M721.55,235.64A3,3 0 1 1 715.55,235.64A3,3 0 1 1 721.55,235.64Z" style="fill:#1B9692" />
<path d="M738.98,231.71A3,3 0 1 1 732.98,231.71A3,3 0 1 1 738.98,231.71Z" style="fill:#1B9692" />
<path d="M756.42,224.71A3,3 0 1 1 750.42,224.71A3,3 0 1 1 756.42,224.71Z" style="fill:#1B9692" />
<path d="M773.85,228.14A3,3 0 1 1 767.85,228.14A3,3 0 1 1 773.85,228.14Z" style="fill:#1B9692" />
<path d="M791.29,220.08A3,3 0 1 1 785.29,220.08A3,3 0 1 1 791.29,220.08Z" style="fill:#1B9692" />
<path d="M808.72,203.9A3,3 0 1 1 802.72,203.9A3,3 0 1 1 808.72,203.9Z" style="fill:#1B9692" />
<path d="M826.15,233.3A3,3 0 1 1 820.15,233.3A3,3 0 1 1 826.15,233.3Z" style="fill:#1B9692" />
<path d="M843.59,225.17A3,3 0 1 1 837.59,225.17A3,3 0 1 1 843.59,225.17Z" style="fill:#1B9692" />
<path d="M861.02,225.61A3,3 0 1 1 855.02,225.61A3,3 0 1 1 861.02,225.61Z" style="fill:#1B9692" />
<path d="M878.45,248.3A3,3 0 1 1 872.45,248.3A3,3 0 1 1 878.45,248.3Z" style="fill:#1B9692" />
<path d="M895.89,216.72A3,3 0 1 1 889.89,216.72A3,3 0 1 1 895.89,216.72Z" style="fill:#1B9692" />
<path d="M913.32,237.11A3,3 0 1 1 907.32,237.11A3,3 0 1 1 913.32,237.11Z" style="fill:#1B9692" />
<path d="M930.76,214.64A3,3 0 1 1 924.76,214.64A3,3 0 1 1 930.76,214.64Z" style="fill:#1B9692" />
<path d="M948.19,224.49A3,3 0 1 1 942.19,224.49A3,3 0 1 1 948.19,224.49Z" style="fill:#1B9692" />
<path d="M965.62,214.78A3,3 0 1 1 959.62,214.78A3,3 0 1 1 965.62,214.78Z" style="fill:#1B9692" />
<path d="M983.06,223.63A3,3 0 1 1 977.06,223.63A3,3 0 1 1 983.06,223.63Z" style="fill:#1B9692" />
<path d="M1000.5,227.85A3,3 0 1 1 994.49,227.85A3,3 0 1 1 1000.5,227.85Z" style="fill:#1B9692" />
<path d="M1017.9,205.18A3,3 0 1 1 1011.9,205.18A3,3 0 1 1 1017.9,205.18Z" style="fill:#1B9692" />
<path d="M1035.4,224.35A3,3 0 1 1 1029.4,224.35A3,3 0 1 1 1035.4,224.35Z" style="fill:#1B9692" />
<path d="M178.1,220.5L179.84,220.53L181.59,220.55L183.33,220.58L185.07,220.6L186.82,220.63L188.56,220.66L190.3,220.68L192.05,220.71L193.79,220.74L195.53,220.76L197.28,220.79L199.02,220.82L200.76,220.85L202.51,220.88L204.25,220.91L205.99,220.94L207.74,220.97L209.48,221L211.22,221.03L212.97,221.06L214.71,221.09L216.45,221.13L218.2,221.16L219.94,221.19L221.68,221.23L223.43,221.26L225.17,221.3L226.91,221.33L228.66,221.37L230.4,221.4L232.14,221.44L233.89,221.48L235.63,221.52L237.37,221.55L239.12,221.59L240.86,221.63L242.61,221.67L244.35,221.71L246.09,221.76L247.84,221.8L249.58,221.84L251.32,221.88L253.07,221.93L254.81,221.97L256.55,222.02L258.3,222.06L260.04,222.11L261.78,222.16L263.53,222.21L265.27,222.26L267.01,222.31L268.76,222.36L270.5,222.41L272.24,222.46L273.99,222.51L275.73,222.57L277.47,222.62L279.22,222.68L280.96,222.73L282.7,222.79L284.45,222.85L286.19,222.91L287.93,222.97L289.68,223.03L291.42,223.09L293.16,223.16L294.91,223.22L296.65,223.29L298.39,223.35L300.14,223.42L301.88,223.49L303.62,223.56L305.37,223.63L307.11,223.71L308.85,223.78L310.6,223.86L312.34,223.93L314.08,224.01L315.83,224.09L317.57,224.17L319.31,224.26L321.06,224.34L322.8,224.43L324.54,224.51L326.29,224.6L328.03,224.69L329.77,224.79L331.52,224.88L333.26,224.98L335,225.07L336.75,225.17L338.49,225.28L340.23,225.38L341.98,225.49L343.72,225.59L345.46,225.7L347.21,225.82L348.95,225.93L350.7,226.05L352.44,226.17L354.18,226.29L355.93,226.41L357.67,226.54L359.41,226.67L361.16,226.8L362.9,226.93L364.64,227.07L366.39,227.21L368.13,227.36L369.87,227.5L371.62,227.65L373.36,227.81L375.1,227.96L376.85,228.12L378.59,228.28L380.33,228.45L382.08,228.62L383.82,228.8L385.56,228.98L387.31,229.16L389.05,229.34L390.79,229.54L392.54,229.73L394.28,229.93L396.02,230.13L397.77,230.34L399.51,230.56L401.25,230.78L403,231L404.74,231.23L406.48,231.47L408.23,231.71L409.97,231.95L411.71,232.21L413.46,232.47L415.2,232.73L416.94,233L418.69,233.28L420.43,233.57L422.17,233.86L423.92,234.16L425.66,234.47L427.4,234.78L429.15,235.1L430.89,235.44L432.63,235.78L434.38,236.12L436.12,236.48L437.86,236.85L439.61,237.23L441.35,237.61L443.09,238.01L444.84,238.41L446.58,238.83L448.32,239.26L450.07,239.7L451.81,240.15L453.55,240.61L455.3,241.09L457.04,241.57L458.79,242.07L460.53,242.59L462.27,243.11L464.02,243.65L465.76,244.21L467.5,244.78L469.25,245.36L470.99,245.96L472.73,246.57L474.48,247.2L476.22,247.85L477.96,248.51L479.71,249.19L481.45,249.88L483.19,250.59L484.94,251.32L486.68,252.07L488.42,252.83L490.17,253.61L491.91,254.41L493.65,255.22L495.4,256.06L497.14,256.91L498.88,257.78L500.63,258.66L502.37,259.56L504.11,260.48L505.86,261.42L507.6,262.37L509.34,263.33L511.09,264.31L512.83,265.3L514.57,266.3L516.32,267.31L518.06,268.33L519.8,269.36L521.55,270.39L523.29,271.43L525.03,272.47L526.78,273.51L528.52,274.55L530.26,275.58L532.01,276.6L533.75,277.61L535.49,278.61L537.24,279.6L538.98,280.56L540.72,281.5L542.47,282.41L544.21,283.29L545.95,284.14L547.7,284.95L549.44,285.71L551.18,286.44L552.93,287.11L554.67,287.73L556.41,288.3L558.16,288.81L559.9,289.26L561.64,289.65L563.39,289.97L565.13,290.23L566.87,290.41L568.62,290.53L570.36,290.58L572.11,290.56L573.85,290.47L575.59,290.3L577.34,290.07L579.08,289.78L580.82,289.41L582.57,288.98L584.31,288.5L586.05,287.95L587.8,287.35L589.54,286.69L591.28,285.98L593.03,285.23L594.77,284.44L596.51,283.6L598.26,282.74L600,281.83L601.74,280.91L603.49,279.95L605.23,278.98L606.97,277.98L608.72,276.97L610.46,275.95L612.2,274.92L613.95,273.89L615.69,272.85L617.43,271.81L619.18,270.77L620.92,269.74L622.66,268.71L624.41,267.68L626.15,266.67L627.89,265.66L629.64,264.67L631.38,263.69L633.12,262.72L634.87,261.76L636.61,260.82L638.35,259.9L640.1,258.99L641.84,258.1L643.58,257.23L645.33,256.37L647.07,255.53L648.81,254.71L650.56,253.9L652.3,253.11L654.04,252.34L655.79,251.59L657.53,250.86L659.27,250.14L661.02,249.44L662.76,248.75L664.5,248.09L666.25,247.44L667.99,246.8L669.73,246.18L671.48,245.58L673.22,244.99L674.96,244.41L676.71,243.86L678.45,243.31L680.2,242.78L681.94,242.26L683.68,241.76L685.43,241.26L687.17,240.78L688.91,240.32L690.66,239.86L692.4,239.42L694.14,238.99L695.89,238.57L697.63,238.16L699.37,237.76L701.12,237.37L702.86,236.99L704.6,236.62L706.35,236.26L708.09,235.9L709.83,235.56L711.58,235.23L713.32,234.9L715.06,234.58L716.81,234.27L718.55,233.97L720.29,233.67L722.04,233.38L723.78,233.1L725.52,232.83L727.27,232.56L729.01,232.3L730.75,232.05L732.5,231.8L734.24,231.55L735.98,231.32L737.73,231.08L739.47,230.86L741.21,230.64L742.96,230.42L744.7,230.21L746.44,230L748.19,229.8L749.93,229.61L751.67,229.41L753.42,229.23L755.16,229.04L756.9,228.86L758.65,228.69L760.39,228.51L762.13,228.35L763.88,228.18L765.62,228.02L767.36,227.86L769.11,227.71L770.85,227.56L772.59,227.41L774.34,227.26L776.08,227.12L777.82,226.98L779.57,226.85L781.31,226.72L783.05,226.59L784.8,226.46L786.54,226.33L788.29,226.21L790.03,226.09L791.77,225.97L793.52,225.86L795.26,225.74L797,225.63L798.75,225.52L800.49,225.42L802.23,225.31L803.98,225.21L805.72,225.11L807.46,225.01L809.21,224.92L810.95,224.82L812.69,224.73L814.44,224.64L816.18,224.55L817.92,224.46L819.67,224.37L821.41,224.29L823.15,224.2L824.9,224.12L826.64,224.04L828.38,223.96L830.13,223.89L831.87,223.81L833.61,223.73L835.36,223.66L837.1,223.59L838.84,223.52L840.59,223.45L842.33,223.38L844.07,223.31L845.82,223.25L847.56,223.18L849.3,223.12L851.05,223.05L852.79,222.99L854.53,222.93L856.28,222.87L858.02,222.81L859.76,222.75L861.51,222.7L863.25,222.64L864.99,222.59L866.74,222.53L868.48,222.48L870.22,222.43L871.97,222.37L873.71,222.32L875.45,222.27L877.2,222.22L878.94,222.18L880.68,222.13L882.43,222.08L884.17,222.03L885.91,221.99L887.66,221.94L889.4,221.9L891.14,221.86L892.89,221.81L894.63,221.77L896.38,221.73L898.12,221.69L899.86,221.65L901.61,221.61L903.35,221.57L905.09,221.53L906.84,221.49L908.58,221.45L910.32,221.42L912.07,221.38L913.81,221.34L915.55,221.31L917.3,221.27L919.04,221.24L920.78,221.21L922.53,221.17L924.27,221.14L926.01,221.11L927.76,221.07L929.5,221.04L931.24,221.01L932.99,220.98L934.73,220.95L936.47,220.92L938.22,220.89L939.96,220.86L941.7,220.83L943.45,220.8L945.19,220.77L946.93,220.75L948.68,220.72L950.42,220.69L952.16,220.67L953.91,220.64L955.65,220.61L957.39,220.59L959.14,220.56L960.88,220.54L962.62,220.51L964.37,220.49L966.11,220.46L967.85,220.44L969.6,220.42L971.34,220.39L973.08,220.37L974.83,220.35L976.57,220.32L978.31,220.3L980.06,220.28L981.8,220.26L983.54,220.24L985.29,220.22L987.03,220.2L988.77,220.18L990.52,220.16L992.26,220.14L994,220.12L995.75,220.1L997.49,220.08L999.23,220.06L1001,220.04L1002.7,220.02L1004.5,220L1006.2,219.98L1008,219.96L1009.7,219.95L1011.4,219.93L1013.2,219.91L1014.9,219.89L1016.7,219.88L1018.4,219.86L1020.2,219.84L1021.9,219.83L1023.6,219.81L1025.4,219.79L1027.1,219.78L1028.9,219.76L1030.6,219.75" style="fill:none;stroke:#126663;stroke-width:3" />
<path d="M491.26,254.11L650.11,254.11" style="fill:none;stroke:#126663;stroke-width:4;stroke-dasharray:15,5" />
<text x="830.71" y="-898" transform="scale(1, -1)"
	style="font-family:Helvetica;font-weight:normal;font-style:normal;font-size:56px">Power</text>
<path d="M1036,852.33A6,6 0 1 1 1024,852.33A6,6 0 1 1 1036,852.33Z" style="fill:#1BAA8B" />
<text x="780.95" y="-839.14" transform="scale(1, -1)"
	style="font-family:Helvetica;font-weight:normal;font-style:normal;font-size:56px">189 mW</text>
<path d="M1036,793.47A6,6 0 1 1 1024,793.47A6,6 0 1 1 1036,793.47Z" style="fill:#C96892" />
<text x="780.95" y="-780.27" transform="scale(1, -1)"
	style="font-family:Helvetica;font-weight:normal;font-style:normal;font-size:56px">143 mW</text>
<path d="M1036,734.6A6,6 0 1 1 1024,734.6A6,6 0 1 1 1036,734.6Z" style="fill:#637CC6" />
<text x="812.09" y="-721.41" transform="scale(1, -1)"
	style="font-family:Helvetica;font-weight:normal;font-style:normal;font-size:56px">94 mW</text>
<path d="M1036,675.74A6,6 0 1 1 1024,675.74A6,6 0 1 1 1036,675.74Z" style="fill:#B78B59" />
<text x="812.09" y="-662.55" transform="scale(1, -1)"
	style="font-family:Helvetica;font-weight:normal;font-style:normal;font-size:56px">43 mW</text>
<path d="M1036,616.88A6,6 0 1 1 1024,616.88A6,6 0 1 1 1036,616.88Z" style="fill:#126663" />
<text x="812.09" y="-603.68" transform="scale(1, -1)"
	style="font-family:Helvetica;font-weight:normal;font-style:normal;font-size:56px">14 mW</text>
</g>
</svg>
