<?xml version="1.0"?>
<!-- Generated by SVGo and Plotinum VG -->
<svg width="1080pt" height="1080pt" viewBox="0 0 1080 1080"
	xmlns="http://www.w3.org/2000/svg"
	xmlns:xlink="http://www.w3.org/1999/xlink">
<g transform="scale(1, -1) translate(0, -1080)">
<path d="M0,0L1080,0L1080,1080L0,1080Z" style="fill:#-8000000000000000-8000000000000000-8000000000000000;fill-opacity:0" />
<text x="471.92" y="-1039.5" transform="scale(1, -1)"
	style="font-family:Helvetica;font-weight:normal;font-style:normal;font-size:50px">CABS</text>
<text x="462.91" y="-11.039" transform="scale(1, -1)"
	style="font-family:Helvetica;font-weight:normal;font-style:normal;font-size:36px">Frequency (GHz)</text>
<path d="M121.89,108.44L1080,108.44" style="fill:none;stroke:#000000;stroke-width:1.5" />
<g transform="rotate(90)">
<text x="370.67" y="29.18" transform="scale(1, -1)"
	style="font-family:Helvetica;font-weight:normal;font-style:normal;font-size:36px">Spectral Density (uV)</text>
</g>
<text x="87.869" y="-98.246" transform="scale(1, -1)"
	style="font-family:Helvetica;font-weight:normal;font-style:normal;font-size:36px">0</text>
<text x="87.869" y="-345.91" transform="scale(1, -1)"
	style="font-family:Helvetica;font-weight:normal;font-style:normal;font-size:36px">5</text>
<text x="67.848" y="-593.57" transform="scale(1, -1)"
	style="font-family:Helvetica;font-weight:normal;font-style:normal;font-size:36px">10</text>
<text x="67.848" y="-841.24" transform="scale(1, -1)"
	style="font-family:Helvetica;font-weight:normal;font-style:normal;font-size:36px">15</text>
<path d="M133.89,107.32L125.89,107.32" style="fill:none;stroke:#000000;stroke-width:1.5" />
<path d="M129.89,231.15L125.89,231.15" style="fill:none;stroke:#000000;stroke-width:1.5" />
<path d="M133.89,354.98L125.89,354.98" style="fill:none;stroke:#000000;stroke-width:1.5" />
<path d="M129.89,478.81L125.89,478.81" style="fill:none;stroke:#000000;stroke-width:1.5" />
<path d="M133.89,602.64L125.89,602.64" style="fill:none;stroke:#000000;stroke-width:1.5" />
<path d="M129.89,726.48L125.89,726.48" style="fill:none;stroke:#000000;stroke-width:1.5" />
<path d="M133.89,850.31L125.89,850.31" style="fill:none;stroke:#000000;stroke-width:1.5" />
<path d="M129.89,974.14L125.89,974.14" style="fill:none;stroke:#000000;stroke-width:1.5" />
<path d="M125.89,107.32L125.89,974.14" style="fill:none;stroke:#000000;stroke-width:1.5" />
<path d="M133.14,107.32A3,3 0 1 1 127.14,107.32A3,3 0 1 1 133.14,107.32Z" style="fill:#1FD3AC" />
<path d="M141.39,107.32A3,3 0 1 1 135.39,107.32A3,3 0 1 1 141.39,107.32Z" style="fill:#1FD3AC" />
<path d="M149.64,107.32A3,3 0 1 1 143.64,107.32A3,3 0 1 1 149.64,107.32Z" style="fill:#1FD3AC" />
<path d="M157.89,107.32A3,3 0 1 1 151.89,107.32A3,3 0 1 1 157.89,107.32Z" style="fill:#1FD3AC" />
<path d="M166.14,107.32A3,3 0 1 1 160.14,107.32A3,3 0 1 1 166.14,107.32Z" style="fill:#1FD3AC" />
<path d="M174.39,107.32A3,3 0 1 1 168.39,107.32A3,3 0 1 1 174.39,107.32Z" style="fill:#1FD3AC" />
<path d="M182.65,107.32A3,3 0 1 1 176.65,107.32A3,3 0 1 1 182.65,107.32Z" style="fill:#1FD3AC" />
<path d="M190.9,107.32A3,3 0 1 1 184.9,107.32A3,3 0 1 1 190.9,107.32Z" style="fill:#1FD3AC" />
<path d="M199.15,107.32A3,3 0 1 1 193.15,107.32A3,3 0 1 1 199.15,107.32Z" style="fill:#1FD3AC" />
<path d="M207.4,107.32A3,3 0 1 1 201.4,107.32A3,3 0 1 1 207.4,107.32Z" style="fill:#1FD3AC" />
<path d="M215.65,107.32A3,3 0 1 1 209.65,107.32A3,3 0 1 1 215.65,107.32Z" style="fill:#1FD3AC" />
<path d="M223.9,107.32A3,3 0 1 1 217.9,107.32A3,3 0 1 1 223.9,107.32Z" style="fill:#1FD3AC" />
<path d="M232.15,107.32A3,3 0 1 1 226.15,107.32A3,3 0 1 1 232.15,107.32Z" style="fill:#1FD3AC" />
<path d="M240.4,107.32A3,3 0 1 1 234.4,107.32A3,3 0 1 1 240.4,107.32Z" style="fill:#1FD3AC" />
<path d="M248.65,107.32A3,3 0 1 1 242.65,107.32A3,3 0 1 1 248.65,107.32Z" style="fill:#1FD3AC" />
<path d="M256.9,107.32A3,3 0 1 1 250.9,107.32A3,3 0 1 1 256.9,107.32Z" style="fill:#1FD3AC" />
<path d="M265.15,107.32A3,3 0 1 1 259.15,107.32A3,3 0 1 1 265.15,107.32Z" style="fill:#1FD3AC" />
<path d="M273.4,107.32A3,3 0 1 1 267.4,107.32A3,3 0 1 1 273.4,107.32Z" style="fill:#1FD3AC" />
<path d="M281.65,107.32A3,3 0 1 1 275.65,107.32A3,3 0 1 1 281.65,107.32Z" style="fill:#1FD3AC" />
<path d="M289.9,107.32A3,3 0 1 1 283.9,107.32A3,3 0 1 1 289.9,107.32Z" style="fill:#1FD3AC" />
<path d="M298.15,107.32A3,3 0 1 1 292.15,107.32A3,3 0 1 1 298.15,107.32Z" style="fill:#1FD3AC" />
<path d="M306.4,107.32A3,3 0 1 1 300.4,107.32A3,3 0 1 1 306.4,107.32Z" style="fill:#1FD3AC" />
<path d="M314.65,107.32A3,3 0 1 1 308.65,107.32A3,3 0 1 1 314.65,107.32Z" style="fill:#1FD3AC" />
<path d="M322.9,107.32A3,3 0 1 1 316.9,107.32A3,3 0 1 1 322.9,107.32Z" style="fill:#1FD3AC" />
<path d="M331.15,107.32A3,3 0 1 1 325.15,107.32A3,3 0 1 1 331.15,107.32Z" style="fill:#1FD3AC" />
<path d="M339.4,107.32A3,3 0 1 1 333.4,107.32A3,3 0 1 1 339.4,107.32Z" style="fill:#1FD3AC" />
<path d="M347.65,107.32A3,3 0 1 1 341.65,107.32A3,3 0 1 1 347.65,107.32Z" style="fill:#1FD3AC" />
<path d="M355.9,107.32A3,3 0 1 1 349.9,107.32A3,3 0 1 1 355.9,107.32Z" style="fill:#1FD3AC" />
<path d="M364.15,107.32A3,3 0 1 1 358.15,107.32A3,3 0 1 1 364.15,107.32Z" style="fill:#1FD3AC" />
<path d="M372.4,107.32A3,3 0 1 1 366.4,107.32A3,3 0 1 1 372.4,107.32Z" style="fill:#1FD3AC" />
<path d="M380.65,107.32A3,3 0 1 1 374.65,107.32A3,3 0 1 1 380.65,107.32Z" style="fill:#1FD3AC" />
<path d="M388.9,107.32A3,3 0 1 1 382.9,107.32A3,3 0 1 1 388.9,107.32Z" style="fill:#1FD3AC" />
<path d="M397.15,107.32A3,3 0 1 1 391.15,107.32A3,3 0 1 1 397.15,107.32Z" style="fill:#1FD3AC" />
<path d="M405.41,107.32A3,3 0 1 1 399.41,107.32A3,3 0 1 1 405.41,107.32Z" style="fill:#1FD3AC" />
<path d="M413.66,107.32A3,3 0 1 1 407.66,107.32A3,3 0 1 1 413.66,107.32Z" style="fill:#1FD3AC" />
<path d="M421.91,107.32A3,3 0 1 1 415.91,107.32A3,3 0 1 1 421.91,107.32Z" style="fill:#1FD3AC" />
<path d="M430.16,107.32A3,3 0 1 1 424.16,107.32A3,3 0 1 1 430.16,107.32Z" style="fill:#1FD3AC" />
<path d="M438.41,107.32A3,3 0 1 1 432.41,107.32A3,3 0 1 1 438.41,107.32Z" style="fill:#1FD3AC" />
<path d="M446.66,107.32A3,3 0 1 1 440.66,107.32A3,3 0 1 1 446.66,107.32Z" style="fill:#1FD3AC" />
<path d="M454.91,107.32A3,3 0 1 1 448.91,107.32A3,3 0 1 1 454.91,107.32Z" style="fill:#1FD3AC" />
<path d="M463.16,107.32A3,3 0 1 1 457.16,107.32A3,3 0 1 1 463.16,107.32Z" style="fill:#1FD3AC" />
<path d="M471.41,107.32A3,3 0 1 1 465.41,107.32A3,3 0 1 1 471.41,107.32Z" style="fill:#1FD3AC" />
<path d="M479.66,107.32A3,3 0 1 1 473.66,107.32A3,3 0 1 1 479.66,107.32Z" style="fill:#1FD3AC" />
<path d="M487.91,107.32A3,3 0 1 1 481.91,107.32A3,3 0 1 1 487.91,107.32Z" style="fill:#1FD3AC" />
<path d="M496.16,107.32A3,3 0 1 1 490.16,107.32A3,3 0 1 1 496.16,107.32Z" style="fill:#1FD3AC" />
<path d="M504.41,107.32A3,3 0 1 1 498.41,107.32A3,3 0 1 1 504.41,107.32Z" style="fill:#1FD3AC" />
<path d="M512.66,107.32A3,3 0 1 1 506.66,107.32A3,3 0 1 1 512.66,107.32Z" style="fill:#1FD3AC" />
<path d="M520.91,107.32A3,3 0 1 1 514.91,107.32A3,3 0 1 1 520.91,107.32Z" style="fill:#1FD3AC" />
<path d="M529.16,107.32A3,3 0 1 1 523.16,107.32A3,3 0 1 1 529.16,107.32Z" style="fill:#1FD3AC" />
<path d="M537.41,107.32A3,3 0 1 1 531.41,107.32A3,3 0 1 1 537.41,107.32Z" style="fill:#1FD3AC" />
<path d="M545.66,107.32A3,3 0 1 1 539.66,107.32A3,3 0 1 1 545.66,107.32Z" style="fill:#1FD3AC" />
<path d="M553.91,107.32A3,3 0 1 1 547.91,107.32A3,3 0 1 1 553.91,107.32Z" style="fill:#1FD3AC" />
<path d="M562.16,107.32A3,3 0 1 1 556.16,107.32A3,3 0 1 1 562.16,107.32Z" style="fill:#1FD3AC" />
<path d="M570.41,107.32A3,3 0 1 1 564.41,107.32A3,3 0 1 1 570.41,107.32Z" style="fill:#1FD3AC" />
<path d="M578.66,107.32A3,3 0 1 1 572.66,107.32A3,3 0 1 1 578.66,107.32Z" style="fill:#1FD3AC" />
<path d="M586.91,107.32A3,3 0 1 1 580.91,107.32A3,3 0 1 1 586.91,107.32Z" style="fill:#1FD3AC" />
<path d="M595.16,107.32A3,3 0 1 1 589.16,107.32A3,3 0 1 1 595.16,107.32Z" style="fill:#1FD3AC" />
<path d="M603.41,107.32A3,3 0 1 1 597.41,107.32A3,3 0 1 1 603.41,107.32Z" style="fill:#1FD3AC" />
<path d="M611.66,107.32A3,3 0 1 1 605.66,107.32A3,3 0 1 1 611.66,107.32Z" style="fill:#1FD3AC" />
<path d="M619.91,107.32A3,3 0 1 1 613.91,107.32A3,3 0 1 1 619.91,107.32Z" style="fill:#1FD3AC" />
<path d="M628.17,107.32A3,3 0 1 1 622.17,107.32A3,3 0 1 1 628.17,107.32Z" style="fill:#1FD3AC" />
<path d="M636.42,107.32A3,3 0 1 1 630.42,107.32A3,3 0 1 1 636.42,107.32Z" style="fill:#1FD3AC" />
<path d="M644.67,107.32A3,3 0 1 1 638.67,107.32A3,3 0 1 1 644.67,107.32Z" style="fill:#1FD3AC" />
<path d="M652.92,107.32A3,3 0 1 1 646.92,107.32A3,3 0 1 1 652.92,107.32Z" style="fill:#1FD3AC" />
<path d="M661.17,107.32A3,3 0 1 1 655.17,107.32A3,3 0 1 1 661.17,107.32Z" style="fill:#1FD3AC" />
<path d="M669.42,107.32A3,3 0 1 1 663.42,107.32A3,3 0 1 1 669.42,107.32Z" style="fill:#1FD3AC" />
<path d="M677.67,107.32A3,3 0 1 1 671.67,107.32A3,3 0 1 1 677.67,107.32Z" style="fill:#1FD3AC" />
<path d="M685.92,107.32A3,3 0 1 1 679.92,107.32A3,3 0 1 1 685.92,107.32Z" style="fill:#1FD3AC" />
<path d="M694.17,107.32A3,3 0 1 1 688.17,107.32A3,3 0 1 1 694.17,107.32Z" style="fill:#1FD3AC" />
<path d="M702.42,107.32A3,3 0 1 1 696.42,107.32A3,3 0 1 1 702.42,107.32Z" style="fill:#1FD3AC" />
<path d="M710.67,107.32A3,3 0 1 1 704.67,107.32A3,3 0 1 1 710.67,107.32Z" style="fill:#1FD3AC" />
<path d="M718.92,107.32A3,3 0 1 1 712.92,107.32A3,3 0 1 1 718.92,107.32Z" style="fill:#1FD3AC" />
<path d="M727.17,107.32A3,3 0 1 1 721.17,107.32A3,3 0 1 1 727.17,107.32Z" style="fill:#1FD3AC" />
<path d="M735.42,107.32A3,3 0 1 1 729.42,107.32A3,3 0 1 1 735.42,107.32Z" style="fill:#1FD3AC" />
<path d="M743.67,107.32A3,3 0 1 1 737.67,107.32A3,3 0 1 1 743.67,107.32Z" style="fill:#1FD3AC" />
<path d="M751.92,107.32A3,3 0 1 1 745.92,107.32A3,3 0 1 1 751.92,107.32Z" style="fill:#1FD3AC" />
<path d="M760.17,107.32A3,3 0 1 1 754.17,107.32A3,3 0 1 1 760.17,107.32Z" style="fill:#1FD3AC" />
<path d="M768.42,107.32A3,3 0 1 1 762.42,107.32A3,3 0 1 1 768.42,107.32Z" style="fill:#1FD3AC" />
<path d="M776.67,107.32A3,3 0 1 1 770.67,107.32A3,3 0 1 1 776.67,107.32Z" style="fill:#1FD3AC" />
<path d="M784.92,107.32A3,3 0 1 1 778.92,107.32A3,3 0 1 1 784.92,107.32Z" style="fill:#1FD3AC" />
<path d="M793.17,107.32A3,3 0 1 1 787.17,107.32A3,3 0 1 1 793.17,107.32Z" style="fill:#1FD3AC" />
<path d="M801.42,107.32A3,3 0 1 1 795.42,107.32A3,3 0 1 1 801.42,107.32Z" style="fill:#1FD3AC" />
<path d="M809.67,107.32A3,3 0 1 1 803.67,107.32A3,3 0 1 1 809.67,107.32Z" style="fill:#1FD3AC" />
<path d="M817.92,107.32A3,3 0 1 1 811.92,107.32A3,3 0 1 1 817.92,107.32Z" style="fill:#1FD3AC" />
<path d="M826.17,107.32A3,3 0 1 1 820.17,107.32A3,3 0 1 1 826.17,107.32Z" style="fill:#1FD3AC" />
<path d="M834.42,107.32A3,3 0 1 1 828.42,107.32A3,3 0 1 1 834.42,107.32Z" style="fill:#1FD3AC" />
<path d="M842.67,107.32A3,3 0 1 1 836.67,107.32A3,3 0 1 1 842.67,107.32Z" style="fill:#1FD3AC" />
<path d="M850.93,107.32A3,3 0 1 1 844.93,107.32A3,3 0 1 1 850.93,107.32Z" style="fill:#1FD3AC" />
<path d="M859.18,107.32A3,3 0 1 1 853.18,107.32A3,3 0 1 1 859.18,107.32Z" style="fill:#1FD3AC" />
<path d="M867.43,107.32A3,3 0 1 1 861.43,107.32A3,3 0 1 1 867.43,107.32Z" style="fill:#1FD3AC" />
<path d="M875.68,107.32A3,3 0 1 1 869.68,107.32A3,3 0 1 1 875.68,107.32Z" style="fill:#1FD3AC" />
<path d="M883.93,107.32A3,3 0 1 1 877.93,107.32A3,3 0 1 1 883.93,107.32Z" style="fill:#1FD3AC" />
<path d="M892.18,107.32A3,3 0 1 1 886.18,107.32A3,3 0 1 1 892.18,107.32Z" style="fill:#1FD3AC" />
<path d="M900.43,107.32A3,3 0 1 1 894.43,107.32A3,3 0 1 1 900.43,107.32Z" style="fill:#1FD3AC" />
<path d="M908.68,107.32A3,3 0 1 1 902.68,107.32A3,3 0 1 1 908.68,107.32Z" style="fill:#1FD3AC" />
<path d="M1011,867.02A6,6 0 1 1 999,867.02A6,6 0 1 1 1011,867.02Z" style="fill:#1FD3AC" />
<text x="845.91" y="-858.54" transform="scale(1, -1)"
	style="font-family:Helvetica;font-weight:normal;font-style:normal;font-size:36px">22-4-27</text>
</g>
</svg>
